<?xml version="1.0" encoding="utf-8" standalone="no"?>
<!DOCTYPE svg PUBLIC "-//W3C//DTD SVG 1.1//EN"
  "http://www.w3.org/Graphics/SVG/1.1/DTD/svg11.dtd">
<!-- Created with matplotlib (http://matplotlib.org/) -->
<svg height="333pt" version="1.1" viewBox="0 0 378 333" width="378pt" xmlns="http://www.w3.org/2000/svg" xmlns:xlink="http://www.w3.org/1999/xlink">
 <defs>
  <style type="text/css">
*{stroke-linecap:butt;stroke-linejoin:round;}
  </style>
 </defs>
 <g id="figure_1">
  <g id="patch_1">
   <path d="M 0 333.7245 
L 378.52 333.7245 
L 378.52 0 
L 0 0 
z
" style="fill:#ffffff;"/>
  </g>
  <g id="axes_1">
   <g id="patch_2">
    <path d="M 10.7 276.812 
L 367.82 276.812 
L 367.82 10.7 
L 10.7 10.7 
z
" style="fill:#ffffff;"/>
   </g>
   <g id="matplotlib.axis_1">
    <g id="xtick_1">
     <g id="line2d_1">
      <path clip-path="url(#p532ab50bc9)" d="M 10.610046 276.812 
L 10.610046 10.7 
" style="fill:none;stroke:#b0b0b0;stroke-linecap:square;stroke-width:0.8;"/>
     </g>
     <g id="line2d_2">
      <defs>
       <path d="M 0 0 
L 0 3.5 
" id="m765d048d52" style="stroke:#000000;stroke-width:0.8;"/>
      </defs>
      <g>
       <use style="stroke:#000000;stroke-width:0.8;" x="10.610046" xlink:href="#m765d048d52" y="276.812"/>
      </g>
     </g>
    </g>
    <g id="xtick_2">
     <g id="line2d_3">
      <path clip-path="url(#p532ab50bc9)" d="M 93.874246 276.812 
L 93.874246 10.7 
" style="fill:none;stroke:#b0b0b0;stroke-linecap:square;stroke-width:0.8;"/>
     </g>
     <g id="line2d_4">
      <g>
       <use style="stroke:#000000;stroke-width:0.8;" x="93.874246" xlink:href="#m765d048d52" y="276.812"/>
      </g>
     </g>
     <g id="text_1">
      <!-- -4 -->
      <defs>
       <path d="M 4.890625 31.390625 
L 31.203125 31.390625 
L 31.203125 23.390625 
L 4.890625 23.390625 
z
" id="DejaVuSans-2d"/>
       <path d="M 37.796875 64.3125 
L 12.890625 25.390625 
L 37.796875 25.390625 
z
M 35.203125 72.90625 
L 47.609375 72.90625 
L 47.609375 25.390625 
L 58.015625 25.390625 
L 58.015625 17.1875 
L 47.609375 17.1875 
L 47.609375 0 
L 37.796875 0 
L 37.796875 17.1875 
L 4.890625 17.1875 
L 4.890625 26.703125 
z
" id="DejaVuSans-34"/>
      </defs>
      <g transform="translate(83.903933 299.008875)scale(0.2 -0.2)">
       <use xlink:href="#DejaVuSans-2d"/>
       <use x="36.083984" xlink:href="#DejaVuSans-34"/>
      </g>
     </g>
    </g>
    <g id="xtick_3">
     <g id="line2d_5">
      <path clip-path="url(#p532ab50bc9)" d="M 177.138445 276.812 
L 177.138445 10.7 
" style="fill:none;stroke:#b0b0b0;stroke-linecap:square;stroke-width:0.8;"/>
     </g>
     <g id="line2d_6">
      <g>
       <use style="stroke:#000000;stroke-width:0.8;" x="177.138445" xlink:href="#m765d048d52" y="276.812"/>
      </g>
     </g>
     <g id="text_2">
      <!-- 0 -->
      <defs>
       <path d="M 31.78125 66.40625 
Q 24.171875 66.40625 20.328125 58.90625 
Q 16.5 51.421875 16.5 36.375 
Q 16.5 21.390625 20.328125 13.890625 
Q 24.171875 6.390625 31.78125 6.390625 
Q 39.453125 6.390625 43.28125 13.890625 
Q 47.125 21.390625 47.125 36.375 
Q 47.125 51.421875 43.28125 58.90625 
Q 39.453125 66.40625 31.78125 66.40625 
M 31.78125 74.21875 
Q 44.046875 74.21875 50.515625 64.515625 
Q 56.984375 54.828125 56.984375 36.375 
Q 56.984375 17.96875 50.515625 8.265625 
Q 44.046875 -1.421875 31.78125 -1.421875 
Q 19.53125 -1.421875 13.0625 8.265625 
Q 6.59375 17.96875 6.59375 36.375 
Q 6.59375 54.828125 13.0625 64.515625 
Q 19.53125 74.21875 31.78125 74.21875 
" id="DejaVuSans-30"/>
      </defs>
      <g transform="translate(170.775945 299.008875)scale(0.2 -0.2)">
       <use xlink:href="#DejaVuSans-30"/>
      </g>
     </g>
    </g>
    <g id="xtick_4">
     <g id="line2d_7">
      <path clip-path="url(#p532ab50bc9)" d="M 260.402645 276.812 
L 260.402645 10.7 
" style="fill:none;stroke:#b0b0b0;stroke-linecap:square;stroke-width:0.8;"/>
     </g>
     <g id="line2d_8">
      <g>
       <use style="stroke:#000000;stroke-width:0.8;" x="260.402645" xlink:href="#m765d048d52" y="276.812"/>
      </g>
     </g>
     <g id="text_3">
      <!-- 4 -->
      <g transform="translate(254.040145 299.008875)scale(0.2 -0.2)">
       <use xlink:href="#DejaVuSans-34"/>
      </g>
     </g>
    </g>
    <g id="xtick_5">
     <g id="line2d_9">
      <path clip-path="url(#p532ab50bc9)" d="M 343.666844 276.812 
L 343.666844 10.7 
" style="fill:none;stroke:#b0b0b0;stroke-linecap:square;stroke-width:0.8;"/>
     </g>
     <g id="line2d_10">
      <g>
       <use style="stroke:#000000;stroke-width:0.8;" x="343.666844" xlink:href="#m765d048d52" y="276.812"/>
      </g>
     </g>
     <g id="text_4">
      <!-- 8 -->
      <defs>
       <path d="M 31.78125 34.625 
Q 24.75 34.625 20.71875 30.859375 
Q 16.703125 27.09375 16.703125 20.515625 
Q 16.703125 13.921875 20.71875 10.15625 
Q 24.75 6.390625 31.78125 6.390625 
Q 38.8125 6.390625 42.859375 10.171875 
Q 46.921875 13.96875 46.921875 20.515625 
Q 46.921875 27.09375 42.890625 30.859375 
Q 38.875 34.625 31.78125 34.625 
M 21.921875 38.8125 
Q 15.578125 40.375 12.03125 44.71875 
Q 8.5 49.078125 8.5 55.328125 
Q 8.5 64.0625 14.71875 69.140625 
Q 20.953125 74.21875 31.78125 74.21875 
Q 42.671875 74.21875 48.875 69.140625 
Q 55.078125 64.0625 55.078125 55.328125 
Q 55.078125 49.078125 51.53125 44.71875 
Q 48 40.375 41.703125 38.8125 
Q 48.828125 37.15625 52.796875 32.3125 
Q 56.78125 27.484375 56.78125 20.515625 
Q 56.78125 9.90625 50.3125 4.234375 
Q 43.84375 -1.421875 31.78125 -1.421875 
Q 19.734375 -1.421875 13.25 4.234375 
Q 6.78125 9.90625 6.78125 20.515625 
Q 6.78125 27.484375 10.78125 32.3125 
Q 14.796875 37.15625 21.921875 38.8125 
M 18.3125 54.390625 
Q 18.3125 48.734375 21.84375 45.5625 
Q 25.390625 42.390625 31.78125 42.390625 
Q 38.140625 42.390625 41.71875 45.5625 
Q 45.3125 48.734375 45.3125 54.390625 
Q 45.3125 60.0625 41.71875 63.234375 
Q 38.140625 66.40625 31.78125 66.40625 
Q 25.390625 66.40625 21.84375 63.234375 
Q 18.3125 60.0625 18.3125 54.390625 
" id="DejaVuSans-38"/>
      </defs>
      <g transform="translate(337.304344 299.008875)scale(0.2 -0.2)">
       <use xlink:href="#DejaVuSans-38"/>
      </g>
     </g>
    </g>
    <g id="text_5">
     <!-- log10 of Df -->
     <defs>
      <path d="M 9.421875 75.984375 
L 18.40625 75.984375 
L 18.40625 0 
L 9.421875 0 
z
" id="DejaVuSans-6c"/>
      <path d="M 30.609375 48.390625 
Q 23.390625 48.390625 19.1875 42.75 
Q 14.984375 37.109375 14.984375 27.296875 
Q 14.984375 17.484375 19.15625 11.84375 
Q 23.34375 6.203125 30.609375 6.203125 
Q 37.796875 6.203125 41.984375 11.859375 
Q 46.1875 17.53125 46.1875 27.296875 
Q 46.1875 37.015625 41.984375 42.703125 
Q 37.796875 48.390625 30.609375 48.390625 
M 30.609375 56 
Q 42.328125 56 49.015625 48.375 
Q 55.71875 40.765625 55.71875 27.296875 
Q 55.71875 13.875 49.015625 6.21875 
Q 42.328125 -1.421875 30.609375 -1.421875 
Q 18.84375 -1.421875 12.171875 6.21875 
Q 5.515625 13.875 5.515625 27.296875 
Q 5.515625 40.765625 12.171875 48.375 
Q 18.84375 56 30.609375 56 
" id="DejaVuSans-6f"/>
      <path d="M 45.40625 27.984375 
Q 45.40625 37.75 41.375 43.109375 
Q 37.359375 48.484375 30.078125 48.484375 
Q 22.859375 48.484375 18.828125 43.109375 
Q 14.796875 37.75 14.796875 27.984375 
Q 14.796875 18.265625 18.828125 12.890625 
Q 22.859375 7.515625 30.078125 7.515625 
Q 37.359375 7.515625 41.375 12.890625 
Q 45.40625 18.265625 45.40625 27.984375 
M 54.390625 6.78125 
Q 54.390625 -7.171875 48.1875 -13.984375 
Q 42 -20.796875 29.203125 -20.796875 
Q 24.46875 -20.796875 20.265625 -20.09375 
Q 16.0625 -19.390625 12.109375 -17.921875 
L 12.109375 -9.1875 
Q 16.0625 -11.328125 19.921875 -12.34375 
Q 23.78125 -13.375 27.78125 -13.375 
Q 36.625 -13.375 41.015625 -8.765625 
Q 45.40625 -4.15625 45.40625 5.171875 
L 45.40625 9.625 
Q 42.625 4.78125 38.28125 2.390625 
Q 33.9375 0 27.875 0 
Q 17.828125 0 11.671875 7.65625 
Q 5.515625 15.328125 5.515625 27.984375 
Q 5.515625 40.671875 11.671875 48.328125 
Q 17.828125 56 27.875 56 
Q 33.9375 56 38.28125 53.609375 
Q 42.625 51.21875 45.40625 46.390625 
L 45.40625 54.6875 
L 54.390625 54.6875 
z
" id="DejaVuSans-67"/>
      <path d="M 12.40625 8.296875 
L 28.515625 8.296875 
L 28.515625 63.921875 
L 10.984375 60.40625 
L 10.984375 69.390625 
L 28.421875 72.90625 
L 38.28125 72.90625 
L 38.28125 8.296875 
L 54.390625 8.296875 
L 54.390625 0 
L 12.40625 0 
z
" id="DejaVuSans-31"/>
      <path id="DejaVuSans-20"/>
      <path d="M 37.109375 75.984375 
L 37.109375 68.5 
L 28.515625 68.5 
Q 23.6875 68.5 21.796875 66.546875 
Q 19.921875 64.59375 19.921875 59.515625 
L 19.921875 54.6875 
L 34.71875 54.6875 
L 34.71875 47.703125 
L 19.921875 47.703125 
L 19.921875 0 
L 10.890625 0 
L 10.890625 47.703125 
L 2.296875 47.703125 
L 2.296875 54.6875 
L 10.890625 54.6875 
L 10.890625 58.5 
Q 10.890625 67.625 15.140625 71.796875 
Q 19.390625 75.984375 28.609375 75.984375 
z
" id="DejaVuSans-66"/>
      <path d="M 19.671875 64.796875 
L 19.671875 8.109375 
L 31.59375 8.109375 
Q 46.6875 8.109375 53.6875 14.9375 
Q 60.6875 21.78125 60.6875 36.53125 
Q 60.6875 51.171875 53.6875 57.984375 
Q 46.6875 64.796875 31.59375 64.796875 
z
M 9.8125 72.90625 
L 30.078125 72.90625 
Q 51.265625 72.90625 61.171875 64.09375 
Q 71.09375 55.28125 71.09375 36.53125 
Q 71.09375 17.671875 61.125 8.828125 
Q 51.171875 0 30.078125 0 
L 9.8125 0 
z
" id="DejaVuSans-44"/>
     </defs>
     <g transform="translate(134.074063 322.365125)scale(0.2 -0.2)">
      <use xlink:href="#DejaVuSans-6c"/>
      <use x="27.783203" xlink:href="#DejaVuSans-6f"/>
      <use x="88.964844" xlink:href="#DejaVuSans-67"/>
      <use x="152.441406" xlink:href="#DejaVuSans-31"/>
      <use x="216.064453" xlink:href="#DejaVuSans-30"/>
      <use x="279.6875" xlink:href="#DejaVuSans-20"/>
      <use x="311.474609" xlink:href="#DejaVuSans-6f"/>
      <use x="372.65625" xlink:href="#DejaVuSans-66"/>
      <use x="407.861328" xlink:href="#DejaVuSans-20"/>
      <use x="439.648438" xlink:href="#DejaVuSans-44"/>
      <use x="516.650391" xlink:href="#DejaVuSans-66"/>
     </g>
    </g>
   </g>
   <g id="matplotlib.axis_2">
    <g id="ytick_1">
     <g id="line2d_11">
      <path clip-path="url(#p532ab50bc9)" d="M 10.7 276.812 
L 367.82 276.812 
" style="fill:none;stroke:#b0b0b0;stroke-linecap:square;stroke-width:0.8;"/>
     </g>
     <g id="line2d_12">
      <defs>
       <path d="M 0 0 
L -3.5 0 
" id="m850ed44071" style="stroke:#000000;stroke-width:0.8;"/>
      </defs>
      <g>
       <use style="stroke:#000000;stroke-width:0.8;" x="10.7" xlink:href="#m850ed44071" y="276.812"/>
      </g>
     </g>
    </g>
    <g id="ytick_2">
     <g id="line2d_13">
      <path clip-path="url(#p532ab50bc9)" d="M 10.7 224.116554 
L 367.82 224.116554 
" style="fill:none;stroke:#b0b0b0;stroke-linecap:square;stroke-width:0.8;"/>
     </g>
     <g id="line2d_14">
      <g>
       <use style="stroke:#000000;stroke-width:0.8;" x="10.7" xlink:href="#m850ed44071" y="224.116554"/>
      </g>
     </g>
    </g>
    <g id="ytick_3">
     <g id="line2d_15">
      <path clip-path="url(#p532ab50bc9)" d="M 10.7 171.421109 
L 367.82 171.421109 
" style="fill:none;stroke:#b0b0b0;stroke-linecap:square;stroke-width:0.8;"/>
     </g>
     <g id="line2d_16">
      <g>
       <use style="stroke:#000000;stroke-width:0.8;" x="10.7" xlink:href="#m850ed44071" y="171.421109"/>
      </g>
     </g>
    </g>
    <g id="ytick_4">
     <g id="line2d_17">
      <path clip-path="url(#p532ab50bc9)" d="M 10.7 118.725663 
L 367.82 118.725663 
" style="fill:none;stroke:#b0b0b0;stroke-linecap:square;stroke-width:0.8;"/>
     </g>
     <g id="line2d_18">
      <g>
       <use style="stroke:#000000;stroke-width:0.8;" x="10.7" xlink:href="#m850ed44071" y="118.725663"/>
      </g>
     </g>
    </g>
    <g id="ytick_5">
     <g id="line2d_19">
      <path clip-path="url(#p532ab50bc9)" d="M 10.7 66.030218 
L 367.82 66.030218 
" style="fill:none;stroke:#b0b0b0;stroke-linecap:square;stroke-width:0.8;"/>
     </g>
     <g id="line2d_20">
      <g>
       <use style="stroke:#000000;stroke-width:0.8;" x="10.7" xlink:href="#m850ed44071" y="66.030218"/>
      </g>
     </g>
    </g>
    <g id="ytick_6">
     <g id="line2d_21">
      <path clip-path="url(#p532ab50bc9)" d="M 10.7 13.334772 
L 367.82 13.334772 
" style="fill:none;stroke:#b0b0b0;stroke-linecap:square;stroke-width:0.8;"/>
     </g>
     <g id="line2d_22">
      <g>
       <use style="stroke:#000000;stroke-width:0.8;" x="10.7" xlink:href="#m850ed44071" y="13.334772"/>
      </g>
     </g>
    </g>
   </g>
   <g id="line2d_23">
    <path clip-path="url(#p532ab50bc9)" d="M 179.019365 276.812 
L 179.019365 275.055485 
L 180.960911 275.055485 
L 180.960911 273.29897 
L 181.88794 273.29897 
L 181.88794 271.542455 
L 182.31115 271.542455 
L 182.374168 268.029426 
L 182.570427 268.029426 
L 182.570427 266.272911 
L 182.807065 266.272911 
L 182.807065 264.516396 
L 183.163627 264.516396 
L 183.163627 262.759881 
L 183.43217 262.759881 
L 183.43217 261.003366 
L 183.69184 261.003366 
L 183.69184 259.246851 
L 183.918058 259.246851 
L 183.991053 255.733822 
L 184.098606 255.733822 
L 184.119794 250.464277 
L 184.310161 250.464277 
L 184.403596 245.194733 
L 184.62045 245.194733 
L 184.62045 243.438218 
L 184.742672 243.438218 
L 184.843395 236.412158 
L 184.992144 236.412158 
L 185.085501 229.386099 
L 185.845604 229.386099 
L 185.845604 227.629584 
L 186.070547 227.629584 
L 186.070547 225.873069 
L 186.520721 225.873069 
L 186.520721 224.116554 
L 212.030321 224.116554 
L 212.030321 222.36004 
L 212.392638 222.36004 
L 212.392638 220.603525 
L 212.506705 220.603525 
L 212.506705 218.84701 
L 213.15333 218.84701 
L 213.15333 217.090495 
L 214.045059 217.090495 
L 214.130421 213.577465 
L 214.777907 213.577465 
L 214.879163 210.064436 
L 214.997456 210.064436 
L 214.997456 208.307921 
L 215.135557 208.307921 
L 215.135557 206.551406 
L 215.487939 206.551406 
L 215.514424 203.038376 
L 215.623354 203.038376 
L 215.700849 192.499287 
L 215.799018 192.499287 
L 215.862952 185.473228 
L 215.986488 185.473228 
L 216.092982 171.421109 
L 216.134343 171.421109 
L 216.159582 167.908079 
L 216.290016 167.908079 
L 216.353532 159.125505 
L 216.401533 159.125505 
L 216.495028 153.85596 
L 216.522716 153.85596 
L 216.625134 136.290812 
L 216.640195 136.290812 
L 216.710415 123.995208 
L 216.761603 123.995208 
L 216.834968 118.725663 
L 223.263108 118.725663 
L 223.263108 116.969149 
L 223.375271 116.969149 
L 223.454666 113.456119 
L 223.580818 113.456119 
L 223.59651 108.186574 
L 223.743355 108.186574 
L 223.743355 106.430059 
L 223.869935 106.430059 
L 223.927262 101.160515 
L 224.007688 101.160515 
L 224.078794 95.89097 
L 224.269066 95.89097 
L 224.342984 90.621426 
L 224.639591 90.621426 
L 224.728516 85.351881 
L 224.85497 85.351881 
L 224.962452 78.325822 
L 224.980512 78.325822 
L 224.980512 76.569307 
L 225.106397 76.569307 
L 225.21683 71.299762 
L 225.218472 71.299762 
L 225.218472 69.543248 
L 225.39296 69.543248 
L 225.39296 67.786733 
L 225.752752 67.786733 
L 225.752752 66.030218 
L 243.340752 66.030218 
L 243.340752 64.273703 
L 243.987303 64.273703 
L 243.987303 62.517188 
L 247.166744 62.517188 
L 247.166744 60.760673 
L 248.488766 60.760673 
L 248.488766 59.004158 
L 249.248375 59.004158 
L 249.248375 57.247644 
L 249.537427 57.247644 
L 249.537427 55.491129 
L 251.936789 55.491129 
L 251.936789 53.734614 
L 252.222388 53.734614 
L 252.222388 51.978099 
L 252.845041 51.978099 
L 252.845041 50.221584 
L 253.264207 50.221584 
L 253.264207 48.465069 
L 254.266024 48.465069 
L 254.266024 46.708554 
L 254.74148 46.708554 
L 254.74148 44.95204 
L 255.022801 44.95204 
L 255.022801 43.195525 
L 255.704232 43.195525 
L 255.704232 41.43901 
L 257.416845 41.43901 
L 257.416845 39.682495 
L 257.702578 39.682495 
L 257.770334 34.41295 
L 257.929343 34.41295 
L 257.929343 32.656436 
L 258.45891 32.656436 
L 258.45891 30.899921 
L 258.830671 30.899921 
L 258.903414 25.630376 
L 259.023688 25.630376 
L 259.023688 23.873861 
L 260.19577 23.873861 
L 260.19577 22.117347 
L 261.512506 22.117347 
L 261.512506 20.360832 
L 263.831941 20.360832 
L 263.831941 18.604317 
L 264.030607 18.604317 
L 264.030607 16.847802 
L 264.202967 16.847802 
L 264.202967 15.091287 
L 264.607378 15.091287 
L 264.607378 13.334772 
L 264.607378 13.334772 
L 367.82 13.334772 
L 367.82 13.334772 
" style="fill:none;stroke:#ff0000;stroke-linecap:square;stroke-width:3;"/>
   </g>
   <g id="line2d_24">
    <path clip-path="url(#p532ab50bc9)" d="M 192.399884 276.812 
L 192.399884 275.055485 
L 192.559069 275.055485 
L 192.559069 273.29897 
L 192.897401 273.29897 
L 192.897401 271.542455 
L 193.197605 271.542455 
L 193.305307 268.029426 
L 193.387135 268.029426 
L 193.387135 266.272911 
L 193.658529 266.272911 
L 193.658529 264.516396 
L 193.880381 264.516396 
L 193.919702 261.003366 
L 194.515606 261.003366 
L 194.515606 259.246851 
L 194.863716 259.246851 
L 194.863716 257.490337 
L 195.564084 257.490337 
L 195.564084 255.733822 
L 195.769543 255.733822 
L 195.800183 250.464277 
L 196.283554 250.464277 
L 196.283554 248.707762 
L 196.806561 248.707762 
L 196.859333 245.194733 
L 196.984952 245.194733 
L 196.984952 243.438218 
L 197.130231 243.438218 
L 197.130231 241.681703 
L 197.646481 241.681703 
L 197.646481 239.925188 
L 197.921712 239.925188 
L 197.921712 238.168673 
L 198.068055 238.168673 
L 198.068055 236.412158 
L 198.183574 236.412158 
L 198.278711 231.142614 
L 198.327619 231.142614 
L 198.327619 229.386099 
L 198.684811 229.386099 
L 198.684811 227.629584 
L 198.865476 227.629584 
L 198.865476 225.873069 
L 200.434897 225.873069 
L 200.434897 224.116554 
L 214.721304 224.116554 
L 214.721304 222.36004 
L 214.983199 222.36004 
L 215.007552 218.84701 
L 215.201799 218.84701 
L 215.26612 215.33398 
L 215.401819 215.33398 
L 215.401819 213.577465 
L 215.618381 213.577465 
L 215.724722 210.064436 
L 215.818453 210.064436 
L 215.818453 208.307921 
L 215.959308 208.307921 
L 215.982254 204.794891 
L 216.110209 204.794891 
L 216.207474 194.255802 
L 216.244547 194.255802 
L 216.341956 185.473228 
L 216.423048 185.473228 
L 216.515251 178.447168 
L 216.622778 178.447168 
L 216.721685 162.638535 
L 216.74542 162.638535 
L 216.844265 152.099446 
L 216.910962 152.099446 
L 216.991772 132.777782 
L 217.022131 132.777782 
L 217.100192 118.725663 
L 225.699746 118.725663 
L 225.699746 116.969149 
L 225.970269 116.969149 
L 225.970269 115.212634 
L 226.2131 115.212634 
L 226.2131 113.456119 
L 227.282105 113.456119 
L 227.346515 109.943089 
L 227.7015 109.943089 
L 227.760387 106.430059 
L 227.855129 106.430059 
L 227.933385 101.160515 
L 227.983916 101.160515 
L 228.040851 95.89097 
L 228.13674 95.89097 
L 228.24423 92.377941 
L 228.284 92.377941 
L 228.305804 88.864911 
L 228.432365 88.864911 
L 228.54233 80.082337 
L 228.720314 80.082337 
L 228.810235 74.812792 
L 228.871405 74.812792 
L 228.974862 67.786733 
L 229.228894 67.786733 
L 229.228894 66.030218 
L 254.279447 66.030218 
L 254.279447 64.273703 
L 256.70841 64.273703 
L 256.70841 62.517188 
L 257.3845 62.517188 
L 257.3845 60.760673 
L 258.089794 60.760673 
L 258.089794 59.004158 
L 259.841105 59.004158 
L 259.841105 57.247644 
L 260.228671 57.247644 
L 260.228671 55.491129 
L 260.631086 55.491129 
L 260.631086 53.734614 
L 260.867923 53.734614 
L 260.867923 51.978099 
L 261.179096 51.978099 
L 261.210861 48.465069 
L 262.136593 48.465069 
L 262.136593 46.708554 
L 263.154373 46.708554 
L 263.249341 41.43901 
L 264.408394 41.43901 
L 264.440054 37.92598 
L 265.087391 37.92598 
L 265.119191 34.41295 
L 265.327886 34.41295 
L 265.351989 30.899921 
L 265.875526 30.899921 
L 265.875526 13.334772 
L 265.875526 13.334772 
L 367.82 13.334772 
L 367.82 13.334772 
" style="fill:none;stroke:#00bfbf;stroke-linecap:square;stroke-width:1.5;"/>
   </g>
   <g id="line2d_25">
    <path clip-path="url(#p532ab50bc9)" d="M 190.588021 276.812 
L 190.588021 275.055485 
L 190.588021 275.055485 
L 190.588021 275.055485 
L 190.685618 275.055485 
L 190.685618 273.29897 
L 191.059757 273.29897 
L 191.059757 271.542455 
L 191.420398 271.542455 
L 191.420398 269.785941 
L 191.878045 269.785941 
L 191.970411 266.272911 
L 192.399884 266.272911 
L 192.399884 264.516396 
L 192.559069 264.516396 
L 192.559069 262.759881 
L 192.844133 262.759881 
L 192.897401 259.246851 
L 193.197605 259.246851 
L 193.305307 255.733822 
L 193.387135 255.733822 
L 193.450321 252.220792 
L 193.658529 252.220792 
L 193.658529 250.464277 
L 193.880381 250.464277 
L 193.880381 248.707762 
L 194.350674 248.707762 
L 194.350674 246.951248 
L 194.515606 246.951248 
L 194.515606 245.194733 
L 195.393085 245.194733 
L 195.393085 243.438218 
L 195.575805 243.438218 
L 195.575805 241.681703 
L 195.76797 241.681703 
L 195.788688 236.412158 
L 196.6011 236.412158 
L 196.6011 234.655644 
L 196.94511 234.655644 
L 197.051886 229.386099 
L 197.229776 229.386099 
L 197.229776 227.629584 
L 197.646481 227.629584 
L 197.646481 225.873069 
L 198.164095 225.873069 
L 198.164095 224.116554 
L 214.671124 224.116554 
L 214.752209 218.84701 
L 215.007552 218.84701 
L 215.097235 215.33398 
L 215.149878 215.33398 
L 215.149878 213.577465 
L 215.596762 213.577465 
L 215.706808 206.551406 
L 215.923293 206.551406 
L 215.977465 203.038376 
L 216.110209 203.038376 
L 216.221127 190.742772 
L 216.227334 190.742772 
L 216.302099 185.473228 
L 216.423048 185.473228 
L 216.515251 178.447168 
L 216.622778 178.447168 
L 216.702919 159.125505 
L 216.772232 159.125505 
L 216.871171 148.586416 
L 216.895103 148.586416 
L 216.99329 125.751723 
L 217.03096 125.751723 
L 217.072557 118.725663 
L 225.699746 118.725663 
L 225.805824 115.212634 
L 225.970269 115.212634 
L 225.970269 113.456119 
L 226.591659 113.456119 
L 226.64809 108.186574 
L 227.180716 108.186574 
L 227.180716 106.430059 
L 227.346515 106.430059 
L 227.452524 101.160515 
L 227.465534 101.160515 
L 227.543087 97.647485 
L 227.7015 97.647485 
L 227.716971 92.377941 
L 227.918397 92.377941 
L 227.983916 85.351881 
L 228.040851 85.351881 
L 228.085946 81.838851 
L 228.279071 81.838851 
L 228.284 78.325822 
L 228.417978 78.325822 
L 228.503106 73.056277 
L 228.538418 73.056277 
L 228.639978 66.030218 
L 254.279447 66.030218 
L 254.279447 64.273703 
L 255.916747 64.273703 
L 255.916747 62.517188 
L 256.70841 62.517188 
L 256.70841 60.760673 
L 257.992188 60.760673 
L 258.089794 57.247644 
L 258.971231 57.247644 
L 258.971231 55.491129 
L 259.325444 55.491129 
L 259.325444 53.734614 
L 259.511772 53.734614 
L 259.511772 51.978099 
L 259.744192 51.978099 
L 259.744192 50.221584 
L 260.946784 50.221584 
L 260.946784 48.465069 
L 261.179096 48.465069 
L 261.210861 44.95204 
L 262.647283 44.95204 
L 262.647283 43.195525 
L 262.870658 43.195525 
L 262.870658 41.43901 
L 263.249341 41.43901 
L 263.317925 37.92598 
L 264.440054 37.92598 
L 264.440054 36.169465 
L 265.087391 36.169465 
L 265.087391 34.41295 
L 265.327886 34.41295 
L 265.351989 30.899921 
L 265.606066 30.899921 
L 265.606066 29.143406 
L 265.875526 29.143406 
L 265.875526 13.334772 
L 265.875526 13.334772 
L 367.82 13.334772 
L 367.82 13.334772 
" style="fill:none;stroke:#bf00bf;stroke-linecap:square;stroke-width:1.5;"/>
   </g>
   <g id="line2d_26">
    <path clip-path="url(#p532ab50bc9)" d="M 188.289543 276.812 
L 188.289543 275.055485 
L 188.68377 275.055485 
L 188.68377 273.29897 
L 189.43485 273.29897 
L 189.43485 271.542455 
L 190.416055 271.542455 
L 190.416055 269.785941 
L 190.588021 269.785941 
L 190.685618 266.272911 
L 191.059757 266.272911 
L 191.059757 264.516396 
L 191.397823 264.516396 
L 191.420398 261.003366 
L 191.878045 261.003366 
L 191.970411 257.490337 
L 192.399884 257.490337 
L 192.399884 255.733822 
L 192.559069 255.733822 
L 192.668624 252.220792 
L 192.748143 252.220792 
L 192.844133 246.951248 
L 193.187306 246.951248 
L 193.187306 245.194733 
L 193.305307 245.194733 
L 193.333699 241.681703 
L 193.579726 241.681703 
L 193.579726 239.925188 
L 193.880381 239.925188 
L 193.985855 236.412158 
L 194.350674 236.412158 
L 194.350674 234.655644 
L 194.515606 234.655644 
L 194.523255 231.142614 
L 194.952963 231.142614 
L 194.952963 229.386099 
L 195.276815 229.386099 
L 195.276815 227.629584 
L 195.76797 227.629584 
L 195.76797 225.873069 
L 196.94511 225.873069 
L 196.94511 224.116554 
L 214.53332 224.116554 
L 214.539752 220.603525 
L 214.671124 220.603525 
L 214.671124 218.84701 
L 214.988803 218.84701 
L 215.045942 213.577465 
L 215.525735 213.577465 
L 215.588155 210.064436 
L 215.649686 210.064436 
L 215.706808 206.551406 
L 215.903302 206.551406 
L 215.945832 199.525347 
L 216.081357 199.525347 
L 216.147648 190.742772 
L 216.209973 190.742772 
L 216.292411 185.473228 
L 216.337408 185.473228 
L 216.423048 180.203683 
L 216.465377 180.203683 
L 216.515251 176.690653 
L 216.60454 176.690653 
L 216.700226 159.125505 
L 216.772232 159.125505 
L 216.875456 141.560356 
L 216.897158 141.560356 
L 216.980763 122.238693 
L 217.027775 122.238693 
L 217.050005 118.725663 
L 225.699746 118.725663 
L 225.723685 115.212634 
L 225.970269 115.212634 
L 225.970269 113.456119 
L 226.486035 113.456119 
L 226.591659 109.943089 
L 226.608538 109.943089 
L 226.64809 104.673545 
L 226.757887 104.673545 
L 226.757887 102.91703 
L 226.903476 102.91703 
L 226.972879 99.404 
L 227.158814 99.404 
L 227.253755 94.134455 
L 227.288872 94.134455 
L 227.346515 88.864911 
L 227.429276 88.864911 
L 227.476857 80.082337 
L 227.759688 80.082337 
L 227.785934 76.569307 
L 227.971709 76.569307 
L 227.983916 73.056277 
L 228.265321 73.056277 
L 228.279071 69.543248 
L 228.398345 69.543248 
L 228.420417 66.030218 
L 254.279447 66.030218 
L 254.279447 64.273703 
L 255.884061 64.273703 
L 255.916747 60.760673 
L 256.339549 60.760673 
L 256.339549 59.004158 
L 257.744427 59.004158 
L 257.744427 57.247644 
L 257.992188 57.247644 
L 258.057701 53.734614 
L 258.19622 53.734614 
L 258.236894 50.221584 
L 259.511772 50.221584 
L 259.511772 48.465069 
L 260.096939 48.465069 
L 260.096939 46.708554 
L 260.946784 46.708554 
L 260.946784 44.95204 
L 261.862569 44.95204 
L 261.862569 43.195525 
L 262.252747 43.195525 
L 262.252747 41.43901 
L 262.647283 41.43901 
L 262.647283 39.682495 
L 263.249341 39.682495 
L 263.317925 36.169465 
L 263.491175 36.169465 
L 263.491175 34.41295 
L 264.173167 34.41295 
L 264.173167 32.656436 
L 264.440054 32.656436 
L 264.440054 30.899921 
L 264.624453 30.899921 
L 264.624453 29.143406 
L 265.057794 29.143406 
L 265.162956 25.630376 
L 265.355994 25.630376 
L 265.410507 22.117347 
L 265.875526 22.117347 
L 265.875526 13.334772 
L 265.875526 13.334772 
L 367.82 13.334772 
L 367.82 13.334772 
" style="fill:none;stroke:#000000;stroke-linecap:square;stroke-width:1.5;"/>
   </g>
   <g id="line2d_27">
    <path clip-path="url(#p532ab50bc9)" d="M 187.1989 276.812 
L 187.1989 275.055485 
L 188.280299 275.055485 
L 188.289543 271.542455 
L 188.68377 271.542455 
L 188.68377 269.785941 
L 189.43485 269.785941 
L 189.43485 268.029426 
L 189.89818 268.029426 
L 189.89818 266.272911 
L 190.265862 266.272911 
L 190.265862 264.516396 
L 190.4017 264.516396 
L 190.416055 261.003366 
L 190.588021 261.003366 
L 190.694892 253.977307 
L 190.794524 253.977307 
L 190.855778 250.464277 
L 191.051969 250.464277 
L 191.143836 246.951248 
L 191.25211 246.951248 
L 191.25211 245.194733 
L 191.611768 245.194733 
L 191.706443 241.681703 
L 191.744152 241.681703 
L 191.744152 239.925188 
L 191.868455 239.925188 
L 191.868455 238.168673 
L 191.997914 238.168673 
L 191.997914 236.412158 
L 192.260975 236.412158 
L 192.357395 232.899129 
L 192.379937 232.899129 
L 192.379937 231.142614 
L 192.630891 231.142614 
L 192.630891 229.386099 
L 193.333699 229.386099 
L 193.333699 227.629584 
L 193.744047 227.629584 
L 193.744047 225.873069 
L 193.880381 225.873069 
L 193.880381 224.116554 
L 213.898738 224.116554 
L 213.898738 222.36004 
L 214.53332 222.36004 
L 214.637776 218.84701 
L 214.671124 218.84701 
L 214.671124 217.090495 
L 214.914428 217.090495 
L 214.914428 215.33398 
L 215.041061 215.33398 
L 215.041061 213.577465 
L 215.480842 213.577465 
L 215.552996 206.551406 
L 215.844413 206.551406 
L 215.945832 196.012317 
L 215.995779 196.012317 
L 216.074311 190.742772 
L 216.110209 190.742772 
L 216.205287 185.473228 
L 216.302894 185.473228 
L 216.410387 178.447168 
L 216.41619 178.447168 
L 216.514004 169.664594 
L 216.58143 169.664594 
L 216.689113 157.36899 
L 216.700226 157.36899 
L 216.808531 143.316871 
L 216.822494 143.316871 
L 216.910233 125.751723 
L 216.935714 125.751723 
L 217.029628 118.725663 
L 225.362207 118.725663 
L 225.362207 116.969149 
L 225.723685 116.969149 
L 225.723685 115.212634 
L 225.85146 115.212634 
L 225.880046 111.699604 
L 225.970269 111.699604 
L 226.011026 108.186574 
L 226.173937 108.186574 
L 226.250499 102.91703 
L 226.304735 102.91703 
L 226.389276 97.647485 
L 226.486035 97.647485 
L 226.553652 94.134455 
L 226.608538 94.134455 
L 226.608538 92.377941 
L 226.757887 92.377941 
L 226.775913 88.864911 
L 226.8726 88.864911 
L 226.972879 83.595366 
L 227.013287 83.595366 
L 227.030512 80.082337 
L 227.158814 80.082337 
L 227.262436 76.569307 
L 227.285586 76.569307 
L 227.341233 73.056277 
L 227.476857 73.056277 
L 227.555019 66.030218 
L 250.163002 66.030218 
L 250.163002 64.273703 
L 252.290208 64.273703 
L 252.290208 62.517188 
L 254.279447 62.517188 
L 254.279447 60.760673 
L 254.791238 60.760673 
L 254.791238 59.004158 
L 255.505332 59.004158 
L 255.584191 55.491129 
L 256.313644 55.491129 
L 256.313644 53.734614 
L 256.628119 53.734614 
L 256.628119 51.978099 
L 257.508478 51.978099 
L 257.508478 50.221584 
L 258.236894 50.221584 
L 258.261366 46.708554 
L 259.638536 46.708554 
L 259.638536 44.95204 
L 260.35637 44.95204 
L 260.35637 43.195525 
L 260.591669 43.195525 
L 260.591669 41.43901 
L 261.71638 41.43901 
L 261.71638 39.682495 
L 261.862569 39.682495 
L 261.862569 37.92598 
L 262.099949 37.92598 
L 262.099949 36.169465 
L 262.384397 36.169465 
L 262.384397 34.41295 
L 262.941525 34.41295 
L 262.949642 30.899921 
L 263.225692 30.899921 
L 263.288839 27.386891 
L 264.155958 27.386891 
L 264.155958 25.630376 
L 264.290177 25.630376 
L 264.303884 22.117347 
L 264.773336 22.117347 
L 264.773336 20.360832 
L 265.875526 20.360832 
L 265.875526 13.334772 
L 265.875526 13.334772 
L 367.82 13.334772 
L 367.82 13.334772 
" style="fill:none;stroke:#00bfbf;stroke-linecap:square;stroke-width:1.5;"/>
   </g>
   <g id="line2d_28">
    <path clip-path="url(#p532ab50bc9)" d="M 183.624891 276.812 
L 183.624891 275.055485 
L 184.973381 275.055485 
L 184.973381 273.29897 
L 185.829216 273.29897 
L 185.829216 271.542455 
L 186.078097 271.542455 
L 186.078097 269.785941 
L 186.359493 269.785941 
L 186.426981 264.516396 
L 187.123864 264.516396 
L 187.123864 262.759881 
L 187.630335 262.759881 
L 187.630335 261.003366 
L 187.896545 261.003366 
L 187.896545 259.246851 
L 188.101481 259.246851 
L 188.101481 257.490337 
L 188.280299 257.490337 
L 188.303646 253.977307 
L 188.418143 253.977307 
L 188.418143 252.220792 
L 188.654137 252.220792 
L 188.749626 243.438218 
L 189.100502 243.438218 
L 189.140073 239.925188 
L 189.348317 239.925188 
L 189.43485 236.412158 
L 189.715674 236.412158 
L 189.715674 234.655644 
L 189.85548 234.655644 
L 189.87049 231.142614 
L 190.07028 231.142614 
L 190.07028 229.386099 
L 190.4017 229.386099 
L 190.4017 227.629584 
L 190.694892 227.629584 
L 190.694892 225.873069 
L 191.502584 225.873069 
L 191.502584 224.116554 
L 212.980148 224.116554 
L 212.980148 222.36004 
L 213.898738 222.36004 
L 213.898738 220.603525 
L 214.295589 220.603525 
L 214.295589 218.84701 
L 214.538618 218.84701 
L 214.538618 217.090495 
L 214.852683 217.090495 
L 214.852683 215.33398 
L 214.991171 215.33398 
L 214.991171 213.577465 
L 215.335237 213.577465 
L 215.412006 210.064436 
L 215.446807 210.064436 
L 215.454925 206.551406 
L 215.732663 206.551406 
L 215.797127 203.038376 
L 215.856516 203.038376 
L 215.964593 190.742772 
L 216.065706 190.742772 
L 216.125781 185.473228 
L 216.215129 185.473228 
L 216.303709 178.447168 
L 216.356214 178.447168 
L 216.465377 173.177624 
L 216.476169 173.177624 
L 216.583489 160.88202 
L 216.591579 160.88202 
L 216.700226 155.612475 
L 216.702737 155.612475 
L 216.810645 138.047327 
L 216.819371 138.047327 
L 216.907973 122.238693 
L 216.981467 122.238693 
L 216.991167 118.725663 
L 225.062608 118.725663 
L 225.106397 115.212634 
L 225.269575 115.212634 
L 225.362207 106.430059 
L 225.511587 106.430059 
L 225.511587 104.673545 
L 225.650845 104.673545 
L 225.722905 101.160515 
L 225.830916 101.160515 
L 225.932602 92.377941 
L 225.970269 92.377941 
L 226.062691 85.351881 
L 226.190023 85.351881 
L 226.299888 78.325822 
L 226.304735 78.325822 
L 226.304735 76.569307 
L 226.513523 76.569307 
L 226.608538 71.299762 
L 226.683125 71.299762 
L 226.722606 67.786733 
L 226.849261 67.786733 
L 226.849261 66.030218 
L 250.139137 66.030218 
L 250.142403 62.517188 
L 253.359761 62.517188 
L 253.359761 60.760673 
L 254.217584 60.760673 
L 254.217584 59.004158 
L 254.442098 59.004158 
L 254.442098 57.247644 
L 254.669724 57.247644 
L 254.669724 55.491129 
L 255.57779 55.491129 
L 255.582096 51.978099 
L 256.458521 51.978099 
L 256.458521 50.221584 
L 257.508478 50.221584 
L 257.508478 48.465069 
L 258.093983 48.465069 
L 258.093983 46.708554 
L 258.261082 46.708554 
L 258.261082 44.95204 
L 259.241982 44.95204 
L 259.241982 43.195525 
L 259.638497 43.195525 
L 259.638497 41.43901 
L 260.249738 41.43901 
L 260.249738 39.682495 
L 260.687896 39.682495 
L 260.687896 37.92598 
L 260.936428 37.92598 
L 260.936428 36.169465 
L 261.277086 36.169465 
L 261.277086 34.41295 
L 261.7735 34.41295 
L 261.7735 32.656436 
L 262.22507 32.656436 
L 262.22507 30.899921 
L 262.371928 30.899921 
L 262.384397 27.386891 
L 263.016006 27.386891 
L 263.061074 23.873861 
L 263.482586 23.873861 
L 263.482586 22.117347 
L 264.554314 22.117347 
L 264.554314 20.360832 
L 265.875526 20.360832 
L 265.875526 13.334772 
L 265.875526 13.334772 
L 367.82 13.334772 
L 367.82 13.334772 
" style="fill:none;stroke:#bf00bf;stroke-linecap:square;stroke-width:1.5;"/>
   </g>
   <g id="line2d_29">
    <path clip-path="url(#p532ab50bc9)" d="M 181.88794 276.812 
L 181.88794 275.055485 
L 182.374168 275.055485 
L 182.374168 273.29897 
L 182.570427 273.29897 
L 182.570427 271.542455 
L 183.624891 271.542455 
L 183.624891 269.785941 
L 184.106482 269.785941 
L 184.106482 268.029426 
L 184.403596 268.029426 
L 184.403596 266.272911 
L 184.794471 266.272911 
L 184.843395 262.759881 
L 184.973381 262.759881 
L 184.99824 259.246851 
L 185.355722 259.246851 
L 185.355722 257.490337 
L 185.531179 257.490337 
L 185.531179 255.733822 
L 186.070547 255.733822 
L 186.138259 248.707762 
L 186.191776 248.707762 
L 186.215323 245.194733 
L 186.359493 245.194733 
L 186.412434 241.681703 
L 186.777853 241.681703 
L 186.796874 238.168673 
L 187.122936 238.168673 
L 187.123864 234.655644 
L 187.317368 234.655644 
L 187.317368 232.899129 
L 187.4915 232.899129 
L 187.4915 231.142614 
L 187.794247 231.142614 
L 187.794247 229.386099 
L 187.924945 229.386099 
L 187.924945 227.629584 
L 188.098323 227.629584 
L 188.17952 224.116554 
L 212.917434 224.116554 
L 212.917434 222.36004 
L 213.146985 222.36004 
L 213.146985 220.603525 
L 213.350409 220.603525 
L 213.350409 218.84701 
L 214.124251 218.84701 
L 214.124251 217.090495 
L 214.536101 217.090495 
L 214.541752 213.577465 
L 215.16381 213.577465 
L 215.184634 210.064436 
L 215.314054 210.064436 
L 215.359034 206.551406 
L 215.566618 206.551406 
L 215.658606 203.038376 
L 215.692003 203.038376 
L 215.796367 197.768832 
L 215.815948 197.768832 
L 215.894789 190.742772 
L 215.937066 190.742772 
L 215.980563 185.473228 
L 216.077567 185.473228 
L 216.173133 181.960198 
L 216.200656 181.960198 
L 216.277578 173.177624 
L 216.383899 173.177624 
L 216.489311 166.151564 
L 216.50622 166.151564 
L 216.615475 155.612475 
L 216.646939 155.612475 
L 216.74722 129.264752 
L 216.772232 129.264752 
L 216.869383 120.482178 
L 216.941414 120.482178 
L 216.941414 118.725663 
L 223.454666 118.725663 
L 223.454666 116.969149 
L 223.580818 116.969149 
L 223.587503 113.456119 
L 223.748374 113.456119 
L 223.748374 111.699604 
L 224.243836 111.699604 
L 224.337258 108.186574 
L 224.615296 108.186574 
L 224.690637 102.91703 
L 224.973438 102.91703 
L 225.039542 99.404 
L 225.106397 99.404 
L 225.208692 92.377941 
L 225.274952 92.377941 
L 225.354545 83.595366 
L 225.418741 83.595366 
L 225.418741 81.838851 
L 225.644432 81.838851 
L 225.722905 73.056277 
L 225.932602 73.056277 
L 225.932602 71.299762 
L 226.094264 71.299762 
L 226.140331 66.030218 
L 247.932944 66.030218 
L 247.932944 64.273703 
L 248.957377 64.273703 
L 248.957377 62.517188 
L 251.61852 62.517188 
L 251.61852 60.760673 
L 252.20563 60.760673 
L 252.20563 59.004158 
L 252.446447 59.004158 
L 252.446447 57.247644 
L 253.282066 57.247644 
L 253.282066 55.491129 
L 253.452964 55.491129 
L 253.452964 53.734614 
L 254.98865 53.734614 
L 254.98865 51.978099 
L 255.733305 51.978099 
L 255.737393 48.465069 
L 256.039966 48.465069 
L 256.039966 46.708554 
L 256.797275 46.708554 
L 256.879033 43.195525 
L 258.288039 43.195525 
L 258.288039 41.43901 
L 259.006914 41.43901 
L 259.006914 39.682495 
L 259.347771 39.682495 
L 259.347771 37.92598 
L 259.737802 37.92598 
L 259.737802 36.169465 
L 259.932108 36.169465 
L 259.932108 34.41295 
L 260.156661 34.41295 
L 260.156661 32.656436 
L 260.437405 32.656436 
L 260.46456 29.143406 
L 260.817639 29.143406 
L 260.817639 27.386891 
L 261.223172 27.386891 
L 261.223172 25.630376 
L 261.570923 25.630376 
L 261.570923 23.873861 
L 262.207917 23.873861 
L 262.207917 22.117347 
L 262.682982 22.117347 
L 262.682982 20.360832 
L 264.849688 20.360832 
L 264.849688 18.604317 
L 265.875526 18.604317 
L 265.875526 13.334772 
L 265.875526 13.334772 
L 367.82 13.334772 
L 367.82 13.334772 
" style="fill:none;stroke:#000000;stroke-linecap:square;stroke-width:1.5;"/>
   </g>
   <g id="patch_3">
    <path d="M 10.7 276.812 
L 10.7 10.7 
" style="fill:none;stroke:#000000;stroke-linecap:square;stroke-linejoin:miter;stroke-width:0.8;"/>
   </g>
   <g id="patch_4">
    <path d="M 367.82 276.812 
L 367.82 10.7 
" style="fill:none;stroke:#000000;stroke-linecap:square;stroke-linejoin:miter;stroke-width:0.8;"/>
   </g>
   <g id="patch_5">
    <path d="M 10.7 276.812 
L 367.82 276.812 
" style="fill:none;stroke:#000000;stroke-linecap:square;stroke-linejoin:miter;stroke-width:0.8;"/>
   </g>
   <g id="patch_6">
    <path d="M 10.7 10.7 
L 367.82 10.7 
" style="fill:none;stroke:#000000;stroke-linecap:square;stroke-linejoin:miter;stroke-width:0.8;"/>
   </g>
   <g id="text_6">
    <!-- {f20-f24}, 20-D -->
    <defs>
     <path d="M 51.125 -9.28125 
L 51.125 -16.3125 
L 48.09375 -16.3125 
Q 35.9375 -16.3125 31.8125 -12.6875 
Q 27.6875 -9.078125 27.6875 1.703125 
L 27.6875 13.375 
Q 27.6875 20.75 25.046875 23.578125 
Q 22.40625 26.421875 15.484375 26.421875 
L 12.5 26.421875 
L 12.5 33.40625 
L 15.484375 33.40625 
Q 22.46875 33.40625 25.078125 36.203125 
Q 27.6875 39.015625 27.6875 46.296875 
L 27.6875 58.015625 
Q 27.6875 68.796875 31.8125 72.390625 
Q 35.9375 75.984375 48.09375 75.984375 
L 51.125 75.984375 
L 51.125 69 
L 47.796875 69 
Q 40.921875 69 38.8125 66.84375 
Q 36.71875 64.703125 36.71875 57.8125 
L 36.71875 45.703125 
Q 36.71875 38.03125 34.5 34.5625 
Q 32.28125 31.109375 26.90625 29.890625 
Q 32.328125 28.5625 34.515625 25.09375 
Q 36.71875 21.625 36.71875 14.015625 
L 36.71875 1.90625 
Q 36.71875 -4.984375 38.8125 -7.125 
Q 40.921875 -9.28125 47.796875 -9.28125 
z
" id="DejaVuSans-7b"/>
     <path d="M 19.1875 8.296875 
L 53.609375 8.296875 
L 53.609375 0 
L 7.328125 0 
L 7.328125 8.296875 
Q 12.9375 14.109375 22.625 23.890625 
Q 32.328125 33.6875 34.8125 36.53125 
Q 39.546875 41.84375 41.421875 45.53125 
Q 43.3125 49.21875 43.3125 52.78125 
Q 43.3125 58.59375 39.234375 62.25 
Q 35.15625 65.921875 28.609375 65.921875 
Q 23.96875 65.921875 18.8125 64.3125 
Q 13.671875 62.703125 7.8125 59.421875 
L 7.8125 69.390625 
Q 13.765625 71.78125 18.9375 73 
Q 24.125 74.21875 28.421875 74.21875 
Q 39.75 74.21875 46.484375 68.546875 
Q 53.21875 62.890625 53.21875 53.421875 
Q 53.21875 48.921875 51.53125 44.890625 
Q 49.859375 40.875 45.40625 35.40625 
Q 44.1875 33.984375 37.640625 27.21875 
Q 31.109375 20.453125 19.1875 8.296875 
" id="DejaVuSans-32"/>
     <path d="M 12.5 -9.28125 
L 15.921875 -9.28125 
Q 22.75 -9.28125 24.828125 -7.171875 
Q 26.90625 -5.078125 26.90625 1.90625 
L 26.90625 14.015625 
Q 26.90625 21.625 29.09375 25.09375 
Q 31.296875 28.5625 36.71875 29.890625 
Q 31.296875 31.109375 29.09375 34.5625 
Q 26.90625 38.03125 26.90625 45.703125 
L 26.90625 57.8125 
Q 26.90625 64.75 24.828125 66.875 
Q 22.75 69 15.921875 69 
L 12.5 69 
L 12.5 75.984375 
L 15.578125 75.984375 
Q 27.734375 75.984375 31.8125 72.390625 
Q 35.890625 68.796875 35.890625 58.015625 
L 35.890625 46.296875 
Q 35.890625 39.015625 38.515625 36.203125 
Q 41.15625 33.40625 48.09375 33.40625 
L 51.125 33.40625 
L 51.125 26.421875 
L 48.09375 26.421875 
Q 41.15625 26.421875 38.515625 23.578125 
Q 35.890625 20.75 35.890625 13.375 
L 35.890625 1.703125 
Q 35.890625 -9.078125 31.8125 -12.6875 
Q 27.734375 -16.3125 15.578125 -16.3125 
L 12.5 -16.3125 
z
" id="DejaVuSans-7d"/>
     <path d="M 11.71875 12.40625 
L 22.015625 12.40625 
L 22.015625 4 
L 14.015625 -11.625 
L 7.71875 -11.625 
L 11.71875 4 
z
" id="DejaVuSans-2c"/>
    </defs>
    <g transform="translate(202.2526 271.48976)scale(0.2 -0.2)">
     <use xlink:href="#DejaVuSans-7b"/>
     <use x="63.623047" xlink:href="#DejaVuSans-66"/>
     <use x="98.828125" xlink:href="#DejaVuSans-32"/>
     <use x="162.451172" xlink:href="#DejaVuSans-30"/>
     <use x="226.074219" xlink:href="#DejaVuSans-2d"/>
     <use x="262.158203" xlink:href="#DejaVuSans-66"/>
     <use x="297.363281" xlink:href="#DejaVuSans-32"/>
     <use x="360.986328" xlink:href="#DejaVuSans-34"/>
     <use x="424.609375" xlink:href="#DejaVuSans-7d"/>
     <use x="488.232422" xlink:href="#DejaVuSans-2c"/>
     <use x="520.019531" xlink:href="#DejaVuSans-20"/>
     <use x="551.806641" xlink:href="#DejaVuSans-32"/>
     <use x="615.429688" xlink:href="#DejaVuSans-30"/>
     <use x="679.052734" xlink:href="#DejaVuSans-2d"/>
     <use x="715.136719" xlink:href="#DejaVuSans-44"/>
    </g>
   </g>
   <g id="text_7">
    <!-- v2.1 -->
    <defs>
     <path d="M 2.984375 54.6875 
L 12.5 54.6875 
L 29.59375 8.796875 
L 46.6875 54.6875 
L 56.203125 54.6875 
L 35.6875 0 
L 23.484375 0 
z
" id="DejaVuSans-76"/>
     <path d="M 10.6875 12.40625 
L 21 12.40625 
L 21 0 
L 10.6875 0 
z
" id="DejaVuSans-2e"/>
    </defs>
    <g style="fill:#808080;" transform="translate(178.349063 272.071193)scale(0.1 -0.1)">
     <use xlink:href="#DejaVuSans-76"/>
     <use x="59.179688" xlink:href="#DejaVuSans-32"/>
     <use x="122.802734" xlink:href="#DejaVuSans-2e"/>
     <use x="154.589844" xlink:href="#DejaVuSans-31"/>
    </g>
   </g>
  </g>
 </g>
 <defs>
  <clipPath id="p532ab50bc9">
   <rect height="266.112" width="357.12" x="10.7" y="10.7"/>
  </clipPath>
 </defs>
</svg>
