<?xml version="1.0" encoding="utf-8" standalone="no"?>
<!DOCTYPE svg PUBLIC "-//W3C//DTD SVG 1.1//EN"
  "http://www.w3.org/Graphics/SVG/1.1/DTD/svg11.dtd">
<!-- Created with matplotlib (http://matplotlib.org/) -->
<svg height="333pt" version="1.1" viewBox="0 0 378 333" width="378pt" xmlns="http://www.w3.org/2000/svg" xmlns:xlink="http://www.w3.org/1999/xlink">
 <defs>
  <style type="text/css">
*{stroke-linecap:butt;stroke-linejoin:round;}
  </style>
 </defs>
 <g id="figure_1">
  <g id="patch_1">
   <path d="M 0 333.7245 
L 378.52 333.7245 
L 378.52 0 
L 0 0 
z
" style="fill:#ffffff;"/>
  </g>
  <g id="axes_1">
   <g id="patch_2">
    <path d="M 10.7 276.812 
L 367.82 276.812 
L 367.82 10.7 
L 10.7 10.7 
z
" style="fill:#ffffff;"/>
   </g>
   <g id="matplotlib.axis_1">
    <g id="xtick_1">
     <g id="line2d_1">
      <path clip-path="url(#pdb887bbab0)" d="M 10.610046 276.812 
L 10.610046 10.7 
" style="fill:none;stroke:#b0b0b0;stroke-linecap:square;stroke-width:0.8;"/>
     </g>
     <g id="line2d_2">
      <defs>
       <path d="M 0 0 
L 0 3.5 
" id="mad8baca899" style="stroke:#000000;stroke-width:0.8;"/>
      </defs>
      <g>
       <use style="stroke:#000000;stroke-width:0.8;" x="10.610046" xlink:href="#mad8baca899" y="276.812"/>
      </g>
     </g>
    </g>
    <g id="xtick_2">
     <g id="line2d_3">
      <path clip-path="url(#pdb887bbab0)" d="M 93.874246 276.812 
L 93.874246 10.7 
" style="fill:none;stroke:#b0b0b0;stroke-linecap:square;stroke-width:0.8;"/>
     </g>
     <g id="line2d_4">
      <g>
       <use style="stroke:#000000;stroke-width:0.8;" x="93.874246" xlink:href="#mad8baca899" y="276.812"/>
      </g>
     </g>
     <g id="text_1">
      <!-- -4 -->
      <defs>
       <path d="M 4.890625 31.390625 
L 31.203125 31.390625 
L 31.203125 23.390625 
L 4.890625 23.390625 
z
" id="DejaVuSans-2d"/>
       <path d="M 37.796875 64.3125 
L 12.890625 25.390625 
L 37.796875 25.390625 
z
M 35.203125 72.90625 
L 47.609375 72.90625 
L 47.609375 25.390625 
L 58.015625 25.390625 
L 58.015625 17.1875 
L 47.609375 17.1875 
L 47.609375 0 
L 37.796875 0 
L 37.796875 17.1875 
L 4.890625 17.1875 
L 4.890625 26.703125 
z
" id="DejaVuSans-34"/>
      </defs>
      <g transform="translate(83.903933 299.008875)scale(0.2 -0.2)">
       <use xlink:href="#DejaVuSans-2d"/>
       <use x="36.083984" xlink:href="#DejaVuSans-34"/>
      </g>
     </g>
    </g>
    <g id="xtick_3">
     <g id="line2d_5">
      <path clip-path="url(#pdb887bbab0)" d="M 177.138445 276.812 
L 177.138445 10.7 
" style="fill:none;stroke:#b0b0b0;stroke-linecap:square;stroke-width:0.8;"/>
     </g>
     <g id="line2d_6">
      <g>
       <use style="stroke:#000000;stroke-width:0.8;" x="177.138445" xlink:href="#mad8baca899" y="276.812"/>
      </g>
     </g>
     <g id="text_2">
      <!-- 0 -->
      <defs>
       <path d="M 31.78125 66.40625 
Q 24.171875 66.40625 20.328125 58.90625 
Q 16.5 51.421875 16.5 36.375 
Q 16.5 21.390625 20.328125 13.890625 
Q 24.171875 6.390625 31.78125 6.390625 
Q 39.453125 6.390625 43.28125 13.890625 
Q 47.125 21.390625 47.125 36.375 
Q 47.125 51.421875 43.28125 58.90625 
Q 39.453125 66.40625 31.78125 66.40625 
M 31.78125 74.21875 
Q 44.046875 74.21875 50.515625 64.515625 
Q 56.984375 54.828125 56.984375 36.375 
Q 56.984375 17.96875 50.515625 8.265625 
Q 44.046875 -1.421875 31.78125 -1.421875 
Q 19.53125 -1.421875 13.0625 8.265625 
Q 6.59375 17.96875 6.59375 36.375 
Q 6.59375 54.828125 13.0625 64.515625 
Q 19.53125 74.21875 31.78125 74.21875 
" id="DejaVuSans-30"/>
      </defs>
      <g transform="translate(170.775945 299.008875)scale(0.2 -0.2)">
       <use xlink:href="#DejaVuSans-30"/>
      </g>
     </g>
    </g>
    <g id="xtick_4">
     <g id="line2d_7">
      <path clip-path="url(#pdb887bbab0)" d="M 260.402645 276.812 
L 260.402645 10.7 
" style="fill:none;stroke:#b0b0b0;stroke-linecap:square;stroke-width:0.8;"/>
     </g>
     <g id="line2d_8">
      <g>
       <use style="stroke:#000000;stroke-width:0.8;" x="260.402645" xlink:href="#mad8baca899" y="276.812"/>
      </g>
     </g>
     <g id="text_3">
      <!-- 4 -->
      <g transform="translate(254.040145 299.008875)scale(0.2 -0.2)">
       <use xlink:href="#DejaVuSans-34"/>
      </g>
     </g>
    </g>
    <g id="xtick_5">
     <g id="line2d_9">
      <path clip-path="url(#pdb887bbab0)" d="M 343.666844 276.812 
L 343.666844 10.7 
" style="fill:none;stroke:#b0b0b0;stroke-linecap:square;stroke-width:0.8;"/>
     </g>
     <g id="line2d_10">
      <g>
       <use style="stroke:#000000;stroke-width:0.8;" x="343.666844" xlink:href="#mad8baca899" y="276.812"/>
      </g>
     </g>
     <g id="text_4">
      <!-- 8 -->
      <defs>
       <path d="M 31.78125 34.625 
Q 24.75 34.625 20.71875 30.859375 
Q 16.703125 27.09375 16.703125 20.515625 
Q 16.703125 13.921875 20.71875 10.15625 
Q 24.75 6.390625 31.78125 6.390625 
Q 38.8125 6.390625 42.859375 10.171875 
Q 46.921875 13.96875 46.921875 20.515625 
Q 46.921875 27.09375 42.890625 30.859375 
Q 38.875 34.625 31.78125 34.625 
M 21.921875 38.8125 
Q 15.578125 40.375 12.03125 44.71875 
Q 8.5 49.078125 8.5 55.328125 
Q 8.5 64.0625 14.71875 69.140625 
Q 20.953125 74.21875 31.78125 74.21875 
Q 42.671875 74.21875 48.875 69.140625 
Q 55.078125 64.0625 55.078125 55.328125 
Q 55.078125 49.078125 51.53125 44.71875 
Q 48 40.375 41.703125 38.8125 
Q 48.828125 37.15625 52.796875 32.3125 
Q 56.78125 27.484375 56.78125 20.515625 
Q 56.78125 9.90625 50.3125 4.234375 
Q 43.84375 -1.421875 31.78125 -1.421875 
Q 19.734375 -1.421875 13.25 4.234375 
Q 6.78125 9.90625 6.78125 20.515625 
Q 6.78125 27.484375 10.78125 32.3125 
Q 14.796875 37.15625 21.921875 38.8125 
M 18.3125 54.390625 
Q 18.3125 48.734375 21.84375 45.5625 
Q 25.390625 42.390625 31.78125 42.390625 
Q 38.140625 42.390625 41.71875 45.5625 
Q 45.3125 48.734375 45.3125 54.390625 
Q 45.3125 60.0625 41.71875 63.234375 
Q 38.140625 66.40625 31.78125 66.40625 
Q 25.390625 66.40625 21.84375 63.234375 
Q 18.3125 60.0625 18.3125 54.390625 
" id="DejaVuSans-38"/>
      </defs>
      <g transform="translate(337.304344 299.008875)scale(0.2 -0.2)">
       <use xlink:href="#DejaVuSans-38"/>
      </g>
     </g>
    </g>
    <g id="text_5">
     <!-- log10 of Df -->
     <defs>
      <path d="M 9.421875 75.984375 
L 18.40625 75.984375 
L 18.40625 0 
L 9.421875 0 
z
" id="DejaVuSans-6c"/>
      <path d="M 30.609375 48.390625 
Q 23.390625 48.390625 19.1875 42.75 
Q 14.984375 37.109375 14.984375 27.296875 
Q 14.984375 17.484375 19.15625 11.84375 
Q 23.34375 6.203125 30.609375 6.203125 
Q 37.796875 6.203125 41.984375 11.859375 
Q 46.1875 17.53125 46.1875 27.296875 
Q 46.1875 37.015625 41.984375 42.703125 
Q 37.796875 48.390625 30.609375 48.390625 
M 30.609375 56 
Q 42.328125 56 49.015625 48.375 
Q 55.71875 40.765625 55.71875 27.296875 
Q 55.71875 13.875 49.015625 6.21875 
Q 42.328125 -1.421875 30.609375 -1.421875 
Q 18.84375 -1.421875 12.171875 6.21875 
Q 5.515625 13.875 5.515625 27.296875 
Q 5.515625 40.765625 12.171875 48.375 
Q 18.84375 56 30.609375 56 
" id="DejaVuSans-6f"/>
      <path d="M 45.40625 27.984375 
Q 45.40625 37.75 41.375 43.109375 
Q 37.359375 48.484375 30.078125 48.484375 
Q 22.859375 48.484375 18.828125 43.109375 
Q 14.796875 37.75 14.796875 27.984375 
Q 14.796875 18.265625 18.828125 12.890625 
Q 22.859375 7.515625 30.078125 7.515625 
Q 37.359375 7.515625 41.375 12.890625 
Q 45.40625 18.265625 45.40625 27.984375 
M 54.390625 6.78125 
Q 54.390625 -7.171875 48.1875 -13.984375 
Q 42 -20.796875 29.203125 -20.796875 
Q 24.46875 -20.796875 20.265625 -20.09375 
Q 16.0625 -19.390625 12.109375 -17.921875 
L 12.109375 -9.1875 
Q 16.0625 -11.328125 19.921875 -12.34375 
Q 23.78125 -13.375 27.78125 -13.375 
Q 36.625 -13.375 41.015625 -8.765625 
Q 45.40625 -4.15625 45.40625 5.171875 
L 45.40625 9.625 
Q 42.625 4.78125 38.28125 2.390625 
Q 33.9375 0 27.875 0 
Q 17.828125 0 11.671875 7.65625 
Q 5.515625 15.328125 5.515625 27.984375 
Q 5.515625 40.671875 11.671875 48.328125 
Q 17.828125 56 27.875 56 
Q 33.9375 56 38.28125 53.609375 
Q 42.625 51.21875 45.40625 46.390625 
L 45.40625 54.6875 
L 54.390625 54.6875 
z
" id="DejaVuSans-67"/>
      <path d="M 12.40625 8.296875 
L 28.515625 8.296875 
L 28.515625 63.921875 
L 10.984375 60.40625 
L 10.984375 69.390625 
L 28.421875 72.90625 
L 38.28125 72.90625 
L 38.28125 8.296875 
L 54.390625 8.296875 
L 54.390625 0 
L 12.40625 0 
z
" id="DejaVuSans-31"/>
      <path id="DejaVuSans-20"/>
      <path d="M 37.109375 75.984375 
L 37.109375 68.5 
L 28.515625 68.5 
Q 23.6875 68.5 21.796875 66.546875 
Q 19.921875 64.59375 19.921875 59.515625 
L 19.921875 54.6875 
L 34.71875 54.6875 
L 34.71875 47.703125 
L 19.921875 47.703125 
L 19.921875 0 
L 10.890625 0 
L 10.890625 47.703125 
L 2.296875 47.703125 
L 2.296875 54.6875 
L 10.890625 54.6875 
L 10.890625 58.5 
Q 10.890625 67.625 15.140625 71.796875 
Q 19.390625 75.984375 28.609375 75.984375 
z
" id="DejaVuSans-66"/>
      <path d="M 19.671875 64.796875 
L 19.671875 8.109375 
L 31.59375 8.109375 
Q 46.6875 8.109375 53.6875 14.9375 
Q 60.6875 21.78125 60.6875 36.53125 
Q 60.6875 51.171875 53.6875 57.984375 
Q 46.6875 64.796875 31.59375 64.796875 
z
M 9.8125 72.90625 
L 30.078125 72.90625 
Q 51.265625 72.90625 61.171875 64.09375 
Q 71.09375 55.28125 71.09375 36.53125 
Q 71.09375 17.671875 61.125 8.828125 
Q 51.171875 0 30.078125 0 
L 9.8125 0 
z
" id="DejaVuSans-44"/>
     </defs>
     <g transform="translate(134.074063 322.365125)scale(0.2 -0.2)">
      <use xlink:href="#DejaVuSans-6c"/>
      <use x="27.783203" xlink:href="#DejaVuSans-6f"/>
      <use x="88.964844" xlink:href="#DejaVuSans-67"/>
      <use x="152.441406" xlink:href="#DejaVuSans-31"/>
      <use x="216.064453" xlink:href="#DejaVuSans-30"/>
      <use x="279.6875" xlink:href="#DejaVuSans-20"/>
      <use x="311.474609" xlink:href="#DejaVuSans-6f"/>
      <use x="372.65625" xlink:href="#DejaVuSans-66"/>
      <use x="407.861328" xlink:href="#DejaVuSans-20"/>
      <use x="439.648438" xlink:href="#DejaVuSans-44"/>
      <use x="516.650391" xlink:href="#DejaVuSans-66"/>
     </g>
    </g>
   </g>
   <g id="matplotlib.axis_2">
    <g id="ytick_1">
     <g id="line2d_11">
      <path clip-path="url(#pdb887bbab0)" d="M 10.7 276.812 
L 367.82 276.812 
" style="fill:none;stroke:#b0b0b0;stroke-linecap:square;stroke-width:0.8;"/>
     </g>
     <g id="line2d_12">
      <defs>
       <path d="M 0 0 
L -3.5 0 
" id="m11288146e5" style="stroke:#000000;stroke-width:0.8;"/>
      </defs>
      <g>
       <use style="stroke:#000000;stroke-width:0.8;" x="10.7" xlink:href="#m11288146e5" y="276.812"/>
      </g>
     </g>
    </g>
    <g id="ytick_2">
     <g id="line2d_13">
      <path clip-path="url(#pdb887bbab0)" d="M 10.7 224.116554 
L 367.82 224.116554 
" style="fill:none;stroke:#b0b0b0;stroke-linecap:square;stroke-width:0.8;"/>
     </g>
     <g id="line2d_14">
      <g>
       <use style="stroke:#000000;stroke-width:0.8;" x="10.7" xlink:href="#m11288146e5" y="224.116554"/>
      </g>
     </g>
    </g>
    <g id="ytick_3">
     <g id="line2d_15">
      <path clip-path="url(#pdb887bbab0)" d="M 10.7 171.421109 
L 367.82 171.421109 
" style="fill:none;stroke:#b0b0b0;stroke-linecap:square;stroke-width:0.8;"/>
     </g>
     <g id="line2d_16">
      <g>
       <use style="stroke:#000000;stroke-width:0.8;" x="10.7" xlink:href="#m11288146e5" y="171.421109"/>
      </g>
     </g>
    </g>
    <g id="ytick_4">
     <g id="line2d_17">
      <path clip-path="url(#pdb887bbab0)" d="M 10.7 118.725663 
L 367.82 118.725663 
" style="fill:none;stroke:#b0b0b0;stroke-linecap:square;stroke-width:0.8;"/>
     </g>
     <g id="line2d_18">
      <g>
       <use style="stroke:#000000;stroke-width:0.8;" x="10.7" xlink:href="#m11288146e5" y="118.725663"/>
      </g>
     </g>
    </g>
    <g id="ytick_5">
     <g id="line2d_19">
      <path clip-path="url(#pdb887bbab0)" d="M 10.7 66.030218 
L 367.82 66.030218 
" style="fill:none;stroke:#b0b0b0;stroke-linecap:square;stroke-width:0.8;"/>
     </g>
     <g id="line2d_20">
      <g>
       <use style="stroke:#000000;stroke-width:0.8;" x="10.7" xlink:href="#m11288146e5" y="66.030218"/>
      </g>
     </g>
    </g>
    <g id="ytick_6">
     <g id="line2d_21">
      <path clip-path="url(#pdb887bbab0)" d="M 10.7 13.334772 
L 367.82 13.334772 
" style="fill:none;stroke:#b0b0b0;stroke-linecap:square;stroke-width:0.8;"/>
     </g>
     <g id="line2d_22">
      <g>
       <use style="stroke:#000000;stroke-width:0.8;" x="10.7" xlink:href="#m11288146e5" y="13.334772"/>
      </g>
     </g>
    </g>
   </g>
   <g id="line2d_23">
    <path clip-path="url(#pdb887bbab0)" d="M 198.989859 276.812 
L 198.989859 275.055485 
L 199.195706 275.055485 
L 199.195706 273.29897 
L 202.408851 273.29897 
L 202.515823 269.785941 
L 205.001525 269.785941 
L 205.001525 268.029426 
L 205.17938 268.029426 
L 205.17938 266.272911 
L 205.424403 266.272911 
L 205.490421 262.759881 
L 205.664332 262.759881 
L 205.680139 259.246851 
L 205.79877 259.246851 
L 205.79877 257.490337 
L 205.924591 257.490337 
L 205.973213 253.977307 
L 206.074947 253.977307 
L 206.18155 250.464277 
L 206.364399 250.464277 
L 206.390326 246.951248 
L 206.627731 246.951248 
L 206.668655 243.438218 
L 206.934883 243.438218 
L 206.934883 241.681703 
L 210.064798 241.681703 
L 210.064798 239.925188 
L 210.410561 239.925188 
L 210.410561 238.168673 
L 210.718637 238.168673 
L 210.718637 236.412158 
L 210.856404 236.412158 
L 210.9259 232.899129 
L 211.103525 232.899129 
L 211.103525 231.142614 
L 212.482997 231.142614 
L 212.482997 229.386099 
L 212.982075 229.386099 
L 213.001078 224.116554 
L 215.887119 224.116554 
L 215.887119 222.36004 
L 216.066296 222.36004 
L 216.066296 220.603525 
L 217.36177 220.603525 
L 217.36177 218.84701 
L 217.509395 218.84701 
L 217.509395 217.090495 
L 219.892613 217.090495 
L 219.892613 215.33398 
L 220.015438 215.33398 
L 220.015438 213.577465 
L 220.265538 213.577465 
L 220.265538 211.82095 
L 220.404111 211.82095 
L 220.404111 210.064436 
L 220.60989 210.064436 
L 220.60989 208.307921 
L 222.178303 208.307921 
L 222.178303 206.551406 
L 241.680535 206.551406 
L 241.680535 204.794891 
L 241.809484 204.794891 
L 241.809484 203.038376 
L 243.009509 203.038376 
L 243.01242 199.525347 
L 243.2738 199.525347 
L 243.2738 197.768832 
L 243.429027 197.768832 
L 243.429027 196.012317 
L 243.709756 196.012317 
L 243.820373 188.986257 
L 243.838423 188.986257 
L 243.91144 181.960198 
L 243.980107 181.960198 
L 244.006301 178.447168 
L 244.210008 178.447168 
L 244.266926 174.934139 
L 244.337934 174.934139 
L 244.411184 171.421109 
L 244.740851 171.421109 
L 244.847505 167.908079 
L 245.01605 167.908079 
L 245.070493 164.39505 
L 245.241921 164.39505 
L 245.241921 162.638535 
L 245.355964 162.638535 
L 245.355964 160.88202 
L 246.231944 160.88202 
L 246.309151 157.36899 
L 246.360493 157.36899 
L 246.360493 155.612475 
L 246.482037 155.612475 
L 246.482037 153.85596 
L 280.542604 153.85596 
L 280.542604 152.099446 
L 281.734467 152.099446 
L 281.734467 150.342931 
L 287.772228 150.342931 
L 287.772228 148.586416 
L 288.938643 148.586416 
L 288.938643 146.829901 
L 295.732156 146.829901 
L 295.732156 145.073386 
L 295.975789 145.073386 
L 295.982885 141.560356 
L 297.504399 141.560356 
L 297.504399 139.803842 
L 301.947911 139.803842 
L 301.947911 138.047327 
L 303.759597 138.047327 
L 303.759597 136.290812 
L 304.223835 136.290812 
L 304.231009 132.777782 
L 304.412939 132.777782 
L 304.412939 131.021267 
L 305.278193 131.021267 
L 305.278193 129.264752 
L 306.0997 129.264752 
L 306.0997 127.508238 
L 306.464704 127.508238 
L 306.464704 125.751723 
L 308.769857 125.751723 
L 308.769857 123.995208 
L 309.054899 123.995208 
L 309.054899 122.238693 
L 310.186991 122.238693 
L 310.236903 118.725663 
L 310.520555 118.725663 
L 310.520555 116.969149 
L 311.360517 116.969149 
L 311.360517 115.212634 
L 312.008593 115.212634 
L 312.008593 113.456119 
L 312.200227 113.456119 
L 312.200227 111.699604 
L 314.867087 111.699604 
L 314.867087 109.943089 
L 315.523605 109.943089 
L 315.523605 108.186574 
L 316.413643 108.186574 
L 316.442435 104.673545 
L 316.790625 104.673545 
L 316.790625 102.91703 
L 317.449395 102.91703 
L 317.449395 101.160515 
L 318.638004 101.160515 
L 318.714553 97.647485 
L 318.989955 97.647485 
L 318.989955 95.89097 
L 319.13185 95.89097 
L 319.13185 94.134455 
L 319.276143 94.134455 
L 319.276143 92.377941 
L 319.754936 92.377941 
L 319.754936 90.621426 
L 319.884986 90.621426 
L 319.907998 87.108396 
L 321.508439 87.108396 
L 321.508439 85.351881 
L 321.929059 85.351881 
L 322.038179 81.838851 
L 322.065935 81.838851 
L 322.065935 80.082337 
L 322.307525 80.082337 
L 322.307525 78.325822 
L 322.503195 78.325822 
L 322.582837 73.056277 
L 323.795393 73.056277 
L 323.795393 71.299762 
L 324.535099 71.299762 
L 324.535099 69.543248 
L 325.46836 69.543248 
L 325.46836 67.786733 
L 325.896629 67.786733 
L 325.896629 66.030218 
L 340.917691 66.030218 
L 340.917691 64.273703 
L 341.243898 64.273703 
L 341.324669 59.004158 
L 343.855364 59.004158 
L 343.855364 57.247644 
L 344.017601 57.247644 
L 344.119188 53.734614 
L 344.199914 53.734614 
L 344.286326 46.708554 
L 344.408623 46.708554 
L 344.450577 43.195525 
L 344.716469 43.195525 
L 344.716469 41.43901 
L 345.074375 41.43901 
L 345.074375 39.682495 
L 345.290912 39.682495 
L 345.290912 37.92598 
L 345.755387 37.92598 
L 345.755387 36.169465 
L 345.885422 36.169465 
L 345.885422 34.41295 
L 349.988566 34.41295 
L 350.06022 30.899921 
L 350.238675 30.899921 
L 350.248094 27.386891 
L 350.671633 27.386891 
L 350.718672 23.873861 
L 351.44409 23.873861 
L 351.484828 20.360832 
L 352.300793 20.360832 
L 352.378209 15.091287 
L 352.527087 15.091287 
L 352.527087 13.334772 
L 352.527087 13.334772 
L 367.82 13.334772 
L 367.82 13.334772 
" style="fill:none;stroke:#ff0000;stroke-linecap:square;stroke-width:3;"/>
   </g>
   <g id="line2d_24">
    <path clip-path="url(#pdb887bbab0)" d="M 201.625438 276.812 
L 201.625438 275.055485 
L 202.618667 275.055485 
L 202.618667 273.29897 
L 204.171021 273.29897 
L 204.171021 269.785941 
L 207.490498 269.785941 
L 207.490498 268.029426 
L 207.988145 268.029426 
L 208.054795 264.516396 
L 208.528701 264.516396 
L 208.6025 259.246851 
L 208.774146 259.246851 
L 208.881181 253.977307 
L 209.090329 253.977307 
L 209.181143 250.464277 
L 209.393186 250.464277 
L 209.481145 246.951248 
L 210.361292 246.951248 
L 210.361292 245.194733 
L 210.857195 245.194733 
L 210.923911 241.681703 
L 212.982075 241.681703 
L 213.066646 236.412158 
L 213.104114 236.412158 
L 213.104114 234.655644 
L 213.40102 234.655644 
L 213.462001 231.142614 
L 214.881249 231.142614 
L 214.881249 229.386099 
L 215.693975 229.386099 
L 215.693975 227.629584 
L 217.120417 227.629584 
L 217.120417 225.873069 
L 218.064371 225.873069 
L 218.064371 224.116554 
L 226.359746 224.116554 
L 226.359746 222.36004 
L 228.517187 222.36004 
L 228.517187 220.603525 
L 243.159115 220.603525 
L 243.159115 218.84701 
L 243.419796 218.84701 
L 243.419796 217.090495 
L 243.943784 217.090495 
L 244.018104 213.577465 
L 244.328436 213.577465 
L 244.328436 210.064436 
L 244.757522 210.064436 
L 244.768643 204.794891 
L 245.038551 204.794891 
L 245.085828 199.525347 
L 245.160479 199.525347 
L 245.160642 196.012317 
L 245.324749 196.012317 
L 245.394191 192.499287 
L 245.496236 192.499287 
L 245.596442 188.986257 
L 245.698597 188.986257 
L 245.710252 185.473228 
L 245.842051 185.473228 
L 245.936798 178.447168 
L 246.34513 178.447168 
L 246.385768 174.934139 
L 247.085133 174.934139 
L 247.085133 173.177624 
L 247.256906 173.177624 
L 247.256906 171.421109 
L 247.470855 171.421109 
L 247.520436 167.908079 
L 257.011006 167.908079 
L 257.011006 166.151564 
L 257.753247 166.151564 
L 257.753247 164.39505 
L 262.630519 164.39505 
L 262.630519 162.638535 
L 265.832402 162.638535 
L 265.832402 160.88202 
L 268.552748 160.88202 
L 268.552748 159.125505 
L 289.321675 159.125505 
L 289.321675 157.36899 
L 299.087193 157.36899 
L 299.087193 155.612475 
L 301.418022 155.612475 
L 301.418022 153.85596 
L 305.201169 153.85596 
L 305.201169 152.099446 
L 305.906675 152.099446 
L 305.906675 150.342931 
L 307.508418 150.342931 
L 307.508418 148.586416 
L 307.763005 148.586416 
L 307.763005 146.829901 
L 308.024787 146.829901 
L 308.102096 143.316871 
L 308.966064 143.316871 
L 309.004799 139.803842 
L 309.351672 139.803842 
L 309.351672 138.047327 
L 309.464626 138.047327 
L 309.464626 136.290812 
L 313.200693 136.290812 
L 313.293721 131.021267 
L 314.729704 131.021267 
L 314.729704 129.264752 
L 314.941134 129.264752 
L 314.941134 127.508238 
L 315.22208 127.508238 
L 315.22208 125.751723 
L 315.520361 125.751723 
L 315.520361 123.995208 
L 315.998448 123.995208 
L 315.998448 122.238693 
L 316.511956 122.238693 
L 316.517287 116.969149 
L 316.635164 116.969149 
L 316.635164 115.212634 
L 318.966571 115.212634 
L 318.966571 113.456119 
L 320.000088 113.456119 
L 320.082436 106.430059 
L 320.123479 106.430059 
L 320.123479 104.673545 
L 320.310182 104.673545 
L 320.310182 102.91703 
L 320.725235 102.91703 
L 320.725235 99.404 
L 320.971001 99.404 
L 320.971001 97.647485 
L 321.14515 97.647485 
L 321.14515 95.89097 
L 322.877041 95.89097 
L 322.877041 94.134455 
L 323.187333 94.134455 
L 323.187333 92.377941 
L 323.349773 92.377941 
L 323.349773 88.864911 
L 323.779212 88.864911 
L 323.779212 85.351881 
L 324.068251 85.351881 
L 324.068251 83.595366 
L 325.350846 83.595366 
L 325.350846 81.838851 
L 325.599103 81.838851 
L 325.599103 80.082337 
L 327.269732 80.082337 
L 327.269732 78.325822 
L 327.407632 78.325822 
L 327.407632 76.569307 
L 327.727527 76.569307 
L 327.727527 74.812792 
L 328.072468 74.812792 
L 328.072468 73.056277 
L 328.544957 73.056277 
L 328.544957 71.299762 
L 329.110543 71.299762 
L 329.110543 69.543248 
L 329.584427 69.543248 
L 329.584427 67.786733 
L 329.833889 67.786733 
L 329.833889 66.030218 
L 342.816784 66.030218 
L 342.816784 62.517188 
L 343.797858 62.517188 
L 343.797858 60.760673 
L 344.205263 60.760673 
L 344.205263 59.004158 
L 345.517728 59.004158 
L 345.517728 55.491129 
L 345.998774 55.491129 
L 345.998774 53.734614 
L 346.170359 53.734614 
L 346.170359 51.978099 
L 346.748459 51.978099 
L 346.748459 48.465069 
L 346.969991 48.465069 
L 347.022234 44.95204 
L 347.747953 44.95204 
L 347.747953 43.195525 
L 348.079059 43.195525 
L 348.079059 41.43901 
L 350.56534 41.43901 
L 350.56534 39.682495 
L 350.85257 39.682495 
L 350.85257 37.92598 
L 351.071764 37.92598 
L 351.071764 36.169465 
L 351.42645 36.169465 
L 351.42645 34.41295 
L 353.163842 34.41295 
L 353.163842 30.899921 
L 354.456928 30.899921 
L 354.502439 27.386891 
L 355.041027 27.386891 
L 355.056626 22.117347 
L 355.336111 22.117347 
L 355.336111 20.360832 
L 356.587433 20.360832 
L 356.587433 18.604317 
L 357.11401 18.604317 
L 357.11401 16.847802 
L 357.405548 16.847802 
L 357.405548 15.091287 
L 358.143783 15.091287 
L 358.143783 13.334772 
L 358.143783 13.334772 
L 367.82 13.334772 
L 367.82 13.334772 
" style="fill:none;stroke:#00bfbf;stroke-linecap:square;stroke-width:1.5;"/>
   </g>
   <g id="line2d_25">
    <path clip-path="url(#pdb887bbab0)" d="M 201.625438 276.812 
L 201.625438 275.055485 
L 202.618667 275.055485 
L 202.618667 273.29897 
L 204.171021 273.29897 
L 204.171021 269.785941 
L 207.490498 269.785941 
L 207.596925 266.272911 
L 208.054795 266.272911 
L 208.054795 264.516396 
L 208.171909 264.516396 
L 208.171909 262.759881 
L 208.429641 262.759881 
L 208.453345 259.246851 
L 208.574119 259.246851 
L 208.574119 257.490337 
L 208.842083 257.490337 
L 208.899465 252.220792 
L 209.07342 252.220792 
L 209.181143 246.951248 
L 209.285837 246.951248 
L 209.285837 245.194733 
L 209.952516 245.194733 
L 209.952516 243.438218 
L 210.237108 243.438218 
L 210.237108 241.681703 
L 212.982075 241.681703 
L 213.066646 236.412158 
L 213.104114 236.412158 
L 213.104114 234.655644 
L 213.333017 234.655644 
L 213.40102 231.142614 
L 214.366929 231.142614 
L 214.366929 229.386099 
L 214.750918 229.386099 
L 214.750918 227.629584 
L 217.120417 227.629584 
L 217.120417 225.873069 
L 218.064371 225.873069 
L 218.064371 224.116554 
L 226.359746 224.116554 
L 226.359746 222.36004 
L 228.517187 222.36004 
L 228.517187 220.603525 
L 243.066761 220.603525 
L 243.066761 218.84701 
L 243.339092 218.84701 
L 243.339092 217.090495 
L 243.943784 217.090495 
L 244.018104 211.82095 
L 244.328436 211.82095 
L 244.328436 210.064436 
L 244.757522 210.064436 
L 244.838879 201.281861 
L 245.026106 201.281861 
L 245.123819 196.012317 
L 245.160479 196.012317 
L 245.258215 192.499287 
L 245.324749 192.499287 
L 245.434021 188.986257 
L 245.596442 188.986257 
L 245.698597 181.960198 
L 245.789091 181.960198 
L 245.867705 178.447168 
L 245.926549 178.447168 
L 245.926549 176.690653 
L 246.34513 176.690653 
L 246.34513 174.934139 
L 247.085133 174.934139 
L 247.085133 173.177624 
L 247.256906 173.177624 
L 247.256906 171.421109 
L 247.456023 171.421109 
L 247.500824 167.908079 
L 251.372167 167.908079 
L 251.372167 166.151564 
L 257.011006 166.151564 
L 257.011006 164.39505 
L 257.753247 164.39505 
L 257.753247 162.638535 
L 262.630519 162.638535 
L 262.630519 160.88202 
L 268.552748 160.88202 
L 268.552748 159.125505 
L 287.574171 159.125505 
L 287.574171 157.36899 
L 299.087193 157.36899 
L 299.087193 155.612475 
L 301.418022 155.612475 
L 301.418022 153.85596 
L 305.18097 153.85596 
L 305.18097 152.099446 
L 305.32681 152.099446 
L 305.32681 150.342931 
L 305.994996 150.342931 
L 305.994996 148.586416 
L 307.236632 148.586416 
L 307.236632 146.829901 
L 307.64259 146.829901 
L 307.64259 145.073386 
L 307.763005 145.073386 
L 307.763005 143.316871 
L 308.024787 143.316871 
L 308.102096 139.803842 
L 308.368584 139.803842 
L 308.368584 138.047327 
L 308.481807 138.047327 
L 308.481807 136.290812 
L 308.966064 136.290812 
L 308.966064 134.534297 
L 312.558374 134.534297 
L 312.558374 132.777782 
L 312.738417 132.777782 
L 312.738417 131.021267 
L 312.864804 131.021267 
L 312.864804 129.264752 
L 313.246912 129.264752 
L 313.246912 127.508238 
L 314.891322 127.508238 
L 314.891322 125.751723 
L 315.105079 125.751723 
L 315.186568 120.482178 
L 315.998448 120.482178 
L 315.998448 118.725663 
L 316.511956 118.725663 
L 316.511956 115.212634 
L 318.966571 115.212634 
L 318.966571 113.456119 
L 319.146876 113.456119 
L 319.146876 111.699604 
L 319.548391 111.699604 
L 319.548391 109.943089 
L 320.000088 109.943089 
L 320.082436 102.91703 
L 320.310182 102.91703 
L 320.310182 101.160515 
L 320.725235 101.160515 
L 320.725235 97.647485 
L 321.14515 97.647485 
L 321.14515 95.89097 
L 322.532786 95.89097 
L 322.532786 94.134455 
L 322.803276 94.134455 
L 322.84218 90.621426 
L 323.043978 90.621426 
L 323.043978 88.864911 
L 323.349773 88.864911 
L 323.349773 85.351881 
L 323.49367 85.351881 
L 323.49367 83.595366 
L 325.350846 83.595366 
L 325.350846 81.838851 
L 325.552537 81.838851 
L 325.552537 80.082337 
L 326.522881 80.082337 
L 326.522881 78.325822 
L 327.269732 78.325822 
L 327.269732 76.569307 
L 327.407632 76.569307 
L 327.407632 74.812792 
L 327.727527 74.812792 
L 327.785894 71.299762 
L 327.89243 71.299762 
L 327.919639 67.786733 
L 328.072468 67.786733 
L 328.072468 66.030218 
L 342.816784 66.030218 
L 342.816784 62.517188 
L 343.502754 62.517188 
L 343.502754 60.760673 
L 343.836013 60.760673 
L 343.836013 59.004158 
L 345.405456 59.004158 
L 345.40774 55.491129 
L 345.517728 55.491129 
L 345.517728 51.978099 
L 346.748459 51.978099 
L 346.798238 46.708554 
L 346.976767 46.708554 
L 347.022234 43.195525 
L 347.747953 43.195525 
L 347.747953 41.43901 
L 349.594475 41.43901 
L 349.594475 39.682495 
L 349.910032 39.682495 
L 349.985251 36.169465 
L 350.56534 36.169465 
L 350.56534 34.41295 
L 353.059993 34.41295 
L 353.163842 30.899921 
L 353.324831 30.899921 
L 353.324831 29.143406 
L 353.869704 29.143406 
L 353.890849 25.630376 
L 354.888162 25.630376 
L 354.888162 23.873861 
L 355.056626 23.873861 
L 355.105504 18.604317 
L 356.587433 18.604317 
L 356.587433 16.847802 
L 356.705941 16.847802 
L 356.705941 15.091287 
L 357.152109 15.091287 
L 357.152109 13.334772 
L 357.152109 13.334772 
L 367.82 13.334772 
L 367.82 13.334772 
" style="fill:none;stroke:#bf00bf;stroke-linecap:square;stroke-width:1.5;"/>
   </g>
   <g id="line2d_26">
    <path clip-path="url(#pdb887bbab0)" d="M 201.625438 276.812 
L 201.625438 275.055485 
L 201.625438 275.055485 
L 201.625438 275.055485 
L 201.697663 275.055485 
L 201.697663 273.29897 
L 204.171021 273.29897 
L 204.171021 269.785941 
L 207.096532 269.785941 
L 207.096532 268.029426 
L 207.252045 268.029426 
L 207.345363 264.516396 
L 207.725354 264.516396 
L 207.811502 261.003366 
L 207.977672 261.003366 
L 208.069899 257.490337 
L 208.171909 257.490337 
L 208.171909 255.733822 
L 208.363569 255.733822 
L 208.453345 252.220792 
L 208.639556 252.220792 
L 208.639556 250.464277 
L 208.842083 250.464277 
L 208.899465 246.951248 
L 209.090329 246.951248 
L 209.181143 243.438218 
L 209.285837 243.438218 
L 209.285837 241.681703 
L 211.995085 241.681703 
L 211.995085 239.925188 
L 212.982075 239.925188 
L 213.066646 234.655644 
L 213.104114 234.655644 
L 213.104114 232.899129 
L 213.272763 232.899129 
L 213.272763 231.142614 
L 214.366929 231.142614 
L 214.417231 227.629584 
L 215.161367 227.629584 
L 215.238451 224.116554 
L 218.045951 224.116554 
L 218.045951 222.36004 
L 225.417614 222.36004 
L 225.417614 220.603525 
L 226.13509 220.603525 
L 226.13509 218.84701 
L 228.517187 218.84701 
L 228.517187 217.090495 
L 242.896506 217.090495 
L 242.896506 215.33398 
L 243.170523 215.33398 
L 243.170523 213.577465 
L 243.776908 213.577465 
L 243.776908 211.82095 
L 243.943784 211.82095 
L 244.013078 208.307921 
L 244.328436 208.307921 
L 244.328436 206.551406 
L 244.555874 206.551406 
L 244.575982 203.038376 
L 244.717756 203.038376 
L 244.751122 196.012317 
L 244.833201 196.012317 
L 244.900576 190.742772 
L 245.02512 190.742772 
L 245.11727 187.229743 
L 245.253237 187.229743 
L 245.253237 185.473228 
L 245.434021 185.473228 
L 245.434021 183.716713 
L 245.558376 183.716713 
L 245.612215 178.447168 
L 245.685105 178.447168 
L 245.685105 176.690653 
L 245.867705 176.690653 
L 245.926549 173.177624 
L 245.987379 173.177624 
L 245.987379 171.421109 
L 247.035137 171.421109 
L 247.085133 167.908079 
L 247.256906 167.908079 
L 247.330922 164.39505 
L 251.849773 164.39505 
L 251.849773 162.638535 
L 257.011006 162.638535 
L 257.011006 160.88202 
L 268.50784 160.88202 
L 268.50784 159.125505 
L 279.136671 159.125505 
L 279.136671 157.36899 
L 289.286995 157.36899 
L 289.286995 155.612475 
L 296.389229 155.612475 
L 296.389229 153.85596 
L 298.969098 153.85596 
L 298.969098 152.099446 
L 301.336848 152.099446 
L 301.336848 150.342931 
L 302.165569 150.342931 
L 302.165569 148.586416 
L 303.535878 148.586416 
L 303.535878 146.829901 
L 304.331395 146.829901 
L 304.331395 145.073386 
L 304.869662 145.073386 
L 304.869662 143.316871 
L 305.994996 143.316871 
L 305.994996 141.560356 
L 306.582444 141.560356 
L 306.582444 139.803842 
L 308.290449 139.803842 
L 308.368584 136.290812 
L 308.481807 136.290812 
L 308.481807 134.534297 
L 312.558374 134.534297 
L 312.558374 132.777782 
L 312.738417 132.777782 
L 312.738417 131.021267 
L 312.864804 131.021267 
L 312.864804 129.264752 
L 313.070622 129.264752 
L 313.070622 127.508238 
L 313.246912 127.508238 
L 313.246912 125.751723 
L 313.800422 125.751723 
L 313.800422 123.995208 
L 314.813996 123.995208 
L 314.813996 122.238693 
L 315.041571 122.238693 
L 315.041571 120.482178 
L 315.998448 120.482178 
L 315.998448 118.725663 
L 316.511956 118.725663 
L 316.511956 115.212634 
L 317.958153 115.212634 
L 317.958153 113.456119 
L 318.674356 113.456119 
L 318.674356 111.699604 
L 319.146876 111.699604 
L 319.146876 109.943089 
L 319.678368 109.943089 
L 319.678368 108.186574 
L 320.000088 108.186574 
L 320.082436 101.160515 
L 320.310182 101.160515 
L 320.310182 99.404 
L 320.725235 99.404 
L 320.725235 95.89097 
L 321.890105 95.89097 
L 321.890105 94.134455 
L 322.532786 94.134455 
L 322.642605 88.864911 
L 323.043978 88.864911 
L 323.043978 87.108396 
L 323.349773 87.108396 
L 323.349773 83.595366 
L 325.149639 83.595366 
L 325.149639 81.838851 
L 325.503279 81.838851 
L 325.503279 80.082337 
L 326.522881 80.082337 
L 326.527148 76.569307 
L 326.666169 76.569307 
L 326.666169 74.812792 
L 327.125377 74.812792 
L 327.125377 73.056277 
L 327.407632 73.056277 
L 327.407632 71.299762 
L 327.785894 71.299762 
L 327.89243 67.786733 
L 327.90072 67.786733 
L 327.90072 66.030218 
L 342.816784 66.030218 
L 342.816784 62.517188 
L 343.070937 62.517188 
L 343.070937 60.760673 
L 343.502754 60.760673 
L 343.502754 59.004158 
L 345.184031 59.004158 
L 345.282025 55.491129 
L 345.517728 55.491129 
L 345.517728 51.978099 
L 345.986555 51.978099 
L 345.986555 50.221584 
L 346.504939 50.221584 
L 346.507826 46.708554 
L 346.748459 46.708554 
L 346.748459 43.195525 
L 347.616733 43.195525 
L 347.616733 41.43901 
L 348.701017 41.43901 
L 348.701017 39.682495 
L 349.150076 39.682495 
L 349.150076 37.92598 
L 349.404669 37.92598 
L 349.404669 36.169465 
L 349.521923 36.169465 
L 349.521923 34.41295 
L 352.844464 34.41295 
L 352.844464 32.656436 
L 352.973604 32.656436 
L 353.059993 29.143406 
L 353.324831 29.143406 
L 353.324831 27.386891 
L 353.869704 27.386891 
L 353.890849 23.873861 
L 354.31299 23.873861 
L 354.31299 22.117347 
L 354.997067 22.117347 
L 355.105504 16.847802 
L 355.135313 16.847802 
L 355.135313 15.091287 
L 356.468168 15.091287 
L 356.468168 13.334772 
L 356.468168 13.334772 
L 367.82 13.334772 
L 367.82 13.334772 
" style="fill:none;stroke:#000000;stroke-linecap:square;stroke-width:1.5;"/>
   </g>
   <g id="line2d_27">
    <path clip-path="url(#pdb887bbab0)" d="M 200.968412 276.812 
L 200.968412 275.055485 
L 201.546047 275.055485 
L 201.546047 273.29897 
L 204.145732 273.29897 
L 204.171021 269.785941 
L 206.714085 269.785941 
L 206.714085 268.029426 
L 206.891379 268.029426 
L 206.891379 266.272911 
L 207.345363 266.272911 
L 207.345363 264.516396 
L 207.604202 264.516396 
L 207.604202 262.759881 
L 207.792035 262.759881 
L 207.82826 257.490337 
L 207.977672 257.490337 
L 208.043899 252.220792 
L 208.142839 252.220792 
L 208.230957 248.707762 
L 208.363569 248.707762 
L 208.363569 246.951248 
L 208.639556 246.951248 
L 208.639556 245.194733 
L 209.090329 245.194733 
L 209.090329 243.438218 
L 209.285837 243.438218 
L 209.285837 241.681703 
L 211.635062 241.681703 
L 211.635062 239.925188 
L 212.445299 239.925188 
L 212.445299 238.168673 
L 212.760826 238.168673 
L 212.760826 236.412158 
L 212.958303 236.412158 
L 212.982075 231.142614 
L 213.272763 231.142614 
L 213.334018 227.629584 
L 215.161367 227.629584 
L 215.238451 224.116554 
L 218.045951 224.116554 
L 218.149817 220.603525 
L 221.170069 220.603525 
L 221.170069 218.84701 
L 222.391341 218.84701 
L 222.391341 217.090495 
L 225.417614 217.090495 
L 225.417614 215.33398 
L 242.674845 215.33398 
L 242.740457 211.82095 
L 243.624374 211.82095 
L 243.624374 210.064436 
L 243.776908 210.064436 
L 243.776908 208.307921 
L 244.013078 208.307921 
L 244.013078 206.551406 
L 244.201558 206.551406 
L 244.201558 204.794891 
L 244.445829 204.794891 
L 244.534421 196.012317 
L 244.622398 196.012317 
L 244.717756 188.986257 
L 244.743061 188.986257 
L 244.790877 185.473228 
L 244.914353 185.473228 
L 244.914353 183.716713 
L 245.407983 183.716713 
L 245.410677 180.203683 
L 245.562303 180.203683 
L 245.612215 176.690653 
L 245.673476 176.690653 
L 245.685105 173.177624 
L 245.926549 173.177624 
L 245.987379 169.664594 
L 247.010666 169.664594 
L 247.120673 164.39505 
L 247.265774 164.39505 
L 247.265774 162.638535 
L 250.387634 162.638535 
L 250.387634 160.88202 
L 250.544641 160.88202 
L 250.544641 159.125505 
L 252.447597 159.125505 
L 252.447597 157.36899 
L 289.286995 157.36899 
L 289.286995 155.612475 
L 292.996739 155.612475 
L 292.996739 153.85596 
L 294.151162 153.85596 
L 294.151162 152.099446 
L 298.040637 152.099446 
L 298.040637 150.342931 
L 298.969098 150.342931 
L 298.969098 148.586416 
L 299.689441 148.586416 
L 299.689441 146.829901 
L 301.336848 146.829901 
L 301.336848 145.073386 
L 302.020521 145.073386 
L 302.020521 143.316871 
L 305.859508 143.316871 
L 305.859508 141.560356 
L 305.994996 141.560356 
L 305.994996 139.803842 
L 308.130338 139.803842 
L 308.130338 138.047327 
L 308.368584 138.047327 
L 308.368584 136.290812 
L 308.481807 136.290812 
L 308.481807 134.534297 
L 311.691072 134.534297 
L 311.691072 132.777782 
L 312.203523 132.777782 
L 312.256225 127.508238 
L 312.395278 127.508238 
L 312.395278 125.751723 
L 312.849953 125.751723 
L 312.849953 123.995208 
L 313.097154 123.995208 
L 313.097154 122.238693 
L 314.787323 122.238693 
L 314.787323 120.482178 
L 315.746841 120.482178 
L 315.796015 116.969149 
L 316.511956 116.969149 
L 316.511956 115.212634 
L 316.842737 115.212634 
L 316.842737 113.456119 
L 317.6216 113.456119 
L 317.6216 111.699604 
L 318.863011 111.699604 
L 318.863011 109.943089 
L 319.031484 109.943089 
L 319.031484 108.186574 
L 319.194934 108.186574 
L 319.224764 104.673545 
L 319.468918 104.673545 
L 319.468918 102.91703 
L 320.000088 102.91703 
L 320.082436 97.647485 
L 320.725235 97.647485 
L 320.725235 94.134455 
L 321.84565 94.134455 
L 321.894895 90.621426 
L 321.98429 90.621426 
L 321.98429 88.864911 
L 322.574713 88.864911 
L 322.574713 87.108396 
L 323.349773 87.108396 
L 323.349773 83.595366 
L 324.20041 83.595366 
L 324.20041 81.838851 
L 324.441165 81.838851 
L 324.441165 80.082337 
L 324.647889 80.082337 
L 324.647889 78.325822 
L 325.069943 78.325822 
L 325.069943 76.569307 
L 326.136547 76.569307 
L 326.229573 73.056277 
L 326.991812 73.056277 
L 326.991812 71.299762 
L 327.247347 71.299762 
L 327.264681 67.786733 
L 327.785894 67.786733 
L 327.785894 66.030218 
L 342.545648 66.030218 
L 342.545648 64.273703 
L 342.816784 64.273703 
L 342.816784 60.760673 
L 343.070937 60.760673 
L 343.070937 59.004158 
L 345.184031 59.004158 
L 345.262465 55.491129 
L 345.517728 55.491129 
L 345.517728 51.978099 
L 345.921954 51.978099 
L 345.986555 48.465069 
L 346.103842 48.465069 
L 346.103842 46.708554 
L 346.573973 46.708554 
L 346.576927 43.195525 
L 346.748459 43.195525 
L 346.748459 41.43901 
L 347.91296 41.43901 
L 347.91296 39.682495 
L 348.060617 39.682495 
L 348.060617 37.92598 
L 348.613518 37.92598 
L 348.701017 34.41295 
L 351.948288 34.41295 
L 351.948288 32.656436 
L 352.25456 32.656436 
L 352.278709 29.143406 
L 352.973604 29.143406 
L 352.978369 25.630376 
L 353.890849 25.630376 
L 353.890849 23.873861 
L 354.31299 23.873861 
L 354.31299 22.117347 
L 354.686404 22.117347 
L 354.686404 20.360832 
L 354.964828 20.360832 
L 354.964828 18.604317 
L 355.105504 18.604317 
L 355.135313 15.091287 
L 356.22895 15.091287 
L 356.22895 13.334772 
L 356.22895 13.334772 
L 367.82 13.334772 
L 367.82 13.334772 
" style="fill:none;stroke:#00bfbf;stroke-linecap:square;stroke-width:1.5;"/>
   </g>
   <g id="line2d_28">
    <path clip-path="url(#pdb887bbab0)" d="M 199.914782 276.812 
L 199.914782 275.055485 
L 200.947598 275.055485 
L 200.947598 273.29897 
L 203.786541 273.29897 
L 203.786541 271.542455 
L 204.171021 271.542455 
L 204.171021 269.785941 
L 206.093397 269.785941 
L 206.093397 268.029426 
L 206.273587 268.029426 
L 206.273587 266.272911 
L 206.962572 266.272911 
L 207.014696 262.759881 
L 207.112501 262.759881 
L 207.172047 257.490337 
L 207.250488 257.490337 
L 207.250488 255.733822 
L 207.568032 255.733822 
L 207.568032 253.977307 
L 207.71732 253.977307 
L 207.738137 250.464277 
L 208.009649 250.464277 
L 208.009649 248.707762 
L 208.23642 248.707762 
L 208.23642 246.951248 
L 208.363569 246.951248 
L 208.363569 245.194733 
L 208.937922 245.194733 
L 208.951703 241.681703 
L 211.635062 241.681703 
L 211.635062 239.925188 
L 212.202584 239.925188 
L 212.202584 238.168673 
L 212.445299 238.168673 
L 212.445299 236.412158 
L 212.560922 236.412158 
L 212.560922 234.655644 
L 212.795269 234.655644 
L 212.795269 232.899129 
L 212.958303 232.899129 
L 212.982075 227.629584 
L 215.161367 227.629584 
L 215.238451 224.116554 
L 217.080468 224.116554 
L 217.178511 220.603525 
L 218.149817 220.603525 
L 218.149817 218.84701 
L 218.506708 218.84701 
L 218.506708 217.090495 
L 220.942663 217.090495 
L 220.942663 215.33398 
L 221.138186 215.33398 
L 221.170069 211.82095 
L 223.799934 211.82095 
L 223.799934 210.064436 
L 242.523889 210.064436 
L 242.536485 206.551406 
L 243.596493 206.551406 
L 243.624374 203.038376 
L 244.013078 203.038376 
L 244.013078 201.281861 
L 244.143327 201.281861 
L 244.239121 197.768832 
L 244.335046 197.768832 
L 244.375547 194.255802 
L 244.447748 194.255802 
L 244.50711 185.473228 
L 244.622398 185.473228 
L 244.679862 181.960198 
L 244.784029 181.960198 
L 244.790877 178.447168 
L 244.969898 178.447168 
L 244.969898 176.690653 
L 245.222632 176.690653 
L 245.222632 174.934139 
L 245.358944 174.934139 
L 245.426862 171.421109 
L 245.579493 171.421109 
L 245.639171 166.151564 
L 245.902193 166.151564 
L 245.902193 164.39505 
L 246.615714 164.39505 
L 246.615714 162.638535 
L 246.861025 162.638535 
L 246.945559 159.125505 
L 247.005297 159.125505 
L 247.005297 157.36899 
L 287.763365 157.36899 
L 287.763365 155.612475 
L 288.128564 155.612475 
L 288.128564 153.85596 
L 290.401262 153.85596 
L 290.401262 152.099446 
L 292.118802 152.099446 
L 292.118802 150.342931 
L 296.309949 150.342931 
L 296.309949 148.586416 
L 298.040637 148.586416 
L 298.040637 146.829901 
L 299.689441 146.829901 
L 299.689441 145.073386 
L 300.75264 145.073386 
L 300.75264 143.316871 
L 304.495262 143.316871 
L 304.495262 141.560356 
L 305.73235 141.560356 
L 305.73235 139.803842 
L 305.859508 139.803842 
L 305.859508 138.047327 
L 308.09215 138.047327 
L 308.09215 136.290812 
L 308.394197 136.290812 
L 308.394197 134.534297 
L 309.421614 134.534297 
L 309.421614 132.777782 
L 310.40744 132.777782 
L 310.470936 129.264752 
L 310.871159 129.264752 
L 310.871159 127.508238 
L 311.535143 127.508238 
L 311.535143 125.751723 
L 311.691975 125.751723 
L 311.691975 123.995208 
L 312.118841 123.995208 
L 312.118841 122.238693 
L 313.784989 122.238693 
L 313.784989 120.482178 
L 314.283115 120.482178 
L 314.283115 118.725663 
L 314.642062 118.725663 
L 314.725509 115.212634 
L 316.508824 115.212634 
L 316.508824 113.456119 
L 316.842737 113.456119 
L 316.842737 111.699604 
L 317.969179 111.699604 
L 317.969179 109.943089 
L 318.239225 109.943089 
L 318.239225 108.186574 
L 319.100491 108.186574 
L 319.194934 102.91703 
L 319.224764 102.91703 
L 319.224764 101.160515 
L 320.000088 101.160515 
L 320.000088 97.647485 
L 320.677038 97.647485 
L 320.725235 92.377941 
L 321.071486 92.377941 
L 321.158392 88.864911 
L 322.272657 88.864911 
L 322.272657 87.108396 
L 323.349773 87.108396 
L 323.349773 83.595366 
L 323.849924 83.595366 
L 323.849924 81.838851 
L 324.15482 81.838851 
L 324.15482 80.082337 
L 324.547021 80.082337 
L 324.547021 78.325822 
L 324.849099 78.325822 
L 324.921218 74.812792 
L 325.017857 74.812792 
L 325.017857 73.056277 
L 326.277712 73.056277 
L 326.277712 71.299762 
L 326.665902 71.299762 
L 326.665902 69.543248 
L 327.07369 69.543248 
L 327.084636 66.030218 
L 342.545648 66.030218 
L 342.545648 64.273703 
L 342.816784 64.273703 
L 342.881517 59.004158 
L 344.944663 59.004158 
L 345.00023 55.491129 
L 345.089162 55.491129 
L 345.089162 53.734614 
L 345.334829 53.734614 
L 345.334829 51.978099 
L 345.517728 51.978099 
L 345.517728 50.221584 
L 345.647703 50.221584 
L 345.647703 48.465069 
L 345.862503 48.465069 
L 345.862503 46.708554 
L 345.986555 46.708554 
L 345.986555 44.95204 
L 346.206863 44.95204 
L 346.206863 43.195525 
L 346.576927 43.195525 
L 346.576927 41.43901 
L 347.335449 41.43901 
L 347.335449 39.682495 
L 347.785156 39.682495 
L 347.785156 37.92598 
L 348.321424 37.92598 
L 348.321424 36.169465 
L 348.603229 36.169465 
L 348.603229 34.41295 
L 351.592983 34.41295 
L 351.592983 32.656436 
L 351.717227 32.656436 
L 351.717227 30.899921 
L 351.948288 30.899921 
L 352.050589 27.386891 
L 352.973604 27.386891 
L 352.973604 25.630376 
L 353.297561 25.630376 
L 353.297561 23.873861 
L 353.613387 23.873861 
L 353.613387 22.117347 
L 353.934349 22.117347 
L 353.966761 18.604317 
L 354.198276 18.604317 
L 354.198276 16.847802 
L 354.894246 16.847802 
L 354.894246 15.091287 
L 355.165915 15.091287 
L 355.165915 13.334772 
L 355.165915 13.334772 
L 367.82 13.334772 
L 367.82 13.334772 
" style="fill:none;stroke:#bf00bf;stroke-linecap:square;stroke-width:1.5;"/>
   </g>
   <g id="line2d_29">
    <path clip-path="url(#pdb887bbab0)" d="M 199.612557 276.812 
L 199.612557 275.055485 
L 200.298625 275.055485 
L 200.298625 273.29897 
L 203.203284 273.29897 
L 203.203284 271.542455 
L 203.600626 271.542455 
L 203.600626 269.785941 
L 205.331209 269.785941 
L 205.331209 268.029426 
L 205.494874 268.029426 
L 205.494874 266.272911 
L 206.08369 266.272911 
L 206.08369 264.516396 
L 206.296841 264.516396 
L 206.296841 262.759881 
L 206.46565 262.759881 
L 206.575128 259.246851 
L 206.632293 259.246851 
L 206.632293 257.490337 
L 206.824098 257.490337 
L 206.890399 253.977307 
L 206.939656 253.977307 
L 206.997567 250.464277 
L 207.483775 250.464277 
L 207.493018 246.951248 
L 207.68889 246.951248 
L 207.726887 243.438218 
L 207.814443 243.438218 
L 207.814443 241.681703 
L 211.194809 241.681703 
L 211.194809 239.925188 
L 211.357878 239.925188 
L 211.357878 238.168673 
L 212.051084 238.168673 
L 212.117584 234.655644 
L 212.254131 234.655644 
L 212.254131 232.899129 
L 212.445299 232.899129 
L 212.445299 231.142614 
L 212.982075 231.142614 
L 212.982075 227.629584 
L 213.853515 227.629584 
L 213.853515 225.873069 
L 214.604787 225.873069 
L 214.604787 224.116554 
L 216.446486 224.116554 
L 216.446486 222.36004 
L 216.715245 222.36004 
L 216.715245 220.603525 
L 217.604191 220.603525 
L 217.604191 218.84701 
L 218.141434 218.84701 
L 218.141434 217.090495 
L 220.465614 217.090495 
L 220.465614 215.33398 
L 220.625747 215.33398 
L 220.625747 213.577465 
L 220.856961 213.577465 
L 220.942663 210.064436 
L 242.304399 210.064436 
L 242.365495 206.551406 
L 243.207398 206.551406 
L 243.207398 204.794891 
L 243.365617 204.794891 
L 243.365617 203.038376 
L 243.579122 203.038376 
L 243.579122 201.281861 
L 243.751638 201.281861 
L 243.751638 199.525347 
L 244.00244 199.525347 
L 244.071672 194.255802 
L 244.199679 194.255802 
L 244.30946 181.960198 
L 244.427514 181.960198 
L 244.486479 178.447168 
L 244.594919 178.447168 
L 244.594919 176.690653 
L 244.718424 176.690653 
L 244.718424 174.934139 
L 245.149765 174.934139 
L 245.202063 171.421109 
L 245.392421 171.421109 
L 245.497029 164.39505 
L 246.565835 164.39505 
L 246.65669 159.125505 
L 246.808695 159.125505 
L 246.808695 157.36899 
L 267.514414 157.36899 
L 267.514414 155.612475 
L 278.027679 155.612475 
L 278.027679 153.85596 
L 287.367929 153.85596 
L 287.367929 152.099446 
L 289.392717 152.099446 
L 289.392717 150.342931 
L 292.895529 150.342931 
L 292.895529 148.586416 
L 296.157913 148.586416 
L 296.157913 146.829901 
L 299.288676 146.829901 
L 299.332885 143.316871 
L 302.350831 143.316871 
L 302.350831 141.560356 
L 304.944029 141.560356 
L 305.00833 138.047327 
L 305.798513 138.047327 
L 305.798513 136.290812 
L 307.951155 136.290812 
L 308.039538 132.777782 
L 308.14857 132.777782 
L 308.14857 131.021267 
L 308.635541 131.021267 
L 308.635541 129.264752 
L 308.822384 129.264752 
L 308.822384 127.508238 
L 310.399198 127.508238 
L 310.462679 123.995208 
L 310.563552 123.995208 
L 310.563552 122.238693 
L 312.35921 122.238693 
L 312.35921 120.482178 
L 312.473636 120.482178 
L 312.473636 118.725663 
L 313.399451 118.725663 
L 313.399451 116.969149 
L 313.583091 116.969149 
L 313.583091 115.212634 
L 314.808249 115.212634 
L 314.808249 113.456119 
L 315.587542 113.456119 
L 315.587542 111.699604 
L 316.1002 111.699604 
L 316.1002 109.943089 
L 316.972516 109.943089 
L 316.972516 108.186574 
L 317.612244 108.186574 
L 317.671008 104.673545 
L 318.268967 104.673545 
L 318.268967 102.91703 
L 318.540155 102.91703 
L 318.540155 101.160515 
L 319.341515 101.160515 
L 319.341515 99.404 
L 319.599485 99.404 
L 319.599485 97.647485 
L 319.953163 97.647485 
L 319.953163 95.89097 
L 320.070751 95.89097 
L 320.070751 94.134455 
L 320.442802 94.134455 
L 320.545041 90.621426 
L 320.905526 90.621426 
L 320.905526 88.864911 
L 321.126005 88.864911 
L 321.126005 87.108396 
L 322.77591 87.108396 
L 322.77591 85.351881 
L 323.024631 85.351881 
L 323.084463 81.838851 
L 323.310641 81.838851 
L 323.349773 78.325822 
L 323.899674 78.325822 
L 323.899674 76.569307 
L 324.080508 76.569307 
L 324.164241 73.056277 
L 325.125035 73.056277 
L 325.125035 71.299762 
L 325.542279 71.299762 
L 325.542279 69.543248 
L 326.111503 69.543248 
L 326.164036 66.030218 
L 342.050117 66.030218 
L 342.050117 64.273703 
L 342.219849 64.273703 
L 342.219849 62.517188 
L 342.393693 62.517188 
L 342.393693 60.760673 
L 342.816784 60.760673 
L 342.816784 59.004158 
L 344.421451 59.004158 
L 344.482826 55.491129 
L 344.68652 55.491129 
L 344.759333 50.221584 
L 344.997392 50.221584 
L 345.001092 46.708554 
L 345.218737 46.708554 
L 345.218737 44.95204 
L 345.403687 44.95204 
L 345.403687 43.195525 
L 345.669624 43.195525 
L 345.669624 41.43901 
L 346.968871 41.43901 
L 346.968871 39.682495 
L 347.178163 39.682495 
L 347.178163 37.92598 
L 347.322662 37.92598 
L 347.335449 34.41295 
L 351.150774 34.41295 
L 351.150774 32.656436 
L 351.363817 32.656436 
L 351.363817 30.899921 
L 351.506459 30.899921 
L 351.506459 29.143406 
L 351.757892 29.143406 
L 351.757892 27.386891 
L 352.13686 27.386891 
L 352.13686 25.630376 
L 352.342798 25.630376 
L 352.384287 22.117347 
L 352.632144 22.117347 
L 352.632144 20.360832 
L 352.817369 20.360832 
L 352.817369 18.604317 
L 353.190974 18.604317 
L 353.190974 16.847802 
L 353.361219 16.847802 
L 353.361219 15.091287 
L 353.895348 15.091287 
L 353.895348 13.334772 
L 353.895348 13.334772 
L 367.82 13.334772 
L 367.82 13.334772 
" style="fill:none;stroke:#000000;stroke-linecap:square;stroke-width:1.5;"/>
   </g>
   <g id="patch_3">
    <path d="M 10.7 276.812 
L 10.7 10.7 
" style="fill:none;stroke:#000000;stroke-linecap:square;stroke-linejoin:miter;stroke-width:0.8;"/>
   </g>
   <g id="patch_4">
    <path d="M 367.82 276.812 
L 367.82 10.7 
" style="fill:none;stroke:#000000;stroke-linecap:square;stroke-linejoin:miter;stroke-width:0.8;"/>
   </g>
   <g id="patch_5">
    <path d="M 10.7 276.812 
L 367.82 276.812 
" style="fill:none;stroke:#000000;stroke-linecap:square;stroke-linejoin:miter;stroke-width:0.8;"/>
   </g>
   <g id="patch_6">
    <path d="M 10.7 10.7 
L 367.82 10.7 
" style="fill:none;stroke:#000000;stroke-linecap:square;stroke-linejoin:miter;stroke-width:0.8;"/>
   </g>
   <g id="text_6">
    <!-- {f10-f14}, 20-D -->
    <defs>
     <path d="M 51.125 -9.28125 
L 51.125 -16.3125 
L 48.09375 -16.3125 
Q 35.9375 -16.3125 31.8125 -12.6875 
Q 27.6875 -9.078125 27.6875 1.703125 
L 27.6875 13.375 
Q 27.6875 20.75 25.046875 23.578125 
Q 22.40625 26.421875 15.484375 26.421875 
L 12.5 26.421875 
L 12.5 33.40625 
L 15.484375 33.40625 
Q 22.46875 33.40625 25.078125 36.203125 
Q 27.6875 39.015625 27.6875 46.296875 
L 27.6875 58.015625 
Q 27.6875 68.796875 31.8125 72.390625 
Q 35.9375 75.984375 48.09375 75.984375 
L 51.125 75.984375 
L 51.125 69 
L 47.796875 69 
Q 40.921875 69 38.8125 66.84375 
Q 36.71875 64.703125 36.71875 57.8125 
L 36.71875 45.703125 
Q 36.71875 38.03125 34.5 34.5625 
Q 32.28125 31.109375 26.90625 29.890625 
Q 32.328125 28.5625 34.515625 25.09375 
Q 36.71875 21.625 36.71875 14.015625 
L 36.71875 1.90625 
Q 36.71875 -4.984375 38.8125 -7.125 
Q 40.921875 -9.28125 47.796875 -9.28125 
z
" id="DejaVuSans-7b"/>
     <path d="M 12.5 -9.28125 
L 15.921875 -9.28125 
Q 22.75 -9.28125 24.828125 -7.171875 
Q 26.90625 -5.078125 26.90625 1.90625 
L 26.90625 14.015625 
Q 26.90625 21.625 29.09375 25.09375 
Q 31.296875 28.5625 36.71875 29.890625 
Q 31.296875 31.109375 29.09375 34.5625 
Q 26.90625 38.03125 26.90625 45.703125 
L 26.90625 57.8125 
Q 26.90625 64.75 24.828125 66.875 
Q 22.75 69 15.921875 69 
L 12.5 69 
L 12.5 75.984375 
L 15.578125 75.984375 
Q 27.734375 75.984375 31.8125 72.390625 
Q 35.890625 68.796875 35.890625 58.015625 
L 35.890625 46.296875 
Q 35.890625 39.015625 38.515625 36.203125 
Q 41.15625 33.40625 48.09375 33.40625 
L 51.125 33.40625 
L 51.125 26.421875 
L 48.09375 26.421875 
Q 41.15625 26.421875 38.515625 23.578125 
Q 35.890625 20.75 35.890625 13.375 
L 35.890625 1.703125 
Q 35.890625 -9.078125 31.8125 -12.6875 
Q 27.734375 -16.3125 15.578125 -16.3125 
L 12.5 -16.3125 
z
" id="DejaVuSans-7d"/>
     <path d="M 11.71875 12.40625 
L 22.015625 12.40625 
L 22.015625 4 
L 14.015625 -11.625 
L 7.71875 -11.625 
L 11.71875 4 
z
" id="DejaVuSans-2c"/>
     <path d="M 19.1875 8.296875 
L 53.609375 8.296875 
L 53.609375 0 
L 7.328125 0 
L 7.328125 8.296875 
Q 12.9375 14.109375 22.625 23.890625 
Q 32.328125 33.6875 34.8125 36.53125 
Q 39.546875 41.84375 41.421875 45.53125 
Q 43.3125 49.21875 43.3125 52.78125 
Q 43.3125 58.59375 39.234375 62.25 
Q 35.15625 65.921875 28.609375 65.921875 
Q 23.96875 65.921875 18.8125 64.3125 
Q 13.671875 62.703125 7.8125 59.421875 
L 7.8125 69.390625 
Q 13.765625 71.78125 18.9375 73 
Q 24.125 74.21875 28.421875 74.21875 
Q 39.75 74.21875 46.484375 68.546875 
Q 53.21875 62.890625 53.21875 53.421875 
Q 53.21875 48.921875 51.53125 44.890625 
Q 49.859375 40.875 45.40625 35.40625 
Q 44.1875 33.984375 37.640625 27.21875 
Q 31.109375 20.453125 19.1875 8.296875 
" id="DejaVuSans-32"/>
    </defs>
    <g transform="translate(202.2526 271.48976)scale(0.2 -0.2)">
     <use xlink:href="#DejaVuSans-7b"/>
     <use x="63.623047" xlink:href="#DejaVuSans-66"/>
     <use x="98.828125" xlink:href="#DejaVuSans-31"/>
     <use x="162.451172" xlink:href="#DejaVuSans-30"/>
     <use x="226.074219" xlink:href="#DejaVuSans-2d"/>
     <use x="262.158203" xlink:href="#DejaVuSans-66"/>
     <use x="297.363281" xlink:href="#DejaVuSans-31"/>
     <use x="360.986328" xlink:href="#DejaVuSans-34"/>
     <use x="424.609375" xlink:href="#DejaVuSans-7d"/>
     <use x="488.232422" xlink:href="#DejaVuSans-2c"/>
     <use x="520.019531" xlink:href="#DejaVuSans-20"/>
     <use x="551.806641" xlink:href="#DejaVuSans-32"/>
     <use x="615.429688" xlink:href="#DejaVuSans-30"/>
     <use x="679.052734" xlink:href="#DejaVuSans-2d"/>
     <use x="715.136719" xlink:href="#DejaVuSans-44"/>
    </g>
   </g>
   <g id="text_7">
    <!-- v2.1 -->
    <defs>
     <path d="M 2.984375 54.6875 
L 12.5 54.6875 
L 29.59375 8.796875 
L 46.6875 54.6875 
L 56.203125 54.6875 
L 35.6875 0 
L 23.484375 0 
z
" id="DejaVuSans-76"/>
     <path d="M 10.6875 12.40625 
L 21 12.40625 
L 21 0 
L 10.6875 0 
z
" id="DejaVuSans-2e"/>
    </defs>
    <g style="fill:#808080;" transform="translate(178.349063 272.071193)scale(0.1 -0.1)">
     <use xlink:href="#DejaVuSans-76"/>
     <use x="59.179688" xlink:href="#DejaVuSans-32"/>
     <use x="122.802734" xlink:href="#DejaVuSans-2e"/>
     <use x="154.589844" xlink:href="#DejaVuSans-31"/>
    </g>
   </g>
  </g>
 </g>
 <defs>
  <clipPath id="pdb887bbab0">
   <rect height="266.112" width="357.12" x="10.7" y="10.7"/>
  </clipPath>
 </defs>
</svg>
