<?xml version="1.0" encoding="utf-8" standalone="no"?>
<!DOCTYPE svg PUBLIC "-//W3C//DTD SVG 1.1//EN"
  "http://www.w3.org/Graphics/SVG/1.1/DTD/svg11.dtd">
<!-- Created with matplotlib (http://matplotlib.org/) -->
<svg height="335pt" version="1.1" viewBox="0 0 437 335" width="437pt" xmlns="http://www.w3.org/2000/svg" xmlns:xlink="http://www.w3.org/1999/xlink">
 <defs>
  <style type="text/css">
*{stroke-linecap:butt;stroke-linejoin:round;}
  </style>
 </defs>
 <g id="figure_1">
  <g id="patch_1">
   <path d="M 0 335.188165 
L 437.1825 335.188165 
L 437.1825 0 
L 0 0 
z
" style="fill:#ffffff;"/>
  </g>
  <g id="axes_1">
   <g id="patch_2">
    <path d="M 69.3625 278.275665 
L 426.4825 278.275665 
L 426.4825 12.163665 
L 69.3625 12.163665 
z
" style="fill:#ffffff;"/>
   </g>
   <g id="line2d_1">
    <path clip-path="url(#p113b37172f)" d="M 253.704238 278.275665 
L 253.704238 274.762636 
L 256.443967 274.762636 
L 256.443967 271.249606 
L 257.420166 271.249606 
L 257.420166 267.736576 
L 257.779558 267.736576 
L 257.779558 264.223546 
L 258.09605 264.223546 
L 258.09605 260.710517 
L 258.720851 260.710517 
L 258.720851 257.197487 
L 258.759545 257.197487 
L 258.759545 253.684457 
L 258.990846 253.684457 
L 258.990846 250.171428 
L 260.533042 250.171428 
L 260.533042 246.658398 
L 261.478037 246.658398 
L 261.478037 243.145368 
L 261.870533 243.145368 
L 261.870533 239.632338 
L 262.118106 239.632338 
L 262.118106 236.119309 
L 274.277754 236.119309 
L 274.277754 232.606279 
L 279.127132 232.606279 
L 279.127132 229.093249 
L 279.390555 229.093249 
L 279.390555 225.58022 
L 283.344161 225.58022 
L 283.344161 222.06719 
L 283.63711 222.06719 
L 283.63711 218.55416 
L 288.524199 218.55416 
L 288.524199 215.041131 
L 297.4017 215.041131 
L 297.4017 211.528101 
L 297.82477 211.528101 
L 297.82477 208.015071 
L 300.667558 208.015071 
L 300.667558 204.502041 
L 309.488285 204.502041 
L 309.488285 200.989012 
L 316.762653 200.989012 
L 316.762653 197.475982 
L 335.080437 197.475982 
L 335.080437 193.962952 
L 338.088957 193.962952 
L 338.088957 190.449923 
L 342.669977 190.449923 
L 342.669977 186.936893 
L 361.212856 186.936893 
L 361.212856 183.423863 
L 369.963906 183.423863 
L 369.963906 179.910834 
L 374.412331 179.910834 
L 374.412331 176.397804 
L 374.412331 176.397804 
L 374.412331 176.397804 
L 426.4825 176.397804 
" style="fill:none;stroke:#f5deb3;stroke-linecap:square;stroke-width:1.5;"/>
   </g>
   <g id="line2d_2"/>
   <g id="line2d_3">
    <path clip-path="url(#p113b37172f)" d="M 164.89245 278.275665 
L 164.89245 274.762636 
L 165.912194 274.762636 
L 165.912194 271.249606 
L 175.176601 271.249606 
L 175.176601 267.736576 
L 235.183451 267.736576 
L 235.183451 264.223546 
L 250.351853 264.223546 
L 250.351853 260.710517 
L 282.949838 260.710517 
L 282.949838 257.197487 
L 291.819458 257.197487 
L 291.819458 253.684457 
L 296.321873 253.684457 
L 296.321873 250.171428 
L 305.844355 250.171428 
L 305.844355 246.658398 
L 307.521607 246.658398 
L 307.521607 243.145368 
L 312.078934 243.145368 
L 312.078934 239.632338 
L 317.662758 239.632338 
L 317.662758 236.119309 
L 322.077978 236.119309 
L 322.077978 232.606279 
L 324.092432 232.606279 
L 324.092432 229.093249 
L 328.133364 229.093249 
L 328.133364 225.58022 
L 346.626768 225.58022 
L 346.626768 222.06719 
L 348.644956 222.06719 
L 348.644956 218.55416 
L 349.826483 218.55416 
L 349.826483 215.041131 
L 350.146922 215.041131 
L 350.146922 211.528101 
L 350.724587 211.528101 
L 350.724587 208.015071 
L 350.943401 208.015071 
L 350.943401 204.502041 
L 352.23799 204.502041 
L 352.23799 200.989012 
L 352.334337 200.989012 
L 352.334337 197.475982 
L 353.72995 197.475982 
L 353.72995 193.962952 
L 353.85877 193.962952 
L 353.85877 190.449923 
L 356.07877 190.449923 
L 356.07877 186.936893 
L 356.535977 186.936893 
L 356.535977 183.423863 
L 356.946433 183.423863 
L 356.946433 179.910834 
L 356.982352 179.910834 
L 356.982352 176.397804 
L 357.848908 176.397804 
L 357.848908 172.884774 
L 358.048652 172.884774 
L 358.048652 169.371744 
L 359.219688 169.371744 
L 359.219688 165.858715 
L 366.105195 165.858715 
L 366.105195 162.345685 
L 367.619704 162.345685 
L 367.619704 158.832655 
L 371.596276 158.832655 
L 371.596276 155.319626 
L 375.096615 155.319626 
L 375.096615 151.806596 
L 384.340706 151.806596 
L 384.340706 148.293566 
L 392.117043 148.293566 
L 392.117043 144.780537 
L 396.074049 144.780537 
L 396.074049 141.267507 
L 398.780714 141.267507 
L 398.780714 137.754477 
L 398.780714 137.754477 
L 398.780714 137.754477 
L 426.4825 137.754477 
" style="fill:none;stroke:#f5deb3;stroke-linecap:square;stroke-width:1.5;"/>
   </g>
   <g id="line2d_4">
    <path clip-path="url(#p113b37172f)" d="M 264.006555 278.275665 
L 264.006555 274.762636 
L 269.086088 274.762636 
L 269.086088 271.249606 
L 270.061384 271.249606 
L 270.146191 264.223546 
L 270.258959 264.223546 
L 270.258959 260.710517 
L 271.720888 260.710517 
L 271.720888 257.197487 
L 272.33739 257.197487 
L 272.33739 253.684457 
L 273.616807 253.684457 
L 273.616807 250.171428 
L 273.821464 250.171428 
L 273.821464 246.658398 
L 275.12425 246.658398 
L 275.12425 243.145368 
L 275.999475 243.145368 
L 275.999475 239.632338 
L 276.5241 239.632338 
L 276.5241 236.119309 
L 277.087878 236.119309 
L 277.087878 232.606279 
L 277.250673 232.606279 
L 277.250673 229.093249 
L 277.574082 229.093249 
L 277.574082 225.58022 
L 277.803333 225.58022 
L 277.894628 215.041131 
L 278.144509 215.041131 
L 278.234948 208.015071 
L 278.415153 208.015071 
L 278.415153 204.502041 
L 279.281028 204.502041 
L 279.281028 200.989012 
L 279.976339 200.989012 
L 279.976339 197.475982 
L 280.255038 197.475982 
L 280.255038 193.962952 
L 280.382948 193.962952 
L 280.382948 190.449923 
L 280.973957 190.449923 
L 281.057605 183.423863 
L 282.470909 183.423863 
L 282.470909 179.910834 
L 282.830698 179.910834 
L 282.830698 176.397804 
L 283.108083 176.397804 
L 283.108083 172.884774 
L 283.461625 172.884774 
L 283.461625 169.371744 
L 284.004807 169.371744 
L 284.081743 162.345685 
L 284.292479 162.345685 
L 284.292479 158.832655 
L 284.936193 158.832655 
L 284.936193 155.319626 
L 285.494823 155.319626 
L 285.494823 151.806596 
L 285.789271 151.806596 
L 285.880797 144.780537 
L 285.917343 144.780537 
L 285.917343 141.267507 
L 286.208388 141.267507 
L 286.226501 134.241447 
L 286.747869 134.241447 
L 286.801377 127.215388 
L 287.103107 127.215388 
L 287.13844 120.189329 
L 287.646929 120.189329 
L 287.664336 113.163269 
L 287.872573 113.163269 
L 287.907163 106.13721 
L 288.5072 106.13721 
L 288.5072 102.62418 
L 288.744457 102.62418 
L 288.744457 99.11115 
L 290.65268 99.11115 
L 290.65268 95.598121 
L 292.889593 95.598121 
L 292.889593 92.085091 
L 294.176985 92.085091 
L 294.176985 88.572061 
L 295.392054 88.572061 
L 295.392054 85.059032 
L 298.912361 85.059032 
L 298.912361 81.546002 
L 306.054385 81.546002 
L 306.054385 78.032972 
L 306.356779 78.032972 
L 306.356779 74.519942 
L 307.511551 74.519942 
L 307.511551 71.006913 
L 307.921595 71.006913 
L 307.921595 67.493883 
L 308.149602 67.493883 
L 308.149602 63.980853 
L 310.861835 63.980853 
L 310.861835 60.467824 
L 313.7931 60.467824 
L 313.7931 56.954794 
L 321.123896 56.954794 
L 321.123896 53.441764 
L 325.121011 53.441764 
L 325.121011 49.928735 
L 330.120451 49.928735 
L 330.120451 46.415705 
L 330.28703 46.415705 
L 330.28703 42.902675 
L 334.070889 42.902675 
L 334.070889 39.389645 
L 339.404486 39.389645 
L 339.404486 35.876616 
L 342.105833 35.876616 
L 342.105833 32.363586 
L 353.628813 32.363586 
L 353.628813 28.850556 
L 358.914663 28.850556 
L 358.914663 25.337527 
L 361.754072 25.337527 
L 361.754072 21.824497 
L 363.429649 21.824497 
L 363.429649 18.311467 
L 370.944812 18.311467 
L 370.944812 14.798437 
L 370.944812 14.798437 
L 426.4825 14.798437 
L 426.4825 14.798437 
" style="fill:none;stroke:#f5deb3;stroke-linecap:square;stroke-width:1.5;"/>
   </g>
   <g id="line2d_5">
    <path clip-path="url(#p113b37172f)" d="M 305.802202 278.275665 
L 305.802202 274.762636 
L 306.851809 274.762636 
L 306.851809 271.249606 
L 316.583047 271.249606 
L 316.583047 267.736576 
L 317.188569 267.736576 
L 317.188569 264.223546 
L 317.441733 264.223546 
L 317.441733 260.710517 
L 324.409132 260.710517 
L 324.409132 257.197487 
L 330.586016 257.197487 
L 330.586016 253.684457 
L 338.381646 253.684457 
L 338.381646 250.171428 
L 338.714489 250.171428 
L 338.714489 246.658398 
L 340.175529 246.658398 
L 340.175529 243.145368 
L 345.26325 243.145368 
L 345.26325 239.632338 
L 346.031333 239.632338 
L 346.031333 236.119309 
L 349.487414 236.119309 
L 349.487414 232.606279 
L 350.928248 232.606279 
L 350.928248 229.093249 
L 358.486707 229.093249 
L 358.486707 225.58022 
L 398.531753 225.58022 
L 398.531753 222.06719 
L 402.39712 222.06719 
L 402.39712 218.55416 
L 402.39712 218.55416 
L 402.39712 215.041131 
L 403.086733 215.041131 
L 403.086733 211.528101 
L 406.18819 211.528101 
L 406.18819 208.015071 
L 410.000964 208.015071 
L 410.000964 204.502041 
L 411.152572 204.502041 
L 411.152572 200.989012 
L 411.670798 200.989012 
L 411.670798 197.475982 
L 415.652136 197.475982 
L 415.652136 193.962952 
L 416.034984 193.962952 
L 416.034984 190.449923 
L 416.869246 190.449923 
L 416.869246 186.936893 
L 418.28943 186.936893 
L 418.28943 183.423863 
L 421.853345 183.423863 
L 421.853345 179.910834 
L 422.473079 179.910834 
L 422.473079 176.397804 
L 423.08073 176.397804 
L 423.08073 172.884774 
L 423.616546 172.884774 
L 423.616546 169.371744 
L 425.025664 169.371744 
L 425.025664 165.858715 
L 425.964493 165.858715 
L 425.964493 162.345685 
L 426.806256 162.345685 
L 426.806256 158.832655 
L 428.449625 158.832655 
L 428.449625 155.319626 
L 429.340169 155.319626 
L 429.340169 151.806596 
L 429.705202 151.806596 
L 429.705202 148.293566 
L 429.719989 148.293566 
L 429.719989 144.780537 
L 430.199152 144.780537 
L 430.199152 141.267507 
L 433.37639 141.267507 
L 433.37639 137.754477 
L 433.660557 137.754477 
L 433.660557 134.241447 
L 438.1825 134.241447 
" style="fill:none;stroke:#f5deb3;stroke-linecap:square;stroke-width:1.5;"/>
   </g>
   <g id="line2d_6"/>
   <g id="line2d_7">
    <path clip-path="url(#p113b37172f)" d="M 288.94659 278.275665 
L 288.94659 274.762636 
L 289.529777 274.762636 
L 289.529777 271.249606 
L 290.038584 271.249606 
L 290.038584 267.736576 
L 290.572471 267.736576 
L 290.572471 264.223546 
L 290.684714 264.223546 
L 290.684714 260.710517 
L 292.419575 260.710517 
L 292.419575 257.197487 
L 292.556662 257.197487 
L 292.556662 253.684457 
L 293.099876 253.684457 
L 293.099876 250.171428 
L 293.427871 250.171428 
L 293.457542 243.145368 
L 293.649813 243.145368 
L 293.708768 232.606279 
L 293.782327 232.606279 
L 293.870401 225.58022 
L 294.176985 225.58022 
L 294.235088 218.55416 
L 294.293099 218.55416 
L 294.336546 211.528101 
L 294.480993 211.528101 
L 294.524215 197.475982 
L 294.996283 197.475982 
L 294.996283 193.962952 
L 295.138127 193.962952 
L 295.138127 190.449923 
L 295.406109 190.449923 
L 295.406109 186.936893 
L 296.032999 186.936893 
L 296.032999 183.423863 
L 296.253302 183.423863 
L 296.253302 179.910834 
L 296.485915 179.910834 
L 296.513183 172.884774 
L 296.622051 172.884774 
L 296.622051 169.371744 
L 296.744137 169.371744 
L 296.744137 165.858715 
L 297.054277 165.858715 
L 297.121349 158.832655 
L 297.574169 158.832655 
L 297.587402 151.806596 
L 297.798472 151.806596 
L 297.798472 148.293566 
L 298.617802 148.293566 
L 298.617802 144.780537 
L 299.166565 144.780537 
L 299.166565 141.267507 
L 299.607171 141.267507 
L 299.694653 134.241447 
L 299.719608 134.241447 
L 299.719608 130.728418 
L 299.89382 130.728418 
L 299.89382 127.215388 
L 300.067196 127.215388 
L 300.067196 123.702358 
L 300.921838 123.702358 
L 300.982119 116.676299 
L 301.744974 116.676299 
L 301.744974 113.163269 
L 304.547009 113.163269 
L 304.547009 109.650239 
L 304.786375 109.650239 
L 304.786375 106.13721 
L 308.386002 106.13721 
L 308.386002 102.62418 
L 308.523192 102.62418 
L 308.523192 99.11115 
L 310.120796 99.11115 
L 310.120796 95.598121 
L 311.18133 95.598121 
L 311.18133 92.085091 
L 311.317398 92.085091 
L 311.317398 88.572061 
L 312.379118 88.572061 
L 312.44939 81.546002 
L 313.032617 81.546002 
L 313.032617 78.032972 
L 313.179118 78.032972 
L 313.213503 71.006913 
L 313.902857 71.006913 
L 313.902857 67.493883 
L 314.974315 67.493883 
L 314.974315 63.980853 
L 315.316427 63.980853 
L 315.316427 60.467824 
L 316.520365 60.467824 
L 316.520365 56.954794 
L 318.67427 56.954794 
L 318.67427 53.441764 
L 319.195121 53.441764 
L 319.195121 49.928735 
L 321.137704 49.928735 
L 321.137704 46.415705 
L 323.18412 46.415705 
L 323.18412 42.902675 
L 328.625023 42.902675 
L 328.625023 39.389645 
L 335.477431 39.389645 
L 335.477431 35.876616 
L 343.993503 35.876616 
L 343.993503 32.363586 
L 346.169879 32.363586 
L 346.169879 28.850556 
L 349.173785 28.850556 
L 349.173785 25.337527 
L 349.75767 25.337527 
L 349.75767 21.824497 
L 357.996326 21.824497 
L 357.996326 18.311467 
L 396.241746 18.311467 
L 396.241746 14.798437 
L 396.241746 14.798437 
L 426.4825 14.798437 
L 426.4825 14.798437 
" style="fill:none;stroke:#f5deb3;stroke-linecap:square;stroke-width:1.5;"/>
   </g>
   <g id="line2d_8">
    <path clip-path="url(#p113b37172f)" style="fill:none;stroke:#f5deb3;stroke-linecap:square;stroke-width:1.5;"/>
   </g>
   <g id="line2d_9">
    <path clip-path="url(#p113b37172f)" d="M 284.292479 278.275665 
L 284.292479 274.762636 
L 285.19796 274.762636 
L 285.19796 271.249606 
L 285.899075 271.249606 
L 285.899075 267.736576 
L 287.050043 267.736576 
L 287.050043 264.223546 
L 287.349716 264.223546 
L 287.454894 257.197487 
L 288.027969 257.197487 
L 288.027969 253.684457 
L 288.642966 253.684457 
L 288.642966 250.171428 
L 289.047234 250.171428 
L 289.047234 246.658398 
L 289.247688 246.658398 
L 289.3475 236.119309 
L 289.364109 236.119309 
L 289.364109 232.606279 
L 289.891601 232.606279 
L 289.891601 229.093249 
L 290.103718 229.093249 
L 290.103718 225.58022 
L 290.266044 225.58022 
L 290.282236 218.55416 
L 290.411517 218.55416 
L 290.411517 215.041131 
L 290.52426 215.041131 
L 290.52426 211.528101 
L 290.748698 211.528101 
L 290.828518 204.502041 
L 291.303779 204.502041 
L 291.303779 200.989012 
L 291.695118 200.989012 
L 291.695118 197.475982 
L 291.881469 197.475982 
L 291.881469 193.962952 
L 292.036031 193.962952 
L 292.036031 190.449923 
L 292.281967 190.449923 
L 292.35848 179.910834 
L 292.571862 179.910834 
L 292.647765 162.345685 
L 292.693231 162.345685 
L 292.693231 158.832655 
L 292.934757 158.832655 
L 292.934757 155.319626 
L 293.159733 155.319626 
L 293.174682 148.293566 
L 293.723492 148.293566 
L 293.767627 141.267507 
L 294.191519 141.267507 
L 294.191519 137.754477 
L 294.509814 137.754477 
L 294.581765 130.728418 
L 294.982068 130.728418 
L 295.067275 123.702358 
L 295.307609 123.702358 
L 295.307609 120.189329 
L 296.212097 120.189329 
L 296.29446 109.650239 
L 297.201671 109.650239 
L 297.201671 106.13721 
L 297.82477 106.13721 
L 297.82477 102.62418 
L 302.526729 102.62418 
L 302.526729 99.11115 
L 303.122037 99.11115 
L 303.122037 95.598121 
L 303.774686 95.598121 
L 303.774686 92.085091 
L 304.862206 92.085091 
L 304.862206 88.572061 
L 305.077995 88.572061 
L 305.077995 85.059032 
L 306.356779 85.059032 
L 306.356779 81.546002 
L 307.722154 81.546002 
L 307.722154 78.032972 
L 307.911649 78.032972 
L 307.911649 74.519942 
L 308.238433 74.519942 
L 308.238433 71.006913 
L 309.933141 71.006913 
L 309.933141 67.493883 
L 310.825141 67.493883 
L 310.825141 63.980853 
L 311.416857 63.980853 
L 311.416857 60.467824 
L 313.555565 60.467824 
L 313.555565 56.954794 
L 320.370314 56.954794 
L 320.370314 53.441764 
L 320.525099 53.441764 
L 320.525099 49.928735 
L 321.399066 49.928735 
L 321.399066 46.415705 
L 326.175263 46.415705 
L 326.175263 42.902675 
L 331.192371 42.902675 
L 331.192371 39.389645 
L 332.375434 39.389645 
L 332.375434 35.876616 
L 333.166307 35.876616 
L 333.166307 32.363586 
L 333.486715 32.363586 
L 333.486715 28.850556 
L 334.717009 28.850556 
L 334.717009 25.337527 
L 336.285857 25.337527 
L 336.285857 21.824497 
L 339.416986 21.824497 
L 339.416986 18.311467 
L 341.771666 18.311467 
L 341.771666 14.798437 
L 341.771666 14.798437 
L 426.4825 14.798437 
L 426.4825 14.798437 
" style="fill:none;stroke:#f5deb3;stroke-linecap:square;stroke-width:1.5;"/>
   </g>
   <g id="line2d_10">
    <path clip-path="url(#p113b37172f)" style="fill:none;stroke:#f5deb3;stroke-linecap:square;stroke-width:1.5;"/>
   </g>
   <g id="line2d_11">
    <path clip-path="url(#p113b37172f)" style="fill:none;stroke:#f5deb3;stroke-linecap:square;stroke-width:1.5;"/>
   </g>
   <g id="line2d_12">
    <path clip-path="url(#p113b37172f)" d="M 254.626263 278.275665 
L 254.626263 274.762636 
L 298.151887 274.762636 
L 298.151887 271.249606 
L 300.350239 271.249606 
L 300.350239 267.736576 
L 351.466806 267.736576 
L 351.466806 264.223546 
L 359.313582 264.223546 
L 359.313582 260.710517 
L 380.859413 260.710517 
L 380.859413 257.197487 
L 392.9307 257.197487 
L 392.9307 253.684457 
L 396.490551 253.684457 
L 396.490551 250.171428 
L 399.017538 250.171428 
L 399.017538 246.658398 
L 414.966179 246.658398 
L 414.966179 243.145368 
L 414.966179 243.145368 
L 414.966179 243.145368 
L 426.4825 243.145368 
" style="fill:none;stroke:#f5deb3;stroke-linecap:square;stroke-width:1.5;"/>
   </g>
   <g id="line2d_13"/>
   <g id="line2d_14">
    <path clip-path="url(#p113b37172f)" d="M 278.795135 278.275665 
L 278.795135 274.762636 
L 283.675991 274.762636 
L 283.675991 271.249606 
L 293.841067 271.249606 
L 293.841067 267.736576 
L 295.067275 267.736576 
L 295.067275 264.223546 
L 299.356053 264.223546 
L 299.356053 260.710517 
L 299.657186 260.710517 
L 299.657186 257.197487 
L 302.038652 257.197487 
L 302.038652 253.684457 
L 304.927078 253.684457 
L 304.927078 250.171428 
L 305.696606 250.171428 
L 305.696606 246.658398 
L 309.801201 246.658398 
L 309.801201 243.145368 
L 310.705629 243.145368 
L 310.705629 239.632338 
L 311.98128 239.632338 
L 311.98128 236.119309 
L 312.859501 236.119309 
L 312.859501 232.606279 
L 316.778229 232.606279 
L 316.778229 229.093249 
L 319.894805 229.093249 
L 319.894805 225.58022 
L 320.320925 225.58022 
L 320.320925 222.06719 
L 321.45385 222.06719 
L 321.45385 218.55416 
L 321.936459 218.55416 
L 321.936459 215.041131 
L 329.314433 215.041131 
L 329.314433 211.528101 
L 330.233378 211.528101 
L 330.233378 208.015071 
L 333.901476 208.015071 
L 333.901476 204.502041 
L 336.629444 204.502041 
L 336.629444 200.989012 
L 337.15653 200.989012 
L 337.15653 197.475982 
L 339.023247 197.475982 
L 339.023247 193.962952 
L 341.062101 193.962952 
L 341.062101 190.449923 
L 342.567016 190.449923 
L 342.567016 186.936893 
L 343.446039 186.936893 
L 343.446039 183.423863 
L 346.00356 183.423863 
L 346.00356 179.910834 
L 346.688162 179.910834 
L 346.688162 176.397804 
L 353.699077 176.397804 
L 353.699077 172.884774 
L 355.038588 172.884774 
L 355.038588 169.371744 
L 356.920755 169.371744 
L 356.920755 165.858715 
L 369.040318 165.858715 
L 369.040318 162.345685 
L 381.78748 162.345685 
L 381.78748 158.832655 
L 383.911843 158.832655 
L 383.911843 155.319626 
L 388.124599 155.319626 
L 388.124599 151.806596 
L 392.444896 151.806596 
L 392.444896 148.293566 
L 399.544398 148.293566 
L 399.544398 144.780537 
L 400.023898 144.780537 
L 400.023898 141.267507 
L 400.023898 141.267507 
L 400.023898 141.267507 
L 426.4825 141.267507 
" style="fill:none;stroke:#f5deb3;stroke-linecap:square;stroke-width:1.5;"/>
   </g>
   <g id="line2d_15"/>
   <g id="line2d_16"/>
   <g id="line2d_17">
    <path clip-path="url(#p113b37172f)" d="M 338.218376 278.275665 
L 338.218376 274.762636 
L 339.391981 274.762636 
L 339.391981 271.249606 
L 340.451886 271.249606 
L 340.451886 267.736576 
L 340.862506 267.736576 
L 340.862506 264.223546 
L 342.616626 264.223546 
L 342.616626 260.710517 
L 343.026167 260.710517 
L 343.026167 257.197487 
L 343.165414 257.197487 
L 343.165414 253.684457 
L 343.401285 253.684457 
L 343.401285 250.171428 
L 344.033864 250.171428 
L 344.077843 243.145368 
L 344.828192 243.145368 
L 344.881966 229.093249 
L 346.034803 229.093249 
L 346.072953 222.06719 
L 346.269994 222.06719 
L 346.287228 215.041131 
L 346.592615 215.041131 
L 346.592615 211.528101 
L 346.803845 211.528101 
L 346.803845 208.015071 
L 347.178962 208.015071 
L 347.178962 204.502041 
L 347.426898 204.502041 
L 347.426898 200.989012 
L 347.848491 200.989012 
L 347.848491 197.475982 
L 348.121391 197.475982 
L 348.121391 193.962952 
L 348.947175 193.962952 
L 348.947175 190.449923 
L 349.138769 190.449923 
L 349.138769 186.936893 
L 349.316681 186.936893 
L 349.316681 183.423863 
L 349.443227 183.423863 
L 349.490568 176.397804 
L 349.669901 176.397804 
L 349.720081 169.371744 
L 349.863962 169.371744 
L 349.863962 165.858715 
L 350.27369 165.858715 
L 350.27369 162.345685 
L 350.47069 162.345685 
L 350.47069 158.832655 
L 351.016046 158.832655 
L 351.016046 155.319626 
L 351.460832 155.319626 
L 351.460832 151.806596 
L 351.592019 151.806596 
L 351.654464 144.780537 
L 352.532064 144.780537 
L 352.532064 141.267507 
L 353.218571 141.267507 
L 353.218571 137.754477 
L 353.380394 137.754477 
L 353.380394 134.241447 
L 353.704692 134.241447 
L 353.704692 130.728418 
L 354.685111 130.728418 
L 354.685111 127.215388 
L 356.864199 127.215388 
L 356.864199 123.702358 
L 357.288775 123.702358 
L 357.288775 120.189329 
L 360.533473 120.189329 
L 360.547419 113.163269 
L 362.389052 113.163269 
L 362.389052 109.650239 
L 363.796889 109.650239 
L 363.796889 106.13721 
L 364.114144 106.13721 
L 364.145717 99.11115 
L 365.090576 99.11115 
L 365.090576 95.598121 
L 365.605482 95.598121 
L 365.605482 92.085091 
L 366.170907 92.085091 
L 366.182842 85.059032 
L 366.527253 85.059032 
L 366.527253 81.546002 
L 366.64526 81.546002 
L 366.64526 78.032972 
L 367.161903 78.032972 
L 367.161903 74.519942 
L 369.36963 74.519942 
L 369.36963 71.006913 
L 369.509593 71.006913 
L 369.509593 67.493883 
L 369.764494 67.493883 
L 369.764494 63.980853 
L 369.928057 63.980853 
L 369.928057 60.467824 
L 371.153449 60.467824 
L 371.153449 56.954794 
L 372.31018 56.954794 
L 372.31018 53.441764 
L 374.185051 53.441764 
L 374.288537 46.415705 
L 376.274379 46.415705 
L 376.274379 42.902675 
L 378.812429 42.902675 
L 378.812429 39.389645 
L 380.730571 39.389645 
L 380.730571 35.876616 
L 382.168006 35.876616 
L 382.168006 32.363586 
L 384.436924 32.363586 
L 384.436924 28.850556 
L 388.519472 28.850556 
L 388.519472 25.337527 
L 388.633035 25.337527 
L 388.633035 21.824497 
L 391.037294 21.824497 
L 391.037294 18.311467 
L 393.442865 18.311467 
L 393.442865 14.798437 
L 393.442865 14.798437 
L 426.4825 14.798437 
L 426.4825 14.798437 
" style="fill:none;stroke:#f5deb3;stroke-linecap:square;stroke-width:1.5;"/>
   </g>
   <g id="line2d_18">
    <path clip-path="url(#p113b37172f)" d="M 218.641668 278.275665 
L 218.641668 274.762636 
L 243.90786 274.762636 
L 243.90786 271.249606 
L 245.055294 271.249606 
L 245.055294 267.736576 
L 251.124117 267.736576 
L 251.124117 264.223546 
L 251.833451 264.223546 
L 251.833451 260.710517 
L 262.954297 260.710517 
L 262.954297 257.197487 
L 266.023526 257.197487 
L 266.023526 253.684457 
L 278.257523 253.684457 
L 278.257523 250.171428 
L 281.245108 250.171428 
L 281.245108 246.658398 
L 293.204561 246.658398 
L 293.204561 243.145368 
L 293.66456 243.145368 
L 293.66456 239.632338 
L 299.026974 239.632338 
L 299.026974 236.119309 
L 302.34157 236.119309 
L 302.34157 232.606279 
L 303.763532 232.606279 
L 303.763532 229.093249 
L 303.90826 229.093249 
L 303.90826 225.58022 
L 303.997036 225.58022 
L 303.997036 222.06719 
L 307.981214 222.06719 
L 307.981214 218.55416 
L 308.640371 218.55416 
L 308.640371 215.041131 
L 309.134192 215.041131 
L 309.134192 211.528101 
L 309.230235 211.528101 
L 309.230235 208.015071 
L 309.716129 208.015071 
L 309.716129 204.502041 
L 310.260901 204.502041 
L 310.260901 200.989012 
L 314.138131 200.989012 
L 314.138131 197.475982 
L 317.912639 197.475982 
L 317.912639 193.962952 
L 318.063247 193.962952 
L 318.063247 190.449923 
L 321.103173 190.449923 
L 321.103173 186.936893 
L 322.352693 186.936893 
L 322.352693 183.423863 
L 323.379296 183.423863 
L 323.379296 179.910834 
L 334.397783 179.910834 
L 334.397783 176.397804 
L 337.985088 176.397804 
L 337.985088 172.884774 
L 349.98239 172.884774 
L 349.98239 169.371744 
L 353.473751 169.371744 
L 353.473751 165.858715 
L 355.857243 165.858715 
L 355.857243 162.345685 
L 360.725914 162.345685 
L 360.725914 158.832655 
L 364.601497 158.832655 
L 364.601497 155.319626 
L 365.79695 155.319626 
L 365.79695 151.806596 
L 367.569973 151.806596 
L 367.569973 148.293566 
L 371.729611 148.293566 
L 371.729611 144.780537 
L 380.407118 144.780537 
L 380.407118 141.267507 
L 392.305994 141.267507 
L 392.305994 137.754477 
L 395.363424 137.754477 
L 395.363424 134.241447 
L 400.66476 134.241447 
L 400.66476 130.728418 
L 401.426175 130.728418 
L 401.426175 127.215388 
L 401.797614 127.215388 
L 401.797614 123.702358 
L 417.257453 123.702358 
L 417.257453 120.189329 
L 417.257453 120.189329 
L 417.257453 120.189329 
L 426.4825 120.189329 
" style="fill:none;stroke:#f5deb3;stroke-linecap:square;stroke-width:1.5;"/>
   </g>
   <g id="line2d_19">
    <path clip-path="url(#p113b37172f)" style="fill:none;stroke:#f5deb3;stroke-linecap:square;stroke-width:1.5;"/>
   </g>
   <g id="line2d_20">
    <path clip-path="url(#p113b37172f)" d="M 231.925714 278.275665 
L 231.925714 274.762636 
L 235.917726 274.762636 
L 235.917726 271.249606 
L 239.049232 271.249606 
L 239.049232 267.736576 
L 239.775207 267.736576 
L 239.775207 264.223546 
L 241.247674 264.223546 
L 241.247674 257.197487 
L 241.497752 257.197487 
L 241.497752 253.684457 
L 242.115489 253.684457 
L 242.115489 250.171428 
L 242.420448 250.171428 
L 242.420448 246.658398 
L 243.673943 246.658398 
L 243.732564 239.632338 
L 244.657816 239.632338 
L 244.657816 236.119309 
L 245.39255 236.119309 
L 245.39255 232.606279 
L 247.721754 232.606279 
L 247.721754 229.093249 
L 248.500247 229.093249 
L 248.500247 222.06719 
L 250.303035 222.06719 
L 250.303035 218.55416 
L 251.973665 218.55416 
L 251.973665 215.041131 
L 254.582886 215.041131 
L 254.582886 208.015071 
L 254.885442 208.015071 
L 254.885442 204.502041 
L 255.398299 204.502041 
L 255.398299 200.989012 
L 255.778228 200.989012 
L 255.778228 197.475982 
L 256.402715 197.475982 
L 256.402715 193.962952 
L 258.253264 193.962952 
L 258.253264 190.449923 
L 258.83681 190.449923 
L 258.83681 186.936893 
L 259.52487 186.936893 
L 259.52487 183.423863 
L 260.237241 183.423863 
L 260.237241 179.910834 
L 262.538616 179.910834 
L 262.642985 172.884774 
L 262.677708 172.884774 
L 262.677708 169.371744 
L 263.023116 169.371744 
L 263.023116 165.858715 
L 263.805265 165.858715 
L 263.838891 158.832655 
L 265.385087 158.832655 
L 265.385087 155.319626 
L 267.934018 155.319626 
L 267.934018 151.806596 
L 268.32213 151.806596 
L 268.32213 148.293566 
L 269.919596 148.293566 
L 270.004735 141.267507 
L 274.151582 141.267507 
L 274.151582 137.754477 
L 274.703476 137.754477 
L 274.703476 134.241447 
L 274.827742 134.241447 
L 274.827742 130.728418 
L 275.44275 130.728418 
L 275.44275 127.215388 
L 275.758472 127.215388 
L 275.830941 120.189329 
L 281.265882 120.189329 
L 281.265882 116.676299 
L 285.734244 116.676299 
L 285.734244 113.163269 
L 286.298862 113.163269 
L 286.298862 109.650239 
L 288.268378 109.650239 
L 288.268378 106.13721 
L 291.865976 106.13721 
L 291.865976 102.62418 
L 292.35848 102.62418 
L 292.35848 99.11115 
L 294.220571 99.11115 
L 294.220571 95.598121 
L 297.942873 95.598121 
L 297.942873 92.085091 
L 299.955835 92.085091 
L 299.955835 88.572061 
L 301.909727 88.572061 
L 301.909727 85.059032 
L 302.237 85.059032 
L 302.237 81.546002 
L 305.495119 81.546002 
L 305.495119 78.032972 
L 305.654281 78.032972 
L 305.654281 74.519942 
L 306.984723 74.519942 
L 306.984723 71.006913 
L 308.258144 71.006913 
L 308.258144 67.493883 
L 309.649822 67.493883 
L 309.649822 63.980853 
L 311.217665 63.980853 
L 311.217665 60.467824 
L 320.214865 60.467824 
L 320.214865 56.954794 
L 323.353334 56.954794 
L 323.353334 53.441764 
L 323.766519 53.441764 
L 323.766519 49.928735 
L 328.793024 49.928735 
L 328.793024 46.415705 
L 333.294811 46.415705 
L 333.294811 42.902675 
L 338.684743 42.902675 
L 338.684743 39.389645 
L 348.239121 39.389645 
L 348.239121 35.876616 
L 352.843898 35.876616 
L 352.843898 32.363586 
L 353.889507 32.363586 
L 353.889507 28.850556 
L 355.626366 28.850556 
L 355.626366 25.337527 
L 357.640502 25.337527 
L 357.640502 21.824497 
L 375.625994 21.824497 
L 375.625994 18.311467 
L 400.863679 18.311467 
L 400.863679 14.798437 
L 400.863679 14.798437 
L 426.4825 14.798437 
L 426.4825 14.798437 
" style="fill:none;stroke:#f5deb3;stroke-linecap:square;stroke-width:1.5;"/>
   </g>
   <g id="line2d_21"/>
   <g id="line2d_22">
    <path clip-path="url(#p113b37172f)" d="M 230.687331 278.275665 
L 230.687331 274.762636 
L 232.489439 274.762636 
L 232.489439 271.249606 
L 236.279353 271.249606 
L 236.279353 267.736576 
L 236.708589 267.736576 
L 236.708589 264.223546 
L 237.2731 264.223546 
L 237.2731 260.710517 
L 237.412863 260.710517 
L 237.412863 257.197487 
L 237.759927 257.197487 
L 237.759927 253.684457 
L 238.172058 253.684457 
L 238.240293 246.658398 
L 239.049232 246.658398 
L 239.049232 243.145368 
L 239.840488 243.145368 
L 239.840488 239.632338 
L 241.247674 239.632338 
L 241.247674 236.119309 
L 242.237781 236.119309 
L 242.237781 232.606279 
L 243.379405 232.606279 
L 243.379405 229.093249 
L 243.90786 229.093249 
L 243.90786 225.58022 
L 244.024254 225.58022 
L 244.024254 222.06719 
L 244.255926 222.06719 
L 244.255926 218.55416 
L 246.222193 218.55416 
L 246.222193 215.041131 
L 247.140027 215.041131 
L 247.140027 211.528101 
L 247.826526 211.528101 
L 247.826526 208.015071 
L 248.653956 208.015071 
L 248.653956 204.502041 
L 254.408854 204.502041 
L 254.408854 200.989012 
L 254.885442 200.989012 
L 254.885442 197.475982 
L 255.355837 197.475982 
L 255.355837 193.962952 
L 257.178573 193.962952 
L 257.178573 190.449923 
L 258.682115 190.449923 
L 258.682115 186.936893 
L 260.569848 186.936893 
L 260.569848 183.423863 
L 261.442143 183.423863 
L 261.442143 179.910834 
L 262.954297 179.910834 
L 262.954297 176.397804 
L 266.055154 176.397804 
L 266.055154 172.884774 
L 267.359187 172.884774 
L 267.359187 169.371744 
L 267.78363 169.371744 
L 267.78363 165.858715 
L 268.470302 165.858715 
L 268.470302 162.345685 
L 268.706124 162.345685 
L 268.706124 158.832655 
L 269.976378 158.832655 
L 269.976378 155.319626 
L 270.762113 155.319626 
L 270.762113 151.806596 
L 273.410987 151.806596 
L 273.410987 148.293566 
L 276.736547 148.293566 
L 276.736547 144.780537 
L 277.343371 144.780537 
L 277.343371 141.267507 
L 277.871826 141.267507 
L 277.871826 137.754477 
L 279.652074 137.754477 
L 279.652074 134.241447 
L 281.431646 134.241447 
L 281.431646 130.728418 
L 283.363765 130.728418 
L 283.363765 127.215388 
L 284.235127 127.215388 
L 284.235127 123.702358 
L 285.179325 123.702358 
L 285.179325 120.189329 
L 286.226501 120.189329 
L 286.298862 113.163269 
L 286.353037 113.163269 
L 286.353037 109.650239 
L 287.173739 109.650239 
L 287.173739 106.13721 
L 287.751247 106.13721 
L 287.751247 102.62418 
L 288.439126 102.62418 
L 288.439126 99.11115 
L 291.49215 99.11115 
L 291.507803 92.085091 
L 293.708768 92.085091 
L 293.708768 88.572061 
L 294.78247 88.572061 
L 294.78247 85.059032 
L 295.194709 85.059032 
L 295.194709 81.546002 
L 297.348467 81.546002 
L 297.348467 78.032972 
L 297.877308 78.032972 
L 297.877308 74.519942 
L 298.268929 74.519942 
L 298.268929 71.006913 
L 298.553449 71.006913 
L 298.553449 67.493883 
L 298.771784 67.493883 
L 298.771784 63.980853 
L 299.128548 63.980853 
L 299.179228 56.954794 
L 301.579468 56.954794 
L 301.579468 53.441764 
L 307.259225 53.441764 
L 307.259225 49.928735 
L 308.258144 49.928735 
L 308.258144 46.415705 
L 312.343931 46.415705 
L 312.343931 42.902675 
L 312.694271 42.902675 
L 312.694271 39.389645 
L 315.113179 39.389645 
L 315.113179 35.876616 
L 315.735564 35.876616 
L 315.735564 32.363586 
L 316.809361 32.363586 
L 316.809361 28.850556 
L 323.255807 28.850556 
L 323.255807 25.337527 
L 323.811426 25.337527 
L 323.811426 21.824497 
L 334.995806 21.824497 
L 334.995806 18.311467 
L 343.048784 18.311467 
L 343.048784 14.798437 
L 343.048784 14.798437 
L 426.4825 14.798437 
L 426.4825 14.798437 
" style="fill:none;stroke:#f5deb3;stroke-linecap:square;stroke-width:1.5;"/>
   </g>
   <g id="line2d_23">
    <path clip-path="url(#p113b37172f)" style="fill:none;stroke:#f5deb3;stroke-linecap:square;stroke-width:1.5;"/>
   </g>
   <g id="line2d_24">
    <path clip-path="url(#p113b37172f)" d="M 272.496505 278.275665 
L 272.496505 274.762636 
L 274.176852 274.762636 
L 274.176852 271.249606 
L 278.437616 271.249606 
L 278.437616 267.736576 
L 278.950446 267.736576 
L 279.038897 260.710517 
L 279.149157 260.710517 
L 279.149157 257.197487 
L 279.586871 257.197487 
L 279.586871 253.684457 
L 279.933271 253.684457 
L 279.933271 250.171428 
L 282.390468 250.171428 
L 282.410595 243.145368 
L 282.711165 243.145368 
L 282.711165 239.632338 
L 283.009261 239.632338 
L 283.009261 236.119309 
L 283.422513 236.119309 
L 283.422513 232.606279 
L 284.062524 232.606279 
L 284.062524 229.093249 
L 284.425947 229.093249 
L 284.425947 225.58022 
L 285.253808 225.58022 
L 285.253808 222.06719 
L 285.587096 222.06719 
L 285.587096 218.55416 
L 286.622707 218.55416 
L 286.622707 215.041131 
L 287.297013 215.041131 
L 287.349716 208.015071 
L 288.456156 208.015071 
L 288.456156 204.502041 
L 289.513245 204.502041 
L 289.513245 200.989012 
L 290.136242 200.989012 
L 290.136242 197.475982 
L 291.366678 197.475982 
L 291.366678 193.962952 
L 291.52345 193.962952 
L 291.601582 186.936893 
L 291.834971 186.936893 
L 291.834971 183.423863 
L 292.297282 183.423863 
L 292.38904 176.397804 
L 292.632597 176.397804 
L 292.693231 169.371744 
L 293.159733 169.371744 
L 293.159733 165.858715 
L 293.738209 165.858715 
L 293.738209 162.345685 
L 293.943633 162.345685 
L 293.943633 158.832655 
L 294.811051 158.832655 
L 294.811051 155.319626 
L 295.518352 155.319626 
L 295.518352 151.806596 
L 295.783544 151.806596 
L 295.839127 144.780537 
L 296.933234 144.780537 
L 296.933234 141.267507 
L 297.955972 141.267507 
L 297.955972 137.754477 
L 298.411469 137.754477 
L 298.411469 134.241447 
L 299.217192 134.241447 
L 299.217192 130.728418 
L 299.657186 130.728418 
L 299.657186 127.215388 
L 299.769469 127.215388 
L 299.769469 123.702358 
L 301.662315 123.702358 
L 301.662315 120.189329 
L 302.295132 120.189329 
L 302.295132 116.676299 
L 303.785836 116.676299 
L 303.785836 113.163269 
L 304.273067 113.163269 
L 304.273067 109.650239 
L 304.775529 109.650239 
L 304.775529 106.13721 
L 305.356611 106.13721 
L 305.356611 102.62418 
L 305.654281 102.62418 
L 305.654281 99.11115 
L 305.960022 99.11115 
L 305.960022 95.598121 
L 307.259225 95.598121 
L 307.259225 92.085091 
L 308.327046 92.085091 
L 308.356536 85.059032 
L 308.444861 85.059032 
L 308.444861 81.546002 
L 308.921997 81.546002 
L 308.921997 78.032972 
L 309.402473 78.032972 
L 309.402473 74.519942 
L 310.167558 74.519942 
L 310.167558 71.006913 
L 310.409752 71.006913 
L 310.409752 67.493883 
L 311.144959 67.493883 
L 311.235818 60.467824 
L 314.933371 60.467824 
L 314.933371 56.954794 
L 316.126128 56.954794 
L 316.126128 53.441764 
L 317.111501 53.441764 
L 317.111501 49.928735 
L 317.4723 49.928735 
L 317.4723 46.415705 
L 324.766821 46.415705 
L 324.766821 42.902675 
L 328.036508 42.902675 
L 328.036508 39.389645 
L 332.607476 39.389645 
L 332.607476 35.876616 
L 343.591108 35.876616 
L 343.591108 32.363586 
L 343.713407 32.363586 
L 343.713407 28.850556 
L 346.769859 28.850556 
L 346.769859 25.337527 
L 349.591356 25.337527 
L 349.591356 21.824497 
L 366.266277 21.824497 
L 366.266277 18.311467 
L 368.04535 18.311467 
L 368.04535 14.798437 
L 368.04535 14.798437 
L 426.4825 14.798437 
L 426.4825 14.798437 
" style="fill:none;stroke:#f5deb3;stroke-linecap:square;stroke-width:1.5;"/>
   </g>
   <g id="line2d_25"/>
   <g id="line2d_26">
    <path clip-path="url(#p113b37172f)" d="M 316.832693 278.275665 
L 316.832693 274.762636 
L 318.123315 274.762636 
L 318.123315 271.249606 
L 318.924627 271.249606 
L 319.027214 260.710517 
L 319.144101 260.710517 
L 319.246069 253.684457 
L 322.948512 253.684457 
L 322.974766 246.658398 
L 323.151489 246.658398 
L 323.151489 243.145368 
L 323.515296 243.145368 
L 323.605679 236.119309 
L 323.805014 236.119309 
L 323.875483 229.093249 
L 323.958588 229.093249 
L 323.958588 225.58022 
L 324.08607 225.58022 
L 324.136937 218.55416 
L 324.327056 218.55416 
L 324.409132 211.528101 
L 324.673035 211.528101 
L 324.673035 208.015071 
L 324.804268 208.015071 
L 324.804268 204.502041 
L 324.928811 204.502041 
L 324.928811 200.989012 
L 325.207477 200.989012 
L 325.244471 190.449923 
L 325.471768 190.449923 
L 325.471768 186.936893 
L 325.728064 186.936893 
L 325.807027 172.884774 
L 328.820948 172.884774 
L 328.860006 162.345685 
L 329.110093 162.345685 
L 329.165434 155.319626 
L 329.517627 155.319626 
L 329.517627 151.806596 
L 329.703344 151.806596 
L 329.757787 144.780537 
L 330.238747 144.780537 
L 330.238747 141.267507 
L 330.5541 141.267507 
L 330.5541 137.754477 
L 331.029916 137.754477 
L 331.029916 134.241447 
L 334.172157 134.241447 
L 334.172157 130.728418 
L 334.645785 130.728418 
L 334.655289 123.702358 
L 334.972262 123.702358 
L 334.972262 120.189329 
L 335.235081 120.189329 
L 335.235081 116.676299 
L 338.879769 116.676299 
L 338.879769 113.163269 
L 339.925813 113.163269 
L 339.929921 106.13721 
L 340.065212 106.13721 
L 340.093845 95.598121 
L 340.370824 95.598121 
L 340.370824 92.085091 
L 342.734655 92.085091 
L 342.734655 88.572061 
L 343.210461 88.572061 
L 343.210461 85.059032 
L 343.483292 85.059032 
L 343.561398 74.519942 
L 344.172948 74.519942 
L 344.172948 71.006913 
L 346.44539 71.006913 
L 346.531059 63.980853 
L 346.905612 63.980853 
L 346.905612 60.467824 
L 347.473615 60.467824 
L 347.486951 53.441764 
L 350.687989 53.441764 
L 350.687989 49.928735 
L 352.990224 49.928735 
L 352.990224 46.415705 
L 359.95466 46.415705 
L 359.95466 42.902675 
L 360.598508 42.902675 
L 360.698155 32.363586 
L 361.702339 32.363586 
L 361.702339 28.850556 
L 362.611433 28.850556 
L 362.611433 25.337527 
L 366.813735 25.337527 
L 366.813735 21.824497 
L 369.416951 21.824497 
L 369.416951 18.311467 
L 384.164445 18.311467 
L 384.164445 14.798437 
L 384.164445 14.798437 
L 426.4825 14.798437 
L 426.4825 14.798437 
" style="fill:none;stroke:#f5deb3;stroke-linecap:square;stroke-width:1.5;"/>
   </g>
   <g id="line2d_27"/>
   <g id="line2d_28">
    <path clip-path="url(#p113b37172f)" d="M 266.713042 278.275665 
L 266.713042 274.762636 
L 267.083679 274.762636 
L 267.083679 271.249606 
L 268.023953 271.249606 
L 268.023953 267.736576 
L 269.57702 267.736576 
L 269.57702 264.223546 
L 269.834255 264.223546 
L 269.834255 260.710517 
L 270.202619 260.710517 
L 270.202619 257.197487 
L 271.449534 257.197487 
L 271.449534 253.684457 
L 272.891258 253.684457 
L 272.891258 250.171428 
L 273.021892 250.171428 
L 273.021892 246.658398 
L 274.151582 246.658398 
L 274.151582 243.145368 
L 274.603756 243.145368 
L 274.603756 239.632338 
L 274.802923 239.632338 
L 274.802923 236.119309 
L 275.710078 236.119309 
L 275.710078 232.606279 
L 276.5241 232.606279 
L 276.5241 229.093249 
L 276.66587 229.093249 
L 276.66587 225.58022 
L 276.947755 225.58022 
L 276.947755 222.06719 
L 277.087878 222.06719 
L 277.087878 218.55416 
L 277.435832 218.55416 
L 277.435832 215.041131 
L 277.711807 215.041131 
L 277.711807 211.528101 
L 277.962948 211.528101 
L 277.962948 208.015071 
L 278.121863 208.015071 
L 278.121863 204.502041 
L 278.706085 204.502041 
L 278.706085 200.989012 
L 278.883965 200.989012 
L 278.883965 197.475982 
L 279.016804 197.475982 
L 279.016804 193.962952 
L 279.911718 193.962952 
L 279.911718 190.449923 
L 280.404222 190.449923 
L 280.404222 186.936893 
L 280.57397 186.936893 
L 280.57397 183.423863 
L 281.472968 183.423863 
L 281.472968 179.910834 
L 282.107507 179.910834 
L 282.107507 176.397804 
L 282.890317 176.397804 
L 282.890317 172.884774 
L 283.265639 172.884774 
L 283.265639 169.371744 
L 284.043295 169.371744 
L 284.043295 165.858715 
L 285.086006 165.858715 
L 285.086006 162.345685 
L 285.550215 162.345685 
L 285.550215 158.832655 
L 285.770938 158.832655 
L 285.770938 155.319626 
L 285.935602 155.319626 
L 285.935602 151.806596 
L 287.050043 151.806596 
L 287.050043 148.293566 
L 287.191375 148.293566 
L 287.191375 144.780537 
L 287.612089 144.780537 
L 287.612089 141.267507 
L 287.751247 141.267507 
L 287.751247 137.754477 
L 288.09682 137.754477 
L 288.09682 134.241447 
L 288.268378 134.241447 
L 288.268378 130.728418 
L 288.40504 130.728418 
L 288.40504 127.215388 
L 288.828816 127.215388 
L 288.828816 123.702358 
L 289.463601 123.702358 
L 289.463601 120.189329 
L 289.858857 120.189329 
L 289.858857 116.676299 
L 290.184972 116.676299 
L 290.282236 109.650239 
L 290.330771 109.650239 
L 290.346934 102.62418 
L 290.987633 102.62418 
L 290.987633 99.11115 
L 291.865976 99.11115 
L 291.865976 95.598121 
L 292.783992 95.598121 
L 292.783992 92.085091 
L 293.054918 92.085091 
L 293.054918 88.572061 
L 293.694038 88.572061 
L 293.694038 85.059032 
L 293.899712 85.059032 
L 293.899712 81.546002 
L 295.024696 81.546002 
L 295.024696 78.032972 
L 295.616281 78.032972 
L 295.616281 74.519942 
L 295.963878 74.519942 
L 295.963878 71.006913 
L 296.239573 71.006913 
L 296.239573 67.493883 
L 297.26847 67.493883 
L 297.26847 63.980853 
L 297.574169 63.980853 
L 297.574169 60.467824 
L 297.916661 60.467824 
L 297.916661 56.954794 
L 298.346747 56.954794 
L 298.346747 53.441764 
L 298.630659 53.441764 
L 298.630659 49.928735 
L 299.431572 49.928735 
L 299.431572 46.415705 
L 300.982119 46.415705 
L 300.982119 42.902675 
L 301.282025 42.902675 
L 301.282025 39.389645 
L 301.674135 39.389645 
L 301.674135 35.876616 
L 314.330255 35.876616 
L 314.330255 32.363586 
L 314.96613 32.363586 
L 314.96613 28.850556 
L 317.388179 28.850556 
L 317.388179 25.337527 
L 319.528616 25.337527 
L 319.528616 21.824497 
L 321.631328 21.824497 
L 321.631328 18.311467 
L 333.39827 18.311467 
L 333.39827 14.798437 
L 333.39827 14.798437 
L 426.4825 14.798437 
L 426.4825 14.798437 
" style="fill:none;stroke:#f5deb3;stroke-linecap:square;stroke-width:1.5;"/>
   </g>
   <g id="line2d_29">
    <path clip-path="url(#p113b37172f)" d="M 326.25925 278.275665 
L 326.25925 274.762636 
L 326.25925 274.762636 
L 326.25925 271.249606 
L 326.25925 271.249606 
L 326.25925 267.736576 
L 350.214999 267.736576 
L 350.214999 264.223546 
L 350.214999 264.223546 
L 350.214999 260.710517 
L 350.214999 260.710517 
L 350.214999 257.197487 
L 350.214999 257.197487 
L 350.214999 257.197487 
L 426.4825 257.197487 
" style="fill:none;stroke:#f5deb3;stroke-linecap:square;stroke-width:1.5;"/>
   </g>
   <g id="line2d_30"/>
   <g id="matplotlib.axis_1">
    <g id="xtick_1">
     <g id="line2d_31">
      <path clip-path="url(#p113b37172f)" d="M 69.3625 278.275665 
L 69.3625 12.163665 
" style="fill:none;stroke:#b0b0b0;stroke-linecap:square;stroke-width:0.8;"/>
     </g>
     <g id="line2d_32">
      <defs>
       <path d="M 0 0 
L 0 3.5 
" id="ma6ddb954a4" style="stroke:#000000;stroke-width:0.8;"/>
      </defs>
      <g>
       <use style="stroke:#000000;stroke-width:0.8;" x="69.3625" xlink:href="#ma6ddb954a4" y="278.275665"/>
      </g>
     </g>
     <g id="text_1">
      <!-- 0 -->
      <defs>
       <path d="M 31.78125 66.40625 
Q 24.171875 66.40625 20.328125 58.90625 
Q 16.5 51.421875 16.5 36.375 
Q 16.5 21.390625 20.328125 13.890625 
Q 24.171875 6.390625 31.78125 6.390625 
Q 39.453125 6.390625 43.28125 13.890625 
Q 47.125 21.390625 47.125 36.375 
Q 47.125 51.421875 43.28125 58.90625 
Q 39.453125 66.40625 31.78125 66.40625 
M 31.78125 74.21875 
Q 44.046875 74.21875 50.515625 64.515625 
Q 56.984375 54.828125 56.984375 36.375 
Q 56.984375 17.96875 50.515625 8.265625 
Q 44.046875 -1.421875 31.78125 -1.421875 
Q 19.53125 -1.421875 13.0625 8.265625 
Q 6.59375 17.96875 6.59375 36.375 
Q 6.59375 54.828125 13.0625 64.515625 
Q 19.53125 74.21875 31.78125 74.21875 
" id="DejaVuSans-30"/>
      </defs>
      <g transform="translate(63 300.47254)scale(0.2 -0.2)">
       <use xlink:href="#DejaVuSans-30"/>
      </g>
     </g>
    </g>
    <g id="xtick_2">
     <g id="line2d_33">
      <path clip-path="url(#p113b37172f)" d="M 236.062811 278.275665 
L 236.062811 12.163665 
" style="fill:none;stroke:#b0b0b0;stroke-linecap:square;stroke-width:0.8;"/>
     </g>
     <g id="line2d_34">
      <g>
       <use style="stroke:#000000;stroke-width:0.8;" x="236.062811" xlink:href="#ma6ddb954a4" y="278.275665"/>
      </g>
     </g>
     <g id="text_2">
      <!-- 2 -->
      <defs>
       <path d="M 19.1875 8.296875 
L 53.609375 8.296875 
L 53.609375 0 
L 7.328125 0 
L 7.328125 8.296875 
Q 12.9375 14.109375 22.625 23.890625 
Q 32.328125 33.6875 34.8125 36.53125 
Q 39.546875 41.84375 41.421875 45.53125 
Q 43.3125 49.21875 43.3125 52.78125 
Q 43.3125 58.59375 39.234375 62.25 
Q 35.15625 65.921875 28.609375 65.921875 
Q 23.96875 65.921875 18.8125 64.3125 
Q 13.671875 62.703125 7.8125 59.421875 
L 7.8125 69.390625 
Q 13.765625 71.78125 18.9375 73 
Q 24.125 74.21875 28.421875 74.21875 
Q 39.75 74.21875 46.484375 68.546875 
Q 53.21875 62.890625 53.21875 53.421875 
Q 53.21875 48.921875 51.53125 44.890625 
Q 49.859375 40.875 45.40625 35.40625 
Q 44.1875 33.984375 37.640625 27.21875 
Q 31.109375 20.453125 19.1875 8.296875 
" id="DejaVuSans-32"/>
      </defs>
      <g transform="translate(229.700311 300.47254)scale(0.2 -0.2)">
       <use xlink:href="#DejaVuSans-32"/>
      </g>
     </g>
    </g>
    <g id="xtick_3">
     <g id="line2d_35">
      <path clip-path="url(#p113b37172f)" d="M 402.763121 278.275665 
L 402.763121 12.163665 
" style="fill:none;stroke:#b0b0b0;stroke-linecap:square;stroke-width:0.8;"/>
     </g>
     <g id="line2d_36">
      <g>
       <use style="stroke:#000000;stroke-width:0.8;" x="402.763121" xlink:href="#ma6ddb954a4" y="278.275665"/>
      </g>
     </g>
     <g id="text_3">
      <!-- 4 -->
      <defs>
       <path d="M 37.796875 64.3125 
L 12.890625 25.390625 
L 37.796875 25.390625 
z
M 35.203125 72.90625 
L 47.609375 72.90625 
L 47.609375 25.390625 
L 58.015625 25.390625 
L 58.015625 17.1875 
L 47.609375 17.1875 
L 47.609375 0 
L 37.796875 0 
L 37.796875 17.1875 
L 4.890625 17.1875 
L 4.890625 26.703125 
z
" id="DejaVuSans-34"/>
      </defs>
      <g transform="translate(396.400621 300.47254)scale(0.2 -0.2)">
       <use xlink:href="#DejaVuSans-34"/>
      </g>
     </g>
    </g>
    <g id="xtick_4">
     <g id="line2d_37">
      <defs>
       <path d="M 0 0 
L 0 2 
" id="m86a8f5a041" style="stroke:#000000;stroke-width:0.6;"/>
      </defs>
      <g>
       <use style="stroke:#000000;stroke-width:0.6;" x="94.453397" xlink:href="#m86a8f5a041" y="278.275665"/>
      </g>
     </g>
    </g>
    <g id="xtick_5">
     <g id="line2d_38">
      <g>
       <use style="stroke:#000000;stroke-width:0.6;" x="109.130631" xlink:href="#m86a8f5a041" y="278.275665"/>
      </g>
     </g>
    </g>
    <g id="xtick_6">
     <g id="line2d_39">
      <g>
       <use style="stroke:#000000;stroke-width:0.6;" x="119.544294" xlink:href="#m86a8f5a041" y="278.275665"/>
      </g>
     </g>
    </g>
    <g id="xtick_7">
     <g id="line2d_40">
      <g>
       <use style="stroke:#000000;stroke-width:0.6;" x="127.621758" xlink:href="#m86a8f5a041" y="278.275665"/>
      </g>
     </g>
    </g>
    <g id="xtick_8">
     <g id="line2d_41">
      <g>
       <use style="stroke:#000000;stroke-width:0.6;" x="134.221528" xlink:href="#m86a8f5a041" y="278.275665"/>
      </g>
     </g>
    </g>
    <g id="xtick_9">
     <g id="line2d_42">
      <g>
       <use style="stroke:#000000;stroke-width:0.6;" x="139.801553" xlink:href="#m86a8f5a041" y="278.275665"/>
      </g>
     </g>
    </g>
    <g id="xtick_10">
     <g id="line2d_43">
      <g>
       <use style="stroke:#000000;stroke-width:0.6;" x="144.635191" xlink:href="#m86a8f5a041" y="278.275665"/>
      </g>
     </g>
    </g>
    <g id="xtick_11">
     <g id="line2d_44">
      <g>
       <use style="stroke:#000000;stroke-width:0.6;" x="148.898761" xlink:href="#m86a8f5a041" y="278.275665"/>
      </g>
     </g>
    </g>
    <g id="xtick_12">
     <g id="line2d_45">
      <g>
       <use style="stroke:#000000;stroke-width:0.6;" x="177.803552" xlink:href="#m86a8f5a041" y="278.275665"/>
      </g>
     </g>
    </g>
    <g id="xtick_13">
     <g id="line2d_46">
      <g>
       <use style="stroke:#000000;stroke-width:0.6;" x="192.480786" xlink:href="#m86a8f5a041" y="278.275665"/>
      </g>
     </g>
    </g>
    <g id="xtick_14">
     <g id="line2d_47">
      <g>
       <use style="stroke:#000000;stroke-width:0.6;" x="202.894449" xlink:href="#m86a8f5a041" y="278.275665"/>
      </g>
     </g>
    </g>
    <g id="xtick_15">
     <g id="line2d_48">
      <g>
       <use style="stroke:#000000;stroke-width:0.6;" x="210.971914" xlink:href="#m86a8f5a041" y="278.275665"/>
      </g>
     </g>
    </g>
    <g id="xtick_16">
     <g id="line2d_49">
      <g>
       <use style="stroke:#000000;stroke-width:0.6;" x="217.571683" xlink:href="#m86a8f5a041" y="278.275665"/>
      </g>
     </g>
    </g>
    <g id="xtick_17">
     <g id="line2d_50">
      <g>
       <use style="stroke:#000000;stroke-width:0.6;" x="223.151708" xlink:href="#m86a8f5a041" y="278.275665"/>
      </g>
     </g>
    </g>
    <g id="xtick_18">
     <g id="line2d_51">
      <g>
       <use style="stroke:#000000;stroke-width:0.6;" x="227.985346" xlink:href="#m86a8f5a041" y="278.275665"/>
      </g>
     </g>
    </g>
    <g id="xtick_19">
     <g id="line2d_52">
      <g>
       <use style="stroke:#000000;stroke-width:0.6;" x="232.248917" xlink:href="#m86a8f5a041" y="278.275665"/>
      </g>
     </g>
    </g>
    <g id="xtick_20">
     <g id="line2d_53">
      <g>
       <use style="stroke:#000000;stroke-width:0.6;" x="261.153708" xlink:href="#m86a8f5a041" y="278.275665"/>
      </g>
     </g>
    </g>
    <g id="xtick_21">
     <g id="line2d_54">
      <g>
       <use style="stroke:#000000;stroke-width:0.6;" x="275.830941" xlink:href="#m86a8f5a041" y="278.275665"/>
      </g>
     </g>
    </g>
    <g id="xtick_22">
     <g id="line2d_55">
      <g>
       <use style="stroke:#000000;stroke-width:0.6;" x="286.244604" xlink:href="#m86a8f5a041" y="278.275665"/>
      </g>
     </g>
    </g>
    <g id="xtick_23">
     <g id="line2d_56">
      <g>
       <use style="stroke:#000000;stroke-width:0.6;" x="294.322069" xlink:href="#m86a8f5a041" y="278.275665"/>
      </g>
     </g>
    </g>
    <g id="xtick_24">
     <g id="line2d_57">
      <g>
       <use style="stroke:#000000;stroke-width:0.6;" x="300.921838" xlink:href="#m86a8f5a041" y="278.275665"/>
      </g>
     </g>
    </g>
    <g id="xtick_25">
     <g id="line2d_58">
      <g>
       <use style="stroke:#000000;stroke-width:0.6;" x="306.501864" xlink:href="#m86a8f5a041" y="278.275665"/>
      </g>
     </g>
    </g>
    <g id="xtick_26">
     <g id="line2d_59">
      <g>
       <use style="stroke:#000000;stroke-width:0.6;" x="311.335501" xlink:href="#m86a8f5a041" y="278.275665"/>
      </g>
     </g>
    </g>
    <g id="xtick_27">
     <g id="line2d_60">
      <g>
       <use style="stroke:#000000;stroke-width:0.6;" x="315.599072" xlink:href="#m86a8f5a041" y="278.275665"/>
      </g>
     </g>
    </g>
    <g id="xtick_28">
     <g id="line2d_61">
      <g>
       <use style="stroke:#000000;stroke-width:0.6;" x="344.503863" xlink:href="#m86a8f5a041" y="278.275665"/>
      </g>
     </g>
    </g>
    <g id="xtick_29">
     <g id="line2d_62">
      <g>
       <use style="stroke:#000000;stroke-width:0.6;" x="359.181097" xlink:href="#m86a8f5a041" y="278.275665"/>
      </g>
     </g>
    </g>
    <g id="xtick_30">
     <g id="line2d_63">
      <g>
       <use style="stroke:#000000;stroke-width:0.6;" x="369.59476" xlink:href="#m86a8f5a041" y="278.275665"/>
      </g>
     </g>
    </g>
    <g id="xtick_31">
     <g id="line2d_64">
      <g>
       <use style="stroke:#000000;stroke-width:0.6;" x="377.672224" xlink:href="#m86a8f5a041" y="278.275665"/>
      </g>
     </g>
    </g>
    <g id="xtick_32">
     <g id="line2d_65">
      <g>
       <use style="stroke:#000000;stroke-width:0.6;" x="384.271994" xlink:href="#m86a8f5a041" y="278.275665"/>
      </g>
     </g>
    </g>
    <g id="xtick_33">
     <g id="line2d_66">
      <g>
       <use style="stroke:#000000;stroke-width:0.6;" x="389.852019" xlink:href="#m86a8f5a041" y="278.275665"/>
      </g>
     </g>
    </g>
    <g id="xtick_34">
     <g id="line2d_67">
      <g>
       <use style="stroke:#000000;stroke-width:0.6;" x="394.685657" xlink:href="#m86a8f5a041" y="278.275665"/>
      </g>
     </g>
    </g>
    <g id="xtick_35">
     <g id="line2d_68">
      <g>
       <use style="stroke:#000000;stroke-width:0.6;" x="398.949227" xlink:href="#m86a8f5a041" y="278.275665"/>
      </g>
     </g>
    </g>
    <g id="text_4">
     <!-- log10 of FEvals / DIM -->
     <defs>
      <path d="M 9.421875 75.984375 
L 18.40625 75.984375 
L 18.40625 0 
L 9.421875 0 
z
" id="DejaVuSans-6c"/>
      <path d="M 30.609375 48.390625 
Q 23.390625 48.390625 19.1875 42.75 
Q 14.984375 37.109375 14.984375 27.296875 
Q 14.984375 17.484375 19.15625 11.84375 
Q 23.34375 6.203125 30.609375 6.203125 
Q 37.796875 6.203125 41.984375 11.859375 
Q 46.1875 17.53125 46.1875 27.296875 
Q 46.1875 37.015625 41.984375 42.703125 
Q 37.796875 48.390625 30.609375 48.390625 
M 30.609375 56 
Q 42.328125 56 49.015625 48.375 
Q 55.71875 40.765625 55.71875 27.296875 
Q 55.71875 13.875 49.015625 6.21875 
Q 42.328125 -1.421875 30.609375 -1.421875 
Q 18.84375 -1.421875 12.171875 6.21875 
Q 5.515625 13.875 5.515625 27.296875 
Q 5.515625 40.765625 12.171875 48.375 
Q 18.84375 56 30.609375 56 
" id="DejaVuSans-6f"/>
      <path d="M 45.40625 27.984375 
Q 45.40625 37.75 41.375 43.109375 
Q 37.359375 48.484375 30.078125 48.484375 
Q 22.859375 48.484375 18.828125 43.109375 
Q 14.796875 37.75 14.796875 27.984375 
Q 14.796875 18.265625 18.828125 12.890625 
Q 22.859375 7.515625 30.078125 7.515625 
Q 37.359375 7.515625 41.375 12.890625 
Q 45.40625 18.265625 45.40625 27.984375 
M 54.390625 6.78125 
Q 54.390625 -7.171875 48.1875 -13.984375 
Q 42 -20.796875 29.203125 -20.796875 
Q 24.46875 -20.796875 20.265625 -20.09375 
Q 16.0625 -19.390625 12.109375 -17.921875 
L 12.109375 -9.1875 
Q 16.0625 -11.328125 19.921875 -12.34375 
Q 23.78125 -13.375 27.78125 -13.375 
Q 36.625 -13.375 41.015625 -8.765625 
Q 45.40625 -4.15625 45.40625 5.171875 
L 45.40625 9.625 
Q 42.625 4.78125 38.28125 2.390625 
Q 33.9375 0 27.875 0 
Q 17.828125 0 11.671875 7.65625 
Q 5.515625 15.328125 5.515625 27.984375 
Q 5.515625 40.671875 11.671875 48.328125 
Q 17.828125 56 27.875 56 
Q 33.9375 56 38.28125 53.609375 
Q 42.625 51.21875 45.40625 46.390625 
L 45.40625 54.6875 
L 54.390625 54.6875 
z
" id="DejaVuSans-67"/>
      <path d="M 12.40625 8.296875 
L 28.515625 8.296875 
L 28.515625 63.921875 
L 10.984375 60.40625 
L 10.984375 69.390625 
L 28.421875 72.90625 
L 38.28125 72.90625 
L 38.28125 8.296875 
L 54.390625 8.296875 
L 54.390625 0 
L 12.40625 0 
z
" id="DejaVuSans-31"/>
      <path id="DejaVuSans-20"/>
      <path d="M 37.109375 75.984375 
L 37.109375 68.5 
L 28.515625 68.5 
Q 23.6875 68.5 21.796875 66.546875 
Q 19.921875 64.59375 19.921875 59.515625 
L 19.921875 54.6875 
L 34.71875 54.6875 
L 34.71875 47.703125 
L 19.921875 47.703125 
L 19.921875 0 
L 10.890625 0 
L 10.890625 47.703125 
L 2.296875 47.703125 
L 2.296875 54.6875 
L 10.890625 54.6875 
L 10.890625 58.5 
Q 10.890625 67.625 15.140625 71.796875 
Q 19.390625 75.984375 28.609375 75.984375 
z
" id="DejaVuSans-66"/>
      <path d="M 9.8125 72.90625 
L 51.703125 72.90625 
L 51.703125 64.59375 
L 19.671875 64.59375 
L 19.671875 43.109375 
L 48.578125 43.109375 
L 48.578125 34.8125 
L 19.671875 34.8125 
L 19.671875 0 
L 9.8125 0 
z
" id="DejaVuSans-46"/>
      <path d="M 9.8125 72.90625 
L 55.90625 72.90625 
L 55.90625 64.59375 
L 19.671875 64.59375 
L 19.671875 43.015625 
L 54.390625 43.015625 
L 54.390625 34.71875 
L 19.671875 34.71875 
L 19.671875 8.296875 
L 56.78125 8.296875 
L 56.78125 0 
L 9.8125 0 
z
" id="DejaVuSans-45"/>
      <path d="M 2.984375 54.6875 
L 12.5 54.6875 
L 29.59375 8.796875 
L 46.6875 54.6875 
L 56.203125 54.6875 
L 35.6875 0 
L 23.484375 0 
z
" id="DejaVuSans-76"/>
      <path d="M 34.28125 27.484375 
Q 23.390625 27.484375 19.1875 25 
Q 14.984375 22.515625 14.984375 16.5 
Q 14.984375 11.71875 18.140625 8.90625 
Q 21.296875 6.109375 26.703125 6.109375 
Q 34.1875 6.109375 38.703125 11.40625 
Q 43.21875 16.703125 43.21875 25.484375 
L 43.21875 27.484375 
z
M 52.203125 31.203125 
L 52.203125 0 
L 43.21875 0 
L 43.21875 8.296875 
Q 40.140625 3.328125 35.546875 0.953125 
Q 30.953125 -1.421875 24.3125 -1.421875 
Q 15.921875 -1.421875 10.953125 3.296875 
Q 6 8.015625 6 15.921875 
Q 6 25.140625 12.171875 29.828125 
Q 18.359375 34.515625 30.609375 34.515625 
L 43.21875 34.515625 
L 43.21875 35.40625 
Q 43.21875 41.609375 39.140625 45 
Q 35.0625 48.390625 27.6875 48.390625 
Q 23 48.390625 18.546875 47.265625 
Q 14.109375 46.140625 10.015625 43.890625 
L 10.015625 52.203125 
Q 14.9375 54.109375 19.578125 55.046875 
Q 24.21875 56 28.609375 56 
Q 40.484375 56 46.34375 49.84375 
Q 52.203125 43.703125 52.203125 31.203125 
" id="DejaVuSans-61"/>
      <path d="M 44.28125 53.078125 
L 44.28125 44.578125 
Q 40.484375 46.53125 36.375 47.5 
Q 32.28125 48.484375 27.875 48.484375 
Q 21.1875 48.484375 17.84375 46.4375 
Q 14.5 44.390625 14.5 40.28125 
Q 14.5 37.15625 16.890625 35.375 
Q 19.28125 33.59375 26.515625 31.984375 
L 29.59375 31.296875 
Q 39.15625 29.25 43.1875 25.515625 
Q 47.21875 21.78125 47.21875 15.09375 
Q 47.21875 7.46875 41.1875 3.015625 
Q 35.15625 -1.421875 24.609375 -1.421875 
Q 20.21875 -1.421875 15.453125 -0.5625 
Q 10.6875 0.296875 5.421875 2 
L 5.421875 11.28125 
Q 10.40625 8.6875 15.234375 7.390625 
Q 20.0625 6.109375 24.8125 6.109375 
Q 31.15625 6.109375 34.5625 8.28125 
Q 37.984375 10.453125 37.984375 14.40625 
Q 37.984375 18.0625 35.515625 20.015625 
Q 33.0625 21.96875 24.703125 23.78125 
L 21.578125 24.515625 
Q 13.234375 26.265625 9.515625 29.90625 
Q 5.8125 33.546875 5.8125 39.890625 
Q 5.8125 47.609375 11.28125 51.796875 
Q 16.75 56 26.8125 56 
Q 31.78125 56 36.171875 55.265625 
Q 40.578125 54.546875 44.28125 53.078125 
" id="DejaVuSans-73"/>
      <path d="M 25.390625 72.90625 
L 33.6875 72.90625 
L 8.296875 -9.28125 
L 0 -9.28125 
z
" id="DejaVuSans-2f"/>
      <path d="M 19.671875 64.796875 
L 19.671875 8.109375 
L 31.59375 8.109375 
Q 46.6875 8.109375 53.6875 14.9375 
Q 60.6875 21.78125 60.6875 36.53125 
Q 60.6875 51.171875 53.6875 57.984375 
Q 46.6875 64.796875 31.59375 64.796875 
z
M 9.8125 72.90625 
L 30.078125 72.90625 
Q 51.265625 72.90625 61.171875 64.09375 
Q 71.09375 55.28125 71.09375 36.53125 
Q 71.09375 17.671875 61.125 8.828125 
Q 51.171875 0 30.078125 0 
L 9.8125 0 
z
" id="DejaVuSans-44"/>
      <path d="M 9.8125 72.90625 
L 19.671875 72.90625 
L 19.671875 0 
L 9.8125 0 
z
" id="DejaVuSans-49"/>
      <path d="M 9.8125 72.90625 
L 24.515625 72.90625 
L 43.109375 23.296875 
L 61.8125 72.90625 
L 76.515625 72.90625 
L 76.515625 0 
L 66.890625 0 
L 66.890625 64.015625 
L 48.09375 14.015625 
L 38.1875 14.015625 
L 19.390625 64.015625 
L 19.390625 0 
L 9.8125 0 
z
" id="DejaVuSans-4d"/>
     </defs>
     <g transform="translate(142.849063 323.82879)scale(0.2 -0.2)">
      <use xlink:href="#DejaVuSans-6c"/>
      <use x="27.783203" xlink:href="#DejaVuSans-6f"/>
      <use x="88.964844" xlink:href="#DejaVuSans-67"/>
      <use x="152.441406" xlink:href="#DejaVuSans-31"/>
      <use x="216.064453" xlink:href="#DejaVuSans-30"/>
      <use x="279.6875" xlink:href="#DejaVuSans-20"/>
      <use x="311.474609" xlink:href="#DejaVuSans-6f"/>
      <use x="372.65625" xlink:href="#DejaVuSans-66"/>
      <use x="407.861328" xlink:href="#DejaVuSans-20"/>
      <use x="439.648438" xlink:href="#DejaVuSans-46"/>
      <use x="497.167969" xlink:href="#DejaVuSans-45"/>
      <use x="560.351562" xlink:href="#DejaVuSans-76"/>
      <use x="619.53125" xlink:href="#DejaVuSans-61"/>
      <use x="680.810547" xlink:href="#DejaVuSans-6c"/>
      <use x="708.59375" xlink:href="#DejaVuSans-73"/>
      <use x="760.693359" xlink:href="#DejaVuSans-20"/>
      <use x="792.480469" xlink:href="#DejaVuSans-2f"/>
      <use x="826.171875" xlink:href="#DejaVuSans-20"/>
      <use x="857.958984" xlink:href="#DejaVuSans-44"/>
      <use x="934.960938" xlink:href="#DejaVuSans-49"/>
      <use x="964.453125" xlink:href="#DejaVuSans-4d"/>
     </g>
    </g>
   </g>
   <g id="matplotlib.axis_2">
    <g id="ytick_1">
     <g id="line2d_69">
      <path clip-path="url(#p113b37172f)" d="M 69.3625 278.275665 
L 426.4825 278.275665 
" style="fill:none;stroke:#b0b0b0;stroke-linecap:square;stroke-width:0.8;"/>
     </g>
     <g id="line2d_70">
      <defs>
       <path d="M 0 0 
L -3.5 0 
" id="m7493532422" style="stroke:#000000;stroke-width:0.8;"/>
      </defs>
      <g>
       <use style="stroke:#000000;stroke-width:0.8;" x="69.3625" xlink:href="#m7493532422" y="278.275665"/>
      </g>
     </g>
     <g id="text_5">
      <!-- 0.0 -->
      <defs>
       <path d="M 10.6875 12.40625 
L 21 12.40625 
L 21 0 
L 10.6875 0 
z
" id="DejaVuSans-2e"/>
      </defs>
      <g transform="translate(30.55625 285.874103)scale(0.2 -0.2)">
       <use xlink:href="#DejaVuSans-30"/>
       <use x="63.623047" xlink:href="#DejaVuSans-2e"/>
       <use x="95.410156" xlink:href="#DejaVuSans-30"/>
      </g>
     </g>
    </g>
    <g id="ytick_2">
     <g id="line2d_71">
      <path clip-path="url(#p113b37172f)" d="M 69.3625 225.58022 
L 426.4825 225.58022 
" style="fill:none;stroke:#b0b0b0;stroke-linecap:square;stroke-width:0.8;"/>
     </g>
     <g id="line2d_72">
      <g>
       <use style="stroke:#000000;stroke-width:0.8;" x="69.3625" xlink:href="#m7493532422" y="225.58022"/>
      </g>
     </g>
     <g id="text_6">
      <!-- 0.2 -->
      <g transform="translate(30.55625 233.178657)scale(0.2 -0.2)">
       <use xlink:href="#DejaVuSans-30"/>
       <use x="63.623047" xlink:href="#DejaVuSans-2e"/>
       <use x="95.410156" xlink:href="#DejaVuSans-32"/>
      </g>
     </g>
    </g>
    <g id="ytick_3">
     <g id="line2d_73">
      <path clip-path="url(#p113b37172f)" d="M 69.3625 172.884774 
L 426.4825 172.884774 
" style="fill:none;stroke:#b0b0b0;stroke-linecap:square;stroke-width:0.8;"/>
     </g>
     <g id="line2d_74">
      <g>
       <use style="stroke:#000000;stroke-width:0.8;" x="69.3625" xlink:href="#m7493532422" y="172.884774"/>
      </g>
     </g>
     <g id="text_7">
      <!-- 0.4 -->
      <g transform="translate(30.55625 180.483212)scale(0.2 -0.2)">
       <use xlink:href="#DejaVuSans-30"/>
       <use x="63.623047" xlink:href="#DejaVuSans-2e"/>
       <use x="95.410156" xlink:href="#DejaVuSans-34"/>
      </g>
     </g>
    </g>
    <g id="ytick_4">
     <g id="line2d_75">
      <path clip-path="url(#p113b37172f)" d="M 69.3625 120.189329 
L 426.4825 120.189329 
" style="fill:none;stroke:#b0b0b0;stroke-linecap:square;stroke-width:0.8;"/>
     </g>
     <g id="line2d_76">
      <g>
       <use style="stroke:#000000;stroke-width:0.8;" x="69.3625" xlink:href="#m7493532422" y="120.189329"/>
      </g>
     </g>
     <g id="text_8">
      <!-- 0.6 -->
      <defs>
       <path d="M 33.015625 40.375 
Q 26.375 40.375 22.484375 35.828125 
Q 18.609375 31.296875 18.609375 23.390625 
Q 18.609375 15.53125 22.484375 10.953125 
Q 26.375 6.390625 33.015625 6.390625 
Q 39.65625 6.390625 43.53125 10.953125 
Q 47.40625 15.53125 47.40625 23.390625 
Q 47.40625 31.296875 43.53125 35.828125 
Q 39.65625 40.375 33.015625 40.375 
M 52.59375 71.296875 
L 52.59375 62.3125 
Q 48.875 64.0625 45.09375 64.984375 
Q 41.3125 65.921875 37.59375 65.921875 
Q 27.828125 65.921875 22.671875 59.328125 
Q 17.53125 52.734375 16.796875 39.40625 
Q 19.671875 43.65625 24.015625 45.921875 
Q 28.375 48.1875 33.59375 48.1875 
Q 44.578125 48.1875 50.953125 41.515625 
Q 57.328125 34.859375 57.328125 23.390625 
Q 57.328125 12.15625 50.6875 5.359375 
Q 44.046875 -1.421875 33.015625 -1.421875 
Q 20.359375 -1.421875 13.671875 8.265625 
Q 6.984375 17.96875 6.984375 36.375 
Q 6.984375 53.65625 15.1875 63.9375 
Q 23.390625 74.21875 37.203125 74.21875 
Q 40.921875 74.21875 44.703125 73.484375 
Q 48.484375 72.75 52.59375 71.296875 
" id="DejaVuSans-36"/>
      </defs>
      <g transform="translate(30.55625 127.787766)scale(0.2 -0.2)">
       <use xlink:href="#DejaVuSans-30"/>
       <use x="63.623047" xlink:href="#DejaVuSans-2e"/>
       <use x="95.410156" xlink:href="#DejaVuSans-36"/>
      </g>
     </g>
    </g>
    <g id="ytick_5">
     <g id="line2d_77">
      <path clip-path="url(#p113b37172f)" d="M 69.3625 67.493883 
L 426.4825 67.493883 
" style="fill:none;stroke:#b0b0b0;stroke-linecap:square;stroke-width:0.8;"/>
     </g>
     <g id="line2d_78">
      <g>
       <use style="stroke:#000000;stroke-width:0.8;" x="69.3625" xlink:href="#m7493532422" y="67.493883"/>
      </g>
     </g>
     <g id="text_9">
      <!-- 0.8 -->
      <defs>
       <path d="M 31.78125 34.625 
Q 24.75 34.625 20.71875 30.859375 
Q 16.703125 27.09375 16.703125 20.515625 
Q 16.703125 13.921875 20.71875 10.15625 
Q 24.75 6.390625 31.78125 6.390625 
Q 38.8125 6.390625 42.859375 10.171875 
Q 46.921875 13.96875 46.921875 20.515625 
Q 46.921875 27.09375 42.890625 30.859375 
Q 38.875 34.625 31.78125 34.625 
M 21.921875 38.8125 
Q 15.578125 40.375 12.03125 44.71875 
Q 8.5 49.078125 8.5 55.328125 
Q 8.5 64.0625 14.71875 69.140625 
Q 20.953125 74.21875 31.78125 74.21875 
Q 42.671875 74.21875 48.875 69.140625 
Q 55.078125 64.0625 55.078125 55.328125 
Q 55.078125 49.078125 51.53125 44.71875 
Q 48 40.375 41.703125 38.8125 
Q 48.828125 37.15625 52.796875 32.3125 
Q 56.78125 27.484375 56.78125 20.515625 
Q 56.78125 9.90625 50.3125 4.234375 
Q 43.84375 -1.421875 31.78125 -1.421875 
Q 19.734375 -1.421875 13.25 4.234375 
Q 6.78125 9.90625 6.78125 20.515625 
Q 6.78125 27.484375 10.78125 32.3125 
Q 14.796875 37.15625 21.921875 38.8125 
M 18.3125 54.390625 
Q 18.3125 48.734375 21.84375 45.5625 
Q 25.390625 42.390625 31.78125 42.390625 
Q 38.140625 42.390625 41.71875 45.5625 
Q 45.3125 48.734375 45.3125 54.390625 
Q 45.3125 60.0625 41.71875 63.234375 
Q 38.140625 66.40625 31.78125 66.40625 
Q 25.390625 66.40625 21.84375 63.234375 
Q 18.3125 60.0625 18.3125 54.390625 
" id="DejaVuSans-38"/>
      </defs>
      <g transform="translate(30.55625 75.092321)scale(0.2 -0.2)">
       <use xlink:href="#DejaVuSans-30"/>
       <use x="63.623047" xlink:href="#DejaVuSans-2e"/>
       <use x="95.410156" xlink:href="#DejaVuSans-38"/>
      </g>
     </g>
    </g>
    <g id="ytick_6">
     <g id="line2d_79">
      <path clip-path="url(#p113b37172f)" d="M 69.3625 14.798437 
L 426.4825 14.798437 
" style="fill:none;stroke:#b0b0b0;stroke-linecap:square;stroke-width:0.8;"/>
     </g>
     <g id="line2d_80">
      <g>
       <use style="stroke:#000000;stroke-width:0.8;" x="69.3625" xlink:href="#m7493532422" y="14.798437"/>
      </g>
     </g>
     <g id="text_10">
      <!-- 1.0 -->
      <g transform="translate(30.55625 22.396875)scale(0.2 -0.2)">
       <use xlink:href="#DejaVuSans-31"/>
       <use x="63.623047" xlink:href="#DejaVuSans-2e"/>
       <use x="95.410156" xlink:href="#DejaVuSans-30"/>
      </g>
     </g>
    </g>
    <g id="text_11">
     <!-- proportion of trials -->
     <defs>
      <path d="M 18.109375 8.203125 
L 18.109375 -20.796875 
L 9.078125 -20.796875 
L 9.078125 54.6875 
L 18.109375 54.6875 
L 18.109375 46.390625 
Q 20.953125 51.265625 25.265625 53.625 
Q 29.59375 56 35.59375 56 
Q 45.5625 56 51.78125 48.09375 
Q 58.015625 40.1875 58.015625 27.296875 
Q 58.015625 14.40625 51.78125 6.484375 
Q 45.5625 -1.421875 35.59375 -1.421875 
Q 29.59375 -1.421875 25.265625 0.953125 
Q 20.953125 3.328125 18.109375 8.203125 
M 48.6875 27.296875 
Q 48.6875 37.203125 44.609375 42.84375 
Q 40.53125 48.484375 33.40625 48.484375 
Q 26.265625 48.484375 22.1875 42.84375 
Q 18.109375 37.203125 18.109375 27.296875 
Q 18.109375 17.390625 22.1875 11.75 
Q 26.265625 6.109375 33.40625 6.109375 
Q 40.53125 6.109375 44.609375 11.75 
Q 48.6875 17.390625 48.6875 27.296875 
" id="DejaVuSans-70"/>
      <path d="M 41.109375 46.296875 
Q 39.59375 47.171875 37.8125 47.578125 
Q 36.03125 48 33.890625 48 
Q 26.265625 48 22.1875 43.046875 
Q 18.109375 38.09375 18.109375 28.8125 
L 18.109375 0 
L 9.078125 0 
L 9.078125 54.6875 
L 18.109375 54.6875 
L 18.109375 46.1875 
Q 20.953125 51.171875 25.484375 53.578125 
Q 30.03125 56 36.53125 56 
Q 37.453125 56 38.578125 55.875 
Q 39.703125 55.765625 41.0625 55.515625 
z
" id="DejaVuSans-72"/>
      <path d="M 18.3125 70.21875 
L 18.3125 54.6875 
L 36.8125 54.6875 
L 36.8125 47.703125 
L 18.3125 47.703125 
L 18.3125 18.015625 
Q 18.3125 11.328125 20.140625 9.421875 
Q 21.96875 7.515625 27.59375 7.515625 
L 36.8125 7.515625 
L 36.8125 0 
L 27.59375 0 
Q 17.1875 0 13.234375 3.875 
Q 9.28125 7.765625 9.28125 18.015625 
L 9.28125 47.703125 
L 2.6875 47.703125 
L 2.6875 54.6875 
L 9.28125 54.6875 
L 9.28125 70.21875 
z
" id="DejaVuSans-74"/>
      <path d="M 9.421875 54.6875 
L 18.40625 54.6875 
L 18.40625 0 
L 9.421875 0 
z
M 9.421875 75.984375 
L 18.40625 75.984375 
L 18.40625 64.59375 
L 9.421875 64.59375 
z
" id="DejaVuSans-69"/>
      <path d="M 54.890625 33.015625 
L 54.890625 0 
L 45.90625 0 
L 45.90625 32.71875 
Q 45.90625 40.484375 42.875 44.328125 
Q 39.84375 48.1875 33.796875 48.1875 
Q 26.515625 48.1875 22.3125 43.546875 
Q 18.109375 38.921875 18.109375 30.90625 
L 18.109375 0 
L 9.078125 0 
L 9.078125 54.6875 
L 18.109375 54.6875 
L 18.109375 46.1875 
Q 21.34375 51.125 25.703125 53.5625 
Q 30.078125 56 35.796875 56 
Q 45.21875 56 50.046875 50.171875 
Q 54.890625 44.34375 54.890625 33.015625 
" id="DejaVuSans-6e"/>
     </defs>
     <g transform="translate(22.396875 238.44779)rotate(-90)scale(0.2 -0.2)">
      <use xlink:href="#DejaVuSans-70"/>
      <use x="63.476562" xlink:href="#DejaVuSans-72"/>
      <use x="104.558594" xlink:href="#DejaVuSans-6f"/>
      <use x="165.740234" xlink:href="#DejaVuSans-70"/>
      <use x="229.216797" xlink:href="#DejaVuSans-6f"/>
      <use x="290.398438" xlink:href="#DejaVuSans-72"/>
      <use x="331.511719" xlink:href="#DejaVuSans-74"/>
      <use x="370.720703" xlink:href="#DejaVuSans-69"/>
      <use x="398.503906" xlink:href="#DejaVuSans-6f"/>
      <use x="459.685547" xlink:href="#DejaVuSans-6e"/>
      <use x="523.064453" xlink:href="#DejaVuSans-20"/>
      <use x="554.851562" xlink:href="#DejaVuSans-6f"/>
      <use x="616.033203" xlink:href="#DejaVuSans-66"/>
      <use x="651.238281" xlink:href="#DejaVuSans-20"/>
      <use x="683.025391" xlink:href="#DejaVuSans-74"/>
      <use x="722.234375" xlink:href="#DejaVuSans-72"/>
      <use x="763.347656" xlink:href="#DejaVuSans-69"/>
      <use x="791.130859" xlink:href="#DejaVuSans-61"/>
      <use x="852.410156" xlink:href="#DejaVuSans-6c"/>
      <use x="880.193359" xlink:href="#DejaVuSans-73"/>
     </g>
    </g>
   </g>
   <g id="line2d_81">
    <path clip-path="url(#p113b37172f)" d="M 11.103242 278.275665 
L 11.103242 276.51915 
L 11.103242 276.51915 
L 11.103242 274.762636 
L 11.103242 274.762636 
L 11.103242 273.006121 
L 11.103242 273.006121 
L 11.103242 271.249606 
L 11.103242 271.249606 
L 11.103242 269.493091 
L 11.103242 269.493091 
L 11.103242 267.736576 
L 50.871372 267.736576 
L 50.871372 265.980061 
L 97.903484 265.980061 
L 97.903484 264.223546 
L 162.209851 264.223546 
L 162.209851 262.467032 
L 198.060811 262.467032 
L 198.060811 260.710517 
L 222.208712 260.710517 
L 222.208712 258.954002 
L 253.166626 258.954002 
L 253.166626 257.197487 
L 379.489343 257.197487 
L 379.489343 255.440972 
L 419.729012 255.440972 
L 419.729012 253.684457 
L 419.729012 253.684457 
L 419.729012 253.684457 
L 426.4825 253.684457 
" style="fill:none;stroke:#000000;stroke-linecap:square;stroke-width:1.5;"/>
   </g>
   <g id="line2d_82"/>
   <g id="line2d_83"/>
   <g id="line2d_84"/>
   <g id="line2d_85"/>
   <g id="line2d_86">
    <path clip-path="url(#p113b37172f)" d="M 426.467082 278.275665 
L 426.467082 12.163665 
" style="fill:none;stroke:#000000;stroke-linecap:square;stroke-width:1.5;"/>
   </g>
   <g id="patch_3">
    <path d="M 69.3625 278.275665 
L 69.3625 12.163665 
" style="fill:none;stroke:#000000;stroke-linecap:square;stroke-linejoin:miter;stroke-width:0.8;"/>
   </g>
   <g id="patch_4">
    <path d="M 426.4825 278.275665 
L 426.4825 12.163665 
" style="fill:none;stroke:#000000;stroke-linecap:square;stroke-linejoin:miter;stroke-width:0.8;"/>
   </g>
   <g id="patch_5">
    <path d="M 69.3625 278.275665 
L 426.4825 278.275665 
" style="fill:none;stroke:#000000;stroke-linecap:square;stroke-linejoin:miter;stroke-width:0.8;"/>
   </g>
   <g id="patch_6">
    <path d="M 69.3625 12.163665 
L 426.4825 12.163665 
" style="fill:none;stroke:#000000;stroke-linecap:square;stroke-linejoin:miter;stroke-width:0.8;"/>
   </g>
   <g id="text_12">
    <!-- {f10-f14}, 5-D -->
    <defs>
     <path d="M 51.125 -9.28125 
L 51.125 -16.3125 
L 48.09375 -16.3125 
Q 35.9375 -16.3125 31.8125 -12.6875 
Q 27.6875 -9.078125 27.6875 1.703125 
L 27.6875 13.375 
Q 27.6875 20.75 25.046875 23.578125 
Q 22.40625 26.421875 15.484375 26.421875 
L 12.5 26.421875 
L 12.5 33.40625 
L 15.484375 33.40625 
Q 22.46875 33.40625 25.078125 36.203125 
Q 27.6875 39.015625 27.6875 46.296875 
L 27.6875 58.015625 
Q 27.6875 68.796875 31.8125 72.390625 
Q 35.9375 75.984375 48.09375 75.984375 
L 51.125 75.984375 
L 51.125 69 
L 47.796875 69 
Q 40.921875 69 38.8125 66.84375 
Q 36.71875 64.703125 36.71875 57.8125 
L 36.71875 45.703125 
Q 36.71875 38.03125 34.5 34.5625 
Q 32.28125 31.109375 26.90625 29.890625 
Q 32.328125 28.5625 34.515625 25.09375 
Q 36.71875 21.625 36.71875 14.015625 
L 36.71875 1.90625 
Q 36.71875 -4.984375 38.8125 -7.125 
Q 40.921875 -9.28125 47.796875 -9.28125 
z
" id="DejaVuSans-7b"/>
     <path d="M 4.890625 31.390625 
L 31.203125 31.390625 
L 31.203125 23.390625 
L 4.890625 23.390625 
z
" id="DejaVuSans-2d"/>
     <path d="M 12.5 -9.28125 
L 15.921875 -9.28125 
Q 22.75 -9.28125 24.828125 -7.171875 
Q 26.90625 -5.078125 26.90625 1.90625 
L 26.90625 14.015625 
Q 26.90625 21.625 29.09375 25.09375 
Q 31.296875 28.5625 36.71875 29.890625 
Q 31.296875 31.109375 29.09375 34.5625 
Q 26.90625 38.03125 26.90625 45.703125 
L 26.90625 57.8125 
Q 26.90625 64.75 24.828125 66.875 
Q 22.75 69 15.921875 69 
L 12.5 69 
L 12.5 75.984375 
L 15.578125 75.984375 
Q 27.734375 75.984375 31.8125 72.390625 
Q 35.890625 68.796875 35.890625 58.015625 
L 35.890625 46.296875 
Q 35.890625 39.015625 38.515625 36.203125 
Q 41.15625 33.40625 48.09375 33.40625 
L 51.125 33.40625 
L 51.125 26.421875 
L 48.09375 26.421875 
Q 41.15625 26.421875 38.515625 23.578125 
Q 35.890625 20.75 35.890625 13.375 
L 35.890625 1.703125 
Q 35.890625 -9.078125 31.8125 -12.6875 
Q 27.734375 -16.3125 15.578125 -16.3125 
L 12.5 -16.3125 
z
" id="DejaVuSans-7d"/>
     <path d="M 11.71875 12.40625 
L 22.015625 12.40625 
L 22.015625 4 
L 14.015625 -11.625 
L 7.71875 -11.625 
L 11.71875 4 
z
" id="DejaVuSans-2c"/>
     <path d="M 10.796875 72.90625 
L 49.515625 72.90625 
L 49.515625 64.59375 
L 19.828125 64.59375 
L 19.828125 46.734375 
Q 21.96875 47.46875 24.109375 47.828125 
Q 26.265625 48.1875 28.421875 48.1875 
Q 40.625 48.1875 47.75 41.5 
Q 54.890625 34.8125 54.890625 23.390625 
Q 54.890625 11.625 47.5625 5.09375 
Q 40.234375 -1.421875 26.90625 -1.421875 
Q 22.3125 -1.421875 17.546875 -0.640625 
Q 12.796875 0.140625 7.71875 1.703125 
L 7.71875 11.625 
Q 12.109375 9.234375 16.796875 8.0625 
Q 21.484375 6.890625 26.703125 6.890625 
Q 35.15625 6.890625 40.078125 11.328125 
Q 45.015625 15.765625 45.015625 23.390625 
Q 45.015625 31 40.078125 35.4375 
Q 35.15625 39.890625 26.703125 39.890625 
Q 22.75 39.890625 18.8125 39.015625 
Q 14.890625 38.140625 10.796875 36.28125 
z
" id="DejaVuSans-35"/>
    </defs>
    <g transform="translate(175.0725 32.68278)scale(0.2 -0.2)">
     <use xlink:href="#DejaVuSans-7b"/>
     <use x="63.623047" xlink:href="#DejaVuSans-66"/>
     <use x="98.828125" xlink:href="#DejaVuSans-31"/>
     <use x="162.451172" xlink:href="#DejaVuSans-30"/>
     <use x="226.074219" xlink:href="#DejaVuSans-2d"/>
     <use x="262.158203" xlink:href="#DejaVuSans-66"/>
     <use x="297.363281" xlink:href="#DejaVuSans-31"/>
     <use x="360.986328" xlink:href="#DejaVuSans-34"/>
     <use x="424.609375" xlink:href="#DejaVuSans-7d"/>
     <use x="488.232422" xlink:href="#DejaVuSans-2c"/>
     <use x="520.019531" xlink:href="#DejaVuSans-20"/>
     <use x="551.806641" xlink:href="#DejaVuSans-35"/>
     <use x="615.429688" xlink:href="#DejaVuSans-2d"/>
     <use x="651.513672" xlink:href="#DejaVuSans-44"/>
    </g>
   </g>
   <g id="text_13">
    <!-- absolute targets -->
    <defs>
     <path d="M 48.6875 27.296875 
Q 48.6875 37.203125 44.609375 42.84375 
Q 40.53125 48.484375 33.40625 48.484375 
Q 26.265625 48.484375 22.1875 42.84375 
Q 18.109375 37.203125 18.109375 27.296875 
Q 18.109375 17.390625 22.1875 11.75 
Q 26.265625 6.109375 33.40625 6.109375 
Q 40.53125 6.109375 44.609375 11.75 
Q 48.6875 17.390625 48.6875 27.296875 
M 18.109375 46.390625 
Q 20.953125 51.265625 25.265625 53.625 
Q 29.59375 56 35.59375 56 
Q 45.5625 56 51.78125 48.09375 
Q 58.015625 40.1875 58.015625 27.296875 
Q 58.015625 14.40625 51.78125 6.484375 
Q 45.5625 -1.421875 35.59375 -1.421875 
Q 29.59375 -1.421875 25.265625 0.953125 
Q 20.953125 3.328125 18.109375 8.203125 
L 18.109375 0 
L 9.078125 0 
L 9.078125 75.984375 
L 18.109375 75.984375 
z
" id="DejaVuSans-62"/>
     <path d="M 8.5 21.578125 
L 8.5 54.6875 
L 17.484375 54.6875 
L 17.484375 21.921875 
Q 17.484375 14.15625 20.5 10.265625 
Q 23.53125 6.390625 29.59375 6.390625 
Q 36.859375 6.390625 41.078125 11.03125 
Q 45.3125 15.671875 45.3125 23.6875 
L 45.3125 54.6875 
L 54.296875 54.6875 
L 54.296875 0 
L 45.3125 0 
L 45.3125 8.40625 
Q 42.046875 3.421875 37.71875 1 
Q 33.40625 -1.421875 27.6875 -1.421875 
Q 18.265625 -1.421875 13.375 4.4375 
Q 8.5 10.296875 8.5 21.578125 
M 31.109375 56 
z
" id="DejaVuSans-75"/>
     <path d="M 56.203125 29.59375 
L 56.203125 25.203125 
L 14.890625 25.203125 
Q 15.484375 15.921875 20.484375 11.0625 
Q 25.484375 6.203125 34.421875 6.203125 
Q 39.59375 6.203125 44.453125 7.46875 
Q 49.3125 8.734375 54.109375 11.28125 
L 54.109375 2.78125 
Q 49.265625 0.734375 44.1875 -0.34375 
Q 39.109375 -1.421875 33.890625 -1.421875 
Q 20.796875 -1.421875 13.15625 6.1875 
Q 5.515625 13.8125 5.515625 26.8125 
Q 5.515625 40.234375 12.765625 48.109375 
Q 20.015625 56 32.328125 56 
Q 43.359375 56 49.78125 48.890625 
Q 56.203125 41.796875 56.203125 29.59375 
M 47.21875 32.234375 
Q 47.125 39.59375 43.09375 43.984375 
Q 39.0625 48.390625 32.421875 48.390625 
Q 24.90625 48.390625 20.390625 44.140625 
Q 15.875 39.890625 15.1875 32.171875 
z
" id="DejaVuSans-65"/>
    </defs>
    <g transform="translate(69.3625 291.449527)scale(0.14 -0.14)">
     <use xlink:href="#DejaVuSans-61"/>
     <use x="61.279297" xlink:href="#DejaVuSans-62"/>
     <use x="124.755859" xlink:href="#DejaVuSans-73"/>
     <use x="176.855469" xlink:href="#DejaVuSans-6f"/>
     <use x="238.037109" xlink:href="#DejaVuSans-6c"/>
     <use x="265.820312" xlink:href="#DejaVuSans-75"/>
     <use x="329.199219" xlink:href="#DejaVuSans-74"/>
     <use x="368.408203" xlink:href="#DejaVuSans-65"/>
     <use x="429.931641" xlink:href="#DejaVuSans-20"/>
     <use x="461.71875" xlink:href="#DejaVuSans-74"/>
     <use x="500.927734" xlink:href="#DejaVuSans-61"/>
     <use x="562.207031" xlink:href="#DejaVuSans-72"/>
     <use x="603.304688" xlink:href="#DejaVuSans-67"/>
     <use x="666.78125" xlink:href="#DejaVuSans-65"/>
     <use x="728.304688" xlink:href="#DejaVuSans-74"/>
     <use x="767.513672" xlink:href="#DejaVuSans-73"/>
    </g>
   </g>
   <g id="text_14">
    <!-- v2.1 -->
    <g style="fill:#808080;" transform="translate(237.011563 273.534858)scale(0.1 -0.1)">
     <use xlink:href="#DejaVuSans-76"/>
     <use x="59.179688" xlink:href="#DejaVuSans-32"/>
     <use x="122.802734" xlink:href="#DejaVuSans-2e"/>
     <use x="154.589844" xlink:href="#DejaVuSans-31"/>
    </g>
   </g>
   <g id="legend_1">
    <g id="patch_7">
     <path d="M 83.3625 145.588665 
L 212.584375 145.588665 
Q 216.584375 145.588665 216.584375 141.588665 
L 216.584375 26.163665 
Q 216.584375 22.163665 212.584375 22.163665 
L 83.3625 22.163665 
Q 79.3625 22.163665 79.3625 26.163665 
L 79.3625 141.588665 
Q 79.3625 145.588665 83.3625 145.588665 
z
" style="fill:#ffffff;opacity:0.2;stroke:#cccccc;stroke-linejoin:miter;"/>
    </g>
    <g id="line2d_87">
     <path d="M 87.3625 38.36054 
L 127.3625 38.36054 
" style="fill:none;stroke:#000000;stroke-linecap:square;stroke-width:1.5;"/>
    </g>
    <g id="line2d_88"/>
    <g id="text_15">
     <!-- 1: 2/5 -->
     <defs>
      <path d="M 11.71875 12.40625 
L 22.015625 12.40625 
L 22.015625 0 
L 11.71875 0 
z
M 11.71875 51.703125 
L 22.015625 51.703125 
L 22.015625 39.3125 
L 11.71875 39.3125 
z
" id="DejaVuSans-3a"/>
     </defs>
     <g transform="translate(143.3625 45.36054)scale(0.2 -0.2)">
      <use xlink:href="#DejaVuSans-31"/>
      <use x="63.623047" xlink:href="#DejaVuSans-3a"/>
      <use x="97.314453" xlink:href="#DejaVuSans-20"/>
      <use x="129.101562" xlink:href="#DejaVuSans-32"/>
      <use x="192.724609" xlink:href="#DejaVuSans-2f"/>
      <use x="226.416016" xlink:href="#DejaVuSans-35"/>
     </g>
    </g>
    <g id="line2d_89">
     <path d="M 87.3625 67.71679 
L 127.3625 67.71679 
" style="fill:none;stroke:#00bfbf;stroke-linecap:square;stroke-width:1.5;"/>
    </g>
    <g id="line2d_90"/>
    <g id="text_16">
     <!-- -1: 0/5 -->
     <g transform="translate(143.3625 74.71679)scale(0.2 -0.2)">
      <use xlink:href="#DejaVuSans-2d"/>
      <use x="36.083984" xlink:href="#DejaVuSans-31"/>
      <use x="99.707031" xlink:href="#DejaVuSans-3a"/>
      <use x="133.398438" xlink:href="#DejaVuSans-20"/>
      <use x="165.185547" xlink:href="#DejaVuSans-30"/>
      <use x="228.808594" xlink:href="#DejaVuSans-2f"/>
      <use x="262.5" xlink:href="#DejaVuSans-35"/>
     </g>
    </g>
    <g id="line2d_91">
     <path d="M 87.3625 97.07304 
L 127.3625 97.07304 
" style="fill:none;stroke:#bf00bf;stroke-linecap:square;stroke-width:1.5;"/>
    </g>
    <g id="line2d_92"/>
    <g id="text_17">
     <!-- -4: 0/5 -->
     <g transform="translate(143.3625 104.07304)scale(0.2 -0.2)">
      <use xlink:href="#DejaVuSans-2d"/>
      <use x="36.083984" xlink:href="#DejaVuSans-34"/>
      <use x="99.707031" xlink:href="#DejaVuSans-3a"/>
      <use x="133.398438" xlink:href="#DejaVuSans-20"/>
      <use x="165.185547" xlink:href="#DejaVuSans-30"/>
      <use x="228.808594" xlink:href="#DejaVuSans-2f"/>
      <use x="262.5" xlink:href="#DejaVuSans-35"/>
     </g>
    </g>
    <g id="line2d_93">
     <path d="M 87.3625 126.42929 
L 127.3625 126.42929 
" style="fill:none;stroke:#ff0000;stroke-linecap:square;stroke-width:3;"/>
    </g>
    <g id="line2d_94"/>
    <g id="text_18">
     <!-- -8: 0/5 -->
     <g transform="translate(143.3625 133.42929)scale(0.2 -0.2)">
      <use xlink:href="#DejaVuSans-2d"/>
      <use x="36.083984" xlink:href="#DejaVuSans-38"/>
      <use x="99.707031" xlink:href="#DejaVuSans-3a"/>
      <use x="133.398438" xlink:href="#DejaVuSans-20"/>
      <use x="165.185547" xlink:href="#DejaVuSans-30"/>
      <use x="228.808594" xlink:href="#DejaVuSans-2f"/>
      <use x="262.5" xlink:href="#DejaVuSans-35"/>
     </g>
    </g>
   </g>
  </g>
 </g>
 <defs>
  <clipPath id="p113b37172f">
   <rect height="266.112" width="357.12" x="69.3625" y="12.163665"/>
  </clipPath>
 </defs>
</svg>
