<?xml version="1.0" encoding="utf-8" standalone="no"?>
<!DOCTYPE svg PUBLIC "-//W3C//DTD SVG 1.1//EN"
  "http://www.w3.org/Graphics/SVG/1.1/DTD/svg11.dtd">
<!-- Created with matplotlib (http://matplotlib.org/) -->
<svg height="333pt" version="1.1" viewBox="0 0 378 333" width="378pt" xmlns="http://www.w3.org/2000/svg" xmlns:xlink="http://www.w3.org/1999/xlink">
 <defs>
  <style type="text/css">
*{stroke-linecap:butt;stroke-linejoin:round;}
  </style>
 </defs>
 <g id="figure_1">
  <g id="patch_1">
   <path d="M 0 333.7245 
L 378.52 333.7245 
L 378.52 0 
L 0 0 
z
" style="fill:#ffffff;"/>
  </g>
  <g id="axes_1">
   <g id="patch_2">
    <path d="M 10.7 276.812 
L 367.82 276.812 
L 367.82 10.7 
L 10.7 10.7 
z
" style="fill:#ffffff;"/>
   </g>
   <g id="matplotlib.axis_1">
    <g id="xtick_1">
     <g id="line2d_1">
      <path clip-path="url(#pd44da28821)" d="M 10.620904 276.812 
L 10.620904 10.7 
" style="fill:none;stroke:#b0b0b0;stroke-linecap:square;stroke-width:0.8;"/>
     </g>
     <g id="line2d_2">
      <defs>
       <path d="M 0 0 
L 0 3.5 
" id="m2825e4840e" style="stroke:#000000;stroke-width:0.8;"/>
      </defs>
      <g>
       <use style="stroke:#000000;stroke-width:0.8;" x="10.620904" xlink:href="#m2825e4840e" y="276.812"/>
      </g>
     </g>
    </g>
    <g id="xtick_2">
     <g id="line2d_3">
      <path clip-path="url(#pd44da28821)" d="M 83.834378 276.812 
L 83.834378 10.7 
" style="fill:none;stroke:#b0b0b0;stroke-linecap:square;stroke-width:0.8;"/>
     </g>
     <g id="line2d_4">
      <g>
       <use style="stroke:#000000;stroke-width:0.8;" x="83.834378" xlink:href="#m2825e4840e" y="276.812"/>
      </g>
     </g>
     <g id="text_1">
      <!-- -4 -->
      <defs>
       <path d="M 4.890625 31.390625 
L 31.203125 31.390625 
L 31.203125 23.390625 
L 4.890625 23.390625 
z
" id="DejaVuSans-2d"/>
       <path d="M 37.796875 64.3125 
L 12.890625 25.390625 
L 37.796875 25.390625 
z
M 35.203125 72.90625 
L 47.609375 72.90625 
L 47.609375 25.390625 
L 58.015625 25.390625 
L 58.015625 17.1875 
L 47.609375 17.1875 
L 47.609375 0 
L 37.796875 0 
L 37.796875 17.1875 
L 4.890625 17.1875 
L 4.890625 26.703125 
z
" id="DejaVuSans-34"/>
      </defs>
      <g transform="translate(73.864066 299.008875)scale(0.2 -0.2)">
       <use xlink:href="#DejaVuSans-2d"/>
       <use x="36.083984" xlink:href="#DejaVuSans-34"/>
      </g>
     </g>
    </g>
    <g id="xtick_3">
     <g id="line2d_5">
      <path clip-path="url(#pd44da28821)" d="M 157.047852 276.812 
L 157.047852 10.7 
" style="fill:none;stroke:#b0b0b0;stroke-linecap:square;stroke-width:0.8;"/>
     </g>
     <g id="line2d_6">
      <g>
       <use style="stroke:#000000;stroke-width:0.8;" x="157.047852" xlink:href="#m2825e4840e" y="276.812"/>
      </g>
     </g>
     <g id="text_2">
      <!-- 0 -->
      <defs>
       <path d="M 31.78125 66.40625 
Q 24.171875 66.40625 20.328125 58.90625 
Q 16.5 51.421875 16.5 36.375 
Q 16.5 21.390625 20.328125 13.890625 
Q 24.171875 6.390625 31.78125 6.390625 
Q 39.453125 6.390625 43.28125 13.890625 
Q 47.125 21.390625 47.125 36.375 
Q 47.125 51.421875 43.28125 58.90625 
Q 39.453125 66.40625 31.78125 66.40625 
M 31.78125 74.21875 
Q 44.046875 74.21875 50.515625 64.515625 
Q 56.984375 54.828125 56.984375 36.375 
Q 56.984375 17.96875 50.515625 8.265625 
Q 44.046875 -1.421875 31.78125 -1.421875 
Q 19.53125 -1.421875 13.0625 8.265625 
Q 6.59375 17.96875 6.59375 36.375 
Q 6.59375 54.828125 13.0625 64.515625 
Q 19.53125 74.21875 31.78125 74.21875 
" id="DejaVuSans-30"/>
      </defs>
      <g transform="translate(150.685352 299.008875)scale(0.2 -0.2)">
       <use xlink:href="#DejaVuSans-30"/>
      </g>
     </g>
    </g>
    <g id="xtick_4">
     <g id="line2d_7">
      <path clip-path="url(#pd44da28821)" d="M 230.261326 276.812 
L 230.261326 10.7 
" style="fill:none;stroke:#b0b0b0;stroke-linecap:square;stroke-width:0.8;"/>
     </g>
     <g id="line2d_8">
      <g>
       <use style="stroke:#000000;stroke-width:0.8;" x="230.261326" xlink:href="#m2825e4840e" y="276.812"/>
      </g>
     </g>
     <g id="text_3">
      <!-- 4 -->
      <g transform="translate(223.898826 299.008875)scale(0.2 -0.2)">
       <use xlink:href="#DejaVuSans-34"/>
      </g>
     </g>
    </g>
    <g id="xtick_5">
     <g id="line2d_9">
      <path clip-path="url(#pd44da28821)" d="M 303.4748 276.812 
L 303.4748 10.7 
" style="fill:none;stroke:#b0b0b0;stroke-linecap:square;stroke-width:0.8;"/>
     </g>
     <g id="line2d_10">
      <g>
       <use style="stroke:#000000;stroke-width:0.8;" x="303.4748" xlink:href="#m2825e4840e" y="276.812"/>
      </g>
     </g>
     <g id="text_4">
      <!-- 8 -->
      <defs>
       <path d="M 31.78125 34.625 
Q 24.75 34.625 20.71875 30.859375 
Q 16.703125 27.09375 16.703125 20.515625 
Q 16.703125 13.921875 20.71875 10.15625 
Q 24.75 6.390625 31.78125 6.390625 
Q 38.8125 6.390625 42.859375 10.171875 
Q 46.921875 13.96875 46.921875 20.515625 
Q 46.921875 27.09375 42.890625 30.859375 
Q 38.875 34.625 31.78125 34.625 
M 21.921875 38.8125 
Q 15.578125 40.375 12.03125 44.71875 
Q 8.5 49.078125 8.5 55.328125 
Q 8.5 64.0625 14.71875 69.140625 
Q 20.953125 74.21875 31.78125 74.21875 
Q 42.671875 74.21875 48.875 69.140625 
Q 55.078125 64.0625 55.078125 55.328125 
Q 55.078125 49.078125 51.53125 44.71875 
Q 48 40.375 41.703125 38.8125 
Q 48.828125 37.15625 52.796875 32.3125 
Q 56.78125 27.484375 56.78125 20.515625 
Q 56.78125 9.90625 50.3125 4.234375 
Q 43.84375 -1.421875 31.78125 -1.421875 
Q 19.734375 -1.421875 13.25 4.234375 
Q 6.78125 9.90625 6.78125 20.515625 
Q 6.78125 27.484375 10.78125 32.3125 
Q 14.796875 37.15625 21.921875 38.8125 
M 18.3125 54.390625 
Q 18.3125 48.734375 21.84375 45.5625 
Q 25.390625 42.390625 31.78125 42.390625 
Q 38.140625 42.390625 41.71875 45.5625 
Q 45.3125 48.734375 45.3125 54.390625 
Q 45.3125 60.0625 41.71875 63.234375 
Q 38.140625 66.40625 31.78125 66.40625 
Q 25.390625 66.40625 21.84375 63.234375 
Q 18.3125 60.0625 18.3125 54.390625 
" id="DejaVuSans-38"/>
      </defs>
      <g transform="translate(297.1123 299.008875)scale(0.2 -0.2)">
       <use xlink:href="#DejaVuSans-38"/>
      </g>
     </g>
    </g>
    <g id="text_5">
     <!-- log10 of Df -->
     <defs>
      <path d="M 9.421875 75.984375 
L 18.40625 75.984375 
L 18.40625 0 
L 9.421875 0 
z
" id="DejaVuSans-6c"/>
      <path d="M 30.609375 48.390625 
Q 23.390625 48.390625 19.1875 42.75 
Q 14.984375 37.109375 14.984375 27.296875 
Q 14.984375 17.484375 19.15625 11.84375 
Q 23.34375 6.203125 30.609375 6.203125 
Q 37.796875 6.203125 41.984375 11.859375 
Q 46.1875 17.53125 46.1875 27.296875 
Q 46.1875 37.015625 41.984375 42.703125 
Q 37.796875 48.390625 30.609375 48.390625 
M 30.609375 56 
Q 42.328125 56 49.015625 48.375 
Q 55.71875 40.765625 55.71875 27.296875 
Q 55.71875 13.875 49.015625 6.21875 
Q 42.328125 -1.421875 30.609375 -1.421875 
Q 18.84375 -1.421875 12.171875 6.21875 
Q 5.515625 13.875 5.515625 27.296875 
Q 5.515625 40.765625 12.171875 48.375 
Q 18.84375 56 30.609375 56 
" id="DejaVuSans-6f"/>
      <path d="M 45.40625 27.984375 
Q 45.40625 37.75 41.375 43.109375 
Q 37.359375 48.484375 30.078125 48.484375 
Q 22.859375 48.484375 18.828125 43.109375 
Q 14.796875 37.75 14.796875 27.984375 
Q 14.796875 18.265625 18.828125 12.890625 
Q 22.859375 7.515625 30.078125 7.515625 
Q 37.359375 7.515625 41.375 12.890625 
Q 45.40625 18.265625 45.40625 27.984375 
M 54.390625 6.78125 
Q 54.390625 -7.171875 48.1875 -13.984375 
Q 42 -20.796875 29.203125 -20.796875 
Q 24.46875 -20.796875 20.265625 -20.09375 
Q 16.0625 -19.390625 12.109375 -17.921875 
L 12.109375 -9.1875 
Q 16.0625 -11.328125 19.921875 -12.34375 
Q 23.78125 -13.375 27.78125 -13.375 
Q 36.625 -13.375 41.015625 -8.765625 
Q 45.40625 -4.15625 45.40625 5.171875 
L 45.40625 9.625 
Q 42.625 4.78125 38.28125 2.390625 
Q 33.9375 0 27.875 0 
Q 17.828125 0 11.671875 7.65625 
Q 5.515625 15.328125 5.515625 27.984375 
Q 5.515625 40.671875 11.671875 48.328125 
Q 17.828125 56 27.875 56 
Q 33.9375 56 38.28125 53.609375 
Q 42.625 51.21875 45.40625 46.390625 
L 45.40625 54.6875 
L 54.390625 54.6875 
z
" id="DejaVuSans-67"/>
      <path d="M 12.40625 8.296875 
L 28.515625 8.296875 
L 28.515625 63.921875 
L 10.984375 60.40625 
L 10.984375 69.390625 
L 28.421875 72.90625 
L 38.28125 72.90625 
L 38.28125 8.296875 
L 54.390625 8.296875 
L 54.390625 0 
L 12.40625 0 
z
" id="DejaVuSans-31"/>
      <path id="DejaVuSans-20"/>
      <path d="M 37.109375 75.984375 
L 37.109375 68.5 
L 28.515625 68.5 
Q 23.6875 68.5 21.796875 66.546875 
Q 19.921875 64.59375 19.921875 59.515625 
L 19.921875 54.6875 
L 34.71875 54.6875 
L 34.71875 47.703125 
L 19.921875 47.703125 
L 19.921875 0 
L 10.890625 0 
L 10.890625 47.703125 
L 2.296875 47.703125 
L 2.296875 54.6875 
L 10.890625 54.6875 
L 10.890625 58.5 
Q 10.890625 67.625 15.140625 71.796875 
Q 19.390625 75.984375 28.609375 75.984375 
z
" id="DejaVuSans-66"/>
      <path d="M 19.671875 64.796875 
L 19.671875 8.109375 
L 31.59375 8.109375 
Q 46.6875 8.109375 53.6875 14.9375 
Q 60.6875 21.78125 60.6875 36.53125 
Q 60.6875 51.171875 53.6875 57.984375 
Q 46.6875 64.796875 31.59375 64.796875 
z
M 9.8125 72.90625 
L 30.078125 72.90625 
Q 51.265625 72.90625 61.171875 64.09375 
Q 71.09375 55.28125 71.09375 36.53125 
Q 71.09375 17.671875 61.125 8.828125 
Q 51.171875 0 30.078125 0 
L 9.8125 0 
z
" id="DejaVuSans-44"/>
     </defs>
     <g transform="translate(134.074063 322.365125)scale(0.2 -0.2)">
      <use xlink:href="#DejaVuSans-6c"/>
      <use x="27.783203" xlink:href="#DejaVuSans-6f"/>
      <use x="88.964844" xlink:href="#DejaVuSans-67"/>
      <use x="152.441406" xlink:href="#DejaVuSans-31"/>
      <use x="216.064453" xlink:href="#DejaVuSans-30"/>
      <use x="279.6875" xlink:href="#DejaVuSans-20"/>
      <use x="311.474609" xlink:href="#DejaVuSans-6f"/>
      <use x="372.65625" xlink:href="#DejaVuSans-66"/>
      <use x="407.861328" xlink:href="#DejaVuSans-20"/>
      <use x="439.648438" xlink:href="#DejaVuSans-44"/>
      <use x="516.650391" xlink:href="#DejaVuSans-66"/>
     </g>
    </g>
   </g>
   <g id="matplotlib.axis_2">
    <g id="ytick_1">
     <g id="line2d_11">
      <path clip-path="url(#pd44da28821)" d="M 10.7 276.812 
L 367.82 276.812 
" style="fill:none;stroke:#b0b0b0;stroke-linecap:square;stroke-width:0.8;"/>
     </g>
     <g id="line2d_12">
      <defs>
       <path d="M 0 0 
L -3.5 0 
" id="mbffabe76c9" style="stroke:#000000;stroke-width:0.8;"/>
      </defs>
      <g>
       <use style="stroke:#000000;stroke-width:0.8;" x="10.7" xlink:href="#mbffabe76c9" y="276.812"/>
      </g>
     </g>
    </g>
    <g id="ytick_2">
     <g id="line2d_13">
      <path clip-path="url(#pd44da28821)" d="M 10.7 224.116554 
L 367.82 224.116554 
" style="fill:none;stroke:#b0b0b0;stroke-linecap:square;stroke-width:0.8;"/>
     </g>
     <g id="line2d_14">
      <g>
       <use style="stroke:#000000;stroke-width:0.8;" x="10.7" xlink:href="#mbffabe76c9" y="224.116554"/>
      </g>
     </g>
    </g>
    <g id="ytick_3">
     <g id="line2d_15">
      <path clip-path="url(#pd44da28821)" d="M 10.7 171.421109 
L 367.82 171.421109 
" style="fill:none;stroke:#b0b0b0;stroke-linecap:square;stroke-width:0.8;"/>
     </g>
     <g id="line2d_16">
      <g>
       <use style="stroke:#000000;stroke-width:0.8;" x="10.7" xlink:href="#mbffabe76c9" y="171.421109"/>
      </g>
     </g>
    </g>
    <g id="ytick_4">
     <g id="line2d_17">
      <path clip-path="url(#pd44da28821)" d="M 10.7 118.725663 
L 367.82 118.725663 
" style="fill:none;stroke:#b0b0b0;stroke-linecap:square;stroke-width:0.8;"/>
     </g>
     <g id="line2d_18">
      <g>
       <use style="stroke:#000000;stroke-width:0.8;" x="10.7" xlink:href="#mbffabe76c9" y="118.725663"/>
      </g>
     </g>
    </g>
    <g id="ytick_5">
     <g id="line2d_19">
      <path clip-path="url(#pd44da28821)" d="M 10.7 66.030218 
L 367.82 66.030218 
" style="fill:none;stroke:#b0b0b0;stroke-linecap:square;stroke-width:0.8;"/>
     </g>
     <g id="line2d_20">
      <g>
       <use style="stroke:#000000;stroke-width:0.8;" x="10.7" xlink:href="#mbffabe76c9" y="66.030218"/>
      </g>
     </g>
    </g>
    <g id="ytick_6">
     <g id="line2d_21">
      <path clip-path="url(#pd44da28821)" d="M 10.7 13.334772 
L 367.82 13.334772 
" style="fill:none;stroke:#b0b0b0;stroke-linecap:square;stroke-width:0.8;"/>
     </g>
     <g id="line2d_22">
      <g>
       <use style="stroke:#000000;stroke-width:0.8;" x="10.7" xlink:href="#mbffabe76c9" y="13.334772"/>
      </g>
     </g>
    </g>
   </g>
   <g id="line2d_23">
    <path clip-path="url(#pd44da28821)" d="M 3.805878 276.812 
L 3.805878 272.420713 
L 4.840753 272.420713 
L 4.840753 268.029426 
L 8.180759 268.029426 
L 8.180759 263.638139 
L 8.668733 263.638139 
L 8.668733 259.246851 
L 9.1162 259.246851 
L 9.1162 254.855564 
L 9.282244 254.855564 
L 9.282244 250.464277 
L 9.396598 250.464277 
L 9.396598 246.07299 
L 9.835722 246.07299 
L 9.835722 241.681703 
L 10.085066 241.681703 
L 10.085066 237.290416 
L 10.167964 237.290416 
L 10.167964 232.899129 
L 10.362336 232.899129 
L 10.362336 228.507842 
L 10.393177 228.507842 
L 10.393177 224.116554 
L 10.43639 224.116554 
L 10.43639 219.725267 
L 10.485255 219.725267 
L 10.485255 215.33398 
L 10.569897 215.33398 
L 10.569897 210.942693 
L 45.981421 210.942693 
L 45.981421 206.551406 
L 132.704311 206.551406 
L 132.704311 202.160119 
L 137.455749 202.160119 
L 137.455749 197.768832 
L 141.01603 197.768832 
L 141.01603 193.377545 
L 144.229319 193.377545 
L 144.229319 188.986257 
L 144.778003 188.986257 
L 144.778003 184.59497 
L 145.634217 184.59497 
L 145.634217 180.203683 
L 146.969904 180.203683 
L 146.969904 175.812396 
L 147.181999 175.812396 
L 147.181999 171.421109 
L 147.353263 171.421109 
L 147.353263 167.029822 
L 147.637193 167.029822 
L 147.637193 162.638535 
L 147.671947 162.638535 
L 147.671947 158.247248 
L 147.77808 158.247248 
L 147.77808 153.85596 
L 148.145938 153.85596 
L 148.145938 149.464673 
L 148.169808 149.464673 
L 148.169808 145.073386 
L 148.920671 145.073386 
L 148.920671 140.682099 
L 149.120238 140.682099 
L 149.120238 136.290812 
L 149.33671 136.290812 
L 149.33671 131.899525 
L 149.437879 131.899525 
L 149.437879 127.508238 
L 149.744257 127.508238 
L 149.744257 123.11695 
L 149.91073 123.11695 
L 149.91073 118.725663 
L 151.251374 118.725663 
L 151.251374 114.334376 
L 151.399779 114.334376 
L 151.399779 109.943089 
L 151.879592 109.943089 
L 151.879592 105.551802 
L 151.934388 105.551802 
L 151.934388 101.160515 
L 155.801656 101.160515 
L 155.801656 96.769228 
L 157.266576 96.769228 
L 157.266576 92.377941 
L 159.662325 92.377941 
L 159.662325 87.986653 
L 161.302418 87.986653 
L 161.302418 83.595366 
L 164.774572 83.595366 
L 164.774572 79.204079 
L 165.490767 79.204079 
L 165.490767 74.812792 
L 166.340028 74.812792 
L 166.340028 70.421505 
L 166.378785 70.421505 
L 166.378785 66.030218 
L 167.594481 66.030218 
L 167.594481 61.638931 
L 167.802648 61.638931 
L 167.802648 57.247644 
L 167.929517 57.247644 
L 167.929517 52.856356 
L 168.066389 52.856356 
L 168.066389 48.465069 
L 168.24596 48.465069 
L 168.24596 44.073782 
L 168.857759 44.073782 
L 168.857759 39.682495 
L 169.401349 39.682495 
L 169.401349 35.291208 
L 170.777042 35.291208 
L 170.777042 30.899921 
L 194.170445 30.899921 
L 194.170445 26.508634 
L 202.778321 26.508634 
L 202.778321 22.117347 
L 205.767325 22.117347 
L 205.767325 17.726059 
L 205.905815 17.726059 
L 205.905815 13.334772 
L 205.905815 13.334772 
L 205.905815 13.334772 
L 367.82 13.334772 
" style="fill:none;stroke:#ff0000;stroke-linecap:square;stroke-width:3;"/>
   </g>
   <g id="line2d_24">
    <path clip-path="url(#pd44da28821)" d="M 193.047668 276.812 
L 193.047668 272.420713 
L 196.635171 272.420713 
L 196.635171 268.029426 
L 197.431983 268.029426 
L 197.431983 263.638139 
L 201.337 263.638139 
L 201.337 259.246851 
L 201.800348 259.246851 
L 201.800348 254.855564 
L 205.863897 254.855564 
L 205.863897 250.464277 
L 206.005475 250.464277 
L 206.005475 246.07299 
L 208.359301 246.07299 
L 208.359301 241.681703 
L 209.116211 241.681703 
L 209.116211 237.290416 
L 209.154514 237.290416 
L 209.154514 232.899129 
L 209.279513 232.899129 
L 209.279513 228.507842 
L 212.216722 228.507842 
L 212.216722 224.116554 
L 214.773962 224.116554 
L 214.773962 219.725267 
L 215.627906 219.725267 
L 215.627906 215.33398 
L 215.790952 215.33398 
L 215.790952 210.942693 
L 219.230729 210.942693 
L 219.230729 206.551406 
L 222.00482 206.551406 
L 222.00482 202.160119 
L 223.723078 202.160119 
L 223.723078 197.768832 
L 229.717726 197.768832 
L 229.717726 193.377545 
L 230.939898 193.377545 
L 230.939898 188.986257 
L 231.85759 188.986257 
L 231.85759 184.59497 
L 234.563805 184.59497 
L 234.563805 180.203683 
L 234.608066 180.203683 
L 234.608066 175.812396 
L 235.598879 175.812396 
L 235.598879 171.421109 
L 237.085217 171.421109 
L 237.085217 167.029822 
L 237.230375 167.029822 
L 237.230375 162.638535 
L 237.618712 162.638535 
L 237.618712 158.247248 
L 239.769002 158.247248 
L 239.769002 153.85596 
L 239.851565 153.85596 
L 239.851565 149.464673 
L 241.004794 149.464673 
L 241.004794 145.073386 
L 242.595515 145.073386 
L 242.595515 140.682099 
L 244.089226 140.682099 
L 244.089226 136.290812 
L 244.477933 136.290812 
L 244.477933 131.899525 
L 244.668492 131.899525 
L 244.668492 127.508238 
L 244.903158 127.508238 
L 244.903158 123.11695 
L 244.983636 123.11695 
L 244.983636 118.725663 
L 245.897923 118.725663 
L 245.897923 114.334376 
L 246.275637 114.334376 
L 246.275637 109.943089 
L 246.404116 109.943089 
L 246.404116 105.551802 
L 246.837851 105.551802 
L 246.837851 101.160515 
L 247.105541 101.160515 
L 247.105541 96.769228 
L 247.371529 96.769228 
L 247.371529 92.377941 
L 248.059751 92.377941 
L 248.059751 87.986653 
L 248.431144 87.986653 
L 248.431144 83.595366 
L 249.123686 83.595366 
L 249.123686 79.204079 
L 249.302662 79.204079 
L 249.302662 74.812792 
L 249.305276 74.812792 
L 249.305276 70.421505 
L 252.011228 70.421505 
L 252.011228 66.030218 
L 252.16006 66.030218 
L 252.16006 61.638931 
L 253.736567 61.638931 
L 253.736567 57.247644 
L 254.319346 57.247644 
L 254.319346 52.856356 
L 254.784194 52.856356 
L 254.784194 48.465069 
L 258.144722 48.465069 
L 258.144722 44.073782 
L 258.314499 44.073782 
L 258.314499 39.682495 
L 258.860316 39.682495 
L 258.860316 35.291208 
L 259.042756 35.291208 
L 259.042756 30.899921 
L 260.793036 30.899921 
L 260.793036 26.508634 
L 261.125265 26.508634 
L 261.125265 22.117347 
L 263.391161 22.117347 
L 263.391161 17.726059 
L 269.665519 17.726059 
L 269.665519 13.334772 
L 269.665519 13.334772 
L 269.665519 13.334772 
L 367.82 13.334772 
" style="fill:none;stroke:#00bfbf;stroke-linecap:square;stroke-width:1.5;"/>
   </g>
   <g id="line2d_25">
    <path clip-path="url(#pd44da28821)" d="M 193.047668 276.812 
L 193.047668 272.420713 
L 195.692293 272.420713 
L 195.692293 268.029426 
L 196.635171 268.029426 
L 196.635171 263.638139 
L 197.431983 263.638139 
L 197.431983 259.246851 
L 199.462191 259.246851 
L 199.462191 254.855564 
L 201.173327 254.855564 
L 201.173327 250.464277 
L 201.337 250.464277 
L 201.337 246.07299 
L 202.604047 246.07299 
L 202.604047 241.681703 
L 202.886385 241.681703 
L 202.886385 237.290416 
L 203.741687 237.290416 
L 203.741687 232.899129 
L 204.07602 232.899129 
L 204.07602 228.507842 
L 205.895914 228.507842 
L 205.895914 224.116554 
L 206.641046 224.116554 
L 206.641046 219.725267 
L 206.902742 219.725267 
L 206.902742 215.33398 
L 211.193585 215.33398 
L 211.193585 210.942693 
L 211.928631 210.942693 
L 211.928631 206.551406 
L 212.216722 206.551406 
L 212.216722 202.160119 
L 215.790952 202.160119 
L 215.790952 197.768832 
L 219.230729 197.768832 
L 219.230729 193.377545 
L 221.881601 193.377545 
L 221.881601 188.986257 
L 222.00482 188.986257 
L 222.00482 184.59497 
L 223.723078 184.59497 
L 223.723078 180.203683 
L 227.973761 180.203683 
L 227.973761 175.812396 
L 229.717726 175.812396 
L 229.717726 171.421109 
L 231.85759 171.421109 
L 231.85759 167.029822 
L 234.563805 167.029822 
L 234.563805 162.638535 
L 235.598879 162.638535 
L 235.598879 158.247248 
L 235.985354 158.247248 
L 235.985354 153.85596 
L 237.085217 153.85596 
L 237.085217 149.464673 
L 237.230375 149.464673 
L 237.230375 145.073386 
L 237.618712 145.073386 
L 237.618712 140.682099 
L 239.769002 140.682099 
L 239.769002 136.290812 
L 239.775175 136.290812 
L 239.775175 131.899525 
L 240.657509 131.899525 
L 240.657509 127.508238 
L 241.004794 127.508238 
L 241.004794 123.11695 
L 242.595515 123.11695 
L 242.595515 118.725663 
L 243.496697 118.725663 
L 243.496697 114.334376 
L 244.089226 114.334376 
L 244.089226 109.943089 
L 244.477933 109.943089 
L 244.477933 105.551802 
L 244.983636 105.551802 
L 244.983636 101.160515 
L 245.781724 101.160515 
L 245.781724 96.769228 
L 246.115149 96.769228 
L 246.115149 92.377941 
L 246.404116 92.377941 
L 246.404116 87.986653 
L 246.837851 87.986653 
L 246.837851 83.595366 
L 247.105541 83.595366 
L 247.105541 79.204079 
L 247.206748 79.204079 
L 247.206748 74.812792 
L 247.387967 74.812792 
L 247.387967 70.421505 
L 248.792743 70.421505 
L 248.792743 66.030218 
L 249.302662 66.030218 
L 249.302662 61.638931 
L 249.305276 61.638931 
L 249.305276 57.247644 
L 249.381362 57.247644 
L 249.381362 52.856356 
L 252.003163 52.856356 
L 252.003163 48.465069 
L 252.011228 48.465069 
L 252.011228 44.073782 
L 252.16006 44.073782 
L 252.16006 39.682495 
L 254.831702 39.682495 
L 254.831702 35.291208 
L 255.989217 35.291208 
L 255.989217 30.899921 
L 256.356547 30.899921 
L 256.356547 26.508634 
L 257.935962 26.508634 
L 257.935962 22.117347 
L 258.054063 22.117347 
L 258.054063 17.726059 
L 260.793036 17.726059 
L 260.793036 13.334772 
L 260.793036 13.334772 
L 260.793036 13.334772 
L 367.82 13.334772 
" style="fill:none;stroke:#bf00bf;stroke-linecap:square;stroke-width:1.5;"/>
   </g>
   <g id="line2d_26">
    <path clip-path="url(#pd44da28821)" d="M 192.770061 276.812 
L 192.770061 272.420713 
L 193.047668 272.420713 
L 193.047668 268.029426 
L 194.274818 268.029426 
L 194.274818 263.638139 
L 194.663936 263.638139 
L 194.663936 259.246851 
L 195.692293 259.246851 
L 195.692293 254.855564 
L 198.472107 254.855564 
L 198.472107 250.464277 
L 199.462191 250.464277 
L 199.462191 246.07299 
L 200.185515 246.07299 
L 200.185515 241.681703 
L 201.083845 241.681703 
L 201.083845 237.290416 
L 201.173327 237.290416 
L 201.173327 232.899129 
L 201.337 232.899129 
L 201.337 228.507842 
L 201.550626 228.507842 
L 201.550626 224.116554 
L 201.599874 224.116554 
L 201.599874 219.725267 
L 202.461994 219.725267 
L 202.461994 215.33398 
L 202.604047 215.33398 
L 202.604047 210.942693 
L 203.741687 210.942693 
L 203.741687 206.551406 
L 204.855032 206.551406 
L 204.855032 202.160119 
L 205.895914 202.160119 
L 205.895914 197.768832 
L 209.331497 197.768832 
L 209.331497 193.377545 
L 210.599151 193.377545 
L 210.599151 188.986257 
L 211.099274 188.986257 
L 211.099274 184.59497 
L 211.928631 184.59497 
L 211.928631 180.203683 
L 217.878383 180.203683 
L 217.878383 175.812396 
L 218.305502 175.812396 
L 218.305502 171.421109 
L 219.230729 171.421109 
L 219.230729 167.029822 
L 219.278036 167.029822 
L 219.278036 162.638535 
L 220.703759 162.638535 
L 220.703759 158.247248 
L 222.00482 158.247248 
L 222.00482 153.85596 
L 222.236471 153.85596 
L 222.236471 149.464673 
L 222.252753 149.464673 
L 222.252753 145.073386 
L 223.723078 145.073386 
L 223.723078 140.682099 
L 224.853985 140.682099 
L 224.853985 136.290812 
L 227.973761 136.290812 
L 227.973761 131.899525 
L 229.717726 131.899525 
L 229.717726 127.508238 
L 231.248545 127.508238 
L 231.248545 123.11695 
L 231.605742 123.11695 
L 231.605742 118.725663 
L 232.665363 118.725663 
L 232.665363 114.334376 
L 233.46107 114.334376 
L 233.46107 109.943089 
L 233.657912 109.943089 
L 233.657912 105.551802 
L 233.818557 105.551802 
L 233.818557 101.160515 
L 235.598879 101.160515 
L 235.598879 96.769228 
L 235.985354 96.769228 
L 235.985354 92.377941 
L 236.269783 92.377941 
L 236.269783 87.986653 
L 237.085217 87.986653 
L 237.085217 83.595366 
L 237.618712 83.595366 
L 237.618712 79.204079 
L 238.67183 79.204079 
L 238.67183 74.812792 
L 239.030494 74.812792 
L 239.030494 70.421505 
L 239.732119 70.421505 
L 239.732119 66.030218 
L 240.657509 66.030218 
L 240.657509 61.638931 
L 242.659901 61.638931 
L 242.659901 57.247644 
L 242.691731 57.247644 
L 242.691731 52.856356 
L 243.261096 52.856356 
L 243.261096 48.465069 
L 243.370563 48.465069 
L 243.370563 44.073782 
L 243.496697 44.073782 
L 243.496697 39.682495 
L 246.193 39.682495 
L 246.193 35.291208 
L 248.229836 35.291208 
L 248.229836 30.899921 
L 248.320056 30.899921 
L 248.320056 26.508634 
L 249.861017 26.508634 
L 249.861017 22.117347 
L 258.054063 22.117347 
L 258.054063 17.726059 
L 260.793036 17.726059 
L 260.793036 13.334772 
L 260.793036 13.334772 
L 260.793036 13.334772 
L 367.82 13.334772 
" style="fill:none;stroke:#000000;stroke-linecap:square;stroke-width:1.5;"/>
   </g>
   <g id="line2d_27">
    <path clip-path="url(#pd44da28821)" d="M 176.924342 276.812 
L 176.924342 272.420713 
L 184.563239 272.420713 
L 184.563239 268.029426 
L 186.468939 268.029426 
L 186.468939 263.638139 
L 188.573026 263.638139 
L 188.573026 259.246851 
L 189.339814 259.246851 
L 189.339814 254.855564 
L 189.814143 254.855564 
L 189.814143 250.464277 
L 190.654037 250.464277 
L 190.654037 246.07299 
L 191.011805 246.07299 
L 191.011805 241.681703 
L 191.947694 241.681703 
L 191.947694 237.290416 
L 191.966265 237.290416 
L 191.966265 232.899129 
L 192.359736 232.899129 
L 192.359736 228.507842 
L 192.67064 228.507842 
L 192.67064 224.116554 
L 193.07272 224.116554 
L 193.07272 219.725267 
L 193.449918 219.725267 
L 193.449918 215.33398 
L 193.512447 215.33398 
L 193.512447 210.942693 
L 194.936796 210.942693 
L 194.936796 206.551406 
L 195.814935 206.551406 
L 195.814935 202.160119 
L 196.27877 202.160119 
L 196.27877 197.768832 
L 197.275359 197.768832 
L 197.275359 193.377545 
L 197.861341 193.377545 
L 197.861341 188.986257 
L 197.894792 188.986257 
L 197.894792 184.59497 
L 198.857963 184.59497 
L 198.857963 180.203683 
L 199.620798 180.203683 
L 199.620798 175.812396 
L 200.712913 175.812396 
L 200.712913 171.421109 
L 201.367705 171.421109 
L 201.367705 167.029822 
L 203.00065 167.029822 
L 203.00065 162.638535 
L 203.916222 162.638535 
L 203.916222 158.247248 
L 204.886202 158.247248 
L 204.886202 153.85596 
L 204.886987 153.85596 
L 204.886987 149.464673 
L 205.513478 149.464673 
L 205.513478 145.073386 
L 205.989899 145.073386 
L 205.989899 140.682099 
L 206.061299 140.682099 
L 206.061299 136.290812 
L 208.508715 136.290812 
L 208.508715 131.899525 
L 209.732123 131.899525 
L 209.732123 127.508238 
L 209.755284 127.508238 
L 209.755284 123.11695 
L 210.082606 123.11695 
L 210.082606 118.725663 
L 210.36271 118.725663 
L 210.36271 114.334376 
L 211.498477 114.334376 
L 211.498477 109.943089 
L 211.521154 109.943089 
L 211.521154 105.551802 
L 212.52045 105.551802 
L 212.52045 101.160515 
L 212.528421 101.160515 
L 212.528421 96.769228 
L 213.132028 96.769228 
L 213.132028 92.377941 
L 213.885007 92.377941 
L 213.885007 87.986653 
L 215.8646 87.986653 
L 215.8646 83.595366 
L 215.972681 83.595366 
L 215.972681 79.204079 
L 216.171846 79.204079 
L 216.171846 74.812792 
L 219.278036 74.812792 
L 219.278036 70.421505 
L 219.856612 70.421505 
L 219.856612 66.030218 
L 219.986611 66.030218 
L 219.986611 61.638931 
L 220.025641 61.638931 
L 220.025641 57.247644 
L 220.37573 57.247644 
L 220.37573 52.856356 
L 220.692831 52.856356 
L 220.692831 48.465069 
L 220.699015 48.465069 
L 220.699015 44.073782 
L 221.634968 44.073782 
L 221.634968 39.682495 
L 225.721475 39.682495 
L 225.721475 35.291208 
L 226.299287 35.291208 
L 226.299287 30.899921 
L 229.556917 30.899921 
L 229.556917 26.508634 
L 230.858157 26.508634 
L 230.858157 22.117347 
L 234.022404 22.117347 
L 234.022404 17.726059 
L 250.082848 17.726059 
L 250.082848 13.334772 
L 250.082848 13.334772 
L 250.082848 13.334772 
L 367.82 13.334772 
" style="fill:none;stroke:#00bfbf;stroke-linecap:square;stroke-width:1.5;"/>
   </g>
   <g id="line2d_28">
    <path clip-path="url(#pd44da28821)" d="M 101.926582 276.812 
L 101.926582 272.420713 
L 102.372075 272.420713 
L 102.372075 268.029426 
L 109.309571 268.029426 
L 109.309571 263.638139 
L 112.613824 263.638139 
L 112.613824 259.246851 
L 113.498004 259.246851 
L 113.498004 254.855564 
L 114.30933 254.855564 
L 114.30933 250.464277 
L 121.038184 250.464277 
L 121.038184 246.07299 
L 125.249865 246.07299 
L 125.249865 241.681703 
L 125.956862 241.681703 
L 125.956862 237.290416 
L 131.218232 237.290416 
L 131.218232 232.899129 
L 131.436397 232.899129 
L 131.436397 228.507842 
L 133.022351 228.507842 
L 133.022351 224.116554 
L 136.651112 224.116554 
L 136.651112 219.725267 
L 138.722994 219.725267 
L 138.722994 215.33398 
L 141.807993 215.33398 
L 141.807993 210.942693 
L 144.181665 210.942693 
L 144.181665 206.551406 
L 147.868692 206.551406 
L 147.868692 202.160119 
L 154.094818 202.160119 
L 154.094818 197.768832 
L 154.5914 197.768832 
L 154.5914 193.377545 
L 155.442507 193.377545 
L 155.442507 188.986257 
L 156.214731 188.986257 
L 156.214731 184.59497 
L 156.498751 184.59497 
L 156.498751 180.203683 
L 159.273063 180.203683 
L 159.273063 175.812396 
L 159.662325 175.812396 
L 159.662325 171.421109 
L 161.260022 171.421109 
L 161.260022 167.029822 
L 161.285869 167.029822 
L 161.285869 162.638535 
L 161.379077 162.638535 
L 161.379077 158.247248 
L 161.780695 158.247248 
L 161.780695 153.85596 
L 162.014195 153.85596 
L 162.014195 149.464673 
L 162.293945 149.464673 
L 162.293945 145.073386 
L 162.963717 145.073386 
L 162.963717 140.682099 
L 163.184981 140.682099 
L 163.184981 136.290812 
L 164.358354 136.290812 
L 164.358354 131.899525 
L 164.901357 131.899525 
L 164.901357 127.508238 
L 164.95003 127.508238 
L 164.95003 123.11695 
L 165.145228 123.11695 
L 165.145228 118.725663 
L 165.213739 118.725663 
L 165.213739 114.334376 
L 165.559361 114.334376 
L 165.559361 109.943089 
L 166.398287 109.943089 
L 166.398287 105.551802 
L 166.420137 105.551802 
L 166.420137 101.160515 
L 166.675657 101.160515 
L 166.675657 96.769228 
L 167.92988 96.769228 
L 167.92988 92.377941 
L 168.068801 92.377941 
L 168.068801 87.986653 
L 168.248163 87.986653 
L 168.248163 83.595366 
L 168.874417 83.595366 
L 168.874417 79.204079 
L 169.270658 79.204079 
L 169.270658 74.812792 
L 169.877495 74.812792 
L 169.877495 70.421505 
L 170.77902 70.421505 
L 170.77902 66.030218 
L 171.623984 66.030218 
L 171.623984 61.638931 
L 172.409046 61.638931 
L 172.409046 57.247644 
L 172.940155 57.247644 
L 172.940155 52.856356 
L 173.893367 52.856356 
L 173.893367 48.465069 
L 176.207491 48.465069 
L 176.207491 44.073782 
L 177.450185 44.073782 
L 177.450185 39.682495 
L 195.657684 39.682495 
L 195.657684 35.291208 
L 197.326479 35.291208 
L 197.326479 30.899921 
L 198.82214 30.899921 
L 198.82214 26.508634 
L 203.445449 26.508634 
L 203.445449 22.117347 
L 205.93624 22.117347 
L 205.93624 17.726059 
L 206.097451 17.726059 
L 206.097451 13.334772 
L 206.097451 13.334772 
L 206.097451 13.334772 
L 367.82 13.334772 
" style="fill:none;stroke:#bf00bf;stroke-linecap:square;stroke-width:1.5;"/>
   </g>
   <g id="patch_3">
    <path d="M 10.7 276.812 
L 10.7 10.7 
" style="fill:none;stroke:#000000;stroke-linecap:square;stroke-linejoin:miter;stroke-width:0.8;"/>
   </g>
   <g id="patch_4">
    <path d="M 367.82 276.812 
L 367.82 10.7 
" style="fill:none;stroke:#000000;stroke-linecap:square;stroke-linejoin:miter;stroke-width:0.8;"/>
   </g>
   <g id="patch_5">
    <path d="M 10.7 276.812 
L 367.82 276.812 
" style="fill:none;stroke:#000000;stroke-linecap:square;stroke-linejoin:miter;stroke-width:0.8;"/>
   </g>
   <g id="patch_6">
    <path d="M 10.7 10.7 
L 367.82 10.7 
" style="fill:none;stroke:#000000;stroke-linecap:square;stroke-linejoin:miter;stroke-width:0.8;"/>
   </g>
   <g id="text_6">
    <!-- {f6-f9}, 5-D -->
    <defs>
     <path d="M 51.125 -9.28125 
L 51.125 -16.3125 
L 48.09375 -16.3125 
Q 35.9375 -16.3125 31.8125 -12.6875 
Q 27.6875 -9.078125 27.6875 1.703125 
L 27.6875 13.375 
Q 27.6875 20.75 25.046875 23.578125 
Q 22.40625 26.421875 15.484375 26.421875 
L 12.5 26.421875 
L 12.5 33.40625 
L 15.484375 33.40625 
Q 22.46875 33.40625 25.078125 36.203125 
Q 27.6875 39.015625 27.6875 46.296875 
L 27.6875 58.015625 
Q 27.6875 68.796875 31.8125 72.390625 
Q 35.9375 75.984375 48.09375 75.984375 
L 51.125 75.984375 
L 51.125 69 
L 47.796875 69 
Q 40.921875 69 38.8125 66.84375 
Q 36.71875 64.703125 36.71875 57.8125 
L 36.71875 45.703125 
Q 36.71875 38.03125 34.5 34.5625 
Q 32.28125 31.109375 26.90625 29.890625 
Q 32.328125 28.5625 34.515625 25.09375 
Q 36.71875 21.625 36.71875 14.015625 
L 36.71875 1.90625 
Q 36.71875 -4.984375 38.8125 -7.125 
Q 40.921875 -9.28125 47.796875 -9.28125 
z
" id="DejaVuSans-7b"/>
     <path d="M 33.015625 40.375 
Q 26.375 40.375 22.484375 35.828125 
Q 18.609375 31.296875 18.609375 23.390625 
Q 18.609375 15.53125 22.484375 10.953125 
Q 26.375 6.390625 33.015625 6.390625 
Q 39.65625 6.390625 43.53125 10.953125 
Q 47.40625 15.53125 47.40625 23.390625 
Q 47.40625 31.296875 43.53125 35.828125 
Q 39.65625 40.375 33.015625 40.375 
M 52.59375 71.296875 
L 52.59375 62.3125 
Q 48.875 64.0625 45.09375 64.984375 
Q 41.3125 65.921875 37.59375 65.921875 
Q 27.828125 65.921875 22.671875 59.328125 
Q 17.53125 52.734375 16.796875 39.40625 
Q 19.671875 43.65625 24.015625 45.921875 
Q 28.375 48.1875 33.59375 48.1875 
Q 44.578125 48.1875 50.953125 41.515625 
Q 57.328125 34.859375 57.328125 23.390625 
Q 57.328125 12.15625 50.6875 5.359375 
Q 44.046875 -1.421875 33.015625 -1.421875 
Q 20.359375 -1.421875 13.671875 8.265625 
Q 6.984375 17.96875 6.984375 36.375 
Q 6.984375 53.65625 15.1875 63.9375 
Q 23.390625 74.21875 37.203125 74.21875 
Q 40.921875 74.21875 44.703125 73.484375 
Q 48.484375 72.75 52.59375 71.296875 
" id="DejaVuSans-36"/>
     <path d="M 10.984375 1.515625 
L 10.984375 10.5 
Q 14.703125 8.734375 18.5 7.8125 
Q 22.3125 6.890625 25.984375 6.890625 
Q 35.75 6.890625 40.890625 13.453125 
Q 46.046875 20.015625 46.78125 33.40625 
Q 43.953125 29.203125 39.59375 26.953125 
Q 35.25 24.703125 29.984375 24.703125 
Q 19.046875 24.703125 12.671875 31.3125 
Q 6.296875 37.9375 6.296875 49.421875 
Q 6.296875 60.640625 12.9375 67.421875 
Q 19.578125 74.21875 30.609375 74.21875 
Q 43.265625 74.21875 49.921875 64.515625 
Q 56.59375 54.828125 56.59375 36.375 
Q 56.59375 19.140625 48.40625 8.859375 
Q 40.234375 -1.421875 26.421875 -1.421875 
Q 22.703125 -1.421875 18.890625 -0.6875 
Q 15.09375 0.046875 10.984375 1.515625 
M 30.609375 32.421875 
Q 37.25 32.421875 41.125 36.953125 
Q 45.015625 41.5 45.015625 49.421875 
Q 45.015625 57.28125 41.125 61.84375 
Q 37.25 66.40625 30.609375 66.40625 
Q 23.96875 66.40625 20.09375 61.84375 
Q 16.21875 57.28125 16.21875 49.421875 
Q 16.21875 41.5 20.09375 36.953125 
Q 23.96875 32.421875 30.609375 32.421875 
" id="DejaVuSans-39"/>
     <path d="M 12.5 -9.28125 
L 15.921875 -9.28125 
Q 22.75 -9.28125 24.828125 -7.171875 
Q 26.90625 -5.078125 26.90625 1.90625 
L 26.90625 14.015625 
Q 26.90625 21.625 29.09375 25.09375 
Q 31.296875 28.5625 36.71875 29.890625 
Q 31.296875 31.109375 29.09375 34.5625 
Q 26.90625 38.03125 26.90625 45.703125 
L 26.90625 57.8125 
Q 26.90625 64.75 24.828125 66.875 
Q 22.75 69 15.921875 69 
L 12.5 69 
L 12.5 75.984375 
L 15.578125 75.984375 
Q 27.734375 75.984375 31.8125 72.390625 
Q 35.890625 68.796875 35.890625 58.015625 
L 35.890625 46.296875 
Q 35.890625 39.015625 38.515625 36.203125 
Q 41.15625 33.40625 48.09375 33.40625 
L 51.125 33.40625 
L 51.125 26.421875 
L 48.09375 26.421875 
Q 41.15625 26.421875 38.515625 23.578125 
Q 35.890625 20.75 35.890625 13.375 
L 35.890625 1.703125 
Q 35.890625 -9.078125 31.8125 -12.6875 
Q 27.734375 -16.3125 15.578125 -16.3125 
L 12.5 -16.3125 
z
" id="DejaVuSans-7d"/>
     <path d="M 11.71875 12.40625 
L 22.015625 12.40625 
L 22.015625 4 
L 14.015625 -11.625 
L 7.71875 -11.625 
L 11.71875 4 
z
" id="DejaVuSans-2c"/>
     <path d="M 10.796875 72.90625 
L 49.515625 72.90625 
L 49.515625 64.59375 
L 19.828125 64.59375 
L 19.828125 46.734375 
Q 21.96875 47.46875 24.109375 47.828125 
Q 26.265625 48.1875 28.421875 48.1875 
Q 40.625 48.1875 47.75 41.5 
Q 54.890625 34.8125 54.890625 23.390625 
Q 54.890625 11.625 47.5625 5.09375 
Q 40.234375 -1.421875 26.90625 -1.421875 
Q 22.3125 -1.421875 17.546875 -0.640625 
Q 12.796875 0.140625 7.71875 1.703125 
L 7.71875 11.625 
Q 12.109375 9.234375 16.796875 8.0625 
Q 21.484375 6.890625 26.703125 6.890625 
Q 35.15625 6.890625 40.078125 11.328125 
Q 45.015625 15.765625 45.015625 23.390625 
Q 45.015625 31 40.078125 35.4375 
Q 35.15625 39.890625 26.703125 39.890625 
Q 22.75 39.890625 18.8125 39.015625 
Q 14.890625 38.140625 10.796875 36.28125 
z
" id="DejaVuSans-35"/>
    </defs>
    <g transform="translate(240.4276 271.48976)scale(0.2 -0.2)">
     <use xlink:href="#DejaVuSans-7b"/>
     <use x="63.623047" xlink:href="#DejaVuSans-66"/>
     <use x="98.828125" xlink:href="#DejaVuSans-36"/>
     <use x="162.451172" xlink:href="#DejaVuSans-2d"/>
     <use x="198.535156" xlink:href="#DejaVuSans-66"/>
     <use x="233.740234" xlink:href="#DejaVuSans-39"/>
     <use x="297.363281" xlink:href="#DejaVuSans-7d"/>
     <use x="360.986328" xlink:href="#DejaVuSans-2c"/>
     <use x="392.773438" xlink:href="#DejaVuSans-20"/>
     <use x="424.560547" xlink:href="#DejaVuSans-35"/>
     <use x="488.183594" xlink:href="#DejaVuSans-2d"/>
     <use x="524.267578" xlink:href="#DejaVuSans-44"/>
    </g>
   </g>
   <g id="text_7">
    <!-- v2.1 -->
    <defs>
     <path d="M 2.984375 54.6875 
L 12.5 54.6875 
L 29.59375 8.796875 
L 46.6875 54.6875 
L 56.203125 54.6875 
L 35.6875 0 
L 23.484375 0 
z
" id="DejaVuSans-76"/>
     <path d="M 19.1875 8.296875 
L 53.609375 8.296875 
L 53.609375 0 
L 7.328125 0 
L 7.328125 8.296875 
Q 12.9375 14.109375 22.625 23.890625 
Q 32.328125 33.6875 34.8125 36.53125 
Q 39.546875 41.84375 41.421875 45.53125 
Q 43.3125 49.21875 43.3125 52.78125 
Q 43.3125 58.59375 39.234375 62.25 
Q 35.15625 65.921875 28.609375 65.921875 
Q 23.96875 65.921875 18.8125 64.3125 
Q 13.671875 62.703125 7.8125 59.421875 
L 7.8125 69.390625 
Q 13.765625 71.78125 18.9375 73 
Q 24.125 74.21875 28.421875 74.21875 
Q 39.75 74.21875 46.484375 68.546875 
Q 53.21875 62.890625 53.21875 53.421875 
Q 53.21875 48.921875 51.53125 44.890625 
Q 49.859375 40.875 45.40625 35.40625 
Q 44.1875 33.984375 37.640625 27.21875 
Q 31.109375 20.453125 19.1875 8.296875 
" id="DejaVuSans-32"/>
     <path d="M 10.6875 12.40625 
L 21 12.40625 
L 21 0 
L 10.6875 0 
z
" id="DejaVuSans-2e"/>
    </defs>
    <g style="fill:#808080;" transform="translate(178.349063 272.071193)scale(0.1 -0.1)">
     <use xlink:href="#DejaVuSans-76"/>
     <use x="59.179688" xlink:href="#DejaVuSans-32"/>
     <use x="122.802734" xlink:href="#DejaVuSans-2e"/>
     <use x="154.589844" xlink:href="#DejaVuSans-31"/>
    </g>
   </g>
  </g>
 </g>
 <defs>
  <clipPath id="pd44da28821">
   <rect height="266.112" width="357.12" x="10.7" y="10.7"/>
  </clipPath>
 </defs>
</svg>
