<?xml version="1.0" encoding="utf-8" standalone="no"?>
<!DOCTYPE svg PUBLIC "-//W3C//DTD SVG 1.1//EN"
  "http://www.w3.org/Graphics/SVG/1.1/DTD/svg11.dtd">
<!-- Created with matplotlib (http://matplotlib.org/) -->
<svg height="333pt" version="1.1" viewBox="0 0 378 333" width="378pt" xmlns="http://www.w3.org/2000/svg" xmlns:xlink="http://www.w3.org/1999/xlink">
 <defs>
  <style type="text/css">
*{stroke-linecap:butt;stroke-linejoin:round;}
  </style>
 </defs>
 <g id="figure_1">
  <g id="patch_1">
   <path d="M 0 333.7245 
L 378.52 333.7245 
L 378.52 0 
L 0 0 
z
" style="fill:#ffffff;"/>
  </g>
  <g id="axes_1">
   <g id="patch_2">
    <path d="M 10.7 276.812 
L 367.82 276.812 
L 367.82 10.7 
L 10.7 10.7 
z
" style="fill:#ffffff;"/>
   </g>
   <g id="matplotlib.axis_1">
    <g id="xtick_1">
     <g id="line2d_1">
      <path clip-path="url(#p480e2cae94)" d="M 10.620904 276.812 
L 10.620904 10.7 
" style="fill:none;stroke:#b0b0b0;stroke-linecap:square;stroke-width:0.8;"/>
     </g>
     <g id="line2d_2">
      <defs>
       <path d="M 0 0 
L 0 3.5 
" id="m3c9324da7e" style="stroke:#000000;stroke-width:0.8;"/>
      </defs>
      <g>
       <use style="stroke:#000000;stroke-width:0.8;" x="10.620904" xlink:href="#m3c9324da7e" y="276.812"/>
      </g>
     </g>
    </g>
    <g id="xtick_2">
     <g id="line2d_3">
      <path clip-path="url(#p480e2cae94)" d="M 83.834378 276.812 
L 83.834378 10.7 
" style="fill:none;stroke:#b0b0b0;stroke-linecap:square;stroke-width:0.8;"/>
     </g>
     <g id="line2d_4">
      <g>
       <use style="stroke:#000000;stroke-width:0.8;" x="83.834378" xlink:href="#m3c9324da7e" y="276.812"/>
      </g>
     </g>
     <g id="text_1">
      <!-- -4 -->
      <defs>
       <path d="M 4.890625 31.390625 
L 31.203125 31.390625 
L 31.203125 23.390625 
L 4.890625 23.390625 
z
" id="DejaVuSans-2d"/>
       <path d="M 37.796875 64.3125 
L 12.890625 25.390625 
L 37.796875 25.390625 
z
M 35.203125 72.90625 
L 47.609375 72.90625 
L 47.609375 25.390625 
L 58.015625 25.390625 
L 58.015625 17.1875 
L 47.609375 17.1875 
L 47.609375 0 
L 37.796875 0 
L 37.796875 17.1875 
L 4.890625 17.1875 
L 4.890625 26.703125 
z
" id="DejaVuSans-34"/>
      </defs>
      <g transform="translate(73.864066 299.008875)scale(0.2 -0.2)">
       <use xlink:href="#DejaVuSans-2d"/>
       <use x="36.083984" xlink:href="#DejaVuSans-34"/>
      </g>
     </g>
    </g>
    <g id="xtick_3">
     <g id="line2d_5">
      <path clip-path="url(#p480e2cae94)" d="M 157.047852 276.812 
L 157.047852 10.7 
" style="fill:none;stroke:#b0b0b0;stroke-linecap:square;stroke-width:0.8;"/>
     </g>
     <g id="line2d_6">
      <g>
       <use style="stroke:#000000;stroke-width:0.8;" x="157.047852" xlink:href="#m3c9324da7e" y="276.812"/>
      </g>
     </g>
     <g id="text_2">
      <!-- 0 -->
      <defs>
       <path d="M 31.78125 66.40625 
Q 24.171875 66.40625 20.328125 58.90625 
Q 16.5 51.421875 16.5 36.375 
Q 16.5 21.390625 20.328125 13.890625 
Q 24.171875 6.390625 31.78125 6.390625 
Q 39.453125 6.390625 43.28125 13.890625 
Q 47.125 21.390625 47.125 36.375 
Q 47.125 51.421875 43.28125 58.90625 
Q 39.453125 66.40625 31.78125 66.40625 
M 31.78125 74.21875 
Q 44.046875 74.21875 50.515625 64.515625 
Q 56.984375 54.828125 56.984375 36.375 
Q 56.984375 17.96875 50.515625 8.265625 
Q 44.046875 -1.421875 31.78125 -1.421875 
Q 19.53125 -1.421875 13.0625 8.265625 
Q 6.59375 17.96875 6.59375 36.375 
Q 6.59375 54.828125 13.0625 64.515625 
Q 19.53125 74.21875 31.78125 74.21875 
" id="DejaVuSans-30"/>
      </defs>
      <g transform="translate(150.685352 299.008875)scale(0.2 -0.2)">
       <use xlink:href="#DejaVuSans-30"/>
      </g>
     </g>
    </g>
    <g id="xtick_4">
     <g id="line2d_7">
      <path clip-path="url(#p480e2cae94)" d="M 230.261326 276.812 
L 230.261326 10.7 
" style="fill:none;stroke:#b0b0b0;stroke-linecap:square;stroke-width:0.8;"/>
     </g>
     <g id="line2d_8">
      <g>
       <use style="stroke:#000000;stroke-width:0.8;" x="230.261326" xlink:href="#m3c9324da7e" y="276.812"/>
      </g>
     </g>
     <g id="text_3">
      <!-- 4 -->
      <g transform="translate(223.898826 299.008875)scale(0.2 -0.2)">
       <use xlink:href="#DejaVuSans-34"/>
      </g>
     </g>
    </g>
    <g id="xtick_5">
     <g id="line2d_9">
      <path clip-path="url(#p480e2cae94)" d="M 303.4748 276.812 
L 303.4748 10.7 
" style="fill:none;stroke:#b0b0b0;stroke-linecap:square;stroke-width:0.8;"/>
     </g>
     <g id="line2d_10">
      <g>
       <use style="stroke:#000000;stroke-width:0.8;" x="303.4748" xlink:href="#m3c9324da7e" y="276.812"/>
      </g>
     </g>
     <g id="text_4">
      <!-- 8 -->
      <defs>
       <path d="M 31.78125 34.625 
Q 24.75 34.625 20.71875 30.859375 
Q 16.703125 27.09375 16.703125 20.515625 
Q 16.703125 13.921875 20.71875 10.15625 
Q 24.75 6.390625 31.78125 6.390625 
Q 38.8125 6.390625 42.859375 10.171875 
Q 46.921875 13.96875 46.921875 20.515625 
Q 46.921875 27.09375 42.890625 30.859375 
Q 38.875 34.625 31.78125 34.625 
M 21.921875 38.8125 
Q 15.578125 40.375 12.03125 44.71875 
Q 8.5 49.078125 8.5 55.328125 
Q 8.5 64.0625 14.71875 69.140625 
Q 20.953125 74.21875 31.78125 74.21875 
Q 42.671875 74.21875 48.875 69.140625 
Q 55.078125 64.0625 55.078125 55.328125 
Q 55.078125 49.078125 51.53125 44.71875 
Q 48 40.375 41.703125 38.8125 
Q 48.828125 37.15625 52.796875 32.3125 
Q 56.78125 27.484375 56.78125 20.515625 
Q 56.78125 9.90625 50.3125 4.234375 
Q 43.84375 -1.421875 31.78125 -1.421875 
Q 19.734375 -1.421875 13.25 4.234375 
Q 6.78125 9.90625 6.78125 20.515625 
Q 6.78125 27.484375 10.78125 32.3125 
Q 14.796875 37.15625 21.921875 38.8125 
M 18.3125 54.390625 
Q 18.3125 48.734375 21.84375 45.5625 
Q 25.390625 42.390625 31.78125 42.390625 
Q 38.140625 42.390625 41.71875 45.5625 
Q 45.3125 48.734375 45.3125 54.390625 
Q 45.3125 60.0625 41.71875 63.234375 
Q 38.140625 66.40625 31.78125 66.40625 
Q 25.390625 66.40625 21.84375 63.234375 
Q 18.3125 60.0625 18.3125 54.390625 
" id="DejaVuSans-38"/>
      </defs>
      <g transform="translate(297.1123 299.008875)scale(0.2 -0.2)">
       <use xlink:href="#DejaVuSans-38"/>
      </g>
     </g>
    </g>
    <g id="text_5">
     <!-- log10 of Df -->
     <defs>
      <path d="M 9.421875 75.984375 
L 18.40625 75.984375 
L 18.40625 0 
L 9.421875 0 
z
" id="DejaVuSans-6c"/>
      <path d="M 30.609375 48.390625 
Q 23.390625 48.390625 19.1875 42.75 
Q 14.984375 37.109375 14.984375 27.296875 
Q 14.984375 17.484375 19.15625 11.84375 
Q 23.34375 6.203125 30.609375 6.203125 
Q 37.796875 6.203125 41.984375 11.859375 
Q 46.1875 17.53125 46.1875 27.296875 
Q 46.1875 37.015625 41.984375 42.703125 
Q 37.796875 48.390625 30.609375 48.390625 
M 30.609375 56 
Q 42.328125 56 49.015625 48.375 
Q 55.71875 40.765625 55.71875 27.296875 
Q 55.71875 13.875 49.015625 6.21875 
Q 42.328125 -1.421875 30.609375 -1.421875 
Q 18.84375 -1.421875 12.171875 6.21875 
Q 5.515625 13.875 5.515625 27.296875 
Q 5.515625 40.765625 12.171875 48.375 
Q 18.84375 56 30.609375 56 
" id="DejaVuSans-6f"/>
      <path d="M 45.40625 27.984375 
Q 45.40625 37.75 41.375 43.109375 
Q 37.359375 48.484375 30.078125 48.484375 
Q 22.859375 48.484375 18.828125 43.109375 
Q 14.796875 37.75 14.796875 27.984375 
Q 14.796875 18.265625 18.828125 12.890625 
Q 22.859375 7.515625 30.078125 7.515625 
Q 37.359375 7.515625 41.375 12.890625 
Q 45.40625 18.265625 45.40625 27.984375 
M 54.390625 6.78125 
Q 54.390625 -7.171875 48.1875 -13.984375 
Q 42 -20.796875 29.203125 -20.796875 
Q 24.46875 -20.796875 20.265625 -20.09375 
Q 16.0625 -19.390625 12.109375 -17.921875 
L 12.109375 -9.1875 
Q 16.0625 -11.328125 19.921875 -12.34375 
Q 23.78125 -13.375 27.78125 -13.375 
Q 36.625 -13.375 41.015625 -8.765625 
Q 45.40625 -4.15625 45.40625 5.171875 
L 45.40625 9.625 
Q 42.625 4.78125 38.28125 2.390625 
Q 33.9375 0 27.875 0 
Q 17.828125 0 11.671875 7.65625 
Q 5.515625 15.328125 5.515625 27.984375 
Q 5.515625 40.671875 11.671875 48.328125 
Q 17.828125 56 27.875 56 
Q 33.9375 56 38.28125 53.609375 
Q 42.625 51.21875 45.40625 46.390625 
L 45.40625 54.6875 
L 54.390625 54.6875 
z
" id="DejaVuSans-67"/>
      <path d="M 12.40625 8.296875 
L 28.515625 8.296875 
L 28.515625 63.921875 
L 10.984375 60.40625 
L 10.984375 69.390625 
L 28.421875 72.90625 
L 38.28125 72.90625 
L 38.28125 8.296875 
L 54.390625 8.296875 
L 54.390625 0 
L 12.40625 0 
z
" id="DejaVuSans-31"/>
      <path id="DejaVuSans-20"/>
      <path d="M 37.109375 75.984375 
L 37.109375 68.5 
L 28.515625 68.5 
Q 23.6875 68.5 21.796875 66.546875 
Q 19.921875 64.59375 19.921875 59.515625 
L 19.921875 54.6875 
L 34.71875 54.6875 
L 34.71875 47.703125 
L 19.921875 47.703125 
L 19.921875 0 
L 10.890625 0 
L 10.890625 47.703125 
L 2.296875 47.703125 
L 2.296875 54.6875 
L 10.890625 54.6875 
L 10.890625 58.5 
Q 10.890625 67.625 15.140625 71.796875 
Q 19.390625 75.984375 28.609375 75.984375 
z
" id="DejaVuSans-66"/>
      <path d="M 19.671875 64.796875 
L 19.671875 8.109375 
L 31.59375 8.109375 
Q 46.6875 8.109375 53.6875 14.9375 
Q 60.6875 21.78125 60.6875 36.53125 
Q 60.6875 51.171875 53.6875 57.984375 
Q 46.6875 64.796875 31.59375 64.796875 
z
M 9.8125 72.90625 
L 30.078125 72.90625 
Q 51.265625 72.90625 61.171875 64.09375 
Q 71.09375 55.28125 71.09375 36.53125 
Q 71.09375 17.671875 61.125 8.828125 
Q 51.171875 0 30.078125 0 
L 9.8125 0 
z
" id="DejaVuSans-44"/>
     </defs>
     <g transform="translate(134.074063 322.365125)scale(0.2 -0.2)">
      <use xlink:href="#DejaVuSans-6c"/>
      <use x="27.783203" xlink:href="#DejaVuSans-6f"/>
      <use x="88.964844" xlink:href="#DejaVuSans-67"/>
      <use x="152.441406" xlink:href="#DejaVuSans-31"/>
      <use x="216.064453" xlink:href="#DejaVuSans-30"/>
      <use x="279.6875" xlink:href="#DejaVuSans-20"/>
      <use x="311.474609" xlink:href="#DejaVuSans-6f"/>
      <use x="372.65625" xlink:href="#DejaVuSans-66"/>
      <use x="407.861328" xlink:href="#DejaVuSans-20"/>
      <use x="439.648438" xlink:href="#DejaVuSans-44"/>
      <use x="516.650391" xlink:href="#DejaVuSans-66"/>
     </g>
    </g>
   </g>
   <g id="matplotlib.axis_2">
    <g id="ytick_1">
     <g id="line2d_11">
      <path clip-path="url(#p480e2cae94)" d="M 10.7 276.812 
L 367.82 276.812 
" style="fill:none;stroke:#b0b0b0;stroke-linecap:square;stroke-width:0.8;"/>
     </g>
     <g id="line2d_12">
      <defs>
       <path d="M 0 0 
L -3.5 0 
" id="me11f33534b" style="stroke:#000000;stroke-width:0.8;"/>
      </defs>
      <g>
       <use style="stroke:#000000;stroke-width:0.8;" x="10.7" xlink:href="#me11f33534b" y="276.812"/>
      </g>
     </g>
    </g>
    <g id="ytick_2">
     <g id="line2d_13">
      <path clip-path="url(#p480e2cae94)" d="M 10.7 224.116554 
L 367.82 224.116554 
" style="fill:none;stroke:#b0b0b0;stroke-linecap:square;stroke-width:0.8;"/>
     </g>
     <g id="line2d_14">
      <g>
       <use style="stroke:#000000;stroke-width:0.8;" x="10.7" xlink:href="#me11f33534b" y="224.116554"/>
      </g>
     </g>
    </g>
    <g id="ytick_3">
     <g id="line2d_15">
      <path clip-path="url(#p480e2cae94)" d="M 10.7 171.421109 
L 367.82 171.421109 
" style="fill:none;stroke:#b0b0b0;stroke-linecap:square;stroke-width:0.8;"/>
     </g>
     <g id="line2d_16">
      <g>
       <use style="stroke:#000000;stroke-width:0.8;" x="10.7" xlink:href="#me11f33534b" y="171.421109"/>
      </g>
     </g>
    </g>
    <g id="ytick_4">
     <g id="line2d_17">
      <path clip-path="url(#p480e2cae94)" d="M 10.7 118.725663 
L 367.82 118.725663 
" style="fill:none;stroke:#b0b0b0;stroke-linecap:square;stroke-width:0.8;"/>
     </g>
     <g id="line2d_18">
      <g>
       <use style="stroke:#000000;stroke-width:0.8;" x="10.7" xlink:href="#me11f33534b" y="118.725663"/>
      </g>
     </g>
    </g>
    <g id="ytick_5">
     <g id="line2d_19">
      <path clip-path="url(#p480e2cae94)" d="M 10.7 66.030218 
L 367.82 66.030218 
" style="fill:none;stroke:#b0b0b0;stroke-linecap:square;stroke-width:0.8;"/>
     </g>
     <g id="line2d_20">
      <g>
       <use style="stroke:#000000;stroke-width:0.8;" x="10.7" xlink:href="#me11f33534b" y="66.030218"/>
      </g>
     </g>
    </g>
    <g id="ytick_6">
     <g id="line2d_21">
      <path clip-path="url(#p480e2cae94)" d="M 10.7 13.334772 
L 367.82 13.334772 
" style="fill:none;stroke:#b0b0b0;stroke-linecap:square;stroke-width:0.8;"/>
     </g>
     <g id="line2d_22">
      <g>
       <use style="stroke:#000000;stroke-width:0.8;" x="10.7" xlink:href="#me11f33534b" y="13.334772"/>
      </g>
     </g>
    </g>
   </g>
   <g id="line2d_23">
    <path clip-path="url(#p480e2cae94)" d="M -1 224.116554 
L 5.086837 224.116554 
L 5.108737 217.090495 
L 5.346663 217.090495 
L 5.346663 213.577465 
L 6.121499 213.577465 
L 6.121499 210.064436 
L 6.412954 210.064436 
L 6.412954 206.551406 
L 7.478443 206.551406 
L 7.478443 203.038376 
L 7.76698 203.038376 
L 7.76698 199.525347 
L 8.146505 199.525347 
L 8.146505 196.012317 
L 8.405364 196.012317 
L 8.405364 192.499287 
L 8.953788 192.499287 
L 8.953788 188.986257 
L 9.615655 188.986257 
L 9.615655 185.473228 
L 9.931954 185.473228 
L 10.034978 174.934139 
L 10.067574 174.934139 
L 10.067574 171.421109 
L 165.740606 171.421109 
L 165.740606 167.908079 
L 173.537264 167.908079 
L 173.537264 164.39505 
L 174.473523 164.39505 
L 174.473523 160.88202 
L 176.068652 160.88202 
L 176.068667 150.342931 
L 177.396586 150.342931 
L 177.396586 143.316871 
L 179.047114 143.316871 
L 179.047114 139.803842 
L 179.528992 139.803842 
L 179.529021 129.264752 
L 179.98335 129.264752 
L 179.98335 125.751723 
L 181.578513 125.751723 
L 181.578513 122.238693 
L 181.878151 122.238693 
L 181.931863 115.212634 
L 182.594655 115.212634 
L 182.594655 111.699604 
L 182.906424 111.699604 
L 182.906424 108.186574 
L 183.206437 108.186574 
L 183.206437 104.673545 
L 184.043938 104.673545 
L 184.043938 101.160515 
L 184.304556 101.160515 
L 184.304556 97.647485 
L 184.55693 97.647485 
L 184.55693 94.134455 
L 185.03887 94.134455 
L 185.03887 90.621426 
L 185.269261 90.621426 
L 185.269261 87.108396 
L 186.905589 87.108396 
L 186.905597 76.569307 
L 188.716263 76.569307 
L 188.716263 73.056277 
L 189.005325 73.056277 
L 189.005325 69.543248 
L 189.284213 69.543248 
L 189.284289 62.517188 
L 197.220532 62.517188 
L 197.220532 59.004158 
L 200.239323 59.004158 
L 200.239323 55.491129 
L 203.961553 55.491129 
L 203.961553 51.978099 
L 204.21882 51.978099 
L 204.21882 48.465069 
L 207.90852 48.465069 
L 207.90852 44.95204 
L 208.945748 44.95204 
L 208.945748 41.43901 
L 209.202654 41.43901 
L 209.202654 37.92598 
L 214.860944 37.92598 
L 214.860944 34.41295 
L 216.204003 34.41295 
L 216.204003 30.899921 
L 217.226171 30.899921 
L 217.226171 27.386891 
L 218.761646 27.386891 
L 218.761646 23.873861 
L 220.711979 23.873861 
L 220.795046 16.847802 
L 221.175131 16.847802 
L 221.175131 13.334772 
L 221.175131 13.334772 
L 367.82 13.334772 
L 367.82 13.334772 
" style="fill:none;stroke:#ff0000;stroke-linecap:square;stroke-width:3;"/>
   </g>
   <g id="line2d_24">
    <path clip-path="url(#p480e2cae94)" d="M 183.245589 276.812 
L 183.245589 273.29897 
L 183.513892 273.29897 
L 183.513892 269.785941 
L 183.942365 269.785941 
L 183.942365 266.272911 
L 184.069036 266.272911 
L 184.069036 262.759881 
L 185.045175 262.759881 
L 185.045175 259.246851 
L 187.122999 259.246851 
L 187.122999 255.733822 
L 187.715163 255.733822 
L 187.715163 252.220792 
L 189.605954 252.220792 
L 189.605954 248.707762 
L 189.751892 248.707762 
L 189.84336 241.681703 
L 189.912142 241.681703 
L 189.912142 238.168673 
L 190.029916 238.168673 
L 190.029916 234.655644 
L 190.5786 234.655644 
L 190.5786 231.142614 
L 191.5858 231.142614 
L 191.5858 227.629584 
L 191.856204 227.629584 
L 191.856204 224.116554 
L 192.577982 224.116554 
L 192.607699 217.090495 
L 192.853918 217.090495 
L 192.853918 213.577465 
L 193.274603 213.577465 
L 193.30752 206.551406 
L 193.937155 206.551406 
L 193.937155 203.038376 
L 194.095607 203.038376 
L 194.095607 199.525347 
L 194.598918 199.525347 
L 194.598918 196.012317 
L 194.945975 196.012317 
L 194.945975 192.499287 
L 195.263811 192.499287 
L 195.374297 185.473228 
L 195.678166 185.473228 
L 195.678166 181.960198 
L 196.091841 181.960198 
L 196.091841 178.447168 
L 196.291511 178.447168 
L 196.291511 174.934139 
L 196.781153 174.934139 
L 196.781153 171.421109 
L 197.75685 171.421109 
L 197.848299 164.39505 
L 198.574768 164.39505 
L 198.574768 160.88202 
L 198.880309 160.88202 
L 198.880309 157.36899 
L 199.857701 157.36899 
L 199.857701 153.85596 
L 200.376779 153.85596 
L 200.376779 150.342931 
L 201.586735 150.342931 
L 201.586735 146.829901 
L 201.82529 146.829901 
L 201.82529 143.316871 
L 202.085864 143.316871 
L 202.085864 139.803842 
L 202.368517 139.803842 
L 202.368517 136.290812 
L 203.096157 136.290812 
L 203.096157 132.777782 
L 204.261002 132.777782 
L 204.261002 129.264752 
L 204.583606 129.264752 
L 204.583606 125.751723 
L 205.26916 125.751723 
L 205.26916 122.238693 
L 205.880995 122.238693 
L 205.880995 118.725663 
L 206.370509 118.725663 
L 206.370509 115.212634 
L 206.932974 115.212634 
L 206.932974 111.699604 
L 207.32768 111.699604 
L 207.32768 108.186574 
L 209.155616 108.186574 
L 209.155616 104.673545 
L 209.395283 104.673545 
L 209.395283 101.160515 
L 209.757731 101.160515 
L 209.757731 97.647485 
L 210.344005 97.647485 
L 210.344005 94.134455 
L 210.542013 94.134455 
L 210.542013 90.621426 
L 210.666528 90.621426 
L 210.680843 83.595366 
L 212.361634 83.595366 
L 212.361634 80.082337 
L 212.564331 80.082337 
L 212.564331 76.569307 
L 221.852433 76.569307 
L 221.852433 73.056277 
L 226.849568 73.056277 
L 226.849568 69.543248 
L 230.443427 69.543248 
L 230.443427 66.030218 
L 255.87036 66.030218 
L 255.87036 62.517188 
L 261.328014 62.517188 
L 261.328014 59.004158 
L 264.579397 59.004158 
L 264.579397 55.491129 
L 265.564387 55.491129 
L 265.564387 51.978099 
L 270.645489 51.978099 
L 270.645489 48.465069 
L 273.872008 48.465069 
L 273.872008 44.95204 
L 280.242526 44.95204 
L 280.242526 41.43901 
L 283.308783 41.43901 
L 283.308783 37.92598 
L 284.872862 37.92598 
L 284.872862 34.41295 
L 285.714865 34.41295 
L 285.714865 30.899921 
L 286.133471 30.899921 
L 286.133471 27.386891 
L 288.42673 27.386891 
L 288.42673 23.873861 
L 291.159255 23.873861 
L 291.159255 20.360832 
L 292.11802 20.360832 
L 292.11802 16.847802 
L 295.072084 16.847802 
L 295.072084 13.334772 
L 295.072084 13.334772 
L 367.82 13.334772 
L 367.82 13.334772 
" style="fill:none;stroke:#00bfbf;stroke-linecap:square;stroke-width:1.5;"/>
   </g>
   <g id="line2d_25">
    <path clip-path="url(#p480e2cae94)" d="M 170.790927 276.812 
L 170.790927 273.29897 
L 176.35434 273.29897 
L 176.35434 269.785941 
L 178.727579 269.785941 
L 178.727579 266.272911 
L 180.356744 266.272911 
L 180.356744 262.759881 
L 181.903259 262.759881 
L 181.903259 259.246851 
L 182.292187 259.246851 
L 182.36931 252.220792 
L 183.245589 252.220792 
L 183.245589 248.707762 
L 183.513892 248.707762 
L 183.513892 245.194733 
L 183.739767 245.194733 
L 183.739767 241.681703 
L 183.942365 241.681703 
L 183.942365 238.168673 
L 184.78628 238.168673 
L 184.78628 234.655644 
L 185.215842 234.655644 
L 185.215842 231.142614 
L 186.4761 231.142614 
L 186.4761 227.629584 
L 187.68283 227.629584 
L 187.68283 224.116554 
L 188.751509 224.116554 
L 188.751509 220.603525 
L 189.751892 220.603525 
L 189.807044 213.577465 
L 190.029916 213.577465 
L 190.029916 210.064436 
L 190.358387 210.064436 
L 190.358387 206.551406 
L 190.5786 206.551406 
L 190.5786 203.038376 
L 191.481598 203.038376 
L 191.5858 196.012317 
L 191.8973 196.012317 
L 191.8973 192.499287 
L 192.607699 192.499287 
L 192.607699 188.986257 
L 193.003286 188.986257 
L 193.003286 185.473228 
L 193.274603 185.473228 
L 193.274603 181.960198 
L 194.807717 181.960198 
L 194.917048 174.934139 
L 194.945975 174.934139 
L 194.945975 171.421109 
L 195.263811 171.421109 
L 195.374297 164.39505 
L 195.52498 164.39505 
L 195.52498 160.88202 
L 196.482775 160.88202 
L 196.482775 157.36899 
L 196.693962 157.36899 
L 196.693962 153.85596 
L 197.75685 153.85596 
L 197.75685 150.342931 
L 198.574768 150.342931 
L 198.574768 146.829901 
L 199.072092 146.829901 
L 199.072092 143.316871 
L 199.555087 143.316871 
L 199.555087 139.803842 
L 199.857701 139.803842 
L 199.857701 136.290812 
L 200.376779 136.290812 
L 200.376779 132.777782 
L 201.586735 132.777782 
L 201.586735 129.264752 
L 202.085864 129.264752 
L 202.085864 125.751723 
L 203.096157 125.751723 
L 203.096157 122.238693 
L 204.583606 122.238693 
L 204.583606 118.725663 
L 205.26916 118.725663 
L 205.26916 115.212634 
L 205.743859 115.212634 
L 205.743859 111.699604 
L 205.880995 111.699604 
L 205.880995 108.186574 
L 206.356776 108.186574 
L 206.370509 101.160515 
L 206.922 101.160515 
L 206.932974 94.134455 
L 207.046277 94.134455 
L 207.046277 90.621426 
L 209.953244 90.621426 
L 209.953244 87.108396 
L 210.344005 87.108396 
L 210.344005 83.595366 
L 210.542013 83.595366 
L 210.62867 76.569307 
L 210.666528 76.569307 
L 210.680843 69.543248 
L 226.849568 69.543248 
L 226.849568 66.030218 
L 254.603594 66.030218 
L 254.603594 62.517188 
L 255.87036 62.517188 
L 255.87036 59.004158 
L 261.328014 59.004158 
L 261.328014 55.491129 
L 263.216611 55.491129 
L 263.216611 51.978099 
L 264.579397 51.978099 
L 264.579397 48.465069 
L 265.564387 48.465069 
L 265.564387 44.95204 
L 265.928284 44.95204 
L 265.928284 41.43901 
L 269.03018 41.43901 
L 269.03018 37.92598 
L 270.645489 37.92598 
L 270.645489 34.41295 
L 272.416672 34.41295 
L 272.416672 30.899921 
L 275.041004 30.899921 
L 275.041004 27.386891 
L 278.102172 27.386891 
L 278.102172 23.873861 
L 279.168636 23.873861 
L 279.168636 20.360832 
L 281.930238 20.360832 
L 281.930238 16.847802 
L 282.486836 16.847802 
L 282.486836 13.334772 
L 282.486836 13.334772 
L 367.82 13.334772 
L 367.82 13.334772 
" style="fill:none;stroke:#bf00bf;stroke-linecap:square;stroke-width:1.5;"/>
   </g>
   <g id="line2d_26">
    <path clip-path="url(#p480e2cae94)" d="M -1 262.759881 
L 140.332467 262.759881 
L 140.332467 259.246851 
L 170.624896 259.246851 
L 170.624896 255.733822 
L 176.384733 255.733822 
L 176.384733 252.220792 
L 176.649801 252.220792 
L 176.649801 248.707762 
L 180.356744 248.707762 
L 180.356744 245.194733 
L 180.746214 245.194733 
L 180.848773 238.168673 
L 181.479341 238.168673 
L 181.479341 234.655644 
L 181.703522 234.655644 
L 181.776536 227.629584 
L 182.450138 227.629584 
L 182.450138 224.116554 
L 183.245589 224.116554 
L 183.245589 220.603525 
L 184.352478 220.603525 
L 184.352478 217.090495 
L 184.837595 217.090495 
L 184.837595 213.577465 
L 184.956515 213.577465 
L 184.956515 210.064436 
L 185.215842 210.064436 
L 185.242113 203.038376 
L 185.400359 203.038376 
L 185.400359 199.525347 
L 187.130411 199.525347 
L 187.130411 196.012317 
L 187.724437 196.012317 
L 187.724437 192.499287 
L 188.598612 192.499287 
L 188.598612 188.986257 
L 188.733828 188.986257 
L 188.733828 185.473228 
L 189.036856 185.473228 
L 189.036856 181.960198 
L 189.505515 181.960198 
L 189.505515 178.447168 
L 189.63035 178.447168 
L 189.63035 174.934139 
L 190.358387 174.934139 
L 190.358387 171.421109 
L 190.835036 171.421109 
L 190.835036 167.908079 
L 191.8973 167.908079 
L 191.8973 164.39505 
L 192.728193 164.39505 
L 192.728193 160.88202 
L 193.274603 160.88202 
L 193.274603 157.36899 
L 194.224768 157.36899 
L 194.224768 153.85596 
L 195.225249 153.85596 
L 195.225249 150.342931 
L 196.482775 150.342931 
L 196.482775 146.829901 
L 196.693962 146.829901 
L 196.758548 139.803842 
L 197.75685 139.803842 
L 197.795965 132.777782 
L 198.072034 132.777782 
L 198.176397 125.751723 
L 198.70002 125.751723 
L 198.70002 122.238693 
L 199.072092 122.238693 
L 199.072092 118.725663 
L 200.376779 118.725663 
L 200.376779 115.212634 
L 200.716253 115.212634 
L 200.716253 111.699604 
L 202.085864 111.699604 
L 202.085864 108.186574 
L 203.096157 108.186574 
L 203.096157 104.673545 
L 204.101631 104.673545 
L 204.101631 101.160515 
L 204.518051 101.160515 
L 204.583606 94.134455 
L 206.356776 94.134455 
L 206.356776 90.621426 
L 206.922 90.621426 
L 206.932974 83.595366 
L 208.105568 83.595366 
L 208.105568 80.082337 
L 208.228987 80.082337 
L 208.228987 76.569307 
L 209.953244 76.569307 
L 209.953244 73.056277 
L 210.344005 73.056277 
L 210.344005 69.543248 
L 210.542013 69.543248 
L 210.542013 66.030218 
L 252.527229 66.030218 
L 252.527229 62.517188 
L 252.856325 62.517188 
L 252.856325 59.004158 
L 255.87036 59.004158 
L 255.87036 55.491129 
L 261.328014 55.491129 
L 261.328014 51.978099 
L 263.216611 51.978099 
L 263.216611 48.465069 
L 263.436462 48.465069 
L 263.436462 44.95204 
L 264.579397 44.95204 
L 264.579397 41.43901 
L 265.928284 41.43901 
L 265.928284 37.92598 
L 269.03018 37.92598 
L 269.03018 34.41295 
L 269.898973 34.41295 
L 269.898973 30.899921 
L 271.917435 30.899921 
L 271.917435 27.386891 
L 272.416672 27.386891 
L 272.416672 23.873861 
L 278.102172 23.873861 
L 278.102172 20.360832 
L 278.853279 20.360832 
L 278.853279 16.847802 
L 281.930238 16.847802 
L 281.930238 13.334772 
L 281.930238 13.334772 
L 367.82 13.334772 
L 367.82 13.334772 
" style="fill:none;stroke:#000000;stroke-linecap:square;stroke-width:1.5;"/>
   </g>
   <g id="line2d_27">
    <path clip-path="url(#p480e2cae94)" d="M -1 227.629584 
L 165.693456 227.629584 
L 165.693456 224.116554 
L 169.426213 224.116554 
L 169.426213 220.603525 
L 170.74224 220.603525 
L 170.74224 217.090495 
L 171.178807 217.090495 
L 171.178807 213.577465 
L 171.760418 213.577465 
L 171.760418 210.064436 
L 172.590428 210.064436 
L 172.590428 206.551406 
L 172.814564 206.551406 
L 172.814564 203.038376 
L 173.578067 203.038376 
L 173.578067 199.525347 
L 176.102658 199.525347 
L 176.209938 192.499287 
L 176.639141 192.499287 
L 176.639141 188.986257 
L 176.855906 188.986257 
L 176.855906 185.473228 
L 177.102265 185.473228 
L 177.102265 181.960198 
L 178.240836 181.960198 
L 178.240836 178.447168 
L 178.878712 178.447168 
L 178.878712 174.934139 
L 181.587357 174.934139 
L 181.587357 171.421109 
L 187.368212 171.421109 
L 187.368212 167.908079 
L 189.036856 167.908079 
L 189.036856 164.39505 
L 189.158323 164.39505 
L 189.158323 160.88202 
L 189.4342 160.88202 
L 189.4342 157.36899 
L 190.758822 157.36899 
L 190.758822 153.85596 
L 191.174931 153.85596 
L 191.174931 150.342931 
L 191.326247 150.342931 
L 191.326247 146.829901 
L 192.209698 146.829901 
L 192.209698 143.316871 
L 192.358445 143.316871 
L 192.358445 139.803842 
L 192.53565 139.803842 
L 192.5832 132.777782 
L 192.821984 132.777782 
L 192.848645 125.751723 
L 193.744662 125.751723 
L 193.823178 118.725663 
L 193.94188 118.725663 
L 193.94188 115.212634 
L 194.150263 115.212634 
L 194.219175 108.186574 
L 194.765726 108.186574 
L 194.765726 104.673545 
L 194.947062 104.673545 
L 194.947062 101.160515 
L 195.943505 101.160515 
L 195.943505 97.647485 
L 196.23179 97.647485 
L 196.23179 94.134455 
L 196.416249 94.134455 
L 196.416249 90.621426 
L 196.919033 90.621426 
L 196.919033 87.108396 
L 197.194884 87.108396 
L 197.194884 83.595366 
L 197.555085 83.595366 
L 197.555085 80.082337 
L 197.957924 80.082337 
L 197.957924 76.569307 
L 199.365918 76.569307 
L 199.365918 73.056277 
L 203.517685 73.056277 
L 203.517685 69.543248 
L 205.893966 69.543248 
L 205.893966 66.030218 
L 234.514518 66.030218 
L 234.514518 62.517188 
L 235.995951 62.517188 
L 235.995951 59.004158 
L 242.683101 59.004158 
L 242.765137 51.978099 
L 246.539229 51.978099 
L 246.539229 48.465069 
L 247.32029 48.465069 
L 247.32029 44.95204 
L 251.177886 44.95204 
L 251.177886 41.43901 
L 253.082446 41.43901 
L 253.082446 37.92598 
L 253.648929 37.92598 
L 253.648929 34.41295 
L 257.305747 34.41295 
L 257.305747 30.899921 
L 258.073698 30.899921 
L 258.073698 27.386891 
L 261.681915 27.386891 
L 261.681915 23.873861 
L 262.204236 23.873861 
L 262.204236 20.360832 
L 264.443552 20.360832 
L 264.443552 16.847802 
L 265.194953 16.847802 
L 265.194953 13.334772 
L 265.194953 13.334772 
L 367.82 13.334772 
L 367.82 13.334772 
" style="fill:none;stroke:#00bfbf;stroke-linecap:square;stroke-width:1.5;"/>
   </g>
   <g id="line2d_28">
    <path clip-path="url(#p480e2cae94)" d="M -1 224.116554 
L 5.108737 224.116554 
L 5.108737 220.603525 
L 8.953788 220.603525 
L 8.953788 217.090495 
L 9.615655 217.090495 
L 9.615655 213.577465 
L 15.930832 213.577465 
L 15.930832 210.064436 
L 21.905574 210.064436 
L 21.905574 206.551406 
L 22.860967 206.551406 
L 22.860967 203.038376 
L 27.016184 203.038376 
L 27.016184 199.525347 
L 27.986437 199.525347 
L 27.986437 196.012317 
L 31.829374 196.012317 
L 31.829374 192.499287 
L 35.443011 192.499287 
L 35.443011 188.986257 
L 35.767447 188.986257 
L 35.767447 185.473228 
L 36.21778 185.473228 
L 36.21778 181.960198 
L 44.96047 181.960198 
L 44.96047 178.447168 
L 49.149702 178.447168 
L 49.149702 174.934139 
L 50.978024 174.934139 
L 50.978024 171.421109 
L 165.740928 171.421109 
L 165.740928 167.908079 
L 173.537269 167.908079 
L 173.537269 164.39505 
L 174.473707 164.39505 
L 174.473707 160.88202 
L 176.068672 160.88202 
L 176.082211 150.342931 
L 177.420892 150.342931 
L 177.438763 143.316871 
L 179.047157 143.316871 
L 179.047157 139.803842 
L 179.529029 139.803842 
L 179.529613 129.264752 
L 179.983361 129.264752 
L 179.983361 125.751723 
L 181.578911 125.751723 
L 181.578911 122.238693 
L 181.931902 122.238693 
L 181.931902 118.725663 
L 182.594702 118.725663 
L 182.594702 115.212634 
L 182.90666 115.212634 
L 182.90666 111.699604 
L 183.206438 111.699604 
L 183.206438 108.186574 
L 184.043949 108.186574 
L 184.043949 104.673545 
L 184.311465 104.673545 
L 184.311465 101.160515 
L 184.557277 101.160515 
L 184.557277 97.647485 
L 185.064155 97.647485 
L 185.064155 94.134455 
L 185.269301 94.134455 
L 185.269301 90.621426 
L 186.905595 90.621426 
L 186.905622 80.082337 
L 188.716336 80.082337 
L 188.716336 76.569307 
L 189.005325 76.569307 
L 189.005325 73.056277 
L 189.284237 73.056277 
L 189.2843 66.030218 
L 198.014939 66.030218 
L 198.014939 62.517188 
L 205.78313 62.517188 
L 205.78313 59.004158 
L 208.411255 59.004158 
L 208.411255 55.491129 
L 214.40352 55.491129 
L 214.40352 51.978099 
L 220.896169 51.978099 
L 220.896169 48.465069 
L 226.489509 48.465069 
L 226.489509 44.95204 
L 228.347036 44.95204 
L 228.347036 41.43901 
L 229.686928 41.43901 
L 229.686928 37.92598 
L 230.020923 37.92598 
L 230.020923 34.41295 
L 230.133561 34.41295 
L 230.133561 30.899921 
L 231.319033 30.899921 
L 231.319033 27.386891 
L 236.201885 27.386891 
L 236.201885 23.873861 
L 238.566299 23.873861 
L 238.566299 20.360832 
L 239.130373 20.360832 
L 239.130373 16.847802 
L 245.852344 16.847802 
L 245.852344 13.334772 
L 245.852344 13.334772 
L 367.82 13.334772 
L 367.82 13.334772 
" style="fill:none;stroke:#bf00bf;stroke-linecap:square;stroke-width:1.5;"/>
   </g>
   <g id="patch_3">
    <path d="M 10.7 276.812 
L 10.7 10.7 
" style="fill:none;stroke:#000000;stroke-linecap:square;stroke-linejoin:miter;stroke-width:0.8;"/>
   </g>
   <g id="patch_4">
    <path d="M 367.82 276.812 
L 367.82 10.7 
" style="fill:none;stroke:#000000;stroke-linecap:square;stroke-linejoin:miter;stroke-width:0.8;"/>
   </g>
   <g id="patch_5">
    <path d="M 10.7 276.812 
L 367.82 276.812 
" style="fill:none;stroke:#000000;stroke-linecap:square;stroke-linejoin:miter;stroke-width:0.8;"/>
   </g>
   <g id="patch_6">
    <path d="M 10.7 10.7 
L 367.82 10.7 
" style="fill:none;stroke:#000000;stroke-linecap:square;stroke-linejoin:miter;stroke-width:0.8;"/>
   </g>
   <g id="text_6">
    <!-- {f1-f5}, 5-D -->
    <defs>
     <path d="M 51.125 -9.28125 
L 51.125 -16.3125 
L 48.09375 -16.3125 
Q 35.9375 -16.3125 31.8125 -12.6875 
Q 27.6875 -9.078125 27.6875 1.703125 
L 27.6875 13.375 
Q 27.6875 20.75 25.046875 23.578125 
Q 22.40625 26.421875 15.484375 26.421875 
L 12.5 26.421875 
L 12.5 33.40625 
L 15.484375 33.40625 
Q 22.46875 33.40625 25.078125 36.203125 
Q 27.6875 39.015625 27.6875 46.296875 
L 27.6875 58.015625 
Q 27.6875 68.796875 31.8125 72.390625 
Q 35.9375 75.984375 48.09375 75.984375 
L 51.125 75.984375 
L 51.125 69 
L 47.796875 69 
Q 40.921875 69 38.8125 66.84375 
Q 36.71875 64.703125 36.71875 57.8125 
L 36.71875 45.703125 
Q 36.71875 38.03125 34.5 34.5625 
Q 32.28125 31.109375 26.90625 29.890625 
Q 32.328125 28.5625 34.515625 25.09375 
Q 36.71875 21.625 36.71875 14.015625 
L 36.71875 1.90625 
Q 36.71875 -4.984375 38.8125 -7.125 
Q 40.921875 -9.28125 47.796875 -9.28125 
z
" id="DejaVuSans-7b"/>
     <path d="M 10.796875 72.90625 
L 49.515625 72.90625 
L 49.515625 64.59375 
L 19.828125 64.59375 
L 19.828125 46.734375 
Q 21.96875 47.46875 24.109375 47.828125 
Q 26.265625 48.1875 28.421875 48.1875 
Q 40.625 48.1875 47.75 41.5 
Q 54.890625 34.8125 54.890625 23.390625 
Q 54.890625 11.625 47.5625 5.09375 
Q 40.234375 -1.421875 26.90625 -1.421875 
Q 22.3125 -1.421875 17.546875 -0.640625 
Q 12.796875 0.140625 7.71875 1.703125 
L 7.71875 11.625 
Q 12.109375 9.234375 16.796875 8.0625 
Q 21.484375 6.890625 26.703125 6.890625 
Q 35.15625 6.890625 40.078125 11.328125 
Q 45.015625 15.765625 45.015625 23.390625 
Q 45.015625 31 40.078125 35.4375 
Q 35.15625 39.890625 26.703125 39.890625 
Q 22.75 39.890625 18.8125 39.015625 
Q 14.890625 38.140625 10.796875 36.28125 
z
" id="DejaVuSans-35"/>
     <path d="M 12.5 -9.28125 
L 15.921875 -9.28125 
Q 22.75 -9.28125 24.828125 -7.171875 
Q 26.90625 -5.078125 26.90625 1.90625 
L 26.90625 14.015625 
Q 26.90625 21.625 29.09375 25.09375 
Q 31.296875 28.5625 36.71875 29.890625 
Q 31.296875 31.109375 29.09375 34.5625 
Q 26.90625 38.03125 26.90625 45.703125 
L 26.90625 57.8125 
Q 26.90625 64.75 24.828125 66.875 
Q 22.75 69 15.921875 69 
L 12.5 69 
L 12.5 75.984375 
L 15.578125 75.984375 
Q 27.734375 75.984375 31.8125 72.390625 
Q 35.890625 68.796875 35.890625 58.015625 
L 35.890625 46.296875 
Q 35.890625 39.015625 38.515625 36.203125 
Q 41.15625 33.40625 48.09375 33.40625 
L 51.125 33.40625 
L 51.125 26.421875 
L 48.09375 26.421875 
Q 41.15625 26.421875 38.515625 23.578125 
Q 35.890625 20.75 35.890625 13.375 
L 35.890625 1.703125 
Q 35.890625 -9.078125 31.8125 -12.6875 
Q 27.734375 -16.3125 15.578125 -16.3125 
L 12.5 -16.3125 
z
" id="DejaVuSans-7d"/>
     <path d="M 11.71875 12.40625 
L 22.015625 12.40625 
L 22.015625 4 
L 14.015625 -11.625 
L 7.71875 -11.625 
L 11.71875 4 
z
" id="DejaVuSans-2c"/>
    </defs>
    <g transform="translate(240.4276 271.48976)scale(0.2 -0.2)">
     <use xlink:href="#DejaVuSans-7b"/>
     <use x="63.623047" xlink:href="#DejaVuSans-66"/>
     <use x="98.828125" xlink:href="#DejaVuSans-31"/>
     <use x="162.451172" xlink:href="#DejaVuSans-2d"/>
     <use x="198.535156" xlink:href="#DejaVuSans-66"/>
     <use x="233.740234" xlink:href="#DejaVuSans-35"/>
     <use x="297.363281" xlink:href="#DejaVuSans-7d"/>
     <use x="360.986328" xlink:href="#DejaVuSans-2c"/>
     <use x="392.773438" xlink:href="#DejaVuSans-20"/>
     <use x="424.560547" xlink:href="#DejaVuSans-35"/>
     <use x="488.183594" xlink:href="#DejaVuSans-2d"/>
     <use x="524.267578" xlink:href="#DejaVuSans-44"/>
    </g>
   </g>
   <g id="text_7">
    <!-- v2.1 -->
    <defs>
     <path d="M 2.984375 54.6875 
L 12.5 54.6875 
L 29.59375 8.796875 
L 46.6875 54.6875 
L 56.203125 54.6875 
L 35.6875 0 
L 23.484375 0 
z
" id="DejaVuSans-76"/>
     <path d="M 19.1875 8.296875 
L 53.609375 8.296875 
L 53.609375 0 
L 7.328125 0 
L 7.328125 8.296875 
Q 12.9375 14.109375 22.625 23.890625 
Q 32.328125 33.6875 34.8125 36.53125 
Q 39.546875 41.84375 41.421875 45.53125 
Q 43.3125 49.21875 43.3125 52.78125 
Q 43.3125 58.59375 39.234375 62.25 
Q 35.15625 65.921875 28.609375 65.921875 
Q 23.96875 65.921875 18.8125 64.3125 
Q 13.671875 62.703125 7.8125 59.421875 
L 7.8125 69.390625 
Q 13.765625 71.78125 18.9375 73 
Q 24.125 74.21875 28.421875 74.21875 
Q 39.75 74.21875 46.484375 68.546875 
Q 53.21875 62.890625 53.21875 53.421875 
Q 53.21875 48.921875 51.53125 44.890625 
Q 49.859375 40.875 45.40625 35.40625 
Q 44.1875 33.984375 37.640625 27.21875 
Q 31.109375 20.453125 19.1875 8.296875 
" id="DejaVuSans-32"/>
     <path d="M 10.6875 12.40625 
L 21 12.40625 
L 21 0 
L 10.6875 0 
z
" id="DejaVuSans-2e"/>
    </defs>
    <g style="fill:#808080;" transform="translate(178.349063 272.071193)scale(0.1 -0.1)">
     <use xlink:href="#DejaVuSans-76"/>
     <use x="59.179688" xlink:href="#DejaVuSans-32"/>
     <use x="122.802734" xlink:href="#DejaVuSans-2e"/>
     <use x="154.589844" xlink:href="#DejaVuSans-31"/>
    </g>
   </g>
  </g>
 </g>
 <defs>
  <clipPath id="p480e2cae94">
   <rect height="266.112" width="357.12" x="10.7" y="10.7"/>
  </clipPath>
 </defs>
</svg>
