<?xml version="1.0" encoding="utf-8" standalone="no"?>
<!DOCTYPE svg PUBLIC "-//W3C//DTD SVG 1.1//EN"
  "http://www.w3.org/Graphics/SVG/1.1/DTD/svg11.dtd">
<!-- Created with matplotlib (http://matplotlib.org/) -->
<svg height="333pt" version="1.1" viewBox="0 0 378 333" width="378pt" xmlns="http://www.w3.org/2000/svg" xmlns:xlink="http://www.w3.org/1999/xlink">
 <defs>
  <style type="text/css">
*{stroke-linecap:butt;stroke-linejoin:round;}
  </style>
 </defs>
 <g id="figure_1">
  <g id="patch_1">
   <path d="M 0 333.7245 
L 378.52 333.7245 
L 378.52 0 
L 0 0 
z
" style="fill:#ffffff;"/>
  </g>
  <g id="axes_1">
   <g id="patch_2">
    <path d="M 10.7 276.812 
L 367.82 276.812 
L 367.82 10.7 
L 10.7 10.7 
z
" style="fill:#ffffff;"/>
   </g>
   <g id="matplotlib.axis_1">
    <g id="xtick_1">
     <g id="line2d_1">
      <path clip-path="url(#paacb0804bf)" d="M 10.619996 276.812 
L 10.619996 10.7 
" style="fill:none;stroke:#b0b0b0;stroke-linecap:square;stroke-width:0.8;"/>
     </g>
     <g id="line2d_2">
      <defs>
       <path d="M 0 0 
L 0 3.5 
" id="m066402ab80" style="stroke:#000000;stroke-width:0.8;"/>
      </defs>
      <g>
       <use style="stroke:#000000;stroke-width:0.8;" x="10.619996" xlink:href="#m066402ab80" y="276.812"/>
      </g>
     </g>
    </g>
    <g id="xtick_2">
     <g id="line2d_3">
      <path clip-path="url(#paacb0804bf)" d="M 84.673798 276.812 
L 84.673798 10.7 
" style="fill:none;stroke:#b0b0b0;stroke-linecap:square;stroke-width:0.8;"/>
     </g>
     <g id="line2d_4">
      <g>
       <use style="stroke:#000000;stroke-width:0.8;" x="84.673798" xlink:href="#m066402ab80" y="276.812"/>
      </g>
     </g>
     <g id="text_1">
      <!-- -4 -->
      <defs>
       <path d="M 4.890625 31.390625 
L 31.203125 31.390625 
L 31.203125 23.390625 
L 4.890625 23.390625 
z
" id="DejaVuSans-2d"/>
       <path d="M 37.796875 64.3125 
L 12.890625 25.390625 
L 37.796875 25.390625 
z
M 35.203125 72.90625 
L 47.609375 72.90625 
L 47.609375 25.390625 
L 58.015625 25.390625 
L 58.015625 17.1875 
L 47.609375 17.1875 
L 47.609375 0 
L 37.796875 0 
L 37.796875 17.1875 
L 4.890625 17.1875 
L 4.890625 26.703125 
z
" id="DejaVuSans-34"/>
      </defs>
      <g transform="translate(74.703485 299.008875)scale(0.2 -0.2)">
       <use xlink:href="#DejaVuSans-2d"/>
       <use x="36.083984" xlink:href="#DejaVuSans-34"/>
      </g>
     </g>
    </g>
    <g id="xtick_3">
     <g id="line2d_5">
      <path clip-path="url(#paacb0804bf)" d="M 158.727599 276.812 
L 158.727599 10.7 
" style="fill:none;stroke:#b0b0b0;stroke-linecap:square;stroke-width:0.8;"/>
     </g>
     <g id="line2d_6">
      <g>
       <use style="stroke:#000000;stroke-width:0.8;" x="158.727599" xlink:href="#m066402ab80" y="276.812"/>
      </g>
     </g>
     <g id="text_2">
      <!-- 0 -->
      <defs>
       <path d="M 31.78125 66.40625 
Q 24.171875 66.40625 20.328125 58.90625 
Q 16.5 51.421875 16.5 36.375 
Q 16.5 21.390625 20.328125 13.890625 
Q 24.171875 6.390625 31.78125 6.390625 
Q 39.453125 6.390625 43.28125 13.890625 
Q 47.125 21.390625 47.125 36.375 
Q 47.125 51.421875 43.28125 58.90625 
Q 39.453125 66.40625 31.78125 66.40625 
M 31.78125 74.21875 
Q 44.046875 74.21875 50.515625 64.515625 
Q 56.984375 54.828125 56.984375 36.375 
Q 56.984375 17.96875 50.515625 8.265625 
Q 44.046875 -1.421875 31.78125 -1.421875 
Q 19.53125 -1.421875 13.0625 8.265625 
Q 6.59375 17.96875 6.59375 36.375 
Q 6.59375 54.828125 13.0625 64.515625 
Q 19.53125 74.21875 31.78125 74.21875 
" id="DejaVuSans-30"/>
      </defs>
      <g transform="translate(152.365099 299.008875)scale(0.2 -0.2)">
       <use xlink:href="#DejaVuSans-30"/>
      </g>
     </g>
    </g>
    <g id="xtick_4">
     <g id="line2d_7">
      <path clip-path="url(#paacb0804bf)" d="M 232.781401 276.812 
L 232.781401 10.7 
" style="fill:none;stroke:#b0b0b0;stroke-linecap:square;stroke-width:0.8;"/>
     </g>
     <g id="line2d_8">
      <g>
       <use style="stroke:#000000;stroke-width:0.8;" x="232.781401" xlink:href="#m066402ab80" y="276.812"/>
      </g>
     </g>
     <g id="text_3">
      <!-- 4 -->
      <g transform="translate(226.418901 299.008875)scale(0.2 -0.2)">
       <use xlink:href="#DejaVuSans-34"/>
      </g>
     </g>
    </g>
    <g id="xtick_5">
     <g id="line2d_9">
      <path clip-path="url(#paacb0804bf)" d="M 306.835202 276.812 
L 306.835202 10.7 
" style="fill:none;stroke:#b0b0b0;stroke-linecap:square;stroke-width:0.8;"/>
     </g>
     <g id="line2d_10">
      <g>
       <use style="stroke:#000000;stroke-width:0.8;" x="306.835202" xlink:href="#m066402ab80" y="276.812"/>
      </g>
     </g>
     <g id="text_4">
      <!-- 8 -->
      <defs>
       <path d="M 31.78125 34.625 
Q 24.75 34.625 20.71875 30.859375 
Q 16.703125 27.09375 16.703125 20.515625 
Q 16.703125 13.921875 20.71875 10.15625 
Q 24.75 6.390625 31.78125 6.390625 
Q 38.8125 6.390625 42.859375 10.171875 
Q 46.921875 13.96875 46.921875 20.515625 
Q 46.921875 27.09375 42.890625 30.859375 
Q 38.875 34.625 31.78125 34.625 
M 21.921875 38.8125 
Q 15.578125 40.375 12.03125 44.71875 
Q 8.5 49.078125 8.5 55.328125 
Q 8.5 64.0625 14.71875 69.140625 
Q 20.953125 74.21875 31.78125 74.21875 
Q 42.671875 74.21875 48.875 69.140625 
Q 55.078125 64.0625 55.078125 55.328125 
Q 55.078125 49.078125 51.53125 44.71875 
Q 48 40.375 41.703125 38.8125 
Q 48.828125 37.15625 52.796875 32.3125 
Q 56.78125 27.484375 56.78125 20.515625 
Q 56.78125 9.90625 50.3125 4.234375 
Q 43.84375 -1.421875 31.78125 -1.421875 
Q 19.734375 -1.421875 13.25 4.234375 
Q 6.78125 9.90625 6.78125 20.515625 
Q 6.78125 27.484375 10.78125 32.3125 
Q 14.796875 37.15625 21.921875 38.8125 
M 18.3125 54.390625 
Q 18.3125 48.734375 21.84375 45.5625 
Q 25.390625 42.390625 31.78125 42.390625 
Q 38.140625 42.390625 41.71875 45.5625 
Q 45.3125 48.734375 45.3125 54.390625 
Q 45.3125 60.0625 41.71875 63.234375 
Q 38.140625 66.40625 31.78125 66.40625 
Q 25.390625 66.40625 21.84375 63.234375 
Q 18.3125 60.0625 18.3125 54.390625 
" id="DejaVuSans-38"/>
      </defs>
      <g transform="translate(300.472702 299.008875)scale(0.2 -0.2)">
       <use xlink:href="#DejaVuSans-38"/>
      </g>
     </g>
    </g>
    <g id="text_5">
     <!-- log10 of Df -->
     <defs>
      <path d="M 9.421875 75.984375 
L 18.40625 75.984375 
L 18.40625 0 
L 9.421875 0 
z
" id="DejaVuSans-6c"/>
      <path d="M 30.609375 48.390625 
Q 23.390625 48.390625 19.1875 42.75 
Q 14.984375 37.109375 14.984375 27.296875 
Q 14.984375 17.484375 19.15625 11.84375 
Q 23.34375 6.203125 30.609375 6.203125 
Q 37.796875 6.203125 41.984375 11.859375 
Q 46.1875 17.53125 46.1875 27.296875 
Q 46.1875 37.015625 41.984375 42.703125 
Q 37.796875 48.390625 30.609375 48.390625 
M 30.609375 56 
Q 42.328125 56 49.015625 48.375 
Q 55.71875 40.765625 55.71875 27.296875 
Q 55.71875 13.875 49.015625 6.21875 
Q 42.328125 -1.421875 30.609375 -1.421875 
Q 18.84375 -1.421875 12.171875 6.21875 
Q 5.515625 13.875 5.515625 27.296875 
Q 5.515625 40.765625 12.171875 48.375 
Q 18.84375 56 30.609375 56 
" id="DejaVuSans-6f"/>
      <path d="M 45.40625 27.984375 
Q 45.40625 37.75 41.375 43.109375 
Q 37.359375 48.484375 30.078125 48.484375 
Q 22.859375 48.484375 18.828125 43.109375 
Q 14.796875 37.75 14.796875 27.984375 
Q 14.796875 18.265625 18.828125 12.890625 
Q 22.859375 7.515625 30.078125 7.515625 
Q 37.359375 7.515625 41.375 12.890625 
Q 45.40625 18.265625 45.40625 27.984375 
M 54.390625 6.78125 
Q 54.390625 -7.171875 48.1875 -13.984375 
Q 42 -20.796875 29.203125 -20.796875 
Q 24.46875 -20.796875 20.265625 -20.09375 
Q 16.0625 -19.390625 12.109375 -17.921875 
L 12.109375 -9.1875 
Q 16.0625 -11.328125 19.921875 -12.34375 
Q 23.78125 -13.375 27.78125 -13.375 
Q 36.625 -13.375 41.015625 -8.765625 
Q 45.40625 -4.15625 45.40625 5.171875 
L 45.40625 9.625 
Q 42.625 4.78125 38.28125 2.390625 
Q 33.9375 0 27.875 0 
Q 17.828125 0 11.671875 7.65625 
Q 5.515625 15.328125 5.515625 27.984375 
Q 5.515625 40.671875 11.671875 48.328125 
Q 17.828125 56 27.875 56 
Q 33.9375 56 38.28125 53.609375 
Q 42.625 51.21875 45.40625 46.390625 
L 45.40625 54.6875 
L 54.390625 54.6875 
z
" id="DejaVuSans-67"/>
      <path d="M 12.40625 8.296875 
L 28.515625 8.296875 
L 28.515625 63.921875 
L 10.984375 60.40625 
L 10.984375 69.390625 
L 28.421875 72.90625 
L 38.28125 72.90625 
L 38.28125 8.296875 
L 54.390625 8.296875 
L 54.390625 0 
L 12.40625 0 
z
" id="DejaVuSans-31"/>
      <path id="DejaVuSans-20"/>
      <path d="M 37.109375 75.984375 
L 37.109375 68.5 
L 28.515625 68.5 
Q 23.6875 68.5 21.796875 66.546875 
Q 19.921875 64.59375 19.921875 59.515625 
L 19.921875 54.6875 
L 34.71875 54.6875 
L 34.71875 47.703125 
L 19.921875 47.703125 
L 19.921875 0 
L 10.890625 0 
L 10.890625 47.703125 
L 2.296875 47.703125 
L 2.296875 54.6875 
L 10.890625 54.6875 
L 10.890625 58.5 
Q 10.890625 67.625 15.140625 71.796875 
Q 19.390625 75.984375 28.609375 75.984375 
z
" id="DejaVuSans-66"/>
      <path d="M 19.671875 64.796875 
L 19.671875 8.109375 
L 31.59375 8.109375 
Q 46.6875 8.109375 53.6875 14.9375 
Q 60.6875 21.78125 60.6875 36.53125 
Q 60.6875 51.171875 53.6875 57.984375 
Q 46.6875 64.796875 31.59375 64.796875 
z
M 9.8125 72.90625 
L 30.078125 72.90625 
Q 51.265625 72.90625 61.171875 64.09375 
Q 71.09375 55.28125 71.09375 36.53125 
Q 71.09375 17.671875 61.125 8.828125 
Q 51.171875 0 30.078125 0 
L 9.8125 0 
z
" id="DejaVuSans-44"/>
     </defs>
     <g transform="translate(134.074063 322.365125)scale(0.2 -0.2)">
      <use xlink:href="#DejaVuSans-6c"/>
      <use x="27.783203" xlink:href="#DejaVuSans-6f"/>
      <use x="88.964844" xlink:href="#DejaVuSans-67"/>
      <use x="152.441406" xlink:href="#DejaVuSans-31"/>
      <use x="216.064453" xlink:href="#DejaVuSans-30"/>
      <use x="279.6875" xlink:href="#DejaVuSans-20"/>
      <use x="311.474609" xlink:href="#DejaVuSans-6f"/>
      <use x="372.65625" xlink:href="#DejaVuSans-66"/>
      <use x="407.861328" xlink:href="#DejaVuSans-20"/>
      <use x="439.648438" xlink:href="#DejaVuSans-44"/>
      <use x="516.650391" xlink:href="#DejaVuSans-66"/>
     </g>
    </g>
   </g>
   <g id="matplotlib.axis_2">
    <g id="ytick_1">
     <g id="line2d_11">
      <path clip-path="url(#paacb0804bf)" d="M 10.7 276.812 
L 367.82 276.812 
" style="fill:none;stroke:#b0b0b0;stroke-linecap:square;stroke-width:0.8;"/>
     </g>
     <g id="line2d_12">
      <defs>
       <path d="M 0 0 
L -3.5 0 
" id="mfcb0ad9d2e" style="stroke:#000000;stroke-width:0.8;"/>
      </defs>
      <g>
       <use style="stroke:#000000;stroke-width:0.8;" x="10.7" xlink:href="#mfcb0ad9d2e" y="276.812"/>
      </g>
     </g>
    </g>
    <g id="ytick_2">
     <g id="line2d_13">
      <path clip-path="url(#paacb0804bf)" d="M 10.7 224.116554 
L 367.82 224.116554 
" style="fill:none;stroke:#b0b0b0;stroke-linecap:square;stroke-width:0.8;"/>
     </g>
     <g id="line2d_14">
      <g>
       <use style="stroke:#000000;stroke-width:0.8;" x="10.7" xlink:href="#mfcb0ad9d2e" y="224.116554"/>
      </g>
     </g>
    </g>
    <g id="ytick_3">
     <g id="line2d_15">
      <path clip-path="url(#paacb0804bf)" d="M 10.7 171.421109 
L 367.82 171.421109 
" style="fill:none;stroke:#b0b0b0;stroke-linecap:square;stroke-width:0.8;"/>
     </g>
     <g id="line2d_16">
      <g>
       <use style="stroke:#000000;stroke-width:0.8;" x="10.7" xlink:href="#mfcb0ad9d2e" y="171.421109"/>
      </g>
     </g>
    </g>
    <g id="ytick_4">
     <g id="line2d_17">
      <path clip-path="url(#paacb0804bf)" d="M 10.7 118.725663 
L 367.82 118.725663 
" style="fill:none;stroke:#b0b0b0;stroke-linecap:square;stroke-width:0.8;"/>
     </g>
     <g id="line2d_18">
      <g>
       <use style="stroke:#000000;stroke-width:0.8;" x="10.7" xlink:href="#mfcb0ad9d2e" y="118.725663"/>
      </g>
     </g>
    </g>
    <g id="ytick_5">
     <g id="line2d_19">
      <path clip-path="url(#paacb0804bf)" d="M 10.7 66.030218 
L 367.82 66.030218 
" style="fill:none;stroke:#b0b0b0;stroke-linecap:square;stroke-width:0.8;"/>
     </g>
     <g id="line2d_20">
      <g>
       <use style="stroke:#000000;stroke-width:0.8;" x="10.7" xlink:href="#mfcb0ad9d2e" y="66.030218"/>
      </g>
     </g>
    </g>
    <g id="ytick_6">
     <g id="line2d_21">
      <path clip-path="url(#paacb0804bf)" d="M 10.7 13.334772 
L 367.82 13.334772 
" style="fill:none;stroke:#b0b0b0;stroke-linecap:square;stroke-width:0.8;"/>
     </g>
     <g id="line2d_22">
      <g>
       <use style="stroke:#000000;stroke-width:0.8;" x="10.7" xlink:href="#mfcb0ad9d2e" y="13.334772"/>
      </g>
     </g>
    </g>
   </g>
   <g id="line2d_23">
    <path clip-path="url(#paacb0804bf)" d="M -1 265.833782 
L 5.501324 265.833782 
L 5.501324 265.101901 
L 8.973124 265.101901 
L 8.973124 264.37002 
L 9.183637 264.37002 
L 9.274291 262.906257 
L 9.412395 262.906257 
L 9.412395 262.174376 
L 9.530935 262.174376 
L 9.530935 261.442495 
L 10.009925 261.442495 
L 10.009925 260.710614 
L 10.140201 260.710614 
L 10.235234 257.783089 
L 10.312792 257.783089 
L 10.423424 255.587446 
L 10.439087 255.587446 
L 10.543849 251.196158 
L 10.560977 251.196158 
L 10.608208 246.07299 
L 10.73923 246.07299 
L 10.73923 245.341109 
L 51.002268 245.341109 
L 51.002268 244.609228 
L 51.716636 244.609228 
L 51.716636 243.877347 
L 84.677397 243.877347 
L 84.715824 242.413584 
L 85.56405 242.413584 
L 85.627155 240.949822 
L 85.726422 240.949822 
L 85.833808 239.486059 
L 85.977687 239.486059 
L 85.977687 238.754178 
L 86.207597 238.754178 
L 86.269666 235.826653 
L 86.384018 235.826653 
L 86.468734 233.63101 
L 86.847781 233.63101 
L 86.847781 232.899129 
L 90.440901 232.899129 
L 90.440901 232.167248 
L 102.91957 232.167248 
L 102.91957 231.435366 
L 140.675886 231.435366 
L 140.675886 230.703485 
L 149.721427 230.703485 
L 149.721427 229.971604 
L 150.117735 229.971604 
L 150.117735 229.239723 
L 151.299835 229.239723 
L 151.299835 228.507842 
L 153.850568 228.507842 
L 153.850568 227.77596 
L 155.221039 227.77596 
L 155.221039 227.044079 
L 157.345256 227.044079 
L 157.345256 226.312198 
L 158.062148 226.312198 
L 158.062148 225.580317 
L 158.325955 225.580317 
L 158.343658 224.116554 
L 159.20565 224.116554 
L 159.20565 223.384673 
L 160.396891 223.384673 
L 160.396891 222.652792 
L 160.700147 222.652792 
L 160.700147 221.920911 
L 161.097022 221.920911 
L 161.18559 220.457149 
L 161.214069 220.457149 
L 161.214069 219.725267 
L 161.331163 219.725267 
L 161.331163 218.993386 
L 161.575877 218.993386 
L 161.575877 218.261505 
L 161.720587 218.261505 
L 161.720587 217.529624 
L 162.3185 217.529624 
L 162.402862 215.33398 
L 162.843048 215.33398 
L 162.890563 213.870218 
L 163.122584 213.870218 
L 163.16823 212.406455 
L 163.259114 212.406455 
L 163.349115 210.210812 
L 163.384326 210.210812 
L 163.490644 208.015168 
L 163.888472 208.015168 
L 163.909598 206.551406 
L 164.09082 206.551406 
L 164.196408 201.428238 
L 164.29823 201.428238 
L 164.29823 200.696356 
L 164.474339 200.696356 
L 164.520248 199.232594 
L 165.202312 199.232594 
L 165.309248 197.768832 
L 165.42369 197.768832 
L 165.527009 195.573188 
L 165.877194 195.573188 
L 165.877194 194.841307 
L 166.983873 194.841307 
L 166.983873 194.109426 
L 167.536801 194.109426 
L 167.536801 193.377545 
L 167.81623 193.377545 
L 167.83154 191.913782 
L 168.003442 191.913782 
L 168.013178 190.45002 
L 168.209253 190.45002 
L 168.209253 189.718139 
L 168.988124 189.718139 
L 168.988124 188.986257 
L 169.110739 188.986257 
L 169.110739 188.254376 
L 169.359582 188.254376 
L 169.359582 187.522495 
L 169.562574 187.522495 
L 169.562574 186.790614 
L 169.866388 186.790614 
L 169.889631 185.326851 
L 170.359283 185.326851 
L 170.412657 183.863089 
L 170.475758 183.863089 
L 170.475758 183.131208 
L 170.614549 183.131208 
L 170.690941 180.935564 
L 170.925923 180.935564 
L 170.925923 180.203683 
L 171.215567 180.203683 
L 171.313591 175.812396 
L 171.341743 175.812396 
L 171.447891 173.616752 
L 171.473391 173.616752 
L 171.578992 172.15299 
L 171.631338 172.15299 
L 171.730747 169.225465 
L 171.806343 169.225465 
L 171.868162 166.297941 
L 171.981218 166.297941 
L 172.079817 164.102297 
L 172.16371 164.102297 
L 172.16371 163.370416 
L 172.346046 163.370416 
L 172.371648 161.906653 
L 173.242096 161.906653 
L 173.242096 161.174772 
L 173.672924 161.174772 
L 173.672924 160.442891 
L 173.910537 160.442891 
L 173.998796 158.979129 
L 174.11236 158.979129 
L 174.170631 157.515366 
L 174.472543 157.515366 
L 174.569054 156.051604 
L 174.679375 156.051604 
L 174.729996 154.587842 
L 174.845117 154.587842 
L 174.845117 153.85596 
L 175.120026 153.85596 
L 175.20983 152.392198 
L 175.944504 152.392198 
L 175.975394 150.928436 
L 176.160754 150.928436 
L 176.165287 147.26903 
L 176.280233 147.26903 
L 176.280233 146.537149 
L 176.453342 146.537149 
L 176.540351 143.609624 
L 176.605226 143.609624 
L 176.605226 142.877743 
L 176.757307 142.877743 
L 176.812778 141.41398 
L 176.934317 141.41398 
L 176.934317 140.682099 
L 177.184931 140.682099 
L 177.184931 139.950218 
L 177.304622 139.950218 
L 177.304622 139.218337 
L 177.698438 139.218337 
L 177.711725 137.754574 
L 178.09867 137.754574 
L 178.09867 136.290812 
L 178.409623 136.290812 
L 178.409623 135.558931 
L 179.092794 135.558931 
L 179.092794 134.82705 
L 179.563547 134.82705 
L 179.563547 134.095168 
L 179.885773 134.095168 
L 179.885773 133.363287 
L 180.086817 133.363287 
L 180.086817 132.631406 
L 180.212339 132.631406 
L 180.274692 131.167644 
L 180.38572 131.167644 
L 180.480977 128.972 
L 180.68689 128.972 
L 180.68689 128.240119 
L 181.078911 128.240119 
L 181.078911 127.508238 
L 181.356901 127.508238 
L 181.41162 126.044475 
L 181.56018 126.044475 
L 181.668716 124.580713 
L 181.865214 124.580713 
L 181.865214 123.848832 
L 182.010544 123.848832 
L 182.094779 122.385069 
L 182.215005 122.385069 
L 182.250672 120.921307 
L 182.586814 120.921307 
L 182.586814 120.189426 
L 182.967425 120.189426 
L 182.967425 119.457545 
L 183.208156 119.457545 
L 183.244763 117.993782 
L 183.359169 117.993782 
L 183.359169 117.261901 
L 183.499469 117.261901 
L 183.52275 115.798139 
L 184.02393 115.798139 
L 184.02393 115.066257 
L 184.420829 115.066257 
L 184.47123 113.602495 
L 184.76024 113.602495 
L 184.76024 112.870614 
L 184.88117 112.870614 
L 184.88117 112.138733 
L 185.257701 112.138733 
L 185.257701 111.406851 
L 185.410794 111.406851 
L 185.410794 110.67497 
L 185.814525 110.67497 
L 185.919743 109.211208 
L 186.151221 109.211208 
L 186.151221 108.479327 
L 186.487998 108.479327 
L 186.487998 107.747446 
L 186.911211 107.747446 
L 186.911211 107.015564 
L 187.532056 107.015564 
L 187.606733 105.551802 
L 188.256239 105.551802 
L 188.301893 104.08804 
L 189.060192 104.08804 
L 189.108606 102.624277 
L 189.577371 102.624277 
L 189.577371 101.892396 
L 190.434959 101.892396 
L 190.434959 101.160515 
L 192.021012 101.160515 
L 192.021012 100.428634 
L 192.596655 100.428634 
L 192.596655 99.696752 
L 193.71614 99.696752 
L 193.823911 98.23299 
L 194.058534 98.23299 
L 194.058534 97.501109 
L 194.469321 97.501109 
L 194.469321 96.769228 
L 194.686007 96.769228 
L 194.776861 94.573584 
L 194.866681 94.573584 
L 194.866681 93.841703 
L 195.097323 93.841703 
L 195.097323 93.109822 
L 195.336924 93.109822 
L 195.336924 92.377941 
L 195.848588 92.377941 
L 195.915639 90.914178 
L 196.332603 90.914178 
L 196.332603 90.182297 
L 196.52696 90.182297 
L 196.52696 89.450416 
L 196.874457 89.450416 
L 196.874457 88.718535 
L 197.179745 88.718535 
L 197.179745 87.986653 
L 197.312628 87.986653 
L 197.312628 87.254772 
L 197.50795 87.254772 
L 197.50795 86.522891 
L 198.126753 86.522891 
L 198.186071 85.059129 
L 198.532238 85.059129 
L 198.532238 84.327248 
L 198.750291 84.327248 
L 198.790491 82.863485 
L 199.227828 82.863485 
L 199.227828 82.131604 
L 199.442363 82.131604 
L 199.442363 81.399723 
L 199.691287 81.399723 
L 199.788758 79.204079 
L 199.837067 79.204079 
L 199.910889 77.008436 
L 200.074208 77.008436 
L 200.13353 75.544673 
L 200.301748 75.544673 
L 200.304631 74.080911 
L 200.454535 74.080911 
L 200.454535 73.34903 
L 200.96641 73.34903 
L 201.036062 71.885267 
L 201.083322 71.885267 
L 201.165369 70.421505 
L 201.246558 70.421505 
L 201.310659 68.957743 
L 201.44611 68.957743 
L 201.524523 67.49398 
L 201.563467 67.49398 
L 201.640746 64.566455 
L 201.67917 64.566455 
L 201.679203 63.102693 
L 201.830868 63.102693 
L 201.905597 61.638931 
L 202.016571 61.638931 
L 202.016571 60.90705 
L 202.269542 60.90705 
L 202.269542 60.175168 
L 202.410598 60.175168 
L 202.514754 58.711406 
L 202.651664 58.711406 
L 202.651664 57.979525 
L 203.019268 57.979525 
L 203.019268 57.247644 
L 203.399139 57.247644 
L 203.427171 55.783881 
L 203.519095 55.783881 
L 203.519095 55.052 
L 203.69976 55.052 
L 203.759141 52.856356 
L 203.886965 52.856356 
L 203.886965 52.124475 
L 204.986626 52.124475 
L 204.986626 51.392594 
L 205.115896 51.392594 
L 205.115896 50.660713 
L 205.781964 50.660713 
L 205.854921 49.19695 
L 206.079509 49.19695 
L 206.079509 48.465069 
L 206.404997 48.465069 
L 206.404997 47.733188 
L 206.864273 47.733188 
L 206.864273 47.001307 
L 207.44975 47.001307 
L 207.44975 46.269426 
L 212.418088 46.269426 
L 212.418088 45.537545 
L 212.796885 45.537545 
L 212.796885 44.805663 
L 213.479145 44.805663 
L 213.479145 44.073782 
L 214.613757 44.073782 
L 214.613757 43.341901 
L 215.041557 43.341901 
L 215.041557 42.61002 
L 215.939537 42.61002 
L 215.939537 41.878139 
L 217.211989 41.878139 
L 217.235391 40.414376 
L 217.759261 40.414376 
L 217.759261 39.682495 
L 217.917745 39.682495 
L 217.917745 38.950614 
L 218.059654 38.950614 
L 218.108693 37.486851 
L 218.644631 37.486851 
L 218.644631 36.75497 
L 219.898176 36.75497 
L 219.898176 36.023089 
L 220.162038 36.023089 
L 220.230713 34.559327 
L 221.410868 34.559327 
L 221.486068 33.095564 
L 221.652229 33.095564 
L 221.652229 32.363683 
L 221.928586 32.363683 
L 221.928586 31.631802 
L 222.400007 31.631802 
L 222.400007 30.899921 
L 223.017282 30.899921 
L 223.017282 30.16804 
L 223.183343 30.16804 
L 223.283062 27.972396 
L 223.421916 27.972396 
L 223.421916 27.240515 
L 223.630366 27.240515 
L 223.630366 26.508634 
L 224.504244 26.508634 
L 224.504244 25.776752 
L 225.026125 25.776752 
L 225.026125 25.044871 
L 225.201633 25.044871 
L 225.201633 24.31299 
L 226.739941 24.31299 
L 226.739941 23.581109 
L 227.249981 23.581109 
L 227.249981 22.849228 
L 228.397949 22.849228 
L 228.397949 22.117347 
L 229.397599 22.117347 
L 229.397599 21.385465 
L 230.140382 21.385465 
L 230.140382 20.653584 
L 230.455939 20.653584 
L 230.455939 19.921703 
L 232.36469 19.921703 
L 232.36469 19.189822 
L 233.734746 19.189822 
L 233.734746 18.457941 
L 234.403745 18.457941 
L 234.403745 17.726059 
L 234.585216 17.726059 
L 234.585216 16.994178 
L 235.275775 16.994178 
L 235.275775 16.262297 
L 235.533439 16.262297 
L 235.533439 15.530416 
L 240.310566 15.530416 
L 240.310566 14.798535 
L 241.167033 14.798535 
L 241.167033 14.066653 
L 241.591003 14.066653 
L 241.591003 13.334772 
L 241.591003 13.334772 
L 367.82 13.334772 
L 367.82 13.334772 
" style="fill:none;stroke:#ff0000;stroke-linecap:square;stroke-width:3;"/>
   </g>
   <g id="line2d_24">
    <path clip-path="url(#paacb0804bf)" d="M 173.425582 276.812 
L 173.425582 276.080119 
L 175.898578 276.080119 
L 175.898578 275.348238 
L 178.809726 275.348238 
L 178.809726 274.616356 
L 179.092685 274.616356 
L 179.092685 273.884475 
L 180.07002 273.884475 
L 180.07002 273.152594 
L 180.295969 273.152594 
L 180.295969 272.420713 
L 180.555023 272.420713 
L 180.61545 270.95695 
L 181.040225 270.95695 
L 181.040225 270.225069 
L 181.347161 270.225069 
L 181.347161 269.493188 
L 181.933685 269.493188 
L 181.939082 268.029426 
L 182.382872 268.029426 
L 182.382872 267.297545 
L 182.560103 267.297545 
L 182.560103 266.565663 
L 183.233955 266.565663 
L 183.233955 265.833782 
L 184.101717 265.833782 
L 184.101717 265.101901 
L 184.365386 265.101901 
L 184.365386 264.37002 
L 185.139428 264.37002 
L 185.139428 263.638139 
L 185.909815 263.638139 
L 185.909815 262.906257 
L 186.075323 262.906257 
L 186.075323 262.174376 
L 186.312275 262.174376 
L 186.312275 261.442495 
L 186.843233 261.442495 
L 186.921536 259.246851 
L 187.331723 259.246851 
L 187.331723 258.51497 
L 187.50849 258.51497 
L 187.579661 257.051208 
L 188.727891 257.051208 
L 188.727891 256.319327 
L 189.942912 256.319327 
L 189.942912 255.587446 
L 190.073119 255.587446 
L 190.180075 254.123683 
L 190.197408 254.123683 
L 190.197408 253.391802 
L 190.40636 253.391802 
L 190.440592 251.196158 
L 190.541388 251.196158 
L 190.541388 250.464277 
L 190.708079 250.464277 
L 190.708079 249.732396 
L 190.84127 249.732396 
L 190.84127 249.000515 
L 191.225236 249.000515 
L 191.225236 248.268634 
L 191.56282 248.268634 
L 191.56282 247.536752 
L 191.769398 247.536752 
L 191.769398 246.804871 
L 191.903611 246.804871 
L 191.903611 246.07299 
L 192.129796 246.07299 
L 192.197456 244.609228 
L 192.514894 244.609228 
L 192.514894 243.877347 
L 192.653582 243.877347 
L 192.653582 243.145465 
L 193.344676 243.145465 
L 193.344676 242.413584 
L 193.769607 242.413584 
L 193.810327 240.949822 
L 193.901255 240.949822 
L 193.901255 240.217941 
L 194.021919 240.217941 
L 194.021919 239.486059 
L 194.188759 239.486059 
L 194.279989 236.558535 
L 194.323842 236.558535 
L 194.434137 231.435366 
L 194.44909 231.435366 
L 194.548895 221.18903 
L 194.562023 221.18903 
L 194.585479 216.065861 
L 194.833278 216.065861 
L 194.930334 213.138337 
L 195.08229 213.138337 
L 195.167815 210.942693 
L 195.596855 210.942693 
L 195.672391 209.478931 
L 196.03936 209.478931 
L 196.03936 208.74705 
L 196.190105 208.74705 
L 196.190105 208.015168 
L 196.332284 208.015168 
L 196.378629 206.551406 
L 196.617977 206.551406 
L 196.617977 205.819525 
L 196.821858 205.819525 
L 196.821858 205.087644 
L 197.444071 205.087644 
L 197.444071 204.355762 
L 197.708615 204.355762 
L 197.708615 203.623881 
L 198.134804 203.623881 
L 198.134804 202.892 
L 198.414217 202.892 
L 198.414217 202.160119 
L 198.586755 202.160119 
L 198.604211 199.964475 
L 199.122793 199.964475 
L 199.122793 199.232594 
L 199.978984 199.232594 
L 200.086017 197.768832 
L 200.150977 197.768832 
L 200.213296 196.305069 
L 200.397548 196.305069 
L 200.50443 194.109426 
L 200.695991 194.109426 
L 200.795362 192.645663 
L 200.925628 192.645663 
L 200.994062 191.181901 
L 201.52127 191.181901 
L 201.52127 190.45002 
L 201.763266 190.45002 
L 201.770205 188.986257 
L 201.905676 188.986257 
L 201.905676 188.254376 
L 202.113046 188.254376 
L 202.213226 186.790614 
L 202.330715 186.790614 
L 202.330715 186.058733 
L 202.611124 186.058733 
L 202.611124 185.326851 
L 202.849067 185.326851 
L 202.849067 184.59497 
L 203.44198 184.59497 
L 203.479171 183.131208 
L 203.643659 183.131208 
L 203.699256 181.667446 
L 203.883485 181.667446 
L 203.883485 180.935564 
L 204.110223 180.935564 
L 204.110223 180.203683 
L 204.234719 180.203683 
L 204.3282 177.276158 
L 204.422398 177.276158 
L 204.422398 176.544277 
L 204.590049 176.544277 
L 204.590049 175.812396 
L 204.766371 175.812396 
L 204.766371 175.080515 
L 204.98473 175.080515 
L 205.057136 173.616752 
L 205.194403 173.616752 
L 205.194403 172.884871 
L 205.495123 172.884871 
L 205.495123 172.15299 
L 205.755293 172.15299 
L 205.755293 171.421109 
L 205.896721 171.421109 
L 205.959012 169.957347 
L 206.054955 169.957347 
L 206.054955 169.225465 
L 206.723076 169.225465 
L 206.790891 167.761703 
L 207.34657 167.761703 
L 207.34657 167.029822 
L 210.091447 167.029822 
L 210.091447 166.297941 
L 210.395212 166.297941 
L 210.395212 165.566059 
L 210.782463 165.566059 
L 210.782463 164.834178 
L 211.154686 164.834178 
L 211.154686 164.102297 
L 211.418324 164.102297 
L 211.418324 163.370416 
L 211.900898 163.370416 
L 211.900898 162.638535 
L 212.041651 162.638535 
L 212.059008 161.174772 
L 212.366562 161.174772 
L 212.366562 160.442891 
L 212.657997 160.442891 
L 212.657997 159.71101 
L 212.952494 159.71101 
L 212.952494 158.979129 
L 213.093914 158.979129 
L 213.138408 157.515366 
L 213.449657 157.515366 
L 213.449657 156.783485 
L 214.024827 156.783485 
L 214.024827 156.051604 
L 215.397198 156.051604 
L 215.397198 155.319723 
L 215.923008 155.319723 
L 215.923008 154.587842 
L 216.162019 154.587842 
L 216.213536 153.124079 
L 216.301997 153.124079 
L 216.301997 152.392198 
L 216.525994 152.392198 
L 216.525994 151.660317 
L 217.383383 151.660317 
L 217.383383 150.928436 
L 217.575219 150.928436 
L 217.575219 150.196554 
L 218.035459 150.196554 
L 218.035459 149.464673 
L 218.261656 149.464673 
L 218.261656 148.732792 
L 218.442169 148.732792 
L 218.442169 148.000911 
L 218.769318 148.000911 
L 218.852498 146.537149 
L 219.035282 146.537149 
L 219.095355 145.073386 
L 219.163364 145.073386 
L 219.163364 144.341505 
L 219.520013 144.341505 
L 219.586952 141.41398 
L 219.910954 141.41398 
L 219.910954 140.682099 
L 220.072634 140.682099 
L 220.113571 139.218337 
L 220.249794 139.218337 
L 220.249794 138.486455 
L 220.586051 138.486455 
L 220.586051 137.754574 
L 220.812159 137.754574 
L 220.812159 137.022693 
L 221.365994 137.022693 
L 221.365994 136.290812 
L 221.563062 136.290812 
L 221.658719 134.82705 
L 222.012984 134.82705 
L 222.110387 133.363287 
L 222.173793 133.363287 
L 222.173793 132.631406 
L 222.398554 132.631406 
L 222.463175 130.435762 
L 222.538985 130.435762 
L 222.649259 128.972 
L 222.687231 128.972 
L 222.687231 128.240119 
L 222.932189 128.240119 
L 222.990525 126.776356 
L 223.34179 126.776356 
L 223.375318 124.580713 
L 223.541403 124.580713 
L 223.549538 123.11695 
L 223.730595 123.11695 
L 223.781935 119.457545 
L 223.961988 119.457545 
L 224.051991 117.261901 
L 224.260051 117.261901 
L 224.353527 114.334376 
L 224.448782 114.334376 
L 224.490657 112.870614 
L 224.595354 112.870614 
L 224.651056 111.406851 
L 225.184293 111.406851 
L 225.231072 109.211208 
L 225.334931 109.211208 
L 225.334931 108.479327 
L 225.569532 108.479327 
L 225.595075 107.015564 
L 225.99361 107.015564 
L 225.99361 106.283683 
L 227.296216 106.283683 
L 227.317513 104.819921 
L 227.565714 104.819921 
L 227.565714 104.08804 
L 228.937396 104.08804 
L 228.937396 103.356158 
L 229.229195 103.356158 
L 229.229195 102.624277 
L 230.294887 102.624277 
L 230.346417 101.160515 
L 231.766603 101.160515 
L 231.766603 100.428634 
L 231.967271 100.428634 
L 231.967271 99.696752 
L 234.641804 99.696752 
L 234.641804 98.964871 
L 236.186316 98.964871 
L 236.186316 98.23299 
L 236.811896 98.23299 
L 236.811896 97.501109 
L 238.389921 97.501109 
L 238.389921 96.769228 
L 241.646076 96.769228 
L 241.646076 96.037347 
L 246.164777 96.037347 
L 246.164777 95.305465 
L 248.661627 95.305465 
L 248.661627 94.573584 
L 251.472546 94.573584 
L 251.472546 93.841703 
L 252.885979 93.841703 
L 252.885979 93.109822 
L 253.256482 93.109822 
L 253.256482 92.377941 
L 254.748894 92.377941 
L 254.748894 91.646059 
L 254.895733 91.646059 
L 254.895733 90.914178 
L 255.028009 90.914178 
L 255.028009 90.182297 
L 255.777114 90.182297 
L 255.777114 89.450416 
L 256.243302 89.450416 
L 256.287605 87.986653 
L 256.806869 87.986653 
L 256.806869 87.254772 
L 257.195555 87.254772 
L 257.240706 85.79101 
L 257.539917 85.79101 
L 257.539917 85.059129 
L 257.660445 85.059129 
L 257.660445 84.327248 
L 258.348197 84.327248 
L 258.37411 82.863485 
L 258.763864 82.863485 
L 258.763864 82.131604 
L 259.206717 82.131604 
L 259.206717 81.399723 
L 259.441521 81.399723 
L 259.441521 80.667842 
L 259.837719 80.667842 
L 259.837719 79.93596 
L 260.003973 79.93596 
L 260.003973 79.204079 
L 260.133296 79.204079 
L 260.210205 77.740317 
L 260.381413 77.740317 
L 260.381413 77.008436 
L 260.529399 77.008436 
L 260.529399 76.276554 
L 260.683983 76.276554 
L 260.70981 74.812792 
L 260.914163 74.812792 
L 260.914163 74.080911 
L 261.135378 74.080911 
L 261.143162 72.617149 
L 262.219956 72.617149 
L 262.219956 71.885267 
L 262.421322 71.885267 
L 262.421322 71.153386 
L 262.811897 71.153386 
L 262.811897 70.421505 
L 262.935102 70.421505 
L 263.025921 67.49398 
L 264.020281 67.49398 
L 264.043262 66.030218 
L 264.328726 66.030218 
L 264.328726 65.298337 
L 265.275774 65.298337 
L 265.275774 64.566455 
L 265.871451 64.566455 
L 265.871451 63.834574 
L 266.010418 63.834574 
L 266.010418 63.102693 
L 266.234683 63.102693 
L 266.234683 62.370812 
L 266.507389 62.370812 
L 266.507389 61.638931 
L 266.62775 61.638931 
L 266.652309 60.175168 
L 266.859131 60.175168 
L 266.914743 58.711406 
L 267.791128 58.711406 
L 267.791128 57.979525 
L 268.87016 57.979525 
L 268.87016 57.247644 
L 269.066496 57.247644 
L 269.093585 55.783881 
L 269.452658 55.783881 
L 269.452658 55.052 
L 269.633144 55.052 
L 269.633144 54.320119 
L 270.14404 54.320119 
L 270.14404 53.588238 
L 270.315461 53.588238 
L 270.336988 52.124475 
L 270.44131 52.124475 
L 270.455302 50.660713 
L 270.68131 50.660713 
L 270.68131 49.928832 
L 273.678559 49.928832 
L 273.678559 49.19695 
L 274.001029 49.19695 
L 274.001029 48.465069 
L 274.165451 48.465069 
L 274.165451 47.733188 
L 274.330864 47.733188 
L 274.330864 47.001307 
L 275.0723 47.001307 
L 275.0723 46.269426 
L 279.413407 46.269426 
L 279.413407 45.537545 
L 282.981751 45.537545 
L 282.981751 44.805663 
L 283.824641 44.805663 
L 283.824641 44.073782 
L 284.201978 44.073782 
L 284.201978 43.341901 
L 284.854522 43.341901 
L 284.854522 42.61002 
L 285.522285 42.61002 
L 285.522285 41.878139 
L 286.263646 41.878139 
L 286.32298 39.682495 
L 286.665419 39.682495 
L 286.665419 38.950614 
L 286.890403 38.950614 
L 286.890403 38.218733 
L 287.055644 38.218733 
L 287.055644 37.486851 
L 287.488375 37.486851 
L 287.516765 36.023089 
L 288.170117 36.023089 
L 288.271849 33.827446 
L 289.010193 33.827446 
L 289.010193 33.095564 
L 289.315852 33.095564 
L 289.315852 32.363683 
L 290.07805 32.363683 
L 290.07805 31.631802 
L 291.963136 31.631802 
L 291.963136 30.899921 
L 292.570337 30.899921 
L 292.570337 30.16804 
L 293.226637 30.16804 
L 293.226637 29.436158 
L 294.193205 29.436158 
L 294.301861 27.240515 
L 294.467995 27.240515 
L 294.467995 26.508634 
L 296.225074 26.508634 
L 296.225074 25.776752 
L 297.456017 25.776752 
L 297.456017 25.044871 
L 300.655545 25.044871 
L 300.655545 24.31299 
L 314.845371 24.31299 
L 314.867433 22.849228 
L 315.055995 22.849228 
L 315.055995 22.117347 
L 315.60991 22.117347 
L 315.60991 21.385465 
L 318.042358 21.385465 
L 318.042358 20.653584 
L 319.773677 20.653584 
L 319.773677 19.921703 
L 322.861298 19.921703 
L 322.861298 19.189822 
L 323.944756 19.189822 
L 323.973431 17.726059 
L 325.646288 17.726059 
L 325.646288 16.994178 
L 326.302152 16.994178 
L 326.302152 16.262297 
L 331.458019 16.262297 
L 331.458019 15.530416 
L 344.276208 15.530416 
L 344.276208 14.798535 
L 344.724882 14.798535 
L 344.724882 14.066653 
L 345.920854 14.066653 
L 345.920854 13.334772 
L 345.920854 13.334772 
L 367.82 13.334772 
L 367.82 13.334772 
" style="fill:none;stroke:#00bfbf;stroke-linecap:square;stroke-width:1.5;"/>
   </g>
   <g id="line2d_25">
    <path clip-path="url(#paacb0804bf)" d="M 173.425582 276.812 
L 173.425582 276.080119 
L 175.898578 276.080119 
L 175.898578 275.348238 
L 178.809726 275.348238 
L 178.809726 274.616356 
L 179.092685 274.616356 
L 179.092685 273.884475 
L 180.07002 273.884475 
L 180.07002 273.152594 
L 180.295969 273.152594 
L 180.295969 272.420713 
L 180.555023 272.420713 
L 180.61545 270.95695 
L 181.040225 270.95695 
L 181.040225 270.225069 
L 181.347161 270.225069 
L 181.347161 269.493188 
L 181.933685 269.493188 
L 181.939082 268.029426 
L 182.382872 268.029426 
L 182.382872 267.297545 
L 182.560103 267.297545 
L 182.560103 266.565663 
L 183.233955 266.565663 
L 183.233955 265.833782 
L 184.101717 265.833782 
L 184.101717 265.101901 
L 184.365386 265.101901 
L 184.365386 264.37002 
L 185.139428 264.37002 
L 185.139428 263.638139 
L 185.909815 263.638139 
L 185.909815 262.906257 
L 186.075323 262.906257 
L 186.075323 262.174376 
L 186.312275 262.174376 
L 186.312275 261.442495 
L 186.843233 261.442495 
L 186.921536 259.246851 
L 187.331723 259.246851 
L 187.331723 258.51497 
L 187.50849 258.51497 
L 187.579661 257.051208 
L 188.727891 257.051208 
L 188.727891 256.319327 
L 189.942912 256.319327 
L 189.942912 255.587446 
L 190.073119 255.587446 
L 190.180075 254.123683 
L 190.197408 254.123683 
L 190.197408 253.391802 
L 190.40636 253.391802 
L 190.440592 251.196158 
L 190.541388 251.196158 
L 190.541388 250.464277 
L 190.708079 250.464277 
L 190.708079 249.732396 
L 190.84127 249.732396 
L 190.84127 249.000515 
L 191.225236 249.000515 
L 191.225236 248.268634 
L 191.56282 248.268634 
L 191.56282 247.536752 
L 191.769398 247.536752 
L 191.769398 246.804871 
L 191.903611 246.804871 
L 191.903611 246.07299 
L 192.129796 246.07299 
L 192.197456 244.609228 
L 192.489373 244.609228 
L 192.514894 243.145465 
L 192.622811 243.145465 
L 192.653582 241.681703 
L 193.205341 241.681703 
L 193.205341 240.949822 
L 193.317149 240.949822 
L 193.317149 240.217941 
L 193.577187 240.217941 
L 193.577187 239.486059 
L 193.810327 239.486059 
L 193.810327 238.754178 
L 194.021919 238.754178 
L 194.035077 237.290416 
L 194.188759 237.290416 
L 194.279989 233.63101 
L 194.331051 233.63101 
L 194.434137 229.239723 
L 194.449468 229.239723 
L 194.548895 219.725267 
L 194.562023 219.725267 
L 194.585479 214.602099 
L 194.833278 214.602099 
L 194.930334 211.674574 
L 195.098896 211.674574 
L 195.098896 210.942693 
L 195.410979 210.942693 
L 195.410979 210.210812 
L 195.596855 210.210812 
L 195.672391 208.74705 
L 196.03936 208.74705 
L 196.03936 208.015168 
L 196.190105 208.015168 
L 196.190105 207.283287 
L 196.332284 207.283287 
L 196.378629 205.819525 
L 196.617977 205.819525 
L 196.617977 205.087644 
L 196.821858 205.087644 
L 196.821858 204.355762 
L 197.444071 204.355762 
L 197.444071 203.623881 
L 197.708615 203.623881 
L 197.708615 202.892 
L 197.852061 202.892 
L 197.852061 202.160119 
L 198.134804 202.160119 
L 198.134804 201.428238 
L 198.414217 201.428238 
L 198.414217 200.696356 
L 198.586755 200.696356 
L 198.604211 198.500713 
L 199.122793 198.500713 
L 199.122793 197.768832 
L 199.744841 197.768832 
L 199.744841 197.03695 
L 200.150977 197.03695 
L 200.213296 195.573188 
L 200.397548 195.573188 
L 200.50443 193.377545 
L 200.695991 193.377545 
L 200.795362 191.913782 
L 200.846332 191.913782 
L 200.925628 190.45002 
L 200.994062 190.45002 
L 200.994062 189.718139 
L 201.52127 189.718139 
L 201.52127 188.986257 
L 201.763266 188.986257 
L 201.789357 186.790614 
L 201.905676 186.790614 
L 201.905676 186.058733 
L 202.033603 186.058733 
L 202.113046 184.59497 
L 202.213226 184.59497 
L 202.232129 183.131208 
L 202.330715 183.131208 
L 202.409974 180.935564 
L 202.611124 180.935564 
L 202.611124 180.203683 
L 202.745188 180.203683 
L 202.745188 179.471802 
L 203.071707 179.471802 
L 203.071707 178.739921 
L 203.44198 178.739921 
L 203.44198 178.00804 
L 203.643659 178.00804 
L 203.707036 176.544277 
L 203.883485 176.544277 
L 203.883485 175.812396 
L 204.110223 175.812396 
L 204.110223 175.080515 
L 204.234719 175.080515 
L 204.234719 174.348634 
L 204.422398 174.348634 
L 204.422398 173.616752 
L 204.754177 173.616752 
L 204.766371 172.15299 
L 204.98473 172.15299 
L 205.057136 169.957347 
L 205.163979 169.957347 
L 205.163979 169.225465 
L 205.462325 169.225465 
L 205.462325 168.493584 
L 206.054955 168.493584 
L 206.054955 167.761703 
L 206.723076 167.761703 
L 206.723076 167.029822 
L 209.38422 167.029822 
L 209.38422 166.297941 
L 210.091447 166.297941 
L 210.091447 165.566059 
L 210.395212 165.566059 
L 210.395212 164.834178 
L 210.782463 164.834178 
L 210.782463 164.102297 
L 211.154686 164.102297 
L 211.154686 163.370416 
L 211.418324 163.370416 
L 211.418324 162.638535 
L 211.900898 162.638535 
L 211.900898 161.906653 
L 212.041651 161.906653 
L 212.059008 160.442891 
L 212.366562 160.442891 
L 212.366562 159.71101 
L 212.657997 159.71101 
L 212.657997 158.979129 
L 212.952494 158.979129 
L 212.952494 158.247248 
L 213.093914 158.247248 
L 213.138408 156.783485 
L 213.449657 156.783485 
L 213.449657 156.051604 
L 214.024827 156.051604 
L 214.024827 155.319723 
L 214.683928 155.319723 
L 214.683928 154.587842 
L 215.397198 154.587842 
L 215.397198 153.85596 
L 215.923008 153.85596 
L 215.923008 153.124079 
L 216.162019 153.124079 
L 216.213536 151.660317 
L 216.301997 151.660317 
L 216.301997 150.928436 
L 216.525994 150.928436 
L 216.525994 150.196554 
L 217.086632 150.196554 
L 217.086632 149.464673 
L 217.383383 149.464673 
L 217.383383 148.732792 
L 217.575219 148.732792 
L 217.575219 148.000911 
L 217.70148 148.000911 
L 217.70148 147.26903 
L 217.933116 147.26903 
L 218.041106 145.073386 
L 218.769318 145.073386 
L 218.852498 143.609624 
L 219.035282 143.609624 
L 219.095355 142.145861 
L 219.163364 142.145861 
L 219.163364 141.41398 
L 219.556825 141.41398 
L 219.586952 139.218337 
L 219.910954 139.218337 
L 219.910954 138.486455 
L 220.072634 138.486455 
L 220.167153 137.022693 
L 220.249794 137.022693 
L 220.306243 135.558931 
L 220.586051 135.558931 
L 220.666405 134.095168 
L 220.812159 134.095168 
L 220.812159 133.363287 
L 220.93115 133.363287 
L 221.000766 131.899525 
L 221.322491 131.899525 
L 221.322491 131.167644 
L 221.492039 131.167644 
L 221.563062 128.972 
L 221.658719 128.972 
L 221.658719 128.240119 
L 222.012984 128.240119 
L 222.110387 126.776356 
L 222.173793 126.776356 
L 222.173793 126.044475 
L 222.398554 126.044475 
L 222.463175 123.848832 
L 222.538985 123.848832 
L 222.649259 121.653188 
L 222.687231 121.653188 
L 222.687231 120.921307 
L 222.911445 120.921307 
L 222.911445 120.189426 
L 223.037015 120.189426 
L 223.037015 119.457545 
L 223.375318 119.457545 
L 223.375318 118.725663 
L 223.541403 118.725663 
L 223.549538 117.261901 
L 223.730595 117.261901 
L 223.772032 115.066257 
L 223.961988 115.066257 
L 223.997426 113.602495 
L 224.187368 113.602495 
L 224.260051 112.138733 
L 224.338994 112.138733 
L 224.448782 109.943089 
L 224.490657 109.943089 
L 224.490657 109.211208 
L 225.218158 109.211208 
L 225.231072 107.747446 
L 225.334931 107.747446 
L 225.334931 107.015564 
L 225.476395 107.015564 
L 225.569532 105.551802 
L 225.806895 105.551802 
L 225.806895 104.819921 
L 226.558371 104.819921 
L 226.558371 104.08804 
L 227.137802 104.08804 
L 227.137802 103.356158 
L 227.296216 103.356158 
L 227.317513 101.892396 
L 227.565714 101.892396 
L 227.565714 101.160515 
L 228.937396 101.160515 
L 228.937396 100.428634 
L 229.229195 100.428634 
L 229.229195 99.696752 
L 230.346417 99.696752 
L 230.346417 98.964871 
L 231.967271 98.964871 
L 231.967271 98.23299 
L 234.641804 98.23299 
L 234.641804 97.501109 
L 236.186316 97.501109 
L 236.186316 96.769228 
L 236.811896 96.769228 
L 236.811896 96.037347 
L 238.389921 96.037347 
L 238.389921 95.305465 
L 239.713574 95.305465 
L 239.713574 94.573584 
L 241.646076 94.573584 
L 241.646076 93.841703 
L 243.938485 93.841703 
L 243.938485 93.109822 
L 248.661627 93.109822 
L 248.661627 92.377941 
L 250.67962 92.377941 
L 250.67962 91.646059 
L 251.472546 91.646059 
L 251.472546 90.914178 
L 252.202956 90.914178 
L 252.202956 90.182297 
L 252.885979 90.182297 
L 252.885979 89.450416 
L 253.256482 89.450416 
L 253.256482 88.718535 
L 253.792494 88.718535 
L 253.792494 87.986653 
L 253.915815 87.986653 
L 253.915815 87.254772 
L 254.748894 87.254772 
L 254.748894 86.522891 
L 254.895733 86.522891 
L 254.895733 85.79101 
L 255.028009 85.79101 
L 255.028009 85.059129 
L 255.777114 85.059129 
L 255.777114 84.327248 
L 256.243302 84.327248 
L 256.243302 83.595366 
L 256.806869 83.595366 
L 256.806869 82.863485 
L 257.195555 82.863485 
L 257.240706 81.399723 
L 257.399332 81.399723 
L 257.399332 80.667842 
L 257.660445 80.667842 
L 257.660445 79.93596 
L 258.348197 79.93596 
L 258.37411 78.472198 
L 258.763864 78.472198 
L 258.763864 77.740317 
L 259.206717 77.740317 
L 259.206717 77.008436 
L 259.441521 77.008436 
L 259.441521 76.276554 
L 259.62451 76.276554 
L 259.62451 75.544673 
L 259.837719 75.544673 
L 259.837719 74.812792 
L 260.003973 74.812792 
L 260.003973 74.080911 
L 260.133296 74.080911 
L 260.210205 72.617149 
L 260.529399 72.617149 
L 260.529399 71.885267 
L 260.70981 71.885267 
L 260.70981 71.153386 
L 260.914163 71.153386 
L 260.914163 70.421505 
L 261.135378 70.421505 
L 261.135378 69.689624 
L 262.219956 69.689624 
L 262.219956 68.957743 
L 262.421322 68.957743 
L 262.421322 68.225861 
L 262.811897 68.225861 
L 262.811897 67.49398 
L 262.935102 67.49398 
L 263.025921 64.566455 
L 264.020281 64.566455 
L 264.043262 63.102693 
L 264.992315 63.102693 
L 264.992315 62.370812 
L 265.871451 62.370812 
L 265.871451 61.638931 
L 266.234683 61.638931 
L 266.234683 60.90705 
L 266.507389 60.90705 
L 266.507389 60.175168 
L 266.62775 60.175168 
L 266.652309 58.711406 
L 266.859131 58.711406 
L 266.914743 57.247644 
L 267.791128 57.247644 
L 267.791128 56.515762 
L 268.714247 56.515762 
L 268.788605 55.052 
L 268.87016 55.052 
L 268.87016 54.320119 
L 269.066496 54.320119 
L 269.066496 53.588238 
L 269.633144 53.588238 
L 269.633144 52.856356 
L 270.14404 52.856356 
L 270.14404 52.124475 
L 270.315461 52.124475 
L 270.336988 50.660713 
L 270.44131 50.660713 
L 270.44131 49.928832 
L 270.68131 49.928832 
L 270.68131 49.19695 
L 272.265644 49.19695 
L 272.265644 48.465069 
L 273.070568 48.465069 
L 273.070568 47.733188 
L 273.678559 47.733188 
L 273.678559 47.001307 
L 275.0723 47.001307 
L 275.0723 46.269426 
L 277.283631 46.269426 
L 277.283631 45.537545 
L 279.413407 45.537545 
L 279.413407 44.805663 
L 282.981751 44.805663 
L 282.981751 44.073782 
L 283.824641 44.073782 
L 283.932801 42.61002 
L 284.201978 42.61002 
L 284.201978 41.878139 
L 284.854522 41.878139 
L 284.854522 41.146257 
L 284.969349 41.146257 
L 284.969349 40.414376 
L 285.522285 40.414376 
L 285.522285 39.682495 
L 285.826906 39.682495 
L 285.826906 38.950614 
L 286.064558 38.950614 
L 286.064558 38.218733 
L 286.263646 38.218733 
L 286.32298 36.023089 
L 286.589419 36.023089 
L 286.589419 35.291208 
L 286.890403 35.291208 
L 286.890403 34.559327 
L 287.324794 34.559327 
L 287.375223 33.095564 
L 288.185709 33.095564 
L 288.271849 31.631802 
L 289.010193 31.631802 
L 289.010193 30.899921 
L 289.618669 30.899921 
L 289.618669 30.16804 
L 290.07805 30.16804 
L 290.07805 29.436158 
L 290.857897 29.436158 
L 290.857897 28.704277 
L 291.892613 28.704277 
L 291.892613 27.972396 
L 292.570337 27.972396 
L 292.570337 27.240515 
L 292.93436 27.240515 
L 292.93436 26.508634 
L 293.226637 26.508634 
L 293.226637 25.776752 
L 293.36489 25.776752 
L 293.36489 25.044871 
L 295.175885 25.044871 
L 295.175885 24.31299 
L 314.845371 24.31299 
L 314.867433 22.849228 
L 315.055995 22.849228 
L 315.055995 22.117347 
L 315.60991 22.117347 
L 315.60991 21.385465 
L 318.042358 21.385465 
L 318.042358 20.653584 
L 319.773677 20.653584 
L 319.773677 19.921703 
L 322.861298 19.921703 
L 322.861298 19.189822 
L 323.944756 19.189822 
L 323.973431 17.726059 
L 324.749973 17.726059 
L 324.749973 16.994178 
L 325.646288 16.994178 
L 325.646288 16.262297 
L 326.302152 16.262297 
L 326.302152 15.530416 
L 329.59633 15.530416 
L 329.59633 14.798535 
L 336.239198 14.798535 
L 336.239198 14.066653 
L 338.938333 14.066653 
L 338.938333 13.334772 
L 338.938333 13.334772 
L 367.82 13.334772 
L 367.82 13.334772 
" style="fill:none;stroke:#bf00bf;stroke-linecap:square;stroke-width:1.5;"/>
   </g>
   <g id="line2d_26">
    <path clip-path="url(#paacb0804bf)" d="M 173.425582 276.812 
L 173.425582 276.080119 
L 175.898578 276.080119 
L 175.898578 275.348238 
L 177.605864 275.348238 
L 177.605864 274.616356 
L 178.201444 274.616356 
L 178.201444 273.884475 
L 178.809726 273.884475 
L 178.809726 273.152594 
L 179.092685 273.152594 
L 179.092685 272.420713 
L 179.635236 272.420713 
L 179.635236 271.688832 
L 180.295969 271.688832 
L 180.295969 270.95695 
L 180.42264 270.95695 
L 180.42264 270.225069 
L 180.555023 270.225069 
L 180.555023 269.493188 
L 180.960025 269.493188 
L 181.019743 268.029426 
L 181.761017 268.029426 
L 181.761017 267.297545 
L 182.126337 267.297545 
L 182.163743 265.833782 
L 183.192198 265.833782 
L 183.192198 265.101901 
L 184.090022 265.101901 
L 184.090022 264.37002 
L 184.365386 264.37002 
L 184.365386 263.638139 
L 185.139428 263.638139 
L 185.139428 262.906257 
L 185.909815 262.906257 
L 185.909815 262.174376 
L 186.075323 262.174376 
L 186.075323 261.442495 
L 186.267877 261.442495 
L 186.312275 259.978733 
L 186.451403 259.978733 
L 186.451403 259.246851 
L 186.662664 259.246851 
L 186.662664 258.51497 
L 186.843233 258.51497 
L 186.921536 256.319327 
L 187.331723 256.319327 
L 187.331723 255.587446 
L 187.50849 255.587446 
L 187.579661 254.123683 
L 188.727891 254.123683 
L 188.838211 252.659921 
L 189.523045 252.659921 
L 189.523045 251.92804 
L 190.042345 251.92804 
L 190.073119 250.464277 
L 190.180075 250.464277 
L 190.180075 249.732396 
L 190.40636 249.732396 
L 190.43782 248.268634 
L 190.541388 248.268634 
L 190.541388 247.536752 
L 190.708079 247.536752 
L 190.723683 246.07299 
L 190.864159 246.07299 
L 190.864159 245.341109 
L 191.133537 245.341109 
L 191.133537 244.609228 
L 191.56282 244.609228 
L 191.56282 243.877347 
L 191.903611 243.877347 
L 191.903611 243.145465 
L 192.197456 243.145465 
L 192.197456 242.413584 
L 192.489373 242.413584 
L 192.514894 240.949822 
L 192.622811 240.949822 
L 192.653582 238.754178 
L 192.929143 238.754178 
L 192.948042 237.290416 
L 193.317149 237.290416 
L 193.317149 236.558535 
L 193.492533 236.558535 
L 193.576425 235.094772 
L 193.975894 235.094772 
L 194.035077 232.899129 
L 194.188759 232.899129 
L 194.284401 229.239723 
L 194.331051 229.239723 
L 194.434137 224.116554 
L 194.449468 224.116554 
L 194.550633 214.602099 
L 194.562023 214.602099 
L 194.670117 208.74705 
L 194.833278 208.74705 
L 194.891079 205.819525 
L 195.097626 205.819525 
L 195.097626 205.087644 
L 195.51873 205.087644 
L 195.51873 204.355762 
L 195.796776 204.355762 
L 195.855325 202.892 
L 196.042237 202.892 
L 196.042237 202.160119 
L 196.190105 202.160119 
L 196.231413 199.964475 
L 196.592203 199.964475 
L 196.617977 198.500713 
L 196.821858 198.500713 
L 196.860048 197.03695 
L 197.040769 197.03695 
L 197.040769 196.305069 
L 197.637177 196.305069 
L 197.637177 195.573188 
L 198.134804 195.573188 
L 198.19663 194.109426 
L 198.414217 194.109426 
L 198.421095 192.645663 
L 198.586755 192.645663 
L 198.604211 191.181901 
L 199.122793 191.181901 
L 199.122793 190.45002 
L 199.268587 190.45002 
L 199.268587 189.718139 
L 199.718556 189.718139 
L 199.744841 188.254376 
L 199.850234 188.254376 
L 199.850234 187.522495 
L 200.064339 187.522495 
L 200.150977 185.326851 
L 200.397548 185.326851 
L 200.397635 183.863089 
L 200.553345 183.863089 
L 200.553345 183.131208 
L 200.695991 183.131208 
L 200.695991 182.399327 
L 200.915966 182.399327 
L 200.994062 180.203683 
L 201.129851 180.203683 
L 201.129851 179.471802 
L 201.426376 179.471802 
L 201.52127 178.00804 
L 201.763266 178.00804 
L 201.770205 176.544277 
L 201.905676 176.544277 
L 201.905676 175.812396 
L 202.113046 175.812396 
L 202.194934 174.348634 
L 202.330715 174.348634 
L 202.330715 173.616752 
L 203.44198 173.616752 
L 203.44198 172.884871 
L 203.643659 172.884871 
L 203.643659 172.15299 
L 204.034619 172.15299 
L 204.076302 170.689228 
L 204.234719 170.689228 
L 204.234719 169.957347 
L 204.997627 169.957347 
L 205.057136 168.493584 
L 205.462325 168.493584 
L 205.462325 167.761703 
L 206.054955 167.761703 
L 206.054955 167.029822 
L 209.38422 167.029822 
L 209.38422 166.297941 
L 210.091447 166.297941 
L 210.091447 165.566059 
L 210.395212 165.566059 
L 210.395212 164.834178 
L 210.782463 164.834178 
L 210.782463 164.102297 
L 211.154686 164.102297 
L 211.154686 163.370416 
L 211.418324 163.370416 
L 211.418324 162.638535 
L 211.900898 162.638535 
L 211.900898 161.906653 
L 212.041651 161.906653 
L 212.059008 160.442891 
L 212.366562 160.442891 
L 212.366562 159.71101 
L 212.657997 159.71101 
L 212.657997 158.979129 
L 212.952494 158.979129 
L 212.952494 158.247248 
L 213.093914 158.247248 
L 213.138408 156.783485 
L 213.449657 156.783485 
L 213.449657 156.051604 
L 214.024827 156.051604 
L 214.024827 155.319723 
L 214.296808 155.319723 
L 214.296808 154.587842 
L 214.527 154.587842 
L 214.527 153.85596 
L 214.683928 153.85596 
L 214.683928 153.124079 
L 215.397198 153.124079 
L 215.397198 152.392198 
L 215.680536 152.392198 
L 215.680536 151.660317 
L 216.014416 151.660317 
L 216.054836 150.196554 
L 216.162019 150.196554 
L 216.23137 148.000911 
L 216.525994 148.000911 
L 216.630667 146.537149 
L 216.644785 146.537149 
L 216.644785 145.805267 
L 216.785699 145.805267 
L 216.85609 144.341505 
L 217.106197 144.341505 
L 217.106197 143.609624 
L 217.346492 143.609624 
L 217.383383 142.145861 
L 217.575219 142.145861 
L 217.575219 141.41398 
L 217.689422 141.41398 
L 217.689422 140.682099 
L 217.933116 140.682099 
L 218.041106 138.486455 
L 218.415961 138.486455 
L 218.415961 137.754574 
L 218.55113 137.754574 
L 218.574909 135.558931 
L 218.745973 135.558931 
L 218.846479 133.363287 
L 219.012996 133.363287 
L 219.012996 132.631406 
L 219.418733 132.631406 
L 219.418733 131.899525 
L 219.586952 131.899525 
L 219.586952 131.167644 
L 219.910954 131.167644 
L 219.910954 130.435762 
L 220.025434 130.435762 
L 220.108784 128.240119 
L 220.237811 128.240119 
L 220.306243 126.776356 
L 220.666405 126.776356 
L 220.666405 126.044475 
L 220.801808 126.044475 
L 220.801808 125.312594 
L 220.93115 125.312594 
L 220.93115 124.580713 
L 221.13622 124.580713 
L 221.13622 123.848832 
L 221.322491 123.848832 
L 221.322491 123.11695 
L 221.492039 123.11695 
L 221.492039 122.385069 
L 221.805638 122.385069 
L 221.876693 119.457545 
L 221.932327 119.457545 
L 221.932327 118.725663 
L 222.089164 118.725663 
L 222.181301 116.53002 
L 222.31755 116.53002 
L 222.31755 115.798139 
L 222.542659 115.798139 
L 222.62546 114.334376 
L 222.847245 114.334376 
L 222.954495 112.138733 
L 223.089482 112.138733 
L 223.195501 110.67497 
L 223.375318 110.67497 
L 223.389611 109.211208 
L 223.544029 109.211208 
L 223.549538 107.747446 
L 223.738803 107.747446 
L 223.77294 106.283683 
L 223.883981 106.283683 
L 223.961988 104.08804 
L 224.338994 104.08804 
L 224.338994 103.356158 
L 224.490657 103.356158 
L 224.490657 102.624277 
L 224.997353 102.624277 
L 224.997353 101.892396 
L 225.166842 101.892396 
L 225.231072 99.696752 
L 225.743357 99.696752 
L 225.806895 98.23299 
L 226.901527 98.23299 
L 226.901527 97.501109 
L 227.137802 97.501109 
L 227.154314 96.037347 
L 227.296216 96.037347 
L 227.296216 95.305465 
L 227.565714 95.305465 
L 227.565714 94.573584 
L 229.229195 94.573584 
L 229.229195 93.841703 
L 231.176057 93.841703 
L 231.176057 93.109822 
L 236.811896 93.109822 
L 236.811896 92.377941 
L 238.389921 92.377941 
L 238.389921 91.646059 
L 243.834622 91.646059 
L 243.834622 90.914178 
L 247.232364 90.914178 
L 247.232364 90.182297 
L 248.33747 90.182297 
L 248.33747 89.450416 
L 248.593592 89.450416 
L 248.661627 87.986653 
L 249.927069 87.986653 
L 249.927069 87.254772 
L 250.329144 87.254772 
L 250.329144 86.522891 
L 250.67962 86.522891 
L 250.67962 85.79101 
L 251.852782 85.79101 
L 251.852782 85.059129 
L 253.256482 85.059129 
L 253.256482 84.327248 
L 253.915815 84.327248 
L 253.915815 83.595366 
L 254.895733 83.595366 
L 254.895733 82.863485 
L 255.028009 82.863485 
L 255.028009 82.131604 
L 255.151341 82.131604 
L 255.151341 81.399723 
L 256.014618 81.399723 
L 256.014618 80.667842 
L 257.195555 80.667842 
L 257.240706 79.204079 
L 257.399332 79.204079 
L 257.399332 78.472198 
L 257.660445 78.472198 
L 257.660445 77.740317 
L 258.348197 77.740317 
L 258.40217 75.544673 
L 258.76308 75.544673 
L 258.76308 74.812792 
L 259.206717 74.812792 
L 259.206717 74.080911 
L 259.441521 74.080911 
L 259.441521 73.34903 
L 259.837719 73.34903 
L 259.837719 72.617149 
L 260.003973 72.617149 
L 260.003973 71.885267 
L 260.133296 71.885267 
L 260.210205 70.421505 
L 260.611537 70.421505 
L 260.70981 68.225861 
L 260.725663 68.225861 
L 260.786959 66.762099 
L 260.914163 66.762099 
L 260.914163 66.030218 
L 261.218682 66.030218 
L 261.218682 65.298337 
L 261.334385 65.298337 
L 261.334385 64.566455 
L 261.490788 64.566455 
L 261.538848 63.102693 
L 261.883457 63.102693 
L 261.883457 62.370812 
L 262.811897 62.370812 
L 262.811897 61.638931 
L 262.935102 61.638931 
L 263.025921 58.711406 
L 264.020281 58.711406 
L 264.043262 57.247644 
L 264.35046 57.247644 
L 264.35046 56.515762 
L 264.856143 56.515762 
L 264.860769 55.052 
L 265.351055 55.052 
L 265.351055 54.320119 
L 265.633422 54.320119 
L 265.633422 53.588238 
L 266.234683 53.588238 
L 266.234683 52.856356 
L 266.62775 52.856356 
L 266.62775 52.124475 
L 267.315672 52.124475 
L 267.315672 51.392594 
L 269.066496 51.392594 
L 269.066496 50.660713 
L 269.287103 50.660713 
L 269.287103 49.928832 
L 270.14404 49.928832 
L 270.14404 49.19695 
L 270.68131 49.19695 
L 270.68131 48.465069 
L 270.829564 48.465069 
L 270.877751 47.001307 
L 273.239468 47.001307 
L 273.239468 46.269426 
L 276.590255 46.269426 
L 276.590255 45.537545 
L 277.283631 45.537545 
L 277.283631 44.805663 
L 277.441436 44.805663 
L 277.441436 44.073782 
L 279.93957 44.073782 
L 279.93957 43.341901 
L 281.034795 43.341901 
L 281.034795 42.61002 
L 281.913626 42.61002 
L 281.913626 41.878139 
L 282.33766 41.878139 
L 282.33766 41.146257 
L 282.852688 41.146257 
L 282.852688 40.414376 
L 283.971989 40.414376 
L 283.971989 39.682495 
L 284.201978 39.682495 
L 284.201978 38.950614 
L 284.554272 38.950614 
L 284.650853 37.486851 
L 284.766774 37.486851 
L 284.766774 36.75497 
L 284.965014 36.75497 
L 284.965014 36.023089 
L 285.177105 36.023089 
L 285.271872 34.559327 
L 285.522285 34.559327 
L 285.522285 33.827446 
L 285.77235 33.827446 
L 285.77235 33.095564 
L 286.32298 33.095564 
L 286.32298 32.363683 
L 286.684135 32.363683 
L 286.684135 31.631802 
L 286.890403 31.631802 
L 286.890403 30.899921 
L 287.324794 30.899921 
L 287.375223 29.436158 
L 287.568826 29.436158 
L 287.612455 27.972396 
L 288.271849 27.972396 
L 288.271849 27.240515 
L 289.542383 27.240515 
L 289.542383 26.508634 
L 290.07805 26.508634 
L 290.07805 25.776752 
L 290.437159 25.776752 
L 290.437159 25.044871 
L 290.558539 25.044871 
L 290.558539 24.31299 
L 312.50484 24.31299 
L 312.50484 23.581109 
L 314.845371 23.581109 
L 314.867433 22.117347 
L 315.055995 22.117347 
L 315.055995 21.385465 
L 315.60991 21.385465 
L 315.60991 20.653584 
L 317.924849 20.653584 
L 317.96526 19.189822 
L 320.066915 19.189822 
L 320.066915 18.457941 
L 321.008806 18.457941 
L 321.008806 17.726059 
L 322.890385 17.726059 
L 322.890385 16.994178 
L 324.749973 16.994178 
L 324.749973 16.262297 
L 325.646288 16.262297 
L 325.646288 15.530416 
L 326.514364 15.530416 
L 326.514364 14.798535 
L 327.254641 14.798535 
L 327.254641 14.066653 
L 331.978913 14.066653 
L 331.978913 13.334772 
L 331.978913 13.334772 
L 367.82 13.334772 
L 367.82 13.334772 
" style="fill:none;stroke:#000000;stroke-linecap:square;stroke-width:1.5;"/>
   </g>
   <g id="line2d_27">
    <path clip-path="url(#paacb0804bf)" d="M -1 266.565663 
L 172.492308 266.565663 
L 172.492308 265.833782 
L 172.911934 265.833782 
L 172.911934 265.101901 
L 173.425582 265.101901 
L 173.425582 264.37002 
L 174.045076 264.37002 
L 174.045076 263.638139 
L 174.898476 263.638139 
L 174.898476 262.906257 
L 175.252705 262.906257 
L 175.252705 262.174376 
L 175.463547 262.174376 
L 175.483722 260.710614 
L 175.743339 260.710614 
L 175.743339 259.978733 
L 176.858345 259.978733 
L 176.858345 259.246851 
L 177.20454 259.246851 
L 177.20454 258.51497 
L 177.369335 258.51497 
L 177.432041 257.051208 
L 177.490353 257.051208 
L 177.584129 254.855564 
L 177.899669 254.855564 
L 177.899669 254.123683 
L 178.31247 254.123683 
L 178.31247 253.391802 
L 179.849543 253.391802 
L 179.849543 252.659921 
L 179.986408 252.659921 
L 179.986408 251.92804 
L 180.239081 251.92804 
L 180.272162 249.732396 
L 180.358328 249.732396 
L 180.36927 248.268634 
L 180.773883 248.268634 
L 180.773883 247.536752 
L 181.148267 247.536752 
L 181.227534 246.07299 
L 181.460645 246.07299 
L 181.552677 243.877347 
L 181.656121 243.877347 
L 181.656121 243.145465 
L 182.06424 243.145465 
L 182.06424 242.413584 
L 182.180484 242.413584 
L 182.180484 241.681703 
L 182.307685 241.681703 
L 182.307685 240.949822 
L 182.46419 240.949822 
L 182.46419 240.217941 
L 183.028871 240.217941 
L 183.028871 239.486059 
L 183.348033 239.486059 
L 183.348033 238.754178 
L 183.975636 238.754178 
L 183.975636 238.022297 
L 184.133447 238.022297 
L 184.133447 237.290416 
L 184.273833 237.290416 
L 184.273833 236.558535 
L 184.605751 236.558535 
L 184.605751 235.826653 
L 184.958294 235.826653 
L 184.958294 235.094772 
L 185.161787 235.094772 
L 185.161787 234.362891 
L 185.5874 234.362891 
L 185.649518 232.899129 
L 186.093639 232.899129 
L 186.093639 232.167248 
L 186.293141 232.167248 
L 186.393188 229.971604 
L 186.809842 229.971604 
L 186.917276 227.77596 
L 187.467166 227.77596 
L 187.467166 227.044079 
L 187.831987 227.044079 
L 187.86426 225.580317 
L 188.103972 225.580317 
L 188.113037 224.116554 
L 188.361675 224.116554 
L 188.361675 223.384673 
L 188.838211 223.384673 
L 188.848258 221.920911 
L 189.056723 221.920911 
L 189.056723 221.18903 
L 189.32414 221.18903 
L 189.412961 219.725267 
L 189.536668 219.725267 
L 189.536668 218.993386 
L 189.664703 218.993386 
L 189.664703 218.261505 
L 189.801199 218.261505 
L 189.813714 216.797743 
L 189.985095 216.797743 
L 190.093199 214.602099 
L 190.154271 214.602099 
L 190.225347 213.138337 
L 190.330555 213.138337 
L 190.377201 211.674574 
L 190.77278 211.674574 
L 190.77278 210.942693 
L 190.910931 210.942693 
L 190.94117 209.478931 
L 191.025747 209.478931 
L 191.133537 208.015168 
L 191.306046 208.015168 
L 191.410797 206.551406 
L 191.566479 206.551406 
L 191.599127 205.087644 
L 191.682846 205.087644 
L 191.787783 203.623881 
L 191.902604 203.623881 
L 191.902604 202.892 
L 192.017102 202.892 
L 192.017102 202.160119 
L 192.133367 202.160119 
L 192.167423 199.964475 
L 192.326373 199.964475 
L 192.356505 198.500713 
L 192.520347 198.500713 
L 192.520347 197.768832 
L 192.725915 197.768832 
L 192.769648 196.305069 
L 193.055625 196.305069 
L 193.150086 194.841307 
L 193.209866 194.841307 
L 193.287549 193.377545 
L 193.367383 193.377545 
L 193.460277 190.45002 
L 193.479206 190.45002 
L 193.519833 188.986257 
L 193.6124 188.986257 
L 193.700184 185.326851 
L 193.724783 185.326851 
L 193.734139 183.863089 
L 193.869051 183.863089 
L 193.979135 178.739921 
L 193.98133 178.739921 
L 193.98133 178.00804 
L 194.118498 178.00804 
L 194.226318 175.812396 
L 194.315988 175.812396 
L 194.315988 175.080515 
L 194.476233 175.080515 
L 194.554647 173.616752 
L 194.937437 173.616752 
L 194.937437 172.884871 
L 195.527493 172.884871 
L 195.527493 172.15299 
L 195.701492 172.15299 
L 195.805982 169.225465 
L 197.544343 169.225465 
L 197.544343 168.493584 
L 198.074698 168.493584 
L 198.079451 167.029822 
L 203.947888 167.029822 
L 203.947888 166.297941 
L 205.547112 166.297941 
L 205.547112 165.566059 
L 206.604453 165.566059 
L 206.604453 164.834178 
L 206.833699 164.834178 
L 206.867932 163.370416 
L 207.123018 163.370416 
L 207.228381 161.174772 
L 207.356393 161.174772 
L 207.356393 160.442891 
L 207.684315 160.442891 
L 207.779576 158.247248 
L 207.817932 158.247248 
L 207.817932 157.515366 
L 207.95121 157.515366 
L 207.980064 156.051604 
L 208.166767 156.051604 
L 208.166767 155.319723 
L 208.424812 155.319723 
L 208.483809 153.85596 
L 208.556447 153.85596 
L 208.556447 153.124079 
L 208.940388 153.124079 
L 209.043142 151.660317 
L 209.332549 151.660317 
L 209.436117 148.000911 
L 209.514457 148.000911 
L 209.514457 147.26903 
L 209.68757 147.26903 
L 209.753676 145.805267 
L 209.807529 145.805267 
L 209.807529 145.073386 
L 209.959603 145.073386 
L 210.048763 142.877743 
L 210.14426 142.877743 
L 210.252913 140.682099 
L 210.388971 140.682099 
L 210.388971 139.950218 
L 210.605007 139.950218 
L 210.715991 137.022693 
L 210.811866 137.022693 
L 210.838781 135.558931 
L 210.978731 135.558931 
L 211.036841 134.095168 
L 211.619808 134.095168 
L 211.720112 132.631406 
L 211.984956 132.631406 
L 212.089596 131.167644 
L 212.166546 131.167644 
L 212.198234 129.703881 
L 212.351318 129.703881 
L 212.444627 127.508238 
L 212.469404 127.508238 
L 212.537593 125.312594 
L 212.667937 125.312594 
L 212.667937 124.580713 
L 213.119267 124.580713 
L 213.223497 123.11695 
L 213.240933 123.11695 
L 213.240933 122.385069 
L 213.404174 122.385069 
L 213.404174 121.653188 
L 213.855481 121.653188 
L 213.855481 120.921307 
L 214.255353 120.921307 
L 214.293777 118.725663 
L 214.437646 118.725663 
L 214.472433 117.261901 
L 214.797339 117.261901 
L 214.797339 116.53002 
L 215.338164 116.53002 
L 215.338164 115.798139 
L 215.676871 115.798139 
L 215.770514 114.334376 
L 215.814166 114.334376 
L 215.836245 112.870614 
L 216.172467 112.870614 
L 216.172467 112.138733 
L 216.37054 112.138733 
L 216.37054 111.406851 
L 216.538179 111.406851 
L 216.608163 109.943089 
L 216.905213 109.943089 
L 216.905213 109.211208 
L 217.050448 109.211208 
L 217.119454 107.747446 
L 217.443061 107.747446 
L 217.443061 107.015564 
L 217.557374 107.015564 
L 217.598673 104.819921 
L 217.878713 104.819921 
L 217.916456 103.356158 
L 218.489948 103.356158 
L 218.506884 101.892396 
L 218.68432 101.892396 
L 218.775229 99.696752 
L 218.816406 99.696752 
L 218.911228 98.23299 
L 219.157622 98.23299 
L 219.259733 96.037347 
L 219.354614 96.037347 
L 219.455199 93.841703 
L 219.488541 93.841703 
L 219.488541 93.109822 
L 219.819143 93.109822 
L 219.819143 92.377941 
L 220.025434 92.377941 
L 220.025434 91.646059 
L 220.357144 91.646059 
L 220.357144 90.914178 
L 220.488659 90.914178 
L 220.488659 90.182297 
L 220.666405 90.182297 
L 220.666405 89.450416 
L 220.942934 89.450416 
L 220.942934 88.718535 
L 221.602832 88.718535 
L 221.602832 87.986653 
L 221.824017 87.986653 
L 221.824017 87.254772 
L 222.96301 87.254772 
L 223.01407 85.79101 
L 223.368964 85.79101 
L 223.373165 84.327248 
L 223.682331 84.327248 
L 223.682331 83.595366 
L 224.774971 83.595366 
L 224.774971 82.863485 
L 224.99561 82.863485 
L 224.99561 82.131604 
L 225.484405 82.131604 
L 225.484405 81.399723 
L 225.706943 81.399723 
L 225.706943 80.667842 
L 231.009105 80.667842 
L 231.009105 79.93596 
L 235.056506 79.93596 
L 235.056506 79.204079 
L 237.479814 79.204079 
L 237.479814 78.472198 
L 237.8049 78.472198 
L 237.8049 77.740317 
L 238.227551 77.740317 
L 238.227551 77.008436 
L 238.938112 77.008436 
L 238.938112 76.276554 
L 240.690721 76.276554 
L 240.690721 75.544673 
L 241.263719 75.544673 
L 241.263719 74.812792 
L 241.931242 74.812792 
L 241.931242 74.080911 
L 242.345086 74.080911 
L 242.384281 72.617149 
L 242.507563 72.617149 
L 242.507563 71.885267 
L 242.907832 71.885267 
L 242.907832 71.153386 
L 243.02858 71.153386 
L 243.02858 70.421505 
L 243.3142 70.421505 
L 243.379287 68.957743 
L 243.530333 68.957743 
L 243.530333 68.225861 
L 243.93834 68.225861 
L 243.93834 67.49398 
L 244.127432 67.49398 
L 244.127432 66.762099 
L 244.368617 66.762099 
L 244.368617 66.030218 
L 244.494988 66.030218 
L 244.548072 64.566455 
L 244.608875 64.566455 
L 244.608875 63.834574 
L 245.389235 63.834574 
L 245.389235 63.102693 
L 245.625074 63.102693 
L 245.625074 62.370812 
L 245.815724 62.370812 
L 245.815724 61.638931 
L 246.509273 61.638931 
L 246.509273 60.90705 
L 246.988548 60.90705 
L 246.988548 60.175168 
L 247.35369 60.175168 
L 247.35369 59.443287 
L 248.073587 59.443287 
L 248.146753 57.979525 
L 248.265495 57.979525 
L 248.265495 57.247644 
L 249.507802 57.247644 
L 249.507802 56.515762 
L 249.793795 56.515762 
L 249.80678 55.052 
L 250.083036 55.052 
L 250.083036 54.320119 
L 250.801536 54.320119 
L 250.801536 53.588238 
L 251.081451 53.588238 
L 251.081451 52.856356 
L 251.464717 52.856356 
L 251.464717 52.124475 
L 252.431658 52.124475 
L 252.431658 51.392594 
L 252.985683 51.392594 
L 253.039448 49.928832 
L 253.162065 49.928832 
L 253.162065 49.19695 
L 254.030449 49.19695 
L 254.030449 48.465069 
L 255.740463 48.465069 
L 255.740463 47.733188 
L 256.910598 47.733188 
L 256.910598 47.001307 
L 258.374507 47.001307 
L 258.374507 46.269426 
L 268.236971 46.269426 
L 268.236971 45.537545 
L 268.745719 45.537545 
L 268.745719 44.805663 
L 270.070708 44.805663 
L 270.070708 44.073782 
L 270.244215 44.073782 
L 270.244215 43.341901 
L 270.903425 43.341901 
L 270.903425 42.61002 
L 271.22994 42.61002 
L 271.22994 41.878139 
L 271.748637 41.878139 
L 271.748637 41.146257 
L 271.883848 41.146257 
L 271.990521 39.682495 
L 272.036561 39.682495 
L 272.036561 38.950614 
L 272.363666 38.950614 
L 272.363666 38.218733 
L 273.004841 38.218733 
L 273.004841 37.486851 
L 273.306982 37.486851 
L 273.306982 36.75497 
L 273.569903 36.75497 
L 273.569903 36.023089 
L 273.78712 36.023089 
L 273.78712 35.291208 
L 273.992258 35.291208 
L 273.992258 34.559327 
L 274.464347 34.559327 
L 274.464347 33.827446 
L 274.963094 33.827446 
L 274.963094 33.095564 
L 275.147129 33.095564 
L 275.147129 32.363683 
L 275.524025 32.363683 
L 275.524025 31.631802 
L 276.163821 31.631802 
L 276.163821 30.899921 
L 276.549439 30.899921 
L 276.562701 28.704277 
L 278.452041 28.704277 
L 278.452041 27.972396 
L 280.672126 27.972396 
L 280.683235 26.508634 
L 280.952565 26.508634 
L 280.952565 25.776752 
L 281.8838 25.776752 
L 281.8838 25.044871 
L 282.938655 25.044871 
L 282.938655 24.31299 
L 301.865991 24.31299 
L 301.865991 23.581109 
L 303.080198 23.581109 
L 303.080198 22.849228 
L 304.56279 22.849228 
L 304.56279 22.117347 
L 305.141555 22.117347 
L 305.141555 21.385465 
L 305.693416 21.385465 
L 305.693416 20.653584 
L 306.209198 20.653584 
L 306.294882 19.189822 
L 306.803937 19.189822 
L 306.803937 18.457941 
L 307.816784 18.457941 
L 307.816784 17.726059 
L 308.01997 17.726059 
L 308.01997 16.994178 
L 310.138851 16.994178 
L 310.138851 16.262297 
L 316.033083 16.262297 
L 316.033083 15.530416 
L 316.337932 15.530416 
L 316.337932 14.798535 
L 316.485576 14.798535 
L 316.485576 14.066653 
L 318.12039 14.066653 
L 318.12039 13.334772 
L 318.12039 13.334772 
L 367.82 13.334772 
L 367.82 13.334772 
" style="fill:none;stroke:#00bfbf;stroke-linecap:square;stroke-width:1.5;"/>
   </g>
   <g id="line2d_28">
    <path clip-path="url(#paacb0804bf)" d="M -1 265.833782 
L 21.784336 265.833782 
L 21.784336 265.101901 
L 36.927631 265.101901 
L 36.927631 264.37002 
L 39.489371 264.37002 
L 39.489371 263.638139 
L 41.752636 263.638139 
L 41.752636 262.906257 
L 42.85766 262.906257 
L 42.85766 262.174376 
L 43.413594 262.174376 
L 43.413594 261.442495 
L 44.735254 261.442495 
L 44.743008 259.978733 
L 45.060775 259.978733 
L 45.14216 258.51497 
L 45.631273 258.51497 
L 45.682463 257.051208 
L 48.806304 257.051208 
L 48.806304 256.319327 
L 50.012563 256.319327 
L 50.012563 255.587446 
L 50.482613 255.587446 
L 50.482613 254.855564 
L 50.696044 254.855564 
L 50.696044 254.123683 
L 107.444234 254.123683 
L 107.444234 253.391802 
L 110.849105 253.391802 
L 110.849105 252.659921 
L 111.150613 252.659921 
L 111.150613 251.92804 
L 111.513308 251.92804 
L 111.513308 251.196158 
L 111.774037 251.196158 
L 111.774037 250.464277 
L 112.011531 250.464277 
L 112.011531 249.732396 
L 112.160053 249.732396 
L 112.258255 248.268634 
L 112.288421 248.268634 
L 112.288421 247.536752 
L 112.401127 247.536752 
L 112.401127 246.804871 
L 112.857769 246.804871 
L 112.857769 246.07299 
L 113.414571 246.07299 
L 113.414571 245.341109 
L 114.410198 245.341109 
L 114.507292 243.877347 
L 114.54065 243.877347 
L 114.54065 243.145465 
L 146.767351 243.145465 
L 146.767351 242.413584 
L 151.453344 242.413584 
L 151.453344 241.681703 
L 152.699513 241.681703 
L 152.699513 240.949822 
L 153.896481 240.949822 
L 153.896481 240.217941 
L 155.239521 240.217941 
L 155.239521 239.486059 
L 156.945746 239.486059 
L 156.945746 238.754178 
L 157.242495 238.754178 
L 157.285555 237.290416 
L 158.333435 237.290416 
L 158.333435 236.558535 
L 159.386241 236.558535 
L 159.386241 235.826653 
L 159.772663 235.826653 
L 159.772663 235.094772 
L 160.705062 235.094772 
L 160.705062 234.362891 
L 161.197443 234.362891 
L 161.197443 233.63101 
L 161.337863 233.63101 
L 161.337863 232.899129 
L 161.736924 232.899129 
L 161.736924 232.167248 
L 161.879529 232.167248 
L 161.879529 231.435366 
L 162.226213 231.435366 
L 162.32825 229.239723 
L 162.371102 229.239723 
L 162.458621 227.77596 
L 162.885612 227.77596 
L 162.885612 227.044079 
L 162.999285 227.044079 
L 162.999285 226.312198 
L 163.118338 226.312198 
L 163.185269 224.116554 
L 163.390274 224.116554 
L 163.494329 222.652792 
L 163.700485 222.652792 
L 163.700485 221.920911 
L 163.893829 221.920911 
L 163.962246 220.457149 
L 164.102698 220.457149 
L 164.125778 216.065861 
L 164.298231 216.065861 
L 164.359726 214.602099 
L 164.47434 214.602099 
L 164.47434 213.870218 
L 164.921384 213.870218 
L 164.921384 213.138337 
L 165.208998 213.138337 
L 165.317103 211.674574 
L 165.423711 211.674574 
L 165.527098 210.210812 
L 165.588886 210.210812 
L 165.588886 209.478931 
L 165.716907 209.478931 
L 165.716907 208.74705 
L 166.962739 208.74705 
L 167.017291 207.283287 
L 167.117334 207.283287 
L 167.224842 205.819525 
L 167.835016 205.819525 
L 167.835016 205.087644 
L 168.093469 205.087644 
L 168.093469 204.355762 
L 168.211343 204.355762 
L 168.211343 203.623881 
L 168.49317 203.623881 
L 168.49317 202.892 
L 168.884558 202.892 
L 168.945076 201.428238 
L 169.102348 201.428238 
L 169.110741 199.964475 
L 169.366035 199.964475 
L 169.366035 199.232594 
L 169.606794 199.232594 
L 169.606794 198.500713 
L 170.681416 198.500713 
L 170.681416 197.768832 
L 170.896895 197.768832 
L 170.92725 196.305069 
L 171.129382 196.305069 
L 171.129382 195.573188 
L 171.308447 195.573188 
L 171.349164 194.109426 
L 171.420012 194.109426 
L 171.456015 192.645663 
L 171.703097 192.645663 
L 171.812723 191.181901 
L 171.996309 191.181901 
L 172.059669 189.718139 
L 172.128653 189.718139 
L 172.128653 188.986257 
L 172.455409 188.986257 
L 172.455409 188.254376 
L 172.756184 188.254376 
L 172.801831 186.790614 
L 172.944728 186.790614 
L 172.944728 186.058733 
L 173.257303 186.058733 
L 173.257303 185.326851 
L 173.71735 185.326851 
L 173.782716 183.863089 
L 174.327526 183.863089 
L 174.327526 183.131208 
L 174.605219 183.131208 
L 174.679376 180.935564 
L 174.735439 180.935564 
L 174.735439 180.203683 
L 175.034831 180.203683 
L 175.034831 179.471802 
L 175.482477 179.471802 
L 175.592141 177.276158 
L 175.629328 177.276158 
L 175.629328 176.544277 
L 176.160755 176.544277 
L 176.160756 174.348634 
L 176.274786 174.348634 
L 176.285285 172.884871 
L 176.462091 172.884871 
L 176.504052 170.689228 
L 176.57844 170.689228 
L 176.57844 169.957347 
L 176.69942 169.957347 
L 176.69942 169.225465 
L 176.812779 169.225465 
L 176.812779 168.493584 
L 177.158259 168.493584 
L 177.158259 167.761703 
L 177.494812 167.761703 
L 177.494812 167.029822 
L 177.818181 167.029822 
L 177.927748 165.566059 
L 177.9416 165.566059 
L 177.978338 164.102297 
L 178.065238 164.102297 
L 178.145667 161.174772 
L 178.410293 161.174772 
L 178.410293 160.442891 
L 178.561387 160.442891 
L 178.561387 159.71101 
L 179.574661 159.71101 
L 179.574661 158.979129 
L 180.058578 158.979129 
L 180.141573 157.515366 
L 180.218538 157.515366 
L 180.327609 155.319723 
L 180.480978 155.319723 
L 180.558062 153.85596 
L 180.695513 153.85596 
L 180.695513 153.124079 
L 181.055274 153.124079 
L 181.055274 152.392198 
L 181.288856 152.392198 
L 181.288856 151.660317 
L 181.560181 151.660317 
L 181.669877 148.732792 
L 181.697568 148.732792 
L 181.770158 147.26903 
L 181.837454 147.26903 
L 181.922201 145.805267 
L 182.013329 145.805267 
L 182.119772 140.682099 
L 182.169306 140.682099 
L 182.235782 137.754574 
L 182.416661 137.754574 
L 182.52283 134.095168 
L 182.554085 134.095168 
L 182.584862 132.631406 
L 182.885753 132.631406 
L 182.885753 131.899525 
L 183.071672 131.899525 
L 183.071672 131.167644 
L 183.281061 131.167644 
L 183.366304 129.703881 
L 183.499469 129.703881 
L 183.596885 128.240119 
L 183.615275 128.240119 
L 183.615275 127.508238 
L 184.039098 127.508238 
L 184.111584 125.312594 
L 184.422703 125.312594 
L 184.474935 123.848832 
L 184.760245 123.848832 
L 184.760245 123.11695 
L 185.416886 123.11695 
L 185.466478 121.653188 
L 185.821828 121.653188 
L 185.821828 120.921307 
L 185.960922 120.921307 
L 186.026852 119.457545 
L 186.664046 119.457545 
L 186.664046 118.725663 
L 186.904458 118.725663 
L 186.904458 117.993782 
L 187.532057 117.993782 
L 187.532057 117.261901 
L 187.719248 117.261901 
L 187.720398 115.798139 
L 188.264477 115.798139 
L 188.311139 114.334376 
L 188.800905 114.334376 
L 188.800905 113.602495 
L 189.060504 113.602495 
L 189.060504 112.870614 
L 189.174717 112.870614 
L 189.174717 112.138733 
L 189.472699 112.138733 
L 189.472699 111.406851 
L 189.612797 111.406851 
L 189.612797 110.67497 
L 190.5024 110.67497 
L 190.5024 109.943089 
L 191.518018 109.943089 
L 191.518018 109.211208 
L 192.021063 109.211208 
L 192.021063 108.479327 
L 192.6029 108.479327 
L 192.6029 107.747446 
L 193.6353 107.747446 
L 193.6353 107.015564 
L 193.832183 107.015564 
L 193.832183 106.283683 
L 194.097158 106.283683 
L 194.097158 105.551802 
L 194.697534 105.551802 
L 194.776938 104.08804 
L 194.888569 104.08804 
L 194.888569 103.356158 
L 195.047791 103.356158 
L 195.099503 101.892396 
L 195.184957 101.892396 
L 195.232191 99.696752 
L 195.358007 99.696752 
L 195.358007 98.964871 
L 195.520279 98.964871 
L 195.548913 97.501109 
L 195.973991 97.501109 
L 195.973991 96.769228 
L 196.332765 96.769228 
L 196.332765 96.037347 
L 196.542109 96.037347 
L 196.554467 94.573584 
L 196.884493 94.573584 
L 196.901477 93.109822 
L 197.289297 93.109822 
L 197.362794 90.914178 
L 197.508756 90.914178 
L 197.508756 90.182297 
L 198.129767 90.182297 
L 198.129767 89.450416 
L 198.24132 89.450416 
L 198.281694 87.986653 
L 198.38957 87.986653 
L 198.38957 87.254772 
L 198.652012 87.254772 
L 198.652012 86.522891 
L 198.767245 86.522891 
L 198.790769 85.059129 
L 198.884654 85.059129 
L 198.884654 84.327248 
L 199.233775 84.327248 
L 199.233775 83.595366 
L 199.443436 83.595366 
L 199.443436 82.863485 
L 199.691878 82.863485 
L 199.789606 80.667842 
L 199.837631 80.667842 
L 199.90342 79.204079 
L 200.075687 79.204079 
L 200.156067 77.008436 
L 200.309692 77.008436 
L 200.349797 75.544673 
L 200.505494 75.544673 
L 200.505494 74.812792 
L 201.071047 74.812792 
L 201.169026 72.617149 
L 201.246829 72.617149 
L 201.32531 71.153386 
L 201.481756 71.153386 
L 201.579391 68.225861 
L 201.642626 68.225861 
L 201.724601 65.298337 
L 201.767668 65.298337 
L 201.767668 64.566455 
L 201.891519 64.566455 
L 201.905663 63.102693 
L 202.016997 63.102693 
L 202.016997 62.370812 
L 202.277587 62.370812 
L 202.277587 61.638931 
L 202.410828 61.638931 
L 202.514966 60.175168 
L 202.661306 60.175168 
L 202.661306 59.443287 
L 203.022988 59.443287 
L 203.022988 58.711406 
L 203.436639 58.711406 
L 203.523143 56.515762 
L 203.699881 56.515762 
L 203.759958 54.320119 
L 203.869121 54.320119 
L 203.962682 52.856356 
L 205.29613 52.856356 
L 205.29613 52.124475 
L 205.460911 52.124475 
L 205.460911 51.392594 
L 205.815254 51.392594 
L 205.855098 49.19695 
L 206.079564 49.19695 
L 206.079564 48.465069 
L 206.424918 48.465069 
L 206.424918 47.733188 
L 208.00597 47.733188 
L 208.00597 47.001307 
L 208.773375 47.001307 
L 208.773375 46.269426 
L 213.753004 46.269426 
L 213.753004 45.537545 
L 215.612461 45.537545 
L 215.612461 44.805663 
L 215.845033 44.805663 
L 215.845033 44.073782 
L 216.97481 44.073782 
L 216.97481 43.341901 
L 217.827645 43.341901 
L 217.827645 42.61002 
L 218.207161 42.61002 
L 218.207161 41.878139 
L 218.708771 41.878139 
L 218.708771 41.146257 
L 218.875726 41.146257 
L 218.875726 40.414376 
L 219.028613 40.414376 
L 219.028613 39.682495 
L 219.56499 39.682495 
L 219.56499 38.950614 
L 220.771937 38.950614 
L 220.771937 38.218733 
L 222.043669 38.218733 
L 222.043669 37.486851 
L 223.079302 37.486851 
L 223.079302 36.75497 
L 223.367927 36.75497 
L 223.367927 36.023089 
L 224.284265 36.023089 
L 224.284265 35.291208 
L 237.662088 35.291208 
L 237.662088 34.559327 
L 238.542416 34.559327 
L 238.542416 33.827446 
L 241.971542 33.827446 
L 241.971542 33.095564 
L 242.386187 33.095564 
L 242.386187 32.363683 
L 244.469634 32.363683 
L 244.469634 31.631802 
L 244.737097 31.631802 
L 244.737097 30.899921 
L 245.575535 30.899921 
L 245.575535 30.16804 
L 245.893474 30.16804 
L 245.893474 29.436158 
L 246.12948 29.436158 
L 246.12948 28.704277 
L 246.264925 28.704277 
L 246.264925 27.972396 
L 248.450636 27.972396 
L 248.450636 27.240515 
L 248.662808 27.240515 
L 248.662808 26.508634 
L 249.456578 26.508634 
L 249.456578 25.776752 
L 249.569754 25.776752 
L 249.679428 23.581109 
L 249.981323 23.581109 
L 249.981323 22.849228 
L 250.741991 22.849228 
L 250.741991 22.117347 
L 250.988142 22.117347 
L 250.988142 21.385465 
L 251.266582 21.385465 
L 251.334447 19.921703 
L 252.742519 19.921703 
L 252.742519 19.189822 
L 253.086154 19.189822 
L 253.086154 18.457941 
L 254.640465 18.457941 
L 254.640465 17.726059 
L 256.008755 17.726059 
L 256.008755 16.994178 
L 257.240153 16.994178 
L 257.240153 16.262297 
L 258.088325 16.262297 
L 258.088325 15.530416 
L 258.269445 15.530416 
L 258.269445 14.798535 
L 260.622573 14.798535 
L 260.622573 14.066653 
L 268.182276 14.066653 
L 268.182276 13.334772 
L 268.182276 13.334772 
L 367.82 13.334772 
L 367.82 13.334772 
" style="fill:none;stroke:#bf00bf;stroke-linecap:square;stroke-width:1.5;"/>
   </g>
   <g id="line2d_29">
    <path clip-path="url(#paacb0804bf)" d="M -1 265.833782 
L 5.501324 265.833782 
L 5.501324 265.101901 
L 8.973124 265.101901 
L 8.973124 264.37002 
L 9.183637 264.37002 
L 9.274291 262.906257 
L 9.412395 262.906257 
L 9.412395 262.174376 
L 9.530935 262.174376 
L 9.530935 261.442495 
L 10.009925 261.442495 
L 10.009925 260.710614 
L 10.140201 260.710614 
L 10.235234 257.783089 
L 10.312792 257.783089 
L 10.423424 255.587446 
L 10.439087 255.587446 
L 10.543849 251.196158 
L 10.571232 251.196158 
L 10.608208 248.268634 
L 13.264717 248.268634 
L 13.325841 246.804871 
L 46.995591 246.804871 
L 46.995591 246.07299 
L 88.097543 246.07299 
L 88.097543 245.341109 
L 89.492046 245.341109 
L 89.492046 244.609228 
L 89.660378 244.609228 
L 89.660378 243.877347 
L 89.930795 243.877347 
L 89.930795 243.145465 
L 90.262597 243.145465 
L 90.262597 242.413584 
L 90.448432 242.413584 
L 90.538854 240.949822 
L 90.857239 240.949822 
L 90.941212 238.754178 
L 91.113577 238.754178 
L 91.217181 236.558535 
L 91.300877 236.558535 
L 91.391503 235.094772 
L 91.555209 235.094772 
L 91.555209 234.362891 
L 91.96473 234.362891 
L 91.96473 233.63101 
L 94.155623 233.63101 
L 94.155623 232.899129 
L 101.589551 232.899129 
L 101.589551 232.167248 
L 121.020892 232.167248 
L 121.020892 231.435366 
L 140.675886 231.435366 
L 140.675886 230.703485 
L 149.721427 230.703485 
L 149.721427 229.971604 
L 150.117735 229.971604 
L 150.117735 229.239723 
L 151.308489 229.239723 
L 151.308489 228.507842 
L 153.850568 228.507842 
L 153.850568 227.77596 
L 155.221039 227.77596 
L 155.221039 227.044079 
L 157.345256 227.044079 
L 157.345256 226.312198 
L 158.062148 226.312198 
L 158.062148 225.580317 
L 158.325955 225.580317 
L 158.325955 224.848436 
L 159.277481 224.848436 
L 159.277481 224.116554 
L 160.405695 224.116554 
L 160.405695 223.384673 
L 160.700147 223.384673 
L 160.700147 222.652792 
L 161.09704 222.652792 
L 161.18559 221.18903 
L 161.214069 221.18903 
L 161.214069 220.457149 
L 161.331163 220.457149 
L 161.331163 219.725267 
L 161.584829 219.725267 
L 161.584829 218.993386 
L 161.720587 218.993386 
L 161.720587 218.261505 
L 162.3185 218.261505 
L 162.402862 216.065861 
L 162.843048 216.065861 
L 162.890563 214.602099 
L 163.122584 214.602099 
L 163.16823 213.138337 
L 163.259174 213.138337 
L 163.349115 211.674574 
L 163.384326 211.674574 
L 163.490644 209.478931 
L 163.888472 209.478931 
L 163.909598 208.015168 
L 164.091109 208.015168 
L 164.196966 203.623881 
L 164.29823 203.623881 
L 164.29823 202.892 
L 164.474339 202.892 
L 164.533788 201.428238 
L 165.202312 201.428238 
L 165.309248 199.964475 
L 165.42369 199.964475 
L 165.527009 198.500713 
L 165.84863 198.500713 
L 165.84863 197.768832 
L 166.036962 197.768832 
L 166.036962 197.03695 
L 166.987432 197.03695 
L 166.987432 196.305069 
L 167.536801 196.305069 
L 167.536801 195.573188 
L 167.83154 195.573188 
L 167.83154 194.841307 
L 168.003442 194.841307 
L 168.095369 193.377545 
L 168.209253 193.377545 
L 168.209253 192.645663 
L 168.422683 192.645663 
L 168.422683 191.913782 
L 169.110739 191.913782 
L 169.110739 191.181901 
L 169.359582 191.181901 
L 169.359582 190.45002 
L 169.566996 190.45002 
L 169.566996 189.718139 
L 169.866388 189.718139 
L 169.866388 188.986257 
L 170.612385 188.986257 
L 170.713863 187.522495 
L 170.861489 187.522495 
L 170.925923 186.058733 
L 171.298602 186.058733 
L 171.398945 183.131208 
L 171.58705 183.131208 
L 171.58705 182.399327 
L 171.84775 182.399327 
L 171.904098 180.935564 
L 171.98328 180.935564 
L 172.079817 178.00804 
L 172.371803 178.00804 
L 172.371803 177.276158 
L 173.054013 177.276158 
L 173.137247 175.812396 
L 173.329774 175.812396 
L 173.329774 175.080515 
L 174.147981 175.080515 
L 174.212612 173.616752 
L 174.491501 173.616752 
L 174.491501 172.884871 
L 174.622029 172.884871 
L 174.729996 170.689228 
L 174.928193 170.689228 
L 174.928193 169.957347 
L 175.155495 169.957347 
L 175.155495 169.225465 
L 175.615643 169.225465 
L 175.615643 168.493584 
L 176.160754 168.493584 
L 176.254572 164.102297 
L 176.280234 164.102297 
L 176.280234 163.370416 
L 176.453342 163.370416 
L 176.53941 160.442891 
L 176.564933 160.442891 
L 176.62389 158.247248 
L 176.784514 158.247248 
L 176.812778 156.783485 
L 176.934317 156.783485 
L 176.934317 156.051604 
L 177.112716 156.051604 
L 177.218526 150.928436 
L 177.478269 150.928436 
L 177.494356 149.464673 
L 177.637734 149.464673 
L 177.725482 146.537149 
L 177.749092 146.537149 
L 177.806778 144.341505 
L 178.09867 144.341505 
L 178.09867 142.877743 
L 178.409623 142.877743 
L 178.409623 142.145861 
L 178.596866 142.145861 
L 178.596866 141.41398 
L 178.977371 141.41398 
L 178.977371 140.682099 
L 179.104127 140.682099 
L 179.104127 139.950218 
L 179.257118 139.950218 
L 179.257118 139.218337 
L 179.402437 139.218337 
L 179.402437 138.486455 
L 179.563547 138.486455 
L 179.563547 137.754574 
L 179.704471 137.754574 
L 179.704471 137.022693 
L 179.84014 137.022693 
L 179.894768 135.558931 
L 180.086817 135.558931 
L 180.086817 134.82705 
L 180.212339 134.82705 
L 180.283827 133.363287 
L 180.480977 133.363287 
L 180.490282 131.899525 
L 180.68689 131.899525 
L 180.68689 131.167644 
L 181.37164 131.167644 
L 181.443251 129.703881 
L 181.56018 129.703881 
L 181.668716 128.240119 
L 181.865214 128.240119 
L 181.865214 127.508238 
L 182.010544 127.508238 
L 182.094779 126.044475 
L 182.218095 126.044475 
L 182.328009 123.848832 
L 182.338695 123.848832 
L 182.338695 123.11695 
L 182.591853 123.11695 
L 182.591853 122.385069 
L 182.909834 122.385069 
L 182.909834 121.653188 
L 183.051582 121.653188 
L 183.051582 120.921307 
L 183.212645 120.921307 
L 183.254146 119.457545 
L 183.359169 119.457545 
L 183.359169 118.725663 
L 183.499469 118.725663 
L 183.499469 117.993782 
L 184.029635 117.993782 
L 184.029635 117.261901 
L 184.420829 117.261901 
L 184.47123 115.798139 
L 184.76024 115.798139 
L 184.76024 115.066257 
L 184.889497 115.066257 
L 184.889497 114.334376 
L 185.267265 114.334376 
L 185.267265 113.602495 
L 185.410794 113.602495 
L 185.410794 112.870614 
L 185.814525 112.870614 
L 185.814525 112.138733 
L 186.204139 112.138733 
L 186.204139 111.406851 
L 186.520089 111.406851 
L 186.520089 110.67497 
L 186.884366 110.67497 
L 186.941799 109.211208 
L 187.532056 109.211208 
L 187.606733 107.747446 
L 188.256239 107.747446 
L 188.301893 106.283683 
L 188.379164 106.283683 
L 188.379164 105.551802 
L 189.060192 105.551802 
L 189.108606 104.08804 
L 189.577371 104.08804 
L 189.577371 103.356158 
L 190.434959 103.356158 
L 190.434959 102.624277 
L 192.021012 102.624277 
L 192.021012 101.892396 
L 192.474947 101.892396 
L 192.474947 101.160515 
L 192.596655 101.160515 
L 192.596655 100.428634 
L 192.835641 100.428634 
L 192.835641 99.696752 
L 193.71614 99.696752 
L 193.823911 98.23299 
L 194.058534 98.23299 
L 194.058534 97.501109 
L 194.686007 97.501109 
L 194.776861 95.305465 
L 194.856164 95.305465 
L 194.866681 93.841703 
L 195.097323 93.841703 
L 195.097323 93.109822 
L 195.336924 93.109822 
L 195.336924 92.377941 
L 195.857131 92.377941 
L 195.857131 91.646059 
L 196.332603 91.646059 
L 196.332603 90.914178 
L 196.52696 90.914178 
L 196.52696 90.182297 
L 196.767001 90.182297 
L 196.874457 88.718535 
L 197.179745 88.718535 
L 197.179745 87.986653 
L 197.312628 87.986653 
L 197.312628 87.254772 
L 197.50795 87.254772 
L 197.50795 86.522891 
L 198.126753 86.522891 
L 198.186071 85.059129 
L 198.532238 85.059129 
L 198.532238 84.327248 
L 198.750291 84.327248 
L 198.790491 82.863485 
L 199.227828 82.863485 
L 199.227828 82.131604 
L 199.442363 82.131604 
L 199.442363 81.399723 
L 199.691287 81.399723 
L 199.788758 79.204079 
L 199.837067 79.204079 
L 199.910889 77.008436 
L 200.074208 77.008436 
L 200.13353 75.544673 
L 200.301748 75.544673 
L 200.304631 74.080911 
L 200.454535 74.080911 
L 200.454535 73.34903 
L 200.971905 73.34903 
L 201.036062 71.885267 
L 201.083322 71.885267 
L 201.165369 70.421505 
L 201.246558 70.421505 
L 201.310659 68.957743 
L 201.44611 68.957743 
L 201.524548 67.49398 
L 201.563467 67.49398 
L 201.640746 64.566455 
L 201.67917 64.566455 
L 201.679203 63.102693 
L 201.830869 63.102693 
L 201.905597 61.638931 
L 202.016571 61.638931 
L 202.016571 60.90705 
L 202.269542 60.90705 
L 202.269542 60.175168 
L 202.410598 60.175168 
L 202.514754 58.711406 
L 202.651664 58.711406 
L 202.651664 57.979525 
L 203.019268 57.979525 
L 203.019268 57.247644 
L 203.404773 57.247644 
L 203.427171 55.783881 
L 203.519095 55.783881 
L 203.519095 55.052 
L 203.69976 55.052 
L 203.759141 52.856356 
L 203.886965 52.856356 
L 203.886965 52.124475 
L 205.115896 52.124475 
L 205.115896 51.392594 
L 205.384403 51.392594 
L 205.384403 50.660713 
L 205.781964 50.660713 
L 205.854921 49.19695 
L 206.079509 49.19695 
L 206.079509 48.465069 
L 206.404997 48.465069 
L 206.404997 47.733188 
L 206.867824 47.733188 
L 206.867824 47.001307 
L 208.07178 47.001307 
L 208.07178 46.269426 
L 212.802188 46.269426 
L 212.802188 45.537545 
L 215.115767 45.537545 
L 215.115767 44.805663 
L 215.432268 44.805663 
L 215.52635 43.341901 
L 216.467248 43.341901 
L 216.467248 42.61002 
L 217.537248 42.61002 
L 217.537248 41.878139 
L 217.751722 41.878139 
L 217.751722 41.146257 
L 218.252874 41.146257 
L 218.252874 40.414376 
L 218.478042 40.414376 
L 218.502281 38.950614 
L 219.14653 38.950614 
L 219.14653 38.218733 
L 220.357265 38.218733 
L 220.357265 37.486851 
L 221.654573 37.486851 
L 221.654573 36.75497 
L 221.787968 36.75497 
L 221.787968 36.023089 
L 222.176254 36.023089 
L 222.176254 35.291208 
L 222.774404 35.291208 
L 222.789241 33.827446 
L 223.843201 33.827446 
L 223.843201 33.095564 
L 224.763259 33.095564 
L 224.763259 32.363683 
L 224.949006 32.363683 
L 224.949006 31.631802 
L 226.153168 31.631802 
L 226.153168 30.899921 
L 226.783996 30.899921 
L 226.806516 29.436158 
L 227.399225 29.436158 
L 227.399225 28.704277 
L 227.643043 28.704277 
L 227.643043 27.972396 
L 228.278893 27.972396 
L 228.278893 27.240515 
L 228.603838 27.240515 
L 228.603838 26.508634 
L 228.998603 26.508634 
L 228.998603 25.776752 
L 229.624725 25.776752 
L 229.624725 25.044871 
L 230.702165 25.044871 
L 230.702165 24.31299 
L 231.063186 24.31299 
L 231.063186 23.581109 
L 232.417763 23.581109 
L 232.417763 22.849228 
L 232.771276 22.849228 
L 232.771276 22.117347 
L 237.799197 22.117347 
L 237.799197 21.385465 
L 238.710463 21.385465 
L 238.781263 19.921703 
L 240.471216 19.921703 
L 240.471216 19.189822 
L 241.218642 19.189822 
L 241.218642 18.457941 
L 242.511302 18.457941 
L 242.511302 17.726059 
L 242.851573 17.726059 
L 242.851573 16.994178 
L 244.711427 16.994178 
L 244.711427 16.262297 
L 244.862674 16.262297 
L 244.862674 15.530416 
L 245.060167 15.530416 
L 245.060167 14.798535 
L 246.039118 14.798535 
L 246.039118 14.066653 
L 247.186607 14.066653 
L 247.186607 13.334772 
L 247.186607 13.334772 
L 367.82 13.334772 
L 367.82 13.334772 
" style="fill:none;stroke:#000000;stroke-linecap:square;stroke-width:1.5;"/>
   </g>
   <g id="patch_3">
    <path d="M 10.7 276.812 
L 10.7 10.7 
" style="fill:none;stroke:#000000;stroke-linecap:square;stroke-linejoin:miter;stroke-width:0.8;"/>
   </g>
   <g id="patch_4">
    <path d="M 367.82 276.812 
L 367.82 10.7 
" style="fill:none;stroke:#000000;stroke-linecap:square;stroke-linejoin:miter;stroke-width:0.8;"/>
   </g>
   <g id="patch_5">
    <path d="M 10.7 276.812 
L 367.82 276.812 
" style="fill:none;stroke:#000000;stroke-linecap:square;stroke-linejoin:miter;stroke-width:0.8;"/>
   </g>
   <g id="patch_6">
    <path d="M 10.7 10.7 
L 367.82 10.7 
" style="fill:none;stroke:#000000;stroke-linecap:square;stroke-linejoin:miter;stroke-width:0.8;"/>
   </g>
   <g id="text_6">
    <!-- {f1-f24}, 20-D -->
    <defs>
     <path d="M 51.125 -9.28125 
L 51.125 -16.3125 
L 48.09375 -16.3125 
Q 35.9375 -16.3125 31.8125 -12.6875 
Q 27.6875 -9.078125 27.6875 1.703125 
L 27.6875 13.375 
Q 27.6875 20.75 25.046875 23.578125 
Q 22.40625 26.421875 15.484375 26.421875 
L 12.5 26.421875 
L 12.5 33.40625 
L 15.484375 33.40625 
Q 22.46875 33.40625 25.078125 36.203125 
Q 27.6875 39.015625 27.6875 46.296875 
L 27.6875 58.015625 
Q 27.6875 68.796875 31.8125 72.390625 
Q 35.9375 75.984375 48.09375 75.984375 
L 51.125 75.984375 
L 51.125 69 
L 47.796875 69 
Q 40.921875 69 38.8125 66.84375 
Q 36.71875 64.703125 36.71875 57.8125 
L 36.71875 45.703125 
Q 36.71875 38.03125 34.5 34.5625 
Q 32.28125 31.109375 26.90625 29.890625 
Q 32.328125 28.5625 34.515625 25.09375 
Q 36.71875 21.625 36.71875 14.015625 
L 36.71875 1.90625 
Q 36.71875 -4.984375 38.8125 -7.125 
Q 40.921875 -9.28125 47.796875 -9.28125 
z
" id="DejaVuSans-7b"/>
     <path d="M 19.1875 8.296875 
L 53.609375 8.296875 
L 53.609375 0 
L 7.328125 0 
L 7.328125 8.296875 
Q 12.9375 14.109375 22.625 23.890625 
Q 32.328125 33.6875 34.8125 36.53125 
Q 39.546875 41.84375 41.421875 45.53125 
Q 43.3125 49.21875 43.3125 52.78125 
Q 43.3125 58.59375 39.234375 62.25 
Q 35.15625 65.921875 28.609375 65.921875 
Q 23.96875 65.921875 18.8125 64.3125 
Q 13.671875 62.703125 7.8125 59.421875 
L 7.8125 69.390625 
Q 13.765625 71.78125 18.9375 73 
Q 24.125 74.21875 28.421875 74.21875 
Q 39.75 74.21875 46.484375 68.546875 
Q 53.21875 62.890625 53.21875 53.421875 
Q 53.21875 48.921875 51.53125 44.890625 
Q 49.859375 40.875 45.40625 35.40625 
Q 44.1875 33.984375 37.640625 27.21875 
Q 31.109375 20.453125 19.1875 8.296875 
" id="DejaVuSans-32"/>
     <path d="M 12.5 -9.28125 
L 15.921875 -9.28125 
Q 22.75 -9.28125 24.828125 -7.171875 
Q 26.90625 -5.078125 26.90625 1.90625 
L 26.90625 14.015625 
Q 26.90625 21.625 29.09375 25.09375 
Q 31.296875 28.5625 36.71875 29.890625 
Q 31.296875 31.109375 29.09375 34.5625 
Q 26.90625 38.03125 26.90625 45.703125 
L 26.90625 57.8125 
Q 26.90625 64.75 24.828125 66.875 
Q 22.75 69 15.921875 69 
L 12.5 69 
L 12.5 75.984375 
L 15.578125 75.984375 
Q 27.734375 75.984375 31.8125 72.390625 
Q 35.890625 68.796875 35.890625 58.015625 
L 35.890625 46.296875 
Q 35.890625 39.015625 38.515625 36.203125 
Q 41.15625 33.40625 48.09375 33.40625 
L 51.125 33.40625 
L 51.125 26.421875 
L 48.09375 26.421875 
Q 41.15625 26.421875 38.515625 23.578125 
Q 35.890625 20.75 35.890625 13.375 
L 35.890625 1.703125 
Q 35.890625 -9.078125 31.8125 -12.6875 
Q 27.734375 -16.3125 15.578125 -16.3125 
L 12.5 -16.3125 
z
" id="DejaVuSans-7d"/>
     <path d="M 11.71875 12.40625 
L 22.015625 12.40625 
L 22.015625 4 
L 14.015625 -11.625 
L 7.71875 -11.625 
L 11.71875 4 
z
" id="DejaVuSans-2c"/>
    </defs>
    <g transform="translate(214.9776 271.48976)scale(0.2 -0.2)">
     <use xlink:href="#DejaVuSans-7b"/>
     <use x="63.623047" xlink:href="#DejaVuSans-66"/>
     <use x="98.828125" xlink:href="#DejaVuSans-31"/>
     <use x="162.451172" xlink:href="#DejaVuSans-2d"/>
     <use x="198.535156" xlink:href="#DejaVuSans-66"/>
     <use x="233.740234" xlink:href="#DejaVuSans-32"/>
     <use x="297.363281" xlink:href="#DejaVuSans-34"/>
     <use x="360.986328" xlink:href="#DejaVuSans-7d"/>
     <use x="424.609375" xlink:href="#DejaVuSans-2c"/>
     <use x="456.396484" xlink:href="#DejaVuSans-20"/>
     <use x="488.183594" xlink:href="#DejaVuSans-32"/>
     <use x="551.806641" xlink:href="#DejaVuSans-30"/>
     <use x="615.429688" xlink:href="#DejaVuSans-2d"/>
     <use x="651.513672" xlink:href="#DejaVuSans-44"/>
    </g>
   </g>
   <g id="text_7">
    <!-- v2.1 -->
    <defs>
     <path d="M 2.984375 54.6875 
L 12.5 54.6875 
L 29.59375 8.796875 
L 46.6875 54.6875 
L 56.203125 54.6875 
L 35.6875 0 
L 23.484375 0 
z
" id="DejaVuSans-76"/>
     <path d="M 10.6875 12.40625 
L 21 12.40625 
L 21 0 
L 10.6875 0 
z
" id="DejaVuSans-2e"/>
    </defs>
    <g style="fill:#808080;" transform="translate(178.349063 272.071193)scale(0.1 -0.1)">
     <use xlink:href="#DejaVuSans-76"/>
     <use x="59.179688" xlink:href="#DejaVuSans-32"/>
     <use x="122.802734" xlink:href="#DejaVuSans-2e"/>
     <use x="154.589844" xlink:href="#DejaVuSans-31"/>
    </g>
   </g>
  </g>
 </g>
 <defs>
  <clipPath id="paacb0804bf">
   <rect height="266.112" width="357.12" x="10.7" y="10.7"/>
  </clipPath>
 </defs>
</svg>
