<?xml version="1.0" encoding="utf-8" standalone="no"?>
<!DOCTYPE svg PUBLIC "-//W3C//DTD SVG 1.1//EN"
  "http://www.w3.org/Graphics/SVG/1.1/DTD/svg11.dtd">
<!-- Created with matplotlib (http://matplotlib.org/) -->
<svg height="333pt" version="1.1" viewBox="0 0 378 333" width="378pt" xmlns="http://www.w3.org/2000/svg" xmlns:xlink="http://www.w3.org/1999/xlink">
 <defs>
  <style type="text/css">
*{stroke-linecap:butt;stroke-linejoin:round;}
  </style>
 </defs>
 <g id="figure_1">
  <g id="patch_1">
   <path d="M 0 333.7245 
L 378.52 333.7245 
L 378.52 0 
L 0 0 
z
" style="fill:#ffffff;"/>
  </g>
  <g id="axes_1">
   <g id="patch_2">
    <path d="M 10.7 276.812 
L 367.82 276.812 
L 367.82 10.7 
L 10.7 10.7 
z
" style="fill:#ffffff;"/>
   </g>
   <g id="matplotlib.axis_1">
    <g id="xtick_1">
     <g id="line2d_1">
      <path clip-path="url(#pd01602c647)" d="M 10.619996 276.812 
L 10.619996 10.7 
" style="fill:none;stroke:#b0b0b0;stroke-linecap:square;stroke-width:0.8;"/>
     </g>
     <g id="line2d_2">
      <defs>
       <path d="M 0 0 
L 0 3.5 
" id="maba5a58b5a" style="stroke:#000000;stroke-width:0.8;"/>
      </defs>
      <g>
       <use style="stroke:#000000;stroke-width:0.8;" x="10.619996" xlink:href="#maba5a58b5a" y="276.812"/>
      </g>
     </g>
    </g>
    <g id="xtick_2">
     <g id="line2d_3">
      <path clip-path="url(#pd01602c647)" d="M 84.673798 276.812 
L 84.673798 10.7 
" style="fill:none;stroke:#b0b0b0;stroke-linecap:square;stroke-width:0.8;"/>
     </g>
     <g id="line2d_4">
      <g>
       <use style="stroke:#000000;stroke-width:0.8;" x="84.673798" xlink:href="#maba5a58b5a" y="276.812"/>
      </g>
     </g>
     <g id="text_1">
      <!-- -4 -->
      <defs>
       <path d="M 4.890625 31.390625 
L 31.203125 31.390625 
L 31.203125 23.390625 
L 4.890625 23.390625 
z
" id="DejaVuSans-2d"/>
       <path d="M 37.796875 64.3125 
L 12.890625 25.390625 
L 37.796875 25.390625 
z
M 35.203125 72.90625 
L 47.609375 72.90625 
L 47.609375 25.390625 
L 58.015625 25.390625 
L 58.015625 17.1875 
L 47.609375 17.1875 
L 47.609375 0 
L 37.796875 0 
L 37.796875 17.1875 
L 4.890625 17.1875 
L 4.890625 26.703125 
z
" id="DejaVuSans-34"/>
      </defs>
      <g transform="translate(74.703485 299.008875)scale(0.2 -0.2)">
       <use xlink:href="#DejaVuSans-2d"/>
       <use x="36.083984" xlink:href="#DejaVuSans-34"/>
      </g>
     </g>
    </g>
    <g id="xtick_3">
     <g id="line2d_5">
      <path clip-path="url(#pd01602c647)" d="M 158.727599 276.812 
L 158.727599 10.7 
" style="fill:none;stroke:#b0b0b0;stroke-linecap:square;stroke-width:0.8;"/>
     </g>
     <g id="line2d_6">
      <g>
       <use style="stroke:#000000;stroke-width:0.8;" x="158.727599" xlink:href="#maba5a58b5a" y="276.812"/>
      </g>
     </g>
     <g id="text_2">
      <!-- 0 -->
      <defs>
       <path d="M 31.78125 66.40625 
Q 24.171875 66.40625 20.328125 58.90625 
Q 16.5 51.421875 16.5 36.375 
Q 16.5 21.390625 20.328125 13.890625 
Q 24.171875 6.390625 31.78125 6.390625 
Q 39.453125 6.390625 43.28125 13.890625 
Q 47.125 21.390625 47.125 36.375 
Q 47.125 51.421875 43.28125 58.90625 
Q 39.453125 66.40625 31.78125 66.40625 
M 31.78125 74.21875 
Q 44.046875 74.21875 50.515625 64.515625 
Q 56.984375 54.828125 56.984375 36.375 
Q 56.984375 17.96875 50.515625 8.265625 
Q 44.046875 -1.421875 31.78125 -1.421875 
Q 19.53125 -1.421875 13.0625 8.265625 
Q 6.59375 17.96875 6.59375 36.375 
Q 6.59375 54.828125 13.0625 64.515625 
Q 19.53125 74.21875 31.78125 74.21875 
" id="DejaVuSans-30"/>
      </defs>
      <g transform="translate(152.365099 299.008875)scale(0.2 -0.2)">
       <use xlink:href="#DejaVuSans-30"/>
      </g>
     </g>
    </g>
    <g id="xtick_4">
     <g id="line2d_7">
      <path clip-path="url(#pd01602c647)" d="M 232.781401 276.812 
L 232.781401 10.7 
" style="fill:none;stroke:#b0b0b0;stroke-linecap:square;stroke-width:0.8;"/>
     </g>
     <g id="line2d_8">
      <g>
       <use style="stroke:#000000;stroke-width:0.8;" x="232.781401" xlink:href="#maba5a58b5a" y="276.812"/>
      </g>
     </g>
     <g id="text_3">
      <!-- 4 -->
      <g transform="translate(226.418901 299.008875)scale(0.2 -0.2)">
       <use xlink:href="#DejaVuSans-34"/>
      </g>
     </g>
    </g>
    <g id="xtick_5">
     <g id="line2d_9">
      <path clip-path="url(#pd01602c647)" d="M 306.835202 276.812 
L 306.835202 10.7 
" style="fill:none;stroke:#b0b0b0;stroke-linecap:square;stroke-width:0.8;"/>
     </g>
     <g id="line2d_10">
      <g>
       <use style="stroke:#000000;stroke-width:0.8;" x="306.835202" xlink:href="#maba5a58b5a" y="276.812"/>
      </g>
     </g>
     <g id="text_4">
      <!-- 8 -->
      <defs>
       <path d="M 31.78125 34.625 
Q 24.75 34.625 20.71875 30.859375 
Q 16.703125 27.09375 16.703125 20.515625 
Q 16.703125 13.921875 20.71875 10.15625 
Q 24.75 6.390625 31.78125 6.390625 
Q 38.8125 6.390625 42.859375 10.171875 
Q 46.921875 13.96875 46.921875 20.515625 
Q 46.921875 27.09375 42.890625 30.859375 
Q 38.875 34.625 31.78125 34.625 
M 21.921875 38.8125 
Q 15.578125 40.375 12.03125 44.71875 
Q 8.5 49.078125 8.5 55.328125 
Q 8.5 64.0625 14.71875 69.140625 
Q 20.953125 74.21875 31.78125 74.21875 
Q 42.671875 74.21875 48.875 69.140625 
Q 55.078125 64.0625 55.078125 55.328125 
Q 55.078125 49.078125 51.53125 44.71875 
Q 48 40.375 41.703125 38.8125 
Q 48.828125 37.15625 52.796875 32.3125 
Q 56.78125 27.484375 56.78125 20.515625 
Q 56.78125 9.90625 50.3125 4.234375 
Q 43.84375 -1.421875 31.78125 -1.421875 
Q 19.734375 -1.421875 13.25 4.234375 
Q 6.78125 9.90625 6.78125 20.515625 
Q 6.78125 27.484375 10.78125 32.3125 
Q 14.796875 37.15625 21.921875 38.8125 
M 18.3125 54.390625 
Q 18.3125 48.734375 21.84375 45.5625 
Q 25.390625 42.390625 31.78125 42.390625 
Q 38.140625 42.390625 41.71875 45.5625 
Q 45.3125 48.734375 45.3125 54.390625 
Q 45.3125 60.0625 41.71875 63.234375 
Q 38.140625 66.40625 31.78125 66.40625 
Q 25.390625 66.40625 21.84375 63.234375 
Q 18.3125 60.0625 18.3125 54.390625 
" id="DejaVuSans-38"/>
      </defs>
      <g transform="translate(300.472702 299.008875)scale(0.2 -0.2)">
       <use xlink:href="#DejaVuSans-38"/>
      </g>
     </g>
    </g>
    <g id="text_5">
     <!-- log10 of Df -->
     <defs>
      <path d="M 9.421875 75.984375 
L 18.40625 75.984375 
L 18.40625 0 
L 9.421875 0 
z
" id="DejaVuSans-6c"/>
      <path d="M 30.609375 48.390625 
Q 23.390625 48.390625 19.1875 42.75 
Q 14.984375 37.109375 14.984375 27.296875 
Q 14.984375 17.484375 19.15625 11.84375 
Q 23.34375 6.203125 30.609375 6.203125 
Q 37.796875 6.203125 41.984375 11.859375 
Q 46.1875 17.53125 46.1875 27.296875 
Q 46.1875 37.015625 41.984375 42.703125 
Q 37.796875 48.390625 30.609375 48.390625 
M 30.609375 56 
Q 42.328125 56 49.015625 48.375 
Q 55.71875 40.765625 55.71875 27.296875 
Q 55.71875 13.875 49.015625 6.21875 
Q 42.328125 -1.421875 30.609375 -1.421875 
Q 18.84375 -1.421875 12.171875 6.21875 
Q 5.515625 13.875 5.515625 27.296875 
Q 5.515625 40.765625 12.171875 48.375 
Q 18.84375 56 30.609375 56 
" id="DejaVuSans-6f"/>
      <path d="M 45.40625 27.984375 
Q 45.40625 37.75 41.375 43.109375 
Q 37.359375 48.484375 30.078125 48.484375 
Q 22.859375 48.484375 18.828125 43.109375 
Q 14.796875 37.75 14.796875 27.984375 
Q 14.796875 18.265625 18.828125 12.890625 
Q 22.859375 7.515625 30.078125 7.515625 
Q 37.359375 7.515625 41.375 12.890625 
Q 45.40625 18.265625 45.40625 27.984375 
M 54.390625 6.78125 
Q 54.390625 -7.171875 48.1875 -13.984375 
Q 42 -20.796875 29.203125 -20.796875 
Q 24.46875 -20.796875 20.265625 -20.09375 
Q 16.0625 -19.390625 12.109375 -17.921875 
L 12.109375 -9.1875 
Q 16.0625 -11.328125 19.921875 -12.34375 
Q 23.78125 -13.375 27.78125 -13.375 
Q 36.625 -13.375 41.015625 -8.765625 
Q 45.40625 -4.15625 45.40625 5.171875 
L 45.40625 9.625 
Q 42.625 4.78125 38.28125 2.390625 
Q 33.9375 0 27.875 0 
Q 17.828125 0 11.671875 7.65625 
Q 5.515625 15.328125 5.515625 27.984375 
Q 5.515625 40.671875 11.671875 48.328125 
Q 17.828125 56 27.875 56 
Q 33.9375 56 38.28125 53.609375 
Q 42.625 51.21875 45.40625 46.390625 
L 45.40625 54.6875 
L 54.390625 54.6875 
z
" id="DejaVuSans-67"/>
      <path d="M 12.40625 8.296875 
L 28.515625 8.296875 
L 28.515625 63.921875 
L 10.984375 60.40625 
L 10.984375 69.390625 
L 28.421875 72.90625 
L 38.28125 72.90625 
L 38.28125 8.296875 
L 54.390625 8.296875 
L 54.390625 0 
L 12.40625 0 
z
" id="DejaVuSans-31"/>
      <path id="DejaVuSans-20"/>
      <path d="M 37.109375 75.984375 
L 37.109375 68.5 
L 28.515625 68.5 
Q 23.6875 68.5 21.796875 66.546875 
Q 19.921875 64.59375 19.921875 59.515625 
L 19.921875 54.6875 
L 34.71875 54.6875 
L 34.71875 47.703125 
L 19.921875 47.703125 
L 19.921875 0 
L 10.890625 0 
L 10.890625 47.703125 
L 2.296875 47.703125 
L 2.296875 54.6875 
L 10.890625 54.6875 
L 10.890625 58.5 
Q 10.890625 67.625 15.140625 71.796875 
Q 19.390625 75.984375 28.609375 75.984375 
z
" id="DejaVuSans-66"/>
      <path d="M 19.671875 64.796875 
L 19.671875 8.109375 
L 31.59375 8.109375 
Q 46.6875 8.109375 53.6875 14.9375 
Q 60.6875 21.78125 60.6875 36.53125 
Q 60.6875 51.171875 53.6875 57.984375 
Q 46.6875 64.796875 31.59375 64.796875 
z
M 9.8125 72.90625 
L 30.078125 72.90625 
Q 51.265625 72.90625 61.171875 64.09375 
Q 71.09375 55.28125 71.09375 36.53125 
Q 71.09375 17.671875 61.125 8.828125 
Q 51.171875 0 30.078125 0 
L 9.8125 0 
z
" id="DejaVuSans-44"/>
     </defs>
     <g transform="translate(134.074063 322.365125)scale(0.2 -0.2)">
      <use xlink:href="#DejaVuSans-6c"/>
      <use x="27.783203" xlink:href="#DejaVuSans-6f"/>
      <use x="88.964844" xlink:href="#DejaVuSans-67"/>
      <use x="152.441406" xlink:href="#DejaVuSans-31"/>
      <use x="216.064453" xlink:href="#DejaVuSans-30"/>
      <use x="279.6875" xlink:href="#DejaVuSans-20"/>
      <use x="311.474609" xlink:href="#DejaVuSans-6f"/>
      <use x="372.65625" xlink:href="#DejaVuSans-66"/>
      <use x="407.861328" xlink:href="#DejaVuSans-20"/>
      <use x="439.648438" xlink:href="#DejaVuSans-44"/>
      <use x="516.650391" xlink:href="#DejaVuSans-66"/>
     </g>
    </g>
   </g>
   <g id="matplotlib.axis_2">
    <g id="ytick_1">
     <g id="line2d_11">
      <path clip-path="url(#pd01602c647)" d="M 10.7 276.812 
L 367.82 276.812 
" style="fill:none;stroke:#b0b0b0;stroke-linecap:square;stroke-width:0.8;"/>
     </g>
     <g id="line2d_12">
      <defs>
       <path d="M 0 0 
L -3.5 0 
" id="m9f85682ce4" style="stroke:#000000;stroke-width:0.8;"/>
      </defs>
      <g>
       <use style="stroke:#000000;stroke-width:0.8;" x="10.7" xlink:href="#m9f85682ce4" y="276.812"/>
      </g>
     </g>
    </g>
    <g id="ytick_2">
     <g id="line2d_13">
      <path clip-path="url(#pd01602c647)" d="M 10.7 224.116554 
L 367.82 224.116554 
" style="fill:none;stroke:#b0b0b0;stroke-linecap:square;stroke-width:0.8;"/>
     </g>
     <g id="line2d_14">
      <g>
       <use style="stroke:#000000;stroke-width:0.8;" x="10.7" xlink:href="#m9f85682ce4" y="224.116554"/>
      </g>
     </g>
    </g>
    <g id="ytick_3">
     <g id="line2d_15">
      <path clip-path="url(#pd01602c647)" d="M 10.7 171.421109 
L 367.82 171.421109 
" style="fill:none;stroke:#b0b0b0;stroke-linecap:square;stroke-width:0.8;"/>
     </g>
     <g id="line2d_16">
      <g>
       <use style="stroke:#000000;stroke-width:0.8;" x="10.7" xlink:href="#m9f85682ce4" y="171.421109"/>
      </g>
     </g>
    </g>
    <g id="ytick_4">
     <g id="line2d_17">
      <path clip-path="url(#pd01602c647)" d="M 10.7 118.725663 
L 367.82 118.725663 
" style="fill:none;stroke:#b0b0b0;stroke-linecap:square;stroke-width:0.8;"/>
     </g>
     <g id="line2d_18">
      <g>
       <use style="stroke:#000000;stroke-width:0.8;" x="10.7" xlink:href="#m9f85682ce4" y="118.725663"/>
      </g>
     </g>
    </g>
    <g id="ytick_5">
     <g id="line2d_19">
      <path clip-path="url(#pd01602c647)" d="M 10.7 66.030218 
L 367.82 66.030218 
" style="fill:none;stroke:#b0b0b0;stroke-linecap:square;stroke-width:0.8;"/>
     </g>
     <g id="line2d_20">
      <g>
       <use style="stroke:#000000;stroke-width:0.8;" x="10.7" xlink:href="#m9f85682ce4" y="66.030218"/>
      </g>
     </g>
    </g>
    <g id="ytick_6">
     <g id="line2d_21">
      <path clip-path="url(#pd01602c647)" d="M 10.7 13.334772 
L 367.82 13.334772 
" style="fill:none;stroke:#b0b0b0;stroke-linecap:square;stroke-width:0.8;"/>
     </g>
     <g id="line2d_22">
      <g>
       <use style="stroke:#000000;stroke-width:0.8;" x="10.7" xlink:href="#m9f85682ce4" y="13.334772"/>
      </g>
     </g>
    </g>
   </g>
   <g id="line2d_23">
    <path clip-path="url(#pd01602c647)" d="M 10.207306 276.812 
L 10.207306 272.420713 
L 10.423424 272.420713 
L 10.423424 268.029426 
L 10.458684 268.029426 
L 10.458684 263.638139 
L 10.520209 263.638139 
L 10.520209 259.246851 
L 10.543849 259.246851 
L 10.543849 254.855564 
L 10.560977 254.855564 
L 10.560977 250.464277 
L 10.571232 250.464277 
L 10.571232 246.07299 
L 10.579591 246.07299 
L 10.579591 241.681703 
L 10.592293 241.681703 
L 10.592293 237.290416 
L 10.601025 237.290416 
L 10.601025 232.899129 
L 10.606555 232.899129 
L 10.606555 228.507842 
L 10.73923 228.507842 
L 10.73923 224.116554 
L 51.002268 224.116554 
L 51.002268 219.725267 
L 51.716636 219.725267 
L 51.716636 215.33398 
L 102.91957 215.33398 
L 102.91957 210.942693 
L 158.343658 210.942693 
L 158.343658 206.551406 
L 163.332076 206.551406 
L 163.332076 202.160119 
L 164.09082 202.160119 
L 164.09082 197.768832 
L 168.988124 197.768832 
L 168.988124 193.377545 
L 169.889631 193.377545 
L 169.889631 188.986257 
L 170.359283 188.986257 
L 170.359283 184.59497 
L 170.475758 184.59497 
L 170.475758 180.203683 
L 170.62555 180.203683 
L 170.62555 175.812396 
L 171.215567 175.812396 
L 171.215567 171.421109 
L 171.26687 171.421109 
L 171.26687 167.029822 
L 171.303629 167.029822 
L 171.303629 162.638535 
L 171.312064 162.638535 
L 171.312064 158.247248 
L 171.447891 158.247248 
L 171.447891 153.85596 
L 171.631338 153.85596 
L 171.631338 149.464673 
L 171.670996 149.464673 
L 171.670996 145.073386 
L 171.707413 145.073386 
L 171.707413 140.682099 
L 171.730747 140.682099 
L 171.730747 136.290812 
L 171.868162 136.290812 
L 171.868162 131.899525 
L 172.002464 131.899525 
L 172.002464 127.508238 
L 172.16371 127.508238 
L 172.16371 123.11695 
L 172.346046 123.11695 
L 172.346046 118.725663 
L 173.672924 118.725663 
L 173.672924 114.334376 
L 174.11236 114.334376 
L 174.11236 109.943089 
L 174.569054 109.943089 
L 174.569054 105.551802 
L 175.20983 105.551802 
L 175.20983 101.160515 
L 175.944504 101.160515 
L 175.944504 96.769228 
L 175.975394 96.769228 
L 175.975394 92.377941 
L 176.757307 92.377941 
L 176.757307 87.986653 
L 177.304622 87.986653 
L 177.304622 83.595366 
L 180.38572 83.595366 
L 180.38572 79.204079 
L 180.436418 79.204079 
L 180.436418 74.812792 
L 181.078911 74.812792 
L 181.078911 70.421505 
L 183.52275 70.421505 
L 183.52275 66.030218 
L 185.919743 66.030218 
L 185.919743 61.638931 
L 188.256239 61.638931 
L 188.256239 57.247644 
L 189.060192 57.247644 
L 189.060192 52.856356 
L 189.577371 52.856356 
L 189.577371 48.465069 
L 192.021012 48.465069 
L 192.021012 44.073782 
L 192.596655 44.073782 
L 192.596655 39.682495 
L 193.823911 39.682495 
L 193.823911 35.291208 
L 194.469321 35.291208 
L 194.469321 30.899921 
L 195.097323 30.899921 
L 195.097323 26.508634 
L 195.336924 26.508634 
L 195.336924 22.117347 
L 195.915639 22.117347 
L 195.915639 17.726059 
L 196.874457 17.726059 
L 196.874457 13.334772 
L 196.874457 13.334772 
L 196.874457 13.334772 
L 367.82 13.334772 
" style="fill:none;stroke:#ff0000;stroke-linecap:square;stroke-width:3;"/>
   </g>
   <g id="line2d_24">
    <path clip-path="url(#pd01602c647)" d="M 215.923008 276.812 
L 215.923008 272.420713 
L 217.575219 272.420713 
L 217.575219 268.029426 
L 218.261656 268.029426 
L 218.261656 263.638139 
L 218.852498 263.638139 
L 218.852498 259.246851 
L 219.520013 259.246851 
L 219.520013 254.855564 
L 219.556825 254.855564 
L 219.556825 250.464277 
L 220.249794 250.464277 
L 220.249794 246.07299 
L 220.586051 246.07299 
L 220.586051 241.681703 
L 220.812159 241.681703 
L 220.812159 237.290416 
L 221.563062 237.290416 
L 221.563062 232.899129 
L 222.932189 232.899129 
L 222.932189 228.507842 
L 222.990525 228.507842 
L 222.990525 224.116554 
L 223.781935 224.116554 
L 223.781935 219.725267 
L 224.334548 219.725267 
L 224.334548 215.33398 
L 225.595075 215.33398 
L 225.595075 210.942693 
L 248.661627 210.942693 
L 248.661627 206.551406 
L 254.895733 206.551406 
L 254.895733 202.160119 
L 257.195555 202.160119 
L 257.195555 197.768832 
L 257.660445 197.768832 
L 257.660445 193.377545 
L 258.348197 193.377545 
L 258.348197 188.986257 
L 258.37411 188.986257 
L 258.37411 184.59497 
L 258.763864 184.59497 
L 258.763864 180.203683 
L 259.206717 180.203683 
L 259.206717 175.812396 
L 259.441521 175.812396 
L 259.441521 171.421109 
L 259.837719 171.421109 
L 259.837719 167.029822 
L 260.003973 167.029822 
L 260.003973 162.638535 
L 260.133296 162.638535 
L 260.133296 158.247248 
L 260.210205 158.247248 
L 260.210205 153.85596 
L 260.70981 153.85596 
L 260.70981 149.464673 
L 262.219956 149.464673 
L 262.219956 145.073386 
L 262.811897 145.073386 
L 262.811897 140.682099 
L 262.935102 140.682099 
L 262.935102 136.290812 
L 262.980992 136.290812 
L 262.980992 131.899525 
L 262.987676 131.899525 
L 262.987676 127.508238 
L 263.025921 127.508238 
L 263.025921 123.11695 
L 264.020281 123.11695 
L 264.020281 118.725663 
L 264.043262 118.725663 
L 264.043262 114.334376 
L 265.275774 114.334376 
L 265.275774 109.943089 
L 265.871451 109.943089 
L 265.871451 105.551802 
L 266.010418 105.551802 
L 266.010418 101.160515 
L 266.234683 101.160515 
L 266.234683 96.769228 
L 266.507389 96.769228 
L 266.507389 92.377941 
L 266.62775 92.377941 
L 266.62775 87.986653 
L 266.652309 87.986653 
L 266.652309 83.595366 
L 266.859131 83.595366 
L 266.859131 79.204079 
L 266.914743 79.204079 
L 266.914743 74.812792 
L 267.791128 74.812792 
L 267.791128 70.421505 
L 268.87016 70.421505 
L 268.87016 66.030218 
L 269.066496 66.030218 
L 269.066496 61.638931 
L 269.633144 61.638931 
L 269.633144 57.247644 
L 270.14404 57.247644 
L 270.14404 52.856356 
L 270.315461 52.856356 
L 270.315461 48.465069 
L 270.336988 48.465069 
L 270.336988 44.073782 
L 270.44131 44.073782 
L 270.44131 39.682495 
L 270.455302 39.682495 
L 270.455302 35.291208 
L 270.68131 35.291208 
L 270.68131 30.899921 
L 274.001029 30.899921 
L 274.001029 26.508634 
L 274.165451 26.508634 
L 274.165451 22.117347 
L 274.330864 22.117347 
L 274.330864 17.726059 
L 275.0723 17.726059 
L 275.0723 13.334772 
L 275.0723 13.334772 
L 275.0723 13.334772 
L 367.82 13.334772 
" style="fill:none;stroke:#00bfbf;stroke-linecap:square;stroke-width:1.5;"/>
   </g>
   <g id="line2d_25">
    <path clip-path="url(#pd01602c647)" d="M 214.683928 276.812 
L 214.683928 272.420713 
L 215.923008 272.420713 
L 215.923008 268.029426 
L 217.575219 268.029426 
L 217.575219 263.638139 
L 217.70148 263.638139 
L 217.70148 259.246851 
L 218.852498 259.246851 
L 218.852498 254.855564 
L 219.556825 254.855564 
L 219.556825 250.464277 
L 220.167153 250.464277 
L 220.167153 246.07299 
L 220.249794 246.07299 
L 220.249794 241.681703 
L 220.586051 241.681703 
L 220.586051 237.290416 
L 220.812159 237.290416 
L 220.812159 232.899129 
L 221.000766 232.899129 
L 221.000766 228.507842 
L 221.322491 228.507842 
L 221.322491 224.116554 
L 221.563062 224.116554 
L 221.563062 219.725267 
L 223.037015 219.725267 
L 223.037015 215.33398 
L 225.476395 215.33398 
L 225.476395 210.942693 
L 248.661627 210.942693 
L 248.661627 206.551406 
L 252.202956 206.551406 
L 252.202956 202.160119 
L 254.895733 202.160119 
L 254.895733 197.768832 
L 257.195555 197.768832 
L 257.195555 193.377545 
L 257.660445 193.377545 
L 257.660445 188.986257 
L 258.348197 188.986257 
L 258.348197 184.59497 
L 258.37411 184.59497 
L 258.37411 180.203683 
L 258.763864 180.203683 
L 258.763864 175.812396 
L 259.206717 175.812396 
L 259.206717 171.421109 
L 259.441521 171.421109 
L 259.441521 167.029822 
L 259.837719 167.029822 
L 259.837719 162.638535 
L 260.003973 162.638535 
L 260.003973 158.247248 
L 260.133296 158.247248 
L 260.133296 153.85596 
L 260.210205 153.85596 
L 260.210205 149.464673 
L 260.70981 149.464673 
L 260.70981 145.073386 
L 262.219956 145.073386 
L 262.219956 140.682099 
L 262.811897 140.682099 
L 262.811897 136.290812 
L 262.935102 136.290812 
L 262.935102 131.899525 
L 262.980992 131.899525 
L 262.980992 127.508238 
L 262.987676 127.508238 
L 262.987676 123.11695 
L 263.025921 123.11695 
L 263.025921 118.725663 
L 264.020281 118.725663 
L 264.020281 114.334376 
L 264.043262 114.334376 
L 264.043262 109.943089 
L 264.992315 109.943089 
L 264.992315 105.551802 
L 265.871451 105.551802 
L 265.871451 101.160515 
L 266.234683 101.160515 
L 266.234683 96.769228 
L 266.507389 96.769228 
L 266.507389 92.377941 
L 266.62775 92.377941 
L 266.62775 87.986653 
L 266.652309 87.986653 
L 266.652309 83.595366 
L 266.859131 83.595366 
L 266.859131 79.204079 
L 266.914743 79.204079 
L 266.914743 74.812792 
L 267.791128 74.812792 
L 267.791128 70.421505 
L 268.714247 70.421505 
L 268.714247 66.030218 
L 268.788605 66.030218 
L 268.788605 61.638931 
L 268.87016 61.638931 
L 268.87016 57.247644 
L 269.066496 57.247644 
L 269.066496 52.856356 
L 269.633144 52.856356 
L 269.633144 48.465069 
L 270.14404 48.465069 
L 270.14404 44.073782 
L 270.315461 44.073782 
L 270.315461 39.682495 
L 270.336988 39.682495 
L 270.336988 35.291208 
L 270.44131 35.291208 
L 270.44131 30.899921 
L 270.68131 30.899921 
L 270.68131 26.508634 
L 272.265644 26.508634 
L 272.265644 22.117347 
L 273.070568 22.117347 
L 273.070568 17.726059 
L 275.0723 17.726059 
L 275.0723 13.334772 
L 275.0723 13.334772 
L 275.0723 13.334772 
L 367.82 13.334772 
" style="fill:none;stroke:#bf00bf;stroke-linecap:square;stroke-width:1.5;"/>
   </g>
   <g id="line2d_26">
    <path clip-path="url(#pd01602c647)" d="M 214.683928 276.812 
L 214.683928 272.420713 
L 215.680536 272.420713 
L 215.680536 268.029426 
L 217.106197 268.029426 
L 217.106197 263.638139 
L 217.575219 263.638139 
L 217.575219 259.246851 
L 217.689422 259.246851 
L 217.689422 254.855564 
L 218.415961 254.855564 
L 218.415961 250.464277 
L 218.55113 250.464277 
L 218.55113 246.07299 
L 218.557594 246.07299 
L 218.557594 241.681703 
L 218.745973 241.681703 
L 218.745973 237.290416 
L 218.846479 237.290416 
L 218.846479 232.899129 
L 219.012996 232.899129 
L 219.012996 228.507842 
L 219.418733 228.507842 
L 219.418733 224.116554 
L 221.13622 224.116554 
L 221.13622 219.725267 
L 221.322491 219.725267 
L 221.322491 215.33398 
L 221.805638 215.33398 
L 221.805638 210.942693 
L 247.232364 210.942693 
L 247.232364 206.551406 
L 248.661627 206.551406 
L 248.661627 202.160119 
L 254.895733 202.160119 
L 254.895733 197.768832 
L 257.195555 197.768832 
L 257.195555 193.377545 
L 257.660445 193.377545 
L 257.660445 188.986257 
L 258.348197 188.986257 
L 258.348197 184.59497 
L 258.37411 184.59497 
L 258.37411 180.203683 
L 258.40217 180.203683 
L 258.40217 175.812396 
L 259.206717 175.812396 
L 259.206717 171.421109 
L 259.441521 171.421109 
L 259.441521 167.029822 
L 259.837719 167.029822 
L 259.837719 162.638535 
L 260.003973 162.638535 
L 260.003973 158.247248 
L 260.133296 158.247248 
L 260.133296 153.85596 
L 260.210205 153.85596 
L 260.210205 149.464673 
L 260.611537 149.464673 
L 260.611537 145.073386 
L 260.65566 145.073386 
L 260.65566 140.682099 
L 260.70981 140.682099 
L 260.70981 136.290812 
L 260.725663 136.290812 
L 260.725663 131.899525 
L 260.786959 131.899525 
L 260.786959 127.508238 
L 261.218682 127.508238 
L 261.218682 123.11695 
L 261.334385 123.11695 
L 261.334385 118.725663 
L 261.538848 118.725663 
L 261.538848 114.334376 
L 261.883457 114.334376 
L 261.883457 109.943089 
L 262.811897 109.943089 
L 262.811897 105.551802 
L 262.935102 105.551802 
L 262.935102 101.160515 
L 262.980992 101.160515 
L 262.980992 96.769228 
L 262.987676 96.769228 
L 262.987676 92.377941 
L 263.025921 92.377941 
L 263.025921 87.986653 
L 264.020281 87.986653 
L 264.020281 83.595366 
L 264.043262 83.595366 
L 264.043262 79.204079 
L 264.35046 79.204079 
L 264.35046 74.812792 
L 264.856143 74.812792 
L 264.856143 70.421505 
L 264.860769 70.421505 
L 264.860769 66.030218 
L 265.351055 66.030218 
L 265.351055 61.638931 
L 265.633422 61.638931 
L 265.633422 57.247644 
L 266.234683 57.247644 
L 266.234683 52.856356 
L 266.62775 52.856356 
L 266.62775 48.465069 
L 267.315672 48.465069 
L 267.315672 44.073782 
L 269.066496 44.073782 
L 269.066496 39.682495 
L 269.287103 39.682495 
L 269.287103 35.291208 
L 270.14404 35.291208 
L 270.14404 30.899921 
L 270.68131 30.899921 
L 270.68131 26.508634 
L 270.829564 26.508634 
L 270.829564 22.117347 
L 270.877751 22.117347 
L 270.877751 17.726059 
L 273.239468 17.726059 
L 273.239468 13.334772 
L 273.239468 13.334772 
L 273.239468 13.334772 
L 367.82 13.334772 
" style="fill:none;stroke:#000000;stroke-linecap:square;stroke-width:1.5;"/>
   </g>
   <g id="line2d_27">
    <path clip-path="url(#pd01602c647)" d="M 203.947888 276.812 
L 203.947888 272.420713 
L 206.867932 272.420713 
L 206.867932 268.029426 
L 207.95121 268.029426 
L 207.95121 263.638139 
L 207.980064 263.638139 
L 207.980064 259.246851 
L 208.166767 259.246851 
L 208.166767 254.855564 
L 209.332549 254.855564 
L 209.332549 250.464277 
L 209.402908 250.464277 
L 209.402908 246.07299 
L 209.436117 246.07299 
L 209.436117 241.681703 
L 209.68757 241.681703 
L 209.68757 237.290416 
L 210.18856 237.290416 
L 210.18856 232.899129 
L 211.720112 232.899129 
L 211.720112 228.507842 
L 212.166546 228.507842 
L 212.166546 224.116554 
L 212.198234 224.116554 
L 212.198234 219.725267 
L 212.444627 219.725267 
L 212.444627 215.33398 
L 212.667937 215.33398 
L 212.667937 210.942693 
L 213.855481 210.942693 
L 213.855481 206.551406 
L 216.905213 206.551406 
L 216.905213 202.160119 
L 217.572034 202.160119 
L 217.572034 197.768832 
L 217.916456 197.768832 
L 217.916456 193.377545 
L 219.455199 193.377545 
L 219.455199 188.986257 
L 219.819143 188.986257 
L 219.819143 184.59497 
L 221.602832 184.59497 
L 221.602832 180.203683 
L 222.96301 180.203683 
L 222.96301 175.812396 
L 223.01407 175.812396 
L 223.01407 171.421109 
L 223.682331 171.421109 
L 223.682331 167.029822 
L 224.774971 167.029822 
L 224.774971 162.638535 
L 225.484405 162.638535 
L 225.484405 158.247248 
L 225.706943 158.247248 
L 225.706943 153.85596 
L 231.009105 153.85596 
L 231.009105 149.464673 
L 238.227551 149.464673 
L 238.227551 145.073386 
L 238.938112 145.073386 
L 238.938112 140.682099 
L 240.690721 140.682099 
L 240.690721 136.290812 
L 241.263719 136.290812 
L 241.263719 131.899525 
L 241.931242 131.899525 
L 241.931242 127.508238 
L 242.384281 127.508238 
L 242.384281 123.11695 
L 242.507563 123.11695 
L 242.507563 118.725663 
L 242.907832 118.725663 
L 242.907832 114.334376 
L 243.02858 114.334376 
L 243.02858 109.943089 
L 243.379287 109.943089 
L 243.379287 105.551802 
L 243.530333 105.551802 
L 243.530333 101.160515 
L 244.368617 101.160515 
L 244.368617 96.769228 
L 245.389235 96.769228 
L 245.389235 92.377941 
L 246.509273 92.377941 
L 246.509273 87.986653 
L 246.988548 87.986653 
L 246.988548 83.595366 
L 248.073587 83.595366 
L 248.073587 79.204079 
L 248.265495 79.204079 
L 248.265495 74.812792 
L 249.507802 74.812792 
L 249.507802 70.421505 
L 249.793795 70.421505 
L 249.793795 66.030218 
L 249.80678 66.030218 
L 249.80678 61.638931 
L 250.083036 61.638931 
L 250.083036 57.247644 
L 250.801536 57.247644 
L 250.801536 52.856356 
L 251.081451 52.856356 
L 251.081451 48.465069 
L 252.431658 48.465069 
L 252.431658 44.073782 
L 252.985683 44.073782 
L 252.985683 39.682495 
L 253.039448 39.682495 
L 253.039448 35.291208 
L 253.162065 35.291208 
L 253.162065 30.899921 
L 254.030449 30.899921 
L 254.030449 26.508634 
L 255.740463 26.508634 
L 255.740463 22.117347 
L 256.910598 22.117347 
L 256.910598 17.726059 
L 258.374507 17.726059 
L 258.374507 13.334772 
L 258.374507 13.334772 
L 258.374507 13.334772 
L 367.82 13.334772 
" style="fill:none;stroke:#00bfbf;stroke-linecap:square;stroke-width:1.5;"/>
   </g>
   <g id="line2d_28">
    <path clip-path="url(#pd01602c647)" d="M 157.285555 276.812 
L 157.285555 272.420713 
L 163.118338 272.420713 
L 163.118338 268.029426 
L 165.588886 268.029426 
L 165.588886 263.638139 
L 167.224842 263.638139 
L 167.224842 259.246851 
L 169.102348 259.246851 
L 169.102348 254.855564 
L 173.782716 254.855564 
L 173.782716 250.464277 
L 175.034831 250.464277 
L 175.034831 246.07299 
L 177.818181 246.07299 
L 177.818181 241.681703 
L 177.978338 241.681703 
L 177.978338 237.290416 
L 178.065238 237.290416 
L 178.065238 232.899129 
L 178.145667 232.899129 
L 178.145667 228.507842 
L 180.269655 228.507842 
L 180.269655 224.116554 
L 180.558062 224.116554 
L 180.558062 219.725267 
L 181.055274 219.725267 
L 181.055274 215.33398 
L 181.697568 215.33398 
L 181.697568 210.942693 
L 181.770158 210.942693 
L 181.770158 206.551406 
L 181.837454 206.551406 
L 181.837454 202.160119 
L 181.922201 202.160119 
L 181.922201 197.768832 
L 182.07528 197.768832 
L 182.07528 193.377545 
L 182.090663 193.377545 
L 182.090663 188.986257 
L 182.119675 188.986257 
L 182.119675 184.59497 
L 182.119772 184.59497 
L 182.119772 180.203683 
L 182.169306 180.203683 
L 182.169306 175.812396 
L 182.1781 175.812396 
L 182.1781 171.421109 
L 182.231137 171.421109 
L 182.231137 167.029822 
L 182.235782 167.029822 
L 182.235782 162.638535 
L 182.416661 162.638535 
L 182.416661 158.247248 
L 182.466929 158.247248 
L 182.466929 153.85596 
L 182.47269 153.85596 
L 182.47269 149.464673 
L 182.52283 149.464673 
L 182.52283 145.073386 
L 182.554085 145.073386 
L 182.554085 140.682099 
L 182.885753 140.682099 
L 182.885753 136.290812 
L 184.039098 136.290812 
L 184.039098 131.899525 
L 184.062899 131.899525 
L 184.062899 127.508238 
L 185.960922 127.508238 
L 185.960922 123.11695 
L 188.264477 123.11695 
L 188.264477 118.725663 
L 188.800905 118.725663 
L 188.800905 114.334376 
L 189.060504 114.334376 
L 189.060504 109.943089 
L 189.472699 109.943089 
L 189.472699 105.551802 
L 189.612797 105.551802 
L 189.612797 101.160515 
L 191.518018 101.160515 
L 191.518018 96.769228 
L 192.021063 96.769228 
L 192.021063 92.377941 
L 192.6029 92.377941 
L 192.6029 87.986653 
L 193.6353 87.986653 
L 193.6353 83.595366 
L 193.832183 83.595366 
L 193.832183 79.204079 
L 195.099503 79.204079 
L 195.099503 74.812792 
L 195.184957 74.812792 
L 195.184957 70.421505 
L 195.228896 70.421505 
L 195.228896 66.030218 
L 195.232191 66.030218 
L 195.232191 61.638931 
L 195.358007 61.638931 
L 195.358007 57.247644 
L 195.520279 57.247644 
L 195.520279 52.856356 
L 196.542109 52.856356 
L 196.542109 48.465069 
L 196.884493 48.465069 
L 196.884493 44.073782 
L 196.901477 44.073782 
L 196.901477 39.682495 
L 197.362794 39.682495 
L 197.362794 35.291208 
L 198.281694 35.291208 
L 198.281694 30.899921 
L 198.38957 30.899921 
L 198.38957 26.508634 
L 198.652012 26.508634 
L 198.652012 22.117347 
L 203.869121 22.117347 
L 203.869121 17.726059 
L 205.460911 17.726059 
L 205.460911 13.334772 
L 205.460911 13.334772 
L 205.460911 13.334772 
L 367.82 13.334772 
" style="fill:none;stroke:#bf00bf;stroke-linecap:square;stroke-width:1.5;"/>
   </g>
   <g id="line2d_29">
    <path clip-path="url(#pd01602c647)" d="M 10.207306 276.812 
L 10.207306 272.420713 
L 10.423424 272.420713 
L 10.423424 268.029426 
L 10.458684 268.029426 
L 10.458684 263.638139 
L 10.520209 263.638139 
L 10.520209 259.246851 
L 10.543849 259.246851 
L 10.543849 254.855564 
L 10.571232 254.855564 
L 10.571232 250.464277 
L 10.601025 250.464277 
L 10.601025 246.07299 
L 10.606555 246.07299 
L 10.606555 241.681703 
L 13.264717 241.681703 
L 13.264717 237.290416 
L 13.325841 237.290416 
L 13.325841 232.899129 
L 46.995591 232.899129 
L 46.995591 228.507842 
L 88.097543 228.507842 
L 88.097543 224.116554 
L 94.155623 224.116554 
L 94.155623 219.725267 
L 101.589551 219.725267 
L 101.589551 215.33398 
L 121.020892 215.33398 
L 121.020892 210.942693 
L 173.054013 210.942693 
L 173.054013 206.551406 
L 173.137247 206.551406 
L 173.137247 202.160119 
L 175.615643 202.160119 
L 175.615643 197.768832 
L 176.254572 197.768832 
L 176.254572 193.377545 
L 176.53941 193.377545 
L 176.53941 188.986257 
L 176.570431 188.986257 
L 176.570431 184.59497 
L 176.784514 184.59497 
L 176.784514 180.203683 
L 177.112716 180.203683 
L 177.112716 175.812396 
L 177.140986 175.812396 
L 177.140986 171.421109 
L 177.188239 171.421109 
L 177.188239 167.029822 
L 177.199079 167.029822 
L 177.199079 162.638535 
L 177.210341 162.638535 
L 177.210341 158.247248 
L 177.218526 158.247248 
L 177.218526 153.85596 
L 177.478269 153.85596 
L 177.478269 149.464673 
L 177.494356 149.464673 
L 177.494356 145.073386 
L 177.637734 145.073386 
L 177.637734 140.682099 
L 177.676879 140.682099 
L 177.676879 136.290812 
L 177.709338 136.290812 
L 177.709338 131.899525 
L 177.749092 131.899525 
L 177.749092 127.508238 
L 177.806778 127.508238 
L 177.806778 123.11695 
L 178.596866 123.11695 
L 178.596866 118.725663 
L 178.977371 118.725663 
L 178.977371 114.334376 
L 179.104127 114.334376 
L 179.104127 109.943089 
L 179.257118 109.943089 
L 179.257118 105.551802 
L 179.704471 105.551802 
L 179.704471 101.160515 
L 179.84014 101.160515 
L 179.84014 96.769228 
L 180.490282 96.769228 
L 180.490282 92.377941 
L 182.328009 92.377941 
L 182.328009 87.986653 
L 182.338695 87.986653 
L 182.338695 83.595366 
L 182.909834 83.595366 
L 182.909834 79.204079 
L 186.884366 79.204079 
L 186.884366 74.812792 
L 188.256239 74.812792 
L 188.256239 70.421505 
L 188.379164 70.421505 
L 188.379164 66.030218 
L 189.060192 66.030218 
L 189.060192 61.638931 
L 189.577371 61.638931 
L 189.577371 57.247644 
L 192.021012 57.247644 
L 192.021012 52.856356 
L 192.474947 52.856356 
L 192.474947 48.465069 
L 192.596655 48.465069 
L 192.596655 44.073782 
L 192.835641 44.073782 
L 192.835641 39.682495 
L 193.823911 39.682495 
L 193.823911 35.291208 
L 194.856164 35.291208 
L 194.856164 30.899921 
L 195.097323 30.899921 
L 195.097323 26.508634 
L 195.336924 26.508634 
L 195.336924 22.117347 
L 196.767001 22.117347 
L 196.767001 17.726059 
L 196.874457 17.726059 
L 196.874457 13.334772 
L 196.874457 13.334772 
L 196.874457 13.334772 
L 367.82 13.334772 
" style="fill:none;stroke:#000000;stroke-linecap:square;stroke-width:1.5;"/>
   </g>
   <g id="patch_3">
    <path d="M 10.7 276.812 
L 10.7 10.7 
" style="fill:none;stroke:#000000;stroke-linecap:square;stroke-linejoin:miter;stroke-width:0.8;"/>
   </g>
   <g id="patch_4">
    <path d="M 367.82 276.812 
L 367.82 10.7 
" style="fill:none;stroke:#000000;stroke-linecap:square;stroke-linejoin:miter;stroke-width:0.8;"/>
   </g>
   <g id="patch_5">
    <path d="M 10.7 276.812 
L 367.82 276.812 
" style="fill:none;stroke:#000000;stroke-linecap:square;stroke-linejoin:miter;stroke-width:0.8;"/>
   </g>
   <g id="patch_6">
    <path d="M 10.7 10.7 
L 367.82 10.7 
" style="fill:none;stroke:#000000;stroke-linecap:square;stroke-linejoin:miter;stroke-width:0.8;"/>
   </g>
   <g id="text_6">
    <!-- {f6-f9}, 20-D -->
    <defs>
     <path d="M 51.125 -9.28125 
L 51.125 -16.3125 
L 48.09375 -16.3125 
Q 35.9375 -16.3125 31.8125 -12.6875 
Q 27.6875 -9.078125 27.6875 1.703125 
L 27.6875 13.375 
Q 27.6875 20.75 25.046875 23.578125 
Q 22.40625 26.421875 15.484375 26.421875 
L 12.5 26.421875 
L 12.5 33.40625 
L 15.484375 33.40625 
Q 22.46875 33.40625 25.078125 36.203125 
Q 27.6875 39.015625 27.6875 46.296875 
L 27.6875 58.015625 
Q 27.6875 68.796875 31.8125 72.390625 
Q 35.9375 75.984375 48.09375 75.984375 
L 51.125 75.984375 
L 51.125 69 
L 47.796875 69 
Q 40.921875 69 38.8125 66.84375 
Q 36.71875 64.703125 36.71875 57.8125 
L 36.71875 45.703125 
Q 36.71875 38.03125 34.5 34.5625 
Q 32.28125 31.109375 26.90625 29.890625 
Q 32.328125 28.5625 34.515625 25.09375 
Q 36.71875 21.625 36.71875 14.015625 
L 36.71875 1.90625 
Q 36.71875 -4.984375 38.8125 -7.125 
Q 40.921875 -9.28125 47.796875 -9.28125 
z
" id="DejaVuSans-7b"/>
     <path d="M 33.015625 40.375 
Q 26.375 40.375 22.484375 35.828125 
Q 18.609375 31.296875 18.609375 23.390625 
Q 18.609375 15.53125 22.484375 10.953125 
Q 26.375 6.390625 33.015625 6.390625 
Q 39.65625 6.390625 43.53125 10.953125 
Q 47.40625 15.53125 47.40625 23.390625 
Q 47.40625 31.296875 43.53125 35.828125 
Q 39.65625 40.375 33.015625 40.375 
M 52.59375 71.296875 
L 52.59375 62.3125 
Q 48.875 64.0625 45.09375 64.984375 
Q 41.3125 65.921875 37.59375 65.921875 
Q 27.828125 65.921875 22.671875 59.328125 
Q 17.53125 52.734375 16.796875 39.40625 
Q 19.671875 43.65625 24.015625 45.921875 
Q 28.375 48.1875 33.59375 48.1875 
Q 44.578125 48.1875 50.953125 41.515625 
Q 57.328125 34.859375 57.328125 23.390625 
Q 57.328125 12.15625 50.6875 5.359375 
Q 44.046875 -1.421875 33.015625 -1.421875 
Q 20.359375 -1.421875 13.671875 8.265625 
Q 6.984375 17.96875 6.984375 36.375 
Q 6.984375 53.65625 15.1875 63.9375 
Q 23.390625 74.21875 37.203125 74.21875 
Q 40.921875 74.21875 44.703125 73.484375 
Q 48.484375 72.75 52.59375 71.296875 
" id="DejaVuSans-36"/>
     <path d="M 10.984375 1.515625 
L 10.984375 10.5 
Q 14.703125 8.734375 18.5 7.8125 
Q 22.3125 6.890625 25.984375 6.890625 
Q 35.75 6.890625 40.890625 13.453125 
Q 46.046875 20.015625 46.78125 33.40625 
Q 43.953125 29.203125 39.59375 26.953125 
Q 35.25 24.703125 29.984375 24.703125 
Q 19.046875 24.703125 12.671875 31.3125 
Q 6.296875 37.9375 6.296875 49.421875 
Q 6.296875 60.640625 12.9375 67.421875 
Q 19.578125 74.21875 30.609375 74.21875 
Q 43.265625 74.21875 49.921875 64.515625 
Q 56.59375 54.828125 56.59375 36.375 
Q 56.59375 19.140625 48.40625 8.859375 
Q 40.234375 -1.421875 26.421875 -1.421875 
Q 22.703125 -1.421875 18.890625 -0.6875 
Q 15.09375 0.046875 10.984375 1.515625 
M 30.609375 32.421875 
Q 37.25 32.421875 41.125 36.953125 
Q 45.015625 41.5 45.015625 49.421875 
Q 45.015625 57.28125 41.125 61.84375 
Q 37.25 66.40625 30.609375 66.40625 
Q 23.96875 66.40625 20.09375 61.84375 
Q 16.21875 57.28125 16.21875 49.421875 
Q 16.21875 41.5 20.09375 36.953125 
Q 23.96875 32.421875 30.609375 32.421875 
" id="DejaVuSans-39"/>
     <path d="M 12.5 -9.28125 
L 15.921875 -9.28125 
Q 22.75 -9.28125 24.828125 -7.171875 
Q 26.90625 -5.078125 26.90625 1.90625 
L 26.90625 14.015625 
Q 26.90625 21.625 29.09375 25.09375 
Q 31.296875 28.5625 36.71875 29.890625 
Q 31.296875 31.109375 29.09375 34.5625 
Q 26.90625 38.03125 26.90625 45.703125 
L 26.90625 57.8125 
Q 26.90625 64.75 24.828125 66.875 
Q 22.75 69 15.921875 69 
L 12.5 69 
L 12.5 75.984375 
L 15.578125 75.984375 
Q 27.734375 75.984375 31.8125 72.390625 
Q 35.890625 68.796875 35.890625 58.015625 
L 35.890625 46.296875 
Q 35.890625 39.015625 38.515625 36.203125 
Q 41.15625 33.40625 48.09375 33.40625 
L 51.125 33.40625 
L 51.125 26.421875 
L 48.09375 26.421875 
Q 41.15625 26.421875 38.515625 23.578125 
Q 35.890625 20.75 35.890625 13.375 
L 35.890625 1.703125 
Q 35.890625 -9.078125 31.8125 -12.6875 
Q 27.734375 -16.3125 15.578125 -16.3125 
L 12.5 -16.3125 
z
" id="DejaVuSans-7d"/>
     <path d="M 11.71875 12.40625 
L 22.015625 12.40625 
L 22.015625 4 
L 14.015625 -11.625 
L 7.71875 -11.625 
L 11.71875 4 
z
" id="DejaVuSans-2c"/>
     <path d="M 19.1875 8.296875 
L 53.609375 8.296875 
L 53.609375 0 
L 7.328125 0 
L 7.328125 8.296875 
Q 12.9375 14.109375 22.625 23.890625 
Q 32.328125 33.6875 34.8125 36.53125 
Q 39.546875 41.84375 41.421875 45.53125 
Q 43.3125 49.21875 43.3125 52.78125 
Q 43.3125 58.59375 39.234375 62.25 
Q 35.15625 65.921875 28.609375 65.921875 
Q 23.96875 65.921875 18.8125 64.3125 
Q 13.671875 62.703125 7.8125 59.421875 
L 7.8125 69.390625 
Q 13.765625 71.78125 18.9375 73 
Q 24.125 74.21875 28.421875 74.21875 
Q 39.75 74.21875 46.484375 68.546875 
Q 53.21875 62.890625 53.21875 53.421875 
Q 53.21875 48.921875 51.53125 44.890625 
Q 49.859375 40.875 45.40625 35.40625 
Q 44.1875 33.984375 37.640625 27.21875 
Q 31.109375 20.453125 19.1875 8.296875 
" id="DejaVuSans-32"/>
    </defs>
    <g transform="translate(227.7026 271.48976)scale(0.2 -0.2)">
     <use xlink:href="#DejaVuSans-7b"/>
     <use x="63.623047" xlink:href="#DejaVuSans-66"/>
     <use x="98.828125" xlink:href="#DejaVuSans-36"/>
     <use x="162.451172" xlink:href="#DejaVuSans-2d"/>
     <use x="198.535156" xlink:href="#DejaVuSans-66"/>
     <use x="233.740234" xlink:href="#DejaVuSans-39"/>
     <use x="297.363281" xlink:href="#DejaVuSans-7d"/>
     <use x="360.986328" xlink:href="#DejaVuSans-2c"/>
     <use x="392.773438" xlink:href="#DejaVuSans-20"/>
     <use x="424.560547" xlink:href="#DejaVuSans-32"/>
     <use x="488.183594" xlink:href="#DejaVuSans-30"/>
     <use x="551.806641" xlink:href="#DejaVuSans-2d"/>
     <use x="587.890625" xlink:href="#DejaVuSans-44"/>
    </g>
   </g>
   <g id="text_7">
    <!-- v2.1 -->
    <defs>
     <path d="M 2.984375 54.6875 
L 12.5 54.6875 
L 29.59375 8.796875 
L 46.6875 54.6875 
L 56.203125 54.6875 
L 35.6875 0 
L 23.484375 0 
z
" id="DejaVuSans-76"/>
     <path d="M 10.6875 12.40625 
L 21 12.40625 
L 21 0 
L 10.6875 0 
z
" id="DejaVuSans-2e"/>
    </defs>
    <g style="fill:#808080;" transform="translate(178.349063 272.071193)scale(0.1 -0.1)">
     <use xlink:href="#DejaVuSans-76"/>
     <use x="59.179688" xlink:href="#DejaVuSans-32"/>
     <use x="122.802734" xlink:href="#DejaVuSans-2e"/>
     <use x="154.589844" xlink:href="#DejaVuSans-31"/>
    </g>
   </g>
  </g>
 </g>
 <defs>
  <clipPath id="pd01602c647">
   <rect height="266.112" width="357.12" x="10.7" y="10.7"/>
  </clipPath>
 </defs>
</svg>
