<?xml version="1.0" encoding="utf-8" standalone="no"?>
<!DOCTYPE svg PUBLIC "-//W3C//DTD SVG 1.1//EN"
  "http://www.w3.org/Graphics/SVG/1.1/DTD/svg11.dtd">
<!-- Created with matplotlib (http://matplotlib.org/) -->
<svg height="335pt" version="1.1" viewBox="0 0 437 335" width="437pt" xmlns="http://www.w3.org/2000/svg" xmlns:xlink="http://www.w3.org/1999/xlink">
 <defs>
  <style type="text/css">
*{stroke-linecap:butt;stroke-linejoin:round;}
  </style>
 </defs>
 <g id="figure_1">
  <g id="patch_1">
   <path d="M 0 335.188165 
L 437.1825 335.188165 
L 437.1825 0 
L 0 0 
z
" style="fill:#ffffff;"/>
  </g>
  <g id="axes_1">
   <g id="patch_2">
    <path d="M 69.3625 278.275665 
L 426.4825 278.275665 
L 426.4825 12.163665 
L 69.3625 12.163665 
z
" style="fill:#ffffff;"/>
   </g>
   <g id="line2d_1">
    <path clip-path="url(#p7e4d01c7e4)" d="M 362.002292 278.275665 
L 362.002292 274.762636 
L 366.351571 274.762636 
L 366.351571 271.249606 
L 367.901272 271.249606 
L 367.901272 267.736576 
L 368.471802 267.736576 
L 368.471802 264.223546 
L 368.974228 264.223546 
L 368.974228 260.710517 
L 369.966091 260.710517 
L 369.966091 257.197487 
L 370.027517 257.197487 
L 370.027517 253.684457 
L 370.394705 253.684457 
L 370.394705 250.171428 
L 372.842918 250.171428 
L 372.842918 246.658398 
L 374.343083 246.658398 
L 374.343083 243.145368 
L 374.966165 243.145368 
L 374.966165 239.632338 
L 375.359183 239.632338 
L 375.359183 236.119309 
L 394.662445 236.119309 
L 394.662445 232.606279 
L 402.360761 232.606279 
L 402.360761 229.093249 
L 402.778941 229.093249 
L 402.778941 225.58022 
L 409.055232 225.58022 
L 409.055232 222.06719 
L 409.520284 222.06719 
L 409.520284 218.55416 
L 417.278466 218.55416 
L 417.278466 215.041131 
L 431.371369 215.041131 
L 431.371369 211.528101 
L 432.042986 211.528101 
L 432.042986 208.015071 
L 436.55587 208.015071 
L 436.55587 204.502041 
L 438.1825 204.502041 
" style="fill:none;stroke:#f5deb3;stroke-linecap:square;stroke-width:1.5;"/>
   </g>
   <g id="line2d_2"/>
   <g id="line2d_3">
    <path clip-path="url(#p7e4d01c7e4)" d="M 221.014887 278.275665 
L 221.014887 274.762636 
L 222.633716 274.762636 
L 222.633716 271.249606 
L 237.340826 271.249606 
L 237.340826 267.736576 
L 332.600816 267.736576 
L 332.600816 264.223546 
L 356.68043 264.223546 
L 356.68043 260.710517 
L 408.42925 260.710517 
L 408.42925 257.197487 
L 422.509642 257.197487 
L 422.509642 253.684457 
L 429.657159 253.684457 
L 429.657159 250.171428 
L 438.1825 250.171428 
" style="fill:none;stroke:#f5deb3;stroke-linecap:square;stroke-width:1.5;"/>
   </g>
   <g id="line2d_4">
    <path clip-path="url(#p7e4d01c7e4)" d="M 378.357068 278.275665 
L 378.357068 274.762636 
L 386.420752 274.762636 
L 386.420752 271.249606 
L 387.96902 271.249606 
L 387.96902 267.736576 
L 388.10365 267.736576 
L 388.10365 264.223546 
L 388.282668 264.223546 
L 388.282668 260.710517 
L 390.603459 260.710517 
L 390.603459 257.197487 
L 391.582146 257.197487 
L 391.582146 253.684457 
L 393.613202 253.684457 
L 393.613202 250.171428 
L 393.938091 250.171428 
L 393.938091 246.658398 
L 396.006245 246.658398 
L 396.006245 243.145368 
L 397.395652 243.145368 
L 397.395652 239.632338 
L 398.228487 239.632338 
L 398.228487 236.119309 
L 399.123476 236.119309 
L 399.123476 232.606279 
L 399.38191 232.606279 
L 399.38191 229.093249 
L 399.895318 229.093249 
L 399.895318 225.58022 
L 400.259249 225.58022 
L 400.367981 218.55416 
L 400.404179 218.55416 
L 400.404179 215.041131 
L 400.800861 215.041131 
L 400.800861 211.528101 
L 400.944433 211.528101 
L 400.944433 208.015071 
L 401.230505 208.015071 
L 401.230505 204.502041 
L 402.605069 204.502041 
L 402.605069 200.989012 
L 403.708865 200.989012 
L 403.708865 197.475982 
L 404.151295 197.475982 
L 404.151295 193.962952 
L 404.354351 193.962952 
L 404.354351 190.449923 
L 405.292569 190.449923 
L 405.292569 186.936893 
L 405.425359 186.936893 
L 405.425359 183.423863 
L 407.668958 183.423863 
L 407.668958 179.910834 
L 408.240118 179.910834 
L 408.240118 176.397804 
L 408.680462 176.397804 
L 408.680462 172.884774 
L 409.241705 172.884774 
L 409.241705 169.371744 
L 410.103998 169.371744 
L 410.103998 165.858715 
L 410.226134 165.858715 
L 410.226134 162.345685 
L 410.560673 162.345685 
L 410.560673 158.832655 
L 411.58256 158.832655 
L 411.58256 155.319626 
L 412.469377 155.319626 
L 412.469377 151.806596 
L 412.936809 151.806596 
L 412.936809 148.293566 
L 413.082105 148.293566 
L 413.140121 141.267507 
L 413.602151 141.267507 
L 413.630904 134.241447 
L 414.458569 134.241447 
L 414.543513 127.215388 
L 415.022505 127.215388 
L 415.078595 120.189329 
L 415.885813 120.189329 
L 415.913447 113.163269 
L 416.244021 113.163269 
L 416.298932 106.13721 
L 417.251481 106.13721 
L 417.251481 102.62418 
L 417.628123 102.62418 
L 417.628123 99.11115 
L 420.6574 99.11115 
L 420.6574 95.598121 
L 424.208466 95.598121 
L 424.208466 92.085091 
L 426.252181 92.085091 
L 426.252181 88.572061 
L 428.181085 88.572061 
L 428.181085 85.059032 
L 433.76952 85.059032 
L 433.76952 81.546002 
L 438.1825 81.546002 
L 438.1825 81.546002 
" style="fill:none;stroke:#f5deb3;stroke-linecap:square;stroke-width:1.5;"/>
   </g>
   <g id="line2d_5">
    <path clip-path="url(#p7e4d01c7e4)" style="fill:none;stroke:#f5deb3;stroke-linecap:square;stroke-width:1.5;"/>
   </g>
   <g id="line2d_6"/>
   <g id="line2d_7">
    <path clip-path="url(#p7e4d01c7e4)" d="M 417.949006 278.275665 
L 417.949006 274.762636 
L 418.874808 274.762636 
L 418.874808 271.249606 
L 419.68253 271.249606 
L 419.68253 267.736576 
L 420.530068 267.736576 
L 420.530068 264.223546 
L 420.708253 264.223546 
L 420.708253 260.710517 
L 423.462318 260.710517 
L 423.462318 257.197487 
L 423.679942 257.197487 
L 423.679942 253.684457 
L 424.542286 253.684457 
L 424.542286 250.171428 
L 425.062974 250.171428 
L 425.110076 243.145368 
L 425.415303 243.145368 
L 425.508893 232.606279 
L 425.625668 232.606279 
L 425.625668 229.093249 
L 425.765484 229.093249 
L 425.765484 225.58022 
L 426.252181 225.58022 
L 426.344419 218.55416 
L 426.43651 218.55416 
L 426.505481 211.528101 
L 426.73479 211.528101 
L 426.803404 197.475982 
L 427.552805 197.475982 
L 427.552805 193.962952 
L 427.77798 193.962952 
L 427.77798 190.449923 
L 428.203397 190.449923 
L 428.203397 186.936893 
L 429.198576 186.936893 
L 429.198576 183.423863 
L 429.548304 183.423863 
L 429.548304 179.910834 
L 429.917573 179.910834 
L 429.960861 172.884774 
L 430.133687 172.884774 
L 430.133687 169.371744 
L 430.327497 169.371744 
L 430.327497 165.858715 
L 430.81984 165.858715 
L 430.926315 158.832655 
L 431.645161 158.832655 
L 431.666168 151.806596 
L 432.001239 151.806596 
L 432.001239 148.293566 
L 433.301913 148.293566 
L 433.301913 144.780537 
L 434.173066 144.780537 
L 434.173066 141.267507 
L 434.872522 141.267507 
L 434.872522 137.754477 
L 435.011397 137.754477 
L 435.051014 130.728418 
L 435.327572 130.728418 
L 435.327572 127.215388 
L 435.602805 127.215388 
L 435.602805 123.702358 
L 436.959536 123.702358 
L 437.055231 116.676299 
L 438.1825 116.676299 
L 438.1825 116.676299 
" style="fill:none;stroke:#f5deb3;stroke-linecap:square;stroke-width:1.5;"/>
   </g>
   <g id="line2d_8">
    <path clip-path="url(#p7e4d01c7e4)" style="fill:none;stroke:#f5deb3;stroke-linecap:square;stroke-width:1.5;"/>
   </g>
   <g id="line2d_9">
    <path clip-path="url(#p7e4d01c7e4)" d="M 410.560673 278.275665 
L 410.560673 274.762636 
L 411.998112 274.762636 
L 411.998112 271.249606 
L 413.111121 271.249606 
L 413.111121 267.736576 
L 414.938266 267.736576 
L 414.938266 264.223546 
L 415.413993 264.223546 
L 415.413993 260.710517 
L 415.58096 260.710517 
L 415.58096 257.197487 
L 416.490709 257.197487 
L 416.490709 253.684457 
L 417.467007 253.684457 
L 417.467007 250.171428 
L 418.108778 250.171428 
L 418.108778 246.658398 
L 418.426995 246.658398 
L 418.532677 239.632338 
L 418.585445 239.632338 
L 418.611811 232.606279 
L 419.449197 232.606279 
L 419.449197 229.093249 
L 419.78593 229.093249 
L 419.78593 225.58022 
L 420.04362 225.58022 
L 420.069325 218.55416 
L 420.274556 218.55416 
L 420.274556 215.041131 
L 420.453534 215.041131 
L 420.453534 211.528101 
L 420.809826 211.528101 
L 420.809826 208.015071 
L 420.936539 208.015071 
L 420.936539 204.502041 
L 421.691009 204.502041 
L 421.691009 200.989012 
L 422.312254 200.989012 
L 422.312254 197.475982 
L 422.608083 197.475982 
L 422.608083 193.962952 
L 422.853448 193.962952 
L 422.853448 190.449923 
L 423.243868 190.449923 
L 423.292484 183.423863 
L 423.365332 183.423863 
L 423.365332 179.910834 
L 423.704071 179.910834 
L 423.800488 169.371744 
L 423.824568 169.371744 
L 423.896744 158.832655 
L 424.280162 158.832655 
L 424.280162 155.319626 
L 424.637308 155.319626 
L 424.661039 148.293566 
L 425.532267 148.293566 
L 425.602332 141.267507 
L 426.275254 141.267507 
L 426.275254 137.754477 
L 426.780542 137.754477 
L 426.780542 134.241447 
L 426.894763 134.241447 
L 426.894763 130.728418 
L 427.530239 130.728418 
L 427.530239 127.215388 
L 427.665503 127.215388 
L 427.665503 123.702358 
L 428.047031 123.702358 
L 428.047031 120.189329 
L 429.482892 120.189329 
L 429.591871 113.163269 
L 429.613642 113.163269 
L 429.613642 109.650239 
L 431.053825 109.650239 
L 431.053825 106.13721 
L 432.042986 106.13721 
L 432.042986 102.62418 
L 438.1825 102.62418 
L 438.1825 102.62418 
" style="fill:none;stroke:#f5deb3;stroke-linecap:square;stroke-width:1.5;"/>
   </g>
   <g id="line2d_10">
    <path clip-path="url(#p7e4d01c7e4)" style="fill:none;stroke:#f5deb3;stroke-linecap:square;stroke-width:1.5;"/>
   </g>
   <g id="line2d_11">
    <path clip-path="url(#p7e4d01c7e4)" style="fill:none;stroke:#f5deb3;stroke-linecap:square;stroke-width:1.5;"/>
   </g>
   <g id="line2d_12">
    <path clip-path="url(#p7e4d01c7e4)" d="M 363.465993 278.275665 
L 363.465993 274.762636 
L 432.562279 274.762636 
L 432.562279 271.249606 
L 436.052131 271.249606 
L 436.052131 267.736576 
L 438.1825 267.736576 
" style="fill:none;stroke:#f5deb3;stroke-linecap:square;stroke-width:1.5;"/>
   </g>
   <g id="line2d_13"/>
   <g id="line2d_14">
    <path clip-path="url(#p7e4d01c7e4)" d="M 401.833721 278.275665 
L 401.833721 274.762636 
L 409.582008 274.762636 
L 409.582008 271.249606 
L 425.718916 271.249606 
L 425.718916 267.736576 
L 427.665503 267.736576 
L 427.665503 264.223546 
L 434.473876 264.223546 
L 434.473876 260.710517 
L 434.95192 260.710517 
L 434.95192 257.197487 
L 438.1825 257.197487 
" style="fill:none;stroke:#f5deb3;stroke-linecap:square;stroke-width:1.5;"/>
   </g>
   <g id="line2d_15"/>
   <g id="line2d_16"/>
   <g id="line2d_17">
    <path clip-path="url(#p7e4d01c7e4)" d="M 0 0 
" style="fill:none;stroke:#f5deb3;stroke-linecap:square;stroke-width:1.5;"/>
   </g>
   <g id="line2d_18">
    <path clip-path="url(#p7e4d01c7e4)" d="M 306.340978 278.275665 
L 306.340978 274.762636 
L 346.450687 274.762636 
L 346.450687 271.249606 
L 348.272221 271.249606 
L 348.272221 267.736576 
L 357.906388 267.736576 
L 357.906388 264.223546 
L 359.032445 264.223546 
L 359.032445 260.710517 
L 376.686625 260.710517 
L 376.686625 257.197487 
L 381.55898 257.197487 
L 381.55898 253.684457 
L 400.98027 253.684457 
L 400.98027 250.171428 
L 405.723018 250.171428 
L 405.723018 246.658398 
L 424.708472 246.658398 
L 424.708472 243.145368 
L 425.438715 243.145368 
L 425.438715 239.632338 
L 433.951466 239.632338 
L 433.951466 236.119309 
L 438.1825 236.119309 
" style="fill:none;stroke:#f5deb3;stroke-linecap:square;stroke-width:1.5;"/>
   </g>
   <g id="line2d_19">
    <path clip-path="url(#p7e4d01c7e4)" style="fill:none;stroke:#f5deb3;stroke-linecap:square;stroke-width:1.5;"/>
   </g>
   <g id="line2d_20">
    <path clip-path="url(#p7e4d01c7e4)" d="M 327.429205 278.275665 
L 327.429205 274.762636 
L 333.766467 274.762636 
L 333.766467 271.249606 
L 338.737686 271.249606 
L 338.737686 267.736576 
L 339.89016 267.736576 
L 339.89016 264.223546 
L 342.227681 264.223546 
L 342.227681 257.197487 
L 342.624675 257.197487 
L 342.624675 253.684457 
L 343.605323 253.684457 
L 343.605323 250.171428 
L 344.089442 250.171428 
L 344.089442 246.658398 
L 346.079347 246.658398 
L 346.172407 239.632338 
L 347.641231 239.632338 
L 347.641231 236.119309 
L 348.80761 236.119309 
L 348.80761 232.606279 
L 352.505187 232.606279 
L 352.505187 229.093249 
L 353.741033 229.093249 
L 353.741033 222.06719 
L 356.602932 222.06719 
L 356.602932 218.55416 
L 359.255033 218.55416 
L 359.255033 215.041131 
L 363.397132 215.041131 
L 363.397132 208.015071 
L 363.877436 208.015071 
L 363.877436 204.502041 
L 364.691588 204.502041 
L 364.691588 200.989012 
L 365.294721 200.989012 
L 365.294721 197.475982 
L 366.286084 197.475982 
L 366.286084 193.962952 
L 369.223803 193.962952 
L 369.223803 190.449923 
L 370.150174 190.449923 
L 370.150174 186.936893 
L 371.242459 186.936893 
L 371.242459 183.423863 
L 372.373337 183.423863 
L 372.373337 179.910834 
L 376.026737 179.910834 
L 376.026737 176.397804 
L 376.19242 176.397804 
L 376.247542 169.371744 
L 376.795873 169.371744 
L 376.795873 165.858715 
L 378.037524 165.858715 
L 378.090905 158.832655 
L 380.545468 158.832655 
L 380.545468 155.319626 
L 384.591858 155.319626 
L 384.591858 151.806596 
L 385.20798 151.806596 
L 385.20798 148.293566 
L 387.743933 148.293566 
L 387.743933 144.780537 
L 387.879091 144.780537 
L 387.879091 141.267507 
L 394.46215 141.267507 
L 394.46215 137.754477 
L 395.338273 137.754477 
L 395.338273 134.241447 
L 395.535542 134.241447 
L 395.535542 130.728418 
L 396.511859 130.728418 
L 396.511859 127.215388 
L 397.013063 127.215388 
L 397.013063 123.702358 
L 397.128107 123.702358 
L 397.128107 120.189329 
L 405.755996 120.189329 
L 405.755996 116.676299 
L 412.849455 116.676299 
L 412.849455 113.163269 
L 413.745776 113.163269 
L 413.745776 109.650239 
L 416.872354 109.650239 
L 416.872354 106.13721 
L 422.583488 106.13721 
L 422.583488 102.62418 
L 423.365332 102.62418 
L 423.365332 99.11115 
L 426.321373 99.11115 
L 426.321373 95.598121 
L 432.230473 95.598121 
L 432.230473 92.085091 
L 435.426021 92.085091 
L 435.426021 88.572061 
L 438.1825 88.572061 
L 438.1825 88.572061 
" style="fill:none;stroke:#f5deb3;stroke-linecap:square;stroke-width:1.5;"/>
   </g>
   <g id="line2d_21"/>
   <g id="line2d_22">
    <path clip-path="url(#p7e4d01c7e4)" d="M 325.463292 278.275665 
L 325.463292 274.762636 
L 328.324112 274.762636 
L 328.324112 271.249606 
L 334.340543 271.249606 
L 334.340543 267.736576 
L 335.02195 267.736576 
L 335.02195 264.223546 
L 335.918102 264.223546 
L 335.918102 260.710517 
L 336.139974 260.710517 
L 336.139974 257.197487 
L 336.690933 257.197487 
L 336.690933 253.684457 
L 337.345186 253.684457 
L 337.453507 246.658398 
L 338.737686 246.658398 
L 338.737686 243.145368 
L 339.993793 243.145368 
L 339.993793 239.632338 
L 342.227681 239.632338 
L 342.227681 236.119309 
L 343.79946 236.119309 
L 343.79946 232.606279 
L 345.611772 232.606279 
L 345.611772 229.093249 
L 346.450687 229.093249 
L 346.450687 225.58022 
L 346.63546 225.58022 
L 346.63546 222.06719 
L 347.003235 222.06719 
L 347.003235 218.55416 
L 350.124656 218.55416 
L 350.124656 215.041131 
L 351.581704 215.041131 
L 351.581704 211.528101 
L 352.67151 211.528101 
L 352.67151 208.015071 
L 353.985044 208.015071 
L 353.985044 204.502041 
L 363.120859 204.502041 
L 363.120859 200.989012 
L 363.877436 200.989012 
L 363.877436 197.475982 
L 364.624181 197.475982 
L 364.624181 193.962952 
L 367.517747 193.962952 
L 367.517747 190.449923 
L 369.904598 190.449923 
L 369.904598 186.936893 
L 372.901346 186.936893 
L 372.901346 183.423863 
L 374.286103 183.423863 
L 374.286103 179.910834 
L 376.686625 179.910834 
L 376.686625 176.397804 
L 381.609189 176.397804 
L 381.609189 172.884774 
L 383.679321 172.884774 
L 383.679321 169.371744 
L 384.353118 169.371744 
L 384.353118 165.858715 
L 385.443201 165.858715 
L 385.443201 162.345685 
L 385.817565 162.345685 
L 385.817565 158.832655 
L 387.834074 158.832655 
L 387.834074 155.319626 
L 389.081417 155.319626 
L 389.081417 151.806596 
L 393.286466 151.806596 
L 393.286466 148.293566 
L 398.565743 148.293566 
L 398.565743 144.780537 
L 399.529067 144.780537 
L 399.529067 141.267507 
L 400.367981 141.267507 
L 400.367981 137.754477 
L 403.194099 137.754477 
L 403.194099 134.241447 
L 406.019143 134.241447 
L 406.019143 130.728418 
L 409.086353 130.728418 
L 409.086353 127.215388 
L 410.469628 127.215388 
L 410.469628 123.702358 
L 411.968529 123.702358 
L 411.968529 120.189329 
L 413.630904 120.189329 
L 413.630904 116.676299 
L 413.745776 116.676299 
L 413.83178 109.650239 
L 415.134631 109.650239 
L 415.134631 106.13721 
L 416.051417 106.13721 
L 416.051417 102.62418 
L 417.143414 102.62418 
L 417.143414 99.11115 
L 421.990045 99.11115 
L 422.014894 92.085091 
L 425.508893 92.085091 
L 425.508893 88.572061 
L 427.213379 88.572061 
L 427.213379 85.059032 
L 427.867804 85.059032 
L 427.867804 81.546002 
L 431.286862 81.546002 
L 431.286862 78.032972 
L 432.126389 78.032972 
L 432.126389 74.519942 
L 432.748082 74.519942 
L 432.748082 71.006913 
L 433.199753 71.006913 
L 433.199753 67.493883 
L 433.546357 67.493883 
L 433.546357 63.980853 
L 434.112714 63.980853 
L 434.193169 56.954794 
L 438.003513 56.954794 
L 438.003513 53.441764 
L 438.1825 53.441764 
L 438.1825 53.441764 
" style="fill:none;stroke:#f5deb3;stroke-linecap:square;stroke-width:1.5;"/>
   </g>
   <g id="line2d_23">
    <path clip-path="url(#p7e4d01c7e4)" style="fill:none;stroke:#f5deb3;stroke-linecap:square;stroke-width:1.5;"/>
   </g>
   <g id="line2d_24">
    <path clip-path="url(#p7e4d01c7e4)" d="M 391.834739 278.275665 
L 391.834739 274.762636 
L 394.502264 274.762636 
L 394.502264 271.249606 
L 401.266164 271.249606 
L 401.266164 267.736576 
L 402.080275 267.736576 
L 402.080275 264.223546 
L 402.220689 264.223546 
L 402.220689 260.710517 
L 402.395726 260.710517 
L 402.395726 257.197487 
L 403.090591 257.197487 
L 403.090591 253.684457 
L 403.640495 253.684457 
L 403.640495 250.171428 
L 407.541258 250.171428 
L 407.57321 243.145368 
L 408.050361 243.145368 
L 408.050361 239.632338 
L 408.523583 239.632338 
L 408.523583 236.119309 
L 409.179615 236.119309 
L 409.179615 232.606279 
L 410.195624 232.606279 
L 410.195624 229.093249 
L 410.772552 229.093249 
L 410.772552 225.58022 
L 412.086769 225.58022 
L 412.086769 222.06719 
L 412.615859 222.06719 
L 412.615859 218.55416 
L 414.259877 218.55416 
L 414.259877 215.041131 
L 415.330327 215.041131 
L 415.413993 208.015071 
L 417.17045 208.015071 
L 417.17045 204.502041 
L 418.848562 204.502041 
L 418.848562 200.989012 
L 419.837561 200.989012 
L 419.837561 197.475982 
L 421.79086 197.475982 
L 421.79086 193.962952 
L 422.039733 193.962952 
L 422.039733 190.449923 
L 422.163766 190.449923 
L 422.163766 186.936893 
L 422.534268 186.936893 
L 422.534268 183.423863 
L 423.268181 183.423863 
L 423.268181 179.910834 
L 423.413845 179.910834 
L 423.413845 176.397804 
L 423.800488 176.397804 
L 423.896744 169.371744 
L 424.637308 169.371744 
L 424.637308 165.858715 
L 425.555631 165.858715 
L 425.555631 162.345685 
L 425.881739 162.345685 
L 425.881739 158.832655 
L 427.258752 158.832655 
L 427.258752 155.319626 
L 428.381582 155.319626 
L 428.381582 151.806596 
L 428.80257 151.806596 
L 428.890807 144.780537 
L 430.627686 144.780537 
L 430.627686 141.267507 
L 432.251267 141.267507 
L 432.251267 137.754477 
L 432.974361 137.754477 
L 432.974361 134.241447 
L 434.253436 134.241447 
L 434.253436 130.728418 
L 434.95192 130.728418 
L 434.95192 127.215388 
L 435.130166 127.215388 
L 435.130166 123.702358 
L 438.135033 123.702358 
L 438.135033 120.189329 
L 438.1825 120.189329 
" style="fill:none;stroke:#f5deb3;stroke-linecap:square;stroke-width:1.5;"/>
   </g>
   <g id="line2d_25"/>
   <g id="line2d_26">
    <path clip-path="url(#p7e4d01c7e4)" d="M 0 0 
" style="fill:none;stroke:#f5deb3;stroke-linecap:square;stroke-width:1.5;"/>
   </g>
   <g id="line2d_27"/>
   <g id="line2d_28">
    <path clip-path="url(#p7e4d01c7e4)" d="M 382.653577 278.275665 
L 382.653577 274.762636 
L 383.241957 274.762636 
L 383.241957 271.249606 
L 384.734628 271.249606 
L 384.734628 267.736576 
L 387.2001 267.736576 
L 387.2001 264.223546 
L 387.608457 264.223546 
L 387.608457 260.710517 
L 388.193229 260.710517 
L 388.193229 257.197487 
L 390.172688 257.197487 
L 390.172688 253.684457 
L 392.461404 253.684457 
L 392.461404 250.171428 
L 392.668782 250.171428 
L 392.668782 246.658398 
L 394.46215 246.658398 
L 394.46215 243.145368 
L 395.179968 243.145368 
L 395.179968 239.632338 
L 395.496143 239.632338 
L 395.496143 236.119309 
L 396.936239 236.119309 
L 396.936239 232.606279 
L 398.228487 232.606279 
L 398.228487 229.093249 
L 398.453544 229.093249 
L 398.453544 225.58022 
L 398.901032 225.58022 
L 398.901032 222.06719 
L 399.123476 222.06719 
L 399.123476 218.55416 
L 399.675847 218.55416 
L 399.675847 215.041131 
L 400.113953 215.041131 
L 400.113953 211.528101 
L 400.512637 211.528101 
L 400.512637 208.015071 
L 400.764912 208.015071 
L 400.764912 204.502041 
L 401.692356 204.502041 
L 401.692356 200.989012 
L 401.974738 200.989012 
L 401.974738 197.475982 
L 402.185618 197.475982 
L 402.185618 193.962952 
L 403.60628 193.962952 
L 403.60628 190.449923 
L 404.388124 190.449923 
L 404.388124 186.936893 
L 404.657595 186.936893 
L 404.657595 183.423863 
L 406.084742 183.423863 
L 406.084742 179.910834 
L 407.092063 179.910834 
L 407.092063 176.397804 
L 408.334762 176.397804 
L 408.334762 172.884774 
L 408.93058 172.884774 
L 408.93058 169.371744 
L 410.165098 169.371744 
L 410.165098 165.858715 
L 411.820386 165.858715 
L 411.820386 162.345685 
L 412.557311 162.345685 
L 412.557311 158.832655 
L 412.907706 158.832655 
L 412.907706 155.319626 
L 413.169107 155.319626 
L 413.169107 151.806596 
L 414.938266 151.806596 
L 414.938266 148.293566 
L 415.162628 148.293566 
L 415.162628 144.780537 
L 415.830505 144.780537 
L 415.830505 141.267507 
L 416.051417 141.267507 
L 416.051417 137.754477 
L 416.600009 137.754477 
L 416.600009 134.241447 
L 416.872354 134.241447 
L 416.872354 130.728418 
L 417.089304 130.728418 
L 417.089304 127.215388 
L 417.762042 127.215388 
L 417.762042 123.702358 
L 418.769753 123.702358 
L 418.769753 120.189329 
L 419.397217 120.189329 
L 419.397217 116.676299 
L 419.914919 116.676299 
L 419.914919 113.163269 
L 420.069325 113.163269 
L 420.172032 102.62418 
L 421.189131 102.62418 
L 421.189131 99.11115 
L 422.583488 99.11115 
L 422.583488 95.598121 
L 424.040826 95.598121 
L 424.040826 92.085091 
L 424.470916 92.085091 
L 424.470916 88.572061 
L 425.48551 88.572061 
L 425.48551 85.059032 
L 425.812014 85.059032 
L 425.812014 81.546002 
L 427.597911 81.546002 
L 427.597911 78.032972 
L 428.537042 78.032972 
L 428.537042 74.519942 
L 429.088847 74.519942 
L 429.088847 71.006913 
L 429.526508 71.006913 
L 429.526508 67.493883 
L 431.159868 67.493883 
L 431.159868 63.980853 
L 431.645161 63.980853 
L 431.645161 60.467824 
L 432.188862 60.467824 
L 432.188862 56.954794 
L 432.871618 56.954794 
L 432.871618 53.441764 
L 433.322323 53.441764 
L 433.322323 49.928735 
L 434.59376 49.928735 
L 434.59376 46.415705 
L 437.055231 46.415705 
L 437.055231 42.902675 
L 437.531328 42.902675 
L 437.531328 39.389645 
L 438.153797 39.389645 
L 438.153797 35.876616 
L 438.1825 35.876616 
" style="fill:none;stroke:#f5deb3;stroke-linecap:square;stroke-width:1.5;"/>
   </g>
   <g id="line2d_29">
    <path clip-path="url(#p7e4d01c7e4)" style="fill:none;stroke:#f5deb3;stroke-linecap:square;stroke-width:1.5;"/>
   </g>
   <g id="line2d_30"/>
   <g id="matplotlib.axis_1">
    <g id="xtick_1">
     <g id="line2d_31">
      <path clip-path="url(#p7e4d01c7e4)" d="M 69.3625 278.275665 
L 69.3625 12.163665 
" style="fill:none;stroke:#b0b0b0;stroke-linecap:square;stroke-width:0.8;"/>
     </g>
     <g id="line2d_32">
      <defs>
       <path d="M 0 0 
L 0 3.5 
" id="m59547da83e" style="stroke:#000000;stroke-width:0.8;"/>
      </defs>
      <g>
       <use style="stroke:#000000;stroke-width:0.8;" x="69.3625" xlink:href="#m59547da83e" y="278.275665"/>
      </g>
     </g>
     <g id="text_1">
      <!-- 0 -->
      <defs>
       <path d="M 31.78125 66.40625 
Q 24.171875 66.40625 20.328125 58.90625 
Q 16.5 51.421875 16.5 36.375 
Q 16.5 21.390625 20.328125 13.890625 
Q 24.171875 6.390625 31.78125 6.390625 
Q 39.453125 6.390625 43.28125 13.890625 
Q 47.125 21.390625 47.125 36.375 
Q 47.125 51.421875 43.28125 58.90625 
Q 39.453125 66.40625 31.78125 66.40625 
M 31.78125 74.21875 
Q 44.046875 74.21875 50.515625 64.515625 
Q 56.984375 54.828125 56.984375 36.375 
Q 56.984375 17.96875 50.515625 8.265625 
Q 44.046875 -1.421875 31.78125 -1.421875 
Q 19.53125 -1.421875 13.0625 8.265625 
Q 6.59375 17.96875 6.59375 36.375 
Q 6.59375 54.828125 13.0625 64.515625 
Q 19.53125 74.21875 31.78125 74.21875 
" id="DejaVuSans-30"/>
      </defs>
      <g transform="translate(63 300.47254)scale(0.2 -0.2)">
       <use xlink:href="#DejaVuSans-30"/>
      </g>
     </g>
    </g>
    <g id="xtick_2">
     <g id="line2d_33">
      <path clip-path="url(#p7e4d01c7e4)" d="M 333.996786 278.275665 
L 333.996786 12.163665 
" style="fill:none;stroke:#b0b0b0;stroke-linecap:square;stroke-width:0.8;"/>
     </g>
     <g id="line2d_34">
      <g>
       <use style="stroke:#000000;stroke-width:0.8;" x="333.996786" xlink:href="#m59547da83e" y="278.275665"/>
      </g>
     </g>
     <g id="text_2">
      <!-- 2 -->
      <defs>
       <path d="M 19.1875 8.296875 
L 53.609375 8.296875 
L 53.609375 0 
L 7.328125 0 
L 7.328125 8.296875 
Q 12.9375 14.109375 22.625 23.890625 
Q 32.328125 33.6875 34.8125 36.53125 
Q 39.546875 41.84375 41.421875 45.53125 
Q 43.3125 49.21875 43.3125 52.78125 
Q 43.3125 58.59375 39.234375 62.25 
Q 35.15625 65.921875 28.609375 65.921875 
Q 23.96875 65.921875 18.8125 64.3125 
Q 13.671875 62.703125 7.8125 59.421875 
L 7.8125 69.390625 
Q 13.765625 71.78125 18.9375 73 
Q 24.125 74.21875 28.421875 74.21875 
Q 39.75 74.21875 46.484375 68.546875 
Q 53.21875 62.890625 53.21875 53.421875 
Q 53.21875 48.921875 51.53125 44.890625 
Q 49.859375 40.875 45.40625 35.40625 
Q 44.1875 33.984375 37.640625 27.21875 
Q 31.109375 20.453125 19.1875 8.296875 
" id="DejaVuSans-32"/>
      </defs>
      <g transform="translate(327.634286 300.47254)scale(0.2 -0.2)">
       <use xlink:href="#DejaVuSans-32"/>
      </g>
     </g>
    </g>
    <g id="xtick_3">
     <g id="line2d_35">
      <defs>
       <path d="M 0 0 
L 0 2 
" id="m7d011ea727" style="stroke:#000000;stroke-width:0.6;"/>
      </defs>
      <g>
       <use style="stroke:#000000;stroke-width:0.6;" x="109.193929" xlink:href="#m7d011ea727" y="278.275665"/>
      </g>
     </g>
    </g>
    <g id="xtick_4">
     <g id="line2d_36">
      <g>
       <use style="stroke:#000000;stroke-width:0.6;" x="132.493821" xlink:href="#m7d011ea727" y="278.275665"/>
      </g>
     </g>
    </g>
    <g id="xtick_5">
     <g id="line2d_37">
      <g>
       <use style="stroke:#000000;stroke-width:0.6;" x="149.025358" xlink:href="#m7d011ea727" y="278.275665"/>
      </g>
     </g>
    </g>
    <g id="xtick_6">
     <g id="line2d_38">
      <g>
       <use style="stroke:#000000;stroke-width:0.6;" x="161.848214" xlink:href="#m7d011ea727" y="278.275665"/>
      </g>
     </g>
    </g>
    <g id="xtick_7">
     <g id="line2d_39">
      <g>
       <use style="stroke:#000000;stroke-width:0.6;" x="172.32525" xlink:href="#m7d011ea727" y="278.275665"/>
      </g>
     </g>
    </g>
    <g id="xtick_8">
     <g id="line2d_40">
      <g>
       <use style="stroke:#000000;stroke-width:0.6;" x="181.183458" xlink:href="#m7d011ea727" y="278.275665"/>
      </g>
     </g>
    </g>
    <g id="xtick_9">
     <g id="line2d_41">
      <g>
       <use style="stroke:#000000;stroke-width:0.6;" x="188.856787" xlink:href="#m7d011ea727" y="278.275665"/>
      </g>
     </g>
    </g>
    <g id="xtick_10">
     <g id="line2d_42">
      <g>
       <use style="stroke:#000000;stroke-width:0.6;" x="195.625143" xlink:href="#m7d011ea727" y="278.275665"/>
      </g>
     </g>
    </g>
    <g id="xtick_11">
     <g id="line2d_43">
      <g>
       <use style="stroke:#000000;stroke-width:0.6;" x="241.511072" xlink:href="#m7d011ea727" y="278.275665"/>
      </g>
     </g>
    </g>
    <g id="xtick_12">
     <g id="line2d_44">
      <g>
       <use style="stroke:#000000;stroke-width:0.6;" x="264.810964" xlink:href="#m7d011ea727" y="278.275665"/>
      </g>
     </g>
    </g>
    <g id="xtick_13">
     <g id="line2d_45">
      <g>
       <use style="stroke:#000000;stroke-width:0.6;" x="281.342501" xlink:href="#m7d011ea727" y="278.275665"/>
      </g>
     </g>
    </g>
    <g id="xtick_14">
     <g id="line2d_46">
      <g>
       <use style="stroke:#000000;stroke-width:0.6;" x="294.165357" xlink:href="#m7d011ea727" y="278.275665"/>
      </g>
     </g>
    </g>
    <g id="xtick_15">
     <g id="line2d_47">
      <g>
       <use style="stroke:#000000;stroke-width:0.6;" x="304.642393" xlink:href="#m7d011ea727" y="278.275665"/>
      </g>
     </g>
    </g>
    <g id="xtick_16">
     <g id="line2d_48">
      <g>
       <use style="stroke:#000000;stroke-width:0.6;" x="313.500601" xlink:href="#m7d011ea727" y="278.275665"/>
      </g>
     </g>
    </g>
    <g id="xtick_17">
     <g id="line2d_49">
      <g>
       <use style="stroke:#000000;stroke-width:0.6;" x="321.17393" xlink:href="#m7d011ea727" y="278.275665"/>
      </g>
     </g>
    </g>
    <g id="xtick_18">
     <g id="line2d_50">
      <g>
       <use style="stroke:#000000;stroke-width:0.6;" x="327.942286" xlink:href="#m7d011ea727" y="278.275665"/>
      </g>
     </g>
    </g>
    <g id="xtick_19">
     <g id="line2d_51">
      <g>
       <use style="stroke:#000000;stroke-width:0.6;" x="373.828215" xlink:href="#m7d011ea727" y="278.275665"/>
      </g>
     </g>
    </g>
    <g id="xtick_20">
     <g id="line2d_52">
      <g>
       <use style="stroke:#000000;stroke-width:0.6;" x="397.128107" xlink:href="#m7d011ea727" y="278.275665"/>
      </g>
     </g>
    </g>
    <g id="xtick_21">
     <g id="line2d_53">
      <g>
       <use style="stroke:#000000;stroke-width:0.6;" x="413.659644" xlink:href="#m7d011ea727" y="278.275665"/>
      </g>
     </g>
    </g>
    <g id="xtick_22">
     <g id="line2d_54">
      <g>
       <use style="stroke:#000000;stroke-width:0.6;" x="426.4825" xlink:href="#m7d011ea727" y="278.275665"/>
      </g>
     </g>
    </g>
    <g id="text_3">
     <!-- log10 of FEvals / DIM -->
     <defs>
      <path d="M 9.421875 75.984375 
L 18.40625 75.984375 
L 18.40625 0 
L 9.421875 0 
z
" id="DejaVuSans-6c"/>
      <path d="M 30.609375 48.390625 
Q 23.390625 48.390625 19.1875 42.75 
Q 14.984375 37.109375 14.984375 27.296875 
Q 14.984375 17.484375 19.15625 11.84375 
Q 23.34375 6.203125 30.609375 6.203125 
Q 37.796875 6.203125 41.984375 11.859375 
Q 46.1875 17.53125 46.1875 27.296875 
Q 46.1875 37.015625 41.984375 42.703125 
Q 37.796875 48.390625 30.609375 48.390625 
M 30.609375 56 
Q 42.328125 56 49.015625 48.375 
Q 55.71875 40.765625 55.71875 27.296875 
Q 55.71875 13.875 49.015625 6.21875 
Q 42.328125 -1.421875 30.609375 -1.421875 
Q 18.84375 -1.421875 12.171875 6.21875 
Q 5.515625 13.875 5.515625 27.296875 
Q 5.515625 40.765625 12.171875 48.375 
Q 18.84375 56 30.609375 56 
" id="DejaVuSans-6f"/>
      <path d="M 45.40625 27.984375 
Q 45.40625 37.75 41.375 43.109375 
Q 37.359375 48.484375 30.078125 48.484375 
Q 22.859375 48.484375 18.828125 43.109375 
Q 14.796875 37.75 14.796875 27.984375 
Q 14.796875 18.265625 18.828125 12.890625 
Q 22.859375 7.515625 30.078125 7.515625 
Q 37.359375 7.515625 41.375 12.890625 
Q 45.40625 18.265625 45.40625 27.984375 
M 54.390625 6.78125 
Q 54.390625 -7.171875 48.1875 -13.984375 
Q 42 -20.796875 29.203125 -20.796875 
Q 24.46875 -20.796875 20.265625 -20.09375 
Q 16.0625 -19.390625 12.109375 -17.921875 
L 12.109375 -9.1875 
Q 16.0625 -11.328125 19.921875 -12.34375 
Q 23.78125 -13.375 27.78125 -13.375 
Q 36.625 -13.375 41.015625 -8.765625 
Q 45.40625 -4.15625 45.40625 5.171875 
L 45.40625 9.625 
Q 42.625 4.78125 38.28125 2.390625 
Q 33.9375 0 27.875 0 
Q 17.828125 0 11.671875 7.65625 
Q 5.515625 15.328125 5.515625 27.984375 
Q 5.515625 40.671875 11.671875 48.328125 
Q 17.828125 56 27.875 56 
Q 33.9375 56 38.28125 53.609375 
Q 42.625 51.21875 45.40625 46.390625 
L 45.40625 54.6875 
L 54.390625 54.6875 
z
" id="DejaVuSans-67"/>
      <path d="M 12.40625 8.296875 
L 28.515625 8.296875 
L 28.515625 63.921875 
L 10.984375 60.40625 
L 10.984375 69.390625 
L 28.421875 72.90625 
L 38.28125 72.90625 
L 38.28125 8.296875 
L 54.390625 8.296875 
L 54.390625 0 
L 12.40625 0 
z
" id="DejaVuSans-31"/>
      <path id="DejaVuSans-20"/>
      <path d="M 37.109375 75.984375 
L 37.109375 68.5 
L 28.515625 68.5 
Q 23.6875 68.5 21.796875 66.546875 
Q 19.921875 64.59375 19.921875 59.515625 
L 19.921875 54.6875 
L 34.71875 54.6875 
L 34.71875 47.703125 
L 19.921875 47.703125 
L 19.921875 0 
L 10.890625 0 
L 10.890625 47.703125 
L 2.296875 47.703125 
L 2.296875 54.6875 
L 10.890625 54.6875 
L 10.890625 58.5 
Q 10.890625 67.625 15.140625 71.796875 
Q 19.390625 75.984375 28.609375 75.984375 
z
" id="DejaVuSans-66"/>
      <path d="M 9.8125 72.90625 
L 51.703125 72.90625 
L 51.703125 64.59375 
L 19.671875 64.59375 
L 19.671875 43.109375 
L 48.578125 43.109375 
L 48.578125 34.8125 
L 19.671875 34.8125 
L 19.671875 0 
L 9.8125 0 
z
" id="DejaVuSans-46"/>
      <path d="M 9.8125 72.90625 
L 55.90625 72.90625 
L 55.90625 64.59375 
L 19.671875 64.59375 
L 19.671875 43.015625 
L 54.390625 43.015625 
L 54.390625 34.71875 
L 19.671875 34.71875 
L 19.671875 8.296875 
L 56.78125 8.296875 
L 56.78125 0 
L 9.8125 0 
z
" id="DejaVuSans-45"/>
      <path d="M 2.984375 54.6875 
L 12.5 54.6875 
L 29.59375 8.796875 
L 46.6875 54.6875 
L 56.203125 54.6875 
L 35.6875 0 
L 23.484375 0 
z
" id="DejaVuSans-76"/>
      <path d="M 34.28125 27.484375 
Q 23.390625 27.484375 19.1875 25 
Q 14.984375 22.515625 14.984375 16.5 
Q 14.984375 11.71875 18.140625 8.90625 
Q 21.296875 6.109375 26.703125 6.109375 
Q 34.1875 6.109375 38.703125 11.40625 
Q 43.21875 16.703125 43.21875 25.484375 
L 43.21875 27.484375 
z
M 52.203125 31.203125 
L 52.203125 0 
L 43.21875 0 
L 43.21875 8.296875 
Q 40.140625 3.328125 35.546875 0.953125 
Q 30.953125 -1.421875 24.3125 -1.421875 
Q 15.921875 -1.421875 10.953125 3.296875 
Q 6 8.015625 6 15.921875 
Q 6 25.140625 12.171875 29.828125 
Q 18.359375 34.515625 30.609375 34.515625 
L 43.21875 34.515625 
L 43.21875 35.40625 
Q 43.21875 41.609375 39.140625 45 
Q 35.0625 48.390625 27.6875 48.390625 
Q 23 48.390625 18.546875 47.265625 
Q 14.109375 46.140625 10.015625 43.890625 
L 10.015625 52.203125 
Q 14.9375 54.109375 19.578125 55.046875 
Q 24.21875 56 28.609375 56 
Q 40.484375 56 46.34375 49.84375 
Q 52.203125 43.703125 52.203125 31.203125 
" id="DejaVuSans-61"/>
      <path d="M 44.28125 53.078125 
L 44.28125 44.578125 
Q 40.484375 46.53125 36.375 47.5 
Q 32.28125 48.484375 27.875 48.484375 
Q 21.1875 48.484375 17.84375 46.4375 
Q 14.5 44.390625 14.5 40.28125 
Q 14.5 37.15625 16.890625 35.375 
Q 19.28125 33.59375 26.515625 31.984375 
L 29.59375 31.296875 
Q 39.15625 29.25 43.1875 25.515625 
Q 47.21875 21.78125 47.21875 15.09375 
Q 47.21875 7.46875 41.1875 3.015625 
Q 35.15625 -1.421875 24.609375 -1.421875 
Q 20.21875 -1.421875 15.453125 -0.5625 
Q 10.6875 0.296875 5.421875 2 
L 5.421875 11.28125 
Q 10.40625 8.6875 15.234375 7.390625 
Q 20.0625 6.109375 24.8125 6.109375 
Q 31.15625 6.109375 34.5625 8.28125 
Q 37.984375 10.453125 37.984375 14.40625 
Q 37.984375 18.0625 35.515625 20.015625 
Q 33.0625 21.96875 24.703125 23.78125 
L 21.578125 24.515625 
Q 13.234375 26.265625 9.515625 29.90625 
Q 5.8125 33.546875 5.8125 39.890625 
Q 5.8125 47.609375 11.28125 51.796875 
Q 16.75 56 26.8125 56 
Q 31.78125 56 36.171875 55.265625 
Q 40.578125 54.546875 44.28125 53.078125 
" id="DejaVuSans-73"/>
      <path d="M 25.390625 72.90625 
L 33.6875 72.90625 
L 8.296875 -9.28125 
L 0 -9.28125 
z
" id="DejaVuSans-2f"/>
      <path d="M 19.671875 64.796875 
L 19.671875 8.109375 
L 31.59375 8.109375 
Q 46.6875 8.109375 53.6875 14.9375 
Q 60.6875 21.78125 60.6875 36.53125 
Q 60.6875 51.171875 53.6875 57.984375 
Q 46.6875 64.796875 31.59375 64.796875 
z
M 9.8125 72.90625 
L 30.078125 72.90625 
Q 51.265625 72.90625 61.171875 64.09375 
Q 71.09375 55.28125 71.09375 36.53125 
Q 71.09375 17.671875 61.125 8.828125 
Q 51.171875 0 30.078125 0 
L 9.8125 0 
z
" id="DejaVuSans-44"/>
      <path d="M 9.8125 72.90625 
L 19.671875 72.90625 
L 19.671875 0 
L 9.8125 0 
z
" id="DejaVuSans-49"/>
      <path d="M 9.8125 72.90625 
L 24.515625 72.90625 
L 43.109375 23.296875 
L 61.8125 72.90625 
L 76.515625 72.90625 
L 76.515625 0 
L 66.890625 0 
L 66.890625 64.015625 
L 48.09375 14.015625 
L 38.1875 14.015625 
L 19.390625 64.015625 
L 19.390625 0 
L 9.8125 0 
z
" id="DejaVuSans-4d"/>
     </defs>
     <g transform="translate(142.849063 323.82879)scale(0.2 -0.2)">
      <use xlink:href="#DejaVuSans-6c"/>
      <use x="27.783203" xlink:href="#DejaVuSans-6f"/>
      <use x="88.964844" xlink:href="#DejaVuSans-67"/>
      <use x="152.441406" xlink:href="#DejaVuSans-31"/>
      <use x="216.064453" xlink:href="#DejaVuSans-30"/>
      <use x="279.6875" xlink:href="#DejaVuSans-20"/>
      <use x="311.474609" xlink:href="#DejaVuSans-6f"/>
      <use x="372.65625" xlink:href="#DejaVuSans-66"/>
      <use x="407.861328" xlink:href="#DejaVuSans-20"/>
      <use x="439.648438" xlink:href="#DejaVuSans-46"/>
      <use x="497.167969" xlink:href="#DejaVuSans-45"/>
      <use x="560.351562" xlink:href="#DejaVuSans-76"/>
      <use x="619.53125" xlink:href="#DejaVuSans-61"/>
      <use x="680.810547" xlink:href="#DejaVuSans-6c"/>
      <use x="708.59375" xlink:href="#DejaVuSans-73"/>
      <use x="760.693359" xlink:href="#DejaVuSans-20"/>
      <use x="792.480469" xlink:href="#DejaVuSans-2f"/>
      <use x="826.171875" xlink:href="#DejaVuSans-20"/>
      <use x="857.958984" xlink:href="#DejaVuSans-44"/>
      <use x="934.960938" xlink:href="#DejaVuSans-49"/>
      <use x="964.453125" xlink:href="#DejaVuSans-4d"/>
     </g>
    </g>
   </g>
   <g id="matplotlib.axis_2">
    <g id="ytick_1">
     <g id="line2d_55">
      <path clip-path="url(#p7e4d01c7e4)" d="M 69.3625 278.275665 
L 426.4825 278.275665 
" style="fill:none;stroke:#b0b0b0;stroke-linecap:square;stroke-width:0.8;"/>
     </g>
     <g id="line2d_56">
      <defs>
       <path d="M 0 0 
L -3.5 0 
" id="m527c8dc6b4" style="stroke:#000000;stroke-width:0.8;"/>
      </defs>
      <g>
       <use style="stroke:#000000;stroke-width:0.8;" x="69.3625" xlink:href="#m527c8dc6b4" y="278.275665"/>
      </g>
     </g>
     <g id="text_4">
      <!-- 0.0 -->
      <defs>
       <path d="M 10.6875 12.40625 
L 21 12.40625 
L 21 0 
L 10.6875 0 
z
" id="DejaVuSans-2e"/>
      </defs>
      <g transform="translate(30.55625 285.874103)scale(0.2 -0.2)">
       <use xlink:href="#DejaVuSans-30"/>
       <use x="63.623047" xlink:href="#DejaVuSans-2e"/>
       <use x="95.410156" xlink:href="#DejaVuSans-30"/>
      </g>
     </g>
    </g>
    <g id="ytick_2">
     <g id="line2d_57">
      <path clip-path="url(#p7e4d01c7e4)" d="M 69.3625 225.58022 
L 426.4825 225.58022 
" style="fill:none;stroke:#b0b0b0;stroke-linecap:square;stroke-width:0.8;"/>
     </g>
     <g id="line2d_58">
      <g>
       <use style="stroke:#000000;stroke-width:0.8;" x="69.3625" xlink:href="#m527c8dc6b4" y="225.58022"/>
      </g>
     </g>
     <g id="text_5">
      <!-- 0.2 -->
      <g transform="translate(30.55625 233.178657)scale(0.2 -0.2)">
       <use xlink:href="#DejaVuSans-30"/>
       <use x="63.623047" xlink:href="#DejaVuSans-2e"/>
       <use x="95.410156" xlink:href="#DejaVuSans-32"/>
      </g>
     </g>
    </g>
    <g id="ytick_3">
     <g id="line2d_59">
      <path clip-path="url(#p7e4d01c7e4)" d="M 69.3625 172.884774 
L 426.4825 172.884774 
" style="fill:none;stroke:#b0b0b0;stroke-linecap:square;stroke-width:0.8;"/>
     </g>
     <g id="line2d_60">
      <g>
       <use style="stroke:#000000;stroke-width:0.8;" x="69.3625" xlink:href="#m527c8dc6b4" y="172.884774"/>
      </g>
     </g>
     <g id="text_6">
      <!-- 0.4 -->
      <defs>
       <path d="M 37.796875 64.3125 
L 12.890625 25.390625 
L 37.796875 25.390625 
z
M 35.203125 72.90625 
L 47.609375 72.90625 
L 47.609375 25.390625 
L 58.015625 25.390625 
L 58.015625 17.1875 
L 47.609375 17.1875 
L 47.609375 0 
L 37.796875 0 
L 37.796875 17.1875 
L 4.890625 17.1875 
L 4.890625 26.703125 
z
" id="DejaVuSans-34"/>
      </defs>
      <g transform="translate(30.55625 180.483212)scale(0.2 -0.2)">
       <use xlink:href="#DejaVuSans-30"/>
       <use x="63.623047" xlink:href="#DejaVuSans-2e"/>
       <use x="95.410156" xlink:href="#DejaVuSans-34"/>
      </g>
     </g>
    </g>
    <g id="ytick_4">
     <g id="line2d_61">
      <path clip-path="url(#p7e4d01c7e4)" d="M 69.3625 120.189329 
L 426.4825 120.189329 
" style="fill:none;stroke:#b0b0b0;stroke-linecap:square;stroke-width:0.8;"/>
     </g>
     <g id="line2d_62">
      <g>
       <use style="stroke:#000000;stroke-width:0.8;" x="69.3625" xlink:href="#m527c8dc6b4" y="120.189329"/>
      </g>
     </g>
     <g id="text_7">
      <!-- 0.6 -->
      <defs>
       <path d="M 33.015625 40.375 
Q 26.375 40.375 22.484375 35.828125 
Q 18.609375 31.296875 18.609375 23.390625 
Q 18.609375 15.53125 22.484375 10.953125 
Q 26.375 6.390625 33.015625 6.390625 
Q 39.65625 6.390625 43.53125 10.953125 
Q 47.40625 15.53125 47.40625 23.390625 
Q 47.40625 31.296875 43.53125 35.828125 
Q 39.65625 40.375 33.015625 40.375 
M 52.59375 71.296875 
L 52.59375 62.3125 
Q 48.875 64.0625 45.09375 64.984375 
Q 41.3125 65.921875 37.59375 65.921875 
Q 27.828125 65.921875 22.671875 59.328125 
Q 17.53125 52.734375 16.796875 39.40625 
Q 19.671875 43.65625 24.015625 45.921875 
Q 28.375 48.1875 33.59375 48.1875 
Q 44.578125 48.1875 50.953125 41.515625 
Q 57.328125 34.859375 57.328125 23.390625 
Q 57.328125 12.15625 50.6875 5.359375 
Q 44.046875 -1.421875 33.015625 -1.421875 
Q 20.359375 -1.421875 13.671875 8.265625 
Q 6.984375 17.96875 6.984375 36.375 
Q 6.984375 53.65625 15.1875 63.9375 
Q 23.390625 74.21875 37.203125 74.21875 
Q 40.921875 74.21875 44.703125 73.484375 
Q 48.484375 72.75 52.59375 71.296875 
" id="DejaVuSans-36"/>
      </defs>
      <g transform="translate(30.55625 127.787766)scale(0.2 -0.2)">
       <use xlink:href="#DejaVuSans-30"/>
       <use x="63.623047" xlink:href="#DejaVuSans-2e"/>
       <use x="95.410156" xlink:href="#DejaVuSans-36"/>
      </g>
     </g>
    </g>
    <g id="ytick_5">
     <g id="line2d_63">
      <path clip-path="url(#p7e4d01c7e4)" d="M 69.3625 67.493883 
L 426.4825 67.493883 
" style="fill:none;stroke:#b0b0b0;stroke-linecap:square;stroke-width:0.8;"/>
     </g>
     <g id="line2d_64">
      <g>
       <use style="stroke:#000000;stroke-width:0.8;" x="69.3625" xlink:href="#m527c8dc6b4" y="67.493883"/>
      </g>
     </g>
     <g id="text_8">
      <!-- 0.8 -->
      <defs>
       <path d="M 31.78125 34.625 
Q 24.75 34.625 20.71875 30.859375 
Q 16.703125 27.09375 16.703125 20.515625 
Q 16.703125 13.921875 20.71875 10.15625 
Q 24.75 6.390625 31.78125 6.390625 
Q 38.8125 6.390625 42.859375 10.171875 
Q 46.921875 13.96875 46.921875 20.515625 
Q 46.921875 27.09375 42.890625 30.859375 
Q 38.875 34.625 31.78125 34.625 
M 21.921875 38.8125 
Q 15.578125 40.375 12.03125 44.71875 
Q 8.5 49.078125 8.5 55.328125 
Q 8.5 64.0625 14.71875 69.140625 
Q 20.953125 74.21875 31.78125 74.21875 
Q 42.671875 74.21875 48.875 69.140625 
Q 55.078125 64.0625 55.078125 55.328125 
Q 55.078125 49.078125 51.53125 44.71875 
Q 48 40.375 41.703125 38.8125 
Q 48.828125 37.15625 52.796875 32.3125 
Q 56.78125 27.484375 56.78125 20.515625 
Q 56.78125 9.90625 50.3125 4.234375 
Q 43.84375 -1.421875 31.78125 -1.421875 
Q 19.734375 -1.421875 13.25 4.234375 
Q 6.78125 9.90625 6.78125 20.515625 
Q 6.78125 27.484375 10.78125 32.3125 
Q 14.796875 37.15625 21.921875 38.8125 
M 18.3125 54.390625 
Q 18.3125 48.734375 21.84375 45.5625 
Q 25.390625 42.390625 31.78125 42.390625 
Q 38.140625 42.390625 41.71875 45.5625 
Q 45.3125 48.734375 45.3125 54.390625 
Q 45.3125 60.0625 41.71875 63.234375 
Q 38.140625 66.40625 31.78125 66.40625 
Q 25.390625 66.40625 21.84375 63.234375 
Q 18.3125 60.0625 18.3125 54.390625 
" id="DejaVuSans-38"/>
      </defs>
      <g transform="translate(30.55625 75.092321)scale(0.2 -0.2)">
       <use xlink:href="#DejaVuSans-30"/>
       <use x="63.623047" xlink:href="#DejaVuSans-2e"/>
       <use x="95.410156" xlink:href="#DejaVuSans-38"/>
      </g>
     </g>
    </g>
    <g id="ytick_6">
     <g id="line2d_65">
      <path clip-path="url(#p7e4d01c7e4)" d="M 69.3625 14.798437 
L 426.4825 14.798437 
" style="fill:none;stroke:#b0b0b0;stroke-linecap:square;stroke-width:0.8;"/>
     </g>
     <g id="line2d_66">
      <g>
       <use style="stroke:#000000;stroke-width:0.8;" x="69.3625" xlink:href="#m527c8dc6b4" y="14.798437"/>
      </g>
     </g>
     <g id="text_9">
      <!-- 1.0 -->
      <g transform="translate(30.55625 22.396875)scale(0.2 -0.2)">
       <use xlink:href="#DejaVuSans-31"/>
       <use x="63.623047" xlink:href="#DejaVuSans-2e"/>
       <use x="95.410156" xlink:href="#DejaVuSans-30"/>
      </g>
     </g>
    </g>
    <g id="text_10">
     <!-- proportion of trials -->
     <defs>
      <path d="M 18.109375 8.203125 
L 18.109375 -20.796875 
L 9.078125 -20.796875 
L 9.078125 54.6875 
L 18.109375 54.6875 
L 18.109375 46.390625 
Q 20.953125 51.265625 25.265625 53.625 
Q 29.59375 56 35.59375 56 
Q 45.5625 56 51.78125 48.09375 
Q 58.015625 40.1875 58.015625 27.296875 
Q 58.015625 14.40625 51.78125 6.484375 
Q 45.5625 -1.421875 35.59375 -1.421875 
Q 29.59375 -1.421875 25.265625 0.953125 
Q 20.953125 3.328125 18.109375 8.203125 
M 48.6875 27.296875 
Q 48.6875 37.203125 44.609375 42.84375 
Q 40.53125 48.484375 33.40625 48.484375 
Q 26.265625 48.484375 22.1875 42.84375 
Q 18.109375 37.203125 18.109375 27.296875 
Q 18.109375 17.390625 22.1875 11.75 
Q 26.265625 6.109375 33.40625 6.109375 
Q 40.53125 6.109375 44.609375 11.75 
Q 48.6875 17.390625 48.6875 27.296875 
" id="DejaVuSans-70"/>
      <path d="M 41.109375 46.296875 
Q 39.59375 47.171875 37.8125 47.578125 
Q 36.03125 48 33.890625 48 
Q 26.265625 48 22.1875 43.046875 
Q 18.109375 38.09375 18.109375 28.8125 
L 18.109375 0 
L 9.078125 0 
L 9.078125 54.6875 
L 18.109375 54.6875 
L 18.109375 46.1875 
Q 20.953125 51.171875 25.484375 53.578125 
Q 30.03125 56 36.53125 56 
Q 37.453125 56 38.578125 55.875 
Q 39.703125 55.765625 41.0625 55.515625 
z
" id="DejaVuSans-72"/>
      <path d="M 18.3125 70.21875 
L 18.3125 54.6875 
L 36.8125 54.6875 
L 36.8125 47.703125 
L 18.3125 47.703125 
L 18.3125 18.015625 
Q 18.3125 11.328125 20.140625 9.421875 
Q 21.96875 7.515625 27.59375 7.515625 
L 36.8125 7.515625 
L 36.8125 0 
L 27.59375 0 
Q 17.1875 0 13.234375 3.875 
Q 9.28125 7.765625 9.28125 18.015625 
L 9.28125 47.703125 
L 2.6875 47.703125 
L 2.6875 54.6875 
L 9.28125 54.6875 
L 9.28125 70.21875 
z
" id="DejaVuSans-74"/>
      <path d="M 9.421875 54.6875 
L 18.40625 54.6875 
L 18.40625 0 
L 9.421875 0 
z
M 9.421875 75.984375 
L 18.40625 75.984375 
L 18.40625 64.59375 
L 9.421875 64.59375 
z
" id="DejaVuSans-69"/>
      <path d="M 54.890625 33.015625 
L 54.890625 0 
L 45.90625 0 
L 45.90625 32.71875 
Q 45.90625 40.484375 42.875 44.328125 
Q 39.84375 48.1875 33.796875 48.1875 
Q 26.515625 48.1875 22.3125 43.546875 
Q 18.109375 38.921875 18.109375 30.90625 
L 18.109375 0 
L 9.078125 0 
L 9.078125 54.6875 
L 18.109375 54.6875 
L 18.109375 46.1875 
Q 21.34375 51.125 25.703125 53.5625 
Q 30.078125 56 35.796875 56 
Q 45.21875 56 50.046875 50.171875 
Q 54.890625 44.34375 54.890625 33.015625 
" id="DejaVuSans-6e"/>
     </defs>
     <g transform="translate(22.396875 238.44779)rotate(-90)scale(0.2 -0.2)">
      <use xlink:href="#DejaVuSans-70"/>
      <use x="63.476562" xlink:href="#DejaVuSans-72"/>
      <use x="104.558594" xlink:href="#DejaVuSans-6f"/>
      <use x="165.740234" xlink:href="#DejaVuSans-70"/>
      <use x="229.216797" xlink:href="#DejaVuSans-6f"/>
      <use x="290.398438" xlink:href="#DejaVuSans-72"/>
      <use x="331.511719" xlink:href="#DejaVuSans-74"/>
      <use x="370.720703" xlink:href="#DejaVuSans-69"/>
      <use x="398.503906" xlink:href="#DejaVuSans-6f"/>
      <use x="459.685547" xlink:href="#DejaVuSans-6e"/>
      <use x="523.064453" xlink:href="#DejaVuSans-20"/>
      <use x="554.851562" xlink:href="#DejaVuSans-6f"/>
      <use x="616.033203" xlink:href="#DejaVuSans-66"/>
      <use x="651.238281" xlink:href="#DejaVuSans-20"/>
      <use x="683.025391" xlink:href="#DejaVuSans-74"/>
      <use x="722.234375" xlink:href="#DejaVuSans-72"/>
      <use x="763.347656" xlink:href="#DejaVuSans-69"/>
      <use x="791.130859" xlink:href="#DejaVuSans-61"/>
      <use x="852.410156" xlink:href="#DejaVuSans-6c"/>
      <use x="880.193359" xlink:href="#DejaVuSans-73"/>
     </g>
    </g>
   </g>
   <g id="line2d_67">
    <path clip-path="url(#p7e4d01c7e4)" d="M -1 271.249606 
L 69.3625 271.249606 
L 69.3625 267.736576 
L 161.848214 267.736576 
L 161.848214 264.223546 
L 172.32525 264.223546 
L 172.32525 260.710517 
L 174.209504 260.710517 
L 174.209504 257.197487 
L 179.517701 257.197487 
L 179.517701 253.684457 
L 193.012665 253.684457 
L 193.012665 250.171428 
L 194.333749 250.171428 
L 194.333749 246.658398 
L 196.888152 246.658398 
L 196.888152 243.145368 
L 196.888152 243.145368 
L 196.888152 239.632338 
L 207.156605 239.632338 
L 207.156605 236.119309 
L 212.156679 236.119309 
L 212.156679 232.606279 
L 221.014887 232.606279 
L 221.014887 229.093249 
L 239.165252 229.093249 
L 239.165252 225.58022 
L 273.008652 225.58022 
L 273.008652 222.06719 
L 280.18156 222.06719 
L 280.18156 218.55416 
L 291.579601 218.55416 
L 291.579601 215.041131 
L 292.296425 215.041131 
L 292.296425 211.528101 
L 296.41916 211.528101 
L 296.41916 208.015071 
L 300.265811 208.015071 
L 300.265811 204.502041 
L 302.296573 204.502041 
L 302.296573 200.989012 
L 302.694254 200.989012 
L 302.694254 197.475982 
L 302.892067 197.475982 
L 302.892067 193.962952 
L 309.944956 193.962952 
L 309.944956 190.449923 
L 310.119355 190.449923 
L 310.119355 186.936893 
L 312.339661 186.936893 
L 312.339661 183.423863 
L 313.500601 183.423863 
L 313.500601 179.910834 
L 316.382439 179.910834 
L 316.382439 176.397804 
L 317.157951 176.397804 
L 317.157951 172.884774 
L 319.571518 172.884774 
L 319.571518 169.371744 
L 322.872515 169.371744 
L 322.872515 165.858715 
L 322.872515 165.858715 
L 322.872515 165.858715 
L 426.4825 165.858715 
" style="fill:none;stroke:#000000;stroke-linecap:square;stroke-width:1.5;"/>
   </g>
   <g id="line2d_68"/>
   <g id="line2d_69">
    <path clip-path="url(#p7e4d01c7e4)" d="M 260.434382 278.275665 
L 260.434382 274.762636 
L 262.862825 274.762636 
L 262.862825 271.249606 
L 268.159364 271.249606 
L 268.159364 267.736576 
L 269.58713 267.736576 
L 269.58713 264.223546 
L 274.967863 264.223546 
L 274.967863 260.710517 
L 275.288001 260.710517 
L 275.288001 257.197487 
L 276.55101 257.197487 
L 276.55101 253.684457 
L 278.394952 253.684457 
L 278.394952 250.171428 
L 278.996681 250.171428 
L 278.996681 246.658398 
L 280.474002 246.658398 
L 280.474002 243.145368 
L 281.629108 243.145368 
L 281.629108 239.632338 
L 283.319365 239.632338 
L 283.319365 236.119309 
L 286.294668 236.119309 
L 286.294668 232.606279 
L 288.110857 232.606279 
L 288.110857 229.093249 
L 295.303307 229.093249 
L 295.303307 225.58022 
L 329.702827 225.58022 
L 329.702827 222.06719 
L 337.453507 222.06719 
L 337.453507 218.55416 
L 337.453507 218.55416 
L 337.453507 218.55416 
L 426.4825 218.55416 
" style="fill:none;stroke:#00bfbf;stroke-linecap:square;stroke-width:1.5;"/>
   </g>
   <g id="line2d_70"/>
   <g id="line2d_71">
    <path clip-path="url(#p7e4d01c7e4)" d="M 386.926241 278.275665 
L 386.926241 274.762636 
L 386.926241 274.762636 
L 386.926241 274.762636 
L 426.4825 274.762636 
" style="fill:none;stroke:#bf00bf;stroke-linecap:square;stroke-width:1.5;"/>
   </g>
   <g id="line2d_72"/>
   <g id="line2d_73"/>
   <g id="line2d_74">
    <path clip-path="url(#p7e4d01c7e4)" d="M 426.4825 278.275665 
L 426.4825 12.163665 
" style="fill:none;stroke:#000000;stroke-linecap:square;stroke-width:1.5;"/>
   </g>
   <g id="patch_3">
    <path d="M 69.3625 278.275665 
L 69.3625 12.163665 
" style="fill:none;stroke:#000000;stroke-linecap:square;stroke-linejoin:miter;stroke-width:0.8;"/>
   </g>
   <g id="patch_4">
    <path d="M 426.4825 278.275665 
L 426.4825 12.163665 
" style="fill:none;stroke:#000000;stroke-linecap:square;stroke-linejoin:miter;stroke-width:0.8;"/>
   </g>
   <g id="patch_5">
    <path d="M 69.3625 278.275665 
L 426.4825 278.275665 
" style="fill:none;stroke:#000000;stroke-linecap:square;stroke-linejoin:miter;stroke-width:0.8;"/>
   </g>
   <g id="patch_6">
    <path d="M 69.3625 12.163665 
L 426.4825 12.163665 
" style="fill:none;stroke:#000000;stroke-linecap:square;stroke-linejoin:miter;stroke-width:0.8;"/>
   </g>
   <g id="text_11">
    <!-- {f10-f14}, 5-D -->
    <defs>
     <path d="M 51.125 -9.28125 
L 51.125 -16.3125 
L 48.09375 -16.3125 
Q 35.9375 -16.3125 31.8125 -12.6875 
Q 27.6875 -9.078125 27.6875 1.703125 
L 27.6875 13.375 
Q 27.6875 20.75 25.046875 23.578125 
Q 22.40625 26.421875 15.484375 26.421875 
L 12.5 26.421875 
L 12.5 33.40625 
L 15.484375 33.40625 
Q 22.46875 33.40625 25.078125 36.203125 
Q 27.6875 39.015625 27.6875 46.296875 
L 27.6875 58.015625 
Q 27.6875 68.796875 31.8125 72.390625 
Q 35.9375 75.984375 48.09375 75.984375 
L 51.125 75.984375 
L 51.125 69 
L 47.796875 69 
Q 40.921875 69 38.8125 66.84375 
Q 36.71875 64.703125 36.71875 57.8125 
L 36.71875 45.703125 
Q 36.71875 38.03125 34.5 34.5625 
Q 32.28125 31.109375 26.90625 29.890625 
Q 32.328125 28.5625 34.515625 25.09375 
Q 36.71875 21.625 36.71875 14.015625 
L 36.71875 1.90625 
Q 36.71875 -4.984375 38.8125 -7.125 
Q 40.921875 -9.28125 47.796875 -9.28125 
z
" id="DejaVuSans-7b"/>
     <path d="M 4.890625 31.390625 
L 31.203125 31.390625 
L 31.203125 23.390625 
L 4.890625 23.390625 
z
" id="DejaVuSans-2d"/>
     <path d="M 12.5 -9.28125 
L 15.921875 -9.28125 
Q 22.75 -9.28125 24.828125 -7.171875 
Q 26.90625 -5.078125 26.90625 1.90625 
L 26.90625 14.015625 
Q 26.90625 21.625 29.09375 25.09375 
Q 31.296875 28.5625 36.71875 29.890625 
Q 31.296875 31.109375 29.09375 34.5625 
Q 26.90625 38.03125 26.90625 45.703125 
L 26.90625 57.8125 
Q 26.90625 64.75 24.828125 66.875 
Q 22.75 69 15.921875 69 
L 12.5 69 
L 12.5 75.984375 
L 15.578125 75.984375 
Q 27.734375 75.984375 31.8125 72.390625 
Q 35.890625 68.796875 35.890625 58.015625 
L 35.890625 46.296875 
Q 35.890625 39.015625 38.515625 36.203125 
Q 41.15625 33.40625 48.09375 33.40625 
L 51.125 33.40625 
L 51.125 26.421875 
L 48.09375 26.421875 
Q 41.15625 26.421875 38.515625 23.578125 
Q 35.890625 20.75 35.890625 13.375 
L 35.890625 1.703125 
Q 35.890625 -9.078125 31.8125 -12.6875 
Q 27.734375 -16.3125 15.578125 -16.3125 
L 12.5 -16.3125 
z
" id="DejaVuSans-7d"/>
     <path d="M 11.71875 12.40625 
L 22.015625 12.40625 
L 22.015625 4 
L 14.015625 -11.625 
L 7.71875 -11.625 
L 11.71875 4 
z
" id="DejaVuSans-2c"/>
     <path d="M 10.796875 72.90625 
L 49.515625 72.90625 
L 49.515625 64.59375 
L 19.828125 64.59375 
L 19.828125 46.734375 
Q 21.96875 47.46875 24.109375 47.828125 
Q 26.265625 48.1875 28.421875 48.1875 
Q 40.625 48.1875 47.75 41.5 
Q 54.890625 34.8125 54.890625 23.390625 
Q 54.890625 11.625 47.5625 5.09375 
Q 40.234375 -1.421875 26.90625 -1.421875 
Q 22.3125 -1.421875 17.546875 -0.640625 
Q 12.796875 0.140625 7.71875 1.703125 
L 7.71875 11.625 
Q 12.109375 9.234375 16.796875 8.0625 
Q 21.484375 6.890625 26.703125 6.890625 
Q 35.15625 6.890625 40.078125 11.328125 
Q 45.015625 15.765625 45.015625 23.390625 
Q 45.015625 31 40.078125 35.4375 
Q 35.15625 39.890625 26.703125 39.890625 
Q 22.75 39.890625 18.8125 39.015625 
Q 14.890625 38.140625 10.796875 36.28125 
z
" id="DejaVuSans-35"/>
    </defs>
    <g transform="translate(175.0725 32.68278)scale(0.2 -0.2)">
     <use xlink:href="#DejaVuSans-7b"/>
     <use x="63.623047" xlink:href="#DejaVuSans-66"/>
     <use x="98.828125" xlink:href="#DejaVuSans-31"/>
     <use x="162.451172" xlink:href="#DejaVuSans-30"/>
     <use x="226.074219" xlink:href="#DejaVuSans-2d"/>
     <use x="262.158203" xlink:href="#DejaVuSans-66"/>
     <use x="297.363281" xlink:href="#DejaVuSans-31"/>
     <use x="360.986328" xlink:href="#DejaVuSans-34"/>
     <use x="424.609375" xlink:href="#DejaVuSans-7d"/>
     <use x="488.232422" xlink:href="#DejaVuSans-2c"/>
     <use x="520.019531" xlink:href="#DejaVuSans-20"/>
     <use x="551.806641" xlink:href="#DejaVuSans-35"/>
     <use x="615.429688" xlink:href="#DejaVuSans-2d"/>
     <use x="651.513672" xlink:href="#DejaVuSans-44"/>
    </g>
   </g>
   <g id="text_12">
    <!-- absolute targets -->
    <defs>
     <path d="M 48.6875 27.296875 
Q 48.6875 37.203125 44.609375 42.84375 
Q 40.53125 48.484375 33.40625 48.484375 
Q 26.265625 48.484375 22.1875 42.84375 
Q 18.109375 37.203125 18.109375 27.296875 
Q 18.109375 17.390625 22.1875 11.75 
Q 26.265625 6.109375 33.40625 6.109375 
Q 40.53125 6.109375 44.609375 11.75 
Q 48.6875 17.390625 48.6875 27.296875 
M 18.109375 46.390625 
Q 20.953125 51.265625 25.265625 53.625 
Q 29.59375 56 35.59375 56 
Q 45.5625 56 51.78125 48.09375 
Q 58.015625 40.1875 58.015625 27.296875 
Q 58.015625 14.40625 51.78125 6.484375 
Q 45.5625 -1.421875 35.59375 -1.421875 
Q 29.59375 -1.421875 25.265625 0.953125 
Q 20.953125 3.328125 18.109375 8.203125 
L 18.109375 0 
L 9.078125 0 
L 9.078125 75.984375 
L 18.109375 75.984375 
z
" id="DejaVuSans-62"/>
     <path d="M 8.5 21.578125 
L 8.5 54.6875 
L 17.484375 54.6875 
L 17.484375 21.921875 
Q 17.484375 14.15625 20.5 10.265625 
Q 23.53125 6.390625 29.59375 6.390625 
Q 36.859375 6.390625 41.078125 11.03125 
Q 45.3125 15.671875 45.3125 23.6875 
L 45.3125 54.6875 
L 54.296875 54.6875 
L 54.296875 0 
L 45.3125 0 
L 45.3125 8.40625 
Q 42.046875 3.421875 37.71875 1 
Q 33.40625 -1.421875 27.6875 -1.421875 
Q 18.265625 -1.421875 13.375 4.4375 
Q 8.5 10.296875 8.5 21.578125 
M 31.109375 56 
z
" id="DejaVuSans-75"/>
     <path d="M 56.203125 29.59375 
L 56.203125 25.203125 
L 14.890625 25.203125 
Q 15.484375 15.921875 20.484375 11.0625 
Q 25.484375 6.203125 34.421875 6.203125 
Q 39.59375 6.203125 44.453125 7.46875 
Q 49.3125 8.734375 54.109375 11.28125 
L 54.109375 2.78125 
Q 49.265625 0.734375 44.1875 -0.34375 
Q 39.109375 -1.421875 33.890625 -1.421875 
Q 20.796875 -1.421875 13.15625 6.1875 
Q 5.515625 13.8125 5.515625 26.8125 
Q 5.515625 40.234375 12.765625 48.109375 
Q 20.015625 56 32.328125 56 
Q 43.359375 56 49.78125 48.890625 
Q 56.203125 41.796875 56.203125 29.59375 
M 47.21875 32.234375 
Q 47.125 39.59375 43.09375 43.984375 
Q 39.0625 48.390625 32.421875 48.390625 
Q 24.90625 48.390625 20.390625 44.140625 
Q 15.875 39.890625 15.1875 32.171875 
z
" id="DejaVuSans-65"/>
    </defs>
    <g transform="translate(69.3625 291.449527)scale(0.14 -0.14)">
     <use xlink:href="#DejaVuSans-61"/>
     <use x="61.279297" xlink:href="#DejaVuSans-62"/>
     <use x="124.755859" xlink:href="#DejaVuSans-73"/>
     <use x="176.855469" xlink:href="#DejaVuSans-6f"/>
     <use x="238.037109" xlink:href="#DejaVuSans-6c"/>
     <use x="265.820312" xlink:href="#DejaVuSans-75"/>
     <use x="329.199219" xlink:href="#DejaVuSans-74"/>
     <use x="368.408203" xlink:href="#DejaVuSans-65"/>
     <use x="429.931641" xlink:href="#DejaVuSans-20"/>
     <use x="461.71875" xlink:href="#DejaVuSans-74"/>
     <use x="500.927734" xlink:href="#DejaVuSans-61"/>
     <use x="562.207031" xlink:href="#DejaVuSans-72"/>
     <use x="603.304688" xlink:href="#DejaVuSans-67"/>
     <use x="666.78125" xlink:href="#DejaVuSans-65"/>
     <use x="728.304688" xlink:href="#DejaVuSans-74"/>
     <use x="767.513672" xlink:href="#DejaVuSans-73"/>
    </g>
   </g>
   <g id="text_13">
    <!-- v2.1 -->
    <g style="fill:#808080;" transform="translate(237.011563 273.534858)scale(0.1 -0.1)">
     <use xlink:href="#DejaVuSans-76"/>
     <use x="59.179688" xlink:href="#DejaVuSans-32"/>
     <use x="122.802734" xlink:href="#DejaVuSans-2e"/>
     <use x="154.589844" xlink:href="#DejaVuSans-31"/>
    </g>
   </g>
   <g id="legend_1">
    <g id="patch_7">
     <path d="M 83.3625 145.588665 
L 212.584375 145.588665 
Q 216.584375 145.588665 216.584375 141.588665 
L 216.584375 26.163665 
Q 216.584375 22.163665 212.584375 22.163665 
L 83.3625 22.163665 
Q 79.3625 22.163665 79.3625 26.163665 
L 79.3625 141.588665 
Q 79.3625 145.588665 83.3625 145.588665 
z
" style="fill:#ffffff;opacity:0.2;stroke:#cccccc;stroke-linejoin:miter;"/>
    </g>
    <g id="line2d_75">
     <path d="M 87.3625 38.36054 
L 127.3625 38.36054 
" style="fill:none;stroke:#000000;stroke-linecap:square;stroke-width:1.5;"/>
    </g>
    <g id="line2d_76"/>
    <g id="text_14">
     <!-- 1: 3/5 -->
     <defs>
      <path d="M 11.71875 12.40625 
L 22.015625 12.40625 
L 22.015625 0 
L 11.71875 0 
z
M 11.71875 51.703125 
L 22.015625 51.703125 
L 22.015625 39.3125 
L 11.71875 39.3125 
z
" id="DejaVuSans-3a"/>
      <path d="M 40.578125 39.3125 
Q 47.65625 37.796875 51.625 33 
Q 55.609375 28.21875 55.609375 21.1875 
Q 55.609375 10.40625 48.1875 4.484375 
Q 40.765625 -1.421875 27.09375 -1.421875 
Q 22.515625 -1.421875 17.65625 -0.515625 
Q 12.796875 0.390625 7.625 2.203125 
L 7.625 11.71875 
Q 11.71875 9.328125 16.59375 8.109375 
Q 21.484375 6.890625 26.8125 6.890625 
Q 36.078125 6.890625 40.9375 10.546875 
Q 45.796875 14.203125 45.796875 21.1875 
Q 45.796875 27.640625 41.28125 31.265625 
Q 36.765625 34.90625 28.71875 34.90625 
L 20.21875 34.90625 
L 20.21875 43.015625 
L 29.109375 43.015625 
Q 36.375 43.015625 40.234375 45.921875 
Q 44.09375 48.828125 44.09375 54.296875 
Q 44.09375 59.90625 40.109375 62.90625 
Q 36.140625 65.921875 28.71875 65.921875 
Q 24.65625 65.921875 20.015625 65.03125 
Q 15.375 64.15625 9.8125 62.3125 
L 9.8125 71.09375 
Q 15.4375 72.65625 20.34375 73.4375 
Q 25.25 74.21875 29.59375 74.21875 
Q 40.828125 74.21875 47.359375 69.109375 
Q 53.90625 64.015625 53.90625 55.328125 
Q 53.90625 49.265625 50.4375 45.09375 
Q 46.96875 40.921875 40.578125 39.3125 
" id="DejaVuSans-33"/>
     </defs>
     <g transform="translate(143.3625 45.36054)scale(0.2 -0.2)">
      <use xlink:href="#DejaVuSans-31"/>
      <use x="63.623047" xlink:href="#DejaVuSans-3a"/>
      <use x="97.314453" xlink:href="#DejaVuSans-20"/>
      <use x="129.101562" xlink:href="#DejaVuSans-33"/>
      <use x="192.724609" xlink:href="#DejaVuSans-2f"/>
      <use x="226.416016" xlink:href="#DejaVuSans-35"/>
     </g>
    </g>
    <g id="line2d_77">
     <path d="M 87.3625 67.71679 
L 127.3625 67.71679 
" style="fill:none;stroke:#00bfbf;stroke-linecap:square;stroke-width:1.5;"/>
    </g>
    <g id="line2d_78"/>
    <g id="text_15">
     <!-- -1: 3/5 -->
     <g transform="translate(143.3625 74.71679)scale(0.2 -0.2)">
      <use xlink:href="#DejaVuSans-2d"/>
      <use x="36.083984" xlink:href="#DejaVuSans-31"/>
      <use x="99.707031" xlink:href="#DejaVuSans-3a"/>
      <use x="133.398438" xlink:href="#DejaVuSans-20"/>
      <use x="165.185547" xlink:href="#DejaVuSans-33"/>
      <use x="228.808594" xlink:href="#DejaVuSans-2f"/>
      <use x="262.5" xlink:href="#DejaVuSans-35"/>
     </g>
    </g>
    <g id="line2d_79">
     <path d="M 87.3625 97.07304 
L 127.3625 97.07304 
" style="fill:none;stroke:#bf00bf;stroke-linecap:square;stroke-width:1.5;"/>
    </g>
    <g id="line2d_80"/>
    <g id="text_16">
     <!-- -4: 1/5 -->
     <g transform="translate(143.3625 104.07304)scale(0.2 -0.2)">
      <use xlink:href="#DejaVuSans-2d"/>
      <use x="36.083984" xlink:href="#DejaVuSans-34"/>
      <use x="99.707031" xlink:href="#DejaVuSans-3a"/>
      <use x="133.398438" xlink:href="#DejaVuSans-20"/>
      <use x="165.185547" xlink:href="#DejaVuSans-31"/>
      <use x="228.808594" xlink:href="#DejaVuSans-2f"/>
      <use x="262.5" xlink:href="#DejaVuSans-35"/>
     </g>
    </g>
    <g id="line2d_81">
     <path d="M 87.3625 126.42929 
L 127.3625 126.42929 
" style="fill:none;stroke:#ff0000;stroke-linecap:square;stroke-width:3;"/>
    </g>
    <g id="line2d_82"/>
    <g id="text_17">
     <!-- -8: 0/5 -->
     <g transform="translate(143.3625 133.42929)scale(0.2 -0.2)">
      <use xlink:href="#DejaVuSans-2d"/>
      <use x="36.083984" xlink:href="#DejaVuSans-38"/>
      <use x="99.707031" xlink:href="#DejaVuSans-3a"/>
      <use x="133.398438" xlink:href="#DejaVuSans-20"/>
      <use x="165.185547" xlink:href="#DejaVuSans-30"/>
      <use x="228.808594" xlink:href="#DejaVuSans-2f"/>
      <use x="262.5" xlink:href="#DejaVuSans-35"/>
     </g>
    </g>
   </g>
  </g>
 </g>
 <defs>
  <clipPath id="p7e4d01c7e4">
   <rect height="266.112" width="357.12" x="69.3625" y="12.163665"/>
  </clipPath>
 </defs>
</svg>
