<?xml version="1.0" encoding="utf-8" standalone="no"?>
<!DOCTYPE svg PUBLIC "-//W3C//DTD SVG 1.1//EN"
  "http://www.w3.org/Graphics/SVG/1.1/DTD/svg11.dtd">
<!-- Created with matplotlib (http://matplotlib.org/) -->
<svg height="353pt" version="1.1" viewBox="0 0 441 353" width="441pt" xmlns="http://www.w3.org/2000/svg" xmlns:xlink="http://www.w3.org/1999/xlink">
 <defs>
  <style type="text/css">
*{stroke-linecap:butt;stroke-linejoin:round;}
  </style>
 </defs>
 <g id="figure_1">
  <g id="patch_1">
   <path d="M -0 353.22225 
L 441.802544 353.22225 
L 441.802544 0 
L -0 0 
z
" style="fill:#ffffff;"/>
  </g>
  <g id="axes_1">
   <g id="patch_2">
    <path d="M 73.113325 298.245375 
L 430.233325 298.245375 
L 430.233325 32.133375 
L 73.113325 32.133375 
z
" style="fill:#ffffff;"/>
   </g>
   <g id="matplotlib.axis_1">
    <g id="xtick_1">
     <g id="line2d_1">
      <path clip-path="url(#pb1447fe818)" d="M 73.113325 298.245375 
L 73.113325 32.133375 
" style="fill:none;stroke:#b0b0b0;stroke-linecap:square;stroke-width:0.8;"/>
     </g>
     <g id="line2d_2">
      <defs>
       <path d="M 0 0 
L 0 3.5 
" id="md47d4bff6d" style="stroke:#000000;stroke-width:0.8;"/>
      </defs>
      <g>
       <use style="stroke:#000000;stroke-width:0.8;" x="73.113325" xlink:href="#md47d4bff6d" y="298.245375"/>
      </g>
     </g>
     <g id="text_1">
      <!-- 0 -->
      <defs>
       <path d="M 31.78125 66.40625 
Q 24.171875 66.40625 20.328125 58.90625 
Q 16.5 51.421875 16.5 36.375 
Q 16.5 21.390625 20.328125 13.890625 
Q 24.171875 6.390625 31.78125 6.390625 
Q 39.453125 6.390625 43.28125 13.890625 
Q 47.125 21.390625 47.125 36.375 
Q 47.125 51.421875 43.28125 58.90625 
Q 39.453125 66.40625 31.78125 66.40625 
M 31.78125 74.21875 
Q 44.046875 74.21875 50.515625 64.515625 
Q 56.984375 54.828125 56.984375 36.375 
Q 56.984375 17.96875 50.515625 8.265625 
Q 44.046875 -1.421875 31.78125 -1.421875 
Q 19.53125 -1.421875 13.0625 8.265625 
Q 6.59375 17.96875 6.59375 36.375 
Q 6.59375 54.828125 13.0625 64.515625 
Q 19.53125 74.21875 31.78125 74.21875 
" id="DejaVuSans-30"/>
      </defs>
      <g transform="translate(66.750825 320.44225)scale(0.2 -0.2)">
       <use xlink:href="#DejaVuSans-30"/>
      </g>
     </g>
    </g>
    <g id="xtick_2">
     <g id="line2d_3">
      <path clip-path="url(#pb1447fe818)" d="M 155.39904 298.245375 
L 155.39904 32.133375 
" style="fill:none;stroke:#b0b0b0;stroke-linecap:square;stroke-width:0.8;"/>
     </g>
     <g id="line2d_4">
      <g>
       <use style="stroke:#000000;stroke-width:0.8;" x="155.39904" xlink:href="#md47d4bff6d" y="298.245375"/>
      </g>
     </g>
     <g id="text_2">
      <!-- 2 -->
      <defs>
       <path d="M 19.1875 8.296875 
L 53.609375 8.296875 
L 53.609375 0 
L 7.328125 0 
L 7.328125 8.296875 
Q 12.9375 14.109375 22.625 23.890625 
Q 32.328125 33.6875 34.8125 36.53125 
Q 39.546875 41.84375 41.421875 45.53125 
Q 43.3125 49.21875 43.3125 52.78125 
Q 43.3125 58.59375 39.234375 62.25 
Q 35.15625 65.921875 28.609375 65.921875 
Q 23.96875 65.921875 18.8125 64.3125 
Q 13.671875 62.703125 7.8125 59.421875 
L 7.8125 69.390625 
Q 13.765625 71.78125 18.9375 73 
Q 24.125 74.21875 28.421875 74.21875 
Q 39.75 74.21875 46.484375 68.546875 
Q 53.21875 62.890625 53.21875 53.421875 
Q 53.21875 48.921875 51.53125 44.890625 
Q 49.859375 40.875 45.40625 35.40625 
Q 44.1875 33.984375 37.640625 27.21875 
Q 31.109375 20.453125 19.1875 8.296875 
" id="DejaVuSans-32"/>
      </defs>
      <g transform="translate(149.03654 320.44225)scale(0.2 -0.2)">
       <use xlink:href="#DejaVuSans-32"/>
      </g>
     </g>
    </g>
    <g id="xtick_3">
     <g id="line2d_5">
      <path clip-path="url(#pb1447fe818)" d="M 237.684754 298.245375 
L 237.684754 32.133375 
" style="fill:none;stroke:#b0b0b0;stroke-linecap:square;stroke-width:0.8;"/>
     </g>
     <g id="line2d_6">
      <g>
       <use style="stroke:#000000;stroke-width:0.8;" x="237.684754" xlink:href="#md47d4bff6d" y="298.245375"/>
      </g>
     </g>
     <g id="text_3">
      <!-- 4 -->
      <defs>
       <path d="M 37.796875 64.3125 
L 12.890625 25.390625 
L 37.796875 25.390625 
z
M 35.203125 72.90625 
L 47.609375 72.90625 
L 47.609375 25.390625 
L 58.015625 25.390625 
L 58.015625 17.1875 
L 47.609375 17.1875 
L 47.609375 0 
L 37.796875 0 
L 37.796875 17.1875 
L 4.890625 17.1875 
L 4.890625 26.703125 
z
" id="DejaVuSans-34"/>
      </defs>
      <g transform="translate(231.322254 320.44225)scale(0.2 -0.2)">
       <use xlink:href="#DejaVuSans-34"/>
      </g>
     </g>
    </g>
    <g id="xtick_4">
     <g id="line2d_7">
      <path clip-path="url(#pb1447fe818)" d="M 319.970468 298.245375 
L 319.970468 32.133375 
" style="fill:none;stroke:#b0b0b0;stroke-linecap:square;stroke-width:0.8;"/>
     </g>
     <g id="line2d_8">
      <g>
       <use style="stroke:#000000;stroke-width:0.8;" x="319.970468" xlink:href="#md47d4bff6d" y="298.245375"/>
      </g>
     </g>
     <g id="text_4">
      <!-- 6 -->
      <defs>
       <path d="M 33.015625 40.375 
Q 26.375 40.375 22.484375 35.828125 
Q 18.609375 31.296875 18.609375 23.390625 
Q 18.609375 15.53125 22.484375 10.953125 
Q 26.375 6.390625 33.015625 6.390625 
Q 39.65625 6.390625 43.53125 10.953125 
Q 47.40625 15.53125 47.40625 23.390625 
Q 47.40625 31.296875 43.53125 35.828125 
Q 39.65625 40.375 33.015625 40.375 
M 52.59375 71.296875 
L 52.59375 62.3125 
Q 48.875 64.0625 45.09375 64.984375 
Q 41.3125 65.921875 37.59375 65.921875 
Q 27.828125 65.921875 22.671875 59.328125 
Q 17.53125 52.734375 16.796875 39.40625 
Q 19.671875 43.65625 24.015625 45.921875 
Q 28.375 48.1875 33.59375 48.1875 
Q 44.578125 48.1875 50.953125 41.515625 
Q 57.328125 34.859375 57.328125 23.390625 
Q 57.328125 12.15625 50.6875 5.359375 
Q 44.046875 -1.421875 33.015625 -1.421875 
Q 20.359375 -1.421875 13.671875 8.265625 
Q 6.984375 17.96875 6.984375 36.375 
Q 6.984375 53.65625 15.1875 63.9375 
Q 23.390625 74.21875 37.203125 74.21875 
Q 40.921875 74.21875 44.703125 73.484375 
Q 48.484375 72.75 52.59375 71.296875 
" id="DejaVuSans-36"/>
      </defs>
      <g transform="translate(313.607968 320.44225)scale(0.2 -0.2)">
       <use xlink:href="#DejaVuSans-36"/>
      </g>
     </g>
    </g>
    <g id="xtick_5">
     <g id="line2d_9">
      <path clip-path="url(#pb1447fe818)" d="M 402.256183 298.245375 
L 402.256183 32.133375 
" style="fill:none;stroke:#b0b0b0;stroke-linecap:square;stroke-width:0.8;"/>
     </g>
     <g id="line2d_10">
      <g>
       <use style="stroke:#000000;stroke-width:0.8;" x="402.256183" xlink:href="#md47d4bff6d" y="298.245375"/>
      </g>
     </g>
     <g id="text_5">
      <!-- 8 -->
      <defs>
       <path d="M 31.78125 34.625 
Q 24.75 34.625 20.71875 30.859375 
Q 16.703125 27.09375 16.703125 20.515625 
Q 16.703125 13.921875 20.71875 10.15625 
Q 24.75 6.390625 31.78125 6.390625 
Q 38.8125 6.390625 42.859375 10.171875 
Q 46.921875 13.96875 46.921875 20.515625 
Q 46.921875 27.09375 42.890625 30.859375 
Q 38.875 34.625 31.78125 34.625 
M 21.921875 38.8125 
Q 15.578125 40.375 12.03125 44.71875 
Q 8.5 49.078125 8.5 55.328125 
Q 8.5 64.0625 14.71875 69.140625 
Q 20.953125 74.21875 31.78125 74.21875 
Q 42.671875 74.21875 48.875 69.140625 
Q 55.078125 64.0625 55.078125 55.328125 
Q 55.078125 49.078125 51.53125 44.71875 
Q 48 40.375 41.703125 38.8125 
Q 48.828125 37.15625 52.796875 32.3125 
Q 56.78125 27.484375 56.78125 20.515625 
Q 56.78125 9.90625 50.3125 4.234375 
Q 43.84375 -1.421875 31.78125 -1.421875 
Q 19.734375 -1.421875 13.25 4.234375 
Q 6.78125 9.90625 6.78125 20.515625 
Q 6.78125 27.484375 10.78125 32.3125 
Q 14.796875 37.15625 21.921875 38.8125 
M 18.3125 54.390625 
Q 18.3125 48.734375 21.84375 45.5625 
Q 25.390625 42.390625 31.78125 42.390625 
Q 38.140625 42.390625 41.71875 45.5625 
Q 45.3125 48.734375 45.3125 54.390625 
Q 45.3125 60.0625 41.71875 63.234375 
Q 38.140625 66.40625 31.78125 66.40625 
Q 25.390625 66.40625 21.84375 63.234375 
Q 18.3125 60.0625 18.3125 54.390625 
" id="DejaVuSans-38"/>
      </defs>
      <g transform="translate(395.893683 320.44225)scale(0.2 -0.2)">
       <use xlink:href="#DejaVuSans-38"/>
      </g>
     </g>
    </g>
    <g id="xtick_6">
     <g id="line2d_11">
      <defs>
       <path d="M 0 0 
L 0 2 
" id="m623983b0df" style="stroke:#000000;stroke-width:0.6;"/>
      </defs>
      <g>
       <use style="stroke:#000000;stroke-width:0.6;" x="85.498559" xlink:href="#m623983b0df" y="298.245375"/>
      </g>
     </g>
    </g>
    <g id="xtick_7">
     <g id="line2d_12">
      <g>
       <use style="stroke:#000000;stroke-width:0.6;" x="97.883794" xlink:href="#m623983b0df" y="298.245375"/>
      </g>
     </g>
    </g>
    <g id="xtick_8">
     <g id="line2d_13">
      <g>
       <use style="stroke:#000000;stroke-width:0.6;" x="105.128691" xlink:href="#m623983b0df" y="298.245375"/>
      </g>
     </g>
    </g>
    <g id="xtick_9">
     <g id="line2d_14">
      <g>
       <use style="stroke:#000000;stroke-width:0.6;" x="110.269028" xlink:href="#m623983b0df" y="298.245375"/>
      </g>
     </g>
    </g>
    <g id="xtick_10">
     <g id="line2d_15">
      <g>
       <use style="stroke:#000000;stroke-width:0.6;" x="167.784274" xlink:href="#m623983b0df" y="298.245375"/>
      </g>
     </g>
    </g>
    <g id="xtick_11">
     <g id="line2d_16">
      <g>
       <use style="stroke:#000000;stroke-width:0.6;" x="180.169508" xlink:href="#m623983b0df" y="298.245375"/>
      </g>
     </g>
    </g>
    <g id="xtick_12">
     <g id="line2d_17">
      <g>
       <use style="stroke:#000000;stroke-width:0.6;" x="187.414405" xlink:href="#m623983b0df" y="298.245375"/>
      </g>
     </g>
    </g>
    <g id="xtick_13">
     <g id="line2d_18">
      <g>
       <use style="stroke:#000000;stroke-width:0.6;" x="192.554742" xlink:href="#m623983b0df" y="298.245375"/>
      </g>
     </g>
    </g>
    <g id="xtick_14">
     <g id="line2d_19">
      <g>
       <use style="stroke:#000000;stroke-width:0.6;" x="250.069988" xlink:href="#m623983b0df" y="298.245375"/>
      </g>
     </g>
    </g>
    <g id="xtick_15">
     <g id="line2d_20">
      <g>
       <use style="stroke:#000000;stroke-width:0.6;" x="262.455222" xlink:href="#m623983b0df" y="298.245375"/>
      </g>
     </g>
    </g>
    <g id="xtick_16">
     <g id="line2d_21">
      <g>
       <use style="stroke:#000000;stroke-width:0.6;" x="269.70012" xlink:href="#m623983b0df" y="298.245375"/>
      </g>
     </g>
    </g>
    <g id="xtick_17">
     <g id="line2d_22">
      <g>
       <use style="stroke:#000000;stroke-width:0.6;" x="274.840456" xlink:href="#m623983b0df" y="298.245375"/>
      </g>
     </g>
    </g>
    <g id="xtick_18">
     <g id="line2d_23">
      <g>
       <use style="stroke:#000000;stroke-width:0.6;" x="332.355702" xlink:href="#m623983b0df" y="298.245375"/>
      </g>
     </g>
    </g>
    <g id="xtick_19">
     <g id="line2d_24">
      <g>
       <use style="stroke:#000000;stroke-width:0.6;" x="344.740936" xlink:href="#m623983b0df" y="298.245375"/>
      </g>
     </g>
    </g>
    <g id="xtick_20">
     <g id="line2d_25">
      <g>
       <use style="stroke:#000000;stroke-width:0.6;" x="351.985834" xlink:href="#m623983b0df" y="298.245375"/>
      </g>
     </g>
    </g>
    <g id="xtick_21">
     <g id="line2d_26">
      <g>
       <use style="stroke:#000000;stroke-width:0.6;" x="357.126171" xlink:href="#m623983b0df" y="298.245375"/>
      </g>
     </g>
    </g>
    <g id="xtick_22">
     <g id="line2d_27">
      <g>
       <use style="stroke:#000000;stroke-width:0.6;" x="414.641417" xlink:href="#m623983b0df" y="298.245375"/>
      </g>
     </g>
    </g>
    <g id="xtick_23">
     <g id="line2d_28">
      <g>
       <use style="stroke:#000000;stroke-width:0.6;" x="427.026651" xlink:href="#m623983b0df" y="298.245375"/>
      </g>
     </g>
    </g>
    <g id="text_6">
     <!-- log10 of (# f-evals / dimension) -->
     <defs>
      <path d="M 9.421875 75.984375 
L 18.40625 75.984375 
L 18.40625 0 
L 9.421875 0 
z
" id="DejaVuSans-6c"/>
      <path d="M 30.609375 48.390625 
Q 23.390625 48.390625 19.1875 42.75 
Q 14.984375 37.109375 14.984375 27.296875 
Q 14.984375 17.484375 19.15625 11.84375 
Q 23.34375 6.203125 30.609375 6.203125 
Q 37.796875 6.203125 41.984375 11.859375 
Q 46.1875 17.53125 46.1875 27.296875 
Q 46.1875 37.015625 41.984375 42.703125 
Q 37.796875 48.390625 30.609375 48.390625 
M 30.609375 56 
Q 42.328125 56 49.015625 48.375 
Q 55.71875 40.765625 55.71875 27.296875 
Q 55.71875 13.875 49.015625 6.21875 
Q 42.328125 -1.421875 30.609375 -1.421875 
Q 18.84375 -1.421875 12.171875 6.21875 
Q 5.515625 13.875 5.515625 27.296875 
Q 5.515625 40.765625 12.171875 48.375 
Q 18.84375 56 30.609375 56 
" id="DejaVuSans-6f"/>
      <path d="M 45.40625 27.984375 
Q 45.40625 37.75 41.375 43.109375 
Q 37.359375 48.484375 30.078125 48.484375 
Q 22.859375 48.484375 18.828125 43.109375 
Q 14.796875 37.75 14.796875 27.984375 
Q 14.796875 18.265625 18.828125 12.890625 
Q 22.859375 7.515625 30.078125 7.515625 
Q 37.359375 7.515625 41.375 12.890625 
Q 45.40625 18.265625 45.40625 27.984375 
M 54.390625 6.78125 
Q 54.390625 -7.171875 48.1875 -13.984375 
Q 42 -20.796875 29.203125 -20.796875 
Q 24.46875 -20.796875 20.265625 -20.09375 
Q 16.0625 -19.390625 12.109375 -17.921875 
L 12.109375 -9.1875 
Q 16.0625 -11.328125 19.921875 -12.34375 
Q 23.78125 -13.375 27.78125 -13.375 
Q 36.625 -13.375 41.015625 -8.765625 
Q 45.40625 -4.15625 45.40625 5.171875 
L 45.40625 9.625 
Q 42.625 4.78125 38.28125 2.390625 
Q 33.9375 0 27.875 0 
Q 17.828125 0 11.671875 7.65625 
Q 5.515625 15.328125 5.515625 27.984375 
Q 5.515625 40.671875 11.671875 48.328125 
Q 17.828125 56 27.875 56 
Q 33.9375 56 38.28125 53.609375 
Q 42.625 51.21875 45.40625 46.390625 
L 45.40625 54.6875 
L 54.390625 54.6875 
z
" id="DejaVuSans-67"/>
      <path d="M 12.40625 8.296875 
L 28.515625 8.296875 
L 28.515625 63.921875 
L 10.984375 60.40625 
L 10.984375 69.390625 
L 28.421875 72.90625 
L 38.28125 72.90625 
L 38.28125 8.296875 
L 54.390625 8.296875 
L 54.390625 0 
L 12.40625 0 
z
" id="DejaVuSans-31"/>
      <path id="DejaVuSans-20"/>
      <path d="M 37.109375 75.984375 
L 37.109375 68.5 
L 28.515625 68.5 
Q 23.6875 68.5 21.796875 66.546875 
Q 19.921875 64.59375 19.921875 59.515625 
L 19.921875 54.6875 
L 34.71875 54.6875 
L 34.71875 47.703125 
L 19.921875 47.703125 
L 19.921875 0 
L 10.890625 0 
L 10.890625 47.703125 
L 2.296875 47.703125 
L 2.296875 54.6875 
L 10.890625 54.6875 
L 10.890625 58.5 
Q 10.890625 67.625 15.140625 71.796875 
Q 19.390625 75.984375 28.609375 75.984375 
z
" id="DejaVuSans-66"/>
      <path d="M 31 75.875 
Q 24.46875 64.65625 21.28125 53.65625 
Q 18.109375 42.671875 18.109375 31.390625 
Q 18.109375 20.125 21.3125 9.0625 
Q 24.515625 -2 31 -13.1875 
L 23.1875 -13.1875 
Q 15.875 -1.703125 12.234375 9.375 
Q 8.59375 20.453125 8.59375 31.390625 
Q 8.59375 42.28125 12.203125 53.3125 
Q 15.828125 64.359375 23.1875 75.875 
z
" id="DejaVuSans-28"/>
      <path d="M 51.125 44 
L 36.921875 44 
L 32.8125 27.6875 
L 47.125 27.6875 
z
M 43.796875 71.78125 
L 38.71875 51.515625 
L 52.984375 51.515625 
L 58.109375 71.78125 
L 65.921875 71.78125 
L 60.890625 51.515625 
L 76.125 51.515625 
L 76.125 44 
L 58.984375 44 
L 54.984375 27.6875 
L 70.515625 27.6875 
L 70.515625 20.21875 
L 53.078125 20.21875 
L 48 0 
L 40.1875 0 
L 45.21875 20.21875 
L 30.90625 20.21875 
L 25.875 0 
L 18.015625 0 
L 23.09375 20.21875 
L 7.71875 20.21875 
L 7.71875 27.6875 
L 24.90625 27.6875 
L 29 44 
L 13.28125 44 
L 13.28125 51.515625 
L 30.90625 51.515625 
L 35.890625 71.78125 
z
" id="DejaVuSans-23"/>
      <path d="M 4.890625 31.390625 
L 31.203125 31.390625 
L 31.203125 23.390625 
L 4.890625 23.390625 
z
" id="DejaVuSans-2d"/>
      <path d="M 56.203125 29.59375 
L 56.203125 25.203125 
L 14.890625 25.203125 
Q 15.484375 15.921875 20.484375 11.0625 
Q 25.484375 6.203125 34.421875 6.203125 
Q 39.59375 6.203125 44.453125 7.46875 
Q 49.3125 8.734375 54.109375 11.28125 
L 54.109375 2.78125 
Q 49.265625 0.734375 44.1875 -0.34375 
Q 39.109375 -1.421875 33.890625 -1.421875 
Q 20.796875 -1.421875 13.15625 6.1875 
Q 5.515625 13.8125 5.515625 26.8125 
Q 5.515625 40.234375 12.765625 48.109375 
Q 20.015625 56 32.328125 56 
Q 43.359375 56 49.78125 48.890625 
Q 56.203125 41.796875 56.203125 29.59375 
M 47.21875 32.234375 
Q 47.125 39.59375 43.09375 43.984375 
Q 39.0625 48.390625 32.421875 48.390625 
Q 24.90625 48.390625 20.390625 44.140625 
Q 15.875 39.890625 15.1875 32.171875 
z
" id="DejaVuSans-65"/>
      <path d="M 2.984375 54.6875 
L 12.5 54.6875 
L 29.59375 8.796875 
L 46.6875 54.6875 
L 56.203125 54.6875 
L 35.6875 0 
L 23.484375 0 
z
" id="DejaVuSans-76"/>
      <path d="M 34.28125 27.484375 
Q 23.390625 27.484375 19.1875 25 
Q 14.984375 22.515625 14.984375 16.5 
Q 14.984375 11.71875 18.140625 8.90625 
Q 21.296875 6.109375 26.703125 6.109375 
Q 34.1875 6.109375 38.703125 11.40625 
Q 43.21875 16.703125 43.21875 25.484375 
L 43.21875 27.484375 
z
M 52.203125 31.203125 
L 52.203125 0 
L 43.21875 0 
L 43.21875 8.296875 
Q 40.140625 3.328125 35.546875 0.953125 
Q 30.953125 -1.421875 24.3125 -1.421875 
Q 15.921875 -1.421875 10.953125 3.296875 
Q 6 8.015625 6 15.921875 
Q 6 25.140625 12.171875 29.828125 
Q 18.359375 34.515625 30.609375 34.515625 
L 43.21875 34.515625 
L 43.21875 35.40625 
Q 43.21875 41.609375 39.140625 45 
Q 35.0625 48.390625 27.6875 48.390625 
Q 23 48.390625 18.546875 47.265625 
Q 14.109375 46.140625 10.015625 43.890625 
L 10.015625 52.203125 
Q 14.9375 54.109375 19.578125 55.046875 
Q 24.21875 56 28.609375 56 
Q 40.484375 56 46.34375 49.84375 
Q 52.203125 43.703125 52.203125 31.203125 
" id="DejaVuSans-61"/>
      <path d="M 44.28125 53.078125 
L 44.28125 44.578125 
Q 40.484375 46.53125 36.375 47.5 
Q 32.28125 48.484375 27.875 48.484375 
Q 21.1875 48.484375 17.84375 46.4375 
Q 14.5 44.390625 14.5 40.28125 
Q 14.5 37.15625 16.890625 35.375 
Q 19.28125 33.59375 26.515625 31.984375 
L 29.59375 31.296875 
Q 39.15625 29.25 43.1875 25.515625 
Q 47.21875 21.78125 47.21875 15.09375 
Q 47.21875 7.46875 41.1875 3.015625 
Q 35.15625 -1.421875 24.609375 -1.421875 
Q 20.21875 -1.421875 15.453125 -0.5625 
Q 10.6875 0.296875 5.421875 2 
L 5.421875 11.28125 
Q 10.40625 8.6875 15.234375 7.390625 
Q 20.0625 6.109375 24.8125 6.109375 
Q 31.15625 6.109375 34.5625 8.28125 
Q 37.984375 10.453125 37.984375 14.40625 
Q 37.984375 18.0625 35.515625 20.015625 
Q 33.0625 21.96875 24.703125 23.78125 
L 21.578125 24.515625 
Q 13.234375 26.265625 9.515625 29.90625 
Q 5.8125 33.546875 5.8125 39.890625 
Q 5.8125 47.609375 11.28125 51.796875 
Q 16.75 56 26.8125 56 
Q 31.78125 56 36.171875 55.265625 
Q 40.578125 54.546875 44.28125 53.078125 
" id="DejaVuSans-73"/>
      <path d="M 25.390625 72.90625 
L 33.6875 72.90625 
L 8.296875 -9.28125 
L 0 -9.28125 
z
" id="DejaVuSans-2f"/>
      <path d="M 45.40625 46.390625 
L 45.40625 75.984375 
L 54.390625 75.984375 
L 54.390625 0 
L 45.40625 0 
L 45.40625 8.203125 
Q 42.578125 3.328125 38.25 0.953125 
Q 33.9375 -1.421875 27.875 -1.421875 
Q 17.96875 -1.421875 11.734375 6.484375 
Q 5.515625 14.40625 5.515625 27.296875 
Q 5.515625 40.1875 11.734375 48.09375 
Q 17.96875 56 27.875 56 
Q 33.9375 56 38.25 53.625 
Q 42.578125 51.265625 45.40625 46.390625 
M 14.796875 27.296875 
Q 14.796875 17.390625 18.875 11.75 
Q 22.953125 6.109375 30.078125 6.109375 
Q 37.203125 6.109375 41.296875 11.75 
Q 45.40625 17.390625 45.40625 27.296875 
Q 45.40625 37.203125 41.296875 42.84375 
Q 37.203125 48.484375 30.078125 48.484375 
Q 22.953125 48.484375 18.875 42.84375 
Q 14.796875 37.203125 14.796875 27.296875 
" id="DejaVuSans-64"/>
      <path d="M 9.421875 54.6875 
L 18.40625 54.6875 
L 18.40625 0 
L 9.421875 0 
z
M 9.421875 75.984375 
L 18.40625 75.984375 
L 18.40625 64.59375 
L 9.421875 64.59375 
z
" id="DejaVuSans-69"/>
      <path d="M 52 44.1875 
Q 55.375 50.25 60.0625 53.125 
Q 64.75 56 71.09375 56 
Q 79.640625 56 84.28125 50.015625 
Q 88.921875 44.046875 88.921875 33.015625 
L 88.921875 0 
L 79.890625 0 
L 79.890625 32.71875 
Q 79.890625 40.578125 77.09375 44.375 
Q 74.3125 48.1875 68.609375 48.1875 
Q 61.625 48.1875 57.5625 43.546875 
Q 53.515625 38.921875 53.515625 30.90625 
L 53.515625 0 
L 44.484375 0 
L 44.484375 32.71875 
Q 44.484375 40.625 41.703125 44.40625 
Q 38.921875 48.1875 33.109375 48.1875 
Q 26.21875 48.1875 22.15625 43.53125 
Q 18.109375 38.875 18.109375 30.90625 
L 18.109375 0 
L 9.078125 0 
L 9.078125 54.6875 
L 18.109375 54.6875 
L 18.109375 46.1875 
Q 21.1875 51.21875 25.484375 53.609375 
Q 29.78125 56 35.6875 56 
Q 41.65625 56 45.828125 52.96875 
Q 50 49.953125 52 44.1875 
" id="DejaVuSans-6d"/>
      <path d="M 54.890625 33.015625 
L 54.890625 0 
L 45.90625 0 
L 45.90625 32.71875 
Q 45.90625 40.484375 42.875 44.328125 
Q 39.84375 48.1875 33.796875 48.1875 
Q 26.515625 48.1875 22.3125 43.546875 
Q 18.109375 38.921875 18.109375 30.90625 
L 18.109375 0 
L 9.078125 0 
L 9.078125 54.6875 
L 18.109375 54.6875 
L 18.109375 46.1875 
Q 21.34375 51.125 25.703125 53.5625 
Q 30.078125 56 35.796875 56 
Q 45.21875 56 50.046875 50.171875 
Q 54.890625 44.34375 54.890625 33.015625 
" id="DejaVuSans-6e"/>
      <path d="M 8.015625 75.875 
L 15.828125 75.875 
Q 23.140625 64.359375 26.78125 53.3125 
Q 30.421875 42.28125 30.421875 31.390625 
Q 30.421875 20.453125 26.78125 9.375 
Q 23.140625 -1.703125 15.828125 -13.1875 
L 8.015625 -13.1875 
Q 14.5 -2 17.703125 9.0625 
Q 20.90625 20.125 20.90625 31.390625 
Q 20.90625 42.671875 17.703125 53.65625 
Q 14.5 64.65625 8.015625 75.875 
" id="DejaVuSans-29"/>
     </defs>
     <g transform="translate(109.328482 342.278812)scale(0.18 -0.18)">
      <use xlink:href="#DejaVuSans-6c"/>
      <use x="27.783203" xlink:href="#DejaVuSans-6f"/>
      <use x="88.964844" xlink:href="#DejaVuSans-67"/>
      <use x="152.441406" xlink:href="#DejaVuSans-31"/>
      <use x="216.064453" xlink:href="#DejaVuSans-30"/>
      <use x="279.6875" xlink:href="#DejaVuSans-20"/>
      <use x="311.474609" xlink:href="#DejaVuSans-6f"/>
      <use x="372.65625" xlink:href="#DejaVuSans-66"/>
      <use x="407.861328" xlink:href="#DejaVuSans-20"/>
      <use x="439.648438" xlink:href="#DejaVuSans-28"/>
      <use x="478.662109" xlink:href="#DejaVuSans-23"/>
      <use x="562.451172" xlink:href="#DejaVuSans-20"/>
      <use x="594.238281" xlink:href="#DejaVuSans-66"/>
      <use x="629.365234" xlink:href="#DejaVuSans-2d"/>
      <use x="665.449219" xlink:href="#DejaVuSans-65"/>
      <use x="726.972656" xlink:href="#DejaVuSans-76"/>
      <use x="786.152344" xlink:href="#DejaVuSans-61"/>
      <use x="847.431641" xlink:href="#DejaVuSans-6c"/>
      <use x="875.214844" xlink:href="#DejaVuSans-73"/>
      <use x="927.314453" xlink:href="#DejaVuSans-20"/>
      <use x="959.101562" xlink:href="#DejaVuSans-2f"/>
      <use x="992.792969" xlink:href="#DejaVuSans-20"/>
      <use x="1024.580078" xlink:href="#DejaVuSans-64"/>
      <use x="1088.056641" xlink:href="#DejaVuSans-69"/>
      <use x="1115.839844" xlink:href="#DejaVuSans-6d"/>
      <use x="1213.251953" xlink:href="#DejaVuSans-65"/>
      <use x="1274.775391" xlink:href="#DejaVuSans-6e"/>
      <use x="1338.154297" xlink:href="#DejaVuSans-73"/>
      <use x="1390.253906" xlink:href="#DejaVuSans-69"/>
      <use x="1418.037109" xlink:href="#DejaVuSans-6f"/>
      <use x="1479.21875" xlink:href="#DejaVuSans-6e"/>
      <use x="1542.597656" xlink:href="#DejaVuSans-29"/>
     </g>
    </g>
   </g>
   <g id="matplotlib.axis_2">
    <g id="ytick_1">
     <g id="line2d_29">
      <path clip-path="url(#pb1447fe818)" d="M 73.113325 298.245375 
L 430.233325 298.245375 
" style="fill:none;stroke:#b0b0b0;stroke-linecap:square;stroke-width:0.8;"/>
     </g>
     <g id="line2d_30">
      <defs>
       <path d="M 0 0 
L -3.5 0 
" id="m3e9e32bbef" style="stroke:#000000;stroke-width:0.8;"/>
      </defs>
      <g>
       <use style="stroke:#000000;stroke-width:0.8;" x="73.113325" xlink:href="#m3e9e32bbef" y="298.245375"/>
      </g>
     </g>
     <g id="text_7">
      <!-- 0.0 -->
      <defs>
       <path d="M 10.6875 12.40625 
L 21 12.40625 
L 21 0 
L 10.6875 0 
z
" id="DejaVuSans-2e"/>
      </defs>
      <g transform="translate(34.307075 305.843812)scale(0.2 -0.2)">
       <use xlink:href="#DejaVuSans-30"/>
       <use x="63.623047" xlink:href="#DejaVuSans-2e"/>
       <use x="95.410156" xlink:href="#DejaVuSans-30"/>
      </g>
     </g>
    </g>
    <g id="ytick_2">
     <g id="line2d_31">
      <path clip-path="url(#pb1447fe818)" d="M 73.113325 245.549929 
L 430.233325 245.549929 
" style="fill:none;stroke:#b0b0b0;stroke-linecap:square;stroke-width:0.8;"/>
     </g>
     <g id="line2d_32">
      <g>
       <use style="stroke:#000000;stroke-width:0.8;" x="73.113325" xlink:href="#m3e9e32bbef" y="245.549929"/>
      </g>
     </g>
     <g id="text_8">
      <!-- 0.2 -->
      <g transform="translate(34.307075 253.148367)scale(0.2 -0.2)">
       <use xlink:href="#DejaVuSans-30"/>
       <use x="63.623047" xlink:href="#DejaVuSans-2e"/>
       <use x="95.410156" xlink:href="#DejaVuSans-32"/>
      </g>
     </g>
    </g>
    <g id="ytick_3">
     <g id="line2d_33">
      <path clip-path="url(#pb1447fe818)" d="M 73.113325 192.854484 
L 430.233325 192.854484 
" style="fill:none;stroke:#b0b0b0;stroke-linecap:square;stroke-width:0.8;"/>
     </g>
     <g id="line2d_34">
      <g>
       <use style="stroke:#000000;stroke-width:0.8;" x="73.113325" xlink:href="#m3e9e32bbef" y="192.854484"/>
      </g>
     </g>
     <g id="text_9">
      <!-- 0.4 -->
      <g transform="translate(34.307075 200.452921)scale(0.2 -0.2)">
       <use xlink:href="#DejaVuSans-30"/>
       <use x="63.623047" xlink:href="#DejaVuSans-2e"/>
       <use x="95.410156" xlink:href="#DejaVuSans-34"/>
      </g>
     </g>
    </g>
    <g id="ytick_4">
     <g id="line2d_35">
      <path clip-path="url(#pb1447fe818)" d="M 73.113325 140.159038 
L 430.233325 140.159038 
" style="fill:none;stroke:#b0b0b0;stroke-linecap:square;stroke-width:0.8;"/>
     </g>
     <g id="line2d_36">
      <g>
       <use style="stroke:#000000;stroke-width:0.8;" x="73.113325" xlink:href="#m3e9e32bbef" y="140.159038"/>
      </g>
     </g>
     <g id="text_10">
      <!-- 0.6 -->
      <g transform="translate(34.307075 147.757476)scale(0.2 -0.2)">
       <use xlink:href="#DejaVuSans-30"/>
       <use x="63.623047" xlink:href="#DejaVuSans-2e"/>
       <use x="95.410156" xlink:href="#DejaVuSans-36"/>
      </g>
     </g>
    </g>
    <g id="ytick_5">
     <g id="line2d_37">
      <path clip-path="url(#pb1447fe818)" d="M 73.113325 87.463593 
L 430.233325 87.463593 
" style="fill:none;stroke:#b0b0b0;stroke-linecap:square;stroke-width:0.8;"/>
     </g>
     <g id="line2d_38">
      <g>
       <use style="stroke:#000000;stroke-width:0.8;" x="73.113325" xlink:href="#m3e9e32bbef" y="87.463593"/>
      </g>
     </g>
     <g id="text_11">
      <!-- 0.8 -->
      <g transform="translate(34.307075 95.06203)scale(0.2 -0.2)">
       <use xlink:href="#DejaVuSans-30"/>
       <use x="63.623047" xlink:href="#DejaVuSans-2e"/>
       <use x="95.410156" xlink:href="#DejaVuSans-38"/>
      </g>
     </g>
    </g>
    <g id="ytick_6">
     <g id="line2d_39">
      <path clip-path="url(#pb1447fe818)" d="M 73.113325 34.768147 
L 430.233325 34.768147 
" style="fill:none;stroke:#b0b0b0;stroke-linecap:square;stroke-width:0.8;"/>
     </g>
     <g id="line2d_40">
      <g>
       <use style="stroke:#000000;stroke-width:0.8;" x="73.113325" xlink:href="#m3e9e32bbef" y="34.768147"/>
      </g>
     </g>
     <g id="text_12">
      <!-- 1.0 -->
      <g transform="translate(34.307075 42.366585)scale(0.2 -0.2)">
       <use xlink:href="#DejaVuSans-31"/>
       <use x="63.623047" xlink:href="#DejaVuSans-2e"/>
       <use x="95.410156" xlink:href="#DejaVuSans-30"/>
      </g>
     </g>
    </g>
    <g id="text_13">
     <!-- Proportion of function+target pairs -->
     <defs>
      <path d="M 19.671875 64.796875 
L 19.671875 37.40625 
L 32.078125 37.40625 
Q 38.96875 37.40625 42.71875 40.96875 
Q 46.484375 44.53125 46.484375 51.125 
Q 46.484375 57.671875 42.71875 61.234375 
Q 38.96875 64.796875 32.078125 64.796875 
z
M 9.8125 72.90625 
L 32.078125 72.90625 
Q 44.34375 72.90625 50.609375 67.359375 
Q 56.890625 61.8125 56.890625 51.125 
Q 56.890625 40.328125 50.609375 34.8125 
Q 44.34375 29.296875 32.078125 29.296875 
L 19.671875 29.296875 
L 19.671875 0 
L 9.8125 0 
z
" id="DejaVuSans-50"/>
      <path d="M 41.109375 46.296875 
Q 39.59375 47.171875 37.8125 47.578125 
Q 36.03125 48 33.890625 48 
Q 26.265625 48 22.1875 43.046875 
Q 18.109375 38.09375 18.109375 28.8125 
L 18.109375 0 
L 9.078125 0 
L 9.078125 54.6875 
L 18.109375 54.6875 
L 18.109375 46.1875 
Q 20.953125 51.171875 25.484375 53.578125 
Q 30.03125 56 36.53125 56 
Q 37.453125 56 38.578125 55.875 
Q 39.703125 55.765625 41.0625 55.515625 
z
" id="DejaVuSans-72"/>
      <path d="M 18.109375 8.203125 
L 18.109375 -20.796875 
L 9.078125 -20.796875 
L 9.078125 54.6875 
L 18.109375 54.6875 
L 18.109375 46.390625 
Q 20.953125 51.265625 25.265625 53.625 
Q 29.59375 56 35.59375 56 
Q 45.5625 56 51.78125 48.09375 
Q 58.015625 40.1875 58.015625 27.296875 
Q 58.015625 14.40625 51.78125 6.484375 
Q 45.5625 -1.421875 35.59375 -1.421875 
Q 29.59375 -1.421875 25.265625 0.953125 
Q 20.953125 3.328125 18.109375 8.203125 
M 48.6875 27.296875 
Q 48.6875 37.203125 44.609375 42.84375 
Q 40.53125 48.484375 33.40625 48.484375 
Q 26.265625 48.484375 22.1875 42.84375 
Q 18.109375 37.203125 18.109375 27.296875 
Q 18.109375 17.390625 22.1875 11.75 
Q 26.265625 6.109375 33.40625 6.109375 
Q 40.53125 6.109375 44.609375 11.75 
Q 48.6875 17.390625 48.6875 27.296875 
" id="DejaVuSans-70"/>
      <path d="M 18.3125 70.21875 
L 18.3125 54.6875 
L 36.8125 54.6875 
L 36.8125 47.703125 
L 18.3125 47.703125 
L 18.3125 18.015625 
Q 18.3125 11.328125 20.140625 9.421875 
Q 21.96875 7.515625 27.59375 7.515625 
L 36.8125 7.515625 
L 36.8125 0 
L 27.59375 0 
Q 17.1875 0 13.234375 3.875 
Q 9.28125 7.765625 9.28125 18.015625 
L 9.28125 47.703125 
L 2.6875 47.703125 
L 2.6875 54.6875 
L 9.28125 54.6875 
L 9.28125 70.21875 
z
" id="DejaVuSans-74"/>
      <path d="M 8.5 21.578125 
L 8.5 54.6875 
L 17.484375 54.6875 
L 17.484375 21.921875 
Q 17.484375 14.15625 20.5 10.265625 
Q 23.53125 6.390625 29.59375 6.390625 
Q 36.859375 6.390625 41.078125 11.03125 
Q 45.3125 15.671875 45.3125 23.6875 
L 45.3125 54.6875 
L 54.296875 54.6875 
L 54.296875 0 
L 45.3125 0 
L 45.3125 8.40625 
Q 42.046875 3.421875 37.71875 1 
Q 33.40625 -1.421875 27.6875 -1.421875 
Q 18.265625 -1.421875 13.375 4.4375 
Q 8.5 10.296875 8.5 21.578125 
M 31.109375 56 
z
" id="DejaVuSans-75"/>
      <path d="M 48.78125 52.59375 
L 48.78125 44.1875 
Q 44.96875 46.296875 41.140625 47.34375 
Q 37.3125 48.390625 33.40625 48.390625 
Q 24.65625 48.390625 19.8125 42.84375 
Q 14.984375 37.3125 14.984375 27.296875 
Q 14.984375 17.28125 19.8125 11.734375 
Q 24.65625 6.203125 33.40625 6.203125 
Q 37.3125 6.203125 41.140625 7.25 
Q 44.96875 8.296875 48.78125 10.40625 
L 48.78125 2.09375 
Q 45.015625 0.34375 40.984375 -0.53125 
Q 36.96875 -1.421875 32.421875 -1.421875 
Q 20.0625 -1.421875 12.78125 6.34375 
Q 5.515625 14.109375 5.515625 27.296875 
Q 5.515625 40.671875 12.859375 48.328125 
Q 20.21875 56 33.015625 56 
Q 37.15625 56 41.109375 55.140625 
Q 45.0625 54.296875 48.78125 52.59375 
" id="DejaVuSans-63"/>
      <path d="M 46 62.703125 
L 46 35.5 
L 73.1875 35.5 
L 73.1875 27.203125 
L 46 27.203125 
L 46 0 
L 37.796875 0 
L 37.796875 27.203125 
L 10.59375 27.203125 
L 10.59375 35.5 
L 37.796875 35.5 
L 37.796875 62.703125 
z
" id="DejaVuSans-2b"/>
     </defs>
     <g transform="translate(26.563638 323.17875)rotate(-90)scale(0.18 -0.18)">
      <use xlink:href="#DejaVuSans-50"/>
      <use x="60.287109" xlink:href="#DejaVuSans-72"/>
      <use x="101.369141" xlink:href="#DejaVuSans-6f"/>
      <use x="162.550781" xlink:href="#DejaVuSans-70"/>
      <use x="226.027344" xlink:href="#DejaVuSans-6f"/>
      <use x="287.208984" xlink:href="#DejaVuSans-72"/>
      <use x="328.322266" xlink:href="#DejaVuSans-74"/>
      <use x="367.53125" xlink:href="#DejaVuSans-69"/>
      <use x="395.314453" xlink:href="#DejaVuSans-6f"/>
      <use x="456.496094" xlink:href="#DejaVuSans-6e"/>
      <use x="519.875" xlink:href="#DejaVuSans-20"/>
      <use x="551.662109" xlink:href="#DejaVuSans-6f"/>
      <use x="612.84375" xlink:href="#DejaVuSans-66"/>
      <use x="648.048828" xlink:href="#DejaVuSans-20"/>
      <use x="679.835938" xlink:href="#DejaVuSans-66"/>
      <use x="715.041016" xlink:href="#DejaVuSans-75"/>
      <use x="778.419922" xlink:href="#DejaVuSans-6e"/>
      <use x="841.798828" xlink:href="#DejaVuSans-63"/>
      <use x="896.779297" xlink:href="#DejaVuSans-74"/>
      <use x="935.988281" xlink:href="#DejaVuSans-69"/>
      <use x="963.771484" xlink:href="#DejaVuSans-6f"/>
      <use x="1024.953125" xlink:href="#DejaVuSans-6e"/>
      <use x="1088.332031" xlink:href="#DejaVuSans-2b"/>
      <use x="1172.121094" xlink:href="#DejaVuSans-74"/>
      <use x="1211.330078" xlink:href="#DejaVuSans-61"/>
      <use x="1272.609375" xlink:href="#DejaVuSans-72"/>
      <use x="1313.707031" xlink:href="#DejaVuSans-67"/>
      <use x="1377.183594" xlink:href="#DejaVuSans-65"/>
      <use x="1438.707031" xlink:href="#DejaVuSans-74"/>
      <use x="1477.916016" xlink:href="#DejaVuSans-20"/>
      <use x="1509.703125" xlink:href="#DejaVuSans-70"/>
      <use x="1573.179688" xlink:href="#DejaVuSans-61"/>
      <use x="1634.458984" xlink:href="#DejaVuSans-69"/>
      <use x="1662.242188" xlink:href="#DejaVuSans-72"/>
      <use x="1703.355469" xlink:href="#DejaVuSans-73"/>
     </g>
    </g>
   </g>
   <g id="line2d_41">
    <defs>
     <path d="M 0 1.5 
C 0.397805 1.5 0.77937 1.341951 1.06066 1.06066 
C 1.341951 0.77937 1.5 0.397805 1.5 0 
C 1.5 -0.397805 1.341951 -0.77937 1.06066 -1.06066 
C 0.77937 -1.341951 0.397805 -1.5 0 -1.5 
C -0.397805 -1.5 -0.77937 -1.341951 -1.06066 -1.06066 
C -1.341951 -0.77937 -1.5 -0.397805 -1.5 0 
C -1.5 0.397805 -1.341951 0.77937 -1.06066 1.06066 
C -0.77937 1.341951 -0.397805 1.5 0 1.5 
z
" id="m3a1e5eb136" style="stroke:#00bfbf;"/>
    </defs>
    <g>
     <use style="fill:#00bfbf;stroke:#00bfbf;" x="355.284265" xlink:href="#m3a1e5eb136" y="194.275194"/>
     <use style="fill:#00bfbf;stroke:#00bfbf;" x="355.284265" xlink:href="#m3a1e5eb136" y="194.275194"/>
    </g>
   </g>
   <g id="line2d_42">
    <path d="M 60.728091 298.245375 
L 60.728091 284.124373 
L 73.113325 284.124373 
L 73.113325 281.627367 
L 80.358223 281.627367 
L 80.358223 280.76633 
L 85.498559 280.76633 
L 85.498559 279.948345 
L 89.485714 279.948345 
L 89.485714 279.410197 
L 92.743457 279.410197 
L 92.743457 278.850524 
L 95.497839 278.850524 
L 95.497839 278.376953 
L 97.883794 278.376953 
L 97.883794 277.903383 
L 99.988354 277.903383 
L 99.988354 277.70965 
L 101.870948 277.70965 
L 101.870948 277.494391 
L 103.573962 277.494391 
L 103.573962 277.214554 
L 105.128691 277.214554 
L 105.128691 276.848613 
L 106.558903 276.848613 
L 106.558903 276.439621 
L 107.883073 276.439621 
L 107.883073 276.224362 
L 109.115846 276.224362 
L 109.115846 276.009102 
L 110.269028 276.009102 
L 110.269028 275.858421 
L 111.352275 275.858421 
L 111.352275 275.729266 
L 113.339668 275.621636 
L 113.339668 275.535532 
L 115.127971 275.470954 
L 115.127971 275.384851 
L 116.753465 275.298747 
L 116.753465 275.148066 
L 117.513925 275.148066 
L 117.513925 274.997384 
L 118.243337 274.997384 
L 118.243337 274.825177 
L 118.944138 274.825177 
L 118.944138 274.588392 
L 119.618486 274.588392 
L 119.618486 274.43771 
L 121.50108 274.330081 
L 121.50108 274.222451 
L 122.086972 274.222451 
L 122.086972 274.093296 
L 123.73751 274.007192 
L 123.73751 273.878037 
L 125.248391 273.770407 
L 125.248391 273.748881 
L 126.189035 273.705829 
L 126.189035 273.619726 
L 127.933651 273.512096 
L 127.933651 273.469044 
L 130.628571 273.361415 
L 130.628571 273.339889 
L 132.653542 273.232259 
L 132.653542 273.210733 
L 133.280557 273.167681 
L 133.280557 273.060052 
L 134.472206 272.952422 
L 134.472206 272.930896 
L 135.589327 272.866319 
L 135.589327 272.780215 
L 136.640696 272.737163 
L 136.640696 272.629533 
L 137.144057 272.608007 
L 137.144057 272.478852 
L 137.873469 272.414274 
L 137.873469 272.349696 
L 139.684447 272.285119 
L 139.684447 272.220541 
L 141.523933 272.134437 
L 141.523933 272.06986 
L 143.013806 271.96223 
L 143.013806 271.897652 
L 144.054961 271.8546 
L 144.054961 271.768497 
L 146.419832 271.660867 
L 146.419832 271.596289 
L 147.838682 271.510186 
L 147.838682 271.467134 
L 150.612539 271.359504 
L 150.612539 271.316452 
L 151.187126 271.208823 
L 151.187126 271.144245 
L 154.669628 271.036616 
L 154.669628 271.01509 
L 157.102053 270.90746 
L 157.102053 270.864408 
L 157.661727 270.756779 
L 157.661727 270.735253 
L 159.02521 270.649149 
L 159.02521 270.606097 
L 159.949016 270.519994 
L 159.949016 270.476942 
L 160.359796 270.455416 
L 160.359796 270.32626 
L 161.727423 270.240157 
L 161.727423 270.197105 
L 162.939285 270.111001 
L 162.939285 270.067949 
L 164.668907 269.981846 
L 164.722007 269.895742 
L 167.423289 269.788112 
L 167.423289 269.766586 
L 168.398962 269.658957 
L 168.398962 269.615905 
L 168.783238 269.572853 
L 168.783238 269.486749 
L 170.281556 269.400646 
L 170.281556 269.357594 
L 173.539299 269.249964 
L 173.636145 269.185387 
L 176.840149 269.099283 
L 176.920697 269.013179 
L 178.872806 268.90555 
L 178.872806 268.884024 
L 181.104997 268.79792 
L 181.104997 268.754868 
L 191.282041 268.647239 
L 191.3419 268.561135 
L 193.01773 268.453505 
L 193.01773 268.43198 
L 194.278048 268.367402 
L 194.278048 268.281298 
L 194.539783 268.173669 
L 194.599643 268.109091 
L 200.812678 268.001461 
L 200.812678 267.979935 
L 202.738133 267.872306 
L 202.738133 267.85078 
L 206.304782 267.74315 
L 206.304782 267.721624 
L 207.187898 267.635521 
L 207.187898 267.549417 
L 211.52126 267.441787 
L 211.52126 267.37721 
L 214.266257 267.26958 
L 214.352193 267.183476 
L 214.868921 267.075847 
L 214.868921 267.054321 
L 217.673571 266.946691 
L 217.75007 266.903639 
L 221.589396 266.79601 
L 221.589396 266.774484 
L 223.898766 266.666854 
L 223.898766 266.645328 
L 226.934179 266.537699 
L 226.934179 266.516173 
L 231.282266 266.408543 
L 231.282266 266.387017 
L 233.655112 266.279388 
L 233.655112 266.257862 
L 235.547218 266.193284 
L 235.547218 266.064129 
L 238.301169 265.978025 
L 238.301169 265.891921 
L 240.592145 265.784292 
L 240.592145 265.74124 
L 244.52059 265.655136 
L 244.527292 265.590558 
L 247.229034 265.482929 
L 247.229034 265.461403 
L 248.643609 265.353773 
L 248.727116 265.289196 
L 251.248837 265.181566 
L 251.248837 265.138514 
L 253.181209 265.073936 
L 253.181209 265.009359 
L 257.233101 264.901729 
L 257.233101 264.880203 
L 258.175893 264.772574 
L 258.175893 264.729522 
L 260.140598 264.621892 
L 260.140598 264.57884 
L 263.641806 264.471211 
L 263.693563 264.428159 
L 265.675328 264.320529 
L 265.78448 256.764932 
L 265.794488 256.657303 
L 265.895365 256.076103 
L 266.030999 255.968473 
L 266.063333 255.817792 
L 266.356942 255.710162 
L 266.404277 255.624059 
L 266.536472 255.516429 
L 266.559031 255.451851 
L 266.712457 255.344222 
L 266.720199 255.30117 
L 266.955438 255.19354 
L 267.052404 255.128963 
L 267.365653 255.021333 
L 267.365653 254.999807 
L 268.134341 254.892178 
L 268.174767 254.849126 
L 268.750189 254.741496 
L 268.788933 254.698444 
L 269.797977 254.590815 
L 269.801827 254.547763 
L 271.548866 254.440133 
L 271.548866 254.418607 
L 272.032464 254.310978 
L 272.051925 254.2464 
L 272.905546 254.13877 
L 272.983282 254.095719 
L 274.375127 253.988089 
L 274.375127 253.966563 
L 275.25779 253.858934 
L 275.274801 253.815882 
L 278.062707 253.708252 
L 278.171753 248.003884 
L 278.192131 247.896254 
L 278.278296 247.594892 
L 278.437613 247.487262 
L 278.528511 247.272003 
L 278.602852 247.164373 
L 278.712078 247.035218 
L 278.876948 246.927588 
L 278.947283 246.776907 
L 279.520936 246.669277 
L 279.520936 246.647751 
L 280.009721 246.540122 
L 280.016243 246.49707 
L 280.564623 246.38944 
L 280.582124 246.324862 
L 281.452775 246.217233 
L 281.552384 246.131129 
L 283.019854 246.0235 
L 283.019854 246.001974 
L 284.129192 245.894344 
L 284.129192 245.872818 
L 285.325406 245.765189 
L 285.436103 241.33085 
L 285.446839 241.22322 
L 285.555257 240.986435 
L 285.618539 240.878805 
L 285.690483 240.620494 
L 285.841536 240.512865 
L 285.933431 240.27608 
L 286.157003 240.16845 
L 286.218371 239.996243 
L 286.853193 239.888613 
L 286.924376 239.845561 
L 287.562 239.737932 
L 287.648097 239.58725 
L 288.173522 239.479621 
L 288.182151 239.415043 
L 290.46141 239.307413 
L 290.560324 235.518852 
L 290.644864 235.411222 
L 290.744513 235.195963 
L 290.85104 235.088334 
L 290.949186 234.873074 
L 291.277856 234.765445 
L 291.303652 234.722393 
L 291.849963 234.614763 
L 291.92923 234.52866 
L 292.242113 234.42103 
L 292.291552 234.313401 
L 293.228121 234.205771 
L 293.228121 234.184245 
L 293.869836 234.076616 
L 293.870491 234.033564 
L 294.457741 233.925934 
L 294.56789 231.278246 
L 294.603581 231.170617 
L 294.709459 230.955358 
L 294.83825 230.847728 
L 294.92973 230.761624 
L 295.128779 230.653995 
L 295.220394 230.589417 
L 295.711429 230.481787 
L 295.804224 230.438736 
L 297.219577 230.331106 
L 297.219577 230.30958 
L 297.717377 230.20195 
L 297.823652 228.006307 
L 297.866829 227.898677 
L 297.928593 227.661892 
L 298.166968 227.554263 
L 298.16712 227.511211 
L 298.813768 227.403581 
L 298.920324 227.295952 
L 299.16487 227.188322 
L 299.225024 227.102218 
L 300.051617 226.994589 
L 300.05287 226.951537 
L 300.476064 226.843907 
L 300.584367 224.56216 
L 300.618994 224.454531 
L 300.729637 224.325375 
L 300.910714 224.217745 
L 300.953212 224.174694 
L 301.507832 224.067064 
L 301.537685 224.002486 
L 302.194716 223.894857 
L 302.202204 223.851805 
L 302.859033 223.744175 
L 302.969079 222.022102 
L 302.993516 221.914472 
L 303.103314 221.699213 
L 303.284392 221.591584 
L 303.344708 221.50548 
L 303.787192 221.39785 
L 303.791412 221.354798 
L 304.29583 221.247169 
L 304.384215 221.204117 
L 304.968802 221.096487 
L 305.072118 219.28831 
L 305.127971 219.180681 
L 305.23388 219.073051 
L 305.340461 218.965422 
L 305.420732 218.92237 
L 305.943343 218.81474 
L 305.943343 218.793214 
L 306.575525 218.685585 
L 306.575525 218.664059 
L 306.852118 218.556429 
L 306.956659 217.17877 
L 307.121413 217.071141 
L 307.221952 217.006563 
L 307.53232 216.898934 
L 307.6037 216.726726 
L 308.549408 216.619097 
L 308.656437 214.940075 
L 308.784462 214.832445 
L 308.891292 214.746342 
L 309.209503 214.638712 
L 309.270679 214.574134 
L 310.106599 214.466505 
L 310.199904 213.261054 
L 310.679167 213.153424 
L 310.723967 213.045794 
L 311.541787 212.938165 
L 311.610329 211.797291 
L 311.951642 211.689662 
L 312.02301 211.582032 
L 312.863466 211.474402 
L 312.97317 210.419632 
L 313.178862 210.312003 
L 313.178862 210.290477 
L 313.701824 210.182847 
L 313.709283 210.139796 
L 314.101042 210.032166 
L 314.211049 209.278759 
L 314.442191 209.171129 
L 314.517035 209.085026 
L 315.24344 208.977396 
L 315.350206 208.051782 
L 315.725264 207.944152 
L 315.725264 207.922626 
L 316.334795 207.814996 
L 316.415043 207.147693 
L 316.768914 207.040063 
L 316.850762 206.95396 
L 317.350178 206.84633 
L 317.453043 206.114449 
L 318.323493 206.006819 
L 318.415901 205.404094 
L 319.240805 205.296464 
L 319.332831 204.952049 
L 320.111834 204.84442 
L 320.169417 204.327798 
L 320.670504 204.220168 
L 320.705777 204.15559 
L 320.944907 204.069487 
L 320.978216 203.703546 
L 321.303453 203.595917 
L 321.303453 203.574391 
L 321.737594 203.466761 
L 321.816285 203.165398 
L 321.987771 203.057769 
L 322.039878 202.993191 
L 322.492407 202.885561 
L 322.592307 202.239784 
L 323.227124 202.132154 
L 323.258405 201.723162 
L 323.672479 201.615532 
L 323.700424 201.550954 
L 323.929391 201.443325 
L 324.015636 201.20654 
L 324.604352 201.09891 
L 324.682206 200.797547 
L 325.253234 200.689918 
L 325.314014 200.367029 
L 325.882969 200.259399 
L 325.967507 200.087192 
L 326.481623 199.979563 
L 326.537628 199.549044 
L 327.071432 199.441415 
L 327.112657 199.183104 
L 327.637041 199.075474 
L 327.698527 198.774111 
L 328.193022 198.666482 
L 328.224009 198.5158 
L 328.725043 198.408171 
L 328.798532 198.235963 
L 329.244935 198.128334 
L 329.285316 197.977652 
L 329.573915 197.870023 
L 329.573915 197.848497 
L 329.75254 197.740867 
L 329.767107 197.697815 
L 330.234346 197.590186 
L 330.269582 197.439504 
L 330.719315 197.331875 
L 330.819892 197.288823 
L 331.172386 197.181193 
L 331.238226 197.052038 
L 331.626104 196.944408 
L 331.669141 196.793727 
L 332.50064 196.686097 
L 332.50064 196.664571 
L 332.956156 196.556942 
L 332.956156 196.535416 
L 333.59814 196.427786 
L 333.599915 196.363208 
L 334.121732 196.255579 
L 334.170044 196.169475 
L 335.25777 196.061846 
L 335.341514 196.018794 
L 336.210008 195.911164 
L 336.311818 195.846586 
L 336.689404 195.738957 
L 336.786006 195.695905 
L 337.317507 195.588275 
L 337.324822 195.502172 
L 338.164478 195.394542 
L 338.266477 195.308438 
L 338.907003 195.200809 
L 338.991405 195.157757 
L 340.929419 195.050127 
L 340.929419 195.028602 
L 341.536243 194.920972 
L 341.536243 194.899446 
L 343.423098 194.791816 
L 343.423098 194.770291 
L 344.171858 194.662661 
L 344.171858 194.641135 
L 347.857615 194.533505 
L 347.857615 194.51198 
L 350.746008 194.40435 
L 350.746008 194.382824 
L 361.113325 194.275194 
L 361.113325 194.275194 
" style="fill:none;stroke:#00bfbf;stroke-linecap:square;stroke-width:1.5;"/>
   </g>
   <g id="line2d_43">
    <defs>
     <path d="M -6 0 
L 6 0 
M 0 6 
L 0 -6 
" id="md6e8a9d13d" style="stroke:#00bfbf;stroke-width:1.5;"/>
    </defs>
    <g>
     <use style="fill:none;stroke:#00bfbf;stroke-width:1.5;" x="115.127971" xlink:href="#md6e8a9d13d" y="275.470954"/>
     <use style="fill:none;stroke:#00bfbf;stroke-width:1.5;" x="259.108902" xlink:href="#md6e8a9d13d" y="264.664944"/>
     <use style="fill:none;stroke:#00bfbf;stroke-width:1.5;" x="290.687146" xlink:href="#md6e8a9d13d" y="235.346645"/>
     <use style="fill:none;stroke:#00bfbf;stroke-width:1.5;" x="331.669141" xlink:href="#md6e8a9d13d" y="196.815253"/>
     <use style="fill:none;stroke:#00bfbf;stroke-width:1.5;" x="355.284265" xlink:href="#md6e8a9d13d" y="194.275194"/>
     <use style="fill:none;stroke:#00bfbf;stroke-width:1.5;" x="361.113325" xlink:href="#md6e8a9d13d" y="194.275194"/>
    </g>
   </g>
   <g id="line2d_44"/>
   <g id="line2d_45">
    <path clip-path="url(#pb1447fe818)" d="M 265.715384 261.328427 
" style="fill:none;stroke:#00bfbf;stroke-linecap:square;stroke-width:1.5;"/>
    <defs>
     <path d="M -12 12 
L 12 -12 
M -12 -12 
L 12 12 
" id="mdabaced0e6" style="stroke:#00bfbf;stroke-width:3;"/>
    </defs>
    <g clip-path="url(#pb1447fe818)">
     <use style="fill:#00bfbf;stroke:#00bfbf;stroke-width:3;" x="265.715384" xlink:href="#mdabaced0e6" y="261.328427"/>
    </g>
   </g>
   <g id="line2d_46">
    <defs>
     <path d="M 0 1.5 
C 0.397805 1.5 0.77937 1.341951 1.06066 1.06066 
C 1.341951 0.77937 1.5 0.397805 1.5 0 
C 1.5 -0.397805 1.341951 -0.77937 1.06066 -1.06066 
C 0.77937 -1.341951 0.397805 -1.5 0 -1.5 
C -0.397805 -1.5 -0.77937 -1.341951 -1.06066 -1.06066 
C -1.341951 -0.77937 -1.5 -0.397805 -1.5 0 
C -1.5 0.397805 -1.341951 0.77937 -1.06066 1.06066 
C -0.77937 1.341951 -0.397805 1.5 0 1.5 
z
" id="mfc5e0e648c" style="stroke:#008000;"/>
    </defs>
    <g>
     <use style="fill:#008000;stroke:#008000;" x="350.706779" xlink:href="#mfc5e0e648c" y="247.44421"/>
     <use style="fill:#008000;stroke:#008000;" x="350.706779" xlink:href="#mfc5e0e648c" y="247.44421"/>
    </g>
   </g>
   <g id="line2d_47">
    <path d="M 53.483194 298.245375 
L 53.483194 286.492224 
L 65.868428 286.492224 
L 65.868428 285.136091 
L 73.113325 285.136091 
L 73.113325 284.382684 
L 78.253662 284.382684 
L 78.253662 284.059796 
L 82.240817 284.059796 
L 82.240817 283.586225 
L 88.252942 283.500122 
L 88.252942 283.112655 
L 90.638896 283.112655 
L 90.638896 282.9835 
L 94.626051 282.961974 
L 94.626051 282.552981 
L 97.883794 282.445352 
L 97.883794 282.423826 
L 99.314006 282.423826 
L 99.314006 282.187041 
L 100.638176 282.187041 
L 100.638176 282.036359 
L 101.870948 282.036359 
L 101.870948 281.885678 
L 105.128691 281.799574 
L 105.128691 281.734996 
L 107.011285 281.648893 
L 107.011285 281.476685 
L 108.714298 281.369056 
L 108.714298 281.261426 
L 110.269028 281.2399 
L 110.269028 281.089219 
L 110.99844 281.089219 
L 110.99844 280.960063 
L 113.02341 280.852434 
L 113.02341 280.787856 
L 114.842075 280.744804 
L 114.842075 280.658701 
L 117.513925 280.551071 
L 117.513925 280.357338 
L 120.268307 280.249708 
L 120.268307 280.206656 
L 121.099532 280.163604 
L 121.099532 280.055975 
L 123.73751 279.969871 
L 123.73751 279.926819 
L 125.724902 279.81919 
L 125.724902 279.797664 
L 126.936764 279.71156 
L 126.936764 279.668508 
L 128.071629 279.625457 
L 128.071629 279.453249 
L 129.138699 279.410197 
L 129.138699 279.302568 
L 132.865001 279.194938 
L 132.865001 279.173412 
L 133.484767 279.065783 
L 133.484767 279.001205 
L 134.852393 278.936627 
L 134.852393 278.872049 
L 136.977841 278.76442 
L 136.977841 278.742894 
L 138.877126 278.699842 
L 138.877126 278.592213 
L 139.756063 278.484583 
L 139.756063 278.463057 
L 141.652946 278.355427 
L 141.652946 278.333901 
L 143.132531 278.247798 
L 143.132531 278.18322 
L 144.498912 278.118642 
L 144.498912 278.054065 
L 147.048545 277.946435 
L 147.048545 277.903383 
L 149.93819 277.795754 
L 149.93819 277.774228 
L 151.925583 277.666598 
L 151.925583 277.60202 
L 152.979018 277.494391 
L 152.979018 277.472865 
L 156.993432 277.386761 
L 156.993432 277.343709 
L 158.854222 277.23608 
L 158.854222 277.214554 
L 161.024114 277.106924 
L 161.024114 277.042346 
L 162.958802 276.934717 
L 163.036659 276.891665 
L 164.77495 276.784035 
L 164.77495 276.76251 
L 168.079621 276.65488 
L 168.108889 276.590302 
L 170.741705 276.482673 
L 170.741705 276.461147 
L 172.586402 276.353517 
L 172.586402 276.331991 
L 175.691751 276.245888 
L 175.691751 276.202836 
L 184.405081 276.138258 
L 184.405081 276.07368 
L 185.498692 275.987577 
L 185.575876 275.922999 
L 186.653945 275.836895 
L 186.653945 275.750791 
L 187.660866 275.686214 
L 187.660866 275.621636 
L 193.319855 275.514006 
L 193.319855 275.49248 
L 195.455298 275.384851 
L 195.455298 275.363325 
L 199.630083 275.255695 
L 199.630083 275.234169 
L 200.812678 275.148066 
L 200.812678 275.105014 
L 207.591962 274.997384 
L 207.591962 274.975858 
L 215.074878 274.868229 
L 215.074878 274.846703 
L 218.397944 274.739073 
L 218.441711 274.674496 
L 220.260545 274.566866 
L 220.329899 274.480762 
L 224.239486 274.416185 
L 224.268534 274.330081 
L 226.413572 274.222451 
L 226.413572 274.200925 
L 228.618702 274.093296 
L 228.618702 274.07177 
L 231.912352 273.96414 
L 231.912352 273.899563 
L 239.439132 273.791933 
L 239.439132 273.770407 
L 241.790161 273.662777 
L 241.790161 273.641252 
L 245.547409 273.533622 
L 245.547409 273.512096 
L 246.962419 273.447518 
L 246.962419 273.339889 
L 250.273416 273.232259 
L 250.273416 273.210733 
L 252.718123 273.103104 
L 252.718123 273.060052 
L 254.94934 272.952422 
L 254.94934 272.930896 
L 256.41717 272.823267 
L 256.41717 272.780215 
L 257.979569 272.672585 
L 257.979569 272.651059 
L 258.441059 272.54343 
L 258.551814 268.604187 
L 258.566073 268.496557 
L 258.602871 268.388928 
L 258.802915 268.281298 
L 258.828836 268.195194 
L 259.434793 268.087565 
L 259.434793 268.066039 
L 259.932265 267.958409 
L 259.932265 267.936883 
L 260.654831 267.829254 
L 260.709095 267.786202 
L 262.788609 267.678572 
L 262.788609 267.657047 
L 265.813438 267.549417 
L 265.813438 267.527891 
L 267.134699 267.420261 
L 267.134699 267.398736 
L 268.812317 267.291106 
L 268.9015 267.248054 
L 270.123405 267.140425 
L 270.127573 267.097373 
L 270.838219 266.989743 
L 270.947234 264.621892 
L 271.114656 264.514263 
L 271.198924 264.406633 
L 271.511457 264.299003 
L 271.511457 264.277478 
L 272.369725 264.169848 
L 272.385192 264.126796 
L 275.062864 264.019166 
L 275.062864 263.997641 
L 276.7641 263.890011 
L 276.7641 263.868485 
L 277.436646 263.760855 
L 277.444692 263.717804 
L 278.084979 263.610174 
L 278.191885 261.888101 
L 278.318818 261.780471 
L 278.419951 261.672842 
L 278.846006 261.565212 
L 278.865451 261.52216 
L 279.637406 261.414531 
L 279.746645 261.371479 
L 281.015679 261.263849 
L 281.015679 261.242323 
L 282.766672 261.134694 
L 282.766672 261.113168 
L 283.229273 261.005538 
L 283.310746 259.735509 
L 284.132866 259.627879 
L 284.18687 259.584828 
L 284.841182 259.477198 
L 284.841182 259.455672 
L 286.567755 259.348042 
L 286.641216 259.304991 
L 287.220888 259.197361 
L 287.325658 258.379376 
L 287.621701 258.271747 
L 287.621701 258.250221 
L 289.489591 258.142591 
L 289.489591 258.121065 
L 290.401692 258.013436 
L 290.504701 257.044769 
L 290.807744 256.93714 
L 290.892201 256.894088 
L 292.341553 256.786458 
L 292.383942 256.743406 
L 293.226857 256.635777 
L 293.336535 255.77474 
L 293.514977 255.667111 
L 293.623842 255.602533 
L 295.389301 255.494903 
L 295.405606 255.451851 
L 295.623816 255.344222 
L 295.713906 254.849126 
L 296.82894 254.741496 
L 296.82894 254.71997 
L 297.723387 254.612341 
L 297.792697 254.095719 
L 298.740705 253.988089 
L 298.74725 253.945037 
L 299.612897 253.837408 
L 299.685832 253.471467 
L 301.13634 253.363837 
L 301.13634 253.342312 
L 301.312364 253.234682 
L 301.401793 252.847215 
L 302.145555 252.739586 
L 302.147848 252.696534 
L 302.867612 252.588904 
L 302.879041 252.416697 
L 304.2898 252.309067 
L 304.310087 252.072282 
L 305.005695 251.964653 
L 305.072207 251.921601 
L 305.623422 251.813971 
L 305.676918 251.66329 
L 306.855785 251.55566 
L 306.893541 251.404979 
L 308.006049 251.297349 
L 308.092113 251.060564 
L 309.093861 250.952935 
L 309.159699 250.780727 
L 310.109004 250.673098 
L 310.214943 250.414787 
L 311.071394 250.307157 
L 311.122646 250.13495 
L 311.997564 250.02732 
L 312.033865 249.876639 
L 312.862105 249.769009 
L 312.917883 249.66138 
L 313.73179 249.55375 
L 313.834261 249.381543 
L 315.640644 249.273913 
L 315.745838 249.230861 
L 316.358734 249.123232 
L 316.358734 249.101706 
L 317.527244 248.994076 
L 317.527244 248.97255 
L 318.957482 248.864921 
L 319.049401 248.821869 
L 319.821898 248.714239 
L 319.825381 248.628136 
L 321.954982 248.520506 
L 321.997214 248.434402 
L 323.458828 248.326773 
L 323.467322 248.283721 
L 324.376339 248.176091 
L 324.388804 248.13304 
L 325.889171 248.02541 
L 325.889171 248.003884 
L 328.003635 247.896254 
L 328.013879 247.831677 
L 330.705903 247.724047 
L 330.705903 247.702521 
L 333.737107 247.594892 
L 333.737107 247.573366 
L 350.706779 247.465736 
L 350.706779 247.44421 
L 361.113325 247.44421 
L 361.113325 247.44421 
" style="fill:none;stroke:#008000;stroke-linecap:square;stroke-width:1.5;"/>
   </g>
   <g id="line2d_48">
    <defs>
     <path d="M -0 6 
L 6 -6 
L -6 -6 
z
" id="mf23b80c0de" style="stroke:#008000;stroke-linejoin:miter;stroke-width:1.5;"/>
    </defs>
    <g>
     <use style="fill:none;stroke:#008000;stroke-linejoin:miter;stroke-width:1.5;" x="92.743457" xlink:href="#mf23b80c0de" y="282.961974"/>
     <use style="fill:none;stroke:#008000;stroke-linejoin:miter;stroke-width:1.5;" x="164.055814" xlink:href="#mf23b80c0de" y="276.827087"/>
     <use style="fill:none;stroke:#008000;stroke-linejoin:miter;stroke-width:1.5;" x="243.963329" xlink:href="#mf23b80c0de" y="273.533622"/>
     <use style="fill:none;stroke:#008000;stroke-linejoin:miter;stroke-width:1.5;" x="307.471242" xlink:href="#mf23b80c0de" y="251.340401"/>
     <use style="fill:none;stroke:#008000;stroke-linejoin:miter;stroke-width:1.5;" x="350.706779" xlink:href="#mf23b80c0de" y="247.44421"/>
     <use style="fill:none;stroke:#008000;stroke-linejoin:miter;stroke-width:1.5;" x="361.113325" xlink:href="#mf23b80c0de" y="247.44421"/>
    </g>
   </g>
   <g id="line2d_49"/>
   <g id="line2d_50">
    <path clip-path="url(#pb1447fe818)" d="M 258.468998 271.359504 
" style="fill:none;stroke:#008000;stroke-linecap:square;stroke-width:1.5;"/>
    <defs>
     <path d="M -12 12 
L 12 -12 
M -12 -12 
L 12 12 
" id="mdde2765a5c" style="stroke:#008000;stroke-width:3;"/>
    </defs>
    <g clip-path="url(#pb1447fe818)">
     <use style="fill:#008000;stroke:#008000;stroke-width:3;" x="258.468998" xlink:href="#mdde2765a5c" y="271.359504"/>
    </g>
   </g>
   <g id="line2d_51">
    <defs>
     <path d="M 0 1.5 
C 0.397805 1.5 0.77937 1.341951 1.06066 1.06066 
C 1.341951 0.77937 1.5 0.397805 1.5 0 
C 1.5 -0.397805 1.341951 -0.77937 1.06066 -1.06066 
C 0.77937 -1.341951 0.397805 -1.5 0 -1.5 
C -0.397805 -1.5 -0.77937 -1.341951 -1.06066 -1.06066 
C -1.341951 -0.77937 -1.5 -0.397805 -1.5 0 
C -1.5 0.397805 -1.341951 0.77937 -1.06066 1.06066 
C -0.77937 1.341951 -0.397805 1.5 0 1.5 
z
" id="m72099f53c2" style="stroke:#0000ff;"/>
    </defs>
    <g>
     <use style="fill:#0000ff;stroke:#0000ff;" x="327.234239" xlink:href="#m72099f53c2" y="265.74124"/>
     <use style="fill:#0000ff;stroke:#0000ff;" x="327.234239" xlink:href="#m72099f53c2" y="265.74124"/>
    </g>
   </g>
   <g id="line2d_52">
    <path d="M 44.355702 298.245375 
L 44.355702 289.010756 
L 56.740936 289.010756 
L 56.740936 288.386505 
L 63.985834 288.386505 
L 63.985834 287.977512 
L 69.126171 287.977512 
L 69.126171 287.611572 
L 73.113325 287.611572 
L 73.113325 287.417839 
L 79.12545 287.310209 
L 79.12545 287.202579 
L 81.511405 287.202579 
L 81.511405 287.073424 
L 85.498559 286.98732 
L 85.498559 286.901217 
L 88.756302 286.858165 
L 88.756302 286.772061 
L 91.510684 286.707483 
L 91.510684 286.642906 
L 93.896639 286.556802 
L 93.896639 286.449172 
L 97.883794 286.363069 
L 97.883794 286.298491 
L 99.586807 286.212387 
L 99.586807 286.061706 
L 101.141536 285.997128 
L 101.141536 285.93255 
L 103.246097 285.846447 
L 103.246097 285.803395 
L 105.714583 285.695765 
L 105.714583 285.631187 
L 108.386434 285.56661 
L 108.386434 285.480506 
L 111.972041 285.372876 
L 111.972041 285.351351 
L 114.956983 285.243721 
L 114.956983 285.222195 
L 118.944138 285.114565 
L 118.944138 285.071514 
L 121.50108 284.98541 
L 121.50108 284.942358 
L 123.52605 284.834729 
L 123.52605 284.813203 
L 125.912004 284.705573 
L 125.912004 284.662521 
L 130.770948 284.554892 
L 130.770948 284.533366 
L 134.24015 284.447262 
L 134.24015 284.40421 
L 139.292682 284.296581 
L 139.292682 284.253529 
L 142.94219 284.145899 
L 142.94219 284.124373 
L 145.604071 284.016744 
L 145.665791 283.952166 
L 148.560454 283.844536 
L 148.560454 283.82301 
L 149.529291 283.779959 
L 149.529291 283.693855 
L 154.407132 283.586225 
L 154.407132 283.543173 
L 160.141889 283.435544 
L 160.141889 283.392492 
L 166.177489 283.284862 
L 166.177489 283.263337 
L 177.966401 283.198759 
L 177.966401 283.134181 
L 185.251679 283.026551 
L 185.251679 283.005026 
L 189.682339 282.897396 
L 189.682339 282.87587 
L 195.10245 282.76824 
L 195.10245 282.703663 
L 204.131285 282.596033 
L 204.191942 282.552981 
L 206.100834 282.445352 
L 206.100834 282.4023 
L 212.306557 282.29467 
L 212.389184 282.230093 
L 217.594542 282.122463 
L 217.594542 282.100937 
L 222.637811 281.993307 
L 222.637811 281.971782 
L 224.291739 281.885678 
L 224.314411 281.799574 
L 226.484389 281.691945 
L 226.484389 281.670419 
L 228.70082 281.562789 
L 228.70082 281.541263 
L 230.37147 281.433634 
L 230.37147 281.412108 
L 233.19429 281.304478 
L 233.19429 281.282952 
L 236.795679 281.175323 
L 236.847436 281.089219 
L 241.266235 280.981589 
L 241.266235 280.960063 
L 247.74112 280.852434 
L 247.74112 280.830908 
L 249.299581 280.723278 
L 249.40486 278.76442 
L 249.425063 278.65679 
L 249.482952 278.527635 
L 249.811179 278.420005 
L 249.811179 278.398479 
L 250.163195 278.29085 
L 250.197645 278.247798 
L 250.696412 278.140168 
L 250.696412 278.118642 
L 253.250583 278.011013 
L 253.27061 277.967961 
L 255.314771 277.860331 
L 255.394398 277.817279 
L 257.513307 277.70965 
L 257.513307 277.688124 
L 260.302677 277.580494 
L 260.302677 277.558968 
L 261.705045 277.451339 
L 261.807518 276.009102 
L 262.679395 275.901473 
L 262.756603 275.815369 
L 263.861943 275.70774 
L 263.955423 275.621636 
L 265.94853 275.514006 
L 266.020464 275.470954 
L 268.543316 275.363325 
L 268.553417 275.320273 
L 268.957053 275.212643 
L 269.021943 274.502288 
L 269.258242 274.394659 
L 269.258242 274.373133 
L 269.785207 274.265503 
L 269.785207 274.243977 
L 271.226779 274.136348 
L 271.226779 274.114822 
L 272.107733 274.007192 
L 272.202581 273.96414 
L 272.879518 273.856511 
L 272.879518 273.834985 
L 274.106437 273.727355 
L 274.144748 273.382941 
L 274.457579 273.275311 
L 274.467754 273.210733 
L 275.241571 273.103104 
L 275.331193 273.060052 
L 276.260962 272.952422 
L 276.280342 272.90937 
L 278.092465 272.801741 
L 278.164263 272.414274 
L 278.712168 272.306645 
L 278.712168 272.285119 
L 279.422712 272.177489 
L 279.422712 272.155963 
L 281.347874 272.048334 
L 281.374235 271.639341 
L 282.09753 271.531712 
L 282.09753 271.510186 
L 284.095215 271.402556 
L 284.125686 270.90746 
L 284.481096 270.79983 
L 284.481096 270.778305 
L 286.249901 270.670675 
L 286.249901 270.649149 
L 286.494882 270.541519 
L 286.604022 270.304734 
L 287.562285 270.197105 
L 287.600316 270.154053 
L 288.59211 270.046423 
L 288.63784 269.788112 
L 289.39901 269.680483 
L 289.446156 269.637431 
L 290.480846 269.529801 
L 290.579254 269.357594 
L 291.187114 269.249964 
L 291.19411 269.206913 
L 292.184365 269.099283 
L 292.282415 268.90555 
L 292.80107 268.79792 
L 292.911911 268.711816 
L 293.739376 268.604187 
L 293.822853 268.518083 
L 295.1703 268.410454 
L 295.254365 268.345876 
L 296.785177 268.238246 
L 296.785177 268.21672 
L 298.030987 268.109091 
L 298.030987 268.087565 
L 298.879069 267.979935 
L 298.935512 267.915358 
L 299.813723 267.807728 
L 299.813723 267.786202 
L 300.229799 267.678572 
L 300.229799 267.657047 
L 301.038814 267.549417 
L 301.107634 267.506365 
L 301.952819 267.398736 
L 301.955522 267.355684 
L 303.056584 267.248054 
L 303.056584 267.226528 
L 305.121496 267.118899 
L 305.121496 267.097373 
L 306.783376 266.989743 
L 306.88803 266.925165 
L 308.019282 266.817536 
L 308.019282 266.79601 
L 308.877834 266.68838 
L 308.888834 266.580751 
L 310.817383 266.473121 
L 310.817383 266.451595 
L 311.921431 266.343966 
L 311.921431 266.32244 
L 313.867736 266.21481 
L 313.867736 266.193284 
L 316.648225 266.085655 
L 316.648225 266.064129 
L 320.83806 265.956499 
L 320.940709 265.913447 
L 323.996758 265.805818 
L 323.996758 265.784292 
L 361.113325 265.74124 
L 361.113325 265.74124 
" style="fill:none;stroke:#0000ff;stroke-linecap:square;stroke-width:1.5;"/>
   </g>
   <g id="line2d_53">
    <defs>
     <path d="M 0 -6 
L -1.347084 -1.854102 
L -5.706339 -1.854102 
L -2.179628 0.708204 
L -3.526712 4.854102 
L -0 2.291796 
L 3.526712 4.854102 
L 2.179628 0.708204 
L 5.706339 -1.854102 
L 1.347084 -1.854102 
z
" id="m7034e7cb6a" style="stroke:#0000ff;stroke-linejoin:bevel;stroke-width:1.5;"/>
    </defs>
    <g>
     <use style="fill:none;stroke:#0000ff;stroke-linejoin:bevel;stroke-width:1.5;" x="142.432677" xlink:href="#m7034e7cb6a" y="284.145899"/>
     <use style="fill:none;stroke:#0000ff;stroke-linejoin:bevel;stroke-width:1.5;" x="207.838634" xlink:href="#m7034e7cb6a" y="282.380774"/>
     <use style="fill:none;stroke:#0000ff;stroke-linejoin:bevel;stroke-width:1.5;" x="281.992766" xlink:href="#m7034e7cb6a" y="271.574763"/>
     <use style="fill:none;stroke:#0000ff;stroke-linejoin:bevel;stroke-width:1.5;" x="327.234239" xlink:href="#m7034e7cb6a" y="265.762766"/>
     <use style="fill:none;stroke:#0000ff;stroke-linejoin:bevel;stroke-width:1.5;" x="327.234239" xlink:href="#m7034e7cb6a" y="265.74124"/>
     <use style="fill:none;stroke:#0000ff;stroke-linejoin:bevel;stroke-width:1.5;" x="361.113325" xlink:href="#m7034e7cb6a" y="265.74124"/>
    </g>
   </g>
   <g id="line2d_54"/>
   <g id="line2d_55">
    <path clip-path="url(#pb1447fe818)" d="M 249.339645 280.012923 
" style="fill:none;stroke:#0000ff;stroke-linecap:square;stroke-width:1.5;"/>
    <defs>
     <path d="M -12 12 
L 12 -12 
M -12 -12 
L 12 12 
" id="m1dac5c3a31" style="stroke:#0000ff;stroke-width:3;"/>
    </defs>
    <g clip-path="url(#pb1447fe818)">
     <use style="fill:#0000ff;stroke:#0000ff;stroke-width:3;" x="249.339645" xlink:href="#m1dac5c3a31" y="280.012923"/>
    </g>
   </g>
   <g id="line2d_56">
    <defs>
     <path d="M 0 1.5 
C 0.397805 1.5 0.77937 1.341951 1.06066 1.06066 
C 1.341951 0.77937 1.5 0.397805 1.5 0 
C 1.5 -0.397805 1.341951 -0.77937 1.06066 -1.06066 
C 0.77937 -1.341951 0.397805 -1.5 0 -1.5 
C -0.397805 -1.5 -0.77937 -1.341951 -1.06066 -1.06066 
C -1.341951 -0.77937 -1.5 -0.397805 -1.5 0 
C -1.5 0.397805 -1.341951 0.77937 -1.06066 1.06066 
C -0.77937 1.341951 -0.397805 1.5 0 1.5 
z
" id="mebc8483de7" style="stroke:#000000;"/>
    </defs>
    <g>
     <use style="stroke:#000000;" x="335.816893" xlink:href="#mebc8483de7" y="280.809382"/>
     <use style="stroke:#000000;" x="335.816893" xlink:href="#mebc8483de7" y="280.809382"/>
    </g>
   </g>
   <g id="line2d_57">
    <path d="M 31.970468 298.245375 
L 31.970468 290.883511 
L 44.355702 290.883511 
L 44.355702 290.560623 
L 51.6006 290.560623 
L 51.6006 290.323837 
L 60.728091 290.25926 
L 60.728091 290.15163 
L 66.740216 290.065526 
L 66.740216 289.957897 
L 71.230731 289.914845 
L 71.230731 289.828741 
L 81.511405 289.721112 
L 81.511405 289.635008 
L 91.510684 289.527378 
L 91.510684 289.484327 
L 99.176028 289.376697 
L 99.176028 289.355171 
L 109.115846 289.247542 
L 109.115846 289.226016 
L 119.618486 289.118386 
L 119.618486 289.09686 
L 125.344715 288.989231 
L 125.344715 288.967705 
L 130.121126 288.860075 
L 130.121126 288.838549 
L 135.697292 288.73092 
L 135.697292 288.709394 
L 139.071265 288.601764 
L 139.071265 288.558712 
L 144.388954 288.472609 
L 144.388954 288.429557 
L 162.379931 288.321927 
L 162.379931 288.278875 
L 166.439475 288.171246 
L 166.439475 288.14972 
L 177.727308 288.063616 
L 177.727308 288.020564 
L 182.624011 287.912935 
L 182.624011 287.891409 
L 188.407736 287.826831 
L 188.407736 287.762253 
L 200.356689 287.654624 
L 200.356689 287.633098 
L 204.749112 287.546994 
L 204.749112 287.503942 
L 214.630939 287.396313 
L 214.630939 287.353261 
L 221.244337 287.245631 
L 221.244337 287.224105 
L 227.982286 287.138002 
L 227.982286 287.09495 
L 236.921435 286.98732 
L 237.032418 286.492224 
L 237.229073 286.384595 
L 237.26661 286.341543 
L 239.221964 286.233913 
L 239.238679 286.169335 
L 241.847862 286.061706 
L 241.847862 286.04018 
L 245.501359 285.93255 
L 245.606956 285.889498 
L 248.832556 285.781869 
L 248.832556 285.760343 
L 249.339459 285.652713 
L 249.359551 285.45898 
L 251.557945 285.351351 
L 251.583738 285.308299 
L 252.715272 285.200669 
L 252.715272 285.179143 
L 255.846688 285.071514 
L 255.846688 285.049988 
L 256.592359 284.942358 
L 256.607237 284.87778 
L 259.108256 284.770151 
L 259.108256 284.748625 
L 261.014952 284.640995 
L 261.014952 284.619469 
L 261.727857 284.51184 
L 261.735579 284.40421 
L 263.537881 284.296581 
L 263.537881 284.275055 
L 265.608317 284.167425 
L 265.715087 284.102847 
L 266.186722 283.995218 
L 266.186722 283.973692 
L 268.884728 283.866062 
L 268.985312 283.801484 
L 269.387054 283.693855 
L 269.387054 283.672329 
L 270.762053 283.564699 
L 270.762053 283.543173 
L 272.590698 283.435544 
L 272.622967 283.392492 
L 274.097172 283.284862 
L 274.127369 283.177233 
L 276.213103 283.069603 
L 276.213103 283.048077 
L 278.299694 282.940448 
L 278.299694 282.918922 
L 281.132282 282.811292 
L 281.132282 282.789766 
L 282.563975 282.682137 
L 282.579248 282.596033 
L 283.246588 282.488404 
L 283.3235 282.445352 
L 284.901695 282.337722 
L 284.908116 282.29467 
L 286.500698 282.187041 
L 286.500698 282.165515 
L 289.024851 282.057885 
L 289.024851 282.036359 
L 290.749354 281.92873 
L 290.754131 281.885678 
L 291.818114 281.778048 
L 291.818114 281.756522 
L 293.629727 281.648893 
L 293.629727 281.627367 
L 295.457882 281.519737 
L 295.5403 281.476685 
L 297.332277 281.369056 
L 297.385842 281.326004 
L 300.427593 281.218374 
L 300.427593 281.196849 
L 305.175785 281.089219 
L 305.175785 281.067693 
L 312.312601 280.960063 
L 312.312601 280.938537 
L 335.816893 280.830908 
L 335.816893 280.809382 
L 361.113325 280.809382 
L 361.113325 280.809382 
" style="fill:none;stroke:#000000;stroke-linecap:square;stroke-width:1.5;"/>
   </g>
   <g id="line2d_58">
    <defs>
     <path d="M 0 6 
C 1.591219 6 3.117479 5.367802 4.242641 4.242641 
C 5.367802 3.117479 6 1.591219 6 0 
C 6 -1.591219 5.367802 -3.117479 4.242641 -4.242641 
C 3.117479 -5.367802 1.591219 -6 0 -6 
C -1.591219 -6 -3.117479 -5.367802 -4.242641 -4.242641 
C -5.367802 -3.117479 -6 -1.591219 -6 0 
C -6 1.591219 -5.367802 3.117479 -4.242641 4.242641 
C -3.117479 5.367802 -1.591219 6 0 6 
z
" id="m64ca251b82" style="stroke:#000000;stroke-width:1.5;"/>
    </defs>
    <g>
     <use style="fill:none;stroke:#000000;stroke-width:1.5;" x="76.371068" xlink:href="#m64ca251b82" y="289.742638"/>
     <use style="fill:none;stroke:#000000;stroke-width:1.5;" x="148.402561" xlink:href="#m64ca251b82" y="288.321927"/>
     <use style="fill:none;stroke:#000000;stroke-width:1.5;" x="253.699003" xlink:href="#m64ca251b82" y="285.179143"/>
     <use style="fill:none;stroke:#000000;stroke-width:1.5;" x="317.918456" xlink:href="#m64ca251b82" y="280.87396"/>
     <use style="fill:none;stroke:#000000;stroke-width:1.5;" x="335.816893" xlink:href="#m64ca251b82" y="280.809382"/>
     <use style="fill:none;stroke:#000000;stroke-width:1.5;" x="361.113325" xlink:href="#m64ca251b82" y="280.809382"/>
    </g>
   </g>
   <g id="line2d_59"/>
   <g id="line2d_60">
    <path clip-path="url(#pb1447fe818)" d="M 236.955528 286.858165 
" style="fill:none;stroke:#000000;stroke-linecap:square;stroke-width:1.5;"/>
    <defs>
     <path d="M -12 12 
L 12 -12 
M -12 -12 
L 12 12 
" id="m67a1ef7d32" style="stroke:#000000;stroke-width:3;"/>
    </defs>
    <g clip-path="url(#pb1447fe818)">
     <use style="stroke:#000000;stroke-width:3;" x="236.955528" xlink:href="#m67a1ef7d32" y="286.858165"/>
    </g>
   </g>
   <g id="line2d_61">
    <defs>
     <path d="M 0 1.5 
C 0.397805 1.5 0.77937 1.341951 1.06066 1.06066 
C 1.341951 0.77937 1.5 0.397805 1.5 0 
C 1.5 -0.397805 1.341951 -0.77937 1.06066 -1.06066 
C 0.77937 -1.341951 0.397805 -1.5 0 -1.5 
C -0.397805 -1.5 -0.77937 -1.341951 -1.06066 -1.06066 
C -1.341951 -0.77937 -1.5 -0.397805 -1.5 0 
C -1.5 0.397805 -1.341951 0.77937 -1.06066 1.06066 
C -0.77937 1.341951 -0.397805 1.5 0 1.5 
z
" id="mac143d5ab5" style="stroke:#ff0000;"/>
    </defs>
    <g>
     <use style="fill:#ff0000;stroke:#ff0000;" x="298.560084" xlink:href="#mac143d5ab5" y="286.836639"/>
     <use style="fill:#ff0000;stroke:#ff0000;" x="298.560084" xlink:href="#mac143d5ab5" y="286.836639"/>
    </g>
   </g>
   <g id="line2d_62">
    <path d="M 19.585234 298.245375 
L 19.585234 291.873703 
L 31.970468 291.873703 
L 31.970468 291.701496 
L 39.215366 291.701496 
L 39.215366 291.550815 
L 44.355702 291.550815 
L 44.355702 291.31403 
L 58.845497 291.270978 
L 58.845497 291.141822 
L 66.740216 291.077245 
L 66.740216 290.991141 
L 77.80128 290.883511 
L 77.80128 290.840459 
L 96.490768 290.73283 
L 96.490768 290.711304 
L 106.281873 290.603674 
L 106.281873 290.560623 
L 115.297338 290.474519 
L 115.297338 290.431467 
L 125.005283 290.323837 
L 125.005283 290.302312 
L 132.557562 290.194682 
L 132.557562 290.173156 
L 149.714454 290.065526 
L 149.714454 290.044001 
L 154.491927 289.936371 
L 154.491927 289.914845 
L 169.200736 289.807215 
L 169.200736 289.78569 
L 187.555304 289.699586 
L 187.555304 289.656534 
L 196.164495 289.548904 
L 196.164495 289.527378 
L 213.129192 289.419749 
L 213.129192 289.398223 
L 223.731986 289.290593 
L 223.731986 289.269067 
L 224.578295 289.161438 
L 224.64811 289.053808 
L 226.397897 288.946179 
L 226.415699 288.881601 
L 231.898813 288.773971 
L 231.898813 288.752445 
L 236.961855 288.644816 
L 236.963529 288.601764 
L 245.173547 288.494134 
L 245.173547 288.472609 
L 250.02768 288.364979 
L 250.02768 288.343453 
L 253.343954 288.235823 
L 253.343954 288.214298 
L 256.597506 288.106668 
L 256.648614 288.04209 
L 259.34403 287.934461 
L 259.362416 287.869883 
L 261.766641 287.762253 
L 261.766641 287.740727 
L 265.716501 287.633098 
L 265.723962 287.590046 
L 270.421325 287.482416 
L 270.421325 287.46089 
L 272.979874 287.353261 
L 272.979874 287.331735 
L 276.220051 287.224105 
L 276.220051 287.202579 
L 281.511192 287.09495 
L 281.511192 287.073424 
L 285.993261 286.965794 
L 285.993261 286.944268 
L 361.113325 286.836639 
L 361.113325 286.836639 
" style="fill:none;stroke:#ff0000;stroke-linecap:square;stroke-width:1.5;"/>
   </g>
   <g id="line2d_63">
    <defs>
     <path d="M -6 6 
L 6 6 
L 6 -6 
L -6 -6 
z
" id="m1e538263be" style="stroke:#ff0000;stroke-linejoin:miter;stroke-width:1.5;"/>
    </defs>
    <g>
     <use style="fill:none;stroke:#ff0000;stroke-linejoin:miter;stroke-width:1.5;" x="77.80128" xlink:href="#m1e538263be" y="290.883511"/>
     <use style="fill:none;stroke:#ff0000;stroke-linejoin:miter;stroke-width:1.5;" x="154.491927" xlink:href="#m1e538263be" y="289.936371"/>
     <use style="fill:none;stroke:#ff0000;stroke-linejoin:miter;stroke-width:1.5;" x="231.898813" xlink:href="#m1e538263be" y="288.773971"/>
     <use style="fill:none;stroke:#ff0000;stroke-linejoin:miter;stroke-width:1.5;" x="298.560084" xlink:href="#m1e538263be" y="286.858165"/>
     <use style="fill:none;stroke:#ff0000;stroke-linejoin:miter;stroke-width:1.5;" x="298.560084" xlink:href="#m1e538263be" y="286.836639"/>
     <use style="fill:none;stroke:#ff0000;stroke-linejoin:miter;stroke-width:1.5;" x="361.113325" xlink:href="#m1e538263be" y="286.836639"/>
    </g>
   </g>
   <g id="line2d_64"/>
   <g id="line2d_65">
    <path clip-path="url(#pb1447fe818)" d="M 224.570108 289.20449 
" style="fill:none;stroke:#ff0000;stroke-linecap:square;stroke-width:1.5;"/>
    <defs>
     <path d="M -12 12 
L 12 -12 
M -12 -12 
L 12 12 
" id="m2eaec10916" style="stroke:#ff0000;stroke-width:3;"/>
    </defs>
    <g clip-path="url(#pb1447fe818)">
     <use style="fill:#ff0000;stroke:#ff0000;stroke-width:3;" x="224.570108" xlink:href="#m2eaec10916" y="289.20449"/>
    </g>
   </g>
   <g id="line2d_66">
    <defs>
     <path d="M 0 1.5 
C 0.397805 1.5 0.77937 1.341951 1.06066 1.06066 
C 1.341951 0.77937 1.5 0.397805 1.5 0 
C 1.5 -0.397805 1.341951 -0.77937 1.06066 -1.06066 
C 0.77937 -1.341951 0.397805 -1.5 0 -1.5 
C -0.397805 -1.5 -0.77937 -1.341951 -1.06066 -1.06066 
C -1.341951 -0.77937 -1.5 -0.397805 -1.5 0 
C -1.5 0.397805 -1.341951 0.77937 -1.06066 1.06066 
C -0.77937 1.341951 -0.397805 1.5 0 1.5 
z
" id="mb6e9494bd2" style="stroke:#bf00bf;"/>
    </defs>
    <g>
     <use style="fill:#bf00bf;stroke:#bf00bf;" x="273.946404" xlink:href="#mb6e9494bd2" y="289.635008"/>
     <use style="fill:#bf00bf;stroke:#bf00bf;" x="273.946404" xlink:href="#mb6e9494bd2" y="289.635008"/>
    </g>
   </g>
   <g id="line2d_67">
    <path d="M 7.2 298.245375 
L 7.2 292.3688 
L 19.585234 292.3688 
L 19.585234 292.218118 
L 26.830132 292.218118 
L 26.830132 292.045911 
L 35.957623 291.959807 
L 35.957623 291.916755 
L 48.342857 291.830652 
L 48.342857 291.766074 
L 65.416046 291.67997 
L 65.416046 291.593867 
L 86.581807 291.486237 
L 86.581807 291.464711 
L 99.688043 291.357081 
L 99.788709 291.31403 
L 121.261236 291.2064 
L 121.261236 291.184874 
L 152.95684 291.077245 
L 152.95684 291.055719 
L 175.183361 290.969615 
L 175.183361 290.926563 
L 186.457092 290.818934 
L 186.457092 290.797408 
L 199.491376 290.689778 
L 199.491376 290.668252 
L 212.178358 290.560623 
L 212.217416 290.452993 
L 221.06837 290.345363 
L 221.06837 290.323837 
L 233.164572 290.216208 
L 233.164572 290.194682 
L 244.22411 290.087052 
L 244.228013 290.044001 
L 249.533267 289.936371 
L 249.533267 289.914845 
L 258.118902 289.807215 
L 258.118902 289.78569 
L 273.003696 289.67806 
L 273.003696 289.656534 
L 361.113325 289.635008 
L 361.113325 289.635008 
" style="fill:none;stroke:#bf00bf;stroke-linecap:square;stroke-width:1.5;"/>
   </g>
   <g id="line2d_68">
    <defs>
     <path d="M -0 8.485281 
L 8.485281 0 
L 0 -8.485281 
L -8.485281 -0 
z
" id="m3510182950" style="stroke:#bf00bf;stroke-linejoin:miter;stroke-width:1.5;"/>
    </defs>
    <g>
     <use style="fill:none;stroke:#bf00bf;stroke-linejoin:miter;stroke-width:1.5;" x="73.554536" xlink:href="#m3510182950" y="291.550815"/>
     <use style="fill:none;stroke:#bf00bf;stroke-linejoin:miter;stroke-width:1.5;" x="166.357411" xlink:href="#m3510182950" y="291.012667"/>
     <use style="fill:none;stroke:#bf00bf;stroke-linejoin:miter;stroke-width:1.5;" x="258.118902" xlink:href="#m3510182950" y="289.78569"/>
     <use style="fill:none;stroke:#bf00bf;stroke-linejoin:miter;stroke-width:1.5;" x="273.946404" xlink:href="#m3510182950" y="289.635008"/>
     <use style="fill:none;stroke:#bf00bf;stroke-linejoin:miter;stroke-width:1.5;" x="273.946404" xlink:href="#m3510182950" y="289.635008"/>
     <use style="fill:none;stroke:#bf00bf;stroke-linejoin:miter;stroke-width:1.5;" x="361.113325" xlink:href="#m3510182950" y="289.635008"/>
    </g>
   </g>
   <g id="line2d_69"/>
   <g id="line2d_70">
    <path clip-path="url(#pb1447fe818)" d="M 212.18599 290.517571 
" style="fill:none;stroke:#bf00bf;stroke-linecap:square;stroke-width:1.5;"/>
    <defs>
     <path d="M -12 12 
L 12 -12 
M -12 -12 
L 12 12 
" id="m2d21523aa1" style="stroke:#bf00bf;stroke-width:3;"/>
    </defs>
    <g clip-path="url(#pb1447fe818)">
     <use style="fill:#bf00bf;stroke:#bf00bf;stroke-width:3;" x="212.18599" xlink:href="#m2d21523aa1" y="290.517571"/>
    </g>
   </g>
   <g id="line2d_71">
    <path d="M 361.113325 289.635008 
L 392.793325 292.97583 
" style="fill:none;stroke:#bf00bf;stroke-linecap:square;stroke-width:1.5;"/>
    <g>
     <use style="fill:none;stroke:#bf00bf;stroke-linejoin:miter;stroke-width:1.5;" x="361.113325" xlink:href="#m3510182950" y="289.635008"/>
     <use style="fill:none;stroke:#bf00bf;stroke-linejoin:miter;stroke-width:1.5;" x="392.793325" xlink:href="#m3510182950" y="292.97583"/>
    </g>
   </g>
   <g id="line2d_72">
    <path d="M 361.113325 286.836639 
L 392.793325 242.388203 
" style="fill:none;stroke:#ff0000;stroke-linecap:square;stroke-width:1.5;"/>
    <g>
     <use style="fill:none;stroke:#ff0000;stroke-linejoin:miter;stroke-width:1.5;" x="361.113325" xlink:href="#m1e538263be" y="286.836639"/>
     <use style="fill:none;stroke:#ff0000;stroke-linejoin:miter;stroke-width:1.5;" x="392.793325" xlink:href="#m1e538263be" y="242.388203"/>
    </g>
   </g>
   <g id="line2d_73">
    <path d="M 361.113325 280.809382 
L 392.793325 191.800575 
" style="fill:none;stroke:#000000;stroke-linecap:square;stroke-width:1.5;"/>
    <g>
     <use style="fill:none;stroke:#000000;stroke-width:1.5;" x="361.113325" xlink:href="#m64ca251b82" y="280.809382"/>
     <use style="fill:none;stroke:#000000;stroke-width:1.5;" x="392.793325" xlink:href="#m64ca251b82" y="191.800575"/>
    </g>
   </g>
   <g id="line2d_74">
    <path d="M 361.113325 265.74124 
L 392.793325 141.212947 
" style="fill:none;stroke:#0000ff;stroke-linecap:square;stroke-width:1.5;"/>
    <g>
     <use style="fill:none;stroke:#0000ff;stroke-linejoin:bevel;stroke-width:1.5;" x="361.113325" xlink:href="#m7034e7cb6a" y="265.74124"/>
     <use style="fill:none;stroke:#0000ff;stroke-linejoin:bevel;stroke-width:1.5;" x="392.793325" xlink:href="#m7034e7cb6a" y="141.212947"/>
    </g>
   </g>
   <g id="line2d_75">
    <path d="M 361.113325 247.44421 
L 392.793325 90.62532 
" style="fill:none;stroke:#008000;stroke-linecap:square;stroke-width:1.5;"/>
    <g>
     <use style="fill:none;stroke:#008000;stroke-linejoin:miter;stroke-width:1.5;" x="361.113325" xlink:href="#mf23b80c0de" y="247.44421"/>
     <use style="fill:none;stroke:#008000;stroke-linejoin:miter;stroke-width:1.5;" x="392.793325" xlink:href="#mf23b80c0de" y="90.62532"/>
    </g>
   </g>
   <g id="line2d_76">
    <path d="M 361.113325 194.275194 
L 392.793325 40.037692 
" style="fill:none;stroke:#00bfbf;stroke-linecap:square;stroke-width:1.5;"/>
    <g>
     <use style="fill:none;stroke:#00bfbf;stroke-width:1.5;" x="361.113325" xlink:href="#md6e8a9d13d" y="194.275194"/>
     <use style="fill:none;stroke:#00bfbf;stroke-width:1.5;" x="392.793325" xlink:href="#md6e8a9d13d" y="40.037692"/>
    </g>
   </g>
   <g id="line2d_77">
    <path d="M 361.113325 298.245375 
L 361.113325 34.768147 
" style="fill:none;stroke:#000000;stroke-linecap:square;stroke-width:1.5;"/>
   </g>
   <g id="patch_3">
    <path d="M 73.113325 298.245375 
L 73.113325 32.133375 
" style="fill:none;stroke:#000000;stroke-linecap:square;stroke-linejoin:miter;stroke-width:0.8;"/>
   </g>
   <g id="patch_4">
    <path d="M 430.233325 298.245375 
L 430.233325 32.133375 
" style="fill:none;stroke:#000000;stroke-linecap:square;stroke-linejoin:miter;stroke-width:0.8;"/>
   </g>
   <g id="patch_5">
    <path d="M 73.113325 298.245375 
L 430.233325 298.245375 
" style="fill:none;stroke:#000000;stroke-linecap:square;stroke-linejoin:miter;stroke-width:0.8;"/>
   </g>
   <g id="patch_6">
    <path d="M 73.113325 32.133375 
L 430.233325 32.133375 
" style="fill:none;stroke:#000000;stroke-linecap:square;stroke-linejoin:miter;stroke-width:0.8;"/>
   </g>
   <g id="text_14">
    <!-- 40-D -->
    <defs>
     <path d="M 19.671875 64.796875 
L 19.671875 8.109375 
L 31.59375 8.109375 
Q 46.6875 8.109375 53.6875 14.9375 
Q 60.6875 21.78125 60.6875 36.53125 
Q 60.6875 51.171875 53.6875 57.984375 
Q 46.6875 64.796875 31.59375 64.796875 
z
M 9.8125 72.90625 
L 30.078125 72.90625 
Q 51.265625 72.90625 61.171875 64.09375 
Q 71.09375 55.28125 71.09375 36.53125 
Q 71.09375 17.671875 61.125 8.828125 
Q 51.171875 0 30.078125 0 
L 9.8125 0 
z
" id="DejaVuSans-44"/>
    </defs>
    <g transform="translate(398.553325 297.114893)scale(0.15 -0.15)">
     <use xlink:href="#DejaVuSans-34"/>
     <use x="63.623047" xlink:href="#DejaVuSans-30"/>
     <use x="127.246094" xlink:href="#DejaVuSans-2d"/>
     <use x="163.330078" xlink:href="#DejaVuSans-44"/>
    </g>
   </g>
   <g id="text_15">
    <!-- 20-D -->
    <g transform="translate(398.553325 246.527265)scale(0.15 -0.15)">
     <use xlink:href="#DejaVuSans-32"/>
     <use x="63.623047" xlink:href="#DejaVuSans-30"/>
     <use x="127.246094" xlink:href="#DejaVuSans-2d"/>
     <use x="163.330078" xlink:href="#DejaVuSans-44"/>
    </g>
   </g>
   <g id="text_16">
    <!-- 10-D -->
    <g transform="translate(398.553325 195.939637)scale(0.15 -0.15)">
     <use xlink:href="#DejaVuSans-31"/>
     <use x="63.623047" xlink:href="#DejaVuSans-30"/>
     <use x="127.246094" xlink:href="#DejaVuSans-2d"/>
     <use x="163.330078" xlink:href="#DejaVuSans-44"/>
    </g>
   </g>
   <g id="text_17">
    <!-- 5-D -->
    <defs>
     <path d="M 10.796875 72.90625 
L 49.515625 72.90625 
L 49.515625 64.59375 
L 19.828125 64.59375 
L 19.828125 46.734375 
Q 21.96875 47.46875 24.109375 47.828125 
Q 26.265625 48.1875 28.421875 48.1875 
Q 40.625 48.1875 47.75 41.5 
Q 54.890625 34.8125 54.890625 23.390625 
Q 54.890625 11.625 47.5625 5.09375 
Q 40.234375 -1.421875 26.90625 -1.421875 
Q 22.3125 -1.421875 17.546875 -0.640625 
Q 12.796875 0.140625 7.71875 1.703125 
L 7.71875 11.625 
Q 12.109375 9.234375 16.796875 8.0625 
Q 21.484375 6.890625 26.703125 6.890625 
Q 35.15625 6.890625 40.078125 11.328125 
Q 45.015625 15.765625 45.015625 23.390625 
Q 45.015625 31 40.078125 35.4375 
Q 35.15625 39.890625 26.703125 39.890625 
Q 22.75 39.890625 18.8125 39.015625 
Q 14.890625 38.140625 10.796875 36.28125 
z
" id="DejaVuSans-35"/>
    </defs>
    <g transform="translate(398.553325 145.35201)scale(0.15 -0.15)">
     <use xlink:href="#DejaVuSans-35"/>
     <use x="63.623047" xlink:href="#DejaVuSans-2d"/>
     <use x="99.707031" xlink:href="#DejaVuSans-44"/>
    </g>
   </g>
   <g id="text_18">
    <!-- 3-D -->
    <defs>
     <path d="M 40.578125 39.3125 
Q 47.65625 37.796875 51.625 33 
Q 55.609375 28.21875 55.609375 21.1875 
Q 55.609375 10.40625 48.1875 4.484375 
Q 40.765625 -1.421875 27.09375 -1.421875 
Q 22.515625 -1.421875 17.65625 -0.515625 
Q 12.796875 0.390625 7.625 2.203125 
L 7.625 11.71875 
Q 11.71875 9.328125 16.59375 8.109375 
Q 21.484375 6.890625 26.8125 6.890625 
Q 36.078125 6.890625 40.9375 10.546875 
Q 45.796875 14.203125 45.796875 21.1875 
Q 45.796875 27.640625 41.28125 31.265625 
Q 36.765625 34.90625 28.71875 34.90625 
L 20.21875 34.90625 
L 20.21875 43.015625 
L 29.109375 43.015625 
Q 36.375 43.015625 40.234375 45.921875 
Q 44.09375 48.828125 44.09375 54.296875 
Q 44.09375 59.90625 40.109375 62.90625 
Q 36.140625 65.921875 28.71875 65.921875 
Q 24.65625 65.921875 20.015625 65.03125 
Q 15.375 64.15625 9.8125 62.3125 
L 9.8125 71.09375 
Q 15.4375 72.65625 20.34375 73.4375 
Q 25.25 74.21875 29.59375 74.21875 
Q 40.828125 74.21875 47.359375 69.109375 
Q 53.90625 64.015625 53.90625 55.328125 
Q 53.90625 49.265625 50.4375 45.09375 
Q 46.96875 40.921875 40.578125 39.3125 
" id="DejaVuSans-33"/>
    </defs>
    <g transform="translate(398.553325 94.764382)scale(0.15 -0.15)">
     <use xlink:href="#DejaVuSans-33"/>
     <use x="63.623047" xlink:href="#DejaVuSans-2d"/>
     <use x="99.707031" xlink:href="#DejaVuSans-44"/>
    </g>
   </g>
   <g id="text_19">
    <!-- 2-D -->
    <g transform="translate(398.553325 44.176754)scale(0.15 -0.15)">
     <use xlink:href="#DejaVuSans-32"/>
     <use x="63.623047" xlink:href="#DejaVuSans-2d"/>
     <use x="99.707031" xlink:href="#DejaVuSans-44"/>
    </g>
   </g>
   <g id="text_20">
    <!-- bbob - f1-f24 -->
    <defs>
     <path d="M 48.6875 27.296875 
Q 48.6875 37.203125 44.609375 42.84375 
Q 40.53125 48.484375 33.40625 48.484375 
Q 26.265625 48.484375 22.1875 42.84375 
Q 18.109375 37.203125 18.109375 27.296875 
Q 18.109375 17.390625 22.1875 11.75 
Q 26.265625 6.109375 33.40625 6.109375 
Q 40.53125 6.109375 44.609375 11.75 
Q 48.6875 17.390625 48.6875 27.296875 
M 18.109375 46.390625 
Q 20.953125 51.265625 25.265625 53.625 
Q 29.59375 56 35.59375 56 
Q 45.5625 56 51.78125 48.09375 
Q 58.015625 40.1875 58.015625 27.296875 
Q 58.015625 14.40625 51.78125 6.484375 
Q 45.5625 -1.421875 35.59375 -1.421875 
Q 29.59375 -1.421875 25.265625 0.953125 
Q 20.953125 3.328125 18.109375 8.203125 
L 18.109375 0 
L 9.078125 0 
L 9.078125 75.984375 
L 18.109375 75.984375 
z
" id="DejaVuSans-62"/>
    </defs>
    <g transform="translate(76.684525 50.114612)scale(0.1666 -0.1666)">
     <use xlink:href="#DejaVuSans-62"/>
     <use x="63.476562" xlink:href="#DejaVuSans-62"/>
     <use x="126.953125" xlink:href="#DejaVuSans-6f"/>
     <use x="188.134766" xlink:href="#DejaVuSans-62"/>
     <use x="251.611328" xlink:href="#DejaVuSans-20"/>
     <use x="283.398438" xlink:href="#DejaVuSans-2d"/>
     <use x="319.482422" xlink:href="#DejaVuSans-20"/>
     <use x="351.269531" xlink:href="#DejaVuSans-66"/>
     <use x="386.474609" xlink:href="#DejaVuSans-31"/>
     <use x="450.097656" xlink:href="#DejaVuSans-2d"/>
     <use x="486.181641" xlink:href="#DejaVuSans-66"/>
     <use x="521.386719" xlink:href="#DejaVuSans-32"/>
     <use x="585.009766" xlink:href="#DejaVuSans-34"/>
    </g>
    <!-- 51 targets in 100..1e-08 -->
    <g transform="translate(76.684525 68.770168)scale(0.1666 -0.1666)">
     <use xlink:href="#DejaVuSans-35"/>
     <use x="63.623047" xlink:href="#DejaVuSans-31"/>
     <use x="127.246094" xlink:href="#DejaVuSans-20"/>
     <use x="159.033203" xlink:href="#DejaVuSans-74"/>
     <use x="198.242188" xlink:href="#DejaVuSans-61"/>
     <use x="259.521484" xlink:href="#DejaVuSans-72"/>
     <use x="300.619141" xlink:href="#DejaVuSans-67"/>
     <use x="364.095703" xlink:href="#DejaVuSans-65"/>
     <use x="425.619141" xlink:href="#DejaVuSans-74"/>
     <use x="464.828125" xlink:href="#DejaVuSans-73"/>
     <use x="516.927734" xlink:href="#DejaVuSans-20"/>
     <use x="548.714844" xlink:href="#DejaVuSans-69"/>
     <use x="576.498047" xlink:href="#DejaVuSans-6e"/>
     <use x="639.876953" xlink:href="#DejaVuSans-20"/>
     <use x="671.664062" xlink:href="#DejaVuSans-31"/>
     <use x="735.287109" xlink:href="#DejaVuSans-30"/>
     <use x="798.910156" xlink:href="#DejaVuSans-30"/>
     <use x="862.533203" xlink:href="#DejaVuSans-2e"/>
     <use x="894.320312" xlink:href="#DejaVuSans-2e"/>
     <use x="926.107422" xlink:href="#DejaVuSans-31"/>
     <use x="989.730469" xlink:href="#DejaVuSans-65"/>
     <use x="1051.253906" xlink:href="#DejaVuSans-2d"/>
     <use x="1087.337891" xlink:href="#DejaVuSans-30"/>
     <use x="1150.960938" xlink:href="#DejaVuSans-38"/>
    </g>
    <!-- 30 instances -->
    <g transform="translate(76.684525 87.425723)scale(0.1666 -0.1666)">
     <use xlink:href="#DejaVuSans-33"/>
     <use x="63.623047" xlink:href="#DejaVuSans-30"/>
     <use x="127.246094" xlink:href="#DejaVuSans-20"/>
     <use x="159.033203" xlink:href="#DejaVuSans-69"/>
     <use x="186.816406" xlink:href="#DejaVuSans-6e"/>
     <use x="250.195312" xlink:href="#DejaVuSans-73"/>
     <use x="302.294922" xlink:href="#DejaVuSans-74"/>
     <use x="341.503906" xlink:href="#DejaVuSans-61"/>
     <use x="402.783203" xlink:href="#DejaVuSans-6e"/>
     <use x="466.162109" xlink:href="#DejaVuSans-63"/>
     <use x="521.142578" xlink:href="#DejaVuSans-65"/>
     <use x="582.666016" xlink:href="#DejaVuSans-73"/>
    </g>
   </g>
   <g id="text_21">
    <!-- v2.1 -->
    <g style="fill:#808080;" transform="translate(240.762388 293.504568)scale(0.1 -0.1)">
     <use xlink:href="#DejaVuSans-76"/>
     <use x="59.179688" xlink:href="#DejaVuSans-32"/>
     <use x="122.802734" xlink:href="#DejaVuSans-2e"/>
     <use x="154.589844" xlink:href="#DejaVuSans-31"/>
    </g>
   </g>
  </g>
 </g>
 <defs>
  <clipPath id="pb1447fe818">
   <rect height="266.112" width="357.12" x="73.113325" y="32.133375"/>
  </clipPath>
 </defs>
</svg>
