<?xml version="1.0" encoding="utf-8" standalone="no"?>
<!DOCTYPE svg PUBLIC "-//W3C//DTD SVG 1.1//EN"
  "http://www.w3.org/Graphics/SVG/1.1/DTD/svg11.dtd">
<!-- Created with matplotlib (http://matplotlib.org/) -->
<svg height="353pt" version="1.1" viewBox="0 0 478 353" width="478pt" xmlns="http://www.w3.org/2000/svg" xmlns:xlink="http://www.w3.org/1999/xlink">
 <defs>
  <style type="text/css">
*{stroke-linecap:butt;stroke-linejoin:round;}
  </style>
 </defs>
 <g id="figure_1">
  <g id="patch_1">
   <path d="M 0 353.22225 
L 478.829063 353.22225 
L 478.829063 0 
L 0 0 
z
" style="fill:#ffffff;"/>
  </g>
  <g id="axes_1">
   <g id="patch_2">
    <path d="M 70.8 298.245375 
L 427.92 298.245375 
L 427.92 32.133375 
L 70.8 32.133375 
z
" style="fill:#ffffff;"/>
   </g>
   <g id="line2d_1">
    <path d="M 42.042377 298.245375 
L 42.042377 290.280786 
L 54.427611 290.280786 
L 54.427611 289.20449 
L 61.672509 289.20449 
L 61.672509 288.558712 
L 66.812845 288.558712 
L 66.812845 287.912935 
L 70.8 287.912935 
L 70.8 287.267157 
L 74.057743 287.267157 
L 74.057743 287.051898 
L 76.812125 287.051898 
L 76.812125 286.836639 
L 79.198079 286.836639 
L 79.198079 286.62138 
L 81.30264 286.62138 
L 81.30264 286.40612 
L 83.185234 286.40612 
L 83.185234 275.643162 
L 84.888247 275.643162 
L 84.888247 274.997384 
L 86.442977 274.997384 
L 86.442977 265.310722 
L 87.873189 265.310722 
L 87.873189 265.095462 
L 90.430132 265.095462 
L 90.430132 263.373389 
L 91.583313 263.373389 
L 91.583313 262.081834 
L 94.653954 262.081834 
L 94.653954 261.866575 
L 95.570468 261.866575 
L 95.570468 261.005538 
L 97.273482 261.005538 
L 97.273482 260.790279 
L 98.067751 260.790279 
L 98.067751 260.57502 
L 98.828211 260.57502 
L 98.828211 259.713983 
L 99.557623 259.713983 
L 99.557623 259.498724 
L 100.258423 259.498724 
L 100.258423 258.852946 
L 102.209609 258.852946 
L 102.209609 258.637687 
L 103.401258 258.637687 
L 103.401258 258.422428 
L 103.968548 258.422428 
L 103.968548 257.99191 
L 104.518379 257.99191 
L 104.518379 257.77665 
L 105.569748 257.77665 
L 105.569748 257.130873 
L 106.073108 257.130873 
L 106.073108 256.915614 
L 106.562676 256.915614 
L 106.562676 256.700355 
L 108.396913 256.700355 
L 108.396913 256.269836 
L 109.658716 256.269836 
L 109.658716 255.839318 
L 110.452985 255.839318 
L 110.452985 255.4088 
L 111.213445 255.4088 
L 111.213445 254.978281 
L 111.581873 254.978281 
L 111.581873 254.763022 
L 112.643657 254.763022 
L 112.643657 254.547763 
L 112.984013 254.547763 
L 112.984013 254.332504 
L 113.318006 254.332504 
L 113.318006 253.686726 
L 113.64587 253.686726 
L 113.64587 253.256208 
L 114.284085 253.256208 
L 114.284085 253.040949 
L 114.594843 253.040949 
L 114.594843 252.395171 
L 115.2006 252.395171 
L 115.2006 252.179912 
L 115.786492 252.179912 
L 115.786492 251.964653 
L 116.072388 251.964653 
L 116.072388 251.749394 
L 116.353782 251.749394 
L 116.353782 251.534134 
L 116.630812 251.534134 
L 116.630812 251.318875 
L 117.697882 251.318875 
L 117.697882 250.673098 
L 118.208435 250.673098 
L 118.208435 250.242579 
L 118.458343 250.242579 
L 118.458343 249.812061 
L 118.704803 249.812061 
L 118.704803 249.166284 
L 118.947911 249.166284 
L 118.947911 248.951024 
L 119.187755 248.951024 
L 119.187755 248.735765 
L 119.657995 248.735765 
L 119.657995 248.520506 
L 119.888555 248.520506 
L 119.888555 248.305247 
L 120.116177 248.305247 
L 120.116177 247.874729 
L 120.340936 247.874729 
L 120.340936 247.659469 
L 120.562903 247.659469 
L 120.562903 247.44421 
L 120.782147 247.44421 
L 120.782147 247.013692 
L 120.998733 247.013692 
L 120.998733 246.152655 
L 121.212725 246.152655 
L 121.212725 245.937396 
L 121.424184 245.937396 
L 121.424184 245.722137 
L 121.839741 245.722137 
L 121.839741 244.645841 
L 122.04395 244.645841 
L 122.04395 243.354286 
L 122.245852 243.354286 
L 122.245852 242.062731 
L 122.445497 242.062731 
L 122.445497 240.555917 
L 122.642937 240.555917 
L 122.642937 239.264362 
L 122.838219 239.264362 
L 122.838219 238.618584 
L 123.03139 238.618584 
L 123.03139 236.896511 
L 123.222494 236.896511 
L 123.222494 236.035474 
L 123.411577 236.035474 
L 123.411577 235.389696 
L 124.148511 235.389696 
L 124.148511 234.959178 
L 124.328091 234.959178 
L 124.328091 234.743919 
L 124.505885 234.743919 
L 124.505885 234.52866 
L 124.856251 234.52866 
L 124.856251 234.313401 
L 125.537024 234.313401 
L 125.537024 233.882882 
L 125.70324 233.882882 
L 125.70324 233.667623 
L 125.867924 233.667623 
L 125.867924 233.452364 
L 126.031105 233.452364 
L 126.031105 233.237105 
L 126.51189 233.237105 
L 126.51189 233.021846 
L 126.669319 233.021846 
L 126.669319 232.806586 
L 127.285522 232.806586 
L 127.285522 232.591327 
L 127.436309 232.591327 
L 127.436309 232.160809 
L 127.585834 232.160809 
L 127.585834 231.94555 
L 128.315246 231.94555 
L 128.315246 231.730291 
L 128.598873 231.730291 
L 128.598873 231.299772 
L 129.288847 231.299772 
L 129.288847 231.084513 
L 129.423702 231.084513 
L 129.423702 230.869254 
L 129.690395 230.869254 
L 129.690395 230.438736 
L 130.212129 230.438736 
L 130.212129 230.223476 
L 130.71906 230.223476 
L 130.71906 230.008217 
L 130.967232 230.008217 
L 130.967232 229.792958 
L 131.090037 229.792958 
L 131.090037 229.36244 
L 131.333145 229.36244 
L 131.333145 229.14718 
L 131.453469 229.14718 
L 131.453469 228.931921 
L 131.809656 228.931921 
L 131.809656 228.716662 
L 132.614144 228.716662 
L 132.614144 228.501403 
L 132.837499 228.501403 
L 132.837499 228.070885 
L 133.058096 228.070885 
L 133.167381 227.425107 
L 133.597959 227.425107 
L 133.597959 227.209848 
L 133.914217 227.209848 
L 134.018404 226.56407 
L 134.731187 226.56407 
L 134.731187 225.918293 
L 135.028171 225.918293 
L 135.126079 225.487775 
L 135.3203 225.487775 
L 135.3203 225.272515 
L 135.512432 225.272515 
L 135.607728 224.841997 
L 135.890607 224.841997 
L 135.890607 224.626738 
L 136.076735 224.626738 
L 136.169077 224.196219 
L 136.260944 224.196219 
L 136.260944 223.98096 
L 136.533745 223.98096 
L 136.623761 223.335183 
L 136.713325 223.335183 
L 136.713325 222.904664 
L 136.891119 222.904664 
L 136.891119 222.689405 
L 137.067161 222.689405 
L 137.067161 222.474146 
L 137.499824 222.474146 
L 137.585114 222.043628 
L 137.669998 222.043628 
L 137.669998 221.828369 
L 137.922258 221.828369 
L 138.005559 221.182591 
L 138.334935 221.182591 
L 138.334935 220.752073 
L 138.658348 220.752073 
L 138.658348 220.536814 
L 138.897124 220.536814 
L 138.976012 220.106295 
L 139.132751 220.106295 
L 139.132751 219.891036 
L 139.288127 219.891036 
L 139.288127 219.675777 
L 139.594883 219.675777 
L 139.670757 219.245259 
L 139.746309 219.245259 
L 139.821543 218.81474 
L 139.896462 218.81474 
L 139.896462 218.168963 
L 140.119352 218.168963 
L 140.119352 217.738444 
L 140.266416 217.738444 
L 140.266416 217.307926 
L 140.70048 217.307926 
L 140.77181 216.877408 
L 140.984107 216.877408 
L 140.984107 216.662148 
L 141.12425 216.662148 
L 141.12425 216.446889 
L 141.263302 216.446889 
L 141.263302 216.23163 
L 141.40128 216.23163 
L 141.40128 216.016371 
L 141.606271 216.016371 
L 141.674081 215.370593 
L 141.94278 215.370593 
L 141.94278 215.155334 
L 142.141685 215.155334 
L 142.141685 214.940075 
L 142.273069 214.940075 
L 142.273069 214.724816 
L 142.468351 214.724816 
L 142.532973 214.079038 
L 142.789151 214.079038 
L 142.789151 213.863779 
L 143.290745 213.863779 
L 143.290745 213.433261 
L 143.536359 213.433261 
L 143.597239 213.002743 
L 143.778642 213.002743 
L 143.838703 212.572224 
L 143.958223 212.572224 
L 143.958223 212.356965 
L 144.076948 212.356965 
L 144.076948 212.141706 
L 144.19489 212.141706 
L 144.25357 211.495928 
L 144.312059 211.495928 
L 144.312059 211.280669 
L 144.773197 211.280669 
L 144.830011 210.850151 
L 144.999378 210.850151 
L 145.055479 210.419632 
L 145.167155 210.419632 
L 145.278138 209.558596 
L 145.333372 209.558596 
L 145.388435 208.4823 
L 145.498056 208.4823 
L 145.607008 207.621263 
L 145.876517 207.621263 
L 145.983193 206.975486 
L 146.089235 206.975486 
L 146.194652 206.329708 
L 146.247129 206.329708 
L 146.247129 205.89919 
L 146.403639 205.89919 
L 146.507222 205.038153 
L 146.55879 205.038153 
L 146.66148 204.607635 
L 146.915654 204.607635 
L 147.01632 203.746598 
L 147.166263 203.746598 
L 147.26553 202.885561 
L 147.36425 202.885561 
L 147.462426 202.455043 
L 147.511313 202.455043 
L 147.511313 202.024525 
L 147.657176 202.024525 
L 147.753761 201.594006 
L 147.801858 201.594006 
L 147.849826 200.302451 
L 147.992963 200.302451 
L 148.087754 199.441415 
L 148.229005 199.441415 
L 148.275841 198.580378 
L 148.415618 198.580378 
L 148.461969 198.14986 
L 148.600303 198.14986 
L 148.691935 197.288823 
L 148.828507 197.288823 
L 148.918979 196.858305 
L 148.964044 196.858305 
L 149.053833 196.212527 
L 149.143174 196.212527 
L 149.187677 195.782009 
L 149.276353 195.782009 
L 149.320526 195.136231 
L 149.452395 195.136231 
L 149.53977 194.275194 
L 149.583298 194.275194 
L 149.670036 193.414158 
L 149.713248 193.414158 
L 149.756356 192.337862 
L 149.84226 192.337862 
L 149.885058 191.692084 
L 149.970348 191.692084 
L 150.055232 190.831048 
L 150.097524 190.831048 
L 150.139715 189.754752 
L 150.2238 189.754752 
L 150.2238 189.539493 
L 150.432299 189.539493 
L 150.515022 189.108974 
L 150.55624 189.108974 
L 150.597364 188.678456 
L 150.922987 188.678456 
L 150.963276 188.247938 
L 151.083601 188.247938 
L 151.083601 188.032678 
L 151.242783 188.032678 
L 151.321846 187.60216 
L 151.361246 187.60216 
L 151.361246 187.386901 
L 151.634644 187.386901 
L 151.634644 187.171642 
L 151.750545 187.171642 
L 151.750545 186.956383 
L 151.94206 186.956383 
L 151.94206 186.741123 
L 152.055991 186.741123 
L 152.055991 186.525864 
L 152.206777 186.525864 
L 152.281696 186.095346 
L 152.430598 186.095346 
L 152.430598 185.880087 
L 152.578269 185.880087 
L 152.688227 185.449568 
L 152.72473 185.449568 
L 152.72473 185.234309 
L 153.085714 185.234309 
L 153.192603 184.803791 
L 153.369341 184.803791 
L 153.474551 184.373272 
L 153.544349 184.373272 
L 153.544349 184.158013 
L 153.717659 184.158013 
L 153.820843 183.512236 
L 154.025442 183.512236 
L 154.025442 183.296977 
L 154.19417 183.296977 
L 154.19417 183.081717 
L 154.328014 183.081717 
L 154.328014 182.866458 
L 154.625547 182.866458 
L 154.625547 182.651199 
L 154.756211 182.651199 
L 154.756211 182.43594 
L 155.395567 182.43594 
L 155.395567 182.220681 
L 155.551895 182.220681 
L 155.645039 181.790162 
L 155.7377 181.790162 
L 155.829883 181.359644 
L 155.921593 181.359644 
L 155.921593 181.144385 
L 156.313652 181.144385 
L 156.313652 180.713867 
L 156.491741 180.713867 
L 156.550712 180.283348 
L 156.668072 180.283348 
L 156.697293 179.85283 
L 156.784667 179.85283 
L 156.871617 179.207052 
L 156.958146 179.207052 
L 156.958146 178.991793 
L 157.101435 178.991793 
L 157.101435 178.776534 
L 157.215245 178.776534 
L 157.30013 178.346016 
L 157.412685 178.346016 
L 157.412685 178.130756 
L 157.5802 178.130756 
L 157.663372 177.700238 
L 157.801138 177.700238 
L 157.91059 177.054461 
L 158.448018 177.054461 
L 158.448018 176.839201 
L 158.788873 176.839201 
L 158.892456 176.408683 
L 159.250342 176.408683 
L 159.250342 176.193424 
L 159.376441 176.193424 
L 159.476683 175.547646 
L 159.501656 175.547646 
L 159.501656 175.332387 
L 160.23506 175.332387 
L 160.23506 175.117128 
L 160.520196 175.117128 
L 160.520196 174.901869 
L 160.637672 174.901869 
L 160.637672 174.68661 
L 161.100004 174.68661 
L 161.100004 174.471351 
L 161.595122 174.471351 
L 161.683688 174.040832 
L 162.098482 174.040832 
L 162.120049 173.610314 
L 162.227494 173.610314 
L 162.334298 172.964536 
L 162.440466 172.964536 
L 162.524949 172.318759 
L 162.58805 172.318759 
L 162.629994 171.88824 
L 162.734425 171.88824 
L 162.734425 171.672981 
L 162.858942 171.672981 
L 162.858942 171.457722 
L 163.003124 171.457722 
L 163.105403 170.811945 
L 163.186807 170.811945 
L 163.288043 170.166167 
L 163.368621 170.166167 
L 163.368621 169.950908 
L 163.48881 169.950908 
L 163.56849 169.30513 
L 163.628017 169.30513 
L 163.628017 169.089871 
L 163.844603 169.089871 
L 163.844603 168.874612 
L 164.019878 168.874612 
L 164.058595 168.444094 
L 164.174247 168.444094 
L 164.174247 168.013575 
L 164.327294 168.013575 
L 164.38435 167.583057 
L 164.497919 167.583057 
L 164.497919 167.367798 
L 164.704272 167.367798 
L 164.797287 166.72202 
L 164.945111 166.72202 
L 165.055182 166.291502 
L 165.073461 166.291502 
L 165.164579 165.645724 
L 165.23714 165.645724 
L 165.23714 165.430465 
L 165.435176 165.430465 
L 165.435176 165.215206 
L 165.560066 165.215206 
L 165.631042 164.13891 
L 165.719367 164.13891 
L 165.789714 163.708392 
L 165.859785 163.708392 
L 165.94699 163.062614 
L 165.999108 163.062614 
L 166.016448 162.632096 
L 166.120132 162.632096 
L 166.171749 161.771059 
L 166.257447 161.771059 
L 166.291612 160.910023 
L 166.393716 160.910023 
L 166.478359 160.264245 
L 166.512104 160.264245 
L 166.596189 159.403208 
L 166.646451 159.403208 
L 166.729908 158.542172 
L 166.763182 158.542172 
L 166.846097 157.465876 
L 166.961535 157.465876 
L 166.961535 157.250617 
L 167.222627 157.250617 
L 167.222627 157.035358 
L 167.623094 157.035358 
L 167.686344 156.174321 
L 167.999279 156.174321 
L 168.076664 155.743802 
L 168.122934 155.743802 
L 168.215117 155.313284 
L 168.291575 155.313284 
L 168.382894 154.667507 
L 168.42838 154.667507 
L 168.42838 154.452247 
L 168.609171 154.452247 
L 168.669031 154.021729 
L 168.832619 154.021729 
L 168.832619 153.591211 
L 168.994723 153.591211 
L 169.082527 153.160692 
L 169.256851 153.160692 
L 169.271302 152.730174 
L 169.386487 152.730174 
L 169.386487 152.514915 
L 169.685364 152.514915 
L 169.769847 151.869137 
L 169.951534 151.869137 
L 170.020925 151.22336 
L 170.131393 151.22336 
L 170.20009 150.792842 
L 170.295825 150.792842 
L 170.363894 150.362323 
L 170.418163 150.362323 
L 170.418163 150.147064 
L 170.593408 150.147064 
L 170.606817 149.716546 
L 170.859704 149.716546 
L 170.886116 149.070768 
L 170.978254 149.070768 
L 171.056853 148.64025 
L 171.109061 148.64025 
L 171.109061 148.424991 
L 171.354986 148.424991 
L 171.406331 147.994472 
L 171.546774 147.994472 
L 171.635576 147.348695 
L 171.723938 147.348695 
L 171.786788 146.918176 
L 171.849417 146.918176 
L 171.899363 146.487658 
L 171.986434 146.487658 
L 172.085426 145.626621 
L 172.122408 145.626621 
L 172.122408 145.411362 
L 172.245129 145.411362 
L 172.318359 144.980844 
L 172.415534 144.980844 
L 172.512184 144.335066 
L 172.536265 144.335066 
L 172.64423 143.904548 
L 172.775307 143.904548 
L 172.810889 143.25877 
L 172.987744 143.25877 
L 172.999473 142.828252 
L 173.151245 142.828252 
L 173.232437 141.967215 
L 173.359285 141.967215 
L 173.450975 141.536697 
L 173.473824 141.536697 
L 173.576286 136.585736 
L 173.689447 136.585736 
L 173.74576 135.724699 
L 173.835494 135.724699 
L 173.835494 135.50944 
L 173.94703 135.50944 
L 174.035761 134.433144 
L 174.113041 134.433144 
L 174.211911 133.572108 
L 174.233809 133.572108 
L 174.342894 130.127961 
L 174.364631 130.127961 
L 174.472923 124.531222 
L 174.483716 124.531222 
L 174.494503 123.454927 
L 174.655526 123.454927 
L 174.762075 121.948112 
L 174.772695 121.948112 
L 174.867992 120.441298 
L 174.8891 120.441298 
L 174.994269 118.934484 
L 175.004752 118.934484 
L 175.098822 117.858188 
L 175.119659 117.858188 
L 175.223484 116.566633 
L 175.254514 116.566633 
L 175.35756 114.6293 
L 175.367832 114.6293 
L 175.449796 113.768264 
L 175.480436 113.768264 
L 175.561886 112.26145 
L 175.592334 112.26145 
L 175.683369 111.185154 
L 175.733745 111.185154 
L 175.844073 110.754635 
L 175.963659 110.754635 
L 176.072581 110.108858 
L 176.141551 110.108858 
L 176.190653 109.678339 
L 176.327424 109.678339 
L 176.327424 109.247821 
L 176.443829 109.247821 
L 176.521014 107.956266 
L 176.712528 107.956266 
L 176.807521 107.095229 
L 176.873717 107.095229 
L 176.977246 104.512119 
L 176.986628 104.512119 
L 177.024107 104.081601 
L 177.367111 104.081601 
L 177.367111 103.866342 
L 177.604261 103.866342 
L 177.604261 103.651083 
L 177.918612 103.651083 
L 177.918612 103.435823 
L 178.245019 103.435823 
L 178.349614 103.005305 
L 178.693904 103.005305 
L 178.79591 102.574787 
L 178.821321 102.574787 
L 178.821321 102.359528 
L 179.156725 102.359528 
L 179.156725 102.144268 
L 179.575432 102.144268 
L 179.575432 101.929009 
L 179.968683 101.929009 
L 180.000406 101.498491 
L 180.236552 101.498491 
L 180.236552 101.283232 
L 180.508168 101.283232 
L 180.508168 101.067973 
L 180.896704 101.067973 
L 180.896704 100.852713 
L 181.37262 100.852713 
L 181.37262 100.637454 
L 181.569657 100.637454 
L 181.670975 100.206936 
L 182.965222 100.206936 
L 182.965222 99.991677 
L 184.253397 99.991677 
L 184.253397 99.776418 
L 184.660912 99.776418 
L 184.660912 99.561158 
L 185.559714 99.561158 
L 185.559714 99.345899 
L 186.503782 99.345899 
L 186.503782 99.13064 
L 186.744433 99.13064 
L 186.744433 98.915381 
L 187.216226 98.915381 
L 187.216226 98.700122 
L 188.378665 98.700122 
L 188.378665 98.484862 
L 188.698054 98.484862 
L 188.698054 98.269603 
L 189.112043 98.269603 
L 189.112043 98.054344 
L 189.460746 98.054344 
L 189.460746 97.839085 
L 189.88499 97.839085 
L 189.88499 97.623826 
L 190.097897 97.623826 
L 190.097897 97.408567 
L 190.348305 97.408567 
L 190.352745 96.978048 
L 191.198089 96.978048 
L 191.198089 96.762789 
L 191.620701 96.762789 
L 191.620701 96.54753 
L 192.413352 96.54753 
L 192.413352 96.332271 
L 193.134376 96.332271 
L 193.134376 96.117012 
L 193.484263 96.117012 
L 193.484263 95.901752 
L 194.034546 95.901752 
L 194.034546 95.686493 
L 194.819074 95.686493 
L 194.819074 95.471234 
L 195.373934 95.471234 
L 195.373934 95.255975 
L 196.396551 95.255975 
L 196.396551 95.040716 
L 196.557256 95.040716 
L 196.557256 94.825457 
L 197.581358 94.825457 
L 197.581358 94.610197 
L 198.095247 94.610197 
L 198.095247 94.394938 
L 198.502167 94.394938 
L 198.502167 94.179679 
L 199.717488 94.179679 
L 199.717488 93.96442 
L 199.944711 93.96442 
L 199.944711 93.749161 
L 200.791147 93.749161 
L 200.791147 93.533901 
L 200.946405 93.533901 
L 201.03208 93.103383 
L 201.194949 93.103383 
L 201.194949 92.888124 
L 201.315534 92.888124 
L 201.315534 92.672865 
L 201.549544 92.672865 
L 201.549544 92.457606 
L 201.83431 92.457606 
L 201.83431 92.242346 
L 202.003942 92.242346 
L 202.003942 92.027087 
L 202.126098 92.027087 
L 202.126098 91.811828 
L 202.290719 91.811828 
L 202.290719 91.596569 
L 202.478627 91.596569 
L 202.478627 91.38131 
L 202.693531 91.38131 
L 202.740198 90.950791 
L 202.813288 90.950791 
L 202.813288 90.735532 
L 202.943222 90.735532 
L 202.995808 90.305014 
L 203.056963 90.305014 
L 203.056963 90.089755 
L 203.187308 90.089755 
L 203.187308 89.874496 
L 203.353204 89.874496 
L 203.353204 89.659236 
L 203.606596 89.659236 
L 203.606596 89.443977 
L 203.804245 89.443977 
L 203.804245 89.228718 
L 204.063734 89.228718 
L 204.063734 89.013459 
L 204.207419 89.013459 
L 204.207419 88.7982 
L 204.766912 88.7982 
L 204.766912 88.582941 
L 204.95612 88.582941 
L 204.95612 88.367681 
L 205.278637 88.367681 
L 205.336307 87.937163 
L 205.999421 87.937163 
L 205.999421 87.721904 
L 206.150425 87.721904 
L 206.150425 87.506645 
L 206.902708 87.506645 
L 207.011382 86.860867 
L 207.081145 86.860867 
L 207.183552 86.21509 
L 207.276768 86.21509 
L 207.292257 85.784571 
L 207.398594 85.784571 
L 207.415687 85.354053 
L 207.577252 85.354053 
L 207.577252 85.138794 
L 207.775919 85.138794 
L 207.775919 84.923535 
L 207.947545 84.923535 
L 207.947545 84.708275 
L 208.161833 84.708275 
L 208.161833 84.493016 
L 208.315194 84.493016 
L 208.315194 84.277757 
L 208.48496 84.277757 
L 208.595649 83.847239 
L 208.627605 83.847239 
L 208.689755 83.41672 
L 208.739002 83.41672 
L 208.739002 83.201461 
L 208.895374 83.201461 
L 208.980094 82.770943 
L 209.019181 82.770943 
L 209.120408 82.125165 
L 209.199433 82.125165 
L 209.27811 81.694647 
L 209.333439 81.694647 
L 209.40236 81.264129 
L 209.471016 81.264129 
L 209.557603 80.83361 
L 209.586373 80.83361 
L 209.660355 80.187833 
L 209.73103 80.187833 
L 209.8089 79.542055 
L 209.870059 79.542055 
L 209.962148 78.896278 
L 210.012447 78.896278 
L 210.121435 78.035241 
L 210.128775 78.035241 
L 210.191777 77.389464 
L 210.247268 77.389464 
L 210.273493 76.958945 
L 210.430041 76.958945 
L 210.430041 76.743686 
L 210.556592 76.743686 
L 210.653772 76.097908 
L 210.746173 76.097908 
L 210.849379 75.66739 
L 210.936568 75.66739 
L 211.028917 75.236872 
L 211.310006 75.236872 
L 211.310006 75.021613 
L 212.940935 75.021613 
L 212.940935 74.806353 
L 218.056174 74.806353 
L 218.056174 74.591094 
L 218.188479 74.591094 
L 218.29009 74.160576 
L 218.357819 74.160576 
L 218.426216 73.730058 
L 218.510886 73.730058 
L 218.600639 73.299539 
L 218.680851 73.299539 
L 218.767946 72.653762 
L 218.872623 72.653762 
L 218.974007 72.007984 
L 219.00172 72.007984 
L 219.06414 71.577466 
L 219.130777 71.577466 
L 219.2007 71.146948 
L 219.259789 71.146948 
L 219.368634 70.50117 
L 219.393995 70.50117 
L 219.487255 70.070652 
L 219.565324 70.070652 
L 219.67319 69.424874 
L 219.712721 69.424874 
L 219.776132 68.994356 
L 219.854654 68.994356 
L 219.926897 68.348578 
L 219.996314 68.348578 
L 220.072194 67.702801 
L 220.13099 67.702801 
L 220.173706 67.272282 
L 220.255502 67.272282 
L 220.338582 66.626505 
L 220.407247 66.626505 
L 220.466599 66.195987 
L 224.007786 66.195987 
L 224.007786 65.980727 
L 224.267787 65.980727 
L 224.36002 65.550209 
L 224.762479 65.550209 
L 224.762479 65.33495 
L 224.94083 65.33495 
L 224.94083 65.119691 
L 225.149109 65.119691 
L 225.149109 64.904431 
L 225.329303 64.904431 
L 225.418724 64.473913 
L 226.007715 64.473913 
L 226.007715 64.258654 
L 227.105512 64.258654 
L 227.202868 63.828136 
L 227.328306 63.828136 
L 227.399352 63.397617 
L 227.465112 63.397617 
L 227.537279 62.967099 
L 227.615777 62.967099 
L 227.693931 62.536581 
L 227.782677 62.536581 
L 227.842142 61.890803 
L 227.912806 61.890803 
L 227.963187 61.460285 
L 228.033913 61.460285 
L 228.120991 61.029766 
L 228.156881 61.029766 
L 228.214582 60.599248 
L 228.299194 60.599248 
L 228.355909 60.16873 
L 228.426682 60.16873 
L 228.47879 59.738211 
L 228.549079 59.738211 
L 228.614399 59.307693 
L 228.667004 59.307693 
L 228.75675 58.877175 
L 228.820801 58.877175 
L 228.874345 58.446656 
L 228.940538 58.446656 
L 228.940538 58.231397 
L 230.519877 58.231397 
L 230.519877 58.016138 
L 231.864664 58.016138 
L 231.864664 57.800879 
L 233.053143 57.800879 
L 233.053143 57.58562 
L 234.777005 57.58562 
L 234.777005 57.37036 
L 235.602217 57.37036 
L 235.602217 57.155101 
L 235.851645 57.155101 
L 235.851645 56.939842 
L 236.27586 56.939842 
L 236.27586 56.724583 
L 236.521483 56.724583 
L 236.521483 56.509324 
L 236.735655 56.509324 
L 236.735655 56.294065 
L 236.885999 56.294065 
L 236.985857 53.926214 
L 237.029227 53.926214 
L 237.14027 52.634659 
L 237.144477 52.634659 
L 237.205857 50.482067 
L 247.102473 50.482067 
L 247.102473 50.266808 
L 248.60427 50.266808 
L 248.60427 50.051549 
L 250.996081 50.051549 
L 251.105597 48.544734 
L 251.112115 48.544734 
L 251.213416 46.392143 
L 251.225781 46.392143 
L 251.33361 44.239551 
L 251.344723 44.239551 
L 251.368387 43.593773 
L 261.55159 43.593773 
L 261.55159 43.378514 
L 269.612605 43.378514 
L 269.621857 42.947996 
L 277.066266 42.947996 
L 277.066543 42.517478 
L 321.948845 42.517478 
L 321.997811 41.8717 
L 325.270571 41.8717 
L 325.270571 41.656441 
L 329.26197 41.656441 
L 329.35511 38.858072 
L 334.495764 38.858072 
L 334.503349 34.768147 
L 358.8 34.768147 
L 358.8 34.768147 
" style="fill:none;stroke:#f5deb3;stroke-linecap:square;stroke-width:6;"/>
   </g>
   <g id="line2d_2"/>
   <g id="line2d_3">
    <path d="M 358.8 34.768147 
L 390.48 40.037692 
" style="fill:none;stroke:#f5deb3;stroke-linecap:square;stroke-width:6;"/>
    <defs>
     <path d="M -0 7.778175 
L 7.778175 0 
L 0 -7.778175 
L -7.778175 -0 
z
" id="ma5af75df86" style="stroke:#f5deb3;stroke-linejoin:miter;stroke-width:1.5;"/>
    </defs>
    <g>
     <use style="fill:#f5deb3;stroke:#f5deb3;stroke-linejoin:miter;stroke-width:1.5;" x="358.8" xlink:href="#ma5af75df86" y="34.768147"/>
     <use style="fill:#f5deb3;stroke:#f5deb3;stroke-linejoin:miter;stroke-width:1.5;" x="390.48" xlink:href="#ma5af75df86" y="40.037692"/>
    </g>
   </g>
   <g id="matplotlib.axis_1">
    <g id="xtick_1">
     <g id="line2d_4">
      <path clip-path="url(#pd1f5d07264)" d="M 70.8 298.245375 
L 70.8 32.133375 
" style="fill:none;stroke:#b0b0b0;stroke-linecap:square;stroke-width:0.8;"/>
     </g>
     <g id="line2d_5">
      <defs>
       <path d="M 0 0 
L 0 3.5 
" id="m90205ce85c" style="stroke:#000000;stroke-width:0.8;"/>
      </defs>
      <g>
       <use style="stroke:#000000;stroke-width:0.8;" x="70.8" xlink:href="#m90205ce85c" y="298.245375"/>
      </g>
     </g>
     <g id="text_1">
      <!-- 0 -->
      <defs>
       <path d="M 31.78125 66.40625 
Q 24.171875 66.40625 20.328125 58.90625 
Q 16.5 51.421875 16.5 36.375 
Q 16.5 21.390625 20.328125 13.890625 
Q 24.171875 6.390625 31.78125 6.390625 
Q 39.453125 6.390625 43.28125 13.890625 
Q 47.125 21.390625 47.125 36.375 
Q 47.125 51.421875 43.28125 58.90625 
Q 39.453125 66.40625 31.78125 66.40625 
M 31.78125 74.21875 
Q 44.046875 74.21875 50.515625 64.515625 
Q 56.984375 54.828125 56.984375 36.375 
Q 56.984375 17.96875 50.515625 8.265625 
Q 44.046875 -1.421875 31.78125 -1.421875 
Q 19.53125 -1.421875 13.0625 8.265625 
Q 6.59375 17.96875 6.59375 36.375 
Q 6.59375 54.828125 13.0625 64.515625 
Q 19.53125 74.21875 31.78125 74.21875 
" id="DejaVuSans-30"/>
      </defs>
      <g transform="translate(64.4375 320.44225)scale(0.2 -0.2)">
       <use xlink:href="#DejaVuSans-30"/>
      </g>
     </g>
    </g>
    <g id="xtick_2">
     <g id="line2d_6">
      <path clip-path="url(#pd1f5d07264)" d="M 153.085714 298.245375 
L 153.085714 32.133375 
" style="fill:none;stroke:#b0b0b0;stroke-linecap:square;stroke-width:0.8;"/>
     </g>
     <g id="line2d_7">
      <g>
       <use style="stroke:#000000;stroke-width:0.8;" x="153.085714" xlink:href="#m90205ce85c" y="298.245375"/>
      </g>
     </g>
     <g id="text_2">
      <!-- 2 -->
      <defs>
       <path d="M 19.1875 8.296875 
L 53.609375 8.296875 
L 53.609375 0 
L 7.328125 0 
L 7.328125 8.296875 
Q 12.9375 14.109375 22.625 23.890625 
Q 32.328125 33.6875 34.8125 36.53125 
Q 39.546875 41.84375 41.421875 45.53125 
Q 43.3125 49.21875 43.3125 52.78125 
Q 43.3125 58.59375 39.234375 62.25 
Q 35.15625 65.921875 28.609375 65.921875 
Q 23.96875 65.921875 18.8125 64.3125 
Q 13.671875 62.703125 7.8125 59.421875 
L 7.8125 69.390625 
Q 13.765625 71.78125 18.9375 73 
Q 24.125 74.21875 28.421875 74.21875 
Q 39.75 74.21875 46.484375 68.546875 
Q 53.21875 62.890625 53.21875 53.421875 
Q 53.21875 48.921875 51.53125 44.890625 
Q 49.859375 40.875 45.40625 35.40625 
Q 44.1875 33.984375 37.640625 27.21875 
Q 31.109375 20.453125 19.1875 8.296875 
" id="DejaVuSans-32"/>
      </defs>
      <g transform="translate(146.723214 320.44225)scale(0.2 -0.2)">
       <use xlink:href="#DejaVuSans-32"/>
      </g>
     </g>
    </g>
    <g id="xtick_3">
     <g id="line2d_8">
      <path clip-path="url(#pd1f5d07264)" d="M 235.371429 298.245375 
L 235.371429 32.133375 
" style="fill:none;stroke:#b0b0b0;stroke-linecap:square;stroke-width:0.8;"/>
     </g>
     <g id="line2d_9">
      <g>
       <use style="stroke:#000000;stroke-width:0.8;" x="235.371429" xlink:href="#m90205ce85c" y="298.245375"/>
      </g>
     </g>
     <g id="text_3">
      <!-- 4 -->
      <defs>
       <path d="M 37.796875 64.3125 
L 12.890625 25.390625 
L 37.796875 25.390625 
z
M 35.203125 72.90625 
L 47.609375 72.90625 
L 47.609375 25.390625 
L 58.015625 25.390625 
L 58.015625 17.1875 
L 47.609375 17.1875 
L 47.609375 0 
L 37.796875 0 
L 37.796875 17.1875 
L 4.890625 17.1875 
L 4.890625 26.703125 
z
" id="DejaVuSans-34"/>
      </defs>
      <g transform="translate(229.008929 320.44225)scale(0.2 -0.2)">
       <use xlink:href="#DejaVuSans-34"/>
      </g>
     </g>
    </g>
    <g id="xtick_4">
     <g id="line2d_10">
      <path clip-path="url(#pd1f5d07264)" d="M 317.657143 298.245375 
L 317.657143 32.133375 
" style="fill:none;stroke:#b0b0b0;stroke-linecap:square;stroke-width:0.8;"/>
     </g>
     <g id="line2d_11">
      <g>
       <use style="stroke:#000000;stroke-width:0.8;" x="317.657143" xlink:href="#m90205ce85c" y="298.245375"/>
      </g>
     </g>
     <g id="text_4">
      <!-- 6 -->
      <defs>
       <path d="M 33.015625 40.375 
Q 26.375 40.375 22.484375 35.828125 
Q 18.609375 31.296875 18.609375 23.390625 
Q 18.609375 15.53125 22.484375 10.953125 
Q 26.375 6.390625 33.015625 6.390625 
Q 39.65625 6.390625 43.53125 10.953125 
Q 47.40625 15.53125 47.40625 23.390625 
Q 47.40625 31.296875 43.53125 35.828125 
Q 39.65625 40.375 33.015625 40.375 
M 52.59375 71.296875 
L 52.59375 62.3125 
Q 48.875 64.0625 45.09375 64.984375 
Q 41.3125 65.921875 37.59375 65.921875 
Q 27.828125 65.921875 22.671875 59.328125 
Q 17.53125 52.734375 16.796875 39.40625 
Q 19.671875 43.65625 24.015625 45.921875 
Q 28.375 48.1875 33.59375 48.1875 
Q 44.578125 48.1875 50.953125 41.515625 
Q 57.328125 34.859375 57.328125 23.390625 
Q 57.328125 12.15625 50.6875 5.359375 
Q 44.046875 -1.421875 33.015625 -1.421875 
Q 20.359375 -1.421875 13.671875 8.265625 
Q 6.984375 17.96875 6.984375 36.375 
Q 6.984375 53.65625 15.1875 63.9375 
Q 23.390625 74.21875 37.203125 74.21875 
Q 40.921875 74.21875 44.703125 73.484375 
Q 48.484375 72.75 52.59375 71.296875 
" id="DejaVuSans-36"/>
      </defs>
      <g transform="translate(311.294643 320.44225)scale(0.2 -0.2)">
       <use xlink:href="#DejaVuSans-36"/>
      </g>
     </g>
    </g>
    <g id="xtick_5">
     <g id="line2d_12">
      <path clip-path="url(#pd1f5d07264)" d="M 399.942857 298.245375 
L 399.942857 32.133375 
" style="fill:none;stroke:#b0b0b0;stroke-linecap:square;stroke-width:0.8;"/>
     </g>
     <g id="line2d_13">
      <g>
       <use style="stroke:#000000;stroke-width:0.8;" x="399.942857" xlink:href="#m90205ce85c" y="298.245375"/>
      </g>
     </g>
     <g id="text_5">
      <!-- 8 -->
      <defs>
       <path d="M 31.78125 34.625 
Q 24.75 34.625 20.71875 30.859375 
Q 16.703125 27.09375 16.703125 20.515625 
Q 16.703125 13.921875 20.71875 10.15625 
Q 24.75 6.390625 31.78125 6.390625 
Q 38.8125 6.390625 42.859375 10.171875 
Q 46.921875 13.96875 46.921875 20.515625 
Q 46.921875 27.09375 42.890625 30.859375 
Q 38.875 34.625 31.78125 34.625 
M 21.921875 38.8125 
Q 15.578125 40.375 12.03125 44.71875 
Q 8.5 49.078125 8.5 55.328125 
Q 8.5 64.0625 14.71875 69.140625 
Q 20.953125 74.21875 31.78125 74.21875 
Q 42.671875 74.21875 48.875 69.140625 
Q 55.078125 64.0625 55.078125 55.328125 
Q 55.078125 49.078125 51.53125 44.71875 
Q 48 40.375 41.703125 38.8125 
Q 48.828125 37.15625 52.796875 32.3125 
Q 56.78125 27.484375 56.78125 20.515625 
Q 56.78125 9.90625 50.3125 4.234375 
Q 43.84375 -1.421875 31.78125 -1.421875 
Q 19.734375 -1.421875 13.25 4.234375 
Q 6.78125 9.90625 6.78125 20.515625 
Q 6.78125 27.484375 10.78125 32.3125 
Q 14.796875 37.15625 21.921875 38.8125 
M 18.3125 54.390625 
Q 18.3125 48.734375 21.84375 45.5625 
Q 25.390625 42.390625 31.78125 42.390625 
Q 38.140625 42.390625 41.71875 45.5625 
Q 45.3125 48.734375 45.3125 54.390625 
Q 45.3125 60.0625 41.71875 63.234375 
Q 38.140625 66.40625 31.78125 66.40625 
Q 25.390625 66.40625 21.84375 63.234375 
Q 18.3125 60.0625 18.3125 54.390625 
" id="DejaVuSans-38"/>
      </defs>
      <g transform="translate(393.580357 320.44225)scale(0.2 -0.2)">
       <use xlink:href="#DejaVuSans-38"/>
      </g>
     </g>
    </g>
    <g id="xtick_6">
     <g id="line2d_14">
      <defs>
       <path d="M 0 0 
L 0 2 
" id="m6026832503" style="stroke:#000000;stroke-width:0.6;"/>
      </defs>
      <g>
       <use style="stroke:#000000;stroke-width:0.6;" x="83.185234" xlink:href="#m6026832503" y="298.245375"/>
      </g>
     </g>
    </g>
    <g id="xtick_7">
     <g id="line2d_15">
      <g>
       <use style="stroke:#000000;stroke-width:0.6;" x="95.570468" xlink:href="#m6026832503" y="298.245375"/>
      </g>
     </g>
    </g>
    <g id="xtick_8">
     <g id="line2d_16">
      <g>
       <use style="stroke:#000000;stroke-width:0.6;" x="102.815366" xlink:href="#m6026832503" y="298.245375"/>
      </g>
     </g>
    </g>
    <g id="xtick_9">
     <g id="line2d_17">
      <g>
       <use style="stroke:#000000;stroke-width:0.6;" x="107.955702" xlink:href="#m6026832503" y="298.245375"/>
      </g>
     </g>
    </g>
    <g id="xtick_10">
     <g id="line2d_18">
      <g>
       <use style="stroke:#000000;stroke-width:0.6;" x="165.470948" xlink:href="#m6026832503" y="298.245375"/>
      </g>
     </g>
    </g>
    <g id="xtick_11">
     <g id="line2d_19">
      <g>
       <use style="stroke:#000000;stroke-width:0.6;" x="177.856183" xlink:href="#m6026832503" y="298.245375"/>
      </g>
     </g>
    </g>
    <g id="xtick_12">
     <g id="line2d_20">
      <g>
       <use style="stroke:#000000;stroke-width:0.6;" x="185.10108" xlink:href="#m6026832503" y="298.245375"/>
      </g>
     </g>
    </g>
    <g id="xtick_13">
     <g id="line2d_21">
      <g>
       <use style="stroke:#000000;stroke-width:0.6;" x="190.241417" xlink:href="#m6026832503" y="298.245375"/>
      </g>
     </g>
    </g>
    <g id="xtick_14">
     <g id="line2d_22">
      <g>
       <use style="stroke:#000000;stroke-width:0.6;" x="247.756663" xlink:href="#m6026832503" y="298.245375"/>
      </g>
     </g>
    </g>
    <g id="xtick_15">
     <g id="line2d_23">
      <g>
       <use style="stroke:#000000;stroke-width:0.6;" x="260.141897" xlink:href="#m6026832503" y="298.245375"/>
      </g>
     </g>
    </g>
    <g id="xtick_16">
     <g id="line2d_24">
      <g>
       <use style="stroke:#000000;stroke-width:0.6;" x="267.386794" xlink:href="#m6026832503" y="298.245375"/>
      </g>
     </g>
    </g>
    <g id="xtick_17">
     <g id="line2d_25">
      <g>
       <use style="stroke:#000000;stroke-width:0.6;" x="272.527131" xlink:href="#m6026832503" y="298.245375"/>
      </g>
     </g>
    </g>
    <g id="xtick_18">
     <g id="line2d_26">
      <g>
       <use style="stroke:#000000;stroke-width:0.6;" x="330.042377" xlink:href="#m6026832503" y="298.245375"/>
      </g>
     </g>
    </g>
    <g id="xtick_19">
     <g id="line2d_27">
      <g>
       <use style="stroke:#000000;stroke-width:0.6;" x="342.427611" xlink:href="#m6026832503" y="298.245375"/>
      </g>
     </g>
    </g>
    <g id="xtick_20">
     <g id="line2d_28">
      <g>
       <use style="stroke:#000000;stroke-width:0.6;" x="349.672509" xlink:href="#m6026832503" y="298.245375"/>
      </g>
     </g>
    </g>
    <g id="xtick_21">
     <g id="line2d_29">
      <g>
       <use style="stroke:#000000;stroke-width:0.6;" x="354.812845" xlink:href="#m6026832503" y="298.245375"/>
      </g>
     </g>
    </g>
    <g id="xtick_22">
     <g id="line2d_30">
      <g>
       <use style="stroke:#000000;stroke-width:0.6;" x="412.328091" xlink:href="#m6026832503" y="298.245375"/>
      </g>
     </g>
    </g>
    <g id="xtick_23">
     <g id="line2d_31">
      <g>
       <use style="stroke:#000000;stroke-width:0.6;" x="424.713325" xlink:href="#m6026832503" y="298.245375"/>
      </g>
     </g>
    </g>
    <g id="text_6">
     <!-- log10 of (# f-evals / dimension) -->
     <defs>
      <path d="M 9.421875 75.984375 
L 18.40625 75.984375 
L 18.40625 0 
L 9.421875 0 
z
" id="DejaVuSans-6c"/>
      <path d="M 30.609375 48.390625 
Q 23.390625 48.390625 19.1875 42.75 
Q 14.984375 37.109375 14.984375 27.296875 
Q 14.984375 17.484375 19.15625 11.84375 
Q 23.34375 6.203125 30.609375 6.203125 
Q 37.796875 6.203125 41.984375 11.859375 
Q 46.1875 17.53125 46.1875 27.296875 
Q 46.1875 37.015625 41.984375 42.703125 
Q 37.796875 48.390625 30.609375 48.390625 
M 30.609375 56 
Q 42.328125 56 49.015625 48.375 
Q 55.71875 40.765625 55.71875 27.296875 
Q 55.71875 13.875 49.015625 6.21875 
Q 42.328125 -1.421875 30.609375 -1.421875 
Q 18.84375 -1.421875 12.171875 6.21875 
Q 5.515625 13.875 5.515625 27.296875 
Q 5.515625 40.765625 12.171875 48.375 
Q 18.84375 56 30.609375 56 
" id="DejaVuSans-6f"/>
      <path d="M 45.40625 27.984375 
Q 45.40625 37.75 41.375 43.109375 
Q 37.359375 48.484375 30.078125 48.484375 
Q 22.859375 48.484375 18.828125 43.109375 
Q 14.796875 37.75 14.796875 27.984375 
Q 14.796875 18.265625 18.828125 12.890625 
Q 22.859375 7.515625 30.078125 7.515625 
Q 37.359375 7.515625 41.375 12.890625 
Q 45.40625 18.265625 45.40625 27.984375 
M 54.390625 6.78125 
Q 54.390625 -7.171875 48.1875 -13.984375 
Q 42 -20.796875 29.203125 -20.796875 
Q 24.46875 -20.796875 20.265625 -20.09375 
Q 16.0625 -19.390625 12.109375 -17.921875 
L 12.109375 -9.1875 
Q 16.0625 -11.328125 19.921875 -12.34375 
Q 23.78125 -13.375 27.78125 -13.375 
Q 36.625 -13.375 41.015625 -8.765625 
Q 45.40625 -4.15625 45.40625 5.171875 
L 45.40625 9.625 
Q 42.625 4.78125 38.28125 2.390625 
Q 33.9375 0 27.875 0 
Q 17.828125 0 11.671875 7.65625 
Q 5.515625 15.328125 5.515625 27.984375 
Q 5.515625 40.671875 11.671875 48.328125 
Q 17.828125 56 27.875 56 
Q 33.9375 56 38.28125 53.609375 
Q 42.625 51.21875 45.40625 46.390625 
L 45.40625 54.6875 
L 54.390625 54.6875 
z
" id="DejaVuSans-67"/>
      <path d="M 12.40625 8.296875 
L 28.515625 8.296875 
L 28.515625 63.921875 
L 10.984375 60.40625 
L 10.984375 69.390625 
L 28.421875 72.90625 
L 38.28125 72.90625 
L 38.28125 8.296875 
L 54.390625 8.296875 
L 54.390625 0 
L 12.40625 0 
z
" id="DejaVuSans-31"/>
      <path id="DejaVuSans-20"/>
      <path d="M 37.109375 75.984375 
L 37.109375 68.5 
L 28.515625 68.5 
Q 23.6875 68.5 21.796875 66.546875 
Q 19.921875 64.59375 19.921875 59.515625 
L 19.921875 54.6875 
L 34.71875 54.6875 
L 34.71875 47.703125 
L 19.921875 47.703125 
L 19.921875 0 
L 10.890625 0 
L 10.890625 47.703125 
L 2.296875 47.703125 
L 2.296875 54.6875 
L 10.890625 54.6875 
L 10.890625 58.5 
Q 10.890625 67.625 15.140625 71.796875 
Q 19.390625 75.984375 28.609375 75.984375 
z
" id="DejaVuSans-66"/>
      <path d="M 31 75.875 
Q 24.46875 64.65625 21.28125 53.65625 
Q 18.109375 42.671875 18.109375 31.390625 
Q 18.109375 20.125 21.3125 9.0625 
Q 24.515625 -2 31 -13.1875 
L 23.1875 -13.1875 
Q 15.875 -1.703125 12.234375 9.375 
Q 8.59375 20.453125 8.59375 31.390625 
Q 8.59375 42.28125 12.203125 53.3125 
Q 15.828125 64.359375 23.1875 75.875 
z
" id="DejaVuSans-28"/>
      <path d="M 51.125 44 
L 36.921875 44 
L 32.8125 27.6875 
L 47.125 27.6875 
z
M 43.796875 71.78125 
L 38.71875 51.515625 
L 52.984375 51.515625 
L 58.109375 71.78125 
L 65.921875 71.78125 
L 60.890625 51.515625 
L 76.125 51.515625 
L 76.125 44 
L 58.984375 44 
L 54.984375 27.6875 
L 70.515625 27.6875 
L 70.515625 20.21875 
L 53.078125 20.21875 
L 48 0 
L 40.1875 0 
L 45.21875 20.21875 
L 30.90625 20.21875 
L 25.875 0 
L 18.015625 0 
L 23.09375 20.21875 
L 7.71875 20.21875 
L 7.71875 27.6875 
L 24.90625 27.6875 
L 29 44 
L 13.28125 44 
L 13.28125 51.515625 
L 30.90625 51.515625 
L 35.890625 71.78125 
z
" id="DejaVuSans-23"/>
      <path d="M 4.890625 31.390625 
L 31.203125 31.390625 
L 31.203125 23.390625 
L 4.890625 23.390625 
z
" id="DejaVuSans-2d"/>
      <path d="M 56.203125 29.59375 
L 56.203125 25.203125 
L 14.890625 25.203125 
Q 15.484375 15.921875 20.484375 11.0625 
Q 25.484375 6.203125 34.421875 6.203125 
Q 39.59375 6.203125 44.453125 7.46875 
Q 49.3125 8.734375 54.109375 11.28125 
L 54.109375 2.78125 
Q 49.265625 0.734375 44.1875 -0.34375 
Q 39.109375 -1.421875 33.890625 -1.421875 
Q 20.796875 -1.421875 13.15625 6.1875 
Q 5.515625 13.8125 5.515625 26.8125 
Q 5.515625 40.234375 12.765625 48.109375 
Q 20.015625 56 32.328125 56 
Q 43.359375 56 49.78125 48.890625 
Q 56.203125 41.796875 56.203125 29.59375 
M 47.21875 32.234375 
Q 47.125 39.59375 43.09375 43.984375 
Q 39.0625 48.390625 32.421875 48.390625 
Q 24.90625 48.390625 20.390625 44.140625 
Q 15.875 39.890625 15.1875 32.171875 
z
" id="DejaVuSans-65"/>
      <path d="M 2.984375 54.6875 
L 12.5 54.6875 
L 29.59375 8.796875 
L 46.6875 54.6875 
L 56.203125 54.6875 
L 35.6875 0 
L 23.484375 0 
z
" id="DejaVuSans-76"/>
      <path d="M 34.28125 27.484375 
Q 23.390625 27.484375 19.1875 25 
Q 14.984375 22.515625 14.984375 16.5 
Q 14.984375 11.71875 18.140625 8.90625 
Q 21.296875 6.109375 26.703125 6.109375 
Q 34.1875 6.109375 38.703125 11.40625 
Q 43.21875 16.703125 43.21875 25.484375 
L 43.21875 27.484375 
z
M 52.203125 31.203125 
L 52.203125 0 
L 43.21875 0 
L 43.21875 8.296875 
Q 40.140625 3.328125 35.546875 0.953125 
Q 30.953125 -1.421875 24.3125 -1.421875 
Q 15.921875 -1.421875 10.953125 3.296875 
Q 6 8.015625 6 15.921875 
Q 6 25.140625 12.171875 29.828125 
Q 18.359375 34.515625 30.609375 34.515625 
L 43.21875 34.515625 
L 43.21875 35.40625 
Q 43.21875 41.609375 39.140625 45 
Q 35.0625 48.390625 27.6875 48.390625 
Q 23 48.390625 18.546875 47.265625 
Q 14.109375 46.140625 10.015625 43.890625 
L 10.015625 52.203125 
Q 14.9375 54.109375 19.578125 55.046875 
Q 24.21875 56 28.609375 56 
Q 40.484375 56 46.34375 49.84375 
Q 52.203125 43.703125 52.203125 31.203125 
" id="DejaVuSans-61"/>
      <path d="M 44.28125 53.078125 
L 44.28125 44.578125 
Q 40.484375 46.53125 36.375 47.5 
Q 32.28125 48.484375 27.875 48.484375 
Q 21.1875 48.484375 17.84375 46.4375 
Q 14.5 44.390625 14.5 40.28125 
Q 14.5 37.15625 16.890625 35.375 
Q 19.28125 33.59375 26.515625 31.984375 
L 29.59375 31.296875 
Q 39.15625 29.25 43.1875 25.515625 
Q 47.21875 21.78125 47.21875 15.09375 
Q 47.21875 7.46875 41.1875 3.015625 
Q 35.15625 -1.421875 24.609375 -1.421875 
Q 20.21875 -1.421875 15.453125 -0.5625 
Q 10.6875 0.296875 5.421875 2 
L 5.421875 11.28125 
Q 10.40625 8.6875 15.234375 7.390625 
Q 20.0625 6.109375 24.8125 6.109375 
Q 31.15625 6.109375 34.5625 8.28125 
Q 37.984375 10.453125 37.984375 14.40625 
Q 37.984375 18.0625 35.515625 20.015625 
Q 33.0625 21.96875 24.703125 23.78125 
L 21.578125 24.515625 
Q 13.234375 26.265625 9.515625 29.90625 
Q 5.8125 33.546875 5.8125 39.890625 
Q 5.8125 47.609375 11.28125 51.796875 
Q 16.75 56 26.8125 56 
Q 31.78125 56 36.171875 55.265625 
Q 40.578125 54.546875 44.28125 53.078125 
" id="DejaVuSans-73"/>
      <path d="M 25.390625 72.90625 
L 33.6875 72.90625 
L 8.296875 -9.28125 
L 0 -9.28125 
z
" id="DejaVuSans-2f"/>
      <path d="M 45.40625 46.390625 
L 45.40625 75.984375 
L 54.390625 75.984375 
L 54.390625 0 
L 45.40625 0 
L 45.40625 8.203125 
Q 42.578125 3.328125 38.25 0.953125 
Q 33.9375 -1.421875 27.875 -1.421875 
Q 17.96875 -1.421875 11.734375 6.484375 
Q 5.515625 14.40625 5.515625 27.296875 
Q 5.515625 40.1875 11.734375 48.09375 
Q 17.96875 56 27.875 56 
Q 33.9375 56 38.25 53.625 
Q 42.578125 51.265625 45.40625 46.390625 
M 14.796875 27.296875 
Q 14.796875 17.390625 18.875 11.75 
Q 22.953125 6.109375 30.078125 6.109375 
Q 37.203125 6.109375 41.296875 11.75 
Q 45.40625 17.390625 45.40625 27.296875 
Q 45.40625 37.203125 41.296875 42.84375 
Q 37.203125 48.484375 30.078125 48.484375 
Q 22.953125 48.484375 18.875 42.84375 
Q 14.796875 37.203125 14.796875 27.296875 
" id="DejaVuSans-64"/>
      <path d="M 9.421875 54.6875 
L 18.40625 54.6875 
L 18.40625 0 
L 9.421875 0 
z
M 9.421875 75.984375 
L 18.40625 75.984375 
L 18.40625 64.59375 
L 9.421875 64.59375 
z
" id="DejaVuSans-69"/>
      <path d="M 52 44.1875 
Q 55.375 50.25 60.0625 53.125 
Q 64.75 56 71.09375 56 
Q 79.640625 56 84.28125 50.015625 
Q 88.921875 44.046875 88.921875 33.015625 
L 88.921875 0 
L 79.890625 0 
L 79.890625 32.71875 
Q 79.890625 40.578125 77.09375 44.375 
Q 74.3125 48.1875 68.609375 48.1875 
Q 61.625 48.1875 57.5625 43.546875 
Q 53.515625 38.921875 53.515625 30.90625 
L 53.515625 0 
L 44.484375 0 
L 44.484375 32.71875 
Q 44.484375 40.625 41.703125 44.40625 
Q 38.921875 48.1875 33.109375 48.1875 
Q 26.21875 48.1875 22.15625 43.53125 
Q 18.109375 38.875 18.109375 30.90625 
L 18.109375 0 
L 9.078125 0 
L 9.078125 54.6875 
L 18.109375 54.6875 
L 18.109375 46.1875 
Q 21.1875 51.21875 25.484375 53.609375 
Q 29.78125 56 35.6875 56 
Q 41.65625 56 45.828125 52.96875 
Q 50 49.953125 52 44.1875 
" id="DejaVuSans-6d"/>
      <path d="M 54.890625 33.015625 
L 54.890625 0 
L 45.90625 0 
L 45.90625 32.71875 
Q 45.90625 40.484375 42.875 44.328125 
Q 39.84375 48.1875 33.796875 48.1875 
Q 26.515625 48.1875 22.3125 43.546875 
Q 18.109375 38.921875 18.109375 30.90625 
L 18.109375 0 
L 9.078125 0 
L 9.078125 54.6875 
L 18.109375 54.6875 
L 18.109375 46.1875 
Q 21.34375 51.125 25.703125 53.5625 
Q 30.078125 56 35.796875 56 
Q 45.21875 56 50.046875 50.171875 
Q 54.890625 44.34375 54.890625 33.015625 
" id="DejaVuSans-6e"/>
      <path d="M 8.015625 75.875 
L 15.828125 75.875 
Q 23.140625 64.359375 26.78125 53.3125 
Q 30.421875 42.28125 30.421875 31.390625 
Q 30.421875 20.453125 26.78125 9.375 
Q 23.140625 -1.703125 15.828125 -13.1875 
L 8.015625 -13.1875 
Q 14.5 -2 17.703125 9.0625 
Q 20.90625 20.125 20.90625 31.390625 
Q 20.90625 42.671875 17.703125 53.65625 
Q 14.5 64.65625 8.015625 75.875 
" id="DejaVuSans-29"/>
     </defs>
     <g transform="translate(107.015156 342.278812)scale(0.18 -0.18)">
      <use xlink:href="#DejaVuSans-6c"/>
      <use x="27.783203" xlink:href="#DejaVuSans-6f"/>
      <use x="88.964844" xlink:href="#DejaVuSans-67"/>
      <use x="152.441406" xlink:href="#DejaVuSans-31"/>
      <use x="216.064453" xlink:href="#DejaVuSans-30"/>
      <use x="279.6875" xlink:href="#DejaVuSans-20"/>
      <use x="311.474609" xlink:href="#DejaVuSans-6f"/>
      <use x="372.65625" xlink:href="#DejaVuSans-66"/>
      <use x="407.861328" xlink:href="#DejaVuSans-20"/>
      <use x="439.648438" xlink:href="#DejaVuSans-28"/>
      <use x="478.662109" xlink:href="#DejaVuSans-23"/>
      <use x="562.451172" xlink:href="#DejaVuSans-20"/>
      <use x="594.238281" xlink:href="#DejaVuSans-66"/>
      <use x="629.365234" xlink:href="#DejaVuSans-2d"/>
      <use x="665.449219" xlink:href="#DejaVuSans-65"/>
      <use x="726.972656" xlink:href="#DejaVuSans-76"/>
      <use x="786.152344" xlink:href="#DejaVuSans-61"/>
      <use x="847.431641" xlink:href="#DejaVuSans-6c"/>
      <use x="875.214844" xlink:href="#DejaVuSans-73"/>
      <use x="927.314453" xlink:href="#DejaVuSans-20"/>
      <use x="959.101562" xlink:href="#DejaVuSans-2f"/>
      <use x="992.792969" xlink:href="#DejaVuSans-20"/>
      <use x="1024.580078" xlink:href="#DejaVuSans-64"/>
      <use x="1088.056641" xlink:href="#DejaVuSans-69"/>
      <use x="1115.839844" xlink:href="#DejaVuSans-6d"/>
      <use x="1213.251953" xlink:href="#DejaVuSans-65"/>
      <use x="1274.775391" xlink:href="#DejaVuSans-6e"/>
      <use x="1338.154297" xlink:href="#DejaVuSans-73"/>
      <use x="1390.253906" xlink:href="#DejaVuSans-69"/>
      <use x="1418.037109" xlink:href="#DejaVuSans-6f"/>
      <use x="1479.21875" xlink:href="#DejaVuSans-6e"/>
      <use x="1542.597656" xlink:href="#DejaVuSans-29"/>
     </g>
    </g>
   </g>
   <g id="matplotlib.axis_2">
    <g id="ytick_1">
     <g id="line2d_32">
      <path clip-path="url(#pd1f5d07264)" d="M 70.8 298.245375 
L 427.92 298.245375 
" style="fill:none;stroke:#b0b0b0;stroke-linecap:square;stroke-width:0.8;"/>
     </g>
     <g id="line2d_33">
      <defs>
       <path d="M 0 0 
L -3.5 0 
" id="mae6a4920e0" style="stroke:#000000;stroke-width:0.8;"/>
      </defs>
      <g>
       <use style="stroke:#000000;stroke-width:0.8;" x="70.8" xlink:href="#mae6a4920e0" y="298.245375"/>
      </g>
     </g>
     <g id="text_7">
      <!-- 0.0 -->
      <defs>
       <path d="M 10.6875 12.40625 
L 21 12.40625 
L 21 0 
L 10.6875 0 
z
" id="DejaVuSans-2e"/>
      </defs>
      <g transform="translate(31.99375 305.843812)scale(0.2 -0.2)">
       <use xlink:href="#DejaVuSans-30"/>
       <use x="63.623047" xlink:href="#DejaVuSans-2e"/>
       <use x="95.410156" xlink:href="#DejaVuSans-30"/>
      </g>
     </g>
    </g>
    <g id="ytick_2">
     <g id="line2d_34">
      <path clip-path="url(#pd1f5d07264)" d="M 70.8 245.549929 
L 427.92 245.549929 
" style="fill:none;stroke:#b0b0b0;stroke-linecap:square;stroke-width:0.8;"/>
     </g>
     <g id="line2d_35">
      <g>
       <use style="stroke:#000000;stroke-width:0.8;" x="70.8" xlink:href="#mae6a4920e0" y="245.549929"/>
      </g>
     </g>
     <g id="text_8">
      <!-- 0.2 -->
      <g transform="translate(31.99375 253.148367)scale(0.2 -0.2)">
       <use xlink:href="#DejaVuSans-30"/>
       <use x="63.623047" xlink:href="#DejaVuSans-2e"/>
       <use x="95.410156" xlink:href="#DejaVuSans-32"/>
      </g>
     </g>
    </g>
    <g id="ytick_3">
     <g id="line2d_36">
      <path clip-path="url(#pd1f5d07264)" d="M 70.8 192.854484 
L 427.92 192.854484 
" style="fill:none;stroke:#b0b0b0;stroke-linecap:square;stroke-width:0.8;"/>
     </g>
     <g id="line2d_37">
      <g>
       <use style="stroke:#000000;stroke-width:0.8;" x="70.8" xlink:href="#mae6a4920e0" y="192.854484"/>
      </g>
     </g>
     <g id="text_9">
      <!-- 0.4 -->
      <g transform="translate(31.99375 200.452921)scale(0.2 -0.2)">
       <use xlink:href="#DejaVuSans-30"/>
       <use x="63.623047" xlink:href="#DejaVuSans-2e"/>
       <use x="95.410156" xlink:href="#DejaVuSans-34"/>
      </g>
     </g>
    </g>
    <g id="ytick_4">
     <g id="line2d_38">
      <path clip-path="url(#pd1f5d07264)" d="M 70.8 140.159038 
L 427.92 140.159038 
" style="fill:none;stroke:#b0b0b0;stroke-linecap:square;stroke-width:0.8;"/>
     </g>
     <g id="line2d_39">
      <g>
       <use style="stroke:#000000;stroke-width:0.8;" x="70.8" xlink:href="#mae6a4920e0" y="140.159038"/>
      </g>
     </g>
     <g id="text_10">
      <!-- 0.6 -->
      <g transform="translate(31.99375 147.757476)scale(0.2 -0.2)">
       <use xlink:href="#DejaVuSans-30"/>
       <use x="63.623047" xlink:href="#DejaVuSans-2e"/>
       <use x="95.410156" xlink:href="#DejaVuSans-36"/>
      </g>
     </g>
    </g>
    <g id="ytick_5">
     <g id="line2d_40">
      <path clip-path="url(#pd1f5d07264)" d="M 70.8 87.463593 
L 427.92 87.463593 
" style="fill:none;stroke:#b0b0b0;stroke-linecap:square;stroke-width:0.8;"/>
     </g>
     <g id="line2d_41">
      <g>
       <use style="stroke:#000000;stroke-width:0.8;" x="70.8" xlink:href="#mae6a4920e0" y="87.463593"/>
      </g>
     </g>
     <g id="text_11">
      <!-- 0.8 -->
      <g transform="translate(31.99375 95.06203)scale(0.2 -0.2)">
       <use xlink:href="#DejaVuSans-30"/>
       <use x="63.623047" xlink:href="#DejaVuSans-2e"/>
       <use x="95.410156" xlink:href="#DejaVuSans-38"/>
      </g>
     </g>
    </g>
    <g id="ytick_6">
     <g id="line2d_42">
      <path clip-path="url(#pd1f5d07264)" d="M 70.8 34.768147 
L 427.92 34.768147 
" style="fill:none;stroke:#b0b0b0;stroke-linecap:square;stroke-width:0.8;"/>
     </g>
     <g id="line2d_43">
      <g>
       <use style="stroke:#000000;stroke-width:0.8;" x="70.8" xlink:href="#mae6a4920e0" y="34.768147"/>
      </g>
     </g>
     <g id="text_12">
      <!-- 1.0 -->
      <g transform="translate(31.99375 42.366585)scale(0.2 -0.2)">
       <use xlink:href="#DejaVuSans-31"/>
       <use x="63.623047" xlink:href="#DejaVuSans-2e"/>
       <use x="95.410156" xlink:href="#DejaVuSans-30"/>
      </g>
     </g>
    </g>
    <g id="text_13">
     <!-- Proportion of function+target pairs -->
     <defs>
      <path d="M 19.671875 64.796875 
L 19.671875 37.40625 
L 32.078125 37.40625 
Q 38.96875 37.40625 42.71875 40.96875 
Q 46.484375 44.53125 46.484375 51.125 
Q 46.484375 57.671875 42.71875 61.234375 
Q 38.96875 64.796875 32.078125 64.796875 
z
M 9.8125 72.90625 
L 32.078125 72.90625 
Q 44.34375 72.90625 50.609375 67.359375 
Q 56.890625 61.8125 56.890625 51.125 
Q 56.890625 40.328125 50.609375 34.8125 
Q 44.34375 29.296875 32.078125 29.296875 
L 19.671875 29.296875 
L 19.671875 0 
L 9.8125 0 
z
" id="DejaVuSans-50"/>
      <path d="M 41.109375 46.296875 
Q 39.59375 47.171875 37.8125 47.578125 
Q 36.03125 48 33.890625 48 
Q 26.265625 48 22.1875 43.046875 
Q 18.109375 38.09375 18.109375 28.8125 
L 18.109375 0 
L 9.078125 0 
L 9.078125 54.6875 
L 18.109375 54.6875 
L 18.109375 46.1875 
Q 20.953125 51.171875 25.484375 53.578125 
Q 30.03125 56 36.53125 56 
Q 37.453125 56 38.578125 55.875 
Q 39.703125 55.765625 41.0625 55.515625 
z
" id="DejaVuSans-72"/>
      <path d="M 18.109375 8.203125 
L 18.109375 -20.796875 
L 9.078125 -20.796875 
L 9.078125 54.6875 
L 18.109375 54.6875 
L 18.109375 46.390625 
Q 20.953125 51.265625 25.265625 53.625 
Q 29.59375 56 35.59375 56 
Q 45.5625 56 51.78125 48.09375 
Q 58.015625 40.1875 58.015625 27.296875 
Q 58.015625 14.40625 51.78125 6.484375 
Q 45.5625 -1.421875 35.59375 -1.421875 
Q 29.59375 -1.421875 25.265625 0.953125 
Q 20.953125 3.328125 18.109375 8.203125 
M 48.6875 27.296875 
Q 48.6875 37.203125 44.609375 42.84375 
Q 40.53125 48.484375 33.40625 48.484375 
Q 26.265625 48.484375 22.1875 42.84375 
Q 18.109375 37.203125 18.109375 27.296875 
Q 18.109375 17.390625 22.1875 11.75 
Q 26.265625 6.109375 33.40625 6.109375 
Q 40.53125 6.109375 44.609375 11.75 
Q 48.6875 17.390625 48.6875 27.296875 
" id="DejaVuSans-70"/>
      <path d="M 18.3125 70.21875 
L 18.3125 54.6875 
L 36.8125 54.6875 
L 36.8125 47.703125 
L 18.3125 47.703125 
L 18.3125 18.015625 
Q 18.3125 11.328125 20.140625 9.421875 
Q 21.96875 7.515625 27.59375 7.515625 
L 36.8125 7.515625 
L 36.8125 0 
L 27.59375 0 
Q 17.1875 0 13.234375 3.875 
Q 9.28125 7.765625 9.28125 18.015625 
L 9.28125 47.703125 
L 2.6875 47.703125 
L 2.6875 54.6875 
L 9.28125 54.6875 
L 9.28125 70.21875 
z
" id="DejaVuSans-74"/>
      <path d="M 8.5 21.578125 
L 8.5 54.6875 
L 17.484375 54.6875 
L 17.484375 21.921875 
Q 17.484375 14.15625 20.5 10.265625 
Q 23.53125 6.390625 29.59375 6.390625 
Q 36.859375 6.390625 41.078125 11.03125 
Q 45.3125 15.671875 45.3125 23.6875 
L 45.3125 54.6875 
L 54.296875 54.6875 
L 54.296875 0 
L 45.3125 0 
L 45.3125 8.40625 
Q 42.046875 3.421875 37.71875 1 
Q 33.40625 -1.421875 27.6875 -1.421875 
Q 18.265625 -1.421875 13.375 4.4375 
Q 8.5 10.296875 8.5 21.578125 
M 31.109375 56 
z
" id="DejaVuSans-75"/>
      <path d="M 48.78125 52.59375 
L 48.78125 44.1875 
Q 44.96875 46.296875 41.140625 47.34375 
Q 37.3125 48.390625 33.40625 48.390625 
Q 24.65625 48.390625 19.8125 42.84375 
Q 14.984375 37.3125 14.984375 27.296875 
Q 14.984375 17.28125 19.8125 11.734375 
Q 24.65625 6.203125 33.40625 6.203125 
Q 37.3125 6.203125 41.140625 7.25 
Q 44.96875 8.296875 48.78125 10.40625 
L 48.78125 2.09375 
Q 45.015625 0.34375 40.984375 -0.53125 
Q 36.96875 -1.421875 32.421875 -1.421875 
Q 20.0625 -1.421875 12.78125 6.34375 
Q 5.515625 14.109375 5.515625 27.296875 
Q 5.515625 40.671875 12.859375 48.328125 
Q 20.21875 56 33.015625 56 
Q 37.15625 56 41.109375 55.140625 
Q 45.0625 54.296875 48.78125 52.59375 
" id="DejaVuSans-63"/>
      <path d="M 46 62.703125 
L 46 35.5 
L 73.1875 35.5 
L 73.1875 27.203125 
L 46 27.203125 
L 46 0 
L 37.796875 0 
L 37.796875 27.203125 
L 10.59375 27.203125 
L 10.59375 35.5 
L 37.796875 35.5 
L 37.796875 62.703125 
z
" id="DejaVuSans-2b"/>
     </defs>
     <g transform="translate(24.250312 323.17875)rotate(-90)scale(0.18 -0.18)">
      <use xlink:href="#DejaVuSans-50"/>
      <use x="60.287109" xlink:href="#DejaVuSans-72"/>
      <use x="101.369141" xlink:href="#DejaVuSans-6f"/>
      <use x="162.550781" xlink:href="#DejaVuSans-70"/>
      <use x="226.027344" xlink:href="#DejaVuSans-6f"/>
      <use x="287.208984" xlink:href="#DejaVuSans-72"/>
      <use x="328.322266" xlink:href="#DejaVuSans-74"/>
      <use x="367.53125" xlink:href="#DejaVuSans-69"/>
      <use x="395.314453" xlink:href="#DejaVuSans-6f"/>
      <use x="456.496094" xlink:href="#DejaVuSans-6e"/>
      <use x="519.875" xlink:href="#DejaVuSans-20"/>
      <use x="551.662109" xlink:href="#DejaVuSans-6f"/>
      <use x="612.84375" xlink:href="#DejaVuSans-66"/>
      <use x="648.048828" xlink:href="#DejaVuSans-20"/>
      <use x="679.835938" xlink:href="#DejaVuSans-66"/>
      <use x="715.041016" xlink:href="#DejaVuSans-75"/>
      <use x="778.419922" xlink:href="#DejaVuSans-6e"/>
      <use x="841.798828" xlink:href="#DejaVuSans-63"/>
      <use x="896.779297" xlink:href="#DejaVuSans-74"/>
      <use x="935.988281" xlink:href="#DejaVuSans-69"/>
      <use x="963.771484" xlink:href="#DejaVuSans-6f"/>
      <use x="1024.953125" xlink:href="#DejaVuSans-6e"/>
      <use x="1088.332031" xlink:href="#DejaVuSans-2b"/>
      <use x="1172.121094" xlink:href="#DejaVuSans-74"/>
      <use x="1211.330078" xlink:href="#DejaVuSans-61"/>
      <use x="1272.609375" xlink:href="#DejaVuSans-72"/>
      <use x="1313.707031" xlink:href="#DejaVuSans-67"/>
      <use x="1377.183594" xlink:href="#DejaVuSans-65"/>
      <use x="1438.707031" xlink:href="#DejaVuSans-74"/>
      <use x="1477.916016" xlink:href="#DejaVuSans-20"/>
      <use x="1509.703125" xlink:href="#DejaVuSans-70"/>
      <use x="1573.179688" xlink:href="#DejaVuSans-61"/>
      <use x="1634.458984" xlink:href="#DejaVuSans-69"/>
      <use x="1662.242188" xlink:href="#DejaVuSans-72"/>
      <use x="1703.355469" xlink:href="#DejaVuSans-73"/>
     </g>
    </g>
   </g>
   <g id="line2d_44">
    <defs>
     <path d="M 0 1.5 
C 0.397805 1.5 0.77937 1.341951 1.06066 1.06066 
C 1.341951 0.77937 1.5 0.397805 1.5 0 
C 1.5 -0.397805 1.341951 -0.77937 1.06066 -1.06066 
C 0.77937 -1.341951 0.397805 -1.5 0 -1.5 
C -0.397805 -1.5 -0.77937 -1.341951 -1.06066 -1.06066 
C -1.341951 -0.77937 -1.5 -0.397805 -1.5 0 
C -1.5 0.397805 -1.341951 0.77937 -1.06066 1.06066 
C -0.77937 1.341951 -0.397805 1.5 0 1.5 
z
" id="m859ddfdf81" style="stroke:#f5deb3;"/>
    </defs>
    <g>
     <use style="fill:#f5deb3;stroke:#f5deb3;" x="334.503349" xlink:href="#m859ddfdf81" y="34.768147"/>
     <use style="fill:#f5deb3;stroke:#f5deb3;" x="334.503349" xlink:href="#m859ddfdf81" y="34.768147"/>
    </g>
   </g>
   <g id="line2d_45">
    <g>
     <use style="fill:#f5deb3;stroke:#f5deb3;stroke-linejoin:miter;stroke-width:1.5;" x="139.746309" xlink:href="#ma5af75df86" y="219.245259"/>
     <use style="fill:#f5deb3;stroke:#f5deb3;stroke-linejoin:miter;stroke-width:1.5;" x="174.211911" xlink:href="#ma5af75df86" y="133.572108"/>
     <use style="fill:#f5deb3;stroke:#f5deb3;stroke-linejoin:miter;stroke-width:1.5;" x="236.95514" xlink:href="#ma5af75df86" y="54.571991"/>
     <use style="fill:#f5deb3;stroke:#f5deb3;stroke-linejoin:miter;stroke-width:1.5;" x="334.503349" xlink:href="#ma5af75df86" y="34.983406"/>
     <use style="fill:#f5deb3;stroke:#f5deb3;stroke-linejoin:miter;stroke-width:1.5;" x="334.503349" xlink:href="#ma5af75df86" y="34.768147"/>
     <use style="fill:#f5deb3;stroke:#f5deb3;stroke-linejoin:miter;stroke-width:1.5;" x="358.8" xlink:href="#ma5af75df86" y="34.768147"/>
    </g>
   </g>
   <g id="line2d_46">
    <defs>
     <path d="M 0 1.5 
C 0.397805 1.5 0.77937 1.341951 1.06066 1.06066 
C 1.341951 0.77937 1.5 0.397805 1.5 0 
C 1.5 -0.397805 1.341951 -0.77937 1.06066 -1.06066 
C 0.77937 -1.341951 0.397805 -1.5 0 -1.5 
C -0.397805 -1.5 -0.77937 -1.341951 -1.06066 -1.06066 
C -1.341951 -0.77937 -1.5 -0.397805 -1.5 0 
C -1.5 0.397805 -1.341951 0.77937 -1.06066 1.06066 
C -0.77937 1.341951 -0.397805 1.5 0 1.5 
z
" id="m7ab8de0609" style="stroke:#ff00ff;"/>
    </defs>
    <g>
     <use style="fill:#ff00ff;stroke:#ff00ff;" x="261.882556" xlink:href="#m7ab8de0609" y="191.692084"/>
     <use style="fill:#ff00ff;stroke:#ff00ff;" x="261.882556" xlink:href="#m7ab8de0609" y="191.692084"/>
    </g>
   </g>
   <g id="line2d_47">
    <path d="M 42.042377 298.245375 
L 42.042377 293.746458 
L 54.427611 293.746458 
L 54.427611 293.488147 
L 61.672509 293.488147 
L 61.672509 293.229836 
L 66.812845 293.229836 
L 66.812845 292.906948 
L 70.8 292.906948 
L 70.8 292.670162 
L 74.057743 292.670162 
L 74.057743 292.175066 
L 76.812125 292.175066 
L 76.812125 291.981333 
L 79.198079 291.981333 
L 79.198079 291.766074 
L 81.30264 291.766074 
L 81.30264 290.668252 
L 83.185234 290.668252 
L 83.185234 290.517571 
L 84.888247 290.517571 
L 84.888247 290.25926 
L 86.442977 290.25926 
L 86.442977 289.312119 
L 87.873189 289.312119 
L 87.873189 288.51566 
L 89.197359 288.51566 
L 89.197359 288.364979 
L 90.430132 288.364979 
L 90.430132 287.503942 
L 92.666561 287.439365 
L 92.666561 286.51375 
L 94.653954 286.449172 
L 94.653954 286.363069 
L 96.442257 286.255439 
L 96.442257 285.738817 
L 97.273482 285.738817 
L 97.273482 285.502032 
L 98.067751 285.502032 
L 98.067751 285.243721 
L 99.557623 285.179143 
L 99.557623 284.662521 
L 100.258423 284.662521 
L 100.258423 284.490314 
L 100.932772 284.490314 
L 100.932772 283.952166 
L 102.209609 283.952166 
L 102.209609 283.779959 
L 102.815366 283.779959 
L 102.815366 283.607751 
L 103.401258 283.607751 
L 103.401258 282.76824 
L 103.968548 282.76824 
L 103.968548 281.92873 
L 104.518379 281.92873 
L 104.518379 281.627367 
L 105.051795 281.627367 
L 105.051795 280.895486 
L 105.569748 280.895486 
L 105.569748 280.228182 
L 106.073108 280.228182 
L 106.073108 280.012923 
L 106.562676 280.012923 
L 106.562676 279.474775 
L 107.039188 279.474775 
L 107.039188 279.281042 
L 107.503321 279.281042 
L 107.503321 279.13036 
L 108.396913 279.087309 
L 108.396913 278.958153 
L 108.827491 278.958153 
L 108.827491 278.785946 
L 109.247936 278.785946 
L 109.247936 278.463057 
L 110.060263 278.376953 
L 110.060263 278.140168 
L 110.452985 278.140168 
L 110.452985 277.494391 
L 111.213445 277.451339 
L 111.213445 276.977769 
L 111.581873 276.977769 
L 111.581873 276.805561 
L 112.296693 276.740984 
L 112.296693 276.633354 
L 112.643657 276.633354 
L 112.643657 276.504199 
L 112.984013 276.504199 
L 112.984013 276.331991 
L 113.64587 276.288939 
L 113.64587 276.095206 
L 113.967827 276.095206 
L 113.967827 275.234169 
L 114.594843 275.12654 
L 114.594843 274.997384 
L 114.900288 274.997384 
L 114.900288 274.825177 
L 115.2006 274.825177 
L 115.2006 274.609918 
L 115.495947 274.609918 
L 115.495947 274.459236 
L 115.786492 274.459236 
L 115.786492 274.265503 
L 116.353782 274.222451 
L 116.353782 273.985666 
L 116.630812 273.985666 
L 116.630812 273.748881 
L 116.903613 273.748881 
L 116.903613 273.555148 
L 117.437029 273.469044 
L 117.437029 273.146155 
L 117.697882 273.146155 
L 117.697882 272.823267 
L 117.954982 272.823267 
L 117.954982 272.651059 
L 118.208435 272.651059 
L 118.208435 272.478852 
L 118.458343 272.478852 
L 118.458343 272.349696 
L 118.704803 272.349696 
L 118.704803 272.220541 
L 119.424422 272.155963 
L 119.424422 272.005282 
L 119.888555 271.897652 
L 119.888555 271.746971 
L 120.340936 271.682393 
L 120.340936 271.596289 
L 120.562903 271.596289 
L 120.562903 271.467134 
L 120.782147 271.467134 
L 120.782147 271.316452 
L 120.998733 271.316452 
L 120.998733 271.165771 
L 121.212725 271.165771 
L 121.212725 270.972038 
L 121.424184 270.972038 
L 121.424184 270.821356 
L 121.63317 270.821356 
L 121.63317 270.563045 
L 121.839741 270.563045 
L 121.839741 270.369312 
L 122.04395 270.369312 
L 122.04395 270.240157 
L 122.642937 270.132527 
L 122.642937 270.046423 
L 122.838219 270.046423 
L 122.838219 269.917268 
L 123.03139 269.917268 
L 123.03139 269.615905 
L 123.222494 269.615905 
L 123.222494 269.465224 
L 123.411577 269.465224 
L 123.411577 269.293016 
L 123.598679 269.293016 
L 123.598679 269.056231 
L 123.783843 269.056231 
L 123.783843 268.776394 
L 124.148511 268.668765 
L 124.148511 268.518083 
L 124.505885 268.475031 
L 124.505885 268.195194 
L 124.856251 268.087565 
L 124.856251 267.915358 
L 125.028891 267.915358 
L 125.028891 267.786202 
L 125.19988 267.786202 
L 125.19988 267.635521 
L 125.369247 267.635521 
L 125.369247 267.37721 
L 125.537024 267.37721 
L 125.537024 267.226528 
L 125.70324 267.226528 
L 125.70324 267.075847 
L 126.031105 267.011269 
L 126.031105 266.903639 
L 126.353061 266.79601 
L 126.353061 266.731432 
L 126.825374 266.623802 
L 126.825374 266.559225 
L 127.133452 266.473121 
L 127.133452 266.408543 
L 127.285522 266.408543 
L 127.285522 266.279388 
L 127.436309 266.279388 
L 127.436309 265.956499 
L 127.734118 265.934973 
L 127.734118 265.784292 
L 128.027044 265.784292 
L 128.027044 265.655136 
L 128.315246 265.590558 
L 128.315246 265.26767 
L 128.457622 265.26767 
L 128.457622 265.052411 
L 128.598873 265.052411 
L 128.598873 264.880203 
L 128.739016 264.880203 
L 128.739016 264.751048 
L 129.016046 264.707996 
L 129.016046 264.514263 
L 129.152967 264.514263 
L 129.152967 264.255952 
L 129.423702 264.148322 
L 129.423702 263.997641 
L 129.822263 263.933063 
L 129.822263 263.868485 
L 129.953166 263.868485 
L 129.953166 263.6317 
L 130.212129 263.588648 
L 130.212129 263.373389 
L 130.467392 263.373389 
L 130.467392 263.115078 
L 130.593669 263.115078 
L 130.593669 262.856767 
L 130.71906 262.856767 
L 130.71906 262.727611 
L 130.967232 262.619982 
L 130.967232 262.490826 
L 131.090037 262.490826 
L 131.090037 262.297093 
L 131.212004 262.297093 
L 131.212004 262.146412 
L 131.333145 262.146412 
L 131.333145 261.931153 
L 131.453469 261.931153 
L 131.453469 261.801997 
L 131.809656 261.715893 
L 131.809656 261.62979 
L 132.158881 261.543686 
L 132.158881 261.349953 
L 132.387963 261.285375 
L 132.387963 261.199271 
L 132.614144 261.113168 
L 132.614144 260.962486 
L 132.948138 260.854857 
L 133.058096 260.768753 
L 133.167381 260.768753 
L 133.276002 260.57502 
L 133.491283 260.488916 
L 133.597959 260.079924 
L 133.704001 260.079924 
L 133.809418 259.800087 
L 134.018404 259.735509 
L 134.121988 259.498724 
L 134.224975 259.498724 
L 134.327371 259.326517 
L 134.429184 259.326517 
L 134.53042 259.175835 
L 134.731187 259.132783 
L 134.731187 259.003628 
L 135.028171 258.960576 
L 135.126079 258.766843 
L 135.223453 258.766843 
L 135.3203 258.46548 
L 135.512432 258.422428 
L 135.607728 257.948858 
L 135.70252 257.948858 
L 135.796811 257.733599 
L 135.983913 257.625969 
L 136.076735 257.389184 
L 136.260944 257.281554 
L 136.352341 257.044769 
L 136.443273 257.044769 
L 136.533745 256.894088 
L 136.713325 256.82951 
L 136.802443 256.506621 
L 137.067161 256.420518 
L 137.154536 256.269836 
L 137.328014 256.226784 
L 137.414126 255.968473 
L 137.585114 255.88237 
L 137.669998 255.688637 
L 137.838566 255.667111 
L 137.922258 255.344222 
L 138.005559 255.344222 
L 138.088474 254.806074 
L 138.253158 254.71997 
L 138.334935 254.612341 
L 138.416339 254.612341 
L 138.497373 254.418607 
L 138.738295 254.397081 
L 138.817886 254.181822 
L 138.976012 254.160296 
L 139.054554 253.858934 
L 139.132751 253.858934 
L 139.210608 253.643674 
L 139.365311 253.536045 
L 139.442163 253.406889 
L 139.518687 253.406889 
L 139.594883 253.213156 
L 139.896462 253.105526 
L 139.971068 252.847215 
L 140.119352 252.761112 
L 140.119352 252.675008 
L 140.484766 252.567378 
L 140.55696 252.502801 
L 140.628864 252.502801 
L 140.70048 252.115334 
L 141.054316 252.007705 
L 141.12425 251.857023 
L 141.193911 251.857023 
L 141.263302 251.577186 
L 141.332424 251.577186 
L 141.40128 251.318875 
L 141.674081 251.211246 
L 141.741636 251.146668 
L 141.94278 251.060564 
L 142.009328 250.909883 
L 142.207498 250.845305 
L 142.273069 250.651572 
L 142.597363 250.586994 
L 142.661521 250.350209 
L 142.852626 250.242579 
L 142.915876 250.048846 
L 143.041708 249.962743 
L 143.104294 249.790535 
L 143.228811 249.682906 
L 143.228811 249.55375 
L 143.536359 249.489172 
L 143.597239 249.381543 
L 143.718379 249.316965 
L 143.778642 249.101706 
L 143.838703 249.101706 
L 143.898563 248.886447 
L 144.017684 248.843395 
L 144.076948 248.649662 
L 144.25357 248.585084 
L 144.312059 248.283721 
L 144.428464 248.219143 
L 144.486383 248.13304 
L 144.716201 248.02541 
L 144.773197 247.982358 
L 144.830011 247.982358 
L 144.886646 247.724047 
L 145.111405 247.616418 
L 145.167155 247.487262 
L 145.333372 247.379632 
L 145.388435 247.207425 
L 145.607008 247.099796 
L 145.7153 246.86301 
L 146.036293 246.755381 
L 146.142022 246.690803 
L 146.351621 246.583173 
L 146.455505 246.152655 
L 146.763584 246.045026 
L 146.865108 245.894344 
L 146.966058 245.829766 
L 147.01632 245.592981 
L 147.462426 245.485352 
L 147.560066 245.248567 
L 147.705534 245.183989 
L 147.801858 244.904152 
L 147.945378 244.796522 
L 148.040421 244.645841 
L 148.134962 244.581263 
L 148.229005 244.236849 
L 148.415618 244.172271 
L 148.5082 243.677175 
L 148.600303 243.677175 
L 148.691935 243.397338 
L 148.783099 243.397338 
L 148.8738 243.203604 
L 148.964044 243.160553 
L 149.008995 243.031397 
L 149.320526 242.923768 
L 149.408547 242.85919 
L 149.583298 242.75156 
L 149.62672 242.686982 
L 149.79936 242.622405 
L 149.885058 242.514775 
L 150.097524 242.407146 
L 150.139715 242.299516 
L 150.432299 242.234938 
L 150.515022 242.127309 
L 150.597364 242.019679 
L 150.679328 241.912049 
L 150.922987 241.80442 
L 151.003475 241.69679 
L 151.20312 241.589161 
L 151.282358 241.481531 
L 151.478929 241.373901 
L 151.517985 241.266272 
L 151.711995 241.201694 
L 151.789013 241.007961 
L 151.94206 240.921857 
L 152.018094 240.64202 
L 152.093807 240.555917 
L 152.131543 240.405235 
L 152.356302 240.297606 
L 152.393489 240.233028 
L 152.578269 240.211502 
L 152.65165 240.082346 
L 152.761158 239.974717 
L 152.833793 239.80251 
L 153.014098 239.69488 
L 153.121415 239.522673 
L 153.22809 239.436569 
L 153.298855 239.285888 
L 153.717659 239.178258 
L 153.820843 239.11368 
L 154.328014 239.027577 
L 154.427743 238.941473 
L 154.658303 238.833843 
L 154.756211 238.769266 
L 154.950431 238.661636 
L 155.046755 238.575532 
L 155.110684 238.53248 
L 155.110684 238.446377 
L 155.426942 238.360273 
L 155.520739 238.274169 
L 155.645039 238.231118 
L 155.7377 237.972807 
L 155.982473 237.886703 
L 156.043145 237.779073 
L 156.283797 237.671444 
L 156.373212 237.542288 
L 156.580124 237.434659 
L 156.580124 237.413133 
L 156.871617 237.305503 
L 156.900507 237.262451 
L 157.356496 237.176348 
L 157.412685 237.047192 
L 158.181325 236.939563 
L 158.261751 236.788881 
L 158.341818 236.724303 
L 158.341818 236.616674 
L 158.658543 236.53057 
L 158.762883 236.401415 
L 159.225015 236.293785 
L 159.300888 236.186155 
L 159.526594 236.100052 
L 159.6012 236.013948 
L 159.945301 235.906319 
L 160.018182 235.820215 
L 160.401942 235.712585 
L 160.496607 235.58343 
L 160.800853 235.4758 
L 160.893434 235.368171 
L 161.236402 235.282067 
L 161.281638 235.195963 
L 161.771817 235.088334 
L 161.837629 234.980704 
L 162.227494 234.8946 
L 162.291653 234.786971 
L 162.734425 234.679341 
L 162.796792 234.636289 
L 163.125789 234.52866 
L 163.186807 234.442556 
L 163.687347 234.334927 
L 163.74648 234.248823 
L 163.961644 234.184245 
L 164.019878 233.990512 
L 164.460143 233.882882 
L 164.516777 233.83983 
L 164.797287 233.775253 
L 164.90827 233.624571 
L 165.200896 233.538468 
L 165.255234 233.36626 
L 165.73698 233.280157 
L 165.824784 233.151001 
L 165.981752 233.043372 
L 166.016448 232.935742 
L 166.325711 232.828112 
L 166.393716 232.698957 
L 166.779796 232.591327 
L 166.862634 232.526749 
L 167.125164 232.41912 
L 167.222627 232.289964 
L 167.43199 232.182335 
L 167.463983 232.096231 
L 167.780801 232.010127 
L 167.874762 231.83792 
L 168.076664 231.730291 
L 168.184442 231.644187 
L 168.549111 231.558083 
L 168.549111 231.515031 
L 169.271302 231.428928 
L 169.357761 231.278246 
L 169.572095 231.170617 
L 169.614655 231.127565 
L 170.186372 231.019935 
L 170.213798 230.869254 
L 170.404611 230.78315 
L 170.472268 230.675521 
L 170.886116 230.567891 
L 170.899308 230.524839 
L 171.508581 230.41721 
L 171.508581 230.374158 
L 171.974021 230.288054 
L 172.073082 230.20195 
L 174.255679 230.094321 
L 174.332015 230.051269 
L 175.264845 229.965165 
L 175.264845 229.922113 
L 176.376019 229.814484 
L 176.376019 229.792958 
L 177.357926 229.72838 
L 177.357926 229.663802 
L 177.712663 229.577699 
L 177.712663 229.534647 
L 178.599883 229.427017 
L 178.599883 229.405491 
L 179.485949 229.297862 
L 179.485949 229.276336 
L 180.118869 229.190232 
L 180.118869 228.738188 
L 180.392267 228.630558 
L 180.392267 228.587507 
L 181.728614 228.479877 
L 181.728614 228.458351 
L 182.232174 228.372247 
L 182.315898 228.221566 
L 182.392303 228.113936 
L 182.495966 227.898677 
L 182.523509 227.812574 
L 182.599032 227.554263 
L 182.742333 227.446633 
L 182.843991 227.295952 
L 182.897973 227.188322 
L 183.005451 226.886959 
L 183.038906 226.822381 
L 183.138895 226.521019 
L 183.27135 226.413389 
L 183.350355 225.939819 
L 183.39628 225.918293 
L 183.494295 225.423197 
L 183.552847 225.315567 
L 183.650009 225.078782 
L 183.727361 224.971153 
L 183.836372 224.626738 
L 183.900186 224.56216 
L 183.989146 224.368427 
L 184.065046 224.260797 
L 184.172022 224.174694 
L 184.265884 224.08859 
L 184.371668 223.830279 
L 184.445964 223.722649 
L 184.538401 223.550442 
L 184.697502 223.485864 
L 184.79471 223.313657 
L 184.951555 223.206027 
L 185.04142 223.098398 
L 185.402285 222.990768 
L 185.454916 222.947716 
L 186.575221 222.861613 
L 186.575221 222.818561 
L 188.149136 222.710931 
L 188.199285 222.646353 
L 188.688312 222.538724 
L 188.688312 222.517198 
L 189.277819 222.409568 
L 189.339003 222.344991 
L 191.479549 222.237361 
L 191.479549 222.215835 
L 193.387133 222.129731 
L 193.465625 221.720739 
L 194.522747 221.613109 
L 194.63139 221.354798 
L 194.697652 221.247169 
L 194.781002 220.838176 
L 194.839807 220.730547 
L 194.949977 220.429184 
L 194.973986 220.364606 
L 195.038992 219.97714 
L 195.154732 219.86951 
L 195.246112 219.525095 
L 195.273098 219.482044 
L 195.380636 219.180681 
L 195.440844 219.094577 
L 195.550699 218.879318 
L 195.587168 218.793214 
L 195.593791 218.707111 
L 195.807704 218.621007 
L 195.869752 218.405748 
L 196.750697 218.298118 
L 196.750697 218.276592 
L 197.968154 218.168963 
L 197.968154 218.147437 
L 198.513417 218.039807 
L 198.513417 218.018281 
L 200.306941 217.910652 
L 200.408378 217.824548 
L 200.721708 217.716918 
L 200.721708 217.695392 
L 200.916936 217.673867 
L 200.997859 217.372504 
L 201.801593 217.2864 
L 201.904217 217.006563 
L 201.94603 216.920459 
L 202.040907 216.662148 
L 202.080099 216.597571 
L 202.185719 216.080949 
L 202.240579 215.973319 
L 202.329367 215.715008 
L 202.372464 215.628904 
L 202.476375 215.327542 
L 202.617714 215.219912 
L 202.695756 215.155334 
L 203.835583 215.047705 
L 203.835583 215.026179 
L 205.326708 214.918549 
L 205.330548 214.875497 
L 206.144923 214.767868 
L 206.198039 214.59566 
L 206.408939 214.488031 
L 206.472087 214.423453 
L 206.841066 214.315823 
L 206.939591 213.863779 
L 206.9904 213.799201 
L 207.089847 213.411735 
L 207.147169 213.304105 
L 207.249199 213.045794 
L 207.307732 212.959691 
L 207.391753 212.679854 
L 207.443 212.615276 
L 207.534876 212.421543 
L 208.410785 212.313913 
L 208.414016 212.270861 
L 209.598472 212.163232 
L 209.598472 212.12018 
L 210.269125 212.034076 
L 210.317116 211.689662 
L 210.826809 211.582032 
L 210.930956 211.259143 
L 210.977205 211.17304 
L 211.065167 210.634892 
L 211.142993 210.527262 
L 211.246697 210.225899 
L 211.787168 210.11827 
L 211.88987 210.075218 
L 212.619548 209.989114 
L 212.619548 209.946062 
L 213.547486 209.838433 
L 213.622481 209.623173 
L 213.988075 209.515544 
L 214.074198 209.235707 
L 214.149363 209.128077 
L 214.259192 208.719085 
L 214.294102 208.632981 
L 214.386863 208.4823 
L 215.556301 208.37467 
L 215.556301 208.353144 
L 216.231251 208.245515 
L 216.294767 208.180937 
L 216.37669 208.159411 
L 216.410801 207.836522 
L 216.786835 207.728893 
L 216.894702 207.513634 
L 216.919811 207.406004 
L 217.005918 207.212271 
L 217.113467 207.104641 
L 217.175907 207.040063 
L 218.641702 206.95396 
L 218.6581 206.889382 
L 218.822166 206.781752 
L 218.822166 206.674123 
L 219.093491 206.566493 
L 219.186561 206.329708 
L 219.245696 206.222079 
L 219.345867 205.942242 
L 219.749595 205.834612 
L 219.857209 205.770034 
L 220.455897 205.662405 
L 220.455897 205.619353 
L 220.920009 205.576301 
L 220.946466 205.231886 
L 221.286897 205.124257 
L 221.389572 204.693738 
L 221.474556 204.586109 
L 221.535899 204.392376 
L 222.004861 204.284746 
L 222.004861 204.26322 
L 222.821047 204.15559 
L 222.90453 203.961857 
L 223.14062 203.854228 
L 223.247296 203.552865 
L 223.337227 203.445235 
L 223.361739 203.380657 
L 224.161028 203.273028 
L 224.161028 203.20845 
L 224.539137 203.122346 
L 224.581676 202.777932 
L 224.827071 202.670302 
L 224.877292 202.455043 
L 225.029661 202.347413 
L 225.110439 202.282836 
L 226.017369 202.196732 
L 226.10642 201.830791 
L 226.345496 201.723162 
L 226.45649 201.443325 
L 226.630443 201.335695 
L 226.630443 201.314169 
L 227.433934 201.20654 
L 227.482903 201.163488 
L 227.565512 201.077384 
L 227.565512 201.034332 
L 227.790872 200.948229 
L 227.884574 200.603814 
L 227.979408 200.496185 
L 227.979408 200.474659 
L 228.768131 200.367029 
L 228.820801 200.280925 
L 228.880513 200.280925 
L 228.940025 199.914985 
L 229.113833 199.807355 
L 229.21953 199.613622 
L 229.609062 199.505992 
L 229.628292 199.462941 
L 230.041401 199.355311 
L 230.121163 199.247681 
L 230.332296 199.140052 
L 230.441879 198.903267 
L 231.118756 198.795637 
L 231.214617 198.731059 
L 231.296056 198.62343 
L 231.371762 198.558852 
L 231.500041 198.451222 
L 231.601828 198.343593 
L 232.370561 198.279015 
L 232.455746 198.171385 
L 232.544713 198.063756 
L 232.653639 197.826971 
L 233.167917 197.740867 
L 233.21596 197.611712 
L 233.397275 197.590186 
L 233.443511 197.310349 
L 233.578743 197.202719 
L 233.676454 197.073564 
L 234.368185 196.965934 
L 234.444378 196.858305 
L 234.552452 196.750675 
L 234.611839 196.664571 
L 235.289046 196.556942 
L 235.300889 196.51389 
L 235.488616 196.40626 
L 235.500682 196.363208 
L 236.164766 196.320157 
L 236.19414 196.212527 
L 236.355517 196.104897 
L 236.42977 196.04032 
L 236.999564 195.93269 
L 237.108845 195.803535 
L 237.23518 195.695905 
L 237.23518 195.674379 
L 237.807388 195.566749 
L 237.916503 195.502172 
L 238.254811 195.394542 
L 238.254811 195.373016 
L 238.77007 195.265387 
L 238.77007 195.243861 
L 239.436177 195.136231 
L 239.509183 195.028602 
L 240.174741 194.920972 
L 240.178837 194.87792 
L 240.672744 194.770291 
L 240.681508 194.662661 
L 241.199073 194.555031 
L 241.286804 194.51198 
L 241.333197 194.40435 
L 241.333197 194.382824 
L 241.52365 194.275194 
L 241.550223 194.232143 
L 241.953794 194.189091 
L 241.953794 194.102987 
L 242.251452 193.995358 
L 242.332482 193.952306 
L 243.044283 193.844676 
L 243.149112 193.715521 
L 243.503537 193.607891 
L 243.614051 193.564839 
L 244.237283 193.45721 
L 244.283567 193.392632 
L 244.804341 193.34958 
L 244.804341 193.263476 
L 245.36499 193.155847 
L 245.46135 193.069743 
L 246.319153 192.962113 
L 246.319153 192.897536 
L 247.374698 192.789906 
L 247.463558 192.746854 
L 248.589268 192.639225 
L 248.609041 192.574647 
L 249.824656 192.488543 
L 249.932395 192.423966 
L 250.60321 192.316336 
L 250.70637 192.251758 
L 253.176581 192.144129 
L 253.176581 192.122603 
L 254.367438 192.014973 
L 254.367438 191.993447 
L 256.94872 191.885818 
L 256.94872 191.864292 
L 261.069415 191.756662 
L 261.175465 191.71361 
L 358.8 191.692084 
L 358.8 191.692084 
" style="fill:none;stroke:#ff00ff;stroke-linecap:square;stroke-width:1.5;"/>
   </g>
   <g id="line2d_48">
    <defs>
     <path d="M -0 8.485281 
L 5.091169 0 
L 0 -8.485281 
L -5.091169 -0 
z
" id="mf56b72c09f" style="stroke:#ff00ff;stroke-linejoin:miter;stroke-width:1.5;"/>
    </defs>
    <g>
     <use style="fill:none;stroke:#ff00ff;stroke-linejoin:miter;stroke-width:1.5;" x="128.457622" xlink:href="#mf56b72c09f" y="265.26767"/>
     <use style="fill:none;stroke:#ff00ff;stroke-linejoin:miter;stroke-width:1.5;" x="183.604733" xlink:href="#mf56b72c09f" y="225.14336"/>
     <use style="fill:none;stroke:#ff00ff;stroke-linejoin:miter;stroke-width:1.5;" x="261.882556" xlink:href="#mf56b72c09f" y="191.71361"/>
     <use style="fill:none;stroke:#ff00ff;stroke-linejoin:miter;stroke-width:1.5;" x="261.882556" xlink:href="#mf56b72c09f" y="191.692084"/>
     <use style="fill:none;stroke:#ff00ff;stroke-linejoin:miter;stroke-width:1.5;" x="261.882556" xlink:href="#mf56b72c09f" y="191.692084"/>
     <use style="fill:none;stroke:#ff00ff;stroke-linejoin:miter;stroke-width:1.5;" x="358.8" xlink:href="#mf56b72c09f" y="191.692084"/>
    </g>
   </g>
   <g id="line2d_49"/>
   <g id="line2d_50">
    <path clip-path="url(#pd1f5d07264)" d="M 181.843337 228.458351 
" style="fill:none;stroke:#ff00ff;stroke-linecap:square;stroke-width:1.5;"/>
    <defs>
     <path d="M -12 12 
L 12 -12 
M -12 -12 
L 12 12 
" id="m089b512c8c" style="stroke:#ff00ff;stroke-width:3;"/>
    </defs>
    <g clip-path="url(#pd1f5d07264)">
     <use style="fill:#ff00ff;stroke:#ff00ff;stroke-width:3;" x="181.843337" xlink:href="#m089b512c8c" y="228.458351"/>
    </g>
   </g>
   <g id="line2d_51">
    <path d="M 358.8 191.692084 
L 390.48 292.97583 
" style="fill:none;stroke:#ff00ff;stroke-linecap:square;stroke-width:1.5;"/>
    <g>
     <use style="fill:none;stroke:#ff00ff;stroke-linejoin:miter;stroke-width:1.5;" x="358.8" xlink:href="#mf56b72c09f" y="191.692084"/>
     <use style="fill:none;stroke:#ff00ff;stroke-linejoin:miter;stroke-width:1.5;" x="390.48" xlink:href="#mf56b72c09f" y="292.97583"/>
    </g>
   </g>
   <g id="line2d_52">
    <path d="M 358.8 298.245375 
L 358.8 34.768147 
" style="fill:none;stroke:#000000;stroke-linecap:square;stroke-width:1.5;"/>
   </g>
   <g id="patch_3">
    <path d="M 70.8 298.245375 
L 70.8 32.133375 
" style="fill:none;stroke:#000000;stroke-linecap:square;stroke-linejoin:miter;stroke-width:0.8;"/>
   </g>
   <g id="patch_4">
    <path d="M 427.92 298.245375 
L 427.92 32.133375 
" style="fill:none;stroke:#000000;stroke-linecap:square;stroke-linejoin:miter;stroke-width:0.8;"/>
   </g>
   <g id="patch_5">
    <path d="M 70.8 298.245375 
L 427.92 298.245375 
" style="fill:none;stroke:#000000;stroke-linecap:square;stroke-linejoin:miter;stroke-width:0.8;"/>
   </g>
   <g id="patch_6">
    <path d="M 70.8 32.133375 
L 427.92 32.133375 
" style="fill:none;stroke:#000000;stroke-linecap:square;stroke-linejoin:miter;stroke-width:0.8;"/>
   </g>
   <g id="text_14">
    <!-- deapbbob -->
    <defs>
     <path d="M 48.6875 27.296875 
Q 48.6875 37.203125 44.609375 42.84375 
Q 40.53125 48.484375 33.40625 48.484375 
Q 26.265625 48.484375 22.1875 42.84375 
Q 18.109375 37.203125 18.109375 27.296875 
Q 18.109375 17.390625 22.1875 11.75 
Q 26.265625 6.109375 33.40625 6.109375 
Q 40.53125 6.109375 44.609375 11.75 
Q 48.6875 17.390625 48.6875 27.296875 
M 18.109375 46.390625 
Q 20.953125 51.265625 25.265625 53.625 
Q 29.59375 56 35.59375 56 
Q 45.5625 56 51.78125 48.09375 
Q 58.015625 40.1875 58.015625 27.296875 
Q 58.015625 14.40625 51.78125 6.484375 
Q 45.5625 -1.421875 35.59375 -1.421875 
Q 29.59375 -1.421875 25.265625 0.953125 
Q 20.953125 3.328125 18.109375 8.203125 
L 18.109375 0 
L 9.078125 0 
L 9.078125 75.984375 
L 18.109375 75.984375 
z
" id="DejaVuSans-62"/>
    </defs>
    <g transform="translate(396.24 297.114893)scale(0.15 -0.15)">
     <use xlink:href="#DejaVuSans-64"/>
     <use x="63.476562" xlink:href="#DejaVuSans-65"/>
     <use x="125" xlink:href="#DejaVuSans-61"/>
     <use x="186.279297" xlink:href="#DejaVuSans-70"/>
     <use x="249.755859" xlink:href="#DejaVuSans-62"/>
     <use x="313.232422" xlink:href="#DejaVuSans-62"/>
     <use x="376.708984" xlink:href="#DejaVuSans-6f"/>
     <use x="437.890625" xlink:href="#DejaVuSans-62"/>
    </g>
   </g>
   <g id="text_15">
    <!-- best 2009 -->
    <defs>
     <path d="M 10.984375 1.515625 
L 10.984375 10.5 
Q 14.703125 8.734375 18.5 7.8125 
Q 22.3125 6.890625 25.984375 6.890625 
Q 35.75 6.890625 40.890625 13.453125 
Q 46.046875 20.015625 46.78125 33.40625 
Q 43.953125 29.203125 39.59375 26.953125 
Q 35.25 24.703125 29.984375 24.703125 
Q 19.046875 24.703125 12.671875 31.3125 
Q 6.296875 37.9375 6.296875 49.421875 
Q 6.296875 60.640625 12.9375 67.421875 
Q 19.578125 74.21875 30.609375 74.21875 
Q 43.265625 74.21875 49.921875 64.515625 
Q 56.59375 54.828125 56.59375 36.375 
Q 56.59375 19.140625 48.40625 8.859375 
Q 40.234375 -1.421875 26.421875 -1.421875 
Q 22.703125 -1.421875 18.890625 -0.6875 
Q 15.09375 0.046875 10.984375 1.515625 
M 30.609375 32.421875 
Q 37.25 32.421875 41.125 36.953125 
Q 45.015625 41.5 45.015625 49.421875 
Q 45.015625 57.28125 41.125 61.84375 
Q 37.25 66.40625 30.609375 66.40625 
Q 23.96875 66.40625 20.09375 61.84375 
Q 16.21875 57.28125 16.21875 49.421875 
Q 16.21875 41.5 20.09375 36.953125 
Q 23.96875 32.421875 30.609375 32.421875 
" id="DejaVuSans-39"/>
    </defs>
    <g transform="translate(396.24 44.176754)scale(0.15 -0.15)">
     <use xlink:href="#DejaVuSans-62"/>
     <use x="63.476562" xlink:href="#DejaVuSans-65"/>
     <use x="125" xlink:href="#DejaVuSans-73"/>
     <use x="177.099609" xlink:href="#DejaVuSans-74"/>
     <use x="216.308594" xlink:href="#DejaVuSans-20"/>
     <use x="248.095703" xlink:href="#DejaVuSans-32"/>
     <use x="311.71875" xlink:href="#DejaVuSans-30"/>
     <use x="375.341797" xlink:href="#DejaVuSans-30"/>
     <use x="438.964844" xlink:href="#DejaVuSans-39"/>
    </g>
   </g>
   <g id="text_16">
    <!-- bbob - f1-f24, 5-D -->
    <defs>
     <path d="M 11.71875 12.40625 
L 22.015625 12.40625 
L 22.015625 4 
L 14.015625 -11.625 
L 7.71875 -11.625 
L 11.71875 4 
z
" id="DejaVuSans-2c"/>
     <path d="M 10.796875 72.90625 
L 49.515625 72.90625 
L 49.515625 64.59375 
L 19.828125 64.59375 
L 19.828125 46.734375 
Q 21.96875 47.46875 24.109375 47.828125 
Q 26.265625 48.1875 28.421875 48.1875 
Q 40.625 48.1875 47.75 41.5 
Q 54.890625 34.8125 54.890625 23.390625 
Q 54.890625 11.625 47.5625 5.09375 
Q 40.234375 -1.421875 26.90625 -1.421875 
Q 22.3125 -1.421875 17.546875 -0.640625 
Q 12.796875 0.140625 7.71875 1.703125 
L 7.71875 11.625 
Q 12.109375 9.234375 16.796875 8.0625 
Q 21.484375 6.890625 26.703125 6.890625 
Q 35.15625 6.890625 40.078125 11.328125 
Q 45.015625 15.765625 45.015625 23.390625 
Q 45.015625 31 40.078125 35.4375 
Q 35.15625 39.890625 26.703125 39.890625 
Q 22.75 39.890625 18.8125 39.015625 
Q 14.890625 38.140625 10.796875 36.28125 
z
" id="DejaVuSans-35"/>
     <path d="M 19.671875 64.796875 
L 19.671875 8.109375 
L 31.59375 8.109375 
Q 46.6875 8.109375 53.6875 14.9375 
Q 60.6875 21.78125 60.6875 36.53125 
Q 60.6875 51.171875 53.6875 57.984375 
Q 46.6875 64.796875 31.59375 64.796875 
z
M 9.8125 72.90625 
L 30.078125 72.90625 
Q 51.265625 72.90625 61.171875 64.09375 
Q 71.09375 55.28125 71.09375 36.53125 
Q 71.09375 17.671875 61.125 8.828125 
Q 51.171875 0 30.078125 0 
L 9.8125 0 
z
" id="DejaVuSans-44"/>
    </defs>
    <g transform="translate(74.3712 50.114612)scale(0.1666 -0.1666)">
     <use xlink:href="#DejaVuSans-62"/>
     <use x="63.476562" xlink:href="#DejaVuSans-62"/>
     <use x="126.953125" xlink:href="#DejaVuSans-6f"/>
     <use x="188.134766" xlink:href="#DejaVuSans-62"/>
     <use x="251.611328" xlink:href="#DejaVuSans-20"/>
     <use x="283.398438" xlink:href="#DejaVuSans-2d"/>
     <use x="319.482422" xlink:href="#DejaVuSans-20"/>
     <use x="351.269531" xlink:href="#DejaVuSans-66"/>
     <use x="386.474609" xlink:href="#DejaVuSans-31"/>
     <use x="450.097656" xlink:href="#DejaVuSans-2d"/>
     <use x="486.181641" xlink:href="#DejaVuSans-66"/>
     <use x="521.386719" xlink:href="#DejaVuSans-32"/>
     <use x="585.009766" xlink:href="#DejaVuSans-34"/>
     <use x="648.632812" xlink:href="#DejaVuSans-2c"/>
     <use x="680.419922" xlink:href="#DejaVuSans-20"/>
     <use x="712.207031" xlink:href="#DejaVuSans-35"/>
     <use x="775.830078" xlink:href="#DejaVuSans-2d"/>
     <use x="811.914062" xlink:href="#DejaVuSans-44"/>
    </g>
    <!-- 51 targets in 100..1e-08 -->
    <g transform="translate(74.3712 68.770168)scale(0.1666 -0.1666)">
     <use xlink:href="#DejaVuSans-35"/>
     <use x="63.623047" xlink:href="#DejaVuSans-31"/>
     <use x="127.246094" xlink:href="#DejaVuSans-20"/>
     <use x="159.033203" xlink:href="#DejaVuSans-74"/>
     <use x="198.242188" xlink:href="#DejaVuSans-61"/>
     <use x="259.521484" xlink:href="#DejaVuSans-72"/>
     <use x="300.619141" xlink:href="#DejaVuSans-67"/>
     <use x="364.095703" xlink:href="#DejaVuSans-65"/>
     <use x="425.619141" xlink:href="#DejaVuSans-74"/>
     <use x="464.828125" xlink:href="#DejaVuSans-73"/>
     <use x="516.927734" xlink:href="#DejaVuSans-20"/>
     <use x="548.714844" xlink:href="#DejaVuSans-69"/>
     <use x="576.498047" xlink:href="#DejaVuSans-6e"/>
     <use x="639.876953" xlink:href="#DejaVuSans-20"/>
     <use x="671.664062" xlink:href="#DejaVuSans-31"/>
     <use x="735.287109" xlink:href="#DejaVuSans-30"/>
     <use x="798.910156" xlink:href="#DejaVuSans-30"/>
     <use x="862.533203" xlink:href="#DejaVuSans-2e"/>
     <use x="894.320312" xlink:href="#DejaVuSans-2e"/>
     <use x="926.107422" xlink:href="#DejaVuSans-31"/>
     <use x="989.730469" xlink:href="#DejaVuSans-65"/>
     <use x="1051.253906" xlink:href="#DejaVuSans-2d"/>
     <use x="1087.337891" xlink:href="#DejaVuSans-30"/>
     <use x="1150.960938" xlink:href="#DejaVuSans-38"/>
    </g>
    <!-- 15 instances -->
    <g transform="translate(74.3712 87.425723)scale(0.1666 -0.1666)">
     <use xlink:href="#DejaVuSans-31"/>
     <use x="63.623047" xlink:href="#DejaVuSans-35"/>
     <use x="127.246094" xlink:href="#DejaVuSans-20"/>
     <use x="159.033203" xlink:href="#DejaVuSans-69"/>
     <use x="186.816406" xlink:href="#DejaVuSans-6e"/>
     <use x="250.195312" xlink:href="#DejaVuSans-73"/>
     <use x="302.294922" xlink:href="#DejaVuSans-74"/>
     <use x="341.503906" xlink:href="#DejaVuSans-61"/>
     <use x="402.783203" xlink:href="#DejaVuSans-6e"/>
     <use x="466.162109" xlink:href="#DejaVuSans-63"/>
     <use x="521.142578" xlink:href="#DejaVuSans-65"/>
     <use x="582.666016" xlink:href="#DejaVuSans-73"/>
    </g>
   </g>
   <g id="text_17">
    <!-- v2.1 -->
    <g style="fill:#808080;" transform="translate(238.449063 293.504568)scale(0.1 -0.1)">
     <use xlink:href="#DejaVuSans-76"/>
     <use x="59.179688" xlink:href="#DejaVuSans-32"/>
     <use x="122.802734" xlink:href="#DejaVuSans-2e"/>
     <use x="154.589844" xlink:href="#DejaVuSans-31"/>
    </g>
   </g>
  </g>
 </g>
 <defs>
  <clipPath id="pd1f5d07264">
   <rect height="266.112" width="357.12" x="70.8" y="32.133375"/>
  </clipPath>
 </defs>
</svg>
