<?xml version="1.0" encoding="utf-8" standalone="no"?>
<!DOCTYPE svg PUBLIC "-//W3C//DTD SVG 1.1//EN"
  "http://www.w3.org/Graphics/SVG/1.1/DTD/svg11.dtd">
<!-- Created with matplotlib (http://matplotlib.org/) -->
<svg height="353pt" version="1.1" viewBox="0 0 478 353" width="478pt" xmlns="http://www.w3.org/2000/svg" xmlns:xlink="http://www.w3.org/1999/xlink">
 <defs>
  <style type="text/css">
*{stroke-linecap:butt;stroke-linejoin:round;}
  </style>
 </defs>
 <g id="figure_1">
  <g id="patch_1">
   <path d="M 0 353.22225 
L 478.829063 353.22225 
L 478.829063 0 
L 0 0 
z
" style="fill:#ffffff;"/>
  </g>
  <g id="axes_1">
   <g id="patch_2">
    <path d="M 70.8 298.245375 
L 427.92 298.245375 
L 427.92 32.133375 
L 70.8 32.133375 
z
" style="fill:#ffffff;"/>
   </g>
   <g id="line2d_1">
    <path d="M 51.169868 298.245375 
L 51.169868 291.7876 
L 70.8 291.7876 
L 70.8 290.496045 
L 75.940337 290.496045 
L 75.940337 289.20449 
L 79.927491 289.20449 
L 79.927491 287.912935 
L 88.325571 287.912935 
L 88.325571 282.746715 
L 94.015739 282.746715 
L 94.015739 281.45516 
L 97.000681 281.45516 
L 97.000681 280.163604 
L 99.557623 280.163604 
L 99.557623 278.872049 
L 100.710805 278.872049 
L 100.710805 277.580494 
L 101.794053 277.580494 
L 101.794053 276.288939 
L 102.815366 276.288939 
L 102.815366 274.997384 
L 103.781445 274.997384 
L 103.781445 273.705829 
L 104.69796 273.705829 
L 104.69796 272.414274 
L 105.569748 272.414274 
L 105.569748 271.122719 
L 107.955702 271.122719 
L 107.955702 269.831164 
L 108.685114 269.831164 
L 108.685114 265.956499 
L 110.060263 265.956499 
L 110.060263 264.664944 
L 112.528749 264.664944 
L 112.528749 260.790279 
L 113.096039 260.790279 
L 113.096039 259.498724 
L 114.179287 259.498724 
L 114.179287 258.207169 
L 116.166679 258.207169 
L 116.166679 256.915614 
L 116.630812 256.915614 
L 116.630812 255.624059 
L 117.083194 255.624059 
L 117.083194 253.040949 
L 119.187755 253.040949 
L 119.187755 251.749394 
L 119.580476 251.749394 
L 119.580476 250.457839 
L 120.340936 250.457839 
L 120.340936 249.166284 
L 120.709364 249.166284 
L 120.709364 247.874729 
L 121.771149 247.874729 
L 121.771149 246.583173 
L 123.095319 246.583173 
L 123.095319 245.291618 
L 123.722334 245.291618 
L 123.722334 244.000063 
L 124.623439 244.000063 
L 124.623439 242.708508 
L 125.758304 242.708508 
L 125.758304 240.125398 
L 126.031105 240.125398 
L 126.031105 238.833843 
L 127.335926 238.833843 
L 127.335926 237.542288 
L 128.075402 237.542288 
L 128.075402 236.250733 
L 129.016046 236.250733 
L 129.016046 234.959178 
L 129.243669 234.959178 
L 129.243669 233.667623 
L 131.373343 233.667623 
L 131.373343 232.376068 
L 131.572989 232.376068 
L 131.572989 231.084513 
L 133.276002 231.084513 
L 133.276002 229.792958 
L 133.983743 229.792958 
L 133.983743 228.501403 
L 134.156383 228.501403 
L 134.156383 227.209848 
L 134.664515 227.209848 
L 134.664515 225.918293 
L 135.480553 225.918293 
L 135.480553 224.626738 
L 135.796811 224.626738 
L 135.796811 223.335183 
L 136.107569 223.335183 
L 136.107569 222.043628 
L 136.260944 222.043628 
L 136.260944 220.752073 
L 137.442737 220.752073 
L 137.442737 219.460518 
L 137.726364 219.460518 
L 137.726364 218.168963 
L 137.866507 218.168963 
L 137.866507 216.877408 
L 138.143538 216.877408 
L 138.143538 215.585853 
L 138.416339 215.585853 
L 138.416339 214.294298 
L 138.949755 214.294298 
L 138.949755 213.002743 
L 139.210608 213.002743 
L 139.210608 211.711187 
L 139.33962 211.711187 
L 139.33962 210.419632 
L 139.846551 210.419632 
L 139.846551 207.836522 
L 140.094723 207.836522 
L 140.094723 206.544967 
L 140.217529 206.544967 
L 140.217529 205.253412 
L 140.580961 205.253412 
L 140.580961 202.670302 
L 140.937147 202.670302 
L 140.937147 200.087192 
L 141.170721 200.087192 
L 141.170721 198.795637 
L 141.286373 198.795637 
L 141.286373 197.504082 
L 141.628903 197.504082 
L 141.628903 196.212527 
L 141.741636 196.212527 
L 141.741636 192.337862 
L 141.853662 192.337862 
L 141.853662 191.046307 
L 142.075629 191.046307 
L 142.075629 188.463197 
L 142.294872 188.463197 
L 142.403494 183.296977 
L 142.511458 183.296977 
L 142.618775 179.422312 
L 142.72545 179.422312 
L 142.831493 176.839201 
L 142.93691 176.839201 
L 143.041708 174.256091 
L 143.145896 174.256091 
L 143.145896 171.672981 
L 143.352466 171.672981 
L 143.454862 163.923651 
L 143.556675 163.923651 
L 143.657911 158.757431 
L 143.758577 158.757431 
L 143.858679 153.591211 
L 143.958223 153.591211 
L 144.057215 149.716546 
L 144.155663 149.716546 
L 144.25357 147.133436 
L 144.350945 147.133436 
L 144.350945 145.841881 
L 144.544115 145.841881 
L 144.544115 143.25877 
L 144.73522 143.25877 
L 144.830011 140.67566 
L 144.924302 140.67566 
L 145.018098 138.09255 
L 145.111405 138.09255 
L 145.111405 136.800995 
L 145.296568 136.800995 
L 145.388435 132.92633 
L 145.479832 132.92633 
L 145.570765 127.76011 
L 145.661236 127.76011 
L 145.661236 125.177 
L 145.929935 125.177 
L 146.01861 120.01078 
L 146.106848 120.01078 
L 146.194652 117.42767 
L 146.282027 117.42767 
L 146.368977 114.84456 
L 146.541617 114.84456 
L 146.627316 107.095229 
L 146.712605 107.095229 
L 146.712605 104.512119 
L 147.133051 104.512119 
L 147.215966 101.929009 
L 147.624865 101.929009 
L 147.624865 100.637454 
L 148.024616 100.637454 
L 148.024616 99.345899 
L 148.415618 99.345899 
L 148.415618 98.054344 
L 148.798248 98.054344 
L 148.798248 96.762789 
L 149.098559 96.762789 
L 149.098559 95.471234 
L 149.320526 95.471234 
L 149.320526 94.179679 
L 149.612257 94.179679 
L 149.612257 92.888124 
L 149.756356 92.888124 
L 149.756356 91.596569 
L 150.041113 91.596569 
L 150.041113 90.305014 
L 150.528772 90.305014 
L 150.528772 89.013459 
L 150.869127 89.013459 
L 150.869127 87.721904 
L 151.269176 87.721904 
L 151.269176 86.430349 
L 151.660465 86.430349 
L 151.660465 85.138794 
L 152.106394 85.138794 
L 152.106394 83.847239 
L 152.541466 83.847239 
L 152.541466 82.555684 
L 152.72473 82.555684 
L 152.72473 81.264129 
L 155.426942 81.264129 
L 155.426942 79.972574 
L 156.193932 79.972574 
L 156.193932 78.681019 
L 156.589918 78.681019 
L 156.589918 77.389464 
L 157.025157 77.389464 
L 157.025157 76.097908 
L 157.496639 76.097908 
L 157.496639 74.806353 
L 160.878037 74.806353 
L 160.878037 73.514798 
L 161.107609 73.514798 
L 161.107609 72.223243 
L 161.483794 72.223243 
L 161.558089 46.392143 
L 161.925004 46.392143 
L 161.925004 45.100588 
L 162.567041 45.100588 
L 162.567041 43.809033 
L 162.914006 43.809033 
L 162.914006 42.517478 
L 163.422138 42.517478 
L 163.422138 41.225922 
L 164.077923 41.225922 
L 164.077923 39.934367 
L 164.491628 39.934367 
L 164.491628 38.642812 
L 165.07955 38.642812 
L 165.07955 37.351257 
L 165.53041 37.351257 
L 165.53041 36.059702 
L 165.883081 36.059702 
L 165.883081 34.768147 
L 358.8 34.768147 
L 358.8 34.768147 
" style="fill:none;stroke:#f5deb3;stroke-linecap:square;stroke-width:6;"/>
   </g>
   <g id="line2d_2"/>
   <g id="line2d_3">
    <path d="M 358.8 34.768147 
L 390.48 40.037692 
" style="fill:none;stroke:#f5deb3;stroke-linecap:square;stroke-width:6;"/>
    <defs>
     <path d="M -0 7.778175 
L 7.778175 0 
L 0 -7.778175 
L -7.778175 -0 
z
" id="mf1d25fe305" style="stroke:#f5deb3;stroke-linejoin:miter;stroke-width:1.5;"/>
    </defs>
    <g>
     <use style="fill:#f5deb3;stroke:#f5deb3;stroke-linejoin:miter;stroke-width:1.5;" x="358.8" xlink:href="#mf1d25fe305" y="34.768147"/>
     <use style="fill:#f5deb3;stroke:#f5deb3;stroke-linejoin:miter;stroke-width:1.5;" x="390.48" xlink:href="#mf1d25fe305" y="40.037692"/>
    </g>
   </g>
   <g id="matplotlib.axis_1">
    <g id="xtick_1">
     <g id="line2d_4">
      <path clip-path="url(#pc9eaeddef3)" d="M 70.8 298.245375 
L 70.8 32.133375 
" style="fill:none;stroke:#b0b0b0;stroke-linecap:square;stroke-width:0.8;"/>
     </g>
     <g id="line2d_5">
      <defs>
       <path d="M 0 0 
L 0 3.5 
" id="m80928d19e3" style="stroke:#000000;stroke-width:0.8;"/>
      </defs>
      <g>
       <use style="stroke:#000000;stroke-width:0.8;" x="70.8" xlink:href="#m80928d19e3" y="298.245375"/>
      </g>
     </g>
     <g id="text_1">
      <!-- 0 -->
      <defs>
       <path d="M 31.78125 66.40625 
Q 24.171875 66.40625 20.328125 58.90625 
Q 16.5 51.421875 16.5 36.375 
Q 16.5 21.390625 20.328125 13.890625 
Q 24.171875 6.390625 31.78125 6.390625 
Q 39.453125 6.390625 43.28125 13.890625 
Q 47.125 21.390625 47.125 36.375 
Q 47.125 51.421875 43.28125 58.90625 
Q 39.453125 66.40625 31.78125 66.40625 
M 31.78125 74.21875 
Q 44.046875 74.21875 50.515625 64.515625 
Q 56.984375 54.828125 56.984375 36.375 
Q 56.984375 17.96875 50.515625 8.265625 
Q 44.046875 -1.421875 31.78125 -1.421875 
Q 19.53125 -1.421875 13.0625 8.265625 
Q 6.59375 17.96875 6.59375 36.375 
Q 6.59375 54.828125 13.0625 64.515625 
Q 19.53125 74.21875 31.78125 74.21875 
" id="DejaVuSans-30"/>
      </defs>
      <g transform="translate(64.4375 320.44225)scale(0.2 -0.2)">
       <use xlink:href="#DejaVuSans-30"/>
      </g>
     </g>
    </g>
    <g id="xtick_2">
     <g id="line2d_6">
      <path clip-path="url(#pc9eaeddef3)" d="M 153.085714 298.245375 
L 153.085714 32.133375 
" style="fill:none;stroke:#b0b0b0;stroke-linecap:square;stroke-width:0.8;"/>
     </g>
     <g id="line2d_7">
      <g>
       <use style="stroke:#000000;stroke-width:0.8;" x="153.085714" xlink:href="#m80928d19e3" y="298.245375"/>
      </g>
     </g>
     <g id="text_2">
      <!-- 2 -->
      <defs>
       <path d="M 19.1875 8.296875 
L 53.609375 8.296875 
L 53.609375 0 
L 7.328125 0 
L 7.328125 8.296875 
Q 12.9375 14.109375 22.625 23.890625 
Q 32.328125 33.6875 34.8125 36.53125 
Q 39.546875 41.84375 41.421875 45.53125 
Q 43.3125 49.21875 43.3125 52.78125 
Q 43.3125 58.59375 39.234375 62.25 
Q 35.15625 65.921875 28.609375 65.921875 
Q 23.96875 65.921875 18.8125 64.3125 
Q 13.671875 62.703125 7.8125 59.421875 
L 7.8125 69.390625 
Q 13.765625 71.78125 18.9375 73 
Q 24.125 74.21875 28.421875 74.21875 
Q 39.75 74.21875 46.484375 68.546875 
Q 53.21875 62.890625 53.21875 53.421875 
Q 53.21875 48.921875 51.53125 44.890625 
Q 49.859375 40.875 45.40625 35.40625 
Q 44.1875 33.984375 37.640625 27.21875 
Q 31.109375 20.453125 19.1875 8.296875 
" id="DejaVuSans-32"/>
      </defs>
      <g transform="translate(146.723214 320.44225)scale(0.2 -0.2)">
       <use xlink:href="#DejaVuSans-32"/>
      </g>
     </g>
    </g>
    <g id="xtick_3">
     <g id="line2d_8">
      <path clip-path="url(#pc9eaeddef3)" d="M 235.371429 298.245375 
L 235.371429 32.133375 
" style="fill:none;stroke:#b0b0b0;stroke-linecap:square;stroke-width:0.8;"/>
     </g>
     <g id="line2d_9">
      <g>
       <use style="stroke:#000000;stroke-width:0.8;" x="235.371429" xlink:href="#m80928d19e3" y="298.245375"/>
      </g>
     </g>
     <g id="text_3">
      <!-- 4 -->
      <defs>
       <path d="M 37.796875 64.3125 
L 12.890625 25.390625 
L 37.796875 25.390625 
z
M 35.203125 72.90625 
L 47.609375 72.90625 
L 47.609375 25.390625 
L 58.015625 25.390625 
L 58.015625 17.1875 
L 47.609375 17.1875 
L 47.609375 0 
L 37.796875 0 
L 37.796875 17.1875 
L 4.890625 17.1875 
L 4.890625 26.703125 
z
" id="DejaVuSans-34"/>
      </defs>
      <g transform="translate(229.008929 320.44225)scale(0.2 -0.2)">
       <use xlink:href="#DejaVuSans-34"/>
      </g>
     </g>
    </g>
    <g id="xtick_4">
     <g id="line2d_10">
      <path clip-path="url(#pc9eaeddef3)" d="M 317.657143 298.245375 
L 317.657143 32.133375 
" style="fill:none;stroke:#b0b0b0;stroke-linecap:square;stroke-width:0.8;"/>
     </g>
     <g id="line2d_11">
      <g>
       <use style="stroke:#000000;stroke-width:0.8;" x="317.657143" xlink:href="#m80928d19e3" y="298.245375"/>
      </g>
     </g>
     <g id="text_4">
      <!-- 6 -->
      <defs>
       <path d="M 33.015625 40.375 
Q 26.375 40.375 22.484375 35.828125 
Q 18.609375 31.296875 18.609375 23.390625 
Q 18.609375 15.53125 22.484375 10.953125 
Q 26.375 6.390625 33.015625 6.390625 
Q 39.65625 6.390625 43.53125 10.953125 
Q 47.40625 15.53125 47.40625 23.390625 
Q 47.40625 31.296875 43.53125 35.828125 
Q 39.65625 40.375 33.015625 40.375 
M 52.59375 71.296875 
L 52.59375 62.3125 
Q 48.875 64.0625 45.09375 64.984375 
Q 41.3125 65.921875 37.59375 65.921875 
Q 27.828125 65.921875 22.671875 59.328125 
Q 17.53125 52.734375 16.796875 39.40625 
Q 19.671875 43.65625 24.015625 45.921875 
Q 28.375 48.1875 33.59375 48.1875 
Q 44.578125 48.1875 50.953125 41.515625 
Q 57.328125 34.859375 57.328125 23.390625 
Q 57.328125 12.15625 50.6875 5.359375 
Q 44.046875 -1.421875 33.015625 -1.421875 
Q 20.359375 -1.421875 13.671875 8.265625 
Q 6.984375 17.96875 6.984375 36.375 
Q 6.984375 53.65625 15.1875 63.9375 
Q 23.390625 74.21875 37.203125 74.21875 
Q 40.921875 74.21875 44.703125 73.484375 
Q 48.484375 72.75 52.59375 71.296875 
" id="DejaVuSans-36"/>
      </defs>
      <g transform="translate(311.294643 320.44225)scale(0.2 -0.2)">
       <use xlink:href="#DejaVuSans-36"/>
      </g>
     </g>
    </g>
    <g id="xtick_5">
     <g id="line2d_12">
      <path clip-path="url(#pc9eaeddef3)" d="M 399.942857 298.245375 
L 399.942857 32.133375 
" style="fill:none;stroke:#b0b0b0;stroke-linecap:square;stroke-width:0.8;"/>
     </g>
     <g id="line2d_13">
      <g>
       <use style="stroke:#000000;stroke-width:0.8;" x="399.942857" xlink:href="#m80928d19e3" y="298.245375"/>
      </g>
     </g>
     <g id="text_5">
      <!-- 8 -->
      <defs>
       <path d="M 31.78125 34.625 
Q 24.75 34.625 20.71875 30.859375 
Q 16.703125 27.09375 16.703125 20.515625 
Q 16.703125 13.921875 20.71875 10.15625 
Q 24.75 6.390625 31.78125 6.390625 
Q 38.8125 6.390625 42.859375 10.171875 
Q 46.921875 13.96875 46.921875 20.515625 
Q 46.921875 27.09375 42.890625 30.859375 
Q 38.875 34.625 31.78125 34.625 
M 21.921875 38.8125 
Q 15.578125 40.375 12.03125 44.71875 
Q 8.5 49.078125 8.5 55.328125 
Q 8.5 64.0625 14.71875 69.140625 
Q 20.953125 74.21875 31.78125 74.21875 
Q 42.671875 74.21875 48.875 69.140625 
Q 55.078125 64.0625 55.078125 55.328125 
Q 55.078125 49.078125 51.53125 44.71875 
Q 48 40.375 41.703125 38.8125 
Q 48.828125 37.15625 52.796875 32.3125 
Q 56.78125 27.484375 56.78125 20.515625 
Q 56.78125 9.90625 50.3125 4.234375 
Q 43.84375 -1.421875 31.78125 -1.421875 
Q 19.734375 -1.421875 13.25 4.234375 
Q 6.78125 9.90625 6.78125 20.515625 
Q 6.78125 27.484375 10.78125 32.3125 
Q 14.796875 37.15625 21.921875 38.8125 
M 18.3125 54.390625 
Q 18.3125 48.734375 21.84375 45.5625 
Q 25.390625 42.390625 31.78125 42.390625 
Q 38.140625 42.390625 41.71875 45.5625 
Q 45.3125 48.734375 45.3125 54.390625 
Q 45.3125 60.0625 41.71875 63.234375 
Q 38.140625 66.40625 31.78125 66.40625 
Q 25.390625 66.40625 21.84375 63.234375 
Q 18.3125 60.0625 18.3125 54.390625 
" id="DejaVuSans-38"/>
      </defs>
      <g transform="translate(393.580357 320.44225)scale(0.2 -0.2)">
       <use xlink:href="#DejaVuSans-38"/>
      </g>
     </g>
    </g>
    <g id="xtick_6">
     <g id="line2d_14">
      <defs>
       <path d="M 0 0 
L 0 2 
" id="m7a68bd0bf0" style="stroke:#000000;stroke-width:0.6;"/>
      </defs>
      <g>
       <use style="stroke:#000000;stroke-width:0.6;" x="83.185234" xlink:href="#m7a68bd0bf0" y="298.245375"/>
      </g>
     </g>
    </g>
    <g id="xtick_7">
     <g id="line2d_15">
      <g>
       <use style="stroke:#000000;stroke-width:0.6;" x="95.570468" xlink:href="#m7a68bd0bf0" y="298.245375"/>
      </g>
     </g>
    </g>
    <g id="xtick_8">
     <g id="line2d_16">
      <g>
       <use style="stroke:#000000;stroke-width:0.6;" x="102.815366" xlink:href="#m7a68bd0bf0" y="298.245375"/>
      </g>
     </g>
    </g>
    <g id="xtick_9">
     <g id="line2d_17">
      <g>
       <use style="stroke:#000000;stroke-width:0.6;" x="107.955702" xlink:href="#m7a68bd0bf0" y="298.245375"/>
      </g>
     </g>
    </g>
    <g id="xtick_10">
     <g id="line2d_18">
      <g>
       <use style="stroke:#000000;stroke-width:0.6;" x="165.470948" xlink:href="#m7a68bd0bf0" y="298.245375"/>
      </g>
     </g>
    </g>
    <g id="xtick_11">
     <g id="line2d_19">
      <g>
       <use style="stroke:#000000;stroke-width:0.6;" x="177.856183" xlink:href="#m7a68bd0bf0" y="298.245375"/>
      </g>
     </g>
    </g>
    <g id="xtick_12">
     <g id="line2d_20">
      <g>
       <use style="stroke:#000000;stroke-width:0.6;" x="185.10108" xlink:href="#m7a68bd0bf0" y="298.245375"/>
      </g>
     </g>
    </g>
    <g id="xtick_13">
     <g id="line2d_21">
      <g>
       <use style="stroke:#000000;stroke-width:0.6;" x="190.241417" xlink:href="#m7a68bd0bf0" y="298.245375"/>
      </g>
     </g>
    </g>
    <g id="xtick_14">
     <g id="line2d_22">
      <g>
       <use style="stroke:#000000;stroke-width:0.6;" x="247.756663" xlink:href="#m7a68bd0bf0" y="298.245375"/>
      </g>
     </g>
    </g>
    <g id="xtick_15">
     <g id="line2d_23">
      <g>
       <use style="stroke:#000000;stroke-width:0.6;" x="260.141897" xlink:href="#m7a68bd0bf0" y="298.245375"/>
      </g>
     </g>
    </g>
    <g id="xtick_16">
     <g id="line2d_24">
      <g>
       <use style="stroke:#000000;stroke-width:0.6;" x="267.386794" xlink:href="#m7a68bd0bf0" y="298.245375"/>
      </g>
     </g>
    </g>
    <g id="xtick_17">
     <g id="line2d_25">
      <g>
       <use style="stroke:#000000;stroke-width:0.6;" x="272.527131" xlink:href="#m7a68bd0bf0" y="298.245375"/>
      </g>
     </g>
    </g>
    <g id="xtick_18">
     <g id="line2d_26">
      <g>
       <use style="stroke:#000000;stroke-width:0.6;" x="330.042377" xlink:href="#m7a68bd0bf0" y="298.245375"/>
      </g>
     </g>
    </g>
    <g id="xtick_19">
     <g id="line2d_27">
      <g>
       <use style="stroke:#000000;stroke-width:0.6;" x="342.427611" xlink:href="#m7a68bd0bf0" y="298.245375"/>
      </g>
     </g>
    </g>
    <g id="xtick_20">
     <g id="line2d_28">
      <g>
       <use style="stroke:#000000;stroke-width:0.6;" x="349.672509" xlink:href="#m7a68bd0bf0" y="298.245375"/>
      </g>
     </g>
    </g>
    <g id="xtick_21">
     <g id="line2d_29">
      <g>
       <use style="stroke:#000000;stroke-width:0.6;" x="354.812845" xlink:href="#m7a68bd0bf0" y="298.245375"/>
      </g>
     </g>
    </g>
    <g id="xtick_22">
     <g id="line2d_30">
      <g>
       <use style="stroke:#000000;stroke-width:0.6;" x="412.328091" xlink:href="#m7a68bd0bf0" y="298.245375"/>
      </g>
     </g>
    </g>
    <g id="xtick_23">
     <g id="line2d_31">
      <g>
       <use style="stroke:#000000;stroke-width:0.6;" x="424.713325" xlink:href="#m7a68bd0bf0" y="298.245375"/>
      </g>
     </g>
    </g>
    <g id="text_6">
     <!-- log10 of (# f-evals / dimension) -->
     <defs>
      <path d="M 9.421875 75.984375 
L 18.40625 75.984375 
L 18.40625 0 
L 9.421875 0 
z
" id="DejaVuSans-6c"/>
      <path d="M 30.609375 48.390625 
Q 23.390625 48.390625 19.1875 42.75 
Q 14.984375 37.109375 14.984375 27.296875 
Q 14.984375 17.484375 19.15625 11.84375 
Q 23.34375 6.203125 30.609375 6.203125 
Q 37.796875 6.203125 41.984375 11.859375 
Q 46.1875 17.53125 46.1875 27.296875 
Q 46.1875 37.015625 41.984375 42.703125 
Q 37.796875 48.390625 30.609375 48.390625 
M 30.609375 56 
Q 42.328125 56 49.015625 48.375 
Q 55.71875 40.765625 55.71875 27.296875 
Q 55.71875 13.875 49.015625 6.21875 
Q 42.328125 -1.421875 30.609375 -1.421875 
Q 18.84375 -1.421875 12.171875 6.21875 
Q 5.515625 13.875 5.515625 27.296875 
Q 5.515625 40.765625 12.171875 48.375 
Q 18.84375 56 30.609375 56 
" id="DejaVuSans-6f"/>
      <path d="M 45.40625 27.984375 
Q 45.40625 37.75 41.375 43.109375 
Q 37.359375 48.484375 30.078125 48.484375 
Q 22.859375 48.484375 18.828125 43.109375 
Q 14.796875 37.75 14.796875 27.984375 
Q 14.796875 18.265625 18.828125 12.890625 
Q 22.859375 7.515625 30.078125 7.515625 
Q 37.359375 7.515625 41.375 12.890625 
Q 45.40625 18.265625 45.40625 27.984375 
M 54.390625 6.78125 
Q 54.390625 -7.171875 48.1875 -13.984375 
Q 42 -20.796875 29.203125 -20.796875 
Q 24.46875 -20.796875 20.265625 -20.09375 
Q 16.0625 -19.390625 12.109375 -17.921875 
L 12.109375 -9.1875 
Q 16.0625 -11.328125 19.921875 -12.34375 
Q 23.78125 -13.375 27.78125 -13.375 
Q 36.625 -13.375 41.015625 -8.765625 
Q 45.40625 -4.15625 45.40625 5.171875 
L 45.40625 9.625 
Q 42.625 4.78125 38.28125 2.390625 
Q 33.9375 0 27.875 0 
Q 17.828125 0 11.671875 7.65625 
Q 5.515625 15.328125 5.515625 27.984375 
Q 5.515625 40.671875 11.671875 48.328125 
Q 17.828125 56 27.875 56 
Q 33.9375 56 38.28125 53.609375 
Q 42.625 51.21875 45.40625 46.390625 
L 45.40625 54.6875 
L 54.390625 54.6875 
z
" id="DejaVuSans-67"/>
      <path d="M 12.40625 8.296875 
L 28.515625 8.296875 
L 28.515625 63.921875 
L 10.984375 60.40625 
L 10.984375 69.390625 
L 28.421875 72.90625 
L 38.28125 72.90625 
L 38.28125 8.296875 
L 54.390625 8.296875 
L 54.390625 0 
L 12.40625 0 
z
" id="DejaVuSans-31"/>
      <path id="DejaVuSans-20"/>
      <path d="M 37.109375 75.984375 
L 37.109375 68.5 
L 28.515625 68.5 
Q 23.6875 68.5 21.796875 66.546875 
Q 19.921875 64.59375 19.921875 59.515625 
L 19.921875 54.6875 
L 34.71875 54.6875 
L 34.71875 47.703125 
L 19.921875 47.703125 
L 19.921875 0 
L 10.890625 0 
L 10.890625 47.703125 
L 2.296875 47.703125 
L 2.296875 54.6875 
L 10.890625 54.6875 
L 10.890625 58.5 
Q 10.890625 67.625 15.140625 71.796875 
Q 19.390625 75.984375 28.609375 75.984375 
z
" id="DejaVuSans-66"/>
      <path d="M 31 75.875 
Q 24.46875 64.65625 21.28125 53.65625 
Q 18.109375 42.671875 18.109375 31.390625 
Q 18.109375 20.125 21.3125 9.0625 
Q 24.515625 -2 31 -13.1875 
L 23.1875 -13.1875 
Q 15.875 -1.703125 12.234375 9.375 
Q 8.59375 20.453125 8.59375 31.390625 
Q 8.59375 42.28125 12.203125 53.3125 
Q 15.828125 64.359375 23.1875 75.875 
z
" id="DejaVuSans-28"/>
      <path d="M 51.125 44 
L 36.921875 44 
L 32.8125 27.6875 
L 47.125 27.6875 
z
M 43.796875 71.78125 
L 38.71875 51.515625 
L 52.984375 51.515625 
L 58.109375 71.78125 
L 65.921875 71.78125 
L 60.890625 51.515625 
L 76.125 51.515625 
L 76.125 44 
L 58.984375 44 
L 54.984375 27.6875 
L 70.515625 27.6875 
L 70.515625 20.21875 
L 53.078125 20.21875 
L 48 0 
L 40.1875 0 
L 45.21875 20.21875 
L 30.90625 20.21875 
L 25.875 0 
L 18.015625 0 
L 23.09375 20.21875 
L 7.71875 20.21875 
L 7.71875 27.6875 
L 24.90625 27.6875 
L 29 44 
L 13.28125 44 
L 13.28125 51.515625 
L 30.90625 51.515625 
L 35.890625 71.78125 
z
" id="DejaVuSans-23"/>
      <path d="M 4.890625 31.390625 
L 31.203125 31.390625 
L 31.203125 23.390625 
L 4.890625 23.390625 
z
" id="DejaVuSans-2d"/>
      <path d="M 56.203125 29.59375 
L 56.203125 25.203125 
L 14.890625 25.203125 
Q 15.484375 15.921875 20.484375 11.0625 
Q 25.484375 6.203125 34.421875 6.203125 
Q 39.59375 6.203125 44.453125 7.46875 
Q 49.3125 8.734375 54.109375 11.28125 
L 54.109375 2.78125 
Q 49.265625 0.734375 44.1875 -0.34375 
Q 39.109375 -1.421875 33.890625 -1.421875 
Q 20.796875 -1.421875 13.15625 6.1875 
Q 5.515625 13.8125 5.515625 26.8125 
Q 5.515625 40.234375 12.765625 48.109375 
Q 20.015625 56 32.328125 56 
Q 43.359375 56 49.78125 48.890625 
Q 56.203125 41.796875 56.203125 29.59375 
M 47.21875 32.234375 
Q 47.125 39.59375 43.09375 43.984375 
Q 39.0625 48.390625 32.421875 48.390625 
Q 24.90625 48.390625 20.390625 44.140625 
Q 15.875 39.890625 15.1875 32.171875 
z
" id="DejaVuSans-65"/>
      <path d="M 2.984375 54.6875 
L 12.5 54.6875 
L 29.59375 8.796875 
L 46.6875 54.6875 
L 56.203125 54.6875 
L 35.6875 0 
L 23.484375 0 
z
" id="DejaVuSans-76"/>
      <path d="M 34.28125 27.484375 
Q 23.390625 27.484375 19.1875 25 
Q 14.984375 22.515625 14.984375 16.5 
Q 14.984375 11.71875 18.140625 8.90625 
Q 21.296875 6.109375 26.703125 6.109375 
Q 34.1875 6.109375 38.703125 11.40625 
Q 43.21875 16.703125 43.21875 25.484375 
L 43.21875 27.484375 
z
M 52.203125 31.203125 
L 52.203125 0 
L 43.21875 0 
L 43.21875 8.296875 
Q 40.140625 3.328125 35.546875 0.953125 
Q 30.953125 -1.421875 24.3125 -1.421875 
Q 15.921875 -1.421875 10.953125 3.296875 
Q 6 8.015625 6 15.921875 
Q 6 25.140625 12.171875 29.828125 
Q 18.359375 34.515625 30.609375 34.515625 
L 43.21875 34.515625 
L 43.21875 35.40625 
Q 43.21875 41.609375 39.140625 45 
Q 35.0625 48.390625 27.6875 48.390625 
Q 23 48.390625 18.546875 47.265625 
Q 14.109375 46.140625 10.015625 43.890625 
L 10.015625 52.203125 
Q 14.9375 54.109375 19.578125 55.046875 
Q 24.21875 56 28.609375 56 
Q 40.484375 56 46.34375 49.84375 
Q 52.203125 43.703125 52.203125 31.203125 
" id="DejaVuSans-61"/>
      <path d="M 44.28125 53.078125 
L 44.28125 44.578125 
Q 40.484375 46.53125 36.375 47.5 
Q 32.28125 48.484375 27.875 48.484375 
Q 21.1875 48.484375 17.84375 46.4375 
Q 14.5 44.390625 14.5 40.28125 
Q 14.5 37.15625 16.890625 35.375 
Q 19.28125 33.59375 26.515625 31.984375 
L 29.59375 31.296875 
Q 39.15625 29.25 43.1875 25.515625 
Q 47.21875 21.78125 47.21875 15.09375 
Q 47.21875 7.46875 41.1875 3.015625 
Q 35.15625 -1.421875 24.609375 -1.421875 
Q 20.21875 -1.421875 15.453125 -0.5625 
Q 10.6875 0.296875 5.421875 2 
L 5.421875 11.28125 
Q 10.40625 8.6875 15.234375 7.390625 
Q 20.0625 6.109375 24.8125 6.109375 
Q 31.15625 6.109375 34.5625 8.28125 
Q 37.984375 10.453125 37.984375 14.40625 
Q 37.984375 18.0625 35.515625 20.015625 
Q 33.0625 21.96875 24.703125 23.78125 
L 21.578125 24.515625 
Q 13.234375 26.265625 9.515625 29.90625 
Q 5.8125 33.546875 5.8125 39.890625 
Q 5.8125 47.609375 11.28125 51.796875 
Q 16.75 56 26.8125 56 
Q 31.78125 56 36.171875 55.265625 
Q 40.578125 54.546875 44.28125 53.078125 
" id="DejaVuSans-73"/>
      <path d="M 25.390625 72.90625 
L 33.6875 72.90625 
L 8.296875 -9.28125 
L 0 -9.28125 
z
" id="DejaVuSans-2f"/>
      <path d="M 45.40625 46.390625 
L 45.40625 75.984375 
L 54.390625 75.984375 
L 54.390625 0 
L 45.40625 0 
L 45.40625 8.203125 
Q 42.578125 3.328125 38.25 0.953125 
Q 33.9375 -1.421875 27.875 -1.421875 
Q 17.96875 -1.421875 11.734375 6.484375 
Q 5.515625 14.40625 5.515625 27.296875 
Q 5.515625 40.1875 11.734375 48.09375 
Q 17.96875 56 27.875 56 
Q 33.9375 56 38.25 53.625 
Q 42.578125 51.265625 45.40625 46.390625 
M 14.796875 27.296875 
Q 14.796875 17.390625 18.875 11.75 
Q 22.953125 6.109375 30.078125 6.109375 
Q 37.203125 6.109375 41.296875 11.75 
Q 45.40625 17.390625 45.40625 27.296875 
Q 45.40625 37.203125 41.296875 42.84375 
Q 37.203125 48.484375 30.078125 48.484375 
Q 22.953125 48.484375 18.875 42.84375 
Q 14.796875 37.203125 14.796875 27.296875 
" id="DejaVuSans-64"/>
      <path d="M 9.421875 54.6875 
L 18.40625 54.6875 
L 18.40625 0 
L 9.421875 0 
z
M 9.421875 75.984375 
L 18.40625 75.984375 
L 18.40625 64.59375 
L 9.421875 64.59375 
z
" id="DejaVuSans-69"/>
      <path d="M 52 44.1875 
Q 55.375 50.25 60.0625 53.125 
Q 64.75 56 71.09375 56 
Q 79.640625 56 84.28125 50.015625 
Q 88.921875 44.046875 88.921875 33.015625 
L 88.921875 0 
L 79.890625 0 
L 79.890625 32.71875 
Q 79.890625 40.578125 77.09375 44.375 
Q 74.3125 48.1875 68.609375 48.1875 
Q 61.625 48.1875 57.5625 43.546875 
Q 53.515625 38.921875 53.515625 30.90625 
L 53.515625 0 
L 44.484375 0 
L 44.484375 32.71875 
Q 44.484375 40.625 41.703125 44.40625 
Q 38.921875 48.1875 33.109375 48.1875 
Q 26.21875 48.1875 22.15625 43.53125 
Q 18.109375 38.875 18.109375 30.90625 
L 18.109375 0 
L 9.078125 0 
L 9.078125 54.6875 
L 18.109375 54.6875 
L 18.109375 46.1875 
Q 21.1875 51.21875 25.484375 53.609375 
Q 29.78125 56 35.6875 56 
Q 41.65625 56 45.828125 52.96875 
Q 50 49.953125 52 44.1875 
" id="DejaVuSans-6d"/>
      <path d="M 54.890625 33.015625 
L 54.890625 0 
L 45.90625 0 
L 45.90625 32.71875 
Q 45.90625 40.484375 42.875 44.328125 
Q 39.84375 48.1875 33.796875 48.1875 
Q 26.515625 48.1875 22.3125 43.546875 
Q 18.109375 38.921875 18.109375 30.90625 
L 18.109375 0 
L 9.078125 0 
L 9.078125 54.6875 
L 18.109375 54.6875 
L 18.109375 46.1875 
Q 21.34375 51.125 25.703125 53.5625 
Q 30.078125 56 35.796875 56 
Q 45.21875 56 50.046875 50.171875 
Q 54.890625 44.34375 54.890625 33.015625 
" id="DejaVuSans-6e"/>
      <path d="M 8.015625 75.875 
L 15.828125 75.875 
Q 23.140625 64.359375 26.78125 53.3125 
Q 30.421875 42.28125 30.421875 31.390625 
Q 30.421875 20.453125 26.78125 9.375 
Q 23.140625 -1.703125 15.828125 -13.1875 
L 8.015625 -13.1875 
Q 14.5 -2 17.703125 9.0625 
Q 20.90625 20.125 20.90625 31.390625 
Q 20.90625 42.671875 17.703125 53.65625 
Q 14.5 64.65625 8.015625 75.875 
" id="DejaVuSans-29"/>
     </defs>
     <g transform="translate(107.015156 342.278812)scale(0.18 -0.18)">
      <use xlink:href="#DejaVuSans-6c"/>
      <use x="27.783203" xlink:href="#DejaVuSans-6f"/>
      <use x="88.964844" xlink:href="#DejaVuSans-67"/>
      <use x="152.441406" xlink:href="#DejaVuSans-31"/>
      <use x="216.064453" xlink:href="#DejaVuSans-30"/>
      <use x="279.6875" xlink:href="#DejaVuSans-20"/>
      <use x="311.474609" xlink:href="#DejaVuSans-6f"/>
      <use x="372.65625" xlink:href="#DejaVuSans-66"/>
      <use x="407.861328" xlink:href="#DejaVuSans-20"/>
      <use x="439.648438" xlink:href="#DejaVuSans-28"/>
      <use x="478.662109" xlink:href="#DejaVuSans-23"/>
      <use x="562.451172" xlink:href="#DejaVuSans-20"/>
      <use x="594.238281" xlink:href="#DejaVuSans-66"/>
      <use x="629.365234" xlink:href="#DejaVuSans-2d"/>
      <use x="665.449219" xlink:href="#DejaVuSans-65"/>
      <use x="726.972656" xlink:href="#DejaVuSans-76"/>
      <use x="786.152344" xlink:href="#DejaVuSans-61"/>
      <use x="847.431641" xlink:href="#DejaVuSans-6c"/>
      <use x="875.214844" xlink:href="#DejaVuSans-73"/>
      <use x="927.314453" xlink:href="#DejaVuSans-20"/>
      <use x="959.101562" xlink:href="#DejaVuSans-2f"/>
      <use x="992.792969" xlink:href="#DejaVuSans-20"/>
      <use x="1024.580078" xlink:href="#DejaVuSans-64"/>
      <use x="1088.056641" xlink:href="#DejaVuSans-69"/>
      <use x="1115.839844" xlink:href="#DejaVuSans-6d"/>
      <use x="1213.251953" xlink:href="#DejaVuSans-65"/>
      <use x="1274.775391" xlink:href="#DejaVuSans-6e"/>
      <use x="1338.154297" xlink:href="#DejaVuSans-73"/>
      <use x="1390.253906" xlink:href="#DejaVuSans-69"/>
      <use x="1418.037109" xlink:href="#DejaVuSans-6f"/>
      <use x="1479.21875" xlink:href="#DejaVuSans-6e"/>
      <use x="1542.597656" xlink:href="#DejaVuSans-29"/>
     </g>
    </g>
   </g>
   <g id="matplotlib.axis_2">
    <g id="ytick_1">
     <g id="line2d_32">
      <path clip-path="url(#pc9eaeddef3)" d="M 70.8 298.245375 
L 427.92 298.245375 
" style="fill:none;stroke:#b0b0b0;stroke-linecap:square;stroke-width:0.8;"/>
     </g>
     <g id="line2d_33">
      <defs>
       <path d="M 0 0 
L -3.5 0 
" id="m505c43afd8" style="stroke:#000000;stroke-width:0.8;"/>
      </defs>
      <g>
       <use style="stroke:#000000;stroke-width:0.8;" x="70.8" xlink:href="#m505c43afd8" y="298.245375"/>
      </g>
     </g>
     <g id="text_7">
      <!-- 0.0 -->
      <defs>
       <path d="M 10.6875 12.40625 
L 21 12.40625 
L 21 0 
L 10.6875 0 
z
" id="DejaVuSans-2e"/>
      </defs>
      <g transform="translate(31.99375 305.843812)scale(0.2 -0.2)">
       <use xlink:href="#DejaVuSans-30"/>
       <use x="63.623047" xlink:href="#DejaVuSans-2e"/>
       <use x="95.410156" xlink:href="#DejaVuSans-30"/>
      </g>
     </g>
    </g>
    <g id="ytick_2">
     <g id="line2d_34">
      <path clip-path="url(#pc9eaeddef3)" d="M 70.8 245.549929 
L 427.92 245.549929 
" style="fill:none;stroke:#b0b0b0;stroke-linecap:square;stroke-width:0.8;"/>
     </g>
     <g id="line2d_35">
      <g>
       <use style="stroke:#000000;stroke-width:0.8;" x="70.8" xlink:href="#m505c43afd8" y="245.549929"/>
      </g>
     </g>
     <g id="text_8">
      <!-- 0.2 -->
      <g transform="translate(31.99375 253.148367)scale(0.2 -0.2)">
       <use xlink:href="#DejaVuSans-30"/>
       <use x="63.623047" xlink:href="#DejaVuSans-2e"/>
       <use x="95.410156" xlink:href="#DejaVuSans-32"/>
      </g>
     </g>
    </g>
    <g id="ytick_3">
     <g id="line2d_36">
      <path clip-path="url(#pc9eaeddef3)" d="M 70.8 192.854484 
L 427.92 192.854484 
" style="fill:none;stroke:#b0b0b0;stroke-linecap:square;stroke-width:0.8;"/>
     </g>
     <g id="line2d_37">
      <g>
       <use style="stroke:#000000;stroke-width:0.8;" x="70.8" xlink:href="#m505c43afd8" y="192.854484"/>
      </g>
     </g>
     <g id="text_9">
      <!-- 0.4 -->
      <g transform="translate(31.99375 200.452921)scale(0.2 -0.2)">
       <use xlink:href="#DejaVuSans-30"/>
       <use x="63.623047" xlink:href="#DejaVuSans-2e"/>
       <use x="95.410156" xlink:href="#DejaVuSans-34"/>
      </g>
     </g>
    </g>
    <g id="ytick_4">
     <g id="line2d_38">
      <path clip-path="url(#pc9eaeddef3)" d="M 70.8 140.159038 
L 427.92 140.159038 
" style="fill:none;stroke:#b0b0b0;stroke-linecap:square;stroke-width:0.8;"/>
     </g>
     <g id="line2d_39">
      <g>
       <use style="stroke:#000000;stroke-width:0.8;" x="70.8" xlink:href="#m505c43afd8" y="140.159038"/>
      </g>
     </g>
     <g id="text_10">
      <!-- 0.6 -->
      <g transform="translate(31.99375 147.757476)scale(0.2 -0.2)">
       <use xlink:href="#DejaVuSans-30"/>
       <use x="63.623047" xlink:href="#DejaVuSans-2e"/>
       <use x="95.410156" xlink:href="#DejaVuSans-36"/>
      </g>
     </g>
    </g>
    <g id="ytick_5">
     <g id="line2d_40">
      <path clip-path="url(#pc9eaeddef3)" d="M 70.8 87.463593 
L 427.92 87.463593 
" style="fill:none;stroke:#b0b0b0;stroke-linecap:square;stroke-width:0.8;"/>
     </g>
     <g id="line2d_41">
      <g>
       <use style="stroke:#000000;stroke-width:0.8;" x="70.8" xlink:href="#m505c43afd8" y="87.463593"/>
      </g>
     </g>
     <g id="text_11">
      <!-- 0.8 -->
      <g transform="translate(31.99375 95.06203)scale(0.2 -0.2)">
       <use xlink:href="#DejaVuSans-30"/>
       <use x="63.623047" xlink:href="#DejaVuSans-2e"/>
       <use x="95.410156" xlink:href="#DejaVuSans-38"/>
      </g>
     </g>
    </g>
    <g id="ytick_6">
     <g id="line2d_42">
      <path clip-path="url(#pc9eaeddef3)" d="M 70.8 34.768147 
L 427.92 34.768147 
" style="fill:none;stroke:#b0b0b0;stroke-linecap:square;stroke-width:0.8;"/>
     </g>
     <g id="line2d_43">
      <g>
       <use style="stroke:#000000;stroke-width:0.8;" x="70.8" xlink:href="#m505c43afd8" y="34.768147"/>
      </g>
     </g>
     <g id="text_12">
      <!-- 1.0 -->
      <g transform="translate(31.99375 42.366585)scale(0.2 -0.2)">
       <use xlink:href="#DejaVuSans-31"/>
       <use x="63.623047" xlink:href="#DejaVuSans-2e"/>
       <use x="95.410156" xlink:href="#DejaVuSans-30"/>
      </g>
     </g>
    </g>
    <g id="text_13">
     <!-- Proportion of function+target pairs -->
     <defs>
      <path d="M 19.671875 64.796875 
L 19.671875 37.40625 
L 32.078125 37.40625 
Q 38.96875 37.40625 42.71875 40.96875 
Q 46.484375 44.53125 46.484375 51.125 
Q 46.484375 57.671875 42.71875 61.234375 
Q 38.96875 64.796875 32.078125 64.796875 
z
M 9.8125 72.90625 
L 32.078125 72.90625 
Q 44.34375 72.90625 50.609375 67.359375 
Q 56.890625 61.8125 56.890625 51.125 
Q 56.890625 40.328125 50.609375 34.8125 
Q 44.34375 29.296875 32.078125 29.296875 
L 19.671875 29.296875 
L 19.671875 0 
L 9.8125 0 
z
" id="DejaVuSans-50"/>
      <path d="M 41.109375 46.296875 
Q 39.59375 47.171875 37.8125 47.578125 
Q 36.03125 48 33.890625 48 
Q 26.265625 48 22.1875 43.046875 
Q 18.109375 38.09375 18.109375 28.8125 
L 18.109375 0 
L 9.078125 0 
L 9.078125 54.6875 
L 18.109375 54.6875 
L 18.109375 46.1875 
Q 20.953125 51.171875 25.484375 53.578125 
Q 30.03125 56 36.53125 56 
Q 37.453125 56 38.578125 55.875 
Q 39.703125 55.765625 41.0625 55.515625 
z
" id="DejaVuSans-72"/>
      <path d="M 18.109375 8.203125 
L 18.109375 -20.796875 
L 9.078125 -20.796875 
L 9.078125 54.6875 
L 18.109375 54.6875 
L 18.109375 46.390625 
Q 20.953125 51.265625 25.265625 53.625 
Q 29.59375 56 35.59375 56 
Q 45.5625 56 51.78125 48.09375 
Q 58.015625 40.1875 58.015625 27.296875 
Q 58.015625 14.40625 51.78125 6.484375 
Q 45.5625 -1.421875 35.59375 -1.421875 
Q 29.59375 -1.421875 25.265625 0.953125 
Q 20.953125 3.328125 18.109375 8.203125 
M 48.6875 27.296875 
Q 48.6875 37.203125 44.609375 42.84375 
Q 40.53125 48.484375 33.40625 48.484375 
Q 26.265625 48.484375 22.1875 42.84375 
Q 18.109375 37.203125 18.109375 27.296875 
Q 18.109375 17.390625 22.1875 11.75 
Q 26.265625 6.109375 33.40625 6.109375 
Q 40.53125 6.109375 44.609375 11.75 
Q 48.6875 17.390625 48.6875 27.296875 
" id="DejaVuSans-70"/>
      <path d="M 18.3125 70.21875 
L 18.3125 54.6875 
L 36.8125 54.6875 
L 36.8125 47.703125 
L 18.3125 47.703125 
L 18.3125 18.015625 
Q 18.3125 11.328125 20.140625 9.421875 
Q 21.96875 7.515625 27.59375 7.515625 
L 36.8125 7.515625 
L 36.8125 0 
L 27.59375 0 
Q 17.1875 0 13.234375 3.875 
Q 9.28125 7.765625 9.28125 18.015625 
L 9.28125 47.703125 
L 2.6875 47.703125 
L 2.6875 54.6875 
L 9.28125 54.6875 
L 9.28125 70.21875 
z
" id="DejaVuSans-74"/>
      <path d="M 8.5 21.578125 
L 8.5 54.6875 
L 17.484375 54.6875 
L 17.484375 21.921875 
Q 17.484375 14.15625 20.5 10.265625 
Q 23.53125 6.390625 29.59375 6.390625 
Q 36.859375 6.390625 41.078125 11.03125 
Q 45.3125 15.671875 45.3125 23.6875 
L 45.3125 54.6875 
L 54.296875 54.6875 
L 54.296875 0 
L 45.3125 0 
L 45.3125 8.40625 
Q 42.046875 3.421875 37.71875 1 
Q 33.40625 -1.421875 27.6875 -1.421875 
Q 18.265625 -1.421875 13.375 4.4375 
Q 8.5 10.296875 8.5 21.578125 
M 31.109375 56 
z
" id="DejaVuSans-75"/>
      <path d="M 48.78125 52.59375 
L 48.78125 44.1875 
Q 44.96875 46.296875 41.140625 47.34375 
Q 37.3125 48.390625 33.40625 48.390625 
Q 24.65625 48.390625 19.8125 42.84375 
Q 14.984375 37.3125 14.984375 27.296875 
Q 14.984375 17.28125 19.8125 11.734375 
Q 24.65625 6.203125 33.40625 6.203125 
Q 37.3125 6.203125 41.140625 7.25 
Q 44.96875 8.296875 48.78125 10.40625 
L 48.78125 2.09375 
Q 45.015625 0.34375 40.984375 -0.53125 
Q 36.96875 -1.421875 32.421875 -1.421875 
Q 20.0625 -1.421875 12.78125 6.34375 
Q 5.515625 14.109375 5.515625 27.296875 
Q 5.515625 40.671875 12.859375 48.328125 
Q 20.21875 56 33.015625 56 
Q 37.15625 56 41.109375 55.140625 
Q 45.0625 54.296875 48.78125 52.59375 
" id="DejaVuSans-63"/>
      <path d="M 46 62.703125 
L 46 35.5 
L 73.1875 35.5 
L 73.1875 27.203125 
L 46 27.203125 
L 46 0 
L 37.796875 0 
L 37.796875 27.203125 
L 10.59375 27.203125 
L 10.59375 35.5 
L 37.796875 35.5 
L 37.796875 62.703125 
z
" id="DejaVuSans-2b"/>
     </defs>
     <g transform="translate(24.250312 323.17875)rotate(-90)scale(0.18 -0.18)">
      <use xlink:href="#DejaVuSans-50"/>
      <use x="60.287109" xlink:href="#DejaVuSans-72"/>
      <use x="101.369141" xlink:href="#DejaVuSans-6f"/>
      <use x="162.550781" xlink:href="#DejaVuSans-70"/>
      <use x="226.027344" xlink:href="#DejaVuSans-6f"/>
      <use x="287.208984" xlink:href="#DejaVuSans-72"/>
      <use x="328.322266" xlink:href="#DejaVuSans-74"/>
      <use x="367.53125" xlink:href="#DejaVuSans-69"/>
      <use x="395.314453" xlink:href="#DejaVuSans-6f"/>
      <use x="456.496094" xlink:href="#DejaVuSans-6e"/>
      <use x="519.875" xlink:href="#DejaVuSans-20"/>
      <use x="551.662109" xlink:href="#DejaVuSans-6f"/>
      <use x="612.84375" xlink:href="#DejaVuSans-66"/>
      <use x="648.048828" xlink:href="#DejaVuSans-20"/>
      <use x="679.835938" xlink:href="#DejaVuSans-66"/>
      <use x="715.041016" xlink:href="#DejaVuSans-75"/>
      <use x="778.419922" xlink:href="#DejaVuSans-6e"/>
      <use x="841.798828" xlink:href="#DejaVuSans-63"/>
      <use x="896.779297" xlink:href="#DejaVuSans-74"/>
      <use x="935.988281" xlink:href="#DejaVuSans-69"/>
      <use x="963.771484" xlink:href="#DejaVuSans-6f"/>
      <use x="1024.953125" xlink:href="#DejaVuSans-6e"/>
      <use x="1088.332031" xlink:href="#DejaVuSans-2b"/>
      <use x="1172.121094" xlink:href="#DejaVuSans-74"/>
      <use x="1211.330078" xlink:href="#DejaVuSans-61"/>
      <use x="1272.609375" xlink:href="#DejaVuSans-72"/>
      <use x="1313.707031" xlink:href="#DejaVuSans-67"/>
      <use x="1377.183594" xlink:href="#DejaVuSans-65"/>
      <use x="1438.707031" xlink:href="#DejaVuSans-74"/>
      <use x="1477.916016" xlink:href="#DejaVuSans-20"/>
      <use x="1509.703125" xlink:href="#DejaVuSans-70"/>
      <use x="1573.179688" xlink:href="#DejaVuSans-61"/>
      <use x="1634.458984" xlink:href="#DejaVuSans-69"/>
      <use x="1662.242188" xlink:href="#DejaVuSans-72"/>
      <use x="1703.355469" xlink:href="#DejaVuSans-73"/>
     </g>
    </g>
   </g>
   <g id="line2d_44">
    <defs>
     <path d="M 0 1.5 
C 0.397805 1.5 0.77937 1.341951 1.06066 1.06066 
C 1.341951 0.77937 1.5 0.397805 1.5 0 
C 1.5 -0.397805 1.341951 -0.77937 1.06066 -1.06066 
C 0.77937 -1.341951 0.397805 -1.5 0 -1.5 
C -0.397805 -1.5 -0.77937 -1.341951 -1.06066 -1.06066 
C -1.341951 -0.77937 -1.5 -0.397805 -1.5 0 
C -1.5 0.397805 -1.341951 0.77937 -1.06066 1.06066 
C -0.77937 1.341951 -0.397805 1.5 0 1.5 
z
" id="ma9077957b0" style="stroke:#f5deb3;"/>
    </defs>
    <g>
     <use style="fill:#f5deb3;stroke:#f5deb3;" x="165.883081" xlink:href="#ma9077957b0" y="34.768147"/>
     <use style="fill:#f5deb3;stroke:#f5deb3;" x="165.883081" xlink:href="#ma9077957b0" y="34.768147"/>
    </g>
   </g>
   <g id="line2d_45">
    <g>
     <use style="fill:#f5deb3;stroke:#f5deb3;stroke-linejoin:miter;stroke-width:1.5;" x="114.179287" xlink:href="#mf1d25fe305" y="259.498724"/>
     <use style="fill:#f5deb3;stroke:#f5deb3;stroke-linejoin:miter;stroke-width:1.5;" x="145.661236" xlink:href="#mf1d25fe305" y="125.177"/>
     <use style="fill:#f5deb3;stroke:#f5deb3;stroke-linejoin:miter;stroke-width:1.5;" x="165.883081" xlink:href="#mf1d25fe305" y="36.059702"/>
     <use style="fill:#f5deb3;stroke:#f5deb3;stroke-linejoin:miter;stroke-width:1.5;" x="165.883081" xlink:href="#mf1d25fe305" y="34.768147"/>
     <use style="fill:#f5deb3;stroke:#f5deb3;stroke-linejoin:miter;stroke-width:1.5;" x="165.883081" xlink:href="#mf1d25fe305" y="34.768147"/>
     <use style="fill:#f5deb3;stroke:#f5deb3;stroke-linejoin:miter;stroke-width:1.5;" x="358.8" xlink:href="#mf1d25fe305" y="34.768147"/>
    </g>
   </g>
   <g id="line2d_46">
    <defs>
     <path d="M 0 1.5 
C 0.397805 1.5 0.77937 1.341951 1.06066 1.06066 
C 1.341951 0.77937 1.5 0.397805 1.5 0 
C 1.5 -0.397805 1.341951 -0.77937 1.06066 -1.06066 
C 0.77937 -1.341951 0.397805 -1.5 0 -1.5 
C -0.397805 -1.5 -0.77937 -1.341951 -1.06066 -1.06066 
C -1.341951 -0.77937 -1.5 -0.397805 -1.5 0 
C -1.5 0.397805 -1.341951 0.77937 -1.06066 1.06066 
C -0.77937 1.341951 -0.397805 1.5 0 1.5 
z
" id="m8048b45104" style="stroke:#000080;"/>
    </defs>
    <g>
     <use style="fill:#000080;stroke:#000080;" x="169.600479" xlink:href="#m8048b45104" y="184.588532"/>
     <use style="fill:#000080;stroke:#000080;" x="169.600479" xlink:href="#m8048b45104" y="184.588532"/>
    </g>
   </g>
   <g id="line2d_47">
    <path d="M 63.555102 298.245375 
L 63.555102 296.95382 
L 100.710805 296.95382 
L 100.710805 294.37071 
L 103.781445 294.37071 
L 103.781445 293.079155 
L 106.400973 293.079155 
L 106.400973 291.7876 
L 110.060263 291.7876 
L 110.060263 287.912935 
L 120.340936 287.912935 
L 120.340936 285.329825 
L 121.771149 285.329825 
L 121.771149 282.746715 
L 122.111504 282.746715 
L 122.111504 278.872049 
L 126.825374 278.872049 
L 126.825374 273.705829 
L 128.075402 273.705829 
L 128.075402 272.414274 
L 128.785487 272.414274 
L 128.785487 271.122719 
L 130.126224 271.122719 
L 130.126224 264.664944 
L 130.760662 264.664944 
L 130.760662 260.790279 
L 131.572989 260.790279 
L 131.572989 259.498724 
L 134.156383 259.498724 
L 134.156383 258.207169 
L 134.496738 258.207169 
L 134.496738 254.332504 
L 135.3203 254.332504 
L 135.3203 253.040949 
L 136.563801 253.040949 
L 136.563801 250.457839 
L 138.685037 250.457839 
L 138.685037 249.166284 
L 139.080657 249.166284 
L 139.080657 247.874729 
L 140.094723 247.874729 
L 140.094723 246.583173 
L 141.96499 246.583173 
L 141.96499 245.291618 
L 142.075629 245.291618 
L 142.075629 244.000063 
L 142.403494 244.000063 
L 142.403494 241.416953 
L 144.057215 241.416953 
L 144.057215 240.125398 
L 146.01861 240.125398 
L 146.01861 238.833843 
L 146.797489 238.833843 
L 146.797489 237.542288 
L 147.624865 237.542288 
L 147.624865 236.250733 
L 149.612257 236.250733 
L 149.612257 234.959178 
L 150.733762 234.959178 
L 150.733762 233.667623 
L 151.136819 233.667623 
L 151.136819 232.376068 
L 153.20444 232.376068 
L 153.20444 231.084513 
L 154.570821 231.084513 
L 154.570821 229.792958 
L 155.37462 229.792958 
L 155.37462 228.501403 
L 155.7377 228.501403 
L 155.7377 225.918293 
L 155.992599 225.918293 
L 155.992599 224.626738 
L 156.243913 224.626738 
L 156.243913 223.335183 
L 156.491741 223.335183 
L 156.491741 222.043628 
L 156.638804 222.043628 
L 156.638804 220.752073 
L 157.635691 220.752073 
L 157.635691 219.460518 
L 158.226051 219.460518 
L 158.226051 218.168963 
L 158.926851 218.168963 
L 158.926851 216.877408 
L 159.267206 216.877408 
L 159.267206 215.585853 
L 159.309299 215.585853 
L 159.309299 214.294298 
L 159.6012 214.294298 
L 159.6012 209.128077 
L 160.251021 209.128077 
L 160.251021 207.836522 
L 160.528052 207.836522 
L 160.528052 206.544967 
L 160.567279 206.544967 
L 160.567279 205.253412 
L 161.779141 205.253412 
L 161.779141 203.961857 
L 162.213206 203.961857 
L 162.213206 198.795637 
L 162.496833 198.795637 
L 162.496833 197.504082 
L 163.084994 197.504082 
L 163.084994 196.212527 
L 163.522053 196.212527 
L 163.522053 194.920972 
L 163.555235 194.920972 
L 163.555235 193.629417 
L 164.301877 193.629417 
L 164.301877 192.337862 
L 164.741536 192.337862 
L 164.741536 191.046307 
L 165.018567 191.046307 
L 165.018567 189.754752 
L 165.912159 189.754752 
L 165.912159 188.463197 
L 166.763182 188.463197 
L 166.763182 187.171642 
L 167.628374 187.171642 
L 167.628374 185.880087 
L 169.600479 185.880087 
L 169.600479 184.588532 
L 358.8 184.588532 
" style="fill:none;stroke:#000080;stroke-linecap:square;stroke-width:1.5;"/>
   </g>
   <g id="line2d_48">
    <defs>
     <path d="M 0 6 
C 1.591219 6 3.117479 5.367802 4.242641 4.242641 
C 5.367802 3.117479 6 1.591219 6 0 
C 6 -1.591219 5.367802 -3.117479 4.242641 -4.242641 
C 3.117479 -5.367802 1.591219 -6 0 -6 
C -1.591219 -6 -3.117479 -5.367802 -4.242641 -4.242641 
C -5.367802 -3.117479 -6 -1.591219 -6 0 
C -6 1.591219 -5.367802 3.117479 -4.242641 4.242641 
C -3.117479 5.367802 -1.591219 6 0 6 
z
" id="m58a07d1c51" style="stroke:#000080;stroke-width:1.5;"/>
    </defs>
    <g>
     <use style="fill:none;stroke:#000080;stroke-width:1.5;" x="106.400973" xlink:href="#m58a07d1c51" y="293.079155"/>
     <use style="fill:none;stroke:#000080;stroke-width:1.5;" x="146.01861" xlink:href="#m58a07d1c51" y="240.125398"/>
     <use style="fill:none;stroke:#000080;stroke-width:1.5;" x="169.600479" xlink:href="#m58a07d1c51" y="185.880087"/>
     <use style="fill:none;stroke:#000080;stroke-width:1.5;" x="169.600479" xlink:href="#m58a07d1c51" y="184.588532"/>
     <use style="fill:none;stroke:#000080;stroke-width:1.5;" x="169.600479" xlink:href="#m58a07d1c51" y="184.588532"/>
     <use style="fill:none;stroke:#000080;stroke-width:1.5;" x="358.8" xlink:href="#m58a07d1c51" y="184.588532"/>
    </g>
   </g>
   <g id="line2d_49"/>
   <g id="line2d_50">
    <path clip-path="url(#pc9eaeddef3)" d="M 172.715846 184.588532 
" style="fill:none;stroke:#000080;stroke-linecap:square;stroke-width:1.5;"/>
    <defs>
     <path d="M -12 12 
L 12 -12 
M -12 -12 
L 12 12 
" id="mb35959e20c" style="stroke:#000080;stroke-width:3;"/>
    </defs>
    <g clip-path="url(#pc9eaeddef3)">
     <use style="fill:#000080;stroke:#000080;stroke-width:3;" x="172.715846" xlink:href="#mb35959e20c" y="184.588532"/>
    </g>
   </g>
   <g id="line2d_51">
    <defs>
     <path d="M 0 1.5 
C 0.397805 1.5 0.77937 1.341951 1.06066 1.06066 
C 1.341951 0.77937 1.5 0.397805 1.5 0 
C 1.5 -0.397805 1.341951 -0.77937 1.06066 -1.06066 
C 0.77937 -1.341951 0.397805 -1.5 0 -1.5 
C -0.397805 -1.5 -0.77937 -1.341951 -1.06066 -1.06066 
C -1.341951 -0.77937 -1.5 -0.397805 -1.5 0 
C -1.5 0.397805 -1.341951 0.77937 -1.06066 1.06066 
C -0.77937 1.341951 -0.397805 1.5 0 1.5 
z
" id="ma2b52bc92e" style="stroke:#ff00ff;"/>
    </defs>
    <g>
     <use style="fill:#ff00ff;stroke:#ff00ff;" x="249.43204" xlink:href="#ma2b52bc92e" y="100.637454"/>
     <use style="fill:#ff00ff;stroke:#ff00ff;" x="249.43204" xlink:href="#ma2b52bc92e" y="100.637454"/>
    </g>
   </g>
   <g id="line2d_52">
    <path d="M 51.169868 298.245375 
L 51.169868 295.79142 
L 75.940337 295.79142 
L 75.940337 295.533109 
L 79.927491 295.533109 
L 79.927491 295.403954 
L 85.939616 295.403954 
L 85.939616 295.016487 
L 90.430132 295.016487 
L 90.430132 294.758176 
L 97.000681 294.758176 
L 97.000681 294.112399 
L 99.557623 294.112399 
L 99.557623 293.854088 
L 101.794053 293.854088 
L 101.794053 293.724932 
L 104.69796 293.724932 
L 104.69796 293.595777 
L 105.569748 293.595777 
L 105.569748 293.466621 
L 106.400973 293.466621 
L 106.400973 292.820844 
L 107.955702 292.820844 
L 107.955702 292.433377 
L 108.685114 292.433377 
L 108.685114 292.304222 
L 110.060263 292.304222 
L 110.060263 291.658444 
L 110.710085 291.658444 
L 110.710085 291.400133 
L 111.3371 291.400133 
L 111.3371 291.141822 
L 111.942857 291.141822 
L 111.942857 289.979423 
L 113.096039 289.979423 
L 113.096039 289.462801 
L 113.64587 289.462801 
L 113.64587 289.075334 
L 114.179287 289.075334 
L 114.179287 288.817023 
L 114.697239 288.817023 
L 114.697239 288.171246 
L 115.2006 288.171246 
L 115.2006 287.525468 
L 116.166679 287.525468 
L 116.166679 286.62138 
L 116.630812 286.62138 
L 116.630812 286.104758 
L 117.083194 286.104758 
L 117.083194 285.588136 
L 117.524404 285.588136 
L 117.524404 285.071514 
L 117.954982 285.071514 
L 117.954982 284.03827 
L 118.375428 284.03827 
L 118.375428 283.521648 
L 118.786207 283.521648 
L 118.786207 282.359248 
L 119.187755 282.359248 
L 119.187755 282.100937 
L 119.580476 282.100937 
L 119.580476 281.971782 
L 119.964752 281.971782 
L 119.964752 281.842626 
L 120.709364 281.842626 
L 120.709364 281.067693 
L 121.070349 281.067693 
L 121.070349 280.421915 
L 121.424184 280.421915 
L 121.424184 280.163604 
L 121.771149 280.163604 
L 121.771149 280.034449 
L 122.445497 280.034449 
L 122.445497 279.905293 
L 122.773362 279.905293 
L 122.773362 279.517827 
L 123.095319 279.517827 
L 123.095319 278.742894 
L 123.722334 278.742894 
L 123.722334 278.613738 
L 124.02778 278.613738 
L 124.02778 277.70965 
L 124.623439 277.70965 
L 124.623439 277.193028 
L 124.913984 277.193028 
L 124.913984 276.54725 
L 125.19988 276.54725 
L 125.19988 275.255695 
L 125.481273 275.255695 
L 125.481273 273.834985 
L 125.758304 273.834985 
L 125.758304 273.318363 
L 126.031105 273.318363 
L 126.031105 272.672585 
L 126.299803 272.672585 
L 126.299803 270.864408 
L 126.564521 270.864408 
L 126.564521 269.702009 
L 126.825374 269.702009 
L 126.825374 268.79792 
L 127.082473 268.79792 
L 127.082473 268.539609 
L 127.335926 268.539609 
L 127.335926 268.152143 
L 127.585834 268.152143 
L 127.585834 268.022987 
L 127.832295 268.022987 
L 127.832295 266.731432 
L 128.075402 266.731432 
L 128.075402 266.602277 
L 128.315246 266.602277 
L 128.315246 266.21481 
L 128.551913 266.21481 
L 128.551913 265.698188 
L 128.785487 265.698188 
L 128.785487 265.052411 
L 129.016046 265.052411 
L 129.016046 264.7941 
L 129.243669 264.7941 
L 129.243669 264.406633 
L 129.468428 264.406633 
L 129.468428 263.890011 
L 129.690395 263.890011 
L 129.690395 263.244233 
L 129.909638 263.244233 
L 129.909638 262.727611 
L 130.126224 262.727611 
L 130.126224 261.436056 
L 130.340216 261.436056 
L 130.340216 260.661123 
L 130.551676 260.661123 
L 130.551676 260.531968 
L 130.967232 260.531968 
L 130.967232 259.757035 
L 131.171441 259.757035 
L 131.171441 259.498724 
L 131.373343 259.498724 
L 131.373343 258.982102 
L 131.96571 258.982102 
L 131.96571 258.594635 
L 132.158881 258.594635 
L 132.158881 257.948858 
L 132.349986 257.948858 
L 132.349986 257.819702 
L 132.539068 257.819702 
L 132.539068 257.690547 
L 132.726171 257.690547 
L 132.726171 255.494903 
L 132.911334 255.494903 
L 132.911334 254.978281 
L 133.094598 254.978281 
L 133.094598 254.71997 
L 133.276002 254.71997 
L 133.276002 254.203348 
L 133.455583 254.203348 
L 133.455583 254.074193 
L 133.633376 254.074193 
L 133.633376 253.428415 
L 133.983743 253.428415 
L 133.983743 252.524327 
L 134.156383 252.524327 
L 134.156383 252.266016 
L 134.496738 252.266016 
L 134.496738 252.13686 
L 134.664515 252.13686 
L 134.664515 251.620238 
L 134.830731 251.620238 
L 134.830731 251.232772 
L 134.995416 251.232772 
L 134.995416 251.103616 
L 135.158596 251.103616 
L 135.158596 250.199528 
L 135.3203 250.199528 
L 135.3203 250.070372 
L 135.639381 250.070372 
L 135.639381 249.682906 
L 136.107569 249.682906 
L 136.107569 249.037128 
L 136.260944 249.037128 
L 136.260944 248.649662 
L 136.563801 248.649662 
L 136.563801 248.520506 
L 136.713325 248.520506 
L 136.713325 248.262195 
L 137.008673 248.262195 
L 137.008673 247.874729 
L 137.154536 247.874729 
L 137.154536 247.358107 
L 137.299218 247.358107 
L 137.299218 247.228951 
L 137.442737 247.228951 
L 137.442737 247.099796 
L 137.726364 247.099796 
L 137.726364 246.841484 
L 138.005559 246.841484 
L 138.005559 246.324862 
L 138.280459 246.324862 
L 138.280459 246.195707 
L 138.416339 246.195707 
L 138.416339 246.066551 
L 138.551193 246.066551 
L 138.551193 245.549929 
L 138.685037 245.549929 
L 138.685037 245.291618 
L 138.817886 245.291618 
L 138.817886 244.774996 
L 138.949755 244.774996 
L 138.949755 243.870908 
L 139.210608 243.870908 
L 139.210608 242.966819 
L 139.33962 242.966819 
L 139.33962 242.450197 
L 139.594883 242.450197 
L 139.594883 242.062731 
L 139.846551 242.062731 
L 139.846551 241.546109 
L 139.971068 241.546109 
L 139.971068 241.029487 
L 140.460636 241.029487 
L 140.460636 240.125398 
L 140.580961 240.125398 
L 140.580961 239.737932 
L 140.70048 239.737932 
L 140.70048 239.608776 
L 140.819206 239.608776 
L 140.819206 239.350465 
L 140.937147 239.350465 
L 140.937147 238.833843 
L 141.170721 238.833843 
L 141.170721 238.446377 
L 141.741636 238.446377 
L 141.741636 237.929755 
L 141.853662 237.929755 
L 141.853662 237.800599 
L 141.96499 237.800599 
L 141.96499 237.671444 
L 142.185587 237.671444 
L 142.185587 237.025666 
L 142.403494 237.025666 
L 142.511458 236.379889 
L 142.618775 236.379889 
L 142.72545 235.734111 
L 142.93691 235.734111 
L 143.041708 235.4758 
L 143.145896 235.4758 
L 143.145896 234.830023 
L 143.454862 234.830023 
L 143.454862 234.700867 
L 143.758577 234.700867 
L 143.858679 234.184245 
L 144.155663 234.184245 
L 144.25357 233.925934 
L 144.447791 233.925934 
L 144.447791 233.409312 
L 144.639923 233.409312 
L 144.639923 233.280157 
L 144.924302 233.280157 
L 145.018098 232.89269 
L 145.204226 232.89269 
L 145.296568 232.376068 
L 145.388435 232.376068 
L 145.479832 232.117757 
L 145.570765 232.117757 
L 145.661236 231.47198 
L 145.840817 231.47198 
L 145.929935 231.213669 
L 146.106848 231.213669 
L 146.194652 230.438736 
L 146.282027 230.438736 
L 146.282027 229.792958 
L 146.541617 229.792958 
L 146.627316 227.468159 
L 146.881972 227.468159 
L 146.881972 227.339003 
L 147.049749 227.339003 
L 147.133051 227.080692 
L 147.215966 227.080692 
L 147.298497 226.434915 
L 147.38065 226.434915 
L 147.38065 226.047448 
L 147.54383 226.047448 
L 147.624865 225.530826 
L 147.705534 225.530826 
L 147.78584 224.497582 
L 148.103504 224.497582 
L 148.182045 224.110116 
L 148.569655 224.110116 
L 148.646178 223.593494 
L 148.798248 223.593494 
L 148.798248 223.464338 
L 149.098559 223.464338 
L 149.098559 223.335183 
L 149.246843 223.335183 
L 149.246843 222.947716 
L 149.393907 222.947716 
L 149.466987 221.527006 
L 149.612257 221.527006 
L 149.612257 221.268695 
L 149.756356 221.268695 
L 149.827972 220.881228 
L 149.899301 220.881228 
L 149.899301 220.364606 
L 150.111598 220.364606 
L 150.111598 219.718829 
L 150.321403 219.718829 
L 150.321403 219.589673 
L 150.459916 219.589673 
L 150.528772 219.073051 
L 150.733762 219.073051 
L 150.733762 218.685585 
L 150.869127 218.685585 
L 150.936427 218.168963 
L 151.070271 218.168963 
L 151.136819 217.264874 
L 151.20312 217.264874 
L 151.269176 217.006563 
L 151.334989 217.006563 
L 151.40056 215.844164 
L 151.530985 215.844164 
L 151.530985 215.715008 
L 151.724854 215.715008 
L 151.724854 214.940075 
L 152.043367 214.940075 
L 152.043367 214.81092 
L 152.294152 214.81092 
L 152.356302 214.423453 
L 152.418237 214.423453 
L 152.479957 214.035987 
L 152.541466 214.035987 
L 152.541466 213.777676 
L 152.66385 213.777676 
L 152.66385 213.519365 
L 152.906134 213.519365 
L 152.906134 213.390209 
L 153.085714 213.390209 
L 153.085714 213.131898 
L 153.322382 213.131898 
L 153.322382 213.002743 
L 153.43955 213.002743 
L 153.43955 212.744431 
L 153.671607 212.744431 
L 153.729153 212.227809 
L 153.786515 212.227809 
L 153.786515 212.098654 
L 154.070592 212.098654 
L 154.12687 211.323721 
L 154.182971 211.323721 
L 154.182971 211.06541 
L 154.350224 211.06541 
L 154.405629 210.548788 
L 154.570821 210.548788 
L 154.625547 208.740611 
L 154.7345 208.740611 
L 154.7345 208.223989 
L 154.950431 208.223989 
L 154.950431 207.965678 
L 155.110684 207.965678 
L 155.163784 207.449056 
L 155.269513 207.449056 
L 155.37462 207.061589 
L 155.426942 207.061589 
L 155.53113 205.640879 
L 155.941909 205.640879 
L 155.941909 205.382568 
L 156.093549 205.382568 
L 156.143811 204.865946 
L 156.243913 204.865946 
L 156.293754 204.478479 
L 156.393022 204.478479 
L 156.491741 204.091013 
L 156.540897 204.091013 
L 156.638804 203.703546 
L 156.784667 203.703546 
L 156.881252 203.31608 
L 156.929349 203.31608 
L 157.025157 201.507903 
L 157.072869 201.507903 
L 157.072869 201.249592 
L 157.356496 201.249592 
L 157.450047 200.345503 
L 157.819426 200.345503 
L 157.91059 199.441415 
L 157.955999 199.441415 
L 158.04647 198.924793 
L 158.181325 198.924793 
L 158.270665 198.408171 
L 158.315169 198.408171 
L 158.315169 198.020704 
L 158.448018 198.020704 
L 158.536038 196.341683 
L 158.579887 196.341683 
L 158.579887 196.212527 
L 158.797528 196.212527 
L 158.84074 195.82506 
L 158.926851 195.82506 
L 159.01255 195.050127 
L 159.097839 195.050127 
L 159.182724 194.662661 
L 159.267206 194.662661 
L 159.351292 194.146039 
L 159.476683 194.146039 
L 159.476683 194.016883 
L 159.6012 194.016883 
L 159.6012 193.887728 
L 159.724855 193.887728 
L 159.806819 193.112795 
L 159.84766 193.112795 
L 159.929064 191.433773 
L 160.130966 191.433773 
L 160.130966 190.271374 
L 160.330612 190.271374 
L 160.330612 189.883907 
L 160.528052 189.883907 
L 160.528052 189.754752 
L 160.645477 189.754752 
L 160.723333 189.367285 
L 160.916504 189.367285 
L 160.993191 188.850663 
L 161.069551 188.850663 
L 161.069551 188.721508 
L 161.183482 188.721508 
L 161.183482 188.592352 
L 161.409188 188.592352 
L 161.483794 188.07573 
L 161.52098 188.07573 
L 161.632078 187.559108 
L 161.668957 187.559108 
L 161.779141 186.784175 
L 161.815719 186.784175 
L 161.88865 186.009242 
L 161.997491 186.009242 
L 162.105674 185.750931 
L 162.248906 185.750931 
L 162.248906 185.363465 
L 162.461624 185.363465 
L 162.531971 184.201065 
L 162.636975 184.201065 
L 162.741366 183.942754 
L 163.118996 183.942754 
L 163.220616 182.780355 
L 163.288043 182.780355 
L 163.355216 182.392888 
L 163.455505 182.392888 
L 163.455505 182.263733 
L 163.588354 182.263733 
L 163.65441 182.005422 
L 163.720223 182.005422 
L 163.753039 180.197245 
L 163.981076 180.197245 
L 163.981076 180.068089 
L 164.20624 180.068089 
L 164.20624 179.938934 
L 164.365352 179.938934 
L 164.397005 178.90569 
L 164.585754 178.90569 
L 164.679386 178.518223 
L 164.741536 178.518223 
L 164.741536 178.259912 
L 165.441143 178.259912 
L 165.470948 177.872445 
L 165.853956 177.872445 
L 165.941189 177.614134 
L 166.143091 177.614134 
L 166.171749 177.226668 
L 166.371076 177.226668 
L 166.399371 176.710046 
L 166.707691 176.710046 
L 166.763182 176.451735 
L 166.87365 176.451735 
L 166.87365 176.064268 
L 167.281926 176.064268 
L 167.308816 175.418491 
L 167.44266 175.418491 
L 167.549018 174.901869 
L 167.916364 174.901869 
L 168.019948 174.643558 
L 168.174206 174.643558 
L 168.174206 174.385247 
L 169.671244 174.385247 
L 169.671244 173.99778 
L 169.905124 173.99778 
L 169.997825 171.931292 
L 170.181797 171.931292 
L 170.181797 171.41467 
L 170.295825 171.41467 
L 170.295825 171.285515 
L 170.476769 171.285515 
L 170.476769 171.156359 
L 171.139445 171.156359 
L 171.139445 171.027204 
L 171.757486 171.027204 
L 171.778421 170.768893 
L 172.596326 170.768893 
L 172.596326 170.639737 
L 173.263271 170.639737 
L 173.340123 170.252271 
L 173.549778 170.252271 
L 173.549778 169.99396 
L 173.700724 169.99396 
L 173.794422 169.735649 
L 173.906214 169.735649 
L 173.961849 168.702405 
L 174.035761 168.702405 
L 174.109368 168.185783 
L 174.200953 168.185783 
L 174.29207 167.669161 
L 174.364631 167.669161 
L 174.472923 167.023383 
L 174.580563 167.023383 
L 174.580563 166.765072 
L 174.705328 166.765072 
L 174.776233 166.24845 
L 174.882067 166.24845 
L 174.882067 165.990139 
L 175.004752 165.990139 
L 175.109244 165.473517 
L 175.178567 165.473517 
L 175.264845 164.82774 
L 175.29924 164.82774 
L 175.384939 164.052807 
L 175.436161 164.052807 
L 175.436161 163.794496 
L 175.622731 163.794496 
L 175.622731 163.66534 
L 175.740451 163.66534 
L 175.790665 163.148718 
L 175.874045 163.148718 
L 175.874045 163.019563 
L 176.121873 163.019563 
L 176.121873 162.890407 
L 176.252655 162.890407 
L 176.268936 161.857163 
L 176.414799 161.857163 
L 176.495322 160.048986 
L 176.543463 160.048986 
L 176.639356 159.015742 
L 176.671207 159.015742 
L 176.750586 158.628275 
L 176.845377 158.628275 
L 176.876863 158.369964 
L 177.095722 158.369964 
L 177.095722 158.240809 
L 177.250426 158.240809 
L 177.327278 157.853342 
L 177.403801 157.853342 
L 177.403801 157.724187 
L 178.019227 157.724187 
L 178.019227 157.595031 
L 178.15153 157.595031 
L 178.239191 156.303476 
L 178.384343 156.303476 
L 178.485252 156.045165 
L 178.713784 156.045165 
L 178.713784 155.786854 
L 178.897338 155.786854 
L 178.953439 154.882766 
L 179.009364 154.882766 
L 179.009364 154.75361 
L 179.354987 154.75361 
L 179.368673 154.236988 
L 179.532102 154.236988 
L 179.640231 153.978677 
L 179.894442 153.978677 
L 179.894442 153.849522 
L 180.288608 153.849522 
L 180.340512 153.591211 
L 180.456749 153.591211 
L 180.521 153.3329 
L 180.699683 153.3329 
L 180.725064 153.074589 
L 180.989408 153.074589 
L 181.001899 152.816278 
L 181.17586 152.816278 
L 181.17586 151.653878 
L 181.421474 151.653878 
L 181.530908 151.008101 
L 181.831421 151.008101 
L 181.843337 150.74979 
L 182.126964 150.74979 
L 182.220515 150.233168 
L 182.601316 150.233168 
L 182.601316 149.974857 
L 182.906954 149.974857 
L 182.906954 149.845701 
L 183.643548 149.845701 
L 183.750929 148.812457 
L 183.87894 148.812457 
L 183.932008 148.16668 
L 184.016591 148.16668 
L 184.090274 147.908369 
L 184.226313 147.908369 
L 184.226313 147.650058 
L 185.454916 147.650058 
L 185.454916 147.520902 
L 185.715769 147.520902 
L 185.715769 147.00428 
L 185.859058 147.00428 
L 185.859058 146.875125 
L 186.001208 146.875125 
L 186.09535 146.229347 
L 186.132868 146.229347 
L 186.160955 145.58357 
L 186.512957 145.58357 
L 186.512957 145.454414 
L 186.894109 145.454414 
L 186.992606 144.937792 
L 187.0639 144.937792 
L 187.170311 143.904548 
L 187.232093 143.904548 
L 187.30244 143.517081 
L 187.511834 143.517081 
L 187.555151 143.000459 
L 188.075328 143.000459 
L 188.159177 141.708904 
L 188.209298 141.708904 
L 188.209298 141.579749 
L 188.34227 141.579749 
L 188.350549 141.192282 
L 188.457815 141.192282 
L 188.457815 140.417349 
L 188.735352 140.417349 
L 188.735352 140.288194 
L 189.008644 140.288194 
L 189.088235 140.029883 
L 189.827174 140.029883 
L 189.827174 138.996639 
L 190.024195 138.996639 
L 190.046789 138.350861 
L 190.166811 138.350861 
L 190.166811 138.09255 
L 190.587952 138.09255 
L 190.587952 137.963395 
L 191.457306 137.963395 
L 191.457306 137.705084 
L 191.575156 137.705084 
L 191.630347 137.446773 
L 192.783959 137.446773 
L 192.783959 137.317617 
L 193.040413 137.317617 
L 193.0595 137.059306 
L 193.230367 137.059306 
L 193.318325 136.413529 
L 193.368394 136.413529 
L 193.468111 136.155218 
L 193.561094 136.155218 
L 193.610487 135.50944 
L 193.678181 135.50944 
L 193.751738 134.605352 
L 193.84326 134.605352 
L 193.92826 134.347041 
L 193.988727 134.347041 
L 194.048991 134.08873 
L 194.382761 134.08873 
L 194.382761 133.442952 
L 194.652341 133.442952 
L 194.652341 132.92633 
L 194.849014 132.92633 
L 194.849014 132.668019 
L 195.631273 132.668019 
L 195.631273 132.022242 
L 195.790248 132.022242 
L 195.790248 131.893086 
L 196.422909 131.893086 
L 196.422909 131.763931 
L 196.823988 131.763931 
L 196.823988 131.247309 
L 197.796302 131.247309 
L 197.845015 130.988998 
L 197.942046 130.988998 
L 197.971052 130.730687 
L 198.091409 130.730687 
L 198.153676 130.472376 
L 198.206194 130.472376 
L 198.22049 130.084909 
L 198.320246 130.084909 
L 198.320246 129.955754 
L 198.442987 129.955754 
L 198.550866 129.051665 
L 198.560217 129.051665 
L 198.560217 128.92251 
L 198.778548 128.92251 
L 198.778548 128.793354 
L 199.021593 128.793354 
L 199.039803 127.630954 
L 199.184815 127.630954 
L 199.243391 127.243488 
L 200.005164 127.243488 
L 200.005164 126.59771 
L 200.116893 126.59771 
L 200.125459 126.339399 
L 200.236442 126.339399 
L 200.236442 126.210244 
L 200.945587 126.210244 
L 200.994597 125.564466 
L 201.643398 125.564466 
L 201.721888 125.306155 
L 201.780529 125.306155 
L 201.862306 124.789533 
L 202.009337 124.789533 
L 202.063203 124.272911 
L 202.242861 124.272911 
L 202.284649 123.627134 
L 202.356598 123.627134 
L 202.356598 123.497978 
L 202.723175 123.497978 
L 202.726877 123.110512 
L 202.892682 123.110512 
L 202.892682 122.981356 
L 203.016944 122.981356 
L 203.016944 122.852201 
L 203.516157 122.852201 
L 203.516157 122.723045 
L 203.793787 122.723045 
L 203.793787 122.59389 
L 204.2924 122.59389 
L 204.2924 122.206423 
L 204.444355 122.206423 
L 204.444355 122.077268 
L 204.575012 122.077268 
L 204.575012 121.948112 
L 204.872931 121.948112 
L 204.872931 121.818957 
L 205.178877 121.818957 
L 205.278637 121.173179 
L 205.37465 121.173179 
L 205.45427 120.398246 
L 205.778609 120.398246 
L 205.881291 119.881624 
L 206.026523 119.881624 
L 206.026523 119.752469 
L 206.449259 119.752469 
L 206.449259 119.235847 
L 207.110133 119.235847 
L 207.110133 119.106691 
L 207.836649 119.106691 
L 207.900498 118.84838 
L 208.038519 118.84838 
L 208.107132 117.685981 
L 208.38707 117.685981 
L 208.38707 117.556825 
L 208.510688 117.556825 
L 208.510688 117.298514 
L 208.96809 117.298514 
L 209.043632 117.040203 
L 210.235113 117.040203 
L 210.261842 116.781892 
L 210.411751 116.781892 
L 210.416566 116.26527 
L 210.662796 116.26527 
L 210.740973 115.877804 
L 211.399994 115.877804 
L 211.399994 115.748648 
L 211.684769 115.748648 
L 211.684769 115.619493 
L 212.275796 115.619493 
L 212.351559 114.973715 
L 212.407632 114.973715 
L 212.442052 114.715404 
L 212.562002 114.715404 
L 212.562002 114.586249 
L 214.128646 114.586249 
L 214.196961 114.327938 
L 214.24754 114.327938 
L 214.292164 113.423849 
L 214.386863 113.423849 
L 214.49448 113.165538 
L 214.523196 113.165538 
L 214.582396 112.907227 
L 215.010023 112.907227 
L 215.056499 112.648916 
L 215.323701 112.648916 
L 215.323701 112.519761 
L 215.807287 112.519761 
L 215.869486 111.744828 
L 215.959734 111.744828 
L 215.959734 111.615672 
L 216.667458 111.615672 
L 216.667458 111.486517 
L 217.428059 111.486517 
L 217.441061 111.09905 
L 217.647818 111.09905 
L 217.647818 110.969895 
L 218.846511 110.969895 
L 218.954313 110.324117 
L 220.138256 110.324117 
L 220.181512 109.93665 
L 221.298422 109.93665 
L 221.396344 109.420028 
L 222.43949 109.420028 
L 222.514254 109.032562 
L 223.499314 109.032562 
L 223.598581 108.128473 
L 223.965435 108.128473 
L 223.965435 107.999318 
L 224.511815 107.999318 
L 224.603452 107.482696 
L 225.502112 107.482696 
L 225.600144 107.095229 
L 225.967837 107.095229 
L 225.967837 106.966074 
L 226.461982 106.966074 
L 226.461982 106.836918 
L 227.301942 106.836918 
L 227.325316 106.320296 
L 227.696128 106.320296 
L 227.696128 106.191141 
L 228.070158 106.191141 
L 228.080013 105.93283 
L 228.930974 105.93283 
L 228.930974 105.803674 
L 229.623692 105.803674 
L 229.658166 105.416208 
L 230.339559 105.416208 
L 230.444233 105.028741 
L 231.101368 105.028741 
L 231.101368 104.899586 
L 231.402133 104.899586 
L 231.402133 104.77043 
L 231.714737 104.77043 
L 231.769468 104.253808 
L 232.374788 104.253808 
L 232.413485 103.995497 
L 233.000443 103.995497 
L 233.033738 103.737186 
L 234.162252 103.737186 
L 234.246813 103.34972 
L 235.280667 103.34972 
L 235.310573 103.091409 
L 236.340517 103.091409 
L 236.340517 102.962253 
L 236.593715 102.962253 
L 236.593715 102.703942 
L 236.851053 102.703942 
L 236.851053 102.574787 
L 237.315383 102.574787 
L 237.315383 102.445631 
L 237.784091 102.445631 
L 237.828787 102.18732 
L 238.277301 102.18732 
L 238.277301 102.058165 
L 238.702478 102.058165 
L 238.702478 101.799854 
L 240.01259 101.799854 
L 240.01259 101.670698 
L 240.453599 101.670698 
L 240.453599 101.541543 
L 241.568506 101.541543 
L 241.568506 101.412387 
L 242.674996 101.412387 
L 242.674996 101.283232 
L 243.401305 101.283232 
L 243.401305 101.154076 
L 244.693689 101.154076 
L 244.693689 101.024921 
L 246.788978 101.024921 
L 246.788978 100.895765 
L 247.636543 100.895765 
L 247.636543 100.76661 
L 249.43204 100.76661 
L 249.43204 100.637454 
L 358.8 100.637454 
L 358.8 100.637454 
" style="fill:none;stroke:#ff00ff;stroke-linecap:square;stroke-width:1.5;"/>
   </g>
   <g id="line2d_53">
    <defs>
     <path d="M -0 8.485281 
L 5.091169 0 
L 0 -8.485281 
L -5.091169 -0 
z
" id="m9b7ab34422" style="stroke:#ff00ff;stroke-linejoin:miter;stroke-width:1.5;"/>
    </defs>
    <g>
     <use style="fill:none;stroke:#ff00ff;stroke-linejoin:miter;stroke-width:1.5;" x="132.726171" xlink:href="#m9b7ab34422" y="257.690547"/>
     <use style="fill:none;stroke:#ff00ff;stroke-linejoin:miter;stroke-width:1.5;" x="172.596326" xlink:href="#m9b7ab34422" y="170.768893"/>
     <use style="fill:none;stroke:#ff00ff;stroke-linejoin:miter;stroke-width:1.5;" x="214.292164" xlink:href="#m9b7ab34422" y="113.68216"/>
     <use style="fill:none;stroke:#ff00ff;stroke-linejoin:miter;stroke-width:1.5;" x="249.43204" xlink:href="#m9b7ab34422" y="100.637454"/>
     <use style="fill:none;stroke:#ff00ff;stroke-linejoin:miter;stroke-width:1.5;" x="249.43204" xlink:href="#m9b7ab34422" y="100.637454"/>
     <use style="fill:none;stroke:#ff00ff;stroke-linejoin:miter;stroke-width:1.5;" x="358.8" xlink:href="#m9b7ab34422" y="100.637454"/>
    </g>
   </g>
   <g id="line2d_54"/>
   <g id="line2d_55">
    <path clip-path="url(#pc9eaeddef3)" d="M 172.715846 170.639737 
" style="fill:none;stroke:#ff00ff;stroke-linecap:square;stroke-width:1.5;"/>
    <defs>
     <path d="M -12 12 
L 12 -12 
M -12 -12 
L 12 12 
" id="m7c59da9bf4" style="stroke:#ff00ff;stroke-width:3;"/>
    </defs>
    <g clip-path="url(#pc9eaeddef3)">
     <use style="fill:#ff00ff;stroke:#ff00ff;stroke-width:3;" x="172.715846" xlink:href="#m7c59da9bf4" y="170.639737"/>
    </g>
   </g>
   <g id="line2d_56">
    <path d="M 358.8 184.588532 
L 390.48 292.97583 
" style="fill:none;stroke:#000080;stroke-linecap:square;stroke-width:1.5;"/>
    <g>
     <use style="fill:none;stroke:#000080;stroke-width:1.5;" x="358.8" xlink:href="#m58a07d1c51" y="184.588532"/>
     <use style="fill:none;stroke:#000080;stroke-width:1.5;" x="390.48" xlink:href="#m58a07d1c51" y="292.97583"/>
    </g>
   </g>
   <g id="line2d_57">
    <path d="M 358.8 100.637454 
L 390.48 166.506761 
" style="fill:none;stroke:#ff00ff;stroke-linecap:square;stroke-width:1.5;"/>
    <g>
     <use style="fill:none;stroke:#ff00ff;stroke-linejoin:miter;stroke-width:1.5;" x="358.8" xlink:href="#m9b7ab34422" y="100.637454"/>
     <use style="fill:none;stroke:#ff00ff;stroke-linejoin:miter;stroke-width:1.5;" x="390.48" xlink:href="#m9b7ab34422" y="166.506761"/>
    </g>
   </g>
   <g id="line2d_58">
    <path d="M 358.8 298.245375 
L 358.8 34.768147 
" style="fill:none;stroke:#000000;stroke-linecap:square;stroke-width:1.5;"/>
   </g>
   <g id="patch_3">
    <path d="M 70.8 298.245375 
L 70.8 32.133375 
" style="fill:none;stroke:#000000;stroke-linecap:square;stroke-linejoin:miter;stroke-width:0.8;"/>
   </g>
   <g id="patch_4">
    <path d="M 427.92 298.245375 
L 427.92 32.133375 
" style="fill:none;stroke:#000000;stroke-linecap:square;stroke-linejoin:miter;stroke-width:0.8;"/>
   </g>
   <g id="patch_5">
    <path d="M 70.8 298.245375 
L 427.92 298.245375 
" style="fill:none;stroke:#000000;stroke-linecap:square;stroke-linejoin:miter;stroke-width:0.8;"/>
   </g>
   <g id="patch_6">
    <path d="M 70.8 32.133375 
L 427.92 32.133375 
" style="fill:none;stroke:#000000;stroke-linecap:square;stroke-linejoin:miter;stroke-width:0.8;"/>
   </g>
   <g id="text_14">
    <!-- teste -->
    <g transform="translate(396.24 297.114893)scale(0.15 -0.15)">
     <use xlink:href="#DejaVuSans-74"/>
     <use x="39.208984" xlink:href="#DejaVuSans-65"/>
     <use x="100.732422" xlink:href="#DejaVuSans-73"/>
     <use x="152.832031" xlink:href="#DejaVuSans-74"/>
     <use x="192.041016" xlink:href="#DejaVuSans-65"/>
    </g>
   </g>
   <g id="text_15">
    <!-- deapbbob -->
    <defs>
     <path d="M 48.6875 27.296875 
Q 48.6875 37.203125 44.609375 42.84375 
Q 40.53125 48.484375 33.40625 48.484375 
Q 26.265625 48.484375 22.1875 42.84375 
Q 18.109375 37.203125 18.109375 27.296875 
Q 18.109375 17.390625 22.1875 11.75 
Q 26.265625 6.109375 33.40625 6.109375 
Q 40.53125 6.109375 44.609375 11.75 
Q 48.6875 17.390625 48.6875 27.296875 
M 18.109375 46.390625 
Q 20.953125 51.265625 25.265625 53.625 
Q 29.59375 56 35.59375 56 
Q 45.5625 56 51.78125 48.09375 
Q 58.015625 40.1875 58.015625 27.296875 
Q 58.015625 14.40625 51.78125 6.484375 
Q 45.5625 -1.421875 35.59375 -1.421875 
Q 29.59375 -1.421875 25.265625 0.953125 
Q 20.953125 3.328125 18.109375 8.203125 
L 18.109375 0 
L 9.078125 0 
L 9.078125 75.984375 
L 18.109375 75.984375 
z
" id="DejaVuSans-62"/>
    </defs>
    <g transform="translate(396.24 170.645824)scale(0.15 -0.15)">
     <use xlink:href="#DejaVuSans-64"/>
     <use x="63.476562" xlink:href="#DejaVuSans-65"/>
     <use x="125" xlink:href="#DejaVuSans-61"/>
     <use x="186.279297" xlink:href="#DejaVuSans-70"/>
     <use x="249.755859" xlink:href="#DejaVuSans-62"/>
     <use x="313.232422" xlink:href="#DejaVuSans-62"/>
     <use x="376.708984" xlink:href="#DejaVuSans-6f"/>
     <use x="437.890625" xlink:href="#DejaVuSans-62"/>
    </g>
   </g>
   <g id="text_16">
    <!-- best 2009 -->
    <defs>
     <path d="M 10.984375 1.515625 
L 10.984375 10.5 
Q 14.703125 8.734375 18.5 7.8125 
Q 22.3125 6.890625 25.984375 6.890625 
Q 35.75 6.890625 40.890625 13.453125 
Q 46.046875 20.015625 46.78125 33.40625 
Q 43.953125 29.203125 39.59375 26.953125 
Q 35.25 24.703125 29.984375 24.703125 
Q 19.046875 24.703125 12.671875 31.3125 
Q 6.296875 37.9375 6.296875 49.421875 
Q 6.296875 60.640625 12.9375 67.421875 
Q 19.578125 74.21875 30.609375 74.21875 
Q 43.265625 74.21875 49.921875 64.515625 
Q 56.59375 54.828125 56.59375 36.375 
Q 56.59375 19.140625 48.40625 8.859375 
Q 40.234375 -1.421875 26.421875 -1.421875 
Q 22.703125 -1.421875 18.890625 -0.6875 
Q 15.09375 0.046875 10.984375 1.515625 
M 30.609375 32.421875 
Q 37.25 32.421875 41.125 36.953125 
Q 45.015625 41.5 45.015625 49.421875 
Q 45.015625 57.28125 41.125 61.84375 
Q 37.25 66.40625 30.609375 66.40625 
Q 23.96875 66.40625 20.09375 61.84375 
Q 16.21875 57.28125 16.21875 49.421875 
Q 16.21875 41.5 20.09375 36.953125 
Q 23.96875 32.421875 30.609375 32.421875 
" id="DejaVuSans-39"/>
    </defs>
    <g transform="translate(396.24 44.176754)scale(0.15 -0.15)">
     <use xlink:href="#DejaVuSans-62"/>
     <use x="63.476562" xlink:href="#DejaVuSans-65"/>
     <use x="125" xlink:href="#DejaVuSans-73"/>
     <use x="177.099609" xlink:href="#DejaVuSans-74"/>
     <use x="216.308594" xlink:href="#DejaVuSans-20"/>
     <use x="248.095703" xlink:href="#DejaVuSans-32"/>
     <use x="311.71875" xlink:href="#DejaVuSans-30"/>
     <use x="375.341797" xlink:href="#DejaVuSans-30"/>
     <use x="438.964844" xlink:href="#DejaVuSans-39"/>
    </g>
   </g>
   <g id="text_17">
    <!-- bbob - f6-f9, 3-D -->
    <defs>
     <path d="M 11.71875 12.40625 
L 22.015625 12.40625 
L 22.015625 4 
L 14.015625 -11.625 
L 7.71875 -11.625 
L 11.71875 4 
z
" id="DejaVuSans-2c"/>
     <path d="M 40.578125 39.3125 
Q 47.65625 37.796875 51.625 33 
Q 55.609375 28.21875 55.609375 21.1875 
Q 55.609375 10.40625 48.1875 4.484375 
Q 40.765625 -1.421875 27.09375 -1.421875 
Q 22.515625 -1.421875 17.65625 -0.515625 
Q 12.796875 0.390625 7.625 2.203125 
L 7.625 11.71875 
Q 11.71875 9.328125 16.59375 8.109375 
Q 21.484375 6.890625 26.8125 6.890625 
Q 36.078125 6.890625 40.9375 10.546875 
Q 45.796875 14.203125 45.796875 21.1875 
Q 45.796875 27.640625 41.28125 31.265625 
Q 36.765625 34.90625 28.71875 34.90625 
L 20.21875 34.90625 
L 20.21875 43.015625 
L 29.109375 43.015625 
Q 36.375 43.015625 40.234375 45.921875 
Q 44.09375 48.828125 44.09375 54.296875 
Q 44.09375 59.90625 40.109375 62.90625 
Q 36.140625 65.921875 28.71875 65.921875 
Q 24.65625 65.921875 20.015625 65.03125 
Q 15.375 64.15625 9.8125 62.3125 
L 9.8125 71.09375 
Q 15.4375 72.65625 20.34375 73.4375 
Q 25.25 74.21875 29.59375 74.21875 
Q 40.828125 74.21875 47.359375 69.109375 
Q 53.90625 64.015625 53.90625 55.328125 
Q 53.90625 49.265625 50.4375 45.09375 
Q 46.96875 40.921875 40.578125 39.3125 
" id="DejaVuSans-33"/>
     <path d="M 19.671875 64.796875 
L 19.671875 8.109375 
L 31.59375 8.109375 
Q 46.6875 8.109375 53.6875 14.9375 
Q 60.6875 21.78125 60.6875 36.53125 
Q 60.6875 51.171875 53.6875 57.984375 
Q 46.6875 64.796875 31.59375 64.796875 
z
M 9.8125 72.90625 
L 30.078125 72.90625 
Q 51.265625 72.90625 61.171875 64.09375 
Q 71.09375 55.28125 71.09375 36.53125 
Q 71.09375 17.671875 61.125 8.828125 
Q 51.171875 0 30.078125 0 
L 9.8125 0 
z
" id="DejaVuSans-44"/>
    </defs>
    <g transform="translate(74.3712 50.114612)scale(0.1666 -0.1666)">
     <use xlink:href="#DejaVuSans-62"/>
     <use x="63.476562" xlink:href="#DejaVuSans-62"/>
     <use x="126.953125" xlink:href="#DejaVuSans-6f"/>
     <use x="188.134766" xlink:href="#DejaVuSans-62"/>
     <use x="251.611328" xlink:href="#DejaVuSans-20"/>
     <use x="283.398438" xlink:href="#DejaVuSans-2d"/>
     <use x="319.482422" xlink:href="#DejaVuSans-20"/>
     <use x="351.269531" xlink:href="#DejaVuSans-66"/>
     <use x="386.474609" xlink:href="#DejaVuSans-36"/>
     <use x="450.097656" xlink:href="#DejaVuSans-2d"/>
     <use x="486.181641" xlink:href="#DejaVuSans-66"/>
     <use x="521.386719" xlink:href="#DejaVuSans-39"/>
     <use x="585.009766" xlink:href="#DejaVuSans-2c"/>
     <use x="616.796875" xlink:href="#DejaVuSans-20"/>
     <use x="648.583984" xlink:href="#DejaVuSans-33"/>
     <use x="712.207031" xlink:href="#DejaVuSans-2d"/>
     <use x="748.291016" xlink:href="#DejaVuSans-44"/>
    </g>
    <!-- 51 targets in 100..1e-08 -->
    <defs>
     <path d="M 10.796875 72.90625 
L 49.515625 72.90625 
L 49.515625 64.59375 
L 19.828125 64.59375 
L 19.828125 46.734375 
Q 21.96875 47.46875 24.109375 47.828125 
Q 26.265625 48.1875 28.421875 48.1875 
Q 40.625 48.1875 47.75 41.5 
Q 54.890625 34.8125 54.890625 23.390625 
Q 54.890625 11.625 47.5625 5.09375 
Q 40.234375 -1.421875 26.90625 -1.421875 
Q 22.3125 -1.421875 17.546875 -0.640625 
Q 12.796875 0.140625 7.71875 1.703125 
L 7.71875 11.625 
Q 12.109375 9.234375 16.796875 8.0625 
Q 21.484375 6.890625 26.703125 6.890625 
Q 35.15625 6.890625 40.078125 11.328125 
Q 45.015625 15.765625 45.015625 23.390625 
Q 45.015625 31 40.078125 35.4375 
Q 35.15625 39.890625 26.703125 39.890625 
Q 22.75 39.890625 18.8125 39.015625 
Q 14.890625 38.140625 10.796875 36.28125 
z
" id="DejaVuSans-35"/>
    </defs>
    <g transform="translate(74.3712 68.770168)scale(0.1666 -0.1666)">
     <use xlink:href="#DejaVuSans-35"/>
     <use x="63.623047" xlink:href="#DejaVuSans-31"/>
     <use x="127.246094" xlink:href="#DejaVuSans-20"/>
     <use x="159.033203" xlink:href="#DejaVuSans-74"/>
     <use x="198.242188" xlink:href="#DejaVuSans-61"/>
     <use x="259.521484" xlink:href="#DejaVuSans-72"/>
     <use x="300.619141" xlink:href="#DejaVuSans-67"/>
     <use x="364.095703" xlink:href="#DejaVuSans-65"/>
     <use x="425.619141" xlink:href="#DejaVuSans-74"/>
     <use x="464.828125" xlink:href="#DejaVuSans-73"/>
     <use x="516.927734" xlink:href="#DejaVuSans-20"/>
     <use x="548.714844" xlink:href="#DejaVuSans-69"/>
     <use x="576.498047" xlink:href="#DejaVuSans-6e"/>
     <use x="639.876953" xlink:href="#DejaVuSans-20"/>
     <use x="671.664062" xlink:href="#DejaVuSans-31"/>
     <use x="735.287109" xlink:href="#DejaVuSans-30"/>
     <use x="798.910156" xlink:href="#DejaVuSans-30"/>
     <use x="862.533203" xlink:href="#DejaVuSans-2e"/>
     <use x="894.320312" xlink:href="#DejaVuSans-2e"/>
     <use x="926.107422" xlink:href="#DejaVuSans-31"/>
     <use x="989.730469" xlink:href="#DejaVuSans-65"/>
     <use x="1051.253906" xlink:href="#DejaVuSans-2d"/>
     <use x="1087.337891" xlink:href="#DejaVuSans-30"/>
     <use x="1150.960938" xlink:href="#DejaVuSans-38"/>
    </g>
    <!-- 1, 15 instances -->
    <g transform="translate(74.3712 87.425723)scale(0.1666 -0.1666)">
     <use xlink:href="#DejaVuSans-31"/>
     <use x="63.623047" xlink:href="#DejaVuSans-2c"/>
     <use x="95.410156" xlink:href="#DejaVuSans-20"/>
     <use x="127.197266" xlink:href="#DejaVuSans-31"/>
     <use x="190.820312" xlink:href="#DejaVuSans-35"/>
     <use x="254.443359" xlink:href="#DejaVuSans-20"/>
     <use x="286.230469" xlink:href="#DejaVuSans-69"/>
     <use x="314.013672" xlink:href="#DejaVuSans-6e"/>
     <use x="377.392578" xlink:href="#DejaVuSans-73"/>
     <use x="429.492188" xlink:href="#DejaVuSans-74"/>
     <use x="468.701172" xlink:href="#DejaVuSans-61"/>
     <use x="529.980469" xlink:href="#DejaVuSans-6e"/>
     <use x="593.359375" xlink:href="#DejaVuSans-63"/>
     <use x="648.339844" xlink:href="#DejaVuSans-65"/>
     <use x="709.863281" xlink:href="#DejaVuSans-73"/>
    </g>
   </g>
   <g id="text_18">
    <!-- v2.1 -->
    <g style="fill:#808080;" transform="translate(238.449063 293.504568)scale(0.1 -0.1)">
     <use xlink:href="#DejaVuSans-76"/>
     <use x="59.179688" xlink:href="#DejaVuSans-32"/>
     <use x="122.802734" xlink:href="#DejaVuSans-2e"/>
     <use x="154.589844" xlink:href="#DejaVuSans-31"/>
    </g>
   </g>
  </g>
 </g>
 <defs>
  <clipPath id="pc9eaeddef3">
   <rect height="266.112" width="357.12" x="70.8" y="32.133375"/>
  </clipPath>
 </defs>
</svg>
