<?xml version="1.0" encoding="utf-8" standalone="no"?>
<!DOCTYPE svg PUBLIC "-//W3C//DTD SVG 1.1//EN"
  "http://www.w3.org/Graphics/SVG/1.1/DTD/svg11.dtd">
<!-- Created with matplotlib (http://matplotlib.org/) -->
<svg height="353pt" version="1.1" viewBox="0 0 478 353" width="478pt" xmlns="http://www.w3.org/2000/svg" xmlns:xlink="http://www.w3.org/1999/xlink">
 <defs>
  <style type="text/css">
*{stroke-linecap:butt;stroke-linejoin:round;}
  </style>
 </defs>
 <g id="figure_1">
  <g id="patch_1">
   <path d="M 0 353.22225 
L 478.829063 353.22225 
L 478.829063 0 
L 0 0 
z
" style="fill:#ffffff;"/>
  </g>
  <g id="axes_1">
   <g id="patch_2">
    <path d="M 70.8 298.245375 
L 427.92 298.245375 
L 427.92 32.133375 
L 70.8 32.133375 
z
" style="fill:#ffffff;"/>
   </g>
   <g id="line2d_1">
    <path d="M 58.414766 298.245375 
L 58.414766 284.813203 
L 70.8 284.813203 
L 70.8 281.713471 
L 78.044898 281.713471 
L 78.044898 276.54725 
L 83.185234 276.54725 
L 83.185234 269.314542 
L 87.172389 269.314542 
L 87.172389 267.248054 
L 90.430132 267.248054 
L 90.430132 266.21481 
L 95.570468 266.21481 
L 95.570468 263.115078 
L 97.675029 263.115078 
L 97.675029 262.081834 
L 104.245578 262.081834 
L 104.245578 261.04859 
L 107.955702 261.04859 
L 107.955702 260.015346 
L 110.060263 260.015346 
L 110.060263 257.948858 
L 112.814645 257.948858 
L 112.814645 256.915614 
L 115.930012 256.915614 
L 115.930012 255.88237 
L 117.305161 255.88237 
L 117.305161 254.849126 
L 119.187755 254.849126 
L 119.187755 253.815882 
L 120.890768 253.815882 
L 120.890768 252.782638 
L 124.328091 252.782638 
L 124.328091 250.71615 
L 126.031105 250.71615 
L 126.031105 249.682906 
L 128.669082 249.682906 
L 128.669082 248.649662 
L 130.018259 248.649662 
L 130.018259 247.616418 
L 131.868336 247.616418 
L 131.868336 246.583173 
L 134.327371 246.583173 
L 134.327371 245.549929 
L 135.3203 245.549929 
L 135.3203 242.450197 
L 141.22864 242.450197 
L 141.22864 241.416953 
L 141.572268 241.416953 
L 141.572268 240.383709 
L 142.884279 240.383709 
L 142.884279 239.350465 
L 146.584518 239.350465 
L 146.584518 237.283977 
L 149.970348 237.283977 
L 149.970348 236.250733 
L 150.597364 236.250733 
L 150.597364 235.217489 
L 151.789013 235.217489 
L 151.789013 234.184245 
L 151.980117 234.184245 
L 151.980117 232.117757 
L 152.262996 232.117757 
L 152.262996 231.084513 
L 152.449124 231.084513 
L 152.449124 230.051269 
L 152.815662 230.051269 
L 152.815662 229.018025 
L 153.43955 229.018025 
L 153.43955 227.984781 
L 153.786515 227.984781 
L 153.786515 226.951537 
L 154.12687 226.951537 
L 154.12687 225.918293 
L 154.625547 225.918293 
L 154.625547 223.851805 
L 154.788728 223.851805 
L 154.869762 221.785317 
L 155.030737 221.785317 
L 155.030737 220.752073 
L 155.269513 220.752073 
L 155.348401 218.685585 
L 155.50514 218.685585 
L 155.50514 217.652341 
L 155.891075 217.652341 
L 155.891075 216.619097 
L 156.343457 216.619097 
L 156.343457 215.585853 
L 156.638804 215.585853 
L 156.638804 214.552609 
L 157.001253 214.552609 
L 157.001253 212.48612 
L 157.144199 212.48612 
L 157.144199 211.452876 
L 157.28601 211.452876 
L 157.28601 210.419632 
L 157.635691 210.419632 
L 157.635691 209.386388 
L 157.97866 209.386388 
L 157.97866 207.3199 
L 158.181325 207.3199 
L 158.248372 205.253412 
L 158.514074 205.253412 
L 158.514074 204.220168 
L 158.775882 204.220168 
L 158.84074 201.120436 
L 159.03391 201.120436 
L 159.097839 196.98746 
L 159.288265 196.98746 
L 159.288265 194.920972 
L 159.414097 194.920972 
L 159.476683 192.854484 
L 159.53905 192.854484 
L 159.6012 190.787996 
L 159.663134 190.787996 
L 159.724855 185.621776 
L 159.786363 185.621776 
L 159.786363 184.588532 
L 159.908748 184.588532 
L 159.969627 181.4888 
L 160.090768 181.4888 
L 160.090768 180.455556 
L 160.211092 180.455556 
L 160.270952 176.322579 
L 160.330612 176.322579 
L 160.390073 174.256091 
L 160.508405 174.256091 
L 160.567279 172.189603 
L 160.625959 172.189603 
L 160.684447 168.056627 
L 160.742745 168.056627 
L 160.800853 165.990139 
L 160.97405 165.990139 
L 160.97405 164.956895 
L 161.08859 164.956895 
L 161.08859 163.923651 
L 161.371767 163.923651 
L 161.371767 162.890407 
L 161.483794 162.890407 
L 161.539544 160.823919 
L 161.595122 160.823919 
L 161.705761 152.557967 
L 161.760824 152.557967 
L 161.870445 147.391747 
L 161.925004 147.391747 
L 162.033625 142.225526 
L 162.087689 142.225526 
L 162.14159 138.09255 
L 162.302324 138.09255 
L 162.302324 137.059306 
L 162.619517 137.059306 
L 162.619517 136.026062 
L 162.776028 136.026062 
L 162.776028 134.992818 
L 162.982598 134.992818 
L 162.982598 133.959574 
L 163.135973 133.959574 
L 163.135973 132.92633 
L 163.338447 132.92633 
L 163.43883 129.826598 
L 163.48881 129.826598 
L 163.588354 126.726866 
L 163.785794 126.726866 
L 163.883702 110.194961 
L 163.932455 110.194961 
L 164.029565 103.995497 
L 164.077923 103.995497 
L 164.12615 95.729545 
L 164.222215 95.729545 
L 164.317767 85.397105 
L 164.365352 85.397105 
L 164.365352 84.363861 
L 164.507351 84.363861 
L 164.601393 82.297373 
L 164.788007 82.297373 
L 164.788007 81.264129 
L 164.9267 81.264129 
L 165.018567 79.197641 
L 168.950658 79.197641 
L 168.950658 78.164397 
L 178.210018 78.164397 
L 178.210018 77.131153 
L 179.085977 77.131153 
L 179.085977 76.097908 
L 193.536346 76.097908 
L 193.536346 75.064664 
L 209.06052 75.064664 
L 209.06052 74.03142 
L 210.572348 74.03142 
L 210.572348 72.998176 
L 216.28333 72.998176 
L 216.28333 71.964932 
L 220.113792 71.964932 
L 220.113792 70.931688 
L 231.238502 70.931688 
L 231.238502 69.898444 
L 234.559933 69.898444 
L 234.577687 67.831956 
L 238.047274 67.831956 
L 238.047274 66.798712 
L 238.176026 66.798712 
L 238.213405 64.732224 
L 238.305373 64.732224 
L 238.384044 62.665736 
L 238.545592 62.665736 
L 238.545592 61.632492 
L 238.713103 61.632492 
L 238.76416 59.566004 
L 239.155886 59.566004 
L 239.1595 34.768147 
L 358.8 34.768147 
L 358.8 34.768147 
" style="fill:none;stroke:#f5deb3;stroke-linecap:square;stroke-width:6;"/>
   </g>
   <g id="line2d_2"/>
   <g id="line2d_3">
    <path d="M 358.8 34.768147 
L 390.48 40.037692 
" style="fill:none;stroke:#f5deb3;stroke-linecap:square;stroke-width:6;"/>
    <defs>
     <path d="M -0 7.778175 
L 7.778175 0 
L 0 -7.778175 
L -7.778175 -0 
z
" id="m6f1acc88e3" style="stroke:#f5deb3;stroke-linejoin:miter;stroke-width:1.5;"/>
    </defs>
    <g>
     <use style="fill:#f5deb3;stroke:#f5deb3;stroke-linejoin:miter;stroke-width:1.5;" x="358.8" xlink:href="#m6f1acc88e3" y="34.768147"/>
     <use style="fill:#f5deb3;stroke:#f5deb3;stroke-linejoin:miter;stroke-width:1.5;" x="390.48" xlink:href="#m6f1acc88e3" y="40.037692"/>
    </g>
   </g>
   <g id="matplotlib.axis_1">
    <g id="xtick_1">
     <g id="line2d_4">
      <path clip-path="url(#pd729e2c93b)" d="M 70.8 298.245375 
L 70.8 32.133375 
" style="fill:none;stroke:#b0b0b0;stroke-linecap:square;stroke-width:0.8;"/>
     </g>
     <g id="line2d_5">
      <defs>
       <path d="M 0 0 
L 0 3.5 
" id="m0a8b2e3c0c" style="stroke:#000000;stroke-width:0.8;"/>
      </defs>
      <g>
       <use style="stroke:#000000;stroke-width:0.8;" x="70.8" xlink:href="#m0a8b2e3c0c" y="298.245375"/>
      </g>
     </g>
     <g id="text_1">
      <!-- 0 -->
      <defs>
       <path d="M 31.78125 66.40625 
Q 24.171875 66.40625 20.328125 58.90625 
Q 16.5 51.421875 16.5 36.375 
Q 16.5 21.390625 20.328125 13.890625 
Q 24.171875 6.390625 31.78125 6.390625 
Q 39.453125 6.390625 43.28125 13.890625 
Q 47.125 21.390625 47.125 36.375 
Q 47.125 51.421875 43.28125 58.90625 
Q 39.453125 66.40625 31.78125 66.40625 
M 31.78125 74.21875 
Q 44.046875 74.21875 50.515625 64.515625 
Q 56.984375 54.828125 56.984375 36.375 
Q 56.984375 17.96875 50.515625 8.265625 
Q 44.046875 -1.421875 31.78125 -1.421875 
Q 19.53125 -1.421875 13.0625 8.265625 
Q 6.59375 17.96875 6.59375 36.375 
Q 6.59375 54.828125 13.0625 64.515625 
Q 19.53125 74.21875 31.78125 74.21875 
" id="DejaVuSans-30"/>
      </defs>
      <g transform="translate(64.4375 320.44225)scale(0.2 -0.2)">
       <use xlink:href="#DejaVuSans-30"/>
      </g>
     </g>
    </g>
    <g id="xtick_2">
     <g id="line2d_6">
      <path clip-path="url(#pd729e2c93b)" d="M 153.085714 298.245375 
L 153.085714 32.133375 
" style="fill:none;stroke:#b0b0b0;stroke-linecap:square;stroke-width:0.8;"/>
     </g>
     <g id="line2d_7">
      <g>
       <use style="stroke:#000000;stroke-width:0.8;" x="153.085714" xlink:href="#m0a8b2e3c0c" y="298.245375"/>
      </g>
     </g>
     <g id="text_2">
      <!-- 2 -->
      <defs>
       <path d="M 19.1875 8.296875 
L 53.609375 8.296875 
L 53.609375 0 
L 7.328125 0 
L 7.328125 8.296875 
Q 12.9375 14.109375 22.625 23.890625 
Q 32.328125 33.6875 34.8125 36.53125 
Q 39.546875 41.84375 41.421875 45.53125 
Q 43.3125 49.21875 43.3125 52.78125 
Q 43.3125 58.59375 39.234375 62.25 
Q 35.15625 65.921875 28.609375 65.921875 
Q 23.96875 65.921875 18.8125 64.3125 
Q 13.671875 62.703125 7.8125 59.421875 
L 7.8125 69.390625 
Q 13.765625 71.78125 18.9375 73 
Q 24.125 74.21875 28.421875 74.21875 
Q 39.75 74.21875 46.484375 68.546875 
Q 53.21875 62.890625 53.21875 53.421875 
Q 53.21875 48.921875 51.53125 44.890625 
Q 49.859375 40.875 45.40625 35.40625 
Q 44.1875 33.984375 37.640625 27.21875 
Q 31.109375 20.453125 19.1875 8.296875 
" id="DejaVuSans-32"/>
      </defs>
      <g transform="translate(146.723214 320.44225)scale(0.2 -0.2)">
       <use xlink:href="#DejaVuSans-32"/>
      </g>
     </g>
    </g>
    <g id="xtick_3">
     <g id="line2d_8">
      <path clip-path="url(#pd729e2c93b)" d="M 235.371429 298.245375 
L 235.371429 32.133375 
" style="fill:none;stroke:#b0b0b0;stroke-linecap:square;stroke-width:0.8;"/>
     </g>
     <g id="line2d_9">
      <g>
       <use style="stroke:#000000;stroke-width:0.8;" x="235.371429" xlink:href="#m0a8b2e3c0c" y="298.245375"/>
      </g>
     </g>
     <g id="text_3">
      <!-- 4 -->
      <defs>
       <path d="M 37.796875 64.3125 
L 12.890625 25.390625 
L 37.796875 25.390625 
z
M 35.203125 72.90625 
L 47.609375 72.90625 
L 47.609375 25.390625 
L 58.015625 25.390625 
L 58.015625 17.1875 
L 47.609375 17.1875 
L 47.609375 0 
L 37.796875 0 
L 37.796875 17.1875 
L 4.890625 17.1875 
L 4.890625 26.703125 
z
" id="DejaVuSans-34"/>
      </defs>
      <g transform="translate(229.008929 320.44225)scale(0.2 -0.2)">
       <use xlink:href="#DejaVuSans-34"/>
      </g>
     </g>
    </g>
    <g id="xtick_4">
     <g id="line2d_10">
      <path clip-path="url(#pd729e2c93b)" d="M 317.657143 298.245375 
L 317.657143 32.133375 
" style="fill:none;stroke:#b0b0b0;stroke-linecap:square;stroke-width:0.8;"/>
     </g>
     <g id="line2d_11">
      <g>
       <use style="stroke:#000000;stroke-width:0.8;" x="317.657143" xlink:href="#m0a8b2e3c0c" y="298.245375"/>
      </g>
     </g>
     <g id="text_4">
      <!-- 6 -->
      <defs>
       <path d="M 33.015625 40.375 
Q 26.375 40.375 22.484375 35.828125 
Q 18.609375 31.296875 18.609375 23.390625 
Q 18.609375 15.53125 22.484375 10.953125 
Q 26.375 6.390625 33.015625 6.390625 
Q 39.65625 6.390625 43.53125 10.953125 
Q 47.40625 15.53125 47.40625 23.390625 
Q 47.40625 31.296875 43.53125 35.828125 
Q 39.65625 40.375 33.015625 40.375 
M 52.59375 71.296875 
L 52.59375 62.3125 
Q 48.875 64.0625 45.09375 64.984375 
Q 41.3125 65.921875 37.59375 65.921875 
Q 27.828125 65.921875 22.671875 59.328125 
Q 17.53125 52.734375 16.796875 39.40625 
Q 19.671875 43.65625 24.015625 45.921875 
Q 28.375 48.1875 33.59375 48.1875 
Q 44.578125 48.1875 50.953125 41.515625 
Q 57.328125 34.859375 57.328125 23.390625 
Q 57.328125 12.15625 50.6875 5.359375 
Q 44.046875 -1.421875 33.015625 -1.421875 
Q 20.359375 -1.421875 13.671875 8.265625 
Q 6.984375 17.96875 6.984375 36.375 
Q 6.984375 53.65625 15.1875 63.9375 
Q 23.390625 74.21875 37.203125 74.21875 
Q 40.921875 74.21875 44.703125 73.484375 
Q 48.484375 72.75 52.59375 71.296875 
" id="DejaVuSans-36"/>
      </defs>
      <g transform="translate(311.294643 320.44225)scale(0.2 -0.2)">
       <use xlink:href="#DejaVuSans-36"/>
      </g>
     </g>
    </g>
    <g id="xtick_5">
     <g id="line2d_12">
      <path clip-path="url(#pd729e2c93b)" d="M 399.942857 298.245375 
L 399.942857 32.133375 
" style="fill:none;stroke:#b0b0b0;stroke-linecap:square;stroke-width:0.8;"/>
     </g>
     <g id="line2d_13">
      <g>
       <use style="stroke:#000000;stroke-width:0.8;" x="399.942857" xlink:href="#m0a8b2e3c0c" y="298.245375"/>
      </g>
     </g>
     <g id="text_5">
      <!-- 8 -->
      <defs>
       <path d="M 31.78125 34.625 
Q 24.75 34.625 20.71875 30.859375 
Q 16.703125 27.09375 16.703125 20.515625 
Q 16.703125 13.921875 20.71875 10.15625 
Q 24.75 6.390625 31.78125 6.390625 
Q 38.8125 6.390625 42.859375 10.171875 
Q 46.921875 13.96875 46.921875 20.515625 
Q 46.921875 27.09375 42.890625 30.859375 
Q 38.875 34.625 31.78125 34.625 
M 21.921875 38.8125 
Q 15.578125 40.375 12.03125 44.71875 
Q 8.5 49.078125 8.5 55.328125 
Q 8.5 64.0625 14.71875 69.140625 
Q 20.953125 74.21875 31.78125 74.21875 
Q 42.671875 74.21875 48.875 69.140625 
Q 55.078125 64.0625 55.078125 55.328125 
Q 55.078125 49.078125 51.53125 44.71875 
Q 48 40.375 41.703125 38.8125 
Q 48.828125 37.15625 52.796875 32.3125 
Q 56.78125 27.484375 56.78125 20.515625 
Q 56.78125 9.90625 50.3125 4.234375 
Q 43.84375 -1.421875 31.78125 -1.421875 
Q 19.734375 -1.421875 13.25 4.234375 
Q 6.78125 9.90625 6.78125 20.515625 
Q 6.78125 27.484375 10.78125 32.3125 
Q 14.796875 37.15625 21.921875 38.8125 
M 18.3125 54.390625 
Q 18.3125 48.734375 21.84375 45.5625 
Q 25.390625 42.390625 31.78125 42.390625 
Q 38.140625 42.390625 41.71875 45.5625 
Q 45.3125 48.734375 45.3125 54.390625 
Q 45.3125 60.0625 41.71875 63.234375 
Q 38.140625 66.40625 31.78125 66.40625 
Q 25.390625 66.40625 21.84375 63.234375 
Q 18.3125 60.0625 18.3125 54.390625 
" id="DejaVuSans-38"/>
      </defs>
      <g transform="translate(393.580357 320.44225)scale(0.2 -0.2)">
       <use xlink:href="#DejaVuSans-38"/>
      </g>
     </g>
    </g>
    <g id="xtick_6">
     <g id="line2d_14">
      <defs>
       <path d="M 0 0 
L 0 2 
" id="mf82d877e9a" style="stroke:#000000;stroke-width:0.6;"/>
      </defs>
      <g>
       <use style="stroke:#000000;stroke-width:0.6;" x="83.185234" xlink:href="#mf82d877e9a" y="298.245375"/>
      </g>
     </g>
    </g>
    <g id="xtick_7">
     <g id="line2d_15">
      <g>
       <use style="stroke:#000000;stroke-width:0.6;" x="95.570468" xlink:href="#mf82d877e9a" y="298.245375"/>
      </g>
     </g>
    </g>
    <g id="xtick_8">
     <g id="line2d_16">
      <g>
       <use style="stroke:#000000;stroke-width:0.6;" x="102.815366" xlink:href="#mf82d877e9a" y="298.245375"/>
      </g>
     </g>
    </g>
    <g id="xtick_9">
     <g id="line2d_17">
      <g>
       <use style="stroke:#000000;stroke-width:0.6;" x="107.955702" xlink:href="#mf82d877e9a" y="298.245375"/>
      </g>
     </g>
    </g>
    <g id="xtick_10">
     <g id="line2d_18">
      <g>
       <use style="stroke:#000000;stroke-width:0.6;" x="165.470948" xlink:href="#mf82d877e9a" y="298.245375"/>
      </g>
     </g>
    </g>
    <g id="xtick_11">
     <g id="line2d_19">
      <g>
       <use style="stroke:#000000;stroke-width:0.6;" x="177.856183" xlink:href="#mf82d877e9a" y="298.245375"/>
      </g>
     </g>
    </g>
    <g id="xtick_12">
     <g id="line2d_20">
      <g>
       <use style="stroke:#000000;stroke-width:0.6;" x="185.10108" xlink:href="#mf82d877e9a" y="298.245375"/>
      </g>
     </g>
    </g>
    <g id="xtick_13">
     <g id="line2d_21">
      <g>
       <use style="stroke:#000000;stroke-width:0.6;" x="190.241417" xlink:href="#mf82d877e9a" y="298.245375"/>
      </g>
     </g>
    </g>
    <g id="xtick_14">
     <g id="line2d_22">
      <g>
       <use style="stroke:#000000;stroke-width:0.6;" x="247.756663" xlink:href="#mf82d877e9a" y="298.245375"/>
      </g>
     </g>
    </g>
    <g id="xtick_15">
     <g id="line2d_23">
      <g>
       <use style="stroke:#000000;stroke-width:0.6;" x="260.141897" xlink:href="#mf82d877e9a" y="298.245375"/>
      </g>
     </g>
    </g>
    <g id="xtick_16">
     <g id="line2d_24">
      <g>
       <use style="stroke:#000000;stroke-width:0.6;" x="267.386794" xlink:href="#mf82d877e9a" y="298.245375"/>
      </g>
     </g>
    </g>
    <g id="xtick_17">
     <g id="line2d_25">
      <g>
       <use style="stroke:#000000;stroke-width:0.6;" x="272.527131" xlink:href="#mf82d877e9a" y="298.245375"/>
      </g>
     </g>
    </g>
    <g id="xtick_18">
     <g id="line2d_26">
      <g>
       <use style="stroke:#000000;stroke-width:0.6;" x="330.042377" xlink:href="#mf82d877e9a" y="298.245375"/>
      </g>
     </g>
    </g>
    <g id="xtick_19">
     <g id="line2d_27">
      <g>
       <use style="stroke:#000000;stroke-width:0.6;" x="342.427611" xlink:href="#mf82d877e9a" y="298.245375"/>
      </g>
     </g>
    </g>
    <g id="xtick_20">
     <g id="line2d_28">
      <g>
       <use style="stroke:#000000;stroke-width:0.6;" x="349.672509" xlink:href="#mf82d877e9a" y="298.245375"/>
      </g>
     </g>
    </g>
    <g id="xtick_21">
     <g id="line2d_29">
      <g>
       <use style="stroke:#000000;stroke-width:0.6;" x="354.812845" xlink:href="#mf82d877e9a" y="298.245375"/>
      </g>
     </g>
    </g>
    <g id="xtick_22">
     <g id="line2d_30">
      <g>
       <use style="stroke:#000000;stroke-width:0.6;" x="412.328091" xlink:href="#mf82d877e9a" y="298.245375"/>
      </g>
     </g>
    </g>
    <g id="xtick_23">
     <g id="line2d_31">
      <g>
       <use style="stroke:#000000;stroke-width:0.6;" x="424.713325" xlink:href="#mf82d877e9a" y="298.245375"/>
      </g>
     </g>
    </g>
    <g id="text_6">
     <!-- log10 of (# f-evals / dimension) -->
     <defs>
      <path d="M 9.421875 75.984375 
L 18.40625 75.984375 
L 18.40625 0 
L 9.421875 0 
z
" id="DejaVuSans-6c"/>
      <path d="M 30.609375 48.390625 
Q 23.390625 48.390625 19.1875 42.75 
Q 14.984375 37.109375 14.984375 27.296875 
Q 14.984375 17.484375 19.15625 11.84375 
Q 23.34375 6.203125 30.609375 6.203125 
Q 37.796875 6.203125 41.984375 11.859375 
Q 46.1875 17.53125 46.1875 27.296875 
Q 46.1875 37.015625 41.984375 42.703125 
Q 37.796875 48.390625 30.609375 48.390625 
M 30.609375 56 
Q 42.328125 56 49.015625 48.375 
Q 55.71875 40.765625 55.71875 27.296875 
Q 55.71875 13.875 49.015625 6.21875 
Q 42.328125 -1.421875 30.609375 -1.421875 
Q 18.84375 -1.421875 12.171875 6.21875 
Q 5.515625 13.875 5.515625 27.296875 
Q 5.515625 40.765625 12.171875 48.375 
Q 18.84375 56 30.609375 56 
" id="DejaVuSans-6f"/>
      <path d="M 45.40625 27.984375 
Q 45.40625 37.75 41.375 43.109375 
Q 37.359375 48.484375 30.078125 48.484375 
Q 22.859375 48.484375 18.828125 43.109375 
Q 14.796875 37.75 14.796875 27.984375 
Q 14.796875 18.265625 18.828125 12.890625 
Q 22.859375 7.515625 30.078125 7.515625 
Q 37.359375 7.515625 41.375 12.890625 
Q 45.40625 18.265625 45.40625 27.984375 
M 54.390625 6.78125 
Q 54.390625 -7.171875 48.1875 -13.984375 
Q 42 -20.796875 29.203125 -20.796875 
Q 24.46875 -20.796875 20.265625 -20.09375 
Q 16.0625 -19.390625 12.109375 -17.921875 
L 12.109375 -9.1875 
Q 16.0625 -11.328125 19.921875 -12.34375 
Q 23.78125 -13.375 27.78125 -13.375 
Q 36.625 -13.375 41.015625 -8.765625 
Q 45.40625 -4.15625 45.40625 5.171875 
L 45.40625 9.625 
Q 42.625 4.78125 38.28125 2.390625 
Q 33.9375 0 27.875 0 
Q 17.828125 0 11.671875 7.65625 
Q 5.515625 15.328125 5.515625 27.984375 
Q 5.515625 40.671875 11.671875 48.328125 
Q 17.828125 56 27.875 56 
Q 33.9375 56 38.28125 53.609375 
Q 42.625 51.21875 45.40625 46.390625 
L 45.40625 54.6875 
L 54.390625 54.6875 
z
" id="DejaVuSans-67"/>
      <path d="M 12.40625 8.296875 
L 28.515625 8.296875 
L 28.515625 63.921875 
L 10.984375 60.40625 
L 10.984375 69.390625 
L 28.421875 72.90625 
L 38.28125 72.90625 
L 38.28125 8.296875 
L 54.390625 8.296875 
L 54.390625 0 
L 12.40625 0 
z
" id="DejaVuSans-31"/>
      <path id="DejaVuSans-20"/>
      <path d="M 37.109375 75.984375 
L 37.109375 68.5 
L 28.515625 68.5 
Q 23.6875 68.5 21.796875 66.546875 
Q 19.921875 64.59375 19.921875 59.515625 
L 19.921875 54.6875 
L 34.71875 54.6875 
L 34.71875 47.703125 
L 19.921875 47.703125 
L 19.921875 0 
L 10.890625 0 
L 10.890625 47.703125 
L 2.296875 47.703125 
L 2.296875 54.6875 
L 10.890625 54.6875 
L 10.890625 58.5 
Q 10.890625 67.625 15.140625 71.796875 
Q 19.390625 75.984375 28.609375 75.984375 
z
" id="DejaVuSans-66"/>
      <path d="M 31 75.875 
Q 24.46875 64.65625 21.28125 53.65625 
Q 18.109375 42.671875 18.109375 31.390625 
Q 18.109375 20.125 21.3125 9.0625 
Q 24.515625 -2 31 -13.1875 
L 23.1875 -13.1875 
Q 15.875 -1.703125 12.234375 9.375 
Q 8.59375 20.453125 8.59375 31.390625 
Q 8.59375 42.28125 12.203125 53.3125 
Q 15.828125 64.359375 23.1875 75.875 
z
" id="DejaVuSans-28"/>
      <path d="M 51.125 44 
L 36.921875 44 
L 32.8125 27.6875 
L 47.125 27.6875 
z
M 43.796875 71.78125 
L 38.71875 51.515625 
L 52.984375 51.515625 
L 58.109375 71.78125 
L 65.921875 71.78125 
L 60.890625 51.515625 
L 76.125 51.515625 
L 76.125 44 
L 58.984375 44 
L 54.984375 27.6875 
L 70.515625 27.6875 
L 70.515625 20.21875 
L 53.078125 20.21875 
L 48 0 
L 40.1875 0 
L 45.21875 20.21875 
L 30.90625 20.21875 
L 25.875 0 
L 18.015625 0 
L 23.09375 20.21875 
L 7.71875 20.21875 
L 7.71875 27.6875 
L 24.90625 27.6875 
L 29 44 
L 13.28125 44 
L 13.28125 51.515625 
L 30.90625 51.515625 
L 35.890625 71.78125 
z
" id="DejaVuSans-23"/>
      <path d="M 4.890625 31.390625 
L 31.203125 31.390625 
L 31.203125 23.390625 
L 4.890625 23.390625 
z
" id="DejaVuSans-2d"/>
      <path d="M 56.203125 29.59375 
L 56.203125 25.203125 
L 14.890625 25.203125 
Q 15.484375 15.921875 20.484375 11.0625 
Q 25.484375 6.203125 34.421875 6.203125 
Q 39.59375 6.203125 44.453125 7.46875 
Q 49.3125 8.734375 54.109375 11.28125 
L 54.109375 2.78125 
Q 49.265625 0.734375 44.1875 -0.34375 
Q 39.109375 -1.421875 33.890625 -1.421875 
Q 20.796875 -1.421875 13.15625 6.1875 
Q 5.515625 13.8125 5.515625 26.8125 
Q 5.515625 40.234375 12.765625 48.109375 
Q 20.015625 56 32.328125 56 
Q 43.359375 56 49.78125 48.890625 
Q 56.203125 41.796875 56.203125 29.59375 
M 47.21875 32.234375 
Q 47.125 39.59375 43.09375 43.984375 
Q 39.0625 48.390625 32.421875 48.390625 
Q 24.90625 48.390625 20.390625 44.140625 
Q 15.875 39.890625 15.1875 32.171875 
z
" id="DejaVuSans-65"/>
      <path d="M 2.984375 54.6875 
L 12.5 54.6875 
L 29.59375 8.796875 
L 46.6875 54.6875 
L 56.203125 54.6875 
L 35.6875 0 
L 23.484375 0 
z
" id="DejaVuSans-76"/>
      <path d="M 34.28125 27.484375 
Q 23.390625 27.484375 19.1875 25 
Q 14.984375 22.515625 14.984375 16.5 
Q 14.984375 11.71875 18.140625 8.90625 
Q 21.296875 6.109375 26.703125 6.109375 
Q 34.1875 6.109375 38.703125 11.40625 
Q 43.21875 16.703125 43.21875 25.484375 
L 43.21875 27.484375 
z
M 52.203125 31.203125 
L 52.203125 0 
L 43.21875 0 
L 43.21875 8.296875 
Q 40.140625 3.328125 35.546875 0.953125 
Q 30.953125 -1.421875 24.3125 -1.421875 
Q 15.921875 -1.421875 10.953125 3.296875 
Q 6 8.015625 6 15.921875 
Q 6 25.140625 12.171875 29.828125 
Q 18.359375 34.515625 30.609375 34.515625 
L 43.21875 34.515625 
L 43.21875 35.40625 
Q 43.21875 41.609375 39.140625 45 
Q 35.0625 48.390625 27.6875 48.390625 
Q 23 48.390625 18.546875 47.265625 
Q 14.109375 46.140625 10.015625 43.890625 
L 10.015625 52.203125 
Q 14.9375 54.109375 19.578125 55.046875 
Q 24.21875 56 28.609375 56 
Q 40.484375 56 46.34375 49.84375 
Q 52.203125 43.703125 52.203125 31.203125 
" id="DejaVuSans-61"/>
      <path d="M 44.28125 53.078125 
L 44.28125 44.578125 
Q 40.484375 46.53125 36.375 47.5 
Q 32.28125 48.484375 27.875 48.484375 
Q 21.1875 48.484375 17.84375 46.4375 
Q 14.5 44.390625 14.5 40.28125 
Q 14.5 37.15625 16.890625 35.375 
Q 19.28125 33.59375 26.515625 31.984375 
L 29.59375 31.296875 
Q 39.15625 29.25 43.1875 25.515625 
Q 47.21875 21.78125 47.21875 15.09375 
Q 47.21875 7.46875 41.1875 3.015625 
Q 35.15625 -1.421875 24.609375 -1.421875 
Q 20.21875 -1.421875 15.453125 -0.5625 
Q 10.6875 0.296875 5.421875 2 
L 5.421875 11.28125 
Q 10.40625 8.6875 15.234375 7.390625 
Q 20.0625 6.109375 24.8125 6.109375 
Q 31.15625 6.109375 34.5625 8.28125 
Q 37.984375 10.453125 37.984375 14.40625 
Q 37.984375 18.0625 35.515625 20.015625 
Q 33.0625 21.96875 24.703125 23.78125 
L 21.578125 24.515625 
Q 13.234375 26.265625 9.515625 29.90625 
Q 5.8125 33.546875 5.8125 39.890625 
Q 5.8125 47.609375 11.28125 51.796875 
Q 16.75 56 26.8125 56 
Q 31.78125 56 36.171875 55.265625 
Q 40.578125 54.546875 44.28125 53.078125 
" id="DejaVuSans-73"/>
      <path d="M 25.390625 72.90625 
L 33.6875 72.90625 
L 8.296875 -9.28125 
L 0 -9.28125 
z
" id="DejaVuSans-2f"/>
      <path d="M 45.40625 46.390625 
L 45.40625 75.984375 
L 54.390625 75.984375 
L 54.390625 0 
L 45.40625 0 
L 45.40625 8.203125 
Q 42.578125 3.328125 38.25 0.953125 
Q 33.9375 -1.421875 27.875 -1.421875 
Q 17.96875 -1.421875 11.734375 6.484375 
Q 5.515625 14.40625 5.515625 27.296875 
Q 5.515625 40.1875 11.734375 48.09375 
Q 17.96875 56 27.875 56 
Q 33.9375 56 38.25 53.625 
Q 42.578125 51.265625 45.40625 46.390625 
M 14.796875 27.296875 
Q 14.796875 17.390625 18.875 11.75 
Q 22.953125 6.109375 30.078125 6.109375 
Q 37.203125 6.109375 41.296875 11.75 
Q 45.40625 17.390625 45.40625 27.296875 
Q 45.40625 37.203125 41.296875 42.84375 
Q 37.203125 48.484375 30.078125 48.484375 
Q 22.953125 48.484375 18.875 42.84375 
Q 14.796875 37.203125 14.796875 27.296875 
" id="DejaVuSans-64"/>
      <path d="M 9.421875 54.6875 
L 18.40625 54.6875 
L 18.40625 0 
L 9.421875 0 
z
M 9.421875 75.984375 
L 18.40625 75.984375 
L 18.40625 64.59375 
L 9.421875 64.59375 
z
" id="DejaVuSans-69"/>
      <path d="M 52 44.1875 
Q 55.375 50.25 60.0625 53.125 
Q 64.75 56 71.09375 56 
Q 79.640625 56 84.28125 50.015625 
Q 88.921875 44.046875 88.921875 33.015625 
L 88.921875 0 
L 79.890625 0 
L 79.890625 32.71875 
Q 79.890625 40.578125 77.09375 44.375 
Q 74.3125 48.1875 68.609375 48.1875 
Q 61.625 48.1875 57.5625 43.546875 
Q 53.515625 38.921875 53.515625 30.90625 
L 53.515625 0 
L 44.484375 0 
L 44.484375 32.71875 
Q 44.484375 40.625 41.703125 44.40625 
Q 38.921875 48.1875 33.109375 48.1875 
Q 26.21875 48.1875 22.15625 43.53125 
Q 18.109375 38.875 18.109375 30.90625 
L 18.109375 0 
L 9.078125 0 
L 9.078125 54.6875 
L 18.109375 54.6875 
L 18.109375 46.1875 
Q 21.1875 51.21875 25.484375 53.609375 
Q 29.78125 56 35.6875 56 
Q 41.65625 56 45.828125 52.96875 
Q 50 49.953125 52 44.1875 
" id="DejaVuSans-6d"/>
      <path d="M 54.890625 33.015625 
L 54.890625 0 
L 45.90625 0 
L 45.90625 32.71875 
Q 45.90625 40.484375 42.875 44.328125 
Q 39.84375 48.1875 33.796875 48.1875 
Q 26.515625 48.1875 22.3125 43.546875 
Q 18.109375 38.921875 18.109375 30.90625 
L 18.109375 0 
L 9.078125 0 
L 9.078125 54.6875 
L 18.109375 54.6875 
L 18.109375 46.1875 
Q 21.34375 51.125 25.703125 53.5625 
Q 30.078125 56 35.796875 56 
Q 45.21875 56 50.046875 50.171875 
Q 54.890625 44.34375 54.890625 33.015625 
" id="DejaVuSans-6e"/>
      <path d="M 8.015625 75.875 
L 15.828125 75.875 
Q 23.140625 64.359375 26.78125 53.3125 
Q 30.421875 42.28125 30.421875 31.390625 
Q 30.421875 20.453125 26.78125 9.375 
Q 23.140625 -1.703125 15.828125 -13.1875 
L 8.015625 -13.1875 
Q 14.5 -2 17.703125 9.0625 
Q 20.90625 20.125 20.90625 31.390625 
Q 20.90625 42.671875 17.703125 53.65625 
Q 14.5 64.65625 8.015625 75.875 
" id="DejaVuSans-29"/>
     </defs>
     <g transform="translate(107.015156 342.278812)scale(0.18 -0.18)">
      <use xlink:href="#DejaVuSans-6c"/>
      <use x="27.783203" xlink:href="#DejaVuSans-6f"/>
      <use x="88.964844" xlink:href="#DejaVuSans-67"/>
      <use x="152.441406" xlink:href="#DejaVuSans-31"/>
      <use x="216.064453" xlink:href="#DejaVuSans-30"/>
      <use x="279.6875" xlink:href="#DejaVuSans-20"/>
      <use x="311.474609" xlink:href="#DejaVuSans-6f"/>
      <use x="372.65625" xlink:href="#DejaVuSans-66"/>
      <use x="407.861328" xlink:href="#DejaVuSans-20"/>
      <use x="439.648438" xlink:href="#DejaVuSans-28"/>
      <use x="478.662109" xlink:href="#DejaVuSans-23"/>
      <use x="562.451172" xlink:href="#DejaVuSans-20"/>
      <use x="594.238281" xlink:href="#DejaVuSans-66"/>
      <use x="629.365234" xlink:href="#DejaVuSans-2d"/>
      <use x="665.449219" xlink:href="#DejaVuSans-65"/>
      <use x="726.972656" xlink:href="#DejaVuSans-76"/>
      <use x="786.152344" xlink:href="#DejaVuSans-61"/>
      <use x="847.431641" xlink:href="#DejaVuSans-6c"/>
      <use x="875.214844" xlink:href="#DejaVuSans-73"/>
      <use x="927.314453" xlink:href="#DejaVuSans-20"/>
      <use x="959.101562" xlink:href="#DejaVuSans-2f"/>
      <use x="992.792969" xlink:href="#DejaVuSans-20"/>
      <use x="1024.580078" xlink:href="#DejaVuSans-64"/>
      <use x="1088.056641" xlink:href="#DejaVuSans-69"/>
      <use x="1115.839844" xlink:href="#DejaVuSans-6d"/>
      <use x="1213.251953" xlink:href="#DejaVuSans-65"/>
      <use x="1274.775391" xlink:href="#DejaVuSans-6e"/>
      <use x="1338.154297" xlink:href="#DejaVuSans-73"/>
      <use x="1390.253906" xlink:href="#DejaVuSans-69"/>
      <use x="1418.037109" xlink:href="#DejaVuSans-6f"/>
      <use x="1479.21875" xlink:href="#DejaVuSans-6e"/>
      <use x="1542.597656" xlink:href="#DejaVuSans-29"/>
     </g>
    </g>
   </g>
   <g id="matplotlib.axis_2">
    <g id="ytick_1">
     <g id="line2d_32">
      <path clip-path="url(#pd729e2c93b)" d="M 70.8 298.245375 
L 427.92 298.245375 
" style="fill:none;stroke:#b0b0b0;stroke-linecap:square;stroke-width:0.8;"/>
     </g>
     <g id="line2d_33">
      <defs>
       <path d="M 0 0 
L -3.5 0 
" id="m55deab8cf9" style="stroke:#000000;stroke-width:0.8;"/>
      </defs>
      <g>
       <use style="stroke:#000000;stroke-width:0.8;" x="70.8" xlink:href="#m55deab8cf9" y="298.245375"/>
      </g>
     </g>
     <g id="text_7">
      <!-- 0.0 -->
      <defs>
       <path d="M 10.6875 12.40625 
L 21 12.40625 
L 21 0 
L 10.6875 0 
z
" id="DejaVuSans-2e"/>
      </defs>
      <g transform="translate(31.99375 305.843812)scale(0.2 -0.2)">
       <use xlink:href="#DejaVuSans-30"/>
       <use x="63.623047" xlink:href="#DejaVuSans-2e"/>
       <use x="95.410156" xlink:href="#DejaVuSans-30"/>
      </g>
     </g>
    </g>
    <g id="ytick_2">
     <g id="line2d_34">
      <path clip-path="url(#pd729e2c93b)" d="M 70.8 245.549929 
L 427.92 245.549929 
" style="fill:none;stroke:#b0b0b0;stroke-linecap:square;stroke-width:0.8;"/>
     </g>
     <g id="line2d_35">
      <g>
       <use style="stroke:#000000;stroke-width:0.8;" x="70.8" xlink:href="#m55deab8cf9" y="245.549929"/>
      </g>
     </g>
     <g id="text_8">
      <!-- 0.2 -->
      <g transform="translate(31.99375 253.148367)scale(0.2 -0.2)">
       <use xlink:href="#DejaVuSans-30"/>
       <use x="63.623047" xlink:href="#DejaVuSans-2e"/>
       <use x="95.410156" xlink:href="#DejaVuSans-32"/>
      </g>
     </g>
    </g>
    <g id="ytick_3">
     <g id="line2d_36">
      <path clip-path="url(#pd729e2c93b)" d="M 70.8 192.854484 
L 427.92 192.854484 
" style="fill:none;stroke:#b0b0b0;stroke-linecap:square;stroke-width:0.8;"/>
     </g>
     <g id="line2d_37">
      <g>
       <use style="stroke:#000000;stroke-width:0.8;" x="70.8" xlink:href="#m55deab8cf9" y="192.854484"/>
      </g>
     </g>
     <g id="text_9">
      <!-- 0.4 -->
      <g transform="translate(31.99375 200.452921)scale(0.2 -0.2)">
       <use xlink:href="#DejaVuSans-30"/>
       <use x="63.623047" xlink:href="#DejaVuSans-2e"/>
       <use x="95.410156" xlink:href="#DejaVuSans-34"/>
      </g>
     </g>
    </g>
    <g id="ytick_4">
     <g id="line2d_38">
      <path clip-path="url(#pd729e2c93b)" d="M 70.8 140.159038 
L 427.92 140.159038 
" style="fill:none;stroke:#b0b0b0;stroke-linecap:square;stroke-width:0.8;"/>
     </g>
     <g id="line2d_39">
      <g>
       <use style="stroke:#000000;stroke-width:0.8;" x="70.8" xlink:href="#m55deab8cf9" y="140.159038"/>
      </g>
     </g>
     <g id="text_10">
      <!-- 0.6 -->
      <g transform="translate(31.99375 147.757476)scale(0.2 -0.2)">
       <use xlink:href="#DejaVuSans-30"/>
       <use x="63.623047" xlink:href="#DejaVuSans-2e"/>
       <use x="95.410156" xlink:href="#DejaVuSans-36"/>
      </g>
     </g>
    </g>
    <g id="ytick_5">
     <g id="line2d_40">
      <path clip-path="url(#pd729e2c93b)" d="M 70.8 87.463593 
L 427.92 87.463593 
" style="fill:none;stroke:#b0b0b0;stroke-linecap:square;stroke-width:0.8;"/>
     </g>
     <g id="line2d_41">
      <g>
       <use style="stroke:#000000;stroke-width:0.8;" x="70.8" xlink:href="#m55deab8cf9" y="87.463593"/>
      </g>
     </g>
     <g id="text_11">
      <!-- 0.8 -->
      <g transform="translate(31.99375 95.06203)scale(0.2 -0.2)">
       <use xlink:href="#DejaVuSans-30"/>
       <use x="63.623047" xlink:href="#DejaVuSans-2e"/>
       <use x="95.410156" xlink:href="#DejaVuSans-38"/>
      </g>
     </g>
    </g>
    <g id="ytick_6">
     <g id="line2d_42">
      <path clip-path="url(#pd729e2c93b)" d="M 70.8 34.768147 
L 427.92 34.768147 
" style="fill:none;stroke:#b0b0b0;stroke-linecap:square;stroke-width:0.8;"/>
     </g>
     <g id="line2d_43">
      <g>
       <use style="stroke:#000000;stroke-width:0.8;" x="70.8" xlink:href="#m55deab8cf9" y="34.768147"/>
      </g>
     </g>
     <g id="text_12">
      <!-- 1.0 -->
      <g transform="translate(31.99375 42.366585)scale(0.2 -0.2)">
       <use xlink:href="#DejaVuSans-31"/>
       <use x="63.623047" xlink:href="#DejaVuSans-2e"/>
       <use x="95.410156" xlink:href="#DejaVuSans-30"/>
      </g>
     </g>
    </g>
    <g id="text_13">
     <!-- Proportion of function+target pairs -->
     <defs>
      <path d="M 19.671875 64.796875 
L 19.671875 37.40625 
L 32.078125 37.40625 
Q 38.96875 37.40625 42.71875 40.96875 
Q 46.484375 44.53125 46.484375 51.125 
Q 46.484375 57.671875 42.71875 61.234375 
Q 38.96875 64.796875 32.078125 64.796875 
z
M 9.8125 72.90625 
L 32.078125 72.90625 
Q 44.34375 72.90625 50.609375 67.359375 
Q 56.890625 61.8125 56.890625 51.125 
Q 56.890625 40.328125 50.609375 34.8125 
Q 44.34375 29.296875 32.078125 29.296875 
L 19.671875 29.296875 
L 19.671875 0 
L 9.8125 0 
z
" id="DejaVuSans-50"/>
      <path d="M 41.109375 46.296875 
Q 39.59375 47.171875 37.8125 47.578125 
Q 36.03125 48 33.890625 48 
Q 26.265625 48 22.1875 43.046875 
Q 18.109375 38.09375 18.109375 28.8125 
L 18.109375 0 
L 9.078125 0 
L 9.078125 54.6875 
L 18.109375 54.6875 
L 18.109375 46.1875 
Q 20.953125 51.171875 25.484375 53.578125 
Q 30.03125 56 36.53125 56 
Q 37.453125 56 38.578125 55.875 
Q 39.703125 55.765625 41.0625 55.515625 
z
" id="DejaVuSans-72"/>
      <path d="M 18.109375 8.203125 
L 18.109375 -20.796875 
L 9.078125 -20.796875 
L 9.078125 54.6875 
L 18.109375 54.6875 
L 18.109375 46.390625 
Q 20.953125 51.265625 25.265625 53.625 
Q 29.59375 56 35.59375 56 
Q 45.5625 56 51.78125 48.09375 
Q 58.015625 40.1875 58.015625 27.296875 
Q 58.015625 14.40625 51.78125 6.484375 
Q 45.5625 -1.421875 35.59375 -1.421875 
Q 29.59375 -1.421875 25.265625 0.953125 
Q 20.953125 3.328125 18.109375 8.203125 
M 48.6875 27.296875 
Q 48.6875 37.203125 44.609375 42.84375 
Q 40.53125 48.484375 33.40625 48.484375 
Q 26.265625 48.484375 22.1875 42.84375 
Q 18.109375 37.203125 18.109375 27.296875 
Q 18.109375 17.390625 22.1875 11.75 
Q 26.265625 6.109375 33.40625 6.109375 
Q 40.53125 6.109375 44.609375 11.75 
Q 48.6875 17.390625 48.6875 27.296875 
" id="DejaVuSans-70"/>
      <path d="M 18.3125 70.21875 
L 18.3125 54.6875 
L 36.8125 54.6875 
L 36.8125 47.703125 
L 18.3125 47.703125 
L 18.3125 18.015625 
Q 18.3125 11.328125 20.140625 9.421875 
Q 21.96875 7.515625 27.59375 7.515625 
L 36.8125 7.515625 
L 36.8125 0 
L 27.59375 0 
Q 17.1875 0 13.234375 3.875 
Q 9.28125 7.765625 9.28125 18.015625 
L 9.28125 47.703125 
L 2.6875 47.703125 
L 2.6875 54.6875 
L 9.28125 54.6875 
L 9.28125 70.21875 
z
" id="DejaVuSans-74"/>
      <path d="M 8.5 21.578125 
L 8.5 54.6875 
L 17.484375 54.6875 
L 17.484375 21.921875 
Q 17.484375 14.15625 20.5 10.265625 
Q 23.53125 6.390625 29.59375 6.390625 
Q 36.859375 6.390625 41.078125 11.03125 
Q 45.3125 15.671875 45.3125 23.6875 
L 45.3125 54.6875 
L 54.296875 54.6875 
L 54.296875 0 
L 45.3125 0 
L 45.3125 8.40625 
Q 42.046875 3.421875 37.71875 1 
Q 33.40625 -1.421875 27.6875 -1.421875 
Q 18.265625 -1.421875 13.375 4.4375 
Q 8.5 10.296875 8.5 21.578125 
M 31.109375 56 
z
" id="DejaVuSans-75"/>
      <path d="M 48.78125 52.59375 
L 48.78125 44.1875 
Q 44.96875 46.296875 41.140625 47.34375 
Q 37.3125 48.390625 33.40625 48.390625 
Q 24.65625 48.390625 19.8125 42.84375 
Q 14.984375 37.3125 14.984375 27.296875 
Q 14.984375 17.28125 19.8125 11.734375 
Q 24.65625 6.203125 33.40625 6.203125 
Q 37.3125 6.203125 41.140625 7.25 
Q 44.96875 8.296875 48.78125 10.40625 
L 48.78125 2.09375 
Q 45.015625 0.34375 40.984375 -0.53125 
Q 36.96875 -1.421875 32.421875 -1.421875 
Q 20.0625 -1.421875 12.78125 6.34375 
Q 5.515625 14.109375 5.515625 27.296875 
Q 5.515625 40.671875 12.859375 48.328125 
Q 20.21875 56 33.015625 56 
Q 37.15625 56 41.109375 55.140625 
Q 45.0625 54.296875 48.78125 52.59375 
" id="DejaVuSans-63"/>
      <path d="M 46 62.703125 
L 46 35.5 
L 73.1875 35.5 
L 73.1875 27.203125 
L 46 27.203125 
L 46 0 
L 37.796875 0 
L 37.796875 27.203125 
L 10.59375 27.203125 
L 10.59375 35.5 
L 37.796875 35.5 
L 37.796875 62.703125 
z
" id="DejaVuSans-2b"/>
     </defs>
     <g transform="translate(24.250312 323.17875)rotate(-90)scale(0.18 -0.18)">
      <use xlink:href="#DejaVuSans-50"/>
      <use x="60.287109" xlink:href="#DejaVuSans-72"/>
      <use x="101.369141" xlink:href="#DejaVuSans-6f"/>
      <use x="162.550781" xlink:href="#DejaVuSans-70"/>
      <use x="226.027344" xlink:href="#DejaVuSans-6f"/>
      <use x="287.208984" xlink:href="#DejaVuSans-72"/>
      <use x="328.322266" xlink:href="#DejaVuSans-74"/>
      <use x="367.53125" xlink:href="#DejaVuSans-69"/>
      <use x="395.314453" xlink:href="#DejaVuSans-6f"/>
      <use x="456.496094" xlink:href="#DejaVuSans-6e"/>
      <use x="519.875" xlink:href="#DejaVuSans-20"/>
      <use x="551.662109" xlink:href="#DejaVuSans-6f"/>
      <use x="612.84375" xlink:href="#DejaVuSans-66"/>
      <use x="648.048828" xlink:href="#DejaVuSans-20"/>
      <use x="679.835938" xlink:href="#DejaVuSans-66"/>
      <use x="715.041016" xlink:href="#DejaVuSans-75"/>
      <use x="778.419922" xlink:href="#DejaVuSans-6e"/>
      <use x="841.798828" xlink:href="#DejaVuSans-63"/>
      <use x="896.779297" xlink:href="#DejaVuSans-74"/>
      <use x="935.988281" xlink:href="#DejaVuSans-69"/>
      <use x="963.771484" xlink:href="#DejaVuSans-6f"/>
      <use x="1024.953125" xlink:href="#DejaVuSans-6e"/>
      <use x="1088.332031" xlink:href="#DejaVuSans-2b"/>
      <use x="1172.121094" xlink:href="#DejaVuSans-74"/>
      <use x="1211.330078" xlink:href="#DejaVuSans-61"/>
      <use x="1272.609375" xlink:href="#DejaVuSans-72"/>
      <use x="1313.707031" xlink:href="#DejaVuSans-67"/>
      <use x="1377.183594" xlink:href="#DejaVuSans-65"/>
      <use x="1438.707031" xlink:href="#DejaVuSans-74"/>
      <use x="1477.916016" xlink:href="#DejaVuSans-20"/>
      <use x="1509.703125" xlink:href="#DejaVuSans-70"/>
      <use x="1573.179688" xlink:href="#DejaVuSans-61"/>
      <use x="1634.458984" xlink:href="#DejaVuSans-69"/>
      <use x="1662.242188" xlink:href="#DejaVuSans-72"/>
      <use x="1703.355469" xlink:href="#DejaVuSans-73"/>
     </g>
    </g>
   </g>
   <g id="line2d_44">
    <defs>
     <path d="M 0 1.5 
C 0.397805 1.5 0.77937 1.341951 1.06066 1.06066 
C 1.341951 0.77937 1.5 0.397805 1.5 0 
C 1.5 -0.397805 1.341951 -0.77937 1.06066 -1.06066 
C 0.77937 -1.341951 0.397805 -1.5 0 -1.5 
C -0.397805 -1.5 -0.77937 -1.341951 -1.06066 -1.06066 
C -1.341951 -0.77937 -1.5 -0.397805 -1.5 0 
C -1.5 0.397805 -1.341951 0.77937 -1.06066 1.06066 
C -0.77937 1.341951 -0.397805 1.5 0 1.5 
z
" id="mb63480bb1d" style="stroke:#f5deb3;"/>
    </defs>
    <g>
     <use style="fill:#f5deb3;stroke:#f5deb3;" x="239.1595" xlink:href="#mb63480bb1d" y="34.768147"/>
     <use style="fill:#f5deb3;stroke:#f5deb3;" x="239.1595" xlink:href="#mb63480bb1d" y="34.768147"/>
    </g>
   </g>
   <g id="line2d_45">
    <g>
     <use style="fill:#f5deb3;stroke:#f5deb3;stroke-linejoin:miter;stroke-width:1.5;" x="104.245578" xlink:href="#m6f1acc88e3" y="261.04859"/>
     <use style="fill:#f5deb3;stroke:#f5deb3;stroke-linejoin:miter;stroke-width:1.5;" x="159.6012" xlink:href="#m6f1acc88e3" y="190.787996"/>
     <use style="fill:#f5deb3;stroke:#f5deb3;stroke-linejoin:miter;stroke-width:1.5;" x="193.536346" xlink:href="#m6f1acc88e3" y="75.064664"/>
     <use style="fill:#f5deb3;stroke:#f5deb3;stroke-linejoin:miter;stroke-width:1.5;" x="239.1595" xlink:href="#m6f1acc88e3" y="38.901123"/>
     <use style="fill:#f5deb3;stroke:#f5deb3;stroke-linejoin:miter;stroke-width:1.5;" x="239.1595" xlink:href="#m6f1acc88e3" y="34.768147"/>
     <use style="fill:#f5deb3;stroke:#f5deb3;stroke-linejoin:miter;stroke-width:1.5;" x="358.8" xlink:href="#m6f1acc88e3" y="34.768147"/>
    </g>
   </g>
   <g id="line2d_46">
    <defs>
     <path d="M 0 1.5 
C 0.397805 1.5 0.77937 1.341951 1.06066 1.06066 
C 1.341951 0.77937 1.5 0.397805 1.5 0 
C 1.5 -0.397805 1.341951 -0.77937 1.06066 -1.06066 
C 0.77937 -1.341951 0.397805 -1.5 0 -1.5 
C -0.397805 -1.5 -0.77937 -1.341951 -1.06066 -1.06066 
C -1.341951 -0.77937 -1.5 -0.397805 -1.5 0 
C -1.5 0.397805 -1.341951 0.77937 -1.06066 1.06066 
C -0.77937 1.341951 -0.397805 1.5 0 1.5 
z
" id="m7f85454709" style="stroke:#ff00ff;"/>
    </defs>
    <g>
     <use style="fill:#ff00ff;stroke:#ff00ff;" x="241.576505" xlink:href="#m7f85454709" y="101.929009"/>
     <use style="fill:#ff00ff;stroke:#ff00ff;" x="241.576505" xlink:href="#m7f85454709" y="101.929009"/>
    </g>
   </g>
   <g id="line2d_47">
    <path d="M 58.414766 298.245375 
L 58.414766 285.329825 
L 70.8 285.329825 
L 70.8 282.126768 
L 78.044898 282.126768 
L 78.044898 279.027036 
L 83.185234 279.027036 
L 83.185234 277.270521 
L 87.172389 277.270521 
L 87.172389 276.443926 
L 90.430132 276.443926 
L 90.430132 276.133953 
L 93.184514 276.133953 
L 93.184514 273.654167 
L 95.570468 273.654167 
L 95.570468 271.897652 
L 97.675029 271.897652 
L 97.675029 270.451111 
L 99.557623 270.451111 
L 99.557623 269.004569 
L 101.260636 269.004569 
L 101.260636 268.591271 
L 102.815366 268.591271 
L 102.815366 267.764676 
L 104.245578 267.764676 
L 104.245578 267.041405 
L 105.569748 267.041405 
L 105.569748 266.731432 
L 109.03895 266.628108 
L 109.03895 265.904837 
L 111.026343 265.801512 
L 111.026343 265.28489 
L 111.942857 265.28489 
L 111.942857 265.078242 
L 112.814645 265.078242 
L 112.814645 264.354971 
L 113.64587 264.354971 
L 113.64587 263.941673 
L 114.44014 263.941673 
L 114.44014 263.218402 
L 115.2006 263.218402 
L 115.2006 262.495132 
L 115.930012 262.495132 
L 115.930012 261.04859 
L 116.630812 261.04859 
L 116.630812 260.325319 
L 117.305161 260.325319 
L 117.305161 259.705373 
L 117.954982 259.705373 
L 117.954982 259.498724 
L 118.581998 259.498724 
L 118.581998 258.672129 
L 119.187755 258.672129 
L 119.187755 258.155507 
L 119.773647 258.155507 
L 119.773647 257.948858 
L 120.340936 257.948858 
L 120.340936 257.328911 
L 120.890768 257.328911 
L 120.890768 257.018938 
L 121.424184 257.018938 
L 121.424184 256.398992 
L 121.942137 256.398992 
L 121.942137 255.88237 
L 122.445497 255.88237 
L 122.445497 255.572397 
L 122.935065 255.572397 
L 122.935065 255.365748 
L 123.411577 255.365748 
L 123.411577 255.055775 
L 124.328091 254.95245 
L 124.328091 254.849126 
L 124.769302 254.849126 
L 124.769302 253.609233 
L 125.620325 253.505908 
L 125.620325 253.402584 
L 126.031105 253.402584 
L 126.031105 251.542745 
L 126.432652 251.542745 
L 126.432652 251.026123 
L 127.209649 251.026123 
L 127.209649 250.612825 
L 127.954262 250.612825 
L 127.954262 249.476257 
L 128.315246 249.476257 
L 128.315246 248.546337 
L 129.016046 248.443013 
L 129.016046 248.029715 
L 129.356402 248.029715 
L 129.356402 247.513093 
L 130.018259 247.409769 
L 130.018259 245.756578 
L 130.656474 245.653254 
L 130.656474 244.723334 
L 131.272677 244.62001 
L 131.272677 244.000063 
L 132.444777 243.896739 
L 132.444777 243.793415 
L 132.726171 243.793415 
L 132.726171 243.586766 
L 133.003201 243.586766 
L 133.003201 242.966819 
L 133.276002 242.966819 
L 133.276002 242.0369 
L 133.544701 242.0369 
L 133.544701 241.726927 
L 133.809418 241.726927 
L 133.809418 241.210305 
L 134.327371 241.210305 
L 134.327371 239.763763 
L 135.077192 239.660438 
L 135.077192 239.247141 
L 135.3203 239.247141 
L 135.3203 239.040492 
L 135.796811 239.040492 
L 135.796811 238.730519 
L 136.030384 238.730519 
L 136.030384 237.077328 
L 136.488566 237.077328 
L 136.488566 236.560706 
L 136.713325 236.560706 
L 136.713325 236.044084 
L 136.935292 236.044084 
L 136.935292 235.734111 
L 137.371122 235.630787 
L 137.371122 235.424138 
L 137.796573 235.320814 
L 137.796573 235.114165 
L 138.212129 235.01084 
L 138.212129 233.874272 
L 138.416339 233.874272 
L 138.416339 233.564299 
L 138.61824 233.564299 
L 138.61824 232.014433 
L 139.015326 231.911108 
L 139.015326 231.704459 
L 139.210608 231.704459 
L 139.210608 231.291162 
L 139.403779 231.291162 
L 139.403779 231.084513 
L 139.783966 230.981189 
L 139.783966 230.671215 
L 140.339496 230.567891 
L 140.339496 230.361242 
L 140.70048 230.361242 
L 140.70048 229.947945 
L 140.878274 229.947945 
L 140.878274 229.431323 
L 141.054316 229.431323 
L 141.054316 229.224674 
L 141.572268 229.224674 
L 141.572268 228.811376 
L 141.741636 228.811376 
L 141.741636 228.398079 
L 141.909413 228.398079 
L 141.909413 227.881457 
L 142.240313 227.778132 
L 142.240313 227.674808 
L 142.565197 227.571483 
L 142.565197 227.468159 
L 143.041708 227.468159 
L 143.041708 226.951537 
L 143.197763 226.951537 
L 143.197763 226.744888 
L 143.352466 226.744888 
L 143.352466 226.228266 
L 143.657911 226.228266 
L 143.657911 225.918293 
L 143.808698 225.918293 
L 143.808698 225.711644 
L 144.106507 225.711644 
L 144.106507 224.988373 
L 144.544115 224.885049 
L 144.544115 224.265102 
L 144.687635 224.265102 
L 144.687635 224.058454 
L 145.388435 223.955129 
L 145.388435 223.74848 
L 145.661236 223.645156 
L 145.661236 223.541832 
L 145.796091 223.541832 
L 145.796091 223.02521 
L 146.455505 222.921885 
L 146.455505 222.715236 
L 146.712605 222.611912 
L 146.712605 221.785317 
L 147.584393 221.785317 
L 147.584393 221.578668 
L 147.945378 221.475344 
L 147.945378 221.16537 
L 148.064103 221.16537 
L 148.064103 220.132126 
L 148.182045 220.132126 
L 148.182045 219.615504 
L 149.209888 219.615504 
L 149.320526 218.788909 
L 149.430484 218.788909 
L 149.53977 218.272287 
L 149.756356 218.272287 
L 149.863672 217.858989 
L 150.181807 217.755665 
L 150.181807 217.652341 
L 150.494377 217.549016 
L 150.494377 217.445692 
L 150.902809 217.445692 
L 151.003475 216.92907 
L 151.498468 216.825745 
L 151.595842 216.205799 
L 151.789013 216.205799 
L 151.789013 215.895826 
L 152.356302 215.792501 
L 152.449124 215.275879 
L 152.906134 215.172555 
L 152.906134 214.552609 
L 153.085714 214.552609 
L 153.174832 214.139311 
L 153.613874 214.139311 
L 153.700403 213.106067 
L 153.957503 213.002743 
L 153.957503 212.899418 
L 154.950431 212.796094 
L 154.950431 212.692769 
L 155.814552 212.589445 
L 155.814552 212.48612 
L 156.043145 212.382796 
L 156.043145 211.556201 
L 156.638804 211.452876 
L 156.638804 211.349552 
L 157.144199 211.349552 
L 157.144199 211.039579 
L 157.91059 210.936254 
L 157.91059 210.626281 
L 158.248372 210.522957 
L 158.315169 209.386388 
L 158.448018 209.386388 
L 158.448018 208.869766 
L 158.775882 208.766442 
L 158.775882 208.559793 
L 159.414097 208.456469 
L 159.476683 208.043171 
L 160.508405 207.939847 
L 160.567279 207.526549 
L 160.684447 207.526549 
L 160.684447 207.3199 
L 161.539544 207.216576 
L 161.539544 207.009927 
L 162.461624 206.906603 
L 162.461624 206.699954 
L 163.48881 206.699954 
L 163.48881 206.493305 
L 163.834815 206.493305 
L 163.834815 206.286656 
L 164.077923 206.286656 
L 164.077923 206.080007 
L 165.291368 205.976683 
L 165.291368 205.66671 
L 165.560066 205.66671 
L 165.560066 204.943439 
L 165.780936 204.943439 
L 165.868525 204.220168 
L 166.257447 204.116844 
L 166.257447 204.013519 
L 166.512104 203.910195 
L 166.554196 203.496897 
L 166.804688 203.496897 
L 166.887411 203.0836 
L 166.928629 203.0836 
L 167.010781 202.463653 
L 167.092558 202.463653 
L 167.092558 201.740383 
L 167.214525 201.740383 
L 167.295376 200.810463 
L 167.335665 200.810463 
L 167.415972 199.880543 
L 167.575509 199.777219 
L 167.654747 199.053948 
L 167.694235 199.053948 
L 167.772949 198.330677 
L 167.812177 198.330677 
L 167.890374 197.400758 
L 167.929345 197.400758 
L 167.968231 196.98746 
L 168.199786 196.884136 
L 168.238089 196.574162 
L 168.352506 196.574162 
L 168.390483 195.33427 
L 168.466196 195.33427 
L 168.503932 194.920972 
L 168.616665 194.817648 
L 168.691427 193.991052 
L 168.840019 193.991052 
L 168.950658 193.577755 
L 168.987386 193.577755 
L 169.097119 192.131213 
L 169.206182 192.131213 
L 169.314583 191.614591 
L 169.422331 191.511267 
L 169.493804 191.097969 
L 169.706522 191.097969 
L 169.776869 190.478023 
L 169.881873 190.374698 
L 169.986263 189.754752 
L 170.090047 189.651427 
L 170.193232 189.031481 
L 170.227495 189.031481 
L 170.295825 188.514859 
L 170.600114 188.411535 
L 170.700403 187.584939 
L 170.766951 187.584939 
L 170.866311 186.65502 
L 170.932245 186.65502 
L 170.932245 186.448371 
L 171.546774 186.345047 
L 171.57854 185.7251 
L 172.017428 185.621776 
L 172.048368 185.311802 
L 172.293982 185.208478 
L 172.293982 184.79518 
L 172.476002 184.691856 
L 172.566321 184.07191 
L 172.656186 184.07191 
L 172.745601 183.658612 
L 172.89364 183.555288 
L 172.981877 183.038666 
L 173.157056 182.935341 
L 173.157056 182.728692 
L 173.473824 182.625368 
L 173.473824 182.21207 
L 173.672519 182.21207 
L 173.757002 181.695448 
L 173.924778 181.592124 
L 173.924778 181.385475 
L 174.499894 181.282151 
L 174.526824 181.075502 
L 174.63414 181.075502 
L 174.687558 180.55888 
L 174.952275 180.455556 
L 174.952275 180.352231 
L 175.546642 180.352231 
L 175.622731 179.732285 
L 175.998388 179.62896 
L 176.023153 179.318987 
L 176.726809 179.215663 
L 176.726809 179.112338 
L 177.495198 179.009014 
L 177.495198 178.802365 
L 177.900797 178.802365 
L 178.011848 177.872445 
L 178.056076 177.872445 
L 178.056076 177.665797 
L 178.535494 177.562472 
L 178.621295 177.04585 
L 178.685377 176.942526 
L 178.791672 176.322579 
L 178.812855 176.322579 
L 178.918397 175.805957 
L 178.93943 175.805957 
L 179.002383 175.186011 
L 179.085977 175.186011 
L 179.106814 174.566065 
L 179.252 174.566065 
L 179.354987 173.326172 
L 179.375513 173.326172 
L 179.416495 172.706225 
L 179.53888 172.602901 
L 179.620006 171.776306 
L 179.68061 171.776306 
L 179.781163 170.639737 
L 179.841224 170.536413 
L 179.901084 170.329764 
L 179.980586 170.329764 
L 180.079469 169.606493 
L 180.158183 169.503169 
L 180.236552 168.573249 
L 180.314579 168.469925 
L 180.314579 168.3666 
L 180.430984 168.3666 
L 180.430984 168.159952 
L 180.565838 168.159952 
L 180.604182 167.64333 
L 180.73774 167.540005 
L 180.794676 167.023383 
L 180.945621 166.920059 
L 180.9644 166.610086 
L 181.151112 166.610086 
L 181.225253 166.196788 
L 181.299089 166.093464 
L 181.354266 165.886815 
L 181.427571 165.886815 
L 181.518781 165.266868 
L 181.699818 165.163544 
L 181.807565 164.543597 
L 181.950226 164.440273 
L 181.950226 164.026975 
L 182.440754 163.923651 
L 182.509743 163.613678 
L 182.612729 163.510353 
L 182.612729 163.303705 
L 182.934992 163.20038 
L 182.934992 163.097056 
L 183.05227 163.097056 
L 183.085637 162.683758 
L 183.218486 162.683758 
L 183.317479 162.167136 
L 183.562587 162.063812 
L 183.611208 161.54719 
L 184.15319 161.443865 
L 184.15319 161.340541 
L 184.356151 161.237217 
L 184.356151 161.030568 
L 184.861236 160.927243 
L 184.861236 160.823919 
L 185.130835 160.720595 
L 185.205008 160.203973 
L 185.396427 160.100648 
L 185.454916 159.893999 
L 185.643691 159.790675 
L 185.744519 159.170729 
L 185.859058 159.067404 
L 185.958682 158.03416 
L 186.071861 157.930836 
L 186.156277 156.897592 
L 186.212334 156.897592 
L 186.310013 155.967672 
L 186.379457 155.967672 
L 186.420995 155.554374 
L 186.545032 155.45105 
L 186.613571 155.037752 
L 186.749865 154.934428 
L 186.817625 154.52113 
L 187.046103 154.52113 
L 187.12605 154.107833 
L 187.218872 154.004508 
L 187.218872 153.591211 
L 187.363767 153.591211 
L 187.389986 153.177913 
L 187.650079 153.074589 
L 187.753066 152.454642 
L 187.765898 152.454642 
L 187.829918 151.834696 
L 187.931876 151.834696 
L 187.931876 151.628047 
L 188.333989 151.524723 
L 188.408388 150.801452 
L 188.519408 150.698127 
L 188.629744 150.28483 
L 188.690748 150.181505 
L 188.751544 149.458235 
L 188.848391 149.35491 
L 188.920683 148.734964 
L 189.13582 148.631639 
L 189.159565 148.115017 
L 189.336654 148.115017 
L 189.430388 147.805044 
L 189.891824 147.70172 
L 189.891824 147.598395 
L 190.084383 147.495071 
L 190.084383 147.391747 
L 190.263738 147.288422 
L 190.263738 146.978449 
L 190.726155 146.875125 
L 190.812893 146.358503 
L 190.866892 146.358503 
L 190.96368 145.738556 
L 191.081269 145.635232 
L 191.187501 145.11861 
L 191.208671 145.11861 
L 191.208671 144.808637 
L 191.335172 144.808637 
L 191.335172 144.601988 
L 191.471211 144.498663 
L 191.575156 144.085366 
L 191.729949 143.982041 
L 191.822185 143.465419 
L 191.852824 143.465419 
L 191.954579 142.948797 
L 191.984993 142.845473 
L 192.035568 142.5355 
L 192.166397 142.432175 
L 192.266387 141.60558 
L 192.296275 141.60558 
L 192.296275 141.398931 
L 192.494262 141.295607 
L 192.602226 140.985634 
L 192.699813 140.882309 
L 192.699813 140.778985 
L 192.93187 140.67566 
L 193.027678 139.849065 
L 193.113468 139.745741 
L 193.113468 139.642416 
L 193.340247 139.539092 
L 193.340247 139.332443 
L 193.767024 139.229119 
L 193.849345 138.919146 
L 194.039964 138.815821 
L 194.039964 138.712497 
L 194.246431 138.609172 
L 194.308798 138.402524 
L 194.669782 138.299199 
L 194.765403 137.885901 
L 194.997963 137.885901 
L 195.10036 137.369279 
L 195.219085 137.265955 
L 195.303409 136.852657 
L 195.378961 136.852657 
L 195.437504 136.336035 
L 195.78479 136.232711 
L 195.874641 135.50944 
L 195.98025 135.406116 
L 196.052999 135.096143 
L 196.237581 134.992818 
L 196.341072 134.682845 
L 196.41237 134.579521 
L 196.506994 133.649601 
L 196.608941 133.546277 
L 196.67139 133.236303 
L 197.102524 133.132979 
L 197.102524 132.92633 
L 197.284159 132.823006 
L 197.32928 132.513033 
L 197.538354 132.513033 
L 197.538354 132.306384 
L 197.854742 132.203059 
L 197.934787 131.789762 
L 198.021701 131.686437 
L 198.021701 131.583113 
L 198.215726 131.479789 
L 198.222872 131.27314 
L 198.372278 131.169815 
L 198.386442 130.963166 
L 198.667393 130.963166 
L 198.688287 130.653193 
L 198.813143 130.549869 
L 198.868355 130.033247 
L 198.957713 130.033247 
L 199.019316 129.619949 
L 199.371141 129.516625 
L 199.478016 128.793354 
L 199.610717 128.69003 
L 199.617327 128.276732 
L 200.227929 128.173408 
L 200.227929 128.070083 
L 200.700575 127.966759 
L 200.799808 127.656786 
L 200.953764 127.553461 
L 201.014978 127.140164 
L 201.069891 127.140164 
L 201.100325 126.520217 
L 201.287871 126.416893 
L 201.287871 126.313568 
L 201.461553 126.210244 
L 201.509169 126.003595 
L 201.604024 125.900271 
L 201.680724 125.486973 
L 201.873958 125.383649 
L 201.978484 124.867027 
L 202.145611 124.763702 
L 202.179995 124.557054 
L 202.942125 124.453729 
L 202.98596 124.143756 
L 203.20894 124.040431 
L 203.279064 123.523809 
L 203.391763 123.420485 
L 203.450514 123.213836 
L 203.519698 123.110512 
L 203.615051 122.903863 
L 203.804245 122.800539 
L 203.825143 122.59389 
L 204.058581 122.490565 
L 204.156235 121.973943 
L 204.334739 121.870619 
L 204.334739 121.767295 
L 204.486336 121.767295 
L 204.486336 121.560646 
L 204.721282 121.457321 
L 204.721282 121.353997 
L 205.050952 121.250673 
L 205.133642 121.044024 
L 205.427239 120.940699 
L 205.527207 120.320753 
L 205.763 120.217429 
L 205.763 120.114104 
L 206.023446 120.01078 
L 206.032677 119.804131 
L 206.175163 119.700807 
L 206.179741 119.287509 
L 206.519751 119.184185 
L 206.604869 118.770887 
L 206.866629 118.667563 
L 206.936959 118.460914 
L 207.002642 118.357589 
L 207.002642 118.254265 
L 207.159305 118.254265 
L 207.241437 117.737643 
L 207.370357 117.634319 
L 207.451527 117.324345 
L 207.701257 117.221021 
L 207.801852 116.601074 
L 207.922653 116.49775 
L 207.99309 116.084452 
L 208.194574 115.981128 
L 208.259875 115.56783 
L 208.45033 115.464506 
L 208.45033 115.361182 
L 208.848921 115.257857 
L 208.868619 115.051208 
L 209.005901 114.947884 
L 209.083877 114.741235 
L 209.246527 114.637911 
L 209.246527 114.534586 
L 209.44206 114.431262 
L 209.552299 114.224613 
L 209.639248 114.121289 
L 209.639248 114.017964 
L 209.819357 113.91464 
L 209.819357 113.811316 
L 210.622389 113.707991 
L 210.622389 113.604667 
L 210.821163 113.501342 
L 210.856426 113.294694 
L 211.571177 113.191369 
L 211.571177 113.088045 
L 211.76977 112.98472 
L 211.76977 112.881396 
L 212.180093 112.778072 
L 212.258433 112.571423 
L 212.529951 112.468098 
L 212.619548 112.26145 
L 212.806883 112.26145 
L 212.806883 112.054801 
L 213.157188 111.951476 
L 213.231368 111.744828 
L 213.415482 111.744828 
L 213.415482 111.538179 
L 213.621877 111.434854 
L 213.621877 111.33153 
L 213.816962 111.228206 
L 213.816962 111.124881 
L 214.265015 111.021557 
L 214.265015 110.918232 
L 214.616681 110.814908 
L 214.616681 110.711584 
L 214.789953 110.608259 
L 214.792779 110.40161 
L 215.0063 110.298286 
L 215.0063 110.091637 
L 215.170318 110.091637 
L 215.170318 109.884988 
L 215.354769 109.781664 
L 215.354769 109.678339 
L 215.70463 109.575015 
L 215.734148 109.368366 
L 216.244285 109.265042 
L 216.244285 109.161717 
L 217.257345 109.058393 
L 217.257345 108.955069 
L 217.855385 108.851744 
L 217.898194 108.541771 
L 217.988234 108.541771 
L 218.033084 108.128473 
L 218.596984 108.128473 
L 218.688125 107.8185 
L 219.42499 107.715176 
L 219.42499 107.611851 
L 219.738455 107.508527 
L 219.738455 107.301878 
L 220.107495 107.198554 
L 220.191265 106.991905 
L 220.54297 106.888581 
L 220.54297 106.785256 
L 221.22627 106.681932 
L 221.22627 106.578607 
L 221.469111 106.475283 
L 221.488552 106.268634 
L 222.032023 106.16531 
L 222.032023 105.958661 
L 222.511808 105.855337 
L 222.575914 105.648688 
L 222.961162 105.545363 
L 222.979046 105.338715 
L 223.231089 105.338715 
L 223.231089 105.132066 
L 224.205144 105.028741 
L 224.230161 104.822093 
L 224.857349 104.718768 
L 224.93282 104.512119 
L 225.10187 104.408795 
L 225.10187 104.305471 
L 225.841882 104.202146 
L 225.902694 103.995497 
L 226.240959 103.892173 
L 226.240959 103.788849 
L 227.104377 103.685524 
L 227.104377 103.5822 
L 228.444858 103.478875 
L 228.444858 103.375551 
L 230.059932 103.272226 
L 230.059932 103.168902 
L 233.083226 103.065578 
L 233.083226 102.962253 
L 233.867956 102.858929 
L 233.867956 102.755604 
L 234.596357 102.65228 
L 234.596357 102.548956 
L 237.393208 102.445631 
L 237.393208 102.342307 
L 239.498123 102.238982 
L 239.498123 102.135658 
L 241.576505 102.032334 
L 241.576505 101.929009 
L 358.8 101.929009 
L 358.8 101.929009 
" style="fill:none;stroke:#ff00ff;stroke-linecap:square;stroke-width:1.5;"/>
   </g>
   <g id="line2d_48">
    <defs>
     <path d="M -0 8.485281 
L 5.091169 0 
L 0 -8.485281 
L -5.091169 -0 
z
" id="md8c7291698" style="stroke:#ff00ff;stroke-linejoin:miter;stroke-width:1.5;"/>
    </defs>
    <g>
     <use style="fill:none;stroke:#ff00ff;stroke-linejoin:miter;stroke-width:1.5;" x="97.675029" xlink:href="#md8c7291698" y="271.897652"/>
     <use style="fill:none;stroke:#ff00ff;stroke-linejoin:miter;stroke-width:1.5;" x="154.950431" xlink:href="#md8c7291698" y="212.692769"/>
     <use style="fill:none;stroke:#ff00ff;stroke-linejoin:miter;stroke-width:1.5;" x="195.874641" xlink:href="#md8c7291698" y="135.50944"/>
     <use style="fill:none;stroke:#ff00ff;stroke-linejoin:miter;stroke-width:1.5;" x="241.576505" xlink:href="#md8c7291698" y="102.032334"/>
     <use style="fill:none;stroke:#ff00ff;stroke-linejoin:miter;stroke-width:1.5;" x="241.576505" xlink:href="#md8c7291698" y="101.929009"/>
     <use style="fill:none;stroke:#ff00ff;stroke-linejoin:miter;stroke-width:1.5;" x="358.8" xlink:href="#md8c7291698" y="101.929009"/>
    </g>
   </g>
   <g id="line2d_49"/>
   <g id="line2d_50">
    <path clip-path="url(#pd729e2c93b)" d="M 165.470948 205.66671 
" style="fill:none;stroke:#ff00ff;stroke-linecap:square;stroke-width:1.5;"/>
    <defs>
     <path d="M -12 12 
L 12 -12 
M -12 -12 
L 12 12 
" id="mcf14ea32ad" style="stroke:#ff00ff;stroke-width:3;"/>
    </defs>
    <g clip-path="url(#pd729e2c93b)">
     <use style="fill:#ff00ff;stroke:#ff00ff;stroke-width:3;" x="165.470948" xlink:href="#mcf14ea32ad" y="205.66671"/>
    </g>
   </g>
   <g id="line2d_51">
    <path d="M 358.8 101.929009 
L 390.48 292.97583 
" style="fill:none;stroke:#ff00ff;stroke-linecap:square;stroke-width:1.5;"/>
    <g>
     <use style="fill:none;stroke:#ff00ff;stroke-linejoin:miter;stroke-width:1.5;" x="358.8" xlink:href="#md8c7291698" y="101.929009"/>
     <use style="fill:none;stroke:#ff00ff;stroke-linejoin:miter;stroke-width:1.5;" x="390.48" xlink:href="#md8c7291698" y="292.97583"/>
    </g>
   </g>
   <g id="line2d_52">
    <path d="M 358.8 298.245375 
L 358.8 34.768147 
" style="fill:none;stroke:#000000;stroke-linecap:square;stroke-width:1.5;"/>
   </g>
   <g id="patch_3">
    <path d="M 70.8 298.245375 
L 70.8 32.133375 
" style="fill:none;stroke:#000000;stroke-linecap:square;stroke-linejoin:miter;stroke-width:0.8;"/>
   </g>
   <g id="patch_4">
    <path d="M 427.92 298.245375 
L 427.92 32.133375 
" style="fill:none;stroke:#000000;stroke-linecap:square;stroke-linejoin:miter;stroke-width:0.8;"/>
   </g>
   <g id="patch_5">
    <path d="M 70.8 298.245375 
L 427.92 298.245375 
" style="fill:none;stroke:#000000;stroke-linecap:square;stroke-linejoin:miter;stroke-width:0.8;"/>
   </g>
   <g id="patch_6">
    <path d="M 70.8 32.133375 
L 427.92 32.133375 
" style="fill:none;stroke:#000000;stroke-linecap:square;stroke-linejoin:miter;stroke-width:0.8;"/>
   </g>
   <g id="text_14">
    <!-- deapbbob -->
    <defs>
     <path d="M 48.6875 27.296875 
Q 48.6875 37.203125 44.609375 42.84375 
Q 40.53125 48.484375 33.40625 48.484375 
Q 26.265625 48.484375 22.1875 42.84375 
Q 18.109375 37.203125 18.109375 27.296875 
Q 18.109375 17.390625 22.1875 11.75 
Q 26.265625 6.109375 33.40625 6.109375 
Q 40.53125 6.109375 44.609375 11.75 
Q 48.6875 17.390625 48.6875 27.296875 
M 18.109375 46.390625 
Q 20.953125 51.265625 25.265625 53.625 
Q 29.59375 56 35.59375 56 
Q 45.5625 56 51.78125 48.09375 
Q 58.015625 40.1875 58.015625 27.296875 
Q 58.015625 14.40625 51.78125 6.484375 
Q 45.5625 -1.421875 35.59375 -1.421875 
Q 29.59375 -1.421875 25.265625 0.953125 
Q 20.953125 3.328125 18.109375 8.203125 
L 18.109375 0 
L 9.078125 0 
L 9.078125 75.984375 
L 18.109375 75.984375 
z
" id="DejaVuSans-62"/>
    </defs>
    <g transform="translate(396.24 297.114893)scale(0.15 -0.15)">
     <use xlink:href="#DejaVuSans-64"/>
     <use x="63.476562" xlink:href="#DejaVuSans-65"/>
     <use x="125" xlink:href="#DejaVuSans-61"/>
     <use x="186.279297" xlink:href="#DejaVuSans-70"/>
     <use x="249.755859" xlink:href="#DejaVuSans-62"/>
     <use x="313.232422" xlink:href="#DejaVuSans-62"/>
     <use x="376.708984" xlink:href="#DejaVuSans-6f"/>
     <use x="437.890625" xlink:href="#DejaVuSans-62"/>
    </g>
   </g>
   <g id="text_15">
    <!-- best 2009 -->
    <defs>
     <path d="M 10.984375 1.515625 
L 10.984375 10.5 
Q 14.703125 8.734375 18.5 7.8125 
Q 22.3125 6.890625 25.984375 6.890625 
Q 35.75 6.890625 40.890625 13.453125 
Q 46.046875 20.015625 46.78125 33.40625 
Q 43.953125 29.203125 39.59375 26.953125 
Q 35.25 24.703125 29.984375 24.703125 
Q 19.046875 24.703125 12.671875 31.3125 
Q 6.296875 37.9375 6.296875 49.421875 
Q 6.296875 60.640625 12.9375 67.421875 
Q 19.578125 74.21875 30.609375 74.21875 
Q 43.265625 74.21875 49.921875 64.515625 
Q 56.59375 54.828125 56.59375 36.375 
Q 56.59375 19.140625 48.40625 8.859375 
Q 40.234375 -1.421875 26.421875 -1.421875 
Q 22.703125 -1.421875 18.890625 -0.6875 
Q 15.09375 0.046875 10.984375 1.515625 
M 30.609375 32.421875 
Q 37.25 32.421875 41.125 36.953125 
Q 45.015625 41.5 45.015625 49.421875 
Q 45.015625 57.28125 41.125 61.84375 
Q 37.25 66.40625 30.609375 66.40625 
Q 23.96875 66.40625 20.09375 61.84375 
Q 16.21875 57.28125 16.21875 49.421875 
Q 16.21875 41.5 20.09375 36.953125 
Q 23.96875 32.421875 30.609375 32.421875 
" id="DejaVuSans-39"/>
    </defs>
    <g transform="translate(396.24 44.176754)scale(0.15 -0.15)">
     <use xlink:href="#DejaVuSans-62"/>
     <use x="63.476562" xlink:href="#DejaVuSans-65"/>
     <use x="125" xlink:href="#DejaVuSans-73"/>
     <use x="177.099609" xlink:href="#DejaVuSans-74"/>
     <use x="216.308594" xlink:href="#DejaVuSans-20"/>
     <use x="248.095703" xlink:href="#DejaVuSans-32"/>
     <use x="311.71875" xlink:href="#DejaVuSans-30"/>
     <use x="375.341797" xlink:href="#DejaVuSans-30"/>
     <use x="438.964844" xlink:href="#DejaVuSans-39"/>
    </g>
   </g>
   <g id="text_16">
    <!-- bbob - f20-f24, 2-D -->
    <defs>
     <path d="M 11.71875 12.40625 
L 22.015625 12.40625 
L 22.015625 4 
L 14.015625 -11.625 
L 7.71875 -11.625 
L 11.71875 4 
z
" id="DejaVuSans-2c"/>
     <path d="M 19.671875 64.796875 
L 19.671875 8.109375 
L 31.59375 8.109375 
Q 46.6875 8.109375 53.6875 14.9375 
Q 60.6875 21.78125 60.6875 36.53125 
Q 60.6875 51.171875 53.6875 57.984375 
Q 46.6875 64.796875 31.59375 64.796875 
z
M 9.8125 72.90625 
L 30.078125 72.90625 
Q 51.265625 72.90625 61.171875 64.09375 
Q 71.09375 55.28125 71.09375 36.53125 
Q 71.09375 17.671875 61.125 8.828125 
Q 51.171875 0 30.078125 0 
L 9.8125 0 
z
" id="DejaVuSans-44"/>
    </defs>
    <g transform="translate(74.3712 50.114612)scale(0.1666 -0.1666)">
     <use xlink:href="#DejaVuSans-62"/>
     <use x="63.476562" xlink:href="#DejaVuSans-62"/>
     <use x="126.953125" xlink:href="#DejaVuSans-6f"/>
     <use x="188.134766" xlink:href="#DejaVuSans-62"/>
     <use x="251.611328" xlink:href="#DejaVuSans-20"/>
     <use x="283.398438" xlink:href="#DejaVuSans-2d"/>
     <use x="319.482422" xlink:href="#DejaVuSans-20"/>
     <use x="351.269531" xlink:href="#DejaVuSans-66"/>
     <use x="386.474609" xlink:href="#DejaVuSans-32"/>
     <use x="450.097656" xlink:href="#DejaVuSans-30"/>
     <use x="513.720703" xlink:href="#DejaVuSans-2d"/>
     <use x="549.804688" xlink:href="#DejaVuSans-66"/>
     <use x="585.009766" xlink:href="#DejaVuSans-32"/>
     <use x="648.632812" xlink:href="#DejaVuSans-34"/>
     <use x="712.255859" xlink:href="#DejaVuSans-2c"/>
     <use x="744.042969" xlink:href="#DejaVuSans-20"/>
     <use x="775.830078" xlink:href="#DejaVuSans-32"/>
     <use x="839.453125" xlink:href="#DejaVuSans-2d"/>
     <use x="875.537109" xlink:href="#DejaVuSans-44"/>
    </g>
    <!-- 51 targets in 100..1e-08 -->
    <defs>
     <path d="M 10.796875 72.90625 
L 49.515625 72.90625 
L 49.515625 64.59375 
L 19.828125 64.59375 
L 19.828125 46.734375 
Q 21.96875 47.46875 24.109375 47.828125 
Q 26.265625 48.1875 28.421875 48.1875 
Q 40.625 48.1875 47.75 41.5 
Q 54.890625 34.8125 54.890625 23.390625 
Q 54.890625 11.625 47.5625 5.09375 
Q 40.234375 -1.421875 26.90625 -1.421875 
Q 22.3125 -1.421875 17.546875 -0.640625 
Q 12.796875 0.140625 7.71875 1.703125 
L 7.71875 11.625 
Q 12.109375 9.234375 16.796875 8.0625 
Q 21.484375 6.890625 26.703125 6.890625 
Q 35.15625 6.890625 40.078125 11.328125 
Q 45.015625 15.765625 45.015625 23.390625 
Q 45.015625 31 40.078125 35.4375 
Q 35.15625 39.890625 26.703125 39.890625 
Q 22.75 39.890625 18.8125 39.015625 
Q 14.890625 38.140625 10.796875 36.28125 
z
" id="DejaVuSans-35"/>
    </defs>
    <g transform="translate(74.3712 68.770168)scale(0.1666 -0.1666)">
     <use xlink:href="#DejaVuSans-35"/>
     <use x="63.623047" xlink:href="#DejaVuSans-31"/>
     <use x="127.246094" xlink:href="#DejaVuSans-20"/>
     <use x="159.033203" xlink:href="#DejaVuSans-74"/>
     <use x="198.242188" xlink:href="#DejaVuSans-61"/>
     <use x="259.521484" xlink:href="#DejaVuSans-72"/>
     <use x="300.619141" xlink:href="#DejaVuSans-67"/>
     <use x="364.095703" xlink:href="#DejaVuSans-65"/>
     <use x="425.619141" xlink:href="#DejaVuSans-74"/>
     <use x="464.828125" xlink:href="#DejaVuSans-73"/>
     <use x="516.927734" xlink:href="#DejaVuSans-20"/>
     <use x="548.714844" xlink:href="#DejaVuSans-69"/>
     <use x="576.498047" xlink:href="#DejaVuSans-6e"/>
     <use x="639.876953" xlink:href="#DejaVuSans-20"/>
     <use x="671.664062" xlink:href="#DejaVuSans-31"/>
     <use x="735.287109" xlink:href="#DejaVuSans-30"/>
     <use x="798.910156" xlink:href="#DejaVuSans-30"/>
     <use x="862.533203" xlink:href="#DejaVuSans-2e"/>
     <use x="894.320312" xlink:href="#DejaVuSans-2e"/>
     <use x="926.107422" xlink:href="#DejaVuSans-31"/>
     <use x="989.730469" xlink:href="#DejaVuSans-65"/>
     <use x="1051.253906" xlink:href="#DejaVuSans-2d"/>
     <use x="1087.337891" xlink:href="#DejaVuSans-30"/>
     <use x="1150.960938" xlink:href="#DejaVuSans-38"/>
    </g>
    <!-- 15 instances -->
    <g transform="translate(74.3712 87.425723)scale(0.1666 -0.1666)">
     <use xlink:href="#DejaVuSans-31"/>
     <use x="63.623047" xlink:href="#DejaVuSans-35"/>
     <use x="127.246094" xlink:href="#DejaVuSans-20"/>
     <use x="159.033203" xlink:href="#DejaVuSans-69"/>
     <use x="186.816406" xlink:href="#DejaVuSans-6e"/>
     <use x="250.195312" xlink:href="#DejaVuSans-73"/>
     <use x="302.294922" xlink:href="#DejaVuSans-74"/>
     <use x="341.503906" xlink:href="#DejaVuSans-61"/>
     <use x="402.783203" xlink:href="#DejaVuSans-6e"/>
     <use x="466.162109" xlink:href="#DejaVuSans-63"/>
     <use x="521.142578" xlink:href="#DejaVuSans-65"/>
     <use x="582.666016" xlink:href="#DejaVuSans-73"/>
    </g>
   </g>
   <g id="text_17">
    <!-- v2.1 -->
    <g style="fill:#808080;" transform="translate(238.449063 293.504568)scale(0.1 -0.1)">
     <use xlink:href="#DejaVuSans-76"/>
     <use x="59.179688" xlink:href="#DejaVuSans-32"/>
     <use x="122.802734" xlink:href="#DejaVuSans-2e"/>
     <use x="154.589844" xlink:href="#DejaVuSans-31"/>
    </g>
   </g>
  </g>
 </g>
 <defs>
  <clipPath id="pd729e2c93b">
   <rect height="266.112" width="357.12" x="70.8" y="32.133375"/>
  </clipPath>
 </defs>
</svg>
