<?xml version="1.0" encoding="utf-8" standalone="no"?>
<!DOCTYPE svg PUBLIC "-//W3C//DTD SVG 1.1//EN"
  "http://www.w3.org/Graphics/SVG/1.1/DTD/svg11.dtd">
<!-- Created with matplotlib (http://matplotlib.org/) -->
<svg height="353pt" version="1.1" viewBox="0 0 478 353" width="478pt" xmlns="http://www.w3.org/2000/svg" xmlns:xlink="http://www.w3.org/1999/xlink">
 <defs>
  <style type="text/css">
*{stroke-linecap:butt;stroke-linejoin:round;}
  </style>
 </defs>
 <g id="figure_1">
  <g id="patch_1">
   <path d="M 0 353.22225 
L 478.829063 353.22225 
L 478.829063 0 
L 0 0 
z
" style="fill:#ffffff;"/>
  </g>
  <g id="axes_1">
   <g id="patch_2">
    <path d="M 70.8 298.245375 
L 427.92 298.245375 
L 427.92 32.133375 
L 70.8 32.133375 
z
" style="fill:#ffffff;"/>
   </g>
   <g id="line2d_1">
    <path d="M 131.897604 298.245375 
L 131.897604 296.95382 
L 134.289041 296.95382 
L 134.289041 295.662265 
L 135.440624 295.662265 
L 135.440624 294.37071 
L 136.891119 294.37071 
L 136.891119 293.079155 
L 139.210608 293.079155 
L 139.220316 290.496045 
L 139.746309 290.496045 
L 139.746309 289.20449 
L 141.623247 289.20449 
L 141.623247 287.912935 
L 141.750062 287.912935 
L 141.750062 286.62138 
L 142.240313 286.62138 
L 142.240313 285.329825 
L 143.943327 285.329825 
L 143.943327 284.03827 
L 144.435714 284.03827 
L 144.435714 282.746715 
L 145.762472 282.746715 
L 145.762472 281.45516 
L 147.867781 281.45516 
L 147.867781 280.163604 
L 148.264143 280.163604 
L 148.264143 278.872049 
L 150.73546 278.872049 
L 150.73546 277.580494 
L 152.733844 277.580494 
L 152.733844 276.288939 
L 153.430789 276.288939 
L 153.430789 274.997384 
L 154.625547 274.997384 
L 154.625547 273.705829 
L 156.458484 273.705829 
L 156.458484 272.414274 
L 157.576726 272.414274 
L 157.576726 271.122719 
L 158.194754 271.122719 
L 158.194754 269.831164 
L 158.454634 269.831164 
L 158.454634 268.539609 
L 158.850448 268.539609 
L 158.850448 267.248054 
L 159.829293 267.248054 
L 159.829293 265.956499 
L 160.44046 265.956499 
L 160.44046 264.664944 
L 160.690286 264.664944 
L 160.690286 263.373389 
L 161.427868 263.373389 
L 161.450259 260.790279 
L 162.125437 260.790279 
L 162.198011 258.207169 
L 162.384806 258.207169 
L 162.384806 256.915614 
L 163.288043 256.915614 
L 163.288043 255.624059 
L 163.508764 255.624059 
L 163.508764 254.332504 
L 164.497919 254.332504 
L 164.497919 253.040949 
L 164.896741 253.040949 
L 164.896741 251.749394 
L 166.263858 251.749394 
L 166.263858 250.457839 
L 166.986175 250.457839 
L 166.986175 249.166284 
L 167.866951 249.166284 
L 167.866951 247.874729 
L 168.485074 247.874729 
L 168.485074 246.583173 
L 169.202557 246.583173 
L 169.202557 245.291618 
L 169.838196 245.291618 
L 169.866162 242.708508 
L 170.212085 242.708508 
L 170.212085 241.416953 
L 170.423242 241.416953 
L 170.514423 238.833843 
L 170.591731 238.833843 
L 170.663696 236.250733 
L 170.738698 236.250733 
L 170.738698 234.959178 
L 170.894362 234.959178 
L 170.999575 232.376068 
L 171.099283 232.376068 
L 171.180598 229.792958 
L 171.268005 229.792958 
L 171.301881 227.209848 
L 171.387094 227.209848 
L 171.467112 224.626738 
L 171.529279 224.626738 
L 171.586472 222.043628 
L 171.645064 222.043628 
L 171.749105 218.168963 
L 171.797764 218.168963 
L 171.893127 214.294298 
L 171.935176 214.294298 
L 172.025168 209.128077 
L 172.074626 209.128077 
L 172.159313 205.253412 
L 172.199207 205.253412 
L 172.306175 200.087192 
L 172.339661 200.087192 
L 172.415534 196.212527 
L 172.456372 196.212527 
L 172.537769 192.337862 
L 172.58133 192.337862 
L 172.669627 187.171642 
L 172.708399 187.171642 
L 172.791624 183.296977 
L 172.834571 183.296977 
L 172.87594 180.713867 
L 173.087191 180.713867 
L 173.087191 179.422312 
L 173.251233 179.422312 
L 173.251233 178.130756 
L 173.51374 178.130756 
L 173.51374 176.839201 
L 173.803297 176.839201 
L 173.803297 174.256091 
L 173.981743 174.256091 
L 173.981743 172.964536 
L 174.115794 172.964536 
L 174.121301 170.381426 
L 174.233809 170.381426 
L 174.325213 167.798316 
L 174.41209 167.798316 
L 174.520095 163.923651 
L 174.553714 163.923651 
L 174.615406 161.340541 
L 174.672884 161.340541 
L 174.772695 157.465876 
L 174.788613 157.465876 
L 174.891737 152.299656 
L 174.923348 152.299656 
L 175.019156 148.424991 
L 175.053155 148.424991 
L 175.157366 143.25877 
L 175.169051 143.25877 
L 175.267427 136.800995 
L 175.29967 136.800995 
L 175.410141 130.34322 
L 175.440849 130.34322 
L 175.526297 125.177 
L 175.555536 125.177 
L 175.650549 120.01078 
L 175.678324 120.01078 
L 175.777707 113.553005 
L 175.80278 113.553005 
L 175.80278 112.26145 
L 176.268936 112.26145 
L 176.268936 110.969895 
L 176.593072 110.969895 
L 176.593072 109.678339 
L 176.711337 109.678339 
L 176.711337 108.386784 
L 177.196432 108.386784 
L 177.196432 107.095229 
L 177.549813 107.095229 
L 177.549813 105.803674 
L 177.798017 105.803674 
L 177.798017 104.512119 
L 177.917499 104.512119 
L 177.917499 103.220564 
L 178.377836 103.220564 
L 178.377836 101.929009 
L 178.654433 101.929009 
L 178.654433 100.637454 
L 179.237534 100.637454 
L 179.237534 99.345899 
L 179.800204 99.345899 
L 179.838226 96.762789 
L 180.331116 96.762789 
L 180.331116 95.471234 
L 180.808881 95.471234 
L 180.808881 94.179679 
L 181.134387 94.179679 
L 181.134387 92.888124 
L 181.382707 92.888124 
L 181.382707 91.596569 
L 181.695314 91.596569 
L 181.695314 90.305014 
L 181.912887 90.305014 
L 181.912887 89.013459 
L 182.213807 89.013459 
L 182.213807 87.721904 
L 182.594749 87.721904 
L 182.594749 86.430349 
L 190.673364 86.430349 
L 190.673364 85.138794 
L 192.764415 85.138794 
L 192.764415 83.847239 
L 193.313938 83.847239 
L 193.313938 82.555684 
L 193.928108 82.555684 
L 193.928108 81.264129 
L 194.6859 81.264129 
L 194.6859 79.972574 
L 195.537834 79.972574 
L 195.537834 78.681019 
L 202.246284 78.681019 
L 202.246284 77.389464 
L 202.634745 77.389464 
L 202.634745 76.097908 
L 202.977475 76.097908 
L 202.977475 74.806353 
L 203.2559 74.806353 
L 203.2559 45.100588 
L 203.522885 45.100588 
L 203.522885 43.809033 
L 203.678339 43.809033 
L 203.747959 41.225922 
L 204.017303 41.225922 
L 204.017303 39.934367 
L 204.16341 39.934367 
L 204.266608 37.351257 
L 204.407667 37.351257 
L 204.430648 34.768147 
L 358.8 34.768147 
L 358.8 34.768147 
" style="fill:none;stroke:#f5deb3;stroke-linecap:square;stroke-width:6;"/>
   </g>
   <g id="line2d_2"/>
   <g id="line2d_3">
    <path d="M 358.8 34.768147 
L 390.48 40.037692 
" style="fill:none;stroke:#f5deb3;stroke-linecap:square;stroke-width:6;"/>
    <defs>
     <path d="M -0 7.778175 
L 7.778175 0 
L 0 -7.778175 
L -7.778175 -0 
z
" id="m0ed2adfc8e" style="stroke:#f5deb3;stroke-linejoin:miter;stroke-width:1.5;"/>
    </defs>
    <g>
     <use style="fill:#f5deb3;stroke:#f5deb3;stroke-linejoin:miter;stroke-width:1.5;" x="358.8" xlink:href="#m0ed2adfc8e" y="34.768147"/>
     <use style="fill:#f5deb3;stroke:#f5deb3;stroke-linejoin:miter;stroke-width:1.5;" x="390.48" xlink:href="#m0ed2adfc8e" y="40.037692"/>
    </g>
   </g>
   <g id="matplotlib.axis_1">
    <g id="xtick_1">
     <g id="line2d_4">
      <path clip-path="url(#pc53f261386)" d="M 70.8 298.245375 
L 70.8 32.133375 
" style="fill:none;stroke:#b0b0b0;stroke-linecap:square;stroke-width:0.8;"/>
     </g>
     <g id="line2d_5">
      <defs>
       <path d="M 0 0 
L 0 3.5 
" id="mca0b46e1dc" style="stroke:#000000;stroke-width:0.8;"/>
      </defs>
      <g>
       <use style="stroke:#000000;stroke-width:0.8;" x="70.8" xlink:href="#mca0b46e1dc" y="298.245375"/>
      </g>
     </g>
     <g id="text_1">
      <!-- 0 -->
      <defs>
       <path d="M 31.78125 66.40625 
Q 24.171875 66.40625 20.328125 58.90625 
Q 16.5 51.421875 16.5 36.375 
Q 16.5 21.390625 20.328125 13.890625 
Q 24.171875 6.390625 31.78125 6.390625 
Q 39.453125 6.390625 43.28125 13.890625 
Q 47.125 21.390625 47.125 36.375 
Q 47.125 51.421875 43.28125 58.90625 
Q 39.453125 66.40625 31.78125 66.40625 
M 31.78125 74.21875 
Q 44.046875 74.21875 50.515625 64.515625 
Q 56.984375 54.828125 56.984375 36.375 
Q 56.984375 17.96875 50.515625 8.265625 
Q 44.046875 -1.421875 31.78125 -1.421875 
Q 19.53125 -1.421875 13.0625 8.265625 
Q 6.59375 17.96875 6.59375 36.375 
Q 6.59375 54.828125 13.0625 64.515625 
Q 19.53125 74.21875 31.78125 74.21875 
" id="DejaVuSans-30"/>
      </defs>
      <g transform="translate(64.4375 320.44225)scale(0.2 -0.2)">
       <use xlink:href="#DejaVuSans-30"/>
      </g>
     </g>
    </g>
    <g id="xtick_2">
     <g id="line2d_6">
      <path clip-path="url(#pc53f261386)" d="M 153.085714 298.245375 
L 153.085714 32.133375 
" style="fill:none;stroke:#b0b0b0;stroke-linecap:square;stroke-width:0.8;"/>
     </g>
     <g id="line2d_7">
      <g>
       <use style="stroke:#000000;stroke-width:0.8;" x="153.085714" xlink:href="#mca0b46e1dc" y="298.245375"/>
      </g>
     </g>
     <g id="text_2">
      <!-- 2 -->
      <defs>
       <path d="M 19.1875 8.296875 
L 53.609375 8.296875 
L 53.609375 0 
L 7.328125 0 
L 7.328125 8.296875 
Q 12.9375 14.109375 22.625 23.890625 
Q 32.328125 33.6875 34.8125 36.53125 
Q 39.546875 41.84375 41.421875 45.53125 
Q 43.3125 49.21875 43.3125 52.78125 
Q 43.3125 58.59375 39.234375 62.25 
Q 35.15625 65.921875 28.609375 65.921875 
Q 23.96875 65.921875 18.8125 64.3125 
Q 13.671875 62.703125 7.8125 59.421875 
L 7.8125 69.390625 
Q 13.765625 71.78125 18.9375 73 
Q 24.125 74.21875 28.421875 74.21875 
Q 39.75 74.21875 46.484375 68.546875 
Q 53.21875 62.890625 53.21875 53.421875 
Q 53.21875 48.921875 51.53125 44.890625 
Q 49.859375 40.875 45.40625 35.40625 
Q 44.1875 33.984375 37.640625 27.21875 
Q 31.109375 20.453125 19.1875 8.296875 
" id="DejaVuSans-32"/>
      </defs>
      <g transform="translate(146.723214 320.44225)scale(0.2 -0.2)">
       <use xlink:href="#DejaVuSans-32"/>
      </g>
     </g>
    </g>
    <g id="xtick_3">
     <g id="line2d_8">
      <path clip-path="url(#pc53f261386)" d="M 235.371429 298.245375 
L 235.371429 32.133375 
" style="fill:none;stroke:#b0b0b0;stroke-linecap:square;stroke-width:0.8;"/>
     </g>
     <g id="line2d_9">
      <g>
       <use style="stroke:#000000;stroke-width:0.8;" x="235.371429" xlink:href="#mca0b46e1dc" y="298.245375"/>
      </g>
     </g>
     <g id="text_3">
      <!-- 4 -->
      <defs>
       <path d="M 37.796875 64.3125 
L 12.890625 25.390625 
L 37.796875 25.390625 
z
M 35.203125 72.90625 
L 47.609375 72.90625 
L 47.609375 25.390625 
L 58.015625 25.390625 
L 58.015625 17.1875 
L 47.609375 17.1875 
L 47.609375 0 
L 37.796875 0 
L 37.796875 17.1875 
L 4.890625 17.1875 
L 4.890625 26.703125 
z
" id="DejaVuSans-34"/>
      </defs>
      <g transform="translate(229.008929 320.44225)scale(0.2 -0.2)">
       <use xlink:href="#DejaVuSans-34"/>
      </g>
     </g>
    </g>
    <g id="xtick_4">
     <g id="line2d_10">
      <path clip-path="url(#pc53f261386)" d="M 317.657143 298.245375 
L 317.657143 32.133375 
" style="fill:none;stroke:#b0b0b0;stroke-linecap:square;stroke-width:0.8;"/>
     </g>
     <g id="line2d_11">
      <g>
       <use style="stroke:#000000;stroke-width:0.8;" x="317.657143" xlink:href="#mca0b46e1dc" y="298.245375"/>
      </g>
     </g>
     <g id="text_4">
      <!-- 6 -->
      <defs>
       <path d="M 33.015625 40.375 
Q 26.375 40.375 22.484375 35.828125 
Q 18.609375 31.296875 18.609375 23.390625 
Q 18.609375 15.53125 22.484375 10.953125 
Q 26.375 6.390625 33.015625 6.390625 
Q 39.65625 6.390625 43.53125 10.953125 
Q 47.40625 15.53125 47.40625 23.390625 
Q 47.40625 31.296875 43.53125 35.828125 
Q 39.65625 40.375 33.015625 40.375 
M 52.59375 71.296875 
L 52.59375 62.3125 
Q 48.875 64.0625 45.09375 64.984375 
Q 41.3125 65.921875 37.59375 65.921875 
Q 27.828125 65.921875 22.671875 59.328125 
Q 17.53125 52.734375 16.796875 39.40625 
Q 19.671875 43.65625 24.015625 45.921875 
Q 28.375 48.1875 33.59375 48.1875 
Q 44.578125 48.1875 50.953125 41.515625 
Q 57.328125 34.859375 57.328125 23.390625 
Q 57.328125 12.15625 50.6875 5.359375 
Q 44.046875 -1.421875 33.015625 -1.421875 
Q 20.359375 -1.421875 13.671875 8.265625 
Q 6.984375 17.96875 6.984375 36.375 
Q 6.984375 53.65625 15.1875 63.9375 
Q 23.390625 74.21875 37.203125 74.21875 
Q 40.921875 74.21875 44.703125 73.484375 
Q 48.484375 72.75 52.59375 71.296875 
" id="DejaVuSans-36"/>
      </defs>
      <g transform="translate(311.294643 320.44225)scale(0.2 -0.2)">
       <use xlink:href="#DejaVuSans-36"/>
      </g>
     </g>
    </g>
    <g id="xtick_5">
     <g id="line2d_12">
      <path clip-path="url(#pc53f261386)" d="M 399.942857 298.245375 
L 399.942857 32.133375 
" style="fill:none;stroke:#b0b0b0;stroke-linecap:square;stroke-width:0.8;"/>
     </g>
     <g id="line2d_13">
      <g>
       <use style="stroke:#000000;stroke-width:0.8;" x="399.942857" xlink:href="#mca0b46e1dc" y="298.245375"/>
      </g>
     </g>
     <g id="text_5">
      <!-- 8 -->
      <defs>
       <path d="M 31.78125 34.625 
Q 24.75 34.625 20.71875 30.859375 
Q 16.703125 27.09375 16.703125 20.515625 
Q 16.703125 13.921875 20.71875 10.15625 
Q 24.75 6.390625 31.78125 6.390625 
Q 38.8125 6.390625 42.859375 10.171875 
Q 46.921875 13.96875 46.921875 20.515625 
Q 46.921875 27.09375 42.890625 30.859375 
Q 38.875 34.625 31.78125 34.625 
M 21.921875 38.8125 
Q 15.578125 40.375 12.03125 44.71875 
Q 8.5 49.078125 8.5 55.328125 
Q 8.5 64.0625 14.71875 69.140625 
Q 20.953125 74.21875 31.78125 74.21875 
Q 42.671875 74.21875 48.875 69.140625 
Q 55.078125 64.0625 55.078125 55.328125 
Q 55.078125 49.078125 51.53125 44.71875 
Q 48 40.375 41.703125 38.8125 
Q 48.828125 37.15625 52.796875 32.3125 
Q 56.78125 27.484375 56.78125 20.515625 
Q 56.78125 9.90625 50.3125 4.234375 
Q 43.84375 -1.421875 31.78125 -1.421875 
Q 19.734375 -1.421875 13.25 4.234375 
Q 6.78125 9.90625 6.78125 20.515625 
Q 6.78125 27.484375 10.78125 32.3125 
Q 14.796875 37.15625 21.921875 38.8125 
M 18.3125 54.390625 
Q 18.3125 48.734375 21.84375 45.5625 
Q 25.390625 42.390625 31.78125 42.390625 
Q 38.140625 42.390625 41.71875 45.5625 
Q 45.3125 48.734375 45.3125 54.390625 
Q 45.3125 60.0625 41.71875 63.234375 
Q 38.140625 66.40625 31.78125 66.40625 
Q 25.390625 66.40625 21.84375 63.234375 
Q 18.3125 60.0625 18.3125 54.390625 
" id="DejaVuSans-38"/>
      </defs>
      <g transform="translate(393.580357 320.44225)scale(0.2 -0.2)">
       <use xlink:href="#DejaVuSans-38"/>
      </g>
     </g>
    </g>
    <g id="xtick_6">
     <g id="line2d_14">
      <defs>
       <path d="M 0 0 
L 0 2 
" id="mc1105e2889" style="stroke:#000000;stroke-width:0.6;"/>
      </defs>
      <g>
       <use style="stroke:#000000;stroke-width:0.6;" x="83.185234" xlink:href="#mc1105e2889" y="298.245375"/>
      </g>
     </g>
    </g>
    <g id="xtick_7">
     <g id="line2d_15">
      <g>
       <use style="stroke:#000000;stroke-width:0.6;" x="95.570468" xlink:href="#mc1105e2889" y="298.245375"/>
      </g>
     </g>
    </g>
    <g id="xtick_8">
     <g id="line2d_16">
      <g>
       <use style="stroke:#000000;stroke-width:0.6;" x="102.815366" xlink:href="#mc1105e2889" y="298.245375"/>
      </g>
     </g>
    </g>
    <g id="xtick_9">
     <g id="line2d_17">
      <g>
       <use style="stroke:#000000;stroke-width:0.6;" x="107.955702" xlink:href="#mc1105e2889" y="298.245375"/>
      </g>
     </g>
    </g>
    <g id="xtick_10">
     <g id="line2d_18">
      <g>
       <use style="stroke:#000000;stroke-width:0.6;" x="165.470948" xlink:href="#mc1105e2889" y="298.245375"/>
      </g>
     </g>
    </g>
    <g id="xtick_11">
     <g id="line2d_19">
      <g>
       <use style="stroke:#000000;stroke-width:0.6;" x="177.856183" xlink:href="#mc1105e2889" y="298.245375"/>
      </g>
     </g>
    </g>
    <g id="xtick_12">
     <g id="line2d_20">
      <g>
       <use style="stroke:#000000;stroke-width:0.6;" x="185.10108" xlink:href="#mc1105e2889" y="298.245375"/>
      </g>
     </g>
    </g>
    <g id="xtick_13">
     <g id="line2d_21">
      <g>
       <use style="stroke:#000000;stroke-width:0.6;" x="190.241417" xlink:href="#mc1105e2889" y="298.245375"/>
      </g>
     </g>
    </g>
    <g id="xtick_14">
     <g id="line2d_22">
      <g>
       <use style="stroke:#000000;stroke-width:0.6;" x="247.756663" xlink:href="#mc1105e2889" y="298.245375"/>
      </g>
     </g>
    </g>
    <g id="xtick_15">
     <g id="line2d_23">
      <g>
       <use style="stroke:#000000;stroke-width:0.6;" x="260.141897" xlink:href="#mc1105e2889" y="298.245375"/>
      </g>
     </g>
    </g>
    <g id="xtick_16">
     <g id="line2d_24">
      <g>
       <use style="stroke:#000000;stroke-width:0.6;" x="267.386794" xlink:href="#mc1105e2889" y="298.245375"/>
      </g>
     </g>
    </g>
    <g id="xtick_17">
     <g id="line2d_25">
      <g>
       <use style="stroke:#000000;stroke-width:0.6;" x="272.527131" xlink:href="#mc1105e2889" y="298.245375"/>
      </g>
     </g>
    </g>
    <g id="xtick_18">
     <g id="line2d_26">
      <g>
       <use style="stroke:#000000;stroke-width:0.6;" x="330.042377" xlink:href="#mc1105e2889" y="298.245375"/>
      </g>
     </g>
    </g>
    <g id="xtick_19">
     <g id="line2d_27">
      <g>
       <use style="stroke:#000000;stroke-width:0.6;" x="342.427611" xlink:href="#mc1105e2889" y="298.245375"/>
      </g>
     </g>
    </g>
    <g id="xtick_20">
     <g id="line2d_28">
      <g>
       <use style="stroke:#000000;stroke-width:0.6;" x="349.672509" xlink:href="#mc1105e2889" y="298.245375"/>
      </g>
     </g>
    </g>
    <g id="xtick_21">
     <g id="line2d_29">
      <g>
       <use style="stroke:#000000;stroke-width:0.6;" x="354.812845" xlink:href="#mc1105e2889" y="298.245375"/>
      </g>
     </g>
    </g>
    <g id="xtick_22">
     <g id="line2d_30">
      <g>
       <use style="stroke:#000000;stroke-width:0.6;" x="412.328091" xlink:href="#mc1105e2889" y="298.245375"/>
      </g>
     </g>
    </g>
    <g id="xtick_23">
     <g id="line2d_31">
      <g>
       <use style="stroke:#000000;stroke-width:0.6;" x="424.713325" xlink:href="#mc1105e2889" y="298.245375"/>
      </g>
     </g>
    </g>
    <g id="text_6">
     <!-- log10 of (# f-evals / dimension) -->
     <defs>
      <path d="M 9.421875 75.984375 
L 18.40625 75.984375 
L 18.40625 0 
L 9.421875 0 
z
" id="DejaVuSans-6c"/>
      <path d="M 30.609375 48.390625 
Q 23.390625 48.390625 19.1875 42.75 
Q 14.984375 37.109375 14.984375 27.296875 
Q 14.984375 17.484375 19.15625 11.84375 
Q 23.34375 6.203125 30.609375 6.203125 
Q 37.796875 6.203125 41.984375 11.859375 
Q 46.1875 17.53125 46.1875 27.296875 
Q 46.1875 37.015625 41.984375 42.703125 
Q 37.796875 48.390625 30.609375 48.390625 
M 30.609375 56 
Q 42.328125 56 49.015625 48.375 
Q 55.71875 40.765625 55.71875 27.296875 
Q 55.71875 13.875 49.015625 6.21875 
Q 42.328125 -1.421875 30.609375 -1.421875 
Q 18.84375 -1.421875 12.171875 6.21875 
Q 5.515625 13.875 5.515625 27.296875 
Q 5.515625 40.765625 12.171875 48.375 
Q 18.84375 56 30.609375 56 
" id="DejaVuSans-6f"/>
      <path d="M 45.40625 27.984375 
Q 45.40625 37.75 41.375 43.109375 
Q 37.359375 48.484375 30.078125 48.484375 
Q 22.859375 48.484375 18.828125 43.109375 
Q 14.796875 37.75 14.796875 27.984375 
Q 14.796875 18.265625 18.828125 12.890625 
Q 22.859375 7.515625 30.078125 7.515625 
Q 37.359375 7.515625 41.375 12.890625 
Q 45.40625 18.265625 45.40625 27.984375 
M 54.390625 6.78125 
Q 54.390625 -7.171875 48.1875 -13.984375 
Q 42 -20.796875 29.203125 -20.796875 
Q 24.46875 -20.796875 20.265625 -20.09375 
Q 16.0625 -19.390625 12.109375 -17.921875 
L 12.109375 -9.1875 
Q 16.0625 -11.328125 19.921875 -12.34375 
Q 23.78125 -13.375 27.78125 -13.375 
Q 36.625 -13.375 41.015625 -8.765625 
Q 45.40625 -4.15625 45.40625 5.171875 
L 45.40625 9.625 
Q 42.625 4.78125 38.28125 2.390625 
Q 33.9375 0 27.875 0 
Q 17.828125 0 11.671875 7.65625 
Q 5.515625 15.328125 5.515625 27.984375 
Q 5.515625 40.671875 11.671875 48.328125 
Q 17.828125 56 27.875 56 
Q 33.9375 56 38.28125 53.609375 
Q 42.625 51.21875 45.40625 46.390625 
L 45.40625 54.6875 
L 54.390625 54.6875 
z
" id="DejaVuSans-67"/>
      <path d="M 12.40625 8.296875 
L 28.515625 8.296875 
L 28.515625 63.921875 
L 10.984375 60.40625 
L 10.984375 69.390625 
L 28.421875 72.90625 
L 38.28125 72.90625 
L 38.28125 8.296875 
L 54.390625 8.296875 
L 54.390625 0 
L 12.40625 0 
z
" id="DejaVuSans-31"/>
      <path id="DejaVuSans-20"/>
      <path d="M 37.109375 75.984375 
L 37.109375 68.5 
L 28.515625 68.5 
Q 23.6875 68.5 21.796875 66.546875 
Q 19.921875 64.59375 19.921875 59.515625 
L 19.921875 54.6875 
L 34.71875 54.6875 
L 34.71875 47.703125 
L 19.921875 47.703125 
L 19.921875 0 
L 10.890625 0 
L 10.890625 47.703125 
L 2.296875 47.703125 
L 2.296875 54.6875 
L 10.890625 54.6875 
L 10.890625 58.5 
Q 10.890625 67.625 15.140625 71.796875 
Q 19.390625 75.984375 28.609375 75.984375 
z
" id="DejaVuSans-66"/>
      <path d="M 31 75.875 
Q 24.46875 64.65625 21.28125 53.65625 
Q 18.109375 42.671875 18.109375 31.390625 
Q 18.109375 20.125 21.3125 9.0625 
Q 24.515625 -2 31 -13.1875 
L 23.1875 -13.1875 
Q 15.875 -1.703125 12.234375 9.375 
Q 8.59375 20.453125 8.59375 31.390625 
Q 8.59375 42.28125 12.203125 53.3125 
Q 15.828125 64.359375 23.1875 75.875 
z
" id="DejaVuSans-28"/>
      <path d="M 51.125 44 
L 36.921875 44 
L 32.8125 27.6875 
L 47.125 27.6875 
z
M 43.796875 71.78125 
L 38.71875 51.515625 
L 52.984375 51.515625 
L 58.109375 71.78125 
L 65.921875 71.78125 
L 60.890625 51.515625 
L 76.125 51.515625 
L 76.125 44 
L 58.984375 44 
L 54.984375 27.6875 
L 70.515625 27.6875 
L 70.515625 20.21875 
L 53.078125 20.21875 
L 48 0 
L 40.1875 0 
L 45.21875 20.21875 
L 30.90625 20.21875 
L 25.875 0 
L 18.015625 0 
L 23.09375 20.21875 
L 7.71875 20.21875 
L 7.71875 27.6875 
L 24.90625 27.6875 
L 29 44 
L 13.28125 44 
L 13.28125 51.515625 
L 30.90625 51.515625 
L 35.890625 71.78125 
z
" id="DejaVuSans-23"/>
      <path d="M 4.890625 31.390625 
L 31.203125 31.390625 
L 31.203125 23.390625 
L 4.890625 23.390625 
z
" id="DejaVuSans-2d"/>
      <path d="M 56.203125 29.59375 
L 56.203125 25.203125 
L 14.890625 25.203125 
Q 15.484375 15.921875 20.484375 11.0625 
Q 25.484375 6.203125 34.421875 6.203125 
Q 39.59375 6.203125 44.453125 7.46875 
Q 49.3125 8.734375 54.109375 11.28125 
L 54.109375 2.78125 
Q 49.265625 0.734375 44.1875 -0.34375 
Q 39.109375 -1.421875 33.890625 -1.421875 
Q 20.796875 -1.421875 13.15625 6.1875 
Q 5.515625 13.8125 5.515625 26.8125 
Q 5.515625 40.234375 12.765625 48.109375 
Q 20.015625 56 32.328125 56 
Q 43.359375 56 49.78125 48.890625 
Q 56.203125 41.796875 56.203125 29.59375 
M 47.21875 32.234375 
Q 47.125 39.59375 43.09375 43.984375 
Q 39.0625 48.390625 32.421875 48.390625 
Q 24.90625 48.390625 20.390625 44.140625 
Q 15.875 39.890625 15.1875 32.171875 
z
" id="DejaVuSans-65"/>
      <path d="M 2.984375 54.6875 
L 12.5 54.6875 
L 29.59375 8.796875 
L 46.6875 54.6875 
L 56.203125 54.6875 
L 35.6875 0 
L 23.484375 0 
z
" id="DejaVuSans-76"/>
      <path d="M 34.28125 27.484375 
Q 23.390625 27.484375 19.1875 25 
Q 14.984375 22.515625 14.984375 16.5 
Q 14.984375 11.71875 18.140625 8.90625 
Q 21.296875 6.109375 26.703125 6.109375 
Q 34.1875 6.109375 38.703125 11.40625 
Q 43.21875 16.703125 43.21875 25.484375 
L 43.21875 27.484375 
z
M 52.203125 31.203125 
L 52.203125 0 
L 43.21875 0 
L 43.21875 8.296875 
Q 40.140625 3.328125 35.546875 0.953125 
Q 30.953125 -1.421875 24.3125 -1.421875 
Q 15.921875 -1.421875 10.953125 3.296875 
Q 6 8.015625 6 15.921875 
Q 6 25.140625 12.171875 29.828125 
Q 18.359375 34.515625 30.609375 34.515625 
L 43.21875 34.515625 
L 43.21875 35.40625 
Q 43.21875 41.609375 39.140625 45 
Q 35.0625 48.390625 27.6875 48.390625 
Q 23 48.390625 18.546875 47.265625 
Q 14.109375 46.140625 10.015625 43.890625 
L 10.015625 52.203125 
Q 14.9375 54.109375 19.578125 55.046875 
Q 24.21875 56 28.609375 56 
Q 40.484375 56 46.34375 49.84375 
Q 52.203125 43.703125 52.203125 31.203125 
" id="DejaVuSans-61"/>
      <path d="M 44.28125 53.078125 
L 44.28125 44.578125 
Q 40.484375 46.53125 36.375 47.5 
Q 32.28125 48.484375 27.875 48.484375 
Q 21.1875 48.484375 17.84375 46.4375 
Q 14.5 44.390625 14.5 40.28125 
Q 14.5 37.15625 16.890625 35.375 
Q 19.28125 33.59375 26.515625 31.984375 
L 29.59375 31.296875 
Q 39.15625 29.25 43.1875 25.515625 
Q 47.21875 21.78125 47.21875 15.09375 
Q 47.21875 7.46875 41.1875 3.015625 
Q 35.15625 -1.421875 24.609375 -1.421875 
Q 20.21875 -1.421875 15.453125 -0.5625 
Q 10.6875 0.296875 5.421875 2 
L 5.421875 11.28125 
Q 10.40625 8.6875 15.234375 7.390625 
Q 20.0625 6.109375 24.8125 6.109375 
Q 31.15625 6.109375 34.5625 8.28125 
Q 37.984375 10.453125 37.984375 14.40625 
Q 37.984375 18.0625 35.515625 20.015625 
Q 33.0625 21.96875 24.703125 23.78125 
L 21.578125 24.515625 
Q 13.234375 26.265625 9.515625 29.90625 
Q 5.8125 33.546875 5.8125 39.890625 
Q 5.8125 47.609375 11.28125 51.796875 
Q 16.75 56 26.8125 56 
Q 31.78125 56 36.171875 55.265625 
Q 40.578125 54.546875 44.28125 53.078125 
" id="DejaVuSans-73"/>
      <path d="M 25.390625 72.90625 
L 33.6875 72.90625 
L 8.296875 -9.28125 
L 0 -9.28125 
z
" id="DejaVuSans-2f"/>
      <path d="M 45.40625 46.390625 
L 45.40625 75.984375 
L 54.390625 75.984375 
L 54.390625 0 
L 45.40625 0 
L 45.40625 8.203125 
Q 42.578125 3.328125 38.25 0.953125 
Q 33.9375 -1.421875 27.875 -1.421875 
Q 17.96875 -1.421875 11.734375 6.484375 
Q 5.515625 14.40625 5.515625 27.296875 
Q 5.515625 40.1875 11.734375 48.09375 
Q 17.96875 56 27.875 56 
Q 33.9375 56 38.25 53.625 
Q 42.578125 51.265625 45.40625 46.390625 
M 14.796875 27.296875 
Q 14.796875 17.390625 18.875 11.75 
Q 22.953125 6.109375 30.078125 6.109375 
Q 37.203125 6.109375 41.296875 11.75 
Q 45.40625 17.390625 45.40625 27.296875 
Q 45.40625 37.203125 41.296875 42.84375 
Q 37.203125 48.484375 30.078125 48.484375 
Q 22.953125 48.484375 18.875 42.84375 
Q 14.796875 37.203125 14.796875 27.296875 
" id="DejaVuSans-64"/>
      <path d="M 9.421875 54.6875 
L 18.40625 54.6875 
L 18.40625 0 
L 9.421875 0 
z
M 9.421875 75.984375 
L 18.40625 75.984375 
L 18.40625 64.59375 
L 9.421875 64.59375 
z
" id="DejaVuSans-69"/>
      <path d="M 52 44.1875 
Q 55.375 50.25 60.0625 53.125 
Q 64.75 56 71.09375 56 
Q 79.640625 56 84.28125 50.015625 
Q 88.921875 44.046875 88.921875 33.015625 
L 88.921875 0 
L 79.890625 0 
L 79.890625 32.71875 
Q 79.890625 40.578125 77.09375 44.375 
Q 74.3125 48.1875 68.609375 48.1875 
Q 61.625 48.1875 57.5625 43.546875 
Q 53.515625 38.921875 53.515625 30.90625 
L 53.515625 0 
L 44.484375 0 
L 44.484375 32.71875 
Q 44.484375 40.625 41.703125 44.40625 
Q 38.921875 48.1875 33.109375 48.1875 
Q 26.21875 48.1875 22.15625 43.53125 
Q 18.109375 38.875 18.109375 30.90625 
L 18.109375 0 
L 9.078125 0 
L 9.078125 54.6875 
L 18.109375 54.6875 
L 18.109375 46.1875 
Q 21.1875 51.21875 25.484375 53.609375 
Q 29.78125 56 35.6875 56 
Q 41.65625 56 45.828125 52.96875 
Q 50 49.953125 52 44.1875 
" id="DejaVuSans-6d"/>
      <path d="M 54.890625 33.015625 
L 54.890625 0 
L 45.90625 0 
L 45.90625 32.71875 
Q 45.90625 40.484375 42.875 44.328125 
Q 39.84375 48.1875 33.796875 48.1875 
Q 26.515625 48.1875 22.3125 43.546875 
Q 18.109375 38.921875 18.109375 30.90625 
L 18.109375 0 
L 9.078125 0 
L 9.078125 54.6875 
L 18.109375 54.6875 
L 18.109375 46.1875 
Q 21.34375 51.125 25.703125 53.5625 
Q 30.078125 56 35.796875 56 
Q 45.21875 56 50.046875 50.171875 
Q 54.890625 44.34375 54.890625 33.015625 
" id="DejaVuSans-6e"/>
      <path d="M 8.015625 75.875 
L 15.828125 75.875 
Q 23.140625 64.359375 26.78125 53.3125 
Q 30.421875 42.28125 30.421875 31.390625 
Q 30.421875 20.453125 26.78125 9.375 
Q 23.140625 -1.703125 15.828125 -13.1875 
L 8.015625 -13.1875 
Q 14.5 -2 17.703125 9.0625 
Q 20.90625 20.125 20.90625 31.390625 
Q 20.90625 42.671875 17.703125 53.65625 
Q 14.5 64.65625 8.015625 75.875 
" id="DejaVuSans-29"/>
     </defs>
     <g transform="translate(107.015156 342.278812)scale(0.18 -0.18)">
      <use xlink:href="#DejaVuSans-6c"/>
      <use x="27.783203" xlink:href="#DejaVuSans-6f"/>
      <use x="88.964844" xlink:href="#DejaVuSans-67"/>
      <use x="152.441406" xlink:href="#DejaVuSans-31"/>
      <use x="216.064453" xlink:href="#DejaVuSans-30"/>
      <use x="279.6875" xlink:href="#DejaVuSans-20"/>
      <use x="311.474609" xlink:href="#DejaVuSans-6f"/>
      <use x="372.65625" xlink:href="#DejaVuSans-66"/>
      <use x="407.861328" xlink:href="#DejaVuSans-20"/>
      <use x="439.648438" xlink:href="#DejaVuSans-28"/>
      <use x="478.662109" xlink:href="#DejaVuSans-23"/>
      <use x="562.451172" xlink:href="#DejaVuSans-20"/>
      <use x="594.238281" xlink:href="#DejaVuSans-66"/>
      <use x="629.365234" xlink:href="#DejaVuSans-2d"/>
      <use x="665.449219" xlink:href="#DejaVuSans-65"/>
      <use x="726.972656" xlink:href="#DejaVuSans-76"/>
      <use x="786.152344" xlink:href="#DejaVuSans-61"/>
      <use x="847.431641" xlink:href="#DejaVuSans-6c"/>
      <use x="875.214844" xlink:href="#DejaVuSans-73"/>
      <use x="927.314453" xlink:href="#DejaVuSans-20"/>
      <use x="959.101562" xlink:href="#DejaVuSans-2f"/>
      <use x="992.792969" xlink:href="#DejaVuSans-20"/>
      <use x="1024.580078" xlink:href="#DejaVuSans-64"/>
      <use x="1088.056641" xlink:href="#DejaVuSans-69"/>
      <use x="1115.839844" xlink:href="#DejaVuSans-6d"/>
      <use x="1213.251953" xlink:href="#DejaVuSans-65"/>
      <use x="1274.775391" xlink:href="#DejaVuSans-6e"/>
      <use x="1338.154297" xlink:href="#DejaVuSans-73"/>
      <use x="1390.253906" xlink:href="#DejaVuSans-69"/>
      <use x="1418.037109" xlink:href="#DejaVuSans-6f"/>
      <use x="1479.21875" xlink:href="#DejaVuSans-6e"/>
      <use x="1542.597656" xlink:href="#DejaVuSans-29"/>
     </g>
    </g>
   </g>
   <g id="matplotlib.axis_2">
    <g id="ytick_1">
     <g id="line2d_32">
      <path clip-path="url(#pc53f261386)" d="M 70.8 298.245375 
L 427.92 298.245375 
" style="fill:none;stroke:#b0b0b0;stroke-linecap:square;stroke-width:0.8;"/>
     </g>
     <g id="line2d_33">
      <defs>
       <path d="M 0 0 
L -3.5 0 
" id="m05d7d5ff09" style="stroke:#000000;stroke-width:0.8;"/>
      </defs>
      <g>
       <use style="stroke:#000000;stroke-width:0.8;" x="70.8" xlink:href="#m05d7d5ff09" y="298.245375"/>
      </g>
     </g>
     <g id="text_7">
      <!-- 0.0 -->
      <defs>
       <path d="M 10.6875 12.40625 
L 21 12.40625 
L 21 0 
L 10.6875 0 
z
" id="DejaVuSans-2e"/>
      </defs>
      <g transform="translate(31.99375 305.843812)scale(0.2 -0.2)">
       <use xlink:href="#DejaVuSans-30"/>
       <use x="63.623047" xlink:href="#DejaVuSans-2e"/>
       <use x="95.410156" xlink:href="#DejaVuSans-30"/>
      </g>
     </g>
    </g>
    <g id="ytick_2">
     <g id="line2d_34">
      <path clip-path="url(#pc53f261386)" d="M 70.8 245.549929 
L 427.92 245.549929 
" style="fill:none;stroke:#b0b0b0;stroke-linecap:square;stroke-width:0.8;"/>
     </g>
     <g id="line2d_35">
      <g>
       <use style="stroke:#000000;stroke-width:0.8;" x="70.8" xlink:href="#m05d7d5ff09" y="245.549929"/>
      </g>
     </g>
     <g id="text_8">
      <!-- 0.2 -->
      <g transform="translate(31.99375 253.148367)scale(0.2 -0.2)">
       <use xlink:href="#DejaVuSans-30"/>
       <use x="63.623047" xlink:href="#DejaVuSans-2e"/>
       <use x="95.410156" xlink:href="#DejaVuSans-32"/>
      </g>
     </g>
    </g>
    <g id="ytick_3">
     <g id="line2d_36">
      <path clip-path="url(#pc53f261386)" d="M 70.8 192.854484 
L 427.92 192.854484 
" style="fill:none;stroke:#b0b0b0;stroke-linecap:square;stroke-width:0.8;"/>
     </g>
     <g id="line2d_37">
      <g>
       <use style="stroke:#000000;stroke-width:0.8;" x="70.8" xlink:href="#m05d7d5ff09" y="192.854484"/>
      </g>
     </g>
     <g id="text_9">
      <!-- 0.4 -->
      <g transform="translate(31.99375 200.452921)scale(0.2 -0.2)">
       <use xlink:href="#DejaVuSans-30"/>
       <use x="63.623047" xlink:href="#DejaVuSans-2e"/>
       <use x="95.410156" xlink:href="#DejaVuSans-34"/>
      </g>
     </g>
    </g>
    <g id="ytick_4">
     <g id="line2d_38">
      <path clip-path="url(#pc53f261386)" d="M 70.8 140.159038 
L 427.92 140.159038 
" style="fill:none;stroke:#b0b0b0;stroke-linecap:square;stroke-width:0.8;"/>
     </g>
     <g id="line2d_39">
      <g>
       <use style="stroke:#000000;stroke-width:0.8;" x="70.8" xlink:href="#m05d7d5ff09" y="140.159038"/>
      </g>
     </g>
     <g id="text_10">
      <!-- 0.6 -->
      <g transform="translate(31.99375 147.757476)scale(0.2 -0.2)">
       <use xlink:href="#DejaVuSans-30"/>
       <use x="63.623047" xlink:href="#DejaVuSans-2e"/>
       <use x="95.410156" xlink:href="#DejaVuSans-36"/>
      </g>
     </g>
    </g>
    <g id="ytick_5">
     <g id="line2d_40">
      <path clip-path="url(#pc53f261386)" d="M 70.8 87.463593 
L 427.92 87.463593 
" style="fill:none;stroke:#b0b0b0;stroke-linecap:square;stroke-width:0.8;"/>
     </g>
     <g id="line2d_41">
      <g>
       <use style="stroke:#000000;stroke-width:0.8;" x="70.8" xlink:href="#m05d7d5ff09" y="87.463593"/>
      </g>
     </g>
     <g id="text_11">
      <!-- 0.8 -->
      <g transform="translate(31.99375 95.06203)scale(0.2 -0.2)">
       <use xlink:href="#DejaVuSans-30"/>
       <use x="63.623047" xlink:href="#DejaVuSans-2e"/>
       <use x="95.410156" xlink:href="#DejaVuSans-38"/>
      </g>
     </g>
    </g>
    <g id="ytick_6">
     <g id="line2d_42">
      <path clip-path="url(#pc53f261386)" d="M 70.8 34.768147 
L 427.92 34.768147 
" style="fill:none;stroke:#b0b0b0;stroke-linecap:square;stroke-width:0.8;"/>
     </g>
     <g id="line2d_43">
      <g>
       <use style="stroke:#000000;stroke-width:0.8;" x="70.8" xlink:href="#m05d7d5ff09" y="34.768147"/>
      </g>
     </g>
     <g id="text_12">
      <!-- 1.0 -->
      <g transform="translate(31.99375 42.366585)scale(0.2 -0.2)">
       <use xlink:href="#DejaVuSans-31"/>
       <use x="63.623047" xlink:href="#DejaVuSans-2e"/>
       <use x="95.410156" xlink:href="#DejaVuSans-30"/>
      </g>
     </g>
    </g>
    <g id="text_13">
     <!-- Proportion of function+target pairs -->
     <defs>
      <path d="M 19.671875 64.796875 
L 19.671875 37.40625 
L 32.078125 37.40625 
Q 38.96875 37.40625 42.71875 40.96875 
Q 46.484375 44.53125 46.484375 51.125 
Q 46.484375 57.671875 42.71875 61.234375 
Q 38.96875 64.796875 32.078125 64.796875 
z
M 9.8125 72.90625 
L 32.078125 72.90625 
Q 44.34375 72.90625 50.609375 67.359375 
Q 56.890625 61.8125 56.890625 51.125 
Q 56.890625 40.328125 50.609375 34.8125 
Q 44.34375 29.296875 32.078125 29.296875 
L 19.671875 29.296875 
L 19.671875 0 
L 9.8125 0 
z
" id="DejaVuSans-50"/>
      <path d="M 41.109375 46.296875 
Q 39.59375 47.171875 37.8125 47.578125 
Q 36.03125 48 33.890625 48 
Q 26.265625 48 22.1875 43.046875 
Q 18.109375 38.09375 18.109375 28.8125 
L 18.109375 0 
L 9.078125 0 
L 9.078125 54.6875 
L 18.109375 54.6875 
L 18.109375 46.1875 
Q 20.953125 51.171875 25.484375 53.578125 
Q 30.03125 56 36.53125 56 
Q 37.453125 56 38.578125 55.875 
Q 39.703125 55.765625 41.0625 55.515625 
z
" id="DejaVuSans-72"/>
      <path d="M 18.109375 8.203125 
L 18.109375 -20.796875 
L 9.078125 -20.796875 
L 9.078125 54.6875 
L 18.109375 54.6875 
L 18.109375 46.390625 
Q 20.953125 51.265625 25.265625 53.625 
Q 29.59375 56 35.59375 56 
Q 45.5625 56 51.78125 48.09375 
Q 58.015625 40.1875 58.015625 27.296875 
Q 58.015625 14.40625 51.78125 6.484375 
Q 45.5625 -1.421875 35.59375 -1.421875 
Q 29.59375 -1.421875 25.265625 0.953125 
Q 20.953125 3.328125 18.109375 8.203125 
M 48.6875 27.296875 
Q 48.6875 37.203125 44.609375 42.84375 
Q 40.53125 48.484375 33.40625 48.484375 
Q 26.265625 48.484375 22.1875 42.84375 
Q 18.109375 37.203125 18.109375 27.296875 
Q 18.109375 17.390625 22.1875 11.75 
Q 26.265625 6.109375 33.40625 6.109375 
Q 40.53125 6.109375 44.609375 11.75 
Q 48.6875 17.390625 48.6875 27.296875 
" id="DejaVuSans-70"/>
      <path d="M 18.3125 70.21875 
L 18.3125 54.6875 
L 36.8125 54.6875 
L 36.8125 47.703125 
L 18.3125 47.703125 
L 18.3125 18.015625 
Q 18.3125 11.328125 20.140625 9.421875 
Q 21.96875 7.515625 27.59375 7.515625 
L 36.8125 7.515625 
L 36.8125 0 
L 27.59375 0 
Q 17.1875 0 13.234375 3.875 
Q 9.28125 7.765625 9.28125 18.015625 
L 9.28125 47.703125 
L 2.6875 47.703125 
L 2.6875 54.6875 
L 9.28125 54.6875 
L 9.28125 70.21875 
z
" id="DejaVuSans-74"/>
      <path d="M 8.5 21.578125 
L 8.5 54.6875 
L 17.484375 54.6875 
L 17.484375 21.921875 
Q 17.484375 14.15625 20.5 10.265625 
Q 23.53125 6.390625 29.59375 6.390625 
Q 36.859375 6.390625 41.078125 11.03125 
Q 45.3125 15.671875 45.3125 23.6875 
L 45.3125 54.6875 
L 54.296875 54.6875 
L 54.296875 0 
L 45.3125 0 
L 45.3125 8.40625 
Q 42.046875 3.421875 37.71875 1 
Q 33.40625 -1.421875 27.6875 -1.421875 
Q 18.265625 -1.421875 13.375 4.4375 
Q 8.5 10.296875 8.5 21.578125 
M 31.109375 56 
z
" id="DejaVuSans-75"/>
      <path d="M 48.78125 52.59375 
L 48.78125 44.1875 
Q 44.96875 46.296875 41.140625 47.34375 
Q 37.3125 48.390625 33.40625 48.390625 
Q 24.65625 48.390625 19.8125 42.84375 
Q 14.984375 37.3125 14.984375 27.296875 
Q 14.984375 17.28125 19.8125 11.734375 
Q 24.65625 6.203125 33.40625 6.203125 
Q 37.3125 6.203125 41.140625 7.25 
Q 44.96875 8.296875 48.78125 10.40625 
L 48.78125 2.09375 
Q 45.015625 0.34375 40.984375 -0.53125 
Q 36.96875 -1.421875 32.421875 -1.421875 
Q 20.0625 -1.421875 12.78125 6.34375 
Q 5.515625 14.109375 5.515625 27.296875 
Q 5.515625 40.671875 12.859375 48.328125 
Q 20.21875 56 33.015625 56 
Q 37.15625 56 41.109375 55.140625 
Q 45.0625 54.296875 48.78125 52.59375 
" id="DejaVuSans-63"/>
      <path d="M 46 62.703125 
L 46 35.5 
L 73.1875 35.5 
L 73.1875 27.203125 
L 46 27.203125 
L 46 0 
L 37.796875 0 
L 37.796875 27.203125 
L 10.59375 27.203125 
L 10.59375 35.5 
L 37.796875 35.5 
L 37.796875 62.703125 
z
" id="DejaVuSans-2b"/>
     </defs>
     <g transform="translate(24.250312 323.17875)rotate(-90)scale(0.18 -0.18)">
      <use xlink:href="#DejaVuSans-50"/>
      <use x="60.287109" xlink:href="#DejaVuSans-72"/>
      <use x="101.369141" xlink:href="#DejaVuSans-6f"/>
      <use x="162.550781" xlink:href="#DejaVuSans-70"/>
      <use x="226.027344" xlink:href="#DejaVuSans-6f"/>
      <use x="287.208984" xlink:href="#DejaVuSans-72"/>
      <use x="328.322266" xlink:href="#DejaVuSans-74"/>
      <use x="367.53125" xlink:href="#DejaVuSans-69"/>
      <use x="395.314453" xlink:href="#DejaVuSans-6f"/>
      <use x="456.496094" xlink:href="#DejaVuSans-6e"/>
      <use x="519.875" xlink:href="#DejaVuSans-20"/>
      <use x="551.662109" xlink:href="#DejaVuSans-6f"/>
      <use x="612.84375" xlink:href="#DejaVuSans-66"/>
      <use x="648.048828" xlink:href="#DejaVuSans-20"/>
      <use x="679.835938" xlink:href="#DejaVuSans-66"/>
      <use x="715.041016" xlink:href="#DejaVuSans-75"/>
      <use x="778.419922" xlink:href="#DejaVuSans-6e"/>
      <use x="841.798828" xlink:href="#DejaVuSans-63"/>
      <use x="896.779297" xlink:href="#DejaVuSans-74"/>
      <use x="935.988281" xlink:href="#DejaVuSans-69"/>
      <use x="963.771484" xlink:href="#DejaVuSans-6f"/>
      <use x="1024.953125" xlink:href="#DejaVuSans-6e"/>
      <use x="1088.332031" xlink:href="#DejaVuSans-2b"/>
      <use x="1172.121094" xlink:href="#DejaVuSans-74"/>
      <use x="1211.330078" xlink:href="#DejaVuSans-61"/>
      <use x="1272.609375" xlink:href="#DejaVuSans-72"/>
      <use x="1313.707031" xlink:href="#DejaVuSans-67"/>
      <use x="1377.183594" xlink:href="#DejaVuSans-65"/>
      <use x="1438.707031" xlink:href="#DejaVuSans-74"/>
      <use x="1477.916016" xlink:href="#DejaVuSans-20"/>
      <use x="1509.703125" xlink:href="#DejaVuSans-70"/>
      <use x="1573.179688" xlink:href="#DejaVuSans-61"/>
      <use x="1634.458984" xlink:href="#DejaVuSans-69"/>
      <use x="1662.242188" xlink:href="#DejaVuSans-72"/>
      <use x="1703.355469" xlink:href="#DejaVuSans-73"/>
     </g>
    </g>
   </g>
   <g id="line2d_44">
    <defs>
     <path d="M 0 1.5 
C 0.397805 1.5 0.77937 1.341951 1.06066 1.06066 
C 1.341951 0.77937 1.5 0.397805 1.5 0 
C 1.5 -0.397805 1.341951 -0.77937 1.06066 -1.06066 
C 0.77937 -1.341951 0.397805 -1.5 0 -1.5 
C -0.397805 -1.5 -0.77937 -1.341951 -1.06066 -1.06066 
C -1.341951 -0.77937 -1.5 -0.397805 -1.5 0 
C -1.5 0.397805 -1.341951 0.77937 -1.06066 1.06066 
C -0.77937 1.341951 -0.397805 1.5 0 1.5 
z
" id="m5752c02f99" style="stroke:#f5deb3;"/>
    </defs>
    <g>
     <use style="fill:#f5deb3;stroke:#f5deb3;" x="204.430648" xlink:href="#m5752c02f99" y="34.768147"/>
     <use style="fill:#f5deb3;stroke:#f5deb3;" x="204.430648" xlink:href="#m5752c02f99" y="34.768147"/>
    </g>
   </g>
   <g id="line2d_45">
    <g>
     <use style="fill:#f5deb3;stroke:#f5deb3;stroke-linejoin:miter;stroke-width:1.5;" x="167.866951" xlink:href="#m0ed2adfc8e" y="249.166284"/>
     <use style="fill:#f5deb3;stroke:#f5deb3;stroke-linejoin:miter;stroke-width:1.5;" x="175.708575" xlink:href="#m0ed2adfc8e" y="117.42767"/>
     <use style="fill:#f5deb3;stroke:#f5deb3;stroke-linejoin:miter;stroke-width:1.5;" x="204.017303" xlink:href="#m0ed2adfc8e" y="39.934367"/>
     <use style="fill:#f5deb3;stroke:#f5deb3;stroke-linejoin:miter;stroke-width:1.5;" x="204.430648" xlink:href="#m0ed2adfc8e" y="34.768147"/>
     <use style="fill:#f5deb3;stroke:#f5deb3;stroke-linejoin:miter;stroke-width:1.5;" x="358.8" xlink:href="#m0ed2adfc8e" y="34.768147"/>
    </g>
   </g>
   <g id="line2d_46">
    <defs>
     <path d="M 0 1.5 
C 0.397805 1.5 0.77937 1.341951 1.06066 1.06066 
C 1.341951 0.77937 1.5 0.397805 1.5 0 
C 1.5 -0.397805 1.341951 -0.77937 1.06066 -1.06066 
C 0.77937 -1.341951 0.397805 -1.5 0 -1.5 
C -0.397805 -1.5 -0.77937 -1.341951 -1.06066 -1.06066 
C -1.341951 -0.77937 -1.5 -0.397805 -1.5 0 
C -1.5 0.397805 -1.341951 0.77937 -1.06066 1.06066 
C -0.77937 1.341951 -0.397805 1.5 0 1.5 
z
" id="m2f33aa04c3" style="stroke:#ff00ff;"/>
    </defs>
    <g>
     <use style="fill:#ff00ff;stroke:#ff00ff;" x="287.996843" xlink:href="#m2f33aa04c3" y="198.795637"/>
     <use style="fill:#ff00ff;stroke:#ff00ff;" x="287.996843" xlink:href="#m2f33aa04c3" y="198.795637"/>
    </g>
   </g>
   <g id="line2d_47">
    <path d="M 138.956323 298.245375 
L 138.956323 298.116219 
L 139.39417 298.116219 
L 139.39417 297.987064 
L 140.017539 297.987064 
L 140.119352 297.728753 
L 140.887117 297.728753 
L 140.887117 297.599597 
L 141.219964 297.599597 
L 141.263302 297.341286 
L 141.332424 297.341286 
L 141.332424 297.082975 
L 141.657153 297.082975 
L 141.657153 296.824664 
L 142.411614 296.824664 
L 142.460256 296.437198 
L 142.789151 296.437198 
L 142.789151 296.308042 
L 144.002837 296.308042 
L 144.039931 296.049731 
L 144.471921 296.049731 
L 144.471921 295.920576 
L 144.673335 295.920576 
L 144.673335 295.79142 
L 145.125359 295.79142 
L 145.125359 295.662265 
L 145.769201 295.662265 
L 145.769201 295.533109 
L 145.943264 295.533109 
L 145.943264 295.403954 
L 146.494307 295.403954 
L 146.494307 295.274798 
L 146.928268 295.274798 
L 146.928268 295.145643 
L 147.358096 295.145643 
L 147.358096 294.887332 
L 147.517415 294.887332 
L 147.5418 294.499865 
L 148.199669 294.499865 
L 148.199669 294.37071 
L 148.58307 294.37071 
L 148.58307 294.241554 
L 148.805818 294.241554 
L 148.834175 293.854088 
L 148.924618 293.854088 
L 149.031428 293.595777 
L 149.403058 293.595777 
L 149.403058 293.466621 
L 150.390793 293.466621 
L 150.390793 293.337466 
L 150.715069 293.337466 
L 150.73546 292.949999 
L 151.385828 292.949999 
L 151.488701 292.691688 
L 152.65165 292.691688 
L 152.65165 292.562533 
L 152.942195 292.562533 
L 152.942195 292.433377 
L 153.116956 292.433377 
L 153.116956 292.175066 
L 153.263508 292.175066 
L 153.263508 292.045911 
L 153.906378 292.045911 
L 153.906378 291.7876 
L 154.518675 291.7876 
L 154.518675 291.658444 
L 154.804964 291.658444 
L 154.804964 291.400133 
L 156.328561 291.400133 
L 156.328561 291.270978 
L 156.75559 291.270978 
L 156.75559 291.141822 
L 157.012014 291.141822 
L 157.029934 290.496045 
L 157.55239 290.496045 
L 157.55239 290.366889 
L 158.378395 290.366889 
L 158.46786 290.108578 
L 158.504181 290.108578 
L 158.504181 289.850267 
L 158.665082 289.850267 
L 158.665082 289.721112 
L 159.136087 289.721112 
L 159.136087 289.591956 
L 159.486052 289.591956 
L 159.486052 289.462801 
L 159.804774 289.462801 
L 159.866009 289.20449 
L 160.21409 289.20449 
L 160.21409 289.075334 
L 160.878999 289.075334 
L 160.985538 288.687868 
L 161.298572 288.687868 
L 161.298572 288.558712 
L 161.556236 288.558712 
L 161.556236 288.429557 
L 161.859513 288.429557 
L 161.892289 288.171246 
L 162.517046 288.171246 
L 162.517046 288.04209 
L 162.783817 288.04209 
L 162.783817 287.912935 
L 163.578425 287.912935 
L 163.68241 287.654624 
L 163.829919 287.654624 
L 163.829919 287.525468 
L 164.142998 287.525468 
L 164.238973 287.267157 
L 164.559135 287.267157 
L 164.613114 286.879691 
L 165.148667 286.879691 
L 165.148667 286.750535 
L 165.30039 286.750535 
L 165.30039 286.62138 
L 165.628828 286.62138 
L 165.637682 286.233913 
L 165.851041 286.233913 
L 165.851041 286.104758 
L 166.509997 286.104758 
L 166.537371 285.846447 
L 166.742393 285.846447 
L 166.742393 285.717291 
L 167.307473 285.717291 
L 167.307473 285.588136 
L 167.437993 285.588136 
L 167.527797 285.329825 
L 167.814136 285.329825 
L 167.814136 285.071514 
L 168.264852 285.071514 
L 168.264852 284.942358 
L 168.976376 284.942358 
L 168.976376 284.813203 
L 169.648276 284.813203 
L 169.648276 284.684047 
L 169.927184 284.684047 
L 170.008801 284.296581 
L 170.114177 284.296581 
L 170.114177 284.167425 
L 170.480707 284.167425 
L 170.480707 284.03827 
L 170.600114 284.03827 
L 170.600114 283.909114 
L 170.892713 283.909114 
L 170.892713 283.779959 
L 171.135108 283.779959 
L 171.135108 283.650803 
L 171.772666 283.650803 
L 171.88221 283.134181 
L 171.907155 283.134181 
L 171.907155 283.005026 
L 172.133179 283.005026 
L 172.133179 282.746715 
L 172.275678 282.746715 
L 172.329013 282.230093 
L 172.790142 282.230093 
L 172.790142 281.971782 
L 173.173029 281.971782 
L 173.173029 281.713471 
L 173.357848 281.713471 
L 173.419509 281.45516 
L 173.959535 281.45516 
L 173.959535 281.326004 
L 174.428332 281.326004 
L 174.428332 281.196849 
L 174.97066 281.196849 
L 175.060992 280.680226 
L 175.326708 280.680226 
L 175.415263 280.29276 
L 175.625261 280.29276 
L 175.64423 279.905293 
L 175.913929 279.905293 
L 176.024391 279.646982 
L 176.409956 279.646982 
L 176.409956 279.517827 
L 177.499756 279.517827 
L 177.499756 279.259516 
L 177.638207 279.259516 
L 177.638207 279.001205 
L 177.928625 279.001205 
L 177.928625 278.872049 
L 178.073737 278.872049 
L 178.127714 278.355427 
L 178.193588 278.355427 
L 178.237369 277.838805 
L 178.388679 277.838805 
L 178.388679 277.70965 
L 178.531193 277.70965 
L 178.531193 277.580494 
L 178.865704 277.580494 
L 178.865704 277.322183 
L 179.282958 277.322183 
L 179.287082 277.063872 
L 179.528713 277.063872 
L 179.528713 276.934717 
L 179.889128 276.934717 
L 179.889128 276.805561 
L 180.018226 276.805561 
L 180.018226 276.676406 
L 180.298027 276.676406 
L 180.298027 276.030628 
L 180.566798 276.030628 
L 180.566798 275.901473 
L 181.191928 275.901473 
L 181.191928 275.384851 
L 181.33773 275.384851 
L 181.37262 274.997384 
L 181.608624 274.997384 
L 181.608624 274.739073 
L 181.998118 274.739073 
L 181.998118 274.480762 
L 182.925744 274.480762 
L 182.973611 274.093296 
L 183.291134 274.093296 
L 183.291134 273.834985 
L 183.552035 273.834985 
L 183.552035 273.576674 
L 184.346834 273.576674 
L 184.346834 273.447518 
L 184.524566 273.447518 
L 184.524566 273.189207 
L 184.737057 273.189207 
L 184.737057 273.060052 
L 184.974814 273.060052 
L 185.0571 272.801741 
L 185.123401 272.801741 
L 185.123401 272.672585 
L 185.563342 272.672585 
L 185.563342 272.54343 
L 185.906093 272.54343 
L 185.939512 272.285119 
L 186.394699 272.285119 
L 186.394699 272.026808 
L 186.507223 272.026808 
L 186.507223 271.897652 
L 186.692067 271.897652 
L 186.692067 271.768497 
L 186.96848 271.768497 
L 186.96848 271.510186 
L 187.09478 271.510186 
L 187.200346 271.122719 
L 187.471672 271.122719 
L 187.471672 270.993564 
L 188.037046 270.993564 
L 188.038941 270.735253 
L 188.534159 270.735253 
L 188.534159 270.606097 
L 188.950118 270.606097 
L 188.950118 270.476942 
L 189.513749 270.476942 
L 189.513749 270.347786 
L 189.653942 270.347786 
L 189.69947 269.96032 
L 189.782734 269.96032 
L 189.782734 269.702009 
L 189.927661 269.702009 
L 190.026833 269.443698 
L 190.439654 269.443698 
L 190.439654 269.314542 
L 190.742993 269.314542 
L 190.742993 269.185387 
L 190.949195 269.185387 
L 190.949195 268.927076 
L 191.227175 268.927076 
L 191.234572 268.539609 
L 192.053236 268.539609 
L 192.100096 268.281298 
L 192.629116 268.281298 
L 192.629116 268.152143 
L 193.297474 268.152143 
L 193.309706 267.893832 
L 193.468422 267.893832 
L 193.515438 267.635521 
L 193.721126 267.635521 
L 193.721126 267.37721 
L 194.335016 267.37721 
L 194.335016 266.989743 
L 194.647106 266.989743 
L 194.74632 266.731432 
L 194.837217 266.731432 
L 194.837217 266.473121 
L 195.247378 266.473121 
L 195.350037 266.085655 
L 195.77496 266.085655 
L 195.77496 265.827344 
L 196.071141 265.827344 
L 196.071141 265.569033 
L 196.257131 265.569033 
L 196.257131 265.439877 
L 196.37121 265.439877 
L 196.415137 265.052411 
L 196.618322 265.052411 
L 196.618322 264.664944 
L 197.238168 264.664944 
L 197.283782 264.277478 
L 197.517928 264.277478 
L 197.56617 264.019166 
L 197.661896 264.019166 
L 197.661896 263.890011 
L 197.881706 263.890011 
L 197.890079 263.502544 
L 198.172433 263.502544 
L 198.172433 263.373389 
L 198.820745 263.373389 
L 198.874211 262.727611 
L 199.028538 262.727611 
L 199.135778 262.081834 
L 199.485673 262.081834 
L 199.555103 261.823523 
L 200.135733 261.823523 
L 200.226971 261.565212 
L 200.521182 261.565212 
L 200.521182 261.436056 
L 200.767307 261.436056 
L 200.778147 260.919434 
L 201.110661 260.919434 
L 201.110661 260.790279 
L 201.259864 260.790279 
L 201.301106 260.531968 
L 201.5059 260.531968 
L 201.569105 260.273657 
L 201.702788 260.273657 
L 201.702788 260.144501 
L 201.939068 260.144501 
L 201.939068 260.015346 
L 202.102251 260.015346 
L 202.156793 259.369568 
L 202.228307 259.369568 
L 202.289012 258.852946 
L 202.480879 258.852946 
L 202.558959 258.46548 
L 202.854959 258.46548 
L 202.938833 258.207169 
L 202.975833 258.207169 
L 203.03651 257.819702 
L 203.509603 257.819702 
L 203.61373 256.786458 
L 203.784892 256.786458 
L 203.82932 256.140681 
L 203.949504 256.140681 
L 203.949504 256.011525 
L 204.095393 256.011525 
L 204.125198 255.753214 
L 204.21585 255.753214 
L 204.21585 255.494903 
L 204.343364 255.494903 
L 204.3459 255.236592 
L 204.489607 255.236592 
L 204.489607 255.107437 
L 204.622432 255.107437 
L 204.622432 254.978281 
L 205.034613 254.978281 
L 205.078964 254.461659 
L 205.160312 254.461659 
L 205.228746 254.203348 
L 205.376326 254.203348 
L 205.389247 253.945037 
L 205.783134 253.945037 
L 205.794361 253.686726 
L 206.042135 253.686726 
L 206.042135 253.557571 
L 206.177452 253.557571 
L 206.201468 253.29926 
L 206.571094 253.29926 
L 206.571094 253.170104 
L 206.800222 253.170104 
L 206.800222 253.040949 
L 206.938933 253.040949 
L 206.938933 252.911793 
L 207.148687 252.911793 
L 207.22094 252.653482 
L 207.288171 252.653482 
L 207.388331 252.266016 
L 207.422092 252.266016 
L 207.422092 252.13686 
L 207.721841 252.13686 
L 207.721841 252.007705 
L 207.849228 252.007705 
L 207.959356 251.103616 
L 208.030681 251.103616 
L 208.129853 250.71615 
L 208.272296 250.71615 
L 208.355154 250.457839 
L 208.532969 250.457839 
L 208.532969 250.328683 
L 208.719955 250.328683 
L 208.828412 249.424595 
L 209.067725 249.424595 
L 209.152021 249.037128 
L 209.541874 249.037128 
L 209.541874 248.907973 
L 209.694036 248.907973 
L 209.694036 248.649662 
L 209.821037 248.649662 
L 209.923773 248.262195 
L 209.989534 248.262195 
L 210.097927 248.003884 
L 210.201463 248.003884 
L 210.203291 247.745573 
L 210.494148 247.745573 
L 210.494148 247.616418 
L 210.769552 247.616418 
L 210.798204 246.97064 
L 211.094739 246.97064 
L 211.191809 246.195707 
L 211.388656 246.195707 
L 211.400962 245.937396 
L 211.587247 245.937396 
L 211.60702 245.679085 
L 211.792684 245.679085 
L 211.792684 245.420774 
L 212.07757 245.420774 
L 212.07757 245.291618 
L 212.587121 245.291618 
L 212.676273 245.033307 
L 212.868055 245.033307 
L 212.868055 244.904152 
L 213.003056 244.904152 
L 213.003056 244.645841 
L 213.184578 244.645841 
L 213.184578 244.38753 
L 213.404794 244.38753 
L 213.486016 244.129219 
L 213.630626 244.129219 
L 213.66829 243.741752 
L 213.812633 243.741752 
L 213.907179 243.22513 
L 214.300785 243.22513 
L 214.300785 243.095975 
L 214.441857 243.095975 
L 214.441857 242.966819 
L 214.692161 242.966819 
L 214.724676 242.579353 
L 215.0853 242.579353 
L 215.182767 241.933575 
L 215.224888 241.933575 
L 215.261543 241.416953 
L 215.377486 241.416953 
L 215.427337 241.029487 
L 215.524995 241.029487 
L 215.524995 240.900331 
L 215.714833 240.900331 
L 215.786624 240.383709 
L 215.866115 240.383709 
L 215.866115 240.254554 
L 216.167248 240.254554 
L 216.248715 239.867087 
L 216.515951 239.867087 
L 216.515951 239.479621 
L 216.738994 239.479621 
L 216.738994 239.350465 
L 216.898596 239.350465 
L 217.005918 239.092154 
L 217.09919 239.092154 
L 217.201242 238.704688 
L 217.335839 238.704688 
L 217.360459 238.446377 
L 217.505161 238.446377 
L 217.531974 238.188066 
L 217.626888 238.188066 
L 217.626888 238.05891 
L 217.95322 238.05891 
L 218.035795 237.671444 
L 218.084288 237.671444 
L 218.154675 237.413133 
L 218.355967 237.413133 
L 218.374943 237.154822 
L 219.667059 237.154822 
L 219.676953 236.896511 
L 219.789599 236.896511 
L 219.789599 236.767355 
L 220.087857 236.767355 
L 220.185414 236.509044 
L 220.458161 236.509044 
L 220.458161 236.379889 
L 220.708651 236.379889 
L 220.732991 236.121578 
L 220.868082 236.121578 
L 220.868082 235.992422 
L 221.227157 235.992422 
L 221.263202 235.734111 
L 221.634941 235.734111 
L 221.634941 235.4758 
L 221.762162 235.4758 
L 221.762162 235.346645 
L 221.907759 235.346645 
L 221.907759 235.217489 
L 222.338861 235.217489 
L 222.424899 234.959178 
L 222.572074 234.959178 
L 222.572074 234.830023 
L 222.835018 234.830023 
L 222.835018 234.700867 
L 223.123075 234.700867 
L 223.123075 234.442556 
L 223.426708 234.442556 
L 223.445438 234.184245 
L 223.602609 234.184245 
L 223.630035 233.925934 
L 223.896316 233.925934 
L 223.896316 233.796779 
L 224.216573 233.796779 
L 224.265875 233.538468 
L 224.491159 233.538468 
L 224.491159 233.409312 
L 224.715341 233.409312 
L 224.715341 233.280157 
L 224.878176 233.280157 
L 224.969637 232.763535 
L 225.093773 232.763535 
L 225.093773 232.634379 
L 225.349822 232.634379 
L 225.389383 232.246913 
L 225.498697 232.246913 
L 225.604492 231.730291 
L 225.646573 231.730291 
L 225.702451 231.47198 
L 225.794075 231.47198 
L 225.794075 231.342824 
L 225.918699 231.342824 
L 225.971315 231.084513 
L 226.041857 231.084513 
L 226.041857 230.955358 
L 226.424016 230.955358 
L 226.530348 230.567891 
L 226.671342 230.567891 
L 226.752498 229.792958 
L 226.845961 229.792958 
L 226.906828 229.14718 
L 226.986495 229.14718 
L 226.986495 229.018025 
L 227.330758 229.018025 
L 227.416721 228.630558 
L 227.447859 228.630558 
L 227.522245 227.855625 
L 227.742878 227.855625 
L 227.742878 227.72647 
L 227.903717 227.72647 
L 227.981232 227.468159 
L 228.072465 227.468159 
L 228.072465 227.339003 
L 228.188025 227.339003 
L 228.256605 227.080692 
L 228.325519 227.080692 
L 228.325519 226.951537 
L 228.501113 226.951537 
L 228.580463 226.693226 
L 229.005082 226.693226 
L 229.005082 226.434915 
L 229.250577 226.434915 
L 229.250577 226.305759 
L 229.430562 226.305759 
L 229.503169 226.047448 
L 229.577829 226.047448 
L 229.577829 225.918293 
L 229.696542 225.918293 
L 229.696542 225.789137 
L 229.886388 225.789137 
L 229.886388 225.659982 
L 230.163004 225.659982 
L 230.163004 225.530826 
L 230.459587 225.530826 
L 230.487028 225.272515 
L 230.58376 225.272515 
L 230.58376 225.014204 
L 230.711366 225.014204 
L 230.802684 224.755893 
L 230.909142 224.755893 
L 230.96422 224.497582 
L 231.137845 224.497582 
L 231.137845 224.368427 
L 232.078308 224.368427 
L 232.168208 224.110116 
L 232.259518 224.110116 
L 232.259518 223.98096 
L 232.750786 223.98096 
L 232.750786 223.851805 
L 233.338008 223.851805 
L 233.338008 223.722649 
L 233.487495 223.722649 
L 233.487495 223.593494 
L 234.155384 223.593494 
L 234.155384 223.464338 
L 234.404247 223.464338 
L 234.470049 223.206027 
L 234.878546 223.206027 
L 234.966312 222.818561 
L 235.04851 222.818561 
L 235.133139 222.56025 
L 235.285006 222.56025 
L 235.370893 222.301939 
L 235.486441 222.301939 
L 235.529043 222.043628 
L 235.605524 222.043628 
L 235.685103 221.139539 
L 235.966642 221.139539 
L 235.966642 221.010384 
L 236.148906 221.010384 
L 236.201433 220.622917 
L 236.649238 220.622917 
L 236.649238 220.493762 
L 236.837341 220.493762 
L 236.837341 220.364606 
L 237.078746 220.364606 
L 237.178141 219.97714 
L 237.350713 219.97714 
L 237.350713 219.847984 
L 237.49004 219.847984 
L 237.561749 219.460518 
L 237.64466 219.460518 
L 237.755473 219.202207 
L 237.778561 219.202207 
L 237.778561 219.073051 
L 238.759504 219.073051 
L 238.759504 218.81474 
L 239.217405 218.81474 
L 239.217405 218.685585 
L 239.672188 218.685585 
L 239.672188 218.556429 
L 240.488589 218.556429 
L 240.562472 218.298118 
L 240.65331 218.298118 
L 240.65331 218.168963 
L 240.806117 218.168963 
L 240.806117 218.039807 
L 240.95681 218.039807 
L 240.95681 217.910652 
L 241.095125 217.910652 
L 241.095125 217.781496 
L 241.410304 217.781496 
L 241.410304 217.652341 
L 241.572969 217.652341 
L 241.608167 216.748252 
L 241.700062 216.748252 
L 241.768987 216.360786 
L 241.942325 216.360786 
L 242.041012 215.973319 
L 242.273808 215.973319 
L 242.305503 215.585853 
L 242.545787 215.585853 
L 242.545787 215.456697 
L 242.692431 215.456697 
L 242.692431 215.327542 
L 242.990004 215.327542 
L 242.990004 215.198386 
L 243.221287 215.198386 
L 243.221287 215.069231 
L 243.481079 215.069231 
L 243.545173 214.81092 
L 243.646718 214.81092 
L 243.646718 214.681764 
L 245.238738 214.681764 
L 245.238738 214.552609 
L 245.695391 214.552609 
L 245.695391 214.423453 
L 245.934297 214.423453 
L 246.037163 213.777676 
L 246.077006 213.777676 
L 246.077006 213.64852 
L 246.339934 213.64852 
L 246.339934 213.519365 
L 246.910682 213.519365 
L 246.910682 213.390209 
L 247.135804 213.390209 
L 247.135804 213.261054 
L 247.286886 213.261054 
L 247.286886 213.002743 
L 247.467462 213.002743 
L 247.467462 212.873587 
L 249.259492 212.873587 
L 249.259492 212.744431 
L 249.580445 212.744431 
L 249.661738 211.969498 
L 249.806025 211.969498 
L 249.817473 211.711187 
L 249.95048 211.711187 
L 250.045306 211.452876 
L 250.256004 211.452876 
L 250.256004 211.323721 
L 250.488664 211.323721 
L 250.488664 211.194565 
L 250.822638 211.194565 
L 250.865162 210.936254 
L 251.079691 210.936254 
L 251.079691 210.807099 
L 251.310943 210.807099 
L 251.310943 210.677943 
L 252.056878 210.677943 
L 252.056878 210.548788 
L 252.275377 210.548788 
L 252.275377 210.419632 
L 252.549269 210.419632 
L 252.585358 208.998922 
L 252.768429 208.998922 
L 252.768429 208.869766 
L 252.941391 208.869766 
L 252.941391 208.740611 
L 253.434498 208.740611 
L 253.434498 208.611455 
L 253.640941 208.611455 
L 253.640941 208.4823 
L 253.824761 208.4823 
L 253.824761 208.223989 
L 254.858851 208.223989 
L 254.858851 208.094833 
L 255.001382 208.094833 
L 255.099417 207.449056 
L 255.123599 207.449056 
L 255.123599 207.3199 
L 255.264496 207.3199 
L 255.34608 206.932434 
L 255.761893 206.932434 
L 255.761893 206.803278 
L 255.974541 206.803278 
L 255.974541 206.674123 
L 256.377605 206.674123 
L 256.377605 206.544967 
L 257.316228 206.544967 
L 257.345714 206.028345 
L 257.873358 206.028345 
L 257.910533 205.770034 
L 257.999842 205.770034 
L 257.999842 205.511723 
L 258.45754 205.511723 
L 258.45754 205.382568 
L 259.294464 205.382568 
L 259.294464 205.253412 
L 259.4334 205.253412 
L 259.4334 205.124257 
L 259.586143 205.124257 
L 259.586143 204.995101 
L 261.088871 204.995101 
L 261.088871 204.73679 
L 261.201996 204.73679 
L 261.214831 204.478479 
L 261.763659 204.478479 
L 261.763659 204.220168 
L 262.551889 204.220168 
L 262.551889 204.091013 
L 262.704628 204.091013 
L 262.70575 203.703546 
L 263.279708 203.703546 
L 263.325174 203.445235 
L 263.432312 203.445235 
L 263.432312 203.31608 
L 263.548523 203.31608 
L 263.548523 203.186924 
L 264.183547 203.186924 
L 264.184366 202.928613 
L 265.552841 202.928613 
L 265.650835 202.670302 
L 266.826328 202.670302 
L 266.835514 202.282836 
L 267.290913 202.282836 
L 267.290913 202.15368 
L 269.145383 202.15368 
L 269.145383 202.024525 
L 269.646293 202.024525 
L 269.646293 201.895369 
L 270.254401 201.895369 
L 270.254401 201.766214 
L 270.515277 201.766214 
L 270.515277 201.637058 
L 271.176817 201.637058 
L 271.176817 201.507903 
L 271.534964 201.507903 
L 271.534964 201.378747 
L 272.023322 201.378747 
L 272.023322 201.249592 
L 272.482489 201.249592 
L 272.482489 200.991281 
L 275.547482 200.991281 
L 275.547482 200.862125 
L 276.190749 200.862125 
L 276.190749 200.73297 
L 277.180756 200.73297 
L 277.230173 200.474659 
L 277.582749 200.474659 
L 277.590065 200.087192 
L 278.289434 200.087192 
L 278.289434 199.958037 
L 279.831731 199.958037 
L 279.831731 199.828881 
L 280.031442 199.828881 
L 280.031442 199.699726 
L 280.282981 199.699726 
L 280.282981 199.57057 
L 282.537619 199.57057 
L 282.537619 199.441415 
L 283.812111 199.441415 
L 283.812111 199.312259 
L 284.253263 199.312259 
L 284.253263 199.183104 
L 286.246273 199.183104 
L 286.246273 199.053948 
L 287.025644 199.053948 
L 287.025644 198.924793 
L 287.996843 198.924793 
L 287.996843 198.795637 
L 358.8 198.795637 
L 358.8 198.795637 
" style="fill:none;stroke:#ff00ff;stroke-linecap:square;stroke-width:1.5;"/>
   </g>
   <g id="line2d_48">
    <defs>
     <path d="M -0 8.485281 
L 5.091169 0 
L 0 -8.485281 
L -5.091169 -0 
z
" id="m424c0afddf" style="stroke:#ff00ff;stroke-linejoin:miter;stroke-width:1.5;"/>
    </defs>
    <g>
     <use style="fill:none;stroke:#ff00ff;stroke-linejoin:miter;stroke-width:1.5;" x="208.828412" xlink:href="#m424c0afddf" y="249.682906"/>
     <use style="fill:none;stroke:#ff00ff;stroke-linejoin:miter;stroke-width:1.5;" x="257.33082" xlink:href="#m424c0afddf" y="206.157501"/>
     <use style="fill:none;stroke:#ff00ff;stroke-linejoin:miter;stroke-width:1.5;" x="287.996843" xlink:href="#m424c0afddf" y="198.795637"/>
     <use style="fill:none;stroke:#ff00ff;stroke-linejoin:miter;stroke-width:1.5;" x="287.996843" xlink:href="#m424c0afddf" y="198.795637"/>
     <use style="fill:none;stroke:#ff00ff;stroke-linejoin:miter;stroke-width:1.5;" x="358.8" xlink:href="#m424c0afddf" y="198.795637"/>
    </g>
   </g>
   <g id="line2d_49"/>
   <g id="line2d_50">
    <path clip-path="url(#pc53f261386)" d="M 218.99904 237.154822 
" style="fill:none;stroke:#ff00ff;stroke-linecap:square;stroke-width:1.5;"/>
    <defs>
     <path d="M -12 12 
L 12 -12 
M -12 -12 
L 12 12 
" id="m2f7b0320e1" style="stroke:#ff00ff;stroke-width:3;"/>
    </defs>
    <g clip-path="url(#pc53f261386)">
     <use style="fill:#ff00ff;stroke:#ff00ff;stroke-width:3;" x="218.99904" xlink:href="#m2f7b0320e1" y="237.154822"/>
    </g>
   </g>
   <g id="line2d_51">
    <path d="M 358.8 198.795637 
L 390.48 292.97583 
" style="fill:none;stroke:#ff00ff;stroke-linecap:square;stroke-width:1.5;"/>
    <g>
     <use style="fill:none;stroke:#ff00ff;stroke-linejoin:miter;stroke-width:1.5;" x="358.8" xlink:href="#m424c0afddf" y="198.795637"/>
     <use style="fill:none;stroke:#ff00ff;stroke-linejoin:miter;stroke-width:1.5;" x="390.48" xlink:href="#m424c0afddf" y="292.97583"/>
    </g>
   </g>
   <g id="line2d_52">
    <path d="M 358.8 298.245375 
L 358.8 34.768147 
" style="fill:none;stroke:#000000;stroke-linecap:square;stroke-width:1.5;"/>
   </g>
   <g id="patch_3">
    <path d="M 70.8 298.245375 
L 70.8 32.133375 
" style="fill:none;stroke:#000000;stroke-linecap:square;stroke-linejoin:miter;stroke-width:0.8;"/>
   </g>
   <g id="patch_4">
    <path d="M 427.92 298.245375 
L 427.92 32.133375 
" style="fill:none;stroke:#000000;stroke-linecap:square;stroke-linejoin:miter;stroke-width:0.8;"/>
   </g>
   <g id="patch_5">
    <path d="M 70.8 298.245375 
L 427.92 298.245375 
" style="fill:none;stroke:#000000;stroke-linecap:square;stroke-linejoin:miter;stroke-width:0.8;"/>
   </g>
   <g id="patch_6">
    <path d="M 70.8 32.133375 
L 427.92 32.133375 
" style="fill:none;stroke:#000000;stroke-linecap:square;stroke-linejoin:miter;stroke-width:0.8;"/>
   </g>
   <g id="text_14">
    <!-- deapbbob -->
    <defs>
     <path d="M 48.6875 27.296875 
Q 48.6875 37.203125 44.609375 42.84375 
Q 40.53125 48.484375 33.40625 48.484375 
Q 26.265625 48.484375 22.1875 42.84375 
Q 18.109375 37.203125 18.109375 27.296875 
Q 18.109375 17.390625 22.1875 11.75 
Q 26.265625 6.109375 33.40625 6.109375 
Q 40.53125 6.109375 44.609375 11.75 
Q 48.6875 17.390625 48.6875 27.296875 
M 18.109375 46.390625 
Q 20.953125 51.265625 25.265625 53.625 
Q 29.59375 56 35.59375 56 
Q 45.5625 56 51.78125 48.09375 
Q 58.015625 40.1875 58.015625 27.296875 
Q 58.015625 14.40625 51.78125 6.484375 
Q 45.5625 -1.421875 35.59375 -1.421875 
Q 29.59375 -1.421875 25.265625 0.953125 
Q 20.953125 3.328125 18.109375 8.203125 
L 18.109375 0 
L 9.078125 0 
L 9.078125 75.984375 
L 18.109375 75.984375 
z
" id="DejaVuSans-62"/>
    </defs>
    <g transform="translate(396.24 297.114893)scale(0.15 -0.15)">
     <use xlink:href="#DejaVuSans-64"/>
     <use x="63.476562" xlink:href="#DejaVuSans-65"/>
     <use x="125" xlink:href="#DejaVuSans-61"/>
     <use x="186.279297" xlink:href="#DejaVuSans-70"/>
     <use x="249.755859" xlink:href="#DejaVuSans-62"/>
     <use x="313.232422" xlink:href="#DejaVuSans-62"/>
     <use x="376.708984" xlink:href="#DejaVuSans-6f"/>
     <use x="437.890625" xlink:href="#DejaVuSans-62"/>
    </g>
   </g>
   <g id="text_15">
    <!-- best 2009 -->
    <defs>
     <path d="M 10.984375 1.515625 
L 10.984375 10.5 
Q 14.703125 8.734375 18.5 7.8125 
Q 22.3125 6.890625 25.984375 6.890625 
Q 35.75 6.890625 40.890625 13.453125 
Q 46.046875 20.015625 46.78125 33.40625 
Q 43.953125 29.203125 39.59375 26.953125 
Q 35.25 24.703125 29.984375 24.703125 
Q 19.046875 24.703125 12.671875 31.3125 
Q 6.296875 37.9375 6.296875 49.421875 
Q 6.296875 60.640625 12.9375 67.421875 
Q 19.578125 74.21875 30.609375 74.21875 
Q 43.265625 74.21875 49.921875 64.515625 
Q 56.59375 54.828125 56.59375 36.375 
Q 56.59375 19.140625 48.40625 8.859375 
Q 40.234375 -1.421875 26.421875 -1.421875 
Q 22.703125 -1.421875 18.890625 -0.6875 
Q 15.09375 0.046875 10.984375 1.515625 
M 30.609375 32.421875 
Q 37.25 32.421875 41.125 36.953125 
Q 45.015625 41.5 45.015625 49.421875 
Q 45.015625 57.28125 41.125 61.84375 
Q 37.25 66.40625 30.609375 66.40625 
Q 23.96875 66.40625 20.09375 61.84375 
Q 16.21875 57.28125 16.21875 49.421875 
Q 16.21875 41.5 20.09375 36.953125 
Q 23.96875 32.421875 30.609375 32.421875 
" id="DejaVuSans-39"/>
    </defs>
    <g transform="translate(396.24 44.176754)scale(0.15 -0.15)">
     <use xlink:href="#DejaVuSans-62"/>
     <use x="63.476562" xlink:href="#DejaVuSans-65"/>
     <use x="125" xlink:href="#DejaVuSans-73"/>
     <use x="177.099609" xlink:href="#DejaVuSans-74"/>
     <use x="216.308594" xlink:href="#DejaVuSans-20"/>
     <use x="248.095703" xlink:href="#DejaVuSans-32"/>
     <use x="311.71875" xlink:href="#DejaVuSans-30"/>
     <use x="375.341797" xlink:href="#DejaVuSans-30"/>
     <use x="438.964844" xlink:href="#DejaVuSans-39"/>
    </g>
   </g>
   <g id="text_16">
    <!-- bbob - f6-f9, 40-D -->
    <defs>
     <path d="M 11.71875 12.40625 
L 22.015625 12.40625 
L 22.015625 4 
L 14.015625 -11.625 
L 7.71875 -11.625 
L 11.71875 4 
z
" id="DejaVuSans-2c"/>
     <path d="M 19.671875 64.796875 
L 19.671875 8.109375 
L 31.59375 8.109375 
Q 46.6875 8.109375 53.6875 14.9375 
Q 60.6875 21.78125 60.6875 36.53125 
Q 60.6875 51.171875 53.6875 57.984375 
Q 46.6875 64.796875 31.59375 64.796875 
z
M 9.8125 72.90625 
L 30.078125 72.90625 
Q 51.265625 72.90625 61.171875 64.09375 
Q 71.09375 55.28125 71.09375 36.53125 
Q 71.09375 17.671875 61.125 8.828125 
Q 51.171875 0 30.078125 0 
L 9.8125 0 
z
" id="DejaVuSans-44"/>
    </defs>
    <g transform="translate(74.3712 50.114612)scale(0.1666 -0.1666)">
     <use xlink:href="#DejaVuSans-62"/>
     <use x="63.476562" xlink:href="#DejaVuSans-62"/>
     <use x="126.953125" xlink:href="#DejaVuSans-6f"/>
     <use x="188.134766" xlink:href="#DejaVuSans-62"/>
     <use x="251.611328" xlink:href="#DejaVuSans-20"/>
     <use x="283.398438" xlink:href="#DejaVuSans-2d"/>
     <use x="319.482422" xlink:href="#DejaVuSans-20"/>
     <use x="351.269531" xlink:href="#DejaVuSans-66"/>
     <use x="386.474609" xlink:href="#DejaVuSans-36"/>
     <use x="450.097656" xlink:href="#DejaVuSans-2d"/>
     <use x="486.181641" xlink:href="#DejaVuSans-66"/>
     <use x="521.386719" xlink:href="#DejaVuSans-39"/>
     <use x="585.009766" xlink:href="#DejaVuSans-2c"/>
     <use x="616.796875" xlink:href="#DejaVuSans-20"/>
     <use x="648.583984" xlink:href="#DejaVuSans-34"/>
     <use x="712.207031" xlink:href="#DejaVuSans-30"/>
     <use x="775.830078" xlink:href="#DejaVuSans-2d"/>
     <use x="811.914062" xlink:href="#DejaVuSans-44"/>
    </g>
    <!-- 51 targets in 100..1e-08 -->
    <defs>
     <path d="M 10.796875 72.90625 
L 49.515625 72.90625 
L 49.515625 64.59375 
L 19.828125 64.59375 
L 19.828125 46.734375 
Q 21.96875 47.46875 24.109375 47.828125 
Q 26.265625 48.1875 28.421875 48.1875 
Q 40.625 48.1875 47.75 41.5 
Q 54.890625 34.8125 54.890625 23.390625 
Q 54.890625 11.625 47.5625 5.09375 
Q 40.234375 -1.421875 26.90625 -1.421875 
Q 22.3125 -1.421875 17.546875 -0.640625 
Q 12.796875 0.140625 7.71875 1.703125 
L 7.71875 11.625 
Q 12.109375 9.234375 16.796875 8.0625 
Q 21.484375 6.890625 26.703125 6.890625 
Q 35.15625 6.890625 40.078125 11.328125 
Q 45.015625 15.765625 45.015625 23.390625 
Q 45.015625 31 40.078125 35.4375 
Q 35.15625 39.890625 26.703125 39.890625 
Q 22.75 39.890625 18.8125 39.015625 
Q 14.890625 38.140625 10.796875 36.28125 
z
" id="DejaVuSans-35"/>
    </defs>
    <g transform="translate(74.3712 68.770168)scale(0.1666 -0.1666)">
     <use xlink:href="#DejaVuSans-35"/>
     <use x="63.623047" xlink:href="#DejaVuSans-31"/>
     <use x="127.246094" xlink:href="#DejaVuSans-20"/>
     <use x="159.033203" xlink:href="#DejaVuSans-74"/>
     <use x="198.242188" xlink:href="#DejaVuSans-61"/>
     <use x="259.521484" xlink:href="#DejaVuSans-72"/>
     <use x="300.619141" xlink:href="#DejaVuSans-67"/>
     <use x="364.095703" xlink:href="#DejaVuSans-65"/>
     <use x="425.619141" xlink:href="#DejaVuSans-74"/>
     <use x="464.828125" xlink:href="#DejaVuSans-73"/>
     <use x="516.927734" xlink:href="#DejaVuSans-20"/>
     <use x="548.714844" xlink:href="#DejaVuSans-69"/>
     <use x="576.498047" xlink:href="#DejaVuSans-6e"/>
     <use x="639.876953" xlink:href="#DejaVuSans-20"/>
     <use x="671.664062" xlink:href="#DejaVuSans-31"/>
     <use x="735.287109" xlink:href="#DejaVuSans-30"/>
     <use x="798.910156" xlink:href="#DejaVuSans-30"/>
     <use x="862.533203" xlink:href="#DejaVuSans-2e"/>
     <use x="894.320312" xlink:href="#DejaVuSans-2e"/>
     <use x="926.107422" xlink:href="#DejaVuSans-31"/>
     <use x="989.730469" xlink:href="#DejaVuSans-65"/>
     <use x="1051.253906" xlink:href="#DejaVuSans-2d"/>
     <use x="1087.337891" xlink:href="#DejaVuSans-30"/>
     <use x="1150.960938" xlink:href="#DejaVuSans-38"/>
    </g>
    <!-- 15 instances -->
    <g transform="translate(74.3712 87.425723)scale(0.1666 -0.1666)">
     <use xlink:href="#DejaVuSans-31"/>
     <use x="63.623047" xlink:href="#DejaVuSans-35"/>
     <use x="127.246094" xlink:href="#DejaVuSans-20"/>
     <use x="159.033203" xlink:href="#DejaVuSans-69"/>
     <use x="186.816406" xlink:href="#DejaVuSans-6e"/>
     <use x="250.195312" xlink:href="#DejaVuSans-73"/>
     <use x="302.294922" xlink:href="#DejaVuSans-74"/>
     <use x="341.503906" xlink:href="#DejaVuSans-61"/>
     <use x="402.783203" xlink:href="#DejaVuSans-6e"/>
     <use x="466.162109" xlink:href="#DejaVuSans-63"/>
     <use x="521.142578" xlink:href="#DejaVuSans-65"/>
     <use x="582.666016" xlink:href="#DejaVuSans-73"/>
    </g>
   </g>
   <g id="text_17">
    <!-- v2.1 -->
    <g style="fill:#808080;" transform="translate(238.449063 293.504568)scale(0.1 -0.1)">
     <use xlink:href="#DejaVuSans-76"/>
     <use x="59.179688" xlink:href="#DejaVuSans-32"/>
     <use x="122.802734" xlink:href="#DejaVuSans-2e"/>
     <use x="154.589844" xlink:href="#DejaVuSans-31"/>
    </g>
   </g>
  </g>
 </g>
 <defs>
  <clipPath id="pc53f261386">
   <rect height="266.112" width="357.12" x="70.8" y="32.133375"/>
  </clipPath>
 </defs>
</svg>
