<?xml version="1.0" encoding="utf-8" standalone="no"?>
<!DOCTYPE svg PUBLIC "-//W3C//DTD SVG 1.1//EN"
  "http://www.w3.org/Graphics/SVG/1.1/DTD/svg11.dtd">
<!-- Created with matplotlib (http://matplotlib.org/) -->
<svg height="353pt" version="1.1" viewBox="0 0 478 353" width="478pt" xmlns="http://www.w3.org/2000/svg" xmlns:xlink="http://www.w3.org/1999/xlink">
 <defs>
  <style type="text/css">
*{stroke-linecap:butt;stroke-linejoin:round;}
  </style>
 </defs>
 <g id="figure_1">
  <g id="patch_1">
   <path d="M 0 353.22225 
L 478.829063 353.22225 
L 478.829063 0 
L 0 0 
z
" style="fill:#ffffff;"/>
  </g>
  <g id="axes_1">
   <g id="patch_2">
    <path d="M 70.8 298.245375 
L 427.92 298.245375 
L 427.92 32.133375 
L 70.8 32.133375 
z
" style="fill:#ffffff;"/>
   </g>
   <g id="line2d_1">
    <path d="M 51.169868 298.245375 
L 51.169868 277.580494 
L 63.555102 277.580494 
L 63.555102 273.447518 
L 70.8 273.447518 
L 70.8 272.414274 
L 75.940337 272.414274 
L 75.940337 271.38103 
L 79.927491 271.38103 
L 79.927491 270.347786 
L 83.185234 270.347786 
L 83.185234 269.314542 
L 88.325571 269.314542 
L 88.325571 268.281298 
L 92.312726 268.281298 
L 92.312726 267.248054 
L 95.570468 267.248054 
L 95.570468 266.21481 
L 97.000681 266.21481 
L 97.000681 265.181566 
L 98.32485 265.181566 
L 98.32485 264.148322 
L 105.569748 264.148322 
L 105.569748 263.115078 
L 109.385915 263.115078 
L 109.385915 262.081834 
L 110.060263 262.081834 
L 110.060263 261.04859 
L 114.179287 261.04859 
L 114.179287 260.015346 
L 117.083194 260.015346 
L 117.083194 258.982102 
L 117.524404 258.982102 
L 117.524404 257.948858 
L 122.111504 257.948858 
L 122.111504 256.915614 
L 123.095319 256.915614 
L 123.095319 255.88237 
L 125.19988 255.88237 
L 125.19988 254.849126 
L 126.564521 254.849126 
L 126.564521 252.782638 
L 129.016046 252.782638 
L 129.016046 251.749394 
L 129.690395 251.749394 
L 129.690395 250.71615 
L 130.760662 250.71615 
L 130.760662 249.682906 
L 133.455583 249.682906 
L 133.455583 248.649662 
L 134.995416 248.649662 
L 134.995416 246.583173 
L 136.413014 246.583173 
L 136.413014 245.549929 
L 136.563801 245.549929 
L 136.563801 243.483441 
L 136.861609 243.483441 
L 136.861609 242.450197 
L 139.080657 242.450197 
L 139.080657 241.416953 
L 140.094723 241.416953 
L 140.094723 239.350465 
L 144.350945 239.350465 
L 144.350945 238.317221 
L 144.830011 238.317221 
L 144.830011 237.283977 
L 146.541617 237.283977 
L 146.541617 236.250733 
L 147.624865 236.250733 
L 147.624865 235.217489 
L 149.320526 235.217489 
L 149.320526 234.184245 
L 150.597364 234.184245 
L 150.597364 233.151001 
L 151.980117 233.151001 
L 151.980117 232.117757 
L 154.182971 232.117757 
L 154.182971 231.084513 
L 154.788728 231.084513 
L 154.788728 230.051269 
L 156.393022 230.051269 
L 156.393022 229.018025 
L 157.58946 229.018025 
L 157.58946 227.984781 
L 158.315169 227.984781 
L 158.315169 226.951537 
L 158.492082 226.951537 
L 158.492082 225.918293 
L 159.969627 225.918293 
L 159.969627 224.885049 
L 160.567279 224.885049 
L 160.567279 223.851805 
L 161.483794 223.851805 
L 161.483794 222.818561 
L 161.88865 222.818561 
L 161.88865 221.785317 
L 162.213206 221.785317 
L 162.213206 220.752073 
L 163.621413 220.752073 
L 163.621413 219.718829 
L 163.916219 219.718829 
L 163.916219 218.685585 
L 164.9267 218.685585 
L 164.9267 217.652341 
L 165.941189 217.652341 
L 165.941189 216.619097 
L 166.928629 216.619097 
L 166.928629 215.585853 
L 167.281926 215.585853 
L 167.281926 214.552609 
L 167.601961 214.552609 
L 167.601961 213.519365 
L 168.529045 213.519365 
L 168.529045 212.48612 
L 169.097119 212.48612 
L 169.097119 211.452876 
L 170.363894 211.452876 
L 170.431704 209.386388 
L 171.333548 209.386388 
L 171.333548 208.353144 
L 173.397546 208.353144 
L 173.397546 207.3199 
L 175.161262 207.3199 
L 175.161262 206.286656 
L 176.845377 206.286656 
L 176.845377 205.253412 
L 178.297393 205.253412 
L 178.297393 204.220168 
L 179.023318 204.220168 
L 179.023318 203.186924 
L 179.13456 203.186924 
L 179.13456 202.15368 
L 179.653701 202.15368 
L 179.653701 201.120436 
L 179.867853 201.120436 
L 179.894442 199.053948 
L 180.131984 199.053948 
L 180.131984 198.020704 
L 180.24958 198.020704 
L 180.24958 196.98746 
L 180.939357 196.98746 
L 181.001899 194.920972 
L 181.212918 194.920972 
L 181.212918 193.887728 
L 182.021131 193.887728 
L 182.021131 192.854484 
L 183.196413 192.854484 
L 183.196413 191.82124 
L 183.502981 191.82124 
L 183.502981 190.787996 
L 184.709682 190.787996 
L 184.709682 189.754752 
L 185.170432 189.754752 
L 185.170432 188.721508 
L 185.347541 188.721508 
L 185.347541 187.688264 
L 185.725357 187.688264 
L 185.725357 186.65502 
L 186.20767 186.65502 
L 186.20767 185.621776 
L 186.430213 185.621776 
L 186.430213 184.588532 
L 186.577049 184.588532 
L 186.577049 183.555288 
L 187.170311 183.555288 
L 187.170311 182.522044 
L 187.693063 182.522044 
L 187.693063 181.4888 
L 187.889464 181.4888 
L 187.889464 180.455556 
L 188.284217 180.455556 
L 188.358823 178.389067 
L 189.842407 178.389067 
L 189.842407 177.355823 
L 193.046778 177.355823 
L 193.103956 175.289335 
L 194.228571 175.289335 
L 194.228571 174.256091 
L 194.406365 174.256091 
L 194.406365 173.222847 
L 194.722002 173.222847 
L 194.820227 171.156359 
L 195.071975 171.156359 
L 195.145682 168.056627 
L 195.280961 168.056627 
L 195.280961 167.023383 
L 195.404074 167.023383 
L 195.404074 165.990139 
L 195.537419 165.990139 
L 195.625766 162.890407 
L 195.691741 162.890407 
L 195.719158 160.823919 
L 195.822964 160.823919 
L 195.899068 157.724187 
L 196.018009 157.724187 
L 196.114739 152.557967 
L 196.178935 152.557967 
L 196.258859 150.491479 
L 196.327837 150.491479 
L 196.41764 146.358503 
L 196.48076 146.358503 
L 196.543658 144.292014 
L 196.606334 144.292014 
L 196.637591 141.192282 
L 196.823988 141.192282 
L 196.823988 140.159038 
L 196.993161 140.159038 
L 197.099989 137.059306 
L 197.231372 137.059306 
L 197.231372 136.026062 
L 197.351798 136.026062 
L 197.436611 133.959574 
L 197.908145 133.959574 
L 197.908145 132.92633 
L 198.028925 132.92633 
L 198.028925 131.893086 
L 198.291801 131.893086 
L 198.291801 130.859842 
L 198.65345 130.859842 
L 198.65345 129.826598 
L 199.112456 129.826598 
L 199.112456 128.793354 
L 199.533428 128.793354 
L 199.630538 126.726866 
L 200.026704 126.726866 
L 200.026704 125.693622 
L 201.059734 125.693622 
L 201.059734 124.660378 
L 202.394351 124.660378 
L 202.394351 123.627134 
L 203.706395 123.627134 
L 203.706395 122.59389 
L 203.863394 122.59389 
L 203.863394 121.560646 
L 204.029353 121.560646 
L 204.132299 119.494158 
L 204.163068 119.494158 
L 204.163068 118.460914 
L 204.380354 118.460914 
L 204.380354 117.42767 
L 204.691461 117.42767 
L 204.691461 116.394426 
L 204.833495 116.394426 
L 204.833495 115.361182 
L 204.993983 115.361182 
L 204.993983 114.327938 
L 205.146578 114.327938 
L 205.146578 113.294694 
L 205.269007 113.294694 
L 205.355489 111.228206 
L 205.495532 111.228206 
L 205.596696 109.161717 
L 205.684748 109.161717 
L 205.684748 108.128473 
L 207.139074 108.128473 
L 207.188166 106.061985 
L 207.257244 106.061985 
L 207.348935 103.995497 
L 207.443 103.995497 
L 207.496935 101.929009 
L 208.200025 101.929009 
L 208.200025 100.895765 
L 208.755388 100.895765 
L 208.755388 99.862521 
L 210.230249 99.862521 
L 210.339372 87.463593 
L 210.351455 87.463593 
L 210.459842 74.03142 
L 210.471845 74.03142 
L 210.558025 68.8652 
L 212.186634 68.8652 
L 212.288806 66.798712 
L 212.373146 66.798712 
L 212.480695 63.69898 
L 212.544915 63.69898 
L 212.630184 61.632492 
L 212.687512 61.632492 
L 212.797405 58.53276 
L 212.875188 58.53276 
L 212.925462 56.466272 
L 213.021426 56.466272 
L 213.125154 54.399784 
L 213.203587 54.399784 
L 213.244729 52.333296 
L 213.324685 52.333296 
L 213.43074 50.266808 
L 213.461216 50.266808 
L 213.522013 48.20032 
L 213.576553 48.20032 
L 213.679122 46.133832 
L 213.691151 46.133832 
L 213.761155 44.067344 
L 213.810991 44.067344 
L 213.860688 42.000855 
L 213.928055 42.000855 
L 214.030599 38.901123 
L 214.111037 38.901123 
L 214.216431 36.834635 
L 214.25725 36.834635 
L 214.352134 34.768147 
L 358.8 34.768147 
L 358.8 34.768147 
" style="fill:none;stroke:#f5deb3;stroke-linecap:square;stroke-width:6;"/>
   </g>
   <g id="line2d_2"/>
   <g id="line2d_3">
    <path d="M 358.8 34.768147 
L 390.48 40.037692 
" style="fill:none;stroke:#f5deb3;stroke-linecap:square;stroke-width:6;"/>
    <defs>
     <path d="M -0 7.778175 
L 7.778175 0 
L 0 -7.778175 
L -7.778175 -0 
z
" id="mbf06a5e543" style="stroke:#f5deb3;stroke-linejoin:miter;stroke-width:1.5;"/>
    </defs>
    <g>
     <use style="fill:#f5deb3;stroke:#f5deb3;stroke-linejoin:miter;stroke-width:1.5;" x="358.8" xlink:href="#mbf06a5e543" y="34.768147"/>
     <use style="fill:#f5deb3;stroke:#f5deb3;stroke-linejoin:miter;stroke-width:1.5;" x="390.48" xlink:href="#mbf06a5e543" y="40.037692"/>
    </g>
   </g>
   <g id="matplotlib.axis_1">
    <g id="xtick_1">
     <g id="line2d_4">
      <path clip-path="url(#p1b7bbd18d3)" d="M 70.8 298.245375 
L 70.8 32.133375 
" style="fill:none;stroke:#b0b0b0;stroke-linecap:square;stroke-width:0.8;"/>
     </g>
     <g id="line2d_5">
      <defs>
       <path d="M 0 0 
L 0 3.5 
" id="m2f481909c4" style="stroke:#000000;stroke-width:0.8;"/>
      </defs>
      <g>
       <use style="stroke:#000000;stroke-width:0.8;" x="70.8" xlink:href="#m2f481909c4" y="298.245375"/>
      </g>
     </g>
     <g id="text_1">
      <!-- 0 -->
      <defs>
       <path d="M 31.78125 66.40625 
Q 24.171875 66.40625 20.328125 58.90625 
Q 16.5 51.421875 16.5 36.375 
Q 16.5 21.390625 20.328125 13.890625 
Q 24.171875 6.390625 31.78125 6.390625 
Q 39.453125 6.390625 43.28125 13.890625 
Q 47.125 21.390625 47.125 36.375 
Q 47.125 51.421875 43.28125 58.90625 
Q 39.453125 66.40625 31.78125 66.40625 
M 31.78125 74.21875 
Q 44.046875 74.21875 50.515625 64.515625 
Q 56.984375 54.828125 56.984375 36.375 
Q 56.984375 17.96875 50.515625 8.265625 
Q 44.046875 -1.421875 31.78125 -1.421875 
Q 19.53125 -1.421875 13.0625 8.265625 
Q 6.59375 17.96875 6.59375 36.375 
Q 6.59375 54.828125 13.0625 64.515625 
Q 19.53125 74.21875 31.78125 74.21875 
" id="DejaVuSans-30"/>
      </defs>
      <g transform="translate(64.4375 320.44225)scale(0.2 -0.2)">
       <use xlink:href="#DejaVuSans-30"/>
      </g>
     </g>
    </g>
    <g id="xtick_2">
     <g id="line2d_6">
      <path clip-path="url(#p1b7bbd18d3)" d="M 153.085714 298.245375 
L 153.085714 32.133375 
" style="fill:none;stroke:#b0b0b0;stroke-linecap:square;stroke-width:0.8;"/>
     </g>
     <g id="line2d_7">
      <g>
       <use style="stroke:#000000;stroke-width:0.8;" x="153.085714" xlink:href="#m2f481909c4" y="298.245375"/>
      </g>
     </g>
     <g id="text_2">
      <!-- 2 -->
      <defs>
       <path d="M 19.1875 8.296875 
L 53.609375 8.296875 
L 53.609375 0 
L 7.328125 0 
L 7.328125 8.296875 
Q 12.9375 14.109375 22.625 23.890625 
Q 32.328125 33.6875 34.8125 36.53125 
Q 39.546875 41.84375 41.421875 45.53125 
Q 43.3125 49.21875 43.3125 52.78125 
Q 43.3125 58.59375 39.234375 62.25 
Q 35.15625 65.921875 28.609375 65.921875 
Q 23.96875 65.921875 18.8125 64.3125 
Q 13.671875 62.703125 7.8125 59.421875 
L 7.8125 69.390625 
Q 13.765625 71.78125 18.9375 73 
Q 24.125 74.21875 28.421875 74.21875 
Q 39.75 74.21875 46.484375 68.546875 
Q 53.21875 62.890625 53.21875 53.421875 
Q 53.21875 48.921875 51.53125 44.890625 
Q 49.859375 40.875 45.40625 35.40625 
Q 44.1875 33.984375 37.640625 27.21875 
Q 31.109375 20.453125 19.1875 8.296875 
" id="DejaVuSans-32"/>
      </defs>
      <g transform="translate(146.723214 320.44225)scale(0.2 -0.2)">
       <use xlink:href="#DejaVuSans-32"/>
      </g>
     </g>
    </g>
    <g id="xtick_3">
     <g id="line2d_8">
      <path clip-path="url(#p1b7bbd18d3)" d="M 235.371429 298.245375 
L 235.371429 32.133375 
" style="fill:none;stroke:#b0b0b0;stroke-linecap:square;stroke-width:0.8;"/>
     </g>
     <g id="line2d_9">
      <g>
       <use style="stroke:#000000;stroke-width:0.8;" x="235.371429" xlink:href="#m2f481909c4" y="298.245375"/>
      </g>
     </g>
     <g id="text_3">
      <!-- 4 -->
      <defs>
       <path d="M 37.796875 64.3125 
L 12.890625 25.390625 
L 37.796875 25.390625 
z
M 35.203125 72.90625 
L 47.609375 72.90625 
L 47.609375 25.390625 
L 58.015625 25.390625 
L 58.015625 17.1875 
L 47.609375 17.1875 
L 47.609375 0 
L 37.796875 0 
L 37.796875 17.1875 
L 4.890625 17.1875 
L 4.890625 26.703125 
z
" id="DejaVuSans-34"/>
      </defs>
      <g transform="translate(229.008929 320.44225)scale(0.2 -0.2)">
       <use xlink:href="#DejaVuSans-34"/>
      </g>
     </g>
    </g>
    <g id="xtick_4">
     <g id="line2d_10">
      <path clip-path="url(#p1b7bbd18d3)" d="M 317.657143 298.245375 
L 317.657143 32.133375 
" style="fill:none;stroke:#b0b0b0;stroke-linecap:square;stroke-width:0.8;"/>
     </g>
     <g id="line2d_11">
      <g>
       <use style="stroke:#000000;stroke-width:0.8;" x="317.657143" xlink:href="#m2f481909c4" y="298.245375"/>
      </g>
     </g>
     <g id="text_4">
      <!-- 6 -->
      <defs>
       <path d="M 33.015625 40.375 
Q 26.375 40.375 22.484375 35.828125 
Q 18.609375 31.296875 18.609375 23.390625 
Q 18.609375 15.53125 22.484375 10.953125 
Q 26.375 6.390625 33.015625 6.390625 
Q 39.65625 6.390625 43.53125 10.953125 
Q 47.40625 15.53125 47.40625 23.390625 
Q 47.40625 31.296875 43.53125 35.828125 
Q 39.65625 40.375 33.015625 40.375 
M 52.59375 71.296875 
L 52.59375 62.3125 
Q 48.875 64.0625 45.09375 64.984375 
Q 41.3125 65.921875 37.59375 65.921875 
Q 27.828125 65.921875 22.671875 59.328125 
Q 17.53125 52.734375 16.796875 39.40625 
Q 19.671875 43.65625 24.015625 45.921875 
Q 28.375 48.1875 33.59375 48.1875 
Q 44.578125 48.1875 50.953125 41.515625 
Q 57.328125 34.859375 57.328125 23.390625 
Q 57.328125 12.15625 50.6875 5.359375 
Q 44.046875 -1.421875 33.015625 -1.421875 
Q 20.359375 -1.421875 13.671875 8.265625 
Q 6.984375 17.96875 6.984375 36.375 
Q 6.984375 53.65625 15.1875 63.9375 
Q 23.390625 74.21875 37.203125 74.21875 
Q 40.921875 74.21875 44.703125 73.484375 
Q 48.484375 72.75 52.59375 71.296875 
" id="DejaVuSans-36"/>
      </defs>
      <g transform="translate(311.294643 320.44225)scale(0.2 -0.2)">
       <use xlink:href="#DejaVuSans-36"/>
      </g>
     </g>
    </g>
    <g id="xtick_5">
     <g id="line2d_12">
      <path clip-path="url(#p1b7bbd18d3)" d="M 399.942857 298.245375 
L 399.942857 32.133375 
" style="fill:none;stroke:#b0b0b0;stroke-linecap:square;stroke-width:0.8;"/>
     </g>
     <g id="line2d_13">
      <g>
       <use style="stroke:#000000;stroke-width:0.8;" x="399.942857" xlink:href="#m2f481909c4" y="298.245375"/>
      </g>
     </g>
     <g id="text_5">
      <!-- 8 -->
      <defs>
       <path d="M 31.78125 34.625 
Q 24.75 34.625 20.71875 30.859375 
Q 16.703125 27.09375 16.703125 20.515625 
Q 16.703125 13.921875 20.71875 10.15625 
Q 24.75 6.390625 31.78125 6.390625 
Q 38.8125 6.390625 42.859375 10.171875 
Q 46.921875 13.96875 46.921875 20.515625 
Q 46.921875 27.09375 42.890625 30.859375 
Q 38.875 34.625 31.78125 34.625 
M 21.921875 38.8125 
Q 15.578125 40.375 12.03125 44.71875 
Q 8.5 49.078125 8.5 55.328125 
Q 8.5 64.0625 14.71875 69.140625 
Q 20.953125 74.21875 31.78125 74.21875 
Q 42.671875 74.21875 48.875 69.140625 
Q 55.078125 64.0625 55.078125 55.328125 
Q 55.078125 49.078125 51.53125 44.71875 
Q 48 40.375 41.703125 38.8125 
Q 48.828125 37.15625 52.796875 32.3125 
Q 56.78125 27.484375 56.78125 20.515625 
Q 56.78125 9.90625 50.3125 4.234375 
Q 43.84375 -1.421875 31.78125 -1.421875 
Q 19.734375 -1.421875 13.25 4.234375 
Q 6.78125 9.90625 6.78125 20.515625 
Q 6.78125 27.484375 10.78125 32.3125 
Q 14.796875 37.15625 21.921875 38.8125 
M 18.3125 54.390625 
Q 18.3125 48.734375 21.84375 45.5625 
Q 25.390625 42.390625 31.78125 42.390625 
Q 38.140625 42.390625 41.71875 45.5625 
Q 45.3125 48.734375 45.3125 54.390625 
Q 45.3125 60.0625 41.71875 63.234375 
Q 38.140625 66.40625 31.78125 66.40625 
Q 25.390625 66.40625 21.84375 63.234375 
Q 18.3125 60.0625 18.3125 54.390625 
" id="DejaVuSans-38"/>
      </defs>
      <g transform="translate(393.580357 320.44225)scale(0.2 -0.2)">
       <use xlink:href="#DejaVuSans-38"/>
      </g>
     </g>
    </g>
    <g id="xtick_6">
     <g id="line2d_14">
      <defs>
       <path d="M 0 0 
L 0 2 
" id="m0e2ec57112" style="stroke:#000000;stroke-width:0.6;"/>
      </defs>
      <g>
       <use style="stroke:#000000;stroke-width:0.6;" x="83.185234" xlink:href="#m0e2ec57112" y="298.245375"/>
      </g>
     </g>
    </g>
    <g id="xtick_7">
     <g id="line2d_15">
      <g>
       <use style="stroke:#000000;stroke-width:0.6;" x="95.570468" xlink:href="#m0e2ec57112" y="298.245375"/>
      </g>
     </g>
    </g>
    <g id="xtick_8">
     <g id="line2d_16">
      <g>
       <use style="stroke:#000000;stroke-width:0.6;" x="102.815366" xlink:href="#m0e2ec57112" y="298.245375"/>
      </g>
     </g>
    </g>
    <g id="xtick_9">
     <g id="line2d_17">
      <g>
       <use style="stroke:#000000;stroke-width:0.6;" x="107.955702" xlink:href="#m0e2ec57112" y="298.245375"/>
      </g>
     </g>
    </g>
    <g id="xtick_10">
     <g id="line2d_18">
      <g>
       <use style="stroke:#000000;stroke-width:0.6;" x="165.470948" xlink:href="#m0e2ec57112" y="298.245375"/>
      </g>
     </g>
    </g>
    <g id="xtick_11">
     <g id="line2d_19">
      <g>
       <use style="stroke:#000000;stroke-width:0.6;" x="177.856183" xlink:href="#m0e2ec57112" y="298.245375"/>
      </g>
     </g>
    </g>
    <g id="xtick_12">
     <g id="line2d_20">
      <g>
       <use style="stroke:#000000;stroke-width:0.6;" x="185.10108" xlink:href="#m0e2ec57112" y="298.245375"/>
      </g>
     </g>
    </g>
    <g id="xtick_13">
     <g id="line2d_21">
      <g>
       <use style="stroke:#000000;stroke-width:0.6;" x="190.241417" xlink:href="#m0e2ec57112" y="298.245375"/>
      </g>
     </g>
    </g>
    <g id="xtick_14">
     <g id="line2d_22">
      <g>
       <use style="stroke:#000000;stroke-width:0.6;" x="247.756663" xlink:href="#m0e2ec57112" y="298.245375"/>
      </g>
     </g>
    </g>
    <g id="xtick_15">
     <g id="line2d_23">
      <g>
       <use style="stroke:#000000;stroke-width:0.6;" x="260.141897" xlink:href="#m0e2ec57112" y="298.245375"/>
      </g>
     </g>
    </g>
    <g id="xtick_16">
     <g id="line2d_24">
      <g>
       <use style="stroke:#000000;stroke-width:0.6;" x="267.386794" xlink:href="#m0e2ec57112" y="298.245375"/>
      </g>
     </g>
    </g>
    <g id="xtick_17">
     <g id="line2d_25">
      <g>
       <use style="stroke:#000000;stroke-width:0.6;" x="272.527131" xlink:href="#m0e2ec57112" y="298.245375"/>
      </g>
     </g>
    </g>
    <g id="xtick_18">
     <g id="line2d_26">
      <g>
       <use style="stroke:#000000;stroke-width:0.6;" x="330.042377" xlink:href="#m0e2ec57112" y="298.245375"/>
      </g>
     </g>
    </g>
    <g id="xtick_19">
     <g id="line2d_27">
      <g>
       <use style="stroke:#000000;stroke-width:0.6;" x="342.427611" xlink:href="#m0e2ec57112" y="298.245375"/>
      </g>
     </g>
    </g>
    <g id="xtick_20">
     <g id="line2d_28">
      <g>
       <use style="stroke:#000000;stroke-width:0.6;" x="349.672509" xlink:href="#m0e2ec57112" y="298.245375"/>
      </g>
     </g>
    </g>
    <g id="xtick_21">
     <g id="line2d_29">
      <g>
       <use style="stroke:#000000;stroke-width:0.6;" x="354.812845" xlink:href="#m0e2ec57112" y="298.245375"/>
      </g>
     </g>
    </g>
    <g id="xtick_22">
     <g id="line2d_30">
      <g>
       <use style="stroke:#000000;stroke-width:0.6;" x="412.328091" xlink:href="#m0e2ec57112" y="298.245375"/>
      </g>
     </g>
    </g>
    <g id="xtick_23">
     <g id="line2d_31">
      <g>
       <use style="stroke:#000000;stroke-width:0.6;" x="424.713325" xlink:href="#m0e2ec57112" y="298.245375"/>
      </g>
     </g>
    </g>
    <g id="text_6">
     <!-- log10 of (# f-evals / dimension) -->
     <defs>
      <path d="M 9.421875 75.984375 
L 18.40625 75.984375 
L 18.40625 0 
L 9.421875 0 
z
" id="DejaVuSans-6c"/>
      <path d="M 30.609375 48.390625 
Q 23.390625 48.390625 19.1875 42.75 
Q 14.984375 37.109375 14.984375 27.296875 
Q 14.984375 17.484375 19.15625 11.84375 
Q 23.34375 6.203125 30.609375 6.203125 
Q 37.796875 6.203125 41.984375 11.859375 
Q 46.1875 17.53125 46.1875 27.296875 
Q 46.1875 37.015625 41.984375 42.703125 
Q 37.796875 48.390625 30.609375 48.390625 
M 30.609375 56 
Q 42.328125 56 49.015625 48.375 
Q 55.71875 40.765625 55.71875 27.296875 
Q 55.71875 13.875 49.015625 6.21875 
Q 42.328125 -1.421875 30.609375 -1.421875 
Q 18.84375 -1.421875 12.171875 6.21875 
Q 5.515625 13.875 5.515625 27.296875 
Q 5.515625 40.765625 12.171875 48.375 
Q 18.84375 56 30.609375 56 
" id="DejaVuSans-6f"/>
      <path d="M 45.40625 27.984375 
Q 45.40625 37.75 41.375 43.109375 
Q 37.359375 48.484375 30.078125 48.484375 
Q 22.859375 48.484375 18.828125 43.109375 
Q 14.796875 37.75 14.796875 27.984375 
Q 14.796875 18.265625 18.828125 12.890625 
Q 22.859375 7.515625 30.078125 7.515625 
Q 37.359375 7.515625 41.375 12.890625 
Q 45.40625 18.265625 45.40625 27.984375 
M 54.390625 6.78125 
Q 54.390625 -7.171875 48.1875 -13.984375 
Q 42 -20.796875 29.203125 -20.796875 
Q 24.46875 -20.796875 20.265625 -20.09375 
Q 16.0625 -19.390625 12.109375 -17.921875 
L 12.109375 -9.1875 
Q 16.0625 -11.328125 19.921875 -12.34375 
Q 23.78125 -13.375 27.78125 -13.375 
Q 36.625 -13.375 41.015625 -8.765625 
Q 45.40625 -4.15625 45.40625 5.171875 
L 45.40625 9.625 
Q 42.625 4.78125 38.28125 2.390625 
Q 33.9375 0 27.875 0 
Q 17.828125 0 11.671875 7.65625 
Q 5.515625 15.328125 5.515625 27.984375 
Q 5.515625 40.671875 11.671875 48.328125 
Q 17.828125 56 27.875 56 
Q 33.9375 56 38.28125 53.609375 
Q 42.625 51.21875 45.40625 46.390625 
L 45.40625 54.6875 
L 54.390625 54.6875 
z
" id="DejaVuSans-67"/>
      <path d="M 12.40625 8.296875 
L 28.515625 8.296875 
L 28.515625 63.921875 
L 10.984375 60.40625 
L 10.984375 69.390625 
L 28.421875 72.90625 
L 38.28125 72.90625 
L 38.28125 8.296875 
L 54.390625 8.296875 
L 54.390625 0 
L 12.40625 0 
z
" id="DejaVuSans-31"/>
      <path id="DejaVuSans-20"/>
      <path d="M 37.109375 75.984375 
L 37.109375 68.5 
L 28.515625 68.5 
Q 23.6875 68.5 21.796875 66.546875 
Q 19.921875 64.59375 19.921875 59.515625 
L 19.921875 54.6875 
L 34.71875 54.6875 
L 34.71875 47.703125 
L 19.921875 47.703125 
L 19.921875 0 
L 10.890625 0 
L 10.890625 47.703125 
L 2.296875 47.703125 
L 2.296875 54.6875 
L 10.890625 54.6875 
L 10.890625 58.5 
Q 10.890625 67.625 15.140625 71.796875 
Q 19.390625 75.984375 28.609375 75.984375 
z
" id="DejaVuSans-66"/>
      <path d="M 31 75.875 
Q 24.46875 64.65625 21.28125 53.65625 
Q 18.109375 42.671875 18.109375 31.390625 
Q 18.109375 20.125 21.3125 9.0625 
Q 24.515625 -2 31 -13.1875 
L 23.1875 -13.1875 
Q 15.875 -1.703125 12.234375 9.375 
Q 8.59375 20.453125 8.59375 31.390625 
Q 8.59375 42.28125 12.203125 53.3125 
Q 15.828125 64.359375 23.1875 75.875 
z
" id="DejaVuSans-28"/>
      <path d="M 51.125 44 
L 36.921875 44 
L 32.8125 27.6875 
L 47.125 27.6875 
z
M 43.796875 71.78125 
L 38.71875 51.515625 
L 52.984375 51.515625 
L 58.109375 71.78125 
L 65.921875 71.78125 
L 60.890625 51.515625 
L 76.125 51.515625 
L 76.125 44 
L 58.984375 44 
L 54.984375 27.6875 
L 70.515625 27.6875 
L 70.515625 20.21875 
L 53.078125 20.21875 
L 48 0 
L 40.1875 0 
L 45.21875 20.21875 
L 30.90625 20.21875 
L 25.875 0 
L 18.015625 0 
L 23.09375 20.21875 
L 7.71875 20.21875 
L 7.71875 27.6875 
L 24.90625 27.6875 
L 29 44 
L 13.28125 44 
L 13.28125 51.515625 
L 30.90625 51.515625 
L 35.890625 71.78125 
z
" id="DejaVuSans-23"/>
      <path d="M 4.890625 31.390625 
L 31.203125 31.390625 
L 31.203125 23.390625 
L 4.890625 23.390625 
z
" id="DejaVuSans-2d"/>
      <path d="M 56.203125 29.59375 
L 56.203125 25.203125 
L 14.890625 25.203125 
Q 15.484375 15.921875 20.484375 11.0625 
Q 25.484375 6.203125 34.421875 6.203125 
Q 39.59375 6.203125 44.453125 7.46875 
Q 49.3125 8.734375 54.109375 11.28125 
L 54.109375 2.78125 
Q 49.265625 0.734375 44.1875 -0.34375 
Q 39.109375 -1.421875 33.890625 -1.421875 
Q 20.796875 -1.421875 13.15625 6.1875 
Q 5.515625 13.8125 5.515625 26.8125 
Q 5.515625 40.234375 12.765625 48.109375 
Q 20.015625 56 32.328125 56 
Q 43.359375 56 49.78125 48.890625 
Q 56.203125 41.796875 56.203125 29.59375 
M 47.21875 32.234375 
Q 47.125 39.59375 43.09375 43.984375 
Q 39.0625 48.390625 32.421875 48.390625 
Q 24.90625 48.390625 20.390625 44.140625 
Q 15.875 39.890625 15.1875 32.171875 
z
" id="DejaVuSans-65"/>
      <path d="M 2.984375 54.6875 
L 12.5 54.6875 
L 29.59375 8.796875 
L 46.6875 54.6875 
L 56.203125 54.6875 
L 35.6875 0 
L 23.484375 0 
z
" id="DejaVuSans-76"/>
      <path d="M 34.28125 27.484375 
Q 23.390625 27.484375 19.1875 25 
Q 14.984375 22.515625 14.984375 16.5 
Q 14.984375 11.71875 18.140625 8.90625 
Q 21.296875 6.109375 26.703125 6.109375 
Q 34.1875 6.109375 38.703125 11.40625 
Q 43.21875 16.703125 43.21875 25.484375 
L 43.21875 27.484375 
z
M 52.203125 31.203125 
L 52.203125 0 
L 43.21875 0 
L 43.21875 8.296875 
Q 40.140625 3.328125 35.546875 0.953125 
Q 30.953125 -1.421875 24.3125 -1.421875 
Q 15.921875 -1.421875 10.953125 3.296875 
Q 6 8.015625 6 15.921875 
Q 6 25.140625 12.171875 29.828125 
Q 18.359375 34.515625 30.609375 34.515625 
L 43.21875 34.515625 
L 43.21875 35.40625 
Q 43.21875 41.609375 39.140625 45 
Q 35.0625 48.390625 27.6875 48.390625 
Q 23 48.390625 18.546875 47.265625 
Q 14.109375 46.140625 10.015625 43.890625 
L 10.015625 52.203125 
Q 14.9375 54.109375 19.578125 55.046875 
Q 24.21875 56 28.609375 56 
Q 40.484375 56 46.34375 49.84375 
Q 52.203125 43.703125 52.203125 31.203125 
" id="DejaVuSans-61"/>
      <path d="M 44.28125 53.078125 
L 44.28125 44.578125 
Q 40.484375 46.53125 36.375 47.5 
Q 32.28125 48.484375 27.875 48.484375 
Q 21.1875 48.484375 17.84375 46.4375 
Q 14.5 44.390625 14.5 40.28125 
Q 14.5 37.15625 16.890625 35.375 
Q 19.28125 33.59375 26.515625 31.984375 
L 29.59375 31.296875 
Q 39.15625 29.25 43.1875 25.515625 
Q 47.21875 21.78125 47.21875 15.09375 
Q 47.21875 7.46875 41.1875 3.015625 
Q 35.15625 -1.421875 24.609375 -1.421875 
Q 20.21875 -1.421875 15.453125 -0.5625 
Q 10.6875 0.296875 5.421875 2 
L 5.421875 11.28125 
Q 10.40625 8.6875 15.234375 7.390625 
Q 20.0625 6.109375 24.8125 6.109375 
Q 31.15625 6.109375 34.5625 8.28125 
Q 37.984375 10.453125 37.984375 14.40625 
Q 37.984375 18.0625 35.515625 20.015625 
Q 33.0625 21.96875 24.703125 23.78125 
L 21.578125 24.515625 
Q 13.234375 26.265625 9.515625 29.90625 
Q 5.8125 33.546875 5.8125 39.890625 
Q 5.8125 47.609375 11.28125 51.796875 
Q 16.75 56 26.8125 56 
Q 31.78125 56 36.171875 55.265625 
Q 40.578125 54.546875 44.28125 53.078125 
" id="DejaVuSans-73"/>
      <path d="M 25.390625 72.90625 
L 33.6875 72.90625 
L 8.296875 -9.28125 
L 0 -9.28125 
z
" id="DejaVuSans-2f"/>
      <path d="M 45.40625 46.390625 
L 45.40625 75.984375 
L 54.390625 75.984375 
L 54.390625 0 
L 45.40625 0 
L 45.40625 8.203125 
Q 42.578125 3.328125 38.25 0.953125 
Q 33.9375 -1.421875 27.875 -1.421875 
Q 17.96875 -1.421875 11.734375 6.484375 
Q 5.515625 14.40625 5.515625 27.296875 
Q 5.515625 40.1875 11.734375 48.09375 
Q 17.96875 56 27.875 56 
Q 33.9375 56 38.25 53.625 
Q 42.578125 51.265625 45.40625 46.390625 
M 14.796875 27.296875 
Q 14.796875 17.390625 18.875 11.75 
Q 22.953125 6.109375 30.078125 6.109375 
Q 37.203125 6.109375 41.296875 11.75 
Q 45.40625 17.390625 45.40625 27.296875 
Q 45.40625 37.203125 41.296875 42.84375 
Q 37.203125 48.484375 30.078125 48.484375 
Q 22.953125 48.484375 18.875 42.84375 
Q 14.796875 37.203125 14.796875 27.296875 
" id="DejaVuSans-64"/>
      <path d="M 9.421875 54.6875 
L 18.40625 54.6875 
L 18.40625 0 
L 9.421875 0 
z
M 9.421875 75.984375 
L 18.40625 75.984375 
L 18.40625 64.59375 
L 9.421875 64.59375 
z
" id="DejaVuSans-69"/>
      <path d="M 52 44.1875 
Q 55.375 50.25 60.0625 53.125 
Q 64.75 56 71.09375 56 
Q 79.640625 56 84.28125 50.015625 
Q 88.921875 44.046875 88.921875 33.015625 
L 88.921875 0 
L 79.890625 0 
L 79.890625 32.71875 
Q 79.890625 40.578125 77.09375 44.375 
Q 74.3125 48.1875 68.609375 48.1875 
Q 61.625 48.1875 57.5625 43.546875 
Q 53.515625 38.921875 53.515625 30.90625 
L 53.515625 0 
L 44.484375 0 
L 44.484375 32.71875 
Q 44.484375 40.625 41.703125 44.40625 
Q 38.921875 48.1875 33.109375 48.1875 
Q 26.21875 48.1875 22.15625 43.53125 
Q 18.109375 38.875 18.109375 30.90625 
L 18.109375 0 
L 9.078125 0 
L 9.078125 54.6875 
L 18.109375 54.6875 
L 18.109375 46.1875 
Q 21.1875 51.21875 25.484375 53.609375 
Q 29.78125 56 35.6875 56 
Q 41.65625 56 45.828125 52.96875 
Q 50 49.953125 52 44.1875 
" id="DejaVuSans-6d"/>
      <path d="M 54.890625 33.015625 
L 54.890625 0 
L 45.90625 0 
L 45.90625 32.71875 
Q 45.90625 40.484375 42.875 44.328125 
Q 39.84375 48.1875 33.796875 48.1875 
Q 26.515625 48.1875 22.3125 43.546875 
Q 18.109375 38.921875 18.109375 30.90625 
L 18.109375 0 
L 9.078125 0 
L 9.078125 54.6875 
L 18.109375 54.6875 
L 18.109375 46.1875 
Q 21.34375 51.125 25.703125 53.5625 
Q 30.078125 56 35.796875 56 
Q 45.21875 56 50.046875 50.171875 
Q 54.890625 44.34375 54.890625 33.015625 
" id="DejaVuSans-6e"/>
      <path d="M 8.015625 75.875 
L 15.828125 75.875 
Q 23.140625 64.359375 26.78125 53.3125 
Q 30.421875 42.28125 30.421875 31.390625 
Q 30.421875 20.453125 26.78125 9.375 
Q 23.140625 -1.703125 15.828125 -13.1875 
L 8.015625 -13.1875 
Q 14.5 -2 17.703125 9.0625 
Q 20.90625 20.125 20.90625 31.390625 
Q 20.90625 42.671875 17.703125 53.65625 
Q 14.5 64.65625 8.015625 75.875 
" id="DejaVuSans-29"/>
     </defs>
     <g transform="translate(107.015156 342.278812)scale(0.18 -0.18)">
      <use xlink:href="#DejaVuSans-6c"/>
      <use x="27.783203" xlink:href="#DejaVuSans-6f"/>
      <use x="88.964844" xlink:href="#DejaVuSans-67"/>
      <use x="152.441406" xlink:href="#DejaVuSans-31"/>
      <use x="216.064453" xlink:href="#DejaVuSans-30"/>
      <use x="279.6875" xlink:href="#DejaVuSans-20"/>
      <use x="311.474609" xlink:href="#DejaVuSans-6f"/>
      <use x="372.65625" xlink:href="#DejaVuSans-66"/>
      <use x="407.861328" xlink:href="#DejaVuSans-20"/>
      <use x="439.648438" xlink:href="#DejaVuSans-28"/>
      <use x="478.662109" xlink:href="#DejaVuSans-23"/>
      <use x="562.451172" xlink:href="#DejaVuSans-20"/>
      <use x="594.238281" xlink:href="#DejaVuSans-66"/>
      <use x="629.365234" xlink:href="#DejaVuSans-2d"/>
      <use x="665.449219" xlink:href="#DejaVuSans-65"/>
      <use x="726.972656" xlink:href="#DejaVuSans-76"/>
      <use x="786.152344" xlink:href="#DejaVuSans-61"/>
      <use x="847.431641" xlink:href="#DejaVuSans-6c"/>
      <use x="875.214844" xlink:href="#DejaVuSans-73"/>
      <use x="927.314453" xlink:href="#DejaVuSans-20"/>
      <use x="959.101562" xlink:href="#DejaVuSans-2f"/>
      <use x="992.792969" xlink:href="#DejaVuSans-20"/>
      <use x="1024.580078" xlink:href="#DejaVuSans-64"/>
      <use x="1088.056641" xlink:href="#DejaVuSans-69"/>
      <use x="1115.839844" xlink:href="#DejaVuSans-6d"/>
      <use x="1213.251953" xlink:href="#DejaVuSans-65"/>
      <use x="1274.775391" xlink:href="#DejaVuSans-6e"/>
      <use x="1338.154297" xlink:href="#DejaVuSans-73"/>
      <use x="1390.253906" xlink:href="#DejaVuSans-69"/>
      <use x="1418.037109" xlink:href="#DejaVuSans-6f"/>
      <use x="1479.21875" xlink:href="#DejaVuSans-6e"/>
      <use x="1542.597656" xlink:href="#DejaVuSans-29"/>
     </g>
    </g>
   </g>
   <g id="matplotlib.axis_2">
    <g id="ytick_1">
     <g id="line2d_32">
      <path clip-path="url(#p1b7bbd18d3)" d="M 70.8 298.245375 
L 427.92 298.245375 
" style="fill:none;stroke:#b0b0b0;stroke-linecap:square;stroke-width:0.8;"/>
     </g>
     <g id="line2d_33">
      <defs>
       <path d="M 0 0 
L -3.5 0 
" id="m23c4680d19" style="stroke:#000000;stroke-width:0.8;"/>
      </defs>
      <g>
       <use style="stroke:#000000;stroke-width:0.8;" x="70.8" xlink:href="#m23c4680d19" y="298.245375"/>
      </g>
     </g>
     <g id="text_7">
      <!-- 0.0 -->
      <defs>
       <path d="M 10.6875 12.40625 
L 21 12.40625 
L 21 0 
L 10.6875 0 
z
" id="DejaVuSans-2e"/>
      </defs>
      <g transform="translate(31.99375 305.843812)scale(0.2 -0.2)">
       <use xlink:href="#DejaVuSans-30"/>
       <use x="63.623047" xlink:href="#DejaVuSans-2e"/>
       <use x="95.410156" xlink:href="#DejaVuSans-30"/>
      </g>
     </g>
    </g>
    <g id="ytick_2">
     <g id="line2d_34">
      <path clip-path="url(#p1b7bbd18d3)" d="M 70.8 245.549929 
L 427.92 245.549929 
" style="fill:none;stroke:#b0b0b0;stroke-linecap:square;stroke-width:0.8;"/>
     </g>
     <g id="line2d_35">
      <g>
       <use style="stroke:#000000;stroke-width:0.8;" x="70.8" xlink:href="#m23c4680d19" y="245.549929"/>
      </g>
     </g>
     <g id="text_8">
      <!-- 0.2 -->
      <g transform="translate(31.99375 253.148367)scale(0.2 -0.2)">
       <use xlink:href="#DejaVuSans-30"/>
       <use x="63.623047" xlink:href="#DejaVuSans-2e"/>
       <use x="95.410156" xlink:href="#DejaVuSans-32"/>
      </g>
     </g>
    </g>
    <g id="ytick_3">
     <g id="line2d_36">
      <path clip-path="url(#p1b7bbd18d3)" d="M 70.8 192.854484 
L 427.92 192.854484 
" style="fill:none;stroke:#b0b0b0;stroke-linecap:square;stroke-width:0.8;"/>
     </g>
     <g id="line2d_37">
      <g>
       <use style="stroke:#000000;stroke-width:0.8;" x="70.8" xlink:href="#m23c4680d19" y="192.854484"/>
      </g>
     </g>
     <g id="text_9">
      <!-- 0.4 -->
      <g transform="translate(31.99375 200.452921)scale(0.2 -0.2)">
       <use xlink:href="#DejaVuSans-30"/>
       <use x="63.623047" xlink:href="#DejaVuSans-2e"/>
       <use x="95.410156" xlink:href="#DejaVuSans-34"/>
      </g>
     </g>
    </g>
    <g id="ytick_4">
     <g id="line2d_38">
      <path clip-path="url(#p1b7bbd18d3)" d="M 70.8 140.159038 
L 427.92 140.159038 
" style="fill:none;stroke:#b0b0b0;stroke-linecap:square;stroke-width:0.8;"/>
     </g>
     <g id="line2d_39">
      <g>
       <use style="stroke:#000000;stroke-width:0.8;" x="70.8" xlink:href="#m23c4680d19" y="140.159038"/>
      </g>
     </g>
     <g id="text_10">
      <!-- 0.6 -->
      <g transform="translate(31.99375 147.757476)scale(0.2 -0.2)">
       <use xlink:href="#DejaVuSans-30"/>
       <use x="63.623047" xlink:href="#DejaVuSans-2e"/>
       <use x="95.410156" xlink:href="#DejaVuSans-36"/>
      </g>
     </g>
    </g>
    <g id="ytick_5">
     <g id="line2d_40">
      <path clip-path="url(#p1b7bbd18d3)" d="M 70.8 87.463593 
L 427.92 87.463593 
" style="fill:none;stroke:#b0b0b0;stroke-linecap:square;stroke-width:0.8;"/>
     </g>
     <g id="line2d_41">
      <g>
       <use style="stroke:#000000;stroke-width:0.8;" x="70.8" xlink:href="#m23c4680d19" y="87.463593"/>
      </g>
     </g>
     <g id="text_11">
      <!-- 0.8 -->
      <g transform="translate(31.99375 95.06203)scale(0.2 -0.2)">
       <use xlink:href="#DejaVuSans-30"/>
       <use x="63.623047" xlink:href="#DejaVuSans-2e"/>
       <use x="95.410156" xlink:href="#DejaVuSans-38"/>
      </g>
     </g>
    </g>
    <g id="ytick_6">
     <g id="line2d_42">
      <path clip-path="url(#p1b7bbd18d3)" d="M 70.8 34.768147 
L 427.92 34.768147 
" style="fill:none;stroke:#b0b0b0;stroke-linecap:square;stroke-width:0.8;"/>
     </g>
     <g id="line2d_43">
      <g>
       <use style="stroke:#000000;stroke-width:0.8;" x="70.8" xlink:href="#m23c4680d19" y="34.768147"/>
      </g>
     </g>
     <g id="text_12">
      <!-- 1.0 -->
      <g transform="translate(31.99375 42.366585)scale(0.2 -0.2)">
       <use xlink:href="#DejaVuSans-31"/>
       <use x="63.623047" xlink:href="#DejaVuSans-2e"/>
       <use x="95.410156" xlink:href="#DejaVuSans-30"/>
      </g>
     </g>
    </g>
    <g id="text_13">
     <!-- Proportion of function+target pairs -->
     <defs>
      <path d="M 19.671875 64.796875 
L 19.671875 37.40625 
L 32.078125 37.40625 
Q 38.96875 37.40625 42.71875 40.96875 
Q 46.484375 44.53125 46.484375 51.125 
Q 46.484375 57.671875 42.71875 61.234375 
Q 38.96875 64.796875 32.078125 64.796875 
z
M 9.8125 72.90625 
L 32.078125 72.90625 
Q 44.34375 72.90625 50.609375 67.359375 
Q 56.890625 61.8125 56.890625 51.125 
Q 56.890625 40.328125 50.609375 34.8125 
Q 44.34375 29.296875 32.078125 29.296875 
L 19.671875 29.296875 
L 19.671875 0 
L 9.8125 0 
z
" id="DejaVuSans-50"/>
      <path d="M 41.109375 46.296875 
Q 39.59375 47.171875 37.8125 47.578125 
Q 36.03125 48 33.890625 48 
Q 26.265625 48 22.1875 43.046875 
Q 18.109375 38.09375 18.109375 28.8125 
L 18.109375 0 
L 9.078125 0 
L 9.078125 54.6875 
L 18.109375 54.6875 
L 18.109375 46.1875 
Q 20.953125 51.171875 25.484375 53.578125 
Q 30.03125 56 36.53125 56 
Q 37.453125 56 38.578125 55.875 
Q 39.703125 55.765625 41.0625 55.515625 
z
" id="DejaVuSans-72"/>
      <path d="M 18.109375 8.203125 
L 18.109375 -20.796875 
L 9.078125 -20.796875 
L 9.078125 54.6875 
L 18.109375 54.6875 
L 18.109375 46.390625 
Q 20.953125 51.265625 25.265625 53.625 
Q 29.59375 56 35.59375 56 
Q 45.5625 56 51.78125 48.09375 
Q 58.015625 40.1875 58.015625 27.296875 
Q 58.015625 14.40625 51.78125 6.484375 
Q 45.5625 -1.421875 35.59375 -1.421875 
Q 29.59375 -1.421875 25.265625 0.953125 
Q 20.953125 3.328125 18.109375 8.203125 
M 48.6875 27.296875 
Q 48.6875 37.203125 44.609375 42.84375 
Q 40.53125 48.484375 33.40625 48.484375 
Q 26.265625 48.484375 22.1875 42.84375 
Q 18.109375 37.203125 18.109375 27.296875 
Q 18.109375 17.390625 22.1875 11.75 
Q 26.265625 6.109375 33.40625 6.109375 
Q 40.53125 6.109375 44.609375 11.75 
Q 48.6875 17.390625 48.6875 27.296875 
" id="DejaVuSans-70"/>
      <path d="M 18.3125 70.21875 
L 18.3125 54.6875 
L 36.8125 54.6875 
L 36.8125 47.703125 
L 18.3125 47.703125 
L 18.3125 18.015625 
Q 18.3125 11.328125 20.140625 9.421875 
Q 21.96875 7.515625 27.59375 7.515625 
L 36.8125 7.515625 
L 36.8125 0 
L 27.59375 0 
Q 17.1875 0 13.234375 3.875 
Q 9.28125 7.765625 9.28125 18.015625 
L 9.28125 47.703125 
L 2.6875 47.703125 
L 2.6875 54.6875 
L 9.28125 54.6875 
L 9.28125 70.21875 
z
" id="DejaVuSans-74"/>
      <path d="M 8.5 21.578125 
L 8.5 54.6875 
L 17.484375 54.6875 
L 17.484375 21.921875 
Q 17.484375 14.15625 20.5 10.265625 
Q 23.53125 6.390625 29.59375 6.390625 
Q 36.859375 6.390625 41.078125 11.03125 
Q 45.3125 15.671875 45.3125 23.6875 
L 45.3125 54.6875 
L 54.296875 54.6875 
L 54.296875 0 
L 45.3125 0 
L 45.3125 8.40625 
Q 42.046875 3.421875 37.71875 1 
Q 33.40625 -1.421875 27.6875 -1.421875 
Q 18.265625 -1.421875 13.375 4.4375 
Q 8.5 10.296875 8.5 21.578125 
M 31.109375 56 
z
" id="DejaVuSans-75"/>
      <path d="M 48.78125 52.59375 
L 48.78125 44.1875 
Q 44.96875 46.296875 41.140625 47.34375 
Q 37.3125 48.390625 33.40625 48.390625 
Q 24.65625 48.390625 19.8125 42.84375 
Q 14.984375 37.3125 14.984375 27.296875 
Q 14.984375 17.28125 19.8125 11.734375 
Q 24.65625 6.203125 33.40625 6.203125 
Q 37.3125 6.203125 41.140625 7.25 
Q 44.96875 8.296875 48.78125 10.40625 
L 48.78125 2.09375 
Q 45.015625 0.34375 40.984375 -0.53125 
Q 36.96875 -1.421875 32.421875 -1.421875 
Q 20.0625 -1.421875 12.78125 6.34375 
Q 5.515625 14.109375 5.515625 27.296875 
Q 5.515625 40.671875 12.859375 48.328125 
Q 20.21875 56 33.015625 56 
Q 37.15625 56 41.109375 55.140625 
Q 45.0625 54.296875 48.78125 52.59375 
" id="DejaVuSans-63"/>
      <path d="M 46 62.703125 
L 46 35.5 
L 73.1875 35.5 
L 73.1875 27.203125 
L 46 27.203125 
L 46 0 
L 37.796875 0 
L 37.796875 27.203125 
L 10.59375 27.203125 
L 10.59375 35.5 
L 37.796875 35.5 
L 37.796875 62.703125 
z
" id="DejaVuSans-2b"/>
     </defs>
     <g transform="translate(24.250312 323.17875)rotate(-90)scale(0.18 -0.18)">
      <use xlink:href="#DejaVuSans-50"/>
      <use x="60.287109" xlink:href="#DejaVuSans-72"/>
      <use x="101.369141" xlink:href="#DejaVuSans-6f"/>
      <use x="162.550781" xlink:href="#DejaVuSans-70"/>
      <use x="226.027344" xlink:href="#DejaVuSans-6f"/>
      <use x="287.208984" xlink:href="#DejaVuSans-72"/>
      <use x="328.322266" xlink:href="#DejaVuSans-74"/>
      <use x="367.53125" xlink:href="#DejaVuSans-69"/>
      <use x="395.314453" xlink:href="#DejaVuSans-6f"/>
      <use x="456.496094" xlink:href="#DejaVuSans-6e"/>
      <use x="519.875" xlink:href="#DejaVuSans-20"/>
      <use x="551.662109" xlink:href="#DejaVuSans-6f"/>
      <use x="612.84375" xlink:href="#DejaVuSans-66"/>
      <use x="648.048828" xlink:href="#DejaVuSans-20"/>
      <use x="679.835938" xlink:href="#DejaVuSans-66"/>
      <use x="715.041016" xlink:href="#DejaVuSans-75"/>
      <use x="778.419922" xlink:href="#DejaVuSans-6e"/>
      <use x="841.798828" xlink:href="#DejaVuSans-63"/>
      <use x="896.779297" xlink:href="#DejaVuSans-74"/>
      <use x="935.988281" xlink:href="#DejaVuSans-69"/>
      <use x="963.771484" xlink:href="#DejaVuSans-6f"/>
      <use x="1024.953125" xlink:href="#DejaVuSans-6e"/>
      <use x="1088.332031" xlink:href="#DejaVuSans-2b"/>
      <use x="1172.121094" xlink:href="#DejaVuSans-74"/>
      <use x="1211.330078" xlink:href="#DejaVuSans-61"/>
      <use x="1272.609375" xlink:href="#DejaVuSans-72"/>
      <use x="1313.707031" xlink:href="#DejaVuSans-67"/>
      <use x="1377.183594" xlink:href="#DejaVuSans-65"/>
      <use x="1438.707031" xlink:href="#DejaVuSans-74"/>
      <use x="1477.916016" xlink:href="#DejaVuSans-20"/>
      <use x="1509.703125" xlink:href="#DejaVuSans-70"/>
      <use x="1573.179688" xlink:href="#DejaVuSans-61"/>
      <use x="1634.458984" xlink:href="#DejaVuSans-69"/>
      <use x="1662.242188" xlink:href="#DejaVuSans-72"/>
      <use x="1703.355469" xlink:href="#DejaVuSans-73"/>
     </g>
    </g>
   </g>
   <g id="line2d_44">
    <defs>
     <path d="M 0 1.5 
C 0.397805 1.5 0.77937 1.341951 1.06066 1.06066 
C 1.341951 0.77937 1.5 0.397805 1.5 0 
C 1.5 -0.397805 1.341951 -0.77937 1.06066 -1.06066 
C 0.77937 -1.341951 0.397805 -1.5 0 -1.5 
C -0.397805 -1.5 -0.77937 -1.341951 -1.06066 -1.06066 
C -1.341951 -0.77937 -1.5 -0.397805 -1.5 0 
C -1.5 0.397805 -1.341951 0.77937 -1.06066 1.06066 
C -0.77937 1.341951 -0.397805 1.5 0 1.5 
z
" id="md4b9b8be78" style="stroke:#f5deb3;"/>
    </defs>
    <g>
     <use style="fill:#f5deb3;stroke:#f5deb3;" x="214.352134" xlink:href="#md4b9b8be78" y="34.768147"/>
     <use style="fill:#f5deb3;stroke:#f5deb3;" x="214.352134" xlink:href="#md4b9b8be78" y="34.768147"/>
    </g>
   </g>
   <g id="line2d_45">
    <g>
     <use style="fill:#f5deb3;stroke:#f5deb3;stroke-linejoin:miter;stroke-width:1.5;" x="98.32485" xlink:href="#mbf06a5e543" y="265.181566"/>
     <use style="fill:#f5deb3;stroke:#f5deb3;stroke-linejoin:miter;stroke-width:1.5;" x="176.845377" xlink:href="#mbf06a5e543" y="206.286656"/>
     <use style="fill:#f5deb3;stroke:#f5deb3;stroke-linejoin:miter;stroke-width:1.5;" x="204.132299" xlink:href="#mbf06a5e543" y="119.494158"/>
     <use style="fill:#f5deb3;stroke:#f5deb3;stroke-linejoin:miter;stroke-width:1.5;" x="214.352134" xlink:href="#mbf06a5e543" y="35.801391"/>
     <use style="fill:#f5deb3;stroke:#f5deb3;stroke-linejoin:miter;stroke-width:1.5;" x="214.352134" xlink:href="#mbf06a5e543" y="34.768147"/>
     <use style="fill:#f5deb3;stroke:#f5deb3;stroke-linejoin:miter;stroke-width:1.5;" x="358.8" xlink:href="#mbf06a5e543" y="34.768147"/>
    </g>
   </g>
   <g id="line2d_46">
    <defs>
     <path d="M 0 1.5 
C 0.397805 1.5 0.77937 1.341951 1.06066 1.06066 
C 1.341951 0.77937 1.5 0.397805 1.5 0 
C 1.5 -0.397805 1.341951 -0.77937 1.06066 -1.06066 
C 0.77937 -1.341951 0.397805 -1.5 0 -1.5 
C -0.397805 -1.5 -0.77937 -1.341951 -1.06066 -1.06066 
C -1.341951 -0.77937 -1.5 -0.397805 -1.5 0 
C -1.5 0.397805 -1.341951 0.77937 -1.06066 1.06066 
C -0.77937 1.341951 -0.397805 1.5 0 1.5 
z
" id="m617016c533" style="stroke:#ff00ff;"/>
    </defs>
    <g>
     <use style="fill:#ff00ff;stroke:#ff00ff;" x="259.584288" xlink:href="#m617016c533" y="158.757431"/>
     <use style="fill:#ff00ff;stroke:#ff00ff;" x="259.584288" xlink:href="#m617016c533" y="158.757431"/>
    </g>
   </g>
   <g id="line2d_47">
    <path d="M 51.169868 298.245375 
L 51.169868 289.256152 
L 63.555102 289.256152 
L 63.555102 288.429557 
L 70.8 288.429557 
L 70.8 286.673042 
L 75.940337 286.673042 
L 75.940337 286.466393 
L 79.927491 286.466393 
L 79.927491 286.259744 
L 85.939616 286.15642 
L 85.939616 285.329825 
L 92.312726 285.2265 
L 92.312726 283.469985 
L 94.015739 283.469985 
L 94.015739 282.333417 
L 95.570468 282.333417 
L 95.570468 281.816795 
L 98.32485 281.816795 
L 98.32485 281.403497 
L 99.557623 281.403497 
L 99.557623 280.886875 
L 100.710805 280.886875 
L 100.710805 279.750307 
L 101.794053 279.750307 
L 101.794053 278.613738 
L 103.781445 278.510414 
L 103.781445 277.993792 
L 104.69796 277.993792 
L 104.69796 277.373846 
L 106.400973 277.270521 
L 106.400973 276.960548 
L 107.195242 276.960548 
L 107.195242 276.753899 
L 108.685114 276.753899 
L 108.685114 276.54725 
L 109.385915 276.54725 
L 109.385915 276.030628 
L 110.060263 276.030628 
L 110.060263 275.82398 
L 110.710085 275.82398 
L 110.710085 275.514006 
L 111.3371 275.514006 
L 111.3371 274.997384 
L 111.942857 274.997384 
L 111.942857 274.790736 
L 113.64587 274.790736 
L 113.64587 274.480762 
L 114.179287 274.480762 
L 114.179287 274.170789 
L 115.690168 274.067465 
L 115.690168 273.344194 
L 116.166679 273.344194 
L 116.166679 272.930896 
L 116.630812 272.930896 
L 116.630812 272.724247 
L 117.083194 272.724247 
L 117.083194 272.104301 
L 117.954982 272.104301 
L 117.954982 271.484355 
L 118.375428 271.484355 
L 118.375428 271.277706 
L 118.786207 271.277706 
L 118.786207 270.657759 
L 119.187755 270.657759 
L 119.187755 270.244462 
L 120.709364 270.141137 
L 120.709364 269.211218 
L 121.070349 269.211218 
L 121.070349 269.004569 
L 121.424184 269.004569 
L 121.424184 268.487947 
L 122.111504 268.487947 
L 122.111504 267.868001 
L 122.445497 267.868001 
L 122.445497 267.351378 
L 123.095319 267.248054 
L 123.095319 267.041405 
L 123.722334 266.938081 
L 123.722334 266.834756 
L 124.02778 266.834756 
L 124.02778 265.904837 
L 124.328091 265.904837 
L 124.328091 265.594864 
L 124.623439 265.594864 
L 124.623439 265.181566 
L 124.913984 265.181566 
L 124.913984 264.354971 
L 125.481273 264.354971 
L 125.481273 263.735024 
L 125.758304 263.735024 
L 125.758304 263.218402 
L 126.031105 263.218402 
L 126.031105 263.011754 
L 126.299803 263.011754 
L 126.299803 262.70178 
L 126.564521 262.70178 
L 126.564521 262.391807 
L 127.335926 262.288483 
L 127.335926 262.081834 
L 127.585834 262.081834 
L 127.585834 261.875185 
L 127.832295 261.875185 
L 127.832295 261.668536 
L 128.075402 261.668536 
L 128.075402 260.945266 
L 128.551913 260.841941 
L 128.551913 260.635292 
L 128.785487 260.635292 
L 128.785487 260.015346 
L 129.243669 259.912021 
L 129.243669 259.705373 
L 129.909638 259.602048 
L 129.909638 259.188751 
L 130.126224 259.188751 
L 130.126224 258.775453 
L 130.340216 258.775453 
L 130.340216 258.568804 
L 130.760662 258.568804 
L 130.760662 258.362155 
L 130.967232 258.362155 
L 130.967232 257.638885 
L 131.373343 257.638885 
L 131.373343 257.328911 
L 131.572989 257.328911 
L 131.572989 257.018938 
L 131.770429 257.018938 
L 131.770429 256.812289 
L 132.539068 256.812289 
L 132.539068 256.502316 
L 132.911334 256.398992 
L 132.911334 256.089019 
L 133.094598 256.089019 
L 133.094598 255.572397 
L 133.633376 255.469072 
L 133.633376 255.365748 
L 134.156383 255.262423 
L 134.156383 255.159099 
L 134.327371 255.159099 
L 134.327371 254.745801 
L 134.496738 254.745801 
L 134.496738 254.435828 
L 134.830731 254.435828 
L 134.830731 254.125855 
L 135.480553 254.022531 
L 135.480553 253.919206 
L 136.260944 253.815882 
L 136.260944 253.712557 
L 136.861609 253.609233 
L 136.861609 253.29926 
L 137.154536 253.29926 
L 137.154536 252.575989 
L 137.442737 252.575989 
L 137.442737 252.266016 
L 137.726364 252.162691 
L 137.726364 251.956042 
L 138.551193 251.852718 
L 138.551193 251.646069 
L 139.210608 251.542745 
L 139.210608 251.336096 
L 139.846551 251.336096 
L 139.846551 251.026123 
L 140.094723 251.026123 
L 140.094723 250.819474 
L 140.339496 250.71615 
L 140.339496 250.509501 
L 141.054316 250.406176 
L 141.054316 250.302852 
L 141.286373 250.302852 
L 141.286373 249.372932 
L 141.628903 249.269608 
L 141.628903 249.166284 
L 141.853662 249.062959 
L 141.853662 248.959635 
L 142.185587 248.85631 
L 142.294872 248.236364 
L 142.511458 248.236364 
L 142.511458 247.823066 
L 142.72545 247.823066 
L 142.831493 247.513093 
L 143.145896 247.513093 
L 143.145896 247.099796 
L 143.454862 247.099796 
L 143.556675 246.066551 
L 143.858679 246.066551 
L 143.858679 245.859903 
L 144.25357 245.756578 
L 144.25357 245.653254 
L 144.447791 245.653254 
L 144.447791 245.446605 
L 145.111405 245.343281 
L 145.111405 245.136632 
L 145.388435 245.136632 
L 145.388435 244.929983 
L 145.929935 244.929983 
L 145.929935 244.62001 
L 146.106848 244.62001 
L 146.106848 244.413361 
L 146.966058 244.413361 
L 146.966058 243.483441 
L 147.215966 243.380117 
L 147.215966 243.276793 
L 148.103504 243.173468 
L 148.103504 243.070144 
L 149.023953 243.070144 
L 149.023953 242.863495 
L 150.251741 242.760171 
L 150.251741 242.656846 
L 152.043367 242.553522 
L 152.043367 242.0369 
L 153.613874 241.933575 
L 153.613874 241.726927 
L 154.294647 241.623602 
L 154.294647 241.520278 
L 155.634714 241.520278 
L 155.7377 241.210305 
L 156.491741 241.210305 
L 156.491741 241.003656 
L 158.623627 241.003656 
L 158.623627 240.693683 
L 172.755509 240.590358 
L 172.755509 240.487034 
L 173.011193 240.487034 
L 173.011193 240.280385 
L 173.22472 240.17706 
L 173.263271 239.970412 
L 173.53082 239.867087 
L 173.568716 239.45379 
L 173.700724 239.350465 
L 173.775721 238.833843 
L 173.869028 238.730519 
L 173.961849 237.903924 
L 174.017312 237.903924 
L 174.072602 237.490626 
L 174.200953 237.387302 
L 174.310238 236.974004 
L 174.364631 236.974004 
L 174.418859 236.457382 
L 174.63414 236.354058 
L 174.705328 236.044084 
L 174.758534 236.044084 
L 174.864471 234.804192 
L 175.004752 234.804192 
L 175.057074 233.977596 
L 175.178567 233.874272 
L 175.264845 233.35765 
L 175.350708 233.35765 
L 175.350708 233.151001 
L 175.555112 233.047677 
L 175.656444 231.704459 
L 175.690094 231.704459 
L 175.790665 230.981189 
L 175.890674 230.877864 
L 175.890674 230.257918 
L 176.039645 230.154593 
L 176.138273 229.947945 
L 176.31769 229.84462 
L 176.350118 229.431323 
L 176.511384 229.327998 
L 176.559481 228.811376 
L 176.986628 228.708052 
L 177.080178 228.398079 
L 177.52556 228.294754 
L 177.601241 227.984781 
L 177.751647 227.881457 
L 177.781576 227.364835 
L 177.989693 227.364835 
L 177.989693 227.158186 
L 178.528325 227.054861 
L 178.528325 226.951537 
L 185.493802 226.848213 
L 185.600304 226.538239 
L 185.840019 226.434915 
L 185.916054 225.918293 
L 186.123496 225.814968 
L 186.20767 225.298346 
L 186.282159 225.298346 
L 186.282159 224.6784 
L 186.411773 224.575076 
L 186.485418 223.851805 
L 186.577049 223.74848 
L 186.677304 222.611912 
L 186.758915 222.611912 
L 186.804093 221.785317 
L 186.992606 221.681992 
L 187.099441 220.648748 
L 187.205641 220.545424 
L 187.205641 220.4421 
L 187.520506 220.338775 
L 187.520506 220.235451 
L 187.710227 220.132126 
L 187.795802 219.615504 
L 188.142439 219.51218 
L 188.142439 219.408855 
L 188.383622 219.305531 
L 188.383622 218.995558 
L 188.759635 218.892233 
L 188.84034 218.58226 
L 192.725747 218.478936 
L 192.725747 218.375611 
L 192.983031 218.272287 
L 193.05314 217.858989 
L 193.141973 217.858989 
L 193.230367 217.135719 
L 193.286961 217.135719 
L 193.380889 216.205799 
L 193.468111 216.102475 
L 193.523959 215.275879 
L 193.702734 215.172555 
L 193.788403 214.449284 
L 194.097056 214.34596 
L 194.18683 213.41604 
L 194.353213 213.312716 
L 194.353213 213.209391 
L 194.50047 213.209391 
L 194.512198 212.796094 
L 194.866264 212.692769 
L 194.923644 212.48612 
L 198.004834 212.382796 
L 198.096207 211.659525 
L 198.201426 211.556201 
L 198.291801 211.039579 
L 198.334452 211.039579 
L 198.438282 210.109659 
L 198.457095 210.109659 
L 198.513417 209.17974 
L 198.569562 209.17974 
L 198.634842 208.766442 
L 198.833867 208.663118 
L 198.83847 208.24982 
L 199.007924 208.146496 
L 199.071625 207.733198 
L 199.162234 207.629874 
L 199.162234 207.526549 
L 199.301777 207.423225 
L 199.301777 207.3199 
L 201.963037 207.216576 
L 202.009337 206.699954 
L 202.093911 206.59663 
L 202.193349 205.253412 
L 202.29982 205.253412 
L 202.352819 204.840115 
L 202.563255 204.73679 
L 202.563255 204.633466 
L 202.75277 204.530141 
L 202.859644 203.806871 
L 202.940296 203.703546 
L 203.027867 203.496897 
L 205.107741 203.496897 
L 205.143345 202.566978 
L 205.23687 202.463653 
L 205.329908 201.637058 
L 205.42883 201.533734 
L 205.536699 201.017112 
L 205.574615 201.017112 
L 205.68161 200.50049 
L 205.803556 200.397165 
L 205.893697 200.190517 
L 207.65777 200.087192 
L 207.65777 199.983868 
L 207.831086 199.880543 
L 207.933721 199.467246 
L 207.975162 199.363921 
L 208.079718 198.330677 
L 208.150906 198.227353 
L 208.257159 197.91738 
L 208.270736 197.91738 
L 208.373582 197.400758 
L 208.545469 197.297433 
L 208.545469 197.194109 
L 210.174217 197.090784 
L 210.26427 196.367514 
L 210.300649 196.367514 
L 210.392479 195.540918 
L 210.479042 195.540918 
L 210.57712 195.024296 
L 210.714952 194.920972 
L 210.797615 194.197701 
L 212.2454 194.094377 
L 212.338593 193.47443 
L 212.358038 193.47443 
L 212.444201 192.544511 
L 212.579072 192.441186 
L 212.668423 192.027889 
L 212.723513 191.924564 
L 212.80583 191.614591 
L 214.124735 191.511267 
L 214.220323 190.787996 
L 214.402277 190.684671 
L 214.461879 190.271374 
L 214.603356 190.168049 
L 214.6528 189.858076 
L 215.782346 189.754752 
L 215.874808 189.341454 
L 215.942074 189.23813 
L 216.017888 188.721508 
L 216.082866 188.618183 
L 216.179021 187.894913 
L 216.243417 187.791588 
L 216.302387 187.584939 
L 217.377587 187.584939 
L 217.465415 186.65502 
L 217.570564 186.551695 
L 217.63818 185.7251 
L 217.796553 185.621776 
L 217.796553 185.518451 
L 218.721427 185.518451 
L 218.825474 184.278558 
L 218.869024 184.175234 
L 218.973709 183.14199 
L 219.012436 183.038666 
L 219.092602 182.728692 
L 220.094896 182.625368 
L 220.17036 181.902097 
L 220.230224 181.798773 
L 220.320338 181.178826 
L 220.365914 181.075502 
L 220.405871 180.868853 
L 221.312818 180.765529 
L 221.398948 179.835609 
L 221.474297 179.835609 
L 221.558364 179.318987 
L 222.425974 179.215663 
L 222.519146 178.182419 
L 222.603317 178.079094 
L 222.68346 177.562472 
L 223.520136 177.459148 
L 223.587067 176.942526 
L 223.667512 176.839201 
L 223.667512 176.529228 
L 224.531491 176.425904 
L 224.641496 175.599309 
L 224.670789 175.495984 
L 224.778865 174.979362 
L 225.488655 174.876038 
L 225.548616 174.049443 
L 225.620714 173.946118 
L 225.64742 173.739469 
L 226.416816 173.636145 
L 226.522678 173.119523 
L 226.620143 173.016199 
L 226.620143 172.912874 
L 227.244778 172.80955 
L 227.349594 172.189603 
L 227.415722 172.086279 
L 227.416652 171.776306 
L 228.090759 171.672981 
L 228.20053 170.743062 
L 228.874516 170.639737 
L 228.960842 169.916466 
L 229.099286 169.813142 
L 229.099286 169.606493 
L 229.667184 169.503169 
L 229.764451 168.883222 
L 230.369529 168.779898 
L 230.459921 168.056627 
L 230.505337 168.056627 
L 230.505337 167.849978 
L 231.058201 167.746654 
L 231.166299 166.610086 
L 231.194162 166.610086 
L 231.194162 166.300112 
L 231.770925 166.196788 
L 231.850163 165.886815 
L 232.379717 165.78349 
L 232.454904 165.473517 
L 233.028306 165.370193 
L 233.123798 164.956895 
L 233.646305 164.853571 
L 233.700014 164.646922 
L 234.186453 164.543597 
L 234.186453 164.440273 
L 234.816738 164.336949 
L 234.893984 164.026975 
L 235.291439 163.923651 
L 235.33506 163.613678 
L 235.82716 163.510353 
L 235.930787 163.097056 
L 236.333746 162.993731 
L 236.439535 162.787083 
L 237.329801 162.683758 
L 237.350073 162.373785 
L 237.776804 162.373785 
L 237.823596 162.063812 
L 238.265654 162.063812 
L 238.290963 161.753839 
L 238.740499 161.650514 
L 238.781885 161.443865 
L 239.607002 161.340541 
L 239.607002 161.237217 
L 240.471069 161.133892 
L 240.487627 160.927243 
L 241.195376 160.823919 
L 241.275166 160.61727 
L 241.97562 160.513946 
L 241.97562 160.410621 
L 242.326107 160.307297 
L 242.372457 160.100648 
L 242.695959 159.997324 
L 242.695959 159.893999 
L 244.118233 159.790675 
L 244.118233 159.687351 
L 245.315146 159.584026 
L 245.387037 159.377377 
L 248.172578 159.274053 
L 248.172578 159.170729 
L 251.929629 159.067404 
L 251.967784 158.860755 
L 358.8 158.757431 
L 358.8 158.757431 
" style="fill:none;stroke:#ff00ff;stroke-linecap:square;stroke-width:1.5;"/>
   </g>
   <g id="line2d_48">
    <defs>
     <path d="M -0 8.485281 
L 5.091169 0 
L 0 -8.485281 
L -5.091169 -0 
z
" id="maa64606d2e" style="stroke:#ff00ff;stroke-linejoin:miter;stroke-width:1.5;"/>
    </defs>
    <g>
     <use style="fill:none;stroke:#ff00ff;stroke-linejoin:miter;stroke-width:1.5;" x="95.570468" xlink:href="#maa64606d2e" y="281.816795"/>
     <use style="fill:none;stroke:#ff00ff;stroke-linejoin:miter;stroke-width:1.5;" x="159.055245" xlink:href="#maa64606d2e" y="240.590358"/>
     <use style="fill:none;stroke:#ff00ff;stroke-linejoin:miter;stroke-width:1.5;" x="223.499314" xlink:href="#maa64606d2e" y="177.459148"/>
     <use style="fill:none;stroke:#ff00ff;stroke-linejoin:miter;stroke-width:1.5;" x="259.584288" xlink:href="#maa64606d2e" y="158.860755"/>
     <use style="fill:none;stroke:#ff00ff;stroke-linejoin:miter;stroke-width:1.5;" x="259.584288" xlink:href="#maa64606d2e" y="158.757431"/>
     <use style="fill:none;stroke:#ff00ff;stroke-linejoin:miter;stroke-width:1.5;" x="358.8" xlink:href="#maa64606d2e" y="158.757431"/>
    </g>
   </g>
   <g id="line2d_49"/>
   <g id="line2d_50">
    <path clip-path="url(#p1b7bbd18d3)" d="M 172.715846 240.590358 
" style="fill:none;stroke:#ff00ff;stroke-linecap:square;stroke-width:1.5;"/>
    <defs>
     <path d="M -12 12 
L 12 -12 
M -12 -12 
L 12 12 
" id="m128531bad1" style="stroke:#ff00ff;stroke-width:3;"/>
    </defs>
    <g clip-path="url(#p1b7bbd18d3)">
     <use style="fill:#ff00ff;stroke:#ff00ff;stroke-width:3;" x="172.715846" xlink:href="#m128531bad1" y="240.590358"/>
    </g>
   </g>
   <g id="line2d_51">
    <path d="M 358.8 158.757431 
L 390.48 292.97583 
" style="fill:none;stroke:#ff00ff;stroke-linecap:square;stroke-width:1.5;"/>
    <g>
     <use style="fill:none;stroke:#ff00ff;stroke-linejoin:miter;stroke-width:1.5;" x="358.8" xlink:href="#maa64606d2e" y="158.757431"/>
     <use style="fill:none;stroke:#ff00ff;stroke-linejoin:miter;stroke-width:1.5;" x="390.48" xlink:href="#maa64606d2e" y="292.97583"/>
    </g>
   </g>
   <g id="line2d_52">
    <path d="M 358.8 298.245375 
L 358.8 34.768147 
" style="fill:none;stroke:#000000;stroke-linecap:square;stroke-width:1.5;"/>
   </g>
   <g id="patch_3">
    <path d="M 70.8 298.245375 
L 70.8 32.133375 
" style="fill:none;stroke:#000000;stroke-linecap:square;stroke-linejoin:miter;stroke-width:0.8;"/>
   </g>
   <g id="patch_4">
    <path d="M 427.92 298.245375 
L 427.92 32.133375 
" style="fill:none;stroke:#000000;stroke-linecap:square;stroke-linejoin:miter;stroke-width:0.8;"/>
   </g>
   <g id="patch_5">
    <path d="M 70.8 298.245375 
L 427.92 298.245375 
" style="fill:none;stroke:#000000;stroke-linecap:square;stroke-linejoin:miter;stroke-width:0.8;"/>
   </g>
   <g id="patch_6">
    <path d="M 70.8 32.133375 
L 427.92 32.133375 
" style="fill:none;stroke:#000000;stroke-linecap:square;stroke-linejoin:miter;stroke-width:0.8;"/>
   </g>
   <g id="text_14">
    <!-- deapbbob -->
    <defs>
     <path d="M 48.6875 27.296875 
Q 48.6875 37.203125 44.609375 42.84375 
Q 40.53125 48.484375 33.40625 48.484375 
Q 26.265625 48.484375 22.1875 42.84375 
Q 18.109375 37.203125 18.109375 27.296875 
Q 18.109375 17.390625 22.1875 11.75 
Q 26.265625 6.109375 33.40625 6.109375 
Q 40.53125 6.109375 44.609375 11.75 
Q 48.6875 17.390625 48.6875 27.296875 
M 18.109375 46.390625 
Q 20.953125 51.265625 25.265625 53.625 
Q 29.59375 56 35.59375 56 
Q 45.5625 56 51.78125 48.09375 
Q 58.015625 40.1875 58.015625 27.296875 
Q 58.015625 14.40625 51.78125 6.484375 
Q 45.5625 -1.421875 35.59375 -1.421875 
Q 29.59375 -1.421875 25.265625 0.953125 
Q 20.953125 3.328125 18.109375 8.203125 
L 18.109375 0 
L 9.078125 0 
L 9.078125 75.984375 
L 18.109375 75.984375 
z
" id="DejaVuSans-62"/>
    </defs>
    <g transform="translate(396.24 297.114893)scale(0.15 -0.15)">
     <use xlink:href="#DejaVuSans-64"/>
     <use x="63.476562" xlink:href="#DejaVuSans-65"/>
     <use x="125" xlink:href="#DejaVuSans-61"/>
     <use x="186.279297" xlink:href="#DejaVuSans-70"/>
     <use x="249.755859" xlink:href="#DejaVuSans-62"/>
     <use x="313.232422" xlink:href="#DejaVuSans-62"/>
     <use x="376.708984" xlink:href="#DejaVuSans-6f"/>
     <use x="437.890625" xlink:href="#DejaVuSans-62"/>
    </g>
   </g>
   <g id="text_15">
    <!-- best 2009 -->
    <defs>
     <path d="M 10.984375 1.515625 
L 10.984375 10.5 
Q 14.703125 8.734375 18.5 7.8125 
Q 22.3125 6.890625 25.984375 6.890625 
Q 35.75 6.890625 40.890625 13.453125 
Q 46.046875 20.015625 46.78125 33.40625 
Q 43.953125 29.203125 39.59375 26.953125 
Q 35.25 24.703125 29.984375 24.703125 
Q 19.046875 24.703125 12.671875 31.3125 
Q 6.296875 37.9375 6.296875 49.421875 
Q 6.296875 60.640625 12.9375 67.421875 
Q 19.578125 74.21875 30.609375 74.21875 
Q 43.265625 74.21875 49.921875 64.515625 
Q 56.59375 54.828125 56.59375 36.375 
Q 56.59375 19.140625 48.40625 8.859375 
Q 40.234375 -1.421875 26.421875 -1.421875 
Q 22.703125 -1.421875 18.890625 -0.6875 
Q 15.09375 0.046875 10.984375 1.515625 
M 30.609375 32.421875 
Q 37.25 32.421875 41.125 36.953125 
Q 45.015625 41.5 45.015625 49.421875 
Q 45.015625 57.28125 41.125 61.84375 
Q 37.25 66.40625 30.609375 66.40625 
Q 23.96875 66.40625 20.09375 61.84375 
Q 16.21875 57.28125 16.21875 49.421875 
Q 16.21875 41.5 20.09375 36.953125 
Q 23.96875 32.421875 30.609375 32.421875 
" id="DejaVuSans-39"/>
    </defs>
    <g transform="translate(396.24 44.176754)scale(0.15 -0.15)">
     <use xlink:href="#DejaVuSans-62"/>
     <use x="63.476562" xlink:href="#DejaVuSans-65"/>
     <use x="125" xlink:href="#DejaVuSans-73"/>
     <use x="177.099609" xlink:href="#DejaVuSans-74"/>
     <use x="216.308594" xlink:href="#DejaVuSans-20"/>
     <use x="248.095703" xlink:href="#DejaVuSans-32"/>
     <use x="311.71875" xlink:href="#DejaVuSans-30"/>
     <use x="375.341797" xlink:href="#DejaVuSans-30"/>
     <use x="438.964844" xlink:href="#DejaVuSans-39"/>
    </g>
   </g>
   <g id="text_16">
    <!-- bbob - f15-f19, 3-D -->
    <defs>
     <path d="M 10.796875 72.90625 
L 49.515625 72.90625 
L 49.515625 64.59375 
L 19.828125 64.59375 
L 19.828125 46.734375 
Q 21.96875 47.46875 24.109375 47.828125 
Q 26.265625 48.1875 28.421875 48.1875 
Q 40.625 48.1875 47.75 41.5 
Q 54.890625 34.8125 54.890625 23.390625 
Q 54.890625 11.625 47.5625 5.09375 
Q 40.234375 -1.421875 26.90625 -1.421875 
Q 22.3125 -1.421875 17.546875 -0.640625 
Q 12.796875 0.140625 7.71875 1.703125 
L 7.71875 11.625 
Q 12.109375 9.234375 16.796875 8.0625 
Q 21.484375 6.890625 26.703125 6.890625 
Q 35.15625 6.890625 40.078125 11.328125 
Q 45.015625 15.765625 45.015625 23.390625 
Q 45.015625 31 40.078125 35.4375 
Q 35.15625 39.890625 26.703125 39.890625 
Q 22.75 39.890625 18.8125 39.015625 
Q 14.890625 38.140625 10.796875 36.28125 
z
" id="DejaVuSans-35"/>
     <path d="M 11.71875 12.40625 
L 22.015625 12.40625 
L 22.015625 4 
L 14.015625 -11.625 
L 7.71875 -11.625 
L 11.71875 4 
z
" id="DejaVuSans-2c"/>
     <path d="M 40.578125 39.3125 
Q 47.65625 37.796875 51.625 33 
Q 55.609375 28.21875 55.609375 21.1875 
Q 55.609375 10.40625 48.1875 4.484375 
Q 40.765625 -1.421875 27.09375 -1.421875 
Q 22.515625 -1.421875 17.65625 -0.515625 
Q 12.796875 0.390625 7.625 2.203125 
L 7.625 11.71875 
Q 11.71875 9.328125 16.59375 8.109375 
Q 21.484375 6.890625 26.8125 6.890625 
Q 36.078125 6.890625 40.9375 10.546875 
Q 45.796875 14.203125 45.796875 21.1875 
Q 45.796875 27.640625 41.28125 31.265625 
Q 36.765625 34.90625 28.71875 34.90625 
L 20.21875 34.90625 
L 20.21875 43.015625 
L 29.109375 43.015625 
Q 36.375 43.015625 40.234375 45.921875 
Q 44.09375 48.828125 44.09375 54.296875 
Q 44.09375 59.90625 40.109375 62.90625 
Q 36.140625 65.921875 28.71875 65.921875 
Q 24.65625 65.921875 20.015625 65.03125 
Q 15.375 64.15625 9.8125 62.3125 
L 9.8125 71.09375 
Q 15.4375 72.65625 20.34375 73.4375 
Q 25.25 74.21875 29.59375 74.21875 
Q 40.828125 74.21875 47.359375 69.109375 
Q 53.90625 64.015625 53.90625 55.328125 
Q 53.90625 49.265625 50.4375 45.09375 
Q 46.96875 40.921875 40.578125 39.3125 
" id="DejaVuSans-33"/>
     <path d="M 19.671875 64.796875 
L 19.671875 8.109375 
L 31.59375 8.109375 
Q 46.6875 8.109375 53.6875 14.9375 
Q 60.6875 21.78125 60.6875 36.53125 
Q 60.6875 51.171875 53.6875 57.984375 
Q 46.6875 64.796875 31.59375 64.796875 
z
M 9.8125 72.90625 
L 30.078125 72.90625 
Q 51.265625 72.90625 61.171875 64.09375 
Q 71.09375 55.28125 71.09375 36.53125 
Q 71.09375 17.671875 61.125 8.828125 
Q 51.171875 0 30.078125 0 
L 9.8125 0 
z
" id="DejaVuSans-44"/>
    </defs>
    <g transform="translate(74.3712 50.114612)scale(0.1666 -0.1666)">
     <use xlink:href="#DejaVuSans-62"/>
     <use x="63.476562" xlink:href="#DejaVuSans-62"/>
     <use x="126.953125" xlink:href="#DejaVuSans-6f"/>
     <use x="188.134766" xlink:href="#DejaVuSans-62"/>
     <use x="251.611328" xlink:href="#DejaVuSans-20"/>
     <use x="283.398438" xlink:href="#DejaVuSans-2d"/>
     <use x="319.482422" xlink:href="#DejaVuSans-20"/>
     <use x="351.269531" xlink:href="#DejaVuSans-66"/>
     <use x="386.474609" xlink:href="#DejaVuSans-31"/>
     <use x="450.097656" xlink:href="#DejaVuSans-35"/>
     <use x="513.720703" xlink:href="#DejaVuSans-2d"/>
     <use x="549.804688" xlink:href="#DejaVuSans-66"/>
     <use x="585.009766" xlink:href="#DejaVuSans-31"/>
     <use x="648.632812" xlink:href="#DejaVuSans-39"/>
     <use x="712.255859" xlink:href="#DejaVuSans-2c"/>
     <use x="744.042969" xlink:href="#DejaVuSans-20"/>
     <use x="775.830078" xlink:href="#DejaVuSans-33"/>
     <use x="839.453125" xlink:href="#DejaVuSans-2d"/>
     <use x="875.537109" xlink:href="#DejaVuSans-44"/>
    </g>
    <!-- 51 targets in 100..1e-08 -->
    <g transform="translate(74.3712 68.770168)scale(0.1666 -0.1666)">
     <use xlink:href="#DejaVuSans-35"/>
     <use x="63.623047" xlink:href="#DejaVuSans-31"/>
     <use x="127.246094" xlink:href="#DejaVuSans-20"/>
     <use x="159.033203" xlink:href="#DejaVuSans-74"/>
     <use x="198.242188" xlink:href="#DejaVuSans-61"/>
     <use x="259.521484" xlink:href="#DejaVuSans-72"/>
     <use x="300.619141" xlink:href="#DejaVuSans-67"/>
     <use x="364.095703" xlink:href="#DejaVuSans-65"/>
     <use x="425.619141" xlink:href="#DejaVuSans-74"/>
     <use x="464.828125" xlink:href="#DejaVuSans-73"/>
     <use x="516.927734" xlink:href="#DejaVuSans-20"/>
     <use x="548.714844" xlink:href="#DejaVuSans-69"/>
     <use x="576.498047" xlink:href="#DejaVuSans-6e"/>
     <use x="639.876953" xlink:href="#DejaVuSans-20"/>
     <use x="671.664062" xlink:href="#DejaVuSans-31"/>
     <use x="735.287109" xlink:href="#DejaVuSans-30"/>
     <use x="798.910156" xlink:href="#DejaVuSans-30"/>
     <use x="862.533203" xlink:href="#DejaVuSans-2e"/>
     <use x="894.320312" xlink:href="#DejaVuSans-2e"/>
     <use x="926.107422" xlink:href="#DejaVuSans-31"/>
     <use x="989.730469" xlink:href="#DejaVuSans-65"/>
     <use x="1051.253906" xlink:href="#DejaVuSans-2d"/>
     <use x="1087.337891" xlink:href="#DejaVuSans-30"/>
     <use x="1150.960938" xlink:href="#DejaVuSans-38"/>
    </g>
    <!-- 15 instances -->
    <g transform="translate(74.3712 87.425723)scale(0.1666 -0.1666)">
     <use xlink:href="#DejaVuSans-31"/>
     <use x="63.623047" xlink:href="#DejaVuSans-35"/>
     <use x="127.246094" xlink:href="#DejaVuSans-20"/>
     <use x="159.033203" xlink:href="#DejaVuSans-69"/>
     <use x="186.816406" xlink:href="#DejaVuSans-6e"/>
     <use x="250.195312" xlink:href="#DejaVuSans-73"/>
     <use x="302.294922" xlink:href="#DejaVuSans-74"/>
     <use x="341.503906" xlink:href="#DejaVuSans-61"/>
     <use x="402.783203" xlink:href="#DejaVuSans-6e"/>
     <use x="466.162109" xlink:href="#DejaVuSans-63"/>
     <use x="521.142578" xlink:href="#DejaVuSans-65"/>
     <use x="582.666016" xlink:href="#DejaVuSans-73"/>
    </g>
   </g>
   <g id="text_17">
    <!-- v2.1 -->
    <g style="fill:#808080;" transform="translate(238.449063 293.504568)scale(0.1 -0.1)">
     <use xlink:href="#DejaVuSans-76"/>
     <use x="59.179688" xlink:href="#DejaVuSans-32"/>
     <use x="122.802734" xlink:href="#DejaVuSans-2e"/>
     <use x="154.589844" xlink:href="#DejaVuSans-31"/>
    </g>
   </g>
  </g>
 </g>
 <defs>
  <clipPath id="p1b7bbd18d3">
   <rect height="266.112" width="357.12" x="70.8" y="32.133375"/>
  </clipPath>
 </defs>
</svg>
