<?xml version="1.0" encoding="utf-8" standalone="no"?>
<!DOCTYPE svg PUBLIC "-//W3C//DTD SVG 1.1//EN"
  "http://www.w3.org/Graphics/SVG/1.1/DTD/svg11.dtd">
<!-- Created with matplotlib (http://matplotlib.org/) -->
<svg height="353pt" version="1.1" viewBox="0 0 478 353" width="478pt" xmlns="http://www.w3.org/2000/svg" xmlns:xlink="http://www.w3.org/1999/xlink">
 <defs>
  <style type="text/css">
*{stroke-linecap:butt;stroke-linejoin:round;}
  </style>
 </defs>
 <g id="figure_1">
  <g id="patch_1">
   <path d="M 0 353.22225 
L 478.829063 353.22225 
L 478.829063 0 
L 0 0 
z
" style="fill:#ffffff;"/>
  </g>
  <g id="axes_1">
   <g id="patch_2">
    <path d="M 70.8 298.245375 
L 427.92 298.245375 
L 427.92 32.133375 
L 70.8 32.133375 
z
" style="fill:#ffffff;"/>
   </g>
   <g id="line2d_1">
    <path d="M 29.657143 298.245375 
L 29.657143 292.218118 
L 42.042377 292.218118 
L 42.042377 291.357081 
L 49.287274 291.357081 
L 49.287274 290.496045 
L 54.427611 290.496045 
L 54.427611 290.065526 
L 66.812845 290.065526 
L 66.812845 289.635008 
L 70.8 289.635008 
L 70.8 289.419749 
L 72.503013 289.419749 
L 72.503013 288.989231 
L 74.057743 288.989231 
L 74.057743 288.773971 
L 79.198079 288.773971 
L 79.198079 288.343453 
L 81.30264 288.343453 
L 81.30264 288.128194 
L 82.26872 288.128194 
L 82.26872 287.912935 
L 83.185234 287.912935 
L 83.185234 277.365235 
L 84.888247 277.365235 
L 84.888247 276.288939 
L 85.682517 276.288939 
L 85.682517 267.032795 
L 87.873189 267.032795 
L 87.873189 266.817536 
L 88.547538 266.817536 
L 88.547538 266.602277 
L 90.430132 266.602277 
L 90.430132 265.74124 
L 91.016024 265.74124 
L 91.016024 265.095462 
L 91.583313 265.095462 
L 91.583313 264.664944 
L 92.133145 264.664944 
L 92.133145 264.449685 
L 94.177442 264.449685 
L 94.177442 264.234426 
L 95.570468 264.234426 
L 95.570468 264.019166 
L 96.862702 264.019166 
L 96.862702 263.803907 
L 98.067751 263.803907 
L 98.067751 263.588648 
L 98.452026 263.588648 
L 98.452026 263.373389 
L 100.258423 263.373389 
L 100.258423 263.15813 
L 101.582593 263.15813 
L 101.582593 262.512352 
L 103.401258 262.512352 
L 103.401258 262.297093 
L 103.968548 262.297093 
L 103.968548 262.081834 
L 104.518379 262.081834 
L 104.518379 261.866575 
L 105.312648 261.866575 
L 105.312648 261.651316 
L 106.073108 261.651316 
L 106.073108 261.436056 
L 106.802521 261.436056 
L 106.802521 261.220797 
L 107.272761 261.220797 
L 107.272761 260.790279 
L 107.503321 260.790279 
L 107.503321 260.57502 
L 108.396913 260.57502 
L 108.396913 260.359761 
L 109.03895 260.359761 
L 109.03895 260.144501 
L 109.454506 260.144501 
L 109.454506 259.929242 
L 109.658716 259.929242 
L 109.658716 259.713983 
L 111.581873 259.713983 
L 111.581873 259.068206 
L 112.296693 259.068206 
L 112.296693 258.852946 
L 113.15179 258.852946 
L 113.15179 258.637687 
L 114.284085 258.637687 
L 114.284085 258.422428 
L 115.2006 258.422428 
L 115.2006 258.207169 
L 115.495947 258.207169 
L 115.495947 257.99191 
L 115.930012 257.99191 
L 115.930012 257.77665 
L 116.213639 257.77665 
L 116.213639 257.561391 
L 116.630812 257.561391 
L 116.630812 257.346132 
L 116.903613 257.346132 
L 116.903613 257.130873 
L 117.038468 257.130873 
L 117.038468 256.915614 
L 117.437029 256.915614 
L 117.437029 256.700355 
L 117.826895 256.700355 
L 117.826895 256.485095 
L 118.082158 256.485095 
L 118.082158 256.269836 
L 118.82677 256.269836 
L 118.82677 256.054577 
L 118.947911 256.054577 
L 118.947911 255.839318 
L 119.424422 255.839318 
L 119.424422 255.624059 
L 119.657995 255.624059 
L 119.657995 255.4088 
L 119.773647 255.4088 
L 119.773647 254.978281 
L 120.562903 254.978281 
L 120.562903 254.763022 
L 120.890768 254.763022 
L 120.890768 254.547763 
L 121.63317 254.547763 
L 121.63317 254.117245 
L 122.445497 254.117245 
L 122.54449 253.686726 
L 122.935065 253.686726 
L 123.03139 252.395171 
L 123.127198 252.395171 
L 123.127198 252.179912 
L 123.317286 252.179912 
L 123.411577 250.888357 
L 123.505373 250.888357 
L 123.598679 248.089988 
L 123.691501 248.089988 
L 123.783843 244.430582 
L 123.87571 244.430582 
L 123.967107 242.493249 
L 124.328091 242.493249 
L 124.328091 242.27799 
L 124.505885 242.27799 
L 124.594123 241.847472 
L 124.769302 241.847472 
L 124.769302 241.632213 
L 125.785772 241.632213 
L 125.785772 241.416953 
L 126.669319 241.416953 
L 126.669319 241.201694 
L 126.825374 241.201694 
L 126.825374 240.986435 
L 127.133452 240.986435 
L 127.133452 240.771176 
L 127.436309 240.771176 
L 127.436309 240.340657 
L 127.881181 240.340657 
L 127.881181 240.125398 
L 128.171726 240.125398 
L 128.24363 239.479621 
L 128.598873 239.479621 
L 128.598873 239.264362 
L 128.739016 239.264362 
L 128.739016 239.049102 
L 128.878068 239.049102 
L 128.878068 238.833843 
L 129.423702 238.833843 
L 129.423702 238.618584 
L 129.557546 238.618584 
L 129.557546 238.403325 
L 129.887835 238.403325 
L 129.887835 238.188066 
L 130.018259 238.188066 
L 130.018259 237.972807 
L 130.530642 237.972807 
L 130.530642 237.757547 
L 131.212004 237.757547 
L 131.212004 237.327029 
L 131.393408 237.327029 
L 131.393408 237.11177 
L 132.781921 237.11177 
L 132.781921 236.896511 
L 133.003201 236.896511 
L 133.058096 236.465992 
L 133.756788 236.465992 
L 133.861894 235.820215 
L 133.966387 235.820215 
L 133.966387 235.604956 
L 134.429184 235.604956 
L 134.479874 235.174437 
L 135.416624 235.174437 
L 135.416624 234.743919 
L 136.122965 234.743919 
L 136.169077 234.313401 
L 136.352341 234.313401 
L 136.352341 234.098141 
L 137.241485 234.098141 
L 137.328014 233.667623 
L 137.712289 233.667623 
L 137.796573 233.237105 
L 137.963957 233.237105 
L 138.047065 232.806586 
L 138.294093 232.806586 
L 138.375683 232.160809 
L 138.817886 232.160809 
L 138.817886 231.94555 
L 139.054554 231.94555 
L 139.093695 231.515031 
L 139.210608 231.515031 
L 139.210608 231.299772 
L 139.971068 231.299772 
L 140.008255 230.869254 
L 140.082396 230.869254 
L 140.082396 230.653995 
L 140.592949 230.653995 
L 140.592949 230.438736 
L 140.842856 230.438736 
L 140.878274 230.008217 
L 141.22864 230.008217 
L 141.22864 229.792958 
L 141.435609 229.792958 
L 141.435609 229.577699 
L 141.808936 229.577699 
L 141.808936 229.36244 
L 142.403494 229.36244 
L 142.435951 228.931921 
L 142.565197 228.931921 
L 142.565197 228.716662 
L 142.757329 228.716662 
L 142.820917 228.070885 
L 143.228811 228.070885 
L 143.228811 227.640366 
L 143.505841 227.640366 
L 143.505841 227.425107 
L 143.838703 227.425107 
L 143.838703 226.994589 
L 144.165478 226.994589 
L 144.165478 226.77933 
L 144.486383 226.77933 
L 144.486383 226.56407 
L 144.630365 226.56407 
L 144.687635 226.133552 
L 144.830011 226.133552 
L 144.858351 225.703034 
L 145.083464 225.703034 
L 145.083464 225.487775 
L 145.333372 225.487775 
L 145.333372 225.272515 
L 145.661236 225.272515 
L 145.661236 225.057256 
L 146.036293 225.057256 
L 146.142022 224.411479 
L 146.247129 224.411479 
L 146.351621 223.98096 
L 146.377649 223.98096 
L 146.377649 223.765701 
L 146.584518 223.765701 
L 146.66148 223.335183 
L 147.191131 223.335183 
L 147.191131 223.119924 
L 147.388844 223.119924 
L 147.486886 222.689405 
L 147.873762 222.689405 
L 147.873762 222.474146 
L 148.275841 222.474146 
L 148.345866 222.043628 
L 148.392398 222.043628 
L 148.392398 221.828369 
L 148.737575 221.828369 
L 148.828507 220.967332 
L 148.941525 220.967332 
L 149.031428 220.321554 
L 149.364591 220.321554 
L 149.386582 219.891036 
L 149.670036 219.891036 
L 149.670036 219.675777 
L 149.885058 219.675777 
L 149.949064 219.245259 
L 150.01284 219.245259 
L 150.01284 219.029999 
L 150.265695 219.029999 
L 150.370004 218.384222 
L 150.638393 218.384222 
L 150.740555 217.738444 
L 150.922987 217.738444 
L 150.922987 217.523185 
L 151.12353 217.523185 
L 151.12353 217.307926 
L 151.282358 217.307926 
L 151.380914 216.877408 
L 151.498468 216.877408 
L 151.595842 216.446889 
L 151.615253 216.446889 
L 151.615253 216.23163 
L 151.73128 216.23163 
L 151.73128 216.016371 
L 151.846559 216.016371 
L 151.846559 215.801112 
L 152.093807 215.801112 
L 152.093807 215.585853 
L 152.319038 215.585853 
L 152.319038 215.370593 
L 152.430598 215.370593 
L 152.46763 214.724816 
L 152.578269 214.724816 
L 152.578269 214.509557 
L 152.888076 214.509557 
L 152.960198 214.079038 
L 153.049942 214.079038 
L 153.067837 213.64852 
L 153.22809 213.64852 
L 153.334133 213.002743 
L 153.492026 213.002743 
L 153.492026 212.787483 
L 153.75212 212.787483 
L 153.820843 211.926447 
L 153.940477 211.926447 
L 153.957503 211.495928 
L 154.059315 211.495928 
L 154.059315 211.280669 
L 154.177369 211.280669 
L 154.210955 210.850151 
L 154.41116 210.850151 
L 154.41116 210.634892 
L 154.526919 210.634892 
L 154.543395 209.989114 
L 154.837393 209.989114 
L 154.934326 209.343337 
L 154.998658 209.343337 
L 155.014705 208.4823 
L 155.158481 208.4823 
L 155.269513 207.621263 
L 155.316888 207.621263 
L 155.426942 206.975486 
L 155.489528 206.975486 
L 155.489528 206.760226 
L 155.706866 206.760226 
L 155.799208 206.114449 
L 155.845201 206.114449 
L 155.860506 205.683931 
L 156.058282 205.683931 
L 156.14883 204.177116 
L 156.193932 204.177116 
L 156.298731 202.885561 
L 156.343457 202.885561 
L 156.343457 202.670302 
L 156.594812 202.670302 
L 156.594812 202.455043 
L 156.813698 202.455043 
L 156.813698 202.239784 
L 156.929349 202.239784 
L 156.972526 201.594006 
L 157.101435 201.594006 
L 157.186861 201.163488 
L 157.314238 201.163488 
L 157.398654 200.73297 
L 157.468698 200.73297 
L 157.524536 200.302451 
L 157.5802 200.302451 
L 157.663372 199.656674 
L 157.704813 199.656674 
L 157.787409 199.226155 
L 157.869624 199.226155 
L 157.97866 198.14986 
L 158.032929 198.14986 
L 158.100534 197.504082 
L 158.167885 197.504082 
L 158.275121 196.643045 
L 158.328498 196.643045 
L 158.434777 194.920972 
L 158.448018 194.920972 
L 158.461249 194.490454 
L 158.566743 194.490454 
L 158.566743 194.275194 
L 158.697742 194.275194 
L 158.697742 193.844676 
L 158.969752 193.844676 
L 159.072295 193.414158 
L 159.389002 193.414158 
L 159.439158 192.76838 
L 159.514129 192.76838 
L 159.613604 192.337862 
L 159.87212 192.337862 
L 159.92094 191.692084 
L 160.306772 191.692084 
L 160.390073 191.046307 
L 160.707789 191.046307 
L 160.707789 190.831048 
L 161.134201 190.831048 
L 161.168333 190.400529 
L 161.528408 190.400529 
L 161.606217 189.970011 
L 161.793781 189.970011 
L 161.793781 189.754752 
L 161.946781 189.754752 
L 161.946781 189.539493 
L 162.248906 189.539493 
L 162.344943 189.108974 
L 162.461624 189.108974 
L 162.461624 188.893715 
L 162.577549 188.893715 
L 162.577549 188.678456 
L 162.817533 188.678456 
L 162.817533 188.463197 
L 162.972326 188.463197 
L 162.992864 188.032678 
L 163.105403 188.032678 
L 163.176652 187.60216 
L 163.257732 187.60216 
L 163.257732 187.386901 
L 163.378668 187.386901 
L 163.378668 187.171642 
L 163.548603 187.171642 
L 163.548603 186.741123 
L 163.726791 186.741123 
L 163.726791 186.525864 
L 163.932455 186.525864 
L 163.990784 186.095346 
L 164.41281 186.095346 
L 164.422287 185.664828 
L 164.685611 185.664828 
L 164.704272 185.01905 
L 164.88982 185.01905 
L 164.88982 184.803791 
L 165.23714 184.803791 
L 165.23714 184.588532 
L 165.506649 184.588532 
L 165.515563 184.158013 
L 165.728176 184.158013 
L 165.728176 183.942754 
L 165.894718 183.942754 
L 165.955687 183.512236 
L 166.231781 183.512236 
L 166.231781 183.296977 
L 166.393716 183.296977 
L 166.393716 183.081717 
L 166.771491 183.081717 
L 166.771491 182.866458 
L 166.94509 182.866458 
L 166.94509 182.651199 
L 167.198311 182.651199 
L 167.222627 182.220681 
L 167.359795 182.220681 
L 167.463983 181.574903 
L 167.733635 181.574903 
L 167.812177 181.144385 
L 168.161402 181.144385 
L 168.161402 180.929126 
L 168.503932 180.929126 
L 168.526536 180.498607 
L 168.639126 180.498607 
L 168.639126 180.283348 
L 168.758446 180.283348 
L 168.758446 180.068089 
L 169.089824 180.068089 
L 169.133547 179.637571 
L 169.220674 179.637571 
L 169.300168 179.207052 
L 169.364947 179.207052 
L 169.429491 178.776534 
L 169.500935 178.776534 
L 169.51519 178.346016 
L 169.80493 178.346016 
L 169.80493 178.130756 
L 170.172643 178.130756 
L 170.172643 177.915497 
L 170.316273 177.915497 
L 170.3435 177.484979 
L 170.465514 177.484979 
L 170.465514 177.26972 
L 170.687064 177.26972 
L 170.687064 177.054461 
L 170.932245 177.054461 
L 171.017597 176.623942 
L 171.069919 176.623942 
L 171.141613 176.193424 
L 171.213021 176.193424 
L 171.290596 175.762906 
L 171.329258 175.762906 
L 171.425548 175.332387 
L 171.495832 175.332387 
L 171.56584 174.68661 
L 171.654548 174.68661 
L 171.730233 173.825573 
L 171.8056 173.825573 
L 171.8056 173.610314 
L 172.091595 173.610314 
L 172.122408 173.179796 
L 172.42159 173.179796 
L 172.439746 172.749277 
L 172.940754 172.749277 
L 172.940754 172.534018 
L 173.197686 172.534018 
L 173.272895 172.1035 
L 173.313262 172.1035 
L 173.410918 171.672981 
L 173.502345 171.672981 
L 173.502345 171.457722 
L 173.695086 171.457722 
L 173.801896 170.811945 
L 173.919211 170.811945 
L 173.919211 170.596685 
L 174.124053 170.596685 
L 174.135059 170.166167 
L 174.623438 170.166167 
L 174.623438 169.950908 
L 174.941762 169.950908 
L 174.941762 169.735649 
L 175.07796 169.735649 
L 175.114452 169.30513 
L 175.342141 169.30513 
L 175.342141 169.089871 
L 175.617668 169.089871 
L 175.617668 168.874612 
L 175.913929 168.874612 
L 176.018203 166.72202 
L 176.028102 166.72202 
L 176.102172 165.645724 
L 176.146467 165.645724 
L 176.249397 157.896394 
L 176.259169 157.896394 
L 176.356597 156.38958 
L 176.405112 156.38958 
L 176.506567 154.236988 
L 176.6266 154.236988 
L 176.736323 151.438619 
L 176.741079 151.438619 
L 176.816992 150.147064 
L 177.108148 150.147064 
L 177.131423 149.501286 
L 177.394635 149.501286 
L 177.394635 149.286027 
L 177.590665 149.286027 
L 177.658544 148.855509 
L 178.011848 148.855509 
L 178.069324 148.424991 
L 178.174948 148.424991 
L 178.262494 147.994472 
L 178.327873 147.994472 
L 178.401682 147.563954 
L 178.522588 147.563954 
L 178.522588 147.348695 
L 178.664042 147.348695 
L 178.706687 146.918176 
L 178.977229 146.918176 
L 178.977229 146.702917 
L 179.110979 146.702917 
L 179.173331 146.05714 
L 179.280896 146.05714 
L 179.383717 145.626621 
L 179.412401 145.626621 
L 179.461467 144.980844 
L 179.526679 144.980844 
L 179.575432 144.335066 
L 179.640231 144.335066 
L 179.749048 143.043511 
L 179.90905 143.043511 
L 180.012288 142.182475 
L 180.020205 142.182475 
L 180.130673 141.536697 
L 180.216992 141.536697 
L 180.302897 140.245142 
L 180.361232 140.245142 
L 180.423247 139.168846 
L 180.504317 139.168846 
L 180.573514 138.738328 
L 180.619497 138.738328 
L 180.730135 137.662032 
L 180.741542 137.662032 
L 180.843873 136.800995 
L 180.885396 136.800995 
L 180.956891 135.724699 
L 181.013133 135.724699 
L 181.106479 134.863663 
L 181.128809 134.863663 
L 181.225253 133.787367 
L 181.273281 133.787367 
L 181.328538 133.141589 
L 181.431228 133.141589 
L 181.482353 132.280553 
L 181.544237 132.280553 
L 181.558767 131.850034 
L 181.714222 131.850034 
L 181.811146 130.988998 
L 181.946673 130.988998 
L 182.031743 130.127961 
L 182.105848 130.127961 
L 182.193669 129.482183 
L 182.228677 129.482183 
L 182.281061 129.051665 
L 182.340244 129.051665 
L 182.440754 124.100704 
L 182.520068 124.100704 
L 182.612729 123.239667 
L 182.687877 123.239667 
L 182.793234 122.809149 
L 182.978642 122.809149 
L 183.028876 121.948112 
L 183.182051 121.948112 
L 183.211867 121.517594 
L 183.360206 121.517594 
L 183.448621 121.087076 
L 183.526848 121.087076 
L 183.526848 120.871816 
L 184.15947 120.871816 
L 184.184565 120.226039 
L 184.399565 120.226039 
L 184.504563 119.580261 
L 184.532253 119.580261 
L 184.618129 119.149743 
L 184.682265 119.149743 
L 184.779556 118.719225 
L 185.163509 118.719225 
L 185.163509 118.503966 
L 185.393498 118.503966 
L 185.393498 118.288706 
L 185.681208 118.288706 
L 185.790423 117.642929 
L 185.839067 117.642929 
L 185.839067 117.42767 
L 186.05493 117.42767 
L 186.122559 116.997151 
L 186.21793 116.997151 
L 186.248677 116.566633 
L 186.40716 116.566633 
L 186.40716 116.351374 
L 186.536789 116.351374 
L 186.632715 115.920855 
L 186.651838 115.920855 
L 186.651838 115.705596 
L 186.858157 115.705596 
L 186.938948 115.275078 
L 186.979206 115.275078 
L 187.070125 114.84456 
L 187.189751 114.84456 
L 187.189751 114.6293 
L 187.30595 114.6293 
L 187.332253 114.198782 
L 187.418782 114.198782 
L 187.418782 113.983523 
L 187.536104 113.983523 
L 187.62424 113.122486 
L 187.660405 113.122486 
L 187.745362 112.691968 
L 187.878421 112.691968 
L 187.931876 111.615672 
L 188.08121 111.615672 
L 188.08121 111.400413 
L 188.246797 111.400413 
L 188.246797 111.185154 
L 188.646846 111.185154 
L 188.646846 110.969895 
L 189.06678 110.969895 
L 189.06678 110.754635 
L 189.40466 110.754635 
L 189.484064 110.108858 
L 189.525958 110.108858 
L 189.535255 109.678339 
L 189.740864 109.678339 
L 189.740864 109.46308 
L 189.88499 109.46308 
L 189.88499 109.247821 
L 190.100148 109.247821 
L 190.100148 109.032562 
L 190.412575 109.032562 
L 190.412575 108.817303 
L 190.765239 108.817303 
L 190.871205 108.386784 
L 190.8906 108.386784 
L 190.8906 108.171525 
L 191.059947 108.171525 
L 191.170546 107.310489 
L 191.265708 107.310489 
L 191.274142 106.87997 
L 191.414828 106.87997 
L 191.414828 106.664711 
L 191.734058 106.664711 
L 191.734058 106.449452 
L 193.03341 106.449452 
L 193.03341 106.234193 
L 193.246105 106.234193 
L 193.246105 106.018934 
L 193.960333 106.018934 
L 193.960333 105.803674 
L 194.310576 105.803674 
L 194.310576 105.588415 
L 194.508681 105.588415 
L 194.508681 105.373156 
L 194.708092 105.373156 
L 194.800048 104.29686 
L 194.844986 104.29686 
L 194.857066 103.866342 
L 195.284892 103.866342 
L 195.343743 103.005305 
L 195.661533 103.005305 
L 195.730661 102.359528 
L 196.272676 102.359528 
L 196.272676 102.144268 
L 196.415532 102.144268 
L 196.497554 101.498491 
L 197.258539 101.498491 
L 197.258539 101.283232 
L 197.950753 101.283232 
L 197.950753 101.067973 
L 199.556429 101.067973 
L 199.633179 100.422195 
L 199.752936 100.422195 
L 199.752936 100.206936 
L 199.870593 100.206936 
L 199.904439 99.776418 
L 200.685642 99.776418 
L 200.685642 99.561158 
L 200.840581 99.561158 
L 200.92922 99.13064 
L 200.9795 99.13064 
L 200.9795 98.915381 
L 201.397069 98.915381 
L 201.405441 98.484862 
L 201.622934 98.484862 
L 201.622934 98.269603 
L 201.806271 98.269603 
L 201.879781 97.839085 
L 201.973851 97.839085 
L 201.973851 97.623826 
L 202.092761 97.623826 
L 202.092761 97.408567 
L 202.378127 97.408567 
L 202.378127 97.193307 
L 202.546063 97.193307 
L 202.546063 96.978048 
L 203.095078 96.978048 
L 203.095078 96.762789 
L 203.701488 96.762789 
L 203.701488 96.54753 
L 204.014204 96.54753 
L 204.014204 96.332271 
L 204.478284 96.332271 
L 204.478284 96.117012 
L 204.595695 96.117012 
L 204.595695 95.901752 
L 204.909005 95.901752 
L 204.909005 95.686493 
L 206.012361 95.686493 
L 206.012361 95.471234 
L 206.782751 95.471234 
L 206.873675 95.040716 
L 206.946607 95.040716 
L 206.946607 94.825457 
L 207.106367 94.825457 
L 207.106367 94.610197 
L 208.077249 94.610197 
L 208.077249 94.394938 
L 208.254986 94.394938 
L 208.254986 94.179679 
L 208.54039 94.179679 
L 208.54039 93.96442 
L 208.842613 93.96442 
L 208.842613 93.749161 
L 209.079986 93.749161 
L 209.079986 93.533901 
L 209.603763 93.533901 
L 209.603763 93.318642 
L 209.895357 93.318642 
L 209.895357 93.103383 
L 210.491271 93.103383 
L 210.491271 92.888124 
L 211.358025 92.888124 
L 211.358025 92.672865 
L 211.527121 92.672865 
L 211.527121 92.457606 
L 211.644139 92.457606 
L 211.753025 92.027087 
L 211.876565 92.027087 
L 211.968828 91.596569 
L 212.061934 91.596569 
L 212.127018 91.166051 
L 212.327349 91.166051 
L 212.327349 90.950791 
L 212.87309 90.950791 
L 212.94595 90.520273 
L 213.108184 90.520273 
L 213.110669 88.7982 
L 213.565658 88.7982 
L 213.565658 88.582941 
L 213.802031 88.582941 
L 213.802031 88.367681 
L 214.566374 88.367681 
L 214.566374 88.152422 
L 214.792779 88.152422 
L 214.792779 87.937163 
L 214.907723 87.937163 
L 214.907723 87.721904 
L 215.091555 87.721904 
L 215.091555 87.506645 
L 215.464532 87.506645 
L 215.464532 87.291385 
L 216.28593 87.291385 
L 216.28593 87.076126 
L 216.571685 87.076126 
L 216.657954 86.645608 
L 217.718662 86.645608 
L 217.718662 86.430349 
L 217.838709 86.430349 
L 217.838709 86.21509 
L 217.96837 86.21509 
L 218.030727 85.784571 
L 218.104142 85.784571 
L 218.104142 85.569312 
L 218.245881 85.569312 
L 218.266835 85.138794 
L 218.385117 85.138794 
L 218.448803 84.708275 
L 218.659011 84.708275 
L 218.736695 84.277757 
L 219.628828 84.277757 
L 219.628828 84.062498 
L 219.876358 84.062498 
L 219.876358 83.847239 
L 220.014892 83.847239 
L 220.014892 83.63198 
L 220.169523 83.63198 
L 220.169523 83.41672 
L 220.290858 83.41672 
L 220.290858 83.201461 
L 220.420041 83.201461 
L 220.520421 82.770943 
L 220.618201 82.770943 
L 220.714637 82.340425 
L 221.367285 82.340425 
L 221.367285 82.125165 
L 222.958656 82.125165 
L 222.958656 81.909906 
L 223.137786 81.909906 
L 223.2258 81.264129 
L 223.293723 81.264129 
L 223.392856 80.83361 
L 225.07423 80.83361 
L 225.111391 80.403092 
L 225.187695 80.403092 
L 225.187695 80.187833 
L 227.636449 80.187833 
L 227.734798 79.326796 
L 227.773385 79.326796 
L 227.872073 78.681019 
L 227.892179 78.681019 
L 227.935305 78.2505 
L 228.177472 78.2505 
L 228.177472 78.035241 
L 229.109013 78.035241 
L 229.216504 77.174204 
L 229.251017 77.174204 
L 229.327112 76.528427 
L 229.368914 76.528427 
L 229.460436 75.66739 
L 229.484796 75.66739 
L 229.540352 75.021613 
L 229.680456 75.021613 
L 229.776511 74.375835 
L 229.853569 74.375835 
L 229.904838 73.945317 
L 229.964909 73.945317 
L 230.057286 73.299539 
L 230.107974 73.299539 
L 230.206298 72.653762 
L 230.275112 72.653762 
L 230.36945 72.007984 
L 230.418318 72.007984 
L 230.510732 71.362207 
L 230.544006 71.362207 
L 230.639965 70.716429 
L 230.699708 70.716429 
L 230.796222 70.070652 
L 230.846701 70.070652 
L 230.943342 69.424874 
L 231.004591 69.424874 
L 231.11014 68.563837 
L 231.14209 68.563837 
L 231.252008 67.91806 
L 231.276517 67.91806 
L 231.384274 67.272282 
L 231.42198 67.272282 
L 231.512685 66.626505 
L 231.561846 66.626505 
L 231.561846 66.411246 
L 232.093448 66.411246 
L 232.093448 66.195987 
L 232.527123 66.195987 
L 232.527123 65.980727 
L 235.14866 65.980727 
L 235.14866 65.765468 
L 244.646507 65.765468 
L 244.646507 65.550209 
L 246.256785 65.550209 
L 246.333767 65.119691 
L 247.871098 65.119691 
L 247.921891 64.689172 
L 247.986128 64.689172 
L 248.067001 64.258654 
L 248.12827 64.258654 
L 248.229224 63.612876 
L 248.27146 63.612876 
L 248.369021 62.967099 
L 248.409119 62.967099 
L 248.490677 62.321321 
L 248.537176 62.321321 
L 248.628366 61.675544 
L 248.658716 61.675544 
L 248.744641 61.029766 
L 248.778085 61.029766 
L 248.853275 60.383989 
L 248.890374 60.383989 
L 248.970521 59.738211 
L 249.025611 59.738211 
L 249.122958 59.092434 
L 249.161732 59.092434 
L 249.161732 58.877175 
L 254.469649 58.877175 
L 254.469649 58.661915 
L 262.322058 58.661915 
L 262.322058 58.446656 
L 263.054981 58.446656 
L 263.054981 58.231397 
L 265.832325 58.231397 
L 265.832325 58.016138 
L 265.947735 58.016138 
L 265.947735 57.800879 
L 266.152682 57.800879 
L 266.249679 57.37036 
L 266.357733 57.37036 
L 266.446973 56.509324 
L 266.488671 56.509324 
L 266.595326 55.433028 
L 266.61875 55.433028 
L 266.702832 54.571991 
L 266.734613 54.571991 
L 266.834531 53.495695 
L 266.85338 53.495695 
L 266.964321 52.419399 
L 266.987084 52.419399 
L 267.08618 51.343104 
L 267.11387 51.343104 
L 267.17997 50.482067 
L 274.723417 50.482067 
L 274.723417 50.266808 
L 276.22227 50.266808 
L 276.22227 50.051549 
L 276.648914 50.051549 
L 276.648914 49.836289 
L 277.300101 49.836289 
L 277.300101 49.62103 
L 278.349278 49.62103 
L 278.349278 49.405771 
L 280.51423 49.405771 
L 280.51423 49.190512 
L 282.065964 49.190512 
L 282.159682 47.898957 
L 282.180631 47.898957 
L 282.285113 46.176883 
L 282.304482 46.176883 
L 282.409079 44.239551 
L 282.426979 44.239551 
L 282.472995 43.378514 
L 297.008796 43.378514 
L 297.008796 43.163255 
L 305.184427 43.163255 
L 305.184427 42.947996 
L 327.532594 42.947996 
L 327.532594 42.732737 
L 353.599634 42.732737 
L 353.607313 34.768147 
L 358.8 34.768147 
L 358.8 34.768147 
" style="fill:none;stroke:#f5deb3;stroke-linecap:square;stroke-width:6;"/>
   </g>
   <g id="line2d_2"/>
   <g id="line2d_3">
    <path d="M 358.8 34.768147 
L 390.48 40.037692 
" style="fill:none;stroke:#f5deb3;stroke-linecap:square;stroke-width:6;"/>
    <defs>
     <path d="M -0 7.778175 
L 7.778175 0 
L 0 -7.778175 
L -7.778175 -0 
z
" id="me8c0699e79" style="stroke:#f5deb3;stroke-linejoin:miter;stroke-width:1.5;"/>
    </defs>
    <g>
     <use style="fill:#f5deb3;stroke:#f5deb3;stroke-linejoin:miter;stroke-width:1.5;" x="358.8" xlink:href="#me8c0699e79" y="34.768147"/>
     <use style="fill:#f5deb3;stroke:#f5deb3;stroke-linejoin:miter;stroke-width:1.5;" x="390.48" xlink:href="#me8c0699e79" y="40.037692"/>
    </g>
   </g>
   <g id="matplotlib.axis_1">
    <g id="xtick_1">
     <g id="line2d_4">
      <path clip-path="url(#pc51e5d627c)" d="M 70.8 298.245375 
L 70.8 32.133375 
" style="fill:none;stroke:#b0b0b0;stroke-linecap:square;stroke-width:0.8;"/>
     </g>
     <g id="line2d_5">
      <defs>
       <path d="M 0 0 
L 0 3.5 
" id="m31e0d2bb53" style="stroke:#000000;stroke-width:0.8;"/>
      </defs>
      <g>
       <use style="stroke:#000000;stroke-width:0.8;" x="70.8" xlink:href="#m31e0d2bb53" y="298.245375"/>
      </g>
     </g>
     <g id="text_1">
      <!-- 0 -->
      <defs>
       <path d="M 31.78125 66.40625 
Q 24.171875 66.40625 20.328125 58.90625 
Q 16.5 51.421875 16.5 36.375 
Q 16.5 21.390625 20.328125 13.890625 
Q 24.171875 6.390625 31.78125 6.390625 
Q 39.453125 6.390625 43.28125 13.890625 
Q 47.125 21.390625 47.125 36.375 
Q 47.125 51.421875 43.28125 58.90625 
Q 39.453125 66.40625 31.78125 66.40625 
M 31.78125 74.21875 
Q 44.046875 74.21875 50.515625 64.515625 
Q 56.984375 54.828125 56.984375 36.375 
Q 56.984375 17.96875 50.515625 8.265625 
Q 44.046875 -1.421875 31.78125 -1.421875 
Q 19.53125 -1.421875 13.0625 8.265625 
Q 6.59375 17.96875 6.59375 36.375 
Q 6.59375 54.828125 13.0625 64.515625 
Q 19.53125 74.21875 31.78125 74.21875 
" id="DejaVuSans-30"/>
      </defs>
      <g transform="translate(64.4375 320.44225)scale(0.2 -0.2)">
       <use xlink:href="#DejaVuSans-30"/>
      </g>
     </g>
    </g>
    <g id="xtick_2">
     <g id="line2d_6">
      <path clip-path="url(#pc51e5d627c)" d="M 153.085714 298.245375 
L 153.085714 32.133375 
" style="fill:none;stroke:#b0b0b0;stroke-linecap:square;stroke-width:0.8;"/>
     </g>
     <g id="line2d_7">
      <g>
       <use style="stroke:#000000;stroke-width:0.8;" x="153.085714" xlink:href="#m31e0d2bb53" y="298.245375"/>
      </g>
     </g>
     <g id="text_2">
      <!-- 2 -->
      <defs>
       <path d="M 19.1875 8.296875 
L 53.609375 8.296875 
L 53.609375 0 
L 7.328125 0 
L 7.328125 8.296875 
Q 12.9375 14.109375 22.625 23.890625 
Q 32.328125 33.6875 34.8125 36.53125 
Q 39.546875 41.84375 41.421875 45.53125 
Q 43.3125 49.21875 43.3125 52.78125 
Q 43.3125 58.59375 39.234375 62.25 
Q 35.15625 65.921875 28.609375 65.921875 
Q 23.96875 65.921875 18.8125 64.3125 
Q 13.671875 62.703125 7.8125 59.421875 
L 7.8125 69.390625 
Q 13.765625 71.78125 18.9375 73 
Q 24.125 74.21875 28.421875 74.21875 
Q 39.75 74.21875 46.484375 68.546875 
Q 53.21875 62.890625 53.21875 53.421875 
Q 53.21875 48.921875 51.53125 44.890625 
Q 49.859375 40.875 45.40625 35.40625 
Q 44.1875 33.984375 37.640625 27.21875 
Q 31.109375 20.453125 19.1875 8.296875 
" id="DejaVuSans-32"/>
      </defs>
      <g transform="translate(146.723214 320.44225)scale(0.2 -0.2)">
       <use xlink:href="#DejaVuSans-32"/>
      </g>
     </g>
    </g>
    <g id="xtick_3">
     <g id="line2d_8">
      <path clip-path="url(#pc51e5d627c)" d="M 235.371429 298.245375 
L 235.371429 32.133375 
" style="fill:none;stroke:#b0b0b0;stroke-linecap:square;stroke-width:0.8;"/>
     </g>
     <g id="line2d_9">
      <g>
       <use style="stroke:#000000;stroke-width:0.8;" x="235.371429" xlink:href="#m31e0d2bb53" y="298.245375"/>
      </g>
     </g>
     <g id="text_3">
      <!-- 4 -->
      <defs>
       <path d="M 37.796875 64.3125 
L 12.890625 25.390625 
L 37.796875 25.390625 
z
M 35.203125 72.90625 
L 47.609375 72.90625 
L 47.609375 25.390625 
L 58.015625 25.390625 
L 58.015625 17.1875 
L 47.609375 17.1875 
L 47.609375 0 
L 37.796875 0 
L 37.796875 17.1875 
L 4.890625 17.1875 
L 4.890625 26.703125 
z
" id="DejaVuSans-34"/>
      </defs>
      <g transform="translate(229.008929 320.44225)scale(0.2 -0.2)">
       <use xlink:href="#DejaVuSans-34"/>
      </g>
     </g>
    </g>
    <g id="xtick_4">
     <g id="line2d_10">
      <path clip-path="url(#pc51e5d627c)" d="M 317.657143 298.245375 
L 317.657143 32.133375 
" style="fill:none;stroke:#b0b0b0;stroke-linecap:square;stroke-width:0.8;"/>
     </g>
     <g id="line2d_11">
      <g>
       <use style="stroke:#000000;stroke-width:0.8;" x="317.657143" xlink:href="#m31e0d2bb53" y="298.245375"/>
      </g>
     </g>
     <g id="text_4">
      <!-- 6 -->
      <defs>
       <path d="M 33.015625 40.375 
Q 26.375 40.375 22.484375 35.828125 
Q 18.609375 31.296875 18.609375 23.390625 
Q 18.609375 15.53125 22.484375 10.953125 
Q 26.375 6.390625 33.015625 6.390625 
Q 39.65625 6.390625 43.53125 10.953125 
Q 47.40625 15.53125 47.40625 23.390625 
Q 47.40625 31.296875 43.53125 35.828125 
Q 39.65625 40.375 33.015625 40.375 
M 52.59375 71.296875 
L 52.59375 62.3125 
Q 48.875 64.0625 45.09375 64.984375 
Q 41.3125 65.921875 37.59375 65.921875 
Q 27.828125 65.921875 22.671875 59.328125 
Q 17.53125 52.734375 16.796875 39.40625 
Q 19.671875 43.65625 24.015625 45.921875 
Q 28.375 48.1875 33.59375 48.1875 
Q 44.578125 48.1875 50.953125 41.515625 
Q 57.328125 34.859375 57.328125 23.390625 
Q 57.328125 12.15625 50.6875 5.359375 
Q 44.046875 -1.421875 33.015625 -1.421875 
Q 20.359375 -1.421875 13.671875 8.265625 
Q 6.984375 17.96875 6.984375 36.375 
Q 6.984375 53.65625 15.1875 63.9375 
Q 23.390625 74.21875 37.203125 74.21875 
Q 40.921875 74.21875 44.703125 73.484375 
Q 48.484375 72.75 52.59375 71.296875 
" id="DejaVuSans-36"/>
      </defs>
      <g transform="translate(311.294643 320.44225)scale(0.2 -0.2)">
       <use xlink:href="#DejaVuSans-36"/>
      </g>
     </g>
    </g>
    <g id="xtick_5">
     <g id="line2d_12">
      <path clip-path="url(#pc51e5d627c)" d="M 399.942857 298.245375 
L 399.942857 32.133375 
" style="fill:none;stroke:#b0b0b0;stroke-linecap:square;stroke-width:0.8;"/>
     </g>
     <g id="line2d_13">
      <g>
       <use style="stroke:#000000;stroke-width:0.8;" x="399.942857" xlink:href="#m31e0d2bb53" y="298.245375"/>
      </g>
     </g>
     <g id="text_5">
      <!-- 8 -->
      <defs>
       <path d="M 31.78125 34.625 
Q 24.75 34.625 20.71875 30.859375 
Q 16.703125 27.09375 16.703125 20.515625 
Q 16.703125 13.921875 20.71875 10.15625 
Q 24.75 6.390625 31.78125 6.390625 
Q 38.8125 6.390625 42.859375 10.171875 
Q 46.921875 13.96875 46.921875 20.515625 
Q 46.921875 27.09375 42.890625 30.859375 
Q 38.875 34.625 31.78125 34.625 
M 21.921875 38.8125 
Q 15.578125 40.375 12.03125 44.71875 
Q 8.5 49.078125 8.5 55.328125 
Q 8.5 64.0625 14.71875 69.140625 
Q 20.953125 74.21875 31.78125 74.21875 
Q 42.671875 74.21875 48.875 69.140625 
Q 55.078125 64.0625 55.078125 55.328125 
Q 55.078125 49.078125 51.53125 44.71875 
Q 48 40.375 41.703125 38.8125 
Q 48.828125 37.15625 52.796875 32.3125 
Q 56.78125 27.484375 56.78125 20.515625 
Q 56.78125 9.90625 50.3125 4.234375 
Q 43.84375 -1.421875 31.78125 -1.421875 
Q 19.734375 -1.421875 13.25 4.234375 
Q 6.78125 9.90625 6.78125 20.515625 
Q 6.78125 27.484375 10.78125 32.3125 
Q 14.796875 37.15625 21.921875 38.8125 
M 18.3125 54.390625 
Q 18.3125 48.734375 21.84375 45.5625 
Q 25.390625 42.390625 31.78125 42.390625 
Q 38.140625 42.390625 41.71875 45.5625 
Q 45.3125 48.734375 45.3125 54.390625 
Q 45.3125 60.0625 41.71875 63.234375 
Q 38.140625 66.40625 31.78125 66.40625 
Q 25.390625 66.40625 21.84375 63.234375 
Q 18.3125 60.0625 18.3125 54.390625 
" id="DejaVuSans-38"/>
      </defs>
      <g transform="translate(393.580357 320.44225)scale(0.2 -0.2)">
       <use xlink:href="#DejaVuSans-38"/>
      </g>
     </g>
    </g>
    <g id="xtick_6">
     <g id="line2d_14">
      <defs>
       <path d="M 0 0 
L 0 2 
" id="mca32e53e3b" style="stroke:#000000;stroke-width:0.6;"/>
      </defs>
      <g>
       <use style="stroke:#000000;stroke-width:0.6;" x="83.185234" xlink:href="#mca32e53e3b" y="298.245375"/>
      </g>
     </g>
    </g>
    <g id="xtick_7">
     <g id="line2d_15">
      <g>
       <use style="stroke:#000000;stroke-width:0.6;" x="95.570468" xlink:href="#mca32e53e3b" y="298.245375"/>
      </g>
     </g>
    </g>
    <g id="xtick_8">
     <g id="line2d_16">
      <g>
       <use style="stroke:#000000;stroke-width:0.6;" x="102.815366" xlink:href="#mca32e53e3b" y="298.245375"/>
      </g>
     </g>
    </g>
    <g id="xtick_9">
     <g id="line2d_17">
      <g>
       <use style="stroke:#000000;stroke-width:0.6;" x="107.955702" xlink:href="#mca32e53e3b" y="298.245375"/>
      </g>
     </g>
    </g>
    <g id="xtick_10">
     <g id="line2d_18">
      <g>
       <use style="stroke:#000000;stroke-width:0.6;" x="165.470948" xlink:href="#mca32e53e3b" y="298.245375"/>
      </g>
     </g>
    </g>
    <g id="xtick_11">
     <g id="line2d_19">
      <g>
       <use style="stroke:#000000;stroke-width:0.6;" x="177.856183" xlink:href="#mca32e53e3b" y="298.245375"/>
      </g>
     </g>
    </g>
    <g id="xtick_12">
     <g id="line2d_20">
      <g>
       <use style="stroke:#000000;stroke-width:0.6;" x="185.10108" xlink:href="#mca32e53e3b" y="298.245375"/>
      </g>
     </g>
    </g>
    <g id="xtick_13">
     <g id="line2d_21">
      <g>
       <use style="stroke:#000000;stroke-width:0.6;" x="190.241417" xlink:href="#mca32e53e3b" y="298.245375"/>
      </g>
     </g>
    </g>
    <g id="xtick_14">
     <g id="line2d_22">
      <g>
       <use style="stroke:#000000;stroke-width:0.6;" x="247.756663" xlink:href="#mca32e53e3b" y="298.245375"/>
      </g>
     </g>
    </g>
    <g id="xtick_15">
     <g id="line2d_23">
      <g>
       <use style="stroke:#000000;stroke-width:0.6;" x="260.141897" xlink:href="#mca32e53e3b" y="298.245375"/>
      </g>
     </g>
    </g>
    <g id="xtick_16">
     <g id="line2d_24">
      <g>
       <use style="stroke:#000000;stroke-width:0.6;" x="267.386794" xlink:href="#mca32e53e3b" y="298.245375"/>
      </g>
     </g>
    </g>
    <g id="xtick_17">
     <g id="line2d_25">
      <g>
       <use style="stroke:#000000;stroke-width:0.6;" x="272.527131" xlink:href="#mca32e53e3b" y="298.245375"/>
      </g>
     </g>
    </g>
    <g id="xtick_18">
     <g id="line2d_26">
      <g>
       <use style="stroke:#000000;stroke-width:0.6;" x="330.042377" xlink:href="#mca32e53e3b" y="298.245375"/>
      </g>
     </g>
    </g>
    <g id="xtick_19">
     <g id="line2d_27">
      <g>
       <use style="stroke:#000000;stroke-width:0.6;" x="342.427611" xlink:href="#mca32e53e3b" y="298.245375"/>
      </g>
     </g>
    </g>
    <g id="xtick_20">
     <g id="line2d_28">
      <g>
       <use style="stroke:#000000;stroke-width:0.6;" x="349.672509" xlink:href="#mca32e53e3b" y="298.245375"/>
      </g>
     </g>
    </g>
    <g id="xtick_21">
     <g id="line2d_29">
      <g>
       <use style="stroke:#000000;stroke-width:0.6;" x="354.812845" xlink:href="#mca32e53e3b" y="298.245375"/>
      </g>
     </g>
    </g>
    <g id="xtick_22">
     <g id="line2d_30">
      <g>
       <use style="stroke:#000000;stroke-width:0.6;" x="412.328091" xlink:href="#mca32e53e3b" y="298.245375"/>
      </g>
     </g>
    </g>
    <g id="xtick_23">
     <g id="line2d_31">
      <g>
       <use style="stroke:#000000;stroke-width:0.6;" x="424.713325" xlink:href="#mca32e53e3b" y="298.245375"/>
      </g>
     </g>
    </g>
    <g id="text_6">
     <!-- log10 of (# f-evals / dimension) -->
     <defs>
      <path d="M 9.421875 75.984375 
L 18.40625 75.984375 
L 18.40625 0 
L 9.421875 0 
z
" id="DejaVuSans-6c"/>
      <path d="M 30.609375 48.390625 
Q 23.390625 48.390625 19.1875 42.75 
Q 14.984375 37.109375 14.984375 27.296875 
Q 14.984375 17.484375 19.15625 11.84375 
Q 23.34375 6.203125 30.609375 6.203125 
Q 37.796875 6.203125 41.984375 11.859375 
Q 46.1875 17.53125 46.1875 27.296875 
Q 46.1875 37.015625 41.984375 42.703125 
Q 37.796875 48.390625 30.609375 48.390625 
M 30.609375 56 
Q 42.328125 56 49.015625 48.375 
Q 55.71875 40.765625 55.71875 27.296875 
Q 55.71875 13.875 49.015625 6.21875 
Q 42.328125 -1.421875 30.609375 -1.421875 
Q 18.84375 -1.421875 12.171875 6.21875 
Q 5.515625 13.875 5.515625 27.296875 
Q 5.515625 40.765625 12.171875 48.375 
Q 18.84375 56 30.609375 56 
" id="DejaVuSans-6f"/>
      <path d="M 45.40625 27.984375 
Q 45.40625 37.75 41.375 43.109375 
Q 37.359375 48.484375 30.078125 48.484375 
Q 22.859375 48.484375 18.828125 43.109375 
Q 14.796875 37.75 14.796875 27.984375 
Q 14.796875 18.265625 18.828125 12.890625 
Q 22.859375 7.515625 30.078125 7.515625 
Q 37.359375 7.515625 41.375 12.890625 
Q 45.40625 18.265625 45.40625 27.984375 
M 54.390625 6.78125 
Q 54.390625 -7.171875 48.1875 -13.984375 
Q 42 -20.796875 29.203125 -20.796875 
Q 24.46875 -20.796875 20.265625 -20.09375 
Q 16.0625 -19.390625 12.109375 -17.921875 
L 12.109375 -9.1875 
Q 16.0625 -11.328125 19.921875 -12.34375 
Q 23.78125 -13.375 27.78125 -13.375 
Q 36.625 -13.375 41.015625 -8.765625 
Q 45.40625 -4.15625 45.40625 5.171875 
L 45.40625 9.625 
Q 42.625 4.78125 38.28125 2.390625 
Q 33.9375 0 27.875 0 
Q 17.828125 0 11.671875 7.65625 
Q 5.515625 15.328125 5.515625 27.984375 
Q 5.515625 40.671875 11.671875 48.328125 
Q 17.828125 56 27.875 56 
Q 33.9375 56 38.28125 53.609375 
Q 42.625 51.21875 45.40625 46.390625 
L 45.40625 54.6875 
L 54.390625 54.6875 
z
" id="DejaVuSans-67"/>
      <path d="M 12.40625 8.296875 
L 28.515625 8.296875 
L 28.515625 63.921875 
L 10.984375 60.40625 
L 10.984375 69.390625 
L 28.421875 72.90625 
L 38.28125 72.90625 
L 38.28125 8.296875 
L 54.390625 8.296875 
L 54.390625 0 
L 12.40625 0 
z
" id="DejaVuSans-31"/>
      <path id="DejaVuSans-20"/>
      <path d="M 37.109375 75.984375 
L 37.109375 68.5 
L 28.515625 68.5 
Q 23.6875 68.5 21.796875 66.546875 
Q 19.921875 64.59375 19.921875 59.515625 
L 19.921875 54.6875 
L 34.71875 54.6875 
L 34.71875 47.703125 
L 19.921875 47.703125 
L 19.921875 0 
L 10.890625 0 
L 10.890625 47.703125 
L 2.296875 47.703125 
L 2.296875 54.6875 
L 10.890625 54.6875 
L 10.890625 58.5 
Q 10.890625 67.625 15.140625 71.796875 
Q 19.390625 75.984375 28.609375 75.984375 
z
" id="DejaVuSans-66"/>
      <path d="M 31 75.875 
Q 24.46875 64.65625 21.28125 53.65625 
Q 18.109375 42.671875 18.109375 31.390625 
Q 18.109375 20.125 21.3125 9.0625 
Q 24.515625 -2 31 -13.1875 
L 23.1875 -13.1875 
Q 15.875 -1.703125 12.234375 9.375 
Q 8.59375 20.453125 8.59375 31.390625 
Q 8.59375 42.28125 12.203125 53.3125 
Q 15.828125 64.359375 23.1875 75.875 
z
" id="DejaVuSans-28"/>
      <path d="M 51.125 44 
L 36.921875 44 
L 32.8125 27.6875 
L 47.125 27.6875 
z
M 43.796875 71.78125 
L 38.71875 51.515625 
L 52.984375 51.515625 
L 58.109375 71.78125 
L 65.921875 71.78125 
L 60.890625 51.515625 
L 76.125 51.515625 
L 76.125 44 
L 58.984375 44 
L 54.984375 27.6875 
L 70.515625 27.6875 
L 70.515625 20.21875 
L 53.078125 20.21875 
L 48 0 
L 40.1875 0 
L 45.21875 20.21875 
L 30.90625 20.21875 
L 25.875 0 
L 18.015625 0 
L 23.09375 20.21875 
L 7.71875 20.21875 
L 7.71875 27.6875 
L 24.90625 27.6875 
L 29 44 
L 13.28125 44 
L 13.28125 51.515625 
L 30.90625 51.515625 
L 35.890625 71.78125 
z
" id="DejaVuSans-23"/>
      <path d="M 4.890625 31.390625 
L 31.203125 31.390625 
L 31.203125 23.390625 
L 4.890625 23.390625 
z
" id="DejaVuSans-2d"/>
      <path d="M 56.203125 29.59375 
L 56.203125 25.203125 
L 14.890625 25.203125 
Q 15.484375 15.921875 20.484375 11.0625 
Q 25.484375 6.203125 34.421875 6.203125 
Q 39.59375 6.203125 44.453125 7.46875 
Q 49.3125 8.734375 54.109375 11.28125 
L 54.109375 2.78125 
Q 49.265625 0.734375 44.1875 -0.34375 
Q 39.109375 -1.421875 33.890625 -1.421875 
Q 20.796875 -1.421875 13.15625 6.1875 
Q 5.515625 13.8125 5.515625 26.8125 
Q 5.515625 40.234375 12.765625 48.109375 
Q 20.015625 56 32.328125 56 
Q 43.359375 56 49.78125 48.890625 
Q 56.203125 41.796875 56.203125 29.59375 
M 47.21875 32.234375 
Q 47.125 39.59375 43.09375 43.984375 
Q 39.0625 48.390625 32.421875 48.390625 
Q 24.90625 48.390625 20.390625 44.140625 
Q 15.875 39.890625 15.1875 32.171875 
z
" id="DejaVuSans-65"/>
      <path d="M 2.984375 54.6875 
L 12.5 54.6875 
L 29.59375 8.796875 
L 46.6875 54.6875 
L 56.203125 54.6875 
L 35.6875 0 
L 23.484375 0 
z
" id="DejaVuSans-76"/>
      <path d="M 34.28125 27.484375 
Q 23.390625 27.484375 19.1875 25 
Q 14.984375 22.515625 14.984375 16.5 
Q 14.984375 11.71875 18.140625 8.90625 
Q 21.296875 6.109375 26.703125 6.109375 
Q 34.1875 6.109375 38.703125 11.40625 
Q 43.21875 16.703125 43.21875 25.484375 
L 43.21875 27.484375 
z
M 52.203125 31.203125 
L 52.203125 0 
L 43.21875 0 
L 43.21875 8.296875 
Q 40.140625 3.328125 35.546875 0.953125 
Q 30.953125 -1.421875 24.3125 -1.421875 
Q 15.921875 -1.421875 10.953125 3.296875 
Q 6 8.015625 6 15.921875 
Q 6 25.140625 12.171875 29.828125 
Q 18.359375 34.515625 30.609375 34.515625 
L 43.21875 34.515625 
L 43.21875 35.40625 
Q 43.21875 41.609375 39.140625 45 
Q 35.0625 48.390625 27.6875 48.390625 
Q 23 48.390625 18.546875 47.265625 
Q 14.109375 46.140625 10.015625 43.890625 
L 10.015625 52.203125 
Q 14.9375 54.109375 19.578125 55.046875 
Q 24.21875 56 28.609375 56 
Q 40.484375 56 46.34375 49.84375 
Q 52.203125 43.703125 52.203125 31.203125 
" id="DejaVuSans-61"/>
      <path d="M 44.28125 53.078125 
L 44.28125 44.578125 
Q 40.484375 46.53125 36.375 47.5 
Q 32.28125 48.484375 27.875 48.484375 
Q 21.1875 48.484375 17.84375 46.4375 
Q 14.5 44.390625 14.5 40.28125 
Q 14.5 37.15625 16.890625 35.375 
Q 19.28125 33.59375 26.515625 31.984375 
L 29.59375 31.296875 
Q 39.15625 29.25 43.1875 25.515625 
Q 47.21875 21.78125 47.21875 15.09375 
Q 47.21875 7.46875 41.1875 3.015625 
Q 35.15625 -1.421875 24.609375 -1.421875 
Q 20.21875 -1.421875 15.453125 -0.5625 
Q 10.6875 0.296875 5.421875 2 
L 5.421875 11.28125 
Q 10.40625 8.6875 15.234375 7.390625 
Q 20.0625 6.109375 24.8125 6.109375 
Q 31.15625 6.109375 34.5625 8.28125 
Q 37.984375 10.453125 37.984375 14.40625 
Q 37.984375 18.0625 35.515625 20.015625 
Q 33.0625 21.96875 24.703125 23.78125 
L 21.578125 24.515625 
Q 13.234375 26.265625 9.515625 29.90625 
Q 5.8125 33.546875 5.8125 39.890625 
Q 5.8125 47.609375 11.28125 51.796875 
Q 16.75 56 26.8125 56 
Q 31.78125 56 36.171875 55.265625 
Q 40.578125 54.546875 44.28125 53.078125 
" id="DejaVuSans-73"/>
      <path d="M 25.390625 72.90625 
L 33.6875 72.90625 
L 8.296875 -9.28125 
L 0 -9.28125 
z
" id="DejaVuSans-2f"/>
      <path d="M 45.40625 46.390625 
L 45.40625 75.984375 
L 54.390625 75.984375 
L 54.390625 0 
L 45.40625 0 
L 45.40625 8.203125 
Q 42.578125 3.328125 38.25 0.953125 
Q 33.9375 -1.421875 27.875 -1.421875 
Q 17.96875 -1.421875 11.734375 6.484375 
Q 5.515625 14.40625 5.515625 27.296875 
Q 5.515625 40.1875 11.734375 48.09375 
Q 17.96875 56 27.875 56 
Q 33.9375 56 38.25 53.625 
Q 42.578125 51.265625 45.40625 46.390625 
M 14.796875 27.296875 
Q 14.796875 17.390625 18.875 11.75 
Q 22.953125 6.109375 30.078125 6.109375 
Q 37.203125 6.109375 41.296875 11.75 
Q 45.40625 17.390625 45.40625 27.296875 
Q 45.40625 37.203125 41.296875 42.84375 
Q 37.203125 48.484375 30.078125 48.484375 
Q 22.953125 48.484375 18.875 42.84375 
Q 14.796875 37.203125 14.796875 27.296875 
" id="DejaVuSans-64"/>
      <path d="M 9.421875 54.6875 
L 18.40625 54.6875 
L 18.40625 0 
L 9.421875 0 
z
M 9.421875 75.984375 
L 18.40625 75.984375 
L 18.40625 64.59375 
L 9.421875 64.59375 
z
" id="DejaVuSans-69"/>
      <path d="M 52 44.1875 
Q 55.375 50.25 60.0625 53.125 
Q 64.75 56 71.09375 56 
Q 79.640625 56 84.28125 50.015625 
Q 88.921875 44.046875 88.921875 33.015625 
L 88.921875 0 
L 79.890625 0 
L 79.890625 32.71875 
Q 79.890625 40.578125 77.09375 44.375 
Q 74.3125 48.1875 68.609375 48.1875 
Q 61.625 48.1875 57.5625 43.546875 
Q 53.515625 38.921875 53.515625 30.90625 
L 53.515625 0 
L 44.484375 0 
L 44.484375 32.71875 
Q 44.484375 40.625 41.703125 44.40625 
Q 38.921875 48.1875 33.109375 48.1875 
Q 26.21875 48.1875 22.15625 43.53125 
Q 18.109375 38.875 18.109375 30.90625 
L 18.109375 0 
L 9.078125 0 
L 9.078125 54.6875 
L 18.109375 54.6875 
L 18.109375 46.1875 
Q 21.1875 51.21875 25.484375 53.609375 
Q 29.78125 56 35.6875 56 
Q 41.65625 56 45.828125 52.96875 
Q 50 49.953125 52 44.1875 
" id="DejaVuSans-6d"/>
      <path d="M 54.890625 33.015625 
L 54.890625 0 
L 45.90625 0 
L 45.90625 32.71875 
Q 45.90625 40.484375 42.875 44.328125 
Q 39.84375 48.1875 33.796875 48.1875 
Q 26.515625 48.1875 22.3125 43.546875 
Q 18.109375 38.921875 18.109375 30.90625 
L 18.109375 0 
L 9.078125 0 
L 9.078125 54.6875 
L 18.109375 54.6875 
L 18.109375 46.1875 
Q 21.34375 51.125 25.703125 53.5625 
Q 30.078125 56 35.796875 56 
Q 45.21875 56 50.046875 50.171875 
Q 54.890625 44.34375 54.890625 33.015625 
" id="DejaVuSans-6e"/>
      <path d="M 8.015625 75.875 
L 15.828125 75.875 
Q 23.140625 64.359375 26.78125 53.3125 
Q 30.421875 42.28125 30.421875 31.390625 
Q 30.421875 20.453125 26.78125 9.375 
Q 23.140625 -1.703125 15.828125 -13.1875 
L 8.015625 -13.1875 
Q 14.5 -2 17.703125 9.0625 
Q 20.90625 20.125 20.90625 31.390625 
Q 20.90625 42.671875 17.703125 53.65625 
Q 14.5 64.65625 8.015625 75.875 
" id="DejaVuSans-29"/>
     </defs>
     <g transform="translate(107.015156 342.278812)scale(0.18 -0.18)">
      <use xlink:href="#DejaVuSans-6c"/>
      <use x="27.783203" xlink:href="#DejaVuSans-6f"/>
      <use x="88.964844" xlink:href="#DejaVuSans-67"/>
      <use x="152.441406" xlink:href="#DejaVuSans-31"/>
      <use x="216.064453" xlink:href="#DejaVuSans-30"/>
      <use x="279.6875" xlink:href="#DejaVuSans-20"/>
      <use x="311.474609" xlink:href="#DejaVuSans-6f"/>
      <use x="372.65625" xlink:href="#DejaVuSans-66"/>
      <use x="407.861328" xlink:href="#DejaVuSans-20"/>
      <use x="439.648438" xlink:href="#DejaVuSans-28"/>
      <use x="478.662109" xlink:href="#DejaVuSans-23"/>
      <use x="562.451172" xlink:href="#DejaVuSans-20"/>
      <use x="594.238281" xlink:href="#DejaVuSans-66"/>
      <use x="629.365234" xlink:href="#DejaVuSans-2d"/>
      <use x="665.449219" xlink:href="#DejaVuSans-65"/>
      <use x="726.972656" xlink:href="#DejaVuSans-76"/>
      <use x="786.152344" xlink:href="#DejaVuSans-61"/>
      <use x="847.431641" xlink:href="#DejaVuSans-6c"/>
      <use x="875.214844" xlink:href="#DejaVuSans-73"/>
      <use x="927.314453" xlink:href="#DejaVuSans-20"/>
      <use x="959.101562" xlink:href="#DejaVuSans-2f"/>
      <use x="992.792969" xlink:href="#DejaVuSans-20"/>
      <use x="1024.580078" xlink:href="#DejaVuSans-64"/>
      <use x="1088.056641" xlink:href="#DejaVuSans-69"/>
      <use x="1115.839844" xlink:href="#DejaVuSans-6d"/>
      <use x="1213.251953" xlink:href="#DejaVuSans-65"/>
      <use x="1274.775391" xlink:href="#DejaVuSans-6e"/>
      <use x="1338.154297" xlink:href="#DejaVuSans-73"/>
      <use x="1390.253906" xlink:href="#DejaVuSans-69"/>
      <use x="1418.037109" xlink:href="#DejaVuSans-6f"/>
      <use x="1479.21875" xlink:href="#DejaVuSans-6e"/>
      <use x="1542.597656" xlink:href="#DejaVuSans-29"/>
     </g>
    </g>
   </g>
   <g id="matplotlib.axis_2">
    <g id="ytick_1">
     <g id="line2d_32">
      <path clip-path="url(#pc51e5d627c)" d="M 70.8 298.245375 
L 427.92 298.245375 
" style="fill:none;stroke:#b0b0b0;stroke-linecap:square;stroke-width:0.8;"/>
     </g>
     <g id="line2d_33">
      <defs>
       <path d="M 0 0 
L -3.5 0 
" id="m8b29b4c3fe" style="stroke:#000000;stroke-width:0.8;"/>
      </defs>
      <g>
       <use style="stroke:#000000;stroke-width:0.8;" x="70.8" xlink:href="#m8b29b4c3fe" y="298.245375"/>
      </g>
     </g>
     <g id="text_7">
      <!-- 0.0 -->
      <defs>
       <path d="M 10.6875 12.40625 
L 21 12.40625 
L 21 0 
L 10.6875 0 
z
" id="DejaVuSans-2e"/>
      </defs>
      <g transform="translate(31.99375 305.843812)scale(0.2 -0.2)">
       <use xlink:href="#DejaVuSans-30"/>
       <use x="63.623047" xlink:href="#DejaVuSans-2e"/>
       <use x="95.410156" xlink:href="#DejaVuSans-30"/>
      </g>
     </g>
    </g>
    <g id="ytick_2">
     <g id="line2d_34">
      <path clip-path="url(#pc51e5d627c)" d="M 70.8 245.549929 
L 427.92 245.549929 
" style="fill:none;stroke:#b0b0b0;stroke-linecap:square;stroke-width:0.8;"/>
     </g>
     <g id="line2d_35">
      <g>
       <use style="stroke:#000000;stroke-width:0.8;" x="70.8" xlink:href="#m8b29b4c3fe" y="245.549929"/>
      </g>
     </g>
     <g id="text_8">
      <!-- 0.2 -->
      <g transform="translate(31.99375 253.148367)scale(0.2 -0.2)">
       <use xlink:href="#DejaVuSans-30"/>
       <use x="63.623047" xlink:href="#DejaVuSans-2e"/>
       <use x="95.410156" xlink:href="#DejaVuSans-32"/>
      </g>
     </g>
    </g>
    <g id="ytick_3">
     <g id="line2d_36">
      <path clip-path="url(#pc51e5d627c)" d="M 70.8 192.854484 
L 427.92 192.854484 
" style="fill:none;stroke:#b0b0b0;stroke-linecap:square;stroke-width:0.8;"/>
     </g>
     <g id="line2d_37">
      <g>
       <use style="stroke:#000000;stroke-width:0.8;" x="70.8" xlink:href="#m8b29b4c3fe" y="192.854484"/>
      </g>
     </g>
     <g id="text_9">
      <!-- 0.4 -->
      <g transform="translate(31.99375 200.452921)scale(0.2 -0.2)">
       <use xlink:href="#DejaVuSans-30"/>
       <use x="63.623047" xlink:href="#DejaVuSans-2e"/>
       <use x="95.410156" xlink:href="#DejaVuSans-34"/>
      </g>
     </g>
    </g>
    <g id="ytick_4">
     <g id="line2d_38">
      <path clip-path="url(#pc51e5d627c)" d="M 70.8 140.159038 
L 427.92 140.159038 
" style="fill:none;stroke:#b0b0b0;stroke-linecap:square;stroke-width:0.8;"/>
     </g>
     <g id="line2d_39">
      <g>
       <use style="stroke:#000000;stroke-width:0.8;" x="70.8" xlink:href="#m8b29b4c3fe" y="140.159038"/>
      </g>
     </g>
     <g id="text_10">
      <!-- 0.6 -->
      <g transform="translate(31.99375 147.757476)scale(0.2 -0.2)">
       <use xlink:href="#DejaVuSans-30"/>
       <use x="63.623047" xlink:href="#DejaVuSans-2e"/>
       <use x="95.410156" xlink:href="#DejaVuSans-36"/>
      </g>
     </g>
    </g>
    <g id="ytick_5">
     <g id="line2d_40">
      <path clip-path="url(#pc51e5d627c)" d="M 70.8 87.463593 
L 427.92 87.463593 
" style="fill:none;stroke:#b0b0b0;stroke-linecap:square;stroke-width:0.8;"/>
     </g>
     <g id="line2d_41">
      <g>
       <use style="stroke:#000000;stroke-width:0.8;" x="70.8" xlink:href="#m8b29b4c3fe" y="87.463593"/>
      </g>
     </g>
     <g id="text_11">
      <!-- 0.8 -->
      <g transform="translate(31.99375 95.06203)scale(0.2 -0.2)">
       <use xlink:href="#DejaVuSans-30"/>
       <use x="63.623047" xlink:href="#DejaVuSans-2e"/>
       <use x="95.410156" xlink:href="#DejaVuSans-38"/>
      </g>
     </g>
    </g>
    <g id="ytick_6">
     <g id="line2d_42">
      <path clip-path="url(#pc51e5d627c)" d="M 70.8 34.768147 
L 427.92 34.768147 
" style="fill:none;stroke:#b0b0b0;stroke-linecap:square;stroke-width:0.8;"/>
     </g>
     <g id="line2d_43">
      <g>
       <use style="stroke:#000000;stroke-width:0.8;" x="70.8" xlink:href="#m8b29b4c3fe" y="34.768147"/>
      </g>
     </g>
     <g id="text_12">
      <!-- 1.0 -->
      <g transform="translate(31.99375 42.366585)scale(0.2 -0.2)">
       <use xlink:href="#DejaVuSans-31"/>
       <use x="63.623047" xlink:href="#DejaVuSans-2e"/>
       <use x="95.410156" xlink:href="#DejaVuSans-30"/>
      </g>
     </g>
    </g>
    <g id="text_13">
     <!-- Proportion of function+target pairs -->
     <defs>
      <path d="M 19.671875 64.796875 
L 19.671875 37.40625 
L 32.078125 37.40625 
Q 38.96875 37.40625 42.71875 40.96875 
Q 46.484375 44.53125 46.484375 51.125 
Q 46.484375 57.671875 42.71875 61.234375 
Q 38.96875 64.796875 32.078125 64.796875 
z
M 9.8125 72.90625 
L 32.078125 72.90625 
Q 44.34375 72.90625 50.609375 67.359375 
Q 56.890625 61.8125 56.890625 51.125 
Q 56.890625 40.328125 50.609375 34.8125 
Q 44.34375 29.296875 32.078125 29.296875 
L 19.671875 29.296875 
L 19.671875 0 
L 9.8125 0 
z
" id="DejaVuSans-50"/>
      <path d="M 41.109375 46.296875 
Q 39.59375 47.171875 37.8125 47.578125 
Q 36.03125 48 33.890625 48 
Q 26.265625 48 22.1875 43.046875 
Q 18.109375 38.09375 18.109375 28.8125 
L 18.109375 0 
L 9.078125 0 
L 9.078125 54.6875 
L 18.109375 54.6875 
L 18.109375 46.1875 
Q 20.953125 51.171875 25.484375 53.578125 
Q 30.03125 56 36.53125 56 
Q 37.453125 56 38.578125 55.875 
Q 39.703125 55.765625 41.0625 55.515625 
z
" id="DejaVuSans-72"/>
      <path d="M 18.109375 8.203125 
L 18.109375 -20.796875 
L 9.078125 -20.796875 
L 9.078125 54.6875 
L 18.109375 54.6875 
L 18.109375 46.390625 
Q 20.953125 51.265625 25.265625 53.625 
Q 29.59375 56 35.59375 56 
Q 45.5625 56 51.78125 48.09375 
Q 58.015625 40.1875 58.015625 27.296875 
Q 58.015625 14.40625 51.78125 6.484375 
Q 45.5625 -1.421875 35.59375 -1.421875 
Q 29.59375 -1.421875 25.265625 0.953125 
Q 20.953125 3.328125 18.109375 8.203125 
M 48.6875 27.296875 
Q 48.6875 37.203125 44.609375 42.84375 
Q 40.53125 48.484375 33.40625 48.484375 
Q 26.265625 48.484375 22.1875 42.84375 
Q 18.109375 37.203125 18.109375 27.296875 
Q 18.109375 17.390625 22.1875 11.75 
Q 26.265625 6.109375 33.40625 6.109375 
Q 40.53125 6.109375 44.609375 11.75 
Q 48.6875 17.390625 48.6875 27.296875 
" id="DejaVuSans-70"/>
      <path d="M 18.3125 70.21875 
L 18.3125 54.6875 
L 36.8125 54.6875 
L 36.8125 47.703125 
L 18.3125 47.703125 
L 18.3125 18.015625 
Q 18.3125 11.328125 20.140625 9.421875 
Q 21.96875 7.515625 27.59375 7.515625 
L 36.8125 7.515625 
L 36.8125 0 
L 27.59375 0 
Q 17.1875 0 13.234375 3.875 
Q 9.28125 7.765625 9.28125 18.015625 
L 9.28125 47.703125 
L 2.6875 47.703125 
L 2.6875 54.6875 
L 9.28125 54.6875 
L 9.28125 70.21875 
z
" id="DejaVuSans-74"/>
      <path d="M 8.5 21.578125 
L 8.5 54.6875 
L 17.484375 54.6875 
L 17.484375 21.921875 
Q 17.484375 14.15625 20.5 10.265625 
Q 23.53125 6.390625 29.59375 6.390625 
Q 36.859375 6.390625 41.078125 11.03125 
Q 45.3125 15.671875 45.3125 23.6875 
L 45.3125 54.6875 
L 54.296875 54.6875 
L 54.296875 0 
L 45.3125 0 
L 45.3125 8.40625 
Q 42.046875 3.421875 37.71875 1 
Q 33.40625 -1.421875 27.6875 -1.421875 
Q 18.265625 -1.421875 13.375 4.4375 
Q 8.5 10.296875 8.5 21.578125 
M 31.109375 56 
z
" id="DejaVuSans-75"/>
      <path d="M 48.78125 52.59375 
L 48.78125 44.1875 
Q 44.96875 46.296875 41.140625 47.34375 
Q 37.3125 48.390625 33.40625 48.390625 
Q 24.65625 48.390625 19.8125 42.84375 
Q 14.984375 37.3125 14.984375 27.296875 
Q 14.984375 17.28125 19.8125 11.734375 
Q 24.65625 6.203125 33.40625 6.203125 
Q 37.3125 6.203125 41.140625 7.25 
Q 44.96875 8.296875 48.78125 10.40625 
L 48.78125 2.09375 
Q 45.015625 0.34375 40.984375 -0.53125 
Q 36.96875 -1.421875 32.421875 -1.421875 
Q 20.0625 -1.421875 12.78125 6.34375 
Q 5.515625 14.109375 5.515625 27.296875 
Q 5.515625 40.671875 12.859375 48.328125 
Q 20.21875 56 33.015625 56 
Q 37.15625 56 41.109375 55.140625 
Q 45.0625 54.296875 48.78125 52.59375 
" id="DejaVuSans-63"/>
      <path d="M 46 62.703125 
L 46 35.5 
L 73.1875 35.5 
L 73.1875 27.203125 
L 46 27.203125 
L 46 0 
L 37.796875 0 
L 37.796875 27.203125 
L 10.59375 27.203125 
L 10.59375 35.5 
L 37.796875 35.5 
L 37.796875 62.703125 
z
" id="DejaVuSans-2b"/>
     </defs>
     <g transform="translate(24.250312 323.17875)rotate(-90)scale(0.18 -0.18)">
      <use xlink:href="#DejaVuSans-50"/>
      <use x="60.287109" xlink:href="#DejaVuSans-72"/>
      <use x="101.369141" xlink:href="#DejaVuSans-6f"/>
      <use x="162.550781" xlink:href="#DejaVuSans-70"/>
      <use x="226.027344" xlink:href="#DejaVuSans-6f"/>
      <use x="287.208984" xlink:href="#DejaVuSans-72"/>
      <use x="328.322266" xlink:href="#DejaVuSans-74"/>
      <use x="367.53125" xlink:href="#DejaVuSans-69"/>
      <use x="395.314453" xlink:href="#DejaVuSans-6f"/>
      <use x="456.496094" xlink:href="#DejaVuSans-6e"/>
      <use x="519.875" xlink:href="#DejaVuSans-20"/>
      <use x="551.662109" xlink:href="#DejaVuSans-6f"/>
      <use x="612.84375" xlink:href="#DejaVuSans-66"/>
      <use x="648.048828" xlink:href="#DejaVuSans-20"/>
      <use x="679.835938" xlink:href="#DejaVuSans-66"/>
      <use x="715.041016" xlink:href="#DejaVuSans-75"/>
      <use x="778.419922" xlink:href="#DejaVuSans-6e"/>
      <use x="841.798828" xlink:href="#DejaVuSans-63"/>
      <use x="896.779297" xlink:href="#DejaVuSans-74"/>
      <use x="935.988281" xlink:href="#DejaVuSans-69"/>
      <use x="963.771484" xlink:href="#DejaVuSans-6f"/>
      <use x="1024.953125" xlink:href="#DejaVuSans-6e"/>
      <use x="1088.332031" xlink:href="#DejaVuSans-2b"/>
      <use x="1172.121094" xlink:href="#DejaVuSans-74"/>
      <use x="1211.330078" xlink:href="#DejaVuSans-61"/>
      <use x="1272.609375" xlink:href="#DejaVuSans-72"/>
      <use x="1313.707031" xlink:href="#DejaVuSans-67"/>
      <use x="1377.183594" xlink:href="#DejaVuSans-65"/>
      <use x="1438.707031" xlink:href="#DejaVuSans-74"/>
      <use x="1477.916016" xlink:href="#DejaVuSans-20"/>
      <use x="1509.703125" xlink:href="#DejaVuSans-70"/>
      <use x="1573.179688" xlink:href="#DejaVuSans-61"/>
      <use x="1634.458984" xlink:href="#DejaVuSans-69"/>
      <use x="1662.242188" xlink:href="#DejaVuSans-72"/>
      <use x="1703.355469" xlink:href="#DejaVuSans-73"/>
     </g>
    </g>
   </g>
   <g id="line2d_44">
    <defs>
     <path d="M 0 1.5 
C 0.397805 1.5 0.77937 1.341951 1.06066 1.06066 
C 1.341951 0.77937 1.5 0.397805 1.5 0 
C 1.5 -0.397805 1.341951 -0.77937 1.06066 -1.06066 
C 0.77937 -1.341951 0.397805 -1.5 0 -1.5 
C -0.397805 -1.5 -0.77937 -1.341951 -1.06066 -1.06066 
C -1.341951 -0.77937 -1.5 -0.397805 -1.5 0 
C -1.5 0.397805 -1.341951 0.77937 -1.06066 1.06066 
C -0.77937 1.341951 -0.397805 1.5 0 1.5 
z
" id="m1ccb5219f6" style="stroke:#f5deb3;"/>
    </defs>
    <g>
     <use style="fill:#f5deb3;stroke:#f5deb3;" x="353.607313" xlink:href="#m1ccb5219f6" y="34.768147"/>
     <use style="fill:#f5deb3;stroke:#f5deb3;" x="353.607313" xlink:href="#m1ccb5219f6" y="34.768147"/>
    </g>
   </g>
   <g id="line2d_45">
    <g>
     <use style="fill:#f5deb3;stroke:#f5deb3;stroke-linejoin:miter;stroke-width:1.5;" x="83.185234" xlink:href="#me8c0699e79" y="287.912935"/>
     <use style="fill:#f5deb3;stroke:#f5deb3;stroke-linejoin:miter;stroke-width:1.5;" x="156.058282" xlink:href="#me8c0699e79" y="205.468671"/>
     <use style="fill:#f5deb3;stroke:#f5deb3;stroke-linejoin:miter;stroke-width:1.5;" x="184.504563" xlink:href="#me8c0699e79" y="119.580261"/>
     <use style="fill:#f5deb3;stroke:#f5deb3;stroke-linejoin:miter;stroke-width:1.5;" x="254.469649" xlink:href="#me8c0699e79" y="58.661915"/>
     <use style="fill:#f5deb3;stroke:#f5deb3;stroke-linejoin:miter;stroke-width:1.5;" x="353.607313" xlink:href="#me8c0699e79" y="34.768147"/>
     <use style="fill:#f5deb3;stroke:#f5deb3;stroke-linejoin:miter;stroke-width:1.5;" x="358.8" xlink:href="#me8c0699e79" y="34.768147"/>
    </g>
   </g>
   <g id="line2d_46">
    <defs>
     <path d="M 0 1.5 
C 0.397805 1.5 0.77937 1.341951 1.06066 1.06066 
C 1.341951 0.77937 1.5 0.397805 1.5 0 
C 1.5 -0.397805 1.341951 -0.77937 1.06066 -1.06066 
C 0.77937 -1.341951 0.397805 -1.5 0 -1.5 
C -0.397805 -1.5 -0.77937 -1.341951 -1.06066 -1.06066 
C -1.341951 -0.77937 -1.5 -0.397805 -1.5 0 
C -1.5 0.397805 -1.341951 0.77937 -1.06066 1.06066 
C -0.77937 1.341951 -0.397805 1.5 0 1.5 
z
" id="m7f1dabe629" style="stroke:#ff00ff;"/>
    </defs>
    <g>
     <use style="fill:#ff00ff;stroke:#ff00ff;" x="273.043643" xlink:href="#m7f1dabe629" y="216.877408"/>
     <use style="fill:#ff00ff;stroke:#ff00ff;" x="273.043643" xlink:href="#m7f1dabe629" y="216.877408"/>
    </g>
   </g>
   <g id="line2d_47">
    <path d="M 29.657143 298.245375 
L 29.657143 295.296324 
L 54.427611 295.188695 
L 54.427611 295.059539 
L 61.672509 294.95191 
L 61.672509 294.908858 
L 72.503013 294.801228 
L 72.503013 294.758176 
L 75.487955 294.672073 
L 75.487955 294.585969 
L 79.198079 294.499865 
L 79.198079 294.37071 
L 81.30264 294.327658 
L 81.30264 294.241554 
L 84.057022 294.176977 
L 84.057022 294.090873 
L 84.888247 294.090873 
L 84.888247 293.940192 
L 86.442977 293.854088 
L 86.442977 293.78951 
L 87.172389 293.78951 
L 87.172389 292.928473 
L 88.547538 292.885422 
L 88.547538 292.433377 
L 89.824375 292.3688 
L 89.824375 292.304222 
L 91.583313 292.218118 
L 91.583313 291.572341 
L 92.133145 291.572341 
L 92.133145 291.421659 
L 93.184514 291.335556 
L 93.184514 290.754356 
L 94.653954 290.668252 
L 94.653954 290.603674 
L 95.570468 290.517571 
L 95.570468 289.78569 
L 96.442257 289.67806 
L 96.442257 289.613482 
L 96.862702 289.613482 
L 96.862702 288.946179 
L 98.067751 288.903127 
L 98.067751 288.063616 
L 98.828211 288.020564 
L 98.828211 287.891409 
L 99.196639 287.891409 
L 99.196639 287.224105 
L 99.911459 287.116476 
L 99.911459 286.965794 
L 100.258423 286.965794 
L 100.258423 286.255439 
L 100.598779 286.255439 
L 100.598779 285.157617 
L 101.582593 285.049988 
L 101.582593 284.920832 
L 101.898851 284.920832 
L 101.898851 284.145899 
L 102.515054 284.081321 
L 102.515054 284.016744 
L 103.110713 283.973692 
L 103.110713 283.866062 
L 103.968548 283.779959 
L 103.968548 283.736907 
L 105.312648 283.629277 
L 105.312648 283.607751 
L 105.823201 283.500122 
L 105.823201 283.435544 
L 106.073108 283.435544 
L 106.073108 282.725189 
L 106.562676 282.682137 
L 106.562676 282.165515 
L 106.802521 282.165515 
L 106.802521 281.412108 
L 107.272761 281.326004 
L 107.272761 281.282952 
L 107.955702 281.175323 
L 107.955702 281.132271 
L 108.396913 281.089219 
L 108.396913 280.917012 
L 109.454506 280.809382 
L 109.454506 280.658701 
L 110.257703 280.572597 
L 110.257703 280.508019 
L 110.83726 280.40039 
L 110.83726 280.335812 
L 111.398608 280.249708 
L 111.398608 280.18513 
L 111.763277 280.077501 
L 111.763277 280.012923 
L 112.643657 279.926819 
L 112.643657 279.862242 
L 113.48269 279.776138 
L 113.48269 279.71156 
L 114.126656 279.603931 
L 114.126656 279.560879 
L 114.900288 279.474775 
L 114.900288 279.431723 
L 115.348884 279.34562 
L 115.348884 279.281042 
L 116.072388 279.194938 
L 116.072388 279.151886 
L 116.630812 279.044257 
L 116.630812 278.893575 
L 117.038468 278.828998 
L 117.038468 278.721368 
L 117.437029 278.613738 
L 117.437029 278.549161 
L 117.954982 278.463057 
L 117.954982 278.355427 
L 118.458343 278.269324 
L 118.458343 278.18322 
L 118.947911 278.118642 
L 118.947911 278.011013 
L 119.30648 277.903383 
L 119.30648 277.881857 
L 119.54159 277.860331 
L 119.54159 277.645072 
L 119.888555 277.537443 
L 119.888555 277.494391 
L 120.340936 277.386761 
L 120.340936 277.343709 
L 120.672861 277.300657 
L 120.782147 277.085398 
L 121.106049 276.999295 
L 121.212725 276.719458 
L 121.63317 276.611828 
L 121.63317 276.525724 
L 122.145186 276.482673 
L 122.245852 276.310465 
L 122.445497 276.245888 
L 122.54449 275.793843 
L 122.838219 275.686214 
L 122.935065 275.514006 
L 123.222494 275.470954 
L 123.222494 275.363325 
L 123.505373 275.363325 
L 123.505373 275.234169 
L 123.967107 275.148066 
L 124.058039 275.01891 
L 124.148511 275.01891 
L 124.238527 274.803651 
L 124.505885 274.696021 
L 124.594123 274.65297 
L 124.769302 274.54534 
L 124.856251 274.351607 
L 125.19988 274.287029 
L 125.284764 274.028718 
L 125.453332 273.921088 
L 125.453332 273.834985 
L 125.867924 273.727355 
L 125.949701 273.5982 
L 126.192808 273.512096 
L 126.273114 273.318363 
L 126.432652 273.253785 
L 126.51189 273.103104 
L 126.669319 273.038526 
L 126.747517 272.952422 
L 126.980077 272.90937 
L 127.056929 272.780215 
L 127.209649 272.715637 
L 127.285522 272.564956 
L 127.585834 272.521904 
L 127.66013 272.328171 
L 128.099532 272.220541 
L 128.171726 272.112911 
L 128.528387 272.005282 
L 128.598873 271.940704 
L 128.878068 271.876126 
L 128.94719 271.703919 
L 129.084638 271.682393 
L 129.152967 271.510186 
L 129.557546 271.402556 
L 129.557546 271.316452 
L 129.756451 271.208823 
L 129.822263 271.122719 
L 130.147739 271.01509 
L 130.212129 270.778305 
L 130.276287 270.778305 
L 130.340216 270.584571 
L 130.467392 270.541519 
L 130.530642 270.304734 
L 130.967232 270.218631 
L 131.02874 270.111001 
L 131.333145 270.003372 
L 131.333145 269.96032 
L 131.572989 269.85269 
L 131.63245 269.766586 
L 131.809656 269.702009 
L 131.868336 269.615905 
L 131.926824 269.615905 
L 131.985122 269.400646 
L 132.158881 269.336068 
L 132.158881 269.249964 
L 132.330967 269.206913 
L 132.330967 269.056231 
L 132.501411 268.991653 
L 132.557867 268.840972 
L 133.058096 268.754868 
L 133.167381 268.604187 
L 133.330066 268.518083 
L 133.437706 268.345876 
L 133.597959 268.259772 
L 133.704001 268.130617 
L 133.914217 268.022987 
L 133.966387 267.958409 
L 134.173556 267.872306 
L 134.276246 267.657047 
L 134.37835 267.613995 
L 134.479874 267.355684 
L 134.681207 267.26958 
L 134.781029 267.032795 
L 135.174832 266.925165 
L 135.223453 266.774484 
L 135.464592 266.666854 
L 135.560144 266.537699 
L 135.84377 266.494647 
L 135.937321 266.300914 
L 136.030384 266.257862 
L 136.122965 266.042603 
L 136.260944 265.978025 
L 136.352341 265.74124 
L 136.533745 265.655136 
L 136.623761 265.418351 
L 136.75794 265.310722 
L 136.802443 265.203092 
L 136.979357 265.16004 
L 137.067161 264.901729 
L 137.371122 264.7941 
L 137.457026 264.707996 
L 137.585114 264.621892 
L 137.669998 264.449685 
L 137.838566 264.363581 
L 137.922258 264.10527 
L 138.047065 263.997641 
L 138.088474 263.933063 
L 138.334935 263.846959 
L 138.416339 263.73933 
L 138.537753 263.653226 
L 138.61824 263.459493 
L 138.658348 263.459493 
L 138.658348 263.308811 
L 138.857549 263.265759 
L 138.897124 263.15813 
L 139.054554 263.115078 
L 139.093695 262.921345 
L 139.442163 262.813715 
L 139.480466 262.706086 
L 139.63286 262.619982 
L 139.708573 262.490826 
L 139.859042 262.383197 
L 139.896462 262.318619 
L 140.082396 262.254041 
L 140.193035 262.038782 
L 140.484766 261.952678 
L 140.592949 261.888101 
L 140.736181 261.823523 
L 140.807369 261.672842 
L 141.089317 261.565212 
L 141.193911 261.414531 
L 141.435609 261.306901 
L 141.538202 261.134694 
L 141.775317 261.04859 
L 141.808936 260.854857 
L 142.075629 260.747227 
L 142.174622 260.57502 
L 142.273069 260.488916 
L 142.305764 260.424338 
L 142.468351 260.338235 
L 142.532973 260.209079 
L 142.661521 260.144501 
L 142.72545 260.015346 
L 143.010333 259.907716 
L 143.073028 259.757035 
L 143.197763 259.670931 
L 143.259805 259.52025 
L 143.413974 259.455672 
L 143.505841 259.111257 
L 143.688171 259.003628 
L 143.688171 258.960576 
L 143.838703 258.917524 
L 143.928418 258.745317 
L 144.106507 258.659213 
L 144.19489 258.594635 
L 144.399433 258.551584 
L 144.486383 258.379376 
L 144.687635 258.314798 
L 144.687635 258.250221 
L 144.971262 258.142591 
L 145.055479 258.013436 
L 145.278138 257.927332 
L 145.388435 257.669021 
L 145.525356 257.561391 
L 145.607008 257.496814 
L 145.82294 257.41071 
L 145.929935 257.173925 
L 146.115648 257.087821 
L 146.194652 256.93714 
L 146.429591 256.872562 
L 146.507222 256.721881 
L 146.763584 256.614251 
L 146.839781 256.549673 
L 146.966058 256.46357 
L 147.041398 256.377466 
L 147.240765 256.312888 
L 147.290261 256.183733 
L 147.388844 256.097629 
L 147.413405 255.968473 
L 147.681371 255.88237 
L 147.753761 255.753214 
L 147.945378 255.645585 
L 148.040421 255.516429 
L 148.111373 255.4088 
L 148.182045 255.279644 
L 148.369147 255.19354 
L 148.461969 254.999807 
L 148.554311 254.978281 
L 148.646178 254.741496 
L 148.851168 254.655392 
L 148.941525 254.590815 
L 149.053833 254.504711 
L 149.120881 254.375556 
L 149.342572 254.267926 
L 149.452395 254.074193 
L 149.670036 253.988089 
L 149.777871 253.837408 
L 150.01284 253.729778 
L 150.097524 253.385363 
L 150.2238 253.277734 
L 150.328354 253.062475 
L 150.576814 252.976371 
L 150.679328 252.868741 
L 150.821866 252.782638 
L 150.922987 252.631956 
L 151.103576 252.524327 
L 151.20312 252.438223 
L 151.282358 252.352119 
L 151.380914 252.24449 
L 151.615253 252.158386 
L 151.673361 252.029231 
L 151.961099 251.921601 
L 152.055991 251.749394 
L 152.150381 251.641764 
L 152.225536 251.534134 
L 152.319038 251.448031 
L 152.374905 251.340401 
L 152.559877 251.232772 
L 152.669948 251.146668 
L 152.924173 251.039038 
L 153.014098 250.888357 
L 153.263508 250.780727 
L 153.334133 250.630046 
L 153.561755 250.543942 
L 153.579145 250.457839 
L 153.717659 250.371735 
L 153.734897 250.264105 
L 153.991505 250.156476 
L 154.059315 250.005794 
L 154.377948 249.898165 
L 154.460863 249.747483 
L 154.625547 249.66138 
L 154.723634 249.55375 
L 154.885925 249.44612 
L 154.982597 249.338491 
L 155.078748 249.252387 
L 155.078748 249.187809 
L 155.206151 249.187809 
L 155.316888 248.951024 
L 155.458263 248.843395 
L 155.567453 248.671187 
L 155.675979 248.585084 
L 155.72229 248.412876 
L 155.891075 248.305247 
L 155.99766 248.089988 
L 156.268851 247.982358 
L 156.373212 247.702521 
L 156.828195 247.594892 
L 156.914934 247.530314 
L 157.029934 247.44421 
L 157.029934 247.401158 
L 157.510593 247.293529 
L 157.594089 247.207425 
L 157.91059 247.121321 
L 157.937849 247.056744 
L 158.684685 246.949114 
L 158.749874 246.819959 
L 159.84766 246.712329 
L 159.92094 246.669277 
L 160.590774 246.561648 
L 160.614239 246.518596 
L 161.08859 246.410966 
L 161.08859 246.38944 
L 161.383002 246.303337 
L 161.450259 246.174181 
L 161.738819 246.066551 
L 161.771817 246.001974 
L 162.355582 245.894344 
L 162.355582 245.872818 
L 162.910569 245.765189 
L 162.910569 245.722137 
L 163.687347 245.614507 
L 163.766148 245.420774 
L 164.769433 245.313144 
L 164.871352 245.248567 
L 165.291368 245.183989 
L 165.381384 245.076359 
L 165.710554 244.96873 
L 165.816023 244.8611 
L 166.188921 244.753471 
L 166.283077 244.624315 
L 166.562603 244.516685 
L 166.562603 244.473634 
L 166.994381 244.38753 
L 167.051716 244.301426 
L 167.351755 244.193797 
L 167.439993 244.064641 
L 167.78865 243.978537 
L 167.796496 243.870908 
L 168.161402 243.763278 
L 168.161402 243.741752 
L 168.825216 243.634123 
L 168.86959 243.591071 
L 169.328987 243.483441 
L 169.328987 243.44039 
L 169.853932 243.33276 
L 169.94458 243.289708 
L 170.357098 243.182079 
L 170.391049 243.052923 
L 170.786867 242.945293 
L 170.786867 242.923768 
L 171.219499 242.816138 
L 171.219499 242.794612 
L 171.717641 242.686982 
L 171.717641 242.665457 
L 172.312268 242.557827 
L 172.373085 242.342568 
L 172.512184 242.234938 
L 172.512184 242.213412 
L 173.057999 242.105783 
L 173.069682 242.062731 
L 173.542197 241.955101 
L 173.638613 241.890524 
L 174.250214 241.782894 
L 174.359199 241.718316 
L 174.947019 241.632213 
L 175.036163 241.567635 
L 175.35756 241.460005 
L 175.35756 241.438479 
L 175.763902 241.33085 
L 175.874045 241.244746 
L 176.131715 241.158642 
L 176.131715 241.11559 
L 176.645731 241.007961 
L 176.688701 240.943383 
L 177.108148 240.835754 
L 177.108148 240.814228 
L 177.522526 240.706598 
L 177.554357 240.64202 
L 178.135412 240.534391 
L 178.135412 240.469813 
L 178.604168 240.362183 
L 178.604168 240.340657 
L 179.17748 240.254554 
L 179.17748 240.211502 
L 179.660432 240.103872 
L 179.660432 240.060821 
L 180.283409 239.974717 
L 180.353465 239.888613 
L 180.817399 239.80251 
L 180.919298 239.651828 
L 181.217853 239.544199 
L 181.217853 239.522673 
L 182.186659 239.415043 
L 182.214682 239.371991 
L 182.823705 239.264362 
L 182.914809 239.156732 
L 183.26145 239.049102 
L 183.26145 239.027577 
L 183.998651 238.919947 
L 184.023973 238.876895 
L 184.513798 238.769266 
L 184.584441 238.704688 
L 185.083203 238.597058 
L 185.083203 238.575532 
L 185.738772 238.467903 
L 185.738772 238.446377 
L 186.82033 238.338747 
L 186.906675 238.295695 
L 187.442308 238.209592 
L 187.442308 238.16654 
L 188.174228 238.05891 
L 188.254287 237.994332 
L 188.778229 237.886703 
L 188.778229 237.865177 
L 189.242425 237.757547 
L 189.242425 237.69297 
L 189.690259 237.58534 
L 189.750049 237.499236 
L 190.439102 237.413133 
L 190.439102 237.370081 
L 191.059947 237.262451 
L 191.059947 237.219399 
L 192.098083 237.11177 
L 192.126244 237.025666 
L 193.081107 236.939563 
L 193.090631 236.874985 
L 193.965774 236.767355 
L 193.965774 236.724303 
L 194.464651 236.616674 
L 194.566634 236.401415 
L 194.652341 236.293785 
L 194.754997 236.013948 
L 194.82426 235.927844 
L 194.93109 235.648007 
L 194.982553 235.540378 
L 195.07652 235.131385 
L 195.20048 235.023756 
L 195.310137 234.830023 
L 195.385661 234.743919 
L 195.482535 234.464082 
L 195.572258 234.377978 
L 195.681311 234.076616 
L 195.806068 233.968986 
L 195.89744 233.796779 
L 196.13188 233.689149 
L 196.149541 233.646097 
L 196.914413 233.538468 
L 196.995712 233.430838 
L 197.815316 233.323208 
L 197.824085 233.280157 
L 198.14985 233.172527 
L 198.14985 233.151001 
L 198.584971 233.043372 
L 198.652055 232.957268 
L 199.592199 232.849638 
L 199.695132 232.806586 
L 199.890128 232.698957 
L 199.897935 232.655905 
L 200.983173 232.548275 
L 200.983173 232.526749 
L 201.569697 232.41912 
L 201.595744 232.354542 
L 202.613245 232.268438 
L 202.613245 232.225387 
L 203.629838 232.117757 
L 203.719356 232.074705 
L 204.294095 231.967076 
L 204.363135 231.924024 
L 204.982567 231.816394 
L 204.982567 231.794868 
L 205.854588 231.687239 
L 205.87974 231.622661 
L 206.335588 231.515031 
L 206.335588 231.47198 
L 206.741995 231.36435 
L 206.845476 231.106039 
L 206.896553 230.998409 
L 207.00002 230.653995 
L 207.042809 230.546365 
L 207.138496 230.288054 
L 207.191338 230.20195 
L 207.299136 229.879062 
L 207.378062 229.771432 
L 207.467717 229.534647 
L 207.654118 229.448543 
L 207.654118 229.405491 
L 208.413209 229.297862 
L 208.468056 229.233284 
L 209.461115 229.125655 
L 209.562149 229.061077 
L 210.383076 228.953447 
L 210.475444 228.888869 
L 210.962502 228.78124 
L 211.02124 228.716662 
L 211.588769 228.609033 
L 211.588769 228.565981 
L 213.558997 228.458351 
L 213.627308 228.372247 
L 213.983936 228.264618 
L 214.086552 227.920203 
L 214.144088 227.812574 
L 214.245209 227.61884 
L 214.328364 227.511211 
L 214.422679 227.231374 
L 214.829484 227.123744 
L 214.829484 227.102218 
L 215.530827 226.994589 
L 215.606061 226.951537 
L 216.298924 226.843907 
L 216.396854 226.77933 
L 217.106516 226.6717 
L 217.175412 226.607122 
L 217.876802 226.521019 
L 217.876802 226.477967 
L 218.979821 226.370337 
L 219.073484 226.327285 
L 219.136984 226.241182 
L 219.246137 225.939819 
L 219.337102 225.832189 
L 219.431096 225.5093 
L 219.594296 225.401671 
L 219.594296 225.358619 
L 220.0482 225.272515 
L 220.14105 225.186412 
L 220.859732 225.078782 
L 220.935648 225.03573 
L 222.077578 224.928101 
L 222.169088 224.885049 
L 222.842314 224.777419 
L 222.862117 224.691316 
L 223.128925 224.583686 
L 223.234613 224.368427 
L 223.380975 224.260797 
L 223.387266 224.196219 
L 223.751136 224.08859 
L 223.763458 224.045538 
L 224.590499 223.937908 
L 224.590499 223.894857 
L 225.535917 223.787227 
L 225.560068 223.744175 
L 226.124118 223.636546 
L 226.128015 223.593494 
L 226.359408 223.485864 
L 226.452664 223.292131 
L 226.514662 223.184501 
L 226.533132 223.076872 
L 227.244309 222.969242 
L 227.323821 222.883139 
L 227.941535 222.775509 
L 228.036877 222.732457 
L 228.899517 222.624828 
L 228.899517 222.603302 
L 229.232887 222.495672 
L 229.34089 222.344991 
L 229.927873 222.237361 
L 230.015137 222.129731 
L 231.107871 222.022102 
L 231.107871 222.000576 
L 231.502925 221.892946 
L 231.592779 221.763791 
L 232.378802 221.656161 
L 232.408776 221.591584 
L 233.409044 221.483954 
L 233.409044 221.462428 
L 233.661517 221.354798 
L 233.725306 221.247169 
L 234.194407 221.139539 
L 234.235773 221.096487 
L 235.020652 220.988858 
L 235.056877 220.945806 
L 235.411052 220.838176 
L 235.440801 220.773599 
L 235.757992 220.665969 
L 235.781932 220.579865 
L 237.067456 220.472236 
L 237.168085 220.34308 
L 237.2932 220.235451 
L 237.32254 220.170873 
L 238.117283 220.063243 
L 238.117283 220.041717 
L 238.694568 219.955614 
L 238.780704 219.826458 
L 239.706112 219.718829 
L 239.706112 219.697303 
L 240.138652 219.611199 
L 240.237994 219.525095 
L 241.344072 219.438992 
L 241.344072 219.39594 
L 241.60905 219.28831 
L 241.665045 219.245259 
L 242.498485 219.137629 
L 242.498485 219.116103 
L 242.74215 219.008473 
L 242.808621 218.965422 
L 243.659055 218.857792 
L 243.659055 218.836266 
L 244.131444 218.728637 
L 244.193496 218.685585 
L 245.324191 218.577955 
L 245.324191 218.556429 
L 246.880635 218.4488 
L 246.967124 218.384222 
L 247.823098 218.276592 
L 247.823098 218.255066 
L 248.544358 218.147437 
L 248.60214 218.104385 
L 249.516844 217.996755 
L 249.545561 217.953703 
L 250.145163 217.846074 
L 250.177181 217.803022 
L 250.922745 217.695392 
L 250.938603 217.652341 
L 253.177966 217.544711 
L 253.263115 217.501659 
L 255.564324 217.39403 
L 255.620564 217.350978 
L 258.689469 217.243348 
L 258.782885 217.17877 
L 261.458133 217.071141 
L 261.528292 217.028089 
L 268.230596 216.920459 
L 268.230596 216.898934 
L 358.8 216.877408 
L 358.8 216.877408 
" style="fill:none;stroke:#ff00ff;stroke-linecap:square;stroke-width:1.5;"/>
   </g>
   <g id="line2d_48">
    <defs>
     <path d="M -0 8.485281 
L 5.091169 0 
L 0 -8.485281 
L -5.091169 -0 
z
" id="md398ffc91d" style="stroke:#ff00ff;stroke-linejoin:miter;stroke-width:1.5;"/>
    </defs>
    <g>
     <use style="fill:none;stroke:#ff00ff;stroke-linejoin:miter;stroke-width:1.5;" x="141.606271" xlink:href="#md398ffc91d" y="261.134694"/>
     <use style="fill:none;stroke:#ff00ff;stroke-linejoin:miter;stroke-width:1.5;" x="192.703706" xlink:href="#md398ffc91d" y="236.982614"/>
     <use style="fill:none;stroke:#ff00ff;stroke-linejoin:miter;stroke-width:1.5;" x="250.467163" xlink:href="#md398ffc91d" y="217.716918"/>
     <use style="fill:none;stroke:#ff00ff;stroke-linejoin:miter;stroke-width:1.5;" x="273.043643" xlink:href="#md398ffc91d" y="216.877408"/>
     <use style="fill:none;stroke:#ff00ff;stroke-linejoin:miter;stroke-width:1.5;" x="273.043643" xlink:href="#md398ffc91d" y="216.877408"/>
     <use style="fill:none;stroke:#ff00ff;stroke-linejoin:miter;stroke-width:1.5;" x="358.8" xlink:href="#md398ffc91d" y="216.877408"/>
    </g>
   </g>
   <g id="line2d_49"/>
   <g id="line2d_50">
    <path clip-path="url(#pc51e5d627c)" d="M 194.228571 236.702777 
" style="fill:none;stroke:#ff00ff;stroke-linecap:square;stroke-width:1.5;"/>
    <defs>
     <path d="M -12 12 
L 12 -12 
M -12 -12 
L 12 12 
" id="md102d96aa5" style="stroke:#ff00ff;stroke-width:3;"/>
    </defs>
    <g clip-path="url(#pc51e5d627c)">
     <use style="fill:#ff00ff;stroke:#ff00ff;stroke-width:3;" x="194.228571" xlink:href="#md102d96aa5" y="236.702777"/>
    </g>
   </g>
   <g id="line2d_51">
    <path d="M 358.8 216.877408 
L 390.48 292.97583 
" style="fill:none;stroke:#ff00ff;stroke-linecap:square;stroke-width:1.5;"/>
    <g>
     <use style="fill:none;stroke:#ff00ff;stroke-linejoin:miter;stroke-width:1.5;" x="358.8" xlink:href="#md398ffc91d" y="216.877408"/>
     <use style="fill:none;stroke:#ff00ff;stroke-linejoin:miter;stroke-width:1.5;" x="390.48" xlink:href="#md398ffc91d" y="292.97583"/>
    </g>
   </g>
   <g id="line2d_52">
    <path d="M 358.8 298.245375 
L 358.8 34.768147 
" style="fill:none;stroke:#000000;stroke-linecap:square;stroke-width:1.5;"/>
   </g>
   <g id="patch_3">
    <path d="M 70.8 298.245375 
L 70.8 32.133375 
" style="fill:none;stroke:#000000;stroke-linecap:square;stroke-linejoin:miter;stroke-width:0.8;"/>
   </g>
   <g id="patch_4">
    <path d="M 427.92 298.245375 
L 427.92 32.133375 
" style="fill:none;stroke:#000000;stroke-linecap:square;stroke-linejoin:miter;stroke-width:0.8;"/>
   </g>
   <g id="patch_5">
    <path d="M 70.8 298.245375 
L 427.92 298.245375 
" style="fill:none;stroke:#000000;stroke-linecap:square;stroke-linejoin:miter;stroke-width:0.8;"/>
   </g>
   <g id="patch_6">
    <path d="M 70.8 32.133375 
L 427.92 32.133375 
" style="fill:none;stroke:#000000;stroke-linecap:square;stroke-linejoin:miter;stroke-width:0.8;"/>
   </g>
   <g id="text_14">
    <!-- deapbbob -->
    <defs>
     <path d="M 48.6875 27.296875 
Q 48.6875 37.203125 44.609375 42.84375 
Q 40.53125 48.484375 33.40625 48.484375 
Q 26.265625 48.484375 22.1875 42.84375 
Q 18.109375 37.203125 18.109375 27.296875 
Q 18.109375 17.390625 22.1875 11.75 
Q 26.265625 6.109375 33.40625 6.109375 
Q 40.53125 6.109375 44.609375 11.75 
Q 48.6875 17.390625 48.6875 27.296875 
M 18.109375 46.390625 
Q 20.953125 51.265625 25.265625 53.625 
Q 29.59375 56 35.59375 56 
Q 45.5625 56 51.78125 48.09375 
Q 58.015625 40.1875 58.015625 27.296875 
Q 58.015625 14.40625 51.78125 6.484375 
Q 45.5625 -1.421875 35.59375 -1.421875 
Q 29.59375 -1.421875 25.265625 0.953125 
Q 20.953125 3.328125 18.109375 8.203125 
L 18.109375 0 
L 9.078125 0 
L 9.078125 75.984375 
L 18.109375 75.984375 
z
" id="DejaVuSans-62"/>
    </defs>
    <g transform="translate(396.24 297.114893)scale(0.15 -0.15)">
     <use xlink:href="#DejaVuSans-64"/>
     <use x="63.476562" xlink:href="#DejaVuSans-65"/>
     <use x="125" xlink:href="#DejaVuSans-61"/>
     <use x="186.279297" xlink:href="#DejaVuSans-70"/>
     <use x="249.755859" xlink:href="#DejaVuSans-62"/>
     <use x="313.232422" xlink:href="#DejaVuSans-62"/>
     <use x="376.708984" xlink:href="#DejaVuSans-6f"/>
     <use x="437.890625" xlink:href="#DejaVuSans-62"/>
    </g>
   </g>
   <g id="text_15">
    <!-- best 2009 -->
    <defs>
     <path d="M 10.984375 1.515625 
L 10.984375 10.5 
Q 14.703125 8.734375 18.5 7.8125 
Q 22.3125 6.890625 25.984375 6.890625 
Q 35.75 6.890625 40.890625 13.453125 
Q 46.046875 20.015625 46.78125 33.40625 
Q 43.953125 29.203125 39.59375 26.953125 
Q 35.25 24.703125 29.984375 24.703125 
Q 19.046875 24.703125 12.671875 31.3125 
Q 6.296875 37.9375 6.296875 49.421875 
Q 6.296875 60.640625 12.9375 67.421875 
Q 19.578125 74.21875 30.609375 74.21875 
Q 43.265625 74.21875 49.921875 64.515625 
Q 56.59375 54.828125 56.59375 36.375 
Q 56.59375 19.140625 48.40625 8.859375 
Q 40.234375 -1.421875 26.421875 -1.421875 
Q 22.703125 -1.421875 18.890625 -0.6875 
Q 15.09375 0.046875 10.984375 1.515625 
M 30.609375 32.421875 
Q 37.25 32.421875 41.125 36.953125 
Q 45.015625 41.5 45.015625 49.421875 
Q 45.015625 57.28125 41.125 61.84375 
Q 37.25 66.40625 30.609375 66.40625 
Q 23.96875 66.40625 20.09375 61.84375 
Q 16.21875 57.28125 16.21875 49.421875 
Q 16.21875 41.5 20.09375 36.953125 
Q 23.96875 32.421875 30.609375 32.421875 
" id="DejaVuSans-39"/>
    </defs>
    <g transform="translate(396.24 44.176754)scale(0.15 -0.15)">
     <use xlink:href="#DejaVuSans-62"/>
     <use x="63.476562" xlink:href="#DejaVuSans-65"/>
     <use x="125" xlink:href="#DejaVuSans-73"/>
     <use x="177.099609" xlink:href="#DejaVuSans-74"/>
     <use x="216.308594" xlink:href="#DejaVuSans-20"/>
     <use x="248.095703" xlink:href="#DejaVuSans-32"/>
     <use x="311.71875" xlink:href="#DejaVuSans-30"/>
     <use x="375.341797" xlink:href="#DejaVuSans-30"/>
     <use x="438.964844" xlink:href="#DejaVuSans-39"/>
    </g>
   </g>
   <g id="text_16">
    <!-- bbob - f1-f24, 10-D -->
    <defs>
     <path d="M 11.71875 12.40625 
L 22.015625 12.40625 
L 22.015625 4 
L 14.015625 -11.625 
L 7.71875 -11.625 
L 11.71875 4 
z
" id="DejaVuSans-2c"/>
     <path d="M 19.671875 64.796875 
L 19.671875 8.109375 
L 31.59375 8.109375 
Q 46.6875 8.109375 53.6875 14.9375 
Q 60.6875 21.78125 60.6875 36.53125 
Q 60.6875 51.171875 53.6875 57.984375 
Q 46.6875 64.796875 31.59375 64.796875 
z
M 9.8125 72.90625 
L 30.078125 72.90625 
Q 51.265625 72.90625 61.171875 64.09375 
Q 71.09375 55.28125 71.09375 36.53125 
Q 71.09375 17.671875 61.125 8.828125 
Q 51.171875 0 30.078125 0 
L 9.8125 0 
z
" id="DejaVuSans-44"/>
    </defs>
    <g transform="translate(74.3712 50.114612)scale(0.1666 -0.1666)">
     <use xlink:href="#DejaVuSans-62"/>
     <use x="63.476562" xlink:href="#DejaVuSans-62"/>
     <use x="126.953125" xlink:href="#DejaVuSans-6f"/>
     <use x="188.134766" xlink:href="#DejaVuSans-62"/>
     <use x="251.611328" xlink:href="#DejaVuSans-20"/>
     <use x="283.398438" xlink:href="#DejaVuSans-2d"/>
     <use x="319.482422" xlink:href="#DejaVuSans-20"/>
     <use x="351.269531" xlink:href="#DejaVuSans-66"/>
     <use x="386.474609" xlink:href="#DejaVuSans-31"/>
     <use x="450.097656" xlink:href="#DejaVuSans-2d"/>
     <use x="486.181641" xlink:href="#DejaVuSans-66"/>
     <use x="521.386719" xlink:href="#DejaVuSans-32"/>
     <use x="585.009766" xlink:href="#DejaVuSans-34"/>
     <use x="648.632812" xlink:href="#DejaVuSans-2c"/>
     <use x="680.419922" xlink:href="#DejaVuSans-20"/>
     <use x="712.207031" xlink:href="#DejaVuSans-31"/>
     <use x="775.830078" xlink:href="#DejaVuSans-30"/>
     <use x="839.453125" xlink:href="#DejaVuSans-2d"/>
     <use x="875.537109" xlink:href="#DejaVuSans-44"/>
    </g>
    <!-- 51 targets in 100..1e-08 -->
    <defs>
     <path d="M 10.796875 72.90625 
L 49.515625 72.90625 
L 49.515625 64.59375 
L 19.828125 64.59375 
L 19.828125 46.734375 
Q 21.96875 47.46875 24.109375 47.828125 
Q 26.265625 48.1875 28.421875 48.1875 
Q 40.625 48.1875 47.75 41.5 
Q 54.890625 34.8125 54.890625 23.390625 
Q 54.890625 11.625 47.5625 5.09375 
Q 40.234375 -1.421875 26.90625 -1.421875 
Q 22.3125 -1.421875 17.546875 -0.640625 
Q 12.796875 0.140625 7.71875 1.703125 
L 7.71875 11.625 
Q 12.109375 9.234375 16.796875 8.0625 
Q 21.484375 6.890625 26.703125 6.890625 
Q 35.15625 6.890625 40.078125 11.328125 
Q 45.015625 15.765625 45.015625 23.390625 
Q 45.015625 31 40.078125 35.4375 
Q 35.15625 39.890625 26.703125 39.890625 
Q 22.75 39.890625 18.8125 39.015625 
Q 14.890625 38.140625 10.796875 36.28125 
z
" id="DejaVuSans-35"/>
    </defs>
    <g transform="translate(74.3712 68.770168)scale(0.1666 -0.1666)">
     <use xlink:href="#DejaVuSans-35"/>
     <use x="63.623047" xlink:href="#DejaVuSans-31"/>
     <use x="127.246094" xlink:href="#DejaVuSans-20"/>
     <use x="159.033203" xlink:href="#DejaVuSans-74"/>
     <use x="198.242188" xlink:href="#DejaVuSans-61"/>
     <use x="259.521484" xlink:href="#DejaVuSans-72"/>
     <use x="300.619141" xlink:href="#DejaVuSans-67"/>
     <use x="364.095703" xlink:href="#DejaVuSans-65"/>
     <use x="425.619141" xlink:href="#DejaVuSans-74"/>
     <use x="464.828125" xlink:href="#DejaVuSans-73"/>
     <use x="516.927734" xlink:href="#DejaVuSans-20"/>
     <use x="548.714844" xlink:href="#DejaVuSans-69"/>
     <use x="576.498047" xlink:href="#DejaVuSans-6e"/>
     <use x="639.876953" xlink:href="#DejaVuSans-20"/>
     <use x="671.664062" xlink:href="#DejaVuSans-31"/>
     <use x="735.287109" xlink:href="#DejaVuSans-30"/>
     <use x="798.910156" xlink:href="#DejaVuSans-30"/>
     <use x="862.533203" xlink:href="#DejaVuSans-2e"/>
     <use x="894.320312" xlink:href="#DejaVuSans-2e"/>
     <use x="926.107422" xlink:href="#DejaVuSans-31"/>
     <use x="989.730469" xlink:href="#DejaVuSans-65"/>
     <use x="1051.253906" xlink:href="#DejaVuSans-2d"/>
     <use x="1087.337891" xlink:href="#DejaVuSans-30"/>
     <use x="1150.960938" xlink:href="#DejaVuSans-38"/>
    </g>
    <!-- 15 instances -->
    <g transform="translate(74.3712 87.425723)scale(0.1666 -0.1666)">
     <use xlink:href="#DejaVuSans-31"/>
     <use x="63.623047" xlink:href="#DejaVuSans-35"/>
     <use x="127.246094" xlink:href="#DejaVuSans-20"/>
     <use x="159.033203" xlink:href="#DejaVuSans-69"/>
     <use x="186.816406" xlink:href="#DejaVuSans-6e"/>
     <use x="250.195312" xlink:href="#DejaVuSans-73"/>
     <use x="302.294922" xlink:href="#DejaVuSans-74"/>
     <use x="341.503906" xlink:href="#DejaVuSans-61"/>
     <use x="402.783203" xlink:href="#DejaVuSans-6e"/>
     <use x="466.162109" xlink:href="#DejaVuSans-63"/>
     <use x="521.142578" xlink:href="#DejaVuSans-65"/>
     <use x="582.666016" xlink:href="#DejaVuSans-73"/>
    </g>
   </g>
   <g id="text_17">
    <!-- v2.1 -->
    <g style="fill:#808080;" transform="translate(238.449063 293.504568)scale(0.1 -0.1)">
     <use xlink:href="#DejaVuSans-76"/>
     <use x="59.179688" xlink:href="#DejaVuSans-32"/>
     <use x="122.802734" xlink:href="#DejaVuSans-2e"/>
     <use x="154.589844" xlink:href="#DejaVuSans-31"/>
    </g>
   </g>
  </g>
 </g>
 <defs>
  <clipPath id="pc51e5d627c">
   <rect height="266.112" width="357.12" x="70.8" y="32.133375"/>
  </clipPath>
 </defs>
</svg>
