<?xml version="1.0" encoding="utf-8" standalone="no"?>
<!DOCTYPE svg PUBLIC "-//W3C//DTD SVG 1.1//EN"
  "http://www.w3.org/Graphics/SVG/1.1/DTD/svg11.dtd">
<!-- Created with matplotlib (http://matplotlib.org/) -->
<svg height="353pt" version="1.1" viewBox="0 0 478 353" width="478pt" xmlns="http://www.w3.org/2000/svg" xmlns:xlink="http://www.w3.org/1999/xlink">
 <defs>
  <style type="text/css">
*{stroke-linecap:butt;stroke-linejoin:round;}
  </style>
 </defs>
 <g id="figure_1">
  <g id="patch_1">
   <path d="M 0 353.22225 
L 478.829063 353.22225 
L 478.829063 0 
L 0 0 
z
" style="fill:#ffffff;"/>
  </g>
  <g id="axes_1">
   <g id="patch_2">
    <path d="M 70.8 298.245375 
L 427.92 298.245375 
L 427.92 32.133375 
L 70.8 32.133375 
z
" style="fill:#ffffff;"/>
   </g>
   <g id="line2d_1">
    <path d="M 51.169868 298.245375 
L 51.169868 291.7876 
L 70.8 291.7876 
L 70.8 290.496045 
L 75.940337 290.496045 
L 75.940337 289.20449 
L 79.927491 289.20449 
L 79.927491 287.912935 
L 88.325571 287.912935 
L 88.325571 282.746715 
L 94.015739 282.746715 
L 94.015739 281.45516 
L 97.000681 281.45516 
L 97.000681 280.163604 
L 99.557623 280.163604 
L 99.557623 278.872049 
L 100.710805 278.872049 
L 100.710805 277.580494 
L 101.794053 277.580494 
L 101.794053 276.288939 
L 102.815366 276.288939 
L 102.815366 274.997384 
L 103.781445 274.997384 
L 103.781445 273.705829 
L 104.69796 273.705829 
L 104.69796 272.414274 
L 105.569748 272.414274 
L 105.569748 271.122719 
L 107.955702 271.122719 
L 107.955702 269.831164 
L 108.685114 269.831164 
L 108.685114 265.956499 
L 110.060263 265.956499 
L 110.060263 264.664944 
L 112.528749 264.664944 
L 112.528749 260.790279 
L 113.096039 260.790279 
L 113.096039 259.498724 
L 114.179287 259.498724 
L 114.179287 258.207169 
L 116.166679 258.207169 
L 116.166679 256.915614 
L 116.630812 256.915614 
L 116.630812 255.624059 
L 117.083194 255.624059 
L 117.083194 253.040949 
L 119.187755 253.040949 
L 119.187755 251.749394 
L 119.580476 251.749394 
L 119.580476 250.457839 
L 120.340936 250.457839 
L 120.340936 249.166284 
L 120.709364 249.166284 
L 120.709364 247.874729 
L 121.771149 247.874729 
L 121.771149 246.583173 
L 123.095319 246.583173 
L 123.095319 245.291618 
L 123.722334 245.291618 
L 123.722334 244.000063 
L 124.623439 244.000063 
L 124.623439 242.708508 
L 125.758304 242.708508 
L 125.758304 240.125398 
L 126.031105 240.125398 
L 126.031105 238.833843 
L 127.335926 238.833843 
L 127.335926 237.542288 
L 128.075402 237.542288 
L 128.075402 236.250733 
L 129.016046 236.250733 
L 129.016046 234.959178 
L 129.243669 234.959178 
L 129.243669 233.667623 
L 131.373343 233.667623 
L 131.373343 232.376068 
L 131.572989 232.376068 
L 131.572989 231.084513 
L 133.276002 231.084513 
L 133.276002 229.792958 
L 133.983743 229.792958 
L 133.983743 228.501403 
L 134.156383 228.501403 
L 134.156383 227.209848 
L 134.664515 227.209848 
L 134.664515 225.918293 
L 135.480553 225.918293 
L 135.480553 224.626738 
L 135.796811 224.626738 
L 135.796811 223.335183 
L 136.107569 223.335183 
L 136.107569 222.043628 
L 136.260944 222.043628 
L 136.260944 220.752073 
L 137.442737 220.752073 
L 137.442737 219.460518 
L 137.726364 219.460518 
L 137.726364 218.168963 
L 137.866507 218.168963 
L 137.866507 216.877408 
L 138.143538 216.877408 
L 138.143538 215.585853 
L 138.416339 215.585853 
L 138.416339 214.294298 
L 138.949755 214.294298 
L 138.949755 213.002743 
L 139.210608 213.002743 
L 139.210608 211.711187 
L 139.33962 211.711187 
L 139.33962 210.419632 
L 139.846551 210.419632 
L 139.846551 207.836522 
L 140.094723 207.836522 
L 140.094723 206.544967 
L 140.217529 206.544967 
L 140.217529 205.253412 
L 140.580961 205.253412 
L 140.580961 202.670302 
L 140.937147 202.670302 
L 140.937147 200.087192 
L 141.170721 200.087192 
L 141.170721 198.795637 
L 141.286373 198.795637 
L 141.286373 197.504082 
L 141.628903 197.504082 
L 141.628903 196.212527 
L 141.741636 196.212527 
L 141.741636 192.337862 
L 141.853662 192.337862 
L 141.853662 191.046307 
L 142.075629 191.046307 
L 142.075629 188.463197 
L 142.294872 188.463197 
L 142.403494 183.296977 
L 142.511458 183.296977 
L 142.618775 179.422312 
L 142.72545 179.422312 
L 142.831493 176.839201 
L 142.93691 176.839201 
L 143.041708 174.256091 
L 143.145896 174.256091 
L 143.145896 171.672981 
L 143.352466 171.672981 
L 143.454862 163.923651 
L 143.556675 163.923651 
L 143.657911 158.757431 
L 143.758577 158.757431 
L 143.858679 153.591211 
L 143.958223 153.591211 
L 144.057215 149.716546 
L 144.155663 149.716546 
L 144.25357 147.133436 
L 144.350945 147.133436 
L 144.350945 145.841881 
L 144.544115 145.841881 
L 144.544115 143.25877 
L 144.73522 143.25877 
L 144.830011 140.67566 
L 144.924302 140.67566 
L 145.018098 138.09255 
L 145.111405 138.09255 
L 145.111405 136.800995 
L 145.296568 136.800995 
L 145.388435 132.92633 
L 145.479832 132.92633 
L 145.570765 127.76011 
L 145.661236 127.76011 
L 145.661236 125.177 
L 145.929935 125.177 
L 146.01861 120.01078 
L 146.106848 120.01078 
L 146.194652 117.42767 
L 146.282027 117.42767 
L 146.368977 114.84456 
L 146.541617 114.84456 
L 146.627316 107.095229 
L 146.712605 107.095229 
L 146.712605 104.512119 
L 147.133051 104.512119 
L 147.215966 101.929009 
L 147.624865 101.929009 
L 147.624865 100.637454 
L 148.024616 100.637454 
L 148.024616 99.345899 
L 148.415618 99.345899 
L 148.415618 98.054344 
L 148.798248 98.054344 
L 148.798248 96.762789 
L 149.098559 96.762789 
L 149.098559 95.471234 
L 149.320526 95.471234 
L 149.320526 94.179679 
L 149.612257 94.179679 
L 149.612257 92.888124 
L 149.756356 92.888124 
L 149.756356 91.596569 
L 150.041113 91.596569 
L 150.041113 90.305014 
L 150.528772 90.305014 
L 150.528772 89.013459 
L 150.869127 89.013459 
L 150.869127 87.721904 
L 151.269176 87.721904 
L 151.269176 86.430349 
L 151.660465 86.430349 
L 151.660465 85.138794 
L 152.106394 85.138794 
L 152.106394 83.847239 
L 152.541466 83.847239 
L 152.541466 82.555684 
L 152.72473 82.555684 
L 152.72473 81.264129 
L 155.426942 81.264129 
L 155.426942 79.972574 
L 156.193932 79.972574 
L 156.193932 78.681019 
L 156.589918 78.681019 
L 156.589918 77.389464 
L 157.025157 77.389464 
L 157.025157 76.097908 
L 157.496639 76.097908 
L 157.496639 74.806353 
L 160.878037 74.806353 
L 160.878037 73.514798 
L 161.107609 73.514798 
L 161.107609 72.223243 
L 161.483794 72.223243 
L 161.558089 46.392143 
L 161.925004 46.392143 
L 161.925004 45.100588 
L 162.567041 45.100588 
L 162.567041 43.809033 
L 162.914006 43.809033 
L 162.914006 42.517478 
L 163.422138 42.517478 
L 163.422138 41.225922 
L 164.077923 41.225922 
L 164.077923 39.934367 
L 164.491628 39.934367 
L 164.491628 38.642812 
L 165.07955 38.642812 
L 165.07955 37.351257 
L 165.53041 37.351257 
L 165.53041 36.059702 
L 165.883081 36.059702 
L 165.883081 34.768147 
L 358.8 34.768147 
L 358.8 34.768147 
" style="fill:none;stroke:#f5deb3;stroke-linecap:square;stroke-width:6;"/>
   </g>
   <g id="line2d_2"/>
   <g id="line2d_3">
    <path d="M 358.8 34.768147 
L 390.48 40.037692 
" style="fill:none;stroke:#f5deb3;stroke-linecap:square;stroke-width:6;"/>
    <defs>
     <path d="M -0 7.778175 
L 7.778175 0 
L 0 -7.778175 
L -7.778175 -0 
z
" id="m2125eb93c2" style="stroke:#f5deb3;stroke-linejoin:miter;stroke-width:1.5;"/>
    </defs>
    <g>
     <use style="fill:#f5deb3;stroke:#f5deb3;stroke-linejoin:miter;stroke-width:1.5;" x="358.8" xlink:href="#m2125eb93c2" y="34.768147"/>
     <use style="fill:#f5deb3;stroke:#f5deb3;stroke-linejoin:miter;stroke-width:1.5;" x="390.48" xlink:href="#m2125eb93c2" y="40.037692"/>
    </g>
   </g>
   <g id="matplotlib.axis_1">
    <g id="xtick_1">
     <g id="line2d_4">
      <path clip-path="url(#pb5aed089b7)" d="M 70.8 298.245375 
L 70.8 32.133375 
" style="fill:none;stroke:#b0b0b0;stroke-linecap:square;stroke-width:0.8;"/>
     </g>
     <g id="line2d_5">
      <defs>
       <path d="M 0 0 
L 0 3.5 
" id="m020a880a0f" style="stroke:#000000;stroke-width:0.8;"/>
      </defs>
      <g>
       <use style="stroke:#000000;stroke-width:0.8;" x="70.8" xlink:href="#m020a880a0f" y="298.245375"/>
      </g>
     </g>
     <g id="text_1">
      <!-- 0 -->
      <defs>
       <path d="M 31.78125 66.40625 
Q 24.171875 66.40625 20.328125 58.90625 
Q 16.5 51.421875 16.5 36.375 
Q 16.5 21.390625 20.328125 13.890625 
Q 24.171875 6.390625 31.78125 6.390625 
Q 39.453125 6.390625 43.28125 13.890625 
Q 47.125 21.390625 47.125 36.375 
Q 47.125 51.421875 43.28125 58.90625 
Q 39.453125 66.40625 31.78125 66.40625 
M 31.78125 74.21875 
Q 44.046875 74.21875 50.515625 64.515625 
Q 56.984375 54.828125 56.984375 36.375 
Q 56.984375 17.96875 50.515625 8.265625 
Q 44.046875 -1.421875 31.78125 -1.421875 
Q 19.53125 -1.421875 13.0625 8.265625 
Q 6.59375 17.96875 6.59375 36.375 
Q 6.59375 54.828125 13.0625 64.515625 
Q 19.53125 74.21875 31.78125 74.21875 
" id="DejaVuSans-30"/>
      </defs>
      <g transform="translate(64.4375 320.44225)scale(0.2 -0.2)">
       <use xlink:href="#DejaVuSans-30"/>
      </g>
     </g>
    </g>
    <g id="xtick_2">
     <g id="line2d_6">
      <path clip-path="url(#pb5aed089b7)" d="M 153.085714 298.245375 
L 153.085714 32.133375 
" style="fill:none;stroke:#b0b0b0;stroke-linecap:square;stroke-width:0.8;"/>
     </g>
     <g id="line2d_7">
      <g>
       <use style="stroke:#000000;stroke-width:0.8;" x="153.085714" xlink:href="#m020a880a0f" y="298.245375"/>
      </g>
     </g>
     <g id="text_2">
      <!-- 2 -->
      <defs>
       <path d="M 19.1875 8.296875 
L 53.609375 8.296875 
L 53.609375 0 
L 7.328125 0 
L 7.328125 8.296875 
Q 12.9375 14.109375 22.625 23.890625 
Q 32.328125 33.6875 34.8125 36.53125 
Q 39.546875 41.84375 41.421875 45.53125 
Q 43.3125 49.21875 43.3125 52.78125 
Q 43.3125 58.59375 39.234375 62.25 
Q 35.15625 65.921875 28.609375 65.921875 
Q 23.96875 65.921875 18.8125 64.3125 
Q 13.671875 62.703125 7.8125 59.421875 
L 7.8125 69.390625 
Q 13.765625 71.78125 18.9375 73 
Q 24.125 74.21875 28.421875 74.21875 
Q 39.75 74.21875 46.484375 68.546875 
Q 53.21875 62.890625 53.21875 53.421875 
Q 53.21875 48.921875 51.53125 44.890625 
Q 49.859375 40.875 45.40625 35.40625 
Q 44.1875 33.984375 37.640625 27.21875 
Q 31.109375 20.453125 19.1875 8.296875 
" id="DejaVuSans-32"/>
      </defs>
      <g transform="translate(146.723214 320.44225)scale(0.2 -0.2)">
       <use xlink:href="#DejaVuSans-32"/>
      </g>
     </g>
    </g>
    <g id="xtick_3">
     <g id="line2d_8">
      <path clip-path="url(#pb5aed089b7)" d="M 235.371429 298.245375 
L 235.371429 32.133375 
" style="fill:none;stroke:#b0b0b0;stroke-linecap:square;stroke-width:0.8;"/>
     </g>
     <g id="line2d_9">
      <g>
       <use style="stroke:#000000;stroke-width:0.8;" x="235.371429" xlink:href="#m020a880a0f" y="298.245375"/>
      </g>
     </g>
     <g id="text_3">
      <!-- 4 -->
      <defs>
       <path d="M 37.796875 64.3125 
L 12.890625 25.390625 
L 37.796875 25.390625 
z
M 35.203125 72.90625 
L 47.609375 72.90625 
L 47.609375 25.390625 
L 58.015625 25.390625 
L 58.015625 17.1875 
L 47.609375 17.1875 
L 47.609375 0 
L 37.796875 0 
L 37.796875 17.1875 
L 4.890625 17.1875 
L 4.890625 26.703125 
z
" id="DejaVuSans-34"/>
      </defs>
      <g transform="translate(229.008929 320.44225)scale(0.2 -0.2)">
       <use xlink:href="#DejaVuSans-34"/>
      </g>
     </g>
    </g>
    <g id="xtick_4">
     <g id="line2d_10">
      <path clip-path="url(#pb5aed089b7)" d="M 317.657143 298.245375 
L 317.657143 32.133375 
" style="fill:none;stroke:#b0b0b0;stroke-linecap:square;stroke-width:0.8;"/>
     </g>
     <g id="line2d_11">
      <g>
       <use style="stroke:#000000;stroke-width:0.8;" x="317.657143" xlink:href="#m020a880a0f" y="298.245375"/>
      </g>
     </g>
     <g id="text_4">
      <!-- 6 -->
      <defs>
       <path d="M 33.015625 40.375 
Q 26.375 40.375 22.484375 35.828125 
Q 18.609375 31.296875 18.609375 23.390625 
Q 18.609375 15.53125 22.484375 10.953125 
Q 26.375 6.390625 33.015625 6.390625 
Q 39.65625 6.390625 43.53125 10.953125 
Q 47.40625 15.53125 47.40625 23.390625 
Q 47.40625 31.296875 43.53125 35.828125 
Q 39.65625 40.375 33.015625 40.375 
M 52.59375 71.296875 
L 52.59375 62.3125 
Q 48.875 64.0625 45.09375 64.984375 
Q 41.3125 65.921875 37.59375 65.921875 
Q 27.828125 65.921875 22.671875 59.328125 
Q 17.53125 52.734375 16.796875 39.40625 
Q 19.671875 43.65625 24.015625 45.921875 
Q 28.375 48.1875 33.59375 48.1875 
Q 44.578125 48.1875 50.953125 41.515625 
Q 57.328125 34.859375 57.328125 23.390625 
Q 57.328125 12.15625 50.6875 5.359375 
Q 44.046875 -1.421875 33.015625 -1.421875 
Q 20.359375 -1.421875 13.671875 8.265625 
Q 6.984375 17.96875 6.984375 36.375 
Q 6.984375 53.65625 15.1875 63.9375 
Q 23.390625 74.21875 37.203125 74.21875 
Q 40.921875 74.21875 44.703125 73.484375 
Q 48.484375 72.75 52.59375 71.296875 
" id="DejaVuSans-36"/>
      </defs>
      <g transform="translate(311.294643 320.44225)scale(0.2 -0.2)">
       <use xlink:href="#DejaVuSans-36"/>
      </g>
     </g>
    </g>
    <g id="xtick_5">
     <g id="line2d_12">
      <path clip-path="url(#pb5aed089b7)" d="M 399.942857 298.245375 
L 399.942857 32.133375 
" style="fill:none;stroke:#b0b0b0;stroke-linecap:square;stroke-width:0.8;"/>
     </g>
     <g id="line2d_13">
      <g>
       <use style="stroke:#000000;stroke-width:0.8;" x="399.942857" xlink:href="#m020a880a0f" y="298.245375"/>
      </g>
     </g>
     <g id="text_5">
      <!-- 8 -->
      <defs>
       <path d="M 31.78125 34.625 
Q 24.75 34.625 20.71875 30.859375 
Q 16.703125 27.09375 16.703125 20.515625 
Q 16.703125 13.921875 20.71875 10.15625 
Q 24.75 6.390625 31.78125 6.390625 
Q 38.8125 6.390625 42.859375 10.171875 
Q 46.921875 13.96875 46.921875 20.515625 
Q 46.921875 27.09375 42.890625 30.859375 
Q 38.875 34.625 31.78125 34.625 
M 21.921875 38.8125 
Q 15.578125 40.375 12.03125 44.71875 
Q 8.5 49.078125 8.5 55.328125 
Q 8.5 64.0625 14.71875 69.140625 
Q 20.953125 74.21875 31.78125 74.21875 
Q 42.671875 74.21875 48.875 69.140625 
Q 55.078125 64.0625 55.078125 55.328125 
Q 55.078125 49.078125 51.53125 44.71875 
Q 48 40.375 41.703125 38.8125 
Q 48.828125 37.15625 52.796875 32.3125 
Q 56.78125 27.484375 56.78125 20.515625 
Q 56.78125 9.90625 50.3125 4.234375 
Q 43.84375 -1.421875 31.78125 -1.421875 
Q 19.734375 -1.421875 13.25 4.234375 
Q 6.78125 9.90625 6.78125 20.515625 
Q 6.78125 27.484375 10.78125 32.3125 
Q 14.796875 37.15625 21.921875 38.8125 
M 18.3125 54.390625 
Q 18.3125 48.734375 21.84375 45.5625 
Q 25.390625 42.390625 31.78125 42.390625 
Q 38.140625 42.390625 41.71875 45.5625 
Q 45.3125 48.734375 45.3125 54.390625 
Q 45.3125 60.0625 41.71875 63.234375 
Q 38.140625 66.40625 31.78125 66.40625 
Q 25.390625 66.40625 21.84375 63.234375 
Q 18.3125 60.0625 18.3125 54.390625 
" id="DejaVuSans-38"/>
      </defs>
      <g transform="translate(393.580357 320.44225)scale(0.2 -0.2)">
       <use xlink:href="#DejaVuSans-38"/>
      </g>
     </g>
    </g>
    <g id="xtick_6">
     <g id="line2d_14">
      <defs>
       <path d="M 0 0 
L 0 2 
" id="m657c2a0014" style="stroke:#000000;stroke-width:0.6;"/>
      </defs>
      <g>
       <use style="stroke:#000000;stroke-width:0.6;" x="83.185234" xlink:href="#m657c2a0014" y="298.245375"/>
      </g>
     </g>
    </g>
    <g id="xtick_7">
     <g id="line2d_15">
      <g>
       <use style="stroke:#000000;stroke-width:0.6;" x="95.570468" xlink:href="#m657c2a0014" y="298.245375"/>
      </g>
     </g>
    </g>
    <g id="xtick_8">
     <g id="line2d_16">
      <g>
       <use style="stroke:#000000;stroke-width:0.6;" x="102.815366" xlink:href="#m657c2a0014" y="298.245375"/>
      </g>
     </g>
    </g>
    <g id="xtick_9">
     <g id="line2d_17">
      <g>
       <use style="stroke:#000000;stroke-width:0.6;" x="107.955702" xlink:href="#m657c2a0014" y="298.245375"/>
      </g>
     </g>
    </g>
    <g id="xtick_10">
     <g id="line2d_18">
      <g>
       <use style="stroke:#000000;stroke-width:0.6;" x="165.470948" xlink:href="#m657c2a0014" y="298.245375"/>
      </g>
     </g>
    </g>
    <g id="xtick_11">
     <g id="line2d_19">
      <g>
       <use style="stroke:#000000;stroke-width:0.6;" x="177.856183" xlink:href="#m657c2a0014" y="298.245375"/>
      </g>
     </g>
    </g>
    <g id="xtick_12">
     <g id="line2d_20">
      <g>
       <use style="stroke:#000000;stroke-width:0.6;" x="185.10108" xlink:href="#m657c2a0014" y="298.245375"/>
      </g>
     </g>
    </g>
    <g id="xtick_13">
     <g id="line2d_21">
      <g>
       <use style="stroke:#000000;stroke-width:0.6;" x="190.241417" xlink:href="#m657c2a0014" y="298.245375"/>
      </g>
     </g>
    </g>
    <g id="xtick_14">
     <g id="line2d_22">
      <g>
       <use style="stroke:#000000;stroke-width:0.6;" x="247.756663" xlink:href="#m657c2a0014" y="298.245375"/>
      </g>
     </g>
    </g>
    <g id="xtick_15">
     <g id="line2d_23">
      <g>
       <use style="stroke:#000000;stroke-width:0.6;" x="260.141897" xlink:href="#m657c2a0014" y="298.245375"/>
      </g>
     </g>
    </g>
    <g id="xtick_16">
     <g id="line2d_24">
      <g>
       <use style="stroke:#000000;stroke-width:0.6;" x="267.386794" xlink:href="#m657c2a0014" y="298.245375"/>
      </g>
     </g>
    </g>
    <g id="xtick_17">
     <g id="line2d_25">
      <g>
       <use style="stroke:#000000;stroke-width:0.6;" x="272.527131" xlink:href="#m657c2a0014" y="298.245375"/>
      </g>
     </g>
    </g>
    <g id="xtick_18">
     <g id="line2d_26">
      <g>
       <use style="stroke:#000000;stroke-width:0.6;" x="330.042377" xlink:href="#m657c2a0014" y="298.245375"/>
      </g>
     </g>
    </g>
    <g id="xtick_19">
     <g id="line2d_27">
      <g>
       <use style="stroke:#000000;stroke-width:0.6;" x="342.427611" xlink:href="#m657c2a0014" y="298.245375"/>
      </g>
     </g>
    </g>
    <g id="xtick_20">
     <g id="line2d_28">
      <g>
       <use style="stroke:#000000;stroke-width:0.6;" x="349.672509" xlink:href="#m657c2a0014" y="298.245375"/>
      </g>
     </g>
    </g>
    <g id="xtick_21">
     <g id="line2d_29">
      <g>
       <use style="stroke:#000000;stroke-width:0.6;" x="354.812845" xlink:href="#m657c2a0014" y="298.245375"/>
      </g>
     </g>
    </g>
    <g id="xtick_22">
     <g id="line2d_30">
      <g>
       <use style="stroke:#000000;stroke-width:0.6;" x="412.328091" xlink:href="#m657c2a0014" y="298.245375"/>
      </g>
     </g>
    </g>
    <g id="xtick_23">
     <g id="line2d_31">
      <g>
       <use style="stroke:#000000;stroke-width:0.6;" x="424.713325" xlink:href="#m657c2a0014" y="298.245375"/>
      </g>
     </g>
    </g>
    <g id="text_6">
     <!-- log10 of (# f-evals / dimension) -->
     <defs>
      <path d="M 9.421875 75.984375 
L 18.40625 75.984375 
L 18.40625 0 
L 9.421875 0 
z
" id="DejaVuSans-6c"/>
      <path d="M 30.609375 48.390625 
Q 23.390625 48.390625 19.1875 42.75 
Q 14.984375 37.109375 14.984375 27.296875 
Q 14.984375 17.484375 19.15625 11.84375 
Q 23.34375 6.203125 30.609375 6.203125 
Q 37.796875 6.203125 41.984375 11.859375 
Q 46.1875 17.53125 46.1875 27.296875 
Q 46.1875 37.015625 41.984375 42.703125 
Q 37.796875 48.390625 30.609375 48.390625 
M 30.609375 56 
Q 42.328125 56 49.015625 48.375 
Q 55.71875 40.765625 55.71875 27.296875 
Q 55.71875 13.875 49.015625 6.21875 
Q 42.328125 -1.421875 30.609375 -1.421875 
Q 18.84375 -1.421875 12.171875 6.21875 
Q 5.515625 13.875 5.515625 27.296875 
Q 5.515625 40.765625 12.171875 48.375 
Q 18.84375 56 30.609375 56 
" id="DejaVuSans-6f"/>
      <path d="M 45.40625 27.984375 
Q 45.40625 37.75 41.375 43.109375 
Q 37.359375 48.484375 30.078125 48.484375 
Q 22.859375 48.484375 18.828125 43.109375 
Q 14.796875 37.75 14.796875 27.984375 
Q 14.796875 18.265625 18.828125 12.890625 
Q 22.859375 7.515625 30.078125 7.515625 
Q 37.359375 7.515625 41.375 12.890625 
Q 45.40625 18.265625 45.40625 27.984375 
M 54.390625 6.78125 
Q 54.390625 -7.171875 48.1875 -13.984375 
Q 42 -20.796875 29.203125 -20.796875 
Q 24.46875 -20.796875 20.265625 -20.09375 
Q 16.0625 -19.390625 12.109375 -17.921875 
L 12.109375 -9.1875 
Q 16.0625 -11.328125 19.921875 -12.34375 
Q 23.78125 -13.375 27.78125 -13.375 
Q 36.625 -13.375 41.015625 -8.765625 
Q 45.40625 -4.15625 45.40625 5.171875 
L 45.40625 9.625 
Q 42.625 4.78125 38.28125 2.390625 
Q 33.9375 0 27.875 0 
Q 17.828125 0 11.671875 7.65625 
Q 5.515625 15.328125 5.515625 27.984375 
Q 5.515625 40.671875 11.671875 48.328125 
Q 17.828125 56 27.875 56 
Q 33.9375 56 38.28125 53.609375 
Q 42.625 51.21875 45.40625 46.390625 
L 45.40625 54.6875 
L 54.390625 54.6875 
z
" id="DejaVuSans-67"/>
      <path d="M 12.40625 8.296875 
L 28.515625 8.296875 
L 28.515625 63.921875 
L 10.984375 60.40625 
L 10.984375 69.390625 
L 28.421875 72.90625 
L 38.28125 72.90625 
L 38.28125 8.296875 
L 54.390625 8.296875 
L 54.390625 0 
L 12.40625 0 
z
" id="DejaVuSans-31"/>
      <path id="DejaVuSans-20"/>
      <path d="M 37.109375 75.984375 
L 37.109375 68.5 
L 28.515625 68.5 
Q 23.6875 68.5 21.796875 66.546875 
Q 19.921875 64.59375 19.921875 59.515625 
L 19.921875 54.6875 
L 34.71875 54.6875 
L 34.71875 47.703125 
L 19.921875 47.703125 
L 19.921875 0 
L 10.890625 0 
L 10.890625 47.703125 
L 2.296875 47.703125 
L 2.296875 54.6875 
L 10.890625 54.6875 
L 10.890625 58.5 
Q 10.890625 67.625 15.140625 71.796875 
Q 19.390625 75.984375 28.609375 75.984375 
z
" id="DejaVuSans-66"/>
      <path d="M 31 75.875 
Q 24.46875 64.65625 21.28125 53.65625 
Q 18.109375 42.671875 18.109375 31.390625 
Q 18.109375 20.125 21.3125 9.0625 
Q 24.515625 -2 31 -13.1875 
L 23.1875 -13.1875 
Q 15.875 -1.703125 12.234375 9.375 
Q 8.59375 20.453125 8.59375 31.390625 
Q 8.59375 42.28125 12.203125 53.3125 
Q 15.828125 64.359375 23.1875 75.875 
z
" id="DejaVuSans-28"/>
      <path d="M 51.125 44 
L 36.921875 44 
L 32.8125 27.6875 
L 47.125 27.6875 
z
M 43.796875 71.78125 
L 38.71875 51.515625 
L 52.984375 51.515625 
L 58.109375 71.78125 
L 65.921875 71.78125 
L 60.890625 51.515625 
L 76.125 51.515625 
L 76.125 44 
L 58.984375 44 
L 54.984375 27.6875 
L 70.515625 27.6875 
L 70.515625 20.21875 
L 53.078125 20.21875 
L 48 0 
L 40.1875 0 
L 45.21875 20.21875 
L 30.90625 20.21875 
L 25.875 0 
L 18.015625 0 
L 23.09375 20.21875 
L 7.71875 20.21875 
L 7.71875 27.6875 
L 24.90625 27.6875 
L 29 44 
L 13.28125 44 
L 13.28125 51.515625 
L 30.90625 51.515625 
L 35.890625 71.78125 
z
" id="DejaVuSans-23"/>
      <path d="M 4.890625 31.390625 
L 31.203125 31.390625 
L 31.203125 23.390625 
L 4.890625 23.390625 
z
" id="DejaVuSans-2d"/>
      <path d="M 56.203125 29.59375 
L 56.203125 25.203125 
L 14.890625 25.203125 
Q 15.484375 15.921875 20.484375 11.0625 
Q 25.484375 6.203125 34.421875 6.203125 
Q 39.59375 6.203125 44.453125 7.46875 
Q 49.3125 8.734375 54.109375 11.28125 
L 54.109375 2.78125 
Q 49.265625 0.734375 44.1875 -0.34375 
Q 39.109375 -1.421875 33.890625 -1.421875 
Q 20.796875 -1.421875 13.15625 6.1875 
Q 5.515625 13.8125 5.515625 26.8125 
Q 5.515625 40.234375 12.765625 48.109375 
Q 20.015625 56 32.328125 56 
Q 43.359375 56 49.78125 48.890625 
Q 56.203125 41.796875 56.203125 29.59375 
M 47.21875 32.234375 
Q 47.125 39.59375 43.09375 43.984375 
Q 39.0625 48.390625 32.421875 48.390625 
Q 24.90625 48.390625 20.390625 44.140625 
Q 15.875 39.890625 15.1875 32.171875 
z
" id="DejaVuSans-65"/>
      <path d="M 2.984375 54.6875 
L 12.5 54.6875 
L 29.59375 8.796875 
L 46.6875 54.6875 
L 56.203125 54.6875 
L 35.6875 0 
L 23.484375 0 
z
" id="DejaVuSans-76"/>
      <path d="M 34.28125 27.484375 
Q 23.390625 27.484375 19.1875 25 
Q 14.984375 22.515625 14.984375 16.5 
Q 14.984375 11.71875 18.140625 8.90625 
Q 21.296875 6.109375 26.703125 6.109375 
Q 34.1875 6.109375 38.703125 11.40625 
Q 43.21875 16.703125 43.21875 25.484375 
L 43.21875 27.484375 
z
M 52.203125 31.203125 
L 52.203125 0 
L 43.21875 0 
L 43.21875 8.296875 
Q 40.140625 3.328125 35.546875 0.953125 
Q 30.953125 -1.421875 24.3125 -1.421875 
Q 15.921875 -1.421875 10.953125 3.296875 
Q 6 8.015625 6 15.921875 
Q 6 25.140625 12.171875 29.828125 
Q 18.359375 34.515625 30.609375 34.515625 
L 43.21875 34.515625 
L 43.21875 35.40625 
Q 43.21875 41.609375 39.140625 45 
Q 35.0625 48.390625 27.6875 48.390625 
Q 23 48.390625 18.546875 47.265625 
Q 14.109375 46.140625 10.015625 43.890625 
L 10.015625 52.203125 
Q 14.9375 54.109375 19.578125 55.046875 
Q 24.21875 56 28.609375 56 
Q 40.484375 56 46.34375 49.84375 
Q 52.203125 43.703125 52.203125 31.203125 
" id="DejaVuSans-61"/>
      <path d="M 44.28125 53.078125 
L 44.28125 44.578125 
Q 40.484375 46.53125 36.375 47.5 
Q 32.28125 48.484375 27.875 48.484375 
Q 21.1875 48.484375 17.84375 46.4375 
Q 14.5 44.390625 14.5 40.28125 
Q 14.5 37.15625 16.890625 35.375 
Q 19.28125 33.59375 26.515625 31.984375 
L 29.59375 31.296875 
Q 39.15625 29.25 43.1875 25.515625 
Q 47.21875 21.78125 47.21875 15.09375 
Q 47.21875 7.46875 41.1875 3.015625 
Q 35.15625 -1.421875 24.609375 -1.421875 
Q 20.21875 -1.421875 15.453125 -0.5625 
Q 10.6875 0.296875 5.421875 2 
L 5.421875 11.28125 
Q 10.40625 8.6875 15.234375 7.390625 
Q 20.0625 6.109375 24.8125 6.109375 
Q 31.15625 6.109375 34.5625 8.28125 
Q 37.984375 10.453125 37.984375 14.40625 
Q 37.984375 18.0625 35.515625 20.015625 
Q 33.0625 21.96875 24.703125 23.78125 
L 21.578125 24.515625 
Q 13.234375 26.265625 9.515625 29.90625 
Q 5.8125 33.546875 5.8125 39.890625 
Q 5.8125 47.609375 11.28125 51.796875 
Q 16.75 56 26.8125 56 
Q 31.78125 56 36.171875 55.265625 
Q 40.578125 54.546875 44.28125 53.078125 
" id="DejaVuSans-73"/>
      <path d="M 25.390625 72.90625 
L 33.6875 72.90625 
L 8.296875 -9.28125 
L 0 -9.28125 
z
" id="DejaVuSans-2f"/>
      <path d="M 45.40625 46.390625 
L 45.40625 75.984375 
L 54.390625 75.984375 
L 54.390625 0 
L 45.40625 0 
L 45.40625 8.203125 
Q 42.578125 3.328125 38.25 0.953125 
Q 33.9375 -1.421875 27.875 -1.421875 
Q 17.96875 -1.421875 11.734375 6.484375 
Q 5.515625 14.40625 5.515625 27.296875 
Q 5.515625 40.1875 11.734375 48.09375 
Q 17.96875 56 27.875 56 
Q 33.9375 56 38.25 53.625 
Q 42.578125 51.265625 45.40625 46.390625 
M 14.796875 27.296875 
Q 14.796875 17.390625 18.875 11.75 
Q 22.953125 6.109375 30.078125 6.109375 
Q 37.203125 6.109375 41.296875 11.75 
Q 45.40625 17.390625 45.40625 27.296875 
Q 45.40625 37.203125 41.296875 42.84375 
Q 37.203125 48.484375 30.078125 48.484375 
Q 22.953125 48.484375 18.875 42.84375 
Q 14.796875 37.203125 14.796875 27.296875 
" id="DejaVuSans-64"/>
      <path d="M 9.421875 54.6875 
L 18.40625 54.6875 
L 18.40625 0 
L 9.421875 0 
z
M 9.421875 75.984375 
L 18.40625 75.984375 
L 18.40625 64.59375 
L 9.421875 64.59375 
z
" id="DejaVuSans-69"/>
      <path d="M 52 44.1875 
Q 55.375 50.25 60.0625 53.125 
Q 64.75 56 71.09375 56 
Q 79.640625 56 84.28125 50.015625 
Q 88.921875 44.046875 88.921875 33.015625 
L 88.921875 0 
L 79.890625 0 
L 79.890625 32.71875 
Q 79.890625 40.578125 77.09375 44.375 
Q 74.3125 48.1875 68.609375 48.1875 
Q 61.625 48.1875 57.5625 43.546875 
Q 53.515625 38.921875 53.515625 30.90625 
L 53.515625 0 
L 44.484375 0 
L 44.484375 32.71875 
Q 44.484375 40.625 41.703125 44.40625 
Q 38.921875 48.1875 33.109375 48.1875 
Q 26.21875 48.1875 22.15625 43.53125 
Q 18.109375 38.875 18.109375 30.90625 
L 18.109375 0 
L 9.078125 0 
L 9.078125 54.6875 
L 18.109375 54.6875 
L 18.109375 46.1875 
Q 21.1875 51.21875 25.484375 53.609375 
Q 29.78125 56 35.6875 56 
Q 41.65625 56 45.828125 52.96875 
Q 50 49.953125 52 44.1875 
" id="DejaVuSans-6d"/>
      <path d="M 54.890625 33.015625 
L 54.890625 0 
L 45.90625 0 
L 45.90625 32.71875 
Q 45.90625 40.484375 42.875 44.328125 
Q 39.84375 48.1875 33.796875 48.1875 
Q 26.515625 48.1875 22.3125 43.546875 
Q 18.109375 38.921875 18.109375 30.90625 
L 18.109375 0 
L 9.078125 0 
L 9.078125 54.6875 
L 18.109375 54.6875 
L 18.109375 46.1875 
Q 21.34375 51.125 25.703125 53.5625 
Q 30.078125 56 35.796875 56 
Q 45.21875 56 50.046875 50.171875 
Q 54.890625 44.34375 54.890625 33.015625 
" id="DejaVuSans-6e"/>
      <path d="M 8.015625 75.875 
L 15.828125 75.875 
Q 23.140625 64.359375 26.78125 53.3125 
Q 30.421875 42.28125 30.421875 31.390625 
Q 30.421875 20.453125 26.78125 9.375 
Q 23.140625 -1.703125 15.828125 -13.1875 
L 8.015625 -13.1875 
Q 14.5 -2 17.703125 9.0625 
Q 20.90625 20.125 20.90625 31.390625 
Q 20.90625 42.671875 17.703125 53.65625 
Q 14.5 64.65625 8.015625 75.875 
" id="DejaVuSans-29"/>
     </defs>
     <g transform="translate(107.015156 342.278812)scale(0.18 -0.18)">
      <use xlink:href="#DejaVuSans-6c"/>
      <use x="27.783203" xlink:href="#DejaVuSans-6f"/>
      <use x="88.964844" xlink:href="#DejaVuSans-67"/>
      <use x="152.441406" xlink:href="#DejaVuSans-31"/>
      <use x="216.064453" xlink:href="#DejaVuSans-30"/>
      <use x="279.6875" xlink:href="#DejaVuSans-20"/>
      <use x="311.474609" xlink:href="#DejaVuSans-6f"/>
      <use x="372.65625" xlink:href="#DejaVuSans-66"/>
      <use x="407.861328" xlink:href="#DejaVuSans-20"/>
      <use x="439.648438" xlink:href="#DejaVuSans-28"/>
      <use x="478.662109" xlink:href="#DejaVuSans-23"/>
      <use x="562.451172" xlink:href="#DejaVuSans-20"/>
      <use x="594.238281" xlink:href="#DejaVuSans-66"/>
      <use x="629.365234" xlink:href="#DejaVuSans-2d"/>
      <use x="665.449219" xlink:href="#DejaVuSans-65"/>
      <use x="726.972656" xlink:href="#DejaVuSans-76"/>
      <use x="786.152344" xlink:href="#DejaVuSans-61"/>
      <use x="847.431641" xlink:href="#DejaVuSans-6c"/>
      <use x="875.214844" xlink:href="#DejaVuSans-73"/>
      <use x="927.314453" xlink:href="#DejaVuSans-20"/>
      <use x="959.101562" xlink:href="#DejaVuSans-2f"/>
      <use x="992.792969" xlink:href="#DejaVuSans-20"/>
      <use x="1024.580078" xlink:href="#DejaVuSans-64"/>
      <use x="1088.056641" xlink:href="#DejaVuSans-69"/>
      <use x="1115.839844" xlink:href="#DejaVuSans-6d"/>
      <use x="1213.251953" xlink:href="#DejaVuSans-65"/>
      <use x="1274.775391" xlink:href="#DejaVuSans-6e"/>
      <use x="1338.154297" xlink:href="#DejaVuSans-73"/>
      <use x="1390.253906" xlink:href="#DejaVuSans-69"/>
      <use x="1418.037109" xlink:href="#DejaVuSans-6f"/>
      <use x="1479.21875" xlink:href="#DejaVuSans-6e"/>
      <use x="1542.597656" xlink:href="#DejaVuSans-29"/>
     </g>
    </g>
   </g>
   <g id="matplotlib.axis_2">
    <g id="ytick_1">
     <g id="line2d_32">
      <path clip-path="url(#pb5aed089b7)" d="M 70.8 298.245375 
L 427.92 298.245375 
" style="fill:none;stroke:#b0b0b0;stroke-linecap:square;stroke-width:0.8;"/>
     </g>
     <g id="line2d_33">
      <defs>
       <path d="M 0 0 
L -3.5 0 
" id="m09c67e1a38" style="stroke:#000000;stroke-width:0.8;"/>
      </defs>
      <g>
       <use style="stroke:#000000;stroke-width:0.8;" x="70.8" xlink:href="#m09c67e1a38" y="298.245375"/>
      </g>
     </g>
     <g id="text_7">
      <!-- 0.0 -->
      <defs>
       <path d="M 10.6875 12.40625 
L 21 12.40625 
L 21 0 
L 10.6875 0 
z
" id="DejaVuSans-2e"/>
      </defs>
      <g transform="translate(31.99375 305.843812)scale(0.2 -0.2)">
       <use xlink:href="#DejaVuSans-30"/>
       <use x="63.623047" xlink:href="#DejaVuSans-2e"/>
       <use x="95.410156" xlink:href="#DejaVuSans-30"/>
      </g>
     </g>
    </g>
    <g id="ytick_2">
     <g id="line2d_34">
      <path clip-path="url(#pb5aed089b7)" d="M 70.8 245.549929 
L 427.92 245.549929 
" style="fill:none;stroke:#b0b0b0;stroke-linecap:square;stroke-width:0.8;"/>
     </g>
     <g id="line2d_35">
      <g>
       <use style="stroke:#000000;stroke-width:0.8;" x="70.8" xlink:href="#m09c67e1a38" y="245.549929"/>
      </g>
     </g>
     <g id="text_8">
      <!-- 0.2 -->
      <g transform="translate(31.99375 253.148367)scale(0.2 -0.2)">
       <use xlink:href="#DejaVuSans-30"/>
       <use x="63.623047" xlink:href="#DejaVuSans-2e"/>
       <use x="95.410156" xlink:href="#DejaVuSans-32"/>
      </g>
     </g>
    </g>
    <g id="ytick_3">
     <g id="line2d_36">
      <path clip-path="url(#pb5aed089b7)" d="M 70.8 192.854484 
L 427.92 192.854484 
" style="fill:none;stroke:#b0b0b0;stroke-linecap:square;stroke-width:0.8;"/>
     </g>
     <g id="line2d_37">
      <g>
       <use style="stroke:#000000;stroke-width:0.8;" x="70.8" xlink:href="#m09c67e1a38" y="192.854484"/>
      </g>
     </g>
     <g id="text_9">
      <!-- 0.4 -->
      <g transform="translate(31.99375 200.452921)scale(0.2 -0.2)">
       <use xlink:href="#DejaVuSans-30"/>
       <use x="63.623047" xlink:href="#DejaVuSans-2e"/>
       <use x="95.410156" xlink:href="#DejaVuSans-34"/>
      </g>
     </g>
    </g>
    <g id="ytick_4">
     <g id="line2d_38">
      <path clip-path="url(#pb5aed089b7)" d="M 70.8 140.159038 
L 427.92 140.159038 
" style="fill:none;stroke:#b0b0b0;stroke-linecap:square;stroke-width:0.8;"/>
     </g>
     <g id="line2d_39">
      <g>
       <use style="stroke:#000000;stroke-width:0.8;" x="70.8" xlink:href="#m09c67e1a38" y="140.159038"/>
      </g>
     </g>
     <g id="text_10">
      <!-- 0.6 -->
      <g transform="translate(31.99375 147.757476)scale(0.2 -0.2)">
       <use xlink:href="#DejaVuSans-30"/>
       <use x="63.623047" xlink:href="#DejaVuSans-2e"/>
       <use x="95.410156" xlink:href="#DejaVuSans-36"/>
      </g>
     </g>
    </g>
    <g id="ytick_5">
     <g id="line2d_40">
      <path clip-path="url(#pb5aed089b7)" d="M 70.8 87.463593 
L 427.92 87.463593 
" style="fill:none;stroke:#b0b0b0;stroke-linecap:square;stroke-width:0.8;"/>
     </g>
     <g id="line2d_41">
      <g>
       <use style="stroke:#000000;stroke-width:0.8;" x="70.8" xlink:href="#m09c67e1a38" y="87.463593"/>
      </g>
     </g>
     <g id="text_11">
      <!-- 0.8 -->
      <g transform="translate(31.99375 95.06203)scale(0.2 -0.2)">
       <use xlink:href="#DejaVuSans-30"/>
       <use x="63.623047" xlink:href="#DejaVuSans-2e"/>
       <use x="95.410156" xlink:href="#DejaVuSans-38"/>
      </g>
     </g>
    </g>
    <g id="ytick_6">
     <g id="line2d_42">
      <path clip-path="url(#pb5aed089b7)" d="M 70.8 34.768147 
L 427.92 34.768147 
" style="fill:none;stroke:#b0b0b0;stroke-linecap:square;stroke-width:0.8;"/>
     </g>
     <g id="line2d_43">
      <g>
       <use style="stroke:#000000;stroke-width:0.8;" x="70.8" xlink:href="#m09c67e1a38" y="34.768147"/>
      </g>
     </g>
     <g id="text_12">
      <!-- 1.0 -->
      <g transform="translate(31.99375 42.366585)scale(0.2 -0.2)">
       <use xlink:href="#DejaVuSans-31"/>
       <use x="63.623047" xlink:href="#DejaVuSans-2e"/>
       <use x="95.410156" xlink:href="#DejaVuSans-30"/>
      </g>
     </g>
    </g>
    <g id="text_13">
     <!-- Proportion of function+target pairs -->
     <defs>
      <path d="M 19.671875 64.796875 
L 19.671875 37.40625 
L 32.078125 37.40625 
Q 38.96875 37.40625 42.71875 40.96875 
Q 46.484375 44.53125 46.484375 51.125 
Q 46.484375 57.671875 42.71875 61.234375 
Q 38.96875 64.796875 32.078125 64.796875 
z
M 9.8125 72.90625 
L 32.078125 72.90625 
Q 44.34375 72.90625 50.609375 67.359375 
Q 56.890625 61.8125 56.890625 51.125 
Q 56.890625 40.328125 50.609375 34.8125 
Q 44.34375 29.296875 32.078125 29.296875 
L 19.671875 29.296875 
L 19.671875 0 
L 9.8125 0 
z
" id="DejaVuSans-50"/>
      <path d="M 41.109375 46.296875 
Q 39.59375 47.171875 37.8125 47.578125 
Q 36.03125 48 33.890625 48 
Q 26.265625 48 22.1875 43.046875 
Q 18.109375 38.09375 18.109375 28.8125 
L 18.109375 0 
L 9.078125 0 
L 9.078125 54.6875 
L 18.109375 54.6875 
L 18.109375 46.1875 
Q 20.953125 51.171875 25.484375 53.578125 
Q 30.03125 56 36.53125 56 
Q 37.453125 56 38.578125 55.875 
Q 39.703125 55.765625 41.0625 55.515625 
z
" id="DejaVuSans-72"/>
      <path d="M 18.109375 8.203125 
L 18.109375 -20.796875 
L 9.078125 -20.796875 
L 9.078125 54.6875 
L 18.109375 54.6875 
L 18.109375 46.390625 
Q 20.953125 51.265625 25.265625 53.625 
Q 29.59375 56 35.59375 56 
Q 45.5625 56 51.78125 48.09375 
Q 58.015625 40.1875 58.015625 27.296875 
Q 58.015625 14.40625 51.78125 6.484375 
Q 45.5625 -1.421875 35.59375 -1.421875 
Q 29.59375 -1.421875 25.265625 0.953125 
Q 20.953125 3.328125 18.109375 8.203125 
M 48.6875 27.296875 
Q 48.6875 37.203125 44.609375 42.84375 
Q 40.53125 48.484375 33.40625 48.484375 
Q 26.265625 48.484375 22.1875 42.84375 
Q 18.109375 37.203125 18.109375 27.296875 
Q 18.109375 17.390625 22.1875 11.75 
Q 26.265625 6.109375 33.40625 6.109375 
Q 40.53125 6.109375 44.609375 11.75 
Q 48.6875 17.390625 48.6875 27.296875 
" id="DejaVuSans-70"/>
      <path d="M 18.3125 70.21875 
L 18.3125 54.6875 
L 36.8125 54.6875 
L 36.8125 47.703125 
L 18.3125 47.703125 
L 18.3125 18.015625 
Q 18.3125 11.328125 20.140625 9.421875 
Q 21.96875 7.515625 27.59375 7.515625 
L 36.8125 7.515625 
L 36.8125 0 
L 27.59375 0 
Q 17.1875 0 13.234375 3.875 
Q 9.28125 7.765625 9.28125 18.015625 
L 9.28125 47.703125 
L 2.6875 47.703125 
L 2.6875 54.6875 
L 9.28125 54.6875 
L 9.28125 70.21875 
z
" id="DejaVuSans-74"/>
      <path d="M 8.5 21.578125 
L 8.5 54.6875 
L 17.484375 54.6875 
L 17.484375 21.921875 
Q 17.484375 14.15625 20.5 10.265625 
Q 23.53125 6.390625 29.59375 6.390625 
Q 36.859375 6.390625 41.078125 11.03125 
Q 45.3125 15.671875 45.3125 23.6875 
L 45.3125 54.6875 
L 54.296875 54.6875 
L 54.296875 0 
L 45.3125 0 
L 45.3125 8.40625 
Q 42.046875 3.421875 37.71875 1 
Q 33.40625 -1.421875 27.6875 -1.421875 
Q 18.265625 -1.421875 13.375 4.4375 
Q 8.5 10.296875 8.5 21.578125 
M 31.109375 56 
z
" id="DejaVuSans-75"/>
      <path d="M 48.78125 52.59375 
L 48.78125 44.1875 
Q 44.96875 46.296875 41.140625 47.34375 
Q 37.3125 48.390625 33.40625 48.390625 
Q 24.65625 48.390625 19.8125 42.84375 
Q 14.984375 37.3125 14.984375 27.296875 
Q 14.984375 17.28125 19.8125 11.734375 
Q 24.65625 6.203125 33.40625 6.203125 
Q 37.3125 6.203125 41.140625 7.25 
Q 44.96875 8.296875 48.78125 10.40625 
L 48.78125 2.09375 
Q 45.015625 0.34375 40.984375 -0.53125 
Q 36.96875 -1.421875 32.421875 -1.421875 
Q 20.0625 -1.421875 12.78125 6.34375 
Q 5.515625 14.109375 5.515625 27.296875 
Q 5.515625 40.671875 12.859375 48.328125 
Q 20.21875 56 33.015625 56 
Q 37.15625 56 41.109375 55.140625 
Q 45.0625 54.296875 48.78125 52.59375 
" id="DejaVuSans-63"/>
      <path d="M 46 62.703125 
L 46 35.5 
L 73.1875 35.5 
L 73.1875 27.203125 
L 46 27.203125 
L 46 0 
L 37.796875 0 
L 37.796875 27.203125 
L 10.59375 27.203125 
L 10.59375 35.5 
L 37.796875 35.5 
L 37.796875 62.703125 
z
" id="DejaVuSans-2b"/>
     </defs>
     <g transform="translate(24.250312 323.17875)rotate(-90)scale(0.18 -0.18)">
      <use xlink:href="#DejaVuSans-50"/>
      <use x="60.287109" xlink:href="#DejaVuSans-72"/>
      <use x="101.369141" xlink:href="#DejaVuSans-6f"/>
      <use x="162.550781" xlink:href="#DejaVuSans-70"/>
      <use x="226.027344" xlink:href="#DejaVuSans-6f"/>
      <use x="287.208984" xlink:href="#DejaVuSans-72"/>
      <use x="328.322266" xlink:href="#DejaVuSans-74"/>
      <use x="367.53125" xlink:href="#DejaVuSans-69"/>
      <use x="395.314453" xlink:href="#DejaVuSans-6f"/>
      <use x="456.496094" xlink:href="#DejaVuSans-6e"/>
      <use x="519.875" xlink:href="#DejaVuSans-20"/>
      <use x="551.662109" xlink:href="#DejaVuSans-6f"/>
      <use x="612.84375" xlink:href="#DejaVuSans-66"/>
      <use x="648.048828" xlink:href="#DejaVuSans-20"/>
      <use x="679.835938" xlink:href="#DejaVuSans-66"/>
      <use x="715.041016" xlink:href="#DejaVuSans-75"/>
      <use x="778.419922" xlink:href="#DejaVuSans-6e"/>
      <use x="841.798828" xlink:href="#DejaVuSans-63"/>
      <use x="896.779297" xlink:href="#DejaVuSans-74"/>
      <use x="935.988281" xlink:href="#DejaVuSans-69"/>
      <use x="963.771484" xlink:href="#DejaVuSans-6f"/>
      <use x="1024.953125" xlink:href="#DejaVuSans-6e"/>
      <use x="1088.332031" xlink:href="#DejaVuSans-2b"/>
      <use x="1172.121094" xlink:href="#DejaVuSans-74"/>
      <use x="1211.330078" xlink:href="#DejaVuSans-61"/>
      <use x="1272.609375" xlink:href="#DejaVuSans-72"/>
      <use x="1313.707031" xlink:href="#DejaVuSans-67"/>
      <use x="1377.183594" xlink:href="#DejaVuSans-65"/>
      <use x="1438.707031" xlink:href="#DejaVuSans-74"/>
      <use x="1477.916016" xlink:href="#DejaVuSans-20"/>
      <use x="1509.703125" xlink:href="#DejaVuSans-70"/>
      <use x="1573.179688" xlink:href="#DejaVuSans-61"/>
      <use x="1634.458984" xlink:href="#DejaVuSans-69"/>
      <use x="1662.242188" xlink:href="#DejaVuSans-72"/>
      <use x="1703.355469" xlink:href="#DejaVuSans-73"/>
     </g>
    </g>
   </g>
   <g id="line2d_44">
    <defs>
     <path d="M 0 1.5 
C 0.397805 1.5 0.77937 1.341951 1.06066 1.06066 
C 1.341951 0.77937 1.5 0.397805 1.5 0 
C 1.5 -0.397805 1.341951 -0.77937 1.06066 -1.06066 
C 0.77937 -1.341951 0.397805 -1.5 0 -1.5 
C -0.397805 -1.5 -0.77937 -1.341951 -1.06066 -1.06066 
C -1.341951 -0.77937 -1.5 -0.397805 -1.5 0 
C -1.5 0.397805 -1.341951 0.77937 -1.06066 1.06066 
C -0.77937 1.341951 -0.397805 1.5 0 1.5 
z
" id="m209cf33657" style="stroke:#f5deb3;"/>
    </defs>
    <g>
     <use style="fill:#f5deb3;stroke:#f5deb3;" x="165.883081" xlink:href="#m209cf33657" y="34.768147"/>
     <use style="fill:#f5deb3;stroke:#f5deb3;" x="165.883081" xlink:href="#m209cf33657" y="34.768147"/>
    </g>
   </g>
   <g id="line2d_45">
    <g>
     <use style="fill:#f5deb3;stroke:#f5deb3;stroke-linejoin:miter;stroke-width:1.5;" x="141.628903" xlink:href="#m2125eb93c2" y="197.504082"/>
     <use style="fill:#f5deb3;stroke:#f5deb3;stroke-linejoin:miter;stroke-width:1.5;" x="161.483794" xlink:href="#m2125eb93c2" y="72.223243"/>
     <use style="fill:#f5deb3;stroke:#f5deb3;stroke-linejoin:miter;stroke-width:1.5;" x="165.883081" xlink:href="#m2125eb93c2" y="36.059702"/>
     <use style="fill:#f5deb3;stroke:#f5deb3;stroke-linejoin:miter;stroke-width:1.5;" x="165.883081" xlink:href="#m2125eb93c2" y="34.768147"/>
     <use style="fill:#f5deb3;stroke:#f5deb3;stroke-linejoin:miter;stroke-width:1.5;" x="165.883081" xlink:href="#m2125eb93c2" y="34.768147"/>
     <use style="fill:#f5deb3;stroke:#f5deb3;stroke-linejoin:miter;stroke-width:1.5;" x="358.8" xlink:href="#m2125eb93c2" y="34.768147"/>
    </g>
   </g>
   <g id="line2d_46">
    <defs>
     <path d="M 0 1.5 
C 0.397805 1.5 0.77937 1.341951 1.06066 1.06066 
C 1.341951 0.77937 1.5 0.397805 1.5 0 
C 1.5 -0.397805 1.341951 -0.77937 1.06066 -1.06066 
C 0.77937 -1.341951 0.397805 -1.5 0 -1.5 
C -0.397805 -1.5 -0.77937 -1.341951 -1.06066 -1.06066 
C -1.341951 -0.77937 -1.5 -0.397805 -1.5 0 
C -1.5 0.397805 -1.341951 0.77937 -1.06066 1.06066 
C -0.77937 1.341951 -0.397805 1.5 0 1.5 
z
" id="m7f47d5c2d4" style="stroke:#ff00ff;"/>
    </defs>
    <g>
     <use style="fill:#ff00ff;stroke:#ff00ff;" x="248.691587" xlink:href="#m7f47d5c2d4" y="100.637454"/>
     <use style="fill:#ff00ff;stroke:#ff00ff;" x="248.691587" xlink:href="#m7f47d5c2d4" y="100.637454"/>
    </g>
   </g>
   <g id="line2d_47">
    <path d="M 51.169868 298.245375 
L 51.169868 296.437198 
L 79.927491 296.437198 
L 79.927491 295.662265 
L 83.185234 295.662265 
L 83.185234 295.533109 
L 85.939616 295.533109 
L 85.939616 294.887332 
L 97.000681 294.887332 
L 97.000681 293.854088 
L 101.794053 293.854088 
L 101.794053 293.466621 
L 104.69796 293.466621 
L 104.69796 293.079155 
L 105.569748 293.079155 
L 105.569748 292.949999 
L 107.955702 292.949999 
L 107.955702 292.304222 
L 108.685114 292.304222 
L 108.685114 292.175066 
L 110.060263 292.175066 
L 110.060263 291.7876 
L 110.710085 291.7876 
L 110.710085 291.529289 
L 111.3371 291.529289 
L 111.3371 291.141822 
L 111.942857 291.141822 
L 111.942857 289.979423 
L 113.096039 289.979423 
L 113.096039 289.075334 
L 113.64587 289.075334 
L 113.64587 288.946179 
L 114.697239 288.946179 
L 114.697239 287.783779 
L 115.2006 287.783779 
L 115.2006 287.008846 
L 116.166679 287.008846 
L 116.166679 286.104758 
L 116.630812 286.104758 
L 116.630812 285.329825 
L 117.083194 285.329825 
L 117.083194 285.071514 
L 117.524404 285.071514 
L 117.524404 284.813203 
L 117.954982 284.813203 
L 117.954982 283.779959 
L 118.375428 283.779959 
L 118.375428 282.746715 
L 118.786207 282.746715 
L 118.786207 281.842626 
L 119.187755 281.842626 
L 119.187755 281.713471 
L 119.580476 281.713471 
L 119.580476 281.584315 
L 119.964752 281.584315 
L 119.964752 281.45516 
L 120.340936 281.45516 
L 120.340936 281.196849 
L 120.709364 281.196849 
L 120.709364 280.034449 
L 121.070349 280.034449 
L 121.070349 279.517827 
L 121.424184 279.517827 
L 121.424184 279.388671 
L 121.771149 279.388671 
L 121.771149 278.742894 
L 122.445497 278.742894 
L 122.445497 278.097116 
L 122.773362 278.097116 
L 122.773362 277.967961 
L 123.095319 277.967961 
L 123.095319 277.322183 
L 123.411577 277.322183 
L 123.411577 277.193028 
L 123.722334 277.193028 
L 123.722334 277.063872 
L 124.02778 277.063872 
L 124.02778 276.54725 
L 124.623439 276.54725 
L 124.623439 276.159784 
L 124.913984 276.159784 
L 124.913984 275.772317 
L 125.19988 275.772317 
L 125.19988 274.093296 
L 125.481273 274.093296 
L 125.481273 273.060052 
L 125.758304 273.060052 
L 125.758304 272.54343 
L 126.031105 272.54343 
L 126.031105 272.155963 
L 126.299803 272.155963 
L 126.299803 271.38103 
L 126.564521 271.38103 
L 126.564521 269.831164 
L 126.825374 269.831164 
L 126.825374 269.443698 
L 127.082473 269.443698 
L 127.082473 269.056231 
L 127.832295 269.056231 
L 127.832295 268.022987 
L 128.075402 268.022987 
L 128.075402 267.635521 
L 128.315246 267.635521 
L 128.315246 266.989743 
L 128.551913 266.989743 
L 128.551913 266.860588 
L 128.785487 266.860588 
L 128.785487 266.602277 
L 129.243669 266.602277 
L 129.243669 266.085655 
L 129.468428 266.085655 
L 129.468428 265.698188 
L 129.690395 265.698188 
L 129.690395 265.310722 
L 129.909638 265.310722 
L 129.909638 264.277478 
L 130.126224 264.277478 
L 130.126224 262.210989 
L 130.340216 262.210989 
L 130.340216 261.565212 
L 130.551676 261.565212 
L 130.551676 261.436056 
L 130.967232 261.436056 
L 130.967232 260.402812 
L 131.171441 260.402812 
L 131.171441 258.982102 
L 131.373343 258.982102 
L 131.373343 258.46548 
L 131.96571 258.46548 
L 131.96571 258.207169 
L 132.158881 258.207169 
L 132.158881 257.561391 
L 132.539068 257.561391 
L 132.539068 257.432236 
L 132.726171 257.432236 
L 132.726171 257.044769 
L 132.911334 257.044769 
L 132.911334 256.398992 
L 133.094598 256.398992 
L 133.094598 255.494903 
L 133.276002 255.494903 
L 133.276002 254.203348 
L 133.455583 254.203348 
L 133.455583 253.815882 
L 133.633376 253.815882 
L 133.633376 252.782638 
L 133.983743 252.782638 
L 133.983743 251.361927 
L 134.156383 251.361927 
L 134.156383 251.103616 
L 134.496738 251.103616 
L 134.496738 250.71615 
L 134.664515 250.71615 
L 134.664515 250.070372 
L 134.830731 250.070372 
L 134.830731 249.55375 
L 134.995416 249.55375 
L 134.995416 249.166284 
L 135.158596 249.166284 
L 135.158596 248.13304 
L 135.3203 248.13304 
L 135.3203 248.003884 
L 135.480553 248.003884 
L 135.480553 247.745573 
L 135.639381 247.745573 
L 135.639381 247.487262 
L 135.796811 247.487262 
L 135.796811 247.358107 
L 136.107569 247.358107 
L 136.107569 246.841484 
L 136.260944 246.841484 
L 136.260944 246.324862 
L 136.713325 246.324862 
L 136.713325 245.80824 
L 137.008673 245.80824 
L 137.008673 245.291618 
L 137.154536 245.291618 
L 137.154536 244.645841 
L 137.442737 244.645841 
L 137.442737 244.129219 
L 137.726364 244.129219 
L 137.726364 243.612597 
L 138.005559 243.612597 
L 138.005559 243.095975 
L 138.280459 243.095975 
L 138.280459 242.837664 
L 138.551193 242.837664 
L 138.551193 242.708508 
L 138.685037 242.708508 
L 138.685037 242.579353 
L 138.817886 242.579353 
L 138.817886 242.191886 
L 138.949755 242.191886 
L 138.949755 241.933575 
L 139.080657 241.933575 
L 139.080657 241.675264 
L 139.210608 241.675264 
L 139.210608 241.416953 
L 139.33962 241.416953 
L 139.33962 241.029487 
L 139.467708 241.029487 
L 139.467708 240.512865 
L 139.594883 240.512865 
L 139.594883 240.254554 
L 139.846551 240.254554 
L 139.846551 239.737932 
L 140.094723 239.737932 
L 140.094723 239.479621 
L 140.217529 239.479621 
L 140.217529 239.22131 
L 140.460636 239.22131 
L 140.460636 238.704688 
L 140.580961 238.704688 
L 140.580961 238.446377 
L 140.819206 238.446377 
L 140.819206 238.188066 
L 140.937147 238.188066 
L 140.937147 237.671444 
L 141.170721 237.671444 
L 141.170721 237.542288 
L 141.40128 237.542288 
L 141.40128 237.413133 
L 141.741636 237.413133 
L 141.741636 236.767355 
L 141.96499 236.767355 
L 141.96499 236.509044 
L 142.185587 236.509044 
L 142.185587 236.121578 
L 142.403494 236.121578 
L 142.511458 235.346645 
L 142.618775 235.346645 
L 142.72545 234.442556 
L 143.145896 234.442556 
L 143.145896 233.925934 
L 143.454862 233.925934 
L 143.556675 233.409312 
L 143.758577 233.409312 
L 143.758577 233.151001 
L 143.958223 233.151001 
L 143.958223 232.89269 
L 144.155663 232.89269 
L 144.155663 232.634379 
L 144.447791 232.634379 
L 144.447791 232.246913 
L 144.639923 232.246913 
L 144.639923 231.859446 
L 144.830011 231.859446 
L 144.924302 231.47198 
L 145.018098 231.47198 
L 145.018098 231.213669 
L 145.204226 231.213669 
L 145.204226 230.955358 
L 145.388435 230.955358 
L 145.479832 230.051269 
L 145.570765 230.051269 
L 145.661236 229.405491 
L 145.929935 229.405491 
L 146.01861 229.018025 
L 146.106848 229.018025 
L 146.194652 228.501403 
L 146.282027 228.501403 
L 146.282027 228.372247 
L 146.455505 228.372247 
L 146.455505 228.243092 
L 146.627316 228.243092 
L 146.627316 226.693226 
L 146.797489 226.693226 
L 146.881972 226.047448 
L 147.049749 226.047448 
L 147.133051 224.885049 
L 147.215966 224.885049 
L 147.298497 224.497582 
L 147.38065 224.497582 
L 147.38065 224.239271 
L 147.54383 224.239271 
L 147.624865 223.593494 
L 147.705534 223.593494 
L 147.78584 223.206027 
L 148.024616 223.206027 
L 148.103504 222.947716 
L 148.182045 222.947716 
L 148.182045 222.56025 
L 148.569655 222.56025 
L 148.646178 222.172783 
L 148.798248 222.172783 
L 148.798248 222.043628 
L 148.949035 222.043628 
L 149.023953 221.785317 
L 149.098559 221.785317 
L 149.098559 221.656161 
L 149.246843 221.656161 
L 149.246843 221.527006 
L 149.393907 221.527006 
L 149.466987 220.752073 
L 149.612257 220.752073 
L 149.612257 220.622917 
L 149.756356 220.622917 
L 149.827972 220.106295 
L 149.899301 220.106295 
L 149.899301 219.97714 
L 150.111598 219.97714 
L 150.111598 219.589673 
L 150.251741 219.589673 
L 150.321403 219.202207 
L 150.459916 219.202207 
L 150.528772 218.685585 
L 150.733762 218.685585 
L 150.733762 218.427274 
L 150.936427 218.427274 
L 150.936427 218.039807 
L 151.070271 218.039807 
L 151.070271 217.652341 
L 151.20312 217.652341 
L 151.20312 217.39403 
L 151.334989 217.39403 
L 151.334989 217.006563 
L 151.660465 217.006563 
L 151.724854 215.973319 
L 151.852942 215.973319 
L 151.852942 215.715008 
L 152.043367 215.715008 
L 152.043367 215.327542 
L 152.294152 215.327542 
L 152.356302 214.681764 
L 152.479957 214.681764 
L 152.541466 214.035987 
L 152.602763 214.035987 
L 152.66385 213.519365 
L 153.026054 213.519365 
L 153.026054 213.261054 
L 153.20444 213.261054 
L 153.20444 212.744431 
L 153.381062 212.744431 
L 153.381062 212.48612 
L 153.497847 212.48612 
L 153.497847 212.227809 
L 153.671607 212.227809 
L 153.729153 211.840343 
L 154.070592 211.840343 
L 154.070592 211.711187 
L 154.350224 211.711187 
L 154.405629 210.807099 
L 154.570821 210.807099 
L 154.680107 208.869766 
L 154.950431 208.869766 
L 154.950431 208.4823 
L 155.163784 208.4823 
L 155.269513 207.061589 
L 155.37462 207.061589 
L 155.479112 206.544967 
L 155.53113 206.544967 
L 155.582997 206.028345 
L 155.7377 206.028345 
L 155.7377 205.89919 
L 155.941909 205.89919 
L 155.941909 205.770034 
L 156.093549 205.770034 
L 156.143811 205.511723 
L 156.243913 205.511723 
L 156.293754 204.349324 
L 156.393022 204.349324 
L 156.491741 204.091013 
L 156.540897 204.091013 
L 156.638804 203.832702 
L 156.784667 203.832702 
L 156.784667 203.703546 
L 156.929349 203.703546 
L 157.025157 201.895369 
L 157.072869 201.895369 
L 157.120454 201.249592 
L 157.356496 201.249592 
L 157.356496 200.603814 
L 157.727795 200.603814 
L 157.819426 200.216348 
L 157.865067 200.216348 
L 157.91059 199.441415 
L 158.001292 199.441415 
L 158.091535 198.795637 
L 158.181325 198.795637 
L 158.181325 198.537326 
L 158.315169 198.537326 
L 158.315169 198.020704 
L 158.492082 198.020704 
L 158.579887 196.98746 
L 158.797528 196.98746 
L 158.84074 196.470838 
L 158.926851 196.470838 
L 159.01255 195.954216 
L 159.097839 195.954216 
L 159.097839 195.695905 
L 159.267206 195.695905 
L 159.351292 194.791816 
L 159.434983 194.791816 
L 159.476683 194.533505 
L 159.6012 194.533505 
L 159.642513 194.275194 
L 159.724855 194.275194 
L 159.765884 193.629417 
L 159.84766 193.629417 
L 159.929064 192.337862 
L 160.010099 192.337862 
L 160.090768 191.562929 
L 160.130966 191.562929 
L 160.130966 191.304618 
L 160.330612 191.304618 
L 160.330612 190.787996 
L 160.488738 190.787996 
L 160.528052 190.400529 
L 160.645477 190.400529 
L 160.723333 189.883907 
L 160.839486 189.883907 
L 160.878037 189.625596 
L 160.993191 189.625596 
L 161.069551 188.592352 
L 161.183482 188.592352 
L 161.183482 188.463197 
L 161.296691 188.463197 
L 161.296691 188.334041 
L 161.44653 188.334041 
L 161.52098 187.817419 
L 161.632078 187.817419 
L 161.705761 186.913331 
L 161.779141 186.913331 
L 161.815719 186.525864 
L 162.390999 186.525864 
L 162.461624 185.880087 
L 162.531971 185.880087 
L 162.636975 184.975998 
L 162.741366 184.975998 
L 162.741366 184.846843 
L 163.118996 184.846843 
L 163.220616 183.813599 
L 163.254361 183.813599 
L 163.355216 183.426132 
L 163.455505 183.426132 
L 163.455505 183.167821 
L 163.588354 183.167821 
L 163.588354 183.038666 
L 163.753039 183.038666 
L 163.753039 181.101333 
L 163.916219 181.101333 
L 164.013417 180.713867 
L 164.20624 180.713867 
L 164.238176 180.455556 
L 164.397005 180.455556 
L 164.397005 180.197245 
L 164.585754 180.197245 
L 164.585754 179.938934 
L 164.741536 179.938934 
L 164.741536 179.680623 
L 165.441143 179.680623 
L 165.470948 179.164001 
L 165.853956 179.164001 
L 165.941189 178.776534 
L 166.568205 178.776534 
L 166.62413 178.518223 
L 166.707691 178.518223 
L 166.818502 178.130756 
L 166.87365 178.130756 
L 166.87365 177.74329 
L 167.010781 177.74329 
L 167.010781 177.614134 
L 167.146868 177.614134 
L 167.146868 177.484979 
L 167.281926 177.484979 
L 167.308816 177.226668 
L 167.44266 177.226668 
L 167.44266 176.839201 
L 167.968231 176.839201 
L 168.019948 176.451735 
L 168.174206 176.451735 
L 168.250838 175.547646 
L 169.290551 175.547646 
L 169.290551 175.418491 
L 169.410391 175.418491 
L 169.410391 175.289335 
L 169.671244 175.289335 
L 169.671244 175.16018 
L 169.905124 175.16018 
L 169.905124 173.481158 
L 170.181797 173.481158 
L 170.273077 172.835381 
L 170.295825 172.835381 
L 170.318543 172.57707 
L 170.476769 172.57707 
L 170.476769 172.447914 
L 170.633606 172.447914 
L 170.633606 172.189603 
L 170.744796 172.189603 
L 170.744796 172.060448 
L 170.921272 172.060448 
L 170.921272 171.931292 
L 171.139445 171.931292 
L 171.139445 171.672981 
L 171.333548 171.672981 
L 171.333548 171.543826 
L 171.757486 171.543826 
L 171.757486 171.285515 
L 173.492843 171.285515 
L 173.549778 170.768893 
L 173.663107 170.768893 
L 173.663107 170.510582 
L 173.906214 170.510582 
L 174.017312 169.864804 
L 174.109368 169.864804 
L 174.200953 169.219027 
L 174.400802 169.219027 
L 174.472923 168.83156 
L 174.544755 168.83156 
L 174.580563 167.927472 
L 174.66977 167.927472 
L 174.776233 167.540005 
L 174.882067 167.540005 
L 174.952275 167.023383 
L 175.178567 167.023383 
L 175.178567 166.894228 
L 175.384939 166.894228 
L 175.436161 166.506761 
L 175.622731 166.506761 
L 175.690094 166.24845 
L 175.773943 166.24845 
L 175.790665 165.860984 
L 175.957036 165.860984 
L 175.957036 165.731828 
L 176.121873 165.731828 
L 176.187384 165.473517 
L 176.268936 165.473517 
L 176.36631 165.086051 
L 176.414799 165.086051 
L 176.447052 163.407029 
L 176.527431 163.407029 
L 176.591474 163.019563 
L 176.639356 163.019563 
L 176.639356 162.632096 
L 176.750586 162.632096 
L 176.750586 162.373785 
L 176.876863 162.373785 
L 176.876863 162.24463 
L 177.002253 162.24463 
L 177.002253 162.115474 
L 177.296577 162.115474 
L 177.403801 161.598852 
L 177.434319 161.598852 
L 177.510386 161.08223 
L 177.676602 161.08223 
L 177.751647 160.823919 
L 177.915644 160.823919 
L 177.915644 160.694763 
L 178.107538 160.694763 
L 178.195414 160.307297 
L 178.239191 160.307297 
L 178.340921 158.886586 
L 178.398793 158.886586 
L 178.427659 158.49912 
L 178.614161 158.49912 
L 178.713784 157.724187 
L 178.742146 157.724187 
L 178.742146 157.595031 
L 178.897338 157.595031 
L 178.93943 155.786854 
L 179.023318 155.786854 
L 179.023318 155.528543 
L 179.176098 155.528543 
L 179.176098 155.399388 
L 179.368673 155.399388 
L 179.368673 155.270232 
L 179.827894 155.270232 
L 179.894442 154.624455 
L 180.092612 154.624455 
L 180.131984 154.366144 
L 180.623323 154.366144 
L 180.623323 154.236988 
L 180.763067 154.236988 
L 180.763067 154.107833 
L 181.17586 154.107833 
L 181.17586 153.203744 
L 181.421474 153.203744 
L 181.421474 153.074589 
L 181.555136 153.074589 
L 181.555136 152.945433 
L 181.831421 152.945433 
L 181.831421 152.816278 
L 182.208848 152.816278 
L 182.208848 152.687122 
L 182.348352 152.687122 
L 182.394613 152.299656 
L 182.906954 152.299656 
L 182.996519 152.041345 
L 183.643548 152.041345 
L 183.750929 150.878945 
L 183.87894 150.878945 
L 183.921407 150.233168 
L 184.016591 150.233168 
L 184.090274 149.974857 
L 184.628324 149.974857 
L 184.628324 149.845701 
L 185.04142 149.845701 
L 185.04142 149.716546 
L 185.522911 149.716546 
L 185.522911 149.458235 
L 185.715769 149.458235 
L 185.76366 149.199924 
L 185.86857 149.199924 
L 185.906567 148.941613 
L 186.001208 148.941613 
L 186.057753 148.683302 
L 186.132868 148.683302 
L 186.132868 148.554146 
L 186.291448 148.554146 
L 186.337823 148.295835 
L 186.411773 148.295835 
L 186.512957 147.779213 
L 186.731753 147.779213 
L 186.731753 147.650058 
L 186.894109 147.650058 
L 186.965797 147.00428 
L 187.0639 147.00428 
L 187.0639 145.841881 
L 187.232093 145.841881 
L 187.319983 145.325259 
L 187.355019 145.325259 
L 187.355019 145.196103 
L 187.511834 145.196103 
L 187.598363 144.808637 
L 187.62424 144.808637 
L 187.710227 144.550325 
L 188.075328 144.550325 
L 188.075328 143.25877 
L 188.350549 143.25877 
L 188.457815 142.096371 
L 188.531701 142.096371 
L 188.531701 141.967215 
L 188.735352 141.967215 
L 188.735352 141.83806 
L 189.032558 141.83806 
L 189.032558 141.708904 
L 189.827174 141.708904 
L 189.827174 140.67566 
L 190.046789 140.67566 
L 190.046789 140.417349 
L 190.23397 140.417349 
L 190.23397 140.288194 
L 190.41921 140.288194 
L 190.41921 140.159038 
L 190.55872 140.159038 
L 190.55872 140.029883 
L 190.913559 140.029883 
L 190.913559 139.900727 
L 191.457306 139.900727 
L 191.457306 139.25495 
L 191.767584 139.25495 
L 191.767584 139.125794 
L 192.032201 139.125794 
L 192.032201 138.867483 
L 192.854852 138.867483 
L 192.951073 138.480017 
L 192.989416 138.480017 
L 193.0595 138.09255 
L 193.230367 138.09255 
L 193.318325 137.575928 
L 193.424553 137.575928 
L 193.424553 137.446773 
L 193.610487 137.446773 
L 193.678181 136.413529 
L 193.733377 136.413529 
L 193.831084 135.767751 
L 194.382761 135.767751 
L 194.471115 135.251129 
L 194.652341 135.251129 
L 194.652341 134.863663 
L 194.849014 134.863663 
L 194.849014 134.605352 
L 195.631273 134.605352 
L 195.631273 134.08873 
L 195.78479 134.08873 
L 195.877357 133.830419 
L 196.061064 133.830419 
L 196.104017 133.442952 
L 196.823988 133.442952 
L 196.885691 132.409708 
L 196.952296 132.409708 
L 196.952296 132.280553 
L 197.698474 132.280553 
L 197.796302 131.893086 
L 197.815803 131.893086 
L 197.869322 131.50562 
L 198.024109 131.50562 
L 198.091409 130.988998 
L 198.206194 130.988998 
L 198.301288 130.214065 
L 198.442987 130.214065 
L 198.550866 128.92251 
L 198.583571 128.92251 
L 198.583571 128.793354 
L 198.746199 128.793354 
L 198.778548 128.535043 
L 199.021593 128.535043 
L 199.035252 127.889266 
L 199.243391 127.889266 
L 199.243391 127.630954 
L 200.005164 127.630954 
L 200.005164 127.501799 
L 200.116893 127.501799 
L 200.12974 127.243488 
L 200.945587 127.243488 
L 200.945587 126.468555 
L 201.128684 126.468555 
L 201.128684 126.210244 
L 201.643398 126.210244 
L 201.721888 125.951933 
L 201.893361 125.951933 
L 201.893361 125.822777 
L 202.051674 125.822777 
L 202.143699 125.564466 
L 202.212408 125.564466 
L 202.318766 125.047844 
L 202.330124 125.047844 
L 202.337692 124.789533 
L 202.723175 124.789533 
L 202.726877 124.402067 
L 202.892682 124.402067 
L 202.925659 123.756289 
L 203.516157 123.756289 
L 203.615051 123.497978 
L 203.81818 123.497978 
L 203.81818 123.368823 
L 204.2924 123.368823 
L 204.376979 122.852201 
L 204.575012 122.852201 
L 204.575012 122.723045 
L 205.03632 122.723045 
L 205.081803 122.464734 
L 205.349097 122.464734 
L 205.409726 121.43149 
L 205.603 121.43149 
L 205.603 121.302335 
L 205.778609 121.302335 
L 205.78173 120.785713 
L 205.92158 120.785713 
L 205.92158 120.398246 
L 206.449259 120.398246 
L 206.536209 120.01078 
L 207.677423 120.01078 
L 207.677423 119.881624 
L 207.833867 119.881624 
L 207.900498 119.623313 
L 208.038519 119.623313 
L 208.107132 119.106691 
L 208.235415 119.106691 
L 208.235415 118.977536 
L 208.38707 118.977536 
L 208.427474 118.590069 
L 208.96809 118.590069 
L 208.96809 118.460914 
L 209.17313 118.460914 
L 209.17313 118.331758 
L 209.543454 118.331758 
L 209.543454 118.202603 
L 210.135135 118.202603 
L 210.235113 117.685981 
L 210.283681 117.685981 
L 210.356286 117.298514 
L 210.411751 117.298514 
L 210.443025 116.652737 
L 210.529345 116.652737 
L 210.529345 116.523581 
L 211.399994 116.523581 
L 211.399994 116.394426 
L 212.299641 116.394426 
L 212.407632 116.006959 
L 212.45709 116.006959 
L 212.461384 115.619493 
L 213.139628 115.619493 
L 213.139628 115.490337 
L 213.30217 115.490337 
L 213.30217 115.361182 
L 214.054179 115.361182 
L 214.150145 115.102871 
L 214.189166 115.102871 
L 214.296039 114.069627 
L 214.582396 114.069627 
L 214.582396 113.940471 
L 214.909221 113.940471 
L 214.909221 113.811316 
L 215.682235 113.811316 
L 215.682235 113.68216 
L 215.807287 113.68216 
L 215.915552 113.294694 
L 215.959734 113.294694 
L 215.959734 113.165538 
L 216.519244 113.165538 
L 216.519244 113.036383 
L 217.292601 113.036383 
L 217.392255 112.390605 
L 217.441061 112.390605 
L 217.481632 112.003139 
L 217.557656 112.003139 
L 217.557656 111.744828 
L 218.697214 111.744828 
L 218.801401 111.228206 
L 218.846511 111.228206 
L 218.881019 110.582428 
L 220.06406 110.582428 
L 220.138256 110.194961 
L 220.181512 110.194961 
L 220.181512 110.065806 
L 220.734511 110.065806 
L 220.734511 109.93665 
L 222.093488 109.93665 
L 222.093488 109.807495 
L 222.528925 109.807495 
L 222.528925 109.678339 
L 223.512041 109.678339 
L 223.598581 109.420028 
L 224.511815 109.420028 
L 224.603452 108.645095 
L 225.533128 108.645095 
L 225.558933 108.257629 
L 226.379418 108.257629 
L 226.461982 107.741007 
L 228.080013 107.741007 
L 228.145283 107.095229 
L 228.859088 107.095229 
L 228.932683 106.191141 
L 229.271894 106.191141 
L 229.271894 106.061985 
L 229.658166 106.061985 
L 229.683568 105.674519 
L 230.387644 105.674519 
L 230.40574 105.416208 
L 230.719887 105.416208 
L 230.719887 105.287052 
L 231.044548 105.287052 
L 231.101368 105.028741 
L 231.751243 105.028741 
L 231.803681 104.77043 
L 232.984113 104.77043 
L 232.984113 104.641275 
L 233.57927 104.641275 
L 233.57927 104.382964 
L 234.162252 104.382964 
L 234.162252 104.253808 
L 234.469955 104.253808 
L 234.469955 104.124653 
L 234.733604 104.124653 
L 234.779837 103.866342 
L 235.823095 103.866342 
L 235.855007 103.608031 
L 237.309506 103.608031 
L 237.309506 103.478875 
L 237.811649 103.478875 
L 237.811649 103.34972 
L 238.250452 103.34972 
L 238.289952 102.962253 
L 238.739513 102.962253 
L 238.739513 102.833098 
L 239.136598 102.833098 
L 239.177078 102.574787 
L 239.605122 102.574787 
L 239.605122 102.445631 
L 240.820875 102.445631 
L 240.820875 102.316476 
L 241.594172 102.316476 
L 241.594172 102.18732 
L 242.315207 102.18732 
L 242.344661 101.929009 
L 242.506398 101.929009 
L 242.506398 101.670698 
L 245.009029 101.670698 
L 245.009029 101.541543 
L 245.64026 101.541543 
L 245.64026 101.412387 
L 246.523252 101.412387 
L 246.523252 101.283232 
L 247.349429 101.283232 
L 247.349429 101.154076 
L 247.621547 101.154076 
L 247.621547 101.024921 
L 247.904356 101.024921 
L 247.904356 100.895765 
L 248.434827 100.895765 
L 248.434827 100.76661 
L 248.691587 100.76661 
L 248.691587 100.637454 
L 358.8 100.637454 
L 358.8 100.637454 
" style="fill:none;stroke:#ff00ff;stroke-linecap:square;stroke-width:1.5;"/>
   </g>
   <g id="line2d_48">
    <defs>
     <path d="M -0 8.485281 
L 5.091169 0 
L 0 -8.485281 
L -5.091169 -0 
z
" id="m212783958d" style="stroke:#ff00ff;stroke-linejoin:miter;stroke-width:1.5;"/>
    </defs>
    <g>
     <use style="fill:none;stroke:#ff00ff;stroke-linejoin:miter;stroke-width:1.5;" x="118.375428" xlink:href="#m212783958d" y="283.779959"/>
     <use style="fill:none;stroke:#ff00ff;stroke-linejoin:miter;stroke-width:1.5;" x="156.143811" xlink:href="#m212783958d" y="205.511723"/>
     <use style="fill:none;stroke:#ff00ff;stroke-linejoin:miter;stroke-width:1.5;" x="194.471115" xlink:href="#m212783958d" y="135.50944"/>
     <use style="fill:none;stroke:#ff00ff;stroke-linejoin:miter;stroke-width:1.5;" x="247.904356" xlink:href="#m212783958d" y="100.895765"/>
     <use style="fill:none;stroke:#ff00ff;stroke-linejoin:miter;stroke-width:1.5;" x="248.691587" xlink:href="#m212783958d" y="100.637454"/>
     <use style="fill:none;stroke:#ff00ff;stroke-linejoin:miter;stroke-width:1.5;" x="358.8" xlink:href="#m212783958d" y="100.637454"/>
    </g>
   </g>
   <g id="line2d_49"/>
   <g id="line2d_50">
    <path clip-path="url(#pb5aed089b7)" d="M 172.715846 171.285515 
" style="fill:none;stroke:#ff00ff;stroke-linecap:square;stroke-width:1.5;"/>
    <defs>
     <path d="M -12 12 
L 12 -12 
M -12 -12 
L 12 12 
" id="m7940fe1744" style="stroke:#ff00ff;stroke-width:3;"/>
    </defs>
    <g clip-path="url(#pb5aed089b7)">
     <use style="fill:#ff00ff;stroke:#ff00ff;stroke-width:3;" x="172.715846" xlink:href="#m7940fe1744" y="171.285515"/>
    </g>
   </g>
   <g id="line2d_51">
    <path d="M 358.8 100.637454 
L 390.48 292.97583 
" style="fill:none;stroke:#ff00ff;stroke-linecap:square;stroke-width:1.5;"/>
    <g>
     <use style="fill:none;stroke:#ff00ff;stroke-linejoin:miter;stroke-width:1.5;" x="358.8" xlink:href="#m212783958d" y="100.637454"/>
     <use style="fill:none;stroke:#ff00ff;stroke-linejoin:miter;stroke-width:1.5;" x="390.48" xlink:href="#m212783958d" y="292.97583"/>
    </g>
   </g>
   <g id="line2d_52">
    <path d="M 358.8 298.245375 
L 358.8 34.768147 
" style="fill:none;stroke:#000000;stroke-linecap:square;stroke-width:1.5;"/>
   </g>
   <g id="patch_3">
    <path d="M 70.8 298.245375 
L 70.8 32.133375 
" style="fill:none;stroke:#000000;stroke-linecap:square;stroke-linejoin:miter;stroke-width:0.8;"/>
   </g>
   <g id="patch_4">
    <path d="M 427.92 298.245375 
L 427.92 32.133375 
" style="fill:none;stroke:#000000;stroke-linecap:square;stroke-linejoin:miter;stroke-width:0.8;"/>
   </g>
   <g id="patch_5">
    <path d="M 70.8 298.245375 
L 427.92 298.245375 
" style="fill:none;stroke:#000000;stroke-linecap:square;stroke-linejoin:miter;stroke-width:0.8;"/>
   </g>
   <g id="patch_6">
    <path d="M 70.8 32.133375 
L 427.92 32.133375 
" style="fill:none;stroke:#000000;stroke-linecap:square;stroke-linejoin:miter;stroke-width:0.8;"/>
   </g>
   <g id="text_14">
    <!-- deapbbob -->
    <defs>
     <path d="M 48.6875 27.296875 
Q 48.6875 37.203125 44.609375 42.84375 
Q 40.53125 48.484375 33.40625 48.484375 
Q 26.265625 48.484375 22.1875 42.84375 
Q 18.109375 37.203125 18.109375 27.296875 
Q 18.109375 17.390625 22.1875 11.75 
Q 26.265625 6.109375 33.40625 6.109375 
Q 40.53125 6.109375 44.609375 11.75 
Q 48.6875 17.390625 48.6875 27.296875 
M 18.109375 46.390625 
Q 20.953125 51.265625 25.265625 53.625 
Q 29.59375 56 35.59375 56 
Q 45.5625 56 51.78125 48.09375 
Q 58.015625 40.1875 58.015625 27.296875 
Q 58.015625 14.40625 51.78125 6.484375 
Q 45.5625 -1.421875 35.59375 -1.421875 
Q 29.59375 -1.421875 25.265625 0.953125 
Q 20.953125 3.328125 18.109375 8.203125 
L 18.109375 0 
L 9.078125 0 
L 9.078125 75.984375 
L 18.109375 75.984375 
z
" id="DejaVuSans-62"/>
    </defs>
    <g transform="translate(396.24 297.114893)scale(0.15 -0.15)">
     <use xlink:href="#DejaVuSans-64"/>
     <use x="63.476562" xlink:href="#DejaVuSans-65"/>
     <use x="125" xlink:href="#DejaVuSans-61"/>
     <use x="186.279297" xlink:href="#DejaVuSans-70"/>
     <use x="249.755859" xlink:href="#DejaVuSans-62"/>
     <use x="313.232422" xlink:href="#DejaVuSans-62"/>
     <use x="376.708984" xlink:href="#DejaVuSans-6f"/>
     <use x="437.890625" xlink:href="#DejaVuSans-62"/>
    </g>
   </g>
   <g id="text_15">
    <!-- best 2009 -->
    <defs>
     <path d="M 10.984375 1.515625 
L 10.984375 10.5 
Q 14.703125 8.734375 18.5 7.8125 
Q 22.3125 6.890625 25.984375 6.890625 
Q 35.75 6.890625 40.890625 13.453125 
Q 46.046875 20.015625 46.78125 33.40625 
Q 43.953125 29.203125 39.59375 26.953125 
Q 35.25 24.703125 29.984375 24.703125 
Q 19.046875 24.703125 12.671875 31.3125 
Q 6.296875 37.9375 6.296875 49.421875 
Q 6.296875 60.640625 12.9375 67.421875 
Q 19.578125 74.21875 30.609375 74.21875 
Q 43.265625 74.21875 49.921875 64.515625 
Q 56.59375 54.828125 56.59375 36.375 
Q 56.59375 19.140625 48.40625 8.859375 
Q 40.234375 -1.421875 26.421875 -1.421875 
Q 22.703125 -1.421875 18.890625 -0.6875 
Q 15.09375 0.046875 10.984375 1.515625 
M 30.609375 32.421875 
Q 37.25 32.421875 41.125 36.953125 
Q 45.015625 41.5 45.015625 49.421875 
Q 45.015625 57.28125 41.125 61.84375 
Q 37.25 66.40625 30.609375 66.40625 
Q 23.96875 66.40625 20.09375 61.84375 
Q 16.21875 57.28125 16.21875 49.421875 
Q 16.21875 41.5 20.09375 36.953125 
Q 23.96875 32.421875 30.609375 32.421875 
" id="DejaVuSans-39"/>
    </defs>
    <g transform="translate(396.24 44.176754)scale(0.15 -0.15)">
     <use xlink:href="#DejaVuSans-62"/>
     <use x="63.476562" xlink:href="#DejaVuSans-65"/>
     <use x="125" xlink:href="#DejaVuSans-73"/>
     <use x="177.099609" xlink:href="#DejaVuSans-74"/>
     <use x="216.308594" xlink:href="#DejaVuSans-20"/>
     <use x="248.095703" xlink:href="#DejaVuSans-32"/>
     <use x="311.71875" xlink:href="#DejaVuSans-30"/>
     <use x="375.341797" xlink:href="#DejaVuSans-30"/>
     <use x="438.964844" xlink:href="#DejaVuSans-39"/>
    </g>
   </g>
   <g id="text_16">
    <!-- bbob - f6-f9, 3-D -->
    <defs>
     <path d="M 11.71875 12.40625 
L 22.015625 12.40625 
L 22.015625 4 
L 14.015625 -11.625 
L 7.71875 -11.625 
L 11.71875 4 
z
" id="DejaVuSans-2c"/>
     <path d="M 40.578125 39.3125 
Q 47.65625 37.796875 51.625 33 
Q 55.609375 28.21875 55.609375 21.1875 
Q 55.609375 10.40625 48.1875 4.484375 
Q 40.765625 -1.421875 27.09375 -1.421875 
Q 22.515625 -1.421875 17.65625 -0.515625 
Q 12.796875 0.390625 7.625 2.203125 
L 7.625 11.71875 
Q 11.71875 9.328125 16.59375 8.109375 
Q 21.484375 6.890625 26.8125 6.890625 
Q 36.078125 6.890625 40.9375 10.546875 
Q 45.796875 14.203125 45.796875 21.1875 
Q 45.796875 27.640625 41.28125 31.265625 
Q 36.765625 34.90625 28.71875 34.90625 
L 20.21875 34.90625 
L 20.21875 43.015625 
L 29.109375 43.015625 
Q 36.375 43.015625 40.234375 45.921875 
Q 44.09375 48.828125 44.09375 54.296875 
Q 44.09375 59.90625 40.109375 62.90625 
Q 36.140625 65.921875 28.71875 65.921875 
Q 24.65625 65.921875 20.015625 65.03125 
Q 15.375 64.15625 9.8125 62.3125 
L 9.8125 71.09375 
Q 15.4375 72.65625 20.34375 73.4375 
Q 25.25 74.21875 29.59375 74.21875 
Q 40.828125 74.21875 47.359375 69.109375 
Q 53.90625 64.015625 53.90625 55.328125 
Q 53.90625 49.265625 50.4375 45.09375 
Q 46.96875 40.921875 40.578125 39.3125 
" id="DejaVuSans-33"/>
     <path d="M 19.671875 64.796875 
L 19.671875 8.109375 
L 31.59375 8.109375 
Q 46.6875 8.109375 53.6875 14.9375 
Q 60.6875 21.78125 60.6875 36.53125 
Q 60.6875 51.171875 53.6875 57.984375 
Q 46.6875 64.796875 31.59375 64.796875 
z
M 9.8125 72.90625 
L 30.078125 72.90625 
Q 51.265625 72.90625 61.171875 64.09375 
Q 71.09375 55.28125 71.09375 36.53125 
Q 71.09375 17.671875 61.125 8.828125 
Q 51.171875 0 30.078125 0 
L 9.8125 0 
z
" id="DejaVuSans-44"/>
    </defs>
    <g transform="translate(74.3712 50.114612)scale(0.1666 -0.1666)">
     <use xlink:href="#DejaVuSans-62"/>
     <use x="63.476562" xlink:href="#DejaVuSans-62"/>
     <use x="126.953125" xlink:href="#DejaVuSans-6f"/>
     <use x="188.134766" xlink:href="#DejaVuSans-62"/>
     <use x="251.611328" xlink:href="#DejaVuSans-20"/>
     <use x="283.398438" xlink:href="#DejaVuSans-2d"/>
     <use x="319.482422" xlink:href="#DejaVuSans-20"/>
     <use x="351.269531" xlink:href="#DejaVuSans-66"/>
     <use x="386.474609" xlink:href="#DejaVuSans-36"/>
     <use x="450.097656" xlink:href="#DejaVuSans-2d"/>
     <use x="486.181641" xlink:href="#DejaVuSans-66"/>
     <use x="521.386719" xlink:href="#DejaVuSans-39"/>
     <use x="585.009766" xlink:href="#DejaVuSans-2c"/>
     <use x="616.796875" xlink:href="#DejaVuSans-20"/>
     <use x="648.583984" xlink:href="#DejaVuSans-33"/>
     <use x="712.207031" xlink:href="#DejaVuSans-2d"/>
     <use x="748.291016" xlink:href="#DejaVuSans-44"/>
    </g>
    <!-- 51 targets in 100..1e-08 -->
    <defs>
     <path d="M 10.796875 72.90625 
L 49.515625 72.90625 
L 49.515625 64.59375 
L 19.828125 64.59375 
L 19.828125 46.734375 
Q 21.96875 47.46875 24.109375 47.828125 
Q 26.265625 48.1875 28.421875 48.1875 
Q 40.625 48.1875 47.75 41.5 
Q 54.890625 34.8125 54.890625 23.390625 
Q 54.890625 11.625 47.5625 5.09375 
Q 40.234375 -1.421875 26.90625 -1.421875 
Q 22.3125 -1.421875 17.546875 -0.640625 
Q 12.796875 0.140625 7.71875 1.703125 
L 7.71875 11.625 
Q 12.109375 9.234375 16.796875 8.0625 
Q 21.484375 6.890625 26.703125 6.890625 
Q 35.15625 6.890625 40.078125 11.328125 
Q 45.015625 15.765625 45.015625 23.390625 
Q 45.015625 31 40.078125 35.4375 
Q 35.15625 39.890625 26.703125 39.890625 
Q 22.75 39.890625 18.8125 39.015625 
Q 14.890625 38.140625 10.796875 36.28125 
z
" id="DejaVuSans-35"/>
    </defs>
    <g transform="translate(74.3712 68.770168)scale(0.1666 -0.1666)">
     <use xlink:href="#DejaVuSans-35"/>
     <use x="63.623047" xlink:href="#DejaVuSans-31"/>
     <use x="127.246094" xlink:href="#DejaVuSans-20"/>
     <use x="159.033203" xlink:href="#DejaVuSans-74"/>
     <use x="198.242188" xlink:href="#DejaVuSans-61"/>
     <use x="259.521484" xlink:href="#DejaVuSans-72"/>
     <use x="300.619141" xlink:href="#DejaVuSans-67"/>
     <use x="364.095703" xlink:href="#DejaVuSans-65"/>
     <use x="425.619141" xlink:href="#DejaVuSans-74"/>
     <use x="464.828125" xlink:href="#DejaVuSans-73"/>
     <use x="516.927734" xlink:href="#DejaVuSans-20"/>
     <use x="548.714844" xlink:href="#DejaVuSans-69"/>
     <use x="576.498047" xlink:href="#DejaVuSans-6e"/>
     <use x="639.876953" xlink:href="#DejaVuSans-20"/>
     <use x="671.664062" xlink:href="#DejaVuSans-31"/>
     <use x="735.287109" xlink:href="#DejaVuSans-30"/>
     <use x="798.910156" xlink:href="#DejaVuSans-30"/>
     <use x="862.533203" xlink:href="#DejaVuSans-2e"/>
     <use x="894.320312" xlink:href="#DejaVuSans-2e"/>
     <use x="926.107422" xlink:href="#DejaVuSans-31"/>
     <use x="989.730469" xlink:href="#DejaVuSans-65"/>
     <use x="1051.253906" xlink:href="#DejaVuSans-2d"/>
     <use x="1087.337891" xlink:href="#DejaVuSans-30"/>
     <use x="1150.960938" xlink:href="#DejaVuSans-38"/>
    </g>
    <!-- 15 instances -->
    <g transform="translate(74.3712 87.425723)scale(0.1666 -0.1666)">
     <use xlink:href="#DejaVuSans-31"/>
     <use x="63.623047" xlink:href="#DejaVuSans-35"/>
     <use x="127.246094" xlink:href="#DejaVuSans-20"/>
     <use x="159.033203" xlink:href="#DejaVuSans-69"/>
     <use x="186.816406" xlink:href="#DejaVuSans-6e"/>
     <use x="250.195312" xlink:href="#DejaVuSans-73"/>
     <use x="302.294922" xlink:href="#DejaVuSans-74"/>
     <use x="341.503906" xlink:href="#DejaVuSans-61"/>
     <use x="402.783203" xlink:href="#DejaVuSans-6e"/>
     <use x="466.162109" xlink:href="#DejaVuSans-63"/>
     <use x="521.142578" xlink:href="#DejaVuSans-65"/>
     <use x="582.666016" xlink:href="#DejaVuSans-73"/>
    </g>
   </g>
   <g id="text_17">
    <!-- v2.1 -->
    <g style="fill:#808080;" transform="translate(238.449063 293.504568)scale(0.1 -0.1)">
     <use xlink:href="#DejaVuSans-76"/>
     <use x="59.179688" xlink:href="#DejaVuSans-32"/>
     <use x="122.802734" xlink:href="#DejaVuSans-2e"/>
     <use x="154.589844" xlink:href="#DejaVuSans-31"/>
    </g>
   </g>
  </g>
 </g>
 <defs>
  <clipPath id="pb5aed089b7">
   <rect height="266.112" width="357.12" x="70.8" y="32.133375"/>
  </clipPath>
 </defs>
</svg>
