<?xml version="1.0" encoding="utf-8" standalone="no"?>
<!DOCTYPE svg PUBLIC "-//W3C//DTD SVG 1.1//EN"
  "http://www.w3.org/Graphics/SVG/1.1/DTD/svg11.dtd">
<!-- Created with matplotlib (http://matplotlib.org/) -->
<svg height="353pt" version="1.1" viewBox="0 0 478 353" width="478pt" xmlns="http://www.w3.org/2000/svg" xmlns:xlink="http://www.w3.org/1999/xlink">
 <defs>
  <style type="text/css">
*{stroke-linecap:butt;stroke-linejoin:round;}
  </style>
 </defs>
 <g id="figure_1">
  <g id="patch_1">
   <path d="M 0 353.22225 
L 478.829063 353.22225 
L 478.829063 0 
L 0 0 
z
" style="fill:#ffffff;"/>
  </g>
  <g id="axes_1">
   <g id="patch_2">
    <path d="M 70.8 298.245375 
L 427.92 298.245375 
L 427.92 32.133375 
L 70.8 32.133375 
z
" style="fill:#ffffff;"/>
   </g>
   <g id="line2d_1">
    <path d="M 58.414766 298.245375 
L 58.414766 290.496045 
L 70.8 290.496045 
L 70.8 284.03827 
L 78.044898 284.03827 
L 78.044898 277.580494 
L 87.172389 277.580494 
L 87.172389 268.539609 
L 90.430132 268.539609 
L 90.430132 267.248054 
L 93.184514 267.248054 
L 93.184514 265.956499 
L 99.557623 265.956499 
L 99.557623 264.664944 
L 102.815366 264.664944 
L 102.815366 259.498724 
L 104.245578 259.498724 
L 104.245578 256.915614 
L 105.569748 256.915614 
L 105.569748 254.332504 
L 106.802521 254.332504 
L 106.802521 251.749394 
L 107.955702 251.749394 
L 107.955702 250.457839 
L 109.03895 250.457839 
L 109.03895 249.166284 
L 110.060263 249.166284 
L 110.060263 244.000063 
L 111.026343 244.000063 
L 111.026343 241.416953 
L 111.942857 241.416953 
L 111.942857 238.833843 
L 112.814645 238.833843 
L 112.814645 234.959178 
L 114.44014 234.959178 
L 114.44014 233.667623 
L 117.305161 233.667623 
L 117.305161 231.084513 
L 119.187755 231.084513 
L 119.187755 229.792958 
L 119.773647 229.792958 
L 119.773647 228.501403 
L 120.340936 228.501403 
L 120.340936 227.209848 
L 121.942137 227.209848 
L 121.942137 224.626738 
L 122.935065 224.626738 
L 122.935065 223.335183 
L 123.411577 223.335183 
L 123.411577 220.752073 
L 123.87571 220.752073 
L 123.87571 219.460518 
L 124.769302 219.460518 
L 124.769302 216.877408 
L 125.19988 216.877408 
L 125.19988 215.585853 
L 125.620325 215.585853 
L 125.620325 213.002743 
L 126.031105 213.002743 
L 126.031105 207.836522 
L 126.432652 207.836522 
L 126.432652 206.544967 
L 126.825374 206.544967 
L 126.825374 201.378747 
L 127.209649 201.378747 
L 127.209649 197.504082 
L 127.954262 197.504082 
L 127.954262 196.212527 
L 128.315246 196.212527 
L 128.315246 193.629417 
L 129.016046 193.629417 
L 129.016046 192.337862 
L 129.690395 192.337862 
L 129.690395 191.046307 
L 131.272677 191.046307 
L 131.272677 189.754752 
L 131.572989 189.754752 
L 131.572989 188.463197 
L 131.868336 188.463197 
L 131.868336 187.171642 
L 132.444777 187.171642 
L 132.444777 185.880087 
L 133.003201 185.880087 
L 133.003201 184.588532 
L 133.276002 184.588532 
L 133.276002 183.296977 
L 133.544701 183.296977 
L 133.544701 182.005422 
L 133.809418 182.005422 
L 133.809418 180.713867 
L 134.070271 180.713867 
L 134.070271 179.422312 
L 134.830731 179.422312 
L 134.830731 176.839201 
L 135.077192 176.839201 
L 135.077192 174.256091 
L 135.796811 174.256091 
L 135.796811 172.964536 
L 136.030384 172.964536 
L 136.030384 170.381426 
L 136.260944 170.381426 
L 136.260944 167.798316 
L 136.713325 167.798316 
L 136.713325 161.340541 
L 136.935292 161.340541 
L 136.935292 156.174321 
L 137.154536 156.174321 
L 137.154536 153.591211 
L 137.585114 153.591211 
L 137.585114 152.299656 
L 137.796573 152.299656 
L 137.796573 151.008101 
L 138.005559 151.008101 
L 138.005559 147.133436 
L 138.416339 147.133436 
L 138.416339 145.841881 
L 138.61824 145.841881 
L 138.61824 139.384105 
L 138.817886 139.384105 
L 138.817886 135.50944 
L 139.015326 135.50944 
L 139.015326 132.92633 
L 139.210608 132.92633 
L 139.210608 126.468555 
L 139.403779 126.468555 
L 139.403779 122.59389 
L 139.594883 122.59389 
L 139.594883 116.136115 
L 139.783966 116.136115 
L 139.783966 113.553005 
L 139.971068 113.553005 
L 139.971068 110.969895 
L 140.339496 110.969895 
L 140.339496 109.678339 
L 140.70048 109.678339 
L 140.70048 107.095229 
L 141.22864 107.095229 
L 141.22864 104.512119 
L 141.741636 104.512119 
L 141.741636 101.929009 
L 141.909413 101.929009 
L 141.909413 99.345899 
L 142.403494 99.345899 
L 142.403494 96.762789 
L 142.72545 96.762789 
L 142.72545 91.596569 
L 143.041708 91.596569 
L 143.041708 87.721904 
L 143.352466 87.721904 
L 143.352466 86.430349 
L 143.657911 86.430349 
L 143.657911 85.138794 
L 144.106507 85.138794 
L 144.106507 83.847239 
L 144.544115 83.847239 
L 144.544115 82.555684 
L 144.687635 82.555684 
L 144.687635 81.264129 
L 144.830011 81.264129 
L 144.830011 79.972574 
L 145.388435 79.972574 
L 145.388435 78.681019 
L 145.796091 78.681019 
L 145.796091 77.389464 
L 146.194652 77.389464 
L 146.194652 76.097908 
L 151.980117 76.097908 
L 151.980117 74.806353 
L 152.449124 74.806353 
L 152.449124 73.514798 
L 153.613874 73.514798 
L 153.613874 72.223243 
L 154.377948 72.223243 
L 154.377948 70.931688 
L 154.543395 70.931688 
L 154.543395 46.392143 
L 155.030737 46.392143 
L 155.030737 45.100588 
L 155.50514 45.100588 
L 155.50514 43.809033 
L 155.967272 43.809033 
L 155.967272 42.517478 
L 156.417753 42.517478 
L 156.417753 41.225922 
L 156.565424 41.225922 
L 156.565424 39.934367 
L 157.072869 39.934367 
L 157.072869 38.642812 
L 157.28601 38.642812 
L 157.28601 37.351257 
L 157.496639 37.351257 
L 157.496639 36.059702 
L 157.635691 36.059702 
L 157.635691 34.768147 
L 358.8 34.768147 
L 358.8 34.768147 
" style="fill:none;stroke:#f5deb3;stroke-linecap:square;stroke-width:6;"/>
   </g>
   <g id="line2d_2"/>
   <g id="line2d_3">
    <path d="M 358.8 34.768147 
L 390.48 40.037692 
" style="fill:none;stroke:#f5deb3;stroke-linecap:square;stroke-width:6;"/>
    <defs>
     <path d="M -0 7.778175 
L 7.778175 0 
L 0 -7.778175 
L -7.778175 -0 
z
" id="m47bb39c704" style="stroke:#f5deb3;stroke-linejoin:miter;stroke-width:1.5;"/>
    </defs>
    <g>
     <use style="fill:#f5deb3;stroke:#f5deb3;stroke-linejoin:miter;stroke-width:1.5;" x="358.8" xlink:href="#m47bb39c704" y="34.768147"/>
     <use style="fill:#f5deb3;stroke:#f5deb3;stroke-linejoin:miter;stroke-width:1.5;" x="390.48" xlink:href="#m47bb39c704" y="40.037692"/>
    </g>
   </g>
   <g id="matplotlib.axis_1">
    <g id="xtick_1">
     <g id="line2d_4">
      <path clip-path="url(#p447a79dfb2)" d="M 70.8 298.245375 
L 70.8 32.133375 
" style="fill:none;stroke:#b0b0b0;stroke-linecap:square;stroke-width:0.8;"/>
     </g>
     <g id="line2d_5">
      <defs>
       <path d="M 0 0 
L 0 3.5 
" id="m2a75422635" style="stroke:#000000;stroke-width:0.8;"/>
      </defs>
      <g>
       <use style="stroke:#000000;stroke-width:0.8;" x="70.8" xlink:href="#m2a75422635" y="298.245375"/>
      </g>
     </g>
     <g id="text_1">
      <!-- 0 -->
      <defs>
       <path d="M 31.78125 66.40625 
Q 24.171875 66.40625 20.328125 58.90625 
Q 16.5 51.421875 16.5 36.375 
Q 16.5 21.390625 20.328125 13.890625 
Q 24.171875 6.390625 31.78125 6.390625 
Q 39.453125 6.390625 43.28125 13.890625 
Q 47.125 21.390625 47.125 36.375 
Q 47.125 51.421875 43.28125 58.90625 
Q 39.453125 66.40625 31.78125 66.40625 
M 31.78125 74.21875 
Q 44.046875 74.21875 50.515625 64.515625 
Q 56.984375 54.828125 56.984375 36.375 
Q 56.984375 17.96875 50.515625 8.265625 
Q 44.046875 -1.421875 31.78125 -1.421875 
Q 19.53125 -1.421875 13.0625 8.265625 
Q 6.59375 17.96875 6.59375 36.375 
Q 6.59375 54.828125 13.0625 64.515625 
Q 19.53125 74.21875 31.78125 74.21875 
" id="DejaVuSans-30"/>
      </defs>
      <g transform="translate(64.4375 320.44225)scale(0.2 -0.2)">
       <use xlink:href="#DejaVuSans-30"/>
      </g>
     </g>
    </g>
    <g id="xtick_2">
     <g id="line2d_6">
      <path clip-path="url(#p447a79dfb2)" d="M 153.085714 298.245375 
L 153.085714 32.133375 
" style="fill:none;stroke:#b0b0b0;stroke-linecap:square;stroke-width:0.8;"/>
     </g>
     <g id="line2d_7">
      <g>
       <use style="stroke:#000000;stroke-width:0.8;" x="153.085714" xlink:href="#m2a75422635" y="298.245375"/>
      </g>
     </g>
     <g id="text_2">
      <!-- 2 -->
      <defs>
       <path d="M 19.1875 8.296875 
L 53.609375 8.296875 
L 53.609375 0 
L 7.328125 0 
L 7.328125 8.296875 
Q 12.9375 14.109375 22.625 23.890625 
Q 32.328125 33.6875 34.8125 36.53125 
Q 39.546875 41.84375 41.421875 45.53125 
Q 43.3125 49.21875 43.3125 52.78125 
Q 43.3125 58.59375 39.234375 62.25 
Q 35.15625 65.921875 28.609375 65.921875 
Q 23.96875 65.921875 18.8125 64.3125 
Q 13.671875 62.703125 7.8125 59.421875 
L 7.8125 69.390625 
Q 13.765625 71.78125 18.9375 73 
Q 24.125 74.21875 28.421875 74.21875 
Q 39.75 74.21875 46.484375 68.546875 
Q 53.21875 62.890625 53.21875 53.421875 
Q 53.21875 48.921875 51.53125 44.890625 
Q 49.859375 40.875 45.40625 35.40625 
Q 44.1875 33.984375 37.640625 27.21875 
Q 31.109375 20.453125 19.1875 8.296875 
" id="DejaVuSans-32"/>
      </defs>
      <g transform="translate(146.723214 320.44225)scale(0.2 -0.2)">
       <use xlink:href="#DejaVuSans-32"/>
      </g>
     </g>
    </g>
    <g id="xtick_3">
     <g id="line2d_8">
      <path clip-path="url(#p447a79dfb2)" d="M 235.371429 298.245375 
L 235.371429 32.133375 
" style="fill:none;stroke:#b0b0b0;stroke-linecap:square;stroke-width:0.8;"/>
     </g>
     <g id="line2d_9">
      <g>
       <use style="stroke:#000000;stroke-width:0.8;" x="235.371429" xlink:href="#m2a75422635" y="298.245375"/>
      </g>
     </g>
     <g id="text_3">
      <!-- 4 -->
      <defs>
       <path d="M 37.796875 64.3125 
L 12.890625 25.390625 
L 37.796875 25.390625 
z
M 35.203125 72.90625 
L 47.609375 72.90625 
L 47.609375 25.390625 
L 58.015625 25.390625 
L 58.015625 17.1875 
L 47.609375 17.1875 
L 47.609375 0 
L 37.796875 0 
L 37.796875 17.1875 
L 4.890625 17.1875 
L 4.890625 26.703125 
z
" id="DejaVuSans-34"/>
      </defs>
      <g transform="translate(229.008929 320.44225)scale(0.2 -0.2)">
       <use xlink:href="#DejaVuSans-34"/>
      </g>
     </g>
    </g>
    <g id="xtick_4">
     <g id="line2d_10">
      <path clip-path="url(#p447a79dfb2)" d="M 317.657143 298.245375 
L 317.657143 32.133375 
" style="fill:none;stroke:#b0b0b0;stroke-linecap:square;stroke-width:0.8;"/>
     </g>
     <g id="line2d_11">
      <g>
       <use style="stroke:#000000;stroke-width:0.8;" x="317.657143" xlink:href="#m2a75422635" y="298.245375"/>
      </g>
     </g>
     <g id="text_4">
      <!-- 6 -->
      <defs>
       <path d="M 33.015625 40.375 
Q 26.375 40.375 22.484375 35.828125 
Q 18.609375 31.296875 18.609375 23.390625 
Q 18.609375 15.53125 22.484375 10.953125 
Q 26.375 6.390625 33.015625 6.390625 
Q 39.65625 6.390625 43.53125 10.953125 
Q 47.40625 15.53125 47.40625 23.390625 
Q 47.40625 31.296875 43.53125 35.828125 
Q 39.65625 40.375 33.015625 40.375 
M 52.59375 71.296875 
L 52.59375 62.3125 
Q 48.875 64.0625 45.09375 64.984375 
Q 41.3125 65.921875 37.59375 65.921875 
Q 27.828125 65.921875 22.671875 59.328125 
Q 17.53125 52.734375 16.796875 39.40625 
Q 19.671875 43.65625 24.015625 45.921875 
Q 28.375 48.1875 33.59375 48.1875 
Q 44.578125 48.1875 50.953125 41.515625 
Q 57.328125 34.859375 57.328125 23.390625 
Q 57.328125 12.15625 50.6875 5.359375 
Q 44.046875 -1.421875 33.015625 -1.421875 
Q 20.359375 -1.421875 13.671875 8.265625 
Q 6.984375 17.96875 6.984375 36.375 
Q 6.984375 53.65625 15.1875 63.9375 
Q 23.390625 74.21875 37.203125 74.21875 
Q 40.921875 74.21875 44.703125 73.484375 
Q 48.484375 72.75 52.59375 71.296875 
" id="DejaVuSans-36"/>
      </defs>
      <g transform="translate(311.294643 320.44225)scale(0.2 -0.2)">
       <use xlink:href="#DejaVuSans-36"/>
      </g>
     </g>
    </g>
    <g id="xtick_5">
     <g id="line2d_12">
      <path clip-path="url(#p447a79dfb2)" d="M 399.942857 298.245375 
L 399.942857 32.133375 
" style="fill:none;stroke:#b0b0b0;stroke-linecap:square;stroke-width:0.8;"/>
     </g>
     <g id="line2d_13">
      <g>
       <use style="stroke:#000000;stroke-width:0.8;" x="399.942857" xlink:href="#m2a75422635" y="298.245375"/>
      </g>
     </g>
     <g id="text_5">
      <!-- 8 -->
      <defs>
       <path d="M 31.78125 34.625 
Q 24.75 34.625 20.71875 30.859375 
Q 16.703125 27.09375 16.703125 20.515625 
Q 16.703125 13.921875 20.71875 10.15625 
Q 24.75 6.390625 31.78125 6.390625 
Q 38.8125 6.390625 42.859375 10.171875 
Q 46.921875 13.96875 46.921875 20.515625 
Q 46.921875 27.09375 42.890625 30.859375 
Q 38.875 34.625 31.78125 34.625 
M 21.921875 38.8125 
Q 15.578125 40.375 12.03125 44.71875 
Q 8.5 49.078125 8.5 55.328125 
Q 8.5 64.0625 14.71875 69.140625 
Q 20.953125 74.21875 31.78125 74.21875 
Q 42.671875 74.21875 48.875 69.140625 
Q 55.078125 64.0625 55.078125 55.328125 
Q 55.078125 49.078125 51.53125 44.71875 
Q 48 40.375 41.703125 38.8125 
Q 48.828125 37.15625 52.796875 32.3125 
Q 56.78125 27.484375 56.78125 20.515625 
Q 56.78125 9.90625 50.3125 4.234375 
Q 43.84375 -1.421875 31.78125 -1.421875 
Q 19.734375 -1.421875 13.25 4.234375 
Q 6.78125 9.90625 6.78125 20.515625 
Q 6.78125 27.484375 10.78125 32.3125 
Q 14.796875 37.15625 21.921875 38.8125 
M 18.3125 54.390625 
Q 18.3125 48.734375 21.84375 45.5625 
Q 25.390625 42.390625 31.78125 42.390625 
Q 38.140625 42.390625 41.71875 45.5625 
Q 45.3125 48.734375 45.3125 54.390625 
Q 45.3125 60.0625 41.71875 63.234375 
Q 38.140625 66.40625 31.78125 66.40625 
Q 25.390625 66.40625 21.84375 63.234375 
Q 18.3125 60.0625 18.3125 54.390625 
" id="DejaVuSans-38"/>
      </defs>
      <g transform="translate(393.580357 320.44225)scale(0.2 -0.2)">
       <use xlink:href="#DejaVuSans-38"/>
      </g>
     </g>
    </g>
    <g id="xtick_6">
     <g id="line2d_14">
      <defs>
       <path d="M 0 0 
L 0 2 
" id="m5cf9bb57dd" style="stroke:#000000;stroke-width:0.6;"/>
      </defs>
      <g>
       <use style="stroke:#000000;stroke-width:0.6;" x="83.185234" xlink:href="#m5cf9bb57dd" y="298.245375"/>
      </g>
     </g>
    </g>
    <g id="xtick_7">
     <g id="line2d_15">
      <g>
       <use style="stroke:#000000;stroke-width:0.6;" x="95.570468" xlink:href="#m5cf9bb57dd" y="298.245375"/>
      </g>
     </g>
    </g>
    <g id="xtick_8">
     <g id="line2d_16">
      <g>
       <use style="stroke:#000000;stroke-width:0.6;" x="102.815366" xlink:href="#m5cf9bb57dd" y="298.245375"/>
      </g>
     </g>
    </g>
    <g id="xtick_9">
     <g id="line2d_17">
      <g>
       <use style="stroke:#000000;stroke-width:0.6;" x="107.955702" xlink:href="#m5cf9bb57dd" y="298.245375"/>
      </g>
     </g>
    </g>
    <g id="xtick_10">
     <g id="line2d_18">
      <g>
       <use style="stroke:#000000;stroke-width:0.6;" x="165.470948" xlink:href="#m5cf9bb57dd" y="298.245375"/>
      </g>
     </g>
    </g>
    <g id="xtick_11">
     <g id="line2d_19">
      <g>
       <use style="stroke:#000000;stroke-width:0.6;" x="177.856183" xlink:href="#m5cf9bb57dd" y="298.245375"/>
      </g>
     </g>
    </g>
    <g id="xtick_12">
     <g id="line2d_20">
      <g>
       <use style="stroke:#000000;stroke-width:0.6;" x="185.10108" xlink:href="#m5cf9bb57dd" y="298.245375"/>
      </g>
     </g>
    </g>
    <g id="xtick_13">
     <g id="line2d_21">
      <g>
       <use style="stroke:#000000;stroke-width:0.6;" x="190.241417" xlink:href="#m5cf9bb57dd" y="298.245375"/>
      </g>
     </g>
    </g>
    <g id="xtick_14">
     <g id="line2d_22">
      <g>
       <use style="stroke:#000000;stroke-width:0.6;" x="247.756663" xlink:href="#m5cf9bb57dd" y="298.245375"/>
      </g>
     </g>
    </g>
    <g id="xtick_15">
     <g id="line2d_23">
      <g>
       <use style="stroke:#000000;stroke-width:0.6;" x="260.141897" xlink:href="#m5cf9bb57dd" y="298.245375"/>
      </g>
     </g>
    </g>
    <g id="xtick_16">
     <g id="line2d_24">
      <g>
       <use style="stroke:#000000;stroke-width:0.6;" x="267.386794" xlink:href="#m5cf9bb57dd" y="298.245375"/>
      </g>
     </g>
    </g>
    <g id="xtick_17">
     <g id="line2d_25">
      <g>
       <use style="stroke:#000000;stroke-width:0.6;" x="272.527131" xlink:href="#m5cf9bb57dd" y="298.245375"/>
      </g>
     </g>
    </g>
    <g id="xtick_18">
     <g id="line2d_26">
      <g>
       <use style="stroke:#000000;stroke-width:0.6;" x="330.042377" xlink:href="#m5cf9bb57dd" y="298.245375"/>
      </g>
     </g>
    </g>
    <g id="xtick_19">
     <g id="line2d_27">
      <g>
       <use style="stroke:#000000;stroke-width:0.6;" x="342.427611" xlink:href="#m5cf9bb57dd" y="298.245375"/>
      </g>
     </g>
    </g>
    <g id="xtick_20">
     <g id="line2d_28">
      <g>
       <use style="stroke:#000000;stroke-width:0.6;" x="349.672509" xlink:href="#m5cf9bb57dd" y="298.245375"/>
      </g>
     </g>
    </g>
    <g id="xtick_21">
     <g id="line2d_29">
      <g>
       <use style="stroke:#000000;stroke-width:0.6;" x="354.812845" xlink:href="#m5cf9bb57dd" y="298.245375"/>
      </g>
     </g>
    </g>
    <g id="xtick_22">
     <g id="line2d_30">
      <g>
       <use style="stroke:#000000;stroke-width:0.6;" x="412.328091" xlink:href="#m5cf9bb57dd" y="298.245375"/>
      </g>
     </g>
    </g>
    <g id="xtick_23">
     <g id="line2d_31">
      <g>
       <use style="stroke:#000000;stroke-width:0.6;" x="424.713325" xlink:href="#m5cf9bb57dd" y="298.245375"/>
      </g>
     </g>
    </g>
    <g id="text_6">
     <!-- log10 of (# f-evals / dimension) -->
     <defs>
      <path d="M 9.421875 75.984375 
L 18.40625 75.984375 
L 18.40625 0 
L 9.421875 0 
z
" id="DejaVuSans-6c"/>
      <path d="M 30.609375 48.390625 
Q 23.390625 48.390625 19.1875 42.75 
Q 14.984375 37.109375 14.984375 27.296875 
Q 14.984375 17.484375 19.15625 11.84375 
Q 23.34375 6.203125 30.609375 6.203125 
Q 37.796875 6.203125 41.984375 11.859375 
Q 46.1875 17.53125 46.1875 27.296875 
Q 46.1875 37.015625 41.984375 42.703125 
Q 37.796875 48.390625 30.609375 48.390625 
M 30.609375 56 
Q 42.328125 56 49.015625 48.375 
Q 55.71875 40.765625 55.71875 27.296875 
Q 55.71875 13.875 49.015625 6.21875 
Q 42.328125 -1.421875 30.609375 -1.421875 
Q 18.84375 -1.421875 12.171875 6.21875 
Q 5.515625 13.875 5.515625 27.296875 
Q 5.515625 40.765625 12.171875 48.375 
Q 18.84375 56 30.609375 56 
" id="DejaVuSans-6f"/>
      <path d="M 45.40625 27.984375 
Q 45.40625 37.75 41.375 43.109375 
Q 37.359375 48.484375 30.078125 48.484375 
Q 22.859375 48.484375 18.828125 43.109375 
Q 14.796875 37.75 14.796875 27.984375 
Q 14.796875 18.265625 18.828125 12.890625 
Q 22.859375 7.515625 30.078125 7.515625 
Q 37.359375 7.515625 41.375 12.890625 
Q 45.40625 18.265625 45.40625 27.984375 
M 54.390625 6.78125 
Q 54.390625 -7.171875 48.1875 -13.984375 
Q 42 -20.796875 29.203125 -20.796875 
Q 24.46875 -20.796875 20.265625 -20.09375 
Q 16.0625 -19.390625 12.109375 -17.921875 
L 12.109375 -9.1875 
Q 16.0625 -11.328125 19.921875 -12.34375 
Q 23.78125 -13.375 27.78125 -13.375 
Q 36.625 -13.375 41.015625 -8.765625 
Q 45.40625 -4.15625 45.40625 5.171875 
L 45.40625 9.625 
Q 42.625 4.78125 38.28125 2.390625 
Q 33.9375 0 27.875 0 
Q 17.828125 0 11.671875 7.65625 
Q 5.515625 15.328125 5.515625 27.984375 
Q 5.515625 40.671875 11.671875 48.328125 
Q 17.828125 56 27.875 56 
Q 33.9375 56 38.28125 53.609375 
Q 42.625 51.21875 45.40625 46.390625 
L 45.40625 54.6875 
L 54.390625 54.6875 
z
" id="DejaVuSans-67"/>
      <path d="M 12.40625 8.296875 
L 28.515625 8.296875 
L 28.515625 63.921875 
L 10.984375 60.40625 
L 10.984375 69.390625 
L 28.421875 72.90625 
L 38.28125 72.90625 
L 38.28125 8.296875 
L 54.390625 8.296875 
L 54.390625 0 
L 12.40625 0 
z
" id="DejaVuSans-31"/>
      <path id="DejaVuSans-20"/>
      <path d="M 37.109375 75.984375 
L 37.109375 68.5 
L 28.515625 68.5 
Q 23.6875 68.5 21.796875 66.546875 
Q 19.921875 64.59375 19.921875 59.515625 
L 19.921875 54.6875 
L 34.71875 54.6875 
L 34.71875 47.703125 
L 19.921875 47.703125 
L 19.921875 0 
L 10.890625 0 
L 10.890625 47.703125 
L 2.296875 47.703125 
L 2.296875 54.6875 
L 10.890625 54.6875 
L 10.890625 58.5 
Q 10.890625 67.625 15.140625 71.796875 
Q 19.390625 75.984375 28.609375 75.984375 
z
" id="DejaVuSans-66"/>
      <path d="M 31 75.875 
Q 24.46875 64.65625 21.28125 53.65625 
Q 18.109375 42.671875 18.109375 31.390625 
Q 18.109375 20.125 21.3125 9.0625 
Q 24.515625 -2 31 -13.1875 
L 23.1875 -13.1875 
Q 15.875 -1.703125 12.234375 9.375 
Q 8.59375 20.453125 8.59375 31.390625 
Q 8.59375 42.28125 12.203125 53.3125 
Q 15.828125 64.359375 23.1875 75.875 
z
" id="DejaVuSans-28"/>
      <path d="M 51.125 44 
L 36.921875 44 
L 32.8125 27.6875 
L 47.125 27.6875 
z
M 43.796875 71.78125 
L 38.71875 51.515625 
L 52.984375 51.515625 
L 58.109375 71.78125 
L 65.921875 71.78125 
L 60.890625 51.515625 
L 76.125 51.515625 
L 76.125 44 
L 58.984375 44 
L 54.984375 27.6875 
L 70.515625 27.6875 
L 70.515625 20.21875 
L 53.078125 20.21875 
L 48 0 
L 40.1875 0 
L 45.21875 20.21875 
L 30.90625 20.21875 
L 25.875 0 
L 18.015625 0 
L 23.09375 20.21875 
L 7.71875 20.21875 
L 7.71875 27.6875 
L 24.90625 27.6875 
L 29 44 
L 13.28125 44 
L 13.28125 51.515625 
L 30.90625 51.515625 
L 35.890625 71.78125 
z
" id="DejaVuSans-23"/>
      <path d="M 4.890625 31.390625 
L 31.203125 31.390625 
L 31.203125 23.390625 
L 4.890625 23.390625 
z
" id="DejaVuSans-2d"/>
      <path d="M 56.203125 29.59375 
L 56.203125 25.203125 
L 14.890625 25.203125 
Q 15.484375 15.921875 20.484375 11.0625 
Q 25.484375 6.203125 34.421875 6.203125 
Q 39.59375 6.203125 44.453125 7.46875 
Q 49.3125 8.734375 54.109375 11.28125 
L 54.109375 2.78125 
Q 49.265625 0.734375 44.1875 -0.34375 
Q 39.109375 -1.421875 33.890625 -1.421875 
Q 20.796875 -1.421875 13.15625 6.1875 
Q 5.515625 13.8125 5.515625 26.8125 
Q 5.515625 40.234375 12.765625 48.109375 
Q 20.015625 56 32.328125 56 
Q 43.359375 56 49.78125 48.890625 
Q 56.203125 41.796875 56.203125 29.59375 
M 47.21875 32.234375 
Q 47.125 39.59375 43.09375 43.984375 
Q 39.0625 48.390625 32.421875 48.390625 
Q 24.90625 48.390625 20.390625 44.140625 
Q 15.875 39.890625 15.1875 32.171875 
z
" id="DejaVuSans-65"/>
      <path d="M 2.984375 54.6875 
L 12.5 54.6875 
L 29.59375 8.796875 
L 46.6875 54.6875 
L 56.203125 54.6875 
L 35.6875 0 
L 23.484375 0 
z
" id="DejaVuSans-76"/>
      <path d="M 34.28125 27.484375 
Q 23.390625 27.484375 19.1875 25 
Q 14.984375 22.515625 14.984375 16.5 
Q 14.984375 11.71875 18.140625 8.90625 
Q 21.296875 6.109375 26.703125 6.109375 
Q 34.1875 6.109375 38.703125 11.40625 
Q 43.21875 16.703125 43.21875 25.484375 
L 43.21875 27.484375 
z
M 52.203125 31.203125 
L 52.203125 0 
L 43.21875 0 
L 43.21875 8.296875 
Q 40.140625 3.328125 35.546875 0.953125 
Q 30.953125 -1.421875 24.3125 -1.421875 
Q 15.921875 -1.421875 10.953125 3.296875 
Q 6 8.015625 6 15.921875 
Q 6 25.140625 12.171875 29.828125 
Q 18.359375 34.515625 30.609375 34.515625 
L 43.21875 34.515625 
L 43.21875 35.40625 
Q 43.21875 41.609375 39.140625 45 
Q 35.0625 48.390625 27.6875 48.390625 
Q 23 48.390625 18.546875 47.265625 
Q 14.109375 46.140625 10.015625 43.890625 
L 10.015625 52.203125 
Q 14.9375 54.109375 19.578125 55.046875 
Q 24.21875 56 28.609375 56 
Q 40.484375 56 46.34375 49.84375 
Q 52.203125 43.703125 52.203125 31.203125 
" id="DejaVuSans-61"/>
      <path d="M 44.28125 53.078125 
L 44.28125 44.578125 
Q 40.484375 46.53125 36.375 47.5 
Q 32.28125 48.484375 27.875 48.484375 
Q 21.1875 48.484375 17.84375 46.4375 
Q 14.5 44.390625 14.5 40.28125 
Q 14.5 37.15625 16.890625 35.375 
Q 19.28125 33.59375 26.515625 31.984375 
L 29.59375 31.296875 
Q 39.15625 29.25 43.1875 25.515625 
Q 47.21875 21.78125 47.21875 15.09375 
Q 47.21875 7.46875 41.1875 3.015625 
Q 35.15625 -1.421875 24.609375 -1.421875 
Q 20.21875 -1.421875 15.453125 -0.5625 
Q 10.6875 0.296875 5.421875 2 
L 5.421875 11.28125 
Q 10.40625 8.6875 15.234375 7.390625 
Q 20.0625 6.109375 24.8125 6.109375 
Q 31.15625 6.109375 34.5625 8.28125 
Q 37.984375 10.453125 37.984375 14.40625 
Q 37.984375 18.0625 35.515625 20.015625 
Q 33.0625 21.96875 24.703125 23.78125 
L 21.578125 24.515625 
Q 13.234375 26.265625 9.515625 29.90625 
Q 5.8125 33.546875 5.8125 39.890625 
Q 5.8125 47.609375 11.28125 51.796875 
Q 16.75 56 26.8125 56 
Q 31.78125 56 36.171875 55.265625 
Q 40.578125 54.546875 44.28125 53.078125 
" id="DejaVuSans-73"/>
      <path d="M 25.390625 72.90625 
L 33.6875 72.90625 
L 8.296875 -9.28125 
L 0 -9.28125 
z
" id="DejaVuSans-2f"/>
      <path d="M 45.40625 46.390625 
L 45.40625 75.984375 
L 54.390625 75.984375 
L 54.390625 0 
L 45.40625 0 
L 45.40625 8.203125 
Q 42.578125 3.328125 38.25 0.953125 
Q 33.9375 -1.421875 27.875 -1.421875 
Q 17.96875 -1.421875 11.734375 6.484375 
Q 5.515625 14.40625 5.515625 27.296875 
Q 5.515625 40.1875 11.734375 48.09375 
Q 17.96875 56 27.875 56 
Q 33.9375 56 38.25 53.625 
Q 42.578125 51.265625 45.40625 46.390625 
M 14.796875 27.296875 
Q 14.796875 17.390625 18.875 11.75 
Q 22.953125 6.109375 30.078125 6.109375 
Q 37.203125 6.109375 41.296875 11.75 
Q 45.40625 17.390625 45.40625 27.296875 
Q 45.40625 37.203125 41.296875 42.84375 
Q 37.203125 48.484375 30.078125 48.484375 
Q 22.953125 48.484375 18.875 42.84375 
Q 14.796875 37.203125 14.796875 27.296875 
" id="DejaVuSans-64"/>
      <path d="M 9.421875 54.6875 
L 18.40625 54.6875 
L 18.40625 0 
L 9.421875 0 
z
M 9.421875 75.984375 
L 18.40625 75.984375 
L 18.40625 64.59375 
L 9.421875 64.59375 
z
" id="DejaVuSans-69"/>
      <path d="M 52 44.1875 
Q 55.375 50.25 60.0625 53.125 
Q 64.75 56 71.09375 56 
Q 79.640625 56 84.28125 50.015625 
Q 88.921875 44.046875 88.921875 33.015625 
L 88.921875 0 
L 79.890625 0 
L 79.890625 32.71875 
Q 79.890625 40.578125 77.09375 44.375 
Q 74.3125 48.1875 68.609375 48.1875 
Q 61.625 48.1875 57.5625 43.546875 
Q 53.515625 38.921875 53.515625 30.90625 
L 53.515625 0 
L 44.484375 0 
L 44.484375 32.71875 
Q 44.484375 40.625 41.703125 44.40625 
Q 38.921875 48.1875 33.109375 48.1875 
Q 26.21875 48.1875 22.15625 43.53125 
Q 18.109375 38.875 18.109375 30.90625 
L 18.109375 0 
L 9.078125 0 
L 9.078125 54.6875 
L 18.109375 54.6875 
L 18.109375 46.1875 
Q 21.1875 51.21875 25.484375 53.609375 
Q 29.78125 56 35.6875 56 
Q 41.65625 56 45.828125 52.96875 
Q 50 49.953125 52 44.1875 
" id="DejaVuSans-6d"/>
      <path d="M 54.890625 33.015625 
L 54.890625 0 
L 45.90625 0 
L 45.90625 32.71875 
Q 45.90625 40.484375 42.875 44.328125 
Q 39.84375 48.1875 33.796875 48.1875 
Q 26.515625 48.1875 22.3125 43.546875 
Q 18.109375 38.921875 18.109375 30.90625 
L 18.109375 0 
L 9.078125 0 
L 9.078125 54.6875 
L 18.109375 54.6875 
L 18.109375 46.1875 
Q 21.34375 51.125 25.703125 53.5625 
Q 30.078125 56 35.796875 56 
Q 45.21875 56 50.046875 50.171875 
Q 54.890625 44.34375 54.890625 33.015625 
" id="DejaVuSans-6e"/>
      <path d="M 8.015625 75.875 
L 15.828125 75.875 
Q 23.140625 64.359375 26.78125 53.3125 
Q 30.421875 42.28125 30.421875 31.390625 
Q 30.421875 20.453125 26.78125 9.375 
Q 23.140625 -1.703125 15.828125 -13.1875 
L 8.015625 -13.1875 
Q 14.5 -2 17.703125 9.0625 
Q 20.90625 20.125 20.90625 31.390625 
Q 20.90625 42.671875 17.703125 53.65625 
Q 14.5 64.65625 8.015625 75.875 
" id="DejaVuSans-29"/>
     </defs>
     <g transform="translate(107.015156 342.278812)scale(0.18 -0.18)">
      <use xlink:href="#DejaVuSans-6c"/>
      <use x="27.783203" xlink:href="#DejaVuSans-6f"/>
      <use x="88.964844" xlink:href="#DejaVuSans-67"/>
      <use x="152.441406" xlink:href="#DejaVuSans-31"/>
      <use x="216.064453" xlink:href="#DejaVuSans-30"/>
      <use x="279.6875" xlink:href="#DejaVuSans-20"/>
      <use x="311.474609" xlink:href="#DejaVuSans-6f"/>
      <use x="372.65625" xlink:href="#DejaVuSans-66"/>
      <use x="407.861328" xlink:href="#DejaVuSans-20"/>
      <use x="439.648438" xlink:href="#DejaVuSans-28"/>
      <use x="478.662109" xlink:href="#DejaVuSans-23"/>
      <use x="562.451172" xlink:href="#DejaVuSans-20"/>
      <use x="594.238281" xlink:href="#DejaVuSans-66"/>
      <use x="629.365234" xlink:href="#DejaVuSans-2d"/>
      <use x="665.449219" xlink:href="#DejaVuSans-65"/>
      <use x="726.972656" xlink:href="#DejaVuSans-76"/>
      <use x="786.152344" xlink:href="#DejaVuSans-61"/>
      <use x="847.431641" xlink:href="#DejaVuSans-6c"/>
      <use x="875.214844" xlink:href="#DejaVuSans-73"/>
      <use x="927.314453" xlink:href="#DejaVuSans-20"/>
      <use x="959.101562" xlink:href="#DejaVuSans-2f"/>
      <use x="992.792969" xlink:href="#DejaVuSans-20"/>
      <use x="1024.580078" xlink:href="#DejaVuSans-64"/>
      <use x="1088.056641" xlink:href="#DejaVuSans-69"/>
      <use x="1115.839844" xlink:href="#DejaVuSans-6d"/>
      <use x="1213.251953" xlink:href="#DejaVuSans-65"/>
      <use x="1274.775391" xlink:href="#DejaVuSans-6e"/>
      <use x="1338.154297" xlink:href="#DejaVuSans-73"/>
      <use x="1390.253906" xlink:href="#DejaVuSans-69"/>
      <use x="1418.037109" xlink:href="#DejaVuSans-6f"/>
      <use x="1479.21875" xlink:href="#DejaVuSans-6e"/>
      <use x="1542.597656" xlink:href="#DejaVuSans-29"/>
     </g>
    </g>
   </g>
   <g id="matplotlib.axis_2">
    <g id="ytick_1">
     <g id="line2d_32">
      <path clip-path="url(#p447a79dfb2)" d="M 70.8 298.245375 
L 427.92 298.245375 
" style="fill:none;stroke:#b0b0b0;stroke-linecap:square;stroke-width:0.8;"/>
     </g>
     <g id="line2d_33">
      <defs>
       <path d="M 0 0 
L -3.5 0 
" id="mf34ab85556" style="stroke:#000000;stroke-width:0.8;"/>
      </defs>
      <g>
       <use style="stroke:#000000;stroke-width:0.8;" x="70.8" xlink:href="#mf34ab85556" y="298.245375"/>
      </g>
     </g>
     <g id="text_7">
      <!-- 0.0 -->
      <defs>
       <path d="M 10.6875 12.40625 
L 21 12.40625 
L 21 0 
L 10.6875 0 
z
" id="DejaVuSans-2e"/>
      </defs>
      <g transform="translate(31.99375 305.843812)scale(0.2 -0.2)">
       <use xlink:href="#DejaVuSans-30"/>
       <use x="63.623047" xlink:href="#DejaVuSans-2e"/>
       <use x="95.410156" xlink:href="#DejaVuSans-30"/>
      </g>
     </g>
    </g>
    <g id="ytick_2">
     <g id="line2d_34">
      <path clip-path="url(#p447a79dfb2)" d="M 70.8 245.549929 
L 427.92 245.549929 
" style="fill:none;stroke:#b0b0b0;stroke-linecap:square;stroke-width:0.8;"/>
     </g>
     <g id="line2d_35">
      <g>
       <use style="stroke:#000000;stroke-width:0.8;" x="70.8" xlink:href="#mf34ab85556" y="245.549929"/>
      </g>
     </g>
     <g id="text_8">
      <!-- 0.2 -->
      <g transform="translate(31.99375 253.148367)scale(0.2 -0.2)">
       <use xlink:href="#DejaVuSans-30"/>
       <use x="63.623047" xlink:href="#DejaVuSans-2e"/>
       <use x="95.410156" xlink:href="#DejaVuSans-32"/>
      </g>
     </g>
    </g>
    <g id="ytick_3">
     <g id="line2d_36">
      <path clip-path="url(#p447a79dfb2)" d="M 70.8 192.854484 
L 427.92 192.854484 
" style="fill:none;stroke:#b0b0b0;stroke-linecap:square;stroke-width:0.8;"/>
     </g>
     <g id="line2d_37">
      <g>
       <use style="stroke:#000000;stroke-width:0.8;" x="70.8" xlink:href="#mf34ab85556" y="192.854484"/>
      </g>
     </g>
     <g id="text_9">
      <!-- 0.4 -->
      <g transform="translate(31.99375 200.452921)scale(0.2 -0.2)">
       <use xlink:href="#DejaVuSans-30"/>
       <use x="63.623047" xlink:href="#DejaVuSans-2e"/>
       <use x="95.410156" xlink:href="#DejaVuSans-34"/>
      </g>
     </g>
    </g>
    <g id="ytick_4">
     <g id="line2d_38">
      <path clip-path="url(#p447a79dfb2)" d="M 70.8 140.159038 
L 427.92 140.159038 
" style="fill:none;stroke:#b0b0b0;stroke-linecap:square;stroke-width:0.8;"/>
     </g>
     <g id="line2d_39">
      <g>
       <use style="stroke:#000000;stroke-width:0.8;" x="70.8" xlink:href="#mf34ab85556" y="140.159038"/>
      </g>
     </g>
     <g id="text_10">
      <!-- 0.6 -->
      <g transform="translate(31.99375 147.757476)scale(0.2 -0.2)">
       <use xlink:href="#DejaVuSans-30"/>
       <use x="63.623047" xlink:href="#DejaVuSans-2e"/>
       <use x="95.410156" xlink:href="#DejaVuSans-36"/>
      </g>
     </g>
    </g>
    <g id="ytick_5">
     <g id="line2d_40">
      <path clip-path="url(#p447a79dfb2)" d="M 70.8 87.463593 
L 427.92 87.463593 
" style="fill:none;stroke:#b0b0b0;stroke-linecap:square;stroke-width:0.8;"/>
     </g>
     <g id="line2d_41">
      <g>
       <use style="stroke:#000000;stroke-width:0.8;" x="70.8" xlink:href="#mf34ab85556" y="87.463593"/>
      </g>
     </g>
     <g id="text_11">
      <!-- 0.8 -->
      <g transform="translate(31.99375 95.06203)scale(0.2 -0.2)">
       <use xlink:href="#DejaVuSans-30"/>
       <use x="63.623047" xlink:href="#DejaVuSans-2e"/>
       <use x="95.410156" xlink:href="#DejaVuSans-38"/>
      </g>
     </g>
    </g>
    <g id="ytick_6">
     <g id="line2d_42">
      <path clip-path="url(#p447a79dfb2)" d="M 70.8 34.768147 
L 427.92 34.768147 
" style="fill:none;stroke:#b0b0b0;stroke-linecap:square;stroke-width:0.8;"/>
     </g>
     <g id="line2d_43">
      <g>
       <use style="stroke:#000000;stroke-width:0.8;" x="70.8" xlink:href="#mf34ab85556" y="34.768147"/>
      </g>
     </g>
     <g id="text_12">
      <!-- 1.0 -->
      <g transform="translate(31.99375 42.366585)scale(0.2 -0.2)">
       <use xlink:href="#DejaVuSans-31"/>
       <use x="63.623047" xlink:href="#DejaVuSans-2e"/>
       <use x="95.410156" xlink:href="#DejaVuSans-30"/>
      </g>
     </g>
    </g>
    <g id="text_13">
     <!-- Proportion of function+target pairs -->
     <defs>
      <path d="M 19.671875 64.796875 
L 19.671875 37.40625 
L 32.078125 37.40625 
Q 38.96875 37.40625 42.71875 40.96875 
Q 46.484375 44.53125 46.484375 51.125 
Q 46.484375 57.671875 42.71875 61.234375 
Q 38.96875 64.796875 32.078125 64.796875 
z
M 9.8125 72.90625 
L 32.078125 72.90625 
Q 44.34375 72.90625 50.609375 67.359375 
Q 56.890625 61.8125 56.890625 51.125 
Q 56.890625 40.328125 50.609375 34.8125 
Q 44.34375 29.296875 32.078125 29.296875 
L 19.671875 29.296875 
L 19.671875 0 
L 9.8125 0 
z
" id="DejaVuSans-50"/>
      <path d="M 41.109375 46.296875 
Q 39.59375 47.171875 37.8125 47.578125 
Q 36.03125 48 33.890625 48 
Q 26.265625 48 22.1875 43.046875 
Q 18.109375 38.09375 18.109375 28.8125 
L 18.109375 0 
L 9.078125 0 
L 9.078125 54.6875 
L 18.109375 54.6875 
L 18.109375 46.1875 
Q 20.953125 51.171875 25.484375 53.578125 
Q 30.03125 56 36.53125 56 
Q 37.453125 56 38.578125 55.875 
Q 39.703125 55.765625 41.0625 55.515625 
z
" id="DejaVuSans-72"/>
      <path d="M 18.109375 8.203125 
L 18.109375 -20.796875 
L 9.078125 -20.796875 
L 9.078125 54.6875 
L 18.109375 54.6875 
L 18.109375 46.390625 
Q 20.953125 51.265625 25.265625 53.625 
Q 29.59375 56 35.59375 56 
Q 45.5625 56 51.78125 48.09375 
Q 58.015625 40.1875 58.015625 27.296875 
Q 58.015625 14.40625 51.78125 6.484375 
Q 45.5625 -1.421875 35.59375 -1.421875 
Q 29.59375 -1.421875 25.265625 0.953125 
Q 20.953125 3.328125 18.109375 8.203125 
M 48.6875 27.296875 
Q 48.6875 37.203125 44.609375 42.84375 
Q 40.53125 48.484375 33.40625 48.484375 
Q 26.265625 48.484375 22.1875 42.84375 
Q 18.109375 37.203125 18.109375 27.296875 
Q 18.109375 17.390625 22.1875 11.75 
Q 26.265625 6.109375 33.40625 6.109375 
Q 40.53125 6.109375 44.609375 11.75 
Q 48.6875 17.390625 48.6875 27.296875 
" id="DejaVuSans-70"/>
      <path d="M 18.3125 70.21875 
L 18.3125 54.6875 
L 36.8125 54.6875 
L 36.8125 47.703125 
L 18.3125 47.703125 
L 18.3125 18.015625 
Q 18.3125 11.328125 20.140625 9.421875 
Q 21.96875 7.515625 27.59375 7.515625 
L 36.8125 7.515625 
L 36.8125 0 
L 27.59375 0 
Q 17.1875 0 13.234375 3.875 
Q 9.28125 7.765625 9.28125 18.015625 
L 9.28125 47.703125 
L 2.6875 47.703125 
L 2.6875 54.6875 
L 9.28125 54.6875 
L 9.28125 70.21875 
z
" id="DejaVuSans-74"/>
      <path d="M 8.5 21.578125 
L 8.5 54.6875 
L 17.484375 54.6875 
L 17.484375 21.921875 
Q 17.484375 14.15625 20.5 10.265625 
Q 23.53125 6.390625 29.59375 6.390625 
Q 36.859375 6.390625 41.078125 11.03125 
Q 45.3125 15.671875 45.3125 23.6875 
L 45.3125 54.6875 
L 54.296875 54.6875 
L 54.296875 0 
L 45.3125 0 
L 45.3125 8.40625 
Q 42.046875 3.421875 37.71875 1 
Q 33.40625 -1.421875 27.6875 -1.421875 
Q 18.265625 -1.421875 13.375 4.4375 
Q 8.5 10.296875 8.5 21.578125 
M 31.109375 56 
z
" id="DejaVuSans-75"/>
      <path d="M 48.78125 52.59375 
L 48.78125 44.1875 
Q 44.96875 46.296875 41.140625 47.34375 
Q 37.3125 48.390625 33.40625 48.390625 
Q 24.65625 48.390625 19.8125 42.84375 
Q 14.984375 37.3125 14.984375 27.296875 
Q 14.984375 17.28125 19.8125 11.734375 
Q 24.65625 6.203125 33.40625 6.203125 
Q 37.3125 6.203125 41.140625 7.25 
Q 44.96875 8.296875 48.78125 10.40625 
L 48.78125 2.09375 
Q 45.015625 0.34375 40.984375 -0.53125 
Q 36.96875 -1.421875 32.421875 -1.421875 
Q 20.0625 -1.421875 12.78125 6.34375 
Q 5.515625 14.109375 5.515625 27.296875 
Q 5.515625 40.671875 12.859375 48.328125 
Q 20.21875 56 33.015625 56 
Q 37.15625 56 41.109375 55.140625 
Q 45.0625 54.296875 48.78125 52.59375 
" id="DejaVuSans-63"/>
      <path d="M 46 62.703125 
L 46 35.5 
L 73.1875 35.5 
L 73.1875 27.203125 
L 46 27.203125 
L 46 0 
L 37.796875 0 
L 37.796875 27.203125 
L 10.59375 27.203125 
L 10.59375 35.5 
L 37.796875 35.5 
L 37.796875 62.703125 
z
" id="DejaVuSans-2b"/>
     </defs>
     <g transform="translate(24.250312 323.17875)rotate(-90)scale(0.18 -0.18)">
      <use xlink:href="#DejaVuSans-50"/>
      <use x="60.287109" xlink:href="#DejaVuSans-72"/>
      <use x="101.369141" xlink:href="#DejaVuSans-6f"/>
      <use x="162.550781" xlink:href="#DejaVuSans-70"/>
      <use x="226.027344" xlink:href="#DejaVuSans-6f"/>
      <use x="287.208984" xlink:href="#DejaVuSans-72"/>
      <use x="328.322266" xlink:href="#DejaVuSans-74"/>
      <use x="367.53125" xlink:href="#DejaVuSans-69"/>
      <use x="395.314453" xlink:href="#DejaVuSans-6f"/>
      <use x="456.496094" xlink:href="#DejaVuSans-6e"/>
      <use x="519.875" xlink:href="#DejaVuSans-20"/>
      <use x="551.662109" xlink:href="#DejaVuSans-6f"/>
      <use x="612.84375" xlink:href="#DejaVuSans-66"/>
      <use x="648.048828" xlink:href="#DejaVuSans-20"/>
      <use x="679.835938" xlink:href="#DejaVuSans-66"/>
      <use x="715.041016" xlink:href="#DejaVuSans-75"/>
      <use x="778.419922" xlink:href="#DejaVuSans-6e"/>
      <use x="841.798828" xlink:href="#DejaVuSans-63"/>
      <use x="896.779297" xlink:href="#DejaVuSans-74"/>
      <use x="935.988281" xlink:href="#DejaVuSans-69"/>
      <use x="963.771484" xlink:href="#DejaVuSans-6f"/>
      <use x="1024.953125" xlink:href="#DejaVuSans-6e"/>
      <use x="1088.332031" xlink:href="#DejaVuSans-2b"/>
      <use x="1172.121094" xlink:href="#DejaVuSans-74"/>
      <use x="1211.330078" xlink:href="#DejaVuSans-61"/>
      <use x="1272.609375" xlink:href="#DejaVuSans-72"/>
      <use x="1313.707031" xlink:href="#DejaVuSans-67"/>
      <use x="1377.183594" xlink:href="#DejaVuSans-65"/>
      <use x="1438.707031" xlink:href="#DejaVuSans-74"/>
      <use x="1477.916016" xlink:href="#DejaVuSans-20"/>
      <use x="1509.703125" xlink:href="#DejaVuSans-70"/>
      <use x="1573.179688" xlink:href="#DejaVuSans-61"/>
      <use x="1634.458984" xlink:href="#DejaVuSans-69"/>
      <use x="1662.242188" xlink:href="#DejaVuSans-72"/>
      <use x="1703.355469" xlink:href="#DejaVuSans-73"/>
     </g>
    </g>
   </g>
   <g id="line2d_44">
    <defs>
     <path d="M 0 1.5 
C 0.397805 1.5 0.77937 1.341951 1.06066 1.06066 
C 1.341951 0.77937 1.5 0.397805 1.5 0 
C 1.5 -0.397805 1.341951 -0.77937 1.06066 -1.06066 
C 0.77937 -1.341951 0.397805 -1.5 0 -1.5 
C -0.397805 -1.5 -0.77937 -1.341951 -1.06066 -1.06066 
C -1.341951 -0.77937 -1.5 -0.397805 -1.5 0 
C -1.5 0.397805 -1.341951 0.77937 -1.06066 1.06066 
C -0.77937 1.341951 -0.397805 1.5 0 1.5 
z
" id="mb43316779d" style="stroke:#f5deb3;"/>
    </defs>
    <g>
     <use style="fill:#f5deb3;stroke:#f5deb3;" x="157.635691" xlink:href="#mb43316779d" y="34.768147"/>
     <use style="fill:#f5deb3;stroke:#f5deb3;" x="157.635691" xlink:href="#mb43316779d" y="34.768147"/>
    </g>
   </g>
   <g id="line2d_45">
    <g>
     <use style="fill:#f5deb3;stroke:#f5deb3;stroke-linejoin:miter;stroke-width:1.5;" x="133.276002" xlink:href="#m47bb39c704" y="184.588532"/>
     <use style="fill:#f5deb3;stroke:#f5deb3;stroke-linejoin:miter;stroke-width:1.5;" x="145.796091" xlink:href="#m47bb39c704" y="78.681019"/>
     <use style="fill:#f5deb3;stroke:#f5deb3;stroke-linejoin:miter;stroke-width:1.5;" x="157.635691" xlink:href="#m47bb39c704" y="34.768147"/>
     <use style="fill:#f5deb3;stroke:#f5deb3;stroke-linejoin:miter;stroke-width:1.5;" x="157.635691" xlink:href="#m47bb39c704" y="34.768147"/>
     <use style="fill:#f5deb3;stroke:#f5deb3;stroke-linejoin:miter;stroke-width:1.5;" x="157.635691" xlink:href="#m47bb39c704" y="34.768147"/>
     <use style="fill:#f5deb3;stroke:#f5deb3;stroke-linejoin:miter;stroke-width:1.5;" x="358.8" xlink:href="#m47bb39c704" y="34.768147"/>
    </g>
   </g>
   <g id="line2d_46">
    <defs>
     <path d="M 0 1.5 
C 0.397805 1.5 0.77937 1.341951 1.06066 1.06066 
C 1.341951 0.77937 1.5 0.397805 1.5 0 
C 1.5 -0.397805 1.341951 -0.77937 1.06066 -1.06066 
C 0.77937 -1.341951 0.397805 -1.5 0 -1.5 
C -0.397805 -1.5 -0.77937 -1.341951 -1.06066 -1.06066 
C -1.341951 -0.77937 -1.5 -0.397805 -1.5 0 
C -1.5 0.397805 -1.341951 0.77937 -1.06066 1.06066 
C -0.77937 1.341951 -0.397805 1.5 0 1.5 
z
" id="m2948895c54" style="stroke:#ff00ff;"/>
    </defs>
    <g>
     <use style="fill:#ff00ff;stroke:#ff00ff;" x="242.144997" xlink:href="#m2948895c54" y="91.596569"/>
     <use style="fill:#ff00ff;stroke:#ff00ff;" x="242.144997" xlink:href="#m2948895c54" y="91.596569"/>
    </g>
   </g>
   <g id="line2d_47">
    <path d="M 58.414766 298.245375 
L 58.414766 294.758176 
L 70.8 294.758176 
L 70.8 294.37071 
L 78.044898 294.37071 
L 78.044898 293.337466 
L 83.185234 293.337466 
L 83.185234 292.949999 
L 87.172389 292.949999 
L 87.172389 292.304222 
L 90.430132 292.304222 
L 90.430132 291.529289 
L 93.184514 291.529289 
L 93.184514 290.754356 
L 95.570468 290.754356 
L 95.570468 289.721112 
L 97.675029 289.721112 
L 97.675029 287.267157 
L 99.557623 287.267157 
L 99.557623 285.717291 
L 101.260636 285.717291 
L 101.260636 284.684047 
L 102.815366 284.684047 
L 102.815366 284.167425 
L 104.245578 284.167425 
L 104.245578 281.584315 
L 105.569748 281.584315 
L 105.569748 280.680226 
L 106.802521 280.680226 
L 106.802521 279.259516 
L 107.955702 279.259516 
L 107.955702 279.13036 
L 109.03895 279.13036 
L 109.03895 278.613738 
L 110.060263 278.613738 
L 110.060263 277.451339 
L 111.026343 277.451339 
L 111.026343 275.514006 
L 113.64587 275.514006 
L 113.64587 275.384851 
L 114.44014 275.384851 
L 114.44014 274.480762 
L 115.2006 274.480762 
L 115.2006 273.189207 
L 115.930012 273.189207 
L 115.930012 271.639341 
L 116.630812 271.639341 
L 116.630812 268.79792 
L 117.305161 268.79792 
L 117.305161 268.668765 
L 117.954982 268.668765 
L 117.954982 268.410454 
L 118.581998 268.410454 
L 118.581998 267.635521 
L 119.187755 267.635521 
L 119.187755 266.21481 
L 119.773647 266.21481 
L 119.773647 265.956499 
L 120.340936 265.956499 
L 120.340936 264.7941 
L 121.424184 264.7941 
L 121.424184 263.6317 
L 121.942137 263.6317 
L 121.942137 262.598456 
L 123.411577 262.598456 
L 123.411577 261.694367 
L 123.87571 261.694367 
L 123.87571 261.177745 
L 124.328091 261.177745 
L 124.328091 260.790279 
L 124.769302 260.790279 
L 124.769302 259.627879 
L 125.19988 259.627879 
L 125.19988 258.078013 
L 125.620325 258.078013 
L 125.620325 257.044769 
L 126.031105 257.044769 
L 126.031105 256.398992 
L 126.432652 256.398992 
L 126.432652 254.590815 
L 126.825374 254.590815 
L 126.825374 254.074193 
L 127.209649 254.074193 
L 127.209649 252.911793 
L 127.585834 252.911793 
L 127.585834 252.653482 
L 127.954262 252.653482 
L 127.954262 251.749394 
L 128.315246 251.749394 
L 128.315246 250.974461 
L 128.669082 250.974461 
L 128.669082 250.457839 
L 129.016046 250.457839 
L 129.016046 249.424595 
L 129.356402 249.424595 
L 129.356402 248.907973 
L 129.690395 248.907973 
L 129.690395 248.778817 
L 130.018259 248.778817 
L 130.018259 248.262195 
L 130.340216 248.262195 
L 130.340216 246.712329 
L 130.656474 246.712329 
L 130.656474 245.679085 
L 130.967232 245.679085 
L 130.967232 244.129219 
L 131.272677 244.129219 
L 131.272677 242.708508 
L 131.868336 242.708508 
L 131.868336 242.579353 
L 132.158881 242.579353 
L 132.158881 241.80442 
L 132.444777 241.80442 
L 132.444777 241.675264 
L 132.726171 241.675264 
L 132.726171 240.900331 
L 133.276002 240.900331 
L 133.276002 240.254554 
L 133.544701 240.254554 
L 133.544701 239.22131 
L 133.809418 239.22131 
L 133.809418 238.962999 
L 134.070271 238.962999 
L 134.070271 236.509044 
L 134.327371 236.509044 
L 134.327371 236.121578 
L 134.580824 236.121578 
L 134.580824 235.734111 
L 134.830731 235.734111 
L 134.830731 233.409312 
L 135.077192 233.409312 
L 135.077192 233.280157 
L 135.3203 233.280157 
L 135.3203 233.151001 
L 135.560144 233.151001 
L 135.560144 232.89269 
L 135.796811 232.89269 
L 135.796811 232.634379 
L 136.030384 232.634379 
L 136.030384 232.505224 
L 136.260944 232.505224 
L 136.260944 232.246913 
L 136.713325 232.246913 
L 136.713325 231.730291 
L 136.935292 231.730291 
L 136.935292 231.601135 
L 137.154536 231.601135 
L 137.154536 231.342824 
L 137.371122 231.342824 
L 137.371122 230.955358 
L 137.585114 230.955358 
L 137.585114 230.697047 
L 137.796573 230.697047 
L 137.796573 229.922113 
L 138.212129 229.922113 
L 138.212129 228.243092 
L 138.416339 228.243092 
L 138.416339 227.72647 
L 138.61824 227.72647 
L 138.61824 227.468159 
L 138.817886 227.468159 
L 138.817886 227.339003 
L 139.015326 227.339003 
L 139.015326 227.080692 
L 139.210608 227.080692 
L 139.210608 226.56407 
L 139.594883 226.56407 
L 139.594883 226.176604 
L 139.971068 226.176604 
L 139.971068 225.789137 
L 140.156232 225.789137 
L 140.156232 225.659982 
L 140.339496 225.659982 
L 140.339496 225.401671 
L 140.5209 225.401671 
L 140.5209 224.626738 
L 140.70048 224.626738 
L 140.70048 223.98096 
L 140.878274 223.98096 
L 140.878274 223.851805 
L 141.40128 223.851805 
L 141.40128 223.593494 
L 141.909413 223.593494 
L 141.909413 222.947716 
L 142.240313 222.947716 
L 142.240313 222.431094 
L 142.403494 222.431094 
L 142.403494 222.043628 
L 142.565197 222.043628 
L 142.565197 221.39785 
L 142.72545 221.39785 
L 142.72545 221.010384 
L 142.884279 221.010384 
L 142.884279 220.881228 
L 143.041708 220.881228 
L 143.041708 220.493762 
L 143.197763 220.493762 
L 143.197763 220.364606 
L 143.808698 220.364606 
L 143.808698 220.106295 
L 143.958223 220.106295 
L 143.958223 219.073051 
L 144.25357 219.073051 
L 144.25357 218.81474 
L 144.399433 218.81474 
L 144.399433 218.039807 
L 144.687635 218.039807 
L 144.687635 217.781496 
L 144.830011 217.781496 
L 144.830011 216.489941 
L 144.971262 216.489941 
L 144.971262 215.069231 
L 145.111405 215.069231 
L 145.111405 214.681764 
L 145.250457 214.681764 
L 145.250457 214.552609 
L 145.388435 214.552609 
L 145.388435 214.294298 
L 145.525356 214.294298 
L 145.525356 214.035987 
L 146.194652 214.035987 
L 146.194652 211.194565 
L 146.325555 211.194565 
L 146.325555 210.677943 
L 146.584518 210.677943 
L 146.584518 210.419632 
L 146.712605 210.419632 
L 146.712605 209.257233 
L 146.966058 209.257233 
L 146.966058 209.128077 
L 147.091449 209.128077 
L 147.091449 206.415812 
L 147.215966 206.415812 
L 147.215966 206.286656 
L 147.462426 206.286656 
L 147.462426 205.89919 
L 147.584393 205.89919 
L 147.584393 205.770034 
L 147.825858 205.770034 
L 147.825858 205.382568 
L 147.945378 205.382568 
L 147.945378 205.124257 
L 148.064103 205.124257 
L 148.064103 204.865946 
L 148.182045 204.865946 
L 148.182045 203.445235 
L 148.299213 203.445235 
L 148.299213 203.186924 
L 148.415618 203.186924 
L 148.415618 201.507903 
L 148.646178 201.507903 
L 148.646178 201.249592 
L 148.760352 201.249592 
L 148.760352 201.120436 
L 148.986533 201.120436 
L 148.986533 200.862125 
L 149.098559 200.862125 
L 149.098559 199.441415 
L 149.209888 199.441415 
L 149.209888 198.924793 
L 149.53977 198.924793 
L 149.648391 198.14986 
L 149.863672 198.14986 
L 149.970348 196.341683 
L 150.286606 196.341683 
L 150.390793 195.566749 
L 150.494377 195.566749 
L 150.597364 194.920972 
L 150.69976 194.920972 
L 150.801573 190.917151 
L 151.003475 190.917151 
L 151.003475 190.787996 
L 151.20312 190.787996 
L 151.302113 190.013063 
L 151.40056 190.013063 
L 151.498468 188.979819 
L 151.595842 188.979819 
L 151.595842 188.721508 
L 151.789013 188.721508 
L 151.789013 188.204886 
L 151.980117 188.204886 
L 151.980117 187.559108 
L 152.1692 187.559108 
L 152.1692 186.267553 
L 152.356302 186.267553 
L 152.356302 186.138398 
L 152.541466 186.138398 
L 152.633333 184.975998 
L 152.72473 184.975998 
L 152.815662 184.459376 
L 152.99615 184.459376 
L 153.085714 183.813599 
L 153.263508 183.813599 
L 153.263508 181.617955 
L 153.43955 181.617955 
L 153.526925 181.230489 
L 153.786515 181.230489 
L 153.872213 180.843022 
L 153.957503 180.843022 
L 153.957503 180.713867 
L 154.12687 180.713867 
L 154.210955 179.809778 
L 154.377948 179.809778 
L 154.377948 179.551467 
L 154.543395 179.551467 
L 154.543395 179.422312 
L 154.707324 179.422312 
L 154.788728 178.130756 
L 154.950431 178.130756 
L 155.030737 177.872445 
L 155.269513 177.872445 
L 155.269513 176.193424 
L 155.426942 176.193424 
L 155.50514 175.676802 
L 155.582997 175.676802 
L 155.582997 175.031024 
L 155.814552 175.031024 
L 155.891075 173.868625 
L 156.638804 173.868625 
L 156.638804 173.222847 
L 156.784667 173.222847 
L 156.857155 172.964536 
L 157.28601 172.964536 
L 157.28601 172.706225 
L 157.426705 172.706225 
L 157.426705 172.189603 
L 157.5663 172.189603 
L 157.5663 171.931292 
L 157.842261 171.931292 
L 157.91059 171.285515 
L 158.04647 171.285515 
L 158.04647 171.156359 
L 158.248372 171.156359 
L 158.315169 170.510582 
L 158.710789 170.510582 
L 158.710789 169.99396 
L 158.84074 169.99396 
L 158.84074 168.960716 
L 158.969752 168.960716 
L 159.03391 167.669161 
L 159.097839 167.669161 
L 159.097839 167.281694 
L 159.288265 167.281694 
L 159.351292 166.635917 
L 159.53905 166.635917 
L 159.6012 165.990139 
L 159.786363 165.990139 
L 159.84766 164.956895 
L 160.090768 164.956895 
L 160.090768 164.82774 
L 160.330612 164.82774 
L 160.330612 164.569429 
L 160.508405 164.569429 
L 160.508405 164.440273 
L 160.684447 164.440273 
L 160.742745 164.052807 
L 160.97405 164.052807 
L 160.97405 163.794496 
L 161.08859 163.794496 
L 161.08859 163.407029 
L 161.31549 163.407029 
L 161.371767 161.728007 
L 161.427868 161.728007 
L 161.483794 161.211385 
L 161.650527 161.211385 
L 161.760824 160.048986 
L 161.815719 160.048986 
L 161.925004 159.274053 
L 161.979397 159.274053 
L 162.087689 158.757431 
L 162.14159 158.757431 
L 162.248906 158.369964 
L 162.302324 158.369964 
L 162.355582 157.595031 
L 162.619517 157.595031 
L 162.72401 157.078409 
L 162.827894 157.078409 
L 162.931179 156.690943 
L 163.288043 156.690943 
L 163.338447 155.91601 
L 163.43883 155.91601 
L 163.538652 155.528543 
L 163.588354 155.528543 
L 163.637919 154.882766 
L 163.785794 154.882766 
L 163.834815 154.495299 
L 163.932455 154.495299 
L 163.932455 154.236988 
L 164.077923 154.236988 
L 164.077923 153.720366 
L 164.222215 153.720366 
L 164.222215 153.3329 
L 164.365352 153.3329 
L 164.365352 152.816278 
L 164.507351 152.816278 
L 164.601393 152.299656 
L 164.741536 152.299656 
L 164.788007 151.395567 
L 165.018567 151.395567 
L 165.018567 151.266412 
L 165.470948 151.266412 
L 165.560066 150.878945 
L 166.085637 150.878945 
L 166.085637 150.74979 
L 166.300143 150.74979 
L 166.300143 149.716546 
L 166.554196 149.716546 
L 166.596189 148.424991 
L 166.72158 148.424991 
L 166.72158 148.295835 
L 166.928629 148.295835 
L 166.969752 147.520902 
L 167.214525 147.520902 
L 167.295376 147.262591 
L 167.335665 147.262591 
L 167.415972 146.358503 
L 167.45599 146.358503 
L 167.535758 145.712725 
L 167.575509 145.712725 
L 167.654747 145.325259 
L 167.772949 145.325259 
L 167.812177 144.550325 
L 167.890374 144.550325 
L 167.929345 142.742148 
L 168.04575 142.742148 
L 168.122934 141.967215 
L 168.238089 141.967215 
L 168.314449 141.321438 
L 168.42838 141.321438 
L 168.503932 140.417349 
L 168.541589 140.417349 
L 168.579166 140.029883 
L 168.728691 140.029883 
L 168.765878 139.771572 
L 168.840019 139.771572 
L 168.840019 139.642416 
L 168.987386 139.642416 
L 169.024039 139.25495 
L 169.133547 139.25495 
L 169.169902 138.867483 
L 169.314583 138.867483 
L 169.422331 138.221706 
L 169.564992 138.221706 
L 169.635897 137.963395 
L 169.706522 137.963395 
L 169.706522 137.834239 
L 169.84694 137.834239 
L 169.916737 137.446773 
L 170.158903 137.446773 
L 170.261693 136.67184 
L 170.363894 136.67184 
L 170.397831 135.767751 
L 170.700403 135.767751 
L 170.700403 134.863663 
L 170.932245 134.863663 
L 170.965121 134.217885 
L 171.290596 134.217885 
L 171.32282 133.830419 
L 171.451137 133.830419 
L 171.483073 133.184641 
L 171.70504 133.184641 
L 171.70504 132.797175 
L 171.924284 132.797175 
L 171.986434 132.151397 
L 172.048368 132.151397 
L 172.048368 132.022242 
L 172.232894 132.022242 
L 172.232894 131.763931 
L 172.715846 131.763931 
L 172.775307 131.118153 
L 173.069682 131.118153 
L 173.157056 130.730687 
L 173.21507 130.730687 
L 173.21507 130.601531 
L 173.359285 130.601531 
L 173.359285 130.472376 
L 173.473824 130.472376 
L 173.473824 130.084909 
L 174.553714 130.084909 
L 174.553714 129.955754 
L 175.161262 129.955754 
L 175.264845 129.568287 
L 175.923886 129.568287 
L 175.923886 129.439132 
L 176.047884 129.439132 
L 176.047884 129.309976 
L 176.171028 129.309976 
L 176.171028 129.180821 
L 176.36631 129.180821 
L 176.36631 129.051665 
L 176.868996 129.051665 
L 176.939668 128.793354 
L 177.173241 128.793354 
L 177.173241 128.664199 
L 178.275589 128.664199 
L 178.275589 128.018421 
L 178.427659 128.018421 
L 178.427659 127.76011 
L 178.621295 127.76011 
L 178.685377 127.372643 
L 178.812855 127.372643 
L 178.876255 126.339399 
L 179.002383 126.339399 
L 179.106814 125.693622 
L 179.127627 125.693622 
L 179.231331 124.918689 
L 179.313863 124.918689 
L 179.396016 124.0146 
L 179.436951 124.0146 
L 179.51854 123.239667 
L 179.700766 123.239667 
L 179.801206 122.59389 
L 179.881153 122.59389 
L 179.940879 121.818957 
L 180.020205 121.818957 
L 180.020205 121.689801 
L 180.177808 121.689801 
L 180.177808 121.560646 
L 180.469618 121.560646 
L 180.469618 121.044024 
L 180.661544 121.044024 
L 180.661544 120.785713 
L 180.794676 120.785713 
L 180.794676 120.656557 
L 181.020619 120.656557 
L 181.113925 120.269091 
L 181.262209 120.269091 
L 181.262209 120.139935 
L 181.409273 120.139935 
L 181.409273 120.01078 
L 181.627623 120.01078 
L 181.627623 119.881624 
L 181.879038 119.881624 
L 181.985713 119.235847 
L 182.003431 119.235847 
L 182.003431 119.106691 
L 182.301972 119.106691 
L 182.301972 118.84838 
L 182.440754 118.84838 
L 182.509743 118.460914 
L 184.449053 118.460914 
L 184.51072 118.202603 
L 185.381775 118.202603 
L 185.381775 118.073447 
L 185.600304 118.073447 
L 185.600304 117.944292 
L 185.787557 117.944292 
L 185.787557 117.298514 
L 185.901822 117.298514 
L 186.001208 116.523581 
L 186.142236 116.523581 
L 186.198336 116.26527 
L 186.36559 116.26527 
L 186.462436 116.006959 
L 186.517542 116.006959 
L 186.531292 115.361182 
L 186.681848 115.361182 
L 186.681848 115.232026 
L 186.885128 115.232026 
L 186.912058 114.973715 
L 187.019374 114.973715 
L 187.019374 114.586249 
L 187.494478 114.586249 
L 187.494478 114.327938 
L 187.662985 114.327938 
L 187.701647 114.069627 
L 187.855462 114.069627 
L 187.88097 113.553005 
L 187.969961 113.553005 
L 187.969961 113.423849 
L 188.134064 113.423849 
L 188.134064 113.294694 
L 188.284217 113.294694 
L 188.284217 113.165538 
L 190.452351 113.165538 
L 190.452351 112.648916 
L 190.758731 112.648916 
L 190.758731 112.519761 
L 190.920728 112.519761 
L 190.920728 112.390605 
L 191.049276 112.390605 
L 191.091921 112.003139 
L 191.240381 112.003139 
L 191.282572 111.486517 
L 192.176421 111.486517 
L 192.176421 111.357361 
L 193.840217 111.357361 
L 193.840217 111.228206 
L 194.397517 111.228206 
L 194.397517 110.840739 
L 194.617408 110.840739 
L 194.71331 110.453272 
L 194.748056 110.453272 
L 194.774071 110.194961 
L 194.894977 110.194961 
L 194.912183 109.807495 
L 195.066293 109.807495 
L 195.091849 109.161717 
L 195.809339 109.161717 
L 195.809339 109.032562 
L 196.141515 109.032562 
L 196.141515 108.903406 
L 197.163274 108.903406 
L 197.163274 108.774251 
L 197.306734 108.774251 
L 197.306734 108.645095 
L 197.627213 108.645095 
L 197.627213 107.999318 
L 197.92026 107.999318 
L 198.014474 107.611851 
L 198.057791 107.611851 
L 198.158457 107.35354 
L 198.187114 107.35354 
L 198.294174 106.707763 
L 198.750824 106.707763 
L 198.750824 106.578607 
L 198.930266 106.578607 
L 198.930266 106.449452 
L 200.361535 106.449452 
L 200.361535 106.191141 
L 200.694354 106.191141 
L 200.694354 106.061985 
L 200.818353 106.061985 
L 200.86155 105.803674 
L 201.039404 105.803674 
L 201.039404 105.674519 
L 201.503224 105.674519 
L 201.503224 105.416208 
L 202.732429 105.416208 
L 202.732429 105.157897 
L 202.881676 105.157897 
L 202.881676 105.028741 
L 203.024227 105.028741 
L 203.056963 104.641275 
L 203.171067 104.641275 
L 203.171067 104.512119 
L 204.385415 104.512119 
L 204.385415 104.382964 
L 204.825268 104.382964 
L 204.825268 104.124653 
L 205.11422 104.124653 
L 205.21595 103.478875 
L 205.940144 103.478875 
L 205.940144 103.34972 
L 206.698478 103.34972 
L 206.698478 103.091409 
L 206.857818 103.091409 
L 206.95888 102.833098 
L 207.020117 102.833098 
L 207.102891 102.18732 
L 207.506853 102.18732 
L 207.506853 102.058165 
L 208.393811 102.058165 
L 208.393811 101.929009 
L 208.630797 101.929009 
L 208.686573 101.154076 
L 210.045656 101.154076 
L 210.075123 100.76661 
L 210.159571 100.76661 
L 210.221734 100.379143 
L 210.558025 100.379143 
L 210.558025 100.249988 
L 211.366929 100.249988 
L 211.366929 100.120832 
L 211.567792 100.120832 
L 211.638744 99.345899 
L 212.686452 99.345899 
L 212.686452 99.216744 
L 212.800565 99.216744 
L 212.800565 99.087588 
L 212.917093 99.087588 
L 212.939053 98.700122 
L 213.915196 98.700122 
L 214.021748 98.441811 
L 214.139399 98.441811 
L 214.139399 98.312655 
L 216.298924 98.312655 
L 216.353396 98.054344 
L 217.343314 98.054344 
L 217.360459 97.537722 
L 218.12714 97.537722 
L 218.211368 97.150256 
L 218.297525 97.150256 
L 218.341606 96.891945 
L 219.218801 96.891945 
L 219.218801 96.762789 
L 219.911198 96.762789 
L 219.911198 96.633634 
L 220.035981 96.633634 
L 220.035981 96.504478 
L 221.079761 96.504478 
L 221.079761 96.375323 
L 221.533186 96.375323 
L 221.533186 96.246167 
L 221.857773 96.246167 
L 221.897697 95.987856 
L 222.427203 95.987856 
L 222.427203 95.858701 
L 222.862477 95.858701 
L 222.862477 95.729545 
L 223.162219 95.729545 
L 223.162219 95.60039 
L 223.348787 95.60039 
L 223.348787 95.342079 
L 224.512908 95.342079 
L 224.524388 94.825457 
L 224.703821 94.825457 
L 224.703821 94.696301 
L 225.168412 94.696301 
L 225.168412 94.567146 
L 225.667423 94.567146 
L 225.667423 94.43799 
L 225.951195 94.43799 
L 225.951195 94.308835 
L 226.380404 94.308835 
L 226.380404 94.179679 
L 226.941874 94.179679 
L 226.96191 93.921368 
L 229.598204 93.921368 
L 229.598204 93.792213 
L 230.08517 93.792213 
L 230.08517 93.663057 
L 230.216792 93.663057 
L 230.216792 93.533901 
L 230.707133 93.533901 
L 230.707133 93.404746 
L 231.044928 93.404746 
L 231.044928 93.27559 
L 231.436684 93.27559 
L 231.436684 93.146435 
L 232.047451 93.146435 
L 232.047451 93.017279 
L 232.276259 93.017279 
L 232.276259 92.888124 
L 232.757354 92.888124 
L 232.757354 92.758968 
L 233.187514 92.758968 
L 233.187514 92.629813 
L 234.443625 92.629813 
L 234.443625 92.500657 
L 234.733912 92.500657 
L 234.733912 92.371502 
L 235.453433 92.371502 
L 235.553644 92.113191 
L 236.478205 92.113191 
L 236.478205 91.984035 
L 236.785415 91.984035 
L 236.785415 91.85488 
L 237.859386 91.85488 
L 237.859386 91.725724 
L 242.144997 91.725724 
L 242.144997 91.596569 
L 358.8 91.596569 
L 358.8 91.596569 
" style="fill:none;stroke:#ff00ff;stroke-linecap:square;stroke-width:1.5;"/>
   </g>
   <g id="line2d_48">
    <defs>
     <path d="M -0 8.485281 
L 5.091169 0 
L 0 -8.485281 
L -5.091169 -0 
z
" id="m1b126404a0" style="stroke:#ff00ff;stroke-linejoin:miter;stroke-width:1.5;"/>
    </defs>
    <g>
     <use style="fill:none;stroke:#ff00ff;stroke-linejoin:miter;stroke-width:1.5;" x="117.305161" xlink:href="#m1b126404a0" y="268.668765"/>
     <use style="fill:none;stroke:#ff00ff;stroke-linejoin:miter;stroke-width:1.5;" x="154.210955" xlink:href="#m1b126404a0" y="180.197245"/>
     <use style="fill:none;stroke:#ff00ff;stroke-linejoin:miter;stroke-width:1.5;" x="191.282572" xlink:href="#m1b126404a0" y="111.486517"/>
     <use style="fill:none;stroke:#ff00ff;stroke-linejoin:miter;stroke-width:1.5;" x="242.144997" xlink:href="#m1b126404a0" y="91.596569"/>
     <use style="fill:none;stroke:#ff00ff;stroke-linejoin:miter;stroke-width:1.5;" x="242.144997" xlink:href="#m1b126404a0" y="91.596569"/>
     <use style="fill:none;stroke:#ff00ff;stroke-linejoin:miter;stroke-width:1.5;" x="358.8" xlink:href="#m1b126404a0" y="91.596569"/>
    </g>
   </g>
   <g id="line2d_49"/>
   <g id="line2d_50">
    <path clip-path="url(#p447a79dfb2)" d="M 165.470948 151.137256 
" style="fill:none;stroke:#ff00ff;stroke-linecap:square;stroke-width:1.5;"/>
    <defs>
     <path d="M -12 12 
L 12 -12 
M -12 -12 
L 12 12 
" id="m1d74d02691" style="stroke:#ff00ff;stroke-width:3;"/>
    </defs>
    <g clip-path="url(#p447a79dfb2)">
     <use style="fill:#ff00ff;stroke:#ff00ff;stroke-width:3;" x="165.470948" xlink:href="#m1d74d02691" y="151.137256"/>
    </g>
   </g>
   <g id="line2d_51">
    <path d="M 358.8 91.596569 
L 390.48 292.97583 
" style="fill:none;stroke:#ff00ff;stroke-linecap:square;stroke-width:1.5;"/>
    <g>
     <use style="fill:none;stroke:#ff00ff;stroke-linejoin:miter;stroke-width:1.5;" x="358.8" xlink:href="#m1b126404a0" y="91.596569"/>
     <use style="fill:none;stroke:#ff00ff;stroke-linejoin:miter;stroke-width:1.5;" x="390.48" xlink:href="#m1b126404a0" y="292.97583"/>
    </g>
   </g>
   <g id="line2d_52">
    <path d="M 358.8 298.245375 
L 358.8 34.768147 
" style="fill:none;stroke:#000000;stroke-linecap:square;stroke-width:1.5;"/>
   </g>
   <g id="patch_3">
    <path d="M 70.8 298.245375 
L 70.8 32.133375 
" style="fill:none;stroke:#000000;stroke-linecap:square;stroke-linejoin:miter;stroke-width:0.8;"/>
   </g>
   <g id="patch_4">
    <path d="M 427.92 298.245375 
L 427.92 32.133375 
" style="fill:none;stroke:#000000;stroke-linecap:square;stroke-linejoin:miter;stroke-width:0.8;"/>
   </g>
   <g id="patch_5">
    <path d="M 70.8 298.245375 
L 427.92 298.245375 
" style="fill:none;stroke:#000000;stroke-linecap:square;stroke-linejoin:miter;stroke-width:0.8;"/>
   </g>
   <g id="patch_6">
    <path d="M 70.8 32.133375 
L 427.92 32.133375 
" style="fill:none;stroke:#000000;stroke-linecap:square;stroke-linejoin:miter;stroke-width:0.8;"/>
   </g>
   <g id="text_14">
    <!-- deapbbob -->
    <defs>
     <path d="M 48.6875 27.296875 
Q 48.6875 37.203125 44.609375 42.84375 
Q 40.53125 48.484375 33.40625 48.484375 
Q 26.265625 48.484375 22.1875 42.84375 
Q 18.109375 37.203125 18.109375 27.296875 
Q 18.109375 17.390625 22.1875 11.75 
Q 26.265625 6.109375 33.40625 6.109375 
Q 40.53125 6.109375 44.609375 11.75 
Q 48.6875 17.390625 48.6875 27.296875 
M 18.109375 46.390625 
Q 20.953125 51.265625 25.265625 53.625 
Q 29.59375 56 35.59375 56 
Q 45.5625 56 51.78125 48.09375 
Q 58.015625 40.1875 58.015625 27.296875 
Q 58.015625 14.40625 51.78125 6.484375 
Q 45.5625 -1.421875 35.59375 -1.421875 
Q 29.59375 -1.421875 25.265625 0.953125 
Q 20.953125 3.328125 18.109375 8.203125 
L 18.109375 0 
L 9.078125 0 
L 9.078125 75.984375 
L 18.109375 75.984375 
z
" id="DejaVuSans-62"/>
    </defs>
    <g transform="translate(396.24 297.114893)scale(0.15 -0.15)">
     <use xlink:href="#DejaVuSans-64"/>
     <use x="63.476562" xlink:href="#DejaVuSans-65"/>
     <use x="125" xlink:href="#DejaVuSans-61"/>
     <use x="186.279297" xlink:href="#DejaVuSans-70"/>
     <use x="249.755859" xlink:href="#DejaVuSans-62"/>
     <use x="313.232422" xlink:href="#DejaVuSans-62"/>
     <use x="376.708984" xlink:href="#DejaVuSans-6f"/>
     <use x="437.890625" xlink:href="#DejaVuSans-62"/>
    </g>
   </g>
   <g id="text_15">
    <!-- best 2009 -->
    <defs>
     <path d="M 10.984375 1.515625 
L 10.984375 10.5 
Q 14.703125 8.734375 18.5 7.8125 
Q 22.3125 6.890625 25.984375 6.890625 
Q 35.75 6.890625 40.890625 13.453125 
Q 46.046875 20.015625 46.78125 33.40625 
Q 43.953125 29.203125 39.59375 26.953125 
Q 35.25 24.703125 29.984375 24.703125 
Q 19.046875 24.703125 12.671875 31.3125 
Q 6.296875 37.9375 6.296875 49.421875 
Q 6.296875 60.640625 12.9375 67.421875 
Q 19.578125 74.21875 30.609375 74.21875 
Q 43.265625 74.21875 49.921875 64.515625 
Q 56.59375 54.828125 56.59375 36.375 
Q 56.59375 19.140625 48.40625 8.859375 
Q 40.234375 -1.421875 26.421875 -1.421875 
Q 22.703125 -1.421875 18.890625 -0.6875 
Q 15.09375 0.046875 10.984375 1.515625 
M 30.609375 32.421875 
Q 37.25 32.421875 41.125 36.953125 
Q 45.015625 41.5 45.015625 49.421875 
Q 45.015625 57.28125 41.125 61.84375 
Q 37.25 66.40625 30.609375 66.40625 
Q 23.96875 66.40625 20.09375 61.84375 
Q 16.21875 57.28125 16.21875 49.421875 
Q 16.21875 41.5 20.09375 36.953125 
Q 23.96875 32.421875 30.609375 32.421875 
" id="DejaVuSans-39"/>
    </defs>
    <g transform="translate(396.24 44.176754)scale(0.15 -0.15)">
     <use xlink:href="#DejaVuSans-62"/>
     <use x="63.476562" xlink:href="#DejaVuSans-65"/>
     <use x="125" xlink:href="#DejaVuSans-73"/>
     <use x="177.099609" xlink:href="#DejaVuSans-74"/>
     <use x="216.308594" xlink:href="#DejaVuSans-20"/>
     <use x="248.095703" xlink:href="#DejaVuSans-32"/>
     <use x="311.71875" xlink:href="#DejaVuSans-30"/>
     <use x="375.341797" xlink:href="#DejaVuSans-30"/>
     <use x="438.964844" xlink:href="#DejaVuSans-39"/>
    </g>
   </g>
   <g id="text_16">
    <!-- bbob - f6-f9, 2-D -->
    <defs>
     <path d="M 11.71875 12.40625 
L 22.015625 12.40625 
L 22.015625 4 
L 14.015625 -11.625 
L 7.71875 -11.625 
L 11.71875 4 
z
" id="DejaVuSans-2c"/>
     <path d="M 19.671875 64.796875 
L 19.671875 8.109375 
L 31.59375 8.109375 
Q 46.6875 8.109375 53.6875 14.9375 
Q 60.6875 21.78125 60.6875 36.53125 
Q 60.6875 51.171875 53.6875 57.984375 
Q 46.6875 64.796875 31.59375 64.796875 
z
M 9.8125 72.90625 
L 30.078125 72.90625 
Q 51.265625 72.90625 61.171875 64.09375 
Q 71.09375 55.28125 71.09375 36.53125 
Q 71.09375 17.671875 61.125 8.828125 
Q 51.171875 0 30.078125 0 
L 9.8125 0 
z
" id="DejaVuSans-44"/>
    </defs>
    <g transform="translate(74.3712 50.114612)scale(0.1666 -0.1666)">
     <use xlink:href="#DejaVuSans-62"/>
     <use x="63.476562" xlink:href="#DejaVuSans-62"/>
     <use x="126.953125" xlink:href="#DejaVuSans-6f"/>
     <use x="188.134766" xlink:href="#DejaVuSans-62"/>
     <use x="251.611328" xlink:href="#DejaVuSans-20"/>
     <use x="283.398438" xlink:href="#DejaVuSans-2d"/>
     <use x="319.482422" xlink:href="#DejaVuSans-20"/>
     <use x="351.269531" xlink:href="#DejaVuSans-66"/>
     <use x="386.474609" xlink:href="#DejaVuSans-36"/>
     <use x="450.097656" xlink:href="#DejaVuSans-2d"/>
     <use x="486.181641" xlink:href="#DejaVuSans-66"/>
     <use x="521.386719" xlink:href="#DejaVuSans-39"/>
     <use x="585.009766" xlink:href="#DejaVuSans-2c"/>
     <use x="616.796875" xlink:href="#DejaVuSans-20"/>
     <use x="648.583984" xlink:href="#DejaVuSans-32"/>
     <use x="712.207031" xlink:href="#DejaVuSans-2d"/>
     <use x="748.291016" xlink:href="#DejaVuSans-44"/>
    </g>
    <!-- 51 targets in 100..1e-08 -->
    <defs>
     <path d="M 10.796875 72.90625 
L 49.515625 72.90625 
L 49.515625 64.59375 
L 19.828125 64.59375 
L 19.828125 46.734375 
Q 21.96875 47.46875 24.109375 47.828125 
Q 26.265625 48.1875 28.421875 48.1875 
Q 40.625 48.1875 47.75 41.5 
Q 54.890625 34.8125 54.890625 23.390625 
Q 54.890625 11.625 47.5625 5.09375 
Q 40.234375 -1.421875 26.90625 -1.421875 
Q 22.3125 -1.421875 17.546875 -0.640625 
Q 12.796875 0.140625 7.71875 1.703125 
L 7.71875 11.625 
Q 12.109375 9.234375 16.796875 8.0625 
Q 21.484375 6.890625 26.703125 6.890625 
Q 35.15625 6.890625 40.078125 11.328125 
Q 45.015625 15.765625 45.015625 23.390625 
Q 45.015625 31 40.078125 35.4375 
Q 35.15625 39.890625 26.703125 39.890625 
Q 22.75 39.890625 18.8125 39.015625 
Q 14.890625 38.140625 10.796875 36.28125 
z
" id="DejaVuSans-35"/>
    </defs>
    <g transform="translate(74.3712 68.770168)scale(0.1666 -0.1666)">
     <use xlink:href="#DejaVuSans-35"/>
     <use x="63.623047" xlink:href="#DejaVuSans-31"/>
     <use x="127.246094" xlink:href="#DejaVuSans-20"/>
     <use x="159.033203" xlink:href="#DejaVuSans-74"/>
     <use x="198.242188" xlink:href="#DejaVuSans-61"/>
     <use x="259.521484" xlink:href="#DejaVuSans-72"/>
     <use x="300.619141" xlink:href="#DejaVuSans-67"/>
     <use x="364.095703" xlink:href="#DejaVuSans-65"/>
     <use x="425.619141" xlink:href="#DejaVuSans-74"/>
     <use x="464.828125" xlink:href="#DejaVuSans-73"/>
     <use x="516.927734" xlink:href="#DejaVuSans-20"/>
     <use x="548.714844" xlink:href="#DejaVuSans-69"/>
     <use x="576.498047" xlink:href="#DejaVuSans-6e"/>
     <use x="639.876953" xlink:href="#DejaVuSans-20"/>
     <use x="671.664062" xlink:href="#DejaVuSans-31"/>
     <use x="735.287109" xlink:href="#DejaVuSans-30"/>
     <use x="798.910156" xlink:href="#DejaVuSans-30"/>
     <use x="862.533203" xlink:href="#DejaVuSans-2e"/>
     <use x="894.320312" xlink:href="#DejaVuSans-2e"/>
     <use x="926.107422" xlink:href="#DejaVuSans-31"/>
     <use x="989.730469" xlink:href="#DejaVuSans-65"/>
     <use x="1051.253906" xlink:href="#DejaVuSans-2d"/>
     <use x="1087.337891" xlink:href="#DejaVuSans-30"/>
     <use x="1150.960938" xlink:href="#DejaVuSans-38"/>
    </g>
    <!-- 15 instances -->
    <g transform="translate(74.3712 87.425723)scale(0.1666 -0.1666)">
     <use xlink:href="#DejaVuSans-31"/>
     <use x="63.623047" xlink:href="#DejaVuSans-35"/>
     <use x="127.246094" xlink:href="#DejaVuSans-20"/>
     <use x="159.033203" xlink:href="#DejaVuSans-69"/>
     <use x="186.816406" xlink:href="#DejaVuSans-6e"/>
     <use x="250.195312" xlink:href="#DejaVuSans-73"/>
     <use x="302.294922" xlink:href="#DejaVuSans-74"/>
     <use x="341.503906" xlink:href="#DejaVuSans-61"/>
     <use x="402.783203" xlink:href="#DejaVuSans-6e"/>
     <use x="466.162109" xlink:href="#DejaVuSans-63"/>
     <use x="521.142578" xlink:href="#DejaVuSans-65"/>
     <use x="582.666016" xlink:href="#DejaVuSans-73"/>
    </g>
   </g>
   <g id="text_17">
    <!-- v2.1 -->
    <g style="fill:#808080;" transform="translate(238.449063 293.504568)scale(0.1 -0.1)">
     <use xlink:href="#DejaVuSans-76"/>
     <use x="59.179688" xlink:href="#DejaVuSans-32"/>
     <use x="122.802734" xlink:href="#DejaVuSans-2e"/>
     <use x="154.589844" xlink:href="#DejaVuSans-31"/>
    </g>
   </g>
  </g>
 </g>
 <defs>
  <clipPath id="p447a79dfb2">
   <rect height="266.112" width="357.12" x="70.8" y="32.133375"/>
  </clipPath>
 </defs>
</svg>
