<?xml version="1.0" encoding="utf-8" standalone="no"?>
<!DOCTYPE svg PUBLIC "-//W3C//DTD SVG 1.1//EN"
  "http://www.w3.org/Graphics/SVG/1.1/DTD/svg11.dtd">
<!-- Created with matplotlib (http://matplotlib.org/) -->
<svg height="353pt" version="1.1" viewBox="0 0 478 353" width="478pt" xmlns="http://www.w3.org/2000/svg" xmlns:xlink="http://www.w3.org/1999/xlink">
 <defs>
  <style type="text/css">
*{stroke-linecap:butt;stroke-linejoin:round;}
  </style>
 </defs>
 <g id="figure_1">
  <g id="patch_1">
   <path d="M 0 353.22225 
L 478.829063 353.22225 
L 478.829063 0 
L 0 0 
z
" style="fill:#ffffff;"/>
  </g>
  <g id="axes_1">
   <g id="patch_2">
    <path d="M 70.8 298.245375 
L 427.92 298.245375 
L 427.92 32.133375 
L 70.8 32.133375 
z
" style="fill:#ffffff;"/>
   </g>
   <g id="line2d_1">
    <path d="M 42.042377 298.245375 
L 42.042377 294.37071 
L 74.057743 294.37071 
L 74.057743 293.079155 
L 84.888247 293.079155 
L 84.888247 291.7876 
L 90.430132 291.7876 
L 90.430132 290.496045 
L 91.583313 290.496045 
L 91.583313 289.20449 
L 95.570468 289.20449 
L 95.570468 286.62138 
L 98.828211 286.62138 
L 98.828211 284.03827 
L 99.557623 284.03827 
L 99.557623 282.746715 
L 100.258423 282.746715 
L 100.258423 280.163604 
L 105.569748 280.163604 
L 105.569748 277.580494 
L 109.658716 277.580494 
L 109.658716 276.288939 
L 111.213445 276.288939 
L 111.213445 274.997384 
L 113.318006 274.997384 
L 113.318006 271.122719 
L 115.2006 271.122719 
L 115.2006 269.831164 
L 115.786492 269.831164 
L 115.786492 268.539609 
L 116.353782 268.539609 
L 116.353782 267.248054 
L 117.697882 267.248054 
L 117.697882 265.956499 
L 118.208435 265.956499 
L 118.208435 264.664944 
L 118.458343 264.664944 
L 118.458343 263.373389 
L 118.704803 263.373389 
L 118.704803 262.081834 
L 120.562903 262.081834 
L 120.562903 260.790279 
L 125.537024 260.790279 
L 125.537024 259.498724 
L 126.669319 259.498724 
L 126.669319 258.207169 
L 128.598873 258.207169 
L 128.598873 256.915614 
L 129.423702 256.915614 
L 129.423702 255.624059 
L 129.690395 255.624059 
L 129.690395 254.332504 
L 131.453469 254.332504 
L 131.453469 253.040949 
L 133.167381 253.040949 
L 133.167381 251.749394 
L 133.597959 251.749394 
L 133.597959 250.457839 
L 134.731187 250.457839 
L 134.731187 249.166284 
L 135.3203 249.166284 
L 135.3203 247.874729 
L 136.076735 247.874729 
L 136.076735 246.583173 
L 136.533745 246.583173 
L 136.533745 245.291618 
L 136.713325 245.291618 
L 136.713325 244.000063 
L 137.585114 244.000063 
L 137.585114 242.708508 
L 137.922258 242.708508 
L 137.922258 240.125398 
L 138.658348 240.125398 
L 138.658348 238.833843 
L 138.897124 238.833843 
L 138.897124 237.542288 
L 139.594883 237.542288 
L 139.670757 234.959178 
L 139.896462 234.959178 
L 139.896462 232.376068 
L 140.984107 232.376068 
L 140.984107 231.084513 
L 141.12425 231.084513 
L 141.12425 229.792958 
L 141.263302 229.792958 
L 141.263302 228.501403 
L 141.606271 228.501403 
L 141.606271 225.918293 
L 142.141685 225.918293 
L 142.141685 224.626738 
L 142.273069 224.626738 
L 142.273069 223.335183 
L 142.532973 223.335183 
L 142.532973 220.752073 
L 142.789151 220.752073 
L 142.789151 219.460518 
L 143.290745 219.460518 
L 143.290745 218.168963 
L 143.536359 218.168963 
L 143.536359 216.877408 
L 143.958223 216.877408 
L 143.958223 215.585853 
L 144.19489 215.585853 
L 144.19489 213.002743 
L 144.312059 213.002743 
L 144.312059 211.711187 
L 144.830011 211.711187 
L 144.830011 210.419632 
L 145.167155 210.419632 
L 145.278138 205.253412 
L 145.333372 205.253412 
L 145.388435 198.795637 
L 145.498056 198.795637 
L 145.607008 196.212527 
L 145.929935 196.212527 
L 145.983193 193.629417 
L 146.089235 193.629417 
L 146.194652 189.754752 
L 146.403639 189.754752 
L 146.455505 185.880087 
L 146.915654 185.880087 
L 147.01632 180.713867 
L 147.215966 180.713867 
L 147.26553 178.130756 
L 147.462426 178.130756 
L 147.511313 175.547646 
L 147.657176 175.547646 
L 147.657176 174.256091 
L 147.801858 174.256091 
L 147.849826 166.506761 
L 147.992963 166.506761 
L 148.040421 163.923651 
L 148.229005 163.923651 
L 148.229005 161.340541 
L 148.415618 161.340541 
L 148.415618 160.048986 
L 148.646178 160.048986 
L 148.691935 157.465876 
L 148.828507 157.465876 
L 148.918979 154.882766 
L 149.008995 154.882766 
L 149.053833 152.299656 
L 149.143174 152.299656 
L 149.143174 151.008101 
L 149.276353 151.008101 
L 149.320526 148.424991 
L 149.452395 148.424991 
L 149.53977 143.25877 
L 149.62672 143.25877 
L 149.713248 139.384105 
L 149.756356 139.384105 
L 149.84226 135.50944 
L 149.885058 135.50944 
L 149.970348 131.634775 
L 150.01284 131.634775 
L 150.097524 127.76011 
L 150.139715 127.76011 
L 150.139715 122.59389 
L 150.963276 122.59389 
L 150.963276 121.302335 
L 152.281696 121.302335 
L 152.281696 120.01078 
L 153.192603 120.01078 
L 153.192603 118.719225 
L 154.19417 118.719225 
L 154.19417 117.42767 
L 155.7377 117.42767 
L 155.7377 116.136115 
L 156.813698 116.136115 
L 156.813698 114.84456 
L 157.828564 114.84456 
L 157.828564 113.553005 
L 158.788873 113.553005 
L 158.788873 112.26145 
L 159.250342 112.26145 
L 159.250342 110.969895 
L 160.23506 110.969895 
L 160.23506 109.678339 
L 161.595122 109.678339 
L 161.595122 108.386784 
L 163.2071 108.386784 
L 163.2071 107.095229 
L 164.722914 107.095229 
L 164.722914 105.803674 
L 165.435176 105.803674 
L 165.435176 104.512119 
L 166.137354 104.512119 
L 166.137354 103.220564 
L 166.257447 103.220564 
L 166.257447 101.929009 
L 166.729908 101.929009 
L 166.829545 99.345899 
L 167.222627 99.345899 
L 167.222627 98.054344 
L 167.686344 98.054344 
L 167.686344 96.762789 
L 168.122934 96.762789 
L 168.122934 95.471234 
L 168.291575 95.471234 
L 168.306827 92.888124 
L 168.669031 92.888124 
L 168.669031 91.596569 
L 168.832619 91.596569 
L 168.832619 90.305014 
L 169.082527 90.305014 
L 169.082527 89.013459 
L 169.386487 89.013459 
L 169.386487 87.721904 
L 169.699472 87.721904 
L 169.769847 85.138794 
L 170.131393 85.138794 
L 170.131393 83.847239 
L 170.593408 83.847239 
L 170.593408 82.555684 
L 170.886116 82.555684 
L 170.886116 81.264129 
L 171.056853 81.264129 
L 171.056853 79.972574 
L 171.354986 79.972574 
L 171.354986 78.681019 
L 171.723938 78.681019 
L 171.723938 77.389464 
L 172.085426 77.389464 
L 172.122408 74.806353 
L 172.415534 74.806353 
L 172.415534 73.514798 
L 173.151245 73.514798 
L 173.151245 72.223243 
L 173.450975 72.223243 
L 173.553567 46.392143 
L 173.576286 46.392143 
L 173.576286 45.100588 
L 173.700724 45.100588 
L 173.74576 42.517478 
L 173.835494 42.517478 
L 173.835494 41.225922 
L 174.211911 41.225922 
L 174.211911 39.934367 
L 174.772695 39.934367 
L 174.772695 38.642812 
L 174.952275 38.642812 
L 174.952275 37.351257 
L 175.07796 37.351257 
L 175.07796 36.059702 
L 175.347282 36.059702 
L 175.347282 34.768147 
L 358.8 34.768147 
L 358.8 34.768147 
" style="fill:none;stroke:#f5deb3;stroke-linecap:square;stroke-width:6;"/>
   </g>
   <g id="line2d_2"/>
   <g id="line2d_3">
    <path d="M 358.8 34.768147 
L 390.48 40.037692 
" style="fill:none;stroke:#f5deb3;stroke-linecap:square;stroke-width:6;"/>
    <defs>
     <path d="M -0 7.778175 
L 7.778175 0 
L 0 -7.778175 
L -7.778175 -0 
z
" id="mcb6791496d" style="stroke:#f5deb3;stroke-linejoin:miter;stroke-width:1.5;"/>
    </defs>
    <g>
     <use style="fill:#f5deb3;stroke:#f5deb3;stroke-linejoin:miter;stroke-width:1.5;" x="358.8" xlink:href="#mcb6791496d" y="34.768147"/>
     <use style="fill:#f5deb3;stroke:#f5deb3;stroke-linejoin:miter;stroke-width:1.5;" x="390.48" xlink:href="#mcb6791496d" y="40.037692"/>
    </g>
   </g>
   <g id="matplotlib.axis_1">
    <g id="xtick_1">
     <g id="line2d_4">
      <path clip-path="url(#pb015ecbf3f)" d="M 70.8 298.245375 
L 70.8 32.133375 
" style="fill:none;stroke:#b0b0b0;stroke-linecap:square;stroke-width:0.8;"/>
     </g>
     <g id="line2d_5">
      <defs>
       <path d="M 0 0 
L 0 3.5 
" id="m142cda812f" style="stroke:#000000;stroke-width:0.8;"/>
      </defs>
      <g>
       <use style="stroke:#000000;stroke-width:0.8;" x="70.8" xlink:href="#m142cda812f" y="298.245375"/>
      </g>
     </g>
     <g id="text_1">
      <!-- 0 -->
      <defs>
       <path d="M 31.78125 66.40625 
Q 24.171875 66.40625 20.328125 58.90625 
Q 16.5 51.421875 16.5 36.375 
Q 16.5 21.390625 20.328125 13.890625 
Q 24.171875 6.390625 31.78125 6.390625 
Q 39.453125 6.390625 43.28125 13.890625 
Q 47.125 21.390625 47.125 36.375 
Q 47.125 51.421875 43.28125 58.90625 
Q 39.453125 66.40625 31.78125 66.40625 
M 31.78125 74.21875 
Q 44.046875 74.21875 50.515625 64.515625 
Q 56.984375 54.828125 56.984375 36.375 
Q 56.984375 17.96875 50.515625 8.265625 
Q 44.046875 -1.421875 31.78125 -1.421875 
Q 19.53125 -1.421875 13.0625 8.265625 
Q 6.59375 17.96875 6.59375 36.375 
Q 6.59375 54.828125 13.0625 64.515625 
Q 19.53125 74.21875 31.78125 74.21875 
" id="DejaVuSans-30"/>
      </defs>
      <g transform="translate(64.4375 320.44225)scale(0.2 -0.2)">
       <use xlink:href="#DejaVuSans-30"/>
      </g>
     </g>
    </g>
    <g id="xtick_2">
     <g id="line2d_6">
      <path clip-path="url(#pb015ecbf3f)" d="M 153.085714 298.245375 
L 153.085714 32.133375 
" style="fill:none;stroke:#b0b0b0;stroke-linecap:square;stroke-width:0.8;"/>
     </g>
     <g id="line2d_7">
      <g>
       <use style="stroke:#000000;stroke-width:0.8;" x="153.085714" xlink:href="#m142cda812f" y="298.245375"/>
      </g>
     </g>
     <g id="text_2">
      <!-- 2 -->
      <defs>
       <path d="M 19.1875 8.296875 
L 53.609375 8.296875 
L 53.609375 0 
L 7.328125 0 
L 7.328125 8.296875 
Q 12.9375 14.109375 22.625 23.890625 
Q 32.328125 33.6875 34.8125 36.53125 
Q 39.546875 41.84375 41.421875 45.53125 
Q 43.3125 49.21875 43.3125 52.78125 
Q 43.3125 58.59375 39.234375 62.25 
Q 35.15625 65.921875 28.609375 65.921875 
Q 23.96875 65.921875 18.8125 64.3125 
Q 13.671875 62.703125 7.8125 59.421875 
L 7.8125 69.390625 
Q 13.765625 71.78125 18.9375 73 
Q 24.125 74.21875 28.421875 74.21875 
Q 39.75 74.21875 46.484375 68.546875 
Q 53.21875 62.890625 53.21875 53.421875 
Q 53.21875 48.921875 51.53125 44.890625 
Q 49.859375 40.875 45.40625 35.40625 
Q 44.1875 33.984375 37.640625 27.21875 
Q 31.109375 20.453125 19.1875 8.296875 
" id="DejaVuSans-32"/>
      </defs>
      <g transform="translate(146.723214 320.44225)scale(0.2 -0.2)">
       <use xlink:href="#DejaVuSans-32"/>
      </g>
     </g>
    </g>
    <g id="xtick_3">
     <g id="line2d_8">
      <path clip-path="url(#pb015ecbf3f)" d="M 235.371429 298.245375 
L 235.371429 32.133375 
" style="fill:none;stroke:#b0b0b0;stroke-linecap:square;stroke-width:0.8;"/>
     </g>
     <g id="line2d_9">
      <g>
       <use style="stroke:#000000;stroke-width:0.8;" x="235.371429" xlink:href="#m142cda812f" y="298.245375"/>
      </g>
     </g>
     <g id="text_3">
      <!-- 4 -->
      <defs>
       <path d="M 37.796875 64.3125 
L 12.890625 25.390625 
L 37.796875 25.390625 
z
M 35.203125 72.90625 
L 47.609375 72.90625 
L 47.609375 25.390625 
L 58.015625 25.390625 
L 58.015625 17.1875 
L 47.609375 17.1875 
L 47.609375 0 
L 37.796875 0 
L 37.796875 17.1875 
L 4.890625 17.1875 
L 4.890625 26.703125 
z
" id="DejaVuSans-34"/>
      </defs>
      <g transform="translate(229.008929 320.44225)scale(0.2 -0.2)">
       <use xlink:href="#DejaVuSans-34"/>
      </g>
     </g>
    </g>
    <g id="xtick_4">
     <g id="line2d_10">
      <path clip-path="url(#pb015ecbf3f)" d="M 317.657143 298.245375 
L 317.657143 32.133375 
" style="fill:none;stroke:#b0b0b0;stroke-linecap:square;stroke-width:0.8;"/>
     </g>
     <g id="line2d_11">
      <g>
       <use style="stroke:#000000;stroke-width:0.8;" x="317.657143" xlink:href="#m142cda812f" y="298.245375"/>
      </g>
     </g>
     <g id="text_4">
      <!-- 6 -->
      <defs>
       <path d="M 33.015625 40.375 
Q 26.375 40.375 22.484375 35.828125 
Q 18.609375 31.296875 18.609375 23.390625 
Q 18.609375 15.53125 22.484375 10.953125 
Q 26.375 6.390625 33.015625 6.390625 
Q 39.65625 6.390625 43.53125 10.953125 
Q 47.40625 15.53125 47.40625 23.390625 
Q 47.40625 31.296875 43.53125 35.828125 
Q 39.65625 40.375 33.015625 40.375 
M 52.59375 71.296875 
L 52.59375 62.3125 
Q 48.875 64.0625 45.09375 64.984375 
Q 41.3125 65.921875 37.59375 65.921875 
Q 27.828125 65.921875 22.671875 59.328125 
Q 17.53125 52.734375 16.796875 39.40625 
Q 19.671875 43.65625 24.015625 45.921875 
Q 28.375 48.1875 33.59375 48.1875 
Q 44.578125 48.1875 50.953125 41.515625 
Q 57.328125 34.859375 57.328125 23.390625 
Q 57.328125 12.15625 50.6875 5.359375 
Q 44.046875 -1.421875 33.015625 -1.421875 
Q 20.359375 -1.421875 13.671875 8.265625 
Q 6.984375 17.96875 6.984375 36.375 
Q 6.984375 53.65625 15.1875 63.9375 
Q 23.390625 74.21875 37.203125 74.21875 
Q 40.921875 74.21875 44.703125 73.484375 
Q 48.484375 72.75 52.59375 71.296875 
" id="DejaVuSans-36"/>
      </defs>
      <g transform="translate(311.294643 320.44225)scale(0.2 -0.2)">
       <use xlink:href="#DejaVuSans-36"/>
      </g>
     </g>
    </g>
    <g id="xtick_5">
     <g id="line2d_12">
      <path clip-path="url(#pb015ecbf3f)" d="M 399.942857 298.245375 
L 399.942857 32.133375 
" style="fill:none;stroke:#b0b0b0;stroke-linecap:square;stroke-width:0.8;"/>
     </g>
     <g id="line2d_13">
      <g>
       <use style="stroke:#000000;stroke-width:0.8;" x="399.942857" xlink:href="#m142cda812f" y="298.245375"/>
      </g>
     </g>
     <g id="text_5">
      <!-- 8 -->
      <defs>
       <path d="M 31.78125 34.625 
Q 24.75 34.625 20.71875 30.859375 
Q 16.703125 27.09375 16.703125 20.515625 
Q 16.703125 13.921875 20.71875 10.15625 
Q 24.75 6.390625 31.78125 6.390625 
Q 38.8125 6.390625 42.859375 10.171875 
Q 46.921875 13.96875 46.921875 20.515625 
Q 46.921875 27.09375 42.890625 30.859375 
Q 38.875 34.625 31.78125 34.625 
M 21.921875 38.8125 
Q 15.578125 40.375 12.03125 44.71875 
Q 8.5 49.078125 8.5 55.328125 
Q 8.5 64.0625 14.71875 69.140625 
Q 20.953125 74.21875 31.78125 74.21875 
Q 42.671875 74.21875 48.875 69.140625 
Q 55.078125 64.0625 55.078125 55.328125 
Q 55.078125 49.078125 51.53125 44.71875 
Q 48 40.375 41.703125 38.8125 
Q 48.828125 37.15625 52.796875 32.3125 
Q 56.78125 27.484375 56.78125 20.515625 
Q 56.78125 9.90625 50.3125 4.234375 
Q 43.84375 -1.421875 31.78125 -1.421875 
Q 19.734375 -1.421875 13.25 4.234375 
Q 6.78125 9.90625 6.78125 20.515625 
Q 6.78125 27.484375 10.78125 32.3125 
Q 14.796875 37.15625 21.921875 38.8125 
M 18.3125 54.390625 
Q 18.3125 48.734375 21.84375 45.5625 
Q 25.390625 42.390625 31.78125 42.390625 
Q 38.140625 42.390625 41.71875 45.5625 
Q 45.3125 48.734375 45.3125 54.390625 
Q 45.3125 60.0625 41.71875 63.234375 
Q 38.140625 66.40625 31.78125 66.40625 
Q 25.390625 66.40625 21.84375 63.234375 
Q 18.3125 60.0625 18.3125 54.390625 
" id="DejaVuSans-38"/>
      </defs>
      <g transform="translate(393.580357 320.44225)scale(0.2 -0.2)">
       <use xlink:href="#DejaVuSans-38"/>
      </g>
     </g>
    </g>
    <g id="xtick_6">
     <g id="line2d_14">
      <defs>
       <path d="M 0 0 
L 0 2 
" id="m59a0b37282" style="stroke:#000000;stroke-width:0.6;"/>
      </defs>
      <g>
       <use style="stroke:#000000;stroke-width:0.6;" x="83.185234" xlink:href="#m59a0b37282" y="298.245375"/>
      </g>
     </g>
    </g>
    <g id="xtick_7">
     <g id="line2d_15">
      <g>
       <use style="stroke:#000000;stroke-width:0.6;" x="95.570468" xlink:href="#m59a0b37282" y="298.245375"/>
      </g>
     </g>
    </g>
    <g id="xtick_8">
     <g id="line2d_16">
      <g>
       <use style="stroke:#000000;stroke-width:0.6;" x="102.815366" xlink:href="#m59a0b37282" y="298.245375"/>
      </g>
     </g>
    </g>
    <g id="xtick_9">
     <g id="line2d_17">
      <g>
       <use style="stroke:#000000;stroke-width:0.6;" x="107.955702" xlink:href="#m59a0b37282" y="298.245375"/>
      </g>
     </g>
    </g>
    <g id="xtick_10">
     <g id="line2d_18">
      <g>
       <use style="stroke:#000000;stroke-width:0.6;" x="165.470948" xlink:href="#m59a0b37282" y="298.245375"/>
      </g>
     </g>
    </g>
    <g id="xtick_11">
     <g id="line2d_19">
      <g>
       <use style="stroke:#000000;stroke-width:0.6;" x="177.856183" xlink:href="#m59a0b37282" y="298.245375"/>
      </g>
     </g>
    </g>
    <g id="xtick_12">
     <g id="line2d_20">
      <g>
       <use style="stroke:#000000;stroke-width:0.6;" x="185.10108" xlink:href="#m59a0b37282" y="298.245375"/>
      </g>
     </g>
    </g>
    <g id="xtick_13">
     <g id="line2d_21">
      <g>
       <use style="stroke:#000000;stroke-width:0.6;" x="190.241417" xlink:href="#m59a0b37282" y="298.245375"/>
      </g>
     </g>
    </g>
    <g id="xtick_14">
     <g id="line2d_22">
      <g>
       <use style="stroke:#000000;stroke-width:0.6;" x="247.756663" xlink:href="#m59a0b37282" y="298.245375"/>
      </g>
     </g>
    </g>
    <g id="xtick_15">
     <g id="line2d_23">
      <g>
       <use style="stroke:#000000;stroke-width:0.6;" x="260.141897" xlink:href="#m59a0b37282" y="298.245375"/>
      </g>
     </g>
    </g>
    <g id="xtick_16">
     <g id="line2d_24">
      <g>
       <use style="stroke:#000000;stroke-width:0.6;" x="267.386794" xlink:href="#m59a0b37282" y="298.245375"/>
      </g>
     </g>
    </g>
    <g id="xtick_17">
     <g id="line2d_25">
      <g>
       <use style="stroke:#000000;stroke-width:0.6;" x="272.527131" xlink:href="#m59a0b37282" y="298.245375"/>
      </g>
     </g>
    </g>
    <g id="xtick_18">
     <g id="line2d_26">
      <g>
       <use style="stroke:#000000;stroke-width:0.6;" x="330.042377" xlink:href="#m59a0b37282" y="298.245375"/>
      </g>
     </g>
    </g>
    <g id="xtick_19">
     <g id="line2d_27">
      <g>
       <use style="stroke:#000000;stroke-width:0.6;" x="342.427611" xlink:href="#m59a0b37282" y="298.245375"/>
      </g>
     </g>
    </g>
    <g id="xtick_20">
     <g id="line2d_28">
      <g>
       <use style="stroke:#000000;stroke-width:0.6;" x="349.672509" xlink:href="#m59a0b37282" y="298.245375"/>
      </g>
     </g>
    </g>
    <g id="xtick_21">
     <g id="line2d_29">
      <g>
       <use style="stroke:#000000;stroke-width:0.6;" x="354.812845" xlink:href="#m59a0b37282" y="298.245375"/>
      </g>
     </g>
    </g>
    <g id="xtick_22">
     <g id="line2d_30">
      <g>
       <use style="stroke:#000000;stroke-width:0.6;" x="412.328091" xlink:href="#m59a0b37282" y="298.245375"/>
      </g>
     </g>
    </g>
    <g id="xtick_23">
     <g id="line2d_31">
      <g>
       <use style="stroke:#000000;stroke-width:0.6;" x="424.713325" xlink:href="#m59a0b37282" y="298.245375"/>
      </g>
     </g>
    </g>
    <g id="text_6">
     <!-- log10 of (# f-evals / dimension) -->
     <defs>
      <path d="M 9.421875 75.984375 
L 18.40625 75.984375 
L 18.40625 0 
L 9.421875 0 
z
" id="DejaVuSans-6c"/>
      <path d="M 30.609375 48.390625 
Q 23.390625 48.390625 19.1875 42.75 
Q 14.984375 37.109375 14.984375 27.296875 
Q 14.984375 17.484375 19.15625 11.84375 
Q 23.34375 6.203125 30.609375 6.203125 
Q 37.796875 6.203125 41.984375 11.859375 
Q 46.1875 17.53125 46.1875 27.296875 
Q 46.1875 37.015625 41.984375 42.703125 
Q 37.796875 48.390625 30.609375 48.390625 
M 30.609375 56 
Q 42.328125 56 49.015625 48.375 
Q 55.71875 40.765625 55.71875 27.296875 
Q 55.71875 13.875 49.015625 6.21875 
Q 42.328125 -1.421875 30.609375 -1.421875 
Q 18.84375 -1.421875 12.171875 6.21875 
Q 5.515625 13.875 5.515625 27.296875 
Q 5.515625 40.765625 12.171875 48.375 
Q 18.84375 56 30.609375 56 
" id="DejaVuSans-6f"/>
      <path d="M 45.40625 27.984375 
Q 45.40625 37.75 41.375 43.109375 
Q 37.359375 48.484375 30.078125 48.484375 
Q 22.859375 48.484375 18.828125 43.109375 
Q 14.796875 37.75 14.796875 27.984375 
Q 14.796875 18.265625 18.828125 12.890625 
Q 22.859375 7.515625 30.078125 7.515625 
Q 37.359375 7.515625 41.375 12.890625 
Q 45.40625 18.265625 45.40625 27.984375 
M 54.390625 6.78125 
Q 54.390625 -7.171875 48.1875 -13.984375 
Q 42 -20.796875 29.203125 -20.796875 
Q 24.46875 -20.796875 20.265625 -20.09375 
Q 16.0625 -19.390625 12.109375 -17.921875 
L 12.109375 -9.1875 
Q 16.0625 -11.328125 19.921875 -12.34375 
Q 23.78125 -13.375 27.78125 -13.375 
Q 36.625 -13.375 41.015625 -8.765625 
Q 45.40625 -4.15625 45.40625 5.171875 
L 45.40625 9.625 
Q 42.625 4.78125 38.28125 2.390625 
Q 33.9375 0 27.875 0 
Q 17.828125 0 11.671875 7.65625 
Q 5.515625 15.328125 5.515625 27.984375 
Q 5.515625 40.671875 11.671875 48.328125 
Q 17.828125 56 27.875 56 
Q 33.9375 56 38.28125 53.609375 
Q 42.625 51.21875 45.40625 46.390625 
L 45.40625 54.6875 
L 54.390625 54.6875 
z
" id="DejaVuSans-67"/>
      <path d="M 12.40625 8.296875 
L 28.515625 8.296875 
L 28.515625 63.921875 
L 10.984375 60.40625 
L 10.984375 69.390625 
L 28.421875 72.90625 
L 38.28125 72.90625 
L 38.28125 8.296875 
L 54.390625 8.296875 
L 54.390625 0 
L 12.40625 0 
z
" id="DejaVuSans-31"/>
      <path id="DejaVuSans-20"/>
      <path d="M 37.109375 75.984375 
L 37.109375 68.5 
L 28.515625 68.5 
Q 23.6875 68.5 21.796875 66.546875 
Q 19.921875 64.59375 19.921875 59.515625 
L 19.921875 54.6875 
L 34.71875 54.6875 
L 34.71875 47.703125 
L 19.921875 47.703125 
L 19.921875 0 
L 10.890625 0 
L 10.890625 47.703125 
L 2.296875 47.703125 
L 2.296875 54.6875 
L 10.890625 54.6875 
L 10.890625 58.5 
Q 10.890625 67.625 15.140625 71.796875 
Q 19.390625 75.984375 28.609375 75.984375 
z
" id="DejaVuSans-66"/>
      <path d="M 31 75.875 
Q 24.46875 64.65625 21.28125 53.65625 
Q 18.109375 42.671875 18.109375 31.390625 
Q 18.109375 20.125 21.3125 9.0625 
Q 24.515625 -2 31 -13.1875 
L 23.1875 -13.1875 
Q 15.875 -1.703125 12.234375 9.375 
Q 8.59375 20.453125 8.59375 31.390625 
Q 8.59375 42.28125 12.203125 53.3125 
Q 15.828125 64.359375 23.1875 75.875 
z
" id="DejaVuSans-28"/>
      <path d="M 51.125 44 
L 36.921875 44 
L 32.8125 27.6875 
L 47.125 27.6875 
z
M 43.796875 71.78125 
L 38.71875 51.515625 
L 52.984375 51.515625 
L 58.109375 71.78125 
L 65.921875 71.78125 
L 60.890625 51.515625 
L 76.125 51.515625 
L 76.125 44 
L 58.984375 44 
L 54.984375 27.6875 
L 70.515625 27.6875 
L 70.515625 20.21875 
L 53.078125 20.21875 
L 48 0 
L 40.1875 0 
L 45.21875 20.21875 
L 30.90625 20.21875 
L 25.875 0 
L 18.015625 0 
L 23.09375 20.21875 
L 7.71875 20.21875 
L 7.71875 27.6875 
L 24.90625 27.6875 
L 29 44 
L 13.28125 44 
L 13.28125 51.515625 
L 30.90625 51.515625 
L 35.890625 71.78125 
z
" id="DejaVuSans-23"/>
      <path d="M 4.890625 31.390625 
L 31.203125 31.390625 
L 31.203125 23.390625 
L 4.890625 23.390625 
z
" id="DejaVuSans-2d"/>
      <path d="M 56.203125 29.59375 
L 56.203125 25.203125 
L 14.890625 25.203125 
Q 15.484375 15.921875 20.484375 11.0625 
Q 25.484375 6.203125 34.421875 6.203125 
Q 39.59375 6.203125 44.453125 7.46875 
Q 49.3125 8.734375 54.109375 11.28125 
L 54.109375 2.78125 
Q 49.265625 0.734375 44.1875 -0.34375 
Q 39.109375 -1.421875 33.890625 -1.421875 
Q 20.796875 -1.421875 13.15625 6.1875 
Q 5.515625 13.8125 5.515625 26.8125 
Q 5.515625 40.234375 12.765625 48.109375 
Q 20.015625 56 32.328125 56 
Q 43.359375 56 49.78125 48.890625 
Q 56.203125 41.796875 56.203125 29.59375 
M 47.21875 32.234375 
Q 47.125 39.59375 43.09375 43.984375 
Q 39.0625 48.390625 32.421875 48.390625 
Q 24.90625 48.390625 20.390625 44.140625 
Q 15.875 39.890625 15.1875 32.171875 
z
" id="DejaVuSans-65"/>
      <path d="M 2.984375 54.6875 
L 12.5 54.6875 
L 29.59375 8.796875 
L 46.6875 54.6875 
L 56.203125 54.6875 
L 35.6875 0 
L 23.484375 0 
z
" id="DejaVuSans-76"/>
      <path d="M 34.28125 27.484375 
Q 23.390625 27.484375 19.1875 25 
Q 14.984375 22.515625 14.984375 16.5 
Q 14.984375 11.71875 18.140625 8.90625 
Q 21.296875 6.109375 26.703125 6.109375 
Q 34.1875 6.109375 38.703125 11.40625 
Q 43.21875 16.703125 43.21875 25.484375 
L 43.21875 27.484375 
z
M 52.203125 31.203125 
L 52.203125 0 
L 43.21875 0 
L 43.21875 8.296875 
Q 40.140625 3.328125 35.546875 0.953125 
Q 30.953125 -1.421875 24.3125 -1.421875 
Q 15.921875 -1.421875 10.953125 3.296875 
Q 6 8.015625 6 15.921875 
Q 6 25.140625 12.171875 29.828125 
Q 18.359375 34.515625 30.609375 34.515625 
L 43.21875 34.515625 
L 43.21875 35.40625 
Q 43.21875 41.609375 39.140625 45 
Q 35.0625 48.390625 27.6875 48.390625 
Q 23 48.390625 18.546875 47.265625 
Q 14.109375 46.140625 10.015625 43.890625 
L 10.015625 52.203125 
Q 14.9375 54.109375 19.578125 55.046875 
Q 24.21875 56 28.609375 56 
Q 40.484375 56 46.34375 49.84375 
Q 52.203125 43.703125 52.203125 31.203125 
" id="DejaVuSans-61"/>
      <path d="M 44.28125 53.078125 
L 44.28125 44.578125 
Q 40.484375 46.53125 36.375 47.5 
Q 32.28125 48.484375 27.875 48.484375 
Q 21.1875 48.484375 17.84375 46.4375 
Q 14.5 44.390625 14.5 40.28125 
Q 14.5 37.15625 16.890625 35.375 
Q 19.28125 33.59375 26.515625 31.984375 
L 29.59375 31.296875 
Q 39.15625 29.25 43.1875 25.515625 
Q 47.21875 21.78125 47.21875 15.09375 
Q 47.21875 7.46875 41.1875 3.015625 
Q 35.15625 -1.421875 24.609375 -1.421875 
Q 20.21875 -1.421875 15.453125 -0.5625 
Q 10.6875 0.296875 5.421875 2 
L 5.421875 11.28125 
Q 10.40625 8.6875 15.234375 7.390625 
Q 20.0625 6.109375 24.8125 6.109375 
Q 31.15625 6.109375 34.5625 8.28125 
Q 37.984375 10.453125 37.984375 14.40625 
Q 37.984375 18.0625 35.515625 20.015625 
Q 33.0625 21.96875 24.703125 23.78125 
L 21.578125 24.515625 
Q 13.234375 26.265625 9.515625 29.90625 
Q 5.8125 33.546875 5.8125 39.890625 
Q 5.8125 47.609375 11.28125 51.796875 
Q 16.75 56 26.8125 56 
Q 31.78125 56 36.171875 55.265625 
Q 40.578125 54.546875 44.28125 53.078125 
" id="DejaVuSans-73"/>
      <path d="M 25.390625 72.90625 
L 33.6875 72.90625 
L 8.296875 -9.28125 
L 0 -9.28125 
z
" id="DejaVuSans-2f"/>
      <path d="M 45.40625 46.390625 
L 45.40625 75.984375 
L 54.390625 75.984375 
L 54.390625 0 
L 45.40625 0 
L 45.40625 8.203125 
Q 42.578125 3.328125 38.25 0.953125 
Q 33.9375 -1.421875 27.875 -1.421875 
Q 17.96875 -1.421875 11.734375 6.484375 
Q 5.515625 14.40625 5.515625 27.296875 
Q 5.515625 40.1875 11.734375 48.09375 
Q 17.96875 56 27.875 56 
Q 33.9375 56 38.25 53.625 
Q 42.578125 51.265625 45.40625 46.390625 
M 14.796875 27.296875 
Q 14.796875 17.390625 18.875 11.75 
Q 22.953125 6.109375 30.078125 6.109375 
Q 37.203125 6.109375 41.296875 11.75 
Q 45.40625 17.390625 45.40625 27.296875 
Q 45.40625 37.203125 41.296875 42.84375 
Q 37.203125 48.484375 30.078125 48.484375 
Q 22.953125 48.484375 18.875 42.84375 
Q 14.796875 37.203125 14.796875 27.296875 
" id="DejaVuSans-64"/>
      <path d="M 9.421875 54.6875 
L 18.40625 54.6875 
L 18.40625 0 
L 9.421875 0 
z
M 9.421875 75.984375 
L 18.40625 75.984375 
L 18.40625 64.59375 
L 9.421875 64.59375 
z
" id="DejaVuSans-69"/>
      <path d="M 52 44.1875 
Q 55.375 50.25 60.0625 53.125 
Q 64.75 56 71.09375 56 
Q 79.640625 56 84.28125 50.015625 
Q 88.921875 44.046875 88.921875 33.015625 
L 88.921875 0 
L 79.890625 0 
L 79.890625 32.71875 
Q 79.890625 40.578125 77.09375 44.375 
Q 74.3125 48.1875 68.609375 48.1875 
Q 61.625 48.1875 57.5625 43.546875 
Q 53.515625 38.921875 53.515625 30.90625 
L 53.515625 0 
L 44.484375 0 
L 44.484375 32.71875 
Q 44.484375 40.625 41.703125 44.40625 
Q 38.921875 48.1875 33.109375 48.1875 
Q 26.21875 48.1875 22.15625 43.53125 
Q 18.109375 38.875 18.109375 30.90625 
L 18.109375 0 
L 9.078125 0 
L 9.078125 54.6875 
L 18.109375 54.6875 
L 18.109375 46.1875 
Q 21.1875 51.21875 25.484375 53.609375 
Q 29.78125 56 35.6875 56 
Q 41.65625 56 45.828125 52.96875 
Q 50 49.953125 52 44.1875 
" id="DejaVuSans-6d"/>
      <path d="M 54.890625 33.015625 
L 54.890625 0 
L 45.90625 0 
L 45.90625 32.71875 
Q 45.90625 40.484375 42.875 44.328125 
Q 39.84375 48.1875 33.796875 48.1875 
Q 26.515625 48.1875 22.3125 43.546875 
Q 18.109375 38.921875 18.109375 30.90625 
L 18.109375 0 
L 9.078125 0 
L 9.078125 54.6875 
L 18.109375 54.6875 
L 18.109375 46.1875 
Q 21.34375 51.125 25.703125 53.5625 
Q 30.078125 56 35.796875 56 
Q 45.21875 56 50.046875 50.171875 
Q 54.890625 44.34375 54.890625 33.015625 
" id="DejaVuSans-6e"/>
      <path d="M 8.015625 75.875 
L 15.828125 75.875 
Q 23.140625 64.359375 26.78125 53.3125 
Q 30.421875 42.28125 30.421875 31.390625 
Q 30.421875 20.453125 26.78125 9.375 
Q 23.140625 -1.703125 15.828125 -13.1875 
L 8.015625 -13.1875 
Q 14.5 -2 17.703125 9.0625 
Q 20.90625 20.125 20.90625 31.390625 
Q 20.90625 42.671875 17.703125 53.65625 
Q 14.5 64.65625 8.015625 75.875 
" id="DejaVuSans-29"/>
     </defs>
     <g transform="translate(107.015156 342.278812)scale(0.18 -0.18)">
      <use xlink:href="#DejaVuSans-6c"/>
      <use x="27.783203" xlink:href="#DejaVuSans-6f"/>
      <use x="88.964844" xlink:href="#DejaVuSans-67"/>
      <use x="152.441406" xlink:href="#DejaVuSans-31"/>
      <use x="216.064453" xlink:href="#DejaVuSans-30"/>
      <use x="279.6875" xlink:href="#DejaVuSans-20"/>
      <use x="311.474609" xlink:href="#DejaVuSans-6f"/>
      <use x="372.65625" xlink:href="#DejaVuSans-66"/>
      <use x="407.861328" xlink:href="#DejaVuSans-20"/>
      <use x="439.648438" xlink:href="#DejaVuSans-28"/>
      <use x="478.662109" xlink:href="#DejaVuSans-23"/>
      <use x="562.451172" xlink:href="#DejaVuSans-20"/>
      <use x="594.238281" xlink:href="#DejaVuSans-66"/>
      <use x="629.365234" xlink:href="#DejaVuSans-2d"/>
      <use x="665.449219" xlink:href="#DejaVuSans-65"/>
      <use x="726.972656" xlink:href="#DejaVuSans-76"/>
      <use x="786.152344" xlink:href="#DejaVuSans-61"/>
      <use x="847.431641" xlink:href="#DejaVuSans-6c"/>
      <use x="875.214844" xlink:href="#DejaVuSans-73"/>
      <use x="927.314453" xlink:href="#DejaVuSans-20"/>
      <use x="959.101562" xlink:href="#DejaVuSans-2f"/>
      <use x="992.792969" xlink:href="#DejaVuSans-20"/>
      <use x="1024.580078" xlink:href="#DejaVuSans-64"/>
      <use x="1088.056641" xlink:href="#DejaVuSans-69"/>
      <use x="1115.839844" xlink:href="#DejaVuSans-6d"/>
      <use x="1213.251953" xlink:href="#DejaVuSans-65"/>
      <use x="1274.775391" xlink:href="#DejaVuSans-6e"/>
      <use x="1338.154297" xlink:href="#DejaVuSans-73"/>
      <use x="1390.253906" xlink:href="#DejaVuSans-69"/>
      <use x="1418.037109" xlink:href="#DejaVuSans-6f"/>
      <use x="1479.21875" xlink:href="#DejaVuSans-6e"/>
      <use x="1542.597656" xlink:href="#DejaVuSans-29"/>
     </g>
    </g>
   </g>
   <g id="matplotlib.axis_2">
    <g id="ytick_1">
     <g id="line2d_32">
      <path clip-path="url(#pb015ecbf3f)" d="M 70.8 298.245375 
L 427.92 298.245375 
" style="fill:none;stroke:#b0b0b0;stroke-linecap:square;stroke-width:0.8;"/>
     </g>
     <g id="line2d_33">
      <defs>
       <path d="M 0 0 
L -3.5 0 
" id="mf6dd077e7d" style="stroke:#000000;stroke-width:0.8;"/>
      </defs>
      <g>
       <use style="stroke:#000000;stroke-width:0.8;" x="70.8" xlink:href="#mf6dd077e7d" y="298.245375"/>
      </g>
     </g>
     <g id="text_7">
      <!-- 0.0 -->
      <defs>
       <path d="M 10.6875 12.40625 
L 21 12.40625 
L 21 0 
L 10.6875 0 
z
" id="DejaVuSans-2e"/>
      </defs>
      <g transform="translate(31.99375 305.843812)scale(0.2 -0.2)">
       <use xlink:href="#DejaVuSans-30"/>
       <use x="63.623047" xlink:href="#DejaVuSans-2e"/>
       <use x="95.410156" xlink:href="#DejaVuSans-30"/>
      </g>
     </g>
    </g>
    <g id="ytick_2">
     <g id="line2d_34">
      <path clip-path="url(#pb015ecbf3f)" d="M 70.8 245.549929 
L 427.92 245.549929 
" style="fill:none;stroke:#b0b0b0;stroke-linecap:square;stroke-width:0.8;"/>
     </g>
     <g id="line2d_35">
      <g>
       <use style="stroke:#000000;stroke-width:0.8;" x="70.8" xlink:href="#mf6dd077e7d" y="245.549929"/>
      </g>
     </g>
     <g id="text_8">
      <!-- 0.2 -->
      <g transform="translate(31.99375 253.148367)scale(0.2 -0.2)">
       <use xlink:href="#DejaVuSans-30"/>
       <use x="63.623047" xlink:href="#DejaVuSans-2e"/>
       <use x="95.410156" xlink:href="#DejaVuSans-32"/>
      </g>
     </g>
    </g>
    <g id="ytick_3">
     <g id="line2d_36">
      <path clip-path="url(#pb015ecbf3f)" d="M 70.8 192.854484 
L 427.92 192.854484 
" style="fill:none;stroke:#b0b0b0;stroke-linecap:square;stroke-width:0.8;"/>
     </g>
     <g id="line2d_37">
      <g>
       <use style="stroke:#000000;stroke-width:0.8;" x="70.8" xlink:href="#mf6dd077e7d" y="192.854484"/>
      </g>
     </g>
     <g id="text_9">
      <!-- 0.4 -->
      <g transform="translate(31.99375 200.452921)scale(0.2 -0.2)">
       <use xlink:href="#DejaVuSans-30"/>
       <use x="63.623047" xlink:href="#DejaVuSans-2e"/>
       <use x="95.410156" xlink:href="#DejaVuSans-34"/>
      </g>
     </g>
    </g>
    <g id="ytick_4">
     <g id="line2d_38">
      <path clip-path="url(#pb015ecbf3f)" d="M 70.8 140.159038 
L 427.92 140.159038 
" style="fill:none;stroke:#b0b0b0;stroke-linecap:square;stroke-width:0.8;"/>
     </g>
     <g id="line2d_39">
      <g>
       <use style="stroke:#000000;stroke-width:0.8;" x="70.8" xlink:href="#mf6dd077e7d" y="140.159038"/>
      </g>
     </g>
     <g id="text_10">
      <!-- 0.6 -->
      <g transform="translate(31.99375 147.757476)scale(0.2 -0.2)">
       <use xlink:href="#DejaVuSans-30"/>
       <use x="63.623047" xlink:href="#DejaVuSans-2e"/>
       <use x="95.410156" xlink:href="#DejaVuSans-36"/>
      </g>
     </g>
    </g>
    <g id="ytick_5">
     <g id="line2d_40">
      <path clip-path="url(#pb015ecbf3f)" d="M 70.8 87.463593 
L 427.92 87.463593 
" style="fill:none;stroke:#b0b0b0;stroke-linecap:square;stroke-width:0.8;"/>
     </g>
     <g id="line2d_41">
      <g>
       <use style="stroke:#000000;stroke-width:0.8;" x="70.8" xlink:href="#mf6dd077e7d" y="87.463593"/>
      </g>
     </g>
     <g id="text_11">
      <!-- 0.8 -->
      <g transform="translate(31.99375 95.06203)scale(0.2 -0.2)">
       <use xlink:href="#DejaVuSans-30"/>
       <use x="63.623047" xlink:href="#DejaVuSans-2e"/>
       <use x="95.410156" xlink:href="#DejaVuSans-38"/>
      </g>
     </g>
    </g>
    <g id="ytick_6">
     <g id="line2d_42">
      <path clip-path="url(#pb015ecbf3f)" d="M 70.8 34.768147 
L 427.92 34.768147 
" style="fill:none;stroke:#b0b0b0;stroke-linecap:square;stroke-width:0.8;"/>
     </g>
     <g id="line2d_43">
      <g>
       <use style="stroke:#000000;stroke-width:0.8;" x="70.8" xlink:href="#mf6dd077e7d" y="34.768147"/>
      </g>
     </g>
     <g id="text_12">
      <!-- 1.0 -->
      <g transform="translate(31.99375 42.366585)scale(0.2 -0.2)">
       <use xlink:href="#DejaVuSans-31"/>
       <use x="63.623047" xlink:href="#DejaVuSans-2e"/>
       <use x="95.410156" xlink:href="#DejaVuSans-30"/>
      </g>
     </g>
    </g>
    <g id="text_13">
     <!-- Proportion of function+target pairs -->
     <defs>
      <path d="M 19.671875 64.796875 
L 19.671875 37.40625 
L 32.078125 37.40625 
Q 38.96875 37.40625 42.71875 40.96875 
Q 46.484375 44.53125 46.484375 51.125 
Q 46.484375 57.671875 42.71875 61.234375 
Q 38.96875 64.796875 32.078125 64.796875 
z
M 9.8125 72.90625 
L 32.078125 72.90625 
Q 44.34375 72.90625 50.609375 67.359375 
Q 56.890625 61.8125 56.890625 51.125 
Q 56.890625 40.328125 50.609375 34.8125 
Q 44.34375 29.296875 32.078125 29.296875 
L 19.671875 29.296875 
L 19.671875 0 
L 9.8125 0 
z
" id="DejaVuSans-50"/>
      <path d="M 41.109375 46.296875 
Q 39.59375 47.171875 37.8125 47.578125 
Q 36.03125 48 33.890625 48 
Q 26.265625 48 22.1875 43.046875 
Q 18.109375 38.09375 18.109375 28.8125 
L 18.109375 0 
L 9.078125 0 
L 9.078125 54.6875 
L 18.109375 54.6875 
L 18.109375 46.1875 
Q 20.953125 51.171875 25.484375 53.578125 
Q 30.03125 56 36.53125 56 
Q 37.453125 56 38.578125 55.875 
Q 39.703125 55.765625 41.0625 55.515625 
z
" id="DejaVuSans-72"/>
      <path d="M 18.109375 8.203125 
L 18.109375 -20.796875 
L 9.078125 -20.796875 
L 9.078125 54.6875 
L 18.109375 54.6875 
L 18.109375 46.390625 
Q 20.953125 51.265625 25.265625 53.625 
Q 29.59375 56 35.59375 56 
Q 45.5625 56 51.78125 48.09375 
Q 58.015625 40.1875 58.015625 27.296875 
Q 58.015625 14.40625 51.78125 6.484375 
Q 45.5625 -1.421875 35.59375 -1.421875 
Q 29.59375 -1.421875 25.265625 0.953125 
Q 20.953125 3.328125 18.109375 8.203125 
M 48.6875 27.296875 
Q 48.6875 37.203125 44.609375 42.84375 
Q 40.53125 48.484375 33.40625 48.484375 
Q 26.265625 48.484375 22.1875 42.84375 
Q 18.109375 37.203125 18.109375 27.296875 
Q 18.109375 17.390625 22.1875 11.75 
Q 26.265625 6.109375 33.40625 6.109375 
Q 40.53125 6.109375 44.609375 11.75 
Q 48.6875 17.390625 48.6875 27.296875 
" id="DejaVuSans-70"/>
      <path d="M 18.3125 70.21875 
L 18.3125 54.6875 
L 36.8125 54.6875 
L 36.8125 47.703125 
L 18.3125 47.703125 
L 18.3125 18.015625 
Q 18.3125 11.328125 20.140625 9.421875 
Q 21.96875 7.515625 27.59375 7.515625 
L 36.8125 7.515625 
L 36.8125 0 
L 27.59375 0 
Q 17.1875 0 13.234375 3.875 
Q 9.28125 7.765625 9.28125 18.015625 
L 9.28125 47.703125 
L 2.6875 47.703125 
L 2.6875 54.6875 
L 9.28125 54.6875 
L 9.28125 70.21875 
z
" id="DejaVuSans-74"/>
      <path d="M 8.5 21.578125 
L 8.5 54.6875 
L 17.484375 54.6875 
L 17.484375 21.921875 
Q 17.484375 14.15625 20.5 10.265625 
Q 23.53125 6.390625 29.59375 6.390625 
Q 36.859375 6.390625 41.078125 11.03125 
Q 45.3125 15.671875 45.3125 23.6875 
L 45.3125 54.6875 
L 54.296875 54.6875 
L 54.296875 0 
L 45.3125 0 
L 45.3125 8.40625 
Q 42.046875 3.421875 37.71875 1 
Q 33.40625 -1.421875 27.6875 -1.421875 
Q 18.265625 -1.421875 13.375 4.4375 
Q 8.5 10.296875 8.5 21.578125 
M 31.109375 56 
z
" id="DejaVuSans-75"/>
      <path d="M 48.78125 52.59375 
L 48.78125 44.1875 
Q 44.96875 46.296875 41.140625 47.34375 
Q 37.3125 48.390625 33.40625 48.390625 
Q 24.65625 48.390625 19.8125 42.84375 
Q 14.984375 37.3125 14.984375 27.296875 
Q 14.984375 17.28125 19.8125 11.734375 
Q 24.65625 6.203125 33.40625 6.203125 
Q 37.3125 6.203125 41.140625 7.25 
Q 44.96875 8.296875 48.78125 10.40625 
L 48.78125 2.09375 
Q 45.015625 0.34375 40.984375 -0.53125 
Q 36.96875 -1.421875 32.421875 -1.421875 
Q 20.0625 -1.421875 12.78125 6.34375 
Q 5.515625 14.109375 5.515625 27.296875 
Q 5.515625 40.671875 12.859375 48.328125 
Q 20.21875 56 33.015625 56 
Q 37.15625 56 41.109375 55.140625 
Q 45.0625 54.296875 48.78125 52.59375 
" id="DejaVuSans-63"/>
      <path d="M 46 62.703125 
L 46 35.5 
L 73.1875 35.5 
L 73.1875 27.203125 
L 46 27.203125 
L 46 0 
L 37.796875 0 
L 37.796875 27.203125 
L 10.59375 27.203125 
L 10.59375 35.5 
L 37.796875 35.5 
L 37.796875 62.703125 
z
" id="DejaVuSans-2b"/>
     </defs>
     <g transform="translate(24.250312 323.17875)rotate(-90)scale(0.18 -0.18)">
      <use xlink:href="#DejaVuSans-50"/>
      <use x="60.287109" xlink:href="#DejaVuSans-72"/>
      <use x="101.369141" xlink:href="#DejaVuSans-6f"/>
      <use x="162.550781" xlink:href="#DejaVuSans-70"/>
      <use x="226.027344" xlink:href="#DejaVuSans-6f"/>
      <use x="287.208984" xlink:href="#DejaVuSans-72"/>
      <use x="328.322266" xlink:href="#DejaVuSans-74"/>
      <use x="367.53125" xlink:href="#DejaVuSans-69"/>
      <use x="395.314453" xlink:href="#DejaVuSans-6f"/>
      <use x="456.496094" xlink:href="#DejaVuSans-6e"/>
      <use x="519.875" xlink:href="#DejaVuSans-20"/>
      <use x="551.662109" xlink:href="#DejaVuSans-6f"/>
      <use x="612.84375" xlink:href="#DejaVuSans-66"/>
      <use x="648.048828" xlink:href="#DejaVuSans-20"/>
      <use x="679.835938" xlink:href="#DejaVuSans-66"/>
      <use x="715.041016" xlink:href="#DejaVuSans-75"/>
      <use x="778.419922" xlink:href="#DejaVuSans-6e"/>
      <use x="841.798828" xlink:href="#DejaVuSans-63"/>
      <use x="896.779297" xlink:href="#DejaVuSans-74"/>
      <use x="935.988281" xlink:href="#DejaVuSans-69"/>
      <use x="963.771484" xlink:href="#DejaVuSans-6f"/>
      <use x="1024.953125" xlink:href="#DejaVuSans-6e"/>
      <use x="1088.332031" xlink:href="#DejaVuSans-2b"/>
      <use x="1172.121094" xlink:href="#DejaVuSans-74"/>
      <use x="1211.330078" xlink:href="#DejaVuSans-61"/>
      <use x="1272.609375" xlink:href="#DejaVuSans-72"/>
      <use x="1313.707031" xlink:href="#DejaVuSans-67"/>
      <use x="1377.183594" xlink:href="#DejaVuSans-65"/>
      <use x="1438.707031" xlink:href="#DejaVuSans-74"/>
      <use x="1477.916016" xlink:href="#DejaVuSans-20"/>
      <use x="1509.703125" xlink:href="#DejaVuSans-70"/>
      <use x="1573.179688" xlink:href="#DejaVuSans-61"/>
      <use x="1634.458984" xlink:href="#DejaVuSans-69"/>
      <use x="1662.242188" xlink:href="#DejaVuSans-72"/>
      <use x="1703.355469" xlink:href="#DejaVuSans-73"/>
     </g>
    </g>
   </g>
   <g id="line2d_44">
    <defs>
     <path d="M 0 1.5 
C 0.397805 1.5 0.77937 1.341951 1.06066 1.06066 
C 1.341951 0.77937 1.5 0.397805 1.5 0 
C 1.5 -0.397805 1.341951 -0.77937 1.06066 -1.06066 
C 0.77937 -1.341951 0.397805 -1.5 0 -1.5 
C -0.397805 -1.5 -0.77937 -1.341951 -1.06066 -1.06066 
C -1.341951 -0.77937 -1.5 -0.397805 -1.5 0 
C -1.5 0.397805 -1.341951 0.77937 -1.06066 1.06066 
C -0.77937 1.341951 -0.397805 1.5 0 1.5 
z
" id="m2109bb62e2" style="stroke:#f5deb3;"/>
    </defs>
    <g>
     <use style="fill:#f5deb3;stroke:#f5deb3;" x="175.347282" xlink:href="#m2109bb62e2" y="34.768147"/>
     <use style="fill:#f5deb3;stroke:#f5deb3;" x="175.347282" xlink:href="#m2109bb62e2" y="34.768147"/>
    </g>
   </g>
   <g id="line2d_45">
    <g>
     <use style="fill:#f5deb3;stroke:#f5deb3;stroke-linejoin:miter;stroke-width:1.5;" x="111.213445" xlink:href="#mcb6791496d" y="274.997384"/>
     <use style="fill:#f5deb3;stroke:#f5deb3;stroke-linejoin:miter;stroke-width:1.5;" x="147.801858" xlink:href="#mcb6791496d" y="172.964536"/>
     <use style="fill:#f5deb3;stroke:#f5deb3;stroke-linejoin:miter;stroke-width:1.5;" x="173.553567" xlink:href="#mcb6791496d" y="70.931688"/>
     <use style="fill:#f5deb3;stroke:#f5deb3;stroke-linejoin:miter;stroke-width:1.5;" x="175.347282" xlink:href="#mcb6791496d" y="36.059702"/>
     <use style="fill:#f5deb3;stroke:#f5deb3;stroke-linejoin:miter;stroke-width:1.5;" x="175.347282" xlink:href="#mcb6791496d" y="34.768147"/>
     <use style="fill:#f5deb3;stroke:#f5deb3;stroke-linejoin:miter;stroke-width:1.5;" x="358.8" xlink:href="#mcb6791496d" y="34.768147"/>
    </g>
   </g>
   <g id="line2d_46">
    <defs>
     <path d="M 0 1.5 
C 0.397805 1.5 0.77937 1.341951 1.06066 1.06066 
C 1.341951 0.77937 1.5 0.397805 1.5 0 
C 1.5 -0.397805 1.341951 -0.77937 1.06066 -1.06066 
C 0.77937 -1.341951 0.397805 -1.5 0 -1.5 
C -0.397805 -1.5 -0.77937 -1.341951 -1.06066 -1.06066 
C -1.341951 -0.77937 -1.5 -0.397805 -1.5 0 
C -1.5 0.397805 -1.341951 0.77937 -1.06066 1.06066 
C -0.77937 1.341951 -0.397805 1.5 0 1.5 
z
" id="me19df86454" style="stroke:#ff00ff;"/>
    </defs>
    <g>
     <use style="fill:#ff00ff;stroke:#ff00ff;" x="259.668428" xlink:href="#me19df86454" y="126.468555"/>
     <use style="fill:#ff00ff;stroke:#ff00ff;" x="259.668428" xlink:href="#me19df86454" y="126.468555"/>
    </g>
   </g>
   <g id="line2d_47">
    <path d="M 42.042377 298.245375 
L 42.042377 298.116219 
L 100.258423 298.116219 
L 100.258423 297.987064 
L 100.932772 297.987064 
L 100.932772 297.728753 
L 102.209609 297.728753 
L 102.209609 297.599597 
L 107.503321 297.599597 
L 107.503321 297.341286 
L 109.247936 297.341286 
L 109.247936 297.082975 
L 111.581873 297.082975 
L 111.581873 296.824664 
L 112.296693 296.824664 
L 112.296693 296.695509 
L 113.967827 296.695509 
L 113.967827 296.049731 
L 114.284085 296.049731 
L 114.284085 295.533109 
L 116.353782 295.533109 
L 116.353782 295.274798 
L 116.630812 295.274798 
L 116.630812 295.145643 
L 117.697882 295.145643 
L 117.697882 294.37071 
L 117.954982 294.37071 
L 117.954982 294.241554 
L 118.208435 294.241554 
L 118.208435 293.466621 
L 118.704803 293.466621 
L 118.704803 293.337466 
L 118.947911 293.337466 
L 118.947911 293.20831 
L 119.187755 293.20831 
L 119.187755 293.079155 
L 119.424422 293.079155 
L 119.424422 292.949999 
L 120.116177 292.949999 
L 120.116177 292.820844 
L 120.782147 292.820844 
L 120.782147 292.175066 
L 120.998733 292.175066 
L 120.998733 292.045911 
L 121.839741 292.045911 
L 121.839741 291.7876 
L 123.03139 291.7876 
L 123.03139 291.270978 
L 123.222494 291.270978 
L 123.222494 290.883511 
L 123.598679 290.883511 
L 123.598679 290.754356 
L 123.783843 290.754356 
L 123.783843 290.6252 
L 123.967107 290.6252 
L 123.967107 290.366889 
L 124.148511 290.366889 
L 124.148511 290.237734 
L 124.328091 290.237734 
L 124.328091 290.108578 
L 124.505885 290.108578 
L 124.505885 289.979423 
L 125.028891 289.979423 
L 125.028891 289.721112 
L 125.19988 289.721112 
L 125.19988 289.333645 
L 125.369247 289.333645 
L 125.369247 289.20449 
L 126.031105 289.20449 
L 126.031105 288.946179 
L 126.192808 288.946179 
L 126.192808 288.687868 
L 126.353061 288.687868 
L 126.353061 288.171246 
L 126.669319 288.171246 
L 126.669319 287.912935 
L 126.825374 287.912935 
L 126.825374 287.654624 
L 127.133452 287.654624 
L 127.133452 287.525468 
L 127.285522 287.525468 
L 127.285522 287.267157 
L 127.436309 287.267157 
L 127.436309 286.104758 
L 127.585834 286.104758 
L 127.585834 285.846447 
L 127.881181 285.846447 
L 127.881181 285.329825 
L 128.027044 285.329825 
L 128.027044 284.554892 
L 128.315246 284.554892 
L 128.315246 284.167425 
L 128.598873 284.167425 
L 128.598873 283.263337 
L 129.016046 283.263337 
L 129.016046 283.005026 
L 129.152967 283.005026 
L 129.152967 282.359248 
L 129.288847 282.359248 
L 129.288847 281.584315 
L 129.557546 281.584315 
L 129.557546 281.326004 
L 129.690395 281.326004 
L 129.690395 280.938537 
L 129.822263 280.938537 
L 129.822263 280.680226 
L 129.953166 280.680226 
L 129.953166 280.034449 
L 130.083117 280.034449 
L 130.083117 279.905293 
L 130.212129 279.905293 
L 130.212129 279.646982 
L 130.467392 279.646982 
L 130.467392 278.872049 
L 130.593669 278.872049 
L 130.593669 278.613738 
L 130.843577 278.613738 
L 130.843577 278.355427 
L 130.967232 278.355427 
L 130.967232 277.967961 
L 131.090037 277.967961 
L 131.090037 277.838805 
L 131.333145 277.838805 
L 131.333145 277.322183 
L 131.453469 277.322183 
L 131.453469 276.934717 
L 131.926824 276.934717 
L 131.926824 276.805561 
L 132.043229 276.805561 
L 132.043229 276.54725 
L 132.158881 276.54725 
L 132.158881 276.418095 
L 132.273789 276.418095 
L 132.273789 276.288939 
L 132.726171 276.288939 
L 132.726171 276.159784 
L 132.837499 276.159784 
L 132.948138 275.772317 
L 133.276002 275.772317 
L 133.383967 275.255695 
L 133.491283 275.255695 
L 133.597959 274.351607 
L 133.704001 274.351607 
L 133.704001 273.96414 
L 134.018404 273.96414 
L 134.121988 273.447518 
L 134.327371 273.447518 
L 134.429184 272.285119 
L 134.631086 272.285119 
L 134.631086 272.026808 
L 134.929724 272.026808 
L 134.929724 271.897652 
L 135.126079 271.897652 
L 135.126079 271.38103 
L 135.3203 271.38103 
L 135.3203 271.251875 
L 135.512432 271.251875 
L 135.607728 270.089475 
L 135.70252 270.089475 
L 135.796811 269.443698 
L 135.890607 269.443698 
L 135.983913 268.79792 
L 136.076735 268.79792 
L 136.169077 268.539609 
L 136.260944 268.539609 
L 136.260944 268.410454 
L 136.443273 268.410454 
L 136.533745 268.152143 
L 136.713325 268.152143 
L 136.802443 267.635521 
L 136.891119 267.635521 
L 136.891119 267.118899 
L 137.067161 267.118899 
L 137.067161 266.860588 
L 137.328014 266.860588 
L 137.328014 266.473121 
L 137.499824 266.473121 
L 137.585114 265.827344 
L 137.669998 265.827344 
L 137.669998 265.698188 
L 137.922258 265.698188 
L 138.005559 264.277478 
L 138.253158 264.277478 
L 138.253158 263.760855 
L 138.897124 263.760855 
L 138.976012 263.502544 
L 139.054554 263.502544 
L 139.132751 263.115078 
L 139.288127 263.115078 
L 139.288127 262.985922 
L 139.442163 262.985922 
L 139.442163 262.856767 
L 139.746309 262.856767 
L 139.746309 262.727611 
L 139.971068 262.727611 
L 139.971068 261.952678 
L 140.119352 261.952678 
L 140.119352 261.823523 
L 140.412279 261.823523 
L 140.484766 261.436056 
L 140.55696 261.436056 
L 140.628864 260.531968 
L 140.984107 260.531968 
L 141.054316 260.273657 
L 141.193911 260.273657 
L 141.263302 259.88619 
L 141.332424 259.88619 
L 141.332424 259.757035 
L 141.808936 259.757035 
L 141.875983 258.982102 
L 142.009328 258.982102 
L 142.075629 258.336324 
L 142.273069 258.336324 
L 142.3384 258.078013 
L 142.403494 258.078013 
L 142.403494 257.948858 
L 142.72545 257.948858 
L 142.72545 257.690547 
L 143.290745 257.690547 
L 143.290745 257.561391 
L 143.413974 257.561391 
L 143.413974 257.432236 
L 143.597239 257.432236 
L 143.657911 256.786458 
L 143.718379 256.786458 
L 143.718379 256.657303 
L 143.838703 256.657303 
L 143.838703 256.528147 
L 144.017684 256.528147 
L 144.076948 256.140681 
L 144.370356 256.140681 
L 144.370356 256.011525 
L 144.486383 256.011525 
L 144.544115 255.494903 
L 144.601662 255.494903 
L 144.601662 255.365748 
L 144.830011 255.365748 
L 144.886646 254.71997 
L 145.222733 254.71997 
L 145.222733 254.590815 
L 145.388435 254.590815 
L 145.498056 254.074193 
L 145.552615 254.074193 
L 145.552615 253.945037 
L 146.089235 253.945037 
L 146.142022 253.29926 
L 146.403639 253.29926 
L 146.403639 253.170104 
L 146.66148 253.170104 
L 146.763584 252.524327 
L 146.814418 252.524327 
L 146.915654 252.266016 
L 146.966058 252.266016 
L 146.966058 252.007705 
L 147.116421 252.007705 
L 147.116421 251.749394 
L 147.314958 251.749394 
L 147.314958 251.491083 
L 147.511313 251.491083 
L 147.608687 251.103616 
L 147.705534 251.103616 
L 147.705534 250.974461 
L 147.897666 250.974461 
L 147.945378 250.71615 
L 148.087754 250.71615 
L 148.087754 250.457839 
L 148.229005 250.457839 
L 148.229005 250.070372 
L 148.369147 250.070372 
L 148.369147 249.812061 
L 148.828507 249.812061 
L 148.918979 249.424595 
L 149.143174 249.424595 
L 149.23207 249.166284 
L 149.320526 249.166284 
L 149.320526 248.907973 
L 149.452395 248.907973 
L 149.496136 248.649662 
L 149.713248 248.649662 
L 149.79936 248.13304 
L 150.055232 248.13304 
L 150.139715 247.874729 
L 150.473708 247.874729 
L 150.473708 247.745573 
L 150.679328 247.745573 
L 150.679328 247.616418 
L 150.842136 247.616418 
L 150.882607 247.228951 
L 151.003475 247.228951 
L 151.003475 247.099796 
L 151.12353 247.099796 
L 151.12353 246.97064 
L 151.40056 246.97064 
L 151.40056 246.712329 
L 151.595842 246.712329 
L 151.595842 246.324862 
L 151.711995 246.324862 
L 151.789013 246.066551 
L 151.94206 246.066551 
L 152.018094 245.291618 
L 152.093807 245.291618 
L 152.093807 245.033307 
L 152.319038 245.033307 
L 152.393489 244.258374 
L 152.761158 244.258374 
L 152.761158 244.129219 
L 152.906134 244.129219 
L 152.942195 243.870908 
L 153.085714 243.870908 
L 153.085714 243.612597 
L 153.298855 243.612597 
L 153.40448 243.095975 
L 153.579145 243.095975 
L 153.579145 242.966819 
L 153.717659 242.966819 
L 153.820843 242.321042 
L 154.025442 242.321042 
L 154.093125 241.675264 
L 154.261217 241.675264 
L 154.261217 241.546109 
L 154.493922 241.546109 
L 154.592732 240.900331 
L 154.756211 240.900331 
L 154.853585 240.383709 
L 155.046755 240.383709 
L 155.046755 240.254554 
L 155.206151 240.254554 
L 155.30111 239.867087 
L 155.364137 239.867087 
L 155.364137 239.737932 
L 155.551895 239.737932 
L 155.582997 239.22131 
L 155.675979 239.22131 
L 155.706866 238.962999 
L 155.799208 238.962999 
L 155.891075 238.317221 
L 155.982473 238.317221 
L 156.043145 238.05891 
L 156.253892 238.05891 
L 156.343457 237.025666 
L 156.432575 237.025666 
L 156.462182 236.250733 
L 156.550712 236.250733 
L 156.580124 235.734111 
L 156.668072 235.734111 
L 156.75559 235.088334 
L 156.813698 235.088334 
L 156.900507 234.571712 
L 156.929349 234.571712 
L 156.986896 234.184245 
L 157.044257 234.184245 
L 157.101435 233.925934 
L 157.158431 233.925934 
L 157.215245 233.667623 
L 157.412685 233.667623 
L 157.412685 233.538468 
L 157.69101 233.538468 
L 157.801138 233.151001 
L 158.100534 233.151001 
L 158.181325 232.634379 
L 158.234983 232.634379 
L 158.341818 231.601135 
L 158.47447 231.601135 
L 158.500882 231.213669 
L 158.606144 231.213669 
L 158.606144 231.084513 
L 158.762883 231.084513 
L 158.814825 230.826202 
L 158.944024 230.826202 
L 158.944024 230.30958 
L 159.097839 230.30958 
L 159.174253 229.922113 
L 159.225015 229.922113 
L 159.250342 229.534647 
L 159.401554 229.534647 
L 159.401554 229.276336 
L 159.526594 229.276336 
L 159.6012 228.888869 
L 159.823167 228.888869 
L 159.896547 228.113936 
L 159.945301 228.113936 
L 160.018182 227.468159 
L 160.090768 227.468159 
L 160.16306 226.822381 
L 160.211092 226.822381 
L 160.306772 226.305759 
L 160.425655 226.305759 
L 160.449337 226.047448 
L 160.567279 226.047448 
L 160.567279 225.918293 
L 160.707789 225.918293 
L 160.800853 225.530826 
L 160.824043 225.530826 
L 160.893434 225.14336 
L 161.054305 225.14336 
L 161.122809 224.497582 
L 161.191052 224.497582 
L 161.236402 224.239271 
L 161.416662 224.239271 
L 161.461444 223.851805 
L 161.705761 223.851805 
L 161.815719 223.206027 
L 161.837629 223.206027 
L 161.9032 222.172783 
L 162.05527 222.172783 
L 162.098482 221.914472 
L 162.206057 221.914472 
L 162.206057 221.656161 
L 162.440466 221.656161 
L 162.524949 220.622917 
L 162.609035 220.622917 
L 162.713588 220.235451 
L 162.796792 220.235451 
L 162.796792 220.106295 
L 162.941474 220.106295 
L 162.941474 219.718829 
L 163.084994 219.718829 
L 163.186807 219.202207 
L 163.267842 219.202207 
L 163.34851 218.81474 
L 163.448837 218.81474 
L 163.548603 218.168963 
L 163.588354 218.168963 
L 163.687347 217.39403 
L 163.844603 217.39403 
L 163.844603 217.264874 
L 163.961644 217.264874 
L 164.019878 216.489941 
L 164.135779 216.489941 
L 164.19345 216.23163 
L 164.346333 216.23163 
L 164.346333 215.715008 
L 164.685611 215.715008 
L 164.741536 215.456697 
L 164.797287 215.456697 
L 164.88982 214.940075 
L 164.945111 214.940075 
L 165.055182 214.294298 
L 165.128188 214.294298 
L 165.23714 213.777676 
L 165.255234 213.777676 
L 165.345432 212.356965 
L 165.399333 212.356965 
L 165.506649 211.840343 
L 165.595589 211.840343 
L 165.648742 211.582032 
L 165.789714 211.582032 
L 165.859785 210.936254 
L 166.051076 210.936254 
L 166.051076 210.807099 
L 166.206077 210.807099 
L 166.291612 210.161321 
L 166.325711 210.161321 
L 166.376739 209.515544 
L 166.512104 209.515544 
L 166.612959 209.128077 
L 166.646451 209.128077 
L 166.729908 208.611455 
L 166.779796 208.611455 
L 166.779796 208.094833 
L 166.895662 208.094833 
L 166.895662 207.965678 
L 167.010781 207.965678 
L 167.092558 207.578211 
L 167.125164 207.578211 
L 167.190198 206.803278 
L 167.238819 206.803278 
L 167.238819 206.544967 
L 167.367831 206.544967 
L 167.447993 205.770034 
L 167.575509 205.770034 
L 167.670553 205.124257 
L 167.702122 205.124257 
L 167.812177 204.091013 
L 167.874762 204.091013 
L 167.983762 203.574391 
L 168.122934 203.574391 
L 168.184442 203.31608 
L 168.27631 203.31608 
L 168.352506 202.928613 
L 168.398069 202.928613 
L 168.458639 202.670302 
L 168.802987 202.670302 
L 168.891736 202.411991 
L 168.935946 202.411991 
L 169.038679 201.895369 
L 169.140824 201.895369 
L 169.184423 201.249592 
L 169.357761 201.249592 
L 169.458103 200.603814 
L 169.529433 200.603814 
L 169.572095 200.087192 
L 169.923702 200.087192 
L 169.923702 199.699726 
L 170.048606 199.699726 
L 170.131393 199.441415 
L 170.20009 199.441415 
L 170.20009 199.053948 
L 170.431704 199.053948 
L 170.472268 198.537326 
L 170.633606 198.537326 
L 170.700403 197.891549 
L 170.766951 197.891549 
L 170.846483 197.374927 
L 170.899308 197.374927 
L 170.899308 197.245771 
L 171.043777 197.245771 
L 171.043777 196.98746 
L 171.342127 196.98746 
L 171.419144 196.599994 
L 171.483073 196.599994 
L 171.483073 196.470838 
L 171.799331 196.470838 
L 171.799331 196.341683 
L 172.073082 196.341683 
L 172.110089 196.083372 
L 173.093023 196.083372 
L 173.093023 195.954216 
L 173.632956 195.954216 
L 173.632956 195.82506 
L 174.255679 195.82506 
L 174.255679 195.695905 
L 174.494503 195.695905 
L 174.494503 195.437594 
L 175.15087 195.437594 
L 175.15087 195.179283 
L 175.264845 195.179283 
L 175.264845 194.920972 
L 176.023153 194.920972 
L 176.042941 194.662661 
L 176.376019 194.662661 
L 176.376019 194.40435 
L 176.674389 194.40435 
L 176.674389 194.275194 
L 177.005377 194.275194 
L 177.070845 194.016883 
L 177.173241 194.016883 
L 177.173241 193.887728 
L 177.495198 193.887728 
L 177.495198 193.758572 
L 178.086971 193.758572 
L 178.086971 193.629417 
L 178.314817 193.629417 
L 178.314817 193.500261 
L 178.43631 193.500261 
L 178.43631 193.371106 
L 178.981424 193.371106 
L 178.981424 193.112795 
L 179.477792 193.112795 
L 179.575432 192.854484 
L 180.118869 192.854484 
L 180.213078 191.175462 
L 180.376756 191.175462 
L 180.376756 190.142218 
L 181.009389 190.142218 
L 181.039319 189.625596 
L 182.34372 189.625596 
L 182.34372 189.496441 
L 182.75592 189.496441 
L 182.796622 189.23813 
L 182.871002 189.23813 
L 182.877749 188.979819 
L 183.01884 188.979819 
L 183.112286 188.334041 
L 183.138895 188.334041 
L 183.158826 187.946575 
L 183.284542 187.946575 
L 183.337212 187.429953 
L 183.40938 187.429953 
L 183.520342 186.913331 
L 183.533351 186.913331 
L 183.578809 186.65502 
L 183.695172 186.65502 
L 183.695172 186.525864 
L 184.02081 186.525864 
L 184.128051 186.267553 
L 184.190834 186.267553 
L 184.190834 186.009242 
L 185.669672 186.009242 
L 185.669672 185.880087 
L 186.575221 185.880087 
L 186.575221 185.750931 
L 187.274334 185.750931 
L 187.274334 185.621776 
L 187.794095 185.621776 
L 187.794095 185.49262 
L 188.199285 185.49262 
L 188.199285 185.363465 
L 188.447941 185.363465 
L 188.551353 185.105154 
L 188.561171 185.105154 
L 188.590591 184.588532 
L 189.088235 184.588532 
L 189.16431 184.330221 
L 189.287245 184.330221 
L 189.339003 183.813599 
L 189.465412 183.813599 
L 189.535255 183.555288 
L 190.016657 183.555288 
L 190.016657 183.426132 
L 190.834512 183.426132 
L 190.916427 183.167821 
L 191.193855 183.167821 
L 191.193855 183.038666 
L 191.562715 183.038666 
L 191.562715 182.90951 
L 191.703214 182.90951 
L 191.703214 182.522044 
L 191.850783 182.522044 
L 191.850783 182.392888 
L 192.484414 182.392888 
L 192.582645 181.4888 
L 192.60614 181.4888 
L 192.625696 181.230489 
L 193.130576 181.230489 
L 193.130576 181.101333 
L 193.387133 181.101333 
L 193.465625 178.90569 
L 193.510323 178.90569 
L 193.510323 178.647378 
L 194.63139 178.647378 
L 194.718526 178.389067 
L 194.912183 178.389067 
L 194.98084 178.130756 
L 195.164909 178.130756 
L 195.164909 178.001601 
L 195.40742 178.001601 
L 195.40742 177.872445 
L 195.633476 177.872445 
L 195.633476 177.74329 
L 195.761846 177.74329 
L 195.843653 177.484979 
L 197.447558 177.484979 
L 197.447558 177.355823 
L 197.687681 177.355823 
L 197.690625 177.097512 
L 197.918806 177.097512 
L 197.968154 176.710046 
L 198.329718 176.710046 
L 198.329718 176.58089 
L 198.513417 176.58089 
L 198.513417 176.193424 
L 198.778548 176.193424 
L 198.778548 175.935113 
L 199.688551 175.935113 
L 199.741128 175.418491 
L 200.001715 175.418491 
L 200.001715 175.289335 
L 200.199808 175.289335 
L 200.306941 175.031024 
L 200.569489 175.031024 
L 200.569489 174.901869 
L 200.916936 174.901869 
L 200.997859 172.318759 
L 201.199788 172.318759 
L 201.199788 172.189603 
L 202.103113 172.189603 
L 202.15364 171.802137 
L 202.440301 171.802137 
L 202.440301 171.672981 
L 202.566244 171.672981 
L 202.566244 171.543826 
L 203.68255 171.543826 
L 203.684655 171.285515 
L 204.043113 171.285515 
L 204.043113 171.156359 
L 204.440992 171.156359 
L 204.440992 171.027204 
L 204.581687 171.027204 
L 204.581687 170.768893 
L 205.395704 170.768893 
L 205.395704 170.639737 
L 205.667172 170.639737 
L 205.667172 170.510582 
L 205.794829 170.510582 
L 205.794829 170.381426 
L 205.925294 170.381426 
L 205.925294 170.252271 
L 206.198039 170.252271 
L 206.25829 167.41085 
L 206.865748 167.41085 
L 206.865748 167.281694 
L 206.999145 167.281694 
L 207.088107 167.023383 
L 207.21295 167.023383 
L 207.21295 166.894228 
L 208.55402 166.894228 
L 208.55402 166.765072 
L 208.884362 166.765072 
L 208.884362 166.635917 
L 209.464924 166.635917 
L 209.464924 166.506761 
L 210.05229 166.506761 
L 210.05229 166.119295 
L 210.269125 166.119295 
L 210.317116 163.536185 
L 212.191866 163.536185 
L 212.191866 163.407029 
L 213.334092 163.407029 
L 213.412429 163.019563 
L 213.582603 163.019563 
L 213.622481 161.340541 
L 213.722387 161.340541 
L 213.722387 161.211385 
L 215.902807 161.211385 
L 215.902807 161.08223 
L 216.222905 161.08223 
L 216.222905 160.694763 
L 216.37669 160.694763 
L 216.410801 158.628275 
L 216.889676 158.628275 
L 216.889676 158.49912 
L 217.593453 158.49912 
L 217.593453 158.369964 
L 217.747432 158.369964 
L 217.845858 158.111653 
L 217.94564 158.111653 
L 217.94564 157.982498 
L 218.368929 157.982498 
L 218.368929 157.853342 
L 218.607033 157.853342 
L 218.6581 157.595031 
L 218.792366 157.595031 
L 218.822166 156.174321 
L 219.225418 156.174321 
L 219.237764 155.91601 
L 220.00645 155.91601 
L 220.00645 155.786854 
L 220.17036 155.786854 
L 220.17036 155.657699 
L 220.544609 155.657699 
L 220.55362 155.399388 
L 220.755577 155.399388 
L 220.755577 155.270232 
L 220.920009 155.270232 
L 221.012839 153.462055 
L 221.315957 153.462055 
L 221.315957 153.3329 
L 222.713965 153.3329 
L 222.821047 152.041345 
L 222.836189 152.041345 
L 222.844836 151.783034 
L 223.180257 151.783034 
L 223.180257 151.653878 
L 224.350752 151.653878 
L 224.447168 151.266412 
L 224.539137 151.266412 
L 224.560746 150.233168 
L 225.427454 150.233168 
L 225.429948 149.845701 
L 225.983557 149.845701 
L 226.022193 149.070768 
L 226.10642 149.070768 
L 226.126216 147.520902 
L 226.403441 147.520902 
L 226.403441 147.391747 
L 227.287902 147.391747 
L 227.295204 147.133436 
L 227.547249 147.133436 
L 227.611363 145.971036 
L 227.813798 145.971036 
L 227.813798 145.841881 
L 227.932325 145.841881 
L 227.932325 145.712725 
L 228.640981 145.712725 
L 228.640981 145.58357 
L 228.804294 145.58357 
L 228.897463 145.196103 
L 229.146266 145.196103 
L 229.146266 145.066948 
L 230.121163 145.066948 
L 230.136977 144.162859 
L 231.281236 144.162859 
L 231.281236 143.387926 
L 231.513794 143.387926 
L 231.513794 143.129615 
L 232.178465 143.129615 
L 232.178465 143.000459 
L 232.307889 143.000459 
L 232.384505 142.483837 
L 233.310056 142.483837 
L 233.397275 141.321438 
L 233.443511 141.321438 
L 233.443511 141.192282 
L 234.196506 141.192282 
L 234.196506 141.063127 
L 234.368185 141.063127 
L 234.380654 140.417349 
L 234.58273 140.417349 
L 234.58273 140.288194 
L 235.12603 140.288194 
L 235.235832 139.900727 
L 235.289046 139.900727 
L 235.300889 139.25495 
L 236.005787 139.25495 
L 236.116843 138.996639 
L 236.164766 138.996639 
L 236.204375 138.221706 
L 236.999564 138.221706 
L 237.010327 137.059306 
L 237.75086 137.059306 
L 237.833251 136.413529 
L 238.560545 136.413529 
L 238.570408 136.026062 
L 239.292707 136.026062 
L 239.292707 135.638596 
L 239.996046 135.638596 
L 239.996046 135.251129 
L 240.672744 135.251129 
L 240.678321 134.734507 
L 241.324747 134.734507 
L 241.35443 134.347041 
L 241.953794 134.347041 
L 241.961951 133.830419 
L 242.561446 133.830419 
L 242.561446 133.572108 
L 243.041724 133.572108 
L 243.149112 133.184641 
L 243.511923 133.184641 
L 243.616529 132.92633 
L 243.718063 132.92633 
L 243.718063 132.538864 
L 244.269456 132.538864 
L 244.269456 132.280553 
L 244.773118 132.280553 
L 244.804341 131.893086 
L 245.135348 131.893086 
L 245.228629 131.634775 
L 245.323679 131.634775 
L 245.323679 131.50562 
L 245.80046 131.50562 
L 245.834915 131.118153 
L 246.319153 131.118153 
L 246.323219 130.730687 
L 246.758332 130.730687 
L 246.803057 130.472376 
L 247.262081 130.472376 
L 247.262081 130.34322 
L 247.715519 130.34322 
L 247.715519 130.084909 
L 248.157734 130.084909 
L 248.157734 129.955754 
L 248.589268 129.955754 
L 248.594896 129.568287 
L 248.976613 129.568287 
L 249.010626 129.309976 
L 249.422276 129.309976 
L 249.422276 129.180821 
L 249.792159 129.180821 
L 249.792159 129.051665 
L 250.186385 129.051665 
L 250.195117 128.793354 
L 250.534207 128.793354 
L 250.534207 128.664199 
L 250.710005 128.664199 
L 250.710005 128.535043 
L 250.980125 128.535043 
L 250.980125 128.405888 
L 251.349253 128.405888 
L 251.349253 128.276732 
L 251.646062 128.276732 
L 251.646062 128.147577 
L 252.065391 128.147577 
L 252.065391 128.018421 
L 252.412977 128.018421 
L 252.41752 127.76011 
L 252.75393 127.76011 
L 252.758387 127.501799 
L 253.088498 127.501799 
L 253.088498 127.372643 
L 254.367438 127.372643 
L 254.367438 127.243488 
L 255.508659 127.243488 
L 255.508659 127.114332 
L 256.410098 127.114332 
L 256.410098 126.985177 
L 256.679649 126.985177 
L 256.683227 126.726866 
L 257.986227 126.726866 
L 257.986227 126.59771 
L 259.668428 126.59771 
L 259.668428 126.468555 
L 358.8 126.468555 
L 358.8 126.468555 
" style="fill:none;stroke:#ff00ff;stroke-linecap:square;stroke-width:1.5;"/>
   </g>
   <g id="line2d_48">
    <defs>
     <path d="M -0 8.485281 
L 5.091169 0 
L 0 -8.485281 
L -5.091169 -0 
z
" id="md6c1721a12" style="stroke:#ff00ff;stroke-linejoin:miter;stroke-width:1.5;"/>
    </defs>
    <g>
     <use style="fill:none;stroke:#ff00ff;stroke-linejoin:miter;stroke-width:1.5;" x="129.288847" xlink:href="#md6c1721a12" y="282.359248"/>
     <use style="fill:none;stroke:#ff00ff;stroke-linejoin:miter;stroke-width:1.5;" x="160.16306" xlink:href="#md6c1721a12" y="226.822381"/>
     <use style="fill:none;stroke:#ff00ff;stroke-linejoin:miter;stroke-width:1.5;" x="207.21295" xlink:href="#md6c1721a12" y="167.023383"/>
     <use style="fill:none;stroke:#ff00ff;stroke-linejoin:miter;stroke-width:1.5;" x="259.668428" xlink:href="#md6c1721a12" y="126.59771"/>
     <use style="fill:none;stroke:#ff00ff;stroke-linejoin:miter;stroke-width:1.5;" x="259.668428" xlink:href="#md6c1721a12" y="126.468555"/>
     <use style="fill:none;stroke:#ff00ff;stroke-linejoin:miter;stroke-width:1.5;" x="358.8" xlink:href="#md6c1721a12" y="126.468555"/>
    </g>
   </g>
   <g id="line2d_49"/>
   <g id="line2d_50">
    <path clip-path="url(#pb015ecbf3f)" d="M 181.843337 189.625596 
" style="fill:none;stroke:#ff00ff;stroke-linecap:square;stroke-width:1.5;"/>
    <defs>
     <path d="M -12 12 
L 12 -12 
M -12 -12 
L 12 12 
" id="m1aef3bf675" style="stroke:#ff00ff;stroke-width:3;"/>
    </defs>
    <g clip-path="url(#pb015ecbf3f)">
     <use style="fill:#ff00ff;stroke:#ff00ff;stroke-width:3;" x="181.843337" xlink:href="#m1aef3bf675" y="189.625596"/>
    </g>
   </g>
   <g id="line2d_51">
    <path d="M 358.8 126.468555 
L 390.48 292.97583 
" style="fill:none;stroke:#ff00ff;stroke-linecap:square;stroke-width:1.5;"/>
    <g>
     <use style="fill:none;stroke:#ff00ff;stroke-linejoin:miter;stroke-width:1.5;" x="358.8" xlink:href="#md6c1721a12" y="126.468555"/>
     <use style="fill:none;stroke:#ff00ff;stroke-linejoin:miter;stroke-width:1.5;" x="390.48" xlink:href="#md6c1721a12" y="292.97583"/>
    </g>
   </g>
   <g id="line2d_52">
    <path d="M 358.8 298.245375 
L 358.8 34.768147 
" style="fill:none;stroke:#000000;stroke-linecap:square;stroke-width:1.5;"/>
   </g>
   <g id="patch_3">
    <path d="M 70.8 298.245375 
L 70.8 32.133375 
" style="fill:none;stroke:#000000;stroke-linecap:square;stroke-linejoin:miter;stroke-width:0.8;"/>
   </g>
   <g id="patch_4">
    <path d="M 427.92 298.245375 
L 427.92 32.133375 
" style="fill:none;stroke:#000000;stroke-linecap:square;stroke-linejoin:miter;stroke-width:0.8;"/>
   </g>
   <g id="patch_5">
    <path d="M 70.8 298.245375 
L 427.92 298.245375 
" style="fill:none;stroke:#000000;stroke-linecap:square;stroke-linejoin:miter;stroke-width:0.8;"/>
   </g>
   <g id="patch_6">
    <path d="M 70.8 32.133375 
L 427.92 32.133375 
" style="fill:none;stroke:#000000;stroke-linecap:square;stroke-linejoin:miter;stroke-width:0.8;"/>
   </g>
   <g id="text_14">
    <!-- deapbbob -->
    <defs>
     <path d="M 48.6875 27.296875 
Q 48.6875 37.203125 44.609375 42.84375 
Q 40.53125 48.484375 33.40625 48.484375 
Q 26.265625 48.484375 22.1875 42.84375 
Q 18.109375 37.203125 18.109375 27.296875 
Q 18.109375 17.390625 22.1875 11.75 
Q 26.265625 6.109375 33.40625 6.109375 
Q 40.53125 6.109375 44.609375 11.75 
Q 48.6875 17.390625 48.6875 27.296875 
M 18.109375 46.390625 
Q 20.953125 51.265625 25.265625 53.625 
Q 29.59375 56 35.59375 56 
Q 45.5625 56 51.78125 48.09375 
Q 58.015625 40.1875 58.015625 27.296875 
Q 58.015625 14.40625 51.78125 6.484375 
Q 45.5625 -1.421875 35.59375 -1.421875 
Q 29.59375 -1.421875 25.265625 0.953125 
Q 20.953125 3.328125 18.109375 8.203125 
L 18.109375 0 
L 9.078125 0 
L 9.078125 75.984375 
L 18.109375 75.984375 
z
" id="DejaVuSans-62"/>
    </defs>
    <g transform="translate(396.24 297.114893)scale(0.15 -0.15)">
     <use xlink:href="#DejaVuSans-64"/>
     <use x="63.476562" xlink:href="#DejaVuSans-65"/>
     <use x="125" xlink:href="#DejaVuSans-61"/>
     <use x="186.279297" xlink:href="#DejaVuSans-70"/>
     <use x="249.755859" xlink:href="#DejaVuSans-62"/>
     <use x="313.232422" xlink:href="#DejaVuSans-62"/>
     <use x="376.708984" xlink:href="#DejaVuSans-6f"/>
     <use x="437.890625" xlink:href="#DejaVuSans-62"/>
    </g>
   </g>
   <g id="text_15">
    <!-- best 2009 -->
    <defs>
     <path d="M 10.984375 1.515625 
L 10.984375 10.5 
Q 14.703125 8.734375 18.5 7.8125 
Q 22.3125 6.890625 25.984375 6.890625 
Q 35.75 6.890625 40.890625 13.453125 
Q 46.046875 20.015625 46.78125 33.40625 
Q 43.953125 29.203125 39.59375 26.953125 
Q 35.25 24.703125 29.984375 24.703125 
Q 19.046875 24.703125 12.671875 31.3125 
Q 6.296875 37.9375 6.296875 49.421875 
Q 6.296875 60.640625 12.9375 67.421875 
Q 19.578125 74.21875 30.609375 74.21875 
Q 43.265625 74.21875 49.921875 64.515625 
Q 56.59375 54.828125 56.59375 36.375 
Q 56.59375 19.140625 48.40625 8.859375 
Q 40.234375 -1.421875 26.421875 -1.421875 
Q 22.703125 -1.421875 18.890625 -0.6875 
Q 15.09375 0.046875 10.984375 1.515625 
M 30.609375 32.421875 
Q 37.25 32.421875 41.125 36.953125 
Q 45.015625 41.5 45.015625 49.421875 
Q 45.015625 57.28125 41.125 61.84375 
Q 37.25 66.40625 30.609375 66.40625 
Q 23.96875 66.40625 20.09375 61.84375 
Q 16.21875 57.28125 16.21875 49.421875 
Q 16.21875 41.5 20.09375 36.953125 
Q 23.96875 32.421875 30.609375 32.421875 
" id="DejaVuSans-39"/>
    </defs>
    <g transform="translate(396.24 44.176754)scale(0.15 -0.15)">
     <use xlink:href="#DejaVuSans-62"/>
     <use x="63.476562" xlink:href="#DejaVuSans-65"/>
     <use x="125" xlink:href="#DejaVuSans-73"/>
     <use x="177.099609" xlink:href="#DejaVuSans-74"/>
     <use x="216.308594" xlink:href="#DejaVuSans-20"/>
     <use x="248.095703" xlink:href="#DejaVuSans-32"/>
     <use x="311.71875" xlink:href="#DejaVuSans-30"/>
     <use x="375.341797" xlink:href="#DejaVuSans-30"/>
     <use x="438.964844" xlink:href="#DejaVuSans-39"/>
    </g>
   </g>
   <g id="text_16">
    <!-- bbob - f6-f9, 5-D -->
    <defs>
     <path d="M 11.71875 12.40625 
L 22.015625 12.40625 
L 22.015625 4 
L 14.015625 -11.625 
L 7.71875 -11.625 
L 11.71875 4 
z
" id="DejaVuSans-2c"/>
     <path d="M 10.796875 72.90625 
L 49.515625 72.90625 
L 49.515625 64.59375 
L 19.828125 64.59375 
L 19.828125 46.734375 
Q 21.96875 47.46875 24.109375 47.828125 
Q 26.265625 48.1875 28.421875 48.1875 
Q 40.625 48.1875 47.75 41.5 
Q 54.890625 34.8125 54.890625 23.390625 
Q 54.890625 11.625 47.5625 5.09375 
Q 40.234375 -1.421875 26.90625 -1.421875 
Q 22.3125 -1.421875 17.546875 -0.640625 
Q 12.796875 0.140625 7.71875 1.703125 
L 7.71875 11.625 
Q 12.109375 9.234375 16.796875 8.0625 
Q 21.484375 6.890625 26.703125 6.890625 
Q 35.15625 6.890625 40.078125 11.328125 
Q 45.015625 15.765625 45.015625 23.390625 
Q 45.015625 31 40.078125 35.4375 
Q 35.15625 39.890625 26.703125 39.890625 
Q 22.75 39.890625 18.8125 39.015625 
Q 14.890625 38.140625 10.796875 36.28125 
z
" id="DejaVuSans-35"/>
     <path d="M 19.671875 64.796875 
L 19.671875 8.109375 
L 31.59375 8.109375 
Q 46.6875 8.109375 53.6875 14.9375 
Q 60.6875 21.78125 60.6875 36.53125 
Q 60.6875 51.171875 53.6875 57.984375 
Q 46.6875 64.796875 31.59375 64.796875 
z
M 9.8125 72.90625 
L 30.078125 72.90625 
Q 51.265625 72.90625 61.171875 64.09375 
Q 71.09375 55.28125 71.09375 36.53125 
Q 71.09375 17.671875 61.125 8.828125 
Q 51.171875 0 30.078125 0 
L 9.8125 0 
z
" id="DejaVuSans-44"/>
    </defs>
    <g transform="translate(74.3712 50.114612)scale(0.1666 -0.1666)">
     <use xlink:href="#DejaVuSans-62"/>
     <use x="63.476562" xlink:href="#DejaVuSans-62"/>
     <use x="126.953125" xlink:href="#DejaVuSans-6f"/>
     <use x="188.134766" xlink:href="#DejaVuSans-62"/>
     <use x="251.611328" xlink:href="#DejaVuSans-20"/>
     <use x="283.398438" xlink:href="#DejaVuSans-2d"/>
     <use x="319.482422" xlink:href="#DejaVuSans-20"/>
     <use x="351.269531" xlink:href="#DejaVuSans-66"/>
     <use x="386.474609" xlink:href="#DejaVuSans-36"/>
     <use x="450.097656" xlink:href="#DejaVuSans-2d"/>
     <use x="486.181641" xlink:href="#DejaVuSans-66"/>
     <use x="521.386719" xlink:href="#DejaVuSans-39"/>
     <use x="585.009766" xlink:href="#DejaVuSans-2c"/>
     <use x="616.796875" xlink:href="#DejaVuSans-20"/>
     <use x="648.583984" xlink:href="#DejaVuSans-35"/>
     <use x="712.207031" xlink:href="#DejaVuSans-2d"/>
     <use x="748.291016" xlink:href="#DejaVuSans-44"/>
    </g>
    <!-- 51 targets in 100..1e-08 -->
    <g transform="translate(74.3712 68.770168)scale(0.1666 -0.1666)">
     <use xlink:href="#DejaVuSans-35"/>
     <use x="63.623047" xlink:href="#DejaVuSans-31"/>
     <use x="127.246094" xlink:href="#DejaVuSans-20"/>
     <use x="159.033203" xlink:href="#DejaVuSans-74"/>
     <use x="198.242188" xlink:href="#DejaVuSans-61"/>
     <use x="259.521484" xlink:href="#DejaVuSans-72"/>
     <use x="300.619141" xlink:href="#DejaVuSans-67"/>
     <use x="364.095703" xlink:href="#DejaVuSans-65"/>
     <use x="425.619141" xlink:href="#DejaVuSans-74"/>
     <use x="464.828125" xlink:href="#DejaVuSans-73"/>
     <use x="516.927734" xlink:href="#DejaVuSans-20"/>
     <use x="548.714844" xlink:href="#DejaVuSans-69"/>
     <use x="576.498047" xlink:href="#DejaVuSans-6e"/>
     <use x="639.876953" xlink:href="#DejaVuSans-20"/>
     <use x="671.664062" xlink:href="#DejaVuSans-31"/>
     <use x="735.287109" xlink:href="#DejaVuSans-30"/>
     <use x="798.910156" xlink:href="#DejaVuSans-30"/>
     <use x="862.533203" xlink:href="#DejaVuSans-2e"/>
     <use x="894.320312" xlink:href="#DejaVuSans-2e"/>
     <use x="926.107422" xlink:href="#DejaVuSans-31"/>
     <use x="989.730469" xlink:href="#DejaVuSans-65"/>
     <use x="1051.253906" xlink:href="#DejaVuSans-2d"/>
     <use x="1087.337891" xlink:href="#DejaVuSans-30"/>
     <use x="1150.960938" xlink:href="#DejaVuSans-38"/>
    </g>
    <!-- 15 instances -->
    <g transform="translate(74.3712 87.425723)scale(0.1666 -0.1666)">
     <use xlink:href="#DejaVuSans-31"/>
     <use x="63.623047" xlink:href="#DejaVuSans-35"/>
     <use x="127.246094" xlink:href="#DejaVuSans-20"/>
     <use x="159.033203" xlink:href="#DejaVuSans-69"/>
     <use x="186.816406" xlink:href="#DejaVuSans-6e"/>
     <use x="250.195312" xlink:href="#DejaVuSans-73"/>
     <use x="302.294922" xlink:href="#DejaVuSans-74"/>
     <use x="341.503906" xlink:href="#DejaVuSans-61"/>
     <use x="402.783203" xlink:href="#DejaVuSans-6e"/>
     <use x="466.162109" xlink:href="#DejaVuSans-63"/>
     <use x="521.142578" xlink:href="#DejaVuSans-65"/>
     <use x="582.666016" xlink:href="#DejaVuSans-73"/>
    </g>
   </g>
   <g id="text_17">
    <!-- v2.1 -->
    <g style="fill:#808080;" transform="translate(238.449063 293.504568)scale(0.1 -0.1)">
     <use xlink:href="#DejaVuSans-76"/>
     <use x="59.179688" xlink:href="#DejaVuSans-32"/>
     <use x="122.802734" xlink:href="#DejaVuSans-2e"/>
     <use x="154.589844" xlink:href="#DejaVuSans-31"/>
    </g>
   </g>
  </g>
 </g>
 <defs>
  <clipPath id="pb015ecbf3f">
   <rect height="266.112" width="357.12" x="70.8" y="32.133375"/>
  </clipPath>
 </defs>
</svg>
