<?xml version="1.0" encoding="utf-8" standalone="no"?>
<!DOCTYPE svg PUBLIC "-//W3C//DTD SVG 1.1//EN"
  "http://www.w3.org/Graphics/SVG/1.1/DTD/svg11.dtd">
<!-- Created with matplotlib (http://matplotlib.org/) -->
<svg height="353pt" version="1.1" viewBox="0 0 478 353" width="478pt" xmlns="http://www.w3.org/2000/svg" xmlns:xlink="http://www.w3.org/1999/xlink">
 <defs>
  <style type="text/css">
*{stroke-linecap:butt;stroke-linejoin:round;}
  </style>
 </defs>
 <g id="figure_1">
  <g id="patch_1">
   <path d="M 0 353.22225 
L 478.829063 353.22225 
L 478.829063 0 
L 0 0 
z
" style="fill:#ffffff;"/>
  </g>
  <g id="axes_1">
   <g id="patch_2">
    <path d="M 70.8 298.245375 
L 427.92 298.245375 
L 427.92 32.133375 
L 70.8 32.133375 
z
" style="fill:#ffffff;"/>
   </g>
   <g id="line2d_1">
    <path d="M 29.657143 298.245375 
L 29.657143 292.045911 
L 42.042377 292.045911 
L 42.042377 291.012667 
L 49.287274 291.012667 
L 49.287274 289.979423 
L 54.427611 289.979423 
L 54.427611 288.946179 
L 70.8 288.946179 
L 70.8 287.912935 
L 81.30264 287.912935 
L 81.30264 286.879691 
L 90.430132 286.879691 
L 90.430132 282.746715 
L 91.016024 282.746715 
L 91.016024 279.646982 
L 91.583313 279.646982 
L 91.583313 277.580494 
L 95.570468 277.580494 
L 95.570468 276.54725 
L 96.862702 276.54725 
L 96.862702 275.514006 
L 98.067751 275.514006 
L 98.067751 274.480762 
L 101.582593 274.480762 
L 101.582593 273.447518 
L 103.401258 273.447518 
L 103.401258 272.414274 
L 104.518379 272.414274 
L 104.518379 271.38103 
L 107.272761 271.38103 
L 107.272761 270.347786 
L 111.581873 270.347786 
L 111.581873 269.314542 
L 115.495947 269.314542 
L 115.495947 268.281298 
L 116.630812 268.281298 
L 116.630812 267.248054 
L 119.773647 267.248054 
L 119.773647 266.21481 
L 120.562903 266.21481 
L 120.562903 265.181566 
L 128.171726 265.181566 
L 128.171726 264.148322 
L 133.966387 264.148322 
L 133.966387 263.115078 
L 143.838703 263.115078 
L 143.838703 262.081834 
L 144.858351 262.081834 
L 144.858351 261.04859 
L 145.083464 261.04859 
L 145.083464 260.015346 
L 148.392398 260.015346 
L 148.392398 258.982102 
L 149.364591 258.982102 
L 149.364591 257.948858 
L 150.370004 257.948858 
L 150.370004 256.915614 
L 151.498468 256.915614 
L 151.498468 255.88237 
L 158.566743 255.88237 
L 158.566743 254.849126 
L 159.87212 254.849126 
L 159.87212 253.815882 
L 167.463983 253.815882 
L 167.463983 252.782638 
L 171.660867 252.782638 
L 171.730233 250.71615 
L 173.76262 250.71615 
L 173.76262 249.682906 
L 174.941762 249.682906 
L 174.941762 248.649662 
L 179.280896 248.649662 
L 179.383717 246.583173 
L 179.412401 246.583173 
L 179.441039 244.516685 
L 179.526679 244.516685 
L 179.575432 242.450197 
L 179.640231 242.450197 
L 179.749048 239.350465 
L 179.90905 239.350465 
L 179.960743 237.283977 
L 180.020205 237.283977 
L 180.020205 236.250733 
L 180.287308 236.250733 
L 180.372876 234.184245 
L 180.423247 234.184245 
L 180.423247 233.151001 
L 180.741542 233.151001 
L 180.832532 231.084513 
L 180.949379 231.084513 
L 180.949379 230.051269 
L 181.128809 230.051269 
L 181.128809 229.018025 
L 181.32118 229.018025 
L 181.32118 227.984781 
L 181.47141 227.984781 
L 181.558767 225.918293 
L 181.811146 225.918293 
L 181.811146 224.885049 
L 182.017592 224.885049 
L 182.105848 222.818561 
L 182.440754 222.818561 
L 182.440754 221.785317 
L 182.571606 221.785317 
L 182.571606 220.752073 
L 182.687877 220.752073 
L 182.687877 219.718829 
L 184.178295 219.718829 
L 184.178295 218.685585 
L 184.421233 218.685585 
L 184.504563 216.619097 
L 185.393498 216.619097 
L 185.393498 215.585853 
L 185.681208 215.585853 
L 185.790423 213.519365 
L 185.839067 213.519365 
L 185.839067 212.48612 
L 186.122559 212.48612 
L 186.21793 210.419632 
L 186.40716 210.419632 
L 186.40716 209.386388 
L 186.536789 209.386388 
L 186.536789 208.353144 
L 186.651838 208.353144 
L 186.651838 207.3199 
L 186.858157 207.3199 
L 186.938948 205.253412 
L 186.979206 205.253412 
L 186.979206 204.220168 
L 187.189751 204.220168 
L 187.189751 203.186924 
L 187.30595 203.186924 
L 187.332253 201.120436 
L 187.536104 201.120436 
L 187.62424 196.98746 
L 187.660405 196.98746 
L 187.660405 195.954216 
L 187.90135 195.954216 
L 187.931876 193.887728 
L 188.08121 193.887728 
L 188.08121 192.854484 
L 189.453745 192.854484 
L 189.535255 189.754752 
L 190.871205 189.754752 
L 190.8906 187.688264 
L 191.09405 187.688264 
L 191.170546 184.588532 
L 191.265708 184.588532 
L 191.265708 183.555288 
L 194.708092 183.555288 
L 194.800048 178.389067 
L 194.844986 178.389067 
L 194.857066 176.322579 
L 196.415532 176.322579 
L 196.497554 173.222847 
L 199.556429 173.222847 
L 199.633179 170.123115 
L 199.870593 170.123115 
L 199.904439 168.056627 
L 200.685642 168.056627 
L 200.685642 167.023383 
L 200.840581 167.023383 
L 200.92922 164.956895 
L 200.9795 164.956895 
L 200.9795 163.923651 
L 201.397069 163.923651 
L 201.397069 162.890407 
L 201.973851 162.890407 
L 201.973851 161.857163 
L 203.095078 161.857163 
L 203.095078 160.823919 
L 204.595695 160.823919 
L 204.595695 159.790675 
L 216.657954 159.790675 
L 216.657954 158.757431 
L 219.628828 158.757431 
L 219.628828 157.724187 
L 222.958656 157.724187 
L 222.958656 156.690943 
L 227.636449 156.690943 
L 227.636449 155.657699 
L 228.177472 155.657699 
L 228.177472 154.624455 
L 232.093448 154.624455 
L 232.093448 153.591211 
L 232.527123 153.591211 
L 232.527123 152.557967 
L 235.14866 152.557967 
L 235.14866 151.524723 
L 244.646507 151.524723 
L 244.646507 150.491479 
L 246.256785 150.491479 
L 246.333767 148.424991 
L 247.871098 148.424991 
L 247.921891 146.358503 
L 247.986128 146.358503 
L 248.067001 144.292014 
L 248.12827 144.292014 
L 248.229224 141.192282 
L 248.27146 141.192282 
L 248.369021 138.09255 
L 248.409119 138.09255 
L 248.490677 134.992818 
L 248.537176 134.992818 
L 248.628366 131.893086 
L 248.658716 131.893086 
L 248.744641 128.793354 
L 248.778085 128.793354 
L 248.853275 125.693622 
L 248.890374 125.693622 
L 248.970521 122.59389 
L 249.025611 122.59389 
L 249.122958 119.494158 
L 249.161732 119.494158 
L 249.161732 118.460914 
L 254.469649 118.460914 
L 254.469649 117.42767 
L 262.322058 117.42767 
L 262.322058 116.394426 
L 263.054981 116.394426 
L 263.054981 115.361182 
L 265.832325 115.361182 
L 265.832325 114.327938 
L 265.947735 114.327938 
L 265.947735 113.294694 
L 266.152682 113.294694 
L 266.249679 111.228206 
L 266.357733 111.228206 
L 266.446973 107.095229 
L 266.488671 107.095229 
L 266.595326 101.929009 
L 266.61875 101.929009 
L 266.702832 97.796033 
L 266.734613 97.796033 
L 266.834531 92.629813 
L 266.85338 92.629813 
L 266.964321 87.463593 
L 266.987084 87.463593 
L 267.08618 82.297373 
L 267.11387 82.297373 
L 267.17997 78.164397 
L 274.723417 78.164397 
L 274.723417 77.131153 
L 277.300101 77.131153 
L 277.300101 76.097908 
L 297.008796 76.097908 
L 297.008796 75.064664 
L 305.184427 75.064664 
L 305.184427 74.03142 
L 327.532594 74.03142 
L 327.532594 72.998176 
L 353.599634 72.998176 
L 353.607313 34.768147 
L 358.8 34.768147 
L 358.8 34.768147 
" style="fill:none;stroke:#f5deb3;stroke-linecap:square;stroke-width:6;"/>
   </g>
   <g id="line2d_2"/>
   <g id="line2d_3">
    <path d="M 358.8 34.768147 
L 390.48 40.037692 
" style="fill:none;stroke:#f5deb3;stroke-linecap:square;stroke-width:6;"/>
    <defs>
     <path d="M -0 7.778175 
L 7.778175 0 
L 0 -7.778175 
L -7.778175 -0 
z
" id="m5b6ff8bd67" style="stroke:#f5deb3;stroke-linejoin:miter;stroke-width:1.5;"/>
    </defs>
    <g>
     <use style="fill:#f5deb3;stroke:#f5deb3;stroke-linejoin:miter;stroke-width:1.5;" x="358.8" xlink:href="#m5b6ff8bd67" y="34.768147"/>
     <use style="fill:#f5deb3;stroke:#f5deb3;stroke-linejoin:miter;stroke-width:1.5;" x="390.48" xlink:href="#m5b6ff8bd67" y="40.037692"/>
    </g>
   </g>
   <g id="matplotlib.axis_1">
    <g id="xtick_1">
     <g id="line2d_4">
      <path clip-path="url(#pf792601e81)" d="M 70.8 298.245375 
L 70.8 32.133375 
" style="fill:none;stroke:#b0b0b0;stroke-linecap:square;stroke-width:0.8;"/>
     </g>
     <g id="line2d_5">
      <defs>
       <path d="M 0 0 
L 0 3.5 
" id="m9072f22cce" style="stroke:#000000;stroke-width:0.8;"/>
      </defs>
      <g>
       <use style="stroke:#000000;stroke-width:0.8;" x="70.8" xlink:href="#m9072f22cce" y="298.245375"/>
      </g>
     </g>
     <g id="text_1">
      <!-- 0 -->
      <defs>
       <path d="M 31.78125 66.40625 
Q 24.171875 66.40625 20.328125 58.90625 
Q 16.5 51.421875 16.5 36.375 
Q 16.5 21.390625 20.328125 13.890625 
Q 24.171875 6.390625 31.78125 6.390625 
Q 39.453125 6.390625 43.28125 13.890625 
Q 47.125 21.390625 47.125 36.375 
Q 47.125 51.421875 43.28125 58.90625 
Q 39.453125 66.40625 31.78125 66.40625 
M 31.78125 74.21875 
Q 44.046875 74.21875 50.515625 64.515625 
Q 56.984375 54.828125 56.984375 36.375 
Q 56.984375 17.96875 50.515625 8.265625 
Q 44.046875 -1.421875 31.78125 -1.421875 
Q 19.53125 -1.421875 13.0625 8.265625 
Q 6.59375 17.96875 6.59375 36.375 
Q 6.59375 54.828125 13.0625 64.515625 
Q 19.53125 74.21875 31.78125 74.21875 
" id="DejaVuSans-30"/>
      </defs>
      <g transform="translate(64.4375 320.44225)scale(0.2 -0.2)">
       <use xlink:href="#DejaVuSans-30"/>
      </g>
     </g>
    </g>
    <g id="xtick_2">
     <g id="line2d_6">
      <path clip-path="url(#pf792601e81)" d="M 153.085714 298.245375 
L 153.085714 32.133375 
" style="fill:none;stroke:#b0b0b0;stroke-linecap:square;stroke-width:0.8;"/>
     </g>
     <g id="line2d_7">
      <g>
       <use style="stroke:#000000;stroke-width:0.8;" x="153.085714" xlink:href="#m9072f22cce" y="298.245375"/>
      </g>
     </g>
     <g id="text_2">
      <!-- 2 -->
      <defs>
       <path d="M 19.1875 8.296875 
L 53.609375 8.296875 
L 53.609375 0 
L 7.328125 0 
L 7.328125 8.296875 
Q 12.9375 14.109375 22.625 23.890625 
Q 32.328125 33.6875 34.8125 36.53125 
Q 39.546875 41.84375 41.421875 45.53125 
Q 43.3125 49.21875 43.3125 52.78125 
Q 43.3125 58.59375 39.234375 62.25 
Q 35.15625 65.921875 28.609375 65.921875 
Q 23.96875 65.921875 18.8125 64.3125 
Q 13.671875 62.703125 7.8125 59.421875 
L 7.8125 69.390625 
Q 13.765625 71.78125 18.9375 73 
Q 24.125 74.21875 28.421875 74.21875 
Q 39.75 74.21875 46.484375 68.546875 
Q 53.21875 62.890625 53.21875 53.421875 
Q 53.21875 48.921875 51.53125 44.890625 
Q 49.859375 40.875 45.40625 35.40625 
Q 44.1875 33.984375 37.640625 27.21875 
Q 31.109375 20.453125 19.1875 8.296875 
" id="DejaVuSans-32"/>
      </defs>
      <g transform="translate(146.723214 320.44225)scale(0.2 -0.2)">
       <use xlink:href="#DejaVuSans-32"/>
      </g>
     </g>
    </g>
    <g id="xtick_3">
     <g id="line2d_8">
      <path clip-path="url(#pf792601e81)" d="M 235.371429 298.245375 
L 235.371429 32.133375 
" style="fill:none;stroke:#b0b0b0;stroke-linecap:square;stroke-width:0.8;"/>
     </g>
     <g id="line2d_9">
      <g>
       <use style="stroke:#000000;stroke-width:0.8;" x="235.371429" xlink:href="#m9072f22cce" y="298.245375"/>
      </g>
     </g>
     <g id="text_3">
      <!-- 4 -->
      <defs>
       <path d="M 37.796875 64.3125 
L 12.890625 25.390625 
L 37.796875 25.390625 
z
M 35.203125 72.90625 
L 47.609375 72.90625 
L 47.609375 25.390625 
L 58.015625 25.390625 
L 58.015625 17.1875 
L 47.609375 17.1875 
L 47.609375 0 
L 37.796875 0 
L 37.796875 17.1875 
L 4.890625 17.1875 
L 4.890625 26.703125 
z
" id="DejaVuSans-34"/>
      </defs>
      <g transform="translate(229.008929 320.44225)scale(0.2 -0.2)">
       <use xlink:href="#DejaVuSans-34"/>
      </g>
     </g>
    </g>
    <g id="xtick_4">
     <g id="line2d_10">
      <path clip-path="url(#pf792601e81)" d="M 317.657143 298.245375 
L 317.657143 32.133375 
" style="fill:none;stroke:#b0b0b0;stroke-linecap:square;stroke-width:0.8;"/>
     </g>
     <g id="line2d_11">
      <g>
       <use style="stroke:#000000;stroke-width:0.8;" x="317.657143" xlink:href="#m9072f22cce" y="298.245375"/>
      </g>
     </g>
     <g id="text_4">
      <!-- 6 -->
      <defs>
       <path d="M 33.015625 40.375 
Q 26.375 40.375 22.484375 35.828125 
Q 18.609375 31.296875 18.609375 23.390625 
Q 18.609375 15.53125 22.484375 10.953125 
Q 26.375 6.390625 33.015625 6.390625 
Q 39.65625 6.390625 43.53125 10.953125 
Q 47.40625 15.53125 47.40625 23.390625 
Q 47.40625 31.296875 43.53125 35.828125 
Q 39.65625 40.375 33.015625 40.375 
M 52.59375 71.296875 
L 52.59375 62.3125 
Q 48.875 64.0625 45.09375 64.984375 
Q 41.3125 65.921875 37.59375 65.921875 
Q 27.828125 65.921875 22.671875 59.328125 
Q 17.53125 52.734375 16.796875 39.40625 
Q 19.671875 43.65625 24.015625 45.921875 
Q 28.375 48.1875 33.59375 48.1875 
Q 44.578125 48.1875 50.953125 41.515625 
Q 57.328125 34.859375 57.328125 23.390625 
Q 57.328125 12.15625 50.6875 5.359375 
Q 44.046875 -1.421875 33.015625 -1.421875 
Q 20.359375 -1.421875 13.671875 8.265625 
Q 6.984375 17.96875 6.984375 36.375 
Q 6.984375 53.65625 15.1875 63.9375 
Q 23.390625 74.21875 37.203125 74.21875 
Q 40.921875 74.21875 44.703125 73.484375 
Q 48.484375 72.75 52.59375 71.296875 
" id="DejaVuSans-36"/>
      </defs>
      <g transform="translate(311.294643 320.44225)scale(0.2 -0.2)">
       <use xlink:href="#DejaVuSans-36"/>
      </g>
     </g>
    </g>
    <g id="xtick_5">
     <g id="line2d_12">
      <path clip-path="url(#pf792601e81)" d="M 399.942857 298.245375 
L 399.942857 32.133375 
" style="fill:none;stroke:#b0b0b0;stroke-linecap:square;stroke-width:0.8;"/>
     </g>
     <g id="line2d_13">
      <g>
       <use style="stroke:#000000;stroke-width:0.8;" x="399.942857" xlink:href="#m9072f22cce" y="298.245375"/>
      </g>
     </g>
     <g id="text_5">
      <!-- 8 -->
      <defs>
       <path d="M 31.78125 34.625 
Q 24.75 34.625 20.71875 30.859375 
Q 16.703125 27.09375 16.703125 20.515625 
Q 16.703125 13.921875 20.71875 10.15625 
Q 24.75 6.390625 31.78125 6.390625 
Q 38.8125 6.390625 42.859375 10.171875 
Q 46.921875 13.96875 46.921875 20.515625 
Q 46.921875 27.09375 42.890625 30.859375 
Q 38.875 34.625 31.78125 34.625 
M 21.921875 38.8125 
Q 15.578125 40.375 12.03125 44.71875 
Q 8.5 49.078125 8.5 55.328125 
Q 8.5 64.0625 14.71875 69.140625 
Q 20.953125 74.21875 31.78125 74.21875 
Q 42.671875 74.21875 48.875 69.140625 
Q 55.078125 64.0625 55.078125 55.328125 
Q 55.078125 49.078125 51.53125 44.71875 
Q 48 40.375 41.703125 38.8125 
Q 48.828125 37.15625 52.796875 32.3125 
Q 56.78125 27.484375 56.78125 20.515625 
Q 56.78125 9.90625 50.3125 4.234375 
Q 43.84375 -1.421875 31.78125 -1.421875 
Q 19.734375 -1.421875 13.25 4.234375 
Q 6.78125 9.90625 6.78125 20.515625 
Q 6.78125 27.484375 10.78125 32.3125 
Q 14.796875 37.15625 21.921875 38.8125 
M 18.3125 54.390625 
Q 18.3125 48.734375 21.84375 45.5625 
Q 25.390625 42.390625 31.78125 42.390625 
Q 38.140625 42.390625 41.71875 45.5625 
Q 45.3125 48.734375 45.3125 54.390625 
Q 45.3125 60.0625 41.71875 63.234375 
Q 38.140625 66.40625 31.78125 66.40625 
Q 25.390625 66.40625 21.84375 63.234375 
Q 18.3125 60.0625 18.3125 54.390625 
" id="DejaVuSans-38"/>
      </defs>
      <g transform="translate(393.580357 320.44225)scale(0.2 -0.2)">
       <use xlink:href="#DejaVuSans-38"/>
      </g>
     </g>
    </g>
    <g id="xtick_6">
     <g id="line2d_14">
      <defs>
       <path d="M 0 0 
L 0 2 
" id="m62d689ba94" style="stroke:#000000;stroke-width:0.6;"/>
      </defs>
      <g>
       <use style="stroke:#000000;stroke-width:0.6;" x="83.185234" xlink:href="#m62d689ba94" y="298.245375"/>
      </g>
     </g>
    </g>
    <g id="xtick_7">
     <g id="line2d_15">
      <g>
       <use style="stroke:#000000;stroke-width:0.6;" x="95.570468" xlink:href="#m62d689ba94" y="298.245375"/>
      </g>
     </g>
    </g>
    <g id="xtick_8">
     <g id="line2d_16">
      <g>
       <use style="stroke:#000000;stroke-width:0.6;" x="102.815366" xlink:href="#m62d689ba94" y="298.245375"/>
      </g>
     </g>
    </g>
    <g id="xtick_9">
     <g id="line2d_17">
      <g>
       <use style="stroke:#000000;stroke-width:0.6;" x="107.955702" xlink:href="#m62d689ba94" y="298.245375"/>
      </g>
     </g>
    </g>
    <g id="xtick_10">
     <g id="line2d_18">
      <g>
       <use style="stroke:#000000;stroke-width:0.6;" x="165.470948" xlink:href="#m62d689ba94" y="298.245375"/>
      </g>
     </g>
    </g>
    <g id="xtick_11">
     <g id="line2d_19">
      <g>
       <use style="stroke:#000000;stroke-width:0.6;" x="177.856183" xlink:href="#m62d689ba94" y="298.245375"/>
      </g>
     </g>
    </g>
    <g id="xtick_12">
     <g id="line2d_20">
      <g>
       <use style="stroke:#000000;stroke-width:0.6;" x="185.10108" xlink:href="#m62d689ba94" y="298.245375"/>
      </g>
     </g>
    </g>
    <g id="xtick_13">
     <g id="line2d_21">
      <g>
       <use style="stroke:#000000;stroke-width:0.6;" x="190.241417" xlink:href="#m62d689ba94" y="298.245375"/>
      </g>
     </g>
    </g>
    <g id="xtick_14">
     <g id="line2d_22">
      <g>
       <use style="stroke:#000000;stroke-width:0.6;" x="247.756663" xlink:href="#m62d689ba94" y="298.245375"/>
      </g>
     </g>
    </g>
    <g id="xtick_15">
     <g id="line2d_23">
      <g>
       <use style="stroke:#000000;stroke-width:0.6;" x="260.141897" xlink:href="#m62d689ba94" y="298.245375"/>
      </g>
     </g>
    </g>
    <g id="xtick_16">
     <g id="line2d_24">
      <g>
       <use style="stroke:#000000;stroke-width:0.6;" x="267.386794" xlink:href="#m62d689ba94" y="298.245375"/>
      </g>
     </g>
    </g>
    <g id="xtick_17">
     <g id="line2d_25">
      <g>
       <use style="stroke:#000000;stroke-width:0.6;" x="272.527131" xlink:href="#m62d689ba94" y="298.245375"/>
      </g>
     </g>
    </g>
    <g id="xtick_18">
     <g id="line2d_26">
      <g>
       <use style="stroke:#000000;stroke-width:0.6;" x="330.042377" xlink:href="#m62d689ba94" y="298.245375"/>
      </g>
     </g>
    </g>
    <g id="xtick_19">
     <g id="line2d_27">
      <g>
       <use style="stroke:#000000;stroke-width:0.6;" x="342.427611" xlink:href="#m62d689ba94" y="298.245375"/>
      </g>
     </g>
    </g>
    <g id="xtick_20">
     <g id="line2d_28">
      <g>
       <use style="stroke:#000000;stroke-width:0.6;" x="349.672509" xlink:href="#m62d689ba94" y="298.245375"/>
      </g>
     </g>
    </g>
    <g id="xtick_21">
     <g id="line2d_29">
      <g>
       <use style="stroke:#000000;stroke-width:0.6;" x="354.812845" xlink:href="#m62d689ba94" y="298.245375"/>
      </g>
     </g>
    </g>
    <g id="xtick_22">
     <g id="line2d_30">
      <g>
       <use style="stroke:#000000;stroke-width:0.6;" x="412.328091" xlink:href="#m62d689ba94" y="298.245375"/>
      </g>
     </g>
    </g>
    <g id="xtick_23">
     <g id="line2d_31">
      <g>
       <use style="stroke:#000000;stroke-width:0.6;" x="424.713325" xlink:href="#m62d689ba94" y="298.245375"/>
      </g>
     </g>
    </g>
    <g id="text_6">
     <!-- log10 of (# f-evals / dimension) -->
     <defs>
      <path d="M 9.421875 75.984375 
L 18.40625 75.984375 
L 18.40625 0 
L 9.421875 0 
z
" id="DejaVuSans-6c"/>
      <path d="M 30.609375 48.390625 
Q 23.390625 48.390625 19.1875 42.75 
Q 14.984375 37.109375 14.984375 27.296875 
Q 14.984375 17.484375 19.15625 11.84375 
Q 23.34375 6.203125 30.609375 6.203125 
Q 37.796875 6.203125 41.984375 11.859375 
Q 46.1875 17.53125 46.1875 27.296875 
Q 46.1875 37.015625 41.984375 42.703125 
Q 37.796875 48.390625 30.609375 48.390625 
M 30.609375 56 
Q 42.328125 56 49.015625 48.375 
Q 55.71875 40.765625 55.71875 27.296875 
Q 55.71875 13.875 49.015625 6.21875 
Q 42.328125 -1.421875 30.609375 -1.421875 
Q 18.84375 -1.421875 12.171875 6.21875 
Q 5.515625 13.875 5.515625 27.296875 
Q 5.515625 40.765625 12.171875 48.375 
Q 18.84375 56 30.609375 56 
" id="DejaVuSans-6f"/>
      <path d="M 45.40625 27.984375 
Q 45.40625 37.75 41.375 43.109375 
Q 37.359375 48.484375 30.078125 48.484375 
Q 22.859375 48.484375 18.828125 43.109375 
Q 14.796875 37.75 14.796875 27.984375 
Q 14.796875 18.265625 18.828125 12.890625 
Q 22.859375 7.515625 30.078125 7.515625 
Q 37.359375 7.515625 41.375 12.890625 
Q 45.40625 18.265625 45.40625 27.984375 
M 54.390625 6.78125 
Q 54.390625 -7.171875 48.1875 -13.984375 
Q 42 -20.796875 29.203125 -20.796875 
Q 24.46875 -20.796875 20.265625 -20.09375 
Q 16.0625 -19.390625 12.109375 -17.921875 
L 12.109375 -9.1875 
Q 16.0625 -11.328125 19.921875 -12.34375 
Q 23.78125 -13.375 27.78125 -13.375 
Q 36.625 -13.375 41.015625 -8.765625 
Q 45.40625 -4.15625 45.40625 5.171875 
L 45.40625 9.625 
Q 42.625 4.78125 38.28125 2.390625 
Q 33.9375 0 27.875 0 
Q 17.828125 0 11.671875 7.65625 
Q 5.515625 15.328125 5.515625 27.984375 
Q 5.515625 40.671875 11.671875 48.328125 
Q 17.828125 56 27.875 56 
Q 33.9375 56 38.28125 53.609375 
Q 42.625 51.21875 45.40625 46.390625 
L 45.40625 54.6875 
L 54.390625 54.6875 
z
" id="DejaVuSans-67"/>
      <path d="M 12.40625 8.296875 
L 28.515625 8.296875 
L 28.515625 63.921875 
L 10.984375 60.40625 
L 10.984375 69.390625 
L 28.421875 72.90625 
L 38.28125 72.90625 
L 38.28125 8.296875 
L 54.390625 8.296875 
L 54.390625 0 
L 12.40625 0 
z
" id="DejaVuSans-31"/>
      <path id="DejaVuSans-20"/>
      <path d="M 37.109375 75.984375 
L 37.109375 68.5 
L 28.515625 68.5 
Q 23.6875 68.5 21.796875 66.546875 
Q 19.921875 64.59375 19.921875 59.515625 
L 19.921875 54.6875 
L 34.71875 54.6875 
L 34.71875 47.703125 
L 19.921875 47.703125 
L 19.921875 0 
L 10.890625 0 
L 10.890625 47.703125 
L 2.296875 47.703125 
L 2.296875 54.6875 
L 10.890625 54.6875 
L 10.890625 58.5 
Q 10.890625 67.625 15.140625 71.796875 
Q 19.390625 75.984375 28.609375 75.984375 
z
" id="DejaVuSans-66"/>
      <path d="M 31 75.875 
Q 24.46875 64.65625 21.28125 53.65625 
Q 18.109375 42.671875 18.109375 31.390625 
Q 18.109375 20.125 21.3125 9.0625 
Q 24.515625 -2 31 -13.1875 
L 23.1875 -13.1875 
Q 15.875 -1.703125 12.234375 9.375 
Q 8.59375 20.453125 8.59375 31.390625 
Q 8.59375 42.28125 12.203125 53.3125 
Q 15.828125 64.359375 23.1875 75.875 
z
" id="DejaVuSans-28"/>
      <path d="M 51.125 44 
L 36.921875 44 
L 32.8125 27.6875 
L 47.125 27.6875 
z
M 43.796875 71.78125 
L 38.71875 51.515625 
L 52.984375 51.515625 
L 58.109375 71.78125 
L 65.921875 71.78125 
L 60.890625 51.515625 
L 76.125 51.515625 
L 76.125 44 
L 58.984375 44 
L 54.984375 27.6875 
L 70.515625 27.6875 
L 70.515625 20.21875 
L 53.078125 20.21875 
L 48 0 
L 40.1875 0 
L 45.21875 20.21875 
L 30.90625 20.21875 
L 25.875 0 
L 18.015625 0 
L 23.09375 20.21875 
L 7.71875 20.21875 
L 7.71875 27.6875 
L 24.90625 27.6875 
L 29 44 
L 13.28125 44 
L 13.28125 51.515625 
L 30.90625 51.515625 
L 35.890625 71.78125 
z
" id="DejaVuSans-23"/>
      <path d="M 4.890625 31.390625 
L 31.203125 31.390625 
L 31.203125 23.390625 
L 4.890625 23.390625 
z
" id="DejaVuSans-2d"/>
      <path d="M 56.203125 29.59375 
L 56.203125 25.203125 
L 14.890625 25.203125 
Q 15.484375 15.921875 20.484375 11.0625 
Q 25.484375 6.203125 34.421875 6.203125 
Q 39.59375 6.203125 44.453125 7.46875 
Q 49.3125 8.734375 54.109375 11.28125 
L 54.109375 2.78125 
Q 49.265625 0.734375 44.1875 -0.34375 
Q 39.109375 -1.421875 33.890625 -1.421875 
Q 20.796875 -1.421875 13.15625 6.1875 
Q 5.515625 13.8125 5.515625 26.8125 
Q 5.515625 40.234375 12.765625 48.109375 
Q 20.015625 56 32.328125 56 
Q 43.359375 56 49.78125 48.890625 
Q 56.203125 41.796875 56.203125 29.59375 
M 47.21875 32.234375 
Q 47.125 39.59375 43.09375 43.984375 
Q 39.0625 48.390625 32.421875 48.390625 
Q 24.90625 48.390625 20.390625 44.140625 
Q 15.875 39.890625 15.1875 32.171875 
z
" id="DejaVuSans-65"/>
      <path d="M 2.984375 54.6875 
L 12.5 54.6875 
L 29.59375 8.796875 
L 46.6875 54.6875 
L 56.203125 54.6875 
L 35.6875 0 
L 23.484375 0 
z
" id="DejaVuSans-76"/>
      <path d="M 34.28125 27.484375 
Q 23.390625 27.484375 19.1875 25 
Q 14.984375 22.515625 14.984375 16.5 
Q 14.984375 11.71875 18.140625 8.90625 
Q 21.296875 6.109375 26.703125 6.109375 
Q 34.1875 6.109375 38.703125 11.40625 
Q 43.21875 16.703125 43.21875 25.484375 
L 43.21875 27.484375 
z
M 52.203125 31.203125 
L 52.203125 0 
L 43.21875 0 
L 43.21875 8.296875 
Q 40.140625 3.328125 35.546875 0.953125 
Q 30.953125 -1.421875 24.3125 -1.421875 
Q 15.921875 -1.421875 10.953125 3.296875 
Q 6 8.015625 6 15.921875 
Q 6 25.140625 12.171875 29.828125 
Q 18.359375 34.515625 30.609375 34.515625 
L 43.21875 34.515625 
L 43.21875 35.40625 
Q 43.21875 41.609375 39.140625 45 
Q 35.0625 48.390625 27.6875 48.390625 
Q 23 48.390625 18.546875 47.265625 
Q 14.109375 46.140625 10.015625 43.890625 
L 10.015625 52.203125 
Q 14.9375 54.109375 19.578125 55.046875 
Q 24.21875 56 28.609375 56 
Q 40.484375 56 46.34375 49.84375 
Q 52.203125 43.703125 52.203125 31.203125 
" id="DejaVuSans-61"/>
      <path d="M 44.28125 53.078125 
L 44.28125 44.578125 
Q 40.484375 46.53125 36.375 47.5 
Q 32.28125 48.484375 27.875 48.484375 
Q 21.1875 48.484375 17.84375 46.4375 
Q 14.5 44.390625 14.5 40.28125 
Q 14.5 37.15625 16.890625 35.375 
Q 19.28125 33.59375 26.515625 31.984375 
L 29.59375 31.296875 
Q 39.15625 29.25 43.1875 25.515625 
Q 47.21875 21.78125 47.21875 15.09375 
Q 47.21875 7.46875 41.1875 3.015625 
Q 35.15625 -1.421875 24.609375 -1.421875 
Q 20.21875 -1.421875 15.453125 -0.5625 
Q 10.6875 0.296875 5.421875 2 
L 5.421875 11.28125 
Q 10.40625 8.6875 15.234375 7.390625 
Q 20.0625 6.109375 24.8125 6.109375 
Q 31.15625 6.109375 34.5625 8.28125 
Q 37.984375 10.453125 37.984375 14.40625 
Q 37.984375 18.0625 35.515625 20.015625 
Q 33.0625 21.96875 24.703125 23.78125 
L 21.578125 24.515625 
Q 13.234375 26.265625 9.515625 29.90625 
Q 5.8125 33.546875 5.8125 39.890625 
Q 5.8125 47.609375 11.28125 51.796875 
Q 16.75 56 26.8125 56 
Q 31.78125 56 36.171875 55.265625 
Q 40.578125 54.546875 44.28125 53.078125 
" id="DejaVuSans-73"/>
      <path d="M 25.390625 72.90625 
L 33.6875 72.90625 
L 8.296875 -9.28125 
L 0 -9.28125 
z
" id="DejaVuSans-2f"/>
      <path d="M 45.40625 46.390625 
L 45.40625 75.984375 
L 54.390625 75.984375 
L 54.390625 0 
L 45.40625 0 
L 45.40625 8.203125 
Q 42.578125 3.328125 38.25 0.953125 
Q 33.9375 -1.421875 27.875 -1.421875 
Q 17.96875 -1.421875 11.734375 6.484375 
Q 5.515625 14.40625 5.515625 27.296875 
Q 5.515625 40.1875 11.734375 48.09375 
Q 17.96875 56 27.875 56 
Q 33.9375 56 38.25 53.625 
Q 42.578125 51.265625 45.40625 46.390625 
M 14.796875 27.296875 
Q 14.796875 17.390625 18.875 11.75 
Q 22.953125 6.109375 30.078125 6.109375 
Q 37.203125 6.109375 41.296875 11.75 
Q 45.40625 17.390625 45.40625 27.296875 
Q 45.40625 37.203125 41.296875 42.84375 
Q 37.203125 48.484375 30.078125 48.484375 
Q 22.953125 48.484375 18.875 42.84375 
Q 14.796875 37.203125 14.796875 27.296875 
" id="DejaVuSans-64"/>
      <path d="M 9.421875 54.6875 
L 18.40625 54.6875 
L 18.40625 0 
L 9.421875 0 
z
M 9.421875 75.984375 
L 18.40625 75.984375 
L 18.40625 64.59375 
L 9.421875 64.59375 
z
" id="DejaVuSans-69"/>
      <path d="M 52 44.1875 
Q 55.375 50.25 60.0625 53.125 
Q 64.75 56 71.09375 56 
Q 79.640625 56 84.28125 50.015625 
Q 88.921875 44.046875 88.921875 33.015625 
L 88.921875 0 
L 79.890625 0 
L 79.890625 32.71875 
Q 79.890625 40.578125 77.09375 44.375 
Q 74.3125 48.1875 68.609375 48.1875 
Q 61.625 48.1875 57.5625 43.546875 
Q 53.515625 38.921875 53.515625 30.90625 
L 53.515625 0 
L 44.484375 0 
L 44.484375 32.71875 
Q 44.484375 40.625 41.703125 44.40625 
Q 38.921875 48.1875 33.109375 48.1875 
Q 26.21875 48.1875 22.15625 43.53125 
Q 18.109375 38.875 18.109375 30.90625 
L 18.109375 0 
L 9.078125 0 
L 9.078125 54.6875 
L 18.109375 54.6875 
L 18.109375 46.1875 
Q 21.1875 51.21875 25.484375 53.609375 
Q 29.78125 56 35.6875 56 
Q 41.65625 56 45.828125 52.96875 
Q 50 49.953125 52 44.1875 
" id="DejaVuSans-6d"/>
      <path d="M 54.890625 33.015625 
L 54.890625 0 
L 45.90625 0 
L 45.90625 32.71875 
Q 45.90625 40.484375 42.875 44.328125 
Q 39.84375 48.1875 33.796875 48.1875 
Q 26.515625 48.1875 22.3125 43.546875 
Q 18.109375 38.921875 18.109375 30.90625 
L 18.109375 0 
L 9.078125 0 
L 9.078125 54.6875 
L 18.109375 54.6875 
L 18.109375 46.1875 
Q 21.34375 51.125 25.703125 53.5625 
Q 30.078125 56 35.796875 56 
Q 45.21875 56 50.046875 50.171875 
Q 54.890625 44.34375 54.890625 33.015625 
" id="DejaVuSans-6e"/>
      <path d="M 8.015625 75.875 
L 15.828125 75.875 
Q 23.140625 64.359375 26.78125 53.3125 
Q 30.421875 42.28125 30.421875 31.390625 
Q 30.421875 20.453125 26.78125 9.375 
Q 23.140625 -1.703125 15.828125 -13.1875 
L 8.015625 -13.1875 
Q 14.5 -2 17.703125 9.0625 
Q 20.90625 20.125 20.90625 31.390625 
Q 20.90625 42.671875 17.703125 53.65625 
Q 14.5 64.65625 8.015625 75.875 
" id="DejaVuSans-29"/>
     </defs>
     <g transform="translate(107.015156 342.278812)scale(0.18 -0.18)">
      <use xlink:href="#DejaVuSans-6c"/>
      <use x="27.783203" xlink:href="#DejaVuSans-6f"/>
      <use x="88.964844" xlink:href="#DejaVuSans-67"/>
      <use x="152.441406" xlink:href="#DejaVuSans-31"/>
      <use x="216.064453" xlink:href="#DejaVuSans-30"/>
      <use x="279.6875" xlink:href="#DejaVuSans-20"/>
      <use x="311.474609" xlink:href="#DejaVuSans-6f"/>
      <use x="372.65625" xlink:href="#DejaVuSans-66"/>
      <use x="407.861328" xlink:href="#DejaVuSans-20"/>
      <use x="439.648438" xlink:href="#DejaVuSans-28"/>
      <use x="478.662109" xlink:href="#DejaVuSans-23"/>
      <use x="562.451172" xlink:href="#DejaVuSans-20"/>
      <use x="594.238281" xlink:href="#DejaVuSans-66"/>
      <use x="629.365234" xlink:href="#DejaVuSans-2d"/>
      <use x="665.449219" xlink:href="#DejaVuSans-65"/>
      <use x="726.972656" xlink:href="#DejaVuSans-76"/>
      <use x="786.152344" xlink:href="#DejaVuSans-61"/>
      <use x="847.431641" xlink:href="#DejaVuSans-6c"/>
      <use x="875.214844" xlink:href="#DejaVuSans-73"/>
      <use x="927.314453" xlink:href="#DejaVuSans-20"/>
      <use x="959.101562" xlink:href="#DejaVuSans-2f"/>
      <use x="992.792969" xlink:href="#DejaVuSans-20"/>
      <use x="1024.580078" xlink:href="#DejaVuSans-64"/>
      <use x="1088.056641" xlink:href="#DejaVuSans-69"/>
      <use x="1115.839844" xlink:href="#DejaVuSans-6d"/>
      <use x="1213.251953" xlink:href="#DejaVuSans-65"/>
      <use x="1274.775391" xlink:href="#DejaVuSans-6e"/>
      <use x="1338.154297" xlink:href="#DejaVuSans-73"/>
      <use x="1390.253906" xlink:href="#DejaVuSans-69"/>
      <use x="1418.037109" xlink:href="#DejaVuSans-6f"/>
      <use x="1479.21875" xlink:href="#DejaVuSans-6e"/>
      <use x="1542.597656" xlink:href="#DejaVuSans-29"/>
     </g>
    </g>
   </g>
   <g id="matplotlib.axis_2">
    <g id="ytick_1">
     <g id="line2d_32">
      <path clip-path="url(#pf792601e81)" d="M 70.8 298.245375 
L 427.92 298.245375 
" style="fill:none;stroke:#b0b0b0;stroke-linecap:square;stroke-width:0.8;"/>
     </g>
     <g id="line2d_33">
      <defs>
       <path d="M 0 0 
L -3.5 0 
" id="m6ae5da3348" style="stroke:#000000;stroke-width:0.8;"/>
      </defs>
      <g>
       <use style="stroke:#000000;stroke-width:0.8;" x="70.8" xlink:href="#m6ae5da3348" y="298.245375"/>
      </g>
     </g>
     <g id="text_7">
      <!-- 0.0 -->
      <defs>
       <path d="M 10.6875 12.40625 
L 21 12.40625 
L 21 0 
L 10.6875 0 
z
" id="DejaVuSans-2e"/>
      </defs>
      <g transform="translate(31.99375 305.843812)scale(0.2 -0.2)">
       <use xlink:href="#DejaVuSans-30"/>
       <use x="63.623047" xlink:href="#DejaVuSans-2e"/>
       <use x="95.410156" xlink:href="#DejaVuSans-30"/>
      </g>
     </g>
    </g>
    <g id="ytick_2">
     <g id="line2d_34">
      <path clip-path="url(#pf792601e81)" d="M 70.8 245.549929 
L 427.92 245.549929 
" style="fill:none;stroke:#b0b0b0;stroke-linecap:square;stroke-width:0.8;"/>
     </g>
     <g id="line2d_35">
      <g>
       <use style="stroke:#000000;stroke-width:0.8;" x="70.8" xlink:href="#m6ae5da3348" y="245.549929"/>
      </g>
     </g>
     <g id="text_8">
      <!-- 0.2 -->
      <g transform="translate(31.99375 253.148367)scale(0.2 -0.2)">
       <use xlink:href="#DejaVuSans-30"/>
       <use x="63.623047" xlink:href="#DejaVuSans-2e"/>
       <use x="95.410156" xlink:href="#DejaVuSans-32"/>
      </g>
     </g>
    </g>
    <g id="ytick_3">
     <g id="line2d_36">
      <path clip-path="url(#pf792601e81)" d="M 70.8 192.854484 
L 427.92 192.854484 
" style="fill:none;stroke:#b0b0b0;stroke-linecap:square;stroke-width:0.8;"/>
     </g>
     <g id="line2d_37">
      <g>
       <use style="stroke:#000000;stroke-width:0.8;" x="70.8" xlink:href="#m6ae5da3348" y="192.854484"/>
      </g>
     </g>
     <g id="text_9">
      <!-- 0.4 -->
      <g transform="translate(31.99375 200.452921)scale(0.2 -0.2)">
       <use xlink:href="#DejaVuSans-30"/>
       <use x="63.623047" xlink:href="#DejaVuSans-2e"/>
       <use x="95.410156" xlink:href="#DejaVuSans-34"/>
      </g>
     </g>
    </g>
    <g id="ytick_4">
     <g id="line2d_38">
      <path clip-path="url(#pf792601e81)" d="M 70.8 140.159038 
L 427.92 140.159038 
" style="fill:none;stroke:#b0b0b0;stroke-linecap:square;stroke-width:0.8;"/>
     </g>
     <g id="line2d_39">
      <g>
       <use style="stroke:#000000;stroke-width:0.8;" x="70.8" xlink:href="#m6ae5da3348" y="140.159038"/>
      </g>
     </g>
     <g id="text_10">
      <!-- 0.6 -->
      <g transform="translate(31.99375 147.757476)scale(0.2 -0.2)">
       <use xlink:href="#DejaVuSans-30"/>
       <use x="63.623047" xlink:href="#DejaVuSans-2e"/>
       <use x="95.410156" xlink:href="#DejaVuSans-36"/>
      </g>
     </g>
    </g>
    <g id="ytick_5">
     <g id="line2d_40">
      <path clip-path="url(#pf792601e81)" d="M 70.8 87.463593 
L 427.92 87.463593 
" style="fill:none;stroke:#b0b0b0;stroke-linecap:square;stroke-width:0.8;"/>
     </g>
     <g id="line2d_41">
      <g>
       <use style="stroke:#000000;stroke-width:0.8;" x="70.8" xlink:href="#m6ae5da3348" y="87.463593"/>
      </g>
     </g>
     <g id="text_11">
      <!-- 0.8 -->
      <g transform="translate(31.99375 95.06203)scale(0.2 -0.2)">
       <use xlink:href="#DejaVuSans-30"/>
       <use x="63.623047" xlink:href="#DejaVuSans-2e"/>
       <use x="95.410156" xlink:href="#DejaVuSans-38"/>
      </g>
     </g>
    </g>
    <g id="ytick_6">
     <g id="line2d_42">
      <path clip-path="url(#pf792601e81)" d="M 70.8 34.768147 
L 427.92 34.768147 
" style="fill:none;stroke:#b0b0b0;stroke-linecap:square;stroke-width:0.8;"/>
     </g>
     <g id="line2d_43">
      <g>
       <use style="stroke:#000000;stroke-width:0.8;" x="70.8" xlink:href="#m6ae5da3348" y="34.768147"/>
      </g>
     </g>
     <g id="text_12">
      <!-- 1.0 -->
      <g transform="translate(31.99375 42.366585)scale(0.2 -0.2)">
       <use xlink:href="#DejaVuSans-31"/>
       <use x="63.623047" xlink:href="#DejaVuSans-2e"/>
       <use x="95.410156" xlink:href="#DejaVuSans-30"/>
      </g>
     </g>
    </g>
    <g id="text_13">
     <!-- Proportion of function+target pairs -->
     <defs>
      <path d="M 19.671875 64.796875 
L 19.671875 37.40625 
L 32.078125 37.40625 
Q 38.96875 37.40625 42.71875 40.96875 
Q 46.484375 44.53125 46.484375 51.125 
Q 46.484375 57.671875 42.71875 61.234375 
Q 38.96875 64.796875 32.078125 64.796875 
z
M 9.8125 72.90625 
L 32.078125 72.90625 
Q 44.34375 72.90625 50.609375 67.359375 
Q 56.890625 61.8125 56.890625 51.125 
Q 56.890625 40.328125 50.609375 34.8125 
Q 44.34375 29.296875 32.078125 29.296875 
L 19.671875 29.296875 
L 19.671875 0 
L 9.8125 0 
z
" id="DejaVuSans-50"/>
      <path d="M 41.109375 46.296875 
Q 39.59375 47.171875 37.8125 47.578125 
Q 36.03125 48 33.890625 48 
Q 26.265625 48 22.1875 43.046875 
Q 18.109375 38.09375 18.109375 28.8125 
L 18.109375 0 
L 9.078125 0 
L 9.078125 54.6875 
L 18.109375 54.6875 
L 18.109375 46.1875 
Q 20.953125 51.171875 25.484375 53.578125 
Q 30.03125 56 36.53125 56 
Q 37.453125 56 38.578125 55.875 
Q 39.703125 55.765625 41.0625 55.515625 
z
" id="DejaVuSans-72"/>
      <path d="M 18.109375 8.203125 
L 18.109375 -20.796875 
L 9.078125 -20.796875 
L 9.078125 54.6875 
L 18.109375 54.6875 
L 18.109375 46.390625 
Q 20.953125 51.265625 25.265625 53.625 
Q 29.59375 56 35.59375 56 
Q 45.5625 56 51.78125 48.09375 
Q 58.015625 40.1875 58.015625 27.296875 
Q 58.015625 14.40625 51.78125 6.484375 
Q 45.5625 -1.421875 35.59375 -1.421875 
Q 29.59375 -1.421875 25.265625 0.953125 
Q 20.953125 3.328125 18.109375 8.203125 
M 48.6875 27.296875 
Q 48.6875 37.203125 44.609375 42.84375 
Q 40.53125 48.484375 33.40625 48.484375 
Q 26.265625 48.484375 22.1875 42.84375 
Q 18.109375 37.203125 18.109375 27.296875 
Q 18.109375 17.390625 22.1875 11.75 
Q 26.265625 6.109375 33.40625 6.109375 
Q 40.53125 6.109375 44.609375 11.75 
Q 48.6875 17.390625 48.6875 27.296875 
" id="DejaVuSans-70"/>
      <path d="M 18.3125 70.21875 
L 18.3125 54.6875 
L 36.8125 54.6875 
L 36.8125 47.703125 
L 18.3125 47.703125 
L 18.3125 18.015625 
Q 18.3125 11.328125 20.140625 9.421875 
Q 21.96875 7.515625 27.59375 7.515625 
L 36.8125 7.515625 
L 36.8125 0 
L 27.59375 0 
Q 17.1875 0 13.234375 3.875 
Q 9.28125 7.765625 9.28125 18.015625 
L 9.28125 47.703125 
L 2.6875 47.703125 
L 2.6875 54.6875 
L 9.28125 54.6875 
L 9.28125 70.21875 
z
" id="DejaVuSans-74"/>
      <path d="M 8.5 21.578125 
L 8.5 54.6875 
L 17.484375 54.6875 
L 17.484375 21.921875 
Q 17.484375 14.15625 20.5 10.265625 
Q 23.53125 6.390625 29.59375 6.390625 
Q 36.859375 6.390625 41.078125 11.03125 
Q 45.3125 15.671875 45.3125 23.6875 
L 45.3125 54.6875 
L 54.296875 54.6875 
L 54.296875 0 
L 45.3125 0 
L 45.3125 8.40625 
Q 42.046875 3.421875 37.71875 1 
Q 33.40625 -1.421875 27.6875 -1.421875 
Q 18.265625 -1.421875 13.375 4.4375 
Q 8.5 10.296875 8.5 21.578125 
M 31.109375 56 
z
" id="DejaVuSans-75"/>
      <path d="M 48.78125 52.59375 
L 48.78125 44.1875 
Q 44.96875 46.296875 41.140625 47.34375 
Q 37.3125 48.390625 33.40625 48.390625 
Q 24.65625 48.390625 19.8125 42.84375 
Q 14.984375 37.3125 14.984375 27.296875 
Q 14.984375 17.28125 19.8125 11.734375 
Q 24.65625 6.203125 33.40625 6.203125 
Q 37.3125 6.203125 41.140625 7.25 
Q 44.96875 8.296875 48.78125 10.40625 
L 48.78125 2.09375 
Q 45.015625 0.34375 40.984375 -0.53125 
Q 36.96875 -1.421875 32.421875 -1.421875 
Q 20.0625 -1.421875 12.78125 6.34375 
Q 5.515625 14.109375 5.515625 27.296875 
Q 5.515625 40.671875 12.859375 48.328125 
Q 20.21875 56 33.015625 56 
Q 37.15625 56 41.109375 55.140625 
Q 45.0625 54.296875 48.78125 52.59375 
" id="DejaVuSans-63"/>
      <path d="M 46 62.703125 
L 46 35.5 
L 73.1875 35.5 
L 73.1875 27.203125 
L 46 27.203125 
L 46 0 
L 37.796875 0 
L 37.796875 27.203125 
L 10.59375 27.203125 
L 10.59375 35.5 
L 37.796875 35.5 
L 37.796875 62.703125 
z
" id="DejaVuSans-2b"/>
     </defs>
     <g transform="translate(24.250312 323.17875)rotate(-90)scale(0.18 -0.18)">
      <use xlink:href="#DejaVuSans-50"/>
      <use x="60.287109" xlink:href="#DejaVuSans-72"/>
      <use x="101.369141" xlink:href="#DejaVuSans-6f"/>
      <use x="162.550781" xlink:href="#DejaVuSans-70"/>
      <use x="226.027344" xlink:href="#DejaVuSans-6f"/>
      <use x="287.208984" xlink:href="#DejaVuSans-72"/>
      <use x="328.322266" xlink:href="#DejaVuSans-74"/>
      <use x="367.53125" xlink:href="#DejaVuSans-69"/>
      <use x="395.314453" xlink:href="#DejaVuSans-6f"/>
      <use x="456.496094" xlink:href="#DejaVuSans-6e"/>
      <use x="519.875" xlink:href="#DejaVuSans-20"/>
      <use x="551.662109" xlink:href="#DejaVuSans-6f"/>
      <use x="612.84375" xlink:href="#DejaVuSans-66"/>
      <use x="648.048828" xlink:href="#DejaVuSans-20"/>
      <use x="679.835938" xlink:href="#DejaVuSans-66"/>
      <use x="715.041016" xlink:href="#DejaVuSans-75"/>
      <use x="778.419922" xlink:href="#DejaVuSans-6e"/>
      <use x="841.798828" xlink:href="#DejaVuSans-63"/>
      <use x="896.779297" xlink:href="#DejaVuSans-74"/>
      <use x="935.988281" xlink:href="#DejaVuSans-69"/>
      <use x="963.771484" xlink:href="#DejaVuSans-6f"/>
      <use x="1024.953125" xlink:href="#DejaVuSans-6e"/>
      <use x="1088.332031" xlink:href="#DejaVuSans-2b"/>
      <use x="1172.121094" xlink:href="#DejaVuSans-74"/>
      <use x="1211.330078" xlink:href="#DejaVuSans-61"/>
      <use x="1272.609375" xlink:href="#DejaVuSans-72"/>
      <use x="1313.707031" xlink:href="#DejaVuSans-67"/>
      <use x="1377.183594" xlink:href="#DejaVuSans-65"/>
      <use x="1438.707031" xlink:href="#DejaVuSans-74"/>
      <use x="1477.916016" xlink:href="#DejaVuSans-20"/>
      <use x="1509.703125" xlink:href="#DejaVuSans-70"/>
      <use x="1573.179688" xlink:href="#DejaVuSans-61"/>
      <use x="1634.458984" xlink:href="#DejaVuSans-69"/>
      <use x="1662.242188" xlink:href="#DejaVuSans-72"/>
      <use x="1703.355469" xlink:href="#DejaVuSans-73"/>
     </g>
    </g>
   </g>
   <g id="line2d_44">
    <defs>
     <path d="M 0 1.5 
C 0.397805 1.5 0.77937 1.341951 1.06066 1.06066 
C 1.341951 0.77937 1.5 0.397805 1.5 0 
C 1.5 -0.397805 1.341951 -0.77937 1.06066 -1.06066 
C 0.77937 -1.341951 0.397805 -1.5 0 -1.5 
C -0.397805 -1.5 -0.77937 -1.341951 -1.06066 -1.06066 
C -1.341951 -0.77937 -1.5 -0.397805 -1.5 0 
C -1.5 0.397805 -1.341951 0.77937 -1.06066 1.06066 
C -0.77937 1.341951 -0.397805 1.5 0 1.5 
z
" id="mb5cdf68ddc" style="stroke:#f5deb3;"/>
    </defs>
    <g>
     <use style="fill:#f5deb3;stroke:#f5deb3;" x="353.607313" xlink:href="#mb5cdf68ddc" y="34.768147"/>
     <use style="fill:#f5deb3;stroke:#f5deb3;" x="353.607313" xlink:href="#mb5cdf68ddc" y="34.768147"/>
    </g>
   </g>
   <g id="line2d_45">
    <g>
     <use style="fill:#f5deb3;stroke:#f5deb3;stroke-linejoin:miter;stroke-width:1.5;" x="107.272761" xlink:href="#m5b6ff8bd67" y="270.347786"/>
     <use style="fill:#f5deb3;stroke:#f5deb3;stroke-linejoin:miter;stroke-width:1.5;" x="186.938948" xlink:href="#m5b6ff8bd67" y="206.286656"/>
     <use style="fill:#f5deb3;stroke:#f5deb3;stroke-linejoin:miter;stroke-width:1.5;" x="248.178426" xlink:href="#m5b6ff8bd67" y="143.25877"/>
     <use style="fill:#f5deb3;stroke:#f5deb3;stroke-linejoin:miter;stroke-width:1.5;" x="305.184427" xlink:href="#m5b6ff8bd67" y="75.064664"/>
     <use style="fill:#f5deb3;stroke:#f5deb3;stroke-linejoin:miter;stroke-width:1.5;" x="353.607313" xlink:href="#m5b6ff8bd67" y="34.768147"/>
     <use style="fill:#f5deb3;stroke:#f5deb3;stroke-linejoin:miter;stroke-width:1.5;" x="358.8" xlink:href="#m5b6ff8bd67" y="34.768147"/>
    </g>
   </g>
   <g id="line2d_46">
    <defs>
     <path d="M 0 1.5 
C 0.397805 1.5 0.77937 1.341951 1.06066 1.06066 
C 1.341951 0.77937 1.5 0.397805 1.5 0 
C 1.5 -0.397805 1.341951 -0.77937 1.06066 -1.06066 
C 0.77937 -1.341951 0.397805 -1.5 0 -1.5 
C -0.397805 -1.5 -0.77937 -1.341951 -1.06066 -1.06066 
C -1.341951 -0.77937 -1.5 -0.397805 -1.5 0 
C -1.5 0.397805 -1.341951 0.77937 -1.06066 1.06066 
C -0.77937 1.341951 -0.397805 1.5 0 1.5 
z
" id="m2528f03b1e" style="stroke:#ff00ff;"/>
    </defs>
    <g>
     <use style="fill:#ff00ff;stroke:#ff00ff;" x="275.422085" xlink:href="#m2528f03b1e" y="209.386388"/>
     <use style="fill:#ff00ff;stroke:#ff00ff;" x="275.422085" xlink:href="#m2528f03b1e" y="209.386388"/>
    </g>
   </g>
   <g id="line2d_47">
    <path d="M 29.657143 298.245375 
L 29.657143 291.115991 
L 49.287274 291.115991 
L 49.287274 290.909342 
L 84.057022 290.806018 
L 84.057022 290.599369 
L 91.016024 290.599369 
L 91.016024 290.39272 
L 96.011679 290.39272 
L 96.011679 290.186072 
L 98.067751 290.186072 
L 98.067751 289.979423 
L 98.828211 289.979423 
L 98.828211 289.772774 
L 100.598779 289.66945 
L 100.598779 289.462801 
L 102.209609 289.462801 
L 102.209609 289.256152 
L 103.110713 289.256152 
L 103.110713 288.946179 
L 103.401258 288.946179 
L 103.401258 288.532881 
L 105.312648 288.429557 
L 105.312648 288.326232 
L 105.823201 288.222908 
L 105.823201 287.80961 
L 110.646156 287.706286 
L 110.646156 287.602961 
L 111.581873 287.602961 
L 111.581873 287.292988 
L 112.814645 287.292988 
L 112.814645 287.086339 
L 113.318006 287.086339 
L 113.318006 286.879691 
L 114.900288 286.776366 
L 114.900288 286.673042 
L 116.630812 286.569717 
L 116.630812 286.466393 
L 117.038468 286.466393 
L 117.038468 285.949771 
L 117.826895 285.846447 
L 117.826895 285.639798 
L 118.082158 285.639798 
L 118.082158 285.433149 
L 118.208435 285.433149 
L 118.208435 285.2265 
L 118.458343 285.2265 
L 118.458343 284.709878 
L 119.068235 284.606554 
L 119.068235 284.503229 
L 119.54159 284.503229 
L 119.54159 283.883283 
L 120.340936 283.779959 
L 120.340936 283.676634 
L 120.672861 283.57331 
L 120.782147 282.64339 
L 120.890768 282.64339 
L 120.998733 282.230093 
L 121.528983 282.126768 
L 121.63317 281.403497 
L 121.839741 281.403497 
L 121.839741 281.196849 
L 122.145186 281.196849 
L 122.245852 280.576902 
L 122.345953 280.576902 
L 122.445497 279.13036 
L 122.740845 279.13036 
L 122.740845 278.717063 
L 122.935065 278.717063 
L 122.935065 278.097116 
L 123.222494 278.097116 
L 123.222494 277.787143 
L 123.505373 277.787143 
L 123.505373 277.270521 
L 124.148511 277.270521 
L 124.238527 276.960548 
L 124.505885 276.857224 
L 124.505885 276.650575 
L 124.769302 276.650575 
L 124.769302 275.927304 
L 125.19988 275.927304 
L 125.284764 275.100709 
L 125.537024 274.997384 
L 125.620325 274.584087 
L 125.867924 274.584087 
L 125.949701 273.96414 
L 126.031105 273.96414 
L 126.031105 273.757491 
L 126.273114 273.757491 
L 126.273114 273.344194 
L 126.51189 273.344194 
L 126.590778 272.827572 
L 126.825374 272.724247 
L 126.825374 272.414274 
L 127.585834 272.414274 
L 127.585834 272.104301 
L 127.954262 272.000977 
L 128.027044 271.38103 
L 128.171726 271.38103 
L 128.171726 271.071057 
L 128.386576 270.967733 
L 128.457622 270.761084 
L 129.221037 270.657759 
L 129.288847 269.72784 
L 129.756451 269.624515 
L 129.756451 269.211218 
L 129.953166 269.107893 
L 129.953166 269.004569 
L 130.147739 268.901245 
L 130.147739 268.591271 
L 130.530642 268.591271 
L 130.530642 268.384623 
L 131.453469 268.281298 
L 131.453469 268.177974 
L 132.101149 268.074649 
L 132.101149 267.971325 
L 133.003201 267.868001 
L 133.003201 267.764676 
L 133.221774 267.764676 
L 133.221774 267.558027 
L 133.383967 267.558027 
L 133.383967 267.351378 
L 133.651059 267.248054 
L 133.651059 267.14473 
L 134.429184 267.041405 
L 134.429184 266.938081 
L 135.223453 266.834756 
L 135.223453 266.524783 
L 135.464592 266.421459 
L 135.464592 266.318134 
L 135.70252 266.318134 
L 135.70252 266.111486 
L 135.937321 266.008161 
L 136.030384 265.698188 
L 136.623761 265.594864 
L 136.623761 265.491539 
L 136.75794 265.491539 
L 136.75794 265.28489 
L 136.935292 265.28489 
L 137.023313 264.871593 
L 137.067161 264.871593 
L 137.067161 264.664944 
L 137.414126 264.56162 
L 137.414126 264.458295 
L 138.171006 264.354971 
L 138.171006 264.148322 
L 138.738295 264.044998 
L 138.817886 263.6317 
L 139.054554 263.528376 
L 139.054554 263.115078 
L 139.288127 263.011754 
L 139.288127 262.908429 
L 139.896462 262.805105 
L 139.896462 262.598456 
L 140.229763 262.495132 
L 140.229763 262.288483 
L 140.592949 262.185158 
L 140.592949 261.97851 
L 141.159114 261.875185 
L 141.159114 261.565212 
L 141.909413 261.565212 
L 141.909413 261.358563 
L 142.629471 261.255239 
L 142.72545 261.04859 
L 144.943101 260.945266 
L 144.943101 260.841941 
L 146.839781 260.738617 
L 146.839781 260.635292 
L 151.282358 260.635292 
L 151.282358 260.428643 
L 154.177369 260.325319 
L 154.177369 260.11867 
L 157.855948 260.11867 
L 157.855948 259.808697 
L 161.738819 259.705373 
L 161.738819 259.602048 
L 162.302324 259.602048 
L 162.302324 259.292075 
L 166.503674 259.188751 
L 166.503674 259.085426 
L 168.030273 258.982102 
L 168.030273 258.878777 
L 175.280331 258.775453 
L 175.280331 258.672129 
L 177.136074 258.568804 
L 177.136074 258.362155 
L 178.293034 258.362155 
L 178.293034 258.052182 
L 178.918397 258.052182 
L 178.918397 257.845533 
L 180.817399 257.742209 
L 180.817399 257.638885 
L 183.340498 257.53556 
L 183.340498 257.328911 
L 183.852347 257.225587 
L 183.852347 257.018938 
L 189.138196 256.915614 
L 189.138196 256.812289 
L 191.408552 256.708965 
L 191.408552 256.605641 
L 192.728986 256.502316 
L 192.728986 256.398992 
L 194.365629 256.295667 
L 194.365629 256.192343 
L 194.512198 256.089019 
L 194.61566 255.469072 
L 194.627895 255.469072 
L 194.683722 254.745801 
L 194.834626 254.642477 
L 194.93109 254.229179 
L 194.968844 254.125855 
L 195.07652 253.609233 
L 195.156429 253.505908 
L 195.252862 252.989286 
L 195.368906 252.885962 
L 195.422468 252.679313 
L 195.572258 252.679313 
L 195.572258 252.36934 
L 196.120633 252.266016 
L 196.120633 252.162691 
L 196.91595 252.059367 
L 196.995712 251.852718 
L 197.152658 251.852718 
L 197.152658 251.646069 
L 198.099564 251.542745 
L 198.099564 251.232772 
L 198.584971 251.129447 
L 198.584971 251.026123 
L 199.531215 250.922798 
L 199.541836 250.71615 
L 200.292948 250.612825 
L 200.292948 250.096203 
L 201.595744 249.992879 
L 201.595744 249.889554 
L 202.021279 249.78623 
L 202.021279 249.682906 
L 203.296283 249.579581 
L 203.296283 249.476257 
L 204.24928 249.372932 
L 204.294095 249.166284 
L 205.320946 249.062959 
L 205.320946 248.959635 
L 205.682238 248.85631 
L 205.710452 248.649662 
L 206.782751 248.546337 
L 206.878957 247.409769 
L 206.952745 247.306444 
L 207.042809 246.789822 
L 207.100283 246.686498 
L 207.100283 246.583173 
L 208.050889 246.479849 
L 208.050889 246.376525 
L 208.380867 246.2732 
L 208.413209 246.066551 
L 208.767535 245.963227 
L 208.829201 245.653254 
L 209.066751 245.653254 
L 209.174679 245.343281 
L 209.675415 245.239956 
L 209.675415 245.136632 
L 210.400431 245.033307 
L 210.475444 244.723334 
L 210.931658 244.723334 
L 211.015654 244.310037 
L 211.588769 244.310037 
L 211.588769 244.103388 
L 211.734924 244.000063 
L 211.734924 243.793415 
L 212.5338 243.69009 
L 212.5338 243.586766 
L 213.243085 243.483441 
L 213.26157 243.276793 
L 214.014664 243.173468 
L 214.120626 242.656846 
L 214.136467 242.656846 
L 214.196766 242.243549 
L 214.273746 242.243549 
L 214.317918 241.830251 
L 214.511906 241.726927 
L 214.511906 241.623602 
L 215.135971 241.520278 
L 215.135971 241.210305 
L 215.36572 241.10698 
L 215.431837 240.900331 
L 215.606061 240.797007 
L 215.709463 240.590358 
L 216.011905 240.487034 
L 216.011905 240.280385 
L 216.223426 240.17706 
L 216.223426 240.073736 
L 216.8348 239.970412 
L 216.910274 239.660438 
L 218.108838 239.557114 
L 218.108838 239.45379 
L 218.334653 239.45379 
L 218.364301 239.040492 
L 218.774733 238.937168 
L 218.860473 238.730519 
L 219.132107 238.627194 
L 219.236442 238.213897 
L 219.246137 238.110572 
L 219.344552 237.800599 
L 219.650376 237.697275 
L 219.709716 237.387302 
L 219.793231 237.387302 
L 219.793231 237.180653 
L 220.001383 237.077328 
L 220.108335 236.87068 
L 220.14105 236.87068 
L 220.211729 236.457382 
L 220.325315 236.457382 
L 220.325315 236.250733 
L 220.47935 236.250733 
L 220.549115 235.837436 
L 221.033978 235.734111 
L 221.033978 235.630787 
L 221.488552 235.527462 
L 221.488552 235.424138 
L 221.742442 235.320814 
L 221.742442 235.217489 
L 222.203097 235.114165 
L 222.203097 235.01084 
L 222.875427 234.907516 
L 222.970821 234.700867 
L 223.106931 234.597543 
L 223.146288 234.080921 
L 223.236375 233.977596 
L 223.263489 233.667623 
L 223.50915 233.564299 
L 223.50915 233.35765 
L 223.763458 233.254325 
L 223.763458 233.151001 
L 224.059013 233.047677 
L 224.059013 232.944352 
L 224.274439 232.841028 
L 224.308986 232.531055 
L 225.117101 232.42773 
L 225.144992 232.221081 
L 225.716566 232.117757 
L 225.823293 231.807784 
L 226.151679 231.704459 
L 226.151679 231.601135 
L 226.374788 231.497811 
L 226.475314 231.084513 
L 226.615282 230.981189 
L 226.615282 230.877864 
L 226.765735 230.77454 
L 226.864092 230.567891 
L 227.047811 230.464567 
L 227.047811 230.361242 
L 227.352952 230.257918 
L 227.424737 230.051269 
L 228.118846 229.947945 
L 228.118846 229.84462 
L 228.236971 229.84462 
L 228.236971 229.637971 
L 228.442488 229.534647 
L 228.495076 229.327998 
L 229.119158 229.224674 
L 229.220286 228.501403 
L 229.386657 228.398079 
L 229.456456 228.19143 
L 229.521274 228.19143 
L 229.521274 227.984781 
L 229.771134 227.881457 
L 229.771134 227.778132 
L 230.001145 227.778132 
L 230.001145 227.571483 
L 230.158759 227.571483 
L 230.255614 227.26151 
L 230.292453 227.26151 
L 230.292453 227.054861 
L 230.683688 226.951537 
L 230.683688 226.848213 
L 231.069723 226.744888 
L 231.155895 226.33159 
L 231.440025 226.228266 
L 231.488942 225.918293 
L 231.578645 225.814968 
L 231.673615 225.504995 
L 231.777044 225.401671 
L 231.884656 225.195022 
L 231.916553 225.195022 
L 231.990544 224.781724 
L 232.521674 224.6784 
L 232.565422 224.368427 
L 232.672352 224.368427 
L 232.745561 223.955129 
L 233.138989 223.851805 
L 233.209508 223.645156 
L 233.781253 223.541832 
L 233.791601 223.335183 
L 234.028749 223.231858 
L 234.028749 223.128534 
L 234.185626 223.128534 
L 234.185626 222.921885 
L 234.542535 222.818561 
L 234.542535 222.715236 
L 235.120232 222.611912 
L 235.120232 222.508588 
L 235.449342 222.405263 
L 235.494473 222.198614 
L 235.59516 222.09529 
L 235.59516 221.991966 
L 236.079272 221.888641 
L 236.079272 221.785317 
L 236.704671 221.681992 
L 236.704671 221.578668 
L 237.109332 221.475344 
L 237.201019 221.062046 
L 237.646548 220.958722 
L 237.653783 220.752073 
L 238.214929 220.648748 
L 238.214929 220.545424 
L 238.583102 220.4421 
L 238.583102 220.338775 
L 238.794724 220.235451 
L 238.897843 220.028802 
L 239.229324 219.925478 
L 239.318657 219.615504 
L 239.442296 219.51218 
L 239.517827 219.202207 
L 239.889796 219.098882 
L 239.948395 218.788909 
L 240.053472 218.685585 
L 240.119347 218.478936 
L 240.348286 218.375611 
L 240.418609 218.065638 
L 240.696767 217.962314 
L 240.696767 217.858989 
L 240.986588 217.755665 
L 241.093666 217.549016 
L 241.443439 217.445692 
L 241.494882 217.032394 
L 241.867298 216.92907 
L 241.867298 216.825745 
L 242.174082 216.722421 
L 242.174082 216.619097 
L 242.69845 216.515772 
L 242.69845 216.412448 
L 243.13176 216.309123 
L 243.13176 216.205799 
L 243.573563 216.102475 
L 243.631841 215.895826 
L 244.237392 215.792501 
L 244.286497 215.585853 
L 244.463112 215.482528 
L 244.561349 215.172555 
L 244.723216 215.069231 
L 244.723216 214.965906 
L 245.145587 214.862582 
L 245.225027 214.552609 
L 245.963582 214.449284 
L 245.986383 214.242635 
L 247.055891 214.139311 
L 247.055891 214.035987 
L 247.248298 213.932662 
L 247.288238 213.726013 
L 247.712026 213.622689 
L 247.798603 213.41604 
L 248.523658 213.312716 
L 248.523658 213.209391 
L 249.013874 213.106067 
L 249.013874 213.002743 
L 249.376967 212.899418 
L 249.434562 212.382796 
L 250.117864 212.279472 
L 250.117864 212.176147 
L 250.954372 212.072823 
L 250.954372 211.969498 
L 252.009004 211.866174 
L 252.009004 211.76285 
L 252.376728 211.659525 
L 252.376728 211.556201 
L 252.655178 211.452876 
L 252.655178 211.349552 
L 253.053595 211.246228 
L 253.053595 211.142903 
L 253.552944 211.039579 
L 253.552944 210.936254 
L 254.614971 210.83293 
L 254.614971 210.729606 
L 255.079177 210.626281 
L 255.079177 210.522957 
L 256.057038 210.419632 
L 256.057038 210.316308 
L 256.744867 210.212984 
L 256.744867 210.109659 
L 260.097798 210.006335 
L 260.173362 209.799686 
L 264.407613 209.696362 
L 264.448309 209.489713 
L 358.8 209.386388 
L 358.8 209.386388 
" style="fill:none;stroke:#ff00ff;stroke-linecap:square;stroke-width:1.5;"/>
   </g>
   <g id="line2d_48">
    <defs>
     <path d="M -0 8.485281 
L 5.091169 0 
L 0 -8.485281 
L -5.091169 -0 
z
" id="m265dc238c7" style="stroke:#ff00ff;stroke-linejoin:miter;stroke-width:1.5;"/>
    </defs>
    <g>
     <use style="fill:none;stroke:#ff00ff;stroke-linejoin:miter;stroke-width:1.5;" x="118.208435" xlink:href="#m265dc238c7" y="285.2265"/>
     <use style="fill:none;stroke:#ff00ff;stroke-linejoin:miter;stroke-width:1.5;" x="186.066219" xlink:href="#m265dc238c7" y="256.915614"/>
     <use style="fill:none;stroke:#ff00ff;stroke-linejoin:miter;stroke-width:1.5;" x="230.292453" xlink:href="#m265dc238c7" y="227.26151"/>
     <use style="fill:none;stroke:#ff00ff;stroke-linejoin:miter;stroke-width:1.5;" x="275.422085" xlink:href="#m265dc238c7" y="209.386388"/>
     <use style="fill:none;stroke:#ff00ff;stroke-linejoin:miter;stroke-width:1.5;" x="275.422085" xlink:href="#m265dc238c7" y="209.386388"/>
     <use style="fill:none;stroke:#ff00ff;stroke-linejoin:miter;stroke-width:1.5;" x="358.8" xlink:href="#m265dc238c7" y="209.386388"/>
    </g>
   </g>
   <g id="line2d_49"/>
   <g id="line2d_50">
    <path clip-path="url(#pf792601e81)" d="M 194.228571 256.295667 
" style="fill:none;stroke:#ff00ff;stroke-linecap:square;stroke-width:1.5;"/>
    <defs>
     <path d="M -12 12 
L 12 -12 
M -12 -12 
L 12 12 
" id="m18fd5fbf7b" style="stroke:#ff00ff;stroke-width:3;"/>
    </defs>
    <g clip-path="url(#pf792601e81)">
     <use style="fill:#ff00ff;stroke:#ff00ff;stroke-width:3;" x="194.228571" xlink:href="#m18fd5fbf7b" y="256.295667"/>
    </g>
   </g>
   <g id="line2d_51">
    <path d="M 358.8 209.386388 
L 390.48 292.97583 
" style="fill:none;stroke:#ff00ff;stroke-linecap:square;stroke-width:1.5;"/>
    <g>
     <use style="fill:none;stroke:#ff00ff;stroke-linejoin:miter;stroke-width:1.5;" x="358.8" xlink:href="#m265dc238c7" y="209.386388"/>
     <use style="fill:none;stroke:#ff00ff;stroke-linejoin:miter;stroke-width:1.5;" x="390.48" xlink:href="#m265dc238c7" y="292.97583"/>
    </g>
   </g>
   <g id="line2d_52">
    <path d="M 358.8 298.245375 
L 358.8 34.768147 
" style="fill:none;stroke:#000000;stroke-linecap:square;stroke-width:1.5;"/>
   </g>
   <g id="patch_3">
    <path d="M 70.8 298.245375 
L 70.8 32.133375 
" style="fill:none;stroke:#000000;stroke-linecap:square;stroke-linejoin:miter;stroke-width:0.8;"/>
   </g>
   <g id="patch_4">
    <path d="M 427.92 298.245375 
L 427.92 32.133375 
" style="fill:none;stroke:#000000;stroke-linecap:square;stroke-linejoin:miter;stroke-width:0.8;"/>
   </g>
   <g id="patch_5">
    <path d="M 70.8 298.245375 
L 427.92 298.245375 
" style="fill:none;stroke:#000000;stroke-linecap:square;stroke-linejoin:miter;stroke-width:0.8;"/>
   </g>
   <g id="patch_6">
    <path d="M 70.8 32.133375 
L 427.92 32.133375 
" style="fill:none;stroke:#000000;stroke-linecap:square;stroke-linejoin:miter;stroke-width:0.8;"/>
   </g>
   <g id="text_14">
    <!-- deapbbob -->
    <defs>
     <path d="M 48.6875 27.296875 
Q 48.6875 37.203125 44.609375 42.84375 
Q 40.53125 48.484375 33.40625 48.484375 
Q 26.265625 48.484375 22.1875 42.84375 
Q 18.109375 37.203125 18.109375 27.296875 
Q 18.109375 17.390625 22.1875 11.75 
Q 26.265625 6.109375 33.40625 6.109375 
Q 40.53125 6.109375 44.609375 11.75 
Q 48.6875 17.390625 48.6875 27.296875 
M 18.109375 46.390625 
Q 20.953125 51.265625 25.265625 53.625 
Q 29.59375 56 35.59375 56 
Q 45.5625 56 51.78125 48.09375 
Q 58.015625 40.1875 58.015625 27.296875 
Q 58.015625 14.40625 51.78125 6.484375 
Q 45.5625 -1.421875 35.59375 -1.421875 
Q 29.59375 -1.421875 25.265625 0.953125 
Q 20.953125 3.328125 18.109375 8.203125 
L 18.109375 0 
L 9.078125 0 
L 9.078125 75.984375 
L 18.109375 75.984375 
z
" id="DejaVuSans-62"/>
    </defs>
    <g transform="translate(396.24 297.114893)scale(0.15 -0.15)">
     <use xlink:href="#DejaVuSans-64"/>
     <use x="63.476562" xlink:href="#DejaVuSans-65"/>
     <use x="125" xlink:href="#DejaVuSans-61"/>
     <use x="186.279297" xlink:href="#DejaVuSans-70"/>
     <use x="249.755859" xlink:href="#DejaVuSans-62"/>
     <use x="313.232422" xlink:href="#DejaVuSans-62"/>
     <use x="376.708984" xlink:href="#DejaVuSans-6f"/>
     <use x="437.890625" xlink:href="#DejaVuSans-62"/>
    </g>
   </g>
   <g id="text_15">
    <!-- best 2009 -->
    <defs>
     <path d="M 10.984375 1.515625 
L 10.984375 10.5 
Q 14.703125 8.734375 18.5 7.8125 
Q 22.3125 6.890625 25.984375 6.890625 
Q 35.75 6.890625 40.890625 13.453125 
Q 46.046875 20.015625 46.78125 33.40625 
Q 43.953125 29.203125 39.59375 26.953125 
Q 35.25 24.703125 29.984375 24.703125 
Q 19.046875 24.703125 12.671875 31.3125 
Q 6.296875 37.9375 6.296875 49.421875 
Q 6.296875 60.640625 12.9375 67.421875 
Q 19.578125 74.21875 30.609375 74.21875 
Q 43.265625 74.21875 49.921875 64.515625 
Q 56.59375 54.828125 56.59375 36.375 
Q 56.59375 19.140625 48.40625 8.859375 
Q 40.234375 -1.421875 26.421875 -1.421875 
Q 22.703125 -1.421875 18.890625 -0.6875 
Q 15.09375 0.046875 10.984375 1.515625 
M 30.609375 32.421875 
Q 37.25 32.421875 41.125 36.953125 
Q 45.015625 41.5 45.015625 49.421875 
Q 45.015625 57.28125 41.125 61.84375 
Q 37.25 66.40625 30.609375 66.40625 
Q 23.96875 66.40625 20.09375 61.84375 
Q 16.21875 57.28125 16.21875 49.421875 
Q 16.21875 41.5 20.09375 36.953125 
Q 23.96875 32.421875 30.609375 32.421875 
" id="DejaVuSans-39"/>
    </defs>
    <g transform="translate(396.24 44.176754)scale(0.15 -0.15)">
     <use xlink:href="#DejaVuSans-62"/>
     <use x="63.476562" xlink:href="#DejaVuSans-65"/>
     <use x="125" xlink:href="#DejaVuSans-73"/>
     <use x="177.099609" xlink:href="#DejaVuSans-74"/>
     <use x="216.308594" xlink:href="#DejaVuSans-20"/>
     <use x="248.095703" xlink:href="#DejaVuSans-32"/>
     <use x="311.71875" xlink:href="#DejaVuSans-30"/>
     <use x="375.341797" xlink:href="#DejaVuSans-30"/>
     <use x="438.964844" xlink:href="#DejaVuSans-39"/>
    </g>
   </g>
   <g id="text_16">
    <!-- bbob - f20-f24, 10-D -->
    <defs>
     <path d="M 11.71875 12.40625 
L 22.015625 12.40625 
L 22.015625 4 
L 14.015625 -11.625 
L 7.71875 -11.625 
L 11.71875 4 
z
" id="DejaVuSans-2c"/>
     <path d="M 19.671875 64.796875 
L 19.671875 8.109375 
L 31.59375 8.109375 
Q 46.6875 8.109375 53.6875 14.9375 
Q 60.6875 21.78125 60.6875 36.53125 
Q 60.6875 51.171875 53.6875 57.984375 
Q 46.6875 64.796875 31.59375 64.796875 
z
M 9.8125 72.90625 
L 30.078125 72.90625 
Q 51.265625 72.90625 61.171875 64.09375 
Q 71.09375 55.28125 71.09375 36.53125 
Q 71.09375 17.671875 61.125 8.828125 
Q 51.171875 0 30.078125 0 
L 9.8125 0 
z
" id="DejaVuSans-44"/>
    </defs>
    <g transform="translate(74.3712 50.114612)scale(0.1666 -0.1666)">
     <use xlink:href="#DejaVuSans-62"/>
     <use x="63.476562" xlink:href="#DejaVuSans-62"/>
     <use x="126.953125" xlink:href="#DejaVuSans-6f"/>
     <use x="188.134766" xlink:href="#DejaVuSans-62"/>
     <use x="251.611328" xlink:href="#DejaVuSans-20"/>
     <use x="283.398438" xlink:href="#DejaVuSans-2d"/>
     <use x="319.482422" xlink:href="#DejaVuSans-20"/>
     <use x="351.269531" xlink:href="#DejaVuSans-66"/>
     <use x="386.474609" xlink:href="#DejaVuSans-32"/>
     <use x="450.097656" xlink:href="#DejaVuSans-30"/>
     <use x="513.720703" xlink:href="#DejaVuSans-2d"/>
     <use x="549.804688" xlink:href="#DejaVuSans-66"/>
     <use x="585.009766" xlink:href="#DejaVuSans-32"/>
     <use x="648.632812" xlink:href="#DejaVuSans-34"/>
     <use x="712.255859" xlink:href="#DejaVuSans-2c"/>
     <use x="744.042969" xlink:href="#DejaVuSans-20"/>
     <use x="775.830078" xlink:href="#DejaVuSans-31"/>
     <use x="839.453125" xlink:href="#DejaVuSans-30"/>
     <use x="903.076172" xlink:href="#DejaVuSans-2d"/>
     <use x="939.160156" xlink:href="#DejaVuSans-44"/>
    </g>
    <!-- 51 targets in 100..1e-08 -->
    <defs>
     <path d="M 10.796875 72.90625 
L 49.515625 72.90625 
L 49.515625 64.59375 
L 19.828125 64.59375 
L 19.828125 46.734375 
Q 21.96875 47.46875 24.109375 47.828125 
Q 26.265625 48.1875 28.421875 48.1875 
Q 40.625 48.1875 47.75 41.5 
Q 54.890625 34.8125 54.890625 23.390625 
Q 54.890625 11.625 47.5625 5.09375 
Q 40.234375 -1.421875 26.90625 -1.421875 
Q 22.3125 -1.421875 17.546875 -0.640625 
Q 12.796875 0.140625 7.71875 1.703125 
L 7.71875 11.625 
Q 12.109375 9.234375 16.796875 8.0625 
Q 21.484375 6.890625 26.703125 6.890625 
Q 35.15625 6.890625 40.078125 11.328125 
Q 45.015625 15.765625 45.015625 23.390625 
Q 45.015625 31 40.078125 35.4375 
Q 35.15625 39.890625 26.703125 39.890625 
Q 22.75 39.890625 18.8125 39.015625 
Q 14.890625 38.140625 10.796875 36.28125 
z
" id="DejaVuSans-35"/>
    </defs>
    <g transform="translate(74.3712 68.770168)scale(0.1666 -0.1666)">
     <use xlink:href="#DejaVuSans-35"/>
     <use x="63.623047" xlink:href="#DejaVuSans-31"/>
     <use x="127.246094" xlink:href="#DejaVuSans-20"/>
     <use x="159.033203" xlink:href="#DejaVuSans-74"/>
     <use x="198.242188" xlink:href="#DejaVuSans-61"/>
     <use x="259.521484" xlink:href="#DejaVuSans-72"/>
     <use x="300.619141" xlink:href="#DejaVuSans-67"/>
     <use x="364.095703" xlink:href="#DejaVuSans-65"/>
     <use x="425.619141" xlink:href="#DejaVuSans-74"/>
     <use x="464.828125" xlink:href="#DejaVuSans-73"/>
     <use x="516.927734" xlink:href="#DejaVuSans-20"/>
     <use x="548.714844" xlink:href="#DejaVuSans-69"/>
     <use x="576.498047" xlink:href="#DejaVuSans-6e"/>
     <use x="639.876953" xlink:href="#DejaVuSans-20"/>
     <use x="671.664062" xlink:href="#DejaVuSans-31"/>
     <use x="735.287109" xlink:href="#DejaVuSans-30"/>
     <use x="798.910156" xlink:href="#DejaVuSans-30"/>
     <use x="862.533203" xlink:href="#DejaVuSans-2e"/>
     <use x="894.320312" xlink:href="#DejaVuSans-2e"/>
     <use x="926.107422" xlink:href="#DejaVuSans-31"/>
     <use x="989.730469" xlink:href="#DejaVuSans-65"/>
     <use x="1051.253906" xlink:href="#DejaVuSans-2d"/>
     <use x="1087.337891" xlink:href="#DejaVuSans-30"/>
     <use x="1150.960938" xlink:href="#DejaVuSans-38"/>
    </g>
    <!-- 15 instances -->
    <g transform="translate(74.3712 87.425723)scale(0.1666 -0.1666)">
     <use xlink:href="#DejaVuSans-31"/>
     <use x="63.623047" xlink:href="#DejaVuSans-35"/>
     <use x="127.246094" xlink:href="#DejaVuSans-20"/>
     <use x="159.033203" xlink:href="#DejaVuSans-69"/>
     <use x="186.816406" xlink:href="#DejaVuSans-6e"/>
     <use x="250.195312" xlink:href="#DejaVuSans-73"/>
     <use x="302.294922" xlink:href="#DejaVuSans-74"/>
     <use x="341.503906" xlink:href="#DejaVuSans-61"/>
     <use x="402.783203" xlink:href="#DejaVuSans-6e"/>
     <use x="466.162109" xlink:href="#DejaVuSans-63"/>
     <use x="521.142578" xlink:href="#DejaVuSans-65"/>
     <use x="582.666016" xlink:href="#DejaVuSans-73"/>
    </g>
   </g>
   <g id="text_17">
    <!-- v2.1 -->
    <g style="fill:#808080;" transform="translate(238.449063 293.504568)scale(0.1 -0.1)">
     <use xlink:href="#DejaVuSans-76"/>
     <use x="59.179688" xlink:href="#DejaVuSans-32"/>
     <use x="122.802734" xlink:href="#DejaVuSans-2e"/>
     <use x="154.589844" xlink:href="#DejaVuSans-31"/>
    </g>
   </g>
  </g>
 </g>
 <defs>
  <clipPath id="pf792601e81">
   <rect height="266.112" width="357.12" x="70.8" y="32.133375"/>
  </clipPath>
 </defs>
</svg>
