<?xml version="1.0" encoding="utf-8" standalone="no"?>
<!DOCTYPE svg PUBLIC "-//W3C//DTD SVG 1.1//EN"
  "http://www.w3.org/Graphics/SVG/1.1/DTD/svg11.dtd">
<!-- Created with matplotlib (http://matplotlib.org/) -->
<svg height="353pt" version="1.1" viewBox="0 0 478 353" width="478pt" xmlns="http://www.w3.org/2000/svg" xmlns:xlink="http://www.w3.org/1999/xlink">
 <defs>
  <style type="text/css">
*{stroke-linecap:butt;stroke-linejoin:round;}
  </style>
 </defs>
 <g id="figure_1">
  <g id="patch_1">
   <path d="M 0 353.22225 
L 478.829063 353.22225 
L 478.829063 0 
L 0 0 
z
" style="fill:#ffffff;"/>
  </g>
  <g id="axes_1">
   <g id="patch_2">
    <path d="M 70.8 298.245375 
L 427.92 298.245375 
L 427.92 32.133375 
L 70.8 32.133375 
z
" style="fill:#ffffff;"/>
   </g>
   <g id="line2d_1">
    <path d="M 42.042377 298.245375 
L 42.042377 290.280786 
L 54.427611 290.280786 
L 54.427611 289.20449 
L 61.672509 289.20449 
L 61.672509 288.558712 
L 66.812845 288.558712 
L 66.812845 287.912935 
L 70.8 287.912935 
L 70.8 287.267157 
L 74.057743 287.267157 
L 74.057743 287.051898 
L 76.812125 287.051898 
L 76.812125 286.836639 
L 79.198079 286.836639 
L 79.198079 286.62138 
L 81.30264 286.62138 
L 81.30264 286.40612 
L 83.185234 286.40612 
L 83.185234 275.643162 
L 84.888247 275.643162 
L 84.888247 274.997384 
L 86.442977 274.997384 
L 86.442977 265.310722 
L 87.873189 265.310722 
L 87.873189 265.095462 
L 90.430132 265.095462 
L 90.430132 263.373389 
L 91.583313 263.373389 
L 91.583313 262.081834 
L 94.653954 262.081834 
L 94.653954 261.866575 
L 95.570468 261.866575 
L 95.570468 261.005538 
L 97.273482 261.005538 
L 97.273482 260.790279 
L 98.067751 260.790279 
L 98.067751 260.57502 
L 98.828211 260.57502 
L 98.828211 259.713983 
L 99.557623 259.713983 
L 99.557623 259.498724 
L 100.258423 259.498724 
L 100.258423 258.852946 
L 102.209609 258.852946 
L 102.209609 258.637687 
L 103.401258 258.637687 
L 103.401258 258.422428 
L 103.968548 258.422428 
L 103.968548 257.99191 
L 104.518379 257.99191 
L 104.518379 257.77665 
L 105.569748 257.77665 
L 105.569748 257.130873 
L 106.073108 257.130873 
L 106.073108 256.915614 
L 106.562676 256.915614 
L 106.562676 256.700355 
L 108.396913 256.700355 
L 108.396913 256.269836 
L 109.658716 256.269836 
L 109.658716 255.839318 
L 110.452985 255.839318 
L 110.452985 255.4088 
L 111.213445 255.4088 
L 111.213445 254.978281 
L 111.581873 254.978281 
L 111.581873 254.763022 
L 112.643657 254.763022 
L 112.643657 254.547763 
L 112.984013 254.547763 
L 112.984013 254.332504 
L 113.318006 254.332504 
L 113.318006 253.686726 
L 113.64587 253.686726 
L 113.64587 253.256208 
L 114.284085 253.256208 
L 114.284085 253.040949 
L 114.594843 253.040949 
L 114.594843 252.395171 
L 115.2006 252.395171 
L 115.2006 252.179912 
L 115.786492 252.179912 
L 115.786492 251.964653 
L 116.072388 251.964653 
L 116.072388 251.749394 
L 116.353782 251.749394 
L 116.353782 251.534134 
L 116.630812 251.534134 
L 116.630812 251.318875 
L 117.697882 251.318875 
L 117.697882 250.673098 
L 118.208435 250.673098 
L 118.208435 250.242579 
L 118.458343 250.242579 
L 118.458343 249.812061 
L 118.704803 249.812061 
L 118.704803 249.166284 
L 118.947911 249.166284 
L 118.947911 248.951024 
L 119.187755 248.951024 
L 119.187755 248.735765 
L 119.657995 248.735765 
L 119.657995 248.520506 
L 119.888555 248.520506 
L 119.888555 248.305247 
L 120.116177 248.305247 
L 120.116177 247.874729 
L 120.340936 247.874729 
L 120.340936 247.659469 
L 120.562903 247.659469 
L 120.562903 247.44421 
L 120.782147 247.44421 
L 120.782147 247.013692 
L 120.998733 247.013692 
L 120.998733 246.152655 
L 121.212725 246.152655 
L 121.212725 245.937396 
L 121.424184 245.937396 
L 121.424184 245.722137 
L 121.839741 245.722137 
L 121.839741 244.645841 
L 122.04395 244.645841 
L 122.04395 243.354286 
L 122.245852 243.354286 
L 122.245852 242.062731 
L 122.445497 242.062731 
L 122.445497 240.555917 
L 122.642937 240.555917 
L 122.642937 239.264362 
L 122.838219 239.264362 
L 122.838219 238.618584 
L 123.03139 238.618584 
L 123.03139 236.896511 
L 123.222494 236.896511 
L 123.222494 236.035474 
L 123.411577 236.035474 
L 123.411577 235.389696 
L 124.148511 235.389696 
L 124.148511 234.959178 
L 124.328091 234.959178 
L 124.328091 234.743919 
L 124.505885 234.743919 
L 124.505885 234.52866 
L 124.856251 234.52866 
L 124.856251 234.313401 
L 125.537024 234.313401 
L 125.537024 233.882882 
L 125.70324 233.882882 
L 125.70324 233.667623 
L 125.867924 233.667623 
L 125.867924 233.452364 
L 126.031105 233.452364 
L 126.031105 233.237105 
L 126.51189 233.237105 
L 126.51189 233.021846 
L 126.669319 233.021846 
L 126.669319 232.806586 
L 127.285522 232.806586 
L 127.285522 232.591327 
L 127.436309 232.591327 
L 127.436309 232.160809 
L 127.585834 232.160809 
L 127.585834 231.94555 
L 128.315246 231.94555 
L 128.315246 231.730291 
L 128.598873 231.730291 
L 128.598873 231.299772 
L 129.288847 231.299772 
L 129.288847 231.084513 
L 129.423702 231.084513 
L 129.423702 230.869254 
L 129.690395 230.869254 
L 129.690395 230.438736 
L 130.212129 230.438736 
L 130.212129 230.223476 
L 130.71906 230.223476 
L 130.71906 230.008217 
L 130.967232 230.008217 
L 130.967232 229.792958 
L 131.090037 229.792958 
L 131.090037 229.36244 
L 131.333145 229.36244 
L 131.333145 229.14718 
L 131.453469 229.14718 
L 131.453469 228.931921 
L 131.809656 228.931921 
L 131.809656 228.716662 
L 132.614144 228.716662 
L 132.614144 228.501403 
L 132.837499 228.501403 
L 132.837499 228.070885 
L 133.058096 228.070885 
L 133.167381 227.425107 
L 133.597959 227.425107 
L 133.597959 227.209848 
L 133.914217 227.209848 
L 134.018404 226.56407 
L 134.731187 226.56407 
L 134.731187 225.918293 
L 135.028171 225.918293 
L 135.126079 225.487775 
L 135.3203 225.487775 
L 135.3203 225.272515 
L 135.512432 225.272515 
L 135.607728 224.841997 
L 135.890607 224.841997 
L 135.890607 224.626738 
L 136.076735 224.626738 
L 136.169077 224.196219 
L 136.260944 224.196219 
L 136.260944 223.98096 
L 136.533745 223.98096 
L 136.623761 223.335183 
L 136.713325 223.335183 
L 136.713325 222.904664 
L 136.891119 222.904664 
L 136.891119 222.689405 
L 137.067161 222.689405 
L 137.067161 222.474146 
L 137.499824 222.474146 
L 137.585114 222.043628 
L 137.669998 222.043628 
L 137.669998 221.828369 
L 137.922258 221.828369 
L 138.005559 221.182591 
L 138.334935 221.182591 
L 138.334935 220.752073 
L 138.658348 220.752073 
L 138.658348 220.536814 
L 138.897124 220.536814 
L 138.976012 220.106295 
L 139.132751 220.106295 
L 139.132751 219.891036 
L 139.288127 219.891036 
L 139.288127 219.675777 
L 139.594883 219.675777 
L 139.670757 219.245259 
L 139.746309 219.245259 
L 139.821543 218.81474 
L 139.896462 218.81474 
L 139.896462 218.168963 
L 140.119352 218.168963 
L 140.119352 217.738444 
L 140.266416 217.738444 
L 140.266416 217.307926 
L 140.70048 217.307926 
L 140.77181 216.877408 
L 140.984107 216.877408 
L 140.984107 216.662148 
L 141.12425 216.662148 
L 141.12425 216.446889 
L 141.263302 216.446889 
L 141.263302 216.23163 
L 141.40128 216.23163 
L 141.40128 216.016371 
L 141.606271 216.016371 
L 141.674081 215.370593 
L 141.94278 215.370593 
L 141.94278 215.155334 
L 142.141685 215.155334 
L 142.141685 214.940075 
L 142.273069 214.940075 
L 142.273069 214.724816 
L 142.468351 214.724816 
L 142.532973 214.079038 
L 142.789151 214.079038 
L 142.789151 213.863779 
L 143.290745 213.863779 
L 143.290745 213.433261 
L 143.536359 213.433261 
L 143.597239 213.002743 
L 143.778642 213.002743 
L 143.838703 212.572224 
L 143.958223 212.572224 
L 143.958223 212.356965 
L 144.076948 212.356965 
L 144.076948 212.141706 
L 144.19489 212.141706 
L 144.25357 211.495928 
L 144.312059 211.495928 
L 144.312059 211.280669 
L 144.773197 211.280669 
L 144.830011 210.850151 
L 144.999378 210.850151 
L 145.055479 210.419632 
L 145.167155 210.419632 
L 145.278138 209.558596 
L 145.333372 209.558596 
L 145.388435 208.4823 
L 145.498056 208.4823 
L 145.607008 207.621263 
L 145.876517 207.621263 
L 145.983193 206.975486 
L 146.089235 206.975486 
L 146.194652 206.329708 
L 146.247129 206.329708 
L 146.247129 205.89919 
L 146.403639 205.89919 
L 146.507222 205.038153 
L 146.55879 205.038153 
L 146.66148 204.607635 
L 146.915654 204.607635 
L 147.01632 203.746598 
L 147.166263 203.746598 
L 147.26553 202.885561 
L 147.36425 202.885561 
L 147.462426 202.455043 
L 147.511313 202.455043 
L 147.511313 202.024525 
L 147.657176 202.024525 
L 147.753761 201.594006 
L 147.801858 201.594006 
L 147.849826 200.302451 
L 147.992963 200.302451 
L 148.087754 199.441415 
L 148.229005 199.441415 
L 148.275841 198.580378 
L 148.415618 198.580378 
L 148.461969 198.14986 
L 148.600303 198.14986 
L 148.691935 197.288823 
L 148.828507 197.288823 
L 148.918979 196.858305 
L 148.964044 196.858305 
L 149.053833 196.212527 
L 149.143174 196.212527 
L 149.187677 195.782009 
L 149.276353 195.782009 
L 149.320526 195.136231 
L 149.452395 195.136231 
L 149.53977 194.275194 
L 149.583298 194.275194 
L 149.670036 193.414158 
L 149.713248 193.414158 
L 149.756356 192.337862 
L 149.84226 192.337862 
L 149.885058 191.692084 
L 149.970348 191.692084 
L 150.055232 190.831048 
L 150.097524 190.831048 
L 150.139715 189.754752 
L 150.2238 189.754752 
L 150.2238 189.539493 
L 150.432299 189.539493 
L 150.515022 189.108974 
L 150.55624 189.108974 
L 150.597364 188.678456 
L 150.922987 188.678456 
L 150.963276 188.247938 
L 151.083601 188.247938 
L 151.083601 188.032678 
L 151.242783 188.032678 
L 151.321846 187.60216 
L 151.361246 187.60216 
L 151.361246 187.386901 
L 151.634644 187.386901 
L 151.634644 187.171642 
L 151.750545 187.171642 
L 151.750545 186.956383 
L 151.94206 186.956383 
L 151.94206 186.741123 
L 152.055991 186.741123 
L 152.055991 186.525864 
L 152.206777 186.525864 
L 152.281696 186.095346 
L 152.430598 186.095346 
L 152.430598 185.880087 
L 152.578269 185.880087 
L 152.688227 185.449568 
L 152.72473 185.449568 
L 152.72473 185.234309 
L 153.085714 185.234309 
L 153.192603 184.803791 
L 153.369341 184.803791 
L 153.474551 184.373272 
L 153.544349 184.373272 
L 153.544349 184.158013 
L 153.717659 184.158013 
L 153.820843 183.512236 
L 154.025442 183.512236 
L 154.025442 183.296977 
L 154.19417 183.296977 
L 154.19417 183.081717 
L 154.328014 183.081717 
L 154.328014 182.866458 
L 154.625547 182.866458 
L 154.625547 182.651199 
L 154.756211 182.651199 
L 154.756211 182.43594 
L 155.395567 182.43594 
L 155.395567 182.220681 
L 155.551895 182.220681 
L 155.645039 181.790162 
L 155.7377 181.790162 
L 155.829883 181.359644 
L 155.921593 181.359644 
L 155.921593 181.144385 
L 156.313652 181.144385 
L 156.313652 180.713867 
L 156.491741 180.713867 
L 156.550712 180.283348 
L 156.668072 180.283348 
L 156.697293 179.85283 
L 156.784667 179.85283 
L 156.871617 179.207052 
L 156.958146 179.207052 
L 156.958146 178.991793 
L 157.101435 178.991793 
L 157.101435 178.776534 
L 157.215245 178.776534 
L 157.30013 178.346016 
L 157.412685 178.346016 
L 157.412685 178.130756 
L 157.5802 178.130756 
L 157.663372 177.700238 
L 157.801138 177.700238 
L 157.91059 177.054461 
L 158.448018 177.054461 
L 158.448018 176.839201 
L 158.788873 176.839201 
L 158.892456 176.408683 
L 159.250342 176.408683 
L 159.250342 176.193424 
L 159.376441 176.193424 
L 159.476683 175.547646 
L 159.501656 175.547646 
L 159.501656 175.332387 
L 160.23506 175.332387 
L 160.23506 175.117128 
L 160.520196 175.117128 
L 160.520196 174.901869 
L 160.637672 174.901869 
L 160.637672 174.68661 
L 161.100004 174.68661 
L 161.100004 174.471351 
L 161.595122 174.471351 
L 161.683688 174.040832 
L 162.098482 174.040832 
L 162.120049 173.610314 
L 162.227494 173.610314 
L 162.334298 172.964536 
L 162.440466 172.964536 
L 162.524949 172.318759 
L 162.58805 172.318759 
L 162.629994 171.88824 
L 162.734425 171.88824 
L 162.734425 171.672981 
L 162.858942 171.672981 
L 162.858942 171.457722 
L 163.003124 171.457722 
L 163.105403 170.811945 
L 163.186807 170.811945 
L 163.288043 170.166167 
L 163.368621 170.166167 
L 163.368621 169.950908 
L 163.48881 169.950908 
L 163.56849 169.30513 
L 163.628017 169.30513 
L 163.628017 169.089871 
L 163.844603 169.089871 
L 163.844603 168.874612 
L 164.019878 168.874612 
L 164.058595 168.444094 
L 164.174247 168.444094 
L 164.174247 168.013575 
L 164.327294 168.013575 
L 164.38435 167.583057 
L 164.497919 167.583057 
L 164.497919 167.367798 
L 164.704272 167.367798 
L 164.797287 166.72202 
L 164.945111 166.72202 
L 165.055182 166.291502 
L 165.073461 166.291502 
L 165.164579 165.645724 
L 165.23714 165.645724 
L 165.23714 165.430465 
L 165.435176 165.430465 
L 165.435176 165.215206 
L 165.560066 165.215206 
L 165.631042 164.13891 
L 165.719367 164.13891 
L 165.789714 163.708392 
L 165.859785 163.708392 
L 165.94699 163.062614 
L 165.999108 163.062614 
L 166.016448 162.632096 
L 166.120132 162.632096 
L 166.171749 161.771059 
L 166.257447 161.771059 
L 166.291612 160.910023 
L 166.393716 160.910023 
L 166.478359 160.264245 
L 166.512104 160.264245 
L 166.596189 159.403208 
L 166.646451 159.403208 
L 166.729908 158.542172 
L 166.763182 158.542172 
L 166.846097 157.465876 
L 166.961535 157.465876 
L 166.961535 157.250617 
L 167.222627 157.250617 
L 167.222627 157.035358 
L 167.623094 157.035358 
L 167.686344 156.174321 
L 167.999279 156.174321 
L 168.076664 155.743802 
L 168.122934 155.743802 
L 168.215117 155.313284 
L 168.291575 155.313284 
L 168.382894 154.667507 
L 168.42838 154.667507 
L 168.42838 154.452247 
L 168.609171 154.452247 
L 168.669031 154.021729 
L 168.832619 154.021729 
L 168.832619 153.591211 
L 168.994723 153.591211 
L 169.082527 153.160692 
L 169.256851 153.160692 
L 169.271302 152.730174 
L 169.386487 152.730174 
L 169.386487 152.514915 
L 169.685364 152.514915 
L 169.769847 151.869137 
L 169.951534 151.869137 
L 170.020925 151.22336 
L 170.131393 151.22336 
L 170.20009 150.792842 
L 170.295825 150.792842 
L 170.363894 150.362323 
L 170.418163 150.362323 
L 170.418163 150.147064 
L 170.593408 150.147064 
L 170.606817 149.716546 
L 170.859704 149.716546 
L 170.886116 149.070768 
L 170.978254 149.070768 
L 171.056853 148.64025 
L 171.109061 148.64025 
L 171.109061 148.424991 
L 171.354986 148.424991 
L 171.406331 147.994472 
L 171.546774 147.994472 
L 171.635576 147.348695 
L 171.723938 147.348695 
L 171.786788 146.918176 
L 171.849417 146.918176 
L 171.899363 146.487658 
L 171.986434 146.487658 
L 172.085426 145.626621 
L 172.122408 145.626621 
L 172.122408 145.411362 
L 172.245129 145.411362 
L 172.318359 144.980844 
L 172.415534 144.980844 
L 172.512184 144.335066 
L 172.536265 144.335066 
L 172.64423 143.904548 
L 172.775307 143.904548 
L 172.810889 143.25877 
L 172.987744 143.25877 
L 172.999473 142.828252 
L 173.151245 142.828252 
L 173.232437 141.967215 
L 173.359285 141.967215 
L 173.450975 141.536697 
L 173.473824 141.536697 
L 173.576286 136.585736 
L 173.689447 136.585736 
L 173.74576 135.724699 
L 173.835494 135.724699 
L 173.835494 135.50944 
L 173.94703 135.50944 
L 174.035761 134.433144 
L 174.113041 134.433144 
L 174.211911 133.572108 
L 174.233809 133.572108 
L 174.342894 130.127961 
L 174.364631 130.127961 
L 174.472923 124.531222 
L 174.483716 124.531222 
L 174.494503 123.454927 
L 174.655526 123.454927 
L 174.762075 121.948112 
L 174.772695 121.948112 
L 174.867992 120.441298 
L 174.8891 120.441298 
L 174.994269 118.934484 
L 175.004752 118.934484 
L 175.098822 117.858188 
L 175.119659 117.858188 
L 175.223484 116.566633 
L 175.254514 116.566633 
L 175.35756 114.6293 
L 175.367832 114.6293 
L 175.449796 113.768264 
L 175.480436 113.768264 
L 175.561886 112.26145 
L 175.592334 112.26145 
L 175.683369 111.185154 
L 175.733745 111.185154 
L 175.844073 110.754635 
L 175.963659 110.754635 
L 176.072581 110.108858 
L 176.141551 110.108858 
L 176.190653 109.678339 
L 176.327424 109.678339 
L 176.327424 109.247821 
L 176.443829 109.247821 
L 176.521014 107.956266 
L 176.712528 107.956266 
L 176.807521 107.095229 
L 176.873717 107.095229 
L 176.977246 104.512119 
L 176.986628 104.512119 
L 177.024107 104.081601 
L 177.367111 104.081601 
L 177.367111 103.866342 
L 177.604261 103.866342 
L 177.604261 103.651083 
L 177.918612 103.651083 
L 177.918612 103.435823 
L 178.245019 103.435823 
L 178.349614 103.005305 
L 178.693904 103.005305 
L 178.79591 102.574787 
L 178.821321 102.574787 
L 178.821321 102.359528 
L 179.156725 102.359528 
L 179.156725 102.144268 
L 179.575432 102.144268 
L 179.575432 101.929009 
L 179.968683 101.929009 
L 180.000406 101.498491 
L 180.236552 101.498491 
L 180.236552 101.283232 
L 180.508168 101.283232 
L 180.508168 101.067973 
L 180.896704 101.067973 
L 180.896704 100.852713 
L 181.37262 100.852713 
L 181.37262 100.637454 
L 181.569657 100.637454 
L 181.670975 100.206936 
L 182.965222 100.206936 
L 182.965222 99.991677 
L 184.253397 99.991677 
L 184.253397 99.776418 
L 184.660912 99.776418 
L 184.660912 99.561158 
L 185.559714 99.561158 
L 185.559714 99.345899 
L 186.503782 99.345899 
L 186.503782 99.13064 
L 186.744433 99.13064 
L 186.744433 98.915381 
L 187.216226 98.915381 
L 187.216226 98.700122 
L 188.378665 98.700122 
L 188.378665 98.484862 
L 188.698054 98.484862 
L 188.698054 98.269603 
L 189.112043 98.269603 
L 189.112043 98.054344 
L 189.460746 98.054344 
L 189.460746 97.839085 
L 189.88499 97.839085 
L 189.88499 97.623826 
L 190.097897 97.623826 
L 190.097897 97.408567 
L 190.348305 97.408567 
L 190.352745 96.978048 
L 191.198089 96.978048 
L 191.198089 96.762789 
L 191.620701 96.762789 
L 191.620701 96.54753 
L 192.413352 96.54753 
L 192.413352 96.332271 
L 193.134376 96.332271 
L 193.134376 96.117012 
L 193.484263 96.117012 
L 193.484263 95.901752 
L 194.034546 95.901752 
L 194.034546 95.686493 
L 194.819074 95.686493 
L 194.819074 95.471234 
L 195.373934 95.471234 
L 195.373934 95.255975 
L 196.396551 95.255975 
L 196.396551 95.040716 
L 196.557256 95.040716 
L 196.557256 94.825457 
L 197.581358 94.825457 
L 197.581358 94.610197 
L 198.095247 94.610197 
L 198.095247 94.394938 
L 198.502167 94.394938 
L 198.502167 94.179679 
L 199.717488 94.179679 
L 199.717488 93.96442 
L 199.944711 93.96442 
L 199.944711 93.749161 
L 200.791147 93.749161 
L 200.791147 93.533901 
L 200.946405 93.533901 
L 201.03208 93.103383 
L 201.194949 93.103383 
L 201.194949 92.888124 
L 201.315534 92.888124 
L 201.315534 92.672865 
L 201.549544 92.672865 
L 201.549544 92.457606 
L 201.83431 92.457606 
L 201.83431 92.242346 
L 202.003942 92.242346 
L 202.003942 92.027087 
L 202.126098 92.027087 
L 202.126098 91.811828 
L 202.290719 91.811828 
L 202.290719 91.596569 
L 202.478627 91.596569 
L 202.478627 91.38131 
L 202.693531 91.38131 
L 202.740198 90.950791 
L 202.813288 90.950791 
L 202.813288 90.735532 
L 202.943222 90.735532 
L 202.995808 90.305014 
L 203.056963 90.305014 
L 203.056963 90.089755 
L 203.187308 90.089755 
L 203.187308 89.874496 
L 203.353204 89.874496 
L 203.353204 89.659236 
L 203.606596 89.659236 
L 203.606596 89.443977 
L 203.804245 89.443977 
L 203.804245 89.228718 
L 204.063734 89.228718 
L 204.063734 89.013459 
L 204.207419 89.013459 
L 204.207419 88.7982 
L 204.766912 88.7982 
L 204.766912 88.582941 
L 204.95612 88.582941 
L 204.95612 88.367681 
L 205.278637 88.367681 
L 205.336307 87.937163 
L 205.999421 87.937163 
L 205.999421 87.721904 
L 206.150425 87.721904 
L 206.150425 87.506645 
L 206.902708 87.506645 
L 207.011382 86.860867 
L 207.081145 86.860867 
L 207.183552 86.21509 
L 207.276768 86.21509 
L 207.292257 85.784571 
L 207.398594 85.784571 
L 207.415687 85.354053 
L 207.577252 85.354053 
L 207.577252 85.138794 
L 207.775919 85.138794 
L 207.775919 84.923535 
L 207.947545 84.923535 
L 207.947545 84.708275 
L 208.161833 84.708275 
L 208.161833 84.493016 
L 208.315194 84.493016 
L 208.315194 84.277757 
L 208.48496 84.277757 
L 208.595649 83.847239 
L 208.627605 83.847239 
L 208.689755 83.41672 
L 208.739002 83.41672 
L 208.739002 83.201461 
L 208.895374 83.201461 
L 208.980094 82.770943 
L 209.019181 82.770943 
L 209.120408 82.125165 
L 209.199433 82.125165 
L 209.27811 81.694647 
L 209.333439 81.694647 
L 209.40236 81.264129 
L 209.471016 81.264129 
L 209.557603 80.83361 
L 209.586373 80.83361 
L 209.660355 80.187833 
L 209.73103 80.187833 
L 209.8089 79.542055 
L 209.870059 79.542055 
L 209.962148 78.896278 
L 210.012447 78.896278 
L 210.121435 78.035241 
L 210.128775 78.035241 
L 210.191777 77.389464 
L 210.247268 77.389464 
L 210.273493 76.958945 
L 210.430041 76.958945 
L 210.430041 76.743686 
L 210.556592 76.743686 
L 210.653772 76.097908 
L 210.746173 76.097908 
L 210.849379 75.66739 
L 210.936568 75.66739 
L 211.028917 75.236872 
L 211.310006 75.236872 
L 211.310006 75.021613 
L 212.940935 75.021613 
L 212.940935 74.806353 
L 218.056174 74.806353 
L 218.056174 74.591094 
L 218.188479 74.591094 
L 218.29009 74.160576 
L 218.357819 74.160576 
L 218.426216 73.730058 
L 218.510886 73.730058 
L 218.600639 73.299539 
L 218.680851 73.299539 
L 218.767946 72.653762 
L 218.872623 72.653762 
L 218.974007 72.007984 
L 219.00172 72.007984 
L 219.06414 71.577466 
L 219.130777 71.577466 
L 219.2007 71.146948 
L 219.259789 71.146948 
L 219.368634 70.50117 
L 219.393995 70.50117 
L 219.487255 70.070652 
L 219.565324 70.070652 
L 219.67319 69.424874 
L 219.712721 69.424874 
L 219.776132 68.994356 
L 219.854654 68.994356 
L 219.926897 68.348578 
L 219.996314 68.348578 
L 220.072194 67.702801 
L 220.13099 67.702801 
L 220.173706 67.272282 
L 220.255502 67.272282 
L 220.338582 66.626505 
L 220.407247 66.626505 
L 220.466599 66.195987 
L 224.007786 66.195987 
L 224.007786 65.980727 
L 224.267787 65.980727 
L 224.36002 65.550209 
L 224.762479 65.550209 
L 224.762479 65.33495 
L 224.94083 65.33495 
L 224.94083 65.119691 
L 225.149109 65.119691 
L 225.149109 64.904431 
L 225.329303 64.904431 
L 225.418724 64.473913 
L 226.007715 64.473913 
L 226.007715 64.258654 
L 227.105512 64.258654 
L 227.202868 63.828136 
L 227.328306 63.828136 
L 227.399352 63.397617 
L 227.465112 63.397617 
L 227.537279 62.967099 
L 227.615777 62.967099 
L 227.693931 62.536581 
L 227.782677 62.536581 
L 227.842142 61.890803 
L 227.912806 61.890803 
L 227.963187 61.460285 
L 228.033913 61.460285 
L 228.120991 61.029766 
L 228.156881 61.029766 
L 228.214582 60.599248 
L 228.299194 60.599248 
L 228.355909 60.16873 
L 228.426682 60.16873 
L 228.47879 59.738211 
L 228.549079 59.738211 
L 228.614399 59.307693 
L 228.667004 59.307693 
L 228.75675 58.877175 
L 228.820801 58.877175 
L 228.874345 58.446656 
L 228.940538 58.446656 
L 228.940538 58.231397 
L 230.519877 58.231397 
L 230.519877 58.016138 
L 231.864664 58.016138 
L 231.864664 57.800879 
L 233.053143 57.800879 
L 233.053143 57.58562 
L 234.777005 57.58562 
L 234.777005 57.37036 
L 235.602217 57.37036 
L 235.602217 57.155101 
L 235.851645 57.155101 
L 235.851645 56.939842 
L 236.27586 56.939842 
L 236.27586 56.724583 
L 236.521483 56.724583 
L 236.521483 56.509324 
L 236.735655 56.509324 
L 236.735655 56.294065 
L 236.885999 56.294065 
L 236.985857 53.926214 
L 237.029227 53.926214 
L 237.14027 52.634659 
L 237.144477 52.634659 
L 237.205857 50.482067 
L 247.102473 50.482067 
L 247.102473 50.266808 
L 248.60427 50.266808 
L 248.60427 50.051549 
L 250.996081 50.051549 
L 251.105597 48.544734 
L 251.112115 48.544734 
L 251.213416 46.392143 
L 251.225781 46.392143 
L 251.33361 44.239551 
L 251.344723 44.239551 
L 251.368387 43.593773 
L 261.55159 43.593773 
L 261.55159 43.378514 
L 269.612605 43.378514 
L 269.621857 42.947996 
L 277.066266 42.947996 
L 277.066543 42.517478 
L 321.948845 42.517478 
L 321.997811 41.8717 
L 325.270571 41.8717 
L 325.270571 41.656441 
L 329.26197 41.656441 
L 329.35511 38.858072 
L 334.495764 38.858072 
L 334.503349 34.768147 
L 358.8 34.768147 
L 358.8 34.768147 
" style="fill:none;stroke:#f5deb3;stroke-linecap:square;stroke-width:6;"/>
   </g>
   <g id="line2d_2"/>
   <g id="line2d_3">
    <path d="M 358.8 34.768147 
L 390.48 40.037692 
" style="fill:none;stroke:#f5deb3;stroke-linecap:square;stroke-width:6;"/>
    <defs>
     <path d="M -0 7.778175 
L 7.778175 0 
L 0 -7.778175 
L -7.778175 -0 
z
" id="m9f41291e75" style="stroke:#f5deb3;stroke-linejoin:miter;stroke-width:1.5;"/>
    </defs>
    <g>
     <use style="fill:#f5deb3;stroke:#f5deb3;stroke-linejoin:miter;stroke-width:1.5;" x="358.8" xlink:href="#m9f41291e75" y="34.768147"/>
     <use style="fill:#f5deb3;stroke:#f5deb3;stroke-linejoin:miter;stroke-width:1.5;" x="390.48" xlink:href="#m9f41291e75" y="40.037692"/>
    </g>
   </g>
   <g id="matplotlib.axis_1">
    <g id="xtick_1">
     <g id="line2d_4">
      <path clip-path="url(#p4672f33559)" d="M 70.8 298.245375 
L 70.8 32.133375 
" style="fill:none;stroke:#b0b0b0;stroke-linecap:square;stroke-width:0.8;"/>
     </g>
     <g id="line2d_5">
      <defs>
       <path d="M 0 0 
L 0 3.5 
" id="m187d15a898" style="stroke:#000000;stroke-width:0.8;"/>
      </defs>
      <g>
       <use style="stroke:#000000;stroke-width:0.8;" x="70.8" xlink:href="#m187d15a898" y="298.245375"/>
      </g>
     </g>
     <g id="text_1">
      <!-- 0 -->
      <defs>
       <path d="M 31.78125 66.40625 
Q 24.171875 66.40625 20.328125 58.90625 
Q 16.5 51.421875 16.5 36.375 
Q 16.5 21.390625 20.328125 13.890625 
Q 24.171875 6.390625 31.78125 6.390625 
Q 39.453125 6.390625 43.28125 13.890625 
Q 47.125 21.390625 47.125 36.375 
Q 47.125 51.421875 43.28125 58.90625 
Q 39.453125 66.40625 31.78125 66.40625 
M 31.78125 74.21875 
Q 44.046875 74.21875 50.515625 64.515625 
Q 56.984375 54.828125 56.984375 36.375 
Q 56.984375 17.96875 50.515625 8.265625 
Q 44.046875 -1.421875 31.78125 -1.421875 
Q 19.53125 -1.421875 13.0625 8.265625 
Q 6.59375 17.96875 6.59375 36.375 
Q 6.59375 54.828125 13.0625 64.515625 
Q 19.53125 74.21875 31.78125 74.21875 
" id="DejaVuSans-30"/>
      </defs>
      <g transform="translate(64.4375 320.44225)scale(0.2 -0.2)">
       <use xlink:href="#DejaVuSans-30"/>
      </g>
     </g>
    </g>
    <g id="xtick_2">
     <g id="line2d_6">
      <path clip-path="url(#p4672f33559)" d="M 153.085714 298.245375 
L 153.085714 32.133375 
" style="fill:none;stroke:#b0b0b0;stroke-linecap:square;stroke-width:0.8;"/>
     </g>
     <g id="line2d_7">
      <g>
       <use style="stroke:#000000;stroke-width:0.8;" x="153.085714" xlink:href="#m187d15a898" y="298.245375"/>
      </g>
     </g>
     <g id="text_2">
      <!-- 2 -->
      <defs>
       <path d="M 19.1875 8.296875 
L 53.609375 8.296875 
L 53.609375 0 
L 7.328125 0 
L 7.328125 8.296875 
Q 12.9375 14.109375 22.625 23.890625 
Q 32.328125 33.6875 34.8125 36.53125 
Q 39.546875 41.84375 41.421875 45.53125 
Q 43.3125 49.21875 43.3125 52.78125 
Q 43.3125 58.59375 39.234375 62.25 
Q 35.15625 65.921875 28.609375 65.921875 
Q 23.96875 65.921875 18.8125 64.3125 
Q 13.671875 62.703125 7.8125 59.421875 
L 7.8125 69.390625 
Q 13.765625 71.78125 18.9375 73 
Q 24.125 74.21875 28.421875 74.21875 
Q 39.75 74.21875 46.484375 68.546875 
Q 53.21875 62.890625 53.21875 53.421875 
Q 53.21875 48.921875 51.53125 44.890625 
Q 49.859375 40.875 45.40625 35.40625 
Q 44.1875 33.984375 37.640625 27.21875 
Q 31.109375 20.453125 19.1875 8.296875 
" id="DejaVuSans-32"/>
      </defs>
      <g transform="translate(146.723214 320.44225)scale(0.2 -0.2)">
       <use xlink:href="#DejaVuSans-32"/>
      </g>
     </g>
    </g>
    <g id="xtick_3">
     <g id="line2d_8">
      <path clip-path="url(#p4672f33559)" d="M 235.371429 298.245375 
L 235.371429 32.133375 
" style="fill:none;stroke:#b0b0b0;stroke-linecap:square;stroke-width:0.8;"/>
     </g>
     <g id="line2d_9">
      <g>
       <use style="stroke:#000000;stroke-width:0.8;" x="235.371429" xlink:href="#m187d15a898" y="298.245375"/>
      </g>
     </g>
     <g id="text_3">
      <!-- 4 -->
      <defs>
       <path d="M 37.796875 64.3125 
L 12.890625 25.390625 
L 37.796875 25.390625 
z
M 35.203125 72.90625 
L 47.609375 72.90625 
L 47.609375 25.390625 
L 58.015625 25.390625 
L 58.015625 17.1875 
L 47.609375 17.1875 
L 47.609375 0 
L 37.796875 0 
L 37.796875 17.1875 
L 4.890625 17.1875 
L 4.890625 26.703125 
z
" id="DejaVuSans-34"/>
      </defs>
      <g transform="translate(229.008929 320.44225)scale(0.2 -0.2)">
       <use xlink:href="#DejaVuSans-34"/>
      </g>
     </g>
    </g>
    <g id="xtick_4">
     <g id="line2d_10">
      <path clip-path="url(#p4672f33559)" d="M 317.657143 298.245375 
L 317.657143 32.133375 
" style="fill:none;stroke:#b0b0b0;stroke-linecap:square;stroke-width:0.8;"/>
     </g>
     <g id="line2d_11">
      <g>
       <use style="stroke:#000000;stroke-width:0.8;" x="317.657143" xlink:href="#m187d15a898" y="298.245375"/>
      </g>
     </g>
     <g id="text_4">
      <!-- 6 -->
      <defs>
       <path d="M 33.015625 40.375 
Q 26.375 40.375 22.484375 35.828125 
Q 18.609375 31.296875 18.609375 23.390625 
Q 18.609375 15.53125 22.484375 10.953125 
Q 26.375 6.390625 33.015625 6.390625 
Q 39.65625 6.390625 43.53125 10.953125 
Q 47.40625 15.53125 47.40625 23.390625 
Q 47.40625 31.296875 43.53125 35.828125 
Q 39.65625 40.375 33.015625 40.375 
M 52.59375 71.296875 
L 52.59375 62.3125 
Q 48.875 64.0625 45.09375 64.984375 
Q 41.3125 65.921875 37.59375 65.921875 
Q 27.828125 65.921875 22.671875 59.328125 
Q 17.53125 52.734375 16.796875 39.40625 
Q 19.671875 43.65625 24.015625 45.921875 
Q 28.375 48.1875 33.59375 48.1875 
Q 44.578125 48.1875 50.953125 41.515625 
Q 57.328125 34.859375 57.328125 23.390625 
Q 57.328125 12.15625 50.6875 5.359375 
Q 44.046875 -1.421875 33.015625 -1.421875 
Q 20.359375 -1.421875 13.671875 8.265625 
Q 6.984375 17.96875 6.984375 36.375 
Q 6.984375 53.65625 15.1875 63.9375 
Q 23.390625 74.21875 37.203125 74.21875 
Q 40.921875 74.21875 44.703125 73.484375 
Q 48.484375 72.75 52.59375 71.296875 
" id="DejaVuSans-36"/>
      </defs>
      <g transform="translate(311.294643 320.44225)scale(0.2 -0.2)">
       <use xlink:href="#DejaVuSans-36"/>
      </g>
     </g>
    </g>
    <g id="xtick_5">
     <g id="line2d_12">
      <path clip-path="url(#p4672f33559)" d="M 399.942857 298.245375 
L 399.942857 32.133375 
" style="fill:none;stroke:#b0b0b0;stroke-linecap:square;stroke-width:0.8;"/>
     </g>
     <g id="line2d_13">
      <g>
       <use style="stroke:#000000;stroke-width:0.8;" x="399.942857" xlink:href="#m187d15a898" y="298.245375"/>
      </g>
     </g>
     <g id="text_5">
      <!-- 8 -->
      <defs>
       <path d="M 31.78125 34.625 
Q 24.75 34.625 20.71875 30.859375 
Q 16.703125 27.09375 16.703125 20.515625 
Q 16.703125 13.921875 20.71875 10.15625 
Q 24.75 6.390625 31.78125 6.390625 
Q 38.8125 6.390625 42.859375 10.171875 
Q 46.921875 13.96875 46.921875 20.515625 
Q 46.921875 27.09375 42.890625 30.859375 
Q 38.875 34.625 31.78125 34.625 
M 21.921875 38.8125 
Q 15.578125 40.375 12.03125 44.71875 
Q 8.5 49.078125 8.5 55.328125 
Q 8.5 64.0625 14.71875 69.140625 
Q 20.953125 74.21875 31.78125 74.21875 
Q 42.671875 74.21875 48.875 69.140625 
Q 55.078125 64.0625 55.078125 55.328125 
Q 55.078125 49.078125 51.53125 44.71875 
Q 48 40.375 41.703125 38.8125 
Q 48.828125 37.15625 52.796875 32.3125 
Q 56.78125 27.484375 56.78125 20.515625 
Q 56.78125 9.90625 50.3125 4.234375 
Q 43.84375 -1.421875 31.78125 -1.421875 
Q 19.734375 -1.421875 13.25 4.234375 
Q 6.78125 9.90625 6.78125 20.515625 
Q 6.78125 27.484375 10.78125 32.3125 
Q 14.796875 37.15625 21.921875 38.8125 
M 18.3125 54.390625 
Q 18.3125 48.734375 21.84375 45.5625 
Q 25.390625 42.390625 31.78125 42.390625 
Q 38.140625 42.390625 41.71875 45.5625 
Q 45.3125 48.734375 45.3125 54.390625 
Q 45.3125 60.0625 41.71875 63.234375 
Q 38.140625 66.40625 31.78125 66.40625 
Q 25.390625 66.40625 21.84375 63.234375 
Q 18.3125 60.0625 18.3125 54.390625 
" id="DejaVuSans-38"/>
      </defs>
      <g transform="translate(393.580357 320.44225)scale(0.2 -0.2)">
       <use xlink:href="#DejaVuSans-38"/>
      </g>
     </g>
    </g>
    <g id="xtick_6">
     <g id="line2d_14">
      <defs>
       <path d="M 0 0 
L 0 2 
" id="mdf97123cb5" style="stroke:#000000;stroke-width:0.6;"/>
      </defs>
      <g>
       <use style="stroke:#000000;stroke-width:0.6;" x="83.185234" xlink:href="#mdf97123cb5" y="298.245375"/>
      </g>
     </g>
    </g>
    <g id="xtick_7">
     <g id="line2d_15">
      <g>
       <use style="stroke:#000000;stroke-width:0.6;" x="95.570468" xlink:href="#mdf97123cb5" y="298.245375"/>
      </g>
     </g>
    </g>
    <g id="xtick_8">
     <g id="line2d_16">
      <g>
       <use style="stroke:#000000;stroke-width:0.6;" x="102.815366" xlink:href="#mdf97123cb5" y="298.245375"/>
      </g>
     </g>
    </g>
    <g id="xtick_9">
     <g id="line2d_17">
      <g>
       <use style="stroke:#000000;stroke-width:0.6;" x="107.955702" xlink:href="#mdf97123cb5" y="298.245375"/>
      </g>
     </g>
    </g>
    <g id="xtick_10">
     <g id="line2d_18">
      <g>
       <use style="stroke:#000000;stroke-width:0.6;" x="165.470948" xlink:href="#mdf97123cb5" y="298.245375"/>
      </g>
     </g>
    </g>
    <g id="xtick_11">
     <g id="line2d_19">
      <g>
       <use style="stroke:#000000;stroke-width:0.6;" x="177.856183" xlink:href="#mdf97123cb5" y="298.245375"/>
      </g>
     </g>
    </g>
    <g id="xtick_12">
     <g id="line2d_20">
      <g>
       <use style="stroke:#000000;stroke-width:0.6;" x="185.10108" xlink:href="#mdf97123cb5" y="298.245375"/>
      </g>
     </g>
    </g>
    <g id="xtick_13">
     <g id="line2d_21">
      <g>
       <use style="stroke:#000000;stroke-width:0.6;" x="190.241417" xlink:href="#mdf97123cb5" y="298.245375"/>
      </g>
     </g>
    </g>
    <g id="xtick_14">
     <g id="line2d_22">
      <g>
       <use style="stroke:#000000;stroke-width:0.6;" x="247.756663" xlink:href="#mdf97123cb5" y="298.245375"/>
      </g>
     </g>
    </g>
    <g id="xtick_15">
     <g id="line2d_23">
      <g>
       <use style="stroke:#000000;stroke-width:0.6;" x="260.141897" xlink:href="#mdf97123cb5" y="298.245375"/>
      </g>
     </g>
    </g>
    <g id="xtick_16">
     <g id="line2d_24">
      <g>
       <use style="stroke:#000000;stroke-width:0.6;" x="267.386794" xlink:href="#mdf97123cb5" y="298.245375"/>
      </g>
     </g>
    </g>
    <g id="xtick_17">
     <g id="line2d_25">
      <g>
       <use style="stroke:#000000;stroke-width:0.6;" x="272.527131" xlink:href="#mdf97123cb5" y="298.245375"/>
      </g>
     </g>
    </g>
    <g id="xtick_18">
     <g id="line2d_26">
      <g>
       <use style="stroke:#000000;stroke-width:0.6;" x="330.042377" xlink:href="#mdf97123cb5" y="298.245375"/>
      </g>
     </g>
    </g>
    <g id="xtick_19">
     <g id="line2d_27">
      <g>
       <use style="stroke:#000000;stroke-width:0.6;" x="342.427611" xlink:href="#mdf97123cb5" y="298.245375"/>
      </g>
     </g>
    </g>
    <g id="xtick_20">
     <g id="line2d_28">
      <g>
       <use style="stroke:#000000;stroke-width:0.6;" x="349.672509" xlink:href="#mdf97123cb5" y="298.245375"/>
      </g>
     </g>
    </g>
    <g id="xtick_21">
     <g id="line2d_29">
      <g>
       <use style="stroke:#000000;stroke-width:0.6;" x="354.812845" xlink:href="#mdf97123cb5" y="298.245375"/>
      </g>
     </g>
    </g>
    <g id="xtick_22">
     <g id="line2d_30">
      <g>
       <use style="stroke:#000000;stroke-width:0.6;" x="412.328091" xlink:href="#mdf97123cb5" y="298.245375"/>
      </g>
     </g>
    </g>
    <g id="xtick_23">
     <g id="line2d_31">
      <g>
       <use style="stroke:#000000;stroke-width:0.6;" x="424.713325" xlink:href="#mdf97123cb5" y="298.245375"/>
      </g>
     </g>
    </g>
    <g id="text_6">
     <!-- log10 of (# f-evals / dimension) -->
     <defs>
      <path d="M 9.421875 75.984375 
L 18.40625 75.984375 
L 18.40625 0 
L 9.421875 0 
z
" id="DejaVuSans-6c"/>
      <path d="M 30.609375 48.390625 
Q 23.390625 48.390625 19.1875 42.75 
Q 14.984375 37.109375 14.984375 27.296875 
Q 14.984375 17.484375 19.15625 11.84375 
Q 23.34375 6.203125 30.609375 6.203125 
Q 37.796875 6.203125 41.984375 11.859375 
Q 46.1875 17.53125 46.1875 27.296875 
Q 46.1875 37.015625 41.984375 42.703125 
Q 37.796875 48.390625 30.609375 48.390625 
M 30.609375 56 
Q 42.328125 56 49.015625 48.375 
Q 55.71875 40.765625 55.71875 27.296875 
Q 55.71875 13.875 49.015625 6.21875 
Q 42.328125 -1.421875 30.609375 -1.421875 
Q 18.84375 -1.421875 12.171875 6.21875 
Q 5.515625 13.875 5.515625 27.296875 
Q 5.515625 40.765625 12.171875 48.375 
Q 18.84375 56 30.609375 56 
" id="DejaVuSans-6f"/>
      <path d="M 45.40625 27.984375 
Q 45.40625 37.75 41.375 43.109375 
Q 37.359375 48.484375 30.078125 48.484375 
Q 22.859375 48.484375 18.828125 43.109375 
Q 14.796875 37.75 14.796875 27.984375 
Q 14.796875 18.265625 18.828125 12.890625 
Q 22.859375 7.515625 30.078125 7.515625 
Q 37.359375 7.515625 41.375 12.890625 
Q 45.40625 18.265625 45.40625 27.984375 
M 54.390625 6.78125 
Q 54.390625 -7.171875 48.1875 -13.984375 
Q 42 -20.796875 29.203125 -20.796875 
Q 24.46875 -20.796875 20.265625 -20.09375 
Q 16.0625 -19.390625 12.109375 -17.921875 
L 12.109375 -9.1875 
Q 16.0625 -11.328125 19.921875 -12.34375 
Q 23.78125 -13.375 27.78125 -13.375 
Q 36.625 -13.375 41.015625 -8.765625 
Q 45.40625 -4.15625 45.40625 5.171875 
L 45.40625 9.625 
Q 42.625 4.78125 38.28125 2.390625 
Q 33.9375 0 27.875 0 
Q 17.828125 0 11.671875 7.65625 
Q 5.515625 15.328125 5.515625 27.984375 
Q 5.515625 40.671875 11.671875 48.328125 
Q 17.828125 56 27.875 56 
Q 33.9375 56 38.28125 53.609375 
Q 42.625 51.21875 45.40625 46.390625 
L 45.40625 54.6875 
L 54.390625 54.6875 
z
" id="DejaVuSans-67"/>
      <path d="M 12.40625 8.296875 
L 28.515625 8.296875 
L 28.515625 63.921875 
L 10.984375 60.40625 
L 10.984375 69.390625 
L 28.421875 72.90625 
L 38.28125 72.90625 
L 38.28125 8.296875 
L 54.390625 8.296875 
L 54.390625 0 
L 12.40625 0 
z
" id="DejaVuSans-31"/>
      <path id="DejaVuSans-20"/>
      <path d="M 37.109375 75.984375 
L 37.109375 68.5 
L 28.515625 68.5 
Q 23.6875 68.5 21.796875 66.546875 
Q 19.921875 64.59375 19.921875 59.515625 
L 19.921875 54.6875 
L 34.71875 54.6875 
L 34.71875 47.703125 
L 19.921875 47.703125 
L 19.921875 0 
L 10.890625 0 
L 10.890625 47.703125 
L 2.296875 47.703125 
L 2.296875 54.6875 
L 10.890625 54.6875 
L 10.890625 58.5 
Q 10.890625 67.625 15.140625 71.796875 
Q 19.390625 75.984375 28.609375 75.984375 
z
" id="DejaVuSans-66"/>
      <path d="M 31 75.875 
Q 24.46875 64.65625 21.28125 53.65625 
Q 18.109375 42.671875 18.109375 31.390625 
Q 18.109375 20.125 21.3125 9.0625 
Q 24.515625 -2 31 -13.1875 
L 23.1875 -13.1875 
Q 15.875 -1.703125 12.234375 9.375 
Q 8.59375 20.453125 8.59375 31.390625 
Q 8.59375 42.28125 12.203125 53.3125 
Q 15.828125 64.359375 23.1875 75.875 
z
" id="DejaVuSans-28"/>
      <path d="M 51.125 44 
L 36.921875 44 
L 32.8125 27.6875 
L 47.125 27.6875 
z
M 43.796875 71.78125 
L 38.71875 51.515625 
L 52.984375 51.515625 
L 58.109375 71.78125 
L 65.921875 71.78125 
L 60.890625 51.515625 
L 76.125 51.515625 
L 76.125 44 
L 58.984375 44 
L 54.984375 27.6875 
L 70.515625 27.6875 
L 70.515625 20.21875 
L 53.078125 20.21875 
L 48 0 
L 40.1875 0 
L 45.21875 20.21875 
L 30.90625 20.21875 
L 25.875 0 
L 18.015625 0 
L 23.09375 20.21875 
L 7.71875 20.21875 
L 7.71875 27.6875 
L 24.90625 27.6875 
L 29 44 
L 13.28125 44 
L 13.28125 51.515625 
L 30.90625 51.515625 
L 35.890625 71.78125 
z
" id="DejaVuSans-23"/>
      <path d="M 4.890625 31.390625 
L 31.203125 31.390625 
L 31.203125 23.390625 
L 4.890625 23.390625 
z
" id="DejaVuSans-2d"/>
      <path d="M 56.203125 29.59375 
L 56.203125 25.203125 
L 14.890625 25.203125 
Q 15.484375 15.921875 20.484375 11.0625 
Q 25.484375 6.203125 34.421875 6.203125 
Q 39.59375 6.203125 44.453125 7.46875 
Q 49.3125 8.734375 54.109375 11.28125 
L 54.109375 2.78125 
Q 49.265625 0.734375 44.1875 -0.34375 
Q 39.109375 -1.421875 33.890625 -1.421875 
Q 20.796875 -1.421875 13.15625 6.1875 
Q 5.515625 13.8125 5.515625 26.8125 
Q 5.515625 40.234375 12.765625 48.109375 
Q 20.015625 56 32.328125 56 
Q 43.359375 56 49.78125 48.890625 
Q 56.203125 41.796875 56.203125 29.59375 
M 47.21875 32.234375 
Q 47.125 39.59375 43.09375 43.984375 
Q 39.0625 48.390625 32.421875 48.390625 
Q 24.90625 48.390625 20.390625 44.140625 
Q 15.875 39.890625 15.1875 32.171875 
z
" id="DejaVuSans-65"/>
      <path d="M 2.984375 54.6875 
L 12.5 54.6875 
L 29.59375 8.796875 
L 46.6875 54.6875 
L 56.203125 54.6875 
L 35.6875 0 
L 23.484375 0 
z
" id="DejaVuSans-76"/>
      <path d="M 34.28125 27.484375 
Q 23.390625 27.484375 19.1875 25 
Q 14.984375 22.515625 14.984375 16.5 
Q 14.984375 11.71875 18.140625 8.90625 
Q 21.296875 6.109375 26.703125 6.109375 
Q 34.1875 6.109375 38.703125 11.40625 
Q 43.21875 16.703125 43.21875 25.484375 
L 43.21875 27.484375 
z
M 52.203125 31.203125 
L 52.203125 0 
L 43.21875 0 
L 43.21875 8.296875 
Q 40.140625 3.328125 35.546875 0.953125 
Q 30.953125 -1.421875 24.3125 -1.421875 
Q 15.921875 -1.421875 10.953125 3.296875 
Q 6 8.015625 6 15.921875 
Q 6 25.140625 12.171875 29.828125 
Q 18.359375 34.515625 30.609375 34.515625 
L 43.21875 34.515625 
L 43.21875 35.40625 
Q 43.21875 41.609375 39.140625 45 
Q 35.0625 48.390625 27.6875 48.390625 
Q 23 48.390625 18.546875 47.265625 
Q 14.109375 46.140625 10.015625 43.890625 
L 10.015625 52.203125 
Q 14.9375 54.109375 19.578125 55.046875 
Q 24.21875 56 28.609375 56 
Q 40.484375 56 46.34375 49.84375 
Q 52.203125 43.703125 52.203125 31.203125 
" id="DejaVuSans-61"/>
      <path d="M 44.28125 53.078125 
L 44.28125 44.578125 
Q 40.484375 46.53125 36.375 47.5 
Q 32.28125 48.484375 27.875 48.484375 
Q 21.1875 48.484375 17.84375 46.4375 
Q 14.5 44.390625 14.5 40.28125 
Q 14.5 37.15625 16.890625 35.375 
Q 19.28125 33.59375 26.515625 31.984375 
L 29.59375 31.296875 
Q 39.15625 29.25 43.1875 25.515625 
Q 47.21875 21.78125 47.21875 15.09375 
Q 47.21875 7.46875 41.1875 3.015625 
Q 35.15625 -1.421875 24.609375 -1.421875 
Q 20.21875 -1.421875 15.453125 -0.5625 
Q 10.6875 0.296875 5.421875 2 
L 5.421875 11.28125 
Q 10.40625 8.6875 15.234375 7.390625 
Q 20.0625 6.109375 24.8125 6.109375 
Q 31.15625 6.109375 34.5625 8.28125 
Q 37.984375 10.453125 37.984375 14.40625 
Q 37.984375 18.0625 35.515625 20.015625 
Q 33.0625 21.96875 24.703125 23.78125 
L 21.578125 24.515625 
Q 13.234375 26.265625 9.515625 29.90625 
Q 5.8125 33.546875 5.8125 39.890625 
Q 5.8125 47.609375 11.28125 51.796875 
Q 16.75 56 26.8125 56 
Q 31.78125 56 36.171875 55.265625 
Q 40.578125 54.546875 44.28125 53.078125 
" id="DejaVuSans-73"/>
      <path d="M 25.390625 72.90625 
L 33.6875 72.90625 
L 8.296875 -9.28125 
L 0 -9.28125 
z
" id="DejaVuSans-2f"/>
      <path d="M 45.40625 46.390625 
L 45.40625 75.984375 
L 54.390625 75.984375 
L 54.390625 0 
L 45.40625 0 
L 45.40625 8.203125 
Q 42.578125 3.328125 38.25 0.953125 
Q 33.9375 -1.421875 27.875 -1.421875 
Q 17.96875 -1.421875 11.734375 6.484375 
Q 5.515625 14.40625 5.515625 27.296875 
Q 5.515625 40.1875 11.734375 48.09375 
Q 17.96875 56 27.875 56 
Q 33.9375 56 38.25 53.625 
Q 42.578125 51.265625 45.40625 46.390625 
M 14.796875 27.296875 
Q 14.796875 17.390625 18.875 11.75 
Q 22.953125 6.109375 30.078125 6.109375 
Q 37.203125 6.109375 41.296875 11.75 
Q 45.40625 17.390625 45.40625 27.296875 
Q 45.40625 37.203125 41.296875 42.84375 
Q 37.203125 48.484375 30.078125 48.484375 
Q 22.953125 48.484375 18.875 42.84375 
Q 14.796875 37.203125 14.796875 27.296875 
" id="DejaVuSans-64"/>
      <path d="M 9.421875 54.6875 
L 18.40625 54.6875 
L 18.40625 0 
L 9.421875 0 
z
M 9.421875 75.984375 
L 18.40625 75.984375 
L 18.40625 64.59375 
L 9.421875 64.59375 
z
" id="DejaVuSans-69"/>
      <path d="M 52 44.1875 
Q 55.375 50.25 60.0625 53.125 
Q 64.75 56 71.09375 56 
Q 79.640625 56 84.28125 50.015625 
Q 88.921875 44.046875 88.921875 33.015625 
L 88.921875 0 
L 79.890625 0 
L 79.890625 32.71875 
Q 79.890625 40.578125 77.09375 44.375 
Q 74.3125 48.1875 68.609375 48.1875 
Q 61.625 48.1875 57.5625 43.546875 
Q 53.515625 38.921875 53.515625 30.90625 
L 53.515625 0 
L 44.484375 0 
L 44.484375 32.71875 
Q 44.484375 40.625 41.703125 44.40625 
Q 38.921875 48.1875 33.109375 48.1875 
Q 26.21875 48.1875 22.15625 43.53125 
Q 18.109375 38.875 18.109375 30.90625 
L 18.109375 0 
L 9.078125 0 
L 9.078125 54.6875 
L 18.109375 54.6875 
L 18.109375 46.1875 
Q 21.1875 51.21875 25.484375 53.609375 
Q 29.78125 56 35.6875 56 
Q 41.65625 56 45.828125 52.96875 
Q 50 49.953125 52 44.1875 
" id="DejaVuSans-6d"/>
      <path d="M 54.890625 33.015625 
L 54.890625 0 
L 45.90625 0 
L 45.90625 32.71875 
Q 45.90625 40.484375 42.875 44.328125 
Q 39.84375 48.1875 33.796875 48.1875 
Q 26.515625 48.1875 22.3125 43.546875 
Q 18.109375 38.921875 18.109375 30.90625 
L 18.109375 0 
L 9.078125 0 
L 9.078125 54.6875 
L 18.109375 54.6875 
L 18.109375 46.1875 
Q 21.34375 51.125 25.703125 53.5625 
Q 30.078125 56 35.796875 56 
Q 45.21875 56 50.046875 50.171875 
Q 54.890625 44.34375 54.890625 33.015625 
" id="DejaVuSans-6e"/>
      <path d="M 8.015625 75.875 
L 15.828125 75.875 
Q 23.140625 64.359375 26.78125 53.3125 
Q 30.421875 42.28125 30.421875 31.390625 
Q 30.421875 20.453125 26.78125 9.375 
Q 23.140625 -1.703125 15.828125 -13.1875 
L 8.015625 -13.1875 
Q 14.5 -2 17.703125 9.0625 
Q 20.90625 20.125 20.90625 31.390625 
Q 20.90625 42.671875 17.703125 53.65625 
Q 14.5 64.65625 8.015625 75.875 
" id="DejaVuSans-29"/>
     </defs>
     <g transform="translate(107.015156 342.278812)scale(0.18 -0.18)">
      <use xlink:href="#DejaVuSans-6c"/>
      <use x="27.783203" xlink:href="#DejaVuSans-6f"/>
      <use x="88.964844" xlink:href="#DejaVuSans-67"/>
      <use x="152.441406" xlink:href="#DejaVuSans-31"/>
      <use x="216.064453" xlink:href="#DejaVuSans-30"/>
      <use x="279.6875" xlink:href="#DejaVuSans-20"/>
      <use x="311.474609" xlink:href="#DejaVuSans-6f"/>
      <use x="372.65625" xlink:href="#DejaVuSans-66"/>
      <use x="407.861328" xlink:href="#DejaVuSans-20"/>
      <use x="439.648438" xlink:href="#DejaVuSans-28"/>
      <use x="478.662109" xlink:href="#DejaVuSans-23"/>
      <use x="562.451172" xlink:href="#DejaVuSans-20"/>
      <use x="594.238281" xlink:href="#DejaVuSans-66"/>
      <use x="629.365234" xlink:href="#DejaVuSans-2d"/>
      <use x="665.449219" xlink:href="#DejaVuSans-65"/>
      <use x="726.972656" xlink:href="#DejaVuSans-76"/>
      <use x="786.152344" xlink:href="#DejaVuSans-61"/>
      <use x="847.431641" xlink:href="#DejaVuSans-6c"/>
      <use x="875.214844" xlink:href="#DejaVuSans-73"/>
      <use x="927.314453" xlink:href="#DejaVuSans-20"/>
      <use x="959.101562" xlink:href="#DejaVuSans-2f"/>
      <use x="992.792969" xlink:href="#DejaVuSans-20"/>
      <use x="1024.580078" xlink:href="#DejaVuSans-64"/>
      <use x="1088.056641" xlink:href="#DejaVuSans-69"/>
      <use x="1115.839844" xlink:href="#DejaVuSans-6d"/>
      <use x="1213.251953" xlink:href="#DejaVuSans-65"/>
      <use x="1274.775391" xlink:href="#DejaVuSans-6e"/>
      <use x="1338.154297" xlink:href="#DejaVuSans-73"/>
      <use x="1390.253906" xlink:href="#DejaVuSans-69"/>
      <use x="1418.037109" xlink:href="#DejaVuSans-6f"/>
      <use x="1479.21875" xlink:href="#DejaVuSans-6e"/>
      <use x="1542.597656" xlink:href="#DejaVuSans-29"/>
     </g>
    </g>
   </g>
   <g id="matplotlib.axis_2">
    <g id="ytick_1">
     <g id="line2d_32">
      <path clip-path="url(#p4672f33559)" d="M 70.8 298.245375 
L 427.92 298.245375 
" style="fill:none;stroke:#b0b0b0;stroke-linecap:square;stroke-width:0.8;"/>
     </g>
     <g id="line2d_33">
      <defs>
       <path d="M 0 0 
L -3.5 0 
" id="m67d9b1bb0e" style="stroke:#000000;stroke-width:0.8;"/>
      </defs>
      <g>
       <use style="stroke:#000000;stroke-width:0.8;" x="70.8" xlink:href="#m67d9b1bb0e" y="298.245375"/>
      </g>
     </g>
     <g id="text_7">
      <!-- 0.0 -->
      <defs>
       <path d="M 10.6875 12.40625 
L 21 12.40625 
L 21 0 
L 10.6875 0 
z
" id="DejaVuSans-2e"/>
      </defs>
      <g transform="translate(31.99375 305.843812)scale(0.2 -0.2)">
       <use xlink:href="#DejaVuSans-30"/>
       <use x="63.623047" xlink:href="#DejaVuSans-2e"/>
       <use x="95.410156" xlink:href="#DejaVuSans-30"/>
      </g>
     </g>
    </g>
    <g id="ytick_2">
     <g id="line2d_34">
      <path clip-path="url(#p4672f33559)" d="M 70.8 245.549929 
L 427.92 245.549929 
" style="fill:none;stroke:#b0b0b0;stroke-linecap:square;stroke-width:0.8;"/>
     </g>
     <g id="line2d_35">
      <g>
       <use style="stroke:#000000;stroke-width:0.8;" x="70.8" xlink:href="#m67d9b1bb0e" y="245.549929"/>
      </g>
     </g>
     <g id="text_8">
      <!-- 0.2 -->
      <g transform="translate(31.99375 253.148367)scale(0.2 -0.2)">
       <use xlink:href="#DejaVuSans-30"/>
       <use x="63.623047" xlink:href="#DejaVuSans-2e"/>
       <use x="95.410156" xlink:href="#DejaVuSans-32"/>
      </g>
     </g>
    </g>
    <g id="ytick_3">
     <g id="line2d_36">
      <path clip-path="url(#p4672f33559)" d="M 70.8 192.854484 
L 427.92 192.854484 
" style="fill:none;stroke:#b0b0b0;stroke-linecap:square;stroke-width:0.8;"/>
     </g>
     <g id="line2d_37">
      <g>
       <use style="stroke:#000000;stroke-width:0.8;" x="70.8" xlink:href="#m67d9b1bb0e" y="192.854484"/>
      </g>
     </g>
     <g id="text_9">
      <!-- 0.4 -->
      <g transform="translate(31.99375 200.452921)scale(0.2 -0.2)">
       <use xlink:href="#DejaVuSans-30"/>
       <use x="63.623047" xlink:href="#DejaVuSans-2e"/>
       <use x="95.410156" xlink:href="#DejaVuSans-34"/>
      </g>
     </g>
    </g>
    <g id="ytick_4">
     <g id="line2d_38">
      <path clip-path="url(#p4672f33559)" d="M 70.8 140.159038 
L 427.92 140.159038 
" style="fill:none;stroke:#b0b0b0;stroke-linecap:square;stroke-width:0.8;"/>
     </g>
     <g id="line2d_39">
      <g>
       <use style="stroke:#000000;stroke-width:0.8;" x="70.8" xlink:href="#m67d9b1bb0e" y="140.159038"/>
      </g>
     </g>
     <g id="text_10">
      <!-- 0.6 -->
      <g transform="translate(31.99375 147.757476)scale(0.2 -0.2)">
       <use xlink:href="#DejaVuSans-30"/>
       <use x="63.623047" xlink:href="#DejaVuSans-2e"/>
       <use x="95.410156" xlink:href="#DejaVuSans-36"/>
      </g>
     </g>
    </g>
    <g id="ytick_5">
     <g id="line2d_40">
      <path clip-path="url(#p4672f33559)" d="M 70.8 87.463593 
L 427.92 87.463593 
" style="fill:none;stroke:#b0b0b0;stroke-linecap:square;stroke-width:0.8;"/>
     </g>
     <g id="line2d_41">
      <g>
       <use style="stroke:#000000;stroke-width:0.8;" x="70.8" xlink:href="#m67d9b1bb0e" y="87.463593"/>
      </g>
     </g>
     <g id="text_11">
      <!-- 0.8 -->
      <g transform="translate(31.99375 95.06203)scale(0.2 -0.2)">
       <use xlink:href="#DejaVuSans-30"/>
       <use x="63.623047" xlink:href="#DejaVuSans-2e"/>
       <use x="95.410156" xlink:href="#DejaVuSans-38"/>
      </g>
     </g>
    </g>
    <g id="ytick_6">
     <g id="line2d_42">
      <path clip-path="url(#p4672f33559)" d="M 70.8 34.768147 
L 427.92 34.768147 
" style="fill:none;stroke:#b0b0b0;stroke-linecap:square;stroke-width:0.8;"/>
     </g>
     <g id="line2d_43">
      <g>
       <use style="stroke:#000000;stroke-width:0.8;" x="70.8" xlink:href="#m67d9b1bb0e" y="34.768147"/>
      </g>
     </g>
     <g id="text_12">
      <!-- 1.0 -->
      <g transform="translate(31.99375 42.366585)scale(0.2 -0.2)">
       <use xlink:href="#DejaVuSans-31"/>
       <use x="63.623047" xlink:href="#DejaVuSans-2e"/>
       <use x="95.410156" xlink:href="#DejaVuSans-30"/>
      </g>
     </g>
    </g>
    <g id="text_13">
     <!-- Proportion of function+target pairs -->
     <defs>
      <path d="M 19.671875 64.796875 
L 19.671875 37.40625 
L 32.078125 37.40625 
Q 38.96875 37.40625 42.71875 40.96875 
Q 46.484375 44.53125 46.484375 51.125 
Q 46.484375 57.671875 42.71875 61.234375 
Q 38.96875 64.796875 32.078125 64.796875 
z
M 9.8125 72.90625 
L 32.078125 72.90625 
Q 44.34375 72.90625 50.609375 67.359375 
Q 56.890625 61.8125 56.890625 51.125 
Q 56.890625 40.328125 50.609375 34.8125 
Q 44.34375 29.296875 32.078125 29.296875 
L 19.671875 29.296875 
L 19.671875 0 
L 9.8125 0 
z
" id="DejaVuSans-50"/>
      <path d="M 41.109375 46.296875 
Q 39.59375 47.171875 37.8125 47.578125 
Q 36.03125 48 33.890625 48 
Q 26.265625 48 22.1875 43.046875 
Q 18.109375 38.09375 18.109375 28.8125 
L 18.109375 0 
L 9.078125 0 
L 9.078125 54.6875 
L 18.109375 54.6875 
L 18.109375 46.1875 
Q 20.953125 51.171875 25.484375 53.578125 
Q 30.03125 56 36.53125 56 
Q 37.453125 56 38.578125 55.875 
Q 39.703125 55.765625 41.0625 55.515625 
z
" id="DejaVuSans-72"/>
      <path d="M 18.109375 8.203125 
L 18.109375 -20.796875 
L 9.078125 -20.796875 
L 9.078125 54.6875 
L 18.109375 54.6875 
L 18.109375 46.390625 
Q 20.953125 51.265625 25.265625 53.625 
Q 29.59375 56 35.59375 56 
Q 45.5625 56 51.78125 48.09375 
Q 58.015625 40.1875 58.015625 27.296875 
Q 58.015625 14.40625 51.78125 6.484375 
Q 45.5625 -1.421875 35.59375 -1.421875 
Q 29.59375 -1.421875 25.265625 0.953125 
Q 20.953125 3.328125 18.109375 8.203125 
M 48.6875 27.296875 
Q 48.6875 37.203125 44.609375 42.84375 
Q 40.53125 48.484375 33.40625 48.484375 
Q 26.265625 48.484375 22.1875 42.84375 
Q 18.109375 37.203125 18.109375 27.296875 
Q 18.109375 17.390625 22.1875 11.75 
Q 26.265625 6.109375 33.40625 6.109375 
Q 40.53125 6.109375 44.609375 11.75 
Q 48.6875 17.390625 48.6875 27.296875 
" id="DejaVuSans-70"/>
      <path d="M 18.3125 70.21875 
L 18.3125 54.6875 
L 36.8125 54.6875 
L 36.8125 47.703125 
L 18.3125 47.703125 
L 18.3125 18.015625 
Q 18.3125 11.328125 20.140625 9.421875 
Q 21.96875 7.515625 27.59375 7.515625 
L 36.8125 7.515625 
L 36.8125 0 
L 27.59375 0 
Q 17.1875 0 13.234375 3.875 
Q 9.28125 7.765625 9.28125 18.015625 
L 9.28125 47.703125 
L 2.6875 47.703125 
L 2.6875 54.6875 
L 9.28125 54.6875 
L 9.28125 70.21875 
z
" id="DejaVuSans-74"/>
      <path d="M 8.5 21.578125 
L 8.5 54.6875 
L 17.484375 54.6875 
L 17.484375 21.921875 
Q 17.484375 14.15625 20.5 10.265625 
Q 23.53125 6.390625 29.59375 6.390625 
Q 36.859375 6.390625 41.078125 11.03125 
Q 45.3125 15.671875 45.3125 23.6875 
L 45.3125 54.6875 
L 54.296875 54.6875 
L 54.296875 0 
L 45.3125 0 
L 45.3125 8.40625 
Q 42.046875 3.421875 37.71875 1 
Q 33.40625 -1.421875 27.6875 -1.421875 
Q 18.265625 -1.421875 13.375 4.4375 
Q 8.5 10.296875 8.5 21.578125 
M 31.109375 56 
z
" id="DejaVuSans-75"/>
      <path d="M 48.78125 52.59375 
L 48.78125 44.1875 
Q 44.96875 46.296875 41.140625 47.34375 
Q 37.3125 48.390625 33.40625 48.390625 
Q 24.65625 48.390625 19.8125 42.84375 
Q 14.984375 37.3125 14.984375 27.296875 
Q 14.984375 17.28125 19.8125 11.734375 
Q 24.65625 6.203125 33.40625 6.203125 
Q 37.3125 6.203125 41.140625 7.25 
Q 44.96875 8.296875 48.78125 10.40625 
L 48.78125 2.09375 
Q 45.015625 0.34375 40.984375 -0.53125 
Q 36.96875 -1.421875 32.421875 -1.421875 
Q 20.0625 -1.421875 12.78125 6.34375 
Q 5.515625 14.109375 5.515625 27.296875 
Q 5.515625 40.671875 12.859375 48.328125 
Q 20.21875 56 33.015625 56 
Q 37.15625 56 41.109375 55.140625 
Q 45.0625 54.296875 48.78125 52.59375 
" id="DejaVuSans-63"/>
      <path d="M 46 62.703125 
L 46 35.5 
L 73.1875 35.5 
L 73.1875 27.203125 
L 46 27.203125 
L 46 0 
L 37.796875 0 
L 37.796875 27.203125 
L 10.59375 27.203125 
L 10.59375 35.5 
L 37.796875 35.5 
L 37.796875 62.703125 
z
" id="DejaVuSans-2b"/>
     </defs>
     <g transform="translate(24.250312 323.17875)rotate(-90)scale(0.18 -0.18)">
      <use xlink:href="#DejaVuSans-50"/>
      <use x="60.287109" xlink:href="#DejaVuSans-72"/>
      <use x="101.369141" xlink:href="#DejaVuSans-6f"/>
      <use x="162.550781" xlink:href="#DejaVuSans-70"/>
      <use x="226.027344" xlink:href="#DejaVuSans-6f"/>
      <use x="287.208984" xlink:href="#DejaVuSans-72"/>
      <use x="328.322266" xlink:href="#DejaVuSans-74"/>
      <use x="367.53125" xlink:href="#DejaVuSans-69"/>
      <use x="395.314453" xlink:href="#DejaVuSans-6f"/>
      <use x="456.496094" xlink:href="#DejaVuSans-6e"/>
      <use x="519.875" xlink:href="#DejaVuSans-20"/>
      <use x="551.662109" xlink:href="#DejaVuSans-6f"/>
      <use x="612.84375" xlink:href="#DejaVuSans-66"/>
      <use x="648.048828" xlink:href="#DejaVuSans-20"/>
      <use x="679.835938" xlink:href="#DejaVuSans-66"/>
      <use x="715.041016" xlink:href="#DejaVuSans-75"/>
      <use x="778.419922" xlink:href="#DejaVuSans-6e"/>
      <use x="841.798828" xlink:href="#DejaVuSans-63"/>
      <use x="896.779297" xlink:href="#DejaVuSans-74"/>
      <use x="935.988281" xlink:href="#DejaVuSans-69"/>
      <use x="963.771484" xlink:href="#DejaVuSans-6f"/>
      <use x="1024.953125" xlink:href="#DejaVuSans-6e"/>
      <use x="1088.332031" xlink:href="#DejaVuSans-2b"/>
      <use x="1172.121094" xlink:href="#DejaVuSans-74"/>
      <use x="1211.330078" xlink:href="#DejaVuSans-61"/>
      <use x="1272.609375" xlink:href="#DejaVuSans-72"/>
      <use x="1313.707031" xlink:href="#DejaVuSans-67"/>
      <use x="1377.183594" xlink:href="#DejaVuSans-65"/>
      <use x="1438.707031" xlink:href="#DejaVuSans-74"/>
      <use x="1477.916016" xlink:href="#DejaVuSans-20"/>
      <use x="1509.703125" xlink:href="#DejaVuSans-70"/>
      <use x="1573.179688" xlink:href="#DejaVuSans-61"/>
      <use x="1634.458984" xlink:href="#DejaVuSans-69"/>
      <use x="1662.242188" xlink:href="#DejaVuSans-72"/>
      <use x="1703.355469" xlink:href="#DejaVuSans-73"/>
     </g>
    </g>
   </g>
   <g id="line2d_44">
    <defs>
     <path d="M 0 1.5 
C 0.397805 1.5 0.77937 1.341951 1.06066 1.06066 
C 1.341951 0.77937 1.5 0.397805 1.5 0 
C 1.5 -0.397805 1.341951 -0.77937 1.06066 -1.06066 
C 0.77937 -1.341951 0.397805 -1.5 0 -1.5 
C -0.397805 -1.5 -0.77937 -1.341951 -1.06066 -1.06066 
C -1.341951 -0.77937 -1.5 -0.397805 -1.5 0 
C -1.5 0.397805 -1.341951 0.77937 -1.06066 1.06066 
C -0.77937 1.341951 -0.397805 1.5 0 1.5 
z
" id="me2e42b4cb6" style="stroke:#f5deb3;"/>
    </defs>
    <g>
     <use style="fill:#f5deb3;stroke:#f5deb3;" x="334.503349" xlink:href="#me2e42b4cb6" y="34.768147"/>
     <use style="fill:#f5deb3;stroke:#f5deb3;" x="334.503349" xlink:href="#me2e42b4cb6" y="34.768147"/>
    </g>
   </g>
   <g id="line2d_45">
    <g>
     <use style="fill:#f5deb3;stroke:#f5deb3;stroke-linejoin:miter;stroke-width:1.5;" x="130.212129" xlink:href="#m9f41291e75" y="230.223476"/>
     <use style="fill:#f5deb3;stroke:#f5deb3;stroke-linejoin:miter;stroke-width:1.5;" x="164.058595" xlink:href="#m9f41291e75" y="168.659353"/>
     <use style="fill:#f5deb3;stroke:#f5deb3;stroke-linejoin:miter;stroke-width:1.5;" x="207.292257" xlink:href="#m9f41291e75" y="85.784571"/>
     <use style="fill:#f5deb3;stroke:#f5deb3;stroke-linejoin:miter;stroke-width:1.5;" x="329.29283" xlink:href="#m9f41291e75" y="41.010663"/>
     <use style="fill:#f5deb3;stroke:#f5deb3;stroke-linejoin:miter;stroke-width:1.5;" x="334.503349" xlink:href="#m9f41291e75" y="34.768147"/>
     <use style="fill:#f5deb3;stroke:#f5deb3;stroke-linejoin:miter;stroke-width:1.5;" x="358.8" xlink:href="#m9f41291e75" y="34.768147"/>
    </g>
   </g>
   <g id="line2d_46">
    <defs>
     <path d="M 0 1.5 
C 0.397805 1.5 0.77937 1.341951 1.06066 1.06066 
C 1.341951 0.77937 1.5 0.397805 1.5 0 
C 1.5 -0.397805 1.341951 -0.77937 1.06066 -1.06066 
C 0.77937 -1.341951 0.397805 -1.5 0 -1.5 
C -0.397805 -1.5 -0.77937 -1.341951 -1.06066 -1.06066 
C -1.341951 -0.77937 -1.5 -0.397805 -1.5 0 
C -1.5 0.397805 -1.341951 0.77937 -1.06066 1.06066 
C -0.77937 1.341951 -0.397805 1.5 0 1.5 
z
" id="m15c60ce59c" style="stroke:#ff00ff;"/>
    </defs>
    <g>
     <use style="fill:#ff00ff;stroke:#ff00ff;" x="266.177171" xlink:href="#m15c60ce59c" y="191.692084"/>
     <use style="fill:#ff00ff;stroke:#ff00ff;" x="266.177171" xlink:href="#m15c60ce59c" y="191.692084"/>
    </g>
   </g>
   <g id="line2d_47">
    <path d="M 42.042377 298.245375 
L 42.042377 293.961717 
L 54.427611 293.961717 
L 54.427611 293.703406 
L 61.672509 293.703406 
L 61.672509 293.42357 
L 66.812845 293.42357 
L 66.812845 292.885422 
L 70.8 292.885422 
L 70.8 292.584059 
L 74.057743 292.584059 
L 74.057743 292.196592 
L 76.812125 292.196592 
L 76.812125 292.002859 
L 79.198079 292.002859 
L 79.198079 291.830652 
L 81.30264 291.830652 
L 81.30264 290.969615 
L 83.185234 290.969615 
L 83.185234 290.754356 
L 84.888247 290.754356 
L 84.888247 290.431467 
L 86.442977 290.431467 
L 86.442977 289.505853 
L 87.873189 289.505853 
L 87.873189 288.752445 
L 89.197359 288.752445 
L 89.197359 288.472609 
L 90.430132 288.472609 
L 90.430132 287.67615 
L 92.666561 287.56852 
L 92.666561 286.901217 
L 94.653954 286.815113 
L 94.653954 286.642906 
L 95.570468 286.642906 
L 95.570468 286.470698 
L 96.442257 286.470698 
L 96.442257 285.93255 
L 97.273482 285.93255 
L 97.273482 285.738817 
L 98.067751 285.738817 
L 98.067751 285.56661 
L 98.828211 285.56661 
L 98.828211 285.286773 
L 99.557623 285.286773 
L 99.557623 284.684047 
L 100.258423 284.684047 
L 100.258423 284.533366 
L 100.932772 284.533366 
L 100.932772 283.82301 
L 101.582593 283.82301 
L 101.582593 283.650803 
L 102.209609 283.650803 
L 102.209609 283.521648 
L 102.815366 283.521648 
L 102.815366 283.306388 
L 103.401258 283.306388 
L 103.401258 282.574507 
L 103.968548 282.574507 
L 103.968548 281.756522 
L 104.518379 281.756522 
L 104.518379 281.562789 
L 105.051795 281.562789 
L 105.051795 280.723278 
L 105.569748 280.723278 
L 105.569748 279.776138 
L 106.073108 279.776138 
L 106.073108 279.582405 
L 106.562676 279.582405 
L 106.562676 279.324094 
L 107.955702 279.259516 
L 107.955702 279.194938 
L 108.396913 279.194938 
L 108.396913 279.044257 
L 109.247936 278.936627 
L 109.247936 278.549161 
L 110.060263 278.463057 
L 110.060263 278.204746 
L 110.452985 278.204746 
L 110.452985 277.429813 
L 111.213445 277.408287 
L 111.213445 276.65488 
L 111.581873 276.65488 
L 111.581873 276.439621 
L 112.296693 276.418095 
L 112.296693 276.310465 
L 112.643657 276.310465 
L 112.643657 276.138258 
L 112.984013 276.138258 
L 112.984013 275.836895 
L 113.64587 275.793843 
L 113.64587 275.643162 
L 113.967827 275.643162 
L 113.967827 274.674496 
L 114.284085 274.674496 
L 114.284085 274.416185 
L 114.594843 274.416185 
L 114.594843 274.265503 
L 114.900288 274.265503 
L 114.900288 274.114822 
L 115.2006 274.114822 
L 115.2006 273.921088 
L 115.786492 273.856511 
L 115.786492 273.684303 
L 116.353782 273.5982 
L 116.353782 273.49057 
L 116.630812 273.49057 
L 116.630812 273.167681 
L 116.903613 273.167681 
L 116.903613 273.038526 
L 117.172312 273.038526 
L 117.172312 272.823267 
L 117.437029 272.823267 
L 117.437029 272.608007 
L 117.697882 272.608007 
L 117.697882 272.349696 
L 118.208435 272.242067 
L 118.208435 272.005282 
L 118.704803 271.940704 
L 118.704803 271.682393 
L 119.187755 271.639341 
L 119.187755 271.553238 
L 119.657995 271.445608 
L 119.657995 271.424082 
L 120.116177 271.337978 
L 120.116177 271.251875 
L 120.340936 271.251875 
L 120.340936 271.122719 
L 120.782147 271.079667 
L 120.782147 270.993564 
L 120.998733 270.993564 
L 120.998733 270.864408 
L 121.212725 270.864408 
L 121.212725 270.649149 
L 121.424184 270.649149 
L 121.424184 270.498468 
L 121.63317 270.498468 
L 121.63317 270.197105 
L 121.839741 270.197105 
L 121.839741 269.981846 
L 122.245852 269.874216 
L 122.245852 269.788112 
L 122.838219 269.766586 
L 122.838219 269.658957 
L 123.03139 269.658957 
L 123.03139 269.443698 
L 123.222494 269.443698 
L 123.222494 269.314542 
L 123.411577 269.314542 
L 123.411577 269.185387 
L 123.598679 269.185387 
L 123.598679 269.034705 
L 123.783843 269.034705 
L 123.783843 268.862498 
L 124.148511 268.79792 
L 124.148511 268.668765 
L 124.505885 268.625713 
L 124.505885 268.367402 
L 124.681927 268.367402 
L 124.681927 268.238246 
L 124.856251 268.238246 
L 124.856251 268.109091 
L 125.028891 268.109091 
L 125.028891 267.979935 
L 125.19988 267.979935 
L 125.19988 267.85078 
L 125.369247 267.85078 
L 125.369247 267.657047 
L 125.70324 267.549417 
L 125.70324 267.463313 
L 126.031105 267.355684 
L 126.031105 267.291106 
L 126.51189 267.183476 
L 126.51189 267.118899 
L 126.825374 267.011269 
L 126.825374 266.903639 
L 127.285522 266.817536 
L 127.285522 266.731432 
L 127.436309 266.731432 
L 127.436309 266.473121 
L 127.585834 266.473121 
L 127.585834 266.343966 
L 127.881181 266.257862 
L 127.881181 266.150232 
L 128.027044 266.150232 
L 128.027044 266.021077 
L 128.315246 265.999551 
L 128.315246 265.655136 
L 128.457622 265.655136 
L 128.457622 265.439877 
L 128.598873 265.439877 
L 128.598873 265.138514 
L 128.739016 265.138514 
L 128.739016 264.923255 
L 129.016046 264.880203 
L 129.016046 264.729522 
L 129.288847 264.643418 
L 129.288847 264.514263 
L 129.423702 264.514263 
L 129.423702 264.191374 
L 129.690395 264.191374 
L 129.690395 264.040692 
L 129.822263 264.040692 
L 129.822263 263.890011 
L 129.953166 263.890011 
L 129.953166 263.760855 
L 130.340216 263.653226 
L 130.340216 263.502544 
L 130.467392 263.502544 
L 130.467392 263.330337 
L 130.71906 263.244233 
L 130.71906 263.136604 
L 130.843577 263.136604 
L 130.843577 262.921345 
L 131.090037 262.835241 
L 131.090037 262.619982 
L 131.212004 262.619982 
L 131.212004 262.490826 
L 131.453469 262.383197 
L 131.453469 262.340145 
L 131.809656 262.232515 
L 131.809656 262.167938 
L 132.158881 262.081834 
L 132.158881 261.909627 
L 132.387963 261.845049 
L 132.387963 261.715893 
L 132.614144 261.715893 
L 132.614144 261.479108 
L 132.837499 261.414531 
L 132.948138 261.263849 
L 133.058096 261.263849 
L 133.167381 260.94096 
L 133.491283 260.854857 
L 133.597959 260.402812 
L 133.704001 260.402812 
L 133.809418 259.99382 
L 134.018404 259.88619 
L 134.121988 259.606353 
L 134.224975 259.606353 
L 134.327371 259.283465 
L 134.731187 259.197361 
L 134.830731 259.04668 
L 135.028171 258.93905 
L 135.126079 258.745317 
L 135.223453 258.745317 
L 135.3203 258.530058 
L 135.512432 258.46548 
L 135.607728 258.271747 
L 135.70252 258.271747 
L 135.796811 258.056487 
L 135.890607 258.056487 
L 135.983913 257.712073 
L 136.076735 257.712073 
L 136.169077 257.432236 
L 136.260944 257.432236 
L 136.352341 257.109347 
L 136.533745 257.001717 
L 136.623761 256.93714 
L 136.713325 256.93714 
L 136.802443 256.678829 
L 136.979357 256.571199 
L 137.067161 256.485095 
L 137.328014 256.398992 
L 137.414126 256.205259 
L 137.585114 256.097629 
L 137.669998 255.817792 
L 137.838566 255.796266 
L 137.922258 255.537955 
L 138.005559 255.537955 
L 138.088474 255.172014 
L 138.334935 255.107437 
L 138.416339 254.935229 
L 138.578042 254.8276 
L 138.658348 254.784548 
L 138.817886 254.676918 
L 138.897124 254.569289 
L 138.976012 254.569289 
L 139.054554 254.332504 
L 139.210608 254.224874 
L 139.288127 254.052667 
L 139.518687 254.031141 
L 139.594883 253.880459 
L 139.971068 253.837408 
L 140.045364 253.536045 
L 140.119352 253.536045 
L 140.193035 253.277734 
L 140.412279 253.170104 
L 140.412279 253.105526 
L 140.70048 253.019423 
L 140.77181 252.696534 
L 140.984107 252.61043 
L 141.054316 252.502801 
L 141.193911 252.416697 
L 141.263302 252.24449 
L 141.332424 252.24449 
L 141.40128 251.943127 
L 141.808936 251.835497 
L 141.875983 251.66329 
L 142.009328 251.55566 
L 142.075629 251.383453 
L 142.207498 251.340401 
L 142.273069 251.168194 
L 142.532973 251.08209 
L 142.532973 250.995987 
L 142.72545 250.888357 
L 142.789151 250.759201 
L 142.915876 250.759201 
L 142.978903 250.586994 
L 143.104294 250.50089 
L 143.166661 250.307157 
L 143.228811 250.307157 
L 143.290745 250.048846 
L 143.475271 249.941217 
L 143.536359 249.855113 
L 143.718379 249.790535 
L 143.778642 249.596802 
L 143.838703 249.596802 
L 143.898563 249.424595 
L 144.017684 249.316965 
L 144.076948 249.144758 
L 144.25357 249.08018 
L 144.312059 248.714239 
L 144.428464 248.628136 
L 144.486383 248.520506 
L 144.601662 248.455928 
L 144.601662 248.391351 
L 144.830011 248.326773 
L 144.886646 248.089988 
L 145.055479 248.003884 
L 145.111405 247.810151 
L 145.278138 247.724047 
L 145.388435 247.530314 
L 145.552615 247.44421 
L 145.661236 247.228951 
L 146.089235 247.121321 
L 146.194652 246.992166 
L 146.351621 246.992166 
L 146.455505 246.604699 
L 146.66148 246.518596 
L 146.763584 246.324862 
L 146.915654 246.260285 
L 147.01632 245.958922 
L 147.36425 245.851292 
L 147.413405 245.765189 
L 147.560066 245.722137 
L 147.657176 245.420774 
L 147.705534 245.420774 
L 147.801858 245.205515 
L 147.897666 245.162463 
L 147.992963 245.033307 
L 148.134962 244.96873 
L 148.229005 244.624315 
L 148.415618 244.602789 
L 148.5082 244.215323 
L 148.646178 244.107693 
L 148.737575 243.935486 
L 148.828507 243.849382 
L 148.918979 243.741752 
L 149.143174 243.698701 
L 149.187677 243.591071 
L 149.452395 243.483441 
L 149.496136 243.418864 
L 149.583298 243.418864 
L 149.62672 243.246656 
L 149.79936 243.182079 
L 149.885058 243.074449 
L 150.097524 242.988345 
L 150.139715 242.837664 
L 150.432299 242.75156 
L 150.473708 242.622405 
L 150.638393 242.536301 
L 150.720169 242.342568 
L 150.922987 242.234938 
L 151.003475 242.105783 
L 151.478929 242.019679 
L 151.556956 241.782894 
L 151.673361 241.739842 
L 151.750545 241.610687 
L 151.980117 241.503057 
L 152.055991 241.244746 
L 152.1692 241.201694 
L 152.1692 241.094065 
L 152.319038 240.986435 
L 152.393489 240.814228 
L 152.72473 240.728124 
L 152.833793 240.448287 
L 152.942195 240.405235 
L 153.049942 240.27608 
L 153.121415 240.27608 
L 153.157044 240.103872 
L 153.40448 239.996243 
L 153.509484 239.931665 
L 153.717659 239.867087 
L 153.820843 239.69488 
L 153.923436 239.58725 
L 154.025442 239.350465 
L 154.361319 239.242836 
L 154.427743 239.135206 
L 154.658303 239.027577 
L 154.756211 238.876895 
L 154.853585 238.812317 
L 154.918207 238.683162 
L 155.206151 238.575532 
L 155.30111 238.403325 
L 155.582997 238.295695 
L 155.675979 238.101962 
L 155.952059 237.994332 
L 156.043145 237.886703 
L 156.432575 237.779073 
L 156.432575 237.736021 
L 156.813698 237.628392 
L 156.900507 237.499236 
L 157.101435 237.391607 
L 157.158431 237.327029 
L 157.356496 237.240925 
L 157.356496 237.176348 
L 157.828564 237.11177 
L 157.828564 237.047192 
L 158.261751 236.939563 
L 158.341818 236.853459 
L 158.736855 236.745829 
L 158.814825 236.595148 
L 159.300888 236.487518 
L 159.401554 236.444466 
L 159.87212 236.336837 
L 159.969627 236.186155 
L 160.306772 236.078526 
L 160.401942 235.970896 
L 160.520196 235.884793 
L 160.614239 235.712585 
L 160.824043 235.626482 
L 160.893434 235.561904 
L 161.191052 235.454274 
L 161.281638 235.346645 
L 161.771817 235.239015 
L 161.88137 235.131385 
L 162.270292 235.023756 
L 162.355582 234.959178 
L 162.629994 234.851549 
L 162.734425 234.722393 
L 163.186807 234.614763 
L 163.22737 234.550186 
L 163.687347 234.464082 
L 163.74648 234.399504 
L 163.883702 234.291875 
L 163.961644 234.227297 
L 164.289155 234.141193 
L 164.346333 234.076616 
L 164.797287 233.968986 
L 164.90827 233.796779 
L 165.128188 233.689149 
L 165.23714 233.581519 
L 165.345432 233.47389 
L 165.381384 233.387786 
L 165.842293 233.301683 
L 165.94699 233.107949 
L 166.223217 233.00032 
L 166.274538 232.957268 
L 166.512104 232.935742 
L 166.579404 232.806586 
L 166.895662 232.698957 
L 166.994381 232.655905 
L 167.125164 232.548275 
L 167.190198 232.483698 
L 167.43199 232.376068 
L 167.447993 232.289964 
L 167.733635 232.182335 
L 167.812177 232.074705 
L 168.27631 231.988602 
L 168.367707 231.902498 
L 168.935946 231.794868 
L 169.009387 231.708765 
L 169.529433 231.601135 
L 169.614655 231.47198 
L 170.131393 231.36435 
L 170.213798 231.192143 
L 170.431704 231.084513 
L 170.472268 231.041461 
L 170.766951 230.933832 
L 170.846483 230.89078 
L 171.342127 230.78315 
L 171.419144 230.740098 
L 171.974021 230.653995 
L 172.035999 230.589417 
L 173.116335 230.481787 
L 173.116335 230.460261 
L 175.783978 230.374158 
L 175.783978 230.30958 
L 177.495198 230.20195 
L 177.495198 230.180425 
L 178.914187 230.115847 
L 178.998193 230.008217 
L 179.575432 229.900588 
L 179.575432 229.879062 
L 180.118869 229.83601 
L 180.213078 229.577699 
L 180.615669 229.470069 
L 180.615669 229.448543 
L 181.299089 229.36244 
L 181.409273 229.297862 
L 182.006972 229.190232 
L 182.091756 229.082603 
L 182.38537 228.974973 
L 182.495966 228.67361 
L 182.585324 228.587507 
L 182.694693 228.264618 
L 182.75592 228.156988 
L 182.864253 227.8341 
L 182.891234 227.72647 
L 182.998752 227.532737 
L 183.025531 227.446633 
L 183.105627 227.166796 
L 183.172101 227.080692 
L 183.27135 226.800855 
L 183.310896 226.693226 
L 183.39628 226.327285 
L 183.533351 226.219656 
L 183.624151 225.939819 
L 183.727361 225.832189 
L 183.836372 225.61693 
L 183.874688 225.552352 
L 183.957425 225.380145 
L 184.02081 225.294041 
L 184.12176 225.14336 
L 184.240902 225.03573 
L 184.328186 224.798945 
L 184.402662 224.691316 
L 184.476829 224.519108 
L 184.630363 224.411479 
L 184.734017 224.196219 
L 184.933528 224.08859 
L 184.975563 224.002486 
L 186.175917 223.894857 
L 186.175917 223.873331 
L 187.274334 223.765701 
L 187.300684 223.722649 
L 188.149136 223.61502 
L 188.159177 223.571968 
L 188.65417 223.485864 
L 188.65417 223.442812 
L 189.116801 223.356709 
L 189.116801 223.313657 
L 189.563116 223.206027 
L 189.563116 223.184501 
L 190.942217 223.076872 
L 190.942217 223.055346 
L 191.850783 222.947716 
L 191.879337 222.904664 
L 192.843271 222.797035 
L 192.843271 222.775509 
L 193.387133 222.775509 
L 193.387133 222.474146 
L 194.522747 222.366517 
L 194.613911 222.194309 
L 194.735902 222.08668 
L 194.846713 221.699213 
L 194.874308 221.613109 
L 194.984266 221.376324 
L 195.021908 221.311747 
L 195.130965 220.881228 
L 195.164909 220.773599 
L 195.273098 220.34308 
L 195.310137 220.235451 
L 195.420797 219.955614 
L 195.504176 219.847984 
L 195.593791 219.546621 
L 195.706003 219.438992 
L 195.814245 219.309836 
L 197.201139 219.202207 
L 197.249488 219.159155 
L 197.83431 219.051525 
L 197.901357 219.008473 
L 198.902777 218.900844 
L 198.902777 218.879318 
L 200.549429 218.771688 
L 200.629533 218.707111 
L 200.916936 218.685585 
L 200.997859 218.34117 
L 201.589828 218.23354 
L 201.679546 218.125911 
L 201.754751 218.018281 
L 201.859975 217.738444 
L 201.894912 217.630815 
L 201.983115 217.243348 
L 202.040907 217.135719 
L 202.146759 216.7052 
L 202.185719 216.597571 
L 202.28389 216.382312 
L 202.318009 216.274682 
L 202.415457 216.080949 
L 202.514625 216.016371 
L 202.617714 215.779586 
L 203.483543 215.671956 
L 203.483543 215.628904 
L 204.358068 215.521275 
L 204.366175 215.478223 
L 205.794829 215.370593 
L 205.891837 215.306016 
L 206.198039 215.219912 
L 206.25829 214.961601 
L 206.782751 214.853971 
L 206.892156 214.552609 
L 206.946607 214.444979 
L 207.055016 214.079038 
L 207.10376 213.971409 
L 207.195663 213.64852 
L 207.250923 213.562416 
L 207.307732 213.261054 
L 207.443 213.153424 
L 207.534876 213.002743 
L 208.58125 212.895113 
L 208.58125 212.873587 
L 209.847708 212.765957 
L 209.847708 212.744431 
L 210.269125 212.636802 
L 210.363531 212.292387 
L 210.751843 212.184758 
L 210.862062 211.797291 
L 210.902868 211.689662 
L 211.007971 211.194565 
L 211.055414 211.086936 
L 211.165167 210.893203 
L 211.272873 210.807099 
L 211.371721 210.742521 
L 211.652901 210.634892 
L 211.652901 210.613366 
L 213.01102 210.505736 
L 213.027251 210.419632 
L 213.582603 210.312003 
L 213.622481 209.946062 
L 213.984527 209.859959 
L 214.076552 209.623173 
L 214.114169 209.515544 
L 214.218377 209.041974 
L 214.284799 208.934344 
L 214.385707 208.676033 
L 214.62353 208.568404 
L 214.62353 208.546878 
L 216.149705 208.439248 
L 216.222905 208.396196 
L 216.37669 208.37467 
L 216.410801 208.00873 
L 216.817144 207.922626 
L 216.923825 207.556685 
L 216.975928 207.449056 
L 217.086641 207.190745 
L 217.167 207.083115 
L 217.175907 207.040063 
L 217.851575 206.932434 
L 217.851575 206.910908 
L 218.792366 206.824804 
L 218.8969 206.458864 
L 219.134324 206.351234 
L 219.236882 206.135975 
L 219.284425 206.028345 
L 219.384379 205.813086 
L 219.492471 205.705457 
L 219.492471 205.683931 
L 220.17036 205.576301 
L 220.17036 205.554775 
L 220.807327 205.447146 
L 220.826694 205.404094 
L 220.920009 205.404094 
L 220.988877 205.102731 
L 221.271956 205.038153 
L 221.371588 204.693738 
L 221.415344 204.586109 
L 221.47689 204.543057 
L 222.044835 204.435427 
L 222.148502 204.349324 
L 222.821047 204.241694 
L 222.90453 204.112539 
L 223.121479 204.004909 
L 223.200042 203.703546 
L 223.297236 203.617443 
L 223.375731 203.402183 
L 224.231827 203.294554 
L 224.301683 203.229976 
L 224.539137 203.165398 
L 224.595398 202.885561 
L 224.802554 202.777932 
L 224.895285 202.455043 
L 225.317389 202.347413 
L 225.419348 202.218258 
L 226.10642 202.110628 
L 226.145391 201.959947 
L 226.392812 201.852317 
L 226.501751 201.637058 
L 226.921815 201.529429 
L 227.012188 201.443325 
L 227.547249 201.335695 
L 227.565512 201.120436 
L 227.791965 201.012807 
L 227.90141 200.776021 
L 228.139749 200.668392 
L 228.139749 200.646866 
L 228.804294 200.539236 
L 228.897463 200.388555 
L 229.140189 200.280925 
L 229.21953 200.108718 
L 230.023092 200.001088 
L 230.121163 199.656674 
L 230.332296 199.57057 
L 230.436227 199.398363 
L 230.635308 199.290733 
L 230.729157 199.247681 
L 231.281236 199.161578 
L 231.296056 199.010896 
L 231.482279 198.903267 
L 231.581959 198.666482 
L 232.307889 198.558852 
L 232.379436 198.300541 
L 232.573992 198.192911 
L 232.666116 198.063756 
L 233.31567 197.956126 
L 233.41044 197.783919 
L 233.568468 197.697815 
L 233.664663 197.547134 
L 233.832157 197.439504 
L 233.832157 197.417978 
L 234.380654 197.310349 
L 234.473337 197.224245 
L 234.536357 197.116616 
L 234.623021 196.922882 
L 235.289046 196.858305 
L 235.300889 196.772201 
L 235.521248 196.664571 
L 235.548161 196.621519 
L 236.164766 196.535416 
L 236.176043 196.427786 
L 236.499354 196.320157 
L 236.499354 196.298631 
L 237.286299 196.191001 
L 237.286299 196.169475 
L 237.797095 196.083372 
L 237.807388 195.975742 
L 237.99906 195.868112 
L 238.071409 195.760483 
L 238.882876 195.652853 
L 238.882876 195.631327 
L 239.292707 195.566749 
L 239.292707 195.502172 
L 239.509183 195.394542 
L 239.602208 195.35149 
L 239.996046 195.329964 
L 240.013968 195.179283 
L 240.204759 195.071653 
L 240.204759 195.050127 
L 240.78686 194.942498 
L 240.828512 194.856394 
L 241.324747 194.791816 
L 241.434787 194.641135 
L 241.864565 194.533505 
L 241.953794 194.468928 
L 242.140961 194.361298 
L 242.220788 194.29672 
L 242.561446 194.232143 
L 242.609654 194.102987 
L 243.06567 193.995358 
L 243.149112 193.93078 
L 243.672309 193.82315 
L 243.725453 193.737047 
L 244.640233 193.629417 
L 244.640233 193.607891 
L 245.422298 193.500261 
L 245.444682 193.392632 
L 245.952318 193.285002 
L 245.952318 193.263476 
L 246.325542 193.155847 
L 246.325542 193.134321 
L 246.887858 193.026691 
L 246.921966 192.983639 
L 247.442657 192.87601 
L 247.442657 192.854484 
L 248.589268 192.746854 
L 248.589268 192.725328 
L 250.218173 192.617699 
L 250.321561 192.574647 
L 251.319417 192.467017 
L 251.319417 192.445491 
L 252.512799 192.337862 
L 252.512799 192.316336 
L 253.743627 192.208706 
L 253.794423 192.144129 
L 256.129038 192.036499 
L 256.201696 191.993447 
L 258.224923 191.885818 
L 258.239737 191.842766 
L 263.556929 191.735136 
L 263.556929 191.71361 
L 358.8 191.692084 
L 358.8 191.692084 
" style="fill:none;stroke:#ff00ff;stroke-linecap:square;stroke-width:1.5;"/>
   </g>
   <g id="line2d_48">
    <defs>
     <path d="M -0 8.485281 
L 5.091169 0 
L 0 -8.485281 
L -5.091169 -0 
z
" id="m7c32792f3b" style="stroke:#ff00ff;stroke-linejoin:miter;stroke-width:1.5;"/>
    </defs>
    <g>
     <use style="fill:none;stroke:#ff00ff;stroke-linejoin:miter;stroke-width:1.5;" x="135.3203" xlink:href="#m7c32792f3b" y="258.530058"/>
     <use style="fill:none;stroke:#ff00ff;stroke-linejoin:miter;stroke-width:1.5;" x="191.879337" xlink:href="#m7c32792f3b" y="222.92619"/>
     <use style="fill:none;stroke:#ff00ff;stroke-linejoin:miter;stroke-width:1.5;" x="237.684422" xlink:href="#m7c32792f3b" y="196.104897"/>
     <use style="fill:none;stroke:#ff00ff;stroke-linejoin:miter;stroke-width:1.5;" x="266.177171" xlink:href="#m7c32792f3b" y="191.692084"/>
     <use style="fill:none;stroke:#ff00ff;stroke-linejoin:miter;stroke-width:1.5;" x="266.177171" xlink:href="#m7c32792f3b" y="191.692084"/>
     <use style="fill:none;stroke:#ff00ff;stroke-linejoin:miter;stroke-width:1.5;" x="358.8" xlink:href="#m7c32792f3b" y="191.692084"/>
    </g>
   </g>
   <g id="line2d_49"/>
   <g id="line2d_50">
    <path clip-path="url(#p4672f33559)" d="M 181.843337 229.211758 
" style="fill:none;stroke:#ff00ff;stroke-linecap:square;stroke-width:1.5;"/>
    <defs>
     <path d="M -12 12 
L 12 -12 
M -12 -12 
L 12 12 
" id="m5981153a5f" style="stroke:#ff00ff;stroke-width:3;"/>
    </defs>
    <g clip-path="url(#p4672f33559)">
     <use style="fill:#ff00ff;stroke:#ff00ff;stroke-width:3;" x="181.843337" xlink:href="#m5981153a5f" y="229.211758"/>
    </g>
   </g>
   <g id="line2d_51">
    <path d="M 358.8 191.692084 
L 390.48 292.97583 
" style="fill:none;stroke:#ff00ff;stroke-linecap:square;stroke-width:1.5;"/>
    <g>
     <use style="fill:none;stroke:#ff00ff;stroke-linejoin:miter;stroke-width:1.5;" x="358.8" xlink:href="#m7c32792f3b" y="191.692084"/>
     <use style="fill:none;stroke:#ff00ff;stroke-linejoin:miter;stroke-width:1.5;" x="390.48" xlink:href="#m7c32792f3b" y="292.97583"/>
    </g>
   </g>
   <g id="line2d_52">
    <path d="M 358.8 298.245375 
L 358.8 34.768147 
" style="fill:none;stroke:#000000;stroke-linecap:square;stroke-width:1.5;"/>
   </g>
   <g id="patch_3">
    <path d="M 70.8 298.245375 
L 70.8 32.133375 
" style="fill:none;stroke:#000000;stroke-linecap:square;stroke-linejoin:miter;stroke-width:0.8;"/>
   </g>
   <g id="patch_4">
    <path d="M 427.92 298.245375 
L 427.92 32.133375 
" style="fill:none;stroke:#000000;stroke-linecap:square;stroke-linejoin:miter;stroke-width:0.8;"/>
   </g>
   <g id="patch_5">
    <path d="M 70.8 298.245375 
L 427.92 298.245375 
" style="fill:none;stroke:#000000;stroke-linecap:square;stroke-linejoin:miter;stroke-width:0.8;"/>
   </g>
   <g id="patch_6">
    <path d="M 70.8 32.133375 
L 427.92 32.133375 
" style="fill:none;stroke:#000000;stroke-linecap:square;stroke-linejoin:miter;stroke-width:0.8;"/>
   </g>
   <g id="text_14">
    <!-- deapbbob -->
    <defs>
     <path d="M 48.6875 27.296875 
Q 48.6875 37.203125 44.609375 42.84375 
Q 40.53125 48.484375 33.40625 48.484375 
Q 26.265625 48.484375 22.1875 42.84375 
Q 18.109375 37.203125 18.109375 27.296875 
Q 18.109375 17.390625 22.1875 11.75 
Q 26.265625 6.109375 33.40625 6.109375 
Q 40.53125 6.109375 44.609375 11.75 
Q 48.6875 17.390625 48.6875 27.296875 
M 18.109375 46.390625 
Q 20.953125 51.265625 25.265625 53.625 
Q 29.59375 56 35.59375 56 
Q 45.5625 56 51.78125 48.09375 
Q 58.015625 40.1875 58.015625 27.296875 
Q 58.015625 14.40625 51.78125 6.484375 
Q 45.5625 -1.421875 35.59375 -1.421875 
Q 29.59375 -1.421875 25.265625 0.953125 
Q 20.953125 3.328125 18.109375 8.203125 
L 18.109375 0 
L 9.078125 0 
L 9.078125 75.984375 
L 18.109375 75.984375 
z
" id="DejaVuSans-62"/>
    </defs>
    <g transform="translate(396.24 297.114893)scale(0.15 -0.15)">
     <use xlink:href="#DejaVuSans-64"/>
     <use x="63.476562" xlink:href="#DejaVuSans-65"/>
     <use x="125" xlink:href="#DejaVuSans-61"/>
     <use x="186.279297" xlink:href="#DejaVuSans-70"/>
     <use x="249.755859" xlink:href="#DejaVuSans-62"/>
     <use x="313.232422" xlink:href="#DejaVuSans-62"/>
     <use x="376.708984" xlink:href="#DejaVuSans-6f"/>
     <use x="437.890625" xlink:href="#DejaVuSans-62"/>
    </g>
   </g>
   <g id="text_15">
    <!-- best 2009 -->
    <defs>
     <path d="M 10.984375 1.515625 
L 10.984375 10.5 
Q 14.703125 8.734375 18.5 7.8125 
Q 22.3125 6.890625 25.984375 6.890625 
Q 35.75 6.890625 40.890625 13.453125 
Q 46.046875 20.015625 46.78125 33.40625 
Q 43.953125 29.203125 39.59375 26.953125 
Q 35.25 24.703125 29.984375 24.703125 
Q 19.046875 24.703125 12.671875 31.3125 
Q 6.296875 37.9375 6.296875 49.421875 
Q 6.296875 60.640625 12.9375 67.421875 
Q 19.578125 74.21875 30.609375 74.21875 
Q 43.265625 74.21875 49.921875 64.515625 
Q 56.59375 54.828125 56.59375 36.375 
Q 56.59375 19.140625 48.40625 8.859375 
Q 40.234375 -1.421875 26.421875 -1.421875 
Q 22.703125 -1.421875 18.890625 -0.6875 
Q 15.09375 0.046875 10.984375 1.515625 
M 30.609375 32.421875 
Q 37.25 32.421875 41.125 36.953125 
Q 45.015625 41.5 45.015625 49.421875 
Q 45.015625 57.28125 41.125 61.84375 
Q 37.25 66.40625 30.609375 66.40625 
Q 23.96875 66.40625 20.09375 61.84375 
Q 16.21875 57.28125 16.21875 49.421875 
Q 16.21875 41.5 20.09375 36.953125 
Q 23.96875 32.421875 30.609375 32.421875 
" id="DejaVuSans-39"/>
    </defs>
    <g transform="translate(396.24 44.176754)scale(0.15 -0.15)">
     <use xlink:href="#DejaVuSans-62"/>
     <use x="63.476562" xlink:href="#DejaVuSans-65"/>
     <use x="125" xlink:href="#DejaVuSans-73"/>
     <use x="177.099609" xlink:href="#DejaVuSans-74"/>
     <use x="216.308594" xlink:href="#DejaVuSans-20"/>
     <use x="248.095703" xlink:href="#DejaVuSans-32"/>
     <use x="311.71875" xlink:href="#DejaVuSans-30"/>
     <use x="375.341797" xlink:href="#DejaVuSans-30"/>
     <use x="438.964844" xlink:href="#DejaVuSans-39"/>
    </g>
   </g>
   <g id="text_16">
    <!-- bbob - f1-f24, 5-D -->
    <defs>
     <path d="M 11.71875 12.40625 
L 22.015625 12.40625 
L 22.015625 4 
L 14.015625 -11.625 
L 7.71875 -11.625 
L 11.71875 4 
z
" id="DejaVuSans-2c"/>
     <path d="M 10.796875 72.90625 
L 49.515625 72.90625 
L 49.515625 64.59375 
L 19.828125 64.59375 
L 19.828125 46.734375 
Q 21.96875 47.46875 24.109375 47.828125 
Q 26.265625 48.1875 28.421875 48.1875 
Q 40.625 48.1875 47.75 41.5 
Q 54.890625 34.8125 54.890625 23.390625 
Q 54.890625 11.625 47.5625 5.09375 
Q 40.234375 -1.421875 26.90625 -1.421875 
Q 22.3125 -1.421875 17.546875 -0.640625 
Q 12.796875 0.140625 7.71875 1.703125 
L 7.71875 11.625 
Q 12.109375 9.234375 16.796875 8.0625 
Q 21.484375 6.890625 26.703125 6.890625 
Q 35.15625 6.890625 40.078125 11.328125 
Q 45.015625 15.765625 45.015625 23.390625 
Q 45.015625 31 40.078125 35.4375 
Q 35.15625 39.890625 26.703125 39.890625 
Q 22.75 39.890625 18.8125 39.015625 
Q 14.890625 38.140625 10.796875 36.28125 
z
" id="DejaVuSans-35"/>
     <path d="M 19.671875 64.796875 
L 19.671875 8.109375 
L 31.59375 8.109375 
Q 46.6875 8.109375 53.6875 14.9375 
Q 60.6875 21.78125 60.6875 36.53125 
Q 60.6875 51.171875 53.6875 57.984375 
Q 46.6875 64.796875 31.59375 64.796875 
z
M 9.8125 72.90625 
L 30.078125 72.90625 
Q 51.265625 72.90625 61.171875 64.09375 
Q 71.09375 55.28125 71.09375 36.53125 
Q 71.09375 17.671875 61.125 8.828125 
Q 51.171875 0 30.078125 0 
L 9.8125 0 
z
" id="DejaVuSans-44"/>
    </defs>
    <g transform="translate(74.3712 50.114612)scale(0.1666 -0.1666)">
     <use xlink:href="#DejaVuSans-62"/>
     <use x="63.476562" xlink:href="#DejaVuSans-62"/>
     <use x="126.953125" xlink:href="#DejaVuSans-6f"/>
     <use x="188.134766" xlink:href="#DejaVuSans-62"/>
     <use x="251.611328" xlink:href="#DejaVuSans-20"/>
     <use x="283.398438" xlink:href="#DejaVuSans-2d"/>
     <use x="319.482422" xlink:href="#DejaVuSans-20"/>
     <use x="351.269531" xlink:href="#DejaVuSans-66"/>
     <use x="386.474609" xlink:href="#DejaVuSans-31"/>
     <use x="450.097656" xlink:href="#DejaVuSans-2d"/>
     <use x="486.181641" xlink:href="#DejaVuSans-66"/>
     <use x="521.386719" xlink:href="#DejaVuSans-32"/>
     <use x="585.009766" xlink:href="#DejaVuSans-34"/>
     <use x="648.632812" xlink:href="#DejaVuSans-2c"/>
     <use x="680.419922" xlink:href="#DejaVuSans-20"/>
     <use x="712.207031" xlink:href="#DejaVuSans-35"/>
     <use x="775.830078" xlink:href="#DejaVuSans-2d"/>
     <use x="811.914062" xlink:href="#DejaVuSans-44"/>
    </g>
    <!-- 51 targets in 100..1e-08 -->
    <g transform="translate(74.3712 68.770168)scale(0.1666 -0.1666)">
     <use xlink:href="#DejaVuSans-35"/>
     <use x="63.623047" xlink:href="#DejaVuSans-31"/>
     <use x="127.246094" xlink:href="#DejaVuSans-20"/>
     <use x="159.033203" xlink:href="#DejaVuSans-74"/>
     <use x="198.242188" xlink:href="#DejaVuSans-61"/>
     <use x="259.521484" xlink:href="#DejaVuSans-72"/>
     <use x="300.619141" xlink:href="#DejaVuSans-67"/>
     <use x="364.095703" xlink:href="#DejaVuSans-65"/>
     <use x="425.619141" xlink:href="#DejaVuSans-74"/>
     <use x="464.828125" xlink:href="#DejaVuSans-73"/>
     <use x="516.927734" xlink:href="#DejaVuSans-20"/>
     <use x="548.714844" xlink:href="#DejaVuSans-69"/>
     <use x="576.498047" xlink:href="#DejaVuSans-6e"/>
     <use x="639.876953" xlink:href="#DejaVuSans-20"/>
     <use x="671.664062" xlink:href="#DejaVuSans-31"/>
     <use x="735.287109" xlink:href="#DejaVuSans-30"/>
     <use x="798.910156" xlink:href="#DejaVuSans-30"/>
     <use x="862.533203" xlink:href="#DejaVuSans-2e"/>
     <use x="894.320312" xlink:href="#DejaVuSans-2e"/>
     <use x="926.107422" xlink:href="#DejaVuSans-31"/>
     <use x="989.730469" xlink:href="#DejaVuSans-65"/>
     <use x="1051.253906" xlink:href="#DejaVuSans-2d"/>
     <use x="1087.337891" xlink:href="#DejaVuSans-30"/>
     <use x="1150.960938" xlink:href="#DejaVuSans-38"/>
    </g>
    <!-- 15 instances -->
    <g transform="translate(74.3712 87.425723)scale(0.1666 -0.1666)">
     <use xlink:href="#DejaVuSans-31"/>
     <use x="63.623047" xlink:href="#DejaVuSans-35"/>
     <use x="127.246094" xlink:href="#DejaVuSans-20"/>
     <use x="159.033203" xlink:href="#DejaVuSans-69"/>
     <use x="186.816406" xlink:href="#DejaVuSans-6e"/>
     <use x="250.195312" xlink:href="#DejaVuSans-73"/>
     <use x="302.294922" xlink:href="#DejaVuSans-74"/>
     <use x="341.503906" xlink:href="#DejaVuSans-61"/>
     <use x="402.783203" xlink:href="#DejaVuSans-6e"/>
     <use x="466.162109" xlink:href="#DejaVuSans-63"/>
     <use x="521.142578" xlink:href="#DejaVuSans-65"/>
     <use x="582.666016" xlink:href="#DejaVuSans-73"/>
    </g>
   </g>
   <g id="text_17">
    <!-- v2.1 -->
    <g style="fill:#808080;" transform="translate(238.449063 293.504568)scale(0.1 -0.1)">
     <use xlink:href="#DejaVuSans-76"/>
     <use x="59.179688" xlink:href="#DejaVuSans-32"/>
     <use x="122.802734" xlink:href="#DejaVuSans-2e"/>
     <use x="154.589844" xlink:href="#DejaVuSans-31"/>
    </g>
   </g>
  </g>
 </g>
 <defs>
  <clipPath id="p4672f33559">
   <rect height="266.112" width="357.12" x="70.8" y="32.133375"/>
  </clipPath>
 </defs>
</svg>
