<?xml version="1.0" encoding="utf-8" standalone="no"?>
<!DOCTYPE svg PUBLIC "-//W3C//DTD SVG 1.1//EN"
  "http://www.w3.org/Graphics/SVG/1.1/DTD/svg11.dtd">
<!-- Created with matplotlib (http://matplotlib.org/) -->
<svg height="353pt" version="1.1" viewBox="0 0 478 353" width="478pt" xmlns="http://www.w3.org/2000/svg" xmlns:xlink="http://www.w3.org/1999/xlink">
 <defs>
  <style type="text/css">
*{stroke-linecap:butt;stroke-linejoin:round;}
  </style>
 </defs>
 <g id="figure_1">
  <g id="patch_1">
   <path d="M 0 353.22225 
L 478.829063 353.22225 
L 478.829063 0 
L 0 0 
z
" style="fill:#ffffff;"/>
  </g>
  <g id="axes_1">
   <g id="patch_2">
    <path d="M 70.8 298.245375 
L 427.92 298.245375 
L 427.92 32.133375 
L 70.8 32.133375 
z
" style="fill:#ffffff;"/>
   </g>
   <g id="line2d_1">
    <path d="M 58.414766 298.245375 
L 58.414766 287.912935 
L 70.8 287.912935 
L 70.8 282.746715 
L 78.044898 282.746715 
L 78.044898 279.646982 
L 83.185234 279.646982 
L 83.185234 231.084513 
L 87.172389 231.084513 
L 87.172389 229.018025 
L 90.430132 229.018025 
L 90.430132 186.65502 
L 93.184514 186.65502 
L 93.184514 185.621776 
L 95.570468 185.621776 
L 95.570468 184.588532 
L 99.557623 184.588532 
L 99.557623 183.555288 
L 102.815366 183.555288 
L 102.815366 182.522044 
L 104.245578 182.522044 
L 104.245578 181.4888 
L 105.569748 181.4888 
L 105.569748 180.455556 
L 106.802521 180.455556 
L 106.802521 177.355823 
L 107.955702 177.355823 
L 107.955702 176.322579 
L 110.060263 176.322579 
L 110.060263 175.289335 
L 111.026343 175.289335 
L 111.026343 171.156359 
L 111.942857 171.156359 
L 111.942857 169.089871 
L 113.64587 169.089871 
L 113.64587 167.023383 
L 115.2006 167.023383 
L 115.2006 163.923651 
L 115.930012 163.923651 
L 115.930012 156.690943 
L 116.630812 156.690943 
L 116.630812 148.424991 
L 117.305161 148.424991 
L 117.305161 143.25877 
L 117.954982 143.25877 
L 117.954982 133.959574 
L 118.581998 133.959574 
L 118.581998 128.793354 
L 119.187755 128.793354 
L 119.187755 124.660378 
L 125.620325 124.660378 
L 125.620325 123.627134 
L 142.72545 123.627134 
L 142.72545 122.59389 
L 143.958223 122.59389 
L 143.958223 121.560646 
L 156.491741 121.560646 
L 156.491741 120.527402 
L 158.514074 120.527402 
L 158.514074 119.494158 
L 160.916504 119.494158 
L 160.916504 118.460914 
L 162.776028 118.460914 
L 162.776028 117.42767 
L 165.824784 117.42767 
L 165.824784 116.394426 
L 166.085637 116.394426 
L 166.085637 115.361182 
L 167.335665 115.361182 
L 167.415972 106.061985 
L 167.45599 106.061985 
L 167.495918 101.929009 
L 167.575509 101.929009 
L 167.654747 93.663057 
L 167.694235 93.663057 
L 167.772949 82.297373 
L 167.929345 82.297373 
L 168.007033 80.230885 
L 168.04575 80.230885 
L 168.122934 74.03142 
L 168.161402 74.03142 
L 168.161402 69.898444 
L 168.728691 69.898444 
L 168.765878 66.798712 
L 169.314583 66.798712 
L 169.350572 63.69898 
L 169.493804 63.69898 
L 169.493804 62.665736 
L 169.74173 62.665736 
L 169.74173 61.632492 
L 170.261693 61.632492 
L 170.261693 60.599248 
L 170.733708 60.599248 
L 170.833252 54.399784 
L 170.932245 54.399784 
L 170.965121 49.233564 
L 171.225974 49.233564 
L 171.225974 46.133832 
L 171.451137 46.133832 
L 171.451137 45.100588 
L 171.57854 45.100588 
L 171.673499 39.934367 
L 171.70504 39.934367 
L 171.767956 34.768147 
L 358.8 34.768147 
L 358.8 34.768147 
" style="fill:none;stroke:#f5deb3;stroke-linecap:square;stroke-width:6;"/>
   </g>
   <g id="line2d_2"/>
   <g id="line2d_3">
    <path d="M 358.8 34.768147 
L 390.48 40.037692 
" style="fill:none;stroke:#f5deb3;stroke-linecap:square;stroke-width:6;"/>
    <defs>
     <path d="M -0 7.778175 
L 7.778175 0 
L 0 -7.778175 
L -7.778175 -0 
z
" id="m9878ddbd7f" style="stroke:#f5deb3;stroke-linejoin:miter;stroke-width:1.5;"/>
    </defs>
    <g>
     <use style="fill:#f5deb3;stroke:#f5deb3;stroke-linejoin:miter;stroke-width:1.5;" x="358.8" xlink:href="#m9878ddbd7f" y="34.768147"/>
     <use style="fill:#f5deb3;stroke:#f5deb3;stroke-linejoin:miter;stroke-width:1.5;" x="390.48" xlink:href="#m9878ddbd7f" y="40.037692"/>
    </g>
   </g>
   <g id="matplotlib.axis_1">
    <g id="xtick_1">
     <g id="line2d_4">
      <path clip-path="url(#p270bccd0e2)" d="M 70.8 298.245375 
L 70.8 32.133375 
" style="fill:none;stroke:#b0b0b0;stroke-linecap:square;stroke-width:0.8;"/>
     </g>
     <g id="line2d_5">
      <defs>
       <path d="M 0 0 
L 0 3.5 
" id="md720582987" style="stroke:#000000;stroke-width:0.8;"/>
      </defs>
      <g>
       <use style="stroke:#000000;stroke-width:0.8;" x="70.8" xlink:href="#md720582987" y="298.245375"/>
      </g>
     </g>
     <g id="text_1">
      <!-- 0 -->
      <defs>
       <path d="M 31.78125 66.40625 
Q 24.171875 66.40625 20.328125 58.90625 
Q 16.5 51.421875 16.5 36.375 
Q 16.5 21.390625 20.328125 13.890625 
Q 24.171875 6.390625 31.78125 6.390625 
Q 39.453125 6.390625 43.28125 13.890625 
Q 47.125 21.390625 47.125 36.375 
Q 47.125 51.421875 43.28125 58.90625 
Q 39.453125 66.40625 31.78125 66.40625 
M 31.78125 74.21875 
Q 44.046875 74.21875 50.515625 64.515625 
Q 56.984375 54.828125 56.984375 36.375 
Q 56.984375 17.96875 50.515625 8.265625 
Q 44.046875 -1.421875 31.78125 -1.421875 
Q 19.53125 -1.421875 13.0625 8.265625 
Q 6.59375 17.96875 6.59375 36.375 
Q 6.59375 54.828125 13.0625 64.515625 
Q 19.53125 74.21875 31.78125 74.21875 
" id="DejaVuSans-30"/>
      </defs>
      <g transform="translate(64.4375 320.44225)scale(0.2 -0.2)">
       <use xlink:href="#DejaVuSans-30"/>
      </g>
     </g>
    </g>
    <g id="xtick_2">
     <g id="line2d_6">
      <path clip-path="url(#p270bccd0e2)" d="M 153.085714 298.245375 
L 153.085714 32.133375 
" style="fill:none;stroke:#b0b0b0;stroke-linecap:square;stroke-width:0.8;"/>
     </g>
     <g id="line2d_7">
      <g>
       <use style="stroke:#000000;stroke-width:0.8;" x="153.085714" xlink:href="#md720582987" y="298.245375"/>
      </g>
     </g>
     <g id="text_2">
      <!-- 2 -->
      <defs>
       <path d="M 19.1875 8.296875 
L 53.609375 8.296875 
L 53.609375 0 
L 7.328125 0 
L 7.328125 8.296875 
Q 12.9375 14.109375 22.625 23.890625 
Q 32.328125 33.6875 34.8125 36.53125 
Q 39.546875 41.84375 41.421875 45.53125 
Q 43.3125 49.21875 43.3125 52.78125 
Q 43.3125 58.59375 39.234375 62.25 
Q 35.15625 65.921875 28.609375 65.921875 
Q 23.96875 65.921875 18.8125 64.3125 
Q 13.671875 62.703125 7.8125 59.421875 
L 7.8125 69.390625 
Q 13.765625 71.78125 18.9375 73 
Q 24.125 74.21875 28.421875 74.21875 
Q 39.75 74.21875 46.484375 68.546875 
Q 53.21875 62.890625 53.21875 53.421875 
Q 53.21875 48.921875 51.53125 44.890625 
Q 49.859375 40.875 45.40625 35.40625 
Q 44.1875 33.984375 37.640625 27.21875 
Q 31.109375 20.453125 19.1875 8.296875 
" id="DejaVuSans-32"/>
      </defs>
      <g transform="translate(146.723214 320.44225)scale(0.2 -0.2)">
       <use xlink:href="#DejaVuSans-32"/>
      </g>
     </g>
    </g>
    <g id="xtick_3">
     <g id="line2d_8">
      <path clip-path="url(#p270bccd0e2)" d="M 235.371429 298.245375 
L 235.371429 32.133375 
" style="fill:none;stroke:#b0b0b0;stroke-linecap:square;stroke-width:0.8;"/>
     </g>
     <g id="line2d_9">
      <g>
       <use style="stroke:#000000;stroke-width:0.8;" x="235.371429" xlink:href="#md720582987" y="298.245375"/>
      </g>
     </g>
     <g id="text_3">
      <!-- 4 -->
      <defs>
       <path d="M 37.796875 64.3125 
L 12.890625 25.390625 
L 37.796875 25.390625 
z
M 35.203125 72.90625 
L 47.609375 72.90625 
L 47.609375 25.390625 
L 58.015625 25.390625 
L 58.015625 17.1875 
L 47.609375 17.1875 
L 47.609375 0 
L 37.796875 0 
L 37.796875 17.1875 
L 4.890625 17.1875 
L 4.890625 26.703125 
z
" id="DejaVuSans-34"/>
      </defs>
      <g transform="translate(229.008929 320.44225)scale(0.2 -0.2)">
       <use xlink:href="#DejaVuSans-34"/>
      </g>
     </g>
    </g>
    <g id="xtick_4">
     <g id="line2d_10">
      <path clip-path="url(#p270bccd0e2)" d="M 317.657143 298.245375 
L 317.657143 32.133375 
" style="fill:none;stroke:#b0b0b0;stroke-linecap:square;stroke-width:0.8;"/>
     </g>
     <g id="line2d_11">
      <g>
       <use style="stroke:#000000;stroke-width:0.8;" x="317.657143" xlink:href="#md720582987" y="298.245375"/>
      </g>
     </g>
     <g id="text_4">
      <!-- 6 -->
      <defs>
       <path d="M 33.015625 40.375 
Q 26.375 40.375 22.484375 35.828125 
Q 18.609375 31.296875 18.609375 23.390625 
Q 18.609375 15.53125 22.484375 10.953125 
Q 26.375 6.390625 33.015625 6.390625 
Q 39.65625 6.390625 43.53125 10.953125 
Q 47.40625 15.53125 47.40625 23.390625 
Q 47.40625 31.296875 43.53125 35.828125 
Q 39.65625 40.375 33.015625 40.375 
M 52.59375 71.296875 
L 52.59375 62.3125 
Q 48.875 64.0625 45.09375 64.984375 
Q 41.3125 65.921875 37.59375 65.921875 
Q 27.828125 65.921875 22.671875 59.328125 
Q 17.53125 52.734375 16.796875 39.40625 
Q 19.671875 43.65625 24.015625 45.921875 
Q 28.375 48.1875 33.59375 48.1875 
Q 44.578125 48.1875 50.953125 41.515625 
Q 57.328125 34.859375 57.328125 23.390625 
Q 57.328125 12.15625 50.6875 5.359375 
Q 44.046875 -1.421875 33.015625 -1.421875 
Q 20.359375 -1.421875 13.671875 8.265625 
Q 6.984375 17.96875 6.984375 36.375 
Q 6.984375 53.65625 15.1875 63.9375 
Q 23.390625 74.21875 37.203125 74.21875 
Q 40.921875 74.21875 44.703125 73.484375 
Q 48.484375 72.75 52.59375 71.296875 
" id="DejaVuSans-36"/>
      </defs>
      <g transform="translate(311.294643 320.44225)scale(0.2 -0.2)">
       <use xlink:href="#DejaVuSans-36"/>
      </g>
     </g>
    </g>
    <g id="xtick_5">
     <g id="line2d_12">
      <path clip-path="url(#p270bccd0e2)" d="M 399.942857 298.245375 
L 399.942857 32.133375 
" style="fill:none;stroke:#b0b0b0;stroke-linecap:square;stroke-width:0.8;"/>
     </g>
     <g id="line2d_13">
      <g>
       <use style="stroke:#000000;stroke-width:0.8;" x="399.942857" xlink:href="#md720582987" y="298.245375"/>
      </g>
     </g>
     <g id="text_5">
      <!-- 8 -->
      <defs>
       <path d="M 31.78125 34.625 
Q 24.75 34.625 20.71875 30.859375 
Q 16.703125 27.09375 16.703125 20.515625 
Q 16.703125 13.921875 20.71875 10.15625 
Q 24.75 6.390625 31.78125 6.390625 
Q 38.8125 6.390625 42.859375 10.171875 
Q 46.921875 13.96875 46.921875 20.515625 
Q 46.921875 27.09375 42.890625 30.859375 
Q 38.875 34.625 31.78125 34.625 
M 21.921875 38.8125 
Q 15.578125 40.375 12.03125 44.71875 
Q 8.5 49.078125 8.5 55.328125 
Q 8.5 64.0625 14.71875 69.140625 
Q 20.953125 74.21875 31.78125 74.21875 
Q 42.671875 74.21875 48.875 69.140625 
Q 55.078125 64.0625 55.078125 55.328125 
Q 55.078125 49.078125 51.53125 44.71875 
Q 48 40.375 41.703125 38.8125 
Q 48.828125 37.15625 52.796875 32.3125 
Q 56.78125 27.484375 56.78125 20.515625 
Q 56.78125 9.90625 50.3125 4.234375 
Q 43.84375 -1.421875 31.78125 -1.421875 
Q 19.734375 -1.421875 13.25 4.234375 
Q 6.78125 9.90625 6.78125 20.515625 
Q 6.78125 27.484375 10.78125 32.3125 
Q 14.796875 37.15625 21.921875 38.8125 
M 18.3125 54.390625 
Q 18.3125 48.734375 21.84375 45.5625 
Q 25.390625 42.390625 31.78125 42.390625 
Q 38.140625 42.390625 41.71875 45.5625 
Q 45.3125 48.734375 45.3125 54.390625 
Q 45.3125 60.0625 41.71875 63.234375 
Q 38.140625 66.40625 31.78125 66.40625 
Q 25.390625 66.40625 21.84375 63.234375 
Q 18.3125 60.0625 18.3125 54.390625 
" id="DejaVuSans-38"/>
      </defs>
      <g transform="translate(393.580357 320.44225)scale(0.2 -0.2)">
       <use xlink:href="#DejaVuSans-38"/>
      </g>
     </g>
    </g>
    <g id="xtick_6">
     <g id="line2d_14">
      <defs>
       <path d="M 0 0 
L 0 2 
" id="m0130335840" style="stroke:#000000;stroke-width:0.6;"/>
      </defs>
      <g>
       <use style="stroke:#000000;stroke-width:0.6;" x="83.185234" xlink:href="#m0130335840" y="298.245375"/>
      </g>
     </g>
    </g>
    <g id="xtick_7">
     <g id="line2d_15">
      <g>
       <use style="stroke:#000000;stroke-width:0.6;" x="95.570468" xlink:href="#m0130335840" y="298.245375"/>
      </g>
     </g>
    </g>
    <g id="xtick_8">
     <g id="line2d_16">
      <g>
       <use style="stroke:#000000;stroke-width:0.6;" x="102.815366" xlink:href="#m0130335840" y="298.245375"/>
      </g>
     </g>
    </g>
    <g id="xtick_9">
     <g id="line2d_17">
      <g>
       <use style="stroke:#000000;stroke-width:0.6;" x="107.955702" xlink:href="#m0130335840" y="298.245375"/>
      </g>
     </g>
    </g>
    <g id="xtick_10">
     <g id="line2d_18">
      <g>
       <use style="stroke:#000000;stroke-width:0.6;" x="165.470948" xlink:href="#m0130335840" y="298.245375"/>
      </g>
     </g>
    </g>
    <g id="xtick_11">
     <g id="line2d_19">
      <g>
       <use style="stroke:#000000;stroke-width:0.6;" x="177.856183" xlink:href="#m0130335840" y="298.245375"/>
      </g>
     </g>
    </g>
    <g id="xtick_12">
     <g id="line2d_20">
      <g>
       <use style="stroke:#000000;stroke-width:0.6;" x="185.10108" xlink:href="#m0130335840" y="298.245375"/>
      </g>
     </g>
    </g>
    <g id="xtick_13">
     <g id="line2d_21">
      <g>
       <use style="stroke:#000000;stroke-width:0.6;" x="190.241417" xlink:href="#m0130335840" y="298.245375"/>
      </g>
     </g>
    </g>
    <g id="xtick_14">
     <g id="line2d_22">
      <g>
       <use style="stroke:#000000;stroke-width:0.6;" x="247.756663" xlink:href="#m0130335840" y="298.245375"/>
      </g>
     </g>
    </g>
    <g id="xtick_15">
     <g id="line2d_23">
      <g>
       <use style="stroke:#000000;stroke-width:0.6;" x="260.141897" xlink:href="#m0130335840" y="298.245375"/>
      </g>
     </g>
    </g>
    <g id="xtick_16">
     <g id="line2d_24">
      <g>
       <use style="stroke:#000000;stroke-width:0.6;" x="267.386794" xlink:href="#m0130335840" y="298.245375"/>
      </g>
     </g>
    </g>
    <g id="xtick_17">
     <g id="line2d_25">
      <g>
       <use style="stroke:#000000;stroke-width:0.6;" x="272.527131" xlink:href="#m0130335840" y="298.245375"/>
      </g>
     </g>
    </g>
    <g id="xtick_18">
     <g id="line2d_26">
      <g>
       <use style="stroke:#000000;stroke-width:0.6;" x="330.042377" xlink:href="#m0130335840" y="298.245375"/>
      </g>
     </g>
    </g>
    <g id="xtick_19">
     <g id="line2d_27">
      <g>
       <use style="stroke:#000000;stroke-width:0.6;" x="342.427611" xlink:href="#m0130335840" y="298.245375"/>
      </g>
     </g>
    </g>
    <g id="xtick_20">
     <g id="line2d_28">
      <g>
       <use style="stroke:#000000;stroke-width:0.6;" x="349.672509" xlink:href="#m0130335840" y="298.245375"/>
      </g>
     </g>
    </g>
    <g id="xtick_21">
     <g id="line2d_29">
      <g>
       <use style="stroke:#000000;stroke-width:0.6;" x="354.812845" xlink:href="#m0130335840" y="298.245375"/>
      </g>
     </g>
    </g>
    <g id="xtick_22">
     <g id="line2d_30">
      <g>
       <use style="stroke:#000000;stroke-width:0.6;" x="412.328091" xlink:href="#m0130335840" y="298.245375"/>
      </g>
     </g>
    </g>
    <g id="xtick_23">
     <g id="line2d_31">
      <g>
       <use style="stroke:#000000;stroke-width:0.6;" x="424.713325" xlink:href="#m0130335840" y="298.245375"/>
      </g>
     </g>
    </g>
    <g id="text_6">
     <!-- log10 of (# f-evals / dimension) -->
     <defs>
      <path d="M 9.421875 75.984375 
L 18.40625 75.984375 
L 18.40625 0 
L 9.421875 0 
z
" id="DejaVuSans-6c"/>
      <path d="M 30.609375 48.390625 
Q 23.390625 48.390625 19.1875 42.75 
Q 14.984375 37.109375 14.984375 27.296875 
Q 14.984375 17.484375 19.15625 11.84375 
Q 23.34375 6.203125 30.609375 6.203125 
Q 37.796875 6.203125 41.984375 11.859375 
Q 46.1875 17.53125 46.1875 27.296875 
Q 46.1875 37.015625 41.984375 42.703125 
Q 37.796875 48.390625 30.609375 48.390625 
M 30.609375 56 
Q 42.328125 56 49.015625 48.375 
Q 55.71875 40.765625 55.71875 27.296875 
Q 55.71875 13.875 49.015625 6.21875 
Q 42.328125 -1.421875 30.609375 -1.421875 
Q 18.84375 -1.421875 12.171875 6.21875 
Q 5.515625 13.875 5.515625 27.296875 
Q 5.515625 40.765625 12.171875 48.375 
Q 18.84375 56 30.609375 56 
" id="DejaVuSans-6f"/>
      <path d="M 45.40625 27.984375 
Q 45.40625 37.75 41.375 43.109375 
Q 37.359375 48.484375 30.078125 48.484375 
Q 22.859375 48.484375 18.828125 43.109375 
Q 14.796875 37.75 14.796875 27.984375 
Q 14.796875 18.265625 18.828125 12.890625 
Q 22.859375 7.515625 30.078125 7.515625 
Q 37.359375 7.515625 41.375 12.890625 
Q 45.40625 18.265625 45.40625 27.984375 
M 54.390625 6.78125 
Q 54.390625 -7.171875 48.1875 -13.984375 
Q 42 -20.796875 29.203125 -20.796875 
Q 24.46875 -20.796875 20.265625 -20.09375 
Q 16.0625 -19.390625 12.109375 -17.921875 
L 12.109375 -9.1875 
Q 16.0625 -11.328125 19.921875 -12.34375 
Q 23.78125 -13.375 27.78125 -13.375 
Q 36.625 -13.375 41.015625 -8.765625 
Q 45.40625 -4.15625 45.40625 5.171875 
L 45.40625 9.625 
Q 42.625 4.78125 38.28125 2.390625 
Q 33.9375 0 27.875 0 
Q 17.828125 0 11.671875 7.65625 
Q 5.515625 15.328125 5.515625 27.984375 
Q 5.515625 40.671875 11.671875 48.328125 
Q 17.828125 56 27.875 56 
Q 33.9375 56 38.28125 53.609375 
Q 42.625 51.21875 45.40625 46.390625 
L 45.40625 54.6875 
L 54.390625 54.6875 
z
" id="DejaVuSans-67"/>
      <path d="M 12.40625 8.296875 
L 28.515625 8.296875 
L 28.515625 63.921875 
L 10.984375 60.40625 
L 10.984375 69.390625 
L 28.421875 72.90625 
L 38.28125 72.90625 
L 38.28125 8.296875 
L 54.390625 8.296875 
L 54.390625 0 
L 12.40625 0 
z
" id="DejaVuSans-31"/>
      <path id="DejaVuSans-20"/>
      <path d="M 37.109375 75.984375 
L 37.109375 68.5 
L 28.515625 68.5 
Q 23.6875 68.5 21.796875 66.546875 
Q 19.921875 64.59375 19.921875 59.515625 
L 19.921875 54.6875 
L 34.71875 54.6875 
L 34.71875 47.703125 
L 19.921875 47.703125 
L 19.921875 0 
L 10.890625 0 
L 10.890625 47.703125 
L 2.296875 47.703125 
L 2.296875 54.6875 
L 10.890625 54.6875 
L 10.890625 58.5 
Q 10.890625 67.625 15.140625 71.796875 
Q 19.390625 75.984375 28.609375 75.984375 
z
" id="DejaVuSans-66"/>
      <path d="M 31 75.875 
Q 24.46875 64.65625 21.28125 53.65625 
Q 18.109375 42.671875 18.109375 31.390625 
Q 18.109375 20.125 21.3125 9.0625 
Q 24.515625 -2 31 -13.1875 
L 23.1875 -13.1875 
Q 15.875 -1.703125 12.234375 9.375 
Q 8.59375 20.453125 8.59375 31.390625 
Q 8.59375 42.28125 12.203125 53.3125 
Q 15.828125 64.359375 23.1875 75.875 
z
" id="DejaVuSans-28"/>
      <path d="M 51.125 44 
L 36.921875 44 
L 32.8125 27.6875 
L 47.125 27.6875 
z
M 43.796875 71.78125 
L 38.71875 51.515625 
L 52.984375 51.515625 
L 58.109375 71.78125 
L 65.921875 71.78125 
L 60.890625 51.515625 
L 76.125 51.515625 
L 76.125 44 
L 58.984375 44 
L 54.984375 27.6875 
L 70.515625 27.6875 
L 70.515625 20.21875 
L 53.078125 20.21875 
L 48 0 
L 40.1875 0 
L 45.21875 20.21875 
L 30.90625 20.21875 
L 25.875 0 
L 18.015625 0 
L 23.09375 20.21875 
L 7.71875 20.21875 
L 7.71875 27.6875 
L 24.90625 27.6875 
L 29 44 
L 13.28125 44 
L 13.28125 51.515625 
L 30.90625 51.515625 
L 35.890625 71.78125 
z
" id="DejaVuSans-23"/>
      <path d="M 4.890625 31.390625 
L 31.203125 31.390625 
L 31.203125 23.390625 
L 4.890625 23.390625 
z
" id="DejaVuSans-2d"/>
      <path d="M 56.203125 29.59375 
L 56.203125 25.203125 
L 14.890625 25.203125 
Q 15.484375 15.921875 20.484375 11.0625 
Q 25.484375 6.203125 34.421875 6.203125 
Q 39.59375 6.203125 44.453125 7.46875 
Q 49.3125 8.734375 54.109375 11.28125 
L 54.109375 2.78125 
Q 49.265625 0.734375 44.1875 -0.34375 
Q 39.109375 -1.421875 33.890625 -1.421875 
Q 20.796875 -1.421875 13.15625 6.1875 
Q 5.515625 13.8125 5.515625 26.8125 
Q 5.515625 40.234375 12.765625 48.109375 
Q 20.015625 56 32.328125 56 
Q 43.359375 56 49.78125 48.890625 
Q 56.203125 41.796875 56.203125 29.59375 
M 47.21875 32.234375 
Q 47.125 39.59375 43.09375 43.984375 
Q 39.0625 48.390625 32.421875 48.390625 
Q 24.90625 48.390625 20.390625 44.140625 
Q 15.875 39.890625 15.1875 32.171875 
z
" id="DejaVuSans-65"/>
      <path d="M 2.984375 54.6875 
L 12.5 54.6875 
L 29.59375 8.796875 
L 46.6875 54.6875 
L 56.203125 54.6875 
L 35.6875 0 
L 23.484375 0 
z
" id="DejaVuSans-76"/>
      <path d="M 34.28125 27.484375 
Q 23.390625 27.484375 19.1875 25 
Q 14.984375 22.515625 14.984375 16.5 
Q 14.984375 11.71875 18.140625 8.90625 
Q 21.296875 6.109375 26.703125 6.109375 
Q 34.1875 6.109375 38.703125 11.40625 
Q 43.21875 16.703125 43.21875 25.484375 
L 43.21875 27.484375 
z
M 52.203125 31.203125 
L 52.203125 0 
L 43.21875 0 
L 43.21875 8.296875 
Q 40.140625 3.328125 35.546875 0.953125 
Q 30.953125 -1.421875 24.3125 -1.421875 
Q 15.921875 -1.421875 10.953125 3.296875 
Q 6 8.015625 6 15.921875 
Q 6 25.140625 12.171875 29.828125 
Q 18.359375 34.515625 30.609375 34.515625 
L 43.21875 34.515625 
L 43.21875 35.40625 
Q 43.21875 41.609375 39.140625 45 
Q 35.0625 48.390625 27.6875 48.390625 
Q 23 48.390625 18.546875 47.265625 
Q 14.109375 46.140625 10.015625 43.890625 
L 10.015625 52.203125 
Q 14.9375 54.109375 19.578125 55.046875 
Q 24.21875 56 28.609375 56 
Q 40.484375 56 46.34375 49.84375 
Q 52.203125 43.703125 52.203125 31.203125 
" id="DejaVuSans-61"/>
      <path d="M 44.28125 53.078125 
L 44.28125 44.578125 
Q 40.484375 46.53125 36.375 47.5 
Q 32.28125 48.484375 27.875 48.484375 
Q 21.1875 48.484375 17.84375 46.4375 
Q 14.5 44.390625 14.5 40.28125 
Q 14.5 37.15625 16.890625 35.375 
Q 19.28125 33.59375 26.515625 31.984375 
L 29.59375 31.296875 
Q 39.15625 29.25 43.1875 25.515625 
Q 47.21875 21.78125 47.21875 15.09375 
Q 47.21875 7.46875 41.1875 3.015625 
Q 35.15625 -1.421875 24.609375 -1.421875 
Q 20.21875 -1.421875 15.453125 -0.5625 
Q 10.6875 0.296875 5.421875 2 
L 5.421875 11.28125 
Q 10.40625 8.6875 15.234375 7.390625 
Q 20.0625 6.109375 24.8125 6.109375 
Q 31.15625 6.109375 34.5625 8.28125 
Q 37.984375 10.453125 37.984375 14.40625 
Q 37.984375 18.0625 35.515625 20.015625 
Q 33.0625 21.96875 24.703125 23.78125 
L 21.578125 24.515625 
Q 13.234375 26.265625 9.515625 29.90625 
Q 5.8125 33.546875 5.8125 39.890625 
Q 5.8125 47.609375 11.28125 51.796875 
Q 16.75 56 26.8125 56 
Q 31.78125 56 36.171875 55.265625 
Q 40.578125 54.546875 44.28125 53.078125 
" id="DejaVuSans-73"/>
      <path d="M 25.390625 72.90625 
L 33.6875 72.90625 
L 8.296875 -9.28125 
L 0 -9.28125 
z
" id="DejaVuSans-2f"/>
      <path d="M 45.40625 46.390625 
L 45.40625 75.984375 
L 54.390625 75.984375 
L 54.390625 0 
L 45.40625 0 
L 45.40625 8.203125 
Q 42.578125 3.328125 38.25 0.953125 
Q 33.9375 -1.421875 27.875 -1.421875 
Q 17.96875 -1.421875 11.734375 6.484375 
Q 5.515625 14.40625 5.515625 27.296875 
Q 5.515625 40.1875 11.734375 48.09375 
Q 17.96875 56 27.875 56 
Q 33.9375 56 38.25 53.625 
Q 42.578125 51.265625 45.40625 46.390625 
M 14.796875 27.296875 
Q 14.796875 17.390625 18.875 11.75 
Q 22.953125 6.109375 30.078125 6.109375 
Q 37.203125 6.109375 41.296875 11.75 
Q 45.40625 17.390625 45.40625 27.296875 
Q 45.40625 37.203125 41.296875 42.84375 
Q 37.203125 48.484375 30.078125 48.484375 
Q 22.953125 48.484375 18.875 42.84375 
Q 14.796875 37.203125 14.796875 27.296875 
" id="DejaVuSans-64"/>
      <path d="M 9.421875 54.6875 
L 18.40625 54.6875 
L 18.40625 0 
L 9.421875 0 
z
M 9.421875 75.984375 
L 18.40625 75.984375 
L 18.40625 64.59375 
L 9.421875 64.59375 
z
" id="DejaVuSans-69"/>
      <path d="M 52 44.1875 
Q 55.375 50.25 60.0625 53.125 
Q 64.75 56 71.09375 56 
Q 79.640625 56 84.28125 50.015625 
Q 88.921875 44.046875 88.921875 33.015625 
L 88.921875 0 
L 79.890625 0 
L 79.890625 32.71875 
Q 79.890625 40.578125 77.09375 44.375 
Q 74.3125 48.1875 68.609375 48.1875 
Q 61.625 48.1875 57.5625 43.546875 
Q 53.515625 38.921875 53.515625 30.90625 
L 53.515625 0 
L 44.484375 0 
L 44.484375 32.71875 
Q 44.484375 40.625 41.703125 44.40625 
Q 38.921875 48.1875 33.109375 48.1875 
Q 26.21875 48.1875 22.15625 43.53125 
Q 18.109375 38.875 18.109375 30.90625 
L 18.109375 0 
L 9.078125 0 
L 9.078125 54.6875 
L 18.109375 54.6875 
L 18.109375 46.1875 
Q 21.1875 51.21875 25.484375 53.609375 
Q 29.78125 56 35.6875 56 
Q 41.65625 56 45.828125 52.96875 
Q 50 49.953125 52 44.1875 
" id="DejaVuSans-6d"/>
      <path d="M 54.890625 33.015625 
L 54.890625 0 
L 45.90625 0 
L 45.90625 32.71875 
Q 45.90625 40.484375 42.875 44.328125 
Q 39.84375 48.1875 33.796875 48.1875 
Q 26.515625 48.1875 22.3125 43.546875 
Q 18.109375 38.921875 18.109375 30.90625 
L 18.109375 0 
L 9.078125 0 
L 9.078125 54.6875 
L 18.109375 54.6875 
L 18.109375 46.1875 
Q 21.34375 51.125 25.703125 53.5625 
Q 30.078125 56 35.796875 56 
Q 45.21875 56 50.046875 50.171875 
Q 54.890625 44.34375 54.890625 33.015625 
" id="DejaVuSans-6e"/>
      <path d="M 8.015625 75.875 
L 15.828125 75.875 
Q 23.140625 64.359375 26.78125 53.3125 
Q 30.421875 42.28125 30.421875 31.390625 
Q 30.421875 20.453125 26.78125 9.375 
Q 23.140625 -1.703125 15.828125 -13.1875 
L 8.015625 -13.1875 
Q 14.5 -2 17.703125 9.0625 
Q 20.90625 20.125 20.90625 31.390625 
Q 20.90625 42.671875 17.703125 53.65625 
Q 14.5 64.65625 8.015625 75.875 
" id="DejaVuSans-29"/>
     </defs>
     <g transform="translate(107.015156 342.278812)scale(0.18 -0.18)">
      <use xlink:href="#DejaVuSans-6c"/>
      <use x="27.783203" xlink:href="#DejaVuSans-6f"/>
      <use x="88.964844" xlink:href="#DejaVuSans-67"/>
      <use x="152.441406" xlink:href="#DejaVuSans-31"/>
      <use x="216.064453" xlink:href="#DejaVuSans-30"/>
      <use x="279.6875" xlink:href="#DejaVuSans-20"/>
      <use x="311.474609" xlink:href="#DejaVuSans-6f"/>
      <use x="372.65625" xlink:href="#DejaVuSans-66"/>
      <use x="407.861328" xlink:href="#DejaVuSans-20"/>
      <use x="439.648438" xlink:href="#DejaVuSans-28"/>
      <use x="478.662109" xlink:href="#DejaVuSans-23"/>
      <use x="562.451172" xlink:href="#DejaVuSans-20"/>
      <use x="594.238281" xlink:href="#DejaVuSans-66"/>
      <use x="629.365234" xlink:href="#DejaVuSans-2d"/>
      <use x="665.449219" xlink:href="#DejaVuSans-65"/>
      <use x="726.972656" xlink:href="#DejaVuSans-76"/>
      <use x="786.152344" xlink:href="#DejaVuSans-61"/>
      <use x="847.431641" xlink:href="#DejaVuSans-6c"/>
      <use x="875.214844" xlink:href="#DejaVuSans-73"/>
      <use x="927.314453" xlink:href="#DejaVuSans-20"/>
      <use x="959.101562" xlink:href="#DejaVuSans-2f"/>
      <use x="992.792969" xlink:href="#DejaVuSans-20"/>
      <use x="1024.580078" xlink:href="#DejaVuSans-64"/>
      <use x="1088.056641" xlink:href="#DejaVuSans-69"/>
      <use x="1115.839844" xlink:href="#DejaVuSans-6d"/>
      <use x="1213.251953" xlink:href="#DejaVuSans-65"/>
      <use x="1274.775391" xlink:href="#DejaVuSans-6e"/>
      <use x="1338.154297" xlink:href="#DejaVuSans-73"/>
      <use x="1390.253906" xlink:href="#DejaVuSans-69"/>
      <use x="1418.037109" xlink:href="#DejaVuSans-6f"/>
      <use x="1479.21875" xlink:href="#DejaVuSans-6e"/>
      <use x="1542.597656" xlink:href="#DejaVuSans-29"/>
     </g>
    </g>
   </g>
   <g id="matplotlib.axis_2">
    <g id="ytick_1">
     <g id="line2d_32">
      <path clip-path="url(#p270bccd0e2)" d="M 70.8 298.245375 
L 427.92 298.245375 
" style="fill:none;stroke:#b0b0b0;stroke-linecap:square;stroke-width:0.8;"/>
     </g>
     <g id="line2d_33">
      <defs>
       <path d="M 0 0 
L -3.5 0 
" id="me4858fbdef" style="stroke:#000000;stroke-width:0.8;"/>
      </defs>
      <g>
       <use style="stroke:#000000;stroke-width:0.8;" x="70.8" xlink:href="#me4858fbdef" y="298.245375"/>
      </g>
     </g>
     <g id="text_7">
      <!-- 0.0 -->
      <defs>
       <path d="M 10.6875 12.40625 
L 21 12.40625 
L 21 0 
L 10.6875 0 
z
" id="DejaVuSans-2e"/>
      </defs>
      <g transform="translate(31.99375 305.843812)scale(0.2 -0.2)">
       <use xlink:href="#DejaVuSans-30"/>
       <use x="63.623047" xlink:href="#DejaVuSans-2e"/>
       <use x="95.410156" xlink:href="#DejaVuSans-30"/>
      </g>
     </g>
    </g>
    <g id="ytick_2">
     <g id="line2d_34">
      <path clip-path="url(#p270bccd0e2)" d="M 70.8 245.549929 
L 427.92 245.549929 
" style="fill:none;stroke:#b0b0b0;stroke-linecap:square;stroke-width:0.8;"/>
     </g>
     <g id="line2d_35">
      <g>
       <use style="stroke:#000000;stroke-width:0.8;" x="70.8" xlink:href="#me4858fbdef" y="245.549929"/>
      </g>
     </g>
     <g id="text_8">
      <!-- 0.2 -->
      <g transform="translate(31.99375 253.148367)scale(0.2 -0.2)">
       <use xlink:href="#DejaVuSans-30"/>
       <use x="63.623047" xlink:href="#DejaVuSans-2e"/>
       <use x="95.410156" xlink:href="#DejaVuSans-32"/>
      </g>
     </g>
    </g>
    <g id="ytick_3">
     <g id="line2d_36">
      <path clip-path="url(#p270bccd0e2)" d="M 70.8 192.854484 
L 427.92 192.854484 
" style="fill:none;stroke:#b0b0b0;stroke-linecap:square;stroke-width:0.8;"/>
     </g>
     <g id="line2d_37">
      <g>
       <use style="stroke:#000000;stroke-width:0.8;" x="70.8" xlink:href="#me4858fbdef" y="192.854484"/>
      </g>
     </g>
     <g id="text_9">
      <!-- 0.4 -->
      <g transform="translate(31.99375 200.452921)scale(0.2 -0.2)">
       <use xlink:href="#DejaVuSans-30"/>
       <use x="63.623047" xlink:href="#DejaVuSans-2e"/>
       <use x="95.410156" xlink:href="#DejaVuSans-34"/>
      </g>
     </g>
    </g>
    <g id="ytick_4">
     <g id="line2d_38">
      <path clip-path="url(#p270bccd0e2)" d="M 70.8 140.159038 
L 427.92 140.159038 
" style="fill:none;stroke:#b0b0b0;stroke-linecap:square;stroke-width:0.8;"/>
     </g>
     <g id="line2d_39">
      <g>
       <use style="stroke:#000000;stroke-width:0.8;" x="70.8" xlink:href="#me4858fbdef" y="140.159038"/>
      </g>
     </g>
     <g id="text_10">
      <!-- 0.6 -->
      <g transform="translate(31.99375 147.757476)scale(0.2 -0.2)">
       <use xlink:href="#DejaVuSans-30"/>
       <use x="63.623047" xlink:href="#DejaVuSans-2e"/>
       <use x="95.410156" xlink:href="#DejaVuSans-36"/>
      </g>
     </g>
    </g>
    <g id="ytick_5">
     <g id="line2d_40">
      <path clip-path="url(#p270bccd0e2)" d="M 70.8 87.463593 
L 427.92 87.463593 
" style="fill:none;stroke:#b0b0b0;stroke-linecap:square;stroke-width:0.8;"/>
     </g>
     <g id="line2d_41">
      <g>
       <use style="stroke:#000000;stroke-width:0.8;" x="70.8" xlink:href="#me4858fbdef" y="87.463593"/>
      </g>
     </g>
     <g id="text_11">
      <!-- 0.8 -->
      <g transform="translate(31.99375 95.06203)scale(0.2 -0.2)">
       <use xlink:href="#DejaVuSans-30"/>
       <use x="63.623047" xlink:href="#DejaVuSans-2e"/>
       <use x="95.410156" xlink:href="#DejaVuSans-38"/>
      </g>
     </g>
    </g>
    <g id="ytick_6">
     <g id="line2d_42">
      <path clip-path="url(#p270bccd0e2)" d="M 70.8 34.768147 
L 427.92 34.768147 
" style="fill:none;stroke:#b0b0b0;stroke-linecap:square;stroke-width:0.8;"/>
     </g>
     <g id="line2d_43">
      <g>
       <use style="stroke:#000000;stroke-width:0.8;" x="70.8" xlink:href="#me4858fbdef" y="34.768147"/>
      </g>
     </g>
     <g id="text_12">
      <!-- 1.0 -->
      <g transform="translate(31.99375 42.366585)scale(0.2 -0.2)">
       <use xlink:href="#DejaVuSans-31"/>
       <use x="63.623047" xlink:href="#DejaVuSans-2e"/>
       <use x="95.410156" xlink:href="#DejaVuSans-30"/>
      </g>
     </g>
    </g>
    <g id="text_13">
     <!-- Proportion of function+target pairs -->
     <defs>
      <path d="M 19.671875 64.796875 
L 19.671875 37.40625 
L 32.078125 37.40625 
Q 38.96875 37.40625 42.71875 40.96875 
Q 46.484375 44.53125 46.484375 51.125 
Q 46.484375 57.671875 42.71875 61.234375 
Q 38.96875 64.796875 32.078125 64.796875 
z
M 9.8125 72.90625 
L 32.078125 72.90625 
Q 44.34375 72.90625 50.609375 67.359375 
Q 56.890625 61.8125 56.890625 51.125 
Q 56.890625 40.328125 50.609375 34.8125 
Q 44.34375 29.296875 32.078125 29.296875 
L 19.671875 29.296875 
L 19.671875 0 
L 9.8125 0 
z
" id="DejaVuSans-50"/>
      <path d="M 41.109375 46.296875 
Q 39.59375 47.171875 37.8125 47.578125 
Q 36.03125 48 33.890625 48 
Q 26.265625 48 22.1875 43.046875 
Q 18.109375 38.09375 18.109375 28.8125 
L 18.109375 0 
L 9.078125 0 
L 9.078125 54.6875 
L 18.109375 54.6875 
L 18.109375 46.1875 
Q 20.953125 51.171875 25.484375 53.578125 
Q 30.03125 56 36.53125 56 
Q 37.453125 56 38.578125 55.875 
Q 39.703125 55.765625 41.0625 55.515625 
z
" id="DejaVuSans-72"/>
      <path d="M 18.109375 8.203125 
L 18.109375 -20.796875 
L 9.078125 -20.796875 
L 9.078125 54.6875 
L 18.109375 54.6875 
L 18.109375 46.390625 
Q 20.953125 51.265625 25.265625 53.625 
Q 29.59375 56 35.59375 56 
Q 45.5625 56 51.78125 48.09375 
Q 58.015625 40.1875 58.015625 27.296875 
Q 58.015625 14.40625 51.78125 6.484375 
Q 45.5625 -1.421875 35.59375 -1.421875 
Q 29.59375 -1.421875 25.265625 0.953125 
Q 20.953125 3.328125 18.109375 8.203125 
M 48.6875 27.296875 
Q 48.6875 37.203125 44.609375 42.84375 
Q 40.53125 48.484375 33.40625 48.484375 
Q 26.265625 48.484375 22.1875 42.84375 
Q 18.109375 37.203125 18.109375 27.296875 
Q 18.109375 17.390625 22.1875 11.75 
Q 26.265625 6.109375 33.40625 6.109375 
Q 40.53125 6.109375 44.609375 11.75 
Q 48.6875 17.390625 48.6875 27.296875 
" id="DejaVuSans-70"/>
      <path d="M 18.3125 70.21875 
L 18.3125 54.6875 
L 36.8125 54.6875 
L 36.8125 47.703125 
L 18.3125 47.703125 
L 18.3125 18.015625 
Q 18.3125 11.328125 20.140625 9.421875 
Q 21.96875 7.515625 27.59375 7.515625 
L 36.8125 7.515625 
L 36.8125 0 
L 27.59375 0 
Q 17.1875 0 13.234375 3.875 
Q 9.28125 7.765625 9.28125 18.015625 
L 9.28125 47.703125 
L 2.6875 47.703125 
L 2.6875 54.6875 
L 9.28125 54.6875 
L 9.28125 70.21875 
z
" id="DejaVuSans-74"/>
      <path d="M 8.5 21.578125 
L 8.5 54.6875 
L 17.484375 54.6875 
L 17.484375 21.921875 
Q 17.484375 14.15625 20.5 10.265625 
Q 23.53125 6.390625 29.59375 6.390625 
Q 36.859375 6.390625 41.078125 11.03125 
Q 45.3125 15.671875 45.3125 23.6875 
L 45.3125 54.6875 
L 54.296875 54.6875 
L 54.296875 0 
L 45.3125 0 
L 45.3125 8.40625 
Q 42.046875 3.421875 37.71875 1 
Q 33.40625 -1.421875 27.6875 -1.421875 
Q 18.265625 -1.421875 13.375 4.4375 
Q 8.5 10.296875 8.5 21.578125 
M 31.109375 56 
z
" id="DejaVuSans-75"/>
      <path d="M 48.78125 52.59375 
L 48.78125 44.1875 
Q 44.96875 46.296875 41.140625 47.34375 
Q 37.3125 48.390625 33.40625 48.390625 
Q 24.65625 48.390625 19.8125 42.84375 
Q 14.984375 37.3125 14.984375 27.296875 
Q 14.984375 17.28125 19.8125 11.734375 
Q 24.65625 6.203125 33.40625 6.203125 
Q 37.3125 6.203125 41.140625 7.25 
Q 44.96875 8.296875 48.78125 10.40625 
L 48.78125 2.09375 
Q 45.015625 0.34375 40.984375 -0.53125 
Q 36.96875 -1.421875 32.421875 -1.421875 
Q 20.0625 -1.421875 12.78125 6.34375 
Q 5.515625 14.109375 5.515625 27.296875 
Q 5.515625 40.671875 12.859375 48.328125 
Q 20.21875 56 33.015625 56 
Q 37.15625 56 41.109375 55.140625 
Q 45.0625 54.296875 48.78125 52.59375 
" id="DejaVuSans-63"/>
      <path d="M 46 62.703125 
L 46 35.5 
L 73.1875 35.5 
L 73.1875 27.203125 
L 46 27.203125 
L 46 0 
L 37.796875 0 
L 37.796875 27.203125 
L 10.59375 27.203125 
L 10.59375 35.5 
L 37.796875 35.5 
L 37.796875 62.703125 
z
" id="DejaVuSans-2b"/>
     </defs>
     <g transform="translate(24.250312 323.17875)rotate(-90)scale(0.18 -0.18)">
      <use xlink:href="#DejaVuSans-50"/>
      <use x="60.287109" xlink:href="#DejaVuSans-72"/>
      <use x="101.369141" xlink:href="#DejaVuSans-6f"/>
      <use x="162.550781" xlink:href="#DejaVuSans-70"/>
      <use x="226.027344" xlink:href="#DejaVuSans-6f"/>
      <use x="287.208984" xlink:href="#DejaVuSans-72"/>
      <use x="328.322266" xlink:href="#DejaVuSans-74"/>
      <use x="367.53125" xlink:href="#DejaVuSans-69"/>
      <use x="395.314453" xlink:href="#DejaVuSans-6f"/>
      <use x="456.496094" xlink:href="#DejaVuSans-6e"/>
      <use x="519.875" xlink:href="#DejaVuSans-20"/>
      <use x="551.662109" xlink:href="#DejaVuSans-6f"/>
      <use x="612.84375" xlink:href="#DejaVuSans-66"/>
      <use x="648.048828" xlink:href="#DejaVuSans-20"/>
      <use x="679.835938" xlink:href="#DejaVuSans-66"/>
      <use x="715.041016" xlink:href="#DejaVuSans-75"/>
      <use x="778.419922" xlink:href="#DejaVuSans-6e"/>
      <use x="841.798828" xlink:href="#DejaVuSans-63"/>
      <use x="896.779297" xlink:href="#DejaVuSans-74"/>
      <use x="935.988281" xlink:href="#DejaVuSans-69"/>
      <use x="963.771484" xlink:href="#DejaVuSans-6f"/>
      <use x="1024.953125" xlink:href="#DejaVuSans-6e"/>
      <use x="1088.332031" xlink:href="#DejaVuSans-2b"/>
      <use x="1172.121094" xlink:href="#DejaVuSans-74"/>
      <use x="1211.330078" xlink:href="#DejaVuSans-61"/>
      <use x="1272.609375" xlink:href="#DejaVuSans-72"/>
      <use x="1313.707031" xlink:href="#DejaVuSans-67"/>
      <use x="1377.183594" xlink:href="#DejaVuSans-65"/>
      <use x="1438.707031" xlink:href="#DejaVuSans-74"/>
      <use x="1477.916016" xlink:href="#DejaVuSans-20"/>
      <use x="1509.703125" xlink:href="#DejaVuSans-70"/>
      <use x="1573.179688" xlink:href="#DejaVuSans-61"/>
      <use x="1634.458984" xlink:href="#DejaVuSans-69"/>
      <use x="1662.242188" xlink:href="#DejaVuSans-72"/>
      <use x="1703.355469" xlink:href="#DejaVuSans-73"/>
     </g>
    </g>
   </g>
   <g id="line2d_44">
    <defs>
     <path d="M 0 1.5 
C 0.397805 1.5 0.77937 1.341951 1.06066 1.06066 
C 1.341951 0.77937 1.5 0.397805 1.5 0 
C 1.5 -0.397805 1.341951 -0.77937 1.06066 -1.06066 
C 0.77937 -1.341951 0.397805 -1.5 0 -1.5 
C -0.397805 -1.5 -0.77937 -1.341951 -1.06066 -1.06066 
C -1.341951 -0.77937 -1.5 -0.397805 -1.5 0 
C -1.5 0.397805 -1.341951 0.77937 -1.06066 1.06066 
C -0.77937 1.341951 -0.397805 1.5 0 1.5 
z
" id="m3cee861ecb" style="stroke:#f5deb3;"/>
    </defs>
    <g>
     <use style="fill:#f5deb3;stroke:#f5deb3;" x="171.767956" xlink:href="#m3cee861ecb" y="34.768147"/>
     <use style="fill:#f5deb3;stroke:#f5deb3;" x="171.767956" xlink:href="#m3cee861ecb" y="34.768147"/>
    </g>
   </g>
   <g id="line2d_45">
    <g>
     <use style="fill:#f5deb3;stroke:#f5deb3;stroke-linejoin:miter;stroke-width:1.5;" x="90.430132" xlink:href="#m9878ddbd7f" y="229.018025"/>
     <use style="fill:#f5deb3;stroke:#f5deb3;stroke-linejoin:miter;stroke-width:1.5;" x="119.187755" xlink:href="#m9878ddbd7f" y="128.793354"/>
     <use style="fill:#f5deb3;stroke:#f5deb3;stroke-linejoin:miter;stroke-width:1.5;" x="171.767956" xlink:href="#m9878ddbd7f" y="35.801391"/>
     <use style="fill:#f5deb3;stroke:#f5deb3;stroke-linejoin:miter;stroke-width:1.5;" x="171.767956" xlink:href="#m9878ddbd7f" y="34.768147"/>
     <use style="fill:#f5deb3;stroke:#f5deb3;stroke-linejoin:miter;stroke-width:1.5;" x="171.767956" xlink:href="#m9878ddbd7f" y="34.768147"/>
     <use style="fill:#f5deb3;stroke:#f5deb3;stroke-linejoin:miter;stroke-width:1.5;" x="358.8" xlink:href="#m9878ddbd7f" y="34.768147"/>
    </g>
   </g>
   <g id="line2d_46">
    <defs>
     <path d="M 0 1.5 
C 0.397805 1.5 0.77937 1.341951 1.06066 1.06066 
C 1.341951 0.77937 1.5 0.397805 1.5 0 
C 1.5 -0.397805 1.341951 -0.77937 1.06066 -1.06066 
C 0.77937 -1.341951 0.397805 -1.5 0 -1.5 
C -0.397805 -1.5 -0.77937 -1.341951 -1.06066 -1.06066 
C -1.341951 -0.77937 -1.5 -0.397805 -1.5 0 
C -1.5 0.397805 -1.341951 0.77937 -1.06066 1.06066 
C -0.77937 1.341951 -0.397805 1.5 0 1.5 
z
" id="m86f183ba81" style="stroke:#000080;"/>
    </defs>
    <g>
     <use style="fill:#000080;stroke:#000080;" x="155.269513" xlink:href="#m86f183ba81" y="245.549929"/>
     <use style="fill:#000080;stroke:#000080;" x="155.269513" xlink:href="#m86f183ba81" y="245.549929"/>
    </g>
   </g>
   <g id="line2d_47">
    <path d="M 58.414766 298.245375 
L 58.414766 294.112399 
L 78.044898 294.112399 
L 78.044898 292.045911 
L 106.802521 292.045911 
L 106.802521 285.846447 
L 118.581998 285.846447 
L 118.581998 284.813203 
L 122.935065 284.813203 
L 122.935065 281.713471 
L 129.356402 281.713471 
L 129.356402 279.646982 
L 132.444777 279.646982 
L 132.444777 276.54725 
L 134.580824 276.54725 
L 134.580824 274.480762 
L 138.61824 274.480762 
L 138.61824 272.414274 
L 142.240313 272.414274 
L 142.240313 268.281298 
L 144.25357 268.281298 
L 144.25357 265.181566 
L 146.062784 265.181566 
L 146.062784 263.115078 
L 146.712605 263.115078 
L 146.712605 254.849126 
L 149.430484 254.849126 
L 149.430484 253.815882 
L 151.498468 253.815882 
L 151.498468 250.71615 
L 151.884821 250.71615 
L 151.884821 249.682906 
L 153.700403 249.682906 
L 153.700403 248.649662 
L 154.377948 248.649662 
L 154.377948 247.616418 
L 155.269513 247.616418 
L 155.269513 245.549929 
L 358.8 245.549929 
" style="fill:none;stroke:#000080;stroke-linecap:square;stroke-width:1.5;"/>
   </g>
   <g id="line2d_48">
    <defs>
     <path d="M 0 6 
C 1.591219 6 3.117479 5.367802 4.242641 4.242641 
C 5.367802 3.117479 6 1.591219 6 0 
C 6 -1.591219 5.367802 -3.117479 4.242641 -4.242641 
C 3.117479 -5.367802 1.591219 -6 0 -6 
C -1.591219 -6 -3.117479 -5.367802 -4.242641 -4.242641 
C -5.367802 -3.117479 -6 -1.591219 -6 0 
C -6 1.591219 -5.367802 3.117479 -4.242641 4.242641 
C -3.117479 5.367802 -1.591219 6 0 6 
z
" id="m34601a56e7" style="stroke:#000080;stroke-width:1.5;"/>
    </defs>
    <g>
     <use style="fill:none;stroke:#000080;stroke-width:1.5;" x="78.044898" xlink:href="#m34601a56e7" y="292.045911"/>
     <use style="fill:none;stroke:#000080;stroke-width:1.5;" x="151.884821" xlink:href="#m34601a56e7" y="249.682906"/>
     <use style="fill:none;stroke:#000080;stroke-width:1.5;" x="155.269513" xlink:href="#m34601a56e7" y="247.616418"/>
     <use style="fill:none;stroke:#000080;stroke-width:1.5;" x="155.269513" xlink:href="#m34601a56e7" y="245.549929"/>
     <use style="fill:none;stroke:#000080;stroke-width:1.5;" x="155.269513" xlink:href="#m34601a56e7" y="245.549929"/>
     <use style="fill:none;stroke:#000080;stroke-width:1.5;" x="358.8" xlink:href="#m34601a56e7" y="245.549929"/>
    </g>
   </g>
   <g id="line2d_49"/>
   <g id="line2d_50">
    <defs>
     <path d="M 0 1.5 
C 0.397805 1.5 0.77937 1.341951 1.06066 1.06066 
C 1.341951 0.77937 1.5 0.397805 1.5 0 
C 1.5 -0.397805 1.341951 -0.77937 1.06066 -1.06066 
C 0.77937 -1.341951 0.397805 -1.5 0 -1.5 
C -0.397805 -1.5 -0.77937 -1.341951 -1.06066 -1.06066 
C -1.341951 -0.77937 -1.5 -0.397805 -1.5 0 
C -1.5 0.397805 -1.341951 0.77937 -1.06066 1.06066 
C -0.77937 1.341951 -0.397805 1.5 0 1.5 
z
" id="mfc689be432" style="stroke:#ff00ff;"/>
    </defs>
    <g>
     <use style="fill:#ff00ff;stroke:#ff00ff;" x="242.212748" xlink:href="#mfc689be432" y="70.931688"/>
     <use style="fill:#ff00ff;stroke:#ff00ff;" x="242.212748" xlink:href="#mfc689be432" y="70.931688"/>
    </g>
   </g>
   <g id="line2d_51">
    <path d="M 58.414766 298.245375 
L 58.414766 288.326232 
L 70.8 288.326232 
L 70.8 280.266929 
L 78.044898 280.266929 
L 78.044898 276.237277 
L 83.185234 276.237277 
L 83.185234 272.104301 
L 87.172389 272.104301 
L 87.172389 264.148322 
L 90.430132 264.148322 
L 90.430132 260.738617 
L 93.184514 260.738617 
L 93.184514 256.915614 
L 95.570468 256.915614 
L 95.570468 249.269608 
L 97.675029 249.269608 
L 97.675029 247.20312 
L 99.557623 247.20312 
L 99.557623 242.760171 
L 101.260636 242.760171 
L 101.260636 240.487034 
L 102.815366 240.487034 
L 102.815366 236.457382 
L 104.245578 236.457382 
L 104.245578 233.047677 
L 106.802521 232.944352 
L 106.802521 232.531055 
L 107.955702 232.531055 
L 107.955702 231.807784 
L 109.03895 231.807784 
L 109.03895 231.291162 
L 110.060263 231.291162 
L 110.060263 228.501403 
L 111.026343 228.501403 
L 111.026343 227.881457 
L 111.942857 227.881457 
L 111.942857 227.571483 
L 113.64587 227.468159 
L 113.64587 227.26151 
L 114.44014 227.26151 
L 114.44014 226.848213 
L 115.2006 226.848213 
L 115.2006 226.538239 
L 115.930012 226.538239 
L 115.930012 226.021617 
L 116.630812 226.021617 
L 116.630812 225.195022 
L 117.305161 225.195022 
L 117.305161 224.781724 
L 118.581998 224.6784 
L 118.581998 224.265102 
L 119.187755 224.265102 
L 119.187755 224.058454 
L 119.773647 224.058454 
L 119.773647 223.645156 
L 122.445497 223.645156 
L 122.445497 223.231858 
L 123.411577 223.231858 
L 123.411577 222.818561 
L 123.87571 222.818561 
L 123.87571 221.578668 
L 124.328091 221.578668 
L 124.328091 221.268695 
L 124.769302 221.268695 
L 124.769302 220.958722 
L 125.19988 220.958722 
L 125.19988 220.028802 
L 126.432652 219.925478 
L 126.432652 219.822153 
L 126.825374 219.822153 
L 126.825374 219.408855 
L 127.209649 219.408855 
L 127.209649 218.685585 
L 127.585834 218.685585 
L 127.585834 218.478936 
L 127.954262 218.478936 
L 127.954262 218.065638 
L 128.315246 218.065638 
L 128.315246 217.549016 
L 128.669082 217.549016 
L 128.669082 216.825745 
L 129.016046 216.825745 
L 129.016046 216.412448 
L 129.690395 216.412448 
L 129.690395 215.99915 
L 130.018259 215.99915 
L 130.018259 215.482528 
L 130.340216 215.482528 
L 130.340216 214.862582 
L 130.656474 214.862582 
L 130.656474 214.34596 
L 130.967232 214.34596 
L 130.967232 213.829338 
L 131.272677 213.829338 
L 131.272677 213.519365 
L 131.572989 213.519365 
L 131.572989 212.382796 
L 131.868336 212.382796 
L 131.868336 211.969498 
L 132.158881 211.969498 
L 132.158881 211.246228 
L 133.003201 211.246228 
L 133.003201 210.729606 
L 133.276002 210.729606 
L 133.276002 210.316308 
L 134.580824 210.212984 
L 134.580824 208.869766 
L 134.830731 208.869766 
L 134.830731 208.353144 
L 135.077192 208.353144 
L 135.077192 207.836522 
L 135.560144 207.836522 
L 135.560144 207.113252 
L 135.796811 207.113252 
L 135.796811 206.699954 
L 136.488566 206.699954 
L 136.488566 206.493305 
L 136.713325 206.493305 
L 136.713325 204.220168 
L 136.935292 204.220168 
L 136.935292 203.910195 
L 137.154536 203.910195 
L 137.154536 203.393573 
L 137.585114 203.393573 
L 137.585114 203.186924 
L 137.796573 203.186924 
L 137.796573 202.876951 
L 138.005559 202.876951 
L 138.005559 202.463653 
L 138.416339 202.360329 
L 138.416339 201.947031 
L 138.61824 201.947031 
L 138.61824 201.533734 
L 138.817886 201.533734 
L 138.817886 201.327085 
L 139.015326 201.327085 
L 139.015326 200.707139 
L 139.210608 200.707139 
L 139.210608 200.397165 
L 139.403779 200.397165 
L 139.403779 200.190517 
L 139.594883 200.190517 
L 139.594883 199.983868 
L 139.783966 199.983868 
L 139.783966 198.847299 
L 139.971068 198.847299 
L 139.971068 198.64065 
L 140.156232 198.64065 
L 140.156232 198.330677 
L 140.5209 198.330677 
L 140.5209 197.710731 
L 140.878274 197.607406 
L 140.878274 197.400758 
L 141.054316 197.400758 
L 141.054316 196.884136 
L 141.22864 196.884136 
L 141.22864 196.677487 
L 141.741636 196.574162 
L 141.741636 195.644243 
L 142.240313 195.644243 
L 142.240313 195.230945 
L 142.565197 195.230945 
L 142.565197 195.024296 
L 142.72545 195.024296 
L 142.72545 194.610999 
L 142.884279 194.610999 
L 142.884279 193.681079 
L 143.041708 193.681079 
L 143.041708 193.47443 
L 143.505841 193.371106 
L 143.505841 193.267782 
L 144.25357 193.164457 
L 144.25357 192.854484 
L 144.399433 192.854484 
L 144.399433 192.647835 
L 144.687635 192.544511 
L 144.687635 192.441186 
L 144.830011 192.441186 
L 144.830011 192.234537 
L 145.250457 192.234537 
L 145.250457 191.407942 
L 145.388435 191.407942 
L 145.388435 190.994645 
L 145.525356 190.994645 
L 145.525356 190.478023 
L 145.661236 190.478023 
L 145.661236 190.168049 
L 145.929935 190.064725 
L 145.929935 189.548103 
L 146.325555 189.444779 
L 146.325555 189.031481 
L 146.455505 189.031481 
L 146.455505 188.721508 
L 146.584518 188.721508 
L 146.584518 188.30821 
L 146.712605 188.30821 
L 146.712605 187.998237 
L 146.839781 187.998237 
L 146.839781 187.584939 
L 146.966058 187.584939 
L 146.966058 186.345047 
L 147.705534 186.345047 
L 147.705534 185.828425 
L 147.825858 185.828425 
L 147.825858 185.001829 
L 147.945378 185.001829 
L 147.945378 184.79518 
L 148.064103 184.79518 
L 148.064103 184.588532 
L 148.182045 184.588532 
L 148.182045 184.381883 
L 148.299213 184.381883 
L 148.299213 184.175234 
L 148.415618 184.175234 
L 148.415618 183.968585 
L 148.53127 183.968585 
L 148.53127 183.761936 
L 148.646178 183.761936 
L 148.646178 182.728692 
L 148.760352 182.728692 
L 148.760352 182.522044 
L 148.8738 182.522044 
L 148.8738 182.108746 
L 148.986533 182.108746 
L 148.986533 181.695448 
L 149.098559 181.695448 
L 149.098559 181.4888 
L 149.320526 181.4888 
L 149.320526 180.765529 
L 149.648391 180.765529 
L 149.756356 180.248907 
L 150.181807 180.248907 
L 150.286606 179.112338 
L 150.597364 179.009014 
L 150.597364 178.182419 
L 151.003475 178.182419 
L 151.103576 177.355823 
L 151.20312 177.355823 
L 151.20312 176.942526 
L 151.40056 176.942526 
L 151.498468 176.012606 
L 151.789013 176.012606 
L 151.884821 175.39266 
L 152.074909 175.289335 
L 152.074909 175.186011 
L 152.633333 175.082687 
L 152.72473 173.532821 
L 152.906134 173.532821 
L 152.906134 173.016199 
L 153.43955 172.912874 
L 153.43955 172.499577 
L 153.613874 172.499577 
L 153.700403 171.363008 
L 154.042387 171.363008 
L 154.12687 171.053035 
L 154.210955 171.053035 
L 154.294647 170.639737 
L 154.543395 170.536413 
L 154.625547 170.22644 
L 154.788728 170.123115 
L 154.788728 170.019791 
L 155.190275 170.019791 
L 155.269513 169.193196 
L 155.582997 169.089871 
L 155.582997 168.676574 
L 155.7377 168.676574 
L 155.814552 167.436681 
L 156.193932 167.436681 
L 156.193932 167.126708 
L 156.711885 167.126708 
L 156.711885 166.816734 
L 156.929349 166.816734 
L 156.929349 165.886815 
L 157.072869 165.886815 
L 157.072869 165.680166 
L 157.635691 165.680166 
L 157.635691 165.266868 
L 158.181325 165.266868 
L 158.181325 164.853571 
L 159.16154 164.853571 
L 159.16154 164.543597 
L 159.288265 164.543597 
L 159.288265 164.233624 
L 159.84766 164.233624 
L 159.84766 163.923651 
L 160.330612 163.923651 
L 160.330612 163.717002 
L 166.679881 163.613678 
L 166.679881 163.510353 
L 167.133306 163.510353 
L 167.133306 163.303705 
L 167.335665 163.303705 
L 167.415972 162.890407 
L 167.535758 162.787083 
L 167.615172 162.063812 
L 167.733635 162.063812 
L 167.812177 161.650514 
L 168.390483 161.54719 
L 168.390483 161.443865 
L 168.541589 161.443865 
L 168.541589 161.133892 
L 168.691427 161.133892 
L 168.765878 160.823919 
L 168.802987 160.823919 
L 168.913855 160.203973 
L 169.024039 160.100648 
L 169.133547 159.480702 
L 169.206182 159.480702 
L 169.206182 159.274053 
L 169.671244 159.274053 
L 169.776869 158.757431 
L 169.84694 158.757431 
L 169.84694 158.550782 
L 170.329892 158.550782 
L 170.397831 158.03416 
L 170.499259 157.930836 
L 170.600114 157.000916 
L 170.899308 157.000916 
L 170.899308 156.587618 
L 171.128599 156.587618 
L 171.128599 156.38097 
L 171.387094 156.277645 
L 171.451137 156.070996 
L 171.70504 155.967672 
L 171.70504 155.761023 
L 171.830651 155.761023 
L 171.861917 155.45105 
L 172.171597 155.347726 
L 172.171597 154.417806 
L 172.834571 154.314482 
L 172.834571 154.107833 
L 172.952513 154.107833 
L 173.040461 153.487886 
L 173.644269 153.487886 
L 173.644269 153.074589 
L 173.813102 153.074589 
L 173.813102 152.764616 
L 174.090995 152.661291 
L 174.146058 152.144669 
L 174.553714 152.041345 
L 174.580563 151.524723 
L 175.030932 151.524723 
L 175.030932 151.318074 
L 175.290648 151.214749 
L 175.290648 151.008101 
L 178.727971 150.904776 
L 178.727971 150.801452 
L 178.960439 150.801452 
L 179.065115 150.078181 
L 179.252 149.974857 
L 179.272645 149.664883 
L 179.457383 149.561559 
L 179.457383 149.458235 
L 179.660432 149.35491 
L 179.74101 148.734964 
L 179.980586 148.631639 
L 180.079469 147.70172 
L 180.177808 147.70172 
L 180.177808 147.288422 
L 180.546636 147.185098 
L 180.604182 146.668476 
L 180.756739 146.668476 
L 180.775717 146.358503 
L 180.908004 146.358503 
L 180.908004 146.151854 
L 181.243741 146.048529 
L 181.335892 145.325259 
L 181.500576 145.221934 
L 181.518781 144.395339 
L 181.985713 144.292014 
L 181.985713 143.878717 
L 182.406159 143.775392 
L 182.509743 143.362095 
L 182.681059 143.362095 
L 182.715126 142.638824 
L 182.850748 142.638824 
L 182.850748 142.432175 
L 182.985348 142.432175 
L 182.985348 141.915553 
L 183.415926 141.812229 
L 183.415926 141.60558 
L 185.787557 141.502256 
L 185.787557 141.398931 
L 186.128183 141.295607 
L 186.142236 140.882309 
L 186.36559 140.778985 
L 186.434819 140.159038 
L 186.613571 140.055714 
L 186.681848 139.435768 
L 186.898598 139.332443 
L 186.938948 138.195875 
L 187.1924 138.09255 
L 187.298051 137.369279 
L 187.442308 137.265955 
L 187.48145 136.542684 
L 187.62424 136.542684 
L 187.714515 135.50944 
L 187.957275 135.50944 
L 187.957275 135.302791 
L 188.184255 135.302791 
L 188.259279 134.786169 
L 188.333989 134.786169 
L 188.333989 134.372872 
L 188.457815 134.372872 
L 188.457815 133.85625 
L 188.678564 133.752925 
L 188.678564 133.442952 
L 188.992683 133.339628 
L 189.088235 132.92633 
L 191.017226 132.823006 
L 191.102566 132.616357 
L 191.208671 132.513033 
L 191.208671 132.409708 
L 191.345673 132.409708 
L 191.439909 131.583113 
L 191.585517 131.583113 
L 191.6785 130.859842 
L 191.760747 130.859842 
L 191.832404 130.34322 
L 192.055758 130.239896 
L 192.166397 129.723274 
L 192.266387 129.619949 
L 192.266387 129.516625 
L 192.454839 129.4133 
L 192.454839 129.206652 
L 192.660842 129.103327 
L 192.719267 128.586705 
L 192.787188 128.586705 
L 192.835546 127.966759 
L 192.989416 127.966759 
L 192.989416 127.656786 
L 193.132476 127.656786 
L 193.151465 127.140164 
L 195.006519 127.036839 
L 195.023618 126.83019 
L 195.151339 126.83019 
L 195.19371 126.313568 
L 195.328628 126.210244 
L 195.370582 125.693622 
L 195.454195 125.693622 
L 195.512493 125.073676 
L 195.578886 125.073676 
L 195.686252 124.763702 
L 195.694484 124.763702 
L 195.78479 124.24708 
L 195.996442 124.143756 
L 196.069126 123.833783 
L 196.237581 123.833783 
L 196.317243 122.800539 
L 196.451858 122.697214 
L 196.459745 122.180592 
L 196.593295 122.077268 
L 196.663596 121.870619 
L 198.08661 121.767295 
L 198.165625 120.940699 
L 198.258558 120.940699 
L 198.294174 120.424077 
L 198.421803 120.320753 
L 198.513417 119.597482 
L 198.562553 119.597482 
L 198.604563 119.184185 
L 198.716108 119.184185 
L 198.792394 118.150941 
L 198.991963 118.047616 
L 199.09432 117.634319 
L 199.175786 117.530994 
L 199.243391 116.704399 
L 199.36444 116.601074 
L 199.36444 116.187777 
L 199.54449 116.084452 
L 199.577635 115.877804 
L 200.688132 115.774479 
L 200.688132 115.671155 
L 200.812173 115.671155 
L 200.904642 115.051208 
L 201.021087 115.051208 
L 201.063798 114.637911 
L 201.167099 114.637911 
L 201.275831 114.017964 
L 201.293888 113.91464 
L 201.365937 113.294694 
L 201.497277 113.191369 
L 201.568512 112.881396 
L 201.7395 112.778072 
L 201.815622 112.468098 
L 201.961105 112.468098 
L 202.059361 111.744828 
L 203.127684 111.641503 
L 203.225147 111.124881 
L 203.332819 111.021557 
L 203.439846 110.194961 
L 203.551539 110.091637 
L 203.615051 109.678339 
L 203.751892 109.575015 
L 203.846017 108.955069 
L 203.877283 108.955069 
L 203.970752 108.231798 
L 204.140852 108.128473 
L 204.217638 107.715176 
L 205.249732 107.715176 
L 205.341104 107.301878 
L 205.365072 107.301878 
L 205.455858 106.681932 
L 205.560406 106.578607 
L 205.659634 105.545363 
L 205.772367 105.442039 
L 205.847129 104.925417 
L 205.92158 104.822093 
L 206.004968 104.305471 
L 206.083367 104.202146 
L 206.124734 103.788849 
L 207.081145 103.685524 
L 207.185282 103.065578 
L 207.284514 102.962253 
L 207.357506 102.548956 
L 207.53233 102.445631 
L 207.621216 102.238982 
L 207.697053 102.135658 
L 207.764195 101.72236 
L 208.674635 101.619036 
L 208.761991 101.205738 
L 208.825255 101.102414 
L 208.911879 100.585792 
L 208.986354 100.482468 
L 209.041032 99.965846 
L 209.17313 99.862521 
L 209.258088 99.449224 
L 209.361805 99.345899 
L 209.468732 98.932602 
L 210.207127 98.829277 
L 210.280043 98.209331 
L 210.338163 98.106006 
L 210.41777 97.279411 
L 210.48264 97.176087 
L 210.532932 96.762789 
L 210.629526 96.659465 
L 210.714952 96.246167 
L 210.895136 96.142843 
L 210.930254 95.832869 
L 211.611748 95.832869 
L 211.672432 95.419572 
L 211.739618 95.316247 
L 211.742971 95.006274 
L 211.916449 95.006274 
L 212.002561 94.283003 
L 212.081682 94.283003 
L 212.101407 93.869706 
L 212.297475 93.766381 
L 212.297475 93.559733 
L 212.913953 93.456408 
L 212.970379 93.043111 
L 213.035985 92.939786 
L 213.095135 92.733137 
L 213.277575 92.629813 
L 213.277575 92.526489 
L 213.400212 92.526489 
L 213.506833 91.906542 
L 213.552333 91.803218 
L 213.552333 91.699893 
L 214.171617 91.596569 
L 214.250454 91.183271 
L 214.352134 91.079947 
L 214.412866 90.460001 
L 214.536581 90.356676 
L 214.553775 90.150027 
L 215.305401 90.150027 
L 215.382136 89.530081 
L 215.474872 89.426756 
L 215.483032 89.116783 
L 215.664298 89.013459 
L 215.73951 88.703486 
L 215.78502 88.703486 
L 215.78502 88.496837 
L 216.371516 88.496837 
L 216.482427 87.87689 
L 216.538906 87.773566 
L 216.584985 87.566917 
L 216.709821 87.463593 
L 216.735191 87.050295 
L 217.377587 86.946971 
L 217.436187 86.636998 
L 217.62532 86.533673 
L 217.697534 86.120376 
L 218.295202 86.017051 
L 218.385579 85.603754 
L 218.429445 85.603754 
L 218.521442 84.880483 
L 218.633497 84.777158 
L 218.731255 84.57051 
L 219.234237 84.57051 
L 219.287063 84.053888 
L 219.477255 83.950563 
L 219.566189 83.743914 
L 220.134764 83.64059 
L 220.205885 83.123968 
L 220.964083 83.020643 
L 221.022015 82.607346 
L 221.135338 82.504021 
L 221.178885 82.297373 
L 221.737461 82.194048 
L 221.825387 81.987399 
L 221.952685 81.884075 
L 221.952685 81.677426 
L 222.487938 81.574102 
L 222.592361 81.05748 
L 222.654359 80.954155 
L 222.694361 80.644182 
L 223.1746 80.540858 
L 223.216983 80.334209 
L 223.359289 80.230885 
L 223.427405 79.817587 
L 223.958104 79.714263 
L 223.958104 79.610938 
L 224.166716 79.507614 
L 224.166716 79.404289 
L 224.566963 79.300965 
L 224.659945 78.887667 
L 224.750828 78.887667 
L 224.750828 78.681019 
L 225.386884 78.577694 
L 225.480369 78.371045 
L 225.837313 78.267721 
L 225.926961 77.957748 
L 226.001075 77.854423 
L 226.001075 77.751099 
L 226.555388 77.647775 
L 226.609447 77.234477 
L 227.073132 77.131153 
L 227.131318 76.511206 
L 227.54448 76.511206 
L 227.577677 76.097908 
L 227.785136 75.994584 
L 227.787868 75.684611 
L 228.093892 75.581286 
L 228.122063 75.374638 
L 228.619093 75.271313 
L 228.652956 75.064664 
L 228.845791 74.96134 
L 228.845791 74.858016 
L 229.662265 74.754691 
L 229.662265 74.651367 
L 229.818983 74.548042 
L 229.818983 74.444718 
L 230.250141 74.341394 
L 230.276301 74.134745 
L 231.03582 74.03142 
L 231.080176 73.824772 
L 231.940602 73.721447 
L 231.940602 73.618123 
L 232.57023 73.514798 
L 232.57023 73.411474 
L 233.215759 73.30815 
L 233.215759 73.204825 
L 233.697071 73.101501 
L 233.697071 72.998176 
L 234.80045 72.894852 
L 234.80045 72.791528 
L 235.452544 72.688203 
L 235.452544 72.584879 
L 237.179715 72.481554 
L 237.179715 72.37823 
L 237.795535 72.274906 
L 237.881913 72.068257 
L 238.153867 72.068257 
L 238.185187 71.758284 
L 239.049305 71.654959 
L 239.049305 71.551635 
L 240.405806 71.44831 
L 240.505957 71.138337 
L 242.212748 71.035013 
L 242.212748 70.931688 
L 358.8 70.931688 
L 358.8 70.931688 
" style="fill:none;stroke:#ff00ff;stroke-linecap:square;stroke-width:1.5;"/>
   </g>
   <g id="line2d_52">
    <defs>
     <path d="M -0 8.485281 
L 5.091169 0 
L 0 -8.485281 
L -5.091169 -0 
z
" id="m951ca41441" style="stroke:#ff00ff;stroke-linejoin:miter;stroke-width:1.5;"/>
    </defs>
    <g>
     <use style="fill:none;stroke:#ff00ff;stroke-linejoin:miter;stroke-width:1.5;" x="111.026343" xlink:href="#m951ca41441" y="228.501403"/>
     <use style="fill:none;stroke:#ff00ff;stroke-linejoin:miter;stroke-width:1.5;" x="154.460863" xlink:href="#m951ca41441" y="170.639737"/>
     <use style="fill:none;stroke:#ff00ff;stroke-linejoin:miter;stroke-width:1.5;" x="198.036146" xlink:href="#m951ca41441" y="121.767295"/>
     <use style="fill:none;stroke:#ff00ff;stroke-linejoin:miter;stroke-width:1.5;" x="242.212748" xlink:href="#m951ca41441" y="71.035013"/>
     <use style="fill:none;stroke:#ff00ff;stroke-linejoin:miter;stroke-width:1.5;" x="242.212748" xlink:href="#m951ca41441" y="70.931688"/>
     <use style="fill:none;stroke:#ff00ff;stroke-linejoin:miter;stroke-width:1.5;" x="358.8" xlink:href="#m951ca41441" y="70.931688"/>
    </g>
   </g>
   <g id="line2d_53"/>
   <g id="line2d_54">
    <path clip-path="url(#p270bccd0e2)" d="M 165.470948 163.717002 
" style="fill:none;stroke:#ff00ff;stroke-linecap:square;stroke-width:1.5;"/>
    <defs>
     <path d="M -12 12 
L 12 -12 
M -12 -12 
L 12 12 
" id="mda0e3bf392" style="stroke:#ff00ff;stroke-width:3;"/>
    </defs>
    <g clip-path="url(#p270bccd0e2)">
     <use style="fill:#ff00ff;stroke:#ff00ff;stroke-width:3;" x="165.470948" xlink:href="#mda0e3bf392" y="163.717002"/>
    </g>
   </g>
   <g id="line2d_55">
    <path d="M 358.8 245.549929 
L 390.48 292.97583 
" style="fill:none;stroke:#000080;stroke-linecap:square;stroke-width:1.5;"/>
    <g>
     <use style="fill:none;stroke:#000080;stroke-width:1.5;" x="358.8" xlink:href="#m34601a56e7" y="245.549929"/>
     <use style="fill:none;stroke:#000080;stroke-width:1.5;" x="390.48" xlink:href="#m34601a56e7" y="292.97583"/>
    </g>
   </g>
   <g id="line2d_56">
    <path d="M 358.8 70.931688 
L 390.48 166.506761 
" style="fill:none;stroke:#ff00ff;stroke-linecap:square;stroke-width:1.5;"/>
    <g>
     <use style="fill:none;stroke:#ff00ff;stroke-linejoin:miter;stroke-width:1.5;" x="358.8" xlink:href="#m951ca41441" y="70.931688"/>
     <use style="fill:none;stroke:#ff00ff;stroke-linejoin:miter;stroke-width:1.5;" x="390.48" xlink:href="#m951ca41441" y="166.506761"/>
    </g>
   </g>
   <g id="line2d_57">
    <path d="M 358.8 298.245375 
L 358.8 34.768147 
" style="fill:none;stroke:#000000;stroke-linecap:square;stroke-width:1.5;"/>
   </g>
   <g id="patch_3">
    <path d="M 70.8 298.245375 
L 70.8 32.133375 
" style="fill:none;stroke:#000000;stroke-linecap:square;stroke-linejoin:miter;stroke-width:0.8;"/>
   </g>
   <g id="patch_4">
    <path d="M 427.92 298.245375 
L 427.92 32.133375 
" style="fill:none;stroke:#000000;stroke-linecap:square;stroke-linejoin:miter;stroke-width:0.8;"/>
   </g>
   <g id="patch_5">
    <path d="M 70.8 298.245375 
L 427.92 298.245375 
" style="fill:none;stroke:#000000;stroke-linecap:square;stroke-linejoin:miter;stroke-width:0.8;"/>
   </g>
   <g id="patch_6">
    <path d="M 70.8 32.133375 
L 427.92 32.133375 
" style="fill:none;stroke:#000000;stroke-linecap:square;stroke-linejoin:miter;stroke-width:0.8;"/>
   </g>
   <g id="text_14">
    <!-- teste -->
    <g transform="translate(396.24 297.114893)scale(0.15 -0.15)">
     <use xlink:href="#DejaVuSans-74"/>
     <use x="39.208984" xlink:href="#DejaVuSans-65"/>
     <use x="100.732422" xlink:href="#DejaVuSans-73"/>
     <use x="152.832031" xlink:href="#DejaVuSans-74"/>
     <use x="192.041016" xlink:href="#DejaVuSans-65"/>
    </g>
   </g>
   <g id="text_15">
    <!-- deapbbob -->
    <defs>
     <path d="M 48.6875 27.296875 
Q 48.6875 37.203125 44.609375 42.84375 
Q 40.53125 48.484375 33.40625 48.484375 
Q 26.265625 48.484375 22.1875 42.84375 
Q 18.109375 37.203125 18.109375 27.296875 
Q 18.109375 17.390625 22.1875 11.75 
Q 26.265625 6.109375 33.40625 6.109375 
Q 40.53125 6.109375 44.609375 11.75 
Q 48.6875 17.390625 48.6875 27.296875 
M 18.109375 46.390625 
Q 20.953125 51.265625 25.265625 53.625 
Q 29.59375 56 35.59375 56 
Q 45.5625 56 51.78125 48.09375 
Q 58.015625 40.1875 58.015625 27.296875 
Q 58.015625 14.40625 51.78125 6.484375 
Q 45.5625 -1.421875 35.59375 -1.421875 
Q 29.59375 -1.421875 25.265625 0.953125 
Q 20.953125 3.328125 18.109375 8.203125 
L 18.109375 0 
L 9.078125 0 
L 9.078125 75.984375 
L 18.109375 75.984375 
z
" id="DejaVuSans-62"/>
    </defs>
    <g transform="translate(396.24 170.645824)scale(0.15 -0.15)">
     <use xlink:href="#DejaVuSans-64"/>
     <use x="63.476562" xlink:href="#DejaVuSans-65"/>
     <use x="125" xlink:href="#DejaVuSans-61"/>
     <use x="186.279297" xlink:href="#DejaVuSans-70"/>
     <use x="249.755859" xlink:href="#DejaVuSans-62"/>
     <use x="313.232422" xlink:href="#DejaVuSans-62"/>
     <use x="376.708984" xlink:href="#DejaVuSans-6f"/>
     <use x="437.890625" xlink:href="#DejaVuSans-62"/>
    </g>
   </g>
   <g id="text_16">
    <!-- best 2009 -->
    <defs>
     <path d="M 10.984375 1.515625 
L 10.984375 10.5 
Q 14.703125 8.734375 18.5 7.8125 
Q 22.3125 6.890625 25.984375 6.890625 
Q 35.75 6.890625 40.890625 13.453125 
Q 46.046875 20.015625 46.78125 33.40625 
Q 43.953125 29.203125 39.59375 26.953125 
Q 35.25 24.703125 29.984375 24.703125 
Q 19.046875 24.703125 12.671875 31.3125 
Q 6.296875 37.9375 6.296875 49.421875 
Q 6.296875 60.640625 12.9375 67.421875 
Q 19.578125 74.21875 30.609375 74.21875 
Q 43.265625 74.21875 49.921875 64.515625 
Q 56.59375 54.828125 56.59375 36.375 
Q 56.59375 19.140625 48.40625 8.859375 
Q 40.234375 -1.421875 26.421875 -1.421875 
Q 22.703125 -1.421875 18.890625 -0.6875 
Q 15.09375 0.046875 10.984375 1.515625 
M 30.609375 32.421875 
Q 37.25 32.421875 41.125 36.953125 
Q 45.015625 41.5 45.015625 49.421875 
Q 45.015625 57.28125 41.125 61.84375 
Q 37.25 66.40625 30.609375 66.40625 
Q 23.96875 66.40625 20.09375 61.84375 
Q 16.21875 57.28125 16.21875 49.421875 
Q 16.21875 41.5 20.09375 36.953125 
Q 23.96875 32.421875 30.609375 32.421875 
" id="DejaVuSans-39"/>
    </defs>
    <g transform="translate(396.24 44.176754)scale(0.15 -0.15)">
     <use xlink:href="#DejaVuSans-62"/>
     <use x="63.476562" xlink:href="#DejaVuSans-65"/>
     <use x="125" xlink:href="#DejaVuSans-73"/>
     <use x="177.099609" xlink:href="#DejaVuSans-74"/>
     <use x="216.308594" xlink:href="#DejaVuSans-20"/>
     <use x="248.095703" xlink:href="#DejaVuSans-32"/>
     <use x="311.71875" xlink:href="#DejaVuSans-30"/>
     <use x="375.341797" xlink:href="#DejaVuSans-30"/>
     <use x="438.964844" xlink:href="#DejaVuSans-39"/>
    </g>
   </g>
   <g id="text_17">
    <!-- bbob - f1-f5, 2-D -->
    <defs>
     <path d="M 10.796875 72.90625 
L 49.515625 72.90625 
L 49.515625 64.59375 
L 19.828125 64.59375 
L 19.828125 46.734375 
Q 21.96875 47.46875 24.109375 47.828125 
Q 26.265625 48.1875 28.421875 48.1875 
Q 40.625 48.1875 47.75 41.5 
Q 54.890625 34.8125 54.890625 23.390625 
Q 54.890625 11.625 47.5625 5.09375 
Q 40.234375 -1.421875 26.90625 -1.421875 
Q 22.3125 -1.421875 17.546875 -0.640625 
Q 12.796875 0.140625 7.71875 1.703125 
L 7.71875 11.625 
Q 12.109375 9.234375 16.796875 8.0625 
Q 21.484375 6.890625 26.703125 6.890625 
Q 35.15625 6.890625 40.078125 11.328125 
Q 45.015625 15.765625 45.015625 23.390625 
Q 45.015625 31 40.078125 35.4375 
Q 35.15625 39.890625 26.703125 39.890625 
Q 22.75 39.890625 18.8125 39.015625 
Q 14.890625 38.140625 10.796875 36.28125 
z
" id="DejaVuSans-35"/>
     <path d="M 11.71875 12.40625 
L 22.015625 12.40625 
L 22.015625 4 
L 14.015625 -11.625 
L 7.71875 -11.625 
L 11.71875 4 
z
" id="DejaVuSans-2c"/>
     <path d="M 19.671875 64.796875 
L 19.671875 8.109375 
L 31.59375 8.109375 
Q 46.6875 8.109375 53.6875 14.9375 
Q 60.6875 21.78125 60.6875 36.53125 
Q 60.6875 51.171875 53.6875 57.984375 
Q 46.6875 64.796875 31.59375 64.796875 
z
M 9.8125 72.90625 
L 30.078125 72.90625 
Q 51.265625 72.90625 61.171875 64.09375 
Q 71.09375 55.28125 71.09375 36.53125 
Q 71.09375 17.671875 61.125 8.828125 
Q 51.171875 0 30.078125 0 
L 9.8125 0 
z
" id="DejaVuSans-44"/>
    </defs>
    <g transform="translate(74.3712 50.114612)scale(0.1666 -0.1666)">
     <use xlink:href="#DejaVuSans-62"/>
     <use x="63.476562" xlink:href="#DejaVuSans-62"/>
     <use x="126.953125" xlink:href="#DejaVuSans-6f"/>
     <use x="188.134766" xlink:href="#DejaVuSans-62"/>
     <use x="251.611328" xlink:href="#DejaVuSans-20"/>
     <use x="283.398438" xlink:href="#DejaVuSans-2d"/>
     <use x="319.482422" xlink:href="#DejaVuSans-20"/>
     <use x="351.269531" xlink:href="#DejaVuSans-66"/>
     <use x="386.474609" xlink:href="#DejaVuSans-31"/>
     <use x="450.097656" xlink:href="#DejaVuSans-2d"/>
     <use x="486.181641" xlink:href="#DejaVuSans-66"/>
     <use x="521.386719" xlink:href="#DejaVuSans-35"/>
     <use x="585.009766" xlink:href="#DejaVuSans-2c"/>
     <use x="616.796875" xlink:href="#DejaVuSans-20"/>
     <use x="648.583984" xlink:href="#DejaVuSans-32"/>
     <use x="712.207031" xlink:href="#DejaVuSans-2d"/>
     <use x="748.291016" xlink:href="#DejaVuSans-44"/>
    </g>
    <!-- 51 targets in 100..1e-08 -->
    <g transform="translate(74.3712 68.770168)scale(0.1666 -0.1666)">
     <use xlink:href="#DejaVuSans-35"/>
     <use x="63.623047" xlink:href="#DejaVuSans-31"/>
     <use x="127.246094" xlink:href="#DejaVuSans-20"/>
     <use x="159.033203" xlink:href="#DejaVuSans-74"/>
     <use x="198.242188" xlink:href="#DejaVuSans-61"/>
     <use x="259.521484" xlink:href="#DejaVuSans-72"/>
     <use x="300.619141" xlink:href="#DejaVuSans-67"/>
     <use x="364.095703" xlink:href="#DejaVuSans-65"/>
     <use x="425.619141" xlink:href="#DejaVuSans-74"/>
     <use x="464.828125" xlink:href="#DejaVuSans-73"/>
     <use x="516.927734" xlink:href="#DejaVuSans-20"/>
     <use x="548.714844" xlink:href="#DejaVuSans-69"/>
     <use x="576.498047" xlink:href="#DejaVuSans-6e"/>
     <use x="639.876953" xlink:href="#DejaVuSans-20"/>
     <use x="671.664062" xlink:href="#DejaVuSans-31"/>
     <use x="735.287109" xlink:href="#DejaVuSans-30"/>
     <use x="798.910156" xlink:href="#DejaVuSans-30"/>
     <use x="862.533203" xlink:href="#DejaVuSans-2e"/>
     <use x="894.320312" xlink:href="#DejaVuSans-2e"/>
     <use x="926.107422" xlink:href="#DejaVuSans-31"/>
     <use x="989.730469" xlink:href="#DejaVuSans-65"/>
     <use x="1051.253906" xlink:href="#DejaVuSans-2d"/>
     <use x="1087.337891" xlink:href="#DejaVuSans-30"/>
     <use x="1150.960938" xlink:href="#DejaVuSans-38"/>
    </g>
    <!-- 15 instances -->
    <g transform="translate(74.3712 87.425723)scale(0.1666 -0.1666)">
     <use xlink:href="#DejaVuSans-31"/>
     <use x="63.623047" xlink:href="#DejaVuSans-35"/>
     <use x="127.246094" xlink:href="#DejaVuSans-20"/>
     <use x="159.033203" xlink:href="#DejaVuSans-69"/>
     <use x="186.816406" xlink:href="#DejaVuSans-6e"/>
     <use x="250.195312" xlink:href="#DejaVuSans-73"/>
     <use x="302.294922" xlink:href="#DejaVuSans-74"/>
     <use x="341.503906" xlink:href="#DejaVuSans-61"/>
     <use x="402.783203" xlink:href="#DejaVuSans-6e"/>
     <use x="466.162109" xlink:href="#DejaVuSans-63"/>
     <use x="521.142578" xlink:href="#DejaVuSans-65"/>
     <use x="582.666016" xlink:href="#DejaVuSans-73"/>
    </g>
   </g>
   <g id="text_18">
    <!-- v2.1 -->
    <g style="fill:#808080;" transform="translate(238.449063 293.504568)scale(0.1 -0.1)">
     <use xlink:href="#DejaVuSans-76"/>
     <use x="59.179688" xlink:href="#DejaVuSans-32"/>
     <use x="122.802734" xlink:href="#DejaVuSans-2e"/>
     <use x="154.589844" xlink:href="#DejaVuSans-31"/>
    </g>
   </g>
  </g>
 </g>
 <defs>
  <clipPath id="p270bccd0e2">
   <rect height="266.112" width="357.12" x="70.8" y="32.133375"/>
  </clipPath>
 </defs>
</svg>
