<?xml version="1.0" encoding="utf-8" standalone="no"?>
<!DOCTYPE svg PUBLIC "-//W3C//DTD SVG 1.1//EN"
  "http://www.w3.org/Graphics/SVG/1.1/DTD/svg11.dtd">
<!-- Created with matplotlib (http://matplotlib.org/) -->
<svg height="353pt" version="1.1" viewBox="0 0 439 353" width="439pt" xmlns="http://www.w3.org/2000/svg" xmlns:xlink="http://www.w3.org/1999/xlink">
 <defs>
  <style type="text/css">
*{stroke-linecap:butt;stroke-linejoin:round;}
  </style>
 </defs>
 <g id="figure_1">
  <g id="patch_1">
   <path d="M 0 353.22225 
L 439.489219 353.22225 
L 439.489219 0 
L 0 0 
z
" style="fill:#ffffff;"/>
  </g>
  <g id="axes_1">
   <g id="patch_2">
    <path d="M 70.8 298.245375 
L 427.92 298.245375 
L 427.92 32.133375 
L 70.8 32.133375 
z
" style="fill:#ffffff;"/>
   </g>
   <g id="matplotlib.axis_1">
    <g id="xtick_1">
     <g id="line2d_1">
      <path clip-path="url(#pa0d7405452)" d="M 70.8 298.245375 
L 70.8 32.133375 
" style="fill:none;stroke:#b0b0b0;stroke-linecap:square;stroke-width:0.8;"/>
     </g>
     <g id="line2d_2">
      <defs>
       <path d="M 0 0 
L 0 3.5 
" id="m373dc26513" style="stroke:#000000;stroke-width:0.8;"/>
      </defs>
      <g>
       <use style="stroke:#000000;stroke-width:0.8;" x="70.8" xlink:href="#m373dc26513" y="298.245375"/>
      </g>
     </g>
     <g id="text_1">
      <!-- 0 -->
      <defs>
       <path d="M 31.78125 66.40625 
Q 24.171875 66.40625 20.328125 58.90625 
Q 16.5 51.421875 16.5 36.375 
Q 16.5 21.390625 20.328125 13.890625 
Q 24.171875 6.390625 31.78125 6.390625 
Q 39.453125 6.390625 43.28125 13.890625 
Q 47.125 21.390625 47.125 36.375 
Q 47.125 51.421875 43.28125 58.90625 
Q 39.453125 66.40625 31.78125 66.40625 
M 31.78125 74.21875 
Q 44.046875 74.21875 50.515625 64.515625 
Q 56.984375 54.828125 56.984375 36.375 
Q 56.984375 17.96875 50.515625 8.265625 
Q 44.046875 -1.421875 31.78125 -1.421875 
Q 19.53125 -1.421875 13.0625 8.265625 
Q 6.59375 17.96875 6.59375 36.375 
Q 6.59375 54.828125 13.0625 64.515625 
Q 19.53125 74.21875 31.78125 74.21875 
" id="DejaVuSans-30"/>
      </defs>
      <g transform="translate(64.4375 320.44225)scale(0.2 -0.2)">
       <use xlink:href="#DejaVuSans-30"/>
      </g>
     </g>
    </g>
    <g id="xtick_2">
     <g id="line2d_3">
      <path clip-path="url(#pa0d7405452)" d="M 153.085714 298.245375 
L 153.085714 32.133375 
" style="fill:none;stroke:#b0b0b0;stroke-linecap:square;stroke-width:0.8;"/>
     </g>
     <g id="line2d_4">
      <g>
       <use style="stroke:#000000;stroke-width:0.8;" x="153.085714" xlink:href="#m373dc26513" y="298.245375"/>
      </g>
     </g>
     <g id="text_2">
      <!-- 2 -->
      <defs>
       <path d="M 19.1875 8.296875 
L 53.609375 8.296875 
L 53.609375 0 
L 7.328125 0 
L 7.328125 8.296875 
Q 12.9375 14.109375 22.625 23.890625 
Q 32.328125 33.6875 34.8125 36.53125 
Q 39.546875 41.84375 41.421875 45.53125 
Q 43.3125 49.21875 43.3125 52.78125 
Q 43.3125 58.59375 39.234375 62.25 
Q 35.15625 65.921875 28.609375 65.921875 
Q 23.96875 65.921875 18.8125 64.3125 
Q 13.671875 62.703125 7.8125 59.421875 
L 7.8125 69.390625 
Q 13.765625 71.78125 18.9375 73 
Q 24.125 74.21875 28.421875 74.21875 
Q 39.75 74.21875 46.484375 68.546875 
Q 53.21875 62.890625 53.21875 53.421875 
Q 53.21875 48.921875 51.53125 44.890625 
Q 49.859375 40.875 45.40625 35.40625 
Q 44.1875 33.984375 37.640625 27.21875 
Q 31.109375 20.453125 19.1875 8.296875 
" id="DejaVuSans-32"/>
      </defs>
      <g transform="translate(146.723214 320.44225)scale(0.2 -0.2)">
       <use xlink:href="#DejaVuSans-32"/>
      </g>
     </g>
    </g>
    <g id="xtick_3">
     <g id="line2d_5">
      <path clip-path="url(#pa0d7405452)" d="M 235.371429 298.245375 
L 235.371429 32.133375 
" style="fill:none;stroke:#b0b0b0;stroke-linecap:square;stroke-width:0.8;"/>
     </g>
     <g id="line2d_6">
      <g>
       <use style="stroke:#000000;stroke-width:0.8;" x="235.371429" xlink:href="#m373dc26513" y="298.245375"/>
      </g>
     </g>
     <g id="text_3">
      <!-- 4 -->
      <defs>
       <path d="M 37.796875 64.3125 
L 12.890625 25.390625 
L 37.796875 25.390625 
z
M 35.203125 72.90625 
L 47.609375 72.90625 
L 47.609375 25.390625 
L 58.015625 25.390625 
L 58.015625 17.1875 
L 47.609375 17.1875 
L 47.609375 0 
L 37.796875 0 
L 37.796875 17.1875 
L 4.890625 17.1875 
L 4.890625 26.703125 
z
" id="DejaVuSans-34"/>
      </defs>
      <g transform="translate(229.008929 320.44225)scale(0.2 -0.2)">
       <use xlink:href="#DejaVuSans-34"/>
      </g>
     </g>
    </g>
    <g id="xtick_4">
     <g id="line2d_7">
      <path clip-path="url(#pa0d7405452)" d="M 317.657143 298.245375 
L 317.657143 32.133375 
" style="fill:none;stroke:#b0b0b0;stroke-linecap:square;stroke-width:0.8;"/>
     </g>
     <g id="line2d_8">
      <g>
       <use style="stroke:#000000;stroke-width:0.8;" x="317.657143" xlink:href="#m373dc26513" y="298.245375"/>
      </g>
     </g>
     <g id="text_4">
      <!-- 6 -->
      <defs>
       <path d="M 33.015625 40.375 
Q 26.375 40.375 22.484375 35.828125 
Q 18.609375 31.296875 18.609375 23.390625 
Q 18.609375 15.53125 22.484375 10.953125 
Q 26.375 6.390625 33.015625 6.390625 
Q 39.65625 6.390625 43.53125 10.953125 
Q 47.40625 15.53125 47.40625 23.390625 
Q 47.40625 31.296875 43.53125 35.828125 
Q 39.65625 40.375 33.015625 40.375 
M 52.59375 71.296875 
L 52.59375 62.3125 
Q 48.875 64.0625 45.09375 64.984375 
Q 41.3125 65.921875 37.59375 65.921875 
Q 27.828125 65.921875 22.671875 59.328125 
Q 17.53125 52.734375 16.796875 39.40625 
Q 19.671875 43.65625 24.015625 45.921875 
Q 28.375 48.1875 33.59375 48.1875 
Q 44.578125 48.1875 50.953125 41.515625 
Q 57.328125 34.859375 57.328125 23.390625 
Q 57.328125 12.15625 50.6875 5.359375 
Q 44.046875 -1.421875 33.015625 -1.421875 
Q 20.359375 -1.421875 13.671875 8.265625 
Q 6.984375 17.96875 6.984375 36.375 
Q 6.984375 53.65625 15.1875 63.9375 
Q 23.390625 74.21875 37.203125 74.21875 
Q 40.921875 74.21875 44.703125 73.484375 
Q 48.484375 72.75 52.59375 71.296875 
" id="DejaVuSans-36"/>
      </defs>
      <g transform="translate(311.294643 320.44225)scale(0.2 -0.2)">
       <use xlink:href="#DejaVuSans-36"/>
      </g>
     </g>
    </g>
    <g id="xtick_5">
     <g id="line2d_9">
      <path clip-path="url(#pa0d7405452)" d="M 399.942857 298.245375 
L 399.942857 32.133375 
" style="fill:none;stroke:#b0b0b0;stroke-linecap:square;stroke-width:0.8;"/>
     </g>
     <g id="line2d_10">
      <g>
       <use style="stroke:#000000;stroke-width:0.8;" x="399.942857" xlink:href="#m373dc26513" y="298.245375"/>
      </g>
     </g>
     <g id="text_5">
      <!-- 8 -->
      <defs>
       <path d="M 31.78125 34.625 
Q 24.75 34.625 20.71875 30.859375 
Q 16.703125 27.09375 16.703125 20.515625 
Q 16.703125 13.921875 20.71875 10.15625 
Q 24.75 6.390625 31.78125 6.390625 
Q 38.8125 6.390625 42.859375 10.171875 
Q 46.921875 13.96875 46.921875 20.515625 
Q 46.921875 27.09375 42.890625 30.859375 
Q 38.875 34.625 31.78125 34.625 
M 21.921875 38.8125 
Q 15.578125 40.375 12.03125 44.71875 
Q 8.5 49.078125 8.5 55.328125 
Q 8.5 64.0625 14.71875 69.140625 
Q 20.953125 74.21875 31.78125 74.21875 
Q 42.671875 74.21875 48.875 69.140625 
Q 55.078125 64.0625 55.078125 55.328125 
Q 55.078125 49.078125 51.53125 44.71875 
Q 48 40.375 41.703125 38.8125 
Q 48.828125 37.15625 52.796875 32.3125 
Q 56.78125 27.484375 56.78125 20.515625 
Q 56.78125 9.90625 50.3125 4.234375 
Q 43.84375 -1.421875 31.78125 -1.421875 
Q 19.734375 -1.421875 13.25 4.234375 
Q 6.78125 9.90625 6.78125 20.515625 
Q 6.78125 27.484375 10.78125 32.3125 
Q 14.796875 37.15625 21.921875 38.8125 
M 18.3125 54.390625 
Q 18.3125 48.734375 21.84375 45.5625 
Q 25.390625 42.390625 31.78125 42.390625 
Q 38.140625 42.390625 41.71875 45.5625 
Q 45.3125 48.734375 45.3125 54.390625 
Q 45.3125 60.0625 41.71875 63.234375 
Q 38.140625 66.40625 31.78125 66.40625 
Q 25.390625 66.40625 21.84375 63.234375 
Q 18.3125 60.0625 18.3125 54.390625 
" id="DejaVuSans-38"/>
      </defs>
      <g transform="translate(393.580357 320.44225)scale(0.2 -0.2)">
       <use xlink:href="#DejaVuSans-38"/>
      </g>
     </g>
    </g>
    <g id="xtick_6">
     <g id="line2d_11">
      <defs>
       <path d="M 0 0 
L 0 2 
" id="m62b98b1347" style="stroke:#000000;stroke-width:0.6;"/>
      </defs>
      <g>
       <use style="stroke:#000000;stroke-width:0.6;" x="83.185234" xlink:href="#m62b98b1347" y="298.245375"/>
      </g>
     </g>
    </g>
    <g id="xtick_7">
     <g id="line2d_12">
      <g>
       <use style="stroke:#000000;stroke-width:0.6;" x="95.570468" xlink:href="#m62b98b1347" y="298.245375"/>
      </g>
     </g>
    </g>
    <g id="xtick_8">
     <g id="line2d_13">
      <g>
       <use style="stroke:#000000;stroke-width:0.6;" x="102.815366" xlink:href="#m62b98b1347" y="298.245375"/>
      </g>
     </g>
    </g>
    <g id="xtick_9">
     <g id="line2d_14">
      <g>
       <use style="stroke:#000000;stroke-width:0.6;" x="107.955702" xlink:href="#m62b98b1347" y="298.245375"/>
      </g>
     </g>
    </g>
    <g id="xtick_10">
     <g id="line2d_15">
      <g>
       <use style="stroke:#000000;stroke-width:0.6;" x="165.470948" xlink:href="#m62b98b1347" y="298.245375"/>
      </g>
     </g>
    </g>
    <g id="xtick_11">
     <g id="line2d_16">
      <g>
       <use style="stroke:#000000;stroke-width:0.6;" x="177.856183" xlink:href="#m62b98b1347" y="298.245375"/>
      </g>
     </g>
    </g>
    <g id="xtick_12">
     <g id="line2d_17">
      <g>
       <use style="stroke:#000000;stroke-width:0.6;" x="185.10108" xlink:href="#m62b98b1347" y="298.245375"/>
      </g>
     </g>
    </g>
    <g id="xtick_13">
     <g id="line2d_18">
      <g>
       <use style="stroke:#000000;stroke-width:0.6;" x="190.241417" xlink:href="#m62b98b1347" y="298.245375"/>
      </g>
     </g>
    </g>
    <g id="xtick_14">
     <g id="line2d_19">
      <g>
       <use style="stroke:#000000;stroke-width:0.6;" x="247.756663" xlink:href="#m62b98b1347" y="298.245375"/>
      </g>
     </g>
    </g>
    <g id="xtick_15">
     <g id="line2d_20">
      <g>
       <use style="stroke:#000000;stroke-width:0.6;" x="260.141897" xlink:href="#m62b98b1347" y="298.245375"/>
      </g>
     </g>
    </g>
    <g id="xtick_16">
     <g id="line2d_21">
      <g>
       <use style="stroke:#000000;stroke-width:0.6;" x="267.386794" xlink:href="#m62b98b1347" y="298.245375"/>
      </g>
     </g>
    </g>
    <g id="xtick_17">
     <g id="line2d_22">
      <g>
       <use style="stroke:#000000;stroke-width:0.6;" x="272.527131" xlink:href="#m62b98b1347" y="298.245375"/>
      </g>
     </g>
    </g>
    <g id="xtick_18">
     <g id="line2d_23">
      <g>
       <use style="stroke:#000000;stroke-width:0.6;" x="330.042377" xlink:href="#m62b98b1347" y="298.245375"/>
      </g>
     </g>
    </g>
    <g id="xtick_19">
     <g id="line2d_24">
      <g>
       <use style="stroke:#000000;stroke-width:0.6;" x="342.427611" xlink:href="#m62b98b1347" y="298.245375"/>
      </g>
     </g>
    </g>
    <g id="xtick_20">
     <g id="line2d_25">
      <g>
       <use style="stroke:#000000;stroke-width:0.6;" x="349.672509" xlink:href="#m62b98b1347" y="298.245375"/>
      </g>
     </g>
    </g>
    <g id="xtick_21">
     <g id="line2d_26">
      <g>
       <use style="stroke:#000000;stroke-width:0.6;" x="354.812845" xlink:href="#m62b98b1347" y="298.245375"/>
      </g>
     </g>
    </g>
    <g id="xtick_22">
     <g id="line2d_27">
      <g>
       <use style="stroke:#000000;stroke-width:0.6;" x="412.328091" xlink:href="#m62b98b1347" y="298.245375"/>
      </g>
     </g>
    </g>
    <g id="xtick_23">
     <g id="line2d_28">
      <g>
       <use style="stroke:#000000;stroke-width:0.6;" x="424.713325" xlink:href="#m62b98b1347" y="298.245375"/>
      </g>
     </g>
    </g>
    <g id="text_6">
     <!-- log10 of (# f-evals / dimension) -->
     <defs>
      <path d="M 9.421875 75.984375 
L 18.40625 75.984375 
L 18.40625 0 
L 9.421875 0 
z
" id="DejaVuSans-6c"/>
      <path d="M 30.609375 48.390625 
Q 23.390625 48.390625 19.1875 42.75 
Q 14.984375 37.109375 14.984375 27.296875 
Q 14.984375 17.484375 19.15625 11.84375 
Q 23.34375 6.203125 30.609375 6.203125 
Q 37.796875 6.203125 41.984375 11.859375 
Q 46.1875 17.53125 46.1875 27.296875 
Q 46.1875 37.015625 41.984375 42.703125 
Q 37.796875 48.390625 30.609375 48.390625 
M 30.609375 56 
Q 42.328125 56 49.015625 48.375 
Q 55.71875 40.765625 55.71875 27.296875 
Q 55.71875 13.875 49.015625 6.21875 
Q 42.328125 -1.421875 30.609375 -1.421875 
Q 18.84375 -1.421875 12.171875 6.21875 
Q 5.515625 13.875 5.515625 27.296875 
Q 5.515625 40.765625 12.171875 48.375 
Q 18.84375 56 30.609375 56 
" id="DejaVuSans-6f"/>
      <path d="M 45.40625 27.984375 
Q 45.40625 37.75 41.375 43.109375 
Q 37.359375 48.484375 30.078125 48.484375 
Q 22.859375 48.484375 18.828125 43.109375 
Q 14.796875 37.75 14.796875 27.984375 
Q 14.796875 18.265625 18.828125 12.890625 
Q 22.859375 7.515625 30.078125 7.515625 
Q 37.359375 7.515625 41.375 12.890625 
Q 45.40625 18.265625 45.40625 27.984375 
M 54.390625 6.78125 
Q 54.390625 -7.171875 48.1875 -13.984375 
Q 42 -20.796875 29.203125 -20.796875 
Q 24.46875 -20.796875 20.265625 -20.09375 
Q 16.0625 -19.390625 12.109375 -17.921875 
L 12.109375 -9.1875 
Q 16.0625 -11.328125 19.921875 -12.34375 
Q 23.78125 -13.375 27.78125 -13.375 
Q 36.625 -13.375 41.015625 -8.765625 
Q 45.40625 -4.15625 45.40625 5.171875 
L 45.40625 9.625 
Q 42.625 4.78125 38.28125 2.390625 
Q 33.9375 0 27.875 0 
Q 17.828125 0 11.671875 7.65625 
Q 5.515625 15.328125 5.515625 27.984375 
Q 5.515625 40.671875 11.671875 48.328125 
Q 17.828125 56 27.875 56 
Q 33.9375 56 38.28125 53.609375 
Q 42.625 51.21875 45.40625 46.390625 
L 45.40625 54.6875 
L 54.390625 54.6875 
z
" id="DejaVuSans-67"/>
      <path d="M 12.40625 8.296875 
L 28.515625 8.296875 
L 28.515625 63.921875 
L 10.984375 60.40625 
L 10.984375 69.390625 
L 28.421875 72.90625 
L 38.28125 72.90625 
L 38.28125 8.296875 
L 54.390625 8.296875 
L 54.390625 0 
L 12.40625 0 
z
" id="DejaVuSans-31"/>
      <path id="DejaVuSans-20"/>
      <path d="M 37.109375 75.984375 
L 37.109375 68.5 
L 28.515625 68.5 
Q 23.6875 68.5 21.796875 66.546875 
Q 19.921875 64.59375 19.921875 59.515625 
L 19.921875 54.6875 
L 34.71875 54.6875 
L 34.71875 47.703125 
L 19.921875 47.703125 
L 19.921875 0 
L 10.890625 0 
L 10.890625 47.703125 
L 2.296875 47.703125 
L 2.296875 54.6875 
L 10.890625 54.6875 
L 10.890625 58.5 
Q 10.890625 67.625 15.140625 71.796875 
Q 19.390625 75.984375 28.609375 75.984375 
z
" id="DejaVuSans-66"/>
      <path d="M 31 75.875 
Q 24.46875 64.65625 21.28125 53.65625 
Q 18.109375 42.671875 18.109375 31.390625 
Q 18.109375 20.125 21.3125 9.0625 
Q 24.515625 -2 31 -13.1875 
L 23.1875 -13.1875 
Q 15.875 -1.703125 12.234375 9.375 
Q 8.59375 20.453125 8.59375 31.390625 
Q 8.59375 42.28125 12.203125 53.3125 
Q 15.828125 64.359375 23.1875 75.875 
z
" id="DejaVuSans-28"/>
      <path d="M 51.125 44 
L 36.921875 44 
L 32.8125 27.6875 
L 47.125 27.6875 
z
M 43.796875 71.78125 
L 38.71875 51.515625 
L 52.984375 51.515625 
L 58.109375 71.78125 
L 65.921875 71.78125 
L 60.890625 51.515625 
L 76.125 51.515625 
L 76.125 44 
L 58.984375 44 
L 54.984375 27.6875 
L 70.515625 27.6875 
L 70.515625 20.21875 
L 53.078125 20.21875 
L 48 0 
L 40.1875 0 
L 45.21875 20.21875 
L 30.90625 20.21875 
L 25.875 0 
L 18.015625 0 
L 23.09375 20.21875 
L 7.71875 20.21875 
L 7.71875 27.6875 
L 24.90625 27.6875 
L 29 44 
L 13.28125 44 
L 13.28125 51.515625 
L 30.90625 51.515625 
L 35.890625 71.78125 
z
" id="DejaVuSans-23"/>
      <path d="M 4.890625 31.390625 
L 31.203125 31.390625 
L 31.203125 23.390625 
L 4.890625 23.390625 
z
" id="DejaVuSans-2d"/>
      <path d="M 56.203125 29.59375 
L 56.203125 25.203125 
L 14.890625 25.203125 
Q 15.484375 15.921875 20.484375 11.0625 
Q 25.484375 6.203125 34.421875 6.203125 
Q 39.59375 6.203125 44.453125 7.46875 
Q 49.3125 8.734375 54.109375 11.28125 
L 54.109375 2.78125 
Q 49.265625 0.734375 44.1875 -0.34375 
Q 39.109375 -1.421875 33.890625 -1.421875 
Q 20.796875 -1.421875 13.15625 6.1875 
Q 5.515625 13.8125 5.515625 26.8125 
Q 5.515625 40.234375 12.765625 48.109375 
Q 20.015625 56 32.328125 56 
Q 43.359375 56 49.78125 48.890625 
Q 56.203125 41.796875 56.203125 29.59375 
M 47.21875 32.234375 
Q 47.125 39.59375 43.09375 43.984375 
Q 39.0625 48.390625 32.421875 48.390625 
Q 24.90625 48.390625 20.390625 44.140625 
Q 15.875 39.890625 15.1875 32.171875 
z
" id="DejaVuSans-65"/>
      <path d="M 2.984375 54.6875 
L 12.5 54.6875 
L 29.59375 8.796875 
L 46.6875 54.6875 
L 56.203125 54.6875 
L 35.6875 0 
L 23.484375 0 
z
" id="DejaVuSans-76"/>
      <path d="M 34.28125 27.484375 
Q 23.390625 27.484375 19.1875 25 
Q 14.984375 22.515625 14.984375 16.5 
Q 14.984375 11.71875 18.140625 8.90625 
Q 21.296875 6.109375 26.703125 6.109375 
Q 34.1875 6.109375 38.703125 11.40625 
Q 43.21875 16.703125 43.21875 25.484375 
L 43.21875 27.484375 
z
M 52.203125 31.203125 
L 52.203125 0 
L 43.21875 0 
L 43.21875 8.296875 
Q 40.140625 3.328125 35.546875 0.953125 
Q 30.953125 -1.421875 24.3125 -1.421875 
Q 15.921875 -1.421875 10.953125 3.296875 
Q 6 8.015625 6 15.921875 
Q 6 25.140625 12.171875 29.828125 
Q 18.359375 34.515625 30.609375 34.515625 
L 43.21875 34.515625 
L 43.21875 35.40625 
Q 43.21875 41.609375 39.140625 45 
Q 35.0625 48.390625 27.6875 48.390625 
Q 23 48.390625 18.546875 47.265625 
Q 14.109375 46.140625 10.015625 43.890625 
L 10.015625 52.203125 
Q 14.9375 54.109375 19.578125 55.046875 
Q 24.21875 56 28.609375 56 
Q 40.484375 56 46.34375 49.84375 
Q 52.203125 43.703125 52.203125 31.203125 
" id="DejaVuSans-61"/>
      <path d="M 44.28125 53.078125 
L 44.28125 44.578125 
Q 40.484375 46.53125 36.375 47.5 
Q 32.28125 48.484375 27.875 48.484375 
Q 21.1875 48.484375 17.84375 46.4375 
Q 14.5 44.390625 14.5 40.28125 
Q 14.5 37.15625 16.890625 35.375 
Q 19.28125 33.59375 26.515625 31.984375 
L 29.59375 31.296875 
Q 39.15625 29.25 43.1875 25.515625 
Q 47.21875 21.78125 47.21875 15.09375 
Q 47.21875 7.46875 41.1875 3.015625 
Q 35.15625 -1.421875 24.609375 -1.421875 
Q 20.21875 -1.421875 15.453125 -0.5625 
Q 10.6875 0.296875 5.421875 2 
L 5.421875 11.28125 
Q 10.40625 8.6875 15.234375 7.390625 
Q 20.0625 6.109375 24.8125 6.109375 
Q 31.15625 6.109375 34.5625 8.28125 
Q 37.984375 10.453125 37.984375 14.40625 
Q 37.984375 18.0625 35.515625 20.015625 
Q 33.0625 21.96875 24.703125 23.78125 
L 21.578125 24.515625 
Q 13.234375 26.265625 9.515625 29.90625 
Q 5.8125 33.546875 5.8125 39.890625 
Q 5.8125 47.609375 11.28125 51.796875 
Q 16.75 56 26.8125 56 
Q 31.78125 56 36.171875 55.265625 
Q 40.578125 54.546875 44.28125 53.078125 
" id="DejaVuSans-73"/>
      <path d="M 25.390625 72.90625 
L 33.6875 72.90625 
L 8.296875 -9.28125 
L 0 -9.28125 
z
" id="DejaVuSans-2f"/>
      <path d="M 45.40625 46.390625 
L 45.40625 75.984375 
L 54.390625 75.984375 
L 54.390625 0 
L 45.40625 0 
L 45.40625 8.203125 
Q 42.578125 3.328125 38.25 0.953125 
Q 33.9375 -1.421875 27.875 -1.421875 
Q 17.96875 -1.421875 11.734375 6.484375 
Q 5.515625 14.40625 5.515625 27.296875 
Q 5.515625 40.1875 11.734375 48.09375 
Q 17.96875 56 27.875 56 
Q 33.9375 56 38.25 53.625 
Q 42.578125 51.265625 45.40625 46.390625 
M 14.796875 27.296875 
Q 14.796875 17.390625 18.875 11.75 
Q 22.953125 6.109375 30.078125 6.109375 
Q 37.203125 6.109375 41.296875 11.75 
Q 45.40625 17.390625 45.40625 27.296875 
Q 45.40625 37.203125 41.296875 42.84375 
Q 37.203125 48.484375 30.078125 48.484375 
Q 22.953125 48.484375 18.875 42.84375 
Q 14.796875 37.203125 14.796875 27.296875 
" id="DejaVuSans-64"/>
      <path d="M 9.421875 54.6875 
L 18.40625 54.6875 
L 18.40625 0 
L 9.421875 0 
z
M 9.421875 75.984375 
L 18.40625 75.984375 
L 18.40625 64.59375 
L 9.421875 64.59375 
z
" id="DejaVuSans-69"/>
      <path d="M 52 44.1875 
Q 55.375 50.25 60.0625 53.125 
Q 64.75 56 71.09375 56 
Q 79.640625 56 84.28125 50.015625 
Q 88.921875 44.046875 88.921875 33.015625 
L 88.921875 0 
L 79.890625 0 
L 79.890625 32.71875 
Q 79.890625 40.578125 77.09375 44.375 
Q 74.3125 48.1875 68.609375 48.1875 
Q 61.625 48.1875 57.5625 43.546875 
Q 53.515625 38.921875 53.515625 30.90625 
L 53.515625 0 
L 44.484375 0 
L 44.484375 32.71875 
Q 44.484375 40.625 41.703125 44.40625 
Q 38.921875 48.1875 33.109375 48.1875 
Q 26.21875 48.1875 22.15625 43.53125 
Q 18.109375 38.875 18.109375 30.90625 
L 18.109375 0 
L 9.078125 0 
L 9.078125 54.6875 
L 18.109375 54.6875 
L 18.109375 46.1875 
Q 21.1875 51.21875 25.484375 53.609375 
Q 29.78125 56 35.6875 56 
Q 41.65625 56 45.828125 52.96875 
Q 50 49.953125 52 44.1875 
" id="DejaVuSans-6d"/>
      <path d="M 54.890625 33.015625 
L 54.890625 0 
L 45.90625 0 
L 45.90625 32.71875 
Q 45.90625 40.484375 42.875 44.328125 
Q 39.84375 48.1875 33.796875 48.1875 
Q 26.515625 48.1875 22.3125 43.546875 
Q 18.109375 38.921875 18.109375 30.90625 
L 18.109375 0 
L 9.078125 0 
L 9.078125 54.6875 
L 18.109375 54.6875 
L 18.109375 46.1875 
Q 21.34375 51.125 25.703125 53.5625 
Q 30.078125 56 35.796875 56 
Q 45.21875 56 50.046875 50.171875 
Q 54.890625 44.34375 54.890625 33.015625 
" id="DejaVuSans-6e"/>
      <path d="M 8.015625 75.875 
L 15.828125 75.875 
Q 23.140625 64.359375 26.78125 53.3125 
Q 30.421875 42.28125 30.421875 31.390625 
Q 30.421875 20.453125 26.78125 9.375 
Q 23.140625 -1.703125 15.828125 -13.1875 
L 8.015625 -13.1875 
Q 14.5 -2 17.703125 9.0625 
Q 20.90625 20.125 20.90625 31.390625 
Q 20.90625 42.671875 17.703125 53.65625 
Q 14.5 64.65625 8.015625 75.875 
" id="DejaVuSans-29"/>
     </defs>
     <g transform="translate(107.015156 342.278812)scale(0.18 -0.18)">
      <use xlink:href="#DejaVuSans-6c"/>
      <use x="27.783203" xlink:href="#DejaVuSans-6f"/>
      <use x="88.964844" xlink:href="#DejaVuSans-67"/>
      <use x="152.441406" xlink:href="#DejaVuSans-31"/>
      <use x="216.064453" xlink:href="#DejaVuSans-30"/>
      <use x="279.6875" xlink:href="#DejaVuSans-20"/>
      <use x="311.474609" xlink:href="#DejaVuSans-6f"/>
      <use x="372.65625" xlink:href="#DejaVuSans-66"/>
      <use x="407.861328" xlink:href="#DejaVuSans-20"/>
      <use x="439.648438" xlink:href="#DejaVuSans-28"/>
      <use x="478.662109" xlink:href="#DejaVuSans-23"/>
      <use x="562.451172" xlink:href="#DejaVuSans-20"/>
      <use x="594.238281" xlink:href="#DejaVuSans-66"/>
      <use x="629.365234" xlink:href="#DejaVuSans-2d"/>
      <use x="665.449219" xlink:href="#DejaVuSans-65"/>
      <use x="726.972656" xlink:href="#DejaVuSans-76"/>
      <use x="786.152344" xlink:href="#DejaVuSans-61"/>
      <use x="847.431641" xlink:href="#DejaVuSans-6c"/>
      <use x="875.214844" xlink:href="#DejaVuSans-73"/>
      <use x="927.314453" xlink:href="#DejaVuSans-20"/>
      <use x="959.101562" xlink:href="#DejaVuSans-2f"/>
      <use x="992.792969" xlink:href="#DejaVuSans-20"/>
      <use x="1024.580078" xlink:href="#DejaVuSans-64"/>
      <use x="1088.056641" xlink:href="#DejaVuSans-69"/>
      <use x="1115.839844" xlink:href="#DejaVuSans-6d"/>
      <use x="1213.251953" xlink:href="#DejaVuSans-65"/>
      <use x="1274.775391" xlink:href="#DejaVuSans-6e"/>
      <use x="1338.154297" xlink:href="#DejaVuSans-73"/>
      <use x="1390.253906" xlink:href="#DejaVuSans-69"/>
      <use x="1418.037109" xlink:href="#DejaVuSans-6f"/>
      <use x="1479.21875" xlink:href="#DejaVuSans-6e"/>
      <use x="1542.597656" xlink:href="#DejaVuSans-29"/>
     </g>
    </g>
   </g>
   <g id="matplotlib.axis_2">
    <g id="ytick_1">
     <g id="line2d_29">
      <path clip-path="url(#pa0d7405452)" d="M 70.8 298.245375 
L 427.92 298.245375 
" style="fill:none;stroke:#b0b0b0;stroke-linecap:square;stroke-width:0.8;"/>
     </g>
     <g id="line2d_30">
      <defs>
       <path d="M 0 0 
L -3.5 0 
" id="m788f439dab" style="stroke:#000000;stroke-width:0.8;"/>
      </defs>
      <g>
       <use style="stroke:#000000;stroke-width:0.8;" x="70.8" xlink:href="#m788f439dab" y="298.245375"/>
      </g>
     </g>
     <g id="text_7">
      <!-- 0.0 -->
      <defs>
       <path d="M 10.6875 12.40625 
L 21 12.40625 
L 21 0 
L 10.6875 0 
z
" id="DejaVuSans-2e"/>
      </defs>
      <g transform="translate(31.99375 305.843812)scale(0.2 -0.2)">
       <use xlink:href="#DejaVuSans-30"/>
       <use x="63.623047" xlink:href="#DejaVuSans-2e"/>
       <use x="95.410156" xlink:href="#DejaVuSans-30"/>
      </g>
     </g>
    </g>
    <g id="ytick_2">
     <g id="line2d_31">
      <path clip-path="url(#pa0d7405452)" d="M 70.8 245.549929 
L 427.92 245.549929 
" style="fill:none;stroke:#b0b0b0;stroke-linecap:square;stroke-width:0.8;"/>
     </g>
     <g id="line2d_32">
      <g>
       <use style="stroke:#000000;stroke-width:0.8;" x="70.8" xlink:href="#m788f439dab" y="245.549929"/>
      </g>
     </g>
     <g id="text_8">
      <!-- 0.2 -->
      <g transform="translate(31.99375 253.148367)scale(0.2 -0.2)">
       <use xlink:href="#DejaVuSans-30"/>
       <use x="63.623047" xlink:href="#DejaVuSans-2e"/>
       <use x="95.410156" xlink:href="#DejaVuSans-32"/>
      </g>
     </g>
    </g>
    <g id="ytick_3">
     <g id="line2d_33">
      <path clip-path="url(#pa0d7405452)" d="M 70.8 192.854484 
L 427.92 192.854484 
" style="fill:none;stroke:#b0b0b0;stroke-linecap:square;stroke-width:0.8;"/>
     </g>
     <g id="line2d_34">
      <g>
       <use style="stroke:#000000;stroke-width:0.8;" x="70.8" xlink:href="#m788f439dab" y="192.854484"/>
      </g>
     </g>
     <g id="text_9">
      <!-- 0.4 -->
      <g transform="translate(31.99375 200.452921)scale(0.2 -0.2)">
       <use xlink:href="#DejaVuSans-30"/>
       <use x="63.623047" xlink:href="#DejaVuSans-2e"/>
       <use x="95.410156" xlink:href="#DejaVuSans-34"/>
      </g>
     </g>
    </g>
    <g id="ytick_4">
     <g id="line2d_35">
      <path clip-path="url(#pa0d7405452)" d="M 70.8 140.159038 
L 427.92 140.159038 
" style="fill:none;stroke:#b0b0b0;stroke-linecap:square;stroke-width:0.8;"/>
     </g>
     <g id="line2d_36">
      <g>
       <use style="stroke:#000000;stroke-width:0.8;" x="70.8" xlink:href="#m788f439dab" y="140.159038"/>
      </g>
     </g>
     <g id="text_10">
      <!-- 0.6 -->
      <g transform="translate(31.99375 147.757476)scale(0.2 -0.2)">
       <use xlink:href="#DejaVuSans-30"/>
       <use x="63.623047" xlink:href="#DejaVuSans-2e"/>
       <use x="95.410156" xlink:href="#DejaVuSans-36"/>
      </g>
     </g>
    </g>
    <g id="ytick_5">
     <g id="line2d_37">
      <path clip-path="url(#pa0d7405452)" d="M 70.8 87.463593 
L 427.92 87.463593 
" style="fill:none;stroke:#b0b0b0;stroke-linecap:square;stroke-width:0.8;"/>
     </g>
     <g id="line2d_38">
      <g>
       <use style="stroke:#000000;stroke-width:0.8;" x="70.8" xlink:href="#m788f439dab" y="87.463593"/>
      </g>
     </g>
     <g id="text_11">
      <!-- 0.8 -->
      <g transform="translate(31.99375 95.06203)scale(0.2 -0.2)">
       <use xlink:href="#DejaVuSans-30"/>
       <use x="63.623047" xlink:href="#DejaVuSans-2e"/>
       <use x="95.410156" xlink:href="#DejaVuSans-38"/>
      </g>
     </g>
    </g>
    <g id="ytick_6">
     <g id="line2d_39">
      <path clip-path="url(#pa0d7405452)" d="M 70.8 34.768147 
L 427.92 34.768147 
" style="fill:none;stroke:#b0b0b0;stroke-linecap:square;stroke-width:0.8;"/>
     </g>
     <g id="line2d_40">
      <g>
       <use style="stroke:#000000;stroke-width:0.8;" x="70.8" xlink:href="#m788f439dab" y="34.768147"/>
      </g>
     </g>
     <g id="text_12">
      <!-- 1.0 -->
      <g transform="translate(31.99375 42.366585)scale(0.2 -0.2)">
       <use xlink:href="#DejaVuSans-31"/>
       <use x="63.623047" xlink:href="#DejaVuSans-2e"/>
       <use x="95.410156" xlink:href="#DejaVuSans-30"/>
      </g>
     </g>
    </g>
    <g id="text_13">
     <!-- Proportion of function+target pairs -->
     <defs>
      <path d="M 19.671875 64.796875 
L 19.671875 37.40625 
L 32.078125 37.40625 
Q 38.96875 37.40625 42.71875 40.96875 
Q 46.484375 44.53125 46.484375 51.125 
Q 46.484375 57.671875 42.71875 61.234375 
Q 38.96875 64.796875 32.078125 64.796875 
z
M 9.8125 72.90625 
L 32.078125 72.90625 
Q 44.34375 72.90625 50.609375 67.359375 
Q 56.890625 61.8125 56.890625 51.125 
Q 56.890625 40.328125 50.609375 34.8125 
Q 44.34375 29.296875 32.078125 29.296875 
L 19.671875 29.296875 
L 19.671875 0 
L 9.8125 0 
z
" id="DejaVuSans-50"/>
      <path d="M 41.109375 46.296875 
Q 39.59375 47.171875 37.8125 47.578125 
Q 36.03125 48 33.890625 48 
Q 26.265625 48 22.1875 43.046875 
Q 18.109375 38.09375 18.109375 28.8125 
L 18.109375 0 
L 9.078125 0 
L 9.078125 54.6875 
L 18.109375 54.6875 
L 18.109375 46.1875 
Q 20.953125 51.171875 25.484375 53.578125 
Q 30.03125 56 36.53125 56 
Q 37.453125 56 38.578125 55.875 
Q 39.703125 55.765625 41.0625 55.515625 
z
" id="DejaVuSans-72"/>
      <path d="M 18.109375 8.203125 
L 18.109375 -20.796875 
L 9.078125 -20.796875 
L 9.078125 54.6875 
L 18.109375 54.6875 
L 18.109375 46.390625 
Q 20.953125 51.265625 25.265625 53.625 
Q 29.59375 56 35.59375 56 
Q 45.5625 56 51.78125 48.09375 
Q 58.015625 40.1875 58.015625 27.296875 
Q 58.015625 14.40625 51.78125 6.484375 
Q 45.5625 -1.421875 35.59375 -1.421875 
Q 29.59375 -1.421875 25.265625 0.953125 
Q 20.953125 3.328125 18.109375 8.203125 
M 48.6875 27.296875 
Q 48.6875 37.203125 44.609375 42.84375 
Q 40.53125 48.484375 33.40625 48.484375 
Q 26.265625 48.484375 22.1875 42.84375 
Q 18.109375 37.203125 18.109375 27.296875 
Q 18.109375 17.390625 22.1875 11.75 
Q 26.265625 6.109375 33.40625 6.109375 
Q 40.53125 6.109375 44.609375 11.75 
Q 48.6875 17.390625 48.6875 27.296875 
" id="DejaVuSans-70"/>
      <path d="M 18.3125 70.21875 
L 18.3125 54.6875 
L 36.8125 54.6875 
L 36.8125 47.703125 
L 18.3125 47.703125 
L 18.3125 18.015625 
Q 18.3125 11.328125 20.140625 9.421875 
Q 21.96875 7.515625 27.59375 7.515625 
L 36.8125 7.515625 
L 36.8125 0 
L 27.59375 0 
Q 17.1875 0 13.234375 3.875 
Q 9.28125 7.765625 9.28125 18.015625 
L 9.28125 47.703125 
L 2.6875 47.703125 
L 2.6875 54.6875 
L 9.28125 54.6875 
L 9.28125 70.21875 
z
" id="DejaVuSans-74"/>
      <path d="M 8.5 21.578125 
L 8.5 54.6875 
L 17.484375 54.6875 
L 17.484375 21.921875 
Q 17.484375 14.15625 20.5 10.265625 
Q 23.53125 6.390625 29.59375 6.390625 
Q 36.859375 6.390625 41.078125 11.03125 
Q 45.3125 15.671875 45.3125 23.6875 
L 45.3125 54.6875 
L 54.296875 54.6875 
L 54.296875 0 
L 45.3125 0 
L 45.3125 8.40625 
Q 42.046875 3.421875 37.71875 1 
Q 33.40625 -1.421875 27.6875 -1.421875 
Q 18.265625 -1.421875 13.375 4.4375 
Q 8.5 10.296875 8.5 21.578125 
M 31.109375 56 
z
" id="DejaVuSans-75"/>
      <path d="M 48.78125 52.59375 
L 48.78125 44.1875 
Q 44.96875 46.296875 41.140625 47.34375 
Q 37.3125 48.390625 33.40625 48.390625 
Q 24.65625 48.390625 19.8125 42.84375 
Q 14.984375 37.3125 14.984375 27.296875 
Q 14.984375 17.28125 19.8125 11.734375 
Q 24.65625 6.203125 33.40625 6.203125 
Q 37.3125 6.203125 41.140625 7.25 
Q 44.96875 8.296875 48.78125 10.40625 
L 48.78125 2.09375 
Q 45.015625 0.34375 40.984375 -0.53125 
Q 36.96875 -1.421875 32.421875 -1.421875 
Q 20.0625 -1.421875 12.78125 6.34375 
Q 5.515625 14.109375 5.515625 27.296875 
Q 5.515625 40.671875 12.859375 48.328125 
Q 20.21875 56 33.015625 56 
Q 37.15625 56 41.109375 55.140625 
Q 45.0625 54.296875 48.78125 52.59375 
" id="DejaVuSans-63"/>
      <path d="M 46 62.703125 
L 46 35.5 
L 73.1875 35.5 
L 73.1875 27.203125 
L 46 27.203125 
L 46 0 
L 37.796875 0 
L 37.796875 27.203125 
L 10.59375 27.203125 
L 10.59375 35.5 
L 37.796875 35.5 
L 37.796875 62.703125 
z
" id="DejaVuSans-2b"/>
     </defs>
     <g transform="translate(24.250312 323.17875)rotate(-90)scale(0.18 -0.18)">
      <use xlink:href="#DejaVuSans-50"/>
      <use x="60.287109" xlink:href="#DejaVuSans-72"/>
      <use x="101.369141" xlink:href="#DejaVuSans-6f"/>
      <use x="162.550781" xlink:href="#DejaVuSans-70"/>
      <use x="226.027344" xlink:href="#DejaVuSans-6f"/>
      <use x="287.208984" xlink:href="#DejaVuSans-72"/>
      <use x="328.322266" xlink:href="#DejaVuSans-74"/>
      <use x="367.53125" xlink:href="#DejaVuSans-69"/>
      <use x="395.314453" xlink:href="#DejaVuSans-6f"/>
      <use x="456.496094" xlink:href="#DejaVuSans-6e"/>
      <use x="519.875" xlink:href="#DejaVuSans-20"/>
      <use x="551.662109" xlink:href="#DejaVuSans-6f"/>
      <use x="612.84375" xlink:href="#DejaVuSans-66"/>
      <use x="648.048828" xlink:href="#DejaVuSans-20"/>
      <use x="679.835938" xlink:href="#DejaVuSans-66"/>
      <use x="715.041016" xlink:href="#DejaVuSans-75"/>
      <use x="778.419922" xlink:href="#DejaVuSans-6e"/>
      <use x="841.798828" xlink:href="#DejaVuSans-63"/>
      <use x="896.779297" xlink:href="#DejaVuSans-74"/>
      <use x="935.988281" xlink:href="#DejaVuSans-69"/>
      <use x="963.771484" xlink:href="#DejaVuSans-6f"/>
      <use x="1024.953125" xlink:href="#DejaVuSans-6e"/>
      <use x="1088.332031" xlink:href="#DejaVuSans-2b"/>
      <use x="1172.121094" xlink:href="#DejaVuSans-74"/>
      <use x="1211.330078" xlink:href="#DejaVuSans-61"/>
      <use x="1272.609375" xlink:href="#DejaVuSans-72"/>
      <use x="1313.707031" xlink:href="#DejaVuSans-67"/>
      <use x="1377.183594" xlink:href="#DejaVuSans-65"/>
      <use x="1438.707031" xlink:href="#DejaVuSans-74"/>
      <use x="1477.916016" xlink:href="#DejaVuSans-20"/>
      <use x="1509.703125" xlink:href="#DejaVuSans-70"/>
      <use x="1573.179688" xlink:href="#DejaVuSans-61"/>
      <use x="1634.458984" xlink:href="#DejaVuSans-69"/>
      <use x="1662.242188" xlink:href="#DejaVuSans-72"/>
      <use x="1703.355469" xlink:href="#DejaVuSans-73"/>
     </g>
    </g>
   </g>
   <g id="line2d_41">
    <defs>
     <path d="M 0 1.5 
C 0.397805 1.5 0.77937 1.341951 1.06066 1.06066 
C 1.341951 0.77937 1.5 0.397805 1.5 0 
C 1.5 -0.397805 1.341951 -0.77937 1.06066 -1.06066 
C 0.77937 -1.341951 0.397805 -1.5 0 -1.5 
C -0.397805 -1.5 -0.77937 -1.341951 -1.06066 -1.06066 
C -1.341951 -0.77937 -1.5 -0.397805 -1.5 0 
C -1.5 0.397805 -1.341951 0.77937 -1.06066 1.06066 
C -0.77937 1.341951 -0.397805 1.5 0 1.5 
z
" id="me794b60769" style="stroke:#00bfbf;"/>
    </defs>
    <g>
     <use style="fill:#00bfbf;stroke:#00bfbf;" x="242.694773" xlink:href="#me794b60769" y="34.768147"/>
     <use style="fill:#00bfbf;stroke:#00bfbf;" x="242.694773" xlink:href="#me794b60769" y="34.768147"/>
    </g>
   </g>
   <g id="line2d_42">
    <path d="M 58.414766 298.245375 
L 58.414766 293.079155 
L 78.044898 293.079155 
L 78.044898 291.012667 
L 83.185234 291.012667 
L 83.185234 289.979423 
L 87.172389 289.979423 
L 87.172389 289.462801 
L 90.430132 289.462801 
L 90.430132 288.946179 
L 93.184514 288.946179 
L 93.184514 287.396313 
L 97.675029 287.396313 
L 97.675029 284.813203 
L 99.557623 284.813203 
L 99.557623 282.746715 
L 101.260636 282.746715 
L 101.260636 282.230093 
L 104.245578 282.230093 
L 104.245578 279.646982 
L 110.060263 279.646982 
L 110.060263 279.13036 
L 113.64587 279.13036 
L 113.64587 278.613738 
L 114.44014 278.613738 
L 114.44014 277.580494 
L 117.305161 277.580494 
L 117.305161 276.54725 
L 121.424184 276.54725 
L 121.424184 276.030628 
L 122.935065 276.030628 
L 122.935065 273.447518 
L 126.031105 273.447518 
L 126.031105 272.930896 
L 126.432652 272.930896 
L 126.432652 272.414274 
L 126.825374 272.414274 
L 126.825374 271.38103 
L 127.954262 271.38103 
L 127.954262 269.831164 
L 129.016046 269.831164 
L 129.016046 268.79792 
L 130.018259 268.79792 
L 130.018259 267.764676 
L 130.340216 267.764676 
L 130.340216 266.731432 
L 131.272677 266.731432 
L 131.272677 265.698188 
L 131.572989 265.698188 
L 131.572989 264.148322 
L 133.003201 264.148322 
L 133.003201 262.598456 
L 137.154536 262.598456 
L 137.154536 262.081834 
L 139.210608 262.081834 
L 139.210608 261.565212 
L 140.156232 261.565212 
L 140.156232 260.531968 
L 142.075629 260.531968 
L 142.075629 260.015346 
L 142.565197 260.015346 
L 142.565197 259.498724 
L 143.041708 259.498724 
L 143.041708 258.982102 
L 145.661236 258.982102 
L 145.661236 257.948858 
L 147.339621 257.948858 
L 147.339621 257.432236 
L 147.945378 257.432236 
L 147.945378 256.915614 
L 148.299213 256.915614 
L 148.299213 256.398992 
L 148.8738 256.398992 
L 148.8738 255.365748 
L 150.07639 255.365748 
L 150.07639 254.849126 
L 151.595842 254.849126 
L 151.595842 252.782638 
L 156.343457 252.782638 
L 156.343457 252.266016 
L 158.514074 252.266016 
L 158.514074 251.749394 
L 159.225015 251.749394 
L 159.225015 247.616418 
L 159.84766 247.616418 
L 159.84766 247.099796 
L 160.625959 247.099796 
L 160.625959 246.583173 
L 167.535758 246.583173 
L 167.535758 246.066551 
L 167.654747 246.066551 
L 167.654747 245.549929 
L 167.772949 245.549929 
L 167.812177 244.516685 
L 168.503932 244.516685 
L 168.579166 242.966819 
L 169.74173 242.966819 
L 169.84694 241.416953 
L 169.881873 241.416953 
L 169.881873 240.900331 
L 170.566559 240.900331 
L 170.566559 240.383709 
L 170.997936 240.383709 
L 170.997936 239.867087 
L 171.128599 239.867087 
L 171.161117 238.317221 
L 171.419144 238.317221 
L 171.419144 237.800599 
L 172.232894 237.800599 
L 172.232894 236.767355 
L 172.596326 236.767355 
L 172.596326 235.217489 
L 173.445258 235.217489 
L 173.502345 233.667623 
L 174.714207 233.667623 
L 174.714207 233.151001 
L 175.004752 233.151001 
L 175.004752 230.567891 
L 175.597404 230.567891 
L 175.597404 230.051269 
L 176.121873 230.051269 
L 176.121873 229.018025 
L 178.981424 229.018025 
L 178.981424 228.501403 
L 179.436951 228.501403 
L 179.436951 227.984781 
L 179.579489 227.984781 
L 179.599759 226.951537 
L 179.761098 226.951537 
L 179.801206 225.918293 
L 179.901084 225.918293 
L 179.901084 225.401671 
L 180.177808 225.401671 
L 180.197411 222.301939 
L 180.585021 222.301939 
L 180.585021 221.785317 
L 180.832532 221.785317 
L 180.926823 218.685585 
L 180.98316 218.685585 
L 181.076661 217.652341 
L 181.555136 217.652341 
L 181.555136 216.619097 
L 182.284548 216.619097 
L 182.319378 214.552609 
L 182.544138 214.552609 
L 182.544138 214.035987 
L 183.068961 214.035987 
L 183.068961 213.519365 
L 183.251545 213.519365 
L 183.251545 211.452876 
L 183.627385 211.452876 
L 183.627385 209.90301 
L 186.268216 209.90301 
L 186.282159 208.869766 
L 186.420995 208.869766 
L 186.420995 207.836522 
L 186.640913 207.836522 
L 186.695472 206.803278 
L 187.13934 206.803278 
L 187.205641 203.703546 
L 187.311214 203.703546 
L 187.311214 201.637058 
L 187.455365 201.637058 
L 187.455365 201.120436 
L 187.650079 201.120436 
L 187.650079 200.603814 
L 187.804337 200.603814 
L 187.804337 200.087192 
L 188.196781 200.087192 
L 188.196781 199.053948 
L 188.358823 199.053948 
L 188.358823 198.537326 
L 188.739402 198.537326 
L 188.739402 197.504082 
L 188.872521 197.504082 
L 188.872521 196.98746 
L 188.992683 196.98746 
L 188.992683 196.470838 
L 189.147696 196.470838 
L 189.147696 195.437594 
L 191.282572 195.437594 
L 191.293105 193.371106 
L 191.439909 193.371106 
L 191.450349 192.337862 
L 191.832404 192.337862 
L 191.924114 190.271374 
L 192.035568 190.271374 
L 192.035568 189.754752 
L 192.166397 189.754752 
L 192.18644 188.204886 
L 192.306226 188.204886 
L 192.306226 187.688264 
L 192.612009 187.688264 
L 192.612009 187.171642 
L 193.236664 187.171642 
L 193.236664 186.65502 
L 193.359016 186.65502 
L 193.359016 185.621776 
L 194.877755 185.621776 
L 194.877755 184.588532 
L 195.202173 184.588532 
L 195.202173 184.07191 
L 195.479203 184.07191 
L 195.587168 181.4888 
L 195.678016 181.4888 
L 195.78479 179.938934 
L 195.80116 179.938934 
L 195.899068 178.90569 
L 196.149541 178.90569 
L 196.253542 176.839201 
L 196.585467 176.839201 
L 196.663596 175.805957 
L 196.764656 175.805957 
L 196.764656 175.289335 
L 198.194272 175.289335 
L 198.194272 174.772713 
L 198.562553 174.772713 
L 198.625531 173.222847 
L 198.806229 173.222847 
L 198.806229 170.639737 
L 199.101123 170.639737 
L 199.189327 169.606493 
L 199.39792 169.606493 
L 199.471355 168.056627 
L 199.623934 168.056627 
L 199.623934 166.506761 
L 199.762115 166.506761 
L 199.762115 165.990139 
L 201.039404 165.990139 
L 201.142847 162.890407 
L 201.167099 162.890407 
L 201.221548 161.340541 
L 201.377917 161.340541 
L 201.449629 160.307297 
L 201.621753 160.307297 
L 201.621753 159.790675 
L 201.891421 159.790675 
L 201.891421 158.240809 
L 202.088158 158.240809 
L 202.088158 157.724187 
L 202.208598 157.724187 
L 202.208598 157.207565 
L 203.235944 157.207565 
L 203.235944 156.690943 
L 203.348914 156.690943 
L 203.418492 155.657699 
L 203.615051 155.657699 
L 203.688865 153.591211 
L 203.840801 153.591211 
L 203.840801 153.074589 
L 204.186963 153.074589 
L 204.253359 148.941613 
L 205.094777 148.941613 
L 205.094777 148.424991 
L 205.206286 148.424991 
L 205.278637 145.325259 
L 205.355489 145.325259 
L 205.455858 144.292014 
L 205.612451 144.292014 
L 205.678473 141.708904 
L 205.814459 141.708904 
L 205.814459 140.67566 
L 206.028062 140.67566 
L 206.124734 138.609172 
L 206.184317 138.609172 
L 206.184317 136.542684 
L 207.041937 136.542684 
L 207.102891 135.50944 
L 207.193933 135.50944 
L 207.193933 134.476196 
L 207.306013 134.476196 
L 207.306013 132.92633 
L 207.417395 132.92633 
L 207.468568 131.376464 
L 207.600093 131.376464 
L 207.654961 129.309976 
L 207.785125 129.309976 
L 207.785125 128.793354 
L 207.926804 128.793354 
L 207.926804 127.243488 
L 208.70645 127.243488 
L 208.761991 126.210244 
L 208.829201 126.210244 
L 208.900091 125.177 
L 208.990265 125.177 
L 208.990265 124.660378 
L 209.21566 124.660378 
L 209.21566 124.143756 
L 209.426801 124.143756 
L 209.514362 121.560646 
L 209.593936 121.560646 
L 209.593936 121.044024 
L 210.229033 121.044024 
L 210.229033 120.01078 
L 210.341789 120.01078 
L 210.341789 119.494158 
L 210.536519 119.494158 
L 210.543691 118.460914 
L 210.697189 118.460914 
L 210.743337 116.911048 
L 210.852903 116.911048 
L 210.926746 115.877804 
L 210.972305 115.877804 
L 210.972305 114.84456 
L 211.554245 114.84456 
L 211.631999 113.811316 
L 211.679162 113.811316 
L 211.736265 112.778072 
L 211.806553 112.778072 
L 211.916449 111.228206 
L 212.107978 111.228206 
L 212.209511 110.194961 
L 212.32021 110.194961 
L 212.388242 108.128473 
L 213.095135 108.128473 
L 213.197407 106.578607 
L 213.470349 106.578607 
L 213.573528 103.995497 
L 214.089492 103.995497 
L 214.177469 102.445631 
L 214.285381 102.445631 
L 214.323141 100.895765 
L 214.398425 100.895765 
L 214.433064 99.862521 
L 214.516499 99.862521 
L 214.516499 99.345899 
L 214.679367 99.345899 
L 214.679367 98.829277 
L 215.228336 98.829277 
L 215.280667 97.796033 
L 215.412192 97.796033 
L 215.477593 96.762789 
L 215.629271 96.762789 
L 215.669681 95.212923 
L 215.782346 95.212923 
L 215.843744 94.179679 
L 216.384448 94.179679 
L 216.482427 93.146435 
L 216.505554 93.146435 
L 216.602872 90.046703 
L 216.714898 90.046703 
L 216.714898 89.530081 
L 216.879117 89.530081 
L 216.879117 89.013459 
L 217.382477 89.013459 
L 217.472714 86.946971 
L 217.504311 86.946971 
L 217.504311 86.430349 
L 218.420219 86.430349 
L 218.509968 83.847239 
L 218.608402 83.847239 
L 218.708568 82.813995 
L 218.733522 82.813995 
L 218.733522 81.780751 
L 219.348495 81.780751 
L 219.348495 81.264129 
L 219.594296 81.264129 
L 219.594296 80.747507 
L 220.14105 80.747507 
L 220.149429 79.714263 
L 220.258 79.714263 
L 220.347283 77.131153 
L 220.460837 77.131153 
L 220.50811 75.581286 
L 220.920009 75.581286 
L 221.020021 73.514798 
L 221.071807 73.514798 
L 221.157125 71.44831 
L 221.310855 71.44831 
L 221.310855 70.931688 
L 221.704857 70.931688 
L 221.775743 69.898444 
L 222.118515 69.898444 
L 222.118515 69.381822 
L 222.456676 69.381822 
L 222.548468 68.348578 
L 222.674371 68.348578 
L 222.674371 67.831956 
L 223.250465 67.831956 
L 223.266304 66.798712 
L 223.387266 66.798712 
L 223.387266 66.28209 
L 224.165043 66.28209 
L 224.165043 65.248846 
L 224.599643 65.248846 
L 224.663199 63.69898 
L 224.821912 63.69898 
L 224.892716 62.149114 
L 225.187379 62.149114 
L 225.187379 61.632492 
L 225.455488 61.632492 
L 225.491244 60.599248 
L 225.981442 60.599248 
L 225.981442 60.082626 
L 226.133409 60.082626 
L 226.133409 59.566004 
L 226.38779 59.566004 
L 226.38779 59.049382 
L 226.578785 59.049382 
L 226.578785 58.53276 
L 226.69241 58.53276 
L 226.722878 56.982894 
L 227.013329 56.982894 
L 227.056066 55.94965 
L 227.264009 55.94965 
L 227.264009 55.433028 
L 227.551401 55.433028 
L 227.616328 54.399784 
L 227.668651 54.399784 
L 227.668651 53.883162 
L 228.210314 53.883162 
L 228.210314 52.333296 
L 228.701036 52.333296 
L 228.701036 51.816674 
L 228.847078 51.816674 
L 228.876658 50.78343 
L 229.246738 50.78343 
L 229.246738 50.266808 
L 229.680702 50.266808 
L 229.680702 49.750186 
L 229.848215 49.750186 
L 229.848215 49.233564 
L 230.822747 49.233564 
L 230.822747 48.716942 
L 231.042651 48.716942 
L 231.111954 46.650454 
L 231.263255 46.650454 
L 231.263255 46.133832 
L 232.423322 46.133832 
L 232.423322 45.61721 
L 232.541992 45.61721 
L 232.541992 45.100588 
L 232.839896 45.100588 
L 232.910783 44.067344 
L 232.967086 44.067344 
L 232.967086 43.550722 
L 233.246978 43.550722 
L 233.246978 43.0341 
L 233.789063 43.0341 
L 233.789063 42.517478 
L 233.989024 42.517478 
L 234.021813 41.484233 
L 234.923628 41.484233 
L 234.923628 40.967611 
L 235.500505 40.967611 
L 235.500505 40.450989 
L 237.257864 40.450989 
L 237.302023 39.417745 
L 237.932302 39.417745 
L 237.932302 38.901123 
L 238.40215 38.901123 
L 238.40215 38.384501 
L 239.32854 38.384501 
L 239.32854 37.867879 
L 239.978105 37.867879 
L 239.993977 36.834635 
L 240.705916 36.834635 
L 240.731085 35.801391 
L 241.976649 35.801391 
L 241.976649 35.284769 
L 242.694773 35.284769 
L 242.694773 34.768147 
L 358.8 34.768147 
L 358.8 34.768147 
" style="fill:none;stroke:#00bfbf;stroke-linecap:square;stroke-width:1.5;"/>
   </g>
   <g id="line2d_43">
    <defs>
     <path d="M -6 0 
L 6 0 
M 0 6 
L 0 -6 
" id="m62aff0a59e" style="stroke:#00bfbf;stroke-width:1.5;"/>
    </defs>
    <g>
     <use style="fill:none;stroke:#00bfbf;stroke-width:1.5;" x="130.340216" xlink:href="#m62aff0a59e" y="266.731432"/>
     <use style="fill:none;stroke:#00bfbf;stroke-width:1.5;" x="191.439909" xlink:href="#m62aff0a59e" y="192.854484"/>
     <use style="fill:none;stroke:#00bfbf;stroke-width:1.5;" x="214.516499" xlink:href="#m62aff0a59e" y="99.345899"/>
     <use style="fill:none;stroke:#00bfbf;stroke-width:1.5;" x="242.694773" xlink:href="#m62aff0a59e" y="35.284769"/>
     <use style="fill:none;stroke:#00bfbf;stroke-width:1.5;" x="242.694773" xlink:href="#m62aff0a59e" y="34.768147"/>
     <use style="fill:none;stroke:#00bfbf;stroke-width:1.5;" x="358.8" xlink:href="#m62aff0a59e" y="34.768147"/>
    </g>
   </g>
   <g id="line2d_44"/>
   <g id="line2d_45">
    <path clip-path="url(#pa0d7405452)" d="M 165.470948 246.583173 
" style="fill:none;stroke:#00bfbf;stroke-linecap:square;stroke-width:1.5;"/>
    <defs>
     <path d="M -12 12 
L 12 -12 
M -12 -12 
L 12 12 
" id="m8ed6dc21f8" style="stroke:#00bfbf;stroke-width:3;"/>
    </defs>
    <g clip-path="url(#pa0d7405452)">
     <use style="fill:#00bfbf;stroke:#00bfbf;stroke-width:3;" x="165.470948" xlink:href="#m8ed6dc21f8" y="246.583173"/>
    </g>
   </g>
   <g id="line2d_46">
    <defs>
     <path d="M 0 1.5 
C 0.397805 1.5 0.77937 1.341951 1.06066 1.06066 
C 1.341951 0.77937 1.5 0.397805 1.5 0 
C 1.5 -0.397805 1.341951 -0.77937 1.06066 -1.06066 
C 0.77937 -1.341951 0.397805 -1.5 0 -1.5 
C -0.397805 -1.5 -0.77937 -1.341951 -1.06066 -1.06066 
C -1.341951 -0.77937 -1.5 -0.397805 -1.5 0 
C -1.5 0.397805 -1.341951 0.77937 -1.06066 1.06066 
C -0.77937 1.341951 -0.397805 1.5 0 1.5 
z
" id="m883e233449" style="stroke:#008000;"/>
    </defs>
    <g>
     <use style="fill:#008000;stroke:#008000;" x="260.00483" xlink:href="#m883e233449" y="34.768147"/>
     <use style="fill:#008000;stroke:#008000;" x="260.00483" xlink:href="#m883e233449" y="34.768147"/>
    </g>
   </g>
   <g id="line2d_47">
    <path d="M 51.169868 298.245375 
L 51.169868 297.728753 
L 63.555102 297.728753 
L 63.555102 296.178887 
L 70.8 296.178887 
L 70.8 295.662265 
L 94.015739 295.662265 
L 94.015739 295.145643 
L 99.557623 295.145643 
L 99.557623 292.562533 
L 100.710805 292.562533 
L 100.710805 290.496045 
L 101.794053 290.496045 
L 101.794053 289.979423 
L 103.781445 289.979423 
L 103.781445 288.946179 
L 107.195242 288.946179 
L 107.195242 287.912935 
L 114.179287 287.912935 
L 114.179287 287.396313 
L 115.690168 287.396313 
L 115.690168 285.846447 
L 116.166679 285.846447 
L 116.166679 284.813203 
L 117.954982 284.813203 
L 117.954982 284.296581 
L 119.187755 284.296581 
L 119.187755 283.779959 
L 121.424184 283.779959 
L 121.424184 282.746715 
L 122.445497 282.746715 
L 122.445497 281.713471 
L 124.328091 281.713471 
L 124.328091 281.196849 
L 124.623439 281.196849 
L 124.623439 278.097116 
L 125.19988 278.097116 
L 125.19988 277.063872 
L 126.564521 277.063872 
L 126.564521 276.54725 
L 128.075402 276.54725 
L 128.075402 276.030628 
L 128.785487 276.030628 
L 128.785487 274.997384 
L 129.243669 274.997384 
L 129.243669 273.96414 
L 129.909638 273.96414 
L 129.909638 273.447518 
L 130.760662 273.447518 
L 130.760662 272.930896 
L 130.967232 272.930896 
L 130.967232 272.414274 
L 131.572989 272.414274 
L 131.572989 271.897652 
L 132.539068 271.897652 
L 132.539068 271.38103 
L 134.664515 271.38103 
L 134.664515 270.864408 
L 135.952865 270.864408 
L 135.952865 270.347786 
L 137.154536 270.347786 
L 137.154536 269.831164 
L 138.551193 269.831164 
L 138.551193 268.79792 
L 139.080657 268.79792 
L 139.080657 268.281298 
L 139.210608 268.281298 
L 139.210608 267.764676 
L 141.741636 267.764676 
L 141.741636 266.731432 
L 142.185587 266.731432 
L 142.185587 266.21481 
L 142.511458 266.21481 
L 142.511458 265.181566 
L 142.831493 265.181566 
L 142.831493 264.664944 
L 143.454862 264.664944 
L 143.454862 260.531968 
L 146.966058 260.531968 
L 146.966058 257.432236 
L 152.043367 257.432236 
L 152.043367 255.365748 
L 154.238896 255.365748 
L 154.238896 253.815882 
L 155.634714 253.815882 
L 155.7377 249.166284 
L 156.043145 249.166284 
L 156.043145 248.13304 
L 158.623627 248.13304 
L 158.623627 247.099796 
L 159.055245 247.099796 
L 159.055245 246.583173 
L 173.011193 246.583173 
L 173.011193 246.066551 
L 173.887631 246.066551 
L 173.887631 245.549929 
L 174.219213 245.549929 
L 174.219213 245.033307 
L 175.004752 245.033307 
L 175.004752 242.966819 
L 175.264845 242.966819 
L 175.264845 242.450197 
L 175.622731 242.450197 
L 175.622731 241.416953 
L 175.740451 241.416953 
L 175.790665 240.383709 
L 175.890674 240.383709 
L 175.890674 238.833843 
L 176.511384 238.833843 
L 176.511384 235.217489 
L 176.923987 235.217489 
L 176.923987 233.667623 
L 177.080178 233.667623 
L 177.080178 233.151001 
L 177.601241 233.151001 
L 177.601241 231.601135 
L 178.16617 231.601135 
L 178.16617 230.051269 
L 178.528325 230.051269 
L 178.528325 229.018025 
L 179.051194 229.018025 
L 179.051194 228.501403 
L 185.249364 228.501403 
L 185.249364 227.984781 
L 185.454916 227.984781 
L 185.454916 227.468159 
L 185.897076 227.468159 
L 185.897076 226.951537 
L 186.282159 226.951537 
L 186.282159 225.401671 
L 186.411773 225.401671 
L 186.411773 224.885049 
L 186.677304 224.885049 
L 186.758915 223.335183 
L 187.099441 223.335183 
L 187.099441 220.752073 
L 187.710227 220.752073 
L 187.710227 220.235451 
L 188.02483 220.235451 
L 188.033256 219.202207 
L 188.242634 219.202207 
L 188.242634 218.685585 
L 188.383622 218.685585 
L 188.383622 218.168963 
L 188.84034 218.168963 
L 188.84034 217.135719 
L 193.230367 217.135719 
L 193.230367 216.619097 
L 193.349634 216.619097 
L 193.412089 215.069231 
L 193.468111 215.069231 
L 193.468111 214.552609 
L 193.702734 214.552609 
L 193.702734 212.48612 
L 194.127031 212.48612 
L 194.127031 210.419632 
L 194.512198 210.419632 
L 194.599916 208.869766 
L 194.716208 208.869766 
L 194.716208 207.836522 
L 198.048174 207.836522 
L 198.153676 204.220168 
L 198.258558 204.220168 
L 198.334452 203.186924 
L 198.513417 203.186924 
L 198.513417 200.603814 
L 198.83847 200.603814 
L 198.83847 200.087192 
L 199.135099 200.087192 
L 199.202859 199.053948 
L 202.009337 199.053948 
L 202.082402 198.020704 
L 202.155169 198.020704 
L 202.155169 196.470838 
L 202.29982 196.470838 
L 202.398122 194.40435 
L 202.435786 194.40435 
L 202.435786 193.887728 
L 202.563255 193.887728 
L 202.563255 191.82124 
L 202.700947 191.82124 
L 202.804444 190.787996 
L 202.859644 190.787996 
L 202.859644 190.271374 
L 203.027867 190.271374 
L 203.064229 189.23813 
L 205.133642 189.23813 
L 205.178877 187.171642 
L 205.272217 187.171642 
L 205.301086 183.038666 
L 205.422464 183.038666 
L 205.50504 180.972178 
L 205.628193 180.972178 
L 205.628193 179.938934 
L 205.759876 179.938934 
L 205.865771 177.355823 
L 206.035754 177.355823 
L 206.035754 176.322579 
L 207.808817 176.322579 
L 207.808817 175.805957 
L 207.922653 175.805957 
L 207.975162 173.222847 
L 208.079718 173.222847 
L 208.150906 171.672981 
L 208.270736 171.672981 
L 208.270736 169.606493 
L 208.446299 169.606493 
L 208.462418 168.573249 
L 210.208345 168.573249 
L 210.300649 163.407029 
L 210.392479 163.407029 
L 210.392479 162.373785 
L 210.54847 162.373785 
L 210.650921 160.307297 
L 210.710217 160.307297 
L 210.710217 159.274053 
L 212.228008 159.274053 
L 212.323456 158.240809 
L 212.358038 158.240809 
L 212.358038 156.174321 
L 212.4957 156.174321 
L 212.589732 153.591211 
L 214.185268 153.591211 
L 214.276655 149.458235 
L 214.411903 149.458235 
L 214.48298 148.424991 
L 214.532757 148.424991 
L 214.603356 145.325259 
L 215.768079 145.325259 
L 215.874808 142.225526 
L 215.942074 142.225526 
L 215.942074 139.125794 
L 216.065328 139.125794 
L 216.175533 136.542684 
L 217.388996 136.542684 
L 217.465415 131.893086 
L 217.578627 131.893086 
L 217.683115 130.859842 
L 217.707141 130.859842 
L 217.796553 129.309976 
L 218.754668 129.309976 
L 218.811937 126.726866 
L 218.869024 126.726866 
L 218.973709 124.660378 
L 219.028795 124.660378 
L 219.07037 123.110512 
L 219.175359 123.110512 
L 219.175359 122.59389 
L 220.044409 122.59389 
L 220.117289 121.044024 
L 220.17036 121.044024 
L 220.267711 118.460914 
L 220.354876 118.460914 
L 220.455348 116.394426 
L 221.265662 116.394426 
L 221.333736 111.744828 
L 221.383319 111.744828 
L 221.474297 110.711584 
L 221.603468 110.711584 
L 221.603468 110.194961 
L 222.398912 110.194961 
L 222.472621 108.645095 
L 222.519146 108.645095 
L 222.604534 105.028741 
L 222.690728 105.028741 
L 222.690728 104.512119 
L 223.543244 104.512119 
L 223.587067 101.412387 
L 223.711032 101.412387 
L 223.811408 99.345899 
L 224.511815 99.345899 
L 224.553328 97.796033 
L 224.665368 97.796033 
L 224.711935 96.762789 
L 224.778865 96.762789 
L 224.806857 95.729545 
L 225.500043 95.729545 
L 225.585731 93.663057 
L 226.365621 93.663057 
L 226.454135 91.079947 
L 226.479625 91.079947 
L 226.584143 89.530081 
L 226.645397 89.530081 
L 226.645397 89.013459 
L 227.271977 89.013459 
L 227.381291 87.463593 
L 227.441733 87.463593 
L 227.441733 86.946971 
L 228.057606 86.946971 
L 228.057606 86.430349 
L 228.256495 86.430349 
L 228.258268 85.397105 
L 228.847078 85.397105 
L 228.924141 83.330617 
L 228.983849 83.330617 
L 229.068802 81.264129 
L 229.677016 81.264129 
L 229.677016 80.747507 
L 229.792145 80.747507 
L 229.792145 80.230885 
L 230.328505 80.230885 
L 230.369529 77.647775 
L 230.552978 77.647775 
L 230.552978 77.131153 
L 231.065024 77.131153 
L 231.14292 74.548042 
L 231.194162 74.548042 
L 231.194162 74.03142 
L 231.781122 74.03142 
L 231.885669 72.998176 
L 231.911711 72.998176 
L 231.911711 72.481554 
L 232.406455 72.481554 
L 232.424727 71.44831 
L 233.002483 71.44831 
L 233.002483 70.415066 
L 233.604273 70.415066 
L 233.604273 69.898444 
L 233.716357 69.898444 
L 233.763992 68.348578 
L 234.186453 68.348578 
L 234.210621 66.798712 
L 234.305705 66.798712 
L 234.305705 66.28209 
L 234.750262 66.28209 
L 234.84007 63.69898 
L 234.878071 63.69898 
L 234.878071 63.182358 
L 235.35832 63.182358 
L 235.399995 62.149114 
L 235.817868 62.149114 
L 235.911728 58.53276 
L 236.342209 58.53276 
L 236.383905 57.499516 
L 236.842828 57.499516 
L 236.842828 56.982894 
L 237.302023 56.982894 
L 237.369257 55.433028 
L 237.823596 55.433028 
L 237.859904 54.399784 
L 238.265654 54.399784 
L 238.284893 53.36654 
L 238.69704 53.36654 
L 238.766623 50.78343 
L 239.173226 50.78343 
L 239.173226 50.266808 
L 240.019479 50.266808 
L 240.051593 49.233564 
L 240.444185 49.233564 
L 240.444185 48.716942 
L 241.275166 48.716942 
L 241.282441 47.683698 
L 241.584499 47.683698 
L 241.584499 47.167076 
L 241.955442 47.167076 
L 242.018783 46.133832 
L 242.305109 46.133832 
L 242.341436 44.067344 
L 242.685678 44.067344 
L 242.728345 43.0341 
L 243.703497 43.0341 
L 243.703497 42.517478 
L 244.434837 42.517478 
L 244.434837 42.000855 
L 245.315146 42.000855 
L 245.398935 40.450989 
L 245.645288 40.450989 
L 245.645288 39.934367 
L 245.931881 39.934367 
L 245.931881 39.417745 
L 247.662009 39.417745 
L 247.662009 38.901123 
L 247.969509 38.901123 
L 247.969509 38.384501 
L 248.667265 38.384501 
L 248.667265 37.867879 
L 249.474289 37.867879 
L 249.474289 37.351257 
L 250.62529 37.351257 
L 250.62529 36.834635 
L 253.778995 36.834635 
L 253.778995 36.318013 
L 254.683675 36.318013 
L 254.683675 35.801391 
L 255.584186 35.801391 
L 255.584186 35.284769 
L 260.00483 35.284769 
L 260.00483 34.768147 
L 358.8 34.768147 
L 358.8 34.768147 
" style="fill:none;stroke:#008000;stroke-linecap:square;stroke-width:1.5;"/>
   </g>
   <g id="line2d_48">
    <defs>
     <path d="M -0 6 
L 6 -6 
L -6 -6 
z
" id="mb70ddee33c" style="stroke:#008000;stroke-linejoin:miter;stroke-width:1.5;"/>
    </defs>
    <g>
     <use style="fill:none;stroke:#008000;stroke-linejoin:miter;stroke-width:1.5;" x="115.690168" xlink:href="#mb70ddee33c" y="285.846447"/>
     <use style="fill:none;stroke:#008000;stroke-linejoin:miter;stroke-width:1.5;" x="179.051194" xlink:href="#mb70ddee33c" y="229.018025"/>
     <use style="fill:none;stroke:#008000;stroke-linejoin:miter;stroke-width:1.5;" x="217.465415" xlink:href="#mb70ddee33c" y="131.893086"/>
     <use style="fill:none;stroke:#008000;stroke-linejoin:miter;stroke-width:1.5;" x="260.00483" xlink:href="#mb70ddee33c" y="35.284769"/>
     <use style="fill:none;stroke:#008000;stroke-linejoin:miter;stroke-width:1.5;" x="260.00483" xlink:href="#mb70ddee33c" y="34.768147"/>
     <use style="fill:none;stroke:#008000;stroke-linejoin:miter;stroke-width:1.5;" x="358.8" xlink:href="#mb70ddee33c" y="34.768147"/>
    </g>
   </g>
   <g id="line2d_49"/>
   <g id="line2d_50">
    <path clip-path="url(#pa0d7405452)" d="M 172.715846 246.583173 
" style="fill:none;stroke:#008000;stroke-linecap:square;stroke-width:1.5;"/>
    <defs>
     <path d="M -12 12 
L 12 -12 
M -12 -12 
L 12 12 
" id="m277f524bc3" style="stroke:#008000;stroke-width:3;"/>
    </defs>
    <g clip-path="url(#pa0d7405452)">
     <use style="fill:#008000;stroke:#008000;stroke-width:3;" x="172.715846" xlink:href="#m277f524bc3" y="246.583173"/>
    </g>
   </g>
   <g id="line2d_51">
    <defs>
     <path d="M 0 1.5 
C 0.397805 1.5 0.77937 1.341951 1.06066 1.06066 
C 1.341951 0.77937 1.5 0.397805 1.5 0 
C 1.5 -0.397805 1.341951 -0.77937 1.06066 -1.06066 
C 0.77937 -1.341951 0.397805 -1.5 0 -1.5 
C -0.397805 -1.5 -0.77937 -1.341951 -1.06066 -1.06066 
C -1.341951 -0.77937 -1.5 -0.397805 -1.5 0 
C -1.5 0.397805 -1.341951 0.77937 -1.06066 1.06066 
C -0.77937 1.341951 -0.397805 1.5 0 1.5 
z
" id="meb08637b03" style="stroke:#0000ff;"/>
    </defs>
    <g>
     <use style="fill:#0000ff;stroke:#0000ff;" x="254.732838" xlink:href="#meb08637b03" y="256.915614"/>
     <use style="fill:#0000ff;stroke:#0000ff;" x="254.732838" xlink:href="#meb08637b03" y="256.915614"/>
    </g>
   </g>
   <g id="line2d_52">
    <path d="M 105.569748 298.245375 
L 105.569748 297.212131 
L 109.247936 297.212131 
L 109.247936 296.695509 
L 110.060263 296.695509 
L 110.060263 295.662265 
L 110.83726 295.662265 
L 110.83726 295.145643 
L 113.967827 295.145643 
L 113.967827 293.595777 
L 114.900288 293.595777 
L 114.900288 293.079155 
L 120.340936 293.079155 
L 120.340936 292.562533 
L 121.63317 292.562533 
L 121.63317 291.529289 
L 122.838219 291.529289 
L 122.838219 289.979423 
L 123.222494 289.979423 
L 123.222494 288.946179 
L 125.19988 288.946179 
L 125.19988 287.912935 
L 125.70324 287.912935 
L 125.70324 287.396313 
L 125.867924 287.396313 
L 125.867924 286.879691 
L 126.353061 286.879691 
L 126.353061 285.329825 
L 128.598873 285.329825 
L 128.598873 284.813203 
L 132.614144 284.813203 
L 132.614144 284.296581 
L 133.167381 284.296581 
L 133.167381 283.779959 
L 133.704001 283.779959 
L 133.704001 283.263337 
L 134.327371 283.263337 
L 134.327371 282.746715 
L 135.126079 282.746715 
L 135.126079 281.713471 
L 137.414126 281.713471 
L 137.414126 281.196849 
L 137.585114 281.196849 
L 137.585114 280.680226 
L 138.088474 280.680226 
L 138.088474 279.13036 
L 138.817886 279.13036 
L 138.817886 278.613738 
L 138.976012 278.613738 
L 138.976012 278.097116 
L 142.207498 278.097116 
L 142.207498 277.580494 
L 144.943101 277.580494 
L 144.943101 277.063872 
L 182.260126 277.063872 
L 182.260126 276.54725 
L 182.578466 276.54725 
L 182.578466 276.030628 
L 183.145541 276.030628 
L 183.145541 275.514006 
L 183.350355 275.514006 
L 183.350355 274.997384 
L 183.546351 274.997384 
L 183.546351 273.96414 
L 183.617681 273.96414 
L 183.617681 273.447518 
L 183.688727 273.447518 
L 183.688727 272.930896 
L 194.568387 272.930896 
L 194.568387 272.414274 
L 194.676753 272.414274 
L 194.676753 271.897652 
L 194.870861 271.897652 
L 194.870861 271.38103 
L 195.137759 271.38103 
L 195.137759 270.347786 
L 195.326948 270.347786 
L 195.326948 269.314542 
L 201.885602 269.314542 
L 201.885602 268.79792 
L 201.962264 268.79792 
L 201.962264 268.281298 
L 206.835773 268.281298 
L 206.835773 267.764676 
L 206.923793 267.764676 
L 206.923793 267.248054 
L 207.074181 267.248054 
L 207.074181 266.731432 
L 207.093326 266.731432 
L 207.093326 265.698188 
L 207.171432 265.698188 
L 207.171432 265.181566 
L 210.954796 265.181566 
L 210.954796 264.664944 
L 211.048445 264.664944 
L 211.048445 264.148322 
L 214.107122 264.148322 
L 214.107122 263.6317 
L 214.166934 263.6317 
L 214.166934 263.115078 
L 214.179809 263.115078 
L 214.179809 262.598456 
L 216.888671 262.598456 
L 216.888671 262.081834 
L 223.142746 262.081834 
L 223.142746 261.565212 
L 224.857993 261.565212 
L 224.857993 261.04859 
L 224.865071 261.04859 
L 224.865071 260.531968 
L 227.82307 260.531968 
L 227.82307 260.015346 
L 235.464458 260.015346 
L 235.464458 259.498724 
L 237.949633 259.498724 
L 237.949633 258.982102 
L 242.07748 258.982102 
L 242.07748 258.46548 
L 246.891234 258.46548 
L 246.891234 257.948858 
L 252.480455 257.948858 
L 252.480455 257.432236 
L 254.732838 257.432236 
L 254.732838 256.915614 
L 358.8 256.915614 
" style="fill:none;stroke:#0000ff;stroke-linecap:square;stroke-width:1.5;"/>
   </g>
   <g id="line2d_53">
    <defs>
     <path d="M 0 -6 
L -1.347084 -1.854102 
L -5.706339 -1.854102 
L -2.179628 0.708204 
L -3.526712 4.854102 
L -0 2.291796 
L 3.526712 4.854102 
L 2.179628 0.708204 
L 5.706339 -1.854102 
L 1.347084 -1.854102 
z
" id="m351eac5b84" style="stroke:#0000ff;stroke-linejoin:bevel;stroke-width:1.5;"/>
    </defs>
    <g>
     <use style="fill:none;stroke:#0000ff;stroke-linejoin:bevel;stroke-width:1.5;" x="201.962264" xlink:href="#m351eac5b84" y="268.79792"/>
     <use style="fill:none;stroke:#0000ff;stroke-linejoin:bevel;stroke-width:1.5;" x="254.732838" xlink:href="#m351eac5b84" y="257.432236"/>
     <use style="fill:none;stroke:#0000ff;stroke-linejoin:bevel;stroke-width:1.5;" x="254.732838" xlink:href="#m351eac5b84" y="256.915614"/>
     <use style="fill:none;stroke:#0000ff;stroke-linejoin:bevel;stroke-width:1.5;" x="254.732838" xlink:href="#m351eac5b84" y="256.915614"/>
     <use style="fill:none;stroke:#0000ff;stroke-linejoin:bevel;stroke-width:1.5;" x="358.8" xlink:href="#m351eac5b84" y="256.915614"/>
    </g>
   </g>
   <g id="line2d_54"/>
   <g id="line2d_55">
    <path clip-path="url(#pa0d7405452)" d="M 181.843337 277.063872 
" style="fill:none;stroke:#0000ff;stroke-linecap:square;stroke-width:1.5;"/>
    <defs>
     <path d="M -12 12 
L 12 -12 
M -12 -12 
L 12 12 
" id="ma1c7b0f2bf" style="stroke:#0000ff;stroke-width:3;"/>
    </defs>
    <g clip-path="url(#pa0d7405452)">
     <use style="fill:#0000ff;stroke:#0000ff;stroke-width:3;" x="181.843337" xlink:href="#ma1c7b0f2bf" y="277.063872"/>
    </g>
   </g>
   <g id="line2d_56">
    <defs>
     <path d="M 0 1.5 
C 0.397805 1.5 0.77937 1.341951 1.06066 1.06066 
C 1.341951 0.77937 1.5 0.397805 1.5 0 
C 1.5 -0.397805 1.341951 -0.77937 1.06066 -1.06066 
C 0.77937 -1.341951 0.397805 -1.5 0 -1.5 
C -0.397805 -1.5 -0.77937 -1.341951 -1.06066 -1.06066 
C -1.341951 -0.77937 -1.5 -0.397805 -1.5 0 
C -1.5 0.397805 -1.341951 0.77937 -1.06066 1.06066 
C -0.77937 1.341951 -0.397805 1.5 0 1.5 
z
" id="m98d79a371c" style="stroke:#000000;"/>
    </defs>
    <g>
     <use style="stroke:#000000;" x="245.917099" xlink:href="#m98d79a371c" y="282.746715"/>
     <use style="stroke:#000000;" x="245.917099" xlink:href="#m98d79a371c" y="282.746715"/>
    </g>
   </g>
   <g id="line2d_57">
    <path d="M 113.318006 298.245375 
L 113.318006 297.728753 
L 122.838219 297.728753 
L 122.838219 296.695509 
L 125.620325 296.695509 
L 125.620325 296.178887 
L 127.285522 296.178887 
L 127.285522 295.662265 
L 127.436309 295.662265 
L 127.436309 295.145643 
L 130.843577 295.145643 
L 130.843577 294.629021 
L 131.868336 294.629021 
L 131.868336 293.595777 
L 134.929724 293.595777 
L 134.929724 293.079155 
L 136.076735 293.079155 
L 136.076735 292.045911 
L 136.215069 292.045911 
L 136.215069 291.012667 
L 138.171006 291.012667 
L 138.171006 289.979423 
L 138.416339 289.979423 
L 138.416339 288.946179 
L 141.808936 288.946179 
L 141.808936 287.912935 
L 206.912375 287.912935 
L 206.912375 286.879691 
L 206.926427 286.879691 
L 206.926427 286.363069 
L 206.997397 286.363069 
L 206.997397 285.846447 
L 214.118866 285.846447 
L 214.118866 285.329825 
L 226.359408 285.329825 
L 226.359408 284.813203 
L 226.374492 284.813203 
L 226.374492 284.296581 
L 237.144801 284.296581 
L 237.144801 283.779959 
L 242.66795 283.779959 
L 242.66795 283.263337 
L 245.917099 283.263337 
L 245.917099 282.746715 
L 358.8 282.746715 
" style="fill:none;stroke:#000000;stroke-linecap:square;stroke-width:1.5;"/>
   </g>
   <g id="line2d_58">
    <defs>
     <path d="M 0 6 
C 1.591219 6 3.117479 5.367802 4.242641 4.242641 
C 5.367802 3.117479 6 1.591219 6 0 
C 6 -1.591219 5.367802 -3.117479 4.242641 -4.242641 
C 3.117479 -5.367802 1.591219 -6 0 -6 
C -1.591219 -6 -3.117479 -5.367802 -4.242641 -4.242641 
C -5.367802 -3.117479 -6 -1.591219 -6 0 
C -6 1.591219 -5.367802 3.117479 -4.242641 4.242641 
C -3.117479 5.367802 -1.591219 6 0 6 
z
" id="m3a84a5898e" style="stroke:#000000;stroke-width:1.5;"/>
    </defs>
    <g>
     <use style="fill:none;stroke:#000000;stroke-width:1.5;" x="141.808936" xlink:href="#m3a84a5898e" y="287.912935"/>
     <use style="fill:none;stroke:#000000;stroke-width:1.5;" x="245.917099" xlink:href="#m3a84a5898e" y="283.263337"/>
     <use style="fill:none;stroke:#000000;stroke-width:1.5;" x="245.917099" xlink:href="#m3a84a5898e" y="282.746715"/>
     <use style="fill:none;stroke:#000000;stroke-width:1.5;" x="245.917099" xlink:href="#m3a84a5898e" y="282.746715"/>
     <use style="fill:none;stroke:#000000;stroke-width:1.5;" x="358.8" xlink:href="#m3a84a5898e" y="282.746715"/>
    </g>
   </g>
   <g id="line2d_59"/>
   <g id="line2d_60">
    <path clip-path="url(#pa0d7405452)" d="M 194.228571 287.912935 
" style="fill:none;stroke:#000000;stroke-linecap:square;stroke-width:1.5;"/>
    <defs>
     <path d="M -12 12 
L 12 -12 
M -12 -12 
L 12 12 
" id="me4ed8b7807" style="stroke:#000000;stroke-width:3;"/>
    </defs>
    <g clip-path="url(#pa0d7405452)">
     <use style="stroke:#000000;stroke-width:3;" x="194.228571" xlink:href="#me4ed8b7807" y="287.912935"/>
    </g>
   </g>
   <g id="line2d_61">
    <defs>
     <path d="M 0 1.5 
C 0.397805 1.5 0.77937 1.341951 1.06066 1.06066 
C 1.341951 0.77937 1.5 0.397805 1.5 0 
C 1.5 -0.397805 1.341951 -0.77937 1.06066 -1.06066 
C 0.77937 -1.341951 0.397805 -1.5 0 -1.5 
C -0.397805 -1.5 -0.77937 -1.341951 -1.06066 -1.06066 
C -1.341951 -0.77937 -1.5 -0.397805 -1.5 0 
C -1.5 0.397805 -1.341951 0.77937 -1.06066 1.06066 
C -0.77937 1.341951 -0.397805 1.5 0 1.5 
z
" id="ma0ca999929" style="stroke:#ff0000;"/>
    </defs>
    <g>
     <use style="fill:#ff0000;stroke:#ff0000;" x="274.238579" xlink:href="#ma0ca999929" y="293.079155"/>
     <use style="fill:#ff0000;stroke:#ff0000;" x="274.238579" xlink:href="#ma0ca999929" y="293.079155"/>
    </g>
   </g>
   <g id="line2d_62">
    <path d="M 219.183687 298.245375 
L 219.183687 297.728753 
L 226.367247 297.728753 
L 226.367247 297.212131 
L 235.445517 297.212131 
L 235.445517 296.695509 
L 241.436505 296.695509 
L 241.436505 296.178887 
L 247.793745 296.178887 
L 247.793745 295.662265 
L 251.045313 295.662265 
L 251.045313 295.145643 
L 259.244909 295.145643 
L 259.244909 294.629021 
L 261.861775 294.629021 
L 261.861775 294.112399 
L 272.536409 294.112399 
L 272.536409 293.595777 
L 274.238579 293.595777 
L 274.238579 293.079155 
L 358.8 293.079155 
" style="fill:none;stroke:#ff0000;stroke-linecap:square;stroke-width:1.5;"/>
   </g>
   <g id="line2d_63">
    <defs>
     <path d="M -6 6 
L 6 6 
L 6 -6 
L -6 -6 
z
" id="m03cd25d2e5" style="stroke:#ff0000;stroke-linejoin:miter;stroke-width:1.5;"/>
    </defs>
    <g>
     <use style="fill:none;stroke:#ff0000;stroke-linejoin:miter;stroke-width:1.5;" x="261.861775" xlink:href="#m03cd25d2e5" y="294.629021"/>
     <use style="fill:none;stroke:#ff0000;stroke-linejoin:miter;stroke-width:1.5;" x="274.238579" xlink:href="#m03cd25d2e5" y="293.595777"/>
     <use style="fill:none;stroke:#ff0000;stroke-linejoin:miter;stroke-width:1.5;" x="274.238579" xlink:href="#m03cd25d2e5" y="293.079155"/>
     <use style="fill:none;stroke:#ff0000;stroke-linejoin:miter;stroke-width:1.5;" x="358.8" xlink:href="#m03cd25d2e5" y="293.079155"/>
    </g>
   </g>
   <g id="line2d_64"/>
   <g id="line2d_65">
    <path clip-path="url(#pa0d7405452)" d="M 206.613806 298.245375 
" style="fill:none;stroke:#ff0000;stroke-linecap:square;stroke-width:1.5;"/>
    <defs>
     <path d="M -12 12 
L 12 -12 
M -12 -12 
L 12 12 
" id="m766bb41043" style="stroke:#ff0000;stroke-width:3;"/>
    </defs>
    <g clip-path="url(#pa0d7405452)">
     <use style="fill:#ff0000;stroke:#ff0000;stroke-width:3;" x="206.613806" xlink:href="#m766bb41043" y="298.245375"/>
    </g>
   </g>
   <g id="line2d_66">
    <path clip-path="url(#pa0d7405452)" d="M 70.8 298.245375 
L 70.8 298.245375 
L 70.8 298.245375 
L 70.8 298.245375 
L 427.92 298.245375 
" style="fill:none;stroke:#bf00bf;stroke-linecap:square;stroke-width:1.5;"/>
   </g>
   <g id="line2d_67">
    <defs>
     <path d="M -0 8.485281 
L 8.485281 0 
L 0 -8.485281 
L -8.485281 -0 
z
" id="m81cdf9adfe" style="stroke:#bf00bf;stroke-linejoin:miter;stroke-width:1.5;"/>
    </defs>
    <g clip-path="url(#pa0d7405452)">
     <use style="fill:none;stroke:#bf00bf;stroke-linejoin:miter;stroke-width:1.5;" x="70.8" xlink:href="#m81cdf9adfe" y="298.245375"/>
     <use style="fill:none;stroke:#bf00bf;stroke-linejoin:miter;stroke-width:1.5;" x="70.8" xlink:href="#m81cdf9adfe" y="298.245375"/>
     <use style="fill:none;stroke:#bf00bf;stroke-linejoin:miter;stroke-width:1.5;" x="111.942857" xlink:href="#m81cdf9adfe" y="298.245375"/>
     <use style="fill:none;stroke:#bf00bf;stroke-linejoin:miter;stroke-width:1.5;" x="153.085714" xlink:href="#m81cdf9adfe" y="298.245375"/>
     <use style="fill:none;stroke:#bf00bf;stroke-linejoin:miter;stroke-width:1.5;" x="194.228571" xlink:href="#m81cdf9adfe" y="298.245375"/>
     <use style="fill:none;stroke:#bf00bf;stroke-linejoin:miter;stroke-width:1.5;" x="235.371429" xlink:href="#m81cdf9adfe" y="298.245375"/>
     <use style="fill:none;stroke:#bf00bf;stroke-linejoin:miter;stroke-width:1.5;" x="276.514286" xlink:href="#m81cdf9adfe" y="298.245375"/>
     <use style="fill:none;stroke:#bf00bf;stroke-linejoin:miter;stroke-width:1.5;" x="317.657143" xlink:href="#m81cdf9adfe" y="298.245375"/>
     <use style="fill:none;stroke:#bf00bf;stroke-linejoin:miter;stroke-width:1.5;" x="358.8" xlink:href="#m81cdf9adfe" y="298.245375"/>
     <use style="fill:none;stroke:#bf00bf;stroke-linejoin:miter;stroke-width:1.5;" x="399.942857" xlink:href="#m81cdf9adfe" y="298.245375"/>
    </g>
   </g>
   <g id="line2d_68"/>
   <g id="line2d_69">
    <path d="M 358.8 298.245375 
L 390.48 292.97583 
" style="fill:none;stroke:#bf00bf;stroke-linecap:square;stroke-width:1.5;"/>
    <g>
     <use style="fill:none;stroke:#bf00bf;stroke-linejoin:miter;stroke-width:1.5;" x="358.8" xlink:href="#m81cdf9adfe" y="298.245375"/>
     <use style="fill:none;stroke:#bf00bf;stroke-linejoin:miter;stroke-width:1.5;" x="390.48" xlink:href="#m81cdf9adfe" y="292.97583"/>
    </g>
   </g>
   <g id="line2d_70">
    <path d="M 358.8 293.079155 
L 390.48 242.388203 
" style="fill:none;stroke:#ff0000;stroke-linecap:square;stroke-width:1.5;"/>
    <g>
     <use style="fill:none;stroke:#ff0000;stroke-linejoin:miter;stroke-width:1.5;" x="358.8" xlink:href="#m03cd25d2e5" y="293.079155"/>
     <use style="fill:none;stroke:#ff0000;stroke-linejoin:miter;stroke-width:1.5;" x="390.48" xlink:href="#m03cd25d2e5" y="242.388203"/>
    </g>
   </g>
   <g id="line2d_71">
    <path d="M 358.8 282.746715 
L 390.48 191.800575 
" style="fill:none;stroke:#000000;stroke-linecap:square;stroke-width:1.5;"/>
    <g>
     <use style="fill:none;stroke:#000000;stroke-width:1.5;" x="358.8" xlink:href="#m3a84a5898e" y="282.746715"/>
     <use style="fill:none;stroke:#000000;stroke-width:1.5;" x="390.48" xlink:href="#m3a84a5898e" y="191.800575"/>
    </g>
   </g>
   <g id="line2d_72">
    <path d="M 358.8 256.915614 
L 390.48 141.212947 
" style="fill:none;stroke:#0000ff;stroke-linecap:square;stroke-width:1.5;"/>
    <g>
     <use style="fill:none;stroke:#0000ff;stroke-linejoin:bevel;stroke-width:1.5;" x="358.8" xlink:href="#m351eac5b84" y="256.915614"/>
     <use style="fill:none;stroke:#0000ff;stroke-linejoin:bevel;stroke-width:1.5;" x="390.48" xlink:href="#m351eac5b84" y="141.212947"/>
    </g>
   </g>
   <g id="line2d_73">
    <path d="M 358.8 34.768147 
L 390.48 90.62532 
" style="fill:none;stroke:#008000;stroke-linecap:square;stroke-width:1.5;"/>
    <g>
     <use style="fill:none;stroke:#008000;stroke-linejoin:miter;stroke-width:1.5;" x="358.8" xlink:href="#mb70ddee33c" y="34.768147"/>
     <use style="fill:none;stroke:#008000;stroke-linejoin:miter;stroke-width:1.5;" x="390.48" xlink:href="#mb70ddee33c" y="90.62532"/>
    </g>
   </g>
   <g id="line2d_74">
    <path d="M 358.8 34.768147 
L 390.48 40.037692 
" style="fill:none;stroke:#00bfbf;stroke-linecap:square;stroke-width:1.5;"/>
    <g>
     <use style="fill:none;stroke:#00bfbf;stroke-width:1.5;" x="358.8" xlink:href="#m62aff0a59e" y="34.768147"/>
     <use style="fill:none;stroke:#00bfbf;stroke-width:1.5;" x="390.48" xlink:href="#m62aff0a59e" y="40.037692"/>
    </g>
   </g>
   <g id="line2d_75">
    <path d="M 358.8 298.245375 
L 358.8 34.768147 
" style="fill:none;stroke:#000000;stroke-linecap:square;stroke-width:1.5;"/>
   </g>
   <g id="patch_3">
    <path d="M 70.8 298.245375 
L 70.8 32.133375 
" style="fill:none;stroke:#000000;stroke-linecap:square;stroke-linejoin:miter;stroke-width:0.8;"/>
   </g>
   <g id="patch_4">
    <path d="M 427.92 298.245375 
L 427.92 32.133375 
" style="fill:none;stroke:#000000;stroke-linecap:square;stroke-linejoin:miter;stroke-width:0.8;"/>
   </g>
   <g id="patch_5">
    <path d="M 70.8 298.245375 
L 427.92 298.245375 
" style="fill:none;stroke:#000000;stroke-linecap:square;stroke-linejoin:miter;stroke-width:0.8;"/>
   </g>
   <g id="patch_6">
    <path d="M 70.8 32.133375 
L 427.92 32.133375 
" style="fill:none;stroke:#000000;stroke-linecap:square;stroke-linejoin:miter;stroke-width:0.8;"/>
   </g>
   <g id="text_14">
    <!-- 40-D -->
    <defs>
     <path d="M 19.671875 64.796875 
L 19.671875 8.109375 
L 31.59375 8.109375 
Q 46.6875 8.109375 53.6875 14.9375 
Q 60.6875 21.78125 60.6875 36.53125 
Q 60.6875 51.171875 53.6875 57.984375 
Q 46.6875 64.796875 31.59375 64.796875 
z
M 9.8125 72.90625 
L 30.078125 72.90625 
Q 51.265625 72.90625 61.171875 64.09375 
Q 71.09375 55.28125 71.09375 36.53125 
Q 71.09375 17.671875 61.125 8.828125 
Q 51.171875 0 30.078125 0 
L 9.8125 0 
z
" id="DejaVuSans-44"/>
    </defs>
    <g transform="translate(396.24 297.114893)scale(0.15 -0.15)">
     <use xlink:href="#DejaVuSans-34"/>
     <use x="63.623047" xlink:href="#DejaVuSans-30"/>
     <use x="127.246094" xlink:href="#DejaVuSans-2d"/>
     <use x="163.330078" xlink:href="#DejaVuSans-44"/>
    </g>
   </g>
   <g id="text_15">
    <!-- 20-D -->
    <g transform="translate(396.24 246.527265)scale(0.15 -0.15)">
     <use xlink:href="#DejaVuSans-32"/>
     <use x="63.623047" xlink:href="#DejaVuSans-30"/>
     <use x="127.246094" xlink:href="#DejaVuSans-2d"/>
     <use x="163.330078" xlink:href="#DejaVuSans-44"/>
    </g>
   </g>
   <g id="text_16">
    <!-- 10-D -->
    <g transform="translate(396.24 195.939637)scale(0.15 -0.15)">
     <use xlink:href="#DejaVuSans-31"/>
     <use x="63.623047" xlink:href="#DejaVuSans-30"/>
     <use x="127.246094" xlink:href="#DejaVuSans-2d"/>
     <use x="163.330078" xlink:href="#DejaVuSans-44"/>
    </g>
   </g>
   <g id="text_17">
    <!-- 5-D -->
    <defs>
     <path d="M 10.796875 72.90625 
L 49.515625 72.90625 
L 49.515625 64.59375 
L 19.828125 64.59375 
L 19.828125 46.734375 
Q 21.96875 47.46875 24.109375 47.828125 
Q 26.265625 48.1875 28.421875 48.1875 
Q 40.625 48.1875 47.75 41.5 
Q 54.890625 34.8125 54.890625 23.390625 
Q 54.890625 11.625 47.5625 5.09375 
Q 40.234375 -1.421875 26.90625 -1.421875 
Q 22.3125 -1.421875 17.546875 -0.640625 
Q 12.796875 0.140625 7.71875 1.703125 
L 7.71875 11.625 
Q 12.109375 9.234375 16.796875 8.0625 
Q 21.484375 6.890625 26.703125 6.890625 
Q 35.15625 6.890625 40.078125 11.328125 
Q 45.015625 15.765625 45.015625 23.390625 
Q 45.015625 31 40.078125 35.4375 
Q 35.15625 39.890625 26.703125 39.890625 
Q 22.75 39.890625 18.8125 39.015625 
Q 14.890625 38.140625 10.796875 36.28125 
z
" id="DejaVuSans-35"/>
    </defs>
    <g transform="translate(396.24 145.35201)scale(0.15 -0.15)">
     <use xlink:href="#DejaVuSans-35"/>
     <use x="63.623047" xlink:href="#DejaVuSans-2d"/>
     <use x="99.707031" xlink:href="#DejaVuSans-44"/>
    </g>
   </g>
   <g id="text_18">
    <!-- 3-D -->
    <defs>
     <path d="M 40.578125 39.3125 
Q 47.65625 37.796875 51.625 33 
Q 55.609375 28.21875 55.609375 21.1875 
Q 55.609375 10.40625 48.1875 4.484375 
Q 40.765625 -1.421875 27.09375 -1.421875 
Q 22.515625 -1.421875 17.65625 -0.515625 
Q 12.796875 0.390625 7.625 2.203125 
L 7.625 11.71875 
Q 11.71875 9.328125 16.59375 8.109375 
Q 21.484375 6.890625 26.8125 6.890625 
Q 36.078125 6.890625 40.9375 10.546875 
Q 45.796875 14.203125 45.796875 21.1875 
Q 45.796875 27.640625 41.28125 31.265625 
Q 36.765625 34.90625 28.71875 34.90625 
L 20.21875 34.90625 
L 20.21875 43.015625 
L 29.109375 43.015625 
Q 36.375 43.015625 40.234375 45.921875 
Q 44.09375 48.828125 44.09375 54.296875 
Q 44.09375 59.90625 40.109375 62.90625 
Q 36.140625 65.921875 28.71875 65.921875 
Q 24.65625 65.921875 20.015625 65.03125 
Q 15.375 64.15625 9.8125 62.3125 
L 9.8125 71.09375 
Q 15.4375 72.65625 20.34375 73.4375 
Q 25.25 74.21875 29.59375 74.21875 
Q 40.828125 74.21875 47.359375 69.109375 
Q 53.90625 64.015625 53.90625 55.328125 
Q 53.90625 49.265625 50.4375 45.09375 
Q 46.96875 40.921875 40.578125 39.3125 
" id="DejaVuSans-33"/>
    </defs>
    <g transform="translate(396.24 94.764382)scale(0.15 -0.15)">
     <use xlink:href="#DejaVuSans-33"/>
     <use x="63.623047" xlink:href="#DejaVuSans-2d"/>
     <use x="99.707031" xlink:href="#DejaVuSans-44"/>
    </g>
   </g>
   <g id="text_19">
    <!-- 2-D -->
    <g transform="translate(396.24 44.176754)scale(0.15 -0.15)">
     <use xlink:href="#DejaVuSans-32"/>
     <use x="63.623047" xlink:href="#DejaVuSans-2d"/>
     <use x="99.707031" xlink:href="#DejaVuSans-44"/>
    </g>
   </g>
   <g id="text_20">
    <!-- bbob - f15 -->
    <defs>
     <path d="M 48.6875 27.296875 
Q 48.6875 37.203125 44.609375 42.84375 
Q 40.53125 48.484375 33.40625 48.484375 
Q 26.265625 48.484375 22.1875 42.84375 
Q 18.109375 37.203125 18.109375 27.296875 
Q 18.109375 17.390625 22.1875 11.75 
Q 26.265625 6.109375 33.40625 6.109375 
Q 40.53125 6.109375 44.609375 11.75 
Q 48.6875 17.390625 48.6875 27.296875 
M 18.109375 46.390625 
Q 20.953125 51.265625 25.265625 53.625 
Q 29.59375 56 35.59375 56 
Q 45.5625 56 51.78125 48.09375 
Q 58.015625 40.1875 58.015625 27.296875 
Q 58.015625 14.40625 51.78125 6.484375 
Q 45.5625 -1.421875 35.59375 -1.421875 
Q 29.59375 -1.421875 25.265625 0.953125 
Q 20.953125 3.328125 18.109375 8.203125 
L 18.109375 0 
L 9.078125 0 
L 9.078125 75.984375 
L 18.109375 75.984375 
z
" id="DejaVuSans-62"/>
    </defs>
    <g transform="translate(74.3712 50.114612)scale(0.1666 -0.1666)">
     <use xlink:href="#DejaVuSans-62"/>
     <use x="63.476562" xlink:href="#DejaVuSans-62"/>
     <use x="126.953125" xlink:href="#DejaVuSans-6f"/>
     <use x="188.134766" xlink:href="#DejaVuSans-62"/>
     <use x="251.611328" xlink:href="#DejaVuSans-20"/>
     <use x="283.398438" xlink:href="#DejaVuSans-2d"/>
     <use x="319.482422" xlink:href="#DejaVuSans-20"/>
     <use x="351.269531" xlink:href="#DejaVuSans-66"/>
     <use x="386.474609" xlink:href="#DejaVuSans-31"/>
     <use x="450.097656" xlink:href="#DejaVuSans-35"/>
    </g>
    <!-- 51 targets in 100..1e-08 -->
    <g transform="translate(74.3712 68.770168)scale(0.1666 -0.1666)">
     <use xlink:href="#DejaVuSans-35"/>
     <use x="63.623047" xlink:href="#DejaVuSans-31"/>
     <use x="127.246094" xlink:href="#DejaVuSans-20"/>
     <use x="159.033203" xlink:href="#DejaVuSans-74"/>
     <use x="198.242188" xlink:href="#DejaVuSans-61"/>
     <use x="259.521484" xlink:href="#DejaVuSans-72"/>
     <use x="300.619141" xlink:href="#DejaVuSans-67"/>
     <use x="364.095703" xlink:href="#DejaVuSans-65"/>
     <use x="425.619141" xlink:href="#DejaVuSans-74"/>
     <use x="464.828125" xlink:href="#DejaVuSans-73"/>
     <use x="516.927734" xlink:href="#DejaVuSans-20"/>
     <use x="548.714844" xlink:href="#DejaVuSans-69"/>
     <use x="576.498047" xlink:href="#DejaVuSans-6e"/>
     <use x="639.876953" xlink:href="#DejaVuSans-20"/>
     <use x="671.664062" xlink:href="#DejaVuSans-31"/>
     <use x="735.287109" xlink:href="#DejaVuSans-30"/>
     <use x="798.910156" xlink:href="#DejaVuSans-30"/>
     <use x="862.533203" xlink:href="#DejaVuSans-2e"/>
     <use x="894.320312" xlink:href="#DejaVuSans-2e"/>
     <use x="926.107422" xlink:href="#DejaVuSans-31"/>
     <use x="989.730469" xlink:href="#DejaVuSans-65"/>
     <use x="1051.253906" xlink:href="#DejaVuSans-2d"/>
     <use x="1087.337891" xlink:href="#DejaVuSans-30"/>
     <use x="1150.960938" xlink:href="#DejaVuSans-38"/>
    </g>
    <!-- 15 instances -->
    <g transform="translate(74.3712 87.425723)scale(0.1666 -0.1666)">
     <use xlink:href="#DejaVuSans-31"/>
     <use x="63.623047" xlink:href="#DejaVuSans-35"/>
     <use x="127.246094" xlink:href="#DejaVuSans-20"/>
     <use x="159.033203" xlink:href="#DejaVuSans-69"/>
     <use x="186.816406" xlink:href="#DejaVuSans-6e"/>
     <use x="250.195312" xlink:href="#DejaVuSans-73"/>
     <use x="302.294922" xlink:href="#DejaVuSans-74"/>
     <use x="341.503906" xlink:href="#DejaVuSans-61"/>
     <use x="402.783203" xlink:href="#DejaVuSans-6e"/>
     <use x="466.162109" xlink:href="#DejaVuSans-63"/>
     <use x="521.142578" xlink:href="#DejaVuSans-65"/>
     <use x="582.666016" xlink:href="#DejaVuSans-73"/>
    </g>
   </g>
   <g id="text_21">
    <!-- v2.1 -->
    <g style="fill:#808080;" transform="translate(238.449063 293.504568)scale(0.1 -0.1)">
     <use xlink:href="#DejaVuSans-76"/>
     <use x="59.179688" xlink:href="#DejaVuSans-32"/>
     <use x="122.802734" xlink:href="#DejaVuSans-2e"/>
     <use x="154.589844" xlink:href="#DejaVuSans-31"/>
    </g>
   </g>
   <g id="text_22">
    <!-- 15 Rastrigin -->
    <defs>
     <path d="M 44.390625 34.1875 
Q 47.5625 33.109375 50.5625 29.59375 
Q 53.5625 26.078125 56.59375 19.921875 
L 66.609375 0 
L 56 0 
L 46.6875 18.703125 
Q 43.0625 26.03125 39.671875 28.421875 
Q 36.28125 30.8125 30.421875 30.8125 
L 19.671875 30.8125 
L 19.671875 0 
L 9.8125 0 
L 9.8125 72.90625 
L 32.078125 72.90625 
Q 44.578125 72.90625 50.734375 67.671875 
Q 56.890625 62.453125 56.890625 51.90625 
Q 56.890625 45.015625 53.6875 40.46875 
Q 50.484375 35.9375 44.390625 34.1875 
M 19.671875 64.796875 
L 19.671875 38.921875 
L 32.078125 38.921875 
Q 39.203125 38.921875 42.84375 42.21875 
Q 46.484375 45.515625 46.484375 51.90625 
Q 46.484375 58.296875 42.84375 61.546875 
Q 39.203125 64.796875 32.078125 64.796875 
z
" id="DejaVuSans-52"/>
    </defs>
    <g transform="translate(176.80875 26.133375)scale(0.24 -0.24)">
     <use xlink:href="#DejaVuSans-31"/>
     <use x="63.623047" xlink:href="#DejaVuSans-35"/>
     <use x="127.246094" xlink:href="#DejaVuSans-20"/>
     <use x="159.033203" xlink:href="#DejaVuSans-52"/>
     <use x="228.484375" xlink:href="#DejaVuSans-61"/>
     <use x="289.763672" xlink:href="#DejaVuSans-73"/>
     <use x="341.863281" xlink:href="#DejaVuSans-74"/>
     <use x="381.072266" xlink:href="#DejaVuSans-72"/>
     <use x="422.185547" xlink:href="#DejaVuSans-69"/>
     <use x="449.96875" xlink:href="#DejaVuSans-67"/>
     <use x="513.445312" xlink:href="#DejaVuSans-69"/>
     <use x="541.228516" xlink:href="#DejaVuSans-6e"/>
    </g>
   </g>
  </g>
 </g>
 <defs>
  <clipPath id="pa0d7405452">
   <rect height="266.112" width="357.12" x="70.8" y="32.133375"/>
  </clipPath>
 </defs>
</svg>
