<?xml version="1.0" encoding="utf-8" standalone="no"?>
<!DOCTYPE svg PUBLIC "-//W3C//DTD SVG 1.1//EN"
  "http://www.w3.org/Graphics/SVG/1.1/DTD/svg11.dtd">
<!-- Created with matplotlib (http://matplotlib.org/) -->
<svg height="353pt" version="1.1" viewBox="0 0 439 353" width="439pt" xmlns="http://www.w3.org/2000/svg" xmlns:xlink="http://www.w3.org/1999/xlink">
 <defs>
  <style type="text/css">
*{stroke-linecap:butt;stroke-linejoin:round;}
  </style>
 </defs>
 <g id="figure_1">
  <g id="patch_1">
   <path d="M 0 353.22225 
L 439.489219 353.22225 
L 439.489219 0 
L 0 0 
z
" style="fill:#ffffff;"/>
  </g>
  <g id="axes_1">
   <g id="patch_2">
    <path d="M 70.8 298.245375 
L 427.92 298.245375 
L 427.92 32.133375 
L 70.8 32.133375 
z
" style="fill:#ffffff;"/>
   </g>
   <g id="matplotlib.axis_1">
    <g id="xtick_1">
     <g id="line2d_1">
      <path clip-path="url(#pd5f9d43942)" d="M 70.8 298.245375 
L 70.8 32.133375 
" style="fill:none;stroke:#b0b0b0;stroke-linecap:square;stroke-width:0.8;"/>
     </g>
     <g id="line2d_2">
      <defs>
       <path d="M 0 0 
L 0 3.5 
" id="ma0d72c5674" style="stroke:#000000;stroke-width:0.8;"/>
      </defs>
      <g>
       <use style="stroke:#000000;stroke-width:0.8;" x="70.8" xlink:href="#ma0d72c5674" y="298.245375"/>
      </g>
     </g>
     <g id="text_1">
      <!-- 0 -->
      <defs>
       <path d="M 31.78125 66.40625 
Q 24.171875 66.40625 20.328125 58.90625 
Q 16.5 51.421875 16.5 36.375 
Q 16.5 21.390625 20.328125 13.890625 
Q 24.171875 6.390625 31.78125 6.390625 
Q 39.453125 6.390625 43.28125 13.890625 
Q 47.125 21.390625 47.125 36.375 
Q 47.125 51.421875 43.28125 58.90625 
Q 39.453125 66.40625 31.78125 66.40625 
M 31.78125 74.21875 
Q 44.046875 74.21875 50.515625 64.515625 
Q 56.984375 54.828125 56.984375 36.375 
Q 56.984375 17.96875 50.515625 8.265625 
Q 44.046875 -1.421875 31.78125 -1.421875 
Q 19.53125 -1.421875 13.0625 8.265625 
Q 6.59375 17.96875 6.59375 36.375 
Q 6.59375 54.828125 13.0625 64.515625 
Q 19.53125 74.21875 31.78125 74.21875 
" id="DejaVuSans-30"/>
      </defs>
      <g transform="translate(64.4375 320.44225)scale(0.2 -0.2)">
       <use xlink:href="#DejaVuSans-30"/>
      </g>
     </g>
    </g>
    <g id="xtick_2">
     <g id="line2d_3">
      <path clip-path="url(#pd5f9d43942)" d="M 153.085714 298.245375 
L 153.085714 32.133375 
" style="fill:none;stroke:#b0b0b0;stroke-linecap:square;stroke-width:0.8;"/>
     </g>
     <g id="line2d_4">
      <g>
       <use style="stroke:#000000;stroke-width:0.8;" x="153.085714" xlink:href="#ma0d72c5674" y="298.245375"/>
      </g>
     </g>
     <g id="text_2">
      <!-- 2 -->
      <defs>
       <path d="M 19.1875 8.296875 
L 53.609375 8.296875 
L 53.609375 0 
L 7.328125 0 
L 7.328125 8.296875 
Q 12.9375 14.109375 22.625 23.890625 
Q 32.328125 33.6875 34.8125 36.53125 
Q 39.546875 41.84375 41.421875 45.53125 
Q 43.3125 49.21875 43.3125 52.78125 
Q 43.3125 58.59375 39.234375 62.25 
Q 35.15625 65.921875 28.609375 65.921875 
Q 23.96875 65.921875 18.8125 64.3125 
Q 13.671875 62.703125 7.8125 59.421875 
L 7.8125 69.390625 
Q 13.765625 71.78125 18.9375 73 
Q 24.125 74.21875 28.421875 74.21875 
Q 39.75 74.21875 46.484375 68.546875 
Q 53.21875 62.890625 53.21875 53.421875 
Q 53.21875 48.921875 51.53125 44.890625 
Q 49.859375 40.875 45.40625 35.40625 
Q 44.1875 33.984375 37.640625 27.21875 
Q 31.109375 20.453125 19.1875 8.296875 
" id="DejaVuSans-32"/>
      </defs>
      <g transform="translate(146.723214 320.44225)scale(0.2 -0.2)">
       <use xlink:href="#DejaVuSans-32"/>
      </g>
     </g>
    </g>
    <g id="xtick_3">
     <g id="line2d_5">
      <path clip-path="url(#pd5f9d43942)" d="M 235.371429 298.245375 
L 235.371429 32.133375 
" style="fill:none;stroke:#b0b0b0;stroke-linecap:square;stroke-width:0.8;"/>
     </g>
     <g id="line2d_6">
      <g>
       <use style="stroke:#000000;stroke-width:0.8;" x="235.371429" xlink:href="#ma0d72c5674" y="298.245375"/>
      </g>
     </g>
     <g id="text_3">
      <!-- 4 -->
      <defs>
       <path d="M 37.796875 64.3125 
L 12.890625 25.390625 
L 37.796875 25.390625 
z
M 35.203125 72.90625 
L 47.609375 72.90625 
L 47.609375 25.390625 
L 58.015625 25.390625 
L 58.015625 17.1875 
L 47.609375 17.1875 
L 47.609375 0 
L 37.796875 0 
L 37.796875 17.1875 
L 4.890625 17.1875 
L 4.890625 26.703125 
z
" id="DejaVuSans-34"/>
      </defs>
      <g transform="translate(229.008929 320.44225)scale(0.2 -0.2)">
       <use xlink:href="#DejaVuSans-34"/>
      </g>
     </g>
    </g>
    <g id="xtick_4">
     <g id="line2d_7">
      <path clip-path="url(#pd5f9d43942)" d="M 317.657143 298.245375 
L 317.657143 32.133375 
" style="fill:none;stroke:#b0b0b0;stroke-linecap:square;stroke-width:0.8;"/>
     </g>
     <g id="line2d_8">
      <g>
       <use style="stroke:#000000;stroke-width:0.8;" x="317.657143" xlink:href="#ma0d72c5674" y="298.245375"/>
      </g>
     </g>
     <g id="text_4">
      <!-- 6 -->
      <defs>
       <path d="M 33.015625 40.375 
Q 26.375 40.375 22.484375 35.828125 
Q 18.609375 31.296875 18.609375 23.390625 
Q 18.609375 15.53125 22.484375 10.953125 
Q 26.375 6.390625 33.015625 6.390625 
Q 39.65625 6.390625 43.53125 10.953125 
Q 47.40625 15.53125 47.40625 23.390625 
Q 47.40625 31.296875 43.53125 35.828125 
Q 39.65625 40.375 33.015625 40.375 
M 52.59375 71.296875 
L 52.59375 62.3125 
Q 48.875 64.0625 45.09375 64.984375 
Q 41.3125 65.921875 37.59375 65.921875 
Q 27.828125 65.921875 22.671875 59.328125 
Q 17.53125 52.734375 16.796875 39.40625 
Q 19.671875 43.65625 24.015625 45.921875 
Q 28.375 48.1875 33.59375 48.1875 
Q 44.578125 48.1875 50.953125 41.515625 
Q 57.328125 34.859375 57.328125 23.390625 
Q 57.328125 12.15625 50.6875 5.359375 
Q 44.046875 -1.421875 33.015625 -1.421875 
Q 20.359375 -1.421875 13.671875 8.265625 
Q 6.984375 17.96875 6.984375 36.375 
Q 6.984375 53.65625 15.1875 63.9375 
Q 23.390625 74.21875 37.203125 74.21875 
Q 40.921875 74.21875 44.703125 73.484375 
Q 48.484375 72.75 52.59375 71.296875 
" id="DejaVuSans-36"/>
      </defs>
      <g transform="translate(311.294643 320.44225)scale(0.2 -0.2)">
       <use xlink:href="#DejaVuSans-36"/>
      </g>
     </g>
    </g>
    <g id="xtick_5">
     <g id="line2d_9">
      <path clip-path="url(#pd5f9d43942)" d="M 399.942857 298.245375 
L 399.942857 32.133375 
" style="fill:none;stroke:#b0b0b0;stroke-linecap:square;stroke-width:0.8;"/>
     </g>
     <g id="line2d_10">
      <g>
       <use style="stroke:#000000;stroke-width:0.8;" x="399.942857" xlink:href="#ma0d72c5674" y="298.245375"/>
      </g>
     </g>
     <g id="text_5">
      <!-- 8 -->
      <defs>
       <path d="M 31.78125 34.625 
Q 24.75 34.625 20.71875 30.859375 
Q 16.703125 27.09375 16.703125 20.515625 
Q 16.703125 13.921875 20.71875 10.15625 
Q 24.75 6.390625 31.78125 6.390625 
Q 38.8125 6.390625 42.859375 10.171875 
Q 46.921875 13.96875 46.921875 20.515625 
Q 46.921875 27.09375 42.890625 30.859375 
Q 38.875 34.625 31.78125 34.625 
M 21.921875 38.8125 
Q 15.578125 40.375 12.03125 44.71875 
Q 8.5 49.078125 8.5 55.328125 
Q 8.5 64.0625 14.71875 69.140625 
Q 20.953125 74.21875 31.78125 74.21875 
Q 42.671875 74.21875 48.875 69.140625 
Q 55.078125 64.0625 55.078125 55.328125 
Q 55.078125 49.078125 51.53125 44.71875 
Q 48 40.375 41.703125 38.8125 
Q 48.828125 37.15625 52.796875 32.3125 
Q 56.78125 27.484375 56.78125 20.515625 
Q 56.78125 9.90625 50.3125 4.234375 
Q 43.84375 -1.421875 31.78125 -1.421875 
Q 19.734375 -1.421875 13.25 4.234375 
Q 6.78125 9.90625 6.78125 20.515625 
Q 6.78125 27.484375 10.78125 32.3125 
Q 14.796875 37.15625 21.921875 38.8125 
M 18.3125 54.390625 
Q 18.3125 48.734375 21.84375 45.5625 
Q 25.390625 42.390625 31.78125 42.390625 
Q 38.140625 42.390625 41.71875 45.5625 
Q 45.3125 48.734375 45.3125 54.390625 
Q 45.3125 60.0625 41.71875 63.234375 
Q 38.140625 66.40625 31.78125 66.40625 
Q 25.390625 66.40625 21.84375 63.234375 
Q 18.3125 60.0625 18.3125 54.390625 
" id="DejaVuSans-38"/>
      </defs>
      <g transform="translate(393.580357 320.44225)scale(0.2 -0.2)">
       <use xlink:href="#DejaVuSans-38"/>
      </g>
     </g>
    </g>
    <g id="xtick_6">
     <g id="line2d_11">
      <defs>
       <path d="M 0 0 
L 0 2 
" id="md2281e3f81" style="stroke:#000000;stroke-width:0.6;"/>
      </defs>
      <g>
       <use style="stroke:#000000;stroke-width:0.6;" x="83.185234" xlink:href="#md2281e3f81" y="298.245375"/>
      </g>
     </g>
    </g>
    <g id="xtick_7">
     <g id="line2d_12">
      <g>
       <use style="stroke:#000000;stroke-width:0.6;" x="95.570468" xlink:href="#md2281e3f81" y="298.245375"/>
      </g>
     </g>
    </g>
    <g id="xtick_8">
     <g id="line2d_13">
      <g>
       <use style="stroke:#000000;stroke-width:0.6;" x="102.815366" xlink:href="#md2281e3f81" y="298.245375"/>
      </g>
     </g>
    </g>
    <g id="xtick_9">
     <g id="line2d_14">
      <g>
       <use style="stroke:#000000;stroke-width:0.6;" x="107.955702" xlink:href="#md2281e3f81" y="298.245375"/>
      </g>
     </g>
    </g>
    <g id="xtick_10">
     <g id="line2d_15">
      <g>
       <use style="stroke:#000000;stroke-width:0.6;" x="165.470948" xlink:href="#md2281e3f81" y="298.245375"/>
      </g>
     </g>
    </g>
    <g id="xtick_11">
     <g id="line2d_16">
      <g>
       <use style="stroke:#000000;stroke-width:0.6;" x="177.856183" xlink:href="#md2281e3f81" y="298.245375"/>
      </g>
     </g>
    </g>
    <g id="xtick_12">
     <g id="line2d_17">
      <g>
       <use style="stroke:#000000;stroke-width:0.6;" x="185.10108" xlink:href="#md2281e3f81" y="298.245375"/>
      </g>
     </g>
    </g>
    <g id="xtick_13">
     <g id="line2d_18">
      <g>
       <use style="stroke:#000000;stroke-width:0.6;" x="190.241417" xlink:href="#md2281e3f81" y="298.245375"/>
      </g>
     </g>
    </g>
    <g id="xtick_14">
     <g id="line2d_19">
      <g>
       <use style="stroke:#000000;stroke-width:0.6;" x="247.756663" xlink:href="#md2281e3f81" y="298.245375"/>
      </g>
     </g>
    </g>
    <g id="xtick_15">
     <g id="line2d_20">
      <g>
       <use style="stroke:#000000;stroke-width:0.6;" x="260.141897" xlink:href="#md2281e3f81" y="298.245375"/>
      </g>
     </g>
    </g>
    <g id="xtick_16">
     <g id="line2d_21">
      <g>
       <use style="stroke:#000000;stroke-width:0.6;" x="267.386794" xlink:href="#md2281e3f81" y="298.245375"/>
      </g>
     </g>
    </g>
    <g id="xtick_17">
     <g id="line2d_22">
      <g>
       <use style="stroke:#000000;stroke-width:0.6;" x="272.527131" xlink:href="#md2281e3f81" y="298.245375"/>
      </g>
     </g>
    </g>
    <g id="xtick_18">
     <g id="line2d_23">
      <g>
       <use style="stroke:#000000;stroke-width:0.6;" x="330.042377" xlink:href="#md2281e3f81" y="298.245375"/>
      </g>
     </g>
    </g>
    <g id="xtick_19">
     <g id="line2d_24">
      <g>
       <use style="stroke:#000000;stroke-width:0.6;" x="342.427611" xlink:href="#md2281e3f81" y="298.245375"/>
      </g>
     </g>
    </g>
    <g id="xtick_20">
     <g id="line2d_25">
      <g>
       <use style="stroke:#000000;stroke-width:0.6;" x="349.672509" xlink:href="#md2281e3f81" y="298.245375"/>
      </g>
     </g>
    </g>
    <g id="xtick_21">
     <g id="line2d_26">
      <g>
       <use style="stroke:#000000;stroke-width:0.6;" x="354.812845" xlink:href="#md2281e3f81" y="298.245375"/>
      </g>
     </g>
    </g>
    <g id="xtick_22">
     <g id="line2d_27">
      <g>
       <use style="stroke:#000000;stroke-width:0.6;" x="412.328091" xlink:href="#md2281e3f81" y="298.245375"/>
      </g>
     </g>
    </g>
    <g id="xtick_23">
     <g id="line2d_28">
      <g>
       <use style="stroke:#000000;stroke-width:0.6;" x="424.713325" xlink:href="#md2281e3f81" y="298.245375"/>
      </g>
     </g>
    </g>
    <g id="text_6">
     <!-- log10 of (# f-evals / dimension) -->
     <defs>
      <path d="M 9.421875 75.984375 
L 18.40625 75.984375 
L 18.40625 0 
L 9.421875 0 
z
" id="DejaVuSans-6c"/>
      <path d="M 30.609375 48.390625 
Q 23.390625 48.390625 19.1875 42.75 
Q 14.984375 37.109375 14.984375 27.296875 
Q 14.984375 17.484375 19.15625 11.84375 
Q 23.34375 6.203125 30.609375 6.203125 
Q 37.796875 6.203125 41.984375 11.859375 
Q 46.1875 17.53125 46.1875 27.296875 
Q 46.1875 37.015625 41.984375 42.703125 
Q 37.796875 48.390625 30.609375 48.390625 
M 30.609375 56 
Q 42.328125 56 49.015625 48.375 
Q 55.71875 40.765625 55.71875 27.296875 
Q 55.71875 13.875 49.015625 6.21875 
Q 42.328125 -1.421875 30.609375 -1.421875 
Q 18.84375 -1.421875 12.171875 6.21875 
Q 5.515625 13.875 5.515625 27.296875 
Q 5.515625 40.765625 12.171875 48.375 
Q 18.84375 56 30.609375 56 
" id="DejaVuSans-6f"/>
      <path d="M 45.40625 27.984375 
Q 45.40625 37.75 41.375 43.109375 
Q 37.359375 48.484375 30.078125 48.484375 
Q 22.859375 48.484375 18.828125 43.109375 
Q 14.796875 37.75 14.796875 27.984375 
Q 14.796875 18.265625 18.828125 12.890625 
Q 22.859375 7.515625 30.078125 7.515625 
Q 37.359375 7.515625 41.375 12.890625 
Q 45.40625 18.265625 45.40625 27.984375 
M 54.390625 6.78125 
Q 54.390625 -7.171875 48.1875 -13.984375 
Q 42 -20.796875 29.203125 -20.796875 
Q 24.46875 -20.796875 20.265625 -20.09375 
Q 16.0625 -19.390625 12.109375 -17.921875 
L 12.109375 -9.1875 
Q 16.0625 -11.328125 19.921875 -12.34375 
Q 23.78125 -13.375 27.78125 -13.375 
Q 36.625 -13.375 41.015625 -8.765625 
Q 45.40625 -4.15625 45.40625 5.171875 
L 45.40625 9.625 
Q 42.625 4.78125 38.28125 2.390625 
Q 33.9375 0 27.875 0 
Q 17.828125 0 11.671875 7.65625 
Q 5.515625 15.328125 5.515625 27.984375 
Q 5.515625 40.671875 11.671875 48.328125 
Q 17.828125 56 27.875 56 
Q 33.9375 56 38.28125 53.609375 
Q 42.625 51.21875 45.40625 46.390625 
L 45.40625 54.6875 
L 54.390625 54.6875 
z
" id="DejaVuSans-67"/>
      <path d="M 12.40625 8.296875 
L 28.515625 8.296875 
L 28.515625 63.921875 
L 10.984375 60.40625 
L 10.984375 69.390625 
L 28.421875 72.90625 
L 38.28125 72.90625 
L 38.28125 8.296875 
L 54.390625 8.296875 
L 54.390625 0 
L 12.40625 0 
z
" id="DejaVuSans-31"/>
      <path id="DejaVuSans-20"/>
      <path d="M 37.109375 75.984375 
L 37.109375 68.5 
L 28.515625 68.5 
Q 23.6875 68.5 21.796875 66.546875 
Q 19.921875 64.59375 19.921875 59.515625 
L 19.921875 54.6875 
L 34.71875 54.6875 
L 34.71875 47.703125 
L 19.921875 47.703125 
L 19.921875 0 
L 10.890625 0 
L 10.890625 47.703125 
L 2.296875 47.703125 
L 2.296875 54.6875 
L 10.890625 54.6875 
L 10.890625 58.5 
Q 10.890625 67.625 15.140625 71.796875 
Q 19.390625 75.984375 28.609375 75.984375 
z
" id="DejaVuSans-66"/>
      <path d="M 31 75.875 
Q 24.46875 64.65625 21.28125 53.65625 
Q 18.109375 42.671875 18.109375 31.390625 
Q 18.109375 20.125 21.3125 9.0625 
Q 24.515625 -2 31 -13.1875 
L 23.1875 -13.1875 
Q 15.875 -1.703125 12.234375 9.375 
Q 8.59375 20.453125 8.59375 31.390625 
Q 8.59375 42.28125 12.203125 53.3125 
Q 15.828125 64.359375 23.1875 75.875 
z
" id="DejaVuSans-28"/>
      <path d="M 51.125 44 
L 36.921875 44 
L 32.8125 27.6875 
L 47.125 27.6875 
z
M 43.796875 71.78125 
L 38.71875 51.515625 
L 52.984375 51.515625 
L 58.109375 71.78125 
L 65.921875 71.78125 
L 60.890625 51.515625 
L 76.125 51.515625 
L 76.125 44 
L 58.984375 44 
L 54.984375 27.6875 
L 70.515625 27.6875 
L 70.515625 20.21875 
L 53.078125 20.21875 
L 48 0 
L 40.1875 0 
L 45.21875 20.21875 
L 30.90625 20.21875 
L 25.875 0 
L 18.015625 0 
L 23.09375 20.21875 
L 7.71875 20.21875 
L 7.71875 27.6875 
L 24.90625 27.6875 
L 29 44 
L 13.28125 44 
L 13.28125 51.515625 
L 30.90625 51.515625 
L 35.890625 71.78125 
z
" id="DejaVuSans-23"/>
      <path d="M 4.890625 31.390625 
L 31.203125 31.390625 
L 31.203125 23.390625 
L 4.890625 23.390625 
z
" id="DejaVuSans-2d"/>
      <path d="M 56.203125 29.59375 
L 56.203125 25.203125 
L 14.890625 25.203125 
Q 15.484375 15.921875 20.484375 11.0625 
Q 25.484375 6.203125 34.421875 6.203125 
Q 39.59375 6.203125 44.453125 7.46875 
Q 49.3125 8.734375 54.109375 11.28125 
L 54.109375 2.78125 
Q 49.265625 0.734375 44.1875 -0.34375 
Q 39.109375 -1.421875 33.890625 -1.421875 
Q 20.796875 -1.421875 13.15625 6.1875 
Q 5.515625 13.8125 5.515625 26.8125 
Q 5.515625 40.234375 12.765625 48.109375 
Q 20.015625 56 32.328125 56 
Q 43.359375 56 49.78125 48.890625 
Q 56.203125 41.796875 56.203125 29.59375 
M 47.21875 32.234375 
Q 47.125 39.59375 43.09375 43.984375 
Q 39.0625 48.390625 32.421875 48.390625 
Q 24.90625 48.390625 20.390625 44.140625 
Q 15.875 39.890625 15.1875 32.171875 
z
" id="DejaVuSans-65"/>
      <path d="M 2.984375 54.6875 
L 12.5 54.6875 
L 29.59375 8.796875 
L 46.6875 54.6875 
L 56.203125 54.6875 
L 35.6875 0 
L 23.484375 0 
z
" id="DejaVuSans-76"/>
      <path d="M 34.28125 27.484375 
Q 23.390625 27.484375 19.1875 25 
Q 14.984375 22.515625 14.984375 16.5 
Q 14.984375 11.71875 18.140625 8.90625 
Q 21.296875 6.109375 26.703125 6.109375 
Q 34.1875 6.109375 38.703125 11.40625 
Q 43.21875 16.703125 43.21875 25.484375 
L 43.21875 27.484375 
z
M 52.203125 31.203125 
L 52.203125 0 
L 43.21875 0 
L 43.21875 8.296875 
Q 40.140625 3.328125 35.546875 0.953125 
Q 30.953125 -1.421875 24.3125 -1.421875 
Q 15.921875 -1.421875 10.953125 3.296875 
Q 6 8.015625 6 15.921875 
Q 6 25.140625 12.171875 29.828125 
Q 18.359375 34.515625 30.609375 34.515625 
L 43.21875 34.515625 
L 43.21875 35.40625 
Q 43.21875 41.609375 39.140625 45 
Q 35.0625 48.390625 27.6875 48.390625 
Q 23 48.390625 18.546875 47.265625 
Q 14.109375 46.140625 10.015625 43.890625 
L 10.015625 52.203125 
Q 14.9375 54.109375 19.578125 55.046875 
Q 24.21875 56 28.609375 56 
Q 40.484375 56 46.34375 49.84375 
Q 52.203125 43.703125 52.203125 31.203125 
" id="DejaVuSans-61"/>
      <path d="M 44.28125 53.078125 
L 44.28125 44.578125 
Q 40.484375 46.53125 36.375 47.5 
Q 32.28125 48.484375 27.875 48.484375 
Q 21.1875 48.484375 17.84375 46.4375 
Q 14.5 44.390625 14.5 40.28125 
Q 14.5 37.15625 16.890625 35.375 
Q 19.28125 33.59375 26.515625 31.984375 
L 29.59375 31.296875 
Q 39.15625 29.25 43.1875 25.515625 
Q 47.21875 21.78125 47.21875 15.09375 
Q 47.21875 7.46875 41.1875 3.015625 
Q 35.15625 -1.421875 24.609375 -1.421875 
Q 20.21875 -1.421875 15.453125 -0.5625 
Q 10.6875 0.296875 5.421875 2 
L 5.421875 11.28125 
Q 10.40625 8.6875 15.234375 7.390625 
Q 20.0625 6.109375 24.8125 6.109375 
Q 31.15625 6.109375 34.5625 8.28125 
Q 37.984375 10.453125 37.984375 14.40625 
Q 37.984375 18.0625 35.515625 20.015625 
Q 33.0625 21.96875 24.703125 23.78125 
L 21.578125 24.515625 
Q 13.234375 26.265625 9.515625 29.90625 
Q 5.8125 33.546875 5.8125 39.890625 
Q 5.8125 47.609375 11.28125 51.796875 
Q 16.75 56 26.8125 56 
Q 31.78125 56 36.171875 55.265625 
Q 40.578125 54.546875 44.28125 53.078125 
" id="DejaVuSans-73"/>
      <path d="M 25.390625 72.90625 
L 33.6875 72.90625 
L 8.296875 -9.28125 
L 0 -9.28125 
z
" id="DejaVuSans-2f"/>
      <path d="M 45.40625 46.390625 
L 45.40625 75.984375 
L 54.390625 75.984375 
L 54.390625 0 
L 45.40625 0 
L 45.40625 8.203125 
Q 42.578125 3.328125 38.25 0.953125 
Q 33.9375 -1.421875 27.875 -1.421875 
Q 17.96875 -1.421875 11.734375 6.484375 
Q 5.515625 14.40625 5.515625 27.296875 
Q 5.515625 40.1875 11.734375 48.09375 
Q 17.96875 56 27.875 56 
Q 33.9375 56 38.25 53.625 
Q 42.578125 51.265625 45.40625 46.390625 
M 14.796875 27.296875 
Q 14.796875 17.390625 18.875 11.75 
Q 22.953125 6.109375 30.078125 6.109375 
Q 37.203125 6.109375 41.296875 11.75 
Q 45.40625 17.390625 45.40625 27.296875 
Q 45.40625 37.203125 41.296875 42.84375 
Q 37.203125 48.484375 30.078125 48.484375 
Q 22.953125 48.484375 18.875 42.84375 
Q 14.796875 37.203125 14.796875 27.296875 
" id="DejaVuSans-64"/>
      <path d="M 9.421875 54.6875 
L 18.40625 54.6875 
L 18.40625 0 
L 9.421875 0 
z
M 9.421875 75.984375 
L 18.40625 75.984375 
L 18.40625 64.59375 
L 9.421875 64.59375 
z
" id="DejaVuSans-69"/>
      <path d="M 52 44.1875 
Q 55.375 50.25 60.0625 53.125 
Q 64.75 56 71.09375 56 
Q 79.640625 56 84.28125 50.015625 
Q 88.921875 44.046875 88.921875 33.015625 
L 88.921875 0 
L 79.890625 0 
L 79.890625 32.71875 
Q 79.890625 40.578125 77.09375 44.375 
Q 74.3125 48.1875 68.609375 48.1875 
Q 61.625 48.1875 57.5625 43.546875 
Q 53.515625 38.921875 53.515625 30.90625 
L 53.515625 0 
L 44.484375 0 
L 44.484375 32.71875 
Q 44.484375 40.625 41.703125 44.40625 
Q 38.921875 48.1875 33.109375 48.1875 
Q 26.21875 48.1875 22.15625 43.53125 
Q 18.109375 38.875 18.109375 30.90625 
L 18.109375 0 
L 9.078125 0 
L 9.078125 54.6875 
L 18.109375 54.6875 
L 18.109375 46.1875 
Q 21.1875 51.21875 25.484375 53.609375 
Q 29.78125 56 35.6875 56 
Q 41.65625 56 45.828125 52.96875 
Q 50 49.953125 52 44.1875 
" id="DejaVuSans-6d"/>
      <path d="M 54.890625 33.015625 
L 54.890625 0 
L 45.90625 0 
L 45.90625 32.71875 
Q 45.90625 40.484375 42.875 44.328125 
Q 39.84375 48.1875 33.796875 48.1875 
Q 26.515625 48.1875 22.3125 43.546875 
Q 18.109375 38.921875 18.109375 30.90625 
L 18.109375 0 
L 9.078125 0 
L 9.078125 54.6875 
L 18.109375 54.6875 
L 18.109375 46.1875 
Q 21.34375 51.125 25.703125 53.5625 
Q 30.078125 56 35.796875 56 
Q 45.21875 56 50.046875 50.171875 
Q 54.890625 44.34375 54.890625 33.015625 
" id="DejaVuSans-6e"/>
      <path d="M 8.015625 75.875 
L 15.828125 75.875 
Q 23.140625 64.359375 26.78125 53.3125 
Q 30.421875 42.28125 30.421875 31.390625 
Q 30.421875 20.453125 26.78125 9.375 
Q 23.140625 -1.703125 15.828125 -13.1875 
L 8.015625 -13.1875 
Q 14.5 -2 17.703125 9.0625 
Q 20.90625 20.125 20.90625 31.390625 
Q 20.90625 42.671875 17.703125 53.65625 
Q 14.5 64.65625 8.015625 75.875 
" id="DejaVuSans-29"/>
     </defs>
     <g transform="translate(107.015156 342.278812)scale(0.18 -0.18)">
      <use xlink:href="#DejaVuSans-6c"/>
      <use x="27.783203" xlink:href="#DejaVuSans-6f"/>
      <use x="88.964844" xlink:href="#DejaVuSans-67"/>
      <use x="152.441406" xlink:href="#DejaVuSans-31"/>
      <use x="216.064453" xlink:href="#DejaVuSans-30"/>
      <use x="279.6875" xlink:href="#DejaVuSans-20"/>
      <use x="311.474609" xlink:href="#DejaVuSans-6f"/>
      <use x="372.65625" xlink:href="#DejaVuSans-66"/>
      <use x="407.861328" xlink:href="#DejaVuSans-20"/>
      <use x="439.648438" xlink:href="#DejaVuSans-28"/>
      <use x="478.662109" xlink:href="#DejaVuSans-23"/>
      <use x="562.451172" xlink:href="#DejaVuSans-20"/>
      <use x="594.238281" xlink:href="#DejaVuSans-66"/>
      <use x="629.365234" xlink:href="#DejaVuSans-2d"/>
      <use x="665.449219" xlink:href="#DejaVuSans-65"/>
      <use x="726.972656" xlink:href="#DejaVuSans-76"/>
      <use x="786.152344" xlink:href="#DejaVuSans-61"/>
      <use x="847.431641" xlink:href="#DejaVuSans-6c"/>
      <use x="875.214844" xlink:href="#DejaVuSans-73"/>
      <use x="927.314453" xlink:href="#DejaVuSans-20"/>
      <use x="959.101562" xlink:href="#DejaVuSans-2f"/>
      <use x="992.792969" xlink:href="#DejaVuSans-20"/>
      <use x="1024.580078" xlink:href="#DejaVuSans-64"/>
      <use x="1088.056641" xlink:href="#DejaVuSans-69"/>
      <use x="1115.839844" xlink:href="#DejaVuSans-6d"/>
      <use x="1213.251953" xlink:href="#DejaVuSans-65"/>
      <use x="1274.775391" xlink:href="#DejaVuSans-6e"/>
      <use x="1338.154297" xlink:href="#DejaVuSans-73"/>
      <use x="1390.253906" xlink:href="#DejaVuSans-69"/>
      <use x="1418.037109" xlink:href="#DejaVuSans-6f"/>
      <use x="1479.21875" xlink:href="#DejaVuSans-6e"/>
      <use x="1542.597656" xlink:href="#DejaVuSans-29"/>
     </g>
    </g>
   </g>
   <g id="matplotlib.axis_2">
    <g id="ytick_1">
     <g id="line2d_29">
      <path clip-path="url(#pd5f9d43942)" d="M 70.8 298.245375 
L 427.92 298.245375 
" style="fill:none;stroke:#b0b0b0;stroke-linecap:square;stroke-width:0.8;"/>
     </g>
     <g id="line2d_30">
      <defs>
       <path d="M 0 0 
L -3.5 0 
" id="m3b3cabf608" style="stroke:#000000;stroke-width:0.8;"/>
      </defs>
      <g>
       <use style="stroke:#000000;stroke-width:0.8;" x="70.8" xlink:href="#m3b3cabf608" y="298.245375"/>
      </g>
     </g>
     <g id="text_7">
      <!-- 0.0 -->
      <defs>
       <path d="M 10.6875 12.40625 
L 21 12.40625 
L 21 0 
L 10.6875 0 
z
" id="DejaVuSans-2e"/>
      </defs>
      <g transform="translate(31.99375 305.843812)scale(0.2 -0.2)">
       <use xlink:href="#DejaVuSans-30"/>
       <use x="63.623047" xlink:href="#DejaVuSans-2e"/>
       <use x="95.410156" xlink:href="#DejaVuSans-30"/>
      </g>
     </g>
    </g>
    <g id="ytick_2">
     <g id="line2d_31">
      <path clip-path="url(#pd5f9d43942)" d="M 70.8 245.549929 
L 427.92 245.549929 
" style="fill:none;stroke:#b0b0b0;stroke-linecap:square;stroke-width:0.8;"/>
     </g>
     <g id="line2d_32">
      <g>
       <use style="stroke:#000000;stroke-width:0.8;" x="70.8" xlink:href="#m3b3cabf608" y="245.549929"/>
      </g>
     </g>
     <g id="text_8">
      <!-- 0.2 -->
      <g transform="translate(31.99375 253.148367)scale(0.2 -0.2)">
       <use xlink:href="#DejaVuSans-30"/>
       <use x="63.623047" xlink:href="#DejaVuSans-2e"/>
       <use x="95.410156" xlink:href="#DejaVuSans-32"/>
      </g>
     </g>
    </g>
    <g id="ytick_3">
     <g id="line2d_33">
      <path clip-path="url(#pd5f9d43942)" d="M 70.8 192.854484 
L 427.92 192.854484 
" style="fill:none;stroke:#b0b0b0;stroke-linecap:square;stroke-width:0.8;"/>
     </g>
     <g id="line2d_34">
      <g>
       <use style="stroke:#000000;stroke-width:0.8;" x="70.8" xlink:href="#m3b3cabf608" y="192.854484"/>
      </g>
     </g>
     <g id="text_9">
      <!-- 0.4 -->
      <g transform="translate(31.99375 200.452921)scale(0.2 -0.2)">
       <use xlink:href="#DejaVuSans-30"/>
       <use x="63.623047" xlink:href="#DejaVuSans-2e"/>
       <use x="95.410156" xlink:href="#DejaVuSans-34"/>
      </g>
     </g>
    </g>
    <g id="ytick_4">
     <g id="line2d_35">
      <path clip-path="url(#pd5f9d43942)" d="M 70.8 140.159038 
L 427.92 140.159038 
" style="fill:none;stroke:#b0b0b0;stroke-linecap:square;stroke-width:0.8;"/>
     </g>
     <g id="line2d_36">
      <g>
       <use style="stroke:#000000;stroke-width:0.8;" x="70.8" xlink:href="#m3b3cabf608" y="140.159038"/>
      </g>
     </g>
     <g id="text_10">
      <!-- 0.6 -->
      <g transform="translate(31.99375 147.757476)scale(0.2 -0.2)">
       <use xlink:href="#DejaVuSans-30"/>
       <use x="63.623047" xlink:href="#DejaVuSans-2e"/>
       <use x="95.410156" xlink:href="#DejaVuSans-36"/>
      </g>
     </g>
    </g>
    <g id="ytick_5">
     <g id="line2d_37">
      <path clip-path="url(#pd5f9d43942)" d="M 70.8 87.463593 
L 427.92 87.463593 
" style="fill:none;stroke:#b0b0b0;stroke-linecap:square;stroke-width:0.8;"/>
     </g>
     <g id="line2d_38">
      <g>
       <use style="stroke:#000000;stroke-width:0.8;" x="70.8" xlink:href="#m3b3cabf608" y="87.463593"/>
      </g>
     </g>
     <g id="text_11">
      <!-- 0.8 -->
      <g transform="translate(31.99375 95.06203)scale(0.2 -0.2)">
       <use xlink:href="#DejaVuSans-30"/>
       <use x="63.623047" xlink:href="#DejaVuSans-2e"/>
       <use x="95.410156" xlink:href="#DejaVuSans-38"/>
      </g>
     </g>
    </g>
    <g id="ytick_6">
     <g id="line2d_39">
      <path clip-path="url(#pd5f9d43942)" d="M 70.8 34.768147 
L 427.92 34.768147 
" style="fill:none;stroke:#b0b0b0;stroke-linecap:square;stroke-width:0.8;"/>
     </g>
     <g id="line2d_40">
      <g>
       <use style="stroke:#000000;stroke-width:0.8;" x="70.8" xlink:href="#m3b3cabf608" y="34.768147"/>
      </g>
     </g>
     <g id="text_12">
      <!-- 1.0 -->
      <g transform="translate(31.99375 42.366585)scale(0.2 -0.2)">
       <use xlink:href="#DejaVuSans-31"/>
       <use x="63.623047" xlink:href="#DejaVuSans-2e"/>
       <use x="95.410156" xlink:href="#DejaVuSans-30"/>
      </g>
     </g>
    </g>
    <g id="text_13">
     <!-- Proportion of function+target pairs -->
     <defs>
      <path d="M 19.671875 64.796875 
L 19.671875 37.40625 
L 32.078125 37.40625 
Q 38.96875 37.40625 42.71875 40.96875 
Q 46.484375 44.53125 46.484375 51.125 
Q 46.484375 57.671875 42.71875 61.234375 
Q 38.96875 64.796875 32.078125 64.796875 
z
M 9.8125 72.90625 
L 32.078125 72.90625 
Q 44.34375 72.90625 50.609375 67.359375 
Q 56.890625 61.8125 56.890625 51.125 
Q 56.890625 40.328125 50.609375 34.8125 
Q 44.34375 29.296875 32.078125 29.296875 
L 19.671875 29.296875 
L 19.671875 0 
L 9.8125 0 
z
" id="DejaVuSans-50"/>
      <path d="M 41.109375 46.296875 
Q 39.59375 47.171875 37.8125 47.578125 
Q 36.03125 48 33.890625 48 
Q 26.265625 48 22.1875 43.046875 
Q 18.109375 38.09375 18.109375 28.8125 
L 18.109375 0 
L 9.078125 0 
L 9.078125 54.6875 
L 18.109375 54.6875 
L 18.109375 46.1875 
Q 20.953125 51.171875 25.484375 53.578125 
Q 30.03125 56 36.53125 56 
Q 37.453125 56 38.578125 55.875 
Q 39.703125 55.765625 41.0625 55.515625 
z
" id="DejaVuSans-72"/>
      <path d="M 18.109375 8.203125 
L 18.109375 -20.796875 
L 9.078125 -20.796875 
L 9.078125 54.6875 
L 18.109375 54.6875 
L 18.109375 46.390625 
Q 20.953125 51.265625 25.265625 53.625 
Q 29.59375 56 35.59375 56 
Q 45.5625 56 51.78125 48.09375 
Q 58.015625 40.1875 58.015625 27.296875 
Q 58.015625 14.40625 51.78125 6.484375 
Q 45.5625 -1.421875 35.59375 -1.421875 
Q 29.59375 -1.421875 25.265625 0.953125 
Q 20.953125 3.328125 18.109375 8.203125 
M 48.6875 27.296875 
Q 48.6875 37.203125 44.609375 42.84375 
Q 40.53125 48.484375 33.40625 48.484375 
Q 26.265625 48.484375 22.1875 42.84375 
Q 18.109375 37.203125 18.109375 27.296875 
Q 18.109375 17.390625 22.1875 11.75 
Q 26.265625 6.109375 33.40625 6.109375 
Q 40.53125 6.109375 44.609375 11.75 
Q 48.6875 17.390625 48.6875 27.296875 
" id="DejaVuSans-70"/>
      <path d="M 18.3125 70.21875 
L 18.3125 54.6875 
L 36.8125 54.6875 
L 36.8125 47.703125 
L 18.3125 47.703125 
L 18.3125 18.015625 
Q 18.3125 11.328125 20.140625 9.421875 
Q 21.96875 7.515625 27.59375 7.515625 
L 36.8125 7.515625 
L 36.8125 0 
L 27.59375 0 
Q 17.1875 0 13.234375 3.875 
Q 9.28125 7.765625 9.28125 18.015625 
L 9.28125 47.703125 
L 2.6875 47.703125 
L 2.6875 54.6875 
L 9.28125 54.6875 
L 9.28125 70.21875 
z
" id="DejaVuSans-74"/>
      <path d="M 8.5 21.578125 
L 8.5 54.6875 
L 17.484375 54.6875 
L 17.484375 21.921875 
Q 17.484375 14.15625 20.5 10.265625 
Q 23.53125 6.390625 29.59375 6.390625 
Q 36.859375 6.390625 41.078125 11.03125 
Q 45.3125 15.671875 45.3125 23.6875 
L 45.3125 54.6875 
L 54.296875 54.6875 
L 54.296875 0 
L 45.3125 0 
L 45.3125 8.40625 
Q 42.046875 3.421875 37.71875 1 
Q 33.40625 -1.421875 27.6875 -1.421875 
Q 18.265625 -1.421875 13.375 4.4375 
Q 8.5 10.296875 8.5 21.578125 
M 31.109375 56 
z
" id="DejaVuSans-75"/>
      <path d="M 48.78125 52.59375 
L 48.78125 44.1875 
Q 44.96875 46.296875 41.140625 47.34375 
Q 37.3125 48.390625 33.40625 48.390625 
Q 24.65625 48.390625 19.8125 42.84375 
Q 14.984375 37.3125 14.984375 27.296875 
Q 14.984375 17.28125 19.8125 11.734375 
Q 24.65625 6.203125 33.40625 6.203125 
Q 37.3125 6.203125 41.140625 7.25 
Q 44.96875 8.296875 48.78125 10.40625 
L 48.78125 2.09375 
Q 45.015625 0.34375 40.984375 -0.53125 
Q 36.96875 -1.421875 32.421875 -1.421875 
Q 20.0625 -1.421875 12.78125 6.34375 
Q 5.515625 14.109375 5.515625 27.296875 
Q 5.515625 40.671875 12.859375 48.328125 
Q 20.21875 56 33.015625 56 
Q 37.15625 56 41.109375 55.140625 
Q 45.0625 54.296875 48.78125 52.59375 
" id="DejaVuSans-63"/>
      <path d="M 46 62.703125 
L 46 35.5 
L 73.1875 35.5 
L 73.1875 27.203125 
L 46 27.203125 
L 46 0 
L 37.796875 0 
L 37.796875 27.203125 
L 10.59375 27.203125 
L 10.59375 35.5 
L 37.796875 35.5 
L 37.796875 62.703125 
z
" id="DejaVuSans-2b"/>
     </defs>
     <g transform="translate(24.250312 323.17875)rotate(-90)scale(0.18 -0.18)">
      <use xlink:href="#DejaVuSans-50"/>
      <use x="60.287109" xlink:href="#DejaVuSans-72"/>
      <use x="101.369141" xlink:href="#DejaVuSans-6f"/>
      <use x="162.550781" xlink:href="#DejaVuSans-70"/>
      <use x="226.027344" xlink:href="#DejaVuSans-6f"/>
      <use x="287.208984" xlink:href="#DejaVuSans-72"/>
      <use x="328.322266" xlink:href="#DejaVuSans-74"/>
      <use x="367.53125" xlink:href="#DejaVuSans-69"/>
      <use x="395.314453" xlink:href="#DejaVuSans-6f"/>
      <use x="456.496094" xlink:href="#DejaVuSans-6e"/>
      <use x="519.875" xlink:href="#DejaVuSans-20"/>
      <use x="551.662109" xlink:href="#DejaVuSans-6f"/>
      <use x="612.84375" xlink:href="#DejaVuSans-66"/>
      <use x="648.048828" xlink:href="#DejaVuSans-20"/>
      <use x="679.835938" xlink:href="#DejaVuSans-66"/>
      <use x="715.041016" xlink:href="#DejaVuSans-75"/>
      <use x="778.419922" xlink:href="#DejaVuSans-6e"/>
      <use x="841.798828" xlink:href="#DejaVuSans-63"/>
      <use x="896.779297" xlink:href="#DejaVuSans-74"/>
      <use x="935.988281" xlink:href="#DejaVuSans-69"/>
      <use x="963.771484" xlink:href="#DejaVuSans-6f"/>
      <use x="1024.953125" xlink:href="#DejaVuSans-6e"/>
      <use x="1088.332031" xlink:href="#DejaVuSans-2b"/>
      <use x="1172.121094" xlink:href="#DejaVuSans-74"/>
      <use x="1211.330078" xlink:href="#DejaVuSans-61"/>
      <use x="1272.609375" xlink:href="#DejaVuSans-72"/>
      <use x="1313.707031" xlink:href="#DejaVuSans-67"/>
      <use x="1377.183594" xlink:href="#DejaVuSans-65"/>
      <use x="1438.707031" xlink:href="#DejaVuSans-74"/>
      <use x="1477.916016" xlink:href="#DejaVuSans-20"/>
      <use x="1509.703125" xlink:href="#DejaVuSans-70"/>
      <use x="1573.179688" xlink:href="#DejaVuSans-61"/>
      <use x="1634.458984" xlink:href="#DejaVuSans-69"/>
      <use x="1662.242188" xlink:href="#DejaVuSans-72"/>
      <use x="1703.355469" xlink:href="#DejaVuSans-73"/>
     </g>
    </g>
   </g>
   <g id="line2d_41">
    <defs>
     <path d="M 0 1.5 
C 0.397805 1.5 0.77937 1.341951 1.06066 1.06066 
C 1.341951 0.77937 1.5 0.397805 1.5 0 
C 1.5 -0.397805 1.341951 -0.77937 1.06066 -1.06066 
C 0.77937 -1.341951 0.397805 -1.5 0 -1.5 
C -0.397805 -1.5 -0.77937 -1.341951 -1.06066 -1.06066 
C -1.341951 -0.77937 -1.5 -0.397805 -1.5 0 
C -1.5 0.397805 -1.341951 0.77937 -1.06066 1.06066 
C -0.77937 1.341951 -0.397805 1.5 0 1.5 
z
" id="mc628ce44b3" style="stroke:#00bfbf;"/>
    </defs>
    <g>
     <use style="fill:#00bfbf;stroke:#00bfbf;" x="237.790074" xlink:href="#mc628ce44b3" y="153.591211"/>
     <use style="fill:#00bfbf;stroke:#00bfbf;" x="237.790074" xlink:href="#mc628ce44b3" y="153.591211"/>
    </g>
   </g>
   <g id="line2d_42">
    <path d="M 58.414766 298.245375 
L 58.414766 297.212131 
L 70.8 297.212131 
L 70.8 296.178887 
L 78.044898 296.178887 
L 78.044898 295.145643 
L 99.557623 295.145643 
L 99.557623 292.045911 
L 104.245578 292.045911 
L 104.245578 288.429557 
L 105.569748 288.429557 
L 105.569748 287.912935 
L 106.802521 287.912935 
L 106.802521 285.329825 
L 107.955702 285.329825 
L 107.955702 284.296581 
L 109.03895 284.296581 
L 109.03895 283.263337 
L 111.026343 283.263337 
L 111.026343 282.746715 
L 111.942857 282.746715 
L 111.942857 282.230093 
L 115.2006 282.230093 
L 115.2006 281.196849 
L 115.930012 281.196849 
L 115.930012 280.163604 
L 116.630812 280.163604 
L 116.630812 276.54725 
L 117.305161 276.54725 
L 117.305161 276.030628 
L 117.954982 276.030628 
L 117.954982 273.96414 
L 121.424184 273.96414 
L 121.424184 268.79792 
L 121.942137 268.79792 
L 121.942137 266.731432 
L 123.411577 266.731432 
L 123.411577 263.6317 
L 123.87571 263.6317 
L 123.87571 262.598456 
L 126.031105 262.598456 
L 126.031105 260.015346 
L 126.825374 260.015346 
L 126.825374 257.948858 
L 130.340216 257.948858 
L 130.340216 254.849126 
L 132.158881 254.849126 
L 132.158881 252.782638 
L 133.809418 252.782638 
L 133.809418 252.266016 
L 134.580824 252.266016 
L 134.580824 251.749394 
L 134.830731 251.749394 
L 134.830731 247.616418 
L 135.3203 247.616418 
L 135.3203 246.583173 
L 135.560144 246.583173 
L 135.560144 245.549929 
L 135.796811 245.549929 
L 135.796811 244.516685 
L 136.935292 244.516685 
L 136.935292 244.000063 
L 137.154536 244.000063 
L 137.154536 243.483441 
L 139.971068 243.483441 
L 139.971068 242.450197 
L 140.5209 242.450197 
L 140.5209 240.383709 
L 145.111405 240.383709 
L 145.111405 239.350465 
L 153.526925 239.350465 
L 153.526925 238.317221 
L 154.377948 238.317221 
L 154.377948 237.800599 
L 162.087689 237.800599 
L 162.087689 237.283977 
L 163.588354 237.283977 
L 163.588354 236.767355 
L 166.042425 236.767355 
L 166.042425 236.250733 
L 166.427621 236.250733 
L 166.512104 235.217489 
L 166.554196 235.217489 
L 166.596189 233.667623 
L 166.679881 233.667623 
L 166.679881 232.117757 
L 166.928629 232.117757 
L 166.969752 231.084513 
L 167.092558 231.084513 
L 167.092558 230.567891 
L 167.254996 230.567891 
L 167.335665 229.534647 
L 167.415972 229.534647 
L 167.415972 229.018025 
L 167.535758 229.018025 
L 167.535758 228.501403 
L 167.694235 228.501403 
L 167.694235 227.984781 
L 167.812177 227.984781 
L 167.812177 226.951537 
L 167.929345 226.951537 
L 167.929345 226.434915 
L 168.04575 226.434915 
L 168.04575 222.818561 
L 168.390483 222.818561 
L 168.42838 220.752073 
L 168.503932 220.752073 
L 168.503932 218.685585 
L 168.765878 218.685585 
L 168.765878 218.168963 
L 169.314583 218.168963 
L 169.422331 216.619097 
L 173.157056 216.619097 
L 173.157056 215.069231 
L 176.939668 215.069231 
L 176.939668 214.552609 
L 178.599883 214.552609 
L 178.621295 212.48612 
L 178.770463 212.48612 
L 178.855147 208.869766 
L 179.189922 208.869766 
L 179.189922 206.803278 
L 179.396016 206.803278 
L 179.436951 204.220168 
L 179.881153 204.220168 
L 179.940879 201.637058 
L 180.177808 201.637058 
L 180.177808 201.120436 
L 181.464111 201.120436 
L 181.464111 200.603814 
L 181.932455 200.603814 
L 181.932455 199.57057 
L 182.109369 199.57057 
L 182.109369 198.537326 
L 184.042942 198.537326 
L 184.042942 197.504082 
L 185.600304 197.504082 
L 185.600304 196.98746 
L 185.958682 196.98746 
L 186.001208 195.954216 
L 186.170308 195.954216 
L 186.170308 194.920972 
L 186.476229 194.920972 
L 186.517542 191.82124 
L 186.681848 191.82124 
L 186.681848 191.304618 
L 187.58541 191.304618 
L 187.58541 190.787996 
L 187.919163 190.787996 
L 187.969961 189.23813 
L 189.453745 189.23813 
L 189.453745 188.721508 
L 190.518447 188.721508 
L 190.518447 188.204886 
L 190.704404 188.204886 
L 190.704404 187.688264 
L 190.920728 187.688264 
L 191.027915 184.588532 
L 191.314151 184.588532 
L 191.314151 182.522044 
L 191.439909 182.522044 
L 191.439909 181.4888 
L 192.136291 181.4888 
L 192.136291 180.972178 
L 192.395542 180.972178 
L 192.395542 180.455556 
L 194.774071 180.455556 
L 194.774071 178.90569 
L 195.091849 178.90569 
L 195.19371 176.839201 
L 197.825546 176.839201 
L 197.825546 176.322579 
L 198.208578 176.322579 
L 198.208578 175.289335 
L 200.462663 175.289335 
L 200.550684 174.256091 
L 200.843049 174.256091 
L 200.843049 173.739469 
L 203.154811 173.739469 
L 203.171067 172.706225 
L 203.736156 172.706225 
L 203.736156 172.189603 
L 205.21595 172.189603 
L 205.21595 171.156359 
L 207.050657 171.156359 
L 207.050657 170.123115 
L 208.761991 170.123115 
L 208.761991 169.089871 
L 209.146013 169.089871 
L 209.146013 168.573249 
L 210.236329 168.573249 
L 210.236329 167.540005 
L 212.939053 167.540005 
L 212.939053 167.023383 
L 213.280651 167.023383 
L 213.280651 166.506761 
L 214.151121 166.506761 
L 214.186243 164.956895 
L 214.458999 164.956895 
L 214.458999 164.440273 
L 216.353396 164.440273 
L 216.353396 163.923651 
L 218.313778 163.923651 
L 218.313778 163.407029 
L 218.567263 163.407029 
L 218.567263 162.890407 
L 219.218801 162.890407 
L 219.218801 161.857163 
L 220.073877 161.857163 
L 220.080185 160.823919 
L 220.301659 160.823919 
L 220.301659 160.307297 
L 220.926025 160.307297 
L 220.926025 159.790675 
L 221.687572 159.790675 
L 221.687572 159.274053 
L 222.440104 159.274053 
L 222.440104 158.240809 
L 224.524388 158.240809 
L 224.524388 157.724187 
L 225.168412 157.724187 
L 225.168412 157.207565 
L 226.97192 157.207565 
L 226.97192 155.657699 
L 228.080461 155.657699 
L 228.080461 155.141077 
L 235.097748 155.141077 
L 235.097748 154.624455 
L 235.459658 154.624455 
L 235.459658 154.107833 
L 237.790074 154.107833 
L 237.790074 153.591211 
L 358.8 153.591211 
L 358.8 153.591211 
" style="fill:none;stroke:#00bfbf;stroke-linecap:square;stroke-width:1.5;"/>
   </g>
   <g id="line2d_43">
    <defs>
     <path d="M -6 0 
L 6 0 
M 0 6 
L 0 -6 
" id="m66b248aeb4" style="stroke:#00bfbf;stroke-width:1.5;"/>
    </defs>
    <g>
     <use style="fill:none;stroke:#00bfbf;stroke-width:1.5;" x="117.954982" xlink:href="#m66b248aeb4" y="276.030628"/>
     <use style="fill:none;stroke:#00bfbf;stroke-width:1.5;" x="163.588354" xlink:href="#m66b248aeb4" y="237.283977"/>
     <use style="fill:none;stroke:#00bfbf;stroke-width:1.5;" x="187.969961" xlink:href="#m66b248aeb4" y="189.23813"/>
     <use style="fill:none;stroke:#00bfbf;stroke-width:1.5;" x="237.790074" xlink:href="#m66b248aeb4" y="154.107833"/>
     <use style="fill:none;stroke:#00bfbf;stroke-width:1.5;" x="237.790074" xlink:href="#m66b248aeb4" y="153.591211"/>
     <use style="fill:none;stroke:#00bfbf;stroke-width:1.5;" x="358.8" xlink:href="#m66b248aeb4" y="153.591211"/>
    </g>
   </g>
   <g id="line2d_44"/>
   <g id="line2d_45">
    <path clip-path="url(#pd5f9d43942)" d="M 165.470948 236.767355 
" style="fill:none;stroke:#00bfbf;stroke-linecap:square;stroke-width:1.5;"/>
    <defs>
     <path d="M -12 12 
L 12 -12 
M -12 -12 
L 12 12 
" id="m8fc43f36de" style="stroke:#00bfbf;stroke-width:3;"/>
    </defs>
    <g clip-path="url(#pd5f9d43942)">
     <use style="fill:#00bfbf;stroke:#00bfbf;stroke-width:3;" x="165.470948" xlink:href="#m8fc43f36de" y="236.767355"/>
    </g>
   </g>
   <g id="line2d_46">
    <defs>
     <path d="M 0 1.5 
C 0.397805 1.5 0.77937 1.341951 1.06066 1.06066 
C 1.341951 0.77937 1.5 0.397805 1.5 0 
C 1.5 -0.397805 1.341951 -0.77937 1.06066 -1.06066 
C 0.77937 -1.341951 0.397805 -1.5 0 -1.5 
C -0.397805 -1.5 -0.77937 -1.341951 -1.06066 -1.06066 
C -1.341951 -0.77937 -1.5 -0.397805 -1.5 0 
C -1.5 0.397805 -1.341951 0.77937 -1.06066 1.06066 
C -0.77937 1.341951 -0.397805 1.5 0 1.5 
z
" id="mc5d09a5452" style="stroke:#008000;"/>
    </defs>
    <g>
     <use style="fill:#008000;stroke:#008000;" x="254.131588" xlink:href="#mc5d09a5452" y="138.09255"/>
     <use style="fill:#008000;stroke:#008000;" x="254.131588" xlink:href="#mc5d09a5452" y="138.09255"/>
    </g>
   </g>
   <g id="line2d_47">
    <path d="M 111.942857 298.245375 
L 111.942857 295.662265 
L 113.64587 295.662265 
L 113.64587 295.145643 
L 116.166679 295.145643 
L 116.166679 289.462801 
L 116.630812 289.462801 
L 116.630812 287.396313 
L 117.083194 287.396313 
L 117.083194 286.363069 
L 119.187755 286.363069 
L 119.187755 284.813203 
L 120.709364 284.813203 
L 120.709364 282.746715 
L 121.070349 282.746715 
L 121.070349 281.713471 
L 123.095319 281.713471 
L 123.095319 281.196849 
L 124.913984 281.196849 
L 124.913984 276.030628 
L 125.758304 276.030628 
L 125.758304 275.514006 
L 126.031105 275.514006 
L 126.031105 273.96414 
L 126.825374 273.96414 
L 126.825374 273.447518 
L 127.832295 273.447518 
L 127.832295 272.414274 
L 128.075402 272.414274 
L 128.075402 270.864408 
L 128.551913 270.864408 
L 128.551913 269.831164 
L 129.468428 269.831164 
L 129.468428 269.314542 
L 129.690395 269.314542 
L 129.690395 268.281298 
L 129.909638 268.281298 
L 129.909638 267.764676 
L 130.126224 267.764676 
L 130.126224 264.664944 
L 130.967232 264.664944 
L 130.967232 264.148322 
L 131.96571 264.148322 
L 131.96571 263.6317 
L 132.158881 263.6317 
L 132.158881 263.115078 
L 132.726171 263.115078 
L 132.726171 262.598456 
L 132.911334 262.598456 
L 132.911334 261.04859 
L 133.094598 261.04859 
L 133.094598 260.531968 
L 133.276002 260.531968 
L 133.276002 257.948858 
L 133.455583 257.948858 
L 133.455583 257.432236 
L 133.633376 257.432236 
L 133.633376 256.915614 
L 133.983743 256.915614 
L 133.983743 255.365748 
L 134.156383 255.365748 
L 134.156383 254.849126 
L 134.664515 254.849126 
L 134.664515 254.332504 
L 134.830731 254.332504 
L 134.830731 253.29926 
L 135.3203 253.29926 
L 135.3203 252.266016 
L 136.107569 252.266016 
L 136.107569 251.749394 
L 137.008673 251.749394 
L 137.008673 251.232772 
L 137.442737 251.232772 
L 137.442737 250.199528 
L 137.585114 250.199528 
L 137.585114 249.682906 
L 137.726364 249.682906 
L 137.726364 249.166284 
L 138.551193 249.166284 
L 138.551193 247.616418 
L 138.817886 247.616418 
L 138.817886 247.099796 
L 139.467708 247.099796 
L 139.467708 246.583173 
L 140.460636 246.583173 
L 140.460636 244.516685 
L 142.72545 244.516685 
L 142.72545 242.450197 
L 143.454862 242.450197 
L 143.454862 241.933575 
L 144.924302 241.933575 
L 144.924302 240.900331 
L 145.661236 240.900331 
L 145.661236 240.383709 
L 147.624865 240.383709 
L 147.705534 238.317221 
L 147.78584 238.317221 
L 147.78584 236.767355 
L 149.246843 236.767355 
L 149.246843 236.250733 
L 149.827972 236.250733 
L 149.827972 235.734111 
L 151.40056 235.734111 
L 151.40056 235.217489 
L 153.20444 235.217489 
L 153.20444 234.184245 
L 157.727795 234.184245 
L 157.727795 233.667623 
L 161.852221 233.667623 
L 161.852221 232.634379 
L 162.636975 232.634379 
L 162.636975 232.117757 
L 167.308816 232.117757 
L 167.308816 231.084513 
L 170.273077 231.084513 
L 170.295825 230.051269 
L 170.744796 230.051269 
L 170.744796 229.534647 
L 171.757486 229.534647 
L 171.757486 228.501403 
L 173.454785 228.501403 
L 173.454785 227.984781 
L 173.663107 227.984781 
L 173.663107 227.468159 
L 173.961849 227.468159 
L 173.961849 226.951537 
L 174.164375 226.951537 
L 174.237455 225.918293 
L 174.364631 225.918293 
L 174.364631 225.401671 
L 174.526824 225.401671 
L 174.526824 224.885049 
L 174.651964 224.885049 
L 174.651964 224.368427 
L 174.811581 224.368427 
L 174.811581 223.851805 
L 175.03965 223.851805 
L 175.03965 223.335183 
L 175.178567 223.335183 
L 175.264845 221.268695 
L 175.436161 221.268695 
L 175.436161 220.235451 
L 175.84074 220.235451 
L 175.890674 219.202207 
L 176.268936 219.202207 
L 176.268936 217.652341 
L 176.639356 217.652341 
L 176.671207 216.102475 
L 177.403801 216.102475 
L 177.403801 215.069231 
L 178.210018 215.069231 
L 178.210018 214.552609 
L 179.774477 214.552609 
L 179.774477 214.035987 
L 181.494504 214.035987 
L 181.494504 213.519365 
L 186.300733 213.519365 
L 186.300733 213.002743 
L 186.420995 213.002743 
L 186.512957 211.452876 
L 186.731753 211.452876 
L 186.731753 210.936254 
L 186.885128 210.936254 
L 186.965797 208.353144 
L 187.170311 208.353144 
L 187.187985 207.3199 
L 188.976708 207.3199 
L 188.976708 206.803278 
L 190.024195 206.803278 
L 190.024195 205.770034 
L 192.989416 205.770034 
L 192.989416 205.253412 
L 193.154628 205.253412 
L 193.154628 204.73679 
L 193.299513 204.73679 
L 193.299513 204.220168 
L 193.610487 204.220168 
L 193.610487 203.186924 
L 193.751738 203.186924 
L 193.763968 199.57057 
L 198.191886 199.57057 
L 198.301288 198.020704 
L 198.442987 198.020704 
L 198.550866 195.954216 
L 202.242861 195.954216 
L 202.330124 192.337862 
L 205.21434 192.337862 
L 205.21434 191.82124 
L 207.892183 191.82124 
L 207.900498 190.787996 
L 208.107132 190.787996 
L 208.107132 190.271374 
L 210.227817 190.271374 
L 210.336954 185.621776 
L 210.356286 185.621776 
L 210.416566 179.938934 
L 212.293141 179.938934 
L 212.351559 177.872445 
L 212.407632 177.872445 
L 212.45709 175.805957 
L 212.562002 175.805957 
L 212.562002 175.289335 
L 214.150145 175.289335 
L 214.24754 173.222847 
L 214.296039 173.222847 
L 214.386863 171.672981 
L 215.826859 171.672981 
L 215.915552 169.606493 
L 217.359643 169.606493 
L 217.428059 168.573249 
L 217.47839 168.573249 
L 217.47839 168.056627 
L 218.771265 168.056627 
L 218.881019 167.023383 
L 220.149429 167.023383 
L 220.181512 165.473517 
L 221.324587 165.473517 
L 221.396344 162.890407 
L 222.464037 162.890407 
L 222.528925 161.340541 
L 223.53516 161.340541 
L 223.569781 160.307297 
L 224.523842 160.307297 
L 224.523842 159.790675 
L 225.481405 159.790675 
L 225.558933 157.207565 
L 225.607347 157.207565 
L 225.607347 156.690943 
L 226.390252 156.690943 
L 226.463943 155.657699 
L 227.252286 155.657699 
L 227.325316 154.107833 
L 228.080013 154.107833 
L 228.147068 152.557967 
L 228.868518 152.557967 
L 228.91132 150.491479 
L 229.658166 150.491479 
L 229.664725 149.458235 
L 230.34824 149.458235 
L 230.34824 148.941613 
L 231.099855 148.941613 
L 231.136882 147.908369 
L 231.803681 147.908369 
L 231.803681 147.391747 
L 232.446488 147.391747 
L 232.446488 146.875125 
L 233.584536 146.875125 
L 233.584536 146.358503 
L 234.201085 146.358503 
L 234.201085 145.841881 
L 235.310573 145.841881 
L 235.310573 145.325259 
L 237.337806 145.325259 
L 237.342074 144.292014 
L 237.828787 144.292014 
L 237.828787 143.775392 
L 239.605122 143.775392 
L 239.605122 143.25877 
L 240.023153 143.25877 
L 240.023153 142.742148 
L 241.242607 142.742148 
L 241.242607 142.225526 
L 242.703864 142.225526 
L 242.703864 141.708904 
L 244.711355 141.708904 
L 244.711355 141.192282 
L 246.520699 141.192282 
L 246.520699 140.67566 
L 251.501559 140.67566 
L 251.501559 140.159038 
L 251.707568 140.159038 
L 251.707568 139.642416 
L 252.357585 139.642416 
L 252.357585 139.125794 
L 252.952305 139.125794 
L 252.952305 138.609172 
L 254.131588 138.609172 
L 254.131588 138.09255 
L 358.8 138.09255 
L 358.8 138.09255 
" style="fill:none;stroke:#008000;stroke-linecap:square;stroke-width:1.5;"/>
   </g>
   <g id="line2d_48">
    <defs>
     <path d="M -0 6 
L 6 -6 
L -6 -6 
z
" id="mdc1c94aa77" style="stroke:#008000;stroke-linejoin:miter;stroke-width:1.5;"/>
    </defs>
    <g>
     <use style="fill:none;stroke:#008000;stroke-linejoin:miter;stroke-width:1.5;" x="127.832295" xlink:href="#mdc1c94aa77" y="272.414274"/>
     <use style="fill:none;stroke:#008000;stroke-linejoin:miter;stroke-width:1.5;" x="188.976708" xlink:href="#mdc1c94aa77" y="206.803278"/>
     <use style="fill:none;stroke:#008000;stroke-linejoin:miter;stroke-width:1.5;" x="228.91132" xlink:href="#mdc1c94aa77" y="151.524723"/>
     <use style="fill:none;stroke:#008000;stroke-linejoin:miter;stroke-width:1.5;" x="254.131588" xlink:href="#mdc1c94aa77" y="138.09255"/>
     <use style="fill:none;stroke:#008000;stroke-linejoin:miter;stroke-width:1.5;" x="358.8" xlink:href="#mdc1c94aa77" y="138.09255"/>
    </g>
   </g>
   <g id="line2d_49"/>
   <g id="line2d_50">
    <path clip-path="url(#pd5f9d43942)" d="M 172.715846 228.501403 
" style="fill:none;stroke:#008000;stroke-linecap:square;stroke-width:1.5;"/>
    <defs>
     <path d="M -12 12 
L 12 -12 
M -12 -12 
L 12 12 
" id="m5339fab32e" style="stroke:#008000;stroke-width:3;"/>
    </defs>
    <g clip-path="url(#pd5f9d43942)">
     <use style="fill:#008000;stroke:#008000;stroke-width:3;" x="172.715846" xlink:href="#m5339fab32e" y="228.501403"/>
    </g>
   </g>
   <g id="line2d_51">
    <defs>
     <path d="M 0 1.5 
C 0.397805 1.5 0.77937 1.341951 1.06066 1.06066 
C 1.341951 0.77937 1.5 0.397805 1.5 0 
C 1.5 -0.397805 1.341951 -0.77937 1.06066 -1.06066 
C 0.77937 -1.341951 0.397805 -1.5 0 -1.5 
C -0.397805 -1.5 -0.77937 -1.341951 -1.06066 -1.06066 
C -1.341951 -0.77937 -1.5 -0.397805 -1.5 0 
C -1.5 0.397805 -1.341951 0.77937 -1.06066 1.06066 
C -0.77937 1.341951 -0.397805 1.5 0 1.5 
z
" id="m886f6fb59f" style="stroke:#0000ff;"/>
    </defs>
    <g>
     <use style="fill:#0000ff;stroke:#0000ff;" x="249.27271" xlink:href="#m886f6fb59f" y="210.419632"/>
     <use style="fill:#0000ff;stroke:#0000ff;" x="249.27271" xlink:href="#m886f6fb59f" y="210.419632"/>
    </g>
   </g>
   <g id="line2d_52">
    <path d="M 117.954982 298.245375 
L 117.954982 297.728753 
L 118.208435 297.728753 
L 118.208435 296.695509 
L 118.947911 296.695509 
L 118.947911 296.178887 
L 122.838219 296.178887 
L 122.838219 295.662265 
L 123.967107 295.662265 
L 123.967107 295.145643 
L 124.505885 295.145643 
L 124.505885 294.112399 
L 125.028891 294.112399 
L 125.028891 293.595777 
L 125.19988 293.595777 
L 125.19988 293.079155 
L 126.192808 293.079155 
L 126.192808 292.562533 
L 126.353061 292.562533 
L 126.353061 292.045911 
L 126.825374 292.045911 
L 126.825374 291.012667 
L 127.436309 291.012667 
L 127.436309 289.979423 
L 127.585834 289.979423 
L 127.585834 289.462801 
L 128.027044 289.462801 
L 128.027044 288.429557 
L 128.315246 288.429557 
L 128.315246 286.879691 
L 129.016046 286.879691 
L 129.016046 285.846447 
L 129.152967 285.846447 
L 129.152967 284.296581 
L 129.288847 284.296581 
L 129.288847 282.230093 
L 129.557546 282.230093 
L 129.557546 281.713471 
L 129.690395 281.713471 
L 129.690395 280.163604 
L 129.822263 280.163604 
L 129.822263 279.646982 
L 130.467392 279.646982 
L 130.467392 279.13036 
L 130.843577 279.13036 
L 130.843577 278.613738 
L 131.926824 278.613738 
L 131.926824 278.097116 
L 132.614144 278.097116 
L 132.614144 277.063872 
L 132.837499 277.063872 
L 132.948138 273.447518 
L 133.383967 273.447518 
L 133.491283 271.38103 
L 134.121988 271.38103 
L 134.121988 270.864408 
L 134.830731 270.864408 
L 134.830731 270.347786 
L 135.126079 270.347786 
L 135.223453 268.79792 
L 135.512432 268.79792 
L 135.607728 267.248054 
L 135.983913 267.248054 
L 135.983913 266.21481 
L 136.802443 266.21481 
L 136.802443 265.698188 
L 137.328014 265.698188 
L 137.328014 265.181566 
L 137.499824 265.181566 
L 137.499824 264.664944 
L 137.669998 264.664944 
L 137.669998 263.6317 
L 138.005559 263.6317 
L 138.005559 262.598456 
L 139.132751 262.598456 
L 139.132751 262.081834 
L 140.119352 262.081834 
L 140.119352 261.565212 
L 140.628864 261.565212 
L 140.628864 260.531968 
L 143.413974 260.531968 
L 143.413974 260.015346 
L 145.333372 260.015346 
L 145.333372 258.982102 
L 147.116421 258.982102 
L 147.116421 257.948858 
L 152.093807 257.948858 
L 152.093807 257.432236 
L 155.675979 257.432236 
L 155.675979 256.398992 
L 158.100534 256.398992 
L 158.100534 255.88237 
L 158.606144 255.88237 
L 158.606144 254.849126 
L 158.736855 254.849126 
L 158.736855 254.332504 
L 159.225015 254.332504 
L 159.225015 253.815882 
L 160.114898 253.815882 
L 160.114898 252.782638 
L 160.520196 252.782638 
L 160.520196 252.266016 
L 160.777632 252.266016 
L 160.777632 251.749394 
L 161.122809 251.749394 
L 161.122809 251.232772 
L 161.528408 251.232772 
L 161.528408 250.71615 
L 161.815719 250.71615 
L 161.815719 249.682906 
L 164.000487 249.682906 
L 164.000487 249.166284 
L 164.516777 249.166284 
L 164.516777 248.649662 
L 166.223217 248.649662 
L 166.223217 248.13304 
L 167.463983 248.13304 
L 167.463983 247.616418 
L 169.140824 247.616418 
L 169.184423 246.066551 
L 170.350301 246.066551 
L 170.418163 244.516685 
L 171.799331 244.516685 
L 171.799331 244.000063 
L 174.472923 244.000063 
L 174.472923 243.483441 
L 175.572041 243.483441 
L 175.572041 242.966819 
L 178.16617 242.966819 
L 178.16617 242.450197 
L 180.134605 242.450197 
L 180.134605 241.933575 
L 182.646927 241.933575 
L 182.681059 240.900331 
L 183.085637 240.900331 
L 183.085637 240.383709 
L 183.291134 240.383709 
L 183.291134 239.867087 
L 183.481257 239.867087 
L 183.533351 238.833843 
L 183.669379 238.833843 
L 183.669379 238.317221 
L 183.810782 238.317221 
L 183.810782 237.283977 
L 184.02081 237.283977 
L 184.02081 236.767355 
L 185.559714 236.767355 
L 185.669672 235.217489 
L 187.447532 235.217489 
L 187.447532 234.700867 
L 188.9831 234.700867 
L 188.9831 234.184245 
L 189.41402 234.184245 
L 189.41402 233.667623 
L 189.581666 233.667623 
L 189.581666 233.151001 
L 189.816503 233.151001 
L 189.903209 232.117757 
L 192.625696 232.117757 
L 192.625696 231.601135 
L 193.820119 231.601135 
L 193.820119 231.084513 
L 195.117369 231.084513 
L 195.164909 230.051269 
L 195.843653 230.051269 
L 195.843653 229.534647 
L 197.83431 229.534647 
L 197.83431 229.018025 
L 199.617327 229.018025 
L 199.617327 228.501403 
L 200.421017 228.501403 
L 200.421017 227.984781 
L 202.070885 227.984781 
L 202.103113 226.951537 
L 202.229164 226.951537 
L 202.229164 226.434915 
L 202.566244 226.434915 
L 202.566244 225.918293 
L 206.201696 225.918293 
L 206.201696 225.401671 
L 206.410746 225.401671 
L 206.410746 224.885049 
L 207.06373 224.885049 
L 207.088107 223.851805 
L 207.21295 223.851805 
L 207.21295 223.335183 
L 208.884362 223.335183 
L 208.884362 222.818561 
L 210.981403 222.818561 
L 211.012162 221.785317 
L 214.176299 221.785317 
L 214.176299 221.268695 
L 216.871571 221.268695 
L 216.885654 219.718829 
L 217.089623 219.718829 
L 217.089623 219.202207 
L 219.257148 219.202207 
L 219.257148 218.685585 
L 220.689053 218.685585 
L 220.689053 218.168963 
L 222.148502 218.168963 
L 222.148502 217.652341 
L 224.863141 217.652341 
L 224.863141 217.135719 
L 226.52346 217.135719 
L 226.52346 216.619097 
L 227.932325 216.619097 
L 227.932325 216.102475 
L 228.404001 216.102475 
L 228.404001 215.585853 
L 229.238177 215.585853 
L 229.238177 215.069231 
L 234.957491 215.069231 
L 234.957491 214.552609 
L 235.539666 214.552609 
L 235.539666 214.035987 
L 237.509312 214.035987 
L 237.509312 213.519365 
L 238.70495 213.519365 
L 238.70495 213.002743 
L 242.341436 213.002743 
L 242.341436 212.48612 
L 242.936262 212.48612 
L 242.936262 211.969498 
L 245.467038 211.969498 
L 245.467038 211.452876 
L 247.550892 211.452876 
L 247.550892 210.936254 
L 249.27271 210.936254 
L 249.27271 210.419632 
L 358.8 210.419632 
L 358.8 210.419632 
" style="fill:none;stroke:#0000ff;stroke-linecap:square;stroke-width:1.5;"/>
   </g>
   <g id="line2d_53">
    <defs>
     <path d="M 0 -6 
L -1.347084 -1.854102 
L -5.706339 -1.854102 
L -2.179628 0.708204 
L -3.526712 4.854102 
L -0 2.291796 
L 3.526712 4.854102 
L 2.179628 0.708204 
L 5.706339 -1.854102 
L 1.347084 -1.854102 
z
" id="ma5810686b3" style="stroke:#0000ff;stroke-linejoin:bevel;stroke-width:1.5;"/>
    </defs>
    <g>
     <use style="fill:none;stroke:#0000ff;stroke-linejoin:bevel;stroke-width:1.5;" x="132.614144" xlink:href="#ma5810686b3" y="278.097116"/>
     <use style="fill:none;stroke:#0000ff;stroke-linejoin:bevel;stroke-width:1.5;" x="183.533351" xlink:href="#ma5810686b3" y="238.833843"/>
     <use style="fill:none;stroke:#0000ff;stroke-linejoin:bevel;stroke-width:1.5;" x="249.27271" xlink:href="#ma5810686b3" y="210.936254"/>
     <use style="fill:none;stroke:#0000ff;stroke-linejoin:bevel;stroke-width:1.5;" x="249.27271" xlink:href="#ma5810686b3" y="210.419632"/>
     <use style="fill:none;stroke:#0000ff;stroke-linejoin:bevel;stroke-width:1.5;" x="358.8" xlink:href="#ma5810686b3" y="210.419632"/>
    </g>
   </g>
   <g id="line2d_54"/>
   <g id="line2d_55">
    <path clip-path="url(#pd5f9d43942)" d="M 181.843337 241.933575 
" style="fill:none;stroke:#0000ff;stroke-linecap:square;stroke-width:1.5;"/>
    <defs>
     <path d="M -12 12 
L 12 -12 
M -12 -12 
L 12 12 
" id="m6f0552db4c" style="stroke:#0000ff;stroke-width:3;"/>
    </defs>
    <g clip-path="url(#pd5f9d43942)">
     <use style="fill:#0000ff;stroke:#0000ff;stroke-width:3;" x="181.843337" xlink:href="#m6f0552db4c" y="241.933575"/>
    </g>
   </g>
   <g id="line2d_56">
    <defs>
     <path d="M 0 1.5 
C 0.397805 1.5 0.77937 1.341951 1.06066 1.06066 
C 1.341951 0.77937 1.5 0.397805 1.5 0 
C 1.5 -0.397805 1.341951 -0.77937 1.06066 -1.06066 
C 0.77937 -1.341951 0.397805 -1.5 0 -1.5 
C -0.397805 -1.5 -0.77937 -1.341951 -1.06066 -1.06066 
C -1.341951 -0.77937 -1.5 -0.397805 -1.5 0 
C -1.5 0.397805 -1.341951 0.77937 -1.06066 1.06066 
C -0.77937 1.341951 -0.397805 1.5 0 1.5 
z
" id="m36b1064852" style="stroke:#000000;"/>
    </defs>
    <g>
     <use style="stroke:#000000;" x="261.394903" xlink:href="#m36b1064852" y="236.250733"/>
     <use style="stroke:#000000;" x="261.394903" xlink:href="#m36b1064852" y="236.250733"/>
    </g>
   </g>
   <g id="line2d_57">
    <path d="M 130.276287 298.245375 
L 130.276287 297.212131 
L 131.333145 297.212131 
L 131.333145 296.695509 
L 131.572989 296.695509 
L 131.63245 295.662265 
L 132.101149 295.662265 
L 132.101149 295.145643 
L 132.273789 295.145643 
L 132.273789 294.629021 
L 133.704001 294.629021 
L 133.704001 294.112399 
L 134.276246 294.112399 
L 134.276246 292.045911 
L 134.731187 292.045911 
L 134.830731 290.496045 
L 135.223453 290.496045 
L 135.3203 288.946179 
L 135.416624 288.946179 
L 135.416624 288.429557 
L 135.983913 288.429557 
L 135.983913 287.396313 
L 136.397865 287.396313 
L 136.397865 286.879691 
L 136.578809 286.879691 
L 136.578809 286.363069 
L 137.838566 286.363069 
L 137.838566 285.846447 
L 138.129788 285.846447 
L 138.129788 285.329825 
L 138.416339 285.329825 
L 138.416339 284.296581 
L 138.658348 284.296581 
L 138.738295 283.263337 
L 139.670757 283.263337 
L 139.670757 282.746715 
L 140.664708 282.746715 
L 140.664708 282.230093 
L 141.054316 282.230093 
L 141.054316 281.196849 
L 141.741636 281.196849 
L 141.741636 280.680226 
L 142.273069 280.680226 
L 142.305764 279.646982 
L 142.468351 279.646982 
L 142.468351 279.13036 
L 144.399433 279.13036 
L 144.399433 277.063872 
L 146.009763 277.063872 
L 146.009763 276.54725 
L 146.584518 276.54725 
L 146.584518 274.997384 
L 147.945378 274.997384 
L 147.945378 274.480762 
L 148.299213 274.480762 
L 148.299213 273.96414 
L 149.342572 273.96414 
L 149.364591 272.930896 
L 150.034049 272.930896 
L 150.034049 272.414274 
L 150.902809 272.414274 
L 150.902809 271.897652 
L 152.430598 271.897652 
L 152.430598 271.38103 
L 154.837393 271.38103 
L 154.837393 270.864408 
L 155.078748 270.864408 
L 155.078748 270.347786 
L 157.001253 270.347786 
L 157.001253 268.79792 
L 157.398654 268.79792 
L 157.398654 268.281298 
L 160.543753 268.281298 
L 160.543753 267.764676 
L 162.482758 267.764676 
L 162.482758 266.731432 
L 163.864163 266.731432 
L 163.971363 265.698188 
L 169.614655 265.698188 
L 169.614655 264.664944 
L 170.007068 264.664944 
L 170.007068 264.148322 
L 171.297046 264.148322 
L 171.297046 262.598456 
L 175.632851 262.598456 
L 175.632851 262.081834 
L 176.496929 262.081834 
L 176.496929 261.565212 
L 178.016276 261.565212 
L 178.016276 261.04859 
L 183.620916 261.04859 
L 183.620916 260.531968 
L 183.874688 260.531968 
L 183.874688 259.498724 
L 186.284946 259.498724 
L 186.284946 258.982102 
L 186.793261 258.982102 
L 186.82033 257.432236 
L 187.429242 257.432236 
L 187.442308 256.398992 
L 188.174228 256.398992 
L 188.174228 255.88237 
L 190.250348 255.88237 
L 190.252581 254.849126 
L 192.124234 254.849126 
L 192.124234 254.332504 
L 192.800741 254.332504 
L 192.800741 253.815882 
L 193.962147 253.815882 
L 193.962147 252.782638 
L 194.756732 252.782638 
L 194.756732 252.266016 
L 195.180162 252.266016 
L 195.180162 251.749394 
L 196.200817 251.749394 
L 196.200817 251.232772 
L 197.244961 251.232772 
L 197.244961 250.71615 
L 201.170734 250.71615 
L 201.171946 249.166284 
L 203.290904 249.166284 
L 203.290904 248.649662 
L 204.735182 248.649662 
L 204.736174 247.616418 
L 205.08602 247.616418 
L 205.08602 247.099796 
L 205.580296 247.099796 
L 205.580296 246.583173 
L 206.954498 246.583173 
L 206.954498 246.066551 
L 208.932292 246.066551 
L 208.932292 245.549929 
L 210.3084 245.549929 
L 210.3084 245.033307 
L 210.970905 245.033307 
L 210.970905 244.000063 
L 211.713446 244.000063 
L 211.713446 243.483441 
L 212.628483 243.483441 
L 212.628483 242.966819 
L 213.288032 242.966819 
L 213.288032 242.450197 
L 214.120626 242.450197 
L 214.120626 241.933575 
L 216.169079 241.933575 
L 216.169079 241.416953 
L 221.957985 241.416953 
L 221.957985 240.900331 
L 222.645983 240.900331 
L 222.645983 240.383709 
L 225.96088 240.383709 
L 225.96088 239.867087 
L 231.306827 239.867087 
L 231.306827 239.350465 
L 238.488203 239.350465 
L 238.488203 238.833843 
L 242.503641 238.833843 
L 242.503641 238.317221 
L 243.663886 238.317221 
L 243.663886 237.283977 
L 247.725724 237.283977 
L 247.725724 236.767355 
L 261.394903 236.767355 
L 261.394903 236.250733 
L 358.8 236.250733 
L 358.8 236.250733 
" style="fill:none;stroke:#000000;stroke-linecap:square;stroke-width:1.5;"/>
   </g>
   <g id="line2d_58">
    <defs>
     <path d="M 0 6 
C 1.591219 6 3.117479 5.367802 4.242641 4.242641 
C 5.367802 3.117479 6 1.591219 6 0 
C 6 -1.591219 5.367802 -3.117479 4.242641 -4.242641 
C 3.117479 -5.367802 1.591219 -6 0 -6 
C -1.591219 -6 -3.117479 -5.367802 -4.242641 -4.242641 
C -5.367802 -3.117479 -6 -1.591219 -6 0 
C -6 1.591219 -5.367802 3.117479 -4.242641 4.242641 
C -3.117479 5.367802 -1.591219 6 0 6 
z
" id="mc8708b3faf" style="stroke:#000000;stroke-width:1.5;"/>
    </defs>
    <g>
     <use style="fill:none;stroke:#000000;stroke-width:1.5;" x="178.016276" xlink:href="#mc8708b3faf" y="261.565212"/>
     <use style="fill:none;stroke:#000000;stroke-width:1.5;" x="243.663886" xlink:href="#mc8708b3faf" y="238.317221"/>
     <use style="fill:none;stroke:#000000;stroke-width:1.5;" x="261.394903" xlink:href="#mc8708b3faf" y="236.250733"/>
     <use style="fill:none;stroke:#000000;stroke-width:1.5;" x="261.394903" xlink:href="#mc8708b3faf" y="236.250733"/>
     <use style="fill:none;stroke:#000000;stroke-width:1.5;" x="358.8" xlink:href="#mc8708b3faf" y="236.250733"/>
    </g>
   </g>
   <g id="line2d_59"/>
   <g id="line2d_60">
    <path clip-path="url(#pd5f9d43942)" d="M 194.228571 252.782638 
" style="fill:none;stroke:#000000;stroke-linecap:square;stroke-width:1.5;"/>
    <defs>
     <path d="M -12 12 
L 12 -12 
M -12 -12 
L 12 12 
" id="m9ea58a3031" style="stroke:#000000;stroke-width:3;"/>
    </defs>
    <g clip-path="url(#pd5f9d43942)">
     <use style="stroke:#000000;stroke-width:3;" x="194.228571" xlink:href="#m9ea58a3031" y="252.782638"/>
    </g>
   </g>
   <g id="line2d_61">
    <defs>
     <path d="M 0 1.5 
C 0.397805 1.5 0.77937 1.341951 1.06066 1.06066 
C 1.341951 0.77937 1.5 0.397805 1.5 0 
C 1.5 -0.397805 1.341951 -0.77937 1.06066 -1.06066 
C 0.77937 -1.341951 0.397805 -1.5 0 -1.5 
C -0.397805 -1.5 -0.77937 -1.341951 -1.06066 -1.06066 
C -1.341951 -0.77937 -1.5 -0.397805 -1.5 0 
C -1.5 0.397805 -1.341951 0.77937 -1.06066 1.06066 
C -0.77937 1.341951 -0.397805 1.5 0 1.5 
z
" id="m71d6c4c3d0" style="stroke:#ff0000;"/>
    </defs>
    <g>
     <use style="fill:#ff0000;stroke:#ff0000;" x="277.444899" xlink:href="#m71d6c4c3d0" y="241.416953"/>
     <use style="fill:#ff0000;stroke:#ff0000;" x="277.444899" xlink:href="#m71d6c4c3d0" y="241.416953"/>
    </g>
   </g>
   <g id="line2d_62">
    <path d="M 129.985742 298.245375 
L 129.985742 297.212131 
L 132.187677 297.212131 
L 132.187677 296.695509 
L 133.624529 296.695509 
L 133.624529 296.178887 
L 134.55564 296.178887 
L 134.55564 295.662265 
L 134.706214 295.662265 
L 134.706214 295.145643 
L 135.3203 295.145643 
L 135.3203 294.629021 
L 136.957338 294.629021 
L 137.023313 293.079155 
L 137.648815 293.079155 
L 137.648815 292.045911 
L 137.880461 292.045911 
L 137.963957 291.012667 
L 139.015326 291.012667 
L 139.015326 290.496045 
L 139.537766 290.496045 
L 139.537766 288.429557 
L 139.670757 288.429557 
L 139.746309 286.879691 
L 140.610916 286.879691 
L 140.610916 286.363069 
L 141.775317 286.363069 
L 141.775317 285.846447 
L 145.836349 285.846447 
L 145.836349 285.329825 
L 149.605022 285.329825 
L 149.605022 284.296581 
L 166.742393 284.296581 
L 166.742393 283.779959 
L 170.275353 283.779959 
L 170.275353 282.746715 
L 175.18462 282.746715 
L 175.18462 282.230093 
L 175.990952 282.230093 
L 175.990952 281.196849 
L 176.840649 281.196849 
L 176.840649 280.680226 
L 177.91416 280.680226 
L 177.91416 280.163604 
L 178.85937 280.163604 
L 178.85937 279.646982 
L 182.439026 279.646982 
L 182.439026 279.13036 
L 183.258149 279.13036 
L 183.258149 278.613738 
L 183.533351 278.613738 
L 183.533351 277.580494 
L 183.928829 277.580494 
L 183.928829 277.063872 
L 184.51072 277.063872 
L 184.51072 276.54725 
L 186.344769 276.54725 
L 186.344769 275.514006 
L 187.295417 275.514006 
L 187.295417 274.997384 
L 187.863118 274.997384 
L 187.863118 274.480762 
L 192.942434 274.480762 
L 192.942434 273.96414 
L 194.13272 273.96414 
L 194.13272 273.447518 
L 196.154354 273.447518 
L 196.154354 272.414274 
L 198.646474 272.414274 
L 198.646474 271.897652 
L 199.194741 271.897652 
L 199.194741 271.38103 
L 199.316791 271.38103 
L 199.388552 270.347786 
L 199.458026 270.347786 
L 199.458026 269.831164 
L 199.706313 269.831164 
L 199.706313 269.314542 
L 199.977122 269.314542 
L 199.977122 268.281298 
L 200.431122 268.281298 
L 200.431122 267.764676 
L 202.013768 267.764676 
L 202.013768 266.731432 
L 203.230006 266.731432 
L 203.312411 264.664944 
L 204.619185 264.664944 
L 204.619185 263.6317 
L 205.595435 263.6317 
L 205.595435 263.115078 
L 206.972458 263.115078 
L 206.993024 262.081834 
L 211.197686 262.081834 
L 211.197686 261.565212 
L 213.36657 261.565212 
L 213.36657 261.04859 
L 214.523961 261.04859 
L 214.523961 260.531968 
L 215.810402 260.531968 
L 215.810402 259.498724 
L 216.173789 259.498724 
L 216.173789 258.982102 
L 217.389322 258.982102 
L 217.424482 257.948858 
L 218.165794 257.948858 
L 218.165794 257.432236 
L 219.410591 257.432236 
L 219.410591 256.915614 
L 221.663536 256.915614 
L 221.663536 256.398992 
L 224.410908 256.398992 
L 224.410908 255.88237 
L 224.598337 255.88237 
L 224.598337 255.365748 
L 225.209796 255.365748 
L 225.209796 254.849126 
L 225.910888 254.849126 
L 225.910888 254.332504 
L 229.845781 254.332504 
L 229.845781 253.815882 
L 230.614333 253.815882 
L 230.614333 253.29926 
L 231.135071 253.29926 
L 231.135071 252.782638 
L 234.163367 252.782638 
L 234.163367 252.266016 
L 235.115611 252.266016 
L 235.172345 250.71615 
L 240.947658 250.71615 
L 240.947658 250.199528 
L 245.535962 250.199528 
L 245.535962 249.682906 
L 247.16284 249.682906 
L 247.16284 249.166284 
L 247.452656 249.166284 
L 247.452656 248.649662 
L 248.92066 248.649662 
L 248.92066 248.13304 
L 250.520933 248.13304 
L 250.520933 247.099796 
L 250.761427 247.099796 
L 250.761427 246.583173 
L 251.985186 246.583173 
L 252.037993 245.033307 
L 257.163129 245.033307 
L 257.163129 244.516685 
L 258.915305 244.516685 
L 258.915305 244.000063 
L 259.158416 244.000063 
L 259.158416 243.483441 
L 268.356517 243.483441 
L 268.445528 242.450197 
L 274.161505 242.450197 
L 274.161505 241.933575 
L 277.444899 241.933575 
L 277.444899 241.416953 
L 358.8 241.416953 
L 358.8 241.416953 
" style="fill:none;stroke:#ff0000;stroke-linecap:square;stroke-width:1.5;"/>
   </g>
   <g id="line2d_63">
    <defs>
     <path d="M -6 6 
L 6 6 
L 6 -6 
L -6 -6 
z
" id="mefd2adcfc1" style="stroke:#ff0000;stroke-linejoin:miter;stroke-width:1.5;"/>
    </defs>
    <g>
     <use style="fill:none;stroke:#ff0000;stroke-linejoin:miter;stroke-width:1.5;" x="187.863118" xlink:href="#mefd2adcfc1" y="274.997384"/>
     <use style="fill:none;stroke:#ff0000;stroke-linejoin:miter;stroke-width:1.5;" x="235.172345" xlink:href="#mefd2adcfc1" y="251.232772"/>
     <use style="fill:none;stroke:#ff0000;stroke-linejoin:miter;stroke-width:1.5;" x="277.444899" xlink:href="#mefd2adcfc1" y="241.933575"/>
     <use style="fill:none;stroke:#ff0000;stroke-linejoin:miter;stroke-width:1.5;" x="277.444899" xlink:href="#mefd2adcfc1" y="241.416953"/>
     <use style="fill:none;stroke:#ff0000;stroke-linejoin:miter;stroke-width:1.5;" x="358.8" xlink:href="#mefd2adcfc1" y="241.416953"/>
    </g>
   </g>
   <g id="line2d_64"/>
   <g id="line2d_65">
    <path clip-path="url(#pd5f9d43942)" d="M 206.613806 263.115078 
" style="fill:none;stroke:#ff0000;stroke-linecap:square;stroke-width:1.5;"/>
    <defs>
     <path d="M -12 12 
L 12 -12 
M -12 -12 
L 12 12 
" id="m470ed12f3e" style="stroke:#ff0000;stroke-width:3;"/>
    </defs>
    <g clip-path="url(#pd5f9d43942)">
     <use style="fill:#ff0000;stroke:#ff0000;stroke-width:3;" x="206.613806" xlink:href="#m470ed12f3e" y="263.115078"/>
    </g>
   </g>
   <g id="line2d_66">
    <defs>
     <path d="M 0 1.5 
C 0.397805 1.5 0.77937 1.341951 1.06066 1.06066 
C 1.341951 0.77937 1.5 0.397805 1.5 0 
C 1.5 -0.397805 1.341951 -0.77937 1.06066 -1.06066 
C 0.77937 -1.341951 0.397805 -1.5 0 -1.5 
C -0.397805 -1.5 -0.77937 -1.341951 -1.06066 -1.06066 
C -1.341951 -0.77937 -1.5 -0.397805 -1.5 0 
C -1.5 0.397805 -1.341951 0.77937 -1.06066 1.06066 
C -0.77937 1.341951 -0.397805 1.5 0 1.5 
z
" id="mfa81c22b9b" style="stroke:#bf00bf;"/>
    </defs>
    <g>
     <use style="fill:#bf00bf;stroke:#bf00bf;" x="229.687519" xlink:href="#mfa81c22b9b" y="272.414274"/>
     <use style="fill:#bf00bf;stroke:#bf00bf;" x="229.687519" xlink:href="#mfa81c22b9b" y="272.414274"/>
    </g>
   </g>
   <g id="line2d_67">
    <path d="M 137.338801 298.245375 
L 137.338801 297.212131 
L 138.798022 297.212131 
L 138.798022 296.178887 
L 138.916879 296.178887 
L 138.916879 295.145643 
L 139.39417 295.145643 
L 139.39417 294.629021 
L 139.765147 294.629021 
L 139.765147 294.112399 
L 140.017539 294.112399 
L 140.017539 293.595777 
L 140.913621 293.595777 
L 140.913621 293.079155 
L 140.948899 293.079155 
L 140.948899 292.562533 
L 141.141691 292.562533 
L 141.141691 292.045911 
L 141.332424 292.045911 
L 141.332424 291.529289 
L 142.411614 291.529289 
L 142.411614 291.012667 
L 144.002837 291.012667 
L 144.002837 290.496045 
L 144.471921 290.496045 
L 144.471921 289.979423 
L 145.125359 289.979423 
L 145.125359 289.462801 
L 145.896568 289.462801 
L 145.896568 288.429557 
L 147.358096 288.429557 
L 147.358096 287.912935 
L 148.199669 287.912935 
L 148.199669 287.396313 
L 148.404012 287.396313 
L 148.404012 286.879691 
L 150.73546 286.879691 
L 150.73546 286.363069 
L 160.611307 286.363069 
L 160.611307 285.329825 
L 161.669878 285.329825 
L 161.669878 284.813203 
L 164.238973 284.813203 
L 164.238973 284.296581 
L 165.148667 284.296581 
L 165.148667 283.779959 
L 169.552554 283.779959 
L 169.552554 283.263337 
L 197.56617 283.263337 
L 197.56617 282.746715 
L 200.963573 282.746715 
L 200.963573 281.713471 
L 202.102251 281.713471 
L 202.102251 281.196849 
L 202.289012 281.196849 
L 202.289012 280.680226 
L 202.558959 280.680226 
L 202.558959 280.163604 
L 202.938833 280.163604 
L 202.938833 279.646982 
L 205.01264 279.646982 
L 205.01264 279.13036 
L 206.67757 279.13036 
L 206.67757 278.613738 
L 213.003056 278.613738 
L 213.003056 278.097116 
L 214.466197 278.097116 
L 214.466197 277.063872 
L 214.692161 277.063872 
L 214.692161 276.54725 
L 215.100586 276.54725 
L 215.100586 275.514006 
L 217.005918 275.514006 
L 217.005918 274.997384 
L 218.355967 274.997384 
L 218.355967 274.480762 
L 218.743041 274.480762 
L 218.743041 273.96414 
L 219.889112 273.96414 
L 219.889112 273.447518 
L 225.100917 273.447518 
L 225.100917 272.930896 
L 229.687519 272.930896 
L 229.687519 272.414274 
L 358.8 272.414274 
" style="fill:none;stroke:#bf00bf;stroke-linecap:square;stroke-width:1.5;"/>
   </g>
   <g id="line2d_68">
    <defs>
     <path d="M -0 8.485281 
L 8.485281 0 
L 0 -8.485281 
L -8.485281 -0 
z
" id="mac6fff0fac" style="stroke:#bf00bf;stroke-linejoin:miter;stroke-width:1.5;"/>
    </defs>
    <g>
     <use style="fill:none;stroke:#bf00bf;stroke-linejoin:miter;stroke-width:1.5;" x="169.552554" xlink:href="#mac6fff0fac" y="283.263337"/>
     <use style="fill:none;stroke:#bf00bf;stroke-linejoin:miter;stroke-width:1.5;" x="229.687519" xlink:href="#mac6fff0fac" y="272.930896"/>
     <use style="fill:none;stroke:#bf00bf;stroke-linejoin:miter;stroke-width:1.5;" x="229.687519" xlink:href="#mac6fff0fac" y="272.414274"/>
     <use style="fill:none;stroke:#bf00bf;stroke-linejoin:miter;stroke-width:1.5;" x="229.687519" xlink:href="#mac6fff0fac" y="272.414274"/>
     <use style="fill:none;stroke:#bf00bf;stroke-linejoin:miter;stroke-width:1.5;" x="358.8" xlink:href="#mac6fff0fac" y="272.414274"/>
    </g>
   </g>
   <g id="line2d_69"/>
   <g id="line2d_70">
    <path clip-path="url(#pd5f9d43942)" d="M 218.99904 273.96414 
" style="fill:none;stroke:#bf00bf;stroke-linecap:square;stroke-width:1.5;"/>
    <defs>
     <path d="M -12 12 
L 12 -12 
M -12 -12 
L 12 12 
" id="m2801b423b0" style="stroke:#bf00bf;stroke-width:3;"/>
    </defs>
    <g clip-path="url(#pd5f9d43942)">
     <use style="fill:#bf00bf;stroke:#bf00bf;stroke-width:3;" x="218.99904" xlink:href="#m2801b423b0" y="273.96414"/>
    </g>
   </g>
   <g id="line2d_71">
    <path d="M 358.8 272.414274 
L 390.48 292.97583 
" style="fill:none;stroke:#bf00bf;stroke-linecap:square;stroke-width:1.5;"/>
    <g>
     <use style="fill:none;stroke:#bf00bf;stroke-linejoin:miter;stroke-width:1.5;" x="358.8" xlink:href="#mac6fff0fac" y="272.414274"/>
     <use style="fill:none;stroke:#bf00bf;stroke-linejoin:miter;stroke-width:1.5;" x="390.48" xlink:href="#mac6fff0fac" y="292.97583"/>
    </g>
   </g>
   <g id="line2d_72">
    <path d="M 358.8 241.416953 
L 390.48 242.388203 
" style="fill:none;stroke:#ff0000;stroke-linecap:square;stroke-width:1.5;"/>
    <g>
     <use style="fill:none;stroke:#ff0000;stroke-linejoin:miter;stroke-width:1.5;" x="358.8" xlink:href="#mefd2adcfc1" y="241.416953"/>
     <use style="fill:none;stroke:#ff0000;stroke-linejoin:miter;stroke-width:1.5;" x="390.48" xlink:href="#mefd2adcfc1" y="242.388203"/>
    </g>
   </g>
   <g id="line2d_73">
    <path d="M 358.8 236.250733 
L 390.48 191.800575 
" style="fill:none;stroke:#000000;stroke-linecap:square;stroke-width:1.5;"/>
    <g>
     <use style="fill:none;stroke:#000000;stroke-width:1.5;" x="358.8" xlink:href="#mc8708b3faf" y="236.250733"/>
     <use style="fill:none;stroke:#000000;stroke-width:1.5;" x="390.48" xlink:href="#mc8708b3faf" y="191.800575"/>
    </g>
   </g>
   <g id="line2d_74">
    <path d="M 358.8 210.419632 
L 390.48 141.212947 
" style="fill:none;stroke:#0000ff;stroke-linecap:square;stroke-width:1.5;"/>
    <g>
     <use style="fill:none;stroke:#0000ff;stroke-linejoin:bevel;stroke-width:1.5;" x="358.8" xlink:href="#ma5810686b3" y="210.419632"/>
     <use style="fill:none;stroke:#0000ff;stroke-linejoin:bevel;stroke-width:1.5;" x="390.48" xlink:href="#ma5810686b3" y="141.212947"/>
    </g>
   </g>
   <g id="line2d_75">
    <path d="M 358.8 153.591211 
L 390.48 90.62532 
" style="fill:none;stroke:#00bfbf;stroke-linecap:square;stroke-width:1.5;"/>
    <g>
     <use style="fill:none;stroke:#00bfbf;stroke-width:1.5;" x="358.8" xlink:href="#m66b248aeb4" y="153.591211"/>
     <use style="fill:none;stroke:#00bfbf;stroke-width:1.5;" x="390.48" xlink:href="#m66b248aeb4" y="90.62532"/>
    </g>
   </g>
   <g id="line2d_76">
    <path d="M 358.8 138.09255 
L 390.48 40.037692 
" style="fill:none;stroke:#008000;stroke-linecap:square;stroke-width:1.5;"/>
    <g>
     <use style="fill:none;stroke:#008000;stroke-linejoin:miter;stroke-width:1.5;" x="358.8" xlink:href="#mdc1c94aa77" y="138.09255"/>
     <use style="fill:none;stroke:#008000;stroke-linejoin:miter;stroke-width:1.5;" x="390.48" xlink:href="#mdc1c94aa77" y="40.037692"/>
    </g>
   </g>
   <g id="line2d_77">
    <path d="M 358.8 298.245375 
L 358.8 34.768147 
" style="fill:none;stroke:#000000;stroke-linecap:square;stroke-width:1.5;"/>
   </g>
   <g id="patch_3">
    <path d="M 70.8 298.245375 
L 70.8 32.133375 
" style="fill:none;stroke:#000000;stroke-linecap:square;stroke-linejoin:miter;stroke-width:0.8;"/>
   </g>
   <g id="patch_4">
    <path d="M 427.92 298.245375 
L 427.92 32.133375 
" style="fill:none;stroke:#000000;stroke-linecap:square;stroke-linejoin:miter;stroke-width:0.8;"/>
   </g>
   <g id="patch_5">
    <path d="M 70.8 298.245375 
L 427.92 298.245375 
" style="fill:none;stroke:#000000;stroke-linecap:square;stroke-linejoin:miter;stroke-width:0.8;"/>
   </g>
   <g id="patch_6">
    <path d="M 70.8 32.133375 
L 427.92 32.133375 
" style="fill:none;stroke:#000000;stroke-linecap:square;stroke-linejoin:miter;stroke-width:0.8;"/>
   </g>
   <g id="text_14">
    <!-- 40-D -->
    <defs>
     <path d="M 19.671875 64.796875 
L 19.671875 8.109375 
L 31.59375 8.109375 
Q 46.6875 8.109375 53.6875 14.9375 
Q 60.6875 21.78125 60.6875 36.53125 
Q 60.6875 51.171875 53.6875 57.984375 
Q 46.6875 64.796875 31.59375 64.796875 
z
M 9.8125 72.90625 
L 30.078125 72.90625 
Q 51.265625 72.90625 61.171875 64.09375 
Q 71.09375 55.28125 71.09375 36.53125 
Q 71.09375 17.671875 61.125 8.828125 
Q 51.171875 0 30.078125 0 
L 9.8125 0 
z
" id="DejaVuSans-44"/>
    </defs>
    <g transform="translate(396.24 297.114893)scale(0.15 -0.15)">
     <use xlink:href="#DejaVuSans-34"/>
     <use x="63.623047" xlink:href="#DejaVuSans-30"/>
     <use x="127.246094" xlink:href="#DejaVuSans-2d"/>
     <use x="163.330078" xlink:href="#DejaVuSans-44"/>
    </g>
   </g>
   <g id="text_15">
    <!-- 20-D -->
    <g transform="translate(396.24 246.527265)scale(0.15 -0.15)">
     <use xlink:href="#DejaVuSans-32"/>
     <use x="63.623047" xlink:href="#DejaVuSans-30"/>
     <use x="127.246094" xlink:href="#DejaVuSans-2d"/>
     <use x="163.330078" xlink:href="#DejaVuSans-44"/>
    </g>
   </g>
   <g id="text_16">
    <!-- 10-D -->
    <g transform="translate(396.24 195.939637)scale(0.15 -0.15)">
     <use xlink:href="#DejaVuSans-31"/>
     <use x="63.623047" xlink:href="#DejaVuSans-30"/>
     <use x="127.246094" xlink:href="#DejaVuSans-2d"/>
     <use x="163.330078" xlink:href="#DejaVuSans-44"/>
    </g>
   </g>
   <g id="text_17">
    <!-- 5-D -->
    <defs>
     <path d="M 10.796875 72.90625 
L 49.515625 72.90625 
L 49.515625 64.59375 
L 19.828125 64.59375 
L 19.828125 46.734375 
Q 21.96875 47.46875 24.109375 47.828125 
Q 26.265625 48.1875 28.421875 48.1875 
Q 40.625 48.1875 47.75 41.5 
Q 54.890625 34.8125 54.890625 23.390625 
Q 54.890625 11.625 47.5625 5.09375 
Q 40.234375 -1.421875 26.90625 -1.421875 
Q 22.3125 -1.421875 17.546875 -0.640625 
Q 12.796875 0.140625 7.71875 1.703125 
L 7.71875 11.625 
Q 12.109375 9.234375 16.796875 8.0625 
Q 21.484375 6.890625 26.703125 6.890625 
Q 35.15625 6.890625 40.078125 11.328125 
Q 45.015625 15.765625 45.015625 23.390625 
Q 45.015625 31 40.078125 35.4375 
Q 35.15625 39.890625 26.703125 39.890625 
Q 22.75 39.890625 18.8125 39.015625 
Q 14.890625 38.140625 10.796875 36.28125 
z
" id="DejaVuSans-35"/>
    </defs>
    <g transform="translate(396.24 145.35201)scale(0.15 -0.15)">
     <use xlink:href="#DejaVuSans-35"/>
     <use x="63.623047" xlink:href="#DejaVuSans-2d"/>
     <use x="99.707031" xlink:href="#DejaVuSans-44"/>
    </g>
   </g>
   <g id="text_18">
    <!-- 2-D -->
    <g transform="translate(396.24 94.764382)scale(0.15 -0.15)">
     <use xlink:href="#DejaVuSans-32"/>
     <use x="63.623047" xlink:href="#DejaVuSans-2d"/>
     <use x="99.707031" xlink:href="#DejaVuSans-44"/>
    </g>
   </g>
   <g id="text_19">
    <!-- 3-D -->
    <defs>
     <path d="M 40.578125 39.3125 
Q 47.65625 37.796875 51.625 33 
Q 55.609375 28.21875 55.609375 21.1875 
Q 55.609375 10.40625 48.1875 4.484375 
Q 40.765625 -1.421875 27.09375 -1.421875 
Q 22.515625 -1.421875 17.65625 -0.515625 
Q 12.796875 0.390625 7.625 2.203125 
L 7.625 11.71875 
Q 11.71875 9.328125 16.59375 8.109375 
Q 21.484375 6.890625 26.8125 6.890625 
Q 36.078125 6.890625 40.9375 10.546875 
Q 45.796875 14.203125 45.796875 21.1875 
Q 45.796875 27.640625 41.28125 31.265625 
Q 36.765625 34.90625 28.71875 34.90625 
L 20.21875 34.90625 
L 20.21875 43.015625 
L 29.109375 43.015625 
Q 36.375 43.015625 40.234375 45.921875 
Q 44.09375 48.828125 44.09375 54.296875 
Q 44.09375 59.90625 40.109375 62.90625 
Q 36.140625 65.921875 28.71875 65.921875 
Q 24.65625 65.921875 20.015625 65.03125 
Q 15.375 64.15625 9.8125 62.3125 
L 9.8125 71.09375 
Q 15.4375 72.65625 20.34375 73.4375 
Q 25.25 74.21875 29.59375 74.21875 
Q 40.828125 74.21875 47.359375 69.109375 
Q 53.90625 64.015625 53.90625 55.328125 
Q 53.90625 49.265625 50.4375 45.09375 
Q 46.96875 40.921875 40.578125 39.3125 
" id="DejaVuSans-33"/>
    </defs>
    <g transform="translate(396.24 44.176754)scale(0.15 -0.15)">
     <use xlink:href="#DejaVuSans-33"/>
     <use x="63.623047" xlink:href="#DejaVuSans-2d"/>
     <use x="99.707031" xlink:href="#DejaVuSans-44"/>
    </g>
   </g>
   <g id="text_20">
    <!-- bbob - f9 -->
    <defs>
     <path d="M 48.6875 27.296875 
Q 48.6875 37.203125 44.609375 42.84375 
Q 40.53125 48.484375 33.40625 48.484375 
Q 26.265625 48.484375 22.1875 42.84375 
Q 18.109375 37.203125 18.109375 27.296875 
Q 18.109375 17.390625 22.1875 11.75 
Q 26.265625 6.109375 33.40625 6.109375 
Q 40.53125 6.109375 44.609375 11.75 
Q 48.6875 17.390625 48.6875 27.296875 
M 18.109375 46.390625 
Q 20.953125 51.265625 25.265625 53.625 
Q 29.59375 56 35.59375 56 
Q 45.5625 56 51.78125 48.09375 
Q 58.015625 40.1875 58.015625 27.296875 
Q 58.015625 14.40625 51.78125 6.484375 
Q 45.5625 -1.421875 35.59375 -1.421875 
Q 29.59375 -1.421875 25.265625 0.953125 
Q 20.953125 3.328125 18.109375 8.203125 
L 18.109375 0 
L 9.078125 0 
L 9.078125 75.984375 
L 18.109375 75.984375 
z
" id="DejaVuSans-62"/>
     <path d="M 10.984375 1.515625 
L 10.984375 10.5 
Q 14.703125 8.734375 18.5 7.8125 
Q 22.3125 6.890625 25.984375 6.890625 
Q 35.75 6.890625 40.890625 13.453125 
Q 46.046875 20.015625 46.78125 33.40625 
Q 43.953125 29.203125 39.59375 26.953125 
Q 35.25 24.703125 29.984375 24.703125 
Q 19.046875 24.703125 12.671875 31.3125 
Q 6.296875 37.9375 6.296875 49.421875 
Q 6.296875 60.640625 12.9375 67.421875 
Q 19.578125 74.21875 30.609375 74.21875 
Q 43.265625 74.21875 49.921875 64.515625 
Q 56.59375 54.828125 56.59375 36.375 
Q 56.59375 19.140625 48.40625 8.859375 
Q 40.234375 -1.421875 26.421875 -1.421875 
Q 22.703125 -1.421875 18.890625 -0.6875 
Q 15.09375 0.046875 10.984375 1.515625 
M 30.609375 32.421875 
Q 37.25 32.421875 41.125 36.953125 
Q 45.015625 41.5 45.015625 49.421875 
Q 45.015625 57.28125 41.125 61.84375 
Q 37.25 66.40625 30.609375 66.40625 
Q 23.96875 66.40625 20.09375 61.84375 
Q 16.21875 57.28125 16.21875 49.421875 
Q 16.21875 41.5 20.09375 36.953125 
Q 23.96875 32.421875 30.609375 32.421875 
" id="DejaVuSans-39"/>
    </defs>
    <g transform="translate(74.3712 50.114612)scale(0.1666 -0.1666)">
     <use xlink:href="#DejaVuSans-62"/>
     <use x="63.476562" xlink:href="#DejaVuSans-62"/>
     <use x="126.953125" xlink:href="#DejaVuSans-6f"/>
     <use x="188.134766" xlink:href="#DejaVuSans-62"/>
     <use x="251.611328" xlink:href="#DejaVuSans-20"/>
     <use x="283.398438" xlink:href="#DejaVuSans-2d"/>
     <use x="319.482422" xlink:href="#DejaVuSans-20"/>
     <use x="351.269531" xlink:href="#DejaVuSans-66"/>
     <use x="386.474609" xlink:href="#DejaVuSans-39"/>
    </g>
    <!-- 51 targets in 100..1e-08 -->
    <g transform="translate(74.3712 68.770168)scale(0.1666 -0.1666)">
     <use xlink:href="#DejaVuSans-35"/>
     <use x="63.623047" xlink:href="#DejaVuSans-31"/>
     <use x="127.246094" xlink:href="#DejaVuSans-20"/>
     <use x="159.033203" xlink:href="#DejaVuSans-74"/>
     <use x="198.242188" xlink:href="#DejaVuSans-61"/>
     <use x="259.521484" xlink:href="#DejaVuSans-72"/>
     <use x="300.619141" xlink:href="#DejaVuSans-67"/>
     <use x="364.095703" xlink:href="#DejaVuSans-65"/>
     <use x="425.619141" xlink:href="#DejaVuSans-74"/>
     <use x="464.828125" xlink:href="#DejaVuSans-73"/>
     <use x="516.927734" xlink:href="#DejaVuSans-20"/>
     <use x="548.714844" xlink:href="#DejaVuSans-69"/>
     <use x="576.498047" xlink:href="#DejaVuSans-6e"/>
     <use x="639.876953" xlink:href="#DejaVuSans-20"/>
     <use x="671.664062" xlink:href="#DejaVuSans-31"/>
     <use x="735.287109" xlink:href="#DejaVuSans-30"/>
     <use x="798.910156" xlink:href="#DejaVuSans-30"/>
     <use x="862.533203" xlink:href="#DejaVuSans-2e"/>
     <use x="894.320312" xlink:href="#DejaVuSans-2e"/>
     <use x="926.107422" xlink:href="#DejaVuSans-31"/>
     <use x="989.730469" xlink:href="#DejaVuSans-65"/>
     <use x="1051.253906" xlink:href="#DejaVuSans-2d"/>
     <use x="1087.337891" xlink:href="#DejaVuSans-30"/>
     <use x="1150.960938" xlink:href="#DejaVuSans-38"/>
    </g>
    <!-- 15 instances -->
    <g transform="translate(74.3712 87.425723)scale(0.1666 -0.1666)">
     <use xlink:href="#DejaVuSans-31"/>
     <use x="63.623047" xlink:href="#DejaVuSans-35"/>
     <use x="127.246094" xlink:href="#DejaVuSans-20"/>
     <use x="159.033203" xlink:href="#DejaVuSans-69"/>
     <use x="186.816406" xlink:href="#DejaVuSans-6e"/>
     <use x="250.195312" xlink:href="#DejaVuSans-73"/>
     <use x="302.294922" xlink:href="#DejaVuSans-74"/>
     <use x="341.503906" xlink:href="#DejaVuSans-61"/>
     <use x="402.783203" xlink:href="#DejaVuSans-6e"/>
     <use x="466.162109" xlink:href="#DejaVuSans-63"/>
     <use x="521.142578" xlink:href="#DejaVuSans-65"/>
     <use x="582.666016" xlink:href="#DejaVuSans-73"/>
    </g>
   </g>
   <g id="text_21">
    <!-- v2.1 -->
    <g style="fill:#808080;" transform="translate(238.449063 293.504568)scale(0.1 -0.1)">
     <use xlink:href="#DejaVuSans-76"/>
     <use x="59.179688" xlink:href="#DejaVuSans-32"/>
     <use x="122.802734" xlink:href="#DejaVuSans-2e"/>
     <use x="154.589844" xlink:href="#DejaVuSans-31"/>
    </g>
   </g>
   <g id="text_22">
    <!-- 9 Rosenbrock rotated -->
    <defs>
     <path d="M 44.390625 34.1875 
Q 47.5625 33.109375 50.5625 29.59375 
Q 53.5625 26.078125 56.59375 19.921875 
L 66.609375 0 
L 56 0 
L 46.6875 18.703125 
Q 43.0625 26.03125 39.671875 28.421875 
Q 36.28125 30.8125 30.421875 30.8125 
L 19.671875 30.8125 
L 19.671875 0 
L 9.8125 0 
L 9.8125 72.90625 
L 32.078125 72.90625 
Q 44.578125 72.90625 50.734375 67.671875 
Q 56.890625 62.453125 56.890625 51.90625 
Q 56.890625 45.015625 53.6875 40.46875 
Q 50.484375 35.9375 44.390625 34.1875 
M 19.671875 64.796875 
L 19.671875 38.921875 
L 32.078125 38.921875 
Q 39.203125 38.921875 42.84375 42.21875 
Q 46.484375 45.515625 46.484375 51.90625 
Q 46.484375 58.296875 42.84375 61.546875 
Q 39.203125 64.796875 32.078125 64.796875 
z
" id="DejaVuSans-52"/>
     <path d="M 9.078125 75.984375 
L 18.109375 75.984375 
L 18.109375 31.109375 
L 44.921875 54.6875 
L 56.390625 54.6875 
L 27.390625 29.109375 
L 57.625 0 
L 45.90625 0 
L 18.109375 26.703125 
L 18.109375 0 
L 9.078125 0 
z
" id="DejaVuSans-6b"/>
    </defs>
    <g transform="translate(119.71125 26.133375)scale(0.24 -0.24)">
     <use xlink:href="#DejaVuSans-39"/>
     <use x="63.623047" xlink:href="#DejaVuSans-20"/>
     <use x="95.410156" xlink:href="#DejaVuSans-52"/>
     <use x="164.830078" xlink:href="#DejaVuSans-6f"/>
     <use x="226.011719" xlink:href="#DejaVuSans-73"/>
     <use x="278.111328" xlink:href="#DejaVuSans-65"/>
     <use x="339.634766" xlink:href="#DejaVuSans-6e"/>
     <use x="403.013672" xlink:href="#DejaVuSans-62"/>
     <use x="466.490234" xlink:href="#DejaVuSans-72"/>
     <use x="507.572266" xlink:href="#DejaVuSans-6f"/>
     <use x="568.753906" xlink:href="#DejaVuSans-63"/>
     <use x="623.734375" xlink:href="#DejaVuSans-6b"/>
     <use x="681.644531" xlink:href="#DejaVuSans-20"/>
     <use x="713.431641" xlink:href="#DejaVuSans-72"/>
     <use x="754.513672" xlink:href="#DejaVuSans-6f"/>
     <use x="815.695312" xlink:href="#DejaVuSans-74"/>
     <use x="854.904297" xlink:href="#DejaVuSans-61"/>
     <use x="916.183594" xlink:href="#DejaVuSans-74"/>
     <use x="955.392578" xlink:href="#DejaVuSans-65"/>
     <use x="1016.916016" xlink:href="#DejaVuSans-64"/>
    </g>
   </g>
  </g>
 </g>
 <defs>
  <clipPath id="pd5f9d43942">
   <rect height="266.112" width="357.12" x="70.8" y="32.133375"/>
  </clipPath>
 </defs>
</svg>
