<?xml version="1.0" encoding="utf-8" standalone="no"?>
<!DOCTYPE svg PUBLIC "-//W3C//DTD SVG 1.1//EN"
  "http://www.w3.org/Graphics/SVG/1.1/DTD/svg11.dtd">
<!-- Created with matplotlib (http://matplotlib.org/) -->
<svg height="353pt" version="1.1" viewBox="0 0 438 353" width="438pt" xmlns="http://www.w3.org/2000/svg" xmlns:xlink="http://www.w3.org/1999/xlink">
 <defs>
  <style type="text/css">
*{stroke-linecap:butt;stroke-linejoin:round;}
  </style>
 </defs>
 <g id="figure_1">
  <g id="patch_1">
   <path d="M 0 353.22225 
L 438.62 353.22225 
L 438.62 0 
L 0 0 
z
" style="fill:#ffffff;"/>
  </g>
  <g id="axes_1">
   <g id="patch_2">
    <path d="M 70.8 298.245375 
L 427.92 298.245375 
L 427.92 32.133375 
L 70.8 32.133375 
z
" style="fill:#ffffff;"/>
   </g>
   <g id="matplotlib.axis_1">
    <g id="xtick_1">
     <g id="line2d_1">
      <path clip-path="url(#paa2a574fea)" d="M 70.8 298.245375 
L 70.8 32.133375 
" style="fill:none;stroke:#b0b0b0;stroke-linecap:square;stroke-width:0.8;"/>
     </g>
     <g id="line2d_2">
      <defs>
       <path d="M 0 0 
L 0 3.5 
" id="m6c66f1e29e" style="stroke:#000000;stroke-width:0.8;"/>
      </defs>
      <g>
       <use style="stroke:#000000;stroke-width:0.8;" x="70.8" xlink:href="#m6c66f1e29e" y="298.245375"/>
      </g>
     </g>
     <g id="text_1">
      <!-- 0 -->
      <defs>
       <path d="M 31.78125 66.40625 
Q 24.171875 66.40625 20.328125 58.90625 
Q 16.5 51.421875 16.5 36.375 
Q 16.5 21.390625 20.328125 13.890625 
Q 24.171875 6.390625 31.78125 6.390625 
Q 39.453125 6.390625 43.28125 13.890625 
Q 47.125 21.390625 47.125 36.375 
Q 47.125 51.421875 43.28125 58.90625 
Q 39.453125 66.40625 31.78125 66.40625 
M 31.78125 74.21875 
Q 44.046875 74.21875 50.515625 64.515625 
Q 56.984375 54.828125 56.984375 36.375 
Q 56.984375 17.96875 50.515625 8.265625 
Q 44.046875 -1.421875 31.78125 -1.421875 
Q 19.53125 -1.421875 13.0625 8.265625 
Q 6.59375 17.96875 6.59375 36.375 
Q 6.59375 54.828125 13.0625 64.515625 
Q 19.53125 74.21875 31.78125 74.21875 
" id="DejaVuSans-30"/>
      </defs>
      <g transform="translate(64.4375 320.44225)scale(0.2 -0.2)">
       <use xlink:href="#DejaVuSans-30"/>
      </g>
     </g>
    </g>
    <g id="xtick_2">
     <g id="line2d_3">
      <path clip-path="url(#paa2a574fea)" d="M 153.085714 298.245375 
L 153.085714 32.133375 
" style="fill:none;stroke:#b0b0b0;stroke-linecap:square;stroke-width:0.8;"/>
     </g>
     <g id="line2d_4">
      <g>
       <use style="stroke:#000000;stroke-width:0.8;" x="153.085714" xlink:href="#m6c66f1e29e" y="298.245375"/>
      </g>
     </g>
     <g id="text_2">
      <!-- 2 -->
      <defs>
       <path d="M 19.1875 8.296875 
L 53.609375 8.296875 
L 53.609375 0 
L 7.328125 0 
L 7.328125 8.296875 
Q 12.9375 14.109375 22.625 23.890625 
Q 32.328125 33.6875 34.8125 36.53125 
Q 39.546875 41.84375 41.421875 45.53125 
Q 43.3125 49.21875 43.3125 52.78125 
Q 43.3125 58.59375 39.234375 62.25 
Q 35.15625 65.921875 28.609375 65.921875 
Q 23.96875 65.921875 18.8125 64.3125 
Q 13.671875 62.703125 7.8125 59.421875 
L 7.8125 69.390625 
Q 13.765625 71.78125 18.9375 73 
Q 24.125 74.21875 28.421875 74.21875 
Q 39.75 74.21875 46.484375 68.546875 
Q 53.21875 62.890625 53.21875 53.421875 
Q 53.21875 48.921875 51.53125 44.890625 
Q 49.859375 40.875 45.40625 35.40625 
Q 44.1875 33.984375 37.640625 27.21875 
Q 31.109375 20.453125 19.1875 8.296875 
" id="DejaVuSans-32"/>
      </defs>
      <g transform="translate(146.723214 320.44225)scale(0.2 -0.2)">
       <use xlink:href="#DejaVuSans-32"/>
      </g>
     </g>
    </g>
    <g id="xtick_3">
     <g id="line2d_5">
      <path clip-path="url(#paa2a574fea)" d="M 235.371429 298.245375 
L 235.371429 32.133375 
" style="fill:none;stroke:#b0b0b0;stroke-linecap:square;stroke-width:0.8;"/>
     </g>
     <g id="line2d_6">
      <g>
       <use style="stroke:#000000;stroke-width:0.8;" x="235.371429" xlink:href="#m6c66f1e29e" y="298.245375"/>
      </g>
     </g>
     <g id="text_3">
      <!-- 4 -->
      <defs>
       <path d="M 37.796875 64.3125 
L 12.890625 25.390625 
L 37.796875 25.390625 
z
M 35.203125 72.90625 
L 47.609375 72.90625 
L 47.609375 25.390625 
L 58.015625 25.390625 
L 58.015625 17.1875 
L 47.609375 17.1875 
L 47.609375 0 
L 37.796875 0 
L 37.796875 17.1875 
L 4.890625 17.1875 
L 4.890625 26.703125 
z
" id="DejaVuSans-34"/>
      </defs>
      <g transform="translate(229.008929 320.44225)scale(0.2 -0.2)">
       <use xlink:href="#DejaVuSans-34"/>
      </g>
     </g>
    </g>
    <g id="xtick_4">
     <g id="line2d_7">
      <path clip-path="url(#paa2a574fea)" d="M 317.657143 298.245375 
L 317.657143 32.133375 
" style="fill:none;stroke:#b0b0b0;stroke-linecap:square;stroke-width:0.8;"/>
     </g>
     <g id="line2d_8">
      <g>
       <use style="stroke:#000000;stroke-width:0.8;" x="317.657143" xlink:href="#m6c66f1e29e" y="298.245375"/>
      </g>
     </g>
     <g id="text_4">
      <!-- 6 -->
      <defs>
       <path d="M 33.015625 40.375 
Q 26.375 40.375 22.484375 35.828125 
Q 18.609375 31.296875 18.609375 23.390625 
Q 18.609375 15.53125 22.484375 10.953125 
Q 26.375 6.390625 33.015625 6.390625 
Q 39.65625 6.390625 43.53125 10.953125 
Q 47.40625 15.53125 47.40625 23.390625 
Q 47.40625 31.296875 43.53125 35.828125 
Q 39.65625 40.375 33.015625 40.375 
M 52.59375 71.296875 
L 52.59375 62.3125 
Q 48.875 64.0625 45.09375 64.984375 
Q 41.3125 65.921875 37.59375 65.921875 
Q 27.828125 65.921875 22.671875 59.328125 
Q 17.53125 52.734375 16.796875 39.40625 
Q 19.671875 43.65625 24.015625 45.921875 
Q 28.375 48.1875 33.59375 48.1875 
Q 44.578125 48.1875 50.953125 41.515625 
Q 57.328125 34.859375 57.328125 23.390625 
Q 57.328125 12.15625 50.6875 5.359375 
Q 44.046875 -1.421875 33.015625 -1.421875 
Q 20.359375 -1.421875 13.671875 8.265625 
Q 6.984375 17.96875 6.984375 36.375 
Q 6.984375 53.65625 15.1875 63.9375 
Q 23.390625 74.21875 37.203125 74.21875 
Q 40.921875 74.21875 44.703125 73.484375 
Q 48.484375 72.75 52.59375 71.296875 
" id="DejaVuSans-36"/>
      </defs>
      <g transform="translate(311.294643 320.44225)scale(0.2 -0.2)">
       <use xlink:href="#DejaVuSans-36"/>
      </g>
     </g>
    </g>
    <g id="xtick_5">
     <g id="line2d_9">
      <path clip-path="url(#paa2a574fea)" d="M 399.942857 298.245375 
L 399.942857 32.133375 
" style="fill:none;stroke:#b0b0b0;stroke-linecap:square;stroke-width:0.8;"/>
     </g>
     <g id="line2d_10">
      <g>
       <use style="stroke:#000000;stroke-width:0.8;" x="399.942857" xlink:href="#m6c66f1e29e" y="298.245375"/>
      </g>
     </g>
     <g id="text_5">
      <!-- 8 -->
      <defs>
       <path d="M 31.78125 34.625 
Q 24.75 34.625 20.71875 30.859375 
Q 16.703125 27.09375 16.703125 20.515625 
Q 16.703125 13.921875 20.71875 10.15625 
Q 24.75 6.390625 31.78125 6.390625 
Q 38.8125 6.390625 42.859375 10.171875 
Q 46.921875 13.96875 46.921875 20.515625 
Q 46.921875 27.09375 42.890625 30.859375 
Q 38.875 34.625 31.78125 34.625 
M 21.921875 38.8125 
Q 15.578125 40.375 12.03125 44.71875 
Q 8.5 49.078125 8.5 55.328125 
Q 8.5 64.0625 14.71875 69.140625 
Q 20.953125 74.21875 31.78125 74.21875 
Q 42.671875 74.21875 48.875 69.140625 
Q 55.078125 64.0625 55.078125 55.328125 
Q 55.078125 49.078125 51.53125 44.71875 
Q 48 40.375 41.703125 38.8125 
Q 48.828125 37.15625 52.796875 32.3125 
Q 56.78125 27.484375 56.78125 20.515625 
Q 56.78125 9.90625 50.3125 4.234375 
Q 43.84375 -1.421875 31.78125 -1.421875 
Q 19.734375 -1.421875 13.25 4.234375 
Q 6.78125 9.90625 6.78125 20.515625 
Q 6.78125 27.484375 10.78125 32.3125 
Q 14.796875 37.15625 21.921875 38.8125 
M 18.3125 54.390625 
Q 18.3125 48.734375 21.84375 45.5625 
Q 25.390625 42.390625 31.78125 42.390625 
Q 38.140625 42.390625 41.71875 45.5625 
Q 45.3125 48.734375 45.3125 54.390625 
Q 45.3125 60.0625 41.71875 63.234375 
Q 38.140625 66.40625 31.78125 66.40625 
Q 25.390625 66.40625 21.84375 63.234375 
Q 18.3125 60.0625 18.3125 54.390625 
" id="DejaVuSans-38"/>
      </defs>
      <g transform="translate(393.580357 320.44225)scale(0.2 -0.2)">
       <use xlink:href="#DejaVuSans-38"/>
      </g>
     </g>
    </g>
    <g id="xtick_6">
     <g id="line2d_11">
      <defs>
       <path d="M 0 0 
L 0 2 
" id="m1c37f427f5" style="stroke:#000000;stroke-width:0.6;"/>
      </defs>
      <g>
       <use style="stroke:#000000;stroke-width:0.6;" x="83.185234" xlink:href="#m1c37f427f5" y="298.245375"/>
      </g>
     </g>
    </g>
    <g id="xtick_7">
     <g id="line2d_12">
      <g>
       <use style="stroke:#000000;stroke-width:0.6;" x="95.570468" xlink:href="#m1c37f427f5" y="298.245375"/>
      </g>
     </g>
    </g>
    <g id="xtick_8">
     <g id="line2d_13">
      <g>
       <use style="stroke:#000000;stroke-width:0.6;" x="102.815366" xlink:href="#m1c37f427f5" y="298.245375"/>
      </g>
     </g>
    </g>
    <g id="xtick_9">
     <g id="line2d_14">
      <g>
       <use style="stroke:#000000;stroke-width:0.6;" x="107.955702" xlink:href="#m1c37f427f5" y="298.245375"/>
      </g>
     </g>
    </g>
    <g id="xtick_10">
     <g id="line2d_15">
      <g>
       <use style="stroke:#000000;stroke-width:0.6;" x="165.470948" xlink:href="#m1c37f427f5" y="298.245375"/>
      </g>
     </g>
    </g>
    <g id="xtick_11">
     <g id="line2d_16">
      <g>
       <use style="stroke:#000000;stroke-width:0.6;" x="177.856183" xlink:href="#m1c37f427f5" y="298.245375"/>
      </g>
     </g>
    </g>
    <g id="xtick_12">
     <g id="line2d_17">
      <g>
       <use style="stroke:#000000;stroke-width:0.6;" x="185.10108" xlink:href="#m1c37f427f5" y="298.245375"/>
      </g>
     </g>
    </g>
    <g id="xtick_13">
     <g id="line2d_18">
      <g>
       <use style="stroke:#000000;stroke-width:0.6;" x="190.241417" xlink:href="#m1c37f427f5" y="298.245375"/>
      </g>
     </g>
    </g>
    <g id="xtick_14">
     <g id="line2d_19">
      <g>
       <use style="stroke:#000000;stroke-width:0.6;" x="247.756663" xlink:href="#m1c37f427f5" y="298.245375"/>
      </g>
     </g>
    </g>
    <g id="xtick_15">
     <g id="line2d_20">
      <g>
       <use style="stroke:#000000;stroke-width:0.6;" x="260.141897" xlink:href="#m1c37f427f5" y="298.245375"/>
      </g>
     </g>
    </g>
    <g id="xtick_16">
     <g id="line2d_21">
      <g>
       <use style="stroke:#000000;stroke-width:0.6;" x="267.386794" xlink:href="#m1c37f427f5" y="298.245375"/>
      </g>
     </g>
    </g>
    <g id="xtick_17">
     <g id="line2d_22">
      <g>
       <use style="stroke:#000000;stroke-width:0.6;" x="272.527131" xlink:href="#m1c37f427f5" y="298.245375"/>
      </g>
     </g>
    </g>
    <g id="xtick_18">
     <g id="line2d_23">
      <g>
       <use style="stroke:#000000;stroke-width:0.6;" x="330.042377" xlink:href="#m1c37f427f5" y="298.245375"/>
      </g>
     </g>
    </g>
    <g id="xtick_19">
     <g id="line2d_24">
      <g>
       <use style="stroke:#000000;stroke-width:0.6;" x="342.427611" xlink:href="#m1c37f427f5" y="298.245375"/>
      </g>
     </g>
    </g>
    <g id="xtick_20">
     <g id="line2d_25">
      <g>
       <use style="stroke:#000000;stroke-width:0.6;" x="349.672509" xlink:href="#m1c37f427f5" y="298.245375"/>
      </g>
     </g>
    </g>
    <g id="xtick_21">
     <g id="line2d_26">
      <g>
       <use style="stroke:#000000;stroke-width:0.6;" x="354.812845" xlink:href="#m1c37f427f5" y="298.245375"/>
      </g>
     </g>
    </g>
    <g id="xtick_22">
     <g id="line2d_27">
      <g>
       <use style="stroke:#000000;stroke-width:0.6;" x="412.328091" xlink:href="#m1c37f427f5" y="298.245375"/>
      </g>
     </g>
    </g>
    <g id="xtick_23">
     <g id="line2d_28">
      <g>
       <use style="stroke:#000000;stroke-width:0.6;" x="424.713325" xlink:href="#m1c37f427f5" y="298.245375"/>
      </g>
     </g>
    </g>
    <g id="text_6">
     <!-- log10 of (# f-evals / dimension) -->
     <defs>
      <path d="M 9.421875 75.984375 
L 18.40625 75.984375 
L 18.40625 0 
L 9.421875 0 
z
" id="DejaVuSans-6c"/>
      <path d="M 30.609375 48.390625 
Q 23.390625 48.390625 19.1875 42.75 
Q 14.984375 37.109375 14.984375 27.296875 
Q 14.984375 17.484375 19.15625 11.84375 
Q 23.34375 6.203125 30.609375 6.203125 
Q 37.796875 6.203125 41.984375 11.859375 
Q 46.1875 17.53125 46.1875 27.296875 
Q 46.1875 37.015625 41.984375 42.703125 
Q 37.796875 48.390625 30.609375 48.390625 
M 30.609375 56 
Q 42.328125 56 49.015625 48.375 
Q 55.71875 40.765625 55.71875 27.296875 
Q 55.71875 13.875 49.015625 6.21875 
Q 42.328125 -1.421875 30.609375 -1.421875 
Q 18.84375 -1.421875 12.171875 6.21875 
Q 5.515625 13.875 5.515625 27.296875 
Q 5.515625 40.765625 12.171875 48.375 
Q 18.84375 56 30.609375 56 
" id="DejaVuSans-6f"/>
      <path d="M 45.40625 27.984375 
Q 45.40625 37.75 41.375 43.109375 
Q 37.359375 48.484375 30.078125 48.484375 
Q 22.859375 48.484375 18.828125 43.109375 
Q 14.796875 37.75 14.796875 27.984375 
Q 14.796875 18.265625 18.828125 12.890625 
Q 22.859375 7.515625 30.078125 7.515625 
Q 37.359375 7.515625 41.375 12.890625 
Q 45.40625 18.265625 45.40625 27.984375 
M 54.390625 6.78125 
Q 54.390625 -7.171875 48.1875 -13.984375 
Q 42 -20.796875 29.203125 -20.796875 
Q 24.46875 -20.796875 20.265625 -20.09375 
Q 16.0625 -19.390625 12.109375 -17.921875 
L 12.109375 -9.1875 
Q 16.0625 -11.328125 19.921875 -12.34375 
Q 23.78125 -13.375 27.78125 -13.375 
Q 36.625 -13.375 41.015625 -8.765625 
Q 45.40625 -4.15625 45.40625 5.171875 
L 45.40625 9.625 
Q 42.625 4.78125 38.28125 2.390625 
Q 33.9375 0 27.875 0 
Q 17.828125 0 11.671875 7.65625 
Q 5.515625 15.328125 5.515625 27.984375 
Q 5.515625 40.671875 11.671875 48.328125 
Q 17.828125 56 27.875 56 
Q 33.9375 56 38.28125 53.609375 
Q 42.625 51.21875 45.40625 46.390625 
L 45.40625 54.6875 
L 54.390625 54.6875 
z
" id="DejaVuSans-67"/>
      <path d="M 12.40625 8.296875 
L 28.515625 8.296875 
L 28.515625 63.921875 
L 10.984375 60.40625 
L 10.984375 69.390625 
L 28.421875 72.90625 
L 38.28125 72.90625 
L 38.28125 8.296875 
L 54.390625 8.296875 
L 54.390625 0 
L 12.40625 0 
z
" id="DejaVuSans-31"/>
      <path id="DejaVuSans-20"/>
      <path d="M 37.109375 75.984375 
L 37.109375 68.5 
L 28.515625 68.5 
Q 23.6875 68.5 21.796875 66.546875 
Q 19.921875 64.59375 19.921875 59.515625 
L 19.921875 54.6875 
L 34.71875 54.6875 
L 34.71875 47.703125 
L 19.921875 47.703125 
L 19.921875 0 
L 10.890625 0 
L 10.890625 47.703125 
L 2.296875 47.703125 
L 2.296875 54.6875 
L 10.890625 54.6875 
L 10.890625 58.5 
Q 10.890625 67.625 15.140625 71.796875 
Q 19.390625 75.984375 28.609375 75.984375 
z
" id="DejaVuSans-66"/>
      <path d="M 31 75.875 
Q 24.46875 64.65625 21.28125 53.65625 
Q 18.109375 42.671875 18.109375 31.390625 
Q 18.109375 20.125 21.3125 9.0625 
Q 24.515625 -2 31 -13.1875 
L 23.1875 -13.1875 
Q 15.875 -1.703125 12.234375 9.375 
Q 8.59375 20.453125 8.59375 31.390625 
Q 8.59375 42.28125 12.203125 53.3125 
Q 15.828125 64.359375 23.1875 75.875 
z
" id="DejaVuSans-28"/>
      <path d="M 51.125 44 
L 36.921875 44 
L 32.8125 27.6875 
L 47.125 27.6875 
z
M 43.796875 71.78125 
L 38.71875 51.515625 
L 52.984375 51.515625 
L 58.109375 71.78125 
L 65.921875 71.78125 
L 60.890625 51.515625 
L 76.125 51.515625 
L 76.125 44 
L 58.984375 44 
L 54.984375 27.6875 
L 70.515625 27.6875 
L 70.515625 20.21875 
L 53.078125 20.21875 
L 48 0 
L 40.1875 0 
L 45.21875 20.21875 
L 30.90625 20.21875 
L 25.875 0 
L 18.015625 0 
L 23.09375 20.21875 
L 7.71875 20.21875 
L 7.71875 27.6875 
L 24.90625 27.6875 
L 29 44 
L 13.28125 44 
L 13.28125 51.515625 
L 30.90625 51.515625 
L 35.890625 71.78125 
z
" id="DejaVuSans-23"/>
      <path d="M 4.890625 31.390625 
L 31.203125 31.390625 
L 31.203125 23.390625 
L 4.890625 23.390625 
z
" id="DejaVuSans-2d"/>
      <path d="M 56.203125 29.59375 
L 56.203125 25.203125 
L 14.890625 25.203125 
Q 15.484375 15.921875 20.484375 11.0625 
Q 25.484375 6.203125 34.421875 6.203125 
Q 39.59375 6.203125 44.453125 7.46875 
Q 49.3125 8.734375 54.109375 11.28125 
L 54.109375 2.78125 
Q 49.265625 0.734375 44.1875 -0.34375 
Q 39.109375 -1.421875 33.890625 -1.421875 
Q 20.796875 -1.421875 13.15625 6.1875 
Q 5.515625 13.8125 5.515625 26.8125 
Q 5.515625 40.234375 12.765625 48.109375 
Q 20.015625 56 32.328125 56 
Q 43.359375 56 49.78125 48.890625 
Q 56.203125 41.796875 56.203125 29.59375 
M 47.21875 32.234375 
Q 47.125 39.59375 43.09375 43.984375 
Q 39.0625 48.390625 32.421875 48.390625 
Q 24.90625 48.390625 20.390625 44.140625 
Q 15.875 39.890625 15.1875 32.171875 
z
" id="DejaVuSans-65"/>
      <path d="M 2.984375 54.6875 
L 12.5 54.6875 
L 29.59375 8.796875 
L 46.6875 54.6875 
L 56.203125 54.6875 
L 35.6875 0 
L 23.484375 0 
z
" id="DejaVuSans-76"/>
      <path d="M 34.28125 27.484375 
Q 23.390625 27.484375 19.1875 25 
Q 14.984375 22.515625 14.984375 16.5 
Q 14.984375 11.71875 18.140625 8.90625 
Q 21.296875 6.109375 26.703125 6.109375 
Q 34.1875 6.109375 38.703125 11.40625 
Q 43.21875 16.703125 43.21875 25.484375 
L 43.21875 27.484375 
z
M 52.203125 31.203125 
L 52.203125 0 
L 43.21875 0 
L 43.21875 8.296875 
Q 40.140625 3.328125 35.546875 0.953125 
Q 30.953125 -1.421875 24.3125 -1.421875 
Q 15.921875 -1.421875 10.953125 3.296875 
Q 6 8.015625 6 15.921875 
Q 6 25.140625 12.171875 29.828125 
Q 18.359375 34.515625 30.609375 34.515625 
L 43.21875 34.515625 
L 43.21875 35.40625 
Q 43.21875 41.609375 39.140625 45 
Q 35.0625 48.390625 27.6875 48.390625 
Q 23 48.390625 18.546875 47.265625 
Q 14.109375 46.140625 10.015625 43.890625 
L 10.015625 52.203125 
Q 14.9375 54.109375 19.578125 55.046875 
Q 24.21875 56 28.609375 56 
Q 40.484375 56 46.34375 49.84375 
Q 52.203125 43.703125 52.203125 31.203125 
" id="DejaVuSans-61"/>
      <path d="M 44.28125 53.078125 
L 44.28125 44.578125 
Q 40.484375 46.53125 36.375 47.5 
Q 32.28125 48.484375 27.875 48.484375 
Q 21.1875 48.484375 17.84375 46.4375 
Q 14.5 44.390625 14.5 40.28125 
Q 14.5 37.15625 16.890625 35.375 
Q 19.28125 33.59375 26.515625 31.984375 
L 29.59375 31.296875 
Q 39.15625 29.25 43.1875 25.515625 
Q 47.21875 21.78125 47.21875 15.09375 
Q 47.21875 7.46875 41.1875 3.015625 
Q 35.15625 -1.421875 24.609375 -1.421875 
Q 20.21875 -1.421875 15.453125 -0.5625 
Q 10.6875 0.296875 5.421875 2 
L 5.421875 11.28125 
Q 10.40625 8.6875 15.234375 7.390625 
Q 20.0625 6.109375 24.8125 6.109375 
Q 31.15625 6.109375 34.5625 8.28125 
Q 37.984375 10.453125 37.984375 14.40625 
Q 37.984375 18.0625 35.515625 20.015625 
Q 33.0625 21.96875 24.703125 23.78125 
L 21.578125 24.515625 
Q 13.234375 26.265625 9.515625 29.90625 
Q 5.8125 33.546875 5.8125 39.890625 
Q 5.8125 47.609375 11.28125 51.796875 
Q 16.75 56 26.8125 56 
Q 31.78125 56 36.171875 55.265625 
Q 40.578125 54.546875 44.28125 53.078125 
" id="DejaVuSans-73"/>
      <path d="M 25.390625 72.90625 
L 33.6875 72.90625 
L 8.296875 -9.28125 
L 0 -9.28125 
z
" id="DejaVuSans-2f"/>
      <path d="M 45.40625 46.390625 
L 45.40625 75.984375 
L 54.390625 75.984375 
L 54.390625 0 
L 45.40625 0 
L 45.40625 8.203125 
Q 42.578125 3.328125 38.25 0.953125 
Q 33.9375 -1.421875 27.875 -1.421875 
Q 17.96875 -1.421875 11.734375 6.484375 
Q 5.515625 14.40625 5.515625 27.296875 
Q 5.515625 40.1875 11.734375 48.09375 
Q 17.96875 56 27.875 56 
Q 33.9375 56 38.25 53.625 
Q 42.578125 51.265625 45.40625 46.390625 
M 14.796875 27.296875 
Q 14.796875 17.390625 18.875 11.75 
Q 22.953125 6.109375 30.078125 6.109375 
Q 37.203125 6.109375 41.296875 11.75 
Q 45.40625 17.390625 45.40625 27.296875 
Q 45.40625 37.203125 41.296875 42.84375 
Q 37.203125 48.484375 30.078125 48.484375 
Q 22.953125 48.484375 18.875 42.84375 
Q 14.796875 37.203125 14.796875 27.296875 
" id="DejaVuSans-64"/>
      <path d="M 9.421875 54.6875 
L 18.40625 54.6875 
L 18.40625 0 
L 9.421875 0 
z
M 9.421875 75.984375 
L 18.40625 75.984375 
L 18.40625 64.59375 
L 9.421875 64.59375 
z
" id="DejaVuSans-69"/>
      <path d="M 52 44.1875 
Q 55.375 50.25 60.0625 53.125 
Q 64.75 56 71.09375 56 
Q 79.640625 56 84.28125 50.015625 
Q 88.921875 44.046875 88.921875 33.015625 
L 88.921875 0 
L 79.890625 0 
L 79.890625 32.71875 
Q 79.890625 40.578125 77.09375 44.375 
Q 74.3125 48.1875 68.609375 48.1875 
Q 61.625 48.1875 57.5625 43.546875 
Q 53.515625 38.921875 53.515625 30.90625 
L 53.515625 0 
L 44.484375 0 
L 44.484375 32.71875 
Q 44.484375 40.625 41.703125 44.40625 
Q 38.921875 48.1875 33.109375 48.1875 
Q 26.21875 48.1875 22.15625 43.53125 
Q 18.109375 38.875 18.109375 30.90625 
L 18.109375 0 
L 9.078125 0 
L 9.078125 54.6875 
L 18.109375 54.6875 
L 18.109375 46.1875 
Q 21.1875 51.21875 25.484375 53.609375 
Q 29.78125 56 35.6875 56 
Q 41.65625 56 45.828125 52.96875 
Q 50 49.953125 52 44.1875 
" id="DejaVuSans-6d"/>
      <path d="M 54.890625 33.015625 
L 54.890625 0 
L 45.90625 0 
L 45.90625 32.71875 
Q 45.90625 40.484375 42.875 44.328125 
Q 39.84375 48.1875 33.796875 48.1875 
Q 26.515625 48.1875 22.3125 43.546875 
Q 18.109375 38.921875 18.109375 30.90625 
L 18.109375 0 
L 9.078125 0 
L 9.078125 54.6875 
L 18.109375 54.6875 
L 18.109375 46.1875 
Q 21.34375 51.125 25.703125 53.5625 
Q 30.078125 56 35.796875 56 
Q 45.21875 56 50.046875 50.171875 
Q 54.890625 44.34375 54.890625 33.015625 
" id="DejaVuSans-6e"/>
      <path d="M 8.015625 75.875 
L 15.828125 75.875 
Q 23.140625 64.359375 26.78125 53.3125 
Q 30.421875 42.28125 30.421875 31.390625 
Q 30.421875 20.453125 26.78125 9.375 
Q 23.140625 -1.703125 15.828125 -13.1875 
L 8.015625 -13.1875 
Q 14.5 -2 17.703125 9.0625 
Q 20.90625 20.125 20.90625 31.390625 
Q 20.90625 42.671875 17.703125 53.65625 
Q 14.5 64.65625 8.015625 75.875 
" id="DejaVuSans-29"/>
     </defs>
     <g transform="translate(107.015156 342.278812)scale(0.18 -0.18)">
      <use xlink:href="#DejaVuSans-6c"/>
      <use x="27.783203" xlink:href="#DejaVuSans-6f"/>
      <use x="88.964844" xlink:href="#DejaVuSans-67"/>
      <use x="152.441406" xlink:href="#DejaVuSans-31"/>
      <use x="216.064453" xlink:href="#DejaVuSans-30"/>
      <use x="279.6875" xlink:href="#DejaVuSans-20"/>
      <use x="311.474609" xlink:href="#DejaVuSans-6f"/>
      <use x="372.65625" xlink:href="#DejaVuSans-66"/>
      <use x="407.861328" xlink:href="#DejaVuSans-20"/>
      <use x="439.648438" xlink:href="#DejaVuSans-28"/>
      <use x="478.662109" xlink:href="#DejaVuSans-23"/>
      <use x="562.451172" xlink:href="#DejaVuSans-20"/>
      <use x="594.238281" xlink:href="#DejaVuSans-66"/>
      <use x="629.365234" xlink:href="#DejaVuSans-2d"/>
      <use x="665.449219" xlink:href="#DejaVuSans-65"/>
      <use x="726.972656" xlink:href="#DejaVuSans-76"/>
      <use x="786.152344" xlink:href="#DejaVuSans-61"/>
      <use x="847.431641" xlink:href="#DejaVuSans-6c"/>
      <use x="875.214844" xlink:href="#DejaVuSans-73"/>
      <use x="927.314453" xlink:href="#DejaVuSans-20"/>
      <use x="959.101562" xlink:href="#DejaVuSans-2f"/>
      <use x="992.792969" xlink:href="#DejaVuSans-20"/>
      <use x="1024.580078" xlink:href="#DejaVuSans-64"/>
      <use x="1088.056641" xlink:href="#DejaVuSans-69"/>
      <use x="1115.839844" xlink:href="#DejaVuSans-6d"/>
      <use x="1213.251953" xlink:href="#DejaVuSans-65"/>
      <use x="1274.775391" xlink:href="#DejaVuSans-6e"/>
      <use x="1338.154297" xlink:href="#DejaVuSans-73"/>
      <use x="1390.253906" xlink:href="#DejaVuSans-69"/>
      <use x="1418.037109" xlink:href="#DejaVuSans-6f"/>
      <use x="1479.21875" xlink:href="#DejaVuSans-6e"/>
      <use x="1542.597656" xlink:href="#DejaVuSans-29"/>
     </g>
    </g>
   </g>
   <g id="matplotlib.axis_2">
    <g id="ytick_1">
     <g id="line2d_29">
      <path clip-path="url(#paa2a574fea)" d="M 70.8 298.245375 
L 427.92 298.245375 
" style="fill:none;stroke:#b0b0b0;stroke-linecap:square;stroke-width:0.8;"/>
     </g>
     <g id="line2d_30">
      <defs>
       <path d="M 0 0 
L -3.5 0 
" id="m77c396b8cb" style="stroke:#000000;stroke-width:0.8;"/>
      </defs>
      <g>
       <use style="stroke:#000000;stroke-width:0.8;" x="70.8" xlink:href="#m77c396b8cb" y="298.245375"/>
      </g>
     </g>
     <g id="text_7">
      <!-- 0.0 -->
      <defs>
       <path d="M 10.6875 12.40625 
L 21 12.40625 
L 21 0 
L 10.6875 0 
z
" id="DejaVuSans-2e"/>
      </defs>
      <g transform="translate(31.99375 305.843812)scale(0.2 -0.2)">
       <use xlink:href="#DejaVuSans-30"/>
       <use x="63.623047" xlink:href="#DejaVuSans-2e"/>
       <use x="95.410156" xlink:href="#DejaVuSans-30"/>
      </g>
     </g>
    </g>
    <g id="ytick_2">
     <g id="line2d_31">
      <path clip-path="url(#paa2a574fea)" d="M 70.8 245.549929 
L 427.92 245.549929 
" style="fill:none;stroke:#b0b0b0;stroke-linecap:square;stroke-width:0.8;"/>
     </g>
     <g id="line2d_32">
      <g>
       <use style="stroke:#000000;stroke-width:0.8;" x="70.8" xlink:href="#m77c396b8cb" y="245.549929"/>
      </g>
     </g>
     <g id="text_8">
      <!-- 0.2 -->
      <g transform="translate(31.99375 253.148367)scale(0.2 -0.2)">
       <use xlink:href="#DejaVuSans-30"/>
       <use x="63.623047" xlink:href="#DejaVuSans-2e"/>
       <use x="95.410156" xlink:href="#DejaVuSans-32"/>
      </g>
     </g>
    </g>
    <g id="ytick_3">
     <g id="line2d_33">
      <path clip-path="url(#paa2a574fea)" d="M 70.8 192.854484 
L 427.92 192.854484 
" style="fill:none;stroke:#b0b0b0;stroke-linecap:square;stroke-width:0.8;"/>
     </g>
     <g id="line2d_34">
      <g>
       <use style="stroke:#000000;stroke-width:0.8;" x="70.8" xlink:href="#m77c396b8cb" y="192.854484"/>
      </g>
     </g>
     <g id="text_9">
      <!-- 0.4 -->
      <g transform="translate(31.99375 200.452921)scale(0.2 -0.2)">
       <use xlink:href="#DejaVuSans-30"/>
       <use x="63.623047" xlink:href="#DejaVuSans-2e"/>
       <use x="95.410156" xlink:href="#DejaVuSans-34"/>
      </g>
     </g>
    </g>
    <g id="ytick_4">
     <g id="line2d_35">
      <path clip-path="url(#paa2a574fea)" d="M 70.8 140.159038 
L 427.92 140.159038 
" style="fill:none;stroke:#b0b0b0;stroke-linecap:square;stroke-width:0.8;"/>
     </g>
     <g id="line2d_36">
      <g>
       <use style="stroke:#000000;stroke-width:0.8;" x="70.8" xlink:href="#m77c396b8cb" y="140.159038"/>
      </g>
     </g>
     <g id="text_10">
      <!-- 0.6 -->
      <g transform="translate(31.99375 147.757476)scale(0.2 -0.2)">
       <use xlink:href="#DejaVuSans-30"/>
       <use x="63.623047" xlink:href="#DejaVuSans-2e"/>
       <use x="95.410156" xlink:href="#DejaVuSans-36"/>
      </g>
     </g>
    </g>
    <g id="ytick_5">
     <g id="line2d_37">
      <path clip-path="url(#paa2a574fea)" d="M 70.8 87.463593 
L 427.92 87.463593 
" style="fill:none;stroke:#b0b0b0;stroke-linecap:square;stroke-width:0.8;"/>
     </g>
     <g id="line2d_38">
      <g>
       <use style="stroke:#000000;stroke-width:0.8;" x="70.8" xlink:href="#m77c396b8cb" y="87.463593"/>
      </g>
     </g>
     <g id="text_11">
      <!-- 0.8 -->
      <g transform="translate(31.99375 95.06203)scale(0.2 -0.2)">
       <use xlink:href="#DejaVuSans-30"/>
       <use x="63.623047" xlink:href="#DejaVuSans-2e"/>
       <use x="95.410156" xlink:href="#DejaVuSans-38"/>
      </g>
     </g>
    </g>
    <g id="ytick_6">
     <g id="line2d_39">
      <path clip-path="url(#paa2a574fea)" d="M 70.8 34.768147 
L 427.92 34.768147 
" style="fill:none;stroke:#b0b0b0;stroke-linecap:square;stroke-width:0.8;"/>
     </g>
     <g id="line2d_40">
      <g>
       <use style="stroke:#000000;stroke-width:0.8;" x="70.8" xlink:href="#m77c396b8cb" y="34.768147"/>
      </g>
     </g>
     <g id="text_12">
      <!-- 1.0 -->
      <g transform="translate(31.99375 42.366585)scale(0.2 -0.2)">
       <use xlink:href="#DejaVuSans-31"/>
       <use x="63.623047" xlink:href="#DejaVuSans-2e"/>
       <use x="95.410156" xlink:href="#DejaVuSans-30"/>
      </g>
     </g>
    </g>
    <g id="text_13">
     <!-- Proportion of function+target pairs -->
     <defs>
      <path d="M 19.671875 64.796875 
L 19.671875 37.40625 
L 32.078125 37.40625 
Q 38.96875 37.40625 42.71875 40.96875 
Q 46.484375 44.53125 46.484375 51.125 
Q 46.484375 57.671875 42.71875 61.234375 
Q 38.96875 64.796875 32.078125 64.796875 
z
M 9.8125 72.90625 
L 32.078125 72.90625 
Q 44.34375 72.90625 50.609375 67.359375 
Q 56.890625 61.8125 56.890625 51.125 
Q 56.890625 40.328125 50.609375 34.8125 
Q 44.34375 29.296875 32.078125 29.296875 
L 19.671875 29.296875 
L 19.671875 0 
L 9.8125 0 
z
" id="DejaVuSans-50"/>
      <path d="M 41.109375 46.296875 
Q 39.59375 47.171875 37.8125 47.578125 
Q 36.03125 48 33.890625 48 
Q 26.265625 48 22.1875 43.046875 
Q 18.109375 38.09375 18.109375 28.8125 
L 18.109375 0 
L 9.078125 0 
L 9.078125 54.6875 
L 18.109375 54.6875 
L 18.109375 46.1875 
Q 20.953125 51.171875 25.484375 53.578125 
Q 30.03125 56 36.53125 56 
Q 37.453125 56 38.578125 55.875 
Q 39.703125 55.765625 41.0625 55.515625 
z
" id="DejaVuSans-72"/>
      <path d="M 18.109375 8.203125 
L 18.109375 -20.796875 
L 9.078125 -20.796875 
L 9.078125 54.6875 
L 18.109375 54.6875 
L 18.109375 46.390625 
Q 20.953125 51.265625 25.265625 53.625 
Q 29.59375 56 35.59375 56 
Q 45.5625 56 51.78125 48.09375 
Q 58.015625 40.1875 58.015625 27.296875 
Q 58.015625 14.40625 51.78125 6.484375 
Q 45.5625 -1.421875 35.59375 -1.421875 
Q 29.59375 -1.421875 25.265625 0.953125 
Q 20.953125 3.328125 18.109375 8.203125 
M 48.6875 27.296875 
Q 48.6875 37.203125 44.609375 42.84375 
Q 40.53125 48.484375 33.40625 48.484375 
Q 26.265625 48.484375 22.1875 42.84375 
Q 18.109375 37.203125 18.109375 27.296875 
Q 18.109375 17.390625 22.1875 11.75 
Q 26.265625 6.109375 33.40625 6.109375 
Q 40.53125 6.109375 44.609375 11.75 
Q 48.6875 17.390625 48.6875 27.296875 
" id="DejaVuSans-70"/>
      <path d="M 18.3125 70.21875 
L 18.3125 54.6875 
L 36.8125 54.6875 
L 36.8125 47.703125 
L 18.3125 47.703125 
L 18.3125 18.015625 
Q 18.3125 11.328125 20.140625 9.421875 
Q 21.96875 7.515625 27.59375 7.515625 
L 36.8125 7.515625 
L 36.8125 0 
L 27.59375 0 
Q 17.1875 0 13.234375 3.875 
Q 9.28125 7.765625 9.28125 18.015625 
L 9.28125 47.703125 
L 2.6875 47.703125 
L 2.6875 54.6875 
L 9.28125 54.6875 
L 9.28125 70.21875 
z
" id="DejaVuSans-74"/>
      <path d="M 8.5 21.578125 
L 8.5 54.6875 
L 17.484375 54.6875 
L 17.484375 21.921875 
Q 17.484375 14.15625 20.5 10.265625 
Q 23.53125 6.390625 29.59375 6.390625 
Q 36.859375 6.390625 41.078125 11.03125 
Q 45.3125 15.671875 45.3125 23.6875 
L 45.3125 54.6875 
L 54.296875 54.6875 
L 54.296875 0 
L 45.3125 0 
L 45.3125 8.40625 
Q 42.046875 3.421875 37.71875 1 
Q 33.40625 -1.421875 27.6875 -1.421875 
Q 18.265625 -1.421875 13.375 4.4375 
Q 8.5 10.296875 8.5 21.578125 
M 31.109375 56 
z
" id="DejaVuSans-75"/>
      <path d="M 48.78125 52.59375 
L 48.78125 44.1875 
Q 44.96875 46.296875 41.140625 47.34375 
Q 37.3125 48.390625 33.40625 48.390625 
Q 24.65625 48.390625 19.8125 42.84375 
Q 14.984375 37.3125 14.984375 27.296875 
Q 14.984375 17.28125 19.8125 11.734375 
Q 24.65625 6.203125 33.40625 6.203125 
Q 37.3125 6.203125 41.140625 7.25 
Q 44.96875 8.296875 48.78125 10.40625 
L 48.78125 2.09375 
Q 45.015625 0.34375 40.984375 -0.53125 
Q 36.96875 -1.421875 32.421875 -1.421875 
Q 20.0625 -1.421875 12.78125 6.34375 
Q 5.515625 14.109375 5.515625 27.296875 
Q 5.515625 40.671875 12.859375 48.328125 
Q 20.21875 56 33.015625 56 
Q 37.15625 56 41.109375 55.140625 
Q 45.0625 54.296875 48.78125 52.59375 
" id="DejaVuSans-63"/>
      <path d="M 46 62.703125 
L 46 35.5 
L 73.1875 35.5 
L 73.1875 27.203125 
L 46 27.203125 
L 46 0 
L 37.796875 0 
L 37.796875 27.203125 
L 10.59375 27.203125 
L 10.59375 35.5 
L 37.796875 35.5 
L 37.796875 62.703125 
z
" id="DejaVuSans-2b"/>
     </defs>
     <g transform="translate(24.250312 323.17875)rotate(-90)scale(0.18 -0.18)">
      <use xlink:href="#DejaVuSans-50"/>
      <use x="60.287109" xlink:href="#DejaVuSans-72"/>
      <use x="101.369141" xlink:href="#DejaVuSans-6f"/>
      <use x="162.550781" xlink:href="#DejaVuSans-70"/>
      <use x="226.027344" xlink:href="#DejaVuSans-6f"/>
      <use x="287.208984" xlink:href="#DejaVuSans-72"/>
      <use x="328.322266" xlink:href="#DejaVuSans-74"/>
      <use x="367.53125" xlink:href="#DejaVuSans-69"/>
      <use x="395.314453" xlink:href="#DejaVuSans-6f"/>
      <use x="456.496094" xlink:href="#DejaVuSans-6e"/>
      <use x="519.875" xlink:href="#DejaVuSans-20"/>
      <use x="551.662109" xlink:href="#DejaVuSans-6f"/>
      <use x="612.84375" xlink:href="#DejaVuSans-66"/>
      <use x="648.048828" xlink:href="#DejaVuSans-20"/>
      <use x="679.835938" xlink:href="#DejaVuSans-66"/>
      <use x="715.041016" xlink:href="#DejaVuSans-75"/>
      <use x="778.419922" xlink:href="#DejaVuSans-6e"/>
      <use x="841.798828" xlink:href="#DejaVuSans-63"/>
      <use x="896.779297" xlink:href="#DejaVuSans-74"/>
      <use x="935.988281" xlink:href="#DejaVuSans-69"/>
      <use x="963.771484" xlink:href="#DejaVuSans-6f"/>
      <use x="1024.953125" xlink:href="#DejaVuSans-6e"/>
      <use x="1088.332031" xlink:href="#DejaVuSans-2b"/>
      <use x="1172.121094" xlink:href="#DejaVuSans-74"/>
      <use x="1211.330078" xlink:href="#DejaVuSans-61"/>
      <use x="1272.609375" xlink:href="#DejaVuSans-72"/>
      <use x="1313.707031" xlink:href="#DejaVuSans-67"/>
      <use x="1377.183594" xlink:href="#DejaVuSans-65"/>
      <use x="1438.707031" xlink:href="#DejaVuSans-74"/>
      <use x="1477.916016" xlink:href="#DejaVuSans-20"/>
      <use x="1509.703125" xlink:href="#DejaVuSans-70"/>
      <use x="1573.179688" xlink:href="#DejaVuSans-61"/>
      <use x="1634.458984" xlink:href="#DejaVuSans-69"/>
      <use x="1662.242188" xlink:href="#DejaVuSans-72"/>
      <use x="1703.355469" xlink:href="#DejaVuSans-73"/>
     </g>
    </g>
   </g>
   <g id="line2d_41">
    <defs>
     <path d="M 0 1.5 
C 0.397805 1.5 0.77937 1.341951 1.06066 1.06066 
C 1.341951 0.77937 1.5 0.397805 1.5 0 
C 1.5 -0.397805 1.341951 -0.77937 1.06066 -1.06066 
C 0.77937 -1.341951 0.397805 -1.5 0 -1.5 
C -0.397805 -1.5 -0.77937 -1.341951 -1.06066 -1.06066 
C -1.341951 -0.77937 -1.5 -0.397805 -1.5 0 
C -1.5 0.397805 -1.341951 0.77937 -1.06066 1.06066 
C -0.77937 1.341951 -0.397805 1.5 0 1.5 
z
" id="md07e283110" style="stroke:#000080;"/>
    </defs>
    <g>
     <use style="fill:#000080;stroke:#000080;" x="245.347414" xlink:href="#md07e283110" y="225.918293"/>
     <use style="fill:#000080;stroke:#000080;" x="245.347414" xlink:href="#md07e283110" y="225.918293"/>
    </g>
   </g>
   <g id="line2d_42">
    <path d="M 120.782147 298.245375 
L 120.782147 296.695509 
L 123.03139 296.695509 
L 123.03139 296.178887 
L 123.222494 296.178887 
L 123.222494 295.662265 
L 123.967107 295.662265 
L 123.967107 295.145643 
L 124.681927 295.145643 
L 124.681927 294.629021 
L 127.436309 294.629021 
L 127.436309 293.079155 
L 127.734118 293.079155 
L 127.734118 292.562533 
L 127.881181 292.562533 
L 127.881181 292.045911 
L 128.027044 292.045911 
L 128.027044 291.012667 
L 128.315246 291.012667 
L 128.315246 289.462801 
L 128.739016 289.462801 
L 128.739016 288.429557 
L 129.953166 288.429557 
L 129.953166 285.329825 
L 130.843577 285.329825 
L 130.843577 284.296581 
L 131.453469 284.296581 
L 131.453469 283.779959 
L 133.597959 283.779959 
L 133.704001 282.746715 
L 134.327371 282.746715 
L 134.327371 282.230093 
L 134.929724 282.230093 
L 134.929724 281.713471 
L 135.223453 281.713471 
L 135.223453 279.13036 
L 135.512432 279.13036 
L 135.607728 277.580494 
L 135.983913 277.580494 
L 135.983913 277.063872 
L 136.260944 277.063872 
L 136.260944 276.54725 
L 136.891119 276.54725 
L 136.891119 275.514006 
L 137.585114 275.514006 
L 137.585114 274.480762 
L 138.005559 274.480762 
L 138.005559 272.930896 
L 138.253158 272.930896 
L 138.253158 272.414274 
L 139.971068 272.414274 
L 139.971068 271.897652 
L 141.193911 271.897652 
L 141.193911 270.864408 
L 141.40128 270.864408 
L 141.40128 270.347786 
L 143.041708 270.347786 
L 143.041708 269.831164 
L 143.475271 269.831164 
L 143.475271 268.281298 
L 144.486383 268.281298 
L 144.486383 267.764676 
L 144.886646 267.764676 
L 144.886646 266.731432 
L 146.66148 266.731432 
L 146.763584 265.698188 
L 148.691935 265.698188 
L 148.691935 264.664944 
L 153.085714 264.664944 
L 153.085714 264.148322 
L 155.582997 264.148322 
L 155.582997 263.6317 
L 156.13377 263.6317 
L 156.13377 263.115078 
L 156.75559 263.115078 
L 156.75559 262.598456 
L 157.044257 262.598456 
L 157.044257 262.081834 
L 161.9032 262.081834 
L 161.9032 261.04859 
L 163.34851 261.04859 
L 163.34851 260.015346 
L 163.687347 260.015346 
L 163.687347 259.498724 
L 166.051076 259.498724 
L 166.051076 258.982102 
L 166.663174 258.982102 
L 166.663174 258.46548 
L 166.862634 258.46548 
L 166.862634 257.948858 
L 170.499259 257.948858 
L 170.499259 257.432236 
L 170.700403 257.432236 
L 170.713732 255.365748 
L 170.886116 255.365748 
L 170.886116 254.849126 
L 171.043777 254.849126 
L 171.043777 254.332504 
L 171.354986 254.332504 
L 171.354986 253.815882 
L 171.824392 253.815882 
L 171.824392 253.29926 
L 172.881842 253.29926 
L 172.881842 252.782638 
L 174.255679 252.782638 
L 174.255679 251.749394 
L 176.376019 251.749394 
L 176.376019 251.232772 
L 176.674389 251.232772 
L 176.72205 249.166284 
L 178.375667 249.166284 
L 178.375667 248.649662 
L 178.838242 248.649662 
L 178.838242 248.13304 
L 180.392267 248.13304 
L 180.392267 247.616418 
L 181.009389 247.616418 
L 181.009389 246.066551 
L 182.796622 246.066551 
L 182.877749 244.000063 
L 183.092303 244.000063 
L 183.185366 242.450197 
L 183.218486 242.450197 
L 183.251545 241.416953 
L 183.720927 241.416953 
L 183.810782 239.867087 
L 184.178295 239.867087 
L 184.178295 239.350465 
L 187.274334 239.350465 
L 187.363767 238.317221 
L 189.912311 238.317221 
L 189.912311 237.800599 
L 192.789125 237.800599 
L 192.862569 236.767355 
L 194.753262 236.767355 
L 194.753262 236.250733 
L 194.936243 236.250733 
L 194.9637 234.700867 
L 197.584319 234.700867 
L 197.584319 234.184245 
L 198.471192 234.184245 
L 198.544318 233.151001 
L 198.714718 233.151001 
L 198.714718 232.634379 
L 200.390668 232.634379 
L 200.390668 231.601135 
L 200.561969 231.601135 
L 200.561969 230.567891 
L 201.199788 230.567891 
L 201.199788 230.051269 
L 204.798586 230.051269 
L 204.798586 229.534647 
L 205.809787 229.534647 
L 205.809787 229.018025 
L 206.408939 229.018025 
L 206.408939 228.501403 
L 213.722387 228.501403 
L 213.722387 227.468159 
L 234.411979 227.468159 
L 234.411979 226.951537 
L 240.703529 226.951537 
L 240.703529 226.434915 
L 245.347414 226.434915 
L 245.347414 225.918293 
L 358.8 225.918293 
L 358.8 225.918293 
" style="fill:none;stroke:#000080;stroke-linecap:square;stroke-width:1.5;"/>
   </g>
   <g id="line2d_43">
    <defs>
     <path d="M 0 6 
C 1.591219 6 3.117479 5.367802 4.242641 4.242641 
C 5.367802 3.117479 6 1.591219 6 0 
C 6 -1.591219 5.367802 -3.117479 4.242641 -4.242641 
C 3.117479 -5.367802 1.591219 -6 0 -6 
C -1.591219 -6 -3.117479 -5.367802 -4.242641 -4.242641 
C -5.367802 -3.117479 -6 -1.591219 -6 0 
C -6 1.591219 -5.367802 3.117479 -4.242641 4.242641 
C -3.117479 5.367802 -1.591219 6 0 6 
z
" id="mf94c2e69a7" style="stroke:#000080;stroke-width:1.5;"/>
    </defs>
    <g>
     <use style="fill:none;stroke:#000080;stroke-width:1.5;" x="133.704001" xlink:href="#mf94c2e69a7" y="283.263337"/>
     <use style="fill:none;stroke:#000080;stroke-width:1.5;" x="182.877749" xlink:href="#mf94c2e69a7" y="244.000063"/>
     <use style="fill:none;stroke:#000080;stroke-width:1.5;" x="245.347414" xlink:href="#mf94c2e69a7" y="226.434915"/>
     <use style="fill:none;stroke:#000080;stroke-width:1.5;" x="245.347414" xlink:href="#mf94c2e69a7" y="225.918293"/>
     <use style="fill:none;stroke:#000080;stroke-width:1.5;" x="358.8" xlink:href="#mf94c2e69a7" y="225.918293"/>
    </g>
   </g>
   <g id="line2d_44"/>
   <g id="line2d_45">
    <path clip-path="url(#paa2a574fea)" d="M 181.843337 246.066551 
" style="fill:none;stroke:#000080;stroke-linecap:square;stroke-width:1.5;"/>
    <defs>
     <path d="M -12 12 
L 12 -12 
M -12 -12 
L 12 12 
" id="mca57e09c61" style="stroke:#000080;stroke-width:3;"/>
    </defs>
    <g clip-path="url(#paa2a574fea)">
     <use style="fill:#000080;stroke:#000080;stroke-width:3;" x="181.843337" xlink:href="#mca57e09c61" y="246.066551"/>
    </g>
   </g>
   <g id="line2d_46">
    <defs>
     <path d="M 0 1.5 
C 0.397805 1.5 0.77937 1.341951 1.06066 1.06066 
C 1.341951 0.77937 1.5 0.397805 1.5 0 
C 1.5 -0.397805 1.341951 -0.77937 1.06066 -1.06066 
C 0.77937 -1.341951 0.397805 -1.5 0 -1.5 
C -0.397805 -1.5 -0.77937 -1.341951 -1.06066 -1.06066 
C -1.341951 -0.77937 -1.5 -0.397805 -1.5 0 
C -1.5 0.397805 -1.341951 0.77937 -1.06066 1.06066 
C -0.77937 1.341951 -0.397805 1.5 0 1.5 
z
" id="me077539bd0" style="stroke:#ff00ff;"/>
    </defs>
    <g>
     <use style="fill:#ff00ff;stroke:#ff00ff;" x="248.432533" xlink:href="#me077539bd0" y="210.419632"/>
     <use style="fill:#ff00ff;stroke:#ff00ff;" x="248.432533" xlink:href="#me077539bd0" y="210.419632"/>
    </g>
   </g>
   <g id="line2d_47">
    <path d="M 118.208435 298.245375 
L 118.208435 297.212131 
L 118.704803 297.212131 
L 118.704803 296.178887 
L 118.947911 296.178887 
L 118.947911 295.145643 
L 123.783843 295.145643 
L 123.783843 294.629021 
L 124.505885 294.629021 
L 124.505885 293.595777 
L 125.19988 293.595777 
L 125.19988 293.079155 
L 125.70324 293.079155 
L 125.70324 292.562533 
L 127.436309 292.562533 
L 127.436309 286.879691 
L 127.585834 286.879691 
L 127.585834 286.363069 
L 128.027044 286.363069 
L 128.027044 284.296581 
L 128.315246 284.296581 
L 128.315246 283.263337 
L 129.152967 283.263337 
L 129.152967 282.746715 
L 129.288847 282.746715 
L 129.288847 281.196849 
L 129.557546 281.196849 
L 129.557546 280.680226 
L 129.690395 280.680226 
L 129.690395 279.13036 
L 129.822263 279.13036 
L 129.822263 278.097116 
L 129.953166 278.097116 
L 129.953166 277.580494 
L 130.467392 277.580494 
L 130.467392 275.514006 
L 130.843577 275.514006 
L 130.843577 274.997384 
L 131.926824 274.997384 
L 131.926824 273.96414 
L 132.614144 273.96414 
L 132.614144 272.930896 
L 132.837499 272.930896 
L 132.837499 272.414274 
L 133.383967 272.414274 
L 133.383967 271.38103 
L 134.327371 271.38103 
L 134.327371 269.831164 
L 134.830731 269.831164 
L 134.830731 269.314542 
L 135.126079 269.314542 
L 135.223453 267.764676 
L 135.512432 267.764676 
L 135.512432 267.248054 
L 135.983913 267.248054 
L 136.076735 265.698188 
L 136.802443 265.698188 
L 136.802443 264.664944 
L 137.328014 264.664944 
L 137.328014 264.148322 
L 137.669998 264.148322 
L 137.669998 263.115078 
L 139.132751 263.115078 
L 139.132751 261.565212 
L 139.971068 261.565212 
L 139.971068 260.015346 
L 140.119352 260.015346 
L 140.119352 259.498724 
L 140.628864 259.498724 
L 140.628864 258.46548 
L 142.009328 258.46548 
L 142.009328 256.915614 
L 145.333372 256.915614 
L 145.333372 255.88237 
L 146.247129 255.88237 
L 146.247129 254.332504 
L 147.116421 254.332504 
L 147.116421 253.815882 
L 152.093807 253.815882 
L 152.093807 253.29926 
L 156.432575 253.29926 
L 156.432575 252.782638 
L 158.606144 252.782638 
L 158.606144 252.266016 
L 158.736855 252.266016 
L 158.736855 251.749394 
L 159.84766 251.749394 
L 159.84766 251.232772 
L 160.114898 251.232772 
L 160.114898 250.199528 
L 160.777632 250.199528 
L 160.777632 249.166284 
L 161.815719 249.166284 
L 161.815719 248.649662 
L 162.609035 248.649662 
L 162.609035 248.13304 
L 164.000487 248.13304 
L 164.000487 247.616418 
L 164.516777 247.616418 
L 164.516777 246.583173 
L 166.223217 246.583173 
L 166.223217 246.066551 
L 167.463983 246.066551 
L 167.463983 245.033307 
L 169.140824 245.033307 
L 169.140824 244.516685 
L 171.559487 244.516685 
L 171.559487 243.483441 
L 175.15087 243.483441 
L 175.15087 242.966819 
L 175.572041 242.966819 
L 175.572041 241.933575 
L 175.884024 241.933575 
L 175.884024 241.416953 
L 178.479501 241.416953 
L 178.479501 240.383709 
L 182.336768 240.383709 
L 182.336768 239.867087 
L 182.619574 239.867087 
L 182.619574 239.350465 
L 182.75592 239.350465 
L 182.75592 238.833843 
L 183.038906 238.833843 
L 183.105627 237.283977 
L 183.225103 237.283977 
L 183.291134 236.250733 
L 183.481257 236.250733 
L 183.481257 235.734111 
L 183.669379 235.734111 
L 183.669379 234.184245 
L 183.810782 234.184245 
L 183.810782 233.151001 
L 184.234651 233.151001 
L 184.234651 232.634379 
L 184.939539 232.634379 
L 184.939539 232.117757 
L 185.669672 232.117757 
L 185.669672 231.601135 
L 187.588001 231.601135 
L 187.588001 231.084513 
L 187.794095 231.084513 
L 187.794095 230.567891 
L 188.043362 230.567891 
L 188.043362 230.051269 
L 188.447941 230.051269 
L 188.447941 229.534647 
L 188.997473 229.534647 
L 188.997473 229.018025 
L 189.581666 229.018025 
L 189.581666 228.501403 
L 189.903209 228.501403 
L 189.903209 227.984781 
L 193.394623 227.984781 
L 193.394623 227.468159 
L 193.944001 227.468159 
L 193.944001 226.434915 
L 195.117369 226.434915 
L 195.164909 224.885049 
L 195.239359 224.885049 
L 195.239359 224.368427 
L 195.40742 224.368427 
L 195.40742 223.851805 
L 198.513417 223.851805 
L 198.513417 223.335183 
L 200.329814 223.335183 
L 200.329814 222.818561 
L 201.885602 222.818561 
L 201.969217 221.785317 
L 202.027054 221.785317 
L 202.103113 220.235451 
L 202.267945 220.235451 
L 202.267945 219.718829 
L 204.182869 219.718829 
L 204.182869 219.202207 
L 207.21295 219.202207 
L 207.21295 218.685585 
L 209.847708 218.685585 
L 209.847708 218.168963 
L 212.439903 218.168963 
L 212.439903 217.652341 
L 213.233219 217.652341 
L 213.233219 217.135719 
L 214.260357 217.135719 
L 214.260357 216.619097 
L 214.413443 216.619097 
L 214.413443 216.102475 
L 220.17036 216.102475 
L 220.17036 215.585853 
L 223.177428 215.585853 
L 223.177428 214.552609 
L 223.929313 214.552609 
L 223.929313 214.035987 
L 226.395174 214.035987 
L 226.403441 213.002743 
L 227.033286 213.002743 
L 227.033286 212.48612 
L 239.028204 212.48612 
L 239.028204 211.969498 
L 244.610426 211.969498 
L 244.610426 211.452876 
L 245.645288 211.452876 
L 245.645288 210.936254 
L 248.432533 210.936254 
L 248.432533 210.419632 
L 358.8 210.419632 
L 358.8 210.419632 
" style="fill:none;stroke:#ff00ff;stroke-linecap:square;stroke-width:1.5;"/>
   </g>
   <g id="line2d_48">
    <defs>
     <path d="M -0 8.485281 
L 5.091169 0 
L 0 -8.485281 
L -5.091169 -0 
z
" id="m888eecc98b" style="stroke:#ff00ff;stroke-linejoin:miter;stroke-width:1.5;"/>
    </defs>
    <g>
     <use style="fill:none;stroke:#ff00ff;stroke-linejoin:miter;stroke-width:1.5;" x="159.84766" xlink:href="#m888eecc98b" y="251.232772"/>
     <use style="fill:none;stroke:#ff00ff;stroke-linejoin:miter;stroke-width:1.5;" x="193.944001" xlink:href="#m888eecc98b" y="227.468159"/>
     <use style="fill:none;stroke:#ff00ff;stroke-linejoin:miter;stroke-width:1.5;" x="248.432533" xlink:href="#m888eecc98b" y="210.419632"/>
     <use style="fill:none;stroke:#ff00ff;stroke-linejoin:miter;stroke-width:1.5;" x="248.432533" xlink:href="#m888eecc98b" y="210.419632"/>
     <use style="fill:none;stroke:#ff00ff;stroke-linejoin:miter;stroke-width:1.5;" x="358.8" xlink:href="#m888eecc98b" y="210.419632"/>
    </g>
   </g>
   <g id="line2d_49"/>
   <g id="line2d_50">
    <path clip-path="url(#paa2a574fea)" d="M 181.843337 240.383709 
" style="fill:none;stroke:#ff00ff;stroke-linecap:square;stroke-width:1.5;"/>
    <defs>
     <path d="M -12 12 
L 12 -12 
M -12 -12 
L 12 12 
" id="m81d3d8b208" style="stroke:#ff00ff;stroke-width:3;"/>
    </defs>
    <g clip-path="url(#paa2a574fea)">
     <use style="fill:#ff00ff;stroke:#ff00ff;stroke-width:3;" x="181.843337" xlink:href="#m81d3d8b208" y="240.383709"/>
    </g>
   </g>
   <g id="line2d_51">
    <defs>
     <path d="M 0 1.5 
C 0.397805 1.5 0.77937 1.341951 1.06066 1.06066 
C 1.341951 0.77937 1.5 0.397805 1.5 0 
C 1.5 -0.397805 1.341951 -0.77937 1.06066 -1.06066 
C 0.77937 -1.341951 0.397805 -1.5 0 -1.5 
C -0.397805 -1.5 -0.77937 -1.341951 -1.06066 -1.06066 
C -1.341951 -0.77937 -1.5 -0.397805 -1.5 0 
C -1.5 0.397805 -1.341951 0.77937 -1.06066 1.06066 
C -0.77937 1.341951 -0.397805 1.5 0 1.5 
z
" id="m9faa385f42" style="stroke:#ffa500;"/>
    </defs>
    <g>
     <use style="fill:#ffa500;stroke:#ffa500;" x="197.991329" xlink:href="#m9faa385f42" y="34.768147"/>
     <use style="fill:#ffa500;stroke:#ffa500;" x="197.991329" xlink:href="#m9faa385f42" y="34.768147"/>
    </g>
   </g>
   <g id="line2d_52">
    <path d="M 107.955702 298.245375 
L 107.955702 297.728753 
L 110.83726 297.728753 
L 110.83726 296.695509 
L 118.704803 296.695509 
L 118.704803 296.178887 
L 120.782147 296.178887 
L 120.782147 295.662265 
L 120.998733 295.662265 
L 120.998733 294.629021 
L 121.424184 294.629021 
L 121.424184 293.595777 
L 121.839741 293.595777 
L 121.839741 293.079155 
L 123.598679 293.079155 
L 123.598679 292.562533 
L 124.148511 292.562533 
L 124.148511 291.529289 
L 126.669319 291.529289 
L 126.669319 291.012667 
L 127.436309 291.012667 
L 127.436309 289.979423 
L 127.585834 289.979423 
L 127.585834 289.462801 
L 128.027044 289.462801 
L 128.027044 288.946179 
L 128.171726 288.946179 
L 128.171726 288.429557 
L 128.315246 288.429557 
L 128.315246 286.879691 
L 128.457622 286.879691 
L 128.457622 286.363069 
L 128.598873 286.363069 
L 128.598873 285.329825 
L 128.739016 285.329825 
L 128.739016 284.813203 
L 129.288847 284.813203 
L 129.288847 283.779959 
L 129.423702 283.779959 
L 129.423702 283.263337 
L 130.212129 283.263337 
L 130.212129 282.746715 
L 130.593669 282.746715 
L 130.593669 281.713471 
L 131.090037 281.713471 
L 131.090037 280.680226 
L 131.212004 280.680226 
L 131.212004 280.163604 
L 132.273789 280.163604 
L 132.273789 279.13036 
L 132.387963 279.13036 
L 132.387963 278.613738 
L 132.726171 278.613738 
L 132.726171 278.097116 
L 132.837499 278.097116 
L 132.837499 277.580494 
L 133.058096 277.580494 
L 133.058096 277.063872 
L 133.383967 277.063872 
L 133.383967 275.514006 
L 133.597959 275.514006 
L 133.704001 273.447518 
L 133.809418 273.447518 
L 133.914217 272.414274 
L 134.327371 272.414274 
L 134.327371 270.864408 
L 135.3203 270.864408 
L 135.3203 269.314542 
L 135.607728 269.314542 
L 135.70252 266.21481 
L 136.260944 266.21481 
L 136.260944 265.698188 
L 137.067161 265.698188 
L 137.067161 265.181566 
L 137.328014 265.181566 
L 137.328014 264.664944 
L 137.499824 264.664944 
L 137.499824 264.148322 
L 137.669998 264.148322 
L 137.669998 263.6317 
L 137.922258 263.6317 
L 138.005559 262.598456 
L 138.253158 262.598456 
L 138.253158 262.081834 
L 138.897124 262.081834 
L 138.897124 261.565212 
L 139.054554 261.565212 
L 139.054554 260.531968 
L 139.518687 260.531968 
L 139.518687 259.498724 
L 139.746309 259.498724 
L 139.746309 258.982102 
L 139.896462 258.982102 
L 139.896462 257.948858 
L 140.266416 257.948858 
L 140.266416 256.915614 
L 140.412279 256.915614 
L 140.484766 255.88237 
L 140.55696 255.88237 
L 140.628864 251.232772 
L 140.77181 251.232772 
L 140.77181 250.71615 
L 140.984107 250.71615 
L 140.984107 250.199528 
L 141.12425 250.199528 
L 141.193911 248.649662 
L 141.263302 248.649662 
L 141.263302 247.616418 
L 141.808936 247.616418 
L 141.875983 246.066551 
L 141.94278 246.066551 
L 141.94278 245.549929 
L 142.075629 245.549929 
L 142.075629 245.033307 
L 142.273069 245.033307 
L 142.3384 244.000063 
L 142.403494 244.000063 
L 142.403494 243.483441 
L 142.72545 243.483441 
L 142.72545 241.933575 
L 143.166661 241.933575 
L 143.166661 240.900331 
L 143.597239 240.900331 
L 143.657911 238.833843 
L 143.718379 238.833843 
L 143.778642 237.800599 
L 143.898563 237.800599 
L 143.898563 237.283977 
L 144.136017 237.283977 
L 144.136017 236.767355 
L 144.370356 236.767355 
L 144.370356 235.734111 
L 144.544115 235.734111 
L 144.601662 233.667623 
L 144.659023 233.667623 
L 144.659023 233.151001 
L 144.886646 233.151001 
L 144.886646 232.117757 
L 145.055479 232.117757 
L 145.055479 231.601135 
L 145.167155 231.601135 
L 145.167155 231.084513 
L 146.036293 231.084513 
L 146.142022 229.018025 
L 146.403639 229.018025 
L 146.403639 227.984781 
L 146.712605 227.984781 
L 146.814418 226.951537 
L 147.314958 226.951537 
L 147.314958 226.434915 
L 147.511313 226.434915 
L 147.511313 225.918293 
L 148.040421 225.918293 
L 148.134962 224.885049 
L 148.182045 224.885049 
L 148.229005 223.335183 
L 148.461969 223.335183 
L 148.461969 222.301939 
L 148.737575 222.301939 
L 148.828507 220.752073 
L 148.8738 220.752073 
L 148.8738 219.718829 
L 149.143174 219.718829 
L 149.23207 215.585853 
L 149.320526 215.585853 
L 149.320526 215.069231 
L 149.452395 215.069231 
L 149.452395 214.552609 
L 149.713248 214.552609 
L 149.79936 212.48612 
L 150.055232 212.48612 
L 150.097524 211.452876 
L 150.265695 211.452876 
L 150.265695 210.936254 
L 150.638393 210.936254 
L 150.638393 209.90301 
L 150.842136 209.90301 
L 150.882607 206.803278 
L 151.003475 206.803278 
L 151.003475 205.770034 
L 151.242783 205.770034 
L 151.242783 205.253412 
L 151.556956 205.253412 
L 151.556956 204.73679 
L 151.750545 204.73679 
L 151.827398 202.670302 
L 151.8657 202.670302 
L 151.94206 201.637058 
L 151.980117 201.637058 
L 152.055991 200.603814 
L 152.356302 200.603814 
L 152.393489 199.053948 
L 152.761158 199.053948 
L 152.761158 198.537326 
L 152.906134 198.537326 
L 152.906134 197.504082 
L 153.085714 197.504082 
L 153.157044 195.954216 
L 153.263508 195.954216 
L 153.298855 193.887728 
L 153.40448 193.887728 
L 153.40448 192.337862 
L 153.579145 192.337862 
L 153.579145 191.82124 
L 153.717659 191.82124 
L 153.820843 189.23813 
L 154.025442 189.23813 
L 154.093125 187.171642 
L 154.294647 187.171642 
L 154.294647 186.65502 
L 154.493922 186.65502 
L 154.592732 185.621776 
L 154.853585 185.621776 
L 154.853585 184.07191 
L 155.046755 184.07191 
L 155.046755 183.555288 
L 155.206151 183.555288 
L 155.206151 181.4888 
L 155.364137 181.4888 
L 155.364137 180.972178 
L 155.551895 180.972178 
L 155.582997 179.938934 
L 155.675979 179.938934 
L 155.706866 177.872445 
L 155.829883 177.872445 
L 155.891075 175.805957 
L 155.982473 175.805957 
L 156.043145 174.772713 
L 156.253892 174.772713 
L 156.253892 174.256091 
L 156.432575 174.256091 
L 156.432575 173.222847 
L 156.550712 173.222847 
L 156.580124 171.672981 
L 156.726465 171.672981 
L 156.813698 170.123115 
L 156.871617 170.123115 
L 156.900507 168.056627 
L 157.356496 168.056627 
L 157.412685 167.023383 
L 157.69101 167.023383 
L 157.801138 164.956895 
L 157.828564 164.956895 
L 157.828564 163.923651 
L 158.019377 163.923651 
L 158.100534 161.340541 
L 158.234983 161.340541 
L 158.341818 159.790675 
L 158.448018 159.790675 
L 158.527256 156.690943 
L 158.658543 156.690943 
L 158.736855 154.624455 
L 158.892456 154.624455 
L 158.892456 154.107833 
L 159.300888 154.107833 
L 159.401554 152.557967 
L 159.526594 152.557967 
L 159.6012 150.491479 
L 159.650765 150.491479 
L 159.650765 149.974857 
L 159.823167 149.974857 
L 159.896547 148.424991 
L 159.945301 148.424991 
L 159.993921 147.391747 
L 160.258996 147.391747 
L 160.258996 146.875125 
L 160.378197 146.875125 
L 160.449337 143.25877 
L 160.520196 143.25877 
L 160.614239 141.708904 
L 160.707789 141.708904 
L 160.800853 140.159038 
L 160.824043 140.159038 
L 160.870333 137.575928 
L 161.054305 137.575928 
L 161.145586 135.50944 
L 161.191052 135.50944 
L 161.281638 133.442952 
L 161.371767 133.442952 
L 161.461444 132.409708 
L 161.572912 132.409708 
L 161.63946 130.34322 
L 161.859513 130.34322 
L 161.88137 128.276732 
L 162.05527 128.276732 
L 162.098482 126.726866 
L 162.227494 126.726866 
L 162.291653 124.143756 
L 162.355582 124.143756 
L 162.355582 123.627134 
L 162.567041 123.627134 
L 162.629994 122.59389 
L 162.879611 122.59389 
L 162.941474 121.044024 
L 163.125789 121.044024 
L 163.22737 116.394426 
L 163.267842 116.394426 
L 163.267842 114.84456 
L 163.548603 114.84456 
L 163.588354 113.811316 
L 163.667592 113.811316 
L 163.667592 113.294694 
L 163.844603 113.294694 
L 163.94219 111.228206 
L 163.961644 111.228206 
L 164.019878 110.194961 
L 164.155023 110.194961 
L 164.19345 108.645095 
L 164.346333 108.645095 
L 164.441225 106.061985 
L 164.592011 106.061985 
L 164.592011 105.545363 
L 164.797287 105.545363 
L 164.90827 101.412387 
L 164.963503 101.412387 
L 165.055182 98.829277 
L 165.128188 98.829277 
L 165.23714 96.246167 
L 165.255234 96.246167 
L 165.345432 92.113191 
L 165.399333 92.113191 
L 165.399333 91.079947 
L 165.577837 91.079947 
L 165.666425 89.530081 
L 165.73698 89.530081 
L 165.842293 86.946971 
L 165.859785 86.946971 
L 165.859785 83.847239 
L 165.981752 83.847239 
L 165.981752 83.330617 
L 166.206077 83.330617 
L 166.206077 82.297373 
L 166.325711 82.297373 
L 166.393716 78.164397 
L 166.512104 78.164397 
L 166.612959 76.097908 
L 166.729908 76.097908 
L 166.779796 74.548042 
L 166.862634 74.548042 
L 166.895662 73.514798 
L 167.010781 73.514798 
L 167.092558 69.381822 
L 167.125164 69.381822 
L 167.190198 67.315334 
L 167.367831 67.315334 
L 167.447993 64.215602 
L 167.575509 64.215602 
L 167.575509 63.69898 
L 167.702122 63.69898 
L 167.796496 61.11587 
L 167.968231 61.11587 
L 168.076664 59.049382 
L 168.122934 59.049382 
L 168.122934 58.53276 
L 168.24574 58.53276 
L 168.352506 55.433028 
L 168.594175 55.433028 
L 168.594175 54.916406 
L 168.935946 54.916406 
L 168.935946 53.883162 
L 169.271302 53.883162 
L 169.357761 51.816674 
L 169.572095 51.816674 
L 169.657114 50.78343 
L 169.923702 50.78343 
L 169.923702 50.266808 
L 170.186372 50.266808 
L 170.186372 49.750186 
L 170.404611 49.750186 
L 170.431704 47.683698 
L 170.633606 47.683698 
L 170.633606 46.650454 
L 170.846483 46.650454 
L 170.846483 46.133832 
L 171.251851 46.133832 
L 171.342127 45.100588 
L 171.419144 45.100588 
L 171.508581 43.550722 
L 173.093023 43.550722 
L 173.093023 43.0341 
L 173.56493 43.0341 
L 173.632956 40.967611 
L 177.173241 40.967611 
L 177.173241 39.934367 
L 179.322095 39.934367 
L 179.322095 39.417745 
L 179.477792 39.417745 
L 179.477792 38.901123 
L 181.039319 38.901123 
L 181.039319 38.384501 
L 187.499687 38.384501 
L 187.499687 37.867879 
L 188.343926 37.867879 
L 188.343926 37.351257 
L 189.16431 37.351257 
L 189.16431 36.834635 
L 190.590872 36.834635 
L 190.590872 36.318013 
L 197.070548 36.318013 
L 197.070548 35.801391 
L 197.866407 35.801391 
L 197.866407 35.284769 
L 197.991329 35.284769 
L 197.991329 34.768147 
L 358.8 34.768147 
L 358.8 34.768147 
" style="fill:none;stroke:#ffa500;stroke-linecap:square;stroke-width:1.5;"/>
   </g>
   <g id="line2d_53">
    <defs>
     <path d="M 0 -6 
L -1.347084 -1.854102 
L -5.706339 -1.854102 
L -2.179628 0.708204 
L -3.526712 4.854102 
L -0 2.291796 
L 3.526712 4.854102 
L 2.179628 0.708204 
L 5.706339 -1.854102 
L 1.347084 -1.854102 
z
" id="m714befffad" style="stroke:#ffa500;stroke-linejoin:bevel;stroke-width:1.5;"/>
    </defs>
    <g>
     <use style="fill:none;stroke:#ffa500;stroke-linejoin:bevel;stroke-width:1.5;" x="144.544115" xlink:href="#m714befffad" y="235.734111"/>
     <use style="fill:none;stroke:#ffa500;stroke-linejoin:bevel;stroke-width:1.5;" x="165.842293" xlink:href="#m714befffad" y="86.946971"/>
     <use style="fill:none;stroke:#ffa500;stroke-linejoin:bevel;stroke-width:1.5;" x="197.991329" xlink:href="#m714befffad" y="35.284769"/>
     <use style="fill:none;stroke:#ffa500;stroke-linejoin:bevel;stroke-width:1.5;" x="197.991329" xlink:href="#m714befffad" y="34.768147"/>
     <use style="fill:none;stroke:#ffa500;stroke-linejoin:bevel;stroke-width:1.5;" x="358.8" xlink:href="#m714befffad" y="34.768147"/>
    </g>
   </g>
   <g id="line2d_54"/>
   <g id="line2d_55">
    <path clip-path="url(#paa2a574fea)" d="M 181.843337 38.384501 
" style="fill:none;stroke:#ffa500;stroke-linecap:square;stroke-width:1.5;"/>
    <defs>
     <path d="M -12 12 
L 12 -12 
M -12 -12 
L 12 12 
" id="m4a74dc9a58" style="stroke:#ffa500;stroke-width:3;"/>
    </defs>
    <g clip-path="url(#paa2a574fea)">
     <use style="fill:#ffa500;stroke:#ffa500;stroke-width:3;" x="181.843337" xlink:href="#m4a74dc9a58" y="38.384501"/>
    </g>
   </g>
   <g id="line2d_56">
    <defs>
     <path d="M 0 1.5 
C 0.397805 1.5 0.77937 1.341951 1.06066 1.06066 
C 1.341951 0.77937 1.5 0.397805 1.5 0 
C 1.5 -0.397805 1.341951 -0.77937 1.06066 -1.06066 
C 0.77937 -1.341951 0.397805 -1.5 0 -1.5 
C -0.397805 -1.5 -0.77937 -1.341951 -1.06066 -1.06066 
C -1.341951 -0.77937 -1.5 -0.397805 -1.5 0 
C -1.5 0.397805 -1.341951 0.77937 -1.06066 1.06066 
C -0.77937 1.341951 -0.397805 1.5 0 1.5 
z
" id="ma5ff781591" style="stroke:#6495ed;"/>
    </defs>
    <g>
     <use style="fill:#6495ed;stroke:#6495ed;" x="261.417751" xlink:href="#ma5ff781591" y="34.768147"/>
     <use style="fill:#6495ed;stroke:#6495ed;" x="261.417751" xlink:href="#ma5ff781591" y="34.768147"/>
    </g>
   </g>
   <g id="line2d_57">
    <path d="M 105.569748 298.245375 
L 105.569748 297.728753 
L 106.073108 297.728753 
L 106.073108 296.178887 
L 107.503321 296.178887 
L 107.503321 295.662265 
L 109.247936 295.662265 
L 109.247936 294.629021 
L 111.213445 294.629021 
L 111.213445 293.595777 
L 111.581873 293.595777 
L 111.581873 292.562533 
L 112.296693 292.562533 
L 112.296693 291.529289 
L 113.64587 291.529289 
L 113.64587 291.012667 
L 113.967827 291.012667 
L 113.967827 289.462801 
L 114.284085 289.462801 
L 114.284085 288.429557 
L 115.495947 288.429557 
L 115.495947 287.912935 
L 116.072388 287.912935 
L 116.072388 287.396313 
L 116.630812 287.396313 
L 116.630812 286.363069 
L 117.697882 286.363069 
L 117.697882 283.779959 
L 119.187755 283.779959 
L 119.187755 283.263337 
L 120.782147 283.263337 
L 120.782147 282.746715 
L 122.04395 282.746715 
L 122.04395 282.230093 
L 123.03139 282.230093 
L 123.03139 281.713471 
L 123.222494 281.713471 
L 123.222494 281.196849 
L 124.148511 281.196849 
L 124.148511 279.646982 
L 125.19988 279.646982 
L 125.19988 279.13036 
L 125.537024 279.13036 
L 125.537024 278.613738 
L 127.436309 278.613738 
L 127.436309 278.097116 
L 128.027044 278.097116 
L 128.027044 277.580494 
L 128.171726 277.580494 
L 128.171726 277.063872 
L 129.152967 277.063872 
L 129.152967 276.030628 
L 129.822263 276.030628 
L 129.822263 275.514006 
L 131.212004 275.514006 
L 131.212004 274.997384 
L 131.333145 274.997384 
L 131.333145 273.447518 
L 132.043229 273.447518 
L 132.043229 272.414274 
L 132.158881 272.414274 
L 132.158881 271.897652 
L 132.726171 271.897652 
L 132.726171 271.38103 
L 132.837499 271.38103 
L 132.837499 270.347786 
L 133.809418 270.347786 
L 133.914217 269.314542 
L 134.929724 269.314542 
L 134.929724 268.79792 
L 135.607728 268.79792 
L 135.607728 268.281298 
L 135.890607 268.281298 
L 135.983913 266.21481 
L 137.328014 266.21481 
L 137.328014 265.698188 
L 138.253158 265.698188 
L 138.253158 265.181566 
L 139.288127 265.181566 
L 139.288127 264.664944 
L 140.913621 264.664944 
L 140.913621 264.148322 
L 141.94278 264.148322 
L 141.94278 263.115078 
L 142.273069 263.115078 
L 142.273069 262.598456 
L 142.978903 262.598456 
L 142.978903 262.081834 
L 143.838703 262.081834 
L 143.838703 261.565212 
L 144.886646 261.565212 
L 144.886646 261.04859 
L 148.964044 261.04859 
L 148.964044 259.498724 
L 149.496136 259.498724 
L 149.496136 258.982102 
L 152.319038 258.982102 
L 152.319038 258.46548 
L 154.950431 258.46548 
L 154.950431 257.432236 
L 156.986896 257.432236 
L 156.986896 256.915614 
L 157.129956 256.915614 
L 157.129956 256.398992 
L 158.154435 256.398992 
L 158.154435 255.88237 
L 161.705761 255.88237 
L 161.705761 255.365748 
L 167.335665 255.365748 
L 167.335665 253.815882 
L 167.921558 253.815882 
L 167.921558 251.232772 
L 168.122934 251.232772 
L 168.122934 250.71615 
L 169.458103 250.71615 
L 169.458103 250.199528 
L 170.350301 250.199528 
L 170.350301 249.166284 
L 174.526824 249.166284 
L 174.526824 248.13304 
L 175.264845 248.13304 
L 175.264845 247.616418 
L 176.023153 247.616418 
L 176.023153 246.066551 
L 177.005377 246.066551 
L 177.070845 244.516685 
L 177.357926 244.516685 
L 177.357926 243.483441 
L 177.495198 243.483441 
L 177.495198 242.966819 
L 178.086971 242.966819 
L 178.086971 241.416953 
L 178.914187 241.416953 
L 178.914187 240.900331 
L 180.118869 240.900331 
L 180.118869 233.667623 
L 180.283409 233.667623 
L 180.376756 230.051269 
L 182.83047 230.051269 
L 182.871002 229.018025 
L 185.813331 229.018025 
L 185.813331 227.984781 
L 188.199285 227.984781 
L 188.199285 227.468159 
L 188.536616 227.468159 
L 188.590591 225.918293 
L 189.088235 225.918293 
L 189.088235 224.885049 
L 191.562715 224.885049 
L 191.608291 223.851805 
L 192.18644 223.851805 
L 192.18644 223.335183 
L 192.823952 223.335183 
L 192.854852 220.752073 
L 193.387133 220.752073 
L 193.387133 215.069231 
L 193.510323 215.069231 
L 193.510323 213.002743 
L 194.749791 213.002743 
L 194.749791 212.48612 
L 194.991116 212.48612 
L 194.991116 211.969498 
L 195.633476 211.969498 
L 195.633476 211.452876 
L 196.871313 211.452876 
L 196.871313 210.936254 
L 197.447558 210.936254 
L 197.447558 210.419632 
L 197.802154 210.419632 
L 197.802154 209.90301 
L 197.956555 209.90301 
L 197.956555 209.386388 
L 198.215726 209.386388 
L 198.215726 208.869766 
L 199.741128 208.869766 
L 199.741128 208.353144 
L 200.408378 208.353144 
L 200.408378 207.836522 
L 200.549429 207.836522 
L 200.569489 206.803278 
L 200.916936 206.803278 
L 200.997859 199.57057 
L 201.985431 199.57057 
L 201.985431 199.053948 
L 202.112311 199.053948 
L 202.112311 198.537326 
L 203.68255 198.537326 
L 203.68255 198.020704 
L 203.993525 198.020704 
L 204.051364 195.954216 
L 205.330548 195.954216 
L 205.330548 195.437594 
L 205.794829 195.437594 
L 205.794829 194.40435 
L 205.925294 194.40435 
L 205.925294 193.887728 
L 206.198039 193.887728 
L 206.25829 183.555288 
L 208.574847 183.555288 
L 208.574847 183.038666 
L 209.578806 183.038666 
L 209.598472 180.972178 
L 209.969554 180.972178 
L 209.969554 180.455556 
L 210.269125 180.455556 
L 210.317116 171.156359 
L 210.842329 171.156359 
L 210.842329 170.639737 
L 213.013518 170.639737 
L 213.013518 170.123115 
L 213.334092 170.123115 
L 213.402656 169.089871 
L 213.582603 169.089871 
L 213.622481 162.890407 
L 215.134308 162.890407 
L 215.189678 161.857163 
L 215.88899 161.857163 
L 215.902807 160.823919 
L 216.37669 160.823919 
L 216.410801 155.141077 
L 218.368929 155.141077 
L 218.368929 154.624455 
L 218.607033 154.624455 
L 218.665384 152.557967 
L 218.792366 152.557967 
L 218.822166 146.358503 
L 220.544609 146.358503 
L 220.55362 144.808637 
L 220.800866 144.808637 
L 220.800866 144.292014 
L 220.920009 144.292014 
L 220.920009 142.225526 
L 222.644162 142.225526 
L 222.71977 139.642416 
L 222.821047 139.642416 
L 222.844836 132.409708 
L 224.404968 132.409708 
L 224.404968 131.893086 
L 224.539137 131.893086 
L 224.560746 124.143756 
L 225.833047 124.143756 
L 225.833047 123.627134 
L 226.017369 123.627134 
L 226.126216 115.361182 
L 226.921815 115.361182 
L 226.973349 114.327938 
L 227.465112 114.327938 
L 227.565512 106.578607 
L 228.646709 106.578607 
L 228.646709 106.061985 
L 228.880513 106.061985 
L 228.897463 103.995497 
L 230.053918 103.995497 
L 230.136977 100.895765 
L 231.218225 100.895765 
L 231.296056 97.279411 
L 232.173765 97.279411 
L 232.173765 96.762789 
L 232.307889 96.762789 
L 232.384505 92.629813 
L 233.397275 92.629813 
L 233.397275 90.563325 
L 234.368185 90.563325 
L 234.368185 87.980215 
L 235.210609 87.980215 
L 235.300889 82.297373 
L 236.114101 82.297373 
L 236.164766 80.230885 
L 236.999564 80.230885 
L 237.010327 75.581286 
L 237.753362 75.581286 
L 237.807388 72.481554 
L 238.560545 72.481554 
L 238.566822 69.381822 
L 239.234074 69.381822 
L 239.292707 67.315334 
L 239.870915 67.315334 
L 239.93968 66.28209 
L 239.996046 66.28209 
L 239.996046 65.765468 
L 240.672744 65.765468 
L 240.681508 62.149114 
L 241.324747 62.149114 
L 241.324747 61.632492 
L 241.899814 61.632492 
L 241.961951 59.566004 
L 242.561446 59.566004 
L 242.561446 58.53276 
L 243.041724 58.53276 
L 243.149112 55.94965 
L 243.156741 55.94965 
L 243.156741 54.916406 
L 243.672309 54.916406 
L 243.722766 53.883162 
L 244.269456 53.883162 
L 244.269456 52.849918 
L 245.323679 52.849918 
L 245.323679 51.816674 
L 245.828347 51.816674 
L 245.828347 51.300052 
L 246.319153 51.300052 
L 246.325542 50.266808 
L 246.796836 50.266808 
L 246.803057 48.20032 
L 247.262081 48.20032 
L 247.262081 47.683698 
L 247.721428 47.683698 
L 247.721428 47.167076 
L 248.157734 47.167076 
L 248.157734 46.133832 
L 248.589268 46.133832 
L 248.589268 45.61721 
L 249.010626 45.61721 
L 249.010626 45.100588 
L 249.422276 45.100588 
L 249.422276 44.583966 
L 250.195117 44.583966 
L 250.195117 44.067344 
L 250.532525 44.067344 
L 250.608238 42.517478 
L 251.71091 42.517478 
L 251.71091 42.000855 
L 252.350632 42.000855 
L 252.412977 40.967611 
L 253.068865 40.967611 
L 253.068865 40.450989 
L 253.416917 40.450989 
L 253.421212 38.901123 
L 254.037585 38.901123 
L 254.056183 37.867879 
L 254.367438 37.867879 
L 254.367438 37.351257 
L 254.673365 37.351257 
L 254.673365 36.834635 
L 256.383987 36.834635 
L 256.406464 35.801391 
L 260.994105 35.801391 
L 260.994105 35.284769 
L 261.417751 35.284769 
L 261.417751 34.768147 
L 358.8 34.768147 
L 358.8 34.768147 
" style="fill:none;stroke:#6495ed;stroke-linecap:square;stroke-width:1.5;"/>
   </g>
   <g id="line2d_58">
    <defs>
     <path d="M -0 6 
L 6 -6 
L -6 -6 
z
" id="m1ce6ac648f" style="stroke:#6495ed;stroke-linejoin:miter;stroke-width:1.5;"/>
    </defs>
    <g>
     <use style="fill:none;stroke:#6495ed;stroke-linejoin:miter;stroke-width:1.5;" x="152.319038" xlink:href="#m1ce6ac648f" y="258.982102"/>
     <use style="fill:none;stroke:#6495ed;stroke-linejoin:miter;stroke-width:1.5;" x="210.317116" xlink:href="#m1ce6ac648f" y="172.706225"/>
     <use style="fill:none;stroke:#6495ed;stroke-linejoin:miter;stroke-width:1.5;" x="241.324747" xlink:href="#m1ce6ac648f" y="62.149114"/>
     <use style="fill:none;stroke:#6495ed;stroke-linejoin:miter;stroke-width:1.5;" x="261.417751" xlink:href="#m1ce6ac648f" y="34.768147"/>
     <use style="fill:none;stroke:#6495ed;stroke-linejoin:miter;stroke-width:1.5;" x="358.8" xlink:href="#m1ce6ac648f" y="34.768147"/>
    </g>
   </g>
   <g id="line2d_59"/>
   <g id="line2d_60">
    <path clip-path="url(#paa2a574fea)" d="M 181.843337 230.051269 
" style="fill:none;stroke:#6495ed;stroke-linecap:square;stroke-width:1.5;"/>
    <defs>
     <path d="M -12 12 
L 12 -12 
M -12 -12 
L 12 12 
" id="mbc556b830b" style="stroke:#6495ed;stroke-width:3;"/>
    </defs>
    <g clip-path="url(#paa2a574fea)">
     <use style="fill:#6495ed;stroke:#6495ed;stroke-width:3;" x="181.843337" xlink:href="#mbc556b830b" y="230.051269"/>
    </g>
   </g>
   <g id="line2d_61">
    <path d="M 358.8 225.918293 
L 390.48 292.97583 
" style="fill:none;stroke:#000080;stroke-linecap:square;stroke-width:1.5;"/>
    <g>
     <use style="fill:none;stroke:#000080;stroke-width:1.5;" x="358.8" xlink:href="#mf94c2e69a7" y="225.918293"/>
     <use style="fill:none;stroke:#000080;stroke-width:1.5;" x="390.48" xlink:href="#mf94c2e69a7" y="292.97583"/>
    </g>
   </g>
   <g id="line2d_62">
    <path d="M 358.8 210.419632 
L 390.48 208.663118 
" style="fill:none;stroke:#ff00ff;stroke-linecap:square;stroke-width:1.5;"/>
    <g>
     <use style="fill:none;stroke:#ff00ff;stroke-linejoin:miter;stroke-width:1.5;" x="358.8" xlink:href="#m888eecc98b" y="210.419632"/>
     <use style="fill:none;stroke:#ff00ff;stroke-linejoin:miter;stroke-width:1.5;" x="390.48" xlink:href="#m888eecc98b" y="208.663118"/>
    </g>
   </g>
   <g id="line2d_63">
    <path d="M 358.8 34.768147 
L 390.48 124.350405 
" style="fill:none;stroke:#6495ed;stroke-linecap:square;stroke-width:1.5;"/>
    <g>
     <use style="fill:none;stroke:#6495ed;stroke-linejoin:miter;stroke-width:1.5;" x="358.8" xlink:href="#m1ce6ac648f" y="34.768147"/>
     <use style="fill:none;stroke:#6495ed;stroke-linejoin:miter;stroke-width:1.5;" x="390.48" xlink:href="#m1ce6ac648f" y="124.350405"/>
    </g>
   </g>
   <g id="line2d_64">
    <path d="M 358.8 34.768147 
L 390.48 40.037692 
" style="fill:none;stroke:#ffa500;stroke-linecap:square;stroke-width:1.5;"/>
    <g>
     <use style="fill:none;stroke:#ffa500;stroke-linejoin:bevel;stroke-width:1.5;" x="358.8" xlink:href="#m714befffad" y="34.768147"/>
     <use style="fill:none;stroke:#ffa500;stroke-linejoin:bevel;stroke-width:1.5;" x="390.48" xlink:href="#m714befffad" y="40.037692"/>
    </g>
   </g>
   <g id="line2d_65">
    <path d="M 358.8 298.245375 
L 358.8 34.768147 
" style="fill:none;stroke:#000000;stroke-linecap:square;stroke-width:1.5;"/>
   </g>
   <g id="patch_3">
    <path d="M 70.8 298.245375 
L 70.8 32.133375 
" style="fill:none;stroke:#000000;stroke-linecap:square;stroke-linejoin:miter;stroke-width:0.8;"/>
   </g>
   <g id="patch_4">
    <path d="M 427.92 298.245375 
L 427.92 32.133375 
" style="fill:none;stroke:#000000;stroke-linecap:square;stroke-linejoin:miter;stroke-width:0.8;"/>
   </g>
   <g id="patch_5">
    <path d="M 70.8 298.245375 
L 427.92 298.245375 
" style="fill:none;stroke:#000000;stroke-linecap:square;stroke-linejoin:miter;stroke-width:0.8;"/>
   </g>
   <g id="patch_6">
    <path d="M 70.8 32.133375 
L 427.92 32.133375 
" style="fill:none;stroke:#000000;stroke-linecap:square;stroke-linejoin:miter;stroke-width:0.8;"/>
   </g>
   <g id="text_14">
    <!-- f8 -->
    <g transform="translate(396.24 297.114893)scale(0.15 -0.15)">
     <use xlink:href="#DejaVuSans-66"/>
     <use x="35.205078" xlink:href="#DejaVuSans-38"/>
    </g>
   </g>
   <g id="text_15">
    <!-- f9 -->
    <defs>
     <path d="M 10.984375 1.515625 
L 10.984375 10.5 
Q 14.703125 8.734375 18.5 7.8125 
Q 22.3125 6.890625 25.984375 6.890625 
Q 35.75 6.890625 40.890625 13.453125 
Q 46.046875 20.015625 46.78125 33.40625 
Q 43.953125 29.203125 39.59375 26.953125 
Q 35.25 24.703125 29.984375 24.703125 
Q 19.046875 24.703125 12.671875 31.3125 
Q 6.296875 37.9375 6.296875 49.421875 
Q 6.296875 60.640625 12.9375 67.421875 
Q 19.578125 74.21875 30.609375 74.21875 
Q 43.265625 74.21875 49.921875 64.515625 
Q 56.59375 54.828125 56.59375 36.375 
Q 56.59375 19.140625 48.40625 8.859375 
Q 40.234375 -1.421875 26.421875 -1.421875 
Q 22.703125 -1.421875 18.890625 -0.6875 
Q 15.09375 0.046875 10.984375 1.515625 
M 30.609375 32.421875 
Q 37.25 32.421875 41.125 36.953125 
Q 45.015625 41.5 45.015625 49.421875 
Q 45.015625 57.28125 41.125 61.84375 
Q 37.25 66.40625 30.609375 66.40625 
Q 23.96875 66.40625 20.09375 61.84375 
Q 16.21875 57.28125 16.21875 49.421875 
Q 16.21875 41.5 20.09375 36.953125 
Q 23.96875 32.421875 30.609375 32.421875 
" id="DejaVuSans-39"/>
    </defs>
    <g transform="translate(396.24 212.80218)scale(0.15 -0.15)">
     <use xlink:href="#DejaVuSans-66"/>
     <use x="35.205078" xlink:href="#DejaVuSans-39"/>
    </g>
   </g>
   <g id="text_16">
    <!-- f7 -->
    <defs>
     <path d="M 8.203125 72.90625 
L 55.078125 72.90625 
L 55.078125 68.703125 
L 28.609375 0 
L 18.3125 0 
L 43.21875 64.59375 
L 8.203125 64.59375 
z
" id="DejaVuSans-37"/>
    </defs>
    <g transform="translate(396.24 128.489467)scale(0.15 -0.15)">
     <use xlink:href="#DejaVuSans-66"/>
     <use x="35.205078" xlink:href="#DejaVuSans-37"/>
    </g>
   </g>
   <g id="text_17">
    <!-- f6 -->
    <g transform="translate(396.24 44.176754)scale(0.15 -0.15)">
     <use xlink:href="#DejaVuSans-66"/>
     <use x="35.205078" xlink:href="#DejaVuSans-36"/>
    </g>
   </g>
   <g id="text_18">
    <!-- bbob -->
    <defs>
     <path d="M 48.6875 27.296875 
Q 48.6875 37.203125 44.609375 42.84375 
Q 40.53125 48.484375 33.40625 48.484375 
Q 26.265625 48.484375 22.1875 42.84375 
Q 18.109375 37.203125 18.109375 27.296875 
Q 18.109375 17.390625 22.1875 11.75 
Q 26.265625 6.109375 33.40625 6.109375 
Q 40.53125 6.109375 44.609375 11.75 
Q 48.6875 17.390625 48.6875 27.296875 
M 18.109375 46.390625 
Q 20.953125 51.265625 25.265625 53.625 
Q 29.59375 56 35.59375 56 
Q 45.5625 56 51.78125 48.09375 
Q 58.015625 40.1875 58.015625 27.296875 
Q 58.015625 14.40625 51.78125 6.484375 
Q 45.5625 -1.421875 35.59375 -1.421875 
Q 29.59375 -1.421875 25.265625 0.953125 
Q 20.953125 3.328125 18.109375 8.203125 
L 18.109375 0 
L 9.078125 0 
L 9.078125 75.984375 
L 18.109375 75.984375 
z
" id="DejaVuSans-62"/>
    </defs>
    <g transform="translate(74.3712 50.114612)scale(0.1666 -0.1666)">
     <use xlink:href="#DejaVuSans-62"/>
     <use x="63.476562" xlink:href="#DejaVuSans-62"/>
     <use x="126.953125" xlink:href="#DejaVuSans-6f"/>
     <use x="188.134766" xlink:href="#DejaVuSans-62"/>
    </g>
    <!-- Misc. moderate functions, 5-D -->
    <defs>
     <path d="M 9.8125 72.90625 
L 24.515625 72.90625 
L 43.109375 23.296875 
L 61.8125 72.90625 
L 76.515625 72.90625 
L 76.515625 0 
L 66.890625 0 
L 66.890625 64.015625 
L 48.09375 14.015625 
L 38.1875 14.015625 
L 19.390625 64.015625 
L 19.390625 0 
L 9.8125 0 
z
" id="DejaVuSans-4d"/>
     <path d="M 11.71875 12.40625 
L 22.015625 12.40625 
L 22.015625 4 
L 14.015625 -11.625 
L 7.71875 -11.625 
L 11.71875 4 
z
" id="DejaVuSans-2c"/>
     <path d="M 10.796875 72.90625 
L 49.515625 72.90625 
L 49.515625 64.59375 
L 19.828125 64.59375 
L 19.828125 46.734375 
Q 21.96875 47.46875 24.109375 47.828125 
Q 26.265625 48.1875 28.421875 48.1875 
Q 40.625 48.1875 47.75 41.5 
Q 54.890625 34.8125 54.890625 23.390625 
Q 54.890625 11.625 47.5625 5.09375 
Q 40.234375 -1.421875 26.90625 -1.421875 
Q 22.3125 -1.421875 17.546875 -0.640625 
Q 12.796875 0.140625 7.71875 1.703125 
L 7.71875 11.625 
Q 12.109375 9.234375 16.796875 8.0625 
Q 21.484375 6.890625 26.703125 6.890625 
Q 35.15625 6.890625 40.078125 11.328125 
Q 45.015625 15.765625 45.015625 23.390625 
Q 45.015625 31 40.078125 35.4375 
Q 35.15625 39.890625 26.703125 39.890625 
Q 22.75 39.890625 18.8125 39.015625 
Q 14.890625 38.140625 10.796875 36.28125 
z
" id="DejaVuSans-35"/>
     <path d="M 19.671875 64.796875 
L 19.671875 8.109375 
L 31.59375 8.109375 
Q 46.6875 8.109375 53.6875 14.9375 
Q 60.6875 21.78125 60.6875 36.53125 
Q 60.6875 51.171875 53.6875 57.984375 
Q 46.6875 64.796875 31.59375 64.796875 
z
M 9.8125 72.90625 
L 30.078125 72.90625 
Q 51.265625 72.90625 61.171875 64.09375 
Q 71.09375 55.28125 71.09375 36.53125 
Q 71.09375 17.671875 61.125 8.828125 
Q 51.171875 0 30.078125 0 
L 9.8125 0 
z
" id="DejaVuSans-44"/>
    </defs>
    <g transform="translate(74.3712 68.770168)scale(0.1666 -0.1666)">
     <use xlink:href="#DejaVuSans-4d"/>
     <use x="86.279297" xlink:href="#DejaVuSans-69"/>
     <use x="114.0625" xlink:href="#DejaVuSans-73"/>
     <use x="166.162109" xlink:href="#DejaVuSans-63"/>
     <use x="221.142578" xlink:href="#DejaVuSans-2e"/>
     <use x="252.929688" xlink:href="#DejaVuSans-20"/>
     <use x="284.716797" xlink:href="#DejaVuSans-6d"/>
     <use x="382.128906" xlink:href="#DejaVuSans-6f"/>
     <use x="443.310547" xlink:href="#DejaVuSans-64"/>
     <use x="506.787109" xlink:href="#DejaVuSans-65"/>
     <use x="568.310547" xlink:href="#DejaVuSans-72"/>
     <use x="609.423828" xlink:href="#DejaVuSans-61"/>
     <use x="670.703125" xlink:href="#DejaVuSans-74"/>
     <use x="709.912109" xlink:href="#DejaVuSans-65"/>
     <use x="771.435547" xlink:href="#DejaVuSans-20"/>
     <use x="803.222656" xlink:href="#DejaVuSans-66"/>
     <use x="838.427734" xlink:href="#DejaVuSans-75"/>
     <use x="901.806641" xlink:href="#DejaVuSans-6e"/>
     <use x="965.185547" xlink:href="#DejaVuSans-63"/>
     <use x="1020.166016" xlink:href="#DejaVuSans-74"/>
     <use x="1059.375" xlink:href="#DejaVuSans-69"/>
     <use x="1087.158203" xlink:href="#DejaVuSans-6f"/>
     <use x="1148.339844" xlink:href="#DejaVuSans-6e"/>
     <use x="1211.71875" xlink:href="#DejaVuSans-73"/>
     <use x="1263.818359" xlink:href="#DejaVuSans-2c"/>
     <use x="1295.605469" xlink:href="#DejaVuSans-20"/>
     <use x="1327.392578" xlink:href="#DejaVuSans-35"/>
     <use x="1391.015625" xlink:href="#DejaVuSans-2d"/>
     <use x="1427.099609" xlink:href="#DejaVuSans-44"/>
    </g>
    <!-- 51 targets in 100..1e-08 -->
    <g transform="translate(74.3712 87.425723)scale(0.1666 -0.1666)">
     <use xlink:href="#DejaVuSans-35"/>
     <use x="63.623047" xlink:href="#DejaVuSans-31"/>
     <use x="127.246094" xlink:href="#DejaVuSans-20"/>
     <use x="159.033203" xlink:href="#DejaVuSans-74"/>
     <use x="198.242188" xlink:href="#DejaVuSans-61"/>
     <use x="259.521484" xlink:href="#DejaVuSans-72"/>
     <use x="300.619141" xlink:href="#DejaVuSans-67"/>
     <use x="364.095703" xlink:href="#DejaVuSans-65"/>
     <use x="425.619141" xlink:href="#DejaVuSans-74"/>
     <use x="464.828125" xlink:href="#DejaVuSans-73"/>
     <use x="516.927734" xlink:href="#DejaVuSans-20"/>
     <use x="548.714844" xlink:href="#DejaVuSans-69"/>
     <use x="576.498047" xlink:href="#DejaVuSans-6e"/>
     <use x="639.876953" xlink:href="#DejaVuSans-20"/>
     <use x="671.664062" xlink:href="#DejaVuSans-31"/>
     <use x="735.287109" xlink:href="#DejaVuSans-30"/>
     <use x="798.910156" xlink:href="#DejaVuSans-30"/>
     <use x="862.533203" xlink:href="#DejaVuSans-2e"/>
     <use x="894.320312" xlink:href="#DejaVuSans-2e"/>
     <use x="926.107422" xlink:href="#DejaVuSans-31"/>
     <use x="989.730469" xlink:href="#DejaVuSans-65"/>
     <use x="1051.253906" xlink:href="#DejaVuSans-2d"/>
     <use x="1087.337891" xlink:href="#DejaVuSans-30"/>
     <use x="1150.960938" xlink:href="#DejaVuSans-38"/>
    </g>
    <!-- 15 instances -->
    <g transform="translate(74.3712 106.081279)scale(0.1666 -0.1666)">
     <use xlink:href="#DejaVuSans-31"/>
     <use x="63.623047" xlink:href="#DejaVuSans-35"/>
     <use x="127.246094" xlink:href="#DejaVuSans-20"/>
     <use x="159.033203" xlink:href="#DejaVuSans-69"/>
     <use x="186.816406" xlink:href="#DejaVuSans-6e"/>
     <use x="250.195312" xlink:href="#DejaVuSans-73"/>
     <use x="302.294922" xlink:href="#DejaVuSans-74"/>
     <use x="341.503906" xlink:href="#DejaVuSans-61"/>
     <use x="402.783203" xlink:href="#DejaVuSans-6e"/>
     <use x="466.162109" xlink:href="#DejaVuSans-63"/>
     <use x="521.142578" xlink:href="#DejaVuSans-65"/>
     <use x="582.666016" xlink:href="#DejaVuSans-73"/>
    </g>
   </g>
   <g id="text_19">
    <!-- v2.1 -->
    <g style="fill:#808080;" transform="translate(238.449063 293.504568)scale(0.1 -0.1)">
     <use xlink:href="#DejaVuSans-76"/>
     <use x="59.179688" xlink:href="#DejaVuSans-32"/>
     <use x="122.802734" xlink:href="#DejaVuSans-2e"/>
     <use x="154.589844" xlink:href="#DejaVuSans-31"/>
    </g>
   </g>
  </g>
 </g>
 <defs>
  <clipPath id="paa2a574fea">
   <rect height="266.112" width="357.12" x="70.8" y="32.133375"/>
  </clipPath>
 </defs>
</svg>
