<?xml version="1.0" encoding="utf-8" standalone="no"?>
<!DOCTYPE svg PUBLIC "-//W3C//DTD SVG 1.1//EN"
  "http://www.w3.org/Graphics/SVG/1.1/DTD/svg11.dtd">
<!-- Created with matplotlib (http://matplotlib.org/) -->
<svg height="353pt" version="1.1" viewBox="0 0 447 353" width="447pt" xmlns="http://www.w3.org/2000/svg" xmlns:xlink="http://www.w3.org/1999/xlink">
 <defs>
  <style type="text/css">
*{stroke-linecap:butt;stroke-linejoin:round;}
  </style>
 </defs>
 <g id="figure_1">
  <g id="patch_1">
   <path d="M 0 353.22225 
L 447.802544 353.22225 
L 447.802544 0 
L 0 0 
z
" style="fill:#ffffff;"/>
  </g>
  <g id="axes_1">
   <g id="patch_2">
    <path d="M 79.113325 298.245375 
L 436.233325 298.245375 
L 436.233325 32.133375 
L 79.113325 32.133375 
z
" style="fill:#ffffff;"/>
   </g>
   <g id="matplotlib.axis_1">
    <g id="xtick_1">
     <g id="line2d_1">
      <path clip-path="url(#pe4f69ae827)" d="M 79.113325 298.245375 
L 79.113325 32.133375 
" style="fill:none;stroke:#b0b0b0;stroke-linecap:square;stroke-width:0.8;"/>
     </g>
     <g id="line2d_2">
      <defs>
       <path d="M 0 0 
L 0 3.5 
" id="mff2f8c4cc8" style="stroke:#000000;stroke-width:0.8;"/>
      </defs>
      <g>
       <use style="stroke:#000000;stroke-width:0.8;" x="79.113325" xlink:href="#mff2f8c4cc8" y="298.245375"/>
      </g>
     </g>
     <g id="text_1">
      <!-- 0 -->
      <defs>
       <path d="M 31.78125 66.40625 
Q 24.171875 66.40625 20.328125 58.90625 
Q 16.5 51.421875 16.5 36.375 
Q 16.5 21.390625 20.328125 13.890625 
Q 24.171875 6.390625 31.78125 6.390625 
Q 39.453125 6.390625 43.28125 13.890625 
Q 47.125 21.390625 47.125 36.375 
Q 47.125 51.421875 43.28125 58.90625 
Q 39.453125 66.40625 31.78125 66.40625 
M 31.78125 74.21875 
Q 44.046875 74.21875 50.515625 64.515625 
Q 56.984375 54.828125 56.984375 36.375 
Q 56.984375 17.96875 50.515625 8.265625 
Q 44.046875 -1.421875 31.78125 -1.421875 
Q 19.53125 -1.421875 13.0625 8.265625 
Q 6.59375 17.96875 6.59375 36.375 
Q 6.59375 54.828125 13.0625 64.515625 
Q 19.53125 74.21875 31.78125 74.21875 
" id="DejaVuSans-30"/>
      </defs>
      <g transform="translate(72.750825 320.44225)scale(0.2 -0.2)">
       <use xlink:href="#DejaVuSans-30"/>
      </g>
     </g>
    </g>
    <g id="xtick_2">
     <g id="line2d_3">
      <path clip-path="url(#pe4f69ae827)" d="M 161.39904 298.245375 
L 161.39904 32.133375 
" style="fill:none;stroke:#b0b0b0;stroke-linecap:square;stroke-width:0.8;"/>
     </g>
     <g id="line2d_4">
      <g>
       <use style="stroke:#000000;stroke-width:0.8;" x="161.39904" xlink:href="#mff2f8c4cc8" y="298.245375"/>
      </g>
     </g>
     <g id="text_2">
      <!-- 2 -->
      <defs>
       <path d="M 19.1875 8.296875 
L 53.609375 8.296875 
L 53.609375 0 
L 7.328125 0 
L 7.328125 8.296875 
Q 12.9375 14.109375 22.625 23.890625 
Q 32.328125 33.6875 34.8125 36.53125 
Q 39.546875 41.84375 41.421875 45.53125 
Q 43.3125 49.21875 43.3125 52.78125 
Q 43.3125 58.59375 39.234375 62.25 
Q 35.15625 65.921875 28.609375 65.921875 
Q 23.96875 65.921875 18.8125 64.3125 
Q 13.671875 62.703125 7.8125 59.421875 
L 7.8125 69.390625 
Q 13.765625 71.78125 18.9375 73 
Q 24.125 74.21875 28.421875 74.21875 
Q 39.75 74.21875 46.484375 68.546875 
Q 53.21875 62.890625 53.21875 53.421875 
Q 53.21875 48.921875 51.53125 44.890625 
Q 49.859375 40.875 45.40625 35.40625 
Q 44.1875 33.984375 37.640625 27.21875 
Q 31.109375 20.453125 19.1875 8.296875 
" id="DejaVuSans-32"/>
      </defs>
      <g transform="translate(155.03654 320.44225)scale(0.2 -0.2)">
       <use xlink:href="#DejaVuSans-32"/>
      </g>
     </g>
    </g>
    <g id="xtick_3">
     <g id="line2d_5">
      <path clip-path="url(#pe4f69ae827)" d="M 243.684754 298.245375 
L 243.684754 32.133375 
" style="fill:none;stroke:#b0b0b0;stroke-linecap:square;stroke-width:0.8;"/>
     </g>
     <g id="line2d_6">
      <g>
       <use style="stroke:#000000;stroke-width:0.8;" x="243.684754" xlink:href="#mff2f8c4cc8" y="298.245375"/>
      </g>
     </g>
     <g id="text_3">
      <!-- 4 -->
      <defs>
       <path d="M 37.796875 64.3125 
L 12.890625 25.390625 
L 37.796875 25.390625 
z
M 35.203125 72.90625 
L 47.609375 72.90625 
L 47.609375 25.390625 
L 58.015625 25.390625 
L 58.015625 17.1875 
L 47.609375 17.1875 
L 47.609375 0 
L 37.796875 0 
L 37.796875 17.1875 
L 4.890625 17.1875 
L 4.890625 26.703125 
z
" id="DejaVuSans-34"/>
      </defs>
      <g transform="translate(237.322254 320.44225)scale(0.2 -0.2)">
       <use xlink:href="#DejaVuSans-34"/>
      </g>
     </g>
    </g>
    <g id="xtick_4">
     <g id="line2d_7">
      <path clip-path="url(#pe4f69ae827)" d="M 325.970468 298.245375 
L 325.970468 32.133375 
" style="fill:none;stroke:#b0b0b0;stroke-linecap:square;stroke-width:0.8;"/>
     </g>
     <g id="line2d_8">
      <g>
       <use style="stroke:#000000;stroke-width:0.8;" x="325.970468" xlink:href="#mff2f8c4cc8" y="298.245375"/>
      </g>
     </g>
     <g id="text_4">
      <!-- 6 -->
      <defs>
       <path d="M 33.015625 40.375 
Q 26.375 40.375 22.484375 35.828125 
Q 18.609375 31.296875 18.609375 23.390625 
Q 18.609375 15.53125 22.484375 10.953125 
Q 26.375 6.390625 33.015625 6.390625 
Q 39.65625 6.390625 43.53125 10.953125 
Q 47.40625 15.53125 47.40625 23.390625 
Q 47.40625 31.296875 43.53125 35.828125 
Q 39.65625 40.375 33.015625 40.375 
M 52.59375 71.296875 
L 52.59375 62.3125 
Q 48.875 64.0625 45.09375 64.984375 
Q 41.3125 65.921875 37.59375 65.921875 
Q 27.828125 65.921875 22.671875 59.328125 
Q 17.53125 52.734375 16.796875 39.40625 
Q 19.671875 43.65625 24.015625 45.921875 
Q 28.375 48.1875 33.59375 48.1875 
Q 44.578125 48.1875 50.953125 41.515625 
Q 57.328125 34.859375 57.328125 23.390625 
Q 57.328125 12.15625 50.6875 5.359375 
Q 44.046875 -1.421875 33.015625 -1.421875 
Q 20.359375 -1.421875 13.671875 8.265625 
Q 6.984375 17.96875 6.984375 36.375 
Q 6.984375 53.65625 15.1875 63.9375 
Q 23.390625 74.21875 37.203125 74.21875 
Q 40.921875 74.21875 44.703125 73.484375 
Q 48.484375 72.75 52.59375 71.296875 
" id="DejaVuSans-36"/>
      </defs>
      <g transform="translate(319.607968 320.44225)scale(0.2 -0.2)">
       <use xlink:href="#DejaVuSans-36"/>
      </g>
     </g>
    </g>
    <g id="xtick_5">
     <g id="line2d_9">
      <path clip-path="url(#pe4f69ae827)" d="M 408.256183 298.245375 
L 408.256183 32.133375 
" style="fill:none;stroke:#b0b0b0;stroke-linecap:square;stroke-width:0.8;"/>
     </g>
     <g id="line2d_10">
      <g>
       <use style="stroke:#000000;stroke-width:0.8;" x="408.256183" xlink:href="#mff2f8c4cc8" y="298.245375"/>
      </g>
     </g>
     <g id="text_5">
      <!-- 8 -->
      <defs>
       <path d="M 31.78125 34.625 
Q 24.75 34.625 20.71875 30.859375 
Q 16.703125 27.09375 16.703125 20.515625 
Q 16.703125 13.921875 20.71875 10.15625 
Q 24.75 6.390625 31.78125 6.390625 
Q 38.8125 6.390625 42.859375 10.171875 
Q 46.921875 13.96875 46.921875 20.515625 
Q 46.921875 27.09375 42.890625 30.859375 
Q 38.875 34.625 31.78125 34.625 
M 21.921875 38.8125 
Q 15.578125 40.375 12.03125 44.71875 
Q 8.5 49.078125 8.5 55.328125 
Q 8.5 64.0625 14.71875 69.140625 
Q 20.953125 74.21875 31.78125 74.21875 
Q 42.671875 74.21875 48.875 69.140625 
Q 55.078125 64.0625 55.078125 55.328125 
Q 55.078125 49.078125 51.53125 44.71875 
Q 48 40.375 41.703125 38.8125 
Q 48.828125 37.15625 52.796875 32.3125 
Q 56.78125 27.484375 56.78125 20.515625 
Q 56.78125 9.90625 50.3125 4.234375 
Q 43.84375 -1.421875 31.78125 -1.421875 
Q 19.734375 -1.421875 13.25 4.234375 
Q 6.78125 9.90625 6.78125 20.515625 
Q 6.78125 27.484375 10.78125 32.3125 
Q 14.796875 37.15625 21.921875 38.8125 
M 18.3125 54.390625 
Q 18.3125 48.734375 21.84375 45.5625 
Q 25.390625 42.390625 31.78125 42.390625 
Q 38.140625 42.390625 41.71875 45.5625 
Q 45.3125 48.734375 45.3125 54.390625 
Q 45.3125 60.0625 41.71875 63.234375 
Q 38.140625 66.40625 31.78125 66.40625 
Q 25.390625 66.40625 21.84375 63.234375 
Q 18.3125 60.0625 18.3125 54.390625 
" id="DejaVuSans-38"/>
      </defs>
      <g transform="translate(401.893683 320.44225)scale(0.2 -0.2)">
       <use xlink:href="#DejaVuSans-38"/>
      </g>
     </g>
    </g>
    <g id="xtick_6">
     <g id="line2d_11">
      <defs>
       <path d="M 0 0 
L 0 2 
" id="m2cb6e69f22" style="stroke:#000000;stroke-width:0.6;"/>
      </defs>
      <g>
       <use style="stroke:#000000;stroke-width:0.6;" x="91.498559" xlink:href="#m2cb6e69f22" y="298.245375"/>
      </g>
     </g>
    </g>
    <g id="xtick_7">
     <g id="line2d_12">
      <g>
       <use style="stroke:#000000;stroke-width:0.6;" x="103.883794" xlink:href="#m2cb6e69f22" y="298.245375"/>
      </g>
     </g>
    </g>
    <g id="xtick_8">
     <g id="line2d_13">
      <g>
       <use style="stroke:#000000;stroke-width:0.6;" x="111.128691" xlink:href="#m2cb6e69f22" y="298.245375"/>
      </g>
     </g>
    </g>
    <g id="xtick_9">
     <g id="line2d_14">
      <g>
       <use style="stroke:#000000;stroke-width:0.6;" x="116.269028" xlink:href="#m2cb6e69f22" y="298.245375"/>
      </g>
     </g>
    </g>
    <g id="xtick_10">
     <g id="line2d_15">
      <g>
       <use style="stroke:#000000;stroke-width:0.6;" x="173.784274" xlink:href="#m2cb6e69f22" y="298.245375"/>
      </g>
     </g>
    </g>
    <g id="xtick_11">
     <g id="line2d_16">
      <g>
       <use style="stroke:#000000;stroke-width:0.6;" x="186.169508" xlink:href="#m2cb6e69f22" y="298.245375"/>
      </g>
     </g>
    </g>
    <g id="xtick_12">
     <g id="line2d_17">
      <g>
       <use style="stroke:#000000;stroke-width:0.6;" x="193.414405" xlink:href="#m2cb6e69f22" y="298.245375"/>
      </g>
     </g>
    </g>
    <g id="xtick_13">
     <g id="line2d_18">
      <g>
       <use style="stroke:#000000;stroke-width:0.6;" x="198.554742" xlink:href="#m2cb6e69f22" y="298.245375"/>
      </g>
     </g>
    </g>
    <g id="xtick_14">
     <g id="line2d_19">
      <g>
       <use style="stroke:#000000;stroke-width:0.6;" x="256.069988" xlink:href="#m2cb6e69f22" y="298.245375"/>
      </g>
     </g>
    </g>
    <g id="xtick_15">
     <g id="line2d_20">
      <g>
       <use style="stroke:#000000;stroke-width:0.6;" x="268.455222" xlink:href="#m2cb6e69f22" y="298.245375"/>
      </g>
     </g>
    </g>
    <g id="xtick_16">
     <g id="line2d_21">
      <g>
       <use style="stroke:#000000;stroke-width:0.6;" x="275.70012" xlink:href="#m2cb6e69f22" y="298.245375"/>
      </g>
     </g>
    </g>
    <g id="xtick_17">
     <g id="line2d_22">
      <g>
       <use style="stroke:#000000;stroke-width:0.6;" x="280.840456" xlink:href="#m2cb6e69f22" y="298.245375"/>
      </g>
     </g>
    </g>
    <g id="xtick_18">
     <g id="line2d_23">
      <g>
       <use style="stroke:#000000;stroke-width:0.6;" x="338.355702" xlink:href="#m2cb6e69f22" y="298.245375"/>
      </g>
     </g>
    </g>
    <g id="xtick_19">
     <g id="line2d_24">
      <g>
       <use style="stroke:#000000;stroke-width:0.6;" x="350.740936" xlink:href="#m2cb6e69f22" y="298.245375"/>
      </g>
     </g>
    </g>
    <g id="xtick_20">
     <g id="line2d_25">
      <g>
       <use style="stroke:#000000;stroke-width:0.6;" x="357.985834" xlink:href="#m2cb6e69f22" y="298.245375"/>
      </g>
     </g>
    </g>
    <g id="xtick_21">
     <g id="line2d_26">
      <g>
       <use style="stroke:#000000;stroke-width:0.6;" x="363.126171" xlink:href="#m2cb6e69f22" y="298.245375"/>
      </g>
     </g>
    </g>
    <g id="xtick_22">
     <g id="line2d_27">
      <g>
       <use style="stroke:#000000;stroke-width:0.6;" x="420.641417" xlink:href="#m2cb6e69f22" y="298.245375"/>
      </g>
     </g>
    </g>
    <g id="xtick_23">
     <g id="line2d_28">
      <g>
       <use style="stroke:#000000;stroke-width:0.6;" x="433.026651" xlink:href="#m2cb6e69f22" y="298.245375"/>
      </g>
     </g>
    </g>
    <g id="text_6">
     <!-- log10 of (# f-evals / dimension) -->
     <defs>
      <path d="M 9.421875 75.984375 
L 18.40625 75.984375 
L 18.40625 0 
L 9.421875 0 
z
" id="DejaVuSans-6c"/>
      <path d="M 30.609375 48.390625 
Q 23.390625 48.390625 19.1875 42.75 
Q 14.984375 37.109375 14.984375 27.296875 
Q 14.984375 17.484375 19.15625 11.84375 
Q 23.34375 6.203125 30.609375 6.203125 
Q 37.796875 6.203125 41.984375 11.859375 
Q 46.1875 17.53125 46.1875 27.296875 
Q 46.1875 37.015625 41.984375 42.703125 
Q 37.796875 48.390625 30.609375 48.390625 
M 30.609375 56 
Q 42.328125 56 49.015625 48.375 
Q 55.71875 40.765625 55.71875 27.296875 
Q 55.71875 13.875 49.015625 6.21875 
Q 42.328125 -1.421875 30.609375 -1.421875 
Q 18.84375 -1.421875 12.171875 6.21875 
Q 5.515625 13.875 5.515625 27.296875 
Q 5.515625 40.765625 12.171875 48.375 
Q 18.84375 56 30.609375 56 
" id="DejaVuSans-6f"/>
      <path d="M 45.40625 27.984375 
Q 45.40625 37.75 41.375 43.109375 
Q 37.359375 48.484375 30.078125 48.484375 
Q 22.859375 48.484375 18.828125 43.109375 
Q 14.796875 37.75 14.796875 27.984375 
Q 14.796875 18.265625 18.828125 12.890625 
Q 22.859375 7.515625 30.078125 7.515625 
Q 37.359375 7.515625 41.375 12.890625 
Q 45.40625 18.265625 45.40625 27.984375 
M 54.390625 6.78125 
Q 54.390625 -7.171875 48.1875 -13.984375 
Q 42 -20.796875 29.203125 -20.796875 
Q 24.46875 -20.796875 20.265625 -20.09375 
Q 16.0625 -19.390625 12.109375 -17.921875 
L 12.109375 -9.1875 
Q 16.0625 -11.328125 19.921875 -12.34375 
Q 23.78125 -13.375 27.78125 -13.375 
Q 36.625 -13.375 41.015625 -8.765625 
Q 45.40625 -4.15625 45.40625 5.171875 
L 45.40625 9.625 
Q 42.625 4.78125 38.28125 2.390625 
Q 33.9375 0 27.875 0 
Q 17.828125 0 11.671875 7.65625 
Q 5.515625 15.328125 5.515625 27.984375 
Q 5.515625 40.671875 11.671875 48.328125 
Q 17.828125 56 27.875 56 
Q 33.9375 56 38.28125 53.609375 
Q 42.625 51.21875 45.40625 46.390625 
L 45.40625 54.6875 
L 54.390625 54.6875 
z
" id="DejaVuSans-67"/>
      <path d="M 12.40625 8.296875 
L 28.515625 8.296875 
L 28.515625 63.921875 
L 10.984375 60.40625 
L 10.984375 69.390625 
L 28.421875 72.90625 
L 38.28125 72.90625 
L 38.28125 8.296875 
L 54.390625 8.296875 
L 54.390625 0 
L 12.40625 0 
z
" id="DejaVuSans-31"/>
      <path id="DejaVuSans-20"/>
      <path d="M 37.109375 75.984375 
L 37.109375 68.5 
L 28.515625 68.5 
Q 23.6875 68.5 21.796875 66.546875 
Q 19.921875 64.59375 19.921875 59.515625 
L 19.921875 54.6875 
L 34.71875 54.6875 
L 34.71875 47.703125 
L 19.921875 47.703125 
L 19.921875 0 
L 10.890625 0 
L 10.890625 47.703125 
L 2.296875 47.703125 
L 2.296875 54.6875 
L 10.890625 54.6875 
L 10.890625 58.5 
Q 10.890625 67.625 15.140625 71.796875 
Q 19.390625 75.984375 28.609375 75.984375 
z
" id="DejaVuSans-66"/>
      <path d="M 31 75.875 
Q 24.46875 64.65625 21.28125 53.65625 
Q 18.109375 42.671875 18.109375 31.390625 
Q 18.109375 20.125 21.3125 9.0625 
Q 24.515625 -2 31 -13.1875 
L 23.1875 -13.1875 
Q 15.875 -1.703125 12.234375 9.375 
Q 8.59375 20.453125 8.59375 31.390625 
Q 8.59375 42.28125 12.203125 53.3125 
Q 15.828125 64.359375 23.1875 75.875 
z
" id="DejaVuSans-28"/>
      <path d="M 51.125 44 
L 36.921875 44 
L 32.8125 27.6875 
L 47.125 27.6875 
z
M 43.796875 71.78125 
L 38.71875 51.515625 
L 52.984375 51.515625 
L 58.109375 71.78125 
L 65.921875 71.78125 
L 60.890625 51.515625 
L 76.125 51.515625 
L 76.125 44 
L 58.984375 44 
L 54.984375 27.6875 
L 70.515625 27.6875 
L 70.515625 20.21875 
L 53.078125 20.21875 
L 48 0 
L 40.1875 0 
L 45.21875 20.21875 
L 30.90625 20.21875 
L 25.875 0 
L 18.015625 0 
L 23.09375 20.21875 
L 7.71875 20.21875 
L 7.71875 27.6875 
L 24.90625 27.6875 
L 29 44 
L 13.28125 44 
L 13.28125 51.515625 
L 30.90625 51.515625 
L 35.890625 71.78125 
z
" id="DejaVuSans-23"/>
      <path d="M 4.890625 31.390625 
L 31.203125 31.390625 
L 31.203125 23.390625 
L 4.890625 23.390625 
z
" id="DejaVuSans-2d"/>
      <path d="M 56.203125 29.59375 
L 56.203125 25.203125 
L 14.890625 25.203125 
Q 15.484375 15.921875 20.484375 11.0625 
Q 25.484375 6.203125 34.421875 6.203125 
Q 39.59375 6.203125 44.453125 7.46875 
Q 49.3125 8.734375 54.109375 11.28125 
L 54.109375 2.78125 
Q 49.265625 0.734375 44.1875 -0.34375 
Q 39.109375 -1.421875 33.890625 -1.421875 
Q 20.796875 -1.421875 13.15625 6.1875 
Q 5.515625 13.8125 5.515625 26.8125 
Q 5.515625 40.234375 12.765625 48.109375 
Q 20.015625 56 32.328125 56 
Q 43.359375 56 49.78125 48.890625 
Q 56.203125 41.796875 56.203125 29.59375 
M 47.21875 32.234375 
Q 47.125 39.59375 43.09375 43.984375 
Q 39.0625 48.390625 32.421875 48.390625 
Q 24.90625 48.390625 20.390625 44.140625 
Q 15.875 39.890625 15.1875 32.171875 
z
" id="DejaVuSans-65"/>
      <path d="M 2.984375 54.6875 
L 12.5 54.6875 
L 29.59375 8.796875 
L 46.6875 54.6875 
L 56.203125 54.6875 
L 35.6875 0 
L 23.484375 0 
z
" id="DejaVuSans-76"/>
      <path d="M 34.28125 27.484375 
Q 23.390625 27.484375 19.1875 25 
Q 14.984375 22.515625 14.984375 16.5 
Q 14.984375 11.71875 18.140625 8.90625 
Q 21.296875 6.109375 26.703125 6.109375 
Q 34.1875 6.109375 38.703125 11.40625 
Q 43.21875 16.703125 43.21875 25.484375 
L 43.21875 27.484375 
z
M 52.203125 31.203125 
L 52.203125 0 
L 43.21875 0 
L 43.21875 8.296875 
Q 40.140625 3.328125 35.546875 0.953125 
Q 30.953125 -1.421875 24.3125 -1.421875 
Q 15.921875 -1.421875 10.953125 3.296875 
Q 6 8.015625 6 15.921875 
Q 6 25.140625 12.171875 29.828125 
Q 18.359375 34.515625 30.609375 34.515625 
L 43.21875 34.515625 
L 43.21875 35.40625 
Q 43.21875 41.609375 39.140625 45 
Q 35.0625 48.390625 27.6875 48.390625 
Q 23 48.390625 18.546875 47.265625 
Q 14.109375 46.140625 10.015625 43.890625 
L 10.015625 52.203125 
Q 14.9375 54.109375 19.578125 55.046875 
Q 24.21875 56 28.609375 56 
Q 40.484375 56 46.34375 49.84375 
Q 52.203125 43.703125 52.203125 31.203125 
" id="DejaVuSans-61"/>
      <path d="M 44.28125 53.078125 
L 44.28125 44.578125 
Q 40.484375 46.53125 36.375 47.5 
Q 32.28125 48.484375 27.875 48.484375 
Q 21.1875 48.484375 17.84375 46.4375 
Q 14.5 44.390625 14.5 40.28125 
Q 14.5 37.15625 16.890625 35.375 
Q 19.28125 33.59375 26.515625 31.984375 
L 29.59375 31.296875 
Q 39.15625 29.25 43.1875 25.515625 
Q 47.21875 21.78125 47.21875 15.09375 
Q 47.21875 7.46875 41.1875 3.015625 
Q 35.15625 -1.421875 24.609375 -1.421875 
Q 20.21875 -1.421875 15.453125 -0.5625 
Q 10.6875 0.296875 5.421875 2 
L 5.421875 11.28125 
Q 10.40625 8.6875 15.234375 7.390625 
Q 20.0625 6.109375 24.8125 6.109375 
Q 31.15625 6.109375 34.5625 8.28125 
Q 37.984375 10.453125 37.984375 14.40625 
Q 37.984375 18.0625 35.515625 20.015625 
Q 33.0625 21.96875 24.703125 23.78125 
L 21.578125 24.515625 
Q 13.234375 26.265625 9.515625 29.90625 
Q 5.8125 33.546875 5.8125 39.890625 
Q 5.8125 47.609375 11.28125 51.796875 
Q 16.75 56 26.8125 56 
Q 31.78125 56 36.171875 55.265625 
Q 40.578125 54.546875 44.28125 53.078125 
" id="DejaVuSans-73"/>
      <path d="M 25.390625 72.90625 
L 33.6875 72.90625 
L 8.296875 -9.28125 
L 0 -9.28125 
z
" id="DejaVuSans-2f"/>
      <path d="M 45.40625 46.390625 
L 45.40625 75.984375 
L 54.390625 75.984375 
L 54.390625 0 
L 45.40625 0 
L 45.40625 8.203125 
Q 42.578125 3.328125 38.25 0.953125 
Q 33.9375 -1.421875 27.875 -1.421875 
Q 17.96875 -1.421875 11.734375 6.484375 
Q 5.515625 14.40625 5.515625 27.296875 
Q 5.515625 40.1875 11.734375 48.09375 
Q 17.96875 56 27.875 56 
Q 33.9375 56 38.25 53.625 
Q 42.578125 51.265625 45.40625 46.390625 
M 14.796875 27.296875 
Q 14.796875 17.390625 18.875 11.75 
Q 22.953125 6.109375 30.078125 6.109375 
Q 37.203125 6.109375 41.296875 11.75 
Q 45.40625 17.390625 45.40625 27.296875 
Q 45.40625 37.203125 41.296875 42.84375 
Q 37.203125 48.484375 30.078125 48.484375 
Q 22.953125 48.484375 18.875 42.84375 
Q 14.796875 37.203125 14.796875 27.296875 
" id="DejaVuSans-64"/>
      <path d="M 9.421875 54.6875 
L 18.40625 54.6875 
L 18.40625 0 
L 9.421875 0 
z
M 9.421875 75.984375 
L 18.40625 75.984375 
L 18.40625 64.59375 
L 9.421875 64.59375 
z
" id="DejaVuSans-69"/>
      <path d="M 52 44.1875 
Q 55.375 50.25 60.0625 53.125 
Q 64.75 56 71.09375 56 
Q 79.640625 56 84.28125 50.015625 
Q 88.921875 44.046875 88.921875 33.015625 
L 88.921875 0 
L 79.890625 0 
L 79.890625 32.71875 
Q 79.890625 40.578125 77.09375 44.375 
Q 74.3125 48.1875 68.609375 48.1875 
Q 61.625 48.1875 57.5625 43.546875 
Q 53.515625 38.921875 53.515625 30.90625 
L 53.515625 0 
L 44.484375 0 
L 44.484375 32.71875 
Q 44.484375 40.625 41.703125 44.40625 
Q 38.921875 48.1875 33.109375 48.1875 
Q 26.21875 48.1875 22.15625 43.53125 
Q 18.109375 38.875 18.109375 30.90625 
L 18.109375 0 
L 9.078125 0 
L 9.078125 54.6875 
L 18.109375 54.6875 
L 18.109375 46.1875 
Q 21.1875 51.21875 25.484375 53.609375 
Q 29.78125 56 35.6875 56 
Q 41.65625 56 45.828125 52.96875 
Q 50 49.953125 52 44.1875 
" id="DejaVuSans-6d"/>
      <path d="M 54.890625 33.015625 
L 54.890625 0 
L 45.90625 0 
L 45.90625 32.71875 
Q 45.90625 40.484375 42.875 44.328125 
Q 39.84375 48.1875 33.796875 48.1875 
Q 26.515625 48.1875 22.3125 43.546875 
Q 18.109375 38.921875 18.109375 30.90625 
L 18.109375 0 
L 9.078125 0 
L 9.078125 54.6875 
L 18.109375 54.6875 
L 18.109375 46.1875 
Q 21.34375 51.125 25.703125 53.5625 
Q 30.078125 56 35.796875 56 
Q 45.21875 56 50.046875 50.171875 
Q 54.890625 44.34375 54.890625 33.015625 
" id="DejaVuSans-6e"/>
      <path d="M 8.015625 75.875 
L 15.828125 75.875 
Q 23.140625 64.359375 26.78125 53.3125 
Q 30.421875 42.28125 30.421875 31.390625 
Q 30.421875 20.453125 26.78125 9.375 
Q 23.140625 -1.703125 15.828125 -13.1875 
L 8.015625 -13.1875 
Q 14.5 -2 17.703125 9.0625 
Q 20.90625 20.125 20.90625 31.390625 
Q 20.90625 42.671875 17.703125 53.65625 
Q 14.5 64.65625 8.015625 75.875 
" id="DejaVuSans-29"/>
     </defs>
     <g transform="translate(115.328482 342.278812)scale(0.18 -0.18)">
      <use xlink:href="#DejaVuSans-6c"/>
      <use x="27.783203" xlink:href="#DejaVuSans-6f"/>
      <use x="88.964844" xlink:href="#DejaVuSans-67"/>
      <use x="152.441406" xlink:href="#DejaVuSans-31"/>
      <use x="216.064453" xlink:href="#DejaVuSans-30"/>
      <use x="279.6875" xlink:href="#DejaVuSans-20"/>
      <use x="311.474609" xlink:href="#DejaVuSans-6f"/>
      <use x="372.65625" xlink:href="#DejaVuSans-66"/>
      <use x="407.861328" xlink:href="#DejaVuSans-20"/>
      <use x="439.648438" xlink:href="#DejaVuSans-28"/>
      <use x="478.662109" xlink:href="#DejaVuSans-23"/>
      <use x="562.451172" xlink:href="#DejaVuSans-20"/>
      <use x="594.238281" xlink:href="#DejaVuSans-66"/>
      <use x="629.365234" xlink:href="#DejaVuSans-2d"/>
      <use x="665.449219" xlink:href="#DejaVuSans-65"/>
      <use x="726.972656" xlink:href="#DejaVuSans-76"/>
      <use x="786.152344" xlink:href="#DejaVuSans-61"/>
      <use x="847.431641" xlink:href="#DejaVuSans-6c"/>
      <use x="875.214844" xlink:href="#DejaVuSans-73"/>
      <use x="927.314453" xlink:href="#DejaVuSans-20"/>
      <use x="959.101562" xlink:href="#DejaVuSans-2f"/>
      <use x="992.792969" xlink:href="#DejaVuSans-20"/>
      <use x="1024.580078" xlink:href="#DejaVuSans-64"/>
      <use x="1088.056641" xlink:href="#DejaVuSans-69"/>
      <use x="1115.839844" xlink:href="#DejaVuSans-6d"/>
      <use x="1213.251953" xlink:href="#DejaVuSans-65"/>
      <use x="1274.775391" xlink:href="#DejaVuSans-6e"/>
      <use x="1338.154297" xlink:href="#DejaVuSans-73"/>
      <use x="1390.253906" xlink:href="#DejaVuSans-69"/>
      <use x="1418.037109" xlink:href="#DejaVuSans-6f"/>
      <use x="1479.21875" xlink:href="#DejaVuSans-6e"/>
      <use x="1542.597656" xlink:href="#DejaVuSans-29"/>
     </g>
    </g>
   </g>
   <g id="matplotlib.axis_2">
    <g id="ytick_1">
     <g id="line2d_29">
      <path clip-path="url(#pe4f69ae827)" d="M 79.113325 298.245375 
L 436.233325 298.245375 
" style="fill:none;stroke:#b0b0b0;stroke-linecap:square;stroke-width:0.8;"/>
     </g>
     <g id="line2d_30">
      <defs>
       <path d="M 0 0 
L -3.5 0 
" id="m6f8fd3f602" style="stroke:#000000;stroke-width:0.8;"/>
      </defs>
      <g>
       <use style="stroke:#000000;stroke-width:0.8;" x="79.113325" xlink:href="#m6f8fd3f602" y="298.245375"/>
      </g>
     </g>
     <g id="text_7">
      <!-- 0.0 -->
      <defs>
       <path d="M 10.6875 12.40625 
L 21 12.40625 
L 21 0 
L 10.6875 0 
z
" id="DejaVuSans-2e"/>
      </defs>
      <g transform="translate(40.307075 305.843812)scale(0.2 -0.2)">
       <use xlink:href="#DejaVuSans-30"/>
       <use x="63.623047" xlink:href="#DejaVuSans-2e"/>
       <use x="95.410156" xlink:href="#DejaVuSans-30"/>
      </g>
     </g>
    </g>
    <g id="ytick_2">
     <g id="line2d_31">
      <path clip-path="url(#pe4f69ae827)" d="M 79.113325 245.549929 
L 436.233325 245.549929 
" style="fill:none;stroke:#b0b0b0;stroke-linecap:square;stroke-width:0.8;"/>
     </g>
     <g id="line2d_32">
      <g>
       <use style="stroke:#000000;stroke-width:0.8;" x="79.113325" xlink:href="#m6f8fd3f602" y="245.549929"/>
      </g>
     </g>
     <g id="text_8">
      <!-- 0.2 -->
      <g transform="translate(40.307075 253.148367)scale(0.2 -0.2)">
       <use xlink:href="#DejaVuSans-30"/>
       <use x="63.623047" xlink:href="#DejaVuSans-2e"/>
       <use x="95.410156" xlink:href="#DejaVuSans-32"/>
      </g>
     </g>
    </g>
    <g id="ytick_3">
     <g id="line2d_33">
      <path clip-path="url(#pe4f69ae827)" d="M 79.113325 192.854484 
L 436.233325 192.854484 
" style="fill:none;stroke:#b0b0b0;stroke-linecap:square;stroke-width:0.8;"/>
     </g>
     <g id="line2d_34">
      <g>
       <use style="stroke:#000000;stroke-width:0.8;" x="79.113325" xlink:href="#m6f8fd3f602" y="192.854484"/>
      </g>
     </g>
     <g id="text_9">
      <!-- 0.4 -->
      <g transform="translate(40.307075 200.452921)scale(0.2 -0.2)">
       <use xlink:href="#DejaVuSans-30"/>
       <use x="63.623047" xlink:href="#DejaVuSans-2e"/>
       <use x="95.410156" xlink:href="#DejaVuSans-34"/>
      </g>
     </g>
    </g>
    <g id="ytick_4">
     <g id="line2d_35">
      <path clip-path="url(#pe4f69ae827)" d="M 79.113325 140.159038 
L 436.233325 140.159038 
" style="fill:none;stroke:#b0b0b0;stroke-linecap:square;stroke-width:0.8;"/>
     </g>
     <g id="line2d_36">
      <g>
       <use style="stroke:#000000;stroke-width:0.8;" x="79.113325" xlink:href="#m6f8fd3f602" y="140.159038"/>
      </g>
     </g>
     <g id="text_10">
      <!-- 0.6 -->
      <g transform="translate(40.307075 147.757476)scale(0.2 -0.2)">
       <use xlink:href="#DejaVuSans-30"/>
       <use x="63.623047" xlink:href="#DejaVuSans-2e"/>
       <use x="95.410156" xlink:href="#DejaVuSans-36"/>
      </g>
     </g>
    </g>
    <g id="ytick_5">
     <g id="line2d_37">
      <path clip-path="url(#pe4f69ae827)" d="M 79.113325 87.463593 
L 436.233325 87.463593 
" style="fill:none;stroke:#b0b0b0;stroke-linecap:square;stroke-width:0.8;"/>
     </g>
     <g id="line2d_38">
      <g>
       <use style="stroke:#000000;stroke-width:0.8;" x="79.113325" xlink:href="#m6f8fd3f602" y="87.463593"/>
      </g>
     </g>
     <g id="text_11">
      <!-- 0.8 -->
      <g transform="translate(40.307075 95.06203)scale(0.2 -0.2)">
       <use xlink:href="#DejaVuSans-30"/>
       <use x="63.623047" xlink:href="#DejaVuSans-2e"/>
       <use x="95.410156" xlink:href="#DejaVuSans-38"/>
      </g>
     </g>
    </g>
    <g id="ytick_6">
     <g id="line2d_39">
      <path clip-path="url(#pe4f69ae827)" d="M 79.113325 34.768147 
L 436.233325 34.768147 
" style="fill:none;stroke:#b0b0b0;stroke-linecap:square;stroke-width:0.8;"/>
     </g>
     <g id="line2d_40">
      <g>
       <use style="stroke:#000000;stroke-width:0.8;" x="79.113325" xlink:href="#m6f8fd3f602" y="34.768147"/>
      </g>
     </g>
     <g id="text_12">
      <!-- 1.0 -->
      <g transform="translate(40.307075 42.366585)scale(0.2 -0.2)">
       <use xlink:href="#DejaVuSans-31"/>
       <use x="63.623047" xlink:href="#DejaVuSans-2e"/>
       <use x="95.410156" xlink:href="#DejaVuSans-30"/>
      </g>
     </g>
    </g>
    <g id="text_13">
     <!-- Proportion of function+target pairs -->
     <defs>
      <path d="M 19.671875 64.796875 
L 19.671875 37.40625 
L 32.078125 37.40625 
Q 38.96875 37.40625 42.71875 40.96875 
Q 46.484375 44.53125 46.484375 51.125 
Q 46.484375 57.671875 42.71875 61.234375 
Q 38.96875 64.796875 32.078125 64.796875 
z
M 9.8125 72.90625 
L 32.078125 72.90625 
Q 44.34375 72.90625 50.609375 67.359375 
Q 56.890625 61.8125 56.890625 51.125 
Q 56.890625 40.328125 50.609375 34.8125 
Q 44.34375 29.296875 32.078125 29.296875 
L 19.671875 29.296875 
L 19.671875 0 
L 9.8125 0 
z
" id="DejaVuSans-50"/>
      <path d="M 41.109375 46.296875 
Q 39.59375 47.171875 37.8125 47.578125 
Q 36.03125 48 33.890625 48 
Q 26.265625 48 22.1875 43.046875 
Q 18.109375 38.09375 18.109375 28.8125 
L 18.109375 0 
L 9.078125 0 
L 9.078125 54.6875 
L 18.109375 54.6875 
L 18.109375 46.1875 
Q 20.953125 51.171875 25.484375 53.578125 
Q 30.03125 56 36.53125 56 
Q 37.453125 56 38.578125 55.875 
Q 39.703125 55.765625 41.0625 55.515625 
z
" id="DejaVuSans-72"/>
      <path d="M 18.109375 8.203125 
L 18.109375 -20.796875 
L 9.078125 -20.796875 
L 9.078125 54.6875 
L 18.109375 54.6875 
L 18.109375 46.390625 
Q 20.953125 51.265625 25.265625 53.625 
Q 29.59375 56 35.59375 56 
Q 45.5625 56 51.78125 48.09375 
Q 58.015625 40.1875 58.015625 27.296875 
Q 58.015625 14.40625 51.78125 6.484375 
Q 45.5625 -1.421875 35.59375 -1.421875 
Q 29.59375 -1.421875 25.265625 0.953125 
Q 20.953125 3.328125 18.109375 8.203125 
M 48.6875 27.296875 
Q 48.6875 37.203125 44.609375 42.84375 
Q 40.53125 48.484375 33.40625 48.484375 
Q 26.265625 48.484375 22.1875 42.84375 
Q 18.109375 37.203125 18.109375 27.296875 
Q 18.109375 17.390625 22.1875 11.75 
Q 26.265625 6.109375 33.40625 6.109375 
Q 40.53125 6.109375 44.609375 11.75 
Q 48.6875 17.390625 48.6875 27.296875 
" id="DejaVuSans-70"/>
      <path d="M 18.3125 70.21875 
L 18.3125 54.6875 
L 36.8125 54.6875 
L 36.8125 47.703125 
L 18.3125 47.703125 
L 18.3125 18.015625 
Q 18.3125 11.328125 20.140625 9.421875 
Q 21.96875 7.515625 27.59375 7.515625 
L 36.8125 7.515625 
L 36.8125 0 
L 27.59375 0 
Q 17.1875 0 13.234375 3.875 
Q 9.28125 7.765625 9.28125 18.015625 
L 9.28125 47.703125 
L 2.6875 47.703125 
L 2.6875 54.6875 
L 9.28125 54.6875 
L 9.28125 70.21875 
z
" id="DejaVuSans-74"/>
      <path d="M 8.5 21.578125 
L 8.5 54.6875 
L 17.484375 54.6875 
L 17.484375 21.921875 
Q 17.484375 14.15625 20.5 10.265625 
Q 23.53125 6.390625 29.59375 6.390625 
Q 36.859375 6.390625 41.078125 11.03125 
Q 45.3125 15.671875 45.3125 23.6875 
L 45.3125 54.6875 
L 54.296875 54.6875 
L 54.296875 0 
L 45.3125 0 
L 45.3125 8.40625 
Q 42.046875 3.421875 37.71875 1 
Q 33.40625 -1.421875 27.6875 -1.421875 
Q 18.265625 -1.421875 13.375 4.4375 
Q 8.5 10.296875 8.5 21.578125 
M 31.109375 56 
z
" id="DejaVuSans-75"/>
      <path d="M 48.78125 52.59375 
L 48.78125 44.1875 
Q 44.96875 46.296875 41.140625 47.34375 
Q 37.3125 48.390625 33.40625 48.390625 
Q 24.65625 48.390625 19.8125 42.84375 
Q 14.984375 37.3125 14.984375 27.296875 
Q 14.984375 17.28125 19.8125 11.734375 
Q 24.65625 6.203125 33.40625 6.203125 
Q 37.3125 6.203125 41.140625 7.25 
Q 44.96875 8.296875 48.78125 10.40625 
L 48.78125 2.09375 
Q 45.015625 0.34375 40.984375 -0.53125 
Q 36.96875 -1.421875 32.421875 -1.421875 
Q 20.0625 -1.421875 12.78125 6.34375 
Q 5.515625 14.109375 5.515625 27.296875 
Q 5.515625 40.671875 12.859375 48.328125 
Q 20.21875 56 33.015625 56 
Q 37.15625 56 41.109375 55.140625 
Q 45.0625 54.296875 48.78125 52.59375 
" id="DejaVuSans-63"/>
      <path d="M 46 62.703125 
L 46 35.5 
L 73.1875 35.5 
L 73.1875 27.203125 
L 46 27.203125 
L 46 0 
L 37.796875 0 
L 37.796875 27.203125 
L 10.59375 27.203125 
L 10.59375 35.5 
L 37.796875 35.5 
L 37.796875 62.703125 
z
" id="DejaVuSans-2b"/>
     </defs>
     <g transform="translate(32.563638 323.17875)rotate(-90)scale(0.18 -0.18)">
      <use xlink:href="#DejaVuSans-50"/>
      <use x="60.287109" xlink:href="#DejaVuSans-72"/>
      <use x="101.369141" xlink:href="#DejaVuSans-6f"/>
      <use x="162.550781" xlink:href="#DejaVuSans-70"/>
      <use x="226.027344" xlink:href="#DejaVuSans-6f"/>
      <use x="287.208984" xlink:href="#DejaVuSans-72"/>
      <use x="328.322266" xlink:href="#DejaVuSans-74"/>
      <use x="367.53125" xlink:href="#DejaVuSans-69"/>
      <use x="395.314453" xlink:href="#DejaVuSans-6f"/>
      <use x="456.496094" xlink:href="#DejaVuSans-6e"/>
      <use x="519.875" xlink:href="#DejaVuSans-20"/>
      <use x="551.662109" xlink:href="#DejaVuSans-6f"/>
      <use x="612.84375" xlink:href="#DejaVuSans-66"/>
      <use x="648.048828" xlink:href="#DejaVuSans-20"/>
      <use x="679.835938" xlink:href="#DejaVuSans-66"/>
      <use x="715.041016" xlink:href="#DejaVuSans-75"/>
      <use x="778.419922" xlink:href="#DejaVuSans-6e"/>
      <use x="841.798828" xlink:href="#DejaVuSans-63"/>
      <use x="896.779297" xlink:href="#DejaVuSans-74"/>
      <use x="935.988281" xlink:href="#DejaVuSans-69"/>
      <use x="963.771484" xlink:href="#DejaVuSans-6f"/>
      <use x="1024.953125" xlink:href="#DejaVuSans-6e"/>
      <use x="1088.332031" xlink:href="#DejaVuSans-2b"/>
      <use x="1172.121094" xlink:href="#DejaVuSans-74"/>
      <use x="1211.330078" xlink:href="#DejaVuSans-61"/>
      <use x="1272.609375" xlink:href="#DejaVuSans-72"/>
      <use x="1313.707031" xlink:href="#DejaVuSans-67"/>
      <use x="1377.183594" xlink:href="#DejaVuSans-65"/>
      <use x="1438.707031" xlink:href="#DejaVuSans-74"/>
      <use x="1477.916016" xlink:href="#DejaVuSans-20"/>
      <use x="1509.703125" xlink:href="#DejaVuSans-70"/>
      <use x="1573.179688" xlink:href="#DejaVuSans-61"/>
      <use x="1634.458984" xlink:href="#DejaVuSans-69"/>
      <use x="1662.242188" xlink:href="#DejaVuSans-72"/>
      <use x="1703.355469" xlink:href="#DejaVuSans-73"/>
     </g>
    </g>
   </g>
   <g id="line2d_41">
    <defs>
     <path d="M 0 1.5 
C 0.397805 1.5 0.77937 1.341951 1.06066 1.06066 
C 1.341951 0.77937 1.5 0.397805 1.5 0 
C 1.5 -0.397805 1.341951 -0.77937 1.06066 -1.06066 
C 0.77937 -1.341951 0.397805 -1.5 0 -1.5 
C -0.397805 -1.5 -0.77937 -1.341951 -1.06066 -1.06066 
C -1.341951 -0.77937 -1.5 -0.397805 -1.5 0 
C -1.5 0.397805 -1.341951 0.77937 -1.06066 1.06066 
C -0.77937 1.341951 -0.397805 1.5 0 1.5 
z
" id="m12829d9ac5" style="stroke:#00bfbf;"/>
    </defs>
    <g>
     <use style="fill:#00bfbf;stroke:#00bfbf;" x="254.671649" xlink:href="#m12829d9ac5" y="148.424991"/>
     <use style="fill:#00bfbf;stroke:#00bfbf;" x="254.671649" xlink:href="#m12829d9ac5" y="148.424991"/>
    </g>
   </g>
   <g id="line2d_42">
    <path d="M 66.728091 298.245375 
L 66.728091 276.030628 
L 79.113325 276.030628 
L 79.113325 274.997384 
L 86.358223 274.997384 
L 86.358223 272.930896 
L 98.743457 272.930896 
L 98.743457 271.897652 
L 101.497839 271.897652 
L 101.497839 268.79792 
L 103.883794 268.79792 
L 103.883794 268.281298 
L 105.988354 268.281298 
L 105.988354 267.764676 
L 111.128691 267.764676 
L 111.128691 265.181566 
L 112.558903 265.181566 
L 112.558903 263.6317 
L 113.883073 263.6317 
L 113.883073 263.115078 
L 115.115846 263.115078 
L 115.115846 258.982102 
L 122.753465 258.982102 
L 122.753465 257.432236 
L 124.243337 257.432236 
L 124.243337 256.915614 
L 125.618486 256.915614 
L 125.618486 256.398992 
L 129.204093 256.398992 
L 129.204093 255.88237 
L 130.255462 255.88237 
L 130.255462 255.365748 
L 130.758823 255.365748 
L 130.758823 251.749394 
L 132.641417 251.749394 
L 132.641417 250.71615 
L 135.522975 250.71615 
L 135.522975 250.199528 
L 136.628571 250.199528 
L 136.628571 249.166284 
L 137.329372 249.166284 
L 137.329372 247.099796 
L 137.669727 247.099796 
L 137.669727 246.583173 
L 138.00372 246.583173 
L 138.00372 245.033307 
L 139.586003 245.033307 
L 139.586003 244.000063 
L 140.472206 244.000063 
L 140.472206 243.483441 
L 141.316526 243.483441 
L 141.316526 242.966819 
L 141.858026 242.966819 
L 141.858026 241.933575 
L 142.894149 241.933575 
L 142.894149 241.416953 
L 144.110136 241.416953 
L 144.110136 240.900331 
L 144.574269 240.900331 
L 144.574269 240.383709 
L 144.801892 240.383709 
L 144.801892 239.867087 
L 145.467861 239.867087 
L 145.467861 239.350465 
L 145.684447 239.350465 
L 145.684447 237.800599 
L 146.525455 237.800599 
L 146.525455 236.767355 
L 147.328651 236.767355 
L 147.328651 235.734111 
L 147.908209 235.734111 
L 147.908209 234.700867 
L 149.191599 234.700867 
L 149.191599 234.184245 
L 150.054961 234.184245 
L 150.054961 233.151001 
L 150.716819 233.151001 
L 150.716819 232.634379 
L 152.419832 232.634379 
L 152.419832 231.601135 
L 153.00096 231.601135 
L 153.00096 231.084513 
L 155.02593 231.084513 
L 155.02593 230.567891 
L 155.652946 230.567891 
L 155.652946 229.018025 
L 156.377429 229.018025 
L 156.377429 228.501403 
L 156.49537 228.501403 
L 156.49537 226.434915 
L 156.728944 226.434915 
L 156.728944 224.368427 
L 159.416902 224.368427 
L 159.416902 223.851805 
L 160.388234 223.851805 
L 160.388234 222.301939 
L 160.669628 222.301939 
L 160.669628 220.235451 
L 161.576833 220.235451 
L 161.576833 219.202207 
L 174.44207 219.202207 
L 174.44207 218.168963 
L 174.570773 218.168963 
L 174.570773 217.652341 
L 175.283078 217.652341 
L 175.283078 217.135719 
L 175.487287 217.135719 
L 175.487287 216.619097 
L 175.888835 216.619097 
L 175.968073 214.552609 
L 176.046961 214.552609 
L 176.046961 213.519365 
L 176.164643 213.519365 
L 176.164643 212.48612 
L 176.474727 212.48612 
L 176.513112 210.936254 
L 177.300711 210.936254 
L 177.300711 210.419632 
L 177.555714 210.419632 
L 177.663897 209.386388 
L 177.807129 209.386388 
L 177.807129 208.869766 
L 177.98457 208.869766 
L 177.98457 208.353144 
L 178.125264 208.353144 
L 178.125264 206.286656 
L 178.506558 206.286656 
L 178.540821 204.220168 
L 179.013728 204.220168 
L 179.013728 203.703546 
L 179.179636 203.703546 
L 179.179636 203.186924 
L 179.311262 203.186924 
L 179.311262 202.670302 
L 179.5069 202.670302 
L 179.603922 199.57057 
L 180.698549 199.57057 
L 180.789327 197.504082 
L 187.294749 197.504082 
L 187.294749 196.470838 
L 188.392794 196.470838 
L 188.471509 194.40435 
L 189.145857 194.40435 
L 189.240148 191.82124 
L 189.315224 191.82124 
L 189.315224 191.304618 
L 189.777436 191.304618 
L 189.777436 190.787996 
L 189.959024 190.787996 
L 190.013143 187.688264 
L 193.592199 187.688264 
L 193.592199 187.171642 
L 194.2436 187.171642 
L 194.272007 186.138398 
L 194.539646 186.138398 
L 194.609417 185.105154 
L 195.13095 185.105154 
L 195.184973 183.555288 
L 195.452665 183.555288 
L 195.452665 180.972178 
L 196.027841 180.972178 
L 196.027841 180.455556 
L 196.194295 180.455556 
L 196.194295 179.938934 
L 198.688253 179.938934 
L 198.688253 179.422312 
L 199.458409 179.422312 
L 199.500826 178.389067 
L 199.742788 178.389067 
L 199.742788 177.872445 
L 200.002127 177.872445 
L 200.104818 175.805957 
L 200.155942 175.805957 
L 200.176351 174.256091 
L 200.449616 174.256091 
L 200.549774 172.706225 
L 200.579712 172.706225 
L 200.579712 172.189603 
L 203.498569 172.189603 
L 203.498569 171.672981 
L 203.850745 171.672981 
L 203.850745 171.156359 
L 204.155345 171.156359 
L 204.179817 170.123115 
L 206.847817 170.123115 
L 206.882887 168.573249 
L 207.154096 168.573249 
L 207.243591 165.990139 
L 209.303843 165.990139 
L 209.309961 164.956895 
L 209.456172 164.956895 
L 209.456172 164.440273 
L 209.601197 164.440273 
L 209.601197 163.923651 
L 209.721157 163.923651 
L 209.721157 163.407029 
L 211.758506 163.407029 
L 211.758506 162.890407 
L 212.033731 162.890407 
L 212.033731 162.373785 
L 213.393506 162.373785 
L 213.393506 161.857163 
L 213.958818 161.857163 
L 213.97296 159.790675 
L 215.764852 159.790675 
L 215.764852 159.274053 
L 217.381634 159.274053 
L 217.393311 157.724187 
L 218.716647 157.724187 
L 218.716647 157.207565 
L 218.874933 157.207565 
L 218.874933 156.690943 
L 220.252999 156.690943 
L 220.252999 155.141077 
L 222.598706 155.141077 
L 222.598706 154.624455 
L 223.845237 154.624455 
L 223.845237 154.107833 
L 224.89831 154.107833 
L 224.89831 153.591211 
L 225.892759 153.591211 
L 225.892759 153.074589 
L 226.834767 153.074589 
L 226.864564 152.041345 
L 227.736135 152.041345 
L 227.736135 151.524723 
L 228.58797 151.524723 
L 228.58797 151.008101 
L 232.984656 151.008101 
L 232.984656 150.491479 
L 237.040297 150.491479 
L 237.040297 149.974857 
L 242.377482 149.974857 
L 242.377482 149.458235 
L 242.757892 149.458235 
L 242.757892 148.941613 
L 254.671649 148.941613 
L 254.671649 148.424991 
L 367.113325 148.424991 
L 367.113325 148.424991 
" style="fill:none;stroke:#00bfbf;stroke-linecap:square;stroke-width:1.5;"/>
   </g>
   <g id="line2d_43">
    <defs>
     <path d="M -6 0 
L 6 0 
M 0 6 
L 0 -6 
" id="m5efb5db387" style="stroke:#00bfbf;stroke-width:1.5;"/>
    </defs>
    <g>
     <use style="fill:none;stroke:#00bfbf;stroke-width:1.5;" x="149.191599" xlink:href="#m5efb5db387" y="234.184245"/>
     <use style="fill:none;stroke:#00bfbf;stroke-width:1.5;" x="189.240148" xlink:href="#m5efb5db387" y="191.82124"/>
     <use style="fill:none;stroke:#00bfbf;stroke-width:1.5;" x="226.834767" xlink:href="#m5efb5db387" y="152.557967"/>
     <use style="fill:none;stroke:#00bfbf;stroke-width:1.5;" x="254.671649" xlink:href="#m5efb5db387" y="148.424991"/>
     <use style="fill:none;stroke:#00bfbf;stroke-width:1.5;" x="254.671649" xlink:href="#m5efb5db387" y="148.424991"/>
     <use style="fill:none;stroke:#00bfbf;stroke-width:1.5;" x="367.113325" xlink:href="#m5efb5db387" y="148.424991"/>
    </g>
   </g>
   <g id="line2d_44"/>
   <g id="line2d_45">
    <path clip-path="url(#pe4f69ae827)" d="M 173.784274 219.202207 
" style="fill:none;stroke:#00bfbf;stroke-linecap:square;stroke-width:1.5;"/>
    <defs>
     <path d="M -12 12 
L 12 -12 
M -12 -12 
L 12 12 
" id="m79c52bfa69" style="stroke:#00bfbf;stroke-width:3;"/>
    </defs>
    <g clip-path="url(#pe4f69ae827)">
     <use style="fill:#00bfbf;stroke:#00bfbf;stroke-width:3;" x="173.784274" xlink:href="#m79c52bfa69" y="219.202207"/>
    </g>
   </g>
   <g id="line2d_46">
    <defs>
     <path d="M 0 1.5 
C 0.397805 1.5 0.77937 1.341951 1.06066 1.06066 
C 1.341951 0.77937 1.5 0.397805 1.5 0 
C 1.5 -0.397805 1.341951 -0.77937 1.06066 -1.06066 
C 0.77937 -1.341951 0.397805 -1.5 0 -1.5 
C -0.397805 -1.5 -0.77937 -1.341951 -1.06066 -1.06066 
C -1.341951 -0.77937 -1.5 -0.397805 -1.5 0 
C -1.5 0.397805 -1.341951 0.77937 -1.06066 1.06066 
C -0.77937 1.341951 -0.397805 1.5 0 1.5 
z
" id="m7b09affb59" style="stroke:#008000;"/>
    </defs>
    <g>
     <use style="fill:#008000;stroke:#008000;" x="250.293061" xlink:href="#m7b09affb59" y="143.25877"/>
     <use style="fill:#008000;stroke:#008000;" x="250.293061" xlink:href="#m7b09affb59" y="143.25877"/>
    </g>
   </g>
   <g id="line2d_47">
    <path d="M 59.483194 298.245375 
L 59.483194 278.613738 
L 71.868428 278.613738 
L 71.868428 278.097116 
L 84.253662 278.097116 
L 84.253662 277.063872 
L 94.252942 277.063872 
L 94.252942 276.54725 
L 96.638896 276.54725 
L 96.638896 274.997384 
L 98.743457 274.997384 
L 98.743457 274.480762 
L 102.329064 274.480762 
L 102.329064 270.347786 
L 106.638176 270.347786 
L 106.638176 269.831164 
L 107.870948 269.831164 
L 107.870948 269.314542 
L 109.02413 269.314542 
L 109.02413 268.281298 
L 110.107378 268.281298 
L 110.107378 267.764676 
L 111.128691 267.764676 
L 111.128691 266.21481 
L 113.011285 266.21481 
L 113.011285 264.148322 
L 113.883073 264.148322 
L 113.883073 262.081834 
L 116.99844 262.081834 
L 116.99844 260.531968 
L 117.69924 260.531968 
L 117.69924 259.498724 
L 119.02341 259.498724 
L 119.02341 258.982102 
L 119.650426 258.982102 
L 119.650426 258.46548 
L 120.842075 258.46548 
L 120.842075 257.948858 
L 124.003493 257.948858 
L 124.003493 257.432236 
L 124.944138 257.432236 
L 124.944138 256.915614 
L 126.688753 256.915614 
L 126.688753 256.398992 
L 129.02269 256.398992 
L 129.02269 255.365748 
L 129.73751 255.365748 
L 129.73751 254.849126 
L 130.42483 254.849126 
L 130.42483 254.332504 
L 132.641417 254.332504 
L 132.641417 253.815882 
L 133.227309 253.815882 
L 133.227309 252.782638 
L 133.794598 252.782638 
L 133.794598 251.232772 
L 134.877846 251.232772 
L 134.877846 249.682906 
L 136.14562 249.682906 
L 136.14562 248.13304 
L 136.388727 248.13304 
L 136.388727 247.099796 
L 137.329372 247.099796 
L 137.329372 246.583173 
L 138.43955 246.583173 
L 138.43955 245.549929 
L 139.280557 245.549929 
L 139.280557 245.033307 
L 139.484767 245.033307 
L 139.484767 244.516685 
L 139.686668 244.516685 
L 139.686668 242.966819 
L 139.886314 242.966819 
L 139.886314 242.450197 
L 140.083754 242.450197 
L 140.083754 241.933575 
L 141.407924 241.933575 
L 141.407924 240.900331 
L 141.589327 240.900331 
L 141.589327 240.383709 
L 141.768908 240.383709 
L 141.768908 239.867087 
L 143.793878 239.867087 
L 143.793878 238.833843 
L 143.952707 238.833843 
L 143.952707 235.734111 
L 144.877126 235.734111 
L 144.877126 235.217489 
L 145.467861 235.217489 
L 145.467861 234.184245 
L 147.131212 234.184245 
L 147.131212 233.667623 
L 147.393983 233.667623 
L 147.393983 233.151001 
L 147.908209 233.151001 
L 147.908209 232.117757 
L 148.159876 232.117757 
L 148.159876 230.567891 
L 148.408049 230.567891 
L 148.408049 230.051269 
L 148.652821 230.051269 
L 148.652821 229.534647 
L 149.484046 229.534647 
L 149.484046 228.501403 
L 150.278315 228.501403 
L 150.278315 227.984781 
L 151.870001 227.984781 
L 151.870001 226.951537 
L 152.566896 226.951537 
L 152.566896 225.918293 
L 153.237628 225.918293 
L 153.237628 225.401671 
L 153.42473 225.401671 
L 153.42473 224.885049 
L 156.258703 224.885049 
L 156.258703 223.851805 
L 158.565067 223.851805 
L 158.565067 223.335183 
L 161.9272 223.335183 
L 161.9272 222.301939 
L 163.317334 222.301939 
L 163.317334 220.752073 
L 182.256649 220.752073 
L 182.256649 219.718829 
L 182.696051 219.718829 
L 182.696051 219.202207 
L 183.000883 219.202207 
L 183.000883 218.685585 
L 183.318077 218.685585 
L 183.387806 217.652341 
L 183.664034 217.652341 
L 183.698264 215.069231 
L 184.220613 215.069231 
L 184.220613 214.552609 
L 184.336479 214.552609 
L 184.336479 213.519365 
L 184.484354 213.519365 
L 184.484354 213.002743 
L 184.663443 213.002743 
L 184.663443 212.48612 
L 184.808648 212.48612 
L 184.824709 210.419632 
L 185.016326 210.419632 
L 185.048063 208.869766 
L 185.315579 208.869766 
L 185.315579 208.353144 
L 185.532917 208.353144 
L 185.579148 207.3199 
L 185.899456 207.3199 
L 185.899456 206.286656 
L 186.303019 206.286656 
L 186.303019 205.770034 
L 194.0195 205.770034 
L 194.076985 204.220168 
L 194.257809 204.220168 
L 194.361666 203.186924 
L 194.492981 203.186924 
L 194.492981 202.670302 
L 194.761959 202.670302 
L 194.817107 200.087192 
L 195.144471 200.087192 
L 195.144471 199.57057 
L 195.270177 199.57057 
L 195.270177 199.053948 
L 195.403888 199.053948 
L 195.412766 197.504082 
L 195.536605 197.504082 
L 195.536605 196.98746 
L 195.833831 196.98746 
L 195.833831 196.470838 
L 196.455764 196.470838 
L 196.455764 195.437594 
L 196.877767 195.437594 
L 196.877767 193.887728 
L 200.993664 193.887728 
L 200.993664 193.371106 
L 201.135988 193.371106 
L 201.135988 192.854484 
L 201.385538 192.854484 
L 201.385538 192.337862 
L 201.594007 192.337862 
L 201.606564 191.304618 
L 201.831088 191.304618 
L 201.917646 190.271374 
L 202.089515 190.271374 
L 202.199136 189.23813 
L 202.434365 189.23813 
L 202.434365 188.721508 
L 202.595421 188.721508 
L 202.595421 187.171642 
L 206.399936 187.171642 
L 206.495667 186.138398 
L 206.751607 186.138398 
L 206.751607 185.621776 
L 206.892228 185.621776 
L 206.892228 185.105154 
L 207.027117 185.105154 
L 207.050271 184.07191 
L 207.183977 184.07191 
L 207.271038 183.038666 
L 207.615102 183.038666 
L 207.615102 182.522044 
L 210.322663 182.522044 
L 210.349616 181.4888 
L 210.525734 181.4888 
L 210.575193 180.455556 
L 210.658583 180.455556 
L 210.658583 179.938934 
L 210.794205 179.938934 
L 210.902712 178.90569 
L 210.973447 178.90569 
L 211.066096 177.872445 
L 213.248521 177.872445 
L 213.248521 177.355823 
L 213.514778 177.355823 
L 213.514778 176.839201 
L 213.703928 176.839201 
L 213.773949 175.289335 
L 213.954101 175.289335 
L 214.038807 174.256091 
L 216.431411 174.256091 
L 216.431411 173.739469 
L 216.603051 173.739469 
L 216.603051 173.222847 
L 218.705804 173.222847 
L 218.809151 171.672981 
L 218.890446 171.672981 
L 218.935715 170.639737 
L 219.115652 170.639737 
L 219.115652 169.606493 
L 221.119155 169.606493 
L 221.119155 169.089871 
L 222.455655 169.089871 
L 222.455655 168.573249 
L 222.673183 168.573249 
L 222.673183 168.056627 
L 222.823126 168.056627 
L 222.823126 167.540005 
L 224.424217 167.540005 
L 224.424217 166.506761 
L 225.798199 166.506761 
L 225.903234 164.440273 
L 225.933821 164.440273 
L 225.933821 163.923651 
L 227.246728 163.923651 
L 227.297469 161.857163 
L 227.36292 161.857163 
L 227.438485 160.307297 
L 228.503198 160.307297 
L 228.579649 158.240809 
L 229.712273 158.240809 
L 229.712273 157.724187 
L 231.979691 157.724187 
L 231.979691 156.690943 
L 232.960249 156.690943 
L 232.960249 155.657699 
L 233.906265 155.657699 
L 233.960745 154.624455 
L 234.809597 154.624455 
L 234.809597 154.107833 
L 235.693685 154.107833 
L 235.718818 152.041345 
L 238.722211 152.041345 
L 238.722211 151.524723 
L 239.416206 151.524723 
L 239.479624 149.974857 
L 241.374197 149.974857 
L 241.406703 148.941613 
L 242.021839 148.941613 
L 242.021839 148.424991 
L 242.551256 148.424991 
L 242.551256 147.908369 
L 243.690114 147.908369 
L 243.690114 147.391747 
L 244.730966 147.391747 
L 244.730966 146.875125 
L 245.183558 146.875125 
L 245.183558 146.358503 
L 245.714509 146.358503 
L 245.727796 145.325259 
L 246.161826 145.325259 
L 246.161826 144.808637 
L 247.085858 144.808637 
L 247.085858 144.292014 
L 248.41161 144.292014 
L 248.41161 143.775392 
L 250.293061 143.775392 
L 250.293061 143.25877 
L 367.113325 143.25877 
L 367.113325 143.25877 
" style="fill:none;stroke:#008000;stroke-linecap:square;stroke-width:1.5;"/>
   </g>
   <g id="line2d_48">
    <defs>
     <path d="M -0 6 
L 6 -6 
L -6 -6 
z
" id="m671c2995eb" style="stroke:#008000;stroke-linejoin:miter;stroke-width:1.5;"/>
    </defs>
    <g>
     <use style="fill:none;stroke:#008000;stroke-linejoin:miter;stroke-width:1.5;" x="132.641417" xlink:href="#m671c2995eb" y="254.332504"/>
     <use style="fill:none;stroke:#008000;stroke-linejoin:miter;stroke-width:1.5;" x="186.303019" xlink:href="#m671c2995eb" y="206.286656"/>
     <use style="fill:none;stroke:#008000;stroke-linejoin:miter;stroke-width:1.5;" x="227.285543" xlink:href="#m671c2995eb" y="162.890407"/>
     <use style="fill:none;stroke:#008000;stroke-linejoin:miter;stroke-width:1.5;" x="250.293061" xlink:href="#m671c2995eb" y="143.25877"/>
     <use style="fill:none;stroke:#008000;stroke-linejoin:miter;stroke-width:1.5;" x="250.293061" xlink:href="#m671c2995eb" y="143.25877"/>
     <use style="fill:none;stroke:#008000;stroke-linejoin:miter;stroke-width:1.5;" x="367.113325" xlink:href="#m671c2995eb" y="143.25877"/>
    </g>
   </g>
   <g id="line2d_49"/>
   <g id="line2d_50">
    <path clip-path="url(#pe4f69ae827)" d="M 181.029171 220.752073 
" style="fill:none;stroke:#008000;stroke-linecap:square;stroke-width:1.5;"/>
    <defs>
     <path d="M -12 12 
L 12 -12 
M -12 -12 
L 12 12 
" id="mc54b87e87e" style="stroke:#008000;stroke-width:3;"/>
    </defs>
    <g clip-path="url(#pe4f69ae827)">
     <use style="fill:#008000;stroke:#008000;stroke-width:3;" x="181.029171" xlink:href="#mc54b87e87e" y="220.752073"/>
    </g>
   </g>
   <g id="line2d_51">
    <defs>
     <path d="M 0 1.5 
C 0.397805 1.5 0.77937 1.341951 1.06066 1.06066 
C 1.341951 0.77937 1.5 0.397805 1.5 0 
C 1.5 -0.397805 1.341951 -0.77937 1.06066 -1.06066 
C 0.77937 -1.341951 0.397805 -1.5 0 -1.5 
C -0.397805 -1.5 -0.77937 -1.341951 -1.06066 -1.06066 
C -1.341951 -0.77937 -1.5 -0.397805 -1.5 0 
C -1.5 0.397805 -1.341951 0.77937 -1.06066 1.06066 
C -0.77937 1.341951 -0.397805 1.5 0 1.5 
z
" id="m6bb701bbb2" style="stroke:#0000ff;"/>
    </defs>
    <g>
     <use style="fill:#0000ff;stroke:#0000ff;" x="261.458876" xlink:href="#m6bb701bbb2" y="215.585853"/>
     <use style="fill:#0000ff;stroke:#0000ff;" x="261.458876" xlink:href="#m6bb701bbb2" y="215.585853"/>
    </g>
   </g>
   <g id="line2d_52">
    <path d="M 50.355702 298.245375 
L 50.355702 281.196849 
L 62.740936 281.196849 
L 62.740936 280.680226 
L 82.371068 280.680226 
L 82.371068 279.646982 
L 87.511405 279.646982 
L 87.511405 277.063872 
L 93.201573 277.063872 
L 93.201573 275.514006 
L 94.756302 275.514006 
L 94.756302 274.480762 
L 100.979887 274.480762 
L 100.979887 273.447518 
L 102.0012 273.447518 
L 102.0012 272.930896 
L 105.586807 272.930896 
L 105.586807 272.414274 
L 107.141536 272.414274 
L 107.141536 271.897652 
L 113.365121 271.897652 
L 113.365121 271.38103 
L 113.883073 271.38103 
L 113.883073 270.347786 
L 116.710238 270.347786 
L 116.710238 269.831164 
L 118.373589 269.831164 
L 118.373589 269.314542 
L 120.956983 269.314542 
L 120.956983 268.281298 
L 121.959196 268.281298 
L 121.959196 267.248054 
L 122.597411 267.248054 
L 122.597411 266.731432 
L 123.513925 266.731432 
L 123.513925 264.664944 
L 124.099818 264.664944 
L 124.099818 264.148322 
L 124.944138 264.148322 
L 124.944138 263.6317 
L 125.216939 263.6317 
L 125.216939 262.598456 
L 125.485637 262.598456 
L 125.485637 262.081834 
L 127.971321 262.081834 
L 127.971321 261.565212 
L 129.73751 261.565212 
L 129.73751 260.531968 
L 131.912004 260.531968 
L 131.912004 259.498724 
L 132.641417 259.498724 
L 132.641417 258.46548 
L 133.169577 258.46548 
L 133.169577 256.915614 
L 134.016565 256.915614 
L 134.016565 256.398992 
L 134.34443 256.398992 
L 134.34443 255.365748 
L 135.899159 255.365748 
L 135.899159 254.849126 
L 136.047443 254.849126 
L 136.047443 254.332504 
L 136.628571 254.332504 
L 136.628571 253.815882 
L 137.737027 253.815882 
L 137.737027 252.782638 
L 139.52533 252.782638 
L 139.52533 252.266016 
L 139.766795 252.266016 
L 139.766795 251.749394 
L 139.886314 251.749394 
L 139.886314 251.232772 
L 140.356555 251.232772 
L 140.356555 250.71615 
L 140.92747 250.71615 
L 140.92747 250.199528 
L 141.697292 250.199528 
L 141.697292 248.13304 
L 143.341497 248.13304 
L 143.341497 247.099796 
L 144.203932 247.099796 
L 144.203932 246.583173 
L 144.39006 246.583173 
L 144.39006 245.549929 
L 144.937086 245.549929 
L 144.937086 245.033307 
L 148.725604 245.033307 
L 148.725604 244.516685 
L 151.849684 244.516685 
L 151.849684 244.000063 
L 154.028625 244.000063 
L 154.028625 243.483441 
L 190.622262 243.483441 
L 190.629224 242.450197 
L 191.04886 242.450197 
L 191.04886 241.933575 
L 191.472152 241.933575 
L 191.538428 239.867087 
L 191.624222 239.867087 
L 191.624222 239.350465 
L 192.378371 239.350465 
L 192.378371 238.317221 
L 202.811449 238.317221 
L 202.811449 237.800599 
L 202.986593 237.800599 
L 203.059645 236.767355 
L 203.246133 236.767355 
L 203.290739 235.734111 
L 203.400066 235.734111 
L 203.400066 235.217489 
L 209.92917 235.217489 
L 209.933897 234.184245 
L 210.14997 234.184245 
L 210.259355 233.151001 
L 215.282718 233.151001 
L 215.282718 232.634379 
L 219.199319 232.634379 
L 219.199319 232.117757 
L 219.381277 232.117757 
L 219.381277 231.601135 
L 222.387524 231.601135 
L 222.387524 230.567891 
L 222.517687 230.567891 
L 222.517687 230.051269 
L 227.483966 230.051269 
L 227.572234 227.984781 
L 229.560878 227.984781 
L 229.560878 227.468159 
L 229.677871 227.468159 
L 229.677871 226.951537 
L 231.507716 226.951537 
L 231.507716 225.918293 
L 233.132658 225.918293 
L 233.132658 224.885049 
L 234.67658 224.885049 
L 234.753328 222.818561 
L 237.404318 222.818561 
L 237.404318 222.301939 
L 240.903609 222.301939 
L 240.903609 221.785317 
L 241.918124 221.785317 
L 241.918124 221.268695 
L 242.84369 221.268695 
L 242.84369 220.752073 
L 245.452948 220.752073 
L 245.452948 219.718829 
L 247.002255 219.718829 
L 247.002255 218.685585 
L 253.208284 218.685585 
L 253.208284 217.652341 
L 256.975948 217.652341 
L 256.975948 217.135719 
L 258.982086 217.135719 
L 258.982086 216.619097 
L 260.79817 216.619097 
L 260.79817 216.102475 
L 261.458876 216.102475 
L 261.458876 215.585853 
L 367.113325 215.585853 
L 367.113325 215.585853 
" style="fill:none;stroke:#0000ff;stroke-linecap:square;stroke-width:1.5;"/>
   </g>
   <g id="line2d_53">
    <defs>
     <path d="M 0 -6 
L -1.347084 -1.854102 
L -5.706339 -1.854102 
L -2.179628 0.708204 
L -3.526712 4.854102 
L -0 2.291796 
L 3.526712 4.854102 
L 2.179628 0.708204 
L 5.706339 -1.854102 
L 1.347084 -1.854102 
z
" id="ma3c24ac0a6" style="stroke:#0000ff;stroke-linejoin:bevel;stroke-width:1.5;"/>
    </defs>
    <g>
     <use style="fill:none;stroke:#0000ff;stroke-linejoin:bevel;stroke-width:1.5;" x="113.883073" xlink:href="#ma3c24ac0a6" y="270.347786"/>
     <use style="fill:none;stroke:#0000ff;stroke-linejoin:bevel;stroke-width:1.5;" x="154.028625" xlink:href="#ma3c24ac0a6" y="244.000063"/>
     <use style="fill:none;stroke:#0000ff;stroke-linejoin:bevel;stroke-width:1.5;" x="227.572234" xlink:href="#ma3c24ac0a6" y="228.501403"/>
     <use style="fill:none;stroke:#0000ff;stroke-linejoin:bevel;stroke-width:1.5;" x="261.458876" xlink:href="#ma3c24ac0a6" y="215.585853"/>
     <use style="fill:none;stroke:#0000ff;stroke-linejoin:bevel;stroke-width:1.5;" x="261.458876" xlink:href="#ma3c24ac0a6" y="215.585853"/>
     <use style="fill:none;stroke:#0000ff;stroke-linejoin:bevel;stroke-width:1.5;" x="367.113325" xlink:href="#ma3c24ac0a6" y="215.585853"/>
    </g>
   </g>
   <g id="line2d_54"/>
   <g id="line2d_55">
    <path clip-path="url(#pe4f69ae827)" d="M 190.156663 243.483441 
" style="fill:none;stroke:#0000ff;stroke-linecap:square;stroke-width:1.5;"/>
    <defs>
     <path d="M -12 12 
L 12 -12 
M -12 -12 
L 12 12 
" id="me27ca752bd" style="stroke:#0000ff;stroke-width:3;"/>
    </defs>
    <g clip-path="url(#pe4f69ae827)">
     <use style="fill:#0000ff;stroke:#0000ff;stroke-width:3;" x="190.156663" xlink:href="#me27ca752bd" y="243.483441"/>
    </g>
   </g>
   <g id="line2d_56">
    <defs>
     <path d="M 0 1.5 
C 0.397805 1.5 0.77937 1.341951 1.06066 1.06066 
C 1.341951 0.77937 1.5 0.397805 1.5 0 
C 1.5 -0.397805 1.341951 -0.77937 1.06066 -1.06066 
C 0.77937 -1.341951 0.397805 -1.5 0 -1.5 
C -0.397805 -1.5 -0.77937 -1.341951 -1.06066 -1.06066 
C -1.341951 -0.77937 -1.5 -0.397805 -1.5 0 
C -1.5 0.397805 -1.341951 0.77937 -1.06066 1.06066 
C -0.77937 1.341951 -0.397805 1.5 0 1.5 
z
" id="me386a269c6" style="stroke:#000000;"/>
    </defs>
    <g>
     <use style="stroke:#000000;" x="260.153727" xlink:href="#me386a269c6" y="241.416953"/>
     <use style="stroke:#000000;" x="260.153727" xlink:href="#me386a269c6" y="241.416953"/>
    </g>
   </g>
   <g id="line2d_57">
    <path d="M 37.970468 298.245375 
L 37.970468 286.363069 
L 90.582045 286.363069 
L 90.582045 285.846447 
L 98.1377 285.846447 
L 98.1377 284.296581 
L 100.44647 284.296581 
L 100.44647 282.746715 
L 103.431412 282.746715 
L 103.431412 281.713471 
L 105.176028 281.713471 
L 105.176028 281.196849 
L 107.870948 281.196849 
L 107.870948 280.680226 
L 108.571749 280.680226 
L 108.571749 279.646982 
L 109.246097 279.646982 
L 109.246097 278.613738 
L 112.000479 278.613738 
L 112.000479 277.580494 
L 112.281873 277.580494 
L 112.281873 276.54725 
L 115.115846 276.54725 
L 115.115846 276.030628 
L 115.352513 276.030628 
L 115.352513 275.514006 
L 115.816646 275.514006 
L 115.816646 274.997384 
L 116.490995 274.997384 
L 116.490995 273.96414 
L 116.710238 273.96414 
L 116.710238 272.930896 
L 117.561262 272.930896 
L 117.561262 271.897652 
L 119.52677 271.897652 
L 119.52677 271.38103 
L 120.256183 271.38103 
L 120.256183 270.347786 
L 121.465115 270.347786 
L 121.465115 268.79792 
L 124.944138 268.79792 
L 124.944138 266.731432 
L 126.771668 266.731432 
L 126.771668 266.21481 
L 128.086972 266.21481 
L 128.086972 264.664944 
L 130.559177 264.664944 
L 130.559177 264.148322 
L 130.857815 264.148322 
L 130.857815 263.6317 
L 132.371364 263.6317 
L 132.371364 263.115078 
L 133.256105 263.115078 
L 133.256105 262.598456 
L 133.682572 262.598456 
L 133.682572 261.565212 
L 134.506133 261.565212 
L 134.506133 261.04859 
L 137.191393 261.04859 
L 137.191393 260.531968 
L 139.156902 260.531968 
L 139.156902 260.015346 
L 140.983571 260.015346 
L 140.983571 259.498724 
L 141.039496 259.498724 
L 141.039496 258.46548 
L 144.436291 258.46548 
L 144.436291 257.432236 
L 148.395722 257.432236 
L 148.395722 256.398992 
L 153.86594 256.398992 
L 153.86594 255.88237 
L 202.772685 255.88237 
L 202.772685 255.365748 
L 202.790316 255.365748 
L 202.790316 254.849126 
L 202.907991 254.849126 
L 202.907991 254.332504 
L 202.93423 254.332504 
L 202.93423 253.29926 
L 202.965666 253.29926 
L 202.965666 252.782638 
L 202.988336 252.782638 
L 202.988336 252.266016 
L 203.256436 252.266016 
L 203.256436 251.232772 
L 204.812453 251.232772 
L 204.812453 250.71615 
L 215.051772 250.71615 
L 215.051772 250.199528 
L 215.124374 250.199528 
L 215.124374 249.682906 
L 215.140272 249.682906 
L 215.140272 249.166284 
L 215.210758 249.166284 
L 215.210758 248.649662 
L 216.098451 248.649662 
L 216.098451 247.616418 
L 222.264109 247.616418 
L 222.264109 247.099796 
L 222.303766 247.099796 
L 222.303766 246.583173 
L 222.401053 246.583173 
L 222.401053 246.066551 
L 227.493697 246.066551 
L 227.493697 245.549929 
L 231.350906 245.549929 
L 231.350906 245.033307 
L 231.363017 245.033307 
L 231.363017 244.516685 
L 231.444732 244.516685 
L 231.444732 244.000063 
L 234.956295 244.000063 
L 234.956295 243.483441 
L 241.84618 243.483441 
L 241.84618 242.966819 
L 243.737031 242.966819 
L 243.737031 242.450197 
L 245.606525 242.450197 
L 245.606525 241.933575 
L 260.153727 241.933575 
L 260.153727 241.416953 
L 367.113325 241.416953 
" style="fill:none;stroke:#000000;stroke-linecap:square;stroke-width:1.5;"/>
   </g>
   <g id="line2d_58">
    <defs>
     <path d="M 0 6 
C 1.591219 6 3.117479 5.367802 4.242641 4.242641 
C 5.367802 3.117479 6 1.591219 6 0 
C 6 -1.591219 5.367802 -3.117479 4.242641 -4.242641 
C 3.117479 -5.367802 1.591219 -6 0 -6 
C -1.591219 -6 -3.117479 -5.367802 -4.242641 -4.242641 
C -5.367802 -3.117479 -6 -1.591219 -6 0 
C -6 1.591219 -5.367802 3.117479 -4.242641 4.242641 
C -3.117479 5.367802 -1.591219 6 0 6 
z
" id="mf277de9ab8" style="stroke:#000000;stroke-width:1.5;"/>
    </defs>
    <g>
     <use style="fill:none;stroke:#000000;stroke-width:1.5;" x="37.970468" xlink:href="#mf277de9ab8" y="286.363069"/>
     <use style="fill:none;stroke:#000000;stroke-width:1.5;" x="128.086972" xlink:href="#mf277de9ab8" y="266.21481"/>
     <use style="fill:none;stroke:#000000;stroke-width:1.5;" x="216.098451" xlink:href="#mf277de9ab8" y="248.649662"/>
     <use style="fill:none;stroke:#000000;stroke-width:1.5;" x="260.153727" xlink:href="#mf277de9ab8" y="241.933575"/>
     <use style="fill:none;stroke:#000000;stroke-width:1.5;" x="260.153727" xlink:href="#mf277de9ab8" y="241.416953"/>
     <use style="fill:none;stroke:#000000;stroke-width:1.5;" x="367.113325" xlink:href="#mf277de9ab8" y="241.416953"/>
    </g>
   </g>
   <g id="line2d_59"/>
   <g id="line2d_60">
    <path clip-path="url(#pe4f69ae827)" d="M 202.541897 255.88237 
" style="fill:none;stroke:#000000;stroke-linecap:square;stroke-width:1.5;"/>
    <defs>
     <path d="M -12 12 
L 12 -12 
M -12 -12 
L 12 12 
" id="mbf6c537842" style="stroke:#000000;stroke-width:3;"/>
    </defs>
    <g clip-path="url(#pe4f69ae827)">
     <use style="stroke:#000000;stroke-width:3;" x="202.541897" xlink:href="#mbf6c537842" y="255.88237"/>
    </g>
   </g>
   <g id="line2d_61">
    <defs>
     <path d="M 0 1.5 
C 0.397805 1.5 0.77937 1.341951 1.06066 1.06066 
C 1.341951 0.77937 1.5 0.397805 1.5 0 
C 1.5 -0.397805 1.341951 -0.77937 1.06066 -1.06066 
C 0.77937 -1.341951 0.397805 -1.5 0 -1.5 
C -0.397805 -1.5 -0.77937 -1.341951 -1.06066 -1.06066 
C -1.341951 -0.77937 -1.5 -0.397805 -1.5 0 
C -1.5 0.397805 -1.341951 0.77937 -1.06066 1.06066 
C -0.77937 1.341951 -0.397805 1.5 0 1.5 
z
" id="m82740fa6ee" style="stroke:#ff0000;"/>
    </defs>
    <g>
     <use style="fill:#ff0000;stroke:#ff0000;" x="270.97114" xlink:href="#m82740fa6ee" y="256.915614"/>
     <use style="fill:#ff0000;stroke:#ff0000;" x="270.97114" xlink:href="#m82740fa6ee" y="256.915614"/>
    </g>
   </g>
   <g id="line2d_62">
    <path d="M 25.585234 298.245375 
L 25.585234 288.429557 
L 95.12473 288.429557 
L 95.12473 287.396313 
L 96.52687 287.396313 
L 96.52687 286.879691 
L 99.896639 286.879691 
L 99.896639 286.363069 
L 102.0012 286.363069 
L 102.0012 285.329825 
L 103.883794 285.329825 
L 103.883794 284.813203 
L 104.54159 284.813203 
L 104.54159 284.296581 
L 111.714583 284.296581 
L 111.714583 283.779959 
L 112.966559 283.779959 
L 112.966559 283.263337 
L 115.816646 283.263337 
L 115.816646 282.746715 
L 116.269028 282.746715 
L 116.269028 282.230093 
L 117.03414 282.230093 
L 117.03414 280.680226 
L 117.664845 280.680226 
L 117.664845 279.646982 
L 117.972041 279.646982 
L 117.972041 278.613738 
L 119.711934 278.613738 
L 119.711934 278.097116 
L 120.784343 278.097116 
L 120.784343 277.063872 
L 121.042681 277.063872 
L 121.042681 276.54725 
L 123.882353 276.54725 
L 123.882353 276.030628 
L 123.955136 276.030628 
L 123.955136 274.997384 
L 125.012729 274.997384 
L 125.012729 273.96414 
L 125.149128 273.96414 
L 125.149128 272.930896 
L 126.332008 272.930896 
L 126.332008 272.414274 
L 126.584565 272.414274 
L 126.584565 271.897652 
L 130.907107 271.897652 
L 130.907107 270.864408 
L 134.943417 270.864408 
L 134.943417 270.347786 
L 136.121126 270.347786 
L 136.121126 269.831164 
L 138.525454 269.831164 
L 138.525454 269.314542 
L 139.125854 269.314542 
L 139.125854 267.248054 
L 139.52533 267.248054 
L 139.52533 266.731432 
L 139.826654 266.731432 
L 139.826654 265.698188 
L 140.327525 265.698188 
L 140.327525 265.181566 
L 141.150824 265.181566 
L 141.150824 264.664944 
L 148.284393 264.664944 
L 148.284393 264.148322 
L 182.718643 264.148322 
L 182.718643 263.115078 
L 215.044229 263.115078 
L 215.044229 262.598456 
L 215.129233 262.598456 
L 215.129233 262.081834 
L 215.237118 262.081834 
L 215.237118 261.565212 
L 215.350901 261.565212 
L 215.350901 261.04859 
L 217.654052 261.04859 
L 217.654052 260.531968 
L 249.737928 260.531968 
L 249.737928 260.015346 
L 254.234979 260.015346 
L 254.234979 258.982102 
L 257.799135 258.982102 
L 257.799135 258.46548 
L 263.343452 258.46548 
L 263.343452 257.948858 
L 265.568229 257.948858 
L 265.568229 257.432236 
L 270.97114 257.432236 
L 270.97114 256.915614 
L 367.113325 256.915614 
" style="fill:none;stroke:#ff0000;stroke-linecap:square;stroke-width:1.5;"/>
   </g>
   <g id="line2d_63">
    <defs>
     <path d="M -6 6 
L 6 6 
L 6 -6 
L -6 -6 
z
" id="ma4f2450eb3" style="stroke:#ff0000;stroke-linejoin:miter;stroke-width:1.5;"/>
    </defs>
    <g>
     <use style="fill:none;stroke:#ff0000;stroke-linejoin:miter;stroke-width:1.5;" x="104.54159" xlink:href="#ma4f2450eb3" y="284.296581"/>
     <use style="fill:none;stroke:#ff0000;stroke-linejoin:miter;stroke-width:1.5;" x="148.284393" xlink:href="#ma4f2450eb3" y="264.148322"/>
     <use style="fill:none;stroke:#ff0000;stroke-linejoin:miter;stroke-width:1.5;" x="257.799135" xlink:href="#ma4f2450eb3" y="258.982102"/>
     <use style="fill:none;stroke:#ff0000;stroke-linejoin:miter;stroke-width:1.5;" x="270.97114" xlink:href="#ma4f2450eb3" y="256.915614"/>
     <use style="fill:none;stroke:#ff0000;stroke-linejoin:miter;stroke-width:1.5;" x="270.97114" xlink:href="#ma4f2450eb3" y="256.915614"/>
     <use style="fill:none;stroke:#ff0000;stroke-linejoin:miter;stroke-width:1.5;" x="367.113325" xlink:href="#ma4f2450eb3" y="256.915614"/>
    </g>
   </g>
   <g id="line2d_64"/>
   <g id="line2d_65">
    <path clip-path="url(#pe4f69ae827)" d="M 214.927131 263.115078 
" style="fill:none;stroke:#ff0000;stroke-linecap:square;stroke-width:1.5;"/>
    <defs>
     <path d="M -12 12 
L 12 -12 
M -12 -12 
L 12 12 
" id="me7c3a16175" style="stroke:#ff0000;stroke-width:3;"/>
    </defs>
    <g clip-path="url(#pe4f69ae827)">
     <use style="fill:#ff0000;stroke:#ff0000;stroke-width:3;" x="214.927131" xlink:href="#me7c3a16175" y="263.115078"/>
    </g>
   </g>
   <g id="line2d_66">
    <defs>
     <path d="M 0 1.5 
C 0.397805 1.5 0.77937 1.341951 1.06066 1.06066 
C 1.341951 0.77937 1.5 0.397805 1.5 0 
C 1.5 -0.397805 1.341951 -0.77937 1.06066 -1.06066 
C 0.77937 -1.341951 0.397805 -1.5 0 -1.5 
C -0.397805 -1.5 -0.77937 -1.341951 -1.06066 -1.06066 
C -1.341951 -0.77937 -1.5 -0.397805 -1.5 0 
C -1.5 0.397805 -1.341951 0.77937 -1.06066 1.06066 
C -0.77937 1.341951 -0.397805 1.5 0 1.5 
z
" id="meac41339f9" style="stroke:#bf00bf;"/>
    </defs>
    <g>
     <use style="fill:#bf00bf;stroke:#bf00bf;" x="246.989599" xlink:href="#meac41339f9" y="267.248054"/>
     <use style="fill:#bf00bf;stroke:#bf00bf;" x="246.989599" xlink:href="#meac41339f9" y="267.248054"/>
    </g>
   </g>
   <g id="line2d_67">
    <path d="M 13.2 298.245375 
L 13.2 288.429557 
L 113.496023 288.429557 
L 113.496023 287.912935 
L 115.527979 287.912935 
L 115.527979 286.879691 
L 116.269028 286.879691 
L 116.269028 286.363069 
L 116.926824 286.363069 
L 116.926824 284.813203 
L 118.76631 284.813203 
L 118.76631 284.296581 
L 120.076602 284.296581 
L 120.076602 283.779959 
L 120.211456 283.779959 
L 120.211456 283.263337 
L 120.256183 283.263337 
L 120.256183 282.230093 
L 120.913979 282.230093 
L 120.913979 280.680226 
L 121.631331 280.680226 
L 121.631331 280.163604 
L 121.754987 280.163604 
L 121.754987 279.13036 
L 122.597411 279.13036 
L 122.597411 278.613738 
L 122.753465 278.613738 
L 122.753465 278.097116 
L 123.023323 278.097116 
L 123.023323 277.580494 
L 123.13774 277.580494 
L 123.13774 277.063872 
L 123.25143 277.063872 
L 123.25143 276.030628 
L 127.678874 276.030628 
L 127.678874 275.514006 
L 131.818698 275.514006 
L 131.818698 274.997384 
L 132.797083 274.997384 
L 132.797083 273.96414 
L 133.385118 273.96414 
L 133.385118 273.447518 
L 134.943417 273.447518 
L 134.943417 272.930896 
L 138.605616 272.930896 
L 138.605616 272.414274 
L 138.76487 272.414274 
L 138.76487 270.864408 
L 140.857095 270.864408 
L 140.857095 269.831164 
L 142.135877 269.831164 
L 142.135877 269.314542 
L 151.417619 269.314542 
L 151.417619 268.79792 
L 227.536538 268.79792 
L 227.536538 268.281298 
L 227.566069 268.281298 
L 227.566069 267.764676 
L 246.989599 267.764676 
L 246.989599 267.248054 
L 367.113325 267.248054 
" style="fill:none;stroke:#bf00bf;stroke-linecap:square;stroke-width:1.5;"/>
   </g>
   <g id="line2d_68">
    <defs>
     <path d="M -0 8.485281 
L 8.485281 0 
L 0 -8.485281 
L -8.485281 -0 
z
" id="m0dcc5c935b" style="stroke:#bf00bf;stroke-linejoin:miter;stroke-width:1.5;"/>
    </defs>
    <g>
     <use style="fill:none;stroke:#bf00bf;stroke-linejoin:miter;stroke-width:1.5;" x="13.2" xlink:href="#m0dcc5c935b" y="298.245375"/>
     <use style="fill:none;stroke:#bf00bf;stroke-linejoin:miter;stroke-width:1.5;" x="131.818698" xlink:href="#m0dcc5c935b" y="274.997384"/>
     <use style="fill:none;stroke:#bf00bf;stroke-linejoin:miter;stroke-width:1.5;" x="151.417619" xlink:href="#m0dcc5c935b" y="268.79792"/>
     <use style="fill:none;stroke:#bf00bf;stroke-linejoin:miter;stroke-width:1.5;" x="246.989599" xlink:href="#m0dcc5c935b" y="267.248054"/>
     <use style="fill:none;stroke:#bf00bf;stroke-linejoin:miter;stroke-width:1.5;" x="246.989599" xlink:href="#m0dcc5c935b" y="267.248054"/>
     <use style="fill:none;stroke:#bf00bf;stroke-linejoin:miter;stroke-width:1.5;" x="367.113325" xlink:href="#m0dcc5c935b" y="267.248054"/>
    </g>
   </g>
   <g id="line2d_69"/>
   <g id="line2d_70">
    <path clip-path="url(#pe4f69ae827)" d="M 227.312365 268.79792 
" style="fill:none;stroke:#bf00bf;stroke-linecap:square;stroke-width:1.5;"/>
    <defs>
     <path d="M -12 12 
L 12 -12 
M -12 -12 
L 12 12 
" id="m0e1c7affda" style="stroke:#bf00bf;stroke-width:3;"/>
    </defs>
    <g clip-path="url(#pe4f69ae827)">
     <use style="fill:#bf00bf;stroke:#bf00bf;stroke-width:3;" x="227.312365" xlink:href="#m0e1c7affda" y="268.79792"/>
    </g>
   </g>
   <g id="line2d_71">
    <path d="M 367.113325 267.248054 
L 398.793325 292.97583 
" style="fill:none;stroke:#bf00bf;stroke-linecap:square;stroke-width:1.5;"/>
    <g>
     <use style="fill:none;stroke:#bf00bf;stroke-linejoin:miter;stroke-width:1.5;" x="367.113325" xlink:href="#m0dcc5c935b" y="267.248054"/>
     <use style="fill:none;stroke:#bf00bf;stroke-linejoin:miter;stroke-width:1.5;" x="398.793325" xlink:href="#m0dcc5c935b" y="292.97583"/>
    </g>
   </g>
   <g id="line2d_72">
    <path d="M 367.113325 256.915614 
L 398.793325 242.388203 
" style="fill:none;stroke:#ff0000;stroke-linecap:square;stroke-width:1.5;"/>
    <g>
     <use style="fill:none;stroke:#ff0000;stroke-linejoin:miter;stroke-width:1.5;" x="367.113325" xlink:href="#ma4f2450eb3" y="256.915614"/>
     <use style="fill:none;stroke:#ff0000;stroke-linejoin:miter;stroke-width:1.5;" x="398.793325" xlink:href="#ma4f2450eb3" y="242.388203"/>
    </g>
   </g>
   <g id="line2d_73">
    <path d="M 367.113325 241.416953 
L 398.793325 191.800575 
" style="fill:none;stroke:#000000;stroke-linecap:square;stroke-width:1.5;"/>
    <g>
     <use style="fill:none;stroke:#000000;stroke-width:1.5;" x="367.113325" xlink:href="#mf277de9ab8" y="241.416953"/>
     <use style="fill:none;stroke:#000000;stroke-width:1.5;" x="398.793325" xlink:href="#mf277de9ab8" y="191.800575"/>
    </g>
   </g>
   <g id="line2d_74">
    <path d="M 367.113325 215.585853 
L 398.793325 141.212947 
" style="fill:none;stroke:#0000ff;stroke-linecap:square;stroke-width:1.5;"/>
    <g>
     <use style="fill:none;stroke:#0000ff;stroke-linejoin:bevel;stroke-width:1.5;" x="367.113325" xlink:href="#ma3c24ac0a6" y="215.585853"/>
     <use style="fill:none;stroke:#0000ff;stroke-linejoin:bevel;stroke-width:1.5;" x="398.793325" xlink:href="#ma3c24ac0a6" y="141.212947"/>
    </g>
   </g>
   <g id="line2d_75">
    <path d="M 367.113325 148.424991 
L 398.793325 90.62532 
" style="fill:none;stroke:#00bfbf;stroke-linecap:square;stroke-width:1.5;"/>
    <g>
     <use style="fill:none;stroke:#00bfbf;stroke-width:1.5;" x="367.113325" xlink:href="#m5efb5db387" y="148.424991"/>
     <use style="fill:none;stroke:#00bfbf;stroke-width:1.5;" x="398.793325" xlink:href="#m5efb5db387" y="90.62532"/>
    </g>
   </g>
   <g id="line2d_76">
    <path d="M 367.113325 143.25877 
L 398.793325 40.037692 
" style="fill:none;stroke:#008000;stroke-linecap:square;stroke-width:1.5;"/>
    <g>
     <use style="fill:none;stroke:#008000;stroke-linejoin:miter;stroke-width:1.5;" x="367.113325" xlink:href="#m671c2995eb" y="143.25877"/>
     <use style="fill:none;stroke:#008000;stroke-linejoin:miter;stroke-width:1.5;" x="398.793325" xlink:href="#m671c2995eb" y="40.037692"/>
    </g>
   </g>
   <g id="line2d_77">
    <path d="M 367.113325 298.245375 
L 367.113325 34.768147 
" style="fill:none;stroke:#000000;stroke-linecap:square;stroke-width:1.5;"/>
   </g>
   <g id="patch_3">
    <path d="M 79.113325 298.245375 
L 79.113325 32.133375 
" style="fill:none;stroke:#000000;stroke-linecap:square;stroke-linejoin:miter;stroke-width:0.8;"/>
   </g>
   <g id="patch_4">
    <path d="M 436.233325 298.245375 
L 436.233325 32.133375 
" style="fill:none;stroke:#000000;stroke-linecap:square;stroke-linejoin:miter;stroke-width:0.8;"/>
   </g>
   <g id="patch_5">
    <path d="M 79.113325 298.245375 
L 436.233325 298.245375 
" style="fill:none;stroke:#000000;stroke-linecap:square;stroke-linejoin:miter;stroke-width:0.8;"/>
   </g>
   <g id="patch_6">
    <path d="M 79.113325 32.133375 
L 436.233325 32.133375 
" style="fill:none;stroke:#000000;stroke-linecap:square;stroke-linejoin:miter;stroke-width:0.8;"/>
   </g>
   <g id="text_14">
    <!-- 40-D -->
    <defs>
     <path d="M 19.671875 64.796875 
L 19.671875 8.109375 
L 31.59375 8.109375 
Q 46.6875 8.109375 53.6875 14.9375 
Q 60.6875 21.78125 60.6875 36.53125 
Q 60.6875 51.171875 53.6875 57.984375 
Q 46.6875 64.796875 31.59375 64.796875 
z
M 9.8125 72.90625 
L 30.078125 72.90625 
Q 51.265625 72.90625 61.171875 64.09375 
Q 71.09375 55.28125 71.09375 36.53125 
Q 71.09375 17.671875 61.125 8.828125 
Q 51.171875 0 30.078125 0 
L 9.8125 0 
z
" id="DejaVuSans-44"/>
    </defs>
    <g transform="translate(404.553325 297.114893)scale(0.15 -0.15)">
     <use xlink:href="#DejaVuSans-34"/>
     <use x="63.623047" xlink:href="#DejaVuSans-30"/>
     <use x="127.246094" xlink:href="#DejaVuSans-2d"/>
     <use x="163.330078" xlink:href="#DejaVuSans-44"/>
    </g>
   </g>
   <g id="text_15">
    <!-- 20-D -->
    <g transform="translate(404.553325 246.527265)scale(0.15 -0.15)">
     <use xlink:href="#DejaVuSans-32"/>
     <use x="63.623047" xlink:href="#DejaVuSans-30"/>
     <use x="127.246094" xlink:href="#DejaVuSans-2d"/>
     <use x="163.330078" xlink:href="#DejaVuSans-44"/>
    </g>
   </g>
   <g id="text_16">
    <!-- 10-D -->
    <g transform="translate(404.553325 195.939637)scale(0.15 -0.15)">
     <use xlink:href="#DejaVuSans-31"/>
     <use x="63.623047" xlink:href="#DejaVuSans-30"/>
     <use x="127.246094" xlink:href="#DejaVuSans-2d"/>
     <use x="163.330078" xlink:href="#DejaVuSans-44"/>
    </g>
   </g>
   <g id="text_17">
    <!-- 5-D -->
    <defs>
     <path d="M 10.796875 72.90625 
L 49.515625 72.90625 
L 49.515625 64.59375 
L 19.828125 64.59375 
L 19.828125 46.734375 
Q 21.96875 47.46875 24.109375 47.828125 
Q 26.265625 48.1875 28.421875 48.1875 
Q 40.625 48.1875 47.75 41.5 
Q 54.890625 34.8125 54.890625 23.390625 
Q 54.890625 11.625 47.5625 5.09375 
Q 40.234375 -1.421875 26.90625 -1.421875 
Q 22.3125 -1.421875 17.546875 -0.640625 
Q 12.796875 0.140625 7.71875 1.703125 
L 7.71875 11.625 
Q 12.109375 9.234375 16.796875 8.0625 
Q 21.484375 6.890625 26.703125 6.890625 
Q 35.15625 6.890625 40.078125 11.328125 
Q 45.015625 15.765625 45.015625 23.390625 
Q 45.015625 31 40.078125 35.4375 
Q 35.15625 39.890625 26.703125 39.890625 
Q 22.75 39.890625 18.8125 39.015625 
Q 14.890625 38.140625 10.796875 36.28125 
z
" id="DejaVuSans-35"/>
    </defs>
    <g transform="translate(404.553325 145.35201)scale(0.15 -0.15)">
     <use xlink:href="#DejaVuSans-35"/>
     <use x="63.623047" xlink:href="#DejaVuSans-2d"/>
     <use x="99.707031" xlink:href="#DejaVuSans-44"/>
    </g>
   </g>
   <g id="text_18">
    <!-- 2-D -->
    <g transform="translate(404.553325 94.764382)scale(0.15 -0.15)">
     <use xlink:href="#DejaVuSans-32"/>
     <use x="63.623047" xlink:href="#DejaVuSans-2d"/>
     <use x="99.707031" xlink:href="#DejaVuSans-44"/>
    </g>
   </g>
   <g id="text_19">
    <!-- 3-D -->
    <defs>
     <path d="M 40.578125 39.3125 
Q 47.65625 37.796875 51.625 33 
Q 55.609375 28.21875 55.609375 21.1875 
Q 55.609375 10.40625 48.1875 4.484375 
Q 40.765625 -1.421875 27.09375 -1.421875 
Q 22.515625 -1.421875 17.65625 -0.515625 
Q 12.796875 0.390625 7.625 2.203125 
L 7.625 11.71875 
Q 11.71875 9.328125 16.59375 8.109375 
Q 21.484375 6.890625 26.8125 6.890625 
Q 36.078125 6.890625 40.9375 10.546875 
Q 45.796875 14.203125 45.796875 21.1875 
Q 45.796875 27.640625 41.28125 31.265625 
Q 36.765625 34.90625 28.71875 34.90625 
L 20.21875 34.90625 
L 20.21875 43.015625 
L 29.109375 43.015625 
Q 36.375 43.015625 40.234375 45.921875 
Q 44.09375 48.828125 44.09375 54.296875 
Q 44.09375 59.90625 40.109375 62.90625 
Q 36.140625 65.921875 28.71875 65.921875 
Q 24.65625 65.921875 20.015625 65.03125 
Q 15.375 64.15625 9.8125 62.3125 
L 9.8125 71.09375 
Q 15.4375 72.65625 20.34375 73.4375 
Q 25.25 74.21875 29.59375 74.21875 
Q 40.828125 74.21875 47.359375 69.109375 
Q 53.90625 64.015625 53.90625 55.328125 
Q 53.90625 49.265625 50.4375 45.09375 
Q 46.96875 40.921875 40.578125 39.3125 
" id="DejaVuSans-33"/>
    </defs>
    <g transform="translate(404.553325 44.176754)scale(0.15 -0.15)">
     <use xlink:href="#DejaVuSans-33"/>
     <use x="63.623047" xlink:href="#DejaVuSans-2d"/>
     <use x="99.707031" xlink:href="#DejaVuSans-44"/>
    </g>
   </g>
   <g id="text_20">
    <!-- bbob - f17 -->
    <defs>
     <path d="M 48.6875 27.296875 
Q 48.6875 37.203125 44.609375 42.84375 
Q 40.53125 48.484375 33.40625 48.484375 
Q 26.265625 48.484375 22.1875 42.84375 
Q 18.109375 37.203125 18.109375 27.296875 
Q 18.109375 17.390625 22.1875 11.75 
Q 26.265625 6.109375 33.40625 6.109375 
Q 40.53125 6.109375 44.609375 11.75 
Q 48.6875 17.390625 48.6875 27.296875 
M 18.109375 46.390625 
Q 20.953125 51.265625 25.265625 53.625 
Q 29.59375 56 35.59375 56 
Q 45.5625 56 51.78125 48.09375 
Q 58.015625 40.1875 58.015625 27.296875 
Q 58.015625 14.40625 51.78125 6.484375 
Q 45.5625 -1.421875 35.59375 -1.421875 
Q 29.59375 -1.421875 25.265625 0.953125 
Q 20.953125 3.328125 18.109375 8.203125 
L 18.109375 0 
L 9.078125 0 
L 9.078125 75.984375 
L 18.109375 75.984375 
z
" id="DejaVuSans-62"/>
     <path d="M 8.203125 72.90625 
L 55.078125 72.90625 
L 55.078125 68.703125 
L 28.609375 0 
L 18.3125 0 
L 43.21875 64.59375 
L 8.203125 64.59375 
z
" id="DejaVuSans-37"/>
    </defs>
    <g transform="translate(82.684525 50.114612)scale(0.1666 -0.1666)">
     <use xlink:href="#DejaVuSans-62"/>
     <use x="63.476562" xlink:href="#DejaVuSans-62"/>
     <use x="126.953125" xlink:href="#DejaVuSans-6f"/>
     <use x="188.134766" xlink:href="#DejaVuSans-62"/>
     <use x="251.611328" xlink:href="#DejaVuSans-20"/>
     <use x="283.398438" xlink:href="#DejaVuSans-2d"/>
     <use x="319.482422" xlink:href="#DejaVuSans-20"/>
     <use x="351.269531" xlink:href="#DejaVuSans-66"/>
     <use x="386.474609" xlink:href="#DejaVuSans-31"/>
     <use x="450.097656" xlink:href="#DejaVuSans-37"/>
    </g>
    <!-- 51 targets in 100..1e-08 -->
    <g transform="translate(82.684525 68.770168)scale(0.1666 -0.1666)">
     <use xlink:href="#DejaVuSans-35"/>
     <use x="63.623047" xlink:href="#DejaVuSans-31"/>
     <use x="127.246094" xlink:href="#DejaVuSans-20"/>
     <use x="159.033203" xlink:href="#DejaVuSans-74"/>
     <use x="198.242188" xlink:href="#DejaVuSans-61"/>
     <use x="259.521484" xlink:href="#DejaVuSans-72"/>
     <use x="300.619141" xlink:href="#DejaVuSans-67"/>
     <use x="364.095703" xlink:href="#DejaVuSans-65"/>
     <use x="425.619141" xlink:href="#DejaVuSans-74"/>
     <use x="464.828125" xlink:href="#DejaVuSans-73"/>
     <use x="516.927734" xlink:href="#DejaVuSans-20"/>
     <use x="548.714844" xlink:href="#DejaVuSans-69"/>
     <use x="576.498047" xlink:href="#DejaVuSans-6e"/>
     <use x="639.876953" xlink:href="#DejaVuSans-20"/>
     <use x="671.664062" xlink:href="#DejaVuSans-31"/>
     <use x="735.287109" xlink:href="#DejaVuSans-30"/>
     <use x="798.910156" xlink:href="#DejaVuSans-30"/>
     <use x="862.533203" xlink:href="#DejaVuSans-2e"/>
     <use x="894.320312" xlink:href="#DejaVuSans-2e"/>
     <use x="926.107422" xlink:href="#DejaVuSans-31"/>
     <use x="989.730469" xlink:href="#DejaVuSans-65"/>
     <use x="1051.253906" xlink:href="#DejaVuSans-2d"/>
     <use x="1087.337891" xlink:href="#DejaVuSans-30"/>
     <use x="1150.960938" xlink:href="#DejaVuSans-38"/>
    </g>
    <!-- 15 instances -->
    <g transform="translate(82.684525 87.425723)scale(0.1666 -0.1666)">
     <use xlink:href="#DejaVuSans-31"/>
     <use x="63.623047" xlink:href="#DejaVuSans-35"/>
     <use x="127.246094" xlink:href="#DejaVuSans-20"/>
     <use x="159.033203" xlink:href="#DejaVuSans-69"/>
     <use x="186.816406" xlink:href="#DejaVuSans-6e"/>
     <use x="250.195312" xlink:href="#DejaVuSans-73"/>
     <use x="302.294922" xlink:href="#DejaVuSans-74"/>
     <use x="341.503906" xlink:href="#DejaVuSans-61"/>
     <use x="402.783203" xlink:href="#DejaVuSans-6e"/>
     <use x="466.162109" xlink:href="#DejaVuSans-63"/>
     <use x="521.142578" xlink:href="#DejaVuSans-65"/>
     <use x="582.666016" xlink:href="#DejaVuSans-73"/>
    </g>
   </g>
   <g id="text_21">
    <!-- v2.1 -->
    <g style="fill:#808080;" transform="translate(246.762388 293.504568)scale(0.1 -0.1)">
     <use xlink:href="#DejaVuSans-76"/>
     <use x="59.179688" xlink:href="#DejaVuSans-32"/>
     <use x="122.802734" xlink:href="#DejaVuSans-2e"/>
     <use x="154.589844" xlink:href="#DejaVuSans-31"/>
    </g>
   </g>
   <g id="text_22">
    <!-- 17 Schaffer F7, condition 10 -->
    <defs>
     <path d="M 53.515625 70.515625 
L 53.515625 60.890625 
Q 47.90625 63.578125 42.921875 64.890625 
Q 37.9375 66.21875 33.296875 66.21875 
Q 25.25 66.21875 20.875 63.09375 
Q 16.5 59.96875 16.5 54.203125 
Q 16.5 49.359375 19.40625 46.890625 
Q 22.3125 44.4375 30.421875 42.921875 
L 36.375 41.703125 
Q 47.40625 39.59375 52.65625 34.296875 
Q 57.90625 29 57.90625 20.125 
Q 57.90625 9.515625 50.796875 4.046875 
Q 43.703125 -1.421875 29.984375 -1.421875 
Q 24.8125 -1.421875 18.96875 -0.25 
Q 13.140625 0.921875 6.890625 3.21875 
L 6.890625 13.375 
Q 12.890625 10.015625 18.65625 8.296875 
Q 24.421875 6.59375 29.984375 6.59375 
Q 38.421875 6.59375 43.015625 9.90625 
Q 47.609375 13.234375 47.609375 19.390625 
Q 47.609375 24.75 44.3125 27.78125 
Q 41.015625 30.8125 33.5 32.328125 
L 27.484375 33.5 
Q 16.453125 35.6875 11.515625 40.375 
Q 6.59375 45.0625 6.59375 53.421875 
Q 6.59375 63.09375 13.40625 68.65625 
Q 20.21875 74.21875 32.171875 74.21875 
Q 37.3125 74.21875 42.625 73.28125 
Q 47.953125 72.359375 53.515625 70.515625 
" id="DejaVuSans-53"/>
     <path d="M 54.890625 33.015625 
L 54.890625 0 
L 45.90625 0 
L 45.90625 32.71875 
Q 45.90625 40.484375 42.875 44.328125 
Q 39.84375 48.1875 33.796875 48.1875 
Q 26.515625 48.1875 22.3125 43.546875 
Q 18.109375 38.921875 18.109375 30.90625 
L 18.109375 0 
L 9.078125 0 
L 9.078125 75.984375 
L 18.109375 75.984375 
L 18.109375 46.1875 
Q 21.34375 51.125 25.703125 53.5625 
Q 30.078125 56 35.796875 56 
Q 45.21875 56 50.046875 50.171875 
Q 54.890625 44.34375 54.890625 33.015625 
" id="DejaVuSans-68"/>
     <path d="M 9.8125 72.90625 
L 51.703125 72.90625 
L 51.703125 64.59375 
L 19.671875 64.59375 
L 19.671875 43.109375 
L 48.578125 43.109375 
L 48.578125 34.8125 
L 19.671875 34.8125 
L 19.671875 0 
L 9.8125 0 
z
" id="DejaVuSans-46"/>
     <path d="M 11.71875 12.40625 
L 22.015625 12.40625 
L 22.015625 4 
L 14.015625 -11.625 
L 7.71875 -11.625 
L 11.71875 4 
z
" id="DejaVuSans-2c"/>
    </defs>
    <g transform="translate(88.10395 26.133375)scale(0.24 -0.24)">
     <use xlink:href="#DejaVuSans-31"/>
     <use x="63.623047" xlink:href="#DejaVuSans-37"/>
     <use x="127.246094" xlink:href="#DejaVuSans-20"/>
     <use x="159.033203" xlink:href="#DejaVuSans-53"/>
     <use x="222.509766" xlink:href="#DejaVuSans-63"/>
     <use x="277.490234" xlink:href="#DejaVuSans-68"/>
     <use x="340.869141" xlink:href="#DejaVuSans-61"/>
     <use x="402.148438" xlink:href="#DejaVuSans-66"/>
     <use x="437.353516" xlink:href="#DejaVuSans-66"/>
     <use x="472.558594" xlink:href="#DejaVuSans-65"/>
     <use x="534.082031" xlink:href="#DejaVuSans-72"/>
     <use x="575.195312" xlink:href="#DejaVuSans-20"/>
     <use x="606.982422" xlink:href="#DejaVuSans-46"/>
     <use x="664.501953" xlink:href="#DejaVuSans-37"/>
     <use x="728.125" xlink:href="#DejaVuSans-2c"/>
     <use x="759.912109" xlink:href="#DejaVuSans-20"/>
     <use x="791.699219" xlink:href="#DejaVuSans-63"/>
     <use x="846.679688" xlink:href="#DejaVuSans-6f"/>
     <use x="907.861328" xlink:href="#DejaVuSans-6e"/>
     <use x="971.240234" xlink:href="#DejaVuSans-64"/>
     <use x="1034.716797" xlink:href="#DejaVuSans-69"/>
     <use x="1062.5" xlink:href="#DejaVuSans-74"/>
     <use x="1101.708984" xlink:href="#DejaVuSans-69"/>
     <use x="1129.492188" xlink:href="#DejaVuSans-6f"/>
     <use x="1190.673828" xlink:href="#DejaVuSans-6e"/>
     <use x="1254.052734" xlink:href="#DejaVuSans-20"/>
     <use x="1285.839844" xlink:href="#DejaVuSans-31"/>
     <use x="1349.462891" xlink:href="#DejaVuSans-30"/>
    </g>
   </g>
  </g>
 </g>
 <defs>
  <clipPath id="pe4f69ae827">
   <rect height="266.112" width="357.12" x="79.113325" y="32.133375"/>
  </clipPath>
 </defs>
</svg>
