<?xml version="1.0" encoding="utf-8" standalone="no"?>
<!DOCTYPE svg PUBLIC "-//W3C//DTD SVG 1.1//EN"
  "http://www.w3.org/Graphics/SVG/1.1/DTD/svg11.dtd">
<!-- Created with matplotlib (http://matplotlib.org/) -->
<svg height="353pt" version="1.1" viewBox="0 0 438 353" width="438pt" xmlns="http://www.w3.org/2000/svg" xmlns:xlink="http://www.w3.org/1999/xlink">
 <defs>
  <style type="text/css">
*{stroke-linecap:butt;stroke-linejoin:round;}
  </style>
 </defs>
 <g id="figure_1">
  <g id="patch_1">
   <path d="M 0 353.22225 
L 438.62 353.22225 
L 438.62 0 
L 0 0 
z
" style="fill:#ffffff;"/>
  </g>
  <g id="axes_1">
   <g id="patch_2">
    <path d="M 70.8 298.245375 
L 427.92 298.245375 
L 427.92 32.133375 
L 70.8 32.133375 
z
" style="fill:#ffffff;"/>
   </g>
   <g id="matplotlib.axis_1">
    <g id="xtick_1">
     <g id="line2d_1">
      <path clip-path="url(#p18b3cb57a2)" d="M 70.8 298.245375 
L 70.8 32.133375 
" style="fill:none;stroke:#b0b0b0;stroke-linecap:square;stroke-width:0.8;"/>
     </g>
     <g id="line2d_2">
      <defs>
       <path d="M 0 0 
L 0 3.5 
" id="m4f676d29ee" style="stroke:#000000;stroke-width:0.8;"/>
      </defs>
      <g>
       <use style="stroke:#000000;stroke-width:0.8;" x="70.8" xlink:href="#m4f676d29ee" y="298.245375"/>
      </g>
     </g>
     <g id="text_1">
      <!-- 0 -->
      <defs>
       <path d="M 31.78125 66.40625 
Q 24.171875 66.40625 20.328125 58.90625 
Q 16.5 51.421875 16.5 36.375 
Q 16.5 21.390625 20.328125 13.890625 
Q 24.171875 6.390625 31.78125 6.390625 
Q 39.453125 6.390625 43.28125 13.890625 
Q 47.125 21.390625 47.125 36.375 
Q 47.125 51.421875 43.28125 58.90625 
Q 39.453125 66.40625 31.78125 66.40625 
M 31.78125 74.21875 
Q 44.046875 74.21875 50.515625 64.515625 
Q 56.984375 54.828125 56.984375 36.375 
Q 56.984375 17.96875 50.515625 8.265625 
Q 44.046875 -1.421875 31.78125 -1.421875 
Q 19.53125 -1.421875 13.0625 8.265625 
Q 6.59375 17.96875 6.59375 36.375 
Q 6.59375 54.828125 13.0625 64.515625 
Q 19.53125 74.21875 31.78125 74.21875 
" id="DejaVuSans-30"/>
      </defs>
      <g transform="translate(64.4375 320.44225)scale(0.2 -0.2)">
       <use xlink:href="#DejaVuSans-30"/>
      </g>
     </g>
    </g>
    <g id="xtick_2">
     <g id="line2d_3">
      <path clip-path="url(#p18b3cb57a2)" d="M 153.085714 298.245375 
L 153.085714 32.133375 
" style="fill:none;stroke:#b0b0b0;stroke-linecap:square;stroke-width:0.8;"/>
     </g>
     <g id="line2d_4">
      <g>
       <use style="stroke:#000000;stroke-width:0.8;" x="153.085714" xlink:href="#m4f676d29ee" y="298.245375"/>
      </g>
     </g>
     <g id="text_2">
      <!-- 2 -->
      <defs>
       <path d="M 19.1875 8.296875 
L 53.609375 8.296875 
L 53.609375 0 
L 7.328125 0 
L 7.328125 8.296875 
Q 12.9375 14.109375 22.625 23.890625 
Q 32.328125 33.6875 34.8125 36.53125 
Q 39.546875 41.84375 41.421875 45.53125 
Q 43.3125 49.21875 43.3125 52.78125 
Q 43.3125 58.59375 39.234375 62.25 
Q 35.15625 65.921875 28.609375 65.921875 
Q 23.96875 65.921875 18.8125 64.3125 
Q 13.671875 62.703125 7.8125 59.421875 
L 7.8125 69.390625 
Q 13.765625 71.78125 18.9375 73 
Q 24.125 74.21875 28.421875 74.21875 
Q 39.75 74.21875 46.484375 68.546875 
Q 53.21875 62.890625 53.21875 53.421875 
Q 53.21875 48.921875 51.53125 44.890625 
Q 49.859375 40.875 45.40625 35.40625 
Q 44.1875 33.984375 37.640625 27.21875 
Q 31.109375 20.453125 19.1875 8.296875 
" id="DejaVuSans-32"/>
      </defs>
      <g transform="translate(146.723214 320.44225)scale(0.2 -0.2)">
       <use xlink:href="#DejaVuSans-32"/>
      </g>
     </g>
    </g>
    <g id="xtick_3">
     <g id="line2d_5">
      <path clip-path="url(#p18b3cb57a2)" d="M 235.371429 298.245375 
L 235.371429 32.133375 
" style="fill:none;stroke:#b0b0b0;stroke-linecap:square;stroke-width:0.8;"/>
     </g>
     <g id="line2d_6">
      <g>
       <use style="stroke:#000000;stroke-width:0.8;" x="235.371429" xlink:href="#m4f676d29ee" y="298.245375"/>
      </g>
     </g>
     <g id="text_3">
      <!-- 4 -->
      <defs>
       <path d="M 37.796875 64.3125 
L 12.890625 25.390625 
L 37.796875 25.390625 
z
M 35.203125 72.90625 
L 47.609375 72.90625 
L 47.609375 25.390625 
L 58.015625 25.390625 
L 58.015625 17.1875 
L 47.609375 17.1875 
L 47.609375 0 
L 37.796875 0 
L 37.796875 17.1875 
L 4.890625 17.1875 
L 4.890625 26.703125 
z
" id="DejaVuSans-34"/>
      </defs>
      <g transform="translate(229.008929 320.44225)scale(0.2 -0.2)">
       <use xlink:href="#DejaVuSans-34"/>
      </g>
     </g>
    </g>
    <g id="xtick_4">
     <g id="line2d_7">
      <path clip-path="url(#p18b3cb57a2)" d="M 317.657143 298.245375 
L 317.657143 32.133375 
" style="fill:none;stroke:#b0b0b0;stroke-linecap:square;stroke-width:0.8;"/>
     </g>
     <g id="line2d_8">
      <g>
       <use style="stroke:#000000;stroke-width:0.8;" x="317.657143" xlink:href="#m4f676d29ee" y="298.245375"/>
      </g>
     </g>
     <g id="text_4">
      <!-- 6 -->
      <defs>
       <path d="M 33.015625 40.375 
Q 26.375 40.375 22.484375 35.828125 
Q 18.609375 31.296875 18.609375 23.390625 
Q 18.609375 15.53125 22.484375 10.953125 
Q 26.375 6.390625 33.015625 6.390625 
Q 39.65625 6.390625 43.53125 10.953125 
Q 47.40625 15.53125 47.40625 23.390625 
Q 47.40625 31.296875 43.53125 35.828125 
Q 39.65625 40.375 33.015625 40.375 
M 52.59375 71.296875 
L 52.59375 62.3125 
Q 48.875 64.0625 45.09375 64.984375 
Q 41.3125 65.921875 37.59375 65.921875 
Q 27.828125 65.921875 22.671875 59.328125 
Q 17.53125 52.734375 16.796875 39.40625 
Q 19.671875 43.65625 24.015625 45.921875 
Q 28.375 48.1875 33.59375 48.1875 
Q 44.578125 48.1875 50.953125 41.515625 
Q 57.328125 34.859375 57.328125 23.390625 
Q 57.328125 12.15625 50.6875 5.359375 
Q 44.046875 -1.421875 33.015625 -1.421875 
Q 20.359375 -1.421875 13.671875 8.265625 
Q 6.984375 17.96875 6.984375 36.375 
Q 6.984375 53.65625 15.1875 63.9375 
Q 23.390625 74.21875 37.203125 74.21875 
Q 40.921875 74.21875 44.703125 73.484375 
Q 48.484375 72.75 52.59375 71.296875 
" id="DejaVuSans-36"/>
      </defs>
      <g transform="translate(311.294643 320.44225)scale(0.2 -0.2)">
       <use xlink:href="#DejaVuSans-36"/>
      </g>
     </g>
    </g>
    <g id="xtick_5">
     <g id="line2d_9">
      <path clip-path="url(#p18b3cb57a2)" d="M 399.942857 298.245375 
L 399.942857 32.133375 
" style="fill:none;stroke:#b0b0b0;stroke-linecap:square;stroke-width:0.8;"/>
     </g>
     <g id="line2d_10">
      <g>
       <use style="stroke:#000000;stroke-width:0.8;" x="399.942857" xlink:href="#m4f676d29ee" y="298.245375"/>
      </g>
     </g>
     <g id="text_5">
      <!-- 8 -->
      <defs>
       <path d="M 31.78125 34.625 
Q 24.75 34.625 20.71875 30.859375 
Q 16.703125 27.09375 16.703125 20.515625 
Q 16.703125 13.921875 20.71875 10.15625 
Q 24.75 6.390625 31.78125 6.390625 
Q 38.8125 6.390625 42.859375 10.171875 
Q 46.921875 13.96875 46.921875 20.515625 
Q 46.921875 27.09375 42.890625 30.859375 
Q 38.875 34.625 31.78125 34.625 
M 21.921875 38.8125 
Q 15.578125 40.375 12.03125 44.71875 
Q 8.5 49.078125 8.5 55.328125 
Q 8.5 64.0625 14.71875 69.140625 
Q 20.953125 74.21875 31.78125 74.21875 
Q 42.671875 74.21875 48.875 69.140625 
Q 55.078125 64.0625 55.078125 55.328125 
Q 55.078125 49.078125 51.53125 44.71875 
Q 48 40.375 41.703125 38.8125 
Q 48.828125 37.15625 52.796875 32.3125 
Q 56.78125 27.484375 56.78125 20.515625 
Q 56.78125 9.90625 50.3125 4.234375 
Q 43.84375 -1.421875 31.78125 -1.421875 
Q 19.734375 -1.421875 13.25 4.234375 
Q 6.78125 9.90625 6.78125 20.515625 
Q 6.78125 27.484375 10.78125 32.3125 
Q 14.796875 37.15625 21.921875 38.8125 
M 18.3125 54.390625 
Q 18.3125 48.734375 21.84375 45.5625 
Q 25.390625 42.390625 31.78125 42.390625 
Q 38.140625 42.390625 41.71875 45.5625 
Q 45.3125 48.734375 45.3125 54.390625 
Q 45.3125 60.0625 41.71875 63.234375 
Q 38.140625 66.40625 31.78125 66.40625 
Q 25.390625 66.40625 21.84375 63.234375 
Q 18.3125 60.0625 18.3125 54.390625 
" id="DejaVuSans-38"/>
      </defs>
      <g transform="translate(393.580357 320.44225)scale(0.2 -0.2)">
       <use xlink:href="#DejaVuSans-38"/>
      </g>
     </g>
    </g>
    <g id="xtick_6">
     <g id="line2d_11">
      <defs>
       <path d="M 0 0 
L 0 2 
" id="ma6ed60dd5b" style="stroke:#000000;stroke-width:0.6;"/>
      </defs>
      <g>
       <use style="stroke:#000000;stroke-width:0.6;" x="83.185234" xlink:href="#ma6ed60dd5b" y="298.245375"/>
      </g>
     </g>
    </g>
    <g id="xtick_7">
     <g id="line2d_12">
      <g>
       <use style="stroke:#000000;stroke-width:0.6;" x="95.570468" xlink:href="#ma6ed60dd5b" y="298.245375"/>
      </g>
     </g>
    </g>
    <g id="xtick_8">
     <g id="line2d_13">
      <g>
       <use style="stroke:#000000;stroke-width:0.6;" x="102.815366" xlink:href="#ma6ed60dd5b" y="298.245375"/>
      </g>
     </g>
    </g>
    <g id="xtick_9">
     <g id="line2d_14">
      <g>
       <use style="stroke:#000000;stroke-width:0.6;" x="107.955702" xlink:href="#ma6ed60dd5b" y="298.245375"/>
      </g>
     </g>
    </g>
    <g id="xtick_10">
     <g id="line2d_15">
      <g>
       <use style="stroke:#000000;stroke-width:0.6;" x="165.470948" xlink:href="#ma6ed60dd5b" y="298.245375"/>
      </g>
     </g>
    </g>
    <g id="xtick_11">
     <g id="line2d_16">
      <g>
       <use style="stroke:#000000;stroke-width:0.6;" x="177.856183" xlink:href="#ma6ed60dd5b" y="298.245375"/>
      </g>
     </g>
    </g>
    <g id="xtick_12">
     <g id="line2d_17">
      <g>
       <use style="stroke:#000000;stroke-width:0.6;" x="185.10108" xlink:href="#ma6ed60dd5b" y="298.245375"/>
      </g>
     </g>
    </g>
    <g id="xtick_13">
     <g id="line2d_18">
      <g>
       <use style="stroke:#000000;stroke-width:0.6;" x="190.241417" xlink:href="#ma6ed60dd5b" y="298.245375"/>
      </g>
     </g>
    </g>
    <g id="xtick_14">
     <g id="line2d_19">
      <g>
       <use style="stroke:#000000;stroke-width:0.6;" x="247.756663" xlink:href="#ma6ed60dd5b" y="298.245375"/>
      </g>
     </g>
    </g>
    <g id="xtick_15">
     <g id="line2d_20">
      <g>
       <use style="stroke:#000000;stroke-width:0.6;" x="260.141897" xlink:href="#ma6ed60dd5b" y="298.245375"/>
      </g>
     </g>
    </g>
    <g id="xtick_16">
     <g id="line2d_21">
      <g>
       <use style="stroke:#000000;stroke-width:0.6;" x="267.386794" xlink:href="#ma6ed60dd5b" y="298.245375"/>
      </g>
     </g>
    </g>
    <g id="xtick_17">
     <g id="line2d_22">
      <g>
       <use style="stroke:#000000;stroke-width:0.6;" x="272.527131" xlink:href="#ma6ed60dd5b" y="298.245375"/>
      </g>
     </g>
    </g>
    <g id="xtick_18">
     <g id="line2d_23">
      <g>
       <use style="stroke:#000000;stroke-width:0.6;" x="330.042377" xlink:href="#ma6ed60dd5b" y="298.245375"/>
      </g>
     </g>
    </g>
    <g id="xtick_19">
     <g id="line2d_24">
      <g>
       <use style="stroke:#000000;stroke-width:0.6;" x="342.427611" xlink:href="#ma6ed60dd5b" y="298.245375"/>
      </g>
     </g>
    </g>
    <g id="xtick_20">
     <g id="line2d_25">
      <g>
       <use style="stroke:#000000;stroke-width:0.6;" x="349.672509" xlink:href="#ma6ed60dd5b" y="298.245375"/>
      </g>
     </g>
    </g>
    <g id="xtick_21">
     <g id="line2d_26">
      <g>
       <use style="stroke:#000000;stroke-width:0.6;" x="354.812845" xlink:href="#ma6ed60dd5b" y="298.245375"/>
      </g>
     </g>
    </g>
    <g id="xtick_22">
     <g id="line2d_27">
      <g>
       <use style="stroke:#000000;stroke-width:0.6;" x="412.328091" xlink:href="#ma6ed60dd5b" y="298.245375"/>
      </g>
     </g>
    </g>
    <g id="xtick_23">
     <g id="line2d_28">
      <g>
       <use style="stroke:#000000;stroke-width:0.6;" x="424.713325" xlink:href="#ma6ed60dd5b" y="298.245375"/>
      </g>
     </g>
    </g>
    <g id="text_6">
     <!-- log10 of (# f-evals / dimension) -->
     <defs>
      <path d="M 9.421875 75.984375 
L 18.40625 75.984375 
L 18.40625 0 
L 9.421875 0 
z
" id="DejaVuSans-6c"/>
      <path d="M 30.609375 48.390625 
Q 23.390625 48.390625 19.1875 42.75 
Q 14.984375 37.109375 14.984375 27.296875 
Q 14.984375 17.484375 19.15625 11.84375 
Q 23.34375 6.203125 30.609375 6.203125 
Q 37.796875 6.203125 41.984375 11.859375 
Q 46.1875 17.53125 46.1875 27.296875 
Q 46.1875 37.015625 41.984375 42.703125 
Q 37.796875 48.390625 30.609375 48.390625 
M 30.609375 56 
Q 42.328125 56 49.015625 48.375 
Q 55.71875 40.765625 55.71875 27.296875 
Q 55.71875 13.875 49.015625 6.21875 
Q 42.328125 -1.421875 30.609375 -1.421875 
Q 18.84375 -1.421875 12.171875 6.21875 
Q 5.515625 13.875 5.515625 27.296875 
Q 5.515625 40.765625 12.171875 48.375 
Q 18.84375 56 30.609375 56 
" id="DejaVuSans-6f"/>
      <path d="M 45.40625 27.984375 
Q 45.40625 37.75 41.375 43.109375 
Q 37.359375 48.484375 30.078125 48.484375 
Q 22.859375 48.484375 18.828125 43.109375 
Q 14.796875 37.75 14.796875 27.984375 
Q 14.796875 18.265625 18.828125 12.890625 
Q 22.859375 7.515625 30.078125 7.515625 
Q 37.359375 7.515625 41.375 12.890625 
Q 45.40625 18.265625 45.40625 27.984375 
M 54.390625 6.78125 
Q 54.390625 -7.171875 48.1875 -13.984375 
Q 42 -20.796875 29.203125 -20.796875 
Q 24.46875 -20.796875 20.265625 -20.09375 
Q 16.0625 -19.390625 12.109375 -17.921875 
L 12.109375 -9.1875 
Q 16.0625 -11.328125 19.921875 -12.34375 
Q 23.78125 -13.375 27.78125 -13.375 
Q 36.625 -13.375 41.015625 -8.765625 
Q 45.40625 -4.15625 45.40625 5.171875 
L 45.40625 9.625 
Q 42.625 4.78125 38.28125 2.390625 
Q 33.9375 0 27.875 0 
Q 17.828125 0 11.671875 7.65625 
Q 5.515625 15.328125 5.515625 27.984375 
Q 5.515625 40.671875 11.671875 48.328125 
Q 17.828125 56 27.875 56 
Q 33.9375 56 38.28125 53.609375 
Q 42.625 51.21875 45.40625 46.390625 
L 45.40625 54.6875 
L 54.390625 54.6875 
z
" id="DejaVuSans-67"/>
      <path d="M 12.40625 8.296875 
L 28.515625 8.296875 
L 28.515625 63.921875 
L 10.984375 60.40625 
L 10.984375 69.390625 
L 28.421875 72.90625 
L 38.28125 72.90625 
L 38.28125 8.296875 
L 54.390625 8.296875 
L 54.390625 0 
L 12.40625 0 
z
" id="DejaVuSans-31"/>
      <path id="DejaVuSans-20"/>
      <path d="M 37.109375 75.984375 
L 37.109375 68.5 
L 28.515625 68.5 
Q 23.6875 68.5 21.796875 66.546875 
Q 19.921875 64.59375 19.921875 59.515625 
L 19.921875 54.6875 
L 34.71875 54.6875 
L 34.71875 47.703125 
L 19.921875 47.703125 
L 19.921875 0 
L 10.890625 0 
L 10.890625 47.703125 
L 2.296875 47.703125 
L 2.296875 54.6875 
L 10.890625 54.6875 
L 10.890625 58.5 
Q 10.890625 67.625 15.140625 71.796875 
Q 19.390625 75.984375 28.609375 75.984375 
z
" id="DejaVuSans-66"/>
      <path d="M 31 75.875 
Q 24.46875 64.65625 21.28125 53.65625 
Q 18.109375 42.671875 18.109375 31.390625 
Q 18.109375 20.125 21.3125 9.0625 
Q 24.515625 -2 31 -13.1875 
L 23.1875 -13.1875 
Q 15.875 -1.703125 12.234375 9.375 
Q 8.59375 20.453125 8.59375 31.390625 
Q 8.59375 42.28125 12.203125 53.3125 
Q 15.828125 64.359375 23.1875 75.875 
z
" id="DejaVuSans-28"/>
      <path d="M 51.125 44 
L 36.921875 44 
L 32.8125 27.6875 
L 47.125 27.6875 
z
M 43.796875 71.78125 
L 38.71875 51.515625 
L 52.984375 51.515625 
L 58.109375 71.78125 
L 65.921875 71.78125 
L 60.890625 51.515625 
L 76.125 51.515625 
L 76.125 44 
L 58.984375 44 
L 54.984375 27.6875 
L 70.515625 27.6875 
L 70.515625 20.21875 
L 53.078125 20.21875 
L 48 0 
L 40.1875 0 
L 45.21875 20.21875 
L 30.90625 20.21875 
L 25.875 0 
L 18.015625 0 
L 23.09375 20.21875 
L 7.71875 20.21875 
L 7.71875 27.6875 
L 24.90625 27.6875 
L 29 44 
L 13.28125 44 
L 13.28125 51.515625 
L 30.90625 51.515625 
L 35.890625 71.78125 
z
" id="DejaVuSans-23"/>
      <path d="M 4.890625 31.390625 
L 31.203125 31.390625 
L 31.203125 23.390625 
L 4.890625 23.390625 
z
" id="DejaVuSans-2d"/>
      <path d="M 56.203125 29.59375 
L 56.203125 25.203125 
L 14.890625 25.203125 
Q 15.484375 15.921875 20.484375 11.0625 
Q 25.484375 6.203125 34.421875 6.203125 
Q 39.59375 6.203125 44.453125 7.46875 
Q 49.3125 8.734375 54.109375 11.28125 
L 54.109375 2.78125 
Q 49.265625 0.734375 44.1875 -0.34375 
Q 39.109375 -1.421875 33.890625 -1.421875 
Q 20.796875 -1.421875 13.15625 6.1875 
Q 5.515625 13.8125 5.515625 26.8125 
Q 5.515625 40.234375 12.765625 48.109375 
Q 20.015625 56 32.328125 56 
Q 43.359375 56 49.78125 48.890625 
Q 56.203125 41.796875 56.203125 29.59375 
M 47.21875 32.234375 
Q 47.125 39.59375 43.09375 43.984375 
Q 39.0625 48.390625 32.421875 48.390625 
Q 24.90625 48.390625 20.390625 44.140625 
Q 15.875 39.890625 15.1875 32.171875 
z
" id="DejaVuSans-65"/>
      <path d="M 2.984375 54.6875 
L 12.5 54.6875 
L 29.59375 8.796875 
L 46.6875 54.6875 
L 56.203125 54.6875 
L 35.6875 0 
L 23.484375 0 
z
" id="DejaVuSans-76"/>
      <path d="M 34.28125 27.484375 
Q 23.390625 27.484375 19.1875 25 
Q 14.984375 22.515625 14.984375 16.5 
Q 14.984375 11.71875 18.140625 8.90625 
Q 21.296875 6.109375 26.703125 6.109375 
Q 34.1875 6.109375 38.703125 11.40625 
Q 43.21875 16.703125 43.21875 25.484375 
L 43.21875 27.484375 
z
M 52.203125 31.203125 
L 52.203125 0 
L 43.21875 0 
L 43.21875 8.296875 
Q 40.140625 3.328125 35.546875 0.953125 
Q 30.953125 -1.421875 24.3125 -1.421875 
Q 15.921875 -1.421875 10.953125 3.296875 
Q 6 8.015625 6 15.921875 
Q 6 25.140625 12.171875 29.828125 
Q 18.359375 34.515625 30.609375 34.515625 
L 43.21875 34.515625 
L 43.21875 35.40625 
Q 43.21875 41.609375 39.140625 45 
Q 35.0625 48.390625 27.6875 48.390625 
Q 23 48.390625 18.546875 47.265625 
Q 14.109375 46.140625 10.015625 43.890625 
L 10.015625 52.203125 
Q 14.9375 54.109375 19.578125 55.046875 
Q 24.21875 56 28.609375 56 
Q 40.484375 56 46.34375 49.84375 
Q 52.203125 43.703125 52.203125 31.203125 
" id="DejaVuSans-61"/>
      <path d="M 44.28125 53.078125 
L 44.28125 44.578125 
Q 40.484375 46.53125 36.375 47.5 
Q 32.28125 48.484375 27.875 48.484375 
Q 21.1875 48.484375 17.84375 46.4375 
Q 14.5 44.390625 14.5 40.28125 
Q 14.5 37.15625 16.890625 35.375 
Q 19.28125 33.59375 26.515625 31.984375 
L 29.59375 31.296875 
Q 39.15625 29.25 43.1875 25.515625 
Q 47.21875 21.78125 47.21875 15.09375 
Q 47.21875 7.46875 41.1875 3.015625 
Q 35.15625 -1.421875 24.609375 -1.421875 
Q 20.21875 -1.421875 15.453125 -0.5625 
Q 10.6875 0.296875 5.421875 2 
L 5.421875 11.28125 
Q 10.40625 8.6875 15.234375 7.390625 
Q 20.0625 6.109375 24.8125 6.109375 
Q 31.15625 6.109375 34.5625 8.28125 
Q 37.984375 10.453125 37.984375 14.40625 
Q 37.984375 18.0625 35.515625 20.015625 
Q 33.0625 21.96875 24.703125 23.78125 
L 21.578125 24.515625 
Q 13.234375 26.265625 9.515625 29.90625 
Q 5.8125 33.546875 5.8125 39.890625 
Q 5.8125 47.609375 11.28125 51.796875 
Q 16.75 56 26.8125 56 
Q 31.78125 56 36.171875 55.265625 
Q 40.578125 54.546875 44.28125 53.078125 
" id="DejaVuSans-73"/>
      <path d="M 25.390625 72.90625 
L 33.6875 72.90625 
L 8.296875 -9.28125 
L 0 -9.28125 
z
" id="DejaVuSans-2f"/>
      <path d="M 45.40625 46.390625 
L 45.40625 75.984375 
L 54.390625 75.984375 
L 54.390625 0 
L 45.40625 0 
L 45.40625 8.203125 
Q 42.578125 3.328125 38.25 0.953125 
Q 33.9375 -1.421875 27.875 -1.421875 
Q 17.96875 -1.421875 11.734375 6.484375 
Q 5.515625 14.40625 5.515625 27.296875 
Q 5.515625 40.1875 11.734375 48.09375 
Q 17.96875 56 27.875 56 
Q 33.9375 56 38.25 53.625 
Q 42.578125 51.265625 45.40625 46.390625 
M 14.796875 27.296875 
Q 14.796875 17.390625 18.875 11.75 
Q 22.953125 6.109375 30.078125 6.109375 
Q 37.203125 6.109375 41.296875 11.75 
Q 45.40625 17.390625 45.40625 27.296875 
Q 45.40625 37.203125 41.296875 42.84375 
Q 37.203125 48.484375 30.078125 48.484375 
Q 22.953125 48.484375 18.875 42.84375 
Q 14.796875 37.203125 14.796875 27.296875 
" id="DejaVuSans-64"/>
      <path d="M 9.421875 54.6875 
L 18.40625 54.6875 
L 18.40625 0 
L 9.421875 0 
z
M 9.421875 75.984375 
L 18.40625 75.984375 
L 18.40625 64.59375 
L 9.421875 64.59375 
z
" id="DejaVuSans-69"/>
      <path d="M 52 44.1875 
Q 55.375 50.25 60.0625 53.125 
Q 64.75 56 71.09375 56 
Q 79.640625 56 84.28125 50.015625 
Q 88.921875 44.046875 88.921875 33.015625 
L 88.921875 0 
L 79.890625 0 
L 79.890625 32.71875 
Q 79.890625 40.578125 77.09375 44.375 
Q 74.3125 48.1875 68.609375 48.1875 
Q 61.625 48.1875 57.5625 43.546875 
Q 53.515625 38.921875 53.515625 30.90625 
L 53.515625 0 
L 44.484375 0 
L 44.484375 32.71875 
Q 44.484375 40.625 41.703125 44.40625 
Q 38.921875 48.1875 33.109375 48.1875 
Q 26.21875 48.1875 22.15625 43.53125 
Q 18.109375 38.875 18.109375 30.90625 
L 18.109375 0 
L 9.078125 0 
L 9.078125 54.6875 
L 18.109375 54.6875 
L 18.109375 46.1875 
Q 21.1875 51.21875 25.484375 53.609375 
Q 29.78125 56 35.6875 56 
Q 41.65625 56 45.828125 52.96875 
Q 50 49.953125 52 44.1875 
" id="DejaVuSans-6d"/>
      <path d="M 54.890625 33.015625 
L 54.890625 0 
L 45.90625 0 
L 45.90625 32.71875 
Q 45.90625 40.484375 42.875 44.328125 
Q 39.84375 48.1875 33.796875 48.1875 
Q 26.515625 48.1875 22.3125 43.546875 
Q 18.109375 38.921875 18.109375 30.90625 
L 18.109375 0 
L 9.078125 0 
L 9.078125 54.6875 
L 18.109375 54.6875 
L 18.109375 46.1875 
Q 21.34375 51.125 25.703125 53.5625 
Q 30.078125 56 35.796875 56 
Q 45.21875 56 50.046875 50.171875 
Q 54.890625 44.34375 54.890625 33.015625 
" id="DejaVuSans-6e"/>
      <path d="M 8.015625 75.875 
L 15.828125 75.875 
Q 23.140625 64.359375 26.78125 53.3125 
Q 30.421875 42.28125 30.421875 31.390625 
Q 30.421875 20.453125 26.78125 9.375 
Q 23.140625 -1.703125 15.828125 -13.1875 
L 8.015625 -13.1875 
Q 14.5 -2 17.703125 9.0625 
Q 20.90625 20.125 20.90625 31.390625 
Q 20.90625 42.671875 17.703125 53.65625 
Q 14.5 64.65625 8.015625 75.875 
" id="DejaVuSans-29"/>
     </defs>
     <g transform="translate(107.015156 342.278812)scale(0.18 -0.18)">
      <use xlink:href="#DejaVuSans-6c"/>
      <use x="27.783203" xlink:href="#DejaVuSans-6f"/>
      <use x="88.964844" xlink:href="#DejaVuSans-67"/>
      <use x="152.441406" xlink:href="#DejaVuSans-31"/>
      <use x="216.064453" xlink:href="#DejaVuSans-30"/>
      <use x="279.6875" xlink:href="#DejaVuSans-20"/>
      <use x="311.474609" xlink:href="#DejaVuSans-6f"/>
      <use x="372.65625" xlink:href="#DejaVuSans-66"/>
      <use x="407.861328" xlink:href="#DejaVuSans-20"/>
      <use x="439.648438" xlink:href="#DejaVuSans-28"/>
      <use x="478.662109" xlink:href="#DejaVuSans-23"/>
      <use x="562.451172" xlink:href="#DejaVuSans-20"/>
      <use x="594.238281" xlink:href="#DejaVuSans-66"/>
      <use x="629.365234" xlink:href="#DejaVuSans-2d"/>
      <use x="665.449219" xlink:href="#DejaVuSans-65"/>
      <use x="726.972656" xlink:href="#DejaVuSans-76"/>
      <use x="786.152344" xlink:href="#DejaVuSans-61"/>
      <use x="847.431641" xlink:href="#DejaVuSans-6c"/>
      <use x="875.214844" xlink:href="#DejaVuSans-73"/>
      <use x="927.314453" xlink:href="#DejaVuSans-20"/>
      <use x="959.101562" xlink:href="#DejaVuSans-2f"/>
      <use x="992.792969" xlink:href="#DejaVuSans-20"/>
      <use x="1024.580078" xlink:href="#DejaVuSans-64"/>
      <use x="1088.056641" xlink:href="#DejaVuSans-69"/>
      <use x="1115.839844" xlink:href="#DejaVuSans-6d"/>
      <use x="1213.251953" xlink:href="#DejaVuSans-65"/>
      <use x="1274.775391" xlink:href="#DejaVuSans-6e"/>
      <use x="1338.154297" xlink:href="#DejaVuSans-73"/>
      <use x="1390.253906" xlink:href="#DejaVuSans-69"/>
      <use x="1418.037109" xlink:href="#DejaVuSans-6f"/>
      <use x="1479.21875" xlink:href="#DejaVuSans-6e"/>
      <use x="1542.597656" xlink:href="#DejaVuSans-29"/>
     </g>
    </g>
   </g>
   <g id="matplotlib.axis_2">
    <g id="ytick_1">
     <g id="line2d_29">
      <path clip-path="url(#p18b3cb57a2)" d="M 70.8 298.245375 
L 427.92 298.245375 
" style="fill:none;stroke:#b0b0b0;stroke-linecap:square;stroke-width:0.8;"/>
     </g>
     <g id="line2d_30">
      <defs>
       <path d="M 0 0 
L -3.5 0 
" id="mfd0580bbad" style="stroke:#000000;stroke-width:0.8;"/>
      </defs>
      <g>
       <use style="stroke:#000000;stroke-width:0.8;" x="70.8" xlink:href="#mfd0580bbad" y="298.245375"/>
      </g>
     </g>
     <g id="text_7">
      <!-- 0.0 -->
      <defs>
       <path d="M 10.6875 12.40625 
L 21 12.40625 
L 21 0 
L 10.6875 0 
z
" id="DejaVuSans-2e"/>
      </defs>
      <g transform="translate(31.99375 305.843812)scale(0.2 -0.2)">
       <use xlink:href="#DejaVuSans-30"/>
       <use x="63.623047" xlink:href="#DejaVuSans-2e"/>
       <use x="95.410156" xlink:href="#DejaVuSans-30"/>
      </g>
     </g>
    </g>
    <g id="ytick_2">
     <g id="line2d_31">
      <path clip-path="url(#p18b3cb57a2)" d="M 70.8 245.549929 
L 427.92 245.549929 
" style="fill:none;stroke:#b0b0b0;stroke-linecap:square;stroke-width:0.8;"/>
     </g>
     <g id="line2d_32">
      <g>
       <use style="stroke:#000000;stroke-width:0.8;" x="70.8" xlink:href="#mfd0580bbad" y="245.549929"/>
      </g>
     </g>
     <g id="text_8">
      <!-- 0.2 -->
      <g transform="translate(31.99375 253.148367)scale(0.2 -0.2)">
       <use xlink:href="#DejaVuSans-30"/>
       <use x="63.623047" xlink:href="#DejaVuSans-2e"/>
       <use x="95.410156" xlink:href="#DejaVuSans-32"/>
      </g>
     </g>
    </g>
    <g id="ytick_3">
     <g id="line2d_33">
      <path clip-path="url(#p18b3cb57a2)" d="M 70.8 192.854484 
L 427.92 192.854484 
" style="fill:none;stroke:#b0b0b0;stroke-linecap:square;stroke-width:0.8;"/>
     </g>
     <g id="line2d_34">
      <g>
       <use style="stroke:#000000;stroke-width:0.8;" x="70.8" xlink:href="#mfd0580bbad" y="192.854484"/>
      </g>
     </g>
     <g id="text_9">
      <!-- 0.4 -->
      <g transform="translate(31.99375 200.452921)scale(0.2 -0.2)">
       <use xlink:href="#DejaVuSans-30"/>
       <use x="63.623047" xlink:href="#DejaVuSans-2e"/>
       <use x="95.410156" xlink:href="#DejaVuSans-34"/>
      </g>
     </g>
    </g>
    <g id="ytick_4">
     <g id="line2d_35">
      <path clip-path="url(#p18b3cb57a2)" d="M 70.8 140.159038 
L 427.92 140.159038 
" style="fill:none;stroke:#b0b0b0;stroke-linecap:square;stroke-width:0.8;"/>
     </g>
     <g id="line2d_36">
      <g>
       <use style="stroke:#000000;stroke-width:0.8;" x="70.8" xlink:href="#mfd0580bbad" y="140.159038"/>
      </g>
     </g>
     <g id="text_10">
      <!-- 0.6 -->
      <g transform="translate(31.99375 147.757476)scale(0.2 -0.2)">
       <use xlink:href="#DejaVuSans-30"/>
       <use x="63.623047" xlink:href="#DejaVuSans-2e"/>
       <use x="95.410156" xlink:href="#DejaVuSans-36"/>
      </g>
     </g>
    </g>
    <g id="ytick_5">
     <g id="line2d_37">
      <path clip-path="url(#p18b3cb57a2)" d="M 70.8 87.463593 
L 427.92 87.463593 
" style="fill:none;stroke:#b0b0b0;stroke-linecap:square;stroke-width:0.8;"/>
     </g>
     <g id="line2d_38">
      <g>
       <use style="stroke:#000000;stroke-width:0.8;" x="70.8" xlink:href="#mfd0580bbad" y="87.463593"/>
      </g>
     </g>
     <g id="text_11">
      <!-- 0.8 -->
      <g transform="translate(31.99375 95.06203)scale(0.2 -0.2)">
       <use xlink:href="#DejaVuSans-30"/>
       <use x="63.623047" xlink:href="#DejaVuSans-2e"/>
       <use x="95.410156" xlink:href="#DejaVuSans-38"/>
      </g>
     </g>
    </g>
    <g id="ytick_6">
     <g id="line2d_39">
      <path clip-path="url(#p18b3cb57a2)" d="M 70.8 34.768147 
L 427.92 34.768147 
" style="fill:none;stroke:#b0b0b0;stroke-linecap:square;stroke-width:0.8;"/>
     </g>
     <g id="line2d_40">
      <g>
       <use style="stroke:#000000;stroke-width:0.8;" x="70.8" xlink:href="#mfd0580bbad" y="34.768147"/>
      </g>
     </g>
     <g id="text_12">
      <!-- 1.0 -->
      <g transform="translate(31.99375 42.366585)scale(0.2 -0.2)">
       <use xlink:href="#DejaVuSans-31"/>
       <use x="63.623047" xlink:href="#DejaVuSans-2e"/>
       <use x="95.410156" xlink:href="#DejaVuSans-30"/>
      </g>
     </g>
    </g>
    <g id="text_13">
     <!-- Proportion of function+target pairs -->
     <defs>
      <path d="M 19.671875 64.796875 
L 19.671875 37.40625 
L 32.078125 37.40625 
Q 38.96875 37.40625 42.71875 40.96875 
Q 46.484375 44.53125 46.484375 51.125 
Q 46.484375 57.671875 42.71875 61.234375 
Q 38.96875 64.796875 32.078125 64.796875 
z
M 9.8125 72.90625 
L 32.078125 72.90625 
Q 44.34375 72.90625 50.609375 67.359375 
Q 56.890625 61.8125 56.890625 51.125 
Q 56.890625 40.328125 50.609375 34.8125 
Q 44.34375 29.296875 32.078125 29.296875 
L 19.671875 29.296875 
L 19.671875 0 
L 9.8125 0 
z
" id="DejaVuSans-50"/>
      <path d="M 41.109375 46.296875 
Q 39.59375 47.171875 37.8125 47.578125 
Q 36.03125 48 33.890625 48 
Q 26.265625 48 22.1875 43.046875 
Q 18.109375 38.09375 18.109375 28.8125 
L 18.109375 0 
L 9.078125 0 
L 9.078125 54.6875 
L 18.109375 54.6875 
L 18.109375 46.1875 
Q 20.953125 51.171875 25.484375 53.578125 
Q 30.03125 56 36.53125 56 
Q 37.453125 56 38.578125 55.875 
Q 39.703125 55.765625 41.0625 55.515625 
z
" id="DejaVuSans-72"/>
      <path d="M 18.109375 8.203125 
L 18.109375 -20.796875 
L 9.078125 -20.796875 
L 9.078125 54.6875 
L 18.109375 54.6875 
L 18.109375 46.390625 
Q 20.953125 51.265625 25.265625 53.625 
Q 29.59375 56 35.59375 56 
Q 45.5625 56 51.78125 48.09375 
Q 58.015625 40.1875 58.015625 27.296875 
Q 58.015625 14.40625 51.78125 6.484375 
Q 45.5625 -1.421875 35.59375 -1.421875 
Q 29.59375 -1.421875 25.265625 0.953125 
Q 20.953125 3.328125 18.109375 8.203125 
M 48.6875 27.296875 
Q 48.6875 37.203125 44.609375 42.84375 
Q 40.53125 48.484375 33.40625 48.484375 
Q 26.265625 48.484375 22.1875 42.84375 
Q 18.109375 37.203125 18.109375 27.296875 
Q 18.109375 17.390625 22.1875 11.75 
Q 26.265625 6.109375 33.40625 6.109375 
Q 40.53125 6.109375 44.609375 11.75 
Q 48.6875 17.390625 48.6875 27.296875 
" id="DejaVuSans-70"/>
      <path d="M 18.3125 70.21875 
L 18.3125 54.6875 
L 36.8125 54.6875 
L 36.8125 47.703125 
L 18.3125 47.703125 
L 18.3125 18.015625 
Q 18.3125 11.328125 20.140625 9.421875 
Q 21.96875 7.515625 27.59375 7.515625 
L 36.8125 7.515625 
L 36.8125 0 
L 27.59375 0 
Q 17.1875 0 13.234375 3.875 
Q 9.28125 7.765625 9.28125 18.015625 
L 9.28125 47.703125 
L 2.6875 47.703125 
L 2.6875 54.6875 
L 9.28125 54.6875 
L 9.28125 70.21875 
z
" id="DejaVuSans-74"/>
      <path d="M 8.5 21.578125 
L 8.5 54.6875 
L 17.484375 54.6875 
L 17.484375 21.921875 
Q 17.484375 14.15625 20.5 10.265625 
Q 23.53125 6.390625 29.59375 6.390625 
Q 36.859375 6.390625 41.078125 11.03125 
Q 45.3125 15.671875 45.3125 23.6875 
L 45.3125 54.6875 
L 54.296875 54.6875 
L 54.296875 0 
L 45.3125 0 
L 45.3125 8.40625 
Q 42.046875 3.421875 37.71875 1 
Q 33.40625 -1.421875 27.6875 -1.421875 
Q 18.265625 -1.421875 13.375 4.4375 
Q 8.5 10.296875 8.5 21.578125 
M 31.109375 56 
z
" id="DejaVuSans-75"/>
      <path d="M 48.78125 52.59375 
L 48.78125 44.1875 
Q 44.96875 46.296875 41.140625 47.34375 
Q 37.3125 48.390625 33.40625 48.390625 
Q 24.65625 48.390625 19.8125 42.84375 
Q 14.984375 37.3125 14.984375 27.296875 
Q 14.984375 17.28125 19.8125 11.734375 
Q 24.65625 6.203125 33.40625 6.203125 
Q 37.3125 6.203125 41.140625 7.25 
Q 44.96875 8.296875 48.78125 10.40625 
L 48.78125 2.09375 
Q 45.015625 0.34375 40.984375 -0.53125 
Q 36.96875 -1.421875 32.421875 -1.421875 
Q 20.0625 -1.421875 12.78125 6.34375 
Q 5.515625 14.109375 5.515625 27.296875 
Q 5.515625 40.671875 12.859375 48.328125 
Q 20.21875 56 33.015625 56 
Q 37.15625 56 41.109375 55.140625 
Q 45.0625 54.296875 48.78125 52.59375 
" id="DejaVuSans-63"/>
      <path d="M 46 62.703125 
L 46 35.5 
L 73.1875 35.5 
L 73.1875 27.203125 
L 46 27.203125 
L 46 0 
L 37.796875 0 
L 37.796875 27.203125 
L 10.59375 27.203125 
L 10.59375 35.5 
L 37.796875 35.5 
L 37.796875 62.703125 
z
" id="DejaVuSans-2b"/>
     </defs>
     <g transform="translate(24.250312 323.17875)rotate(-90)scale(0.18 -0.18)">
      <use xlink:href="#DejaVuSans-50"/>
      <use x="60.287109" xlink:href="#DejaVuSans-72"/>
      <use x="101.369141" xlink:href="#DejaVuSans-6f"/>
      <use x="162.550781" xlink:href="#DejaVuSans-70"/>
      <use x="226.027344" xlink:href="#DejaVuSans-6f"/>
      <use x="287.208984" xlink:href="#DejaVuSans-72"/>
      <use x="328.322266" xlink:href="#DejaVuSans-74"/>
      <use x="367.53125" xlink:href="#DejaVuSans-69"/>
      <use x="395.314453" xlink:href="#DejaVuSans-6f"/>
      <use x="456.496094" xlink:href="#DejaVuSans-6e"/>
      <use x="519.875" xlink:href="#DejaVuSans-20"/>
      <use x="551.662109" xlink:href="#DejaVuSans-6f"/>
      <use x="612.84375" xlink:href="#DejaVuSans-66"/>
      <use x="648.048828" xlink:href="#DejaVuSans-20"/>
      <use x="679.835938" xlink:href="#DejaVuSans-66"/>
      <use x="715.041016" xlink:href="#DejaVuSans-75"/>
      <use x="778.419922" xlink:href="#DejaVuSans-6e"/>
      <use x="841.798828" xlink:href="#DejaVuSans-63"/>
      <use x="896.779297" xlink:href="#DejaVuSans-74"/>
      <use x="935.988281" xlink:href="#DejaVuSans-69"/>
      <use x="963.771484" xlink:href="#DejaVuSans-6f"/>
      <use x="1024.953125" xlink:href="#DejaVuSans-6e"/>
      <use x="1088.332031" xlink:href="#DejaVuSans-2b"/>
      <use x="1172.121094" xlink:href="#DejaVuSans-74"/>
      <use x="1211.330078" xlink:href="#DejaVuSans-61"/>
      <use x="1272.609375" xlink:href="#DejaVuSans-72"/>
      <use x="1313.707031" xlink:href="#DejaVuSans-67"/>
      <use x="1377.183594" xlink:href="#DejaVuSans-65"/>
      <use x="1438.707031" xlink:href="#DejaVuSans-74"/>
      <use x="1477.916016" xlink:href="#DejaVuSans-20"/>
      <use x="1509.703125" xlink:href="#DejaVuSans-70"/>
      <use x="1573.179688" xlink:href="#DejaVuSans-61"/>
      <use x="1634.458984" xlink:href="#DejaVuSans-69"/>
      <use x="1662.242188" xlink:href="#DejaVuSans-72"/>
      <use x="1703.355469" xlink:href="#DejaVuSans-73"/>
     </g>
    </g>
   </g>
   <g id="line2d_41">
    <defs>
     <path d="M 0 1.5 
C 0.397805 1.5 0.77937 1.341951 1.06066 1.06066 
C 1.341951 0.77937 1.5 0.397805 1.5 0 
C 1.5 -0.397805 1.341951 -0.77937 1.06066 -1.06066 
C 0.77937 -1.341951 0.397805 -1.5 0 -1.5 
C -0.397805 -1.5 -0.77937 -1.341951 -1.06066 -1.06066 
C -1.341951 -0.77937 -1.5 -0.397805 -1.5 0 
C -1.5 0.397805 -1.341951 0.77937 -1.06066 1.06066 
C -0.77937 1.341951 -0.397805 1.5 0 1.5 
z
" id="mecd96591bf" style="stroke:#000080;"/>
    </defs>
    <g>
     <use style="fill:#000080;stroke:#000080;" x="243.889712" xlink:href="#mecd96591bf" y="194.920972"/>
     <use style="fill:#000080;stroke:#000080;" x="243.889712" xlink:href="#mecd96591bf" y="194.920972"/>
    </g>
   </g>
   <g id="line2d_42">
    <path d="M 51.169868 298.245375 
L 51.169868 296.178887 
L 97.000681 296.178887 
L 97.000681 295.145643 
L 104.69796 295.145643 
L 104.69796 294.629021 
L 110.060263 294.629021 
L 110.060263 294.112399 
L 114.697239 294.112399 
L 114.697239 292.045911 
L 116.166679 292.045911 
L 116.166679 291.012667 
L 117.524404 291.012667 
L 117.524404 289.979423 
L 118.786207 289.979423 
L 118.786207 283.263337 
L 119.580476 283.263337 
L 119.580476 282.746715 
L 120.340936 282.746715 
L 120.340936 281.713471 
L 121.771149 281.713471 
L 121.771149 281.196849 
L 122.445497 281.196849 
L 122.445497 279.646982 
L 122.773362 279.646982 
L 122.773362 279.13036 
L 123.095319 279.13036 
L 123.095319 278.613738 
L 123.722334 278.613738 
L 123.722334 277.580494 
L 124.02778 277.580494 
L 124.02778 274.997384 
L 125.19988 274.997384 
L 125.19988 273.447518 
L 125.481273 273.447518 
L 125.481273 272.414274 
L 126.564521 272.414274 
L 126.564521 265.698188 
L 128.315246 265.698188 
L 128.315246 263.6317 
L 130.126224 263.6317 
L 130.126224 261.565212 
L 130.340216 261.565212 
L 130.340216 260.015346 
L 130.967232 260.015346 
L 130.967232 259.498724 
L 132.158881 259.498724 
L 132.158881 255.88237 
L 132.726171 255.88237 
L 132.726171 254.849126 
L 133.633376 254.849126 
L 133.633376 252.266016 
L 133.983743 252.266016 
L 133.983743 251.749394 
L 134.327371 251.749394 
L 134.327371 251.232772 
L 135.639381 251.232772 
L 135.639381 250.71615 
L 138.005559 250.71615 
L 138.005559 249.166284 
L 139.210608 249.166284 
L 139.210608 248.649662 
L 140.460636 248.649662 
L 140.460636 248.13304 
L 141.741636 248.13304 
L 141.741636 247.616418 
L 143.352466 247.616418 
L 143.352466 247.099796 
L 145.018098 247.099796 
L 145.018098 246.583173 
L 153.497847 246.583173 
L 153.497847 245.549929 
L 154.405629 245.549929 
L 154.405629 245.033307 
L 155.479112 245.033307 
L 155.53113 243.483441 
L 156.393022 243.483441 
L 156.393022 242.450197 
L 156.881252 242.450197 
L 156.881252 241.416953 
L 157.819426 241.416953 
L 157.819426 240.900331 
L 158.181325 240.900331 
L 158.181325 239.867087 
L 159.351292 239.867087 
L 159.351292 239.350465 
L 159.642513 239.350465 
L 159.642513 238.833843 
L 161.815719 238.833843 
L 161.815719 238.317221 
L 163.522053 238.317221 
L 163.522053 237.283977 
L 165.470948 237.283977 
L 165.470948 236.250733 
L 166.171749 236.250733 
L 166.171749 235.734111 
L 166.568205 235.734111 
L 166.568205 235.217489 
L 166.818502 235.217489 
L 166.87365 231.601135 
L 167.44266 231.601135 
L 167.44266 230.051269 
L 168.174206 230.051269 
L 168.174206 228.501403 
L 172.596326 228.501403 
L 172.596326 227.984781 
L 174.017312 227.984781 
L 174.017312 227.468159 
L 174.472923 227.468159 
L 174.472923 226.951537 
L 174.952275 226.951537 
L 174.952275 226.434915 
L 175.264845 226.434915 
L 175.264845 225.918293 
L 175.384939 225.918293 
L 175.487237 224.368427 
L 175.622731 224.368427 
L 175.622731 223.335183 
L 176.039645 223.335183 
L 176.039645 222.818561 
L 176.154658 222.818561 
L 176.154658 222.301939 
L 178.456479 222.301939 
L 178.456479 221.785317 
L 181.089091 221.785317 
L 181.089091 221.268695 
L 182.126964 221.268695 
L 182.126964 220.752073 
L 185.76366 220.752073 
L 185.76366 220.235451 
L 186.001208 220.235451 
L 186.001208 219.718829 
L 186.411773 219.718829 
L 186.411773 219.202207 
L 186.613571 219.202207 
L 186.613571 217.135719 
L 190.41921 217.135719 
L 190.41921 216.619097 
L 192.951073 216.619097 
L 192.951073 216.102475 
L 193.230367 216.102475 
L 193.280682 214.035987 
L 193.461895 214.035987 
L 193.461895 213.519365 
L 194.471115 213.519365 
L 194.570725 212.48612 
L 198.153676 212.48612 
L 198.258558 210.936254 
L 198.746199 210.936254 
L 198.746199 210.419632 
L 201.838979 210.419632 
L 201.838979 209.90301 
L 202.488384 209.90301 
L 202.488384 208.869766 
L 203.793787 208.869766 
L 203.793787 208.353144 
L 205.153042 208.353144 
L 205.178877 206.286656 
L 207.847769 206.286656 
L 207.847769 205.770034 
L 210.100867 205.770034 
L 210.208345 204.73679 
L 210.698373 204.73679 
L 210.698373 204.220168 
L 214.128646 204.220168 
L 214.128646 203.703546 
L 215.807287 203.703546 
L 215.807287 203.186924 
L 216.030199 203.186924 
L 216.030199 202.670302 
L 218.754668 202.670302 
L 218.754668 202.15368 
L 219.475081 202.15368 
L 219.475081 201.637058 
L 220.06406 201.637058 
L 220.06406 201.120436 
L 221.448351 201.120436 
L 221.448351 200.603814 
L 222.425974 200.603814 
L 222.425974 199.57057 
L 224.0543 199.57057 
L 224.0543 199.053948 
L 225.470006 199.053948 
L 225.470006 198.537326 
L 228.070158 198.537326 
L 228.070158 198.020704 
L 230.339559 198.020704 
L 230.339559 197.504082 
L 234.469955 197.504082 
L 234.469955 196.98746 
L 235.025025 196.98746 
L 235.025025 196.470838 
L 235.27408 196.470838 
L 235.27408 195.954216 
L 240.207213 195.954216 
L 240.207213 195.437594 
L 243.889712 195.437594 
L 243.889712 194.920972 
L 358.8 194.920972 
L 358.8 194.920972 
" style="fill:none;stroke:#000080;stroke-linecap:square;stroke-width:1.5;"/>
   </g>
   <g id="line2d_43">
    <defs>
     <path d="M 0 6 
C 1.591219 6 3.117479 5.367802 4.242641 4.242641 
C 5.367802 3.117479 6 1.591219 6 0 
C 6 -1.591219 5.367802 -3.117479 4.242641 -4.242641 
C 3.117479 -5.367802 1.591219 -6 0 -6 
C -1.591219 -6 -3.117479 -5.367802 -4.242641 -4.242641 
C -5.367802 -3.117479 -6 -1.591219 -6 0 
C -6 1.591219 -5.367802 3.117479 -4.242641 4.242641 
C -3.117479 5.367802 -1.591219 6 0 6 
z
" id="m90438d3555" style="stroke:#000080;stroke-width:1.5;"/>
    </defs>
    <g>
     <use style="fill:none;stroke:#000080;stroke-width:1.5;" x="104.69796" xlink:href="#m90438d3555" y="294.629021"/>
     <use style="fill:none;stroke:#000080;stroke-width:1.5;" x="132.158881" xlink:href="#m90438d3555" y="259.498724"/>
     <use style="fill:none;stroke:#000080;stroke-width:1.5;" x="186.001208" xlink:href="#m90438d3555" y="220.235451"/>
     <use style="fill:none;stroke:#000080;stroke-width:1.5;" x="243.889712" xlink:href="#m90438d3555" y="195.437594"/>
     <use style="fill:none;stroke:#000080;stroke-width:1.5;" x="243.889712" xlink:href="#m90438d3555" y="194.920972"/>
     <use style="fill:none;stroke:#000080;stroke-width:1.5;" x="358.8" xlink:href="#m90438d3555" y="194.920972"/>
    </g>
   </g>
   <g id="line2d_44"/>
   <g id="line2d_45">
    <path clip-path="url(#p18b3cb57a2)" d="M 172.715846 227.984781 
" style="fill:none;stroke:#000080;stroke-linecap:square;stroke-width:1.5;"/>
    <defs>
     <path d="M -12 12 
L 12 -12 
M -12 -12 
L 12 12 
" id="mc2345c5163" style="stroke:#000080;stroke-width:3;"/>
    </defs>
    <g clip-path="url(#p18b3cb57a2)">
     <use style="fill:#000080;stroke:#000080;stroke-width:3;" x="172.715846" xlink:href="#mc2345c5163" y="227.984781"/>
    </g>
   </g>
   <g id="line2d_46">
    <defs>
     <path d="M 0 1.5 
C 0.397805 1.5 0.77937 1.341951 1.06066 1.06066 
C 1.341951 0.77937 1.5 0.397805 1.5 0 
C 1.5 -0.397805 1.341951 -0.77937 1.06066 -1.06066 
C 0.77937 -1.341951 0.397805 -1.5 0 -1.5 
C -0.397805 -1.5 -0.77937 -1.341951 -1.06066 -1.06066 
C -1.341951 -0.77937 -1.5 -0.397805 -1.5 0 
C -1.5 0.397805 -1.341951 0.77937 -1.06066 1.06066 
C -0.77937 1.341951 -0.397805 1.5 0 1.5 
z
" id="m21637eac20" style="stroke:#ff00ff;"/>
    </defs>
    <g>
     <use style="fill:#ff00ff;stroke:#ff00ff;" x="250.141724" xlink:href="#m21637eac20" y="138.09255"/>
     <use style="fill:#ff00ff;stroke:#ff00ff;" x="250.141724" xlink:href="#m21637eac20" y="138.09255"/>
    </g>
   </g>
   <g id="line2d_47">
    <path d="M 83.185234 298.245375 
L 83.185234 297.728753 
L 111.942857 297.728753 
L 111.942857 295.145643 
L 113.64587 295.145643 
L 113.64587 294.629021 
L 116.166679 294.629021 
L 116.166679 293.079155 
L 116.630812 293.079155 
L 116.630812 291.012667 
L 117.083194 291.012667 
L 117.083194 290.496045 
L 119.187755 290.496045 
L 119.187755 289.979423 
L 120.709364 289.979423 
L 120.709364 287.912935 
L 121.070349 287.912935 
L 121.070349 285.846447 
L 123.095319 285.846447 
L 123.095319 284.813203 
L 124.913984 284.813203 
L 124.913984 279.646982 
L 125.481273 279.646982 
L 125.481273 278.097116 
L 125.758304 278.097116 
L 125.758304 276.54725 
L 126.031105 276.54725 
L 126.031105 274.997384 
L 126.564521 274.997384 
L 126.564521 273.96414 
L 126.825374 273.96414 
L 126.825374 273.447518 
L 128.075402 273.447518 
L 128.075402 272.414274 
L 128.551913 272.414274 
L 128.551913 270.864408 
L 129.243669 270.864408 
L 129.243669 270.347786 
L 129.468428 270.347786 
L 129.468428 269.314542 
L 129.690395 269.314542 
L 129.690395 268.79792 
L 129.909638 268.79792 
L 129.909638 268.281298 
L 130.126224 268.281298 
L 130.126224 266.21481 
L 130.967232 266.21481 
L 130.967232 264.664944 
L 132.911334 264.664944 
L 132.911334 262.598456 
L 133.276002 262.598456 
L 133.276002 261.565212 
L 133.455583 261.565212 
L 133.455583 260.531968 
L 133.983743 260.531968 
L 133.983743 260.015346 
L 134.156383 260.015346 
L 134.156383 259.498724 
L 134.327371 259.498724 
L 134.327371 258.982102 
L 134.830731 258.982102 
L 134.830731 258.46548 
L 135.480553 258.46548 
L 135.480553 257.948858 
L 135.796811 257.948858 
L 135.796811 257.432236 
L 136.107569 257.432236 
L 136.107569 255.88237 
L 137.442737 255.88237 
L 137.442737 254.332504 
L 137.585114 254.332504 
L 137.585114 253.815882 
L 138.005559 253.815882 
L 138.005559 253.29926 
L 138.416339 253.29926 
L 138.416339 252.782638 
L 138.551193 252.782638 
L 138.551193 251.749394 
L 138.817886 251.749394 
L 138.817886 249.682906 
L 140.094723 249.682906 
L 140.094723 248.649662 
L 140.460636 248.649662 
L 140.460636 246.583173 
L 142.72545 246.583173 
L 142.72545 245.549929 
L 143.145896 245.549929 
L 143.145896 245.033307 
L 143.454862 245.033307 
L 143.454862 244.516685 
L 144.830011 244.516685 
L 144.830011 244.000063 
L 145.661236 244.000063 
L 145.661236 241.416953 
L 146.541617 241.416953 
L 146.541617 240.900331 
L 147.624865 240.900331 
L 147.705534 239.867087 
L 147.78584 239.867087 
L 147.78584 239.350465 
L 149.246843 239.350465 
L 149.246843 237.283977 
L 151.20312 237.283977 
L 151.20312 235.734111 
L 153.20444 235.734111 
L 153.20444 235.217489 
L 153.671607 235.217489 
L 153.671607 234.700867 
L 160.010099 234.700867 
L 160.010099 234.184245 
L 164.554434 234.184245 
L 164.585754 233.151001 
L 168.019948 233.151001 
L 168.019948 232.117757 
L 170.295825 232.117757 
L 170.295825 231.601135 
L 170.744796 231.601135 
L 170.744796 231.084513 
L 173.454785 231.084513 
L 173.454785 230.567891 
L 173.906214 230.567891 
L 174.017312 229.018025 
L 174.29207 229.018025 
L 174.364631 227.984781 
L 174.472923 227.984781 
L 174.526824 226.951537 
L 175.03965 226.951537 
L 175.03965 226.434915 
L 175.213128 226.434915 
L 175.213128 225.401671 
L 175.436161 225.401671 
L 175.50423 223.851805 
L 175.773943 223.851805 
L 175.84074 222.818561 
L 176.138273 222.818561 
L 176.138273 222.301939 
L 176.671207 222.301939 
L 176.671207 221.785317 
L 177.403801 221.785317 
L 177.403801 221.268695 
L 179.774477 221.268695 
L 179.774477 220.752073 
L 180.482477 220.752073 
L 180.482477 220.235451 
L 181.360386 220.235451 
L 181.360386 219.718829 
L 181.482353 219.718829 
L 181.482353 219.202207 
L 182.906954 219.202207 
L 182.906954 218.685585 
L 183.921407 218.685585 
L 183.921407 217.652341 
L 184.628324 217.652341 
L 184.628324 217.135719 
L 185.944484 217.135719 
L 186.001208 216.102475 
L 186.485418 216.102475 
L 186.512957 213.002743 
L 186.731753 213.002743 
L 186.731753 212.48612 
L 186.849158 212.48612 
L 186.849158 211.969498 
L 186.965797 211.969498 
L 186.965797 210.936254 
L 187.170311 210.936254 
L 187.187985 209.386388 
L 187.598363 209.386388 
L 187.598363 208.353144 
L 188.694807 208.353144 
L 188.694807 207.836522 
L 192.032201 207.836522 
L 192.032201 207.3199 
L 193.236664 207.3199 
L 193.299513 206.286656 
L 193.561094 206.286656 
L 193.610487 204.220168 
L 193.751738 204.220168 
L 193.751738 202.15368 
L 195.020769 202.15368 
L 195.020769 201.637058 
L 195.325828 201.637058 
L 195.325828 201.120436 
L 198.206194 201.120436 
L 198.301288 199.57057 
L 198.320246 199.57057 
L 198.320246 199.053948 
L 198.442987 199.053948 
L 198.550866 195.437594 
L 198.560217 195.437594 
L 198.560217 194.920972 
L 198.778548 194.920972 
L 198.778548 194.40435 
L 200.116893 194.40435 
L 200.116893 193.371106 
L 202.051674 193.371106 
L 202.143699 192.337862 
L 202.242861 192.337862 
L 202.330124 191.304618 
L 205.21434 191.304618 
L 205.278637 190.271374 
L 205.349097 190.271374 
L 205.447913 188.204886 
L 207.836649 188.204886 
L 207.900498 186.138398 
L 207.955835 186.138398 
L 208.038519 185.105154 
L 208.101653 185.105154 
L 208.107132 182.005422 
L 210.356286 182.005422 
L 210.356286 181.4888 
L 210.529345 181.4888 
L 210.529345 180.972178 
L 212.299641 180.972178 
L 212.407632 175.289335 
L 212.45709 175.289335 
L 212.45709 174.772713 
L 214.150145 174.772713 
L 214.24754 173.739469 
L 214.296039 173.739469 
L 214.296039 173.222847 
L 215.915552 173.222847 
L 215.959734 171.672981 
L 217.392255 171.672981 
L 217.481632 170.639737 
L 218.771265 170.639737 
L 218.881019 167.023383 
L 218.884016 167.023383 
L 218.884016 165.990139 
L 220.138256 165.990139 
L 220.181512 163.923651 
L 221.298422 163.923651 
L 221.39374 162.890407 
L 222.43949 162.890407 
L 222.528925 161.340541 
L 223.53516 161.340541 
L 223.596279 159.790675 
L 225.55687 159.790675 
L 225.55687 159.274053 
L 226.431557 159.274053 
L 226.463943 158.240809 
L 227.273851 158.240809 
L 227.301942 157.207565 
L 228.91132 157.207565 
L 228.932683 156.174321 
L 229.658166 156.174321 
L 229.723647 153.591211 
L 230.34824 153.591211 
L 230.407313 151.008101 
L 231.082448 151.008101 
L 231.082448 149.458235 
L 231.768011 149.458235 
L 231.768011 148.941613 
L 233.018117 148.941613 
L 233.033738 147.908369 
L 233.634493 147.908369 
L 233.634493 147.391747 
L 234.215705 147.391747 
L 234.215705 146.875125 
L 235.324314 146.875125 
L 235.324314 146.358503 
L 235.853848 146.358503 
L 235.855007 145.325259 
L 236.868042 145.325259 
L 236.868042 144.808637 
L 237.315383 144.808637 
L 237.315383 144.292014 
L 237.828787 144.292014 
L 237.828787 143.775392 
L 238.723227 143.775392 
L 238.723227 143.25877 
L 239.166003 143.25877 
L 239.166003 142.742148 
L 240.01259 142.742148 
L 240.01259 142.225526 
L 240.421303 142.225526 
L 240.431626 140.67566 
L 241.60468 140.67566 
L 241.60468 140.159038 
L 243.731498 140.159038 
L 243.731498 139.642416 
L 244.045805 139.642416 
L 244.090467 138.609172 
L 250.141724 138.609172 
L 250.141724 138.09255 
L 358.8 138.09255 
L 358.8 138.09255 
" style="fill:none;stroke:#ff00ff;stroke-linecap:square;stroke-width:1.5;"/>
   </g>
   <g id="line2d_48">
    <defs>
     <path d="M -0 8.485281 
L 5.091169 0 
L 0 -8.485281 
L -5.091169 -0 
z
" id="mca1f7b0418" style="stroke:#ff00ff;stroke-linejoin:miter;stroke-width:1.5;"/>
    </defs>
    <g>
     <use style="fill:none;stroke:#ff00ff;stroke-linejoin:miter;stroke-width:1.5;" x="130.126224" xlink:href="#mca1f7b0418" y="268.281298"/>
     <use style="fill:none;stroke:#ff00ff;stroke-linejoin:miter;stroke-width:1.5;" x="183.921407" xlink:href="#mca1f7b0418" y="218.685585"/>
     <use style="fill:none;stroke:#ff00ff;stroke-linejoin:miter;stroke-width:1.5;" x="244.090467" xlink:href="#mca1f7b0418" y="139.125794"/>
     <use style="fill:none;stroke:#ff00ff;stroke-linejoin:miter;stroke-width:1.5;" x="250.141724" xlink:href="#mca1f7b0418" y="138.09255"/>
     <use style="fill:none;stroke:#ff00ff;stroke-linejoin:miter;stroke-width:1.5;" x="358.8" xlink:href="#mca1f7b0418" y="138.09255"/>
    </g>
   </g>
   <g id="line2d_49"/>
   <g id="line2d_50">
    <path clip-path="url(#p18b3cb57a2)" d="M 172.715846 231.084513 
" style="fill:none;stroke:#ff00ff;stroke-linecap:square;stroke-width:1.5;"/>
    <defs>
     <path d="M -12 12 
L 12 -12 
M -12 -12 
L 12 12 
" id="m4ae4522531" style="stroke:#ff00ff;stroke-width:3;"/>
    </defs>
    <g clip-path="url(#p18b3cb57a2)">
     <use style="fill:#ff00ff;stroke:#ff00ff;stroke-width:3;" x="172.715846" xlink:href="#m4ae4522531" y="231.084513"/>
    </g>
   </g>
   <g id="line2d_51">
    <defs>
     <path d="M 0 1.5 
C 0.397805 1.5 0.77937 1.341951 1.06066 1.06066 
C 1.341951 0.77937 1.5 0.397805 1.5 0 
C 1.5 -0.397805 1.341951 -0.77937 1.06066 -1.06066 
C 0.77937 -1.341951 0.397805 -1.5 0 -1.5 
C -0.397805 -1.5 -0.77937 -1.341951 -1.06066 -1.06066 
C -1.341951 -0.77937 -1.5 -0.397805 -1.5 0 
C -1.5 0.397805 -1.341951 0.77937 -1.06066 1.06066 
C -0.77937 1.341951 -0.397805 1.5 0 1.5 
z
" id="mb642d97d19" style="stroke:#ffa500;"/>
    </defs>
    <g>
     <use style="fill:#ffa500;stroke:#ffa500;" x="195.156994" xlink:href="#mb642d97d19" y="34.768147"/>
     <use style="fill:#ffa500;stroke:#ffa500;" x="195.156994" xlink:href="#mb642d97d19" y="34.768147"/>
    </g>
   </g>
   <g id="line2d_52">
    <path d="M 51.169868 298.245375 
L 51.169868 297.212131 
L 75.940337 297.212131 
L 75.940337 296.178887 
L 83.185234 296.178887 
L 83.185234 295.662265 
L 90.430132 295.662265 
L 90.430132 295.145643 
L 99.557623 295.145643 
L 99.557623 294.629021 
L 100.710805 294.629021 
L 100.710805 294.112399 
L 101.794053 294.112399 
L 101.794053 292.045911 
L 107.955702 292.045911 
L 107.955702 291.529289 
L 108.685114 291.529289 
L 108.685114 290.496045 
L 110.710085 290.496045 
L 110.710085 289.462801 
L 111.3371 289.462801 
L 111.3371 288.429557 
L 116.166679 288.429557 
L 116.166679 286.879691 
L 117.083194 286.879691 
L 117.083194 285.329825 
L 117.524404 285.329825 
L 117.524404 283.263337 
L 117.954982 283.263337 
L 117.954982 282.230093 
L 119.580476 282.230093 
L 119.580476 281.713471 
L 120.340936 281.713471 
L 120.340936 281.196849 
L 120.709364 281.196849 
L 120.709364 280.163604 
L 121.070349 280.163604 
L 121.070349 279.13036 
L 121.771149 279.13036 
L 121.771149 278.097116 
L 122.773362 278.097116 
L 122.773362 277.580494 
L 123.095319 277.580494 
L 123.095319 276.54725 
L 125.481273 276.54725 
L 125.481273 273.447518 
L 125.758304 273.447518 
L 125.758304 272.930896 
L 126.299803 272.930896 
L 126.299803 270.864408 
L 126.825374 270.864408 
L 126.825374 270.347786 
L 127.082473 270.347786 
L 127.082473 269.831164 
L 128.785487 269.831164 
L 128.785487 269.314542 
L 129.690395 269.314542 
L 129.690395 268.281298 
L 129.909638 268.281298 
L 129.909638 266.731432 
L 130.340216 266.731432 
L 130.340216 265.698188 
L 130.760662 265.698188 
L 130.760662 264.664944 
L 130.967232 264.664944 
L 130.967232 263.6317 
L 131.171441 263.6317 
L 131.171441 261.565212 
L 131.373343 261.565212 
L 131.373343 259.498724 
L 133.276002 259.498724 
L 133.276002 258.46548 
L 133.983743 258.46548 
L 133.983743 256.398992 
L 134.664515 256.398992 
L 134.664515 254.849126 
L 134.830731 254.849126 
L 134.830731 253.29926 
L 134.995416 253.29926 
L 134.995416 252.266016 
L 135.158596 252.266016 
L 135.158596 247.099796 
L 136.107569 247.099796 
L 136.107569 245.033307 
L 136.260944 245.033307 
L 136.260944 244.000063 
L 136.713325 244.000063 
L 136.713325 243.483441 
L 137.008673 243.483441 
L 137.008673 242.450197 
L 137.442737 242.450197 
L 137.442737 241.416953 
L 137.726364 241.416953 
L 137.726364 240.900331 
L 138.280459 240.900331 
L 138.280459 239.867087 
L 138.685037 239.867087 
L 138.685037 237.800599 
L 138.817886 237.800599 
L 138.817886 237.283977 
L 138.949755 237.283977 
L 138.949755 235.217489 
L 139.33962 235.217489 
L 139.33962 234.700867 
L 139.467708 234.700867 
L 139.467708 234.184245 
L 139.846551 234.184245 
L 139.846551 232.117757 
L 139.971068 232.117757 
L 139.971068 231.084513 
L 140.339496 231.084513 
L 140.339496 230.567891 
L 140.460636 230.567891 
L 140.460636 230.051269 
L 140.580961 230.051269 
L 140.580961 229.018025 
L 140.937147 229.018025 
L 140.937147 227.468159 
L 141.170721 227.468159 
L 141.170721 226.951537 
L 141.286373 226.951537 
L 141.286373 226.434915 
L 141.96499 226.434915 
L 141.96499 225.918293 
L 142.403494 225.918293 
L 142.511458 224.368427 
L 142.618775 224.368427 
L 142.618775 223.851805 
L 142.831493 223.851805 
L 142.93691 222.301939 
L 143.041708 222.301939 
L 143.145896 220.235451 
L 143.758577 220.235451 
L 143.758577 219.718829 
L 143.958223 219.718829 
L 143.958223 219.202207 
L 144.25357 219.202207 
L 144.25357 217.135719 
L 144.639923 217.135719 
L 144.639923 216.619097 
L 144.924302 216.619097 
L 144.924302 216.102475 
L 145.204226 216.102475 
L 145.204226 215.069231 
L 145.388435 215.069231 
L 145.479832 211.452876 
L 145.929935 211.452876 
L 146.01861 209.386388 
L 146.106848 209.386388 
L 146.194652 206.803278 
L 146.282027 206.803278 
L 146.282027 206.286656 
L 146.627316 206.286656 
L 146.627316 205.253412 
L 146.797489 205.253412 
L 146.881972 204.220168 
L 147.049749 204.220168 
L 147.133051 203.186924 
L 147.215966 203.186924 
L 147.298497 199.57057 
L 147.38065 199.57057 
L 147.38065 199.053948 
L 147.78584 199.053948 
L 147.78584 198.537326 
L 148.182045 198.537326 
L 148.182045 198.020704 
L 148.569655 198.020704 
L 148.646178 196.470838 
L 149.098559 196.470838 
L 149.098559 195.954216 
L 149.246843 195.954216 
L 149.246843 194.40435 
L 149.393907 194.40435 
L 149.466987 191.304618 
L 149.612257 191.304618 
L 149.612257 190.787996 
L 149.756356 190.787996 
L 149.756356 189.23813 
L 149.899301 189.23813 
L 149.899301 187.688264 
L 150.041113 187.688264 
L 150.111598 185.105154 
L 150.459916 185.105154 
L 150.459916 183.038666 
L 150.733762 183.038666 
L 150.733762 182.005422 
L 150.869127 182.005422 
L 150.936427 180.972178 
L 151.070271 180.972178 
L 151.136819 178.90569 
L 151.334989 178.90569 
L 151.334989 173.739469 
L 151.530985 173.739469 
L 151.530985 172.706225 
L 151.660465 172.706225 
L 151.724854 169.606493 
L 151.852942 169.606493 
L 151.852942 169.089871 
L 152.043367 169.089871 
L 152.043367 167.540005 
L 152.294152 167.540005 
L 152.356302 164.440273 
L 152.418237 164.440273 
L 152.479957 162.890407 
L 152.541466 162.890407 
L 152.602763 160.307297 
L 152.66385 160.307297 
L 152.66385 158.757431 
L 153.085714 158.757431 
L 153.085714 158.240809 
L 153.381062 158.240809 
L 153.43955 156.690943 
L 153.671607 156.690943 
L 153.671607 156.174321 
L 153.786515 156.174321 
L 153.786515 155.657699 
L 154.014137 155.657699 
L 154.070592 154.107833 
L 154.12687 154.107833 
L 154.182971 151.008101 
L 154.350224 151.008101 
L 154.405629 149.974857 
L 154.625547 149.974857 
L 154.7345 148.424991 
L 154.950431 148.424991 
L 154.950431 146.875125 
L 155.163784 146.875125 
L 155.269513 145.325259 
L 155.582997 145.325259 
L 155.582997 143.775392 
L 155.941909 143.775392 
L 155.941909 142.225526 
L 156.093549 142.225526 
L 156.143811 141.192282 
L 156.243913 141.192282 
L 156.293754 137.575928 
L 156.491741 137.575928 
L 156.589918 136.026062 
L 156.638804 136.026062 
L 156.687558 134.476196 
L 156.784667 134.476196 
L 156.784667 133.959574 
L 156.929349 133.959574 
L 157.025157 129.826598 
L 157.072869 129.826598 
L 157.120454 128.276732 
L 157.309536 128.276732 
L 157.356496 125.177 
L 157.450047 125.177 
L 157.54311 123.110512 
L 157.819426 123.110512 
L 157.91059 120.01078 
L 158.04647 120.01078 
L 158.04647 119.494158 
L 158.181325 119.494158 
L 158.226051 118.460914 
L 158.315169 118.460914 
L 158.315169 117.42767 
L 158.536038 117.42767 
L 158.579887 115.361182 
L 158.710789 115.361182 
L 158.797528 113.811316 
L 158.84074 113.811316 
L 158.926851 112.778072 
L 159.01255 112.778072 
L 159.01255 109.161717 
L 159.182724 109.161717 
L 159.267206 107.611851 
L 159.351292 107.611851 
L 159.434983 106.578607 
L 159.476683 106.578607 
L 159.476683 106.061985 
L 159.642513 106.061985 
L 159.724855 104.512119 
L 159.806819 104.512119 
L 159.84766 102.962253 
L 159.929064 102.962253 
L 159.929064 101.929009 
L 160.050479 101.929009 
L 160.130966 98.312655 
L 160.330612 98.312655 
L 160.330612 94.696301 
L 160.528052 94.696301 
L 160.528052 93.146435 
L 160.723333 93.146435 
L 160.723333 92.629813 
L 160.916504 92.629813 
L 160.993191 91.596569 
L 161.44653 91.596569 
L 161.52098 87.980215 
L 161.632078 87.980215 
L 161.742488 82.813995 
L 161.88865 82.813995 
L 161.997491 81.264129 
L 162.105674 81.264129 
L 162.105674 80.747507 
L 162.248906 80.747507 
L 162.248906 80.230885 
L 162.390999 80.230885 
L 162.496833 78.681019 
L 162.531971 78.681019 
L 162.531971 78.164397 
L 162.67184 78.164397 
L 162.67184 77.647775 
L 163.118996 77.647775 
L 163.152934 75.581286 
L 163.288043 75.581286 
L 163.288043 74.548042 
L 163.455505 74.548042 
L 163.455505 73.514798 
L 163.588354 73.514798 
L 163.65441 72.481554 
L 163.916219 72.481554 
L 163.981076 69.898444 
L 164.20624 69.898444 
L 164.20624 68.8652 
L 164.365352 68.8652 
L 164.397005 66.28209 
L 164.523059 66.28209 
L 164.523059 65.765468 
L 164.741536 65.765468 
L 164.741536 64.732224 
L 165.470948 64.732224 
L 165.470948 64.215602 
L 165.678203 64.215602 
L 165.678203 63.69898 
L 165.941189 63.69898 
L 165.941189 62.665736 
L 167.173962 62.665736 
L 167.281926 61.11587 
L 167.549018 61.11587 
L 167.549018 60.599248 
L 167.916364 60.599248 
L 167.968231 58.016138 
L 168.225331 58.016138 
L 168.250838 56.466272 
L 169.169902 56.466272 
L 169.169902 55.94965 
L 169.290551 55.94965 
L 169.290551 55.433028 
L 169.410391 55.433028 
L 169.410391 54.916406 
L 171.139445 54.916406 
L 171.139445 54.399784 
L 171.333548 54.399784 
L 171.333548 53.883162 
L 172.334591 53.883162 
L 172.334591 53.36654 
L 174.382726 53.36654 
L 174.382726 52.849918 
L 174.899645 52.849918 
L 174.899645 52.333296 
L 175.436161 52.333296 
L 175.436161 51.816674 
L 175.740451 51.816674 
L 175.740451 51.300052 
L 176.05612 51.300052 
L 176.05612 50.78343 
L 176.31769 50.78343 
L 176.31769 50.266808 
L 176.829613 50.266808 
L 176.923987 49.233564 
L 177.017866 49.233564 
L 177.017866 48.716942 
L 177.52556 48.716942 
L 177.52556 48.20032 
L 177.930478 48.20032 
L 177.930478 47.683698 
L 178.122214 47.683698 
L 178.122214 47.167076 
L 178.427659 47.167076 
L 178.528325 45.61721 
L 178.699586 45.61721 
L 178.699586 45.100588 
L 179.396016 45.100588 
L 179.396016 44.583966 
L 179.61326 44.583966 
L 179.640231 43.550722 
L 179.801206 43.550722 
L 179.867853 42.517478 
L 179.960743 42.517478 
L 179.960743 42.000855 
L 180.184344 42.000855 
L 180.184344 41.484233 
L 180.405182 41.484233 
L 180.443871 40.450989 
L 180.533822 40.450989 
L 180.533822 39.934367 
L 180.939357 39.934367 
L 180.939357 38.901123 
L 181.274511 38.901123 
L 181.274511 38.384501 
L 182.601316 38.384501 
L 182.601316 37.867879 
L 188.800033 37.867879 
L 188.800033 37.351257 
L 189.040523 37.351257 
L 189.088235 36.318013 
L 189.978921 36.318013 
L 189.978921 35.801391 
L 190.718908 35.801391 
L 190.718908 35.284769 
L 195.156994 35.284769 
L 195.156994 34.768147 
L 358.8 34.768147 
L 358.8 34.768147 
" style="fill:none;stroke:#ffa500;stroke-linecap:square;stroke-width:1.5;"/>
   </g>
   <g id="line2d_53">
    <defs>
     <path d="M 0 -6 
L -1.347084 -1.854102 
L -5.706339 -1.854102 
L -2.179628 0.708204 
L -3.526712 4.854102 
L -0 2.291796 
L 3.526712 4.854102 
L 2.179628 0.708204 
L 5.706339 -1.854102 
L 1.347084 -1.854102 
z
" id="m064695a400" style="stroke:#ffa500;stroke-linejoin:bevel;stroke-width:1.5;"/>
    </defs>
    <g>
     <use style="fill:none;stroke:#ffa500;stroke-linejoin:bevel;stroke-width:1.5;" x="111.3371" xlink:href="#m064695a400" y="288.429557"/>
     <use style="fill:none;stroke:#ffa500;stroke-linejoin:bevel;stroke-width:1.5;" x="150.459916" xlink:href="#m064695a400" y="185.105154"/>
     <use style="fill:none;stroke:#ffa500;stroke-linejoin:bevel;stroke-width:1.5;" x="164.20624" xlink:href="#m064695a400" y="69.898444"/>
     <use style="fill:none;stroke:#ffa500;stroke-linejoin:bevel;stroke-width:1.5;" x="195.156994" xlink:href="#m064695a400" y="34.768147"/>
     <use style="fill:none;stroke:#ffa500;stroke-linejoin:bevel;stroke-width:1.5;" x="195.156994" xlink:href="#m064695a400" y="34.768147"/>
     <use style="fill:none;stroke:#ffa500;stroke-linejoin:bevel;stroke-width:1.5;" x="358.8" xlink:href="#m064695a400" y="34.768147"/>
    </g>
   </g>
   <g id="line2d_54"/>
   <g id="line2d_55">
    <path clip-path="url(#p18b3cb57a2)" d="M 172.715846 53.36654 
" style="fill:none;stroke:#ffa500;stroke-linecap:square;stroke-width:1.5;"/>
    <defs>
     <path d="M -12 12 
L 12 -12 
M -12 -12 
L 12 12 
" id="m06afa5f203" style="stroke:#ffa500;stroke-width:3;"/>
    </defs>
    <g clip-path="url(#p18b3cb57a2)">
     <use style="fill:#ffa500;stroke:#ffa500;stroke-width:3;" x="172.715846" xlink:href="#m06afa5f203" y="53.36654"/>
    </g>
   </g>
   <g id="line2d_56">
    <defs>
     <path d="M 0 1.5 
C 0.397805 1.5 0.77937 1.341951 1.06066 1.06066 
C 1.341951 0.77937 1.5 0.397805 1.5 0 
C 1.5 -0.397805 1.341951 -0.77937 1.06066 -1.06066 
C 0.77937 -1.341951 0.397805 -1.5 0 -1.5 
C -0.397805 -1.5 -0.77937 -1.341951 -1.06066 -1.06066 
C -1.341951 -0.77937 -1.5 -0.397805 -1.5 0 
C -1.5 0.397805 -1.341951 0.77937 -1.06066 1.06066 
C -0.77937 1.341951 -0.397805 1.5 0 1.5 
z
" id="me0022166f1" style="stroke:#6495ed;"/>
    </defs>
    <g>
     <use style="fill:#6495ed;stroke:#6495ed;" x="222.576523" xlink:href="#me0022166f1" y="34.768147"/>
     <use style="fill:#6495ed;stroke:#6495ed;" x="222.576523" xlink:href="#me0022166f1" y="34.768147"/>
    </g>
   </g>
   <g id="line2d_57">
    <path d="M 51.169868 298.245375 
L 51.169868 295.662265 
L 79.927491 295.662265 
L 79.927491 293.595777 
L 85.939616 293.595777 
L 85.939616 291.012667 
L 97.000681 291.012667 
L 97.000681 288.429557 
L 102.815366 288.429557 
L 102.815366 286.363069 
L 105.569748 286.363069 
L 105.569748 285.846447 
L 106.400973 285.846447 
L 106.400973 284.813203 
L 107.955702 284.813203 
L 107.955702 284.296581 
L 110.060263 284.296581 
L 110.060263 282.746715 
L 111.3371 282.746715 
L 111.3371 281.713471 
L 111.942857 281.713471 
L 111.942857 281.196849 
L 113.096039 281.196849 
L 113.096039 278.097116 
L 114.179287 278.097116 
L 114.179287 277.063872 
L 115.2006 277.063872 
L 115.2006 274.997384 
L 116.630812 274.997384 
L 116.630812 273.96414 
L 117.524404 273.96414 
L 117.524404 272.930896 
L 117.954982 272.930896 
L 117.954982 271.897652 
L 118.375428 271.897652 
L 118.375428 270.347786 
L 120.340936 270.347786 
L 120.340936 268.281298 
L 120.709364 268.281298 
L 120.709364 267.764676 
L 121.070349 267.764676 
L 121.070349 267.248054 
L 121.424184 267.248054 
L 121.424184 266.21481 
L 125.19988 266.21481 
L 125.19988 262.081834 
L 125.758304 262.081834 
L 125.758304 261.04859 
L 126.299803 261.04859 
L 126.299803 260.015346 
L 126.825374 260.015346 
L 126.825374 259.498724 
L 127.082473 259.498724 
L 127.082473 258.982102 
L 127.585834 258.982102 
L 127.585834 257.432236 
L 127.832295 257.432236 
L 127.832295 255.365748 
L 128.785487 255.365748 
L 128.785487 254.849126 
L 129.243669 254.849126 
L 129.243669 253.29926 
L 129.468428 253.29926 
L 129.468428 252.782638 
L 129.690395 252.782638 
L 129.690395 252.266016 
L 130.126224 252.266016 
L 130.126224 249.166284 
L 130.340216 249.166284 
L 130.340216 248.13304 
L 131.373343 248.13304 
L 131.373343 247.099796 
L 132.726171 247.099796 
L 132.726171 246.583173 
L 133.094598 246.583173 
L 133.094598 246.066551 
L 133.276002 246.066551 
L 133.276002 242.966819 
L 133.455583 242.966819 
L 133.455583 242.450197 
L 134.156383 242.450197 
L 134.156383 241.933575 
L 134.496738 241.933575 
L 134.496738 240.900331 
L 134.664515 240.900331 
L 134.664515 238.833843 
L 135.158596 238.833843 
L 135.158596 237.800599 
L 136.260944 237.800599 
L 136.260944 237.283977 
L 139.846551 237.283977 
L 139.846551 236.250733 
L 140.70048 236.250733 
L 140.70048 235.734111 
L 143.454862 235.734111 
L 143.556675 233.667623 
L 145.296568 233.667623 
L 145.296568 232.634379 
L 145.570765 232.634379 
L 145.570765 232.117757 
L 146.455505 232.117757 
L 146.455505 231.084513 
L 146.627316 231.084513 
L 146.627316 223.335183 
L 147.049749 223.335183 
L 147.049749 222.818561 
L 147.215966 222.818561 
L 147.215966 222.301939 
L 147.38065 222.301939 
L 147.38065 221.785317 
L 147.624865 221.785317 
L 147.624865 219.718829 
L 148.182045 219.718829 
L 148.182045 218.685585 
L 148.646178 218.685585 
L 148.646178 217.652341 
L 148.798248 217.652341 
L 148.798248 216.619097 
L 150.528772 216.619097 
L 150.528772 215.069231 
L 151.40056 215.069231 
L 151.40056 214.035987 
L 154.405629 214.035987 
L 154.405629 213.519365 
L 154.570821 213.519365 
L 154.625547 203.186924 
L 156.293754 203.186924 
L 156.293754 201.637058 
L 156.929349 201.637058 
L 156.929349 196.470838 
L 157.356496 196.470838 
L 157.356496 194.40435 
L 158.492082 194.40435 
L 158.492082 193.371106 
L 160.130966 193.371106 
L 160.130966 192.854484 
L 163.753039 192.854484 
L 163.753039 185.105154 
L 164.64823 185.105154 
L 164.679386 183.555288 
L 165.170637 183.555288 
L 165.170637 183.038666 
L 165.441143 183.038666 
L 165.441143 181.4888 
L 166.371076 181.4888 
L 166.399371 179.422312 
L 169.905124 179.422312 
L 169.905124 175.289335 
L 170.181797 175.289335 
L 170.181797 174.256091 
L 170.476769 174.256091 
L 170.476769 173.739469 
L 172.735688 173.739469 
L 172.735688 173.222847 
L 173.416646 173.222847 
L 173.416646 172.706225 
L 173.549778 172.706225 
L 173.549778 170.123115 
L 173.924778 170.123115 
L 173.998843 167.023383 
L 174.109368 167.023383 
L 174.200953 164.440273 
L 174.29207 164.440273 
L 174.400802 162.890407 
L 174.580563 162.890407 
L 174.580563 162.373785 
L 174.705328 162.373785 
L 174.776233 160.823919 
L 175.004752 160.823919 
L 175.004752 160.307297 
L 175.622731 160.307297 
L 175.622731 159.790675 
L 175.890674 159.790675 
L 175.890674 159.274053 
L 176.414799 159.274053 
L 176.447052 155.141077 
L 176.527431 155.141077 
L 176.527431 154.624455 
L 176.845377 154.624455 
L 176.876863 153.074589 
L 177.250426 153.074589 
L 177.250426 152.557967 
L 178.195414 152.557967 
L 178.253759 145.325259 
L 178.713784 145.325259 
L 178.713784 144.808637 
L 178.897338 144.808637 
L 178.897338 141.192282 
L 179.023318 141.192282 
L 179.023318 140.159038 
L 179.368673 140.159038 
L 179.368673 138.609172 
L 179.720899 138.609172 
L 179.720899 138.09255 
L 181.17586 138.09255 
L 181.17586 133.959574 
L 181.494504 133.959574 
L 181.494504 133.442952 
L 181.723818 133.442952 
L 181.723818 132.92633 
L 182.220515 132.92633 
L 182.220515 132.409708 
L 182.348352 132.409708 
L 182.348352 131.893086 
L 183.750929 131.893086 
L 183.750929 128.276732 
L 183.87894 128.276732 
L 183.87894 126.210244 
L 184.016591 126.210244 
L 184.016591 125.693622 
L 184.226313 125.693622 
L 184.226313 123.627134 
L 185.715769 123.627134 
L 185.811423 120.527402 
L 185.906567 120.527402 
L 185.906567 120.01078 
L 186.467035 120.01078 
L 186.467035 119.494158 
L 187.0639 119.494158 
L 187.170311 116.394426 
L 187.284879 116.394426 
L 187.284879 115.877804 
L 188.050097 115.877804 
L 188.075328 112.26145 
L 188.457815 112.26145 
L 188.531701 105.028741 
L 189.827174 105.028741 
L 189.827174 98.312655 
L 190.166811 98.312655 
L 190.23397 97.279411 
L 191.457306 97.279411 
L 191.457306 95.212923 
L 191.630347 95.212923 
L 191.630347 94.696301 
L 191.767584 94.696301 
L 191.767584 93.663057 
L 192.75811 93.663057 
L 192.75811 93.146435 
L 193.468111 93.146435 
L 193.468111 92.629813 
L 193.678181 92.629813 
L 193.714998 90.563325 
L 193.84326 90.563325 
L 193.84326 90.046703 
L 194.365038 90.046703 
L 194.388665 87.463593 
L 194.576567 87.463593 
L 194.652341 85.397105 
L 194.704613 85.397105 
L 194.704613 84.880483 
L 194.849014 84.880483 
L 194.849014 84.363861 
L 195.631273 84.363861 
L 195.631273 81.780751 
L 195.790248 81.780751 
L 195.790248 81.264129 
L 196.098653 81.264129 
L 196.104017 80.230885 
L 196.823988 80.230885 
L 196.823988 78.164397 
L 197.698474 78.164397 
L 197.698474 77.131153 
L 197.815803 77.131153 
L 197.869322 76.097908 
L 198.494663 76.097908 
L 198.583571 74.03142 
L 199.035252 74.03142 
L 199.035252 72.481554 
L 199.243391 72.481554 
L 199.243391 69.898444 
L 200.005164 69.898444 
L 200.005164 67.315334 
L 200.12974 67.315334 
L 200.236442 66.28209 
L 200.945587 66.28209 
L 200.994597 62.665736 
L 201.721888 62.665736 
L 201.721888 62.149114 
L 202.284649 62.149114 
L 202.284649 61.11587 
L 202.495885 61.11587 
L 202.495885 60.599248 
L 202.723175 60.599248 
L 202.723175 59.566004 
L 202.892682 59.566004 
L 202.892682 59.049382 
L 203.016944 59.049382 
L 203.016944 58.016138 
L 203.516157 58.016138 
L 203.516157 57.499516 
L 204.2924 57.499516 
L 204.2924 56.466272 
L 205.081803 56.466272 
L 205.081803 55.94965 
L 205.409726 55.94965 
L 205.48919 51.816674 
L 205.778609 51.816674 
L 205.778609 51.300052 
L 205.92158 51.300052 
L 205.92158 50.266808 
L 206.449259 50.266808 
L 206.449259 49.233564 
L 207.182398 49.233564 
L 207.182398 48.20032 
L 207.607137 48.20032 
L 207.607137 47.683698 
L 207.986197 47.683698 
L 208.068741 46.650454 
L 208.221812 46.650454 
L 208.243572 45.61721 
L 208.475839 45.61721 
L 208.475839 45.100588 
L 208.96809 45.100588 
L 208.96809 43.0341 
L 209.543454 43.0341 
L 209.543454 42.517478 
L 210.382835 42.517478 
L 210.394889 41.484233 
L 212.114546 41.484233 
L 212.123299 39.934367 
L 212.674788 39.934367 
L 212.674788 39.417745 
L 212.849998 39.417745 
L 212.849998 38.901123 
L 213.139628 38.901123 
L 213.139628 38.384501 
L 213.687142 38.384501 
L 213.687142 37.867879 
L 214.49448 37.867879 
L 214.49448 37.351257 
L 216.220817 37.351257 
L 216.279863 36.318013 
L 217.458924 36.318013 
L 217.458924 35.801391 
L 218.863023 35.801391 
L 218.863023 35.284769 
L 222.576523 35.284769 
L 222.576523 34.768147 
L 358.8 34.768147 
L 358.8 34.768147 
" style="fill:none;stroke:#6495ed;stroke-linecap:square;stroke-width:1.5;"/>
   </g>
   <g id="line2d_58">
    <defs>
     <path d="M -0 6 
L 6 -6 
L -6 -6 
z
" id="mcf3aea3e52" style="stroke:#6495ed;stroke-linejoin:miter;stroke-width:1.5;"/>
    </defs>
    <g>
     <use style="fill:none;stroke:#6495ed;stroke-linejoin:miter;stroke-width:1.5;" x="147.049749" xlink:href="#mcf3aea3e52" y="223.335183"/>
     <use style="fill:none;stroke:#6495ed;stroke-linejoin:miter;stroke-width:1.5;" x="181.17586" xlink:href="#mcf3aea3e52" y="138.09255"/>
     <use style="fill:none;stroke:#6495ed;stroke-linejoin:miter;stroke-width:1.5;" x="216.279863" xlink:href="#mcf3aea3e52" y="36.318013"/>
     <use style="fill:none;stroke:#6495ed;stroke-linejoin:miter;stroke-width:1.5;" x="222.576523" xlink:href="#mcf3aea3e52" y="34.768147"/>
     <use style="fill:none;stroke:#6495ed;stroke-linejoin:miter;stroke-width:1.5;" x="222.576523" xlink:href="#mcf3aea3e52" y="34.768147"/>
     <use style="fill:none;stroke:#6495ed;stroke-linejoin:miter;stroke-width:1.5;" x="358.8" xlink:href="#mcf3aea3e52" y="34.768147"/>
    </g>
   </g>
   <g id="line2d_59"/>
   <g id="line2d_60">
    <path clip-path="url(#p18b3cb57a2)" d="M 172.715846 173.739469 
" style="fill:none;stroke:#6495ed;stroke-linecap:square;stroke-width:1.5;"/>
    <defs>
     <path d="M -12 12 
L 12 -12 
M -12 -12 
L 12 12 
" id="mfa8df51770" style="stroke:#6495ed;stroke-width:3;"/>
    </defs>
    <g clip-path="url(#p18b3cb57a2)">
     <use style="fill:#6495ed;stroke:#6495ed;stroke-width:3;" x="172.715846" xlink:href="#mfa8df51770" y="173.739469"/>
    </g>
   </g>
   <g id="line2d_61">
    <path d="M 358.8 194.920972 
L 390.48 292.97583 
" style="fill:none;stroke:#000080;stroke-linecap:square;stroke-width:1.5;"/>
    <g>
     <use style="fill:none;stroke:#000080;stroke-width:1.5;" x="358.8" xlink:href="#m90438d3555" y="194.920972"/>
     <use style="fill:none;stroke:#000080;stroke-width:1.5;" x="390.48" xlink:href="#m90438d3555" y="292.97583"/>
    </g>
   </g>
   <g id="line2d_62">
    <path d="M 358.8 138.09255 
L 390.48 208.663118 
" style="fill:none;stroke:#ff00ff;stroke-linecap:square;stroke-width:1.5;"/>
    <g>
     <use style="fill:none;stroke:#ff00ff;stroke-linejoin:miter;stroke-width:1.5;" x="358.8" xlink:href="#mca1f7b0418" y="138.09255"/>
     <use style="fill:none;stroke:#ff00ff;stroke-linejoin:miter;stroke-width:1.5;" x="390.48" xlink:href="#mca1f7b0418" y="208.663118"/>
    </g>
   </g>
   <g id="line2d_63">
    <path d="M 358.8 34.768147 
L 390.48 124.350405 
" style="fill:none;stroke:#6495ed;stroke-linecap:square;stroke-width:1.5;"/>
    <g>
     <use style="fill:none;stroke:#6495ed;stroke-linejoin:miter;stroke-width:1.5;" x="358.8" xlink:href="#mcf3aea3e52" y="34.768147"/>
     <use style="fill:none;stroke:#6495ed;stroke-linejoin:miter;stroke-width:1.5;" x="390.48" xlink:href="#mcf3aea3e52" y="124.350405"/>
    </g>
   </g>
   <g id="line2d_64">
    <path d="M 358.8 34.768147 
L 390.48 40.037692 
" style="fill:none;stroke:#ffa500;stroke-linecap:square;stroke-width:1.5;"/>
    <g>
     <use style="fill:none;stroke:#ffa500;stroke-linejoin:bevel;stroke-width:1.5;" x="358.8" xlink:href="#m064695a400" y="34.768147"/>
     <use style="fill:none;stroke:#ffa500;stroke-linejoin:bevel;stroke-width:1.5;" x="390.48" xlink:href="#m064695a400" y="40.037692"/>
    </g>
   </g>
   <g id="line2d_65">
    <path d="M 358.8 298.245375 
L 358.8 34.768147 
" style="fill:none;stroke:#000000;stroke-linecap:square;stroke-width:1.5;"/>
   </g>
   <g id="patch_3">
    <path d="M 70.8 298.245375 
L 70.8 32.133375 
" style="fill:none;stroke:#000000;stroke-linecap:square;stroke-linejoin:miter;stroke-width:0.8;"/>
   </g>
   <g id="patch_4">
    <path d="M 427.92 298.245375 
L 427.92 32.133375 
" style="fill:none;stroke:#000000;stroke-linecap:square;stroke-linejoin:miter;stroke-width:0.8;"/>
   </g>
   <g id="patch_5">
    <path d="M 70.8 298.245375 
L 427.92 298.245375 
" style="fill:none;stroke:#000000;stroke-linecap:square;stroke-linejoin:miter;stroke-width:0.8;"/>
   </g>
   <g id="patch_6">
    <path d="M 70.8 32.133375 
L 427.92 32.133375 
" style="fill:none;stroke:#000000;stroke-linecap:square;stroke-linejoin:miter;stroke-width:0.8;"/>
   </g>
   <g id="text_14">
    <!-- f8 -->
    <g transform="translate(396.24 297.114893)scale(0.15 -0.15)">
     <use xlink:href="#DejaVuSans-66"/>
     <use x="35.205078" xlink:href="#DejaVuSans-38"/>
    </g>
   </g>
   <g id="text_15">
    <!-- f9 -->
    <defs>
     <path d="M 10.984375 1.515625 
L 10.984375 10.5 
Q 14.703125 8.734375 18.5 7.8125 
Q 22.3125 6.890625 25.984375 6.890625 
Q 35.75 6.890625 40.890625 13.453125 
Q 46.046875 20.015625 46.78125 33.40625 
Q 43.953125 29.203125 39.59375 26.953125 
Q 35.25 24.703125 29.984375 24.703125 
Q 19.046875 24.703125 12.671875 31.3125 
Q 6.296875 37.9375 6.296875 49.421875 
Q 6.296875 60.640625 12.9375 67.421875 
Q 19.578125 74.21875 30.609375 74.21875 
Q 43.265625 74.21875 49.921875 64.515625 
Q 56.59375 54.828125 56.59375 36.375 
Q 56.59375 19.140625 48.40625 8.859375 
Q 40.234375 -1.421875 26.421875 -1.421875 
Q 22.703125 -1.421875 18.890625 -0.6875 
Q 15.09375 0.046875 10.984375 1.515625 
M 30.609375 32.421875 
Q 37.25 32.421875 41.125 36.953125 
Q 45.015625 41.5 45.015625 49.421875 
Q 45.015625 57.28125 41.125 61.84375 
Q 37.25 66.40625 30.609375 66.40625 
Q 23.96875 66.40625 20.09375 61.84375 
Q 16.21875 57.28125 16.21875 49.421875 
Q 16.21875 41.5 20.09375 36.953125 
Q 23.96875 32.421875 30.609375 32.421875 
" id="DejaVuSans-39"/>
    </defs>
    <g transform="translate(396.24 212.80218)scale(0.15 -0.15)">
     <use xlink:href="#DejaVuSans-66"/>
     <use x="35.205078" xlink:href="#DejaVuSans-39"/>
    </g>
   </g>
   <g id="text_16">
    <!-- f7 -->
    <defs>
     <path d="M 8.203125 72.90625 
L 55.078125 72.90625 
L 55.078125 68.703125 
L 28.609375 0 
L 18.3125 0 
L 43.21875 64.59375 
L 8.203125 64.59375 
z
" id="DejaVuSans-37"/>
    </defs>
    <g transform="translate(396.24 128.489467)scale(0.15 -0.15)">
     <use xlink:href="#DejaVuSans-66"/>
     <use x="35.205078" xlink:href="#DejaVuSans-37"/>
    </g>
   </g>
   <g id="text_17">
    <!-- f6 -->
    <g transform="translate(396.24 44.176754)scale(0.15 -0.15)">
     <use xlink:href="#DejaVuSans-66"/>
     <use x="35.205078" xlink:href="#DejaVuSans-36"/>
    </g>
   </g>
   <g id="text_18">
    <!-- bbob -->
    <defs>
     <path d="M 48.6875 27.296875 
Q 48.6875 37.203125 44.609375 42.84375 
Q 40.53125 48.484375 33.40625 48.484375 
Q 26.265625 48.484375 22.1875 42.84375 
Q 18.109375 37.203125 18.109375 27.296875 
Q 18.109375 17.390625 22.1875 11.75 
Q 26.265625 6.109375 33.40625 6.109375 
Q 40.53125 6.109375 44.609375 11.75 
Q 48.6875 17.390625 48.6875 27.296875 
M 18.109375 46.390625 
Q 20.953125 51.265625 25.265625 53.625 
Q 29.59375 56 35.59375 56 
Q 45.5625 56 51.78125 48.09375 
Q 58.015625 40.1875 58.015625 27.296875 
Q 58.015625 14.40625 51.78125 6.484375 
Q 45.5625 -1.421875 35.59375 -1.421875 
Q 29.59375 -1.421875 25.265625 0.953125 
Q 20.953125 3.328125 18.109375 8.203125 
L 18.109375 0 
L 9.078125 0 
L 9.078125 75.984375 
L 18.109375 75.984375 
z
" id="DejaVuSans-62"/>
    </defs>
    <g transform="translate(74.3712 50.114612)scale(0.1666 -0.1666)">
     <use xlink:href="#DejaVuSans-62"/>
     <use x="63.476562" xlink:href="#DejaVuSans-62"/>
     <use x="126.953125" xlink:href="#DejaVuSans-6f"/>
     <use x="188.134766" xlink:href="#DejaVuSans-62"/>
    </g>
    <!-- Misc. moderate functions, 3-D -->
    <defs>
     <path d="M 9.8125 72.90625 
L 24.515625 72.90625 
L 43.109375 23.296875 
L 61.8125 72.90625 
L 76.515625 72.90625 
L 76.515625 0 
L 66.890625 0 
L 66.890625 64.015625 
L 48.09375 14.015625 
L 38.1875 14.015625 
L 19.390625 64.015625 
L 19.390625 0 
L 9.8125 0 
z
" id="DejaVuSans-4d"/>
     <path d="M 11.71875 12.40625 
L 22.015625 12.40625 
L 22.015625 4 
L 14.015625 -11.625 
L 7.71875 -11.625 
L 11.71875 4 
z
" id="DejaVuSans-2c"/>
     <path d="M 40.578125 39.3125 
Q 47.65625 37.796875 51.625 33 
Q 55.609375 28.21875 55.609375 21.1875 
Q 55.609375 10.40625 48.1875 4.484375 
Q 40.765625 -1.421875 27.09375 -1.421875 
Q 22.515625 -1.421875 17.65625 -0.515625 
Q 12.796875 0.390625 7.625 2.203125 
L 7.625 11.71875 
Q 11.71875 9.328125 16.59375 8.109375 
Q 21.484375 6.890625 26.8125 6.890625 
Q 36.078125 6.890625 40.9375 10.546875 
Q 45.796875 14.203125 45.796875 21.1875 
Q 45.796875 27.640625 41.28125 31.265625 
Q 36.765625 34.90625 28.71875 34.90625 
L 20.21875 34.90625 
L 20.21875 43.015625 
L 29.109375 43.015625 
Q 36.375 43.015625 40.234375 45.921875 
Q 44.09375 48.828125 44.09375 54.296875 
Q 44.09375 59.90625 40.109375 62.90625 
Q 36.140625 65.921875 28.71875 65.921875 
Q 24.65625 65.921875 20.015625 65.03125 
Q 15.375 64.15625 9.8125 62.3125 
L 9.8125 71.09375 
Q 15.4375 72.65625 20.34375 73.4375 
Q 25.25 74.21875 29.59375 74.21875 
Q 40.828125 74.21875 47.359375 69.109375 
Q 53.90625 64.015625 53.90625 55.328125 
Q 53.90625 49.265625 50.4375 45.09375 
Q 46.96875 40.921875 40.578125 39.3125 
" id="DejaVuSans-33"/>
     <path d="M 19.671875 64.796875 
L 19.671875 8.109375 
L 31.59375 8.109375 
Q 46.6875 8.109375 53.6875 14.9375 
Q 60.6875 21.78125 60.6875 36.53125 
Q 60.6875 51.171875 53.6875 57.984375 
Q 46.6875 64.796875 31.59375 64.796875 
z
M 9.8125 72.90625 
L 30.078125 72.90625 
Q 51.265625 72.90625 61.171875 64.09375 
Q 71.09375 55.28125 71.09375 36.53125 
Q 71.09375 17.671875 61.125 8.828125 
Q 51.171875 0 30.078125 0 
L 9.8125 0 
z
" id="DejaVuSans-44"/>
    </defs>
    <g transform="translate(74.3712 68.770168)scale(0.1666 -0.1666)">
     <use xlink:href="#DejaVuSans-4d"/>
     <use x="86.279297" xlink:href="#DejaVuSans-69"/>
     <use x="114.0625" xlink:href="#DejaVuSans-73"/>
     <use x="166.162109" xlink:href="#DejaVuSans-63"/>
     <use x="221.142578" xlink:href="#DejaVuSans-2e"/>
     <use x="252.929688" xlink:href="#DejaVuSans-20"/>
     <use x="284.716797" xlink:href="#DejaVuSans-6d"/>
     <use x="382.128906" xlink:href="#DejaVuSans-6f"/>
     <use x="443.310547" xlink:href="#DejaVuSans-64"/>
     <use x="506.787109" xlink:href="#DejaVuSans-65"/>
     <use x="568.310547" xlink:href="#DejaVuSans-72"/>
     <use x="609.423828" xlink:href="#DejaVuSans-61"/>
     <use x="670.703125" xlink:href="#DejaVuSans-74"/>
     <use x="709.912109" xlink:href="#DejaVuSans-65"/>
     <use x="771.435547" xlink:href="#DejaVuSans-20"/>
     <use x="803.222656" xlink:href="#DejaVuSans-66"/>
     <use x="838.427734" xlink:href="#DejaVuSans-75"/>
     <use x="901.806641" xlink:href="#DejaVuSans-6e"/>
     <use x="965.185547" xlink:href="#DejaVuSans-63"/>
     <use x="1020.166016" xlink:href="#DejaVuSans-74"/>
     <use x="1059.375" xlink:href="#DejaVuSans-69"/>
     <use x="1087.158203" xlink:href="#DejaVuSans-6f"/>
     <use x="1148.339844" xlink:href="#DejaVuSans-6e"/>
     <use x="1211.71875" xlink:href="#DejaVuSans-73"/>
     <use x="1263.818359" xlink:href="#DejaVuSans-2c"/>
     <use x="1295.605469" xlink:href="#DejaVuSans-20"/>
     <use x="1327.392578" xlink:href="#DejaVuSans-33"/>
     <use x="1391.015625" xlink:href="#DejaVuSans-2d"/>
     <use x="1427.099609" xlink:href="#DejaVuSans-44"/>
    </g>
    <!-- 51 targets in 100..1e-08 -->
    <defs>
     <path d="M 10.796875 72.90625 
L 49.515625 72.90625 
L 49.515625 64.59375 
L 19.828125 64.59375 
L 19.828125 46.734375 
Q 21.96875 47.46875 24.109375 47.828125 
Q 26.265625 48.1875 28.421875 48.1875 
Q 40.625 48.1875 47.75 41.5 
Q 54.890625 34.8125 54.890625 23.390625 
Q 54.890625 11.625 47.5625 5.09375 
Q 40.234375 -1.421875 26.90625 -1.421875 
Q 22.3125 -1.421875 17.546875 -0.640625 
Q 12.796875 0.140625 7.71875 1.703125 
L 7.71875 11.625 
Q 12.109375 9.234375 16.796875 8.0625 
Q 21.484375 6.890625 26.703125 6.890625 
Q 35.15625 6.890625 40.078125 11.328125 
Q 45.015625 15.765625 45.015625 23.390625 
Q 45.015625 31 40.078125 35.4375 
Q 35.15625 39.890625 26.703125 39.890625 
Q 22.75 39.890625 18.8125 39.015625 
Q 14.890625 38.140625 10.796875 36.28125 
z
" id="DejaVuSans-35"/>
    </defs>
    <g transform="translate(74.3712 87.425723)scale(0.1666 -0.1666)">
     <use xlink:href="#DejaVuSans-35"/>
     <use x="63.623047" xlink:href="#DejaVuSans-31"/>
     <use x="127.246094" xlink:href="#DejaVuSans-20"/>
     <use x="159.033203" xlink:href="#DejaVuSans-74"/>
     <use x="198.242188" xlink:href="#DejaVuSans-61"/>
     <use x="259.521484" xlink:href="#DejaVuSans-72"/>
     <use x="300.619141" xlink:href="#DejaVuSans-67"/>
     <use x="364.095703" xlink:href="#DejaVuSans-65"/>
     <use x="425.619141" xlink:href="#DejaVuSans-74"/>
     <use x="464.828125" xlink:href="#DejaVuSans-73"/>
     <use x="516.927734" xlink:href="#DejaVuSans-20"/>
     <use x="548.714844" xlink:href="#DejaVuSans-69"/>
     <use x="576.498047" xlink:href="#DejaVuSans-6e"/>
     <use x="639.876953" xlink:href="#DejaVuSans-20"/>
     <use x="671.664062" xlink:href="#DejaVuSans-31"/>
     <use x="735.287109" xlink:href="#DejaVuSans-30"/>
     <use x="798.910156" xlink:href="#DejaVuSans-30"/>
     <use x="862.533203" xlink:href="#DejaVuSans-2e"/>
     <use x="894.320312" xlink:href="#DejaVuSans-2e"/>
     <use x="926.107422" xlink:href="#DejaVuSans-31"/>
     <use x="989.730469" xlink:href="#DejaVuSans-65"/>
     <use x="1051.253906" xlink:href="#DejaVuSans-2d"/>
     <use x="1087.337891" xlink:href="#DejaVuSans-30"/>
     <use x="1150.960938" xlink:href="#DejaVuSans-38"/>
    </g>
    <!-- 15 instances -->
    <g transform="translate(74.3712 106.081279)scale(0.1666 -0.1666)">
     <use xlink:href="#DejaVuSans-31"/>
     <use x="63.623047" xlink:href="#DejaVuSans-35"/>
     <use x="127.246094" xlink:href="#DejaVuSans-20"/>
     <use x="159.033203" xlink:href="#DejaVuSans-69"/>
     <use x="186.816406" xlink:href="#DejaVuSans-6e"/>
     <use x="250.195312" xlink:href="#DejaVuSans-73"/>
     <use x="302.294922" xlink:href="#DejaVuSans-74"/>
     <use x="341.503906" xlink:href="#DejaVuSans-61"/>
     <use x="402.783203" xlink:href="#DejaVuSans-6e"/>
     <use x="466.162109" xlink:href="#DejaVuSans-63"/>
     <use x="521.142578" xlink:href="#DejaVuSans-65"/>
     <use x="582.666016" xlink:href="#DejaVuSans-73"/>
    </g>
   </g>
   <g id="text_19">
    <!-- v2.1 -->
    <g style="fill:#808080;" transform="translate(238.449063 293.504568)scale(0.1 -0.1)">
     <use xlink:href="#DejaVuSans-76"/>
     <use x="59.179688" xlink:href="#DejaVuSans-32"/>
     <use x="122.802734" xlink:href="#DejaVuSans-2e"/>
     <use x="154.589844" xlink:href="#DejaVuSans-31"/>
    </g>
   </g>
  </g>
 </g>
 <defs>
  <clipPath id="p18b3cb57a2">
   <rect height="266.112" width="357.12" x="70.8" y="32.133375"/>
  </clipPath>
 </defs>
</svg>
