<?xml version="1.0" encoding="utf-8" standalone="no"?>
<!DOCTYPE svg PUBLIC "-//W3C//DTD SVG 1.1//EN"
  "http://www.w3.org/Graphics/SVG/1.1/DTD/svg11.dtd">
<!-- Created with matplotlib (http://matplotlib.org/) -->
<svg height="353pt" version="1.1" viewBox="0 0 438 353" width="438pt" xmlns="http://www.w3.org/2000/svg" xmlns:xlink="http://www.w3.org/1999/xlink">
 <defs>
  <style type="text/css">
*{stroke-linecap:butt;stroke-linejoin:round;}
  </style>
 </defs>
 <g id="figure_1">
  <g id="patch_1">
   <path d="M 0 353.22225 
L 438.62 353.22225 
L 438.62 0 
L 0 0 
z
" style="fill:#ffffff;"/>
  </g>
  <g id="axes_1">
   <g id="patch_2">
    <path d="M 70.8 298.245375 
L 427.92 298.245375 
L 427.92 32.133375 
L 70.8 32.133375 
z
" style="fill:#ffffff;"/>
   </g>
   <g id="matplotlib.axis_1">
    <g id="xtick_1">
     <g id="line2d_1">
      <path clip-path="url(#p79bfc93ed0)" d="M 70.8 298.245375 
L 70.8 32.133375 
" style="fill:none;stroke:#b0b0b0;stroke-linecap:square;stroke-width:0.8;"/>
     </g>
     <g id="line2d_2">
      <defs>
       <path d="M 0 0 
L 0 3.5 
" id="m34dae4ab19" style="stroke:#000000;stroke-width:0.8;"/>
      </defs>
      <g>
       <use style="stroke:#000000;stroke-width:0.8;" x="70.8" xlink:href="#m34dae4ab19" y="298.245375"/>
      </g>
     </g>
     <g id="text_1">
      <!-- 0 -->
      <defs>
       <path d="M 31.78125 66.40625 
Q 24.171875 66.40625 20.328125 58.90625 
Q 16.5 51.421875 16.5 36.375 
Q 16.5 21.390625 20.328125 13.890625 
Q 24.171875 6.390625 31.78125 6.390625 
Q 39.453125 6.390625 43.28125 13.890625 
Q 47.125 21.390625 47.125 36.375 
Q 47.125 51.421875 43.28125 58.90625 
Q 39.453125 66.40625 31.78125 66.40625 
M 31.78125 74.21875 
Q 44.046875 74.21875 50.515625 64.515625 
Q 56.984375 54.828125 56.984375 36.375 
Q 56.984375 17.96875 50.515625 8.265625 
Q 44.046875 -1.421875 31.78125 -1.421875 
Q 19.53125 -1.421875 13.0625 8.265625 
Q 6.59375 17.96875 6.59375 36.375 
Q 6.59375 54.828125 13.0625 64.515625 
Q 19.53125 74.21875 31.78125 74.21875 
" id="DejaVuSans-30"/>
      </defs>
      <g transform="translate(64.4375 320.44225)scale(0.2 -0.2)">
       <use xlink:href="#DejaVuSans-30"/>
      </g>
     </g>
    </g>
    <g id="xtick_2">
     <g id="line2d_3">
      <path clip-path="url(#p79bfc93ed0)" d="M 153.085714 298.245375 
L 153.085714 32.133375 
" style="fill:none;stroke:#b0b0b0;stroke-linecap:square;stroke-width:0.8;"/>
     </g>
     <g id="line2d_4">
      <g>
       <use style="stroke:#000000;stroke-width:0.8;" x="153.085714" xlink:href="#m34dae4ab19" y="298.245375"/>
      </g>
     </g>
     <g id="text_2">
      <!-- 2 -->
      <defs>
       <path d="M 19.1875 8.296875 
L 53.609375 8.296875 
L 53.609375 0 
L 7.328125 0 
L 7.328125 8.296875 
Q 12.9375 14.109375 22.625 23.890625 
Q 32.328125 33.6875 34.8125 36.53125 
Q 39.546875 41.84375 41.421875 45.53125 
Q 43.3125 49.21875 43.3125 52.78125 
Q 43.3125 58.59375 39.234375 62.25 
Q 35.15625 65.921875 28.609375 65.921875 
Q 23.96875 65.921875 18.8125 64.3125 
Q 13.671875 62.703125 7.8125 59.421875 
L 7.8125 69.390625 
Q 13.765625 71.78125 18.9375 73 
Q 24.125 74.21875 28.421875 74.21875 
Q 39.75 74.21875 46.484375 68.546875 
Q 53.21875 62.890625 53.21875 53.421875 
Q 53.21875 48.921875 51.53125 44.890625 
Q 49.859375 40.875 45.40625 35.40625 
Q 44.1875 33.984375 37.640625 27.21875 
Q 31.109375 20.453125 19.1875 8.296875 
" id="DejaVuSans-32"/>
      </defs>
      <g transform="translate(146.723214 320.44225)scale(0.2 -0.2)">
       <use xlink:href="#DejaVuSans-32"/>
      </g>
     </g>
    </g>
    <g id="xtick_3">
     <g id="line2d_5">
      <path clip-path="url(#p79bfc93ed0)" d="M 235.371429 298.245375 
L 235.371429 32.133375 
" style="fill:none;stroke:#b0b0b0;stroke-linecap:square;stroke-width:0.8;"/>
     </g>
     <g id="line2d_6">
      <g>
       <use style="stroke:#000000;stroke-width:0.8;" x="235.371429" xlink:href="#m34dae4ab19" y="298.245375"/>
      </g>
     </g>
     <g id="text_3">
      <!-- 4 -->
      <defs>
       <path d="M 37.796875 64.3125 
L 12.890625 25.390625 
L 37.796875 25.390625 
z
M 35.203125 72.90625 
L 47.609375 72.90625 
L 47.609375 25.390625 
L 58.015625 25.390625 
L 58.015625 17.1875 
L 47.609375 17.1875 
L 47.609375 0 
L 37.796875 0 
L 37.796875 17.1875 
L 4.890625 17.1875 
L 4.890625 26.703125 
z
" id="DejaVuSans-34"/>
      </defs>
      <g transform="translate(229.008929 320.44225)scale(0.2 -0.2)">
       <use xlink:href="#DejaVuSans-34"/>
      </g>
     </g>
    </g>
    <g id="xtick_4">
     <g id="line2d_7">
      <path clip-path="url(#p79bfc93ed0)" d="M 317.657143 298.245375 
L 317.657143 32.133375 
" style="fill:none;stroke:#b0b0b0;stroke-linecap:square;stroke-width:0.8;"/>
     </g>
     <g id="line2d_8">
      <g>
       <use style="stroke:#000000;stroke-width:0.8;" x="317.657143" xlink:href="#m34dae4ab19" y="298.245375"/>
      </g>
     </g>
     <g id="text_4">
      <!-- 6 -->
      <defs>
       <path d="M 33.015625 40.375 
Q 26.375 40.375 22.484375 35.828125 
Q 18.609375 31.296875 18.609375 23.390625 
Q 18.609375 15.53125 22.484375 10.953125 
Q 26.375 6.390625 33.015625 6.390625 
Q 39.65625 6.390625 43.53125 10.953125 
Q 47.40625 15.53125 47.40625 23.390625 
Q 47.40625 31.296875 43.53125 35.828125 
Q 39.65625 40.375 33.015625 40.375 
M 52.59375 71.296875 
L 52.59375 62.3125 
Q 48.875 64.0625 45.09375 64.984375 
Q 41.3125 65.921875 37.59375 65.921875 
Q 27.828125 65.921875 22.671875 59.328125 
Q 17.53125 52.734375 16.796875 39.40625 
Q 19.671875 43.65625 24.015625 45.921875 
Q 28.375 48.1875 33.59375 48.1875 
Q 44.578125 48.1875 50.953125 41.515625 
Q 57.328125 34.859375 57.328125 23.390625 
Q 57.328125 12.15625 50.6875 5.359375 
Q 44.046875 -1.421875 33.015625 -1.421875 
Q 20.359375 -1.421875 13.671875 8.265625 
Q 6.984375 17.96875 6.984375 36.375 
Q 6.984375 53.65625 15.1875 63.9375 
Q 23.390625 74.21875 37.203125 74.21875 
Q 40.921875 74.21875 44.703125 73.484375 
Q 48.484375 72.75 52.59375 71.296875 
" id="DejaVuSans-36"/>
      </defs>
      <g transform="translate(311.294643 320.44225)scale(0.2 -0.2)">
       <use xlink:href="#DejaVuSans-36"/>
      </g>
     </g>
    </g>
    <g id="xtick_5">
     <g id="line2d_9">
      <path clip-path="url(#p79bfc93ed0)" d="M 399.942857 298.245375 
L 399.942857 32.133375 
" style="fill:none;stroke:#b0b0b0;stroke-linecap:square;stroke-width:0.8;"/>
     </g>
     <g id="line2d_10">
      <g>
       <use style="stroke:#000000;stroke-width:0.8;" x="399.942857" xlink:href="#m34dae4ab19" y="298.245375"/>
      </g>
     </g>
     <g id="text_5">
      <!-- 8 -->
      <defs>
       <path d="M 31.78125 34.625 
Q 24.75 34.625 20.71875 30.859375 
Q 16.703125 27.09375 16.703125 20.515625 
Q 16.703125 13.921875 20.71875 10.15625 
Q 24.75 6.390625 31.78125 6.390625 
Q 38.8125 6.390625 42.859375 10.171875 
Q 46.921875 13.96875 46.921875 20.515625 
Q 46.921875 27.09375 42.890625 30.859375 
Q 38.875 34.625 31.78125 34.625 
M 21.921875 38.8125 
Q 15.578125 40.375 12.03125 44.71875 
Q 8.5 49.078125 8.5 55.328125 
Q 8.5 64.0625 14.71875 69.140625 
Q 20.953125 74.21875 31.78125 74.21875 
Q 42.671875 74.21875 48.875 69.140625 
Q 55.078125 64.0625 55.078125 55.328125 
Q 55.078125 49.078125 51.53125 44.71875 
Q 48 40.375 41.703125 38.8125 
Q 48.828125 37.15625 52.796875 32.3125 
Q 56.78125 27.484375 56.78125 20.515625 
Q 56.78125 9.90625 50.3125 4.234375 
Q 43.84375 -1.421875 31.78125 -1.421875 
Q 19.734375 -1.421875 13.25 4.234375 
Q 6.78125 9.90625 6.78125 20.515625 
Q 6.78125 27.484375 10.78125 32.3125 
Q 14.796875 37.15625 21.921875 38.8125 
M 18.3125 54.390625 
Q 18.3125 48.734375 21.84375 45.5625 
Q 25.390625 42.390625 31.78125 42.390625 
Q 38.140625 42.390625 41.71875 45.5625 
Q 45.3125 48.734375 45.3125 54.390625 
Q 45.3125 60.0625 41.71875 63.234375 
Q 38.140625 66.40625 31.78125 66.40625 
Q 25.390625 66.40625 21.84375 63.234375 
Q 18.3125 60.0625 18.3125 54.390625 
" id="DejaVuSans-38"/>
      </defs>
      <g transform="translate(393.580357 320.44225)scale(0.2 -0.2)">
       <use xlink:href="#DejaVuSans-38"/>
      </g>
     </g>
    </g>
    <g id="xtick_6">
     <g id="line2d_11">
      <defs>
       <path d="M 0 0 
L 0 2 
" id="m7b2b9e13e1" style="stroke:#000000;stroke-width:0.6;"/>
      </defs>
      <g>
       <use style="stroke:#000000;stroke-width:0.6;" x="83.185234" xlink:href="#m7b2b9e13e1" y="298.245375"/>
      </g>
     </g>
    </g>
    <g id="xtick_7">
     <g id="line2d_12">
      <g>
       <use style="stroke:#000000;stroke-width:0.6;" x="95.570468" xlink:href="#m7b2b9e13e1" y="298.245375"/>
      </g>
     </g>
    </g>
    <g id="xtick_8">
     <g id="line2d_13">
      <g>
       <use style="stroke:#000000;stroke-width:0.6;" x="102.815366" xlink:href="#m7b2b9e13e1" y="298.245375"/>
      </g>
     </g>
    </g>
    <g id="xtick_9">
     <g id="line2d_14">
      <g>
       <use style="stroke:#000000;stroke-width:0.6;" x="107.955702" xlink:href="#m7b2b9e13e1" y="298.245375"/>
      </g>
     </g>
    </g>
    <g id="xtick_10">
     <g id="line2d_15">
      <g>
       <use style="stroke:#000000;stroke-width:0.6;" x="165.470948" xlink:href="#m7b2b9e13e1" y="298.245375"/>
      </g>
     </g>
    </g>
    <g id="xtick_11">
     <g id="line2d_16">
      <g>
       <use style="stroke:#000000;stroke-width:0.6;" x="177.856183" xlink:href="#m7b2b9e13e1" y="298.245375"/>
      </g>
     </g>
    </g>
    <g id="xtick_12">
     <g id="line2d_17">
      <g>
       <use style="stroke:#000000;stroke-width:0.6;" x="185.10108" xlink:href="#m7b2b9e13e1" y="298.245375"/>
      </g>
     </g>
    </g>
    <g id="xtick_13">
     <g id="line2d_18">
      <g>
       <use style="stroke:#000000;stroke-width:0.6;" x="190.241417" xlink:href="#m7b2b9e13e1" y="298.245375"/>
      </g>
     </g>
    </g>
    <g id="xtick_14">
     <g id="line2d_19">
      <g>
       <use style="stroke:#000000;stroke-width:0.6;" x="247.756663" xlink:href="#m7b2b9e13e1" y="298.245375"/>
      </g>
     </g>
    </g>
    <g id="xtick_15">
     <g id="line2d_20">
      <g>
       <use style="stroke:#000000;stroke-width:0.6;" x="260.141897" xlink:href="#m7b2b9e13e1" y="298.245375"/>
      </g>
     </g>
    </g>
    <g id="xtick_16">
     <g id="line2d_21">
      <g>
       <use style="stroke:#000000;stroke-width:0.6;" x="267.386794" xlink:href="#m7b2b9e13e1" y="298.245375"/>
      </g>
     </g>
    </g>
    <g id="xtick_17">
     <g id="line2d_22">
      <g>
       <use style="stroke:#000000;stroke-width:0.6;" x="272.527131" xlink:href="#m7b2b9e13e1" y="298.245375"/>
      </g>
     </g>
    </g>
    <g id="xtick_18">
     <g id="line2d_23">
      <g>
       <use style="stroke:#000000;stroke-width:0.6;" x="330.042377" xlink:href="#m7b2b9e13e1" y="298.245375"/>
      </g>
     </g>
    </g>
    <g id="xtick_19">
     <g id="line2d_24">
      <g>
       <use style="stroke:#000000;stroke-width:0.6;" x="342.427611" xlink:href="#m7b2b9e13e1" y="298.245375"/>
      </g>
     </g>
    </g>
    <g id="xtick_20">
     <g id="line2d_25">
      <g>
       <use style="stroke:#000000;stroke-width:0.6;" x="349.672509" xlink:href="#m7b2b9e13e1" y="298.245375"/>
      </g>
     </g>
    </g>
    <g id="xtick_21">
     <g id="line2d_26">
      <g>
       <use style="stroke:#000000;stroke-width:0.6;" x="354.812845" xlink:href="#m7b2b9e13e1" y="298.245375"/>
      </g>
     </g>
    </g>
    <g id="xtick_22">
     <g id="line2d_27">
      <g>
       <use style="stroke:#000000;stroke-width:0.6;" x="412.328091" xlink:href="#m7b2b9e13e1" y="298.245375"/>
      </g>
     </g>
    </g>
    <g id="xtick_23">
     <g id="line2d_28">
      <g>
       <use style="stroke:#000000;stroke-width:0.6;" x="424.713325" xlink:href="#m7b2b9e13e1" y="298.245375"/>
      </g>
     </g>
    </g>
    <g id="text_6">
     <!-- log10 of (# f-evals / dimension) -->
     <defs>
      <path d="M 9.421875 75.984375 
L 18.40625 75.984375 
L 18.40625 0 
L 9.421875 0 
z
" id="DejaVuSans-6c"/>
      <path d="M 30.609375 48.390625 
Q 23.390625 48.390625 19.1875 42.75 
Q 14.984375 37.109375 14.984375 27.296875 
Q 14.984375 17.484375 19.15625 11.84375 
Q 23.34375 6.203125 30.609375 6.203125 
Q 37.796875 6.203125 41.984375 11.859375 
Q 46.1875 17.53125 46.1875 27.296875 
Q 46.1875 37.015625 41.984375 42.703125 
Q 37.796875 48.390625 30.609375 48.390625 
M 30.609375 56 
Q 42.328125 56 49.015625 48.375 
Q 55.71875 40.765625 55.71875 27.296875 
Q 55.71875 13.875 49.015625 6.21875 
Q 42.328125 -1.421875 30.609375 -1.421875 
Q 18.84375 -1.421875 12.171875 6.21875 
Q 5.515625 13.875 5.515625 27.296875 
Q 5.515625 40.765625 12.171875 48.375 
Q 18.84375 56 30.609375 56 
" id="DejaVuSans-6f"/>
      <path d="M 45.40625 27.984375 
Q 45.40625 37.75 41.375 43.109375 
Q 37.359375 48.484375 30.078125 48.484375 
Q 22.859375 48.484375 18.828125 43.109375 
Q 14.796875 37.75 14.796875 27.984375 
Q 14.796875 18.265625 18.828125 12.890625 
Q 22.859375 7.515625 30.078125 7.515625 
Q 37.359375 7.515625 41.375 12.890625 
Q 45.40625 18.265625 45.40625 27.984375 
M 54.390625 6.78125 
Q 54.390625 -7.171875 48.1875 -13.984375 
Q 42 -20.796875 29.203125 -20.796875 
Q 24.46875 -20.796875 20.265625 -20.09375 
Q 16.0625 -19.390625 12.109375 -17.921875 
L 12.109375 -9.1875 
Q 16.0625 -11.328125 19.921875 -12.34375 
Q 23.78125 -13.375 27.78125 -13.375 
Q 36.625 -13.375 41.015625 -8.765625 
Q 45.40625 -4.15625 45.40625 5.171875 
L 45.40625 9.625 
Q 42.625 4.78125 38.28125 2.390625 
Q 33.9375 0 27.875 0 
Q 17.828125 0 11.671875 7.65625 
Q 5.515625 15.328125 5.515625 27.984375 
Q 5.515625 40.671875 11.671875 48.328125 
Q 17.828125 56 27.875 56 
Q 33.9375 56 38.28125 53.609375 
Q 42.625 51.21875 45.40625 46.390625 
L 45.40625 54.6875 
L 54.390625 54.6875 
z
" id="DejaVuSans-67"/>
      <path d="M 12.40625 8.296875 
L 28.515625 8.296875 
L 28.515625 63.921875 
L 10.984375 60.40625 
L 10.984375 69.390625 
L 28.421875 72.90625 
L 38.28125 72.90625 
L 38.28125 8.296875 
L 54.390625 8.296875 
L 54.390625 0 
L 12.40625 0 
z
" id="DejaVuSans-31"/>
      <path id="DejaVuSans-20"/>
      <path d="M 37.109375 75.984375 
L 37.109375 68.5 
L 28.515625 68.5 
Q 23.6875 68.5 21.796875 66.546875 
Q 19.921875 64.59375 19.921875 59.515625 
L 19.921875 54.6875 
L 34.71875 54.6875 
L 34.71875 47.703125 
L 19.921875 47.703125 
L 19.921875 0 
L 10.890625 0 
L 10.890625 47.703125 
L 2.296875 47.703125 
L 2.296875 54.6875 
L 10.890625 54.6875 
L 10.890625 58.5 
Q 10.890625 67.625 15.140625 71.796875 
Q 19.390625 75.984375 28.609375 75.984375 
z
" id="DejaVuSans-66"/>
      <path d="M 31 75.875 
Q 24.46875 64.65625 21.28125 53.65625 
Q 18.109375 42.671875 18.109375 31.390625 
Q 18.109375 20.125 21.3125 9.0625 
Q 24.515625 -2 31 -13.1875 
L 23.1875 -13.1875 
Q 15.875 -1.703125 12.234375 9.375 
Q 8.59375 20.453125 8.59375 31.390625 
Q 8.59375 42.28125 12.203125 53.3125 
Q 15.828125 64.359375 23.1875 75.875 
z
" id="DejaVuSans-28"/>
      <path d="M 51.125 44 
L 36.921875 44 
L 32.8125 27.6875 
L 47.125 27.6875 
z
M 43.796875 71.78125 
L 38.71875 51.515625 
L 52.984375 51.515625 
L 58.109375 71.78125 
L 65.921875 71.78125 
L 60.890625 51.515625 
L 76.125 51.515625 
L 76.125 44 
L 58.984375 44 
L 54.984375 27.6875 
L 70.515625 27.6875 
L 70.515625 20.21875 
L 53.078125 20.21875 
L 48 0 
L 40.1875 0 
L 45.21875 20.21875 
L 30.90625 20.21875 
L 25.875 0 
L 18.015625 0 
L 23.09375 20.21875 
L 7.71875 20.21875 
L 7.71875 27.6875 
L 24.90625 27.6875 
L 29 44 
L 13.28125 44 
L 13.28125 51.515625 
L 30.90625 51.515625 
L 35.890625 71.78125 
z
" id="DejaVuSans-23"/>
      <path d="M 4.890625 31.390625 
L 31.203125 31.390625 
L 31.203125 23.390625 
L 4.890625 23.390625 
z
" id="DejaVuSans-2d"/>
      <path d="M 56.203125 29.59375 
L 56.203125 25.203125 
L 14.890625 25.203125 
Q 15.484375 15.921875 20.484375 11.0625 
Q 25.484375 6.203125 34.421875 6.203125 
Q 39.59375 6.203125 44.453125 7.46875 
Q 49.3125 8.734375 54.109375 11.28125 
L 54.109375 2.78125 
Q 49.265625 0.734375 44.1875 -0.34375 
Q 39.109375 -1.421875 33.890625 -1.421875 
Q 20.796875 -1.421875 13.15625 6.1875 
Q 5.515625 13.8125 5.515625 26.8125 
Q 5.515625 40.234375 12.765625 48.109375 
Q 20.015625 56 32.328125 56 
Q 43.359375 56 49.78125 48.890625 
Q 56.203125 41.796875 56.203125 29.59375 
M 47.21875 32.234375 
Q 47.125 39.59375 43.09375 43.984375 
Q 39.0625 48.390625 32.421875 48.390625 
Q 24.90625 48.390625 20.390625 44.140625 
Q 15.875 39.890625 15.1875 32.171875 
z
" id="DejaVuSans-65"/>
      <path d="M 2.984375 54.6875 
L 12.5 54.6875 
L 29.59375 8.796875 
L 46.6875 54.6875 
L 56.203125 54.6875 
L 35.6875 0 
L 23.484375 0 
z
" id="DejaVuSans-76"/>
      <path d="M 34.28125 27.484375 
Q 23.390625 27.484375 19.1875 25 
Q 14.984375 22.515625 14.984375 16.5 
Q 14.984375 11.71875 18.140625 8.90625 
Q 21.296875 6.109375 26.703125 6.109375 
Q 34.1875 6.109375 38.703125 11.40625 
Q 43.21875 16.703125 43.21875 25.484375 
L 43.21875 27.484375 
z
M 52.203125 31.203125 
L 52.203125 0 
L 43.21875 0 
L 43.21875 8.296875 
Q 40.140625 3.328125 35.546875 0.953125 
Q 30.953125 -1.421875 24.3125 -1.421875 
Q 15.921875 -1.421875 10.953125 3.296875 
Q 6 8.015625 6 15.921875 
Q 6 25.140625 12.171875 29.828125 
Q 18.359375 34.515625 30.609375 34.515625 
L 43.21875 34.515625 
L 43.21875 35.40625 
Q 43.21875 41.609375 39.140625 45 
Q 35.0625 48.390625 27.6875 48.390625 
Q 23 48.390625 18.546875 47.265625 
Q 14.109375 46.140625 10.015625 43.890625 
L 10.015625 52.203125 
Q 14.9375 54.109375 19.578125 55.046875 
Q 24.21875 56 28.609375 56 
Q 40.484375 56 46.34375 49.84375 
Q 52.203125 43.703125 52.203125 31.203125 
" id="DejaVuSans-61"/>
      <path d="M 44.28125 53.078125 
L 44.28125 44.578125 
Q 40.484375 46.53125 36.375 47.5 
Q 32.28125 48.484375 27.875 48.484375 
Q 21.1875 48.484375 17.84375 46.4375 
Q 14.5 44.390625 14.5 40.28125 
Q 14.5 37.15625 16.890625 35.375 
Q 19.28125 33.59375 26.515625 31.984375 
L 29.59375 31.296875 
Q 39.15625 29.25 43.1875 25.515625 
Q 47.21875 21.78125 47.21875 15.09375 
Q 47.21875 7.46875 41.1875 3.015625 
Q 35.15625 -1.421875 24.609375 -1.421875 
Q 20.21875 -1.421875 15.453125 -0.5625 
Q 10.6875 0.296875 5.421875 2 
L 5.421875 11.28125 
Q 10.40625 8.6875 15.234375 7.390625 
Q 20.0625 6.109375 24.8125 6.109375 
Q 31.15625 6.109375 34.5625 8.28125 
Q 37.984375 10.453125 37.984375 14.40625 
Q 37.984375 18.0625 35.515625 20.015625 
Q 33.0625 21.96875 24.703125 23.78125 
L 21.578125 24.515625 
Q 13.234375 26.265625 9.515625 29.90625 
Q 5.8125 33.546875 5.8125 39.890625 
Q 5.8125 47.609375 11.28125 51.796875 
Q 16.75 56 26.8125 56 
Q 31.78125 56 36.171875 55.265625 
Q 40.578125 54.546875 44.28125 53.078125 
" id="DejaVuSans-73"/>
      <path d="M 25.390625 72.90625 
L 33.6875 72.90625 
L 8.296875 -9.28125 
L 0 -9.28125 
z
" id="DejaVuSans-2f"/>
      <path d="M 45.40625 46.390625 
L 45.40625 75.984375 
L 54.390625 75.984375 
L 54.390625 0 
L 45.40625 0 
L 45.40625 8.203125 
Q 42.578125 3.328125 38.25 0.953125 
Q 33.9375 -1.421875 27.875 -1.421875 
Q 17.96875 -1.421875 11.734375 6.484375 
Q 5.515625 14.40625 5.515625 27.296875 
Q 5.515625 40.1875 11.734375 48.09375 
Q 17.96875 56 27.875 56 
Q 33.9375 56 38.25 53.625 
Q 42.578125 51.265625 45.40625 46.390625 
M 14.796875 27.296875 
Q 14.796875 17.390625 18.875 11.75 
Q 22.953125 6.109375 30.078125 6.109375 
Q 37.203125 6.109375 41.296875 11.75 
Q 45.40625 17.390625 45.40625 27.296875 
Q 45.40625 37.203125 41.296875 42.84375 
Q 37.203125 48.484375 30.078125 48.484375 
Q 22.953125 48.484375 18.875 42.84375 
Q 14.796875 37.203125 14.796875 27.296875 
" id="DejaVuSans-64"/>
      <path d="M 9.421875 54.6875 
L 18.40625 54.6875 
L 18.40625 0 
L 9.421875 0 
z
M 9.421875 75.984375 
L 18.40625 75.984375 
L 18.40625 64.59375 
L 9.421875 64.59375 
z
" id="DejaVuSans-69"/>
      <path d="M 52 44.1875 
Q 55.375 50.25 60.0625 53.125 
Q 64.75 56 71.09375 56 
Q 79.640625 56 84.28125 50.015625 
Q 88.921875 44.046875 88.921875 33.015625 
L 88.921875 0 
L 79.890625 0 
L 79.890625 32.71875 
Q 79.890625 40.578125 77.09375 44.375 
Q 74.3125 48.1875 68.609375 48.1875 
Q 61.625 48.1875 57.5625 43.546875 
Q 53.515625 38.921875 53.515625 30.90625 
L 53.515625 0 
L 44.484375 0 
L 44.484375 32.71875 
Q 44.484375 40.625 41.703125 44.40625 
Q 38.921875 48.1875 33.109375 48.1875 
Q 26.21875 48.1875 22.15625 43.53125 
Q 18.109375 38.875 18.109375 30.90625 
L 18.109375 0 
L 9.078125 0 
L 9.078125 54.6875 
L 18.109375 54.6875 
L 18.109375 46.1875 
Q 21.1875 51.21875 25.484375 53.609375 
Q 29.78125 56 35.6875 56 
Q 41.65625 56 45.828125 52.96875 
Q 50 49.953125 52 44.1875 
" id="DejaVuSans-6d"/>
      <path d="M 54.890625 33.015625 
L 54.890625 0 
L 45.90625 0 
L 45.90625 32.71875 
Q 45.90625 40.484375 42.875 44.328125 
Q 39.84375 48.1875 33.796875 48.1875 
Q 26.515625 48.1875 22.3125 43.546875 
Q 18.109375 38.921875 18.109375 30.90625 
L 18.109375 0 
L 9.078125 0 
L 9.078125 54.6875 
L 18.109375 54.6875 
L 18.109375 46.1875 
Q 21.34375 51.125 25.703125 53.5625 
Q 30.078125 56 35.796875 56 
Q 45.21875 56 50.046875 50.171875 
Q 54.890625 44.34375 54.890625 33.015625 
" id="DejaVuSans-6e"/>
      <path d="M 8.015625 75.875 
L 15.828125 75.875 
Q 23.140625 64.359375 26.78125 53.3125 
Q 30.421875 42.28125 30.421875 31.390625 
Q 30.421875 20.453125 26.78125 9.375 
Q 23.140625 -1.703125 15.828125 -13.1875 
L 8.015625 -13.1875 
Q 14.5 -2 17.703125 9.0625 
Q 20.90625 20.125 20.90625 31.390625 
Q 20.90625 42.671875 17.703125 53.65625 
Q 14.5 64.65625 8.015625 75.875 
" id="DejaVuSans-29"/>
     </defs>
     <g transform="translate(107.015156 342.278812)scale(0.18 -0.18)">
      <use xlink:href="#DejaVuSans-6c"/>
      <use x="27.783203" xlink:href="#DejaVuSans-6f"/>
      <use x="88.964844" xlink:href="#DejaVuSans-67"/>
      <use x="152.441406" xlink:href="#DejaVuSans-31"/>
      <use x="216.064453" xlink:href="#DejaVuSans-30"/>
      <use x="279.6875" xlink:href="#DejaVuSans-20"/>
      <use x="311.474609" xlink:href="#DejaVuSans-6f"/>
      <use x="372.65625" xlink:href="#DejaVuSans-66"/>
      <use x="407.861328" xlink:href="#DejaVuSans-20"/>
      <use x="439.648438" xlink:href="#DejaVuSans-28"/>
      <use x="478.662109" xlink:href="#DejaVuSans-23"/>
      <use x="562.451172" xlink:href="#DejaVuSans-20"/>
      <use x="594.238281" xlink:href="#DejaVuSans-66"/>
      <use x="629.365234" xlink:href="#DejaVuSans-2d"/>
      <use x="665.449219" xlink:href="#DejaVuSans-65"/>
      <use x="726.972656" xlink:href="#DejaVuSans-76"/>
      <use x="786.152344" xlink:href="#DejaVuSans-61"/>
      <use x="847.431641" xlink:href="#DejaVuSans-6c"/>
      <use x="875.214844" xlink:href="#DejaVuSans-73"/>
      <use x="927.314453" xlink:href="#DejaVuSans-20"/>
      <use x="959.101562" xlink:href="#DejaVuSans-2f"/>
      <use x="992.792969" xlink:href="#DejaVuSans-20"/>
      <use x="1024.580078" xlink:href="#DejaVuSans-64"/>
      <use x="1088.056641" xlink:href="#DejaVuSans-69"/>
      <use x="1115.839844" xlink:href="#DejaVuSans-6d"/>
      <use x="1213.251953" xlink:href="#DejaVuSans-65"/>
      <use x="1274.775391" xlink:href="#DejaVuSans-6e"/>
      <use x="1338.154297" xlink:href="#DejaVuSans-73"/>
      <use x="1390.253906" xlink:href="#DejaVuSans-69"/>
      <use x="1418.037109" xlink:href="#DejaVuSans-6f"/>
      <use x="1479.21875" xlink:href="#DejaVuSans-6e"/>
      <use x="1542.597656" xlink:href="#DejaVuSans-29"/>
     </g>
    </g>
   </g>
   <g id="matplotlib.axis_2">
    <g id="ytick_1">
     <g id="line2d_29">
      <path clip-path="url(#p79bfc93ed0)" d="M 70.8 298.245375 
L 427.92 298.245375 
" style="fill:none;stroke:#b0b0b0;stroke-linecap:square;stroke-width:0.8;"/>
     </g>
     <g id="line2d_30">
      <defs>
       <path d="M 0 0 
L -3.5 0 
" id="m13716786f5" style="stroke:#000000;stroke-width:0.8;"/>
      </defs>
      <g>
       <use style="stroke:#000000;stroke-width:0.8;" x="70.8" xlink:href="#m13716786f5" y="298.245375"/>
      </g>
     </g>
     <g id="text_7">
      <!-- 0.0 -->
      <defs>
       <path d="M 10.6875 12.40625 
L 21 12.40625 
L 21 0 
L 10.6875 0 
z
" id="DejaVuSans-2e"/>
      </defs>
      <g transform="translate(31.99375 305.843812)scale(0.2 -0.2)">
       <use xlink:href="#DejaVuSans-30"/>
       <use x="63.623047" xlink:href="#DejaVuSans-2e"/>
       <use x="95.410156" xlink:href="#DejaVuSans-30"/>
      </g>
     </g>
    </g>
    <g id="ytick_2">
     <g id="line2d_31">
      <path clip-path="url(#p79bfc93ed0)" d="M 70.8 245.549929 
L 427.92 245.549929 
" style="fill:none;stroke:#b0b0b0;stroke-linecap:square;stroke-width:0.8;"/>
     </g>
     <g id="line2d_32">
      <g>
       <use style="stroke:#000000;stroke-width:0.8;" x="70.8" xlink:href="#m13716786f5" y="245.549929"/>
      </g>
     </g>
     <g id="text_8">
      <!-- 0.2 -->
      <g transform="translate(31.99375 253.148367)scale(0.2 -0.2)">
       <use xlink:href="#DejaVuSans-30"/>
       <use x="63.623047" xlink:href="#DejaVuSans-2e"/>
       <use x="95.410156" xlink:href="#DejaVuSans-32"/>
      </g>
     </g>
    </g>
    <g id="ytick_3">
     <g id="line2d_33">
      <path clip-path="url(#p79bfc93ed0)" d="M 70.8 192.854484 
L 427.92 192.854484 
" style="fill:none;stroke:#b0b0b0;stroke-linecap:square;stroke-width:0.8;"/>
     </g>
     <g id="line2d_34">
      <g>
       <use style="stroke:#000000;stroke-width:0.8;" x="70.8" xlink:href="#m13716786f5" y="192.854484"/>
      </g>
     </g>
     <g id="text_9">
      <!-- 0.4 -->
      <g transform="translate(31.99375 200.452921)scale(0.2 -0.2)">
       <use xlink:href="#DejaVuSans-30"/>
       <use x="63.623047" xlink:href="#DejaVuSans-2e"/>
       <use x="95.410156" xlink:href="#DejaVuSans-34"/>
      </g>
     </g>
    </g>
    <g id="ytick_4">
     <g id="line2d_35">
      <path clip-path="url(#p79bfc93ed0)" d="M 70.8 140.159038 
L 427.92 140.159038 
" style="fill:none;stroke:#b0b0b0;stroke-linecap:square;stroke-width:0.8;"/>
     </g>
     <g id="line2d_36">
      <g>
       <use style="stroke:#000000;stroke-width:0.8;" x="70.8" xlink:href="#m13716786f5" y="140.159038"/>
      </g>
     </g>
     <g id="text_10">
      <!-- 0.6 -->
      <g transform="translate(31.99375 147.757476)scale(0.2 -0.2)">
       <use xlink:href="#DejaVuSans-30"/>
       <use x="63.623047" xlink:href="#DejaVuSans-2e"/>
       <use x="95.410156" xlink:href="#DejaVuSans-36"/>
      </g>
     </g>
    </g>
    <g id="ytick_5">
     <g id="line2d_37">
      <path clip-path="url(#p79bfc93ed0)" d="M 70.8 87.463593 
L 427.92 87.463593 
" style="fill:none;stroke:#b0b0b0;stroke-linecap:square;stroke-width:0.8;"/>
     </g>
     <g id="line2d_38">
      <g>
       <use style="stroke:#000000;stroke-width:0.8;" x="70.8" xlink:href="#m13716786f5" y="87.463593"/>
      </g>
     </g>
     <g id="text_11">
      <!-- 0.8 -->
      <g transform="translate(31.99375 95.06203)scale(0.2 -0.2)">
       <use xlink:href="#DejaVuSans-30"/>
       <use x="63.623047" xlink:href="#DejaVuSans-2e"/>
       <use x="95.410156" xlink:href="#DejaVuSans-38"/>
      </g>
     </g>
    </g>
    <g id="ytick_6">
     <g id="line2d_39">
      <path clip-path="url(#p79bfc93ed0)" d="M 70.8 34.768147 
L 427.92 34.768147 
" style="fill:none;stroke:#b0b0b0;stroke-linecap:square;stroke-width:0.8;"/>
     </g>
     <g id="line2d_40">
      <g>
       <use style="stroke:#000000;stroke-width:0.8;" x="70.8" xlink:href="#m13716786f5" y="34.768147"/>
      </g>
     </g>
     <g id="text_12">
      <!-- 1.0 -->
      <g transform="translate(31.99375 42.366585)scale(0.2 -0.2)">
       <use xlink:href="#DejaVuSans-31"/>
       <use x="63.623047" xlink:href="#DejaVuSans-2e"/>
       <use x="95.410156" xlink:href="#DejaVuSans-30"/>
      </g>
     </g>
    </g>
    <g id="text_13">
     <!-- Proportion of function+target pairs -->
     <defs>
      <path d="M 19.671875 64.796875 
L 19.671875 37.40625 
L 32.078125 37.40625 
Q 38.96875 37.40625 42.71875 40.96875 
Q 46.484375 44.53125 46.484375 51.125 
Q 46.484375 57.671875 42.71875 61.234375 
Q 38.96875 64.796875 32.078125 64.796875 
z
M 9.8125 72.90625 
L 32.078125 72.90625 
Q 44.34375 72.90625 50.609375 67.359375 
Q 56.890625 61.8125 56.890625 51.125 
Q 56.890625 40.328125 50.609375 34.8125 
Q 44.34375 29.296875 32.078125 29.296875 
L 19.671875 29.296875 
L 19.671875 0 
L 9.8125 0 
z
" id="DejaVuSans-50"/>
      <path d="M 41.109375 46.296875 
Q 39.59375 47.171875 37.8125 47.578125 
Q 36.03125 48 33.890625 48 
Q 26.265625 48 22.1875 43.046875 
Q 18.109375 38.09375 18.109375 28.8125 
L 18.109375 0 
L 9.078125 0 
L 9.078125 54.6875 
L 18.109375 54.6875 
L 18.109375 46.1875 
Q 20.953125 51.171875 25.484375 53.578125 
Q 30.03125 56 36.53125 56 
Q 37.453125 56 38.578125 55.875 
Q 39.703125 55.765625 41.0625 55.515625 
z
" id="DejaVuSans-72"/>
      <path d="M 18.109375 8.203125 
L 18.109375 -20.796875 
L 9.078125 -20.796875 
L 9.078125 54.6875 
L 18.109375 54.6875 
L 18.109375 46.390625 
Q 20.953125 51.265625 25.265625 53.625 
Q 29.59375 56 35.59375 56 
Q 45.5625 56 51.78125 48.09375 
Q 58.015625 40.1875 58.015625 27.296875 
Q 58.015625 14.40625 51.78125 6.484375 
Q 45.5625 -1.421875 35.59375 -1.421875 
Q 29.59375 -1.421875 25.265625 0.953125 
Q 20.953125 3.328125 18.109375 8.203125 
M 48.6875 27.296875 
Q 48.6875 37.203125 44.609375 42.84375 
Q 40.53125 48.484375 33.40625 48.484375 
Q 26.265625 48.484375 22.1875 42.84375 
Q 18.109375 37.203125 18.109375 27.296875 
Q 18.109375 17.390625 22.1875 11.75 
Q 26.265625 6.109375 33.40625 6.109375 
Q 40.53125 6.109375 44.609375 11.75 
Q 48.6875 17.390625 48.6875 27.296875 
" id="DejaVuSans-70"/>
      <path d="M 18.3125 70.21875 
L 18.3125 54.6875 
L 36.8125 54.6875 
L 36.8125 47.703125 
L 18.3125 47.703125 
L 18.3125 18.015625 
Q 18.3125 11.328125 20.140625 9.421875 
Q 21.96875 7.515625 27.59375 7.515625 
L 36.8125 7.515625 
L 36.8125 0 
L 27.59375 0 
Q 17.1875 0 13.234375 3.875 
Q 9.28125 7.765625 9.28125 18.015625 
L 9.28125 47.703125 
L 2.6875 47.703125 
L 2.6875 54.6875 
L 9.28125 54.6875 
L 9.28125 70.21875 
z
" id="DejaVuSans-74"/>
      <path d="M 8.5 21.578125 
L 8.5 54.6875 
L 17.484375 54.6875 
L 17.484375 21.921875 
Q 17.484375 14.15625 20.5 10.265625 
Q 23.53125 6.390625 29.59375 6.390625 
Q 36.859375 6.390625 41.078125 11.03125 
Q 45.3125 15.671875 45.3125 23.6875 
L 45.3125 54.6875 
L 54.296875 54.6875 
L 54.296875 0 
L 45.3125 0 
L 45.3125 8.40625 
Q 42.046875 3.421875 37.71875 1 
Q 33.40625 -1.421875 27.6875 -1.421875 
Q 18.265625 -1.421875 13.375 4.4375 
Q 8.5 10.296875 8.5 21.578125 
M 31.109375 56 
z
" id="DejaVuSans-75"/>
      <path d="M 48.78125 52.59375 
L 48.78125 44.1875 
Q 44.96875 46.296875 41.140625 47.34375 
Q 37.3125 48.390625 33.40625 48.390625 
Q 24.65625 48.390625 19.8125 42.84375 
Q 14.984375 37.3125 14.984375 27.296875 
Q 14.984375 17.28125 19.8125 11.734375 
Q 24.65625 6.203125 33.40625 6.203125 
Q 37.3125 6.203125 41.140625 7.25 
Q 44.96875 8.296875 48.78125 10.40625 
L 48.78125 2.09375 
Q 45.015625 0.34375 40.984375 -0.53125 
Q 36.96875 -1.421875 32.421875 -1.421875 
Q 20.0625 -1.421875 12.78125 6.34375 
Q 5.515625 14.109375 5.515625 27.296875 
Q 5.515625 40.671875 12.859375 48.328125 
Q 20.21875 56 33.015625 56 
Q 37.15625 56 41.109375 55.140625 
Q 45.0625 54.296875 48.78125 52.59375 
" id="DejaVuSans-63"/>
      <path d="M 46 62.703125 
L 46 35.5 
L 73.1875 35.5 
L 73.1875 27.203125 
L 46 27.203125 
L 46 0 
L 37.796875 0 
L 37.796875 27.203125 
L 10.59375 27.203125 
L 10.59375 35.5 
L 37.796875 35.5 
L 37.796875 62.703125 
z
" id="DejaVuSans-2b"/>
     </defs>
     <g transform="translate(24.250312 323.17875)rotate(-90)scale(0.18 -0.18)">
      <use xlink:href="#DejaVuSans-50"/>
      <use x="60.287109" xlink:href="#DejaVuSans-72"/>
      <use x="101.369141" xlink:href="#DejaVuSans-6f"/>
      <use x="162.550781" xlink:href="#DejaVuSans-70"/>
      <use x="226.027344" xlink:href="#DejaVuSans-6f"/>
      <use x="287.208984" xlink:href="#DejaVuSans-72"/>
      <use x="328.322266" xlink:href="#DejaVuSans-74"/>
      <use x="367.53125" xlink:href="#DejaVuSans-69"/>
      <use x="395.314453" xlink:href="#DejaVuSans-6f"/>
      <use x="456.496094" xlink:href="#DejaVuSans-6e"/>
      <use x="519.875" xlink:href="#DejaVuSans-20"/>
      <use x="551.662109" xlink:href="#DejaVuSans-6f"/>
      <use x="612.84375" xlink:href="#DejaVuSans-66"/>
      <use x="648.048828" xlink:href="#DejaVuSans-20"/>
      <use x="679.835938" xlink:href="#DejaVuSans-66"/>
      <use x="715.041016" xlink:href="#DejaVuSans-75"/>
      <use x="778.419922" xlink:href="#DejaVuSans-6e"/>
      <use x="841.798828" xlink:href="#DejaVuSans-63"/>
      <use x="896.779297" xlink:href="#DejaVuSans-74"/>
      <use x="935.988281" xlink:href="#DejaVuSans-69"/>
      <use x="963.771484" xlink:href="#DejaVuSans-6f"/>
      <use x="1024.953125" xlink:href="#DejaVuSans-6e"/>
      <use x="1088.332031" xlink:href="#DejaVuSans-2b"/>
      <use x="1172.121094" xlink:href="#DejaVuSans-74"/>
      <use x="1211.330078" xlink:href="#DejaVuSans-61"/>
      <use x="1272.609375" xlink:href="#DejaVuSans-72"/>
      <use x="1313.707031" xlink:href="#DejaVuSans-67"/>
      <use x="1377.183594" xlink:href="#DejaVuSans-65"/>
      <use x="1438.707031" xlink:href="#DejaVuSans-74"/>
      <use x="1477.916016" xlink:href="#DejaVuSans-20"/>
      <use x="1509.703125" xlink:href="#DejaVuSans-70"/>
      <use x="1573.179688" xlink:href="#DejaVuSans-61"/>
      <use x="1634.458984" xlink:href="#DejaVuSans-69"/>
      <use x="1662.242188" xlink:href="#DejaVuSans-72"/>
      <use x="1703.355469" xlink:href="#DejaVuSans-73"/>
     </g>
    </g>
   </g>
   <g id="line2d_41">
    <defs>
     <path d="M 0 1.5 
C 0.397805 1.5 0.77937 1.341951 1.06066 1.06066 
C 1.341951 0.77937 1.5 0.397805 1.5 0 
C 1.5 -0.397805 1.341951 -0.77937 1.06066 -1.06066 
C 0.77937 -1.341951 0.397805 -1.5 0 -1.5 
C -0.397805 -1.5 -0.77937 -1.341951 -1.06066 -1.06066 
C -1.341951 -0.77937 -1.5 -0.397805 -1.5 0 
C -1.5 0.397805 -1.341951 0.77937 -1.06066 1.06066 
C -0.77937 1.341951 -0.397805 1.5 0 1.5 
z
" id="m1fa18b823b" style="stroke:#000080;"/>
    </defs>
    <g>
     <use style="fill:#000080;stroke:#000080;" x="243.13986" xlink:href="#m1fa18b823b" y="143.25877"/>
     <use style="fill:#000080;stroke:#000080;" x="243.13986" xlink:href="#m1fa18b823b" y="143.25877"/>
    </g>
   </g>
   <g id="line2d_42">
    <path d="M 58.414766 298.245375 
L 58.414766 296.695509 
L 83.185234 296.695509 
L 83.185234 296.178887 
L 95.570468 296.178887 
L 95.570468 294.629021 
L 97.675029 294.629021 
L 97.675029 293.079155 
L 99.557623 293.079155 
L 99.557623 288.946179 
L 101.260636 288.946179 
L 101.260636 287.396313 
L 105.569748 287.396313 
L 105.569748 286.879691 
L 106.802521 286.879691 
L 106.802521 285.329825 
L 110.060263 285.329825 
L 110.060263 283.779959 
L 111.026343 283.779959 
L 111.026343 275.514006 
L 115.930012 275.514006 
L 115.930012 273.96414 
L 116.630812 273.96414 
L 116.630812 270.347786 
L 117.305161 270.347786 
L 117.305161 269.314542 
L 123.411577 269.314542 
L 123.411577 264.148322 
L 123.87571 264.148322 
L 123.87571 262.081834 
L 124.328091 262.081834 
L 124.328091 261.565212 
L 125.19988 261.565212 
L 125.19988 258.982102 
L 125.620325 258.982102 
L 125.620325 257.432236 
L 126.031105 257.432236 
L 126.031105 255.88237 
L 127.209649 255.88237 
L 127.209649 255.365748 
L 128.315246 255.365748 
L 128.315246 252.782638 
L 129.016046 252.782638 
L 129.016046 252.266016 
L 129.356402 252.266016 
L 129.356402 251.232772 
L 130.018259 251.232772 
L 130.018259 249.682906 
L 130.340216 249.682906 
L 130.340216 246.583173 
L 132.726171 246.583173 
L 132.726171 246.066551 
L 133.809418 246.066551 
L 133.809418 245.549929 
L 135.3203 245.549929 
L 135.3203 245.033307 
L 136.260944 245.033307 
L 136.260944 241.933575 
L 139.015326 241.933575 
L 139.015326 241.416953 
L 139.210608 241.416953 
L 139.210608 240.900331 
L 140.70048 240.900331 
L 140.70048 239.867087 
L 141.22864 239.867087 
L 141.22864 239.350465 
L 142.565197 239.350465 
L 142.565197 238.833843 
L 149.970348 238.833843 
L 149.970348 238.317221 
L 151.692688 238.317221 
L 151.692688 237.283977 
L 152.99615 237.283977 
L 152.99615 236.767355 
L 153.263508 236.767355 
L 153.263508 236.250733 
L 154.543395 236.250733 
L 154.543395 235.217489 
L 156.193932 235.217489 
L 156.193932 234.700867 
L 164.365352 234.700867 
L 164.365352 234.184245 
L 165.824784 234.184245 
L 165.824784 233.151001 
L 166.085637 233.151001 
L 166.128745 232.117757 
L 166.257447 232.117757 
L 166.300143 229.534647 
L 166.554196 229.534647 
L 166.596189 227.468159 
L 167.092558 227.468159 
L 167.092558 226.951537 
L 167.254996 226.951537 
L 167.254996 225.401671 
L 167.375863 225.401671 
L 167.45599 223.335183 
L 167.654747 223.335183 
L 167.654747 222.818561 
L 167.772949 222.818561 
L 167.812177 220.752073 
L 168.122934 220.752073 
L 168.122934 220.235451 
L 168.503932 220.235451 
L 168.503932 219.718829 
L 168.654085 219.718829 
L 168.654085 218.168963 
L 169.133547 218.168963 
L 169.169902 216.619097 
L 169.278523 216.619097 
L 169.278523 216.102475 
L 169.564992 216.102475 
L 169.564992 214.552609 
L 171.128599 214.552609 
L 171.128599 214.035987 
L 171.736526 214.035987 
L 171.736526 213.519365 
L 172.048368 213.519365 
L 172.048368 213.002743 
L 176.963163 213.002743 
L 176.963163 212.48612 
L 178.275589 212.48612 
L 178.275589 210.936254 
L 178.427659 210.936254 
L 178.427659 210.419632 
L 178.770463 210.419632 
L 178.876255 208.353144 
L 178.93943 208.353144 
L 179.044229 204.73679 
L 179.801206 204.73679 
L 179.801206 203.703546 
L 180.177808 203.703546 
L 180.177808 202.670302 
L 180.908004 202.670302 
L 180.908004 202.15368 
L 181.262209 202.15368 
L 181.262209 201.637058 
L 181.82546 201.637058 
L 181.879038 200.603814 
L 182.749128 200.603814 
L 182.749128 199.57057 
L 185.381775 199.57057 
L 185.381775 199.053948 
L 185.65813 199.053948 
L 185.65813 198.537326 
L 185.787557 198.537326 
L 185.787557 198.020704 
L 185.901822 198.020704 
L 185.901822 196.470838 
L 186.085958 196.470838 
L 186.085958 195.954216 
L 186.226321 195.954216 
L 186.226321 194.920972 
L 187.701647 194.920972 
L 187.701647 193.371106 
L 190.452351 193.371106 
L 190.452351 190.787996 
L 190.758731 190.787996 
L 190.758731 189.754752 
L 191.091921 189.754752 
L 191.091921 188.204886 
L 192.719267 188.204886 
L 192.719267 187.688264 
L 192.854852 187.688264 
L 192.854852 187.171642 
L 193.443234 187.171642 
L 193.443234 186.65502 
L 194.397517 186.65502 
L 194.397517 186.138398 
L 194.912183 186.138398 
L 194.912183 185.105154 
L 195.032161 185.105154 
L 195.057766 182.522044 
L 196.237581 182.522044 
L 196.237581 182.005422 
L 197.627213 182.005422 
L 197.627213 181.4888 
L 197.89117 181.4888 
L 197.89117 180.972178 
L 198.057791 180.972178 
L 198.057791 179.422312 
L 198.179954 179.422312 
L 198.179954 177.872445 
L 199.990069 177.872445 
L 199.990069 177.355823 
L 200.361535 177.355823 
L 200.361535 174.772713 
L 200.588275 174.772713 
L 200.588275 174.256091 
L 200.731644 174.256091 
L 200.731644 173.739469 
L 201.401853 173.739469 
L 201.401853 172.706225 
L 201.698377 172.706225 
L 201.698377 172.189603 
L 202.139874 172.189603 
L 202.139874 171.672981 
L 202.732429 171.672981 
L 202.732429 171.156359 
L 202.859644 171.156359 
L 202.88718 170.123115 
L 203.133113 170.123115 
L 203.133113 168.573249 
L 203.646723 168.573249 
L 203.646723 168.056627 
L 204.611692 168.056627 
L 204.611692 167.540005 
L 204.96298 167.540005 
L 204.96298 167.023383 
L 206.438737 167.023383 
L 206.438737 166.506761 
L 206.822532 166.506761 
L 206.822532 165.990139 
L 206.95888 165.990139 
L 207.020117 164.440273 
L 207.434469 164.440273 
L 207.434469 163.923651 
L 208.506671 163.923651 
L 208.538786 162.890407 
L 208.686573 162.890407 
L 208.686573 162.373785 
L 209.942137 162.373785 
L 209.942137 161.340541 
L 210.159571 161.340541 
L 210.159571 160.823919 
L 211.366929 160.823919 
L 211.366929 160.307297 
L 212.686452 160.307297 
L 212.686452 159.274053 
L 212.917093 159.274053 
L 212.926508 158.240809 
L 213.915196 158.240809 
L 213.915196 157.724187 
L 214.089492 157.724187 
L 214.089492 157.207565 
L 215.064852 157.207565 
L 215.064852 156.174321 
L 215.529199 156.174321 
L 215.529199 155.141077 
L 217.163536 155.141077 
L 217.163536 154.107833 
L 219.121463 154.107833 
L 219.20335 152.557967 
L 220.035981 152.557967 
L 220.065462 151.524723 
L 220.266324 151.524723 
L 220.266324 151.008101 
L 220.859732 151.008101 
L 220.887886 149.974857 
L 221.533186 149.974857 
L 221.533186 149.458235 
L 222.401374 149.458235 
L 222.427203 148.424991 
L 225.098695 148.424991 
L 225.098695 147.908369 
L 229.598204 147.908369 
L 229.598204 147.391747 
L 230.49008 147.391747 
L 230.49008 146.875125 
L 230.953641 146.875125 
L 230.953641 146.358503 
L 232.338829 146.358503 
L 232.338829 145.841881 
L 232.757354 145.841881 
L 232.771827 144.808637 
L 234.283881 144.808637 
L 234.283881 144.292014 
L 236.489957 144.292014 
L 236.489957 143.775392 
L 243.13986 143.775392 
L 243.13986 143.25877 
L 358.8 143.25877 
L 358.8 143.25877 
" style="fill:none;stroke:#000080;stroke-linecap:square;stroke-width:1.5;"/>
   </g>
   <g id="line2d_43">
    <defs>
     <path d="M 0 6 
C 1.591219 6 3.117479 5.367802 4.242641 4.242641 
C 5.367802 3.117479 6 1.591219 6 0 
C 6 -1.591219 5.367802 -3.117479 4.242641 -4.242641 
C 3.117479 -5.367802 1.591219 -6 0 -6 
C -1.591219 -6 -3.117479 -5.367802 -4.242641 -4.242641 
C -5.367802 -3.117479 -6 -1.591219 -6 0 
C -6 1.591219 -5.367802 3.117479 -4.242641 4.242641 
C -3.117479 5.367802 -1.591219 6 0 6 
z
" id="mdf82bd0bcd" style="stroke:#000080;stroke-width:1.5;"/>
    </defs>
    <g>
     <use style="fill:none;stroke:#000080;stroke-width:1.5;" x="128.315246" xlink:href="#mdf82bd0bcd" y="255.365748"/>
     <use style="fill:none;stroke:#000080;stroke-width:1.5;" x="167.375863" xlink:href="#mdf82bd0bcd" y="224.885049"/>
     <use style="fill:none;stroke:#000080;stroke-width:1.5;" x="206.822532" xlink:href="#mdf82bd0bcd" y="165.990139"/>
     <use style="fill:none;stroke:#000080;stroke-width:1.5;" x="243.13986" xlink:href="#mdf82bd0bcd" y="143.775392"/>
     <use style="fill:none;stroke:#000080;stroke-width:1.5;" x="243.13986" xlink:href="#mdf82bd0bcd" y="143.25877"/>
     <use style="fill:none;stroke:#000080;stroke-width:1.5;" x="358.8" xlink:href="#mdf82bd0bcd" y="143.25877"/>
    </g>
   </g>
   <g id="line2d_44"/>
   <g id="line2d_45">
    <path clip-path="url(#p79bfc93ed0)" d="M 165.470948 234.184245 
" style="fill:none;stroke:#000080;stroke-linecap:square;stroke-width:1.5;"/>
    <defs>
     <path d="M -12 12 
L 12 -12 
M -12 -12 
L 12 12 
" id="mac3f2821cc" style="stroke:#000080;stroke-width:3;"/>
    </defs>
    <g clip-path="url(#p79bfc93ed0)">
     <use style="fill:#000080;stroke:#000080;stroke-width:3;" x="165.470948" xlink:href="#mac3f2821cc" y="234.184245"/>
    </g>
   </g>
   <g id="line2d_46">
    <defs>
     <path d="M 0 1.5 
C 0.397805 1.5 0.77937 1.341951 1.06066 1.06066 
C 1.341951 0.77937 1.5 0.397805 1.5 0 
C 1.5 -0.397805 1.341951 -0.77937 1.06066 -1.06066 
C 0.77937 -1.341951 0.397805 -1.5 0 -1.5 
C -0.397805 -1.5 -0.77937 -1.341951 -1.06066 -1.06066 
C -1.341951 -0.77937 -1.5 -0.397805 -1.5 0 
C -1.5 0.397805 -1.341951 0.77937 -1.06066 1.06066 
C -0.77937 1.341951 -0.397805 1.5 0 1.5 
z
" id="m6c9aae9623" style="stroke:#ff00ff;"/>
    </defs>
    <g>
     <use style="fill:#ff00ff;stroke:#ff00ff;" x="239.074013" xlink:href="#m6c9aae9623" y="153.591211"/>
     <use style="fill:#ff00ff;stroke:#ff00ff;" x="239.074013" xlink:href="#m6c9aae9623" y="153.591211"/>
    </g>
   </g>
   <g id="line2d_47">
    <path d="M 58.414766 298.245375 
L 58.414766 297.212131 
L 70.8 297.212131 
L 70.8 294.112399 
L 78.044898 294.112399 
L 78.044898 293.595777 
L 90.430132 293.595777 
L 90.430132 293.079155 
L 99.557623 293.079155 
L 99.557623 290.496045 
L 104.245578 290.496045 
L 104.245578 288.429557 
L 106.802521 288.429557 
L 106.802521 284.813203 
L 109.03895 284.813203 
L 109.03895 283.263337 
L 111.942857 283.263337 
L 111.942857 282.230093 
L 115.2006 282.230093 
L 115.2006 281.713471 
L 115.930012 281.713471 
L 115.930012 281.196849 
L 116.630812 281.196849 
L 116.630812 276.030628 
L 117.954982 276.030628 
L 117.954982 273.447518 
L 118.581998 273.447518 
L 118.581998 272.930896 
L 121.424184 272.930896 
L 121.424184 269.314542 
L 121.942137 269.314542 
L 121.942137 268.281298 
L 123.411577 268.281298 
L 123.411577 265.181566 
L 123.87571 265.181566 
L 123.87571 264.664944 
L 125.19988 264.664944 
L 125.19988 263.115078 
L 126.031105 263.115078 
L 126.031105 260.015346 
L 126.825374 260.015346 
L 126.825374 258.46548 
L 127.585834 258.46548 
L 127.585834 257.948858 
L 127.954262 257.948858 
L 127.954262 256.915614 
L 129.356402 256.915614 
L 129.356402 256.398992 
L 130.340216 256.398992 
L 130.340216 253.815882 
L 131.272677 253.815882 
L 131.272677 251.232772 
L 132.158881 251.232772 
L 132.158881 249.682906 
L 134.580824 249.682906 
L 134.580824 249.166284 
L 134.830731 249.166284 
L 134.830731 245.549929 
L 135.3203 245.549929 
L 135.3203 242.966819 
L 135.796811 242.966819 
L 135.796811 241.933575 
L 136.935292 241.933575 
L 136.935292 241.416953 
L 137.154536 241.416953 
L 137.154536 240.900331 
L 139.971068 240.900331 
L 139.971068 240.383709 
L 140.5209 240.383709 
L 140.5209 238.317221 
L 142.565197 238.317221 
L 142.565197 237.800599 
L 151.103576 237.800599 
L 151.103576 237.283977 
L 163.43883 237.283977 
L 163.43883 236.767355 
L 165.560066 236.767355 
L 165.560066 236.250733 
L 166.554196 236.250733 
L 166.596189 233.151001 
L 166.679881 233.151001 
L 166.679881 231.601135 
L 166.928629 231.601135 
L 166.969752 230.051269 
L 167.092558 230.051269 
L 167.092558 229.534647 
L 167.254996 229.534647 
L 167.335665 227.984781 
L 167.415972 227.984781 
L 167.415972 226.434915 
L 167.929345 226.434915 
L 167.929345 225.918293 
L 168.04575 225.918293 
L 168.04575 223.851805 
L 168.42838 223.851805 
L 168.503932 221.785317 
L 168.765878 221.785317 
L 168.765878 221.268695 
L 169.314583 221.268695 
L 169.422331 219.202207 
L 169.84694 219.202207 
L 169.84694 218.685585 
L 173.157056 218.685585 
L 173.157056 218.168963 
L 176.244509 218.168963 
L 176.244509 217.135719 
L 176.939668 217.135719 
L 176.939668 216.619097 
L 178.492438 216.619097 
L 178.492438 216.102475 
L 178.621295 216.102475 
L 178.621295 215.585853 
L 178.770463 215.585853 
L 178.855147 212.48612 
L 179.127627 212.48612 
L 179.189922 209.90301 
L 179.396016 209.90301 
L 179.436951 207.3199 
L 179.881153 207.3199 
L 179.940879 204.220168 
L 180.177808 204.220168 
L 180.177808 203.703546 
L 180.508168 203.703546 
L 180.508168 203.186924 
L 181.464111 203.186924 
L 181.464111 202.670302 
L 182.003431 202.670302 
L 182.109369 201.637058 
L 184.449053 201.637058 
L 184.495323 200.603814 
L 185.484088 200.603814 
L 185.484088 199.57057 
L 185.744519 199.57057 
L 185.816192 198.020704 
L 186.001208 198.020704 
L 186.001208 196.98746 
L 186.142236 196.98746 
L 186.170308 194.920972 
L 186.476229 194.920972 
L 186.517542 193.371106 
L 186.681848 193.371106 
L 186.681848 192.337862 
L 190.660823 192.337862 
L 190.660823 191.82124 
L 191.027915 191.82124 
L 191.027915 191.304618 
L 191.282572 191.304618 
L 191.314151 189.754752 
L 191.439909 189.754752 
L 191.439909 189.23813 
L 192.395542 189.23813 
L 192.395542 188.721508 
L 194.538559 188.721508 
L 194.634883 187.688264 
L 194.722002 187.688264 
L 194.774071 186.65502 
L 195.066293 186.65502 
L 195.091849 184.588532 
L 195.760206 184.588532 
L 195.760206 184.07191 
L 197.825546 184.07191 
L 197.825546 183.555288 
L 197.942046 183.555288 
L 198.028925 182.005422 
L 198.208578 182.005422 
L 198.208578 179.422312 
L 198.950855 179.422312 
L 198.950855 178.90569 
L 200.405849 178.90569 
L 200.405849 178.389067 
L 200.75026 178.389067 
L 200.75026 177.872445 
L 200.86155 177.872445 
L 200.935359 176.839201 
L 201.503224 176.839201 
L 201.526993 175.805957 
L 203.154811 175.805957 
L 203.171067 173.222847 
L 203.736156 173.222847 
L 203.736156 172.706225 
L 205.085047 172.706225 
L 205.085047 172.189603 
L 205.273822 172.189603 
L 205.273822 171.672981 
L 207.050657 171.672981 
L 207.050657 170.123115 
L 207.506853 170.123115 
L 207.506853 169.089871 
L 208.714395 169.089871 
L 208.714395 167.023383 
L 210.236329 167.023383 
L 210.236329 165.473517 
L 212.822669 165.473517 
L 212.929645 164.440273 
L 212.939053 164.440273 
L 212.939053 163.923651 
L 214.458999 163.923651 
L 214.458999 163.407029 
L 215.286166 163.407029 
L 215.319128 162.373785 
L 216.353396 162.373785 
L 216.353396 161.857163 
L 217.353113 161.857163 
L 217.389811 160.823919 
L 218.313778 160.823919 
L 218.313778 160.307297 
L 219.212181 160.307297 
L 219.212181 159.790675 
L 220.080185 159.790675 
L 220.105396 158.757431 
L 220.901947 158.757431 
L 220.901947 157.724187 
L 223.162219 157.724187 
L 223.162219 157.207565 
L 224.035776 157.207565 
L 224.035776 156.690943 
L 224.524388 156.690943 
L 224.524388 156.174321 
L 229.754259 156.174321 
L 229.754259 155.657699 
L 230.58376 155.657699 
L 230.58376 155.141077 
L 231.044928 155.141077 
L 231.044928 154.624455 
L 234.359678 154.624455 
L 234.359678 154.107833 
L 239.074013 154.107833 
L 239.074013 153.591211 
L 358.8 153.591211 
L 358.8 153.591211 
" style="fill:none;stroke:#ff00ff;stroke-linecap:square;stroke-width:1.5;"/>
   </g>
   <g id="line2d_48">
    <defs>
     <path d="M -0 8.485281 
L 5.091169 0 
L 0 -8.485281 
L -5.091169 -0 
z
" id="m6cd57f1cf5" style="stroke:#ff00ff;stroke-linejoin:miter;stroke-width:1.5;"/>
    </defs>
    <g>
     <use style="fill:none;stroke:#ff00ff;stroke-linejoin:miter;stroke-width:1.5;" x="90.430132" xlink:href="#m6cd57f1cf5" y="293.079155"/>
     <use style="fill:none;stroke:#ff00ff;stroke-linejoin:miter;stroke-width:1.5;" x="151.103576" xlink:href="#m6cd57f1cf5" y="237.283977"/>
     <use style="fill:none;stroke:#ff00ff;stroke-linejoin:miter;stroke-width:1.5;" x="185.816192" xlink:href="#m6cd57f1cf5" y="198.537326"/>
     <use style="fill:none;stroke:#ff00ff;stroke-linejoin:miter;stroke-width:1.5;" x="239.074013" xlink:href="#m6cd57f1cf5" y="154.107833"/>
     <use style="fill:none;stroke:#ff00ff;stroke-linejoin:miter;stroke-width:1.5;" x="239.074013" xlink:href="#m6cd57f1cf5" y="153.591211"/>
     <use style="fill:none;stroke:#ff00ff;stroke-linejoin:miter;stroke-width:1.5;" x="358.8" xlink:href="#m6cd57f1cf5" y="153.591211"/>
    </g>
   </g>
   <g id="line2d_49"/>
   <g id="line2d_50">
    <path clip-path="url(#p79bfc93ed0)" d="M 165.470948 236.767355 
" style="fill:none;stroke:#ff00ff;stroke-linecap:square;stroke-width:1.5;"/>
    <defs>
     <path d="M -12 12 
L 12 -12 
M -12 -12 
L 12 12 
" id="m0a4d84dba7" style="stroke:#ff00ff;stroke-width:3;"/>
    </defs>
    <g clip-path="url(#p79bfc93ed0)">
     <use style="fill:#ff00ff;stroke:#ff00ff;stroke-width:3;" x="165.470948" xlink:href="#m0a4d84dba7" y="236.767355"/>
    </g>
   </g>
   <g id="line2d_51">
    <defs>
     <path d="M 0 1.5 
C 0.397805 1.5 0.77937 1.341951 1.06066 1.06066 
C 1.341951 0.77937 1.5 0.397805 1.5 0 
C 1.5 -0.397805 1.341951 -0.77937 1.06066 -1.06066 
C 0.77937 -1.341951 0.397805 -1.5 0 -1.5 
C -0.397805 -1.5 -0.77937 -1.341951 -1.06066 -1.06066 
C -1.341951 -0.77937 -1.5 -0.397805 -1.5 0 
C -1.5 0.397805 -1.341951 0.77937 -1.06066 1.06066 
C -0.77937 1.341951 -0.397805 1.5 0 1.5 
z
" id="m20f9627963" style="stroke:#ffa500;"/>
    </defs>
    <g>
     <use style="fill:#ffa500;stroke:#ffa500;" x="184.200232" xlink:href="#m20f9627963" y="34.768147"/>
     <use style="fill:#ffa500;stroke:#ffa500;" x="184.200232" xlink:href="#m20f9627963" y="34.768147"/>
    </g>
   </g>
   <g id="line2d_52">
    <path d="M 58.414766 298.245375 
L 58.414766 290.496045 
L 78.044898 290.496045 
L 78.044898 289.979423 
L 90.430132 289.979423 
L 90.430132 287.912935 
L 102.815366 287.912935 
L 102.815366 285.846447 
L 104.245578 285.846447 
L 104.245578 284.296581 
L 109.03895 284.296581 
L 109.03895 283.779959 
L 110.060263 283.779959 
L 110.060263 283.263337 
L 111.026343 283.263337 
L 111.026343 281.713471 
L 113.64587 281.713471 
L 113.64587 281.196849 
L 114.44014 281.196849 
L 114.44014 278.097116 
L 115.2006 278.097116 
L 115.2006 276.030628 
L 115.930012 276.030628 
L 115.930012 275.514006 
L 119.187755 275.514006 
L 119.187755 271.38103 
L 120.340936 271.38103 
L 120.340936 268.281298 
L 121.942137 268.281298 
L 121.942137 266.731432 
L 123.411577 266.731432 
L 123.411577 265.698188 
L 123.87571 265.698188 
L 123.87571 265.181566 
L 124.328091 265.181566 
L 124.328091 264.664944 
L 125.620325 264.664944 
L 125.620325 263.115078 
L 126.432652 263.115078 
L 126.432652 261.565212 
L 127.209649 261.565212 
L 127.209649 260.531968 
L 127.954262 260.531968 
L 127.954262 254.849126 
L 128.669082 254.849126 
L 128.669082 254.332504 
L 129.016046 254.332504 
L 129.016046 250.71615 
L 129.356402 250.71615 
L 129.356402 249.682906 
L 129.690395 249.682906 
L 129.690395 247.616418 
L 130.656474 247.616418 
L 130.656474 246.066551 
L 131.272677 246.066551 
L 131.272677 245.549929 
L 131.868336 245.549929 
L 131.868336 244.516685 
L 132.444777 244.516685 
L 132.444777 244.000063 
L 132.726171 244.000063 
L 132.726171 242.966819 
L 133.276002 242.966819 
L 133.276002 239.867087 
L 133.544701 239.867087 
L 133.544701 239.350465 
L 134.070271 239.350465 
L 134.070271 238.317221 
L 134.327371 238.317221 
L 134.327371 236.767355 
L 134.830731 236.767355 
L 134.830731 235.734111 
L 135.3203 235.734111 
L 135.3203 235.217489 
L 135.560144 235.217489 
L 135.560144 233.667623 
L 135.796811 233.667623 
L 135.796811 231.601135 
L 136.030384 231.601135 
L 136.030384 231.084513 
L 136.713325 231.084513 
L 136.713325 229.534647 
L 136.935292 229.534647 
L 136.935292 228.501403 
L 137.796573 228.501403 
L 137.796573 227.468159 
L 138.416339 227.468159 
L 138.416339 226.434915 
L 138.817886 226.434915 
L 138.817886 225.401671 
L 139.210608 225.401671 
L 139.210608 224.885049 
L 139.594883 224.885049 
L 139.594883 223.335183 
L 140.156232 223.335183 
L 140.156232 222.818561 
L 140.339496 222.818561 
L 140.339496 221.785317 
L 140.5209 221.785317 
L 140.5209 220.752073 
L 140.70048 220.752073 
L 140.70048 218.685585 
L 141.22864 218.685585 
L 141.22864 217.652341 
L 141.909413 217.652341 
L 141.909413 216.102475 
L 142.240313 216.102475 
L 142.240313 214.552609 
L 142.403494 214.552609 
L 142.403494 213.519365 
L 143.041708 213.519365 
L 143.041708 210.936254 
L 143.808698 210.936254 
L 143.808698 208.353144 
L 143.958223 208.353144 
L 143.958223 207.836522 
L 144.399433 207.836522 
L 144.399433 206.286656 
L 144.544115 206.286656 
L 144.544115 203.186924 
L 144.830011 203.186924 
L 144.830011 202.670302 
L 144.971262 202.670302 
L 144.971262 198.020704 
L 145.111405 198.020704 
L 145.111405 196.98746 
L 145.388435 196.98746 
L 145.388435 195.954216 
L 145.929935 195.954216 
L 145.929935 194.920972 
L 146.194652 194.920972 
L 146.194652 194.40435 
L 146.325555 194.40435 
L 146.325555 193.371106 
L 146.455505 193.371106 
L 146.455505 192.854484 
L 146.584518 192.854484 
L 146.584518 192.337862 
L 146.712605 192.337862 
L 146.712605 189.754752 
L 146.966058 189.754752 
L 146.966058 189.23813 
L 147.091449 189.23813 
L 147.091449 188.204886 
L 147.339621 188.204886 
L 147.339621 187.688264 
L 147.584393 187.688264 
L 147.584393 187.171642 
L 147.705534 187.171642 
L 147.705534 184.588532 
L 147.825858 184.588532 
L 147.825858 184.07191 
L 148.064103 184.07191 
L 148.064103 183.038666 
L 148.182045 183.038666 
L 148.182045 182.005422 
L 148.299213 182.005422 
L 148.299213 178.90569 
L 148.415618 178.90569 
L 148.415618 176.839201 
L 149.098559 176.839201 
L 149.098559 176.322579 
L 149.209888 176.322579 
L 149.209888 175.289335 
L 149.53977 175.289335 
L 149.53977 174.256091 
L 149.863672 174.256091 
L 149.970348 169.606493 
L 150.286606 169.606493 
L 150.286606 169.089871 
L 150.69976 169.089871 
L 150.69976 164.956895 
L 150.902809 164.956895 
L 150.902809 164.440273 
L 151.302113 164.440273 
L 151.40056 160.823919 
L 151.498468 160.823919 
L 151.498468 159.274053 
L 151.789013 159.274053 
L 151.884821 157.724187 
L 152.1692 157.724187 
L 152.262996 155.141077 
L 152.356302 155.141077 
L 152.356302 153.074589 
L 152.541466 153.074589 
L 152.633333 149.458235 
L 152.72473 149.458235 
L 152.815662 147.908369 
L 152.99615 147.908369 
L 152.99615 146.358503 
L 153.351746 146.358503 
L 153.43955 145.325259 
L 153.526925 145.325259 
L 153.526925 144.292014 
L 153.700403 144.292014 
L 153.700403 143.775392 
L 153.872213 143.775392 
L 153.957503 141.708904 
L 154.12687 141.708904 
L 154.210955 139.125794 
L 154.294647 139.125794 
L 154.294647 136.542684 
L 154.543395 136.542684 
L 154.543395 134.992818 
L 154.788728 134.992818 
L 154.788728 130.34322 
L 155.426942 130.34322 
L 155.50514 126.210244 
L 155.582997 126.210244 
L 155.660516 124.143756 
L 155.814552 124.143756 
L 155.891075 122.077268 
L 156.043145 122.077268 
L 156.043145 121.560646 
L 156.193932 121.560646 
L 156.193932 121.044024 
L 156.638804 121.044024 
L 156.638804 119.494158 
L 157.215245 119.494158 
L 157.28601 117.42767 
L 157.356496 117.42767 
L 157.426705 114.84456 
L 157.5663 114.84456 
L 157.635691 113.811316 
L 157.97866 113.811316 
L 158.04647 112.26145 
L 158.248372 112.26145 
L 158.315169 107.095229 
L 158.381717 107.095229 
L 158.381717 106.061985 
L 158.710789 106.061985 
L 158.710789 101.412387 
L 158.84074 101.412387 
L 158.905362 98.829277 
L 158.969752 98.829277 
L 158.969752 98.312655 
L 159.097839 98.312655 
L 159.097839 97.279411 
L 159.288265 97.279411 
L 159.288265 96.246167 
L 159.53905 96.246167 
L 159.6012 94.179679 
L 159.786363 94.179679 
L 159.84766 88.496837 
L 160.090768 88.496837 
L 160.090768 87.463593 
L 160.211092 87.463593 
L 160.211092 86.430349 
L 160.508405 86.430349 
L 160.508405 85.397105 
L 160.684447 85.397105 
L 160.742745 84.363861 
L 160.916504 84.363861 
L 160.916504 83.330617 
L 161.08859 83.330617 
L 161.08859 82.813995 
L 161.259034 82.813995 
L 161.31549 80.230885 
L 161.371767 80.230885 
L 161.427868 76.614531 
L 161.483794 76.614531 
L 161.539544 74.548042 
L 161.650527 74.548042 
L 161.705761 72.481554 
L 161.815719 72.481554 
L 161.925004 70.415066 
L 161.979397 70.415066 
L 162.033625 68.348578 
L 162.195329 68.348578 
L 162.195329 67.315334 
L 162.355582 67.315334 
L 162.355582 65.248846 
L 162.72401 65.248846 
L 162.827894 63.69898 
L 162.931179 63.69898 
L 162.982598 61.11587 
L 163.288043 61.11587 
L 163.338447 58.016138 
L 163.43883 58.016138 
L 163.538652 54.399784 
L 163.637919 54.399784 
L 163.637919 53.36654 
L 163.785794 53.36654 
L 163.834815 52.333296 
L 163.932455 52.333296 
L 164.029565 51.300052 
L 164.077923 51.300052 
L 164.077923 50.78343 
L 164.222215 50.78343 
L 164.222215 48.716942 
L 164.601393 48.716942 
L 164.601393 47.683698 
L 164.741536 47.683698 
L 164.788007 45.100588 
L 164.880588 45.100588 
L 164.880588 44.067344 
L 165.018567 44.067344 
L 165.018567 43.550722 
L 165.246189 43.550722 
L 165.336432 42.517478 
L 165.470948 42.517478 
L 165.470948 42.000855 
L 173.980356 42.000855 
L 173.980356 41.484233 
L 175.135272 41.484233 
L 175.135272 40.967611 
L 175.923886 40.967611 
L 175.998388 39.417745 
L 176.845377 39.417745 
L 176.868996 38.384501 
L 176.963163 38.384501 
L 177.010061 37.351257 
L 177.173241 37.351257 
L 177.173241 36.318013 
L 177.833833 36.318013 
L 177.856183 35.284769 
L 184.200232 35.284769 
L 184.200232 34.768147 
L 358.8 34.768147 
L 358.8 34.768147 
" style="fill:none;stroke:#ffa500;stroke-linecap:square;stroke-width:1.5;"/>
   </g>
   <g id="line2d_53">
    <defs>
     <path d="M 0 -6 
L -1.347084 -1.854102 
L -5.706339 -1.854102 
L -2.179628 0.708204 
L -3.526712 4.854102 
L -0 2.291796 
L 3.526712 4.854102 
L 2.179628 0.708204 
L 5.706339 -1.854102 
L 1.347084 -1.854102 
z
" id="mbe95277a8c" style="stroke:#ffa500;stroke-linejoin:bevel;stroke-width:1.5;"/>
    </defs>
    <g>
     <use style="fill:none;stroke:#ffa500;stroke-linejoin:bevel;stroke-width:1.5;" x="128.669082" xlink:href="#mbe95277a8c" y="254.332504"/>
     <use style="fill:none;stroke:#ffa500;stroke-linejoin:bevel;stroke-width:1.5;" x="150.902809" xlink:href="#mbe95277a8c" y="164.440273"/>
     <use style="fill:none;stroke:#ffa500;stroke-linejoin:bevel;stroke-width:1.5;" x="165.470948" xlink:href="#mbe95277a8c" y="42.000855"/>
     <use style="fill:none;stroke:#ffa500;stroke-linejoin:bevel;stroke-width:1.5;" x="184.200232" xlink:href="#mbe95277a8c" y="34.768147"/>
     <use style="fill:none;stroke:#ffa500;stroke-linejoin:bevel;stroke-width:1.5;" x="184.200232" xlink:href="#mbe95277a8c" y="34.768147"/>
     <use style="fill:none;stroke:#ffa500;stroke-linejoin:bevel;stroke-width:1.5;" x="358.8" xlink:href="#mbe95277a8c" y="34.768147"/>
    </g>
   </g>
   <g id="line2d_54"/>
   <g id="line2d_55">
    <path clip-path="url(#p79bfc93ed0)" d="M 165.470948 42.000855 
" style="fill:none;stroke:#ffa500;stroke-linecap:square;stroke-width:1.5;"/>
    <defs>
     <path d="M -12 12 
L 12 -12 
M -12 -12 
L 12 12 
" id="ma28b6bec10" style="stroke:#ffa500;stroke-width:3;"/>
    </defs>
    <g clip-path="url(#p79bfc93ed0)">
     <use style="fill:#ffa500;stroke:#ffa500;stroke-width:3;" x="165.470948" xlink:href="#ma28b6bec10" y="42.000855"/>
    </g>
   </g>
   <g id="line2d_56">
    <defs>
     <path d="M 0 1.5 
C 0.397805 1.5 0.77937 1.341951 1.06066 1.06066 
C 1.341951 0.77937 1.5 0.397805 1.5 0 
C 1.5 -0.397805 1.341951 -0.77937 1.06066 -1.06066 
C 0.77937 -1.341951 0.397805 -1.5 0 -1.5 
C -0.397805 -1.5 -0.77937 -1.341951 -1.06066 -1.06066 
C -1.341951 -0.77937 -1.5 -0.397805 -1.5 0 
C -1.5 0.397805 -1.341951 0.77937 -1.06066 1.06066 
C -0.77937 1.341951 -0.397805 1.5 0 1.5 
z
" id="meae962daf3" style="stroke:#6495ed;"/>
    </defs>
    <g>
     <use style="fill:#6495ed;stroke:#6495ed;" x="195.404074" xlink:href="#meae962daf3" y="34.768147"/>
     <use style="fill:#6495ed;stroke:#6495ed;" x="195.404074" xlink:href="#meae962daf3" y="34.768147"/>
    </g>
   </g>
   <g id="line2d_57">
    <path d="M 58.414766 298.245375 
L 58.414766 291.529289 
L 70.8 291.529289 
L 70.8 288.946179 
L 78.044898 288.946179 
L 78.044898 284.296581 
L 83.185234 284.296581 
L 83.185234 283.779959 
L 87.172389 283.779959 
L 87.172389 281.196849 
L 93.184514 281.196849 
L 93.184514 277.063872 
L 97.675029 277.063872 
L 97.675029 270.347786 
L 99.557623 270.347786 
L 99.557623 269.831164 
L 104.245578 269.831164 
L 104.245578 268.281298 
L 107.955702 268.281298 
L 107.955702 266.731432 
L 110.060263 266.731432 
L 110.060263 262.598456 
L 115.2006 262.598456 
L 115.2006 261.04859 
L 115.930012 261.04859 
L 115.930012 260.015346 
L 117.954982 260.015346 
L 117.954982 259.498724 
L 118.581998 259.498724 
L 118.581998 256.915614 
L 119.187755 256.915614 
L 119.187755 255.365748 
L 119.773647 255.365748 
L 119.773647 254.849126 
L 120.340936 254.849126 
L 120.340936 252.782638 
L 124.769302 252.782638 
L 124.769302 247.099796 
L 126.031105 247.099796 
L 126.031105 244.516685 
L 126.432652 244.516685 
L 126.432652 239.350465 
L 127.209649 239.350465 
L 127.209649 236.767355 
L 127.954262 236.767355 
L 127.954262 236.250733 
L 128.669082 236.250733 
L 128.669082 234.700867 
L 130.018259 234.700867 
L 130.018259 230.567891 
L 130.340216 230.567891 
L 130.340216 228.501403 
L 130.967232 228.501403 
L 130.967232 220.235451 
L 131.272677 220.235451 
L 131.272677 219.718829 
L 132.726171 219.718829 
L 132.726171 219.202207 
L 133.544701 219.202207 
L 133.544701 217.652341 
L 133.809418 217.652341 
L 133.809418 216.619097 
L 134.070271 216.619097 
L 134.070271 205.770034 
L 135.560144 205.770034 
L 135.560144 205.253412 
L 136.030384 205.253412 
L 136.030384 204.220168 
L 136.260944 204.220168 
L 136.260944 203.186924 
L 137.371122 203.186924 
L 137.371122 201.120436 
L 137.796573 201.120436 
L 137.796573 197.504082 
L 138.212129 197.504082 
L 138.212129 191.304618 
L 138.416339 191.304618 
L 138.416339 190.787996 
L 140.878274 190.787996 
L 140.878274 189.754752 
L 141.40128 189.754752 
L 141.40128 189.23813 
L 141.572268 189.23813 
L 141.572268 188.721508 
L 141.741636 188.721508 
L 141.741636 187.688264 
L 141.909413 187.688264 
L 141.909413 186.138398 
L 142.565197 186.138398 
L 142.565197 185.105154 
L 142.72545 185.105154 
L 142.72545 183.555288 
L 142.884279 183.555288 
L 142.884279 182.522044 
L 144.399433 182.522044 
L 144.399433 180.455556 
L 144.830011 180.455556 
L 144.830011 170.639737 
L 144.971262 170.639737 
L 144.971262 169.089871 
L 145.525356 169.089871 
L 145.525356 166.506761 
L 146.194652 166.506761 
L 146.194652 158.240809 
L 147.091449 158.240809 
L 147.091449 152.557967 
L 148.182045 152.557967 
L 148.182045 151.524723 
L 148.415618 151.524723 
L 148.415618 148.424991 
L 148.53127 148.424991 
L 148.53127 147.391747 
L 148.986533 147.391747 
L 148.986533 145.841881 
L 149.098559 145.841881 
L 149.098559 136.542684 
L 149.648391 136.542684 
L 149.648391 136.026062 
L 149.863672 136.026062 
L 149.863672 132.92633 
L 150.390793 132.92633 
L 150.390793 130.34322 
L 150.597364 130.34322 
L 150.69976 128.276732 
L 150.801573 128.276732 
L 150.801573 121.560646 
L 151.595842 121.560646 
L 151.595842 121.044024 
L 151.980117 121.044024 
L 151.980117 119.494158 
L 152.356302 119.494158 
L 152.356302 118.977536 
L 152.815662 118.977536 
L 152.815662 117.42767 
L 153.085714 117.42767 
L 153.085714 116.911048 
L 153.263508 116.911048 
L 153.263508 107.611851 
L 153.786515 107.611851 
L 153.786515 106.061985 
L 154.12687 106.061985 
L 154.12687 104.512119 
L 154.950431 104.512119 
L 154.950431 101.412387 
L 155.269513 101.412387 
L 155.269513 94.179679 
L 155.891075 94.179679 
L 155.891075 92.113191 
L 157.5663 92.113191 
L 157.5663 91.596569 
L 159.786363 91.596569 
L 159.786363 91.079947 
L 161.483794 91.079947 
L 161.483794 90.563325 
L 161.815719 90.563325 
L 161.815719 90.046703 
L 163.43883 90.046703 
L 163.43883 89.013459 
L 167.214525 89.013459 
L 167.214525 88.496837 
L 167.890374 88.496837 
L 167.890374 83.330617 
L 168.238089 83.330617 
L 168.314449 81.780751 
L 168.541589 81.780751 
L 168.541589 81.264129 
L 168.728691 81.264129 
L 168.728691 80.747507 
L 168.840019 80.747507 
L 168.840019 80.230885 
L 168.987386 80.230885 
L 168.987386 75.064664 
L 169.84694 75.064664 
L 169.84694 74.548042 
L 170.158903 74.548042 
L 170.158903 74.03142 
L 170.363894 74.03142 
L 170.397831 71.964932 
L 170.700403 71.964932 
L 170.700403 67.831956 
L 170.932245 67.831956 
L 170.965121 65.765468 
L 171.225974 65.765468 
L 171.32282 64.215602 
L 171.451137 64.215602 
L 171.483073 62.149114 
L 171.70504 62.149114 
L 171.70504 61.632492 
L 171.861917 61.632492 
L 171.861917 61.11587 
L 171.986434 61.11587 
L 171.986434 60.082626 
L 172.202272 60.082626 
L 172.202272 59.049382 
L 172.626281 59.049382 
L 172.626281 56.466272 
L 172.775307 56.466272 
L 172.775307 52.333296 
L 173.359285 52.333296 
L 173.359285 51.300052 
L 173.473824 51.300052 
L 173.473824 50.266808 
L 173.700724 50.266808 
L 173.700724 49.750186 
L 179.106814 49.750186 
L 179.106814 49.233564 
L 179.334437 49.233564 
L 179.334437 48.20032 
L 179.620006 48.20032 
L 179.700766 47.167076 
L 180.469618 47.167076 
L 180.469618 46.650454 
L 180.661544 46.650454 
L 180.661544 45.100588 
L 181.001899 45.100588 
L 181.095303 43.550722 
L 181.113925 43.550722 
L 181.113925 43.0341 
L 181.409273 43.0341 
L 181.409273 42.517478 
L 181.879038 42.517478 
L 181.879038 40.967611 
L 185.944484 40.967611 
L 185.944484 40.450989 
L 187.019374 40.450989 
L 187.11275 38.384501 
L 187.33751 38.384501 
L 187.33751 37.867879 
L 187.546496 37.867879 
L 187.546496 36.318013 
L 187.88097 36.318013 
L 187.88097 35.801391 
L 191.699097 35.801391 
L 191.699097 35.284769 
L 195.404074 35.284769 
L 195.404074 34.768147 
L 358.8 34.768147 
L 358.8 34.768147 
" style="fill:none;stroke:#6495ed;stroke-linecap:square;stroke-width:1.5;"/>
   </g>
   <g id="line2d_58">
    <defs>
     <path d="M -0 6 
L 6 -6 
L -6 -6 
z
" id="mdd927e849d" style="stroke:#6495ed;stroke-linejoin:miter;stroke-width:1.5;"/>
    </defs>
    <g>
     <use style="fill:none;stroke:#6495ed;stroke-linejoin:miter;stroke-width:1.5;" x="124.769302" xlink:href="#mdd927e849d" y="252.782638"/>
     <use style="fill:none;stroke:#6495ed;stroke-linejoin:miter;stroke-width:1.5;" x="153.085714" xlink:href="#mdd927e849d" y="116.911048"/>
     <use style="fill:none;stroke:#6495ed;stroke-linejoin:miter;stroke-width:1.5;" x="195.404074" xlink:href="#mdd927e849d" y="35.284769"/>
     <use style="fill:none;stroke:#6495ed;stroke-linejoin:miter;stroke-width:1.5;" x="195.404074" xlink:href="#mdd927e849d" y="34.768147"/>
     <use style="fill:none;stroke:#6495ed;stroke-linejoin:miter;stroke-width:1.5;" x="195.404074" xlink:href="#mdd927e849d" y="34.768147"/>
     <use style="fill:none;stroke:#6495ed;stroke-linejoin:miter;stroke-width:1.5;" x="358.8" xlink:href="#mdd927e849d" y="34.768147"/>
    </g>
   </g>
   <g id="line2d_59"/>
   <g id="line2d_60">
    <path clip-path="url(#p79bfc93ed0)" d="M 165.470948 89.013459 
" style="fill:none;stroke:#6495ed;stroke-linecap:square;stroke-width:1.5;"/>
    <defs>
     <path d="M -12 12 
L 12 -12 
M -12 -12 
L 12 12 
" id="m1bd25c5d56" style="stroke:#6495ed;stroke-width:3;"/>
    </defs>
    <g clip-path="url(#p79bfc93ed0)">
     <use style="fill:#6495ed;stroke:#6495ed;stroke-width:3;" x="165.470948" xlink:href="#m1bd25c5d56" y="89.013459"/>
    </g>
   </g>
   <g id="line2d_61">
    <path d="M 358.8 153.591211 
L 390.48 292.97583 
" style="fill:none;stroke:#ff00ff;stroke-linecap:square;stroke-width:1.5;"/>
    <g>
     <use style="fill:none;stroke:#ff00ff;stroke-linejoin:miter;stroke-width:1.5;" x="358.8" xlink:href="#m6cd57f1cf5" y="153.591211"/>
     <use style="fill:none;stroke:#ff00ff;stroke-linejoin:miter;stroke-width:1.5;" x="390.48" xlink:href="#m6cd57f1cf5" y="292.97583"/>
    </g>
   </g>
   <g id="line2d_62">
    <path d="M 358.8 143.25877 
L 390.48 208.663118 
" style="fill:none;stroke:#000080;stroke-linecap:square;stroke-width:1.5;"/>
    <g>
     <use style="fill:none;stroke:#000080;stroke-width:1.5;" x="358.8" xlink:href="#mdf82bd0bcd" y="143.25877"/>
     <use style="fill:none;stroke:#000080;stroke-width:1.5;" x="390.48" xlink:href="#mdf82bd0bcd" y="208.663118"/>
    </g>
   </g>
   <g id="line2d_63">
    <path d="M 358.8 34.768147 
L 390.48 124.350405 
" style="fill:none;stroke:#6495ed;stroke-linecap:square;stroke-width:1.5;"/>
    <g>
     <use style="fill:none;stroke:#6495ed;stroke-linejoin:miter;stroke-width:1.5;" x="358.8" xlink:href="#mdd927e849d" y="34.768147"/>
     <use style="fill:none;stroke:#6495ed;stroke-linejoin:miter;stroke-width:1.5;" x="390.48" xlink:href="#mdd927e849d" y="124.350405"/>
    </g>
   </g>
   <g id="line2d_64">
    <path d="M 358.8 34.768147 
L 390.48 40.037692 
" style="fill:none;stroke:#ffa500;stroke-linecap:square;stroke-width:1.5;"/>
    <g>
     <use style="fill:none;stroke:#ffa500;stroke-linejoin:bevel;stroke-width:1.5;" x="358.8" xlink:href="#mbe95277a8c" y="34.768147"/>
     <use style="fill:none;stroke:#ffa500;stroke-linejoin:bevel;stroke-width:1.5;" x="390.48" xlink:href="#mbe95277a8c" y="40.037692"/>
    </g>
   </g>
   <g id="line2d_65">
    <path d="M 358.8 298.245375 
L 358.8 34.768147 
" style="fill:none;stroke:#000000;stroke-linecap:square;stroke-width:1.5;"/>
   </g>
   <g id="patch_3">
    <path d="M 70.8 298.245375 
L 70.8 32.133375 
" style="fill:none;stroke:#000000;stroke-linecap:square;stroke-linejoin:miter;stroke-width:0.8;"/>
   </g>
   <g id="patch_4">
    <path d="M 427.92 298.245375 
L 427.92 32.133375 
" style="fill:none;stroke:#000000;stroke-linecap:square;stroke-linejoin:miter;stroke-width:0.8;"/>
   </g>
   <g id="patch_5">
    <path d="M 70.8 298.245375 
L 427.92 298.245375 
" style="fill:none;stroke:#000000;stroke-linecap:square;stroke-linejoin:miter;stroke-width:0.8;"/>
   </g>
   <g id="patch_6">
    <path d="M 70.8 32.133375 
L 427.92 32.133375 
" style="fill:none;stroke:#000000;stroke-linecap:square;stroke-linejoin:miter;stroke-width:0.8;"/>
   </g>
   <g id="text_14">
    <!-- f9 -->
    <defs>
     <path d="M 10.984375 1.515625 
L 10.984375 10.5 
Q 14.703125 8.734375 18.5 7.8125 
Q 22.3125 6.890625 25.984375 6.890625 
Q 35.75 6.890625 40.890625 13.453125 
Q 46.046875 20.015625 46.78125 33.40625 
Q 43.953125 29.203125 39.59375 26.953125 
Q 35.25 24.703125 29.984375 24.703125 
Q 19.046875 24.703125 12.671875 31.3125 
Q 6.296875 37.9375 6.296875 49.421875 
Q 6.296875 60.640625 12.9375 67.421875 
Q 19.578125 74.21875 30.609375 74.21875 
Q 43.265625 74.21875 49.921875 64.515625 
Q 56.59375 54.828125 56.59375 36.375 
Q 56.59375 19.140625 48.40625 8.859375 
Q 40.234375 -1.421875 26.421875 -1.421875 
Q 22.703125 -1.421875 18.890625 -0.6875 
Q 15.09375 0.046875 10.984375 1.515625 
M 30.609375 32.421875 
Q 37.25 32.421875 41.125 36.953125 
Q 45.015625 41.5 45.015625 49.421875 
Q 45.015625 57.28125 41.125 61.84375 
Q 37.25 66.40625 30.609375 66.40625 
Q 23.96875 66.40625 20.09375 61.84375 
Q 16.21875 57.28125 16.21875 49.421875 
Q 16.21875 41.5 20.09375 36.953125 
Q 23.96875 32.421875 30.609375 32.421875 
" id="DejaVuSans-39"/>
    </defs>
    <g transform="translate(396.24 297.114893)scale(0.15 -0.15)">
     <use xlink:href="#DejaVuSans-66"/>
     <use x="35.205078" xlink:href="#DejaVuSans-39"/>
    </g>
   </g>
   <g id="text_15">
    <!-- f8 -->
    <g transform="translate(396.24 212.80218)scale(0.15 -0.15)">
     <use xlink:href="#DejaVuSans-66"/>
     <use x="35.205078" xlink:href="#DejaVuSans-38"/>
    </g>
   </g>
   <g id="text_16">
    <!-- f7 -->
    <defs>
     <path d="M 8.203125 72.90625 
L 55.078125 72.90625 
L 55.078125 68.703125 
L 28.609375 0 
L 18.3125 0 
L 43.21875 64.59375 
L 8.203125 64.59375 
z
" id="DejaVuSans-37"/>
    </defs>
    <g transform="translate(396.24 128.489467)scale(0.15 -0.15)">
     <use xlink:href="#DejaVuSans-66"/>
     <use x="35.205078" xlink:href="#DejaVuSans-37"/>
    </g>
   </g>
   <g id="text_17">
    <!-- f6 -->
    <g transform="translate(396.24 44.176754)scale(0.15 -0.15)">
     <use xlink:href="#DejaVuSans-66"/>
     <use x="35.205078" xlink:href="#DejaVuSans-36"/>
    </g>
   </g>
   <g id="text_18">
    <!-- bbob -->
    <defs>
     <path d="M 48.6875 27.296875 
Q 48.6875 37.203125 44.609375 42.84375 
Q 40.53125 48.484375 33.40625 48.484375 
Q 26.265625 48.484375 22.1875 42.84375 
Q 18.109375 37.203125 18.109375 27.296875 
Q 18.109375 17.390625 22.1875 11.75 
Q 26.265625 6.109375 33.40625 6.109375 
Q 40.53125 6.109375 44.609375 11.75 
Q 48.6875 17.390625 48.6875 27.296875 
M 18.109375 46.390625 
Q 20.953125 51.265625 25.265625 53.625 
Q 29.59375 56 35.59375 56 
Q 45.5625 56 51.78125 48.09375 
Q 58.015625 40.1875 58.015625 27.296875 
Q 58.015625 14.40625 51.78125 6.484375 
Q 45.5625 -1.421875 35.59375 -1.421875 
Q 29.59375 -1.421875 25.265625 0.953125 
Q 20.953125 3.328125 18.109375 8.203125 
L 18.109375 0 
L 9.078125 0 
L 9.078125 75.984375 
L 18.109375 75.984375 
z
" id="DejaVuSans-62"/>
    </defs>
    <g transform="translate(74.3712 50.114612)scale(0.1666 -0.1666)">
     <use xlink:href="#DejaVuSans-62"/>
     <use x="63.476562" xlink:href="#DejaVuSans-62"/>
     <use x="126.953125" xlink:href="#DejaVuSans-6f"/>
     <use x="188.134766" xlink:href="#DejaVuSans-62"/>
    </g>
    <!-- Misc. moderate functions, 2-D -->
    <defs>
     <path d="M 9.8125 72.90625 
L 24.515625 72.90625 
L 43.109375 23.296875 
L 61.8125 72.90625 
L 76.515625 72.90625 
L 76.515625 0 
L 66.890625 0 
L 66.890625 64.015625 
L 48.09375 14.015625 
L 38.1875 14.015625 
L 19.390625 64.015625 
L 19.390625 0 
L 9.8125 0 
z
" id="DejaVuSans-4d"/>
     <path d="M 11.71875 12.40625 
L 22.015625 12.40625 
L 22.015625 4 
L 14.015625 -11.625 
L 7.71875 -11.625 
L 11.71875 4 
z
" id="DejaVuSans-2c"/>
     <path d="M 19.671875 64.796875 
L 19.671875 8.109375 
L 31.59375 8.109375 
Q 46.6875 8.109375 53.6875 14.9375 
Q 60.6875 21.78125 60.6875 36.53125 
Q 60.6875 51.171875 53.6875 57.984375 
Q 46.6875 64.796875 31.59375 64.796875 
z
M 9.8125 72.90625 
L 30.078125 72.90625 
Q 51.265625 72.90625 61.171875 64.09375 
Q 71.09375 55.28125 71.09375 36.53125 
Q 71.09375 17.671875 61.125 8.828125 
Q 51.171875 0 30.078125 0 
L 9.8125 0 
z
" id="DejaVuSans-44"/>
    </defs>
    <g transform="translate(74.3712 68.770168)scale(0.1666 -0.1666)">
     <use xlink:href="#DejaVuSans-4d"/>
     <use x="86.279297" xlink:href="#DejaVuSans-69"/>
     <use x="114.0625" xlink:href="#DejaVuSans-73"/>
     <use x="166.162109" xlink:href="#DejaVuSans-63"/>
     <use x="221.142578" xlink:href="#DejaVuSans-2e"/>
     <use x="252.929688" xlink:href="#DejaVuSans-20"/>
     <use x="284.716797" xlink:href="#DejaVuSans-6d"/>
     <use x="382.128906" xlink:href="#DejaVuSans-6f"/>
     <use x="443.310547" xlink:href="#DejaVuSans-64"/>
     <use x="506.787109" xlink:href="#DejaVuSans-65"/>
     <use x="568.310547" xlink:href="#DejaVuSans-72"/>
     <use x="609.423828" xlink:href="#DejaVuSans-61"/>
     <use x="670.703125" xlink:href="#DejaVuSans-74"/>
     <use x="709.912109" xlink:href="#DejaVuSans-65"/>
     <use x="771.435547" xlink:href="#DejaVuSans-20"/>
     <use x="803.222656" xlink:href="#DejaVuSans-66"/>
     <use x="838.427734" xlink:href="#DejaVuSans-75"/>
     <use x="901.806641" xlink:href="#DejaVuSans-6e"/>
     <use x="965.185547" xlink:href="#DejaVuSans-63"/>
     <use x="1020.166016" xlink:href="#DejaVuSans-74"/>
     <use x="1059.375" xlink:href="#DejaVuSans-69"/>
     <use x="1087.158203" xlink:href="#DejaVuSans-6f"/>
     <use x="1148.339844" xlink:href="#DejaVuSans-6e"/>
     <use x="1211.71875" xlink:href="#DejaVuSans-73"/>
     <use x="1263.818359" xlink:href="#DejaVuSans-2c"/>
     <use x="1295.605469" xlink:href="#DejaVuSans-20"/>
     <use x="1327.392578" xlink:href="#DejaVuSans-32"/>
     <use x="1391.015625" xlink:href="#DejaVuSans-2d"/>
     <use x="1427.099609" xlink:href="#DejaVuSans-44"/>
    </g>
    <!-- 51 targets in 100..1e-08 -->
    <defs>
     <path d="M 10.796875 72.90625 
L 49.515625 72.90625 
L 49.515625 64.59375 
L 19.828125 64.59375 
L 19.828125 46.734375 
Q 21.96875 47.46875 24.109375 47.828125 
Q 26.265625 48.1875 28.421875 48.1875 
Q 40.625 48.1875 47.75 41.5 
Q 54.890625 34.8125 54.890625 23.390625 
Q 54.890625 11.625 47.5625 5.09375 
Q 40.234375 -1.421875 26.90625 -1.421875 
Q 22.3125 -1.421875 17.546875 -0.640625 
Q 12.796875 0.140625 7.71875 1.703125 
L 7.71875 11.625 
Q 12.109375 9.234375 16.796875 8.0625 
Q 21.484375 6.890625 26.703125 6.890625 
Q 35.15625 6.890625 40.078125 11.328125 
Q 45.015625 15.765625 45.015625 23.390625 
Q 45.015625 31 40.078125 35.4375 
Q 35.15625 39.890625 26.703125 39.890625 
Q 22.75 39.890625 18.8125 39.015625 
Q 14.890625 38.140625 10.796875 36.28125 
z
" id="DejaVuSans-35"/>
    </defs>
    <g transform="translate(74.3712 87.425723)scale(0.1666 -0.1666)">
     <use xlink:href="#DejaVuSans-35"/>
     <use x="63.623047" xlink:href="#DejaVuSans-31"/>
     <use x="127.246094" xlink:href="#DejaVuSans-20"/>
     <use x="159.033203" xlink:href="#DejaVuSans-74"/>
     <use x="198.242188" xlink:href="#DejaVuSans-61"/>
     <use x="259.521484" xlink:href="#DejaVuSans-72"/>
     <use x="300.619141" xlink:href="#DejaVuSans-67"/>
     <use x="364.095703" xlink:href="#DejaVuSans-65"/>
     <use x="425.619141" xlink:href="#DejaVuSans-74"/>
     <use x="464.828125" xlink:href="#DejaVuSans-73"/>
     <use x="516.927734" xlink:href="#DejaVuSans-20"/>
     <use x="548.714844" xlink:href="#DejaVuSans-69"/>
     <use x="576.498047" xlink:href="#DejaVuSans-6e"/>
     <use x="639.876953" xlink:href="#DejaVuSans-20"/>
     <use x="671.664062" xlink:href="#DejaVuSans-31"/>
     <use x="735.287109" xlink:href="#DejaVuSans-30"/>
     <use x="798.910156" xlink:href="#DejaVuSans-30"/>
     <use x="862.533203" xlink:href="#DejaVuSans-2e"/>
     <use x="894.320312" xlink:href="#DejaVuSans-2e"/>
     <use x="926.107422" xlink:href="#DejaVuSans-31"/>
     <use x="989.730469" xlink:href="#DejaVuSans-65"/>
     <use x="1051.253906" xlink:href="#DejaVuSans-2d"/>
     <use x="1087.337891" xlink:href="#DejaVuSans-30"/>
     <use x="1150.960938" xlink:href="#DejaVuSans-38"/>
    </g>
    <!-- 15 instances -->
    <g transform="translate(74.3712 106.081279)scale(0.1666 -0.1666)">
     <use xlink:href="#DejaVuSans-31"/>
     <use x="63.623047" xlink:href="#DejaVuSans-35"/>
     <use x="127.246094" xlink:href="#DejaVuSans-20"/>
     <use x="159.033203" xlink:href="#DejaVuSans-69"/>
     <use x="186.816406" xlink:href="#DejaVuSans-6e"/>
     <use x="250.195312" xlink:href="#DejaVuSans-73"/>
     <use x="302.294922" xlink:href="#DejaVuSans-74"/>
     <use x="341.503906" xlink:href="#DejaVuSans-61"/>
     <use x="402.783203" xlink:href="#DejaVuSans-6e"/>
     <use x="466.162109" xlink:href="#DejaVuSans-63"/>
     <use x="521.142578" xlink:href="#DejaVuSans-65"/>
     <use x="582.666016" xlink:href="#DejaVuSans-73"/>
    </g>
   </g>
   <g id="text_19">
    <!-- v2.1 -->
    <g style="fill:#808080;" transform="translate(238.449063 293.504568)scale(0.1 -0.1)">
     <use xlink:href="#DejaVuSans-76"/>
     <use x="59.179688" xlink:href="#DejaVuSans-32"/>
     <use x="122.802734" xlink:href="#DejaVuSans-2e"/>
     <use x="154.589844" xlink:href="#DejaVuSans-31"/>
    </g>
   </g>
  </g>
 </g>
 <defs>
  <clipPath id="p79bfc93ed0">
   <rect height="266.112" width="357.12" x="70.8" y="32.133375"/>
  </clipPath>
 </defs>
</svg>
