<?xml version="1.0" encoding="utf-8" standalone="no"?>
<!DOCTYPE svg PUBLIC "-//W3C//DTD SVG 1.1//EN"
  "http://www.w3.org/Graphics/SVG/1.1/DTD/svg11.dtd">
<!-- Created with matplotlib (http://matplotlib.org/) -->
<svg height="353pt" version="1.1" viewBox="0 0 438 353" width="438pt" xmlns="http://www.w3.org/2000/svg" xmlns:xlink="http://www.w3.org/1999/xlink">
 <defs>
  <style type="text/css">
*{stroke-linecap:butt;stroke-linejoin:round;}
  </style>
 </defs>
 <g id="figure_1">
  <g id="patch_1">
   <path d="M 0 353.22225 
L 438.62 353.22225 
L 438.62 0 
L 0 0 
z
" style="fill:#ffffff;"/>
  </g>
  <g id="axes_1">
   <g id="patch_2">
    <path d="M 70.8 298.245375 
L 427.92 298.245375 
L 427.92 32.133375 
L 70.8 32.133375 
z
" style="fill:#ffffff;"/>
   </g>
   <g id="matplotlib.axis_1">
    <g id="xtick_1">
     <g id="line2d_1">
      <path clip-path="url(#p8e774d5e56)" d="M 70.8 298.245375 
L 70.8 32.133375 
" style="fill:none;stroke:#b0b0b0;stroke-linecap:square;stroke-width:0.8;"/>
     </g>
     <g id="line2d_2">
      <defs>
       <path d="M 0 0 
L 0 3.5 
" id="mdeb34697e2" style="stroke:#000000;stroke-width:0.8;"/>
      </defs>
      <g>
       <use style="stroke:#000000;stroke-width:0.8;" x="70.8" xlink:href="#mdeb34697e2" y="298.245375"/>
      </g>
     </g>
     <g id="text_1">
      <!-- 0 -->
      <defs>
       <path d="M 31.78125 66.40625 
Q 24.171875 66.40625 20.328125 58.90625 
Q 16.5 51.421875 16.5 36.375 
Q 16.5 21.390625 20.328125 13.890625 
Q 24.171875 6.390625 31.78125 6.390625 
Q 39.453125 6.390625 43.28125 13.890625 
Q 47.125 21.390625 47.125 36.375 
Q 47.125 51.421875 43.28125 58.90625 
Q 39.453125 66.40625 31.78125 66.40625 
M 31.78125 74.21875 
Q 44.046875 74.21875 50.515625 64.515625 
Q 56.984375 54.828125 56.984375 36.375 
Q 56.984375 17.96875 50.515625 8.265625 
Q 44.046875 -1.421875 31.78125 -1.421875 
Q 19.53125 -1.421875 13.0625 8.265625 
Q 6.59375 17.96875 6.59375 36.375 
Q 6.59375 54.828125 13.0625 64.515625 
Q 19.53125 74.21875 31.78125 74.21875 
" id="DejaVuSans-30"/>
      </defs>
      <g transform="translate(64.4375 320.44225)scale(0.2 -0.2)">
       <use xlink:href="#DejaVuSans-30"/>
      </g>
     </g>
    </g>
    <g id="xtick_2">
     <g id="line2d_3">
      <path clip-path="url(#p8e774d5e56)" d="M 153.085714 298.245375 
L 153.085714 32.133375 
" style="fill:none;stroke:#b0b0b0;stroke-linecap:square;stroke-width:0.8;"/>
     </g>
     <g id="line2d_4">
      <g>
       <use style="stroke:#000000;stroke-width:0.8;" x="153.085714" xlink:href="#mdeb34697e2" y="298.245375"/>
      </g>
     </g>
     <g id="text_2">
      <!-- 2 -->
      <defs>
       <path d="M 19.1875 8.296875 
L 53.609375 8.296875 
L 53.609375 0 
L 7.328125 0 
L 7.328125 8.296875 
Q 12.9375 14.109375 22.625 23.890625 
Q 32.328125 33.6875 34.8125 36.53125 
Q 39.546875 41.84375 41.421875 45.53125 
Q 43.3125 49.21875 43.3125 52.78125 
Q 43.3125 58.59375 39.234375 62.25 
Q 35.15625 65.921875 28.609375 65.921875 
Q 23.96875 65.921875 18.8125 64.3125 
Q 13.671875 62.703125 7.8125 59.421875 
L 7.8125 69.390625 
Q 13.765625 71.78125 18.9375 73 
Q 24.125 74.21875 28.421875 74.21875 
Q 39.75 74.21875 46.484375 68.546875 
Q 53.21875 62.890625 53.21875 53.421875 
Q 53.21875 48.921875 51.53125 44.890625 
Q 49.859375 40.875 45.40625 35.40625 
Q 44.1875 33.984375 37.640625 27.21875 
Q 31.109375 20.453125 19.1875 8.296875 
" id="DejaVuSans-32"/>
      </defs>
      <g transform="translate(146.723214 320.44225)scale(0.2 -0.2)">
       <use xlink:href="#DejaVuSans-32"/>
      </g>
     </g>
    </g>
    <g id="xtick_3">
     <g id="line2d_5">
      <path clip-path="url(#p8e774d5e56)" d="M 235.371429 298.245375 
L 235.371429 32.133375 
" style="fill:none;stroke:#b0b0b0;stroke-linecap:square;stroke-width:0.8;"/>
     </g>
     <g id="line2d_6">
      <g>
       <use style="stroke:#000000;stroke-width:0.8;" x="235.371429" xlink:href="#mdeb34697e2" y="298.245375"/>
      </g>
     </g>
     <g id="text_3">
      <!-- 4 -->
      <defs>
       <path d="M 37.796875 64.3125 
L 12.890625 25.390625 
L 37.796875 25.390625 
z
M 35.203125 72.90625 
L 47.609375 72.90625 
L 47.609375 25.390625 
L 58.015625 25.390625 
L 58.015625 17.1875 
L 47.609375 17.1875 
L 47.609375 0 
L 37.796875 0 
L 37.796875 17.1875 
L 4.890625 17.1875 
L 4.890625 26.703125 
z
" id="DejaVuSans-34"/>
      </defs>
      <g transform="translate(229.008929 320.44225)scale(0.2 -0.2)">
       <use xlink:href="#DejaVuSans-34"/>
      </g>
     </g>
    </g>
    <g id="xtick_4">
     <g id="line2d_7">
      <path clip-path="url(#p8e774d5e56)" d="M 317.657143 298.245375 
L 317.657143 32.133375 
" style="fill:none;stroke:#b0b0b0;stroke-linecap:square;stroke-width:0.8;"/>
     </g>
     <g id="line2d_8">
      <g>
       <use style="stroke:#000000;stroke-width:0.8;" x="317.657143" xlink:href="#mdeb34697e2" y="298.245375"/>
      </g>
     </g>
     <g id="text_4">
      <!-- 6 -->
      <defs>
       <path d="M 33.015625 40.375 
Q 26.375 40.375 22.484375 35.828125 
Q 18.609375 31.296875 18.609375 23.390625 
Q 18.609375 15.53125 22.484375 10.953125 
Q 26.375 6.390625 33.015625 6.390625 
Q 39.65625 6.390625 43.53125 10.953125 
Q 47.40625 15.53125 47.40625 23.390625 
Q 47.40625 31.296875 43.53125 35.828125 
Q 39.65625 40.375 33.015625 40.375 
M 52.59375 71.296875 
L 52.59375 62.3125 
Q 48.875 64.0625 45.09375 64.984375 
Q 41.3125 65.921875 37.59375 65.921875 
Q 27.828125 65.921875 22.671875 59.328125 
Q 17.53125 52.734375 16.796875 39.40625 
Q 19.671875 43.65625 24.015625 45.921875 
Q 28.375 48.1875 33.59375 48.1875 
Q 44.578125 48.1875 50.953125 41.515625 
Q 57.328125 34.859375 57.328125 23.390625 
Q 57.328125 12.15625 50.6875 5.359375 
Q 44.046875 -1.421875 33.015625 -1.421875 
Q 20.359375 -1.421875 13.671875 8.265625 
Q 6.984375 17.96875 6.984375 36.375 
Q 6.984375 53.65625 15.1875 63.9375 
Q 23.390625 74.21875 37.203125 74.21875 
Q 40.921875 74.21875 44.703125 73.484375 
Q 48.484375 72.75 52.59375 71.296875 
" id="DejaVuSans-36"/>
      </defs>
      <g transform="translate(311.294643 320.44225)scale(0.2 -0.2)">
       <use xlink:href="#DejaVuSans-36"/>
      </g>
     </g>
    </g>
    <g id="xtick_5">
     <g id="line2d_9">
      <path clip-path="url(#p8e774d5e56)" d="M 399.942857 298.245375 
L 399.942857 32.133375 
" style="fill:none;stroke:#b0b0b0;stroke-linecap:square;stroke-width:0.8;"/>
     </g>
     <g id="line2d_10">
      <g>
       <use style="stroke:#000000;stroke-width:0.8;" x="399.942857" xlink:href="#mdeb34697e2" y="298.245375"/>
      </g>
     </g>
     <g id="text_5">
      <!-- 8 -->
      <defs>
       <path d="M 31.78125 34.625 
Q 24.75 34.625 20.71875 30.859375 
Q 16.703125 27.09375 16.703125 20.515625 
Q 16.703125 13.921875 20.71875 10.15625 
Q 24.75 6.390625 31.78125 6.390625 
Q 38.8125 6.390625 42.859375 10.171875 
Q 46.921875 13.96875 46.921875 20.515625 
Q 46.921875 27.09375 42.890625 30.859375 
Q 38.875 34.625 31.78125 34.625 
M 21.921875 38.8125 
Q 15.578125 40.375 12.03125 44.71875 
Q 8.5 49.078125 8.5 55.328125 
Q 8.5 64.0625 14.71875 69.140625 
Q 20.953125 74.21875 31.78125 74.21875 
Q 42.671875 74.21875 48.875 69.140625 
Q 55.078125 64.0625 55.078125 55.328125 
Q 55.078125 49.078125 51.53125 44.71875 
Q 48 40.375 41.703125 38.8125 
Q 48.828125 37.15625 52.796875 32.3125 
Q 56.78125 27.484375 56.78125 20.515625 
Q 56.78125 9.90625 50.3125 4.234375 
Q 43.84375 -1.421875 31.78125 -1.421875 
Q 19.734375 -1.421875 13.25 4.234375 
Q 6.78125 9.90625 6.78125 20.515625 
Q 6.78125 27.484375 10.78125 32.3125 
Q 14.796875 37.15625 21.921875 38.8125 
M 18.3125 54.390625 
Q 18.3125 48.734375 21.84375 45.5625 
Q 25.390625 42.390625 31.78125 42.390625 
Q 38.140625 42.390625 41.71875 45.5625 
Q 45.3125 48.734375 45.3125 54.390625 
Q 45.3125 60.0625 41.71875 63.234375 
Q 38.140625 66.40625 31.78125 66.40625 
Q 25.390625 66.40625 21.84375 63.234375 
Q 18.3125 60.0625 18.3125 54.390625 
" id="DejaVuSans-38"/>
      </defs>
      <g transform="translate(393.580357 320.44225)scale(0.2 -0.2)">
       <use xlink:href="#DejaVuSans-38"/>
      </g>
     </g>
    </g>
    <g id="xtick_6">
     <g id="line2d_11">
      <defs>
       <path d="M 0 0 
L 0 2 
" id="mc1b92721e9" style="stroke:#000000;stroke-width:0.6;"/>
      </defs>
      <g>
       <use style="stroke:#000000;stroke-width:0.6;" x="83.185234" xlink:href="#mc1b92721e9" y="298.245375"/>
      </g>
     </g>
    </g>
    <g id="xtick_7">
     <g id="line2d_12">
      <g>
       <use style="stroke:#000000;stroke-width:0.6;" x="95.570468" xlink:href="#mc1b92721e9" y="298.245375"/>
      </g>
     </g>
    </g>
    <g id="xtick_8">
     <g id="line2d_13">
      <g>
       <use style="stroke:#000000;stroke-width:0.6;" x="102.815366" xlink:href="#mc1b92721e9" y="298.245375"/>
      </g>
     </g>
    </g>
    <g id="xtick_9">
     <g id="line2d_14">
      <g>
       <use style="stroke:#000000;stroke-width:0.6;" x="107.955702" xlink:href="#mc1b92721e9" y="298.245375"/>
      </g>
     </g>
    </g>
    <g id="xtick_10">
     <g id="line2d_15">
      <g>
       <use style="stroke:#000000;stroke-width:0.6;" x="165.470948" xlink:href="#mc1b92721e9" y="298.245375"/>
      </g>
     </g>
    </g>
    <g id="xtick_11">
     <g id="line2d_16">
      <g>
       <use style="stroke:#000000;stroke-width:0.6;" x="177.856183" xlink:href="#mc1b92721e9" y="298.245375"/>
      </g>
     </g>
    </g>
    <g id="xtick_12">
     <g id="line2d_17">
      <g>
       <use style="stroke:#000000;stroke-width:0.6;" x="185.10108" xlink:href="#mc1b92721e9" y="298.245375"/>
      </g>
     </g>
    </g>
    <g id="xtick_13">
     <g id="line2d_18">
      <g>
       <use style="stroke:#000000;stroke-width:0.6;" x="190.241417" xlink:href="#mc1b92721e9" y="298.245375"/>
      </g>
     </g>
    </g>
    <g id="xtick_14">
     <g id="line2d_19">
      <g>
       <use style="stroke:#000000;stroke-width:0.6;" x="247.756663" xlink:href="#mc1b92721e9" y="298.245375"/>
      </g>
     </g>
    </g>
    <g id="xtick_15">
     <g id="line2d_20">
      <g>
       <use style="stroke:#000000;stroke-width:0.6;" x="260.141897" xlink:href="#mc1b92721e9" y="298.245375"/>
      </g>
     </g>
    </g>
    <g id="xtick_16">
     <g id="line2d_21">
      <g>
       <use style="stroke:#000000;stroke-width:0.6;" x="267.386794" xlink:href="#mc1b92721e9" y="298.245375"/>
      </g>
     </g>
    </g>
    <g id="xtick_17">
     <g id="line2d_22">
      <g>
       <use style="stroke:#000000;stroke-width:0.6;" x="272.527131" xlink:href="#mc1b92721e9" y="298.245375"/>
      </g>
     </g>
    </g>
    <g id="xtick_18">
     <g id="line2d_23">
      <g>
       <use style="stroke:#000000;stroke-width:0.6;" x="330.042377" xlink:href="#mc1b92721e9" y="298.245375"/>
      </g>
     </g>
    </g>
    <g id="xtick_19">
     <g id="line2d_24">
      <g>
       <use style="stroke:#000000;stroke-width:0.6;" x="342.427611" xlink:href="#mc1b92721e9" y="298.245375"/>
      </g>
     </g>
    </g>
    <g id="xtick_20">
     <g id="line2d_25">
      <g>
       <use style="stroke:#000000;stroke-width:0.6;" x="349.672509" xlink:href="#mc1b92721e9" y="298.245375"/>
      </g>
     </g>
    </g>
    <g id="xtick_21">
     <g id="line2d_26">
      <g>
       <use style="stroke:#000000;stroke-width:0.6;" x="354.812845" xlink:href="#mc1b92721e9" y="298.245375"/>
      </g>
     </g>
    </g>
    <g id="xtick_22">
     <g id="line2d_27">
      <g>
       <use style="stroke:#000000;stroke-width:0.6;" x="412.328091" xlink:href="#mc1b92721e9" y="298.245375"/>
      </g>
     </g>
    </g>
    <g id="xtick_23">
     <g id="line2d_28">
      <g>
       <use style="stroke:#000000;stroke-width:0.6;" x="424.713325" xlink:href="#mc1b92721e9" y="298.245375"/>
      </g>
     </g>
    </g>
    <g id="text_6">
     <!-- log10 of (# f-evals / dimension) -->
     <defs>
      <path d="M 9.421875 75.984375 
L 18.40625 75.984375 
L 18.40625 0 
L 9.421875 0 
z
" id="DejaVuSans-6c"/>
      <path d="M 30.609375 48.390625 
Q 23.390625 48.390625 19.1875 42.75 
Q 14.984375 37.109375 14.984375 27.296875 
Q 14.984375 17.484375 19.15625 11.84375 
Q 23.34375 6.203125 30.609375 6.203125 
Q 37.796875 6.203125 41.984375 11.859375 
Q 46.1875 17.53125 46.1875 27.296875 
Q 46.1875 37.015625 41.984375 42.703125 
Q 37.796875 48.390625 30.609375 48.390625 
M 30.609375 56 
Q 42.328125 56 49.015625 48.375 
Q 55.71875 40.765625 55.71875 27.296875 
Q 55.71875 13.875 49.015625 6.21875 
Q 42.328125 -1.421875 30.609375 -1.421875 
Q 18.84375 -1.421875 12.171875 6.21875 
Q 5.515625 13.875 5.515625 27.296875 
Q 5.515625 40.765625 12.171875 48.375 
Q 18.84375 56 30.609375 56 
" id="DejaVuSans-6f"/>
      <path d="M 45.40625 27.984375 
Q 45.40625 37.75 41.375 43.109375 
Q 37.359375 48.484375 30.078125 48.484375 
Q 22.859375 48.484375 18.828125 43.109375 
Q 14.796875 37.75 14.796875 27.984375 
Q 14.796875 18.265625 18.828125 12.890625 
Q 22.859375 7.515625 30.078125 7.515625 
Q 37.359375 7.515625 41.375 12.890625 
Q 45.40625 18.265625 45.40625 27.984375 
M 54.390625 6.78125 
Q 54.390625 -7.171875 48.1875 -13.984375 
Q 42 -20.796875 29.203125 -20.796875 
Q 24.46875 -20.796875 20.265625 -20.09375 
Q 16.0625 -19.390625 12.109375 -17.921875 
L 12.109375 -9.1875 
Q 16.0625 -11.328125 19.921875 -12.34375 
Q 23.78125 -13.375 27.78125 -13.375 
Q 36.625 -13.375 41.015625 -8.765625 
Q 45.40625 -4.15625 45.40625 5.171875 
L 45.40625 9.625 
Q 42.625 4.78125 38.28125 2.390625 
Q 33.9375 0 27.875 0 
Q 17.828125 0 11.671875 7.65625 
Q 5.515625 15.328125 5.515625 27.984375 
Q 5.515625 40.671875 11.671875 48.328125 
Q 17.828125 56 27.875 56 
Q 33.9375 56 38.28125 53.609375 
Q 42.625 51.21875 45.40625 46.390625 
L 45.40625 54.6875 
L 54.390625 54.6875 
z
" id="DejaVuSans-67"/>
      <path d="M 12.40625 8.296875 
L 28.515625 8.296875 
L 28.515625 63.921875 
L 10.984375 60.40625 
L 10.984375 69.390625 
L 28.421875 72.90625 
L 38.28125 72.90625 
L 38.28125 8.296875 
L 54.390625 8.296875 
L 54.390625 0 
L 12.40625 0 
z
" id="DejaVuSans-31"/>
      <path id="DejaVuSans-20"/>
      <path d="M 37.109375 75.984375 
L 37.109375 68.5 
L 28.515625 68.5 
Q 23.6875 68.5 21.796875 66.546875 
Q 19.921875 64.59375 19.921875 59.515625 
L 19.921875 54.6875 
L 34.71875 54.6875 
L 34.71875 47.703125 
L 19.921875 47.703125 
L 19.921875 0 
L 10.890625 0 
L 10.890625 47.703125 
L 2.296875 47.703125 
L 2.296875 54.6875 
L 10.890625 54.6875 
L 10.890625 58.5 
Q 10.890625 67.625 15.140625 71.796875 
Q 19.390625 75.984375 28.609375 75.984375 
z
" id="DejaVuSans-66"/>
      <path d="M 31 75.875 
Q 24.46875 64.65625 21.28125 53.65625 
Q 18.109375 42.671875 18.109375 31.390625 
Q 18.109375 20.125 21.3125 9.0625 
Q 24.515625 -2 31 -13.1875 
L 23.1875 -13.1875 
Q 15.875 -1.703125 12.234375 9.375 
Q 8.59375 20.453125 8.59375 31.390625 
Q 8.59375 42.28125 12.203125 53.3125 
Q 15.828125 64.359375 23.1875 75.875 
z
" id="DejaVuSans-28"/>
      <path d="M 51.125 44 
L 36.921875 44 
L 32.8125 27.6875 
L 47.125 27.6875 
z
M 43.796875 71.78125 
L 38.71875 51.515625 
L 52.984375 51.515625 
L 58.109375 71.78125 
L 65.921875 71.78125 
L 60.890625 51.515625 
L 76.125 51.515625 
L 76.125 44 
L 58.984375 44 
L 54.984375 27.6875 
L 70.515625 27.6875 
L 70.515625 20.21875 
L 53.078125 20.21875 
L 48 0 
L 40.1875 0 
L 45.21875 20.21875 
L 30.90625 20.21875 
L 25.875 0 
L 18.015625 0 
L 23.09375 20.21875 
L 7.71875 20.21875 
L 7.71875 27.6875 
L 24.90625 27.6875 
L 29 44 
L 13.28125 44 
L 13.28125 51.515625 
L 30.90625 51.515625 
L 35.890625 71.78125 
z
" id="DejaVuSans-23"/>
      <path d="M 4.890625 31.390625 
L 31.203125 31.390625 
L 31.203125 23.390625 
L 4.890625 23.390625 
z
" id="DejaVuSans-2d"/>
      <path d="M 56.203125 29.59375 
L 56.203125 25.203125 
L 14.890625 25.203125 
Q 15.484375 15.921875 20.484375 11.0625 
Q 25.484375 6.203125 34.421875 6.203125 
Q 39.59375 6.203125 44.453125 7.46875 
Q 49.3125 8.734375 54.109375 11.28125 
L 54.109375 2.78125 
Q 49.265625 0.734375 44.1875 -0.34375 
Q 39.109375 -1.421875 33.890625 -1.421875 
Q 20.796875 -1.421875 13.15625 6.1875 
Q 5.515625 13.8125 5.515625 26.8125 
Q 5.515625 40.234375 12.765625 48.109375 
Q 20.015625 56 32.328125 56 
Q 43.359375 56 49.78125 48.890625 
Q 56.203125 41.796875 56.203125 29.59375 
M 47.21875 32.234375 
Q 47.125 39.59375 43.09375 43.984375 
Q 39.0625 48.390625 32.421875 48.390625 
Q 24.90625 48.390625 20.390625 44.140625 
Q 15.875 39.890625 15.1875 32.171875 
z
" id="DejaVuSans-65"/>
      <path d="M 2.984375 54.6875 
L 12.5 54.6875 
L 29.59375 8.796875 
L 46.6875 54.6875 
L 56.203125 54.6875 
L 35.6875 0 
L 23.484375 0 
z
" id="DejaVuSans-76"/>
      <path d="M 34.28125 27.484375 
Q 23.390625 27.484375 19.1875 25 
Q 14.984375 22.515625 14.984375 16.5 
Q 14.984375 11.71875 18.140625 8.90625 
Q 21.296875 6.109375 26.703125 6.109375 
Q 34.1875 6.109375 38.703125 11.40625 
Q 43.21875 16.703125 43.21875 25.484375 
L 43.21875 27.484375 
z
M 52.203125 31.203125 
L 52.203125 0 
L 43.21875 0 
L 43.21875 8.296875 
Q 40.140625 3.328125 35.546875 0.953125 
Q 30.953125 -1.421875 24.3125 -1.421875 
Q 15.921875 -1.421875 10.953125 3.296875 
Q 6 8.015625 6 15.921875 
Q 6 25.140625 12.171875 29.828125 
Q 18.359375 34.515625 30.609375 34.515625 
L 43.21875 34.515625 
L 43.21875 35.40625 
Q 43.21875 41.609375 39.140625 45 
Q 35.0625 48.390625 27.6875 48.390625 
Q 23 48.390625 18.546875 47.265625 
Q 14.109375 46.140625 10.015625 43.890625 
L 10.015625 52.203125 
Q 14.9375 54.109375 19.578125 55.046875 
Q 24.21875 56 28.609375 56 
Q 40.484375 56 46.34375 49.84375 
Q 52.203125 43.703125 52.203125 31.203125 
" id="DejaVuSans-61"/>
      <path d="M 44.28125 53.078125 
L 44.28125 44.578125 
Q 40.484375 46.53125 36.375 47.5 
Q 32.28125 48.484375 27.875 48.484375 
Q 21.1875 48.484375 17.84375 46.4375 
Q 14.5 44.390625 14.5 40.28125 
Q 14.5 37.15625 16.890625 35.375 
Q 19.28125 33.59375 26.515625 31.984375 
L 29.59375 31.296875 
Q 39.15625 29.25 43.1875 25.515625 
Q 47.21875 21.78125 47.21875 15.09375 
Q 47.21875 7.46875 41.1875 3.015625 
Q 35.15625 -1.421875 24.609375 -1.421875 
Q 20.21875 -1.421875 15.453125 -0.5625 
Q 10.6875 0.296875 5.421875 2 
L 5.421875 11.28125 
Q 10.40625 8.6875 15.234375 7.390625 
Q 20.0625 6.109375 24.8125 6.109375 
Q 31.15625 6.109375 34.5625 8.28125 
Q 37.984375 10.453125 37.984375 14.40625 
Q 37.984375 18.0625 35.515625 20.015625 
Q 33.0625 21.96875 24.703125 23.78125 
L 21.578125 24.515625 
Q 13.234375 26.265625 9.515625 29.90625 
Q 5.8125 33.546875 5.8125 39.890625 
Q 5.8125 47.609375 11.28125 51.796875 
Q 16.75 56 26.8125 56 
Q 31.78125 56 36.171875 55.265625 
Q 40.578125 54.546875 44.28125 53.078125 
" id="DejaVuSans-73"/>
      <path d="M 25.390625 72.90625 
L 33.6875 72.90625 
L 8.296875 -9.28125 
L 0 -9.28125 
z
" id="DejaVuSans-2f"/>
      <path d="M 45.40625 46.390625 
L 45.40625 75.984375 
L 54.390625 75.984375 
L 54.390625 0 
L 45.40625 0 
L 45.40625 8.203125 
Q 42.578125 3.328125 38.25 0.953125 
Q 33.9375 -1.421875 27.875 -1.421875 
Q 17.96875 -1.421875 11.734375 6.484375 
Q 5.515625 14.40625 5.515625 27.296875 
Q 5.515625 40.1875 11.734375 48.09375 
Q 17.96875 56 27.875 56 
Q 33.9375 56 38.25 53.625 
Q 42.578125 51.265625 45.40625 46.390625 
M 14.796875 27.296875 
Q 14.796875 17.390625 18.875 11.75 
Q 22.953125 6.109375 30.078125 6.109375 
Q 37.203125 6.109375 41.296875 11.75 
Q 45.40625 17.390625 45.40625 27.296875 
Q 45.40625 37.203125 41.296875 42.84375 
Q 37.203125 48.484375 30.078125 48.484375 
Q 22.953125 48.484375 18.875 42.84375 
Q 14.796875 37.203125 14.796875 27.296875 
" id="DejaVuSans-64"/>
      <path d="M 9.421875 54.6875 
L 18.40625 54.6875 
L 18.40625 0 
L 9.421875 0 
z
M 9.421875 75.984375 
L 18.40625 75.984375 
L 18.40625 64.59375 
L 9.421875 64.59375 
z
" id="DejaVuSans-69"/>
      <path d="M 52 44.1875 
Q 55.375 50.25 60.0625 53.125 
Q 64.75 56 71.09375 56 
Q 79.640625 56 84.28125 50.015625 
Q 88.921875 44.046875 88.921875 33.015625 
L 88.921875 0 
L 79.890625 0 
L 79.890625 32.71875 
Q 79.890625 40.578125 77.09375 44.375 
Q 74.3125 48.1875 68.609375 48.1875 
Q 61.625 48.1875 57.5625 43.546875 
Q 53.515625 38.921875 53.515625 30.90625 
L 53.515625 0 
L 44.484375 0 
L 44.484375 32.71875 
Q 44.484375 40.625 41.703125 44.40625 
Q 38.921875 48.1875 33.109375 48.1875 
Q 26.21875 48.1875 22.15625 43.53125 
Q 18.109375 38.875 18.109375 30.90625 
L 18.109375 0 
L 9.078125 0 
L 9.078125 54.6875 
L 18.109375 54.6875 
L 18.109375 46.1875 
Q 21.1875 51.21875 25.484375 53.609375 
Q 29.78125 56 35.6875 56 
Q 41.65625 56 45.828125 52.96875 
Q 50 49.953125 52 44.1875 
" id="DejaVuSans-6d"/>
      <path d="M 54.890625 33.015625 
L 54.890625 0 
L 45.90625 0 
L 45.90625 32.71875 
Q 45.90625 40.484375 42.875 44.328125 
Q 39.84375 48.1875 33.796875 48.1875 
Q 26.515625 48.1875 22.3125 43.546875 
Q 18.109375 38.921875 18.109375 30.90625 
L 18.109375 0 
L 9.078125 0 
L 9.078125 54.6875 
L 18.109375 54.6875 
L 18.109375 46.1875 
Q 21.34375 51.125 25.703125 53.5625 
Q 30.078125 56 35.796875 56 
Q 45.21875 56 50.046875 50.171875 
Q 54.890625 44.34375 54.890625 33.015625 
" id="DejaVuSans-6e"/>
      <path d="M 8.015625 75.875 
L 15.828125 75.875 
Q 23.140625 64.359375 26.78125 53.3125 
Q 30.421875 42.28125 30.421875 31.390625 
Q 30.421875 20.453125 26.78125 9.375 
Q 23.140625 -1.703125 15.828125 -13.1875 
L 8.015625 -13.1875 
Q 14.5 -2 17.703125 9.0625 
Q 20.90625 20.125 20.90625 31.390625 
Q 20.90625 42.671875 17.703125 53.65625 
Q 14.5 64.65625 8.015625 75.875 
" id="DejaVuSans-29"/>
     </defs>
     <g transform="translate(107.015156 342.278812)scale(0.18 -0.18)">
      <use xlink:href="#DejaVuSans-6c"/>
      <use x="27.783203" xlink:href="#DejaVuSans-6f"/>
      <use x="88.964844" xlink:href="#DejaVuSans-67"/>
      <use x="152.441406" xlink:href="#DejaVuSans-31"/>
      <use x="216.064453" xlink:href="#DejaVuSans-30"/>
      <use x="279.6875" xlink:href="#DejaVuSans-20"/>
      <use x="311.474609" xlink:href="#DejaVuSans-6f"/>
      <use x="372.65625" xlink:href="#DejaVuSans-66"/>
      <use x="407.861328" xlink:href="#DejaVuSans-20"/>
      <use x="439.648438" xlink:href="#DejaVuSans-28"/>
      <use x="478.662109" xlink:href="#DejaVuSans-23"/>
      <use x="562.451172" xlink:href="#DejaVuSans-20"/>
      <use x="594.238281" xlink:href="#DejaVuSans-66"/>
      <use x="629.365234" xlink:href="#DejaVuSans-2d"/>
      <use x="665.449219" xlink:href="#DejaVuSans-65"/>
      <use x="726.972656" xlink:href="#DejaVuSans-76"/>
      <use x="786.152344" xlink:href="#DejaVuSans-61"/>
      <use x="847.431641" xlink:href="#DejaVuSans-6c"/>
      <use x="875.214844" xlink:href="#DejaVuSans-73"/>
      <use x="927.314453" xlink:href="#DejaVuSans-20"/>
      <use x="959.101562" xlink:href="#DejaVuSans-2f"/>
      <use x="992.792969" xlink:href="#DejaVuSans-20"/>
      <use x="1024.580078" xlink:href="#DejaVuSans-64"/>
      <use x="1088.056641" xlink:href="#DejaVuSans-69"/>
      <use x="1115.839844" xlink:href="#DejaVuSans-6d"/>
      <use x="1213.251953" xlink:href="#DejaVuSans-65"/>
      <use x="1274.775391" xlink:href="#DejaVuSans-6e"/>
      <use x="1338.154297" xlink:href="#DejaVuSans-73"/>
      <use x="1390.253906" xlink:href="#DejaVuSans-69"/>
      <use x="1418.037109" xlink:href="#DejaVuSans-6f"/>
      <use x="1479.21875" xlink:href="#DejaVuSans-6e"/>
      <use x="1542.597656" xlink:href="#DejaVuSans-29"/>
     </g>
    </g>
   </g>
   <g id="matplotlib.axis_2">
    <g id="ytick_1">
     <g id="line2d_29">
      <path clip-path="url(#p8e774d5e56)" d="M 70.8 298.245375 
L 427.92 298.245375 
" style="fill:none;stroke:#b0b0b0;stroke-linecap:square;stroke-width:0.8;"/>
     </g>
     <g id="line2d_30">
      <defs>
       <path d="M 0 0 
L -3.5 0 
" id="mfb516a5276" style="stroke:#000000;stroke-width:0.8;"/>
      </defs>
      <g>
       <use style="stroke:#000000;stroke-width:0.8;" x="70.8" xlink:href="#mfb516a5276" y="298.245375"/>
      </g>
     </g>
     <g id="text_7">
      <!-- 0.0 -->
      <defs>
       <path d="M 10.6875 12.40625 
L 21 12.40625 
L 21 0 
L 10.6875 0 
z
" id="DejaVuSans-2e"/>
      </defs>
      <g transform="translate(31.99375 305.843812)scale(0.2 -0.2)">
       <use xlink:href="#DejaVuSans-30"/>
       <use x="63.623047" xlink:href="#DejaVuSans-2e"/>
       <use x="95.410156" xlink:href="#DejaVuSans-30"/>
      </g>
     </g>
    </g>
    <g id="ytick_2">
     <g id="line2d_31">
      <path clip-path="url(#p8e774d5e56)" d="M 70.8 245.549929 
L 427.92 245.549929 
" style="fill:none;stroke:#b0b0b0;stroke-linecap:square;stroke-width:0.8;"/>
     </g>
     <g id="line2d_32">
      <g>
       <use style="stroke:#000000;stroke-width:0.8;" x="70.8" xlink:href="#mfb516a5276" y="245.549929"/>
      </g>
     </g>
     <g id="text_8">
      <!-- 0.2 -->
      <g transform="translate(31.99375 253.148367)scale(0.2 -0.2)">
       <use xlink:href="#DejaVuSans-30"/>
       <use x="63.623047" xlink:href="#DejaVuSans-2e"/>
       <use x="95.410156" xlink:href="#DejaVuSans-32"/>
      </g>
     </g>
    </g>
    <g id="ytick_3">
     <g id="line2d_33">
      <path clip-path="url(#p8e774d5e56)" d="M 70.8 192.854484 
L 427.92 192.854484 
" style="fill:none;stroke:#b0b0b0;stroke-linecap:square;stroke-width:0.8;"/>
     </g>
     <g id="line2d_34">
      <g>
       <use style="stroke:#000000;stroke-width:0.8;" x="70.8" xlink:href="#mfb516a5276" y="192.854484"/>
      </g>
     </g>
     <g id="text_9">
      <!-- 0.4 -->
      <g transform="translate(31.99375 200.452921)scale(0.2 -0.2)">
       <use xlink:href="#DejaVuSans-30"/>
       <use x="63.623047" xlink:href="#DejaVuSans-2e"/>
       <use x="95.410156" xlink:href="#DejaVuSans-34"/>
      </g>
     </g>
    </g>
    <g id="ytick_4">
     <g id="line2d_35">
      <path clip-path="url(#p8e774d5e56)" d="M 70.8 140.159038 
L 427.92 140.159038 
" style="fill:none;stroke:#b0b0b0;stroke-linecap:square;stroke-width:0.8;"/>
     </g>
     <g id="line2d_36">
      <g>
       <use style="stroke:#000000;stroke-width:0.8;" x="70.8" xlink:href="#mfb516a5276" y="140.159038"/>
      </g>
     </g>
     <g id="text_10">
      <!-- 0.6 -->
      <g transform="translate(31.99375 147.757476)scale(0.2 -0.2)">
       <use xlink:href="#DejaVuSans-30"/>
       <use x="63.623047" xlink:href="#DejaVuSans-2e"/>
       <use x="95.410156" xlink:href="#DejaVuSans-36"/>
      </g>
     </g>
    </g>
    <g id="ytick_5">
     <g id="line2d_37">
      <path clip-path="url(#p8e774d5e56)" d="M 70.8 87.463593 
L 427.92 87.463593 
" style="fill:none;stroke:#b0b0b0;stroke-linecap:square;stroke-width:0.8;"/>
     </g>
     <g id="line2d_38">
      <g>
       <use style="stroke:#000000;stroke-width:0.8;" x="70.8" xlink:href="#mfb516a5276" y="87.463593"/>
      </g>
     </g>
     <g id="text_11">
      <!-- 0.8 -->
      <g transform="translate(31.99375 95.06203)scale(0.2 -0.2)">
       <use xlink:href="#DejaVuSans-30"/>
       <use x="63.623047" xlink:href="#DejaVuSans-2e"/>
       <use x="95.410156" xlink:href="#DejaVuSans-38"/>
      </g>
     </g>
    </g>
    <g id="ytick_6">
     <g id="line2d_39">
      <path clip-path="url(#p8e774d5e56)" d="M 70.8 34.768147 
L 427.92 34.768147 
" style="fill:none;stroke:#b0b0b0;stroke-linecap:square;stroke-width:0.8;"/>
     </g>
     <g id="line2d_40">
      <g>
       <use style="stroke:#000000;stroke-width:0.8;" x="70.8" xlink:href="#mfb516a5276" y="34.768147"/>
      </g>
     </g>
     <g id="text_12">
      <!-- 1.0 -->
      <g transform="translate(31.99375 42.366585)scale(0.2 -0.2)">
       <use xlink:href="#DejaVuSans-31"/>
       <use x="63.623047" xlink:href="#DejaVuSans-2e"/>
       <use x="95.410156" xlink:href="#DejaVuSans-30"/>
      </g>
     </g>
    </g>
    <g id="text_13">
     <!-- Proportion of function+target pairs -->
     <defs>
      <path d="M 19.671875 64.796875 
L 19.671875 37.40625 
L 32.078125 37.40625 
Q 38.96875 37.40625 42.71875 40.96875 
Q 46.484375 44.53125 46.484375 51.125 
Q 46.484375 57.671875 42.71875 61.234375 
Q 38.96875 64.796875 32.078125 64.796875 
z
M 9.8125 72.90625 
L 32.078125 72.90625 
Q 44.34375 72.90625 50.609375 67.359375 
Q 56.890625 61.8125 56.890625 51.125 
Q 56.890625 40.328125 50.609375 34.8125 
Q 44.34375 29.296875 32.078125 29.296875 
L 19.671875 29.296875 
L 19.671875 0 
L 9.8125 0 
z
" id="DejaVuSans-50"/>
      <path d="M 41.109375 46.296875 
Q 39.59375 47.171875 37.8125 47.578125 
Q 36.03125 48 33.890625 48 
Q 26.265625 48 22.1875 43.046875 
Q 18.109375 38.09375 18.109375 28.8125 
L 18.109375 0 
L 9.078125 0 
L 9.078125 54.6875 
L 18.109375 54.6875 
L 18.109375 46.1875 
Q 20.953125 51.171875 25.484375 53.578125 
Q 30.03125 56 36.53125 56 
Q 37.453125 56 38.578125 55.875 
Q 39.703125 55.765625 41.0625 55.515625 
z
" id="DejaVuSans-72"/>
      <path d="M 18.109375 8.203125 
L 18.109375 -20.796875 
L 9.078125 -20.796875 
L 9.078125 54.6875 
L 18.109375 54.6875 
L 18.109375 46.390625 
Q 20.953125 51.265625 25.265625 53.625 
Q 29.59375 56 35.59375 56 
Q 45.5625 56 51.78125 48.09375 
Q 58.015625 40.1875 58.015625 27.296875 
Q 58.015625 14.40625 51.78125 6.484375 
Q 45.5625 -1.421875 35.59375 -1.421875 
Q 29.59375 -1.421875 25.265625 0.953125 
Q 20.953125 3.328125 18.109375 8.203125 
M 48.6875 27.296875 
Q 48.6875 37.203125 44.609375 42.84375 
Q 40.53125 48.484375 33.40625 48.484375 
Q 26.265625 48.484375 22.1875 42.84375 
Q 18.109375 37.203125 18.109375 27.296875 
Q 18.109375 17.390625 22.1875 11.75 
Q 26.265625 6.109375 33.40625 6.109375 
Q 40.53125 6.109375 44.609375 11.75 
Q 48.6875 17.390625 48.6875 27.296875 
" id="DejaVuSans-70"/>
      <path d="M 18.3125 70.21875 
L 18.3125 54.6875 
L 36.8125 54.6875 
L 36.8125 47.703125 
L 18.3125 47.703125 
L 18.3125 18.015625 
Q 18.3125 11.328125 20.140625 9.421875 
Q 21.96875 7.515625 27.59375 7.515625 
L 36.8125 7.515625 
L 36.8125 0 
L 27.59375 0 
Q 17.1875 0 13.234375 3.875 
Q 9.28125 7.765625 9.28125 18.015625 
L 9.28125 47.703125 
L 2.6875 47.703125 
L 2.6875 54.6875 
L 9.28125 54.6875 
L 9.28125 70.21875 
z
" id="DejaVuSans-74"/>
      <path d="M 8.5 21.578125 
L 8.5 54.6875 
L 17.484375 54.6875 
L 17.484375 21.921875 
Q 17.484375 14.15625 20.5 10.265625 
Q 23.53125 6.390625 29.59375 6.390625 
Q 36.859375 6.390625 41.078125 11.03125 
Q 45.3125 15.671875 45.3125 23.6875 
L 45.3125 54.6875 
L 54.296875 54.6875 
L 54.296875 0 
L 45.3125 0 
L 45.3125 8.40625 
Q 42.046875 3.421875 37.71875 1 
Q 33.40625 -1.421875 27.6875 -1.421875 
Q 18.265625 -1.421875 13.375 4.4375 
Q 8.5 10.296875 8.5 21.578125 
M 31.109375 56 
z
" id="DejaVuSans-75"/>
      <path d="M 48.78125 52.59375 
L 48.78125 44.1875 
Q 44.96875 46.296875 41.140625 47.34375 
Q 37.3125 48.390625 33.40625 48.390625 
Q 24.65625 48.390625 19.8125 42.84375 
Q 14.984375 37.3125 14.984375 27.296875 
Q 14.984375 17.28125 19.8125 11.734375 
Q 24.65625 6.203125 33.40625 6.203125 
Q 37.3125 6.203125 41.140625 7.25 
Q 44.96875 8.296875 48.78125 10.40625 
L 48.78125 2.09375 
Q 45.015625 0.34375 40.984375 -0.53125 
Q 36.96875 -1.421875 32.421875 -1.421875 
Q 20.0625 -1.421875 12.78125 6.34375 
Q 5.515625 14.109375 5.515625 27.296875 
Q 5.515625 40.671875 12.859375 48.328125 
Q 20.21875 56 33.015625 56 
Q 37.15625 56 41.109375 55.140625 
Q 45.0625 54.296875 48.78125 52.59375 
" id="DejaVuSans-63"/>
      <path d="M 46 62.703125 
L 46 35.5 
L 73.1875 35.5 
L 73.1875 27.203125 
L 46 27.203125 
L 46 0 
L 37.796875 0 
L 37.796875 27.203125 
L 10.59375 27.203125 
L 10.59375 35.5 
L 37.796875 35.5 
L 37.796875 62.703125 
z
" id="DejaVuSans-2b"/>
     </defs>
     <g transform="translate(24.250312 323.17875)rotate(-90)scale(0.18 -0.18)">
      <use xlink:href="#DejaVuSans-50"/>
      <use x="60.287109" xlink:href="#DejaVuSans-72"/>
      <use x="101.369141" xlink:href="#DejaVuSans-6f"/>
      <use x="162.550781" xlink:href="#DejaVuSans-70"/>
      <use x="226.027344" xlink:href="#DejaVuSans-6f"/>
      <use x="287.208984" xlink:href="#DejaVuSans-72"/>
      <use x="328.322266" xlink:href="#DejaVuSans-74"/>
      <use x="367.53125" xlink:href="#DejaVuSans-69"/>
      <use x="395.314453" xlink:href="#DejaVuSans-6f"/>
      <use x="456.496094" xlink:href="#DejaVuSans-6e"/>
      <use x="519.875" xlink:href="#DejaVuSans-20"/>
      <use x="551.662109" xlink:href="#DejaVuSans-6f"/>
      <use x="612.84375" xlink:href="#DejaVuSans-66"/>
      <use x="648.048828" xlink:href="#DejaVuSans-20"/>
      <use x="679.835938" xlink:href="#DejaVuSans-66"/>
      <use x="715.041016" xlink:href="#DejaVuSans-75"/>
      <use x="778.419922" xlink:href="#DejaVuSans-6e"/>
      <use x="841.798828" xlink:href="#DejaVuSans-63"/>
      <use x="896.779297" xlink:href="#DejaVuSans-74"/>
      <use x="935.988281" xlink:href="#DejaVuSans-69"/>
      <use x="963.771484" xlink:href="#DejaVuSans-6f"/>
      <use x="1024.953125" xlink:href="#DejaVuSans-6e"/>
      <use x="1088.332031" xlink:href="#DejaVuSans-2b"/>
      <use x="1172.121094" xlink:href="#DejaVuSans-74"/>
      <use x="1211.330078" xlink:href="#DejaVuSans-61"/>
      <use x="1272.609375" xlink:href="#DejaVuSans-72"/>
      <use x="1313.707031" xlink:href="#DejaVuSans-67"/>
      <use x="1377.183594" xlink:href="#DejaVuSans-65"/>
      <use x="1438.707031" xlink:href="#DejaVuSans-74"/>
      <use x="1477.916016" xlink:href="#DejaVuSans-20"/>
      <use x="1509.703125" xlink:href="#DejaVuSans-70"/>
      <use x="1573.179688" xlink:href="#DejaVuSans-61"/>
      <use x="1634.458984" xlink:href="#DejaVuSans-69"/>
      <use x="1662.242188" xlink:href="#DejaVuSans-72"/>
      <use x="1703.355469" xlink:href="#DejaVuSans-73"/>
     </g>
    </g>
   </g>
   <g id="line2d_41">
    <defs>
     <path d="M 0 1.5 
C 0.397805 1.5 0.77937 1.341951 1.06066 1.06066 
C 1.341951 0.77937 1.5 0.397805 1.5 0 
C 1.5 -0.397805 1.341951 -0.77937 1.06066 -1.06066 
C 0.77937 -1.341951 0.397805 -1.5 0 -1.5 
C -0.397805 -1.5 -0.77937 -1.341951 -1.06066 -1.06066 
C -1.341951 -0.77937 -1.5 -0.397805 -1.5 0 
C -1.5 0.397805 -1.341951 0.77937 -1.06066 1.06066 
C -0.77937 1.341951 -0.397805 1.5 0 1.5 
z
" id="m38abbae7a6" style="stroke:#000080;"/>
    </defs>
    <g>
     <use style="fill:#000080;stroke:#000080;" x="246.264848" xlink:href="#m38abbae7a6" y="101.929009"/>
     <use style="fill:#000080;stroke:#000080;" x="246.264848" xlink:href="#m38abbae7a6" y="101.929009"/>
    </g>
   </g>
   <g id="line2d_42">
    <path d="M 58.414766 298.245375 
L 58.414766 280.680226 
L 70.8 280.680226 
L 70.8 278.613738 
L 78.044898 278.613738 
L 78.044898 277.580494 
L 83.185234 277.580494 
L 83.185234 274.997384 
L 87.172389 274.997384 
L 87.172389 273.96414 
L 93.184514 273.96414 
L 93.184514 271.897652 
L 97.675029 271.897652 
L 97.675029 271.38103 
L 99.557623 271.38103 
L 99.557623 269.831164 
L 101.260636 269.831164 
L 101.260636 268.79792 
L 110.060263 268.79792 
L 110.060263 268.281298 
L 112.814645 268.281298 
L 112.814645 267.764676 
L 115.930012 267.764676 
L 115.930012 267.248054 
L 116.630812 267.248054 
L 116.630812 266.731432 
L 118.581998 266.731432 
L 118.581998 265.698188 
L 120.890768 265.698188 
L 120.890768 264.148322 
L 128.315246 264.148322 
L 128.315246 263.6317 
L 130.656474 263.6317 
L 130.656474 262.598456 
L 132.444777 262.598456 
L 132.444777 262.081834 
L 132.726171 262.081834 
L 132.726171 261.565212 
L 133.809418 261.565212 
L 133.809418 260.531968 
L 136.488566 260.531968 
L 136.488566 260.015346 
L 137.371122 260.015346 
L 137.371122 258.982102 
L 139.210608 258.982102 
L 139.210608 257.948858 
L 140.339496 257.948858 
L 140.339496 256.915614 
L 141.741636 256.915614 
L 141.741636 255.88237 
L 141.909413 255.88237 
L 141.909413 253.815882 
L 142.075629 253.815882 
L 142.075629 253.29926 
L 143.657911 253.29926 
L 143.657911 251.232772 
L 145.250457 251.232772 
L 145.250457 250.71615 
L 145.796091 250.71615 
L 145.796091 250.199528 
L 146.712605 250.199528 
L 146.712605 249.682906 
L 147.091449 249.682906 
L 147.091449 249.166284 
L 147.825858 249.166284 
L 147.825858 247.616418 
L 149.209888 247.616418 
L 149.209888 246.066551 
L 149.53977 246.066551 
L 149.53977 243.483441 
L 150.07639 243.483441 
L 150.07639 242.966819 
L 152.449124 242.966819 
L 152.449124 241.933575 
L 154.950431 241.933575 
L 154.950431 241.416953 
L 155.814552 241.416953 
L 155.814552 240.900331 
L 156.193932 240.900331 
L 156.193932 239.350465 
L 158.579887 239.350465 
L 158.579887 238.317221 
L 158.775882 238.317221 
L 158.775882 237.800599 
L 159.476683 237.800599 
L 159.476683 236.250733 
L 160.390073 236.250733 
L 160.390073 235.734111 
L 161.2024 235.734111 
L 161.2024 235.217489 
L 161.539544 235.217489 
L 161.595122 233.151001 
L 161.979397 233.151001 
L 161.979397 232.634379 
L 162.461624 232.634379 
L 162.461624 232.117757 
L 163.588354 232.117757 
L 163.588354 231.084513 
L 164.077923 231.084513 
L 164.077923 230.567891 
L 164.222215 230.567891 
L 164.222215 230.051269 
L 164.507351 230.051269 
L 164.507351 229.534647 
L 164.834358 229.534647 
L 164.834358 229.018025 
L 165.381384 229.018025 
L 165.381384 227.984781 
L 166.385229 227.984781 
L 166.385229 227.468159 
L 166.72158 227.468159 
L 166.72158 226.951537 
L 167.851318 226.951537 
L 167.851318 225.918293 
L 168.27631 225.918293 
L 168.27631 225.401671 
L 169.242389 225.401671 
L 169.350572 224.368427 
L 169.386487 224.368427 
L 169.493804 222.818561 
L 169.671244 222.818561 
L 169.74173 221.268695 
L 170.600114 221.268695 
L 170.700403 217.652341 
L 170.833252 217.652341 
L 170.932245 216.619097 
L 171.514952 216.619097 
L 171.610249 213.519365 
L 172.171597 213.519365 
L 172.171597 213.002743 
L 172.506159 213.002743 
L 172.506159 211.969498 
L 173.473824 211.969498 
L 173.473824 211.452876 
L 174.820407 211.452876 
L 174.820407 210.419632 
L 175.109244 210.419632 
L 175.109244 208.869766 
L 175.495736 208.869766 
L 175.495736 208.353144 
L 175.849072 208.353144 
L 175.849072 207.836522 
L 175.998388 207.836522 
L 175.998388 206.803278 
L 177.380878 206.803278 
L 177.380878 206.286656 
L 177.540722 206.286656 
L 177.540722 205.253412 
L 177.766618 205.253412 
L 177.766618 204.220168 
L 179.53888 204.220168 
L 179.53888 203.186924 
L 179.660432 203.186924 
L 179.660432 202.15368 
L 179.920992 202.15368 
L 179.920992 201.637058 
L 180.079469 201.637058 
L 180.079469 201.120436 
L 181.132528 201.120436 
L 181.188221 199.57057 
L 181.280658 199.57057 
L 181.280658 198.537326 
L 181.717821 198.537326 
L 181.717821 197.504082 
L 182.509743 197.504082 
L 182.509743 196.470838 
L 182.766105 196.470838 
L 182.766105 195.954216 
L 183.085637 195.954216 
L 183.135571 194.40435 
L 183.562587 194.40435 
L 183.611208 193.371106 
L 183.884254 193.371106 
L 183.884254 192.854484 
L 184.011317 192.854484 
L 184.011317 192.337862 
L 184.648698 192.337862 
L 184.648698 191.82124 
L 184.891393 191.82124 
L 184.891393 191.304618 
L 185.04142 191.304618 
L 185.04142 190.787996 
L 186.979206 190.787996 
L 186.979206 190.271374 
L 187.376881 190.271374 
L 187.389986 189.23813 
L 187.765898 189.23813 
L 187.765898 188.721508 
L 188.134064 188.721508 
L 188.184255 187.688264 
L 188.751544 187.688264 
L 188.848391 186.65502 
L 188.920683 186.65502 
L 188.920683 186.138398 
L 189.13582 186.138398 
L 189.13582 185.621776 
L 189.266029 185.621776 
L 189.348397 183.555288 
L 189.430388 183.555288 
L 189.535255 182.522044 
L 189.937319 182.522044 
L 189.937319 180.972178 
L 191.102566 180.972178 
L 191.102566 180.455556 
L 191.398088 180.455556 
L 191.398088 179.422312 
L 191.512862 179.422312 
L 191.512862 178.90569 
L 191.984993 178.90569 
L 191.984993 178.389067 
L 192.276355 178.389067 
L 192.276355 177.872445 
L 192.563042 177.872445 
L 192.670593 176.839201 
L 192.719267 176.839201 
L 192.719267 176.322579 
L 193.046778 176.322579 
L 193.122975 174.256091 
L 193.17991 174.256091 
L 193.17991 173.739469 
L 193.321459 173.739469 
L 193.321459 173.222847 
L 193.508463 173.222847 
L 193.508463 172.706225 
L 193.665893 172.706225 
L 193.665893 172.189603 
L 193.867587 172.189603 
L 193.958519 171.156359 
L 193.985709 171.156359 
L 194.039964 169.606493 
L 194.103055 169.606493 
L 194.103055 168.573249 
L 194.920779 168.573249 
L 194.972272 167.540005 
L 195.378961 167.540005 
L 195.378961 167.023383 
L 195.62852 167.023383 
L 195.62852 166.506761 
L 196.506994 166.506761 
L 196.616759 164.956895 
L 196.888257 164.956895 
L 196.888257 163.923651 
L 197.32928 163.923651 
L 197.32928 163.407029 
L 197.456509 163.407029 
L 197.471418 162.373785 
L 198.158457 162.373785 
L 198.158457 161.857163 
L 198.667393 161.857163 
L 198.667393 160.823919 
L 198.792394 160.823919 
L 198.868355 159.790675 
L 199.09432 159.790675 
L 199.09432 159.274053 
L 199.497985 159.274053 
L 199.497985 157.724187 
L 199.729312 157.724187 
L 199.735877 156.174321 
L 200.067561 156.174321 
L 200.067561 155.141077 
L 200.215152 155.141077 
L 200.215152 154.624455 
L 201.069891 154.624455 
L 201.069891 154.107833 
L 201.287871 154.107833 
L 201.287871 153.591211 
L 201.604024 153.591211 
L 201.668945 152.041345 
L 201.978484 152.041345 
L 202.082402 150.491479 
L 202.185719 150.491479 
L 202.277058 149.458235 
L 202.475249 149.458235 
L 202.475249 148.941613 
L 202.604302 148.941613 
L 202.604302 148.424991 
L 203.546236 148.424991 
L 203.546236 147.908369 
L 203.673073 147.908369 
L 203.673073 146.875125 
L 203.846017 146.875125 
L 203.882488 145.841881 
L 204.084331 145.841881 
L 204.125455 144.808637 
L 204.232956 144.808637 
L 204.334739 143.25877 
L 204.420802 143.25877 
L 204.420802 142.742148 
L 205.379437 142.742148 
L 205.379437 142.225526 
L 205.612451 142.225526 
L 205.612451 141.708904 
L 206.179741 141.708904 
L 206.257379 140.159038 
L 207.198257 140.159038 
L 207.198257 139.642416 
L 207.331778 139.642416 
L 207.331778 139.125794 
L 207.595865 139.125794 
L 207.595865 138.609172 
L 207.922653 138.609172 
L 207.997225 137.575928 
L 208.06325 137.575928 
L 208.06325 137.059306 
L 209.041032 137.059306 
L 209.041032 136.542684 
L 209.258088 136.542684 
L 209.258088 136.026062 
L 209.419167 136.026062 
L 209.510564 134.992818 
L 209.759522 134.992818 
L 209.856652 133.959574 
L 210.575927 133.959574 
L 210.575927 132.92633 
L 210.968805 132.92633 
L 211.02822 131.893086 
L 211.087437 131.893086 
L 211.198377 130.859842 
L 211.702697 130.859842 
L 211.702697 130.34322 
L 212.375304 130.34322 
L 212.375304 129.826598 
L 212.581204 129.826598 
L 212.613163 128.276732 
L 213.231368 128.276732 
L 213.231368 127.76011 
L 213.369631 127.76011 
L 213.369631 127.243488 
L 214.250454 127.243488 
L 214.250454 126.726866 
L 214.392645 126.726866 
L 214.392645 126.210244 
L 214.507886 126.210244 
L 214.507886 125.693622 
L 214.659445 125.693622 
L 214.659445 125.177 
L 215.0063 125.177 
L 215.0063 124.143756 
L 215.870373 124.143756 
L 215.870373 123.627134 
L 216.089876 123.627134 
L 216.089876 123.110512 
L 216.520955 123.110512 
L 216.520955 122.59389 
L 216.67933 122.59389 
L 216.67933 122.077268 
L 216.876602 122.077268 
L 216.919309 120.527402 
L 217.589104 120.527402 
L 217.589104 120.01078 
L 217.84824 120.01078 
L 217.84824 119.494158 
L 218.033084 119.494158 
L 218.033084 118.977536 
L 218.742587 118.977536 
L 218.742587 118.460914 
L 218.938633 118.460914 
L 218.994572 116.911048 
L 219.665445 116.911048 
L 219.665445 115.877804 
L 219.826102 115.877804 
L 219.826102 115.361182 
L 220.620649 115.361182 
L 220.659362 114.327938 
L 221.342227 114.327938 
L 221.342227 113.811316 
L 222.14101 113.811316 
L 222.14101 113.294694 
L 222.808419 113.294694 
L 222.813832 112.26145 
L 222.98262 112.26145 
L 222.98262 111.228206 
L 223.222274 111.228206 
L 223.327763 110.194961 
L 223.521292 110.194961 
L 223.521292 109.678339 
L 223.635378 109.678339 
L 223.683558 108.645095 
L 224.742732 108.645095 
L 224.742732 108.128473 
L 226.799543 108.128473 
L 226.799543 107.611851 
L 227.918501 107.611851 
L 227.927989 106.578607 
L 228.206312 106.578607 
L 228.206312 106.061985 
L 230.841176 106.061985 
L 230.860736 105.028741 
L 231.796043 105.028741 
L 231.796043 104.512119 
L 232.59425 104.512119 
L 232.59425 103.995497 
L 233.024231 103.995497 
L 233.024231 103.478875 
L 233.867956 103.478875 
L 233.867956 102.962253 
L 243.725341 102.962253 
L 243.725341 102.445631 
L 246.264848 102.445631 
L 246.264848 101.929009 
L 358.8 101.929009 
L 358.8 101.929009 
" style="fill:none;stroke:#000080;stroke-linecap:square;stroke-width:1.5;"/>
   </g>
   <g id="line2d_43">
    <defs>
     <path d="M 0 6 
C 1.591219 6 3.117479 5.367802 4.242641 4.242641 
C 5.367802 3.117479 6 1.591219 6 0 
C 6 -1.591219 5.367802 -3.117479 4.242641 -4.242641 
C 3.117479 -5.367802 1.591219 -6 0 -6 
C -1.591219 -6 -3.117479 -5.367802 -4.242641 -4.242641 
C -5.367802 -3.117479 -6 -1.591219 -6 0 
C -6 1.591219 -5.367802 3.117479 -4.242641 4.242641 
C -3.117479 5.367802 -1.591219 6 0 6 
z
" id="me90189dbe7" style="stroke:#000080;stroke-width:1.5;"/>
    </defs>
    <g>
     <use style="fill:none;stroke:#000080;stroke-width:1.5;" x="93.184514" xlink:href="#me90189dbe7" y="271.897652"/>
     <use style="fill:none;stroke:#000080;stroke-width:1.5;" x="169.74173" xlink:href="#me90189dbe7" y="221.268695"/>
     <use style="fill:none;stroke:#000080;stroke-width:1.5;" x="205.612451" xlink:href="#me90189dbe7" y="141.708904"/>
     <use style="fill:none;stroke:#000080;stroke-width:1.5;" x="246.264848" xlink:href="#me90189dbe7" y="102.445631"/>
     <use style="fill:none;stroke:#000080;stroke-width:1.5;" x="246.264848" xlink:href="#me90189dbe7" y="101.929009"/>
     <use style="fill:none;stroke:#000080;stroke-width:1.5;" x="358.8" xlink:href="#me90189dbe7" y="101.929009"/>
    </g>
   </g>
   <g id="line2d_44"/>
   <g id="line2d_45">
    <path clip-path="url(#p8e774d5e56)" d="M 165.470948 227.984781 
" style="fill:none;stroke:#000080;stroke-linecap:square;stroke-width:1.5;"/>
    <defs>
     <path d="M -12 12 
L 12 -12 
M -12 -12 
L 12 12 
" id="mb82e5f31d0" style="stroke:#000080;stroke-width:3;"/>
    </defs>
    <g clip-path="url(#p8e774d5e56)">
     <use style="fill:#000080;stroke:#000080;stroke-width:3;" x="165.470948" xlink:href="#mb82e5f31d0" y="227.984781"/>
    </g>
   </g>
   <g id="line2d_46">
    <defs>
     <path d="M 0 1.5 
C 0.397805 1.5 0.77937 1.341951 1.06066 1.06066 
C 1.341951 0.77937 1.5 0.397805 1.5 0 
C 1.5 -0.397805 1.341951 -0.77937 1.06066 -1.06066 
C 0.77937 -1.341951 0.397805 -1.5 0 -1.5 
C -0.397805 -1.5 -0.77937 -1.341951 -1.06066 -1.06066 
C -1.341951 -0.77937 -1.5 -0.397805 -1.5 0 
C -1.5 0.397805 -1.341951 0.77937 -1.06066 1.06066 
C -0.77937 1.341951 -0.397805 1.5 0 1.5 
z
" id="mcf77632e8b" style="stroke:#ff00ff;"/>
    </defs>
    <g>
     <use style="fill:#ff00ff;stroke:#ff00ff;" x="239.994666" xlink:href="#mcf77632e8b" y="96.762789"/>
     <use style="fill:#ff00ff;stroke:#ff00ff;" x="239.994666" xlink:href="#mcf77632e8b" y="96.762789"/>
    </g>
   </g>
   <g id="line2d_47">
    <path d="M 58.414766 298.245375 
L 58.414766 288.429557 
L 70.8 288.429557 
L 70.8 287.396313 
L 78.044898 287.396313 
L 78.044898 281.196849 
L 83.185234 281.196849 
L 83.185234 279.646982 
L 87.172389 279.646982 
L 87.172389 278.613738 
L 90.430132 278.613738 
L 90.430132 278.097116 
L 93.184514 278.097116 
L 93.184514 271.897652 
L 95.570468 271.897652 
L 95.570468 270.347786 
L 99.557623 270.347786 
L 99.557623 268.281298 
L 101.260636 268.281298 
L 101.260636 267.764676 
L 107.955702 267.764676 
L 107.955702 267.248054 
L 111.026343 267.248054 
L 111.026343 264.664944 
L 113.64587 264.664944 
L 113.64587 263.115078 
L 114.44014 263.115078 
L 114.44014 262.081834 
L 115.2006 262.081834 
L 115.2006 261.04859 
L 115.930012 261.04859 
L 115.930012 260.015346 
L 117.954982 260.015346 
L 117.954982 257.432236 
L 119.187755 257.432236 
L 119.187755 254.849126 
L 120.340936 254.849126 
L 120.340936 253.29926 
L 120.890768 253.29926 
L 120.890768 252.782638 
L 121.424184 252.782638 
L 121.424184 249.682906 
L 121.942137 249.682906 
L 121.942137 247.099796 
L 122.445497 247.099796 
L 122.445497 246.583173 
L 122.935065 246.583173 
L 122.935065 245.549929 
L 126.031105 245.549929 
L 126.031105 242.966819 
L 126.432652 242.966819 
L 126.432652 242.450197 
L 127.209649 242.450197 
L 127.209649 240.900331 
L 128.669082 240.900331 
L 128.669082 240.383709 
L 129.016046 240.383709 
L 129.016046 239.350465 
L 129.356402 239.350465 
L 129.356402 238.317221 
L 130.340216 238.317221 
L 130.340216 237.283977 
L 130.656474 237.283977 
L 130.656474 236.250733 
L 131.572989 236.250733 
L 131.572989 235.217489 
L 133.003201 235.217489 
L 133.003201 232.117757 
L 134.327371 232.117757 
L 134.327371 231.084513 
L 136.030384 231.084513 
L 136.030384 230.567891 
L 136.713325 230.567891 
L 136.713325 227.468159 
L 140.878274 227.468159 
L 140.878274 225.401671 
L 142.72545 225.401671 
L 142.72545 224.885049 
L 143.657911 224.885049 
L 143.657911 224.368427 
L 143.808698 224.368427 
L 143.808698 223.851805 
L 144.544115 223.851805 
L 144.544115 222.818561 
L 146.455505 222.818561 
L 146.455505 221.268695 
L 148.182045 221.268695 
L 148.182045 220.235451 
L 152.356302 220.235451 
L 152.356302 219.718829 
L 154.294647 219.718829 
L 154.294647 219.202207 
L 157.91059 219.202207 
L 157.91059 218.168963 
L 158.114025 218.168963 
L 158.114025 217.652341 
L 159.097839 217.652341 
L 159.097839 217.135719 
L 160.567279 217.135719 
L 160.567279 216.102475 
L 163.033869 216.102475 
L 163.033869 215.585853 
L 163.48881 215.585853 
L 163.48881 215.069231 
L 164.029565 215.069231 
L 164.029565 214.552609 
L 164.554434 214.552609 
L 164.554434 213.519365 
L 165.780936 213.519365 
L 165.780936 213.002743 
L 166.257447 213.002743 
L 166.300143 211.969498 
L 166.554196 211.969498 
L 166.554196 210.936254 
L 166.804688 210.936254 
L 166.846097 209.90301 
L 166.928629 209.90301 
L 167.010781 206.803278 
L 167.051716 206.803278 
L 167.051716 206.286656 
L 167.335665 206.286656 
L 167.335665 202.670302 
L 167.694235 202.670302 
L 167.694235 201.120436 
L 167.851318 201.120436 
L 167.851318 200.087192 
L 168.161402 200.087192 
L 168.161402 198.537326 
L 168.352506 198.537326 
L 168.352506 198.020704 
L 168.616665 198.020704 
L 168.616665 197.504082 
L 168.728691 197.504082 
L 168.728691 196.98746 
L 168.876975 196.98746 
L 168.876975 196.470838 
L 169.024039 196.470838 
L 169.024039 195.437594 
L 169.493804 195.437594 
L 169.493804 193.887728 
L 169.881873 193.887728 
L 169.881873 193.371106 
L 170.090047 193.371106 
L 170.124509 191.82124 
L 170.295825 191.82124 
L 170.295825 190.271374 
L 170.766951 190.271374 
L 170.866311 188.204886 
L 170.932245 188.204886 
L 170.932245 187.171642 
L 171.063387 187.171642 
L 171.063387 186.65502 
L 171.225974 186.65502 
L 171.225974 186.138398 
L 171.893127 186.138398 
L 171.893127 185.621776 
L 172.476002 185.621776 
L 172.476002 184.07191 
L 174.472923 184.07191 
L 174.472923 183.555288 
L 174.952275 183.555288 
L 174.952275 183.038666 
L 175.083178 183.038666 
L 175.083178 182.522044 
L 175.622731 182.522044 
L 175.622731 182.005422 
L 176.679161 182.005422 
L 176.679161 181.4888 
L 177.056836 181.4888 
L 177.056836 180.972178 
L 177.403801 180.972178 
L 177.495198 179.938934 
L 177.766618 179.938934 
L 177.766618 179.422312 
L 178.011848 179.422312 
L 178.011848 178.389067 
L 178.406014 178.389067 
L 178.513979 177.355823 
L 178.599883 177.355823 
L 178.664042 176.322579 
L 178.812855 176.322579 
L 178.812855 175.289335 
L 179.002383 175.289335 
L 179.106814 172.706225 
L 179.148416 172.706225 
L 179.252 170.123115 
L 179.354987 170.123115 
L 179.354987 169.089871 
L 179.559196 169.089871 
L 179.559196 167.540005 
L 179.720899 167.540005 
L 179.720899 166.506761 
L 179.980586 166.506761 
L 179.980586 165.990139 
L 180.314579 165.990139 
L 180.314579 165.473517 
L 180.430984 165.473517 
L 180.430984 164.440273 
L 180.699683 164.440273 
L 180.699683 163.923651 
L 181.354266 163.923651 
L 181.354266 163.407029 
L 182.109369 163.407029 
L 182.214682 162.373785 
L 182.918175 162.373785 
L 182.918175 161.857163 
L 183.218486 161.857163 
L 183.218486 161.340541 
L 184.63342 161.340541 
L 184.63342 160.823919 
L 184.800768 160.823919 
L 184.800768 160.307297 
L 185.205008 160.307297 
L 185.205008 159.790675 
L 185.600304 159.790675 
L 185.600304 159.274053 
L 185.744519 159.274053 
L 185.744519 158.240809 
L 185.916054 158.240809 
L 185.930274 157.207565 
L 186.043633 157.207565 
L 186.114119 155.657699 
L 186.254262 155.657699 
L 186.310013 153.074589 
L 186.36559 153.074589 
L 186.40716 152.041345 
L 186.545032 152.041345 
L 186.545032 151.524723 
L 186.695472 151.524723 
L 186.695472 150.491479 
L 186.912058 150.491479 
L 186.912058 149.974857 
L 187.046103 149.974857 
L 187.046103 149.458235 
L 188.507107 149.458235 
L 188.507107 148.941613 
L 189.766113 148.941613 
L 189.766113 148.424991 
L 190.5843 148.424991 
L 190.628068 147.391747 
L 190.758731 147.391747 
L 190.823706 145.841881 
L 191.006529 145.841881 
L 191.081269 144.808637 
L 191.335172 144.808637 
L 191.335172 144.292014 
L 191.450349 144.292014 
L 191.523259 143.25877 
L 191.771001 143.25877 
L 191.771001 142.225526 
L 192.951073 142.225526 
L 192.951073 141.708904 
L 193.368394 141.708904 
L 193.368394 141.192282 
L 193.767024 141.192282 
L 193.767024 140.67566 
L 194.529776 140.67566 
L 194.529776 140.159038 
L 194.730691 140.159038 
L 194.730691 139.642416 
L 195.303409 139.642416 
L 195.303409 139.125794 
L 195.462535 139.125794 
L 195.462535 138.609172 
L 195.710937 138.609172 
L 195.710937 138.09255 
L 196.428176 138.09255 
L 196.428176 136.542684 
L 196.756902 136.542684 
L 196.756902 136.026062 
L 197.656735 136.026062 
L 197.73767 134.476196 
L 197.876608 134.476196 
L 197.912992 133.442952 
L 198.101003 133.442952 
L 198.151285 131.893086 
L 198.222872 131.893086 
L 198.301288 130.34322 
L 198.35101 130.34322 
L 198.386442 129.309976 
L 198.485278 129.309976 
L 198.520445 127.76011 
L 198.861463 127.76011 
L 198.861463 127.243488 
L 199.337611 127.243488 
L 199.337611 126.726866 
L 199.630538 126.726866 
L 199.630538 126.210244 
L 199.925236 126.210244 
L 199.925236 125.693622 
L 200.575753 125.693622 
L 200.650751 124.660378 
L 200.873872 124.660378 
L 200.978275 123.627134 
L 201.014978 123.627134 
L 201.014978 123.110512 
L 201.130708 123.110512 
L 201.130708 122.59389 
L 201.311928 122.59389 
L 201.311928 122.077268 
L 201.838979 122.077268 
L 201.838979 121.560646 
L 203.305962 121.560646 
L 203.305962 121.044024 
L 204.032794 121.044024 
L 204.032794 120.527402 
L 205.3123 120.527402 
L 205.3123 120.01078 
L 207.107237 120.01078 
L 207.107237 119.494158 
L 207.21986 119.494158 
L 207.21986 118.977536 
L 208.765951 118.977536 
L 208.765951 118.460914 
L 208.880428 118.460914 
L 208.880428 117.944292 
L 209.350311 117.944292 
L 209.350311 117.42767 
L 209.688207 117.42767 
L 209.688207 116.394426 
L 210.283681 116.394426 
L 210.283681 115.877804 
L 210.504211 115.877804 
L 210.572348 114.327938 
L 211.496557 114.327938 
L 211.496557 113.811316 
L 211.722846 113.811316 
L 211.722846 112.778072 
L 211.886544 112.778072 
L 211.886544 112.26145 
L 212.180093 112.26145 
L 212.180093 111.744828 
L 212.323456 111.744828 
L 212.323456 111.228206 
L 212.468896 111.228206 
L 212.468896 110.194961 
L 213.442937 110.194961 
L 213.442937 109.678339 
L 213.576553 109.678339 
L 213.576553 109.161717 
L 214.265015 109.161717 
L 214.265015 108.128473 
L 214.747501 108.128473 
L 214.747501 107.611851 
L 215.192443 107.611851 
L 215.192443 107.095229 
L 215.354769 107.095229 
L 215.354769 106.061985 
L 215.965911 106.061985 
L 215.965911 105.545363 
L 216.358575 105.545363 
L 216.358575 105.028741 
L 216.881631 105.028741 
L 216.881631 104.512119 
L 218.216036 104.512119 
L 218.216036 103.995497 
L 218.889261 103.995497 
L 218.889261 103.478875 
L 219.304636 103.478875 
L 219.304636 102.962253 
L 219.766292 102.962253 
L 219.766292 102.445631 
L 222.81744 102.445631 
L 222.81744 101.929009 
L 223.292669 101.929009 
L 223.292669 101.412387 
L 227.007623 101.412387 
L 227.007623 100.895765 
L 228.660762 100.895765 
L 228.660762 100.379143 
L 228.935671 100.379143 
L 228.935671 99.862521 
L 229.877399 99.862521 
L 229.877399 99.345899 
L 230.669978 99.345899 
L 230.669978 98.829277 
L 232.43912 98.829277 
L 232.43912 98.312655 
L 233.262065 98.312655 
L 233.262065 97.796033 
L 234.965718 97.796033 
L 234.965718 97.279411 
L 239.994666 97.279411 
L 239.994666 96.762789 
L 358.8 96.762789 
L 358.8 96.762789 
" style="fill:none;stroke:#ff00ff;stroke-linecap:square;stroke-width:1.5;"/>
   </g>
   <g id="line2d_48">
    <defs>
     <path d="M -0 8.485281 
L 5.091169 0 
L 0 -8.485281 
L -5.091169 -0 
z
" id="m8eb83d4148" style="stroke:#ff00ff;stroke-linejoin:miter;stroke-width:1.5;"/>
    </defs>
    <g>
     <use style="fill:none;stroke:#ff00ff;stroke-linejoin:miter;stroke-width:1.5;" x="130.656474" xlink:href="#m8eb83d4148" y="237.283977"/>
     <use style="fill:none;stroke:#ff00ff;stroke-linejoin:miter;stroke-width:1.5;" x="179.065115" xlink:href="#m8eb83d4148" y="174.256091"/>
     <use style="fill:none;stroke:#ff00ff;stroke-linejoin:miter;stroke-width:1.5;" x="211.722846" xlink:href="#m8eb83d4148" y="113.811316"/>
     <use style="fill:none;stroke:#ff00ff;stroke-linejoin:miter;stroke-width:1.5;" x="239.994666" xlink:href="#m8eb83d4148" y="96.762789"/>
     <use style="fill:none;stroke:#ff00ff;stroke-linejoin:miter;stroke-width:1.5;" x="239.994666" xlink:href="#m8eb83d4148" y="96.762789"/>
     <use style="fill:none;stroke:#ff00ff;stroke-linejoin:miter;stroke-width:1.5;" x="358.8" xlink:href="#m8eb83d4148" y="96.762789"/>
    </g>
   </g>
   <g id="line2d_49"/>
   <g id="line2d_50">
    <path clip-path="url(#p8e774d5e56)" d="M 165.470948 213.519365 
" style="fill:none;stroke:#ff00ff;stroke-linecap:square;stroke-width:1.5;"/>
    <defs>
     <path d="M -12 12 
L 12 -12 
M -12 -12 
L 12 12 
" id="m840b32671f" style="stroke:#ff00ff;stroke-width:3;"/>
    </defs>
    <g clip-path="url(#p8e774d5e56)">
     <use style="fill:#ff00ff;stroke:#ff00ff;stroke-width:3;" x="165.470948" xlink:href="#m840b32671f" y="213.519365"/>
    </g>
   </g>
   <g id="line2d_51">
    <defs>
     <path d="M 0 1.5 
C 0.397805 1.5 0.77937 1.341951 1.06066 1.06066 
C 1.341951 0.77937 1.5 0.397805 1.5 0 
C 1.5 -0.397805 1.341951 -0.77937 1.06066 -1.06066 
C 0.77937 -1.341951 0.397805 -1.5 0 -1.5 
C -0.397805 -1.5 -0.77937 -1.341951 -1.06066 -1.06066 
C -1.341951 -0.77937 -1.5 -0.397805 -1.5 0 
C -1.5 0.397805 -1.341951 0.77937 -1.06066 1.06066 
C -0.77937 1.341951 -0.397805 1.5 0 1.5 
z
" id="m3cdc1290ca" style="stroke:#ffa500;"/>
    </defs>
    <g>
     <use style="fill:#ffa500;stroke:#ffa500;" x="206.835773" xlink:href="#m3cdc1290ca" y="34.768147"/>
     <use style="fill:#ffa500;stroke:#ffa500;" x="206.835773" xlink:href="#m3cdc1290ca" y="34.768147"/>
    </g>
   </g>
   <g id="line2d_52">
    <path d="M 58.414766 298.245375 
L 58.414766 270.347786 
L 70.8 270.347786 
L 70.8 257.432236 
L 78.044898 257.432236 
L 78.044898 254.332504 
L 87.172389 254.332504 
L 87.172389 251.749394 
L 93.184514 251.749394 
L 93.184514 249.682906 
L 97.675029 249.682906 
L 97.675029 246.066551 
L 99.557623 246.066551 
L 99.557623 244.516685 
L 102.815366 244.516685 
L 102.815366 244.000063 
L 104.245578 244.000063 
L 104.245578 243.483441 
L 111.026343 243.483441 
L 111.026343 242.450197 
L 114.44014 242.450197 
L 114.44014 241.416953 
L 116.630812 241.416953 
L 116.630812 240.383709 
L 117.305161 240.383709 
L 117.305161 239.350465 
L 119.187755 239.350465 
L 119.187755 238.833843 
L 120.340936 238.833843 
L 120.340936 238.317221 
L 122.445497 238.317221 
L 122.445497 236.250733 
L 123.411577 236.250733 
L 123.411577 232.634379 
L 124.769302 232.634379 
L 124.769302 226.951537 
L 126.031105 226.951537 
L 126.031105 225.918293 
L 126.825374 225.918293 
L 126.825374 224.368427 
L 128.315246 224.368427 
L 128.315246 220.235451 
L 129.016046 220.235451 
L 129.016046 215.585853 
L 130.018259 215.585853 
L 130.018259 213.002743 
L 130.967232 213.002743 
L 130.967232 209.90301 
L 131.272677 209.90301 
L 131.272677 206.803278 
L 133.276002 206.803278 
L 133.276002 205.253412 
L 133.544701 205.253412 
L 133.544701 202.670302 
L 134.070271 202.670302 
L 134.070271 201.120436 
L 134.327371 201.120436 
L 134.327371 197.504082 
L 134.580824 197.504082 
L 134.580824 195.437594 
L 136.030384 195.437594 
L 136.030384 188.721508 
L 136.935292 188.721508 
L 136.935292 188.204886 
L 137.371122 188.204886 
L 137.371122 186.138398 
L 138.005559 186.138398 
L 138.005559 185.105154 
L 138.212129 185.105154 
L 138.212129 180.972178 
L 138.61824 180.972178 
L 138.61824 177.355823 
L 139.210608 177.355823 
L 139.210608 176.322579 
L 139.403779 176.322579 
L 139.403779 174.256091 
L 139.971068 174.256091 
L 139.971068 173.739469 
L 140.339496 173.739469 
L 140.339496 173.222847 
L 140.5209 173.222847 
L 140.5209 172.706225 
L 142.403494 172.706225 
L 142.403494 171.156359 
L 142.565197 171.156359 
L 142.565197 170.639737 
L 143.041708 170.639737 
L 143.041708 165.990139 
L 143.352466 165.990139 
L 143.352466 164.440273 
L 145.111405 164.440273 
L 145.111405 163.407029 
L 145.388435 163.407029 
L 145.388435 162.373785 
L 145.929935 162.373785 
L 145.929935 161.857163 
L 147.215966 161.857163 
L 147.215966 160.823919 
L 147.705534 160.823919 
L 147.705534 159.790675 
L 147.945378 159.790675 
L 147.945378 159.274053 
L 149.756356 159.274053 
L 149.863672 157.207565 
L 151.789013 157.207565 
L 151.789013 156.174321 
L 152.1692 156.174321 
L 152.1692 155.657699 
L 152.633333 155.657699 
L 152.633333 154.624455 
L 152.815662 154.624455 
L 152.906134 151.524723 
L 153.174832 151.524723 
L 153.174832 150.491479 
L 153.700403 150.491479 
L 153.700403 149.974857 
L 153.872213 149.974857 
L 153.957503 147.391747 
L 154.12687 147.391747 
L 154.12687 146.358503 
L 154.294647 146.358503 
L 154.294647 145.841881 
L 165.560066 145.841881 
L 165.560066 141.192282 
L 165.780936 141.192282 
L 165.868525 138.609172 
L 165.912159 138.609172 
L 165.912159 137.575928 
L 166.512104 137.575928 
L 166.512104 137.059306 
L 167.092558 137.059306 
L 167.092558 134.992818 
L 167.214525 134.992818 
L 167.295376 131.376464 
L 167.335665 131.376464 
L 167.335665 130.34322 
L 167.535758 130.34322 
L 167.575509 126.210244 
L 167.772949 126.210244 
L 167.772949 125.177 
L 167.890374 125.177 
L 167.929345 123.110512 
L 168.007033 123.110512 
L 168.04575 120.527402 
L 168.161402 120.527402 
L 168.238089 118.460914 
L 168.352506 118.460914 
L 168.352506 115.877804 
L 168.616665 115.877804 
L 168.616665 113.294694 
L 168.765878 113.294694 
L 168.840019 111.228206 
L 168.950658 111.228206 
L 169.060616 106.061985 
L 169.169902 106.061985 
L 169.278523 103.478875 
L 169.529433 103.478875 
L 169.529433 102.962253 
L 169.811939 102.962253 
L 169.811939 101.929009 
L 169.951534 101.929009 
L 170.020925 98.829277 
L 170.431704 98.829277 
L 170.431704 98.312655 
L 171.096023 98.312655 
L 171.161117 96.762789 
L 172.232894 96.762789 
L 172.232894 96.246167 
L 172.415534 96.246167 
L 172.415534 95.729545 
L 172.566321 95.729545 
L 172.566321 94.179679 
L 172.923101 94.179679 
L 172.981877 92.113191 
L 173.700724 92.113191 
L 173.700724 91.596569 
L 177.900797 91.596569 
L 178.011848 89.530081 
L 178.056076 89.530081 
L 178.056076 88.496837 
L 178.685377 88.496837 
L 178.791672 84.880483 
L 178.812855 84.880483 
L 178.812855 84.363861 
L 178.93943 84.363861 
L 178.981424 80.747507 
L 179.106814 80.747507 
L 179.148416 78.681019 
L 179.354987 78.681019 
L 179.375513 76.097908 
L 179.498178 76.097908 
L 179.579489 74.03142 
L 179.700766 74.03142 
L 179.801206 71.964932 
L 179.861199 71.964932 
L 179.940879 70.415066 
L 180.118869 70.415066 
L 180.158183 69.381822 
L 180.236552 69.381822 
L 180.275608 67.831956 
L 180.623323 67.831956 
L 180.623323 67.315334 
L 180.926823 67.315334 
L 180.926823 66.798712 
L 181.225253 66.798712 
L 181.225253 66.28209 
L 181.663757 66.28209 
L 181.753773 65.248846 
L 181.789652 65.248846 
L 181.789652 64.732224 
L 182.021131 64.732224 
L 182.091756 63.69898 
L 185.130835 63.69898 
L 185.234591 62.665736 
L 185.701376 62.665736 
L 185.744519 61.632492 
L 185.830492 61.632492 
L 185.830492 60.599248 
L 185.958682 60.599248 
L 186.057753 59.049382 
L 186.128183 59.049382 
L 186.212334 56.466272 
L 186.337823 56.466272 
L 186.434819 53.883162 
L 186.462436 53.883162 
L 186.517542 52.849918 
L 186.640913 52.849918 
L 186.640913 52.333296 
L 187.675882 52.333296 
L 187.675882 51.816674 
L 187.94458 51.816674 
L 187.94458 51.300052 
L 190.319419 51.300052 
L 190.319419 50.78343 
L 190.693519 50.78343 
L 190.791248 48.716942 
L 190.812893 48.716942 
L 190.812893 48.20032 
L 191.006529 48.20032 
L 191.006529 47.683698 
L 191.145084 47.683698 
L 191.145084 47.167076 
L 191.471211 47.167076 
L 191.492048 46.133832 
L 191.78125 46.133832 
L 191.78125 45.61721 
L 194.246431 45.61721 
L 194.246431 45.100588 
L 194.547337 45.100588 
L 194.608664 44.067344 
L 194.748056 44.067344 
L 194.748056 43.550722 
L 194.955124 43.550722 
L 194.98084 42.517478 
L 195.083334 42.517478 
L 195.083334 42.000855 
L 195.235982 42.000855 
L 195.235982 41.484233 
L 195.470871 41.484233 
L 195.470871 40.967611 
L 196.028782 40.967611 
L 196.028782 40.450989 
L 197.89117 40.450989 
L 197.89117 39.934367 
L 198.136933 39.934367 
L 198.136933 39.417745 
L 200.253455 39.417745 
L 200.253455 38.901123 
L 200.613291 38.901123 
L 200.613291 38.384501 
L 202.637815 38.384501 
L 202.637815 37.867879 
L 202.991432 37.867879 
L 202.991432 37.351257 
L 203.715153 37.351257 
L 203.715153 36.834635 
L 204.948276 36.834635 
L 204.948276 36.318013 
L 205.138494 36.318013 
L 205.138494 35.801391 
L 206.773899 35.801391 
L 206.835773 34.768147 
L 358.8 34.768147 
L 358.8 34.768147 
" style="fill:none;stroke:#ffa500;stroke-linecap:square;stroke-width:1.5;"/>
   </g>
   <g id="line2d_53">
    <defs>
     <path d="M 0 -6 
L -1.347084 -1.854102 
L -5.706339 -1.854102 
L -2.179628 0.708204 
L -3.526712 4.854102 
L -0 2.291796 
L 3.526712 4.854102 
L 2.179628 0.708204 
L 5.706339 -1.854102 
L 1.347084 -1.854102 
z
" id="m0ab49299fb" style="stroke:#ffa500;stroke-linejoin:bevel;stroke-width:1.5;"/>
    </defs>
    <g>
     <use style="fill:none;stroke:#ffa500;stroke-linejoin:bevel;stroke-width:1.5;" x="111.026343" xlink:href="#m0ab49299fb" y="243.483441"/>
     <use style="fill:none;stroke:#ffa500;stroke-linejoin:bevel;stroke-width:1.5;" x="143.352466" xlink:href="#m0ab49299fb" y="165.990139"/>
     <use style="fill:none;stroke:#ffa500;stroke-linejoin:bevel;stroke-width:1.5;" x="173.700724" xlink:href="#m0ab49299fb" y="92.113191"/>
     <use style="fill:none;stroke:#ffa500;stroke-linejoin:bevel;stroke-width:1.5;" x="206.835773" xlink:href="#m0ab49299fb" y="35.284769"/>
     <use style="fill:none;stroke:#ffa500;stroke-linejoin:bevel;stroke-width:1.5;" x="206.835773" xlink:href="#m0ab49299fb" y="34.768147"/>
     <use style="fill:none;stroke:#ffa500;stroke-linejoin:bevel;stroke-width:1.5;" x="358.8" xlink:href="#m0ab49299fb" y="34.768147"/>
    </g>
   </g>
   <g id="line2d_54"/>
   <g id="line2d_55">
    <path clip-path="url(#p8e774d5e56)" d="M 165.470948 145.841881 
" style="fill:none;stroke:#ffa500;stroke-linecap:square;stroke-width:1.5;"/>
    <defs>
     <path d="M -12 12 
L 12 -12 
M -12 -12 
L 12 12 
" id="mc69175e09f" style="stroke:#ffa500;stroke-width:3;"/>
    </defs>
    <g clip-path="url(#p8e774d5e56)">
     <use style="fill:#ffa500;stroke:#ffa500;stroke-width:3;" x="165.470948" xlink:href="#mc69175e09f" y="145.841881"/>
    </g>
   </g>
   <g id="line2d_56">
    <defs>
     <path d="M 0 1.5 
C 0.397805 1.5 0.77937 1.341951 1.06066 1.06066 
C 1.341951 0.77937 1.5 0.397805 1.5 0 
C 1.5 -0.397805 1.341951 -0.77937 1.06066 -1.06066 
C 0.77937 -1.341951 0.397805 -1.5 0 -1.5 
C -0.397805 -1.5 -0.77937 -1.341951 -1.06066 -1.06066 
C -1.341951 -0.77937 -1.5 -0.397805 -1.5 0 
C -1.5 0.397805 -1.341951 0.77937 -1.06066 1.06066 
C -0.77937 1.341951 -0.397805 1.5 0 1.5 
z
" id="ma169a3a787" style="stroke:#6495ed;"/>
    </defs>
    <g>
     <use style="fill:#6495ed;stroke:#6495ed;" x="222.752386" xlink:href="#ma169a3a787" y="34.768147"/>
     <use style="fill:#6495ed;stroke:#6495ed;" x="222.752386" xlink:href="#ma169a3a787" y="34.768147"/>
    </g>
   </g>
   <g id="line2d_57">
    <path d="M 78.044898 298.245375 
L 78.044898 294.112399 
L 83.185234 294.112399 
L 83.185234 291.529289 
L 93.184514 291.529289 
L 93.184514 286.363069 
L 95.570468 286.363069 
L 95.570468 284.813203 
L 101.260636 284.813203 
L 101.260636 284.296581 
L 102.815366 284.296581 
L 102.815366 279.646982 
L 109.03895 279.646982 
L 109.03895 276.54725 
L 115.930012 276.54725 
L 115.930012 274.997384 
L 116.630812 274.997384 
L 116.630812 273.447518 
L 117.305161 273.447518 
L 117.305161 269.831164 
L 118.581998 269.831164 
L 118.581998 268.281298 
L 123.411577 268.281298 
L 123.411577 267.764676 
L 125.19988 267.764676 
L 125.19988 267.248054 
L 126.031105 267.248054 
L 126.031105 264.148322 
L 126.432652 264.148322 
L 126.432652 261.04859 
L 127.954262 261.04859 
L 127.954262 257.432236 
L 129.016046 257.432236 
L 129.016046 255.88237 
L 130.018259 255.88237 
L 130.018259 250.71615 
L 131.272677 250.71615 
L 131.272677 248.13304 
L 133.003201 248.13304 
L 133.003201 247.099796 
L 135.077192 247.099796 
L 135.077192 245.549929 
L 136.488566 245.549929 
L 136.488566 240.900331 
L 138.416339 240.900331 
L 138.416339 239.867087 
L 138.61824 239.867087 
L 138.61824 239.350465 
L 139.594883 239.350465 
L 139.594883 238.833843 
L 140.70048 238.833843 
L 140.70048 236.250733 
L 140.878274 236.250733 
L 140.878274 235.217489 
L 141.572268 235.217489 
L 141.572268 234.700867 
L 141.741636 234.700867 
L 141.741636 234.184245 
L 144.25357 234.184245 
L 144.25357 233.151001 
L 145.525356 233.151001 
L 145.525356 232.634379 
L 145.661236 232.634379 
L 145.661236 231.084513 
L 145.796091 231.084513 
L 145.796091 230.567891 
L 146.455505 230.567891 
L 146.455505 229.534647 
L 146.584518 229.534647 
L 146.584518 228.501403 
L 146.712605 228.501403 
L 146.712605 226.434915 
L 148.064103 226.434915 
L 148.064103 221.785317 
L 148.182045 221.785317 
L 148.182045 219.202207 
L 149.320526 219.202207 
L 149.320526 218.168963 
L 150.181807 218.168963 
L 150.181807 217.135719 
L 150.902809 217.135719 
L 150.902809 216.619097 
L 151.40056 216.619097 
L 151.40056 216.102475 
L 151.595842 216.102475 
L 151.595842 215.585853 
L 152.262996 215.585853 
L 152.356302 211.452876 
L 152.906134 211.452876 
L 152.906134 208.869766 
L 153.43955 208.869766 
L 153.43955 207.836522 
L 153.613874 207.836522 
L 153.613874 205.253412 
L 154.377948 205.253412 
L 154.377948 204.73679 
L 154.625547 204.73679 
L 154.625547 204.220168 
L 155.967272 204.220168 
L 155.967272 203.703546 
L 156.491741 203.703546 
L 156.491741 203.186924 
L 156.638804 203.186924 
L 156.638804 202.670302 
L 157.635691 202.670302 
L 157.635691 201.637058 
L 158.04647 201.637058 
L 158.04647 200.087192 
L 158.248372 200.087192 
L 158.315169 196.98746 
L 158.448018 196.98746 
L 158.448018 193.887728 
L 158.969752 193.887728 
L 158.969752 192.854484 
L 160.508405 192.854484 
L 160.508405 191.304618 
L 167.375863 191.304618 
L 167.375863 190.787996 
L 167.772949 190.787996 
L 167.772949 190.271374 
L 167.929345 190.271374 
L 167.929345 189.23813 
L 168.084384 189.23813 
L 168.161402 188.204886 
L 168.466196 188.204886 
L 168.466196 187.688264 
L 168.802987 187.688264 
L 168.802987 187.171642 
L 169.024039 187.171642 
L 169.024039 185.105154 
L 169.242389 185.105154 
L 169.242389 184.588532 
L 169.458103 184.588532 
L 169.458103 183.555288 
L 169.635897 183.555288 
L 169.671244 182.522044 
L 170.193232 182.522044 
L 170.295825 180.972178 
L 170.53294 180.972178 
L 170.53294 180.455556 
L 170.766951 180.455556 
L 170.833252 177.355823 
L 171.193575 177.355823 
L 171.225974 172.706225 
L 171.546774 172.706225 
L 171.57854 170.639737 
L 171.799331 170.639737 
L 171.799331 170.123115 
L 172.017428 170.123115 
L 172.048368 169.089871 
L 172.171597 169.089871 
L 172.232894 167.023383 
L 172.476002 167.023383 
L 172.476002 164.440273 
L 172.656186 164.440273 
L 172.745601 162.373785 
L 172.89364 162.373785 
L 172.89364 160.823919 
L 173.728885 160.823919 
L 173.757002 159.274053 
L 173.980356 159.274053 
L 173.980356 155.657699 
L 174.173527 155.657699 
L 174.173527 155.141077 
L 174.526824 155.141077 
L 174.63414 153.591211 
L 174.687558 153.591211 
L 174.687558 151.008101 
L 174.899645 151.008101 
L 174.925979 149.458235 
L 175.393486 149.458235 
L 175.393486 148.424991 
L 175.546642 148.424991 
L 175.546642 146.875125 
L 179.023318 146.875125 
L 179.127627 145.841881 
L 179.416495 145.841881 
L 179.416495 143.775392 
L 179.599759 143.775392 
L 179.599759 143.25877 
L 179.720899 143.25877 
L 179.720899 142.742148 
L 179.960743 142.742148 
L 180.059736 140.67566 
L 180.079469 140.67566 
L 180.079469 140.159038 
L 180.256091 140.159038 
L 180.256091 139.642416 
L 180.372876 139.642416 
L 180.430984 137.059306 
L 180.565838 137.059306 
L 180.565838 136.542684 
L 180.718722 136.542684 
L 180.73774 133.959574 
L 180.945621 133.959574 
L 180.9644 131.376464 
L 181.151112 131.376464 
L 181.151112 130.859842 
L 181.427571 130.859842 
L 181.518781 129.309976 
L 181.699818 129.309976 
L 181.807565 128.276732 
L 181.861197 128.276732 
L 181.861197 127.76011 
L 182.109369 127.76011 
L 182.162103 126.726866 
L 182.475282 126.726866 
L 182.578466 125.177 
L 182.612729 125.177 
L 182.612729 122.077268 
L 182.732135 122.077268 
L 182.732135 121.044024 
L 183.002102 121.044024 
L 183.01884 118.460914 
L 183.201934 118.460914 
L 183.268051 117.42767 
L 183.497553 117.42767 
L 183.595016 115.361182 
L 185.816192 115.361182 
L 185.816192 114.327938 
L 186.156277 114.327938 
L 186.240297 112.778072 
L 186.282159 112.778072 
L 186.36559 111.228206 
L 186.817625 111.228206 
L 186.858157 110.194961 
L 186.979206 110.194961 
L 187.072792 107.611851 
L 187.232093 107.611851 
L 187.232093 106.061985 
L 187.494478 106.061985 
L 187.572448 104.512119 
L 187.62424 104.512119 
L 187.62424 103.995497 
L 187.753066 103.995497 
L 187.829918 101.929009 
L 187.868221 101.929009 
L 187.931876 100.895765 
L 188.65417 100.895765 
L 188.727251 95.729545 
L 189.052463 95.729545 
L 189.052463 94.696301 
L 190.888446 94.696301 
L 190.888446 94.179679 
L 191.038599 94.179679 
L 191.038599 93.146435 
L 191.324664 93.146435 
L 191.324664 92.113191 
L 191.544036 92.113191 
L 191.554415 91.079947 
L 191.81196 91.079947 
L 191.863026 89.530081 
L 191.964723 89.530081 
L 191.964723 89.013459 
L 192.116191 89.013459 
L 192.166397 87.980215 
L 192.266387 87.980215 
L 192.266387 87.463593 
L 192.970255 87.463593 
L 193.027678 82.813995 
L 193.113468 82.813995 
L 193.113468 82.297373 
L 193.246105 82.297373 
L 193.340247 81.264129 
L 194.71331 81.264129 
L 194.71331 80.747507 
L 194.869137 80.747507 
L 194.869137 80.230885 
L 195.142852 80.230885 
L 195.142852 79.714263 
L 195.303409 79.714263 
L 195.303409 79.197641 
L 195.429152 79.197641 
L 195.529114 77.647775 
L 195.702713 77.647775 
L 195.809339 76.614531 
L 195.866491 76.614531 
L 195.866491 75.581286 
L 196.221606 75.581286 
L 196.221606 74.03142 
L 196.593295 74.03142 
L 196.593295 73.514798 
L 198.215726 73.514798 
L 198.315509 71.964932 
L 198.386442 71.964932 
L 198.492317 70.415066 
L 198.65345 70.415066 
L 198.757759 69.381822 
L 198.861463 69.381822 
L 198.943995 68.348578 
L 199.162234 68.348578 
L 199.162234 67.831956 
L 199.37784 67.831956 
L 199.444687 65.248846 
L 199.610717 65.248846 
L 199.610717 63.69898 
L 200.700575 63.69898 
L 200.700575 63.182358 
L 200.873872 63.182358 
L 200.873872 62.665736 
L 200.996636 62.665736 
L 201.106406 60.082626 
L 201.154977 60.082626 
L 201.154977 59.566004 
L 201.419784 59.566004 
L 201.461553 58.016138 
L 201.733631 58.016138 
L 201.733631 56.982894 
L 201.844814 56.982894 
L 201.844814 56.466272 
L 202.042061 56.466272 
L 202.042061 55.94965 
L 203.176482 55.94965 
L 203.176482 55.433028 
L 203.391763 55.433028 
L 203.455845 54.399784 
L 203.509072 54.399784 
L 203.615051 53.36654 
L 203.667806 53.36654 
L 203.741403 51.816674 
L 204.012137 51.816674 
L 204.063734 50.78343 
L 204.192079 50.78343 
L 204.192079 50.266808 
L 205.089913 50.266808 
L 205.119077 48.716942 
L 205.326708 48.716942 
L 205.326708 48.20032 
L 205.588813 48.20032 
L 205.687884 47.167076 
L 205.725482 47.167076 
L 205.725482 46.650454 
L 205.861112 46.650454 
L 205.861112 46.133832 
L 206.175163 46.133832 
L 206.175163 45.61721 
L 206.963261 45.61721 
L 207.059374 43.550722 
L 207.275907 43.550722 
L 207.357506 42.517478 
L 207.408852 42.517478 
L 207.451527 41.484233 
L 207.77257 41.484233 
L 207.77257 40.967611 
L 207.918501 40.967611 
L 207.918501 40.450989 
L 208.919733 40.450989 
L 208.919733 39.934367 
L 210.239976 39.934367 
L 210.261842 38.901123 
L 210.424989 38.901123 
L 210.424989 38.384501 
L 210.757512 38.384501 
L 210.824692 37.351257 
L 210.895136 37.351257 
L 210.895136 36.834635 
L 211.601614 36.834635 
L 211.601614 36.318013 
L 212.094835 36.318013 
L 212.094835 35.801391 
L 214.337644 35.801391 
L 214.337644 35.284769 
L 222.752386 35.284769 
L 222.752386 34.768147 
L 358.8 34.768147 
L 358.8 34.768147 
" style="fill:none;stroke:#6495ed;stroke-linecap:square;stroke-width:1.5;"/>
   </g>
   <g id="line2d_58">
    <defs>
     <path d="M -0 6 
L 6 -6 
L -6 -6 
z
" id="mfd2bf83494" style="stroke:#6495ed;stroke-linejoin:miter;stroke-width:1.5;"/>
    </defs>
    <g>
     <use style="fill:none;stroke:#6495ed;stroke-linejoin:miter;stroke-width:1.5;" x="170.193232" xlink:href="#mfd2bf83494" y="182.522044"/>
     <use style="fill:none;stroke:#6495ed;stroke-linejoin:miter;stroke-width:1.5;" x="201.100325" xlink:href="#mfd2bf83494" y="61.11587"/>
     <use style="fill:none;stroke:#6495ed;stroke-linejoin:miter;stroke-width:1.5;" x="222.752386" xlink:href="#mfd2bf83494" y="34.768147"/>
     <use style="fill:none;stroke:#6495ed;stroke-linejoin:miter;stroke-width:1.5;" x="222.752386" xlink:href="#mfd2bf83494" y="34.768147"/>
     <use style="fill:none;stroke:#6495ed;stroke-linejoin:miter;stroke-width:1.5;" x="358.8" xlink:href="#mfd2bf83494" y="34.768147"/>
    </g>
   </g>
   <g id="line2d_59"/>
   <g id="line2d_60">
    <path clip-path="url(#p8e774d5e56)" d="M 165.470948 191.304618 
" style="fill:none;stroke:#6495ed;stroke-linecap:square;stroke-width:1.5;"/>
    <defs>
     <path d="M -12 12 
L 12 -12 
M -12 -12 
L 12 12 
" id="m248979082f" style="stroke:#6495ed;stroke-width:3;"/>
    </defs>
    <g clip-path="url(#p8e774d5e56)">
     <use style="fill:#6495ed;stroke:#6495ed;stroke-width:3;" x="165.470948" xlink:href="#m248979082f" y="191.304618"/>
    </g>
   </g>
   <g id="line2d_61">
    <defs>
     <path d="M 0 1.5 
C 0.397805 1.5 0.77937 1.341951 1.06066 1.06066 
C 1.341951 0.77937 1.5 0.397805 1.5 0 
C 1.5 -0.397805 1.341951 -0.77937 1.06066 -1.06066 
C 0.77937 -1.341951 0.397805 -1.5 0 -1.5 
C -0.397805 -1.5 -0.77937 -1.341951 -1.06066 -1.06066 
C -1.341951 -0.77937 -1.5 -0.397805 -1.5 0 
C -1.5 0.397805 -1.341951 0.77937 -1.06066 1.06066 
C -0.77937 1.341951 -0.397805 1.5 0 1.5 
z
" id="m4c82ff84bb" style="stroke:#ff0000;"/>
    </defs>
    <g>
     <use style="fill:#ff0000;stroke:#ff0000;" x="237.441809" xlink:href="#m4c82ff84bb" y="241.416953"/>
     <use style="fill:#ff0000;stroke:#ff0000;" x="237.441809" xlink:href="#m4c82ff84bb" y="241.416953"/>
    </g>
   </g>
   <g id="line2d_62">
    <path d="M 58.414766 298.245375 
L 58.414766 282.746715 
L 78.044898 282.746715 
L 78.044898 279.646982 
L 83.185234 279.646982 
L 83.185234 278.097116 
L 90.430132 278.097116 
L 90.430132 277.063872 
L 95.570468 277.063872 
L 95.570468 274.997384 
L 97.675029 274.997384 
L 97.675029 273.96414 
L 102.815366 273.96414 
L 102.815366 272.930896 
L 104.245578 272.930896 
L 104.245578 272.414274 
L 109.03895 272.414274 
L 109.03895 271.897652 
L 111.942857 271.897652 
L 111.942857 269.831164 
L 112.814645 269.831164 
L 112.814645 269.314542 
L 113.64587 269.314542 
L 113.64587 268.79792 
L 115.2006 268.79792 
L 115.2006 267.248054 
L 115.930012 267.248054 
L 115.930012 266.21481 
L 119.187755 266.21481 
L 119.187755 264.664944 
L 121.942137 264.664944 
L 121.942137 264.148322 
L 122.445497 264.148322 
L 122.445497 263.6317 
L 131.272677 263.6317 
L 131.272677 262.598456 
L 135.796811 262.598456 
L 135.796811 261.565212 
L 139.015326 261.565212 
L 139.015326 261.04859 
L 139.210608 261.04859 
L 139.210608 260.531968 
L 139.594883 260.531968 
L 139.594883 259.498724 
L 139.971068 259.498724 
L 139.971068 258.46548 
L 140.156232 258.46548 
L 140.156232 257.948858 
L 143.197763 257.948858 
L 143.197763 257.432236 
L 148.064103 257.432236 
L 148.064103 256.915614 
L 167.851318 256.915614 
L 167.851318 255.88237 
L 169.133547 255.88237 
L 169.133547 255.365748 
L 169.242389 255.365748 
L 169.242389 254.849126 
L 171.70504 254.849126 
L 171.70504 254.332504 
L 179.901084 254.332504 
L 179.901084 253.29926 
L 185.556811 253.29926 
L 185.556811 252.782638 
L 185.930274 252.782638 
L 185.930274 252.266016 
L 186.40716 252.266016 
L 186.40716 251.749394 
L 186.736283 251.749394 
L 186.736283 251.232772 
L 190.866892 251.232772 
L 190.866892 250.71615 
L 191.293105 250.71615 
L 191.293105 250.199528 
L 194.730691 250.199528 
L 194.730691 249.682906 
L 197.905721 249.682906 
L 197.905721 249.166284 
L 207.344647 249.166284 
L 207.344647 248.649662 
L 208.546806 248.649662 
L 208.546806 247.099796 
L 216.244285 247.099796 
L 216.244285 246.583173 
L 217.257345 246.583173 
L 217.257345 246.066551 
L 218.216036 246.066551 
L 218.216036 245.549929 
L 224.455399 245.549929 
L 224.455399 245.033307 
L 226.911777 245.033307 
L 226.911777 244.000063 
L 228.023942 244.000063 
L 228.023942 243.483441 
L 230.059932 243.483441 
L 230.059932 242.966819 
L 232.316583 242.966819 
L 232.316583 242.450197 
L 235.42228 242.450197 
L 235.42228 241.933575 
L 237.441809 241.933575 
L 237.441809 241.416953 
L 358.8 241.416953 
" style="fill:none;stroke:#ff0000;stroke-linecap:square;stroke-width:1.5;"/>
   </g>
   <g id="line2d_63">
    <defs>
     <path d="M 0 -6 
L -5.196152 -3 
L -5.196152 3 
L -0 6 
L 5.196152 3 
L 5.196152 -3 
z
" id="m17cc7e7f53" style="stroke:#ff0000;stroke-linejoin:miter;stroke-width:1.5;"/>
    </defs>
    <g>
     <use style="fill:none;stroke:#ff0000;stroke-linejoin:miter;stroke-width:1.5;" x="122.445497" xlink:href="#m17cc7e7f53" y="263.6317"/>
     <use style="fill:none;stroke:#ff0000;stroke-linejoin:miter;stroke-width:1.5;" x="179.901084" xlink:href="#m17cc7e7f53" y="254.332504"/>
     <use style="fill:none;stroke:#ff0000;stroke-linejoin:miter;stroke-width:1.5;" x="237.441809" xlink:href="#m17cc7e7f53" y="241.933575"/>
     <use style="fill:none;stroke:#ff0000;stroke-linejoin:miter;stroke-width:1.5;" x="237.441809" xlink:href="#m17cc7e7f53" y="241.416953"/>
     <use style="fill:none;stroke:#ff0000;stroke-linejoin:miter;stroke-width:1.5;" x="237.441809" xlink:href="#m17cc7e7f53" y="241.416953"/>
     <use style="fill:none;stroke:#ff0000;stroke-linejoin:miter;stroke-width:1.5;" x="358.8" xlink:href="#m17cc7e7f53" y="241.416953"/>
    </g>
   </g>
   <g id="line2d_64"/>
   <g id="line2d_65">
    <path clip-path="url(#p8e774d5e56)" d="M 165.470948 256.915614 
" style="fill:none;stroke:#ff0000;stroke-linecap:square;stroke-width:1.5;"/>
    <defs>
     <path d="M -12 12 
L 12 -12 
M -12 -12 
L 12 12 
" id="me3c9a035e6" style="stroke:#ff0000;stroke-width:3;"/>
    </defs>
    <g clip-path="url(#p8e774d5e56)">
     <use style="fill:#ff0000;stroke:#ff0000;stroke-width:3;" x="165.470948" xlink:href="#me3c9a035e6" y="256.915614"/>
    </g>
   </g>
   <g id="line2d_66">
    <path d="M 358.8 241.416953 
L 390.48 292.97583 
" style="fill:none;stroke:#ff0000;stroke-linecap:square;stroke-width:1.5;"/>
    <g>
     <use style="fill:none;stroke:#ff0000;stroke-linejoin:miter;stroke-width:1.5;" x="358.8" xlink:href="#m17cc7e7f53" y="241.416953"/>
     <use style="fill:none;stroke:#ff0000;stroke-linejoin:miter;stroke-width:1.5;" x="390.48" xlink:href="#m17cc7e7f53" y="292.97583"/>
    </g>
   </g>
   <g id="line2d_67">
    <path d="M 358.8 101.929009 
L 390.48 229.741296 
" style="fill:none;stroke:#000080;stroke-linecap:square;stroke-width:1.5;"/>
    <g>
     <use style="fill:none;stroke:#000080;stroke-width:1.5;" x="358.8" xlink:href="#me90189dbe7" y="101.929009"/>
     <use style="fill:none;stroke:#000080;stroke-width:1.5;" x="390.48" xlink:href="#me90189dbe7" y="229.741296"/>
    </g>
   </g>
   <g id="line2d_68">
    <path d="M 358.8 96.762789 
L 390.48 166.506761 
" style="fill:none;stroke:#ff00ff;stroke-linecap:square;stroke-width:1.5;"/>
    <g>
     <use style="fill:none;stroke:#ff00ff;stroke-linejoin:miter;stroke-width:1.5;" x="358.8" xlink:href="#m8eb83d4148" y="96.762789"/>
     <use style="fill:none;stroke:#ff00ff;stroke-linejoin:miter;stroke-width:1.5;" x="390.48" xlink:href="#m8eb83d4148" y="166.506761"/>
    </g>
   </g>
   <g id="line2d_69">
    <path d="M 358.8 34.768147 
L 390.48 103.272226 
" style="fill:none;stroke:#6495ed;stroke-linecap:square;stroke-width:1.5;"/>
    <g>
     <use style="fill:none;stroke:#6495ed;stroke-linejoin:miter;stroke-width:1.5;" x="358.8" xlink:href="#mfd2bf83494" y="34.768147"/>
     <use style="fill:none;stroke:#6495ed;stroke-linejoin:miter;stroke-width:1.5;" x="390.48" xlink:href="#mfd2bf83494" y="103.272226"/>
    </g>
   </g>
   <g id="line2d_70">
    <path d="M 358.8 34.768147 
L 390.48 40.037692 
" style="fill:none;stroke:#ffa500;stroke-linecap:square;stroke-width:1.5;"/>
    <g>
     <use style="fill:none;stroke:#ffa500;stroke-linejoin:bevel;stroke-width:1.5;" x="358.8" xlink:href="#m0ab49299fb" y="34.768147"/>
     <use style="fill:none;stroke:#ffa500;stroke-linejoin:bevel;stroke-width:1.5;" x="390.48" xlink:href="#m0ab49299fb" y="40.037692"/>
    </g>
   </g>
   <g id="line2d_71">
    <path d="M 358.8 298.245375 
L 358.8 34.768147 
" style="fill:none;stroke:#000000;stroke-linecap:square;stroke-width:1.5;"/>
   </g>
   <g id="patch_3">
    <path d="M 70.8 298.245375 
L 70.8 32.133375 
" style="fill:none;stroke:#000000;stroke-linecap:square;stroke-linejoin:miter;stroke-width:0.8;"/>
   </g>
   <g id="patch_4">
    <path d="M 427.92 298.245375 
L 427.92 32.133375 
" style="fill:none;stroke:#000000;stroke-linecap:square;stroke-linejoin:miter;stroke-width:0.8;"/>
   </g>
   <g id="patch_5">
    <path d="M 70.8 298.245375 
L 427.92 298.245375 
" style="fill:none;stroke:#000000;stroke-linecap:square;stroke-linejoin:miter;stroke-width:0.8;"/>
   </g>
   <g id="patch_6">
    <path d="M 70.8 32.133375 
L 427.92 32.133375 
" style="fill:none;stroke:#000000;stroke-linecap:square;stroke-linejoin:miter;stroke-width:0.8;"/>
   </g>
   <g id="text_14">
    <!-- f24 -->
    <g transform="translate(396.24 297.114893)scale(0.15 -0.15)">
     <use xlink:href="#DejaVuSans-66"/>
     <use x="35.205078" xlink:href="#DejaVuSans-32"/>
     <use x="98.828125" xlink:href="#DejaVuSans-34"/>
    </g>
   </g>
   <g id="text_15">
    <!-- f23 -->
    <defs>
     <path d="M 40.578125 39.3125 
Q 47.65625 37.796875 51.625 33 
Q 55.609375 28.21875 55.609375 21.1875 
Q 55.609375 10.40625 48.1875 4.484375 
Q 40.765625 -1.421875 27.09375 -1.421875 
Q 22.515625 -1.421875 17.65625 -0.515625 
Q 12.796875 0.390625 7.625 2.203125 
L 7.625 11.71875 
Q 11.71875 9.328125 16.59375 8.109375 
Q 21.484375 6.890625 26.8125 6.890625 
Q 36.078125 6.890625 40.9375 10.546875 
Q 45.796875 14.203125 45.796875 21.1875 
Q 45.796875 27.640625 41.28125 31.265625 
Q 36.765625 34.90625 28.71875 34.90625 
L 20.21875 34.90625 
L 20.21875 43.015625 
L 29.109375 43.015625 
Q 36.375 43.015625 40.234375 45.921875 
Q 44.09375 48.828125 44.09375 54.296875 
Q 44.09375 59.90625 40.109375 62.90625 
Q 36.140625 65.921875 28.71875 65.921875 
Q 24.65625 65.921875 20.015625 65.03125 
Q 15.375 64.15625 9.8125 62.3125 
L 9.8125 71.09375 
Q 15.4375 72.65625 20.34375 73.4375 
Q 25.25 74.21875 29.59375 74.21875 
Q 40.828125 74.21875 47.359375 69.109375 
Q 53.90625 64.015625 53.90625 55.328125 
Q 53.90625 49.265625 50.4375 45.09375 
Q 46.96875 40.921875 40.578125 39.3125 
" id="DejaVuSans-33"/>
    </defs>
    <g transform="translate(396.24 233.880358)scale(0.15 -0.15)">
     <use xlink:href="#DejaVuSans-66"/>
     <use x="35.205078" xlink:href="#DejaVuSans-32"/>
     <use x="98.828125" xlink:href="#DejaVuSans-33"/>
    </g>
   </g>
   <g id="text_16">
    <!-- f22 -->
    <g transform="translate(396.24 170.645824)scale(0.15 -0.15)">
     <use xlink:href="#DejaVuSans-66"/>
     <use x="35.205078" xlink:href="#DejaVuSans-32"/>
     <use x="98.828125" xlink:href="#DejaVuSans-32"/>
    </g>
   </g>
   <g id="text_17">
    <!-- f20 -->
    <g transform="translate(396.24 107.411289)scale(0.15 -0.15)">
     <use xlink:href="#DejaVuSans-66"/>
     <use x="35.205078" xlink:href="#DejaVuSans-32"/>
     <use x="98.828125" xlink:href="#DejaVuSans-30"/>
    </g>
   </g>
   <g id="text_18">
    <!-- f21 -->
    <g transform="translate(396.24 44.176754)scale(0.15 -0.15)">
     <use xlink:href="#DejaVuSans-66"/>
     <use x="35.205078" xlink:href="#DejaVuSans-32"/>
     <use x="98.828125" xlink:href="#DejaVuSans-31"/>
    </g>
   </g>
   <g id="text_19">
    <!-- bbob -->
    <defs>
     <path d="M 48.6875 27.296875 
Q 48.6875 37.203125 44.609375 42.84375 
Q 40.53125 48.484375 33.40625 48.484375 
Q 26.265625 48.484375 22.1875 42.84375 
Q 18.109375 37.203125 18.109375 27.296875 
Q 18.109375 17.390625 22.1875 11.75 
Q 26.265625 6.109375 33.40625 6.109375 
Q 40.53125 6.109375 44.609375 11.75 
Q 48.6875 17.390625 48.6875 27.296875 
M 18.109375 46.390625 
Q 20.953125 51.265625 25.265625 53.625 
Q 29.59375 56 35.59375 56 
Q 45.5625 56 51.78125 48.09375 
Q 58.015625 40.1875 58.015625 27.296875 
Q 58.015625 14.40625 51.78125 6.484375 
Q 45.5625 -1.421875 35.59375 -1.421875 
Q 29.59375 -1.421875 25.265625 0.953125 
Q 20.953125 3.328125 18.109375 8.203125 
L 18.109375 0 
L 9.078125 0 
L 9.078125 75.984375 
L 18.109375 75.984375 
z
" id="DejaVuSans-62"/>
    </defs>
    <g transform="translate(74.3712 50.114612)scale(0.1666 -0.1666)">
     <use xlink:href="#DejaVuSans-62"/>
     <use x="63.476562" xlink:href="#DejaVuSans-62"/>
     <use x="126.953125" xlink:href="#DejaVuSans-6f"/>
     <use x="188.134766" xlink:href="#DejaVuSans-62"/>
    </g>
    <!-- Weak structure functions, 2-D -->
    <defs>
     <path d="M 3.328125 72.90625 
L 13.28125 72.90625 
L 28.609375 11.28125 
L 43.890625 72.90625 
L 54.984375 72.90625 
L 70.3125 11.28125 
L 85.59375 72.90625 
L 95.609375 72.90625 
L 77.296875 0 
L 64.890625 0 
L 49.515625 63.28125 
L 33.984375 0 
L 21.578125 0 
z
" id="DejaVuSans-57"/>
     <path d="M 9.078125 75.984375 
L 18.109375 75.984375 
L 18.109375 31.109375 
L 44.921875 54.6875 
L 56.390625 54.6875 
L 27.390625 29.109375 
L 57.625 0 
L 45.90625 0 
L 18.109375 26.703125 
L 18.109375 0 
L 9.078125 0 
z
" id="DejaVuSans-6b"/>
     <path d="M 11.71875 12.40625 
L 22.015625 12.40625 
L 22.015625 4 
L 14.015625 -11.625 
L 7.71875 -11.625 
L 11.71875 4 
z
" id="DejaVuSans-2c"/>
     <path d="M 19.671875 64.796875 
L 19.671875 8.109375 
L 31.59375 8.109375 
Q 46.6875 8.109375 53.6875 14.9375 
Q 60.6875 21.78125 60.6875 36.53125 
Q 60.6875 51.171875 53.6875 57.984375 
Q 46.6875 64.796875 31.59375 64.796875 
z
M 9.8125 72.90625 
L 30.078125 72.90625 
Q 51.265625 72.90625 61.171875 64.09375 
Q 71.09375 55.28125 71.09375 36.53125 
Q 71.09375 17.671875 61.125 8.828125 
Q 51.171875 0 30.078125 0 
L 9.8125 0 
z
" id="DejaVuSans-44"/>
    </defs>
    <g transform="translate(74.3712 68.770168)scale(0.1666 -0.1666)">
     <use xlink:href="#DejaVuSans-57"/>
     <use x="98.798828" xlink:href="#DejaVuSans-65"/>
     <use x="160.322266" xlink:href="#DejaVuSans-61"/>
     <use x="221.601562" xlink:href="#DejaVuSans-6b"/>
     <use x="279.511719" xlink:href="#DejaVuSans-20"/>
     <use x="311.298828" xlink:href="#DejaVuSans-73"/>
     <use x="363.398438" xlink:href="#DejaVuSans-74"/>
     <use x="402.607422" xlink:href="#DejaVuSans-72"/>
     <use x="443.720703" xlink:href="#DejaVuSans-75"/>
     <use x="507.099609" xlink:href="#DejaVuSans-63"/>
     <use x="562.080078" xlink:href="#DejaVuSans-74"/>
     <use x="601.289062" xlink:href="#DejaVuSans-75"/>
     <use x="664.667969" xlink:href="#DejaVuSans-72"/>
     <use x="705.75" xlink:href="#DejaVuSans-65"/>
     <use x="767.273438" xlink:href="#DejaVuSans-20"/>
     <use x="799.060547" xlink:href="#DejaVuSans-66"/>
     <use x="834.265625" xlink:href="#DejaVuSans-75"/>
     <use x="897.644531" xlink:href="#DejaVuSans-6e"/>
     <use x="961.023438" xlink:href="#DejaVuSans-63"/>
     <use x="1016.003906" xlink:href="#DejaVuSans-74"/>
     <use x="1055.212891" xlink:href="#DejaVuSans-69"/>
     <use x="1082.996094" xlink:href="#DejaVuSans-6f"/>
     <use x="1144.177734" xlink:href="#DejaVuSans-6e"/>
     <use x="1207.556641" xlink:href="#DejaVuSans-73"/>
     <use x="1259.65625" xlink:href="#DejaVuSans-2c"/>
     <use x="1291.443359" xlink:href="#DejaVuSans-20"/>
     <use x="1323.230469" xlink:href="#DejaVuSans-32"/>
     <use x="1386.853516" xlink:href="#DejaVuSans-2d"/>
     <use x="1422.9375" xlink:href="#DejaVuSans-44"/>
    </g>
    <!-- 51 targets in 100..1e-08 -->
    <defs>
     <path d="M 10.796875 72.90625 
L 49.515625 72.90625 
L 49.515625 64.59375 
L 19.828125 64.59375 
L 19.828125 46.734375 
Q 21.96875 47.46875 24.109375 47.828125 
Q 26.265625 48.1875 28.421875 48.1875 
Q 40.625 48.1875 47.75 41.5 
Q 54.890625 34.8125 54.890625 23.390625 
Q 54.890625 11.625 47.5625 5.09375 
Q 40.234375 -1.421875 26.90625 -1.421875 
Q 22.3125 -1.421875 17.546875 -0.640625 
Q 12.796875 0.140625 7.71875 1.703125 
L 7.71875 11.625 
Q 12.109375 9.234375 16.796875 8.0625 
Q 21.484375 6.890625 26.703125 6.890625 
Q 35.15625 6.890625 40.078125 11.328125 
Q 45.015625 15.765625 45.015625 23.390625 
Q 45.015625 31 40.078125 35.4375 
Q 35.15625 39.890625 26.703125 39.890625 
Q 22.75 39.890625 18.8125 39.015625 
Q 14.890625 38.140625 10.796875 36.28125 
z
" id="DejaVuSans-35"/>
    </defs>
    <g transform="translate(74.3712 87.425723)scale(0.1666 -0.1666)">
     <use xlink:href="#DejaVuSans-35"/>
     <use x="63.623047" xlink:href="#DejaVuSans-31"/>
     <use x="127.246094" xlink:href="#DejaVuSans-20"/>
     <use x="159.033203" xlink:href="#DejaVuSans-74"/>
     <use x="198.242188" xlink:href="#DejaVuSans-61"/>
     <use x="259.521484" xlink:href="#DejaVuSans-72"/>
     <use x="300.619141" xlink:href="#DejaVuSans-67"/>
     <use x="364.095703" xlink:href="#DejaVuSans-65"/>
     <use x="425.619141" xlink:href="#DejaVuSans-74"/>
     <use x="464.828125" xlink:href="#DejaVuSans-73"/>
     <use x="516.927734" xlink:href="#DejaVuSans-20"/>
     <use x="548.714844" xlink:href="#DejaVuSans-69"/>
     <use x="576.498047" xlink:href="#DejaVuSans-6e"/>
     <use x="639.876953" xlink:href="#DejaVuSans-20"/>
     <use x="671.664062" xlink:href="#DejaVuSans-31"/>
     <use x="735.287109" xlink:href="#DejaVuSans-30"/>
     <use x="798.910156" xlink:href="#DejaVuSans-30"/>
     <use x="862.533203" xlink:href="#DejaVuSans-2e"/>
     <use x="894.320312" xlink:href="#DejaVuSans-2e"/>
     <use x="926.107422" xlink:href="#DejaVuSans-31"/>
     <use x="989.730469" xlink:href="#DejaVuSans-65"/>
     <use x="1051.253906" xlink:href="#DejaVuSans-2d"/>
     <use x="1087.337891" xlink:href="#DejaVuSans-30"/>
     <use x="1150.960938" xlink:href="#DejaVuSans-38"/>
    </g>
    <!-- 15 instances -->
    <g transform="translate(74.3712 106.081279)scale(0.1666 -0.1666)">
     <use xlink:href="#DejaVuSans-31"/>
     <use x="63.623047" xlink:href="#DejaVuSans-35"/>
     <use x="127.246094" xlink:href="#DejaVuSans-20"/>
     <use x="159.033203" xlink:href="#DejaVuSans-69"/>
     <use x="186.816406" xlink:href="#DejaVuSans-6e"/>
     <use x="250.195312" xlink:href="#DejaVuSans-73"/>
     <use x="302.294922" xlink:href="#DejaVuSans-74"/>
     <use x="341.503906" xlink:href="#DejaVuSans-61"/>
     <use x="402.783203" xlink:href="#DejaVuSans-6e"/>
     <use x="466.162109" xlink:href="#DejaVuSans-63"/>
     <use x="521.142578" xlink:href="#DejaVuSans-65"/>
     <use x="582.666016" xlink:href="#DejaVuSans-73"/>
    </g>
   </g>
   <g id="text_20">
    <!-- v2.1 -->
    <g style="fill:#808080;" transform="translate(238.449063 293.504568)scale(0.1 -0.1)">
     <use xlink:href="#DejaVuSans-76"/>
     <use x="59.179688" xlink:href="#DejaVuSans-32"/>
     <use x="122.802734" xlink:href="#DejaVuSans-2e"/>
     <use x="154.589844" xlink:href="#DejaVuSans-31"/>
    </g>
   </g>
  </g>
 </g>
 <defs>
  <clipPath id="p8e774d5e56">
   <rect height="266.112" width="357.12" x="70.8" y="32.133375"/>
  </clipPath>
 </defs>
</svg>
