<?xml version="1.0" encoding="utf-8" standalone="no"?>
<!DOCTYPE svg PUBLIC "-//W3C//DTD SVG 1.1//EN"
  "http://www.w3.org/Graphics/SVG/1.1/DTD/svg11.dtd">
<!-- Created with matplotlib (http://matplotlib.org/) -->
<svg height="353pt" version="1.1" viewBox="0 0 439 353" width="439pt" xmlns="http://www.w3.org/2000/svg" xmlns:xlink="http://www.w3.org/1999/xlink">
 <defs>
  <style type="text/css">
*{stroke-linecap:butt;stroke-linejoin:round;}
  </style>
 </defs>
 <g id="figure_1">
  <g id="patch_1">
   <path d="M 0 353.22225 
L 439.489219 353.22225 
L 439.489219 0 
L 0 0 
z
" style="fill:#ffffff;"/>
  </g>
  <g id="axes_1">
   <g id="patch_2">
    <path d="M 70.8 298.245375 
L 427.92 298.245375 
L 427.92 32.133375 
L 70.8 32.133375 
z
" style="fill:#ffffff;"/>
   </g>
   <g id="matplotlib.axis_1">
    <g id="xtick_1">
     <g id="line2d_1">
      <path clip-path="url(#p343e7d0cc3)" d="M 70.8 298.245375 
L 70.8 32.133375 
" style="fill:none;stroke:#b0b0b0;stroke-linecap:square;stroke-width:0.8;"/>
     </g>
     <g id="line2d_2">
      <defs>
       <path d="M 0 0 
L 0 3.5 
" id="m6ac51cf907" style="stroke:#000000;stroke-width:0.8;"/>
      </defs>
      <g>
       <use style="stroke:#000000;stroke-width:0.8;" x="70.8" xlink:href="#m6ac51cf907" y="298.245375"/>
      </g>
     </g>
     <g id="text_1">
      <!-- 0 -->
      <defs>
       <path d="M 31.78125 66.40625 
Q 24.171875 66.40625 20.328125 58.90625 
Q 16.5 51.421875 16.5 36.375 
Q 16.5 21.390625 20.328125 13.890625 
Q 24.171875 6.390625 31.78125 6.390625 
Q 39.453125 6.390625 43.28125 13.890625 
Q 47.125 21.390625 47.125 36.375 
Q 47.125 51.421875 43.28125 58.90625 
Q 39.453125 66.40625 31.78125 66.40625 
M 31.78125 74.21875 
Q 44.046875 74.21875 50.515625 64.515625 
Q 56.984375 54.828125 56.984375 36.375 
Q 56.984375 17.96875 50.515625 8.265625 
Q 44.046875 -1.421875 31.78125 -1.421875 
Q 19.53125 -1.421875 13.0625 8.265625 
Q 6.59375 17.96875 6.59375 36.375 
Q 6.59375 54.828125 13.0625 64.515625 
Q 19.53125 74.21875 31.78125 74.21875 
" id="DejaVuSans-30"/>
      </defs>
      <g transform="translate(64.4375 320.44225)scale(0.2 -0.2)">
       <use xlink:href="#DejaVuSans-30"/>
      </g>
     </g>
    </g>
    <g id="xtick_2">
     <g id="line2d_3">
      <path clip-path="url(#p343e7d0cc3)" d="M 153.085714 298.245375 
L 153.085714 32.133375 
" style="fill:none;stroke:#b0b0b0;stroke-linecap:square;stroke-width:0.8;"/>
     </g>
     <g id="line2d_4">
      <g>
       <use style="stroke:#000000;stroke-width:0.8;" x="153.085714" xlink:href="#m6ac51cf907" y="298.245375"/>
      </g>
     </g>
     <g id="text_2">
      <!-- 2 -->
      <defs>
       <path d="M 19.1875 8.296875 
L 53.609375 8.296875 
L 53.609375 0 
L 7.328125 0 
L 7.328125 8.296875 
Q 12.9375 14.109375 22.625 23.890625 
Q 32.328125 33.6875 34.8125 36.53125 
Q 39.546875 41.84375 41.421875 45.53125 
Q 43.3125 49.21875 43.3125 52.78125 
Q 43.3125 58.59375 39.234375 62.25 
Q 35.15625 65.921875 28.609375 65.921875 
Q 23.96875 65.921875 18.8125 64.3125 
Q 13.671875 62.703125 7.8125 59.421875 
L 7.8125 69.390625 
Q 13.765625 71.78125 18.9375 73 
Q 24.125 74.21875 28.421875 74.21875 
Q 39.75 74.21875 46.484375 68.546875 
Q 53.21875 62.890625 53.21875 53.421875 
Q 53.21875 48.921875 51.53125 44.890625 
Q 49.859375 40.875 45.40625 35.40625 
Q 44.1875 33.984375 37.640625 27.21875 
Q 31.109375 20.453125 19.1875 8.296875 
" id="DejaVuSans-32"/>
      </defs>
      <g transform="translate(146.723214 320.44225)scale(0.2 -0.2)">
       <use xlink:href="#DejaVuSans-32"/>
      </g>
     </g>
    </g>
    <g id="xtick_3">
     <g id="line2d_5">
      <path clip-path="url(#p343e7d0cc3)" d="M 235.371429 298.245375 
L 235.371429 32.133375 
" style="fill:none;stroke:#b0b0b0;stroke-linecap:square;stroke-width:0.8;"/>
     </g>
     <g id="line2d_6">
      <g>
       <use style="stroke:#000000;stroke-width:0.8;" x="235.371429" xlink:href="#m6ac51cf907" y="298.245375"/>
      </g>
     </g>
     <g id="text_3">
      <!-- 4 -->
      <defs>
       <path d="M 37.796875 64.3125 
L 12.890625 25.390625 
L 37.796875 25.390625 
z
M 35.203125 72.90625 
L 47.609375 72.90625 
L 47.609375 25.390625 
L 58.015625 25.390625 
L 58.015625 17.1875 
L 47.609375 17.1875 
L 47.609375 0 
L 37.796875 0 
L 37.796875 17.1875 
L 4.890625 17.1875 
L 4.890625 26.703125 
z
" id="DejaVuSans-34"/>
      </defs>
      <g transform="translate(229.008929 320.44225)scale(0.2 -0.2)">
       <use xlink:href="#DejaVuSans-34"/>
      </g>
     </g>
    </g>
    <g id="xtick_4">
     <g id="line2d_7">
      <path clip-path="url(#p343e7d0cc3)" d="M 317.657143 298.245375 
L 317.657143 32.133375 
" style="fill:none;stroke:#b0b0b0;stroke-linecap:square;stroke-width:0.8;"/>
     </g>
     <g id="line2d_8">
      <g>
       <use style="stroke:#000000;stroke-width:0.8;" x="317.657143" xlink:href="#m6ac51cf907" y="298.245375"/>
      </g>
     </g>
     <g id="text_4">
      <!-- 6 -->
      <defs>
       <path d="M 33.015625 40.375 
Q 26.375 40.375 22.484375 35.828125 
Q 18.609375 31.296875 18.609375 23.390625 
Q 18.609375 15.53125 22.484375 10.953125 
Q 26.375 6.390625 33.015625 6.390625 
Q 39.65625 6.390625 43.53125 10.953125 
Q 47.40625 15.53125 47.40625 23.390625 
Q 47.40625 31.296875 43.53125 35.828125 
Q 39.65625 40.375 33.015625 40.375 
M 52.59375 71.296875 
L 52.59375 62.3125 
Q 48.875 64.0625 45.09375 64.984375 
Q 41.3125 65.921875 37.59375 65.921875 
Q 27.828125 65.921875 22.671875 59.328125 
Q 17.53125 52.734375 16.796875 39.40625 
Q 19.671875 43.65625 24.015625 45.921875 
Q 28.375 48.1875 33.59375 48.1875 
Q 44.578125 48.1875 50.953125 41.515625 
Q 57.328125 34.859375 57.328125 23.390625 
Q 57.328125 12.15625 50.6875 5.359375 
Q 44.046875 -1.421875 33.015625 -1.421875 
Q 20.359375 -1.421875 13.671875 8.265625 
Q 6.984375 17.96875 6.984375 36.375 
Q 6.984375 53.65625 15.1875 63.9375 
Q 23.390625 74.21875 37.203125 74.21875 
Q 40.921875 74.21875 44.703125 73.484375 
Q 48.484375 72.75 52.59375 71.296875 
" id="DejaVuSans-36"/>
      </defs>
      <g transform="translate(311.294643 320.44225)scale(0.2 -0.2)">
       <use xlink:href="#DejaVuSans-36"/>
      </g>
     </g>
    </g>
    <g id="xtick_5">
     <g id="line2d_9">
      <path clip-path="url(#p343e7d0cc3)" d="M 399.942857 298.245375 
L 399.942857 32.133375 
" style="fill:none;stroke:#b0b0b0;stroke-linecap:square;stroke-width:0.8;"/>
     </g>
     <g id="line2d_10">
      <g>
       <use style="stroke:#000000;stroke-width:0.8;" x="399.942857" xlink:href="#m6ac51cf907" y="298.245375"/>
      </g>
     </g>
     <g id="text_5">
      <!-- 8 -->
      <defs>
       <path d="M 31.78125 34.625 
Q 24.75 34.625 20.71875 30.859375 
Q 16.703125 27.09375 16.703125 20.515625 
Q 16.703125 13.921875 20.71875 10.15625 
Q 24.75 6.390625 31.78125 6.390625 
Q 38.8125 6.390625 42.859375 10.171875 
Q 46.921875 13.96875 46.921875 20.515625 
Q 46.921875 27.09375 42.890625 30.859375 
Q 38.875 34.625 31.78125 34.625 
M 21.921875 38.8125 
Q 15.578125 40.375 12.03125 44.71875 
Q 8.5 49.078125 8.5 55.328125 
Q 8.5 64.0625 14.71875 69.140625 
Q 20.953125 74.21875 31.78125 74.21875 
Q 42.671875 74.21875 48.875 69.140625 
Q 55.078125 64.0625 55.078125 55.328125 
Q 55.078125 49.078125 51.53125 44.71875 
Q 48 40.375 41.703125 38.8125 
Q 48.828125 37.15625 52.796875 32.3125 
Q 56.78125 27.484375 56.78125 20.515625 
Q 56.78125 9.90625 50.3125 4.234375 
Q 43.84375 -1.421875 31.78125 -1.421875 
Q 19.734375 -1.421875 13.25 4.234375 
Q 6.78125 9.90625 6.78125 20.515625 
Q 6.78125 27.484375 10.78125 32.3125 
Q 14.796875 37.15625 21.921875 38.8125 
M 18.3125 54.390625 
Q 18.3125 48.734375 21.84375 45.5625 
Q 25.390625 42.390625 31.78125 42.390625 
Q 38.140625 42.390625 41.71875 45.5625 
Q 45.3125 48.734375 45.3125 54.390625 
Q 45.3125 60.0625 41.71875 63.234375 
Q 38.140625 66.40625 31.78125 66.40625 
Q 25.390625 66.40625 21.84375 63.234375 
Q 18.3125 60.0625 18.3125 54.390625 
" id="DejaVuSans-38"/>
      </defs>
      <g transform="translate(393.580357 320.44225)scale(0.2 -0.2)">
       <use xlink:href="#DejaVuSans-38"/>
      </g>
     </g>
    </g>
    <g id="xtick_6">
     <g id="line2d_11">
      <defs>
       <path d="M 0 0 
L 0 2 
" id="m7b2afab09f" style="stroke:#000000;stroke-width:0.6;"/>
      </defs>
      <g>
       <use style="stroke:#000000;stroke-width:0.6;" x="83.185234" xlink:href="#m7b2afab09f" y="298.245375"/>
      </g>
     </g>
    </g>
    <g id="xtick_7">
     <g id="line2d_12">
      <g>
       <use style="stroke:#000000;stroke-width:0.6;" x="95.570468" xlink:href="#m7b2afab09f" y="298.245375"/>
      </g>
     </g>
    </g>
    <g id="xtick_8">
     <g id="line2d_13">
      <g>
       <use style="stroke:#000000;stroke-width:0.6;" x="102.815366" xlink:href="#m7b2afab09f" y="298.245375"/>
      </g>
     </g>
    </g>
    <g id="xtick_9">
     <g id="line2d_14">
      <g>
       <use style="stroke:#000000;stroke-width:0.6;" x="107.955702" xlink:href="#m7b2afab09f" y="298.245375"/>
      </g>
     </g>
    </g>
    <g id="xtick_10">
     <g id="line2d_15">
      <g>
       <use style="stroke:#000000;stroke-width:0.6;" x="165.470948" xlink:href="#m7b2afab09f" y="298.245375"/>
      </g>
     </g>
    </g>
    <g id="xtick_11">
     <g id="line2d_16">
      <g>
       <use style="stroke:#000000;stroke-width:0.6;" x="177.856183" xlink:href="#m7b2afab09f" y="298.245375"/>
      </g>
     </g>
    </g>
    <g id="xtick_12">
     <g id="line2d_17">
      <g>
       <use style="stroke:#000000;stroke-width:0.6;" x="185.10108" xlink:href="#m7b2afab09f" y="298.245375"/>
      </g>
     </g>
    </g>
    <g id="xtick_13">
     <g id="line2d_18">
      <g>
       <use style="stroke:#000000;stroke-width:0.6;" x="190.241417" xlink:href="#m7b2afab09f" y="298.245375"/>
      </g>
     </g>
    </g>
    <g id="xtick_14">
     <g id="line2d_19">
      <g>
       <use style="stroke:#000000;stroke-width:0.6;" x="247.756663" xlink:href="#m7b2afab09f" y="298.245375"/>
      </g>
     </g>
    </g>
    <g id="xtick_15">
     <g id="line2d_20">
      <g>
       <use style="stroke:#000000;stroke-width:0.6;" x="260.141897" xlink:href="#m7b2afab09f" y="298.245375"/>
      </g>
     </g>
    </g>
    <g id="xtick_16">
     <g id="line2d_21">
      <g>
       <use style="stroke:#000000;stroke-width:0.6;" x="267.386794" xlink:href="#m7b2afab09f" y="298.245375"/>
      </g>
     </g>
    </g>
    <g id="xtick_17">
     <g id="line2d_22">
      <g>
       <use style="stroke:#000000;stroke-width:0.6;" x="272.527131" xlink:href="#m7b2afab09f" y="298.245375"/>
      </g>
     </g>
    </g>
    <g id="xtick_18">
     <g id="line2d_23">
      <g>
       <use style="stroke:#000000;stroke-width:0.6;" x="330.042377" xlink:href="#m7b2afab09f" y="298.245375"/>
      </g>
     </g>
    </g>
    <g id="xtick_19">
     <g id="line2d_24">
      <g>
       <use style="stroke:#000000;stroke-width:0.6;" x="342.427611" xlink:href="#m7b2afab09f" y="298.245375"/>
      </g>
     </g>
    </g>
    <g id="xtick_20">
     <g id="line2d_25">
      <g>
       <use style="stroke:#000000;stroke-width:0.6;" x="349.672509" xlink:href="#m7b2afab09f" y="298.245375"/>
      </g>
     </g>
    </g>
    <g id="xtick_21">
     <g id="line2d_26">
      <g>
       <use style="stroke:#000000;stroke-width:0.6;" x="354.812845" xlink:href="#m7b2afab09f" y="298.245375"/>
      </g>
     </g>
    </g>
    <g id="xtick_22">
     <g id="line2d_27">
      <g>
       <use style="stroke:#000000;stroke-width:0.6;" x="412.328091" xlink:href="#m7b2afab09f" y="298.245375"/>
      </g>
     </g>
    </g>
    <g id="xtick_23">
     <g id="line2d_28">
      <g>
       <use style="stroke:#000000;stroke-width:0.6;" x="424.713325" xlink:href="#m7b2afab09f" y="298.245375"/>
      </g>
     </g>
    </g>
    <g id="text_6">
     <!-- log10 of (# f-evals / dimension) -->
     <defs>
      <path d="M 9.421875 75.984375 
L 18.40625 75.984375 
L 18.40625 0 
L 9.421875 0 
z
" id="DejaVuSans-6c"/>
      <path d="M 30.609375 48.390625 
Q 23.390625 48.390625 19.1875 42.75 
Q 14.984375 37.109375 14.984375 27.296875 
Q 14.984375 17.484375 19.15625 11.84375 
Q 23.34375 6.203125 30.609375 6.203125 
Q 37.796875 6.203125 41.984375 11.859375 
Q 46.1875 17.53125 46.1875 27.296875 
Q 46.1875 37.015625 41.984375 42.703125 
Q 37.796875 48.390625 30.609375 48.390625 
M 30.609375 56 
Q 42.328125 56 49.015625 48.375 
Q 55.71875 40.765625 55.71875 27.296875 
Q 55.71875 13.875 49.015625 6.21875 
Q 42.328125 -1.421875 30.609375 -1.421875 
Q 18.84375 -1.421875 12.171875 6.21875 
Q 5.515625 13.875 5.515625 27.296875 
Q 5.515625 40.765625 12.171875 48.375 
Q 18.84375 56 30.609375 56 
" id="DejaVuSans-6f"/>
      <path d="M 45.40625 27.984375 
Q 45.40625 37.75 41.375 43.109375 
Q 37.359375 48.484375 30.078125 48.484375 
Q 22.859375 48.484375 18.828125 43.109375 
Q 14.796875 37.75 14.796875 27.984375 
Q 14.796875 18.265625 18.828125 12.890625 
Q 22.859375 7.515625 30.078125 7.515625 
Q 37.359375 7.515625 41.375 12.890625 
Q 45.40625 18.265625 45.40625 27.984375 
M 54.390625 6.78125 
Q 54.390625 -7.171875 48.1875 -13.984375 
Q 42 -20.796875 29.203125 -20.796875 
Q 24.46875 -20.796875 20.265625 -20.09375 
Q 16.0625 -19.390625 12.109375 -17.921875 
L 12.109375 -9.1875 
Q 16.0625 -11.328125 19.921875 -12.34375 
Q 23.78125 -13.375 27.78125 -13.375 
Q 36.625 -13.375 41.015625 -8.765625 
Q 45.40625 -4.15625 45.40625 5.171875 
L 45.40625 9.625 
Q 42.625 4.78125 38.28125 2.390625 
Q 33.9375 0 27.875 0 
Q 17.828125 0 11.671875 7.65625 
Q 5.515625 15.328125 5.515625 27.984375 
Q 5.515625 40.671875 11.671875 48.328125 
Q 17.828125 56 27.875 56 
Q 33.9375 56 38.28125 53.609375 
Q 42.625 51.21875 45.40625 46.390625 
L 45.40625 54.6875 
L 54.390625 54.6875 
z
" id="DejaVuSans-67"/>
      <path d="M 12.40625 8.296875 
L 28.515625 8.296875 
L 28.515625 63.921875 
L 10.984375 60.40625 
L 10.984375 69.390625 
L 28.421875 72.90625 
L 38.28125 72.90625 
L 38.28125 8.296875 
L 54.390625 8.296875 
L 54.390625 0 
L 12.40625 0 
z
" id="DejaVuSans-31"/>
      <path id="DejaVuSans-20"/>
      <path d="M 37.109375 75.984375 
L 37.109375 68.5 
L 28.515625 68.5 
Q 23.6875 68.5 21.796875 66.546875 
Q 19.921875 64.59375 19.921875 59.515625 
L 19.921875 54.6875 
L 34.71875 54.6875 
L 34.71875 47.703125 
L 19.921875 47.703125 
L 19.921875 0 
L 10.890625 0 
L 10.890625 47.703125 
L 2.296875 47.703125 
L 2.296875 54.6875 
L 10.890625 54.6875 
L 10.890625 58.5 
Q 10.890625 67.625 15.140625 71.796875 
Q 19.390625 75.984375 28.609375 75.984375 
z
" id="DejaVuSans-66"/>
      <path d="M 31 75.875 
Q 24.46875 64.65625 21.28125 53.65625 
Q 18.109375 42.671875 18.109375 31.390625 
Q 18.109375 20.125 21.3125 9.0625 
Q 24.515625 -2 31 -13.1875 
L 23.1875 -13.1875 
Q 15.875 -1.703125 12.234375 9.375 
Q 8.59375 20.453125 8.59375 31.390625 
Q 8.59375 42.28125 12.203125 53.3125 
Q 15.828125 64.359375 23.1875 75.875 
z
" id="DejaVuSans-28"/>
      <path d="M 51.125 44 
L 36.921875 44 
L 32.8125 27.6875 
L 47.125 27.6875 
z
M 43.796875 71.78125 
L 38.71875 51.515625 
L 52.984375 51.515625 
L 58.109375 71.78125 
L 65.921875 71.78125 
L 60.890625 51.515625 
L 76.125 51.515625 
L 76.125 44 
L 58.984375 44 
L 54.984375 27.6875 
L 70.515625 27.6875 
L 70.515625 20.21875 
L 53.078125 20.21875 
L 48 0 
L 40.1875 0 
L 45.21875 20.21875 
L 30.90625 20.21875 
L 25.875 0 
L 18.015625 0 
L 23.09375 20.21875 
L 7.71875 20.21875 
L 7.71875 27.6875 
L 24.90625 27.6875 
L 29 44 
L 13.28125 44 
L 13.28125 51.515625 
L 30.90625 51.515625 
L 35.890625 71.78125 
z
" id="DejaVuSans-23"/>
      <path d="M 4.890625 31.390625 
L 31.203125 31.390625 
L 31.203125 23.390625 
L 4.890625 23.390625 
z
" id="DejaVuSans-2d"/>
      <path d="M 56.203125 29.59375 
L 56.203125 25.203125 
L 14.890625 25.203125 
Q 15.484375 15.921875 20.484375 11.0625 
Q 25.484375 6.203125 34.421875 6.203125 
Q 39.59375 6.203125 44.453125 7.46875 
Q 49.3125 8.734375 54.109375 11.28125 
L 54.109375 2.78125 
Q 49.265625 0.734375 44.1875 -0.34375 
Q 39.109375 -1.421875 33.890625 -1.421875 
Q 20.796875 -1.421875 13.15625 6.1875 
Q 5.515625 13.8125 5.515625 26.8125 
Q 5.515625 40.234375 12.765625 48.109375 
Q 20.015625 56 32.328125 56 
Q 43.359375 56 49.78125 48.890625 
Q 56.203125 41.796875 56.203125 29.59375 
M 47.21875 32.234375 
Q 47.125 39.59375 43.09375 43.984375 
Q 39.0625 48.390625 32.421875 48.390625 
Q 24.90625 48.390625 20.390625 44.140625 
Q 15.875 39.890625 15.1875 32.171875 
z
" id="DejaVuSans-65"/>
      <path d="M 2.984375 54.6875 
L 12.5 54.6875 
L 29.59375 8.796875 
L 46.6875 54.6875 
L 56.203125 54.6875 
L 35.6875 0 
L 23.484375 0 
z
" id="DejaVuSans-76"/>
      <path d="M 34.28125 27.484375 
Q 23.390625 27.484375 19.1875 25 
Q 14.984375 22.515625 14.984375 16.5 
Q 14.984375 11.71875 18.140625 8.90625 
Q 21.296875 6.109375 26.703125 6.109375 
Q 34.1875 6.109375 38.703125 11.40625 
Q 43.21875 16.703125 43.21875 25.484375 
L 43.21875 27.484375 
z
M 52.203125 31.203125 
L 52.203125 0 
L 43.21875 0 
L 43.21875 8.296875 
Q 40.140625 3.328125 35.546875 0.953125 
Q 30.953125 -1.421875 24.3125 -1.421875 
Q 15.921875 -1.421875 10.953125 3.296875 
Q 6 8.015625 6 15.921875 
Q 6 25.140625 12.171875 29.828125 
Q 18.359375 34.515625 30.609375 34.515625 
L 43.21875 34.515625 
L 43.21875 35.40625 
Q 43.21875 41.609375 39.140625 45 
Q 35.0625 48.390625 27.6875 48.390625 
Q 23 48.390625 18.546875 47.265625 
Q 14.109375 46.140625 10.015625 43.890625 
L 10.015625 52.203125 
Q 14.9375 54.109375 19.578125 55.046875 
Q 24.21875 56 28.609375 56 
Q 40.484375 56 46.34375 49.84375 
Q 52.203125 43.703125 52.203125 31.203125 
" id="DejaVuSans-61"/>
      <path d="M 44.28125 53.078125 
L 44.28125 44.578125 
Q 40.484375 46.53125 36.375 47.5 
Q 32.28125 48.484375 27.875 48.484375 
Q 21.1875 48.484375 17.84375 46.4375 
Q 14.5 44.390625 14.5 40.28125 
Q 14.5 37.15625 16.890625 35.375 
Q 19.28125 33.59375 26.515625 31.984375 
L 29.59375 31.296875 
Q 39.15625 29.25 43.1875 25.515625 
Q 47.21875 21.78125 47.21875 15.09375 
Q 47.21875 7.46875 41.1875 3.015625 
Q 35.15625 -1.421875 24.609375 -1.421875 
Q 20.21875 -1.421875 15.453125 -0.5625 
Q 10.6875 0.296875 5.421875 2 
L 5.421875 11.28125 
Q 10.40625 8.6875 15.234375 7.390625 
Q 20.0625 6.109375 24.8125 6.109375 
Q 31.15625 6.109375 34.5625 8.28125 
Q 37.984375 10.453125 37.984375 14.40625 
Q 37.984375 18.0625 35.515625 20.015625 
Q 33.0625 21.96875 24.703125 23.78125 
L 21.578125 24.515625 
Q 13.234375 26.265625 9.515625 29.90625 
Q 5.8125 33.546875 5.8125 39.890625 
Q 5.8125 47.609375 11.28125 51.796875 
Q 16.75 56 26.8125 56 
Q 31.78125 56 36.171875 55.265625 
Q 40.578125 54.546875 44.28125 53.078125 
" id="DejaVuSans-73"/>
      <path d="M 25.390625 72.90625 
L 33.6875 72.90625 
L 8.296875 -9.28125 
L 0 -9.28125 
z
" id="DejaVuSans-2f"/>
      <path d="M 45.40625 46.390625 
L 45.40625 75.984375 
L 54.390625 75.984375 
L 54.390625 0 
L 45.40625 0 
L 45.40625 8.203125 
Q 42.578125 3.328125 38.25 0.953125 
Q 33.9375 -1.421875 27.875 -1.421875 
Q 17.96875 -1.421875 11.734375 6.484375 
Q 5.515625 14.40625 5.515625 27.296875 
Q 5.515625 40.1875 11.734375 48.09375 
Q 17.96875 56 27.875 56 
Q 33.9375 56 38.25 53.625 
Q 42.578125 51.265625 45.40625 46.390625 
M 14.796875 27.296875 
Q 14.796875 17.390625 18.875 11.75 
Q 22.953125 6.109375 30.078125 6.109375 
Q 37.203125 6.109375 41.296875 11.75 
Q 45.40625 17.390625 45.40625 27.296875 
Q 45.40625 37.203125 41.296875 42.84375 
Q 37.203125 48.484375 30.078125 48.484375 
Q 22.953125 48.484375 18.875 42.84375 
Q 14.796875 37.203125 14.796875 27.296875 
" id="DejaVuSans-64"/>
      <path d="M 9.421875 54.6875 
L 18.40625 54.6875 
L 18.40625 0 
L 9.421875 0 
z
M 9.421875 75.984375 
L 18.40625 75.984375 
L 18.40625 64.59375 
L 9.421875 64.59375 
z
" id="DejaVuSans-69"/>
      <path d="M 52 44.1875 
Q 55.375 50.25 60.0625 53.125 
Q 64.75 56 71.09375 56 
Q 79.640625 56 84.28125 50.015625 
Q 88.921875 44.046875 88.921875 33.015625 
L 88.921875 0 
L 79.890625 0 
L 79.890625 32.71875 
Q 79.890625 40.578125 77.09375 44.375 
Q 74.3125 48.1875 68.609375 48.1875 
Q 61.625 48.1875 57.5625 43.546875 
Q 53.515625 38.921875 53.515625 30.90625 
L 53.515625 0 
L 44.484375 0 
L 44.484375 32.71875 
Q 44.484375 40.625 41.703125 44.40625 
Q 38.921875 48.1875 33.109375 48.1875 
Q 26.21875 48.1875 22.15625 43.53125 
Q 18.109375 38.875 18.109375 30.90625 
L 18.109375 0 
L 9.078125 0 
L 9.078125 54.6875 
L 18.109375 54.6875 
L 18.109375 46.1875 
Q 21.1875 51.21875 25.484375 53.609375 
Q 29.78125 56 35.6875 56 
Q 41.65625 56 45.828125 52.96875 
Q 50 49.953125 52 44.1875 
" id="DejaVuSans-6d"/>
      <path d="M 54.890625 33.015625 
L 54.890625 0 
L 45.90625 0 
L 45.90625 32.71875 
Q 45.90625 40.484375 42.875 44.328125 
Q 39.84375 48.1875 33.796875 48.1875 
Q 26.515625 48.1875 22.3125 43.546875 
Q 18.109375 38.921875 18.109375 30.90625 
L 18.109375 0 
L 9.078125 0 
L 9.078125 54.6875 
L 18.109375 54.6875 
L 18.109375 46.1875 
Q 21.34375 51.125 25.703125 53.5625 
Q 30.078125 56 35.796875 56 
Q 45.21875 56 50.046875 50.171875 
Q 54.890625 44.34375 54.890625 33.015625 
" id="DejaVuSans-6e"/>
      <path d="M 8.015625 75.875 
L 15.828125 75.875 
Q 23.140625 64.359375 26.78125 53.3125 
Q 30.421875 42.28125 30.421875 31.390625 
Q 30.421875 20.453125 26.78125 9.375 
Q 23.140625 -1.703125 15.828125 -13.1875 
L 8.015625 -13.1875 
Q 14.5 -2 17.703125 9.0625 
Q 20.90625 20.125 20.90625 31.390625 
Q 20.90625 42.671875 17.703125 53.65625 
Q 14.5 64.65625 8.015625 75.875 
" id="DejaVuSans-29"/>
     </defs>
     <g transform="translate(107.015156 342.278812)scale(0.18 -0.18)">
      <use xlink:href="#DejaVuSans-6c"/>
      <use x="27.783203" xlink:href="#DejaVuSans-6f"/>
      <use x="88.964844" xlink:href="#DejaVuSans-67"/>
      <use x="152.441406" xlink:href="#DejaVuSans-31"/>
      <use x="216.064453" xlink:href="#DejaVuSans-30"/>
      <use x="279.6875" xlink:href="#DejaVuSans-20"/>
      <use x="311.474609" xlink:href="#DejaVuSans-6f"/>
      <use x="372.65625" xlink:href="#DejaVuSans-66"/>
      <use x="407.861328" xlink:href="#DejaVuSans-20"/>
      <use x="439.648438" xlink:href="#DejaVuSans-28"/>
      <use x="478.662109" xlink:href="#DejaVuSans-23"/>
      <use x="562.451172" xlink:href="#DejaVuSans-20"/>
      <use x="594.238281" xlink:href="#DejaVuSans-66"/>
      <use x="629.365234" xlink:href="#DejaVuSans-2d"/>
      <use x="665.449219" xlink:href="#DejaVuSans-65"/>
      <use x="726.972656" xlink:href="#DejaVuSans-76"/>
      <use x="786.152344" xlink:href="#DejaVuSans-61"/>
      <use x="847.431641" xlink:href="#DejaVuSans-6c"/>
      <use x="875.214844" xlink:href="#DejaVuSans-73"/>
      <use x="927.314453" xlink:href="#DejaVuSans-20"/>
      <use x="959.101562" xlink:href="#DejaVuSans-2f"/>
      <use x="992.792969" xlink:href="#DejaVuSans-20"/>
      <use x="1024.580078" xlink:href="#DejaVuSans-64"/>
      <use x="1088.056641" xlink:href="#DejaVuSans-69"/>
      <use x="1115.839844" xlink:href="#DejaVuSans-6d"/>
      <use x="1213.251953" xlink:href="#DejaVuSans-65"/>
      <use x="1274.775391" xlink:href="#DejaVuSans-6e"/>
      <use x="1338.154297" xlink:href="#DejaVuSans-73"/>
      <use x="1390.253906" xlink:href="#DejaVuSans-69"/>
      <use x="1418.037109" xlink:href="#DejaVuSans-6f"/>
      <use x="1479.21875" xlink:href="#DejaVuSans-6e"/>
      <use x="1542.597656" xlink:href="#DejaVuSans-29"/>
     </g>
    </g>
   </g>
   <g id="matplotlib.axis_2">
    <g id="ytick_1">
     <g id="line2d_29">
      <path clip-path="url(#p343e7d0cc3)" d="M 70.8 298.245375 
L 427.92 298.245375 
" style="fill:none;stroke:#b0b0b0;stroke-linecap:square;stroke-width:0.8;"/>
     </g>
     <g id="line2d_30">
      <defs>
       <path d="M 0 0 
L -3.5 0 
" id="mb386c4a5fd" style="stroke:#000000;stroke-width:0.8;"/>
      </defs>
      <g>
       <use style="stroke:#000000;stroke-width:0.8;" x="70.8" xlink:href="#mb386c4a5fd" y="298.245375"/>
      </g>
     </g>
     <g id="text_7">
      <!-- 0.0 -->
      <defs>
       <path d="M 10.6875 12.40625 
L 21 12.40625 
L 21 0 
L 10.6875 0 
z
" id="DejaVuSans-2e"/>
      </defs>
      <g transform="translate(31.99375 305.843812)scale(0.2 -0.2)">
       <use xlink:href="#DejaVuSans-30"/>
       <use x="63.623047" xlink:href="#DejaVuSans-2e"/>
       <use x="95.410156" xlink:href="#DejaVuSans-30"/>
      </g>
     </g>
    </g>
    <g id="ytick_2">
     <g id="line2d_31">
      <path clip-path="url(#p343e7d0cc3)" d="M 70.8 245.549929 
L 427.92 245.549929 
" style="fill:none;stroke:#b0b0b0;stroke-linecap:square;stroke-width:0.8;"/>
     </g>
     <g id="line2d_32">
      <g>
       <use style="stroke:#000000;stroke-width:0.8;" x="70.8" xlink:href="#mb386c4a5fd" y="245.549929"/>
      </g>
     </g>
     <g id="text_8">
      <!-- 0.2 -->
      <g transform="translate(31.99375 253.148367)scale(0.2 -0.2)">
       <use xlink:href="#DejaVuSans-30"/>
       <use x="63.623047" xlink:href="#DejaVuSans-2e"/>
       <use x="95.410156" xlink:href="#DejaVuSans-32"/>
      </g>
     </g>
    </g>
    <g id="ytick_3">
     <g id="line2d_33">
      <path clip-path="url(#p343e7d0cc3)" d="M 70.8 192.854484 
L 427.92 192.854484 
" style="fill:none;stroke:#b0b0b0;stroke-linecap:square;stroke-width:0.8;"/>
     </g>
     <g id="line2d_34">
      <g>
       <use style="stroke:#000000;stroke-width:0.8;" x="70.8" xlink:href="#mb386c4a5fd" y="192.854484"/>
      </g>
     </g>
     <g id="text_9">
      <!-- 0.4 -->
      <g transform="translate(31.99375 200.452921)scale(0.2 -0.2)">
       <use xlink:href="#DejaVuSans-30"/>
       <use x="63.623047" xlink:href="#DejaVuSans-2e"/>
       <use x="95.410156" xlink:href="#DejaVuSans-34"/>
      </g>
     </g>
    </g>
    <g id="ytick_4">
     <g id="line2d_35">
      <path clip-path="url(#p343e7d0cc3)" d="M 70.8 140.159038 
L 427.92 140.159038 
" style="fill:none;stroke:#b0b0b0;stroke-linecap:square;stroke-width:0.8;"/>
     </g>
     <g id="line2d_36">
      <g>
       <use style="stroke:#000000;stroke-width:0.8;" x="70.8" xlink:href="#mb386c4a5fd" y="140.159038"/>
      </g>
     </g>
     <g id="text_10">
      <!-- 0.6 -->
      <g transform="translate(31.99375 147.757476)scale(0.2 -0.2)">
       <use xlink:href="#DejaVuSans-30"/>
       <use x="63.623047" xlink:href="#DejaVuSans-2e"/>
       <use x="95.410156" xlink:href="#DejaVuSans-36"/>
      </g>
     </g>
    </g>
    <g id="ytick_5">
     <g id="line2d_37">
      <path clip-path="url(#p343e7d0cc3)" d="M 70.8 87.463593 
L 427.92 87.463593 
" style="fill:none;stroke:#b0b0b0;stroke-linecap:square;stroke-width:0.8;"/>
     </g>
     <g id="line2d_38">
      <g>
       <use style="stroke:#000000;stroke-width:0.8;" x="70.8" xlink:href="#mb386c4a5fd" y="87.463593"/>
      </g>
     </g>
     <g id="text_11">
      <!-- 0.8 -->
      <g transform="translate(31.99375 95.06203)scale(0.2 -0.2)">
       <use xlink:href="#DejaVuSans-30"/>
       <use x="63.623047" xlink:href="#DejaVuSans-2e"/>
       <use x="95.410156" xlink:href="#DejaVuSans-38"/>
      </g>
     </g>
    </g>
    <g id="ytick_6">
     <g id="line2d_39">
      <path clip-path="url(#p343e7d0cc3)" d="M 70.8 34.768147 
L 427.92 34.768147 
" style="fill:none;stroke:#b0b0b0;stroke-linecap:square;stroke-width:0.8;"/>
     </g>
     <g id="line2d_40">
      <g>
       <use style="stroke:#000000;stroke-width:0.8;" x="70.8" xlink:href="#mb386c4a5fd" y="34.768147"/>
      </g>
     </g>
     <g id="text_12">
      <!-- 1.0 -->
      <g transform="translate(31.99375 42.366585)scale(0.2 -0.2)">
       <use xlink:href="#DejaVuSans-31"/>
       <use x="63.623047" xlink:href="#DejaVuSans-2e"/>
       <use x="95.410156" xlink:href="#DejaVuSans-30"/>
      </g>
     </g>
    </g>
    <g id="text_13">
     <!-- Proportion of function+target pairs -->
     <defs>
      <path d="M 19.671875 64.796875 
L 19.671875 37.40625 
L 32.078125 37.40625 
Q 38.96875 37.40625 42.71875 40.96875 
Q 46.484375 44.53125 46.484375 51.125 
Q 46.484375 57.671875 42.71875 61.234375 
Q 38.96875 64.796875 32.078125 64.796875 
z
M 9.8125 72.90625 
L 32.078125 72.90625 
Q 44.34375 72.90625 50.609375 67.359375 
Q 56.890625 61.8125 56.890625 51.125 
Q 56.890625 40.328125 50.609375 34.8125 
Q 44.34375 29.296875 32.078125 29.296875 
L 19.671875 29.296875 
L 19.671875 0 
L 9.8125 0 
z
" id="DejaVuSans-50"/>
      <path d="M 41.109375 46.296875 
Q 39.59375 47.171875 37.8125 47.578125 
Q 36.03125 48 33.890625 48 
Q 26.265625 48 22.1875 43.046875 
Q 18.109375 38.09375 18.109375 28.8125 
L 18.109375 0 
L 9.078125 0 
L 9.078125 54.6875 
L 18.109375 54.6875 
L 18.109375 46.1875 
Q 20.953125 51.171875 25.484375 53.578125 
Q 30.03125 56 36.53125 56 
Q 37.453125 56 38.578125 55.875 
Q 39.703125 55.765625 41.0625 55.515625 
z
" id="DejaVuSans-72"/>
      <path d="M 18.109375 8.203125 
L 18.109375 -20.796875 
L 9.078125 -20.796875 
L 9.078125 54.6875 
L 18.109375 54.6875 
L 18.109375 46.390625 
Q 20.953125 51.265625 25.265625 53.625 
Q 29.59375 56 35.59375 56 
Q 45.5625 56 51.78125 48.09375 
Q 58.015625 40.1875 58.015625 27.296875 
Q 58.015625 14.40625 51.78125 6.484375 
Q 45.5625 -1.421875 35.59375 -1.421875 
Q 29.59375 -1.421875 25.265625 0.953125 
Q 20.953125 3.328125 18.109375 8.203125 
M 48.6875 27.296875 
Q 48.6875 37.203125 44.609375 42.84375 
Q 40.53125 48.484375 33.40625 48.484375 
Q 26.265625 48.484375 22.1875 42.84375 
Q 18.109375 37.203125 18.109375 27.296875 
Q 18.109375 17.390625 22.1875 11.75 
Q 26.265625 6.109375 33.40625 6.109375 
Q 40.53125 6.109375 44.609375 11.75 
Q 48.6875 17.390625 48.6875 27.296875 
" id="DejaVuSans-70"/>
      <path d="M 18.3125 70.21875 
L 18.3125 54.6875 
L 36.8125 54.6875 
L 36.8125 47.703125 
L 18.3125 47.703125 
L 18.3125 18.015625 
Q 18.3125 11.328125 20.140625 9.421875 
Q 21.96875 7.515625 27.59375 7.515625 
L 36.8125 7.515625 
L 36.8125 0 
L 27.59375 0 
Q 17.1875 0 13.234375 3.875 
Q 9.28125 7.765625 9.28125 18.015625 
L 9.28125 47.703125 
L 2.6875 47.703125 
L 2.6875 54.6875 
L 9.28125 54.6875 
L 9.28125 70.21875 
z
" id="DejaVuSans-74"/>
      <path d="M 8.5 21.578125 
L 8.5 54.6875 
L 17.484375 54.6875 
L 17.484375 21.921875 
Q 17.484375 14.15625 20.5 10.265625 
Q 23.53125 6.390625 29.59375 6.390625 
Q 36.859375 6.390625 41.078125 11.03125 
Q 45.3125 15.671875 45.3125 23.6875 
L 45.3125 54.6875 
L 54.296875 54.6875 
L 54.296875 0 
L 45.3125 0 
L 45.3125 8.40625 
Q 42.046875 3.421875 37.71875 1 
Q 33.40625 -1.421875 27.6875 -1.421875 
Q 18.265625 -1.421875 13.375 4.4375 
Q 8.5 10.296875 8.5 21.578125 
M 31.109375 56 
z
" id="DejaVuSans-75"/>
      <path d="M 48.78125 52.59375 
L 48.78125 44.1875 
Q 44.96875 46.296875 41.140625 47.34375 
Q 37.3125 48.390625 33.40625 48.390625 
Q 24.65625 48.390625 19.8125 42.84375 
Q 14.984375 37.3125 14.984375 27.296875 
Q 14.984375 17.28125 19.8125 11.734375 
Q 24.65625 6.203125 33.40625 6.203125 
Q 37.3125 6.203125 41.140625 7.25 
Q 44.96875 8.296875 48.78125 10.40625 
L 48.78125 2.09375 
Q 45.015625 0.34375 40.984375 -0.53125 
Q 36.96875 -1.421875 32.421875 -1.421875 
Q 20.0625 -1.421875 12.78125 6.34375 
Q 5.515625 14.109375 5.515625 27.296875 
Q 5.515625 40.671875 12.859375 48.328125 
Q 20.21875 56 33.015625 56 
Q 37.15625 56 41.109375 55.140625 
Q 45.0625 54.296875 48.78125 52.59375 
" id="DejaVuSans-63"/>
      <path d="M 46 62.703125 
L 46 35.5 
L 73.1875 35.5 
L 73.1875 27.203125 
L 46 27.203125 
L 46 0 
L 37.796875 0 
L 37.796875 27.203125 
L 10.59375 27.203125 
L 10.59375 35.5 
L 37.796875 35.5 
L 37.796875 62.703125 
z
" id="DejaVuSans-2b"/>
     </defs>
     <g transform="translate(24.250312 323.17875)rotate(-90)scale(0.18 -0.18)">
      <use xlink:href="#DejaVuSans-50"/>
      <use x="60.287109" xlink:href="#DejaVuSans-72"/>
      <use x="101.369141" xlink:href="#DejaVuSans-6f"/>
      <use x="162.550781" xlink:href="#DejaVuSans-70"/>
      <use x="226.027344" xlink:href="#DejaVuSans-6f"/>
      <use x="287.208984" xlink:href="#DejaVuSans-72"/>
      <use x="328.322266" xlink:href="#DejaVuSans-74"/>
      <use x="367.53125" xlink:href="#DejaVuSans-69"/>
      <use x="395.314453" xlink:href="#DejaVuSans-6f"/>
      <use x="456.496094" xlink:href="#DejaVuSans-6e"/>
      <use x="519.875" xlink:href="#DejaVuSans-20"/>
      <use x="551.662109" xlink:href="#DejaVuSans-6f"/>
      <use x="612.84375" xlink:href="#DejaVuSans-66"/>
      <use x="648.048828" xlink:href="#DejaVuSans-20"/>
      <use x="679.835938" xlink:href="#DejaVuSans-66"/>
      <use x="715.041016" xlink:href="#DejaVuSans-75"/>
      <use x="778.419922" xlink:href="#DejaVuSans-6e"/>
      <use x="841.798828" xlink:href="#DejaVuSans-63"/>
      <use x="896.779297" xlink:href="#DejaVuSans-74"/>
      <use x="935.988281" xlink:href="#DejaVuSans-69"/>
      <use x="963.771484" xlink:href="#DejaVuSans-6f"/>
      <use x="1024.953125" xlink:href="#DejaVuSans-6e"/>
      <use x="1088.332031" xlink:href="#DejaVuSans-2b"/>
      <use x="1172.121094" xlink:href="#DejaVuSans-74"/>
      <use x="1211.330078" xlink:href="#DejaVuSans-61"/>
      <use x="1272.609375" xlink:href="#DejaVuSans-72"/>
      <use x="1313.707031" xlink:href="#DejaVuSans-67"/>
      <use x="1377.183594" xlink:href="#DejaVuSans-65"/>
      <use x="1438.707031" xlink:href="#DejaVuSans-74"/>
      <use x="1477.916016" xlink:href="#DejaVuSans-20"/>
      <use x="1509.703125" xlink:href="#DejaVuSans-70"/>
      <use x="1573.179688" xlink:href="#DejaVuSans-61"/>
      <use x="1634.458984" xlink:href="#DejaVuSans-69"/>
      <use x="1662.242188" xlink:href="#DejaVuSans-72"/>
      <use x="1703.355469" xlink:href="#DejaVuSans-73"/>
     </g>
    </g>
   </g>
   <g id="line2d_41">
    <defs>
     <path d="M 0 1.5 
C 0.397805 1.5 0.77937 1.341951 1.06066 1.06066 
C 1.341951 0.77937 1.5 0.397805 1.5 0 
C 1.5 -0.397805 1.341951 -0.77937 1.06066 -1.06066 
C 0.77937 -1.341951 0.397805 -1.5 0 -1.5 
C -0.397805 -1.5 -0.77937 -1.341951 -1.06066 -1.06066 
C -1.341951 -0.77937 -1.5 -0.397805 -1.5 0 
C -1.5 0.397805 -1.341951 0.77937 -1.06066 1.06066 
C -0.77937 1.341951 -0.397805 1.5 0 1.5 
z
" id="md7c24108fe" style="stroke:#00bfbf;"/>
    </defs>
    <g>
     <use style="fill:#00bfbf;stroke:#00bfbf;" x="240.652812" xlink:href="#md7c24108fe" y="143.25877"/>
     <use style="fill:#00bfbf;stroke:#00bfbf;" x="240.652812" xlink:href="#md7c24108fe" y="143.25877"/>
    </g>
   </g>
   <g id="line2d_42">
    <path d="M 58.414766 298.245375 
L 58.414766 296.695509 
L 83.185234 296.695509 
L 83.185234 296.178887 
L 90.430132 296.178887 
L 90.430132 295.662265 
L 95.570468 295.662265 
L 95.570468 292.562533 
L 97.675029 292.562533 
L 97.675029 292.045911 
L 99.557623 292.045911 
L 99.557623 286.363069 
L 101.260636 286.363069 
L 101.260636 283.263337 
L 105.569748 283.263337 
L 105.569748 281.196849 
L 106.802521 281.196849 
L 106.802521 279.646982 
L 110.060263 279.646982 
L 110.060263 279.13036 
L 111.026343 279.13036 
L 111.026343 271.38103 
L 114.44014 271.38103 
L 114.44014 269.831164 
L 115.930012 269.831164 
L 115.930012 268.79792 
L 116.630812 268.79792 
L 116.630812 265.698188 
L 117.305161 265.698188 
L 117.305161 264.664944 
L 123.411577 264.664944 
L 123.411577 261.565212 
L 123.87571 261.565212 
L 123.87571 260.015346 
L 125.19988 260.015346 
L 125.19988 257.432236 
L 125.620325 257.432236 
L 125.620325 256.915614 
L 126.031105 256.915614 
L 126.031105 256.398992 
L 126.432652 256.398992 
L 126.432652 255.88237 
L 127.209649 255.88237 
L 127.209649 255.365748 
L 128.315246 255.365748 
L 128.315246 253.29926 
L 129.356402 253.29926 
L 129.356402 251.232772 
L 130.018259 251.232772 
L 130.018259 247.616418 
L 130.340216 247.616418 
L 130.340216 245.033307 
L 132.726171 245.033307 
L 132.726171 244.000063 
L 133.809418 244.000063 
L 133.809418 243.483441 
L 135.3203 243.483441 
L 135.3203 242.966819 
L 138.416339 242.966819 
L 138.416339 241.933575 
L 139.210608 241.933575 
L 139.210608 240.383709 
L 139.783966 240.383709 
L 139.783966 239.867087 
L 141.22864 239.867087 
L 141.22864 238.833843 
L 144.687635 238.833843 
L 144.687635 238.317221 
L 148.986533 238.317221 
L 148.986533 237.800599 
L 149.970348 237.800599 
L 149.970348 237.283977 
L 151.003475 237.283977 
L 151.003475 235.217489 
L 151.692688 235.217489 
L 151.692688 234.700867 
L 156.193932 234.700867 
L 156.193932 234.184245 
L 157.215245 234.184245 
L 157.215245 233.151001 
L 161.145586 233.151001 
L 161.145586 232.117757 
L 163.637919 232.117757 
L 163.637919 231.084513 
L 164.365352 231.084513 
L 164.365352 230.567891 
L 165.824784 230.567891 
L 165.824784 230.051269 
L 166.085637 230.051269 
L 166.085637 229.018025 
L 166.300143 229.018025 
L 166.300143 221.268695 
L 166.554196 221.268695 
L 166.596189 219.202207 
L 167.173962 219.202207 
L 167.173962 218.685585 
L 167.45599 218.685585 
L 167.45599 217.652341 
L 167.575509 217.652341 
L 167.654747 216.102475 
L 167.772949 216.102475 
L 167.812177 213.002743 
L 168.122934 213.002743 
L 168.122934 212.48612 
L 168.503932 212.48612 
L 168.503932 211.969498 
L 168.654085 211.969498 
L 168.654085 211.452876 
L 169.024039 211.452876 
L 169.024039 210.936254 
L 169.169902 210.936254 
L 169.169902 210.419632 
L 172.686041 210.419632 
L 172.686041 209.90301 
L 174.200953 209.90301 
L 174.200953 209.386388 
L 174.553714 209.386388 
L 174.553714 208.869766 
L 178.275589 208.869766 
L 178.275589 206.286656 
L 178.406014 206.286656 
L 178.427659 205.253412 
L 178.876255 205.253412 
L 178.876255 203.703546 
L 179.044229 203.703546 
L 179.044229 202.670302 
L 179.51854 202.670302 
L 179.51854 201.120436 
L 179.801206 201.120436 
L 179.801206 200.603814 
L 179.960743 200.603814 
L 179.960743 200.087192 
L 180.908004 200.087192 
L 180.908004 199.57057 
L 181.573285 199.57057 
L 181.627623 198.020704 
L 184.740096 198.020704 
L 184.740096 196.470838 
L 185.381775 196.470838 
L 185.484088 194.920972 
L 185.787557 194.920972 
L 185.859058 193.887728 
L 185.901822 193.887728 
L 185.901822 193.371106 
L 186.085958 193.371106 
L 186.085958 192.854484 
L 186.226321 192.854484 
L 186.226321 192.337862 
L 186.462436 192.337862 
L 186.572479 191.304618 
L 187.701647 191.304618 
L 187.701647 190.271374 
L 188.333989 190.271374 
L 188.333989 189.754752 
L 190.452351 189.754752 
L 190.452351 188.721508 
L 190.704404 188.721508 
L 190.758731 187.688264 
L 191.091921 187.688264 
L 191.091921 186.138398 
L 192.854852 186.138398 
L 192.854852 185.621776 
L 194.397517 185.621776 
L 194.397517 184.07191 
L 194.912183 184.07191 
L 194.912183 183.555288 
L 195.809339 183.555288 
L 195.809339 183.038666 
L 197.627213 183.038666 
L 197.627213 182.005422 
L 197.832849 182.005422 
L 197.832849 180.455556 
L 198.057791 180.455556 
L 198.158457 179.422312 
L 198.179954 179.422312 
L 198.179954 178.90569 
L 200.361535 178.90569 
L 200.361535 178.389067 
L 200.588275 178.389067 
L 200.588275 175.805957 
L 200.818353 175.805957 
L 200.836878 174.772713 
L 201.401853 174.772713 
L 201.401853 173.739469 
L 202.88718 173.739469 
L 202.88718 173.222847 
L 203.056963 173.222847 
L 203.056963 171.156359 
L 204.825268 171.156359 
L 204.825268 170.639737 
L 205.182104 170.639737 
L 205.182104 170.123115 
L 205.640776 170.123115 
L 205.640776 169.606493 
L 206.95888 169.606493 
L 207.020117 168.573249 
L 208.393811 168.573249 
L 208.393811 168.056627 
L 208.506671 168.056627 
L 208.506671 167.540005 
L 208.630797 167.540005 
L 208.630797 166.506761 
L 209.064415 166.506761 
L 209.064415 165.990139 
L 209.942137 165.990139 
L 209.942137 164.956895 
L 210.21078 164.956895 
L 210.221734 163.407029 
L 211.567792 163.407029 
L 211.567792 162.890407 
L 212.800565 162.890407 
L 212.800565 162.373785 
L 212.917093 162.373785 
L 212.917093 161.857163 
L 213.998125 161.857163 
L 214.021748 160.307297 
L 216.144989 160.307297 
L 216.144989 159.274053 
L 216.335257 159.274053 
L 216.335257 158.757431 
L 216.582428 158.757431 
L 216.582428 158.240809 
L 217.163536 158.240809 
L 217.163536 157.207565 
L 217.577015 157.207565 
L 217.577015 156.690943 
L 219.041426 156.690943 
L 219.041426 155.657699 
L 220.035981 155.657699 
L 220.065462 154.107833 
L 220.859732 154.107833 
L 220.887886 153.074589 
L 221.533186 153.074589 
L 221.533186 152.557967 
L 221.647174 152.557967 
L 221.647174 152.041345 
L 222.401374 152.041345 
L 222.401374 150.491479 
L 225.157339 150.491479 
L 225.157339 149.974857 
L 226.313784 149.974857 
L 226.359704 148.941613 
L 228.071054 148.941613 
L 228.071054 148.424991 
L 228.552482 148.424991 
L 228.582553 147.391747 
L 230.08517 147.391747 
L 230.08517 146.875125 
L 230.559216 146.875125 
L 230.559216 146.358503 
L 231.92544 146.358503 
L 231.92544 145.841881 
L 232.870751 145.841881 
L 232.870751 145.325259 
L 235.081411 145.325259 
L 235.081411 144.808637 
L 235.453433 144.808637 
L 235.453433 144.292014 
L 239.566074 144.292014 
L 239.566074 143.775392 
L 240.652812 143.775392 
L 240.652812 143.25877 
L 358.8 143.25877 
L 358.8 143.25877 
" style="fill:none;stroke:#00bfbf;stroke-linecap:square;stroke-width:1.5;"/>
   </g>
   <g id="line2d_43">
    <defs>
     <path d="M -6 0 
L 6 0 
M 0 6 
L 0 -6 
" id="mca9bc6ec01" style="stroke:#00bfbf;stroke-width:1.5;"/>
    </defs>
    <g>
     <use style="fill:none;stroke:#00bfbf;stroke-width:1.5;" x="117.305161" xlink:href="#mca9bc6ec01" y="265.698188"/>
     <use style="fill:none;stroke:#00bfbf;stroke-width:1.5;" x="163.637919" xlink:href="#mca9bc6ec01" y="231.084513"/>
     <use style="fill:none;stroke:#00bfbf;stroke-width:1.5;" x="206.95888" xlink:href="#mca9bc6ec01" y="169.089871"/>
     <use style="fill:none;stroke:#00bfbf;stroke-width:1.5;" x="240.652812" xlink:href="#mca9bc6ec01" y="143.775392"/>
     <use style="fill:none;stroke:#00bfbf;stroke-width:1.5;" x="240.652812" xlink:href="#mca9bc6ec01" y="143.25877"/>
     <use style="fill:none;stroke:#00bfbf;stroke-width:1.5;" x="358.8" xlink:href="#mca9bc6ec01" y="143.25877"/>
    </g>
   </g>
   <g id="line2d_44"/>
   <g id="line2d_45">
    <path clip-path="url(#p343e7d0cc3)" d="M 165.470948 230.567891 
" style="fill:none;stroke:#00bfbf;stroke-linecap:square;stroke-width:1.5;"/>
    <defs>
     <path d="M -12 12 
L 12 -12 
M -12 -12 
L 12 12 
" id="mf3f4f4f15f" style="stroke:#00bfbf;stroke-width:3;"/>
    </defs>
    <g clip-path="url(#p343e7d0cc3)">
     <use style="fill:#00bfbf;stroke:#00bfbf;stroke-width:3;" x="165.470948" xlink:href="#mf3f4f4f15f" y="230.567891"/>
    </g>
   </g>
   <g id="line2d_46">
    <defs>
     <path d="M 0 1.5 
C 0.397805 1.5 0.77937 1.341951 1.06066 1.06066 
C 1.341951 0.77937 1.5 0.397805 1.5 0 
C 1.5 -0.397805 1.341951 -0.77937 1.06066 -1.06066 
C 0.77937 -1.341951 0.397805 -1.5 0 -1.5 
C -0.397805 -1.5 -0.77937 -1.341951 -1.06066 -1.06066 
C -1.341951 -0.77937 -1.5 -0.397805 -1.5 0 
C -1.5 0.397805 -1.341951 0.77937 -1.06066 1.06066 
C -0.77937 1.341951 -0.397805 1.5 0 1.5 
z
" id="mc27a372d56" style="stroke:#008000;"/>
    </defs>
    <g>
     <use style="fill:#008000;stroke:#008000;" x="248.410727" xlink:href="#mc27a372d56" y="194.920972"/>
     <use style="fill:#008000;stroke:#008000;" x="248.410727" xlink:href="#mc27a372d56" y="194.920972"/>
    </g>
   </g>
   <g id="line2d_47">
    <path d="M 51.169868 298.245375 
L 51.169868 297.212131 
L 104.69796 297.212131 
L 104.69796 294.112399 
L 114.697239 294.112399 
L 114.697239 292.562533 
L 116.166679 292.562533 
L 116.166679 291.012667 
L 118.786207 291.012667 
L 118.786207 288.429557 
L 119.580476 288.429557 
L 119.580476 287.396313 
L 120.340936 287.396313 
L 120.340936 286.879691 
L 122.445497 286.879691 
L 122.445497 284.813203 
L 122.773362 284.813203 
L 122.773362 283.779959 
L 123.095319 283.779959 
L 123.095319 282.746715 
L 123.722334 282.746715 
L 123.722334 282.230093 
L 124.02778 282.230093 
L 124.02778 281.713471 
L 124.623439 281.713471 
L 124.623439 281.196849 
L 125.19988 281.196849 
L 125.19988 278.097116 
L 125.481273 278.097116 
L 125.481273 276.030628 
L 126.299803 276.030628 
L 126.299803 273.447518 
L 126.564521 273.447518 
L 126.564521 266.21481 
L 127.082473 266.21481 
L 127.082473 265.181566 
L 127.832295 265.181566 
L 127.832295 264.148322 
L 128.315246 264.148322 
L 128.315246 262.598456 
L 129.468428 262.598456 
L 129.468428 261.565212 
L 130.126224 261.565212 
L 130.126224 257.948858 
L 130.340216 257.948858 
L 130.340216 257.432236 
L 130.551676 257.432236 
L 130.551676 256.915614 
L 130.967232 256.915614 
L 130.967232 256.398992 
L 132.158881 256.398992 
L 132.158881 254.332504 
L 132.726171 254.332504 
L 132.726171 253.815882 
L 133.633376 253.815882 
L 133.633376 252.266016 
L 136.713325 252.266016 
L 136.713325 251.749394 
L 138.005559 251.749394 
L 138.005559 249.682906 
L 138.551193 249.682906 
L 138.551193 248.649662 
L 139.080657 248.649662 
L 139.080657 247.616418 
L 139.210608 247.616418 
L 139.210608 247.099796 
L 139.971068 247.099796 
L 139.971068 246.066551 
L 140.460636 246.066551 
L 140.460636 243.483441 
L 141.741636 243.483441 
L 141.741636 242.966819 
L 143.352466 242.966819 
L 143.352466 242.450197 
L 144.350945 242.450197 
L 144.350945 241.933575 
L 145.840817 241.933575 
L 145.840817 240.900331 
L 147.54383 240.900331 
L 147.54383 239.867087 
L 150.733762 239.867087 
L 150.733762 239.350465 
L 153.497847 239.350465 
L 153.497847 238.833843 
L 154.405629 238.833843 
L 154.405629 238.317221 
L 155.37462 238.317221 
L 155.37462 237.800599 
L 155.53113 237.800599 
L 155.53113 236.767355 
L 156.143811 236.767355 
L 156.243913 235.217489 
L 156.393022 235.217489 
L 156.393022 234.184245 
L 156.881252 234.184245 
L 156.881252 233.151001 
L 157.025157 233.151001 
L 157.025157 232.634379 
L 158.181325 232.634379 
L 158.226051 231.601135 
L 159.642513 231.601135 
L 159.642513 231.084513 
L 160.488738 231.084513 
L 160.488738 230.567891 
L 163.48881 230.567891 
L 163.522053 229.534647 
L 164.554434 229.534647 
L 164.554434 229.018025 
L 164.741536 229.018025 
L 164.741536 228.501403 
L 165.470948 228.501403 
L 165.470948 227.468159 
L 166.568205 227.468159 
L 166.568205 226.434915 
L 166.763182 226.434915 
L 166.87365 224.368427 
L 168.174206 224.368427 
L 168.174206 223.851805 
L 169.997825 223.851805 
L 169.997825 223.335183 
L 172.596326 223.335183 
L 172.596326 222.818561 
L 174.472923 222.818561 
L 174.472923 222.301939 
L 175.022209 222.301939 
L 175.022209 221.785317 
L 175.247623 221.785317 
L 175.264845 220.235451 
L 175.487237 220.235451 
L 175.487237 219.718829 
L 175.622731 219.718829 
L 175.622731 219.202207 
L 178.925411 219.202207 
L 178.925411 218.685585 
L 181.076661 218.685585 
L 181.076661 218.168963 
L 185.76366 218.168963 
L 185.76366 217.652341 
L 186.001208 217.652341 
L 186.001208 217.135719 
L 186.485418 217.135719 
L 186.485418 216.619097 
L 186.613571 216.619097 
L 186.613571 216.102475 
L 186.749865 216.102475 
L 186.749865 215.585853 
L 187.537837 215.585853 
L 187.537837 215.069231 
L 190.41921 215.069231 
L 190.41921 214.552609 
L 191.582064 214.552609 
L 191.582064 214.035987 
L 193.461895 214.035987 
L 193.461895 213.519365 
L 194.471115 213.519365 
L 194.471115 213.002743 
L 197.456509 213.002743 
L 197.456509 211.969498 
L 198.191886 211.969498 
L 198.191886 211.452876 
L 199.180301 211.452876 
L 199.180301 210.419632 
L 201.741456 210.419632 
L 201.741456 209.90301 
L 201.959173 209.90301 
L 201.959173 209.386388 
L 205.204675 209.386388 
L 205.204675 208.869766 
L 207.86999 208.869766 
L 207.86999 208.353144 
L 210.261842 208.353144 
L 210.261842 207.836522 
L 211.356655 207.836522 
L 211.356655 207.3199 
L 212.275796 207.3199 
L 212.275796 206.286656 
L 213.30217 206.286656 
L 213.30217 205.253412 
L 214.103205 205.253412 
L 214.103205 204.73679 
L 215.056499 204.73679 
L 215.056499 204.220168 
L 219.475081 204.220168 
L 219.475081 203.186924 
L 220.06406 203.186924 
L 220.06406 202.15368 
L 221.910986 202.15368 
L 221.910986 201.637058 
L 224.511815 201.637058 
L 224.511815 201.120436 
L 227.696128 201.120436 
L 227.696128 200.603814 
L 228.070158 200.603814 
L 228.070158 199.57057 
L 230.339559 199.57057 
L 230.339559 199.053948 
L 231.0362 199.053948 
L 231.0362 198.537326 
L 234.726813 198.537326 
L 234.726813 198.020704 
L 236.085968 198.020704 
L 236.085968 197.504082 
L 238.246396 197.504082 
L 238.246396 196.98746 
L 240.794073 196.98746 
L 240.794073 196.470838 
L 244.041773 196.470838 
L 244.041773 195.954216 
L 244.368724 195.954216 
L 244.368724 195.437594 
L 248.410727 195.437594 
L 248.410727 194.920972 
L 358.8 194.920972 
L 358.8 194.920972 
" style="fill:none;stroke:#008000;stroke-linecap:square;stroke-width:1.5;"/>
   </g>
   <g id="line2d_48">
    <defs>
     <path d="M -0 6 
L 6 -6 
L -6 -6 
z
" id="m732220f6b6" style="stroke:#008000;stroke-linejoin:miter;stroke-width:1.5;"/>
    </defs>
    <g>
     <use style="fill:none;stroke:#008000;stroke-linejoin:miter;stroke-width:1.5;" x="126.299803" xlink:href="#m732220f6b6" y="273.447518"/>
     <use style="fill:none;stroke:#008000;stroke-linejoin:miter;stroke-width:1.5;" x="156.243913" xlink:href="#m732220f6b6" y="235.217489"/>
     <use style="fill:none;stroke:#008000;stroke-linejoin:miter;stroke-width:1.5;" x="205.204675" xlink:href="#m732220f6b6" y="209.386388"/>
     <use style="fill:none;stroke:#008000;stroke-linejoin:miter;stroke-width:1.5;" x="248.410727" xlink:href="#m732220f6b6" y="194.920972"/>
     <use style="fill:none;stroke:#008000;stroke-linejoin:miter;stroke-width:1.5;" x="248.410727" xlink:href="#m732220f6b6" y="194.920972"/>
     <use style="fill:none;stroke:#008000;stroke-linejoin:miter;stroke-width:1.5;" x="358.8" xlink:href="#m732220f6b6" y="194.920972"/>
    </g>
   </g>
   <g id="line2d_49"/>
   <g id="line2d_50">
    <path clip-path="url(#p343e7d0cc3)" d="M 172.715846 222.818561 
" style="fill:none;stroke:#008000;stroke-linecap:square;stroke-width:1.5;"/>
    <defs>
     <path d="M -12 12 
L 12 -12 
M -12 -12 
L 12 12 
" id="m3d362735b7" style="stroke:#008000;stroke-width:3;"/>
    </defs>
    <g clip-path="url(#p343e7d0cc3)">
     <use style="fill:#008000;stroke:#008000;stroke-width:3;" x="172.715846" xlink:href="#m3d362735b7" y="222.818561"/>
    </g>
   </g>
   <g id="line2d_51">
    <defs>
     <path d="M 0 1.5 
C 0.397805 1.5 0.77937 1.341951 1.06066 1.06066 
C 1.341951 0.77937 1.5 0.397805 1.5 0 
C 1.5 -0.397805 1.341951 -0.77937 1.06066 -1.06066 
C 0.77937 -1.341951 0.397805 -1.5 0 -1.5 
C -0.397805 -1.5 -0.77937 -1.341951 -1.06066 -1.06066 
C -1.341951 -0.77937 -1.5 -0.397805 -1.5 0 
C -1.5 0.397805 -1.341951 0.77937 -1.06066 1.06066 
C -0.77937 1.341951 -0.397805 1.5 0 1.5 
z
" id="m673ba66587" style="stroke:#0000ff;"/>
    </defs>
    <g>
     <use style="fill:#0000ff;stroke:#0000ff;" x="246.341602" xlink:href="#m673ba66587" y="225.918293"/>
     <use style="fill:#0000ff;stroke:#0000ff;" x="246.341602" xlink:href="#m673ba66587" y="225.918293"/>
    </g>
   </g>
   <g id="line2d_52">
    <path d="M 123.03139 298.245375 
L 123.03139 297.212131 
L 123.967107 297.212131 
L 123.967107 296.178887 
L 124.681927 296.178887 
L 124.681927 295.145643 
L 126.353061 295.145643 
L 126.353061 294.112399 
L 126.669319 294.112399 
L 126.669319 293.595777 
L 127.285522 293.595777 
L 127.285522 292.562533 
L 127.436309 292.562533 
L 127.436309 291.012667 
L 127.734118 291.012667 
L 127.734118 290.496045 
L 128.315246 290.496045 
L 128.315246 289.979423 
L 128.739016 289.979423 
L 128.739016 288.946179 
L 129.690395 288.946179 
L 129.690395 288.429557 
L 129.953166 288.429557 
L 129.953166 286.879691 
L 130.083117 286.879691 
L 130.083117 286.363069 
L 130.212129 286.363069 
L 130.212129 285.329825 
L 131.453469 285.329825 
L 131.453469 283.263337 
L 132.726171 283.263337 
L 132.726171 282.746715 
L 133.058096 282.746715 
L 133.058096 281.713471 
L 133.491283 281.713471 
L 133.597959 280.680226 
L 133.704001 280.680226 
L 133.704001 280.163604 
L 134.327371 280.163604 
L 134.327371 279.13036 
L 134.929724 279.13036 
L 134.929724 278.097116 
L 135.126079 278.097116 
L 135.126079 277.580494 
L 136.260944 277.580494 
L 136.260944 276.54725 
L 136.713325 276.54725 
L 136.713325 275.514006 
L 137.067161 275.514006 
L 137.067161 274.997384 
L 137.585114 274.997384 
L 137.585114 274.480762 
L 138.005559 274.480762 
L 138.005559 272.414274 
L 138.976012 272.414274 
L 138.976012 270.864408 
L 139.971068 270.864408 
L 139.971068 270.347786 
L 140.412279 270.347786 
L 140.412279 269.831164 
L 141.40128 269.831164 
L 141.40128 269.314542 
L 142.532973 269.314542 
L 142.532973 268.79792 
L 142.978903 268.79792 
L 142.978903 267.764676 
L 144.017684 267.764676 
L 144.017684 266.21481 
L 144.486383 266.21481 
L 144.486383 265.698188 
L 146.66148 265.698188 
L 146.66148 265.181566 
L 155.582997 265.181566 
L 155.582997 264.664944 
L 156.75559 264.664944 
L 156.75559 264.148322 
L 158.019377 264.148322 
L 158.019377 263.6317 
L 161.9032 263.6317 
L 161.9032 263.115078 
L 163.34851 263.115078 
L 163.34851 262.598456 
L 163.687347 262.598456 
L 163.687347 261.565212 
L 166.862634 261.565212 
L 166.862634 261.04859 
L 166.994381 261.04859 
L 166.994381 260.531968 
L 169.557886 260.531968 
L 169.557886 260.015346 
L 170.20009 260.015346 
L 170.20009 258.982102 
L 170.499259 258.982102 
L 170.566559 257.432236 
L 170.700403 257.432236 
L 170.713732 256.398992 
L 170.886116 256.398992 
L 170.886116 255.88237 
L 171.043777 255.88237 
L 171.043777 254.849126 
L 171.264775 254.849126 
L 171.264775 253.815882 
L 171.824392 253.815882 
L 171.824392 253.29926 
L 173.116335 253.29926 
L 173.116335 252.782638 
L 173.74576 252.782638 
L 173.74576 251.749394 
L 174.255679 251.749394 
L 174.255679 250.71615 
L 174.462123 250.71615 
L 174.462123 250.199528 
L 176.72205 250.199528 
L 176.72205 249.682906 
L 178.384343 249.682906 
L 178.384343 249.166284 
L 178.998193 249.166284 
L 178.998193 248.649662 
L 180.392267 248.649662 
L 180.392267 247.616418 
L 182.495966 247.616418 
L 182.495966 246.583173 
L 182.701507 246.583173 
L 182.796622 245.549929 
L 182.911443 245.549929 
L 182.911443 245.033307 
L 183.165465 245.033307 
L 183.244938 243.483441 
L 183.291134 243.483441 
L 183.291134 242.966819 
L 183.720927 242.966819 
L 183.772328 241.933575 
L 185.10108 241.933575 
L 185.10108 241.416953 
L 186.220728 241.416953 
L 186.220728 240.900331 
L 186.906675 240.900331 
L 186.906675 240.383709 
L 187.094114 240.383709 
L 187.094114 239.867087 
L 188.023144 239.867087 
L 188.023144 238.833843 
L 189.44207 238.833843 
L 189.512004 237.800599 
L 191.850783 237.800599 
L 191.850783 237.283977 
L 192.789125 237.283977 
L 192.789125 235.734111 
L 193.517762 235.734111 
L 193.517762 235.217489 
L 193.816462 235.217489 
L 193.816462 234.700867 
L 198.309822 234.700867 
L 198.366609 233.667623 
L 198.611555 233.667623 
L 198.611555 233.151001 
L 200.526835 233.151001 
L 200.561969 232.117757 
L 201.199788 232.117757 
L 201.199788 231.601135 
L 205.395704 231.601135 
L 205.395704 231.084513 
L 205.934577 231.084513 
L 205.943855 230.051269 
L 210.437256 230.051269 
L 210.437256 229.534647 
L 213.722387 229.534647 
L 213.722387 229.018025 
L 216.496306 229.018025 
L 216.496306 228.501403 
L 222.90453 228.501403 
L 222.90453 227.984781 
L 226.175909 227.984781 
L 226.175909 227.468159 
L 227.611363 227.468159 
L 227.611363 226.951537 
L 242.589146 226.951537 
L 242.589146 226.434915 
L 246.341602 226.434915 
L 246.341602 225.918293 
L 358.8 225.918293 
L 358.8 225.918293 
" style="fill:none;stroke:#0000ff;stroke-linecap:square;stroke-width:1.5;"/>
   </g>
   <g id="line2d_53">
    <defs>
     <path d="M 0 -6 
L -1.347084 -1.854102 
L -5.706339 -1.854102 
L -2.179628 0.708204 
L -3.526712 4.854102 
L -0 2.291796 
L 3.526712 4.854102 
L 2.179628 0.708204 
L 5.706339 -1.854102 
L 1.347084 -1.854102 
z
" id="m006437fe21" style="stroke:#0000ff;stroke-linejoin:bevel;stroke-width:1.5;"/>
    </defs>
    <g>
     <use style="fill:none;stroke:#0000ff;stroke-linejoin:bevel;stroke-width:1.5;" x="146.66148" xlink:href="#m006437fe21" y="265.698188"/>
     <use style="fill:none;stroke:#0000ff;stroke-linejoin:bevel;stroke-width:1.5;" x="198.611555" xlink:href="#m006437fe21" y="233.667623"/>
     <use style="fill:none;stroke:#0000ff;stroke-linejoin:bevel;stroke-width:1.5;" x="246.341602" xlink:href="#m006437fe21" y="226.434915"/>
     <use style="fill:none;stroke:#0000ff;stroke-linejoin:bevel;stroke-width:1.5;" x="246.341602" xlink:href="#m006437fe21" y="225.918293"/>
     <use style="fill:none;stroke:#0000ff;stroke-linejoin:bevel;stroke-width:1.5;" x="358.8" xlink:href="#m006437fe21" y="225.918293"/>
    </g>
   </g>
   <g id="line2d_54"/>
   <g id="line2d_55">
    <path clip-path="url(#p343e7d0cc3)" d="M 181.843337 247.616418 
" style="fill:none;stroke:#0000ff;stroke-linecap:square;stroke-width:1.5;"/>
    <defs>
     <path d="M -12 12 
L 12 -12 
M -12 -12 
L 12 12 
" id="m2d8f03260b" style="stroke:#0000ff;stroke-width:3;"/>
    </defs>
    <g clip-path="url(#p343e7d0cc3)">
     <use style="fill:#0000ff;stroke:#0000ff;stroke-width:3;" x="181.843337" xlink:href="#m2d8f03260b" y="247.616418"/>
    </g>
   </g>
   <g id="line2d_56">
    <defs>
     <path d="M 0 1.5 
C 0.397805 1.5 0.77937 1.341951 1.06066 1.06066 
C 1.341951 0.77937 1.5 0.397805 1.5 0 
C 1.5 -0.397805 1.341951 -0.77937 1.06066 -1.06066 
C 0.77937 -1.341951 0.397805 -1.5 0 -1.5 
C -0.397805 -1.5 -0.77937 -1.341951 -1.06066 -1.06066 
C -1.341951 -0.77937 -1.5 -0.397805 -1.5 0 
C -1.5 0.397805 -1.341951 0.77937 -1.06066 1.06066 
C -0.77937 1.341951 -0.397805 1.5 0 1.5 
z
" id="md10f692593" style="stroke:#000000;"/>
    </defs>
    <g>
     <use style="stroke:#000000;" x="260.565623" xlink:href="#md10f692593" y="231.084513"/>
     <use style="stroke:#000000;" x="260.565623" xlink:href="#md10f692593" y="231.084513"/>
    </g>
   </g>
   <g id="line2d_57">
    <path d="M 124.681927 298.245375 
L 124.681927 297.728753 
L 126.902893 297.728753 
L 126.902893 297.212131 
L 127.361075 297.212131 
L 127.361075 296.695509 
L 130.083117 296.695509 
L 130.083117 296.178887 
L 130.467392 296.178887 
L 130.467392 295.662265 
L 130.905511 295.662265 
L 130.905511 295.145643 
L 131.090037 295.145643 
L 131.090037 294.629021 
L 131.453469 294.629021 
L 131.453469 293.595777 
L 132.670245 293.595777 
L 132.670245 293.079155 
L 133.058096 293.079155 
L 133.058096 291.529289 
L 133.966387 291.529289 
L 134.070271 290.496045 
L 134.479874 290.496045 
L 134.479874 289.462801 
L 135.126079 289.462801 
L 135.126079 288.946179 
L 136.846836 288.946179 
L 136.846836 288.429557 
L 137.414126 288.429557 
L 137.414126 286.879691 
L 138.129788 286.879691 
L 138.129788 285.846447 
L 138.253158 285.846447 
L 138.294093 284.296581 
L 138.416339 284.296581 
L 138.416339 283.263337 
L 138.698367 283.263337 
L 138.698367 282.230093 
L 139.783966 282.230093 
L 139.783966 281.713471 
L 140.193035 281.713471 
L 140.193035 281.196849 
L 140.448559 281.196849 
L 140.448559 280.680226 
L 140.736181 280.680226 
L 140.736181 279.646982 
L 141.366886 279.646982 
L 141.366886 278.613738 
L 142.273069 278.613738 
L 142.273069 278.097116 
L 144.282838 278.097116 
L 144.282838 277.580494 
L 145.929935 277.580494 
L 145.929935 276.54725 
L 153.103573 276.54725 
L 153.103573 276.030628 
L 153.28119 276.030628 
L 153.28119 275.514006 
L 155.30111 275.514006 
L 155.30111 274.997384 
L 157.257738 274.997384 
L 157.257738 273.96414 
L 157.759919 273.96414 
L 157.759919 272.930896 
L 158.194754 272.930896 
L 158.275121 271.897652 
L 160.054512 271.897652 
L 160.054512 271.38103 
L 161.771817 271.38103 
L 161.771817 270.864408 
L 163.697216 270.864408 
L 163.697216 270.347786 
L 165.27331 270.347786 
L 165.27331 269.831164 
L 167.343712 269.831164 
L 167.343712 269.314542 
L 170.04169 269.314542 
L 170.04169 268.79792 
L 171.011046 268.79792 
L 171.011046 268.281298 
L 171.667184 268.281298 
L 171.667184 267.764676 
L 178.09138 267.764676 
L 178.09138 267.248054 
L 179.140104 267.248054 
L 179.140104 266.731432 
L 182.042348 266.731432 
L 182.042348 266.21481 
L 183.582051 266.21481 
L 183.69195 263.6317 
L 184.663964 263.6317 
L 184.663964 263.115078 
L 185.023483 263.115078 
L 185.083203 262.081834 
L 185.28477 262.081834 
L 185.28477 261.565212 
L 188.329018 261.565212 
L 188.329018 261.04859 
L 188.447941 261.04859 
L 188.447941 260.531968 
L 188.980703 260.531968 
L 188.980703 259.498724 
L 189.518983 259.498724 
L 189.518983 258.982102 
L 189.708677 258.982102 
L 189.708677 258.46548 
L 189.878153 258.46548 
L 189.878153 257.948858 
L 190.014396 257.948858 
L 190.014396 257.432236 
L 192.252422 257.432236 
L 192.252422 256.398992 
L 193.443234 256.398992 
L 193.525198 253.815882 
L 193.761523 253.815882 
L 193.761523 253.29926 
L 194.836353 253.29926 
L 194.886368 251.232772 
L 195.098658 251.232772 
L 195.102061 250.199528 
L 195.315182 250.199528 
L 195.315182 249.682906 
L 195.899068 249.682906 
L 195.899068 249.166284 
L 197.612434 249.166284 
L 197.612434 248.649662 
L 198.679933 248.649662 
L 198.679933 248.13304 
L 201.537679 248.13304 
L 201.537679 247.616418 
L 202.597591 247.616418 
L 202.597591 247.099796 
L 203.230546 247.099796 
L 203.230546 246.583173 
L 203.956244 246.583173 
L 203.956244 246.066551 
L 204.181845 246.066551 
L 204.181845 245.549929 
L 204.399578 245.549929 
L 204.496397 244.516685 
L 206.870152 244.516685 
L 206.925549 243.483441 
L 207.16537 243.483441 
L 207.16537 242.966819 
L 210.962502 242.966819 
L 210.962502 242.450197 
L 212.176167 242.450197 
L 212.176167 241.933575 
L 213.554151 241.933575 
L 213.581393 240.900331 
L 216.872074 240.900331 
L 216.872074 240.383709 
L 218.559482 240.383709 
L 218.559482 239.867087 
L 218.704481 239.867087 
L 218.704481 239.350465 
L 222.052744 239.350465 
L 222.052744 238.833843 
L 222.76433 238.833843 
L 222.842314 237.800599 
L 225.469488 237.800599 
L 225.469488 237.283977 
L 228.895666 237.283977 
L 228.895666 236.767355 
L 231.294485 236.767355 
L 231.294485 236.250733 
L 232.574619 236.250733 
L 232.574619 235.734111 
L 233.412036 235.734111 
L 233.412036 235.217489 
L 237.011631 235.217489 
L 237.011631 234.700867 
L 242.568495 234.700867 
L 242.568495 234.184245 
L 243.72467 234.184245 
L 243.72467 233.667623 
L 253.092409 233.667623 
L 253.092409 232.634379 
L 256.132337 232.634379 
L 256.132337 232.117757 
L 257.735459 232.117757 
L 257.735459 231.601135 
L 260.565623 231.601135 
L 260.565623 231.084513 
L 358.8 231.084513 
L 358.8 231.084513 
" style="fill:none;stroke:#000000;stroke-linecap:square;stroke-width:1.5;"/>
   </g>
   <g id="line2d_58">
    <defs>
     <path d="M 0 6 
C 1.591219 6 3.117479 5.367802 4.242641 4.242641 
C 5.367802 3.117479 6 1.591219 6 0 
C 6 -1.591219 5.367802 -3.117479 4.242641 -4.242641 
C 3.117479 -5.367802 1.591219 -6 0 -6 
C -1.591219 -6 -3.117479 -5.367802 -4.242641 -4.242641 
C -5.367802 -3.117479 -6 -1.591219 -6 0 
C -6 1.591219 -5.367802 3.117479 -4.242641 4.242641 
C -3.117479 5.367802 -1.591219 6 0 6 
z
" id="m466c55c5f3" style="stroke:#000000;stroke-width:1.5;"/>
    </defs>
    <g>
     <use style="fill:none;stroke:#000000;stroke-width:1.5;" x="192.252422" xlink:href="#m466c55c5f3" y="256.398992"/>
     <use style="fill:none;stroke:#000000;stroke-width:1.5;" x="243.72467" xlink:href="#m466c55c5f3" y="233.667623"/>
     <use style="fill:none;stroke:#000000;stroke-width:1.5;" x="260.565623" xlink:href="#m466c55c5f3" y="231.084513"/>
     <use style="fill:none;stroke:#000000;stroke-width:1.5;" x="260.565623" xlink:href="#m466c55c5f3" y="231.084513"/>
     <use style="fill:none;stroke:#000000;stroke-width:1.5;" x="358.8" xlink:href="#m466c55c5f3" y="231.084513"/>
    </g>
   </g>
   <g id="line2d_59"/>
   <g id="line2d_60">
    <path clip-path="url(#p343e7d0cc3)" d="M 194.228571 253.29926 
" style="fill:none;stroke:#000000;stroke-linecap:square;stroke-width:1.5;"/>
    <defs>
     <path d="M -12 12 
L 12 -12 
M -12 -12 
L 12 12 
" id="mbd2408c22c" style="stroke:#000000;stroke-width:3;"/>
    </defs>
    <g clip-path="url(#p343e7d0cc3)">
     <use style="stroke:#000000;stroke-width:3;" x="194.228571" xlink:href="#mbd2408c22c" y="253.29926"/>
    </g>
   </g>
   <g id="line2d_61">
    <defs>
     <path d="M 0 1.5 
C 0.397805 1.5 0.77937 1.341951 1.06066 1.06066 
C 1.341951 0.77937 1.5 0.397805 1.5 0 
C 1.5 -0.397805 1.341951 -0.77937 1.06066 -1.06066 
C 0.77937 -1.341951 0.397805 -1.5 0 -1.5 
C -0.397805 -1.5 -0.77937 -1.341951 -1.06066 -1.06066 
C -1.341951 -0.77937 -1.5 -0.397805 -1.5 0 
C -1.5 0.397805 -1.341951 0.77937 -1.06066 1.06066 
C -0.77937 1.341951 -0.397805 1.5 0 1.5 
z
" id="m4be5f3a8e2" style="stroke:#ff0000;"/>
    </defs>
    <g>
     <use style="fill:#ff0000;stroke:#ff0000;" x="224.644807" xlink:href="#m4be5f3a8e2" y="262.081834"/>
     <use style="fill:#ff0000;stroke:#ff0000;" x="224.644807" xlink:href="#m4be5f3a8e2" y="262.081834"/>
    </g>
   </g>
   <g id="line2d_62">
    <path d="M 131.602744 298.245375 
L 131.602744 297.728753 
L 134.631086 297.728753 
L 134.631086 297.212131 
L 136.260944 297.212131 
L 136.260944 296.178887 
L 137.499824 296.178887 
L 137.499824 295.145643 
L 137.838566 295.145643 
L 137.838566 294.112399 
L 138.718342 294.112399 
L 138.718342 293.595777 
L 138.778135 293.595777 
L 138.778135 292.562533 
L 139.054554 292.562533 
L 139.054554 292.045911 
L 140.55696 292.045911 
L 140.55696 291.529289 
L 140.754004 291.529289 
L 140.754004 291.012667 
L 140.931269 291.012667 
L 140.931269 290.496045 
L 142.108687 290.496045 
L 142.108687 289.979423 
L 143.057375 289.979423 
L 143.057375 289.462801 
L 143.228811 289.462801 
L 143.228811 287.396313 
L 144.844187 287.396313 
L 144.844187 286.879691 
L 145.498056 286.879691 
L 145.498056 285.846447 
L 148.930256 285.846447 
L 148.930256 284.296581 
L 149.331553 284.296581 
L 149.331553 283.779959 
L 149.852969 283.779959 
L 149.852969 283.263337 
L 150.648635 283.263337 
L 150.648635 282.230093 
L 157.985452 282.230093 
L 157.985452 280.680226 
L 158.80834 280.680226 
L 158.80834 279.646982 
L 167.259039 279.646982 
L 167.259039 279.13036 
L 172.451839 279.13036 
L 172.451839 278.613738 
L 175.431898 278.613738 
L 175.431898 276.54725 
L 177.017085 276.54725 
L 177.017085 275.514006 
L 179.258196 275.514006 
L 179.258196 274.997384 
L 185.562617 274.997384 
L 185.562617 274.480762 
L 185.809038 274.480762 
L 185.809038 273.96414 
L 190.460074 273.96414 
L 190.460074 273.447518 
L 192.134282 273.447518 
L 192.134282 272.930896 
L 192.414341 272.930896 
L 192.414341 271.897652 
L 193.860293 271.897652 
L 193.860293 270.864408 
L 194.123736 270.864408 
L 194.123736 270.347786 
L 194.143496 270.347786 
L 194.143496 269.831164 
L 194.63139 269.831164 
L 194.63139 269.314542 
L 194.728954 269.314542 
L 194.728954 268.79792 
L 195.074816 268.79792 
L 195.074816 268.281298 
L 195.535758 268.281298 
L 195.535758 267.764676 
L 200.339971 267.764676 
L 200.339971 267.248054 
L 201.310125 267.248054 
L 201.310125 266.731432 
L 202.253127 266.731432 
L 202.253127 266.21481 
L 202.387184 266.21481 
L 202.387184 265.698188 
L 203.62139 265.698188 
L 203.62139 265.181566 
L 203.715153 265.181566 
L 203.715153 264.664944 
L 203.866867 264.664944 
L 203.866867 264.148322 
L 203.910572 264.148322 
L 203.910572 263.115078 
L 203.941725 263.115078 
L 203.941725 262.598456 
L 224.644807 262.598456 
L 224.644807 262.081834 
L 358.8 262.081834 
" style="fill:none;stroke:#ff0000;stroke-linecap:square;stroke-width:1.5;"/>
   </g>
   <g id="line2d_63">
    <defs>
     <path d="M -6 6 
L 6 6 
L 6 -6 
L -6 -6 
z
" id="m230719b0a5" style="stroke:#ff0000;stroke-linejoin:miter;stroke-width:1.5;"/>
    </defs>
    <g>
     <use style="fill:none;stroke:#ff0000;stroke-linejoin:miter;stroke-width:1.5;" x="195.535758" xlink:href="#m230719b0a5" y="267.764676"/>
     <use style="fill:none;stroke:#ff0000;stroke-linejoin:miter;stroke-width:1.5;" x="224.644807" xlink:href="#m230719b0a5" y="262.598456"/>
     <use style="fill:none;stroke:#ff0000;stroke-linejoin:miter;stroke-width:1.5;" x="224.644807" xlink:href="#m230719b0a5" y="262.081834"/>
     <use style="fill:none;stroke:#ff0000;stroke-linejoin:miter;stroke-width:1.5;" x="224.644807" xlink:href="#m230719b0a5" y="262.081834"/>
     <use style="fill:none;stroke:#ff0000;stroke-linejoin:miter;stroke-width:1.5;" x="358.8" xlink:href="#m230719b0a5" y="262.081834"/>
    </g>
   </g>
   <g id="line2d_64"/>
   <g id="line2d_65">
    <path clip-path="url(#p343e7d0cc3)" d="M 206.613806 262.598456 
" style="fill:none;stroke:#ff0000;stroke-linecap:square;stroke-width:1.5;"/>
    <defs>
     <path d="M -12 12 
L 12 -12 
M -12 -12 
L 12 12 
" id="m84ebd5a31d" style="stroke:#ff0000;stroke-width:3;"/>
    </defs>
    <g clip-path="url(#p343e7d0cc3)">
     <use style="fill:#ff0000;stroke:#ff0000;stroke-width:3;" x="206.613806" xlink:href="#m84ebd5a31d" y="262.598456"/>
    </g>
   </g>
   <g id="line2d_66">
    <defs>
     <path d="M 0 1.5 
C 0.397805 1.5 0.77937 1.341951 1.06066 1.06066 
C 1.341951 0.77937 1.5 0.397805 1.5 0 
C 1.5 -0.397805 1.341951 -0.77937 1.06066 -1.06066 
C 0.77937 -1.341951 0.397805 -1.5 0 -1.5 
C -0.397805 -1.5 -0.77937 -1.341951 -1.06066 -1.06066 
C -1.341951 -0.77937 -1.5 -0.397805 -1.5 0 
C -1.5 0.397805 -1.341951 0.77937 -1.06066 1.06066 
C -0.77937 1.341951 -0.397805 1.5 0 1.5 
z
" id="m5298fcaf80" style="stroke:#bf00bf;"/>
    </defs>
    <g>
     <use style="fill:#bf00bf;stroke:#bf00bf;" x="292.041113" xlink:href="#m5298fcaf80" y="210.419632"/>
     <use style="fill:#bf00bf;stroke:#bf00bf;" x="292.041113" xlink:href="#m5298fcaf80" y="210.419632"/>
    </g>
   </g>
   <g id="line2d_67">
    <path d="M 138.698367 298.245375 
L 138.698367 297.728753 
L 138.956323 297.728753 
L 138.956323 297.212131 
L 139.840302 297.212131 
L 139.840302 295.662265 
L 140.816247 295.662265 
L 140.895956 293.595777 
L 142.460256 293.595777 
L 142.460256 293.079155 
L 145.688289 293.079155 
L 145.688289 292.562533 
L 146.494307 292.562533 
L 146.494307 291.529289 
L 148.947158 291.529289 
L 149.031428 289.979423 
L 151.385828 289.979423 
L 151.385828 289.462801 
L 151.899148 289.462801 
L 151.899148 288.429557 
L 157.029934 288.429557 
L 157.029934 287.912935 
L 158.46786 287.912935 
L 158.46786 287.396313 
L 158.579887 287.396313 
L 158.579887 286.879691 
L 158.982602 286.879691 
L 158.982602 286.363069 
L 171.649807 286.363069 
L 171.649807 285.329825 
L 198.172433 285.329825 
L 198.172433 284.813203 
L 200.311073 284.813203 
L 200.311073 284.296581 
L 201.110661 284.296581 
L 201.110661 283.779959 
L 201.854145 283.779959 
L 201.854145 283.263337 
L 203.607125 283.263337 
L 203.607125 282.746715 
L 203.949504 282.746715 
L 203.949504 282.230093 
L 204.125198 282.230093 
L 204.184148 280.163604 
L 204.24265 280.163604 
L 204.277812 279.13036 
L 204.489607 279.13036 
L 204.489607 278.613738 
L 204.877773 278.613738 
L 204.877773 278.097116 
L 207.432976 278.097116 
L 207.432976 277.580494 
L 207.804151 277.580494 
L 207.89939 274.997384 
L 207.928672 274.997384 
L 208.028205 273.96414 
L 208.061602 273.96414 
L 208.129853 271.38103 
L 210.203291 271.38103 
L 210.203291 270.864408 
L 210.424809 270.864408 
L 210.424809 270.347786 
L 213.87448 270.347786 
L 213.87448 269.314542 
L 214.721555 269.314542 
L 214.721555 268.281298 
L 214.981987 268.281298 
L 214.981987 267.248054 
L 216.188826 267.248054 
L 216.188826 266.731432 
L 217.335839 266.731432 
L 217.335839 265.698188 
L 217.503826 265.698188 
L 217.503826 265.181566 
L 218.084288 265.181566 
L 218.084288 264.664944 
L 219.22244 264.664944 
L 219.22244 264.148322 
L 219.408626 264.148322 
L 219.408626 263.6317 
L 225.498697 263.6317 
L 225.563549 262.081834 
L 226.677011 262.081834 
L 226.752498 258.46548 
L 229.758234 258.46548 
L 229.758234 257.432236 
L 230.652302 257.432236 
L 230.652302 256.915614 
L 234.928025 256.915614 
L 234.939835 255.88237 
L 235.63253 255.88237 
L 235.651802 252.782638 
L 236.635384 252.782638 
L 236.635384 252.266016 
L 237.561749 252.266016 
L 237.561749 251.749394 
L 238.144537 251.749394 
L 238.144537 250.71615 
L 238.329428 250.71615 
L 238.329428 249.166284 
L 241.067963 249.166284 
L 241.067963 248.649662 
L 241.589284 248.649662 
L 241.589284 248.13304 
L 242.619483 248.13304 
L 242.619483 247.616418 
L 243.40727 247.616418 
L 243.40727 247.099796 
L 245.635583 247.099796 
L 245.635583 246.583173 
L 246.030374 246.583173 
L 246.045202 244.516685 
L 246.310412 244.516685 
L 246.310412 244.000063 
L 246.587273 244.000063 
L 246.587273 243.483441 
L 247.577421 243.483441 
L 247.577421 242.966819 
L 249.580445 242.966819 
L 249.580445 241.933575 
L 249.817473 241.933575 
L 249.817473 241.416953 
L 250.256004 241.416953 
L 250.256004 240.900331 
L 252.289889 240.900331 
L 252.289889 240.383709 
L 252.545493 240.383709 
L 252.565914 237.800599 
L 252.941391 237.800599 
L 252.941391 237.283977 
L 254.858851 237.283977 
L 254.858851 236.767355 
L 255.093656 236.767355 
L 255.106732 234.184245 
L 255.264643 234.184245 
L 255.264643 233.151001 
L 257.318072 233.151001 
L 257.328794 232.117757 
L 257.470322 232.117757 
L 257.486136 231.084513 
L 257.619112 231.084513 
L 257.619112 230.567891 
L 258.099214 230.567891 
L 258.159946 229.534647 
L 259.11966 229.534647 
L 259.11966 229.018025 
L 259.294464 229.018025 
L 259.297052 227.984781 
L 259.4334 227.984781 
L 259.44757 226.951537 
L 259.828312 226.951537 
L 259.828312 226.434915 
L 260.909106 226.434915 
L 260.909106 225.918293 
L 261.082525 225.918293 
L 261.082525 225.401671 
L 263.138702 225.401671 
L 263.138702 224.885049 
L 264.190849 224.885049 
L 264.287365 223.851805 
L 265.554664 223.851805 
L 265.660842 222.301939 
L 266.835514 222.301939 
L 266.835514 221.785317 
L 267.907963 221.785317 
L 267.907963 221.268695 
L 269.13769 221.268695 
L 269.13769 220.752073 
L 270.184951 220.752073 
L 270.186326 219.718829 
L 270.471003 219.718829 
L 270.471003 219.202207 
L 271.175883 219.202207 
L 271.175883 218.685585 
L 271.446258 218.685585 
L 271.446258 218.168963 
L 271.563621 218.168963 
L 271.563621 217.135719 
L 272.108895 217.135719 
L 272.108895 216.619097 
L 272.302971 216.619097 
L 272.302971 216.102475 
L 273.065041 216.102475 
L 273.07165 215.069231 
L 273.856123 215.069231 
L 273.856123 214.552609 
L 274.66437 214.552609 
L 274.66437 214.035987 
L 274.776628 214.035987 
L 274.776628 213.519365 
L 276.896959 213.519365 
L 276.896959 213.002743 
L 282.500914 213.002743 
L 282.500914 212.48612 
L 283.780267 212.48612 
L 283.780267 211.969498 
L 286.997099 211.969498 
L 286.997099 211.452876 
L 289.441737 211.452876 
L 289.441737 210.936254 
L 292.041113 210.936254 
L 292.041113 210.419632 
L 358.8 210.419632 
L 358.8 210.419632 
" style="fill:none;stroke:#bf00bf;stroke-linecap:square;stroke-width:1.5;"/>
   </g>
   <g id="line2d_68">
    <defs>
     <path d="M -0 8.485281 
L 8.485281 0 
L 0 -8.485281 
L -8.485281 -0 
z
" id="mbda2f4631e" style="stroke:#bf00bf;stroke-linejoin:miter;stroke-width:1.5;"/>
    </defs>
    <g>
     <use style="fill:none;stroke:#bf00bf;stroke-linejoin:miter;stroke-width:1.5;" x="219.22244" xlink:href="#mbda2f4631e" y="264.664944"/>
     <use style="fill:none;stroke:#bf00bf;stroke-linejoin:miter;stroke-width:1.5;" x="259.828312" xlink:href="#mbda2f4631e" y="226.434915"/>
     <use style="fill:none;stroke:#bf00bf;stroke-linejoin:miter;stroke-width:1.5;" x="292.041113" xlink:href="#mbda2f4631e" y="210.419632"/>
     <use style="fill:none;stroke:#bf00bf;stroke-linejoin:miter;stroke-width:1.5;" x="292.041113" xlink:href="#mbda2f4631e" y="210.419632"/>
     <use style="fill:none;stroke:#bf00bf;stroke-linejoin:miter;stroke-width:1.5;" x="358.8" xlink:href="#mbda2f4631e" y="210.419632"/>
    </g>
   </g>
   <g id="line2d_69"/>
   <g id="line2d_70">
    <path clip-path="url(#p343e7d0cc3)" d="M 218.99904 264.664944 
" style="fill:none;stroke:#bf00bf;stroke-linecap:square;stroke-width:1.5;"/>
    <defs>
     <path d="M -12 12 
L 12 -12 
M -12 -12 
L 12 12 
" id="m4a44e1114a" style="stroke:#bf00bf;stroke-width:3;"/>
    </defs>
    <g clip-path="url(#p343e7d0cc3)">
     <use style="fill:#bf00bf;stroke:#bf00bf;stroke-width:3;" x="218.99904" xlink:href="#m4a44e1114a" y="264.664944"/>
    </g>
   </g>
   <g id="line2d_71">
    <path d="M 358.8 262.081834 
L 390.48 292.97583 
" style="fill:none;stroke:#ff0000;stroke-linecap:square;stroke-width:1.5;"/>
    <g>
     <use style="fill:none;stroke:#ff0000;stroke-linejoin:miter;stroke-width:1.5;" x="358.8" xlink:href="#m230719b0a5" y="262.081834"/>
     <use style="fill:none;stroke:#ff0000;stroke-linejoin:miter;stroke-width:1.5;" x="390.48" xlink:href="#m230719b0a5" y="292.97583"/>
    </g>
   </g>
   <g id="line2d_72">
    <path d="M 358.8 231.084513 
L 390.48 242.388203 
" style="fill:none;stroke:#000000;stroke-linecap:square;stroke-width:1.5;"/>
    <g>
     <use style="fill:none;stroke:#000000;stroke-width:1.5;" x="358.8" xlink:href="#m466c55c5f3" y="231.084513"/>
     <use style="fill:none;stroke:#000000;stroke-width:1.5;" x="390.48" xlink:href="#m466c55c5f3" y="242.388203"/>
    </g>
   </g>
   <g id="line2d_73">
    <path d="M 358.8 225.918293 
L 390.48 191.800575 
" style="fill:none;stroke:#0000ff;stroke-linecap:square;stroke-width:1.5;"/>
    <g>
     <use style="fill:none;stroke:#0000ff;stroke-linejoin:bevel;stroke-width:1.5;" x="358.8" xlink:href="#m006437fe21" y="225.918293"/>
     <use style="fill:none;stroke:#0000ff;stroke-linejoin:bevel;stroke-width:1.5;" x="390.48" xlink:href="#m006437fe21" y="191.800575"/>
    </g>
   </g>
   <g id="line2d_74">
    <path d="M 358.8 210.419632 
L 390.48 141.212947 
" style="fill:none;stroke:#bf00bf;stroke-linecap:square;stroke-width:1.5;"/>
    <g>
     <use style="fill:none;stroke:#bf00bf;stroke-linejoin:miter;stroke-width:1.5;" x="358.8" xlink:href="#mbda2f4631e" y="210.419632"/>
     <use style="fill:none;stroke:#bf00bf;stroke-linejoin:miter;stroke-width:1.5;" x="390.48" xlink:href="#mbda2f4631e" y="141.212947"/>
    </g>
   </g>
   <g id="line2d_75">
    <path d="M 358.8 194.920972 
L 390.48 90.62532 
" style="fill:none;stroke:#008000;stroke-linecap:square;stroke-width:1.5;"/>
    <g>
     <use style="fill:none;stroke:#008000;stroke-linejoin:miter;stroke-width:1.5;" x="358.8" xlink:href="#m732220f6b6" y="194.920972"/>
     <use style="fill:none;stroke:#008000;stroke-linejoin:miter;stroke-width:1.5;" x="390.48" xlink:href="#m732220f6b6" y="90.62532"/>
    </g>
   </g>
   <g id="line2d_76">
    <path d="M 358.8 143.25877 
L 390.48 40.037692 
" style="fill:none;stroke:#00bfbf;stroke-linecap:square;stroke-width:1.5;"/>
    <g>
     <use style="fill:none;stroke:#00bfbf;stroke-width:1.5;" x="358.8" xlink:href="#mca9bc6ec01" y="143.25877"/>
     <use style="fill:none;stroke:#00bfbf;stroke-width:1.5;" x="390.48" xlink:href="#mca9bc6ec01" y="40.037692"/>
    </g>
   </g>
   <g id="line2d_77">
    <path d="M 358.8 298.245375 
L 358.8 34.768147 
" style="fill:none;stroke:#000000;stroke-linecap:square;stroke-width:1.5;"/>
   </g>
   <g id="patch_3">
    <path d="M 70.8 298.245375 
L 70.8 32.133375 
" style="fill:none;stroke:#000000;stroke-linecap:square;stroke-linejoin:miter;stroke-width:0.8;"/>
   </g>
   <g id="patch_4">
    <path d="M 427.92 298.245375 
L 427.92 32.133375 
" style="fill:none;stroke:#000000;stroke-linecap:square;stroke-linejoin:miter;stroke-width:0.8;"/>
   </g>
   <g id="patch_5">
    <path d="M 70.8 298.245375 
L 427.92 298.245375 
" style="fill:none;stroke:#000000;stroke-linecap:square;stroke-linejoin:miter;stroke-width:0.8;"/>
   </g>
   <g id="patch_6">
    <path d="M 70.8 32.133375 
L 427.92 32.133375 
" style="fill:none;stroke:#000000;stroke-linecap:square;stroke-linejoin:miter;stroke-width:0.8;"/>
   </g>
   <g id="text_14">
    <!-- 20-D -->
    <defs>
     <path d="M 19.671875 64.796875 
L 19.671875 8.109375 
L 31.59375 8.109375 
Q 46.6875 8.109375 53.6875 14.9375 
Q 60.6875 21.78125 60.6875 36.53125 
Q 60.6875 51.171875 53.6875 57.984375 
Q 46.6875 64.796875 31.59375 64.796875 
z
M 9.8125 72.90625 
L 30.078125 72.90625 
Q 51.265625 72.90625 61.171875 64.09375 
Q 71.09375 55.28125 71.09375 36.53125 
Q 71.09375 17.671875 61.125 8.828125 
Q 51.171875 0 30.078125 0 
L 9.8125 0 
z
" id="DejaVuSans-44"/>
    </defs>
    <g transform="translate(396.24 297.114893)scale(0.15 -0.15)">
     <use xlink:href="#DejaVuSans-32"/>
     <use x="63.623047" xlink:href="#DejaVuSans-30"/>
     <use x="127.246094" xlink:href="#DejaVuSans-2d"/>
     <use x="163.330078" xlink:href="#DejaVuSans-44"/>
    </g>
   </g>
   <g id="text_15">
    <!-- 10-D -->
    <g transform="translate(396.24 246.527265)scale(0.15 -0.15)">
     <use xlink:href="#DejaVuSans-31"/>
     <use x="63.623047" xlink:href="#DejaVuSans-30"/>
     <use x="127.246094" xlink:href="#DejaVuSans-2d"/>
     <use x="163.330078" xlink:href="#DejaVuSans-44"/>
    </g>
   </g>
   <g id="text_16">
    <!-- 5-D -->
    <defs>
     <path d="M 10.796875 72.90625 
L 49.515625 72.90625 
L 49.515625 64.59375 
L 19.828125 64.59375 
L 19.828125 46.734375 
Q 21.96875 47.46875 24.109375 47.828125 
Q 26.265625 48.1875 28.421875 48.1875 
Q 40.625 48.1875 47.75 41.5 
Q 54.890625 34.8125 54.890625 23.390625 
Q 54.890625 11.625 47.5625 5.09375 
Q 40.234375 -1.421875 26.90625 -1.421875 
Q 22.3125 -1.421875 17.546875 -0.640625 
Q 12.796875 0.140625 7.71875 1.703125 
L 7.71875 11.625 
Q 12.109375 9.234375 16.796875 8.0625 
Q 21.484375 6.890625 26.703125 6.890625 
Q 35.15625 6.890625 40.078125 11.328125 
Q 45.015625 15.765625 45.015625 23.390625 
Q 45.015625 31 40.078125 35.4375 
Q 35.15625 39.890625 26.703125 39.890625 
Q 22.75 39.890625 18.8125 39.015625 
Q 14.890625 38.140625 10.796875 36.28125 
z
" id="DejaVuSans-35"/>
    </defs>
    <g transform="translate(396.24 195.939637)scale(0.15 -0.15)">
     <use xlink:href="#DejaVuSans-35"/>
     <use x="63.623047" xlink:href="#DejaVuSans-2d"/>
     <use x="99.707031" xlink:href="#DejaVuSans-44"/>
    </g>
   </g>
   <g id="text_17">
    <!-- 40-D -->
    <g transform="translate(396.24 145.35201)scale(0.15 -0.15)">
     <use xlink:href="#DejaVuSans-34"/>
     <use x="63.623047" xlink:href="#DejaVuSans-30"/>
     <use x="127.246094" xlink:href="#DejaVuSans-2d"/>
     <use x="163.330078" xlink:href="#DejaVuSans-44"/>
    </g>
   </g>
   <g id="text_18">
    <!-- 3-D -->
    <defs>
     <path d="M 40.578125 39.3125 
Q 47.65625 37.796875 51.625 33 
Q 55.609375 28.21875 55.609375 21.1875 
Q 55.609375 10.40625 48.1875 4.484375 
Q 40.765625 -1.421875 27.09375 -1.421875 
Q 22.515625 -1.421875 17.65625 -0.515625 
Q 12.796875 0.390625 7.625 2.203125 
L 7.625 11.71875 
Q 11.71875 9.328125 16.59375 8.109375 
Q 21.484375 6.890625 26.8125 6.890625 
Q 36.078125 6.890625 40.9375 10.546875 
Q 45.796875 14.203125 45.796875 21.1875 
Q 45.796875 27.640625 41.28125 31.265625 
Q 36.765625 34.90625 28.71875 34.90625 
L 20.21875 34.90625 
L 20.21875 43.015625 
L 29.109375 43.015625 
Q 36.375 43.015625 40.234375 45.921875 
Q 44.09375 48.828125 44.09375 54.296875 
Q 44.09375 59.90625 40.109375 62.90625 
Q 36.140625 65.921875 28.71875 65.921875 
Q 24.65625 65.921875 20.015625 65.03125 
Q 15.375 64.15625 9.8125 62.3125 
L 9.8125 71.09375 
Q 15.4375 72.65625 20.34375 73.4375 
Q 25.25 74.21875 29.59375 74.21875 
Q 40.828125 74.21875 47.359375 69.109375 
Q 53.90625 64.015625 53.90625 55.328125 
Q 53.90625 49.265625 50.4375 45.09375 
Q 46.96875 40.921875 40.578125 39.3125 
" id="DejaVuSans-33"/>
    </defs>
    <g transform="translate(396.24 94.764382)scale(0.15 -0.15)">
     <use xlink:href="#DejaVuSans-33"/>
     <use x="63.623047" xlink:href="#DejaVuSans-2d"/>
     <use x="99.707031" xlink:href="#DejaVuSans-44"/>
    </g>
   </g>
   <g id="text_19">
    <!-- 2-D -->
    <g transform="translate(396.24 44.176754)scale(0.15 -0.15)">
     <use xlink:href="#DejaVuSans-32"/>
     <use x="63.623047" xlink:href="#DejaVuSans-2d"/>
     <use x="99.707031" xlink:href="#DejaVuSans-44"/>
    </g>
   </g>
   <g id="text_20">
    <!-- bbob - f8 -->
    <defs>
     <path d="M 48.6875 27.296875 
Q 48.6875 37.203125 44.609375 42.84375 
Q 40.53125 48.484375 33.40625 48.484375 
Q 26.265625 48.484375 22.1875 42.84375 
Q 18.109375 37.203125 18.109375 27.296875 
Q 18.109375 17.390625 22.1875 11.75 
Q 26.265625 6.109375 33.40625 6.109375 
Q 40.53125 6.109375 44.609375 11.75 
Q 48.6875 17.390625 48.6875 27.296875 
M 18.109375 46.390625 
Q 20.953125 51.265625 25.265625 53.625 
Q 29.59375 56 35.59375 56 
Q 45.5625 56 51.78125 48.09375 
Q 58.015625 40.1875 58.015625 27.296875 
Q 58.015625 14.40625 51.78125 6.484375 
Q 45.5625 -1.421875 35.59375 -1.421875 
Q 29.59375 -1.421875 25.265625 0.953125 
Q 20.953125 3.328125 18.109375 8.203125 
L 18.109375 0 
L 9.078125 0 
L 9.078125 75.984375 
L 18.109375 75.984375 
z
" id="DejaVuSans-62"/>
    </defs>
    <g transform="translate(74.3712 50.114612)scale(0.1666 -0.1666)">
     <use xlink:href="#DejaVuSans-62"/>
     <use x="63.476562" xlink:href="#DejaVuSans-62"/>
     <use x="126.953125" xlink:href="#DejaVuSans-6f"/>
     <use x="188.134766" xlink:href="#DejaVuSans-62"/>
     <use x="251.611328" xlink:href="#DejaVuSans-20"/>
     <use x="283.398438" xlink:href="#DejaVuSans-2d"/>
     <use x="319.482422" xlink:href="#DejaVuSans-20"/>
     <use x="351.269531" xlink:href="#DejaVuSans-66"/>
     <use x="386.474609" xlink:href="#DejaVuSans-38"/>
    </g>
    <!-- 51 targets in 100..1e-08 -->
    <g transform="translate(74.3712 68.770168)scale(0.1666 -0.1666)">
     <use xlink:href="#DejaVuSans-35"/>
     <use x="63.623047" xlink:href="#DejaVuSans-31"/>
     <use x="127.246094" xlink:href="#DejaVuSans-20"/>
     <use x="159.033203" xlink:href="#DejaVuSans-74"/>
     <use x="198.242188" xlink:href="#DejaVuSans-61"/>
     <use x="259.521484" xlink:href="#DejaVuSans-72"/>
     <use x="300.619141" xlink:href="#DejaVuSans-67"/>
     <use x="364.095703" xlink:href="#DejaVuSans-65"/>
     <use x="425.619141" xlink:href="#DejaVuSans-74"/>
     <use x="464.828125" xlink:href="#DejaVuSans-73"/>
     <use x="516.927734" xlink:href="#DejaVuSans-20"/>
     <use x="548.714844" xlink:href="#DejaVuSans-69"/>
     <use x="576.498047" xlink:href="#DejaVuSans-6e"/>
     <use x="639.876953" xlink:href="#DejaVuSans-20"/>
     <use x="671.664062" xlink:href="#DejaVuSans-31"/>
     <use x="735.287109" xlink:href="#DejaVuSans-30"/>
     <use x="798.910156" xlink:href="#DejaVuSans-30"/>
     <use x="862.533203" xlink:href="#DejaVuSans-2e"/>
     <use x="894.320312" xlink:href="#DejaVuSans-2e"/>
     <use x="926.107422" xlink:href="#DejaVuSans-31"/>
     <use x="989.730469" xlink:href="#DejaVuSans-65"/>
     <use x="1051.253906" xlink:href="#DejaVuSans-2d"/>
     <use x="1087.337891" xlink:href="#DejaVuSans-30"/>
     <use x="1150.960938" xlink:href="#DejaVuSans-38"/>
    </g>
    <!-- 15 instances -->
    <g transform="translate(74.3712 87.425723)scale(0.1666 -0.1666)">
     <use xlink:href="#DejaVuSans-31"/>
     <use x="63.623047" xlink:href="#DejaVuSans-35"/>
     <use x="127.246094" xlink:href="#DejaVuSans-20"/>
     <use x="159.033203" xlink:href="#DejaVuSans-69"/>
     <use x="186.816406" xlink:href="#DejaVuSans-6e"/>
     <use x="250.195312" xlink:href="#DejaVuSans-73"/>
     <use x="302.294922" xlink:href="#DejaVuSans-74"/>
     <use x="341.503906" xlink:href="#DejaVuSans-61"/>
     <use x="402.783203" xlink:href="#DejaVuSans-6e"/>
     <use x="466.162109" xlink:href="#DejaVuSans-63"/>
     <use x="521.142578" xlink:href="#DejaVuSans-65"/>
     <use x="582.666016" xlink:href="#DejaVuSans-73"/>
    </g>
   </g>
   <g id="text_21">
    <!-- v2.1 -->
    <g style="fill:#808080;" transform="translate(238.449063 293.504568)scale(0.1 -0.1)">
     <use xlink:href="#DejaVuSans-76"/>
     <use x="59.179688" xlink:href="#DejaVuSans-32"/>
     <use x="122.802734" xlink:href="#DejaVuSans-2e"/>
     <use x="154.589844" xlink:href="#DejaVuSans-31"/>
    </g>
   </g>
   <g id="text_22">
    <!-- 8 Rosenbrock original -->
    <defs>
     <path d="M 44.390625 34.1875 
Q 47.5625 33.109375 50.5625 29.59375 
Q 53.5625 26.078125 56.59375 19.921875 
L 66.609375 0 
L 56 0 
L 46.6875 18.703125 
Q 43.0625 26.03125 39.671875 28.421875 
Q 36.28125 30.8125 30.421875 30.8125 
L 19.671875 30.8125 
L 19.671875 0 
L 9.8125 0 
L 9.8125 72.90625 
L 32.078125 72.90625 
Q 44.578125 72.90625 50.734375 67.671875 
Q 56.890625 62.453125 56.890625 51.90625 
Q 56.890625 45.015625 53.6875 40.46875 
Q 50.484375 35.9375 44.390625 34.1875 
M 19.671875 64.796875 
L 19.671875 38.921875 
L 32.078125 38.921875 
Q 39.203125 38.921875 42.84375 42.21875 
Q 46.484375 45.515625 46.484375 51.90625 
Q 46.484375 58.296875 42.84375 61.546875 
Q 39.203125 64.796875 32.078125 64.796875 
z
" id="DejaVuSans-52"/>
     <path d="M 9.078125 75.984375 
L 18.109375 75.984375 
L 18.109375 31.109375 
L 44.921875 54.6875 
L 56.390625 54.6875 
L 27.390625 29.109375 
L 57.625 0 
L 45.90625 0 
L 18.109375 26.703125 
L 18.109375 0 
L 9.078125 0 
z
" id="DejaVuSans-6b"/>
    </defs>
    <g transform="translate(118.89375 26.133375)scale(0.24 -0.24)">
     <use xlink:href="#DejaVuSans-38"/>
     <use x="63.623047" xlink:href="#DejaVuSans-20"/>
     <use x="95.410156" xlink:href="#DejaVuSans-52"/>
     <use x="164.830078" xlink:href="#DejaVuSans-6f"/>
     <use x="226.011719" xlink:href="#DejaVuSans-73"/>
     <use x="278.111328" xlink:href="#DejaVuSans-65"/>
     <use x="339.634766" xlink:href="#DejaVuSans-6e"/>
     <use x="403.013672" xlink:href="#DejaVuSans-62"/>
     <use x="466.490234" xlink:href="#DejaVuSans-72"/>
     <use x="507.572266" xlink:href="#DejaVuSans-6f"/>
     <use x="568.753906" xlink:href="#DejaVuSans-63"/>
     <use x="623.734375" xlink:href="#DejaVuSans-6b"/>
     <use x="681.644531" xlink:href="#DejaVuSans-20"/>
     <use x="713.431641" xlink:href="#DejaVuSans-6f"/>
     <use x="774.613281" xlink:href="#DejaVuSans-72"/>
     <use x="815.726562" xlink:href="#DejaVuSans-69"/>
     <use x="843.509766" xlink:href="#DejaVuSans-67"/>
     <use x="906.986328" xlink:href="#DejaVuSans-69"/>
     <use x="934.769531" xlink:href="#DejaVuSans-6e"/>
     <use x="998.148438" xlink:href="#DejaVuSans-61"/>
     <use x="1059.427734" xlink:href="#DejaVuSans-6c"/>
    </g>
   </g>
  </g>
 </g>
 <defs>
  <clipPath id="p343e7d0cc3">
   <rect height="266.112" width="357.12" x="70.8" y="32.133375"/>
  </clipPath>
 </defs>
</svg>
