<?xml version="1.0" encoding="utf-8" standalone="no"?>
<!DOCTYPE svg PUBLIC "-//W3C//DTD SVG 1.1//EN"
  "http://www.w3.org/Graphics/SVG/1.1/DTD/svg11.dtd">
<!-- Created with matplotlib (http://matplotlib.org/) -->
<svg height="353pt" version="1.1" viewBox="0 0 447 353" width="447pt" xmlns="http://www.w3.org/2000/svg" xmlns:xlink="http://www.w3.org/1999/xlink">
 <defs>
  <style type="text/css">
*{stroke-linecap:butt;stroke-linejoin:round;}
  </style>
 </defs>
 <g id="figure_1">
  <g id="patch_1">
   <path d="M 0 353.22225 
L 447.802544 353.22225 
L 447.802544 0 
L 0 0 
z
" style="fill:#ffffff;"/>
  </g>
  <g id="axes_1">
   <g id="patch_2">
    <path d="M 79.113325 298.245375 
L 436.233325 298.245375 
L 436.233325 32.133375 
L 79.113325 32.133375 
z
" style="fill:#ffffff;"/>
   </g>
   <g id="matplotlib.axis_1">
    <g id="xtick_1">
     <g id="line2d_1">
      <path clip-path="url(#pb52b497890)" d="M 79.113325 298.245375 
L 79.113325 32.133375 
" style="fill:none;stroke:#b0b0b0;stroke-linecap:square;stroke-width:0.8;"/>
     </g>
     <g id="line2d_2">
      <defs>
       <path d="M 0 0 
L 0 3.5 
" id="m00c12dc7e8" style="stroke:#000000;stroke-width:0.8;"/>
      </defs>
      <g>
       <use style="stroke:#000000;stroke-width:0.8;" x="79.113325" xlink:href="#m00c12dc7e8" y="298.245375"/>
      </g>
     </g>
     <g id="text_1">
      <!-- 0 -->
      <defs>
       <path d="M 31.78125 66.40625 
Q 24.171875 66.40625 20.328125 58.90625 
Q 16.5 51.421875 16.5 36.375 
Q 16.5 21.390625 20.328125 13.890625 
Q 24.171875 6.390625 31.78125 6.390625 
Q 39.453125 6.390625 43.28125 13.890625 
Q 47.125 21.390625 47.125 36.375 
Q 47.125 51.421875 43.28125 58.90625 
Q 39.453125 66.40625 31.78125 66.40625 
M 31.78125 74.21875 
Q 44.046875 74.21875 50.515625 64.515625 
Q 56.984375 54.828125 56.984375 36.375 
Q 56.984375 17.96875 50.515625 8.265625 
Q 44.046875 -1.421875 31.78125 -1.421875 
Q 19.53125 -1.421875 13.0625 8.265625 
Q 6.59375 17.96875 6.59375 36.375 
Q 6.59375 54.828125 13.0625 64.515625 
Q 19.53125 74.21875 31.78125 74.21875 
" id="DejaVuSans-30"/>
      </defs>
      <g transform="translate(72.750825 320.44225)scale(0.2 -0.2)">
       <use xlink:href="#DejaVuSans-30"/>
      </g>
     </g>
    </g>
    <g id="xtick_2">
     <g id="line2d_3">
      <path clip-path="url(#pb52b497890)" d="M 161.39904 298.245375 
L 161.39904 32.133375 
" style="fill:none;stroke:#b0b0b0;stroke-linecap:square;stroke-width:0.8;"/>
     </g>
     <g id="line2d_4">
      <g>
       <use style="stroke:#000000;stroke-width:0.8;" x="161.39904" xlink:href="#m00c12dc7e8" y="298.245375"/>
      </g>
     </g>
     <g id="text_2">
      <!-- 2 -->
      <defs>
       <path d="M 19.1875 8.296875 
L 53.609375 8.296875 
L 53.609375 0 
L 7.328125 0 
L 7.328125 8.296875 
Q 12.9375 14.109375 22.625 23.890625 
Q 32.328125 33.6875 34.8125 36.53125 
Q 39.546875 41.84375 41.421875 45.53125 
Q 43.3125 49.21875 43.3125 52.78125 
Q 43.3125 58.59375 39.234375 62.25 
Q 35.15625 65.921875 28.609375 65.921875 
Q 23.96875 65.921875 18.8125 64.3125 
Q 13.671875 62.703125 7.8125 59.421875 
L 7.8125 69.390625 
Q 13.765625 71.78125 18.9375 73 
Q 24.125 74.21875 28.421875 74.21875 
Q 39.75 74.21875 46.484375 68.546875 
Q 53.21875 62.890625 53.21875 53.421875 
Q 53.21875 48.921875 51.53125 44.890625 
Q 49.859375 40.875 45.40625 35.40625 
Q 44.1875 33.984375 37.640625 27.21875 
Q 31.109375 20.453125 19.1875 8.296875 
" id="DejaVuSans-32"/>
      </defs>
      <g transform="translate(155.03654 320.44225)scale(0.2 -0.2)">
       <use xlink:href="#DejaVuSans-32"/>
      </g>
     </g>
    </g>
    <g id="xtick_3">
     <g id="line2d_5">
      <path clip-path="url(#pb52b497890)" d="M 243.684754 298.245375 
L 243.684754 32.133375 
" style="fill:none;stroke:#b0b0b0;stroke-linecap:square;stroke-width:0.8;"/>
     </g>
     <g id="line2d_6">
      <g>
       <use style="stroke:#000000;stroke-width:0.8;" x="243.684754" xlink:href="#m00c12dc7e8" y="298.245375"/>
      </g>
     </g>
     <g id="text_3">
      <!-- 4 -->
      <defs>
       <path d="M 37.796875 64.3125 
L 12.890625 25.390625 
L 37.796875 25.390625 
z
M 35.203125 72.90625 
L 47.609375 72.90625 
L 47.609375 25.390625 
L 58.015625 25.390625 
L 58.015625 17.1875 
L 47.609375 17.1875 
L 47.609375 0 
L 37.796875 0 
L 37.796875 17.1875 
L 4.890625 17.1875 
L 4.890625 26.703125 
z
" id="DejaVuSans-34"/>
      </defs>
      <g transform="translate(237.322254 320.44225)scale(0.2 -0.2)">
       <use xlink:href="#DejaVuSans-34"/>
      </g>
     </g>
    </g>
    <g id="xtick_4">
     <g id="line2d_7">
      <path clip-path="url(#pb52b497890)" d="M 325.970468 298.245375 
L 325.970468 32.133375 
" style="fill:none;stroke:#b0b0b0;stroke-linecap:square;stroke-width:0.8;"/>
     </g>
     <g id="line2d_8">
      <g>
       <use style="stroke:#000000;stroke-width:0.8;" x="325.970468" xlink:href="#m00c12dc7e8" y="298.245375"/>
      </g>
     </g>
     <g id="text_4">
      <!-- 6 -->
      <defs>
       <path d="M 33.015625 40.375 
Q 26.375 40.375 22.484375 35.828125 
Q 18.609375 31.296875 18.609375 23.390625 
Q 18.609375 15.53125 22.484375 10.953125 
Q 26.375 6.390625 33.015625 6.390625 
Q 39.65625 6.390625 43.53125 10.953125 
Q 47.40625 15.53125 47.40625 23.390625 
Q 47.40625 31.296875 43.53125 35.828125 
Q 39.65625 40.375 33.015625 40.375 
M 52.59375 71.296875 
L 52.59375 62.3125 
Q 48.875 64.0625 45.09375 64.984375 
Q 41.3125 65.921875 37.59375 65.921875 
Q 27.828125 65.921875 22.671875 59.328125 
Q 17.53125 52.734375 16.796875 39.40625 
Q 19.671875 43.65625 24.015625 45.921875 
Q 28.375 48.1875 33.59375 48.1875 
Q 44.578125 48.1875 50.953125 41.515625 
Q 57.328125 34.859375 57.328125 23.390625 
Q 57.328125 12.15625 50.6875 5.359375 
Q 44.046875 -1.421875 33.015625 -1.421875 
Q 20.359375 -1.421875 13.671875 8.265625 
Q 6.984375 17.96875 6.984375 36.375 
Q 6.984375 53.65625 15.1875 63.9375 
Q 23.390625 74.21875 37.203125 74.21875 
Q 40.921875 74.21875 44.703125 73.484375 
Q 48.484375 72.75 52.59375 71.296875 
" id="DejaVuSans-36"/>
      </defs>
      <g transform="translate(319.607968 320.44225)scale(0.2 -0.2)">
       <use xlink:href="#DejaVuSans-36"/>
      </g>
     </g>
    </g>
    <g id="xtick_5">
     <g id="line2d_9">
      <path clip-path="url(#pb52b497890)" d="M 408.256183 298.245375 
L 408.256183 32.133375 
" style="fill:none;stroke:#b0b0b0;stroke-linecap:square;stroke-width:0.8;"/>
     </g>
     <g id="line2d_10">
      <g>
       <use style="stroke:#000000;stroke-width:0.8;" x="408.256183" xlink:href="#m00c12dc7e8" y="298.245375"/>
      </g>
     </g>
     <g id="text_5">
      <!-- 8 -->
      <defs>
       <path d="M 31.78125 34.625 
Q 24.75 34.625 20.71875 30.859375 
Q 16.703125 27.09375 16.703125 20.515625 
Q 16.703125 13.921875 20.71875 10.15625 
Q 24.75 6.390625 31.78125 6.390625 
Q 38.8125 6.390625 42.859375 10.171875 
Q 46.921875 13.96875 46.921875 20.515625 
Q 46.921875 27.09375 42.890625 30.859375 
Q 38.875 34.625 31.78125 34.625 
M 21.921875 38.8125 
Q 15.578125 40.375 12.03125 44.71875 
Q 8.5 49.078125 8.5 55.328125 
Q 8.5 64.0625 14.71875 69.140625 
Q 20.953125 74.21875 31.78125 74.21875 
Q 42.671875 74.21875 48.875 69.140625 
Q 55.078125 64.0625 55.078125 55.328125 
Q 55.078125 49.078125 51.53125 44.71875 
Q 48 40.375 41.703125 38.8125 
Q 48.828125 37.15625 52.796875 32.3125 
Q 56.78125 27.484375 56.78125 20.515625 
Q 56.78125 9.90625 50.3125 4.234375 
Q 43.84375 -1.421875 31.78125 -1.421875 
Q 19.734375 -1.421875 13.25 4.234375 
Q 6.78125 9.90625 6.78125 20.515625 
Q 6.78125 27.484375 10.78125 32.3125 
Q 14.796875 37.15625 21.921875 38.8125 
M 18.3125 54.390625 
Q 18.3125 48.734375 21.84375 45.5625 
Q 25.390625 42.390625 31.78125 42.390625 
Q 38.140625 42.390625 41.71875 45.5625 
Q 45.3125 48.734375 45.3125 54.390625 
Q 45.3125 60.0625 41.71875 63.234375 
Q 38.140625 66.40625 31.78125 66.40625 
Q 25.390625 66.40625 21.84375 63.234375 
Q 18.3125 60.0625 18.3125 54.390625 
" id="DejaVuSans-38"/>
      </defs>
      <g transform="translate(401.893683 320.44225)scale(0.2 -0.2)">
       <use xlink:href="#DejaVuSans-38"/>
      </g>
     </g>
    </g>
    <g id="xtick_6">
     <g id="line2d_11">
      <defs>
       <path d="M 0 0 
L 0 2 
" id="m45ae41a7e6" style="stroke:#000000;stroke-width:0.6;"/>
      </defs>
      <g>
       <use style="stroke:#000000;stroke-width:0.6;" x="91.498559" xlink:href="#m45ae41a7e6" y="298.245375"/>
      </g>
     </g>
    </g>
    <g id="xtick_7">
     <g id="line2d_12">
      <g>
       <use style="stroke:#000000;stroke-width:0.6;" x="103.883794" xlink:href="#m45ae41a7e6" y="298.245375"/>
      </g>
     </g>
    </g>
    <g id="xtick_8">
     <g id="line2d_13">
      <g>
       <use style="stroke:#000000;stroke-width:0.6;" x="111.128691" xlink:href="#m45ae41a7e6" y="298.245375"/>
      </g>
     </g>
    </g>
    <g id="xtick_9">
     <g id="line2d_14">
      <g>
       <use style="stroke:#000000;stroke-width:0.6;" x="116.269028" xlink:href="#m45ae41a7e6" y="298.245375"/>
      </g>
     </g>
    </g>
    <g id="xtick_10">
     <g id="line2d_15">
      <g>
       <use style="stroke:#000000;stroke-width:0.6;" x="173.784274" xlink:href="#m45ae41a7e6" y="298.245375"/>
      </g>
     </g>
    </g>
    <g id="xtick_11">
     <g id="line2d_16">
      <g>
       <use style="stroke:#000000;stroke-width:0.6;" x="186.169508" xlink:href="#m45ae41a7e6" y="298.245375"/>
      </g>
     </g>
    </g>
    <g id="xtick_12">
     <g id="line2d_17">
      <g>
       <use style="stroke:#000000;stroke-width:0.6;" x="193.414405" xlink:href="#m45ae41a7e6" y="298.245375"/>
      </g>
     </g>
    </g>
    <g id="xtick_13">
     <g id="line2d_18">
      <g>
       <use style="stroke:#000000;stroke-width:0.6;" x="198.554742" xlink:href="#m45ae41a7e6" y="298.245375"/>
      </g>
     </g>
    </g>
    <g id="xtick_14">
     <g id="line2d_19">
      <g>
       <use style="stroke:#000000;stroke-width:0.6;" x="256.069988" xlink:href="#m45ae41a7e6" y="298.245375"/>
      </g>
     </g>
    </g>
    <g id="xtick_15">
     <g id="line2d_20">
      <g>
       <use style="stroke:#000000;stroke-width:0.6;" x="268.455222" xlink:href="#m45ae41a7e6" y="298.245375"/>
      </g>
     </g>
    </g>
    <g id="xtick_16">
     <g id="line2d_21">
      <g>
       <use style="stroke:#000000;stroke-width:0.6;" x="275.70012" xlink:href="#m45ae41a7e6" y="298.245375"/>
      </g>
     </g>
    </g>
    <g id="xtick_17">
     <g id="line2d_22">
      <g>
       <use style="stroke:#000000;stroke-width:0.6;" x="280.840456" xlink:href="#m45ae41a7e6" y="298.245375"/>
      </g>
     </g>
    </g>
    <g id="xtick_18">
     <g id="line2d_23">
      <g>
       <use style="stroke:#000000;stroke-width:0.6;" x="338.355702" xlink:href="#m45ae41a7e6" y="298.245375"/>
      </g>
     </g>
    </g>
    <g id="xtick_19">
     <g id="line2d_24">
      <g>
       <use style="stroke:#000000;stroke-width:0.6;" x="350.740936" xlink:href="#m45ae41a7e6" y="298.245375"/>
      </g>
     </g>
    </g>
    <g id="xtick_20">
     <g id="line2d_25">
      <g>
       <use style="stroke:#000000;stroke-width:0.6;" x="357.985834" xlink:href="#m45ae41a7e6" y="298.245375"/>
      </g>
     </g>
    </g>
    <g id="xtick_21">
     <g id="line2d_26">
      <g>
       <use style="stroke:#000000;stroke-width:0.6;" x="363.126171" xlink:href="#m45ae41a7e6" y="298.245375"/>
      </g>
     </g>
    </g>
    <g id="xtick_22">
     <g id="line2d_27">
      <g>
       <use style="stroke:#000000;stroke-width:0.6;" x="420.641417" xlink:href="#m45ae41a7e6" y="298.245375"/>
      </g>
     </g>
    </g>
    <g id="xtick_23">
     <g id="line2d_28">
      <g>
       <use style="stroke:#000000;stroke-width:0.6;" x="433.026651" xlink:href="#m45ae41a7e6" y="298.245375"/>
      </g>
     </g>
    </g>
    <g id="text_6">
     <!-- log10 of (# f-evals / dimension) -->
     <defs>
      <path d="M 9.421875 75.984375 
L 18.40625 75.984375 
L 18.40625 0 
L 9.421875 0 
z
" id="DejaVuSans-6c"/>
      <path d="M 30.609375 48.390625 
Q 23.390625 48.390625 19.1875 42.75 
Q 14.984375 37.109375 14.984375 27.296875 
Q 14.984375 17.484375 19.15625 11.84375 
Q 23.34375 6.203125 30.609375 6.203125 
Q 37.796875 6.203125 41.984375 11.859375 
Q 46.1875 17.53125 46.1875 27.296875 
Q 46.1875 37.015625 41.984375 42.703125 
Q 37.796875 48.390625 30.609375 48.390625 
M 30.609375 56 
Q 42.328125 56 49.015625 48.375 
Q 55.71875 40.765625 55.71875 27.296875 
Q 55.71875 13.875 49.015625 6.21875 
Q 42.328125 -1.421875 30.609375 -1.421875 
Q 18.84375 -1.421875 12.171875 6.21875 
Q 5.515625 13.875 5.515625 27.296875 
Q 5.515625 40.765625 12.171875 48.375 
Q 18.84375 56 30.609375 56 
" id="DejaVuSans-6f"/>
      <path d="M 45.40625 27.984375 
Q 45.40625 37.75 41.375 43.109375 
Q 37.359375 48.484375 30.078125 48.484375 
Q 22.859375 48.484375 18.828125 43.109375 
Q 14.796875 37.75 14.796875 27.984375 
Q 14.796875 18.265625 18.828125 12.890625 
Q 22.859375 7.515625 30.078125 7.515625 
Q 37.359375 7.515625 41.375 12.890625 
Q 45.40625 18.265625 45.40625 27.984375 
M 54.390625 6.78125 
Q 54.390625 -7.171875 48.1875 -13.984375 
Q 42 -20.796875 29.203125 -20.796875 
Q 24.46875 -20.796875 20.265625 -20.09375 
Q 16.0625 -19.390625 12.109375 -17.921875 
L 12.109375 -9.1875 
Q 16.0625 -11.328125 19.921875 -12.34375 
Q 23.78125 -13.375 27.78125 -13.375 
Q 36.625 -13.375 41.015625 -8.765625 
Q 45.40625 -4.15625 45.40625 5.171875 
L 45.40625 9.625 
Q 42.625 4.78125 38.28125 2.390625 
Q 33.9375 0 27.875 0 
Q 17.828125 0 11.671875 7.65625 
Q 5.515625 15.328125 5.515625 27.984375 
Q 5.515625 40.671875 11.671875 48.328125 
Q 17.828125 56 27.875 56 
Q 33.9375 56 38.28125 53.609375 
Q 42.625 51.21875 45.40625 46.390625 
L 45.40625 54.6875 
L 54.390625 54.6875 
z
" id="DejaVuSans-67"/>
      <path d="M 12.40625 8.296875 
L 28.515625 8.296875 
L 28.515625 63.921875 
L 10.984375 60.40625 
L 10.984375 69.390625 
L 28.421875 72.90625 
L 38.28125 72.90625 
L 38.28125 8.296875 
L 54.390625 8.296875 
L 54.390625 0 
L 12.40625 0 
z
" id="DejaVuSans-31"/>
      <path id="DejaVuSans-20"/>
      <path d="M 37.109375 75.984375 
L 37.109375 68.5 
L 28.515625 68.5 
Q 23.6875 68.5 21.796875 66.546875 
Q 19.921875 64.59375 19.921875 59.515625 
L 19.921875 54.6875 
L 34.71875 54.6875 
L 34.71875 47.703125 
L 19.921875 47.703125 
L 19.921875 0 
L 10.890625 0 
L 10.890625 47.703125 
L 2.296875 47.703125 
L 2.296875 54.6875 
L 10.890625 54.6875 
L 10.890625 58.5 
Q 10.890625 67.625 15.140625 71.796875 
Q 19.390625 75.984375 28.609375 75.984375 
z
" id="DejaVuSans-66"/>
      <path d="M 31 75.875 
Q 24.46875 64.65625 21.28125 53.65625 
Q 18.109375 42.671875 18.109375 31.390625 
Q 18.109375 20.125 21.3125 9.0625 
Q 24.515625 -2 31 -13.1875 
L 23.1875 -13.1875 
Q 15.875 -1.703125 12.234375 9.375 
Q 8.59375 20.453125 8.59375 31.390625 
Q 8.59375 42.28125 12.203125 53.3125 
Q 15.828125 64.359375 23.1875 75.875 
z
" id="DejaVuSans-28"/>
      <path d="M 51.125 44 
L 36.921875 44 
L 32.8125 27.6875 
L 47.125 27.6875 
z
M 43.796875 71.78125 
L 38.71875 51.515625 
L 52.984375 51.515625 
L 58.109375 71.78125 
L 65.921875 71.78125 
L 60.890625 51.515625 
L 76.125 51.515625 
L 76.125 44 
L 58.984375 44 
L 54.984375 27.6875 
L 70.515625 27.6875 
L 70.515625 20.21875 
L 53.078125 20.21875 
L 48 0 
L 40.1875 0 
L 45.21875 20.21875 
L 30.90625 20.21875 
L 25.875 0 
L 18.015625 0 
L 23.09375 20.21875 
L 7.71875 20.21875 
L 7.71875 27.6875 
L 24.90625 27.6875 
L 29 44 
L 13.28125 44 
L 13.28125 51.515625 
L 30.90625 51.515625 
L 35.890625 71.78125 
z
" id="DejaVuSans-23"/>
      <path d="M 4.890625 31.390625 
L 31.203125 31.390625 
L 31.203125 23.390625 
L 4.890625 23.390625 
z
" id="DejaVuSans-2d"/>
      <path d="M 56.203125 29.59375 
L 56.203125 25.203125 
L 14.890625 25.203125 
Q 15.484375 15.921875 20.484375 11.0625 
Q 25.484375 6.203125 34.421875 6.203125 
Q 39.59375 6.203125 44.453125 7.46875 
Q 49.3125 8.734375 54.109375 11.28125 
L 54.109375 2.78125 
Q 49.265625 0.734375 44.1875 -0.34375 
Q 39.109375 -1.421875 33.890625 -1.421875 
Q 20.796875 -1.421875 13.15625 6.1875 
Q 5.515625 13.8125 5.515625 26.8125 
Q 5.515625 40.234375 12.765625 48.109375 
Q 20.015625 56 32.328125 56 
Q 43.359375 56 49.78125 48.890625 
Q 56.203125 41.796875 56.203125 29.59375 
M 47.21875 32.234375 
Q 47.125 39.59375 43.09375 43.984375 
Q 39.0625 48.390625 32.421875 48.390625 
Q 24.90625 48.390625 20.390625 44.140625 
Q 15.875 39.890625 15.1875 32.171875 
z
" id="DejaVuSans-65"/>
      <path d="M 2.984375 54.6875 
L 12.5 54.6875 
L 29.59375 8.796875 
L 46.6875 54.6875 
L 56.203125 54.6875 
L 35.6875 0 
L 23.484375 0 
z
" id="DejaVuSans-76"/>
      <path d="M 34.28125 27.484375 
Q 23.390625 27.484375 19.1875 25 
Q 14.984375 22.515625 14.984375 16.5 
Q 14.984375 11.71875 18.140625 8.90625 
Q 21.296875 6.109375 26.703125 6.109375 
Q 34.1875 6.109375 38.703125 11.40625 
Q 43.21875 16.703125 43.21875 25.484375 
L 43.21875 27.484375 
z
M 52.203125 31.203125 
L 52.203125 0 
L 43.21875 0 
L 43.21875 8.296875 
Q 40.140625 3.328125 35.546875 0.953125 
Q 30.953125 -1.421875 24.3125 -1.421875 
Q 15.921875 -1.421875 10.953125 3.296875 
Q 6 8.015625 6 15.921875 
Q 6 25.140625 12.171875 29.828125 
Q 18.359375 34.515625 30.609375 34.515625 
L 43.21875 34.515625 
L 43.21875 35.40625 
Q 43.21875 41.609375 39.140625 45 
Q 35.0625 48.390625 27.6875 48.390625 
Q 23 48.390625 18.546875 47.265625 
Q 14.109375 46.140625 10.015625 43.890625 
L 10.015625 52.203125 
Q 14.9375 54.109375 19.578125 55.046875 
Q 24.21875 56 28.609375 56 
Q 40.484375 56 46.34375 49.84375 
Q 52.203125 43.703125 52.203125 31.203125 
" id="DejaVuSans-61"/>
      <path d="M 44.28125 53.078125 
L 44.28125 44.578125 
Q 40.484375 46.53125 36.375 47.5 
Q 32.28125 48.484375 27.875 48.484375 
Q 21.1875 48.484375 17.84375 46.4375 
Q 14.5 44.390625 14.5 40.28125 
Q 14.5 37.15625 16.890625 35.375 
Q 19.28125 33.59375 26.515625 31.984375 
L 29.59375 31.296875 
Q 39.15625 29.25 43.1875 25.515625 
Q 47.21875 21.78125 47.21875 15.09375 
Q 47.21875 7.46875 41.1875 3.015625 
Q 35.15625 -1.421875 24.609375 -1.421875 
Q 20.21875 -1.421875 15.453125 -0.5625 
Q 10.6875 0.296875 5.421875 2 
L 5.421875 11.28125 
Q 10.40625 8.6875 15.234375 7.390625 
Q 20.0625 6.109375 24.8125 6.109375 
Q 31.15625 6.109375 34.5625 8.28125 
Q 37.984375 10.453125 37.984375 14.40625 
Q 37.984375 18.0625 35.515625 20.015625 
Q 33.0625 21.96875 24.703125 23.78125 
L 21.578125 24.515625 
Q 13.234375 26.265625 9.515625 29.90625 
Q 5.8125 33.546875 5.8125 39.890625 
Q 5.8125 47.609375 11.28125 51.796875 
Q 16.75 56 26.8125 56 
Q 31.78125 56 36.171875 55.265625 
Q 40.578125 54.546875 44.28125 53.078125 
" id="DejaVuSans-73"/>
      <path d="M 25.390625 72.90625 
L 33.6875 72.90625 
L 8.296875 -9.28125 
L 0 -9.28125 
z
" id="DejaVuSans-2f"/>
      <path d="M 45.40625 46.390625 
L 45.40625 75.984375 
L 54.390625 75.984375 
L 54.390625 0 
L 45.40625 0 
L 45.40625 8.203125 
Q 42.578125 3.328125 38.25 0.953125 
Q 33.9375 -1.421875 27.875 -1.421875 
Q 17.96875 -1.421875 11.734375 6.484375 
Q 5.515625 14.40625 5.515625 27.296875 
Q 5.515625 40.1875 11.734375 48.09375 
Q 17.96875 56 27.875 56 
Q 33.9375 56 38.25 53.625 
Q 42.578125 51.265625 45.40625 46.390625 
M 14.796875 27.296875 
Q 14.796875 17.390625 18.875 11.75 
Q 22.953125 6.109375 30.078125 6.109375 
Q 37.203125 6.109375 41.296875 11.75 
Q 45.40625 17.390625 45.40625 27.296875 
Q 45.40625 37.203125 41.296875 42.84375 
Q 37.203125 48.484375 30.078125 48.484375 
Q 22.953125 48.484375 18.875 42.84375 
Q 14.796875 37.203125 14.796875 27.296875 
" id="DejaVuSans-64"/>
      <path d="M 9.421875 54.6875 
L 18.40625 54.6875 
L 18.40625 0 
L 9.421875 0 
z
M 9.421875 75.984375 
L 18.40625 75.984375 
L 18.40625 64.59375 
L 9.421875 64.59375 
z
" id="DejaVuSans-69"/>
      <path d="M 52 44.1875 
Q 55.375 50.25 60.0625 53.125 
Q 64.75 56 71.09375 56 
Q 79.640625 56 84.28125 50.015625 
Q 88.921875 44.046875 88.921875 33.015625 
L 88.921875 0 
L 79.890625 0 
L 79.890625 32.71875 
Q 79.890625 40.578125 77.09375 44.375 
Q 74.3125 48.1875 68.609375 48.1875 
Q 61.625 48.1875 57.5625 43.546875 
Q 53.515625 38.921875 53.515625 30.90625 
L 53.515625 0 
L 44.484375 0 
L 44.484375 32.71875 
Q 44.484375 40.625 41.703125 44.40625 
Q 38.921875 48.1875 33.109375 48.1875 
Q 26.21875 48.1875 22.15625 43.53125 
Q 18.109375 38.875 18.109375 30.90625 
L 18.109375 0 
L 9.078125 0 
L 9.078125 54.6875 
L 18.109375 54.6875 
L 18.109375 46.1875 
Q 21.1875 51.21875 25.484375 53.609375 
Q 29.78125 56 35.6875 56 
Q 41.65625 56 45.828125 52.96875 
Q 50 49.953125 52 44.1875 
" id="DejaVuSans-6d"/>
      <path d="M 54.890625 33.015625 
L 54.890625 0 
L 45.90625 0 
L 45.90625 32.71875 
Q 45.90625 40.484375 42.875 44.328125 
Q 39.84375 48.1875 33.796875 48.1875 
Q 26.515625 48.1875 22.3125 43.546875 
Q 18.109375 38.921875 18.109375 30.90625 
L 18.109375 0 
L 9.078125 0 
L 9.078125 54.6875 
L 18.109375 54.6875 
L 18.109375 46.1875 
Q 21.34375 51.125 25.703125 53.5625 
Q 30.078125 56 35.796875 56 
Q 45.21875 56 50.046875 50.171875 
Q 54.890625 44.34375 54.890625 33.015625 
" id="DejaVuSans-6e"/>
      <path d="M 8.015625 75.875 
L 15.828125 75.875 
Q 23.140625 64.359375 26.78125 53.3125 
Q 30.421875 42.28125 30.421875 31.390625 
Q 30.421875 20.453125 26.78125 9.375 
Q 23.140625 -1.703125 15.828125 -13.1875 
L 8.015625 -13.1875 
Q 14.5 -2 17.703125 9.0625 
Q 20.90625 20.125 20.90625 31.390625 
Q 20.90625 42.671875 17.703125 53.65625 
Q 14.5 64.65625 8.015625 75.875 
" id="DejaVuSans-29"/>
     </defs>
     <g transform="translate(115.328482 342.278812)scale(0.18 -0.18)">
      <use xlink:href="#DejaVuSans-6c"/>
      <use x="27.783203" xlink:href="#DejaVuSans-6f"/>
      <use x="88.964844" xlink:href="#DejaVuSans-67"/>
      <use x="152.441406" xlink:href="#DejaVuSans-31"/>
      <use x="216.064453" xlink:href="#DejaVuSans-30"/>
      <use x="279.6875" xlink:href="#DejaVuSans-20"/>
      <use x="311.474609" xlink:href="#DejaVuSans-6f"/>
      <use x="372.65625" xlink:href="#DejaVuSans-66"/>
      <use x="407.861328" xlink:href="#DejaVuSans-20"/>
      <use x="439.648438" xlink:href="#DejaVuSans-28"/>
      <use x="478.662109" xlink:href="#DejaVuSans-23"/>
      <use x="562.451172" xlink:href="#DejaVuSans-20"/>
      <use x="594.238281" xlink:href="#DejaVuSans-66"/>
      <use x="629.365234" xlink:href="#DejaVuSans-2d"/>
      <use x="665.449219" xlink:href="#DejaVuSans-65"/>
      <use x="726.972656" xlink:href="#DejaVuSans-76"/>
      <use x="786.152344" xlink:href="#DejaVuSans-61"/>
      <use x="847.431641" xlink:href="#DejaVuSans-6c"/>
      <use x="875.214844" xlink:href="#DejaVuSans-73"/>
      <use x="927.314453" xlink:href="#DejaVuSans-20"/>
      <use x="959.101562" xlink:href="#DejaVuSans-2f"/>
      <use x="992.792969" xlink:href="#DejaVuSans-20"/>
      <use x="1024.580078" xlink:href="#DejaVuSans-64"/>
      <use x="1088.056641" xlink:href="#DejaVuSans-69"/>
      <use x="1115.839844" xlink:href="#DejaVuSans-6d"/>
      <use x="1213.251953" xlink:href="#DejaVuSans-65"/>
      <use x="1274.775391" xlink:href="#DejaVuSans-6e"/>
      <use x="1338.154297" xlink:href="#DejaVuSans-73"/>
      <use x="1390.253906" xlink:href="#DejaVuSans-69"/>
      <use x="1418.037109" xlink:href="#DejaVuSans-6f"/>
      <use x="1479.21875" xlink:href="#DejaVuSans-6e"/>
      <use x="1542.597656" xlink:href="#DejaVuSans-29"/>
     </g>
    </g>
   </g>
   <g id="matplotlib.axis_2">
    <g id="ytick_1">
     <g id="line2d_29">
      <path clip-path="url(#pb52b497890)" d="M 79.113325 298.245375 
L 436.233325 298.245375 
" style="fill:none;stroke:#b0b0b0;stroke-linecap:square;stroke-width:0.8;"/>
     </g>
     <g id="line2d_30">
      <defs>
       <path d="M 0 0 
L -3.5 0 
" id="me9e07cdfd3" style="stroke:#000000;stroke-width:0.8;"/>
      </defs>
      <g>
       <use style="stroke:#000000;stroke-width:0.8;" x="79.113325" xlink:href="#me9e07cdfd3" y="298.245375"/>
      </g>
     </g>
     <g id="text_7">
      <!-- 0.0 -->
      <defs>
       <path d="M 10.6875 12.40625 
L 21 12.40625 
L 21 0 
L 10.6875 0 
z
" id="DejaVuSans-2e"/>
      </defs>
      <g transform="translate(40.307075 305.843812)scale(0.2 -0.2)">
       <use xlink:href="#DejaVuSans-30"/>
       <use x="63.623047" xlink:href="#DejaVuSans-2e"/>
       <use x="95.410156" xlink:href="#DejaVuSans-30"/>
      </g>
     </g>
    </g>
    <g id="ytick_2">
     <g id="line2d_31">
      <path clip-path="url(#pb52b497890)" d="M 79.113325 245.549929 
L 436.233325 245.549929 
" style="fill:none;stroke:#b0b0b0;stroke-linecap:square;stroke-width:0.8;"/>
     </g>
     <g id="line2d_32">
      <g>
       <use style="stroke:#000000;stroke-width:0.8;" x="79.113325" xlink:href="#me9e07cdfd3" y="245.549929"/>
      </g>
     </g>
     <g id="text_8">
      <!-- 0.2 -->
      <g transform="translate(40.307075 253.148367)scale(0.2 -0.2)">
       <use xlink:href="#DejaVuSans-30"/>
       <use x="63.623047" xlink:href="#DejaVuSans-2e"/>
       <use x="95.410156" xlink:href="#DejaVuSans-32"/>
      </g>
     </g>
    </g>
    <g id="ytick_3">
     <g id="line2d_33">
      <path clip-path="url(#pb52b497890)" d="M 79.113325 192.854484 
L 436.233325 192.854484 
" style="fill:none;stroke:#b0b0b0;stroke-linecap:square;stroke-width:0.8;"/>
     </g>
     <g id="line2d_34">
      <g>
       <use style="stroke:#000000;stroke-width:0.8;" x="79.113325" xlink:href="#me9e07cdfd3" y="192.854484"/>
      </g>
     </g>
     <g id="text_9">
      <!-- 0.4 -->
      <g transform="translate(40.307075 200.452921)scale(0.2 -0.2)">
       <use xlink:href="#DejaVuSans-30"/>
       <use x="63.623047" xlink:href="#DejaVuSans-2e"/>
       <use x="95.410156" xlink:href="#DejaVuSans-34"/>
      </g>
     </g>
    </g>
    <g id="ytick_4">
     <g id="line2d_35">
      <path clip-path="url(#pb52b497890)" d="M 79.113325 140.159038 
L 436.233325 140.159038 
" style="fill:none;stroke:#b0b0b0;stroke-linecap:square;stroke-width:0.8;"/>
     </g>
     <g id="line2d_36">
      <g>
       <use style="stroke:#000000;stroke-width:0.8;" x="79.113325" xlink:href="#me9e07cdfd3" y="140.159038"/>
      </g>
     </g>
     <g id="text_10">
      <!-- 0.6 -->
      <g transform="translate(40.307075 147.757476)scale(0.2 -0.2)">
       <use xlink:href="#DejaVuSans-30"/>
       <use x="63.623047" xlink:href="#DejaVuSans-2e"/>
       <use x="95.410156" xlink:href="#DejaVuSans-36"/>
      </g>
     </g>
    </g>
    <g id="ytick_5">
     <g id="line2d_37">
      <path clip-path="url(#pb52b497890)" d="M 79.113325 87.463593 
L 436.233325 87.463593 
" style="fill:none;stroke:#b0b0b0;stroke-linecap:square;stroke-width:0.8;"/>
     </g>
     <g id="line2d_38">
      <g>
       <use style="stroke:#000000;stroke-width:0.8;" x="79.113325" xlink:href="#me9e07cdfd3" y="87.463593"/>
      </g>
     </g>
     <g id="text_11">
      <!-- 0.8 -->
      <g transform="translate(40.307075 95.06203)scale(0.2 -0.2)">
       <use xlink:href="#DejaVuSans-30"/>
       <use x="63.623047" xlink:href="#DejaVuSans-2e"/>
       <use x="95.410156" xlink:href="#DejaVuSans-38"/>
      </g>
     </g>
    </g>
    <g id="ytick_6">
     <g id="line2d_39">
      <path clip-path="url(#pb52b497890)" d="M 79.113325 34.768147 
L 436.233325 34.768147 
" style="fill:none;stroke:#b0b0b0;stroke-linecap:square;stroke-width:0.8;"/>
     </g>
     <g id="line2d_40">
      <g>
       <use style="stroke:#000000;stroke-width:0.8;" x="79.113325" xlink:href="#me9e07cdfd3" y="34.768147"/>
      </g>
     </g>
     <g id="text_12">
      <!-- 1.0 -->
      <g transform="translate(40.307075 42.366585)scale(0.2 -0.2)">
       <use xlink:href="#DejaVuSans-31"/>
       <use x="63.623047" xlink:href="#DejaVuSans-2e"/>
       <use x="95.410156" xlink:href="#DejaVuSans-30"/>
      </g>
     </g>
    </g>
    <g id="text_13">
     <!-- Proportion of function+target pairs -->
     <defs>
      <path d="M 19.671875 64.796875 
L 19.671875 37.40625 
L 32.078125 37.40625 
Q 38.96875 37.40625 42.71875 40.96875 
Q 46.484375 44.53125 46.484375 51.125 
Q 46.484375 57.671875 42.71875 61.234375 
Q 38.96875 64.796875 32.078125 64.796875 
z
M 9.8125 72.90625 
L 32.078125 72.90625 
Q 44.34375 72.90625 50.609375 67.359375 
Q 56.890625 61.8125 56.890625 51.125 
Q 56.890625 40.328125 50.609375 34.8125 
Q 44.34375 29.296875 32.078125 29.296875 
L 19.671875 29.296875 
L 19.671875 0 
L 9.8125 0 
z
" id="DejaVuSans-50"/>
      <path d="M 41.109375 46.296875 
Q 39.59375 47.171875 37.8125 47.578125 
Q 36.03125 48 33.890625 48 
Q 26.265625 48 22.1875 43.046875 
Q 18.109375 38.09375 18.109375 28.8125 
L 18.109375 0 
L 9.078125 0 
L 9.078125 54.6875 
L 18.109375 54.6875 
L 18.109375 46.1875 
Q 20.953125 51.171875 25.484375 53.578125 
Q 30.03125 56 36.53125 56 
Q 37.453125 56 38.578125 55.875 
Q 39.703125 55.765625 41.0625 55.515625 
z
" id="DejaVuSans-72"/>
      <path d="M 18.109375 8.203125 
L 18.109375 -20.796875 
L 9.078125 -20.796875 
L 9.078125 54.6875 
L 18.109375 54.6875 
L 18.109375 46.390625 
Q 20.953125 51.265625 25.265625 53.625 
Q 29.59375 56 35.59375 56 
Q 45.5625 56 51.78125 48.09375 
Q 58.015625 40.1875 58.015625 27.296875 
Q 58.015625 14.40625 51.78125 6.484375 
Q 45.5625 -1.421875 35.59375 -1.421875 
Q 29.59375 -1.421875 25.265625 0.953125 
Q 20.953125 3.328125 18.109375 8.203125 
M 48.6875 27.296875 
Q 48.6875 37.203125 44.609375 42.84375 
Q 40.53125 48.484375 33.40625 48.484375 
Q 26.265625 48.484375 22.1875 42.84375 
Q 18.109375 37.203125 18.109375 27.296875 
Q 18.109375 17.390625 22.1875 11.75 
Q 26.265625 6.109375 33.40625 6.109375 
Q 40.53125 6.109375 44.609375 11.75 
Q 48.6875 17.390625 48.6875 27.296875 
" id="DejaVuSans-70"/>
      <path d="M 18.3125 70.21875 
L 18.3125 54.6875 
L 36.8125 54.6875 
L 36.8125 47.703125 
L 18.3125 47.703125 
L 18.3125 18.015625 
Q 18.3125 11.328125 20.140625 9.421875 
Q 21.96875 7.515625 27.59375 7.515625 
L 36.8125 7.515625 
L 36.8125 0 
L 27.59375 0 
Q 17.1875 0 13.234375 3.875 
Q 9.28125 7.765625 9.28125 18.015625 
L 9.28125 47.703125 
L 2.6875 47.703125 
L 2.6875 54.6875 
L 9.28125 54.6875 
L 9.28125 70.21875 
z
" id="DejaVuSans-74"/>
      <path d="M 8.5 21.578125 
L 8.5 54.6875 
L 17.484375 54.6875 
L 17.484375 21.921875 
Q 17.484375 14.15625 20.5 10.265625 
Q 23.53125 6.390625 29.59375 6.390625 
Q 36.859375 6.390625 41.078125 11.03125 
Q 45.3125 15.671875 45.3125 23.6875 
L 45.3125 54.6875 
L 54.296875 54.6875 
L 54.296875 0 
L 45.3125 0 
L 45.3125 8.40625 
Q 42.046875 3.421875 37.71875 1 
Q 33.40625 -1.421875 27.6875 -1.421875 
Q 18.265625 -1.421875 13.375 4.4375 
Q 8.5 10.296875 8.5 21.578125 
M 31.109375 56 
z
" id="DejaVuSans-75"/>
      <path d="M 48.78125 52.59375 
L 48.78125 44.1875 
Q 44.96875 46.296875 41.140625 47.34375 
Q 37.3125 48.390625 33.40625 48.390625 
Q 24.65625 48.390625 19.8125 42.84375 
Q 14.984375 37.3125 14.984375 27.296875 
Q 14.984375 17.28125 19.8125 11.734375 
Q 24.65625 6.203125 33.40625 6.203125 
Q 37.3125 6.203125 41.140625 7.25 
Q 44.96875 8.296875 48.78125 10.40625 
L 48.78125 2.09375 
Q 45.015625 0.34375 40.984375 -0.53125 
Q 36.96875 -1.421875 32.421875 -1.421875 
Q 20.0625 -1.421875 12.78125 6.34375 
Q 5.515625 14.109375 5.515625 27.296875 
Q 5.515625 40.671875 12.859375 48.328125 
Q 20.21875 56 33.015625 56 
Q 37.15625 56 41.109375 55.140625 
Q 45.0625 54.296875 48.78125 52.59375 
" id="DejaVuSans-63"/>
      <path d="M 46 62.703125 
L 46 35.5 
L 73.1875 35.5 
L 73.1875 27.203125 
L 46 27.203125 
L 46 0 
L 37.796875 0 
L 37.796875 27.203125 
L 10.59375 27.203125 
L 10.59375 35.5 
L 37.796875 35.5 
L 37.796875 62.703125 
z
" id="DejaVuSans-2b"/>
     </defs>
     <g transform="translate(32.563638 323.17875)rotate(-90)scale(0.18 -0.18)">
      <use xlink:href="#DejaVuSans-50"/>
      <use x="60.287109" xlink:href="#DejaVuSans-72"/>
      <use x="101.369141" xlink:href="#DejaVuSans-6f"/>
      <use x="162.550781" xlink:href="#DejaVuSans-70"/>
      <use x="226.027344" xlink:href="#DejaVuSans-6f"/>
      <use x="287.208984" xlink:href="#DejaVuSans-72"/>
      <use x="328.322266" xlink:href="#DejaVuSans-74"/>
      <use x="367.53125" xlink:href="#DejaVuSans-69"/>
      <use x="395.314453" xlink:href="#DejaVuSans-6f"/>
      <use x="456.496094" xlink:href="#DejaVuSans-6e"/>
      <use x="519.875" xlink:href="#DejaVuSans-20"/>
      <use x="551.662109" xlink:href="#DejaVuSans-6f"/>
      <use x="612.84375" xlink:href="#DejaVuSans-66"/>
      <use x="648.048828" xlink:href="#DejaVuSans-20"/>
      <use x="679.835938" xlink:href="#DejaVuSans-66"/>
      <use x="715.041016" xlink:href="#DejaVuSans-75"/>
      <use x="778.419922" xlink:href="#DejaVuSans-6e"/>
      <use x="841.798828" xlink:href="#DejaVuSans-63"/>
      <use x="896.779297" xlink:href="#DejaVuSans-74"/>
      <use x="935.988281" xlink:href="#DejaVuSans-69"/>
      <use x="963.771484" xlink:href="#DejaVuSans-6f"/>
      <use x="1024.953125" xlink:href="#DejaVuSans-6e"/>
      <use x="1088.332031" xlink:href="#DejaVuSans-2b"/>
      <use x="1172.121094" xlink:href="#DejaVuSans-74"/>
      <use x="1211.330078" xlink:href="#DejaVuSans-61"/>
      <use x="1272.609375" xlink:href="#DejaVuSans-72"/>
      <use x="1313.707031" xlink:href="#DejaVuSans-67"/>
      <use x="1377.183594" xlink:href="#DejaVuSans-65"/>
      <use x="1438.707031" xlink:href="#DejaVuSans-74"/>
      <use x="1477.916016" xlink:href="#DejaVuSans-20"/>
      <use x="1509.703125" xlink:href="#DejaVuSans-70"/>
      <use x="1573.179688" xlink:href="#DejaVuSans-61"/>
      <use x="1634.458984" xlink:href="#DejaVuSans-69"/>
      <use x="1662.242188" xlink:href="#DejaVuSans-72"/>
      <use x="1703.355469" xlink:href="#DejaVuSans-73"/>
     </g>
    </g>
   </g>
   <g id="line2d_41">
    <defs>
     <path d="M 0 1.5 
C 0.397805 1.5 0.77937 1.341951 1.06066 1.06066 
C 1.341951 0.77937 1.5 0.397805 1.5 0 
C 1.5 -0.397805 1.341951 -0.77937 1.06066 -1.06066 
C 0.77937 -1.341951 0.397805 -1.5 0 -1.5 
C -0.397805 -1.5 -0.77937 -1.341951 -1.06066 -1.06066 
C -1.341951 -0.77937 -1.5 -0.397805 -1.5 0 
C -1.5 0.397805 -1.341951 0.77937 -1.06066 1.06066 
C -0.77937 1.341951 -0.397805 1.5 0 1.5 
z
" id="m5485eaf94c" style="stroke:#00bfbf;"/>
    </defs>
    <g>
     <use style="fill:#00bfbf;stroke:#00bfbf;" x="246.922384" xlink:href="#m5485eaf94c" y="101.929009"/>
     <use style="fill:#00bfbf;stroke:#00bfbf;" x="246.922384" xlink:href="#m5485eaf94c" y="101.929009"/>
    </g>
   </g>
   <g id="line2d_42">
    <path d="M 66.728091 298.245375 
L 66.728091 279.646982 
L 79.113325 279.646982 
L 79.113325 278.097116 
L 86.358223 278.097116 
L 86.358223 275.514006 
L 91.498559 275.514006 
L 91.498559 273.447518 
L 95.485714 273.447518 
L 95.485714 271.38103 
L 101.497839 271.38103 
L 101.497839 269.831164 
L 105.988354 269.831164 
L 105.988354 269.314542 
L 111.128691 269.314542 
L 111.128691 267.764676 
L 118.373589 267.764676 
L 118.373589 267.248054 
L 121.127971 267.248054 
L 121.127971 265.181566 
L 124.944138 265.181566 
L 124.944138 263.6317 
L 126.895323 263.6317 
L 126.895323 262.598456 
L 129.204093 262.598456 
L 129.204093 261.565212 
L 138.9698 261.565212 
L 138.9698 260.531968 
L 141.039496 260.531968 
L 141.039496 260.015346 
L 142.122744 260.015346 
L 142.122744 258.46548 
L 144.801892 258.46548 
L 144.801892 257.432236 
L 147.523933 257.432236 
L 147.523933 255.365748 
L 147.908209 255.365748 
L 147.908209 254.332504 
L 149.191599 254.332504 
L 149.191599 252.782638 
L 150.054961 252.782638 
L 150.054961 252.266016 
L 150.222738 252.266016 
L 150.222738 250.199528 
L 150.388954 250.199528 
L 150.388954 249.682906 
L 151.819167 249.682906 
L 151.819167 248.649662 
L 151.971237 248.649662 
L 151.971237 247.616418 
L 152.857441 247.616418 
L 152.857441 246.066551 
L 153.563782 246.066551 
L 153.563782 245.549929 
L 154.109416 245.549929 
L 154.109416 244.516685 
L 155.404774 244.516685 
L 155.404774 243.483441 
L 156.139183 243.483441 
L 156.139183 242.966819 
L 157.74381 242.966819 
L 157.853095 241.416953 
L 158.389716 241.416953 
L 158.389716 240.900331 
L 159.713885 240.900331 
L 159.713885 240.383709 
L 160.762449 240.383709 
L 160.762449 239.350465 
L 163.263756 239.350465 
L 163.263756 238.833843 
L 163.582838 238.833843 
L 163.582838 238.317221 
L 166.893212 238.317221 
L 166.893212 237.800599 
L 167.790008 237.800599 
L 167.790008 237.283977 
L 168.703398 237.283977 
L 168.703398 236.767355 
L 168.880604 236.767355 
L 168.880604 236.250733 
L 169.515725 236.250733 
L 169.515725 235.734111 
L 169.85287 235.734111 
L 169.908447 234.700867 
L 171.90168 234.700867 
L 171.90168 234.184245 
L 173.147683 234.184245 
L 173.147683 232.634379 
L 173.604693 232.634379 
L 173.604693 232.117757 
L 174.783238 232.117757 
L 174.867522 231.084513 
L 176.164643 231.084513 
L 176.164643 230.051269 
L 178.090194 230.051269 
L 178.090194 229.018025 
L 179.013728 229.018025 
L 179.013728 228.501403 
L 179.146577 228.501403 
L 179.24557 226.951537 
L 179.828278 226.951537 
L 179.828278 226.434915 
L 180.081282 226.434915 
L 180.081282 225.918293 
L 180.819484 225.918293 
L 180.819484 225.401671 
L 182.126428 225.401671 
L 182.126428 224.885049 
L 182.541662 224.885049 
L 182.541662 224.368427 
L 183.133732 224.368427 
L 183.133732 223.851805 
L 183.265601 223.851805 
L 183.265601 223.335183 
L 184.311714 223.335183 
L 184.336479 221.785317 
L 184.508881 221.785317 
L 184.508881 221.268695 
L 185.252993 221.268695 
L 185.252993 220.235451 
L 185.486567 220.235451 
L 185.556048 219.202207 
L 185.694204 219.202207 
L 185.694204 218.168963 
L 186.079943 218.168963 
L 186.124782 217.135719 
L 188.114531 217.135719 
L 188.214409 216.102475 
L 188.432195 216.102475 
L 188.432195 215.585853 
L 188.627904 215.585853 
L 188.627904 215.069231 
L 188.917507 215.069231 
L 188.917507 213.519365 
L 189.108001 213.519365 
L 189.108001 213.002743 
L 189.483001 213.002743 
L 189.501546 210.936254 
L 190.031146 210.936254 
L 190.031146 209.386388 
L 190.5455 209.386388 
L 190.5455 208.869766 
L 190.823068 208.869766 
L 190.823068 208.353144 
L 191.398962 208.353144 
L 191.398962 207.836522 
L 191.531811 207.836522 
L 191.630804 205.253412 
L 191.924533 205.253412 
L 191.924533 203.703546 
L 192.101686 203.703546 
L 192.197579 202.670302 
L 192.213512 202.670302 
L 192.213512 202.15368 
L 192.962024 202.15368 
L 192.962024 201.120436 
L 193.098945 201.120436 
L 193.098945 200.603814 
L 193.3846 200.603814 
L 193.3846 200.087192 
L 194.926896 200.087192 
L 194.926896 199.57057 
L 195.292532 199.57057 
L 195.386117 196.98746 
L 195.426076 196.98746 
L 195.426076 196.470838 
L 195.663968 196.470838 
L 195.76869 192.337862 
L 196.079223 192.337862 
L 196.079223 191.82124 
L 196.447389 191.82124 
L 196.447389 191.304618 
L 196.585077 191.304618 
L 196.585077 190.787996 
L 197.649979 190.787996 
L 197.649979 189.754752 
L 198.10236 189.754752 
L 198.10236 189.23813 
L 198.31867 189.23813 
L 198.31867 188.721508 
L 198.532393 188.721508 
L 198.532393 188.204886 
L 199.981518 188.204886 
L 199.981518 187.688264 
L 200.298319 187.688264 
L 200.298319 186.65502 
L 200.479722 186.65502 
L 200.479722 186.138398 
L 201.032592 186.138398 
L 201.032592 185.621776 
L 201.177823 185.621776 
L 201.177823 185.105154 
L 201.388715 185.105154 
L 201.493235 182.005422 
L 201.66296 182.005422 
L 201.66296 181.4888 
L 201.821789 181.4888 
L 201.821789 180.455556 
L 201.979218 180.455556 
L 201.979218 179.938934 
L 202.35329 179.938934 
L 202.35329 179.422312 
L 203.285598 179.422312 
L 203.285598 178.90569 
L 203.464664 178.90569 
L 203.464664 178.389067 
L 203.941845 178.389067 
L 203.991341 175.805957 
L 204.187966 175.805957 
L 204.187966 175.289335 
L 204.422704 175.289335 
L 204.422704 174.772713 
L 204.843897 174.772713 
L 204.883125 173.739469 
L 205.046946 173.739469 
L 205.155332 172.189603 
L 205.20928 172.189603 
L 205.263064 171.156359 
L 205.33198 171.156359 
L 205.33198 170.123115 
L 205.642605 170.123115 
L 205.695104 169.089871 
L 205.784743 169.089871 
L 205.784743 168.573249 
L 206.571884 168.573249 
L 206.571884 168.056627 
L 206.980718 168.056627 
L 206.980718 167.023383 
L 207.181681 167.023383 
L 207.181681 165.473517 
L 207.380408 165.473517 
L 207.407646 164.440273 
L 207.717934 164.440273 
L 207.717934 163.923651 
L 207.910817 163.923651 
L 207.930652 162.890407 
L 208.049203 162.890407 
L 208.153924 161.857163 
L 208.296922 161.857163 
L 208.296922 161.340541 
L 208.464457 161.340541 
L 208.541254 159.790675 
L 209.2916 159.790675 
L 209.383216 158.757431 
L 209.57108 158.757431 
L 209.57108 157.724187 
L 209.917349 157.724187 
L 209.98227 156.174321 
L 210.210564 156.174321 
L 210.210564 155.141077 
L 210.539063 155.141077 
L 210.590384 154.107833 
L 210.715217 154.107833 
L 210.715217 153.591211 
L 211.667601 153.591211 
L 211.667601 152.557967 
L 211.986399 152.557967 
L 211.986399 151.524723 
L 212.138469 151.524723 
L 212.159343 150.491479 
L 212.546281 150.491479 
L 212.546281 149.974857 
L 213.024672 149.974857 
L 213.024672 148.941613 
L 213.692763 148.941613 
L 213.692763 148.424991 
L 213.925777 148.424991 
L 213.925777 146.875125 
L 214.410492 146.875125 
L 214.410492 145.841881 
L 214.570704 145.841881 
L 214.648006 144.808637 
L 214.792615 144.808637 
L 214.833076 143.25877 
L 214.909254 143.25877 
L 214.909254 142.742148 
L 215.645104 142.742148 
L 215.645104 142.225526 
L 215.769114 142.225526 
L 215.769114 141.708904 
L 216.306415 141.708904 
L 216.339466 140.67566 
L 216.520161 140.67566 
L 216.520161 139.642416 
L 217.354358 139.642416 
L 217.354358 139.125794 
L 217.55214 139.125794 
L 217.55214 138.609172 
L 218.084082 138.609172 
L 218.177427 137.575928 
L 219.369437 137.575928 
L 219.369437 137.059306 
L 219.511702 137.059306 
L 219.54278 136.026062 
L 220.630289 136.026062 
L 220.740327 133.959574 
L 220.852898 133.959574 
L 220.932873 132.409708 
L 221.45502 132.409708 
L 221.45502 131.893086 
L 221.682957 131.893086 
L 221.786717 130.34322 
L 221.883827 130.34322 
L 221.917087 129.309976 
L 222.10938 129.309976 
L 222.160112 128.276732 
L 222.852773 128.276732 
L 222.852773 127.76011 
L 223.314039 127.76011 
L 223.314039 127.243488 
L 223.856081 127.243488 
L 223.945293 125.693622 
L 224.154405 125.693622 
L 224.183699 124.660378 
L 224.371633 124.660378 
L 224.403202 123.627134 
L 225.109258 123.627134 
L 225.116836 122.59389 
L 225.232635 122.59389 
L 225.27524 121.044024 
L 225.424807 121.044024 
L 225.424807 120.527402 
L 225.756823 120.527402 
L 225.756823 120.01078 
L 226.209144 120.01078 
L 226.249486 118.460914 
L 226.91031 118.460914 
L 226.91031 117.944292 
L 227.096651 117.944292 
L 227.13504 116.394426 
L 227.303429 116.394426 
L 227.303429 115.877804 
L 227.927054 115.877804 
L 227.927054 115.361182 
L 228.098864 115.361182 
L 228.098864 114.84456 
L 228.673031 114.84456 
L 228.683377 113.811316 
L 228.819382 113.811316 
L 228.819382 113.294694 
L 228.960471 113.294694 
L 228.960471 112.778072 
L 229.482323 112.778072 
L 229.482323 112.26145 
L 230.294386 112.26145 
L 230.390527 110.711584 
L 231.877918 110.711584 
L 231.877918 110.194961 
L 233.198009 110.194961 
L 233.198009 109.678339 
L 233.929928 109.678339 
L 233.929928 109.161717 
L 234.842355 109.161717 
L 234.842355 108.645095 
L 235.672714 108.645095 
L 235.672714 108.128473 
L 236.241315 108.128473 
L 236.257568 107.095229 
L 237.716709 107.095229 
L 237.781471 106.061985 
L 238.208941 106.061985 
L 238.208941 105.545363 
L 240.071131 105.545363 
L 240.115915 104.512119 
L 241.706608 104.512119 
L 241.706608 103.995497 
L 242.503915 103.995497 
L 242.503915 103.478875 
L 242.951619 103.478875 
L 242.951619 102.962253 
L 244.382118 102.962253 
L 244.382118 102.445631 
L 246.922384 102.445631 
L 246.922384 101.929009 
L 367.113325 101.929009 
L 367.113325 101.929009 
" style="fill:none;stroke:#00bfbf;stroke-linecap:square;stroke-width:1.5;"/>
   </g>
   <g id="line2d_43">
    <defs>
     <path d="M -6 0 
L 6 0 
M 0 6 
L 0 -6 
" id="m81c816d758" style="stroke:#00bfbf;stroke-width:1.5;"/>
    </defs>
    <g>
     <use style="fill:none;stroke:#00bfbf;stroke-width:1.5;" x="118.373589" xlink:href="#m81c816d758" y="267.764676"/>
     <use style="fill:none;stroke:#00bfbf;stroke-width:1.5;" x="183.265601" xlink:href="#m81c816d758" y="223.335183"/>
     <use style="fill:none;stroke:#00bfbf;stroke-width:1.5;" x="207.407646" xlink:href="#m81c816d758" y="164.440273"/>
     <use style="fill:none;stroke:#00bfbf;stroke-width:1.5;" x="246.922384" xlink:href="#m81c816d758" y="102.445631"/>
     <use style="fill:none;stroke:#00bfbf;stroke-width:1.5;" x="246.922384" xlink:href="#m81c816d758" y="101.929009"/>
     <use style="fill:none;stroke:#00bfbf;stroke-width:1.5;" x="367.113325" xlink:href="#m81c816d758" y="101.929009"/>
    </g>
   </g>
   <g id="line2d_44"/>
   <g id="line2d_45">
    <path clip-path="url(#pb52b497890)" d="M 173.784274 232.117757 
" style="fill:none;stroke:#00bfbf;stroke-linecap:square;stroke-width:1.5;"/>
    <defs>
     <path d="M -12 12 
L 12 -12 
M -12 -12 
L 12 12 
" id="mf5acdaf113" style="stroke:#00bfbf;stroke-width:3;"/>
    </defs>
    <g clip-path="url(#pb52b497890)">
     <use style="fill:#00bfbf;stroke:#00bfbf;stroke-width:3;" x="173.784274" xlink:href="#mf5acdaf113" y="232.117757"/>
    </g>
   </g>
   <g id="line2d_46">
    <defs>
     <path d="M 0 1.5 
C 0.397805 1.5 0.77937 1.341951 1.06066 1.06066 
C 1.341951 0.77937 1.5 0.397805 1.5 0 
C 1.5 -0.397805 1.341951 -0.77937 1.06066 -1.06066 
C 0.77937 -1.341951 0.397805 -1.5 0 -1.5 
C -0.397805 -1.5 -0.77937 -1.341951 -1.06066 -1.06066 
C -1.341951 -0.77937 -1.5 -0.397805 -1.5 0 
C -1.5 0.397805 -1.341951 0.77937 -1.06066 1.06066 
C -0.77937 1.341951 -0.397805 1.5 0 1.5 
z
" id="m05981e4a95" style="stroke:#008000;"/>
    </defs>
    <g>
     <use style="fill:#008000;stroke:#008000;" x="236.777042" xlink:href="#m05981e4a95" y="210.419632"/>
     <use style="fill:#008000;stroke:#008000;" x="236.777042" xlink:href="#m05981e4a95" y="210.419632"/>
    </g>
   </g>
   <g id="line2d_47">
    <path d="M 59.483194 298.245375 
L 59.483194 278.613738 
L 71.868428 278.613738 
L 71.868428 276.54725 
L 79.113325 276.54725 
L 79.113325 274.997384 
L 84.253662 274.997384 
L 84.253662 273.447518 
L 91.498559 273.447518 
L 91.498559 272.930896 
L 96.638896 272.930896 
L 96.638896 271.38103 
L 98.743457 271.38103 
L 98.743457 270.864408 
L 109.02413 270.864408 
L 109.02413 269.314542 
L 111.128691 269.314542 
L 111.128691 268.281298 
L 115.508568 268.281298 
L 115.508568 267.764676 
L 116.269028 267.764676 
L 116.269028 267.248054 
L 118.373589 267.248054 
L 118.373589 266.731432 
L 119.650426 266.731432 
L 119.650426 265.698188 
L 124.944138 265.698188 
L 124.944138 264.664944 
L 128.654262 264.664944 
L 128.654262 263.6317 
L 133.513205 263.6317 
L 133.513205 263.115078 
L 135.395799 263.115078 
L 135.395799 261.565212 
L 135.649252 261.565212 
L 135.649252 261.04859 
L 136.14562 261.04859 
L 136.14562 260.531968 
L 138.00372 260.531968 
L 138.00372 260.015346 
L 140.472206 260.015346 
L 140.472206 258.982102 
L 142.469708 258.982102 
L 142.469708 258.46548 
L 142.977841 258.46548 
L 142.977841 257.432236 
L 143.471921 257.432236 
L 143.471921 256.915614 
L 145.612543 256.915614 
L 145.612543 255.88237 
L 146.456863 255.88237 
L 146.456863 255.365748 
L 146.864518 255.365748 
L 146.864518 254.849126 
L 147.523933 254.849126 
L 147.523933 253.815882 
L 147.781033 253.815882 
L 147.781033 253.29926 
L 148.408049 253.29926 
L 148.408049 252.782638 
L 148.652821 252.782638 
L 148.652821 251.749394 
L 150.716819 251.749394 
L 150.716819 250.71615 
L 151.355034 250.71615 
L 151.355034 250.199528 
L 151.562805 250.199528 
L 151.562805 249.166284 
L 152.172004 249.166284 
L 152.271548 248.13304 
L 152.761116 248.13304 
L 152.761116 247.099796 
L 152.953248 247.099796 
L 153.048545 246.066551 
L 154.854942 246.066551 
L 154.854942 245.549929 
L 155.611823 245.549929 
L 155.611823 245.033307 
L 158.842097 245.033307 
L 158.842097 244.000063 
L 160.166267 244.000063 
L 160.166267 243.483441 
L 181.187297 243.483441 
L 181.187297 241.933575 
L 182.422693 241.933575 
L 182.422693 241.416953 
L 183.335535 241.416953 
L 183.335535 240.900331 
L 183.457265 240.900331 
L 183.457265 240.383709 
L 184.170725 240.383709 
L 184.170725 239.867087 
L 184.517049 239.867087 
L 184.517049 239.350465 
L 184.88881 239.350465 
L 184.88881 238.317221 
L 185.346789 238.317221 
L 185.346789 237.800599 
L 185.869196 237.800599 
L 185.869196 237.283977 
L 186.668732 237.283977 
L 186.668732 236.767355 
L 193.493643 236.767355 
L 193.493643 236.250733 
L 194.105658 236.250733 
L 194.105658 235.734111 
L 194.73432 235.734111 
L 194.73432 235.217489 
L 195.054137 235.217489 
L 195.054137 233.667623 
L 195.368329 233.667623 
L 195.448236 232.634379 
L 195.825159 232.634379 
L 195.825159 231.601135 
L 196.455764 231.601135 
L 196.455764 231.084513 
L 198.412723 231.084513 
L 198.412723 230.567891 
L 201.123097 230.567891 
L 201.135988 229.018025 
L 201.562577 229.018025 
L 201.562577 228.501403 
L 201.769002 228.501403 
L 201.769002 227.984781 
L 202.040578 227.984781 
L 202.040578 226.951537 
L 202.205206 226.951537 
L 202.302053 225.401671 
L 204.141736 225.401671 
L 204.141736 224.885049 
L 205.839302 224.885049 
L 205.839302 224.368427 
L 206.638308 224.368427 
L 206.6667 223.335183 
L 206.845477 223.335183 
L 206.845477 222.818561 
L 207.137985 222.818561 
L 207.137985 222.301939 
L 208.473006 222.301939 
L 208.473006 221.268695 
L 210.245429 221.268695 
L 210.245429 220.752073 
L 210.540966 220.752073 
L 210.540966 220.235451 
L 213.501881 220.235451 
L 213.501881 219.718829 
L 213.947811 219.718829 
L 213.947811 219.202207 
L 214.870459 219.202207 
L 214.870459 218.685585 
L 216.404014 218.685585 
L 216.404014 218.168963 
L 218.693748 218.168963 
L 218.78037 217.135719 
L 219.571508 217.135719 
L 219.571508 216.619097 
L 220.819736 216.619097 
L 220.824019 215.585853 
L 221.011433 215.585853 
L 221.011433 215.069231 
L 227.155331 215.069231 
L 227.155331 214.552609 
L 227.36292 214.552609 
L 227.36292 214.035987 
L 227.725953 214.035987 
L 227.725953 213.519365 
L 231.276873 213.519365 
L 231.276873 212.48612 
L 231.954446 212.48612 
L 232.039221 211.452876 
L 236.559174 211.452876 
L 236.559174 210.936254 
L 236.777042 210.936254 
L 236.777042 210.419632 
L 367.113325 210.419632 
L 367.113325 210.419632 
" style="fill:none;stroke:#008000;stroke-linecap:square;stroke-width:1.5;"/>
   </g>
   <g id="line2d_48">
    <defs>
     <path d="M -0 6 
L 6 -6 
L -6 -6 
z
" id="m28f61e0668" style="stroke:#008000;stroke-linejoin:miter;stroke-width:1.5;"/>
    </defs>
    <g>
     <use style="fill:none;stroke:#008000;stroke-linejoin:miter;stroke-width:1.5;" x="91.498559" xlink:href="#m28f61e0668" y="273.447518"/>
     <use style="fill:none;stroke:#008000;stroke-linejoin:miter;stroke-width:1.5;" x="147.781033" xlink:href="#m28f61e0668" y="253.29926"/>
     <use style="fill:none;stroke:#008000;stroke-linejoin:miter;stroke-width:1.5;" x="210.540966" xlink:href="#m28f61e0668" y="220.752073"/>
     <use style="fill:none;stroke:#008000;stroke-linejoin:miter;stroke-width:1.5;" x="236.777042" xlink:href="#m28f61e0668" y="210.936254"/>
     <use style="fill:none;stroke:#008000;stroke-linejoin:miter;stroke-width:1.5;" x="236.777042" xlink:href="#m28f61e0668" y="210.419632"/>
     <use style="fill:none;stroke:#008000;stroke-linejoin:miter;stroke-width:1.5;" x="367.113325" xlink:href="#m28f61e0668" y="210.419632"/>
    </g>
   </g>
   <g id="line2d_49"/>
   <g id="line2d_50">
    <path clip-path="url(#pb52b497890)" d="M 181.029171 243.483441 
" style="fill:none;stroke:#008000;stroke-linecap:square;stroke-width:1.5;"/>
    <defs>
     <path d="M -12 12 
L 12 -12 
M -12 -12 
L 12 12 
" id="m673d3891ef" style="stroke:#008000;stroke-width:3;"/>
    </defs>
    <g clip-path="url(#pb52b497890)">
     <use style="fill:#008000;stroke:#008000;stroke-width:3;" x="181.029171" xlink:href="#m673d3891ef" y="243.483441"/>
    </g>
   </g>
   <g id="line2d_51">
    <defs>
     <path d="M 0 1.5 
C 0.397805 1.5 0.77937 1.341951 1.06066 1.06066 
C 1.341951 0.77937 1.5 0.397805 1.5 0 
C 1.5 -0.397805 1.341951 -0.77937 1.06066 -1.06066 
C 0.77937 -1.341951 0.397805 -1.5 0 -1.5 
C -0.397805 -1.5 -0.77937 -1.341951 -1.06066 -1.06066 
C -1.341951 -0.77937 -1.5 -0.397805 -1.5 0 
C -1.5 0.397805 -1.341951 0.77937 -1.06066 1.06066 
C -0.77937 1.341951 -0.397805 1.5 0 1.5 
z
" id="mb00edec593" style="stroke:#0000ff;"/>
    </defs>
    <g>
     <use style="fill:#0000ff;stroke:#0000ff;" x="260.12121" xlink:href="#mb00edec593" y="220.752073"/>
     <use style="fill:#0000ff;stroke:#0000ff;" x="260.12121" xlink:href="#mb00edec593" y="220.752073"/>
    </g>
   </g>
   <g id="line2d_52">
    <path d="M 50.355702 298.245375 
L 50.355702 274.480762 
L 62.740936 274.480762 
L 62.740936 272.930896 
L 75.126171 272.930896 
L 75.126171 271.897652 
L 79.113325 271.897652 
L 79.113325 269.831164 
L 85.12545 269.831164 
L 85.12545 268.79792 
L 87.511405 268.79792 
L 87.511405 268.281298 
L 93.201573 268.281298 
L 93.201573 267.764676 
L 100.979887 267.764676 
L 100.979887 267.248054 
L 102.967279 267.248054 
L 102.967279 266.731432 
L 107.141536 266.731432 
L 107.141536 265.698188 
L 110.522934 265.698188 
L 110.522934 265.181566 
L 111.714583 265.181566 
L 111.714583 264.664944 
L 112.831704 264.664944 
L 112.831704 264.148322 
L 116.710238 264.148322 
L 116.710238 263.115078 
L 120.610018 263.115078 
L 120.610018 262.598456 
L 121.297338 262.598456 
L 121.297338 261.565212 
L 126.268307 261.565212 
L 126.268307 261.04859 
L 130.153066 261.04859 
L 130.153066 260.531968 
L 133.169577 260.531968 
L 133.169577 259.498724 
L 135.749634 259.498724 
L 135.749634 258.982102 
L 141.804609 258.982102 
L 141.804609 258.46548 
L 142.435313 258.46548 
L 142.435313 256.915614 
L 142.640696 256.915614 
L 142.640696 255.88237 
L 143.243049 255.88237 
L 143.243049 255.365748 
L 143.633625 255.365748 
L 143.633625 254.849126 
L 145.292682 254.849126 
L 145.292682 254.332504 
L 146.235583 254.332504 
L 146.318885 253.29926 
L 147.051621 253.29926 
L 147.051621 252.266016 
L 147.601452 252.266016 
L 147.601452 251.749394 
L 149.226947 251.749394 
L 149.226947 250.71615 
L 149.367641 250.71615 
L 149.367641 249.166284 
L 150.189309 249.166284 
L 150.189309 248.649662 
L 150.388954 248.649662 
L 150.388954 248.13304 
L 150.586394 248.13304 
L 150.586394 247.616418 
L 150.974847 247.616418 
L 150.974847 247.099796 
L 152.857441 247.099796 
L 152.914987 246.066551 
L 153.256426 246.066551 
L 153.256426 245.549929 
L 153.701761 245.549929 
L 153.701761 245.033307 
L 155.02593 245.033307 
L 155.02593 244.516685 
L 155.922013 244.516685 
L 155.922013 242.966819 
L 159.476695 242.966819 
L 159.476695 241.933575 
L 191.472152 241.933575 
L 191.472152 241.416953 
L 191.689937 241.416953 
L 191.735795 240.383709 
L 191.80762 240.383709 
L 191.80762 239.867087 
L 191.969793 239.867087 
L 191.969793 239.350465 
L 192.245334 239.350465 
L 192.340461 237.800599 
L 192.579209 237.800599 
L 192.610387 236.250733 
L 203.512114 236.250733 
L 203.512114 235.734111 
L 203.7174 235.734111 
L 203.7174 235.217489 
L 210.427935 235.217489 
L 210.526495 232.634379 
L 210.601768 232.634379 
L 210.631334 231.601135 
L 215.71192 231.601135 
L 215.71192 231.084513 
L 219.352009 231.084513 
L 219.352009 230.567891 
L 219.54485 230.567891 
L 219.54485 230.051269 
L 222.495474 230.051269 
L 222.495474 229.534647 
L 225.293255 229.534647 
L 225.379073 228.501403 
L 227.593354 228.501403 
L 227.593354 227.984781 
L 227.709068 227.984781 
L 227.709068 227.468159 
L 234.822707 227.468159 
L 234.822707 226.951537 
L 236.178872 226.951537 
L 236.185942 225.918293 
L 239.861234 225.918293 
L 239.861234 225.401671 
L 241.945718 225.401671 
L 241.945718 224.885049 
L 242.90427 224.885049 
L 242.936347 223.851805 
L 246.294484 223.851805 
L 246.294484 222.818561 
L 250.413135 222.818561 
L 250.413135 222.301939 
L 251.036303 222.301939 
L 251.036303 221.785317 
L 253.242226 221.785317 
L 253.242226 221.268695 
L 260.12121 221.268695 
L 260.12121 220.752073 
L 367.113325 220.752073 
L 367.113325 220.752073 
" style="fill:none;stroke:#0000ff;stroke-linecap:square;stroke-width:1.5;"/>
   </g>
   <g id="line2d_53">
    <defs>
     <path d="M 0 -6 
L -1.347084 -1.854102 
L -5.706339 -1.854102 
L -2.179628 0.708204 
L -3.526712 4.854102 
L -0 2.291796 
L 3.526712 4.854102 
L 2.179628 0.708204 
L 5.706339 -1.854102 
L 1.347084 -1.854102 
z
" id="ma7b0157b33" style="stroke:#0000ff;stroke-linejoin:bevel;stroke-width:1.5;"/>
    </defs>
    <g>
     <use style="fill:none;stroke:#0000ff;stroke-linejoin:bevel;stroke-width:1.5;" x="87.511405" xlink:href="#ma7b0157b33" y="268.79792"/>
     <use style="fill:none;stroke:#0000ff;stroke-linejoin:bevel;stroke-width:1.5;" x="155.922013" xlink:href="#ma7b0157b33" y="242.966819"/>
     <use style="fill:none;stroke:#0000ff;stroke-linejoin:bevel;stroke-width:1.5;" x="222.495474" xlink:href="#ma7b0157b33" y="229.534647"/>
     <use style="fill:none;stroke:#0000ff;stroke-linejoin:bevel;stroke-width:1.5;" x="260.12121" xlink:href="#ma7b0157b33" y="221.268695"/>
     <use style="fill:none;stroke:#0000ff;stroke-linejoin:bevel;stroke-width:1.5;" x="260.12121" xlink:href="#ma7b0157b33" y="220.752073"/>
     <use style="fill:none;stroke:#0000ff;stroke-linejoin:bevel;stroke-width:1.5;" x="367.113325" xlink:href="#ma7b0157b33" y="220.752073"/>
    </g>
   </g>
   <g id="line2d_54"/>
   <g id="line2d_55">
    <path clip-path="url(#pb52b497890)" d="M 190.156663 241.933575 
" style="fill:none;stroke:#0000ff;stroke-linecap:square;stroke-width:1.5;"/>
    <defs>
     <path d="M -12 12 
L 12 -12 
M -12 -12 
L 12 12 
" id="m5830890279" style="stroke:#0000ff;stroke-width:3;"/>
    </defs>
    <g clip-path="url(#pb52b497890)">
     <use style="fill:#0000ff;stroke:#0000ff;stroke-width:3;" x="190.156663" xlink:href="#m5830890279" y="241.933575"/>
    </g>
   </g>
   <g id="line2d_56">
    <defs>
     <path d="M 0 1.5 
C 0.397805 1.5 0.77937 1.341951 1.06066 1.06066 
C 1.341951 0.77937 1.5 0.397805 1.5 0 
C 1.5 -0.397805 1.341951 -0.77937 1.06066 -1.06066 
C 0.77937 -1.341951 0.397805 -1.5 0 -1.5 
C -0.397805 -1.5 -0.77937 -1.341951 -1.06066 -1.06066 
C -1.341951 -0.77937 -1.5 -0.397805 -1.5 0 
C -1.5 0.397805 -1.341951 0.77937 -1.06066 1.06066 
C -0.77937 1.341951 -0.397805 1.5 0 1.5 
z
" id="m9713a5baaf" style="stroke:#000000;"/>
    </defs>
    <g>
     <use style="stroke:#000000;" x="271.739189" xlink:href="#m9713a5baaf" y="231.084513"/>
     <use style="stroke:#000000;" x="271.739189" xlink:href="#m9713a5baaf" y="231.084513"/>
    </g>
   </g>
   <g id="line2d_57">
    <path d="M 37.970468 298.245375 
L 37.970468 272.930896 
L 57.6006 272.930896 
L 57.6006 271.897652 
L 75.126171 271.897652 
L 75.126171 271.38103 
L 99.896639 271.38103 
L 99.896639 270.864408 
L 106.381076 270.864408 
L 106.381076 270.347786 
L 107.141536 270.347786 
L 107.141536 269.831164 
L 108.912104 269.831164 
L 108.912104 268.79792 
L 111.128691 268.79792 
L 111.128691 268.281298 
L 111.714583 268.281298 
L 111.714583 267.248054 
L 112.831704 267.248054 
L 112.831704 266.731432 
L 114.136526 266.731432 
L 114.136526 266.21481 
L 119.895198 266.21481 
L 119.895198 265.181566 
L 121.127971 265.181566 
L 121.127971 263.6317 
L 125.618486 263.6317 
L 125.618486 263.115078 
L 125.750355 263.115078 
L 125.750355 262.598456 
L 126.895323 262.598456 
L 126.895323 262.081834 
L 132.371364 262.081834 
L 132.371364 261.04859 
L 135.899159 261.04859 
L 135.899159 260.015346 
L 136.485052 260.015346 
L 136.485052 258.982102 
L 139.52533 258.982102 
L 139.52533 258.46548 
L 142.5383 258.46548 
L 142.5383 257.432236 
L 143.536778 257.432236 
L 143.536778 256.398992 
L 144.015845 256.398992 
L 144.015845 255.88237 
L 145.071265 255.88237 
L 145.071265 254.849126 
L 145.248618 254.849126 
L 145.248618 253.815882 
L 145.770352 253.815882 
L 145.770352 252.782638 
L 147.485047 252.782638 
L 147.485047 252.266016 
L 147.908209 252.266016 
L 147.908209 251.749394 
L 148.209787 251.749394 
L 148.209787 251.232772 
L 148.50636 251.232772 
L 148.543088 250.199528 
L 148.870286 250.199528 
L 148.906274 249.166284 
L 150.322653 249.166284 
L 150.322653 248.649662 
L 150.942796 248.649662 
L 150.942796 247.616418 
L 151.260743 247.616418 
L 151.260743 247.099796 
L 151.44883 247.099796 
L 151.44883 246.583173 
L 152.152029 246.583173 
L 152.152029 246.066551 
L 152.449342 246.066551 
L 152.449342 245.549929 
L 203.271881 245.549929 
L 203.282169 244.516685 
L 203.510421 244.516685 
L 203.576308 242.450197 
L 203.885583 242.450197 
L 203.885583 241.933575 
L 215.431856 241.933575 
L 215.431856 241.416953 
L 215.611602 241.416953 
L 215.611602 240.900331 
L 222.459172 240.900331 
L 222.523528 239.867087 
L 222.587071 239.867087 
L 222.587071 239.350465 
L 227.557259 239.350465 
L 227.56651 238.317221 
L 231.472359 238.317221 
L 231.549701 235.734111 
L 234.701411 235.734111 
L 234.701411 235.217489 
L 237.490702 235.217489 
L 237.490702 234.700867 
L 239.825123 234.700867 
L 239.825123 234.184245 
L 247.047165 234.184245 
L 247.047165 233.667623 
L 250.995285 233.667623 
L 250.995285 233.151001 
L 260.806328 233.151001 
L 260.806328 232.634379 
L 265.588327 232.634379 
L 265.588327 232.117757 
L 266.105223 232.117757 
L 266.105223 231.601135 
L 271.739189 231.601135 
L 271.739189 231.084513 
L 367.113325 231.084513 
L 367.113325 231.084513 
" style="fill:none;stroke:#000000;stroke-linecap:square;stroke-width:1.5;"/>
   </g>
   <g id="line2d_58">
    <defs>
     <path d="M 0 6 
C 1.591219 6 3.117479 5.367802 4.242641 4.242641 
C 5.367802 3.117479 6 1.591219 6 0 
C 6 -1.591219 5.367802 -3.117479 4.242641 -4.242641 
C 3.117479 -5.367802 1.591219 -6 0 -6 
C -1.591219 -6 -3.117479 -5.367802 -4.242641 -4.242641 
C -5.367802 -3.117479 -6 -1.591219 -6 0 
C -6 1.591219 -5.367802 3.117479 -4.242641 4.242641 
C -3.117479 5.367802 -1.591219 6 0 6 
z
" id="meaeae9b436" style="stroke:#000000;stroke-width:1.5;"/>
    </defs>
    <g>
     <use style="fill:none;stroke:#000000;stroke-width:1.5;" x="75.126171" xlink:href="#meaeae9b436" y="271.38103"/>
     <use style="fill:none;stroke:#000000;stroke-width:1.5;" x="148.906274" xlink:href="#meaeae9b436" y="249.682906"/>
     <use style="fill:none;stroke:#000000;stroke-width:1.5;" x="203.885583" xlink:href="#meaeae9b436" y="241.933575"/>
     <use style="fill:none;stroke:#000000;stroke-width:1.5;" x="271.739189" xlink:href="#meaeae9b436" y="231.601135"/>
     <use style="fill:none;stroke:#000000;stroke-width:1.5;" x="271.739189" xlink:href="#meaeae9b436" y="231.084513"/>
     <use style="fill:none;stroke:#000000;stroke-width:1.5;" x="367.113325" xlink:href="#meaeae9b436" y="231.084513"/>
    </g>
   </g>
   <g id="line2d_59"/>
   <g id="line2d_60">
    <path clip-path="url(#pb52b497890)" d="M 202.541897 245.549929 
" style="fill:none;stroke:#000000;stroke-linecap:square;stroke-width:1.5;"/>
    <defs>
     <path d="M -12 12 
L 12 -12 
M -12 -12 
L 12 12 
" id="m44f4024605" style="stroke:#000000;stroke-width:3;"/>
    </defs>
    <g clip-path="url(#pb52b497890)">
     <use style="stroke:#000000;stroke-width:3;" x="202.541897" xlink:href="#m44f4024605" y="245.549929"/>
    </g>
   </g>
   <g id="line2d_61">
    <defs>
     <path d="M 0 1.5 
C 0.397805 1.5 0.77937 1.341951 1.06066 1.06066 
C 1.341951 0.77937 1.5 0.397805 1.5 0 
C 1.5 -0.397805 1.341951 -0.77937 1.06066 -1.06066 
C 0.77937 -1.341951 0.397805 -1.5 0 -1.5 
C -0.397805 -1.5 -0.77937 -1.341951 -1.06066 -1.06066 
C -1.341951 -0.77937 -1.5 -0.397805 -1.5 0 
C -1.5 0.397805 -1.341951 0.77937 -1.06066 1.06066 
C -0.77937 1.341951 -0.397805 1.5 0 1.5 
z
" id="m104bef269b" style="stroke:#ff0000;"/>
    </defs>
    <g>
     <use style="fill:#ff0000;stroke:#ff0000;" x="290.848744" xlink:href="#m104bef269b" y="236.250733"/>
     <use style="fill:#ff0000;stroke:#ff0000;" x="290.848744" xlink:href="#m104bef269b" y="236.250733"/>
    </g>
   </g>
   <g id="line2d_62">
    <path d="M 25.585234 298.245375 
L 25.585234 273.447518 
L 88.594652 273.447518 
L 88.594652 272.930896 
L 99.038804 272.930896 
L 99.038804 272.414274 
L 105.586807 272.414274 
L 105.586807 271.897652 
L 108.742737 271.897652 
L 108.742737 271.38103 
L 112.966559 271.38103 
L 112.966559 270.347786 
L 114.386434 270.347786 
L 114.386434 269.831164 
L 117.246859 269.831164 
L 117.246859 268.79792 
L 118.76631 268.79792 
L 118.76631 268.281298 
L 119.98613 268.281298 
L 119.98613 267.248054 
L 121.959196 267.248054 
L 121.959196 266.731432 
L 122.753465 266.731432 
L 122.753465 266.21481 
L 125.750355 266.21481 
L 125.750355 265.698188 
L 131.005283 265.698188 
L 131.005283 265.181566 
L 132.730535 265.181566 
L 132.730535 264.664944 
L 133.555697 264.664944 
L 133.555697 264.148322 
L 135.973455 264.148322 
L 135.973455 263.6317 
L 138.20116 263.6317 
L 138.20116 262.598456 
L 142.33173 262.598456 
L 142.33173 262.081834 
L 143.044513 262.081834 
L 143.044513 261.565212 
L 143.536778 261.565212 
L 143.536778 259.498724 
L 143.992194 259.498724 
L 143.992194 258.982102 
L 144.981924 258.982102 
L 144.981924 258.46548 
L 145.314674 258.46548 
L 145.314674 257.948858 
L 145.619747 257.948858 
L 145.619747 257.432236 
L 146.318885 257.432236 
L 146.318885 256.915614 
L 147.111347 256.915614 
L 147.111347 256.398992 
L 148.779997 256.398992 
L 148.779997 255.88237 
L 149.209282 255.88237 
L 149.209282 255.365748 
L 149.507237 255.365748 
L 149.507237 254.332504 
L 150.021216 254.332504 
L 150.021216 253.815882 
L 150.797854 253.815882 
L 150.797854 252.782638 
L 151.323659 252.782638 
L 151.323659 252.266016 
L 151.971237 252.266016 
L 151.971237 251.232772 
L 154.560454 251.232772 
L 154.560454 250.199528 
L 155.178433 250.199528 
L 155.178433 249.166284 
L 215.252916 249.166284 
L 215.252916 248.649662 
L 215.291036 248.649662 
L 215.291036 248.13304 
L 215.292787 248.13304 
L 215.292787 247.616418 
L 215.32427 247.616418 
L 215.32427 247.099796 
L 215.329076 247.099796 
L 215.329076 246.583173 
L 215.335626 246.583173 
L 215.335626 246.066551 
L 215.37052 246.066551 
L 215.37052 245.033307 
L 215.373135 245.033307 
L 215.373135 244.516685 
L 215.526275 244.516685 
L 215.526275 244.000063 
L 234.709681 244.000063 
L 234.709681 243.483441 
L 234.720012 243.483441 
L 234.720012 242.966819 
L 234.725913 242.966819 
L 234.725913 242.450197 
L 239.849279 242.450197 
L 239.849279 241.933575 
L 257.83025 241.933575 
L 257.83025 241.416953 
L 259.365326 241.416953 
L 259.365326 240.900331 
L 260.795633 240.900331 
L 260.795633 240.383709 
L 262.127109 240.383709 
L 262.127109 239.867087 
L 264.507445 239.867087 
L 264.507445 239.350465 
L 267.571874 239.350465 
L 267.571874 238.833843 
L 273.840871 238.833843 
L 273.840871 238.317221 
L 275.115361 238.317221 
L 275.115361 237.800599 
L 275.116099 237.800599 
L 275.116099 237.283977 
L 289.797921 237.283977 
L 289.797921 236.767355 
L 290.848744 236.767355 
L 290.848744 236.250733 
L 367.113325 236.250733 
" style="fill:none;stroke:#ff0000;stroke-linecap:square;stroke-width:1.5;"/>
   </g>
   <g id="line2d_63">
    <defs>
     <path d="M -6 6 
L 6 6 
L 6 -6 
L -6 -6 
z
" id="mb30e0c98a8" style="stroke:#ff0000;stroke-linejoin:miter;stroke-width:1.5;"/>
    </defs>
    <g>
     <use style="fill:none;stroke:#ff0000;stroke-linejoin:miter;stroke-width:1.5;" x="114.386434" xlink:href="#mb30e0c98a8" y="269.831164"/>
     <use style="fill:none;stroke:#ff0000;stroke-linejoin:miter;stroke-width:1.5;" x="155.178433" xlink:href="#mb30e0c98a8" y="250.199528"/>
     <use style="fill:none;stroke:#ff0000;stroke-linejoin:miter;stroke-width:1.5;" x="275.116099" xlink:href="#mb30e0c98a8" y="237.800599"/>
     <use style="fill:none;stroke:#ff0000;stroke-linejoin:miter;stroke-width:1.5;" x="290.848744" xlink:href="#mb30e0c98a8" y="236.250733"/>
     <use style="fill:none;stroke:#ff0000;stroke-linejoin:miter;stroke-width:1.5;" x="290.848744" xlink:href="#mb30e0c98a8" y="236.250733"/>
     <use style="fill:none;stroke:#ff0000;stroke-linejoin:miter;stroke-width:1.5;" x="367.113325" xlink:href="#mb30e0c98a8" y="236.250733"/>
    </g>
   </g>
   <g id="line2d_64"/>
   <g id="line2d_65">
    <path clip-path="url(#pb52b497890)" d="M 214.927131 249.166284 
" style="fill:none;stroke:#ff0000;stroke-linecap:square;stroke-width:1.5;"/>
    <defs>
     <path d="M -12 12 
L 12 -12 
M -12 -12 
L 12 12 
" id="m0ce18195a0" style="stroke:#ff0000;stroke-width:3;"/>
    </defs>
    <g clip-path="url(#pb52b497890)">
     <use style="fill:#ff0000;stroke:#ff0000;stroke-width:3;" x="214.927131" xlink:href="#m0ce18195a0" y="249.166284"/>
    </g>
   </g>
   <g id="line2d_66">
    <defs>
     <path d="M 0 1.5 
C 0.397805 1.5 0.77937 1.341951 1.06066 1.06066 
C 1.341951 0.77937 1.5 0.397805 1.5 0 
C 1.5 -0.397805 1.341951 -0.77937 1.06066 -1.06066 
C 0.77937 -1.341951 0.397805 -1.5 0 -1.5 
C -0.397805 -1.5 -0.77937 -1.341951 -1.06066 -1.06066 
C -1.341951 -0.77937 -1.5 -0.397805 -1.5 0 
C -1.5 0.397805 -1.341951 0.77937 -1.06066 1.06066 
C -0.77937 1.341951 -0.397805 1.5 0 1.5 
z
" id="mec5de79f0c" style="stroke:#bf00bf;"/>
    </defs>
    <g>
     <use style="fill:#bf00bf;stroke:#bf00bf;" x="285.53797" xlink:href="#mec5de79f0c" y="241.416953"/>
     <use style="fill:#bf00bf;stroke:#bf00bf;" x="285.53797" xlink:href="#mec5de79f0c" y="241.416953"/>
    </g>
   </g>
   <g id="line2d_67">
    <path d="M 13.2 298.245375 
L 13.2 270.347786 
L 101.625015 270.347786 
L 101.625015 269.831164 
L 108.827621 269.831164 
L 108.827621 269.314542 
L 111.128691 269.314542 
L 111.128691 268.79792 
L 114.448368 268.79792 
L 114.448368 267.764676 
L 121.33943 267.764676 
L 121.33943 267.248054 
L 126.833602 267.248054 
L 126.833602 266.731432 
L 130.733989 266.731432 
L 130.733989 265.698188 
L 132.551852 265.698188 
L 132.551852 264.664944 
L 139.796749 264.664944 
L 139.796749 264.148322 
L 142.39654 264.148322 
L 142.39654 263.6317 
L 142.881561 263.6317 
L 142.881561 263.115078 
L 144.493911 263.115078 
L 144.493911 262.598456 
L 144.642861 262.598456 
L 144.642861 262.081834 
L 144.84707 262.081834 
L 144.84707 261.565212 
L 144.959519 261.565212 
L 144.959519 261.04859 
L 145.748914 261.04859 
L 145.748914 259.498724 
L 146.172851 259.498724 
L 146.172851 258.982102 
L 146.474036 258.982102 
L 146.474036 258.46548 
L 146.494621 258.46548 
L 146.494621 257.948858 
L 146.576726 257.948858 
L 146.576726 257.432236 
L 148.734681 257.432236 
L 148.734681 256.915614 
L 150.926749 256.915614 
L 150.926749 256.398992 
L 151.21341 256.398992 
L 151.21341 254.849126 
L 151.588607 254.849126 
L 151.588607 254.332504 
L 152.449342 254.332504 
L 152.449342 253.29926 
L 152.886237 253.29926 
L 152.886237 252.782638 
L 227.497455 252.782638 
L 227.497455 252.266016 
L 227.508283 252.266016 
L 227.508283 251.749394 
L 227.587636 251.749394 
L 227.587636 251.232772 
L 239.776491 251.232772 
L 239.776491 250.71615 
L 239.785828 250.71615 
L 239.785828 250.199528 
L 239.786384 250.199528 
L 239.786384 249.682906 
L 239.792605 249.682906 
L 239.792605 249.166284 
L 239.795827 249.166284 
L 239.795827 248.649662 
L 239.803766 248.649662 
L 239.803766 248.13304 
L 239.821464 248.13304 
L 239.821464 247.616418 
L 239.830556 247.616418 
L 239.830556 247.099796 
L 239.837815 247.099796 
L 239.837815 246.583173 
L 247.011528 246.583173 
L 247.011528 246.066551 
L 247.025168 246.066551 
L 247.025168 245.549929 
L 247.034726 245.549929 
L 247.034726 245.033307 
L 252.144873 245.033307 
L 252.144873 244.516685 
L 252.150381 244.516685 
L 252.150381 244.000063 
L 256.119637 244.000063 
L 256.119637 243.483441 
L 262.117591 243.483441 
L 262.117591 242.966819 
L 268.480064 242.966819 
L 268.480064 242.450197 
L 276.869975 242.450197 
L 276.869975 241.933575 
L 285.53797 241.933575 
L 285.53797 241.416953 
L 367.113325 241.416953 
" style="fill:none;stroke:#bf00bf;stroke-linecap:square;stroke-width:1.5;"/>
   </g>
   <g id="line2d_68">
    <defs>
     <path d="M -0 8.485281 
L 8.485281 0 
L 0 -8.485281 
L -8.485281 -0 
z
" id="md255dcd03f" style="stroke:#bf00bf;stroke-linejoin:miter;stroke-width:1.5;"/>
    </defs>
    <g>
     <use style="fill:none;stroke:#bf00bf;stroke-linejoin:miter;stroke-width:1.5;" x="13.2" xlink:href="#md255dcd03f" y="298.245375"/>
     <use style="fill:none;stroke:#bf00bf;stroke-linejoin:miter;stroke-width:1.5;" x="139.796749" xlink:href="#md255dcd03f" y="264.148322"/>
     <use style="fill:none;stroke:#bf00bf;stroke-linejoin:miter;stroke-width:1.5;" x="152.886237" xlink:href="#md255dcd03f" y="252.782638"/>
     <use style="fill:none;stroke:#bf00bf;stroke-linejoin:miter;stroke-width:1.5;" x="276.869975" xlink:href="#md255dcd03f" y="241.933575"/>
     <use style="fill:none;stroke:#bf00bf;stroke-linejoin:miter;stroke-width:1.5;" x="285.53797" xlink:href="#md255dcd03f" y="241.416953"/>
     <use style="fill:none;stroke:#bf00bf;stroke-linejoin:miter;stroke-width:1.5;" x="367.113325" xlink:href="#md255dcd03f" y="241.416953"/>
    </g>
   </g>
   <g id="line2d_69"/>
   <g id="line2d_70">
    <path clip-path="url(#pb52b497890)" d="M 227.312365 252.782638 
" style="fill:none;stroke:#bf00bf;stroke-linecap:square;stroke-width:1.5;"/>
    <defs>
     <path d="M -12 12 
L 12 -12 
M -12 -12 
L 12 12 
" id="m7f9e4a9488" style="stroke:#bf00bf;stroke-width:3;"/>
    </defs>
    <g clip-path="url(#pb52b497890)">
     <use style="fill:#bf00bf;stroke:#bf00bf;stroke-width:3;" x="227.312365" xlink:href="#m7f9e4a9488" y="252.782638"/>
    </g>
   </g>
   <g id="line2d_71">
    <path d="M 367.113325 241.416953 
L 398.793325 292.97583 
" style="fill:none;stroke:#bf00bf;stroke-linecap:square;stroke-width:1.5;"/>
    <g>
     <use style="fill:none;stroke:#bf00bf;stroke-linejoin:miter;stroke-width:1.5;" x="367.113325" xlink:href="#md255dcd03f" y="241.416953"/>
     <use style="fill:none;stroke:#bf00bf;stroke-linejoin:miter;stroke-width:1.5;" x="398.793325" xlink:href="#md255dcd03f" y="292.97583"/>
    </g>
   </g>
   <g id="line2d_72">
    <path d="M 367.113325 236.250733 
L 398.793325 242.388203 
" style="fill:none;stroke:#ff0000;stroke-linecap:square;stroke-width:1.5;"/>
    <g>
     <use style="fill:none;stroke:#ff0000;stroke-linejoin:miter;stroke-width:1.5;" x="367.113325" xlink:href="#mb30e0c98a8" y="236.250733"/>
     <use style="fill:none;stroke:#ff0000;stroke-linejoin:miter;stroke-width:1.5;" x="398.793325" xlink:href="#mb30e0c98a8" y="242.388203"/>
    </g>
   </g>
   <g id="line2d_73">
    <path d="M 367.113325 231.084513 
L 398.793325 191.800575 
" style="fill:none;stroke:#000000;stroke-linecap:square;stroke-width:1.5;"/>
    <g>
     <use style="fill:none;stroke:#000000;stroke-width:1.5;" x="367.113325" xlink:href="#meaeae9b436" y="231.084513"/>
     <use style="fill:none;stroke:#000000;stroke-width:1.5;" x="398.793325" xlink:href="#meaeae9b436" y="191.800575"/>
    </g>
   </g>
   <g id="line2d_74">
    <path d="M 367.113325 220.752073 
L 398.793325 141.212947 
" style="fill:none;stroke:#0000ff;stroke-linecap:square;stroke-width:1.5;"/>
    <g>
     <use style="fill:none;stroke:#0000ff;stroke-linejoin:bevel;stroke-width:1.5;" x="367.113325" xlink:href="#ma7b0157b33" y="220.752073"/>
     <use style="fill:none;stroke:#0000ff;stroke-linejoin:bevel;stroke-width:1.5;" x="398.793325" xlink:href="#ma7b0157b33" y="141.212947"/>
    </g>
   </g>
   <g id="line2d_75">
    <path d="M 367.113325 210.419632 
L 398.793325 90.62532 
" style="fill:none;stroke:#008000;stroke-linecap:square;stroke-width:1.5;"/>
    <g>
     <use style="fill:none;stroke:#008000;stroke-linejoin:miter;stroke-width:1.5;" x="367.113325" xlink:href="#m28f61e0668" y="210.419632"/>
     <use style="fill:none;stroke:#008000;stroke-linejoin:miter;stroke-width:1.5;" x="398.793325" xlink:href="#m28f61e0668" y="90.62532"/>
    </g>
   </g>
   <g id="line2d_76">
    <path d="M 367.113325 101.929009 
L 398.793325 40.037692 
" style="fill:none;stroke:#00bfbf;stroke-linecap:square;stroke-width:1.5;"/>
    <g>
     <use style="fill:none;stroke:#00bfbf;stroke-width:1.5;" x="367.113325" xlink:href="#m81c816d758" y="101.929009"/>
     <use style="fill:none;stroke:#00bfbf;stroke-width:1.5;" x="398.793325" xlink:href="#m81c816d758" y="40.037692"/>
    </g>
   </g>
   <g id="line2d_77">
    <path d="M 367.113325 298.245375 
L 367.113325 34.768147 
" style="fill:none;stroke:#000000;stroke-linecap:square;stroke-width:1.5;"/>
   </g>
   <g id="patch_3">
    <path d="M 79.113325 298.245375 
L 79.113325 32.133375 
" style="fill:none;stroke:#000000;stroke-linecap:square;stroke-linejoin:miter;stroke-width:0.8;"/>
   </g>
   <g id="patch_4">
    <path d="M 436.233325 298.245375 
L 436.233325 32.133375 
" style="fill:none;stroke:#000000;stroke-linecap:square;stroke-linejoin:miter;stroke-width:0.8;"/>
   </g>
   <g id="patch_5">
    <path d="M 79.113325 298.245375 
L 436.233325 298.245375 
" style="fill:none;stroke:#000000;stroke-linecap:square;stroke-linejoin:miter;stroke-width:0.8;"/>
   </g>
   <g id="patch_6">
    <path d="M 79.113325 32.133375 
L 436.233325 32.133375 
" style="fill:none;stroke:#000000;stroke-linecap:square;stroke-linejoin:miter;stroke-width:0.8;"/>
   </g>
   <g id="text_14">
    <!-- 40-D -->
    <defs>
     <path d="M 19.671875 64.796875 
L 19.671875 8.109375 
L 31.59375 8.109375 
Q 46.6875 8.109375 53.6875 14.9375 
Q 60.6875 21.78125 60.6875 36.53125 
Q 60.6875 51.171875 53.6875 57.984375 
Q 46.6875 64.796875 31.59375 64.796875 
z
M 9.8125 72.90625 
L 30.078125 72.90625 
Q 51.265625 72.90625 61.171875 64.09375 
Q 71.09375 55.28125 71.09375 36.53125 
Q 71.09375 17.671875 61.125 8.828125 
Q 51.171875 0 30.078125 0 
L 9.8125 0 
z
" id="DejaVuSans-44"/>
    </defs>
    <g transform="translate(404.553325 297.114893)scale(0.15 -0.15)">
     <use xlink:href="#DejaVuSans-34"/>
     <use x="63.623047" xlink:href="#DejaVuSans-30"/>
     <use x="127.246094" xlink:href="#DejaVuSans-2d"/>
     <use x="163.330078" xlink:href="#DejaVuSans-44"/>
    </g>
   </g>
   <g id="text_15">
    <!-- 20-D -->
    <g transform="translate(404.553325 246.527265)scale(0.15 -0.15)">
     <use xlink:href="#DejaVuSans-32"/>
     <use x="63.623047" xlink:href="#DejaVuSans-30"/>
     <use x="127.246094" xlink:href="#DejaVuSans-2d"/>
     <use x="163.330078" xlink:href="#DejaVuSans-44"/>
    </g>
   </g>
   <g id="text_16">
    <!-- 10-D -->
    <g transform="translate(404.553325 195.939637)scale(0.15 -0.15)">
     <use xlink:href="#DejaVuSans-31"/>
     <use x="63.623047" xlink:href="#DejaVuSans-30"/>
     <use x="127.246094" xlink:href="#DejaVuSans-2d"/>
     <use x="163.330078" xlink:href="#DejaVuSans-44"/>
    </g>
   </g>
   <g id="text_17">
    <!-- 5-D -->
    <defs>
     <path d="M 10.796875 72.90625 
L 49.515625 72.90625 
L 49.515625 64.59375 
L 19.828125 64.59375 
L 19.828125 46.734375 
Q 21.96875 47.46875 24.109375 47.828125 
Q 26.265625 48.1875 28.421875 48.1875 
Q 40.625 48.1875 47.75 41.5 
Q 54.890625 34.8125 54.890625 23.390625 
Q 54.890625 11.625 47.5625 5.09375 
Q 40.234375 -1.421875 26.90625 -1.421875 
Q 22.3125 -1.421875 17.546875 -0.640625 
Q 12.796875 0.140625 7.71875 1.703125 
L 7.71875 11.625 
Q 12.109375 9.234375 16.796875 8.0625 
Q 21.484375 6.890625 26.703125 6.890625 
Q 35.15625 6.890625 40.078125 11.328125 
Q 45.015625 15.765625 45.015625 23.390625 
Q 45.015625 31 40.078125 35.4375 
Q 35.15625 39.890625 26.703125 39.890625 
Q 22.75 39.890625 18.8125 39.015625 
Q 14.890625 38.140625 10.796875 36.28125 
z
" id="DejaVuSans-35"/>
    </defs>
    <g transform="translate(404.553325 145.35201)scale(0.15 -0.15)">
     <use xlink:href="#DejaVuSans-35"/>
     <use x="63.623047" xlink:href="#DejaVuSans-2d"/>
     <use x="99.707031" xlink:href="#DejaVuSans-44"/>
    </g>
   </g>
   <g id="text_18">
    <!-- 3-D -->
    <defs>
     <path d="M 40.578125 39.3125 
Q 47.65625 37.796875 51.625 33 
Q 55.609375 28.21875 55.609375 21.1875 
Q 55.609375 10.40625 48.1875 4.484375 
Q 40.765625 -1.421875 27.09375 -1.421875 
Q 22.515625 -1.421875 17.65625 -0.515625 
Q 12.796875 0.390625 7.625 2.203125 
L 7.625 11.71875 
Q 11.71875 9.328125 16.59375 8.109375 
Q 21.484375 6.890625 26.8125 6.890625 
Q 36.078125 6.890625 40.9375 10.546875 
Q 45.796875 14.203125 45.796875 21.1875 
Q 45.796875 27.640625 41.28125 31.265625 
Q 36.765625 34.90625 28.71875 34.90625 
L 20.21875 34.90625 
L 20.21875 43.015625 
L 29.109375 43.015625 
Q 36.375 43.015625 40.234375 45.921875 
Q 44.09375 48.828125 44.09375 54.296875 
Q 44.09375 59.90625 40.109375 62.90625 
Q 36.140625 65.921875 28.71875 65.921875 
Q 24.65625 65.921875 20.015625 65.03125 
Q 15.375 64.15625 9.8125 62.3125 
L 9.8125 71.09375 
Q 15.4375 72.65625 20.34375 73.4375 
Q 25.25 74.21875 29.59375 74.21875 
Q 40.828125 74.21875 47.359375 69.109375 
Q 53.90625 64.015625 53.90625 55.328125 
Q 53.90625 49.265625 50.4375 45.09375 
Q 46.96875 40.921875 40.578125 39.3125 
" id="DejaVuSans-33"/>
    </defs>
    <g transform="translate(404.553325 94.764382)scale(0.15 -0.15)">
     <use xlink:href="#DejaVuSans-33"/>
     <use x="63.623047" xlink:href="#DejaVuSans-2d"/>
     <use x="99.707031" xlink:href="#DejaVuSans-44"/>
    </g>
   </g>
   <g id="text_19">
    <!-- 2-D -->
    <g transform="translate(404.553325 44.176754)scale(0.15 -0.15)">
     <use xlink:href="#DejaVuSans-32"/>
     <use x="63.623047" xlink:href="#DejaVuSans-2d"/>
     <use x="99.707031" xlink:href="#DejaVuSans-44"/>
    </g>
   </g>
   <g id="text_20">
    <!-- bbob - f23 -->
    <defs>
     <path d="M 48.6875 27.296875 
Q 48.6875 37.203125 44.609375 42.84375 
Q 40.53125 48.484375 33.40625 48.484375 
Q 26.265625 48.484375 22.1875 42.84375 
Q 18.109375 37.203125 18.109375 27.296875 
Q 18.109375 17.390625 22.1875 11.75 
Q 26.265625 6.109375 33.40625 6.109375 
Q 40.53125 6.109375 44.609375 11.75 
Q 48.6875 17.390625 48.6875 27.296875 
M 18.109375 46.390625 
Q 20.953125 51.265625 25.265625 53.625 
Q 29.59375 56 35.59375 56 
Q 45.5625 56 51.78125 48.09375 
Q 58.015625 40.1875 58.015625 27.296875 
Q 58.015625 14.40625 51.78125 6.484375 
Q 45.5625 -1.421875 35.59375 -1.421875 
Q 29.59375 -1.421875 25.265625 0.953125 
Q 20.953125 3.328125 18.109375 8.203125 
L 18.109375 0 
L 9.078125 0 
L 9.078125 75.984375 
L 18.109375 75.984375 
z
" id="DejaVuSans-62"/>
    </defs>
    <g transform="translate(82.684525 50.114612)scale(0.1666 -0.1666)">
     <use xlink:href="#DejaVuSans-62"/>
     <use x="63.476562" xlink:href="#DejaVuSans-62"/>
     <use x="126.953125" xlink:href="#DejaVuSans-6f"/>
     <use x="188.134766" xlink:href="#DejaVuSans-62"/>
     <use x="251.611328" xlink:href="#DejaVuSans-20"/>
     <use x="283.398438" xlink:href="#DejaVuSans-2d"/>
     <use x="319.482422" xlink:href="#DejaVuSans-20"/>
     <use x="351.269531" xlink:href="#DejaVuSans-66"/>
     <use x="386.474609" xlink:href="#DejaVuSans-32"/>
     <use x="450.097656" xlink:href="#DejaVuSans-33"/>
    </g>
    <!-- 51 targets in 100..1e-08 -->
    <g transform="translate(82.684525 68.770168)scale(0.1666 -0.1666)">
     <use xlink:href="#DejaVuSans-35"/>
     <use x="63.623047" xlink:href="#DejaVuSans-31"/>
     <use x="127.246094" xlink:href="#DejaVuSans-20"/>
     <use x="159.033203" xlink:href="#DejaVuSans-74"/>
     <use x="198.242188" xlink:href="#DejaVuSans-61"/>
     <use x="259.521484" xlink:href="#DejaVuSans-72"/>
     <use x="300.619141" xlink:href="#DejaVuSans-67"/>
     <use x="364.095703" xlink:href="#DejaVuSans-65"/>
     <use x="425.619141" xlink:href="#DejaVuSans-74"/>
     <use x="464.828125" xlink:href="#DejaVuSans-73"/>
     <use x="516.927734" xlink:href="#DejaVuSans-20"/>
     <use x="548.714844" xlink:href="#DejaVuSans-69"/>
     <use x="576.498047" xlink:href="#DejaVuSans-6e"/>
     <use x="639.876953" xlink:href="#DejaVuSans-20"/>
     <use x="671.664062" xlink:href="#DejaVuSans-31"/>
     <use x="735.287109" xlink:href="#DejaVuSans-30"/>
     <use x="798.910156" xlink:href="#DejaVuSans-30"/>
     <use x="862.533203" xlink:href="#DejaVuSans-2e"/>
     <use x="894.320312" xlink:href="#DejaVuSans-2e"/>
     <use x="926.107422" xlink:href="#DejaVuSans-31"/>
     <use x="989.730469" xlink:href="#DejaVuSans-65"/>
     <use x="1051.253906" xlink:href="#DejaVuSans-2d"/>
     <use x="1087.337891" xlink:href="#DejaVuSans-30"/>
     <use x="1150.960938" xlink:href="#DejaVuSans-38"/>
    </g>
    <!-- 15 instances -->
    <g transform="translate(82.684525 87.425723)scale(0.1666 -0.1666)">
     <use xlink:href="#DejaVuSans-31"/>
     <use x="63.623047" xlink:href="#DejaVuSans-35"/>
     <use x="127.246094" xlink:href="#DejaVuSans-20"/>
     <use x="159.033203" xlink:href="#DejaVuSans-69"/>
     <use x="186.816406" xlink:href="#DejaVuSans-6e"/>
     <use x="250.195312" xlink:href="#DejaVuSans-73"/>
     <use x="302.294922" xlink:href="#DejaVuSans-74"/>
     <use x="341.503906" xlink:href="#DejaVuSans-61"/>
     <use x="402.783203" xlink:href="#DejaVuSans-6e"/>
     <use x="466.162109" xlink:href="#DejaVuSans-63"/>
     <use x="521.142578" xlink:href="#DejaVuSans-65"/>
     <use x="582.666016" xlink:href="#DejaVuSans-73"/>
    </g>
   </g>
   <g id="text_21">
    <!-- v2.1 -->
    <g style="fill:#808080;" transform="translate(246.762388 293.504568)scale(0.1 -0.1)">
     <use xlink:href="#DejaVuSans-76"/>
     <use x="59.179688" xlink:href="#DejaVuSans-32"/>
     <use x="122.802734" xlink:href="#DejaVuSans-2e"/>
     <use x="154.589844" xlink:href="#DejaVuSans-31"/>
    </g>
   </g>
   <g id="text_22">
    <!-- 23 Katsuuras -->
    <defs>
     <path d="M 9.8125 72.90625 
L 19.671875 72.90625 
L 19.671875 42.09375 
L 52.390625 72.90625 
L 65.09375 72.90625 
L 28.90625 38.921875 
L 67.671875 0 
L 54.6875 0 
L 19.671875 35.109375 
L 19.671875 0 
L 9.8125 0 
z
" id="DejaVuSans-4b"/>
    </defs>
    <g transform="translate(178.664575 26.133375)scale(0.24 -0.24)">
     <use xlink:href="#DejaVuSans-32"/>
     <use x="63.623047" xlink:href="#DejaVuSans-33"/>
     <use x="127.246094" xlink:href="#DejaVuSans-20"/>
     <use x="159.033203" xlink:href="#DejaVuSans-4b"/>
     <use x="224.59375" xlink:href="#DejaVuSans-61"/>
     <use x="285.873047" xlink:href="#DejaVuSans-74"/>
     <use x="325.082031" xlink:href="#DejaVuSans-73"/>
     <use x="377.181641" xlink:href="#DejaVuSans-75"/>
     <use x="440.560547" xlink:href="#DejaVuSans-75"/>
     <use x="503.939453" xlink:href="#DejaVuSans-72"/>
     <use x="545.052734" xlink:href="#DejaVuSans-61"/>
     <use x="606.332031" xlink:href="#DejaVuSans-73"/>
    </g>
   </g>
  </g>
 </g>
 <defs>
  <clipPath id="pb52b497890">
   <rect height="266.112" width="357.12" x="79.113325" y="32.133375"/>
  </clipPath>
 </defs>
</svg>
