<?xml version="1.0" encoding="utf-8" standalone="no"?>
<!DOCTYPE svg PUBLIC "-//W3C//DTD SVG 1.1//EN"
  "http://www.w3.org/Graphics/SVG/1.1/DTD/svg11.dtd">
<!-- Created with matplotlib (http://matplotlib.org/) -->
<svg height="353pt" version="1.1" viewBox="0 0 449 353" width="449pt" xmlns="http://www.w3.org/2000/svg" xmlns:xlink="http://www.w3.org/1999/xlink">
 <defs>
  <style type="text/css">
*{stroke-linecap:butt;stroke-linejoin:round;}
  </style>
 </defs>
 <g id="figure_1">
  <g id="patch_1">
   <path d="M 0 353.22225 
L 449.7127 353.22225 
L 449.7127 0 
L 0 0 
z
" style="fill:#ffffff;"/>
  </g>
  <g id="axes_1">
   <g id="patch_2">
    <path d="M 79.113325 298.245375 
L 436.233325 298.245375 
L 436.233325 32.133375 
L 79.113325 32.133375 
z
" style="fill:#ffffff;"/>
   </g>
   <g id="matplotlib.axis_1">
    <g id="xtick_1">
     <g id="line2d_1">
      <path clip-path="url(#p19eb7d4442)" d="M 79.113325 298.245375 
L 79.113325 32.133375 
" style="fill:none;stroke:#b0b0b0;stroke-linecap:square;stroke-width:0.8;"/>
     </g>
     <g id="line2d_2">
      <defs>
       <path d="M 0 0 
L 0 3.5 
" id="mdfa637a676" style="stroke:#000000;stroke-width:0.8;"/>
      </defs>
      <g>
       <use style="stroke:#000000;stroke-width:0.8;" x="79.113325" xlink:href="#mdfa637a676" y="298.245375"/>
      </g>
     </g>
     <g id="text_1">
      <!-- 0 -->
      <defs>
       <path d="M 31.78125 66.40625 
Q 24.171875 66.40625 20.328125 58.90625 
Q 16.5 51.421875 16.5 36.375 
Q 16.5 21.390625 20.328125 13.890625 
Q 24.171875 6.390625 31.78125 6.390625 
Q 39.453125 6.390625 43.28125 13.890625 
Q 47.125 21.390625 47.125 36.375 
Q 47.125 51.421875 43.28125 58.90625 
Q 39.453125 66.40625 31.78125 66.40625 
M 31.78125 74.21875 
Q 44.046875 74.21875 50.515625 64.515625 
Q 56.984375 54.828125 56.984375 36.375 
Q 56.984375 17.96875 50.515625 8.265625 
Q 44.046875 -1.421875 31.78125 -1.421875 
Q 19.53125 -1.421875 13.0625 8.265625 
Q 6.59375 17.96875 6.59375 36.375 
Q 6.59375 54.828125 13.0625 64.515625 
Q 19.53125 74.21875 31.78125 74.21875 
" id="DejaVuSans-30"/>
      </defs>
      <g transform="translate(72.750825 320.44225)scale(0.2 -0.2)">
       <use xlink:href="#DejaVuSans-30"/>
      </g>
     </g>
    </g>
    <g id="xtick_2">
     <g id="line2d_3">
      <path clip-path="url(#p19eb7d4442)" d="M 161.39904 298.245375 
L 161.39904 32.133375 
" style="fill:none;stroke:#b0b0b0;stroke-linecap:square;stroke-width:0.8;"/>
     </g>
     <g id="line2d_4">
      <g>
       <use style="stroke:#000000;stroke-width:0.8;" x="161.39904" xlink:href="#mdfa637a676" y="298.245375"/>
      </g>
     </g>
     <g id="text_2">
      <!-- 2 -->
      <defs>
       <path d="M 19.1875 8.296875 
L 53.609375 8.296875 
L 53.609375 0 
L 7.328125 0 
L 7.328125 8.296875 
Q 12.9375 14.109375 22.625 23.890625 
Q 32.328125 33.6875 34.8125 36.53125 
Q 39.546875 41.84375 41.421875 45.53125 
Q 43.3125 49.21875 43.3125 52.78125 
Q 43.3125 58.59375 39.234375 62.25 
Q 35.15625 65.921875 28.609375 65.921875 
Q 23.96875 65.921875 18.8125 64.3125 
Q 13.671875 62.703125 7.8125 59.421875 
L 7.8125 69.390625 
Q 13.765625 71.78125 18.9375 73 
Q 24.125 74.21875 28.421875 74.21875 
Q 39.75 74.21875 46.484375 68.546875 
Q 53.21875 62.890625 53.21875 53.421875 
Q 53.21875 48.921875 51.53125 44.890625 
Q 49.859375 40.875 45.40625 35.40625 
Q 44.1875 33.984375 37.640625 27.21875 
Q 31.109375 20.453125 19.1875 8.296875 
" id="DejaVuSans-32"/>
      </defs>
      <g transform="translate(155.03654 320.44225)scale(0.2 -0.2)">
       <use xlink:href="#DejaVuSans-32"/>
      </g>
     </g>
    </g>
    <g id="xtick_3">
     <g id="line2d_5">
      <path clip-path="url(#p19eb7d4442)" d="M 243.684754 298.245375 
L 243.684754 32.133375 
" style="fill:none;stroke:#b0b0b0;stroke-linecap:square;stroke-width:0.8;"/>
     </g>
     <g id="line2d_6">
      <g>
       <use style="stroke:#000000;stroke-width:0.8;" x="243.684754" xlink:href="#mdfa637a676" y="298.245375"/>
      </g>
     </g>
     <g id="text_3">
      <!-- 4 -->
      <defs>
       <path d="M 37.796875 64.3125 
L 12.890625 25.390625 
L 37.796875 25.390625 
z
M 35.203125 72.90625 
L 47.609375 72.90625 
L 47.609375 25.390625 
L 58.015625 25.390625 
L 58.015625 17.1875 
L 47.609375 17.1875 
L 47.609375 0 
L 37.796875 0 
L 37.796875 17.1875 
L 4.890625 17.1875 
L 4.890625 26.703125 
z
" id="DejaVuSans-34"/>
      </defs>
      <g transform="translate(237.322254 320.44225)scale(0.2 -0.2)">
       <use xlink:href="#DejaVuSans-34"/>
      </g>
     </g>
    </g>
    <g id="xtick_4">
     <g id="line2d_7">
      <path clip-path="url(#p19eb7d4442)" d="M 325.970468 298.245375 
L 325.970468 32.133375 
" style="fill:none;stroke:#b0b0b0;stroke-linecap:square;stroke-width:0.8;"/>
     </g>
     <g id="line2d_8">
      <g>
       <use style="stroke:#000000;stroke-width:0.8;" x="325.970468" xlink:href="#mdfa637a676" y="298.245375"/>
      </g>
     </g>
     <g id="text_4">
      <!-- 6 -->
      <defs>
       <path d="M 33.015625 40.375 
Q 26.375 40.375 22.484375 35.828125 
Q 18.609375 31.296875 18.609375 23.390625 
Q 18.609375 15.53125 22.484375 10.953125 
Q 26.375 6.390625 33.015625 6.390625 
Q 39.65625 6.390625 43.53125 10.953125 
Q 47.40625 15.53125 47.40625 23.390625 
Q 47.40625 31.296875 43.53125 35.828125 
Q 39.65625 40.375 33.015625 40.375 
M 52.59375 71.296875 
L 52.59375 62.3125 
Q 48.875 64.0625 45.09375 64.984375 
Q 41.3125 65.921875 37.59375 65.921875 
Q 27.828125 65.921875 22.671875 59.328125 
Q 17.53125 52.734375 16.796875 39.40625 
Q 19.671875 43.65625 24.015625 45.921875 
Q 28.375 48.1875 33.59375 48.1875 
Q 44.578125 48.1875 50.953125 41.515625 
Q 57.328125 34.859375 57.328125 23.390625 
Q 57.328125 12.15625 50.6875 5.359375 
Q 44.046875 -1.421875 33.015625 -1.421875 
Q 20.359375 -1.421875 13.671875 8.265625 
Q 6.984375 17.96875 6.984375 36.375 
Q 6.984375 53.65625 15.1875 63.9375 
Q 23.390625 74.21875 37.203125 74.21875 
Q 40.921875 74.21875 44.703125 73.484375 
Q 48.484375 72.75 52.59375 71.296875 
" id="DejaVuSans-36"/>
      </defs>
      <g transform="translate(319.607968 320.44225)scale(0.2 -0.2)">
       <use xlink:href="#DejaVuSans-36"/>
      </g>
     </g>
    </g>
    <g id="xtick_5">
     <g id="line2d_9">
      <path clip-path="url(#p19eb7d4442)" d="M 408.256183 298.245375 
L 408.256183 32.133375 
" style="fill:none;stroke:#b0b0b0;stroke-linecap:square;stroke-width:0.8;"/>
     </g>
     <g id="line2d_10">
      <g>
       <use style="stroke:#000000;stroke-width:0.8;" x="408.256183" xlink:href="#mdfa637a676" y="298.245375"/>
      </g>
     </g>
     <g id="text_5">
      <!-- 8 -->
      <defs>
       <path d="M 31.78125 34.625 
Q 24.75 34.625 20.71875 30.859375 
Q 16.703125 27.09375 16.703125 20.515625 
Q 16.703125 13.921875 20.71875 10.15625 
Q 24.75 6.390625 31.78125 6.390625 
Q 38.8125 6.390625 42.859375 10.171875 
Q 46.921875 13.96875 46.921875 20.515625 
Q 46.921875 27.09375 42.890625 30.859375 
Q 38.875 34.625 31.78125 34.625 
M 21.921875 38.8125 
Q 15.578125 40.375 12.03125 44.71875 
Q 8.5 49.078125 8.5 55.328125 
Q 8.5 64.0625 14.71875 69.140625 
Q 20.953125 74.21875 31.78125 74.21875 
Q 42.671875 74.21875 48.875 69.140625 
Q 55.078125 64.0625 55.078125 55.328125 
Q 55.078125 49.078125 51.53125 44.71875 
Q 48 40.375 41.703125 38.8125 
Q 48.828125 37.15625 52.796875 32.3125 
Q 56.78125 27.484375 56.78125 20.515625 
Q 56.78125 9.90625 50.3125 4.234375 
Q 43.84375 -1.421875 31.78125 -1.421875 
Q 19.734375 -1.421875 13.25 4.234375 
Q 6.78125 9.90625 6.78125 20.515625 
Q 6.78125 27.484375 10.78125 32.3125 
Q 14.796875 37.15625 21.921875 38.8125 
M 18.3125 54.390625 
Q 18.3125 48.734375 21.84375 45.5625 
Q 25.390625 42.390625 31.78125 42.390625 
Q 38.140625 42.390625 41.71875 45.5625 
Q 45.3125 48.734375 45.3125 54.390625 
Q 45.3125 60.0625 41.71875 63.234375 
Q 38.140625 66.40625 31.78125 66.40625 
Q 25.390625 66.40625 21.84375 63.234375 
Q 18.3125 60.0625 18.3125 54.390625 
" id="DejaVuSans-38"/>
      </defs>
      <g transform="translate(401.893683 320.44225)scale(0.2 -0.2)">
       <use xlink:href="#DejaVuSans-38"/>
      </g>
     </g>
    </g>
    <g id="xtick_6">
     <g id="line2d_11">
      <defs>
       <path d="M 0 0 
L 0 2 
" id="m5c6214a30a" style="stroke:#000000;stroke-width:0.6;"/>
      </defs>
      <g>
       <use style="stroke:#000000;stroke-width:0.6;" x="91.498559" xlink:href="#m5c6214a30a" y="298.245375"/>
      </g>
     </g>
    </g>
    <g id="xtick_7">
     <g id="line2d_12">
      <g>
       <use style="stroke:#000000;stroke-width:0.6;" x="103.883794" xlink:href="#m5c6214a30a" y="298.245375"/>
      </g>
     </g>
    </g>
    <g id="xtick_8">
     <g id="line2d_13">
      <g>
       <use style="stroke:#000000;stroke-width:0.6;" x="111.128691" xlink:href="#m5c6214a30a" y="298.245375"/>
      </g>
     </g>
    </g>
    <g id="xtick_9">
     <g id="line2d_14">
      <g>
       <use style="stroke:#000000;stroke-width:0.6;" x="116.269028" xlink:href="#m5c6214a30a" y="298.245375"/>
      </g>
     </g>
    </g>
    <g id="xtick_10">
     <g id="line2d_15">
      <g>
       <use style="stroke:#000000;stroke-width:0.6;" x="173.784274" xlink:href="#m5c6214a30a" y="298.245375"/>
      </g>
     </g>
    </g>
    <g id="xtick_11">
     <g id="line2d_16">
      <g>
       <use style="stroke:#000000;stroke-width:0.6;" x="186.169508" xlink:href="#m5c6214a30a" y="298.245375"/>
      </g>
     </g>
    </g>
    <g id="xtick_12">
     <g id="line2d_17">
      <g>
       <use style="stroke:#000000;stroke-width:0.6;" x="193.414405" xlink:href="#m5c6214a30a" y="298.245375"/>
      </g>
     </g>
    </g>
    <g id="xtick_13">
     <g id="line2d_18">
      <g>
       <use style="stroke:#000000;stroke-width:0.6;" x="198.554742" xlink:href="#m5c6214a30a" y="298.245375"/>
      </g>
     </g>
    </g>
    <g id="xtick_14">
     <g id="line2d_19">
      <g>
       <use style="stroke:#000000;stroke-width:0.6;" x="256.069988" xlink:href="#m5c6214a30a" y="298.245375"/>
      </g>
     </g>
    </g>
    <g id="xtick_15">
     <g id="line2d_20">
      <g>
       <use style="stroke:#000000;stroke-width:0.6;" x="268.455222" xlink:href="#m5c6214a30a" y="298.245375"/>
      </g>
     </g>
    </g>
    <g id="xtick_16">
     <g id="line2d_21">
      <g>
       <use style="stroke:#000000;stroke-width:0.6;" x="275.70012" xlink:href="#m5c6214a30a" y="298.245375"/>
      </g>
     </g>
    </g>
    <g id="xtick_17">
     <g id="line2d_22">
      <g>
       <use style="stroke:#000000;stroke-width:0.6;" x="280.840456" xlink:href="#m5c6214a30a" y="298.245375"/>
      </g>
     </g>
    </g>
    <g id="xtick_18">
     <g id="line2d_23">
      <g>
       <use style="stroke:#000000;stroke-width:0.6;" x="338.355702" xlink:href="#m5c6214a30a" y="298.245375"/>
      </g>
     </g>
    </g>
    <g id="xtick_19">
     <g id="line2d_24">
      <g>
       <use style="stroke:#000000;stroke-width:0.6;" x="350.740936" xlink:href="#m5c6214a30a" y="298.245375"/>
      </g>
     </g>
    </g>
    <g id="xtick_20">
     <g id="line2d_25">
      <g>
       <use style="stroke:#000000;stroke-width:0.6;" x="357.985834" xlink:href="#m5c6214a30a" y="298.245375"/>
      </g>
     </g>
    </g>
    <g id="xtick_21">
     <g id="line2d_26">
      <g>
       <use style="stroke:#000000;stroke-width:0.6;" x="363.126171" xlink:href="#m5c6214a30a" y="298.245375"/>
      </g>
     </g>
    </g>
    <g id="xtick_22">
     <g id="line2d_27">
      <g>
       <use style="stroke:#000000;stroke-width:0.6;" x="420.641417" xlink:href="#m5c6214a30a" y="298.245375"/>
      </g>
     </g>
    </g>
    <g id="xtick_23">
     <g id="line2d_28">
      <g>
       <use style="stroke:#000000;stroke-width:0.6;" x="433.026651" xlink:href="#m5c6214a30a" y="298.245375"/>
      </g>
     </g>
    </g>
    <g id="text_6">
     <!-- log10 of (# f-evals / dimension) -->
     <defs>
      <path d="M 9.421875 75.984375 
L 18.40625 75.984375 
L 18.40625 0 
L 9.421875 0 
z
" id="DejaVuSans-6c"/>
      <path d="M 30.609375 48.390625 
Q 23.390625 48.390625 19.1875 42.75 
Q 14.984375 37.109375 14.984375 27.296875 
Q 14.984375 17.484375 19.15625 11.84375 
Q 23.34375 6.203125 30.609375 6.203125 
Q 37.796875 6.203125 41.984375 11.859375 
Q 46.1875 17.53125 46.1875 27.296875 
Q 46.1875 37.015625 41.984375 42.703125 
Q 37.796875 48.390625 30.609375 48.390625 
M 30.609375 56 
Q 42.328125 56 49.015625 48.375 
Q 55.71875 40.765625 55.71875 27.296875 
Q 55.71875 13.875 49.015625 6.21875 
Q 42.328125 -1.421875 30.609375 -1.421875 
Q 18.84375 -1.421875 12.171875 6.21875 
Q 5.515625 13.875 5.515625 27.296875 
Q 5.515625 40.765625 12.171875 48.375 
Q 18.84375 56 30.609375 56 
" id="DejaVuSans-6f"/>
      <path d="M 45.40625 27.984375 
Q 45.40625 37.75 41.375 43.109375 
Q 37.359375 48.484375 30.078125 48.484375 
Q 22.859375 48.484375 18.828125 43.109375 
Q 14.796875 37.75 14.796875 27.984375 
Q 14.796875 18.265625 18.828125 12.890625 
Q 22.859375 7.515625 30.078125 7.515625 
Q 37.359375 7.515625 41.375 12.890625 
Q 45.40625 18.265625 45.40625 27.984375 
M 54.390625 6.78125 
Q 54.390625 -7.171875 48.1875 -13.984375 
Q 42 -20.796875 29.203125 -20.796875 
Q 24.46875 -20.796875 20.265625 -20.09375 
Q 16.0625 -19.390625 12.109375 -17.921875 
L 12.109375 -9.1875 
Q 16.0625 -11.328125 19.921875 -12.34375 
Q 23.78125 -13.375 27.78125 -13.375 
Q 36.625 -13.375 41.015625 -8.765625 
Q 45.40625 -4.15625 45.40625 5.171875 
L 45.40625 9.625 
Q 42.625 4.78125 38.28125 2.390625 
Q 33.9375 0 27.875 0 
Q 17.828125 0 11.671875 7.65625 
Q 5.515625 15.328125 5.515625 27.984375 
Q 5.515625 40.671875 11.671875 48.328125 
Q 17.828125 56 27.875 56 
Q 33.9375 56 38.28125 53.609375 
Q 42.625 51.21875 45.40625 46.390625 
L 45.40625 54.6875 
L 54.390625 54.6875 
z
" id="DejaVuSans-67"/>
      <path d="M 12.40625 8.296875 
L 28.515625 8.296875 
L 28.515625 63.921875 
L 10.984375 60.40625 
L 10.984375 69.390625 
L 28.421875 72.90625 
L 38.28125 72.90625 
L 38.28125 8.296875 
L 54.390625 8.296875 
L 54.390625 0 
L 12.40625 0 
z
" id="DejaVuSans-31"/>
      <path id="DejaVuSans-20"/>
      <path d="M 37.109375 75.984375 
L 37.109375 68.5 
L 28.515625 68.5 
Q 23.6875 68.5 21.796875 66.546875 
Q 19.921875 64.59375 19.921875 59.515625 
L 19.921875 54.6875 
L 34.71875 54.6875 
L 34.71875 47.703125 
L 19.921875 47.703125 
L 19.921875 0 
L 10.890625 0 
L 10.890625 47.703125 
L 2.296875 47.703125 
L 2.296875 54.6875 
L 10.890625 54.6875 
L 10.890625 58.5 
Q 10.890625 67.625 15.140625 71.796875 
Q 19.390625 75.984375 28.609375 75.984375 
z
" id="DejaVuSans-66"/>
      <path d="M 31 75.875 
Q 24.46875 64.65625 21.28125 53.65625 
Q 18.109375 42.671875 18.109375 31.390625 
Q 18.109375 20.125 21.3125 9.0625 
Q 24.515625 -2 31 -13.1875 
L 23.1875 -13.1875 
Q 15.875 -1.703125 12.234375 9.375 
Q 8.59375 20.453125 8.59375 31.390625 
Q 8.59375 42.28125 12.203125 53.3125 
Q 15.828125 64.359375 23.1875 75.875 
z
" id="DejaVuSans-28"/>
      <path d="M 51.125 44 
L 36.921875 44 
L 32.8125 27.6875 
L 47.125 27.6875 
z
M 43.796875 71.78125 
L 38.71875 51.515625 
L 52.984375 51.515625 
L 58.109375 71.78125 
L 65.921875 71.78125 
L 60.890625 51.515625 
L 76.125 51.515625 
L 76.125 44 
L 58.984375 44 
L 54.984375 27.6875 
L 70.515625 27.6875 
L 70.515625 20.21875 
L 53.078125 20.21875 
L 48 0 
L 40.1875 0 
L 45.21875 20.21875 
L 30.90625 20.21875 
L 25.875 0 
L 18.015625 0 
L 23.09375 20.21875 
L 7.71875 20.21875 
L 7.71875 27.6875 
L 24.90625 27.6875 
L 29 44 
L 13.28125 44 
L 13.28125 51.515625 
L 30.90625 51.515625 
L 35.890625 71.78125 
z
" id="DejaVuSans-23"/>
      <path d="M 4.890625 31.390625 
L 31.203125 31.390625 
L 31.203125 23.390625 
L 4.890625 23.390625 
z
" id="DejaVuSans-2d"/>
      <path d="M 56.203125 29.59375 
L 56.203125 25.203125 
L 14.890625 25.203125 
Q 15.484375 15.921875 20.484375 11.0625 
Q 25.484375 6.203125 34.421875 6.203125 
Q 39.59375 6.203125 44.453125 7.46875 
Q 49.3125 8.734375 54.109375 11.28125 
L 54.109375 2.78125 
Q 49.265625 0.734375 44.1875 -0.34375 
Q 39.109375 -1.421875 33.890625 -1.421875 
Q 20.796875 -1.421875 13.15625 6.1875 
Q 5.515625 13.8125 5.515625 26.8125 
Q 5.515625 40.234375 12.765625 48.109375 
Q 20.015625 56 32.328125 56 
Q 43.359375 56 49.78125 48.890625 
Q 56.203125 41.796875 56.203125 29.59375 
M 47.21875 32.234375 
Q 47.125 39.59375 43.09375 43.984375 
Q 39.0625 48.390625 32.421875 48.390625 
Q 24.90625 48.390625 20.390625 44.140625 
Q 15.875 39.890625 15.1875 32.171875 
z
" id="DejaVuSans-65"/>
      <path d="M 2.984375 54.6875 
L 12.5 54.6875 
L 29.59375 8.796875 
L 46.6875 54.6875 
L 56.203125 54.6875 
L 35.6875 0 
L 23.484375 0 
z
" id="DejaVuSans-76"/>
      <path d="M 34.28125 27.484375 
Q 23.390625 27.484375 19.1875 25 
Q 14.984375 22.515625 14.984375 16.5 
Q 14.984375 11.71875 18.140625 8.90625 
Q 21.296875 6.109375 26.703125 6.109375 
Q 34.1875 6.109375 38.703125 11.40625 
Q 43.21875 16.703125 43.21875 25.484375 
L 43.21875 27.484375 
z
M 52.203125 31.203125 
L 52.203125 0 
L 43.21875 0 
L 43.21875 8.296875 
Q 40.140625 3.328125 35.546875 0.953125 
Q 30.953125 -1.421875 24.3125 -1.421875 
Q 15.921875 -1.421875 10.953125 3.296875 
Q 6 8.015625 6 15.921875 
Q 6 25.140625 12.171875 29.828125 
Q 18.359375 34.515625 30.609375 34.515625 
L 43.21875 34.515625 
L 43.21875 35.40625 
Q 43.21875 41.609375 39.140625 45 
Q 35.0625 48.390625 27.6875 48.390625 
Q 23 48.390625 18.546875 47.265625 
Q 14.109375 46.140625 10.015625 43.890625 
L 10.015625 52.203125 
Q 14.9375 54.109375 19.578125 55.046875 
Q 24.21875 56 28.609375 56 
Q 40.484375 56 46.34375 49.84375 
Q 52.203125 43.703125 52.203125 31.203125 
" id="DejaVuSans-61"/>
      <path d="M 44.28125 53.078125 
L 44.28125 44.578125 
Q 40.484375 46.53125 36.375 47.5 
Q 32.28125 48.484375 27.875 48.484375 
Q 21.1875 48.484375 17.84375 46.4375 
Q 14.5 44.390625 14.5 40.28125 
Q 14.5 37.15625 16.890625 35.375 
Q 19.28125 33.59375 26.515625 31.984375 
L 29.59375 31.296875 
Q 39.15625 29.25 43.1875 25.515625 
Q 47.21875 21.78125 47.21875 15.09375 
Q 47.21875 7.46875 41.1875 3.015625 
Q 35.15625 -1.421875 24.609375 -1.421875 
Q 20.21875 -1.421875 15.453125 -0.5625 
Q 10.6875 0.296875 5.421875 2 
L 5.421875 11.28125 
Q 10.40625 8.6875 15.234375 7.390625 
Q 20.0625 6.109375 24.8125 6.109375 
Q 31.15625 6.109375 34.5625 8.28125 
Q 37.984375 10.453125 37.984375 14.40625 
Q 37.984375 18.0625 35.515625 20.015625 
Q 33.0625 21.96875 24.703125 23.78125 
L 21.578125 24.515625 
Q 13.234375 26.265625 9.515625 29.90625 
Q 5.8125 33.546875 5.8125 39.890625 
Q 5.8125 47.609375 11.28125 51.796875 
Q 16.75 56 26.8125 56 
Q 31.78125 56 36.171875 55.265625 
Q 40.578125 54.546875 44.28125 53.078125 
" id="DejaVuSans-73"/>
      <path d="M 25.390625 72.90625 
L 33.6875 72.90625 
L 8.296875 -9.28125 
L 0 -9.28125 
z
" id="DejaVuSans-2f"/>
      <path d="M 45.40625 46.390625 
L 45.40625 75.984375 
L 54.390625 75.984375 
L 54.390625 0 
L 45.40625 0 
L 45.40625 8.203125 
Q 42.578125 3.328125 38.25 0.953125 
Q 33.9375 -1.421875 27.875 -1.421875 
Q 17.96875 -1.421875 11.734375 6.484375 
Q 5.515625 14.40625 5.515625 27.296875 
Q 5.515625 40.1875 11.734375 48.09375 
Q 17.96875 56 27.875 56 
Q 33.9375 56 38.25 53.625 
Q 42.578125 51.265625 45.40625 46.390625 
M 14.796875 27.296875 
Q 14.796875 17.390625 18.875 11.75 
Q 22.953125 6.109375 30.078125 6.109375 
Q 37.203125 6.109375 41.296875 11.75 
Q 45.40625 17.390625 45.40625 27.296875 
Q 45.40625 37.203125 41.296875 42.84375 
Q 37.203125 48.484375 30.078125 48.484375 
Q 22.953125 48.484375 18.875 42.84375 
Q 14.796875 37.203125 14.796875 27.296875 
" id="DejaVuSans-64"/>
      <path d="M 9.421875 54.6875 
L 18.40625 54.6875 
L 18.40625 0 
L 9.421875 0 
z
M 9.421875 75.984375 
L 18.40625 75.984375 
L 18.40625 64.59375 
L 9.421875 64.59375 
z
" id="DejaVuSans-69"/>
      <path d="M 52 44.1875 
Q 55.375 50.25 60.0625 53.125 
Q 64.75 56 71.09375 56 
Q 79.640625 56 84.28125 50.015625 
Q 88.921875 44.046875 88.921875 33.015625 
L 88.921875 0 
L 79.890625 0 
L 79.890625 32.71875 
Q 79.890625 40.578125 77.09375 44.375 
Q 74.3125 48.1875 68.609375 48.1875 
Q 61.625 48.1875 57.5625 43.546875 
Q 53.515625 38.921875 53.515625 30.90625 
L 53.515625 0 
L 44.484375 0 
L 44.484375 32.71875 
Q 44.484375 40.625 41.703125 44.40625 
Q 38.921875 48.1875 33.109375 48.1875 
Q 26.21875 48.1875 22.15625 43.53125 
Q 18.109375 38.875 18.109375 30.90625 
L 18.109375 0 
L 9.078125 0 
L 9.078125 54.6875 
L 18.109375 54.6875 
L 18.109375 46.1875 
Q 21.1875 51.21875 25.484375 53.609375 
Q 29.78125 56 35.6875 56 
Q 41.65625 56 45.828125 52.96875 
Q 50 49.953125 52 44.1875 
" id="DejaVuSans-6d"/>
      <path d="M 54.890625 33.015625 
L 54.890625 0 
L 45.90625 0 
L 45.90625 32.71875 
Q 45.90625 40.484375 42.875 44.328125 
Q 39.84375 48.1875 33.796875 48.1875 
Q 26.515625 48.1875 22.3125 43.546875 
Q 18.109375 38.921875 18.109375 30.90625 
L 18.109375 0 
L 9.078125 0 
L 9.078125 54.6875 
L 18.109375 54.6875 
L 18.109375 46.1875 
Q 21.34375 51.125 25.703125 53.5625 
Q 30.078125 56 35.796875 56 
Q 45.21875 56 50.046875 50.171875 
Q 54.890625 44.34375 54.890625 33.015625 
" id="DejaVuSans-6e"/>
      <path d="M 8.015625 75.875 
L 15.828125 75.875 
Q 23.140625 64.359375 26.78125 53.3125 
Q 30.421875 42.28125 30.421875 31.390625 
Q 30.421875 20.453125 26.78125 9.375 
Q 23.140625 -1.703125 15.828125 -13.1875 
L 8.015625 -13.1875 
Q 14.5 -2 17.703125 9.0625 
Q 20.90625 20.125 20.90625 31.390625 
Q 20.90625 42.671875 17.703125 53.65625 
Q 14.5 64.65625 8.015625 75.875 
" id="DejaVuSans-29"/>
     </defs>
     <g transform="translate(115.328482 342.278812)scale(0.18 -0.18)">
      <use xlink:href="#DejaVuSans-6c"/>
      <use x="27.783203" xlink:href="#DejaVuSans-6f"/>
      <use x="88.964844" xlink:href="#DejaVuSans-67"/>
      <use x="152.441406" xlink:href="#DejaVuSans-31"/>
      <use x="216.064453" xlink:href="#DejaVuSans-30"/>
      <use x="279.6875" xlink:href="#DejaVuSans-20"/>
      <use x="311.474609" xlink:href="#DejaVuSans-6f"/>
      <use x="372.65625" xlink:href="#DejaVuSans-66"/>
      <use x="407.861328" xlink:href="#DejaVuSans-20"/>
      <use x="439.648438" xlink:href="#DejaVuSans-28"/>
      <use x="478.662109" xlink:href="#DejaVuSans-23"/>
      <use x="562.451172" xlink:href="#DejaVuSans-20"/>
      <use x="594.238281" xlink:href="#DejaVuSans-66"/>
      <use x="629.365234" xlink:href="#DejaVuSans-2d"/>
      <use x="665.449219" xlink:href="#DejaVuSans-65"/>
      <use x="726.972656" xlink:href="#DejaVuSans-76"/>
      <use x="786.152344" xlink:href="#DejaVuSans-61"/>
      <use x="847.431641" xlink:href="#DejaVuSans-6c"/>
      <use x="875.214844" xlink:href="#DejaVuSans-73"/>
      <use x="927.314453" xlink:href="#DejaVuSans-20"/>
      <use x="959.101562" xlink:href="#DejaVuSans-2f"/>
      <use x="992.792969" xlink:href="#DejaVuSans-20"/>
      <use x="1024.580078" xlink:href="#DejaVuSans-64"/>
      <use x="1088.056641" xlink:href="#DejaVuSans-69"/>
      <use x="1115.839844" xlink:href="#DejaVuSans-6d"/>
      <use x="1213.251953" xlink:href="#DejaVuSans-65"/>
      <use x="1274.775391" xlink:href="#DejaVuSans-6e"/>
      <use x="1338.154297" xlink:href="#DejaVuSans-73"/>
      <use x="1390.253906" xlink:href="#DejaVuSans-69"/>
      <use x="1418.037109" xlink:href="#DejaVuSans-6f"/>
      <use x="1479.21875" xlink:href="#DejaVuSans-6e"/>
      <use x="1542.597656" xlink:href="#DejaVuSans-29"/>
     </g>
    </g>
   </g>
   <g id="matplotlib.axis_2">
    <g id="ytick_1">
     <g id="line2d_29">
      <path clip-path="url(#p19eb7d4442)" d="M 79.113325 298.245375 
L 436.233325 298.245375 
" style="fill:none;stroke:#b0b0b0;stroke-linecap:square;stroke-width:0.8;"/>
     </g>
     <g id="line2d_30">
      <defs>
       <path d="M 0 0 
L -3.5 0 
" id="m19b038d834" style="stroke:#000000;stroke-width:0.8;"/>
      </defs>
      <g>
       <use style="stroke:#000000;stroke-width:0.8;" x="79.113325" xlink:href="#m19b038d834" y="298.245375"/>
      </g>
     </g>
     <g id="text_7">
      <!-- 0.0 -->
      <defs>
       <path d="M 10.6875 12.40625 
L 21 12.40625 
L 21 0 
L 10.6875 0 
z
" id="DejaVuSans-2e"/>
      </defs>
      <g transform="translate(40.307075 305.843812)scale(0.2 -0.2)">
       <use xlink:href="#DejaVuSans-30"/>
       <use x="63.623047" xlink:href="#DejaVuSans-2e"/>
       <use x="95.410156" xlink:href="#DejaVuSans-30"/>
      </g>
     </g>
    </g>
    <g id="ytick_2">
     <g id="line2d_31">
      <path clip-path="url(#p19eb7d4442)" d="M 79.113325 245.549929 
L 436.233325 245.549929 
" style="fill:none;stroke:#b0b0b0;stroke-linecap:square;stroke-width:0.8;"/>
     </g>
     <g id="line2d_32">
      <g>
       <use style="stroke:#000000;stroke-width:0.8;" x="79.113325" xlink:href="#m19b038d834" y="245.549929"/>
      </g>
     </g>
     <g id="text_8">
      <!-- 0.2 -->
      <g transform="translate(40.307075 253.148367)scale(0.2 -0.2)">
       <use xlink:href="#DejaVuSans-30"/>
       <use x="63.623047" xlink:href="#DejaVuSans-2e"/>
       <use x="95.410156" xlink:href="#DejaVuSans-32"/>
      </g>
     </g>
    </g>
    <g id="ytick_3">
     <g id="line2d_33">
      <path clip-path="url(#p19eb7d4442)" d="M 79.113325 192.854484 
L 436.233325 192.854484 
" style="fill:none;stroke:#b0b0b0;stroke-linecap:square;stroke-width:0.8;"/>
     </g>
     <g id="line2d_34">
      <g>
       <use style="stroke:#000000;stroke-width:0.8;" x="79.113325" xlink:href="#m19b038d834" y="192.854484"/>
      </g>
     </g>
     <g id="text_9">
      <!-- 0.4 -->
      <g transform="translate(40.307075 200.452921)scale(0.2 -0.2)">
       <use xlink:href="#DejaVuSans-30"/>
       <use x="63.623047" xlink:href="#DejaVuSans-2e"/>
       <use x="95.410156" xlink:href="#DejaVuSans-34"/>
      </g>
     </g>
    </g>
    <g id="ytick_4">
     <g id="line2d_35">
      <path clip-path="url(#p19eb7d4442)" d="M 79.113325 140.159038 
L 436.233325 140.159038 
" style="fill:none;stroke:#b0b0b0;stroke-linecap:square;stroke-width:0.8;"/>
     </g>
     <g id="line2d_36">
      <g>
       <use style="stroke:#000000;stroke-width:0.8;" x="79.113325" xlink:href="#m19b038d834" y="140.159038"/>
      </g>
     </g>
     <g id="text_10">
      <!-- 0.6 -->
      <g transform="translate(40.307075 147.757476)scale(0.2 -0.2)">
       <use xlink:href="#DejaVuSans-30"/>
       <use x="63.623047" xlink:href="#DejaVuSans-2e"/>
       <use x="95.410156" xlink:href="#DejaVuSans-36"/>
      </g>
     </g>
    </g>
    <g id="ytick_5">
     <g id="line2d_37">
      <path clip-path="url(#p19eb7d4442)" d="M 79.113325 87.463593 
L 436.233325 87.463593 
" style="fill:none;stroke:#b0b0b0;stroke-linecap:square;stroke-width:0.8;"/>
     </g>
     <g id="line2d_38">
      <g>
       <use style="stroke:#000000;stroke-width:0.8;" x="79.113325" xlink:href="#m19b038d834" y="87.463593"/>
      </g>
     </g>
     <g id="text_11">
      <!-- 0.8 -->
      <g transform="translate(40.307075 95.06203)scale(0.2 -0.2)">
       <use xlink:href="#DejaVuSans-30"/>
       <use x="63.623047" xlink:href="#DejaVuSans-2e"/>
       <use x="95.410156" xlink:href="#DejaVuSans-38"/>
      </g>
     </g>
    </g>
    <g id="ytick_6">
     <g id="line2d_39">
      <path clip-path="url(#p19eb7d4442)" d="M 79.113325 34.768147 
L 436.233325 34.768147 
" style="fill:none;stroke:#b0b0b0;stroke-linecap:square;stroke-width:0.8;"/>
     </g>
     <g id="line2d_40">
      <g>
       <use style="stroke:#000000;stroke-width:0.8;" x="79.113325" xlink:href="#m19b038d834" y="34.768147"/>
      </g>
     </g>
     <g id="text_12">
      <!-- 1.0 -->
      <g transform="translate(40.307075 42.366585)scale(0.2 -0.2)">
       <use xlink:href="#DejaVuSans-31"/>
       <use x="63.623047" xlink:href="#DejaVuSans-2e"/>
       <use x="95.410156" xlink:href="#DejaVuSans-30"/>
      </g>
     </g>
    </g>
    <g id="text_13">
     <!-- Proportion of function+target pairs -->
     <defs>
      <path d="M 19.671875 64.796875 
L 19.671875 37.40625 
L 32.078125 37.40625 
Q 38.96875 37.40625 42.71875 40.96875 
Q 46.484375 44.53125 46.484375 51.125 
Q 46.484375 57.671875 42.71875 61.234375 
Q 38.96875 64.796875 32.078125 64.796875 
z
M 9.8125 72.90625 
L 32.078125 72.90625 
Q 44.34375 72.90625 50.609375 67.359375 
Q 56.890625 61.8125 56.890625 51.125 
Q 56.890625 40.328125 50.609375 34.8125 
Q 44.34375 29.296875 32.078125 29.296875 
L 19.671875 29.296875 
L 19.671875 0 
L 9.8125 0 
z
" id="DejaVuSans-50"/>
      <path d="M 41.109375 46.296875 
Q 39.59375 47.171875 37.8125 47.578125 
Q 36.03125 48 33.890625 48 
Q 26.265625 48 22.1875 43.046875 
Q 18.109375 38.09375 18.109375 28.8125 
L 18.109375 0 
L 9.078125 0 
L 9.078125 54.6875 
L 18.109375 54.6875 
L 18.109375 46.1875 
Q 20.953125 51.171875 25.484375 53.578125 
Q 30.03125 56 36.53125 56 
Q 37.453125 56 38.578125 55.875 
Q 39.703125 55.765625 41.0625 55.515625 
z
" id="DejaVuSans-72"/>
      <path d="M 18.109375 8.203125 
L 18.109375 -20.796875 
L 9.078125 -20.796875 
L 9.078125 54.6875 
L 18.109375 54.6875 
L 18.109375 46.390625 
Q 20.953125 51.265625 25.265625 53.625 
Q 29.59375 56 35.59375 56 
Q 45.5625 56 51.78125 48.09375 
Q 58.015625 40.1875 58.015625 27.296875 
Q 58.015625 14.40625 51.78125 6.484375 
Q 45.5625 -1.421875 35.59375 -1.421875 
Q 29.59375 -1.421875 25.265625 0.953125 
Q 20.953125 3.328125 18.109375 8.203125 
M 48.6875 27.296875 
Q 48.6875 37.203125 44.609375 42.84375 
Q 40.53125 48.484375 33.40625 48.484375 
Q 26.265625 48.484375 22.1875 42.84375 
Q 18.109375 37.203125 18.109375 27.296875 
Q 18.109375 17.390625 22.1875 11.75 
Q 26.265625 6.109375 33.40625 6.109375 
Q 40.53125 6.109375 44.609375 11.75 
Q 48.6875 17.390625 48.6875 27.296875 
" id="DejaVuSans-70"/>
      <path d="M 18.3125 70.21875 
L 18.3125 54.6875 
L 36.8125 54.6875 
L 36.8125 47.703125 
L 18.3125 47.703125 
L 18.3125 18.015625 
Q 18.3125 11.328125 20.140625 9.421875 
Q 21.96875 7.515625 27.59375 7.515625 
L 36.8125 7.515625 
L 36.8125 0 
L 27.59375 0 
Q 17.1875 0 13.234375 3.875 
Q 9.28125 7.765625 9.28125 18.015625 
L 9.28125 47.703125 
L 2.6875 47.703125 
L 2.6875 54.6875 
L 9.28125 54.6875 
L 9.28125 70.21875 
z
" id="DejaVuSans-74"/>
      <path d="M 8.5 21.578125 
L 8.5 54.6875 
L 17.484375 54.6875 
L 17.484375 21.921875 
Q 17.484375 14.15625 20.5 10.265625 
Q 23.53125 6.390625 29.59375 6.390625 
Q 36.859375 6.390625 41.078125 11.03125 
Q 45.3125 15.671875 45.3125 23.6875 
L 45.3125 54.6875 
L 54.296875 54.6875 
L 54.296875 0 
L 45.3125 0 
L 45.3125 8.40625 
Q 42.046875 3.421875 37.71875 1 
Q 33.40625 -1.421875 27.6875 -1.421875 
Q 18.265625 -1.421875 13.375 4.4375 
Q 8.5 10.296875 8.5 21.578125 
M 31.109375 56 
z
" id="DejaVuSans-75"/>
      <path d="M 48.78125 52.59375 
L 48.78125 44.1875 
Q 44.96875 46.296875 41.140625 47.34375 
Q 37.3125 48.390625 33.40625 48.390625 
Q 24.65625 48.390625 19.8125 42.84375 
Q 14.984375 37.3125 14.984375 27.296875 
Q 14.984375 17.28125 19.8125 11.734375 
Q 24.65625 6.203125 33.40625 6.203125 
Q 37.3125 6.203125 41.140625 7.25 
Q 44.96875 8.296875 48.78125 10.40625 
L 48.78125 2.09375 
Q 45.015625 0.34375 40.984375 -0.53125 
Q 36.96875 -1.421875 32.421875 -1.421875 
Q 20.0625 -1.421875 12.78125 6.34375 
Q 5.515625 14.109375 5.515625 27.296875 
Q 5.515625 40.671875 12.859375 48.328125 
Q 20.21875 56 33.015625 56 
Q 37.15625 56 41.109375 55.140625 
Q 45.0625 54.296875 48.78125 52.59375 
" id="DejaVuSans-63"/>
      <path d="M 46 62.703125 
L 46 35.5 
L 73.1875 35.5 
L 73.1875 27.203125 
L 46 27.203125 
L 46 0 
L 37.796875 0 
L 37.796875 27.203125 
L 10.59375 27.203125 
L 10.59375 35.5 
L 37.796875 35.5 
L 37.796875 62.703125 
z
" id="DejaVuSans-2b"/>
     </defs>
     <g transform="translate(32.563638 323.17875)rotate(-90)scale(0.18 -0.18)">
      <use xlink:href="#DejaVuSans-50"/>
      <use x="60.287109" xlink:href="#DejaVuSans-72"/>
      <use x="101.369141" xlink:href="#DejaVuSans-6f"/>
      <use x="162.550781" xlink:href="#DejaVuSans-70"/>
      <use x="226.027344" xlink:href="#DejaVuSans-6f"/>
      <use x="287.208984" xlink:href="#DejaVuSans-72"/>
      <use x="328.322266" xlink:href="#DejaVuSans-74"/>
      <use x="367.53125" xlink:href="#DejaVuSans-69"/>
      <use x="395.314453" xlink:href="#DejaVuSans-6f"/>
      <use x="456.496094" xlink:href="#DejaVuSans-6e"/>
      <use x="519.875" xlink:href="#DejaVuSans-20"/>
      <use x="551.662109" xlink:href="#DejaVuSans-6f"/>
      <use x="612.84375" xlink:href="#DejaVuSans-66"/>
      <use x="648.048828" xlink:href="#DejaVuSans-20"/>
      <use x="679.835938" xlink:href="#DejaVuSans-66"/>
      <use x="715.041016" xlink:href="#DejaVuSans-75"/>
      <use x="778.419922" xlink:href="#DejaVuSans-6e"/>
      <use x="841.798828" xlink:href="#DejaVuSans-63"/>
      <use x="896.779297" xlink:href="#DejaVuSans-74"/>
      <use x="935.988281" xlink:href="#DejaVuSans-69"/>
      <use x="963.771484" xlink:href="#DejaVuSans-6f"/>
      <use x="1024.953125" xlink:href="#DejaVuSans-6e"/>
      <use x="1088.332031" xlink:href="#DejaVuSans-2b"/>
      <use x="1172.121094" xlink:href="#DejaVuSans-74"/>
      <use x="1211.330078" xlink:href="#DejaVuSans-61"/>
      <use x="1272.609375" xlink:href="#DejaVuSans-72"/>
      <use x="1313.707031" xlink:href="#DejaVuSans-67"/>
      <use x="1377.183594" xlink:href="#DejaVuSans-65"/>
      <use x="1438.707031" xlink:href="#DejaVuSans-74"/>
      <use x="1477.916016" xlink:href="#DejaVuSans-20"/>
      <use x="1509.703125" xlink:href="#DejaVuSans-70"/>
      <use x="1573.179688" xlink:href="#DejaVuSans-61"/>
      <use x="1634.458984" xlink:href="#DejaVuSans-69"/>
      <use x="1662.242188" xlink:href="#DejaVuSans-72"/>
      <use x="1703.355469" xlink:href="#DejaVuSans-73"/>
     </g>
    </g>
   </g>
   <g id="line2d_41">
    <defs>
     <path d="M 0 1.5 
C 0.397805 1.5 0.77937 1.341951 1.06066 1.06066 
C 1.341951 0.77937 1.5 0.397805 1.5 0 
C 1.5 -0.397805 1.341951 -0.77937 1.06066 -1.06066 
C 0.77937 -1.341951 0.397805 -1.5 0 -1.5 
C -0.397805 -1.5 -0.77937 -1.341951 -1.06066 -1.06066 
C -1.341951 -0.77937 -1.5 -0.397805 -1.5 0 
C -1.5 0.397805 -1.341951 0.77937 -1.06066 1.06066 
C -0.77937 1.341951 -0.397805 1.5 0 1.5 
z
" id="m58ccc7233a" style="stroke:#00bfbf;"/>
    </defs>
    <g>
     <use style="fill:#00bfbf;stroke:#00bfbf;" x="239.293259" xlink:href="#m58ccc7233a" y="236.250733"/>
     <use style="fill:#00bfbf;stroke:#00bfbf;" x="239.293259" xlink:href="#m58ccc7233a" y="236.250733"/>
    </g>
   </g>
   <g id="line2d_42">
    <path d="M 66.728091 298.245375 
L 66.728091 292.045911 
L 86.358223 292.045911 
L 86.358223 288.429557 
L 91.498559 288.429557 
L 91.498559 284.813203 
L 95.485714 284.813203 
L 95.485714 283.779959 
L 98.743457 283.779959 
L 98.743457 283.263337 
L 103.883794 283.263337 
L 103.883794 282.746715 
L 107.870948 282.746715 
L 107.870948 282.230093 
L 109.573962 282.230093 
L 109.573962 279.646982 
L 111.128691 279.646982 
L 111.128691 277.580494 
L 113.883073 277.580494 
L 113.883073 275.514006 
L 115.115846 275.514006 
L 115.115846 274.480762 
L 122.753465 274.480762 
L 122.753465 273.447518 
L 124.944138 273.447518 
L 124.944138 270.864408 
L 126.268307 270.864408 
L 126.268307 269.831164 
L 127.50108 269.831164 
L 127.50108 268.281298 
L 131.248391 268.281298 
L 131.248391 267.764676 
L 132.189035 267.764676 
L 132.189035 265.181566 
L 132.641417 265.181566 
L 132.641417 264.664944 
L 133.513205 264.664944 
L 133.513205 261.565212 
L 133.933651 261.565212 
L 133.933651 260.015346 
L 135.138699 260.015346 
L 135.138699 258.982102 
L 135.522975 258.982102 
L 135.522975 258.46548 
L 136.267587 258.46548 
L 136.267587 257.948858 
L 136.982407 257.948858 
L 136.982407 256.915614 
L 138.653542 256.915614 
L 138.653542 256.398992 
L 139.280557 256.398992 
L 139.280557 255.365748 
L 141.316526 255.365748 
L 141.316526 254.849126 
L 143.873469 254.849126 
L 143.873469 254.332504 
L 144.34371 254.332504 
L 144.34371 253.815882 
L 146.729664 253.815882 
L 146.729664 253.29926 
L 151.511088 253.29926 
L 151.511088 252.782638 
L 175.568322 252.782638 
L 175.568322 252.266016 
L 175.608702 252.266016 
L 175.608702 251.749394 
L 175.928498 251.749394 
L 175.928498 251.232772 
L 176.203699 251.232772 
L 176.203699 249.682906 
L 176.665832 249.682906 
L 176.665832 249.166284 
L 176.854914 249.166284 
L 176.854914 248.649662 
L 187.210663 248.649662 
L 187.210663 248.13304 
L 187.42014 248.13304 
L 187.42014 247.616418 
L 187.668312 247.616418 
L 187.668312 247.099796 
L 187.811503 247.099796 
L 187.811503 246.583173 
L 194.029094 246.583173 
L 194.029094 246.066551 
L 194.158106 246.066551 
L 194.158106 245.549929 
L 194.427444 245.549929 
L 194.427444 245.033307 
L 194.52566 245.033307 
L 194.52566 244.516685 
L 199.01773 244.516685 
L 199.01773 244.000063 
L 199.319855 244.000063 
L 199.319855 243.483441 
L 199.394594 243.483441 
L 199.394594 242.966819 
L 208.820053 242.966819 
L 208.820053 242.450197 
L 211.172969 242.450197 
L 211.172969 241.933575 
L 213.251792 241.933575 
L 213.251792 241.416953 
L 215.237118 241.416953 
L 215.237118 240.900331 
L 218.34054 240.900331 
L 218.34054 240.383709 
L 225.533699 240.383709 
L 225.533699 239.350465 
L 226.494323 239.350465 
L 226.494323 238.833843 
L 230.64811 238.833843 
L 230.64811 238.317221 
L 232.744021 238.317221 
L 232.744021 237.800599 
L 233.39137 237.800599 
L 233.39137 237.283977 
L 236.317039 237.283977 
L 236.317039 236.767355 
L 239.293259 236.767355 
L 239.293259 236.250733 
L 367.113325 236.250733 
" style="fill:none;stroke:#00bfbf;stroke-linecap:square;stroke-width:1.5;"/>
   </g>
   <g id="line2d_43">
    <defs>
     <path d="M -6 0 
L 6 0 
M 0 6 
L 0 -6 
" id="m0e663ca4ac" style="stroke:#00bfbf;stroke-width:1.5;"/>
    </defs>
    <g>
     <use style="fill:none;stroke:#00bfbf;stroke-width:1.5;" x="109.573962" xlink:href="#m0e663ca4ac" y="282.230093"/>
     <use style="fill:none;stroke:#00bfbf;stroke-width:1.5;" x="133.933651" xlink:href="#m0e663ca4ac" y="260.015346"/>
     <use style="fill:none;stroke:#00bfbf;stroke-width:1.5;" x="187.811503" xlink:href="#m0e663ca4ac" y="246.583173"/>
     <use style="fill:none;stroke:#00bfbf;stroke-width:1.5;" x="239.293259" xlink:href="#m0e663ca4ac" y="236.250733"/>
     <use style="fill:none;stroke:#00bfbf;stroke-width:1.5;" x="239.293259" xlink:href="#m0e663ca4ac" y="236.250733"/>
     <use style="fill:none;stroke:#00bfbf;stroke-width:1.5;" x="367.113325" xlink:href="#m0e663ca4ac" y="236.250733"/>
    </g>
   </g>
   <g id="line2d_44"/>
   <g id="line2d_45">
    <path clip-path="url(#p19eb7d4442)" d="M 173.784274 252.782638 
" style="fill:none;stroke:#00bfbf;stroke-linecap:square;stroke-width:1.5;"/>
    <defs>
     <path d="M -12 12 
L 12 -12 
M -12 -12 
L 12 12 
" id="m1e4d948529" style="stroke:#00bfbf;stroke-width:3;"/>
    </defs>
    <g clip-path="url(#p19eb7d4442)">
     <use style="fill:#00bfbf;stroke:#00bfbf;stroke-width:3;" x="173.784274" xlink:href="#m1e4d948529" y="252.782638"/>
    </g>
   </g>
   <g id="line2d_46">
    <defs>
     <path d="M 0 1.5 
C 0.397805 1.5 0.77937 1.341951 1.06066 1.06066 
C 1.341951 0.77937 1.5 0.397805 1.5 0 
C 1.5 -0.397805 1.341951 -0.77937 1.06066 -1.06066 
C 0.77937 -1.341951 0.397805 -1.5 0 -1.5 
C -0.397805 -1.5 -0.77937 -1.341951 -1.06066 -1.06066 
C -1.341951 -0.77937 -1.5 -0.397805 -1.5 0 
C -1.5 0.397805 -1.341951 0.77937 -1.06066 1.06066 
C -0.77937 1.341951 -0.397805 1.5 0 1.5 
z
" id="mf3339669fc" style="stroke:#008000;"/>
    </defs>
    <g>
     <use style="fill:#008000;stroke:#008000;" x="251.361562" xlink:href="#mf3339669fc" y="210.419632"/>
     <use style="fill:#008000;stroke:#008000;" x="251.361562" xlink:href="#mf3339669fc" y="210.419632"/>
    </g>
   </g>
   <g id="line2d_47">
    <path d="M 59.483194 298.245375 
L 59.483194 295.145643 
L 71.868428 295.145643 
L 71.868428 294.112399 
L 88.240817 294.112399 
L 88.240817 293.079155 
L 91.498559 293.079155 
L 91.498559 291.529289 
L 98.743457 291.529289 
L 98.743457 291.012667 
L 102.329064 291.012667 
L 102.329064 287.912935 
L 103.883794 287.912935 
L 103.883794 286.879691 
L 107.870948 286.879691 
L 107.870948 286.363069 
L 110.107378 286.363069 
L 110.107378 285.329825 
L 111.128691 285.329825 
L 111.128691 284.813203 
L 119.650426 284.813203 
L 119.650426 282.230093 
L 120.256183 282.230093 
L 120.256183 280.680226 
L 121.409364 280.680226 
L 121.409364 279.646982 
L 124.944138 279.646982 
L 124.944138 279.13036 
L 125.396519 279.13036 
L 125.396519 278.097116 
L 126.268307 278.097116 
L 126.268307 277.063872 
L 127.099532 277.063872 
L 127.099532 276.54725 
L 127.50108 276.54725 
L 127.50108 274.480762 
L 129.02269 274.480762 
L 129.02269 272.930896 
L 129.73751 272.930896 
L 129.73751 272.414274 
L 130.758823 272.414274 
L 130.758823 270.864408 
L 131.408644 270.864408 
L 131.408644 269.314542 
L 132.03566 269.314542 
L 132.03566 267.764676 
L 132.341105 267.764676 
L 132.341105 267.248054 
L 132.641417 267.248054 
L 132.641417 266.731432 
L 133.227309 266.731432 
L 133.227309 265.698188 
L 134.071629 265.698188 
L 134.071629 265.181566 
L 136.14562 265.181566 
L 136.14562 264.664944 
L 136.388727 264.664944 
L 136.388727 263.115078 
L 141.407924 263.115078 
L 141.407924 262.598456 
L 142.810064 262.598456 
L 142.810064 261.565212 
L 143.144057 261.565212 
L 143.144057 261.04859 
L 143.793878 261.04859 
L 143.793878 260.015346 
L 144.574269 260.015346 
L 144.574269 259.498724 
L 145.467861 259.498724 
L 145.467861 258.46548 
L 145.898439 258.46548 
L 145.898439 257.948858 
L 146.03969 257.948858 
L 146.03969 257.432236 
L 146.179832 257.432236 
L 146.179832 256.398992 
L 147.26308 256.398992 
L 147.26308 255.88237 
L 148.530854 255.88237 
L 148.530854 254.849126 
L 150.388954 254.849126 
L 150.388954 253.815882 
L 150.824784 253.815882 
L 150.824784 253.29926 
L 151.768188 253.29926 
L 151.768188 252.782638 
L 152.953248 252.782638 
L 152.953248 252.266016 
L 154.24326 252.266016 
L 154.24326 251.749394 
L 181.049014 251.749394 
L 181.049014 251.232772 
L 181.363532 251.232772 
L 181.363532 250.71615 
L 182.21954 250.71615 
L 182.275175 249.682906 
L 182.623563 249.682906 
L 182.623563 249.166284 
L 182.750224 249.166284 
L 182.840149 248.13304 
L 182.875993 248.13304 
L 182.875993 247.616418 
L 183.018654 247.616418 
L 183.124906 246.583173 
L 183.177797 246.583173 
L 183.177797 246.066551 
L 183.370399 246.066551 
L 183.370399 245.549929 
L 183.578171 245.549929 
L 183.578171 245.033307 
L 183.715354 245.033307 
L 183.715354 244.516685 
L 183.986602 244.516685 
L 184.053776 243.483441 
L 194.000298 243.483441 
L 194.048266 242.450197 
L 194.715871 242.450197 
L 194.73432 241.416953 
L 194.853779 241.416953 
L 194.872086 240.383709 
L 194.99063 240.383709 
L 194.99063 239.867087 
L 195.153479 239.867087 
L 195.153479 239.350465 
L 195.305931 239.350465 
L 195.314858 237.800599 
L 200.771453 237.800599 
L 200.771453 237.283977 
L 201.23879 237.283977 
L 201.23879 236.767355 
L 201.360103 236.767355 
L 201.455298 234.700867 
L 201.549989 234.700867 
L 201.594007 233.667623 
L 201.9423 233.667623 
L 202.028323 231.601135 
L 202.470281 231.601135 
L 202.470281 231.084513 
L 206.3278 231.084513 
L 206.399936 230.051269 
L 206.462219 230.051269 
L 206.462219 229.534647 
L 206.77042 229.534647 
L 206.775121 227.984781 
L 207.174788 227.984781 
L 207.174788 227.468159 
L 210.567593 227.468159 
L 210.620726 225.918293 
L 213.521222 225.918293 
L 213.521222 225.401671 
L 213.697549 225.401671 
L 213.742155 223.851805 
L 216.113784 223.851805 
L 216.113784 223.335183 
L 216.360092 223.335183 
L 216.39853 221.785317 
L 218.42399 221.785317 
L 218.42399 221.268695 
L 218.676856 221.268695 
L 218.676856 220.752073 
L 220.651919 220.752073 
L 220.757526 219.718829 
L 222.566692 219.718829 
L 222.593859 218.685585 
L 225.632119 218.685585 
L 225.632119 218.168963 
L 225.75926 218.168963 
L 225.781985 217.135719 
L 228.443198 217.135719 
L 228.466943 215.585853 
L 229.658817 215.585853 
L 229.658817 215.069231 
L 232.895002 215.069231 
L 232.895002 214.552609 
L 233.831986 214.552609 
L 233.831986 214.035987 
L 234.755684 214.035987 
L 234.769423 213.002743 
L 239.408641 213.002743 
L 239.408641 212.48612 
L 240.066756 212.48612 
L 240.066756 211.969498 
L 240.699379 211.969498 
L 240.699379 211.452876 
L 241.321928 211.452876 
L 241.321928 210.936254 
L 251.361562 210.936254 
L 251.361562 210.419632 
L 367.113325 210.419632 
L 367.113325 210.419632 
" style="fill:none;stroke:#008000;stroke-linecap:square;stroke-width:1.5;"/>
   </g>
   <g id="line2d_48">
    <defs>
     <path d="M -0 6 
L 6 -6 
L -6 -6 
z
" id="m8ea031f1b0" style="stroke:#008000;stroke-linejoin:miter;stroke-width:1.5;"/>
    </defs>
    <g>
     <use style="fill:none;stroke:#008000;stroke-linejoin:miter;stroke-width:1.5;" x="111.128691" xlink:href="#m8ea031f1b0" y="284.813203"/>
     <use style="fill:none;stroke:#008000;stroke-linejoin:miter;stroke-width:1.5;" x="152.953248" xlink:href="#m8ea031f1b0" y="252.266016"/>
     <use style="fill:none;stroke:#008000;stroke-linejoin:miter;stroke-width:1.5;" x="206.77042" xlink:href="#m8ea031f1b0" y="229.534647"/>
     <use style="fill:none;stroke:#008000;stroke-linejoin:miter;stroke-width:1.5;" x="251.361562" xlink:href="#m8ea031f1b0" y="210.936254"/>
     <use style="fill:none;stroke:#008000;stroke-linejoin:miter;stroke-width:1.5;" x="251.361562" xlink:href="#m8ea031f1b0" y="210.419632"/>
     <use style="fill:none;stroke:#008000;stroke-linejoin:miter;stroke-width:1.5;" x="367.113325" xlink:href="#m8ea031f1b0" y="210.419632"/>
    </g>
   </g>
   <g id="line2d_49"/>
   <g id="line2d_50">
    <path clip-path="url(#p19eb7d4442)" d="M 181.029171 251.749394 
" style="fill:none;stroke:#008000;stroke-linecap:square;stroke-width:1.5;"/>
    <defs>
     <path d="M -12 12 
L 12 -12 
M -12 -12 
L 12 12 
" id="m4fe149b173" style="stroke:#008000;stroke-width:3;"/>
    </defs>
    <g clip-path="url(#p19eb7d4442)">
     <use style="fill:#008000;stroke:#008000;stroke-width:3;" x="181.029171" xlink:href="#m4fe149b173" y="251.749394"/>
    </g>
   </g>
   <g id="line2d_51">
    <defs>
     <path d="M 0 1.5 
C 0.397805 1.5 0.77937 1.341951 1.06066 1.06066 
C 1.341951 0.77937 1.5 0.397805 1.5 0 
C 1.5 -0.397805 1.341951 -0.77937 1.06066 -1.06066 
C 0.77937 -1.341951 0.397805 -1.5 0 -1.5 
C -0.397805 -1.5 -0.77937 -1.341951 -1.06066 -1.06066 
C -1.341951 -0.77937 -1.5 -0.397805 -1.5 0 
C -1.5 0.397805 -1.341951 0.77937 -1.06066 1.06066 
C -0.77937 1.341951 -0.397805 1.5 0 1.5 
z
" id="m0d823b1e26" style="stroke:#0000ff;"/>
    </defs>
    <g>
     <use style="fill:#0000ff;stroke:#0000ff;" x="258.606227" xlink:href="#m0d823b1e26" y="220.752073"/>
     <use style="fill:#0000ff;stroke:#0000ff;" x="258.606227" xlink:href="#m0d823b1e26" y="220.752073"/>
    </g>
   </g>
   <g id="line2d_52">
    <path d="M 50.355702 298.245375 
L 50.355702 292.045911 
L 75.126171 292.045911 
L 75.126171 290.496045 
L 89.615966 290.496045 
L 89.615966 289.979423 
L 91.498559 289.979423 
L 91.498559 288.429557 
L 94.756302 288.429557 
L 94.756302 287.912935 
L 96.186515 287.912935 
L 96.186515 287.396313 
L 105.586807 287.396313 
L 105.586807 286.363069 
L 107.141536 286.363069 
L 107.141536 285.329825 
L 107.870948 285.329825 
L 107.870948 284.296581 
L 110.522934 284.296581 
L 110.522934 283.779959 
L 111.128691 283.779959 
L 111.128691 282.746715 
L 116.269028 282.746715 
L 116.269028 281.713471 
L 122.281153 281.713471 
L 122.281153 281.196849 
L 122.597411 281.196849 
L 122.597411 280.163604 
L 123.213614 280.163604 
L 123.213614 279.13036 
L 124.667107 279.13036 
L 124.667107 277.580494 
L 125.485637 277.580494 
L 125.485637 277.063872 
L 128.20188 277.063872 
L 128.20188 276.54725 
L 128.876229 276.54725 
L 128.876229 276.030628 
L 129.312058 276.030628 
L 129.312058 275.514006 
L 129.52605 275.514006 
L 129.52605 274.480762 
L 130.357275 274.480762 
L 130.357275 273.96414 
L 130.559177 273.96414 
L 130.559177 273.447518 
L 131.151544 273.447518 
L 131.151544 272.930896 
L 131.344715 272.930896 
L 131.344715 271.897652 
L 131.53582 271.897652 
L 131.53582 271.38103 
L 131.912004 271.38103 
L 131.912004 270.864408 
L 132.461836 270.864408 
L 132.461836 270.347786 
L 132.81921 270.347786 
L 132.81921 269.314542 
L 134.18125 269.314542 
L 134.18125 268.79792 
L 137.052341 268.79792 
L 137.052341 268.281298 
L 137.466293 268.281298 
L 137.466293 267.764676 
L 140.356555 267.764676 
L 140.356555 266.731432 
L 141.589327 266.731432 
L 141.589327 266.21481 
L 141.911284 266.21481 
L 141.911284 265.698188 
L 143.144057 265.698188 
L 143.144057 265.181566 
L 144.015845 265.181566 
L 144.015845 264.148322 
L 144.39006 264.148322 
L 144.482402 262.081834 
L 145.727451 262.081834 
L 145.727451 261.565212 
L 146.235583 261.565212 
L 146.318885 259.498724 
L 146.484331 259.498724 
L 146.484331 258.982102 
L 153.920334 258.982102 
L 153.920334 258.46548 
L 158.745624 258.46548 
L 158.745624 257.948858 
L 190.552492 257.948858 
L 190.552492 257.432236 
L 190.705628 257.432236 
L 190.705628 256.915614 
L 190.836834 256.915614 
L 190.919207 255.365748 
L 190.987563 255.365748 
L 190.987563 254.849126 
L 191.318776 254.849126 
L 191.358914 253.29926 
L 191.458867 253.29926 
L 191.458867 252.782638 
L 191.584676 252.782638 
L 191.643962 250.71615 
L 192.321476 250.71615 
L 192.321476 250.199528 
L 202.885219 250.199528 
L 202.993564 249.166284 
L 203.1324 249.166284 
L 203.173841 248.13304 
L 203.657068 248.13304 
L 203.680555 246.583173 
L 203.780863 246.583173 
L 203.780863 245.549929 
L 209.985805 245.549929 
L 209.985805 245.033307 
L 210.14997 245.033307 
L 210.14997 244.516685 
L 210.291809 244.516685 
L 210.291809 244.000063 
L 215.200203 244.000063 
L 215.307224 242.966819 
L 215.370085 242.966819 
L 215.370085 242.450197 
L 215.55735 242.450197 
L 215.55735 241.416953 
L 219.124602 241.416953 
L 219.219004 239.867087 
L 222.354539 239.867087 
L 222.354539 238.833843 
L 222.5597 238.833843 
L 222.5597 238.317221 
L 225.024162 238.317221 
L 225.082962 236.767355 
L 225.18087 236.767355 
L 225.289253 235.217489 
L 227.46183 235.217489 
L 227.50519 234.184245 
L 227.603904 234.184245 
L 227.603904 233.667623 
L 229.586855 233.667623 
L 229.586855 232.634379 
L 231.478021 232.634379 
L 231.478021 232.117757 
L 233.141686 232.117757 
L 233.215032 230.051269 
L 234.752149 230.051269 
L 234.812141 227.984781 
L 240.845475 227.984781 
L 240.871011 226.951537 
L 241.901547 226.951537 
L 241.932321 225.918293 
L 242.848934 225.918293 
L 242.848934 224.885049 
L 246.259865 224.885049 
L 246.259865 224.368427 
L 247.743523 224.368427 
L 247.76572 223.335183 
L 248.431714 223.335183 
L 248.431714 222.818561 
L 249.751675 222.818561 
L 249.780662 221.268695 
L 258.606227 221.268695 
L 258.606227 220.752073 
L 367.113325 220.752073 
L 367.113325 220.752073 
" style="fill:none;stroke:#0000ff;stroke-linecap:square;stroke-width:1.5;"/>
   </g>
   <g id="line2d_53">
    <defs>
     <path d="M 0 -6 
L -1.347084 -1.854102 
L -5.706339 -1.854102 
L -2.179628 0.708204 
L -3.526712 4.854102 
L -0 2.291796 
L 3.526712 4.854102 
L 2.179628 0.708204 
L 5.706339 -1.854102 
L 1.347084 -1.854102 
z
" id="med437e17a5" style="stroke:#0000ff;stroke-linejoin:bevel;stroke-width:1.5;"/>
    </defs>
    <g>
     <use style="fill:none;stroke:#0000ff;stroke-linejoin:bevel;stroke-width:1.5;" x="111.128691" xlink:href="#med437e17a5" y="283.779959"/>
     <use style="fill:none;stroke:#0000ff;stroke-linejoin:bevel;stroke-width:1.5;" x="158.745624" xlink:href="#med437e17a5" y="257.948858"/>
     <use style="fill:none;stroke:#0000ff;stroke-linejoin:bevel;stroke-width:1.5;" x="222.5597" xlink:href="#med437e17a5" y="238.833843"/>
     <use style="fill:none;stroke:#0000ff;stroke-linejoin:bevel;stroke-width:1.5;" x="258.606227" xlink:href="#med437e17a5" y="220.752073"/>
     <use style="fill:none;stroke:#0000ff;stroke-linejoin:bevel;stroke-width:1.5;" x="258.606227" xlink:href="#med437e17a5" y="220.752073"/>
     <use style="fill:none;stroke:#0000ff;stroke-linejoin:bevel;stroke-width:1.5;" x="367.113325" xlink:href="#med437e17a5" y="220.752073"/>
    </g>
   </g>
   <g id="line2d_54"/>
   <g id="line2d_55">
    <path clip-path="url(#p19eb7d4442)" d="M 190.156663 257.948858 
" style="fill:none;stroke:#0000ff;stroke-linecap:square;stroke-width:1.5;"/>
    <defs>
     <path d="M -12 12 
L 12 -12 
M -12 -12 
L 12 12 
" id="m8366d472e2" style="stroke:#0000ff;stroke-width:3;"/>
    </defs>
    <g clip-path="url(#p19eb7d4442)">
     <use style="fill:#0000ff;stroke:#0000ff;stroke-width:3;" x="190.156663" xlink:href="#m8366d472e2" y="257.948858"/>
    </g>
   </g>
   <g id="line2d_56">
    <defs>
     <path d="M 0 1.5 
C 0.397805 1.5 0.77937 1.341951 1.06066 1.06066 
C 1.341951 0.77937 1.5 0.397805 1.5 0 
C 1.5 -0.397805 1.341951 -0.77937 1.06066 -1.06066 
C 0.77937 -1.341951 0.397805 -1.5 0 -1.5 
C -0.397805 -1.5 -0.77937 -1.341951 -1.06066 -1.06066 
C -1.341951 -0.77937 -1.5 -0.397805 -1.5 0 
C -1.5 0.397805 -1.341951 0.77937 -1.06066 1.06066 
C -0.77937 1.341951 -0.397805 1.5 0 1.5 
z
" id="m063cf986f8" style="stroke:#000000;"/>
    </defs>
    <g>
     <use style="stroke:#000000;" x="268.921605" xlink:href="#m063cf986f8" y="256.915614"/>
     <use style="stroke:#000000;" x="268.921605" xlink:href="#m063cf986f8" y="256.915614"/>
    </g>
   </g>
   <g id="line2d_57">
    <path d="M 37.970468 298.245375 
L 37.970468 291.529289 
L 97.510684 291.529289 
L 97.510684 289.979423 
L 105.988354 289.979423 
L 105.988354 288.429557 
L 109.895918 288.429557 
L 109.895918 286.363069 
L 113.883073 286.363069 
L 113.883073 285.846447 
L 114.386434 285.846447 
L 114.386434 284.813203 
L 115.115846 284.813203 
L 115.115846 284.296581 
L 116.710238 284.296581 
L 116.710238 283.779959 
L 118.76631 283.779959 
L 118.76631 282.746715 
L 120.956983 282.746715 
L 120.956983 282.230093 
L 123.513925 282.230093 
L 123.513925 281.713471 
L 129.73751 281.713471 
L 129.73751 280.163604 
L 131.818698 280.163604 
L 131.818698 279.646982 
L 131.912004 279.646982 
L 131.912004 279.13036 
L 133.342217 279.13036 
L 133.342217 278.613738 
L 133.682572 278.613738 
L 133.682572 278.097116 
L 136.194507 278.097116 
L 136.194507 277.580494 
L 138.266491 277.580494 
L 138.266491 276.54725 
L 140.24015 276.54725 
L 140.24015 276.030628 
L 140.472206 276.030628 
L 140.472206 274.997384 
L 143.044513 274.997384 
L 143.044513 274.480762 
L 151.604071 274.480762 
L 151.604071 273.96414 
L 202.788553 273.96414 
L 202.788553 273.447518 
L 202.790316 273.447518 
L 202.790316 272.930896 
L 202.814968 272.930896 
L 202.814968 272.414274 
L 202.881713 272.414274 
L 202.881713 271.897652 
L 202.916741 271.897652 
L 202.916741 270.864408 
L 203.087396 270.864408 
L 203.087396 270.347786 
L 203.166941 270.347786 
L 203.166941 269.831164 
L 203.360854 269.831164 
L 203.360854 268.79792 
L 203.468057 268.79792 
L 203.468057 268.281298 
L 203.545929 268.281298 
L 203.545929 267.764676 
L 215.084568 267.764676 
L 215.084568 267.248054 
L 215.242386 267.248054 
L 215.242386 266.21481 
L 222.297852 266.21481 
L 222.297852 265.698188 
L 222.355718 265.698188 
L 222.355718 265.181566 
L 227.406816 265.181566 
L 227.406816 264.664944 
L 231.417772 264.664944 
L 231.417772 264.148322 
L 231.42629 264.148322 
L 231.42629 263.6317 
L 239.776936 263.6317 
L 239.776936 263.115078 
L 239.826232 263.115078 
L 239.826232 262.081834 
L 241.916546 262.081834 
L 241.916546 260.531968 
L 243.787734 260.531968 
L 243.787734 260.015346 
L 245.441615 260.015346 
L 245.441615 259.498724 
L 246.995427 259.498724 
L 246.995427 258.982102 
L 249.739202 258.982102 
L 249.739202 258.46548 
L 255.173399 258.46548 
L 255.173399 257.948858 
L 263.349278 257.948858 
L 263.349278 257.432236 
L 268.921605 257.432236 
L 268.921605 256.915614 
L 367.113325 256.915614 
" style="fill:none;stroke:#000000;stroke-linecap:square;stroke-width:1.5;"/>
   </g>
   <g id="line2d_58">
    <defs>
     <path d="M 0 6 
C 1.591219 6 3.117479 5.367802 4.242641 4.242641 
C 5.367802 3.117479 6 1.591219 6 0 
C 6 -1.591219 5.367802 -3.117479 4.242641 -4.242641 
C 3.117479 -5.367802 1.591219 -6 0 -6 
C -1.591219 -6 -3.117479 -5.367802 -4.242641 -4.242641 
C -5.367802 -3.117479 -6 -1.591219 -6 0 
C -6 1.591219 -5.367802 3.117479 -4.242641 4.242641 
C -3.117479 5.367802 -1.591219 6 0 6 
z
" id="m4845fbd9ce" style="stroke:#000000;stroke-width:1.5;"/>
    </defs>
    <g>
     <use style="fill:none;stroke:#000000;stroke-width:1.5;" x="140.24015" xlink:href="#m4845fbd9ce" y="276.030628"/>
     <use style="fill:none;stroke:#000000;stroke-width:1.5;" x="203.545929" xlink:href="#m4845fbd9ce" y="268.281298"/>
     <use style="fill:none;stroke:#000000;stroke-width:1.5;" x="268.921605" xlink:href="#m4845fbd9ce" y="257.432236"/>
     <use style="fill:none;stroke:#000000;stroke-width:1.5;" x="268.921605" xlink:href="#m4845fbd9ce" y="256.915614"/>
     <use style="fill:none;stroke:#000000;stroke-width:1.5;" x="268.921605" xlink:href="#m4845fbd9ce" y="256.915614"/>
     <use style="fill:none;stroke:#000000;stroke-width:1.5;" x="367.113325" xlink:href="#m4845fbd9ce" y="256.915614"/>
    </g>
   </g>
   <g id="line2d_59"/>
   <g id="line2d_60">
    <path clip-path="url(#p19eb7d4442)" d="M 202.541897 273.96414 
" style="fill:none;stroke:#000000;stroke-linecap:square;stroke-width:1.5;"/>
    <defs>
     <path d="M -12 12 
L 12 -12 
M -12 -12 
L 12 12 
" id="m39f75c8b21" style="stroke:#000000;stroke-width:3;"/>
    </defs>
    <g clip-path="url(#p19eb7d4442)">
     <use style="stroke:#000000;stroke-width:3;" x="202.541897" xlink:href="#m39f75c8b21" y="273.96414"/>
    </g>
   </g>
   <g id="line2d_61">
    <defs>
     <path d="M 0 1.5 
C 0.397805 1.5 0.77937 1.341951 1.06066 1.06066 
C 1.341951 0.77937 1.5 0.397805 1.5 0 
C 1.5 -0.397805 1.341951 -0.77937 1.06066 -1.06066 
C 0.77937 -1.341951 0.397805 -1.5 0 -1.5 
C -0.397805 -1.5 -0.77937 -1.341951 -1.06066 -1.06066 
C -1.341951 -0.77937 -1.5 -0.397805 -1.5 0 
C -1.5 0.397805 -1.341951 0.77937 -1.06066 1.06066 
C -0.77937 1.341951 -0.397805 1.5 0 1.5 
z
" id="mf8c468ae41" style="stroke:#ff0000;"/>
    </defs>
    <g>
     <use style="fill:#ff0000;stroke:#ff0000;" x="282.138953" xlink:href="#mf8c468ae41" y="272.414274"/>
     <use style="fill:#ff0000;stroke:#ff0000;" x="282.138953" xlink:href="#mf8c468ae41" y="272.414274"/>
    </g>
   </g>
   <g id="line2d_62">
    <path d="M 97.826942 298.245375 
L 97.826942 297.728753 
L 111.128691 297.728753 
L 111.128691 296.695509 
L 111.858103 296.695509 
L 111.858103 296.178887 
L 112.420925 296.178887 
L 112.420925 295.145643 
L 112.558903 295.145643 
L 112.558903 293.595777 
L 114.996326 293.595777 
L 114.996326 293.079155 
L 115.352513 293.079155 
L 115.352513 292.562533 
L 115.469682 292.562533 
L 115.469682 292.045911 
L 115.93082 292.045911 
L 115.93082 291.529289 
L 117.03414 291.529289 
L 117.03414 290.496045 
L 118.274045 290.496045 
L 118.274045 289.979423 
L 121.297338 289.979423 
L 121.297338 289.462801 
L 121.877792 289.462801 
L 121.877792 288.946179 
L 122.040231 288.946179 
L 122.040231 288.429557 
L 122.201206 288.429557 
L 122.201206 287.396313 
L 123.289166 287.396313 
L 123.289166 286.879691 
L 124.944138 286.879691 
L 124.944138 285.329825 
L 125.284493 285.329825 
L 125.284493 284.813203 
L 129.789986 284.813203 
L 129.789986 284.296581 
L 130.808388 284.296581 
L 130.808388 283.779959 
L 132.004826 283.779959 
L 132.004826 283.263337 
L 134.506133 283.263337 
L 134.506133 282.746715 
L 139.032385 282.746715 
L 139.032385 282.230093 
L 140.587114 282.230093 
L 140.587114 281.713471 
L 142.043739 281.713471 
L 142.043739 280.680226 
L 143.094354 280.680226 
L 143.094354 280.163604 
L 144.642861 280.163604 
L 144.642861 279.646982 
L 148.358689 279.646982 
L 148.358689 279.13036 
L 215.215593 279.13036 
L 215.215593 277.580494 
L 227.508504 277.580494 
L 227.508504 276.54725 
L 247.008116 276.54725 
L 247.008116 276.030628 
L 249.753139 276.030628 
L 249.753139 275.514006 
L 252.116472 275.514006 
L 252.116472 274.480762 
L 254.217298 274.480762 
L 254.217298 273.96414 
L 256.109388 273.96414 
L 256.109388 273.447518 
L 263.341162 273.447518 
L 263.341162 272.930896 
L 282.138953 272.930896 
L 282.138953 272.414274 
L 367.113325 272.414274 
" style="fill:none;stroke:#ff0000;stroke-linecap:square;stroke-width:1.5;"/>
   </g>
   <g id="line2d_63">
    <defs>
     <path d="M -6 6 
L 6 6 
L 6 -6 
L -6 -6 
z
" id="mfaf7966b14" style="stroke:#ff0000;stroke-linejoin:miter;stroke-width:1.5;"/>
    </defs>
    <g>
     <use style="fill:none;stroke:#ff0000;stroke-linejoin:miter;stroke-width:1.5;" x="144.642861" xlink:href="#mfaf7966b14" y="280.163604"/>
     <use style="fill:none;stroke:#ff0000;stroke-linejoin:miter;stroke-width:1.5;" x="215.215593" xlink:href="#mfaf7966b14" y="277.580494"/>
     <use style="fill:none;stroke:#ff0000;stroke-linejoin:miter;stroke-width:1.5;" x="282.138953" xlink:href="#mfaf7966b14" y="272.930896"/>
     <use style="fill:none;stroke:#ff0000;stroke-linejoin:miter;stroke-width:1.5;" x="282.138953" xlink:href="#mfaf7966b14" y="272.414274"/>
     <use style="fill:none;stroke:#ff0000;stroke-linejoin:miter;stroke-width:1.5;" x="367.113325" xlink:href="#mfaf7966b14" y="272.414274"/>
    </g>
   </g>
   <g id="line2d_64"/>
   <g id="line2d_65">
    <path clip-path="url(#p19eb7d4442)" d="M 214.927131 279.13036 
" style="fill:none;stroke:#ff0000;stroke-linecap:square;stroke-width:1.5;"/>
    <defs>
     <path d="M -12 12 
L 12 -12 
M -12 -12 
L 12 12 
" id="m9b09ef3d89" style="stroke:#ff0000;stroke-width:3;"/>
    </defs>
    <g clip-path="url(#p19eb7d4442)">
     <use style="fill:#ff0000;stroke:#ff0000;stroke-width:3;" x="214.927131" xlink:href="#m9b09ef3d89" y="279.13036"/>
    </g>
   </g>
   <g id="line2d_66">
    <defs>
     <path d="M 0 1.5 
C 0.397805 1.5 0.77937 1.341951 1.06066 1.06066 
C 1.341951 0.77937 1.5 0.397805 1.5 0 
C 1.5 -0.397805 1.341951 -0.77937 1.06066 -1.06066 
C 0.77937 -1.341951 0.397805 -1.5 0 -1.5 
C -0.397805 -1.5 -0.77937 -1.341951 -1.06066 -1.06066 
C -1.341951 -0.77937 -1.5 -0.397805 -1.5 0 
C -1.5 0.397805 -1.341951 0.77937 -1.06066 1.06066 
C -0.77937 1.341951 -0.397805 1.5 0 1.5 
z
" id="m9a61976ffc" style="stroke:#bf00bf;"/>
    </defs>
    <g>
     <use style="fill:#bf00bf;stroke:#bf00bf;" x="294.522027" xlink:href="#m9a61976ffc" y="277.580494"/>
     <use style="fill:#bf00bf;stroke:#bf00bf;" x="294.522027" xlink:href="#m9a61976ffc" y="277.580494"/>
    </g>
   </g>
   <g id="line2d_67">
    <path d="M 13.2 298.245375 
L 13.2 297.728753 
L 113.946774 297.728753 
L 113.946774 297.212131 
L 118.323886 297.212131 
L 118.323886 296.695509 
L 120.076602 296.695509 
L 120.076602 296.178887 
L 120.121667 296.178887 
L 120.121667 295.145643 
L 120.47815 295.145643 
L 120.47815 294.629021 
L 121.465115 294.629021 
L 121.465115 294.112399 
L 124.099818 294.112399 
L 124.099818 293.595777 
L 124.314667 293.595777 
L 124.314667 293.079155 
L 124.456478 293.079155 
L 124.456478 292.562533 
L 126.14022 292.562533 
L 126.14022 292.045911 
L 126.268307 292.045911 
L 126.268307 290.496045 
L 126.74062 290.496045 
L 126.74062 289.462801 
L 126.987506 289.462801 
L 126.987506 288.946179 
L 127.619805 288.946179 
L 127.619805 287.912935 
L 135.254852 287.912935 
L 135.254852 287.396313 
L 143.633625 287.396313 
L 143.633625 286.879691 
L 144.027659 286.879691 
L 144.027659 285.329825 
L 149.279837 285.329825 
L 149.279837 284.296581 
L 153.598377 284.296581 
L 153.598377 283.779959 
L 175.215173 283.779959 
L 175.215173 283.263337 
L 209.245922 283.263337 
L 209.245922 282.746715 
L 252.126891 282.746715 
L 252.126891 282.230093 
L 262.107302 282.230093 
L 262.107302 281.196849 
L 270.174269 281.196849 
L 270.174269 280.680226 
L 278.967662 280.680226 
L 278.967662 280.163604 
L 284.834668 280.163604 
L 284.834668 279.646982 
L 286.209294 279.646982 
L 286.209294 278.613738 
L 290.844777 278.613738 
L 290.844777 278.097116 
L 294.522027 278.097116 
L 294.522027 277.580494 
L 367.113325 277.580494 
" style="fill:none;stroke:#bf00bf;stroke-linecap:square;stroke-width:1.5;"/>
   </g>
   <g id="line2d_68">
    <defs>
     <path d="M -0 8.485281 
L 8.485281 0 
L 0 -8.485281 
L -8.485281 -0 
z
" id="mb769324c68" style="stroke:#bf00bf;stroke-linejoin:miter;stroke-width:1.5;"/>
    </defs>
    <g>
     <use style="fill:none;stroke:#bf00bf;stroke-linejoin:miter;stroke-width:1.5;" x="13.2" xlink:href="#mb769324c68" y="297.728753"/>
     <use style="fill:none;stroke:#bf00bf;stroke-linejoin:miter;stroke-width:1.5;" x="144.027659" xlink:href="#mb769324c68" y="286.879691"/>
     <use style="fill:none;stroke:#bf00bf;stroke-linejoin:miter;stroke-width:1.5;" x="209.245922" xlink:href="#mb769324c68" y="283.263337"/>
     <use style="fill:none;stroke:#bf00bf;stroke-linejoin:miter;stroke-width:1.5;" x="294.522027" xlink:href="#mb769324c68" y="278.097116"/>
     <use style="fill:none;stroke:#bf00bf;stroke-linejoin:miter;stroke-width:1.5;" x="294.522027" xlink:href="#mb769324c68" y="277.580494"/>
     <use style="fill:none;stroke:#bf00bf;stroke-linejoin:miter;stroke-width:1.5;" x="367.113325" xlink:href="#mb769324c68" y="277.580494"/>
    </g>
   </g>
   <g id="line2d_69"/>
   <g id="line2d_70">
    <path clip-path="url(#p19eb7d4442)" d="M 227.312365 282.746715 
" style="fill:none;stroke:#bf00bf;stroke-linecap:square;stroke-width:1.5;"/>
    <defs>
     <path d="M -12 12 
L 12 -12 
M -12 -12 
L 12 12 
" id="ma2ff19c145" style="stroke:#bf00bf;stroke-width:3;"/>
    </defs>
    <g clip-path="url(#p19eb7d4442)">
     <use style="fill:#bf00bf;stroke:#bf00bf;stroke-width:3;" x="227.312365" xlink:href="#ma2ff19c145" y="282.746715"/>
    </g>
   </g>
   <g id="line2d_71">
    <path d="M 367.113325 277.580494 
L 398.793325 292.97583 
" style="fill:none;stroke:#bf00bf;stroke-linecap:square;stroke-width:1.5;"/>
    <g>
     <use style="fill:none;stroke:#bf00bf;stroke-linejoin:miter;stroke-width:1.5;" x="367.113325" xlink:href="#mb769324c68" y="277.580494"/>
     <use style="fill:none;stroke:#bf00bf;stroke-linejoin:miter;stroke-width:1.5;" x="398.793325" xlink:href="#mb769324c68" y="292.97583"/>
    </g>
   </g>
   <g id="line2d_72">
    <path d="M 367.113325 272.414274 
L 398.793325 242.388203 
" style="fill:none;stroke:#ff0000;stroke-linecap:square;stroke-width:1.5;"/>
    <g>
     <use style="fill:none;stroke:#ff0000;stroke-linejoin:miter;stroke-width:1.5;" x="367.113325" xlink:href="#mfaf7966b14" y="272.414274"/>
     <use style="fill:none;stroke:#ff0000;stroke-linejoin:miter;stroke-width:1.5;" x="398.793325" xlink:href="#mfaf7966b14" y="242.388203"/>
    </g>
   </g>
   <g id="line2d_73">
    <path d="M 367.113325 256.915614 
L 398.793325 191.800575 
" style="fill:none;stroke:#000000;stroke-linecap:square;stroke-width:1.5;"/>
    <g>
     <use style="fill:none;stroke:#000000;stroke-width:1.5;" x="367.113325" xlink:href="#m4845fbd9ce" y="256.915614"/>
     <use style="fill:none;stroke:#000000;stroke-width:1.5;" x="398.793325" xlink:href="#m4845fbd9ce" y="191.800575"/>
    </g>
   </g>
   <g id="line2d_74">
    <path d="M 367.113325 236.250733 
L 398.793325 141.212947 
" style="fill:none;stroke:#00bfbf;stroke-linecap:square;stroke-width:1.5;"/>
    <g>
     <use style="fill:none;stroke:#00bfbf;stroke-width:1.5;" x="367.113325" xlink:href="#m0e663ca4ac" y="236.250733"/>
     <use style="fill:none;stroke:#00bfbf;stroke-width:1.5;" x="398.793325" xlink:href="#m0e663ca4ac" y="141.212947"/>
    </g>
   </g>
   <g id="line2d_75">
    <path d="M 367.113325 220.752073 
L 398.793325 90.62532 
" style="fill:none;stroke:#0000ff;stroke-linecap:square;stroke-width:1.5;"/>
    <g>
     <use style="fill:none;stroke:#0000ff;stroke-linejoin:bevel;stroke-width:1.5;" x="367.113325" xlink:href="#med437e17a5" y="220.752073"/>
     <use style="fill:none;stroke:#0000ff;stroke-linejoin:bevel;stroke-width:1.5;" x="398.793325" xlink:href="#med437e17a5" y="90.62532"/>
    </g>
   </g>
   <g id="line2d_76">
    <path d="M 367.113325 210.419632 
L 398.793325 40.037692 
" style="fill:none;stroke:#008000;stroke-linecap:square;stroke-width:1.5;"/>
    <g>
     <use style="fill:none;stroke:#008000;stroke-linejoin:miter;stroke-width:1.5;" x="367.113325" xlink:href="#m8ea031f1b0" y="210.419632"/>
     <use style="fill:none;stroke:#008000;stroke-linejoin:miter;stroke-width:1.5;" x="398.793325" xlink:href="#m8ea031f1b0" y="40.037692"/>
    </g>
   </g>
   <g id="line2d_77">
    <path d="M 367.113325 298.245375 
L 367.113325 34.768147 
" style="fill:none;stroke:#000000;stroke-linecap:square;stroke-width:1.5;"/>
   </g>
   <g id="patch_3">
    <path d="M 79.113325 298.245375 
L 79.113325 32.133375 
" style="fill:none;stroke:#000000;stroke-linecap:square;stroke-linejoin:miter;stroke-width:0.8;"/>
   </g>
   <g id="patch_4">
    <path d="M 436.233325 298.245375 
L 436.233325 32.133375 
" style="fill:none;stroke:#000000;stroke-linecap:square;stroke-linejoin:miter;stroke-width:0.8;"/>
   </g>
   <g id="patch_5">
    <path d="M 79.113325 298.245375 
L 436.233325 298.245375 
" style="fill:none;stroke:#000000;stroke-linecap:square;stroke-linejoin:miter;stroke-width:0.8;"/>
   </g>
   <g id="patch_6">
    <path d="M 79.113325 32.133375 
L 436.233325 32.133375 
" style="fill:none;stroke:#000000;stroke-linecap:square;stroke-linejoin:miter;stroke-width:0.8;"/>
   </g>
   <g id="text_14">
    <!-- 40-D -->
    <defs>
     <path d="M 19.671875 64.796875 
L 19.671875 8.109375 
L 31.59375 8.109375 
Q 46.6875 8.109375 53.6875 14.9375 
Q 60.6875 21.78125 60.6875 36.53125 
Q 60.6875 51.171875 53.6875 57.984375 
Q 46.6875 64.796875 31.59375 64.796875 
z
M 9.8125 72.90625 
L 30.078125 72.90625 
Q 51.265625 72.90625 61.171875 64.09375 
Q 71.09375 55.28125 71.09375 36.53125 
Q 71.09375 17.671875 61.125 8.828125 
Q 51.171875 0 30.078125 0 
L 9.8125 0 
z
" id="DejaVuSans-44"/>
    </defs>
    <g transform="translate(404.553325 297.114893)scale(0.15 -0.15)">
     <use xlink:href="#DejaVuSans-34"/>
     <use x="63.623047" xlink:href="#DejaVuSans-30"/>
     <use x="127.246094" xlink:href="#DejaVuSans-2d"/>
     <use x="163.330078" xlink:href="#DejaVuSans-44"/>
    </g>
   </g>
   <g id="text_15">
    <!-- 20-D -->
    <g transform="translate(404.553325 246.527265)scale(0.15 -0.15)">
     <use xlink:href="#DejaVuSans-32"/>
     <use x="63.623047" xlink:href="#DejaVuSans-30"/>
     <use x="127.246094" xlink:href="#DejaVuSans-2d"/>
     <use x="163.330078" xlink:href="#DejaVuSans-44"/>
    </g>
   </g>
   <g id="text_16">
    <!-- 10-D -->
    <g transform="translate(404.553325 195.939637)scale(0.15 -0.15)">
     <use xlink:href="#DejaVuSans-31"/>
     <use x="63.623047" xlink:href="#DejaVuSans-30"/>
     <use x="127.246094" xlink:href="#DejaVuSans-2d"/>
     <use x="163.330078" xlink:href="#DejaVuSans-44"/>
    </g>
   </g>
   <g id="text_17">
    <!-- 2-D -->
    <g transform="translate(404.553325 145.35201)scale(0.15 -0.15)">
     <use xlink:href="#DejaVuSans-32"/>
     <use x="63.623047" xlink:href="#DejaVuSans-2d"/>
     <use x="99.707031" xlink:href="#DejaVuSans-44"/>
    </g>
   </g>
   <g id="text_18">
    <!-- 5-D -->
    <defs>
     <path d="M 10.796875 72.90625 
L 49.515625 72.90625 
L 49.515625 64.59375 
L 19.828125 64.59375 
L 19.828125 46.734375 
Q 21.96875 47.46875 24.109375 47.828125 
Q 26.265625 48.1875 28.421875 48.1875 
Q 40.625 48.1875 47.75 41.5 
Q 54.890625 34.8125 54.890625 23.390625 
Q 54.890625 11.625 47.5625 5.09375 
Q 40.234375 -1.421875 26.90625 -1.421875 
Q 22.3125 -1.421875 17.546875 -0.640625 
Q 12.796875 0.140625 7.71875 1.703125 
L 7.71875 11.625 
Q 12.109375 9.234375 16.796875 8.0625 
Q 21.484375 6.890625 26.703125 6.890625 
Q 35.15625 6.890625 40.078125 11.328125 
Q 45.015625 15.765625 45.015625 23.390625 
Q 45.015625 31 40.078125 35.4375 
Q 35.15625 39.890625 26.703125 39.890625 
Q 22.75 39.890625 18.8125 39.015625 
Q 14.890625 38.140625 10.796875 36.28125 
z
" id="DejaVuSans-35"/>
    </defs>
    <g transform="translate(404.553325 94.764382)scale(0.15 -0.15)">
     <use xlink:href="#DejaVuSans-35"/>
     <use x="63.623047" xlink:href="#DejaVuSans-2d"/>
     <use x="99.707031" xlink:href="#DejaVuSans-44"/>
    </g>
   </g>
   <g id="text_19">
    <!-- 3-D -->
    <defs>
     <path d="M 40.578125 39.3125 
Q 47.65625 37.796875 51.625 33 
Q 55.609375 28.21875 55.609375 21.1875 
Q 55.609375 10.40625 48.1875 4.484375 
Q 40.765625 -1.421875 27.09375 -1.421875 
Q 22.515625 -1.421875 17.65625 -0.515625 
Q 12.796875 0.390625 7.625 2.203125 
L 7.625 11.71875 
Q 11.71875 9.328125 16.59375 8.109375 
Q 21.484375 6.890625 26.8125 6.890625 
Q 36.078125 6.890625 40.9375 10.546875 
Q 45.796875 14.203125 45.796875 21.1875 
Q 45.796875 27.640625 41.28125 31.265625 
Q 36.765625 34.90625 28.71875 34.90625 
L 20.21875 34.90625 
L 20.21875 43.015625 
L 29.109375 43.015625 
Q 36.375 43.015625 40.234375 45.921875 
Q 44.09375 48.828125 44.09375 54.296875 
Q 44.09375 59.90625 40.109375 62.90625 
Q 36.140625 65.921875 28.71875 65.921875 
Q 24.65625 65.921875 20.015625 65.03125 
Q 15.375 64.15625 9.8125 62.3125 
L 9.8125 71.09375 
Q 15.4375 72.65625 20.34375 73.4375 
Q 25.25 74.21875 29.59375 74.21875 
Q 40.828125 74.21875 47.359375 69.109375 
Q 53.90625 64.015625 53.90625 55.328125 
Q 53.90625 49.265625 50.4375 45.09375 
Q 46.96875 40.921875 40.578125 39.3125 
" id="DejaVuSans-33"/>
    </defs>
    <g transform="translate(404.553325 44.176754)scale(0.15 -0.15)">
     <use xlink:href="#DejaVuSans-33"/>
     <use x="63.623047" xlink:href="#DejaVuSans-2d"/>
     <use x="99.707031" xlink:href="#DejaVuSans-44"/>
    </g>
   </g>
   <g id="text_20">
    <!-- bbob - f18 -->
    <defs>
     <path d="M 48.6875 27.296875 
Q 48.6875 37.203125 44.609375 42.84375 
Q 40.53125 48.484375 33.40625 48.484375 
Q 26.265625 48.484375 22.1875 42.84375 
Q 18.109375 37.203125 18.109375 27.296875 
Q 18.109375 17.390625 22.1875 11.75 
Q 26.265625 6.109375 33.40625 6.109375 
Q 40.53125 6.109375 44.609375 11.75 
Q 48.6875 17.390625 48.6875 27.296875 
M 18.109375 46.390625 
Q 20.953125 51.265625 25.265625 53.625 
Q 29.59375 56 35.59375 56 
Q 45.5625 56 51.78125 48.09375 
Q 58.015625 40.1875 58.015625 27.296875 
Q 58.015625 14.40625 51.78125 6.484375 
Q 45.5625 -1.421875 35.59375 -1.421875 
Q 29.59375 -1.421875 25.265625 0.953125 
Q 20.953125 3.328125 18.109375 8.203125 
L 18.109375 0 
L 9.078125 0 
L 9.078125 75.984375 
L 18.109375 75.984375 
z
" id="DejaVuSans-62"/>
    </defs>
    <g transform="translate(82.684525 50.114612)scale(0.1666 -0.1666)">
     <use xlink:href="#DejaVuSans-62"/>
     <use x="63.476562" xlink:href="#DejaVuSans-62"/>
     <use x="126.953125" xlink:href="#DejaVuSans-6f"/>
     <use x="188.134766" xlink:href="#DejaVuSans-62"/>
     <use x="251.611328" xlink:href="#DejaVuSans-20"/>
     <use x="283.398438" xlink:href="#DejaVuSans-2d"/>
     <use x="319.482422" xlink:href="#DejaVuSans-20"/>
     <use x="351.269531" xlink:href="#DejaVuSans-66"/>
     <use x="386.474609" xlink:href="#DejaVuSans-31"/>
     <use x="450.097656" xlink:href="#DejaVuSans-38"/>
    </g>
    <!-- 51 targets in 100..1e-08 -->
    <g transform="translate(82.684525 68.770168)scale(0.1666 -0.1666)">
     <use xlink:href="#DejaVuSans-35"/>
     <use x="63.623047" xlink:href="#DejaVuSans-31"/>
     <use x="127.246094" xlink:href="#DejaVuSans-20"/>
     <use x="159.033203" xlink:href="#DejaVuSans-74"/>
     <use x="198.242188" xlink:href="#DejaVuSans-61"/>
     <use x="259.521484" xlink:href="#DejaVuSans-72"/>
     <use x="300.619141" xlink:href="#DejaVuSans-67"/>
     <use x="364.095703" xlink:href="#DejaVuSans-65"/>
     <use x="425.619141" xlink:href="#DejaVuSans-74"/>
     <use x="464.828125" xlink:href="#DejaVuSans-73"/>
     <use x="516.927734" xlink:href="#DejaVuSans-20"/>
     <use x="548.714844" xlink:href="#DejaVuSans-69"/>
     <use x="576.498047" xlink:href="#DejaVuSans-6e"/>
     <use x="639.876953" xlink:href="#DejaVuSans-20"/>
     <use x="671.664062" xlink:href="#DejaVuSans-31"/>
     <use x="735.287109" xlink:href="#DejaVuSans-30"/>
     <use x="798.910156" xlink:href="#DejaVuSans-30"/>
     <use x="862.533203" xlink:href="#DejaVuSans-2e"/>
     <use x="894.320312" xlink:href="#DejaVuSans-2e"/>
     <use x="926.107422" xlink:href="#DejaVuSans-31"/>
     <use x="989.730469" xlink:href="#DejaVuSans-65"/>
     <use x="1051.253906" xlink:href="#DejaVuSans-2d"/>
     <use x="1087.337891" xlink:href="#DejaVuSans-30"/>
     <use x="1150.960938" xlink:href="#DejaVuSans-38"/>
    </g>
    <!-- 15 instances -->
    <g transform="translate(82.684525 87.425723)scale(0.1666 -0.1666)">
     <use xlink:href="#DejaVuSans-31"/>
     <use x="63.623047" xlink:href="#DejaVuSans-35"/>
     <use x="127.246094" xlink:href="#DejaVuSans-20"/>
     <use x="159.033203" xlink:href="#DejaVuSans-69"/>
     <use x="186.816406" xlink:href="#DejaVuSans-6e"/>
     <use x="250.195312" xlink:href="#DejaVuSans-73"/>
     <use x="302.294922" xlink:href="#DejaVuSans-74"/>
     <use x="341.503906" xlink:href="#DejaVuSans-61"/>
     <use x="402.783203" xlink:href="#DejaVuSans-6e"/>
     <use x="466.162109" xlink:href="#DejaVuSans-63"/>
     <use x="521.142578" xlink:href="#DejaVuSans-65"/>
     <use x="582.666016" xlink:href="#DejaVuSans-73"/>
    </g>
   </g>
   <g id="text_21">
    <!-- v2.1 -->
    <g style="fill:#808080;" transform="translate(246.762388 293.504568)scale(0.1 -0.1)">
     <use xlink:href="#DejaVuSans-76"/>
     <use x="59.179688" xlink:href="#DejaVuSans-32"/>
     <use x="122.802734" xlink:href="#DejaVuSans-2e"/>
     <use x="154.589844" xlink:href="#DejaVuSans-31"/>
    </g>
   </g>
   <g id="text_22">
    <!-- 18 Schaffer F7, condition 1000 -->
    <defs>
     <path d="M 53.515625 70.515625 
L 53.515625 60.890625 
Q 47.90625 63.578125 42.921875 64.890625 
Q 37.9375 66.21875 33.296875 66.21875 
Q 25.25 66.21875 20.875 63.09375 
Q 16.5 59.96875 16.5 54.203125 
Q 16.5 49.359375 19.40625 46.890625 
Q 22.3125 44.4375 30.421875 42.921875 
L 36.375 41.703125 
Q 47.40625 39.59375 52.65625 34.296875 
Q 57.90625 29 57.90625 20.125 
Q 57.90625 9.515625 50.796875 4.046875 
Q 43.703125 -1.421875 29.984375 -1.421875 
Q 24.8125 -1.421875 18.96875 -0.25 
Q 13.140625 0.921875 6.890625 3.21875 
L 6.890625 13.375 
Q 12.890625 10.015625 18.65625 8.296875 
Q 24.421875 6.59375 29.984375 6.59375 
Q 38.421875 6.59375 43.015625 9.90625 
Q 47.609375 13.234375 47.609375 19.390625 
Q 47.609375 24.75 44.3125 27.78125 
Q 41.015625 30.8125 33.5 32.328125 
L 27.484375 33.5 
Q 16.453125 35.6875 11.515625 40.375 
Q 6.59375 45.0625 6.59375 53.421875 
Q 6.59375 63.09375 13.40625 68.65625 
Q 20.21875 74.21875 32.171875 74.21875 
Q 37.3125 74.21875 42.625 73.28125 
Q 47.953125 72.359375 53.515625 70.515625 
" id="DejaVuSans-53"/>
     <path d="M 54.890625 33.015625 
L 54.890625 0 
L 45.90625 0 
L 45.90625 32.71875 
Q 45.90625 40.484375 42.875 44.328125 
Q 39.84375 48.1875 33.796875 48.1875 
Q 26.515625 48.1875 22.3125 43.546875 
Q 18.109375 38.921875 18.109375 30.90625 
L 18.109375 0 
L 9.078125 0 
L 9.078125 75.984375 
L 18.109375 75.984375 
L 18.109375 46.1875 
Q 21.34375 51.125 25.703125 53.5625 
Q 30.078125 56 35.796875 56 
Q 45.21875 56 50.046875 50.171875 
Q 54.890625 44.34375 54.890625 33.015625 
" id="DejaVuSans-68"/>
     <path d="M 9.8125 72.90625 
L 51.703125 72.90625 
L 51.703125 64.59375 
L 19.671875 64.59375 
L 19.671875 43.109375 
L 48.578125 43.109375 
L 48.578125 34.8125 
L 19.671875 34.8125 
L 19.671875 0 
L 9.8125 0 
z
" id="DejaVuSans-46"/>
     <path d="M 8.203125 72.90625 
L 55.078125 72.90625 
L 55.078125 68.703125 
L 28.609375 0 
L 18.3125 0 
L 43.21875 64.59375 
L 8.203125 64.59375 
z
" id="DejaVuSans-37"/>
     <path d="M 11.71875 12.40625 
L 22.015625 12.40625 
L 22.015625 4 
L 14.015625 -11.625 
L 7.71875 -11.625 
L 11.71875 4 
z
" id="DejaVuSans-2c"/>
    </defs>
    <g transform="translate(72.83395 26.133375)scale(0.24 -0.24)">
     <use xlink:href="#DejaVuSans-31"/>
     <use x="63.623047" xlink:href="#DejaVuSans-38"/>
     <use x="127.246094" xlink:href="#DejaVuSans-20"/>
     <use x="159.033203" xlink:href="#DejaVuSans-53"/>
     <use x="222.509766" xlink:href="#DejaVuSans-63"/>
     <use x="277.490234" xlink:href="#DejaVuSans-68"/>
     <use x="340.869141" xlink:href="#DejaVuSans-61"/>
     <use x="402.148438" xlink:href="#DejaVuSans-66"/>
     <use x="437.353516" xlink:href="#DejaVuSans-66"/>
     <use x="472.558594" xlink:href="#DejaVuSans-65"/>
     <use x="534.082031" xlink:href="#DejaVuSans-72"/>
     <use x="575.195312" xlink:href="#DejaVuSans-20"/>
     <use x="606.982422" xlink:href="#DejaVuSans-46"/>
     <use x="664.501953" xlink:href="#DejaVuSans-37"/>
     <use x="728.125" xlink:href="#DejaVuSans-2c"/>
     <use x="759.912109" xlink:href="#DejaVuSans-20"/>
     <use x="791.699219" xlink:href="#DejaVuSans-63"/>
     <use x="846.679688" xlink:href="#DejaVuSans-6f"/>
     <use x="907.861328" xlink:href="#DejaVuSans-6e"/>
     <use x="971.240234" xlink:href="#DejaVuSans-64"/>
     <use x="1034.716797" xlink:href="#DejaVuSans-69"/>
     <use x="1062.5" xlink:href="#DejaVuSans-74"/>
     <use x="1101.708984" xlink:href="#DejaVuSans-69"/>
     <use x="1129.492188" xlink:href="#DejaVuSans-6f"/>
     <use x="1190.673828" xlink:href="#DejaVuSans-6e"/>
     <use x="1254.052734" xlink:href="#DejaVuSans-20"/>
     <use x="1285.839844" xlink:href="#DejaVuSans-31"/>
     <use x="1349.462891" xlink:href="#DejaVuSans-30"/>
     <use x="1413.085938" xlink:href="#DejaVuSans-30"/>
     <use x="1476.708984" xlink:href="#DejaVuSans-30"/>
    </g>
   </g>
  </g>
 </g>
 <defs>
  <clipPath id="p19eb7d4442">
   <rect height="266.112" width="357.12" x="79.113325" y="32.133375"/>
  </clipPath>
 </defs>
</svg>
