<?xml version="1.0" encoding="utf-8" standalone="no"?>
<!DOCTYPE svg PUBLIC "-//W3C//DTD SVG 1.1//EN"
  "http://www.w3.org/Graphics/SVG/1.1/DTD/svg11.dtd">
<!-- Created with matplotlib (http://matplotlib.org/) -->
<svg height="353pt" version="1.1" viewBox="0 0 438 353" width="438pt" xmlns="http://www.w3.org/2000/svg" xmlns:xlink="http://www.w3.org/1999/xlink">
 <defs>
  <style type="text/css">
*{stroke-linecap:butt;stroke-linejoin:round;}
  </style>
 </defs>
 <g id="figure_1">
  <g id="patch_1">
   <path d="M 0 353.22225 
L 438.62 353.22225 
L 438.62 0 
L 0 0 
z
" style="fill:#ffffff;"/>
  </g>
  <g id="axes_1">
   <g id="patch_2">
    <path d="M 70.8 298.245375 
L 427.92 298.245375 
L 427.92 32.133375 
L 70.8 32.133375 
z
" style="fill:#ffffff;"/>
   </g>
   <g id="matplotlib.axis_1">
    <g id="xtick_1">
     <g id="line2d_1">
      <path clip-path="url(#pf9851deb68)" d="M 70.8 298.245375 
L 70.8 32.133375 
" style="fill:none;stroke:#b0b0b0;stroke-linecap:square;stroke-width:0.8;"/>
     </g>
     <g id="line2d_2">
      <defs>
       <path d="M 0 0 
L 0 3.5 
" id="mffc6de9a49" style="stroke:#000000;stroke-width:0.8;"/>
      </defs>
      <g>
       <use style="stroke:#000000;stroke-width:0.8;" x="70.8" xlink:href="#mffc6de9a49" y="298.245375"/>
      </g>
     </g>
     <g id="text_1">
      <!-- 0 -->
      <defs>
       <path d="M 31.78125 66.40625 
Q 24.171875 66.40625 20.328125 58.90625 
Q 16.5 51.421875 16.5 36.375 
Q 16.5 21.390625 20.328125 13.890625 
Q 24.171875 6.390625 31.78125 6.390625 
Q 39.453125 6.390625 43.28125 13.890625 
Q 47.125 21.390625 47.125 36.375 
Q 47.125 51.421875 43.28125 58.90625 
Q 39.453125 66.40625 31.78125 66.40625 
M 31.78125 74.21875 
Q 44.046875 74.21875 50.515625 64.515625 
Q 56.984375 54.828125 56.984375 36.375 
Q 56.984375 17.96875 50.515625 8.265625 
Q 44.046875 -1.421875 31.78125 -1.421875 
Q 19.53125 -1.421875 13.0625 8.265625 
Q 6.59375 17.96875 6.59375 36.375 
Q 6.59375 54.828125 13.0625 64.515625 
Q 19.53125 74.21875 31.78125 74.21875 
" id="DejaVuSans-30"/>
      </defs>
      <g transform="translate(64.4375 320.44225)scale(0.2 -0.2)">
       <use xlink:href="#DejaVuSans-30"/>
      </g>
     </g>
    </g>
    <g id="xtick_2">
     <g id="line2d_3">
      <path clip-path="url(#pf9851deb68)" d="M 153.085714 298.245375 
L 153.085714 32.133375 
" style="fill:none;stroke:#b0b0b0;stroke-linecap:square;stroke-width:0.8;"/>
     </g>
     <g id="line2d_4">
      <g>
       <use style="stroke:#000000;stroke-width:0.8;" x="153.085714" xlink:href="#mffc6de9a49" y="298.245375"/>
      </g>
     </g>
     <g id="text_2">
      <!-- 2 -->
      <defs>
       <path d="M 19.1875 8.296875 
L 53.609375 8.296875 
L 53.609375 0 
L 7.328125 0 
L 7.328125 8.296875 
Q 12.9375 14.109375 22.625 23.890625 
Q 32.328125 33.6875 34.8125 36.53125 
Q 39.546875 41.84375 41.421875 45.53125 
Q 43.3125 49.21875 43.3125 52.78125 
Q 43.3125 58.59375 39.234375 62.25 
Q 35.15625 65.921875 28.609375 65.921875 
Q 23.96875 65.921875 18.8125 64.3125 
Q 13.671875 62.703125 7.8125 59.421875 
L 7.8125 69.390625 
Q 13.765625 71.78125 18.9375 73 
Q 24.125 74.21875 28.421875 74.21875 
Q 39.75 74.21875 46.484375 68.546875 
Q 53.21875 62.890625 53.21875 53.421875 
Q 53.21875 48.921875 51.53125 44.890625 
Q 49.859375 40.875 45.40625 35.40625 
Q 44.1875 33.984375 37.640625 27.21875 
Q 31.109375 20.453125 19.1875 8.296875 
" id="DejaVuSans-32"/>
      </defs>
      <g transform="translate(146.723214 320.44225)scale(0.2 -0.2)">
       <use xlink:href="#DejaVuSans-32"/>
      </g>
     </g>
    </g>
    <g id="xtick_3">
     <g id="line2d_5">
      <path clip-path="url(#pf9851deb68)" d="M 235.371429 298.245375 
L 235.371429 32.133375 
" style="fill:none;stroke:#b0b0b0;stroke-linecap:square;stroke-width:0.8;"/>
     </g>
     <g id="line2d_6">
      <g>
       <use style="stroke:#000000;stroke-width:0.8;" x="235.371429" xlink:href="#mffc6de9a49" y="298.245375"/>
      </g>
     </g>
     <g id="text_3">
      <!-- 4 -->
      <defs>
       <path d="M 37.796875 64.3125 
L 12.890625 25.390625 
L 37.796875 25.390625 
z
M 35.203125 72.90625 
L 47.609375 72.90625 
L 47.609375 25.390625 
L 58.015625 25.390625 
L 58.015625 17.1875 
L 47.609375 17.1875 
L 47.609375 0 
L 37.796875 0 
L 37.796875 17.1875 
L 4.890625 17.1875 
L 4.890625 26.703125 
z
" id="DejaVuSans-34"/>
      </defs>
      <g transform="translate(229.008929 320.44225)scale(0.2 -0.2)">
       <use xlink:href="#DejaVuSans-34"/>
      </g>
     </g>
    </g>
    <g id="xtick_4">
     <g id="line2d_7">
      <path clip-path="url(#pf9851deb68)" d="M 317.657143 298.245375 
L 317.657143 32.133375 
" style="fill:none;stroke:#b0b0b0;stroke-linecap:square;stroke-width:0.8;"/>
     </g>
     <g id="line2d_8">
      <g>
       <use style="stroke:#000000;stroke-width:0.8;" x="317.657143" xlink:href="#mffc6de9a49" y="298.245375"/>
      </g>
     </g>
     <g id="text_4">
      <!-- 6 -->
      <defs>
       <path d="M 33.015625 40.375 
Q 26.375 40.375 22.484375 35.828125 
Q 18.609375 31.296875 18.609375 23.390625 
Q 18.609375 15.53125 22.484375 10.953125 
Q 26.375 6.390625 33.015625 6.390625 
Q 39.65625 6.390625 43.53125 10.953125 
Q 47.40625 15.53125 47.40625 23.390625 
Q 47.40625 31.296875 43.53125 35.828125 
Q 39.65625 40.375 33.015625 40.375 
M 52.59375 71.296875 
L 52.59375 62.3125 
Q 48.875 64.0625 45.09375 64.984375 
Q 41.3125 65.921875 37.59375 65.921875 
Q 27.828125 65.921875 22.671875 59.328125 
Q 17.53125 52.734375 16.796875 39.40625 
Q 19.671875 43.65625 24.015625 45.921875 
Q 28.375 48.1875 33.59375 48.1875 
Q 44.578125 48.1875 50.953125 41.515625 
Q 57.328125 34.859375 57.328125 23.390625 
Q 57.328125 12.15625 50.6875 5.359375 
Q 44.046875 -1.421875 33.015625 -1.421875 
Q 20.359375 -1.421875 13.671875 8.265625 
Q 6.984375 17.96875 6.984375 36.375 
Q 6.984375 53.65625 15.1875 63.9375 
Q 23.390625 74.21875 37.203125 74.21875 
Q 40.921875 74.21875 44.703125 73.484375 
Q 48.484375 72.75 52.59375 71.296875 
" id="DejaVuSans-36"/>
      </defs>
      <g transform="translate(311.294643 320.44225)scale(0.2 -0.2)">
       <use xlink:href="#DejaVuSans-36"/>
      </g>
     </g>
    </g>
    <g id="xtick_5">
     <g id="line2d_9">
      <path clip-path="url(#pf9851deb68)" d="M 399.942857 298.245375 
L 399.942857 32.133375 
" style="fill:none;stroke:#b0b0b0;stroke-linecap:square;stroke-width:0.8;"/>
     </g>
     <g id="line2d_10">
      <g>
       <use style="stroke:#000000;stroke-width:0.8;" x="399.942857" xlink:href="#mffc6de9a49" y="298.245375"/>
      </g>
     </g>
     <g id="text_5">
      <!-- 8 -->
      <defs>
       <path d="M 31.78125 34.625 
Q 24.75 34.625 20.71875 30.859375 
Q 16.703125 27.09375 16.703125 20.515625 
Q 16.703125 13.921875 20.71875 10.15625 
Q 24.75 6.390625 31.78125 6.390625 
Q 38.8125 6.390625 42.859375 10.171875 
Q 46.921875 13.96875 46.921875 20.515625 
Q 46.921875 27.09375 42.890625 30.859375 
Q 38.875 34.625 31.78125 34.625 
M 21.921875 38.8125 
Q 15.578125 40.375 12.03125 44.71875 
Q 8.5 49.078125 8.5 55.328125 
Q 8.5 64.0625 14.71875 69.140625 
Q 20.953125 74.21875 31.78125 74.21875 
Q 42.671875 74.21875 48.875 69.140625 
Q 55.078125 64.0625 55.078125 55.328125 
Q 55.078125 49.078125 51.53125 44.71875 
Q 48 40.375 41.703125 38.8125 
Q 48.828125 37.15625 52.796875 32.3125 
Q 56.78125 27.484375 56.78125 20.515625 
Q 56.78125 9.90625 50.3125 4.234375 
Q 43.84375 -1.421875 31.78125 -1.421875 
Q 19.734375 -1.421875 13.25 4.234375 
Q 6.78125 9.90625 6.78125 20.515625 
Q 6.78125 27.484375 10.78125 32.3125 
Q 14.796875 37.15625 21.921875 38.8125 
M 18.3125 54.390625 
Q 18.3125 48.734375 21.84375 45.5625 
Q 25.390625 42.390625 31.78125 42.390625 
Q 38.140625 42.390625 41.71875 45.5625 
Q 45.3125 48.734375 45.3125 54.390625 
Q 45.3125 60.0625 41.71875 63.234375 
Q 38.140625 66.40625 31.78125 66.40625 
Q 25.390625 66.40625 21.84375 63.234375 
Q 18.3125 60.0625 18.3125 54.390625 
" id="DejaVuSans-38"/>
      </defs>
      <g transform="translate(393.580357 320.44225)scale(0.2 -0.2)">
       <use xlink:href="#DejaVuSans-38"/>
      </g>
     </g>
    </g>
    <g id="xtick_6">
     <g id="line2d_11">
      <defs>
       <path d="M 0 0 
L 0 2 
" id="mc6d813c82d" style="stroke:#000000;stroke-width:0.6;"/>
      </defs>
      <g>
       <use style="stroke:#000000;stroke-width:0.6;" x="83.185234" xlink:href="#mc6d813c82d" y="298.245375"/>
      </g>
     </g>
    </g>
    <g id="xtick_7">
     <g id="line2d_12">
      <g>
       <use style="stroke:#000000;stroke-width:0.6;" x="95.570468" xlink:href="#mc6d813c82d" y="298.245375"/>
      </g>
     </g>
    </g>
    <g id="xtick_8">
     <g id="line2d_13">
      <g>
       <use style="stroke:#000000;stroke-width:0.6;" x="102.815366" xlink:href="#mc6d813c82d" y="298.245375"/>
      </g>
     </g>
    </g>
    <g id="xtick_9">
     <g id="line2d_14">
      <g>
       <use style="stroke:#000000;stroke-width:0.6;" x="107.955702" xlink:href="#mc6d813c82d" y="298.245375"/>
      </g>
     </g>
    </g>
    <g id="xtick_10">
     <g id="line2d_15">
      <g>
       <use style="stroke:#000000;stroke-width:0.6;" x="165.470948" xlink:href="#mc6d813c82d" y="298.245375"/>
      </g>
     </g>
    </g>
    <g id="xtick_11">
     <g id="line2d_16">
      <g>
       <use style="stroke:#000000;stroke-width:0.6;" x="177.856183" xlink:href="#mc6d813c82d" y="298.245375"/>
      </g>
     </g>
    </g>
    <g id="xtick_12">
     <g id="line2d_17">
      <g>
       <use style="stroke:#000000;stroke-width:0.6;" x="185.10108" xlink:href="#mc6d813c82d" y="298.245375"/>
      </g>
     </g>
    </g>
    <g id="xtick_13">
     <g id="line2d_18">
      <g>
       <use style="stroke:#000000;stroke-width:0.6;" x="190.241417" xlink:href="#mc6d813c82d" y="298.245375"/>
      </g>
     </g>
    </g>
    <g id="xtick_14">
     <g id="line2d_19">
      <g>
       <use style="stroke:#000000;stroke-width:0.6;" x="247.756663" xlink:href="#mc6d813c82d" y="298.245375"/>
      </g>
     </g>
    </g>
    <g id="xtick_15">
     <g id="line2d_20">
      <g>
       <use style="stroke:#000000;stroke-width:0.6;" x="260.141897" xlink:href="#mc6d813c82d" y="298.245375"/>
      </g>
     </g>
    </g>
    <g id="xtick_16">
     <g id="line2d_21">
      <g>
       <use style="stroke:#000000;stroke-width:0.6;" x="267.386794" xlink:href="#mc6d813c82d" y="298.245375"/>
      </g>
     </g>
    </g>
    <g id="xtick_17">
     <g id="line2d_22">
      <g>
       <use style="stroke:#000000;stroke-width:0.6;" x="272.527131" xlink:href="#mc6d813c82d" y="298.245375"/>
      </g>
     </g>
    </g>
    <g id="xtick_18">
     <g id="line2d_23">
      <g>
       <use style="stroke:#000000;stroke-width:0.6;" x="330.042377" xlink:href="#mc6d813c82d" y="298.245375"/>
      </g>
     </g>
    </g>
    <g id="xtick_19">
     <g id="line2d_24">
      <g>
       <use style="stroke:#000000;stroke-width:0.6;" x="342.427611" xlink:href="#mc6d813c82d" y="298.245375"/>
      </g>
     </g>
    </g>
    <g id="xtick_20">
     <g id="line2d_25">
      <g>
       <use style="stroke:#000000;stroke-width:0.6;" x="349.672509" xlink:href="#mc6d813c82d" y="298.245375"/>
      </g>
     </g>
    </g>
    <g id="xtick_21">
     <g id="line2d_26">
      <g>
       <use style="stroke:#000000;stroke-width:0.6;" x="354.812845" xlink:href="#mc6d813c82d" y="298.245375"/>
      </g>
     </g>
    </g>
    <g id="xtick_22">
     <g id="line2d_27">
      <g>
       <use style="stroke:#000000;stroke-width:0.6;" x="412.328091" xlink:href="#mc6d813c82d" y="298.245375"/>
      </g>
     </g>
    </g>
    <g id="xtick_23">
     <g id="line2d_28">
      <g>
       <use style="stroke:#000000;stroke-width:0.6;" x="424.713325" xlink:href="#mc6d813c82d" y="298.245375"/>
      </g>
     </g>
    </g>
    <g id="text_6">
     <!-- log10 of (# f-evals / dimension) -->
     <defs>
      <path d="M 9.421875 75.984375 
L 18.40625 75.984375 
L 18.40625 0 
L 9.421875 0 
z
" id="DejaVuSans-6c"/>
      <path d="M 30.609375 48.390625 
Q 23.390625 48.390625 19.1875 42.75 
Q 14.984375 37.109375 14.984375 27.296875 
Q 14.984375 17.484375 19.15625 11.84375 
Q 23.34375 6.203125 30.609375 6.203125 
Q 37.796875 6.203125 41.984375 11.859375 
Q 46.1875 17.53125 46.1875 27.296875 
Q 46.1875 37.015625 41.984375 42.703125 
Q 37.796875 48.390625 30.609375 48.390625 
M 30.609375 56 
Q 42.328125 56 49.015625 48.375 
Q 55.71875 40.765625 55.71875 27.296875 
Q 55.71875 13.875 49.015625 6.21875 
Q 42.328125 -1.421875 30.609375 -1.421875 
Q 18.84375 -1.421875 12.171875 6.21875 
Q 5.515625 13.875 5.515625 27.296875 
Q 5.515625 40.765625 12.171875 48.375 
Q 18.84375 56 30.609375 56 
" id="DejaVuSans-6f"/>
      <path d="M 45.40625 27.984375 
Q 45.40625 37.75 41.375 43.109375 
Q 37.359375 48.484375 30.078125 48.484375 
Q 22.859375 48.484375 18.828125 43.109375 
Q 14.796875 37.75 14.796875 27.984375 
Q 14.796875 18.265625 18.828125 12.890625 
Q 22.859375 7.515625 30.078125 7.515625 
Q 37.359375 7.515625 41.375 12.890625 
Q 45.40625 18.265625 45.40625 27.984375 
M 54.390625 6.78125 
Q 54.390625 -7.171875 48.1875 -13.984375 
Q 42 -20.796875 29.203125 -20.796875 
Q 24.46875 -20.796875 20.265625 -20.09375 
Q 16.0625 -19.390625 12.109375 -17.921875 
L 12.109375 -9.1875 
Q 16.0625 -11.328125 19.921875 -12.34375 
Q 23.78125 -13.375 27.78125 -13.375 
Q 36.625 -13.375 41.015625 -8.765625 
Q 45.40625 -4.15625 45.40625 5.171875 
L 45.40625 9.625 
Q 42.625 4.78125 38.28125 2.390625 
Q 33.9375 0 27.875 0 
Q 17.828125 0 11.671875 7.65625 
Q 5.515625 15.328125 5.515625 27.984375 
Q 5.515625 40.671875 11.671875 48.328125 
Q 17.828125 56 27.875 56 
Q 33.9375 56 38.28125 53.609375 
Q 42.625 51.21875 45.40625 46.390625 
L 45.40625 54.6875 
L 54.390625 54.6875 
z
" id="DejaVuSans-67"/>
      <path d="M 12.40625 8.296875 
L 28.515625 8.296875 
L 28.515625 63.921875 
L 10.984375 60.40625 
L 10.984375 69.390625 
L 28.421875 72.90625 
L 38.28125 72.90625 
L 38.28125 8.296875 
L 54.390625 8.296875 
L 54.390625 0 
L 12.40625 0 
z
" id="DejaVuSans-31"/>
      <path id="DejaVuSans-20"/>
      <path d="M 37.109375 75.984375 
L 37.109375 68.5 
L 28.515625 68.5 
Q 23.6875 68.5 21.796875 66.546875 
Q 19.921875 64.59375 19.921875 59.515625 
L 19.921875 54.6875 
L 34.71875 54.6875 
L 34.71875 47.703125 
L 19.921875 47.703125 
L 19.921875 0 
L 10.890625 0 
L 10.890625 47.703125 
L 2.296875 47.703125 
L 2.296875 54.6875 
L 10.890625 54.6875 
L 10.890625 58.5 
Q 10.890625 67.625 15.140625 71.796875 
Q 19.390625 75.984375 28.609375 75.984375 
z
" id="DejaVuSans-66"/>
      <path d="M 31 75.875 
Q 24.46875 64.65625 21.28125 53.65625 
Q 18.109375 42.671875 18.109375 31.390625 
Q 18.109375 20.125 21.3125 9.0625 
Q 24.515625 -2 31 -13.1875 
L 23.1875 -13.1875 
Q 15.875 -1.703125 12.234375 9.375 
Q 8.59375 20.453125 8.59375 31.390625 
Q 8.59375 42.28125 12.203125 53.3125 
Q 15.828125 64.359375 23.1875 75.875 
z
" id="DejaVuSans-28"/>
      <path d="M 51.125 44 
L 36.921875 44 
L 32.8125 27.6875 
L 47.125 27.6875 
z
M 43.796875 71.78125 
L 38.71875 51.515625 
L 52.984375 51.515625 
L 58.109375 71.78125 
L 65.921875 71.78125 
L 60.890625 51.515625 
L 76.125 51.515625 
L 76.125 44 
L 58.984375 44 
L 54.984375 27.6875 
L 70.515625 27.6875 
L 70.515625 20.21875 
L 53.078125 20.21875 
L 48 0 
L 40.1875 0 
L 45.21875 20.21875 
L 30.90625 20.21875 
L 25.875 0 
L 18.015625 0 
L 23.09375 20.21875 
L 7.71875 20.21875 
L 7.71875 27.6875 
L 24.90625 27.6875 
L 29 44 
L 13.28125 44 
L 13.28125 51.515625 
L 30.90625 51.515625 
L 35.890625 71.78125 
z
" id="DejaVuSans-23"/>
      <path d="M 4.890625 31.390625 
L 31.203125 31.390625 
L 31.203125 23.390625 
L 4.890625 23.390625 
z
" id="DejaVuSans-2d"/>
      <path d="M 56.203125 29.59375 
L 56.203125 25.203125 
L 14.890625 25.203125 
Q 15.484375 15.921875 20.484375 11.0625 
Q 25.484375 6.203125 34.421875 6.203125 
Q 39.59375 6.203125 44.453125 7.46875 
Q 49.3125 8.734375 54.109375 11.28125 
L 54.109375 2.78125 
Q 49.265625 0.734375 44.1875 -0.34375 
Q 39.109375 -1.421875 33.890625 -1.421875 
Q 20.796875 -1.421875 13.15625 6.1875 
Q 5.515625 13.8125 5.515625 26.8125 
Q 5.515625 40.234375 12.765625 48.109375 
Q 20.015625 56 32.328125 56 
Q 43.359375 56 49.78125 48.890625 
Q 56.203125 41.796875 56.203125 29.59375 
M 47.21875 32.234375 
Q 47.125 39.59375 43.09375 43.984375 
Q 39.0625 48.390625 32.421875 48.390625 
Q 24.90625 48.390625 20.390625 44.140625 
Q 15.875 39.890625 15.1875 32.171875 
z
" id="DejaVuSans-65"/>
      <path d="M 2.984375 54.6875 
L 12.5 54.6875 
L 29.59375 8.796875 
L 46.6875 54.6875 
L 56.203125 54.6875 
L 35.6875 0 
L 23.484375 0 
z
" id="DejaVuSans-76"/>
      <path d="M 34.28125 27.484375 
Q 23.390625 27.484375 19.1875 25 
Q 14.984375 22.515625 14.984375 16.5 
Q 14.984375 11.71875 18.140625 8.90625 
Q 21.296875 6.109375 26.703125 6.109375 
Q 34.1875 6.109375 38.703125 11.40625 
Q 43.21875 16.703125 43.21875 25.484375 
L 43.21875 27.484375 
z
M 52.203125 31.203125 
L 52.203125 0 
L 43.21875 0 
L 43.21875 8.296875 
Q 40.140625 3.328125 35.546875 0.953125 
Q 30.953125 -1.421875 24.3125 -1.421875 
Q 15.921875 -1.421875 10.953125 3.296875 
Q 6 8.015625 6 15.921875 
Q 6 25.140625 12.171875 29.828125 
Q 18.359375 34.515625 30.609375 34.515625 
L 43.21875 34.515625 
L 43.21875 35.40625 
Q 43.21875 41.609375 39.140625 45 
Q 35.0625 48.390625 27.6875 48.390625 
Q 23 48.390625 18.546875 47.265625 
Q 14.109375 46.140625 10.015625 43.890625 
L 10.015625 52.203125 
Q 14.9375 54.109375 19.578125 55.046875 
Q 24.21875 56 28.609375 56 
Q 40.484375 56 46.34375 49.84375 
Q 52.203125 43.703125 52.203125 31.203125 
" id="DejaVuSans-61"/>
      <path d="M 44.28125 53.078125 
L 44.28125 44.578125 
Q 40.484375 46.53125 36.375 47.5 
Q 32.28125 48.484375 27.875 48.484375 
Q 21.1875 48.484375 17.84375 46.4375 
Q 14.5 44.390625 14.5 40.28125 
Q 14.5 37.15625 16.890625 35.375 
Q 19.28125 33.59375 26.515625 31.984375 
L 29.59375 31.296875 
Q 39.15625 29.25 43.1875 25.515625 
Q 47.21875 21.78125 47.21875 15.09375 
Q 47.21875 7.46875 41.1875 3.015625 
Q 35.15625 -1.421875 24.609375 -1.421875 
Q 20.21875 -1.421875 15.453125 -0.5625 
Q 10.6875 0.296875 5.421875 2 
L 5.421875 11.28125 
Q 10.40625 8.6875 15.234375 7.390625 
Q 20.0625 6.109375 24.8125 6.109375 
Q 31.15625 6.109375 34.5625 8.28125 
Q 37.984375 10.453125 37.984375 14.40625 
Q 37.984375 18.0625 35.515625 20.015625 
Q 33.0625 21.96875 24.703125 23.78125 
L 21.578125 24.515625 
Q 13.234375 26.265625 9.515625 29.90625 
Q 5.8125 33.546875 5.8125 39.890625 
Q 5.8125 47.609375 11.28125 51.796875 
Q 16.75 56 26.8125 56 
Q 31.78125 56 36.171875 55.265625 
Q 40.578125 54.546875 44.28125 53.078125 
" id="DejaVuSans-73"/>
      <path d="M 25.390625 72.90625 
L 33.6875 72.90625 
L 8.296875 -9.28125 
L 0 -9.28125 
z
" id="DejaVuSans-2f"/>
      <path d="M 45.40625 46.390625 
L 45.40625 75.984375 
L 54.390625 75.984375 
L 54.390625 0 
L 45.40625 0 
L 45.40625 8.203125 
Q 42.578125 3.328125 38.25 0.953125 
Q 33.9375 -1.421875 27.875 -1.421875 
Q 17.96875 -1.421875 11.734375 6.484375 
Q 5.515625 14.40625 5.515625 27.296875 
Q 5.515625 40.1875 11.734375 48.09375 
Q 17.96875 56 27.875 56 
Q 33.9375 56 38.25 53.625 
Q 42.578125 51.265625 45.40625 46.390625 
M 14.796875 27.296875 
Q 14.796875 17.390625 18.875 11.75 
Q 22.953125 6.109375 30.078125 6.109375 
Q 37.203125 6.109375 41.296875 11.75 
Q 45.40625 17.390625 45.40625 27.296875 
Q 45.40625 37.203125 41.296875 42.84375 
Q 37.203125 48.484375 30.078125 48.484375 
Q 22.953125 48.484375 18.875 42.84375 
Q 14.796875 37.203125 14.796875 27.296875 
" id="DejaVuSans-64"/>
      <path d="M 9.421875 54.6875 
L 18.40625 54.6875 
L 18.40625 0 
L 9.421875 0 
z
M 9.421875 75.984375 
L 18.40625 75.984375 
L 18.40625 64.59375 
L 9.421875 64.59375 
z
" id="DejaVuSans-69"/>
      <path d="M 52 44.1875 
Q 55.375 50.25 60.0625 53.125 
Q 64.75 56 71.09375 56 
Q 79.640625 56 84.28125 50.015625 
Q 88.921875 44.046875 88.921875 33.015625 
L 88.921875 0 
L 79.890625 0 
L 79.890625 32.71875 
Q 79.890625 40.578125 77.09375 44.375 
Q 74.3125 48.1875 68.609375 48.1875 
Q 61.625 48.1875 57.5625 43.546875 
Q 53.515625 38.921875 53.515625 30.90625 
L 53.515625 0 
L 44.484375 0 
L 44.484375 32.71875 
Q 44.484375 40.625 41.703125 44.40625 
Q 38.921875 48.1875 33.109375 48.1875 
Q 26.21875 48.1875 22.15625 43.53125 
Q 18.109375 38.875 18.109375 30.90625 
L 18.109375 0 
L 9.078125 0 
L 9.078125 54.6875 
L 18.109375 54.6875 
L 18.109375 46.1875 
Q 21.1875 51.21875 25.484375 53.609375 
Q 29.78125 56 35.6875 56 
Q 41.65625 56 45.828125 52.96875 
Q 50 49.953125 52 44.1875 
" id="DejaVuSans-6d"/>
      <path d="M 54.890625 33.015625 
L 54.890625 0 
L 45.90625 0 
L 45.90625 32.71875 
Q 45.90625 40.484375 42.875 44.328125 
Q 39.84375 48.1875 33.796875 48.1875 
Q 26.515625 48.1875 22.3125 43.546875 
Q 18.109375 38.921875 18.109375 30.90625 
L 18.109375 0 
L 9.078125 0 
L 9.078125 54.6875 
L 18.109375 54.6875 
L 18.109375 46.1875 
Q 21.34375 51.125 25.703125 53.5625 
Q 30.078125 56 35.796875 56 
Q 45.21875 56 50.046875 50.171875 
Q 54.890625 44.34375 54.890625 33.015625 
" id="DejaVuSans-6e"/>
      <path d="M 8.015625 75.875 
L 15.828125 75.875 
Q 23.140625 64.359375 26.78125 53.3125 
Q 30.421875 42.28125 30.421875 31.390625 
Q 30.421875 20.453125 26.78125 9.375 
Q 23.140625 -1.703125 15.828125 -13.1875 
L 8.015625 -13.1875 
Q 14.5 -2 17.703125 9.0625 
Q 20.90625 20.125 20.90625 31.390625 
Q 20.90625 42.671875 17.703125 53.65625 
Q 14.5 64.65625 8.015625 75.875 
" id="DejaVuSans-29"/>
     </defs>
     <g transform="translate(107.015156 342.278812)scale(0.18 -0.18)">
      <use xlink:href="#DejaVuSans-6c"/>
      <use x="27.783203" xlink:href="#DejaVuSans-6f"/>
      <use x="88.964844" xlink:href="#DejaVuSans-67"/>
      <use x="152.441406" xlink:href="#DejaVuSans-31"/>
      <use x="216.064453" xlink:href="#DejaVuSans-30"/>
      <use x="279.6875" xlink:href="#DejaVuSans-20"/>
      <use x="311.474609" xlink:href="#DejaVuSans-6f"/>
      <use x="372.65625" xlink:href="#DejaVuSans-66"/>
      <use x="407.861328" xlink:href="#DejaVuSans-20"/>
      <use x="439.648438" xlink:href="#DejaVuSans-28"/>
      <use x="478.662109" xlink:href="#DejaVuSans-23"/>
      <use x="562.451172" xlink:href="#DejaVuSans-20"/>
      <use x="594.238281" xlink:href="#DejaVuSans-66"/>
      <use x="629.365234" xlink:href="#DejaVuSans-2d"/>
      <use x="665.449219" xlink:href="#DejaVuSans-65"/>
      <use x="726.972656" xlink:href="#DejaVuSans-76"/>
      <use x="786.152344" xlink:href="#DejaVuSans-61"/>
      <use x="847.431641" xlink:href="#DejaVuSans-6c"/>
      <use x="875.214844" xlink:href="#DejaVuSans-73"/>
      <use x="927.314453" xlink:href="#DejaVuSans-20"/>
      <use x="959.101562" xlink:href="#DejaVuSans-2f"/>
      <use x="992.792969" xlink:href="#DejaVuSans-20"/>
      <use x="1024.580078" xlink:href="#DejaVuSans-64"/>
      <use x="1088.056641" xlink:href="#DejaVuSans-69"/>
      <use x="1115.839844" xlink:href="#DejaVuSans-6d"/>
      <use x="1213.251953" xlink:href="#DejaVuSans-65"/>
      <use x="1274.775391" xlink:href="#DejaVuSans-6e"/>
      <use x="1338.154297" xlink:href="#DejaVuSans-73"/>
      <use x="1390.253906" xlink:href="#DejaVuSans-69"/>
      <use x="1418.037109" xlink:href="#DejaVuSans-6f"/>
      <use x="1479.21875" xlink:href="#DejaVuSans-6e"/>
      <use x="1542.597656" xlink:href="#DejaVuSans-29"/>
     </g>
    </g>
   </g>
   <g id="matplotlib.axis_2">
    <g id="ytick_1">
     <g id="line2d_29">
      <path clip-path="url(#pf9851deb68)" d="M 70.8 298.245375 
L 427.92 298.245375 
" style="fill:none;stroke:#b0b0b0;stroke-linecap:square;stroke-width:0.8;"/>
     </g>
     <g id="line2d_30">
      <defs>
       <path d="M 0 0 
L -3.5 0 
" id="m6d5cab781d" style="stroke:#000000;stroke-width:0.8;"/>
      </defs>
      <g>
       <use style="stroke:#000000;stroke-width:0.8;" x="70.8" xlink:href="#m6d5cab781d" y="298.245375"/>
      </g>
     </g>
     <g id="text_7">
      <!-- 0.0 -->
      <defs>
       <path d="M 10.6875 12.40625 
L 21 12.40625 
L 21 0 
L 10.6875 0 
z
" id="DejaVuSans-2e"/>
      </defs>
      <g transform="translate(31.99375 305.843812)scale(0.2 -0.2)">
       <use xlink:href="#DejaVuSans-30"/>
       <use x="63.623047" xlink:href="#DejaVuSans-2e"/>
       <use x="95.410156" xlink:href="#DejaVuSans-30"/>
      </g>
     </g>
    </g>
    <g id="ytick_2">
     <g id="line2d_31">
      <path clip-path="url(#pf9851deb68)" d="M 70.8 245.549929 
L 427.92 245.549929 
" style="fill:none;stroke:#b0b0b0;stroke-linecap:square;stroke-width:0.8;"/>
     </g>
     <g id="line2d_32">
      <g>
       <use style="stroke:#000000;stroke-width:0.8;" x="70.8" xlink:href="#m6d5cab781d" y="245.549929"/>
      </g>
     </g>
     <g id="text_8">
      <!-- 0.2 -->
      <g transform="translate(31.99375 253.148367)scale(0.2 -0.2)">
       <use xlink:href="#DejaVuSans-30"/>
       <use x="63.623047" xlink:href="#DejaVuSans-2e"/>
       <use x="95.410156" xlink:href="#DejaVuSans-32"/>
      </g>
     </g>
    </g>
    <g id="ytick_3">
     <g id="line2d_33">
      <path clip-path="url(#pf9851deb68)" d="M 70.8 192.854484 
L 427.92 192.854484 
" style="fill:none;stroke:#b0b0b0;stroke-linecap:square;stroke-width:0.8;"/>
     </g>
     <g id="line2d_34">
      <g>
       <use style="stroke:#000000;stroke-width:0.8;" x="70.8" xlink:href="#m6d5cab781d" y="192.854484"/>
      </g>
     </g>
     <g id="text_9">
      <!-- 0.4 -->
      <g transform="translate(31.99375 200.452921)scale(0.2 -0.2)">
       <use xlink:href="#DejaVuSans-30"/>
       <use x="63.623047" xlink:href="#DejaVuSans-2e"/>
       <use x="95.410156" xlink:href="#DejaVuSans-34"/>
      </g>
     </g>
    </g>
    <g id="ytick_4">
     <g id="line2d_35">
      <path clip-path="url(#pf9851deb68)" d="M 70.8 140.159038 
L 427.92 140.159038 
" style="fill:none;stroke:#b0b0b0;stroke-linecap:square;stroke-width:0.8;"/>
     </g>
     <g id="line2d_36">
      <g>
       <use style="stroke:#000000;stroke-width:0.8;" x="70.8" xlink:href="#m6d5cab781d" y="140.159038"/>
      </g>
     </g>
     <g id="text_10">
      <!-- 0.6 -->
      <g transform="translate(31.99375 147.757476)scale(0.2 -0.2)">
       <use xlink:href="#DejaVuSans-30"/>
       <use x="63.623047" xlink:href="#DejaVuSans-2e"/>
       <use x="95.410156" xlink:href="#DejaVuSans-36"/>
      </g>
     </g>
    </g>
    <g id="ytick_5">
     <g id="line2d_37">
      <path clip-path="url(#pf9851deb68)" d="M 70.8 87.463593 
L 427.92 87.463593 
" style="fill:none;stroke:#b0b0b0;stroke-linecap:square;stroke-width:0.8;"/>
     </g>
     <g id="line2d_38">
      <g>
       <use style="stroke:#000000;stroke-width:0.8;" x="70.8" xlink:href="#m6d5cab781d" y="87.463593"/>
      </g>
     </g>
     <g id="text_11">
      <!-- 0.8 -->
      <g transform="translate(31.99375 95.06203)scale(0.2 -0.2)">
       <use xlink:href="#DejaVuSans-30"/>
       <use x="63.623047" xlink:href="#DejaVuSans-2e"/>
       <use x="95.410156" xlink:href="#DejaVuSans-38"/>
      </g>
     </g>
    </g>
    <g id="ytick_6">
     <g id="line2d_39">
      <path clip-path="url(#pf9851deb68)" d="M 70.8 34.768147 
L 427.92 34.768147 
" style="fill:none;stroke:#b0b0b0;stroke-linecap:square;stroke-width:0.8;"/>
     </g>
     <g id="line2d_40">
      <g>
       <use style="stroke:#000000;stroke-width:0.8;" x="70.8" xlink:href="#m6d5cab781d" y="34.768147"/>
      </g>
     </g>
     <g id="text_12">
      <!-- 1.0 -->
      <g transform="translate(31.99375 42.366585)scale(0.2 -0.2)">
       <use xlink:href="#DejaVuSans-31"/>
       <use x="63.623047" xlink:href="#DejaVuSans-2e"/>
       <use x="95.410156" xlink:href="#DejaVuSans-30"/>
      </g>
     </g>
    </g>
    <g id="text_13">
     <!-- Proportion of function+target pairs -->
     <defs>
      <path d="M 19.671875 64.796875 
L 19.671875 37.40625 
L 32.078125 37.40625 
Q 38.96875 37.40625 42.71875 40.96875 
Q 46.484375 44.53125 46.484375 51.125 
Q 46.484375 57.671875 42.71875 61.234375 
Q 38.96875 64.796875 32.078125 64.796875 
z
M 9.8125 72.90625 
L 32.078125 72.90625 
Q 44.34375 72.90625 50.609375 67.359375 
Q 56.890625 61.8125 56.890625 51.125 
Q 56.890625 40.328125 50.609375 34.8125 
Q 44.34375 29.296875 32.078125 29.296875 
L 19.671875 29.296875 
L 19.671875 0 
L 9.8125 0 
z
" id="DejaVuSans-50"/>
      <path d="M 41.109375 46.296875 
Q 39.59375 47.171875 37.8125 47.578125 
Q 36.03125 48 33.890625 48 
Q 26.265625 48 22.1875 43.046875 
Q 18.109375 38.09375 18.109375 28.8125 
L 18.109375 0 
L 9.078125 0 
L 9.078125 54.6875 
L 18.109375 54.6875 
L 18.109375 46.1875 
Q 20.953125 51.171875 25.484375 53.578125 
Q 30.03125 56 36.53125 56 
Q 37.453125 56 38.578125 55.875 
Q 39.703125 55.765625 41.0625 55.515625 
z
" id="DejaVuSans-72"/>
      <path d="M 18.109375 8.203125 
L 18.109375 -20.796875 
L 9.078125 -20.796875 
L 9.078125 54.6875 
L 18.109375 54.6875 
L 18.109375 46.390625 
Q 20.953125 51.265625 25.265625 53.625 
Q 29.59375 56 35.59375 56 
Q 45.5625 56 51.78125 48.09375 
Q 58.015625 40.1875 58.015625 27.296875 
Q 58.015625 14.40625 51.78125 6.484375 
Q 45.5625 -1.421875 35.59375 -1.421875 
Q 29.59375 -1.421875 25.265625 0.953125 
Q 20.953125 3.328125 18.109375 8.203125 
M 48.6875 27.296875 
Q 48.6875 37.203125 44.609375 42.84375 
Q 40.53125 48.484375 33.40625 48.484375 
Q 26.265625 48.484375 22.1875 42.84375 
Q 18.109375 37.203125 18.109375 27.296875 
Q 18.109375 17.390625 22.1875 11.75 
Q 26.265625 6.109375 33.40625 6.109375 
Q 40.53125 6.109375 44.609375 11.75 
Q 48.6875 17.390625 48.6875 27.296875 
" id="DejaVuSans-70"/>
      <path d="M 18.3125 70.21875 
L 18.3125 54.6875 
L 36.8125 54.6875 
L 36.8125 47.703125 
L 18.3125 47.703125 
L 18.3125 18.015625 
Q 18.3125 11.328125 20.140625 9.421875 
Q 21.96875 7.515625 27.59375 7.515625 
L 36.8125 7.515625 
L 36.8125 0 
L 27.59375 0 
Q 17.1875 0 13.234375 3.875 
Q 9.28125 7.765625 9.28125 18.015625 
L 9.28125 47.703125 
L 2.6875 47.703125 
L 2.6875 54.6875 
L 9.28125 54.6875 
L 9.28125 70.21875 
z
" id="DejaVuSans-74"/>
      <path d="M 8.5 21.578125 
L 8.5 54.6875 
L 17.484375 54.6875 
L 17.484375 21.921875 
Q 17.484375 14.15625 20.5 10.265625 
Q 23.53125 6.390625 29.59375 6.390625 
Q 36.859375 6.390625 41.078125 11.03125 
Q 45.3125 15.671875 45.3125 23.6875 
L 45.3125 54.6875 
L 54.296875 54.6875 
L 54.296875 0 
L 45.3125 0 
L 45.3125 8.40625 
Q 42.046875 3.421875 37.71875 1 
Q 33.40625 -1.421875 27.6875 -1.421875 
Q 18.265625 -1.421875 13.375 4.4375 
Q 8.5 10.296875 8.5 21.578125 
M 31.109375 56 
z
" id="DejaVuSans-75"/>
      <path d="M 48.78125 52.59375 
L 48.78125 44.1875 
Q 44.96875 46.296875 41.140625 47.34375 
Q 37.3125 48.390625 33.40625 48.390625 
Q 24.65625 48.390625 19.8125 42.84375 
Q 14.984375 37.3125 14.984375 27.296875 
Q 14.984375 17.28125 19.8125 11.734375 
Q 24.65625 6.203125 33.40625 6.203125 
Q 37.3125 6.203125 41.140625 7.25 
Q 44.96875 8.296875 48.78125 10.40625 
L 48.78125 2.09375 
Q 45.015625 0.34375 40.984375 -0.53125 
Q 36.96875 -1.421875 32.421875 -1.421875 
Q 20.0625 -1.421875 12.78125 6.34375 
Q 5.515625 14.109375 5.515625 27.296875 
Q 5.515625 40.671875 12.859375 48.328125 
Q 20.21875 56 33.015625 56 
Q 37.15625 56 41.109375 55.140625 
Q 45.0625 54.296875 48.78125 52.59375 
" id="DejaVuSans-63"/>
      <path d="M 46 62.703125 
L 46 35.5 
L 73.1875 35.5 
L 73.1875 27.203125 
L 46 27.203125 
L 46 0 
L 37.796875 0 
L 37.796875 27.203125 
L 10.59375 27.203125 
L 10.59375 35.5 
L 37.796875 35.5 
L 37.796875 62.703125 
z
" id="DejaVuSans-2b"/>
     </defs>
     <g transform="translate(24.250312 323.17875)rotate(-90)scale(0.18 -0.18)">
      <use xlink:href="#DejaVuSans-50"/>
      <use x="60.287109" xlink:href="#DejaVuSans-72"/>
      <use x="101.369141" xlink:href="#DejaVuSans-6f"/>
      <use x="162.550781" xlink:href="#DejaVuSans-70"/>
      <use x="226.027344" xlink:href="#DejaVuSans-6f"/>
      <use x="287.208984" xlink:href="#DejaVuSans-72"/>
      <use x="328.322266" xlink:href="#DejaVuSans-74"/>
      <use x="367.53125" xlink:href="#DejaVuSans-69"/>
      <use x="395.314453" xlink:href="#DejaVuSans-6f"/>
      <use x="456.496094" xlink:href="#DejaVuSans-6e"/>
      <use x="519.875" xlink:href="#DejaVuSans-20"/>
      <use x="551.662109" xlink:href="#DejaVuSans-6f"/>
      <use x="612.84375" xlink:href="#DejaVuSans-66"/>
      <use x="648.048828" xlink:href="#DejaVuSans-20"/>
      <use x="679.835938" xlink:href="#DejaVuSans-66"/>
      <use x="715.041016" xlink:href="#DejaVuSans-75"/>
      <use x="778.419922" xlink:href="#DejaVuSans-6e"/>
      <use x="841.798828" xlink:href="#DejaVuSans-63"/>
      <use x="896.779297" xlink:href="#DejaVuSans-74"/>
      <use x="935.988281" xlink:href="#DejaVuSans-69"/>
      <use x="963.771484" xlink:href="#DejaVuSans-6f"/>
      <use x="1024.953125" xlink:href="#DejaVuSans-6e"/>
      <use x="1088.332031" xlink:href="#DejaVuSans-2b"/>
      <use x="1172.121094" xlink:href="#DejaVuSans-74"/>
      <use x="1211.330078" xlink:href="#DejaVuSans-61"/>
      <use x="1272.609375" xlink:href="#DejaVuSans-72"/>
      <use x="1313.707031" xlink:href="#DejaVuSans-67"/>
      <use x="1377.183594" xlink:href="#DejaVuSans-65"/>
      <use x="1438.707031" xlink:href="#DejaVuSans-74"/>
      <use x="1477.916016" xlink:href="#DejaVuSans-20"/>
      <use x="1509.703125" xlink:href="#DejaVuSans-70"/>
      <use x="1573.179688" xlink:href="#DejaVuSans-61"/>
      <use x="1634.458984" xlink:href="#DejaVuSans-69"/>
      <use x="1662.242188" xlink:href="#DejaVuSans-72"/>
      <use x="1703.355469" xlink:href="#DejaVuSans-73"/>
     </g>
    </g>
   </g>
   <g id="line2d_41">
    <defs>
     <path d="M 0 1.5 
C 0.397805 1.5 0.77937 1.341951 1.06066 1.06066 
C 1.341951 0.77937 1.5 0.397805 1.5 0 
C 1.5 -0.397805 1.341951 -0.77937 1.06066 -1.06066 
C 0.77937 -1.341951 0.397805 -1.5 0 -1.5 
C -0.397805 -1.5 -0.77937 -1.341951 -1.06066 -1.06066 
C -1.341951 -0.77937 -1.5 -0.397805 -1.5 0 
C -1.5 0.397805 -1.341951 0.77937 -1.06066 1.06066 
C -0.77937 1.341951 -0.397805 1.5 0 1.5 
z
" id="m19bce934a1" style="stroke:#000080;"/>
    </defs>
    <g>
     <use style="fill:#000080;stroke:#000080;" x="157.97866" xlink:href="#m19bce934a1" y="34.768147"/>
     <use style="fill:#000080;stroke:#000080;" x="157.97866" xlink:href="#m19bce934a1" y="34.768147"/>
    </g>
   </g>
   <g id="line2d_42">
    <path d="M 58.414766 298.245375 
L 58.414766 271.897652 
L 70.8 271.897652 
L 70.8 269.314542 
L 78.044898 269.314542 
L 78.044898 266.21481 
L 83.185234 266.21481 
L 83.185234 262.598456 
L 87.172389 262.598456 
L 87.172389 260.015346 
L 90.430132 260.015346 
L 90.430132 257.432236 
L 93.184514 257.432236 
L 93.184514 256.915614 
L 97.675029 256.915614 
L 97.675029 256.398992 
L 99.557623 256.398992 
L 99.557623 255.88237 
L 101.260636 255.88237 
L 101.260636 251.749394 
L 102.815366 251.749394 
L 102.815366 251.232772 
L 104.245578 251.232772 
L 104.245578 250.71615 
L 107.955702 250.71615 
L 107.955702 249.166284 
L 110.060263 249.166284 
L 110.060263 248.649662 
L 111.026343 248.649662 
L 111.026343 248.13304 
L 111.942857 248.13304 
L 111.942857 247.616418 
L 113.64587 247.616418 
L 113.64587 246.066551 
L 114.44014 246.066551 
L 114.44014 244.516685 
L 115.2006 244.516685 
L 115.2006 243.483441 
L 115.930012 243.483441 
L 115.930012 240.383709 
L 116.630812 240.383709 
L 116.630812 237.800599 
L 117.954982 237.800599 
L 117.954982 234.700867 
L 118.581998 234.700867 
L 118.581998 230.051269 
L 122.445497 230.051269 
L 122.445497 229.534647 
L 122.935065 229.534647 
L 122.935065 229.018025 
L 123.411577 229.018025 
L 123.411577 227.468159 
L 123.87571 227.468159 
L 123.87571 225.918293 
L 124.328091 225.918293 
L 124.328091 224.368427 
L 124.769302 224.368427 
L 124.769302 222.301939 
L 125.19988 222.301939 
L 125.19988 218.685585 
L 125.620325 218.685585 
L 125.620325 218.168963 
L 127.209649 218.168963 
L 127.209649 216.619097 
L 127.585834 216.619097 
L 127.585834 216.102475 
L 127.954262 216.102475 
L 127.954262 214.035987 
L 128.315246 214.035987 
L 128.315246 213.519365 
L 128.669082 213.519365 
L 128.669082 210.419632 
L 130.340216 210.419632 
L 130.340216 206.286656 
L 130.656474 206.286656 
L 130.656474 203.703546 
L 130.967232 203.703546 
L 130.967232 200.603814 
L 131.868336 200.603814 
L 131.868336 198.537326 
L 132.158881 198.537326 
L 132.158881 195.954216 
L 133.276002 195.954216 
L 133.276002 194.40435 
L 134.327371 194.40435 
L 134.327371 192.854484 
L 134.580824 192.854484 
L 134.580824 190.271374 
L 134.830731 190.271374 
L 134.830731 188.721508 
L 135.077192 188.721508 
L 135.077192 183.038666 
L 135.3203 183.038666 
L 135.3203 182.522044 
L 135.560144 182.522044 
L 135.560144 182.005422 
L 136.488566 182.005422 
L 136.488566 180.455556 
L 136.713325 180.455556 
L 136.713325 175.805957 
L 138.005559 175.805957 
L 138.005559 174.256091 
L 138.817886 174.256091 
L 138.817886 173.222847 
L 139.015326 173.222847 
L 139.015326 172.706225 
L 139.210608 172.706225 
L 139.210608 171.672981 
L 139.403779 171.672981 
L 139.403779 170.639737 
L 139.594883 170.639737 
L 139.594883 170.123115 
L 139.783966 170.123115 
L 139.783966 163.407029 
L 139.971068 163.407029 
L 139.971068 162.373785 
L 140.156232 162.373785 
L 140.156232 160.307297 
L 140.5209 160.307297 
L 140.5209 159.274053 
L 141.054316 159.274053 
L 141.054316 158.240809 
L 141.22864 158.240809 
L 141.22864 155.141077 
L 141.572268 155.141077 
L 141.572268 154.624455 
L 141.741636 154.624455 
L 141.741636 149.458235 
L 142.240313 149.458235 
L 142.240313 148.941613 
L 142.72545 148.941613 
L 142.72545 148.424991 
L 142.884279 148.424991 
L 142.884279 147.391747 
L 143.041708 147.391747 
L 143.041708 145.325259 
L 143.197763 145.325259 
L 143.197763 144.292014 
L 144.106507 144.292014 
L 144.106507 143.775392 
L 144.399433 143.775392 
L 144.399433 140.159038 
L 144.544115 140.159038 
L 144.544115 139.642416 
L 144.687635 139.642416 
L 144.687635 139.125794 
L 144.830011 139.125794 
L 144.830011 136.542684 
L 145.250457 136.542684 
L 145.250457 133.442952 
L 145.388435 133.442952 
L 145.388435 132.409708 
L 145.525356 132.409708 
L 145.525356 129.309976 
L 145.661236 129.309976 
L 145.661236 127.243488 
L 145.796091 127.243488 
L 145.796091 126.210244 
L 146.062784 126.210244 
L 146.062784 125.177 
L 146.325555 125.177 
L 146.325555 123.110512 
L 146.584518 123.110512 
L 146.584518 121.560646 
L 146.712605 121.560646 
L 146.712605 119.494158 
L 146.839781 119.494158 
L 146.839781 118.460914 
L 146.966058 118.460914 
L 146.966058 115.877804 
L 147.584393 115.877804 
L 147.584393 114.84456 
L 147.705534 114.84456 
L 147.705534 112.778072 
L 147.825858 112.778072 
L 147.825858 111.744828 
L 147.945378 111.744828 
L 147.945378 111.228206 
L 148.182045 111.228206 
L 148.182045 109.678339 
L 148.299213 109.678339 
L 148.299213 108.645095 
L 148.53127 108.645095 
L 148.53127 107.095229 
L 148.646178 107.095229 
L 148.646178 101.929009 
L 148.760352 101.929009 
L 148.760352 100.895765 
L 148.8738 100.895765 
L 148.8738 99.862521 
L 148.986533 99.862521 
L 148.986533 98.312655 
L 149.098559 98.312655 
L 149.098559 93.663057 
L 149.320526 93.663057 
L 149.320526 89.013459 
L 149.756356 89.013459 
L 149.863672 85.397105 
L 150.181807 85.397105 
L 150.286606 81.264129 
L 150.390793 81.264129 
L 150.390793 80.747507 
L 150.597364 80.747507 
L 150.597364 77.647775 
L 151.003475 77.647775 
L 151.003475 74.548042 
L 151.20312 74.548042 
L 151.20312 72.998176 
L 151.40056 72.998176 
L 151.498468 69.381822 
L 151.595842 69.381822 
L 151.595842 68.8652 
L 151.789013 68.8652 
L 151.884821 65.248846 
L 151.980117 65.248846 
L 151.980117 64.215602 
L 152.262996 64.215602 
L 152.262996 63.69898 
L 152.541466 63.69898 
L 152.633333 60.082626 
L 152.72473 60.082626 
L 152.72473 59.049382 
L 152.906134 59.049382 
L 152.906134 56.466272 
L 153.085714 56.466272 
L 153.085714 55.433028 
L 153.263508 55.433028 
L 153.263508 54.399784 
L 153.43955 54.399784 
L 153.43955 53.883162 
L 153.613874 53.883162 
L 153.700403 47.167076 
L 154.210955 47.167076 
L 154.210955 45.61721 
L 154.625547 45.61721 
L 154.707324 43.0341 
L 155.190275 43.0341 
L 155.190275 41.484233 
L 155.348401 41.484233 
L 155.348401 39.934367 
L 155.582997 39.934367 
L 155.582997 38.901123 
L 155.7377 38.901123 
L 155.814552 35.801391 
L 157.97866 35.801391 
L 157.97866 34.768147 
L 358.8 34.768147 
L 358.8 34.768147 
" style="fill:none;stroke:#000080;stroke-linecap:square;stroke-width:1.5;"/>
   </g>
   <g id="line2d_43">
    <defs>
     <path d="M 0 6 
C 1.591219 6 3.117479 5.367802 4.242641 4.242641 
C 5.367802 3.117479 6 1.591219 6 0 
C 6 -1.591219 5.367802 -3.117479 4.242641 -4.242641 
C 3.117479 -5.367802 1.591219 -6 0 -6 
C -1.591219 -6 -3.117479 -5.367802 -4.242641 -4.242641 
C -5.367802 -3.117479 -6 -1.591219 -6 0 
C -6 1.591219 -5.367802 3.117479 -4.242641 4.242641 
C -3.117479 5.367802 -1.591219 6 0 6 
z
" id="m6dd763b647" style="stroke:#000080;stroke-width:1.5;"/>
    </defs>
    <g>
     <use style="fill:none;stroke:#000080;stroke-width:1.5;" x="130.340216" xlink:href="#m6dd763b647" y="206.286656"/>
     <use style="fill:none;stroke:#000080;stroke-width:1.5;" x="150.286606" xlink:href="#m6dd763b647" y="84.363861"/>
     <use style="fill:none;stroke:#000080;stroke-width:1.5;" x="157.97866" xlink:href="#m6dd763b647" y="35.801391"/>
     <use style="fill:none;stroke:#000080;stroke-width:1.5;" x="157.97866" xlink:href="#m6dd763b647" y="34.768147"/>
     <use style="fill:none;stroke:#000080;stroke-width:1.5;" x="157.97866" xlink:href="#m6dd763b647" y="34.768147"/>
     <use style="fill:none;stroke:#000080;stroke-width:1.5;" x="358.8" xlink:href="#m6dd763b647" y="34.768147"/>
    </g>
   </g>
   <g id="line2d_44"/>
   <g id="line2d_45">
    <defs>
     <path d="M 0 1.5 
C 0.397805 1.5 0.77937 1.341951 1.06066 1.06066 
C 1.341951 0.77937 1.5 0.397805 1.5 0 
C 1.5 -0.397805 1.341951 -0.77937 1.06066 -1.06066 
C 0.77937 -1.341951 0.397805 -1.5 0 -1.5 
C -0.397805 -1.5 -0.77937 -1.341951 -1.06066 -1.06066 
C -1.341951 -0.77937 -1.5 -0.397805 -1.5 0 
C -1.5 0.397805 -1.341951 0.77937 -1.06066 1.06066 
C -0.77937 1.341951 -0.397805 1.5 0 1.5 
z
" id="m9b7f0d123e" style="stroke:#ff00ff;"/>
    </defs>
    <g>
     <use style="fill:#ff00ff;stroke:#ff00ff;" x="247.269886" xlink:href="#m9b7f0d123e" y="215.585853"/>
     <use style="fill:#ff00ff;stroke:#ff00ff;" x="247.269886" xlink:href="#m9b7f0d123e" y="215.585853"/>
    </g>
   </g>
   <g id="line2d_46">
    <path d="M 123.87571 298.245375 
L 123.87571 296.695509 
L 127.585834 296.695509 
L 127.585834 295.145643 
L 127.954262 295.145643 
L 127.954262 293.595777 
L 131.572989 293.595777 
L 131.572989 293.079155 
L 134.580824 293.079155 
L 134.580824 288.429557 
L 135.560144 288.429557 
L 135.560144 286.363069 
L 136.713325 286.363069 
L 136.713325 285.846447 
L 137.154536 285.846447 
L 137.154536 284.813203 
L 137.585114 284.813203 
L 137.585114 283.779959 
L 138.416339 283.779959 
L 138.416339 282.230093 
L 139.015326 282.230093 
L 139.015326 280.163604 
L 139.210608 280.163604 
L 139.210608 279.646982 
L 140.70048 279.646982 
L 140.70048 278.613738 
L 140.878274 278.613738 
L 140.878274 277.580494 
L 142.565197 277.580494 
L 142.565197 277.063872 
L 144.687635 277.063872 
L 144.687635 275.514006 
L 144.971262 275.514006 
L 144.971262 274.997384 
L 145.929935 274.997384 
L 145.929935 274.480762 
L 167.133306 274.480762 
L 167.133306 273.447518 
L 168.390483 273.447518 
L 168.390483 271.897652 
L 168.541589 271.897652 
L 168.541589 269.831164 
L 168.802987 269.831164 
L 168.802987 268.79792 
L 169.024039 268.79792 
L 169.133547 264.664944 
L 169.84694 264.664944 
L 169.84694 263.6317 
L 178.897338 263.6317 
L 178.897338 263.115078 
L 179.148416 263.115078 
L 179.148416 262.598456 
L 179.375513 262.598456 
L 179.457383 260.531968 
L 179.599759 260.531968 
L 179.599759 260.015346 
L 179.720899 260.015346 
L 179.781163 256.398992 
L 180.177808 256.398992 
L 180.177808 254.849126 
L 180.450311 254.849126 
L 180.450311 254.332504 
L 186.128183 254.332504 
L 186.184328 252.266016 
L 186.36559 252.266016 
L 186.36559 251.749394 
L 186.898598 251.749394 
L 186.898598 251.232772 
L 191.017226 251.232772 
L 191.059947 250.199528 
L 191.134464 250.199528 
L 191.229817 248.13304 
L 191.439909 248.13304 
L 191.439909 247.616418 
L 191.585517 247.616418 
L 191.585517 245.549929 
L 191.750487 245.549929 
L 191.750487 245.033307 
L 194.886368 245.033307 
L 194.886368 244.516685 
L 195.023618 244.516685 
L 195.023618 244.000063 
L 195.311819 244.000063 
L 195.387336 241.933575 
L 198.151285 241.933575 
L 198.151285 241.416953 
L 198.39352 241.416953 
L 198.39352 240.383709 
L 200.688132 240.383709 
L 200.793622 238.833843 
L 200.812173 238.833843 
L 200.812173 238.317221 
L 201.033301 238.317221 
L 201.033301 237.800599 
L 202.958576 237.800599 
L 202.958576 237.283977 
L 203.127684 237.283977 
L 203.235944 235.734111 
L 205.273822 235.734111 
L 205.273822 235.217489 
L 207.102891 235.217489 
L 207.20258 232.634379 
L 210.133912 232.634379 
L 210.207127 231.084513 
L 210.280043 231.084513 
L 210.363531 229.534647 
L 211.732911 229.534647 
L 211.732911 228.501403 
L 212.913953 228.501403 
L 212.913953 227.984781 
L 214.127668 227.984781 
L 214.186243 226.951537 
L 215.264158 226.951537 
L 215.357507 225.918293 
L 216.332664 225.918293 
L 216.425768 224.368427 
L 217.340864 224.368427 
L 217.340864 223.851805 
L 219.201142 223.851805 
L 219.201142 223.335183 
L 220.105396 223.335183 
L 220.105396 222.818561 
L 220.885877 222.818561 
L 220.958079 221.268695 
L 221.672193 221.268695 
L 221.672193 220.752073 
L 223.842661 220.752073 
L 223.90387 219.718829 
L 227.00905 219.718829 
L 227.00905 219.202207 
L 228.11536 219.202207 
L 228.11536 218.685585 
L 230.097176 218.685585 
L 230.097176 218.168963 
L 231.924356 218.168963 
L 231.924356 217.652341 
L 236.489118 217.652341 
L 236.489118 217.135719 
L 240.661452 217.135719 
L 240.661452 216.619097 
L 242.691808 216.619097 
L 242.691808 216.102475 
L 247.269886 216.102475 
L 247.269886 215.585853 
L 358.8 215.585853 
L 358.8 215.585853 
" style="fill:none;stroke:#ff00ff;stroke-linecap:square;stroke-width:1.5;"/>
   </g>
   <g id="line2d_47">
    <defs>
     <path d="M -0 8.485281 
L 5.091169 0 
L 0 -8.485281 
L -5.091169 -0 
z
" id="m68cd1bb819" style="stroke:#ff00ff;stroke-linejoin:miter;stroke-width:1.5;"/>
    </defs>
    <g>
     <use style="fill:none;stroke:#ff00ff;stroke-linejoin:miter;stroke-width:1.5;" x="168.802987" xlink:href="#m68cd1bb819" y="269.831164"/>
     <use style="fill:none;stroke:#ff00ff;stroke-linejoin:miter;stroke-width:1.5;" x="220.105396" xlink:href="#m68cd1bb819" y="223.335183"/>
     <use style="fill:none;stroke:#ff00ff;stroke-linejoin:miter;stroke-width:1.5;" x="247.269886" xlink:href="#m68cd1bb819" y="216.102475"/>
     <use style="fill:none;stroke:#ff00ff;stroke-linejoin:miter;stroke-width:1.5;" x="247.269886" xlink:href="#m68cd1bb819" y="215.585853"/>
     <use style="fill:none;stroke:#ff00ff;stroke-linejoin:miter;stroke-width:1.5;" x="358.8" xlink:href="#m68cd1bb819" y="215.585853"/>
    </g>
   </g>
   <g id="line2d_48"/>
   <g id="line2d_49">
    <path clip-path="url(#pf9851deb68)" d="M 165.470948 274.480762 
" style="fill:none;stroke:#ff00ff;stroke-linecap:square;stroke-width:1.5;"/>
    <defs>
     <path d="M -12 12 
L 12 -12 
M -12 -12 
L 12 12 
" id="m58a7c71a3f" style="stroke:#ff00ff;stroke-width:3;"/>
    </defs>
    <g clip-path="url(#pf9851deb68)">
     <use style="fill:#ff00ff;stroke:#ff00ff;stroke-width:3;" x="165.470948" xlink:href="#m58a7c71a3f" y="274.480762"/>
    </g>
   </g>
   <g id="line2d_50">
    <defs>
     <path d="M 0 1.5 
C 0.397805 1.5 0.77937 1.341951 1.06066 1.06066 
C 1.341951 0.77937 1.5 0.397805 1.5 0 
C 1.5 -0.397805 1.341951 -0.77937 1.06066 -1.06066 
C 0.77937 -1.341951 0.397805 -1.5 0 -1.5 
C -0.397805 -1.5 -0.77937 -1.341951 -1.06066 -1.06066 
C -1.341951 -0.77937 -1.5 -0.397805 -1.5 0 
C -1.5 0.397805 -1.341951 0.77937 -1.06066 1.06066 
C -0.77937 1.341951 -0.397805 1.5 0 1.5 
z
" id="mabbc4520b2" style="stroke:#ffa500;"/>
    </defs>
    <g>
     <use style="fill:#ffa500;stroke:#ffa500;" x="246.939089" xlink:href="#mabbc4520b2" y="34.768147"/>
     <use style="fill:#ffa500;stroke:#ffa500;" x="246.939089" xlink:href="#mabbc4520b2" y="34.768147"/>
    </g>
   </g>
   <g id="line2d_51">
    <path d="M 58.414766 298.245375 
L 58.414766 293.595777 
L 70.8 293.595777 
L 70.8 291.012667 
L 83.185234 291.012667 
L 83.185234 290.496045 
L 87.172389 290.496045 
L 87.172389 289.462801 
L 93.184514 289.462801 
L 93.184514 287.912935 
L 95.570468 287.912935 
L 95.570468 285.329825 
L 99.557623 285.329825 
L 99.557623 282.746715 
L 101.260636 282.746715 
L 101.260636 281.713471 
L 104.245578 281.713471 
L 104.245578 281.196849 
L 106.802521 281.196849 
L 106.802521 280.680226 
L 107.955702 280.680226 
L 107.955702 280.163604 
L 109.03895 280.163604 
L 109.03895 279.646982 
L 111.026343 279.646982 
L 111.026343 279.13036 
L 112.814645 279.13036 
L 112.814645 278.613738 
L 114.44014 278.613738 
L 114.44014 277.063872 
L 116.630812 277.063872 
L 116.630812 276.030628 
L 119.187755 276.030628 
L 119.187755 273.96414 
L 119.773647 273.96414 
L 119.773647 272.414274 
L 120.890768 272.414274 
L 120.890768 271.897652 
L 126.031105 271.897652 
L 126.031105 270.864408 
L 127.209649 270.864408 
L 127.209649 270.347786 
L 127.585834 270.347786 
L 127.585834 269.831164 
L 129.016046 269.831164 
L 129.016046 269.314542 
L 130.018259 269.314542 
L 130.018259 268.281298 
L 130.656474 268.281298 
L 130.656474 267.248054 
L 131.572989 267.248054 
L 131.572989 265.181566 
L 131.868336 265.181566 
L 131.868336 264.664944 
L 133.003201 264.664944 
L 133.003201 263.6317 
L 133.276002 263.6317 
L 133.276002 262.081834 
L 135.560144 262.081834 
L 135.560144 260.531968 
L 135.796811 260.531968 
L 135.796811 260.015346 
L 136.488566 260.015346 
L 136.488566 258.982102 
L 136.935292 258.982102 
L 136.935292 257.948858 
L 137.154536 257.948858 
L 137.154536 257.432236 
L 138.61824 257.432236 
L 138.61824 256.398992 
L 141.741636 256.398992 
L 141.741636 253.815882 
L 142.240313 253.815882 
L 142.240313 253.29926 
L 145.388435 253.29926 
L 145.388435 248.649662 
L 148.299213 248.649662 
L 148.299213 248.13304 
L 148.986533 248.13304 
L 148.986533 247.616418 
L 150.181807 247.616418 
L 150.286606 246.583173 
L 152.074909 246.583173 
L 152.074909 245.549929 
L 154.042387 245.549929 
L 154.042387 244.516685 
L 154.460863 244.516685 
L 154.543395 242.966819 
L 156.193932 242.966819 
L 156.193932 241.416953 
L 157.635691 241.416953 
L 157.635691 239.867087 
L 159.288265 239.867087 
L 159.288265 238.833843 
L 160.211092 238.833843 
L 160.211092 237.800599 
L 167.733635 237.800599 
L 167.812177 236.767355 
L 167.851318 236.767355 
L 167.851318 236.250733 
L 167.968231 236.250733 
L 167.968231 235.734111 
L 168.579166 235.734111 
L 168.579166 234.700867 
L 168.691427 234.700867 
L 168.691427 234.184245 
L 169.060616 234.184245 
L 169.060616 233.667623 
L 169.671244 233.667623 
L 169.776869 231.601135 
L 170.329892 231.601135 
L 170.329892 231.084513 
L 170.499259 231.084513 
L 170.499259 229.534647 
L 170.766951 229.534647 
L 170.766951 228.501403 
L 171.258314 228.501403 
L 171.258314 227.984781 
L 171.451137 227.984781 
L 171.451137 226.951537 
L 171.736526 226.951537 
L 171.830651 225.918293 
L 172.385224 225.918293 
L 172.385224 225.401671 
L 173.040461 225.401671 
L 173.040461 223.851805 
L 173.813102 223.851805 
L 173.813102 221.268695 
L 174.364631 221.268695 
L 174.364631 220.752073 
L 175.419103 220.752073 
L 175.419103 219.202207 
L 178.513979 219.202207 
L 178.513979 218.685585 
L 179.023318 218.685585 
L 179.023318 218.168963 
L 179.599759 218.168963 
L 179.599759 217.652341 
L 179.74101 217.652341 
L 179.74101 217.135719 
L 180.020205 217.135719 
L 180.079469 212.48612 
L 180.138537 212.48612 
L 180.138537 211.969498 
L 180.546636 211.969498 
L 180.546636 210.419632 
L 181.3175 210.419632 
L 181.3175 208.869766 
L 181.645699 208.869766 
L 181.645699 208.353144 
L 182.038813 208.353144 
L 182.126964 207.3199 
L 182.509743 207.3199 
L 182.509743 206.286656 
L 182.850748 206.286656 
L 182.850748 205.770034 
L 183.235023 205.770034 
L 183.268051 203.186924 
L 185.887579 203.186924 
L 185.887579 202.670302 
L 186.043633 202.670302 
L 186.043633 202.15368 
L 186.184328 202.15368 
L 186.282159 200.603814 
L 186.613571 200.603814 
L 186.613571 199.053948 
L 186.938948 199.053948 
L 186.938948 197.504082 
L 187.442308 197.504082 
L 187.48145 193.371106 
L 187.714515 193.371106 
L 187.714515 192.854484 
L 187.995306 192.854484 
L 188.071125 191.82124 
L 188.333989 191.82124 
L 188.333989 188.721508 
L 188.58079 188.721508 
L 188.58079 188.204886 
L 188.86046 188.204886 
L 188.884573 186.138398 
L 191.134464 186.138398 
L 191.134464 185.621776 
L 191.387617 185.621776 
L 191.419011 184.07191 
L 191.585517 184.07191 
L 191.637234 182.522044 
L 192.045666 182.522044 
L 192.055758 179.422312 
L 192.236448 179.422312 
L 192.236448 178.90569 
L 192.51394 178.90569 
L 192.51394 178.389067 
L 192.719267 178.389067 
L 192.719267 177.355823 
L 195.151339 177.355823 
L 195.151339 176.322579 
L 195.353812 176.322579 
L 195.353812 174.256091 
L 195.595446 174.256091 
L 195.694484 172.189603 
L 196.020703 172.189603 
L 196.020703 171.672981 
L 196.237581 171.672981 
L 196.237581 171.156359 
L 196.396551 171.156359 
L 196.396551 170.123115 
L 196.577635 170.123115 
L 196.577635 169.606493 
L 198.258558 169.606493 
L 198.258558 167.540005 
L 198.428867 167.540005 
L 198.428867 166.506761 
L 198.632515 166.506761 
L 198.716108 165.473517 
L 198.84077 165.473517 
L 198.84077 164.956895 
L 198.991963 164.956895 
L 198.991963 164.440273 
L 199.175786 164.440273 
L 199.175786 163.923651 
L 199.310742 163.923651 
L 199.310742 162.890407 
L 200.799808 162.890407 
L 200.904642 159.790675 
L 201.051605 159.790675 
L 201.051605 158.240809 
L 201.299904 158.240809 
L 201.407832 157.207565 
L 201.538866 157.207565 
L 201.538866 156.174321 
L 201.698377 156.174321 
L 201.698377 154.107833 
L 201.961105 154.107833 
L 201.961105 152.557967 
L 203.20894 152.557967 
L 203.311337 149.458235 
L 203.338186 149.458235 
L 203.338186 147.908369 
L 203.55684 147.908369 
L 203.651996 146.875125 
L 203.793787 146.875125 
L 203.793787 146.358503 
L 204.012137 146.358503 
L 204.012137 145.325259 
L 204.140852 145.325259 
L 204.217638 144.292014 
L 205.249732 144.292014 
L 205.249732 143.25877 
L 205.365072 143.25877 
L 205.365072 142.225526 
L 205.555667 142.225526 
L 205.645493 140.67566 
L 205.875085 140.67566 
L 205.875085 140.159038 
L 206.083367 140.159038 
L 206.083367 139.642416 
L 207.081145 139.642416 
L 207.185282 138.09255 
L 207.348935 138.09255 
L 207.361791 136.542684 
L 207.557771 136.542684 
L 207.646531 134.476196 
L 207.730656 134.476196 
L 207.730656 133.959574 
L 207.897727 133.959574 
L 207.897727 133.442952 
L 208.742175 133.442952 
L 208.742175 132.92633 
L 208.994175 132.92633 
L 208.994175 132.409708 
L 209.177001 132.409708 
L 209.258088 131.376464 
L 209.430617 131.376464 
L 209.430617 130.859842 
L 210.261842 130.859842 
L 210.349039 125.177 
L 210.486237 125.177 
L 210.497024 122.59389 
L 210.640227 122.59389 
L 210.736245 120.527402 
L 210.895136 120.527402 
L 210.895136 118.977536 
L 211.662333 118.977536 
L 211.742971 115.361182 
L 211.869909 115.361182 
L 211.939674 113.294694 
L 212.101407 113.294694 
L 212.167003 112.26145 
L 212.242141 112.26145 
L 212.242141 111.744828 
L 212.960987 111.744828 
L 213.035985 109.678339 
L 213.286802 109.678339 
L 213.369631 108.645095 
L 214.171617 108.645095 
L 214.241711 106.578607 
L 214.357927 106.578607 
L 214.357927 106.061985 
L 214.476269 106.061985 
L 214.553775 103.478875 
L 215.313639 103.478875 
L 215.371194 102.445631 
L 215.531911 102.445631 
L 215.604981 100.895765 
L 215.664298 100.895765 
L 215.718053 99.345899 
L 215.779672 99.345899 
L 215.779672 98.829277 
L 216.371516 98.829277 
L 216.433505 96.762789 
L 216.538906 96.762789 
L 216.538906 96.246167 
L 216.709821 96.246167 
L 216.709821 95.729545 
L 217.384922 95.729545 
L 217.436187 94.696301 
L 217.506739 94.696301 
L 217.579433 91.079947 
L 217.697534 91.079947 
L 217.805311 87.463593 
L 217.841092 87.463593 
L 217.841092 86.430349 
L 218.330016 86.430349 
L 218.385579 84.880483 
L 218.477802 84.880483 
L 218.583273 83.330617 
L 218.735789 83.330617 
L 218.735789 82.813995 
L 219.287063 82.813995 
L 219.350685 81.780751 
L 219.522862 81.780751 
L 219.620201 80.230885 
L 220.094896 80.230885 
L 220.094896 79.714263 
L 220.230919 79.714263 
L 220.230919 78.681019 
L 220.411375 78.681019 
L 220.462895 77.647775 
L 220.922014 77.647775 
L 220.964083 76.614531 
L 221.081748 76.614531 
L 221.081748 76.097908 
L 221.701017 76.097908 
L 221.802492 74.548042 
L 222.458517 74.548042 
L 222.497123 73.514798 
L 222.572257 73.514798 
L 222.656179 70.931688 
L 223.1746 70.931688 
L 223.1746 70.415066 
L 223.287399 70.415066 
L 223.368037 69.381822 
L 223.441345 69.381822 
L 223.484839 68.348578 
L 223.86819 68.348578 
L 223.973327 66.798712 
L 224.53586 66.798712 
L 224.642039 63.69898 
L 224.671331 63.69898 
L 224.671331 63.182358 
L 224.8203 63.182358 
L 224.823525 61.11587 
L 225.310173 61.11587 
L 225.354048 60.082626 
L 225.805295 60.082626 
L 225.805295 59.566004 
L 226.401079 59.566004 
L 226.436467 58.53276 
L 226.594853 58.53276 
L 226.594853 58.016138 
L 227.016181 58.016138 
L 227.057488 56.982894 
L 227.254162 56.982894 
L 227.254162 56.466272 
L 227.689262 56.466272 
L 227.787868 55.433028 
L 228.175601 55.433028 
L 228.266248 53.883162 
L 229.734673 53.883162 
L 229.794586 52.849918 
L 230.147512 52.849918 
L 230.250141 51.300052 
L 230.276301 51.300052 
L 230.276301 50.78343 
L 230.619929 50.78343 
L 230.619929 50.266808 
L 230.768502 50.266808 
L 230.768502 49.750186 
L 231.253133 49.750186 
L 231.253133 49.233564 
L 231.50226 49.233564 
L 231.50226 48.716942 
L 231.618369 48.716942 
L 231.697554 47.167076 
L 231.940602 47.167076 
L 231.940602 46.650454 
L 232.368447 46.650454 
L 232.368447 46.133832 
L 232.853273 46.133832 
L 232.900527 45.100588 
L 234.366294 45.100588 
L 234.366294 44.583966 
L 235.244112 44.583966 
L 235.244112 44.067344 
L 235.487195 44.067344 
L 235.582804 42.517478 
L 236.233855 42.517478 
L 236.233855 42.000855 
L 236.853795 42.000855 
L 236.853795 41.484233 
L 236.979162 41.484233 
L 236.979162 40.967611 
L 237.179715 40.967611 
L 237.266704 39.417745 
L 237.877255 39.417745 
L 237.877255 38.901123 
L 238.104867 38.901123 
L 238.104867 38.384501 
L 238.523138 38.384501 
L 238.523138 37.867879 
L 240.687347 37.867879 
L 240.687347 37.351257 
L 243.161825 37.351257 
L 243.161825 36.834635 
L 244.122249 36.834635 
L 244.122249 36.318013 
L 244.942397 36.318013 
L 244.942397 35.801391 
L 246.208917 35.801391 
L 246.208917 35.284769 
L 246.939089 35.284769 
L 246.939089 34.768147 
L 358.8 34.768147 
L 358.8 34.768147 
" style="fill:none;stroke:#ffa500;stroke-linecap:square;stroke-width:1.5;"/>
   </g>
   <g id="line2d_52">
    <defs>
     <path d="M 0 -6 
L -1.347084 -1.854102 
L -5.706339 -1.854102 
L -2.179628 0.708204 
L -3.526712 4.854102 
L -0 2.291796 
L 3.526712 4.854102 
L 2.179628 0.708204 
L 5.706339 -1.854102 
L 1.347084 -1.854102 
z
" id="m74cd8c5cb8" style="stroke:#ffa500;stroke-linejoin:bevel;stroke-width:1.5;"/>
    </defs>
    <g>
     <use style="fill:none;stroke:#ffa500;stroke-linejoin:bevel;stroke-width:1.5;" x="104.245578" xlink:href="#m74cd8c5cb8" y="281.713471"/>
     <use style="fill:none;stroke:#ffa500;stroke-linejoin:bevel;stroke-width:1.5;" x="170.329892" xlink:href="#m74cd8c5cb8" y="231.084513"/>
     <use style="fill:none;stroke:#ffa500;stroke-linejoin:bevel;stroke-width:1.5;" x="204.140852" xlink:href="#m74cd8c5cb8" y="145.325259"/>
     <use style="fill:none;stroke:#ffa500;stroke-linejoin:bevel;stroke-width:1.5;" x="231.697554" xlink:href="#m74cd8c5cb8" y="47.167076"/>
     <use style="fill:none;stroke:#ffa500;stroke-linejoin:bevel;stroke-width:1.5;" x="246.939089" xlink:href="#m74cd8c5cb8" y="34.768147"/>
     <use style="fill:none;stroke:#ffa500;stroke-linejoin:bevel;stroke-width:1.5;" x="358.8" xlink:href="#m74cd8c5cb8" y="34.768147"/>
    </g>
   </g>
   <g id="line2d_53"/>
   <g id="line2d_54">
    <path clip-path="url(#pf9851deb68)" d="M 165.470948 237.800599 
" style="fill:none;stroke:#ffa500;stroke-linecap:square;stroke-width:1.5;"/>
    <defs>
     <path d="M -12 12 
L 12 -12 
M -12 -12 
L 12 12 
" id="mdbb7dfc752" style="stroke:#ffa500;stroke-width:3;"/>
    </defs>
    <g clip-path="url(#pf9851deb68)">
     <use style="fill:#ffa500;stroke:#ffa500;stroke-width:3;" x="165.470948" xlink:href="#mdbb7dfc752" y="237.800599"/>
    </g>
   </g>
   <g id="line2d_55">
    <defs>
     <path d="M 0 1.5 
C 0.397805 1.5 0.77937 1.341951 1.06066 1.06066 
C 1.341951 0.77937 1.5 0.397805 1.5 0 
C 1.5 -0.397805 1.341951 -0.77937 1.06066 -1.06066 
C 0.77937 -1.341951 0.397805 -1.5 0 -1.5 
C -0.397805 -1.5 -0.77937 -1.341951 -1.06066 -1.06066 
C -1.341951 -0.77937 -1.5 -0.397805 -1.5 0 
C -1.5 0.397805 -1.341951 0.77937 -1.06066 1.06066 
C -0.77937 1.341951 -0.397805 1.5 0 1.5 
z
" id="mcdffa29226" style="stroke:#6495ed;"/>
    </defs>
    <g>
     <use style="fill:#6495ed;stroke:#6495ed;" x="233.777346" xlink:href="#mcdffa29226" y="34.768147"/>
     <use style="fill:#6495ed;stroke:#6495ed;" x="233.777346" xlink:href="#mcdffa29226" y="34.768147"/>
    </g>
   </g>
   <g id="line2d_56">
    <path d="M 58.414766 298.245375 
L 58.414766 292.045911 
L 70.8 292.045911 
L 70.8 289.979423 
L 78.044898 289.979423 
L 78.044898 287.396313 
L 87.172389 287.396313 
L 87.172389 286.879691 
L 97.675029 286.879691 
L 97.675029 286.363069 
L 99.557623 286.363069 
L 99.557623 285.846447 
L 106.802521 285.846447 
L 106.802521 285.329825 
L 107.955702 285.329825 
L 107.955702 283.779959 
L 109.03895 283.779959 
L 109.03895 282.230093 
L 111.026343 282.230093 
L 111.026343 281.713471 
L 112.814645 281.713471 
L 112.814645 281.196849 
L 113.64587 281.196849 
L 113.64587 279.13036 
L 114.44014 279.13036 
L 114.44014 278.613738 
L 115.930012 278.613738 
L 115.930012 278.097116 
L 117.305161 278.097116 
L 117.305161 275.514006 
L 117.954982 275.514006 
L 117.954982 274.480762 
L 122.445497 274.480762 
L 122.445497 272.930896 
L 123.411577 272.930896 
L 123.411577 270.864408 
L 124.328091 270.864408 
L 124.328091 270.347786 
L 126.031105 270.347786 
L 126.031105 269.831164 
L 126.432652 269.831164 
L 126.432652 269.314542 
L 126.825374 269.314542 
L 126.825374 267.764676 
L 127.209649 267.764676 
L 127.209649 267.248054 
L 128.669082 267.248054 
L 128.669082 266.21481 
L 129.016046 266.21481 
L 129.016046 265.181566 
L 132.726171 265.181566 
L 132.726171 264.664944 
L 133.003201 264.664944 
L 133.003201 263.6317 
L 134.830731 263.6317 
L 134.830731 262.598456 
L 135.560144 262.598456 
L 135.560144 262.081834 
L 137.796573 262.081834 
L 137.796573 261.565212 
L 138.61824 261.565212 
L 138.61824 261.04859 
L 139.403779 261.04859 
L 139.403779 260.015346 
L 141.22864 260.015346 
L 141.22864 258.982102 
L 145.250457 258.982102 
L 145.250457 256.915614 
L 145.661236 256.915614 
L 145.661236 255.365748 
L 146.966058 255.365748 
L 146.966058 254.332504 
L 147.825858 254.332504 
L 147.825858 251.749394 
L 148.53127 251.749394 
L 148.53127 251.232772 
L 149.863672 251.232772 
L 149.863672 250.71615 
L 150.390793 250.71615 
L 150.390793 250.199528 
L 151.302113 250.199528 
L 151.40056 245.549929 
L 153.43955 245.549929 
L 153.43955 245.033307 
L 153.786515 245.033307 
L 153.786515 242.450197 
L 155.269513 242.450197 
L 155.269513 240.900331 
L 155.7377 240.900331 
L 155.7377 240.383709 
L 156.929349 240.383709 
L 156.929349 236.250733 
L 157.072869 236.250733 
L 157.072869 235.734111 
L 158.114025 235.734111 
L 158.181325 232.117757 
L 159.84766 232.117757 
L 159.908748 227.984781 
L 160.330612 227.984781 
L 160.330612 227.468159 
L 166.638084 227.468159 
L 166.638084 226.951537 
L 167.615172 226.951537 
L 167.615172 226.434915 
L 168.161402 226.434915 
L 168.161402 225.918293 
L 168.42838 225.918293 
L 168.42838 225.401671 
L 169.060616 225.401671 
L 169.060616 224.885049 
L 169.206182 224.885049 
L 169.242389 223.335183 
L 169.529433 223.335183 
L 169.600479 221.785317 
L 170.465514 221.785317 
L 170.566559 219.202207 
L 171.128599 219.202207 
L 171.128599 217.652341 
L 171.32282 217.652341 
L 171.32282 217.135719 
L 171.70504 217.135719 
L 171.70504 215.585853 
L 171.955386 215.585853 
L 171.955386 215.069231 
L 172.14087 215.069231 
L 172.171597 210.936254 
L 172.476002 210.936254 
L 172.476002 209.386388 
L 172.952513 209.386388 
L 172.952513 207.3199 
L 173.473824 207.3199 
L 173.473824 206.286656 
L 173.644269 206.286656 
L 173.644269 204.73679 
L 174.00808 204.73679 
L 174.090995 201.637058 
L 174.146058 201.637058 
L 174.146058 201.120436 
L 174.580563 201.120436 
L 174.580563 200.603814 
L 175.264845 200.603814 
L 175.264845 200.087192 
L 178.685377 200.087192 
L 178.685377 199.57057 
L 178.960439 199.57057 
L 178.960439 198.537326 
L 179.821226 198.537326 
L 179.841224 196.98746 
L 180.020205 196.98746 
L 180.020205 196.470838 
L 180.392267 196.470838 
L 180.392267 195.437594 
L 180.527412 195.437594 
L 180.585021 194.40435 
L 180.775717 194.40435 
L 180.775717 192.854484 
L 180.908004 192.854484 
L 180.908004 191.82124 
L 181.188221 191.82124 
L 181.243741 190.787996 
L 181.335892 190.787996 
L 181.390956 189.754752 
L 181.500576 189.754752 
L 181.518781 187.171642 
L 181.699818 187.171642 
L 181.699818 186.65502 
L 181.914667 186.65502 
L 181.985713 185.621776 
L 182.301972 185.621776 
L 182.406159 183.555288 
L 182.681059 183.555288 
L 182.715126 179.422312 
L 182.985348 179.422312 
L 182.985348 177.355823 
L 183.415926 177.355823 
L 183.415926 176.839201 
L 183.546351 176.839201 
L 183.546351 175.805957 
L 185.844781 175.805957 
L 185.844781 174.772713 
L 186.434819 174.772713 
L 186.434819 174.256091 
L 186.925508 174.256091 
L 186.925508 173.222847 
L 187.099441 173.222847 
L 187.1924 171.156359 
L 187.271697 171.156359 
L 187.271697 170.639737 
L 187.389986 170.639737 
L 187.494478 169.606493 
L 187.611306 169.606493 
L 187.62424 167.540005 
L 187.957275 167.540005 
L 187.957275 165.990139 
L 188.184255 165.990139 
L 188.259279 164.956895 
L 188.420757 164.956895 
L 188.457815 161.340541 
L 188.666371 161.340541 
L 188.678564 160.307297 
L 188.992683 160.307297 
L 189.004655 159.274053 
L 191.166305 159.274053 
L 191.250938 157.207565 
L 191.345673 157.207565 
L 191.356169 156.174321 
L 191.626903 156.174321 
L 191.657879 154.624455 
L 191.832404 154.624455 
L 191.832404 153.591211 
L 192.015355 153.591211 
L 192.015355 153.074589 
L 192.166397 153.074589 
L 192.266387 150.491479 
L 192.425215 150.491479 
L 192.425215 149.458235 
L 192.660842 149.458235 
L 192.660842 148.424991 
L 192.787188 148.424991 
L 192.816218 145.325259 
L 192.989416 145.325259 
L 192.989416 144.292014 
L 194.791393 144.292014 
L 194.791393 143.775392 
L 195.0407 143.775392 
L 195.0407 142.742148 
L 195.176774 142.742148 
L 195.176774 142.225526 
L 195.345422 142.225526 
L 195.454195 140.159038 
L 195.512493 140.159038 
L 195.512493 139.125794 
L 195.636779 139.125794 
L 195.661533 137.575928 
L 195.776599 137.575928 
L 195.78479 135.50944 
L 195.996442 135.50944 
L 195.996442 132.92633 
L 196.141515 132.92633 
L 196.189613 130.859842 
L 196.293381 130.859842 
L 196.333132 126.210244 
L 196.459745 126.210244 
L 196.459745 125.177 
L 196.67139 125.177 
L 196.67139 124.660378 
L 198.372278 124.660378 
L 198.442987 123.110512 
L 198.513417 123.110512 
L 198.562553 121.044024 
L 198.792394 121.044024 
L 198.861463 117.944292 
L 198.943995 117.944292 
L 198.943995 117.42767 
L 199.09432 117.42767 
L 199.135099 116.394426 
L 199.243391 116.394426 
L 199.256882 112.778072 
L 199.54449 112.778072 
L 199.590875 111.744828 
L 200.563223 111.744828 
L 200.563223 111.228206 
L 200.923079 111.228206 
L 200.923079 110.711584 
L 201.045506 110.711584 
L 201.045506 109.678339 
L 201.167099 109.678339 
L 201.275831 108.128473 
L 201.323944 108.128473 
L 201.425757 104.512119 
L 201.521054 104.512119 
L 201.521054 103.995497 
L 201.663053 103.995497 
L 201.768816 102.445631 
L 201.862306 102.445631 
L 201.862306 101.412387 
L 202.01319 101.412387 
L 202.018968 100.379143 
L 203.332819 100.379143 
L 203.40246 98.312655 
L 203.47183 98.312655 
L 203.47183 97.796033 
L 203.615051 97.796033 
L 203.615051 95.729545 
L 203.877283 95.729545 
L 203.96039 93.663057 
L 204.048271 93.663057 
L 204.048271 93.146435 
L 204.192079 93.146435 
L 204.192079 92.629813 
L 205.565144 92.629813 
L 205.612451 89.530081 
L 205.734869 89.530081 
L 205.81913 87.463593 
L 205.847129 87.463593 
L 205.92158 85.913727 
L 206.000345 85.913727 
L 206.000345 85.397105 
L 207.180955 85.397105 
L 207.193933 84.363861 
L 207.344647 84.363861 
L 207.378918 83.330617 
L 207.519596 83.330617 
L 207.519596 81.780751 
L 208.833147 81.780751 
L 208.884362 79.714263 
L 209.041032 79.714263 
L 209.142136 77.131153 
L 209.211797 77.131153 
L 209.296572 73.514798 
L 209.365635 73.514798 
L 209.468732 71.964932 
L 209.495363 71.964932 
L 209.495363 71.44831 
L 210.356286 71.44831 
L 210.41777 68.8652 
L 210.572348 68.8652 
L 210.629526 66.798712 
L 210.693634 66.798712 
L 210.778754 65.765468 
L 210.954796 65.765468 
L 210.954796 65.248846 
L 211.783154 65.248846 
L 211.883219 63.182358 
L 212.081682 63.182358 
L 212.081682 62.665736 
L 212.193173 62.665736 
L 212.281218 61.11587 
L 213.095135 61.11587 
L 213.197407 58.53276 
L 213.277575 58.53276 
L 213.277575 58.016138 
L 213.400212 58.016138 
L 213.455125 55.94965 
L 214.276655 55.94965 
L 214.276655 55.433028 
L 214.392645 55.433028 
L 214.392645 54.916406 
L 214.536581 54.916406 
L 214.588115 52.849918 
L 214.710627 52.849918 
L 214.710627 52.333296 
L 215.512919 52.333296 
L 215.512919 51.816674 
L 215.73951 51.816674 
L 215.73951 51.300052 
L 216.541469 51.300052 
L 216.541469 50.78343 
L 216.694582 50.78343 
L 216.694582 50.266808 
L 217.714342 50.266808 
L 217.721541 49.233564 
L 218.390202 49.233564 
L 218.489297 46.650454 
L 218.649447 46.650454 
L 218.758441 45.61721 
L 219.509844 45.61721 
L 219.509844 45.100588 
L 220.427877 45.100588 
L 220.427877 44.583966 
L 220.962082 44.583966 
L 220.962082 44.067344 
L 221.202593 44.067344 
L 221.202593 43.550722 
L 221.794853 43.550722 
L 221.846349 42.517478 
L 223.215219 42.517478 
L 223.30847 40.967611 
L 223.354039 40.967611 
L 223.418687 39.934367 
L 223.966563 39.934367 
L 223.966563 39.417745 
L 224.103045 39.417745 
L 224.103045 38.901123 
L 226.016162 38.901123 
L 226.016162 38.384501 
L 226.439413 38.384501 
L 226.512902 37.351257 
L 226.635688 37.351257 
L 226.685148 36.318013 
L 228.258268 36.318013 
L 228.258268 35.801391 
L 228.774853 35.801391 
L 228.774853 35.284769 
L 233.777346 35.284769 
L 233.777346 34.768147 
L 358.8 34.768147 
L 358.8 34.768147 
" style="fill:none;stroke:#6495ed;stroke-linecap:square;stroke-width:1.5;"/>
   </g>
   <g id="line2d_57">
    <defs>
     <path d="M -0 6 
L 6 -6 
L -6 -6 
z
" id="m6ee2a02a4f" style="stroke:#6495ed;stroke-linejoin:miter;stroke-width:1.5;"/>
    </defs>
    <g>
     <use style="fill:none;stroke:#6495ed;stroke-linejoin:miter;stroke-width:1.5;" x="153.43955" xlink:href="#m6ee2a02a4f" y="245.549929"/>
     <use style="fill:none;stroke:#6495ed;stroke-linejoin:miter;stroke-width:1.5;" x="192.989416" xlink:href="#m6ee2a02a4f" y="145.325259"/>
     <use style="fill:none;stroke:#6495ed;stroke-linejoin:miter;stroke-width:1.5;" x="214.710627" xlink:href="#m6ee2a02a4f" y="52.849918"/>
     <use style="fill:none;stroke:#6495ed;stroke-linejoin:miter;stroke-width:1.5;" x="233.777346" xlink:href="#m6ee2a02a4f" y="34.768147"/>
     <use style="fill:none;stroke:#6495ed;stroke-linejoin:miter;stroke-width:1.5;" x="233.777346" xlink:href="#m6ee2a02a4f" y="34.768147"/>
     <use style="fill:none;stroke:#6495ed;stroke-linejoin:miter;stroke-width:1.5;" x="358.8" xlink:href="#m6ee2a02a4f" y="34.768147"/>
    </g>
   </g>
   <g id="line2d_58"/>
   <g id="line2d_59">
    <path clip-path="url(#pf9851deb68)" d="M 165.470948 227.468159 
" style="fill:none;stroke:#6495ed;stroke-linecap:square;stroke-width:1.5;"/>
    <defs>
     <path d="M -12 12 
L 12 -12 
M -12 -12 
L 12 12 
" id="m277354e7dc" style="stroke:#6495ed;stroke-width:3;"/>
    </defs>
    <g clip-path="url(#pf9851deb68)">
     <use style="fill:#6495ed;stroke:#6495ed;stroke-width:3;" x="165.470948" xlink:href="#m277354e7dc" y="227.468159"/>
    </g>
   </g>
   <g id="line2d_60">
    <defs>
     <path d="M 0 1.5 
C 0.397805 1.5 0.77937 1.341951 1.06066 1.06066 
C 1.341951 0.77937 1.5 0.397805 1.5 0 
C 1.5 -0.397805 1.341951 -0.77937 1.06066 -1.06066 
C 0.77937 -1.341951 0.397805 -1.5 0 -1.5 
C -0.397805 -1.5 -0.77937 -1.341951 -1.06066 -1.06066 
C -1.341951 -0.77937 -1.5 -0.397805 -1.5 0 
C -1.5 0.397805 -1.341951 0.77937 -1.06066 1.06066 
C -0.77937 1.341951 -0.397805 1.5 0 1.5 
z
" id="ma77eaf0dfb" style="stroke:#ff0000;"/>
    </defs>
    <g>
     <use style="fill:#ff0000;stroke:#ff0000;" x="110.060263" xlink:href="#ma77eaf0dfb" y="34.768147"/>
     <use style="fill:#ff0000;stroke:#ff0000;" x="110.060263" xlink:href="#ma77eaf0dfb" y="34.768147"/>
    </g>
   </g>
   <g id="line2d_61">
    <path d="M 58.414766 298.245375 
L 58.414766 283.779959 
L 70.8 283.779959 
L 70.8 252.782638 
L 78.044898 252.782638 
L 78.044898 224.885049 
L 83.185234 224.885049 
L 83.185234 205.770034 
L 87.172389 205.770034 
L 87.172389 168.573249 
L 90.430132 168.573249 
L 90.430132 158.240809 
L 93.184514 158.240809 
L 93.184514 142.225526 
L 95.570468 142.225526 
L 95.570468 111.228206 
L 97.675029 111.228206 
L 97.675029 105.028741 
L 99.557623 105.028741 
L 99.557623 85.913727 
L 101.260636 85.913727 
L 101.260636 85.397105 
L 102.815366 85.397105 
L 102.815366 70.415066 
L 104.245578 70.415066 
L 104.245578 52.849918 
L 106.802521 52.849918 
L 106.802521 51.300052 
L 110.060263 51.300052 
L 110.060263 34.768147 
L 358.8 34.768147 
" style="fill:none;stroke:#ff0000;stroke-linecap:square;stroke-width:1.5;"/>
   </g>
   <g id="line2d_62">
    <defs>
     <path d="M 0 -6 
L -5.196152 -3 
L -5.196152 3 
L -0 6 
L 5.196152 3 
L 5.196152 -3 
z
" id="m22878635a1" style="stroke:#ff0000;stroke-linejoin:miter;stroke-width:1.5;"/>
    </defs>
    <g>
     <use style="fill:none;stroke:#ff0000;stroke-linejoin:miter;stroke-width:1.5;" x="83.185234" xlink:href="#m22878635a1" y="205.770034"/>
     <use style="fill:none;stroke:#ff0000;stroke-linejoin:miter;stroke-width:1.5;" x="99.557623" xlink:href="#m22878635a1" y="105.028741"/>
     <use style="fill:none;stroke:#ff0000;stroke-linejoin:miter;stroke-width:1.5;" x="110.060263" xlink:href="#m22878635a1" y="51.300052"/>
     <use style="fill:none;stroke:#ff0000;stroke-linejoin:miter;stroke-width:1.5;" x="110.060263" xlink:href="#m22878635a1" y="34.768147"/>
     <use style="fill:none;stroke:#ff0000;stroke-linejoin:miter;stroke-width:1.5;" x="110.060263" xlink:href="#m22878635a1" y="34.768147"/>
     <use style="fill:none;stroke:#ff0000;stroke-linejoin:miter;stroke-width:1.5;" x="358.8" xlink:href="#m22878635a1" y="34.768147"/>
    </g>
   </g>
   <g id="line2d_63"/>
   <g id="line2d_64">
    <path d="M 358.8 215.585853 
L 390.48 292.97583 
" style="fill:none;stroke:#ff00ff;stroke-linecap:square;stroke-width:1.5;"/>
    <g>
     <use style="fill:none;stroke:#ff00ff;stroke-linejoin:miter;stroke-width:1.5;" x="358.8" xlink:href="#m68cd1bb819" y="215.585853"/>
     <use style="fill:none;stroke:#ff00ff;stroke-linejoin:miter;stroke-width:1.5;" x="390.48" xlink:href="#m68cd1bb819" y="292.97583"/>
    </g>
   </g>
   <g id="line2d_65">
    <path d="M 358.8 34.768147 
L 390.48 229.741296 
" style="fill:none;stroke:#ffa500;stroke-linecap:square;stroke-width:1.5;"/>
    <g>
     <use style="fill:none;stroke:#ffa500;stroke-linejoin:bevel;stroke-width:1.5;" x="358.8" xlink:href="#m74cd8c5cb8" y="34.768147"/>
     <use style="fill:none;stroke:#ffa500;stroke-linejoin:bevel;stroke-width:1.5;" x="390.48" xlink:href="#m74cd8c5cb8" y="229.741296"/>
    </g>
   </g>
   <g id="line2d_66">
    <path d="M 358.8 34.768147 
L 390.48 166.506761 
" style="fill:none;stroke:#6495ed;stroke-linecap:square;stroke-width:1.5;"/>
    <g>
     <use style="fill:none;stroke:#6495ed;stroke-linejoin:miter;stroke-width:1.5;" x="358.8" xlink:href="#m6ee2a02a4f" y="34.768147"/>
     <use style="fill:none;stroke:#6495ed;stroke-linejoin:miter;stroke-width:1.5;" x="390.48" xlink:href="#m6ee2a02a4f" y="166.506761"/>
    </g>
   </g>
   <g id="line2d_67">
    <path d="M 358.8 34.768147 
L 390.48 103.272226 
" style="fill:none;stroke:#000080;stroke-linecap:square;stroke-width:1.5;"/>
    <g>
     <use style="fill:none;stroke:#000080;stroke-width:1.5;" x="358.8" xlink:href="#m6dd763b647" y="34.768147"/>
     <use style="fill:none;stroke:#000080;stroke-width:1.5;" x="390.48" xlink:href="#m6dd763b647" y="103.272226"/>
    </g>
   </g>
   <g id="line2d_68">
    <path d="M 358.8 34.768147 
L 390.48 40.037692 
" style="fill:none;stroke:#ff0000;stroke-linecap:square;stroke-width:1.5;"/>
    <g>
     <use style="fill:none;stroke:#ff0000;stroke-linejoin:miter;stroke-width:1.5;" x="358.8" xlink:href="#m22878635a1" y="34.768147"/>
     <use style="fill:none;stroke:#ff0000;stroke-linejoin:miter;stroke-width:1.5;" x="390.48" xlink:href="#m22878635a1" y="40.037692"/>
    </g>
   </g>
   <g id="line2d_69">
    <path d="M 358.8 298.245375 
L 358.8 34.768147 
" style="fill:none;stroke:#000000;stroke-linecap:square;stroke-width:1.5;"/>
   </g>
   <g id="patch_3">
    <path d="M 70.8 298.245375 
L 70.8 32.133375 
" style="fill:none;stroke:#000000;stroke-linecap:square;stroke-linejoin:miter;stroke-width:0.8;"/>
   </g>
   <g id="patch_4">
    <path d="M 427.92 298.245375 
L 427.92 32.133375 
" style="fill:none;stroke:#000000;stroke-linecap:square;stroke-linejoin:miter;stroke-width:0.8;"/>
   </g>
   <g id="patch_5">
    <path d="M 70.8 298.245375 
L 427.92 298.245375 
" style="fill:none;stroke:#000000;stroke-linecap:square;stroke-linejoin:miter;stroke-width:0.8;"/>
   </g>
   <g id="patch_6">
    <path d="M 70.8 32.133375 
L 427.92 32.133375 
" style="fill:none;stroke:#000000;stroke-linecap:square;stroke-linejoin:miter;stroke-width:0.8;"/>
   </g>
   <g id="text_14">
    <!-- f2 -->
    <g transform="translate(396.24 297.114893)scale(0.15 -0.15)">
     <use xlink:href="#DejaVuSans-66"/>
     <use x="35.205078" xlink:href="#DejaVuSans-32"/>
    </g>
   </g>
   <g id="text_15">
    <!-- f3 -->
    <defs>
     <path d="M 40.578125 39.3125 
Q 47.65625 37.796875 51.625 33 
Q 55.609375 28.21875 55.609375 21.1875 
Q 55.609375 10.40625 48.1875 4.484375 
Q 40.765625 -1.421875 27.09375 -1.421875 
Q 22.515625 -1.421875 17.65625 -0.515625 
Q 12.796875 0.390625 7.625 2.203125 
L 7.625 11.71875 
Q 11.71875 9.328125 16.59375 8.109375 
Q 21.484375 6.890625 26.8125 6.890625 
Q 36.078125 6.890625 40.9375 10.546875 
Q 45.796875 14.203125 45.796875 21.1875 
Q 45.796875 27.640625 41.28125 31.265625 
Q 36.765625 34.90625 28.71875 34.90625 
L 20.21875 34.90625 
L 20.21875 43.015625 
L 29.109375 43.015625 
Q 36.375 43.015625 40.234375 45.921875 
Q 44.09375 48.828125 44.09375 54.296875 
Q 44.09375 59.90625 40.109375 62.90625 
Q 36.140625 65.921875 28.71875 65.921875 
Q 24.65625 65.921875 20.015625 65.03125 
Q 15.375 64.15625 9.8125 62.3125 
L 9.8125 71.09375 
Q 15.4375 72.65625 20.34375 73.4375 
Q 25.25 74.21875 29.59375 74.21875 
Q 40.828125 74.21875 47.359375 69.109375 
Q 53.90625 64.015625 53.90625 55.328125 
Q 53.90625 49.265625 50.4375 45.09375 
Q 46.96875 40.921875 40.578125 39.3125 
" id="DejaVuSans-33"/>
    </defs>
    <g transform="translate(396.24 233.880358)scale(0.15 -0.15)">
     <use xlink:href="#DejaVuSans-66"/>
     <use x="35.205078" xlink:href="#DejaVuSans-33"/>
    </g>
   </g>
   <g id="text_16">
    <!-- f4 -->
    <g transform="translate(396.24 170.645824)scale(0.15 -0.15)">
     <use xlink:href="#DejaVuSans-66"/>
     <use x="35.205078" xlink:href="#DejaVuSans-34"/>
    </g>
   </g>
   <g id="text_17">
    <!-- f1 -->
    <g transform="translate(396.24 107.411289)scale(0.15 -0.15)">
     <use xlink:href="#DejaVuSans-66"/>
     <use x="35.205078" xlink:href="#DejaVuSans-31"/>
    </g>
   </g>
   <g id="text_18">
    <!-- f5 -->
    <defs>
     <path d="M 10.796875 72.90625 
L 49.515625 72.90625 
L 49.515625 64.59375 
L 19.828125 64.59375 
L 19.828125 46.734375 
Q 21.96875 47.46875 24.109375 47.828125 
Q 26.265625 48.1875 28.421875 48.1875 
Q 40.625 48.1875 47.75 41.5 
Q 54.890625 34.8125 54.890625 23.390625 
Q 54.890625 11.625 47.5625 5.09375 
Q 40.234375 -1.421875 26.90625 -1.421875 
Q 22.3125 -1.421875 17.546875 -0.640625 
Q 12.796875 0.140625 7.71875 1.703125 
L 7.71875 11.625 
Q 12.109375 9.234375 16.796875 8.0625 
Q 21.484375 6.890625 26.703125 6.890625 
Q 35.15625 6.890625 40.078125 11.328125 
Q 45.015625 15.765625 45.015625 23.390625 
Q 45.015625 31 40.078125 35.4375 
Q 35.15625 39.890625 26.703125 39.890625 
Q 22.75 39.890625 18.8125 39.015625 
Q 14.890625 38.140625 10.796875 36.28125 
z
" id="DejaVuSans-35"/>
    </defs>
    <g transform="translate(396.24 44.176754)scale(0.15 -0.15)">
     <use xlink:href="#DejaVuSans-66"/>
     <use x="35.205078" xlink:href="#DejaVuSans-35"/>
    </g>
   </g>
   <g id="text_19">
    <!-- bbob -->
    <defs>
     <path d="M 48.6875 27.296875 
Q 48.6875 37.203125 44.609375 42.84375 
Q 40.53125 48.484375 33.40625 48.484375 
Q 26.265625 48.484375 22.1875 42.84375 
Q 18.109375 37.203125 18.109375 27.296875 
Q 18.109375 17.390625 22.1875 11.75 
Q 26.265625 6.109375 33.40625 6.109375 
Q 40.53125 6.109375 44.609375 11.75 
Q 48.6875 17.390625 48.6875 27.296875 
M 18.109375 46.390625 
Q 20.953125 51.265625 25.265625 53.625 
Q 29.59375 56 35.59375 56 
Q 45.5625 56 51.78125 48.09375 
Q 58.015625 40.1875 58.015625 27.296875 
Q 58.015625 14.40625 51.78125 6.484375 
Q 45.5625 -1.421875 35.59375 -1.421875 
Q 29.59375 -1.421875 25.265625 0.953125 
Q 20.953125 3.328125 18.109375 8.203125 
L 18.109375 0 
L 9.078125 0 
L 9.078125 75.984375 
L 18.109375 75.984375 
z
" id="DejaVuSans-62"/>
    </defs>
    <g transform="translate(74.3712 50.114612)scale(0.1666 -0.1666)">
     <use xlink:href="#DejaVuSans-62"/>
     <use x="63.476562" xlink:href="#DejaVuSans-62"/>
     <use x="126.953125" xlink:href="#DejaVuSans-6f"/>
     <use x="188.134766" xlink:href="#DejaVuSans-62"/>
    </g>
    <!-- Separable functions, 2-D -->
    <defs>
     <path d="M 53.515625 70.515625 
L 53.515625 60.890625 
Q 47.90625 63.578125 42.921875 64.890625 
Q 37.9375 66.21875 33.296875 66.21875 
Q 25.25 66.21875 20.875 63.09375 
Q 16.5 59.96875 16.5 54.203125 
Q 16.5 49.359375 19.40625 46.890625 
Q 22.3125 44.4375 30.421875 42.921875 
L 36.375 41.703125 
Q 47.40625 39.59375 52.65625 34.296875 
Q 57.90625 29 57.90625 20.125 
Q 57.90625 9.515625 50.796875 4.046875 
Q 43.703125 -1.421875 29.984375 -1.421875 
Q 24.8125 -1.421875 18.96875 -0.25 
Q 13.140625 0.921875 6.890625 3.21875 
L 6.890625 13.375 
Q 12.890625 10.015625 18.65625 8.296875 
Q 24.421875 6.59375 29.984375 6.59375 
Q 38.421875 6.59375 43.015625 9.90625 
Q 47.609375 13.234375 47.609375 19.390625 
Q 47.609375 24.75 44.3125 27.78125 
Q 41.015625 30.8125 33.5 32.328125 
L 27.484375 33.5 
Q 16.453125 35.6875 11.515625 40.375 
Q 6.59375 45.0625 6.59375 53.421875 
Q 6.59375 63.09375 13.40625 68.65625 
Q 20.21875 74.21875 32.171875 74.21875 
Q 37.3125 74.21875 42.625 73.28125 
Q 47.953125 72.359375 53.515625 70.515625 
" id="DejaVuSans-53"/>
     <path d="M 11.71875 12.40625 
L 22.015625 12.40625 
L 22.015625 4 
L 14.015625 -11.625 
L 7.71875 -11.625 
L 11.71875 4 
z
" id="DejaVuSans-2c"/>
     <path d="M 19.671875 64.796875 
L 19.671875 8.109375 
L 31.59375 8.109375 
Q 46.6875 8.109375 53.6875 14.9375 
Q 60.6875 21.78125 60.6875 36.53125 
Q 60.6875 51.171875 53.6875 57.984375 
Q 46.6875 64.796875 31.59375 64.796875 
z
M 9.8125 72.90625 
L 30.078125 72.90625 
Q 51.265625 72.90625 61.171875 64.09375 
Q 71.09375 55.28125 71.09375 36.53125 
Q 71.09375 17.671875 61.125 8.828125 
Q 51.171875 0 30.078125 0 
L 9.8125 0 
z
" id="DejaVuSans-44"/>
    </defs>
    <g transform="translate(74.3712 68.770168)scale(0.1666 -0.1666)">
     <use xlink:href="#DejaVuSans-53"/>
     <use x="63.476562" xlink:href="#DejaVuSans-65"/>
     <use x="125" xlink:href="#DejaVuSans-70"/>
     <use x="188.476562" xlink:href="#DejaVuSans-61"/>
     <use x="249.755859" xlink:href="#DejaVuSans-72"/>
     <use x="290.869141" xlink:href="#DejaVuSans-61"/>
     <use x="352.148438" xlink:href="#DejaVuSans-62"/>
     <use x="415.625" xlink:href="#DejaVuSans-6c"/>
     <use x="443.408203" xlink:href="#DejaVuSans-65"/>
     <use x="504.931641" xlink:href="#DejaVuSans-20"/>
     <use x="536.71875" xlink:href="#DejaVuSans-66"/>
     <use x="571.923828" xlink:href="#DejaVuSans-75"/>
     <use x="635.302734" xlink:href="#DejaVuSans-6e"/>
     <use x="698.681641" xlink:href="#DejaVuSans-63"/>
     <use x="753.662109" xlink:href="#DejaVuSans-74"/>
     <use x="792.871094" xlink:href="#DejaVuSans-69"/>
     <use x="820.654297" xlink:href="#DejaVuSans-6f"/>
     <use x="881.835938" xlink:href="#DejaVuSans-6e"/>
     <use x="945.214844" xlink:href="#DejaVuSans-73"/>
     <use x="997.314453" xlink:href="#DejaVuSans-2c"/>
     <use x="1029.101562" xlink:href="#DejaVuSans-20"/>
     <use x="1060.888672" xlink:href="#DejaVuSans-32"/>
     <use x="1124.511719" xlink:href="#DejaVuSans-2d"/>
     <use x="1160.595703" xlink:href="#DejaVuSans-44"/>
    </g>
    <!-- 51 targets in 100..1e-08 -->
    <g transform="translate(74.3712 87.425723)scale(0.1666 -0.1666)">
     <use xlink:href="#DejaVuSans-35"/>
     <use x="63.623047" xlink:href="#DejaVuSans-31"/>
     <use x="127.246094" xlink:href="#DejaVuSans-20"/>
     <use x="159.033203" xlink:href="#DejaVuSans-74"/>
     <use x="198.242188" xlink:href="#DejaVuSans-61"/>
     <use x="259.521484" xlink:href="#DejaVuSans-72"/>
     <use x="300.619141" xlink:href="#DejaVuSans-67"/>
     <use x="364.095703" xlink:href="#DejaVuSans-65"/>
     <use x="425.619141" xlink:href="#DejaVuSans-74"/>
     <use x="464.828125" xlink:href="#DejaVuSans-73"/>
     <use x="516.927734" xlink:href="#DejaVuSans-20"/>
     <use x="548.714844" xlink:href="#DejaVuSans-69"/>
     <use x="576.498047" xlink:href="#DejaVuSans-6e"/>
     <use x="639.876953" xlink:href="#DejaVuSans-20"/>
     <use x="671.664062" xlink:href="#DejaVuSans-31"/>
     <use x="735.287109" xlink:href="#DejaVuSans-30"/>
     <use x="798.910156" xlink:href="#DejaVuSans-30"/>
     <use x="862.533203" xlink:href="#DejaVuSans-2e"/>
     <use x="894.320312" xlink:href="#DejaVuSans-2e"/>
     <use x="926.107422" xlink:href="#DejaVuSans-31"/>
     <use x="989.730469" xlink:href="#DejaVuSans-65"/>
     <use x="1051.253906" xlink:href="#DejaVuSans-2d"/>
     <use x="1087.337891" xlink:href="#DejaVuSans-30"/>
     <use x="1150.960938" xlink:href="#DejaVuSans-38"/>
    </g>
    <!-- 15 instances -->
    <g transform="translate(74.3712 106.081279)scale(0.1666 -0.1666)">
     <use xlink:href="#DejaVuSans-31"/>
     <use x="63.623047" xlink:href="#DejaVuSans-35"/>
     <use x="127.246094" xlink:href="#DejaVuSans-20"/>
     <use x="159.033203" xlink:href="#DejaVuSans-69"/>
     <use x="186.816406" xlink:href="#DejaVuSans-6e"/>
     <use x="250.195312" xlink:href="#DejaVuSans-73"/>
     <use x="302.294922" xlink:href="#DejaVuSans-74"/>
     <use x="341.503906" xlink:href="#DejaVuSans-61"/>
     <use x="402.783203" xlink:href="#DejaVuSans-6e"/>
     <use x="466.162109" xlink:href="#DejaVuSans-63"/>
     <use x="521.142578" xlink:href="#DejaVuSans-65"/>
     <use x="582.666016" xlink:href="#DejaVuSans-73"/>
    </g>
   </g>
   <g id="text_20">
    <!-- v2.1 -->
    <g style="fill:#808080;" transform="translate(238.449063 293.504568)scale(0.1 -0.1)">
     <use xlink:href="#DejaVuSans-76"/>
     <use x="59.179688" xlink:href="#DejaVuSans-32"/>
     <use x="122.802734" xlink:href="#DejaVuSans-2e"/>
     <use x="154.589844" xlink:href="#DejaVuSans-31"/>
    </g>
   </g>
  </g>
 </g>
 <defs>
  <clipPath id="pf9851deb68">
   <rect height="266.112" width="357.12" x="70.8" y="32.133375"/>
  </clipPath>
 </defs>
</svg>
