<?xml version="1.0" encoding="utf-8" standalone="no"?>
<!DOCTYPE svg PUBLIC "-//W3C//DTD SVG 1.1//EN"
  "http://www.w3.org/Graphics/SVG/1.1/DTD/svg11.dtd">
<!-- Created with matplotlib (http://matplotlib.org/) -->
<svg height="353pt" version="1.1" viewBox="0 0 439 353" width="439pt" xmlns="http://www.w3.org/2000/svg" xmlns:xlink="http://www.w3.org/1999/xlink">
 <defs>
  <style type="text/css">
*{stroke-linecap:butt;stroke-linejoin:round;}
  </style>
 </defs>
 <g id="figure_1">
  <g id="patch_1">
   <path d="M 0 353.22225 
L 439.489219 353.22225 
L 439.489219 0 
L 0 0 
z
" style="fill:#ffffff;"/>
  </g>
  <g id="axes_1">
   <g id="patch_2">
    <path d="M 70.8 298.245375 
L 427.92 298.245375 
L 427.92 32.133375 
L 70.8 32.133375 
z
" style="fill:#ffffff;"/>
   </g>
   <g id="matplotlib.axis_1">
    <g id="xtick_1">
     <g id="line2d_1">
      <path clip-path="url(#paf0696b60a)" d="M 70.8 298.245375 
L 70.8 32.133375 
" style="fill:none;stroke:#b0b0b0;stroke-linecap:square;stroke-width:0.8;"/>
     </g>
     <g id="line2d_2">
      <defs>
       <path d="M 0 0 
L 0 3.5 
" id="m1fb07408d3" style="stroke:#000000;stroke-width:0.8;"/>
      </defs>
      <g>
       <use style="stroke:#000000;stroke-width:0.8;" x="70.8" xlink:href="#m1fb07408d3" y="298.245375"/>
      </g>
     </g>
     <g id="text_1">
      <!-- 0 -->
      <defs>
       <path d="M 31.78125 66.40625 
Q 24.171875 66.40625 20.328125 58.90625 
Q 16.5 51.421875 16.5 36.375 
Q 16.5 21.390625 20.328125 13.890625 
Q 24.171875 6.390625 31.78125 6.390625 
Q 39.453125 6.390625 43.28125 13.890625 
Q 47.125 21.390625 47.125 36.375 
Q 47.125 51.421875 43.28125 58.90625 
Q 39.453125 66.40625 31.78125 66.40625 
M 31.78125 74.21875 
Q 44.046875 74.21875 50.515625 64.515625 
Q 56.984375 54.828125 56.984375 36.375 
Q 56.984375 17.96875 50.515625 8.265625 
Q 44.046875 -1.421875 31.78125 -1.421875 
Q 19.53125 -1.421875 13.0625 8.265625 
Q 6.59375 17.96875 6.59375 36.375 
Q 6.59375 54.828125 13.0625 64.515625 
Q 19.53125 74.21875 31.78125 74.21875 
" id="DejaVuSans-30"/>
      </defs>
      <g transform="translate(64.4375 320.44225)scale(0.2 -0.2)">
       <use xlink:href="#DejaVuSans-30"/>
      </g>
     </g>
    </g>
    <g id="xtick_2">
     <g id="line2d_3">
      <path clip-path="url(#paf0696b60a)" d="M 153.085714 298.245375 
L 153.085714 32.133375 
" style="fill:none;stroke:#b0b0b0;stroke-linecap:square;stroke-width:0.8;"/>
     </g>
     <g id="line2d_4">
      <g>
       <use style="stroke:#000000;stroke-width:0.8;" x="153.085714" xlink:href="#m1fb07408d3" y="298.245375"/>
      </g>
     </g>
     <g id="text_2">
      <!-- 2 -->
      <defs>
       <path d="M 19.1875 8.296875 
L 53.609375 8.296875 
L 53.609375 0 
L 7.328125 0 
L 7.328125 8.296875 
Q 12.9375 14.109375 22.625 23.890625 
Q 32.328125 33.6875 34.8125 36.53125 
Q 39.546875 41.84375 41.421875 45.53125 
Q 43.3125 49.21875 43.3125 52.78125 
Q 43.3125 58.59375 39.234375 62.25 
Q 35.15625 65.921875 28.609375 65.921875 
Q 23.96875 65.921875 18.8125 64.3125 
Q 13.671875 62.703125 7.8125 59.421875 
L 7.8125 69.390625 
Q 13.765625 71.78125 18.9375 73 
Q 24.125 74.21875 28.421875 74.21875 
Q 39.75 74.21875 46.484375 68.546875 
Q 53.21875 62.890625 53.21875 53.421875 
Q 53.21875 48.921875 51.53125 44.890625 
Q 49.859375 40.875 45.40625 35.40625 
Q 44.1875 33.984375 37.640625 27.21875 
Q 31.109375 20.453125 19.1875 8.296875 
" id="DejaVuSans-32"/>
      </defs>
      <g transform="translate(146.723214 320.44225)scale(0.2 -0.2)">
       <use xlink:href="#DejaVuSans-32"/>
      </g>
     </g>
    </g>
    <g id="xtick_3">
     <g id="line2d_5">
      <path clip-path="url(#paf0696b60a)" d="M 235.371429 298.245375 
L 235.371429 32.133375 
" style="fill:none;stroke:#b0b0b0;stroke-linecap:square;stroke-width:0.8;"/>
     </g>
     <g id="line2d_6">
      <g>
       <use style="stroke:#000000;stroke-width:0.8;" x="235.371429" xlink:href="#m1fb07408d3" y="298.245375"/>
      </g>
     </g>
     <g id="text_3">
      <!-- 4 -->
      <defs>
       <path d="M 37.796875 64.3125 
L 12.890625 25.390625 
L 37.796875 25.390625 
z
M 35.203125 72.90625 
L 47.609375 72.90625 
L 47.609375 25.390625 
L 58.015625 25.390625 
L 58.015625 17.1875 
L 47.609375 17.1875 
L 47.609375 0 
L 37.796875 0 
L 37.796875 17.1875 
L 4.890625 17.1875 
L 4.890625 26.703125 
z
" id="DejaVuSans-34"/>
      </defs>
      <g transform="translate(229.008929 320.44225)scale(0.2 -0.2)">
       <use xlink:href="#DejaVuSans-34"/>
      </g>
     </g>
    </g>
    <g id="xtick_4">
     <g id="line2d_7">
      <path clip-path="url(#paf0696b60a)" d="M 317.657143 298.245375 
L 317.657143 32.133375 
" style="fill:none;stroke:#b0b0b0;stroke-linecap:square;stroke-width:0.8;"/>
     </g>
     <g id="line2d_8">
      <g>
       <use style="stroke:#000000;stroke-width:0.8;" x="317.657143" xlink:href="#m1fb07408d3" y="298.245375"/>
      </g>
     </g>
     <g id="text_4">
      <!-- 6 -->
      <defs>
       <path d="M 33.015625 40.375 
Q 26.375 40.375 22.484375 35.828125 
Q 18.609375 31.296875 18.609375 23.390625 
Q 18.609375 15.53125 22.484375 10.953125 
Q 26.375 6.390625 33.015625 6.390625 
Q 39.65625 6.390625 43.53125 10.953125 
Q 47.40625 15.53125 47.40625 23.390625 
Q 47.40625 31.296875 43.53125 35.828125 
Q 39.65625 40.375 33.015625 40.375 
M 52.59375 71.296875 
L 52.59375 62.3125 
Q 48.875 64.0625 45.09375 64.984375 
Q 41.3125 65.921875 37.59375 65.921875 
Q 27.828125 65.921875 22.671875 59.328125 
Q 17.53125 52.734375 16.796875 39.40625 
Q 19.671875 43.65625 24.015625 45.921875 
Q 28.375 48.1875 33.59375 48.1875 
Q 44.578125 48.1875 50.953125 41.515625 
Q 57.328125 34.859375 57.328125 23.390625 
Q 57.328125 12.15625 50.6875 5.359375 
Q 44.046875 -1.421875 33.015625 -1.421875 
Q 20.359375 -1.421875 13.671875 8.265625 
Q 6.984375 17.96875 6.984375 36.375 
Q 6.984375 53.65625 15.1875 63.9375 
Q 23.390625 74.21875 37.203125 74.21875 
Q 40.921875 74.21875 44.703125 73.484375 
Q 48.484375 72.75 52.59375 71.296875 
" id="DejaVuSans-36"/>
      </defs>
      <g transform="translate(311.294643 320.44225)scale(0.2 -0.2)">
       <use xlink:href="#DejaVuSans-36"/>
      </g>
     </g>
    </g>
    <g id="xtick_5">
     <g id="line2d_9">
      <path clip-path="url(#paf0696b60a)" d="M 399.942857 298.245375 
L 399.942857 32.133375 
" style="fill:none;stroke:#b0b0b0;stroke-linecap:square;stroke-width:0.8;"/>
     </g>
     <g id="line2d_10">
      <g>
       <use style="stroke:#000000;stroke-width:0.8;" x="399.942857" xlink:href="#m1fb07408d3" y="298.245375"/>
      </g>
     </g>
     <g id="text_5">
      <!-- 8 -->
      <defs>
       <path d="M 31.78125 34.625 
Q 24.75 34.625 20.71875 30.859375 
Q 16.703125 27.09375 16.703125 20.515625 
Q 16.703125 13.921875 20.71875 10.15625 
Q 24.75 6.390625 31.78125 6.390625 
Q 38.8125 6.390625 42.859375 10.171875 
Q 46.921875 13.96875 46.921875 20.515625 
Q 46.921875 27.09375 42.890625 30.859375 
Q 38.875 34.625 31.78125 34.625 
M 21.921875 38.8125 
Q 15.578125 40.375 12.03125 44.71875 
Q 8.5 49.078125 8.5 55.328125 
Q 8.5 64.0625 14.71875 69.140625 
Q 20.953125 74.21875 31.78125 74.21875 
Q 42.671875 74.21875 48.875 69.140625 
Q 55.078125 64.0625 55.078125 55.328125 
Q 55.078125 49.078125 51.53125 44.71875 
Q 48 40.375 41.703125 38.8125 
Q 48.828125 37.15625 52.796875 32.3125 
Q 56.78125 27.484375 56.78125 20.515625 
Q 56.78125 9.90625 50.3125 4.234375 
Q 43.84375 -1.421875 31.78125 -1.421875 
Q 19.734375 -1.421875 13.25 4.234375 
Q 6.78125 9.90625 6.78125 20.515625 
Q 6.78125 27.484375 10.78125 32.3125 
Q 14.796875 37.15625 21.921875 38.8125 
M 18.3125 54.390625 
Q 18.3125 48.734375 21.84375 45.5625 
Q 25.390625 42.390625 31.78125 42.390625 
Q 38.140625 42.390625 41.71875 45.5625 
Q 45.3125 48.734375 45.3125 54.390625 
Q 45.3125 60.0625 41.71875 63.234375 
Q 38.140625 66.40625 31.78125 66.40625 
Q 25.390625 66.40625 21.84375 63.234375 
Q 18.3125 60.0625 18.3125 54.390625 
" id="DejaVuSans-38"/>
      </defs>
      <g transform="translate(393.580357 320.44225)scale(0.2 -0.2)">
       <use xlink:href="#DejaVuSans-38"/>
      </g>
     </g>
    </g>
    <g id="xtick_6">
     <g id="line2d_11">
      <defs>
       <path d="M 0 0 
L 0 2 
" id="m56fc3be9f3" style="stroke:#000000;stroke-width:0.6;"/>
      </defs>
      <g>
       <use style="stroke:#000000;stroke-width:0.6;" x="83.185234" xlink:href="#m56fc3be9f3" y="298.245375"/>
      </g>
     </g>
    </g>
    <g id="xtick_7">
     <g id="line2d_12">
      <g>
       <use style="stroke:#000000;stroke-width:0.6;" x="95.570468" xlink:href="#m56fc3be9f3" y="298.245375"/>
      </g>
     </g>
    </g>
    <g id="xtick_8">
     <g id="line2d_13">
      <g>
       <use style="stroke:#000000;stroke-width:0.6;" x="102.815366" xlink:href="#m56fc3be9f3" y="298.245375"/>
      </g>
     </g>
    </g>
    <g id="xtick_9">
     <g id="line2d_14">
      <g>
       <use style="stroke:#000000;stroke-width:0.6;" x="107.955702" xlink:href="#m56fc3be9f3" y="298.245375"/>
      </g>
     </g>
    </g>
    <g id="xtick_10">
     <g id="line2d_15">
      <g>
       <use style="stroke:#000000;stroke-width:0.6;" x="165.470948" xlink:href="#m56fc3be9f3" y="298.245375"/>
      </g>
     </g>
    </g>
    <g id="xtick_11">
     <g id="line2d_16">
      <g>
       <use style="stroke:#000000;stroke-width:0.6;" x="177.856183" xlink:href="#m56fc3be9f3" y="298.245375"/>
      </g>
     </g>
    </g>
    <g id="xtick_12">
     <g id="line2d_17">
      <g>
       <use style="stroke:#000000;stroke-width:0.6;" x="185.10108" xlink:href="#m56fc3be9f3" y="298.245375"/>
      </g>
     </g>
    </g>
    <g id="xtick_13">
     <g id="line2d_18">
      <g>
       <use style="stroke:#000000;stroke-width:0.6;" x="190.241417" xlink:href="#m56fc3be9f3" y="298.245375"/>
      </g>
     </g>
    </g>
    <g id="xtick_14">
     <g id="line2d_19">
      <g>
       <use style="stroke:#000000;stroke-width:0.6;" x="247.756663" xlink:href="#m56fc3be9f3" y="298.245375"/>
      </g>
     </g>
    </g>
    <g id="xtick_15">
     <g id="line2d_20">
      <g>
       <use style="stroke:#000000;stroke-width:0.6;" x="260.141897" xlink:href="#m56fc3be9f3" y="298.245375"/>
      </g>
     </g>
    </g>
    <g id="xtick_16">
     <g id="line2d_21">
      <g>
       <use style="stroke:#000000;stroke-width:0.6;" x="267.386794" xlink:href="#m56fc3be9f3" y="298.245375"/>
      </g>
     </g>
    </g>
    <g id="xtick_17">
     <g id="line2d_22">
      <g>
       <use style="stroke:#000000;stroke-width:0.6;" x="272.527131" xlink:href="#m56fc3be9f3" y="298.245375"/>
      </g>
     </g>
    </g>
    <g id="xtick_18">
     <g id="line2d_23">
      <g>
       <use style="stroke:#000000;stroke-width:0.6;" x="330.042377" xlink:href="#m56fc3be9f3" y="298.245375"/>
      </g>
     </g>
    </g>
    <g id="xtick_19">
     <g id="line2d_24">
      <g>
       <use style="stroke:#000000;stroke-width:0.6;" x="342.427611" xlink:href="#m56fc3be9f3" y="298.245375"/>
      </g>
     </g>
    </g>
    <g id="xtick_20">
     <g id="line2d_25">
      <g>
       <use style="stroke:#000000;stroke-width:0.6;" x="349.672509" xlink:href="#m56fc3be9f3" y="298.245375"/>
      </g>
     </g>
    </g>
    <g id="xtick_21">
     <g id="line2d_26">
      <g>
       <use style="stroke:#000000;stroke-width:0.6;" x="354.812845" xlink:href="#m56fc3be9f3" y="298.245375"/>
      </g>
     </g>
    </g>
    <g id="xtick_22">
     <g id="line2d_27">
      <g>
       <use style="stroke:#000000;stroke-width:0.6;" x="412.328091" xlink:href="#m56fc3be9f3" y="298.245375"/>
      </g>
     </g>
    </g>
    <g id="xtick_23">
     <g id="line2d_28">
      <g>
       <use style="stroke:#000000;stroke-width:0.6;" x="424.713325" xlink:href="#m56fc3be9f3" y="298.245375"/>
      </g>
     </g>
    </g>
    <g id="text_6">
     <!-- log10 of (# f-evals / dimension) -->
     <defs>
      <path d="M 9.421875 75.984375 
L 18.40625 75.984375 
L 18.40625 0 
L 9.421875 0 
z
" id="DejaVuSans-6c"/>
      <path d="M 30.609375 48.390625 
Q 23.390625 48.390625 19.1875 42.75 
Q 14.984375 37.109375 14.984375 27.296875 
Q 14.984375 17.484375 19.15625 11.84375 
Q 23.34375 6.203125 30.609375 6.203125 
Q 37.796875 6.203125 41.984375 11.859375 
Q 46.1875 17.53125 46.1875 27.296875 
Q 46.1875 37.015625 41.984375 42.703125 
Q 37.796875 48.390625 30.609375 48.390625 
M 30.609375 56 
Q 42.328125 56 49.015625 48.375 
Q 55.71875 40.765625 55.71875 27.296875 
Q 55.71875 13.875 49.015625 6.21875 
Q 42.328125 -1.421875 30.609375 -1.421875 
Q 18.84375 -1.421875 12.171875 6.21875 
Q 5.515625 13.875 5.515625 27.296875 
Q 5.515625 40.765625 12.171875 48.375 
Q 18.84375 56 30.609375 56 
" id="DejaVuSans-6f"/>
      <path d="M 45.40625 27.984375 
Q 45.40625 37.75 41.375 43.109375 
Q 37.359375 48.484375 30.078125 48.484375 
Q 22.859375 48.484375 18.828125 43.109375 
Q 14.796875 37.75 14.796875 27.984375 
Q 14.796875 18.265625 18.828125 12.890625 
Q 22.859375 7.515625 30.078125 7.515625 
Q 37.359375 7.515625 41.375 12.890625 
Q 45.40625 18.265625 45.40625 27.984375 
M 54.390625 6.78125 
Q 54.390625 -7.171875 48.1875 -13.984375 
Q 42 -20.796875 29.203125 -20.796875 
Q 24.46875 -20.796875 20.265625 -20.09375 
Q 16.0625 -19.390625 12.109375 -17.921875 
L 12.109375 -9.1875 
Q 16.0625 -11.328125 19.921875 -12.34375 
Q 23.78125 -13.375 27.78125 -13.375 
Q 36.625 -13.375 41.015625 -8.765625 
Q 45.40625 -4.15625 45.40625 5.171875 
L 45.40625 9.625 
Q 42.625 4.78125 38.28125 2.390625 
Q 33.9375 0 27.875 0 
Q 17.828125 0 11.671875 7.65625 
Q 5.515625 15.328125 5.515625 27.984375 
Q 5.515625 40.671875 11.671875 48.328125 
Q 17.828125 56 27.875 56 
Q 33.9375 56 38.28125 53.609375 
Q 42.625 51.21875 45.40625 46.390625 
L 45.40625 54.6875 
L 54.390625 54.6875 
z
" id="DejaVuSans-67"/>
      <path d="M 12.40625 8.296875 
L 28.515625 8.296875 
L 28.515625 63.921875 
L 10.984375 60.40625 
L 10.984375 69.390625 
L 28.421875 72.90625 
L 38.28125 72.90625 
L 38.28125 8.296875 
L 54.390625 8.296875 
L 54.390625 0 
L 12.40625 0 
z
" id="DejaVuSans-31"/>
      <path id="DejaVuSans-20"/>
      <path d="M 37.109375 75.984375 
L 37.109375 68.5 
L 28.515625 68.5 
Q 23.6875 68.5 21.796875 66.546875 
Q 19.921875 64.59375 19.921875 59.515625 
L 19.921875 54.6875 
L 34.71875 54.6875 
L 34.71875 47.703125 
L 19.921875 47.703125 
L 19.921875 0 
L 10.890625 0 
L 10.890625 47.703125 
L 2.296875 47.703125 
L 2.296875 54.6875 
L 10.890625 54.6875 
L 10.890625 58.5 
Q 10.890625 67.625 15.140625 71.796875 
Q 19.390625 75.984375 28.609375 75.984375 
z
" id="DejaVuSans-66"/>
      <path d="M 31 75.875 
Q 24.46875 64.65625 21.28125 53.65625 
Q 18.109375 42.671875 18.109375 31.390625 
Q 18.109375 20.125 21.3125 9.0625 
Q 24.515625 -2 31 -13.1875 
L 23.1875 -13.1875 
Q 15.875 -1.703125 12.234375 9.375 
Q 8.59375 20.453125 8.59375 31.390625 
Q 8.59375 42.28125 12.203125 53.3125 
Q 15.828125 64.359375 23.1875 75.875 
z
" id="DejaVuSans-28"/>
      <path d="M 51.125 44 
L 36.921875 44 
L 32.8125 27.6875 
L 47.125 27.6875 
z
M 43.796875 71.78125 
L 38.71875 51.515625 
L 52.984375 51.515625 
L 58.109375 71.78125 
L 65.921875 71.78125 
L 60.890625 51.515625 
L 76.125 51.515625 
L 76.125 44 
L 58.984375 44 
L 54.984375 27.6875 
L 70.515625 27.6875 
L 70.515625 20.21875 
L 53.078125 20.21875 
L 48 0 
L 40.1875 0 
L 45.21875 20.21875 
L 30.90625 20.21875 
L 25.875 0 
L 18.015625 0 
L 23.09375 20.21875 
L 7.71875 20.21875 
L 7.71875 27.6875 
L 24.90625 27.6875 
L 29 44 
L 13.28125 44 
L 13.28125 51.515625 
L 30.90625 51.515625 
L 35.890625 71.78125 
z
" id="DejaVuSans-23"/>
      <path d="M 4.890625 31.390625 
L 31.203125 31.390625 
L 31.203125 23.390625 
L 4.890625 23.390625 
z
" id="DejaVuSans-2d"/>
      <path d="M 56.203125 29.59375 
L 56.203125 25.203125 
L 14.890625 25.203125 
Q 15.484375 15.921875 20.484375 11.0625 
Q 25.484375 6.203125 34.421875 6.203125 
Q 39.59375 6.203125 44.453125 7.46875 
Q 49.3125 8.734375 54.109375 11.28125 
L 54.109375 2.78125 
Q 49.265625 0.734375 44.1875 -0.34375 
Q 39.109375 -1.421875 33.890625 -1.421875 
Q 20.796875 -1.421875 13.15625 6.1875 
Q 5.515625 13.8125 5.515625 26.8125 
Q 5.515625 40.234375 12.765625 48.109375 
Q 20.015625 56 32.328125 56 
Q 43.359375 56 49.78125 48.890625 
Q 56.203125 41.796875 56.203125 29.59375 
M 47.21875 32.234375 
Q 47.125 39.59375 43.09375 43.984375 
Q 39.0625 48.390625 32.421875 48.390625 
Q 24.90625 48.390625 20.390625 44.140625 
Q 15.875 39.890625 15.1875 32.171875 
z
" id="DejaVuSans-65"/>
      <path d="M 2.984375 54.6875 
L 12.5 54.6875 
L 29.59375 8.796875 
L 46.6875 54.6875 
L 56.203125 54.6875 
L 35.6875 0 
L 23.484375 0 
z
" id="DejaVuSans-76"/>
      <path d="M 34.28125 27.484375 
Q 23.390625 27.484375 19.1875 25 
Q 14.984375 22.515625 14.984375 16.5 
Q 14.984375 11.71875 18.140625 8.90625 
Q 21.296875 6.109375 26.703125 6.109375 
Q 34.1875 6.109375 38.703125 11.40625 
Q 43.21875 16.703125 43.21875 25.484375 
L 43.21875 27.484375 
z
M 52.203125 31.203125 
L 52.203125 0 
L 43.21875 0 
L 43.21875 8.296875 
Q 40.140625 3.328125 35.546875 0.953125 
Q 30.953125 -1.421875 24.3125 -1.421875 
Q 15.921875 -1.421875 10.953125 3.296875 
Q 6 8.015625 6 15.921875 
Q 6 25.140625 12.171875 29.828125 
Q 18.359375 34.515625 30.609375 34.515625 
L 43.21875 34.515625 
L 43.21875 35.40625 
Q 43.21875 41.609375 39.140625 45 
Q 35.0625 48.390625 27.6875 48.390625 
Q 23 48.390625 18.546875 47.265625 
Q 14.109375 46.140625 10.015625 43.890625 
L 10.015625 52.203125 
Q 14.9375 54.109375 19.578125 55.046875 
Q 24.21875 56 28.609375 56 
Q 40.484375 56 46.34375 49.84375 
Q 52.203125 43.703125 52.203125 31.203125 
" id="DejaVuSans-61"/>
      <path d="M 44.28125 53.078125 
L 44.28125 44.578125 
Q 40.484375 46.53125 36.375 47.5 
Q 32.28125 48.484375 27.875 48.484375 
Q 21.1875 48.484375 17.84375 46.4375 
Q 14.5 44.390625 14.5 40.28125 
Q 14.5 37.15625 16.890625 35.375 
Q 19.28125 33.59375 26.515625 31.984375 
L 29.59375 31.296875 
Q 39.15625 29.25 43.1875 25.515625 
Q 47.21875 21.78125 47.21875 15.09375 
Q 47.21875 7.46875 41.1875 3.015625 
Q 35.15625 -1.421875 24.609375 -1.421875 
Q 20.21875 -1.421875 15.453125 -0.5625 
Q 10.6875 0.296875 5.421875 2 
L 5.421875 11.28125 
Q 10.40625 8.6875 15.234375 7.390625 
Q 20.0625 6.109375 24.8125 6.109375 
Q 31.15625 6.109375 34.5625 8.28125 
Q 37.984375 10.453125 37.984375 14.40625 
Q 37.984375 18.0625 35.515625 20.015625 
Q 33.0625 21.96875 24.703125 23.78125 
L 21.578125 24.515625 
Q 13.234375 26.265625 9.515625 29.90625 
Q 5.8125 33.546875 5.8125 39.890625 
Q 5.8125 47.609375 11.28125 51.796875 
Q 16.75 56 26.8125 56 
Q 31.78125 56 36.171875 55.265625 
Q 40.578125 54.546875 44.28125 53.078125 
" id="DejaVuSans-73"/>
      <path d="M 25.390625 72.90625 
L 33.6875 72.90625 
L 8.296875 -9.28125 
L 0 -9.28125 
z
" id="DejaVuSans-2f"/>
      <path d="M 45.40625 46.390625 
L 45.40625 75.984375 
L 54.390625 75.984375 
L 54.390625 0 
L 45.40625 0 
L 45.40625 8.203125 
Q 42.578125 3.328125 38.25 0.953125 
Q 33.9375 -1.421875 27.875 -1.421875 
Q 17.96875 -1.421875 11.734375 6.484375 
Q 5.515625 14.40625 5.515625 27.296875 
Q 5.515625 40.1875 11.734375 48.09375 
Q 17.96875 56 27.875 56 
Q 33.9375 56 38.25 53.625 
Q 42.578125 51.265625 45.40625 46.390625 
M 14.796875 27.296875 
Q 14.796875 17.390625 18.875 11.75 
Q 22.953125 6.109375 30.078125 6.109375 
Q 37.203125 6.109375 41.296875 11.75 
Q 45.40625 17.390625 45.40625 27.296875 
Q 45.40625 37.203125 41.296875 42.84375 
Q 37.203125 48.484375 30.078125 48.484375 
Q 22.953125 48.484375 18.875 42.84375 
Q 14.796875 37.203125 14.796875 27.296875 
" id="DejaVuSans-64"/>
      <path d="M 9.421875 54.6875 
L 18.40625 54.6875 
L 18.40625 0 
L 9.421875 0 
z
M 9.421875 75.984375 
L 18.40625 75.984375 
L 18.40625 64.59375 
L 9.421875 64.59375 
z
" id="DejaVuSans-69"/>
      <path d="M 52 44.1875 
Q 55.375 50.25 60.0625 53.125 
Q 64.75 56 71.09375 56 
Q 79.640625 56 84.28125 50.015625 
Q 88.921875 44.046875 88.921875 33.015625 
L 88.921875 0 
L 79.890625 0 
L 79.890625 32.71875 
Q 79.890625 40.578125 77.09375 44.375 
Q 74.3125 48.1875 68.609375 48.1875 
Q 61.625 48.1875 57.5625 43.546875 
Q 53.515625 38.921875 53.515625 30.90625 
L 53.515625 0 
L 44.484375 0 
L 44.484375 32.71875 
Q 44.484375 40.625 41.703125 44.40625 
Q 38.921875 48.1875 33.109375 48.1875 
Q 26.21875 48.1875 22.15625 43.53125 
Q 18.109375 38.875 18.109375 30.90625 
L 18.109375 0 
L 9.078125 0 
L 9.078125 54.6875 
L 18.109375 54.6875 
L 18.109375 46.1875 
Q 21.1875 51.21875 25.484375 53.609375 
Q 29.78125 56 35.6875 56 
Q 41.65625 56 45.828125 52.96875 
Q 50 49.953125 52 44.1875 
" id="DejaVuSans-6d"/>
      <path d="M 54.890625 33.015625 
L 54.890625 0 
L 45.90625 0 
L 45.90625 32.71875 
Q 45.90625 40.484375 42.875 44.328125 
Q 39.84375 48.1875 33.796875 48.1875 
Q 26.515625 48.1875 22.3125 43.546875 
Q 18.109375 38.921875 18.109375 30.90625 
L 18.109375 0 
L 9.078125 0 
L 9.078125 54.6875 
L 18.109375 54.6875 
L 18.109375 46.1875 
Q 21.34375 51.125 25.703125 53.5625 
Q 30.078125 56 35.796875 56 
Q 45.21875 56 50.046875 50.171875 
Q 54.890625 44.34375 54.890625 33.015625 
" id="DejaVuSans-6e"/>
      <path d="M 8.015625 75.875 
L 15.828125 75.875 
Q 23.140625 64.359375 26.78125 53.3125 
Q 30.421875 42.28125 30.421875 31.390625 
Q 30.421875 20.453125 26.78125 9.375 
Q 23.140625 -1.703125 15.828125 -13.1875 
L 8.015625 -13.1875 
Q 14.5 -2 17.703125 9.0625 
Q 20.90625 20.125 20.90625 31.390625 
Q 20.90625 42.671875 17.703125 53.65625 
Q 14.5 64.65625 8.015625 75.875 
" id="DejaVuSans-29"/>
     </defs>
     <g transform="translate(107.015156 342.278812)scale(0.18 -0.18)">
      <use xlink:href="#DejaVuSans-6c"/>
      <use x="27.783203" xlink:href="#DejaVuSans-6f"/>
      <use x="88.964844" xlink:href="#DejaVuSans-67"/>
      <use x="152.441406" xlink:href="#DejaVuSans-31"/>
      <use x="216.064453" xlink:href="#DejaVuSans-30"/>
      <use x="279.6875" xlink:href="#DejaVuSans-20"/>
      <use x="311.474609" xlink:href="#DejaVuSans-6f"/>
      <use x="372.65625" xlink:href="#DejaVuSans-66"/>
      <use x="407.861328" xlink:href="#DejaVuSans-20"/>
      <use x="439.648438" xlink:href="#DejaVuSans-28"/>
      <use x="478.662109" xlink:href="#DejaVuSans-23"/>
      <use x="562.451172" xlink:href="#DejaVuSans-20"/>
      <use x="594.238281" xlink:href="#DejaVuSans-66"/>
      <use x="629.365234" xlink:href="#DejaVuSans-2d"/>
      <use x="665.449219" xlink:href="#DejaVuSans-65"/>
      <use x="726.972656" xlink:href="#DejaVuSans-76"/>
      <use x="786.152344" xlink:href="#DejaVuSans-61"/>
      <use x="847.431641" xlink:href="#DejaVuSans-6c"/>
      <use x="875.214844" xlink:href="#DejaVuSans-73"/>
      <use x="927.314453" xlink:href="#DejaVuSans-20"/>
      <use x="959.101562" xlink:href="#DejaVuSans-2f"/>
      <use x="992.792969" xlink:href="#DejaVuSans-20"/>
      <use x="1024.580078" xlink:href="#DejaVuSans-64"/>
      <use x="1088.056641" xlink:href="#DejaVuSans-69"/>
      <use x="1115.839844" xlink:href="#DejaVuSans-6d"/>
      <use x="1213.251953" xlink:href="#DejaVuSans-65"/>
      <use x="1274.775391" xlink:href="#DejaVuSans-6e"/>
      <use x="1338.154297" xlink:href="#DejaVuSans-73"/>
      <use x="1390.253906" xlink:href="#DejaVuSans-69"/>
      <use x="1418.037109" xlink:href="#DejaVuSans-6f"/>
      <use x="1479.21875" xlink:href="#DejaVuSans-6e"/>
      <use x="1542.597656" xlink:href="#DejaVuSans-29"/>
     </g>
    </g>
   </g>
   <g id="matplotlib.axis_2">
    <g id="ytick_1">
     <g id="line2d_29">
      <path clip-path="url(#paf0696b60a)" d="M 70.8 298.245375 
L 427.92 298.245375 
" style="fill:none;stroke:#b0b0b0;stroke-linecap:square;stroke-width:0.8;"/>
     </g>
     <g id="line2d_30">
      <defs>
       <path d="M 0 0 
L -3.5 0 
" id="m52d29ea5af" style="stroke:#000000;stroke-width:0.8;"/>
      </defs>
      <g>
       <use style="stroke:#000000;stroke-width:0.8;" x="70.8" xlink:href="#m52d29ea5af" y="298.245375"/>
      </g>
     </g>
     <g id="text_7">
      <!-- 0.0 -->
      <defs>
       <path d="M 10.6875 12.40625 
L 21 12.40625 
L 21 0 
L 10.6875 0 
z
" id="DejaVuSans-2e"/>
      </defs>
      <g transform="translate(31.99375 305.843812)scale(0.2 -0.2)">
       <use xlink:href="#DejaVuSans-30"/>
       <use x="63.623047" xlink:href="#DejaVuSans-2e"/>
       <use x="95.410156" xlink:href="#DejaVuSans-30"/>
      </g>
     </g>
    </g>
    <g id="ytick_2">
     <g id="line2d_31">
      <path clip-path="url(#paf0696b60a)" d="M 70.8 245.549929 
L 427.92 245.549929 
" style="fill:none;stroke:#b0b0b0;stroke-linecap:square;stroke-width:0.8;"/>
     </g>
     <g id="line2d_32">
      <g>
       <use style="stroke:#000000;stroke-width:0.8;" x="70.8" xlink:href="#m52d29ea5af" y="245.549929"/>
      </g>
     </g>
     <g id="text_8">
      <!-- 0.2 -->
      <g transform="translate(31.99375 253.148367)scale(0.2 -0.2)">
       <use xlink:href="#DejaVuSans-30"/>
       <use x="63.623047" xlink:href="#DejaVuSans-2e"/>
       <use x="95.410156" xlink:href="#DejaVuSans-32"/>
      </g>
     </g>
    </g>
    <g id="ytick_3">
     <g id="line2d_33">
      <path clip-path="url(#paf0696b60a)" d="M 70.8 192.854484 
L 427.92 192.854484 
" style="fill:none;stroke:#b0b0b0;stroke-linecap:square;stroke-width:0.8;"/>
     </g>
     <g id="line2d_34">
      <g>
       <use style="stroke:#000000;stroke-width:0.8;" x="70.8" xlink:href="#m52d29ea5af" y="192.854484"/>
      </g>
     </g>
     <g id="text_9">
      <!-- 0.4 -->
      <g transform="translate(31.99375 200.452921)scale(0.2 -0.2)">
       <use xlink:href="#DejaVuSans-30"/>
       <use x="63.623047" xlink:href="#DejaVuSans-2e"/>
       <use x="95.410156" xlink:href="#DejaVuSans-34"/>
      </g>
     </g>
    </g>
    <g id="ytick_4">
     <g id="line2d_35">
      <path clip-path="url(#paf0696b60a)" d="M 70.8 140.159038 
L 427.92 140.159038 
" style="fill:none;stroke:#b0b0b0;stroke-linecap:square;stroke-width:0.8;"/>
     </g>
     <g id="line2d_36">
      <g>
       <use style="stroke:#000000;stroke-width:0.8;" x="70.8" xlink:href="#m52d29ea5af" y="140.159038"/>
      </g>
     </g>
     <g id="text_10">
      <!-- 0.6 -->
      <g transform="translate(31.99375 147.757476)scale(0.2 -0.2)">
       <use xlink:href="#DejaVuSans-30"/>
       <use x="63.623047" xlink:href="#DejaVuSans-2e"/>
       <use x="95.410156" xlink:href="#DejaVuSans-36"/>
      </g>
     </g>
    </g>
    <g id="ytick_5">
     <g id="line2d_37">
      <path clip-path="url(#paf0696b60a)" d="M 70.8 87.463593 
L 427.92 87.463593 
" style="fill:none;stroke:#b0b0b0;stroke-linecap:square;stroke-width:0.8;"/>
     </g>
     <g id="line2d_38">
      <g>
       <use style="stroke:#000000;stroke-width:0.8;" x="70.8" xlink:href="#m52d29ea5af" y="87.463593"/>
      </g>
     </g>
     <g id="text_11">
      <!-- 0.8 -->
      <g transform="translate(31.99375 95.06203)scale(0.2 -0.2)">
       <use xlink:href="#DejaVuSans-30"/>
       <use x="63.623047" xlink:href="#DejaVuSans-2e"/>
       <use x="95.410156" xlink:href="#DejaVuSans-38"/>
      </g>
     </g>
    </g>
    <g id="ytick_6">
     <g id="line2d_39">
      <path clip-path="url(#paf0696b60a)" d="M 70.8 34.768147 
L 427.92 34.768147 
" style="fill:none;stroke:#b0b0b0;stroke-linecap:square;stroke-width:0.8;"/>
     </g>
     <g id="line2d_40">
      <g>
       <use style="stroke:#000000;stroke-width:0.8;" x="70.8" xlink:href="#m52d29ea5af" y="34.768147"/>
      </g>
     </g>
     <g id="text_12">
      <!-- 1.0 -->
      <g transform="translate(31.99375 42.366585)scale(0.2 -0.2)">
       <use xlink:href="#DejaVuSans-31"/>
       <use x="63.623047" xlink:href="#DejaVuSans-2e"/>
       <use x="95.410156" xlink:href="#DejaVuSans-30"/>
      </g>
     </g>
    </g>
    <g id="text_13">
     <!-- Proportion of function+target pairs -->
     <defs>
      <path d="M 19.671875 64.796875 
L 19.671875 37.40625 
L 32.078125 37.40625 
Q 38.96875 37.40625 42.71875 40.96875 
Q 46.484375 44.53125 46.484375 51.125 
Q 46.484375 57.671875 42.71875 61.234375 
Q 38.96875 64.796875 32.078125 64.796875 
z
M 9.8125 72.90625 
L 32.078125 72.90625 
Q 44.34375 72.90625 50.609375 67.359375 
Q 56.890625 61.8125 56.890625 51.125 
Q 56.890625 40.328125 50.609375 34.8125 
Q 44.34375 29.296875 32.078125 29.296875 
L 19.671875 29.296875 
L 19.671875 0 
L 9.8125 0 
z
" id="DejaVuSans-50"/>
      <path d="M 41.109375 46.296875 
Q 39.59375 47.171875 37.8125 47.578125 
Q 36.03125 48 33.890625 48 
Q 26.265625 48 22.1875 43.046875 
Q 18.109375 38.09375 18.109375 28.8125 
L 18.109375 0 
L 9.078125 0 
L 9.078125 54.6875 
L 18.109375 54.6875 
L 18.109375 46.1875 
Q 20.953125 51.171875 25.484375 53.578125 
Q 30.03125 56 36.53125 56 
Q 37.453125 56 38.578125 55.875 
Q 39.703125 55.765625 41.0625 55.515625 
z
" id="DejaVuSans-72"/>
      <path d="M 18.109375 8.203125 
L 18.109375 -20.796875 
L 9.078125 -20.796875 
L 9.078125 54.6875 
L 18.109375 54.6875 
L 18.109375 46.390625 
Q 20.953125 51.265625 25.265625 53.625 
Q 29.59375 56 35.59375 56 
Q 45.5625 56 51.78125 48.09375 
Q 58.015625 40.1875 58.015625 27.296875 
Q 58.015625 14.40625 51.78125 6.484375 
Q 45.5625 -1.421875 35.59375 -1.421875 
Q 29.59375 -1.421875 25.265625 0.953125 
Q 20.953125 3.328125 18.109375 8.203125 
M 48.6875 27.296875 
Q 48.6875 37.203125 44.609375 42.84375 
Q 40.53125 48.484375 33.40625 48.484375 
Q 26.265625 48.484375 22.1875 42.84375 
Q 18.109375 37.203125 18.109375 27.296875 
Q 18.109375 17.390625 22.1875 11.75 
Q 26.265625 6.109375 33.40625 6.109375 
Q 40.53125 6.109375 44.609375 11.75 
Q 48.6875 17.390625 48.6875 27.296875 
" id="DejaVuSans-70"/>
      <path d="M 18.3125 70.21875 
L 18.3125 54.6875 
L 36.8125 54.6875 
L 36.8125 47.703125 
L 18.3125 47.703125 
L 18.3125 18.015625 
Q 18.3125 11.328125 20.140625 9.421875 
Q 21.96875 7.515625 27.59375 7.515625 
L 36.8125 7.515625 
L 36.8125 0 
L 27.59375 0 
Q 17.1875 0 13.234375 3.875 
Q 9.28125 7.765625 9.28125 18.015625 
L 9.28125 47.703125 
L 2.6875 47.703125 
L 2.6875 54.6875 
L 9.28125 54.6875 
L 9.28125 70.21875 
z
" id="DejaVuSans-74"/>
      <path d="M 8.5 21.578125 
L 8.5 54.6875 
L 17.484375 54.6875 
L 17.484375 21.921875 
Q 17.484375 14.15625 20.5 10.265625 
Q 23.53125 6.390625 29.59375 6.390625 
Q 36.859375 6.390625 41.078125 11.03125 
Q 45.3125 15.671875 45.3125 23.6875 
L 45.3125 54.6875 
L 54.296875 54.6875 
L 54.296875 0 
L 45.3125 0 
L 45.3125 8.40625 
Q 42.046875 3.421875 37.71875 1 
Q 33.40625 -1.421875 27.6875 -1.421875 
Q 18.265625 -1.421875 13.375 4.4375 
Q 8.5 10.296875 8.5 21.578125 
M 31.109375 56 
z
" id="DejaVuSans-75"/>
      <path d="M 48.78125 52.59375 
L 48.78125 44.1875 
Q 44.96875 46.296875 41.140625 47.34375 
Q 37.3125 48.390625 33.40625 48.390625 
Q 24.65625 48.390625 19.8125 42.84375 
Q 14.984375 37.3125 14.984375 27.296875 
Q 14.984375 17.28125 19.8125 11.734375 
Q 24.65625 6.203125 33.40625 6.203125 
Q 37.3125 6.203125 41.140625 7.25 
Q 44.96875 8.296875 48.78125 10.40625 
L 48.78125 2.09375 
Q 45.015625 0.34375 40.984375 -0.53125 
Q 36.96875 -1.421875 32.421875 -1.421875 
Q 20.0625 -1.421875 12.78125 6.34375 
Q 5.515625 14.109375 5.515625 27.296875 
Q 5.515625 40.671875 12.859375 48.328125 
Q 20.21875 56 33.015625 56 
Q 37.15625 56 41.109375 55.140625 
Q 45.0625 54.296875 48.78125 52.59375 
" id="DejaVuSans-63"/>
      <path d="M 46 62.703125 
L 46 35.5 
L 73.1875 35.5 
L 73.1875 27.203125 
L 46 27.203125 
L 46 0 
L 37.796875 0 
L 37.796875 27.203125 
L 10.59375 27.203125 
L 10.59375 35.5 
L 37.796875 35.5 
L 37.796875 62.703125 
z
" id="DejaVuSans-2b"/>
     </defs>
     <g transform="translate(24.250312 323.17875)rotate(-90)scale(0.18 -0.18)">
      <use xlink:href="#DejaVuSans-50"/>
      <use x="60.287109" xlink:href="#DejaVuSans-72"/>
      <use x="101.369141" xlink:href="#DejaVuSans-6f"/>
      <use x="162.550781" xlink:href="#DejaVuSans-70"/>
      <use x="226.027344" xlink:href="#DejaVuSans-6f"/>
      <use x="287.208984" xlink:href="#DejaVuSans-72"/>
      <use x="328.322266" xlink:href="#DejaVuSans-74"/>
      <use x="367.53125" xlink:href="#DejaVuSans-69"/>
      <use x="395.314453" xlink:href="#DejaVuSans-6f"/>
      <use x="456.496094" xlink:href="#DejaVuSans-6e"/>
      <use x="519.875" xlink:href="#DejaVuSans-20"/>
      <use x="551.662109" xlink:href="#DejaVuSans-6f"/>
      <use x="612.84375" xlink:href="#DejaVuSans-66"/>
      <use x="648.048828" xlink:href="#DejaVuSans-20"/>
      <use x="679.835938" xlink:href="#DejaVuSans-66"/>
      <use x="715.041016" xlink:href="#DejaVuSans-75"/>
      <use x="778.419922" xlink:href="#DejaVuSans-6e"/>
      <use x="841.798828" xlink:href="#DejaVuSans-63"/>
      <use x="896.779297" xlink:href="#DejaVuSans-74"/>
      <use x="935.988281" xlink:href="#DejaVuSans-69"/>
      <use x="963.771484" xlink:href="#DejaVuSans-6f"/>
      <use x="1024.953125" xlink:href="#DejaVuSans-6e"/>
      <use x="1088.332031" xlink:href="#DejaVuSans-2b"/>
      <use x="1172.121094" xlink:href="#DejaVuSans-74"/>
      <use x="1211.330078" xlink:href="#DejaVuSans-61"/>
      <use x="1272.609375" xlink:href="#DejaVuSans-72"/>
      <use x="1313.707031" xlink:href="#DejaVuSans-67"/>
      <use x="1377.183594" xlink:href="#DejaVuSans-65"/>
      <use x="1438.707031" xlink:href="#DejaVuSans-74"/>
      <use x="1477.916016" xlink:href="#DejaVuSans-20"/>
      <use x="1509.703125" xlink:href="#DejaVuSans-70"/>
      <use x="1573.179688" xlink:href="#DejaVuSans-61"/>
      <use x="1634.458984" xlink:href="#DejaVuSans-69"/>
      <use x="1662.242188" xlink:href="#DejaVuSans-72"/>
      <use x="1703.355469" xlink:href="#DejaVuSans-73"/>
     </g>
    </g>
   </g>
   <g id="line2d_41">
    <defs>
     <path d="M 0 1.5 
C 0.397805 1.5 0.77937 1.341951 1.06066 1.06066 
C 1.341951 0.77937 1.5 0.397805 1.5 0 
C 1.5 -0.397805 1.341951 -0.77937 1.06066 -1.06066 
C 0.77937 -1.341951 0.397805 -1.5 0 -1.5 
C -0.397805 -1.5 -0.77937 -1.341951 -1.06066 -1.06066 
C -1.341951 -0.77937 -1.5 -0.397805 -1.5 0 
C -1.5 0.397805 -1.341951 0.77937 -1.06066 1.06066 
C -0.77937 1.341951 -0.397805 1.5 0 1.5 
z
" id="m1110b594f3" style="stroke:#00bfbf;"/>
    </defs>
    <g>
     <use style="fill:#00bfbf;stroke:#00bfbf;" x="243.274696" xlink:href="#m1110b594f3" y="34.768147"/>
     <use style="fill:#00bfbf;stroke:#00bfbf;" x="243.274696" xlink:href="#m1110b594f3" y="34.768147"/>
    </g>
   </g>
   <g id="line2d_42">
    <path d="M 58.414766 298.245375 
L 58.414766 292.562533 
L 78.044898 292.562533 
L 78.044898 288.429557 
L 83.185234 288.429557 
L 83.185234 287.912935 
L 90.430132 287.912935 
L 90.430132 287.396313 
L 93.184514 287.396313 
L 93.184514 285.846447 
L 97.675029 285.846447 
L 97.675029 284.296581 
L 99.557623 284.296581 
L 99.557623 281.713471 
L 101.260636 281.713471 
L 101.260636 280.163604 
L 104.245578 280.163604 
L 104.245578 278.097116 
L 106.802521 278.097116 
L 106.802521 277.063872 
L 110.060263 277.063872 
L 110.060263 276.54725 
L 113.64587 276.54725 
L 113.64587 276.030628 
L 114.44014 276.030628 
L 114.44014 274.997384 
L 116.630812 274.997384 
L 116.630812 274.480762 
L 120.340936 274.480762 
L 120.340936 273.96414 
L 121.424184 273.96414 
L 121.424184 273.447518 
L 122.935065 273.447518 
L 122.935065 272.930896 
L 126.031105 272.930896 
L 126.031105 272.414274 
L 126.432652 272.414274 
L 126.432652 271.897652 
L 126.825374 271.897652 
L 126.825374 270.864408 
L 127.954262 270.864408 
L 127.954262 269.831164 
L 129.016046 269.831164 
L 129.016046 267.764676 
L 129.690395 267.764676 
L 129.690395 267.248054 
L 130.340216 267.248054 
L 130.340216 265.181566 
L 131.272677 265.181566 
L 131.272677 264.664944 
L 132.158881 264.664944 
L 132.158881 264.148322 
L 132.726171 264.148322 
L 132.726171 263.115078 
L 133.003201 263.115078 
L 133.003201 260.531968 
L 135.3203 260.531968 
L 135.3203 257.948858 
L 136.260944 257.948858 
L 136.260944 257.432236 
L 138.817886 257.432236 
L 138.817886 256.915614 
L 139.210608 256.915614 
L 139.210608 256.398992 
L 139.971068 256.398992 
L 139.971068 255.88237 
L 142.565197 255.88237 
L 142.565197 254.849126 
L 145.661236 254.849126 
L 145.661236 254.332504 
L 147.339621 254.332504 
L 147.339621 253.29926 
L 147.462426 253.29926 
L 147.462426 252.782638 
L 147.945378 252.782638 
L 147.945378 252.266016 
L 148.8738 252.266016 
L 148.8738 250.71615 
L 151.595842 250.71615 
L 151.595842 250.199528 
L 152.72473 250.199528 
L 152.72473 249.682906 
L 158.514074 249.682906 
L 158.514074 248.649662 
L 159.225015 248.649662 
L 159.225015 248.13304 
L 167.654747 248.13304 
L 167.654747 247.099796 
L 168.161402 247.099796 
L 168.161402 246.583173 
L 168.503932 246.583173 
L 168.579166 245.033307 
L 168.654085 245.033307 
L 168.728691 244.000063 
L 168.802987 244.000063 
L 168.802987 243.483441 
L 169.169902 243.483441 
L 169.169902 242.966819 
L 169.74173 242.966819 
L 169.84694 241.933575 
L 169.881873 241.933575 
L 169.881873 241.416953 
L 170.431704 241.416953 
L 170.431704 240.900331 
L 171.030692 240.900331 
L 171.128599 239.350465 
L 171.419144 239.350465 
L 171.419144 238.833843 
L 171.767956 238.833843 
L 171.767956 238.317221 
L 172.596326 238.317221 
L 172.596326 237.800599 
L 173.445258 237.800599 
L 173.502345 236.250733 
L 175.004752 236.250733 
L 175.004752 235.734111 
L 175.264845 235.734111 
L 175.264845 235.217489 
L 175.597404 235.217489 
L 175.597404 232.117757 
L 179.044229 232.117757 
L 179.044229 231.601135 
L 179.189922 231.601135 
L 179.189922 231.084513 
L 179.901084 231.084513 
L 179.901084 230.567891 
L 180.177808 230.567891 
L 180.177808 230.051269 
L 180.508168 230.051269 
L 180.585021 227.984781 
L 180.832532 227.984781 
L 180.908004 226.951537 
L 181.076661 226.951537 
L 181.076661 225.918293 
L 181.518781 225.918293 
L 181.555136 223.851805 
L 182.284548 223.851805 
L 182.319378 221.785317 
L 182.544138 221.785317 
L 182.544138 221.268695 
L 183.068961 221.268695 
L 183.068961 219.718829 
L 183.251545 219.718829 
L 183.251545 217.652341 
L 183.627385 217.652341 
L 183.627385 216.619097 
L 185.859058 216.619097 
L 185.859058 216.102475 
L 186.226321 216.102475 
L 186.268216 214.552609 
L 186.490011 214.552609 
L 186.490011 214.035987 
L 186.681848 214.035987 
L 186.695472 213.002743 
L 186.965797 213.002743 
L 186.965797 212.48612 
L 187.13934 212.48612 
L 187.13934 211.969498 
L 187.311214 211.969498 
L 187.311214 210.419632 
L 187.62424 210.419632 
L 187.62424 209.386388 
L 187.804337 209.386388 
L 187.804337 208.869766 
L 188.196781 208.869766 
L 188.196781 207.836522 
L 188.872521 207.836522 
L 188.872521 206.803278 
L 189.147696 206.803278 
L 189.147696 206.286656 
L 191.049276 206.286656 
L 191.113205 205.253412 
L 191.293105 205.253412 
L 191.293105 204.220168 
L 191.439909 204.220168 
L 191.439909 203.703546 
L 191.657879 203.703546 
L 191.657879 203.186924 
L 191.791492 203.186924 
L 191.791492 202.670302 
L 191.924114 202.670302 
L 191.924114 200.603814 
L 192.035568 200.603814 
L 192.035568 200.087192 
L 192.18644 200.087192 
L 192.18644 199.57057 
L 192.612009 199.57057 
L 192.612009 196.98746 
L 192.738699 196.98746 
L 192.738699 195.437594 
L 193.03723 195.437594 
L 193.141973 193.371106 
L 193.236664 193.371106 
L 193.236664 192.854484 
L 193.359016 192.854484 
L 193.359016 191.304618 
L 195.074816 191.304618 
L 195.074816 190.787996 
L 195.19371 190.787996 
L 195.19371 190.271374 
L 195.512493 190.271374 
L 195.587168 186.138398 
L 195.80116 186.138398 
L 195.899068 185.105154 
L 196.149541 185.105154 
L 196.149541 184.07191 
L 196.499128 184.07191 
L 196.585467 182.005422 
L 196.926708 182.005422 
L 196.926708 180.972178 
L 198.028925 180.972178 
L 198.028925 180.455556 
L 198.194272 180.455556 
L 198.294174 177.355823 
L 198.414737 177.355823 
L 198.414737 176.322579 
L 198.562553 176.322579 
L 198.562553 175.805957 
L 198.702203 175.805957 
L 198.806229 174.772713 
L 198.889016 174.772713 
L 198.889016 173.739469 
L 199.087515 173.739469 
L 199.101123 172.189603 
L 199.471355 172.189603 
L 199.471355 171.672981 
L 199.623934 171.672981 
L 199.623934 171.156359 
L 199.762115 171.156359 
L 199.762115 170.639737 
L 200.849218 170.639737 
L 200.935359 169.089871 
L 201.142847 169.089871 
L 201.167099 167.540005 
L 201.287871 167.540005 
L 201.377917 165.473517 
L 201.449629 165.473517 
L 201.449629 164.956895 
L 201.621753 164.956895 
L 201.710136 163.923651 
L 201.955309 163.923651 
L 201.955309 163.407029 
L 202.088158 163.407029 
L 202.088158 161.857163 
L 203.160231 161.857163 
L 203.160231 161.340541 
L 203.348914 161.340541 
L 203.418492 160.307297 
L 203.546236 160.307297 
L 203.615051 159.274053 
L 203.688865 159.274053 
L 203.688865 158.757431 
L 203.840801 158.757431 
L 203.840801 158.240809 
L 204.079184 158.240809 
L 204.135721 156.690943 
L 204.253359 156.690943 
L 204.253359 155.141077 
L 205.206286 155.141077 
L 205.273822 154.107833 
L 205.355489 154.107833 
L 205.436784 152.557967 
L 205.498702 152.557967 
L 205.498702 152.041345 
L 205.612451 152.041345 
L 205.678473 151.008101 
L 205.8238 151.008101 
L 205.884393 149.974857 
L 206.028062 149.974857 
L 206.078765 148.941613 
L 206.184317 148.941613 
L 206.184317 147.908369 
L 206.95888 147.908369 
L 207.041937 146.875125 
L 207.176627 146.875125 
L 207.176627 146.358503 
L 207.408852 146.358503 
L 207.468568 143.25877 
L 207.831086 143.25877 
L 207.872766 142.225526 
L 208.761991 142.225526 
L 208.844979 141.192282 
L 208.89616 141.192282 
L 208.947195 139.125794 
L 209.095544 139.125794 
L 209.095544 138.609172 
L 209.21566 138.609172 
L 209.21566 138.09255 
L 209.384772 138.09255 
L 209.464924 134.992818 
L 209.514362 134.992818 
L 209.514362 133.442952 
L 210.229033 133.442952 
L 210.269125 132.409708 
L 210.403322 132.409708 
L 210.450234 130.34322 
L 210.536519 130.34322 
L 210.58666 128.276732 
L 210.697189 128.276732 
L 210.697189 127.243488 
L 210.852903 127.243488 
L 210.852903 126.726866 
L 210.972305 126.726866 
L 211.045657 125.177 
L 211.631999 125.177 
L 211.679162 123.627134 
L 211.793186 123.627134 
L 211.873237 122.59389 
L 211.923088 122.59389 
L 211.962869 121.560646 
L 212.2454 121.560646 
L 212.32021 118.460914 
L 212.860498 118.460914 
L 212.860498 117.944292 
L 213.095135 117.944292 
L 213.203587 114.84456 
L 213.335932 114.84456 
L 213.375752 113.811316 
L 213.470349 113.811316 
L 213.503795 112.26145 
L 213.636959 112.26145 
L 213.636959 111.744828 
L 214.297008 111.744828 
L 214.398425 109.678339 
L 214.433064 109.678339 
L 214.522239 108.128473 
L 214.559503 108.128473 
L 214.559503 107.611851 
L 214.744667 107.611851 
L 214.744667 106.061985 
L 215.423108 106.061985 
L 215.447647 105.028741 
L 215.782346 105.028741 
L 215.843744 101.412387 
L 216.428347 101.412387 
L 216.428347 100.895765 
L 216.572197 100.895765 
L 216.681873 99.862521 
L 216.879117 99.862521 
L 216.931851 97.796033 
L 217.472714 97.796033 
L 217.567338 95.212923 
L 217.857766 95.212923 
L 217.907694 94.179679 
L 218.255663 94.179679 
L 218.341606 93.146435 
L 218.450185 93.146435 
L 218.509968 91.079947 
L 218.603836 91.079947 
L 218.708568 88.496837 
L 218.733522 88.496837 
L 218.733522 86.946971 
L 219.667597 86.946971 
L 219.667597 86.430349 
L 220.203797 86.430349 
L 220.203797 85.397105 
L 220.460837 85.397105 
L 220.551163 82.813995 
L 220.897931 82.813995 
L 220.926025 80.230885 
L 221.020021 80.230885 
L 221.071807 79.197641 
L 221.157125 79.197641 
L 221.157125 78.164397 
L 221.310855 78.164397 
L 221.310855 77.647775 
L 221.683728 77.647775 
L 221.683728 77.131153 
L 221.800582 77.131153 
L 221.850158 76.097908 
L 221.931847 76.097908 
L 222.015052 75.064664 
L 222.436419 75.064664 
L 222.500795 72.998176 
L 222.568599 72.998176 
L 222.674371 71.44831 
L 222.815636 71.44831 
L 222.815636 70.931688 
L 223.243422 70.931688 
L 223.266304 69.898444 
L 223.483101 69.898444 
L 223.523026 68.348578 
L 223.852877 68.348578 
L 223.956411 67.315334 
L 224.072805 67.315334 
L 224.072805 66.798712 
L 224.203475 66.798712 
L 224.203475 66.28209 
L 224.521109 66.28209 
L 224.606172 65.248846 
L 224.659945 65.248846 
L 224.659945 64.732224 
L 225.165249 64.732224 
L 225.261471 63.69898 
L 225.390008 63.69898 
L 225.455488 62.665736 
L 225.803769 62.665736 
L 225.879914 61.11587 
L 225.916348 61.11587 
L 225.916348 60.599248 
L 226.050815 60.599248 
L 226.050815 60.082626 
L 226.578785 60.082626 
L 226.673522 59.049382 
L 227.07171 59.049382 
L 227.07171 58.53276 
L 227.216128 58.53276 
L 227.245717 57.499516 
L 227.551401 57.499516 
L 227.598393 56.466272 
L 227.771471 56.466272 
L 227.771471 55.94965 
L 228.096577 55.94965 
L 228.147514 54.916406 
L 228.210314 54.916406 
L 228.210314 54.399784 
L 228.607356 54.399784 
L 228.669864 52.849918 
L 228.776145 52.849918 
L 228.832914 51.816674 
L 229.198844 51.816674 
L 229.198844 51.300052 
L 229.383409 51.300052 
L 229.383409 50.78343 
L 229.680702 50.78343 
L 229.680702 49.750186 
L 230.682759 49.750186 
L 230.730316 48.20032 
L 231.252008 48.20032 
L 231.252008 47.683698 
L 231.531081 47.683698 
L 231.572016 46.133832 
L 231.964401 46.133832 
L 231.964401 45.61721 
L 232.413837 45.61721 
L 232.413837 44.583966 
L 232.563959 44.583966 
L 232.577544 43.550722 
L 233.23792 43.550722 
L 233.23792 43.0341 
L 233.636134 43.0341 
L 233.682347 42.000855 
L 233.766598 42.000855 
L 233.766598 41.484233 
L 234.195361 41.484233 
L 234.195361 40.967611 
L 234.492492 40.967611 
L 234.492492 40.450989 
L 234.823495 40.450989 
L 234.892454 39.417745 
L 235.512032 39.417745 
L 235.621609 38.384501 
L 235.863121 38.384501 
L 235.863121 37.867879 
L 237.221652 37.867879 
L 237.232926 36.834635 
L 237.542573 36.834635 
L 237.542573 36.318013 
L 239.294859 36.318013 
L 239.294859 35.801391 
L 240.528732 35.801391 
L 240.528732 35.284769 
L 243.274696 35.284769 
L 243.274696 34.768147 
L 358.8 34.768147 
L 358.8 34.768147 
" style="fill:none;stroke:#00bfbf;stroke-linecap:square;stroke-width:1.5;"/>
   </g>
   <g id="line2d_43">
    <defs>
     <path d="M -6 0 
L 6 0 
M 0 6 
L 0 -6 
" id="m34e0ce3c27" style="stroke:#00bfbf;stroke-width:1.5;"/>
    </defs>
    <g>
     <use style="fill:none;stroke:#00bfbf;stroke-width:1.5;" x="145.661236" xlink:href="#m34e0ce3c27" y="254.332504"/>
     <use style="fill:none;stroke:#00bfbf;stroke-width:1.5;" x="189.147696" xlink:href="#m34e0ce3c27" y="206.286656"/>
     <use style="fill:none;stroke:#00bfbf;stroke-width:1.5;" x="213.470349" xlink:href="#m34e0ce3c27" y="113.811316"/>
     <use style="fill:none;stroke:#00bfbf;stroke-width:1.5;" x="243.274696" xlink:href="#m34e0ce3c27" y="34.768147"/>
     <use style="fill:none;stroke:#00bfbf;stroke-width:1.5;" x="243.274696" xlink:href="#m34e0ce3c27" y="34.768147"/>
     <use style="fill:none;stroke:#00bfbf;stroke-width:1.5;" x="358.8" xlink:href="#m34e0ce3c27" y="34.768147"/>
    </g>
   </g>
   <g id="line2d_44"/>
   <g id="line2d_45">
    <path clip-path="url(#paf0696b60a)" d="M 165.470948 248.13304 
" style="fill:none;stroke:#00bfbf;stroke-linecap:square;stroke-width:1.5;"/>
    <defs>
     <path d="M -12 12 
L 12 -12 
M -12 -12 
L 12 12 
" id="m2aa213fdea" style="stroke:#00bfbf;stroke-width:3;"/>
    </defs>
    <g clip-path="url(#paf0696b60a)">
     <use style="fill:#00bfbf;stroke:#00bfbf;stroke-width:3;" x="165.470948" xlink:href="#m2aa213fdea" y="248.13304"/>
    </g>
   </g>
   <g id="line2d_46">
    <defs>
     <path d="M 0 1.5 
C 0.397805 1.5 0.77937 1.341951 1.06066 1.06066 
C 1.341951 0.77937 1.5 0.397805 1.5 0 
C 1.5 -0.397805 1.341951 -0.77937 1.06066 -1.06066 
C 0.77937 -1.341951 0.397805 -1.5 0 -1.5 
C -0.397805 -1.5 -0.77937 -1.341951 -1.06066 -1.06066 
C -1.341951 -0.77937 -1.5 -0.397805 -1.5 0 
C -1.5 0.397805 -1.341951 0.77937 -1.06066 1.06066 
C -0.77937 1.341951 -0.397805 1.5 0 1.5 
z
" id="m9aa2f14e06" style="stroke:#008000;"/>
    </defs>
    <g>
     <use style="fill:#008000;stroke:#008000;" x="253.782184" xlink:href="#m9aa2f14e06" y="34.768147"/>
     <use style="fill:#008000;stroke:#008000;" x="253.782184" xlink:href="#m9aa2f14e06" y="34.768147"/>
    </g>
   </g>
   <g id="line2d_47">
    <path d="M 51.169868 298.245375 
L 51.169868 297.728753 
L 70.8 297.728753 
L 70.8 296.695509 
L 75.940337 296.695509 
L 75.940337 296.178887 
L 94.015739 296.178887 
L 94.015739 293.595777 
L 99.557623 293.595777 
L 99.557623 291.529289 
L 100.710805 291.529289 
L 100.710805 290.496045 
L 103.781445 290.496045 
L 103.781445 289.462801 
L 107.195242 289.462801 
L 107.195242 288.946179 
L 110.060263 288.946179 
L 110.060263 287.912935 
L 111.942857 287.912935 
L 111.942857 286.879691 
L 114.179287 286.879691 
L 114.179287 285.329825 
L 115.690168 285.329825 
L 115.690168 284.813203 
L 116.166679 284.813203 
L 116.166679 284.296581 
L 119.187755 284.296581 
L 119.187755 283.779959 
L 121.070349 283.779959 
L 121.070349 283.263337 
L 122.445497 283.263337 
L 122.445497 282.230093 
L 124.623439 282.230093 
L 124.623439 279.646982 
L 125.19988 279.646982 
L 125.19988 279.13036 
L 125.481273 279.13036 
L 125.481273 278.613738 
L 126.564521 278.613738 
L 126.564521 277.580494 
L 128.075402 277.580494 
L 128.075402 276.54725 
L 129.243669 276.54725 
L 129.243669 276.030628 
L 130.340216 276.030628 
L 130.340216 275.514006 
L 130.760662 275.514006 
L 130.760662 274.997384 
L 131.572989 274.997384 
L 131.572989 274.480762 
L 132.539068 274.480762 
L 132.539068 273.96414 
L 134.664515 273.96414 
L 134.664515 272.930896 
L 137.154536 272.930896 
L 137.154536 271.897652 
L 138.551193 271.897652 
L 138.551193 271.38103 
L 139.594883 271.38103 
L 139.594883 270.864408 
L 141.40128 270.864408 
L 141.40128 270.347786 
L 141.741636 270.347786 
L 141.741636 269.314542 
L 142.185587 269.314542 
L 142.185587 268.79792 
L 142.511458 268.79792 
L 142.511458 267.248054 
L 142.831493 267.248054 
L 142.831493 266.731432 
L 143.454862 266.731432 
L 143.454862 262.598456 
L 146.966058 262.598456 
L 146.966058 258.46548 
L 151.724854 258.46548 
L 151.724854 257.948858 
L 152.043367 257.948858 
L 152.043367 255.88237 
L 154.294647 255.88237 
L 154.294647 254.849126 
L 155.634714 254.849126 
L 155.7377 252.782638 
L 156.043145 252.782638 
L 156.043145 251.749394 
L 158.623627 251.749394 
L 158.623627 250.71615 
L 159.055245 250.71615 
L 159.055245 250.199528 
L 173.681925 250.199528 
L 173.681925 249.682906 
L 173.887631 249.682906 
L 173.887631 248.649662 
L 174.364631 248.649662 
L 174.418859 247.616418 
L 174.864471 247.616418 
L 174.899645 246.583173 
L 175.004752 246.583173 
L 175.004752 245.549929 
L 175.247623 245.549929 
L 175.350708 244.000063 
L 175.572041 244.000063 
L 175.622731 242.966819 
L 175.740451 242.966819 
L 175.790665 241.933575 
L 175.890674 241.933575 
L 175.890674 239.350465 
L 176.511384 239.350465 
L 176.511384 238.317221 
L 176.923987 238.317221 
L 176.923987 237.800599 
L 177.080178 237.800599 
L 177.080178 235.734111 
L 177.52556 235.734111 
L 177.601241 234.184245 
L 178.15153 234.184245 
L 178.15153 233.667623 
L 178.528325 233.667623 
L 178.556983 232.117757 
L 178.642681 232.117757 
L 178.642681 231.601135 
L 179.545654 231.601135 
L 179.545654 231.084513 
L 185.916054 231.084513 
L 185.916054 230.567891 
L 186.226321 230.567891 
L 186.282159 228.501403 
L 186.411773 228.501403 
L 186.411773 227.984781 
L 186.613571 227.984781 
L 186.677304 226.434915 
L 186.758915 226.434915 
L 186.758915 222.818561 
L 187.099441 222.818561 
L 187.099441 220.752073 
L 187.416166 220.752073 
L 187.416166 220.235451 
L 187.667285 220.235451 
L 187.710227 218.685585 
L 188.02483 218.685585 
L 188.02483 218.168963 
L 188.259279 218.168963 
L 188.30912 217.135719 
L 188.383622 217.135719 
L 188.383622 216.619097 
L 188.548079 216.619097 
L 188.548079 215.585853 
L 188.759635 215.585853 
L 188.759635 215.069231 
L 192.880562 215.069231 
L 192.880562 214.035987 
L 193.103956 214.035987 
L 193.141973 212.48612 
L 193.230367 212.48612 
L 193.230367 210.936254 
L 193.412089 210.936254 
L 193.468111 208.869766 
L 193.702734 208.869766 
L 193.702734 206.803278 
L 194.127031 206.803278 
L 194.127031 205.253412 
L 194.512198 205.253412 
L 194.599916 203.186924 
L 194.716208 203.186924 
L 194.716208 202.670302 
L 198.08661 202.670302 
L 198.08661 201.637058 
L 198.277562 201.637058 
L 198.334452 198.537326 
L 198.513417 198.537326 
L 198.513417 194.920972 
L 198.634842 194.920972 
L 198.634842 193.887728 
L 198.83847 193.887728 
L 198.83847 192.854484 
L 199.012481 192.854484 
L 199.012481 192.337862 
L 199.126045 192.337862 
L 199.202859 189.754752 
L 199.292807 189.754752 
L 199.292807 189.23813 
L 199.453581 189.23813 
L 199.453581 188.721508 
L 201.955309 188.721508 
L 202.009337 187.688264 
L 202.082402 187.688264 
L 202.155169 183.555288 
L 202.29982 183.555288 
L 202.29982 180.972178 
L 202.435786 180.972178 
L 202.544567 179.938934 
L 202.563255 179.938934 
L 202.563255 178.90569 
L 202.700947 178.90569 
L 202.797072 177.872445 
L 202.826545 177.872445 
L 202.826545 177.355823 
L 203.064229 177.355823 
L 203.064229 176.322579 
L 205.133642 176.322579 
L 205.178877 174.256091 
L 205.272217 174.256091 
L 205.301086 170.639737 
L 205.422464 170.639737 
L 205.422464 169.606493 
L 205.643921 169.606493 
L 205.643921 166.506761 
L 205.759876 166.506761 
L 205.847129 165.473517 
L 206.035754 165.473517 
L 206.035754 164.956895 
L 207.86999 164.956895 
L 207.975162 162.890407 
L 208.079718 162.890407 
L 208.079718 160.823919 
L 208.373582 160.823919 
L 208.446299 158.757431 
L 208.486569 158.757431 
L 208.486569 158.240809 
L 210.154687 158.240809 
L 210.154687 157.724187 
L 210.392479 157.724187 
L 210.455039 156.174321 
L 210.560413 156.174321 
L 210.650921 154.107833 
L 210.710217 154.107833 
L 210.72915 152.557967 
L 212.228008 152.557967 
L 212.338593 151.008101 
L 212.358038 151.008101 
L 212.439903 147.391747 
L 212.579072 147.391747 
L 212.589732 146.358503 
L 212.727743 146.358503 
L 212.801618 144.808637 
L 214.101247 144.808637 
L 214.202804 139.642416 
L 214.276655 139.642416 
L 214.276655 137.059306 
L 214.402277 137.059306 
L 214.48298 135.50944 
L 214.532757 135.50944 
L 214.603356 133.959574 
L 214.6528 133.959574 
L 214.67178 132.92633 
L 215.782346 132.92633 
L 215.874808 129.826598 
L 215.942074 129.826598 
L 215.942074 128.276732 
L 216.065328 128.276732 
L 216.131882 125.693622 
L 216.205155 125.693622 
L 216.302387 124.660378 
L 217.403655 124.660378 
L 217.507549 120.527402 
L 217.523728 120.527402 
L 217.523728 120.01078 
L 217.679909 120.01078 
L 217.683115 118.460914 
L 218.79839 118.460914 
L 218.869024 114.84456 
L 218.973709 114.84456 
L 219.067403 113.294694 
L 219.092602 113.294694 
L 219.175359 111.744828 
L 220.104696 111.744828 
L 220.117289 109.678339 
L 220.354876 109.678339 
L 220.441618 108.128473 
L 221.255166 108.128473 
L 221.333736 106.061985 
L 221.383319 106.061985 
L 221.474297 103.995497 
L 221.558364 103.995497 
L 221.577708 102.962253 
L 222.398912 102.962253 
L 222.472621 99.862521 
L 222.519146 99.862521 
L 222.604534 96.762789 
L 222.725814 96.762789 
L 222.757213 95.729545 
L 223.499314 95.729545 
L 223.543244 94.179679 
L 223.667512 94.179679 
L 223.748739 91.596569 
L 224.543505 91.596569 
L 224.594745 88.496837 
L 224.665368 88.496837 
L 224.665368 87.463593 
L 225.509354 87.463593 
L 225.575429 83.847239 
L 225.685356 83.847239 
L 225.687404 82.813995 
L 226.416816 82.813995 
L 226.522678 80.747507 
L 226.584143 80.747507 
L 226.600692 79.197641 
L 227.244778 79.197641 
L 227.349594 77.647775 
L 227.381291 77.647775 
L 227.381291 77.131153 
L 228.104182 77.131153 
L 228.20053 75.064664 
L 228.258268 75.064664 
L 228.321123 74.03142 
L 228.891644 74.03142 
L 228.983849 71.44831 
L 229.037416 71.44831 
L 229.037416 70.931688 
L 229.60314 70.931688 
L 229.645861 67.831956 
L 229.734265 67.831956 
L 229.734265 67.315334 
L 230.399448 67.315334 
L 230.454432 66.28209 
L 230.552978 66.28209 
L 230.552978 65.765468 
L 231.065024 65.765468 
L 231.121023 64.732224 
L 231.722775 64.732224 
L 231.813132 63.182358 
L 231.840731 63.182358 
L 231.860315 62.149114 
L 232.379717 62.149114 
L 232.48153 60.082626 
L 232.499725 60.082626 
L 232.543736 59.049382 
L 233.002483 59.049382 
L 233.028306 58.016138 
L 233.160909 58.016138 
L 233.160909 57.499516 
L 233.598354 57.499516 
L 233.675144 55.94965 
L 233.721583 55.94965 
L 233.740516 54.916406 
L 234.162252 54.916406 
L 234.255057 52.849918 
L 234.318345 52.849918 
L 234.318345 52.333296 
L 234.750262 52.333296 
L 234.750262 51.300052 
L 235.319536 51.300052 
L 235.319536 50.78343 
L 235.82716 50.78343 
L 235.935982 49.233564 
L 236.342209 49.233564 
L 236.438412 48.20032 
L 237.350073 48.20032 
L 237.350073 47.683698 
L 237.803854 47.683698 
L 237.879584 45.100588 
L 238.320277 45.100588 
L 238.320277 44.067344 
L 238.71582 44.067344 
L 238.769085 43.0341 
L 239.601362 43.0341 
L 239.601362 42.517478 
L 240.459424 42.517478 
L 240.459424 42.000855 
L 240.855963 42.000855 
L 240.855963 41.484233 
L 241.218148 41.484233 
L 241.275166 40.450989 
L 241.95915 40.450989 
L 241.974797 38.901123 
L 243.038157 38.901123 
L 243.038157 38.384501 
L 243.364026 38.384501 
L 243.364026 37.867879 
L 243.708727 37.867879 
L 243.777323 36.834635 
L 244.382398 36.834635 
L 244.382398 36.318013 
L 246.515911 36.318013 
L 246.515911 35.801391 
L 247.076506 35.801391 
L 247.076506 35.284769 
L 253.782184 35.284769 
L 253.782184 34.768147 
L 358.8 34.768147 
L 358.8 34.768147 
" style="fill:none;stroke:#008000;stroke-linecap:square;stroke-width:1.5;"/>
   </g>
   <g id="line2d_48">
    <defs>
     <path d="M -0 6 
L 6 -6 
L -6 -6 
z
" id="m4a56a4702f" style="stroke:#008000;stroke-linejoin:miter;stroke-width:1.5;"/>
    </defs>
    <g>
     <use style="fill:none;stroke:#008000;stroke-linejoin:miter;stroke-width:1.5;" x="129.243669" xlink:href="#m4a56a4702f" y="276.54725"/>
     <use style="fill:none;stroke:#008000;stroke-linejoin:miter;stroke-width:1.5;" x="176.511384" xlink:href="#m4a56a4702f" y="238.317221"/>
     <use style="fill:none;stroke:#008000;stroke-linejoin:miter;stroke-width:1.5;" x="217.683115" xlink:href="#m4a56a4702f" y="118.460914"/>
     <use style="fill:none;stroke:#008000;stroke-linejoin:miter;stroke-width:1.5;" x="253.782184" xlink:href="#m4a56a4702f" y="35.284769"/>
     <use style="fill:none;stroke:#008000;stroke-linejoin:miter;stroke-width:1.5;" x="253.782184" xlink:href="#m4a56a4702f" y="34.768147"/>
     <use style="fill:none;stroke:#008000;stroke-linejoin:miter;stroke-width:1.5;" x="358.8" xlink:href="#m4a56a4702f" y="34.768147"/>
    </g>
   </g>
   <g id="line2d_49"/>
   <g id="line2d_50">
    <path clip-path="url(#paf0696b60a)" d="M 172.715846 250.199528 
" style="fill:none;stroke:#008000;stroke-linecap:square;stroke-width:1.5;"/>
    <defs>
     <path d="M -12 12 
L 12 -12 
M -12 -12 
L 12 12 
" id="m49a3beed2a" style="stroke:#008000;stroke-width:3;"/>
    </defs>
    <g clip-path="url(#paf0696b60a)">
     <use style="fill:#008000;stroke:#008000;stroke-width:3;" x="172.715846" xlink:href="#m49a3beed2a" y="250.199528"/>
    </g>
   </g>
   <g id="line2d_51">
    <defs>
     <path d="M 0 1.5 
C 0.397805 1.5 0.77937 1.341951 1.06066 1.06066 
C 1.341951 0.77937 1.5 0.397805 1.5 0 
C 1.5 -0.397805 1.341951 -0.77937 1.06066 -1.06066 
C 0.77937 -1.341951 0.397805 -1.5 0 -1.5 
C -0.397805 -1.5 -0.77937 -1.341951 -1.06066 -1.06066 
C -1.341951 -0.77937 -1.5 -0.397805 -1.5 0 
C -1.5 0.397805 -1.341951 0.77937 -1.06066 1.06066 
C -0.77937 1.341951 -0.397805 1.5 0 1.5 
z
" id="mf772e2dd1d" style="stroke:#0000ff;"/>
    </defs>
    <g>
     <use style="fill:#0000ff;stroke:#0000ff;" x="240.805589" xlink:href="#mf772e2dd1d" y="256.915614"/>
     <use style="fill:#0000ff;stroke:#0000ff;" x="240.805589" xlink:href="#mf772e2dd1d" y="256.915614"/>
    </g>
   </g>
   <g id="line2d_52">
    <path d="M 102.209609 298.245375 
L 102.209609 297.728753 
L 109.247936 297.728753 
L 109.247936 297.212131 
L 110.060263 297.212131 
L 110.060263 295.145643 
L 111.942857 295.145643 
L 111.942857 294.112399 
L 114.900288 294.112399 
L 114.900288 292.562533 
L 117.697882 292.562533 
L 117.697882 292.045911 
L 117.954982 292.045911 
L 117.954982 291.529289 
L 120.340936 291.529289 
L 120.340936 290.496045 
L 121.63317 290.496045 
L 121.63317 289.462801 
L 122.838219 289.462801 
L 122.838219 288.946179 
L 123.598679 288.946179 
L 123.598679 288.429557 
L 124.328091 288.429557 
L 124.328091 287.912935 
L 124.505885 287.912935 
L 124.505885 287.396313 
L 126.353061 287.396313 
L 126.353061 285.329825 
L 128.315246 285.329825 
L 128.315246 284.813203 
L 128.598873 284.813203 
L 128.598873 284.296581 
L 130.593669 284.296581 
L 130.593669 283.779959 
L 133.704001 283.779959 
L 133.704001 283.263337 
L 135.512432 283.263337 
L 135.512432 282.230093 
L 137.414126 282.230093 
L 137.414126 281.713471 
L 138.088474 281.713471 
L 138.088474 281.196849 
L 138.416339 281.196849 
L 138.416339 280.680226 
L 138.976012 280.680226 
L 138.976012 280.163604 
L 140.70048 280.163604 
L 140.70048 279.646982 
L 141.469872 279.646982 
L 141.469872 278.613738 
L 141.538202 278.613738 
L 141.538202 278.097116 
L 142.207498 278.097116 
L 142.207498 277.580494 
L 144.943101 277.580494 
L 144.943101 277.063872 
L 182.239166 277.063872 
L 182.239166 276.54725 
L 182.301972 276.54725 
L 182.301972 276.030628 
L 183.105627 276.030628 
L 183.105627 275.514006 
L 183.38317 275.514006 
L 183.38317 274.997384 
L 183.39628 274.997384 
L 183.39628 274.480762 
L 183.688727 274.480762 
L 183.688727 273.96414 
L 183.976464 273.96414 
L 183.976464 273.447518 
L 194.78793 273.447518 
L 194.78793 272.930896 
L 194.805239 272.930896 
L 194.805239 272.414274 
L 194.84326 272.414274 
L 194.84326 271.897652 
L 194.95684 271.897652 
L 194.95684 271.38103 
L 201.885602 271.38103 
L 201.885602 270.347786 
L 201.962264 270.347786 
L 201.962264 269.314542 
L 201.9808 269.314542 
L 201.9808 268.281298 
L 202.059361 268.281298 
L 202.059361 267.248054 
L 207.074181 267.248054 
L 207.074181 266.731432 
L 207.093326 266.731432 
L 207.093326 265.698188 
L 210.970205 265.698188 
L 210.970205 265.181566 
L 214.154051 265.181566 
L 214.154051 264.664944 
L 214.179809 264.664944 
L 214.179809 264.148322 
L 216.866538 264.148322 
L 216.866538 263.6317 
L 216.877608 263.6317 
L 216.877608 263.115078 
L 219.23071 263.115078 
L 219.23071 262.598456 
L 223.142746 262.598456 
L 223.142746 262.081834 
L 224.857993 262.081834 
L 224.857993 261.565212 
L 226.398717 261.565212 
L 226.398717 261.04859 
L 226.405211 261.04859 
L 226.405211 260.531968 
L 227.817071 260.531968 
L 227.817071 260.015346 
L 227.82307 260.015346 
L 227.82307 258.982102 
L 230.335612 258.982102 
L 230.335612 258.46548 
L 236.331827 258.46548 
L 236.331827 257.948858 
L 237.16259 257.948858 
L 237.16259 257.432236 
L 240.805589 257.432236 
L 240.805589 256.915614 
L 358.8 256.915614 
" style="fill:none;stroke:#0000ff;stroke-linecap:square;stroke-width:1.5;"/>
   </g>
   <g id="line2d_53">
    <defs>
     <path d="M 0 -6 
L -1.347084 -1.854102 
L -5.706339 -1.854102 
L -2.179628 0.708204 
L -3.526712 4.854102 
L -0 2.291796 
L 3.526712 4.854102 
L 2.179628 0.708204 
L 5.706339 -1.854102 
L 1.347084 -1.854102 
z
" id="mcd8f9eaa89" style="stroke:#0000ff;stroke-linejoin:bevel;stroke-width:1.5;"/>
    </defs>
    <g>
     <use style="fill:none;stroke:#0000ff;stroke-linejoin:bevel;stroke-width:1.5;" x="144.943101" xlink:href="#mcd8f9eaa89" y="277.580494"/>
     <use style="fill:none;stroke:#0000ff;stroke-linejoin:bevel;stroke-width:1.5;" x="223.142746" xlink:href="#mcd8f9eaa89" y="262.081834"/>
     <use style="fill:none;stroke:#0000ff;stroke-linejoin:bevel;stroke-width:1.5;" x="240.805589" xlink:href="#mcd8f9eaa89" y="256.915614"/>
     <use style="fill:none;stroke:#0000ff;stroke-linejoin:bevel;stroke-width:1.5;" x="240.805589" xlink:href="#mcd8f9eaa89" y="256.915614"/>
     <use style="fill:none;stroke:#0000ff;stroke-linejoin:bevel;stroke-width:1.5;" x="358.8" xlink:href="#mcd8f9eaa89" y="256.915614"/>
    </g>
   </g>
   <g id="line2d_54"/>
   <g id="line2d_55">
    <path clip-path="url(#paf0696b60a)" d="M 181.843337 277.063872 
" style="fill:none;stroke:#0000ff;stroke-linecap:square;stroke-width:1.5;"/>
    <defs>
     <path d="M -12 12 
L 12 -12 
M -12 -12 
L 12 12 
" id="m735d298368" style="stroke:#0000ff;stroke-width:3;"/>
    </defs>
    <g clip-path="url(#paf0696b60a)">
     <use style="fill:#0000ff;stroke:#0000ff;stroke-width:3;" x="181.843337" xlink:href="#m735d298368" y="277.063872"/>
    </g>
   </g>
   <g id="line2d_56">
    <defs>
     <path d="M 0 1.5 
C 0.397805 1.5 0.77937 1.341951 1.06066 1.06066 
C 1.341951 0.77937 1.5 0.397805 1.5 0 
C 1.5 -0.397805 1.341951 -0.77937 1.06066 -1.06066 
C 0.77937 -1.341951 0.397805 -1.5 0 -1.5 
C -0.397805 -1.5 -0.77937 -1.341951 -1.06066 -1.06066 
C -1.341951 -0.77937 -1.5 -0.397805 -1.5 0 
C -1.5 0.397805 -1.341951 0.77937 -1.06066 1.06066 
C -0.77937 1.341951 -0.397805 1.5 0 1.5 
z
" id="mc95b1697d4" style="stroke:#000000;"/>
    </defs>
    <g>
     <use style="stroke:#000000;" x="251.046688" xlink:href="#mc95b1697d4" y="282.746715"/>
     <use style="stroke:#000000;" x="251.046688" xlink:href="#mc95b1697d4" y="282.746715"/>
    </g>
   </g>
   <g id="line2d_57">
    <path d="M 113.318006 298.245375 
L 113.318006 297.728753 
L 124.058039 297.728753 
L 124.058039 297.212131 
L 127.285522 297.212131 
L 127.285522 296.695509 
L 131.868336 296.695509 
L 131.868336 295.662265 
L 133.058096 295.662265 
L 133.058096 295.145643 
L 133.651059 295.145643 
L 133.651059 294.112399 
L 134.327371 294.112399 
L 134.327371 293.595777 
L 134.479874 293.595777 
L 134.479874 292.562533 
L 134.929724 292.562533 
L 134.929724 291.529289 
L 136.076735 291.529289 
L 136.076735 291.012667 
L 194.648851 291.012667 
L 194.648851 290.496045 
L 194.760201 290.496045 
L 194.760201 289.979423 
L 194.905302 289.979423 
L 194.905302 289.462801 
L 194.910463 289.462801 
L 194.910463 288.946179 
L 206.997397 288.946179 
L 206.997397 287.912935 
L 214.088904 287.912935 
L 214.088904 287.396313 
L 214.118866 287.396313 
L 214.118866 286.879691 
L 219.191865 286.879691 
L 219.191865 286.363069 
L 219.194516 286.363069 
L 219.194516 285.329825 
L 219.235119 285.329825 
L 219.235119 284.813203 
L 226.372718 284.813203 
L 226.372718 284.296581 
L 233.575977 284.296581 
L 233.575977 283.779959 
L 240.118936 283.779959 
L 240.118936 283.263337 
L 251.046688 283.263337 
L 251.046688 282.746715 
L 358.8 282.746715 
" style="fill:none;stroke:#000000;stroke-linecap:square;stroke-width:1.5;"/>
   </g>
   <g id="line2d_58">
    <defs>
     <path d="M 0 6 
C 1.591219 6 3.117479 5.367802 4.242641 4.242641 
C 5.367802 3.117479 6 1.591219 6 0 
C 6 -1.591219 5.367802 -3.117479 4.242641 -4.242641 
C 3.117479 -5.367802 1.591219 -6 0 -6 
C -1.591219 -6 -3.117479 -5.367802 -4.242641 -4.242641 
C -5.367802 -3.117479 -6 -1.591219 -6 0 
C -6 1.591219 -5.367802 3.117479 -4.242641 4.242641 
C -3.117479 5.367802 -1.591219 6 0 6 
z
" id="m4d60f24216" style="stroke:#000000;stroke-width:1.5;"/>
    </defs>
    <g>
     <use style="fill:none;stroke:#000000;stroke-width:1.5;" x="136.076735" xlink:href="#m4d60f24216" y="291.529289"/>
     <use style="fill:none;stroke:#000000;stroke-width:1.5;" x="226.372718" xlink:href="#m4d60f24216" y="284.813203"/>
     <use style="fill:none;stroke:#000000;stroke-width:1.5;" x="251.046688" xlink:href="#m4d60f24216" y="282.746715"/>
     <use style="fill:none;stroke:#000000;stroke-width:1.5;" x="251.046688" xlink:href="#m4d60f24216" y="282.746715"/>
     <use style="fill:none;stroke:#000000;stroke-width:1.5;" x="358.8" xlink:href="#m4d60f24216" y="282.746715"/>
    </g>
   </g>
   <g id="line2d_59"/>
   <g id="line2d_60">
    <path clip-path="url(#paf0696b60a)" d="M 194.228571 291.012667 
" style="fill:none;stroke:#000000;stroke-linecap:square;stroke-width:1.5;"/>
    <defs>
     <path d="M -12 12 
L 12 -12 
M -12 -12 
L 12 12 
" id="m613cf76e76" style="stroke:#000000;stroke-width:3;"/>
    </defs>
    <g clip-path="url(#paf0696b60a)">
     <use style="stroke:#000000;stroke-width:3;" x="194.228571" xlink:href="#m613cf76e76" y="291.012667"/>
    </g>
   </g>
   <g id="line2d_61">
    <defs>
     <path d="M 0 1.5 
C 0.397805 1.5 0.77937 1.341951 1.06066 1.06066 
C 1.341951 0.77937 1.5 0.397805 1.5 0 
C 1.5 -0.397805 1.341951 -0.77937 1.06066 -1.06066 
C 0.77937 -1.341951 0.397805 -1.5 0 -1.5 
C -0.397805 -1.5 -0.77937 -1.341951 -1.06066 -1.06066 
C -1.341951 -0.77937 -1.5 -0.397805 -1.5 0 
C -1.5 0.397805 -1.341951 0.77937 -1.06066 1.06066 
C -0.77937 1.341951 -0.397805 1.5 0 1.5 
z
" id="m065a9531ea" style="stroke:#ff0000;"/>
    </defs>
    <g>
     <use style="fill:#ff0000;stroke:#ff0000;" x="277.896307" xlink:href="#m065a9531ea" y="293.079155"/>
     <use style="fill:#ff0000;stroke:#ff0000;" x="277.896307" xlink:href="#m065a9531ea" y="293.079155"/>
    </g>
   </g>
   <g id="line2d_62">
    <path d="M 206.981212 298.245375 
L 206.981212 297.728753 
L 226.367247 297.728753 
L 226.367247 297.212131 
L 243.815849 297.212131 
L 243.815849 296.695509 
L 247.793745 296.695509 
L 247.793745 296.178887 
L 253.795283 296.178887 
L 253.795283 295.145643 
L 257.259812 295.145643 
L 257.259812 294.629021 
L 264.143894 294.629021 
L 264.143894 294.112399 
L 271.144135 294.112399 
L 271.144135 293.595777 
L 277.896307 293.595777 
L 277.896307 293.079155 
L 358.8 293.079155 
" style="fill:none;stroke:#ff0000;stroke-linecap:square;stroke-width:1.5;"/>
   </g>
   <g id="line2d_63">
    <defs>
     <path d="M -6 6 
L 6 6 
L 6 -6 
L -6 -6 
z
" id="m7de3ee496e" style="stroke:#ff0000;stroke-linejoin:miter;stroke-width:1.5;"/>
    </defs>
    <g>
     <use style="fill:none;stroke:#ff0000;stroke-linejoin:miter;stroke-width:1.5;" x="271.144135" xlink:href="#m7de3ee496e" y="293.595777"/>
     <use style="fill:none;stroke:#ff0000;stroke-linejoin:miter;stroke-width:1.5;" x="277.896307" xlink:href="#m7de3ee496e" y="293.079155"/>
     <use style="fill:none;stroke:#ff0000;stroke-linejoin:miter;stroke-width:1.5;" x="277.896307" xlink:href="#m7de3ee496e" y="293.079155"/>
     <use style="fill:none;stroke:#ff0000;stroke-linejoin:miter;stroke-width:1.5;" x="358.8" xlink:href="#m7de3ee496e" y="293.079155"/>
    </g>
   </g>
   <g id="line2d_64"/>
   <g id="line2d_65">
    <path clip-path="url(#paf0696b60a)" d="M 206.613806 298.245375 
" style="fill:none;stroke:#ff0000;stroke-linecap:square;stroke-width:1.5;"/>
    <defs>
     <path d="M -12 12 
L 12 -12 
M -12 -12 
L 12 12 
" id="m24aba958e8" style="stroke:#ff0000;stroke-width:3;"/>
    </defs>
    <g clip-path="url(#paf0696b60a)">
     <use style="fill:#ff0000;stroke:#ff0000;stroke-width:3;" x="206.613806" xlink:href="#m24aba958e8" y="298.245375"/>
    </g>
   </g>
   <g id="line2d_66">
    <path clip-path="url(#paf0696b60a)" d="M 70.8 298.245375 
L 70.8 298.245375 
L 70.8 298.245375 
L 70.8 298.245375 
L 427.92 298.245375 
" style="fill:none;stroke:#bf00bf;stroke-linecap:square;stroke-width:1.5;"/>
   </g>
   <g id="line2d_67">
    <defs>
     <path d="M -0 8.485281 
L 8.485281 0 
L 0 -8.485281 
L -8.485281 -0 
z
" id="m6c18528c1d" style="stroke:#bf00bf;stroke-linejoin:miter;stroke-width:1.5;"/>
    </defs>
    <g clip-path="url(#paf0696b60a)">
     <use style="fill:none;stroke:#bf00bf;stroke-linejoin:miter;stroke-width:1.5;" x="70.8" xlink:href="#m6c18528c1d" y="298.245375"/>
     <use style="fill:none;stroke:#bf00bf;stroke-linejoin:miter;stroke-width:1.5;" x="70.8" xlink:href="#m6c18528c1d" y="298.245375"/>
     <use style="fill:none;stroke:#bf00bf;stroke-linejoin:miter;stroke-width:1.5;" x="111.942857" xlink:href="#m6c18528c1d" y="298.245375"/>
     <use style="fill:none;stroke:#bf00bf;stroke-linejoin:miter;stroke-width:1.5;" x="153.085714" xlink:href="#m6c18528c1d" y="298.245375"/>
     <use style="fill:none;stroke:#bf00bf;stroke-linejoin:miter;stroke-width:1.5;" x="194.228571" xlink:href="#m6c18528c1d" y="298.245375"/>
     <use style="fill:none;stroke:#bf00bf;stroke-linejoin:miter;stroke-width:1.5;" x="235.371429" xlink:href="#m6c18528c1d" y="298.245375"/>
     <use style="fill:none;stroke:#bf00bf;stroke-linejoin:miter;stroke-width:1.5;" x="276.514286" xlink:href="#m6c18528c1d" y="298.245375"/>
     <use style="fill:none;stroke:#bf00bf;stroke-linejoin:miter;stroke-width:1.5;" x="317.657143" xlink:href="#m6c18528c1d" y="298.245375"/>
     <use style="fill:none;stroke:#bf00bf;stroke-linejoin:miter;stroke-width:1.5;" x="358.8" xlink:href="#m6c18528c1d" y="298.245375"/>
     <use style="fill:none;stroke:#bf00bf;stroke-linejoin:miter;stroke-width:1.5;" x="399.942857" xlink:href="#m6c18528c1d" y="298.245375"/>
    </g>
   </g>
   <g id="line2d_68"/>
   <g id="line2d_69">
    <path d="M 358.8 298.245375 
L 390.48 292.97583 
" style="fill:none;stroke:#bf00bf;stroke-linecap:square;stroke-width:1.5;"/>
    <g>
     <use style="fill:none;stroke:#bf00bf;stroke-linejoin:miter;stroke-width:1.5;" x="358.8" xlink:href="#m6c18528c1d" y="298.245375"/>
     <use style="fill:none;stroke:#bf00bf;stroke-linejoin:miter;stroke-width:1.5;" x="390.48" xlink:href="#m6c18528c1d" y="292.97583"/>
    </g>
   </g>
   <g id="line2d_70">
    <path d="M 358.8 293.079155 
L 390.48 242.388203 
" style="fill:none;stroke:#ff0000;stroke-linecap:square;stroke-width:1.5;"/>
    <g>
     <use style="fill:none;stroke:#ff0000;stroke-linejoin:miter;stroke-width:1.5;" x="358.8" xlink:href="#m7de3ee496e" y="293.079155"/>
     <use style="fill:none;stroke:#ff0000;stroke-linejoin:miter;stroke-width:1.5;" x="390.48" xlink:href="#m7de3ee496e" y="242.388203"/>
    </g>
   </g>
   <g id="line2d_71">
    <path d="M 358.8 282.746715 
L 390.48 191.800575 
" style="fill:none;stroke:#000000;stroke-linecap:square;stroke-width:1.5;"/>
    <g>
     <use style="fill:none;stroke:#000000;stroke-width:1.5;" x="358.8" xlink:href="#m4d60f24216" y="282.746715"/>
     <use style="fill:none;stroke:#000000;stroke-width:1.5;" x="390.48" xlink:href="#m4d60f24216" y="191.800575"/>
    </g>
   </g>
   <g id="line2d_72">
    <path d="M 358.8 256.915614 
L 390.48 141.212947 
" style="fill:none;stroke:#0000ff;stroke-linecap:square;stroke-width:1.5;"/>
    <g>
     <use style="fill:none;stroke:#0000ff;stroke-linejoin:bevel;stroke-width:1.5;" x="358.8" xlink:href="#mcd8f9eaa89" y="256.915614"/>
     <use style="fill:none;stroke:#0000ff;stroke-linejoin:bevel;stroke-width:1.5;" x="390.48" xlink:href="#mcd8f9eaa89" y="141.212947"/>
    </g>
   </g>
   <g id="line2d_73">
    <path d="M 358.8 34.768147 
L 390.48 90.62532 
" style="fill:none;stroke:#008000;stroke-linecap:square;stroke-width:1.5;"/>
    <g>
     <use style="fill:none;stroke:#008000;stroke-linejoin:miter;stroke-width:1.5;" x="358.8" xlink:href="#m4a56a4702f" y="34.768147"/>
     <use style="fill:none;stroke:#008000;stroke-linejoin:miter;stroke-width:1.5;" x="390.48" xlink:href="#m4a56a4702f" y="90.62532"/>
    </g>
   </g>
   <g id="line2d_74">
    <path d="M 358.8 34.768147 
L 390.48 40.037692 
" style="fill:none;stroke:#00bfbf;stroke-linecap:square;stroke-width:1.5;"/>
    <g>
     <use style="fill:none;stroke:#00bfbf;stroke-width:1.5;" x="358.8" xlink:href="#m34e0ce3c27" y="34.768147"/>
     <use style="fill:none;stroke:#00bfbf;stroke-width:1.5;" x="390.48" xlink:href="#m34e0ce3c27" y="40.037692"/>
    </g>
   </g>
   <g id="line2d_75">
    <path d="M 358.8 298.245375 
L 358.8 34.768147 
" style="fill:none;stroke:#000000;stroke-linecap:square;stroke-width:1.5;"/>
   </g>
   <g id="patch_3">
    <path d="M 70.8 298.245375 
L 70.8 32.133375 
" style="fill:none;stroke:#000000;stroke-linecap:square;stroke-linejoin:miter;stroke-width:0.8;"/>
   </g>
   <g id="patch_4">
    <path d="M 427.92 298.245375 
L 427.92 32.133375 
" style="fill:none;stroke:#000000;stroke-linecap:square;stroke-linejoin:miter;stroke-width:0.8;"/>
   </g>
   <g id="patch_5">
    <path d="M 70.8 298.245375 
L 427.92 298.245375 
" style="fill:none;stroke:#000000;stroke-linecap:square;stroke-linejoin:miter;stroke-width:0.8;"/>
   </g>
   <g id="patch_6">
    <path d="M 70.8 32.133375 
L 427.92 32.133375 
" style="fill:none;stroke:#000000;stroke-linecap:square;stroke-linejoin:miter;stroke-width:0.8;"/>
   </g>
   <g id="text_14">
    <!-- 40-D -->
    <defs>
     <path d="M 19.671875 64.796875 
L 19.671875 8.109375 
L 31.59375 8.109375 
Q 46.6875 8.109375 53.6875 14.9375 
Q 60.6875 21.78125 60.6875 36.53125 
Q 60.6875 51.171875 53.6875 57.984375 
Q 46.6875 64.796875 31.59375 64.796875 
z
M 9.8125 72.90625 
L 30.078125 72.90625 
Q 51.265625 72.90625 61.171875 64.09375 
Q 71.09375 55.28125 71.09375 36.53125 
Q 71.09375 17.671875 61.125 8.828125 
Q 51.171875 0 30.078125 0 
L 9.8125 0 
z
" id="DejaVuSans-44"/>
    </defs>
    <g transform="translate(396.24 297.114893)scale(0.15 -0.15)">
     <use xlink:href="#DejaVuSans-34"/>
     <use x="63.623047" xlink:href="#DejaVuSans-30"/>
     <use x="127.246094" xlink:href="#DejaVuSans-2d"/>
     <use x="163.330078" xlink:href="#DejaVuSans-44"/>
    </g>
   </g>
   <g id="text_15">
    <!-- 20-D -->
    <g transform="translate(396.24 246.527265)scale(0.15 -0.15)">
     <use xlink:href="#DejaVuSans-32"/>
     <use x="63.623047" xlink:href="#DejaVuSans-30"/>
     <use x="127.246094" xlink:href="#DejaVuSans-2d"/>
     <use x="163.330078" xlink:href="#DejaVuSans-44"/>
    </g>
   </g>
   <g id="text_16">
    <!-- 10-D -->
    <g transform="translate(396.24 195.939637)scale(0.15 -0.15)">
     <use xlink:href="#DejaVuSans-31"/>
     <use x="63.623047" xlink:href="#DejaVuSans-30"/>
     <use x="127.246094" xlink:href="#DejaVuSans-2d"/>
     <use x="163.330078" xlink:href="#DejaVuSans-44"/>
    </g>
   </g>
   <g id="text_17">
    <!-- 5-D -->
    <defs>
     <path d="M 10.796875 72.90625 
L 49.515625 72.90625 
L 49.515625 64.59375 
L 19.828125 64.59375 
L 19.828125 46.734375 
Q 21.96875 47.46875 24.109375 47.828125 
Q 26.265625 48.1875 28.421875 48.1875 
Q 40.625 48.1875 47.75 41.5 
Q 54.890625 34.8125 54.890625 23.390625 
Q 54.890625 11.625 47.5625 5.09375 
Q 40.234375 -1.421875 26.90625 -1.421875 
Q 22.3125 -1.421875 17.546875 -0.640625 
Q 12.796875 0.140625 7.71875 1.703125 
L 7.71875 11.625 
Q 12.109375 9.234375 16.796875 8.0625 
Q 21.484375 6.890625 26.703125 6.890625 
Q 35.15625 6.890625 40.078125 11.328125 
Q 45.015625 15.765625 45.015625 23.390625 
Q 45.015625 31 40.078125 35.4375 
Q 35.15625 39.890625 26.703125 39.890625 
Q 22.75 39.890625 18.8125 39.015625 
Q 14.890625 38.140625 10.796875 36.28125 
z
" id="DejaVuSans-35"/>
    </defs>
    <g transform="translate(396.24 145.35201)scale(0.15 -0.15)">
     <use xlink:href="#DejaVuSans-35"/>
     <use x="63.623047" xlink:href="#DejaVuSans-2d"/>
     <use x="99.707031" xlink:href="#DejaVuSans-44"/>
    </g>
   </g>
   <g id="text_18">
    <!-- 3-D -->
    <defs>
     <path d="M 40.578125 39.3125 
Q 47.65625 37.796875 51.625 33 
Q 55.609375 28.21875 55.609375 21.1875 
Q 55.609375 10.40625 48.1875 4.484375 
Q 40.765625 -1.421875 27.09375 -1.421875 
Q 22.515625 -1.421875 17.65625 -0.515625 
Q 12.796875 0.390625 7.625 2.203125 
L 7.625 11.71875 
Q 11.71875 9.328125 16.59375 8.109375 
Q 21.484375 6.890625 26.8125 6.890625 
Q 36.078125 6.890625 40.9375 10.546875 
Q 45.796875 14.203125 45.796875 21.1875 
Q 45.796875 27.640625 41.28125 31.265625 
Q 36.765625 34.90625 28.71875 34.90625 
L 20.21875 34.90625 
L 20.21875 43.015625 
L 29.109375 43.015625 
Q 36.375 43.015625 40.234375 45.921875 
Q 44.09375 48.828125 44.09375 54.296875 
Q 44.09375 59.90625 40.109375 62.90625 
Q 36.140625 65.921875 28.71875 65.921875 
Q 24.65625 65.921875 20.015625 65.03125 
Q 15.375 64.15625 9.8125 62.3125 
L 9.8125 71.09375 
Q 15.4375 72.65625 20.34375 73.4375 
Q 25.25 74.21875 29.59375 74.21875 
Q 40.828125 74.21875 47.359375 69.109375 
Q 53.90625 64.015625 53.90625 55.328125 
Q 53.90625 49.265625 50.4375 45.09375 
Q 46.96875 40.921875 40.578125 39.3125 
" id="DejaVuSans-33"/>
    </defs>
    <g transform="translate(396.24 94.764382)scale(0.15 -0.15)">
     <use xlink:href="#DejaVuSans-33"/>
     <use x="63.623047" xlink:href="#DejaVuSans-2d"/>
     <use x="99.707031" xlink:href="#DejaVuSans-44"/>
    </g>
   </g>
   <g id="text_19">
    <!-- 2-D -->
    <g transform="translate(396.24 44.176754)scale(0.15 -0.15)">
     <use xlink:href="#DejaVuSans-32"/>
     <use x="63.623047" xlink:href="#DejaVuSans-2d"/>
     <use x="99.707031" xlink:href="#DejaVuSans-44"/>
    </g>
   </g>
   <g id="text_20">
    <!-- bbob - f15 -->
    <defs>
     <path d="M 48.6875 27.296875 
Q 48.6875 37.203125 44.609375 42.84375 
Q 40.53125 48.484375 33.40625 48.484375 
Q 26.265625 48.484375 22.1875 42.84375 
Q 18.109375 37.203125 18.109375 27.296875 
Q 18.109375 17.390625 22.1875 11.75 
Q 26.265625 6.109375 33.40625 6.109375 
Q 40.53125 6.109375 44.609375 11.75 
Q 48.6875 17.390625 48.6875 27.296875 
M 18.109375 46.390625 
Q 20.953125 51.265625 25.265625 53.625 
Q 29.59375 56 35.59375 56 
Q 45.5625 56 51.78125 48.09375 
Q 58.015625 40.1875 58.015625 27.296875 
Q 58.015625 14.40625 51.78125 6.484375 
Q 45.5625 -1.421875 35.59375 -1.421875 
Q 29.59375 -1.421875 25.265625 0.953125 
Q 20.953125 3.328125 18.109375 8.203125 
L 18.109375 0 
L 9.078125 0 
L 9.078125 75.984375 
L 18.109375 75.984375 
z
" id="DejaVuSans-62"/>
    </defs>
    <g transform="translate(74.3712 50.114612)scale(0.1666 -0.1666)">
     <use xlink:href="#DejaVuSans-62"/>
     <use x="63.476562" xlink:href="#DejaVuSans-62"/>
     <use x="126.953125" xlink:href="#DejaVuSans-6f"/>
     <use x="188.134766" xlink:href="#DejaVuSans-62"/>
     <use x="251.611328" xlink:href="#DejaVuSans-20"/>
     <use x="283.398438" xlink:href="#DejaVuSans-2d"/>
     <use x="319.482422" xlink:href="#DejaVuSans-20"/>
     <use x="351.269531" xlink:href="#DejaVuSans-66"/>
     <use x="386.474609" xlink:href="#DejaVuSans-31"/>
     <use x="450.097656" xlink:href="#DejaVuSans-35"/>
    </g>
    <!-- 51 targets in 100..1e-08 -->
    <g transform="translate(74.3712 68.770168)scale(0.1666 -0.1666)">
     <use xlink:href="#DejaVuSans-35"/>
     <use x="63.623047" xlink:href="#DejaVuSans-31"/>
     <use x="127.246094" xlink:href="#DejaVuSans-20"/>
     <use x="159.033203" xlink:href="#DejaVuSans-74"/>
     <use x="198.242188" xlink:href="#DejaVuSans-61"/>
     <use x="259.521484" xlink:href="#DejaVuSans-72"/>
     <use x="300.619141" xlink:href="#DejaVuSans-67"/>
     <use x="364.095703" xlink:href="#DejaVuSans-65"/>
     <use x="425.619141" xlink:href="#DejaVuSans-74"/>
     <use x="464.828125" xlink:href="#DejaVuSans-73"/>
     <use x="516.927734" xlink:href="#DejaVuSans-20"/>
     <use x="548.714844" xlink:href="#DejaVuSans-69"/>
     <use x="576.498047" xlink:href="#DejaVuSans-6e"/>
     <use x="639.876953" xlink:href="#DejaVuSans-20"/>
     <use x="671.664062" xlink:href="#DejaVuSans-31"/>
     <use x="735.287109" xlink:href="#DejaVuSans-30"/>
     <use x="798.910156" xlink:href="#DejaVuSans-30"/>
     <use x="862.533203" xlink:href="#DejaVuSans-2e"/>
     <use x="894.320312" xlink:href="#DejaVuSans-2e"/>
     <use x="926.107422" xlink:href="#DejaVuSans-31"/>
     <use x="989.730469" xlink:href="#DejaVuSans-65"/>
     <use x="1051.253906" xlink:href="#DejaVuSans-2d"/>
     <use x="1087.337891" xlink:href="#DejaVuSans-30"/>
     <use x="1150.960938" xlink:href="#DejaVuSans-38"/>
    </g>
    <!-- 15 instances -->
    <g transform="translate(74.3712 87.425723)scale(0.1666 -0.1666)">
     <use xlink:href="#DejaVuSans-31"/>
     <use x="63.623047" xlink:href="#DejaVuSans-35"/>
     <use x="127.246094" xlink:href="#DejaVuSans-20"/>
     <use x="159.033203" xlink:href="#DejaVuSans-69"/>
     <use x="186.816406" xlink:href="#DejaVuSans-6e"/>
     <use x="250.195312" xlink:href="#DejaVuSans-73"/>
     <use x="302.294922" xlink:href="#DejaVuSans-74"/>
     <use x="341.503906" xlink:href="#DejaVuSans-61"/>
     <use x="402.783203" xlink:href="#DejaVuSans-6e"/>
     <use x="466.162109" xlink:href="#DejaVuSans-63"/>
     <use x="521.142578" xlink:href="#DejaVuSans-65"/>
     <use x="582.666016" xlink:href="#DejaVuSans-73"/>
    </g>
   </g>
   <g id="text_21">
    <!-- v2.1 -->
    <g style="fill:#808080;" transform="translate(238.449063 293.504568)scale(0.1 -0.1)">
     <use xlink:href="#DejaVuSans-76"/>
     <use x="59.179688" xlink:href="#DejaVuSans-32"/>
     <use x="122.802734" xlink:href="#DejaVuSans-2e"/>
     <use x="154.589844" xlink:href="#DejaVuSans-31"/>
    </g>
   </g>
   <g id="text_22">
    <!-- 15 Rastrigin -->
    <defs>
     <path d="M 44.390625 34.1875 
Q 47.5625 33.109375 50.5625 29.59375 
Q 53.5625 26.078125 56.59375 19.921875 
L 66.609375 0 
L 56 0 
L 46.6875 18.703125 
Q 43.0625 26.03125 39.671875 28.421875 
Q 36.28125 30.8125 30.421875 30.8125 
L 19.671875 30.8125 
L 19.671875 0 
L 9.8125 0 
L 9.8125 72.90625 
L 32.078125 72.90625 
Q 44.578125 72.90625 50.734375 67.671875 
Q 56.890625 62.453125 56.890625 51.90625 
Q 56.890625 45.015625 53.6875 40.46875 
Q 50.484375 35.9375 44.390625 34.1875 
M 19.671875 64.796875 
L 19.671875 38.921875 
L 32.078125 38.921875 
Q 39.203125 38.921875 42.84375 42.21875 
Q 46.484375 45.515625 46.484375 51.90625 
Q 46.484375 58.296875 42.84375 61.546875 
Q 39.203125 64.796875 32.078125 64.796875 
z
" id="DejaVuSans-52"/>
    </defs>
    <g transform="translate(176.80875 26.133375)scale(0.24 -0.24)">
     <use xlink:href="#DejaVuSans-31"/>
     <use x="63.623047" xlink:href="#DejaVuSans-35"/>
     <use x="127.246094" xlink:href="#DejaVuSans-20"/>
     <use x="159.033203" xlink:href="#DejaVuSans-52"/>
     <use x="228.484375" xlink:href="#DejaVuSans-61"/>
     <use x="289.763672" xlink:href="#DejaVuSans-73"/>
     <use x="341.863281" xlink:href="#DejaVuSans-74"/>
     <use x="381.072266" xlink:href="#DejaVuSans-72"/>
     <use x="422.185547" xlink:href="#DejaVuSans-69"/>
     <use x="449.96875" xlink:href="#DejaVuSans-67"/>
     <use x="513.445312" xlink:href="#DejaVuSans-69"/>
     <use x="541.228516" xlink:href="#DejaVuSans-6e"/>
    </g>
   </g>
  </g>
 </g>
 <defs>
  <clipPath id="paf0696b60a">
   <rect height="266.112" width="357.12" x="70.8" y="32.133375"/>
  </clipPath>
 </defs>
</svg>
