<?xml version="1.0" encoding="utf-8" standalone="no"?>
<!DOCTYPE svg PUBLIC "-//W3C//DTD SVG 1.1//EN"
  "http://www.w3.org/Graphics/SVG/1.1/DTD/svg11.dtd">
<!-- Created with matplotlib (http://matplotlib.org/) -->
<svg height="353pt" version="1.1" viewBox="0 0 439 353" width="439pt" xmlns="http://www.w3.org/2000/svg" xmlns:xlink="http://www.w3.org/1999/xlink">
 <defs>
  <style type="text/css">
*{stroke-linecap:butt;stroke-linejoin:round;}
  </style>
 </defs>
 <g id="figure_1">
  <g id="patch_1">
   <path d="M 0 353.22225 
L 439.489219 353.22225 
L 439.489219 0 
L 0 0 
z
" style="fill:#ffffff;"/>
  </g>
  <g id="axes_1">
   <g id="patch_2">
    <path d="M 70.8 298.245375 
L 427.92 298.245375 
L 427.92 32.133375 
L 70.8 32.133375 
z
" style="fill:#ffffff;"/>
   </g>
   <g id="matplotlib.axis_1">
    <g id="xtick_1">
     <g id="line2d_1">
      <path clip-path="url(#p65ac8d5832)" d="M 70.8 298.245375 
L 70.8 32.133375 
" style="fill:none;stroke:#b0b0b0;stroke-linecap:square;stroke-width:0.8;"/>
     </g>
     <g id="line2d_2">
      <defs>
       <path d="M 0 0 
L 0 3.5 
" id="m7b3958652d" style="stroke:#000000;stroke-width:0.8;"/>
      </defs>
      <g>
       <use style="stroke:#000000;stroke-width:0.8;" x="70.8" xlink:href="#m7b3958652d" y="298.245375"/>
      </g>
     </g>
     <g id="text_1">
      <!-- 0 -->
      <defs>
       <path d="M 31.78125 66.40625 
Q 24.171875 66.40625 20.328125 58.90625 
Q 16.5 51.421875 16.5 36.375 
Q 16.5 21.390625 20.328125 13.890625 
Q 24.171875 6.390625 31.78125 6.390625 
Q 39.453125 6.390625 43.28125 13.890625 
Q 47.125 21.390625 47.125 36.375 
Q 47.125 51.421875 43.28125 58.90625 
Q 39.453125 66.40625 31.78125 66.40625 
M 31.78125 74.21875 
Q 44.046875 74.21875 50.515625 64.515625 
Q 56.984375 54.828125 56.984375 36.375 
Q 56.984375 17.96875 50.515625 8.265625 
Q 44.046875 -1.421875 31.78125 -1.421875 
Q 19.53125 -1.421875 13.0625 8.265625 
Q 6.59375 17.96875 6.59375 36.375 
Q 6.59375 54.828125 13.0625 64.515625 
Q 19.53125 74.21875 31.78125 74.21875 
" id="DejaVuSans-30"/>
      </defs>
      <g transform="translate(64.4375 320.44225)scale(0.2 -0.2)">
       <use xlink:href="#DejaVuSans-30"/>
      </g>
     </g>
    </g>
    <g id="xtick_2">
     <g id="line2d_3">
      <path clip-path="url(#p65ac8d5832)" d="M 153.085714 298.245375 
L 153.085714 32.133375 
" style="fill:none;stroke:#b0b0b0;stroke-linecap:square;stroke-width:0.8;"/>
     </g>
     <g id="line2d_4">
      <g>
       <use style="stroke:#000000;stroke-width:0.8;" x="153.085714" xlink:href="#m7b3958652d" y="298.245375"/>
      </g>
     </g>
     <g id="text_2">
      <!-- 2 -->
      <defs>
       <path d="M 19.1875 8.296875 
L 53.609375 8.296875 
L 53.609375 0 
L 7.328125 0 
L 7.328125 8.296875 
Q 12.9375 14.109375 22.625 23.890625 
Q 32.328125 33.6875 34.8125 36.53125 
Q 39.546875 41.84375 41.421875 45.53125 
Q 43.3125 49.21875 43.3125 52.78125 
Q 43.3125 58.59375 39.234375 62.25 
Q 35.15625 65.921875 28.609375 65.921875 
Q 23.96875 65.921875 18.8125 64.3125 
Q 13.671875 62.703125 7.8125 59.421875 
L 7.8125 69.390625 
Q 13.765625 71.78125 18.9375 73 
Q 24.125 74.21875 28.421875 74.21875 
Q 39.75 74.21875 46.484375 68.546875 
Q 53.21875 62.890625 53.21875 53.421875 
Q 53.21875 48.921875 51.53125 44.890625 
Q 49.859375 40.875 45.40625 35.40625 
Q 44.1875 33.984375 37.640625 27.21875 
Q 31.109375 20.453125 19.1875 8.296875 
" id="DejaVuSans-32"/>
      </defs>
      <g transform="translate(146.723214 320.44225)scale(0.2 -0.2)">
       <use xlink:href="#DejaVuSans-32"/>
      </g>
     </g>
    </g>
    <g id="xtick_3">
     <g id="line2d_5">
      <path clip-path="url(#p65ac8d5832)" d="M 235.371429 298.245375 
L 235.371429 32.133375 
" style="fill:none;stroke:#b0b0b0;stroke-linecap:square;stroke-width:0.8;"/>
     </g>
     <g id="line2d_6">
      <g>
       <use style="stroke:#000000;stroke-width:0.8;" x="235.371429" xlink:href="#m7b3958652d" y="298.245375"/>
      </g>
     </g>
     <g id="text_3">
      <!-- 4 -->
      <defs>
       <path d="M 37.796875 64.3125 
L 12.890625 25.390625 
L 37.796875 25.390625 
z
M 35.203125 72.90625 
L 47.609375 72.90625 
L 47.609375 25.390625 
L 58.015625 25.390625 
L 58.015625 17.1875 
L 47.609375 17.1875 
L 47.609375 0 
L 37.796875 0 
L 37.796875 17.1875 
L 4.890625 17.1875 
L 4.890625 26.703125 
z
" id="DejaVuSans-34"/>
      </defs>
      <g transform="translate(229.008929 320.44225)scale(0.2 -0.2)">
       <use xlink:href="#DejaVuSans-34"/>
      </g>
     </g>
    </g>
    <g id="xtick_4">
     <g id="line2d_7">
      <path clip-path="url(#p65ac8d5832)" d="M 317.657143 298.245375 
L 317.657143 32.133375 
" style="fill:none;stroke:#b0b0b0;stroke-linecap:square;stroke-width:0.8;"/>
     </g>
     <g id="line2d_8">
      <g>
       <use style="stroke:#000000;stroke-width:0.8;" x="317.657143" xlink:href="#m7b3958652d" y="298.245375"/>
      </g>
     </g>
     <g id="text_4">
      <!-- 6 -->
      <defs>
       <path d="M 33.015625 40.375 
Q 26.375 40.375 22.484375 35.828125 
Q 18.609375 31.296875 18.609375 23.390625 
Q 18.609375 15.53125 22.484375 10.953125 
Q 26.375 6.390625 33.015625 6.390625 
Q 39.65625 6.390625 43.53125 10.953125 
Q 47.40625 15.53125 47.40625 23.390625 
Q 47.40625 31.296875 43.53125 35.828125 
Q 39.65625 40.375 33.015625 40.375 
M 52.59375 71.296875 
L 52.59375 62.3125 
Q 48.875 64.0625 45.09375 64.984375 
Q 41.3125 65.921875 37.59375 65.921875 
Q 27.828125 65.921875 22.671875 59.328125 
Q 17.53125 52.734375 16.796875 39.40625 
Q 19.671875 43.65625 24.015625 45.921875 
Q 28.375 48.1875 33.59375 48.1875 
Q 44.578125 48.1875 50.953125 41.515625 
Q 57.328125 34.859375 57.328125 23.390625 
Q 57.328125 12.15625 50.6875 5.359375 
Q 44.046875 -1.421875 33.015625 -1.421875 
Q 20.359375 -1.421875 13.671875 8.265625 
Q 6.984375 17.96875 6.984375 36.375 
Q 6.984375 53.65625 15.1875 63.9375 
Q 23.390625 74.21875 37.203125 74.21875 
Q 40.921875 74.21875 44.703125 73.484375 
Q 48.484375 72.75 52.59375 71.296875 
" id="DejaVuSans-36"/>
      </defs>
      <g transform="translate(311.294643 320.44225)scale(0.2 -0.2)">
       <use xlink:href="#DejaVuSans-36"/>
      </g>
     </g>
    </g>
    <g id="xtick_5">
     <g id="line2d_9">
      <path clip-path="url(#p65ac8d5832)" d="M 399.942857 298.245375 
L 399.942857 32.133375 
" style="fill:none;stroke:#b0b0b0;stroke-linecap:square;stroke-width:0.8;"/>
     </g>
     <g id="line2d_10">
      <g>
       <use style="stroke:#000000;stroke-width:0.8;" x="399.942857" xlink:href="#m7b3958652d" y="298.245375"/>
      </g>
     </g>
     <g id="text_5">
      <!-- 8 -->
      <defs>
       <path d="M 31.78125 34.625 
Q 24.75 34.625 20.71875 30.859375 
Q 16.703125 27.09375 16.703125 20.515625 
Q 16.703125 13.921875 20.71875 10.15625 
Q 24.75 6.390625 31.78125 6.390625 
Q 38.8125 6.390625 42.859375 10.171875 
Q 46.921875 13.96875 46.921875 20.515625 
Q 46.921875 27.09375 42.890625 30.859375 
Q 38.875 34.625 31.78125 34.625 
M 21.921875 38.8125 
Q 15.578125 40.375 12.03125 44.71875 
Q 8.5 49.078125 8.5 55.328125 
Q 8.5 64.0625 14.71875 69.140625 
Q 20.953125 74.21875 31.78125 74.21875 
Q 42.671875 74.21875 48.875 69.140625 
Q 55.078125 64.0625 55.078125 55.328125 
Q 55.078125 49.078125 51.53125 44.71875 
Q 48 40.375 41.703125 38.8125 
Q 48.828125 37.15625 52.796875 32.3125 
Q 56.78125 27.484375 56.78125 20.515625 
Q 56.78125 9.90625 50.3125 4.234375 
Q 43.84375 -1.421875 31.78125 -1.421875 
Q 19.734375 -1.421875 13.25 4.234375 
Q 6.78125 9.90625 6.78125 20.515625 
Q 6.78125 27.484375 10.78125 32.3125 
Q 14.796875 37.15625 21.921875 38.8125 
M 18.3125 54.390625 
Q 18.3125 48.734375 21.84375 45.5625 
Q 25.390625 42.390625 31.78125 42.390625 
Q 38.140625 42.390625 41.71875 45.5625 
Q 45.3125 48.734375 45.3125 54.390625 
Q 45.3125 60.0625 41.71875 63.234375 
Q 38.140625 66.40625 31.78125 66.40625 
Q 25.390625 66.40625 21.84375 63.234375 
Q 18.3125 60.0625 18.3125 54.390625 
" id="DejaVuSans-38"/>
      </defs>
      <g transform="translate(393.580357 320.44225)scale(0.2 -0.2)">
       <use xlink:href="#DejaVuSans-38"/>
      </g>
     </g>
    </g>
    <g id="xtick_6">
     <g id="line2d_11">
      <defs>
       <path d="M 0 0 
L 0 2 
" id="mcff6ad6170" style="stroke:#000000;stroke-width:0.6;"/>
      </defs>
      <g>
       <use style="stroke:#000000;stroke-width:0.6;" x="83.185234" xlink:href="#mcff6ad6170" y="298.245375"/>
      </g>
     </g>
    </g>
    <g id="xtick_7">
     <g id="line2d_12">
      <g>
       <use style="stroke:#000000;stroke-width:0.6;" x="95.570468" xlink:href="#mcff6ad6170" y="298.245375"/>
      </g>
     </g>
    </g>
    <g id="xtick_8">
     <g id="line2d_13">
      <g>
       <use style="stroke:#000000;stroke-width:0.6;" x="102.815366" xlink:href="#mcff6ad6170" y="298.245375"/>
      </g>
     </g>
    </g>
    <g id="xtick_9">
     <g id="line2d_14">
      <g>
       <use style="stroke:#000000;stroke-width:0.6;" x="107.955702" xlink:href="#mcff6ad6170" y="298.245375"/>
      </g>
     </g>
    </g>
    <g id="xtick_10">
     <g id="line2d_15">
      <g>
       <use style="stroke:#000000;stroke-width:0.6;" x="165.470948" xlink:href="#mcff6ad6170" y="298.245375"/>
      </g>
     </g>
    </g>
    <g id="xtick_11">
     <g id="line2d_16">
      <g>
       <use style="stroke:#000000;stroke-width:0.6;" x="177.856183" xlink:href="#mcff6ad6170" y="298.245375"/>
      </g>
     </g>
    </g>
    <g id="xtick_12">
     <g id="line2d_17">
      <g>
       <use style="stroke:#000000;stroke-width:0.6;" x="185.10108" xlink:href="#mcff6ad6170" y="298.245375"/>
      </g>
     </g>
    </g>
    <g id="xtick_13">
     <g id="line2d_18">
      <g>
       <use style="stroke:#000000;stroke-width:0.6;" x="190.241417" xlink:href="#mcff6ad6170" y="298.245375"/>
      </g>
     </g>
    </g>
    <g id="xtick_14">
     <g id="line2d_19">
      <g>
       <use style="stroke:#000000;stroke-width:0.6;" x="247.756663" xlink:href="#mcff6ad6170" y="298.245375"/>
      </g>
     </g>
    </g>
    <g id="xtick_15">
     <g id="line2d_20">
      <g>
       <use style="stroke:#000000;stroke-width:0.6;" x="260.141897" xlink:href="#mcff6ad6170" y="298.245375"/>
      </g>
     </g>
    </g>
    <g id="xtick_16">
     <g id="line2d_21">
      <g>
       <use style="stroke:#000000;stroke-width:0.6;" x="267.386794" xlink:href="#mcff6ad6170" y="298.245375"/>
      </g>
     </g>
    </g>
    <g id="xtick_17">
     <g id="line2d_22">
      <g>
       <use style="stroke:#000000;stroke-width:0.6;" x="272.527131" xlink:href="#mcff6ad6170" y="298.245375"/>
      </g>
     </g>
    </g>
    <g id="xtick_18">
     <g id="line2d_23">
      <g>
       <use style="stroke:#000000;stroke-width:0.6;" x="330.042377" xlink:href="#mcff6ad6170" y="298.245375"/>
      </g>
     </g>
    </g>
    <g id="xtick_19">
     <g id="line2d_24">
      <g>
       <use style="stroke:#000000;stroke-width:0.6;" x="342.427611" xlink:href="#mcff6ad6170" y="298.245375"/>
      </g>
     </g>
    </g>
    <g id="xtick_20">
     <g id="line2d_25">
      <g>
       <use style="stroke:#000000;stroke-width:0.6;" x="349.672509" xlink:href="#mcff6ad6170" y="298.245375"/>
      </g>
     </g>
    </g>
    <g id="xtick_21">
     <g id="line2d_26">
      <g>
       <use style="stroke:#000000;stroke-width:0.6;" x="354.812845" xlink:href="#mcff6ad6170" y="298.245375"/>
      </g>
     </g>
    </g>
    <g id="xtick_22">
     <g id="line2d_27">
      <g>
       <use style="stroke:#000000;stroke-width:0.6;" x="412.328091" xlink:href="#mcff6ad6170" y="298.245375"/>
      </g>
     </g>
    </g>
    <g id="xtick_23">
     <g id="line2d_28">
      <g>
       <use style="stroke:#000000;stroke-width:0.6;" x="424.713325" xlink:href="#mcff6ad6170" y="298.245375"/>
      </g>
     </g>
    </g>
    <g id="text_6">
     <!-- log10 of (# f-evals / dimension) -->
     <defs>
      <path d="M 9.421875 75.984375 
L 18.40625 75.984375 
L 18.40625 0 
L 9.421875 0 
z
" id="DejaVuSans-6c"/>
      <path d="M 30.609375 48.390625 
Q 23.390625 48.390625 19.1875 42.75 
Q 14.984375 37.109375 14.984375 27.296875 
Q 14.984375 17.484375 19.15625 11.84375 
Q 23.34375 6.203125 30.609375 6.203125 
Q 37.796875 6.203125 41.984375 11.859375 
Q 46.1875 17.53125 46.1875 27.296875 
Q 46.1875 37.015625 41.984375 42.703125 
Q 37.796875 48.390625 30.609375 48.390625 
M 30.609375 56 
Q 42.328125 56 49.015625 48.375 
Q 55.71875 40.765625 55.71875 27.296875 
Q 55.71875 13.875 49.015625 6.21875 
Q 42.328125 -1.421875 30.609375 -1.421875 
Q 18.84375 -1.421875 12.171875 6.21875 
Q 5.515625 13.875 5.515625 27.296875 
Q 5.515625 40.765625 12.171875 48.375 
Q 18.84375 56 30.609375 56 
" id="DejaVuSans-6f"/>
      <path d="M 45.40625 27.984375 
Q 45.40625 37.75 41.375 43.109375 
Q 37.359375 48.484375 30.078125 48.484375 
Q 22.859375 48.484375 18.828125 43.109375 
Q 14.796875 37.75 14.796875 27.984375 
Q 14.796875 18.265625 18.828125 12.890625 
Q 22.859375 7.515625 30.078125 7.515625 
Q 37.359375 7.515625 41.375 12.890625 
Q 45.40625 18.265625 45.40625 27.984375 
M 54.390625 6.78125 
Q 54.390625 -7.171875 48.1875 -13.984375 
Q 42 -20.796875 29.203125 -20.796875 
Q 24.46875 -20.796875 20.265625 -20.09375 
Q 16.0625 -19.390625 12.109375 -17.921875 
L 12.109375 -9.1875 
Q 16.0625 -11.328125 19.921875 -12.34375 
Q 23.78125 -13.375 27.78125 -13.375 
Q 36.625 -13.375 41.015625 -8.765625 
Q 45.40625 -4.15625 45.40625 5.171875 
L 45.40625 9.625 
Q 42.625 4.78125 38.28125 2.390625 
Q 33.9375 0 27.875 0 
Q 17.828125 0 11.671875 7.65625 
Q 5.515625 15.328125 5.515625 27.984375 
Q 5.515625 40.671875 11.671875 48.328125 
Q 17.828125 56 27.875 56 
Q 33.9375 56 38.28125 53.609375 
Q 42.625 51.21875 45.40625 46.390625 
L 45.40625 54.6875 
L 54.390625 54.6875 
z
" id="DejaVuSans-67"/>
      <path d="M 12.40625 8.296875 
L 28.515625 8.296875 
L 28.515625 63.921875 
L 10.984375 60.40625 
L 10.984375 69.390625 
L 28.421875 72.90625 
L 38.28125 72.90625 
L 38.28125 8.296875 
L 54.390625 8.296875 
L 54.390625 0 
L 12.40625 0 
z
" id="DejaVuSans-31"/>
      <path id="DejaVuSans-20"/>
      <path d="M 37.109375 75.984375 
L 37.109375 68.5 
L 28.515625 68.5 
Q 23.6875 68.5 21.796875 66.546875 
Q 19.921875 64.59375 19.921875 59.515625 
L 19.921875 54.6875 
L 34.71875 54.6875 
L 34.71875 47.703125 
L 19.921875 47.703125 
L 19.921875 0 
L 10.890625 0 
L 10.890625 47.703125 
L 2.296875 47.703125 
L 2.296875 54.6875 
L 10.890625 54.6875 
L 10.890625 58.5 
Q 10.890625 67.625 15.140625 71.796875 
Q 19.390625 75.984375 28.609375 75.984375 
z
" id="DejaVuSans-66"/>
      <path d="M 31 75.875 
Q 24.46875 64.65625 21.28125 53.65625 
Q 18.109375 42.671875 18.109375 31.390625 
Q 18.109375 20.125 21.3125 9.0625 
Q 24.515625 -2 31 -13.1875 
L 23.1875 -13.1875 
Q 15.875 -1.703125 12.234375 9.375 
Q 8.59375 20.453125 8.59375 31.390625 
Q 8.59375 42.28125 12.203125 53.3125 
Q 15.828125 64.359375 23.1875 75.875 
z
" id="DejaVuSans-28"/>
      <path d="M 51.125 44 
L 36.921875 44 
L 32.8125 27.6875 
L 47.125 27.6875 
z
M 43.796875 71.78125 
L 38.71875 51.515625 
L 52.984375 51.515625 
L 58.109375 71.78125 
L 65.921875 71.78125 
L 60.890625 51.515625 
L 76.125 51.515625 
L 76.125 44 
L 58.984375 44 
L 54.984375 27.6875 
L 70.515625 27.6875 
L 70.515625 20.21875 
L 53.078125 20.21875 
L 48 0 
L 40.1875 0 
L 45.21875 20.21875 
L 30.90625 20.21875 
L 25.875 0 
L 18.015625 0 
L 23.09375 20.21875 
L 7.71875 20.21875 
L 7.71875 27.6875 
L 24.90625 27.6875 
L 29 44 
L 13.28125 44 
L 13.28125 51.515625 
L 30.90625 51.515625 
L 35.890625 71.78125 
z
" id="DejaVuSans-23"/>
      <path d="M 4.890625 31.390625 
L 31.203125 31.390625 
L 31.203125 23.390625 
L 4.890625 23.390625 
z
" id="DejaVuSans-2d"/>
      <path d="M 56.203125 29.59375 
L 56.203125 25.203125 
L 14.890625 25.203125 
Q 15.484375 15.921875 20.484375 11.0625 
Q 25.484375 6.203125 34.421875 6.203125 
Q 39.59375 6.203125 44.453125 7.46875 
Q 49.3125 8.734375 54.109375 11.28125 
L 54.109375 2.78125 
Q 49.265625 0.734375 44.1875 -0.34375 
Q 39.109375 -1.421875 33.890625 -1.421875 
Q 20.796875 -1.421875 13.15625 6.1875 
Q 5.515625 13.8125 5.515625 26.8125 
Q 5.515625 40.234375 12.765625 48.109375 
Q 20.015625 56 32.328125 56 
Q 43.359375 56 49.78125 48.890625 
Q 56.203125 41.796875 56.203125 29.59375 
M 47.21875 32.234375 
Q 47.125 39.59375 43.09375 43.984375 
Q 39.0625 48.390625 32.421875 48.390625 
Q 24.90625 48.390625 20.390625 44.140625 
Q 15.875 39.890625 15.1875 32.171875 
z
" id="DejaVuSans-65"/>
      <path d="M 2.984375 54.6875 
L 12.5 54.6875 
L 29.59375 8.796875 
L 46.6875 54.6875 
L 56.203125 54.6875 
L 35.6875 0 
L 23.484375 0 
z
" id="DejaVuSans-76"/>
      <path d="M 34.28125 27.484375 
Q 23.390625 27.484375 19.1875 25 
Q 14.984375 22.515625 14.984375 16.5 
Q 14.984375 11.71875 18.140625 8.90625 
Q 21.296875 6.109375 26.703125 6.109375 
Q 34.1875 6.109375 38.703125 11.40625 
Q 43.21875 16.703125 43.21875 25.484375 
L 43.21875 27.484375 
z
M 52.203125 31.203125 
L 52.203125 0 
L 43.21875 0 
L 43.21875 8.296875 
Q 40.140625 3.328125 35.546875 0.953125 
Q 30.953125 -1.421875 24.3125 -1.421875 
Q 15.921875 -1.421875 10.953125 3.296875 
Q 6 8.015625 6 15.921875 
Q 6 25.140625 12.171875 29.828125 
Q 18.359375 34.515625 30.609375 34.515625 
L 43.21875 34.515625 
L 43.21875 35.40625 
Q 43.21875 41.609375 39.140625 45 
Q 35.0625 48.390625 27.6875 48.390625 
Q 23 48.390625 18.546875 47.265625 
Q 14.109375 46.140625 10.015625 43.890625 
L 10.015625 52.203125 
Q 14.9375 54.109375 19.578125 55.046875 
Q 24.21875 56 28.609375 56 
Q 40.484375 56 46.34375 49.84375 
Q 52.203125 43.703125 52.203125 31.203125 
" id="DejaVuSans-61"/>
      <path d="M 44.28125 53.078125 
L 44.28125 44.578125 
Q 40.484375 46.53125 36.375 47.5 
Q 32.28125 48.484375 27.875 48.484375 
Q 21.1875 48.484375 17.84375 46.4375 
Q 14.5 44.390625 14.5 40.28125 
Q 14.5 37.15625 16.890625 35.375 
Q 19.28125 33.59375 26.515625 31.984375 
L 29.59375 31.296875 
Q 39.15625 29.25 43.1875 25.515625 
Q 47.21875 21.78125 47.21875 15.09375 
Q 47.21875 7.46875 41.1875 3.015625 
Q 35.15625 -1.421875 24.609375 -1.421875 
Q 20.21875 -1.421875 15.453125 -0.5625 
Q 10.6875 0.296875 5.421875 2 
L 5.421875 11.28125 
Q 10.40625 8.6875 15.234375 7.390625 
Q 20.0625 6.109375 24.8125 6.109375 
Q 31.15625 6.109375 34.5625 8.28125 
Q 37.984375 10.453125 37.984375 14.40625 
Q 37.984375 18.0625 35.515625 20.015625 
Q 33.0625 21.96875 24.703125 23.78125 
L 21.578125 24.515625 
Q 13.234375 26.265625 9.515625 29.90625 
Q 5.8125 33.546875 5.8125 39.890625 
Q 5.8125 47.609375 11.28125 51.796875 
Q 16.75 56 26.8125 56 
Q 31.78125 56 36.171875 55.265625 
Q 40.578125 54.546875 44.28125 53.078125 
" id="DejaVuSans-73"/>
      <path d="M 25.390625 72.90625 
L 33.6875 72.90625 
L 8.296875 -9.28125 
L 0 -9.28125 
z
" id="DejaVuSans-2f"/>
      <path d="M 45.40625 46.390625 
L 45.40625 75.984375 
L 54.390625 75.984375 
L 54.390625 0 
L 45.40625 0 
L 45.40625 8.203125 
Q 42.578125 3.328125 38.25 0.953125 
Q 33.9375 -1.421875 27.875 -1.421875 
Q 17.96875 -1.421875 11.734375 6.484375 
Q 5.515625 14.40625 5.515625 27.296875 
Q 5.515625 40.1875 11.734375 48.09375 
Q 17.96875 56 27.875 56 
Q 33.9375 56 38.25 53.625 
Q 42.578125 51.265625 45.40625 46.390625 
M 14.796875 27.296875 
Q 14.796875 17.390625 18.875 11.75 
Q 22.953125 6.109375 30.078125 6.109375 
Q 37.203125 6.109375 41.296875 11.75 
Q 45.40625 17.390625 45.40625 27.296875 
Q 45.40625 37.203125 41.296875 42.84375 
Q 37.203125 48.484375 30.078125 48.484375 
Q 22.953125 48.484375 18.875 42.84375 
Q 14.796875 37.203125 14.796875 27.296875 
" id="DejaVuSans-64"/>
      <path d="M 9.421875 54.6875 
L 18.40625 54.6875 
L 18.40625 0 
L 9.421875 0 
z
M 9.421875 75.984375 
L 18.40625 75.984375 
L 18.40625 64.59375 
L 9.421875 64.59375 
z
" id="DejaVuSans-69"/>
      <path d="M 52 44.1875 
Q 55.375 50.25 60.0625 53.125 
Q 64.75 56 71.09375 56 
Q 79.640625 56 84.28125 50.015625 
Q 88.921875 44.046875 88.921875 33.015625 
L 88.921875 0 
L 79.890625 0 
L 79.890625 32.71875 
Q 79.890625 40.578125 77.09375 44.375 
Q 74.3125 48.1875 68.609375 48.1875 
Q 61.625 48.1875 57.5625 43.546875 
Q 53.515625 38.921875 53.515625 30.90625 
L 53.515625 0 
L 44.484375 0 
L 44.484375 32.71875 
Q 44.484375 40.625 41.703125 44.40625 
Q 38.921875 48.1875 33.109375 48.1875 
Q 26.21875 48.1875 22.15625 43.53125 
Q 18.109375 38.875 18.109375 30.90625 
L 18.109375 0 
L 9.078125 0 
L 9.078125 54.6875 
L 18.109375 54.6875 
L 18.109375 46.1875 
Q 21.1875 51.21875 25.484375 53.609375 
Q 29.78125 56 35.6875 56 
Q 41.65625 56 45.828125 52.96875 
Q 50 49.953125 52 44.1875 
" id="DejaVuSans-6d"/>
      <path d="M 54.890625 33.015625 
L 54.890625 0 
L 45.90625 0 
L 45.90625 32.71875 
Q 45.90625 40.484375 42.875 44.328125 
Q 39.84375 48.1875 33.796875 48.1875 
Q 26.515625 48.1875 22.3125 43.546875 
Q 18.109375 38.921875 18.109375 30.90625 
L 18.109375 0 
L 9.078125 0 
L 9.078125 54.6875 
L 18.109375 54.6875 
L 18.109375 46.1875 
Q 21.34375 51.125 25.703125 53.5625 
Q 30.078125 56 35.796875 56 
Q 45.21875 56 50.046875 50.171875 
Q 54.890625 44.34375 54.890625 33.015625 
" id="DejaVuSans-6e"/>
      <path d="M 8.015625 75.875 
L 15.828125 75.875 
Q 23.140625 64.359375 26.78125 53.3125 
Q 30.421875 42.28125 30.421875 31.390625 
Q 30.421875 20.453125 26.78125 9.375 
Q 23.140625 -1.703125 15.828125 -13.1875 
L 8.015625 -13.1875 
Q 14.5 -2 17.703125 9.0625 
Q 20.90625 20.125 20.90625 31.390625 
Q 20.90625 42.671875 17.703125 53.65625 
Q 14.5 64.65625 8.015625 75.875 
" id="DejaVuSans-29"/>
     </defs>
     <g transform="translate(107.015156 342.278812)scale(0.18 -0.18)">
      <use xlink:href="#DejaVuSans-6c"/>
      <use x="27.783203" xlink:href="#DejaVuSans-6f"/>
      <use x="88.964844" xlink:href="#DejaVuSans-67"/>
      <use x="152.441406" xlink:href="#DejaVuSans-31"/>
      <use x="216.064453" xlink:href="#DejaVuSans-30"/>
      <use x="279.6875" xlink:href="#DejaVuSans-20"/>
      <use x="311.474609" xlink:href="#DejaVuSans-6f"/>
      <use x="372.65625" xlink:href="#DejaVuSans-66"/>
      <use x="407.861328" xlink:href="#DejaVuSans-20"/>
      <use x="439.648438" xlink:href="#DejaVuSans-28"/>
      <use x="478.662109" xlink:href="#DejaVuSans-23"/>
      <use x="562.451172" xlink:href="#DejaVuSans-20"/>
      <use x="594.238281" xlink:href="#DejaVuSans-66"/>
      <use x="629.365234" xlink:href="#DejaVuSans-2d"/>
      <use x="665.449219" xlink:href="#DejaVuSans-65"/>
      <use x="726.972656" xlink:href="#DejaVuSans-76"/>
      <use x="786.152344" xlink:href="#DejaVuSans-61"/>
      <use x="847.431641" xlink:href="#DejaVuSans-6c"/>
      <use x="875.214844" xlink:href="#DejaVuSans-73"/>
      <use x="927.314453" xlink:href="#DejaVuSans-20"/>
      <use x="959.101562" xlink:href="#DejaVuSans-2f"/>
      <use x="992.792969" xlink:href="#DejaVuSans-20"/>
      <use x="1024.580078" xlink:href="#DejaVuSans-64"/>
      <use x="1088.056641" xlink:href="#DejaVuSans-69"/>
      <use x="1115.839844" xlink:href="#DejaVuSans-6d"/>
      <use x="1213.251953" xlink:href="#DejaVuSans-65"/>
      <use x="1274.775391" xlink:href="#DejaVuSans-6e"/>
      <use x="1338.154297" xlink:href="#DejaVuSans-73"/>
      <use x="1390.253906" xlink:href="#DejaVuSans-69"/>
      <use x="1418.037109" xlink:href="#DejaVuSans-6f"/>
      <use x="1479.21875" xlink:href="#DejaVuSans-6e"/>
      <use x="1542.597656" xlink:href="#DejaVuSans-29"/>
     </g>
    </g>
   </g>
   <g id="matplotlib.axis_2">
    <g id="ytick_1">
     <g id="line2d_29">
      <path clip-path="url(#p65ac8d5832)" d="M 70.8 298.245375 
L 427.92 298.245375 
" style="fill:none;stroke:#b0b0b0;stroke-linecap:square;stroke-width:0.8;"/>
     </g>
     <g id="line2d_30">
      <defs>
       <path d="M 0 0 
L -3.5 0 
" id="mee6a721172" style="stroke:#000000;stroke-width:0.8;"/>
      </defs>
      <g>
       <use style="stroke:#000000;stroke-width:0.8;" x="70.8" xlink:href="#mee6a721172" y="298.245375"/>
      </g>
     </g>
     <g id="text_7">
      <!-- 0.0 -->
      <defs>
       <path d="M 10.6875 12.40625 
L 21 12.40625 
L 21 0 
L 10.6875 0 
z
" id="DejaVuSans-2e"/>
      </defs>
      <g transform="translate(31.99375 305.843812)scale(0.2 -0.2)">
       <use xlink:href="#DejaVuSans-30"/>
       <use x="63.623047" xlink:href="#DejaVuSans-2e"/>
       <use x="95.410156" xlink:href="#DejaVuSans-30"/>
      </g>
     </g>
    </g>
    <g id="ytick_2">
     <g id="line2d_31">
      <path clip-path="url(#p65ac8d5832)" d="M 70.8 245.549929 
L 427.92 245.549929 
" style="fill:none;stroke:#b0b0b0;stroke-linecap:square;stroke-width:0.8;"/>
     </g>
     <g id="line2d_32">
      <g>
       <use style="stroke:#000000;stroke-width:0.8;" x="70.8" xlink:href="#mee6a721172" y="245.549929"/>
      </g>
     </g>
     <g id="text_8">
      <!-- 0.2 -->
      <g transform="translate(31.99375 253.148367)scale(0.2 -0.2)">
       <use xlink:href="#DejaVuSans-30"/>
       <use x="63.623047" xlink:href="#DejaVuSans-2e"/>
       <use x="95.410156" xlink:href="#DejaVuSans-32"/>
      </g>
     </g>
    </g>
    <g id="ytick_3">
     <g id="line2d_33">
      <path clip-path="url(#p65ac8d5832)" d="M 70.8 192.854484 
L 427.92 192.854484 
" style="fill:none;stroke:#b0b0b0;stroke-linecap:square;stroke-width:0.8;"/>
     </g>
     <g id="line2d_34">
      <g>
       <use style="stroke:#000000;stroke-width:0.8;" x="70.8" xlink:href="#mee6a721172" y="192.854484"/>
      </g>
     </g>
     <g id="text_9">
      <!-- 0.4 -->
      <g transform="translate(31.99375 200.452921)scale(0.2 -0.2)">
       <use xlink:href="#DejaVuSans-30"/>
       <use x="63.623047" xlink:href="#DejaVuSans-2e"/>
       <use x="95.410156" xlink:href="#DejaVuSans-34"/>
      </g>
     </g>
    </g>
    <g id="ytick_4">
     <g id="line2d_35">
      <path clip-path="url(#p65ac8d5832)" d="M 70.8 140.159038 
L 427.92 140.159038 
" style="fill:none;stroke:#b0b0b0;stroke-linecap:square;stroke-width:0.8;"/>
     </g>
     <g id="line2d_36">
      <g>
       <use style="stroke:#000000;stroke-width:0.8;" x="70.8" xlink:href="#mee6a721172" y="140.159038"/>
      </g>
     </g>
     <g id="text_10">
      <!-- 0.6 -->
      <g transform="translate(31.99375 147.757476)scale(0.2 -0.2)">
       <use xlink:href="#DejaVuSans-30"/>
       <use x="63.623047" xlink:href="#DejaVuSans-2e"/>
       <use x="95.410156" xlink:href="#DejaVuSans-36"/>
      </g>
     </g>
    </g>
    <g id="ytick_5">
     <g id="line2d_37">
      <path clip-path="url(#p65ac8d5832)" d="M 70.8 87.463593 
L 427.92 87.463593 
" style="fill:none;stroke:#b0b0b0;stroke-linecap:square;stroke-width:0.8;"/>
     </g>
     <g id="line2d_38">
      <g>
       <use style="stroke:#000000;stroke-width:0.8;" x="70.8" xlink:href="#mee6a721172" y="87.463593"/>
      </g>
     </g>
     <g id="text_11">
      <!-- 0.8 -->
      <g transform="translate(31.99375 95.06203)scale(0.2 -0.2)">
       <use xlink:href="#DejaVuSans-30"/>
       <use x="63.623047" xlink:href="#DejaVuSans-2e"/>
       <use x="95.410156" xlink:href="#DejaVuSans-38"/>
      </g>
     </g>
    </g>
    <g id="ytick_6">
     <g id="line2d_39">
      <path clip-path="url(#p65ac8d5832)" d="M 70.8 34.768147 
L 427.92 34.768147 
" style="fill:none;stroke:#b0b0b0;stroke-linecap:square;stroke-width:0.8;"/>
     </g>
     <g id="line2d_40">
      <g>
       <use style="stroke:#000000;stroke-width:0.8;" x="70.8" xlink:href="#mee6a721172" y="34.768147"/>
      </g>
     </g>
     <g id="text_12">
      <!-- 1.0 -->
      <g transform="translate(31.99375 42.366585)scale(0.2 -0.2)">
       <use xlink:href="#DejaVuSans-31"/>
       <use x="63.623047" xlink:href="#DejaVuSans-2e"/>
       <use x="95.410156" xlink:href="#DejaVuSans-30"/>
      </g>
     </g>
    </g>
    <g id="text_13">
     <!-- Proportion of function+target pairs -->
     <defs>
      <path d="M 19.671875 64.796875 
L 19.671875 37.40625 
L 32.078125 37.40625 
Q 38.96875 37.40625 42.71875 40.96875 
Q 46.484375 44.53125 46.484375 51.125 
Q 46.484375 57.671875 42.71875 61.234375 
Q 38.96875 64.796875 32.078125 64.796875 
z
M 9.8125 72.90625 
L 32.078125 72.90625 
Q 44.34375 72.90625 50.609375 67.359375 
Q 56.890625 61.8125 56.890625 51.125 
Q 56.890625 40.328125 50.609375 34.8125 
Q 44.34375 29.296875 32.078125 29.296875 
L 19.671875 29.296875 
L 19.671875 0 
L 9.8125 0 
z
" id="DejaVuSans-50"/>
      <path d="M 41.109375 46.296875 
Q 39.59375 47.171875 37.8125 47.578125 
Q 36.03125 48 33.890625 48 
Q 26.265625 48 22.1875 43.046875 
Q 18.109375 38.09375 18.109375 28.8125 
L 18.109375 0 
L 9.078125 0 
L 9.078125 54.6875 
L 18.109375 54.6875 
L 18.109375 46.1875 
Q 20.953125 51.171875 25.484375 53.578125 
Q 30.03125 56 36.53125 56 
Q 37.453125 56 38.578125 55.875 
Q 39.703125 55.765625 41.0625 55.515625 
z
" id="DejaVuSans-72"/>
      <path d="M 18.109375 8.203125 
L 18.109375 -20.796875 
L 9.078125 -20.796875 
L 9.078125 54.6875 
L 18.109375 54.6875 
L 18.109375 46.390625 
Q 20.953125 51.265625 25.265625 53.625 
Q 29.59375 56 35.59375 56 
Q 45.5625 56 51.78125 48.09375 
Q 58.015625 40.1875 58.015625 27.296875 
Q 58.015625 14.40625 51.78125 6.484375 
Q 45.5625 -1.421875 35.59375 -1.421875 
Q 29.59375 -1.421875 25.265625 0.953125 
Q 20.953125 3.328125 18.109375 8.203125 
M 48.6875 27.296875 
Q 48.6875 37.203125 44.609375 42.84375 
Q 40.53125 48.484375 33.40625 48.484375 
Q 26.265625 48.484375 22.1875 42.84375 
Q 18.109375 37.203125 18.109375 27.296875 
Q 18.109375 17.390625 22.1875 11.75 
Q 26.265625 6.109375 33.40625 6.109375 
Q 40.53125 6.109375 44.609375 11.75 
Q 48.6875 17.390625 48.6875 27.296875 
" id="DejaVuSans-70"/>
      <path d="M 18.3125 70.21875 
L 18.3125 54.6875 
L 36.8125 54.6875 
L 36.8125 47.703125 
L 18.3125 47.703125 
L 18.3125 18.015625 
Q 18.3125 11.328125 20.140625 9.421875 
Q 21.96875 7.515625 27.59375 7.515625 
L 36.8125 7.515625 
L 36.8125 0 
L 27.59375 0 
Q 17.1875 0 13.234375 3.875 
Q 9.28125 7.765625 9.28125 18.015625 
L 9.28125 47.703125 
L 2.6875 47.703125 
L 2.6875 54.6875 
L 9.28125 54.6875 
L 9.28125 70.21875 
z
" id="DejaVuSans-74"/>
      <path d="M 8.5 21.578125 
L 8.5 54.6875 
L 17.484375 54.6875 
L 17.484375 21.921875 
Q 17.484375 14.15625 20.5 10.265625 
Q 23.53125 6.390625 29.59375 6.390625 
Q 36.859375 6.390625 41.078125 11.03125 
Q 45.3125 15.671875 45.3125 23.6875 
L 45.3125 54.6875 
L 54.296875 54.6875 
L 54.296875 0 
L 45.3125 0 
L 45.3125 8.40625 
Q 42.046875 3.421875 37.71875 1 
Q 33.40625 -1.421875 27.6875 -1.421875 
Q 18.265625 -1.421875 13.375 4.4375 
Q 8.5 10.296875 8.5 21.578125 
M 31.109375 56 
z
" id="DejaVuSans-75"/>
      <path d="M 48.78125 52.59375 
L 48.78125 44.1875 
Q 44.96875 46.296875 41.140625 47.34375 
Q 37.3125 48.390625 33.40625 48.390625 
Q 24.65625 48.390625 19.8125 42.84375 
Q 14.984375 37.3125 14.984375 27.296875 
Q 14.984375 17.28125 19.8125 11.734375 
Q 24.65625 6.203125 33.40625 6.203125 
Q 37.3125 6.203125 41.140625 7.25 
Q 44.96875 8.296875 48.78125 10.40625 
L 48.78125 2.09375 
Q 45.015625 0.34375 40.984375 -0.53125 
Q 36.96875 -1.421875 32.421875 -1.421875 
Q 20.0625 -1.421875 12.78125 6.34375 
Q 5.515625 14.109375 5.515625 27.296875 
Q 5.515625 40.671875 12.859375 48.328125 
Q 20.21875 56 33.015625 56 
Q 37.15625 56 41.109375 55.140625 
Q 45.0625 54.296875 48.78125 52.59375 
" id="DejaVuSans-63"/>
      <path d="M 46 62.703125 
L 46 35.5 
L 73.1875 35.5 
L 73.1875 27.203125 
L 46 27.203125 
L 46 0 
L 37.796875 0 
L 37.796875 27.203125 
L 10.59375 27.203125 
L 10.59375 35.5 
L 37.796875 35.5 
L 37.796875 62.703125 
z
" id="DejaVuSans-2b"/>
     </defs>
     <g transform="translate(24.250312 323.17875)rotate(-90)scale(0.18 -0.18)">
      <use xlink:href="#DejaVuSans-50"/>
      <use x="60.287109" xlink:href="#DejaVuSans-72"/>
      <use x="101.369141" xlink:href="#DejaVuSans-6f"/>
      <use x="162.550781" xlink:href="#DejaVuSans-70"/>
      <use x="226.027344" xlink:href="#DejaVuSans-6f"/>
      <use x="287.208984" xlink:href="#DejaVuSans-72"/>
      <use x="328.322266" xlink:href="#DejaVuSans-74"/>
      <use x="367.53125" xlink:href="#DejaVuSans-69"/>
      <use x="395.314453" xlink:href="#DejaVuSans-6f"/>
      <use x="456.496094" xlink:href="#DejaVuSans-6e"/>
      <use x="519.875" xlink:href="#DejaVuSans-20"/>
      <use x="551.662109" xlink:href="#DejaVuSans-6f"/>
      <use x="612.84375" xlink:href="#DejaVuSans-66"/>
      <use x="648.048828" xlink:href="#DejaVuSans-20"/>
      <use x="679.835938" xlink:href="#DejaVuSans-66"/>
      <use x="715.041016" xlink:href="#DejaVuSans-75"/>
      <use x="778.419922" xlink:href="#DejaVuSans-6e"/>
      <use x="841.798828" xlink:href="#DejaVuSans-63"/>
      <use x="896.779297" xlink:href="#DejaVuSans-74"/>
      <use x="935.988281" xlink:href="#DejaVuSans-69"/>
      <use x="963.771484" xlink:href="#DejaVuSans-6f"/>
      <use x="1024.953125" xlink:href="#DejaVuSans-6e"/>
      <use x="1088.332031" xlink:href="#DejaVuSans-2b"/>
      <use x="1172.121094" xlink:href="#DejaVuSans-74"/>
      <use x="1211.330078" xlink:href="#DejaVuSans-61"/>
      <use x="1272.609375" xlink:href="#DejaVuSans-72"/>
      <use x="1313.707031" xlink:href="#DejaVuSans-67"/>
      <use x="1377.183594" xlink:href="#DejaVuSans-65"/>
      <use x="1438.707031" xlink:href="#DejaVuSans-74"/>
      <use x="1477.916016" xlink:href="#DejaVuSans-20"/>
      <use x="1509.703125" xlink:href="#DejaVuSans-70"/>
      <use x="1573.179688" xlink:href="#DejaVuSans-61"/>
      <use x="1634.458984" xlink:href="#DejaVuSans-69"/>
      <use x="1662.242188" xlink:href="#DejaVuSans-72"/>
      <use x="1703.355469" xlink:href="#DejaVuSans-73"/>
     </g>
    </g>
   </g>
   <g id="line2d_41">
    <defs>
     <path d="M 0 1.5 
C 0.397805 1.5 0.77937 1.341951 1.06066 1.06066 
C 1.341951 0.77937 1.5 0.397805 1.5 0 
C 1.5 -0.397805 1.341951 -0.77937 1.06066 -1.06066 
C 0.77937 -1.341951 0.397805 -1.5 0 -1.5 
C -0.397805 -1.5 -0.77937 -1.341951 -1.06066 -1.06066 
C -1.341951 -0.77937 -1.5 -0.397805 -1.5 0 
C -1.5 0.397805 -1.341951 0.77937 -1.06066 1.06066 
C -0.77937 1.341951 -0.397805 1.5 0 1.5 
z
" id="m8bbc55c9bd" style="stroke:#00bfbf;"/>
    </defs>
    <g>
     <use style="fill:#00bfbf;stroke:#00bfbf;" x="245.167907" xlink:href="#m8bbc55c9bd" y="153.591211"/>
     <use style="fill:#00bfbf;stroke:#00bfbf;" x="245.167907" xlink:href="#m8bbc55c9bd" y="153.591211"/>
    </g>
   </g>
   <g id="line2d_42">
    <path d="M 58.414766 298.245375 
L 58.414766 295.662265 
L 70.8 295.662265 
L 70.8 295.145643 
L 78.044898 295.145643 
L 78.044898 294.629021 
L 90.430132 294.629021 
L 90.430132 293.595777 
L 99.557623 293.595777 
L 99.557623 292.045911 
L 104.245578 292.045911 
L 104.245578 289.979423 
L 106.802521 289.979423 
L 106.802521 286.879691 
L 107.955702 286.879691 
L 107.955702 286.363069 
L 109.03895 286.363069 
L 109.03895 285.329825 
L 111.026343 285.329825 
L 111.026343 284.813203 
L 113.64587 284.813203 
L 113.64587 284.296581 
L 115.2006 284.296581 
L 115.2006 281.713471 
L 115.930012 281.713471 
L 115.930012 279.13036 
L 116.630812 279.13036 
L 116.630812 274.480762 
L 117.305161 274.480762 
L 117.305161 273.96414 
L 117.954982 273.96414 
L 117.954982 271.38103 
L 118.581998 271.38103 
L 118.581998 270.864408 
L 121.424184 270.864408 
L 121.424184 268.79792 
L 121.942137 268.79792 
L 121.942137 267.248054 
L 123.411577 267.248054 
L 123.411577 264.664944 
L 123.87571 264.664944 
L 123.87571 263.115078 
L 126.031105 263.115078 
L 126.031105 260.015346 
L 126.825374 260.015346 
L 126.825374 258.982102 
L 129.356402 258.982102 
L 129.356402 257.948858 
L 130.340216 257.948858 
L 130.340216 255.88237 
L 131.272677 255.88237 
L 131.272677 254.332504 
L 132.158881 254.332504 
L 132.158881 251.749394 
L 133.809418 251.749394 
L 133.809418 250.71615 
L 134.830731 250.71615 
L 134.830731 248.13304 
L 135.3203 248.13304 
L 135.3203 247.099796 
L 135.796811 247.099796 
L 135.796811 246.583173 
L 137.154536 246.583173 
L 137.154536 246.066551 
L 139.971068 246.066551 
L 139.971068 245.549929 
L 140.5209 245.549929 
L 140.5209 244.000063 
L 145.111405 244.000063 
L 145.111405 243.483441 
L 151.103576 243.483441 
L 151.103576 242.966819 
L 154.377948 242.966819 
L 154.377948 242.450197 
L 162.087689 242.450197 
L 162.087689 241.933575 
L 163.43883 241.933575 
L 163.43883 241.416953 
L 163.588354 241.416953 
L 163.588354 240.900331 
L 166.042425 240.900331 
L 166.042425 240.383709 
L 166.512104 240.383709 
L 166.596189 237.800599 
L 166.679881 237.800599 
L 166.679881 236.767355 
L 166.928629 236.767355 
L 166.928629 234.700867 
L 167.335665 234.700867 
L 167.415972 232.117757 
L 167.812177 232.117757 
L 167.812177 231.084513 
L 167.929345 231.084513 
L 167.929345 230.051269 
L 168.04575 230.051269 
L 168.04575 226.951537 
L 168.42838 226.951537 
L 168.503932 223.851805 
L 168.579166 223.851805 
L 168.579166 223.335183 
L 168.765878 223.335183 
L 168.765878 222.818561 
L 169.314583 222.818561 
L 169.422331 220.752073 
L 169.84694 220.752073 
L 169.84694 220.235451 
L 172.079255 220.235451 
L 172.079255 219.202207 
L 173.157056 219.202207 
L 173.157056 218.168963 
L 176.939668 218.168963 
L 176.939668 217.652341 
L 178.384343 217.652341 
L 178.492438 215.585853 
L 178.599883 215.585853 
L 178.599883 215.069231 
L 178.812855 215.069231 
L 178.918397 212.48612 
L 179.065115 212.48612 
L 179.127627 211.452876 
L 179.189922 211.452876 
L 179.189922 210.419632 
L 179.375513 210.419632 
L 179.477792 205.770034 
L 179.881153 205.770034 
L 179.940879 203.186924 
L 180.177808 203.186924 
L 180.177808 201.637058 
L 182.109369 201.637058 
L 182.109369 201.120436 
L 185.513213 201.120436 
L 185.614778 200.087192 
L 185.816192 200.087192 
L 185.916054 199.053948 
L 186.001208 199.053948 
L 186.001208 196.98746 
L 186.170308 196.98746 
L 186.170308 196.470838 
L 186.517542 196.470838 
L 186.517542 194.40435 
L 186.681848 194.40435 
L 186.681848 193.887728 
L 186.912058 193.887728 
L 186.912058 193.371106 
L 187.58541 193.371106 
L 187.58541 192.854484 
L 187.919163 192.854484 
L 187.919163 191.82124 
L 190.617136 191.82124 
L 190.617136 191.304618 
L 190.747879 191.304618 
L 190.747879 190.787996 
L 191.282572 190.787996 
L 191.314151 188.204886 
L 191.439909 188.204886 
L 191.439909 187.688264 
L 192.395542 187.688264 
L 192.395542 187.171642 
L 194.860516 187.171642 
L 194.93796 185.621776 
L 195.091849 185.621776 
L 195.19371 184.07191 
L 196.004532 184.07191 
L 196.004532 183.555288 
L 196.965077 183.555288 
L 196.965077 183.038666 
L 197.163274 183.038666 
L 197.163274 182.522044 
L 197.825546 182.522044 
L 197.825546 182.005422 
L 198.208578 182.005422 
L 198.294174 180.972178 
L 198.950855 180.972178 
L 198.950855 180.455556 
L 200.41849 180.455556 
L 200.506728 179.422312 
L 200.694354 179.422312 
L 200.694354 178.389067 
L 200.843049 178.389067 
L 200.86155 176.839201 
L 201.503224 176.839201 
L 201.503224 176.322579 
L 202.969534 176.322579 
L 203.035146 175.289335 
L 203.154811 175.289335 
L 203.154811 174.256091 
L 203.757134 174.256091 
L 203.757134 173.739469 
L 204.531566 173.739469 
L 204.531566 173.222847 
L 205.201452 173.222847 
L 205.21595 172.189603 
L 207.037575 172.189603 
L 207.050657 171.156359 
L 208.714395 171.156359 
L 208.714395 169.606493 
L 211.638744 169.606493 
L 211.638744 169.089871 
L 212.005865 169.089871 
L 212.005865 168.573249 
L 212.939053 168.573249 
L 212.939053 167.540005 
L 213.280651 167.540005 
L 213.280651 167.023383 
L 214.186243 167.023383 
L 214.186243 166.506761 
L 215.286166 166.506761 
L 215.286166 164.956895 
L 217.353113 164.956895 
L 217.353113 164.440273 
L 218.313778 164.440273 
L 218.313778 163.923651 
L 220.901947 163.923651 
L 220.901947 162.890407 
L 221.687572 162.890407 
L 221.687572 162.373785 
L 222.440104 162.373785 
L 222.440104 161.857163 
L 223.162219 161.857163 
L 223.162219 161.340541 
L 223.856281 161.340541 
L 223.856281 160.823919 
L 224.035776 160.823919 
L 224.035776 160.307297 
L 224.697328 160.307297 
L 224.697328 159.790675 
L 225.951195 159.790675 
L 225.951195 159.274053 
L 226.390744 159.274053 
L 226.390744 158.757431 
L 226.97192 158.757431 
L 226.989066 156.690943 
L 229.124228 156.690943 
L 229.124228 156.174321 
L 231.933022 156.174321 
L 231.933022 155.657699 
L 233.977437 155.657699 
L 233.977437 155.141077 
L 238.403658 155.141077 
L 238.403658 154.624455 
L 242.73801 154.624455 
L 242.73801 154.107833 
L 245.167907 154.107833 
L 245.167907 153.591211 
L 358.8 153.591211 
L 358.8 153.591211 
" style="fill:none;stroke:#00bfbf;stroke-linecap:square;stroke-width:1.5;"/>
   </g>
   <g id="line2d_43">
    <defs>
     <path d="M -6 0 
L 6 0 
M 0 6 
L 0 -6 
" id="m230cece503" style="stroke:#00bfbf;stroke-width:1.5;"/>
    </defs>
    <g>
     <use style="fill:none;stroke:#00bfbf;stroke-width:1.5;" x="118.581998" xlink:href="#m230cece503" y="271.38103"/>
     <use style="fill:none;stroke:#00bfbf;stroke-width:1.5;" x="178.384343" xlink:href="#m230cece503" y="217.135719"/>
     <use style="fill:none;stroke:#00bfbf;stroke-width:1.5;" x="217.353113" xlink:href="#m230cece503" y="164.440273"/>
     <use style="fill:none;stroke:#00bfbf;stroke-width:1.5;" x="245.167907" xlink:href="#m230cece503" y="154.107833"/>
     <use style="fill:none;stroke:#00bfbf;stroke-width:1.5;" x="245.167907" xlink:href="#m230cece503" y="153.591211"/>
     <use style="fill:none;stroke:#00bfbf;stroke-width:1.5;" x="358.8" xlink:href="#m230cece503" y="153.591211"/>
    </g>
   </g>
   <g id="line2d_44"/>
   <g id="line2d_45">
    <path clip-path="url(#p65ac8d5832)" d="M 165.470948 240.900331 
" style="fill:none;stroke:#00bfbf;stroke-linecap:square;stroke-width:1.5;"/>
    <defs>
     <path d="M -12 12 
L 12 -12 
M -12 -12 
L 12 12 
" id="m8f90809d56" style="stroke:#00bfbf;stroke-width:3;"/>
    </defs>
    <g clip-path="url(#p65ac8d5832)">
     <use style="fill:#00bfbf;stroke:#00bfbf;stroke-width:3;" x="165.470948" xlink:href="#m8f90809d56" y="240.900331"/>
    </g>
   </g>
   <g id="line2d_46">
    <defs>
     <path d="M 0 1.5 
C 0.397805 1.5 0.77937 1.341951 1.06066 1.06066 
C 1.341951 0.77937 1.5 0.397805 1.5 0 
C 1.5 -0.397805 1.341951 -0.77937 1.06066 -1.06066 
C 0.77937 -1.341951 0.397805 -1.5 0 -1.5 
C -0.397805 -1.5 -0.77937 -1.341951 -1.06066 -1.06066 
C -1.341951 -0.77937 -1.5 -0.397805 -1.5 0 
C -1.5 0.397805 -1.341951 0.77937 -1.06066 1.06066 
C -0.77937 1.341951 -0.397805 1.5 0 1.5 
z
" id="m93548220ce" style="stroke:#008000;"/>
    </defs>
    <g>
     <use style="fill:#008000;stroke:#008000;" x="247.636543" xlink:href="#m93548220ce" y="138.09255"/>
     <use style="fill:#008000;stroke:#008000;" x="247.636543" xlink:href="#m93548220ce" y="138.09255"/>
    </g>
   </g>
   <g id="line2d_47">
    <path d="M 83.185234 298.245375 
L 83.185234 297.728753 
L 110.710085 297.728753 
L 110.710085 297.212131 
L 111.942857 297.212131 
L 111.942857 293.595777 
L 116.166679 293.595777 
L 116.166679 291.012667 
L 116.630812 291.012667 
L 116.630812 288.946179 
L 117.083194 288.946179 
L 117.083194 287.912935 
L 119.187755 287.912935 
L 119.187755 286.363069 
L 120.709364 286.363069 
L 120.709364 285.846447 
L 121.070349 285.846447 
L 121.070349 285.329825 
L 123.095319 285.329825 
L 123.095319 283.779959 
L 124.913984 283.779959 
L 124.913984 280.163604 
L 125.481273 280.163604 
L 125.481273 279.646982 
L 125.758304 279.646982 
L 125.758304 278.097116 
L 126.564521 278.097116 
L 126.564521 276.030628 
L 126.825374 276.030628 
L 126.825374 275.514006 
L 127.832295 275.514006 
L 127.832295 274.997384 
L 128.075402 274.997384 
L 128.075402 272.930896 
L 128.551913 272.930896 
L 128.551913 272.414274 
L 129.243669 272.414274 
L 129.243669 271.897652 
L 129.468428 271.897652 
L 129.468428 269.314542 
L 130.126224 269.314542 
L 130.126224 266.731432 
L 130.967232 266.731432 
L 130.967232 265.698188 
L 131.373343 265.698188 
L 131.373343 263.6317 
L 132.158881 263.6317 
L 132.158881 263.115078 
L 132.911334 263.115078 
L 132.911334 260.531968 
L 133.094598 260.531968 
L 133.094598 260.015346 
L 133.276002 260.015346 
L 133.276002 257.432236 
L 133.455583 257.432236 
L 133.455583 256.915614 
L 133.633376 256.915614 
L 133.633376 256.398992 
L 133.983743 256.398992 
L 133.983743 254.849126 
L 136.107569 254.849126 
L 136.107569 253.29926 
L 137.442737 253.29926 
L 137.442737 250.199528 
L 137.726364 250.199528 
L 137.726364 249.682906 
L 138.005559 249.682906 
L 138.005559 249.166284 
L 138.551193 249.166284 
L 138.551193 247.616418 
L 138.817886 247.616418 
L 138.817886 246.583173 
L 140.094723 246.583173 
L 140.094723 246.066551 
L 140.460636 246.066551 
L 140.460636 244.516685 
L 141.853662 244.516685 
L 141.853662 244.000063 
L 142.72545 244.000063 
L 142.72545 241.933575 
L 143.454862 241.933575 
L 143.454862 241.416953 
L 144.830011 241.416953 
L 144.924302 240.383709 
L 145.661236 240.383709 
L 145.661236 238.833843 
L 146.541617 238.833843 
L 146.541617 237.800599 
L 147.624865 237.800599 
L 147.624865 236.767355 
L 149.246843 236.767355 
L 149.246843 235.734111 
L 151.40056 235.734111 
L 151.40056 235.217489 
L 153.20444 235.217489 
L 153.20444 234.700867 
L 158.001292 234.700867 
L 158.001292 234.184245 
L 158.270665 234.184245 
L 158.270665 233.667623 
L 159.765884 233.667623 
L 159.765884 233.151001 
L 160.010099 233.151001 
L 160.010099 232.634379 
L 161.852221 232.634379 
L 161.852221 232.117757 
L 164.238176 232.117757 
L 164.238176 231.601135 
L 164.585754 231.601135 
L 164.585754 230.567891 
L 168.019948 230.567891 
L 168.019948 230.051269 
L 170.273077 230.051269 
L 170.295825 228.501403 
L 171.757486 228.501403 
L 171.757486 227.984781 
L 173.473824 227.984781 
L 173.473824 226.951537 
L 174.017312 226.951537 
L 174.017312 226.434915 
L 174.526824 226.434915 
L 174.544755 225.401671 
L 175.074481 225.401671 
L 175.178567 223.851805 
L 175.29924 223.851805 
L 175.384939 222.301939 
L 175.436161 222.301939 
L 175.436161 221.268695 
L 175.773943 221.268695 
L 175.84074 219.202207 
L 176.138273 219.202207 
L 176.138273 217.652341 
L 176.268936 217.652341 
L 176.268936 215.585853 
L 176.639356 215.585853 
L 176.671207 214.552609 
L 176.970988 214.552609 
L 176.970988 214.035987 
L 177.403801 214.035987 
L 177.403801 213.519365 
L 177.885938 213.519365 
L 177.885938 213.002743 
L 178.004466 213.002743 
L 178.004466 212.48612 
L 179.13456 212.48612 
L 179.13456 211.969498 
L 181.494504 211.969498 
L 181.494504 211.452876 
L 182.906954 211.452876 
L 182.906954 210.419632 
L 184.14272 210.419632 
L 184.14272 209.90301 
L 184.628324 209.90301 
L 184.628324 209.386388 
L 186.300733 209.386388 
L 186.300733 208.869766 
L 186.894109 208.869766 
L 186.965797 206.286656 
L 187.170311 206.286656 
L 187.170311 205.253412 
L 193.299513 205.253412 
L 193.299513 203.186924 
L 193.449457 203.186924 
L 193.449457 202.670302 
L 193.561094 202.670302 
L 193.610487 201.120436 
L 193.763968 201.120436 
L 193.763968 200.087192 
L 194.048991 200.087192 
L 194.048991 199.57057 
L 194.750948 199.57057 
L 194.750948 199.053948 
L 198.206194 199.053948 
L 198.206194 198.020704 
L 198.40531 198.020704 
L 198.442987 196.98746 
L 202.242861 196.98746 
L 202.337692 195.437594 
L 203.608005 195.437594 
L 203.608005 194.920972 
L 205.278637 194.920972 
L 205.37465 192.337862 
L 205.447913 192.337862 
L 205.447913 191.304618 
L 205.603 191.304618 
L 205.603 190.787996 
L 207.900498 190.787996 
L 207.900498 190.271374 
L 208.038519 190.271374 
L 208.101653 188.204886 
L 210.336954 188.204886 
L 210.416566 186.138398 
L 210.529345 186.138398 
L 210.529345 185.105154 
L 212.299641 185.105154 
L 212.407632 184.07191 
L 212.45709 184.07191 
L 212.461384 182.522044 
L 214.144284 182.522044 
L 214.196961 180.455556 
L 214.292164 180.455556 
L 214.386863 177.872445 
L 215.821523 177.872445 
L 215.915552 175.289335 
L 215.956204 175.289335 
L 215.956204 174.256091 
L 217.359643 174.256091 
L 217.441061 172.706225 
L 217.47839 172.706225 
L 217.481632 171.156359 
L 218.881019 171.156359 
L 218.884016 169.089871 
L 220.079484 169.089871 
L 220.184299 167.023383 
L 221.298422 167.023383 
L 221.39374 165.473517 
L 222.43949 165.473517 
L 222.531369 162.373785 
L 223.53516 162.373785 
L 223.598581 161.340541 
L 223.6526 161.340541 
L 223.6526 160.823919 
L 224.523842 160.823919 
L 224.605628 158.757431 
L 224.656691 158.757431 
L 224.656691 158.240809 
L 225.481405 158.240809 
L 225.502112 157.207565 
L 225.607347 157.207565 
L 225.607347 156.174321 
L 226.439413 156.174321 
L 226.463943 154.624455 
L 228.124744 154.624455 
L 228.124744 154.107833 
L 228.868518 154.107833 
L 228.868518 153.591211 
L 229.623692 153.591211 
L 229.640116 152.557967 
L 230.34824 152.557967 
L 230.387644 151.008101 
L 231.042272 151.008101 
L 231.082448 149.974857 
L 231.751243 149.974857 
L 231.751243 148.941613 
L 232.395906 148.941613 
L 232.412079 147.908369 
L 233.018117 147.908369 
L 233.018117 147.391747 
L 233.619389 147.391747 
L 233.619389 146.875125 
L 234.201085 146.875125 
L 234.201085 146.358503 
L 234.759509 146.358503 
L 234.759509 145.841881 
L 235.280667 145.841881 
L 235.280667 145.325259 
L 235.840509 145.325259 
L 235.840509 144.808637 
L 236.33826 144.808637 
L 236.33826 144.292014 
L 238.277301 144.292014 
L 238.277301 143.775392 
L 239.177078 143.775392 
L 239.177078 143.25877 
L 240.431626 143.25877 
L 240.431626 142.742148 
L 240.798909 142.742148 
L 240.798909 142.225526 
L 241.221583 142.225526 
L 241.221583 141.192282 
L 243.035442 141.192282 
L 243.047074 140.159038 
L 245.335959 140.159038 
L 245.335959 139.642416 
L 245.62349 139.642416 
L 245.62349 139.125794 
L 246.2412 139.125794 
L 246.2412 138.609172 
L 247.636543 138.609172 
L 247.636543 138.09255 
L 358.8 138.09255 
L 358.8 138.09255 
" style="fill:none;stroke:#008000;stroke-linecap:square;stroke-width:1.5;"/>
   </g>
   <g id="line2d_48">
    <defs>
     <path d="M -0 6 
L 6 -6 
L -6 -6 
z
" id="m366222849d" style="stroke:#008000;stroke-linejoin:miter;stroke-width:1.5;"/>
    </defs>
    <g>
     <use style="fill:none;stroke:#008000;stroke-linejoin:miter;stroke-width:1.5;" x="132.911334" xlink:href="#m366222849d" y="263.115078"/>
     <use style="fill:none;stroke:#008000;stroke-linejoin:miter;stroke-width:1.5;" x="187.170311" xlink:href="#m366222849d" y="205.253412"/>
     <use style="fill:none;stroke:#008000;stroke-linejoin:miter;stroke-width:1.5;" x="235.840509" xlink:href="#m366222849d" y="145.325259"/>
     <use style="fill:none;stroke:#008000;stroke-linejoin:miter;stroke-width:1.5;" x="247.636543" xlink:href="#m366222849d" y="138.09255"/>
     <use style="fill:none;stroke:#008000;stroke-linejoin:miter;stroke-width:1.5;" x="358.8" xlink:href="#m366222849d" y="138.09255"/>
    </g>
   </g>
   <g id="line2d_49"/>
   <g id="line2d_50">
    <path clip-path="url(#p65ac8d5832)" d="M 172.715846 227.984781 
" style="fill:none;stroke:#008000;stroke-linecap:square;stroke-width:1.5;"/>
    <defs>
     <path d="M -12 12 
L 12 -12 
M -12 -12 
L 12 12 
" id="mf9f2144214" style="stroke:#008000;stroke-width:3;"/>
    </defs>
    <g clip-path="url(#p65ac8d5832)">
     <use style="fill:#008000;stroke:#008000;stroke-width:3;" x="172.715846" xlink:href="#mf9f2144214" y="227.984781"/>
    </g>
   </g>
   <g id="line2d_51">
    <defs>
     <path d="M 0 1.5 
C 0.397805 1.5 0.77937 1.341951 1.06066 1.06066 
C 1.341951 0.77937 1.5 0.397805 1.5 0 
C 1.5 -0.397805 1.341951 -0.77937 1.06066 -1.06066 
C 0.77937 -1.341951 0.397805 -1.5 0 -1.5 
C -0.397805 -1.5 -0.77937 -1.341951 -1.06066 -1.06066 
C -1.341951 -0.77937 -1.5 -0.397805 -1.5 0 
C -1.5 0.397805 -1.341951 0.77937 -1.06066 1.06066 
C -0.77937 1.341951 -0.397805 1.5 0 1.5 
z
" id="m3f263a0f1f" style="stroke:#0000ff;"/>
    </defs>
    <g>
     <use style="fill:#0000ff;stroke:#0000ff;" x="247.84098" xlink:href="#m3f263a0f1f" y="210.419632"/>
     <use style="fill:#0000ff;stroke:#0000ff;" x="247.84098" xlink:href="#m3f263a0f1f" y="210.419632"/>
    </g>
   </g>
   <g id="line2d_52">
    <path d="M 117.954982 298.245375 
L 117.954982 297.728753 
L 118.208435 297.728753 
L 118.208435 297.212131 
L 118.947911 297.212131 
L 118.947911 296.695509 
L 122.838219 296.695509 
L 122.838219 296.178887 
L 123.783843 296.178887 
L 123.783843 295.145643 
L 123.967107 295.145643 
L 123.967107 294.112399 
L 124.505885 294.112399 
L 124.505885 293.079155 
L 125.19988 293.079155 
L 125.19988 292.562533 
L 125.70324 292.562533 
L 125.70324 292.045911 
L 126.669319 292.045911 
L 126.669319 291.012667 
L 127.436309 291.012667 
L 127.436309 287.912935 
L 127.585834 287.912935 
L 127.585834 287.396313 
L 128.027044 287.396313 
L 128.027044 286.363069 
L 128.315246 286.363069 
L 128.315246 285.329825 
L 129.016046 285.329825 
L 129.016046 284.813203 
L 129.152967 284.813203 
L 129.152967 284.296581 
L 129.288847 284.296581 
L 129.288847 283.263337 
L 129.557546 283.263337 
L 129.557546 282.746715 
L 129.690395 282.746715 
L 129.690395 282.230093 
L 129.822263 282.230093 
L 129.822263 281.713471 
L 129.953166 281.713471 
L 129.953166 281.196849 
L 130.467392 281.196849 
L 130.467392 279.646982 
L 130.843577 279.646982 
L 130.843577 279.13036 
L 132.273789 279.13036 
L 132.273789 278.097116 
L 132.948138 278.097116 
L 132.948138 277.063872 
L 133.383967 277.063872 
L 133.491283 276.030628 
L 134.121988 276.030628 
L 134.121988 275.514006 
L 134.631086 275.514006 
L 134.631086 274.997384 
L 134.830731 274.997384 
L 134.830731 274.480762 
L 135.126079 274.480762 
L 135.223453 273.447518 
L 135.512432 273.447518 
L 135.607728 270.864408 
L 135.796811 270.864408 
L 135.796811 269.831164 
L 135.983913 269.831164 
L 135.983913 269.314542 
L 136.352341 269.314542 
L 136.443273 266.731432 
L 136.802443 266.731432 
L 136.802443 266.21481 
L 137.499824 266.21481 
L 137.499824 264.664944 
L 137.669998 264.664944 
L 137.669998 263.6317 
L 138.005559 263.6317 
L 138.005559 263.115078 
L 139.132751 263.115078 
L 139.132751 262.598456 
L 139.821543 262.598456 
L 139.821543 262.081834 
L 140.119352 262.081834 
L 140.119352 261.565212 
L 140.628864 261.565212 
L 140.628864 260.531968 
L 143.413974 260.531968 
L 143.413974 260.015346 
L 145.222733 260.015346 
L 145.222733 259.498724 
L 152.093807 259.498724 
L 152.093807 258.982102 
L 158.100534 258.982102 
L 158.100534 258.46548 
L 159.225015 258.46548 
L 159.225015 257.948858 
L 160.520196 257.948858 
L 160.520196 257.432236 
L 161.122809 257.432236 
L 161.122809 256.915614 
L 161.815719 256.915614 
L 161.815719 256.398992 
L 162.609035 256.398992 
L 162.609035 255.365748 
L 164.000487 255.365748 
L 164.000487 254.849126 
L 164.516777 254.849126 
L 164.516777 253.815882 
L 165.000231 253.815882 
L 165.000231 253.29926 
L 165.255234 253.29926 
L 165.255234 252.782638 
L 165.648742 252.782638 
L 165.648742 251.749394 
L 166.223217 251.749394 
L 166.223217 251.232772 
L 167.463983 251.232772 
L 167.463983 250.71615 
L 170.766951 250.71615 
L 170.766951 249.166284 
L 171.559487 249.166284 
L 171.559487 248.13304 
L 175.572041 248.13304 
L 175.572041 247.616418 
L 175.844073 247.616418 
L 175.844073 246.583173 
L 178.479501 246.583173 
L 178.479501 246.066551 
L 180.134605 246.066551 
L 180.134605 245.549929 
L 181.269591 245.549929 
L 181.269591 245.033307 
L 182.364557 245.033307 
L 182.364557 244.516685 
L 182.674237 244.516685 
L 182.75592 243.483441 
L 182.823705 243.483441 
L 182.823705 242.966819 
L 183.072298 242.966819 
L 183.152185 241.416953 
L 183.225103 241.416953 
L 183.225103 240.900331 
L 183.455153 240.900331 
L 183.455153 240.383709 
L 183.656468 240.383709 
L 183.669379 238.317221 
L 183.810782 238.317221 
L 183.810782 237.800599 
L 184.939539 237.800599 
L 184.939539 237.283977 
L 186.147854 237.283977 
L 186.147854 236.767355 
L 186.885128 236.767355 
L 186.885128 236.250733 
L 187.906441 236.250733 
L 187.906441 235.734111 
L 188.447941 235.734111 
L 188.447941 235.217489 
L 189.390611 235.217489 
L 189.390611 234.700867 
L 189.816503 234.700867 
L 189.903209 233.151001 
L 192.625696 233.151001 
L 192.625696 232.634379 
L 193.944001 232.634379 
L 193.944001 232.117757 
L 194.480514 232.117757 
L 194.480514 231.601135 
L 194.6244 231.601135 
L 194.6244 231.084513 
L 195.052648 231.084513 
L 195.117369 229.534647 
L 195.164909 229.534647 
L 195.239359 228.501403 
L 197.249488 228.501403 
L 197.249488 227.984781 
L 200.92185 227.984781 
L 200.92185 227.468159 
L 202.036291 227.468159 
L 202.036291 226.951537 
L 202.566244 226.951537 
L 202.566244 225.918293 
L 203.956244 225.918293 
L 203.956244 225.401671 
L 205.03632 225.401671 
L 205.03632 224.885049 
L 207.088107 224.885049 
L 207.126346 223.335183 
L 211.012162 223.335183 
L 211.012162 222.818561 
L 212.439903 222.818561 
L 212.439903 222.301939 
L 213.233219 222.301939 
L 213.233219 221.785317 
L 214.260357 221.785317 
L 214.260357 221.268695 
L 214.413443 221.268695 
L 214.413443 220.235451 
L 217.94564 220.235451 
L 217.94564 219.718829 
L 219.237764 219.718829 
L 219.237764 219.202207 
L 220.17036 219.202207 
L 220.17036 218.685585 
L 222.148502 218.685585 
L 222.148502 218.168963 
L 222.613537 218.168963 
L 222.613537 217.652341 
L 223.192978 217.652341 
L 223.192978 217.135719 
L 223.929313 217.135719 
L 223.929313 216.102475 
L 224.350752 216.102475 
L 224.350752 215.585853 
L 224.877292 215.585853 
L 224.877292 215.069231 
L 227.033286 215.069231 
L 227.033286 214.552609 
L 230.455059 214.552609 
L 230.455059 214.035987 
L 231.97953 214.035987 
L 231.97953 213.519365 
L 233.589802 213.519365 
L 233.623725 212.48612 
L 234.564046 212.48612 
L 234.564046 211.969498 
L 234.957491 211.969498 
L 234.957491 211.452876 
L 243.511923 211.452876 
L 243.511923 210.936254 
L 247.84098 210.936254 
L 247.84098 210.419632 
L 358.8 210.419632 
L 358.8 210.419632 
" style="fill:none;stroke:#0000ff;stroke-linecap:square;stroke-width:1.5;"/>
   </g>
   <g id="line2d_53">
    <defs>
     <path d="M 0 -6 
L -1.347084 -1.854102 
L -5.706339 -1.854102 
L -2.179628 0.708204 
L -3.526712 4.854102 
L -0 2.291796 
L 3.526712 4.854102 
L 2.179628 0.708204 
L 5.706339 -1.854102 
L 1.347084 -1.854102 
z
" id="ma42814c36e" style="stroke:#0000ff;stroke-linejoin:bevel;stroke-width:1.5;"/>
    </defs>
    <g>
     <use style="fill:none;stroke:#0000ff;stroke-linejoin:bevel;stroke-width:1.5;" x="159.225015" xlink:href="#ma42814c36e" y="257.948858"/>
     <use style="fill:none;stroke:#0000ff;stroke-linejoin:bevel;stroke-width:1.5;" x="207.126346" xlink:href="#ma42814c36e" y="223.335183"/>
     <use style="fill:none;stroke:#0000ff;stroke-linejoin:bevel;stroke-width:1.5;" x="247.84098" xlink:href="#ma42814c36e" y="210.936254"/>
     <use style="fill:none;stroke:#0000ff;stroke-linejoin:bevel;stroke-width:1.5;" x="247.84098" xlink:href="#ma42814c36e" y="210.419632"/>
     <use style="fill:none;stroke:#0000ff;stroke-linejoin:bevel;stroke-width:1.5;" x="358.8" xlink:href="#ma42814c36e" y="210.419632"/>
    </g>
   </g>
   <g id="line2d_54"/>
   <g id="line2d_55">
    <path clip-path="url(#p65ac8d5832)" d="M 181.843337 245.033307 
" style="fill:none;stroke:#0000ff;stroke-linecap:square;stroke-width:1.5;"/>
    <defs>
     <path d="M -12 12 
L 12 -12 
M -12 -12 
L 12 12 
" id="m3b3b71a728" style="stroke:#0000ff;stroke-width:3;"/>
    </defs>
    <g clip-path="url(#p65ac8d5832)">
     <use style="fill:#0000ff;stroke:#0000ff;stroke-width:3;" x="181.843337" xlink:href="#m3b3b71a728" y="245.033307"/>
    </g>
   </g>
   <g id="line2d_56">
    <defs>
     <path d="M 0 1.5 
C 0.397805 1.5 0.77937 1.341951 1.06066 1.06066 
C 1.341951 0.77937 1.5 0.397805 1.5 0 
C 1.5 -0.397805 1.341951 -0.77937 1.06066 -1.06066 
C 0.77937 -1.341951 0.397805 -1.5 0 -1.5 
C -0.397805 -1.5 -0.77937 -1.341951 -1.06066 -1.06066 
C -1.341951 -0.77937 -1.5 -0.397805 -1.5 0 
C -1.5 0.397805 -1.341951 0.77937 -1.06066 1.06066 
C -0.77937 1.341951 -0.397805 1.5 0 1.5 
z
" id="mbb051389e8" style="stroke:#000000;"/>
    </defs>
    <g>
     <use style="stroke:#000000;" x="253.708509" xlink:href="#mbb051389e8" y="236.250733"/>
     <use style="stroke:#000000;" x="253.708509" xlink:href="#mbb051389e8" y="236.250733"/>
    </g>
   </g>
   <g id="line2d_57">
    <path d="M 125.620325 298.245375 
L 125.620325 297.728753 
L 131.572989 297.728753 
L 131.63245 295.662265 
L 132.101149 295.662265 
L 132.101149 295.145643 
L 132.273789 295.145643 
L 132.273789 294.629021 
L 132.614144 294.629021 
L 132.614144 294.112399 
L 133.437706 294.112399 
L 133.437706 293.595777 
L 133.809418 293.595777 
L 133.914217 292.562533 
L 134.276246 292.562533 
L 134.276246 292.045911 
L 134.731187 292.045911 
L 134.830731 289.979423 
L 134.880296 289.979423 
L 134.880296 289.462801 
L 135.223453 289.462801 
L 135.3203 288.429557 
L 135.416624 288.429557 
L 135.416624 287.912935 
L 135.560144 287.912935 
L 135.655187 286.879691 
L 136.030384 286.879691 
L 136.030384 286.363069 
L 136.397865 286.363069 
L 136.397865 285.846447 
L 136.578809 285.846447 
L 136.623761 284.813203 
L 136.75794 284.813203 
L 136.75794 284.296581 
L 137.110902 284.296581 
L 137.110902 283.779959 
L 137.627606 283.779959 
L 137.627606 282.746715 
L 138.129788 282.746715 
L 138.129788 282.230093 
L 138.416339 282.230093 
L 138.416339 281.713471 
L 138.658348 281.713471 
L 138.658348 281.196849 
L 140.193035 281.196849 
L 140.193035 280.680226 
L 141.538202 280.680226 
L 141.538202 280.163604 
L 141.741636 280.163604 
L 141.741636 279.646982 
L 142.852626 279.646982 
L 142.915876 278.613738 
L 144.399433 278.613738 
L 144.399433 278.097116 
L 146.584518 278.097116 
L 146.584518 277.063872 
L 148.299213 277.063872 
L 148.299213 276.54725 
L 149.342572 276.54725 
L 149.342572 275.514006 
L 152.430598 275.514006 
L 152.430598 274.997384 
L 154.837393 274.997384 
L 154.837393 274.480762 
L 155.078748 274.480762 
L 155.078748 273.96414 
L 155.845201 273.96414 
L 155.845201 273.447518 
L 157.001253 273.447518 
L 157.001253 272.414274 
L 157.398654 272.414274 
L 157.398654 271.38103 
L 161.383002 271.38103 
L 161.383002 270.864408 
L 161.63946 270.864408 
L 161.63946 269.831164 
L 162.482758 269.831164 
L 162.482758 269.314542 
L 163.864163 269.314542 
L 163.971363 267.764676 
L 167.511865 267.764676 
L 167.511865 267.248054 
L 170.007068 267.248054 
L 170.007068 266.731432 
L 170.9059 266.731432 
L 170.9059 265.698188 
L 171.297046 265.698188 
L 171.297046 265.181566 
L 176.496929 265.181566 
L 176.496929 264.664944 
L 178.016276 264.664944 
L 178.016276 263.115078 
L 180.923061 263.115078 
L 180.923061 262.598456 
L 183.620916 262.598456 
L 183.620916 262.081834 
L 187.442308 262.081834 
L 187.442308 261.565212 
L 189.402319 261.565212 
L 189.402319 260.531968 
L 190.250348 260.531968 
L 190.250348 260.015346 
L 190.425843 260.015346 
L 190.425843 259.498724 
L 191.030053 259.498724 
L 191.030053 258.982102 
L 191.195972 258.982102 
L 191.195972 258.46548 
L 192.098083 258.46548 
L 192.124234 257.432236 
L 192.38564 257.432236 
L 192.38564 256.915614 
L 192.800741 256.915614 
L 192.800741 256.398992 
L 193.599386 256.398992 
L 193.599386 255.88237 
L 193.962147 255.88237 
L 193.962147 254.332504 
L 194.829444 254.332504 
L 194.903582 253.29926 
L 194.9637 253.29926 
L 195.008229 252.266016 
L 197.244961 252.266016 
L 197.244961 251.749394 
L 198.514823 251.749394 
L 198.514823 251.232772 
L 200.983173 251.232772 
L 200.983173 250.71615 
L 201.171946 250.71615 
L 201.171946 250.199528 
L 203.787509 250.199528 
L 203.787509 249.682906 
L 203.92304 249.682906 
L 203.92304 249.166284 
L 205.08602 249.166284 
L 205.161766 247.616418 
L 205.580296 247.616418 
L 205.592597 246.583173 
L 206.930816 246.583173 
L 207.03234 245.549929 
L 209.519678 245.549929 
L 209.519678 245.033307 
L 209.976216 245.033307 
L 209.976216 244.516685 
L 210.385246 244.516685 
L 210.385246 244.000063 
L 212.854829 244.000063 
L 212.854829 243.483441 
L 213.288032 243.483441 
L 213.288032 242.966819 
L 216.45927 242.966819 
L 216.45927 242.450197 
L 218.652636 242.450197 
L 218.652636 241.933575 
L 218.843808 241.933575 
L 218.843808 241.416953 
L 220.195861 241.416953 
L 220.195861 240.900331 
L 220.716666 240.900331 
L 220.716666 240.383709 
L 222.645983 240.383709 
L 222.645983 239.867087 
L 225.96088 239.867087 
L 225.96088 239.350465 
L 227.605018 239.350465 
L 227.605018 238.833843 
L 231.306827 238.833843 
L 231.306827 238.317221 
L 235.202133 238.317221 
L 235.202133 237.800599 
L 241.262792 237.800599 
L 241.262792 237.283977 
L 243.663886 237.283977 
L 243.663886 236.767355 
L 253.708509 236.767355 
L 253.708509 236.250733 
L 358.8 236.250733 
L 358.8 236.250733 
" style="fill:none;stroke:#000000;stroke-linecap:square;stroke-width:1.5;"/>
   </g>
   <g id="line2d_58">
    <defs>
     <path d="M 0 6 
C 1.591219 6 3.117479 5.367802 4.242641 4.242641 
C 5.367802 3.117479 6 1.591219 6 0 
C 6 -1.591219 5.367802 -3.117479 4.242641 -4.242641 
C 3.117479 -5.367802 1.591219 -6 0 -6 
C -1.591219 -6 -3.117479 -5.367802 -4.242641 -4.242641 
C -5.367802 -3.117479 -6 -1.591219 -6 0 
C -6 1.591219 -5.367802 3.117479 -4.242641 4.242641 
C -3.117479 5.367802 -1.591219 6 0 6 
z
" id="m00fb9e36b7" style="stroke:#000000;stroke-width:1.5;"/>
    </defs>
    <g>
     <use style="fill:none;stroke:#000000;stroke-width:1.5;" x="140.193035" xlink:href="#m00fb9e36b7" y="280.680226"/>
     <use style="fill:none;stroke:#000000;stroke-width:1.5;" x="203.787509" xlink:href="#m00fb9e36b7" y="250.199528"/>
     <use style="fill:none;stroke:#000000;stroke-width:1.5;" x="253.708509" xlink:href="#m00fb9e36b7" y="236.767355"/>
     <use style="fill:none;stroke:#000000;stroke-width:1.5;" x="253.708509" xlink:href="#m00fb9e36b7" y="236.250733"/>
     <use style="fill:none;stroke:#000000;stroke-width:1.5;" x="358.8" xlink:href="#m00fb9e36b7" y="236.250733"/>
    </g>
   </g>
   <g id="line2d_59"/>
   <g id="line2d_60">
    <path clip-path="url(#p65ac8d5832)" d="M 194.228571 254.332504 
" style="fill:none;stroke:#000000;stroke-linecap:square;stroke-width:1.5;"/>
    <defs>
     <path d="M -12 12 
L 12 -12 
M -12 -12 
L 12 12 
" id="ma8f0fe3f60" style="stroke:#000000;stroke-width:3;"/>
    </defs>
    <g clip-path="url(#p65ac8d5832)">
     <use style="stroke:#000000;stroke-width:3;" x="194.228571" xlink:href="#ma8f0fe3f60" y="254.332504"/>
    </g>
   </g>
   <g id="line2d_61">
    <defs>
     <path d="M 0 1.5 
C 0.397805 1.5 0.77937 1.341951 1.06066 1.06066 
C 1.341951 0.77937 1.5 0.397805 1.5 0 
C 1.5 -0.397805 1.341951 -0.77937 1.06066 -1.06066 
C 0.77937 -1.341951 0.397805 -1.5 0 -1.5 
C -0.397805 -1.5 -0.77937 -1.341951 -1.06066 -1.06066 
C -1.341951 -0.77937 -1.5 -0.397805 -1.5 0 
C -1.5 0.397805 -1.341951 0.77937 -1.06066 1.06066 
C -0.77937 1.341951 -0.397805 1.5 0 1.5 
z
" id="m81504d4f9d" style="stroke:#ff0000;"/>
    </defs>
    <g>
     <use style="fill:#ff0000;stroke:#ff0000;" x="274.89699" xlink:href="#m81504d4f9d" y="241.416953"/>
     <use style="fill:#ff0000;stroke:#ff0000;" x="274.89699" xlink:href="#m81504d4f9d" y="241.416953"/>
    </g>
   </g>
   <g id="line2d_62">
    <path d="M 132.187677 298.245375 
L 132.187677 297.728753 
L 133.330066 297.728753 
L 133.330066 297.212131 
L 134.301827 297.212131 
L 134.301827 295.662265 
L 134.55564 295.662265 
L 134.55564 295.145643 
L 134.706214 295.145643 
L 134.706214 294.629021 
L 134.905027 294.629021 
L 134.905027 294.112399 
L 135.867204 294.112399 
L 135.867204 293.595777 
L 136.979357 293.595777 
L 137.023313 291.012667 
L 137.414126 291.012667 
L 137.414126 290.496045 
L 137.648815 290.496045 
L 137.648815 289.979423 
L 139.015326 289.979423 
L 139.015326 289.462801 
L 139.63286 289.462801 
L 139.63286 288.429557 
L 140.610916 288.429557 
L 140.610916 287.912935 
L 143.151089 287.912935 
L 143.151089 286.363069 
L 144.413954 286.363069 
L 144.413954 284.813203 
L 147.091449 284.813203 
L 147.091449 283.779959 
L 152.906134 283.779959 
L 152.906134 283.263337 
L 166.742393 283.263337 
L 166.742393 282.746715 
L 170.275353 282.746715 
L 170.275353 281.713471 
L 170.620217 281.713471 
L 170.620217 281.196849 
L 171.144865 281.196849 
L 171.144865 280.680226 
L 176.840649 280.680226 
L 176.840649 279.646982 
L 182.439026 279.646982 
L 182.439026 279.13036 
L 183.020513 279.13036 
L 183.020513 278.097116 
L 183.258149 278.097116 
L 183.258149 277.580494 
L 183.533351 277.580494 
L 183.533351 277.063872 
L 183.706444 277.063872 
L 183.706444 276.54725 
L 186.344769 276.54725 
L 186.344769 276.030628 
L 191.771001 276.030628 
L 191.771001 275.514006 
L 192.709543 275.514006 
L 192.709543 273.96414 
L 194.033643 273.96414 
L 194.033643 273.447518 
L 195.881158 273.447518 
L 195.881158 272.930896 
L 198.646474 272.930896 
L 198.646474 272.414274 
L 199.128309 272.414274 
L 199.194741 271.38103 
L 199.277772 271.38103 
L 199.316791 270.347786 
L 199.458026 270.347786 
L 199.458026 269.831164 
L 199.706313 269.831164 
L 199.806632 268.79792 
L 203.230006 268.79792 
L 203.304349 267.248054 
L 203.422231 267.248054 
L 203.422231 266.731432 
L 204.619185 266.731432 
L 204.619185 265.698188 
L 204.906548 265.698188 
L 204.906548 265.181566 
L 205.296438 265.181566 
L 205.296438 264.664944 
L 206.960633 264.664944 
L 207.03234 263.115078 
L 208.851286 263.115078 
L 208.851286 262.598456 
L 209.881224 262.598456 
L 209.881224 262.081834 
L 211.596545 262.081834 
L 211.596545 261.565212 
L 213.440193 261.565212 
L 213.440193 261.04859 
L 215.749157 261.04859 
L 215.810402 258.982102 
L 216.47008 258.982102 
L 216.47008 258.46548 
L 224.182598 258.46548 
L 224.182598 257.948858 
L 224.410908 257.948858 
L 224.410908 257.432236 
L 225.209796 257.432236 
L 225.209796 256.915614 
L 225.603489 256.915614 
L 225.603489 256.398992 
L 225.910888 256.398992 
L 225.910888 255.365748 
L 230.02743 255.365748 
L 230.02743 254.849126 
L 230.340467 254.849126 
L 230.340467 254.332504 
L 230.597536 254.332504 
L 230.614333 252.266016 
L 231.063925 252.266016 
L 231.135071 251.232772 
L 234.151414 251.232772 
L 234.163367 249.166284 
L 234.758153 249.166284 
L 234.758153 248.649662 
L 237.628211 248.649662 
L 237.628211 248.13304 
L 240.620874 248.13304 
L 240.620874 247.616418 
L 243.388684 247.616418 
L 243.388684 247.099796 
L 245.763741 247.099796 
L 245.763741 246.583173 
L 248.92066 246.583173 
L 248.92066 246.066551 
L 249.183521 246.066551 
L 249.183521 245.549929 
L 250.516149 245.549929 
L 250.516149 245.033307 
L 253.552169 245.033307 
L 253.552169 244.516685 
L 255.785922 244.516685 
L 255.785922 244.000063 
L 255.965345 244.000063 
L 255.965345 243.483441 
L 256.927877 243.483441 
L 256.927877 242.966819 
L 264.713538 242.966819 
L 264.713538 242.450197 
L 271.45625 242.450197 
L 271.45625 241.933575 
L 274.89699 241.933575 
L 274.89699 241.416953 
L 358.8 241.416953 
L 358.8 241.416953 
" style="fill:none;stroke:#ff0000;stroke-linecap:square;stroke-width:1.5;"/>
   </g>
   <g id="line2d_63">
    <defs>
     <path d="M -6 6 
L 6 6 
L 6 -6 
L -6 -6 
z
" id="mcb8f29b3ac" style="stroke:#ff0000;stroke-linejoin:miter;stroke-width:1.5;"/>
    </defs>
    <g>
     <use style="fill:none;stroke:#ff0000;stroke-linejoin:miter;stroke-width:1.5;" x="199.277772" xlink:href="#mcb8f29b3ac" y="271.38103"/>
     <use style="fill:none;stroke:#ff0000;stroke-linejoin:miter;stroke-width:1.5;" x="250.516149" xlink:href="#mcb8f29b3ac" y="245.033307"/>
     <use style="fill:none;stroke:#ff0000;stroke-linejoin:miter;stroke-width:1.5;" x="274.89699" xlink:href="#mcb8f29b3ac" y="241.416953"/>
     <use style="fill:none;stroke:#ff0000;stroke-linejoin:miter;stroke-width:1.5;" x="274.89699" xlink:href="#mcb8f29b3ac" y="241.416953"/>
     <use style="fill:none;stroke:#ff0000;stroke-linejoin:miter;stroke-width:1.5;" x="358.8" xlink:href="#mcb8f29b3ac" y="241.416953"/>
    </g>
   </g>
   <g id="line2d_64"/>
   <g id="line2d_65">
    <path clip-path="url(#p65ac8d5832)" d="M 206.613806 264.664944 
" style="fill:none;stroke:#ff0000;stroke-linecap:square;stroke-width:1.5;"/>
    <defs>
     <path d="M -12 12 
L 12 -12 
M -12 -12 
L 12 12 
" id="mb5679ba87e" style="stroke:#ff0000;stroke-width:3;"/>
    </defs>
    <g clip-path="url(#p65ac8d5832)">
     <use style="fill:#ff0000;stroke:#ff0000;stroke-width:3;" x="206.613806" xlink:href="#mb5679ba87e" y="264.664944"/>
    </g>
   </g>
   <g id="line2d_66">
    <defs>
     <path d="M 0 1.5 
C 0.397805 1.5 0.77937 1.341951 1.06066 1.06066 
C 1.341951 0.77937 1.5 0.397805 1.5 0 
C 1.5 -0.397805 1.341951 -0.77937 1.06066 -1.06066 
C 0.77937 -1.341951 0.397805 -1.5 0 -1.5 
C -0.397805 -1.5 -0.77937 -1.341951 -1.06066 -1.06066 
C -1.341951 -0.77937 -1.5 -0.397805 -1.5 0 
C -1.5 0.397805 -1.341951 0.77937 -1.06066 1.06066 
C -0.77937 1.341951 -0.397805 1.5 0 1.5 
z
" id="m8dcdc253cf" style="stroke:#bf00bf;"/>
    </defs>
    <g>
     <use style="fill:#bf00bf;stroke:#bf00bf;" x="224.8629" xlink:href="#m8dcdc253cf" y="272.414274"/>
     <use style="fill:#bf00bf;stroke:#bf00bf;" x="224.8629" xlink:href="#m8dcdc253cf" y="272.414274"/>
    </g>
   </g>
   <g id="line2d_67">
    <path d="M 138.798022 298.245375 
L 138.798022 297.728753 
L 138.916879 297.728753 
L 138.916879 297.212131 
L 139.093695 297.212131 
L 139.093695 296.695509 
L 139.39417 296.695509 
L 139.39417 296.178887 
L 139.642342 296.178887 
L 139.642342 295.145643 
L 140.017539 295.145643 
L 140.017539 294.112399 
L 140.119352 294.112399 
L 140.119352 293.595777 
L 140.948899 293.595777 
L 140.948899 293.079155 
L 141.141691 293.079155 
L 141.141691 292.045911 
L 141.332424 292.045911 
L 141.332424 291.529289 
L 142.789151 291.529289 
L 142.789151 290.496045 
L 147.358096 290.496045 
L 147.358096 289.979423 
L 148.199669 289.979423 
L 148.199669 289.462801 
L 148.404012 289.462801 
L 148.404012 288.946179 
L 161.669878 288.946179 
L 161.669878 288.429557 
L 164.981877 288.429557 
L 164.981877 287.396313 
L 165.148667 287.396313 
L 165.148667 286.879691 
L 165.851041 286.879691 
L 165.851041 286.363069 
L 169.552554 286.363069 
L 169.552554 285.329825 
L 171.841601 285.329825 
L 171.841601 283.779959 
L 200.778147 283.779959 
L 200.778147 282.746715 
L 200.963573 282.746715 
L 200.963573 281.713471 
L 202.382373 281.713471 
L 202.382373 280.163604 
L 202.558959 280.163604 
L 202.558959 279.646982 
L 206.67757 279.646982 
L 206.67757 279.13036 
L 214.466197 279.13036 
L 214.466197 278.097116 
L 214.473823 278.097116 
L 214.473823 277.580494 
L 214.692161 277.580494 
L 214.692161 277.063872 
L 215.100586 277.063872 
L 215.100586 276.54725 
L 215.113777 276.54725 
L 215.113777 276.030628 
L 215.261543 276.030628 
L 215.261543 275.514006 
L 215.427337 275.514006 
L 215.427337 274.997384 
L 218.003236 274.997384 
L 218.003236 274.480762 
L 218.743041 274.480762 
L 218.743041 273.96414 
L 219.282886 273.96414 
L 219.282886 273.447518 
L 220.289923 273.447518 
L 220.289923 272.930896 
L 224.8629 272.930896 
L 224.8629 272.414274 
L 358.8 272.414274 
" style="fill:none;stroke:#bf00bf;stroke-linecap:square;stroke-width:1.5;"/>
   </g>
   <g id="line2d_68">
    <defs>
     <path d="M -0 8.485281 
L 8.485281 0 
L 0 -8.485281 
L -8.485281 -0 
z
" id="md34d724b63" style="stroke:#bf00bf;stroke-linejoin:miter;stroke-width:1.5;"/>
    </defs>
    <g>
     <use style="fill:none;stroke:#bf00bf;stroke-linejoin:miter;stroke-width:1.5;" x="214.466197" xlink:href="#md34d724b63" y="279.13036"/>
     <use style="fill:none;stroke:#bf00bf;stroke-linejoin:miter;stroke-width:1.5;" x="224.8629" xlink:href="#md34d724b63" y="272.930896"/>
     <use style="fill:none;stroke:#bf00bf;stroke-linejoin:miter;stroke-width:1.5;" x="224.8629" xlink:href="#md34d724b63" y="272.414274"/>
     <use style="fill:none;stroke:#bf00bf;stroke-linejoin:miter;stroke-width:1.5;" x="224.8629" xlink:href="#md34d724b63" y="272.414274"/>
     <use style="fill:none;stroke:#bf00bf;stroke-linejoin:miter;stroke-width:1.5;" x="358.8" xlink:href="#md34d724b63" y="272.414274"/>
    </g>
   </g>
   <g id="line2d_69"/>
   <g id="line2d_70">
    <path clip-path="url(#p65ac8d5832)" d="M 218.99904 273.96414 
" style="fill:none;stroke:#bf00bf;stroke-linecap:square;stroke-width:1.5;"/>
    <defs>
     <path d="M -12 12 
L 12 -12 
M -12 -12 
L 12 12 
" id="m2f79a455a0" style="stroke:#bf00bf;stroke-width:3;"/>
    </defs>
    <g clip-path="url(#p65ac8d5832)">
     <use style="fill:#bf00bf;stroke:#bf00bf;stroke-width:3;" x="218.99904" xlink:href="#m2f79a455a0" y="273.96414"/>
    </g>
   </g>
   <g id="line2d_71">
    <path d="M 358.8 272.414274 
L 390.48 292.97583 
" style="fill:none;stroke:#bf00bf;stroke-linecap:square;stroke-width:1.5;"/>
    <g>
     <use style="fill:none;stroke:#bf00bf;stroke-linejoin:miter;stroke-width:1.5;" x="358.8" xlink:href="#md34d724b63" y="272.414274"/>
     <use style="fill:none;stroke:#bf00bf;stroke-linejoin:miter;stroke-width:1.5;" x="390.48" xlink:href="#md34d724b63" y="292.97583"/>
    </g>
   </g>
   <g id="line2d_72">
    <path d="M 358.8 241.416953 
L 390.48 242.388203 
" style="fill:none;stroke:#ff0000;stroke-linecap:square;stroke-width:1.5;"/>
    <g>
     <use style="fill:none;stroke:#ff0000;stroke-linejoin:miter;stroke-width:1.5;" x="358.8" xlink:href="#mcb8f29b3ac" y="241.416953"/>
     <use style="fill:none;stroke:#ff0000;stroke-linejoin:miter;stroke-width:1.5;" x="390.48" xlink:href="#mcb8f29b3ac" y="242.388203"/>
    </g>
   </g>
   <g id="line2d_73">
    <path d="M 358.8 236.250733 
L 390.48 191.800575 
" style="fill:none;stroke:#000000;stroke-linecap:square;stroke-width:1.5;"/>
    <g>
     <use style="fill:none;stroke:#000000;stroke-width:1.5;" x="358.8" xlink:href="#m00fb9e36b7" y="236.250733"/>
     <use style="fill:none;stroke:#000000;stroke-width:1.5;" x="390.48" xlink:href="#m00fb9e36b7" y="191.800575"/>
    </g>
   </g>
   <g id="line2d_74">
    <path d="M 358.8 210.419632 
L 390.48 141.212947 
" style="fill:none;stroke:#0000ff;stroke-linecap:square;stroke-width:1.5;"/>
    <g>
     <use style="fill:none;stroke:#0000ff;stroke-linejoin:bevel;stroke-width:1.5;" x="358.8" xlink:href="#ma42814c36e" y="210.419632"/>
     <use style="fill:none;stroke:#0000ff;stroke-linejoin:bevel;stroke-width:1.5;" x="390.48" xlink:href="#ma42814c36e" y="141.212947"/>
    </g>
   </g>
   <g id="line2d_75">
    <path d="M 358.8 153.591211 
L 390.48 90.62532 
" style="fill:none;stroke:#00bfbf;stroke-linecap:square;stroke-width:1.5;"/>
    <g>
     <use style="fill:none;stroke:#00bfbf;stroke-width:1.5;" x="358.8" xlink:href="#m230cece503" y="153.591211"/>
     <use style="fill:none;stroke:#00bfbf;stroke-width:1.5;" x="390.48" xlink:href="#m230cece503" y="90.62532"/>
    </g>
   </g>
   <g id="line2d_76">
    <path d="M 358.8 138.09255 
L 390.48 40.037692 
" style="fill:none;stroke:#008000;stroke-linecap:square;stroke-width:1.5;"/>
    <g>
     <use style="fill:none;stroke:#008000;stroke-linejoin:miter;stroke-width:1.5;" x="358.8" xlink:href="#m366222849d" y="138.09255"/>
     <use style="fill:none;stroke:#008000;stroke-linejoin:miter;stroke-width:1.5;" x="390.48" xlink:href="#m366222849d" y="40.037692"/>
    </g>
   </g>
   <g id="line2d_77">
    <path d="M 358.8 298.245375 
L 358.8 34.768147 
" style="fill:none;stroke:#000000;stroke-linecap:square;stroke-width:1.5;"/>
   </g>
   <g id="patch_3">
    <path d="M 70.8 298.245375 
L 70.8 32.133375 
" style="fill:none;stroke:#000000;stroke-linecap:square;stroke-linejoin:miter;stroke-width:0.8;"/>
   </g>
   <g id="patch_4">
    <path d="M 427.92 298.245375 
L 427.92 32.133375 
" style="fill:none;stroke:#000000;stroke-linecap:square;stroke-linejoin:miter;stroke-width:0.8;"/>
   </g>
   <g id="patch_5">
    <path d="M 70.8 298.245375 
L 427.92 298.245375 
" style="fill:none;stroke:#000000;stroke-linecap:square;stroke-linejoin:miter;stroke-width:0.8;"/>
   </g>
   <g id="patch_6">
    <path d="M 70.8 32.133375 
L 427.92 32.133375 
" style="fill:none;stroke:#000000;stroke-linecap:square;stroke-linejoin:miter;stroke-width:0.8;"/>
   </g>
   <g id="text_14">
    <!-- 40-D -->
    <defs>
     <path d="M 19.671875 64.796875 
L 19.671875 8.109375 
L 31.59375 8.109375 
Q 46.6875 8.109375 53.6875 14.9375 
Q 60.6875 21.78125 60.6875 36.53125 
Q 60.6875 51.171875 53.6875 57.984375 
Q 46.6875 64.796875 31.59375 64.796875 
z
M 9.8125 72.90625 
L 30.078125 72.90625 
Q 51.265625 72.90625 61.171875 64.09375 
Q 71.09375 55.28125 71.09375 36.53125 
Q 71.09375 17.671875 61.125 8.828125 
Q 51.171875 0 30.078125 0 
L 9.8125 0 
z
" id="DejaVuSans-44"/>
    </defs>
    <g transform="translate(396.24 297.114893)scale(0.15 -0.15)">
     <use xlink:href="#DejaVuSans-34"/>
     <use x="63.623047" xlink:href="#DejaVuSans-30"/>
     <use x="127.246094" xlink:href="#DejaVuSans-2d"/>
     <use x="163.330078" xlink:href="#DejaVuSans-44"/>
    </g>
   </g>
   <g id="text_15">
    <!-- 20-D -->
    <g transform="translate(396.24 246.527265)scale(0.15 -0.15)">
     <use xlink:href="#DejaVuSans-32"/>
     <use x="63.623047" xlink:href="#DejaVuSans-30"/>
     <use x="127.246094" xlink:href="#DejaVuSans-2d"/>
     <use x="163.330078" xlink:href="#DejaVuSans-44"/>
    </g>
   </g>
   <g id="text_16">
    <!-- 10-D -->
    <g transform="translate(396.24 195.939637)scale(0.15 -0.15)">
     <use xlink:href="#DejaVuSans-31"/>
     <use x="63.623047" xlink:href="#DejaVuSans-30"/>
     <use x="127.246094" xlink:href="#DejaVuSans-2d"/>
     <use x="163.330078" xlink:href="#DejaVuSans-44"/>
    </g>
   </g>
   <g id="text_17">
    <!-- 5-D -->
    <defs>
     <path d="M 10.796875 72.90625 
L 49.515625 72.90625 
L 49.515625 64.59375 
L 19.828125 64.59375 
L 19.828125 46.734375 
Q 21.96875 47.46875 24.109375 47.828125 
Q 26.265625 48.1875 28.421875 48.1875 
Q 40.625 48.1875 47.75 41.5 
Q 54.890625 34.8125 54.890625 23.390625 
Q 54.890625 11.625 47.5625 5.09375 
Q 40.234375 -1.421875 26.90625 -1.421875 
Q 22.3125 -1.421875 17.546875 -0.640625 
Q 12.796875 0.140625 7.71875 1.703125 
L 7.71875 11.625 
Q 12.109375 9.234375 16.796875 8.0625 
Q 21.484375 6.890625 26.703125 6.890625 
Q 35.15625 6.890625 40.078125 11.328125 
Q 45.015625 15.765625 45.015625 23.390625 
Q 45.015625 31 40.078125 35.4375 
Q 35.15625 39.890625 26.703125 39.890625 
Q 22.75 39.890625 18.8125 39.015625 
Q 14.890625 38.140625 10.796875 36.28125 
z
" id="DejaVuSans-35"/>
    </defs>
    <g transform="translate(396.24 145.35201)scale(0.15 -0.15)">
     <use xlink:href="#DejaVuSans-35"/>
     <use x="63.623047" xlink:href="#DejaVuSans-2d"/>
     <use x="99.707031" xlink:href="#DejaVuSans-44"/>
    </g>
   </g>
   <g id="text_18">
    <!-- 2-D -->
    <g transform="translate(396.24 94.764382)scale(0.15 -0.15)">
     <use xlink:href="#DejaVuSans-32"/>
     <use x="63.623047" xlink:href="#DejaVuSans-2d"/>
     <use x="99.707031" xlink:href="#DejaVuSans-44"/>
    </g>
   </g>
   <g id="text_19">
    <!-- 3-D -->
    <defs>
     <path d="M 40.578125 39.3125 
Q 47.65625 37.796875 51.625 33 
Q 55.609375 28.21875 55.609375 21.1875 
Q 55.609375 10.40625 48.1875 4.484375 
Q 40.765625 -1.421875 27.09375 -1.421875 
Q 22.515625 -1.421875 17.65625 -0.515625 
Q 12.796875 0.390625 7.625 2.203125 
L 7.625 11.71875 
Q 11.71875 9.328125 16.59375 8.109375 
Q 21.484375 6.890625 26.8125 6.890625 
Q 36.078125 6.890625 40.9375 10.546875 
Q 45.796875 14.203125 45.796875 21.1875 
Q 45.796875 27.640625 41.28125 31.265625 
Q 36.765625 34.90625 28.71875 34.90625 
L 20.21875 34.90625 
L 20.21875 43.015625 
L 29.109375 43.015625 
Q 36.375 43.015625 40.234375 45.921875 
Q 44.09375 48.828125 44.09375 54.296875 
Q 44.09375 59.90625 40.109375 62.90625 
Q 36.140625 65.921875 28.71875 65.921875 
Q 24.65625 65.921875 20.015625 65.03125 
Q 15.375 64.15625 9.8125 62.3125 
L 9.8125 71.09375 
Q 15.4375 72.65625 20.34375 73.4375 
Q 25.25 74.21875 29.59375 74.21875 
Q 40.828125 74.21875 47.359375 69.109375 
Q 53.90625 64.015625 53.90625 55.328125 
Q 53.90625 49.265625 50.4375 45.09375 
Q 46.96875 40.921875 40.578125 39.3125 
" id="DejaVuSans-33"/>
    </defs>
    <g transform="translate(396.24 44.176754)scale(0.15 -0.15)">
     <use xlink:href="#DejaVuSans-33"/>
     <use x="63.623047" xlink:href="#DejaVuSans-2d"/>
     <use x="99.707031" xlink:href="#DejaVuSans-44"/>
    </g>
   </g>
   <g id="text_20">
    <!-- bbob - f9 -->
    <defs>
     <path d="M 48.6875 27.296875 
Q 48.6875 37.203125 44.609375 42.84375 
Q 40.53125 48.484375 33.40625 48.484375 
Q 26.265625 48.484375 22.1875 42.84375 
Q 18.109375 37.203125 18.109375 27.296875 
Q 18.109375 17.390625 22.1875 11.75 
Q 26.265625 6.109375 33.40625 6.109375 
Q 40.53125 6.109375 44.609375 11.75 
Q 48.6875 17.390625 48.6875 27.296875 
M 18.109375 46.390625 
Q 20.953125 51.265625 25.265625 53.625 
Q 29.59375 56 35.59375 56 
Q 45.5625 56 51.78125 48.09375 
Q 58.015625 40.1875 58.015625 27.296875 
Q 58.015625 14.40625 51.78125 6.484375 
Q 45.5625 -1.421875 35.59375 -1.421875 
Q 29.59375 -1.421875 25.265625 0.953125 
Q 20.953125 3.328125 18.109375 8.203125 
L 18.109375 0 
L 9.078125 0 
L 9.078125 75.984375 
L 18.109375 75.984375 
z
" id="DejaVuSans-62"/>
     <path d="M 10.984375 1.515625 
L 10.984375 10.5 
Q 14.703125 8.734375 18.5 7.8125 
Q 22.3125 6.890625 25.984375 6.890625 
Q 35.75 6.890625 40.890625 13.453125 
Q 46.046875 20.015625 46.78125 33.40625 
Q 43.953125 29.203125 39.59375 26.953125 
Q 35.25 24.703125 29.984375 24.703125 
Q 19.046875 24.703125 12.671875 31.3125 
Q 6.296875 37.9375 6.296875 49.421875 
Q 6.296875 60.640625 12.9375 67.421875 
Q 19.578125 74.21875 30.609375 74.21875 
Q 43.265625 74.21875 49.921875 64.515625 
Q 56.59375 54.828125 56.59375 36.375 
Q 56.59375 19.140625 48.40625 8.859375 
Q 40.234375 -1.421875 26.421875 -1.421875 
Q 22.703125 -1.421875 18.890625 -0.6875 
Q 15.09375 0.046875 10.984375 1.515625 
M 30.609375 32.421875 
Q 37.25 32.421875 41.125 36.953125 
Q 45.015625 41.5 45.015625 49.421875 
Q 45.015625 57.28125 41.125 61.84375 
Q 37.25 66.40625 30.609375 66.40625 
Q 23.96875 66.40625 20.09375 61.84375 
Q 16.21875 57.28125 16.21875 49.421875 
Q 16.21875 41.5 20.09375 36.953125 
Q 23.96875 32.421875 30.609375 32.421875 
" id="DejaVuSans-39"/>
    </defs>
    <g transform="translate(74.3712 50.114612)scale(0.1666 -0.1666)">
     <use xlink:href="#DejaVuSans-62"/>
     <use x="63.476562" xlink:href="#DejaVuSans-62"/>
     <use x="126.953125" xlink:href="#DejaVuSans-6f"/>
     <use x="188.134766" xlink:href="#DejaVuSans-62"/>
     <use x="251.611328" xlink:href="#DejaVuSans-20"/>
     <use x="283.398438" xlink:href="#DejaVuSans-2d"/>
     <use x="319.482422" xlink:href="#DejaVuSans-20"/>
     <use x="351.269531" xlink:href="#DejaVuSans-66"/>
     <use x="386.474609" xlink:href="#DejaVuSans-39"/>
    </g>
    <!-- 51 targets in 100..1e-08 -->
    <g transform="translate(74.3712 68.770168)scale(0.1666 -0.1666)">
     <use xlink:href="#DejaVuSans-35"/>
     <use x="63.623047" xlink:href="#DejaVuSans-31"/>
     <use x="127.246094" xlink:href="#DejaVuSans-20"/>
     <use x="159.033203" xlink:href="#DejaVuSans-74"/>
     <use x="198.242188" xlink:href="#DejaVuSans-61"/>
     <use x="259.521484" xlink:href="#DejaVuSans-72"/>
     <use x="300.619141" xlink:href="#DejaVuSans-67"/>
     <use x="364.095703" xlink:href="#DejaVuSans-65"/>
     <use x="425.619141" xlink:href="#DejaVuSans-74"/>
     <use x="464.828125" xlink:href="#DejaVuSans-73"/>
     <use x="516.927734" xlink:href="#DejaVuSans-20"/>
     <use x="548.714844" xlink:href="#DejaVuSans-69"/>
     <use x="576.498047" xlink:href="#DejaVuSans-6e"/>
     <use x="639.876953" xlink:href="#DejaVuSans-20"/>
     <use x="671.664062" xlink:href="#DejaVuSans-31"/>
     <use x="735.287109" xlink:href="#DejaVuSans-30"/>
     <use x="798.910156" xlink:href="#DejaVuSans-30"/>
     <use x="862.533203" xlink:href="#DejaVuSans-2e"/>
     <use x="894.320312" xlink:href="#DejaVuSans-2e"/>
     <use x="926.107422" xlink:href="#DejaVuSans-31"/>
     <use x="989.730469" xlink:href="#DejaVuSans-65"/>
     <use x="1051.253906" xlink:href="#DejaVuSans-2d"/>
     <use x="1087.337891" xlink:href="#DejaVuSans-30"/>
     <use x="1150.960938" xlink:href="#DejaVuSans-38"/>
    </g>
    <!-- 15 instances -->
    <g transform="translate(74.3712 87.425723)scale(0.1666 -0.1666)">
     <use xlink:href="#DejaVuSans-31"/>
     <use x="63.623047" xlink:href="#DejaVuSans-35"/>
     <use x="127.246094" xlink:href="#DejaVuSans-20"/>
     <use x="159.033203" xlink:href="#DejaVuSans-69"/>
     <use x="186.816406" xlink:href="#DejaVuSans-6e"/>
     <use x="250.195312" xlink:href="#DejaVuSans-73"/>
     <use x="302.294922" xlink:href="#DejaVuSans-74"/>
     <use x="341.503906" xlink:href="#DejaVuSans-61"/>
     <use x="402.783203" xlink:href="#DejaVuSans-6e"/>
     <use x="466.162109" xlink:href="#DejaVuSans-63"/>
     <use x="521.142578" xlink:href="#DejaVuSans-65"/>
     <use x="582.666016" xlink:href="#DejaVuSans-73"/>
    </g>
   </g>
   <g id="text_21">
    <!-- v2.1 -->
    <g style="fill:#808080;" transform="translate(238.449063 293.504568)scale(0.1 -0.1)">
     <use xlink:href="#DejaVuSans-76"/>
     <use x="59.179688" xlink:href="#DejaVuSans-32"/>
     <use x="122.802734" xlink:href="#DejaVuSans-2e"/>
     <use x="154.589844" xlink:href="#DejaVuSans-31"/>
    </g>
   </g>
   <g id="text_22">
    <!-- 9 Rosenbrock rotated -->
    <defs>
     <path d="M 44.390625 34.1875 
Q 47.5625 33.109375 50.5625 29.59375 
Q 53.5625 26.078125 56.59375 19.921875 
L 66.609375 0 
L 56 0 
L 46.6875 18.703125 
Q 43.0625 26.03125 39.671875 28.421875 
Q 36.28125 30.8125 30.421875 30.8125 
L 19.671875 30.8125 
L 19.671875 0 
L 9.8125 0 
L 9.8125 72.90625 
L 32.078125 72.90625 
Q 44.578125 72.90625 50.734375 67.671875 
Q 56.890625 62.453125 56.890625 51.90625 
Q 56.890625 45.015625 53.6875 40.46875 
Q 50.484375 35.9375 44.390625 34.1875 
M 19.671875 64.796875 
L 19.671875 38.921875 
L 32.078125 38.921875 
Q 39.203125 38.921875 42.84375 42.21875 
Q 46.484375 45.515625 46.484375 51.90625 
Q 46.484375 58.296875 42.84375 61.546875 
Q 39.203125 64.796875 32.078125 64.796875 
z
" id="DejaVuSans-52"/>
     <path d="M 9.078125 75.984375 
L 18.109375 75.984375 
L 18.109375 31.109375 
L 44.921875 54.6875 
L 56.390625 54.6875 
L 27.390625 29.109375 
L 57.625 0 
L 45.90625 0 
L 18.109375 26.703125 
L 18.109375 0 
L 9.078125 0 
z
" id="DejaVuSans-6b"/>
    </defs>
    <g transform="translate(119.71125 26.133375)scale(0.24 -0.24)">
     <use xlink:href="#DejaVuSans-39"/>
     <use x="63.623047" xlink:href="#DejaVuSans-20"/>
     <use x="95.410156" xlink:href="#DejaVuSans-52"/>
     <use x="164.830078" xlink:href="#DejaVuSans-6f"/>
     <use x="226.011719" xlink:href="#DejaVuSans-73"/>
     <use x="278.111328" xlink:href="#DejaVuSans-65"/>
     <use x="339.634766" xlink:href="#DejaVuSans-6e"/>
     <use x="403.013672" xlink:href="#DejaVuSans-62"/>
     <use x="466.490234" xlink:href="#DejaVuSans-72"/>
     <use x="507.572266" xlink:href="#DejaVuSans-6f"/>
     <use x="568.753906" xlink:href="#DejaVuSans-63"/>
     <use x="623.734375" xlink:href="#DejaVuSans-6b"/>
     <use x="681.644531" xlink:href="#DejaVuSans-20"/>
     <use x="713.431641" xlink:href="#DejaVuSans-72"/>
     <use x="754.513672" xlink:href="#DejaVuSans-6f"/>
     <use x="815.695312" xlink:href="#DejaVuSans-74"/>
     <use x="854.904297" xlink:href="#DejaVuSans-61"/>
     <use x="916.183594" xlink:href="#DejaVuSans-74"/>
     <use x="955.392578" xlink:href="#DejaVuSans-65"/>
     <use x="1016.916016" xlink:href="#DejaVuSans-64"/>
    </g>
   </g>
  </g>
 </g>
 <defs>
  <clipPath id="p65ac8d5832">
   <rect height="266.112" width="357.12" x="70.8" y="32.133375"/>
  </clipPath>
 </defs>
</svg>
