<?xml version="1.0" encoding="utf-8" standalone="no"?>
<!DOCTYPE svg PUBLIC "-//W3C//DTD SVG 1.1//EN"
  "http://www.w3.org/Graphics/SVG/1.1/DTD/svg11.dtd">
<!-- Created with matplotlib (http://matplotlib.org/) -->
<svg height="353pt" version="1.1" viewBox="0 0 438 353" width="438pt" xmlns="http://www.w3.org/2000/svg" xmlns:xlink="http://www.w3.org/1999/xlink">
 <defs>
  <style type="text/css">
*{stroke-linecap:butt;stroke-linejoin:round;}
  </style>
 </defs>
 <g id="figure_1">
  <g id="patch_1">
   <path d="M 0 353.22225 
L 438.62 353.22225 
L 438.62 0 
L 0 0 
z
" style="fill:#ffffff;"/>
  </g>
  <g id="axes_1">
   <g id="patch_2">
    <path d="M 70.8 298.245375 
L 427.92 298.245375 
L 427.92 32.133375 
L 70.8 32.133375 
z
" style="fill:#ffffff;"/>
   </g>
   <g id="matplotlib.axis_1">
    <g id="xtick_1">
     <g id="line2d_1">
      <path clip-path="url(#p8bc18453d8)" d="M 70.8 298.245375 
L 70.8 32.133375 
" style="fill:none;stroke:#b0b0b0;stroke-linecap:square;stroke-width:0.8;"/>
     </g>
     <g id="line2d_2">
      <defs>
       <path d="M 0 0 
L 0 3.5 
" id="m369345afda" style="stroke:#000000;stroke-width:0.8;"/>
      </defs>
      <g>
       <use style="stroke:#000000;stroke-width:0.8;" x="70.8" xlink:href="#m369345afda" y="298.245375"/>
      </g>
     </g>
     <g id="text_1">
      <!-- 0 -->
      <defs>
       <path d="M 31.78125 66.40625 
Q 24.171875 66.40625 20.328125 58.90625 
Q 16.5 51.421875 16.5 36.375 
Q 16.5 21.390625 20.328125 13.890625 
Q 24.171875 6.390625 31.78125 6.390625 
Q 39.453125 6.390625 43.28125 13.890625 
Q 47.125 21.390625 47.125 36.375 
Q 47.125 51.421875 43.28125 58.90625 
Q 39.453125 66.40625 31.78125 66.40625 
M 31.78125 74.21875 
Q 44.046875 74.21875 50.515625 64.515625 
Q 56.984375 54.828125 56.984375 36.375 
Q 56.984375 17.96875 50.515625 8.265625 
Q 44.046875 -1.421875 31.78125 -1.421875 
Q 19.53125 -1.421875 13.0625 8.265625 
Q 6.59375 17.96875 6.59375 36.375 
Q 6.59375 54.828125 13.0625 64.515625 
Q 19.53125 74.21875 31.78125 74.21875 
" id="DejaVuSans-30"/>
      </defs>
      <g transform="translate(64.4375 320.44225)scale(0.2 -0.2)">
       <use xlink:href="#DejaVuSans-30"/>
      </g>
     </g>
    </g>
    <g id="xtick_2">
     <g id="line2d_3">
      <path clip-path="url(#p8bc18453d8)" d="M 153.085714 298.245375 
L 153.085714 32.133375 
" style="fill:none;stroke:#b0b0b0;stroke-linecap:square;stroke-width:0.8;"/>
     </g>
     <g id="line2d_4">
      <g>
       <use style="stroke:#000000;stroke-width:0.8;" x="153.085714" xlink:href="#m369345afda" y="298.245375"/>
      </g>
     </g>
     <g id="text_2">
      <!-- 2 -->
      <defs>
       <path d="M 19.1875 8.296875 
L 53.609375 8.296875 
L 53.609375 0 
L 7.328125 0 
L 7.328125 8.296875 
Q 12.9375 14.109375 22.625 23.890625 
Q 32.328125 33.6875 34.8125 36.53125 
Q 39.546875 41.84375 41.421875 45.53125 
Q 43.3125 49.21875 43.3125 52.78125 
Q 43.3125 58.59375 39.234375 62.25 
Q 35.15625 65.921875 28.609375 65.921875 
Q 23.96875 65.921875 18.8125 64.3125 
Q 13.671875 62.703125 7.8125 59.421875 
L 7.8125 69.390625 
Q 13.765625 71.78125 18.9375 73 
Q 24.125 74.21875 28.421875 74.21875 
Q 39.75 74.21875 46.484375 68.546875 
Q 53.21875 62.890625 53.21875 53.421875 
Q 53.21875 48.921875 51.53125 44.890625 
Q 49.859375 40.875 45.40625 35.40625 
Q 44.1875 33.984375 37.640625 27.21875 
Q 31.109375 20.453125 19.1875 8.296875 
" id="DejaVuSans-32"/>
      </defs>
      <g transform="translate(146.723214 320.44225)scale(0.2 -0.2)">
       <use xlink:href="#DejaVuSans-32"/>
      </g>
     </g>
    </g>
    <g id="xtick_3">
     <g id="line2d_5">
      <path clip-path="url(#p8bc18453d8)" d="M 235.371429 298.245375 
L 235.371429 32.133375 
" style="fill:none;stroke:#b0b0b0;stroke-linecap:square;stroke-width:0.8;"/>
     </g>
     <g id="line2d_6">
      <g>
       <use style="stroke:#000000;stroke-width:0.8;" x="235.371429" xlink:href="#m369345afda" y="298.245375"/>
      </g>
     </g>
     <g id="text_3">
      <!-- 4 -->
      <defs>
       <path d="M 37.796875 64.3125 
L 12.890625 25.390625 
L 37.796875 25.390625 
z
M 35.203125 72.90625 
L 47.609375 72.90625 
L 47.609375 25.390625 
L 58.015625 25.390625 
L 58.015625 17.1875 
L 47.609375 17.1875 
L 47.609375 0 
L 37.796875 0 
L 37.796875 17.1875 
L 4.890625 17.1875 
L 4.890625 26.703125 
z
" id="DejaVuSans-34"/>
      </defs>
      <g transform="translate(229.008929 320.44225)scale(0.2 -0.2)">
       <use xlink:href="#DejaVuSans-34"/>
      </g>
     </g>
    </g>
    <g id="xtick_4">
     <g id="line2d_7">
      <path clip-path="url(#p8bc18453d8)" d="M 317.657143 298.245375 
L 317.657143 32.133375 
" style="fill:none;stroke:#b0b0b0;stroke-linecap:square;stroke-width:0.8;"/>
     </g>
     <g id="line2d_8">
      <g>
       <use style="stroke:#000000;stroke-width:0.8;" x="317.657143" xlink:href="#m369345afda" y="298.245375"/>
      </g>
     </g>
     <g id="text_4">
      <!-- 6 -->
      <defs>
       <path d="M 33.015625 40.375 
Q 26.375 40.375 22.484375 35.828125 
Q 18.609375 31.296875 18.609375 23.390625 
Q 18.609375 15.53125 22.484375 10.953125 
Q 26.375 6.390625 33.015625 6.390625 
Q 39.65625 6.390625 43.53125 10.953125 
Q 47.40625 15.53125 47.40625 23.390625 
Q 47.40625 31.296875 43.53125 35.828125 
Q 39.65625 40.375 33.015625 40.375 
M 52.59375 71.296875 
L 52.59375 62.3125 
Q 48.875 64.0625 45.09375 64.984375 
Q 41.3125 65.921875 37.59375 65.921875 
Q 27.828125 65.921875 22.671875 59.328125 
Q 17.53125 52.734375 16.796875 39.40625 
Q 19.671875 43.65625 24.015625 45.921875 
Q 28.375 48.1875 33.59375 48.1875 
Q 44.578125 48.1875 50.953125 41.515625 
Q 57.328125 34.859375 57.328125 23.390625 
Q 57.328125 12.15625 50.6875 5.359375 
Q 44.046875 -1.421875 33.015625 -1.421875 
Q 20.359375 -1.421875 13.671875 8.265625 
Q 6.984375 17.96875 6.984375 36.375 
Q 6.984375 53.65625 15.1875 63.9375 
Q 23.390625 74.21875 37.203125 74.21875 
Q 40.921875 74.21875 44.703125 73.484375 
Q 48.484375 72.75 52.59375 71.296875 
" id="DejaVuSans-36"/>
      </defs>
      <g transform="translate(311.294643 320.44225)scale(0.2 -0.2)">
       <use xlink:href="#DejaVuSans-36"/>
      </g>
     </g>
    </g>
    <g id="xtick_5">
     <g id="line2d_9">
      <path clip-path="url(#p8bc18453d8)" d="M 399.942857 298.245375 
L 399.942857 32.133375 
" style="fill:none;stroke:#b0b0b0;stroke-linecap:square;stroke-width:0.8;"/>
     </g>
     <g id="line2d_10">
      <g>
       <use style="stroke:#000000;stroke-width:0.8;" x="399.942857" xlink:href="#m369345afda" y="298.245375"/>
      </g>
     </g>
     <g id="text_5">
      <!-- 8 -->
      <defs>
       <path d="M 31.78125 34.625 
Q 24.75 34.625 20.71875 30.859375 
Q 16.703125 27.09375 16.703125 20.515625 
Q 16.703125 13.921875 20.71875 10.15625 
Q 24.75 6.390625 31.78125 6.390625 
Q 38.8125 6.390625 42.859375 10.171875 
Q 46.921875 13.96875 46.921875 20.515625 
Q 46.921875 27.09375 42.890625 30.859375 
Q 38.875 34.625 31.78125 34.625 
M 21.921875 38.8125 
Q 15.578125 40.375 12.03125 44.71875 
Q 8.5 49.078125 8.5 55.328125 
Q 8.5 64.0625 14.71875 69.140625 
Q 20.953125 74.21875 31.78125 74.21875 
Q 42.671875 74.21875 48.875 69.140625 
Q 55.078125 64.0625 55.078125 55.328125 
Q 55.078125 49.078125 51.53125 44.71875 
Q 48 40.375 41.703125 38.8125 
Q 48.828125 37.15625 52.796875 32.3125 
Q 56.78125 27.484375 56.78125 20.515625 
Q 56.78125 9.90625 50.3125 4.234375 
Q 43.84375 -1.421875 31.78125 -1.421875 
Q 19.734375 -1.421875 13.25 4.234375 
Q 6.78125 9.90625 6.78125 20.515625 
Q 6.78125 27.484375 10.78125 32.3125 
Q 14.796875 37.15625 21.921875 38.8125 
M 18.3125 54.390625 
Q 18.3125 48.734375 21.84375 45.5625 
Q 25.390625 42.390625 31.78125 42.390625 
Q 38.140625 42.390625 41.71875 45.5625 
Q 45.3125 48.734375 45.3125 54.390625 
Q 45.3125 60.0625 41.71875 63.234375 
Q 38.140625 66.40625 31.78125 66.40625 
Q 25.390625 66.40625 21.84375 63.234375 
Q 18.3125 60.0625 18.3125 54.390625 
" id="DejaVuSans-38"/>
      </defs>
      <g transform="translate(393.580357 320.44225)scale(0.2 -0.2)">
       <use xlink:href="#DejaVuSans-38"/>
      </g>
     </g>
    </g>
    <g id="xtick_6">
     <g id="line2d_11">
      <defs>
       <path d="M 0 0 
L 0 2 
" id="mcce97455bb" style="stroke:#000000;stroke-width:0.6;"/>
      </defs>
      <g>
       <use style="stroke:#000000;stroke-width:0.6;" x="83.185234" xlink:href="#mcce97455bb" y="298.245375"/>
      </g>
     </g>
    </g>
    <g id="xtick_7">
     <g id="line2d_12">
      <g>
       <use style="stroke:#000000;stroke-width:0.6;" x="95.570468" xlink:href="#mcce97455bb" y="298.245375"/>
      </g>
     </g>
    </g>
    <g id="xtick_8">
     <g id="line2d_13">
      <g>
       <use style="stroke:#000000;stroke-width:0.6;" x="102.815366" xlink:href="#mcce97455bb" y="298.245375"/>
      </g>
     </g>
    </g>
    <g id="xtick_9">
     <g id="line2d_14">
      <g>
       <use style="stroke:#000000;stroke-width:0.6;" x="107.955702" xlink:href="#mcce97455bb" y="298.245375"/>
      </g>
     </g>
    </g>
    <g id="xtick_10">
     <g id="line2d_15">
      <g>
       <use style="stroke:#000000;stroke-width:0.6;" x="165.470948" xlink:href="#mcce97455bb" y="298.245375"/>
      </g>
     </g>
    </g>
    <g id="xtick_11">
     <g id="line2d_16">
      <g>
       <use style="stroke:#000000;stroke-width:0.6;" x="177.856183" xlink:href="#mcce97455bb" y="298.245375"/>
      </g>
     </g>
    </g>
    <g id="xtick_12">
     <g id="line2d_17">
      <g>
       <use style="stroke:#000000;stroke-width:0.6;" x="185.10108" xlink:href="#mcce97455bb" y="298.245375"/>
      </g>
     </g>
    </g>
    <g id="xtick_13">
     <g id="line2d_18">
      <g>
       <use style="stroke:#000000;stroke-width:0.6;" x="190.241417" xlink:href="#mcce97455bb" y="298.245375"/>
      </g>
     </g>
    </g>
    <g id="xtick_14">
     <g id="line2d_19">
      <g>
       <use style="stroke:#000000;stroke-width:0.6;" x="247.756663" xlink:href="#mcce97455bb" y="298.245375"/>
      </g>
     </g>
    </g>
    <g id="xtick_15">
     <g id="line2d_20">
      <g>
       <use style="stroke:#000000;stroke-width:0.6;" x="260.141897" xlink:href="#mcce97455bb" y="298.245375"/>
      </g>
     </g>
    </g>
    <g id="xtick_16">
     <g id="line2d_21">
      <g>
       <use style="stroke:#000000;stroke-width:0.6;" x="267.386794" xlink:href="#mcce97455bb" y="298.245375"/>
      </g>
     </g>
    </g>
    <g id="xtick_17">
     <g id="line2d_22">
      <g>
       <use style="stroke:#000000;stroke-width:0.6;" x="272.527131" xlink:href="#mcce97455bb" y="298.245375"/>
      </g>
     </g>
    </g>
    <g id="xtick_18">
     <g id="line2d_23">
      <g>
       <use style="stroke:#000000;stroke-width:0.6;" x="330.042377" xlink:href="#mcce97455bb" y="298.245375"/>
      </g>
     </g>
    </g>
    <g id="xtick_19">
     <g id="line2d_24">
      <g>
       <use style="stroke:#000000;stroke-width:0.6;" x="342.427611" xlink:href="#mcce97455bb" y="298.245375"/>
      </g>
     </g>
    </g>
    <g id="xtick_20">
     <g id="line2d_25">
      <g>
       <use style="stroke:#000000;stroke-width:0.6;" x="349.672509" xlink:href="#mcce97455bb" y="298.245375"/>
      </g>
     </g>
    </g>
    <g id="xtick_21">
     <g id="line2d_26">
      <g>
       <use style="stroke:#000000;stroke-width:0.6;" x="354.812845" xlink:href="#mcce97455bb" y="298.245375"/>
      </g>
     </g>
    </g>
    <g id="xtick_22">
     <g id="line2d_27">
      <g>
       <use style="stroke:#000000;stroke-width:0.6;" x="412.328091" xlink:href="#mcce97455bb" y="298.245375"/>
      </g>
     </g>
    </g>
    <g id="xtick_23">
     <g id="line2d_28">
      <g>
       <use style="stroke:#000000;stroke-width:0.6;" x="424.713325" xlink:href="#mcce97455bb" y="298.245375"/>
      </g>
     </g>
    </g>
    <g id="text_6">
     <!-- log10 of (# f-evals / dimension) -->
     <defs>
      <path d="M 9.421875 75.984375 
L 18.40625 75.984375 
L 18.40625 0 
L 9.421875 0 
z
" id="DejaVuSans-6c"/>
      <path d="M 30.609375 48.390625 
Q 23.390625 48.390625 19.1875 42.75 
Q 14.984375 37.109375 14.984375 27.296875 
Q 14.984375 17.484375 19.15625 11.84375 
Q 23.34375 6.203125 30.609375 6.203125 
Q 37.796875 6.203125 41.984375 11.859375 
Q 46.1875 17.53125 46.1875 27.296875 
Q 46.1875 37.015625 41.984375 42.703125 
Q 37.796875 48.390625 30.609375 48.390625 
M 30.609375 56 
Q 42.328125 56 49.015625 48.375 
Q 55.71875 40.765625 55.71875 27.296875 
Q 55.71875 13.875 49.015625 6.21875 
Q 42.328125 -1.421875 30.609375 -1.421875 
Q 18.84375 -1.421875 12.171875 6.21875 
Q 5.515625 13.875 5.515625 27.296875 
Q 5.515625 40.765625 12.171875 48.375 
Q 18.84375 56 30.609375 56 
" id="DejaVuSans-6f"/>
      <path d="M 45.40625 27.984375 
Q 45.40625 37.75 41.375 43.109375 
Q 37.359375 48.484375 30.078125 48.484375 
Q 22.859375 48.484375 18.828125 43.109375 
Q 14.796875 37.75 14.796875 27.984375 
Q 14.796875 18.265625 18.828125 12.890625 
Q 22.859375 7.515625 30.078125 7.515625 
Q 37.359375 7.515625 41.375 12.890625 
Q 45.40625 18.265625 45.40625 27.984375 
M 54.390625 6.78125 
Q 54.390625 -7.171875 48.1875 -13.984375 
Q 42 -20.796875 29.203125 -20.796875 
Q 24.46875 -20.796875 20.265625 -20.09375 
Q 16.0625 -19.390625 12.109375 -17.921875 
L 12.109375 -9.1875 
Q 16.0625 -11.328125 19.921875 -12.34375 
Q 23.78125 -13.375 27.78125 -13.375 
Q 36.625 -13.375 41.015625 -8.765625 
Q 45.40625 -4.15625 45.40625 5.171875 
L 45.40625 9.625 
Q 42.625 4.78125 38.28125 2.390625 
Q 33.9375 0 27.875 0 
Q 17.828125 0 11.671875 7.65625 
Q 5.515625 15.328125 5.515625 27.984375 
Q 5.515625 40.671875 11.671875 48.328125 
Q 17.828125 56 27.875 56 
Q 33.9375 56 38.28125 53.609375 
Q 42.625 51.21875 45.40625 46.390625 
L 45.40625 54.6875 
L 54.390625 54.6875 
z
" id="DejaVuSans-67"/>
      <path d="M 12.40625 8.296875 
L 28.515625 8.296875 
L 28.515625 63.921875 
L 10.984375 60.40625 
L 10.984375 69.390625 
L 28.421875 72.90625 
L 38.28125 72.90625 
L 38.28125 8.296875 
L 54.390625 8.296875 
L 54.390625 0 
L 12.40625 0 
z
" id="DejaVuSans-31"/>
      <path id="DejaVuSans-20"/>
      <path d="M 37.109375 75.984375 
L 37.109375 68.5 
L 28.515625 68.5 
Q 23.6875 68.5 21.796875 66.546875 
Q 19.921875 64.59375 19.921875 59.515625 
L 19.921875 54.6875 
L 34.71875 54.6875 
L 34.71875 47.703125 
L 19.921875 47.703125 
L 19.921875 0 
L 10.890625 0 
L 10.890625 47.703125 
L 2.296875 47.703125 
L 2.296875 54.6875 
L 10.890625 54.6875 
L 10.890625 58.5 
Q 10.890625 67.625 15.140625 71.796875 
Q 19.390625 75.984375 28.609375 75.984375 
z
" id="DejaVuSans-66"/>
      <path d="M 31 75.875 
Q 24.46875 64.65625 21.28125 53.65625 
Q 18.109375 42.671875 18.109375 31.390625 
Q 18.109375 20.125 21.3125 9.0625 
Q 24.515625 -2 31 -13.1875 
L 23.1875 -13.1875 
Q 15.875 -1.703125 12.234375 9.375 
Q 8.59375 20.453125 8.59375 31.390625 
Q 8.59375 42.28125 12.203125 53.3125 
Q 15.828125 64.359375 23.1875 75.875 
z
" id="DejaVuSans-28"/>
      <path d="M 51.125 44 
L 36.921875 44 
L 32.8125 27.6875 
L 47.125 27.6875 
z
M 43.796875 71.78125 
L 38.71875 51.515625 
L 52.984375 51.515625 
L 58.109375 71.78125 
L 65.921875 71.78125 
L 60.890625 51.515625 
L 76.125 51.515625 
L 76.125 44 
L 58.984375 44 
L 54.984375 27.6875 
L 70.515625 27.6875 
L 70.515625 20.21875 
L 53.078125 20.21875 
L 48 0 
L 40.1875 0 
L 45.21875 20.21875 
L 30.90625 20.21875 
L 25.875 0 
L 18.015625 0 
L 23.09375 20.21875 
L 7.71875 20.21875 
L 7.71875 27.6875 
L 24.90625 27.6875 
L 29 44 
L 13.28125 44 
L 13.28125 51.515625 
L 30.90625 51.515625 
L 35.890625 71.78125 
z
" id="DejaVuSans-23"/>
      <path d="M 4.890625 31.390625 
L 31.203125 31.390625 
L 31.203125 23.390625 
L 4.890625 23.390625 
z
" id="DejaVuSans-2d"/>
      <path d="M 56.203125 29.59375 
L 56.203125 25.203125 
L 14.890625 25.203125 
Q 15.484375 15.921875 20.484375 11.0625 
Q 25.484375 6.203125 34.421875 6.203125 
Q 39.59375 6.203125 44.453125 7.46875 
Q 49.3125 8.734375 54.109375 11.28125 
L 54.109375 2.78125 
Q 49.265625 0.734375 44.1875 -0.34375 
Q 39.109375 -1.421875 33.890625 -1.421875 
Q 20.796875 -1.421875 13.15625 6.1875 
Q 5.515625 13.8125 5.515625 26.8125 
Q 5.515625 40.234375 12.765625 48.109375 
Q 20.015625 56 32.328125 56 
Q 43.359375 56 49.78125 48.890625 
Q 56.203125 41.796875 56.203125 29.59375 
M 47.21875 32.234375 
Q 47.125 39.59375 43.09375 43.984375 
Q 39.0625 48.390625 32.421875 48.390625 
Q 24.90625 48.390625 20.390625 44.140625 
Q 15.875 39.890625 15.1875 32.171875 
z
" id="DejaVuSans-65"/>
      <path d="M 2.984375 54.6875 
L 12.5 54.6875 
L 29.59375 8.796875 
L 46.6875 54.6875 
L 56.203125 54.6875 
L 35.6875 0 
L 23.484375 0 
z
" id="DejaVuSans-76"/>
      <path d="M 34.28125 27.484375 
Q 23.390625 27.484375 19.1875 25 
Q 14.984375 22.515625 14.984375 16.5 
Q 14.984375 11.71875 18.140625 8.90625 
Q 21.296875 6.109375 26.703125 6.109375 
Q 34.1875 6.109375 38.703125 11.40625 
Q 43.21875 16.703125 43.21875 25.484375 
L 43.21875 27.484375 
z
M 52.203125 31.203125 
L 52.203125 0 
L 43.21875 0 
L 43.21875 8.296875 
Q 40.140625 3.328125 35.546875 0.953125 
Q 30.953125 -1.421875 24.3125 -1.421875 
Q 15.921875 -1.421875 10.953125 3.296875 
Q 6 8.015625 6 15.921875 
Q 6 25.140625 12.171875 29.828125 
Q 18.359375 34.515625 30.609375 34.515625 
L 43.21875 34.515625 
L 43.21875 35.40625 
Q 43.21875 41.609375 39.140625 45 
Q 35.0625 48.390625 27.6875 48.390625 
Q 23 48.390625 18.546875 47.265625 
Q 14.109375 46.140625 10.015625 43.890625 
L 10.015625 52.203125 
Q 14.9375 54.109375 19.578125 55.046875 
Q 24.21875 56 28.609375 56 
Q 40.484375 56 46.34375 49.84375 
Q 52.203125 43.703125 52.203125 31.203125 
" id="DejaVuSans-61"/>
      <path d="M 44.28125 53.078125 
L 44.28125 44.578125 
Q 40.484375 46.53125 36.375 47.5 
Q 32.28125 48.484375 27.875 48.484375 
Q 21.1875 48.484375 17.84375 46.4375 
Q 14.5 44.390625 14.5 40.28125 
Q 14.5 37.15625 16.890625 35.375 
Q 19.28125 33.59375 26.515625 31.984375 
L 29.59375 31.296875 
Q 39.15625 29.25 43.1875 25.515625 
Q 47.21875 21.78125 47.21875 15.09375 
Q 47.21875 7.46875 41.1875 3.015625 
Q 35.15625 -1.421875 24.609375 -1.421875 
Q 20.21875 -1.421875 15.453125 -0.5625 
Q 10.6875 0.296875 5.421875 2 
L 5.421875 11.28125 
Q 10.40625 8.6875 15.234375 7.390625 
Q 20.0625 6.109375 24.8125 6.109375 
Q 31.15625 6.109375 34.5625 8.28125 
Q 37.984375 10.453125 37.984375 14.40625 
Q 37.984375 18.0625 35.515625 20.015625 
Q 33.0625 21.96875 24.703125 23.78125 
L 21.578125 24.515625 
Q 13.234375 26.265625 9.515625 29.90625 
Q 5.8125 33.546875 5.8125 39.890625 
Q 5.8125 47.609375 11.28125 51.796875 
Q 16.75 56 26.8125 56 
Q 31.78125 56 36.171875 55.265625 
Q 40.578125 54.546875 44.28125 53.078125 
" id="DejaVuSans-73"/>
      <path d="M 25.390625 72.90625 
L 33.6875 72.90625 
L 8.296875 -9.28125 
L 0 -9.28125 
z
" id="DejaVuSans-2f"/>
      <path d="M 45.40625 46.390625 
L 45.40625 75.984375 
L 54.390625 75.984375 
L 54.390625 0 
L 45.40625 0 
L 45.40625 8.203125 
Q 42.578125 3.328125 38.25 0.953125 
Q 33.9375 -1.421875 27.875 -1.421875 
Q 17.96875 -1.421875 11.734375 6.484375 
Q 5.515625 14.40625 5.515625 27.296875 
Q 5.515625 40.1875 11.734375 48.09375 
Q 17.96875 56 27.875 56 
Q 33.9375 56 38.25 53.625 
Q 42.578125 51.265625 45.40625 46.390625 
M 14.796875 27.296875 
Q 14.796875 17.390625 18.875 11.75 
Q 22.953125 6.109375 30.078125 6.109375 
Q 37.203125 6.109375 41.296875 11.75 
Q 45.40625 17.390625 45.40625 27.296875 
Q 45.40625 37.203125 41.296875 42.84375 
Q 37.203125 48.484375 30.078125 48.484375 
Q 22.953125 48.484375 18.875 42.84375 
Q 14.796875 37.203125 14.796875 27.296875 
" id="DejaVuSans-64"/>
      <path d="M 9.421875 54.6875 
L 18.40625 54.6875 
L 18.40625 0 
L 9.421875 0 
z
M 9.421875 75.984375 
L 18.40625 75.984375 
L 18.40625 64.59375 
L 9.421875 64.59375 
z
" id="DejaVuSans-69"/>
      <path d="M 52 44.1875 
Q 55.375 50.25 60.0625 53.125 
Q 64.75 56 71.09375 56 
Q 79.640625 56 84.28125 50.015625 
Q 88.921875 44.046875 88.921875 33.015625 
L 88.921875 0 
L 79.890625 0 
L 79.890625 32.71875 
Q 79.890625 40.578125 77.09375 44.375 
Q 74.3125 48.1875 68.609375 48.1875 
Q 61.625 48.1875 57.5625 43.546875 
Q 53.515625 38.921875 53.515625 30.90625 
L 53.515625 0 
L 44.484375 0 
L 44.484375 32.71875 
Q 44.484375 40.625 41.703125 44.40625 
Q 38.921875 48.1875 33.109375 48.1875 
Q 26.21875 48.1875 22.15625 43.53125 
Q 18.109375 38.875 18.109375 30.90625 
L 18.109375 0 
L 9.078125 0 
L 9.078125 54.6875 
L 18.109375 54.6875 
L 18.109375 46.1875 
Q 21.1875 51.21875 25.484375 53.609375 
Q 29.78125 56 35.6875 56 
Q 41.65625 56 45.828125 52.96875 
Q 50 49.953125 52 44.1875 
" id="DejaVuSans-6d"/>
      <path d="M 54.890625 33.015625 
L 54.890625 0 
L 45.90625 0 
L 45.90625 32.71875 
Q 45.90625 40.484375 42.875 44.328125 
Q 39.84375 48.1875 33.796875 48.1875 
Q 26.515625 48.1875 22.3125 43.546875 
Q 18.109375 38.921875 18.109375 30.90625 
L 18.109375 0 
L 9.078125 0 
L 9.078125 54.6875 
L 18.109375 54.6875 
L 18.109375 46.1875 
Q 21.34375 51.125 25.703125 53.5625 
Q 30.078125 56 35.796875 56 
Q 45.21875 56 50.046875 50.171875 
Q 54.890625 44.34375 54.890625 33.015625 
" id="DejaVuSans-6e"/>
      <path d="M 8.015625 75.875 
L 15.828125 75.875 
Q 23.140625 64.359375 26.78125 53.3125 
Q 30.421875 42.28125 30.421875 31.390625 
Q 30.421875 20.453125 26.78125 9.375 
Q 23.140625 -1.703125 15.828125 -13.1875 
L 8.015625 -13.1875 
Q 14.5 -2 17.703125 9.0625 
Q 20.90625 20.125 20.90625 31.390625 
Q 20.90625 42.671875 17.703125 53.65625 
Q 14.5 64.65625 8.015625 75.875 
" id="DejaVuSans-29"/>
     </defs>
     <g transform="translate(107.015156 342.278812)scale(0.18 -0.18)">
      <use xlink:href="#DejaVuSans-6c"/>
      <use x="27.783203" xlink:href="#DejaVuSans-6f"/>
      <use x="88.964844" xlink:href="#DejaVuSans-67"/>
      <use x="152.441406" xlink:href="#DejaVuSans-31"/>
      <use x="216.064453" xlink:href="#DejaVuSans-30"/>
      <use x="279.6875" xlink:href="#DejaVuSans-20"/>
      <use x="311.474609" xlink:href="#DejaVuSans-6f"/>
      <use x="372.65625" xlink:href="#DejaVuSans-66"/>
      <use x="407.861328" xlink:href="#DejaVuSans-20"/>
      <use x="439.648438" xlink:href="#DejaVuSans-28"/>
      <use x="478.662109" xlink:href="#DejaVuSans-23"/>
      <use x="562.451172" xlink:href="#DejaVuSans-20"/>
      <use x="594.238281" xlink:href="#DejaVuSans-66"/>
      <use x="629.365234" xlink:href="#DejaVuSans-2d"/>
      <use x="665.449219" xlink:href="#DejaVuSans-65"/>
      <use x="726.972656" xlink:href="#DejaVuSans-76"/>
      <use x="786.152344" xlink:href="#DejaVuSans-61"/>
      <use x="847.431641" xlink:href="#DejaVuSans-6c"/>
      <use x="875.214844" xlink:href="#DejaVuSans-73"/>
      <use x="927.314453" xlink:href="#DejaVuSans-20"/>
      <use x="959.101562" xlink:href="#DejaVuSans-2f"/>
      <use x="992.792969" xlink:href="#DejaVuSans-20"/>
      <use x="1024.580078" xlink:href="#DejaVuSans-64"/>
      <use x="1088.056641" xlink:href="#DejaVuSans-69"/>
      <use x="1115.839844" xlink:href="#DejaVuSans-6d"/>
      <use x="1213.251953" xlink:href="#DejaVuSans-65"/>
      <use x="1274.775391" xlink:href="#DejaVuSans-6e"/>
      <use x="1338.154297" xlink:href="#DejaVuSans-73"/>
      <use x="1390.253906" xlink:href="#DejaVuSans-69"/>
      <use x="1418.037109" xlink:href="#DejaVuSans-6f"/>
      <use x="1479.21875" xlink:href="#DejaVuSans-6e"/>
      <use x="1542.597656" xlink:href="#DejaVuSans-29"/>
     </g>
    </g>
   </g>
   <g id="matplotlib.axis_2">
    <g id="ytick_1">
     <g id="line2d_29">
      <path clip-path="url(#p8bc18453d8)" d="M 70.8 298.245375 
L 427.92 298.245375 
" style="fill:none;stroke:#b0b0b0;stroke-linecap:square;stroke-width:0.8;"/>
     </g>
     <g id="line2d_30">
      <defs>
       <path d="M 0 0 
L -3.5 0 
" id="mb6361e9e05" style="stroke:#000000;stroke-width:0.8;"/>
      </defs>
      <g>
       <use style="stroke:#000000;stroke-width:0.8;" x="70.8" xlink:href="#mb6361e9e05" y="298.245375"/>
      </g>
     </g>
     <g id="text_7">
      <!-- 0.0 -->
      <defs>
       <path d="M 10.6875 12.40625 
L 21 12.40625 
L 21 0 
L 10.6875 0 
z
" id="DejaVuSans-2e"/>
      </defs>
      <g transform="translate(31.99375 305.843812)scale(0.2 -0.2)">
       <use xlink:href="#DejaVuSans-30"/>
       <use x="63.623047" xlink:href="#DejaVuSans-2e"/>
       <use x="95.410156" xlink:href="#DejaVuSans-30"/>
      </g>
     </g>
    </g>
    <g id="ytick_2">
     <g id="line2d_31">
      <path clip-path="url(#p8bc18453d8)" d="M 70.8 245.549929 
L 427.92 245.549929 
" style="fill:none;stroke:#b0b0b0;stroke-linecap:square;stroke-width:0.8;"/>
     </g>
     <g id="line2d_32">
      <g>
       <use style="stroke:#000000;stroke-width:0.8;" x="70.8" xlink:href="#mb6361e9e05" y="245.549929"/>
      </g>
     </g>
     <g id="text_8">
      <!-- 0.2 -->
      <g transform="translate(31.99375 253.148367)scale(0.2 -0.2)">
       <use xlink:href="#DejaVuSans-30"/>
       <use x="63.623047" xlink:href="#DejaVuSans-2e"/>
       <use x="95.410156" xlink:href="#DejaVuSans-32"/>
      </g>
     </g>
    </g>
    <g id="ytick_3">
     <g id="line2d_33">
      <path clip-path="url(#p8bc18453d8)" d="M 70.8 192.854484 
L 427.92 192.854484 
" style="fill:none;stroke:#b0b0b0;stroke-linecap:square;stroke-width:0.8;"/>
     </g>
     <g id="line2d_34">
      <g>
       <use style="stroke:#000000;stroke-width:0.8;" x="70.8" xlink:href="#mb6361e9e05" y="192.854484"/>
      </g>
     </g>
     <g id="text_9">
      <!-- 0.4 -->
      <g transform="translate(31.99375 200.452921)scale(0.2 -0.2)">
       <use xlink:href="#DejaVuSans-30"/>
       <use x="63.623047" xlink:href="#DejaVuSans-2e"/>
       <use x="95.410156" xlink:href="#DejaVuSans-34"/>
      </g>
     </g>
    </g>
    <g id="ytick_4">
     <g id="line2d_35">
      <path clip-path="url(#p8bc18453d8)" d="M 70.8 140.159038 
L 427.92 140.159038 
" style="fill:none;stroke:#b0b0b0;stroke-linecap:square;stroke-width:0.8;"/>
     </g>
     <g id="line2d_36">
      <g>
       <use style="stroke:#000000;stroke-width:0.8;" x="70.8" xlink:href="#mb6361e9e05" y="140.159038"/>
      </g>
     </g>
     <g id="text_10">
      <!-- 0.6 -->
      <g transform="translate(31.99375 147.757476)scale(0.2 -0.2)">
       <use xlink:href="#DejaVuSans-30"/>
       <use x="63.623047" xlink:href="#DejaVuSans-2e"/>
       <use x="95.410156" xlink:href="#DejaVuSans-36"/>
      </g>
     </g>
    </g>
    <g id="ytick_5">
     <g id="line2d_37">
      <path clip-path="url(#p8bc18453d8)" d="M 70.8 87.463593 
L 427.92 87.463593 
" style="fill:none;stroke:#b0b0b0;stroke-linecap:square;stroke-width:0.8;"/>
     </g>
     <g id="line2d_38">
      <g>
       <use style="stroke:#000000;stroke-width:0.8;" x="70.8" xlink:href="#mb6361e9e05" y="87.463593"/>
      </g>
     </g>
     <g id="text_11">
      <!-- 0.8 -->
      <g transform="translate(31.99375 95.06203)scale(0.2 -0.2)">
       <use xlink:href="#DejaVuSans-30"/>
       <use x="63.623047" xlink:href="#DejaVuSans-2e"/>
       <use x="95.410156" xlink:href="#DejaVuSans-38"/>
      </g>
     </g>
    </g>
    <g id="ytick_6">
     <g id="line2d_39">
      <path clip-path="url(#p8bc18453d8)" d="M 70.8 34.768147 
L 427.92 34.768147 
" style="fill:none;stroke:#b0b0b0;stroke-linecap:square;stroke-width:0.8;"/>
     </g>
     <g id="line2d_40">
      <g>
       <use style="stroke:#000000;stroke-width:0.8;" x="70.8" xlink:href="#mb6361e9e05" y="34.768147"/>
      </g>
     </g>
     <g id="text_12">
      <!-- 1.0 -->
      <g transform="translate(31.99375 42.366585)scale(0.2 -0.2)">
       <use xlink:href="#DejaVuSans-31"/>
       <use x="63.623047" xlink:href="#DejaVuSans-2e"/>
       <use x="95.410156" xlink:href="#DejaVuSans-30"/>
      </g>
     </g>
    </g>
    <g id="text_13">
     <!-- Proportion of function+target pairs -->
     <defs>
      <path d="M 19.671875 64.796875 
L 19.671875 37.40625 
L 32.078125 37.40625 
Q 38.96875 37.40625 42.71875 40.96875 
Q 46.484375 44.53125 46.484375 51.125 
Q 46.484375 57.671875 42.71875 61.234375 
Q 38.96875 64.796875 32.078125 64.796875 
z
M 9.8125 72.90625 
L 32.078125 72.90625 
Q 44.34375 72.90625 50.609375 67.359375 
Q 56.890625 61.8125 56.890625 51.125 
Q 56.890625 40.328125 50.609375 34.8125 
Q 44.34375 29.296875 32.078125 29.296875 
L 19.671875 29.296875 
L 19.671875 0 
L 9.8125 0 
z
" id="DejaVuSans-50"/>
      <path d="M 41.109375 46.296875 
Q 39.59375 47.171875 37.8125 47.578125 
Q 36.03125 48 33.890625 48 
Q 26.265625 48 22.1875 43.046875 
Q 18.109375 38.09375 18.109375 28.8125 
L 18.109375 0 
L 9.078125 0 
L 9.078125 54.6875 
L 18.109375 54.6875 
L 18.109375 46.1875 
Q 20.953125 51.171875 25.484375 53.578125 
Q 30.03125 56 36.53125 56 
Q 37.453125 56 38.578125 55.875 
Q 39.703125 55.765625 41.0625 55.515625 
z
" id="DejaVuSans-72"/>
      <path d="M 18.109375 8.203125 
L 18.109375 -20.796875 
L 9.078125 -20.796875 
L 9.078125 54.6875 
L 18.109375 54.6875 
L 18.109375 46.390625 
Q 20.953125 51.265625 25.265625 53.625 
Q 29.59375 56 35.59375 56 
Q 45.5625 56 51.78125 48.09375 
Q 58.015625 40.1875 58.015625 27.296875 
Q 58.015625 14.40625 51.78125 6.484375 
Q 45.5625 -1.421875 35.59375 -1.421875 
Q 29.59375 -1.421875 25.265625 0.953125 
Q 20.953125 3.328125 18.109375 8.203125 
M 48.6875 27.296875 
Q 48.6875 37.203125 44.609375 42.84375 
Q 40.53125 48.484375 33.40625 48.484375 
Q 26.265625 48.484375 22.1875 42.84375 
Q 18.109375 37.203125 18.109375 27.296875 
Q 18.109375 17.390625 22.1875 11.75 
Q 26.265625 6.109375 33.40625 6.109375 
Q 40.53125 6.109375 44.609375 11.75 
Q 48.6875 17.390625 48.6875 27.296875 
" id="DejaVuSans-70"/>
      <path d="M 18.3125 70.21875 
L 18.3125 54.6875 
L 36.8125 54.6875 
L 36.8125 47.703125 
L 18.3125 47.703125 
L 18.3125 18.015625 
Q 18.3125 11.328125 20.140625 9.421875 
Q 21.96875 7.515625 27.59375 7.515625 
L 36.8125 7.515625 
L 36.8125 0 
L 27.59375 0 
Q 17.1875 0 13.234375 3.875 
Q 9.28125 7.765625 9.28125 18.015625 
L 9.28125 47.703125 
L 2.6875 47.703125 
L 2.6875 54.6875 
L 9.28125 54.6875 
L 9.28125 70.21875 
z
" id="DejaVuSans-74"/>
      <path d="M 8.5 21.578125 
L 8.5 54.6875 
L 17.484375 54.6875 
L 17.484375 21.921875 
Q 17.484375 14.15625 20.5 10.265625 
Q 23.53125 6.390625 29.59375 6.390625 
Q 36.859375 6.390625 41.078125 11.03125 
Q 45.3125 15.671875 45.3125 23.6875 
L 45.3125 54.6875 
L 54.296875 54.6875 
L 54.296875 0 
L 45.3125 0 
L 45.3125 8.40625 
Q 42.046875 3.421875 37.71875 1 
Q 33.40625 -1.421875 27.6875 -1.421875 
Q 18.265625 -1.421875 13.375 4.4375 
Q 8.5 10.296875 8.5 21.578125 
M 31.109375 56 
z
" id="DejaVuSans-75"/>
      <path d="M 48.78125 52.59375 
L 48.78125 44.1875 
Q 44.96875 46.296875 41.140625 47.34375 
Q 37.3125 48.390625 33.40625 48.390625 
Q 24.65625 48.390625 19.8125 42.84375 
Q 14.984375 37.3125 14.984375 27.296875 
Q 14.984375 17.28125 19.8125 11.734375 
Q 24.65625 6.203125 33.40625 6.203125 
Q 37.3125 6.203125 41.140625 7.25 
Q 44.96875 8.296875 48.78125 10.40625 
L 48.78125 2.09375 
Q 45.015625 0.34375 40.984375 -0.53125 
Q 36.96875 -1.421875 32.421875 -1.421875 
Q 20.0625 -1.421875 12.78125 6.34375 
Q 5.515625 14.109375 5.515625 27.296875 
Q 5.515625 40.671875 12.859375 48.328125 
Q 20.21875 56 33.015625 56 
Q 37.15625 56 41.109375 55.140625 
Q 45.0625 54.296875 48.78125 52.59375 
" id="DejaVuSans-63"/>
      <path d="M 46 62.703125 
L 46 35.5 
L 73.1875 35.5 
L 73.1875 27.203125 
L 46 27.203125 
L 46 0 
L 37.796875 0 
L 37.796875 27.203125 
L 10.59375 27.203125 
L 10.59375 35.5 
L 37.796875 35.5 
L 37.796875 62.703125 
z
" id="DejaVuSans-2b"/>
     </defs>
     <g transform="translate(24.250312 323.17875)rotate(-90)scale(0.18 -0.18)">
      <use xlink:href="#DejaVuSans-50"/>
      <use x="60.287109" xlink:href="#DejaVuSans-72"/>
      <use x="101.369141" xlink:href="#DejaVuSans-6f"/>
      <use x="162.550781" xlink:href="#DejaVuSans-70"/>
      <use x="226.027344" xlink:href="#DejaVuSans-6f"/>
      <use x="287.208984" xlink:href="#DejaVuSans-72"/>
      <use x="328.322266" xlink:href="#DejaVuSans-74"/>
      <use x="367.53125" xlink:href="#DejaVuSans-69"/>
      <use x="395.314453" xlink:href="#DejaVuSans-6f"/>
      <use x="456.496094" xlink:href="#DejaVuSans-6e"/>
      <use x="519.875" xlink:href="#DejaVuSans-20"/>
      <use x="551.662109" xlink:href="#DejaVuSans-6f"/>
      <use x="612.84375" xlink:href="#DejaVuSans-66"/>
      <use x="648.048828" xlink:href="#DejaVuSans-20"/>
      <use x="679.835938" xlink:href="#DejaVuSans-66"/>
      <use x="715.041016" xlink:href="#DejaVuSans-75"/>
      <use x="778.419922" xlink:href="#DejaVuSans-6e"/>
      <use x="841.798828" xlink:href="#DejaVuSans-63"/>
      <use x="896.779297" xlink:href="#DejaVuSans-74"/>
      <use x="935.988281" xlink:href="#DejaVuSans-69"/>
      <use x="963.771484" xlink:href="#DejaVuSans-6f"/>
      <use x="1024.953125" xlink:href="#DejaVuSans-6e"/>
      <use x="1088.332031" xlink:href="#DejaVuSans-2b"/>
      <use x="1172.121094" xlink:href="#DejaVuSans-74"/>
      <use x="1211.330078" xlink:href="#DejaVuSans-61"/>
      <use x="1272.609375" xlink:href="#DejaVuSans-72"/>
      <use x="1313.707031" xlink:href="#DejaVuSans-67"/>
      <use x="1377.183594" xlink:href="#DejaVuSans-65"/>
      <use x="1438.707031" xlink:href="#DejaVuSans-74"/>
      <use x="1477.916016" xlink:href="#DejaVuSans-20"/>
      <use x="1509.703125" xlink:href="#DejaVuSans-70"/>
      <use x="1573.179688" xlink:href="#DejaVuSans-61"/>
      <use x="1634.458984" xlink:href="#DejaVuSans-69"/>
      <use x="1662.242188" xlink:href="#DejaVuSans-72"/>
      <use x="1703.355469" xlink:href="#DejaVuSans-73"/>
     </g>
    </g>
   </g>
   <g id="line2d_41">
    <defs>
     <path d="M 0 1.5 
C 0.397805 1.5 0.77937 1.341951 1.06066 1.06066 
C 1.341951 0.77937 1.5 0.397805 1.5 0 
C 1.5 -0.397805 1.341951 -0.77937 1.06066 -1.06066 
C 0.77937 -1.341951 0.397805 -1.5 0 -1.5 
C -0.397805 -1.5 -0.77937 -1.341951 -1.06066 -1.06066 
C -1.341951 -0.77937 -1.5 -0.397805 -1.5 0 
C -1.5 0.397805 -1.341951 0.77937 -1.06066 1.06066 
C -0.77937 1.341951 -0.397805 1.5 0 1.5 
z
" id="m94393d351b" style="stroke:#000080;"/>
    </defs>
    <g>
     <use style="fill:#000080;stroke:#000080;" x="158.514074" xlink:href="#m94393d351b" y="34.768147"/>
     <use style="fill:#000080;stroke:#000080;" x="158.514074" xlink:href="#m94393d351b" y="34.768147"/>
    </g>
   </g>
   <g id="line2d_42">
    <path d="M 58.414766 298.245375 
L 58.414766 272.930896 
L 70.8 272.930896 
L 70.8 270.864408 
L 78.044898 270.864408 
L 78.044898 269.314542 
L 83.185234 269.314542 
L 83.185234 266.21481 
L 87.172389 266.21481 
L 87.172389 264.148322 
L 90.430132 264.148322 
L 90.430132 263.115078 
L 97.675029 263.115078 
L 97.675029 262.598456 
L 99.557623 262.598456 
L 99.557623 258.982102 
L 101.260636 258.982102 
L 101.260636 253.815882 
L 102.815366 253.815882 
L 102.815366 251.749394 
L 107.955702 251.749394 
L 107.955702 251.232772 
L 109.03895 251.232772 
L 109.03895 250.199528 
L 110.060263 250.199528 
L 110.060263 249.682906 
L 111.026343 249.682906 
L 111.026343 248.649662 
L 111.942857 248.649662 
L 111.942857 246.066551 
L 113.64587 246.066551 
L 113.64587 244.000063 
L 114.44014 244.000063 
L 114.44014 242.966819 
L 115.2006 242.966819 
L 115.2006 240.900331 
L 116.630812 240.900331 
L 116.630812 238.833843 
L 117.305161 238.833843 
L 117.305161 238.317221 
L 117.954982 238.317221 
L 117.954982 236.767355 
L 118.581998 236.767355 
L 118.581998 234.184245 
L 122.445497 234.184245 
L 122.445497 233.667623 
L 123.411577 233.667623 
L 123.411577 231.084513 
L 123.87571 231.084513 
L 123.87571 228.501403 
L 124.328091 228.501403 
L 124.328091 227.984781 
L 124.769302 227.984781 
L 124.769302 225.401671 
L 125.19988 225.401671 
L 125.19988 221.268695 
L 126.825374 221.268695 
L 126.825374 220.752073 
L 127.209649 220.752073 
L 127.209649 219.202207 
L 127.585834 219.202207 
L 127.585834 218.685585 
L 127.954262 218.685585 
L 127.954262 216.102475 
L 128.315246 216.102475 
L 128.315246 215.069231 
L 128.669082 215.069231 
L 128.669082 211.969498 
L 130.018259 211.969498 
L 130.018259 210.419632 
L 130.340216 210.419632 
L 130.340216 206.803278 
L 130.656474 206.803278 
L 130.656474 201.637058 
L 130.967232 201.637058 
L 130.967232 198.537326 
L 131.868336 198.537326 
L 131.868336 197.504082 
L 132.158881 197.504082 
L 132.158881 193.371106 
L 133.276002 193.371106 
L 133.276002 192.337862 
L 134.327371 192.337862 
L 134.327371 191.82124 
L 134.580824 191.82124 
L 134.580824 187.171642 
L 134.830731 187.171642 
L 134.830731 185.105154 
L 135.077192 185.105154 
L 135.077192 182.522044 
L 135.3203 182.522044 
L 135.3203 182.005422 
L 135.560144 182.005422 
L 135.560144 180.972178 
L 135.796811 180.972178 
L 135.796811 179.938934 
L 136.488566 179.938934 
L 136.488566 178.90569 
L 136.713325 178.90569 
L 136.713325 170.639737 
L 136.935292 170.639737 
L 136.935292 170.123115 
L 137.796573 170.123115 
L 137.796573 169.606493 
L 138.005559 169.606493 
L 138.005559 169.089871 
L 138.212129 169.089871 
L 138.212129 168.056627 
L 138.817886 168.056627 
L 138.817886 166.506761 
L 139.015326 166.506761 
L 139.015326 164.956895 
L 139.403779 164.956895 
L 139.403779 163.923651 
L 139.783966 163.923651 
L 139.783966 157.724187 
L 139.971068 157.724187 
L 139.971068 157.207565 
L 140.156232 157.207565 
L 140.156232 156.174321 
L 140.5209 156.174321 
L 140.5209 155.141077 
L 141.054316 155.141077 
L 141.054316 154.624455 
L 141.22864 154.624455 
L 141.22864 154.107833 
L 141.741636 154.107833 
L 141.741636 149.974857 
L 142.72545 149.974857 
L 142.72545 148.424991 
L 142.884279 148.424991 
L 142.884279 145.325259 
L 143.041708 145.325259 
L 143.041708 143.775392 
L 143.197763 143.775392 
L 143.197763 142.742148 
L 143.352466 142.742148 
L 143.352466 142.225526 
L 144.106507 142.225526 
L 144.106507 141.708904 
L 144.399433 141.708904 
L 144.399433 139.125794 
L 144.544115 139.125794 
L 144.544115 137.575928 
L 144.830011 137.575928 
L 144.830011 136.026062 
L 145.250457 136.026062 
L 145.250457 134.476196 
L 145.525356 134.476196 
L 145.525356 131.376464 
L 145.661236 131.376464 
L 145.661236 128.793354 
L 145.796091 128.793354 
L 145.796091 127.243488 
L 146.062784 127.243488 
L 146.062784 126.210244 
L 146.325555 126.210244 
L 146.325555 124.143756 
L 146.584518 124.143756 
L 146.584518 121.044024 
L 146.712605 121.044024 
L 146.712605 117.944292 
L 146.839781 117.944292 
L 146.839781 116.394426 
L 146.966058 116.394426 
L 146.966058 114.327938 
L 147.584393 114.327938 
L 147.584393 113.811316 
L 147.705534 113.811316 
L 147.705534 110.711584 
L 147.825858 110.711584 
L 147.825858 109.678339 
L 147.945378 109.678339 
L 147.945378 109.161717 
L 148.064103 109.161717 
L 148.064103 108.128473 
L 148.182045 108.128473 
L 148.182045 107.611851 
L 148.415618 107.611851 
L 148.415618 104.512119 
L 148.646178 104.512119 
L 148.646178 101.412387 
L 148.8738 101.412387 
L 148.8738 100.379143 
L 148.986533 100.379143 
L 148.986533 96.762789 
L 149.098559 96.762789 
L 149.098559 94.696301 
L 149.320526 94.696301 
L 149.320526 92.629813 
L 149.648391 92.629813 
L 149.756356 86.946971 
L 149.863672 86.946971 
L 149.863672 85.397105 
L 150.181807 85.397105 
L 150.286606 81.264129 
L 150.390793 81.264129 
L 150.390793 80.230885 
L 150.597364 80.230885 
L 150.597364 76.097908 
L 151.003475 76.097908 
L 151.003475 73.514798 
L 151.20312 73.514798 
L 151.20312 71.964932 
L 151.40056 71.964932 
L 151.498468 69.381822 
L 151.595842 69.381822 
L 151.595842 68.8652 
L 151.789013 68.8652 
L 151.884821 64.732224 
L 151.980117 64.732224 
L 151.980117 64.215602 
L 152.541466 64.215602 
L 152.633333 61.632492 
L 152.72473 61.632492 
L 152.72473 57.499516 
L 152.906134 57.499516 
L 152.906134 56.466272 
L 153.085714 56.466272 
L 153.085714 55.94965 
L 153.263508 55.94965 
L 153.263508 55.433028 
L 153.43955 55.433028 
L 153.43955 54.916406 
L 153.613874 54.916406 
L 153.700403 49.233564 
L 154.12687 49.233564 
L 154.210955 46.650454 
L 154.294647 46.650454 
L 154.294647 45.61721 
L 154.460863 45.61721 
L 154.460863 44.583966 
L 154.707324 44.583966 
L 154.707324 44.067344 
L 155.030737 44.067344 
L 155.110684 43.0341 
L 155.190275 43.0341 
L 155.190275 40.967611 
L 155.582997 40.967611 
L 155.582997 39.934367 
L 155.814552 39.934367 
L 155.814552 38.901123 
L 156.857155 38.901123 
L 156.857155 37.351257 
L 157.97866 37.351257 
L 157.97866 36.318013 
L 158.514074 36.318013 
L 158.514074 34.768147 
L 358.8 34.768147 
L 358.8 34.768147 
" style="fill:none;stroke:#000080;stroke-linecap:square;stroke-width:1.5;"/>
   </g>
   <g id="line2d_43">
    <defs>
     <path d="M 0 6 
C 1.591219 6 3.117479 5.367802 4.242641 4.242641 
C 5.367802 3.117479 6 1.591219 6 0 
C 6 -1.591219 5.367802 -3.117479 4.242641 -4.242641 
C 3.117479 -5.367802 1.591219 -6 0 -6 
C -1.591219 -6 -3.117479 -5.367802 -4.242641 -4.242641 
C -5.367802 -3.117479 -6 -1.591219 -6 0 
C -6 1.591219 -5.367802 3.117479 -4.242641 4.242641 
C -3.117479 5.367802 -1.591219 6 0 6 
z
" id="m4949c8a33c" style="stroke:#000080;stroke-width:1.5;"/>
    </defs>
    <g>
     <use style="fill:none;stroke:#000080;stroke-width:1.5;" x="132.158881" xlink:href="#m4949c8a33c" y="197.504082"/>
     <use style="fill:none;stroke:#000080;stroke-width:1.5;" x="146.966058" xlink:href="#m4949c8a33c" y="116.394426"/>
     <use style="fill:none;stroke:#000080;stroke-width:1.5;" x="158.514074" xlink:href="#m4949c8a33c" y="36.318013"/>
     <use style="fill:none;stroke:#000080;stroke-width:1.5;" x="158.514074" xlink:href="#m4949c8a33c" y="34.768147"/>
     <use style="fill:none;stroke:#000080;stroke-width:1.5;" x="158.514074" xlink:href="#m4949c8a33c" y="34.768147"/>
     <use style="fill:none;stroke:#000080;stroke-width:1.5;" x="358.8" xlink:href="#m4949c8a33c" y="34.768147"/>
    </g>
   </g>
   <g id="line2d_44"/>
   <g id="line2d_45">
    <defs>
     <path d="M 0 1.5 
C 0.397805 1.5 0.77937 1.341951 1.06066 1.06066 
C 1.341951 0.77937 1.5 0.397805 1.5 0 
C 1.5 -0.397805 1.341951 -0.77937 1.06066 -1.06066 
C 0.77937 -1.341951 0.397805 -1.5 0 -1.5 
C -0.397805 -1.5 -0.77937 -1.341951 -1.06066 -1.06066 
C -1.341951 -0.77937 -1.5 -0.397805 -1.5 0 
C -1.5 0.397805 -1.341951 0.77937 -1.06066 1.06066 
C -0.77937 1.341951 -0.397805 1.5 0 1.5 
z
" id="mba41a677e0" style="stroke:#ff00ff;"/>
    </defs>
    <g>
     <use style="fill:#ff00ff;stroke:#ff00ff;" x="243.158937" xlink:href="#mba41a677e0" y="215.585853"/>
     <use style="fill:#ff00ff;stroke:#ff00ff;" x="243.158937" xlink:href="#mba41a677e0" y="215.585853"/>
    </g>
   </g>
   <g id="line2d_46">
    <path d="M 123.87571 298.245375 
L 123.87571 297.212131 
L 126.031105 297.212131 
L 126.031105 296.695509 
L 127.585834 296.695509 
L 127.585834 296.178887 
L 127.954262 296.178887 
L 127.954262 295.145643 
L 128.669082 295.145643 
L 128.669082 294.629021 
L 131.572989 294.629021 
L 131.572989 293.595777 
L 134.580824 293.595777 
L 134.580824 291.012667 
L 135.560144 291.012667 
L 135.560144 289.979423 
L 137.154536 289.979423 
L 137.154536 289.462801 
L 137.585114 289.462801 
L 137.585114 288.946179 
L 138.416339 288.946179 
L 138.416339 286.879691 
L 139.015326 286.879691 
L 139.015326 283.779959 
L 139.210608 283.779959 
L 139.210608 283.263337 
L 140.878274 283.263337 
L 140.878274 280.680226 
L 144.687635 280.680226 
L 144.687635 280.163604 
L 145.929935 280.163604 
L 145.929935 279.646982 
L 146.839781 279.646982 
L 146.839781 279.13036 
L 165.912159 279.13036 
L 165.912159 278.613738 
L 167.133306 278.613738 
L 167.133306 276.54725 
L 167.335665 276.54725 
L 167.335665 276.030628 
L 167.968231 276.030628 
L 167.968231 274.997384 
L 168.390483 274.997384 
L 168.390483 272.930896 
L 168.728691 272.930896 
L 168.802987 271.897652 
L 169.024039 271.897652 
L 169.133547 270.347786 
L 169.458103 270.347786 
L 169.458103 269.831164 
L 169.84694 269.831164 
L 169.84694 268.79792 
L 170.329892 268.79792 
L 170.329892 267.764676 
L 170.633606 267.764676 
L 170.633606 267.248054 
L 179.148416 267.248054 
L 179.148416 266.21481 
L 179.375513 266.21481 
L 179.457383 264.148322 
L 179.720899 264.148322 
L 179.801206 261.565212 
L 180.177808 261.565212 
L 180.177808 260.531968 
L 180.450311 260.531968 
L 180.450311 259.498724 
L 180.623323 259.498724 
L 180.623323 258.982102 
L 185.816192 258.982102 
L 185.816192 258.46548 
L 185.972868 258.46548 
L 185.972868 257.948858 
L 186.128183 257.948858 
L 186.184328 256.398992 
L 186.282159 256.398992 
L 186.36559 254.332504 
L 186.40716 254.332504 
L 186.40716 253.29926 
L 186.531292 253.29926 
L 186.531292 252.782638 
L 186.992606 252.782638 
L 186.992606 252.266016 
L 191.134464 252.266016 
L 191.229817 248.649662 
L 191.439909 248.649662 
L 191.439909 248.13304 
L 191.585517 248.13304 
L 191.606222 247.099796 
L 191.750487 247.099796 
L 191.750487 246.583173 
L 194.85189 246.583173 
L 194.85189 246.066551 
L 194.997963 246.066551 
L 195.023618 245.033307 
L 195.19371 245.033307 
L 195.19371 244.516685 
L 195.311819 244.516685 
L 195.311819 244.000063 
L 197.774337 244.000063 
L 197.774337 243.483441 
L 198.151285 243.483441 
L 198.151285 241.416953 
L 198.39352 241.416953 
L 198.457095 239.867087 
L 200.812173 239.867087 
L 200.812173 239.350465 
L 200.935359 239.350465 
L 201.033301 237.800599 
L 203.111389 237.800599 
L 203.127684 236.250733 
L 203.235944 236.250733 
L 203.322081 233.151001 
L 205.080181 233.151001 
L 205.177264 231.601135 
L 205.273822 231.601135 
L 205.350695 229.534647 
L 207.01575 229.534647 
L 207.01575 229.018025 
L 207.172298 229.018025 
L 207.172298 228.501403 
L 208.817359 228.501403 
L 208.817359 227.984781 
L 210.207127 227.984781 
L 210.207127 226.951537 
L 210.388863 226.951537 
L 210.388863 226.434915 
L 215.264158 226.434915 
L 215.357507 225.401671 
L 216.332664 225.401671 
L 216.332664 224.368427 
L 218.341606 224.368427 
L 218.378643 223.335183 
L 219.165773 223.335183 
L 219.27607 222.301939 
L 220.063358 222.301939 
L 220.153617 221.268695 
L 221.672193 221.268695 
L 221.672193 220.752073 
L 224.566963 220.752073 
L 224.566963 220.235451 
L 225.209481 220.235451 
L 225.209481 219.718829 
L 225.829695 219.718829 
L 225.829695 219.202207 
L 228.599527 219.202207 
L 228.599527 218.685585 
L 229.157148 218.685585 
L 229.157148 218.168963 
L 231.523326 218.168963 
L 231.523326 217.652341 
L 234.384242 217.652341 
L 234.384242 217.135719 
L 238.991034 217.135719 
L 238.991034 216.619097 
L 239.304898 216.619097 
L 239.304898 216.102475 
L 243.158937 216.102475 
L 243.158937 215.585853 
L 358.8 215.585853 
L 358.8 215.585853 
" style="fill:none;stroke:#ff00ff;stroke-linecap:square;stroke-width:1.5;"/>
   </g>
   <g id="line2d_47">
    <defs>
     <path d="M -0 8.485281 
L 5.091169 0 
L 0 -8.485281 
L -5.091169 -0 
z
" id="m0f3191cec9" style="stroke:#ff00ff;stroke-linejoin:miter;stroke-width:1.5;"/>
    </defs>
    <g>
     <use style="fill:none;stroke:#ff00ff;stroke-linejoin:miter;stroke-width:1.5;" x="180.177808" xlink:href="#m0f3191cec9" y="260.531968"/>
     <use style="fill:none;stroke:#ff00ff;stroke-linejoin:miter;stroke-width:1.5;" x="231.523326" xlink:href="#m0f3191cec9" y="217.652341"/>
     <use style="fill:none;stroke:#ff00ff;stroke-linejoin:miter;stroke-width:1.5;" x="243.158937" xlink:href="#m0f3191cec9" y="215.585853"/>
     <use style="fill:none;stroke:#ff00ff;stroke-linejoin:miter;stroke-width:1.5;" x="243.158937" xlink:href="#m0f3191cec9" y="215.585853"/>
     <use style="fill:none;stroke:#ff00ff;stroke-linejoin:miter;stroke-width:1.5;" x="358.8" xlink:href="#m0f3191cec9" y="215.585853"/>
    </g>
   </g>
   <g id="line2d_48"/>
   <g id="line2d_49">
    <path clip-path="url(#p8bc18453d8)" d="M 165.470948 279.13036 
" style="fill:none;stroke:#ff00ff;stroke-linecap:square;stroke-width:1.5;"/>
    <defs>
     <path d="M -12 12 
L 12 -12 
M -12 -12 
L 12 12 
" id="m570bb8b5fe" style="stroke:#ff00ff;stroke-width:3;"/>
    </defs>
    <g clip-path="url(#p8bc18453d8)">
     <use style="fill:#ff00ff;stroke:#ff00ff;stroke-width:3;" x="165.470948" xlink:href="#m570bb8b5fe" y="279.13036"/>
    </g>
   </g>
   <g id="line2d_50">
    <defs>
     <path d="M 0 1.5 
C 0.397805 1.5 0.77937 1.341951 1.06066 1.06066 
C 1.341951 0.77937 1.5 0.397805 1.5 0 
C 1.5 -0.397805 1.341951 -0.77937 1.06066 -1.06066 
C 0.77937 -1.341951 0.397805 -1.5 0 -1.5 
C -0.397805 -1.5 -0.77937 -1.341951 -1.06066 -1.06066 
C -1.341951 -0.77937 -1.5 -0.397805 -1.5 0 
C -1.5 0.397805 -1.341951 0.77937 -1.06066 1.06066 
C -0.77937 1.341951 -0.397805 1.5 0 1.5 
z
" id="m9223e106c4" style="stroke:#ffa500;"/>
    </defs>
    <g>
     <use style="fill:#ffa500;stroke:#ffa500;" x="240.203805" xlink:href="#m9223e106c4" y="34.768147"/>
     <use style="fill:#ffa500;stroke:#ffa500;" x="240.203805" xlink:href="#m9223e106c4" y="34.768147"/>
    </g>
   </g>
   <g id="line2d_51">
    <path d="M 58.414766 298.245375 
L 58.414766 295.662265 
L 70.8 295.662265 
L 70.8 295.145643 
L 78.044898 295.145643 
L 78.044898 294.112399 
L 83.185234 294.112399 
L 83.185234 293.595777 
L 90.430132 293.595777 
L 90.430132 293.079155 
L 93.184514 293.079155 
L 93.184514 290.496045 
L 95.570468 290.496045 
L 95.570468 286.879691 
L 99.557623 286.879691 
L 99.557623 285.846447 
L 101.260636 285.846447 
L 101.260636 284.296581 
L 104.245578 284.296581 
L 104.245578 283.263337 
L 105.569748 283.263337 
L 105.569748 282.746715 
L 106.802521 282.746715 
L 106.802521 281.196849 
L 111.026343 281.196849 
L 111.026343 279.646982 
L 111.942857 279.646982 
L 111.942857 279.13036 
L 112.814645 279.13036 
L 112.814645 278.097116 
L 114.44014 278.097116 
L 114.44014 276.54725 
L 116.630812 276.54725 
L 116.630812 276.030628 
L 119.187755 276.030628 
L 119.187755 274.480762 
L 119.773647 274.480762 
L 119.773647 273.96414 
L 120.890768 273.96414 
L 120.890768 273.447518 
L 125.19988 273.447518 
L 125.19988 272.930896 
L 126.031105 272.930896 
L 126.031105 271.897652 
L 127.209649 271.897652 
L 127.209649 271.38103 
L 127.585834 271.38103 
L 127.585834 270.864408 
L 129.016046 270.864408 
L 129.016046 269.314542 
L 129.690395 269.314542 
L 129.690395 267.248054 
L 130.018259 267.248054 
L 130.018259 266.731432 
L 130.340216 266.731432 
L 130.340216 266.21481 
L 131.272677 266.21481 
L 131.272677 265.698188 
L 131.572989 265.698188 
L 131.572989 264.148322 
L 131.868336 264.148322 
L 131.868336 263.6317 
L 133.003201 263.6317 
L 133.003201 262.598456 
L 135.560144 262.598456 
L 135.560144 260.531968 
L 135.796811 260.531968 
L 135.796811 260.015346 
L 136.488566 260.015346 
L 136.488566 259.498724 
L 136.935292 259.498724 
L 136.935292 258.982102 
L 137.154536 258.982102 
L 137.154536 257.948858 
L 137.585114 257.948858 
L 137.585114 257.432236 
L 138.61824 257.432236 
L 138.61824 256.398992 
L 141.22864 256.398992 
L 141.22864 255.88237 
L 141.741636 255.88237 
L 141.741636 253.815882 
L 145.388435 253.815882 
L 145.388435 251.749394 
L 146.455505 251.749394 
L 146.455505 251.232772 
L 149.970348 251.232772 
L 149.970348 250.199528 
L 150.181807 250.199528 
L 150.181807 249.682906 
L 154.042387 249.682906 
L 154.042387 249.166284 
L 154.543395 249.166284 
L 154.543395 248.649662 
L 156.193932 248.649662 
L 156.193932 248.13304 
L 157.635691 248.13304 
L 157.635691 246.583173 
L 159.16154 246.583173 
L 159.16154 246.066551 
L 159.288265 246.066551 
L 159.288265 245.033307 
L 167.654747 245.033307 
L 167.654747 244.516685 
L 167.851318 244.516685 
L 167.851318 244.000063 
L 168.161402 244.000063 
L 168.199786 242.450197 
L 168.579166 242.450197 
L 168.579166 241.933575 
L 168.691427 241.933575 
L 168.691427 241.416953 
L 168.802987 241.416953 
L 168.802987 240.383709 
L 169.060616 240.383709 
L 169.060616 239.867087 
L 169.671244 239.867087 
L 169.671244 236.250733 
L 170.499259 236.250733 
L 170.499259 234.184245 
L 171.799331 234.184245 
L 171.830651 231.601135 
L 172.385224 231.601135 
L 172.385224 230.567891 
L 173.040461 230.567891 
L 173.040461 230.051269 
L 173.813102 230.051269 
L 173.813102 228.501403 
L 174.364631 228.501403 
L 174.364631 224.885049 
L 174.978533 224.885049 
L 175.030932 223.851805 
L 179.023318 223.851805 
L 179.044229 222.818561 
L 179.252 222.818561 
L 179.272645 221.785317 
L 179.660432 221.785317 
L 179.660432 220.235451 
L 180.079469 220.235451 
L 180.079469 219.718829 
L 180.450311 219.718829 
L 180.546636 217.652341 
L 180.98316 217.652341 
L 180.98316 217.135719 
L 181.262209 217.135719 
L 181.3175 214.552609 
L 181.645699 214.552609 
L 181.645699 212.48612 
L 182.126964 212.48612 
L 182.126964 211.969498 
L 182.509743 211.969498 
L 182.509743 209.90301 
L 182.850748 209.90301 
L 182.850748 208.353144 
L 183.235023 208.353144 
L 183.268051 207.3199 
L 186.057753 207.3199 
L 186.057753 206.803278 
L 186.379457 206.803278 
L 186.379457 206.286656 
L 186.613571 206.286656 
L 186.654568 203.186924 
L 186.938948 203.186924 
L 187.046103 200.603814 
L 187.442308 200.603814 
L 187.48145 198.537326 
L 187.714515 198.537326 
L 187.714515 198.020704 
L 187.995306 198.020704 
L 187.995306 196.98746 
L 188.333989 196.98746 
L 188.333989 193.371106 
L 188.58079 193.371106 
L 188.58079 192.854484 
L 188.86046 192.854484 
L 188.884573 190.787996 
L 189.064395 190.787996 
L 189.064395 190.271374 
L 191.134464 190.271374 
L 191.134464 189.754752 
L 191.387617 189.754752 
L 191.419011 186.65502 
L 191.637234 186.65502 
L 191.637234 183.555288 
L 192.025465 183.555288 
L 192.055758 180.972178 
L 192.236448 180.972178 
L 192.236448 180.455556 
L 192.454839 180.455556 
L 192.51394 177.872445 
L 192.719267 177.872445 
L 192.719267 175.289335 
L 195.151339 175.289335 
L 195.151339 171.672981 
L 195.353812 171.672981 
L 195.353812 170.123115 
L 195.54572 170.123115 
L 195.595446 169.089871 
L 195.669776 169.089871 
L 195.686252 167.540005 
L 195.84202 167.540005 
L 195.84202 166.506761 
L 196.020703 166.506761 
L 196.069126 165.473517 
L 196.237581 165.473517 
L 196.237581 164.440273 
L 196.593295 164.440273 
L 196.593295 163.407029 
L 196.71031 163.407029 
L 196.71031 162.890407 
L 198.428867 162.890407 
L 198.428867 161.340541 
L 198.716108 161.340541 
L 198.716108 160.307297 
L 198.84077 160.307297 
L 198.84077 159.790675 
L 199.026147 159.790675 
L 199.032976 158.757431 
L 199.175786 158.757431 
L 199.175786 157.207565 
L 199.310742 157.207565 
L 199.310742 156.690943 
L 199.464692 156.690943 
L 199.478016 154.624455 
L 200.904642 154.624455 
L 200.904642 153.591211 
L 201.281852 153.591211 
L 201.299904 151.008101 
L 201.407832 151.008101 
L 201.407832 150.491479 
L 201.538866 150.491479 
L 201.538866 149.458235 
L 201.698377 149.458235 
L 201.698377 148.941613 
L 201.961105 148.941613 
L 201.961105 148.424991 
L 203.20894 148.424991 
L 203.225147 146.358503 
L 203.338186 146.358503 
L 203.338186 143.775392 
L 203.49312 143.775392 
L 203.49312 143.25877 
L 203.799016 143.25877 
L 203.908493 141.708904 
L 204.140852 141.708904 
L 204.217638 140.159038 
L 205.249732 140.159038 
L 205.249732 138.09255 
L 205.555667 138.09255 
L 205.560406 137.059306 
L 205.772367 137.059306 
L 205.875085 135.50944 
L 205.967955 135.50944 
L 206.074161 134.476196 
L 206.083367 134.476196 
L 206.083367 133.959574 
L 207.081145 133.959574 
L 207.185282 130.34322 
L 207.31031 130.34322 
L 207.357506 129.309976 
L 207.646531 129.309976 
L 207.646531 126.726866 
L 207.826912 126.726866 
L 207.835258 125.177 
L 208.742175 125.177 
L 208.837092 122.077268 
L 208.951115 122.077268 
L 208.951115 121.560646 
L 209.430617 121.560646 
L 209.430617 120.527402 
L 210.261842 120.527402 
L 210.349039 117.42767 
L 210.497024 117.42767 
L 210.561607 115.877804 
L 210.736245 115.877804 
L 210.807038 114.84456 
L 210.895136 114.84456 
L 210.947788 113.811316 
L 211.662333 113.811316 
L 211.742971 112.26145 
L 211.879892 112.26145 
L 211.939674 110.194961 
L 212.01247 110.194961 
L 212.101407 108.645095 
L 212.167003 108.645095 
L 212.248659 106.578607 
L 212.297475 106.578607 
L 212.297475 106.061985 
L 212.970379 106.061985 
L 212.970379 105.545363 
L 213.160285 105.545363 
L 213.160285 105.028741 
L 213.30217 105.028741 
L 213.30217 104.512119 
L 213.506833 104.512119 
L 213.506833 103.478875 
L 214.171617 103.478875 
L 214.180394 101.412387 
L 214.326043 101.412387 
L 214.360823 99.345899 
L 214.553775 99.345899 
L 214.553775 98.829277 
L 214.724818 98.829277 
L 214.724818 98.312655 
L 215.371194 98.312655 
L 215.450371 96.762789 
L 215.779672 96.762789 
L 215.779672 96.246167 
L 216.371516 96.246167 
L 216.433505 94.179679 
L 216.641142 94.179679 
L 216.709821 91.596569 
L 216.823704 91.596569 
L 216.823704 91.079947 
L 217.377587 91.079947 
L 217.436187 89.013459 
L 217.533428 89.013459 
L 217.632555 87.463593 
L 217.644606 87.463593 
L 217.644606 86.946971 
L 218.385579 86.946971 
L 218.385579 85.913727 
L 218.633497 85.913727 
L 218.633497 84.880483 
L 219.376946 84.880483 
L 219.477255 83.330617 
L 219.615886 83.330617 
L 219.620201 82.297373 
L 220.094896 82.297373 
L 220.14524 81.264129 
L 220.370052 81.264129 
L 220.370052 80.747507 
L 220.915997 80.747507 
L 220.964083 79.714263 
L 221.081748 79.714263 
L 221.178885 78.164397 
L 221.701017 78.164397 
L 221.747039 75.581286 
L 221.82348 75.581286 
L 221.82348 74.548042 
L 222.452995 74.548042 
L 222.550299 72.481554 
L 222.570428 72.481554 
L 222.605143 71.44831 
L 222.694361 71.44831 
L 222.694361 70.931688 
L 223.1746 70.931688 
L 223.1746 69.898444 
L 223.359289 69.898444 
L 223.406474 68.348578 
L 223.978399 68.348578 
L 223.978399 67.315334 
L 224.124852 67.315334 
L 224.191787 66.28209 
L 224.707067 66.28209 
L 224.707067 65.765468 
L 224.823525 65.765468 
L 224.823525 65.248846 
L 225.217368 65.248846 
L 225.280339 63.182358 
L 225.344655 63.182358 
L 225.4181 60.599248 
L 225.837313 60.599248 
L 225.837313 60.082626 
L 226.068868 60.082626 
L 226.068868 59.566004 
L 226.981924 59.566004 
L 226.981924 58.53276 
L 227.577677 58.53276 
L 227.634245 56.982894 
L 227.696128 56.982894 
L 227.696128 56.466272 
L 227.808342 56.466272 
L 227.808342 55.94965 
L 228.089864 55.94965 
L 228.172928 54.399784 
L 228.236971 54.399784 
L 228.266248 53.36654 
L 229.163472 53.36654 
L 229.273151 51.300052 
L 229.355908 51.300052 
L 229.374664 50.266808 
L 230.19532 50.266808 
L 230.19532 49.750186 
L 230.619929 49.750186 
L 230.719887 48.716942 
L 231.052893 48.716942 
L 231.080176 47.683698 
L 231.253133 47.683698 
L 231.253133 47.167076 
L 231.528866 47.167076 
L 231.594104 45.61721 
L 232.010827 45.61721 
L 232.010827 44.583966 
L 232.393795 44.583966 
L 232.437015 43.550722 
L 233.218782 43.550722 
L 233.218782 43.0341 
L 233.593749 43.0341 
L 233.656797 41.484233 
L 234.007355 41.484233 
L 234.007355 40.967611 
L 234.366294 40.967611 
L 234.366294 40.450989 
L 234.80045 40.450989 
L 234.80045 39.934367 
L 235.487195 39.934367 
L 235.487195 39.417745 
L 235.838768 39.417745 
L 235.838768 38.901123 
L 236.215969 38.901123 
L 236.215969 38.384501 
L 236.834049 38.384501 
L 236.834049 37.867879 
L 237.160327 37.867879 
L 237.160327 37.351257 
L 237.795535 37.351257 
L 237.795535 36.834635 
L 238.205783 36.834635 
L 238.205783 36.318013 
L 238.457861 36.318013 
L 238.457861 35.801391 
L 239.654165 35.801391 
L 239.654165 35.284769 
L 240.203805 35.284769 
L 240.203805 34.768147 
L 358.8 34.768147 
L 358.8 34.768147 
" style="fill:none;stroke:#ffa500;stroke-linecap:square;stroke-width:1.5;"/>
   </g>
   <g id="line2d_52">
    <defs>
     <path d="M 0 -6 
L -1.347084 -1.854102 
L -5.706339 -1.854102 
L -2.179628 0.708204 
L -3.526712 4.854102 
L -0 2.291796 
L 3.526712 4.854102 
L 2.179628 0.708204 
L 5.706339 -1.854102 
L 1.347084 -1.854102 
z
" id="m79316bd789" style="stroke:#ffa500;stroke-linejoin:bevel;stroke-width:1.5;"/>
    </defs>
    <g>
     <use style="fill:none;stroke:#ffa500;stroke-linejoin:bevel;stroke-width:1.5;" x="133.003201" xlink:href="#m79316bd789" y="263.6317"/>
     <use style="fill:none;stroke:#ffa500;stroke-linejoin:bevel;stroke-width:1.5;" x="189.064395" xlink:href="#m79316bd789" y="190.271374"/>
     <use style="fill:none;stroke:#ffa500;stroke-linejoin:bevel;stroke-width:1.5;" x="214.360823" xlink:href="#m79316bd789" y="99.345899"/>
     <use style="fill:none;stroke:#ffa500;stroke-linejoin:bevel;stroke-width:1.5;" x="240.203805" xlink:href="#m79316bd789" y="35.284769"/>
     <use style="fill:none;stroke:#ffa500;stroke-linejoin:bevel;stroke-width:1.5;" x="240.203805" xlink:href="#m79316bd789" y="34.768147"/>
     <use style="fill:none;stroke:#ffa500;stroke-linejoin:bevel;stroke-width:1.5;" x="358.8" xlink:href="#m79316bd789" y="34.768147"/>
    </g>
   </g>
   <g id="line2d_53"/>
   <g id="line2d_54">
    <path clip-path="url(#p8bc18453d8)" d="M 165.470948 245.033307 
" style="fill:none;stroke:#ffa500;stroke-linecap:square;stroke-width:1.5;"/>
    <defs>
     <path d="M -12 12 
L 12 -12 
M -12 -12 
L 12 12 
" id="m582d742037" style="stroke:#ffa500;stroke-width:3;"/>
    </defs>
    <g clip-path="url(#p8bc18453d8)">
     <use style="fill:#ffa500;stroke:#ffa500;stroke-width:3;" x="165.470948" xlink:href="#m582d742037" y="245.033307"/>
    </g>
   </g>
   <g id="line2d_55">
    <defs>
     <path d="M 0 1.5 
C 0.397805 1.5 0.77937 1.341951 1.06066 1.06066 
C 1.341951 0.77937 1.5 0.397805 1.5 0 
C 1.5 -0.397805 1.341951 -0.77937 1.06066 -1.06066 
C 0.77937 -1.341951 0.397805 -1.5 0 -1.5 
C -0.397805 -1.5 -0.77937 -1.341951 -1.06066 -1.06066 
C -1.341951 -0.77937 -1.5 -0.397805 -1.5 0 
C -1.5 0.397805 -1.341951 0.77937 -1.06066 1.06066 
C -0.77937 1.341951 -0.397805 1.5 0 1.5 
z
" id="mdac276eafe" style="stroke:#6495ed;"/>
    </defs>
    <g>
     <use style="fill:#6495ed;stroke:#6495ed;" x="233.355319" xlink:href="#mdac276eafe" y="34.768147"/>
     <use style="fill:#6495ed;stroke:#6495ed;" x="233.355319" xlink:href="#mdac276eafe" y="34.768147"/>
    </g>
   </g>
   <g id="line2d_56">
    <path d="M 58.414766 298.245375 
L 58.414766 294.112399 
L 70.8 294.112399 
L 70.8 291.529289 
L 78.044898 291.529289 
L 78.044898 289.462801 
L 97.675029 289.462801 
L 97.675029 288.946179 
L 101.260636 288.946179 
L 101.260636 288.429557 
L 105.569748 288.429557 
L 105.569748 287.912935 
L 107.955702 287.912935 
L 107.955702 285.329825 
L 109.03895 285.329825 
L 109.03895 282.230093 
L 111.026343 282.230093 
L 111.026343 280.680226 
L 113.64587 280.680226 
L 113.64587 279.13036 
L 114.44014 279.13036 
L 114.44014 278.613738 
L 115.930012 278.613738 
L 115.930012 278.097116 
L 117.954982 278.097116 
L 117.954982 277.063872 
L 119.187755 277.063872 
L 119.187755 276.54725 
L 122.445497 276.54725 
L 122.445497 276.030628 
L 123.411577 276.030628 
L 123.411577 274.997384 
L 124.328091 274.997384 
L 124.328091 273.447518 
L 126.031105 273.447518 
L 126.031105 272.930896 
L 126.825374 272.930896 
L 126.825374 271.897652 
L 127.209649 271.897652 
L 127.209649 271.38103 
L 128.669082 271.38103 
L 128.669082 270.347786 
L 129.016046 270.347786 
L 129.016046 269.831164 
L 130.018259 269.831164 
L 130.018259 269.314542 
L 130.656474 269.314542 
L 130.656474 268.281298 
L 131.868336 268.281298 
L 131.868336 267.764676 
L 132.726171 267.764676 
L 132.726171 267.248054 
L 133.003201 267.248054 
L 133.003201 266.21481 
L 134.830731 266.21481 
L 134.830731 264.664944 
L 137.796573 264.664944 
L 137.796573 264.148322 
L 138.212129 264.148322 
L 138.212129 263.6317 
L 138.61824 263.6317 
L 138.61824 263.115078 
L 139.403779 263.115078 
L 139.403779 259.498724 
L 139.594883 259.498724 
L 139.594883 258.982102 
L 140.878274 258.982102 
L 140.878274 257.432236 
L 141.40128 257.432236 
L 141.40128 256.915614 
L 142.240313 256.915614 
L 142.240313 256.398992 
L 144.25357 256.398992 
L 144.25357 255.365748 
L 145.250457 255.365748 
L 145.250457 252.266016 
L 145.661236 252.266016 
L 145.661236 251.749394 
L 146.966058 251.749394 
L 146.966058 250.71615 
L 147.825858 250.71615 
L 147.825858 247.099796 
L 149.53977 247.099796 
L 149.53977 246.066551 
L 149.863672 246.066551 
L 149.863672 245.549929 
L 150.390793 245.549929 
L 150.390793 245.033307 
L 151.40056 245.033307 
L 151.40056 241.416953 
L 153.43955 241.416953 
L 153.43955 240.900331 
L 153.786515 240.900331 
L 153.786515 238.833843 
L 155.269513 238.833843 
L 155.269513 237.283977 
L 155.7377 237.283977 
L 155.7377 235.217489 
L 156.711885 235.217489 
L 156.711885 234.700867 
L 156.929349 234.700867 
L 156.929349 231.601135 
L 158.181325 231.601135 
L 158.181325 230.567891 
L 159.84766 230.567891 
L 159.908748 228.501403 
L 166.679881 228.501403 
L 166.679881 227.468159 
L 167.092558 227.468159 
L 167.092558 226.951537 
L 168.007033 226.951537 
L 168.007033 226.434915 
L 168.42838 226.434915 
L 168.42838 225.918293 
L 169.060616 225.918293 
L 169.060616 225.401671 
L 169.206182 225.401671 
L 169.206182 224.368427 
L 169.776869 224.368427 
L 169.776869 223.335183 
L 170.465514 223.335183 
L 170.566559 221.268695 
L 170.899308 221.268695 
L 170.899308 220.235451 
L 171.128599 220.235451 
L 171.128599 219.202207 
L 171.32282 219.202207 
L 171.32282 218.685585 
L 171.861917 218.685585 
L 171.861917 218.168963 
L 172.14087 218.168963 
L 172.171597 213.519365 
L 172.476002 213.519365 
L 172.476002 213.002743 
L 172.952513 213.002743 
L 172.952513 209.90301 
L 173.644269 209.90301 
L 173.644269 208.353144 
L 174.090995 208.353144 
L 174.146058 204.220168 
L 174.580563 204.220168 
L 174.580563 203.186924 
L 175.470228 203.186924 
L 175.470228 202.15368 
L 178.960439 202.15368 
L 178.960439 201.637058 
L 179.821226 201.637058 
L 179.821226 200.603814 
L 180.020205 200.603814 
L 180.020205 200.087192 
L 180.138537 200.087192 
L 180.138537 199.57057 
L 180.527412 199.57057 
L 180.604182 198.020704 
L 180.775717 198.020704 
L 180.775717 196.98746 
L 180.908004 196.98746 
L 180.908004 194.920972 
L 181.243741 194.920972 
L 181.243741 193.887728 
L 181.500576 193.887728 
L 181.518781 191.304618 
L 181.985713 191.304618 
L 181.985713 190.787996 
L 182.301972 190.787996 
L 182.406159 188.721508 
L 182.629836 188.721508 
L 182.681059 184.07191 
L 182.985348 184.07191 
L 182.985348 182.005422 
L 183.415926 182.005422 
L 183.432281 179.938934 
L 183.546351 179.938934 
L 183.546351 179.422312 
L 186.323923 179.422312 
L 186.379457 178.389067 
L 186.925508 178.389067 
L 186.979206 175.289335 
L 187.1924 175.289335 
L 187.1924 173.739469 
L 187.533505 173.739469 
L 187.62424 168.573249 
L 187.957275 168.573249 
L 187.957275 167.023383 
L 188.259279 167.023383 
L 188.259279 164.440273 
L 188.457815 164.440273 
L 188.457815 161.340541 
L 188.678564 161.340541 
L 188.678564 160.307297 
L 188.992683 160.307297 
L 189.004655 158.757431 
L 190.758731 158.757431 
L 190.802074 156.690943 
L 191.208671 156.690943 
L 191.208671 156.174321 
L 191.345673 156.174321 
L 191.419011 154.624455 
L 191.626903 154.624455 
L 191.657879 152.557967 
L 191.760747 152.557967 
L 191.832404 149.974857 
L 191.893596 149.974857 
L 191.893596 149.458235 
L 192.015355 149.458235 
L 192.015355 148.941613 
L 192.156367 148.941613 
L 192.266387 146.358503 
L 192.425215 146.358503 
L 192.425215 144.808637 
L 192.602226 144.808637 
L 192.660842 142.742148 
L 192.816218 142.742148 
L 192.835546 140.67566 
L 192.989416 140.67566 
L 192.989416 139.125794 
L 193.246105 139.125794 
L 193.246105 138.09255 
L 194.678496 138.09255 
L 194.678496 137.575928 
L 195.454195 137.575928 
L 195.512493 134.992818 
L 195.636779 134.992818 
L 195.727376 131.893086 
L 195.78479 131.893086 
L 195.78479 129.826598 
L 195.996442 129.826598 
L 195.996442 128.793354 
L 196.189613 128.793354 
L 196.293381 127.76011 
L 196.317243 127.76011 
L 196.333132 125.693622 
L 196.459745 125.693622 
L 196.459745 125.177 
L 196.663596 125.177 
L 196.663596 124.660378 
L 197.862034 124.660378 
L 197.862034 124.143756 
L 198.165625 124.143756 
L 198.165625 123.627134 
L 198.279936 123.627134 
L 198.372278 122.59389 
L 198.421803 122.59389 
L 198.513417 121.560646 
L 198.562553 121.560646 
L 198.562553 120.01078 
L 198.688287 120.01078 
L 198.792394 116.911048 
L 198.861463 116.911048 
L 198.861463 116.394426 
L 199.09432 116.394426 
L 199.135099 113.811316 
L 199.243391 113.811316 
L 199.256882 109.678339 
L 199.36444 109.678339 
L 199.36444 108.645095 
L 199.537854 108.645095 
L 199.54449 106.578607 
L 200.563223 106.578607 
L 200.563223 106.061985 
L 200.775051 106.061985 
L 200.775051 105.545363 
L 201.063798 105.545363 
L 201.124636 103.995497 
L 201.203417 103.995497 
L 201.257755 102.962253 
L 201.323944 102.962253 
L 201.365937 100.895765 
L 201.497277 100.895765 
L 201.521054 99.345899 
L 201.627659 99.345899 
L 201.663053 98.312655 
L 201.757096 98.312655 
L 201.862306 96.762789 
L 202.018968 96.762789 
L 202.018968 96.246167 
L 203.095078 96.246167 
L 203.095078 95.729545 
L 203.332819 95.729545 
L 203.439846 94.696301 
L 203.519698 94.696301 
L 203.615051 92.629813 
L 203.846017 92.629813 
L 203.877283 91.596569 
L 203.96039 91.596569 
L 203.970752 90.563325 
L 204.186963 90.563325 
L 204.186963 89.530081 
L 205.455858 89.530081 
L 205.565144 87.980215 
L 205.612451 87.980215 
L 205.659634 86.946971 
L 205.734869 86.946971 
L 205.734869 86.430349 
L 205.847129 86.430349 
L 205.92158 83.330617 
L 206.000345 83.330617 
L 206.004968 81.780751 
L 206.129324 81.780751 
L 206.129324 81.264129 
L 207.180955 81.264129 
L 207.267296 80.230885 
L 207.408852 80.230885 
L 207.451527 78.681019 
L 207.595865 78.681019 
L 207.697053 75.581286 
L 207.872766 75.581286 
L 207.906039 74.548042 
L 208.69055 74.548042 
L 208.69055 74.03142 
L 208.833147 74.03142 
L 208.935431 72.998176 
L 209.041032 72.998176 
L 209.142136 70.931688 
L 209.234958 70.931688 
L 209.234958 70.415066 
L 209.361805 70.415066 
L 209.361805 69.898444 
L 210.439419 69.898444 
L 210.536519 68.348578 
L 210.629526 68.348578 
L 210.714952 66.798712 
L 210.771676 66.798712 
L 210.831749 65.765468 
L 210.926746 65.765468 
L 210.926746 65.248846 
L 211.749675 65.248846 
L 211.806553 64.215602 
L 211.916449 64.215602 
L 212.002561 63.182358 
L 212.061934 63.182358 
L 212.134235 61.632492 
L 212.277965 61.632492 
L 212.277965 61.11587 
L 213.197407 61.11587 
L 213.265265 59.049382 
L 213.400212 59.049382 
L 213.455125 57.499516 
L 214.276655 57.499516 
L 214.297008 56.466272 
L 214.45612 56.466272 
L 214.45612 55.94965 
L 215.472152 55.94965 
L 215.512919 54.916406 
L 215.583362 54.916406 
L 215.691196 53.36654 
L 215.809067 53.36654 
L 215.809067 52.849918 
L 216.464418 52.849918 
L 216.549156 50.78343 
L 217.562498 50.78343 
L 217.668684 49.750186 
L 217.683115 49.750186 
L 217.683115 48.716942 
L 219.291458 48.716942 
L 219.291458 48.20032 
L 219.457674 48.20032 
L 219.548871 45.61721 
L 219.583491 45.61721 
L 219.583491 45.100588 
L 220.151523 45.100588 
L 220.151523 44.583966 
L 220.390725 44.583966 
L 220.427877 43.550722 
L 221.037964 43.550722 
L 221.037964 43.0341 
L 221.155145 43.0341 
L 221.167019 42.000855 
L 221.895798 42.000855 
L 221.895798 41.484233 
L 222.745143 41.484233 
L 222.745143 40.967611 
L 224.01386 40.967611 
L 224.01386 40.450989 
L 224.762156 40.450989 
L 224.762156 39.934367 
L 225.992016 39.934367 
L 226.043287 38.384501 
L 227.183665 38.384501 
L 227.183665 37.867879 
L 227.742741 37.867879 
L 227.742741 37.351257 
L 228.191631 37.351257 
L 228.204978 36.318013 
L 229.787261 36.318013 
L 229.787261 35.801391 
L 231.07904 35.801391 
L 231.07904 35.284769 
L 233.355319 35.284769 
L 233.355319 34.768147 
L 358.8 34.768147 
L 358.8 34.768147 
" style="fill:none;stroke:#6495ed;stroke-linecap:square;stroke-width:1.5;"/>
   </g>
   <g id="line2d_57">
    <defs>
     <path d="M -0 6 
L 6 -6 
L -6 -6 
z
" id="m3ef748a937" style="stroke:#6495ed;stroke-linejoin:miter;stroke-width:1.5;"/>
    </defs>
    <g>
     <use style="fill:none;stroke:#6495ed;stroke-linejoin:miter;stroke-width:1.5;" x="159.908748" xlink:href="#m3ef748a937" y="228.501403"/>
     <use style="fill:none;stroke:#6495ed;stroke-linejoin:miter;stroke-width:1.5;" x="192.156367" xlink:href="#m3ef748a937" y="148.424991"/>
     <use style="fill:none;stroke:#6495ed;stroke-linejoin:miter;stroke-width:1.5;" x="221.895798" xlink:href="#m3ef748a937" y="41.484233"/>
     <use style="fill:none;stroke:#6495ed;stroke-linejoin:miter;stroke-width:1.5;" x="233.355319" xlink:href="#m3ef748a937" y="34.768147"/>
     <use style="fill:none;stroke:#6495ed;stroke-linejoin:miter;stroke-width:1.5;" x="233.355319" xlink:href="#m3ef748a937" y="34.768147"/>
     <use style="fill:none;stroke:#6495ed;stroke-linejoin:miter;stroke-width:1.5;" x="358.8" xlink:href="#m3ef748a937" y="34.768147"/>
    </g>
   </g>
   <g id="line2d_58"/>
   <g id="line2d_59">
    <path clip-path="url(#p8bc18453d8)" d="M 165.470948 228.501403 
" style="fill:none;stroke:#6495ed;stroke-linecap:square;stroke-width:1.5;"/>
    <defs>
     <path d="M -12 12 
L 12 -12 
M -12 -12 
L 12 12 
" id="m6e288d2947" style="stroke:#6495ed;stroke-width:3;"/>
    </defs>
    <g clip-path="url(#p8bc18453d8)">
     <use style="fill:#6495ed;stroke:#6495ed;stroke-width:3;" x="165.470948" xlink:href="#m6e288d2947" y="228.501403"/>
    </g>
   </g>
   <g id="line2d_60">
    <defs>
     <path d="M 0 1.5 
C 0.397805 1.5 0.77937 1.341951 1.06066 1.06066 
C 1.341951 0.77937 1.5 0.397805 1.5 0 
C 1.5 -0.397805 1.341951 -0.77937 1.06066 -1.06066 
C 0.77937 -1.341951 0.397805 -1.5 0 -1.5 
C -0.397805 -1.5 -0.77937 -1.341951 -1.06066 -1.06066 
C -1.341951 -0.77937 -1.5 -0.397805 -1.5 0 
C -1.5 0.397805 -1.341951 0.77937 -1.06066 1.06066 
C -0.77937 1.341951 -0.397805 1.5 0 1.5 
z
" id="m6694c13024" style="stroke:#ff0000;"/>
    </defs>
    <g>
     <use style="fill:#ff0000;stroke:#ff0000;" x="110.060263" xlink:href="#m6694c13024" y="34.768147"/>
     <use style="fill:#ff0000;stroke:#ff0000;" x="110.060263" xlink:href="#m6694c13024" y="34.768147"/>
    </g>
   </g>
   <g id="line2d_61">
    <path d="M 58.414766 298.245375 
L 58.414766 281.713471 
L 70.8 281.713471 
L 70.8 254.332504 
L 78.044898 254.332504 
L 78.044898 238.833843 
L 83.185234 238.833843 
L 83.185234 217.652341 
L 87.172389 217.652341 
L 87.172389 177.872445 
L 90.430132 177.872445 
L 90.430132 161.340541 
L 93.184514 161.340541 
L 93.184514 150.491479 
L 95.570468 150.491479 
L 95.570468 111.228206 
L 97.675029 111.228206 
L 97.675029 97.796033 
L 99.557623 97.796033 
L 99.557623 82.297373 
L 101.260636 82.297373 
L 101.260636 81.780751 
L 102.815366 81.780751 
L 102.815366 64.732224 
L 104.245578 64.732224 
L 104.245578 48.716942 
L 106.802521 48.716942 
L 106.802521 47.683698 
L 110.060263 47.683698 
L 110.060263 34.768147 
L 358.8 34.768147 
" style="fill:none;stroke:#ff0000;stroke-linecap:square;stroke-width:1.5;"/>
   </g>
   <g id="line2d_62">
    <defs>
     <path d="M 0 -6 
L -5.196152 -3 
L -5.196152 3 
L -0 6 
L 5.196152 3 
L 5.196152 -3 
z
" id="m1e0d14eade" style="stroke:#ff0000;stroke-linejoin:miter;stroke-width:1.5;"/>
    </defs>
    <g>
     <use style="fill:none;stroke:#ff0000;stroke-linejoin:miter;stroke-width:1.5;" x="87.172389" xlink:href="#m1e0d14eade" y="177.872445"/>
     <use style="fill:none;stroke:#ff0000;stroke-linejoin:miter;stroke-width:1.5;" x="104.245578" xlink:href="#m1e0d14eade" y="64.732224"/>
     <use style="fill:none;stroke:#ff0000;stroke-linejoin:miter;stroke-width:1.5;" x="110.060263" xlink:href="#m1e0d14eade" y="47.683698"/>
     <use style="fill:none;stroke:#ff0000;stroke-linejoin:miter;stroke-width:1.5;" x="110.060263" xlink:href="#m1e0d14eade" y="34.768147"/>
     <use style="fill:none;stroke:#ff0000;stroke-linejoin:miter;stroke-width:1.5;" x="110.060263" xlink:href="#m1e0d14eade" y="34.768147"/>
     <use style="fill:none;stroke:#ff0000;stroke-linejoin:miter;stroke-width:1.5;" x="358.8" xlink:href="#m1e0d14eade" y="34.768147"/>
    </g>
   </g>
   <g id="line2d_63"/>
   <g id="line2d_64">
    <path d="M 358.8 215.585853 
L 390.48 292.97583 
" style="fill:none;stroke:#ff00ff;stroke-linecap:square;stroke-width:1.5;"/>
    <g>
     <use style="fill:none;stroke:#ff00ff;stroke-linejoin:miter;stroke-width:1.5;" x="358.8" xlink:href="#m0f3191cec9" y="215.585853"/>
     <use style="fill:none;stroke:#ff00ff;stroke-linejoin:miter;stroke-width:1.5;" x="390.48" xlink:href="#m0f3191cec9" y="292.97583"/>
    </g>
   </g>
   <g id="line2d_65">
    <path d="M 358.8 34.768147 
L 390.48 229.741296 
" style="fill:none;stroke:#ffa500;stroke-linecap:square;stroke-width:1.5;"/>
    <g>
     <use style="fill:none;stroke:#ffa500;stroke-linejoin:bevel;stroke-width:1.5;" x="358.8" xlink:href="#m79316bd789" y="34.768147"/>
     <use style="fill:none;stroke:#ffa500;stroke-linejoin:bevel;stroke-width:1.5;" x="390.48" xlink:href="#m79316bd789" y="229.741296"/>
    </g>
   </g>
   <g id="line2d_66">
    <path d="M 358.8 34.768147 
L 390.48 166.506761 
" style="fill:none;stroke:#6495ed;stroke-linecap:square;stroke-width:1.5;"/>
    <g>
     <use style="fill:none;stroke:#6495ed;stroke-linejoin:miter;stroke-width:1.5;" x="358.8" xlink:href="#m3ef748a937" y="34.768147"/>
     <use style="fill:none;stroke:#6495ed;stroke-linejoin:miter;stroke-width:1.5;" x="390.48" xlink:href="#m3ef748a937" y="166.506761"/>
    </g>
   </g>
   <g id="line2d_67">
    <path d="M 358.8 34.768147 
L 390.48 103.272226 
" style="fill:none;stroke:#000080;stroke-linecap:square;stroke-width:1.5;"/>
    <g>
     <use style="fill:none;stroke:#000080;stroke-width:1.5;" x="358.8" xlink:href="#m4949c8a33c" y="34.768147"/>
     <use style="fill:none;stroke:#000080;stroke-width:1.5;" x="390.48" xlink:href="#m4949c8a33c" y="103.272226"/>
    </g>
   </g>
   <g id="line2d_68">
    <path d="M 358.8 34.768147 
L 390.48 40.037692 
" style="fill:none;stroke:#ff0000;stroke-linecap:square;stroke-width:1.5;"/>
    <g>
     <use style="fill:none;stroke:#ff0000;stroke-linejoin:miter;stroke-width:1.5;" x="358.8" xlink:href="#m1e0d14eade" y="34.768147"/>
     <use style="fill:none;stroke:#ff0000;stroke-linejoin:miter;stroke-width:1.5;" x="390.48" xlink:href="#m1e0d14eade" y="40.037692"/>
    </g>
   </g>
   <g id="line2d_69">
    <path d="M 358.8 298.245375 
L 358.8 34.768147 
" style="fill:none;stroke:#000000;stroke-linecap:square;stroke-width:1.5;"/>
   </g>
   <g id="patch_3">
    <path d="M 70.8 298.245375 
L 70.8 32.133375 
" style="fill:none;stroke:#000000;stroke-linecap:square;stroke-linejoin:miter;stroke-width:0.8;"/>
   </g>
   <g id="patch_4">
    <path d="M 427.92 298.245375 
L 427.92 32.133375 
" style="fill:none;stroke:#000000;stroke-linecap:square;stroke-linejoin:miter;stroke-width:0.8;"/>
   </g>
   <g id="patch_5">
    <path d="M 70.8 298.245375 
L 427.92 298.245375 
" style="fill:none;stroke:#000000;stroke-linecap:square;stroke-linejoin:miter;stroke-width:0.8;"/>
   </g>
   <g id="patch_6">
    <path d="M 70.8 32.133375 
L 427.92 32.133375 
" style="fill:none;stroke:#000000;stroke-linecap:square;stroke-linejoin:miter;stroke-width:0.8;"/>
   </g>
   <g id="text_14">
    <!-- f2 -->
    <g transform="translate(396.24 297.114893)scale(0.15 -0.15)">
     <use xlink:href="#DejaVuSans-66"/>
     <use x="35.205078" xlink:href="#DejaVuSans-32"/>
    </g>
   </g>
   <g id="text_15">
    <!-- f3 -->
    <defs>
     <path d="M 40.578125 39.3125 
Q 47.65625 37.796875 51.625 33 
Q 55.609375 28.21875 55.609375 21.1875 
Q 55.609375 10.40625 48.1875 4.484375 
Q 40.765625 -1.421875 27.09375 -1.421875 
Q 22.515625 -1.421875 17.65625 -0.515625 
Q 12.796875 0.390625 7.625 2.203125 
L 7.625 11.71875 
Q 11.71875 9.328125 16.59375 8.109375 
Q 21.484375 6.890625 26.8125 6.890625 
Q 36.078125 6.890625 40.9375 10.546875 
Q 45.796875 14.203125 45.796875 21.1875 
Q 45.796875 27.640625 41.28125 31.265625 
Q 36.765625 34.90625 28.71875 34.90625 
L 20.21875 34.90625 
L 20.21875 43.015625 
L 29.109375 43.015625 
Q 36.375 43.015625 40.234375 45.921875 
Q 44.09375 48.828125 44.09375 54.296875 
Q 44.09375 59.90625 40.109375 62.90625 
Q 36.140625 65.921875 28.71875 65.921875 
Q 24.65625 65.921875 20.015625 65.03125 
Q 15.375 64.15625 9.8125 62.3125 
L 9.8125 71.09375 
Q 15.4375 72.65625 20.34375 73.4375 
Q 25.25 74.21875 29.59375 74.21875 
Q 40.828125 74.21875 47.359375 69.109375 
Q 53.90625 64.015625 53.90625 55.328125 
Q 53.90625 49.265625 50.4375 45.09375 
Q 46.96875 40.921875 40.578125 39.3125 
" id="DejaVuSans-33"/>
    </defs>
    <g transform="translate(396.24 233.880358)scale(0.15 -0.15)">
     <use xlink:href="#DejaVuSans-66"/>
     <use x="35.205078" xlink:href="#DejaVuSans-33"/>
    </g>
   </g>
   <g id="text_16">
    <!-- f4 -->
    <g transform="translate(396.24 170.645824)scale(0.15 -0.15)">
     <use xlink:href="#DejaVuSans-66"/>
     <use x="35.205078" xlink:href="#DejaVuSans-34"/>
    </g>
   </g>
   <g id="text_17">
    <!-- f1 -->
    <g transform="translate(396.24 107.411289)scale(0.15 -0.15)">
     <use xlink:href="#DejaVuSans-66"/>
     <use x="35.205078" xlink:href="#DejaVuSans-31"/>
    </g>
   </g>
   <g id="text_18">
    <!-- f5 -->
    <defs>
     <path d="M 10.796875 72.90625 
L 49.515625 72.90625 
L 49.515625 64.59375 
L 19.828125 64.59375 
L 19.828125 46.734375 
Q 21.96875 47.46875 24.109375 47.828125 
Q 26.265625 48.1875 28.421875 48.1875 
Q 40.625 48.1875 47.75 41.5 
Q 54.890625 34.8125 54.890625 23.390625 
Q 54.890625 11.625 47.5625 5.09375 
Q 40.234375 -1.421875 26.90625 -1.421875 
Q 22.3125 -1.421875 17.546875 -0.640625 
Q 12.796875 0.140625 7.71875 1.703125 
L 7.71875 11.625 
Q 12.109375 9.234375 16.796875 8.0625 
Q 21.484375 6.890625 26.703125 6.890625 
Q 35.15625 6.890625 40.078125 11.328125 
Q 45.015625 15.765625 45.015625 23.390625 
Q 45.015625 31 40.078125 35.4375 
Q 35.15625 39.890625 26.703125 39.890625 
Q 22.75 39.890625 18.8125 39.015625 
Q 14.890625 38.140625 10.796875 36.28125 
z
" id="DejaVuSans-35"/>
    </defs>
    <g transform="translate(396.24 44.176754)scale(0.15 -0.15)">
     <use xlink:href="#DejaVuSans-66"/>
     <use x="35.205078" xlink:href="#DejaVuSans-35"/>
    </g>
   </g>
   <g id="text_19">
    <!-- bbob -->
    <defs>
     <path d="M 48.6875 27.296875 
Q 48.6875 37.203125 44.609375 42.84375 
Q 40.53125 48.484375 33.40625 48.484375 
Q 26.265625 48.484375 22.1875 42.84375 
Q 18.109375 37.203125 18.109375 27.296875 
Q 18.109375 17.390625 22.1875 11.75 
Q 26.265625 6.109375 33.40625 6.109375 
Q 40.53125 6.109375 44.609375 11.75 
Q 48.6875 17.390625 48.6875 27.296875 
M 18.109375 46.390625 
Q 20.953125 51.265625 25.265625 53.625 
Q 29.59375 56 35.59375 56 
Q 45.5625 56 51.78125 48.09375 
Q 58.015625 40.1875 58.015625 27.296875 
Q 58.015625 14.40625 51.78125 6.484375 
Q 45.5625 -1.421875 35.59375 -1.421875 
Q 29.59375 -1.421875 25.265625 0.953125 
Q 20.953125 3.328125 18.109375 8.203125 
L 18.109375 0 
L 9.078125 0 
L 9.078125 75.984375 
L 18.109375 75.984375 
z
" id="DejaVuSans-62"/>
    </defs>
    <g transform="translate(74.3712 50.114612)scale(0.1666 -0.1666)">
     <use xlink:href="#DejaVuSans-62"/>
     <use x="63.476562" xlink:href="#DejaVuSans-62"/>
     <use x="126.953125" xlink:href="#DejaVuSans-6f"/>
     <use x="188.134766" xlink:href="#DejaVuSans-62"/>
    </g>
    <!-- Separable functions, 2-D -->
    <defs>
     <path d="M 53.515625 70.515625 
L 53.515625 60.890625 
Q 47.90625 63.578125 42.921875 64.890625 
Q 37.9375 66.21875 33.296875 66.21875 
Q 25.25 66.21875 20.875 63.09375 
Q 16.5 59.96875 16.5 54.203125 
Q 16.5 49.359375 19.40625 46.890625 
Q 22.3125 44.4375 30.421875 42.921875 
L 36.375 41.703125 
Q 47.40625 39.59375 52.65625 34.296875 
Q 57.90625 29 57.90625 20.125 
Q 57.90625 9.515625 50.796875 4.046875 
Q 43.703125 -1.421875 29.984375 -1.421875 
Q 24.8125 -1.421875 18.96875 -0.25 
Q 13.140625 0.921875 6.890625 3.21875 
L 6.890625 13.375 
Q 12.890625 10.015625 18.65625 8.296875 
Q 24.421875 6.59375 29.984375 6.59375 
Q 38.421875 6.59375 43.015625 9.90625 
Q 47.609375 13.234375 47.609375 19.390625 
Q 47.609375 24.75 44.3125 27.78125 
Q 41.015625 30.8125 33.5 32.328125 
L 27.484375 33.5 
Q 16.453125 35.6875 11.515625 40.375 
Q 6.59375 45.0625 6.59375 53.421875 
Q 6.59375 63.09375 13.40625 68.65625 
Q 20.21875 74.21875 32.171875 74.21875 
Q 37.3125 74.21875 42.625 73.28125 
Q 47.953125 72.359375 53.515625 70.515625 
" id="DejaVuSans-53"/>
     <path d="M 11.71875 12.40625 
L 22.015625 12.40625 
L 22.015625 4 
L 14.015625 -11.625 
L 7.71875 -11.625 
L 11.71875 4 
z
" id="DejaVuSans-2c"/>
     <path d="M 19.671875 64.796875 
L 19.671875 8.109375 
L 31.59375 8.109375 
Q 46.6875 8.109375 53.6875 14.9375 
Q 60.6875 21.78125 60.6875 36.53125 
Q 60.6875 51.171875 53.6875 57.984375 
Q 46.6875 64.796875 31.59375 64.796875 
z
M 9.8125 72.90625 
L 30.078125 72.90625 
Q 51.265625 72.90625 61.171875 64.09375 
Q 71.09375 55.28125 71.09375 36.53125 
Q 71.09375 17.671875 61.125 8.828125 
Q 51.171875 0 30.078125 0 
L 9.8125 0 
z
" id="DejaVuSans-44"/>
    </defs>
    <g transform="translate(74.3712 68.770168)scale(0.1666 -0.1666)">
     <use xlink:href="#DejaVuSans-53"/>
     <use x="63.476562" xlink:href="#DejaVuSans-65"/>
     <use x="125" xlink:href="#DejaVuSans-70"/>
     <use x="188.476562" xlink:href="#DejaVuSans-61"/>
     <use x="249.755859" xlink:href="#DejaVuSans-72"/>
     <use x="290.869141" xlink:href="#DejaVuSans-61"/>
     <use x="352.148438" xlink:href="#DejaVuSans-62"/>
     <use x="415.625" xlink:href="#DejaVuSans-6c"/>
     <use x="443.408203" xlink:href="#DejaVuSans-65"/>
     <use x="504.931641" xlink:href="#DejaVuSans-20"/>
     <use x="536.71875" xlink:href="#DejaVuSans-66"/>
     <use x="571.923828" xlink:href="#DejaVuSans-75"/>
     <use x="635.302734" xlink:href="#DejaVuSans-6e"/>
     <use x="698.681641" xlink:href="#DejaVuSans-63"/>
     <use x="753.662109" xlink:href="#DejaVuSans-74"/>
     <use x="792.871094" xlink:href="#DejaVuSans-69"/>
     <use x="820.654297" xlink:href="#DejaVuSans-6f"/>
     <use x="881.835938" xlink:href="#DejaVuSans-6e"/>
     <use x="945.214844" xlink:href="#DejaVuSans-73"/>
     <use x="997.314453" xlink:href="#DejaVuSans-2c"/>
     <use x="1029.101562" xlink:href="#DejaVuSans-20"/>
     <use x="1060.888672" xlink:href="#DejaVuSans-32"/>
     <use x="1124.511719" xlink:href="#DejaVuSans-2d"/>
     <use x="1160.595703" xlink:href="#DejaVuSans-44"/>
    </g>
    <!-- 51 targets in 100..1e-08 -->
    <g transform="translate(74.3712 87.425723)scale(0.1666 -0.1666)">
     <use xlink:href="#DejaVuSans-35"/>
     <use x="63.623047" xlink:href="#DejaVuSans-31"/>
     <use x="127.246094" xlink:href="#DejaVuSans-20"/>
     <use x="159.033203" xlink:href="#DejaVuSans-74"/>
     <use x="198.242188" xlink:href="#DejaVuSans-61"/>
     <use x="259.521484" xlink:href="#DejaVuSans-72"/>
     <use x="300.619141" xlink:href="#DejaVuSans-67"/>
     <use x="364.095703" xlink:href="#DejaVuSans-65"/>
     <use x="425.619141" xlink:href="#DejaVuSans-74"/>
     <use x="464.828125" xlink:href="#DejaVuSans-73"/>
     <use x="516.927734" xlink:href="#DejaVuSans-20"/>
     <use x="548.714844" xlink:href="#DejaVuSans-69"/>
     <use x="576.498047" xlink:href="#DejaVuSans-6e"/>
     <use x="639.876953" xlink:href="#DejaVuSans-20"/>
     <use x="671.664062" xlink:href="#DejaVuSans-31"/>
     <use x="735.287109" xlink:href="#DejaVuSans-30"/>
     <use x="798.910156" xlink:href="#DejaVuSans-30"/>
     <use x="862.533203" xlink:href="#DejaVuSans-2e"/>
     <use x="894.320312" xlink:href="#DejaVuSans-2e"/>
     <use x="926.107422" xlink:href="#DejaVuSans-31"/>
     <use x="989.730469" xlink:href="#DejaVuSans-65"/>
     <use x="1051.253906" xlink:href="#DejaVuSans-2d"/>
     <use x="1087.337891" xlink:href="#DejaVuSans-30"/>
     <use x="1150.960938" xlink:href="#DejaVuSans-38"/>
    </g>
    <!-- 15 instances -->
    <g transform="translate(74.3712 106.081279)scale(0.1666 -0.1666)">
     <use xlink:href="#DejaVuSans-31"/>
     <use x="63.623047" xlink:href="#DejaVuSans-35"/>
     <use x="127.246094" xlink:href="#DejaVuSans-20"/>
     <use x="159.033203" xlink:href="#DejaVuSans-69"/>
     <use x="186.816406" xlink:href="#DejaVuSans-6e"/>
     <use x="250.195312" xlink:href="#DejaVuSans-73"/>
     <use x="302.294922" xlink:href="#DejaVuSans-74"/>
     <use x="341.503906" xlink:href="#DejaVuSans-61"/>
     <use x="402.783203" xlink:href="#DejaVuSans-6e"/>
     <use x="466.162109" xlink:href="#DejaVuSans-63"/>
     <use x="521.142578" xlink:href="#DejaVuSans-65"/>
     <use x="582.666016" xlink:href="#DejaVuSans-73"/>
    </g>
   </g>
   <g id="text_20">
    <!-- v2.1 -->
    <g style="fill:#808080;" transform="translate(238.449063 293.504568)scale(0.1 -0.1)">
     <use xlink:href="#DejaVuSans-76"/>
     <use x="59.179688" xlink:href="#DejaVuSans-32"/>
     <use x="122.802734" xlink:href="#DejaVuSans-2e"/>
     <use x="154.589844" xlink:href="#DejaVuSans-31"/>
    </g>
   </g>
  </g>
 </g>
 <defs>
  <clipPath id="p8bc18453d8">
   <rect height="266.112" width="357.12" x="70.8" y="32.133375"/>
  </clipPath>
 </defs>
</svg>
