<?xml version="1.0" encoding="utf-8" standalone="no"?>
<!DOCTYPE svg PUBLIC "-//W3C//DTD SVG 1.1//EN"
  "http://www.w3.org/Graphics/SVG/1.1/DTD/svg11.dtd">
<!-- Created with matplotlib (http://matplotlib.org/) -->
<svg height="333pt" version="1.1" viewBox="0 0 378 333" width="378pt" xmlns="http://www.w3.org/2000/svg" xmlns:xlink="http://www.w3.org/1999/xlink">
 <defs>
  <style type="text/css">
*{stroke-linecap:butt;stroke-linejoin:round;}
  </style>
 </defs>
 <g id="figure_1">
  <g id="patch_1">
   <path d="M 0 333.7245 
L 378.52 333.7245 
L 378.52 0 
L 0 0 
z
" style="fill:#ffffff;"/>
  </g>
  <g id="axes_1">
   <g id="patch_2">
    <path d="M 10.7 276.812 
L 367.82 276.812 
L 367.82 10.7 
L 10.7 10.7 
z
" style="fill:#ffffff;"/>
   </g>
   <g id="matplotlib.axis_1">
    <g id="xtick_1">
     <g id="line2d_1">
      <path clip-path="url(#pb9c1316e3e)" d="M 10.609821 276.812 
L 10.609821 10.7 
" style="fill:none;stroke:#b0b0b0;stroke-linecap:square;stroke-width:0.8;"/>
     </g>
     <g id="line2d_2">
      <defs>
       <path d="M 0 0 
L 0 3.5 
" id="m2c56772068" style="stroke:#000000;stroke-width:0.8;"/>
      </defs>
      <g>
       <use style="stroke:#000000;stroke-width:0.8;" x="10.609821" xlink:href="#m2c56772068" y="276.812"/>
      </g>
     </g>
    </g>
    <g id="xtick_2">
     <g id="line2d_3">
      <path clip-path="url(#pb9c1316e3e)" d="M 94.082517 276.812 
L 94.082517 10.7 
" style="fill:none;stroke:#b0b0b0;stroke-linecap:square;stroke-width:0.8;"/>
     </g>
     <g id="line2d_4">
      <g>
       <use style="stroke:#000000;stroke-width:0.8;" x="94.082517" xlink:href="#m2c56772068" y="276.812"/>
      </g>
     </g>
     <g id="text_1">
      <!-- -4 -->
      <defs>
       <path d="M 4.890625 31.390625 
L 31.203125 31.390625 
L 31.203125 23.390625 
L 4.890625 23.390625 
z
" id="DejaVuSans-2d"/>
       <path d="M 37.796875 64.3125 
L 12.890625 25.390625 
L 37.796875 25.390625 
z
M 35.203125 72.90625 
L 47.609375 72.90625 
L 47.609375 25.390625 
L 58.015625 25.390625 
L 58.015625 17.1875 
L 47.609375 17.1875 
L 47.609375 0 
L 37.796875 0 
L 37.796875 17.1875 
L 4.890625 17.1875 
L 4.890625 26.703125 
z
" id="DejaVuSans-34"/>
      </defs>
      <g transform="translate(84.112204 299.008875)scale(0.2 -0.2)">
       <use xlink:href="#DejaVuSans-2d"/>
       <use x="36.083984" xlink:href="#DejaVuSans-34"/>
      </g>
     </g>
    </g>
    <g id="xtick_3">
     <g id="line2d_5">
      <path clip-path="url(#pb9c1316e3e)" d="M 177.555212 276.812 
L 177.555212 10.7 
" style="fill:none;stroke:#b0b0b0;stroke-linecap:square;stroke-width:0.8;"/>
     </g>
     <g id="line2d_6">
      <g>
       <use style="stroke:#000000;stroke-width:0.8;" x="177.555212" xlink:href="#m2c56772068" y="276.812"/>
      </g>
     </g>
     <g id="text_2">
      <!-- 0 -->
      <defs>
       <path d="M 31.78125 66.40625 
Q 24.171875 66.40625 20.328125 58.90625 
Q 16.5 51.421875 16.5 36.375 
Q 16.5 21.390625 20.328125 13.890625 
Q 24.171875 6.390625 31.78125 6.390625 
Q 39.453125 6.390625 43.28125 13.890625 
Q 47.125 21.390625 47.125 36.375 
Q 47.125 51.421875 43.28125 58.90625 
Q 39.453125 66.40625 31.78125 66.40625 
M 31.78125 74.21875 
Q 44.046875 74.21875 50.515625 64.515625 
Q 56.984375 54.828125 56.984375 36.375 
Q 56.984375 17.96875 50.515625 8.265625 
Q 44.046875 -1.421875 31.78125 -1.421875 
Q 19.53125 -1.421875 13.0625 8.265625 
Q 6.59375 17.96875 6.59375 36.375 
Q 6.59375 54.828125 13.0625 64.515625 
Q 19.53125 74.21875 31.78125 74.21875 
" id="DejaVuSans-30"/>
      </defs>
      <g transform="translate(171.192712 299.008875)scale(0.2 -0.2)">
       <use xlink:href="#DejaVuSans-30"/>
      </g>
     </g>
    </g>
    <g id="xtick_4">
     <g id="line2d_7">
      <path clip-path="url(#pb9c1316e3e)" d="M 261.027908 276.812 
L 261.027908 10.7 
" style="fill:none;stroke:#b0b0b0;stroke-linecap:square;stroke-width:0.8;"/>
     </g>
     <g id="line2d_8">
      <g>
       <use style="stroke:#000000;stroke-width:0.8;" x="261.027908" xlink:href="#m2c56772068" y="276.812"/>
      </g>
     </g>
     <g id="text_3">
      <!-- 4 -->
      <g transform="translate(254.665408 299.008875)scale(0.2 -0.2)">
       <use xlink:href="#DejaVuSans-34"/>
      </g>
     </g>
    </g>
    <g id="xtick_5">
     <g id="line2d_9">
      <path clip-path="url(#pb9c1316e3e)" d="M 344.500604 276.812 
L 344.500604 10.7 
" style="fill:none;stroke:#b0b0b0;stroke-linecap:square;stroke-width:0.8;"/>
     </g>
     <g id="line2d_10">
      <g>
       <use style="stroke:#000000;stroke-width:0.8;" x="344.500604" xlink:href="#m2c56772068" y="276.812"/>
      </g>
     </g>
     <g id="text_4">
      <!-- 8 -->
      <defs>
       <path d="M 31.78125 34.625 
Q 24.75 34.625 20.71875 30.859375 
Q 16.703125 27.09375 16.703125 20.515625 
Q 16.703125 13.921875 20.71875 10.15625 
Q 24.75 6.390625 31.78125 6.390625 
Q 38.8125 6.390625 42.859375 10.171875 
Q 46.921875 13.96875 46.921875 20.515625 
Q 46.921875 27.09375 42.890625 30.859375 
Q 38.875 34.625 31.78125 34.625 
M 21.921875 38.8125 
Q 15.578125 40.375 12.03125 44.71875 
Q 8.5 49.078125 8.5 55.328125 
Q 8.5 64.0625 14.71875 69.140625 
Q 20.953125 74.21875 31.78125 74.21875 
Q 42.671875 74.21875 48.875 69.140625 
Q 55.078125 64.0625 55.078125 55.328125 
Q 55.078125 49.078125 51.53125 44.71875 
Q 48 40.375 41.703125 38.8125 
Q 48.828125 37.15625 52.796875 32.3125 
Q 56.78125 27.484375 56.78125 20.515625 
Q 56.78125 9.90625 50.3125 4.234375 
Q 43.84375 -1.421875 31.78125 -1.421875 
Q 19.734375 -1.421875 13.25 4.234375 
Q 6.78125 9.90625 6.78125 20.515625 
Q 6.78125 27.484375 10.78125 32.3125 
Q 14.796875 37.15625 21.921875 38.8125 
M 18.3125 54.390625 
Q 18.3125 48.734375 21.84375 45.5625 
Q 25.390625 42.390625 31.78125 42.390625 
Q 38.140625 42.390625 41.71875 45.5625 
Q 45.3125 48.734375 45.3125 54.390625 
Q 45.3125 60.0625 41.71875 63.234375 
Q 38.140625 66.40625 31.78125 66.40625 
Q 25.390625 66.40625 21.84375 63.234375 
Q 18.3125 60.0625 18.3125 54.390625 
" id="DejaVuSans-38"/>
      </defs>
      <g transform="translate(338.138104 299.008875)scale(0.2 -0.2)">
       <use xlink:href="#DejaVuSans-38"/>
      </g>
     </g>
    </g>
    <g id="text_5">
     <!-- log10 of Df -->
     <defs>
      <path d="M 9.421875 75.984375 
L 18.40625 75.984375 
L 18.40625 0 
L 9.421875 0 
z
" id="DejaVuSans-6c"/>
      <path d="M 30.609375 48.390625 
Q 23.390625 48.390625 19.1875 42.75 
Q 14.984375 37.109375 14.984375 27.296875 
Q 14.984375 17.484375 19.15625 11.84375 
Q 23.34375 6.203125 30.609375 6.203125 
Q 37.796875 6.203125 41.984375 11.859375 
Q 46.1875 17.53125 46.1875 27.296875 
Q 46.1875 37.015625 41.984375 42.703125 
Q 37.796875 48.390625 30.609375 48.390625 
M 30.609375 56 
Q 42.328125 56 49.015625 48.375 
Q 55.71875 40.765625 55.71875 27.296875 
Q 55.71875 13.875 49.015625 6.21875 
Q 42.328125 -1.421875 30.609375 -1.421875 
Q 18.84375 -1.421875 12.171875 6.21875 
Q 5.515625 13.875 5.515625 27.296875 
Q 5.515625 40.765625 12.171875 48.375 
Q 18.84375 56 30.609375 56 
" id="DejaVuSans-6f"/>
      <path d="M 45.40625 27.984375 
Q 45.40625 37.75 41.375 43.109375 
Q 37.359375 48.484375 30.078125 48.484375 
Q 22.859375 48.484375 18.828125 43.109375 
Q 14.796875 37.75 14.796875 27.984375 
Q 14.796875 18.265625 18.828125 12.890625 
Q 22.859375 7.515625 30.078125 7.515625 
Q 37.359375 7.515625 41.375 12.890625 
Q 45.40625 18.265625 45.40625 27.984375 
M 54.390625 6.78125 
Q 54.390625 -7.171875 48.1875 -13.984375 
Q 42 -20.796875 29.203125 -20.796875 
Q 24.46875 -20.796875 20.265625 -20.09375 
Q 16.0625 -19.390625 12.109375 -17.921875 
L 12.109375 -9.1875 
Q 16.0625 -11.328125 19.921875 -12.34375 
Q 23.78125 -13.375 27.78125 -13.375 
Q 36.625 -13.375 41.015625 -8.765625 
Q 45.40625 -4.15625 45.40625 5.171875 
L 45.40625 9.625 
Q 42.625 4.78125 38.28125 2.390625 
Q 33.9375 0 27.875 0 
Q 17.828125 0 11.671875 7.65625 
Q 5.515625 15.328125 5.515625 27.984375 
Q 5.515625 40.671875 11.671875 48.328125 
Q 17.828125 56 27.875 56 
Q 33.9375 56 38.28125 53.609375 
Q 42.625 51.21875 45.40625 46.390625 
L 45.40625 54.6875 
L 54.390625 54.6875 
z
" id="DejaVuSans-67"/>
      <path d="M 12.40625 8.296875 
L 28.515625 8.296875 
L 28.515625 63.921875 
L 10.984375 60.40625 
L 10.984375 69.390625 
L 28.421875 72.90625 
L 38.28125 72.90625 
L 38.28125 8.296875 
L 54.390625 8.296875 
L 54.390625 0 
L 12.40625 0 
z
" id="DejaVuSans-31"/>
      <path id="DejaVuSans-20"/>
      <path d="M 37.109375 75.984375 
L 37.109375 68.5 
L 28.515625 68.5 
Q 23.6875 68.5 21.796875 66.546875 
Q 19.921875 64.59375 19.921875 59.515625 
L 19.921875 54.6875 
L 34.71875 54.6875 
L 34.71875 47.703125 
L 19.921875 47.703125 
L 19.921875 0 
L 10.890625 0 
L 10.890625 47.703125 
L 2.296875 47.703125 
L 2.296875 54.6875 
L 10.890625 54.6875 
L 10.890625 58.5 
Q 10.890625 67.625 15.140625 71.796875 
Q 19.390625 75.984375 28.609375 75.984375 
z
" id="DejaVuSans-66"/>
      <path d="M 19.671875 64.796875 
L 19.671875 8.109375 
L 31.59375 8.109375 
Q 46.6875 8.109375 53.6875 14.9375 
Q 60.6875 21.78125 60.6875 36.53125 
Q 60.6875 51.171875 53.6875 57.984375 
Q 46.6875 64.796875 31.59375 64.796875 
z
M 9.8125 72.90625 
L 30.078125 72.90625 
Q 51.265625 72.90625 61.171875 64.09375 
Q 71.09375 55.28125 71.09375 36.53125 
Q 71.09375 17.671875 61.125 8.828125 
Q 51.171875 0 30.078125 0 
L 9.8125 0 
z
" id="DejaVuSans-44"/>
     </defs>
     <g transform="translate(134.074063 322.365125)scale(0.2 -0.2)">
      <use xlink:href="#DejaVuSans-6c"/>
      <use x="27.783203" xlink:href="#DejaVuSans-6f"/>
      <use x="88.964844" xlink:href="#DejaVuSans-67"/>
      <use x="152.441406" xlink:href="#DejaVuSans-31"/>
      <use x="216.064453" xlink:href="#DejaVuSans-30"/>
      <use x="279.6875" xlink:href="#DejaVuSans-20"/>
      <use x="311.474609" xlink:href="#DejaVuSans-6f"/>
      <use x="372.65625" xlink:href="#DejaVuSans-66"/>
      <use x="407.861328" xlink:href="#DejaVuSans-20"/>
      <use x="439.648438" xlink:href="#DejaVuSans-44"/>
      <use x="516.650391" xlink:href="#DejaVuSans-66"/>
     </g>
    </g>
   </g>
   <g id="matplotlib.axis_2">
    <g id="ytick_1">
     <g id="line2d_11">
      <path clip-path="url(#pb9c1316e3e)" d="M 10.7 276.812 
L 367.82 276.812 
" style="fill:none;stroke:#b0b0b0;stroke-linecap:square;stroke-width:0.8;"/>
     </g>
     <g id="line2d_12">
      <defs>
       <path d="M 0 0 
L -3.5 0 
" id="mf194b1edff" style="stroke:#000000;stroke-width:0.8;"/>
      </defs>
      <g>
       <use style="stroke:#000000;stroke-width:0.8;" x="10.7" xlink:href="#mf194b1edff" y="276.812"/>
      </g>
     </g>
    </g>
    <g id="ytick_2">
     <g id="line2d_13">
      <path clip-path="url(#pb9c1316e3e)" d="M 10.7 224.116554 
L 367.82 224.116554 
" style="fill:none;stroke:#b0b0b0;stroke-linecap:square;stroke-width:0.8;"/>
     </g>
     <g id="line2d_14">
      <g>
       <use style="stroke:#000000;stroke-width:0.8;" x="10.7" xlink:href="#mf194b1edff" y="224.116554"/>
      </g>
     </g>
    </g>
    <g id="ytick_3">
     <g id="line2d_15">
      <path clip-path="url(#pb9c1316e3e)" d="M 10.7 171.421109 
L 367.82 171.421109 
" style="fill:none;stroke:#b0b0b0;stroke-linecap:square;stroke-width:0.8;"/>
     </g>
     <g id="line2d_16">
      <g>
       <use style="stroke:#000000;stroke-width:0.8;" x="10.7" xlink:href="#mf194b1edff" y="171.421109"/>
      </g>
     </g>
    </g>
    <g id="ytick_4">
     <g id="line2d_17">
      <path clip-path="url(#pb9c1316e3e)" d="M 10.7 118.725663 
L 367.82 118.725663 
" style="fill:none;stroke:#b0b0b0;stroke-linecap:square;stroke-width:0.8;"/>
     </g>
     <g id="line2d_18">
      <g>
       <use style="stroke:#000000;stroke-width:0.8;" x="10.7" xlink:href="#mf194b1edff" y="118.725663"/>
      </g>
     </g>
    </g>
    <g id="ytick_5">
     <g id="line2d_19">
      <path clip-path="url(#pb9c1316e3e)" d="M 10.7 66.030218 
L 367.82 66.030218 
" style="fill:none;stroke:#b0b0b0;stroke-linecap:square;stroke-width:0.8;"/>
     </g>
     <g id="line2d_20">
      <g>
       <use style="stroke:#000000;stroke-width:0.8;" x="10.7" xlink:href="#mf194b1edff" y="66.030218"/>
      </g>
     </g>
    </g>
    <g id="ytick_6">
     <g id="line2d_21">
      <path clip-path="url(#pb9c1316e3e)" d="M 10.7 13.334772 
L 367.82 13.334772 
" style="fill:none;stroke:#b0b0b0;stroke-linecap:square;stroke-width:0.8;"/>
     </g>
     <g id="line2d_22">
      <g>
       <use style="stroke:#000000;stroke-width:0.8;" x="10.7" xlink:href="#mf194b1edff" y="13.334772"/>
      </g>
     </g>
    </g>
   </g>
   <g id="line2d_23">
    <path clip-path="url(#pb9c1316e3e)" d="M 191.347593 276.812 
L 191.347593 275.055485 
L 191.347593 275.055485 
L 191.347593 275.055485 
L 191.388283 275.055485 
L 191.388283 273.29897 
L 191.546817 273.29897 
L 191.571896 269.785941 
L 192.303384 269.785941 
L 192.303384 268.029426 
L 192.499797 268.029426 
L 192.499797 266.272911 
L 196.302693 266.272911 
L 196.321422 262.759881 
L 196.518749 262.759881 
L 196.531488 259.246851 
L 197.274289 259.246851 
L 197.365079 255.733822 
L 198.218414 255.733822 
L 198.249773 252.220792 
L 198.453174 252.220792 
L 198.531293 245.194733 
L 199.146847 245.194733 
L 199.194044 241.681703 
L 201.042619 241.681703 
L 201.087163 238.168673 
L 202.424233 238.168673 
L 202.424233 236.412158 
L 202.685574 236.412158 
L 202.742223 229.386099 
L 203.185961 229.386099 
L 203.185961 227.629584 
L 203.369241 227.629584 
L 203.369241 225.873069 
L 203.735535 225.873069 
L 203.735535 224.116554 
L 205.139927 224.116554 
L 205.139927 222.36004 
L 205.299581 222.36004 
L 205.407166 218.84701 
L 205.600533 218.84701 
L 205.600533 217.090495 
L 206.004728 217.090495 
L 206.018908 213.577465 
L 208.490888 213.577465 
L 208.581311 210.064436 
L 210.632458 210.064436 
L 210.632458 208.307921 
L 210.789017 208.307921 
L 210.789017 206.551406 
L 229.487106 206.551406 
L 229.524002 203.038376 
L 233.262959 203.038376 
L 233.280341 199.525347 
L 235.084661 199.525347 
L 235.114531 196.012317 
L 236.917499 196.012317 
L 236.941278 192.499287 
L 237.867478 192.499287 
L 237.868267 188.986257 
L 238.561654 188.986257 
L 238.585115 181.960198 
L 239.608829 181.960198 
L 239.61611 178.447168 
L 239.828008 178.447168 
L 239.828637 174.934139 
L 240.092839 174.934139 
L 240.14234 171.421109 
L 240.521949 171.421109 
L 240.626978 160.88202 
L 241.520441 160.88202 
L 241.525199 157.36899 
L 245.788882 157.36899 
L 245.807158 153.85596 
L 249.586362 153.85596 
L 249.586362 152.099446 
L 250.120193 152.099446 
L 250.120193 150.342931 
L 254.743349 150.342931 
L 254.743349 148.586416 
L 257.826995 148.586416 
L 257.826995 146.829901 
L 274.477343 146.829901 
L 274.477343 145.073386 
L 274.684347 145.073386 
L 274.780899 141.560356 
L 274.811809 141.560356 
L 274.811809 139.803842 
L 279.397644 139.803842 
L 279.397644 138.047327 
L 279.726501 138.047327 
L 279.726501 136.290812 
L 286.729839 136.290812 
L 286.729839 134.534297 
L 286.897554 134.534297 
L 286.897554 132.777782 
L 287.176989 132.777782 
L 287.176989 131.021267 
L 287.409118 131.021267 
L 287.409118 129.264752 
L 288.843331 129.264752 
L 288.843331 127.508238 
L 289.848063 127.508238 
L 289.848063 125.751723 
L 294.559401 125.751723 
L 294.559401 123.995208 
L 294.702057 123.995208 
L 294.702057 122.238693 
L 302.942796 122.238693 
L 302.942796 120.482178 
L 303.132202 120.482178 
L 303.132202 118.725663 
L 304.219227 118.725663 
L 304.2764 115.212634 
L 308.687301 115.212634 
L 308.757556 108.186574 
L 309.486524 108.186574 
L 309.486524 106.430059 
L 309.675483 106.430059 
L 309.675483 104.673545 
L 310.314702 104.673545 
L 310.355972 101.160515 
L 312.67092 101.160515 
L 312.67092 99.404 
L 312.791916 99.404 
L 312.791916 97.647485 
L 313.208948 97.647485 
L 313.275493 94.134455 
L 313.971362 94.134455 
L 314.017306 90.621426 
L 315.060568 90.621426 
L 315.098227 87.108396 
L 317.964547 87.108396 
L 317.964547 83.595366 
L 320.712858 83.595366 
L 320.732279 80.082337 
L 322.531494 80.082337 
L 322.596647 76.569307 
L 322.947916 76.569307 
L 322.981918 73.056277 
L 325.22362 73.056277 
L 325.252918 69.543248 
L 325.383905 69.543248 
L 325.47833 66.030218 
L 326.487386 66.030218 
L 326.503799 62.517188 
L 327.11569 62.517188 
L 327.128643 59.004158 
L 327.754525 59.004158 
L 327.75818 55.491129 
L 330.281023 55.491129 
L 330.306748 51.978099 
L 332.0808 51.978099 
L 332.095486 48.465069 
L 333.39498 48.465069 
L 333.504994 43.195525 
L 333.525582 43.195525 
L 333.525582 41.43901 
L 334.662641 41.43901 
L 334.73975 36.169465 
L 334.805668 36.169465 
L 334.805668 34.41295 
L 342.693826 34.41295 
L 342.695226 30.899921 
L 342.840104 30.899921 
L 342.870912 27.386891 
L 343.350359 27.386891 
L 343.456574 23.873861 
L 346.323483 23.873861 
L 346.348215 20.360832 
L 346.652556 20.360832 
L 346.652556 16.847802 
L 354.19839 16.847802 
L 354.21631 13.334772 
L 354.21631 13.334772 
L 367.82 13.334772 
L 367.82 13.334772 
" style="fill:none;stroke:#ff0000;stroke-linecap:square;stroke-width:3;"/>
   </g>
   <g id="line2d_24">
    <path clip-path="url(#pb9c1316e3e)" d="M 193.21172 276.812 
L 193.21172 275.055485 
L 193.21172 275.055485 
L 193.21172 275.055485 
L 193.219129 275.055485 
L 193.219129 273.29897 
L 193.47138 273.29897 
L 193.47138 269.785941 
L 198.253994 269.785941 
L 198.253994 266.272911 
L 198.601818 266.272911 
L 198.601818 264.516396 
L 199.31349 264.516396 
L 199.31349 262.759881 
L 201.499452 262.759881 
L 201.499452 261.003366 
L 202.527951 261.003366 
L 202.527951 259.246851 
L 203.320548 259.246851 
L 203.320548 257.490337 
L 203.530716 257.490337 
L 203.530716 255.733822 
L 203.925265 255.733822 
L 203.925265 253.977307 
L 204.14779 253.977307 
L 204.14779 252.220792 
L 205.553199 252.220792 
L 205.553199 250.464277 
L 206.09433 250.464277 
L 206.09433 248.707762 
L 206.457274 248.707762 
L 206.457274 246.951248 
L 206.600516 246.951248 
L 206.600516 245.194733 
L 207.115258 245.194733 
L 207.115258 243.438218 
L 207.45875 243.438218 
L 207.45875 241.681703 
L 207.998675 241.681703 
L 207.998675 239.925188 
L 208.236111 239.925188 
L 208.236111 238.168673 
L 208.918029 238.168673 
L 208.918029 234.655644 
L 209.088539 234.655644 
L 209.088539 231.142614 
L 210.98178 231.142614 
L 210.98178 227.629584 
L 215.198158 227.629584 
L 215.198158 224.116554 
L 232.647028 224.116554 
L 232.647028 222.36004 
L 232.806399 222.36004 
L 232.806399 220.603525 
L 234.439103 220.603525 
L 234.439103 218.84701 
L 235.89098 218.84701 
L 235.89098 217.090495 
L 237.688928 217.090495 
L 237.688928 213.577465 
L 238.324661 213.577465 
L 238.417119 206.551406 
L 238.957472 206.551406 
L 238.957472 204.794891 
L 239.365057 204.794891 
L 239.365057 203.038376 
L 239.689072 203.038376 
L 239.689072 201.281861 
L 239.946025 201.281861 
L 239.946025 199.525347 
L 240.217004 199.525347 
L 240.317095 194.255802 
L 240.474998 194.255802 
L 240.585644 188.986257 
L 240.676807 188.986257 
L 240.676807 187.229743 
L 241.63437 187.229743 
L 241.63437 183.716713 
L 242.129634 183.716713 
L 242.129634 181.960198 
L 242.269443 181.960198 
L 242.307659 176.690653 
L 242.494516 176.690653 
L 242.494516 174.934139 
L 242.945839 174.934139 
L 242.979257 171.421109 
L 243.102442 171.421109 
L 243.102442 169.664594 
L 246.045492 169.664594 
L 246.045492 166.151564 
L 266.156061 166.151564 
L 266.156061 164.39505 
L 268.67217 164.39505 
L 268.67217 162.638535 
L 270.732773 162.638535 
L 270.732773 159.125505 
L 279.548267 159.125505 
L 279.548267 155.612475 
L 280.635328 155.612475 
L 280.635328 152.099446 
L 281.076242 152.099446 
L 281.076242 150.342931 
L 281.677536 150.342931 
L 281.677536 148.586416 
L 284.995814 148.586416 
L 284.995814 146.829901 
L 289.405804 146.829901 
L 289.405804 145.073386 
L 291.901299 145.073386 
L 291.901299 143.316871 
L 298.492561 143.316871 
L 298.586797 139.803842 
L 298.992769 139.803842 
L 299.102605 136.290812 
L 300.867782 136.290812 
L 300.867782 134.534297 
L 308.767628 134.534297 
L 308.767628 132.777782 
L 308.96854 132.777782 
L 308.96854 131.021267 
L 309.221158 131.021267 
L 309.221158 129.264752 
L 309.581886 129.264752 
L 309.581886 127.508238 
L 310.51664 127.508238 
L 310.51664 125.751723 
L 311.08545 125.751723 
L 311.08545 123.995208 
L 311.205944 123.995208 
L 311.205944 122.238693 
L 311.83876 122.238693 
L 311.83876 120.482178 
L 312.398788 120.482178 
L 312.398788 118.725663 
L 313.916056 118.725663 
L 313.916056 116.969149 
L 314.329581 116.969149 
L 314.329581 115.212634 
L 314.542747 115.212634 
L 314.542747 113.456119 
L 316.161222 113.456119 
L 316.161222 109.943089 
L 316.303711 109.943089 
L 316.303711 108.186574 
L 316.516486 108.186574 
L 316.625233 104.673545 
L 316.971438 104.673545 
L 316.97667 101.160515 
L 317.964547 101.160515 
L 317.964547 97.647485 
L 318.124336 97.647485 
L 318.124336 94.134455 
L 318.875951 94.134455 
L 318.875951 92.377941 
L 319.058449 92.377941 
L 319.058449 88.864911 
L 320.05672 88.864911 
L 320.05672 87.108396 
L 321.845682 87.108396 
L 321.845682 85.351881 
L 323.25987 85.351881 
L 323.25987 83.595366 
L 324.073234 83.595366 
L 324.073234 81.838851 
L 326.263647 81.838851 
L 326.263647 80.082337 
L 326.900602 80.082337 
L 326.900602 76.569307 
L 327.411651 76.569307 
L 327.411651 74.812792 
L 327.991462 74.812792 
L 327.991462 71.299762 
L 328.15412 71.299762 
L 328.15412 67.786733 
L 328.455195 67.786733 
L 328.455195 66.030218 
L 329.787002 66.030218 
L 329.787002 64.273703 
L 329.926545 64.273703 
L 329.948322 60.760673 
L 330.322309 60.760673 
L 330.322309 59.004158 
L 330.883731 59.004158 
L 330.883731 57.247644 
L 331.760526 57.247644 
L 331.760526 55.491129 
L 333.431771 55.491129 
L 333.431771 53.734614 
L 334.386232 53.734614 
L 334.386232 51.978099 
L 335.606946 51.978099 
L 335.606946 48.465069 
L 336.404208 48.465069 
L 336.50263 44.95204 
L 336.841848 44.95204 
L 336.841848 41.43901 
L 339.287829 41.43901 
L 339.287829 39.682495 
L 340.628621 39.682495 
L 340.628621 36.169465 
L 341.75083 36.169465 
L 341.75083 34.41295 
L 346.652556 34.41295 
L 346.652556 30.899921 
L 347.270444 30.899921 
L 347.270444 27.386891 
L 348.311799 27.386891 
L 348.311799 23.873861 
L 348.99347 23.873861 
L 348.99347 20.360832 
L 349.991812 20.360832 
L 349.991812 18.604317 
L 351.965807 18.604317 
L 351.965807 16.847802 
L 357.400359 16.847802 
L 357.400359 13.334772 
L 357.400359 13.334772 
L 367.82 13.334772 
L 367.82 13.334772 
" style="fill:none;stroke:#00bfbf;stroke-linecap:square;stroke-width:1.5;"/>
   </g>
   <g id="line2d_25">
    <path clip-path="url(#pb9c1316e3e)" d="M 192.76103 276.812 
L 192.76103 275.055485 
L 192.76103 275.055485 
L 192.76103 275.055485 
L 192.843833 275.055485 
L 192.843833 273.29897 
L 193.363212 273.29897 
L 193.47138 269.785941 
L 197.254091 269.785941 
L 197.254091 268.029426 
L 198.253994 268.029426 
L 198.253994 264.516396 
L 198.51448 264.516396 
L 198.51448 262.759881 
L 199.836546 262.759881 
L 199.836546 261.003366 
L 200.27506 261.003366 
L 200.27506 259.246851 
L 200.755423 259.246851 
L 200.755423 257.490337 
L 201.58314 257.490337 
L 201.58314 255.733822 
L 202.116973 255.733822 
L 202.116973 253.977307 
L 202.407626 253.977307 
L 202.407626 252.220792 
L 202.610457 252.220792 
L 202.610457 250.464277 
L 203.914716 250.464277 
L 203.914716 248.707762 
L 205.272588 248.707762 
L 205.272588 246.951248 
L 205.416335 246.951248 
L 205.416335 245.194733 
L 205.693045 245.194733 
L 205.693045 243.438218 
L 206.09433 243.438218 
L 206.09433 241.681703 
L 206.9685 241.681703 
L 206.9685 239.925188 
L 207.191532 239.925188 
L 207.191532 238.168673 
L 207.447291 238.168673 
L 207.447291 236.412158 
L 208.172852 236.412158 
L 208.172852 234.655644 
L 208.959028 234.655644 
L 208.959028 232.899129 
L 209.088539 232.899129 
L 209.088539 231.142614 
L 210.70934 231.142614 
L 210.70934 229.386099 
L 210.864232 229.386099 
L 210.864232 227.629584 
L 210.98178 227.629584 
L 210.98178 225.873069 
L 213.746041 225.873069 
L 213.746041 224.116554 
L 215.198158 224.116554 
L 215.198158 222.36004 
L 227.22051 222.36004 
L 227.22051 220.603525 
L 230.373828 220.603525 
L 230.373828 218.84701 
L 231.968179 218.84701 
L 231.968179 217.090495 
L 232.478933 217.090495 
L 232.478933 215.33398 
L 234.439103 215.33398 
L 234.439103 213.577465 
L 235.89098 213.577465 
L 235.89098 211.82095 
L 236.794708 211.82095 
L 236.794708 210.064436 
L 237.326425 210.064436 
L 237.326425 208.307921 
L 238.2574 208.307921 
L 238.324661 203.038376 
L 238.417119 203.038376 
L 238.417119 199.525347 
L 238.614586 199.525347 
L 238.614586 197.768832 
L 239.689072 197.768832 
L 239.689072 196.012317 
L 239.946025 196.012317 
L 239.946025 194.255802 
L 240.120887 194.255802 
L 240.217004 190.742772 
L 240.302252 190.742772 
L 240.302252 188.986257 
L 240.437304 188.986257 
L 240.48914 185.473228 
L 240.585644 185.473228 
L 240.676807 180.203683 
L 241.527955 180.203683 
L 241.63437 174.934139 
L 241.674198 174.934139 
L 241.674198 173.177624 
L 241.79278 173.177624 
L 241.79278 171.421109 
L 242.077201 171.421109 
L 242.077201 169.664594 
L 242.269443 169.664594 
L 242.269443 167.908079 
L 242.494516 167.908079 
L 242.494516 166.151564 
L 242.77892 166.151564 
L 242.77892 164.39505 
L 242.979257 164.39505 
L 242.979257 162.638535 
L 245.681797 162.638535 
L 245.681797 160.88202 
L 245.812131 160.88202 
L 245.812131 159.125505 
L 246.045492 159.125505 
L 246.045492 155.612475 
L 262.302887 155.612475 
L 262.302887 153.85596 
L 264.525719 153.85596 
L 264.525719 152.099446 
L 270.732773 152.099446 
L 270.732773 150.342931 
L 280.635328 150.342931 
L 280.635328 146.829901 
L 284.849477 146.829901 
L 284.849477 145.073386 
L 287.29926 145.073386 
L 287.29926 143.316871 
L 291.901299 143.316871 
L 291.901299 141.560356 
L 298.366396 141.560356 
L 298.452253 138.047327 
L 298.521224 138.047327 
L 298.521224 136.290812 
L 298.992769 136.290812 
L 299.102605 132.777782 
L 300.062565 132.777782 
L 300.062565 131.021267 
L 301.120571 131.021267 
L 301.120571 129.264752 
L 301.240593 129.264752 
L 301.240593 127.508238 
L 304.254135 127.508238 
L 304.254135 125.751723 
L 306.984924 125.751723 
L 306.984924 123.995208 
L 307.340565 123.995208 
L 307.340565 122.238693 
L 309.359423 122.238693 
L 309.369648 118.725663 
L 311.83876 118.725663 
L 311.83876 116.969149 
L 312.065233 116.969149 
L 312.065233 115.212634 
L 312.511427 115.212634 
L 312.511427 113.456119 
L 312.700158 113.456119 
L 312.700158 111.699604 
L 312.835414 111.699604 
L 312.835414 109.943089 
L 313.916056 109.943089 
L 313.916056 108.186574 
L 314.782838 108.186574 
L 314.782838 106.430059 
L 315.690728 106.430059 
L 315.690728 104.673545 
L 316.012382 104.673545 
L 316.012382 102.91703 
L 316.161222 102.91703 
L 316.161222 99.404 
L 316.725475 99.404 
L 316.725475 97.647485 
L 316.971438 97.647485 
L 316.971438 95.89097 
L 317.594303 95.89097 
L 317.594303 94.134455 
L 317.964547 94.134455 
L 317.964547 90.621426 
L 318.124336 90.621426 
L 318.124336 87.108396 
L 319.058449 87.108396 
L 319.058449 85.351881 
L 321.498753 85.351881 
L 321.498753 83.595366 
L 323.566412 83.595366 
L 323.566412 81.838851 
L 324.58022 81.838851 
L 324.58022 80.082337 
L 324.76882 80.082337 
L 324.76882 78.325822 
L 326.263647 78.325822 
L 326.263647 76.569307 
L 326.900602 76.569307 
L 326.900602 73.056277 
L 327.027555 73.056277 
L 327.027555 71.299762 
L 327.265238 71.299762 
L 327.265238 69.543248 
L 327.991462 69.543248 
L 327.991462 66.030218 
L 328.15412 66.030218 
L 328.15412 62.517188 
L 328.370108 62.517188 
L 328.370108 60.760673 
L 329.303384 60.760673 
L 329.303384 59.004158 
L 329.787002 59.004158 
L 329.787002 57.247644 
L 331.760526 57.247644 
L 331.760526 55.491129 
L 332.391114 55.491129 
L 332.391114 53.734614 
L 332.529252 53.734614 
L 332.529252 51.978099 
L 333.431771 51.978099 
L 333.431771 50.221584 
L 334.233639 50.221584 
L 334.233639 48.465069 
L 335.149954 48.465069 
L 335.149954 46.708554 
L 335.606946 46.708554 
L 335.606946 44.95204 
L 336.057034 44.95204 
L 336.057034 43.195525 
L 336.841848 43.195525 
L 336.841848 39.682495 
L 337.395488 39.682495 
L 337.395488 37.92598 
L 340.628621 37.92598 
L 340.628621 34.41295 
L 346.652556 34.41295 
L 346.652556 30.899921 
L 347.270444 30.899921 
L 347.304508 25.630376 
L 348.311799 25.630376 
L 348.311799 23.873861 
L 348.99347 23.873861 
L 348.99347 20.360832 
L 349.347319 20.360832 
L 349.347319 18.604317 
L 350.482818 18.604317 
L 350.482818 16.847802 
L 357.400359 16.847802 
L 357.400359 13.334772 
L 357.400359 13.334772 
L 367.82 13.334772 
L 367.82 13.334772 
" style="fill:none;stroke:#bf00bf;stroke-linecap:square;stroke-width:1.5;"/>
   </g>
   <g id="line2d_26">
    <path clip-path="url(#pb9c1316e3e)" d="M 192.455063 276.812 
L 192.455063 275.055485 
L 192.636666 275.055485 
L 192.636666 273.29897 
L 192.842677 273.29897 
L 192.842677 271.542455 
L 193.110666 271.542455 
L 193.110666 269.785941 
L 197.254091 269.785941 
L 197.254091 268.029426 
L 197.717669 268.029426 
L 197.717669 266.272911 
L 198.253994 266.272911 
L 198.253994 262.759881 
L 199.836546 262.759881 
L 199.836546 261.003366 
L 200.27506 261.003366 
L 200.330907 257.490337 
L 200.564852 257.490337 
L 200.564852 255.733822 
L 200.755423 255.733822 
L 200.755423 253.977307 
L 201.58314 253.977307 
L 201.58314 252.220792 
L 202.116973 252.220792 
L 202.116973 250.464277 
L 202.407626 250.464277 
L 202.407626 248.707762 
L 202.582541 248.707762 
L 202.582541 246.951248 
L 204.669096 246.951248 
L 204.669096 245.194733 
L 204.998486 245.194733 
L 205.040182 239.925188 
L 206.9685 239.925188 
L 206.9685 238.168673 
L 207.095865 238.168673 
L 207.095865 236.412158 
L 208.172852 236.412158 
L 208.172852 234.655644 
L 208.959028 234.655644 
L 208.959028 232.899129 
L 209.088539 232.899129 
L 209.088539 231.142614 
L 210.149803 231.142614 
L 210.149803 229.386099 
L 210.70934 229.386099 
L 210.70934 227.629584 
L 210.864232 227.629584 
L 210.864232 225.873069 
L 213.746041 225.873069 
L 213.746041 224.116554 
L 215.198158 224.116554 
L 215.198158 222.36004 
L 215.851688 222.36004 
L 215.851688 220.603525 
L 221.634261 220.603525 
L 221.634261 218.84701 
L 227.125888 218.84701 
L 227.22051 215.33398 
L 231.968179 215.33398 
L 231.968179 213.577465 
L 232.176422 213.577465 
L 232.176422 211.82095 
L 234.439103 211.82095 
L 234.439103 210.064436 
L 235.129395 210.064436 
L 235.129395 208.307921 
L 236.794708 208.307921 
L 236.861902 204.794891 
L 237.597258 204.794891 
L 237.597258 203.038376 
L 237.955291 203.038376 
L 237.955291 201.281861 
L 238.324661 201.281861 
L 238.417119 196.012317 
L 239.450247 196.012317 
L 239.450247 194.255802 
L 239.689072 194.255802 
L 239.689072 192.499287 
L 239.85854 192.499287 
L 239.946025 188.986257 
L 240.061457 188.986257 
L 240.061457 187.229743 
L 240.217004 187.229743 
L 240.217004 185.473228 
L 240.437304 185.473228 
L 240.437304 183.716713 
L 240.585644 183.716713 
L 240.585644 180.203683 
L 240.828731 180.203683 
L 240.828731 178.447168 
L 241.200242 178.447168 
L 241.200242 176.690653 
L 241.46938 176.690653 
L 241.527955 173.177624 
L 241.643196 173.177624 
L 241.646985 169.664594 
L 241.79278 169.664594 
L 241.880768 166.151564 
L 242.687361 166.151564 
L 242.687361 164.39505 
L 242.979257 164.39505 
L 242.979257 162.638535 
L 245.681797 162.638535 
L 245.681797 160.88202 
L 245.812131 160.88202 
L 245.812131 159.125505 
L 246.045492 159.125505 
L 246.045492 155.612475 
L 246.282561 155.612475 
L 246.282561 153.85596 
L 252.877643 153.85596 
L 252.877643 152.099446 
L 258.495492 152.099446 
L 258.495492 150.342931 
L 277.263925 150.342931 
L 277.263925 148.586416 
L 280.635328 148.586416 
L 280.635328 146.829901 
L 281.640413 146.829901 
L 281.640413 145.073386 
L 283.987013 145.073386 
L 283.987013 143.316871 
L 286.038313 143.316871 
L 286.038313 141.560356 
L 289.286575 141.560356 
L 289.286575 139.803842 
L 293.015604 139.803842 
L 293.015604 138.047327 
L 294.009893 138.047327 
L 294.009893 136.290812 
L 296.250839 136.290812 
L 296.250839 134.534297 
L 297.756777 134.534297 
L 297.851404 131.021267 
L 298.030289 131.021267 
L 298.030289 129.264752 
L 298.521224 129.264752 
L 298.521224 127.508238 
L 299.917285 127.508238 
L 299.917285 125.751723 
L 300.062565 125.751723 
L 300.062565 123.995208 
L 303.544706 123.995208 
L 303.544706 122.238693 
L 307.817194 122.238693 
L 307.817194 120.482178 
L 309.369648 120.482178 
L 309.369648 118.725663 
L 309.619616 118.725663 
L 309.619616 116.969149 
L 310.450306 116.969149 
L 310.450306 115.212634 
L 311.468053 115.212634 
L 311.468053 113.456119 
L 312.037085 113.456119 
L 312.12364 109.943089 
L 312.835414 109.943089 
L 312.835414 108.186574 
L 313.916056 108.186574 
L 313.916056 106.430059 
L 314.348169 106.430059 
L 314.348169 104.673545 
L 314.730286 104.673545 
L 314.730286 102.91703 
L 315.690728 102.91703 
L 315.690728 101.160515 
L 316.161222 101.160515 
L 316.161222 97.647485 
L 316.680561 97.647485 
L 316.725475 94.134455 
L 317.03718 94.134455 
L 317.03718 92.377941 
L 317.594303 92.377941 
L 317.594303 90.621426 
L 317.964547 90.621426 
L 317.964547 87.108396 
L 318.124336 87.108396 
L 318.124336 83.595366 
L 323.566412 83.595366 
L 323.566412 81.838851 
L 324.457789 81.838851 
L 324.457789 80.082337 
L 324.58022 80.082337 
L 324.58022 78.325822 
L 325.000428 78.325822 
L 325.000428 76.569307 
L 326.203609 76.569307 
L 326.309509 73.056277 
L 326.900602 73.056277 
L 326.900602 69.543248 
L 327.11796 69.543248 
L 327.11796 67.786733 
L 327.991462 67.786733 
L 327.991462 64.273703 
L 328.15412 64.273703 
L 328.15412 60.760673 
L 328.370108 60.760673 
L 328.370108 59.004158 
L 329.061165 59.004158 
L 329.061165 57.247644 
L 331.760526 57.247644 
L 331.760526 55.491129 
L 332.391114 55.491129 
L 332.402834 51.978099 
L 333.431771 51.978099 
L 333.431771 50.221584 
L 333.547551 50.221584 
L 333.547551 48.465069 
L 334.191904 48.465069 
L 334.191904 46.708554 
L 334.64243 46.708554 
L 334.64243 44.95204 
L 336.057034 44.95204 
L 336.057034 43.195525 
L 336.841848 43.195525 
L 336.841848 39.682495 
L 337.395488 39.682495 
L 337.395488 37.92598 
L 340.628621 37.92598 
L 340.628621 34.41295 
L 346.652556 34.41295 
L 346.652556 30.899921 
L 347.270444 30.899921 
L 347.304508 23.873861 
L 348.195952 23.873861 
L 348.195952 22.117347 
L 348.654493 22.117347 
L 348.654493 20.360832 
L 348.99347 20.360832 
L 348.99347 16.847802 
L 357.400359 16.847802 
L 357.400359 13.334772 
L 357.400359 13.334772 
L 367.82 13.334772 
L 367.82 13.334772 
" style="fill:none;stroke:#000000;stroke-linecap:square;stroke-width:1.5;"/>
   </g>
   <g id="line2d_27">
    <path clip-path="url(#pb9c1316e3e)" d="M 192.056311 276.812 
L 192.056311 275.055485 
L 192.455063 275.055485 
L 192.560568 271.542455 
L 193.110666 271.542455 
L 193.110666 269.785941 
L 196.774405 269.785941 
L 196.774405 268.029426 
L 197.242989 268.029426 
L 197.242989 266.272911 
L 198.253994 266.272911 
L 198.253994 262.759881 
L 199.07883 262.759881 
L 199.07883 261.003366 
L 199.503533 261.003366 
L 199.503533 259.246851 
L 200.330907 259.246851 
L 200.330907 257.490337 
L 200.564852 257.490337 
L 200.564852 255.733822 
L 200.743371 255.733822 
L 200.755423 252.220792 
L 200.995679 252.220792 
L 200.995679 250.464277 
L 202.116973 250.464277 
L 202.216829 246.951248 
L 202.582541 246.951248 
L 202.582541 245.194733 
L 203.238242 245.194733 
L 203.238242 243.438218 
L 204.340064 243.438218 
L 204.340064 241.681703 
L 204.665542 241.681703 
L 204.771353 238.168673 
L 205.898693 238.168673 
L 205.898693 236.412158 
L 207.095865 236.412158 
L 207.110912 232.899129 
L 207.515937 232.899129 
L 207.515937 231.142614 
L 208.172852 231.142614 
L 208.172852 229.386099 
L 209.503257 229.386099 
L 209.503257 227.629584 
L 209.973511 227.629584 
L 209.973511 225.873069 
L 210.70934 225.873069 
L 210.70934 224.116554 
L 211.80371 224.116554 
L 211.80371 222.36004 
L 213.746041 222.36004 
L 213.746041 220.603525 
L 214.388156 220.603525 
L 214.388156 218.84701 
L 214.592866 218.84701 
L 214.592866 217.090495 
L 215.851688 217.090495 
L 215.851688 215.33398 
L 216.107226 215.33398 
L 216.107226 213.577465 
L 224.257954 213.577465 
L 224.269981 210.064436 
L 227.579013 210.064436 
L 227.579013 208.307921 
L 231.778752 208.307921 
L 231.778752 206.551406 
L 231.968179 206.551406 
L 231.968179 204.794891 
L 233.833734 204.794891 
L 233.942437 201.281861 
L 234.439103 201.281861 
L 234.439103 199.525347 
L 236.794708 199.525347 
L 236.861902 196.012317 
L 237.349004 196.012317 
L 237.432202 192.499287 
L 238.241585 192.499287 
L 238.324661 188.986257 
L 239.267128 188.986257 
L 239.267128 187.229743 
L 239.519408 187.229743 
L 239.519408 185.473228 
L 239.718561 185.473228 
L 239.718561 183.716713 
L 239.946025 183.716713 
L 240.016898 178.447168 
L 240.217004 178.447168 
L 240.315536 174.934139 
L 240.776731 174.934139 
L 240.828731 171.421109 
L 241.262674 171.421109 
L 241.368763 164.39505 
L 241.527955 164.39505 
L 241.527955 162.638535 
L 241.796557 162.638535 
L 241.796557 160.88202 
L 242.166139 160.88202 
L 242.249541 157.36899 
L 246.045492 157.36899 
L 246.045492 153.85596 
L 252.877643 153.85596 
L 252.877643 152.099446 
L 256.553237 152.099446 
L 256.553237 150.342931 
L 274.997095 150.342931 
L 274.997095 148.586416 
L 277.263925 148.586416 
L 277.263925 146.829901 
L 280.635328 146.829901 
L 280.635328 145.073386 
L 281.640413 145.073386 
L 281.640413 143.316871 
L 283.987013 143.316871 
L 283.987013 141.560356 
L 286.038313 141.560356 
L 286.137828 138.047327 
L 288.982094 138.047327 
L 288.982094 136.290812 
L 296.18008 136.290812 
L 296.250839 132.777782 
L 296.502993 132.777782 
L 296.516453 129.264752 
L 297.116752 129.264752 
L 297.201869 125.751723 
L 297.403312 125.751723 
L 297.403312 123.995208 
L 298.521224 123.995208 
L 298.521224 122.238693 
L 305.422362 122.238693 
L 305.422362 120.482178 
L 307.558494 120.482178 
L 307.558494 118.725663 
L 307.817194 118.725663 
L 307.817194 116.969149 
L 310.269447 116.969149 
L 310.269447 115.212634 
L 310.450306 115.212634 
L 310.450306 113.456119 
L 310.812311 113.456119 
L 310.812311 111.699604 
L 311.628602 111.699604 
L 311.72562 108.186574 
L 311.78235 108.186574 
L 311.830734 104.673545 
L 312.778869 104.673545 
L 312.778869 102.91703 
L 314.403791 102.91703 
L 314.403791 101.160515 
L 314.894896 101.160515 
L 314.894896 99.404 
L 315.690728 99.404 
L 315.690728 97.647485 
L 316.161222 97.647485 
L 316.161222 94.134455 
L 317.03718 94.134455 
L 317.03718 92.377941 
L 317.594303 92.377941 
L 317.594303 90.621426 
L 317.964547 90.621426 
L 317.964547 87.108396 
L 318.124336 87.108396 
L 318.124336 83.595366 
L 322.511581 83.595366 
L 322.511581 81.838851 
L 324.2156 81.838851 
L 324.31975 78.325822 
L 324.797269 78.325822 
L 324.797269 76.569307 
L 325.000428 76.569307 
L 325.000428 74.812792 
L 325.836553 74.812792 
L 325.836553 73.056277 
L 326.750632 73.056277 
L 326.750632 71.299762 
L 326.900602 71.299762 
L 326.900602 69.543248 
L 327.11796 69.543248 
L 327.11796 67.786733 
L 327.313901 67.786733 
L 327.313901 66.030218 
L 327.613373 66.030218 
L 327.613373 64.273703 
L 327.824815 64.273703 
L 327.824815 62.517188 
L 328.095555 62.517188 
L 328.15412 59.004158 
L 328.370108 59.004158 
L 328.370108 57.247644 
L 329.780861 57.247644 
L 329.780861 55.491129 
L 331.532634 55.491129 
L 331.532634 53.734614 
L 332.33643 53.734614 
L 332.33643 51.978099 
L 333.431771 51.978099 
L 333.431771 50.221584 
L 333.547551 50.221584 
L 333.547551 48.465069 
L 334.050722 48.465069 
L 334.050722 46.708554 
L 334.428617 46.708554 
L 334.428617 44.95204 
L 335.141468 44.95204 
L 335.141468 43.195525 
L 335.505455 43.195525 
L 335.505455 41.43901 
L 336.057034 41.43901 
L 336.057034 39.682495 
L 336.536071 39.682495 
L 336.536071 37.92598 
L 337.429526 37.92598 
L 337.429526 36.169465 
L 339.711619 36.169465 
L 339.711619 34.41295 
L 344.786144 34.41295 
L 344.786144 32.656436 
L 345.80024 32.656436 
L 345.80024 30.899921 
L 346.499576 30.899921 
L 346.499576 29.143406 
L 346.652556 29.143406 
L 346.652556 25.630376 
L 347.00176 25.630376 
L 347.00176 23.873861 
L 347.270444 23.873861 
L 347.270444 22.117347 
L 347.763962 22.117347 
L 347.763962 20.360832 
L 348.102931 20.360832 
L 348.102931 18.604317 
L 348.99347 18.604317 
L 348.99347 16.847802 
L 355.615034 16.847802 
L 355.615034 15.091287 
L 357.400359 15.091287 
L 357.400359 13.334772 
L 357.400359 13.334772 
L 367.82 13.334772 
L 367.82 13.334772 
" style="fill:none;stroke:#00bfbf;stroke-linecap:square;stroke-width:1.5;"/>
   </g>
   <g id="line2d_28">
    <path clip-path="url(#pb9c1316e3e)" d="M 191.665337 276.812 
L 191.665337 275.055485 
L 191.665337 275.055485 
L 191.665337 275.055485 
L 191.761704 275.055485 
L 191.761704 273.29897 
L 191.928421 273.29897 
L 191.992049 269.785941 
L 196.710919 269.785941 
L 196.710919 268.029426 
L 196.883587 268.029426 
L 196.883587 266.272911 
L 197.11056 266.272911 
L 197.11056 264.516396 
L 197.526577 264.516396 
L 197.526577 262.759881 
L 197.874877 262.759881 
L 197.874877 261.003366 
L 198.253994 261.003366 
L 198.253994 257.490337 
L 198.910735 257.490337 
L 198.910735 255.733822 
L 199.814645 255.733822 
L 199.862823 252.220792 
L 200.076213 252.220792 
L 200.076213 250.464277 
L 200.255139 250.464277 
L 200.255139 248.707762 
L 200.468659 248.707762 
L 200.468659 246.951248 
L 200.671044 246.951248 
L 200.671044 245.194733 
L 201.654962 245.194733 
L 201.654962 243.438218 
L 202.131635 243.438218 
L 202.131635 241.681703 
L 202.404428 241.681703 
L 202.404428 239.925188 
L 202.85542 239.925188 
L 202.85542 238.168673 
L 203.447746 238.168673 
L 203.447746 236.412158 
L 203.677183 236.412158 
L 203.776655 232.899129 
L 203.969689 232.899129 
L 203.969689 231.142614 
L 204.703588 231.142614 
L 204.703588 229.386099 
L 206.229195 229.386099 
L 206.229195 227.629584 
L 206.452724 227.629584 
L 206.558049 224.116554 
L 206.709448 224.116554 
L 206.803409 220.603525 
L 206.83266 220.603525 
L 206.83266 218.84701 
L 207.457765 218.84701 
L 207.457765 217.090495 
L 207.603095 217.090495 
L 207.603095 215.33398 
L 208.353711 215.33398 
L 208.353711 213.577465 
L 209.305063 213.577465 
L 209.360989 210.064436 
L 212.522621 210.064436 
L 212.522621 208.307921 
L 213.021998 208.307921 
L 213.021998 206.551406 
L 230.002105 206.551406 
L 230.002105 204.794891 
L 230.434113 204.794891 
L 230.434113 203.038376 
L 233.942437 203.038376 
L 233.942437 201.281861 
L 234.242756 201.281861 
L 234.242756 199.525347 
L 236.126673 199.525347 
L 236.126673 197.768832 
L 236.423624 197.768832 
L 236.423624 196.012317 
L 237.172102 196.012317 
L 237.279469 192.499287 
L 237.987252 192.499287 
L 238.007046 188.986257 
L 238.876084 188.986257 
L 238.884459 185.473228 
L 239.20294 185.473228 
L 239.20294 183.716713 
L 239.358104 183.716713 
L 239.358104 181.960198 
L 239.843389 181.960198 
L 239.952814 178.447168 
L 240.016898 178.447168 
L 240.093722 174.934139 
L 240.697038 174.934139 
L 240.803282 167.908079 
L 240.944359 167.908079 
L 240.957329 164.39505 
L 241.261298 164.39505 
L 241.274785 160.88202 
L 241.716287 160.88202 
L 241.790815 157.36899 
L 245.990417 157.36899 
L 245.991248 153.85596 
L 251.229341 153.85596 
L 251.229341 152.099446 
L 252.252471 152.099446 
L 252.252471 150.342931 
L 272.584252 150.342931 
L 272.584252 148.586416 
L 276.147776 148.586416 
L 276.147776 146.829901 
L 277.263925 146.829901 
L 277.263925 145.073386 
L 278.265058 145.073386 
L 278.265058 143.316871 
L 281.640413 143.316871 
L 281.640413 141.560356 
L 281.859037 141.560356 
L 281.859037 139.803842 
L 282.312315 139.803842 
L 282.359186 136.290812 
L 292.998845 136.290812 
L 292.998845 134.534297 
L 294.902983 134.534297 
L 294.902983 132.777782 
L 295.250522 132.777782 
L 295.250522 131.021267 
L 296.154333 131.021267 
L 296.250839 125.751723 
L 296.456577 125.751723 
L 296.456577 123.995208 
L 296.633669 123.995208 
L 296.633669 122.238693 
L 305.405829 122.238693 
L 305.405829 120.482178 
L 305.549179 120.482178 
L 305.549179 118.725663 
L 306.193208 118.725663 
L 306.193208 116.969149 
L 308.004559 116.969149 
L 308.004559 115.212634 
L 309.160951 115.212634 
L 309.260999 111.699604 
L 311.116256 111.699604 
L 311.116256 109.943089 
L 311.248896 109.943089 
L 311.248896 108.186574 
L 311.653807 108.186574 
L 311.72562 104.673545 
L 312.587575 104.673545 
L 312.613265 101.160515 
L 314.330548 101.160515 
L 314.330548 99.404 
L 314.761236 99.404 
L 314.761236 97.647485 
L 316.161222 97.647485 
L 316.207075 90.621426 
L 316.450038 90.621426 
L 316.522497 87.108396 
L 317.964547 87.108396 
L 317.964547 83.595366 
L 321.632898 83.595366 
L 321.632898 81.838851 
L 322.459359 81.838851 
L 322.459359 80.082337 
L 323.409389 80.082337 
L 323.409389 78.325822 
L 323.65186 78.325822 
L 323.65186 76.569307 
L 324.427002 76.569307 
L 324.501203 73.056277 
L 326.351719 73.056277 
L 326.351719 71.299762 
L 326.539866 71.299762 
L 326.553049 67.786733 
L 326.718875 67.786733 
L 326.718875 66.030218 
L 327.099686 66.030218 
L 327.099686 64.273703 
L 327.28029 64.273703 
L 327.292139 60.760673 
L 327.62721 60.760673 
L 327.62721 59.004158 
L 328.370108 59.004158 
L 328.478649 55.491129 
L 331.096703 55.491129 
L 331.096703 53.734614 
L 331.482932 53.734614 
L 331.482932 51.978099 
L 332.872909 51.978099 
L 332.872909 50.221584 
L 333.058781 50.221584 
L 333.058781 48.465069 
L 334.050722 48.465069 
L 334.138659 44.95204 
L 334.200316 44.95204 
L 334.200316 43.195525 
L 334.430844 43.195525 
L 334.430844 41.43901 
L 336.057034 41.43901 
L 336.057034 39.682495 
L 336.427887 39.682495 
L 336.427887 37.92598 
L 337.400287 37.92598 
L 337.429526 34.41295 
L 344.041935 34.41295 
L 344.041935 32.656436 
L 344.358654 32.656436 
L 344.358654 30.899921 
L 344.502099 30.899921 
L 344.504268 27.386891 
L 345.2075 27.386891 
L 345.2075 25.630376 
L 345.482289 25.630376 
L 345.482289 23.873861 
L 346.652556 23.873861 
L 346.652556 20.360832 
L 347.485203 20.360832 
L 347.485203 18.604317 
L 348.195582 18.604317 
L 348.195582 16.847802 
L 355.615034 16.847802 
L 355.615034 15.091287 
L 356.757652 15.091287 
L 356.757652 13.334772 
L 356.757652 13.334772 
L 367.82 13.334772 
L 367.82 13.334772 
" style="fill:none;stroke:#bf00bf;stroke-linecap:square;stroke-width:1.5;"/>
   </g>
   <g id="line2d_29">
    <path clip-path="url(#pb9c1316e3e)" d="M 191.541747 276.812 
L 191.541747 275.055485 
L 191.66533 275.055485 
L 191.665337 271.542455 
L 191.951855 271.542455 
L 191.951855 269.785941 
L 196.603068 269.785941 
L 196.670687 264.516396 
L 197.11056 264.516396 
L 197.11056 262.759881 
L 197.250382 262.759881 
L 197.250382 261.003366 
L 197.712585 261.003366 
L 197.712585 259.246851 
L 198.253994 259.246851 
L 198.253994 255.733822 
L 199.28969 255.733822 
L 199.28969 253.977307 
L 199.4963 253.977307 
L 199.522834 250.464277 
L 199.613679 250.464277 
L 199.713809 246.951248 
L 199.908251 246.951248 
L 199.908251 245.194733 
L 200.144965 245.194733 
L 200.144965 243.438218 
L 200.859438 243.438218 
L 200.859438 241.681703 
L 201.871406 241.681703 
L 201.917295 238.168673 
L 203.00658 238.168673 
L 203.00658 236.412158 
L 203.172315 236.412158 
L 203.172315 234.655644 
L 203.452703 234.655644 
L 203.550218 229.386099 
L 203.800538 229.386099 
L 203.800538 227.629584 
L 204.467684 227.629584 
L 204.467684 225.873069 
L 204.703588 225.873069 
L 204.703588 224.116554 
L 205.63042 224.116554 
L 205.699847 220.603525 
L 206.058449 220.603525 
L 206.058449 218.84701 
L 206.452271 218.84701 
L 206.502027 215.33398 
L 206.79322 215.33398 
L 206.79322 213.577465 
L 209.123009 213.577465 
L 209.217212 210.064436 
L 211.932798 210.064436 
L 211.932798 208.307921 
L 212.608063 208.307921 
L 212.608063 206.551406 
L 229.960668 206.551406 
L 229.998919 203.038376 
L 233.737422 203.038376 
L 233.737422 201.281861 
L 233.942437 201.281861 
L 233.942437 199.525347 
L 235.837971 199.525347 
L 235.931684 196.012317 
L 237.12176 196.012317 
L 237.172102 192.499287 
L 237.935725 192.499287 
L 237.945584 188.986257 
L 238.71752 188.986257 
L 238.71752 187.229743 
L 238.876084 187.229743 
L 238.876084 185.473228 
L 239.005982 185.473228 
L 239.058395 181.960198 
L 239.83036 181.960198 
L 239.929352 174.934139 
L 240.420206 174.934139 
L 240.420206 173.177624 
L 240.586291 173.177624 
L 240.607222 169.664594 
L 240.703044 169.664594 
L 240.756258 166.151564 
L 240.840813 166.151564 
L 240.840813 164.39505 
L 241.14112 164.39505 
L 241.157572 160.88202 
L 241.681421 160.88202 
L 241.770919 157.36899 
L 245.892461 157.36899 
L 245.943191 153.85596 
L 250.398403 153.85596 
L 250.398403 152.099446 
L 251.229341 152.099446 
L 251.229341 150.342931 
L 272.584252 150.342931 
L 272.584252 148.586416 
L 274.268323 148.586416 
L 274.268323 146.829901 
L 276.147776 146.829901 
L 276.147776 145.073386 
L 277.243662 145.073386 
L 277.243662 143.316871 
L 279.551317 143.316871 
L 279.551317 141.560356 
L 281.540396 141.560356 
L 281.540396 139.803842 
L 281.859037 139.803842 
L 281.859037 138.047327 
L 282.359186 138.047327 
L 282.359186 136.290812 
L 290.25615 136.290812 
L 290.25615 134.534297 
L 290.991041 134.534297 
L 290.991041 132.777782 
L 292.566753 132.777782 
L 292.566753 131.021267 
L 295.055469 131.021267 
L 295.055469 129.264752 
L 295.194691 129.264752 
L 295.194691 127.508238 
L 295.377063 127.508238 
L 295.377063 125.751723 
L 295.686439 125.751723 
L 295.686439 123.995208 
L 296.250839 123.995208 
L 296.250839 122.238693 
L 305.02191 122.238693 
L 305.02191 120.482178 
L 305.284059 120.482178 
L 305.284059 118.725663 
L 305.583955 118.725663 
L 305.583955 116.969149 
L 306.278773 116.969149 
L 306.278773 115.212634 
L 308.999253 115.212634 
L 308.999253 113.456119 
L 309.160951 113.456119 
L 309.160951 111.699604 
L 310.63155 111.699604 
L 310.63155 109.943089 
L 310.977023 109.943089 
L 311.082229 106.430059 
L 311.203171 106.430059 
L 311.289067 102.91703 
L 311.72562 102.91703 
L 311.72562 101.160515 
L 313.738536 101.160515 
L 313.738536 99.404 
L 314.012668 99.404 
L 314.012668 97.647485 
L 314.942583 97.647485 
L 314.942583 95.89097 
L 315.780181 95.89097 
L 315.780181 94.134455 
L 315.899171 94.134455 
L 315.910439 90.621426 
L 316.166935 90.621426 
L 316.166935 88.864911 
L 316.29286 88.864911 
L 316.29286 87.108396 
L 317.964547 87.108396 
L 317.964547 83.595366 
L 321.632898 83.595366 
L 321.697794 80.082337 
L 323.261547 80.082337 
L 323.356215 76.569307 
L 323.65186 76.569307 
L 323.65186 74.812792 
L 324.112284 74.812792 
L 324.112284 73.056277 
L 325.899239 73.056277 
L 325.899239 71.299762 
L 326.103109 71.299762 
L 326.122226 67.786733 
L 326.539866 67.786733 
L 326.539866 66.030218 
L 326.714332 66.030218 
L 326.794104 62.517188 
L 327.260252 62.517188 
L 327.260252 60.760673 
L 327.584586 60.760673 
L 327.584586 59.004158 
L 328.252631 59.004158 
L 328.252631 57.247644 
L 328.478649 57.247644 
L 328.478649 55.491129 
L 330.692185 55.491129 
L 330.692185 53.734614 
L 330.860751 53.734614 
L 330.860751 51.978099 
L 332.282506 51.978099 
L 332.345048 48.465069 
L 333.931801 48.465069 
L 334.039968 41.43901 
L 335.684136 41.43901 
L 335.684136 39.682495 
L 336.057034 39.682495 
L 336.057034 37.92598 
L 336.283458 37.92598 
L 336.283458 36.169465 
L 336.546694 36.169465 
L 336.546694 34.41295 
L 343.76945 34.41295 
L 343.76945 32.656436 
L 343.884697 32.656436 
L 343.920883 29.143406 
L 344.128824 29.143406 
L 344.128824 27.386891 
L 344.696461 27.386891 
L 344.709444 23.873861 
L 346.652556 23.873861 
L 346.652556 20.360832 
L 346.828064 20.360832 
L 346.828064 18.604317 
L 347.304126 18.604317 
L 347.304126 16.847802 
L 354.62905 16.847802 
L 354.62905 15.091287 
L 355.240569 15.091287 
L 355.240569 13.334772 
L 355.240569 13.334772 
L 367.82 13.334772 
L 367.82 13.334772 
" style="fill:none;stroke:#000000;stroke-linecap:square;stroke-width:1.5;"/>
   </g>
   <g id="line2d_30">
    <path clip-path="url(#pb9c1316e3e)" d="M 191.357166 276.812 
L 191.357166 275.055485 
L 191.357166 275.055485 
L 191.357166 275.055485 
L 191.427971 275.055485 
L 191.427971 273.29897 
L 191.569946 273.29897 
L 191.569946 271.542455 
L 191.681205 271.542455 
L 191.681205 269.785941 
L 193.252139 269.785941 
L 193.252139 268.029426 
L 193.566391 268.029426 
L 193.566391 266.272911 
L 196.432184 266.272911 
L 196.448338 262.759881 
L 196.561154 262.759881 
L 196.59739 259.246851 
L 197.590808 259.246851 
L 197.590808 257.490337 
L 197.746887 257.490337 
L 197.746887 255.733822 
L 198.249773 255.733822 
L 198.249773 253.977307 
L 198.603151 253.977307 
L 198.670632 248.707762 
L 198.765633 248.707762 
L 198.830784 245.194733 
L 199.288517 245.194733 
L 199.313859 241.681703 
L 201.06647 241.681703 
L 201.12671 238.168673 
L 202.950121 238.168673 
L 203.007295 231.142614 
L 203.214057 231.142614 
L 203.214057 229.386099 
L 203.645702 229.386099 
L 203.645702 227.629584 
L 203.800538 227.629584 
L 203.800538 225.873069 
L 204.002171 225.873069 
L 204.002171 224.116554 
L 205.3011 224.116554 
L 205.3011 222.36004 
L 205.463862 222.36004 
L 205.463862 220.603525 
L 205.63042 220.603525 
L 205.63042 218.84701 
L 205.841296 218.84701 
L 205.841296 217.090495 
L 206.071253 217.090495 
L 206.112157 213.577465 
L 208.499458 213.577465 
L 208.499458 211.82095 
L 208.631353 211.82095 
L 208.631353 210.064436 
L 210.993651 210.064436 
L 210.993651 208.307921 
L 211.316216 208.307921 
L 211.316216 206.551406 
L 229.613412 206.551406 
L 229.613412 204.794891 
L 229.888651 204.794891 
L 229.888651 203.038376 
L 233.374814 203.038376 
L 233.393071 199.525347 
L 235.289997 199.525347 
L 235.319839 196.012317 
L 236.960214 196.012317 
L 236.97372 192.499287 
L 237.872171 192.499287 
L 237.878654 188.986257 
L 238.583718 188.986257 
L 238.651207 181.960198 
L 239.631027 181.960198 
L 239.636617 178.447168 
L 239.833698 178.447168 
L 239.850392 174.934139 
L 240.130025 174.934139 
L 240.130025 173.177624 
L 240.284497 173.177624 
L 240.284497 171.421109 
L 240.549669 171.421109 
L 240.650438 162.638535 
L 240.71913 162.638535 
L 240.71913 160.88202 
L 241.575322 160.88202 
L 241.605092 157.36899 
L 245.828085 157.36899 
L 245.862887 153.85596 
L 250.257302 153.85596 
L 250.257302 152.099446 
L 250.398403 152.099446 
L 250.398403 150.342931 
L 263.629749 150.342931 
L 263.629749 148.586416 
L 264.496069 148.586416 
L 264.496069 146.829901 
L 274.943331 146.829901 
L 274.943331 145.073386 
L 275.208156 145.073386 
L 275.304907 141.560356 
L 275.584424 141.560356 
L 275.584424 139.803842 
L 279.516102 139.803842 
L 279.516102 138.047327 
L 279.874036 138.047327 
L 279.874036 136.290812 
L 287.337945 136.290812 
L 287.337945 134.534297 
L 287.595512 134.534297 
L 287.595512 132.777782 
L 288.108244 132.777782 
L 288.108244 131.021267 
L 288.895308 131.021267 
L 288.895308 129.264752 
L 290.611658 129.264752 
L 290.611658 127.508238 
L 293.376753 127.508238 
L 293.376753 125.751723 
L 294.606374 125.751723 
L 294.606374 123.995208 
L 294.764656 123.995208 
L 294.764656 122.238693 
L 302.994905 122.238693 
L 302.994905 120.482178 
L 303.412511 120.482178 
L 303.412511 118.725663 
L 304.534572 118.725663 
L 304.534572 116.969149 
L 304.660672 116.969149 
L 304.660672 115.212634 
L 308.710281 115.212634 
L 308.805338 111.699604 
L 309.415437 111.699604 
L 309.415437 109.943089 
L 309.713963 109.943089 
L 309.713963 108.186574 
L 309.84513 108.186574 
L 309.848849 104.673545 
L 310.483356 104.673545 
L 310.490723 101.160515 
L 312.892158 101.160515 
L 312.982002 97.647485 
L 313.586632 97.647485 
L 313.659622 94.134455 
L 314.206706 94.134455 
L 314.206706 92.377941 
L 314.463658 92.377941 
L 314.463658 90.621426 
L 315.373977 90.621426 
L 315.373977 88.864911 
L 315.580791 88.864911 
L 315.580791 87.108396 
L 317.964547 87.108396 
L 317.964547 83.595366 
L 320.732279 83.595366 
L 320.732279 81.838851 
L 320.883099 81.838851 
L 320.883099 80.082337 
L 322.586046 80.082337 
L 322.586046 78.325822 
L 322.782625 78.325822 
L 322.782625 76.569307 
L 323.039425 76.569307 
L 323.039425 74.812792 
L 323.21585 74.812792 
L 323.21585 73.056277 
L 325.394611 73.056277 
L 325.394611 71.299762 
L 325.526802 71.299762 
L 325.628783 66.030218 
L 326.549347 66.030218 
L 326.56201 62.517188 
L 327.129676 62.517188 
L 327.183597 59.004158 
L 327.854397 59.004158 
L 327.887831 55.491129 
L 330.317115 55.491129 
L 330.355361 51.978099 
L 332.14866 51.978099 
L 332.174365 48.465069 
L 333.565718 48.465069 
L 333.666801 41.43901 
L 334.760737 41.43901 
L 334.760737 39.682495 
L 334.882159 39.682495 
L 334.992949 34.41295 
L 343.007839 34.41295 
L 343.034535 30.899921 
L 343.178539 30.899921 
L 343.178539 29.143406 
L 343.330974 29.143406 
L 343.330974 27.386891 
L 343.460376 27.386891 
L 343.460376 25.630376 
L 343.774242 25.630376 
L 343.774242 23.873861 
L 346.454464 23.873861 
L 346.533514 20.360832 
L 346.652556 20.360832 
L 346.652556 16.847802 
L 354.560926 16.847802 
L 354.560926 15.091287 
L 354.757463 15.091287 
L 354.757463 13.334772 
L 354.757463 13.334772 
L 367.82 13.334772 
L 367.82 13.334772 
" style="fill:none;stroke:#00bfbf;stroke-linecap:square;stroke-width:1.5;"/>
   </g>
   <g id="patch_3">
    <path d="M 10.7 276.812 
L 10.7 10.7 
" style="fill:none;stroke:#000000;stroke-linecap:square;stroke-linejoin:miter;stroke-width:0.8;"/>
   </g>
   <g id="patch_4">
    <path d="M 367.82 276.812 
L 367.82 10.7 
" style="fill:none;stroke:#000000;stroke-linecap:square;stroke-linejoin:miter;stroke-width:0.8;"/>
   </g>
   <g id="patch_5">
    <path d="M 10.7 276.812 
L 367.82 276.812 
" style="fill:none;stroke:#000000;stroke-linecap:square;stroke-linejoin:miter;stroke-width:0.8;"/>
   </g>
   <g id="patch_6">
    <path d="M 10.7 10.7 
L 367.82 10.7 
" style="fill:none;stroke:#000000;stroke-linecap:square;stroke-linejoin:miter;stroke-width:0.8;"/>
   </g>
   <g id="text_6">
    <!-- {f10-f14}, 5-D -->
    <defs>
     <path d="M 51.125 -9.28125 
L 51.125 -16.3125 
L 48.09375 -16.3125 
Q 35.9375 -16.3125 31.8125 -12.6875 
Q 27.6875 -9.078125 27.6875 1.703125 
L 27.6875 13.375 
Q 27.6875 20.75 25.046875 23.578125 
Q 22.40625 26.421875 15.484375 26.421875 
L 12.5 26.421875 
L 12.5 33.40625 
L 15.484375 33.40625 
Q 22.46875 33.40625 25.078125 36.203125 
Q 27.6875 39.015625 27.6875 46.296875 
L 27.6875 58.015625 
Q 27.6875 68.796875 31.8125 72.390625 
Q 35.9375 75.984375 48.09375 75.984375 
L 51.125 75.984375 
L 51.125 69 
L 47.796875 69 
Q 40.921875 69 38.8125 66.84375 
Q 36.71875 64.703125 36.71875 57.8125 
L 36.71875 45.703125 
Q 36.71875 38.03125 34.5 34.5625 
Q 32.28125 31.109375 26.90625 29.890625 
Q 32.328125 28.5625 34.515625 25.09375 
Q 36.71875 21.625 36.71875 14.015625 
L 36.71875 1.90625 
Q 36.71875 -4.984375 38.8125 -7.125 
Q 40.921875 -9.28125 47.796875 -9.28125 
z
" id="DejaVuSans-7b"/>
     <path d="M 12.5 -9.28125 
L 15.921875 -9.28125 
Q 22.75 -9.28125 24.828125 -7.171875 
Q 26.90625 -5.078125 26.90625 1.90625 
L 26.90625 14.015625 
Q 26.90625 21.625 29.09375 25.09375 
Q 31.296875 28.5625 36.71875 29.890625 
Q 31.296875 31.109375 29.09375 34.5625 
Q 26.90625 38.03125 26.90625 45.703125 
L 26.90625 57.8125 
Q 26.90625 64.75 24.828125 66.875 
Q 22.75 69 15.921875 69 
L 12.5 69 
L 12.5 75.984375 
L 15.578125 75.984375 
Q 27.734375 75.984375 31.8125 72.390625 
Q 35.890625 68.796875 35.890625 58.015625 
L 35.890625 46.296875 
Q 35.890625 39.015625 38.515625 36.203125 
Q 41.15625 33.40625 48.09375 33.40625 
L 51.125 33.40625 
L 51.125 26.421875 
L 48.09375 26.421875 
Q 41.15625 26.421875 38.515625 23.578125 
Q 35.890625 20.75 35.890625 13.375 
L 35.890625 1.703125 
Q 35.890625 -9.078125 31.8125 -12.6875 
Q 27.734375 -16.3125 15.578125 -16.3125 
L 12.5 -16.3125 
z
" id="DejaVuSans-7d"/>
     <path d="M 11.71875 12.40625 
L 22.015625 12.40625 
L 22.015625 4 
L 14.015625 -11.625 
L 7.71875 -11.625 
L 11.71875 4 
z
" id="DejaVuSans-2c"/>
     <path d="M 10.796875 72.90625 
L 49.515625 72.90625 
L 49.515625 64.59375 
L 19.828125 64.59375 
L 19.828125 46.734375 
Q 21.96875 47.46875 24.109375 47.828125 
Q 26.265625 48.1875 28.421875 48.1875 
Q 40.625 48.1875 47.75 41.5 
Q 54.890625 34.8125 54.890625 23.390625 
Q 54.890625 11.625 47.5625 5.09375 
Q 40.234375 -1.421875 26.90625 -1.421875 
Q 22.3125 -1.421875 17.546875 -0.640625 
Q 12.796875 0.140625 7.71875 1.703125 
L 7.71875 11.625 
Q 12.109375 9.234375 16.796875 8.0625 
Q 21.484375 6.890625 26.703125 6.890625 
Q 35.15625 6.890625 40.078125 11.328125 
Q 45.015625 15.765625 45.015625 23.390625 
Q 45.015625 31 40.078125 35.4375 
Q 35.15625 39.890625 26.703125 39.890625 
Q 22.75 39.890625 18.8125 39.015625 
Q 14.890625 38.140625 10.796875 36.28125 
z
" id="DejaVuSans-35"/>
    </defs>
    <g transform="translate(214.9776 271.48976)scale(0.2 -0.2)">
     <use xlink:href="#DejaVuSans-7b"/>
     <use x="63.623047" xlink:href="#DejaVuSans-66"/>
     <use x="98.828125" xlink:href="#DejaVuSans-31"/>
     <use x="162.451172" xlink:href="#DejaVuSans-30"/>
     <use x="226.074219" xlink:href="#DejaVuSans-2d"/>
     <use x="262.158203" xlink:href="#DejaVuSans-66"/>
     <use x="297.363281" xlink:href="#DejaVuSans-31"/>
     <use x="360.986328" xlink:href="#DejaVuSans-34"/>
     <use x="424.609375" xlink:href="#DejaVuSans-7d"/>
     <use x="488.232422" xlink:href="#DejaVuSans-2c"/>
     <use x="520.019531" xlink:href="#DejaVuSans-20"/>
     <use x="551.806641" xlink:href="#DejaVuSans-35"/>
     <use x="615.429688" xlink:href="#DejaVuSans-2d"/>
     <use x="651.513672" xlink:href="#DejaVuSans-44"/>
    </g>
   </g>
   <g id="text_7">
    <!-- v2.1 -->
    <defs>
     <path d="M 2.984375 54.6875 
L 12.5 54.6875 
L 29.59375 8.796875 
L 46.6875 54.6875 
L 56.203125 54.6875 
L 35.6875 0 
L 23.484375 0 
z
" id="DejaVuSans-76"/>
     <path d="M 19.1875 8.296875 
L 53.609375 8.296875 
L 53.609375 0 
L 7.328125 0 
L 7.328125 8.296875 
Q 12.9375 14.109375 22.625 23.890625 
Q 32.328125 33.6875 34.8125 36.53125 
Q 39.546875 41.84375 41.421875 45.53125 
Q 43.3125 49.21875 43.3125 52.78125 
Q 43.3125 58.59375 39.234375 62.25 
Q 35.15625 65.921875 28.609375 65.921875 
Q 23.96875 65.921875 18.8125 64.3125 
Q 13.671875 62.703125 7.8125 59.421875 
L 7.8125 69.390625 
Q 13.765625 71.78125 18.9375 73 
Q 24.125 74.21875 28.421875 74.21875 
Q 39.75 74.21875 46.484375 68.546875 
Q 53.21875 62.890625 53.21875 53.421875 
Q 53.21875 48.921875 51.53125 44.890625 
Q 49.859375 40.875 45.40625 35.40625 
Q 44.1875 33.984375 37.640625 27.21875 
Q 31.109375 20.453125 19.1875 8.296875 
" id="DejaVuSans-32"/>
     <path d="M 10.6875 12.40625 
L 21 12.40625 
L 21 0 
L 10.6875 0 
z
" id="DejaVuSans-2e"/>
    </defs>
    <g style="fill:#808080;" transform="translate(178.349063 272.071193)scale(0.1 -0.1)">
     <use xlink:href="#DejaVuSans-76"/>
     <use x="59.179688" xlink:href="#DejaVuSans-32"/>
     <use x="122.802734" xlink:href="#DejaVuSans-2e"/>
     <use x="154.589844" xlink:href="#DejaVuSans-31"/>
    </g>
   </g>
  </g>
 </g>
 <defs>
  <clipPath id="pb9c1316e3e">
   <rect height="266.112" width="357.12" x="10.7" y="10.7"/>
  </clipPath>
 </defs>
</svg>
