<?xml version="1.0" encoding="utf-8" standalone="no"?>
<!DOCTYPE svg PUBLIC "-//W3C//DTD SVG 1.1//EN"
  "http://www.w3.org/Graphics/SVG/1.1/DTD/svg11.dtd">
<!-- Created with matplotlib (http://matplotlib.org/) -->
<svg height="333pt" version="1.1" viewBox="0 0 378 333" width="378pt" xmlns="http://www.w3.org/2000/svg" xmlns:xlink="http://www.w3.org/1999/xlink">
 <defs>
  <style type="text/css">
*{stroke-linecap:butt;stroke-linejoin:round;}
  </style>
 </defs>
 <g id="figure_1">
  <g id="patch_1">
   <path d="M 0 333.7245 
L 378.52 333.7245 
L 378.52 0 
L 0 0 
z
" style="fill:#ffffff;"/>
  </g>
  <g id="axes_1">
   <g id="patch_2">
    <path d="M 10.7 276.812 
L 367.82 276.812 
L 367.82 10.7 
L 10.7 10.7 
z
" style="fill:#ffffff;"/>
   </g>
   <g id="matplotlib.axis_1">
    <g id="xtick_1">
     <g id="line2d_1">
      <path clip-path="url(#p831e1f36c8)" d="M 10.609821 276.812 
L 10.609821 10.7 
" style="fill:none;stroke:#b0b0b0;stroke-linecap:square;stroke-width:0.8;"/>
     </g>
     <g id="line2d_2">
      <defs>
       <path d="M 0 0 
L 0 3.5 
" id="mc5b4c2a2aa" style="stroke:#000000;stroke-width:0.8;"/>
      </defs>
      <g>
       <use style="stroke:#000000;stroke-width:0.8;" x="10.609821" xlink:href="#mc5b4c2a2aa" y="276.812"/>
      </g>
     </g>
    </g>
    <g id="xtick_2">
     <g id="line2d_3">
      <path clip-path="url(#p831e1f36c8)" d="M 94.082517 276.812 
L 94.082517 10.7 
" style="fill:none;stroke:#b0b0b0;stroke-linecap:square;stroke-width:0.8;"/>
     </g>
     <g id="line2d_4">
      <g>
       <use style="stroke:#000000;stroke-width:0.8;" x="94.082517" xlink:href="#mc5b4c2a2aa" y="276.812"/>
      </g>
     </g>
     <g id="text_1">
      <!-- -4 -->
      <defs>
       <path d="M 4.890625 31.390625 
L 31.203125 31.390625 
L 31.203125 23.390625 
L 4.890625 23.390625 
z
" id="DejaVuSans-2d"/>
       <path d="M 37.796875 64.3125 
L 12.890625 25.390625 
L 37.796875 25.390625 
z
M 35.203125 72.90625 
L 47.609375 72.90625 
L 47.609375 25.390625 
L 58.015625 25.390625 
L 58.015625 17.1875 
L 47.609375 17.1875 
L 47.609375 0 
L 37.796875 0 
L 37.796875 17.1875 
L 4.890625 17.1875 
L 4.890625 26.703125 
z
" id="DejaVuSans-34"/>
      </defs>
      <g transform="translate(84.112204 299.008875)scale(0.2 -0.2)">
       <use xlink:href="#DejaVuSans-2d"/>
       <use x="36.083984" xlink:href="#DejaVuSans-34"/>
      </g>
     </g>
    </g>
    <g id="xtick_3">
     <g id="line2d_5">
      <path clip-path="url(#p831e1f36c8)" d="M 177.555212 276.812 
L 177.555212 10.7 
" style="fill:none;stroke:#b0b0b0;stroke-linecap:square;stroke-width:0.8;"/>
     </g>
     <g id="line2d_6">
      <g>
       <use style="stroke:#000000;stroke-width:0.8;" x="177.555212" xlink:href="#mc5b4c2a2aa" y="276.812"/>
      </g>
     </g>
     <g id="text_2">
      <!-- 0 -->
      <defs>
       <path d="M 31.78125 66.40625 
Q 24.171875 66.40625 20.328125 58.90625 
Q 16.5 51.421875 16.5 36.375 
Q 16.5 21.390625 20.328125 13.890625 
Q 24.171875 6.390625 31.78125 6.390625 
Q 39.453125 6.390625 43.28125 13.890625 
Q 47.125 21.390625 47.125 36.375 
Q 47.125 51.421875 43.28125 58.90625 
Q 39.453125 66.40625 31.78125 66.40625 
M 31.78125 74.21875 
Q 44.046875 74.21875 50.515625 64.515625 
Q 56.984375 54.828125 56.984375 36.375 
Q 56.984375 17.96875 50.515625 8.265625 
Q 44.046875 -1.421875 31.78125 -1.421875 
Q 19.53125 -1.421875 13.0625 8.265625 
Q 6.59375 17.96875 6.59375 36.375 
Q 6.59375 54.828125 13.0625 64.515625 
Q 19.53125 74.21875 31.78125 74.21875 
" id="DejaVuSans-30"/>
      </defs>
      <g transform="translate(171.192712 299.008875)scale(0.2 -0.2)">
       <use xlink:href="#DejaVuSans-30"/>
      </g>
     </g>
    </g>
    <g id="xtick_4">
     <g id="line2d_7">
      <path clip-path="url(#p831e1f36c8)" d="M 261.027908 276.812 
L 261.027908 10.7 
" style="fill:none;stroke:#b0b0b0;stroke-linecap:square;stroke-width:0.8;"/>
     </g>
     <g id="line2d_8">
      <g>
       <use style="stroke:#000000;stroke-width:0.8;" x="261.027908" xlink:href="#mc5b4c2a2aa" y="276.812"/>
      </g>
     </g>
     <g id="text_3">
      <!-- 4 -->
      <g transform="translate(254.665408 299.008875)scale(0.2 -0.2)">
       <use xlink:href="#DejaVuSans-34"/>
      </g>
     </g>
    </g>
    <g id="xtick_5">
     <g id="line2d_9">
      <path clip-path="url(#p831e1f36c8)" d="M 344.500604 276.812 
L 344.500604 10.7 
" style="fill:none;stroke:#b0b0b0;stroke-linecap:square;stroke-width:0.8;"/>
     </g>
     <g id="line2d_10">
      <g>
       <use style="stroke:#000000;stroke-width:0.8;" x="344.500604" xlink:href="#mc5b4c2a2aa" y="276.812"/>
      </g>
     </g>
     <g id="text_4">
      <!-- 8 -->
      <defs>
       <path d="M 31.78125 34.625 
Q 24.75 34.625 20.71875 30.859375 
Q 16.703125 27.09375 16.703125 20.515625 
Q 16.703125 13.921875 20.71875 10.15625 
Q 24.75 6.390625 31.78125 6.390625 
Q 38.8125 6.390625 42.859375 10.171875 
Q 46.921875 13.96875 46.921875 20.515625 
Q 46.921875 27.09375 42.890625 30.859375 
Q 38.875 34.625 31.78125 34.625 
M 21.921875 38.8125 
Q 15.578125 40.375 12.03125 44.71875 
Q 8.5 49.078125 8.5 55.328125 
Q 8.5 64.0625 14.71875 69.140625 
Q 20.953125 74.21875 31.78125 74.21875 
Q 42.671875 74.21875 48.875 69.140625 
Q 55.078125 64.0625 55.078125 55.328125 
Q 55.078125 49.078125 51.53125 44.71875 
Q 48 40.375 41.703125 38.8125 
Q 48.828125 37.15625 52.796875 32.3125 
Q 56.78125 27.484375 56.78125 20.515625 
Q 56.78125 9.90625 50.3125 4.234375 
Q 43.84375 -1.421875 31.78125 -1.421875 
Q 19.734375 -1.421875 13.25 4.234375 
Q 6.78125 9.90625 6.78125 20.515625 
Q 6.78125 27.484375 10.78125 32.3125 
Q 14.796875 37.15625 21.921875 38.8125 
M 18.3125 54.390625 
Q 18.3125 48.734375 21.84375 45.5625 
Q 25.390625 42.390625 31.78125 42.390625 
Q 38.140625 42.390625 41.71875 45.5625 
Q 45.3125 48.734375 45.3125 54.390625 
Q 45.3125 60.0625 41.71875 63.234375 
Q 38.140625 66.40625 31.78125 66.40625 
Q 25.390625 66.40625 21.84375 63.234375 
Q 18.3125 60.0625 18.3125 54.390625 
" id="DejaVuSans-38"/>
      </defs>
      <g transform="translate(338.138104 299.008875)scale(0.2 -0.2)">
       <use xlink:href="#DejaVuSans-38"/>
      </g>
     </g>
    </g>
    <g id="text_5">
     <!-- log10 of Df -->
     <defs>
      <path d="M 9.421875 75.984375 
L 18.40625 75.984375 
L 18.40625 0 
L 9.421875 0 
z
" id="DejaVuSans-6c"/>
      <path d="M 30.609375 48.390625 
Q 23.390625 48.390625 19.1875 42.75 
Q 14.984375 37.109375 14.984375 27.296875 
Q 14.984375 17.484375 19.15625 11.84375 
Q 23.34375 6.203125 30.609375 6.203125 
Q 37.796875 6.203125 41.984375 11.859375 
Q 46.1875 17.53125 46.1875 27.296875 
Q 46.1875 37.015625 41.984375 42.703125 
Q 37.796875 48.390625 30.609375 48.390625 
M 30.609375 56 
Q 42.328125 56 49.015625 48.375 
Q 55.71875 40.765625 55.71875 27.296875 
Q 55.71875 13.875 49.015625 6.21875 
Q 42.328125 -1.421875 30.609375 -1.421875 
Q 18.84375 -1.421875 12.171875 6.21875 
Q 5.515625 13.875 5.515625 27.296875 
Q 5.515625 40.765625 12.171875 48.375 
Q 18.84375 56 30.609375 56 
" id="DejaVuSans-6f"/>
      <path d="M 45.40625 27.984375 
Q 45.40625 37.75 41.375 43.109375 
Q 37.359375 48.484375 30.078125 48.484375 
Q 22.859375 48.484375 18.828125 43.109375 
Q 14.796875 37.75 14.796875 27.984375 
Q 14.796875 18.265625 18.828125 12.890625 
Q 22.859375 7.515625 30.078125 7.515625 
Q 37.359375 7.515625 41.375 12.890625 
Q 45.40625 18.265625 45.40625 27.984375 
M 54.390625 6.78125 
Q 54.390625 -7.171875 48.1875 -13.984375 
Q 42 -20.796875 29.203125 -20.796875 
Q 24.46875 -20.796875 20.265625 -20.09375 
Q 16.0625 -19.390625 12.109375 -17.921875 
L 12.109375 -9.1875 
Q 16.0625 -11.328125 19.921875 -12.34375 
Q 23.78125 -13.375 27.78125 -13.375 
Q 36.625 -13.375 41.015625 -8.765625 
Q 45.40625 -4.15625 45.40625 5.171875 
L 45.40625 9.625 
Q 42.625 4.78125 38.28125 2.390625 
Q 33.9375 0 27.875 0 
Q 17.828125 0 11.671875 7.65625 
Q 5.515625 15.328125 5.515625 27.984375 
Q 5.515625 40.671875 11.671875 48.328125 
Q 17.828125 56 27.875 56 
Q 33.9375 56 38.28125 53.609375 
Q 42.625 51.21875 45.40625 46.390625 
L 45.40625 54.6875 
L 54.390625 54.6875 
z
" id="DejaVuSans-67"/>
      <path d="M 12.40625 8.296875 
L 28.515625 8.296875 
L 28.515625 63.921875 
L 10.984375 60.40625 
L 10.984375 69.390625 
L 28.421875 72.90625 
L 38.28125 72.90625 
L 38.28125 8.296875 
L 54.390625 8.296875 
L 54.390625 0 
L 12.40625 0 
z
" id="DejaVuSans-31"/>
      <path id="DejaVuSans-20"/>
      <path d="M 37.109375 75.984375 
L 37.109375 68.5 
L 28.515625 68.5 
Q 23.6875 68.5 21.796875 66.546875 
Q 19.921875 64.59375 19.921875 59.515625 
L 19.921875 54.6875 
L 34.71875 54.6875 
L 34.71875 47.703125 
L 19.921875 47.703125 
L 19.921875 0 
L 10.890625 0 
L 10.890625 47.703125 
L 2.296875 47.703125 
L 2.296875 54.6875 
L 10.890625 54.6875 
L 10.890625 58.5 
Q 10.890625 67.625 15.140625 71.796875 
Q 19.390625 75.984375 28.609375 75.984375 
z
" id="DejaVuSans-66"/>
      <path d="M 19.671875 64.796875 
L 19.671875 8.109375 
L 31.59375 8.109375 
Q 46.6875 8.109375 53.6875 14.9375 
Q 60.6875 21.78125 60.6875 36.53125 
Q 60.6875 51.171875 53.6875 57.984375 
Q 46.6875 64.796875 31.59375 64.796875 
z
M 9.8125 72.90625 
L 30.078125 72.90625 
Q 51.265625 72.90625 61.171875 64.09375 
Q 71.09375 55.28125 71.09375 36.53125 
Q 71.09375 17.671875 61.125 8.828125 
Q 51.171875 0 30.078125 0 
L 9.8125 0 
z
" id="DejaVuSans-44"/>
     </defs>
     <g transform="translate(134.074063 322.365125)scale(0.2 -0.2)">
      <use xlink:href="#DejaVuSans-6c"/>
      <use x="27.783203" xlink:href="#DejaVuSans-6f"/>
      <use x="88.964844" xlink:href="#DejaVuSans-67"/>
      <use x="152.441406" xlink:href="#DejaVuSans-31"/>
      <use x="216.064453" xlink:href="#DejaVuSans-30"/>
      <use x="279.6875" xlink:href="#DejaVuSans-20"/>
      <use x="311.474609" xlink:href="#DejaVuSans-6f"/>
      <use x="372.65625" xlink:href="#DejaVuSans-66"/>
      <use x="407.861328" xlink:href="#DejaVuSans-20"/>
      <use x="439.648438" xlink:href="#DejaVuSans-44"/>
      <use x="516.650391" xlink:href="#DejaVuSans-66"/>
     </g>
    </g>
   </g>
   <g id="matplotlib.axis_2">
    <g id="ytick_1">
     <g id="line2d_11">
      <path clip-path="url(#p831e1f36c8)" d="M 10.7 276.812 
L 367.82 276.812 
" style="fill:none;stroke:#b0b0b0;stroke-linecap:square;stroke-width:0.8;"/>
     </g>
     <g id="line2d_12">
      <defs>
       <path d="M 0 0 
L -3.5 0 
" id="me43d611da5" style="stroke:#000000;stroke-width:0.8;"/>
      </defs>
      <g>
       <use style="stroke:#000000;stroke-width:0.8;" x="10.7" xlink:href="#me43d611da5" y="276.812"/>
      </g>
     </g>
    </g>
    <g id="ytick_2">
     <g id="line2d_13">
      <path clip-path="url(#p831e1f36c8)" d="M 10.7 224.116554 
L 367.82 224.116554 
" style="fill:none;stroke:#b0b0b0;stroke-linecap:square;stroke-width:0.8;"/>
     </g>
     <g id="line2d_14">
      <g>
       <use style="stroke:#000000;stroke-width:0.8;" x="10.7" xlink:href="#me43d611da5" y="224.116554"/>
      </g>
     </g>
    </g>
    <g id="ytick_3">
     <g id="line2d_15">
      <path clip-path="url(#p831e1f36c8)" d="M 10.7 171.421109 
L 367.82 171.421109 
" style="fill:none;stroke:#b0b0b0;stroke-linecap:square;stroke-width:0.8;"/>
     </g>
     <g id="line2d_16">
      <g>
       <use style="stroke:#000000;stroke-width:0.8;" x="10.7" xlink:href="#me43d611da5" y="171.421109"/>
      </g>
     </g>
    </g>
    <g id="ytick_4">
     <g id="line2d_17">
      <path clip-path="url(#p831e1f36c8)" d="M 10.7 118.725663 
L 367.82 118.725663 
" style="fill:none;stroke:#b0b0b0;stroke-linecap:square;stroke-width:0.8;"/>
     </g>
     <g id="line2d_18">
      <g>
       <use style="stroke:#000000;stroke-width:0.8;" x="10.7" xlink:href="#me43d611da5" y="118.725663"/>
      </g>
     </g>
    </g>
    <g id="ytick_5">
     <g id="line2d_19">
      <path clip-path="url(#p831e1f36c8)" d="M 10.7 66.030218 
L 367.82 66.030218 
" style="fill:none;stroke:#b0b0b0;stroke-linecap:square;stroke-width:0.8;"/>
     </g>
     <g id="line2d_20">
      <g>
       <use style="stroke:#000000;stroke-width:0.8;" x="10.7" xlink:href="#me43d611da5" y="66.030218"/>
      </g>
     </g>
    </g>
    <g id="ytick_6">
     <g id="line2d_21">
      <path clip-path="url(#p831e1f36c8)" d="M 10.7 13.334772 
L 367.82 13.334772 
" style="fill:none;stroke:#b0b0b0;stroke-linecap:square;stroke-width:0.8;"/>
     </g>
     <g id="line2d_22">
      <g>
       <use style="stroke:#000000;stroke-width:0.8;" x="10.7" xlink:href="#me43d611da5" y="13.334772"/>
      </g>
     </g>
    </g>
   </g>
   <g id="line2d_23">
    <path clip-path="url(#p831e1f36c8)" d="M 161.69623 276.812 
L 161.69623 274.616356 
L 165.665388 274.616356 
L 165.665388 272.420713 
L 175.720012 272.420713 
L 175.720012 270.225069 
L 176.00938 270.225069 
L 176.00938 268.029426 
L 178.725359 268.029426 
L 178.725359 265.833782 
L 187.08708 265.833782 
L 187.08708 263.638139 
L 187.412432 263.638139 
L 187.412432 259.246851 
L 189.306219 259.246851 
L 189.306219 257.051208 
L 189.964767 257.051208 
L 189.964767 254.855564 
L 193.161629 254.855564 
L 193.234671 248.268634 
L 194.008559 248.268634 
L 194.008559 246.07299 
L 195.773017 246.07299 
L 195.773017 243.877347 
L 195.954453 243.877347 
L 195.954453 241.681703 
L 196.534755 241.681703 
L 196.534755 239.486059 
L 196.933635 239.486059 
L 196.933635 237.290416 
L 197.085238 237.290416 
L 197.085238 235.094772 
L 197.370798 235.094772 
L 197.370798 232.899129 
L 201.726168 232.899129 
L 201.726168 230.703485 
L 202.039496 230.703485 
L 202.039496 228.507842 
L 204.17338 228.507842 
L 204.17338 224.116554 
L 204.45743 224.116554 
L 204.520635 219.725267 
L 205.052185 219.725267 
L 205.052185 217.529624 
L 205.171885 217.529624 
L 205.229066 213.138337 
L 205.37917 213.138337 
L 205.37917 210.942693 
L 205.817745 210.942693 
L 205.927 206.551406 
L 206.281829 206.551406 
L 206.359212 202.160119 
L 207.07565 202.160119 
L 207.083122 193.377545 
L 211.061771 193.377545 
L 211.061771 191.181901 
L 211.564909 191.181901 
L 211.564909 188.986257 
L 212.426011 188.986257 
L 212.430009 184.59497 
L 215.398188 184.59497 
L 215.398188 180.203683 
L 216.335832 180.203683 
L 216.335832 178.00804 
L 216.454688 178.00804 
L 216.454688 175.812396 
L 217.809316 175.812396 
L 217.809316 171.421109 
L 225.121693 171.421109 
L 225.121693 169.225465 
L 225.512481 169.225465 
L 225.605388 162.638535 
L 225.770389 162.638535 
L 225.770389 158.247248 
L 227.988924 158.247248 
L 228.034278 153.85596 
L 229.347055 153.85596 
L 229.347055 149.464673 
L 232.599717 149.464673 
L 232.599717 145.073386 
L 233.422512 145.073386 
L 233.422512 140.682099 
L 237.010894 140.682099 
L 237.061565 136.290812 
L 242.724217 136.290812 
L 242.724217 131.899525 
L 243.320098 131.899525 
L 243.320098 129.703881 
L 243.919782 129.703881 
L 243.919782 125.312594 
L 244.348805 125.312594 
L 244.348805 123.11695 
L 253.583532 123.11695 
L 253.651358 114.334376 
L 254.988912 114.334376 
L 255.066573 109.943089 
L 256.46571 109.943089 
L 256.547592 105.551802 
L 256.618006 105.551802 
L 256.618006 103.356158 
L 256.754261 103.356158 
L 256.754261 101.160515 
L 258.238965 101.160515 
L 258.248922 96.769228 
L 260.591675 96.769228 
L 260.602539 92.377941 
L 262.856196 92.377941 
L 262.893489 87.986653 
L 263.61644 87.986653 
L 263.724167 83.595366 
L 264.661175 83.595366 
L 264.728427 79.204079 
L 265.234726 79.204079 
L 265.257709 74.812792 
L 265.785677 74.812792 
L 265.785922 70.421505 
L 266.355763 70.421505 
L 266.355763 68.225861 
L 266.543329 68.225861 
L 266.543329 66.030218 
L 267.672545 66.030218 
L 267.691871 61.638931 
L 272.112051 61.638931 
L 272.119152 57.247644 
L 274.444698 57.247644 
L 274.444698 52.856356 
L 274.941375 52.856356 
L 275.033325 48.465069 
L 277.915084 48.465069 
L 277.917833 44.073782 
L 279.925606 44.073782 
L 279.925606 41.878139 
L 280.090793 41.878139 
L 280.090793 39.682495 
L 282.124186 39.682495 
L 282.197562 35.291208 
L 282.496379 35.291208 
L 282.496379 30.899921 
L 283.904254 30.899921 
L 283.953205 26.508634 
L 287.3456 26.508634 
L 287.380892 22.117347 
L 295.22514 22.117347 
L 295.22514 17.726059 
L 297.570668 17.726059 
L 297.586014 13.334772 
L 297.586014 13.334772 
L 367.82 13.334772 
L 367.82 13.334772 
" style="fill:none;stroke:#ff0000;stroke-linecap:square;stroke-width:3;"/>
   </g>
   <g id="line2d_24">
    <path clip-path="url(#p831e1f36c8)" d="M 200.881092 276.812 
L 200.881092 274.616356 
L 200.881092 274.616356 
L 200.881092 274.616356 
L 200.881092 272.420713 
L 206.418033 272.420713 
L 206.418033 270.225069 
L 207.083122 270.225069 
L 207.083122 204.355762 
L 209.157281 204.355762 
L 209.157281 202.160119 
L 214.027439 202.160119 
L 214.027439 197.768832 
L 214.512464 197.768832 
L 214.512464 195.573188 
L 218.071958 195.573188 
L 218.071958 191.181901 
L 219.335316 191.181901 
L 219.335316 188.986257 
L 220.690556 188.986257 
L 220.690556 186.790614 
L 220.885432 186.790614 
L 220.885432 182.399327 
L 222.650815 182.399327 
L 222.650815 180.203683 
L 223.271796 180.203683 
L 223.271796 178.00804 
L 229.991583 178.00804 
L 229.991583 175.812396 
L 230.121094 175.812396 
L 230.121094 173.616752 
L 230.589806 173.616752 
L 230.589806 171.421109 
L 231.880059 171.421109 
L 231.880059 169.225465 
L 232.356329 169.225465 
L 232.356329 167.029822 
L 233.209454 167.029822 
L 233.209454 164.834178 
L 233.524544 164.834178 
L 233.524544 162.638535 
L 233.953027 162.638535 
L 233.953027 160.442891 
L 236.44746 160.442891 
L 236.484888 156.051604 
L 238.30352 156.051604 
L 238.30352 153.85596 
L 238.74704 153.85596 
L 238.74704 149.464673 
L 238.903041 149.464673 
L 238.903041 147.26903 
L 239.403892 147.26903 
L 239.514115 142.877743 
L 239.684033 142.877743 
L 239.684033 140.682099 
L 242.724217 140.682099 
L 242.724217 136.290812 
L 244.838307 136.290812 
L 244.838307 134.095168 
L 245.988718 134.095168 
L 245.988718 131.899525 
L 251.00151 131.899525 
L 251.00151 129.703881 
L 251.378662 129.703881 
L 251.378662 127.508238 
L 252.158613 127.508238 
L 252.158613 123.11695 
L 256.723884 123.11695 
L 256.723884 118.725663 
L 256.97926 118.725663 
L 256.97926 114.334376 
L 257.420609 114.334376 
L 257.420609 109.943089 
L 257.692047 109.943089 
L 257.692047 105.551802 
L 258.623824 105.551802 
L 258.623824 101.160515 
L 259.347461 101.160515 
L 259.347461 96.769228 
L 262.270727 96.769228 
L 262.270727 92.377941 
L 264.386553 92.377941 
L 264.386553 87.986653 
L 264.97502 87.986653 
L 264.97502 83.595366 
L 266.483446 83.595366 
L 266.483446 79.204079 
L 266.859954 79.204079 
L 266.859954 74.812792 
L 268.047375 74.812792 
L 268.047375 70.421505 
L 269.045421 70.421505 
L 269.045421 66.030218 
L 272.648033 66.030218 
L 272.648033 63.834574 
L 274.444698 63.834574 
L 274.444698 59.443287 
L 276.488794 59.443287 
L 276.488794 55.052 
L 277.527421 55.052 
L 277.527421 50.660713 
L 278.025382 50.660713 
L 278.025382 48.465069 
L 278.833357 48.465069 
L 278.833357 44.073782 
L 282.496379 44.073782 
L 282.496379 39.682495 
L 283.903397 39.682495 
L 283.903397 37.486851 
L 284.437115 37.486851 
L 284.437115 33.095564 
L 284.779099 33.095564 
L 284.779099 30.899921 
L 285.474432 30.899921 
L 285.474432 28.704277 
L 286.987435 28.704277 
L 286.987435 26.508634 
L 290.164328 26.508634 
L 290.164328 24.31299 
L 290.533972 24.31299 
L 290.533972 22.117347 
L 295.22514 22.117347 
L 295.22514 17.726059 
L 297.806543 17.726059 
L 297.806543 13.334772 
L 297.806543 13.334772 
L 367.82 13.334772 
L 367.82 13.334772 
" style="fill:none;stroke:#00bfbf;stroke-linecap:square;stroke-width:1.5;"/>
   </g>
   <g id="line2d_25">
    <path clip-path="url(#p831e1f36c8)" d="M 197.85135 276.812 
L 197.85135 274.616356 
L 200.881092 274.616356 
L 200.881092 272.420713 
L 206.414027 272.420713 
L 206.414027 270.225069 
L 207.083122 270.225069 
L 207.083122 204.355762 
L 208.024739 204.355762 
L 208.024739 202.160119 
L 209.776794 202.160119 
L 209.776794 199.964475 
L 214.027439 199.964475 
L 214.027439 195.573188 
L 214.512464 195.573188 
L 214.512464 193.377545 
L 215.205588 193.377545 
L 215.205588 191.181901 
L 218.071958 191.181901 
L 218.071958 186.790614 
L 220.321255 186.790614 
L 220.321255 184.59497 
L 220.885432 184.59497 
L 220.885432 180.203683 
L 222.065589 180.203683 
L 222.065589 178.00804 
L 228.657112 178.00804 
L 228.657112 175.812396 
L 230.121094 175.812396 
L 230.121094 173.616752 
L 230.589806 173.616752 
L 230.589806 171.421109 
L 231.114599 171.421109 
L 231.186394 167.029822 
L 231.682362 167.029822 
L 231.682362 164.834178 
L 232.126651 164.834178 
L 232.126651 162.638535 
L 232.356329 162.638535 
L 232.356329 160.442891 
L 232.994208 160.442891 
L 232.994208 158.247248 
L 233.953027 158.247248 
L 233.953027 156.051604 
L 235.340497 156.051604 
L 235.340497 153.85596 
L 236.000427 153.85596 
L 236.000427 151.660317 
L 237.540823 151.660317 
L 237.540823 149.464673 
L 237.868065 149.464673 
L 237.868065 147.26903 
L 238.30352 147.26903 
L 238.30352 145.073386 
L 238.74704 145.073386 
L 238.74704 140.682099 
L 242.724217 140.682099 
L 242.724217 136.290812 
L 243.533058 136.290812 
L 243.533058 134.095168 
L 244.838307 134.095168 
L 244.838307 131.899525 
L 245.982828 131.899525 
L 245.982828 129.703881 
L 251.378662 129.703881 
L 251.378662 127.508238 
L 252.158613 127.508238 
L 252.158613 123.11695 
L 255.46824 123.11695 
L 255.532287 118.725663 
L 256.723884 118.725663 
L 256.723884 116.53002 
L 256.85529 116.53002 
L 256.85529 114.334376 
L 256.97926 114.334376 
L 256.97926 109.943089 
L 257.420609 109.943089 
L 257.420609 105.551802 
L 258.623824 105.551802 
L 258.623824 101.160515 
L 259.347461 101.160515 
L 259.347461 96.769228 
L 262.270727 96.769228 
L 262.270727 92.377941 
L 264.386553 92.377941 
L 264.386553 87.986653 
L 264.97502 87.986653 
L 264.97502 83.595366 
L 265.873173 83.595366 
L 265.873173 81.399723 
L 266.483446 81.399723 
L 266.483446 79.204079 
L 266.859954 79.204079 
L 266.859954 74.812792 
L 268.047375 74.812792 
L 268.047375 70.421505 
L 269.045421 70.421505 
L 269.045421 66.030218 
L 272.195558 66.030218 
L 272.195558 63.834574 
L 272.648033 63.834574 
L 272.648033 61.638931 
L 273.181001 61.638931 
L 273.181001 59.443287 
L 274.444698 59.443287 
L 274.444698 55.052 
L 276.488794 55.052 
L 276.488794 52.856356 
L 277.527421 52.856356 
L 277.527421 48.465069 
L 278.154768 48.465069 
L 278.154768 46.269426 
L 278.833357 46.269426 
L 278.833357 44.073782 
L 282.496379 44.073782 
L 282.496379 39.682495 
L 283.903397 39.682495 
L 283.956281 35.291208 
L 284.044281 35.291208 
L 284.044281 33.095564 
L 284.437115 33.095564 
L 284.437115 28.704277 
L 285.753155 28.704277 
L 285.753155 26.508634 
L 289.117841 26.508634 
L 289.117841 24.31299 
L 290.533972 24.31299 
L 290.533972 22.117347 
L 295.22514 22.117347 
L 295.22514 17.726059 
L 297.806543 17.726059 
L 297.806543 13.334772 
L 297.806543 13.334772 
L 367.82 13.334772 
L 367.82 13.334772 
" style="fill:none;stroke:#bf00bf;stroke-linecap:square;stroke-width:1.5;"/>
   </g>
   <g id="line2d_26">
    <path clip-path="url(#p831e1f36c8)" d="M 190.988248 276.812 
L 190.988248 274.616356 
L 197.85135 274.616356 
L 197.85135 272.420713 
L 199.333506 272.420713 
L 199.333506 270.225069 
L 200.881092 270.225069 
L 200.881092 268.029426 
L 202.123778 268.029426 
L 202.123778 265.833782 
L 206.414027 265.833782 
L 206.418033 261.442495 
L 207.083122 261.442495 
L 207.083122 202.160119 
L 209.776794 202.160119 
L 209.776794 199.964475 
L 210.999297 199.964475 
L 210.999297 197.768832 
L 213.073166 197.768832 
L 213.073166 195.573188 
L 213.928007 195.573188 
L 213.928007 193.377545 
L 214.146589 193.377545 
L 214.146589 191.181901 
L 214.998705 191.181901 
L 214.998705 188.986257 
L 216.022673 188.986257 
L 216.071026 184.59497 
L 220.314682 184.59497 
L 220.314682 182.399327 
L 220.689662 182.399327 
L 220.689662 180.203683 
L 220.885432 180.203683 
L 220.885432 178.00804 
L 221.523127 178.00804 
L 221.523127 175.812396 
L 228.657112 175.812396 
L 228.657112 173.616752 
L 229.191701 173.616752 
L 229.191701 171.421109 
L 229.88194 171.421109 
L 229.88194 169.225465 
L 230.112537 169.225465 
L 230.121094 164.834178 
L 231.243265 164.834178 
L 231.243265 162.638535 
L 231.682362 162.638535 
L 231.682362 160.442891 
L 232.248116 160.442891 
L 232.352034 156.051604 
L 233.453033 156.051604 
L 233.453033 153.85596 
L 235.340497 153.85596 
L 235.340497 151.660317 
L 235.558179 151.660317 
L 235.558179 149.464673 
L 235.76202 149.464673 
L 235.76202 147.26903 
L 236.978931 147.26903 
L 236.978931 145.073386 
L 238.74704 145.073386 
L 238.74704 140.682099 
L 242.724217 140.682099 
L 242.724217 136.290812 
L 243.533058 136.290812 
L 243.533058 134.095168 
L 244.823725 134.095168 
L 244.838307 129.703881 
L 246.53081 129.703881 
L 246.53081 127.508238 
L 252.158613 127.508238 
L 252.158613 123.11695 
L 255.378235 123.11695 
L 255.378235 120.921307 
L 255.532287 120.921307 
L 255.532287 118.725663 
L 256.055883 118.725663 
L 256.055883 116.53002 
L 256.723884 116.53002 
L 256.723884 114.334376 
L 256.97926 114.334376 
L 256.97926 109.943089 
L 257.420609 109.943089 
L 257.420609 105.551802 
L 258.407507 105.551802 
L 258.407507 103.356158 
L 258.623824 103.356158 
L 258.623824 101.160515 
L 259.347461 101.160515 
L 259.347461 96.769228 
L 261.994248 96.769228 
L 261.994248 94.573584 
L 262.270727 94.573584 
L 262.270727 92.377941 
L 264.386553 92.377941 
L 264.386553 87.986653 
L 264.97502 87.986653 
L 264.97502 83.595366 
L 265.873173 83.595366 
L 265.873173 81.399723 
L 266.419185 81.399723 
L 266.483446 77.008436 
L 266.859954 77.008436 
L 266.859954 74.812792 
L 267.024199 74.812792 
L 267.024199 72.617149 
L 268.047375 72.617149 
L 268.047375 70.421505 
L 268.448107 70.421505 
L 268.448107 68.225861 
L 269.045421 68.225861 
L 269.045421 66.030218 
L 272.195558 66.030218 
L 272.195558 63.834574 
L 272.648033 63.834574 
L 272.648033 61.638931 
L 273.181001 61.638931 
L 273.181001 59.443287 
L 273.922657 59.443287 
L 273.922657 57.247644 
L 274.444698 57.247644 
L 274.444698 52.856356 
L 277.527421 52.856356 
L 277.527421 48.465069 
L 278.154768 48.465069 
L 278.154768 46.269426 
L 278.833357 46.269426 
L 278.833357 44.073782 
L 282.496379 44.073782 
L 282.496379 39.682495 
L 282.773205 39.682495 
L 282.773205 37.486851 
L 283.290155 37.486851 
L 283.290155 35.291208 
L 283.921251 35.291208 
L 283.921251 33.095564 
L 284.044281 33.095564 
L 284.044281 30.899921 
L 284.437115 30.899921 
L 284.437115 26.508634 
L 288.627297 26.508634 
L 288.627297 24.31299 
L 289.495041 24.31299 
L 289.495041 22.117347 
L 295.22514 22.117347 
L 295.22514 17.726059 
L 297.806543 17.726059 
L 297.806543 13.334772 
L 297.806543 13.334772 
L 367.82 13.334772 
L 367.82 13.334772 
" style="fill:none;stroke:#000000;stroke-linecap:square;stroke-width:1.5;"/>
   </g>
   <g id="line2d_27">
    <path clip-path="url(#p831e1f36c8)" d="M 190.988248 276.812 
L 190.988248 274.616356 
L 193.065526 274.616356 
L 193.065526 272.420713 
L 193.625469 272.420713 
L 193.625469 270.225069 
L 199.333506 270.225069 
L 199.333506 268.029426 
L 200.048226 268.029426 
L 200.048226 265.833782 
L 201.148678 265.833782 
L 201.148678 263.638139 
L 202.123778 263.638139 
L 202.123778 261.442495 
L 202.424692 261.442495 
L 202.424692 259.246851 
L 204.688751 259.246851 
L 204.688751 257.051208 
L 205.140719 257.051208 
L 205.140719 254.855564 
L 207.083122 254.855564 
L 207.083122 202.160119 
L 208.989521 202.160119 
L 208.989521 199.964475 
L 210.999297 199.964475 
L 210.999297 197.768832 
L 212.516712 197.768832 
L 212.516712 195.573188 
L 213.073166 195.573188 
L 213.073166 193.377545 
L 214.140728 193.377545 
L 214.140728 191.181901 
L 214.257567 191.181901 
L 214.257567 186.790614 
L 214.998705 186.790614 
L 214.998705 184.59497 
L 215.398188 184.59497 
L 215.398188 182.399327 
L 218.338814 182.399327 
L 218.338814 180.203683 
L 218.632044 180.203683 
L 218.692967 175.812396 
L 218.982464 175.812396 
L 218.982464 173.616752 
L 220.347214 173.616752 
L 220.347214 171.421109 
L 227.395319 171.421109 
L 227.395319 169.225465 
L 228.26557 169.225465 
L 228.26557 164.834178 
L 228.475954 164.834178 
L 228.475954 162.638535 
L 228.770111 162.638535 
L 228.770111 160.442891 
L 229.953112 160.442891 
L 229.953112 158.247248 
L 230.423971 158.247248 
L 230.423971 156.051604 
L 231.682362 156.051604 
L 231.769793 151.660317 
L 232.032892 151.660317 
L 232.032892 149.464673 
L 233.613214 149.464673 
L 233.613214 147.26903 
L 234.231478 147.26903 
L 234.231478 145.073386 
L 235.558179 145.073386 
L 235.558179 140.682099 
L 238.341045 140.682099 
L 238.341045 138.486455 
L 238.509121 138.486455 
L 238.509121 136.290812 
L 242.724217 136.290812 
L 242.724217 131.899525 
L 244.823725 131.899525 
L 244.838307 127.508238 
L 252.158613 127.508238 
L 252.158613 123.11695 
L 253.962234 123.11695 
L 253.962234 120.921307 
L 255.378235 120.921307 
L 255.378235 118.725663 
L 255.532287 118.725663 
L 255.532287 116.53002 
L 256.382625 116.53002 
L 256.382625 114.334376 
L 256.97926 114.334376 
L 256.97926 109.943089 
L 257.420609 109.943089 
L 257.420609 105.551802 
L 258.407507 105.551802 
L 258.407507 103.356158 
L 258.623824 103.356158 
L 258.623824 101.160515 
L 259.062533 101.160515 
L 259.062533 98.964871 
L 259.209394 98.964871 
L 259.209394 96.769228 
L 261.857265 96.769228 
L 261.857265 94.573584 
L 262.165322 94.573584 
L 262.165322 92.377941 
L 264.386553 92.377941 
L 264.386553 87.986653 
L 264.97502 87.986653 
L 264.97502 83.595366 
L 265.873173 83.595366 
L 265.954734 79.204079 
L 266.419185 79.204079 
L 266.483446 74.812792 
L 267.024199 74.812792 
L 267.107986 70.421505 
L 268.448107 70.421505 
L 268.448107 68.225861 
L 268.735342 68.225861 
L 268.735342 66.030218 
L 272.047356 66.030218 
L 272.088641 61.638931 
L 273.051366 61.638931 
L 273.051366 59.443287 
L 273.181001 59.443287 
L 273.181001 57.247644 
L 274.444698 57.247644 
L 274.444698 52.856356 
L 277.527421 52.856356 
L 277.527421 48.465069 
L 278.05843 48.465069 
L 278.154768 44.073782 
L 282.496379 44.073782 
L 282.544194 37.486851 
L 282.773205 37.486851 
L 282.773205 35.291208 
L 283.383977 35.291208 
L 283.383977 33.095564 
L 284.044281 33.095564 
L 284.044281 30.899921 
L 284.437115 30.899921 
L 284.437115 26.508634 
L 288.627297 26.508634 
L 288.627297 24.31299 
L 289.303444 24.31299 
L 289.303444 22.117347 
L 295.22514 22.117347 
L 295.22514 17.726059 
L 297.806543 17.726059 
L 297.806543 13.334772 
L 297.806543 13.334772 
L 367.82 13.334772 
L 367.82 13.334772 
" style="fill:none;stroke:#00bfbf;stroke-linecap:square;stroke-width:1.5;"/>
   </g>
   <g id="line2d_28">
    <path clip-path="url(#p831e1f36c8)" d="M 187.594519 276.812 
L 187.594519 274.616356 
L 188.460897 274.616356 
L 188.460897 272.420713 
L 190.236923 272.420713 
L 190.236923 270.225069 
L 190.988248 270.225069 
L 190.988248 268.029426 
L 193.625469 268.029426 
L 193.625469 263.638139 
L 194.569241 263.638139 
L 194.569241 261.442495 
L 196.322454 261.442495 
L 196.322454 259.246851 
L 197.027463 259.246851 
L 197.027463 257.051208 
L 198.073583 257.051208 
L 198.073583 254.855564 
L 199.679394 254.855564 
L 199.679394 252.659921 
L 201.71841 252.659921 
L 201.71841 250.464277 
L 202.123778 250.464277 
L 202.123778 248.268634 
L 202.765433 248.268634 
L 202.765433 246.07299 
L 203.097784 246.07299 
L 203.097784 243.877347 
L 205.693818 243.877347 
L 205.693818 241.681703 
L 205.833349 241.681703 
L 205.933383 237.290416 
L 206.34612 237.290416 
L 206.34612 235.094772 
L 207.083122 235.094772 
L 207.083122 202.160119 
L 208.958139 202.160119 
L 208.966598 197.768832 
L 211.564909 197.768832 
L 211.564909 195.573188 
L 212.395857 195.573188 
L 212.395857 193.377545 
L 212.516712 193.377545 
L 212.516712 191.181901 
L 212.966693 191.181901 
L 212.966693 188.986257 
L 213.624686 188.986257 
L 213.624686 186.790614 
L 213.854484 186.790614 
L 213.854484 184.59497 
L 215.398188 184.59497 
L 215.398188 182.399327 
L 217.03731 182.399327 
L 217.03731 180.203683 
L 218.096663 180.203683 
L 218.096663 178.00804 
L 218.632044 178.00804 
L 218.632044 175.812396 
L 218.982464 175.812396 
L 218.982464 173.616752 
L 219.470573 173.616752 
L 219.470573 171.421109 
L 226.366385 171.421109 
L 226.366385 169.225465 
L 226.811037 169.225465 
L 226.811037 167.029822 
L 227.174194 167.029822 
L 227.174194 164.834178 
L 227.395319 164.834178 
L 227.395319 162.638535 
L 227.759463 162.638535 
L 227.759463 160.442891 
L 228.111922 160.442891 
L 228.111922 158.247248 
L 229.591053 158.247248 
L 229.591053 156.051604 
L 229.814943 156.051604 
L 229.814943 153.85596 
L 230.383828 153.85596 
L 230.383828 151.660317 
L 230.978424 151.660317 
L 230.978424 149.464673 
L 233.398384 149.464673 
L 233.398384 145.073386 
L 234.497131 145.073386 
L 234.497131 142.877743 
L 234.891617 142.877743 
L 234.891617 140.682099 
L 238.316705 140.682099 
L 238.365282 136.290812 
L 242.724217 136.290812 
L 242.724217 131.899525 
L 243.925481 131.899525 
L 243.925481 129.703881 
L 244.828521 129.703881 
L 244.828521 127.508238 
L 251.856809 127.508238 
L 251.856809 125.312594 
L 252.158613 125.312594 
L 252.158613 123.11695 
L 253.851744 123.11695 
L 253.962234 118.725663 
L 254.465479 118.725663 
L 254.465479 116.53002 
L 255.178607 116.53002 
L 255.178607 114.334376 
L 256.449366 114.334376 
L 256.449366 112.138733 
L 256.836391 112.138733 
L 256.918831 107.747446 
L 257.360831 107.747446 
L 257.420609 101.160515 
L 258.70576 101.160515 
L 258.77899 96.769228 
L 261.647197 96.769228 
L 261.647197 94.573584 
L 261.857265 94.573584 
L 261.857265 92.377941 
L 264.017018 92.377941 
L 264.017018 90.182297 
L 264.386553 90.182297 
L 264.386553 87.986653 
L 264.63271 87.986653 
L 264.63271 85.79101 
L 264.862204 85.79101 
L 264.862204 83.595366 
L 265.685158 83.595366 
L 265.758453 79.204079 
L 265.954734 79.204079 
L 265.987488 74.812792 
L 267.024199 74.812792 
L 267.098375 70.421505 
L 268.448107 70.421505 
L 268.448107 68.225861 
L 268.600138 68.225861 
L 268.667185 63.834574 
L 270.980866 63.834574 
L 270.980866 61.638931 
L 272.212751 61.638931 
L 272.212751 59.443287 
L 272.544203 59.443287 
L 272.544203 57.247644 
L 274.444698 57.247644 
L 274.444698 52.856356 
L 276.682218 52.856356 
L 276.698555 48.465069 
L 278.036473 48.465069 
L 278.05843 44.073782 
L 281.782951 44.073782 
L 281.782951 41.878139 
L 282.496379 41.878139 
L 282.498736 35.291208 
L 283.13874 35.291208 
L 283.248821 30.899921 
L 284.362365 30.899921 
L 284.437115 26.508634 
L 288.287784 26.508634 
L 288.302221 22.117347 
L 295.22514 22.117347 
L 295.22514 17.726059 
L 297.716222 17.726059 
L 297.746068 13.334772 
L 297.746068 13.334772 
L 367.82 13.334772 
L 367.82 13.334772 
" style="fill:none;stroke:#bf00bf;stroke-linecap:square;stroke-width:1.5;"/>
   </g>
   <g id="line2d_29">
    <path clip-path="url(#p831e1f36c8)" d="M 186.012634 276.812 
L 186.012634 274.616356 
L 187.468517 274.616356 
L 187.468517 270.225069 
L 190.236923 270.225069 
L 190.236923 268.029426 
L 193.161629 268.029426 
L 193.161629 265.833782 
L 193.625469 265.833782 
L 193.625469 263.638139 
L 194.569241 263.638139 
L 194.569241 261.442495 
L 195.244981 261.442495 
L 195.246154 257.051208 
L 196.293294 257.051208 
L 196.293294 254.855564 
L 198.073583 254.855564 
L 198.073583 252.659921 
L 199.71076 252.659921 
L 199.71076 250.464277 
L 199.904961 250.464277 
L 199.987189 246.07299 
L 202.063978 246.07299 
L 202.063978 243.877347 
L 202.762389 243.877347 
L 202.762389 241.681703 
L 203.194979 241.681703 
L 203.194979 239.486059 
L 203.512288 239.486059 
L 203.512288 237.290416 
L 205.01166 237.290416 
L 205.01166 235.094772 
L 205.398754 235.094772 
L 205.398754 232.899129 
L 205.95274 232.899129 
L 206.021412 228.507842 
L 207.083122 228.507842 
L 207.083122 202.160119 
L 207.890199 202.160119 
L 207.890199 199.964475 
L 208.340705 199.964475 
L 208.340705 197.768832 
L 208.956123 197.768832 
L 208.956123 195.573188 
L 211.564909 195.573188 
L 211.564909 193.377545 
L 212.516712 193.377545 
L 212.516712 191.181901 
L 212.819147 191.181901 
L 212.876324 186.790614 
L 212.966693 186.790614 
L 212.966693 184.59497 
L 215.398188 184.59497 
L 215.398188 182.399327 
L 217.02433 182.399327 
L 217.02433 180.203683 
L 217.414038 180.203683 
L 217.414038 178.00804 
L 217.824299 178.00804 
L 217.824299 175.812396 
L 218.342789 175.812396 
L 218.342789 173.616752 
L 218.632044 173.616752 
L 218.632044 171.421109 
L 225.620475 171.421109 
L 225.620475 169.225465 
L 226.280907 169.225465 
L 226.280907 164.834178 
L 226.919862 164.834178 
L 226.919862 162.638535 
L 227.084495 162.638535 
L 227.084495 160.442891 
L 227.813527 160.442891 
L 227.813527 158.247248 
L 228.890271 158.247248 
L 228.91232 153.85596 
L 230.209551 153.85596 
L 230.209551 149.464673 
L 233.398384 149.464673 
L 233.422512 142.877743 
L 234.497131 142.877743 
L 234.497131 140.682099 
L 237.435404 140.682099 
L 237.435404 138.486455 
L 238.185452 138.486455 
L 238.185452 136.290812 
L 242.724217 136.290812 
L 242.724217 131.899525 
L 243.919782 131.899525 
L 243.919782 129.703881 
L 244.79196 129.703881 
L 244.79196 127.508238 
L 250.79413 127.508238 
L 250.79413 125.312594 
L 252.158613 125.312594 
L 252.158613 123.11695 
L 253.836204 123.11695 
L 253.873348 116.53002 
L 254.691472 116.53002 
L 254.691472 114.334376 
L 255.476341 114.334376 
L 255.476341 112.138733 
L 255.919493 112.138733 
L 255.919493 109.943089 
L 256.812162 109.943089 
L 256.903295 105.551802 
L 257.420609 105.551802 
L 257.420609 101.160515 
L 258.402945 101.160515 
L 258.422141 96.769228 
L 261.46142 96.769228 
L 261.51658 92.377941 
L 263.404179 92.377941 
L 263.404179 90.182297 
L 263.667367 90.182297 
L 263.667367 87.986653 
L 263.923632 87.986653 
L 263.923632 85.79101 
L 264.446086 85.79101 
L 264.446086 83.595366 
L 265.360361 83.595366 
L 265.371773 79.204079 
L 265.826815 79.204079 
L 265.931456 74.812792 
L 266.64784 74.812792 
L 266.661673 70.421505 
L 267.894092 70.421505 
L 267.96676 66.030218 
L 268.223583 66.030218 
L 268.223583 63.834574 
L 268.667185 63.834574 
L 268.667185 61.638931 
L 272.195783 61.638931 
L 272.228522 57.247644 
L 274.444698 57.247644 
L 274.444698 52.856356 
L 275.576165 52.856356 
L 275.576165 50.660713 
L 276.644617 50.660713 
L 276.644617 48.465069 
L 277.939312 48.465069 
L 277.973247 44.073782 
L 280.881152 44.073782 
L 280.881152 41.878139 
L 281.782951 41.878139 
L 281.782951 39.682495 
L 282.496379 39.682495 
L 282.496379 35.291208 
L 282.739144 35.291208 
L 282.790341 30.899921 
L 284.282835 30.899921 
L 284.339131 26.508634 
L 287.631675 26.508634 
L 287.631675 24.31299 
L 287.918315 24.31299 
L 287.918315 22.117347 
L 295.22514 22.117347 
L 295.22514 17.726059 
L 297.695463 17.726059 
L 297.733485 13.334772 
L 297.733485 13.334772 
L 367.82 13.334772 
L 367.82 13.334772 
" style="fill:none;stroke:#000000;stroke-linecap:square;stroke-width:1.5;"/>
   </g>
   <g id="line2d_30">
    <path clip-path="url(#p831e1f36c8)" d="M 170.083871 276.812 
L 170.083871 274.616356 
L 177.513336 274.616356 
L 177.513336 272.420713 
L 178.213157 272.420713 
L 178.213157 270.225069 
L 181.147845 270.225069 
L 181.147845 268.029426 
L 181.397557 268.029426 
L 181.397557 265.833782 
L 187.412432 265.833782 
L 187.412432 261.442495 
L 189.33186 261.442495 
L 189.33186 259.246851 
L 190.96753 259.246851 
L 190.969725 254.855564 
L 193.161629 254.855564 
L 193.161629 250.464277 
L 193.714085 250.464277 
L 193.714085 248.268634 
L 194.5131 248.268634 
L 194.5131 246.07299 
L 198.206269 246.07299 
L 198.206269 243.877347 
L 198.318573 243.877347 
L 198.399168 239.486059 
L 198.94551 239.486059 
L 199.042327 235.094772 
L 201.818675 235.094772 
L 201.818675 232.899129 
L 202.752582 232.899129 
L 202.82398 228.507842 
L 204.17338 228.507842 
L 204.17338 226.312198 
L 205.247269 226.312198 
L 205.247269 224.116554 
L 205.385422 224.116554 
L 205.385422 221.920911 
L 205.812689 221.920911 
L 205.812689 219.725267 
L 206.074546 219.725267 
L 206.105752 215.33398 
L 206.204376 215.33398 
L 206.312242 206.551406 
L 206.596489 206.551406 
L 206.596489 204.355762 
L 207.083122 204.355762 
L 207.083122 195.573188 
L 207.588542 195.573188 
L 207.588542 193.377545 
L 211.564909 193.377545 
L 211.564909 188.986257 
L 212.56045 188.986257 
L 212.639599 184.59497 
L 215.398188 184.59497 
L 215.398188 182.399327 
L 216.457639 182.399327 
L 216.547837 178.00804 
L 217.148342 178.00804 
L 217.148342 175.812396 
L 217.809316 175.812396 
L 217.809316 171.421109 
L 225.121693 171.421109 
L 225.121693 169.225465 
L 225.611539 169.225465 
L 225.611539 164.834178 
L 225.770389 164.834178 
L 225.770389 162.638535 
L 226.05467 162.638535 
L 226.05467 160.442891 
L 226.8177 160.442891 
L 226.8177 158.247248 
L 228.18918 158.247248 
L 228.207457 153.85596 
L 229.347055 153.85596 
L 229.347055 151.660317 
L 229.902887 151.660317 
L 229.902887 149.464673 
L 232.599717 149.464673 
L 232.599717 147.26903 
L 233.28701 147.26903 
L 233.28701 145.073386 
L 233.422512 145.073386 
L 233.422512 140.682099 
L 237.086974 140.682099 
L 237.086974 138.486455 
L 237.202476 138.486455 
L 237.202476 136.290812 
L 242.724217 136.290812 
L 242.724217 131.899525 
L 243.919782 131.899525 
L 243.919782 127.508238 
L 244.873252 127.508238 
L 244.873252 125.312594 
L 246.426529 125.312594 
L 246.426529 123.11695 
L 253.607974 123.11695 
L 253.694543 116.53002 
L 253.799126 116.53002 
L 253.799126 114.334376 
L 255.144332 114.334376 
L 255.213204 109.943089 
L 256.486416 109.943089 
L 256.550715 105.551802 
L 256.787117 105.551802 
L 256.872004 101.160515 
L 258.283871 101.160515 
L 258.297192 96.769228 
L 260.660385 96.769228 
L 260.662924 92.377941 
L 262.97641 92.377941 
L 263.086975 87.986653 
L 263.805832 87.986653 
L 263.888675 83.595366 
L 264.754566 83.595366 
L 264.859954 79.204079 
L 265.259286 79.204079 
L 265.349635 74.812792 
L 265.838466 74.812792 
L 265.839557 70.421505 
L 266.63682 70.421505 
L 266.68297 66.030218 
L 267.747033 66.030218 
L 267.748557 61.638931 
L 272.132144 61.638931 
L 272.135931 57.247644 
L 274.444698 57.247644 
L 274.444698 52.856356 
L 275.226936 52.856356 
L 275.294297 48.465069 
L 277.92261 48.465069 
L 277.934571 44.073782 
L 280.164606 44.073782 
L 280.164606 41.878139 
L 280.308668 41.878139 
L 280.308668 39.682495 
L 282.285731 39.682495 
L 282.285731 37.486851 
L 282.414227 37.486851 
L 282.496379 30.899921 
L 283.949203 30.899921 
L 283.955143 26.508634 
L 287.483015 26.508634 
L 287.504122 22.117347 
L 295.22514 22.117347 
L 295.22514 17.726059 
L 297.583366 17.726059 
L 297.600403 13.334772 
L 297.600403 13.334772 
L 367.82 13.334772 
L 367.82 13.334772 
" style="fill:none;stroke:#00bfbf;stroke-linecap:square;stroke-width:1.5;"/>
   </g>
   <g id="patch_3">
    <path d="M 10.7 276.812 
L 10.7 10.7 
" style="fill:none;stroke:#000000;stroke-linecap:square;stroke-linejoin:miter;stroke-width:0.8;"/>
   </g>
   <g id="patch_4">
    <path d="M 367.82 276.812 
L 367.82 10.7 
" style="fill:none;stroke:#000000;stroke-linecap:square;stroke-linejoin:miter;stroke-width:0.8;"/>
   </g>
   <g id="patch_5">
    <path d="M 10.7 276.812 
L 367.82 276.812 
" style="fill:none;stroke:#000000;stroke-linecap:square;stroke-linejoin:miter;stroke-width:0.8;"/>
   </g>
   <g id="patch_6">
    <path d="M 10.7 10.7 
L 367.82 10.7 
" style="fill:none;stroke:#000000;stroke-linecap:square;stroke-linejoin:miter;stroke-width:0.8;"/>
   </g>
   <g id="text_6">
    <!-- {f6-f9}, 5-D -->
    <defs>
     <path d="M 51.125 -9.28125 
L 51.125 -16.3125 
L 48.09375 -16.3125 
Q 35.9375 -16.3125 31.8125 -12.6875 
Q 27.6875 -9.078125 27.6875 1.703125 
L 27.6875 13.375 
Q 27.6875 20.75 25.046875 23.578125 
Q 22.40625 26.421875 15.484375 26.421875 
L 12.5 26.421875 
L 12.5 33.40625 
L 15.484375 33.40625 
Q 22.46875 33.40625 25.078125 36.203125 
Q 27.6875 39.015625 27.6875 46.296875 
L 27.6875 58.015625 
Q 27.6875 68.796875 31.8125 72.390625 
Q 35.9375 75.984375 48.09375 75.984375 
L 51.125 75.984375 
L 51.125 69 
L 47.796875 69 
Q 40.921875 69 38.8125 66.84375 
Q 36.71875 64.703125 36.71875 57.8125 
L 36.71875 45.703125 
Q 36.71875 38.03125 34.5 34.5625 
Q 32.28125 31.109375 26.90625 29.890625 
Q 32.328125 28.5625 34.515625 25.09375 
Q 36.71875 21.625 36.71875 14.015625 
L 36.71875 1.90625 
Q 36.71875 -4.984375 38.8125 -7.125 
Q 40.921875 -9.28125 47.796875 -9.28125 
z
" id="DejaVuSans-7b"/>
     <path d="M 33.015625 40.375 
Q 26.375 40.375 22.484375 35.828125 
Q 18.609375 31.296875 18.609375 23.390625 
Q 18.609375 15.53125 22.484375 10.953125 
Q 26.375 6.390625 33.015625 6.390625 
Q 39.65625 6.390625 43.53125 10.953125 
Q 47.40625 15.53125 47.40625 23.390625 
Q 47.40625 31.296875 43.53125 35.828125 
Q 39.65625 40.375 33.015625 40.375 
M 52.59375 71.296875 
L 52.59375 62.3125 
Q 48.875 64.0625 45.09375 64.984375 
Q 41.3125 65.921875 37.59375 65.921875 
Q 27.828125 65.921875 22.671875 59.328125 
Q 17.53125 52.734375 16.796875 39.40625 
Q 19.671875 43.65625 24.015625 45.921875 
Q 28.375 48.1875 33.59375 48.1875 
Q 44.578125 48.1875 50.953125 41.515625 
Q 57.328125 34.859375 57.328125 23.390625 
Q 57.328125 12.15625 50.6875 5.359375 
Q 44.046875 -1.421875 33.015625 -1.421875 
Q 20.359375 -1.421875 13.671875 8.265625 
Q 6.984375 17.96875 6.984375 36.375 
Q 6.984375 53.65625 15.1875 63.9375 
Q 23.390625 74.21875 37.203125 74.21875 
Q 40.921875 74.21875 44.703125 73.484375 
Q 48.484375 72.75 52.59375 71.296875 
" id="DejaVuSans-36"/>
     <path d="M 10.984375 1.515625 
L 10.984375 10.5 
Q 14.703125 8.734375 18.5 7.8125 
Q 22.3125 6.890625 25.984375 6.890625 
Q 35.75 6.890625 40.890625 13.453125 
Q 46.046875 20.015625 46.78125 33.40625 
Q 43.953125 29.203125 39.59375 26.953125 
Q 35.25 24.703125 29.984375 24.703125 
Q 19.046875 24.703125 12.671875 31.3125 
Q 6.296875 37.9375 6.296875 49.421875 
Q 6.296875 60.640625 12.9375 67.421875 
Q 19.578125 74.21875 30.609375 74.21875 
Q 43.265625 74.21875 49.921875 64.515625 
Q 56.59375 54.828125 56.59375 36.375 
Q 56.59375 19.140625 48.40625 8.859375 
Q 40.234375 -1.421875 26.421875 -1.421875 
Q 22.703125 -1.421875 18.890625 -0.6875 
Q 15.09375 0.046875 10.984375 1.515625 
M 30.609375 32.421875 
Q 37.25 32.421875 41.125 36.953125 
Q 45.015625 41.5 45.015625 49.421875 
Q 45.015625 57.28125 41.125 61.84375 
Q 37.25 66.40625 30.609375 66.40625 
Q 23.96875 66.40625 20.09375 61.84375 
Q 16.21875 57.28125 16.21875 49.421875 
Q 16.21875 41.5 20.09375 36.953125 
Q 23.96875 32.421875 30.609375 32.421875 
" id="DejaVuSans-39"/>
     <path d="M 12.5 -9.28125 
L 15.921875 -9.28125 
Q 22.75 -9.28125 24.828125 -7.171875 
Q 26.90625 -5.078125 26.90625 1.90625 
L 26.90625 14.015625 
Q 26.90625 21.625 29.09375 25.09375 
Q 31.296875 28.5625 36.71875 29.890625 
Q 31.296875 31.109375 29.09375 34.5625 
Q 26.90625 38.03125 26.90625 45.703125 
L 26.90625 57.8125 
Q 26.90625 64.75 24.828125 66.875 
Q 22.75 69 15.921875 69 
L 12.5 69 
L 12.5 75.984375 
L 15.578125 75.984375 
Q 27.734375 75.984375 31.8125 72.390625 
Q 35.890625 68.796875 35.890625 58.015625 
L 35.890625 46.296875 
Q 35.890625 39.015625 38.515625 36.203125 
Q 41.15625 33.40625 48.09375 33.40625 
L 51.125 33.40625 
L 51.125 26.421875 
L 48.09375 26.421875 
Q 41.15625 26.421875 38.515625 23.578125 
Q 35.890625 20.75 35.890625 13.375 
L 35.890625 1.703125 
Q 35.890625 -9.078125 31.8125 -12.6875 
Q 27.734375 -16.3125 15.578125 -16.3125 
L 12.5 -16.3125 
z
" id="DejaVuSans-7d"/>
     <path d="M 11.71875 12.40625 
L 22.015625 12.40625 
L 22.015625 4 
L 14.015625 -11.625 
L 7.71875 -11.625 
L 11.71875 4 
z
" id="DejaVuSans-2c"/>
     <path d="M 10.796875 72.90625 
L 49.515625 72.90625 
L 49.515625 64.59375 
L 19.828125 64.59375 
L 19.828125 46.734375 
Q 21.96875 47.46875 24.109375 47.828125 
Q 26.265625 48.1875 28.421875 48.1875 
Q 40.625 48.1875 47.75 41.5 
Q 54.890625 34.8125 54.890625 23.390625 
Q 54.890625 11.625 47.5625 5.09375 
Q 40.234375 -1.421875 26.90625 -1.421875 
Q 22.3125 -1.421875 17.546875 -0.640625 
Q 12.796875 0.140625 7.71875 1.703125 
L 7.71875 11.625 
Q 12.109375 9.234375 16.796875 8.0625 
Q 21.484375 6.890625 26.703125 6.890625 
Q 35.15625 6.890625 40.078125 11.328125 
Q 45.015625 15.765625 45.015625 23.390625 
Q 45.015625 31 40.078125 35.4375 
Q 35.15625 39.890625 26.703125 39.890625 
Q 22.75 39.890625 18.8125 39.015625 
Q 14.890625 38.140625 10.796875 36.28125 
z
" id="DejaVuSans-35"/>
    </defs>
    <g transform="translate(240.4276 271.48976)scale(0.2 -0.2)">
     <use xlink:href="#DejaVuSans-7b"/>
     <use x="63.623047" xlink:href="#DejaVuSans-66"/>
     <use x="98.828125" xlink:href="#DejaVuSans-36"/>
     <use x="162.451172" xlink:href="#DejaVuSans-2d"/>
     <use x="198.535156" xlink:href="#DejaVuSans-66"/>
     <use x="233.740234" xlink:href="#DejaVuSans-39"/>
     <use x="297.363281" xlink:href="#DejaVuSans-7d"/>
     <use x="360.986328" xlink:href="#DejaVuSans-2c"/>
     <use x="392.773438" xlink:href="#DejaVuSans-20"/>
     <use x="424.560547" xlink:href="#DejaVuSans-35"/>
     <use x="488.183594" xlink:href="#DejaVuSans-2d"/>
     <use x="524.267578" xlink:href="#DejaVuSans-44"/>
    </g>
   </g>
   <g id="text_7">
    <!-- v2.1 -->
    <defs>
     <path d="M 2.984375 54.6875 
L 12.5 54.6875 
L 29.59375 8.796875 
L 46.6875 54.6875 
L 56.203125 54.6875 
L 35.6875 0 
L 23.484375 0 
z
" id="DejaVuSans-76"/>
     <path d="M 19.1875 8.296875 
L 53.609375 8.296875 
L 53.609375 0 
L 7.328125 0 
L 7.328125 8.296875 
Q 12.9375 14.109375 22.625 23.890625 
Q 32.328125 33.6875 34.8125 36.53125 
Q 39.546875 41.84375 41.421875 45.53125 
Q 43.3125 49.21875 43.3125 52.78125 
Q 43.3125 58.59375 39.234375 62.25 
Q 35.15625 65.921875 28.609375 65.921875 
Q 23.96875 65.921875 18.8125 64.3125 
Q 13.671875 62.703125 7.8125 59.421875 
L 7.8125 69.390625 
Q 13.765625 71.78125 18.9375 73 
Q 24.125 74.21875 28.421875 74.21875 
Q 39.75 74.21875 46.484375 68.546875 
Q 53.21875 62.890625 53.21875 53.421875 
Q 53.21875 48.921875 51.53125 44.890625 
Q 49.859375 40.875 45.40625 35.40625 
Q 44.1875 33.984375 37.640625 27.21875 
Q 31.109375 20.453125 19.1875 8.296875 
" id="DejaVuSans-32"/>
     <path d="M 10.6875 12.40625 
L 21 12.40625 
L 21 0 
L 10.6875 0 
z
" id="DejaVuSans-2e"/>
    </defs>
    <g style="fill:#808080;" transform="translate(178.349063 272.071193)scale(0.1 -0.1)">
     <use xlink:href="#DejaVuSans-76"/>
     <use x="59.179688" xlink:href="#DejaVuSans-32"/>
     <use x="122.802734" xlink:href="#DejaVuSans-2e"/>
     <use x="154.589844" xlink:href="#DejaVuSans-31"/>
    </g>
   </g>
  </g>
 </g>
 <defs>
  <clipPath id="p831e1f36c8">
   <rect height="266.112" width="357.12" x="10.7" y="10.7"/>
  </clipPath>
 </defs>
</svg>
