<?xml version="1.0" encoding="utf-8" standalone="no"?>
<!DOCTYPE svg PUBLIC "-//W3C//DTD SVG 1.1//EN"
  "http://www.w3.org/Graphics/SVG/1.1/DTD/svg11.dtd">
<!-- Created with matplotlib (http://matplotlib.org/) -->
<svg height="333pt" version="1.1" viewBox="0 0 378 333" width="378pt" xmlns="http://www.w3.org/2000/svg" xmlns:xlink="http://www.w3.org/1999/xlink">
 <defs>
  <style type="text/css">
*{stroke-linecap:butt;stroke-linejoin:round;}
  </style>
 </defs>
 <g id="figure_1">
  <g id="patch_1">
   <path d="M 0 333.7245 
L 378.52 333.7245 
L 378.52 0 
L 0 0 
z
" style="fill:#ffffff;"/>
  </g>
  <g id="axes_1">
   <g id="patch_2">
    <path d="M 10.7 276.812 
L 367.82 276.812 
L 367.82 10.7 
L 10.7 10.7 
z
" style="fill:#ffffff;"/>
   </g>
   <g id="matplotlib.axis_1">
    <g id="xtick_1">
     <g id="line2d_1">
      <path clip-path="url(#p7be3ddfd6c)" d="M 10.609821 276.812 
L 10.609821 10.7 
" style="fill:none;stroke:#b0b0b0;stroke-linecap:square;stroke-width:0.8;"/>
     </g>
     <g id="line2d_2">
      <defs>
       <path d="M 0 0 
L 0 3.5 
" id="mb452ba7d59" style="stroke:#000000;stroke-width:0.8;"/>
      </defs>
      <g>
       <use style="stroke:#000000;stroke-width:0.8;" x="10.609821" xlink:href="#mb452ba7d59" y="276.812"/>
      </g>
     </g>
    </g>
    <g id="xtick_2">
     <g id="line2d_3">
      <path clip-path="url(#p7be3ddfd6c)" d="M 94.082517 276.812 
L 94.082517 10.7 
" style="fill:none;stroke:#b0b0b0;stroke-linecap:square;stroke-width:0.8;"/>
     </g>
     <g id="line2d_4">
      <g>
       <use style="stroke:#000000;stroke-width:0.8;" x="94.082517" xlink:href="#mb452ba7d59" y="276.812"/>
      </g>
     </g>
     <g id="text_1">
      <!-- -4 -->
      <defs>
       <path d="M 4.890625 31.390625 
L 31.203125 31.390625 
L 31.203125 23.390625 
L 4.890625 23.390625 
z
" id="DejaVuSans-2d"/>
       <path d="M 37.796875 64.3125 
L 12.890625 25.390625 
L 37.796875 25.390625 
z
M 35.203125 72.90625 
L 47.609375 72.90625 
L 47.609375 25.390625 
L 58.015625 25.390625 
L 58.015625 17.1875 
L 47.609375 17.1875 
L 47.609375 0 
L 37.796875 0 
L 37.796875 17.1875 
L 4.890625 17.1875 
L 4.890625 26.703125 
z
" id="DejaVuSans-34"/>
      </defs>
      <g transform="translate(84.112204 299.008875)scale(0.2 -0.2)">
       <use xlink:href="#DejaVuSans-2d"/>
       <use x="36.083984" xlink:href="#DejaVuSans-34"/>
      </g>
     </g>
    </g>
    <g id="xtick_3">
     <g id="line2d_5">
      <path clip-path="url(#p7be3ddfd6c)" d="M 177.555212 276.812 
L 177.555212 10.7 
" style="fill:none;stroke:#b0b0b0;stroke-linecap:square;stroke-width:0.8;"/>
     </g>
     <g id="line2d_6">
      <g>
       <use style="stroke:#000000;stroke-width:0.8;" x="177.555212" xlink:href="#mb452ba7d59" y="276.812"/>
      </g>
     </g>
     <g id="text_2">
      <!-- 0 -->
      <defs>
       <path d="M 31.78125 66.40625 
Q 24.171875 66.40625 20.328125 58.90625 
Q 16.5 51.421875 16.5 36.375 
Q 16.5 21.390625 20.328125 13.890625 
Q 24.171875 6.390625 31.78125 6.390625 
Q 39.453125 6.390625 43.28125 13.890625 
Q 47.125 21.390625 47.125 36.375 
Q 47.125 51.421875 43.28125 58.90625 
Q 39.453125 66.40625 31.78125 66.40625 
M 31.78125 74.21875 
Q 44.046875 74.21875 50.515625 64.515625 
Q 56.984375 54.828125 56.984375 36.375 
Q 56.984375 17.96875 50.515625 8.265625 
Q 44.046875 -1.421875 31.78125 -1.421875 
Q 19.53125 -1.421875 13.0625 8.265625 
Q 6.59375 17.96875 6.59375 36.375 
Q 6.59375 54.828125 13.0625 64.515625 
Q 19.53125 74.21875 31.78125 74.21875 
" id="DejaVuSans-30"/>
      </defs>
      <g transform="translate(171.192712 299.008875)scale(0.2 -0.2)">
       <use xlink:href="#DejaVuSans-30"/>
      </g>
     </g>
    </g>
    <g id="xtick_4">
     <g id="line2d_7">
      <path clip-path="url(#p7be3ddfd6c)" d="M 261.027908 276.812 
L 261.027908 10.7 
" style="fill:none;stroke:#b0b0b0;stroke-linecap:square;stroke-width:0.8;"/>
     </g>
     <g id="line2d_8">
      <g>
       <use style="stroke:#000000;stroke-width:0.8;" x="261.027908" xlink:href="#mb452ba7d59" y="276.812"/>
      </g>
     </g>
     <g id="text_3">
      <!-- 4 -->
      <g transform="translate(254.665408 299.008875)scale(0.2 -0.2)">
       <use xlink:href="#DejaVuSans-34"/>
      </g>
     </g>
    </g>
    <g id="xtick_5">
     <g id="line2d_9">
      <path clip-path="url(#p7be3ddfd6c)" d="M 344.500604 276.812 
L 344.500604 10.7 
" style="fill:none;stroke:#b0b0b0;stroke-linecap:square;stroke-width:0.8;"/>
     </g>
     <g id="line2d_10">
      <g>
       <use style="stroke:#000000;stroke-width:0.8;" x="344.500604" xlink:href="#mb452ba7d59" y="276.812"/>
      </g>
     </g>
     <g id="text_4">
      <!-- 8 -->
      <defs>
       <path d="M 31.78125 34.625 
Q 24.75 34.625 20.71875 30.859375 
Q 16.703125 27.09375 16.703125 20.515625 
Q 16.703125 13.921875 20.71875 10.15625 
Q 24.75 6.390625 31.78125 6.390625 
Q 38.8125 6.390625 42.859375 10.171875 
Q 46.921875 13.96875 46.921875 20.515625 
Q 46.921875 27.09375 42.890625 30.859375 
Q 38.875 34.625 31.78125 34.625 
M 21.921875 38.8125 
Q 15.578125 40.375 12.03125 44.71875 
Q 8.5 49.078125 8.5 55.328125 
Q 8.5 64.0625 14.71875 69.140625 
Q 20.953125 74.21875 31.78125 74.21875 
Q 42.671875 74.21875 48.875 69.140625 
Q 55.078125 64.0625 55.078125 55.328125 
Q 55.078125 49.078125 51.53125 44.71875 
Q 48 40.375 41.703125 38.8125 
Q 48.828125 37.15625 52.796875 32.3125 
Q 56.78125 27.484375 56.78125 20.515625 
Q 56.78125 9.90625 50.3125 4.234375 
Q 43.84375 -1.421875 31.78125 -1.421875 
Q 19.734375 -1.421875 13.25 4.234375 
Q 6.78125 9.90625 6.78125 20.515625 
Q 6.78125 27.484375 10.78125 32.3125 
Q 14.796875 37.15625 21.921875 38.8125 
M 18.3125 54.390625 
Q 18.3125 48.734375 21.84375 45.5625 
Q 25.390625 42.390625 31.78125 42.390625 
Q 38.140625 42.390625 41.71875 45.5625 
Q 45.3125 48.734375 45.3125 54.390625 
Q 45.3125 60.0625 41.71875 63.234375 
Q 38.140625 66.40625 31.78125 66.40625 
Q 25.390625 66.40625 21.84375 63.234375 
Q 18.3125 60.0625 18.3125 54.390625 
" id="DejaVuSans-38"/>
      </defs>
      <g transform="translate(338.138104 299.008875)scale(0.2 -0.2)">
       <use xlink:href="#DejaVuSans-38"/>
      </g>
     </g>
    </g>
    <g id="text_5">
     <!-- log10 of Df -->
     <defs>
      <path d="M 9.421875 75.984375 
L 18.40625 75.984375 
L 18.40625 0 
L 9.421875 0 
z
" id="DejaVuSans-6c"/>
      <path d="M 30.609375 48.390625 
Q 23.390625 48.390625 19.1875 42.75 
Q 14.984375 37.109375 14.984375 27.296875 
Q 14.984375 17.484375 19.15625 11.84375 
Q 23.34375 6.203125 30.609375 6.203125 
Q 37.796875 6.203125 41.984375 11.859375 
Q 46.1875 17.53125 46.1875 27.296875 
Q 46.1875 37.015625 41.984375 42.703125 
Q 37.796875 48.390625 30.609375 48.390625 
M 30.609375 56 
Q 42.328125 56 49.015625 48.375 
Q 55.71875 40.765625 55.71875 27.296875 
Q 55.71875 13.875 49.015625 6.21875 
Q 42.328125 -1.421875 30.609375 -1.421875 
Q 18.84375 -1.421875 12.171875 6.21875 
Q 5.515625 13.875 5.515625 27.296875 
Q 5.515625 40.765625 12.171875 48.375 
Q 18.84375 56 30.609375 56 
" id="DejaVuSans-6f"/>
      <path d="M 45.40625 27.984375 
Q 45.40625 37.75 41.375 43.109375 
Q 37.359375 48.484375 30.078125 48.484375 
Q 22.859375 48.484375 18.828125 43.109375 
Q 14.796875 37.75 14.796875 27.984375 
Q 14.796875 18.265625 18.828125 12.890625 
Q 22.859375 7.515625 30.078125 7.515625 
Q 37.359375 7.515625 41.375 12.890625 
Q 45.40625 18.265625 45.40625 27.984375 
M 54.390625 6.78125 
Q 54.390625 -7.171875 48.1875 -13.984375 
Q 42 -20.796875 29.203125 -20.796875 
Q 24.46875 -20.796875 20.265625 -20.09375 
Q 16.0625 -19.390625 12.109375 -17.921875 
L 12.109375 -9.1875 
Q 16.0625 -11.328125 19.921875 -12.34375 
Q 23.78125 -13.375 27.78125 -13.375 
Q 36.625 -13.375 41.015625 -8.765625 
Q 45.40625 -4.15625 45.40625 5.171875 
L 45.40625 9.625 
Q 42.625 4.78125 38.28125 2.390625 
Q 33.9375 0 27.875 0 
Q 17.828125 0 11.671875 7.65625 
Q 5.515625 15.328125 5.515625 27.984375 
Q 5.515625 40.671875 11.671875 48.328125 
Q 17.828125 56 27.875 56 
Q 33.9375 56 38.28125 53.609375 
Q 42.625 51.21875 45.40625 46.390625 
L 45.40625 54.6875 
L 54.390625 54.6875 
z
" id="DejaVuSans-67"/>
      <path d="M 12.40625 8.296875 
L 28.515625 8.296875 
L 28.515625 63.921875 
L 10.984375 60.40625 
L 10.984375 69.390625 
L 28.421875 72.90625 
L 38.28125 72.90625 
L 38.28125 8.296875 
L 54.390625 8.296875 
L 54.390625 0 
L 12.40625 0 
z
" id="DejaVuSans-31"/>
      <path id="DejaVuSans-20"/>
      <path d="M 37.109375 75.984375 
L 37.109375 68.5 
L 28.515625 68.5 
Q 23.6875 68.5 21.796875 66.546875 
Q 19.921875 64.59375 19.921875 59.515625 
L 19.921875 54.6875 
L 34.71875 54.6875 
L 34.71875 47.703125 
L 19.921875 47.703125 
L 19.921875 0 
L 10.890625 0 
L 10.890625 47.703125 
L 2.296875 47.703125 
L 2.296875 54.6875 
L 10.890625 54.6875 
L 10.890625 58.5 
Q 10.890625 67.625 15.140625 71.796875 
Q 19.390625 75.984375 28.609375 75.984375 
z
" id="DejaVuSans-66"/>
      <path d="M 19.671875 64.796875 
L 19.671875 8.109375 
L 31.59375 8.109375 
Q 46.6875 8.109375 53.6875 14.9375 
Q 60.6875 21.78125 60.6875 36.53125 
Q 60.6875 51.171875 53.6875 57.984375 
Q 46.6875 64.796875 31.59375 64.796875 
z
M 9.8125 72.90625 
L 30.078125 72.90625 
Q 51.265625 72.90625 61.171875 64.09375 
Q 71.09375 55.28125 71.09375 36.53125 
Q 71.09375 17.671875 61.125 8.828125 
Q 51.171875 0 30.078125 0 
L 9.8125 0 
z
" id="DejaVuSans-44"/>
     </defs>
     <g transform="translate(134.074063 322.365125)scale(0.2 -0.2)">
      <use xlink:href="#DejaVuSans-6c"/>
      <use x="27.783203" xlink:href="#DejaVuSans-6f"/>
      <use x="88.964844" xlink:href="#DejaVuSans-67"/>
      <use x="152.441406" xlink:href="#DejaVuSans-31"/>
      <use x="216.064453" xlink:href="#DejaVuSans-30"/>
      <use x="279.6875" xlink:href="#DejaVuSans-20"/>
      <use x="311.474609" xlink:href="#DejaVuSans-6f"/>
      <use x="372.65625" xlink:href="#DejaVuSans-66"/>
      <use x="407.861328" xlink:href="#DejaVuSans-20"/>
      <use x="439.648438" xlink:href="#DejaVuSans-44"/>
      <use x="516.650391" xlink:href="#DejaVuSans-66"/>
     </g>
    </g>
   </g>
   <g id="matplotlib.axis_2">
    <g id="ytick_1">
     <g id="line2d_11">
      <path clip-path="url(#p7be3ddfd6c)" d="M 10.7 276.812 
L 367.82 276.812 
" style="fill:none;stroke:#b0b0b0;stroke-linecap:square;stroke-width:0.8;"/>
     </g>
     <g id="line2d_12">
      <defs>
       <path d="M 0 0 
L -3.5 0 
" id="meefaf18f61" style="stroke:#000000;stroke-width:0.8;"/>
      </defs>
      <g>
       <use style="stroke:#000000;stroke-width:0.8;" x="10.7" xlink:href="#meefaf18f61" y="276.812"/>
      </g>
     </g>
    </g>
    <g id="ytick_2">
     <g id="line2d_13">
      <path clip-path="url(#p7be3ddfd6c)" d="M 10.7 224.116554 
L 367.82 224.116554 
" style="fill:none;stroke:#b0b0b0;stroke-linecap:square;stroke-width:0.8;"/>
     </g>
     <g id="line2d_14">
      <g>
       <use style="stroke:#000000;stroke-width:0.8;" x="10.7" xlink:href="#meefaf18f61" y="224.116554"/>
      </g>
     </g>
    </g>
    <g id="ytick_3">
     <g id="line2d_15">
      <path clip-path="url(#p7be3ddfd6c)" d="M 10.7 171.421109 
L 367.82 171.421109 
" style="fill:none;stroke:#b0b0b0;stroke-linecap:square;stroke-width:0.8;"/>
     </g>
     <g id="line2d_16">
      <g>
       <use style="stroke:#000000;stroke-width:0.8;" x="10.7" xlink:href="#meefaf18f61" y="171.421109"/>
      </g>
     </g>
    </g>
    <g id="ytick_4">
     <g id="line2d_17">
      <path clip-path="url(#p7be3ddfd6c)" d="M 10.7 118.725663 
L 367.82 118.725663 
" style="fill:none;stroke:#b0b0b0;stroke-linecap:square;stroke-width:0.8;"/>
     </g>
     <g id="line2d_18">
      <g>
       <use style="stroke:#000000;stroke-width:0.8;" x="10.7" xlink:href="#meefaf18f61" y="118.725663"/>
      </g>
     </g>
    </g>
    <g id="ytick_5">
     <g id="line2d_19">
      <path clip-path="url(#p7be3ddfd6c)" d="M 10.7 66.030218 
L 367.82 66.030218 
" style="fill:none;stroke:#b0b0b0;stroke-linecap:square;stroke-width:0.8;"/>
     </g>
     <g id="line2d_20">
      <g>
       <use style="stroke:#000000;stroke-width:0.8;" x="10.7" xlink:href="#meefaf18f61" y="66.030218"/>
      </g>
     </g>
    </g>
    <g id="ytick_6">
     <g id="line2d_21">
      <path clip-path="url(#p7be3ddfd6c)" d="M 10.7 13.334772 
L 367.82 13.334772 
" style="fill:none;stroke:#b0b0b0;stroke-linecap:square;stroke-width:0.8;"/>
     </g>
     <g id="line2d_22">
      <g>
       <use style="stroke:#000000;stroke-width:0.8;" x="10.7" xlink:href="#meefaf18f61" y="13.334772"/>
      </g>
     </g>
    </g>
   </g>
   <g id="line2d_23">
    <path clip-path="url(#p7be3ddfd6c)" d="M 169.578429 276.812 
L 169.578429 275.055485 
L 171.471926 275.055485 
L 171.471926 273.29897 
L 171.622844 273.29897 
L 171.622844 271.542455 
L 172.127276 271.542455 
L 172.127276 269.785941 
L 173.141506 269.785941 
L 173.141506 268.029426 
L 173.986434 268.029426 
L 174.004199 264.516396 
L 174.111267 264.516396 
L 174.111267 262.759881 
L 174.454273 262.759881 
L 174.54954 259.246851 
L 174.682735 259.246851 
L 174.791928 255.733822 
L 174.94081 255.733822 
L 174.987253 252.220792 
L 175.241226 252.220792 
L 175.241226 250.464277 
L 175.360575 250.464277 
L 175.360575 248.707762 
L 175.607066 248.707762 
L 175.649023 245.194733 
L 176.109033 245.194733 
L 176.144897 239.925188 
L 176.409179 239.925188 
L 176.44213 236.412158 
L 176.613739 236.412158 
L 176.626357 232.899129 
L 177.190379 232.899129 
L 177.190379 231.142614 
L 177.325161 231.142614 
L 177.362437 227.629584 
L 177.66887 227.629584 
L 177.66887 225.873069 
L 177.839382 225.873069 
L 177.839382 224.116554 
L 179.588121 224.116554 
L 179.588121 222.36004 
L 179.863396 222.36004 
L 179.863396 220.603525 
L 183.113799 220.603525 
L 183.201015 217.090495 
L 185.757076 217.090495 
L 185.757076 215.33398 
L 185.974955 215.33398 
L 185.974955 213.577465 
L 186.570362 213.577465 
L 186.570362 211.82095 
L 186.904605 211.82095 
L 186.904605 210.064436 
L 187.254953 210.064436 
L 187.345583 204.794891 
L 187.726732 204.794891 
L 187.726732 203.038376 
L 192.693713 203.038376 
L 192.703753 199.525347 
L 195.582553 199.525347 
L 195.672168 196.012317 
L 199.408446 196.012317 
L 199.408446 194.255802 
L 200.198401 194.255802 
L 200.2748 190.742772 
L 201.470347 190.742772 
L 201.577551 181.960198 
L 201.88406 181.960198 
L 201.88406 180.203683 
L 202.287226 180.203683 
L 202.287226 178.447168 
L 202.478479 178.447168 
L 202.520766 174.934139 
L 202.881295 174.934139 
L 202.881295 173.177624 
L 203.825132 173.177624 
L 203.825132 171.421109 
L 204.680488 171.421109 
L 204.680488 169.664594 
L 204.864523 169.664594 
L 204.864523 167.908079 
L 205.163846 167.908079 
L 205.17344 164.39505 
L 205.40992 164.39505 
L 205.474089 160.88202 
L 205.56583 160.88202 
L 205.666642 153.85596 
L 205.713285 153.85596 
L 205.758666 146.829901 
L 205.961753 146.829901 
L 206.010373 143.316871 
L 206.18526 143.316871 
L 206.18526 141.560356 
L 206.505918 141.560356 
L 206.612983 138.047327 
L 206.646179 138.047327 
L 206.728224 134.534297 
L 206.786255 134.534297 
L 206.832263 129.264752 
L 207.018563 129.264752 
L 207.122672 123.995208 
L 207.215437 123.995208 
L 207.324336 116.969149 
L 207.4789 116.969149 
L 207.569928 113.456119 
L 207.645733 113.456119 
L 207.645733 111.699604 
L 207.817586 111.699604 
L 207.846784 108.186574 
L 208.407734 108.186574 
L 208.483924 104.673545 
L 209.016663 104.673545 
L 209.016663 102.91703 
L 209.157736 102.91703 
L 209.222986 99.404 
L 209.274721 99.404 
L 209.274721 97.647485 
L 210.330975 97.647485 
L 210.356121 94.134455 
L 210.665846 94.134455 
L 210.665846 92.377941 
L 210.882076 92.377941 
L 210.882076 90.621426 
L 211.025596 90.621426 
L 211.038849 87.108396 
L 211.69134 87.108396 
L 211.715091 83.595366 
L 212.691733 83.595366 
L 212.704658 80.082337 
L 213.535335 80.082337 
L 213.536696 76.569307 
L 213.661967 76.569307 
L 213.705893 73.056277 
L 214.221988 73.056277 
L 214.221988 71.299762 
L 214.462331 71.299762 
L 214.462331 69.543248 
L 214.698658 69.543248 
L 214.753532 62.517188 
L 215.312169 62.517188 
L 215.312169 60.760673 
L 215.466381 60.760673 
L 215.466381 59.004158 
L 216.17695 59.004158 
L 216.183111 55.491129 
L 216.344079 55.491129 
L 216.39228 48.465069 
L 234.975643 48.465069 
L 235.077121 43.195525 
L 235.211138 43.195525 
L 235.211138 41.43901 
L 241.824466 41.43901 
L 241.849459 37.92598 
L 251.326285 37.92598 
L 251.352188 27.386891 
L 256.342801 27.386891 
L 256.396081 20.360832 
L 257.252027 20.360832 
L 257.252027 13.334772 
L 257.252027 13.334772 
L 367.82 13.334772 
L 367.82 13.334772 
" style="fill:none;stroke:#ff0000;stroke-linecap:square;stroke-width:3;"/>
   </g>
   <g id="line2d_24">
    <path clip-path="url(#p7be3ddfd6c)" d="M 186.134349 276.812 
L 186.134349 275.055485 
L 190.246047 275.055485 
L 190.246047 273.29897 
L 194.145416 273.29897 
L 194.230991 269.785941 
L 194.552187 269.785941 
L 194.552187 268.029426 
L 194.816769 268.029426 
L 194.816769 264.516396 
L 195.034334 264.516396 
L 195.034334 261.003366 
L 197.084029 261.003366 
L 197.084029 259.246851 
L 198.173006 259.246851 
L 198.173006 255.733822 
L 198.427894 255.733822 
L 198.427894 253.977307 
L 198.970975 253.977307 
L 198.970975 250.464277 
L 200.37955 250.464277 
L 200.37955 246.951248 
L 200.922794 246.951248 
L 200.922794 245.194733 
L 201.234598 245.194733 
L 201.234598 241.681703 
L 201.766529 241.681703 
L 201.766529 239.925188 
L 202.450408 239.925188 
L 202.450408 236.412158 
L 202.710915 236.412158 
L 202.710915 234.655644 
L 202.886323 234.655644 
L 202.886323 232.899129 
L 203.437531 232.899129 
L 203.437531 231.142614 
L 203.596474 231.142614 
L 203.596474 229.386099 
L 204.559056 229.386099 
L 204.559056 227.629584 
L 204.758923 227.629584 
L 204.791192 224.116554 
L 205.527422 224.116554 
L 205.527422 222.36004 
L 206.37361 222.36004 
L 206.37361 220.603525 
L 207.015763 220.603525 
L 207.015763 218.84701 
L 207.534324 218.84701 
L 207.534324 217.090495 
L 208.331832 217.090495 
L 208.331832 215.33398 
L 209.051658 215.33398 
L 209.051658 211.82095 
L 209.30952 211.82095 
L 209.30952 210.064436 
L 209.547525 210.064436 
L 209.658443 203.038376 
L 210.060165 203.038376 
L 210.060165 201.281861 
L 211.723019 201.281861 
L 211.723019 199.525347 
L 211.978673 199.525347 
L 211.978673 196.012317 
L 212.149736 196.012317 
L 212.149736 194.255802 
L 212.406792 194.255802 
L 212.406792 190.742772 
L 212.967686 190.742772 
L 212.967686 188.986257 
L 213.344897 188.986257 
L 213.344897 187.229743 
L 213.462566 187.229743 
L 213.462566 185.473228 
L 213.784995 185.473228 
L 213.784995 181.960198 
L 213.901116 181.960198 
L 214.000175 176.690653 
L 214.020881 176.690653 
L 214.054559 171.421109 
L 214.170451 171.421109 
L 214.254895 167.908079 
L 214.456606 167.908079 
L 214.456606 164.39505 
L 214.59218 164.39505 
L 214.63746 159.125505 
L 214.783665 159.125505 
L 214.81523 155.612475 
L 214.916561 155.612475 
L 214.916561 153.85596 
L 215.154249 153.85596 
L 215.161955 150.342931 
L 215.314276 150.342931 
L 215.409283 146.829901 
L 215.449928 146.829901 
L 215.55111 138.047327 
L 215.581959 138.047327 
L 215.68807 131.021267 
L 215.805719 131.021267 
L 215.909549 123.995208 
L 215.969069 123.995208 
L 215.979695 118.725663 
L 216.145711 118.725663 
L 216.167405 115.212634 
L 216.278994 115.212634 
L 216.323778 106.430059 
L 216.411544 106.430059 
L 216.487127 99.404 
L 216.528636 99.404 
L 216.571945 92.377941 
L 216.748455 92.377941 
L 216.831454 85.351881 
L 216.905114 85.351881 
L 216.955161 81.838851 
L 217.026156 81.838851 
L 217.129907 78.325822 
L 217.218528 78.325822 
L 217.288157 74.812792 
L 217.889628 74.812792 
L 217.994909 69.543248 
L 218.166147 69.543248 
L 218.255905 66.030218 
L 225.237809 66.030218 
L 225.237809 64.273703 
L 239.895116 64.273703 
L 239.895116 62.517188 
L 241.065478 62.517188 
L 241.065478 60.760673 
L 241.455986 60.760673 
L 241.455986 59.004158 
L 243.798075 59.004158 
L 243.798075 57.247644 
L 243.931449 57.247644 
L 243.931449 55.491129 
L 245.259282 55.491129 
L 245.259282 53.734614 
L 247.901168 53.734614 
L 247.901168 51.978099 
L 248.551486 51.978099 
L 248.551486 50.221584 
L 248.706631 50.221584 
L 248.77971 46.708554 
L 253.005333 46.708554 
L 253.072034 41.43901 
L 255.412175 41.43901 
L 255.412175 39.682495 
L 256.622743 39.682495 
L 256.622743 37.92598 
L 257.252027 37.92598 
L 257.252027 13.334772 
L 257.252027 13.334772 
L 367.82 13.334772 
L 367.82 13.334772 
" style="fill:none;stroke:#00bfbf;stroke-linecap:square;stroke-width:1.5;"/>
   </g>
   <g id="line2d_25">
    <path clip-path="url(#p7be3ddfd6c)" d="M 186.134349 276.812 
L 186.134349 275.055485 
L 190.246047 275.055485 
L 190.246047 273.29897 
L 191.77561 273.29897 
L 191.77561 271.542455 
L 194.145416 271.542455 
L 194.230991 268.029426 
L 194.552187 268.029426 
L 194.552187 266.272911 
L 194.803667 266.272911 
L 194.816769 261.003366 
L 195.034334 261.003366 
L 195.034334 257.490337 
L 195.249688 257.490337 
L 195.303422 253.977307 
L 197.04272 253.977307 
L 197.04272 252.220792 
L 197.469561 252.220792 
L 197.469561 250.464277 
L 198.131187 250.464277 
L 198.173006 246.951248 
L 198.427894 246.951248 
L 198.427894 245.194733 
L 198.557577 245.194733 
L 198.639714 241.681703 
L 198.842794 241.681703 
L 198.842794 239.925188 
L 198.970975 239.925188 
L 198.970975 236.412158 
L 199.346381 236.412158 
L 199.447085 232.899129 
L 200.073412 232.899129 
L 200.133328 227.629584 
L 200.248134 227.629584 
L 200.248134 225.873069 
L 200.37955 225.873069 
L 200.37955 224.116554 
L 200.922794 224.116554 
L 200.922794 222.36004 
L 201.128751 222.36004 
L 201.128751 220.603525 
L 201.885954 220.603525 
L 201.885954 218.84701 
L 202.151387 218.84701 
L 202.151387 217.090495 
L 202.881666 217.090495 
L 202.898113 213.577465 
L 205.621142 213.577465 
L 205.621142 211.82095 
L 205.878982 211.82095 
L 205.878982 210.064436 
L 208.033258 210.064436 
L 208.033258 208.307921 
L 208.32683 208.307921 
L 208.390674 204.794891 
L 208.863283 204.794891 
L 208.863283 203.038376 
L 209.032125 203.038376 
L 209.051658 199.525347 
L 209.464446 199.525347 
L 209.547525 194.255802 
L 209.658443 194.255802 
L 209.658443 192.499287 
L 210.138668 192.499287 
L 210.242241 188.986257 
L 210.775673 188.986257 
L 210.775673 187.229743 
L 211.054653 187.229743 
L 211.054653 185.473228 
L 211.283718 185.473228 
L 211.376767 181.960198 
L 211.497436 181.960198 
L 211.497436 180.203683 
L 211.715523 180.203683 
L 211.715523 178.447168 
L 211.863978 178.447168 
L 211.863978 176.690653 
L 211.978673 176.690653 
L 211.978673 173.177624 
L 212.149736 173.177624 
L 212.149736 171.421109 
L 212.396833 171.421109 
L 212.396833 169.664594 
L 212.722833 169.664594 
L 212.722833 167.908079 
L 212.921364 167.908079 
L 212.921364 166.151564 
L 213.418364 166.151564 
L 213.503457 160.88202 
L 213.657648 160.88202 
L 213.762431 155.612475 
L 213.901116 155.612475 
L 214.000175 148.586416 
L 214.020881 148.586416 
L 214.039299 141.560356 
L 214.254895 141.560356 
L 214.260341 138.047327 
L 214.393118 138.047327 
L 214.456606 132.777782 
L 214.557451 132.777782 
L 214.63746 125.751723 
L 214.68435 125.751723 
L 214.783665 120.482178 
L 214.809177 120.482178 
L 214.874596 116.969149 
L 215.014051 116.969149 
L 215.071913 111.699604 
L 215.409283 111.699604 
L 215.501481 106.430059 
L 215.55111 106.430059 
L 215.630364 99.404 
L 215.719054 99.404 
L 215.753129 95.89097 
L 215.831911 95.89097 
L 215.934683 87.108396 
L 215.979695 87.108396 
L 215.979695 85.351881 
L 216.145711 85.351881 
L 216.203092 80.082337 
L 216.278994 80.082337 
L 216.284116 74.812792 
L 216.455022 74.812792 
L 216.528636 67.786733 
L 216.748455 67.786733 
L 216.748455 64.273703 
L 217.521285 64.273703 
L 217.521285 62.517188 
L 220.304059 62.517188 
L 220.304059 60.760673 
L 225.237809 60.760673 
L 225.237809 59.004158 
L 229.393791 59.004158 
L 229.393791 57.247644 
L 235.79784 57.247644 
L 235.884675 53.734614 
L 238.533065 53.734614 
L 238.533065 51.978099 
L 240.062886 51.978099 
L 240.062886 50.221584 
L 245.259282 50.221584 
L 245.259282 48.465069 
L 245.427084 48.465069 
L 245.427084 46.708554 
L 246.5474 46.708554 
L 246.5474 44.95204 
L 248.424412 44.95204 
L 248.424412 43.195525 
L 248.77971 43.195525 
L 248.77971 41.43901 
L 249.326571 41.43901 
L 249.326571 39.682495 
L 253.03033 39.682495 
L 253.03033 37.92598 
L 256.137189 37.92598 
L 256.166153 34.41295 
L 257.252027 34.41295 
L 257.252027 13.334772 
L 257.252027 13.334772 
L 367.82 13.334772 
L 367.82 13.334772 
" style="fill:none;stroke:#bf00bf;stroke-linecap:square;stroke-width:1.5;"/>
   </g>
   <g id="line2d_26">
    <path clip-path="url(#p7be3ddfd6c)" d="M 186.134349 276.812 
L 186.134349 275.055485 
L 186.534311 275.055485 
L 186.534311 273.29897 
L 190.246047 273.29897 
L 190.246047 271.542455 
L 191.394033 271.542455 
L 191.394033 269.785941 
L 191.577334 269.785941 
L 191.577334 268.029426 
L 191.77561 268.029426 
L 191.77561 266.272911 
L 192.968925 266.272911 
L 192.968925 264.516396 
L 193.127329 264.516396 
L 193.127329 262.759881 
L 193.354461 262.759881 
L 193.354461 261.003366 
L 193.559201 261.003366 
L 193.559201 259.246851 
L 194.145416 259.246851 
L 194.242512 253.977307 
L 194.374624 253.977307 
L 194.428571 248.707762 
L 194.558667 248.707762 
L 194.558667 246.951248 
L 194.803667 246.951248 
L 194.816769 243.438218 
L 195.034334 243.438218 
L 195.034334 241.681703 
L 195.249688 241.681703 
L 195.249688 239.925188 
L 195.410441 239.925188 
L 195.506941 236.412158 
L 195.566329 236.412158 
L 195.612397 232.899129 
L 196.112848 232.899129 
L 196.112848 231.142614 
L 196.386874 231.142614 
L 196.386874 229.386099 
L 198.131187 229.386099 
L 198.131187 227.629584 
L 198.343983 227.629584 
L 198.427894 224.116554 
L 198.710183 224.116554 
L 198.732878 220.603525 
L 198.970975 220.603525 
L 198.970975 218.84701 
L 199.154824 218.84701 
L 199.154824 217.090495 
L 199.498777 217.090495 
L 199.498777 215.33398 
L 199.787687 215.33398 
L 199.787687 213.577465 
L 205.28067 213.577465 
L 205.28067 211.82095 
L 205.621142 211.82095 
L 205.621142 210.064436 
L 205.878982 210.064436 
L 205.878982 208.307921 
L 206.379258 208.307921 
L 206.379258 206.551406 
L 206.590009 206.551406 
L 206.590009 204.794891 
L 207.451258 204.794891 
L 207.451258 203.038376 
L 207.682854 203.038376 
L 207.682854 201.281861 
L 208.006086 201.281861 
L 208.018233 197.768832 
L 208.32683 197.768832 
L 208.390674 194.255802 
L 208.863283 194.255802 
L 208.863283 192.499287 
L 209.032125 192.499287 
L 209.051658 188.986257 
L 209.403378 188.986257 
L 209.464446 185.473228 
L 209.547525 185.473228 
L 209.547525 181.960198 
L 210.242241 181.960198 
L 210.329449 178.447168 
L 210.751052 178.447168 
L 210.823554 173.177624 
L 211.054653 173.177624 
L 211.054653 171.421109 
L 211.253103 171.421109 
L 211.253103 169.664594 
L 211.623193 169.664594 
L 211.623193 167.908079 
L 211.800789 167.908079 
L 211.800789 166.151564 
L 211.978673 166.151564 
L 212.062611 157.36899 
L 212.29883 157.36899 
L 212.356075 153.85596 
L 212.504757 153.85596 
L 212.556203 148.586416 
L 212.722833 148.586416 
L 212.767776 145.073386 
L 212.921364 145.073386 
L 212.969299 141.560356 
L 213.154696 141.560356 
L 213.154696 139.803842 
L 213.286281 139.803842 
L 213.286281 138.047327 
L 213.420352 138.047327 
L 213.49283 131.021267 
L 213.657648 131.021267 
L 213.762431 125.751723 
L 213.893436 125.751723 
L 213.912423 118.725663 
L 214.015305 118.725663 
L 214.033631 113.456119 
L 214.374593 113.456119 
L 214.483617 106.430059 
L 214.59218 106.430059 
L 214.642204 101.160515 
L 214.809177 101.160515 
L 214.809177 99.404 
L 214.925145 99.404 
L 214.925145 97.647485 
L 215.407027 97.647485 
L 215.449928 92.377941 
L 215.550901 92.377941 
L 215.630364 80.082337 
L 215.672733 80.082337 
L 215.672733 78.325822 
L 215.919197 78.325822 
L 215.998478 71.299762 
L 216.123391 71.299762 
L 216.123391 69.543248 
L 216.278994 69.543248 
L 216.278994 66.030218 
L 216.528636 66.030218 
L 216.528636 62.517188 
L 216.745265 62.517188 
L 216.748455 59.004158 
L 220.304059 59.004158 
L 220.304059 57.247644 
L 225.237809 57.247644 
L 225.237809 55.491129 
L 229.393791 55.491129 
L 229.393791 53.734614 
L 231.958103 53.734614 
L 231.958103 51.978099 
L 235.067829 51.978099 
L 235.067829 50.221584 
L 236.551762 50.221584 
L 236.551762 48.465069 
L 238.533065 48.465069 
L 238.533065 46.708554 
L 239.042009 46.708554 
L 239.042009 44.95204 
L 243.574874 44.95204 
L 243.574874 43.195525 
L 243.802803 43.195525 
L 243.802803 41.43901 
L 248.424412 41.43901 
L 248.424412 39.682495 
L 251.035997 39.682495 
L 251.035997 37.92598 
L 252.483166 37.92598 
L 252.483166 36.169465 
L 252.702664 36.169465 
L 252.702664 34.41295 
L 254.308209 34.41295 
L 254.308209 32.656436 
L 256.283221 32.656436 
L 256.283221 30.899921 
L 256.402374 30.899921 
L 256.402374 29.143406 
L 256.897007 29.143406 
L 256.897007 27.386891 
L 257.252027 27.386891 
L 257.252027 13.334772 
L 257.252027 13.334772 
L 367.82 13.334772 
L 367.82 13.334772 
" style="fill:none;stroke:#000000;stroke-linecap:square;stroke-width:1.5;"/>
   </g>
   <g id="line2d_27">
    <path clip-path="url(#p7be3ddfd6c)" d="M 182.516176 276.812 
L 182.516176 275.055485 
L 185.614652 275.055485 
L 185.614652 273.29897 
L 186.134349 273.29897 
L 186.16238 269.785941 
L 186.534311 269.785941 
L 186.534311 268.029426 
L 186.869604 268.029426 
L 186.869604 266.272911 
L 187.490883 266.272911 
L 187.490883 264.516396 
L 187.642511 264.516396 
L 187.642511 262.759881 
L 188.739597 262.759881 
L 188.739597 261.003366 
L 188.955416 261.003366 
L 188.955416 259.246851 
L 189.244006 259.246851 
L 189.292331 255.733822 
L 189.388878 255.733822 
L 189.467498 252.220792 
L 189.581606 252.220792 
L 189.686945 248.707762 
L 190.209405 248.707762 
L 190.300571 243.438218 
L 190.716631 243.438218 
L 190.776279 239.925188 
L 191.336158 239.925188 
L 191.336158 238.168673 
L 191.77561 238.168673 
L 191.796278 234.655644 
L 191.927311 234.655644 
L 191.927311 232.899129 
L 192.15128 232.899129 
L 192.15128 231.142614 
L 192.475337 231.142614 
L 192.475337 229.386099 
L 193.001093 229.386099 
L 193.109539 225.873069 
L 193.354461 225.873069 
L 193.354461 224.116554 
L 194.242512 224.116554 
L 194.262648 220.603525 
L 195.016098 220.603525 
L 195.016098 218.84701 
L 195.432123 218.84701 
L 195.432123 217.090495 
L 196.112848 217.090495 
L 196.112848 215.33398 
L 197.060022 215.33398 
L 197.060022 213.577465 
L 197.356548 213.577465 
L 197.356548 211.82095 
L 197.754575 211.82095 
L 197.754575 210.064436 
L 198.343983 210.064436 
L 198.343983 208.307921 
L 199.723091 208.307921 
L 199.723091 206.551406 
L 202.875124 206.551406 
L 202.875124 204.794891 
L 204.870592 204.794891 
L 204.870592 203.038376 
L 205.144951 203.038376 
L 205.144951 201.281861 
L 205.28067 201.281861 
L 205.28067 199.525347 
L 205.878982 199.525347 
L 205.954441 196.012317 
L 206.379258 196.012317 
L 206.379258 194.255802 
L 206.882093 194.255802 
L 206.882093 192.499287 
L 207.451258 192.499287 
L 207.451258 190.742772 
L 207.593108 190.742772 
L 207.593108 188.986257 
L 208.006086 188.986257 
L 208.018233 185.473228 
L 208.15977 185.473228 
L 208.192823 181.960198 
L 208.289157 181.960198 
L 208.289157 180.203683 
L 208.67963 180.203683 
L 208.779239 176.690653 
L 208.852282 176.690653 
L 208.863283 173.177624 
L 209.051658 173.177624 
L 209.051658 171.421109 
L 209.366631 171.421109 
L 209.464446 164.39505 
L 209.518385 164.39505 
L 209.560597 160.88202 
L 210.242241 160.88202 
L 210.242241 159.125505 
L 210.641483 159.125505 
L 210.751052 153.85596 
L 210.823554 153.85596 
L 210.930189 150.342931 
L 211.154663 150.342931 
L 211.154663 148.586416 
L 211.375889 148.586416 
L 211.375889 146.829901 
L 211.758633 146.829901 
L 211.758633 145.073386 
L 211.895335 145.073386 
L 211.978673 139.803842 
L 212.118342 139.803842 
L 212.204302 136.290812 
L 212.29883 136.290812 
L 212.356075 131.021267 
L 212.484715 131.021267 
L 212.552447 127.508238 
L 212.624621 127.508238 
L 212.624621 125.751723 
L 212.809618 125.751723 
L 212.888145 118.725663 
L 212.969299 118.725663 
L 212.981982 115.212634 
L 213.286281 115.212634 
L 213.381919 108.186574 
L 213.657648 108.186574 
L 213.657648 106.430059 
L 213.893436 106.430059 
L 213.949841 101.160515 
L 214.020881 101.160515 
L 214.114974 97.647485 
L 214.135464 97.647485 
L 214.19404 92.377941 
L 214.609169 92.377941 
L 214.642204 87.108396 
L 215.01195 87.108396 
L 215.01195 85.351881 
L 215.152737 85.351881 
L 215.205776 81.838851 
L 215.305327 81.838851 
L 215.386736 78.325822 
L 215.420326 78.325822 
L 215.449928 74.812792 
L 215.550901 74.812792 
L 215.590105 71.299762 
L 215.792843 71.299762 
L 215.792843 69.543248 
L 215.919197 69.543248 
L 215.934683 66.030218 
L 216.278994 66.030218 
L 216.278994 62.517188 
L 216.498932 62.517188 
L 216.581456 55.491129 
L 216.685937 55.491129 
L 216.685937 53.734614 
L 224.398531 53.734614 
L 224.398531 51.978099 
L 225.547869 51.978099 
L 225.547869 50.221584 
L 228.254932 50.221584 
L 228.254932 48.465069 
L 238.533065 48.465069 
L 238.533065 46.708554 
L 239.042009 46.708554 
L 239.042009 44.95204 
L 242.025681 44.95204 
L 242.025681 43.195525 
L 242.893792 43.195525 
L 242.893792 41.43901 
L 244.553335 41.43901 
L 244.553335 39.682495 
L 251.035997 39.682495 
L 251.035997 37.92598 
L 251.840667 37.92598 
L 251.840667 36.169465 
L 252.340131 36.169465 
L 252.340131 34.41295 
L 252.483166 34.41295 
L 252.483166 32.656436 
L 252.959258 32.656436 
L 252.959258 30.899921 
L 254.270207 30.899921 
L 254.308209 27.386891 
L 257.150314 27.386891 
L 257.252027 13.334772 
L 257.252027 13.334772 
L 367.82 13.334772 
L 367.82 13.334772 
" style="fill:none;stroke:#00bfbf;stroke-linecap:square;stroke-width:1.5;"/>
   </g>
   <g id="line2d_28">
    <path clip-path="url(#p7be3ddfd6c)" d="M 178.88383 276.812 
L 178.88383 275.055485 
L 179.906519 275.055485 
L 179.906519 273.29897 
L 180.431052 273.29897 
L 180.431052 271.542455 
L 180.935778 271.542455 
L 180.935778 269.785941 
L 181.190399 269.785941 
L 181.195914 266.272911 
L 181.813221 266.272911 
L 181.813221 264.516396 
L 182.039241 264.516396 
L 182.039241 262.759881 
L 182.516176 262.759881 
L 182.516176 261.003366 
L 182.800271 261.003366 
L 182.800271 259.246851 
L 182.919762 259.246851 
L 182.919762 257.490337 
L 183.35822 257.490337 
L 183.423482 253.977307 
L 183.474559 253.977307 
L 183.474559 252.220792 
L 184.132845 252.220792 
L 184.132845 250.464277 
L 185.111289 250.464277 
L 185.137924 246.951248 
L 185.606096 246.951248 
L 185.619358 241.681703 
L 186.134349 241.681703 
L 186.134349 239.925188 
L 186.419236 239.925188 
L 186.50075 236.412158 
L 186.534311 236.412158 
L 186.534311 234.655644 
L 187.198871 234.655644 
L 187.198871 232.899129 
L 187.490883 232.899129 
L 187.490883 231.142614 
L 187.636014 231.142614 
L 187.636014 229.386099 
L 188.203939 229.386099 
L 188.203939 227.629584 
L 188.349401 227.629584 
L 188.3575 224.116554 
L 188.487488 224.116554 
L 188.487488 222.36004 
L 189.042631 222.36004 
L 189.042631 220.603525 
L 189.292331 220.603525 
L 189.366834 217.090495 
L 189.467498 217.090495 
L 189.467498 215.33398 
L 191.209165 215.33398 
L 191.221366 211.82095 
L 192.037619 211.82095 
L 192.037619 210.064436 
L 192.376306 210.064436 
L 192.376306 208.307921 
L 192.5577 208.307921 
L 192.5577 206.551406 
L 193.607685 206.551406 
L 193.607685 204.794891 
L 195.851431 204.794891 
L 195.851431 203.038376 
L 196.463728 203.038376 
L 196.463728 201.281861 
L 199.88007 201.281861 
L 199.88007 199.525347 
L 201.865918 199.525347 
L 201.865918 197.768832 
L 202.480843 197.768832 
L 202.480843 196.012317 
L 204.870592 196.012317 
L 204.870592 194.255802 
L 205.28067 194.255802 
L 205.28067 192.499287 
L 205.538794 192.499287 
L 205.538794 190.742772 
L 205.820295 190.742772 
L 205.878982 183.716713 
L 205.954441 183.716713 
L 205.97006 180.203683 
L 206.379258 180.203683 
L 206.379258 178.447168 
L 206.559089 178.447168 
L 206.634538 174.934139 
L 206.682266 174.934139 
L 206.692516 169.664594 
L 206.882093 169.664594 
L 206.984386 166.151564 
L 207.118859 166.151564 
L 207.118859 164.39505 
L 207.2628 164.39505 
L 207.350619 160.88202 
L 207.68108 160.88202 
L 207.766904 157.36899 
L 207.823212 157.36899 
L 207.823212 155.612475 
L 207.956952 155.612475 
L 207.956952 153.85596 
L 208.192823 153.85596 
L 208.258331 150.342931 
L 208.441543 150.342931 
L 208.531528 146.829901 
L 208.651921 146.829901 
L 208.651921 145.073386 
L 208.840932 145.073386 
L 208.947013 141.560356 
L 209.024273 141.560356 
L 209.119226 138.047327 
L 209.263122 138.047327 
L 209.304508 134.534297 
L 209.59172 134.534297 
L 209.666087 131.021267 
L 209.748372 131.021267 
L 209.748372 129.264752 
L 209.93459 129.264752 
L 209.99795 123.995208 
L 210.103705 123.995208 
L 210.16585 120.482178 
L 210.224218 120.482178 
L 210.325918 116.969149 
L 210.364745 116.969149 
L 210.450416 113.456119 
L 210.508284 113.456119 
L 210.546876 109.943089 
L 210.630456 109.943089 
L 210.630456 108.186574 
L 210.929893 108.186574 
L 210.929893 106.430059 
L 211.249003 106.430059 
L 211.33454 102.91703 
L 211.517141 102.91703 
L 211.517141 101.160515 
L 211.664099 101.160515 
L 211.758633 97.647485 
L 212.021914 97.647485 
L 212.021914 95.89097 
L 212.192654 95.89097 
L 212.192654 94.134455 
L 212.394717 94.134455 
L 212.394717 92.377941 
L 212.598302 92.377941 
L 212.625533 88.864911 
L 212.788898 88.864911 
L 212.883728 85.351881 
L 213.314527 85.351881 
L 213.314527 83.595366 
L 213.766994 83.595366 
L 213.811729 80.082337 
L 214.312047 80.082337 
L 214.312047 78.325822 
L 214.68266 78.325822 
L 214.731434 74.812792 
L 214.898202 74.812792 
L 214.898202 73.056277 
L 215.018093 73.056277 
L 215.115135 69.543248 
L 215.24973 69.543248 
L 215.312833 66.030218 
L 215.389845 66.030218 
L 215.389845 64.273703 
L 215.738282 64.273703 
L 215.792843 60.760673 
L 216.278994 60.760673 
L 216.278994 57.247644 
L 216.391516 57.247644 
L 216.492147 53.734614 
L 216.520679 53.734614 
L 216.528636 50.221584 
L 218.506425 50.221584 
L 218.506425 48.465069 
L 237.80648 48.465069 
L 237.80648 46.708554 
L 238.533065 46.708554 
L 238.560756 43.195525 
L 238.74671 43.195525 
L 238.74671 41.43901 
L 244.373527 41.43901 
L 244.373527 39.682495 
L 244.934663 39.682495 
L 244.934663 37.92598 
L 251.697839 37.92598 
L 251.713421 34.41295 
L 251.888963 34.41295 
L 251.888963 32.656436 
L 252.016329 32.656436 
L 252.016329 30.899921 
L 252.140512 30.899921 
L 252.140512 29.143406 
L 252.367898 29.143406 
L 252.367898 27.386891 
L 257.121114 27.386891 
L 257.150314 23.873861 
L 257.252027 23.873861 
L 257.252027 13.334772 
L 257.252027 13.334772 
L 367.82 13.334772 
L 367.82 13.334772 
" style="fill:none;stroke:#bf00bf;stroke-linecap:square;stroke-width:1.5;"/>
   </g>
   <g id="line2d_29">
    <path clip-path="url(#p7be3ddfd6c)" d="M 172.001807 276.812 
L 172.001807 275.055485 
L 173.790828 275.055485 
L 173.790828 273.29897 
L 176.409179 273.29897 
L 176.409179 271.542455 
L 177.478182 271.542455 
L 177.478182 269.785941 
L 178.188482 269.785941 
L 178.188482 268.029426 
L 178.344716 268.029426 
L 178.344716 266.272911 
L 178.577457 266.272911 
L 178.609543 262.759881 
L 178.88383 262.759881 
L 178.916233 259.246851 
L 179.036568 259.246851 
L 179.036568 257.490337 
L 179.906519 257.490337 
L 179.906519 255.733822 
L 180.81512 255.733822 
L 180.827114 252.220792 
L 180.935778 252.220792 
L 180.935778 250.464277 
L 181.103745 250.464277 
L 181.206533 243.438218 
L 181.225053 243.438218 
L 181.225053 241.681703 
L 181.621987 241.681703 
L 181.621987 239.925188 
L 181.813221 239.925188 
L 181.813221 238.168673 
L 182.506662 238.168673 
L 182.506662 236.412158 
L 182.773076 236.412158 
L 182.836453 232.899129 
L 183.034034 232.899129 
L 183.126497 227.629584 
L 183.557762 227.629584 
L 183.557762 225.873069 
L 183.764113 225.873069 
L 183.764113 224.116554 
L 184.212235 224.116554 
L 184.212235 222.36004 
L 185.09352 222.36004 
L 185.09352 220.603525 
L 186.605271 220.603525 
L 186.605271 218.84701 
L 188.114724 218.84701 
L 188.114724 217.090495 
L 188.641184 217.090495 
L 188.641184 215.33398 
L 188.831792 215.33398 
L 188.831792 213.577465 
L 188.949199 213.577465 
L 188.949199 211.82095 
L 190.272083 211.82095 
L 190.272083 210.064436 
L 190.770808 210.064436 
L 190.84708 206.551406 
L 191.630309 206.551406 
L 191.630309 204.794891 
L 192.194429 204.794891 
L 192.194429 203.038376 
L 195.851431 203.038376 
L 195.944547 199.525347 
L 200.078306 199.525347 
L 200.078306 197.768832 
L 201.234113 197.768832 
L 201.234113 196.012317 
L 201.735698 196.012317 
L 201.735698 194.255802 
L 202.383451 194.255802 
L 202.383451 192.499287 
L 202.54789 192.499287 
L 202.54789 190.742772 
L 202.859008 190.742772 
L 202.859008 188.986257 
L 203.293713 188.986257 
L 203.293713 187.229743 
L 203.837897 187.229743 
L 203.837897 185.473228 
L 204.102175 185.473228 
L 204.102175 183.716713 
L 204.365395 183.716713 
L 204.475287 180.203683 
L 204.74985 180.203683 
L 204.810661 176.690653 
L 205.279456 176.690653 
L 205.279456 174.934139 
L 205.54205 174.934139 
L 205.54205 173.177624 
L 205.785524 173.177624 
L 205.820295 169.664594 
L 205.97006 169.664594 
L 206.062982 166.151564 
L 206.234789 166.151564 
L 206.234789 164.39505 
L 206.379258 164.39505 
L 206.479148 160.88202 
L 206.548634 160.88202 
L 206.576081 157.36899 
L 206.679431 157.36899 
L 206.690242 153.85596 
L 206.882093 153.85596 
L 206.913065 150.342931 
L 207.350619 150.342931 
L 207.429541 145.073386 
L 207.577826 145.073386 
L 207.611096 139.803842 
L 208.094138 139.803842 
L 208.116945 134.534297 
L 208.412931 134.534297 
L 208.412931 132.777782 
L 208.531528 132.777782 
L 208.602017 129.264752 
L 208.679489 129.264752 
L 208.722081 125.751723 
L 208.903341 125.751723 
L 208.903341 123.995208 
L 209.024273 123.995208 
L 209.063394 120.482178 
L 209.14713 120.482178 
L 209.224291 113.456119 
L 209.32404 113.456119 
L 209.359861 109.943089 
L 209.666087 109.943089 
L 209.748372 106.430059 
L 210.022584 106.430059 
L 210.076904 102.91703 
L 210.358573 102.91703 
L 210.358573 101.160515 
L 210.575519 101.160515 
L 210.575519 99.404 
L 210.78031 99.404 
L 210.78031 97.647485 
L 211.038693 97.647485 
L 211.125546 94.134455 
L 211.817679 94.134455 
L 211.853636 90.621426 
L 211.95709 90.621426 
L 211.95709 88.864911 
L 212.201535 88.864911 
L 212.256586 85.351881 
L 212.394717 85.351881 
L 212.394717 83.595366 
L 213.138537 83.595366 
L 213.138537 81.838851 
L 213.509233 81.838851 
L 213.509233 80.082337 
L 213.766994 80.082337 
L 213.766994 78.325822 
L 214.151567 78.325822 
L 214.203448 74.812792 
L 214.352024 74.812792 
L 214.352024 73.056277 
L 214.817131 73.056277 
L 214.912949 66.030218 
L 214.964543 66.030218 
L 214.964543 64.273703 
L 215.24973 64.273703 
L 215.24973 62.517188 
L 215.708248 62.517188 
L 215.757304 59.004158 
L 216.278994 59.004158 
L 216.386996 53.734614 
L 216.444148 53.734614 
L 216.486113 48.465069 
L 236.766249 48.465069 
L 236.766249 46.708554 
L 237.518995 46.708554 
L 237.576486 43.195525 
L 237.803281 43.195525 
L 237.803281 41.43901 
L 243.710601 41.43901 
L 243.710601 39.682495 
L 243.913264 39.682495 
L 243.913264 37.92598 
L 251.659873 37.92598 
L 251.75197 29.143406 
L 251.804301 29.143406 
L 251.804301 27.386891 
L 256.802367 27.386891 
L 256.834771 23.873861 
L 256.916009 23.873861 
L 256.916009 22.117347 
L 257.146519 22.117347 
L 257.252027 13.334772 
L 257.252027 13.334772 
L 367.82 13.334772 
L 367.82 13.334772 
" style="fill:none;stroke:#000000;stroke-linecap:square;stroke-width:1.5;"/>
   </g>
   <g id="line2d_30">
    <path clip-path="url(#p7be3ddfd6c)" d="M 171.520177 276.812 
L 171.520177 275.055485 
L 171.520177 275.055485 
L 171.520177 275.055485 
L 171.622844 275.055485 
L 171.622844 273.29897 
L 172.127276 273.29897 
L 172.127276 271.542455 
L 173.141506 271.542455 
L 173.141506 269.785941 
L 174.004199 269.785941 
L 174.111267 266.272911 
L 174.548503 266.272911 
L 174.548503 264.516396 
L 174.682735 264.516396 
L 174.791928 261.003366 
L 174.94081 261.003366 
L 174.987253 257.490337 
L 175.241226 257.490337 
L 175.241226 255.733822 
L 175.360575 255.733822 
L 175.360575 253.977307 
L 175.607066 253.977307 
L 175.649023 250.464277 
L 176.143151 250.464277 
L 176.158075 243.438218 
L 176.409179 243.438218 
L 176.44213 239.925188 
L 176.613739 239.925188 
L 176.626357 236.412158 
L 176.726006 236.412158 
L 176.726006 234.655644 
L 176.936318 234.655644 
L 176.936318 232.899129 
L 177.190379 232.899129 
L 177.190379 231.142614 
L 177.362437 231.142614 
L 177.388815 227.629584 
L 178.160077 227.629584 
L 178.160077 225.873069 
L 178.577457 225.873069 
L 178.577457 224.116554 
L 179.588121 224.116554 
L 179.588121 222.36004 
L 180.862504 222.36004 
L 180.862504 220.603525 
L 183.388914 220.603525 
L 183.388914 218.84701 
L 183.647553 218.84701 
L 183.647553 217.090495 
L 186.520397 217.090495 
L 186.520397 215.33398 
L 187.116906 215.33398 
L 187.116906 213.577465 
L 187.41758 213.577465 
L 187.486496 210.064436 
L 187.832981 210.064436 
L 187.832981 208.307921 
L 188.023381 208.307921 
L 188.085826 204.794891 
L 188.334763 204.794891 
L 188.334763 203.038376 
L 192.937206 203.038376 
L 192.937206 201.281861 
L 194.473593 201.281861 
L 194.473593 199.525347 
L 195.679128 199.525347 
L 195.709483 196.012317 
L 200.36344 196.012317 
L 200.451424 192.499287 
L 201.756006 192.499287 
L 201.756006 190.742772 
L 202.063442 190.742772 
L 202.084502 187.229743 
L 202.282103 187.229743 
L 202.287226 183.716713 
L 202.478479 183.716713 
L 202.520766 180.203683 
L 202.859008 180.203683 
L 202.859008 178.447168 
L 203.018395 178.447168 
L 203.018395 176.690653 
L 203.463402 176.690653 
L 203.463402 174.934139 
L 203.702595 174.934139 
L 203.702595 173.177624 
L 203.825132 173.177624 
L 203.825132 171.421109 
L 204.866718 171.421109 
L 204.866718 169.664594 
L 205.213388 169.664594 
L 205.213388 167.908079 
L 205.334466 167.908079 
L 205.334466 166.151564 
L 205.520975 166.151564 
L 205.520975 164.39505 
L 205.634359 164.39505 
L 205.736085 157.36899 
L 205.763403 157.36899 
L 205.820295 153.85596 
L 205.925422 153.85596 
L 205.962468 150.342931 
L 206.082511 150.342931 
L 206.099057 146.829901 
L 206.286879 146.829901 
L 206.286879 145.073386 
L 206.530235 145.073386 
L 206.61683 141.560356 
L 206.853911 141.560356 
L 206.956986 136.290812 
L 206.975178 136.290812 
L 206.975178 134.534297 
L 207.273033 134.534297 
L 207.371734 131.021267 
L 207.400857 131.021267 
L 207.457968 123.995208 
L 207.569928 123.995208 
L 207.57098 120.482178 
L 207.877444 120.482178 
L 207.950301 109.943089 
L 208.0197 109.943089 
L 208.0197 108.186574 
L 208.520653 108.186574 
L 208.520653 106.430059 
L 208.865062 106.430059 
L 208.865062 104.673545 
L 209.285404 104.673545 
L 209.379551 99.404 
L 209.569382 99.404 
L 209.569382 97.647485 
L 210.374898 97.647485 
L 210.409422 94.134455 
L 211.103631 94.134455 
L 211.135339 90.621426 
L 211.320014 90.621426 
L 211.383316 87.108396 
L 211.84763 87.108396 
L 211.865587 83.595366 
L 212.733547 83.595366 
L 212.813728 80.082337 
L 213.624718 80.082337 
L 213.624718 78.325822 
L 213.74321 78.325822 
L 213.805623 74.812792 
L 213.963333 74.812792 
L 213.963333 73.056277 
L 214.711733 73.056277 
L 214.773669 64.273703 
L 215.147439 64.273703 
L 215.147439 62.517188 
L 215.340807 62.517188 
L 215.340807 60.760673 
L 215.495523 60.760673 
L 215.495523 59.004158 
L 216.197458 59.004158 
L 216.230095 55.491129 
L 216.353971 55.491129 
L 216.410054 48.465069 
L 235.267579 48.465069 
L 235.343092 43.195525 
L 235.40848 43.195525 
L 235.40848 41.43901 
L 241.903683 41.43901 
L 241.903683 39.682495 
L 242.039474 39.682495 
L 242.039474 37.92598 
L 251.337754 37.92598 
L 251.39234 27.386891 
L 256.401285 27.386891 
L 256.441111 22.117347 
L 256.543771 22.117347 
L 256.543771 20.360832 
L 257.252027 20.360832 
L 257.252027 13.334772 
L 257.252027 13.334772 
L 367.82 13.334772 
L 367.82 13.334772 
" style="fill:none;stroke:#00bfbf;stroke-linecap:square;stroke-width:1.5;"/>
   </g>
   <g id="patch_3">
    <path d="M 10.7 276.812 
L 10.7 10.7 
" style="fill:none;stroke:#000000;stroke-linecap:square;stroke-linejoin:miter;stroke-width:0.8;"/>
   </g>
   <g id="patch_4">
    <path d="M 367.82 276.812 
L 367.82 10.7 
" style="fill:none;stroke:#000000;stroke-linecap:square;stroke-linejoin:miter;stroke-width:0.8;"/>
   </g>
   <g id="patch_5">
    <path d="M 10.7 276.812 
L 367.82 276.812 
" style="fill:none;stroke:#000000;stroke-linecap:square;stroke-linejoin:miter;stroke-width:0.8;"/>
   </g>
   <g id="patch_6">
    <path d="M 10.7 10.7 
L 367.82 10.7 
" style="fill:none;stroke:#000000;stroke-linecap:square;stroke-linejoin:miter;stroke-width:0.8;"/>
   </g>
   <g id="text_6">
    <!-- {f20-f24}, 5-D -->
    <defs>
     <path d="M 51.125 -9.28125 
L 51.125 -16.3125 
L 48.09375 -16.3125 
Q 35.9375 -16.3125 31.8125 -12.6875 
Q 27.6875 -9.078125 27.6875 1.703125 
L 27.6875 13.375 
Q 27.6875 20.75 25.046875 23.578125 
Q 22.40625 26.421875 15.484375 26.421875 
L 12.5 26.421875 
L 12.5 33.40625 
L 15.484375 33.40625 
Q 22.46875 33.40625 25.078125 36.203125 
Q 27.6875 39.015625 27.6875 46.296875 
L 27.6875 58.015625 
Q 27.6875 68.796875 31.8125 72.390625 
Q 35.9375 75.984375 48.09375 75.984375 
L 51.125 75.984375 
L 51.125 69 
L 47.796875 69 
Q 40.921875 69 38.8125 66.84375 
Q 36.71875 64.703125 36.71875 57.8125 
L 36.71875 45.703125 
Q 36.71875 38.03125 34.5 34.5625 
Q 32.28125 31.109375 26.90625 29.890625 
Q 32.328125 28.5625 34.515625 25.09375 
Q 36.71875 21.625 36.71875 14.015625 
L 36.71875 1.90625 
Q 36.71875 -4.984375 38.8125 -7.125 
Q 40.921875 -9.28125 47.796875 -9.28125 
z
" id="DejaVuSans-7b"/>
     <path d="M 19.1875 8.296875 
L 53.609375 8.296875 
L 53.609375 0 
L 7.328125 0 
L 7.328125 8.296875 
Q 12.9375 14.109375 22.625 23.890625 
Q 32.328125 33.6875 34.8125 36.53125 
Q 39.546875 41.84375 41.421875 45.53125 
Q 43.3125 49.21875 43.3125 52.78125 
Q 43.3125 58.59375 39.234375 62.25 
Q 35.15625 65.921875 28.609375 65.921875 
Q 23.96875 65.921875 18.8125 64.3125 
Q 13.671875 62.703125 7.8125 59.421875 
L 7.8125 69.390625 
Q 13.765625 71.78125 18.9375 73 
Q 24.125 74.21875 28.421875 74.21875 
Q 39.75 74.21875 46.484375 68.546875 
Q 53.21875 62.890625 53.21875 53.421875 
Q 53.21875 48.921875 51.53125 44.890625 
Q 49.859375 40.875 45.40625 35.40625 
Q 44.1875 33.984375 37.640625 27.21875 
Q 31.109375 20.453125 19.1875 8.296875 
" id="DejaVuSans-32"/>
     <path d="M 12.5 -9.28125 
L 15.921875 -9.28125 
Q 22.75 -9.28125 24.828125 -7.171875 
Q 26.90625 -5.078125 26.90625 1.90625 
L 26.90625 14.015625 
Q 26.90625 21.625 29.09375 25.09375 
Q 31.296875 28.5625 36.71875 29.890625 
Q 31.296875 31.109375 29.09375 34.5625 
Q 26.90625 38.03125 26.90625 45.703125 
L 26.90625 57.8125 
Q 26.90625 64.75 24.828125 66.875 
Q 22.75 69 15.921875 69 
L 12.5 69 
L 12.5 75.984375 
L 15.578125 75.984375 
Q 27.734375 75.984375 31.8125 72.390625 
Q 35.890625 68.796875 35.890625 58.015625 
L 35.890625 46.296875 
Q 35.890625 39.015625 38.515625 36.203125 
Q 41.15625 33.40625 48.09375 33.40625 
L 51.125 33.40625 
L 51.125 26.421875 
L 48.09375 26.421875 
Q 41.15625 26.421875 38.515625 23.578125 
Q 35.890625 20.75 35.890625 13.375 
L 35.890625 1.703125 
Q 35.890625 -9.078125 31.8125 -12.6875 
Q 27.734375 -16.3125 15.578125 -16.3125 
L 12.5 -16.3125 
z
" id="DejaVuSans-7d"/>
     <path d="M 11.71875 12.40625 
L 22.015625 12.40625 
L 22.015625 4 
L 14.015625 -11.625 
L 7.71875 -11.625 
L 11.71875 4 
z
" id="DejaVuSans-2c"/>
     <path d="M 10.796875 72.90625 
L 49.515625 72.90625 
L 49.515625 64.59375 
L 19.828125 64.59375 
L 19.828125 46.734375 
Q 21.96875 47.46875 24.109375 47.828125 
Q 26.265625 48.1875 28.421875 48.1875 
Q 40.625 48.1875 47.75 41.5 
Q 54.890625 34.8125 54.890625 23.390625 
Q 54.890625 11.625 47.5625 5.09375 
Q 40.234375 -1.421875 26.90625 -1.421875 
Q 22.3125 -1.421875 17.546875 -0.640625 
Q 12.796875 0.140625 7.71875 1.703125 
L 7.71875 11.625 
Q 12.109375 9.234375 16.796875 8.0625 
Q 21.484375 6.890625 26.703125 6.890625 
Q 35.15625 6.890625 40.078125 11.328125 
Q 45.015625 15.765625 45.015625 23.390625 
Q 45.015625 31 40.078125 35.4375 
Q 35.15625 39.890625 26.703125 39.890625 
Q 22.75 39.890625 18.8125 39.015625 
Q 14.890625 38.140625 10.796875 36.28125 
z
" id="DejaVuSans-35"/>
    </defs>
    <g transform="translate(214.9776 271.48976)scale(0.2 -0.2)">
     <use xlink:href="#DejaVuSans-7b"/>
     <use x="63.623047" xlink:href="#DejaVuSans-66"/>
     <use x="98.828125" xlink:href="#DejaVuSans-32"/>
     <use x="162.451172" xlink:href="#DejaVuSans-30"/>
     <use x="226.074219" xlink:href="#DejaVuSans-2d"/>
     <use x="262.158203" xlink:href="#DejaVuSans-66"/>
     <use x="297.363281" xlink:href="#DejaVuSans-32"/>
     <use x="360.986328" xlink:href="#DejaVuSans-34"/>
     <use x="424.609375" xlink:href="#DejaVuSans-7d"/>
     <use x="488.232422" xlink:href="#DejaVuSans-2c"/>
     <use x="520.019531" xlink:href="#DejaVuSans-20"/>
     <use x="551.806641" xlink:href="#DejaVuSans-35"/>
     <use x="615.429688" xlink:href="#DejaVuSans-2d"/>
     <use x="651.513672" xlink:href="#DejaVuSans-44"/>
    </g>
   </g>
   <g id="text_7">
    <!-- v2.1 -->
    <defs>
     <path d="M 2.984375 54.6875 
L 12.5 54.6875 
L 29.59375 8.796875 
L 46.6875 54.6875 
L 56.203125 54.6875 
L 35.6875 0 
L 23.484375 0 
z
" id="DejaVuSans-76"/>
     <path d="M 10.6875 12.40625 
L 21 12.40625 
L 21 0 
L 10.6875 0 
z
" id="DejaVuSans-2e"/>
    </defs>
    <g style="fill:#808080;" transform="translate(178.349063 272.071193)scale(0.1 -0.1)">
     <use xlink:href="#DejaVuSans-76"/>
     <use x="59.179688" xlink:href="#DejaVuSans-32"/>
     <use x="122.802734" xlink:href="#DejaVuSans-2e"/>
     <use x="154.589844" xlink:href="#DejaVuSans-31"/>
    </g>
   </g>
  </g>
 </g>
 <defs>
  <clipPath id="p7be3ddfd6c">
   <rect height="266.112" width="357.12" x="10.7" y="10.7"/>
  </clipPath>
 </defs>
</svg>
