<?xml version="1.0" encoding="utf-8" standalone="no"?>
<!DOCTYPE svg PUBLIC "-//W3C//DTD SVG 1.1//EN"
  "http://www.w3.org/Graphics/SVG/1.1/DTD/svg11.dtd">
<!-- Created with matplotlib (http://matplotlib.org/) -->
<svg height="335pt" version="1.1" viewBox="0 0 437 335" width="437pt" xmlns="http://www.w3.org/2000/svg" xmlns:xlink="http://www.w3.org/1999/xlink">
 <defs>
  <style type="text/css">
*{stroke-linecap:butt;stroke-linejoin:round;}
  </style>
 </defs>
 <g id="figure_1">
  <g id="patch_1">
   <path d="M 0 335.188165 
L 437.1825 335.188165 
L 437.1825 0 
L 0 0 
z
" style="fill:#ffffff;"/>
  </g>
  <g id="axes_1">
   <g id="patch_2">
    <path d="M 69.3625 278.275665 
L 426.4825 278.275665 
L 426.4825 12.163665 
L 69.3625 12.163665 
z
" style="fill:#ffffff;"/>
   </g>
   <g id="line2d_1"/>
   <g id="line2d_2"/>
   <g id="line2d_3"/>
   <g id="line2d_4">
    <path clip-path="url(#pf2788247a0)" d="M 351.280679 278.275665 
L 351.280679 274.762636 
L 351.280679 274.762636 
L 351.280679 274.762636 
L 351.301542 274.762636 
L 351.301542 271.249606 
L 352.237484 271.249606 
L 352.237484 267.736576 
L 352.907849 267.736576 
L 352.907849 264.223546 
L 353.349731 264.223546 
L 353.349731 260.710517 
L 353.76244 260.710517 
L 353.799312 253.684457 
L 353.914637 253.684457 
L 353.914637 250.171428 
L 354.633772 250.171428 
L 354.684329 239.632338 
L 356.32184 239.632338 
L 356.32184 236.119309 
L 356.873629 236.119309 
L 356.873629 232.606279 
L 357.764094 232.606279 
L 357.764094 229.093249 
L 357.91812 229.093249 
L 357.91812 225.58022 
L 358.848067 225.58022 
L 358.848067 222.06719 
L 359.466841 222.06719 
L 359.466841 218.55416 
L 360.365671 218.55416 
L 360.365671 215.041131 
L 360.571202 215.041131 
L 360.571202 211.528101 
L 361.109611 211.528101 
L 361.109611 208.015071 
L 361.594286 208.015071 
L 361.594286 204.502041 
L 363.596056 204.502041 
L 363.634981 197.475982 
L 365.161326 197.475982 
L 365.161326 193.962952 
L 366.407219 193.962952 
L 366.407219 190.449923 
L 367.827399 190.449923 
L 367.896023 183.423863 
L 368.617688 183.423863 
L 368.617688 179.910834 
L 368.970507 179.910834 
L 368.970507 176.397804 
L 372.181838 176.397804 
L 372.181838 172.884774 
L 374.614579 172.884774 
L 374.614579 169.371744 
L 375.389842 169.371744 
L 375.389842 165.858715 
L 375.588039 165.858715 
L 375.588039 162.345685 
L 376.702436 162.345685 
L 376.702436 158.832655 
L 377.157851 158.832655 
L 377.157851 155.319626 
L 378.383032 155.319626 
L 378.383032 151.806596 
L 378.627665 151.806596 
L 378.63584 144.780537 
L 378.896619 144.780537 
L 378.896619 141.267507 
L 379.320992 141.267507 
L 379.413381 134.241447 
L 379.795509 134.241447 
L 379.795509 130.728418 
L 380.229335 130.728418 
L 380.276535 123.702358 
L 380.740466 123.702358 
L 380.740466 120.189329 
L 381.517353 120.189329 
L 381.517353 116.676299 
L 383.281516 116.676299 
L 383.281516 113.163269 
L 385.918159 113.163269 
L 385.918159 109.650239 
L 394.094883 109.650239 
L 394.094883 106.13721 
L 394.685357 106.13721 
L 394.685357 102.62418 
L 394.803393 102.62418 
L 394.803393 99.11115 
L 395.218069 99.11115 
L 395.218069 95.598121 
L 398.307488 95.598121 
L 398.307488 92.085091 
L 405.501588 92.085091 
L 405.501588 88.572061 
L 410.562762 88.572061 
L 410.562762 85.059032 
L 415.083331 85.059032 
L 415.083331 81.546002 
L 415.591186 81.546002 
L 415.591186 78.032972 
L 415.87408 78.032972 
L 415.87408 74.519942 
L 416.042012 74.519942 
L 416.042012 71.006913 
L 416.913523 71.006913 
L 416.913523 67.493883 
L 418.179623 67.493883 
L 418.179623 63.980853 
L 437.404826 63.980853 
L 437.404826 60.467824 
L 438.1825 60.467824 
L 438.1825 60.467824 
" style="fill:none;stroke:#f5deb3;stroke-linecap:square;stroke-width:1.5;"/>
   </g>
   <g id="line2d_5">
    <path clip-path="url(#pf2788247a0)" d="M 343.240326 278.275665 
L 343.240326 274.762636 
L 343.495285 274.762636 
L 343.495285 271.249606 
L 343.926137 271.249606 
L 343.926137 267.736576 
L 344.768751 267.736576 
L 344.768751 264.223546 
L 345.675369 264.223546 
L 345.675369 260.710517 
L 349.982713 260.710517 
L 349.982713 257.197487 
L 352.245133 257.197487 
L 352.245133 253.684457 
L 353.703376 253.684457 
L 353.703376 250.171428 
L 357.36639 250.171428 
L 357.36639 246.658398 
L 357.667822 246.658398 
L 357.667822 243.145368 
L 363.902588 243.145368 
L 363.902588 239.632338 
L 364.786314 239.632338 
L 364.786314 236.119309 
L 367.075814 236.119309 
L 367.075814 232.606279 
L 368.946506 232.606279 
L 368.946506 229.093249 
L 370.500305 229.093249 
L 370.500305 225.58022 
L 432.262813 225.58022 
L 432.262813 222.06719 
L 436.278757 222.06719 
L 436.278757 218.55416 
L 437.060492 218.55416 
L 437.060492 215.041131 
L 437.078524 215.041131 
L 437.078524 211.528101 
L 437.360586 211.528101 
L 437.360586 208.015071 
L 437.55745 208.015071 
L 437.55745 204.502041 
L 438.1825 204.502041 
" style="fill:none;stroke:#f5deb3;stroke-linecap:square;stroke-width:1.5;"/>
   </g>
   <g id="line2d_6"/>
   <g id="line2d_7">
    <path clip-path="url(#pf2788247a0)" d="M 350.264236 278.275665 
L 350.264236 274.762636 
L 350.264236 274.762636 
L 350.264236 274.762636 
L 350.312309 274.762636 
L 350.397636 267.736576 
L 350.631398 267.736576 
L 350.631398 264.223546 
L 351.003265 264.223546 
L 351.003265 260.710517 
L 351.238922 260.710517 
L 351.238922 257.197487 
L 351.543317 257.197487 
L 351.543317 253.684457 
L 351.747612 253.684457 
L 351.794022 246.658398 
L 352.285905 246.658398 
L 352.382579 236.119309 
L 352.463818 236.119309 
L 352.463818 232.606279 
L 354.180884 232.606279 
L 354.180884 229.093249 
L 362.146062 229.093249 
L 362.146062 225.58022 
L 362.333075 225.58022 
L 362.333075 222.06719 
L 362.535238 222.06719 
L 362.535238 218.55416 
L 363.033482 218.55416 
L 363.033482 215.041131 
L 363.173356 215.041131 
L 363.210709 208.015071 
L 363.668039 208.015071 
L 363.668039 204.502041 
L 364.590893 204.502041 
L 364.590893 200.989012 
L 365.148191 200.989012 
L 365.148191 197.475982 
L 366.301443 197.475982 
L 366.383534 190.449923 
L 367.081191 190.449923 
L 367.081191 186.936893 
L 367.666839 186.936893 
L 367.666839 183.423863 
L 367.922388 183.423863 
L 367.922388 179.910834 
L 369.473092 179.910834 
L 369.473092 176.397804 
L 370.013244 176.397804 
L 370.055023 169.371744 
L 371.451384 169.371744 
L 371.451384 165.858715 
L 371.712341 165.858715 
L 371.712341 162.345685 
L 372.356164 162.345685 
L 372.356164 158.832655 
L 372.9014 158.832655 
L 372.9014 155.319626 
L 374.330324 155.319626 
L 374.330324 151.806596 
L 374.491487 151.806596 
L 374.491487 148.293566 
L 374.938597 148.293566 
L 374.938597 144.780537 
L 376.735232 144.780537 
L 376.735232 141.267507 
L 377.565094 141.267507 
L 377.565094 137.754477 
L 377.933817 137.754477 
L 377.933817 134.241447 
L 379.754401 134.241447 
L 379.754401 130.728418 
L 380.249008 130.728418 
L 380.309282 123.702358 
L 381.938925 123.702358 
L 381.938925 120.189329 
L 382.817757 120.189329 
L 382.817757 116.676299 
L 392.864215 116.676299 
L 392.864215 113.163269 
L 401.356832 113.163269 
L 401.356832 109.650239 
L 407.379834 109.650239 
L 407.379834 106.13721 
L 411.510897 106.13721 
L 411.510897 102.62418 
L 421.559385 102.62418 
L 421.559385 99.11115 
L 422.279926 99.11115 
L 422.279926 95.598121 
L 422.966477 95.598121 
L 422.966477 92.085091 
L 424.268639 92.085091 
L 424.268639 88.572061 
L 424.928764 88.572061 
L 424.928764 85.059032 
L 425.154654 85.059032 
L 425.154654 81.546002 
L 438.1825 81.546002 
L 438.1825 81.546002 
" style="fill:none;stroke:#f5deb3;stroke-linecap:square;stroke-width:1.5;"/>
   </g>
   <g id="line2d_8"/>
   <g id="line2d_9">
    <path clip-path="url(#pf2788247a0)" d="M 348.420718 278.275665 
L 348.420718 274.762636 
L 348.782096 274.762636 
L 348.782096 271.249606 
L 348.972652 271.249606 
L 348.972652 267.736576 
L 349.165093 267.736576 
L 349.165093 264.223546 
L 349.544639 264.223546 
L 349.544639 260.710517 
L 349.76695 260.710517 
L 349.76695 257.197487 
L 350.162569 257.197487 
L 350.162569 253.684457 
L 350.309639 253.684457 
L 350.309639 250.171428 
L 350.480132 250.171428 
L 350.514679 243.145368 
L 350.618151 243.145368 
L 350.710794 229.093249 
L 351.168363 229.093249 
L 351.168363 225.58022 
L 354.076052 225.58022 
L 354.076052 222.06719 
L 358.153646 222.06719 
L 358.153646 218.55416 
L 358.66021 218.55416 
L 358.73895 208.015071 
L 358.982981 208.015071 
L 359.082799 200.989012 
L 359.275258 200.989012 
L 359.327007 190.449923 
L 359.436762 190.449923 
L 359.436762 186.936893 
L 359.582659 186.936893 
L 359.582659 183.423863 
L 360.211917 183.423863 
L 360.211917 179.910834 
L 360.441288 179.910834 
L 360.441288 176.397804 
L 360.871398 176.397804 
L 360.871398 172.884774 
L 361.016558 172.884774 
L 361.016558 169.371744 
L 361.369072 169.371744 
L 361.369072 165.858715 
L 362.429274 165.858715 
L 362.429274 162.345685 
L 362.632969 162.345685 
L 362.632969 158.832655 
L 363.644707 158.832655 
L 363.644707 155.319626 
L 364.63271 155.319626 
L 364.63271 151.806596 
L 365.30554 151.806596 
L 365.30554 148.293566 
L 365.475341 148.293566 
L 365.475341 144.780537 
L 365.801816 144.780537 
L 365.862749 137.754477 
L 365.953064 137.754477 
L 365.953064 134.241447 
L 366.339772 134.241447 
L 366.339772 130.728418 
L 366.66145 130.728418 
L 366.762715 120.189329 
L 367.045326 120.189329 
L 367.093737 113.163269 
L 367.290396 113.163269 
L 367.290396 109.650239 
L 367.505664 109.650239 
L 367.505664 106.13721 
L 367.73749 106.13721 
L 367.73749 102.62418 
L 371.971691 102.62418 
L 372.013166 95.598121 
L 375.866869 95.598121 
L 375.866869 92.085091 
L 376.331359 92.085091 
L 376.331359 88.572061 
L 380.776739 88.572061 
L 380.776739 85.059032 
L 383.366839 85.059032 
L 383.448345 78.032972 
L 387.570105 78.032972 
L 387.570105 74.519942 
L 389.167123 74.519942 
L 389.167123 71.006913 
L 393.200104 71.006913 
L 393.200104 67.493883 
L 396.494356 67.493883 
L 396.494356 63.980853 
L 401.26936 63.980853 
L 401.26936 60.467824 
L 403.071459 60.467824 
L 403.071459 56.954794 
L 403.28523 56.954794 
L 403.28523 53.441764 
L 403.942527 53.441764 
L 403.942527 49.928735 
L 404.258101 49.928735 
L 404.258101 46.415705 
L 417.376018 46.415705 
L 417.376018 42.902675 
L 428.007961 42.902675 
L 428.007961 39.389645 
L 438.1825 39.389645 
L 438.1825 39.389645 
" style="fill:none;stroke:#f5deb3;stroke-linecap:square;stroke-width:1.5;"/>
   </g>
   <g id="line2d_10"/>
   <g id="line2d_11">
    <path clip-path="url(#pf2788247a0)" style="fill:none;stroke:#f5deb3;stroke-linecap:square;stroke-width:1.5;"/>
   </g>
   <g id="line2d_12">
    <path clip-path="url(#pf2788247a0)" d="M 436.569651 278.275665 
L 436.569651 274.762636 
L 436.569651 274.762636 
" style="fill:none;stroke:#f5deb3;stroke-linecap:square;stroke-width:1.5;"/>
   </g>
   <g id="line2d_13"/>
   <g id="line2d_14"/>
   <g id="line2d_15"/>
   <g id="line2d_16">
    <path clip-path="url(#pf2788247a0)" style="fill:none;stroke:#f5deb3;stroke-linecap:square;stroke-width:1.5;"/>
   </g>
   <g id="line2d_17">
    <path clip-path="url(#pf2788247a0)" style="fill:none;stroke:#f5deb3;stroke-linecap:square;stroke-width:1.5;"/>
   </g>
   <g id="line2d_18">
    <path clip-path="url(#pf2788247a0)" d="M 324.941335 278.275665 
L 324.941335 274.762636 
L 331.296268 274.762636 
L 331.296268 271.249606 
L 332.87211 271.249606 
L 332.87211 267.736576 
L 333.842195 267.736576 
L 333.842195 264.223546 
L 334.176318 264.223546 
L 334.176318 260.710517 
L 336.089837 260.710517 
L 336.089837 257.197487 
L 341.483518 257.197487 
L 341.483518 253.684457 
L 346.237766 253.684457 
L 346.237766 250.171428 
L 346.48403 250.171428 
L 346.48403 246.658398 
L 346.539534 246.658398 
L 346.539534 243.145368 
L 351.693403 243.145368 
L 351.693403 239.632338 
L 356.525003 239.632338 
L 356.525003 236.119309 
L 359.490459 236.119309 
L 359.490459 232.606279 
L 362.742398 232.606279 
L 362.742398 229.093249 
L 370.7327 229.093249 
L 370.7327 225.58022 
L 424.192494 225.58022 
L 424.192494 222.06719 
L 425.003138 222.06719 
L 425.003138 218.55416 
L 426.569028 218.55416 
L 426.569028 215.041131 
L 426.863116 215.041131 
L 426.863116 211.528101 
L 428.504551 211.528101 
L 428.504551 208.015071 
L 428.742791 208.015071 
L 428.742791 204.502041 
L 428.980102 204.502041 
L 428.980102 200.989012 
L 429.466649 200.989012 
L 429.466649 197.475982 
L 429.526922 197.475982 
L 429.526922 193.962952 
L 430.059901 193.962952 
L 430.059901 190.449923 
L 430.563991 190.449923 
L 430.563991 186.936893 
L 430.693629 186.936893 
L 430.693629 183.423863 
L 430.843384 183.423863 
L 430.843384 179.910834 
L 430.897387 179.910834 
L 430.897387 176.397804 
L 431.25981 176.397804 
L 431.25981 172.884774 
L 431.329271 172.884774 
L 431.329271 169.371744 
L 431.705793 169.371744 
L 431.705793 165.858715 
L 431.965449 165.858715 
L 431.965449 162.345685 
L 431.993093 162.345685 
L 431.993093 158.832655 
L 432.943351 158.832655 
L 432.943351 155.319626 
L 432.97486 155.319626 
L 432.97486 151.806596 
L 437.429458 151.806596 
L 437.429458 148.293566 
L 438.1825 148.293566 
" style="fill:none;stroke:#f5deb3;stroke-linecap:square;stroke-width:1.5;"/>
   </g>
   <g id="line2d_19"/>
   <g id="line2d_20"/>
   <g id="line2d_21"/>
   <g id="line2d_22"/>
   <g id="line2d_23"/>
   <g id="line2d_24">
    <path clip-path="url(#pf2788247a0)" d="M 369.830604 278.275665 
L 369.830604 274.762636 
L 371.221307 274.762636 
L 371.221307 271.249606 
L 372.167543 271.249606 
L 372.167543 267.736576 
L 372.879538 267.736576 
L 372.879538 264.223546 
L 373.505894 264.223546 
L 373.505894 260.710517 
L 375.653899 260.710517 
L 375.653899 257.197487 
L 376.325603 257.197487 
L 376.325603 253.684457 
L 376.739507 253.684457 
L 376.805015 246.658398 
L 377.581861 246.658398 
L 377.581861 243.145368 
L 378.432346 243.145368 
L 378.432346 239.632338 
L 379.646798 239.632338 
L 379.701298 232.606279 
L 380.275224 232.606279 
L 380.290947 225.58022 
L 381.051656 225.58022 
L 381.051656 222.06719 
L 382.102364 222.06719 
L 382.166309 215.041131 
L 382.397458 215.041131 
L 382.414898 208.015071 
L 383.488431 208.015071 
L 383.488431 204.502041 
L 383.800527 204.502041 
L 383.800527 200.989012 
L 384.441611 200.989012 
L 384.474833 193.962952 
L 384.567245 193.962952 
L 384.567245 190.449923 
L 384.925489 190.449923 
L 384.925489 186.936893 
L 385.840152 186.936893 
L 385.938784 179.910834 
L 386.008604 179.910834 
L 386.008604 176.397804 
L 386.443226 176.397804 
L 386.443226 172.884774 
L 386.644224 172.884774 
L 386.644224 169.371744 
L 388.114278 169.371744 
L 388.114278 165.858715 
L 388.696597 165.858715 
L 388.696597 162.345685 
L 389.103414 162.345685 
L 389.103414 158.832655 
L 389.297426 158.832655 
L 389.297426 155.319626 
L 389.428381 155.319626 
L 389.428381 151.806596 
L 389.823001 151.806596 
L 389.823001 148.293566 
L 391.794342 148.293566 
L 391.810289 141.267507 
L 392.401022 141.267507 
L 392.401022 137.754477 
L 393.346397 137.754477 
L 393.346397 134.241447 
L 394.349896 134.241447 
L 394.412706 127.215388 
L 394.897955 127.215388 
L 394.897955 123.702358 
L 395.417941 123.702358 
L 395.417941 120.189329 
L 401.766321 120.189329 
L 401.766321 116.676299 
L 402.030604 116.676299 
L 402.030604 113.163269 
L 402.682222 113.163269 
L 402.682222 109.650239 
L 402.983659 109.650239 
L 402.99665 102.62418 
L 403.690008 102.62418 
L 403.690008 99.11115 
L 403.903662 99.11115 
L 403.903662 95.598121 
L 404.494714 95.598121 
L 404.494714 92.085091 
L 405.2742 92.085091 
L 405.306759 85.059032 
L 406.377209 85.059032 
L 406.377209 81.546002 
L 406.53837 81.546002 
L 406.567862 74.519942 
L 408.384699 74.519942 
L 408.384699 71.006913 
L 413.061224 71.006913 
L 413.061224 67.493883 
L 422.517553 67.493883 
L 422.517553 63.980853 
L 431.912415 63.980853 
L 431.912415 60.467824 
L 432.605024 60.467824 
L 432.605024 56.954794 
L 435.616276 56.954794 
L 435.67962 49.928735 
L 436.251708 49.928735 
L 436.251708 46.415705 
L 436.528661 46.415705 
L 436.528661 42.902675 
L 436.907419 42.902675 
L 436.907419 39.389645 
L 437.261131 39.389645 
L 437.27366 32.363586 
L 437.672646 32.363586 
L 437.672646 28.850556 
L 438.1825 28.850556 
L 438.1825 28.850556 
" style="fill:none;stroke:#f5deb3;stroke-linecap:square;stroke-width:1.5;"/>
   </g>
   <g id="line2d_25"/>
   <g id="line2d_26">
    <path clip-path="url(#pf2788247a0)" d="M 375.171481 278.275665 
L 375.171481 274.762636 
L 392.952561 274.762636 
L 392.952561 271.249606 
L 393.042657 271.249606 
L 393.042657 267.736576 
L 398.208305 267.736576 
L 398.208305 264.223546 
L 400.993831 264.223546 
L 400.993831 260.710517 
L 401.671024 260.710517 
L 401.671024 257.197487 
L 403.110338 257.197487 
L 403.110338 253.684457 
L 403.309506 253.684457 
L 403.309506 250.171428 
L 403.364831 250.171428 
L 403.364831 246.658398 
L 403.841551 246.658398 
L 403.841551 243.145368 
L 403.958213 243.145368 
L 403.958213 239.632338 
L 404.588252 239.632338 
L 404.588252 236.119309 
L 404.701399 236.119309 
L 404.701399 232.606279 
L 404.768848 232.606279 
L 404.768848 229.093249 
L 404.842772 229.093249 
L 404.842772 225.58022 
L 405.290121 225.58022 
L 405.290121 222.06719 
L 405.415109 222.06719 
L 405.415109 218.55416 
L 405.526778 218.55416 
L 405.526778 215.041131 
L 406.23312 215.041131 
L 406.23312 211.528101 
L 406.966766 211.528101 
L 406.966766 208.015071 
L 407.561213 208.015071 
L 407.561213 204.502041 
L 407.57081 204.502041 
L 407.57081 200.989012 
L 407.647506 200.989012 
L 407.647506 197.475982 
L 408.692156 197.475982 
L 408.692156 193.962952 
L 408.79481 193.962952 
L 408.79481 190.449923 
L 408.852693 190.449923 
L 408.852693 186.936893 
L 408.986118 186.936893 
L 408.986118 183.423863 
L 410.208235 183.423863 
L 410.208235 179.910834 
L 410.63739 179.910834 
L 410.63739 176.397804 
L 412.67562 176.397804 
L 412.67562 172.884774 
L 413.191577 172.884774 
L 413.191577 169.371744 
L 414.294398 169.371744 
L 414.294398 165.858715 
L 416.653019 165.858715 
L 416.653019 162.345685 
L 416.752895 162.345685 
L 416.752895 158.832655 
L 422.866017 158.832655 
L 422.866017 155.319626 
L 426.780665 155.319626 
L 426.780665 151.806596 
L 435.654294 151.806596 
L 435.654294 148.293566 
L 438.1825 148.293566 
" style="fill:none;stroke:#f5deb3;stroke-linecap:square;stroke-width:1.5;"/>
   </g>
   <g id="line2d_27"/>
   <g id="line2d_28">
    <path clip-path="url(#pf2788247a0)" d="M 348.679558 278.275665 
L 348.679558 274.762636 
L 348.679558 274.762636 
L 348.679558 274.762636 
L 348.754408 274.762636 
L 348.754408 271.249606 
L 348.90095 271.249606 
L 348.90095 267.736576 
L 349.250037 267.736576 
L 349.310216 260.710517 
L 349.607113 260.710517 
L 349.607113 257.197487 
L 349.772357 257.197487 
L 349.772357 253.684457 
L 350.464178 253.684457 
L 350.464178 250.171428 
L 350.591644 250.171428 
L 350.647289 243.145368 
L 351.405701 243.145368 
L 351.405701 239.632338 
L 351.809481 239.632338 
L 351.809481 236.119309 
L 352.387661 236.119309 
L 352.46889 225.58022 
L 352.638456 225.58022 
L 352.638456 222.06719 
L 352.960518 222.06719 
L 352.960518 218.55416 
L 353.54794 218.55416 
L 353.54794 215.041131 
L 354.066287 215.041131 
L 354.066287 211.528101 
L 354.239282 211.528101 
L 354.239282 208.015071 
L 355.09614 208.015071 
L 355.09614 204.502041 
L 355.428388 204.502041 
L 355.428388 200.989012 
L 355.970931 200.989012 
L 355.970931 197.475982 
L 356.344977 197.475982 
L 356.344977 193.962952 
L 356.960337 193.962952 
L 356.960337 190.449923 
L 358.308464 190.449923 
L 358.352593 183.423863 
L 358.760796 183.423863 
L 358.760796 179.910834 
L 358.911226 179.910834 
L 358.911226 176.397804 
L 359.670382 176.397804 
L 359.670382 172.884774 
L 360.706972 172.884774 
L 360.752826 165.858715 
L 361.414211 165.858715 
L 361.500252 151.806596 
L 362.547218 151.806596 
L 362.547218 148.293566 
L 362.81387 148.293566 
L 362.81387 144.780537 
L 363.234283 144.780537 
L 363.234283 141.267507 
L 363.582424 141.267507 
L 363.582424 137.754477 
L 364.05117 137.754477 
L 364.064651 130.728418 
L 365.2569 130.728418 
L 365.2569 127.215388 
L 365.838756 127.215388 
L 365.838756 123.702358 
L 367.363461 123.702358 
L 367.363461 120.189329 
L 375.913404 120.189329 
L 375.913404 116.676299 
L 376.406124 116.676299 
L 376.406124 113.163269 
L 377.523147 113.163269 
L 377.523147 109.650239 
L 378.030679 109.650239 
L 378.030679 106.13721 
L 378.242995 106.13721 
L 378.242995 102.62418 
L 379.088453 102.62418 
L 379.088453 99.11115 
L 379.386623 99.11115 
L 379.386623 95.598121 
L 379.90141 95.598121 
L 379.90141 92.085091 
L 380.641853 92.085091 
L 380.641853 88.572061 
L 380.924101 88.572061 
L 380.924101 85.059032 
L 382.222652 85.059032 
L 382.222652 81.546002 
L 384.392916 81.546002 
L 384.392916 78.032972 
L 384.554225 78.032972 
L 384.554225 74.519942 
L 388.464203 74.519942 
L 388.464203 71.006913 
L 389.485283 71.006913 
L 389.485283 67.493883 
L 393.787957 67.493883 
L 393.787957 63.980853 
L 395.230015 63.980853 
L 395.230015 60.467824 
L 401.156172 60.467824 
L 401.156172 56.954794 
L 402.118851 56.954794 
L 402.118851 53.441764 
L 403.240436 53.441764 
L 403.328461 46.415705 
L 403.409494 46.415705 
L 403.409494 42.902675 
L 403.874489 42.902675 
L 403.874489 39.389645 
L 404.031335 39.389645 
L 404.031335 35.876616 
L 405.648915 35.876616 
L 405.712716 28.850556 
L 407.937954 28.850556 
L 407.937954 25.337527 
L 409.220084 25.337527 
L 409.220084 21.824497 
L 410.683249 21.824497 
L 410.683249 18.311467 
L 411.748667 18.311467 
L 411.748667 14.798437 
L 411.748667 14.798437 
L 426.4825 14.798437 
L 426.4825 14.798437 
" style="fill:none;stroke:#f5deb3;stroke-linecap:square;stroke-width:1.5;"/>
   </g>
   <g id="line2d_29"/>
   <g id="line2d_30"/>
   <g id="matplotlib.axis_1">
    <g id="xtick_1">
     <g id="line2d_31">
      <path clip-path="url(#pf2788247a0)" d="M 166.340412 278.275665 
L 166.340412 12.163665 
" style="fill:none;stroke:#b0b0b0;stroke-linecap:square;stroke-width:0.8;"/>
     </g>
     <g id="line2d_32">
      <defs>
       <path d="M 0 0 
L 0 3.5 
" id="m8ff317648e" style="stroke:#000000;stroke-width:0.8;"/>
      </defs>
      <g>
       <use style="stroke:#000000;stroke-width:0.8;" x="166.340412" xlink:href="#m8ff317648e" y="278.275665"/>
      </g>
     </g>
     <g id="text_1">
      <!-- 1 -->
      <defs>
       <path d="M 12.40625 8.296875 
L 28.515625 8.296875 
L 28.515625 63.921875 
L 10.984375 60.40625 
L 10.984375 69.390625 
L 28.421875 72.90625 
L 38.28125 72.90625 
L 38.28125 8.296875 
L 54.390625 8.296875 
L 54.390625 0 
L 12.40625 0 
z
" id="DejaVuSans-31"/>
      </defs>
      <g transform="translate(159.977912 300.47254)scale(0.2 -0.2)">
       <use xlink:href="#DejaVuSans-31"/>
      </g>
     </g>
    </g>
    <g id="xtick_2">
     <g id="line2d_33">
      <path clip-path="url(#pf2788247a0)" d="M 263.318323 278.275665 
L 263.318323 12.163665 
" style="fill:none;stroke:#b0b0b0;stroke-linecap:square;stroke-width:0.8;"/>
     </g>
     <g id="line2d_34">
      <g>
       <use style="stroke:#000000;stroke-width:0.8;" x="263.318323" xlink:href="#m8ff317648e" y="278.275665"/>
      </g>
     </g>
     <g id="text_2">
      <!-- 2 -->
      <defs>
       <path d="M 19.1875 8.296875 
L 53.609375 8.296875 
L 53.609375 0 
L 7.328125 0 
L 7.328125 8.296875 
Q 12.9375 14.109375 22.625 23.890625 
Q 32.328125 33.6875 34.8125 36.53125 
Q 39.546875 41.84375 41.421875 45.53125 
Q 43.3125 49.21875 43.3125 52.78125 
Q 43.3125 58.59375 39.234375 62.25 
Q 35.15625 65.921875 28.609375 65.921875 
Q 23.96875 65.921875 18.8125 64.3125 
Q 13.671875 62.703125 7.8125 59.421875 
L 7.8125 69.390625 
Q 13.765625 71.78125 18.9375 73 
Q 24.125 74.21875 28.421875 74.21875 
Q 39.75 74.21875 46.484375 68.546875 
Q 53.21875 62.890625 53.21875 53.421875 
Q 53.21875 48.921875 51.53125 44.890625 
Q 49.859375 40.875 45.40625 35.40625 
Q 44.1875 33.984375 37.640625 27.21875 
Q 31.109375 20.453125 19.1875 8.296875 
" id="DejaVuSans-32"/>
      </defs>
      <g transform="translate(256.955823 300.47254)scale(0.2 -0.2)">
       <use xlink:href="#DejaVuSans-32"/>
      </g>
     </g>
    </g>
    <g id="xtick_3">
     <g id="line2d_35">
      <path clip-path="url(#pf2788247a0)" d="M 360.296235 278.275665 
L 360.296235 12.163665 
" style="fill:none;stroke:#b0b0b0;stroke-linecap:square;stroke-width:0.8;"/>
     </g>
     <g id="line2d_36">
      <g>
       <use style="stroke:#000000;stroke-width:0.8;" x="360.296235" xlink:href="#m8ff317648e" y="278.275665"/>
      </g>
     </g>
     <g id="text_3">
      <!-- 3 -->
      <defs>
       <path d="M 40.578125 39.3125 
Q 47.65625 37.796875 51.625 33 
Q 55.609375 28.21875 55.609375 21.1875 
Q 55.609375 10.40625 48.1875 4.484375 
Q 40.765625 -1.421875 27.09375 -1.421875 
Q 22.515625 -1.421875 17.65625 -0.515625 
Q 12.796875 0.390625 7.625 2.203125 
L 7.625 11.71875 
Q 11.71875 9.328125 16.59375 8.109375 
Q 21.484375 6.890625 26.8125 6.890625 
Q 36.078125 6.890625 40.9375 10.546875 
Q 45.796875 14.203125 45.796875 21.1875 
Q 45.796875 27.640625 41.28125 31.265625 
Q 36.765625 34.90625 28.71875 34.90625 
L 20.21875 34.90625 
L 20.21875 43.015625 
L 29.109375 43.015625 
Q 36.375 43.015625 40.234375 45.921875 
Q 44.09375 48.828125 44.09375 54.296875 
Q 44.09375 59.90625 40.109375 62.90625 
Q 36.140625 65.921875 28.71875 65.921875 
Q 24.65625 65.921875 20.015625 65.03125 
Q 15.375 64.15625 9.8125 62.3125 
L 9.8125 71.09375 
Q 15.4375 72.65625 20.34375 73.4375 
Q 25.25 74.21875 29.59375 74.21875 
Q 40.828125 74.21875 47.359375 69.109375 
Q 53.90625 64.015625 53.90625 55.328125 
Q 53.90625 49.265625 50.4375 45.09375 
Q 46.96875 40.921875 40.578125 39.3125 
" id="DejaVuSans-33"/>
      </defs>
      <g transform="translate(353.933735 300.47254)scale(0.2 -0.2)">
       <use xlink:href="#DejaVuSans-33"/>
      </g>
     </g>
    </g>
    <g id="xtick_4">
     <g id="line2d_37">
      <defs>
       <path d="M 0 0 
L 0 2 
" id="mb901e151de" style="stroke:#000000;stroke-width:0.6;"/>
      </defs>
      <g>
       <use style="stroke:#000000;stroke-width:0.6;" x="98.55576" xlink:href="#mb901e151de" y="278.275665"/>
      </g>
     </g>
    </g>
    <g id="xtick_5">
     <g id="line2d_38">
      <g>
       <use style="stroke:#000000;stroke-width:0.6;" x="115.632723" xlink:href="#mb901e151de" y="278.275665"/>
      </g>
     </g>
    </g>
    <g id="xtick_6">
     <g id="line2d_39">
      <g>
       <use style="stroke:#000000;stroke-width:0.6;" x="127.749021" xlink:href="#mb901e151de" y="278.275665"/>
      </g>
     </g>
    </g>
    <g id="xtick_7">
     <g id="line2d_40">
      <g>
       <use style="stroke:#000000;stroke-width:0.6;" x="137.147151" xlink:href="#mb901e151de" y="278.275665"/>
      </g>
     </g>
    </g>
    <g id="xtick_8">
     <g id="line2d_41">
      <g>
       <use style="stroke:#000000;stroke-width:0.6;" x="144.825983" xlink:href="#mb901e151de" y="278.275665"/>
      </g>
     </g>
    </g>
    <g id="xtick_9">
     <g id="line2d_42">
      <g>
       <use style="stroke:#000000;stroke-width:0.6;" x="151.318343" xlink:href="#mb901e151de" y="278.275665"/>
      </g>
     </g>
    </g>
    <g id="xtick_10">
     <g id="line2d_43">
      <g>
       <use style="stroke:#000000;stroke-width:0.6;" x="156.942281" xlink:href="#mb901e151de" y="278.275665"/>
      </g>
     </g>
    </g>
    <g id="xtick_11">
     <g id="line2d_44">
      <g>
       <use style="stroke:#000000;stroke-width:0.6;" x="161.902946" xlink:href="#mb901e151de" y="278.275665"/>
      </g>
     </g>
    </g>
    <g id="xtick_12">
     <g id="line2d_45">
      <g>
       <use style="stroke:#000000;stroke-width:0.6;" x="195.533672" xlink:href="#mb901e151de" y="278.275665"/>
      </g>
     </g>
    </g>
    <g id="xtick_13">
     <g id="line2d_46">
      <g>
       <use style="stroke:#000000;stroke-width:0.6;" x="212.610635" xlink:href="#mb901e151de" y="278.275665"/>
      </g>
     </g>
    </g>
    <g id="xtick_14">
     <g id="line2d_47">
      <g>
       <use style="stroke:#000000;stroke-width:0.6;" x="224.726932" xlink:href="#mb901e151de" y="278.275665"/>
      </g>
     </g>
    </g>
    <g id="xtick_15">
     <g id="line2d_48">
      <g>
       <use style="stroke:#000000;stroke-width:0.6;" x="234.125063" xlink:href="#mb901e151de" y="278.275665"/>
      </g>
     </g>
    </g>
    <g id="xtick_16">
     <g id="line2d_49">
      <g>
       <use style="stroke:#000000;stroke-width:0.6;" x="241.803895" xlink:href="#mb901e151de" y="278.275665"/>
      </g>
     </g>
    </g>
    <g id="xtick_17">
     <g id="line2d_50">
      <g>
       <use style="stroke:#000000;stroke-width:0.6;" x="248.296255" xlink:href="#mb901e151de" y="278.275665"/>
      </g>
     </g>
    </g>
    <g id="xtick_18">
     <g id="line2d_51">
      <g>
       <use style="stroke:#000000;stroke-width:0.6;" x="253.920193" xlink:href="#mb901e151de" y="278.275665"/>
      </g>
     </g>
    </g>
    <g id="xtick_19">
     <g id="line2d_52">
      <g>
       <use style="stroke:#000000;stroke-width:0.6;" x="258.880857" xlink:href="#mb901e151de" y="278.275665"/>
      </g>
     </g>
    </g>
    <g id="xtick_20">
     <g id="line2d_53">
      <g>
       <use style="stroke:#000000;stroke-width:0.6;" x="292.511584" xlink:href="#mb901e151de" y="278.275665"/>
      </g>
     </g>
    </g>
    <g id="xtick_21">
     <g id="line2d_54">
      <g>
       <use style="stroke:#000000;stroke-width:0.6;" x="309.588546" xlink:href="#mb901e151de" y="278.275665"/>
      </g>
     </g>
    </g>
    <g id="xtick_22">
     <g id="line2d_55">
      <g>
       <use style="stroke:#000000;stroke-width:0.6;" x="321.704844" xlink:href="#mb901e151de" y="278.275665"/>
      </g>
     </g>
    </g>
    <g id="xtick_23">
     <g id="line2d_56">
      <g>
       <use style="stroke:#000000;stroke-width:0.6;" x="331.102975" xlink:href="#mb901e151de" y="278.275665"/>
      </g>
     </g>
    </g>
    <g id="xtick_24">
     <g id="line2d_57">
      <g>
       <use style="stroke:#000000;stroke-width:0.6;" x="338.781806" xlink:href="#mb901e151de" y="278.275665"/>
      </g>
     </g>
    </g>
    <g id="xtick_25">
     <g id="line2d_58">
      <g>
       <use style="stroke:#000000;stroke-width:0.6;" x="345.274166" xlink:href="#mb901e151de" y="278.275665"/>
      </g>
     </g>
    </g>
    <g id="xtick_26">
     <g id="line2d_59">
      <g>
       <use style="stroke:#000000;stroke-width:0.6;" x="350.898104" xlink:href="#mb901e151de" y="278.275665"/>
      </g>
     </g>
    </g>
    <g id="xtick_27">
     <g id="line2d_60">
      <g>
       <use style="stroke:#000000;stroke-width:0.6;" x="355.858769" xlink:href="#mb901e151de" y="278.275665"/>
      </g>
     </g>
    </g>
    <g id="xtick_28">
     <g id="line2d_61">
      <g>
       <use style="stroke:#000000;stroke-width:0.6;" x="389.489495" xlink:href="#mb901e151de" y="278.275665"/>
      </g>
     </g>
    </g>
    <g id="xtick_29">
     <g id="line2d_62">
      <g>
       <use style="stroke:#000000;stroke-width:0.6;" x="406.566458" xlink:href="#mb901e151de" y="278.275665"/>
      </g>
     </g>
    </g>
    <g id="xtick_30">
     <g id="line2d_63">
      <g>
       <use style="stroke:#000000;stroke-width:0.6;" x="418.682756" xlink:href="#mb901e151de" y="278.275665"/>
      </g>
     </g>
    </g>
    <g id="text_4">
     <!-- log10 of FEvals / DIM -->
     <defs>
      <path d="M 9.421875 75.984375 
L 18.40625 75.984375 
L 18.40625 0 
L 9.421875 0 
z
" id="DejaVuSans-6c"/>
      <path d="M 30.609375 48.390625 
Q 23.390625 48.390625 19.1875 42.75 
Q 14.984375 37.109375 14.984375 27.296875 
Q 14.984375 17.484375 19.15625 11.84375 
Q 23.34375 6.203125 30.609375 6.203125 
Q 37.796875 6.203125 41.984375 11.859375 
Q 46.1875 17.53125 46.1875 27.296875 
Q 46.1875 37.015625 41.984375 42.703125 
Q 37.796875 48.390625 30.609375 48.390625 
M 30.609375 56 
Q 42.328125 56 49.015625 48.375 
Q 55.71875 40.765625 55.71875 27.296875 
Q 55.71875 13.875 49.015625 6.21875 
Q 42.328125 -1.421875 30.609375 -1.421875 
Q 18.84375 -1.421875 12.171875 6.21875 
Q 5.515625 13.875 5.515625 27.296875 
Q 5.515625 40.765625 12.171875 48.375 
Q 18.84375 56 30.609375 56 
" id="DejaVuSans-6f"/>
      <path d="M 45.40625 27.984375 
Q 45.40625 37.75 41.375 43.109375 
Q 37.359375 48.484375 30.078125 48.484375 
Q 22.859375 48.484375 18.828125 43.109375 
Q 14.796875 37.75 14.796875 27.984375 
Q 14.796875 18.265625 18.828125 12.890625 
Q 22.859375 7.515625 30.078125 7.515625 
Q 37.359375 7.515625 41.375 12.890625 
Q 45.40625 18.265625 45.40625 27.984375 
M 54.390625 6.78125 
Q 54.390625 -7.171875 48.1875 -13.984375 
Q 42 -20.796875 29.203125 -20.796875 
Q 24.46875 -20.796875 20.265625 -20.09375 
Q 16.0625 -19.390625 12.109375 -17.921875 
L 12.109375 -9.1875 
Q 16.0625 -11.328125 19.921875 -12.34375 
Q 23.78125 -13.375 27.78125 -13.375 
Q 36.625 -13.375 41.015625 -8.765625 
Q 45.40625 -4.15625 45.40625 5.171875 
L 45.40625 9.625 
Q 42.625 4.78125 38.28125 2.390625 
Q 33.9375 0 27.875 0 
Q 17.828125 0 11.671875 7.65625 
Q 5.515625 15.328125 5.515625 27.984375 
Q 5.515625 40.671875 11.671875 48.328125 
Q 17.828125 56 27.875 56 
Q 33.9375 56 38.28125 53.609375 
Q 42.625 51.21875 45.40625 46.390625 
L 45.40625 54.6875 
L 54.390625 54.6875 
z
" id="DejaVuSans-67"/>
      <path d="M 31.78125 66.40625 
Q 24.171875 66.40625 20.328125 58.90625 
Q 16.5 51.421875 16.5 36.375 
Q 16.5 21.390625 20.328125 13.890625 
Q 24.171875 6.390625 31.78125 6.390625 
Q 39.453125 6.390625 43.28125 13.890625 
Q 47.125 21.390625 47.125 36.375 
Q 47.125 51.421875 43.28125 58.90625 
Q 39.453125 66.40625 31.78125 66.40625 
M 31.78125 74.21875 
Q 44.046875 74.21875 50.515625 64.515625 
Q 56.984375 54.828125 56.984375 36.375 
Q 56.984375 17.96875 50.515625 8.265625 
Q 44.046875 -1.421875 31.78125 -1.421875 
Q 19.53125 -1.421875 13.0625 8.265625 
Q 6.59375 17.96875 6.59375 36.375 
Q 6.59375 54.828125 13.0625 64.515625 
Q 19.53125 74.21875 31.78125 74.21875 
" id="DejaVuSans-30"/>
      <path id="DejaVuSans-20"/>
      <path d="M 37.109375 75.984375 
L 37.109375 68.5 
L 28.515625 68.5 
Q 23.6875 68.5 21.796875 66.546875 
Q 19.921875 64.59375 19.921875 59.515625 
L 19.921875 54.6875 
L 34.71875 54.6875 
L 34.71875 47.703125 
L 19.921875 47.703125 
L 19.921875 0 
L 10.890625 0 
L 10.890625 47.703125 
L 2.296875 47.703125 
L 2.296875 54.6875 
L 10.890625 54.6875 
L 10.890625 58.5 
Q 10.890625 67.625 15.140625 71.796875 
Q 19.390625 75.984375 28.609375 75.984375 
z
" id="DejaVuSans-66"/>
      <path d="M 9.8125 72.90625 
L 51.703125 72.90625 
L 51.703125 64.59375 
L 19.671875 64.59375 
L 19.671875 43.109375 
L 48.578125 43.109375 
L 48.578125 34.8125 
L 19.671875 34.8125 
L 19.671875 0 
L 9.8125 0 
z
" id="DejaVuSans-46"/>
      <path d="M 9.8125 72.90625 
L 55.90625 72.90625 
L 55.90625 64.59375 
L 19.671875 64.59375 
L 19.671875 43.015625 
L 54.390625 43.015625 
L 54.390625 34.71875 
L 19.671875 34.71875 
L 19.671875 8.296875 
L 56.78125 8.296875 
L 56.78125 0 
L 9.8125 0 
z
" id="DejaVuSans-45"/>
      <path d="M 2.984375 54.6875 
L 12.5 54.6875 
L 29.59375 8.796875 
L 46.6875 54.6875 
L 56.203125 54.6875 
L 35.6875 0 
L 23.484375 0 
z
" id="DejaVuSans-76"/>
      <path d="M 34.28125 27.484375 
Q 23.390625 27.484375 19.1875 25 
Q 14.984375 22.515625 14.984375 16.5 
Q 14.984375 11.71875 18.140625 8.90625 
Q 21.296875 6.109375 26.703125 6.109375 
Q 34.1875 6.109375 38.703125 11.40625 
Q 43.21875 16.703125 43.21875 25.484375 
L 43.21875 27.484375 
z
M 52.203125 31.203125 
L 52.203125 0 
L 43.21875 0 
L 43.21875 8.296875 
Q 40.140625 3.328125 35.546875 0.953125 
Q 30.953125 -1.421875 24.3125 -1.421875 
Q 15.921875 -1.421875 10.953125 3.296875 
Q 6 8.015625 6 15.921875 
Q 6 25.140625 12.171875 29.828125 
Q 18.359375 34.515625 30.609375 34.515625 
L 43.21875 34.515625 
L 43.21875 35.40625 
Q 43.21875 41.609375 39.140625 45 
Q 35.0625 48.390625 27.6875 48.390625 
Q 23 48.390625 18.546875 47.265625 
Q 14.109375 46.140625 10.015625 43.890625 
L 10.015625 52.203125 
Q 14.9375 54.109375 19.578125 55.046875 
Q 24.21875 56 28.609375 56 
Q 40.484375 56 46.34375 49.84375 
Q 52.203125 43.703125 52.203125 31.203125 
" id="DejaVuSans-61"/>
      <path d="M 44.28125 53.078125 
L 44.28125 44.578125 
Q 40.484375 46.53125 36.375 47.5 
Q 32.28125 48.484375 27.875 48.484375 
Q 21.1875 48.484375 17.84375 46.4375 
Q 14.5 44.390625 14.5 40.28125 
Q 14.5 37.15625 16.890625 35.375 
Q 19.28125 33.59375 26.515625 31.984375 
L 29.59375 31.296875 
Q 39.15625 29.25 43.1875 25.515625 
Q 47.21875 21.78125 47.21875 15.09375 
Q 47.21875 7.46875 41.1875 3.015625 
Q 35.15625 -1.421875 24.609375 -1.421875 
Q 20.21875 -1.421875 15.453125 -0.5625 
Q 10.6875 0.296875 5.421875 2 
L 5.421875 11.28125 
Q 10.40625 8.6875 15.234375 7.390625 
Q 20.0625 6.109375 24.8125 6.109375 
Q 31.15625 6.109375 34.5625 8.28125 
Q 37.984375 10.453125 37.984375 14.40625 
Q 37.984375 18.0625 35.515625 20.015625 
Q 33.0625 21.96875 24.703125 23.78125 
L 21.578125 24.515625 
Q 13.234375 26.265625 9.515625 29.90625 
Q 5.8125 33.546875 5.8125 39.890625 
Q 5.8125 47.609375 11.28125 51.796875 
Q 16.75 56 26.8125 56 
Q 31.78125 56 36.171875 55.265625 
Q 40.578125 54.546875 44.28125 53.078125 
" id="DejaVuSans-73"/>
      <path d="M 25.390625 72.90625 
L 33.6875 72.90625 
L 8.296875 -9.28125 
L 0 -9.28125 
z
" id="DejaVuSans-2f"/>
      <path d="M 19.671875 64.796875 
L 19.671875 8.109375 
L 31.59375 8.109375 
Q 46.6875 8.109375 53.6875 14.9375 
Q 60.6875 21.78125 60.6875 36.53125 
Q 60.6875 51.171875 53.6875 57.984375 
Q 46.6875 64.796875 31.59375 64.796875 
z
M 9.8125 72.90625 
L 30.078125 72.90625 
Q 51.265625 72.90625 61.171875 64.09375 
Q 71.09375 55.28125 71.09375 36.53125 
Q 71.09375 17.671875 61.125 8.828125 
Q 51.171875 0 30.078125 0 
L 9.8125 0 
z
" id="DejaVuSans-44"/>
      <path d="M 9.8125 72.90625 
L 19.671875 72.90625 
L 19.671875 0 
L 9.8125 0 
z
" id="DejaVuSans-49"/>
      <path d="M 9.8125 72.90625 
L 24.515625 72.90625 
L 43.109375 23.296875 
L 61.8125 72.90625 
L 76.515625 72.90625 
L 76.515625 0 
L 66.890625 0 
L 66.890625 64.015625 
L 48.09375 14.015625 
L 38.1875 14.015625 
L 19.390625 64.015625 
L 19.390625 0 
L 9.8125 0 
z
" id="DejaVuSans-4d"/>
     </defs>
     <g transform="translate(142.849063 323.82879)scale(0.2 -0.2)">
      <use xlink:href="#DejaVuSans-6c"/>
      <use x="27.783203" xlink:href="#DejaVuSans-6f"/>
      <use x="88.964844" xlink:href="#DejaVuSans-67"/>
      <use x="152.441406" xlink:href="#DejaVuSans-31"/>
      <use x="216.064453" xlink:href="#DejaVuSans-30"/>
      <use x="279.6875" xlink:href="#DejaVuSans-20"/>
      <use x="311.474609" xlink:href="#DejaVuSans-6f"/>
      <use x="372.65625" xlink:href="#DejaVuSans-66"/>
      <use x="407.861328" xlink:href="#DejaVuSans-20"/>
      <use x="439.648438" xlink:href="#DejaVuSans-46"/>
      <use x="497.167969" xlink:href="#DejaVuSans-45"/>
      <use x="560.351562" xlink:href="#DejaVuSans-76"/>
      <use x="619.53125" xlink:href="#DejaVuSans-61"/>
      <use x="680.810547" xlink:href="#DejaVuSans-6c"/>
      <use x="708.59375" xlink:href="#DejaVuSans-73"/>
      <use x="760.693359" xlink:href="#DejaVuSans-20"/>
      <use x="792.480469" xlink:href="#DejaVuSans-2f"/>
      <use x="826.171875" xlink:href="#DejaVuSans-20"/>
      <use x="857.958984" xlink:href="#DejaVuSans-44"/>
      <use x="934.960938" xlink:href="#DejaVuSans-49"/>
      <use x="964.453125" xlink:href="#DejaVuSans-4d"/>
     </g>
    </g>
   </g>
   <g id="matplotlib.axis_2">
    <g id="ytick_1">
     <g id="line2d_64">
      <path clip-path="url(#pf2788247a0)" d="M 69.3625 278.275665 
L 426.4825 278.275665 
" style="fill:none;stroke:#b0b0b0;stroke-linecap:square;stroke-width:0.8;"/>
     </g>
     <g id="line2d_65">
      <defs>
       <path d="M 0 0 
L -3.5 0 
" id="m5c804d0a95" style="stroke:#000000;stroke-width:0.8;"/>
      </defs>
      <g>
       <use style="stroke:#000000;stroke-width:0.8;" x="69.3625" xlink:href="#m5c804d0a95" y="278.275665"/>
      </g>
     </g>
     <g id="text_5">
      <!-- 0.0 -->
      <defs>
       <path d="M 10.6875 12.40625 
L 21 12.40625 
L 21 0 
L 10.6875 0 
z
" id="DejaVuSans-2e"/>
      </defs>
      <g transform="translate(30.55625 285.874103)scale(0.2 -0.2)">
       <use xlink:href="#DejaVuSans-30"/>
       <use x="63.623047" xlink:href="#DejaVuSans-2e"/>
       <use x="95.410156" xlink:href="#DejaVuSans-30"/>
      </g>
     </g>
    </g>
    <g id="ytick_2">
     <g id="line2d_66">
      <path clip-path="url(#pf2788247a0)" d="M 69.3625 225.58022 
L 426.4825 225.58022 
" style="fill:none;stroke:#b0b0b0;stroke-linecap:square;stroke-width:0.8;"/>
     </g>
     <g id="line2d_67">
      <g>
       <use style="stroke:#000000;stroke-width:0.8;" x="69.3625" xlink:href="#m5c804d0a95" y="225.58022"/>
      </g>
     </g>
     <g id="text_6">
      <!-- 0.2 -->
      <g transform="translate(30.55625 233.178657)scale(0.2 -0.2)">
       <use xlink:href="#DejaVuSans-30"/>
       <use x="63.623047" xlink:href="#DejaVuSans-2e"/>
       <use x="95.410156" xlink:href="#DejaVuSans-32"/>
      </g>
     </g>
    </g>
    <g id="ytick_3">
     <g id="line2d_68">
      <path clip-path="url(#pf2788247a0)" d="M 69.3625 172.884774 
L 426.4825 172.884774 
" style="fill:none;stroke:#b0b0b0;stroke-linecap:square;stroke-width:0.8;"/>
     </g>
     <g id="line2d_69">
      <g>
       <use style="stroke:#000000;stroke-width:0.8;" x="69.3625" xlink:href="#m5c804d0a95" y="172.884774"/>
      </g>
     </g>
     <g id="text_7">
      <!-- 0.4 -->
      <defs>
       <path d="M 37.796875 64.3125 
L 12.890625 25.390625 
L 37.796875 25.390625 
z
M 35.203125 72.90625 
L 47.609375 72.90625 
L 47.609375 25.390625 
L 58.015625 25.390625 
L 58.015625 17.1875 
L 47.609375 17.1875 
L 47.609375 0 
L 37.796875 0 
L 37.796875 17.1875 
L 4.890625 17.1875 
L 4.890625 26.703125 
z
" id="DejaVuSans-34"/>
      </defs>
      <g transform="translate(30.55625 180.483212)scale(0.2 -0.2)">
       <use xlink:href="#DejaVuSans-30"/>
       <use x="63.623047" xlink:href="#DejaVuSans-2e"/>
       <use x="95.410156" xlink:href="#DejaVuSans-34"/>
      </g>
     </g>
    </g>
    <g id="ytick_4">
     <g id="line2d_70">
      <path clip-path="url(#pf2788247a0)" d="M 69.3625 120.189329 
L 426.4825 120.189329 
" style="fill:none;stroke:#b0b0b0;stroke-linecap:square;stroke-width:0.8;"/>
     </g>
     <g id="line2d_71">
      <g>
       <use style="stroke:#000000;stroke-width:0.8;" x="69.3625" xlink:href="#m5c804d0a95" y="120.189329"/>
      </g>
     </g>
     <g id="text_8">
      <!-- 0.6 -->
      <defs>
       <path d="M 33.015625 40.375 
Q 26.375 40.375 22.484375 35.828125 
Q 18.609375 31.296875 18.609375 23.390625 
Q 18.609375 15.53125 22.484375 10.953125 
Q 26.375 6.390625 33.015625 6.390625 
Q 39.65625 6.390625 43.53125 10.953125 
Q 47.40625 15.53125 47.40625 23.390625 
Q 47.40625 31.296875 43.53125 35.828125 
Q 39.65625 40.375 33.015625 40.375 
M 52.59375 71.296875 
L 52.59375 62.3125 
Q 48.875 64.0625 45.09375 64.984375 
Q 41.3125 65.921875 37.59375 65.921875 
Q 27.828125 65.921875 22.671875 59.328125 
Q 17.53125 52.734375 16.796875 39.40625 
Q 19.671875 43.65625 24.015625 45.921875 
Q 28.375 48.1875 33.59375 48.1875 
Q 44.578125 48.1875 50.953125 41.515625 
Q 57.328125 34.859375 57.328125 23.390625 
Q 57.328125 12.15625 50.6875 5.359375 
Q 44.046875 -1.421875 33.015625 -1.421875 
Q 20.359375 -1.421875 13.671875 8.265625 
Q 6.984375 17.96875 6.984375 36.375 
Q 6.984375 53.65625 15.1875 63.9375 
Q 23.390625 74.21875 37.203125 74.21875 
Q 40.921875 74.21875 44.703125 73.484375 
Q 48.484375 72.75 52.59375 71.296875 
" id="DejaVuSans-36"/>
      </defs>
      <g transform="translate(30.55625 127.787766)scale(0.2 -0.2)">
       <use xlink:href="#DejaVuSans-30"/>
       <use x="63.623047" xlink:href="#DejaVuSans-2e"/>
       <use x="95.410156" xlink:href="#DejaVuSans-36"/>
      </g>
     </g>
    </g>
    <g id="ytick_5">
     <g id="line2d_72">
      <path clip-path="url(#pf2788247a0)" d="M 69.3625 67.493883 
L 426.4825 67.493883 
" style="fill:none;stroke:#b0b0b0;stroke-linecap:square;stroke-width:0.8;"/>
     </g>
     <g id="line2d_73">
      <g>
       <use style="stroke:#000000;stroke-width:0.8;" x="69.3625" xlink:href="#m5c804d0a95" y="67.493883"/>
      </g>
     </g>
     <g id="text_9">
      <!-- 0.8 -->
      <defs>
       <path d="M 31.78125 34.625 
Q 24.75 34.625 20.71875 30.859375 
Q 16.703125 27.09375 16.703125 20.515625 
Q 16.703125 13.921875 20.71875 10.15625 
Q 24.75 6.390625 31.78125 6.390625 
Q 38.8125 6.390625 42.859375 10.171875 
Q 46.921875 13.96875 46.921875 20.515625 
Q 46.921875 27.09375 42.890625 30.859375 
Q 38.875 34.625 31.78125 34.625 
M 21.921875 38.8125 
Q 15.578125 40.375 12.03125 44.71875 
Q 8.5 49.078125 8.5 55.328125 
Q 8.5 64.0625 14.71875 69.140625 
Q 20.953125 74.21875 31.78125 74.21875 
Q 42.671875 74.21875 48.875 69.140625 
Q 55.078125 64.0625 55.078125 55.328125 
Q 55.078125 49.078125 51.53125 44.71875 
Q 48 40.375 41.703125 38.8125 
Q 48.828125 37.15625 52.796875 32.3125 
Q 56.78125 27.484375 56.78125 20.515625 
Q 56.78125 9.90625 50.3125 4.234375 
Q 43.84375 -1.421875 31.78125 -1.421875 
Q 19.734375 -1.421875 13.25 4.234375 
Q 6.78125 9.90625 6.78125 20.515625 
Q 6.78125 27.484375 10.78125 32.3125 
Q 14.796875 37.15625 21.921875 38.8125 
M 18.3125 54.390625 
Q 18.3125 48.734375 21.84375 45.5625 
Q 25.390625 42.390625 31.78125 42.390625 
Q 38.140625 42.390625 41.71875 45.5625 
Q 45.3125 48.734375 45.3125 54.390625 
Q 45.3125 60.0625 41.71875 63.234375 
Q 38.140625 66.40625 31.78125 66.40625 
Q 25.390625 66.40625 21.84375 63.234375 
Q 18.3125 60.0625 18.3125 54.390625 
" id="DejaVuSans-38"/>
      </defs>
      <g transform="translate(30.55625 75.092321)scale(0.2 -0.2)">
       <use xlink:href="#DejaVuSans-30"/>
       <use x="63.623047" xlink:href="#DejaVuSans-2e"/>
       <use x="95.410156" xlink:href="#DejaVuSans-38"/>
      </g>
     </g>
    </g>
    <g id="ytick_6">
     <g id="line2d_74">
      <path clip-path="url(#pf2788247a0)" d="M 69.3625 14.798437 
L 426.4825 14.798437 
" style="fill:none;stroke:#b0b0b0;stroke-linecap:square;stroke-width:0.8;"/>
     </g>
     <g id="line2d_75">
      <g>
       <use style="stroke:#000000;stroke-width:0.8;" x="69.3625" xlink:href="#m5c804d0a95" y="14.798437"/>
      </g>
     </g>
     <g id="text_10">
      <!-- 1.0 -->
      <g transform="translate(30.55625 22.396875)scale(0.2 -0.2)">
       <use xlink:href="#DejaVuSans-31"/>
       <use x="63.623047" xlink:href="#DejaVuSans-2e"/>
       <use x="95.410156" xlink:href="#DejaVuSans-30"/>
      </g>
     </g>
    </g>
    <g id="text_11">
     <!-- proportion of trials -->
     <defs>
      <path d="M 18.109375 8.203125 
L 18.109375 -20.796875 
L 9.078125 -20.796875 
L 9.078125 54.6875 
L 18.109375 54.6875 
L 18.109375 46.390625 
Q 20.953125 51.265625 25.265625 53.625 
Q 29.59375 56 35.59375 56 
Q 45.5625 56 51.78125 48.09375 
Q 58.015625 40.1875 58.015625 27.296875 
Q 58.015625 14.40625 51.78125 6.484375 
Q 45.5625 -1.421875 35.59375 -1.421875 
Q 29.59375 -1.421875 25.265625 0.953125 
Q 20.953125 3.328125 18.109375 8.203125 
M 48.6875 27.296875 
Q 48.6875 37.203125 44.609375 42.84375 
Q 40.53125 48.484375 33.40625 48.484375 
Q 26.265625 48.484375 22.1875 42.84375 
Q 18.109375 37.203125 18.109375 27.296875 
Q 18.109375 17.390625 22.1875 11.75 
Q 26.265625 6.109375 33.40625 6.109375 
Q 40.53125 6.109375 44.609375 11.75 
Q 48.6875 17.390625 48.6875 27.296875 
" id="DejaVuSans-70"/>
      <path d="M 41.109375 46.296875 
Q 39.59375 47.171875 37.8125 47.578125 
Q 36.03125 48 33.890625 48 
Q 26.265625 48 22.1875 43.046875 
Q 18.109375 38.09375 18.109375 28.8125 
L 18.109375 0 
L 9.078125 0 
L 9.078125 54.6875 
L 18.109375 54.6875 
L 18.109375 46.1875 
Q 20.953125 51.171875 25.484375 53.578125 
Q 30.03125 56 36.53125 56 
Q 37.453125 56 38.578125 55.875 
Q 39.703125 55.765625 41.0625 55.515625 
z
" id="DejaVuSans-72"/>
      <path d="M 18.3125 70.21875 
L 18.3125 54.6875 
L 36.8125 54.6875 
L 36.8125 47.703125 
L 18.3125 47.703125 
L 18.3125 18.015625 
Q 18.3125 11.328125 20.140625 9.421875 
Q 21.96875 7.515625 27.59375 7.515625 
L 36.8125 7.515625 
L 36.8125 0 
L 27.59375 0 
Q 17.1875 0 13.234375 3.875 
Q 9.28125 7.765625 9.28125 18.015625 
L 9.28125 47.703125 
L 2.6875 47.703125 
L 2.6875 54.6875 
L 9.28125 54.6875 
L 9.28125 70.21875 
z
" id="DejaVuSans-74"/>
      <path d="M 9.421875 54.6875 
L 18.40625 54.6875 
L 18.40625 0 
L 9.421875 0 
z
M 9.421875 75.984375 
L 18.40625 75.984375 
L 18.40625 64.59375 
L 9.421875 64.59375 
z
" id="DejaVuSans-69"/>
      <path d="M 54.890625 33.015625 
L 54.890625 0 
L 45.90625 0 
L 45.90625 32.71875 
Q 45.90625 40.484375 42.875 44.328125 
Q 39.84375 48.1875 33.796875 48.1875 
Q 26.515625 48.1875 22.3125 43.546875 
Q 18.109375 38.921875 18.109375 30.90625 
L 18.109375 0 
L 9.078125 0 
L 9.078125 54.6875 
L 18.109375 54.6875 
L 18.109375 46.1875 
Q 21.34375 51.125 25.703125 53.5625 
Q 30.078125 56 35.796875 56 
Q 45.21875 56 50.046875 50.171875 
Q 54.890625 44.34375 54.890625 33.015625 
" id="DejaVuSans-6e"/>
     </defs>
     <g transform="translate(22.396875 238.44779)rotate(-90)scale(0.2 -0.2)">
      <use xlink:href="#DejaVuSans-70"/>
      <use x="63.476562" xlink:href="#DejaVuSans-72"/>
      <use x="104.558594" xlink:href="#DejaVuSans-6f"/>
      <use x="165.740234" xlink:href="#DejaVuSans-70"/>
      <use x="229.216797" xlink:href="#DejaVuSans-6f"/>
      <use x="290.398438" xlink:href="#DejaVuSans-72"/>
      <use x="331.511719" xlink:href="#DejaVuSans-74"/>
      <use x="370.720703" xlink:href="#DejaVuSans-69"/>
      <use x="398.503906" xlink:href="#DejaVuSans-6f"/>
      <use x="459.685547" xlink:href="#DejaVuSans-6e"/>
      <use x="523.064453" xlink:href="#DejaVuSans-20"/>
      <use x="554.851562" xlink:href="#DejaVuSans-6f"/>
      <use x="616.033203" xlink:href="#DejaVuSans-66"/>
      <use x="651.238281" xlink:href="#DejaVuSans-20"/>
      <use x="683.025391" xlink:href="#DejaVuSans-74"/>
      <use x="722.234375" xlink:href="#DejaVuSans-72"/>
      <use x="763.347656" xlink:href="#DejaVuSans-69"/>
      <use x="791.130859" xlink:href="#DejaVuSans-61"/>
      <use x="852.410156" xlink:href="#DejaVuSans-6c"/>
      <use x="880.193359" xlink:href="#DejaVuSans-73"/>
     </g>
    </g>
   </g>
   <g id="line2d_76"/>
   <g id="line2d_77"/>
   <g id="line2d_78"/>
   <g id="line2d_79"/>
   <g id="line2d_80">
    <path clip-path="url(#pf2788247a0)" d="M 426.468937 278.275665 
L 426.468937 12.163665 
" style="fill:none;stroke:#000000;stroke-linecap:square;stroke-width:1.5;"/>
   </g>
   <g id="patch_3">
    <path d="M 69.3625 278.275665 
L 69.3625 12.163665 
" style="fill:none;stroke:#000000;stroke-linecap:square;stroke-linejoin:miter;stroke-width:0.8;"/>
   </g>
   <g id="patch_4">
    <path d="M 426.4825 278.275665 
L 426.4825 12.163665 
" style="fill:none;stroke:#000000;stroke-linecap:square;stroke-linejoin:miter;stroke-width:0.8;"/>
   </g>
   <g id="patch_5">
    <path d="M 69.3625 278.275665 
L 426.4825 278.275665 
" style="fill:none;stroke:#000000;stroke-linecap:square;stroke-linejoin:miter;stroke-width:0.8;"/>
   </g>
   <g id="patch_6">
    <path d="M 69.3625 12.163665 
L 426.4825 12.163665 
" style="fill:none;stroke:#000000;stroke-linecap:square;stroke-linejoin:miter;stroke-width:0.8;"/>
   </g>
   <g id="text_12">
    <!-- {f10-f14}, 20-D -->
    <defs>
     <path d="M 51.125 -9.28125 
L 51.125 -16.3125 
L 48.09375 -16.3125 
Q 35.9375 -16.3125 31.8125 -12.6875 
Q 27.6875 -9.078125 27.6875 1.703125 
L 27.6875 13.375 
Q 27.6875 20.75 25.046875 23.578125 
Q 22.40625 26.421875 15.484375 26.421875 
L 12.5 26.421875 
L 12.5 33.40625 
L 15.484375 33.40625 
Q 22.46875 33.40625 25.078125 36.203125 
Q 27.6875 39.015625 27.6875 46.296875 
L 27.6875 58.015625 
Q 27.6875 68.796875 31.8125 72.390625 
Q 35.9375 75.984375 48.09375 75.984375 
L 51.125 75.984375 
L 51.125 69 
L 47.796875 69 
Q 40.921875 69 38.8125 66.84375 
Q 36.71875 64.703125 36.71875 57.8125 
L 36.71875 45.703125 
Q 36.71875 38.03125 34.5 34.5625 
Q 32.28125 31.109375 26.90625 29.890625 
Q 32.328125 28.5625 34.515625 25.09375 
Q 36.71875 21.625 36.71875 14.015625 
L 36.71875 1.90625 
Q 36.71875 -4.984375 38.8125 -7.125 
Q 40.921875 -9.28125 47.796875 -9.28125 
z
" id="DejaVuSans-7b"/>
     <path d="M 4.890625 31.390625 
L 31.203125 31.390625 
L 31.203125 23.390625 
L 4.890625 23.390625 
z
" id="DejaVuSans-2d"/>
     <path d="M 12.5 -9.28125 
L 15.921875 -9.28125 
Q 22.75 -9.28125 24.828125 -7.171875 
Q 26.90625 -5.078125 26.90625 1.90625 
L 26.90625 14.015625 
Q 26.90625 21.625 29.09375 25.09375 
Q 31.296875 28.5625 36.71875 29.890625 
Q 31.296875 31.109375 29.09375 34.5625 
Q 26.90625 38.03125 26.90625 45.703125 
L 26.90625 57.8125 
Q 26.90625 64.75 24.828125 66.875 
Q 22.75 69 15.921875 69 
L 12.5 69 
L 12.5 75.984375 
L 15.578125 75.984375 
Q 27.734375 75.984375 31.8125 72.390625 
Q 35.890625 68.796875 35.890625 58.015625 
L 35.890625 46.296875 
Q 35.890625 39.015625 38.515625 36.203125 
Q 41.15625 33.40625 48.09375 33.40625 
L 51.125 33.40625 
L 51.125 26.421875 
L 48.09375 26.421875 
Q 41.15625 26.421875 38.515625 23.578125 
Q 35.890625 20.75 35.890625 13.375 
L 35.890625 1.703125 
Q 35.890625 -9.078125 31.8125 -12.6875 
Q 27.734375 -16.3125 15.578125 -16.3125 
L 12.5 -16.3125 
z
" id="DejaVuSans-7d"/>
     <path d="M 11.71875 12.40625 
L 22.015625 12.40625 
L 22.015625 4 
L 14.015625 -11.625 
L 7.71875 -11.625 
L 11.71875 4 
z
" id="DejaVuSans-2c"/>
    </defs>
    <g transform="translate(168.71 32.68278)scale(0.2 -0.2)">
     <use xlink:href="#DejaVuSans-7b"/>
     <use x="63.623047" xlink:href="#DejaVuSans-66"/>
     <use x="98.828125" xlink:href="#DejaVuSans-31"/>
     <use x="162.451172" xlink:href="#DejaVuSans-30"/>
     <use x="226.074219" xlink:href="#DejaVuSans-2d"/>
     <use x="262.158203" xlink:href="#DejaVuSans-66"/>
     <use x="297.363281" xlink:href="#DejaVuSans-31"/>
     <use x="360.986328" xlink:href="#DejaVuSans-34"/>
     <use x="424.609375" xlink:href="#DejaVuSans-7d"/>
     <use x="488.232422" xlink:href="#DejaVuSans-2c"/>
     <use x="520.019531" xlink:href="#DejaVuSans-20"/>
     <use x="551.806641" xlink:href="#DejaVuSans-32"/>
     <use x="615.429688" xlink:href="#DejaVuSans-30"/>
     <use x="679.052734" xlink:href="#DejaVuSans-2d"/>
     <use x="715.136719" xlink:href="#DejaVuSans-44"/>
    </g>
   </g>
   <g id="text_13">
    <!-- absolute targets -->
    <defs>
     <path d="M 48.6875 27.296875 
Q 48.6875 37.203125 44.609375 42.84375 
Q 40.53125 48.484375 33.40625 48.484375 
Q 26.265625 48.484375 22.1875 42.84375 
Q 18.109375 37.203125 18.109375 27.296875 
Q 18.109375 17.390625 22.1875 11.75 
Q 26.265625 6.109375 33.40625 6.109375 
Q 40.53125 6.109375 44.609375 11.75 
Q 48.6875 17.390625 48.6875 27.296875 
M 18.109375 46.390625 
Q 20.953125 51.265625 25.265625 53.625 
Q 29.59375 56 35.59375 56 
Q 45.5625 56 51.78125 48.09375 
Q 58.015625 40.1875 58.015625 27.296875 
Q 58.015625 14.40625 51.78125 6.484375 
Q 45.5625 -1.421875 35.59375 -1.421875 
Q 29.59375 -1.421875 25.265625 0.953125 
Q 20.953125 3.328125 18.109375 8.203125 
L 18.109375 0 
L 9.078125 0 
L 9.078125 75.984375 
L 18.109375 75.984375 
z
" id="DejaVuSans-62"/>
     <path d="M 8.5 21.578125 
L 8.5 54.6875 
L 17.484375 54.6875 
L 17.484375 21.921875 
Q 17.484375 14.15625 20.5 10.265625 
Q 23.53125 6.390625 29.59375 6.390625 
Q 36.859375 6.390625 41.078125 11.03125 
Q 45.3125 15.671875 45.3125 23.6875 
L 45.3125 54.6875 
L 54.296875 54.6875 
L 54.296875 0 
L 45.3125 0 
L 45.3125 8.40625 
Q 42.046875 3.421875 37.71875 1 
Q 33.40625 -1.421875 27.6875 -1.421875 
Q 18.265625 -1.421875 13.375 4.4375 
Q 8.5 10.296875 8.5 21.578125 
M 31.109375 56 
z
" id="DejaVuSans-75"/>
     <path d="M 56.203125 29.59375 
L 56.203125 25.203125 
L 14.890625 25.203125 
Q 15.484375 15.921875 20.484375 11.0625 
Q 25.484375 6.203125 34.421875 6.203125 
Q 39.59375 6.203125 44.453125 7.46875 
Q 49.3125 8.734375 54.109375 11.28125 
L 54.109375 2.78125 
Q 49.265625 0.734375 44.1875 -0.34375 
Q 39.109375 -1.421875 33.890625 -1.421875 
Q 20.796875 -1.421875 13.15625 6.1875 
Q 5.515625 13.8125 5.515625 26.8125 
Q 5.515625 40.234375 12.765625 48.109375 
Q 20.015625 56 32.328125 56 
Q 43.359375 56 49.78125 48.890625 
Q 56.203125 41.796875 56.203125 29.59375 
M 47.21875 32.234375 
Q 47.125 39.59375 43.09375 43.984375 
Q 39.0625 48.390625 32.421875 48.390625 
Q 24.90625 48.390625 20.390625 44.140625 
Q 15.875 39.890625 15.1875 32.171875 
z
" id="DejaVuSans-65"/>
    </defs>
    <g transform="translate(69.3625 291.449527)scale(0.14 -0.14)">
     <use xlink:href="#DejaVuSans-61"/>
     <use x="61.279297" xlink:href="#DejaVuSans-62"/>
     <use x="124.755859" xlink:href="#DejaVuSans-73"/>
     <use x="176.855469" xlink:href="#DejaVuSans-6f"/>
     <use x="238.037109" xlink:href="#DejaVuSans-6c"/>
     <use x="265.820312" xlink:href="#DejaVuSans-75"/>
     <use x="329.199219" xlink:href="#DejaVuSans-74"/>
     <use x="368.408203" xlink:href="#DejaVuSans-65"/>
     <use x="429.931641" xlink:href="#DejaVuSans-20"/>
     <use x="461.71875" xlink:href="#DejaVuSans-74"/>
     <use x="500.927734" xlink:href="#DejaVuSans-61"/>
     <use x="562.207031" xlink:href="#DejaVuSans-72"/>
     <use x="603.304688" xlink:href="#DejaVuSans-67"/>
     <use x="666.78125" xlink:href="#DejaVuSans-65"/>
     <use x="728.304688" xlink:href="#DejaVuSans-74"/>
     <use x="767.513672" xlink:href="#DejaVuSans-73"/>
    </g>
   </g>
   <g id="text_14">
    <!-- v2.1 -->
    <g style="fill:#808080;" transform="translate(237.011563 273.534858)scale(0.1 -0.1)">
     <use xlink:href="#DejaVuSans-76"/>
     <use x="59.179688" xlink:href="#DejaVuSans-32"/>
     <use x="122.802734" xlink:href="#DejaVuSans-2e"/>
     <use x="154.589844" xlink:href="#DejaVuSans-31"/>
    </g>
   </g>
   <g id="legend_1">
    <g id="patch_7">
     <path d="M 83.3625 145.588665 
L 212.584375 145.588665 
Q 216.584375 145.588665 216.584375 141.588665 
L 216.584375 26.163665 
Q 216.584375 22.163665 212.584375 22.163665 
L 83.3625 22.163665 
Q 79.3625 22.163665 79.3625 26.163665 
L 79.3625 141.588665 
Q 79.3625 145.588665 83.3625 145.588665 
z
" style="fill:#ffffff;opacity:0.2;stroke:#cccccc;stroke-linejoin:miter;"/>
    </g>
    <g id="line2d_81">
     <path d="M 87.3625 38.36054 
L 127.3625 38.36054 
" style="fill:none;stroke:#000000;stroke-linecap:square;stroke-width:1.5;"/>
    </g>
    <g id="line2d_82"/>
    <g id="text_15">
     <!-- 1: 0/5 -->
     <defs>
      <path d="M 11.71875 12.40625 
L 22.015625 12.40625 
L 22.015625 0 
L 11.71875 0 
z
M 11.71875 51.703125 
L 22.015625 51.703125 
L 22.015625 39.3125 
L 11.71875 39.3125 
z
" id="DejaVuSans-3a"/>
      <path d="M 10.796875 72.90625 
L 49.515625 72.90625 
L 49.515625 64.59375 
L 19.828125 64.59375 
L 19.828125 46.734375 
Q 21.96875 47.46875 24.109375 47.828125 
Q 26.265625 48.1875 28.421875 48.1875 
Q 40.625 48.1875 47.75 41.5 
Q 54.890625 34.8125 54.890625 23.390625 
Q 54.890625 11.625 47.5625 5.09375 
Q 40.234375 -1.421875 26.90625 -1.421875 
Q 22.3125 -1.421875 17.546875 -0.640625 
Q 12.796875 0.140625 7.71875 1.703125 
L 7.71875 11.625 
Q 12.109375 9.234375 16.796875 8.0625 
Q 21.484375 6.890625 26.703125 6.890625 
Q 35.15625 6.890625 40.078125 11.328125 
Q 45.015625 15.765625 45.015625 23.390625 
Q 45.015625 31 40.078125 35.4375 
Q 35.15625 39.890625 26.703125 39.890625 
Q 22.75 39.890625 18.8125 39.015625 
Q 14.890625 38.140625 10.796875 36.28125 
z
" id="DejaVuSans-35"/>
     </defs>
     <g transform="translate(143.3625 45.36054)scale(0.2 -0.2)">
      <use xlink:href="#DejaVuSans-31"/>
      <use x="63.623047" xlink:href="#DejaVuSans-3a"/>
      <use x="97.314453" xlink:href="#DejaVuSans-20"/>
      <use x="129.101562" xlink:href="#DejaVuSans-30"/>
      <use x="192.724609" xlink:href="#DejaVuSans-2f"/>
      <use x="226.416016" xlink:href="#DejaVuSans-35"/>
     </g>
    </g>
    <g id="line2d_83">
     <path d="M 87.3625 67.71679 
L 127.3625 67.71679 
" style="fill:none;stroke:#00bfbf;stroke-linecap:square;stroke-width:1.5;"/>
    </g>
    <g id="line2d_84"/>
    <g id="text_16">
     <!-- -1: 0/5 -->
     <g transform="translate(143.3625 74.71679)scale(0.2 -0.2)">
      <use xlink:href="#DejaVuSans-2d"/>
      <use x="36.083984" xlink:href="#DejaVuSans-31"/>
      <use x="99.707031" xlink:href="#DejaVuSans-3a"/>
      <use x="133.398438" xlink:href="#DejaVuSans-20"/>
      <use x="165.185547" xlink:href="#DejaVuSans-30"/>
      <use x="228.808594" xlink:href="#DejaVuSans-2f"/>
      <use x="262.5" xlink:href="#DejaVuSans-35"/>
     </g>
    </g>
    <g id="line2d_85">
     <path d="M 87.3625 97.07304 
L 127.3625 97.07304 
" style="fill:none;stroke:#bf00bf;stroke-linecap:square;stroke-width:1.5;"/>
    </g>
    <g id="line2d_86"/>
    <g id="text_17">
     <!-- -4: 0/5 -->
     <g transform="translate(143.3625 104.07304)scale(0.2 -0.2)">
      <use xlink:href="#DejaVuSans-2d"/>
      <use x="36.083984" xlink:href="#DejaVuSans-34"/>
      <use x="99.707031" xlink:href="#DejaVuSans-3a"/>
      <use x="133.398438" xlink:href="#DejaVuSans-20"/>
      <use x="165.185547" xlink:href="#DejaVuSans-30"/>
      <use x="228.808594" xlink:href="#DejaVuSans-2f"/>
      <use x="262.5" xlink:href="#DejaVuSans-35"/>
     </g>
    </g>
    <g id="line2d_87">
     <path d="M 87.3625 126.42929 
L 127.3625 126.42929 
" style="fill:none;stroke:#ff0000;stroke-linecap:square;stroke-width:3;"/>
    </g>
    <g id="line2d_88"/>
    <g id="text_18">
     <!-- -8: 0/5 -->
     <g transform="translate(143.3625 133.42929)scale(0.2 -0.2)">
      <use xlink:href="#DejaVuSans-2d"/>
      <use x="36.083984" xlink:href="#DejaVuSans-38"/>
      <use x="99.707031" xlink:href="#DejaVuSans-3a"/>
      <use x="133.398438" xlink:href="#DejaVuSans-20"/>
      <use x="165.185547" xlink:href="#DejaVuSans-30"/>
      <use x="228.808594" xlink:href="#DejaVuSans-2f"/>
      <use x="262.5" xlink:href="#DejaVuSans-35"/>
     </g>
    </g>
   </g>
  </g>
 </g>
 <defs>
  <clipPath id="pf2788247a0">
   <rect height="266.112" width="357.12" x="69.3625" y="12.163665"/>
  </clipPath>
 </defs>
</svg>
