<?xml version="1.0" encoding="utf-8" standalone="no"?>
<!DOCTYPE svg PUBLIC "-//W3C//DTD SVG 1.1//EN"
  "http://www.w3.org/Graphics/SVG/1.1/DTD/svg11.dtd">
<!-- Created with matplotlib (http://matplotlib.org/) -->
<svg height="335pt" version="1.1" viewBox="0 0 437 335" width="437pt" xmlns="http://www.w3.org/2000/svg" xmlns:xlink="http://www.w3.org/1999/xlink">
 <defs>
  <style type="text/css">
*{stroke-linecap:butt;stroke-linejoin:round;}
  </style>
 </defs>
 <g id="figure_1">
  <g id="patch_1">
   <path d="M 0 335.188165 
L 437.1825 335.188165 
L 437.1825 0 
L 0 0 
z
" style="fill:#ffffff;"/>
  </g>
  <g id="axes_1">
   <g id="patch_2">
    <path d="M 69.3625 278.275665 
L 426.4825 278.275665 
L 426.4825 12.163665 
L 69.3625 12.163665 
z
" style="fill:#ffffff;"/>
   </g>
   <g id="line2d_1">
    <path clip-path="url(#p746645e3bb)" d="M 189.058857 278.275665 
L 189.058857 274.762636 
L 189.058857 274.762636 
L 189.058857 271.249606 
L 189.058857 271.249606 
L 189.058857 267.736576 
L 189.058857 267.736576 
L 189.058857 264.223546 
L 189.058857 264.223546 
L 189.058857 260.710517 
L 189.058857 260.710517 
L 189.058857 257.197487 
L 189.058857 257.197487 
L 189.058857 253.684457 
L 189.058857 253.684457 
L 189.058857 250.171428 
L 189.058857 250.171428 
L 189.058857 246.658398 
L 189.058857 246.658398 
L 189.058857 243.145368 
L 189.058857 243.145368 
L 189.058857 239.632338 
L 189.058857 239.632338 
L 189.058857 236.119309 
L 189.058857 236.119309 
L 189.058857 232.606279 
L 189.058857 232.606279 
L 189.058857 229.093249 
L 189.058857 229.093249 
L 189.058857 225.58022 
L 193.92391 225.58022 
L 193.92391 222.06719 
L 196.160735 222.06719 
L 196.160735 218.55416 
L 196.160735 218.55416 
L 196.160735 215.041131 
L 198.28473 215.041131 
L 198.28473 211.528101 
L 198.28473 211.528101 
L 198.28473 208.015071 
L 198.28473 208.015071 
L 198.28473 204.502041 
L 198.28473 204.502041 
L 198.28473 200.989012 
L 200.306733 200.989012 
L 200.306733 197.475982 
L 200.306733 197.475982 
L 200.306733 193.962952 
L 200.306733 193.962952 
L 200.306733 190.449923 
L 202.236092 190.449923 
L 202.236092 186.936893 
L 202.236092 186.936893 
L 202.236092 183.423863 
L 202.236092 183.423863 
L 202.236092 179.910834 
L 202.236092 179.910834 
L 202.236092 176.397804 
L 204.080926 176.397804 
L 204.080926 172.884774 
L 329.216632 172.884774 
L 329.216632 169.371744 
L 329.950183 169.371744 
L 329.950183 165.858715 
L 330.492081 165.858715 
L 330.492081 162.345685 
L 330.760438 162.345685 
L 330.760438 158.832655 
L 331.027096 158.832655 
L 331.027096 155.319626 
L 331.990646 155.319626 
L 331.990646 151.806596 
L 359.894211 151.806596 
L 359.894211 148.293566 
L 360.249881 148.293566 
L 360.249881 144.780537 
L 360.602572 144.780537 
L 360.602572 141.267507 
L 376.32992 141.267507 
L 376.32992 137.754477 
L 378.163157 137.754477 
L 378.163157 134.241447 
L 378.214105 134.241447 
L 378.214105 130.728418 
L 387.794319 130.728418 
L 387.794319 127.215388 
L 387.794319 127.215388 
L 387.794319 127.215388 
L 426.4825 127.215388 
" style="fill:none;stroke:#f5deb3;stroke-linecap:square;stroke-width:1.5;"/>
   </g>
   <g id="line2d_2">
    <path clip-path="url(#p746645e3bb)" d="M 327.435256 278.275665 
L 327.435256 267.736576 
L 327.435256 267.736576 
L 327.435256 257.197487 
L 327.43985 257.197487 
L 327.43985 246.658398 
L 327.43985 246.658398 
L 327.43985 236.119309 
L 327.43985 236.119309 
L 327.43985 225.58022 
L 411.729421 225.58022 
L 411.729421 215.041131 
L 416.142787 215.041131 
L 416.142787 204.502041 
L 419.362691 204.502041 
L 419.362691 193.962952 
L 425.505786 193.962952 
L 425.505786 183.423863 
L 425.505786 183.423863 
L 425.505786 183.423863 
L 426.4825 183.423863 
" style="fill:none;stroke:#f5deb3;stroke-linecap:square;stroke-width:1.5;"/>
   </g>
   <g id="line2d_3">
    <path clip-path="url(#p746645e3bb)" d="M 172.772561 278.275665 
L 172.772561 274.762636 
L 172.772561 274.762636 
L 172.772561 271.249606 
L 172.772561 271.249606 
L 172.772561 267.736576 
L 172.772561 267.736576 
L 172.772561 264.223546 
L 172.952934 264.223546 
L 172.952934 260.710517 
L 173.132538 260.710517 
L 173.132538 257.197487 
L 173.132538 257.197487 
L 173.132538 253.684457 
L 173.132538 253.684457 
L 173.132538 250.171428 
L 173.132538 250.171428 
L 173.132538 246.658398 
L 173.132538 246.658398 
L 173.132538 243.145368 
L 173.132538 243.145368 
L 173.132538 239.632338 
L 173.132538 239.632338 
L 173.132538 236.119309 
L 173.132538 236.119309 
L 173.132538 232.606279 
L 173.132538 232.606279 
L 173.132538 229.093249 
L 173.311379 229.093249 
L 173.311379 225.58022 
L 173.489463 225.58022 
L 173.489463 222.06719 
L 173.84339 222.06719 
L 173.84339 218.55416 
L 175.569737 218.55416 
L 175.569737 215.041131 
L 176.240938 215.041131 
L 176.240938 211.528101 
L 177.552078 211.528101 
L 177.552078 208.015071 
L 177.552078 208.015071 
L 177.552078 204.502041 
L 178.03342 204.502041 
L 178.03342 200.989012 
L 178.192652 200.989012 
L 178.192652 197.475982 
L 178.351285 197.475982 
L 178.351285 193.962952 
L 179.135609 193.962952 
L 179.135609 190.449923 
L 179.290736 190.449923 
L 179.290736 186.936893 
L 179.752718 186.936893 
L 179.752718 183.423863 
L 181.109017 183.423863 
L 181.109017 179.910834 
L 183.417374 179.910834 
L 183.417374 176.397804 
L 185.204006 176.397804 
L 185.204006 172.884774 
L 185.204006 172.884774 
L 185.204006 172.884774 
L 426.4825 172.884774 
" style="fill:none;stroke:#f5deb3;stroke-linecap:square;stroke-width:1.5;"/>
   </g>
   <g id="line2d_4">
    <path clip-path="url(#p746645e3bb)" d="M 142.294588 278.275665 
L 142.294588 274.762636 
L 143.033501 274.762636 
L 143.033501 271.249606 
L 144.118118 271.249606 
L 144.118118 267.736576 
L 145.522147 267.736576 
L 145.522147 264.223546 
L 146.880877 264.223546 
L 146.880877 260.710517 
L 151.618109 260.710517 
L 151.618109 257.197487 
L 151.618109 257.197487 
L 151.618109 253.684457 
L 151.915757 253.684457 
L 151.915757 250.171428 
L 153.942394 250.171428 
L 153.942394 246.658398 
L 153.942394 246.658398 
L 153.942394 243.145368 
L 156.412501 243.145368 
L 156.412501 239.632338 
L 159.247128 239.632338 
L 159.247128 236.119309 
L 159.742628 236.119309 
L 159.742628 232.606279 
L 160.716474 232.606279 
L 160.716474 229.093249 
L 177.552078 229.093249 
L 177.552078 225.58022 
L 254.077836 225.58022 
L 254.077836 222.06719 
L 255.975087 222.06719 
L 255.975087 218.55416 
L 256.249954 218.55416 
L 256.249954 215.041131 
L 256.5725 215.041131 
L 256.5725 211.528101 
L 257.039516 211.528101 
L 257.039516 208.015071 
L 258.125376 208.015071 
L 258.125376 204.502041 
L 258.268065 204.502041 
L 258.268065 200.989012 
L 258.339228 200.989012 
L 258.339228 197.475982 
L 258.410272 197.475982 
L 258.410272 193.962952 
L 258.669744 193.962952 
L 258.669744 190.449923 
L 258.810604 190.449923 
L 258.810604 186.936893 
L 258.857453 186.936893 
L 258.857453 183.423863 
L 259.920835 183.423863 
L 259.920835 179.910834 
L 260.103062 179.910834 
L 260.103062 176.397804 
L 260.307128 176.397804 
L 260.307128 172.884774 
L 352.283358 172.884774 
L 352.283358 169.371744 
L 352.285905 169.371744 
L 352.285905 165.858715 
L 352.787213 165.858715 
L 352.787213 162.345685 
L 353.646696 162.345685 
L 353.646696 158.832655 
L 354.080934 158.832655 
L 354.080934 155.319626 
L 354.501075 155.319626 
L 354.501075 151.806596 
L 354.539721 151.806596 
L 354.539721 148.293566 
L 354.648223 148.293566 
L 354.648223 144.780537 
L 354.67711 144.780537 
L 354.67711 141.267507 
L 354.73963 141.267507 
L 354.73963 137.754477 
L 354.816451 137.754477 
L 354.816451 134.241447 
L 355.388183 134.241447 
L 355.388183 130.728418 
L 355.816631 130.728418 
L 355.816631 127.215388 
L 356.185078 127.215388 
L 356.185078 123.702358 
L 357.185398 123.702358 
L 357.185398 120.189329 
L 357.185398 120.189329 
L 357.185398 120.189329 
L 426.4825 120.189329 
" style="fill:none;stroke:#f5deb3;stroke-linecap:square;stroke-width:1.5;"/>
   </g>
   <g id="line2d_5">
    <path clip-path="url(#p746645e3bb)" d="M 219.462459 278.275665 
L 219.462459 274.762636 
L 219.462459 274.762636 
L 219.462459 271.249606 
L 222.400034 271.249606 
L 222.400034 267.736576 
L 223.606592 267.736576 
L 223.606592 264.223546 
L 225.198103 264.223546 
L 225.198103 260.710517 
L 233.402919 260.710517 
L 233.402919 257.197487 
L 237.599765 257.197487 
L 237.599765 253.684457 
L 237.638528 253.684457 
L 237.638528 250.171428 
L 237.870366 250.171428 
L 237.870366 246.658398 
L 239.643577 246.658398 
L 239.643577 243.145368 
L 242.603498 243.145368 
L 242.603498 239.632338 
L 246.73335 239.632338 
L 246.73335 236.119309 
L 249.89022 236.119309 
L 249.89022 232.606279 
L 250.207649 232.606279 
L 250.207649 229.093249 
L 253.550047 229.093249 
L 253.550047 225.58022 
L 264.317192 225.58022 
L 264.317192 222.06719 
L 267.618686 222.06719 
L 267.618686 218.55416 
L 267.789469 218.55416 
L 267.789469 215.041131 
L 267.97842 215.041131 
L 267.97842 211.528101 
L 268.091384 211.528101 
L 268.091384 208.015071 
L 268.204047 208.015071 
L 268.204047 204.502041 
L 268.204047 204.502041 
L 268.204047 200.989012 
L 268.335107 200.989012 
L 268.335107 197.475982 
L 268.614583 197.475982 
L 268.614583 193.962952 
L 268.744374 193.962952 
L 268.744374 190.449923 
L 268.929098 190.449923 
L 268.929098 186.936893 
L 269.858789 186.936893 
L 269.858789 183.423863 
L 269.894833 183.423863 
L 269.894833 179.910834 
L 270.253583 179.910834 
L 270.253583 176.397804 
L 271.0147 176.397804 
L 271.0147 172.884774 
L 438.1825 172.884774 
" style="fill:none;stroke:#f5deb3;stroke-linecap:square;stroke-width:1.5;"/>
   </g>
   <g id="line2d_6"/>
   <g id="line2d_7">
    <path clip-path="url(#p746645e3bb)" d="M 171.858925 278.275665 
L 171.858925 274.762636 
L 180.511603 274.762636 
L 180.511603 271.249606 
L 181.257056 271.249606 
L 181.257056 267.736576 
L 181.844062 267.736576 
L 181.844062 264.223546 
L 181.989543 264.223546 
L 181.989543 260.710517 
L 182.422998 260.710517 
L 182.422998 257.197487 
L 183.135654 257.197487 
L 183.135654 253.684457 
L 183.135654 253.684457 
L 183.135654 250.171428 
L 183.417374 250.171428 
L 183.417374 246.658398 
L 187.175519 246.658398 
L 187.175519 243.145368 
L 188.440388 243.145368 
L 188.440388 239.632338 
L 189.547175 239.632338 
L 189.547175 236.119309 
L 190.62562 236.119309 
L 190.62562 232.606279 
L 196.57365 232.606279 
L 196.57365 229.093249 
L 196.57365 229.093249 
L 196.57365 225.58022 
L 275.170564 225.58022 
L 275.170564 222.06719 
L 275.691801 222.06719 
L 275.691801 218.55416 
L 276.745943 218.55416 
L 276.745943 215.041131 
L 277.005407 215.041131 
L 277.005407 211.528101 
L 277.126956 211.528101 
L 277.126956 208.015071 
L 277.32373 208.015071 
L 277.32373 204.502041 
L 277.429305 204.502041 
L 277.429305 200.989012 
L 277.699575 200.989012 
L 277.699575 197.475982 
L 277.714539 197.475982 
L 277.714539 193.962952 
L 278.338286 193.962952 
L 278.338286 190.449923 
L 278.749043 190.449923 
L 278.749043 186.936893 
L 279.141373 186.936893 
L 279.141373 183.423863 
L 280.170061 183.423863 
L 280.170061 179.910834 
L 280.549432 179.910834 
L 280.549432 176.397804 
L 280.744806 176.397804 
L 280.744806 172.884774 
L 361.785792 172.884774 
L 361.785792 169.371744 
L 362.164197 169.371744 
L 362.164197 165.858715 
L 363.598003 165.858715 
L 363.598003 162.345685 
L 363.883254 162.345685 
L 363.883254 158.832655 
L 364.310411 158.832655 
L 364.310411 155.319626 
L 364.543324 155.319626 
L 364.543324 151.806596 
L 364.685871 151.806596 
L 364.685871 148.293566 
L 365.125665 148.293566 
L 365.125665 144.780537 
L 366.178922 144.780537 
L 366.178922 141.267507 
L 366.543605 141.267507 
L 366.543605 137.754477 
L 368.52772 137.754477 
L 368.52772 134.241447 
L 420.475611 134.241447 
L 420.475611 130.728418 
L 420.512425 130.728418 
L 420.512425 127.215388 
L 422.857913 127.215388 
L 422.857913 123.702358 
L 424.110194 123.702358 
L 424.110194 120.189329 
L 438.1825 120.189329 
" style="fill:none;stroke:#f5deb3;stroke-linecap:square;stroke-width:1.5;"/>
   </g>
   <g id="line2d_8">
    <path clip-path="url(#p746645e3bb)" d="M 340.595342 278.275665 
L 340.595342 274.762636 
L 341.906018 274.762636 
L 341.909277 267.736576 
L 342.140002 267.736576 
L 342.140002 264.223546 
L 343.576798 264.223546 
L 343.576798 260.710517 
L 344.223282 260.710517 
L 344.223282 257.197487 
L 345.394329 257.197487 
L 345.394329 253.684457 
L 345.746824 253.684457 
L 345.746824 250.171428 
L 346.102294 250.171428 
L 346.102294 246.658398 
L 346.784045 246.658398 
L 346.784045 243.145368 
L 348.768254 243.145368 
L 348.768254 239.632338 
L 349.533764 239.632338 
L 349.533764 236.119309 
L 350.578384 236.119309 
L 350.578384 232.606279 
L 350.892839 232.606279 
L 350.892839 229.093249 
L 354.090696 229.093249 
L 354.090696 225.58022 
L 438.1825 225.58022 
L 438.1825 225.58022 
" style="fill:none;stroke:#f5deb3;stroke-linecap:square;stroke-width:1.5;"/>
   </g>
   <g id="line2d_9">
    <path clip-path="url(#p746645e3bb)" d="M 167.585339 278.275665 
L 167.585339 274.762636 
L 168.992719 274.762636 
L 168.992719 271.249606 
L 171.673795 271.249606 
L 171.673795 267.736576 
L 172.409482 267.736576 
L 172.409482 264.223546 
L 172.591413 264.223546 
L 172.591413 260.710517 
L 173.132538 260.710517 
L 173.132538 257.197487 
L 174.194366 257.197487 
L 174.194366 253.684457 
L 174.368764 253.684457 
L 174.368764 250.171428 
L 175.400252 250.171428 
L 175.400252 246.658398 
L 178.66677 246.658398 
L 178.66677 243.145368 
L 179.445294 243.145368 
L 179.445294 239.632338 
L 182.422998 239.632338 
L 182.422998 236.119309 
L 183.417374 236.119309 
L 183.417374 232.606279 
L 185.204006 232.606279 
L 185.204006 229.093249 
L 186.65874 229.093249 
L 186.65874 225.58022 
L 272.513806 225.58022 
L 272.513806 222.06719 
L 274.723187 222.06719 
L 274.723187 218.55416 
L 274.995375 218.55416 
L 274.995375 215.041131 
L 275.392483 215.041131 
L 275.392483 211.528101 
L 275.566031 211.528101 
L 275.566031 208.015071 
L 276.268648 208.015071 
L 276.268648 204.502041 
L 276.315075 204.502041 
L 276.315075 200.989012 
L 276.715312 200.989012 
L 276.715312 197.475982 
L 277.035827 197.475982 
L 277.035827 193.962952 
L 277.459421 193.962952 
L 277.459421 190.449923 
L 277.669631 190.449923 
L 277.669631 186.936893 
L 278.027567 186.936893 
L 278.027567 183.423863 
L 278.573495 183.423863 
L 278.573495 179.910834 
L 278.632092 179.910834 
L 278.632092 176.397804 
L 281.229313 176.397804 
L 281.229313 172.884774 
L 357.524124 172.884774 
L 357.524124 169.371744 
L 357.575822 169.371744 
L 357.575822 165.858715 
L 358.58571 165.858715 
L 358.58571 162.345685 
L 358.701786 162.345685 
L 358.701786 158.832655 
L 358.80009 158.832655 
L 358.80009 155.319626 
L 359.327007 155.319626 
L 359.327007 151.806596 
L 359.359317 151.806596 
L 359.359317 148.293566 
L 359.78138 148.293566 
L 359.78138 144.780537 
L 359.858053 144.780537 
L 359.858053 141.267507 
L 360.091471 141.267507 
L 360.091471 137.754477 
L 361.097216 137.754477 
L 361.097216 134.241447 
L 361.134391 134.241447 
L 361.134391 130.728418 
L 361.276591 130.728418 
L 361.276591 127.215388 
L 361.539118 127.215388 
L 361.539118 123.702358 
L 361.700333 123.702358 
L 361.700333 120.189329 
L 361.700333 120.189329 
L 361.700333 120.189329 
L 426.4825 120.189329 
" style="fill:none;stroke:#f5deb3;stroke-linecap:square;stroke-width:1.5;"/>
   </g>
   <g id="line2d_10">
    <path clip-path="url(#p746645e3bb)" d="M 199.547848 278.275665 
L 199.547848 274.762636 
L 200.867056 274.762636 
L 200.867056 271.249606 
L 206.664577 271.249606 
L 206.664577 267.736576 
L 206.664577 267.736576 
L 206.664577 264.223546 
L 209.780005 264.223546 
L 209.780005 260.710517 
L 214.665528 260.710517 
L 214.665528 257.197487 
L 218.005819 257.197487 
L 218.005819 253.684457 
L 332.351991 253.684457 
L 332.351991 250.171428 
L 332.454083 250.171428 
L 332.454083 246.658398 
L 332.604726 246.658398 
L 332.604726 243.145368 
L 332.762931 243.145368 
L 332.762931 239.632338 
L 332.775076 239.632338 
L 332.775076 236.119309 
L 333.33399 236.119309 
L 333.33399 232.606279 
L 333.802711 232.606279 
L 333.802711 229.093249 
L 361.471591 229.093249 
L 361.471591 225.58022 
L 438.1825 225.58022 
" style="fill:none;stroke:#f5deb3;stroke-linecap:square;stroke-width:1.5;"/>
   </g>
   <g id="line2d_11">
    <path clip-path="url(#p746645e3bb)" d="M 135.427853 278.275665 
L 135.427853 274.762636 
L 141.920212 274.762636 
L 141.920212 271.249606 
L 143.033501 271.249606 
L 143.033501 267.736576 
L 143.759674 267.736576 
L 143.759674 264.223546 
L 144.825983 264.223546 
L 144.825983 260.710517 
L 145.865961 260.710517 
L 145.865961 257.197487 
L 148.519877 257.197487 
L 148.519877 253.684457 
L 151.318343 253.684457 
L 151.318343 250.171428 
L 151.618109 250.171428 
L 151.618109 246.658398 
L 153.373237 246.658398 
L 153.373237 243.145368 
L 156.942281 243.145368 
L 156.942281 239.632338 
L 160.716474 239.632338 
L 160.716474 236.119309 
L 160.956457 236.119309 
L 160.956457 232.606279 
L 168.19427 232.606279 
L 168.19427 229.093249 
L 174.368764 229.093249 
L 174.368764 225.58022 
L 246.670862 225.58022 
L 246.670862 222.06719 
L 247.260789 222.06719 
L 247.260789 218.55416 
L 248.236045 218.55416 
L 248.236045 215.041131 
L 248.326327 215.041131 
L 248.326327 211.528101 
L 249.394892 211.528101 
L 249.394892 208.015071 
L 249.628713 208.015071 
L 249.628713 204.502041 
L 250.494161 204.502041 
L 250.494161 200.989012 
L 250.89203 200.989012 
L 250.89203 197.475982 
L 250.976801 197.475982 
L 250.976801 193.962952 
L 251.815255 193.962952 
L 251.815255 190.449923 
L 252.118554 190.449923 
L 252.118554 186.936893 
L 252.337771 186.936893 
L 252.337771 183.423863 
L 252.9348 183.423863 
L 252.9348 179.910834 
L 253.656135 179.910834 
L 253.656135 176.397804 
L 254.391363 176.397804 
L 254.391363 172.884774 
L 254.391363 172.884774 
L 254.391363 172.884774 
L 426.4825 172.884774 
" style="fill:none;stroke:#f5deb3;stroke-linecap:square;stroke-width:1.5;"/>
   </g>
   <g id="line2d_12">
    <path clip-path="url(#p746645e3bb)" d="M 101.601688 278.275665 
L 101.601688 274.762636 
L 101.601688 274.762636 
L 101.601688 271.249606 
L 101.601688 271.249606 
L 101.601688 267.736576 
L 101.601688 267.736576 
L 101.601688 264.223546 
L 101.601688 264.223546 
L 101.601688 260.710517 
L 101.601688 260.710517 
L 101.601688 257.197487 
L 101.601688 257.197487 
L 101.601688 253.684457 
L 101.601688 253.684457 
L 101.601688 250.171428 
L 101.601688 250.171428 
L 101.601688 246.658398 
L 101.601688 246.658398 
L 101.601688 243.145368 
L 101.601688 243.145368 
L 101.601688 239.632338 
L 101.601688 239.632338 
L 101.601688 236.119309 
L 101.601688 236.119309 
L 101.601688 232.606279 
L 101.601688 232.606279 
L 101.601688 229.093249 
L 101.601688 229.093249 
L 101.601688 225.58022 
L 130.302346 225.58022 
L 130.302346 222.06719 
L 139.601261 222.06719 
L 139.601261 218.55416 
L 139.601261 218.55416 
L 139.601261 215.041131 
L 139.601261 215.041131 
L 139.601261 211.528101 
L 139.601261 211.528101 
L 139.601261 208.015071 
L 139.601261 208.015071 
L 139.601261 204.502041 
L 139.601261 204.502041 
L 139.601261 200.989012 
L 139.601261 200.989012 
L 139.601261 197.475982 
L 139.601261 197.475982 
L 139.601261 193.962952 
L 139.601261 193.962952 
L 139.601261 190.449923 
L 147.213819 190.449923 
L 147.213819 186.936893 
L 147.213819 186.936893 
L 147.213819 183.423863 
L 147.213819 183.423863 
L 147.213819 179.910834 
L 147.213819 179.910834 
L 147.213819 176.397804 
L 159.247128 176.397804 
L 159.247128 172.884774 
L 325.819407 172.884774 
L 325.819407 169.371744 
L 327.297182 169.371744 
L 327.297182 165.858715 
L 329.650447 165.858715 
L 329.650447 162.345685 
L 335.193658 162.345685 
L 335.193658 158.832655 
L 335.292909 158.832655 
L 335.292909 155.319626 
L 335.932405 155.319626 
L 335.932405 151.806596 
L 336.776371 151.806596 
L 336.776371 148.293566 
L 336.945353 148.293566 
L 336.945353 144.780537 
L 337.175691 144.780537 
L 337.175691 141.267507 
L 337.390268 141.267507 
L 337.390268 137.754477 
L 337.55681 137.754477 
L 337.55681 134.241447 
L 337.632622 134.241447 
L 337.632622 130.728418 
L 337.708297 130.728418 
L 337.708297 127.215388 
L 337.783837 127.215388 
L 337.783837 123.702358 
L 340.487626 123.702358 
L 340.487626 120.189329 
L 340.487626 120.189329 
L 340.487626 120.189329 
L 426.4825 120.189329 
" style="fill:none;stroke:#f5deb3;stroke-linecap:square;stroke-width:1.5;"/>
   </g>
   <g id="line2d_13">
    <path clip-path="url(#p746645e3bb)" d="M 260.216554 278.275665 
L 260.216554 274.762636 
L 260.216554 274.762636 
L 260.216554 271.249606 
L 260.89116 271.249606 
L 260.89116 267.736576 
L 260.89116 267.736576 
L 260.89116 264.223546 
L 261.905013 264.223546 
L 261.905013 260.710517 
L 262.013758 260.710517 
L 262.013758 257.197487 
L 262.013758 257.197487 
L 262.013758 253.684457 
L 262.013758 253.684457 
L 262.013758 250.171428 
L 262.596179 250.171428 
L 262.596179 246.658398 
L 264.317192 246.658398 
L 264.317192 243.145368 
L 264.317192 243.145368 
L 264.317192 239.632338 
L 264.317192 239.632338 
L 264.317192 236.119309 
L 264.399371 236.119309 
L 264.399371 232.606279 
L 264.399371 232.606279 
L 264.399371 229.093249 
L 264.399371 229.093249 
L 264.399371 225.58022 
L 264.399371 225.58022 
L 264.399371 225.58022 
L 426.4825 225.58022 
" style="fill:none;stroke:#f5deb3;stroke-linecap:square;stroke-width:1.5;"/>
   </g>
   <g id="line2d_14">
    <path clip-path="url(#p746645e3bb)" d="M 157.204693 278.275665 
L 157.204693 274.762636 
L 158.492774 274.762636 
L 158.492774 271.249606 
L 159.247128 271.249606 
L 159.247128 267.736576 
L 160.232365 267.736576 
L 160.232365 264.223546 
L 160.475115 264.223546 
L 160.475115 260.710517 
L 160.475115 260.710517 
L 160.475115 257.197487 
L 160.716474 257.197487 
L 160.716474 253.684457 
L 160.956457 253.684457 
L 160.956457 250.171428 
L 161.43236 250.171428 
L 161.43236 246.658398 
L 161.43236 246.658398 
L 161.43236 243.145368 
L 161.43236 243.145368 
L 161.43236 239.632338 
L 161.43236 239.632338 
L 161.43236 236.119309 
L 161.66831 236.119309 
L 161.66831 232.606279 
L 161.902946 232.606279 
L 161.902946 229.093249 
L 161.902946 229.093249 
L 161.902946 225.58022 
L 221.157888 225.58022 
L 221.157888 222.06719 
L 222.008765 222.06719 
L 222.008765 218.55416 
L 223.226423 218.55416 
L 223.226423 215.041131 
L 223.660623 215.041131 
L 223.660623 211.528101 
L 224.03691 211.528101 
L 224.03691 208.015071 
L 226.022941 208.015071 
L 226.022941 204.502041 
L 226.175816 204.502041 
L 226.175816 200.989012 
L 226.277425 200.989012 
L 226.277425 197.475982 
L 226.681428 197.475982 
L 226.681428 193.962952 
L 227.280258 193.962952 
L 227.280258 190.449923 
L 227.428644 190.449923 
L 227.428644 186.936893 
L 227.527279 186.936893 
L 227.527279 183.423863 
L 228.549231 183.423863 
L 228.549231 179.910834 
L 228.83672 179.910834 
L 228.83672 176.397804 
L 229.027295 176.397804 
L 229.027295 172.884774 
L 236.380038 172.884774 
L 236.380038 169.371744 
L 238.898124 169.371744 
L 238.898124 165.858715 
L 239.19789 165.858715 
L 239.19789 162.345685 
L 240.412356 162.345685 
L 240.412356 158.832655 
L 240.737585 158.832655 
L 240.737585 155.319626 
L 241.131707 155.319626 
L 241.131707 151.806596 
L 241.803895 151.806596 
L 241.803895 148.293566 
L 242.534567 148.293566 
L 242.534567 144.780537 
L 242.843873 144.780537 
L 242.843873 141.267507 
L 244.522062 141.267507 
L 244.522062 137.754477 
L 249.745139 137.754477 
L 249.745139 134.241447 
L 251.732157 134.241447 
L 251.732157 130.728418 
L 254.702574 130.728418 
L 254.702574 127.215388 
L 438.1825 127.215388 
" style="fill:none;stroke:#f5deb3;stroke-linecap:square;stroke-width:1.5;"/>
   </g>
   <g id="line2d_15"/>
   <g id="line2d_16">
    <path clip-path="url(#p746645e3bb)" d="M 269.076296 278.275665 
L 269.076296 274.762636 
L 269.423843 274.762636 
L 269.423843 271.249606 
L 270.217845 271.249606 
L 270.217845 267.736576 
L 270.573865 267.736576 
L 270.573865 264.223546 
L 273.715322 264.223546 
L 273.715322 260.710517 
L 276.376898 260.710517 
L 276.376898 257.197487 
L 278.072096 257.197487 
L 278.072096 253.684457 
L 279.372151 253.684457 
L 279.372151 250.171428 
L 280.000348 250.171428 
L 280.000348 246.658398 
L 280.212382 246.658398 
L 280.212382 243.145368 
L 281.008515 243.145368 
L 281.008515 239.632338 
L 281.311814 239.632338 
L 281.311814 236.119309 
L 284.037707 236.119309 
L 284.037707 232.606279 
L 284.866432 232.606279 
L 284.866432 229.093249 
L 293.180121 229.093249 
L 293.180121 225.58022 
L 340.251032 225.58022 
L 340.251032 222.06719 
L 340.789878 222.06719 
L 340.789878 218.55416 
L 343.271886 218.55416 
L 343.271886 215.041131 
L 344.031616 215.041131 
L 344.031616 211.528101 
L 344.207857 211.528101 
L 344.207857 208.015071 
L 344.713911 208.015071 
L 344.713911 204.502041 
L 345.654505 204.502041 
L 345.654505 200.989012 
L 346.571634 200.989012 
L 346.571634 197.475982 
L 347.311866 197.475982 
L 347.311866 193.962952 
L 347.844477 193.962952 
L 347.844477 190.449923 
L 349.829095 190.449923 
L 349.829095 186.936893 
L 350.493423 186.936893 
L 350.493423 183.423863 
L 351.688236 183.423863 
L 351.688236 179.910834 
L 352.293545 179.910834 
L 352.293545 176.397804 
L 352.420679 176.397804 
L 352.420679 172.884774 
L 359.186706 172.884774 
L 359.186706 169.371744 
L 359.911216 169.371744 
L 359.911216 165.858715 
L 361.026907 165.858715 
L 361.026907 162.345685 
L 361.422413 162.345685 
L 361.422413 158.832655 
L 361.808145 158.832655 
L 361.808145 155.319626 
L 361.982501 155.319626 
L 361.982501 151.806596 
L 362.121871 151.806596 
L 362.202455 144.780537 
L 362.599088 144.780537 
L 362.599088 141.267507 
L 363.068987 141.267507 
L 363.068987 137.754477 
L 363.627199 137.754477 
L 363.737959 130.728418 
L 364.409843 130.728418 
L 364.409843 127.215388 
L 364.585188 127.215388 
L 364.585188 123.702358 
L 365.196957 123.702358 
L 365.196957 120.189329 
L 368.572728 120.189329 
L 368.572728 116.676299 
L 402.067331 116.676299 
L 402.067331 113.163269 
L 405.917088 113.163269 
L 405.917088 109.650239 
L 412.543049 109.650239 
L 412.543049 106.13721 
L 413.898153 106.13721 
L 413.898153 102.62418 
L 427.018896 102.62418 
L 427.018896 99.11115 
L 438.1825 99.11115 
L 438.1825 99.11115 
" style="fill:none;stroke:#f5deb3;stroke-linecap:square;stroke-width:1.5;"/>
   </g>
   <g id="line2d_17">
    <path clip-path="url(#p746645e3bb)" d="M 289.534304 278.275665 
L 289.534304 274.762636 
L 294.405726 274.762636 
L 294.405726 271.249606 
L 294.405726 271.249606 
L 294.405726 267.736576 
L 294.506267 267.736576 
L 294.506267 264.223546 
L 296.583153 264.223546 
L 296.583153 260.710517 
L 306.787936 260.710517 
L 306.787936 257.197487 
L 311.422248 257.197487 
L 311.422248 253.684457 
L 314.586632 253.684457 
L 314.586632 250.171428 
L 315.857697 250.171428 
L 315.857697 246.658398 
L 316.110979 246.658398 
L 316.110979 243.145368 
L 321.562459 243.145368 
L 321.562459 239.632338 
L 323.553664 239.632338 
L 323.553664 236.119309 
L 326.190191 236.119309 
L 326.190191 232.606279 
L 334.242826 232.606279 
L 334.242826 229.093249 
L 338.084648 229.093249 
L 338.084648 225.58022 
L 438.1825 225.58022 
" style="fill:none;stroke:#f5deb3;stroke-linecap:square;stroke-width:1.5;"/>
   </g>
   <g id="line2d_18">
    <path clip-path="url(#p746645e3bb)" d="M 101.601688 278.275665 
L 101.601688 274.762636 
L 101.601688 274.762636 
L 101.601688 271.249606 
L 101.601688 271.249606 
L 101.601688 267.736576 
L 101.601688 267.736576 
L 101.601688 264.223546 
L 101.601688 264.223546 
L 101.601688 260.710517 
L 101.601688 260.710517 
L 101.601688 257.197487 
L 101.601688 257.197487 
L 101.601688 253.684457 
L 101.601688 253.684457 
L 101.601688 250.171428 
L 102.569936 250.171428 
L 102.569936 246.658398 
L 102.569936 246.658398 
L 102.569936 243.145368 
L 102.569936 243.145368 
L 102.569936 239.632338 
L 102.569936 239.632338 
L 102.569936 236.119309 
L 102.569936 236.119309 
L 102.569936 232.606279 
L 102.569936 232.606279 
L 102.569936 229.093249 
L 104.44211 229.093249 
L 104.44211 225.58022 
L 105.347886 225.58022 
L 105.347886 222.06719 
L 105.347886 222.06719 
L 105.347886 218.55416 
L 107.953891 218.55416 
L 107.953891 215.041131 
L 108.787918 215.041131 
L 108.787918 211.528101 
L 110.408001 211.528101 
L 110.408001 208.015071 
L 114.924858 208.015071 
L 114.924858 204.502041 
L 115.632723 204.502041 
L 115.632723 200.989012 
L 115.632723 200.989012 
L 115.632723 197.475982 
L 117.687617 197.475982 
L 117.687617 193.962952 
L 126.139259 193.962952 
L 126.139259 190.449923 
L 126.682711 190.449923 
L 126.682711 186.936893 
L 126.682711 186.936893 
L 126.682711 183.423863 
L 129.803915 183.423863 
L 129.803915 179.910834 
L 130.794948 179.910834 
L 130.794948 176.397804 
L 132.2391 176.397804 
L 132.2391 172.884774 
L 411.460306 172.884774 
L 411.460306 169.371744 
L 413.380085 169.371744 
L 413.380085 165.858715 
L 417.945077 165.858715 
L 417.945077 162.345685 
L 419.195554 162.345685 
L 419.195554 158.832655 
L 420.297137 158.832655 
L 420.297137 155.319626 
L 424.970502 155.319626 
L 424.970502 151.806596 
L 425.464127 151.806596 
L 425.464127 148.293566 
L 425.737516 148.293566 
L 425.737516 144.780537 
L 427.236026 144.780537 
L 427.236026 141.267507 
L 432.278065 141.267507 
L 432.278065 137.754477 
L 432.899424 137.754477 
L 432.899424 134.241447 
L 438.1825 134.241447 
" style="fill:none;stroke:#f5deb3;stroke-linecap:square;stroke-width:1.5;"/>
   </g>
   <g id="line2d_19">
    <path clip-path="url(#p746645e3bb)" d="M 328.483526 278.275665 
L 328.483526 274.762636 
L 333.810611 274.762636 
L 333.810611 271.249606 
L 336.38066 271.249606 
L 336.38066 267.736576 
L 337.567648 267.736576 
L 337.567648 264.223546 
L 338.725613 264.223546 
L 338.725613 260.710517 
L 339.718935 260.710517 
L 339.718935 257.197487 
L 343.870188 257.197487 
L 343.870188 253.684457 
L 343.876408 253.684457 
L 343.876408 250.171428 
L 345.84191 250.171428 
L 345.84191 246.658398 
L 346.766627 246.658398 
L 346.766627 243.145368 
L 346.786947 243.145368 
L 346.786947 239.632338 
L 346.792751 239.632338 
L 346.792751 236.119309 
L 346.798555 236.119309 
L 346.798555 232.606279 
L 348.548945 232.606279 
L 348.548945 229.093249 
L 356.766138 229.093249 
L 356.766138 225.58022 
L 422.021502 225.58022 
L 422.021502 222.06719 
L 422.466093 222.06719 
L 422.466093 218.55416 
L 423.095628 218.55416 
L 423.095628 215.041131 
L 423.116483 215.041131 
L 423.116483 211.528101 
L 423.573636 211.528101 
L 423.573636 208.015071 
L 424.147665 208.015071 
L 424.147665 204.502041 
L 424.310576 204.502041 
L 424.310576 200.989012 
L 424.742708 200.989012 
L 424.742708 197.475982 
L 425.023523 197.475982 
L 425.023523 193.962952 
L 425.588087 193.962952 
L 425.588087 190.449923 
L 425.742859 190.449923 
L 425.742859 186.936893 
L 425.907266 186.936893 
L 425.907266 183.423863 
L 426.049824 183.423863 
L 426.049824 179.910834 
L 426.302319 179.910834 
L 426.302319 176.397804 
L 428.094362 176.397804 
L 428.094362 172.884774 
L 438.1825 172.884774 
" style="fill:none;stroke:#f5deb3;stroke-linecap:square;stroke-width:1.5;"/>
   </g>
   <g id="line2d_20">
    <path clip-path="url(#p746645e3bb)" d="M 155.332519 278.275665 
L 155.332519 274.762636 
L 160.716474 274.762636 
L 160.716474 271.249606 
L 161.195081 271.249606 
L 161.195081 267.736576 
L 164.40118 267.736576 
L 164.40118 264.223546 
L 170.545595 264.223546 
L 170.545595 260.710517 
L 172.952934 260.710517 
L 172.952934 257.197487 
L 174.019244 257.197487 
L 174.019244 253.684457 
L 174.542442 253.684457 
L 174.542442 250.171428 
L 179.290736 250.171428 
L 179.290736 246.658398 
L 181.257056 246.658398 
L 181.257056 243.145368 
L 182.566497 243.145368 
L 182.566497 239.632338 
L 184.52578 239.632338 
L 184.52578 236.119309 
L 186.397953 236.119309 
L 186.397953 232.606279 
L 189.303724 232.606279 
L 189.303724 229.093249 
L 196.4708 229.093249 
L 196.4708 225.58022 
L 253.41706 225.58022 
L 253.41706 222.06719 
L 254.391363 222.06719 
L 254.391363 218.55416 
L 256.22504 218.55416 
L 256.22504 215.041131 
L 256.646585 215.041131 
L 256.646585 211.528101 
L 259.46179 211.528101 
L 259.46179 208.015071 
L 261.202315 208.015071 
L 261.202315 204.502041 
L 261.202315 204.502041 
L 261.202315 200.989012 
L 261.42317 200.989012 
L 261.42317 197.475982 
L 261.42317 197.475982 
L 261.42317 193.962952 
L 261.533165 193.962952 
L 261.533165 190.449923 
L 261.861436 190.449923 
L 261.861436 186.936893 
L 264.111039 186.936893 
L 264.111039 183.423863 
L 264.583691 183.423863 
L 264.583691 179.910834 
L 265.831991 179.910834 
L 265.831991 176.397804 
L 271.899944 176.397804 
L 271.899944 172.884774 
L 336.87931 172.884774 
L 336.87931 169.371744 
L 337.164751 169.371744 
L 337.164751 165.858715 
L 340.531419 165.858715 
L 340.531419 162.345685 
L 344.386436 162.345685 
L 344.386436 158.832655 
L 345.241061 158.832655 
L 345.241061 155.319626 
L 345.319267 155.319626 
L 345.319267 151.806596 
L 345.427314 151.806596 
L 345.427314 148.293566 
L 345.61573 148.293566 
L 345.61573 144.780537 
L 348.095619 144.780537 
L 348.095619 141.267507 
L 387.818428 141.267507 
L 387.818428 137.754477 
L 393.050398 137.754477 
L 393.050398 134.241447 
L 396.120013 134.241447 
L 396.120013 130.728418 
L 400.951343 130.728418 
L 400.951343 127.215388 
L 407.44313 127.215388 
L 407.44313 123.702358 
L 438.1825 123.702358 
" style="fill:none;stroke:#f5deb3;stroke-linecap:square;stroke-width:1.5;"/>
   </g>
   <g id="line2d_21">
    <path clip-path="url(#p746645e3bb)" d="M 313.35953 278.275665 
L 313.35953 274.762636 
L 313.35953 274.762636 
L 313.35953 274.762636 
L 313.365948 274.762636 
L 313.455695 246.658398 
L 313.487701 246.658398 
L 313.487701 243.145368 
L 313.82548 243.145368 
L 313.82548 239.632338 
L 314.443005 239.632338 
L 314.443005 236.119309 
L 318.284522 236.119309 
L 318.284522 232.606279 
L 319.550067 232.606279 
L 319.644158 127.215388 
L 319.776637 127.215388 
L 319.88122 81.546002 
L 319.89771 81.546002 
L 319.94165 53.441764 
L 320.773309 53.441764 
L 320.773309 49.928735 
L 321.004117 49.928735 
L 321.004117 46.415705 
L 321.207039 46.415705 
L 321.207039 42.902675 
L 322.81154 42.902675 
L 322.81154 39.389645 
L 327.32944 39.389645 
L 327.32944 35.876616 
L 327.32944 35.876616 
L 426.4825 35.876616 
L 426.4825 35.876616 
" style="fill:none;stroke:#f5deb3;stroke-linecap:square;stroke-width:1.5;"/>
   </g>
   <g id="line2d_22">
    <path clip-path="url(#p746645e3bb)" d="M 175.230082 278.275665 
L 175.230082 274.762636 
L 178.351285 274.762636 
L 178.351285 271.249606 
L 182.566497 271.249606 
L 182.566497 267.736576 
L 185.069232 267.736576 
L 185.069232 264.223546 
L 188.0649 264.223546 
L 188.0649 260.710517 
L 190.861571 260.710517 
L 190.861571 257.197487 
L 190.979052 257.197487 
L 190.979052 253.684457 
L 191.561592 253.684457 
L 191.561592 250.171428 
L 192.59028 250.171428 
L 192.59028 246.658398 
L 192.927667 246.658398 
L 192.927667 243.145368 
L 195.95275 243.145368 
L 195.95275 239.632338 
L 196.160735 239.632338 
L 196.160735 236.119309 
L 196.880701 236.119309 
L 196.880701 232.606279 
L 200.494337 232.606279 
L 200.494337 229.093249 
L 214.531611 229.093249 
L 214.531611 225.58022 
L 256.917118 225.58022 
L 256.917118 222.06719 
L 264.440401 222.06719 
L 264.440401 218.55416 
L 264.440401 218.55416 
L 264.440401 215.041131 
L 265.111683 215.041131 
L 265.111683 211.528101 
L 265.752562 211.528101 
L 265.752562 208.015071 
L 266.403411 208.015071 
L 266.403411 204.502041 
L 268.947525 204.502041 
L 268.947525 200.989012 
L 269.168034 200.989012 
L 269.168034 197.475982 
L 269.405622 197.475982 
L 269.405622 193.962952 
L 270.020743 193.962952 
L 270.020743 190.449923 
L 271.381469 190.449923 
L 271.381469 186.936893 
L 274.658886 186.936893 
L 274.658886 183.423863 
L 274.963444 183.423863 
L 274.963444 179.910834 
L 276.868242 179.910834 
L 276.868242 176.397804 
L 279.415282 176.397804 
L 279.415282 172.884774 
L 292.909806 172.884774 
L 292.909806 169.371744 
L 294.776538 169.371744 
L 294.776538 165.858715 
L 298.717176 165.858715 
L 298.717176 162.345685 
L 299.024997 162.345685 
L 299.024997 158.832655 
L 299.348491 158.832655 
L 299.348491 155.319626 
L 301.358604 155.319626 
L 301.358604 151.806596 
L 301.630821 151.806596 
L 301.630821 148.293566 
L 302.178404 148.293566 
L 302.178404 144.780537 
L 302.312109 144.780537 
L 302.312109 141.267507 
L 302.395459 141.267507 
L 302.395459 137.754477 
L 302.553372 137.754477 
L 302.553372 134.241447 
L 303.031792 134.241447 
L 303.031792 130.728418 
L 305.057383 130.728418 
L 305.057383 127.215388 
L 307.354274 127.215388 
L 307.354274 123.702358 
L 310.28471 123.702358 
L 310.28471 120.189329 
L 310.28471 120.189329 
L 310.28471 120.189329 
L 426.4825 120.189329 
" style="fill:none;stroke:#f5deb3;stroke-linecap:square;stroke-width:1.5;"/>
   </g>
   <g id="line2d_23">
    <path clip-path="url(#p746645e3bb)" d="M 218.129148 278.275665 
L 218.129148 274.762636 
L 225.302095 274.762636 
L 225.302095 271.249606 
L 226.831936 271.249606 
L 226.831936 267.736576 
L 227.57651 267.736576 
L 227.57651 264.223546 
L 228.83672 264.223546 
L 228.83672 260.710517 
L 230.841559 260.710517 
L 230.841559 257.197487 
L 232.449613 257.197487 
L 232.449613 253.684457 
L 241.838978 253.684457 
L 241.838978 250.171428 
L 362.047194 250.171428 
L 362.047194 246.658398 
L 364.168506 246.658398 
L 364.168506 243.145368 
L 364.254857 243.145368 
L 364.254857 239.632338 
L 364.886518 239.632338 
L 364.886518 236.119309 
L 365.960428 236.119309 
L 365.960428 232.606279 
L 366.112943 232.606279 
L 366.112943 229.093249 
L 367.247566 229.093249 
L 367.247566 225.58022 
L 367.281476 225.58022 
L 367.281476 222.06719 
L 367.557095 222.06719 
L 367.557095 218.55416 
L 367.703945 218.55416 
L 367.703945 215.041131 
L 368.179888 215.041131 
L 368.179888 211.528101 
L 368.503465 211.528101 
L 368.503465 208.015071 
L 370.731056 208.015071 
L 370.731056 204.502041 
L 372.251655 204.502041 
L 372.251655 200.989012 
L 381.101799 200.989012 
L 381.101799 197.475982 
L 382.361307 197.475982 
L 382.361307 193.962952 
L 383.296155 193.962952 
L 383.296155 190.449923 
L 383.766768 190.449923 
L 383.766768 186.936893 
L 384.644099 186.936893 
L 384.644099 183.423863 
L 386.474907 183.423863 
L 386.474907 179.910834 
L 386.525774 179.910834 
L 386.525774 176.397804 
L 387.673568 176.397804 
L 387.673568 172.884774 
L 387.673568 172.884774 
L 387.673568 172.884774 
L 426.4825 172.884774 
" style="fill:none;stroke:#f5deb3;stroke-linecap:square;stroke-width:1.5;"/>
   </g>
   <g id="line2d_24">
    <path clip-path="url(#p746645e3bb)" d="M 263.945387 278.275665 
L 263.945387 274.762636 
L 269.387393 274.762636 
L 269.387393 271.249606 
L 278.116578 271.249606 
L 278.116578 267.736576 
L 278.161013 267.736576 
L 278.161013 264.223546 
L 278.175815 264.223546 
L 278.175815 260.710517 
L 280.619313 260.710517 
L 280.619313 257.197487 
L 282.16846 257.197487 
L 282.16846 253.684457 
L 282.249144 253.684457 
L 282.249144 250.171428 
L 285.79047 250.171428 
L 285.79047 246.658398 
L 285.999916 246.658398 
L 285.999916 243.145368 
L 289.159726 243.145368 
L 289.159726 239.632338 
L 289.239461 239.632338 
L 289.239461 236.119309 
L 292.289887 236.119309 
L 292.289887 232.606279 
L 295.193541 232.606279 
L 295.193541 229.093249 
L 295.233041 229.093249 
L 295.233041 225.58022 
L 362.222576 225.58022 
L 362.222576 222.06719 
L 364.114687 222.06719 
L 364.114687 218.55416 
L 365.112519 218.55416 
L 365.112519 215.041131 
L 367.682746 215.041131 
L 367.682746 211.528101 
L 368.719534 211.528101 
L 368.719534 208.015071 
L 369.320396 208.015071 
L 369.320396 204.502041 
L 370.323089 204.502041 
L 370.323089 200.989012 
L 370.706393 200.989012 
L 370.706393 197.475982 
L 371.561119 197.475982 
L 371.561119 193.962952 
L 372.762227 193.962952 
L 372.762227 190.449923 
L 372.932612 190.449923 
L 372.932612 186.936893 
L 372.962241 186.936893 
L 372.962241 183.423863 
L 373.082106 183.423863 
L 373.082106 179.910834 
L 374.806006 179.910834 
L 374.806006 176.397804 
L 378.683498 176.397804 
L 378.683498 172.884774 
L 379.685354 172.884774 
L 379.685354 169.371744 
L 380.960216 169.371744 
L 380.960216 165.858715 
L 382.134976 165.858715 
L 382.134976 162.345685 
L 382.857215 162.345685 
L 382.857215 158.832655 
L 384.503289 158.832655 
L 384.503289 155.319626 
L 385.083605 155.319626 
L 385.083605 151.806596 
L 385.489636 151.806596 
L 385.489636 148.293566 
L 386.129656 148.293566 
L 386.129656 144.780537 
L 387.37238 144.780537 
L 387.37238 141.267507 
L 388.07074 141.267507 
L 388.07074 137.754477 
L 388.657953 137.754477 
L 388.657953 134.241447 
L 389.868939 134.241447 
L 389.868939 130.728418 
L 393.982414 130.728418 
L 393.982414 127.215388 
L 395.170253 127.215388 
L 395.170253 123.702358 
L 396.133504 123.702358 
L 396.133504 120.189329 
L 396.133504 120.189329 
L 396.133504 120.189329 
L 426.4825 120.189329 
" style="fill:none;stroke:#f5deb3;stroke-linecap:square;stroke-width:1.5;"/>
   </g>
   <g id="line2d_25">
    <path clip-path="url(#p746645e3bb)" d="M 222.787701 278.275665 
L 222.787701 274.762636 
L 225.353996 274.762636 
L 225.353996 271.249606 
L 225.86951 271.249606 
L 225.86951 267.736576 
L 226.681428 267.736576 
L 226.681428 264.223546 
L 236.220049 264.223546 
L 236.220049 260.710517 
L 237.288362 260.710517 
L 237.288362 257.197487 
L 237.52213 257.197487 
L 237.52213 253.684457 
L 240.521045 253.684457 
L 240.521045 250.171428 
L 246.262414 250.171428 
L 246.262414 246.658398 
L 250.150113 246.658398 
L 250.150113 243.145368 
L 251.03322 243.145368 
L 251.03322 239.632338 
L 255.113976 239.632338 
L 255.113976 236.119309 
L 255.774051 236.119309 
L 255.774051 232.606279 
L 258.433926 232.606279 
L 258.433926 229.093249 
L 315.700137 229.093249 
L 315.700137 225.58022 
L 438.1825 225.58022 
" style="fill:none;stroke:#f5deb3;stroke-linecap:square;stroke-width:1.5;"/>
   </g>
   <g id="line2d_26">
    <path clip-path="url(#p746645e3bb)" d="M 254.495356 278.275665 
L 254.495356 274.762636 
L 255.16512 274.762636 
L 255.16512 271.249606 
L 257.549736 271.249606 
L 257.549736 267.736576 
L 258.125376 267.736576 
L 258.125376 264.223546 
L 258.220555 264.223546 
L 258.220555 260.710517 
L 258.433926 260.710517 
L 258.433926 257.197487 
L 258.457568 257.197487 
L 258.457568 253.684457 
L 259.090918 253.684457 
L 259.090918 250.171428 
L 259.090918 250.171428 
L 259.090918 246.658398 
L 259.898002 246.658398 
L 259.898002 243.145368 
L 260.712319 243.145368 
L 260.712319 239.632338 
L 261.135832 239.632338 
L 261.135832 236.119309 
L 262.100553 236.119309 
L 262.100553 232.606279 
L 262.295189 232.606279 
L 262.295189 229.093249 
L 272.817414 229.093249 
L 272.817414 225.58022 
L 315.438257 225.58022 
L 315.438257 222.06719 
L 319.71045 222.06719 
L 319.71045 218.55416 
L 324.775251 218.55416 
L 324.775251 215.041131 
L 325.092196 215.041131 
L 325.092196 211.528101 
L 325.469409 211.528101 
L 325.469409 208.015071 
L 325.757291 208.015071 
L 325.757291 204.502041 
L 326.095429 204.502041 
L 326.095429 200.989012 
L 326.369653 200.989012 
L 326.369653 197.475982 
L 328.889422 197.475982 
L 328.889422 193.962952 
L 328.938223 193.962952 
L 328.938223 190.449923 
L 329.256255 190.449923 
L 329.256255 186.936893 
L 330.462158 186.936893 
L 330.462158 183.423863 
L 330.496354 183.423863 
L 330.496354 179.910834 
L 333.553111 179.910834 
L 333.553111 176.397804 
L 333.818509 176.397804 
L 333.818509 172.884774 
L 358.368028 172.884774 
L 358.368028 169.371744 
L 360.445485 169.371744 
L 360.445485 165.858715 
L 360.539808 165.858715 
L 360.539808 162.345685 
L 360.863088 162.345685 
L 360.863088 158.832655 
L 360.90047 158.832655 
L 360.90047 155.319626 
L 362.238667 155.319626 
L 362.238667 151.806596 
L 362.706616 151.806596 
L 362.706616 148.293566 
L 362.859469 148.293566 
L 362.859469 144.780537 
L 362.873337 144.780537 
L 362.873337 141.267507 
L 362.968311 141.267507 
L 362.968311 137.754477 
L 364.929929 137.754477 
L 364.929929 134.241447 
L 366.34342 134.241447 
L 366.34342 130.728418 
L 366.757296 130.728418 
L 366.757296 127.215388 
L 377.132444 127.215388 
L 377.132444 123.702358 
L 438.1825 123.702358 
" style="fill:none;stroke:#f5deb3;stroke-linecap:square;stroke-width:1.5;"/>
   </g>
   <g id="line2d_27">
    <path clip-path="url(#p746645e3bb)" d="M 319.283257 278.275665 
L 319.283257 274.762636 
L 319.411314 274.762636 
L 319.411314 271.249606 
L 319.793167 271.249606 
L 319.793167 267.736576 
L 320.166129 267.736576 
L 320.166129 264.223546 
L 320.198879 264.223546 
L 320.198879 260.710517 
L 320.49791 260.710517 
L 320.49791 257.197487 
L 320.816346 257.197487 
L 320.816346 253.684457 
L 321.831006 253.684457 
L 321.831006 250.171428 
L 322.399282 250.171428 
L 322.399282 246.658398 
L 322.924207 246.658398 
L 322.924207 243.145368 
L 323.326318 243.145368 
L 323.326318 239.632338 
L 325.019266 239.632338 
L 325.019266 236.119309 
L 325.560785 236.119309 
L 325.560785 232.606279 
L 326.576501 232.606279 
L 326.576501 229.093249 
L 340.002874 229.093249 
L 340.002874 225.58022 
L 340.002874 225.58022 
L 340.002874 225.58022 
L 426.4825 225.58022 
" style="fill:none;stroke:#f5deb3;stroke-linecap:square;stroke-width:1.5;"/>
   </g>
   <g id="line2d_28">
    <path clip-path="url(#p746645e3bb)" d="M 194.359232 278.275665 
L 194.359232 274.762636 
L 194.467363 274.762636 
L 194.467363 271.249606 
L 194.575217 271.249606 
L 194.575217 267.736576 
L 194.682795 267.736576 
L 194.682795 264.223546 
L 198.775038 264.223546 
L 198.775038 260.710517 
L 198.775038 260.710517 
L 198.775038 257.197487 
L 198.775038 257.197487 
L 198.775038 253.684457 
L 198.775038 253.684457 
L 198.775038 250.171428 
L 198.872418 250.171428 
L 198.872418 246.658398 
L 202.771484 246.658398 
L 202.771484 243.145368 
L 202.771484 243.145368 
L 202.771484 239.632338 
L 203.03665 239.632338 
L 203.03665 236.119309 
L 206.825945 236.119309 
L 206.825945 232.606279 
L 209.855013 232.606279 
L 209.855013 229.093249 
L 216.046537 229.093249 
L 216.046537 225.58022 
L 340.301843 225.58022 
L 340.301843 222.06719 
L 340.437039 222.06719 
L 340.437039 218.55416 
L 340.538152 218.55416 
L 340.538152 215.041131 
L 340.632306 215.041131 
L 340.632306 211.528101 
L 340.689368 211.528101 
L 340.689368 208.015071 
L 341.262397 208.015071 
L 341.262397 204.502041 
L 341.532865 204.502041 
L 341.532865 200.989012 
L 341.59857 200.989012 
L 341.59857 197.475982 
L 341.61498 197.475982 
L 341.61498 193.962952 
L 342.136761 193.962952 
L 342.136761 190.449923 
L 342.208003 190.449923 
L 342.208003 186.936893 
L 342.757677 186.936893 
L 342.757677 183.423863 
L 343.237168 183.423863 
L 343.237168 179.910834 
L 343.463892 179.910834 
L 343.463892 176.397804 
L 343.676905 176.397804 
L 343.676905 172.884774 
L 358.131483 172.884774 
L 358.131483 169.371744 
L 359.853797 169.371744 
L 359.853797 165.858715 
L 359.977045 165.858715 
L 359.977045 162.345685 
L 360.640186 162.345685 
L 360.640186 158.832655 
L 360.677766 158.832655 
L 360.677766 155.319626 
L 361.190091 155.319626 
L 361.190091 151.806596 
L 361.500252 151.806596 
L 361.500252 148.293566 
L 361.575905 148.293566 
L 361.575905 144.780537 
L 361.6147 144.780537 
L 361.6147 141.267507 
L 361.887303 141.267507 
L 361.887303 137.754477 
L 361.897441 137.754477 
L 361.897441 134.241447 
L 362.164197 134.241447 
L 362.164197 130.728418 
L 362.353134 130.728418 
L 362.353134 127.215388 
L 362.972264 127.215388 
L 362.972264 123.702358 
L 365.733392 123.702358 
L 365.733392 120.189329 
L 365.733392 120.189329 
L 365.733392 120.189329 
L 426.4825 120.189329 
" style="fill:none;stroke:#f5deb3;stroke-linecap:square;stroke-width:1.5;"/>
   </g>
   <g id="line2d_29">
    <path clip-path="url(#p746645e3bb)" d="M 98.55576 278.275665 
L 98.55576 274.762636 
L 98.55576 274.762636 
L 98.55576 271.249606 
L 98.55576 271.249606 
L 98.55576 267.736576 
L 98.55576 267.736576 
L 98.55576 264.223546 
L 98.55576 264.223546 
L 98.55576 260.710517 
L 98.55576 260.710517 
L 98.55576 257.197487 
L 99.595738 257.197487 
L 99.595738 253.684457 
L 99.595738 253.684457 
L 99.595738 250.171428 
L 99.595738 250.171428 
L 99.595738 246.658398 
L 99.595738 246.658398 
L 99.595738 243.145368 
L 99.595738 243.145368 
L 99.595738 239.632338 
L 99.595738 239.632338 
L 99.595738 236.119309 
L 99.595738 236.119309 
L 99.595738 232.606279 
L 99.595738 232.606279 
L 99.595738 229.093249 
L 99.595738 229.093249 
L 99.595738 225.58022 
L 119.646899 225.58022 
L 119.646899 222.06719 
L 119.646899 222.06719 
L 119.646899 218.55416 
L 119.646899 218.55416 
L 119.646899 215.041131 
L 190.029897 215.041131 
L 190.029897 211.528101 
L 190.029897 211.528101 
L 190.029897 208.015071 
L 190.029897 208.015071 
L 190.029897 204.502041 
L 190.62562 204.502041 
L 190.62562 200.989012 
L 190.62562 200.989012 
L 190.62562 197.475982 
L 190.62562 197.475982 
L 190.62562 193.962952 
L 191.096206 193.962952 
L 191.096206 190.449923 
L 191.096206 190.449923 
L 191.096206 186.936893 
L 191.096206 186.936893 
L 191.096206 183.423863 
L 191.329542 183.423863 
L 191.329542 179.910834 
L 191.329542 179.910834 
L 191.329542 176.397804 
L 191.329542 176.397804 
L 191.329542 172.884774 
L 191.329542 172.884774 
L 191.329542 172.884774 
L 426.4825 172.884774 
" style="fill:none;stroke:#f5deb3;stroke-linecap:square;stroke-width:1.5;"/>
   </g>
   <g id="line2d_30">
    <path clip-path="url(#p746645e3bb)" d="M 191.213035 278.275665 
L 191.213035 274.762636 
L 191.213035 274.762636 
L 191.213035 271.249606 
L 191.79237 271.249606 
L 191.79237 267.736576 
L 192.815505 267.736576 
L 192.815505 264.223546 
L 193.262373 264.223546 
L 193.262373 260.710517 
L 193.262373 260.710517 
L 193.262373 257.197487 
L 193.92391 257.197487 
L 193.92391 253.684457 
L 194.142133 253.684457 
L 194.142133 250.171428 
L 194.250822 250.171428 
L 194.250822 246.658398 
L 194.359232 246.658398 
L 194.359232 243.145368 
L 194.682795 243.145368 
L 194.682795 239.632338 
L 195.322559 239.632338 
L 195.322559 236.119309 
L 195.848371 236.119309 
L 195.848371 232.606279 
L 195.95275 232.606279 
L 195.95275 229.093249 
L 196.880701 229.093249 
L 196.880701 225.58022 
L 197.084165 225.58022 
L 197.084165 222.06719 
L 197.38753 222.06719 
L 197.38753 218.55416 
L 198.086997 218.55416 
L 198.086997 215.041131 
L 198.383249 215.041131 
L 198.383249 211.528101 
L 198.775038 211.528101 
L 198.775038 208.015071 
L 199.452019 208.015071 
L 199.452019 204.502041 
L 199.738855 204.502041 
L 199.738855 200.989012 
L 200.681109 200.989012 
L 200.681109 197.475982 
L 201.693806 197.475982 
L 201.693806 193.962952 
L 201.965822 193.962952 
L 201.965822 190.449923 
L 202.146194 190.449923 
L 202.146194 186.936893 
L 202.860059 186.936893 
L 202.860059 183.423863 
L 203.387627 183.423863 
L 203.387627 179.910834 
L 203.562024 179.910834 
L 203.562024 176.397804 
L 212.890483 176.397804 
L 212.890483 172.884774 
L 216.111183 172.884774 
L 216.111183 169.371744 
L 216.111183 169.371744 
L 216.111183 165.858715 
L 216.111183 165.858715 
L 216.111183 162.345685 
L 216.111183 162.345685 
L 216.111183 158.832655 
L 216.111183 158.832655 
L 216.111183 155.319626 
L 216.111183 155.319626 
L 216.111183 151.806596 
L 216.111183 151.806596 
L 216.111183 148.293566 
L 216.111183 148.293566 
L 216.111183 144.780537 
L 216.111183 144.780537 
L 216.111183 141.267507 
L 216.111183 141.267507 
L 216.111183 137.754477 
L 216.111183 137.754477 
L 216.111183 134.241447 
L 216.111183 134.241447 
L 216.111183 130.728418 
L 216.111183 130.728418 
L 216.111183 127.215388 
L 216.111183 127.215388 
L 216.111183 123.702358 
L 216.111183 123.702358 
L 216.111183 120.189329 
L 216.111183 120.189329 
L 216.111183 120.189329 
L 426.4825 120.189329 
" style="fill:none;stroke:#f5deb3;stroke-linecap:square;stroke-width:1.5;"/>
   </g>
   <g id="matplotlib.axis_1">
    <g id="xtick_1">
     <g id="line2d_31">
      <path clip-path="url(#p746645e3bb)" d="M 166.340412 278.275665 
L 166.340412 12.163665 
" style="fill:none;stroke:#b0b0b0;stroke-linecap:square;stroke-width:0.8;"/>
     </g>
     <g id="line2d_32">
      <defs>
       <path d="M 0 0 
L 0 3.5 
" id="m83d8a58147" style="stroke:#000000;stroke-width:0.8;"/>
      </defs>
      <g>
       <use style="stroke:#000000;stroke-width:0.8;" x="166.340412" xlink:href="#m83d8a58147" y="278.275665"/>
      </g>
     </g>
     <g id="text_1">
      <!-- 1 -->
      <defs>
       <path d="M 12.40625 8.296875 
L 28.515625 8.296875 
L 28.515625 63.921875 
L 10.984375 60.40625 
L 10.984375 69.390625 
L 28.421875 72.90625 
L 38.28125 72.90625 
L 38.28125 8.296875 
L 54.390625 8.296875 
L 54.390625 0 
L 12.40625 0 
z
" id="DejaVuSans-31"/>
      </defs>
      <g transform="translate(159.977912 300.47254)scale(0.2 -0.2)">
       <use xlink:href="#DejaVuSans-31"/>
      </g>
     </g>
    </g>
    <g id="xtick_2">
     <g id="line2d_33">
      <path clip-path="url(#p746645e3bb)" d="M 360.296235 278.275665 
L 360.296235 12.163665 
" style="fill:none;stroke:#b0b0b0;stroke-linecap:square;stroke-width:0.8;"/>
     </g>
     <g id="line2d_34">
      <g>
       <use style="stroke:#000000;stroke-width:0.8;" x="360.296235" xlink:href="#m83d8a58147" y="278.275665"/>
      </g>
     </g>
     <g id="text_2">
      <!-- 3 -->
      <defs>
       <path d="M 40.578125 39.3125 
Q 47.65625 37.796875 51.625 33 
Q 55.609375 28.21875 55.609375 21.1875 
Q 55.609375 10.40625 48.1875 4.484375 
Q 40.765625 -1.421875 27.09375 -1.421875 
Q 22.515625 -1.421875 17.65625 -0.515625 
Q 12.796875 0.390625 7.625 2.203125 
L 7.625 11.71875 
Q 11.71875 9.328125 16.59375 8.109375 
Q 21.484375 6.890625 26.8125 6.890625 
Q 36.078125 6.890625 40.9375 10.546875 
Q 45.796875 14.203125 45.796875 21.1875 
Q 45.796875 27.640625 41.28125 31.265625 
Q 36.765625 34.90625 28.71875 34.90625 
L 20.21875 34.90625 
L 20.21875 43.015625 
L 29.109375 43.015625 
Q 36.375 43.015625 40.234375 45.921875 
Q 44.09375 48.828125 44.09375 54.296875 
Q 44.09375 59.90625 40.109375 62.90625 
Q 36.140625 65.921875 28.71875 65.921875 
Q 24.65625 65.921875 20.015625 65.03125 
Q 15.375 64.15625 9.8125 62.3125 
L 9.8125 71.09375 
Q 15.4375 72.65625 20.34375 73.4375 
Q 25.25 74.21875 29.59375 74.21875 
Q 40.828125 74.21875 47.359375 69.109375 
Q 53.90625 64.015625 53.90625 55.328125 
Q 53.90625 49.265625 50.4375 45.09375 
Q 46.96875 40.921875 40.578125 39.3125 
" id="DejaVuSans-33"/>
      </defs>
      <g transform="translate(353.933735 300.47254)scale(0.2 -0.2)">
       <use xlink:href="#DejaVuSans-33"/>
      </g>
     </g>
    </g>
    <g id="xtick_3">
     <g id="line2d_35">
      <defs>
       <path d="M 0 0 
L 0 2 
" id="m42866350fd" style="stroke:#000000;stroke-width:0.6;"/>
      </defs>
      <g>
       <use style="stroke:#000000;stroke-width:0.6;" x="98.55576" xlink:href="#m42866350fd" y="278.275665"/>
      </g>
     </g>
    </g>
    <g id="xtick_4">
     <g id="line2d_36">
      <g>
       <use style="stroke:#000000;stroke-width:0.6;" x="115.632723" xlink:href="#m42866350fd" y="278.275665"/>
      </g>
     </g>
    </g>
    <g id="xtick_5">
     <g id="line2d_37">
      <g>
       <use style="stroke:#000000;stroke-width:0.6;" x="127.749021" xlink:href="#m42866350fd" y="278.275665"/>
      </g>
     </g>
    </g>
    <g id="xtick_6">
     <g id="line2d_38">
      <g>
       <use style="stroke:#000000;stroke-width:0.6;" x="137.147151" xlink:href="#m42866350fd" y="278.275665"/>
      </g>
     </g>
    </g>
    <g id="xtick_7">
     <g id="line2d_39">
      <g>
       <use style="stroke:#000000;stroke-width:0.6;" x="144.825983" xlink:href="#m42866350fd" y="278.275665"/>
      </g>
     </g>
    </g>
    <g id="xtick_8">
     <g id="line2d_40">
      <g>
       <use style="stroke:#000000;stroke-width:0.6;" x="151.318343" xlink:href="#m42866350fd" y="278.275665"/>
      </g>
     </g>
    </g>
    <g id="xtick_9">
     <g id="line2d_41">
      <g>
       <use style="stroke:#000000;stroke-width:0.6;" x="156.942281" xlink:href="#m42866350fd" y="278.275665"/>
      </g>
     </g>
    </g>
    <g id="xtick_10">
     <g id="line2d_42">
      <g>
       <use style="stroke:#000000;stroke-width:0.6;" x="161.902946" xlink:href="#m42866350fd" y="278.275665"/>
      </g>
     </g>
    </g>
    <g id="xtick_11">
     <g id="line2d_43">
      <g>
       <use style="stroke:#000000;stroke-width:0.6;" x="195.533672" xlink:href="#m42866350fd" y="278.275665"/>
      </g>
     </g>
    </g>
    <g id="xtick_12">
     <g id="line2d_44">
      <g>
       <use style="stroke:#000000;stroke-width:0.6;" x="212.610635" xlink:href="#m42866350fd" y="278.275665"/>
      </g>
     </g>
    </g>
    <g id="xtick_13">
     <g id="line2d_45">
      <g>
       <use style="stroke:#000000;stroke-width:0.6;" x="224.726932" xlink:href="#m42866350fd" y="278.275665"/>
      </g>
     </g>
    </g>
    <g id="xtick_14">
     <g id="line2d_46">
      <g>
       <use style="stroke:#000000;stroke-width:0.6;" x="234.125063" xlink:href="#m42866350fd" y="278.275665"/>
      </g>
     </g>
    </g>
    <g id="xtick_15">
     <g id="line2d_47">
      <g>
       <use style="stroke:#000000;stroke-width:0.6;" x="241.803895" xlink:href="#m42866350fd" y="278.275665"/>
      </g>
     </g>
    </g>
    <g id="xtick_16">
     <g id="line2d_48">
      <g>
       <use style="stroke:#000000;stroke-width:0.6;" x="248.296255" xlink:href="#m42866350fd" y="278.275665"/>
      </g>
     </g>
    </g>
    <g id="xtick_17">
     <g id="line2d_49">
      <g>
       <use style="stroke:#000000;stroke-width:0.6;" x="253.920193" xlink:href="#m42866350fd" y="278.275665"/>
      </g>
     </g>
    </g>
    <g id="xtick_18">
     <g id="line2d_50">
      <g>
       <use style="stroke:#000000;stroke-width:0.6;" x="258.880857" xlink:href="#m42866350fd" y="278.275665"/>
      </g>
     </g>
    </g>
    <g id="xtick_19">
     <g id="line2d_51">
      <g>
       <use style="stroke:#000000;stroke-width:0.6;" x="292.511584" xlink:href="#m42866350fd" y="278.275665"/>
      </g>
     </g>
    </g>
    <g id="xtick_20">
     <g id="line2d_52">
      <g>
       <use style="stroke:#000000;stroke-width:0.6;" x="309.588546" xlink:href="#m42866350fd" y="278.275665"/>
      </g>
     </g>
    </g>
    <g id="xtick_21">
     <g id="line2d_53">
      <g>
       <use style="stroke:#000000;stroke-width:0.6;" x="321.704844" xlink:href="#m42866350fd" y="278.275665"/>
      </g>
     </g>
    </g>
    <g id="xtick_22">
     <g id="line2d_54">
      <g>
       <use style="stroke:#000000;stroke-width:0.6;" x="331.102975" xlink:href="#m42866350fd" y="278.275665"/>
      </g>
     </g>
    </g>
    <g id="xtick_23">
     <g id="line2d_55">
      <g>
       <use style="stroke:#000000;stroke-width:0.6;" x="338.781806" xlink:href="#m42866350fd" y="278.275665"/>
      </g>
     </g>
    </g>
    <g id="xtick_24">
     <g id="line2d_56">
      <g>
       <use style="stroke:#000000;stroke-width:0.6;" x="345.274166" xlink:href="#m42866350fd" y="278.275665"/>
      </g>
     </g>
    </g>
    <g id="xtick_25">
     <g id="line2d_57">
      <g>
       <use style="stroke:#000000;stroke-width:0.6;" x="350.898104" xlink:href="#m42866350fd" y="278.275665"/>
      </g>
     </g>
    </g>
    <g id="xtick_26">
     <g id="line2d_58">
      <g>
       <use style="stroke:#000000;stroke-width:0.6;" x="355.858769" xlink:href="#m42866350fd" y="278.275665"/>
      </g>
     </g>
    </g>
    <g id="xtick_27">
     <g id="line2d_59">
      <g>
       <use style="stroke:#000000;stroke-width:0.6;" x="389.489495" xlink:href="#m42866350fd" y="278.275665"/>
      </g>
     </g>
    </g>
    <g id="xtick_28">
     <g id="line2d_60">
      <g>
       <use style="stroke:#000000;stroke-width:0.6;" x="406.566458" xlink:href="#m42866350fd" y="278.275665"/>
      </g>
     </g>
    </g>
    <g id="xtick_29">
     <g id="line2d_61">
      <g>
       <use style="stroke:#000000;stroke-width:0.6;" x="418.682756" xlink:href="#m42866350fd" y="278.275665"/>
      </g>
     </g>
    </g>
    <g id="text_3">
     <!-- log10 of FEvals / DIM -->
     <defs>
      <path d="M 9.421875 75.984375 
L 18.40625 75.984375 
L 18.40625 0 
L 9.421875 0 
z
" id="DejaVuSans-6c"/>
      <path d="M 30.609375 48.390625 
Q 23.390625 48.390625 19.1875 42.75 
Q 14.984375 37.109375 14.984375 27.296875 
Q 14.984375 17.484375 19.15625 11.84375 
Q 23.34375 6.203125 30.609375 6.203125 
Q 37.796875 6.203125 41.984375 11.859375 
Q 46.1875 17.53125 46.1875 27.296875 
Q 46.1875 37.015625 41.984375 42.703125 
Q 37.796875 48.390625 30.609375 48.390625 
M 30.609375 56 
Q 42.328125 56 49.015625 48.375 
Q 55.71875 40.765625 55.71875 27.296875 
Q 55.71875 13.875 49.015625 6.21875 
Q 42.328125 -1.421875 30.609375 -1.421875 
Q 18.84375 -1.421875 12.171875 6.21875 
Q 5.515625 13.875 5.515625 27.296875 
Q 5.515625 40.765625 12.171875 48.375 
Q 18.84375 56 30.609375 56 
" id="DejaVuSans-6f"/>
      <path d="M 45.40625 27.984375 
Q 45.40625 37.75 41.375 43.109375 
Q 37.359375 48.484375 30.078125 48.484375 
Q 22.859375 48.484375 18.828125 43.109375 
Q 14.796875 37.75 14.796875 27.984375 
Q 14.796875 18.265625 18.828125 12.890625 
Q 22.859375 7.515625 30.078125 7.515625 
Q 37.359375 7.515625 41.375 12.890625 
Q 45.40625 18.265625 45.40625 27.984375 
M 54.390625 6.78125 
Q 54.390625 -7.171875 48.1875 -13.984375 
Q 42 -20.796875 29.203125 -20.796875 
Q 24.46875 -20.796875 20.265625 -20.09375 
Q 16.0625 -19.390625 12.109375 -17.921875 
L 12.109375 -9.1875 
Q 16.0625 -11.328125 19.921875 -12.34375 
Q 23.78125 -13.375 27.78125 -13.375 
Q 36.625 -13.375 41.015625 -8.765625 
Q 45.40625 -4.15625 45.40625 5.171875 
L 45.40625 9.625 
Q 42.625 4.78125 38.28125 2.390625 
Q 33.9375 0 27.875 0 
Q 17.828125 0 11.671875 7.65625 
Q 5.515625 15.328125 5.515625 27.984375 
Q 5.515625 40.671875 11.671875 48.328125 
Q 17.828125 56 27.875 56 
Q 33.9375 56 38.28125 53.609375 
Q 42.625 51.21875 45.40625 46.390625 
L 45.40625 54.6875 
L 54.390625 54.6875 
z
" id="DejaVuSans-67"/>
      <path d="M 31.78125 66.40625 
Q 24.171875 66.40625 20.328125 58.90625 
Q 16.5 51.421875 16.5 36.375 
Q 16.5 21.390625 20.328125 13.890625 
Q 24.171875 6.390625 31.78125 6.390625 
Q 39.453125 6.390625 43.28125 13.890625 
Q 47.125 21.390625 47.125 36.375 
Q 47.125 51.421875 43.28125 58.90625 
Q 39.453125 66.40625 31.78125 66.40625 
M 31.78125 74.21875 
Q 44.046875 74.21875 50.515625 64.515625 
Q 56.984375 54.828125 56.984375 36.375 
Q 56.984375 17.96875 50.515625 8.265625 
Q 44.046875 -1.421875 31.78125 -1.421875 
Q 19.53125 -1.421875 13.0625 8.265625 
Q 6.59375 17.96875 6.59375 36.375 
Q 6.59375 54.828125 13.0625 64.515625 
Q 19.53125 74.21875 31.78125 74.21875 
" id="DejaVuSans-30"/>
      <path id="DejaVuSans-20"/>
      <path d="M 37.109375 75.984375 
L 37.109375 68.5 
L 28.515625 68.5 
Q 23.6875 68.5 21.796875 66.546875 
Q 19.921875 64.59375 19.921875 59.515625 
L 19.921875 54.6875 
L 34.71875 54.6875 
L 34.71875 47.703125 
L 19.921875 47.703125 
L 19.921875 0 
L 10.890625 0 
L 10.890625 47.703125 
L 2.296875 47.703125 
L 2.296875 54.6875 
L 10.890625 54.6875 
L 10.890625 58.5 
Q 10.890625 67.625 15.140625 71.796875 
Q 19.390625 75.984375 28.609375 75.984375 
z
" id="DejaVuSans-66"/>
      <path d="M 9.8125 72.90625 
L 51.703125 72.90625 
L 51.703125 64.59375 
L 19.671875 64.59375 
L 19.671875 43.109375 
L 48.578125 43.109375 
L 48.578125 34.8125 
L 19.671875 34.8125 
L 19.671875 0 
L 9.8125 0 
z
" id="DejaVuSans-46"/>
      <path d="M 9.8125 72.90625 
L 55.90625 72.90625 
L 55.90625 64.59375 
L 19.671875 64.59375 
L 19.671875 43.015625 
L 54.390625 43.015625 
L 54.390625 34.71875 
L 19.671875 34.71875 
L 19.671875 8.296875 
L 56.78125 8.296875 
L 56.78125 0 
L 9.8125 0 
z
" id="DejaVuSans-45"/>
      <path d="M 2.984375 54.6875 
L 12.5 54.6875 
L 29.59375 8.796875 
L 46.6875 54.6875 
L 56.203125 54.6875 
L 35.6875 0 
L 23.484375 0 
z
" id="DejaVuSans-76"/>
      <path d="M 34.28125 27.484375 
Q 23.390625 27.484375 19.1875 25 
Q 14.984375 22.515625 14.984375 16.5 
Q 14.984375 11.71875 18.140625 8.90625 
Q 21.296875 6.109375 26.703125 6.109375 
Q 34.1875 6.109375 38.703125 11.40625 
Q 43.21875 16.703125 43.21875 25.484375 
L 43.21875 27.484375 
z
M 52.203125 31.203125 
L 52.203125 0 
L 43.21875 0 
L 43.21875 8.296875 
Q 40.140625 3.328125 35.546875 0.953125 
Q 30.953125 -1.421875 24.3125 -1.421875 
Q 15.921875 -1.421875 10.953125 3.296875 
Q 6 8.015625 6 15.921875 
Q 6 25.140625 12.171875 29.828125 
Q 18.359375 34.515625 30.609375 34.515625 
L 43.21875 34.515625 
L 43.21875 35.40625 
Q 43.21875 41.609375 39.140625 45 
Q 35.0625 48.390625 27.6875 48.390625 
Q 23 48.390625 18.546875 47.265625 
Q 14.109375 46.140625 10.015625 43.890625 
L 10.015625 52.203125 
Q 14.9375 54.109375 19.578125 55.046875 
Q 24.21875 56 28.609375 56 
Q 40.484375 56 46.34375 49.84375 
Q 52.203125 43.703125 52.203125 31.203125 
" id="DejaVuSans-61"/>
      <path d="M 44.28125 53.078125 
L 44.28125 44.578125 
Q 40.484375 46.53125 36.375 47.5 
Q 32.28125 48.484375 27.875 48.484375 
Q 21.1875 48.484375 17.84375 46.4375 
Q 14.5 44.390625 14.5 40.28125 
Q 14.5 37.15625 16.890625 35.375 
Q 19.28125 33.59375 26.515625 31.984375 
L 29.59375 31.296875 
Q 39.15625 29.25 43.1875 25.515625 
Q 47.21875 21.78125 47.21875 15.09375 
Q 47.21875 7.46875 41.1875 3.015625 
Q 35.15625 -1.421875 24.609375 -1.421875 
Q 20.21875 -1.421875 15.453125 -0.5625 
Q 10.6875 0.296875 5.421875 2 
L 5.421875 11.28125 
Q 10.40625 8.6875 15.234375 7.390625 
Q 20.0625 6.109375 24.8125 6.109375 
Q 31.15625 6.109375 34.5625 8.28125 
Q 37.984375 10.453125 37.984375 14.40625 
Q 37.984375 18.0625 35.515625 20.015625 
Q 33.0625 21.96875 24.703125 23.78125 
L 21.578125 24.515625 
Q 13.234375 26.265625 9.515625 29.90625 
Q 5.8125 33.546875 5.8125 39.890625 
Q 5.8125 47.609375 11.28125 51.796875 
Q 16.75 56 26.8125 56 
Q 31.78125 56 36.171875 55.265625 
Q 40.578125 54.546875 44.28125 53.078125 
" id="DejaVuSans-73"/>
      <path d="M 25.390625 72.90625 
L 33.6875 72.90625 
L 8.296875 -9.28125 
L 0 -9.28125 
z
" id="DejaVuSans-2f"/>
      <path d="M 19.671875 64.796875 
L 19.671875 8.109375 
L 31.59375 8.109375 
Q 46.6875 8.109375 53.6875 14.9375 
Q 60.6875 21.78125 60.6875 36.53125 
Q 60.6875 51.171875 53.6875 57.984375 
Q 46.6875 64.796875 31.59375 64.796875 
z
M 9.8125 72.90625 
L 30.078125 72.90625 
Q 51.265625 72.90625 61.171875 64.09375 
Q 71.09375 55.28125 71.09375 36.53125 
Q 71.09375 17.671875 61.125 8.828125 
Q 51.171875 0 30.078125 0 
L 9.8125 0 
z
" id="DejaVuSans-44"/>
      <path d="M 9.8125 72.90625 
L 19.671875 72.90625 
L 19.671875 0 
L 9.8125 0 
z
" id="DejaVuSans-49"/>
      <path d="M 9.8125 72.90625 
L 24.515625 72.90625 
L 43.109375 23.296875 
L 61.8125 72.90625 
L 76.515625 72.90625 
L 76.515625 0 
L 66.890625 0 
L 66.890625 64.015625 
L 48.09375 14.015625 
L 38.1875 14.015625 
L 19.390625 64.015625 
L 19.390625 0 
L 9.8125 0 
z
" id="DejaVuSans-4d"/>
     </defs>
     <g transform="translate(142.849063 323.82879)scale(0.2 -0.2)">
      <use xlink:href="#DejaVuSans-6c"/>
      <use x="27.783203" xlink:href="#DejaVuSans-6f"/>
      <use x="88.964844" xlink:href="#DejaVuSans-67"/>
      <use x="152.441406" xlink:href="#DejaVuSans-31"/>
      <use x="216.064453" xlink:href="#DejaVuSans-30"/>
      <use x="279.6875" xlink:href="#DejaVuSans-20"/>
      <use x="311.474609" xlink:href="#DejaVuSans-6f"/>
      <use x="372.65625" xlink:href="#DejaVuSans-66"/>
      <use x="407.861328" xlink:href="#DejaVuSans-20"/>
      <use x="439.648438" xlink:href="#DejaVuSans-46"/>
      <use x="497.167969" xlink:href="#DejaVuSans-45"/>
      <use x="560.351562" xlink:href="#DejaVuSans-76"/>
      <use x="619.53125" xlink:href="#DejaVuSans-61"/>
      <use x="680.810547" xlink:href="#DejaVuSans-6c"/>
      <use x="708.59375" xlink:href="#DejaVuSans-73"/>
      <use x="760.693359" xlink:href="#DejaVuSans-20"/>
      <use x="792.480469" xlink:href="#DejaVuSans-2f"/>
      <use x="826.171875" xlink:href="#DejaVuSans-20"/>
      <use x="857.958984" xlink:href="#DejaVuSans-44"/>
      <use x="934.960938" xlink:href="#DejaVuSans-49"/>
      <use x="964.453125" xlink:href="#DejaVuSans-4d"/>
     </g>
    </g>
   </g>
   <g id="matplotlib.axis_2">
    <g id="ytick_1">
     <g id="line2d_62">
      <path clip-path="url(#p746645e3bb)" d="M 69.3625 278.275665 
L 426.4825 278.275665 
" style="fill:none;stroke:#b0b0b0;stroke-linecap:square;stroke-width:0.8;"/>
     </g>
     <g id="line2d_63">
      <defs>
       <path d="M 0 0 
L -3.5 0 
" id="mf3a05d857f" style="stroke:#000000;stroke-width:0.8;"/>
      </defs>
      <g>
       <use style="stroke:#000000;stroke-width:0.8;" x="69.3625" xlink:href="#mf3a05d857f" y="278.275665"/>
      </g>
     </g>
     <g id="text_4">
      <!-- 0.0 -->
      <defs>
       <path d="M 10.6875 12.40625 
L 21 12.40625 
L 21 0 
L 10.6875 0 
z
" id="DejaVuSans-2e"/>
      </defs>
      <g transform="translate(30.55625 285.874103)scale(0.2 -0.2)">
       <use xlink:href="#DejaVuSans-30"/>
       <use x="63.623047" xlink:href="#DejaVuSans-2e"/>
       <use x="95.410156" xlink:href="#DejaVuSans-30"/>
      </g>
     </g>
    </g>
    <g id="ytick_2">
     <g id="line2d_64">
      <path clip-path="url(#p746645e3bb)" d="M 69.3625 225.58022 
L 426.4825 225.58022 
" style="fill:none;stroke:#b0b0b0;stroke-linecap:square;stroke-width:0.8;"/>
     </g>
     <g id="line2d_65">
      <g>
       <use style="stroke:#000000;stroke-width:0.8;" x="69.3625" xlink:href="#mf3a05d857f" y="225.58022"/>
      </g>
     </g>
     <g id="text_5">
      <!-- 0.2 -->
      <defs>
       <path d="M 19.1875 8.296875 
L 53.609375 8.296875 
L 53.609375 0 
L 7.328125 0 
L 7.328125 8.296875 
Q 12.9375 14.109375 22.625 23.890625 
Q 32.328125 33.6875 34.8125 36.53125 
Q 39.546875 41.84375 41.421875 45.53125 
Q 43.3125 49.21875 43.3125 52.78125 
Q 43.3125 58.59375 39.234375 62.25 
Q 35.15625 65.921875 28.609375 65.921875 
Q 23.96875 65.921875 18.8125 64.3125 
Q 13.671875 62.703125 7.8125 59.421875 
L 7.8125 69.390625 
Q 13.765625 71.78125 18.9375 73 
Q 24.125 74.21875 28.421875 74.21875 
Q 39.75 74.21875 46.484375 68.546875 
Q 53.21875 62.890625 53.21875 53.421875 
Q 53.21875 48.921875 51.53125 44.890625 
Q 49.859375 40.875 45.40625 35.40625 
Q 44.1875 33.984375 37.640625 27.21875 
Q 31.109375 20.453125 19.1875 8.296875 
" id="DejaVuSans-32"/>
      </defs>
      <g transform="translate(30.55625 233.178657)scale(0.2 -0.2)">
       <use xlink:href="#DejaVuSans-30"/>
       <use x="63.623047" xlink:href="#DejaVuSans-2e"/>
       <use x="95.410156" xlink:href="#DejaVuSans-32"/>
      </g>
     </g>
    </g>
    <g id="ytick_3">
     <g id="line2d_66">
      <path clip-path="url(#p746645e3bb)" d="M 69.3625 172.884774 
L 426.4825 172.884774 
" style="fill:none;stroke:#b0b0b0;stroke-linecap:square;stroke-width:0.8;"/>
     </g>
     <g id="line2d_67">
      <g>
       <use style="stroke:#000000;stroke-width:0.8;" x="69.3625" xlink:href="#mf3a05d857f" y="172.884774"/>
      </g>
     </g>
     <g id="text_6">
      <!-- 0.4 -->
      <defs>
       <path d="M 37.796875 64.3125 
L 12.890625 25.390625 
L 37.796875 25.390625 
z
M 35.203125 72.90625 
L 47.609375 72.90625 
L 47.609375 25.390625 
L 58.015625 25.390625 
L 58.015625 17.1875 
L 47.609375 17.1875 
L 47.609375 0 
L 37.796875 0 
L 37.796875 17.1875 
L 4.890625 17.1875 
L 4.890625 26.703125 
z
" id="DejaVuSans-34"/>
      </defs>
      <g transform="translate(30.55625 180.483212)scale(0.2 -0.2)">
       <use xlink:href="#DejaVuSans-30"/>
       <use x="63.623047" xlink:href="#DejaVuSans-2e"/>
       <use x="95.410156" xlink:href="#DejaVuSans-34"/>
      </g>
     </g>
    </g>
    <g id="ytick_4">
     <g id="line2d_68">
      <path clip-path="url(#p746645e3bb)" d="M 69.3625 120.189329 
L 426.4825 120.189329 
" style="fill:none;stroke:#b0b0b0;stroke-linecap:square;stroke-width:0.8;"/>
     </g>
     <g id="line2d_69">
      <g>
       <use style="stroke:#000000;stroke-width:0.8;" x="69.3625" xlink:href="#mf3a05d857f" y="120.189329"/>
      </g>
     </g>
     <g id="text_7">
      <!-- 0.6 -->
      <defs>
       <path d="M 33.015625 40.375 
Q 26.375 40.375 22.484375 35.828125 
Q 18.609375 31.296875 18.609375 23.390625 
Q 18.609375 15.53125 22.484375 10.953125 
Q 26.375 6.390625 33.015625 6.390625 
Q 39.65625 6.390625 43.53125 10.953125 
Q 47.40625 15.53125 47.40625 23.390625 
Q 47.40625 31.296875 43.53125 35.828125 
Q 39.65625 40.375 33.015625 40.375 
M 52.59375 71.296875 
L 52.59375 62.3125 
Q 48.875 64.0625 45.09375 64.984375 
Q 41.3125 65.921875 37.59375 65.921875 
Q 27.828125 65.921875 22.671875 59.328125 
Q 17.53125 52.734375 16.796875 39.40625 
Q 19.671875 43.65625 24.015625 45.921875 
Q 28.375 48.1875 33.59375 48.1875 
Q 44.578125 48.1875 50.953125 41.515625 
Q 57.328125 34.859375 57.328125 23.390625 
Q 57.328125 12.15625 50.6875 5.359375 
Q 44.046875 -1.421875 33.015625 -1.421875 
Q 20.359375 -1.421875 13.671875 8.265625 
Q 6.984375 17.96875 6.984375 36.375 
Q 6.984375 53.65625 15.1875 63.9375 
Q 23.390625 74.21875 37.203125 74.21875 
Q 40.921875 74.21875 44.703125 73.484375 
Q 48.484375 72.75 52.59375 71.296875 
" id="DejaVuSans-36"/>
      </defs>
      <g transform="translate(30.55625 127.787766)scale(0.2 -0.2)">
       <use xlink:href="#DejaVuSans-30"/>
       <use x="63.623047" xlink:href="#DejaVuSans-2e"/>
       <use x="95.410156" xlink:href="#DejaVuSans-36"/>
      </g>
     </g>
    </g>
    <g id="ytick_5">
     <g id="line2d_70">
      <path clip-path="url(#p746645e3bb)" d="M 69.3625 67.493883 
L 426.4825 67.493883 
" style="fill:none;stroke:#b0b0b0;stroke-linecap:square;stroke-width:0.8;"/>
     </g>
     <g id="line2d_71">
      <g>
       <use style="stroke:#000000;stroke-width:0.8;" x="69.3625" xlink:href="#mf3a05d857f" y="67.493883"/>
      </g>
     </g>
     <g id="text_8">
      <!-- 0.8 -->
      <defs>
       <path d="M 31.78125 34.625 
Q 24.75 34.625 20.71875 30.859375 
Q 16.703125 27.09375 16.703125 20.515625 
Q 16.703125 13.921875 20.71875 10.15625 
Q 24.75 6.390625 31.78125 6.390625 
Q 38.8125 6.390625 42.859375 10.171875 
Q 46.921875 13.96875 46.921875 20.515625 
Q 46.921875 27.09375 42.890625 30.859375 
Q 38.875 34.625 31.78125 34.625 
M 21.921875 38.8125 
Q 15.578125 40.375 12.03125 44.71875 
Q 8.5 49.078125 8.5 55.328125 
Q 8.5 64.0625 14.71875 69.140625 
Q 20.953125 74.21875 31.78125 74.21875 
Q 42.671875 74.21875 48.875 69.140625 
Q 55.078125 64.0625 55.078125 55.328125 
Q 55.078125 49.078125 51.53125 44.71875 
Q 48 40.375 41.703125 38.8125 
Q 48.828125 37.15625 52.796875 32.3125 
Q 56.78125 27.484375 56.78125 20.515625 
Q 56.78125 9.90625 50.3125 4.234375 
Q 43.84375 -1.421875 31.78125 -1.421875 
Q 19.734375 -1.421875 13.25 4.234375 
Q 6.78125 9.90625 6.78125 20.515625 
Q 6.78125 27.484375 10.78125 32.3125 
Q 14.796875 37.15625 21.921875 38.8125 
M 18.3125 54.390625 
Q 18.3125 48.734375 21.84375 45.5625 
Q 25.390625 42.390625 31.78125 42.390625 
Q 38.140625 42.390625 41.71875 45.5625 
Q 45.3125 48.734375 45.3125 54.390625 
Q 45.3125 60.0625 41.71875 63.234375 
Q 38.140625 66.40625 31.78125 66.40625 
Q 25.390625 66.40625 21.84375 63.234375 
Q 18.3125 60.0625 18.3125 54.390625 
" id="DejaVuSans-38"/>
      </defs>
      <g transform="translate(30.55625 75.092321)scale(0.2 -0.2)">
       <use xlink:href="#DejaVuSans-30"/>
       <use x="63.623047" xlink:href="#DejaVuSans-2e"/>
       <use x="95.410156" xlink:href="#DejaVuSans-38"/>
      </g>
     </g>
    </g>
    <g id="ytick_6">
     <g id="line2d_72">
      <path clip-path="url(#p746645e3bb)" d="M 69.3625 14.798437 
L 426.4825 14.798437 
" style="fill:none;stroke:#b0b0b0;stroke-linecap:square;stroke-width:0.8;"/>
     </g>
     <g id="line2d_73">
      <g>
       <use style="stroke:#000000;stroke-width:0.8;" x="69.3625" xlink:href="#mf3a05d857f" y="14.798437"/>
      </g>
     </g>
     <g id="text_9">
      <!-- 1.0 -->
      <g transform="translate(30.55625 22.396875)scale(0.2 -0.2)">
       <use xlink:href="#DejaVuSans-31"/>
       <use x="63.623047" xlink:href="#DejaVuSans-2e"/>
       <use x="95.410156" xlink:href="#DejaVuSans-30"/>
      </g>
     </g>
    </g>
    <g id="text_10">
     <!-- proportion of trials -->
     <defs>
      <path d="M 18.109375 8.203125 
L 18.109375 -20.796875 
L 9.078125 -20.796875 
L 9.078125 54.6875 
L 18.109375 54.6875 
L 18.109375 46.390625 
Q 20.953125 51.265625 25.265625 53.625 
Q 29.59375 56 35.59375 56 
Q 45.5625 56 51.78125 48.09375 
Q 58.015625 40.1875 58.015625 27.296875 
Q 58.015625 14.40625 51.78125 6.484375 
Q 45.5625 -1.421875 35.59375 -1.421875 
Q 29.59375 -1.421875 25.265625 0.953125 
Q 20.953125 3.328125 18.109375 8.203125 
M 48.6875 27.296875 
Q 48.6875 37.203125 44.609375 42.84375 
Q 40.53125 48.484375 33.40625 48.484375 
Q 26.265625 48.484375 22.1875 42.84375 
Q 18.109375 37.203125 18.109375 27.296875 
Q 18.109375 17.390625 22.1875 11.75 
Q 26.265625 6.109375 33.40625 6.109375 
Q 40.53125 6.109375 44.609375 11.75 
Q 48.6875 17.390625 48.6875 27.296875 
" id="DejaVuSans-70"/>
      <path d="M 41.109375 46.296875 
Q 39.59375 47.171875 37.8125 47.578125 
Q 36.03125 48 33.890625 48 
Q 26.265625 48 22.1875 43.046875 
Q 18.109375 38.09375 18.109375 28.8125 
L 18.109375 0 
L 9.078125 0 
L 9.078125 54.6875 
L 18.109375 54.6875 
L 18.109375 46.1875 
Q 20.953125 51.171875 25.484375 53.578125 
Q 30.03125 56 36.53125 56 
Q 37.453125 56 38.578125 55.875 
Q 39.703125 55.765625 41.0625 55.515625 
z
" id="DejaVuSans-72"/>
      <path d="M 18.3125 70.21875 
L 18.3125 54.6875 
L 36.8125 54.6875 
L 36.8125 47.703125 
L 18.3125 47.703125 
L 18.3125 18.015625 
Q 18.3125 11.328125 20.140625 9.421875 
Q 21.96875 7.515625 27.59375 7.515625 
L 36.8125 7.515625 
L 36.8125 0 
L 27.59375 0 
Q 17.1875 0 13.234375 3.875 
Q 9.28125 7.765625 9.28125 18.015625 
L 9.28125 47.703125 
L 2.6875 47.703125 
L 2.6875 54.6875 
L 9.28125 54.6875 
L 9.28125 70.21875 
z
" id="DejaVuSans-74"/>
      <path d="M 9.421875 54.6875 
L 18.40625 54.6875 
L 18.40625 0 
L 9.421875 0 
z
M 9.421875 75.984375 
L 18.40625 75.984375 
L 18.40625 64.59375 
L 9.421875 64.59375 
z
" id="DejaVuSans-69"/>
      <path d="M 54.890625 33.015625 
L 54.890625 0 
L 45.90625 0 
L 45.90625 32.71875 
Q 45.90625 40.484375 42.875 44.328125 
Q 39.84375 48.1875 33.796875 48.1875 
Q 26.515625 48.1875 22.3125 43.546875 
Q 18.109375 38.921875 18.109375 30.90625 
L 18.109375 0 
L 9.078125 0 
L 9.078125 54.6875 
L 18.109375 54.6875 
L 18.109375 46.1875 
Q 21.34375 51.125 25.703125 53.5625 
Q 30.078125 56 35.796875 56 
Q 45.21875 56 50.046875 50.171875 
Q 54.890625 44.34375 54.890625 33.015625 
" id="DejaVuSans-6e"/>
     </defs>
     <g transform="translate(22.396875 238.44779)rotate(-90)scale(0.2 -0.2)">
      <use xlink:href="#DejaVuSans-70"/>
      <use x="63.476562" xlink:href="#DejaVuSans-72"/>
      <use x="104.558594" xlink:href="#DejaVuSans-6f"/>
      <use x="165.740234" xlink:href="#DejaVuSans-70"/>
      <use x="229.216797" xlink:href="#DejaVuSans-6f"/>
      <use x="290.398438" xlink:href="#DejaVuSans-72"/>
      <use x="331.511719" xlink:href="#DejaVuSans-74"/>
      <use x="370.720703" xlink:href="#DejaVuSans-69"/>
      <use x="398.503906" xlink:href="#DejaVuSans-6f"/>
      <use x="459.685547" xlink:href="#DejaVuSans-6e"/>
      <use x="523.064453" xlink:href="#DejaVuSans-20"/>
      <use x="554.851562" xlink:href="#DejaVuSans-6f"/>
      <use x="616.033203" xlink:href="#DejaVuSans-66"/>
      <use x="651.238281" xlink:href="#DejaVuSans-20"/>
      <use x="683.025391" xlink:href="#DejaVuSans-74"/>
      <use x="722.234375" xlink:href="#DejaVuSans-72"/>
      <use x="763.347656" xlink:href="#DejaVuSans-69"/>
      <use x="791.130859" xlink:href="#DejaVuSans-61"/>
      <use x="852.410156" xlink:href="#DejaVuSans-6c"/>
      <use x="880.193359" xlink:href="#DejaVuSans-73"/>
     </g>
    </g>
   </g>
   <g id="line2d_74"/>
   <g id="line2d_75"/>
   <g id="line2d_76"/>
   <g id="line2d_77"/>
   <g id="line2d_78">
    <path clip-path="url(#p746645e3bb)" d="M 426.4825 278.275665 
L 426.4825 12.163665 
" style="fill:none;stroke:#000000;stroke-linecap:square;stroke-width:1.5;"/>
   </g>
   <g id="patch_3">
    <path d="M 69.3625 278.275665 
L 69.3625 12.163665 
" style="fill:none;stroke:#000000;stroke-linecap:square;stroke-linejoin:miter;stroke-width:0.8;"/>
   </g>
   <g id="patch_4">
    <path d="M 426.4825 278.275665 
L 426.4825 12.163665 
" style="fill:none;stroke:#000000;stroke-linecap:square;stroke-linejoin:miter;stroke-width:0.8;"/>
   </g>
   <g id="patch_5">
    <path d="M 69.3625 278.275665 
L 426.4825 278.275665 
" style="fill:none;stroke:#000000;stroke-linecap:square;stroke-linejoin:miter;stroke-width:0.8;"/>
   </g>
   <g id="patch_6">
    <path d="M 69.3625 12.163665 
L 426.4825 12.163665 
" style="fill:none;stroke:#000000;stroke-linecap:square;stroke-linejoin:miter;stroke-width:0.8;"/>
   </g>
   <g id="text_11">
    <!-- {f1-f5}, 20-D -->
    <defs>
     <path d="M 51.125 -9.28125 
L 51.125 -16.3125 
L 48.09375 -16.3125 
Q 35.9375 -16.3125 31.8125 -12.6875 
Q 27.6875 -9.078125 27.6875 1.703125 
L 27.6875 13.375 
Q 27.6875 20.75 25.046875 23.578125 
Q 22.40625 26.421875 15.484375 26.421875 
L 12.5 26.421875 
L 12.5 33.40625 
L 15.484375 33.40625 
Q 22.46875 33.40625 25.078125 36.203125 
Q 27.6875 39.015625 27.6875 46.296875 
L 27.6875 58.015625 
Q 27.6875 68.796875 31.8125 72.390625 
Q 35.9375 75.984375 48.09375 75.984375 
L 51.125 75.984375 
L 51.125 69 
L 47.796875 69 
Q 40.921875 69 38.8125 66.84375 
Q 36.71875 64.703125 36.71875 57.8125 
L 36.71875 45.703125 
Q 36.71875 38.03125 34.5 34.5625 
Q 32.28125 31.109375 26.90625 29.890625 
Q 32.328125 28.5625 34.515625 25.09375 
Q 36.71875 21.625 36.71875 14.015625 
L 36.71875 1.90625 
Q 36.71875 -4.984375 38.8125 -7.125 
Q 40.921875 -9.28125 47.796875 -9.28125 
z
" id="DejaVuSans-7b"/>
     <path d="M 4.890625 31.390625 
L 31.203125 31.390625 
L 31.203125 23.390625 
L 4.890625 23.390625 
z
" id="DejaVuSans-2d"/>
     <path d="M 10.796875 72.90625 
L 49.515625 72.90625 
L 49.515625 64.59375 
L 19.828125 64.59375 
L 19.828125 46.734375 
Q 21.96875 47.46875 24.109375 47.828125 
Q 26.265625 48.1875 28.421875 48.1875 
Q 40.625 48.1875 47.75 41.5 
Q 54.890625 34.8125 54.890625 23.390625 
Q 54.890625 11.625 47.5625 5.09375 
Q 40.234375 -1.421875 26.90625 -1.421875 
Q 22.3125 -1.421875 17.546875 -0.640625 
Q 12.796875 0.140625 7.71875 1.703125 
L 7.71875 11.625 
Q 12.109375 9.234375 16.796875 8.0625 
Q 21.484375 6.890625 26.703125 6.890625 
Q 35.15625 6.890625 40.078125 11.328125 
Q 45.015625 15.765625 45.015625 23.390625 
Q 45.015625 31 40.078125 35.4375 
Q 35.15625 39.890625 26.703125 39.890625 
Q 22.75 39.890625 18.8125 39.015625 
Q 14.890625 38.140625 10.796875 36.28125 
z
" id="DejaVuSans-35"/>
     <path d="M 12.5 -9.28125 
L 15.921875 -9.28125 
Q 22.75 -9.28125 24.828125 -7.171875 
Q 26.90625 -5.078125 26.90625 1.90625 
L 26.90625 14.015625 
Q 26.90625 21.625 29.09375 25.09375 
Q 31.296875 28.5625 36.71875 29.890625 
Q 31.296875 31.109375 29.09375 34.5625 
Q 26.90625 38.03125 26.90625 45.703125 
L 26.90625 57.8125 
Q 26.90625 64.75 24.828125 66.875 
Q 22.75 69 15.921875 69 
L 12.5 69 
L 12.5 75.984375 
L 15.578125 75.984375 
Q 27.734375 75.984375 31.8125 72.390625 
Q 35.890625 68.796875 35.890625 58.015625 
L 35.890625 46.296875 
Q 35.890625 39.015625 38.515625 36.203125 
Q 41.15625 33.40625 48.09375 33.40625 
L 51.125 33.40625 
L 51.125 26.421875 
L 48.09375 26.421875 
Q 41.15625 26.421875 38.515625 23.578125 
Q 35.890625 20.75 35.890625 13.375 
L 35.890625 1.703125 
Q 35.890625 -9.078125 31.8125 -12.6875 
Q 27.734375 -16.3125 15.578125 -16.3125 
L 12.5 -16.3125 
z
" id="DejaVuSans-7d"/>
     <path d="M 11.71875 12.40625 
L 22.015625 12.40625 
L 22.015625 4 
L 14.015625 -11.625 
L 7.71875 -11.625 
L 11.71875 4 
z
" id="DejaVuSans-2c"/>
    </defs>
    <g transform="translate(181.435 32.68278)scale(0.2 -0.2)">
     <use xlink:href="#DejaVuSans-7b"/>
     <use x="63.623047" xlink:href="#DejaVuSans-66"/>
     <use x="98.828125" xlink:href="#DejaVuSans-31"/>
     <use x="162.451172" xlink:href="#DejaVuSans-2d"/>
     <use x="198.535156" xlink:href="#DejaVuSans-66"/>
     <use x="233.740234" xlink:href="#DejaVuSans-35"/>
     <use x="297.363281" xlink:href="#DejaVuSans-7d"/>
     <use x="360.986328" xlink:href="#DejaVuSans-2c"/>
     <use x="392.773438" xlink:href="#DejaVuSans-20"/>
     <use x="424.560547" xlink:href="#DejaVuSans-32"/>
     <use x="488.183594" xlink:href="#DejaVuSans-30"/>
     <use x="551.806641" xlink:href="#DejaVuSans-2d"/>
     <use x="587.890625" xlink:href="#DejaVuSans-44"/>
    </g>
   </g>
   <g id="text_12">
    <!-- absolute targets -->
    <defs>
     <path d="M 48.6875 27.296875 
Q 48.6875 37.203125 44.609375 42.84375 
Q 40.53125 48.484375 33.40625 48.484375 
Q 26.265625 48.484375 22.1875 42.84375 
Q 18.109375 37.203125 18.109375 27.296875 
Q 18.109375 17.390625 22.1875 11.75 
Q 26.265625 6.109375 33.40625 6.109375 
Q 40.53125 6.109375 44.609375 11.75 
Q 48.6875 17.390625 48.6875 27.296875 
M 18.109375 46.390625 
Q 20.953125 51.265625 25.265625 53.625 
Q 29.59375 56 35.59375 56 
Q 45.5625 56 51.78125 48.09375 
Q 58.015625 40.1875 58.015625 27.296875 
Q 58.015625 14.40625 51.78125 6.484375 
Q 45.5625 -1.421875 35.59375 -1.421875 
Q 29.59375 -1.421875 25.265625 0.953125 
Q 20.953125 3.328125 18.109375 8.203125 
L 18.109375 0 
L 9.078125 0 
L 9.078125 75.984375 
L 18.109375 75.984375 
z
" id="DejaVuSans-62"/>
     <path d="M 8.5 21.578125 
L 8.5 54.6875 
L 17.484375 54.6875 
L 17.484375 21.921875 
Q 17.484375 14.15625 20.5 10.265625 
Q 23.53125 6.390625 29.59375 6.390625 
Q 36.859375 6.390625 41.078125 11.03125 
Q 45.3125 15.671875 45.3125 23.6875 
L 45.3125 54.6875 
L 54.296875 54.6875 
L 54.296875 0 
L 45.3125 0 
L 45.3125 8.40625 
Q 42.046875 3.421875 37.71875 1 
Q 33.40625 -1.421875 27.6875 -1.421875 
Q 18.265625 -1.421875 13.375 4.4375 
Q 8.5 10.296875 8.5 21.578125 
M 31.109375 56 
z
" id="DejaVuSans-75"/>
     <path d="M 56.203125 29.59375 
L 56.203125 25.203125 
L 14.890625 25.203125 
Q 15.484375 15.921875 20.484375 11.0625 
Q 25.484375 6.203125 34.421875 6.203125 
Q 39.59375 6.203125 44.453125 7.46875 
Q 49.3125 8.734375 54.109375 11.28125 
L 54.109375 2.78125 
Q 49.265625 0.734375 44.1875 -0.34375 
Q 39.109375 -1.421875 33.890625 -1.421875 
Q 20.796875 -1.421875 13.15625 6.1875 
Q 5.515625 13.8125 5.515625 26.8125 
Q 5.515625 40.234375 12.765625 48.109375 
Q 20.015625 56 32.328125 56 
Q 43.359375 56 49.78125 48.890625 
Q 56.203125 41.796875 56.203125 29.59375 
M 47.21875 32.234375 
Q 47.125 39.59375 43.09375 43.984375 
Q 39.0625 48.390625 32.421875 48.390625 
Q 24.90625 48.390625 20.390625 44.140625 
Q 15.875 39.890625 15.1875 32.171875 
z
" id="DejaVuSans-65"/>
    </defs>
    <g transform="translate(69.3625 290.746921)scale(0.14 -0.14)">
     <use xlink:href="#DejaVuSans-61"/>
     <use x="61.279297" xlink:href="#DejaVuSans-62"/>
     <use x="124.755859" xlink:href="#DejaVuSans-73"/>
     <use x="176.855469" xlink:href="#DejaVuSans-6f"/>
     <use x="238.037109" xlink:href="#DejaVuSans-6c"/>
     <use x="265.820312" xlink:href="#DejaVuSans-75"/>
     <use x="329.199219" xlink:href="#DejaVuSans-74"/>
     <use x="368.408203" xlink:href="#DejaVuSans-65"/>
     <use x="429.931641" xlink:href="#DejaVuSans-20"/>
     <use x="461.71875" xlink:href="#DejaVuSans-74"/>
     <use x="500.927734" xlink:href="#DejaVuSans-61"/>
     <use x="562.207031" xlink:href="#DejaVuSans-72"/>
     <use x="603.304688" xlink:href="#DejaVuSans-67"/>
     <use x="666.78125" xlink:href="#DejaVuSans-65"/>
     <use x="728.304688" xlink:href="#DejaVuSans-74"/>
     <use x="767.513672" xlink:href="#DejaVuSans-73"/>
    </g>
   </g>
   <g id="text_13">
    <!-- v2.1 -->
    <g style="fill:#808080;" transform="translate(237.011563 273.534858)scale(0.1 -0.1)">
     <use xlink:href="#DejaVuSans-76"/>
     <use x="59.179688" xlink:href="#DejaVuSans-32"/>
     <use x="122.802734" xlink:href="#DejaVuSans-2e"/>
     <use x="154.589844" xlink:href="#DejaVuSans-31"/>
    </g>
   </g>
   <g id="legend_1">
    <g id="patch_7">
     <path d="M 83.3625 145.588665 
L 212.584375 145.588665 
Q 216.584375 145.588665 216.584375 141.588665 
L 216.584375 26.163665 
Q 216.584375 22.163665 212.584375 22.163665 
L 83.3625 22.163665 
Q 79.3625 22.163665 79.3625 26.163665 
L 79.3625 141.588665 
Q 79.3625 145.588665 83.3625 145.588665 
z
" style="fill:#ffffff;opacity:0.2;stroke:#cccccc;stroke-linejoin:miter;"/>
    </g>
    <g id="line2d_79">
     <path d="M 87.3625 38.36054 
L 127.3625 38.36054 
" style="fill:none;stroke:#000000;stroke-linecap:square;stroke-width:1.5;"/>
    </g>
    <g id="line2d_80"/>
    <g id="text_14">
     <!-- 1: 0/5 -->
     <defs>
      <path d="M 11.71875 12.40625 
L 22.015625 12.40625 
L 22.015625 0 
L 11.71875 0 
z
M 11.71875 51.703125 
L 22.015625 51.703125 
L 22.015625 39.3125 
L 11.71875 39.3125 
z
" id="DejaVuSans-3a"/>
     </defs>
     <g transform="translate(143.3625 45.36054)scale(0.2 -0.2)">
      <use xlink:href="#DejaVuSans-31"/>
      <use x="63.623047" xlink:href="#DejaVuSans-3a"/>
      <use x="97.314453" xlink:href="#DejaVuSans-20"/>
      <use x="129.101562" xlink:href="#DejaVuSans-30"/>
      <use x="192.724609" xlink:href="#DejaVuSans-2f"/>
      <use x="226.416016" xlink:href="#DejaVuSans-35"/>
     </g>
    </g>
    <g id="line2d_81">
     <path d="M 87.3625 67.71679 
L 127.3625 67.71679 
" style="fill:none;stroke:#00bfbf;stroke-linecap:square;stroke-width:1.5;"/>
    </g>
    <g id="line2d_82"/>
    <g id="text_15">
     <!-- -1: 0/5 -->
     <g transform="translate(143.3625 74.71679)scale(0.2 -0.2)">
      <use xlink:href="#DejaVuSans-2d"/>
      <use x="36.083984" xlink:href="#DejaVuSans-31"/>
      <use x="99.707031" xlink:href="#DejaVuSans-3a"/>
      <use x="133.398438" xlink:href="#DejaVuSans-20"/>
      <use x="165.185547" xlink:href="#DejaVuSans-30"/>
      <use x="228.808594" xlink:href="#DejaVuSans-2f"/>
      <use x="262.5" xlink:href="#DejaVuSans-35"/>
     </g>
    </g>
    <g id="line2d_83">
     <path d="M 87.3625 97.07304 
L 127.3625 97.07304 
" style="fill:none;stroke:#bf00bf;stroke-linecap:square;stroke-width:1.5;"/>
    </g>
    <g id="line2d_84"/>
    <g id="text_16">
     <!-- -4: 0/5 -->
     <g transform="translate(143.3625 104.07304)scale(0.2 -0.2)">
      <use xlink:href="#DejaVuSans-2d"/>
      <use x="36.083984" xlink:href="#DejaVuSans-34"/>
      <use x="99.707031" xlink:href="#DejaVuSans-3a"/>
      <use x="133.398438" xlink:href="#DejaVuSans-20"/>
      <use x="165.185547" xlink:href="#DejaVuSans-30"/>
      <use x="228.808594" xlink:href="#DejaVuSans-2f"/>
      <use x="262.5" xlink:href="#DejaVuSans-35"/>
     </g>
    </g>
    <g id="line2d_85">
     <path d="M 87.3625 126.42929 
L 127.3625 126.42929 
" style="fill:none;stroke:#ff0000;stroke-linecap:square;stroke-width:3;"/>
    </g>
    <g id="line2d_86"/>
    <g id="text_17">
     <!-- -8: 0/5 -->
     <g transform="translate(143.3625 133.42929)scale(0.2 -0.2)">
      <use xlink:href="#DejaVuSans-2d"/>
      <use x="36.083984" xlink:href="#DejaVuSans-38"/>
      <use x="99.707031" xlink:href="#DejaVuSans-3a"/>
      <use x="133.398438" xlink:href="#DejaVuSans-20"/>
      <use x="165.185547" xlink:href="#DejaVuSans-30"/>
      <use x="228.808594" xlink:href="#DejaVuSans-2f"/>
      <use x="262.5" xlink:href="#DejaVuSans-35"/>
     </g>
    </g>
   </g>
  </g>
 </g>
 <defs>
  <clipPath id="p746645e3bb">
   <rect height="266.112" width="357.12" x="69.3625" y="12.163665"/>
  </clipPath>
 </defs>
</svg>
