<?xml version="1.0" encoding="utf-8" standalone="no"?>
<!DOCTYPE svg PUBLIC "-//W3C//DTD SVG 1.1//EN"
  "http://www.w3.org/Graphics/SVG/1.1/DTD/svg11.dtd">
<!-- Created with matplotlib (http://matplotlib.org/) -->
<svg height="335pt" version="1.1" viewBox="0 0 437 335" width="437pt" xmlns="http://www.w3.org/2000/svg" xmlns:xlink="http://www.w3.org/1999/xlink">
 <defs>
  <style type="text/css">
*{stroke-linecap:butt;stroke-linejoin:round;}
  </style>
 </defs>
 <g id="figure_1">
  <g id="patch_1">
   <path d="M 0 335.188165 
L 437.1825 335.188165 
L 437.1825 0 
L 0 0 
z
" style="fill:#ffffff;"/>
  </g>
  <g id="axes_1">
   <g id="patch_2">
    <path d="M 69.3625 278.275665 
L 426.4825 278.275665 
L 426.4825 12.163665 
L 69.3625 12.163665 
z
" style="fill:#ffffff;"/>
   </g>
   <g id="line2d_1"/>
   <g id="line2d_2">
    <path clip-path="url(#pbf7bfa5f91)" d="M 420.551445 278.275665 
L 420.551445 267.736576 
L 425.088626 267.736576 
L 425.088626 257.197487 
L 425.088626 257.197487 
L 425.088626 257.197487 
L 426.4825 257.197487 
" style="fill:none;stroke:#f5deb3;stroke-linecap:square;stroke-width:1.5;"/>
   </g>
   <g id="line2d_3"/>
   <g id="line2d_4"/>
   <g id="line2d_5"/>
   <g id="line2d_6"/>
   <g id="line2d_7">
    <path clip-path="url(#pbf7bfa5f91)" d="M 381.210397 278.275665 
L 381.210397 274.762636 
L 408.245382 274.762636 
L 408.245382 271.249606 
L 414.876664 271.249606 
L 414.876664 267.736576 
L 415.44822 267.736576 
L 415.44822 264.223546 
L 416.208675 264.223546 
L 416.208675 260.710517 
L 421.211075 260.710517 
L 421.211075 257.197487 
L 421.449051 257.197487 
L 421.449051 253.684457 
L 423.972088 253.684457 
L 423.972088 250.171428 
L 430.266605 250.171428 
L 430.266605 246.658398 
L 436.008431 246.658398 
L 436.008431 243.145368 
L 436.425322 243.145368 
L 436.425322 239.632338 
L 437.876166 239.632338 
L 437.876166 236.119309 
L 438.1825 236.119309 
L 438.1825 236.119309 
" style="fill:none;stroke:#f5deb3;stroke-linecap:square;stroke-width:1.5;"/>
   </g>
   <g id="line2d_8">
    <path clip-path="url(#pbf7bfa5f91)" d="M 401.058475 278.275665 
L 401.058475 274.762636 
L 402.612221 274.762636 
L 402.612221 271.249606 
L 403.089603 271.249606 
L 403.089603 267.736576 
L 403.288512 267.736576 
L 403.288512 264.223546 
L 403.858401 264.223546 
L 403.858401 260.710517 
L 403.875254 260.710517 
L 403.875254 257.197487 
L 420.066336 257.197487 
L 420.066336 253.684457 
L 421.035384 253.684457 
L 421.035384 250.171428 
L 421.72194 250.171428 
L 421.72194 246.658398 
L 421.804177 246.658398 
L 421.804177 243.145368 
L 422.291605 243.145368 
L 422.291605 239.632338 
L 422.754224 239.632338 
L 422.754224 236.119309 
L 422.760892 236.119309 
L 422.760892 232.606279 
L 423.166946 232.606279 
L 423.166946 229.093249 
L 423.185482 229.093249 
L 423.185482 225.58022 
L 423.5163 225.58022 
L 423.5163 222.06719 
L 425.208769 222.06719 
L 425.208769 218.55416 
L 438.1825 218.55416 
" style="fill:none;stroke:#f5deb3;stroke-linecap:square;stroke-width:1.5;"/>
   </g>
   <g id="line2d_9">
    <path clip-path="url(#pbf7bfa5f91)" d="M 270.455462 278.275665 
L 270.455462 274.762636 
L 313.419128 274.762636 
L 313.419128 271.249606 
L 314.071066 271.249606 
L 314.071066 267.736576 
L 314.875971 267.736576 
L 314.875971 264.223546 
L 318.295458 264.223546 
L 318.295458 260.710517 
L 322.909094 260.710517 
L 322.909094 257.197487 
L 323.444122 257.197487 
L 323.444122 253.684457 
L 323.625018 253.684457 
L 323.625018 250.171428 
L 324.604103 250.171428 
L 324.616646 243.145368 
L 324.903937 243.145368 
L 324.903937 239.632338 
L 325.262954 239.632338 
L 325.262954 236.119309 
L 333.413026 236.119309 
L 333.413026 232.606279 
L 339.027458 232.606279 
L 339.027458 229.093249 
L 339.897046 229.093249 
L 339.897046 225.58022 
L 340.910509 225.58022 
L 340.910509 222.06719 
L 341.728701 222.06719 
L 341.728701 218.55416 
L 342.984666 218.55416 
L 343.045016 211.528101 
L 348.190113 211.528101 
L 348.190113 208.015071 
L 349.351525 208.015071 
L 349.351525 204.502041 
L 350.301458 204.502041 
L 350.301458 200.989012 
L 350.574911 200.989012 
L 350.574911 197.475982 
L 350.876681 197.475982 
L 350.876681 193.962952 
L 351.01907 193.962952 
L 351.109665 186.936893 
L 351.233112 186.936893 
L 351.233112 183.423863 
L 351.499642 183.423863 
L 351.499642 179.910834 
L 352.616061 179.910834 
L 352.725833 172.884774 
L 352.921439 172.884774 
L 352.921439 169.371744 
L 353.408709 169.371744 
L 353.408709 165.858715 
L 354.126145 165.858715 
L 354.126145 162.345685 
L 355.184409 162.345685 
L 355.230194 155.319626 
L 355.72739 155.319626 
L 355.72739 151.806596 
L 356.794668 151.806596 
L 356.889917 144.780537 
L 361.128341 144.780537 
L 361.128341 141.267507 
L 367.293295 141.267507 
L 367.293295 137.754477 
L 367.587195 137.754477 
L 367.62926 130.728418 
L 368.859758 130.728418 
L 368.859758 127.215388 
L 373.20246 127.215388 
L 373.20246 123.702358 
L 375.174268 123.702358 
L 375.174268 120.189329 
L 376.330019 120.189329 
L 376.330019 116.676299 
L 378.773123 116.676299 
L 378.773123 113.163269 
L 379.278038 113.163269 
L 379.278038 109.650239 
L 380.357408 109.650239 
L 380.357408 106.13721 
L 381.178868 106.13721 
L 381.178868 102.62418 
L 381.376779 102.62418 
L 381.376779 99.11115 
L 386.523252 99.11115 
L 386.523252 95.598121 
L 388.337675 95.598121 
L 388.367859 88.572061 
L 388.901592 88.572061 
L 388.901592 85.059032 
L 389.291275 85.059032 
L 389.291275 81.546002 
L 389.450583 81.546002 
L 389.450583 78.032972 
L 391.781291 78.032972 
L 391.781291 74.519942 
L 394.248647 74.519942 
L 394.248647 71.006913 
L 394.459617 71.006913 
L 394.459617 67.493883 
L 397.570273 67.493883 
L 397.570273 63.980853 
L 400.105018 63.980853 
L 400.105018 60.467824 
L 403.060175 60.467824 
L 403.060175 56.954794 
L 403.704249 56.954794 
L 403.704249 53.441764 
L 419.328093 53.441764 
L 419.328093 49.928735 
L 426.023179 49.928735 
L 426.023179 46.415705 
L 426.166443 46.415705 
L 426.166443 42.902675 
L 429.541462 42.902675 
L 429.541462 39.389645 
L 438.1825 39.389645 
L 438.1825 39.389645 
" style="fill:none;stroke:#f5deb3;stroke-linecap:square;stroke-width:1.5;"/>
   </g>
   <g id="line2d_10"/>
   <g id="line2d_11">
    <path clip-path="url(#pbf7bfa5f91)" style="fill:none;stroke:#f5deb3;stroke-linecap:square;stroke-width:1.5;"/>
   </g>
   <g id="line2d_12"/>
   <g id="line2d_13"/>
   <g id="line2d_14"/>
   <g id="line2d_15"/>
   <g id="line2d_16"/>
   <g id="line2d_17">
    <path clip-path="url(#pbf7bfa5f91)" d="M 394.026305 278.275665 
L 394.026305 274.762636 
L 396.475912 274.762636 
L 396.475912 271.249606 
L 397.548539 271.249606 
L 397.548539 267.736576 
L 399.003083 267.736576 
L 399.003083 264.223546 
L 401.825114 264.223546 
L 401.825114 260.710517 
L 401.955643 260.710517 
L 401.955643 257.197487 
L 403.304207 257.197487 
L 403.304207 253.684457 
L 403.676729 253.684457 
L 403.676729 250.171428 
L 403.823264 250.171428 
L 403.823264 246.658398 
L 407.259543 246.658398 
L 407.259543 243.145368 
L 407.761809 243.145368 
L 407.761809 239.632338 
L 415.574468 239.632338 
L 415.574468 236.119309 
L 422.216814 236.119309 
L 422.216814 232.606279 
L 422.303 232.606279 
L 422.303 229.093249 
L 422.353602 229.093249 
L 422.353602 225.58022 
L 425.226678 225.58022 
L 425.226678 222.06719 
L 425.971739 222.06719 
L 425.971739 218.55416 
L 428.533917 218.55416 
L 428.533917 215.041131 
L 429.794173 215.041131 
L 429.794173 211.528101 
L 430.784399 211.528101 
L 430.784399 208.015071 
L 432.110188 208.015071 
L 432.110188 204.502041 
L 433.714168 204.502041 
L 433.714168 200.989012 
L 438.1825 200.989012 
" style="fill:none;stroke:#f5deb3;stroke-linecap:square;stroke-width:1.5;"/>
   </g>
   <g id="line2d_18"/>
   <g id="line2d_19">
    <path clip-path="url(#pbf7bfa5f91)" d="M 411.552869 278.275665 
L 411.552869 277.104655 
L 411.552869 277.104655 
L 411.552869 277.104655 
L 411.552869 275.933645 
L 411.552869 275.933645 
L 411.552869 275.933645 
L 411.552869 274.762636 
L 438.1825 274.762636 
L 438.1825 274.762636 
" style="fill:none;stroke:#f5deb3;stroke-linecap:square;stroke-width:1.5;"/>
   </g>
   <g id="line2d_20">
    <path clip-path="url(#pbf7bfa5f91)" d="M 395.570663 278.275665 
L 395.570663 274.762636 
L 395.570663 274.762636 
L 395.570663 274.762636 
L 426.4825 274.762636 
" style="fill:none;stroke:#f5deb3;stroke-linecap:square;stroke-width:1.5;"/>
   </g>
   <g id="line2d_21"/>
   <g id="line2d_22">
    <path clip-path="url(#pbf7bfa5f91)" d="M 411.701917 278.275665 
L 411.701917 274.762636 
L 433.41894 274.762636 
L 433.41894 271.249606 
L 438.1825 271.249606 
" style="fill:none;stroke:#f5deb3;stroke-linecap:square;stroke-width:1.5;"/>
   </g>
   <g id="line2d_23">
    <path clip-path="url(#pbf7bfa5f91)" d="M 430.902051 278.275665 
L 430.902051 274.762636 
L 438.1825 274.762636 
" style="fill:none;stroke:#f5deb3;stroke-linecap:square;stroke-width:1.5;"/>
   </g>
   <g id="line2d_24">
    <path clip-path="url(#pbf7bfa5f91)" d="M 302.073733 278.275665 
L 302.073733 274.762636 
L 305.26041 274.762636 
L 305.26041 271.249606 
L 307.208548 271.249606 
L 307.208548 267.736576 
L 311.954601 267.736576 
L 311.954601 264.223546 
L 315.023386 264.223546 
L 315.023386 260.710517 
L 371.847152 260.710517 
L 371.847152 257.197487 
L 373.676075 257.197487 
L 373.676075 253.684457 
L 374.100451 253.684457 
L 374.100451 250.171428 
L 374.250362 250.171428 
L 374.250362 246.658398 
L 375.682639 246.658398 
L 375.682639 243.145368 
L 375.999437 243.145368 
L 376.091821 236.119309 
L 377.582341 236.119309 
L 377.582341 232.606279 
L 377.929045 232.606279 
L 378.012336 225.58022 
L 378.199756 225.58022 
L 378.199756 222.06719 
L 378.546278 222.06719 
L 378.546278 218.55416 
L 381.03533 218.55416 
L 381.03533 215.041131 
L 383.296075 215.041131 
L 383.296075 211.528101 
L 383.85574 211.528101 
L 383.85574 208.015071 
L 384.066285 208.015071 
L 384.066285 204.502041 
L 384.895245 204.502041 
L 384.895245 200.989012 
L 385.072712 200.989012 
L 385.072712 197.475982 
L 385.313852 197.475982 
L 385.404013 190.449923 
L 385.829527 190.449923 
L 385.829527 186.936893 
L 385.951835 186.936893 
L 385.951835 183.423863 
L 386.424472 183.423863 
L 386.424472 179.910834 
L 386.815737 179.910834 
L 386.815737 176.397804 
L 386.930279 176.397804 
L 386.930279 172.884774 
L 387.196142 172.884774 
L 387.196142 169.371744 
L 387.46559 169.371744 
L 387.504235 162.345685 
L 389.028779 162.345685 
L 389.047818 155.319626 
L 389.578986 155.319626 
L 389.578986 151.806596 
L 390.321609 151.806596 
L 390.321609 148.293566 
L 391.445365 148.293566 
L 391.445365 144.780537 
L 391.739102 144.780537 
L 391.739102 141.267507 
L 394.782358 141.267507 
L 394.782358 137.754477 
L 396.702583 137.754477 
L 396.702583 134.241447 
L 401.456211 134.241447 
L 401.456211 130.728418 
L 407.843065 130.728418 
L 407.843065 127.215388 
L 408.01004 127.215388 
L 408.01004 123.702358 
L 408.802935 123.702358 
L 408.802935 120.189329 
L 410.779141 120.189329 
L 410.779141 116.676299 
L 411.770285 116.676299 
L 411.770285 113.163269 
L 413.527652 113.163269 
L 413.527652 109.650239 
L 414.548277 109.650239 
L 414.548277 106.13721 
L 419.242782 106.13721 
L 419.242782 102.62418 
L 423.700685 102.62418 
L 423.700685 99.11115 
L 424.498142 99.11115 
L 424.498142 95.598121 
L 428.402948 95.598121 
L 428.402948 92.085091 
L 434.273553 92.085091 
L 434.273553 88.572061 
L 435.219082 88.572061 
L 435.219082 85.059032 
L 437.198581 85.059032 
L 437.240501 78.032972 
L 437.493501 78.032972 
L 437.493501 74.519942 
L 438.1825 74.519942 
L 438.1825 74.519942 
" style="fill:none;stroke:#f5deb3;stroke-linecap:square;stroke-width:1.5;"/>
   </g>
   <g id="line2d_25">
    <path clip-path="url(#pbf7bfa5f91)" d="M 412.232462 278.275665 
L 412.232462 274.762636 
L 415.26212 274.762636 
L 415.26212 271.249606 
L 415.44618 271.249606 
L 415.44618 267.736576 
L 416.73514 267.736576 
L 416.73514 264.223546 
L 418.392532 264.223546 
L 418.392532 260.710517 
L 419.038319 260.710517 
L 419.038319 257.197487 
L 419.313888 257.197487 
L 419.313888 253.684457 
L 420.090119 253.684457 
L 420.090119 250.171428 
L 420.126883 250.171428 
L 420.126883 246.658398 
L 422.173221 246.658398 
L 422.173221 243.145368 
L 423.285415 243.145368 
L 423.285415 239.632338 
L 438.1825 239.632338 
" style="fill:none;stroke:#f5deb3;stroke-linecap:square;stroke-width:1.5;"/>
   </g>
   <g id="line2d_26">
    <path clip-path="url(#pbf7bfa5f91)" d="M 358.651151 278.275665 
L 358.651151 274.762636 
L 361.472019 274.762636 
L 361.472019 271.249606 
L 369.143092 271.249606 
L 369.143092 267.736576 
L 370.332872 267.736576 
L 370.332872 264.223546 
L 371.603126 264.223546 
L 371.603126 260.710517 
L 373.207374 260.710517 
L 373.207374 257.197487 
L 375.897694 257.197487 
L 375.897694 253.684457 
L 383.135814 253.684457 
L 383.135814 250.171428 
L 386.757204 250.171428 
L 386.757204 246.658398 
L 396.174934 246.658398 
L 396.174934 243.145368 
L 398.193286 243.145368 
L 398.193286 239.632338 
L 408.409897 239.632338 
L 408.409897 236.119309 
L 414.445141 236.119309 
L 414.445141 232.606279 
L 415.36398 232.606279 
L 415.36398 229.093249 
L 421.221946 229.093249 
L 421.221946 225.58022 
L 426.5381 225.58022 
L 426.5381 222.06719 
L 428.829694 222.06719 
L 428.829694 218.55416 
L 431.631369 218.55416 
L 431.631369 215.041131 
L 433.945263 215.041131 
L 433.945263 211.528101 
L 434.783797 211.528101 
L 434.783797 208.015071 
L 434.783797 208.015071 
" style="fill:none;stroke:#f5deb3;stroke-linecap:square;stroke-width:1.5;"/>
   </g>
   <g id="line2d_27"/>
   <g id="line2d_28">
    <path clip-path="url(#pbf7bfa5f91)" d="M 292.72351 278.275665 
L 292.72351 274.762636 
L 305.823285 274.762636 
L 305.823285 271.249606 
L 347.719547 271.249606 
L 347.719547 267.736576 
L 360.241708 267.736576 
L 360.241708 264.223546 
L 363.832985 264.223546 
L 363.832985 260.710517 
L 365.955404 260.710517 
L 365.955404 257.197487 
L 383.074753 257.197487 
L 383.074753 253.684457 
L 383.836205 253.684457 
L 383.836205 250.171428 
L 385.682442 250.171428 
L 385.682442 246.658398 
L 386.461972 246.658398 
L 386.461972 243.145368 
L 387.497613 243.145368 
L 387.497613 239.632338 
L 389.603987 239.632338 
L 389.603987 236.119309 
L 390.613431 236.119309 
L 390.613431 232.606279 
L 391.658512 232.606279 
L 391.658512 229.093249 
L 392.276021 229.093249 
L 392.276021 225.58022 
L 398.003047 225.58022 
L 398.003047 222.06719 
L 398.221203 222.06719 
L 398.221203 218.55416 
L 398.779097 218.55416 
L 398.859827 211.528101 
L 399.178561 211.528101 
L 399.178561 208.015071 
L 406.829882 208.015071 
L 406.829882 204.502041 
L 408.72872 204.502041 
L 408.72872 200.989012 
L 409.581831 200.989012 
L 409.581831 197.475982 
L 410.247308 197.475982 
L 410.247308 193.962952 
L 410.77624 193.962952 
L 410.869533 186.936893 
L 412.975505 186.936893 
L 412.975505 183.423863 
L 413.133501 183.423863 
L 413.133501 179.910834 
L 413.660766 179.910834 
L 413.660766 176.397804 
L 416.880032 176.397804 
L 416.880032 172.884774 
L 418.26868 172.884774 
L 418.26868 169.371744 
L 418.439514 169.371744 
L 418.439514 165.858715 
L 418.658579 165.858715 
L 418.658579 162.345685 
L 419.417774 162.345685 
L 419.417774 158.832655 
L 420.475631 158.832655 
L 420.475631 155.319626 
L 421.777642 155.319626 
L 421.780211 148.293566 
L 422.068891 148.293566 
L 422.068891 144.780537 
L 423.179305 144.780537 
L 423.179305 141.267507 
L 423.599451 141.267507 
L 423.599451 137.754477 
L 424.271057 137.754477 
L 424.271057 134.241447 
L 424.727364 134.241447 
L 424.727364 130.728418 
L 425.354122 130.728418 
L 425.354122 127.215388 
L 425.719198 127.215388 
L 425.719198 123.702358 
L 427.41481 123.702358 
L 427.41481 120.189329 
L 429.006848 120.189329 
L 429.006848 116.676299 
L 429.183838 116.676299 
L 429.183838 113.163269 
L 429.765685 113.163269 
L 429.765685 109.650239 
L 431.198647 109.650239 
L 431.198647 106.13721 
L 432.108257 106.13721 
L 432.108257 102.62418 
L 438.1825 102.62418 
L 438.1825 102.62418 
" style="fill:none;stroke:#f5deb3;stroke-linecap:square;stroke-width:1.5;"/>
   </g>
   <g id="line2d_29"/>
   <g id="line2d_30"/>
   <g id="matplotlib.axis_1">
    <g id="xtick_1">
     <g id="line2d_31">
      <path clip-path="url(#pbf7bfa5f91)" d="M 69.3625 278.275665 
L 69.3625 12.163665 
" style="fill:none;stroke:#b0b0b0;stroke-linecap:square;stroke-width:0.8;"/>
     </g>
     <g id="line2d_32">
      <defs>
       <path d="M 0 0 
L 0 3.5 
" id="m91bf7e6075" style="stroke:#000000;stroke-width:0.8;"/>
      </defs>
      <g>
       <use style="stroke:#000000;stroke-width:0.8;" x="69.3625" xlink:href="#m91bf7e6075" y="278.275665"/>
      </g>
     </g>
     <g id="text_1">
      <!-- 0 -->
      <defs>
       <path d="M 31.78125 66.40625 
Q 24.171875 66.40625 20.328125 58.90625 
Q 16.5 51.421875 16.5 36.375 
Q 16.5 21.390625 20.328125 13.890625 
Q 24.171875 6.390625 31.78125 6.390625 
Q 39.453125 6.390625 43.28125 13.890625 
Q 47.125 21.390625 47.125 36.375 
Q 47.125 51.421875 43.28125 58.90625 
Q 39.453125 66.40625 31.78125 66.40625 
M 31.78125 74.21875 
Q 44.046875 74.21875 50.515625 64.515625 
Q 56.984375 54.828125 56.984375 36.375 
Q 56.984375 17.96875 50.515625 8.265625 
Q 44.046875 -1.421875 31.78125 -1.421875 
Q 19.53125 -1.421875 13.0625 8.265625 
Q 6.59375 17.96875 6.59375 36.375 
Q 6.59375 54.828125 13.0625 64.515625 
Q 19.53125 74.21875 31.78125 74.21875 
" id="DejaVuSans-30"/>
      </defs>
      <g transform="translate(63 300.47254)scale(0.2 -0.2)">
       <use xlink:href="#DejaVuSans-30"/>
      </g>
     </g>
    </g>
    <g id="xtick_2">
     <g id="line2d_33">
      <path clip-path="url(#pbf7bfa5f91)" d="M 236.062811 278.275665 
L 236.062811 12.163665 
" style="fill:none;stroke:#b0b0b0;stroke-linecap:square;stroke-width:0.8;"/>
     </g>
     <g id="line2d_34">
      <g>
       <use style="stroke:#000000;stroke-width:0.8;" x="236.062811" xlink:href="#m91bf7e6075" y="278.275665"/>
      </g>
     </g>
     <g id="text_2">
      <!-- 2 -->
      <defs>
       <path d="M 19.1875 8.296875 
L 53.609375 8.296875 
L 53.609375 0 
L 7.328125 0 
L 7.328125 8.296875 
Q 12.9375 14.109375 22.625 23.890625 
Q 32.328125 33.6875 34.8125 36.53125 
Q 39.546875 41.84375 41.421875 45.53125 
Q 43.3125 49.21875 43.3125 52.78125 
Q 43.3125 58.59375 39.234375 62.25 
Q 35.15625 65.921875 28.609375 65.921875 
Q 23.96875 65.921875 18.8125 64.3125 
Q 13.671875 62.703125 7.8125 59.421875 
L 7.8125 69.390625 
Q 13.765625 71.78125 18.9375 73 
Q 24.125 74.21875 28.421875 74.21875 
Q 39.75 74.21875 46.484375 68.546875 
Q 53.21875 62.890625 53.21875 53.421875 
Q 53.21875 48.921875 51.53125 44.890625 
Q 49.859375 40.875 45.40625 35.40625 
Q 44.1875 33.984375 37.640625 27.21875 
Q 31.109375 20.453125 19.1875 8.296875 
" id="DejaVuSans-32"/>
      </defs>
      <g transform="translate(229.700311 300.47254)scale(0.2 -0.2)">
       <use xlink:href="#DejaVuSans-32"/>
      </g>
     </g>
    </g>
    <g id="xtick_3">
     <g id="line2d_35">
      <path clip-path="url(#pbf7bfa5f91)" d="M 402.763121 278.275665 
L 402.763121 12.163665 
" style="fill:none;stroke:#b0b0b0;stroke-linecap:square;stroke-width:0.8;"/>
     </g>
     <g id="line2d_36">
      <g>
       <use style="stroke:#000000;stroke-width:0.8;" x="402.763121" xlink:href="#m91bf7e6075" y="278.275665"/>
      </g>
     </g>
     <g id="text_3">
      <!-- 4 -->
      <defs>
       <path d="M 37.796875 64.3125 
L 12.890625 25.390625 
L 37.796875 25.390625 
z
M 35.203125 72.90625 
L 47.609375 72.90625 
L 47.609375 25.390625 
L 58.015625 25.390625 
L 58.015625 17.1875 
L 47.609375 17.1875 
L 47.609375 0 
L 37.796875 0 
L 37.796875 17.1875 
L 4.890625 17.1875 
L 4.890625 26.703125 
z
" id="DejaVuSans-34"/>
      </defs>
      <g transform="translate(396.400621 300.47254)scale(0.2 -0.2)">
       <use xlink:href="#DejaVuSans-34"/>
      </g>
     </g>
    </g>
    <g id="xtick_4">
     <g id="line2d_37">
      <defs>
       <path d="M 0 0 
L 0 2 
" id="m7adfe6f4f9" style="stroke:#000000;stroke-width:0.6;"/>
      </defs>
      <g>
       <use style="stroke:#000000;stroke-width:0.6;" x="94.453397" xlink:href="#m7adfe6f4f9" y="278.275665"/>
      </g>
     </g>
    </g>
    <g id="xtick_5">
     <g id="line2d_38">
      <g>
       <use style="stroke:#000000;stroke-width:0.6;" x="109.130631" xlink:href="#m7adfe6f4f9" y="278.275665"/>
      </g>
     </g>
    </g>
    <g id="xtick_6">
     <g id="line2d_39">
      <g>
       <use style="stroke:#000000;stroke-width:0.6;" x="119.544294" xlink:href="#m7adfe6f4f9" y="278.275665"/>
      </g>
     </g>
    </g>
    <g id="xtick_7">
     <g id="line2d_40">
      <g>
       <use style="stroke:#000000;stroke-width:0.6;" x="127.621758" xlink:href="#m7adfe6f4f9" y="278.275665"/>
      </g>
     </g>
    </g>
    <g id="xtick_8">
     <g id="line2d_41">
      <g>
       <use style="stroke:#000000;stroke-width:0.6;" x="134.221528" xlink:href="#m7adfe6f4f9" y="278.275665"/>
      </g>
     </g>
    </g>
    <g id="xtick_9">
     <g id="line2d_42">
      <g>
       <use style="stroke:#000000;stroke-width:0.6;" x="139.801553" xlink:href="#m7adfe6f4f9" y="278.275665"/>
      </g>
     </g>
    </g>
    <g id="xtick_10">
     <g id="line2d_43">
      <g>
       <use style="stroke:#000000;stroke-width:0.6;" x="144.635191" xlink:href="#m7adfe6f4f9" y="278.275665"/>
      </g>
     </g>
    </g>
    <g id="xtick_11">
     <g id="line2d_44">
      <g>
       <use style="stroke:#000000;stroke-width:0.6;" x="148.898761" xlink:href="#m7adfe6f4f9" y="278.275665"/>
      </g>
     </g>
    </g>
    <g id="xtick_12">
     <g id="line2d_45">
      <g>
       <use style="stroke:#000000;stroke-width:0.6;" x="177.803552" xlink:href="#m7adfe6f4f9" y="278.275665"/>
      </g>
     </g>
    </g>
    <g id="xtick_13">
     <g id="line2d_46">
      <g>
       <use style="stroke:#000000;stroke-width:0.6;" x="192.480786" xlink:href="#m7adfe6f4f9" y="278.275665"/>
      </g>
     </g>
    </g>
    <g id="xtick_14">
     <g id="line2d_47">
      <g>
       <use style="stroke:#000000;stroke-width:0.6;" x="202.894449" xlink:href="#m7adfe6f4f9" y="278.275665"/>
      </g>
     </g>
    </g>
    <g id="xtick_15">
     <g id="line2d_48">
      <g>
       <use style="stroke:#000000;stroke-width:0.6;" x="210.971914" xlink:href="#m7adfe6f4f9" y="278.275665"/>
      </g>
     </g>
    </g>
    <g id="xtick_16">
     <g id="line2d_49">
      <g>
       <use style="stroke:#000000;stroke-width:0.6;" x="217.571683" xlink:href="#m7adfe6f4f9" y="278.275665"/>
      </g>
     </g>
    </g>
    <g id="xtick_17">
     <g id="line2d_50">
      <g>
       <use style="stroke:#000000;stroke-width:0.6;" x="223.151708" xlink:href="#m7adfe6f4f9" y="278.275665"/>
      </g>
     </g>
    </g>
    <g id="xtick_18">
     <g id="line2d_51">
      <g>
       <use style="stroke:#000000;stroke-width:0.6;" x="227.985346" xlink:href="#m7adfe6f4f9" y="278.275665"/>
      </g>
     </g>
    </g>
    <g id="xtick_19">
     <g id="line2d_52">
      <g>
       <use style="stroke:#000000;stroke-width:0.6;" x="232.248917" xlink:href="#m7adfe6f4f9" y="278.275665"/>
      </g>
     </g>
    </g>
    <g id="xtick_20">
     <g id="line2d_53">
      <g>
       <use style="stroke:#000000;stroke-width:0.6;" x="261.153708" xlink:href="#m7adfe6f4f9" y="278.275665"/>
      </g>
     </g>
    </g>
    <g id="xtick_21">
     <g id="line2d_54">
      <g>
       <use style="stroke:#000000;stroke-width:0.6;" x="275.830941" xlink:href="#m7adfe6f4f9" y="278.275665"/>
      </g>
     </g>
    </g>
    <g id="xtick_22">
     <g id="line2d_55">
      <g>
       <use style="stroke:#000000;stroke-width:0.6;" x="286.244604" xlink:href="#m7adfe6f4f9" y="278.275665"/>
      </g>
     </g>
    </g>
    <g id="xtick_23">
     <g id="line2d_56">
      <g>
       <use style="stroke:#000000;stroke-width:0.6;" x="294.322069" xlink:href="#m7adfe6f4f9" y="278.275665"/>
      </g>
     </g>
    </g>
    <g id="xtick_24">
     <g id="line2d_57">
      <g>
       <use style="stroke:#000000;stroke-width:0.6;" x="300.921838" xlink:href="#m7adfe6f4f9" y="278.275665"/>
      </g>
     </g>
    </g>
    <g id="xtick_25">
     <g id="line2d_58">
      <g>
       <use style="stroke:#000000;stroke-width:0.6;" x="306.501864" xlink:href="#m7adfe6f4f9" y="278.275665"/>
      </g>
     </g>
    </g>
    <g id="xtick_26">
     <g id="line2d_59">
      <g>
       <use style="stroke:#000000;stroke-width:0.6;" x="311.335501" xlink:href="#m7adfe6f4f9" y="278.275665"/>
      </g>
     </g>
    </g>
    <g id="xtick_27">
     <g id="line2d_60">
      <g>
       <use style="stroke:#000000;stroke-width:0.6;" x="315.599072" xlink:href="#m7adfe6f4f9" y="278.275665"/>
      </g>
     </g>
    </g>
    <g id="xtick_28">
     <g id="line2d_61">
      <g>
       <use style="stroke:#000000;stroke-width:0.6;" x="344.503863" xlink:href="#m7adfe6f4f9" y="278.275665"/>
      </g>
     </g>
    </g>
    <g id="xtick_29">
     <g id="line2d_62">
      <g>
       <use style="stroke:#000000;stroke-width:0.6;" x="359.181097" xlink:href="#m7adfe6f4f9" y="278.275665"/>
      </g>
     </g>
    </g>
    <g id="xtick_30">
     <g id="line2d_63">
      <g>
       <use style="stroke:#000000;stroke-width:0.6;" x="369.59476" xlink:href="#m7adfe6f4f9" y="278.275665"/>
      </g>
     </g>
    </g>
    <g id="xtick_31">
     <g id="line2d_64">
      <g>
       <use style="stroke:#000000;stroke-width:0.6;" x="377.672224" xlink:href="#m7adfe6f4f9" y="278.275665"/>
      </g>
     </g>
    </g>
    <g id="xtick_32">
     <g id="line2d_65">
      <g>
       <use style="stroke:#000000;stroke-width:0.6;" x="384.271994" xlink:href="#m7adfe6f4f9" y="278.275665"/>
      </g>
     </g>
    </g>
    <g id="xtick_33">
     <g id="line2d_66">
      <g>
       <use style="stroke:#000000;stroke-width:0.6;" x="389.852019" xlink:href="#m7adfe6f4f9" y="278.275665"/>
      </g>
     </g>
    </g>
    <g id="xtick_34">
     <g id="line2d_67">
      <g>
       <use style="stroke:#000000;stroke-width:0.6;" x="394.685657" xlink:href="#m7adfe6f4f9" y="278.275665"/>
      </g>
     </g>
    </g>
    <g id="xtick_35">
     <g id="line2d_68">
      <g>
       <use style="stroke:#000000;stroke-width:0.6;" x="398.949227" xlink:href="#m7adfe6f4f9" y="278.275665"/>
      </g>
     </g>
    </g>
    <g id="text_4">
     <!-- log10 of FEvals / DIM -->
     <defs>
      <path d="M 9.421875 75.984375 
L 18.40625 75.984375 
L 18.40625 0 
L 9.421875 0 
z
" id="DejaVuSans-6c"/>
      <path d="M 30.609375 48.390625 
Q 23.390625 48.390625 19.1875 42.75 
Q 14.984375 37.109375 14.984375 27.296875 
Q 14.984375 17.484375 19.15625 11.84375 
Q 23.34375 6.203125 30.609375 6.203125 
Q 37.796875 6.203125 41.984375 11.859375 
Q 46.1875 17.53125 46.1875 27.296875 
Q 46.1875 37.015625 41.984375 42.703125 
Q 37.796875 48.390625 30.609375 48.390625 
M 30.609375 56 
Q 42.328125 56 49.015625 48.375 
Q 55.71875 40.765625 55.71875 27.296875 
Q 55.71875 13.875 49.015625 6.21875 
Q 42.328125 -1.421875 30.609375 -1.421875 
Q 18.84375 -1.421875 12.171875 6.21875 
Q 5.515625 13.875 5.515625 27.296875 
Q 5.515625 40.765625 12.171875 48.375 
Q 18.84375 56 30.609375 56 
" id="DejaVuSans-6f"/>
      <path d="M 45.40625 27.984375 
Q 45.40625 37.75 41.375 43.109375 
Q 37.359375 48.484375 30.078125 48.484375 
Q 22.859375 48.484375 18.828125 43.109375 
Q 14.796875 37.75 14.796875 27.984375 
Q 14.796875 18.265625 18.828125 12.890625 
Q 22.859375 7.515625 30.078125 7.515625 
Q 37.359375 7.515625 41.375 12.890625 
Q 45.40625 18.265625 45.40625 27.984375 
M 54.390625 6.78125 
Q 54.390625 -7.171875 48.1875 -13.984375 
Q 42 -20.796875 29.203125 -20.796875 
Q 24.46875 -20.796875 20.265625 -20.09375 
Q 16.0625 -19.390625 12.109375 -17.921875 
L 12.109375 -9.1875 
Q 16.0625 -11.328125 19.921875 -12.34375 
Q 23.78125 -13.375 27.78125 -13.375 
Q 36.625 -13.375 41.015625 -8.765625 
Q 45.40625 -4.15625 45.40625 5.171875 
L 45.40625 9.625 
Q 42.625 4.78125 38.28125 2.390625 
Q 33.9375 0 27.875 0 
Q 17.828125 0 11.671875 7.65625 
Q 5.515625 15.328125 5.515625 27.984375 
Q 5.515625 40.671875 11.671875 48.328125 
Q 17.828125 56 27.875 56 
Q 33.9375 56 38.28125 53.609375 
Q 42.625 51.21875 45.40625 46.390625 
L 45.40625 54.6875 
L 54.390625 54.6875 
z
" id="DejaVuSans-67"/>
      <path d="M 12.40625 8.296875 
L 28.515625 8.296875 
L 28.515625 63.921875 
L 10.984375 60.40625 
L 10.984375 69.390625 
L 28.421875 72.90625 
L 38.28125 72.90625 
L 38.28125 8.296875 
L 54.390625 8.296875 
L 54.390625 0 
L 12.40625 0 
z
" id="DejaVuSans-31"/>
      <path id="DejaVuSans-20"/>
      <path d="M 37.109375 75.984375 
L 37.109375 68.5 
L 28.515625 68.5 
Q 23.6875 68.5 21.796875 66.546875 
Q 19.921875 64.59375 19.921875 59.515625 
L 19.921875 54.6875 
L 34.71875 54.6875 
L 34.71875 47.703125 
L 19.921875 47.703125 
L 19.921875 0 
L 10.890625 0 
L 10.890625 47.703125 
L 2.296875 47.703125 
L 2.296875 54.6875 
L 10.890625 54.6875 
L 10.890625 58.5 
Q 10.890625 67.625 15.140625 71.796875 
Q 19.390625 75.984375 28.609375 75.984375 
z
" id="DejaVuSans-66"/>
      <path d="M 9.8125 72.90625 
L 51.703125 72.90625 
L 51.703125 64.59375 
L 19.671875 64.59375 
L 19.671875 43.109375 
L 48.578125 43.109375 
L 48.578125 34.8125 
L 19.671875 34.8125 
L 19.671875 0 
L 9.8125 0 
z
" id="DejaVuSans-46"/>
      <path d="M 9.8125 72.90625 
L 55.90625 72.90625 
L 55.90625 64.59375 
L 19.671875 64.59375 
L 19.671875 43.015625 
L 54.390625 43.015625 
L 54.390625 34.71875 
L 19.671875 34.71875 
L 19.671875 8.296875 
L 56.78125 8.296875 
L 56.78125 0 
L 9.8125 0 
z
" id="DejaVuSans-45"/>
      <path d="M 2.984375 54.6875 
L 12.5 54.6875 
L 29.59375 8.796875 
L 46.6875 54.6875 
L 56.203125 54.6875 
L 35.6875 0 
L 23.484375 0 
z
" id="DejaVuSans-76"/>
      <path d="M 34.28125 27.484375 
Q 23.390625 27.484375 19.1875 25 
Q 14.984375 22.515625 14.984375 16.5 
Q 14.984375 11.71875 18.140625 8.90625 
Q 21.296875 6.109375 26.703125 6.109375 
Q 34.1875 6.109375 38.703125 11.40625 
Q 43.21875 16.703125 43.21875 25.484375 
L 43.21875 27.484375 
z
M 52.203125 31.203125 
L 52.203125 0 
L 43.21875 0 
L 43.21875 8.296875 
Q 40.140625 3.328125 35.546875 0.953125 
Q 30.953125 -1.421875 24.3125 -1.421875 
Q 15.921875 -1.421875 10.953125 3.296875 
Q 6 8.015625 6 15.921875 
Q 6 25.140625 12.171875 29.828125 
Q 18.359375 34.515625 30.609375 34.515625 
L 43.21875 34.515625 
L 43.21875 35.40625 
Q 43.21875 41.609375 39.140625 45 
Q 35.0625 48.390625 27.6875 48.390625 
Q 23 48.390625 18.546875 47.265625 
Q 14.109375 46.140625 10.015625 43.890625 
L 10.015625 52.203125 
Q 14.9375 54.109375 19.578125 55.046875 
Q 24.21875 56 28.609375 56 
Q 40.484375 56 46.34375 49.84375 
Q 52.203125 43.703125 52.203125 31.203125 
" id="DejaVuSans-61"/>
      <path d="M 44.28125 53.078125 
L 44.28125 44.578125 
Q 40.484375 46.53125 36.375 47.5 
Q 32.28125 48.484375 27.875 48.484375 
Q 21.1875 48.484375 17.84375 46.4375 
Q 14.5 44.390625 14.5 40.28125 
Q 14.5 37.15625 16.890625 35.375 
Q 19.28125 33.59375 26.515625 31.984375 
L 29.59375 31.296875 
Q 39.15625 29.25 43.1875 25.515625 
Q 47.21875 21.78125 47.21875 15.09375 
Q 47.21875 7.46875 41.1875 3.015625 
Q 35.15625 -1.421875 24.609375 -1.421875 
Q 20.21875 -1.421875 15.453125 -0.5625 
Q 10.6875 0.296875 5.421875 2 
L 5.421875 11.28125 
Q 10.40625 8.6875 15.234375 7.390625 
Q 20.0625 6.109375 24.8125 6.109375 
Q 31.15625 6.109375 34.5625 8.28125 
Q 37.984375 10.453125 37.984375 14.40625 
Q 37.984375 18.0625 35.515625 20.015625 
Q 33.0625 21.96875 24.703125 23.78125 
L 21.578125 24.515625 
Q 13.234375 26.265625 9.515625 29.90625 
Q 5.8125 33.546875 5.8125 39.890625 
Q 5.8125 47.609375 11.28125 51.796875 
Q 16.75 56 26.8125 56 
Q 31.78125 56 36.171875 55.265625 
Q 40.578125 54.546875 44.28125 53.078125 
" id="DejaVuSans-73"/>
      <path d="M 25.390625 72.90625 
L 33.6875 72.90625 
L 8.296875 -9.28125 
L 0 -9.28125 
z
" id="DejaVuSans-2f"/>
      <path d="M 19.671875 64.796875 
L 19.671875 8.109375 
L 31.59375 8.109375 
Q 46.6875 8.109375 53.6875 14.9375 
Q 60.6875 21.78125 60.6875 36.53125 
Q 60.6875 51.171875 53.6875 57.984375 
Q 46.6875 64.796875 31.59375 64.796875 
z
M 9.8125 72.90625 
L 30.078125 72.90625 
Q 51.265625 72.90625 61.171875 64.09375 
Q 71.09375 55.28125 71.09375 36.53125 
Q 71.09375 17.671875 61.125 8.828125 
Q 51.171875 0 30.078125 0 
L 9.8125 0 
z
" id="DejaVuSans-44"/>
      <path d="M 9.8125 72.90625 
L 19.671875 72.90625 
L 19.671875 0 
L 9.8125 0 
z
" id="DejaVuSans-49"/>
      <path d="M 9.8125 72.90625 
L 24.515625 72.90625 
L 43.109375 23.296875 
L 61.8125 72.90625 
L 76.515625 72.90625 
L 76.515625 0 
L 66.890625 0 
L 66.890625 64.015625 
L 48.09375 14.015625 
L 38.1875 14.015625 
L 19.390625 64.015625 
L 19.390625 0 
L 9.8125 0 
z
" id="DejaVuSans-4d"/>
     </defs>
     <g transform="translate(142.849063 323.82879)scale(0.2 -0.2)">
      <use xlink:href="#DejaVuSans-6c"/>
      <use x="27.783203" xlink:href="#DejaVuSans-6f"/>
      <use x="88.964844" xlink:href="#DejaVuSans-67"/>
      <use x="152.441406" xlink:href="#DejaVuSans-31"/>
      <use x="216.064453" xlink:href="#DejaVuSans-30"/>
      <use x="279.6875" xlink:href="#DejaVuSans-20"/>
      <use x="311.474609" xlink:href="#DejaVuSans-6f"/>
      <use x="372.65625" xlink:href="#DejaVuSans-66"/>
      <use x="407.861328" xlink:href="#DejaVuSans-20"/>
      <use x="439.648438" xlink:href="#DejaVuSans-46"/>
      <use x="497.167969" xlink:href="#DejaVuSans-45"/>
      <use x="560.351562" xlink:href="#DejaVuSans-76"/>
      <use x="619.53125" xlink:href="#DejaVuSans-61"/>
      <use x="680.810547" xlink:href="#DejaVuSans-6c"/>
      <use x="708.59375" xlink:href="#DejaVuSans-73"/>
      <use x="760.693359" xlink:href="#DejaVuSans-20"/>
      <use x="792.480469" xlink:href="#DejaVuSans-2f"/>
      <use x="826.171875" xlink:href="#DejaVuSans-20"/>
      <use x="857.958984" xlink:href="#DejaVuSans-44"/>
      <use x="934.960938" xlink:href="#DejaVuSans-49"/>
      <use x="964.453125" xlink:href="#DejaVuSans-4d"/>
     </g>
    </g>
   </g>
   <g id="matplotlib.axis_2">
    <g id="ytick_1">
     <g id="line2d_69">
      <path clip-path="url(#pbf7bfa5f91)" d="M 69.3625 278.275665 
L 426.4825 278.275665 
" style="fill:none;stroke:#b0b0b0;stroke-linecap:square;stroke-width:0.8;"/>
     </g>
     <g id="line2d_70">
      <defs>
       <path d="M 0 0 
L -3.5 0 
" id="m925b264072" style="stroke:#000000;stroke-width:0.8;"/>
      </defs>
      <g>
       <use style="stroke:#000000;stroke-width:0.8;" x="69.3625" xlink:href="#m925b264072" y="278.275665"/>
      </g>
     </g>
     <g id="text_5">
      <!-- 0.0 -->
      <defs>
       <path d="M 10.6875 12.40625 
L 21 12.40625 
L 21 0 
L 10.6875 0 
z
" id="DejaVuSans-2e"/>
      </defs>
      <g transform="translate(30.55625 285.874103)scale(0.2 -0.2)">
       <use xlink:href="#DejaVuSans-30"/>
       <use x="63.623047" xlink:href="#DejaVuSans-2e"/>
       <use x="95.410156" xlink:href="#DejaVuSans-30"/>
      </g>
     </g>
    </g>
    <g id="ytick_2">
     <g id="line2d_71">
      <path clip-path="url(#pbf7bfa5f91)" d="M 69.3625 225.58022 
L 426.4825 225.58022 
" style="fill:none;stroke:#b0b0b0;stroke-linecap:square;stroke-width:0.8;"/>
     </g>
     <g id="line2d_72">
      <g>
       <use style="stroke:#000000;stroke-width:0.8;" x="69.3625" xlink:href="#m925b264072" y="225.58022"/>
      </g>
     </g>
     <g id="text_6">
      <!-- 0.2 -->
      <g transform="translate(30.55625 233.178657)scale(0.2 -0.2)">
       <use xlink:href="#DejaVuSans-30"/>
       <use x="63.623047" xlink:href="#DejaVuSans-2e"/>
       <use x="95.410156" xlink:href="#DejaVuSans-32"/>
      </g>
     </g>
    </g>
    <g id="ytick_3">
     <g id="line2d_73">
      <path clip-path="url(#pbf7bfa5f91)" d="M 69.3625 172.884774 
L 426.4825 172.884774 
" style="fill:none;stroke:#b0b0b0;stroke-linecap:square;stroke-width:0.8;"/>
     </g>
     <g id="line2d_74">
      <g>
       <use style="stroke:#000000;stroke-width:0.8;" x="69.3625" xlink:href="#m925b264072" y="172.884774"/>
      </g>
     </g>
     <g id="text_7">
      <!-- 0.4 -->
      <g transform="translate(30.55625 180.483212)scale(0.2 -0.2)">
       <use xlink:href="#DejaVuSans-30"/>
       <use x="63.623047" xlink:href="#DejaVuSans-2e"/>
       <use x="95.410156" xlink:href="#DejaVuSans-34"/>
      </g>
     </g>
    </g>
    <g id="ytick_4">
     <g id="line2d_75">
      <path clip-path="url(#pbf7bfa5f91)" d="M 69.3625 120.189329 
L 426.4825 120.189329 
" style="fill:none;stroke:#b0b0b0;stroke-linecap:square;stroke-width:0.8;"/>
     </g>
     <g id="line2d_76">
      <g>
       <use style="stroke:#000000;stroke-width:0.8;" x="69.3625" xlink:href="#m925b264072" y="120.189329"/>
      </g>
     </g>
     <g id="text_8">
      <!-- 0.6 -->
      <defs>
       <path d="M 33.015625 40.375 
Q 26.375 40.375 22.484375 35.828125 
Q 18.609375 31.296875 18.609375 23.390625 
Q 18.609375 15.53125 22.484375 10.953125 
Q 26.375 6.390625 33.015625 6.390625 
Q 39.65625 6.390625 43.53125 10.953125 
Q 47.40625 15.53125 47.40625 23.390625 
Q 47.40625 31.296875 43.53125 35.828125 
Q 39.65625 40.375 33.015625 40.375 
M 52.59375 71.296875 
L 52.59375 62.3125 
Q 48.875 64.0625 45.09375 64.984375 
Q 41.3125 65.921875 37.59375 65.921875 
Q 27.828125 65.921875 22.671875 59.328125 
Q 17.53125 52.734375 16.796875 39.40625 
Q 19.671875 43.65625 24.015625 45.921875 
Q 28.375 48.1875 33.59375 48.1875 
Q 44.578125 48.1875 50.953125 41.515625 
Q 57.328125 34.859375 57.328125 23.390625 
Q 57.328125 12.15625 50.6875 5.359375 
Q 44.046875 -1.421875 33.015625 -1.421875 
Q 20.359375 -1.421875 13.671875 8.265625 
Q 6.984375 17.96875 6.984375 36.375 
Q 6.984375 53.65625 15.1875 63.9375 
Q 23.390625 74.21875 37.203125 74.21875 
Q 40.921875 74.21875 44.703125 73.484375 
Q 48.484375 72.75 52.59375 71.296875 
" id="DejaVuSans-36"/>
      </defs>
      <g transform="translate(30.55625 127.787766)scale(0.2 -0.2)">
       <use xlink:href="#DejaVuSans-30"/>
       <use x="63.623047" xlink:href="#DejaVuSans-2e"/>
       <use x="95.410156" xlink:href="#DejaVuSans-36"/>
      </g>
     </g>
    </g>
    <g id="ytick_5">
     <g id="line2d_77">
      <path clip-path="url(#pbf7bfa5f91)" d="M 69.3625 67.493883 
L 426.4825 67.493883 
" style="fill:none;stroke:#b0b0b0;stroke-linecap:square;stroke-width:0.8;"/>
     </g>
     <g id="line2d_78">
      <g>
       <use style="stroke:#000000;stroke-width:0.8;" x="69.3625" xlink:href="#m925b264072" y="67.493883"/>
      </g>
     </g>
     <g id="text_9">
      <!-- 0.8 -->
      <defs>
       <path d="M 31.78125 34.625 
Q 24.75 34.625 20.71875 30.859375 
Q 16.703125 27.09375 16.703125 20.515625 
Q 16.703125 13.921875 20.71875 10.15625 
Q 24.75 6.390625 31.78125 6.390625 
Q 38.8125 6.390625 42.859375 10.171875 
Q 46.921875 13.96875 46.921875 20.515625 
Q 46.921875 27.09375 42.890625 30.859375 
Q 38.875 34.625 31.78125 34.625 
M 21.921875 38.8125 
Q 15.578125 40.375 12.03125 44.71875 
Q 8.5 49.078125 8.5 55.328125 
Q 8.5 64.0625 14.71875 69.140625 
Q 20.953125 74.21875 31.78125 74.21875 
Q 42.671875 74.21875 48.875 69.140625 
Q 55.078125 64.0625 55.078125 55.328125 
Q 55.078125 49.078125 51.53125 44.71875 
Q 48 40.375 41.703125 38.8125 
Q 48.828125 37.15625 52.796875 32.3125 
Q 56.78125 27.484375 56.78125 20.515625 
Q 56.78125 9.90625 50.3125 4.234375 
Q 43.84375 -1.421875 31.78125 -1.421875 
Q 19.734375 -1.421875 13.25 4.234375 
Q 6.78125 9.90625 6.78125 20.515625 
Q 6.78125 27.484375 10.78125 32.3125 
Q 14.796875 37.15625 21.921875 38.8125 
M 18.3125 54.390625 
Q 18.3125 48.734375 21.84375 45.5625 
Q 25.390625 42.390625 31.78125 42.390625 
Q 38.140625 42.390625 41.71875 45.5625 
Q 45.3125 48.734375 45.3125 54.390625 
Q 45.3125 60.0625 41.71875 63.234375 
Q 38.140625 66.40625 31.78125 66.40625 
Q 25.390625 66.40625 21.84375 63.234375 
Q 18.3125 60.0625 18.3125 54.390625 
" id="DejaVuSans-38"/>
      </defs>
      <g transform="translate(30.55625 75.092321)scale(0.2 -0.2)">
       <use xlink:href="#DejaVuSans-30"/>
       <use x="63.623047" xlink:href="#DejaVuSans-2e"/>
       <use x="95.410156" xlink:href="#DejaVuSans-38"/>
      </g>
     </g>
    </g>
    <g id="ytick_6">
     <g id="line2d_79">
      <path clip-path="url(#pbf7bfa5f91)" d="M 69.3625 14.798437 
L 426.4825 14.798437 
" style="fill:none;stroke:#b0b0b0;stroke-linecap:square;stroke-width:0.8;"/>
     </g>
     <g id="line2d_80">
      <g>
       <use style="stroke:#000000;stroke-width:0.8;" x="69.3625" xlink:href="#m925b264072" y="14.798437"/>
      </g>
     </g>
     <g id="text_10">
      <!-- 1.0 -->
      <g transform="translate(30.55625 22.396875)scale(0.2 -0.2)">
       <use xlink:href="#DejaVuSans-31"/>
       <use x="63.623047" xlink:href="#DejaVuSans-2e"/>
       <use x="95.410156" xlink:href="#DejaVuSans-30"/>
      </g>
     </g>
    </g>
    <g id="text_11">
     <!-- proportion of trials -->
     <defs>
      <path d="M 18.109375 8.203125 
L 18.109375 -20.796875 
L 9.078125 -20.796875 
L 9.078125 54.6875 
L 18.109375 54.6875 
L 18.109375 46.390625 
Q 20.953125 51.265625 25.265625 53.625 
Q 29.59375 56 35.59375 56 
Q 45.5625 56 51.78125 48.09375 
Q 58.015625 40.1875 58.015625 27.296875 
Q 58.015625 14.40625 51.78125 6.484375 
Q 45.5625 -1.421875 35.59375 -1.421875 
Q 29.59375 -1.421875 25.265625 0.953125 
Q 20.953125 3.328125 18.109375 8.203125 
M 48.6875 27.296875 
Q 48.6875 37.203125 44.609375 42.84375 
Q 40.53125 48.484375 33.40625 48.484375 
Q 26.265625 48.484375 22.1875 42.84375 
Q 18.109375 37.203125 18.109375 27.296875 
Q 18.109375 17.390625 22.1875 11.75 
Q 26.265625 6.109375 33.40625 6.109375 
Q 40.53125 6.109375 44.609375 11.75 
Q 48.6875 17.390625 48.6875 27.296875 
" id="DejaVuSans-70"/>
      <path d="M 41.109375 46.296875 
Q 39.59375 47.171875 37.8125 47.578125 
Q 36.03125 48 33.890625 48 
Q 26.265625 48 22.1875 43.046875 
Q 18.109375 38.09375 18.109375 28.8125 
L 18.109375 0 
L 9.078125 0 
L 9.078125 54.6875 
L 18.109375 54.6875 
L 18.109375 46.1875 
Q 20.953125 51.171875 25.484375 53.578125 
Q 30.03125 56 36.53125 56 
Q 37.453125 56 38.578125 55.875 
Q 39.703125 55.765625 41.0625 55.515625 
z
" id="DejaVuSans-72"/>
      <path d="M 18.3125 70.21875 
L 18.3125 54.6875 
L 36.8125 54.6875 
L 36.8125 47.703125 
L 18.3125 47.703125 
L 18.3125 18.015625 
Q 18.3125 11.328125 20.140625 9.421875 
Q 21.96875 7.515625 27.59375 7.515625 
L 36.8125 7.515625 
L 36.8125 0 
L 27.59375 0 
Q 17.1875 0 13.234375 3.875 
Q 9.28125 7.765625 9.28125 18.015625 
L 9.28125 47.703125 
L 2.6875 47.703125 
L 2.6875 54.6875 
L 9.28125 54.6875 
L 9.28125 70.21875 
z
" id="DejaVuSans-74"/>
      <path d="M 9.421875 54.6875 
L 18.40625 54.6875 
L 18.40625 0 
L 9.421875 0 
z
M 9.421875 75.984375 
L 18.40625 75.984375 
L 18.40625 64.59375 
L 9.421875 64.59375 
z
" id="DejaVuSans-69"/>
      <path d="M 54.890625 33.015625 
L 54.890625 0 
L 45.90625 0 
L 45.90625 32.71875 
Q 45.90625 40.484375 42.875 44.328125 
Q 39.84375 48.1875 33.796875 48.1875 
Q 26.515625 48.1875 22.3125 43.546875 
Q 18.109375 38.921875 18.109375 30.90625 
L 18.109375 0 
L 9.078125 0 
L 9.078125 54.6875 
L 18.109375 54.6875 
L 18.109375 46.1875 
Q 21.34375 51.125 25.703125 53.5625 
Q 30.078125 56 35.796875 56 
Q 45.21875 56 50.046875 50.171875 
Q 54.890625 44.34375 54.890625 33.015625 
" id="DejaVuSans-6e"/>
     </defs>
     <g transform="translate(22.396875 238.44779)rotate(-90)scale(0.2 -0.2)">
      <use xlink:href="#DejaVuSans-70"/>
      <use x="63.476562" xlink:href="#DejaVuSans-72"/>
      <use x="104.558594" xlink:href="#DejaVuSans-6f"/>
      <use x="165.740234" xlink:href="#DejaVuSans-70"/>
      <use x="229.216797" xlink:href="#DejaVuSans-6f"/>
      <use x="290.398438" xlink:href="#DejaVuSans-72"/>
      <use x="331.511719" xlink:href="#DejaVuSans-74"/>
      <use x="370.720703" xlink:href="#DejaVuSans-69"/>
      <use x="398.503906" xlink:href="#DejaVuSans-6f"/>
      <use x="459.685547" xlink:href="#DejaVuSans-6e"/>
      <use x="523.064453" xlink:href="#DejaVuSans-20"/>
      <use x="554.851562" xlink:href="#DejaVuSans-6f"/>
      <use x="616.033203" xlink:href="#DejaVuSans-66"/>
      <use x="651.238281" xlink:href="#DejaVuSans-20"/>
      <use x="683.025391" xlink:href="#DejaVuSans-74"/>
      <use x="722.234375" xlink:href="#DejaVuSans-72"/>
      <use x="763.347656" xlink:href="#DejaVuSans-69"/>
      <use x="791.130859" xlink:href="#DejaVuSans-61"/>
      <use x="852.410156" xlink:href="#DejaVuSans-6c"/>
      <use x="880.193359" xlink:href="#DejaVuSans-73"/>
     </g>
    </g>
   </g>
   <g id="line2d_81">
    <path clip-path="url(#pbf7bfa5f91)" d="M 11.103242 278.275665 
L 11.103242 276.51915 
L 11.103242 276.51915 
L 11.103242 276.51915 
L 11.103242 274.762636 
L 11.103242 274.762636 
L 11.103242 274.762636 
L 11.103242 273.006121 
L 11.103242 273.006121 
L 11.103242 273.006121 
L 11.103242 271.249606 
L 11.103242 271.249606 
L 11.103242 271.249606 
L 11.103242 269.493091 
L 11.103242 269.493091 
L 11.103242 269.493091 
L 11.103242 267.736576 
L 11.103242 267.736576 
L 11.103242 267.736576 
L 11.103242 265.980061 
L 11.103242 265.980061 
L 11.103242 265.980061 
L 11.103242 264.223546 
L 11.103242 264.223546 
L 11.103242 264.223546 
L 11.103242 262.467032 
L 11.103242 262.467032 
L 11.103242 262.467032 
L 11.103242 260.710517 
L 11.103242 260.710517 
L 11.103242 260.710517 
L 11.103242 258.954002 
L 11.103242 258.954002 
L 11.103242 258.954002 
L 11.103242 257.197487 
L 11.103242 257.197487 
L 11.103242 257.197487 
L 11.103242 255.440972 
L 11.103242 255.440972 
L 11.103242 255.440972 
L 11.103242 253.684457 
L 11.103242 253.684457 
L 11.103242 253.684457 
L 11.103242 251.927942 
L 11.103242 251.927942 
L 11.103242 251.927942 
L 11.103242 250.171428 
L 11.103242 250.171428 
L 11.103242 250.171428 
L 11.103242 248.414913 
L 11.103242 248.414913 
L 11.103242 248.414913 
L 11.103242 246.658398 
L 11.103242 246.658398 
L 11.103242 246.658398 
L 11.103242 244.901883 
L 11.103242 244.901883 
L 11.103242 244.901883 
L 11.103242 243.145368 
L 11.103242 243.145368 
L 11.103242 243.145368 
L 11.103242 241.388853 
L 11.103242 241.388853 
L 11.103242 241.388853 
L 11.103242 239.632338 
L 11.103242 239.632338 
L 11.103242 239.632338 
L 11.103242 237.875824 
L 11.103242 237.875824 
L 11.103242 237.875824 
L 11.103242 236.119309 
L 11.103242 236.119309 
L 11.103242 236.119309 
L 11.103242 234.362794 
L 11.103242 234.362794 
L 11.103242 234.362794 
L 11.103242 232.606279 
L 11.103242 232.606279 
L 11.103242 232.606279 
L 11.103242 230.849764 
L 11.103242 230.849764 
L 11.103242 230.849764 
L 11.103242 229.093249 
L 11.103242 229.093249 
L 11.103242 229.093249 
L 11.103242 227.336735 
L 11.103242 227.336735 
L 11.103242 227.336735 
L 11.103242 225.58022 
L 11.103242 225.58022 
L 11.103242 225.58022 
L 11.103242 223.823705 
L 11.103242 223.823705 
L 11.103242 223.823705 
L 11.103242 222.06719 
L 11.103242 222.06719 
L 11.103242 222.06719 
L 11.103242 220.310675 
L 11.103242 220.310675 
L 11.103242 220.310675 
L 11.103242 218.55416 
L 11.103242 218.55416 
L 11.103242 218.55416 
L 11.103242 216.797645 
L 11.103242 216.797645 
L 11.103242 216.797645 
L 11.103242 215.041131 
L 36.194138 215.041131 
L 36.194138 209.771586 
L 50.871372 209.771586 
L 50.871372 206.258556 
L 69.3625 206.258556 
L 69.3625 202.745527 
L 81.542294 202.745527 
L 81.542294 200.989012 
L 101.053166 200.989012 
L 101.053166 199.232497 
L 106.633191 199.232497 
L 106.633191 197.475982 
L 109.130631 197.475982 
L 109.130631 195.719467 
L 113.66135 195.719467 
L 113.66135 192.206437 
L 117.687553 192.206437 
L 117.687553 190.449923 
L 122.994381 190.449923 
L 122.994381 188.693408 
L 129.04149 188.693408 
L 129.04149 186.936893 
L 130.407634 186.936893 
L 130.407634 185.180378 
L 138.752247 185.180378 
L 138.752247 183.423863 
L 140.821297 183.423863 
L 140.821297 181.667348 
L 148.898761 181.667348 
L 148.898761 179.910834 
L 159.312424 179.910834 
L 159.312424 178.154319 
L 161.078556 178.154319 
L 161.078556 176.397804 
L 169.726088 176.397804 
L 169.726088 174.641289 
L 172.343988 174.641289 
L 172.343988 172.884774 
L 176.325857 172.884774 
L 176.325857 171.128259 
L 177.439745 171.128259 
L 177.439745 169.371744 
L 185.001658 169.371744 
L 185.001658 167.61523 
L 193.197612 167.61523 
L 193.197612 165.858715 
L 202.347358 165.858715 
L 202.347358 164.1022 
L 202.713003 164.1022 
L 202.713003 162.345685 
L 207.795896 162.345685 
L 207.795896 160.58917 
L 252.849292 160.58917 
L 252.849292 158.832655 
L 299.065097 158.832655 
L 299.065097 157.07614 
L 308.208847 157.07614 
L 308.208847 155.319626 
L 322.750993 155.319626 
L 322.750993 153.563111 
L 337.535899 153.563111 
L 337.535899 151.806596 
L 338.739966 151.806596 
L 338.739966 150.050081 
L 342.298707 150.050081 
L 342.298707 148.293566 
L 356.62155 148.293566 
L 356.62155 146.537051 
L 387.045577 146.537051 
L 387.045577 144.780537 
L 391.715534 144.780537 
L 391.715534 143.024022 
L 401.066822 143.024022 
L 401.066822 141.267507 
L 401.066822 141.267507 
L 426.4825 141.267507 
L 426.4825 141.267507 
" style="fill:none;stroke:#000000;stroke-linecap:square;stroke-width:1.5;"/>
   </g>
   <g id="line2d_82"/>
   <g id="line2d_83">
    <path clip-path="url(#pbf7bfa5f91)" d="M 370.861019 278.275665 
L 370.861019 276.51915 
L 378.49536 276.51915 
L 378.49536 274.762636 
L 407.720798 274.762636 
L 407.720798 273.006121 
L 409.841157 273.006121 
L 409.841157 271.249606 
L 423.802042 271.249606 
L 423.802042 269.493091 
L 423.802042 269.493091 
L 423.802042 269.493091 
L 426.4825 269.493091 
" style="fill:none;stroke:#00bfbf;stroke-linecap:square;stroke-width:1.5;"/>
   </g>
   <g id="line2d_84"/>
   <g id="line2d_85"/>
   <g id="line2d_86"/>
   <g id="line2d_87">
    <path clip-path="url(#pbf7bfa5f91)" d="M 426.45843 278.275665 
L 426.45843 12.163665 
" style="fill:none;stroke:#000000;stroke-linecap:square;stroke-width:1.5;"/>
   </g>
   <g id="patch_3">
    <path d="M 69.3625 278.275665 
L 69.3625 12.163665 
" style="fill:none;stroke:#000000;stroke-linecap:square;stroke-linejoin:miter;stroke-width:0.8;"/>
   </g>
   <g id="patch_4">
    <path d="M 426.4825 278.275665 
L 426.4825 12.163665 
" style="fill:none;stroke:#000000;stroke-linecap:square;stroke-linejoin:miter;stroke-width:0.8;"/>
   </g>
   <g id="patch_5">
    <path d="M 69.3625 278.275665 
L 426.4825 278.275665 
" style="fill:none;stroke:#000000;stroke-linecap:square;stroke-linejoin:miter;stroke-width:0.8;"/>
   </g>
   <g id="patch_6">
    <path d="M 69.3625 12.163665 
L 426.4825 12.163665 
" style="fill:none;stroke:#000000;stroke-linecap:square;stroke-linejoin:miter;stroke-width:0.8;"/>
   </g>
   <g id="text_12">
    <!-- {f15-f19}, 5-D -->
    <defs>
     <path d="M 51.125 -9.28125 
L 51.125 -16.3125 
L 48.09375 -16.3125 
Q 35.9375 -16.3125 31.8125 -12.6875 
Q 27.6875 -9.078125 27.6875 1.703125 
L 27.6875 13.375 
Q 27.6875 20.75 25.046875 23.578125 
Q 22.40625 26.421875 15.484375 26.421875 
L 12.5 26.421875 
L 12.5 33.40625 
L 15.484375 33.40625 
Q 22.46875 33.40625 25.078125 36.203125 
Q 27.6875 39.015625 27.6875 46.296875 
L 27.6875 58.015625 
Q 27.6875 68.796875 31.8125 72.390625 
Q 35.9375 75.984375 48.09375 75.984375 
L 51.125 75.984375 
L 51.125 69 
L 47.796875 69 
Q 40.921875 69 38.8125 66.84375 
Q 36.71875 64.703125 36.71875 57.8125 
L 36.71875 45.703125 
Q 36.71875 38.03125 34.5 34.5625 
Q 32.28125 31.109375 26.90625 29.890625 
Q 32.328125 28.5625 34.515625 25.09375 
Q 36.71875 21.625 36.71875 14.015625 
L 36.71875 1.90625 
Q 36.71875 -4.984375 38.8125 -7.125 
Q 40.921875 -9.28125 47.796875 -9.28125 
z
" id="DejaVuSans-7b"/>
     <path d="M 10.796875 72.90625 
L 49.515625 72.90625 
L 49.515625 64.59375 
L 19.828125 64.59375 
L 19.828125 46.734375 
Q 21.96875 47.46875 24.109375 47.828125 
Q 26.265625 48.1875 28.421875 48.1875 
Q 40.625 48.1875 47.75 41.5 
Q 54.890625 34.8125 54.890625 23.390625 
Q 54.890625 11.625 47.5625 5.09375 
Q 40.234375 -1.421875 26.90625 -1.421875 
Q 22.3125 -1.421875 17.546875 -0.640625 
Q 12.796875 0.140625 7.71875 1.703125 
L 7.71875 11.625 
Q 12.109375 9.234375 16.796875 8.0625 
Q 21.484375 6.890625 26.703125 6.890625 
Q 35.15625 6.890625 40.078125 11.328125 
Q 45.015625 15.765625 45.015625 23.390625 
Q 45.015625 31 40.078125 35.4375 
Q 35.15625 39.890625 26.703125 39.890625 
Q 22.75 39.890625 18.8125 39.015625 
Q 14.890625 38.140625 10.796875 36.28125 
z
" id="DejaVuSans-35"/>
     <path d="M 4.890625 31.390625 
L 31.203125 31.390625 
L 31.203125 23.390625 
L 4.890625 23.390625 
z
" id="DejaVuSans-2d"/>
     <path d="M 10.984375 1.515625 
L 10.984375 10.5 
Q 14.703125 8.734375 18.5 7.8125 
Q 22.3125 6.890625 25.984375 6.890625 
Q 35.75 6.890625 40.890625 13.453125 
Q 46.046875 20.015625 46.78125 33.40625 
Q 43.953125 29.203125 39.59375 26.953125 
Q 35.25 24.703125 29.984375 24.703125 
Q 19.046875 24.703125 12.671875 31.3125 
Q 6.296875 37.9375 6.296875 49.421875 
Q 6.296875 60.640625 12.9375 67.421875 
Q 19.578125 74.21875 30.609375 74.21875 
Q 43.265625 74.21875 49.921875 64.515625 
Q 56.59375 54.828125 56.59375 36.375 
Q 56.59375 19.140625 48.40625 8.859375 
Q 40.234375 -1.421875 26.421875 -1.421875 
Q 22.703125 -1.421875 18.890625 -0.6875 
Q 15.09375 0.046875 10.984375 1.515625 
M 30.609375 32.421875 
Q 37.25 32.421875 41.125 36.953125 
Q 45.015625 41.5 45.015625 49.421875 
Q 45.015625 57.28125 41.125 61.84375 
Q 37.25 66.40625 30.609375 66.40625 
Q 23.96875 66.40625 20.09375 61.84375 
Q 16.21875 57.28125 16.21875 49.421875 
Q 16.21875 41.5 20.09375 36.953125 
Q 23.96875 32.421875 30.609375 32.421875 
" id="DejaVuSans-39"/>
     <path d="M 12.5 -9.28125 
L 15.921875 -9.28125 
Q 22.75 -9.28125 24.828125 -7.171875 
Q 26.90625 -5.078125 26.90625 1.90625 
L 26.90625 14.015625 
Q 26.90625 21.625 29.09375 25.09375 
Q 31.296875 28.5625 36.71875 29.890625 
Q 31.296875 31.109375 29.09375 34.5625 
Q 26.90625 38.03125 26.90625 45.703125 
L 26.90625 57.8125 
Q 26.90625 64.75 24.828125 66.875 
Q 22.75 69 15.921875 69 
L 12.5 69 
L 12.5 75.984375 
L 15.578125 75.984375 
Q 27.734375 75.984375 31.8125 72.390625 
Q 35.890625 68.796875 35.890625 58.015625 
L 35.890625 46.296875 
Q 35.890625 39.015625 38.515625 36.203125 
Q 41.15625 33.40625 48.09375 33.40625 
L 51.125 33.40625 
L 51.125 26.421875 
L 48.09375 26.421875 
Q 41.15625 26.421875 38.515625 23.578125 
Q 35.890625 20.75 35.890625 13.375 
L 35.890625 1.703125 
Q 35.890625 -9.078125 31.8125 -12.6875 
Q 27.734375 -16.3125 15.578125 -16.3125 
L 12.5 -16.3125 
z
" id="DejaVuSans-7d"/>
     <path d="M 11.71875 12.40625 
L 22.015625 12.40625 
L 22.015625 4 
L 14.015625 -11.625 
L 7.71875 -11.625 
L 11.71875 4 
z
" id="DejaVuSans-2c"/>
    </defs>
    <g transform="translate(175.0725 32.68278)scale(0.2 -0.2)">
     <use xlink:href="#DejaVuSans-7b"/>
     <use x="63.623047" xlink:href="#DejaVuSans-66"/>
     <use x="98.828125" xlink:href="#DejaVuSans-31"/>
     <use x="162.451172" xlink:href="#DejaVuSans-35"/>
     <use x="226.074219" xlink:href="#DejaVuSans-2d"/>
     <use x="262.158203" xlink:href="#DejaVuSans-66"/>
     <use x="297.363281" xlink:href="#DejaVuSans-31"/>
     <use x="360.986328" xlink:href="#DejaVuSans-39"/>
     <use x="424.609375" xlink:href="#DejaVuSans-7d"/>
     <use x="488.232422" xlink:href="#DejaVuSans-2c"/>
     <use x="520.019531" xlink:href="#DejaVuSans-20"/>
     <use x="551.806641" xlink:href="#DejaVuSans-35"/>
     <use x="615.429688" xlink:href="#DejaVuSans-2d"/>
     <use x="651.513672" xlink:href="#DejaVuSans-44"/>
    </g>
   </g>
   <g id="text_13">
    <!-- absolute targets -->
    <defs>
     <path d="M 48.6875 27.296875 
Q 48.6875 37.203125 44.609375 42.84375 
Q 40.53125 48.484375 33.40625 48.484375 
Q 26.265625 48.484375 22.1875 42.84375 
Q 18.109375 37.203125 18.109375 27.296875 
Q 18.109375 17.390625 22.1875 11.75 
Q 26.265625 6.109375 33.40625 6.109375 
Q 40.53125 6.109375 44.609375 11.75 
Q 48.6875 17.390625 48.6875 27.296875 
M 18.109375 46.390625 
Q 20.953125 51.265625 25.265625 53.625 
Q 29.59375 56 35.59375 56 
Q 45.5625 56 51.78125 48.09375 
Q 58.015625 40.1875 58.015625 27.296875 
Q 58.015625 14.40625 51.78125 6.484375 
Q 45.5625 -1.421875 35.59375 -1.421875 
Q 29.59375 -1.421875 25.265625 0.953125 
Q 20.953125 3.328125 18.109375 8.203125 
L 18.109375 0 
L 9.078125 0 
L 9.078125 75.984375 
L 18.109375 75.984375 
z
" id="DejaVuSans-62"/>
     <path d="M 8.5 21.578125 
L 8.5 54.6875 
L 17.484375 54.6875 
L 17.484375 21.921875 
Q 17.484375 14.15625 20.5 10.265625 
Q 23.53125 6.390625 29.59375 6.390625 
Q 36.859375 6.390625 41.078125 11.03125 
Q 45.3125 15.671875 45.3125 23.6875 
L 45.3125 54.6875 
L 54.296875 54.6875 
L 54.296875 0 
L 45.3125 0 
L 45.3125 8.40625 
Q 42.046875 3.421875 37.71875 1 
Q 33.40625 -1.421875 27.6875 -1.421875 
Q 18.265625 -1.421875 13.375 4.4375 
Q 8.5 10.296875 8.5 21.578125 
M 31.109375 56 
z
" id="DejaVuSans-75"/>
     <path d="M 56.203125 29.59375 
L 56.203125 25.203125 
L 14.890625 25.203125 
Q 15.484375 15.921875 20.484375 11.0625 
Q 25.484375 6.203125 34.421875 6.203125 
Q 39.59375 6.203125 44.453125 7.46875 
Q 49.3125 8.734375 54.109375 11.28125 
L 54.109375 2.78125 
Q 49.265625 0.734375 44.1875 -0.34375 
Q 39.109375 -1.421875 33.890625 -1.421875 
Q 20.796875 -1.421875 13.15625 6.1875 
Q 5.515625 13.8125 5.515625 26.8125 
Q 5.515625 40.234375 12.765625 48.109375 
Q 20.015625 56 32.328125 56 
Q 43.359375 56 49.78125 48.890625 
Q 56.203125 41.796875 56.203125 29.59375 
M 47.21875 32.234375 
Q 47.125 39.59375 43.09375 43.984375 
Q 39.0625 48.390625 32.421875 48.390625 
Q 24.90625 48.390625 20.390625 44.140625 
Q 15.875 39.890625 15.1875 32.171875 
z
" id="DejaVuSans-65"/>
    </defs>
    <g transform="translate(69.3625 291.449527)scale(0.14 -0.14)">
     <use xlink:href="#DejaVuSans-61"/>
     <use x="61.279297" xlink:href="#DejaVuSans-62"/>
     <use x="124.755859" xlink:href="#DejaVuSans-73"/>
     <use x="176.855469" xlink:href="#DejaVuSans-6f"/>
     <use x="238.037109" xlink:href="#DejaVuSans-6c"/>
     <use x="265.820312" xlink:href="#DejaVuSans-75"/>
     <use x="329.199219" xlink:href="#DejaVuSans-74"/>
     <use x="368.408203" xlink:href="#DejaVuSans-65"/>
     <use x="429.931641" xlink:href="#DejaVuSans-20"/>
     <use x="461.71875" xlink:href="#DejaVuSans-74"/>
     <use x="500.927734" xlink:href="#DejaVuSans-61"/>
     <use x="562.207031" xlink:href="#DejaVuSans-72"/>
     <use x="603.304688" xlink:href="#DejaVuSans-67"/>
     <use x="666.78125" xlink:href="#DejaVuSans-65"/>
     <use x="728.304688" xlink:href="#DejaVuSans-74"/>
     <use x="767.513672" xlink:href="#DejaVuSans-73"/>
    </g>
   </g>
   <g id="text_14">
    <!-- v2.1 -->
    <g style="fill:#808080;" transform="translate(237.011563 273.534858)scale(0.1 -0.1)">
     <use xlink:href="#DejaVuSans-76"/>
     <use x="59.179688" xlink:href="#DejaVuSans-32"/>
     <use x="122.802734" xlink:href="#DejaVuSans-2e"/>
     <use x="154.589844" xlink:href="#DejaVuSans-31"/>
    </g>
   </g>
   <g id="legend_1">
    <g id="patch_7">
     <path d="M 83.3625 145.588665 
L 212.584375 145.588665 
Q 216.584375 145.588665 216.584375 141.588665 
L 216.584375 26.163665 
Q 216.584375 22.163665 212.584375 22.163665 
L 83.3625 22.163665 
Q 79.3625 22.163665 79.3625 26.163665 
L 79.3625 141.588665 
Q 79.3625 145.588665 83.3625 145.588665 
z
" style="fill:#ffffff;opacity:0.2;stroke:#cccccc;stroke-linejoin:miter;"/>
    </g>
    <g id="line2d_88">
     <path d="M 87.3625 38.36054 
L 127.3625 38.36054 
" style="fill:none;stroke:#000000;stroke-linecap:square;stroke-width:1.5;"/>
    </g>
    <g id="line2d_89"/>
    <g id="text_15">
     <!-- 1: 4/5 -->
     <defs>
      <path d="M 11.71875 12.40625 
L 22.015625 12.40625 
L 22.015625 0 
L 11.71875 0 
z
M 11.71875 51.703125 
L 22.015625 51.703125 
L 22.015625 39.3125 
L 11.71875 39.3125 
z
" id="DejaVuSans-3a"/>
     </defs>
     <g transform="translate(143.3625 45.36054)scale(0.2 -0.2)">
      <use xlink:href="#DejaVuSans-31"/>
      <use x="63.623047" xlink:href="#DejaVuSans-3a"/>
      <use x="97.314453" xlink:href="#DejaVuSans-20"/>
      <use x="129.101562" xlink:href="#DejaVuSans-34"/>
      <use x="192.724609" xlink:href="#DejaVuSans-2f"/>
      <use x="226.416016" xlink:href="#DejaVuSans-35"/>
     </g>
    </g>
    <g id="line2d_90">
     <path d="M 87.3625 67.71679 
L 127.3625 67.71679 
" style="fill:none;stroke:#00bfbf;stroke-linecap:square;stroke-width:1.5;"/>
    </g>
    <g id="line2d_91"/>
    <g id="text_16">
     <!-- -1: 1/5 -->
     <g transform="translate(143.3625 74.71679)scale(0.2 -0.2)">
      <use xlink:href="#DejaVuSans-2d"/>
      <use x="36.083984" xlink:href="#DejaVuSans-31"/>
      <use x="99.707031" xlink:href="#DejaVuSans-3a"/>
      <use x="133.398438" xlink:href="#DejaVuSans-20"/>
      <use x="165.185547" xlink:href="#DejaVuSans-31"/>
      <use x="228.808594" xlink:href="#DejaVuSans-2f"/>
      <use x="262.5" xlink:href="#DejaVuSans-35"/>
     </g>
    </g>
    <g id="line2d_92">
     <path d="M 87.3625 97.07304 
L 127.3625 97.07304 
" style="fill:none;stroke:#bf00bf;stroke-linecap:square;stroke-width:1.5;"/>
    </g>
    <g id="line2d_93"/>
    <g id="text_17">
     <!-- -4: 0/5 -->
     <g transform="translate(143.3625 104.07304)scale(0.2 -0.2)">
      <use xlink:href="#DejaVuSans-2d"/>
      <use x="36.083984" xlink:href="#DejaVuSans-34"/>
      <use x="99.707031" xlink:href="#DejaVuSans-3a"/>
      <use x="133.398438" xlink:href="#DejaVuSans-20"/>
      <use x="165.185547" xlink:href="#DejaVuSans-30"/>
      <use x="228.808594" xlink:href="#DejaVuSans-2f"/>
      <use x="262.5" xlink:href="#DejaVuSans-35"/>
     </g>
    </g>
    <g id="line2d_94">
     <path d="M 87.3625 126.42929 
L 127.3625 126.42929 
" style="fill:none;stroke:#ff0000;stroke-linecap:square;stroke-width:3;"/>
    </g>
    <g id="line2d_95"/>
    <g id="text_18">
     <!-- -8: 0/5 -->
     <g transform="translate(143.3625 133.42929)scale(0.2 -0.2)">
      <use xlink:href="#DejaVuSans-2d"/>
      <use x="36.083984" xlink:href="#DejaVuSans-38"/>
      <use x="99.707031" xlink:href="#DejaVuSans-3a"/>
      <use x="133.398438" xlink:href="#DejaVuSans-20"/>
      <use x="165.185547" xlink:href="#DejaVuSans-30"/>
      <use x="228.808594" xlink:href="#DejaVuSans-2f"/>
      <use x="262.5" xlink:href="#DejaVuSans-35"/>
     </g>
    </g>
   </g>
  </g>
 </g>
 <defs>
  <clipPath id="pbf7bfa5f91">
   <rect height="266.112" width="357.12" x="69.3625" y="12.163665"/>
  </clipPath>
 </defs>
</svg>
