<?xml version="1.0" encoding="utf-8" standalone="no"?>
<!DOCTYPE svg PUBLIC "-//W3C//DTD SVG 1.1//EN"
  "http://www.w3.org/Graphics/SVG/1.1/DTD/svg11.dtd">
<!-- Created with matplotlib (http://matplotlib.org/) -->
<svg height="380pt" version="1.1" viewBox="0 0 432 380" width="432pt" xmlns="http://www.w3.org/2000/svg" xmlns:xlink="http://www.w3.org/1999/xlink">
 <defs>
  <style type="text/css">
*{stroke-linecap:butt;stroke-linejoin:round;}
  </style>
 </defs>
 <g id="figure_1">
  <g id="patch_1">
   <path d="M 0 380.23475 
L 432.981875 380.23475 
L 432.981875 0 
L 0 0 
z
" style="fill:#ffffff;"/>
  </g>
  <g id="axes_1">
   <g id="patch_2">
    <path d="M 56.6975 315.57975 
L 413.8175 315.57975 
L 413.8175 49.46775 
L 56.6975 49.46775 
z
" style="fill:#ffffff;"/>
   </g>
   <g id="matplotlib.axis_1">
    <g id="xtick_1">
     <g id="line2d_1">
      <path clip-path="url(#p0b993edb62)" d="M 413.8175 315.57975 
L 413.8175 49.46775 
" style="fill:none;stroke:#b0b0b0;stroke-linecap:square;stroke-width:0.8;"/>
     </g>
     <g id="line2d_2">
      <defs>
       <path d="M 0 0 
L 0 3.5 
" id="m4ae1bf8410" style="stroke:#000000;stroke-width:0.8;"/>
      </defs>
      <g>
       <use style="stroke:#000000;stroke-width:0.8;" x="413.8175" xlink:href="#m4ae1bf8410" y="315.57975"/>
      </g>
     </g>
     <g id="text_1">
      <!-- -8 -->
      <defs>
       <path d="M 4.890625 31.390625 
L 31.203125 31.390625 
L 31.203125 23.390625 
L 4.890625 23.390625 
z
" id="DejaVuSans-2d"/>
       <path d="M 31.78125 34.625 
Q 24.75 34.625 20.71875 30.859375 
Q 16.703125 27.09375 16.703125 20.515625 
Q 16.703125 13.921875 20.71875 10.15625 
Q 24.75 6.390625 31.78125 6.390625 
Q 38.8125 6.390625 42.859375 10.171875 
Q 46.921875 13.96875 46.921875 20.515625 
Q 46.921875 27.09375 42.890625 30.859375 
Q 38.875 34.625 31.78125 34.625 
M 21.921875 38.8125 
Q 15.578125 40.375 12.03125 44.71875 
Q 8.5 49.078125 8.5 55.328125 
Q 8.5 64.0625 14.71875 69.140625 
Q 20.953125 74.21875 31.78125 74.21875 
Q 42.671875 74.21875 48.875 69.140625 
Q 55.078125 64.0625 55.078125 55.328125 
Q 55.078125 49.078125 51.53125 44.71875 
Q 48 40.375 41.703125 38.8125 
Q 48.828125 37.15625 52.796875 32.3125 
Q 56.78125 27.484375 56.78125 20.515625 
Q 56.78125 9.90625 50.3125 4.234375 
Q 43.84375 -1.421875 31.78125 -1.421875 
Q 19.734375 -1.421875 13.25 4.234375 
Q 6.78125 9.90625 6.78125 20.515625 
Q 6.78125 27.484375 10.78125 32.3125 
Q 14.796875 37.15625 21.921875 38.8125 
M 18.3125 54.390625 
Q 18.3125 48.734375 21.84375 45.5625 
Q 25.390625 42.390625 31.78125 42.390625 
Q 38.140625 42.390625 41.71875 45.5625 
Q 45.3125 48.734375 45.3125 54.390625 
Q 45.3125 60.0625 41.71875 63.234375 
Q 38.140625 66.40625 31.78125 66.40625 
Q 25.390625 66.40625 21.84375 63.234375 
Q 18.3125 60.0625 18.3125 54.390625 
" id="DejaVuSans-38"/>
      </defs>
      <g transform="translate(401.853125 340.816)scale(0.24 -0.24)">
       <use xlink:href="#DejaVuSans-2d"/>
       <use x="36.083984" xlink:href="#DejaVuSans-38"/>
      </g>
     </g>
    </g>
    <g id="xtick_2">
     <g id="line2d_3">
      <path clip-path="url(#p0b993edb62)" d="M 316.421136 315.57975 
L 316.421136 49.46775 
" style="fill:none;stroke:#b0b0b0;stroke-linecap:square;stroke-width:0.8;"/>
     </g>
     <g id="line2d_4">
      <g>
       <use style="stroke:#000000;stroke-width:0.8;" x="316.421136" xlink:href="#m4ae1bf8410" y="315.57975"/>
      </g>
     </g>
     <g id="text_2">
      <!-- -5 -->
      <defs>
       <path d="M 10.796875 72.90625 
L 49.515625 72.90625 
L 49.515625 64.59375 
L 19.828125 64.59375 
L 19.828125 46.734375 
Q 21.96875 47.46875 24.109375 47.828125 
Q 26.265625 48.1875 28.421875 48.1875 
Q 40.625 48.1875 47.75 41.5 
Q 54.890625 34.8125 54.890625 23.390625 
Q 54.890625 11.625 47.5625 5.09375 
Q 40.234375 -1.421875 26.90625 -1.421875 
Q 22.3125 -1.421875 17.546875 -0.640625 
Q 12.796875 0.140625 7.71875 1.703125 
L 7.71875 11.625 
Q 12.109375 9.234375 16.796875 8.0625 
Q 21.484375 6.890625 26.703125 6.890625 
Q 35.15625 6.890625 40.078125 11.328125 
Q 45.015625 15.765625 45.015625 23.390625 
Q 45.015625 31 40.078125 35.4375 
Q 35.15625 39.890625 26.703125 39.890625 
Q 22.75 39.890625 18.8125 39.015625 
Q 14.890625 38.140625 10.796875 36.28125 
z
" id="DejaVuSans-35"/>
      </defs>
      <g transform="translate(304.456761 340.816)scale(0.24 -0.24)">
       <use xlink:href="#DejaVuSans-2d"/>
       <use x="36.083984" xlink:href="#DejaVuSans-35"/>
      </g>
     </g>
    </g>
    <g id="xtick_3">
     <g id="line2d_5">
      <path clip-path="url(#p0b993edb62)" d="M 219.024773 315.57975 
L 219.024773 49.46775 
" style="fill:none;stroke:#b0b0b0;stroke-linecap:square;stroke-width:0.8;"/>
     </g>
     <g id="line2d_6">
      <g>
       <use style="stroke:#000000;stroke-width:0.8;" x="219.024773" xlink:href="#m4ae1bf8410" y="315.57975"/>
      </g>
     </g>
     <g id="text_3">
      <!-- -2 -->
      <defs>
       <path d="M 19.1875 8.296875 
L 53.609375 8.296875 
L 53.609375 0 
L 7.328125 0 
L 7.328125 8.296875 
Q 12.9375 14.109375 22.625 23.890625 
Q 32.328125 33.6875 34.8125 36.53125 
Q 39.546875 41.84375 41.421875 45.53125 
Q 43.3125 49.21875 43.3125 52.78125 
Q 43.3125 58.59375 39.234375 62.25 
Q 35.15625 65.921875 28.609375 65.921875 
Q 23.96875 65.921875 18.8125 64.3125 
Q 13.671875 62.703125 7.8125 59.421875 
L 7.8125 69.390625 
Q 13.765625 71.78125 18.9375 73 
Q 24.125 74.21875 28.421875 74.21875 
Q 39.75 74.21875 46.484375 68.546875 
Q 53.21875 62.890625 53.21875 53.421875 
Q 53.21875 48.921875 51.53125 44.890625 
Q 49.859375 40.875 45.40625 35.40625 
Q 44.1875 33.984375 37.640625 27.21875 
Q 31.109375 20.453125 19.1875 8.296875 
" id="DejaVuSans-32"/>
      </defs>
      <g transform="translate(207.060398 340.816)scale(0.24 -0.24)">
       <use xlink:href="#DejaVuSans-2d"/>
       <use x="36.083984" xlink:href="#DejaVuSans-32"/>
      </g>
     </g>
    </g>
    <g id="xtick_4">
     <g id="line2d_7">
      <path clip-path="url(#p0b993edb62)" d="M 121.628409 315.57975 
L 121.628409 49.46775 
" style="fill:none;stroke:#b0b0b0;stroke-linecap:square;stroke-width:0.8;"/>
     </g>
     <g id="line2d_8">
      <g>
       <use style="stroke:#000000;stroke-width:0.8;" x="121.628409" xlink:href="#m4ae1bf8410" y="315.57975"/>
      </g>
     </g>
     <g id="text_4">
      <!-- 1 -->
      <defs>
       <path d="M 12.40625 8.296875 
L 28.515625 8.296875 
L 28.515625 63.921875 
L 10.984375 60.40625 
L 10.984375 69.390625 
L 28.421875 72.90625 
L 38.28125 72.90625 
L 38.28125 8.296875 
L 54.390625 8.296875 
L 54.390625 0 
L 12.40625 0 
z
" id="DejaVuSans-31"/>
      </defs>
      <g transform="translate(113.993409 340.816)scale(0.24 -0.24)">
       <use xlink:href="#DejaVuSans-31"/>
      </g>
     </g>
    </g>
    <g id="xtick_5">
     <g id="line2d_9">
      <defs>
       <path d="M 0 0 
L 0 2 
" id="m0051c1824c" style="stroke:#000000;stroke-width:0.6;"/>
      </defs>
      <g>
       <use style="stroke:#000000;stroke-width:0.6;" x="404.044424" xlink:href="#m0051c1824c" y="315.57975"/>
      </g>
     </g>
    </g>
    <g id="xtick_6">
     <g id="line2d_10">
      <g>
       <use style="stroke:#000000;stroke-width:0.6;" x="394.271349" xlink:href="#m0051c1824c" y="315.57975"/>
      </g>
     </g>
    </g>
    <g id="xtick_7">
     <g id="line2d_11">
      <g>
       <use style="stroke:#000000;stroke-width:0.6;" x="388.554466" xlink:href="#m0051c1824c" y="315.57975"/>
      </g>
     </g>
    </g>
    <g id="xtick_8">
     <g id="line2d_12">
      <g>
       <use style="stroke:#000000;stroke-width:0.6;" x="384.498273" xlink:href="#m0051c1824c" y="315.57975"/>
      </g>
     </g>
    </g>
    <g id="xtick_9">
     <g id="line2d_13">
      <g>
       <use style="stroke:#000000;stroke-width:0.6;" x="306.648061" xlink:href="#m0051c1824c" y="315.57975"/>
      </g>
     </g>
    </g>
    <g id="xtick_10">
     <g id="line2d_14">
      <g>
       <use style="stroke:#000000;stroke-width:0.6;" x="296.874985" xlink:href="#m0051c1824c" y="315.57975"/>
      </g>
     </g>
    </g>
    <g id="xtick_11">
     <g id="line2d_15">
      <g>
       <use style="stroke:#000000;stroke-width:0.6;" x="291.158102" xlink:href="#m0051c1824c" y="315.57975"/>
      </g>
     </g>
    </g>
    <g id="xtick_12">
     <g id="line2d_16">
      <g>
       <use style="stroke:#000000;stroke-width:0.6;" x="287.101909" xlink:href="#m0051c1824c" y="315.57975"/>
      </g>
     </g>
    </g>
    <g id="xtick_13">
     <g id="line2d_17">
      <g>
       <use style="stroke:#000000;stroke-width:0.6;" x="209.251697" xlink:href="#m0051c1824c" y="315.57975"/>
      </g>
     </g>
    </g>
    <g id="xtick_14">
     <g id="line2d_18">
      <g>
       <use style="stroke:#000000;stroke-width:0.6;" x="199.478621" xlink:href="#m0051c1824c" y="315.57975"/>
      </g>
     </g>
    </g>
    <g id="xtick_15">
     <g id="line2d_19">
      <g>
       <use style="stroke:#000000;stroke-width:0.6;" x="193.761739" xlink:href="#m0051c1824c" y="315.57975"/>
      </g>
     </g>
    </g>
    <g id="xtick_16">
     <g id="line2d_20">
      <g>
       <use style="stroke:#000000;stroke-width:0.6;" x="189.705546" xlink:href="#m0051c1824c" y="315.57975"/>
      </g>
     </g>
    </g>
    <g id="xtick_17">
     <g id="line2d_21">
      <g>
       <use style="stroke:#000000;stroke-width:0.6;" x="111.855333" xlink:href="#m0051c1824c" y="315.57975"/>
      </g>
     </g>
    </g>
    <g id="xtick_18">
     <g id="line2d_22">
      <g>
       <use style="stroke:#000000;stroke-width:0.6;" x="102.082258" xlink:href="#m0051c1824c" y="315.57975"/>
      </g>
     </g>
    </g>
    <g id="xtick_19">
     <g id="line2d_23">
      <g>
       <use style="stroke:#000000;stroke-width:0.6;" x="96.365375" xlink:href="#m0051c1824c" y="315.57975"/>
      </g>
     </g>
    </g>
    <g id="xtick_20">
     <g id="line2d_24">
      <g>
       <use style="stroke:#000000;stroke-width:0.6;" x="92.309182" xlink:href="#m0051c1824c" y="315.57975"/>
      </g>
     </g>
    </g>
    <g id="text_5">
     <!-- log10(Delta ftarget) -->
     <defs>
      <path d="M 9.421875 75.984375 
L 18.40625 75.984375 
L 18.40625 0 
L 9.421875 0 
z
" id="DejaVuSans-6c"/>
      <path d="M 30.609375 48.390625 
Q 23.390625 48.390625 19.1875 42.75 
Q 14.984375 37.109375 14.984375 27.296875 
Q 14.984375 17.484375 19.15625 11.84375 
Q 23.34375 6.203125 30.609375 6.203125 
Q 37.796875 6.203125 41.984375 11.859375 
Q 46.1875 17.53125 46.1875 27.296875 
Q 46.1875 37.015625 41.984375 42.703125 
Q 37.796875 48.390625 30.609375 48.390625 
M 30.609375 56 
Q 42.328125 56 49.015625 48.375 
Q 55.71875 40.765625 55.71875 27.296875 
Q 55.71875 13.875 49.015625 6.21875 
Q 42.328125 -1.421875 30.609375 -1.421875 
Q 18.84375 -1.421875 12.171875 6.21875 
Q 5.515625 13.875 5.515625 27.296875 
Q 5.515625 40.765625 12.171875 48.375 
Q 18.84375 56 30.609375 56 
" id="DejaVuSans-6f"/>
      <path d="M 45.40625 27.984375 
Q 45.40625 37.75 41.375 43.109375 
Q 37.359375 48.484375 30.078125 48.484375 
Q 22.859375 48.484375 18.828125 43.109375 
Q 14.796875 37.75 14.796875 27.984375 
Q 14.796875 18.265625 18.828125 12.890625 
Q 22.859375 7.515625 30.078125 7.515625 
Q 37.359375 7.515625 41.375 12.890625 
Q 45.40625 18.265625 45.40625 27.984375 
M 54.390625 6.78125 
Q 54.390625 -7.171875 48.1875 -13.984375 
Q 42 -20.796875 29.203125 -20.796875 
Q 24.46875 -20.796875 20.265625 -20.09375 
Q 16.0625 -19.390625 12.109375 -17.921875 
L 12.109375 -9.1875 
Q 16.0625 -11.328125 19.921875 -12.34375 
Q 23.78125 -13.375 27.78125 -13.375 
Q 36.625 -13.375 41.015625 -8.765625 
Q 45.40625 -4.15625 45.40625 5.171875 
L 45.40625 9.625 
Q 42.625 4.78125 38.28125 2.390625 
Q 33.9375 0 27.875 0 
Q 17.828125 0 11.671875 7.65625 
Q 5.515625 15.328125 5.515625 27.984375 
Q 5.515625 40.671875 11.671875 48.328125 
Q 17.828125 56 27.875 56 
Q 33.9375 56 38.28125 53.609375 
Q 42.625 51.21875 45.40625 46.390625 
L 45.40625 54.6875 
L 54.390625 54.6875 
z
" id="DejaVuSans-67"/>
      <path d="M 31.78125 66.40625 
Q 24.171875 66.40625 20.328125 58.90625 
Q 16.5 51.421875 16.5 36.375 
Q 16.5 21.390625 20.328125 13.890625 
Q 24.171875 6.390625 31.78125 6.390625 
Q 39.453125 6.390625 43.28125 13.890625 
Q 47.125 21.390625 47.125 36.375 
Q 47.125 51.421875 43.28125 58.90625 
Q 39.453125 66.40625 31.78125 66.40625 
M 31.78125 74.21875 
Q 44.046875 74.21875 50.515625 64.515625 
Q 56.984375 54.828125 56.984375 36.375 
Q 56.984375 17.96875 50.515625 8.265625 
Q 44.046875 -1.421875 31.78125 -1.421875 
Q 19.53125 -1.421875 13.0625 8.265625 
Q 6.59375 17.96875 6.59375 36.375 
Q 6.59375 54.828125 13.0625 64.515625 
Q 19.53125 74.21875 31.78125 74.21875 
" id="DejaVuSans-30"/>
      <path d="M 31 75.875 
Q 24.46875 64.65625 21.28125 53.65625 
Q 18.109375 42.671875 18.109375 31.390625 
Q 18.109375 20.125 21.3125 9.0625 
Q 24.515625 -2 31 -13.1875 
L 23.1875 -13.1875 
Q 15.875 -1.703125 12.234375 9.375 
Q 8.59375 20.453125 8.59375 31.390625 
Q 8.59375 42.28125 12.203125 53.3125 
Q 15.828125 64.359375 23.1875 75.875 
z
" id="DejaVuSans-28"/>
      <path d="M 19.671875 64.796875 
L 19.671875 8.109375 
L 31.59375 8.109375 
Q 46.6875 8.109375 53.6875 14.9375 
Q 60.6875 21.78125 60.6875 36.53125 
Q 60.6875 51.171875 53.6875 57.984375 
Q 46.6875 64.796875 31.59375 64.796875 
z
M 9.8125 72.90625 
L 30.078125 72.90625 
Q 51.265625 72.90625 61.171875 64.09375 
Q 71.09375 55.28125 71.09375 36.53125 
Q 71.09375 17.671875 61.125 8.828125 
Q 51.171875 0 30.078125 0 
L 9.8125 0 
z
" id="DejaVuSans-44"/>
      <path d="M 56.203125 29.59375 
L 56.203125 25.203125 
L 14.890625 25.203125 
Q 15.484375 15.921875 20.484375 11.0625 
Q 25.484375 6.203125 34.421875 6.203125 
Q 39.59375 6.203125 44.453125 7.46875 
Q 49.3125 8.734375 54.109375 11.28125 
L 54.109375 2.78125 
Q 49.265625 0.734375 44.1875 -0.34375 
Q 39.109375 -1.421875 33.890625 -1.421875 
Q 20.796875 -1.421875 13.15625 6.1875 
Q 5.515625 13.8125 5.515625 26.8125 
Q 5.515625 40.234375 12.765625 48.109375 
Q 20.015625 56 32.328125 56 
Q 43.359375 56 49.78125 48.890625 
Q 56.203125 41.796875 56.203125 29.59375 
M 47.21875 32.234375 
Q 47.125 39.59375 43.09375 43.984375 
Q 39.0625 48.390625 32.421875 48.390625 
Q 24.90625 48.390625 20.390625 44.140625 
Q 15.875 39.890625 15.1875 32.171875 
z
" id="DejaVuSans-65"/>
      <path d="M 18.3125 70.21875 
L 18.3125 54.6875 
L 36.8125 54.6875 
L 36.8125 47.703125 
L 18.3125 47.703125 
L 18.3125 18.015625 
Q 18.3125 11.328125 20.140625 9.421875 
Q 21.96875 7.515625 27.59375 7.515625 
L 36.8125 7.515625 
L 36.8125 0 
L 27.59375 0 
Q 17.1875 0 13.234375 3.875 
Q 9.28125 7.765625 9.28125 18.015625 
L 9.28125 47.703125 
L 2.6875 47.703125 
L 2.6875 54.6875 
L 9.28125 54.6875 
L 9.28125 70.21875 
z
" id="DejaVuSans-74"/>
      <path d="M 34.28125 27.484375 
Q 23.390625 27.484375 19.1875 25 
Q 14.984375 22.515625 14.984375 16.5 
Q 14.984375 11.71875 18.140625 8.90625 
Q 21.296875 6.109375 26.703125 6.109375 
Q 34.1875 6.109375 38.703125 11.40625 
Q 43.21875 16.703125 43.21875 25.484375 
L 43.21875 27.484375 
z
M 52.203125 31.203125 
L 52.203125 0 
L 43.21875 0 
L 43.21875 8.296875 
Q 40.140625 3.328125 35.546875 0.953125 
Q 30.953125 -1.421875 24.3125 -1.421875 
Q 15.921875 -1.421875 10.953125 3.296875 
Q 6 8.015625 6 15.921875 
Q 6 25.140625 12.171875 29.828125 
Q 18.359375 34.515625 30.609375 34.515625 
L 43.21875 34.515625 
L 43.21875 35.40625 
Q 43.21875 41.609375 39.140625 45 
Q 35.0625 48.390625 27.6875 48.390625 
Q 23 48.390625 18.546875 47.265625 
Q 14.109375 46.140625 10.015625 43.890625 
L 10.015625 52.203125 
Q 14.9375 54.109375 19.578125 55.046875 
Q 24.21875 56 28.609375 56 
Q 40.484375 56 46.34375 49.84375 
Q 52.203125 43.703125 52.203125 31.203125 
" id="DejaVuSans-61"/>
      <path id="DejaVuSans-20"/>
      <path d="M 37.109375 75.984375 
L 37.109375 68.5 
L 28.515625 68.5 
Q 23.6875 68.5 21.796875 66.546875 
Q 19.921875 64.59375 19.921875 59.515625 
L 19.921875 54.6875 
L 34.71875 54.6875 
L 34.71875 47.703125 
L 19.921875 47.703125 
L 19.921875 0 
L 10.890625 0 
L 10.890625 47.703125 
L 2.296875 47.703125 
L 2.296875 54.6875 
L 10.890625 54.6875 
L 10.890625 58.5 
Q 10.890625 67.625 15.140625 71.796875 
Q 19.390625 75.984375 28.609375 75.984375 
z
" id="DejaVuSans-66"/>
      <path d="M 41.109375 46.296875 
Q 39.59375 47.171875 37.8125 47.578125 
Q 36.03125 48 33.890625 48 
Q 26.265625 48 22.1875 43.046875 
Q 18.109375 38.09375 18.109375 28.8125 
L 18.109375 0 
L 9.078125 0 
L 9.078125 54.6875 
L 18.109375 54.6875 
L 18.109375 46.1875 
Q 20.953125 51.171875 25.484375 53.578125 
Q 30.03125 56 36.53125 56 
Q 37.453125 56 38.578125 55.875 
Q 39.703125 55.765625 41.0625 55.515625 
z
" id="DejaVuSans-72"/>
      <path d="M 8.015625 75.875 
L 15.828125 75.875 
Q 23.140625 64.359375 26.78125 53.3125 
Q 30.421875 42.28125 30.421875 31.390625 
Q 30.421875 20.453125 26.78125 9.375 
Q 23.140625 -1.703125 15.828125 -13.1875 
L 8.015625 -13.1875 
Q 14.5 -2 17.703125 9.0625 
Q 20.90625 20.125 20.90625 31.390625 
Q 20.90625 42.671875 17.703125 53.65625 
Q 14.5 64.65625 8.015625 75.875 
" id="DejaVuSans-29"/>
     </defs>
     <g transform="translate(115.581875 368.0435)scale(0.24 -0.24)">
      <use xlink:href="#DejaVuSans-6c"/>
      <use x="27.783203" xlink:href="#DejaVuSans-6f"/>
      <use x="88.964844" xlink:href="#DejaVuSans-67"/>
      <use x="152.441406" xlink:href="#DejaVuSans-31"/>
      <use x="216.064453" xlink:href="#DejaVuSans-30"/>
      <use x="279.6875" xlink:href="#DejaVuSans-28"/>
      <use x="318.701172" xlink:href="#DejaVuSans-44"/>
      <use x="395.703125" xlink:href="#DejaVuSans-65"/>
      <use x="457.226562" xlink:href="#DejaVuSans-6c"/>
      <use x="485.009766" xlink:href="#DejaVuSans-74"/>
      <use x="524.21875" xlink:href="#DejaVuSans-61"/>
      <use x="585.498047" xlink:href="#DejaVuSans-20"/>
      <use x="617.285156" xlink:href="#DejaVuSans-66"/>
      <use x="652.474609" xlink:href="#DejaVuSans-74"/>
      <use x="691.683594" xlink:href="#DejaVuSans-61"/>
      <use x="752.962891" xlink:href="#DejaVuSans-72"/>
      <use x="794.060547" xlink:href="#DejaVuSans-67"/>
      <use x="857.537109" xlink:href="#DejaVuSans-65"/>
      <use x="919.060547" xlink:href="#DejaVuSans-74"/>
      <use x="958.269531" xlink:href="#DejaVuSans-29"/>
     </g>
    </g>
   </g>
   <g id="matplotlib.axis_2">
    <g id="ytick_1">
     <g id="line2d_25">
      <path clip-path="url(#p0b993edb62)" d="M 56.6975 182.52375 
L 413.8175 182.52375 
" style="fill:none;stroke:#b0b0b0;stroke-linecap:square;stroke-width:0.8;"/>
     </g>
     <g id="line2d_26">
      <defs>
       <path d="M 0 0 
L -3.5 0 
" id="meb17b0fd75" style="stroke:#000000;stroke-width:2;"/>
      </defs>
      <g>
       <use style="stroke:#000000;stroke-width:2;" x="56.6975" xlink:href="#meb17b0fd75" y="182.52375"/>
      </g>
     </g>
     <g id="text_6">
      <!-- 0 -->
      <g transform="translate(34.4275 191.641875)scale(0.24 -0.24)">
       <use xlink:href="#DejaVuSans-30"/>
      </g>
     </g>
    </g>
    <g id="ytick_2">
     <g id="line2d_27">
      <path clip-path="url(#p0b993edb62)" d="M 56.6975 288.646211 
L 413.8175 288.646211 
" style="fill:none;stroke:#b0b0b0;stroke-linecap:square;stroke-width:0.8;"/>
     </g>
     <g id="line2d_28">
      <defs>
       <path d="M 0 0 
L -2 0 
" id="m35c56f924f" style="stroke:#000000;stroke-width:2;"/>
      </defs>
      <g>
       <use style="stroke:#000000;stroke-width:2;" x="56.6975" xlink:href="#m35c56f924f" y="288.646211"/>
      </g>
     </g>
    </g>
    <g id="ytick_3">
     <g id="line2d_29">
      <path clip-path="url(#p0b993edb62)" d="M 56.6975 249.479568 
L 413.8175 249.479568 
" style="fill:none;stroke:#b0b0b0;stroke-linecap:square;stroke-width:0.8;"/>
     </g>
     <g id="line2d_30">
      <g>
       <use style="stroke:#000000;stroke-width:2;" x="56.6975" xlink:href="#m35c56f924f" y="249.479568"/>
      </g>
     </g>
    </g>
    <g id="ytick_4">
     <g id="line2d_31">
      <path clip-path="url(#p0b993edb62)" d="M 56.6975 115.567932 
L 413.8175 115.567932 
" style="fill:none;stroke:#b0b0b0;stroke-linecap:square;stroke-width:0.8;"/>
     </g>
     <g id="line2d_32">
      <g>
       <use style="stroke:#000000;stroke-width:2;" x="56.6975" xlink:href="#m35c56f924f" y="115.567932"/>
      </g>
     </g>
    </g>
    <g id="ytick_5">
     <g id="line2d_33">
      <path clip-path="url(#p0b993edb62)" d="M 56.6975 76.401289 
L 413.8175 76.401289 
" style="fill:none;stroke:#b0b0b0;stroke-linecap:square;stroke-width:0.8;"/>
     </g>
     <g id="line2d_34">
      <g>
       <use style="stroke:#000000;stroke-width:2;" x="56.6975" xlink:href="#m35c56f924f" y="76.401289"/>
      </g>
     </g>
    </g>
    <g id="text_7">
     <!-- log10(aRT1/aRT0) or ~#succ -->
     <defs>
      <path d="M 44.390625 34.1875 
Q 47.5625 33.109375 50.5625 29.59375 
Q 53.5625 26.078125 56.59375 19.921875 
L 66.609375 0 
L 56 0 
L 46.6875 18.703125 
Q 43.0625 26.03125 39.671875 28.421875 
Q 36.28125 30.8125 30.421875 30.8125 
L 19.671875 30.8125 
L 19.671875 0 
L 9.8125 0 
L 9.8125 72.90625 
L 32.078125 72.90625 
Q 44.578125 72.90625 50.734375 67.671875 
Q 56.890625 62.453125 56.890625 51.90625 
Q 56.890625 45.015625 53.6875 40.46875 
Q 50.484375 35.9375 44.390625 34.1875 
M 19.671875 64.796875 
L 19.671875 38.921875 
L 32.078125 38.921875 
Q 39.203125 38.921875 42.84375 42.21875 
Q 46.484375 45.515625 46.484375 51.90625 
Q 46.484375 58.296875 42.84375 61.546875 
Q 39.203125 64.796875 32.078125 64.796875 
z
" id="DejaVuSans-52"/>
      <path d="M -0.296875 72.90625 
L 61.375 72.90625 
L 61.375 64.59375 
L 35.5 64.59375 
L 35.5 0 
L 25.59375 0 
L 25.59375 64.59375 
L -0.296875 64.59375 
z
" id="DejaVuSans-54"/>
      <path d="M 25.390625 72.90625 
L 33.6875 72.90625 
L 8.296875 -9.28125 
L 0 -9.28125 
z
" id="DejaVuSans-2f"/>
      <path d="M 73.1875 39.890625 
L 73.1875 31.203125 
Q 68.0625 27.34375 63.6875 25.6875 
Q 59.328125 24.03125 54.59375 24.03125 
Q 49.21875 24.03125 42.09375 26.90625 
Q 41.546875 27.09375 41.3125 27.203125 
Q 40.96875 27.34375 40.234375 27.59375 
Q 32.671875 30.609375 28.078125 30.609375 
Q 23.78125 30.609375 19.578125 28.734375 
Q 15.375 26.859375 10.59375 22.796875 
L 10.59375 31.5 
Q 15.71875 35.359375 20.09375 37.03125 
Q 24.46875 38.71875 29.203125 38.71875 
Q 34.578125 38.71875 41.75 35.796875 
Q 42.234375 35.59375 42.484375 35.5 
Q 42.875 35.359375 43.5625 35.109375 
Q 51.125 32.078125 55.71875 32.078125 
Q 59.90625 32.078125 64.03125 33.9375 
Q 68.171875 35.796875 73.1875 39.890625 
" id="DejaVuSans-7e"/>
      <path d="M 51.125 44 
L 36.921875 44 
L 32.8125 27.6875 
L 47.125 27.6875 
z
M 43.796875 71.78125 
L 38.71875 51.515625 
L 52.984375 51.515625 
L 58.109375 71.78125 
L 65.921875 71.78125 
L 60.890625 51.515625 
L 76.125 51.515625 
L 76.125 44 
L 58.984375 44 
L 54.984375 27.6875 
L 70.515625 27.6875 
L 70.515625 20.21875 
L 53.078125 20.21875 
L 48 0 
L 40.1875 0 
L 45.21875 20.21875 
L 30.90625 20.21875 
L 25.875 0 
L 18.015625 0 
L 23.09375 20.21875 
L 7.71875 20.21875 
L 7.71875 27.6875 
L 24.90625 27.6875 
L 29 44 
L 13.28125 44 
L 13.28125 51.515625 
L 30.90625 51.515625 
L 35.890625 71.78125 
z
" id="DejaVuSans-23"/>
      <path d="M 44.28125 53.078125 
L 44.28125 44.578125 
Q 40.484375 46.53125 36.375 47.5 
Q 32.28125 48.484375 27.875 48.484375 
Q 21.1875 48.484375 17.84375 46.4375 
Q 14.5 44.390625 14.5 40.28125 
Q 14.5 37.15625 16.890625 35.375 
Q 19.28125 33.59375 26.515625 31.984375 
L 29.59375 31.296875 
Q 39.15625 29.25 43.1875 25.515625 
Q 47.21875 21.78125 47.21875 15.09375 
Q 47.21875 7.46875 41.1875 3.015625 
Q 35.15625 -1.421875 24.609375 -1.421875 
Q 20.21875 -1.421875 15.453125 -0.5625 
Q 10.6875 0.296875 5.421875 2 
L 5.421875 11.28125 
Q 10.40625 8.6875 15.234375 7.390625 
Q 20.0625 6.109375 24.8125 6.109375 
Q 31.15625 6.109375 34.5625 8.28125 
Q 37.984375 10.453125 37.984375 14.40625 
Q 37.984375 18.0625 35.515625 20.015625 
Q 33.0625 21.96875 24.703125 23.78125 
L 21.578125 24.515625 
Q 13.234375 26.265625 9.515625 29.90625 
Q 5.8125 33.546875 5.8125 39.890625 
Q 5.8125 47.609375 11.28125 51.796875 
Q 16.75 56 26.8125 56 
Q 31.78125 56 36.171875 55.265625 
Q 40.578125 54.546875 44.28125 53.078125 
" id="DejaVuSans-73"/>
      <path d="M 8.5 21.578125 
L 8.5 54.6875 
L 17.484375 54.6875 
L 17.484375 21.921875 
Q 17.484375 14.15625 20.5 10.265625 
Q 23.53125 6.390625 29.59375 6.390625 
Q 36.859375 6.390625 41.078125 11.03125 
Q 45.3125 15.671875 45.3125 23.6875 
L 45.3125 54.6875 
L 54.296875 54.6875 
L 54.296875 0 
L 45.3125 0 
L 45.3125 8.40625 
Q 42.046875 3.421875 37.71875 1 
Q 33.40625 -1.421875 27.6875 -1.421875 
Q 18.265625 -1.421875 13.375 4.4375 
Q 8.5 10.296875 8.5 21.578125 
M 31.109375 56 
z
" id="DejaVuSans-75"/>
      <path d="M 48.78125 52.59375 
L 48.78125 44.1875 
Q 44.96875 46.296875 41.140625 47.34375 
Q 37.3125 48.390625 33.40625 48.390625 
Q 24.65625 48.390625 19.8125 42.84375 
Q 14.984375 37.3125 14.984375 27.296875 
Q 14.984375 17.28125 19.8125 11.734375 
Q 24.65625 6.203125 33.40625 6.203125 
Q 37.3125 6.203125 41.140625 7.25 
Q 44.96875 8.296875 48.78125 10.40625 
L 48.78125 2.09375 
Q 45.015625 0.34375 40.984375 -0.53125 
Q 36.96875 -1.421875 32.421875 -1.421875 
Q 20.0625 -1.421875 12.78125 6.34375 
Q 5.515625 14.109375 5.515625 27.296875 
Q 5.515625 40.671875 12.859375 48.328125 
Q 20.21875 56 33.015625 56 
Q 37.15625 56 41.109375 55.140625 
Q 45.0625 54.296875 48.78125 52.59375 
" id="DejaVuSans-63"/>
     </defs>
     <g transform="translate(25.43625 357.8475)rotate(-90)scale(0.24 -0.24)">
      <use xlink:href="#DejaVuSans-6c"/>
      <use x="27.783203" xlink:href="#DejaVuSans-6f"/>
      <use x="88.964844" xlink:href="#DejaVuSans-67"/>
      <use x="152.441406" xlink:href="#DejaVuSans-31"/>
      <use x="216.064453" xlink:href="#DejaVuSans-30"/>
      <use x="279.6875" xlink:href="#DejaVuSans-28"/>
      <use x="318.701172" xlink:href="#DejaVuSans-61"/>
      <use x="379.980469" xlink:href="#DejaVuSans-52"/>
      <use x="449.353516" xlink:href="#DejaVuSans-54"/>
      <use x="510.4375" xlink:href="#DejaVuSans-31"/>
      <use x="574.060547" xlink:href="#DejaVuSans-2f"/>
      <use x="607.751953" xlink:href="#DejaVuSans-61"/>
      <use x="669.03125" xlink:href="#DejaVuSans-52"/>
      <use x="738.404297" xlink:href="#DejaVuSans-54"/>
      <use x="799.488281" xlink:href="#DejaVuSans-30"/>
      <use x="863.111328" xlink:href="#DejaVuSans-29"/>
      <use x="902.125" xlink:href="#DejaVuSans-20"/>
      <use x="933.912109" xlink:href="#DejaVuSans-6f"/>
      <use x="995.09375" xlink:href="#DejaVuSans-72"/>
      <use x="1036.207031" xlink:href="#DejaVuSans-20"/>
      <use x="1067.994141" xlink:href="#DejaVuSans-7e"/>
      <use x="1151.783203" xlink:href="#DejaVuSans-23"/>
      <use x="1235.572266" xlink:href="#DejaVuSans-73"/>
      <use x="1287.671875" xlink:href="#DejaVuSans-75"/>
      <use x="1351.050781" xlink:href="#DejaVuSans-63"/>
      <use x="1406.03125" xlink:href="#DejaVuSans-63"/>
     </g>
    </g>
   </g>
   <g id="line2d_35">
    <path clip-path="url(#p0b993edb62)" d="M 69.683682 182.52375 
L 76.176773 179.551305 
L 82.669864 189.682345 
L 89.162955 190.928773 
L 95.656045 144.030258 
L 102.149136 189.812034 
L 108.642227 149.534389 
L 115.135318 183.338621 
L 121.628409 181.715519 
L 128.1215 192.691146 
L 134.614591 182.438485 
L 141.107682 182.545003 
L 147.600773 187.416984 
L 154.093864 181.118746 
L 160.586955 182.369765 
L 167.080045 182.595494 
L 173.573136 182.347073 
L 180.066227 181.381545 
L 186.559318 179.693244 
L 193.052409 184.106681 
L 199.5455 251.014252 
L 206.038591 182.391502 
L 212.531682 182.284445 
L 219.024773 182.247021 
L 225.517864 180.98049 
L 238.504045 181.001263 
L 244.997136 179.953099 
L 251.490227 114.891347 
" style="fill:none;stroke:#00bfbf;stroke-dasharray:5.6,2.4;stroke-dashoffset:0;stroke-width:1.5;"/>
   </g>
   <g id="line2d_36">
    <defs>
     <path d="M -6 0 
L 6 0 
M 0 6 
L 0 -6 
" id="m308ca881de" style="stroke:#00bfbf;"/>
    </defs>
    <g clip-path="url(#p0b993edb62)">
     <use style="fill:none;stroke:#00bfbf;" x="89.162955" xlink:href="#m308ca881de" y="190.928773"/>
     <use style="fill:none;stroke:#00bfbf;" x="102.149136" xlink:href="#m308ca881de" y="189.812034"/>
     <use style="fill:none;stroke:#00bfbf;" x="108.642227" xlink:href="#m308ca881de" y="149.534389"/>
     <use style="fill:none;stroke:#00bfbf;" x="180.066227" xlink:href="#m308ca881de" y="181.381545"/>
     <use style="fill:none;stroke:#00bfbf;" x="193.052409" xlink:href="#m308ca881de" y="184.106681"/>
     <use style="fill:none;stroke:#00bfbf;" x="199.5455" xlink:href="#m308ca881de" y="251.014252"/>
     <use style="fill:none;stroke:#00bfbf;" x="244.997136" xlink:href="#m308ca881de" y="179.953099"/>
     <use style="fill:none;stroke:#00bfbf;" x="251.490227" xlink:href="#m308ca881de" y="114.891347"/>
    </g>
   </g>
   <g id="line2d_37"/>
   <g id="line2d_38">
    <path clip-path="url(#p0b993edb62)" d="M 69.683682 182.52375 
L 76.176773 179.551305 
L 82.669864 189.682345 
L 89.162955 190.928773 
L 95.656045 144.030258 
L 102.149136 189.812034 
L 108.642227 149.534389 
L 115.135318 183.338621 
L 121.628409 181.715519 
L 128.1215 192.691146 
L 134.614591 182.438485 
L 141.107682 182.545003 
L 147.600773 187.416984 
" style="fill:none;stroke:#00bfbf;stroke-linecap:square;stroke-width:1.5;"/>
   </g>
   <g id="line2d_39">
    <g clip-path="url(#p0b993edb62)">
     <use style="fill:none;stroke:#00bfbf;" x="82.669864" xlink:href="#m308ca881de" y="189.682345"/>
     <use style="fill:none;stroke:#00bfbf;" x="95.656045" xlink:href="#m308ca881de" y="144.030258"/>
     <use style="fill:none;stroke:#00bfbf;" x="102.149136" xlink:href="#m308ca881de" y="189.812034"/>
     <use style="fill:none;stroke:#00bfbf;" x="121.628409" xlink:href="#m308ca881de" y="181.715519"/>
     <use style="fill:none;stroke:#00bfbf;" x="147.600773" xlink:href="#m308ca881de" y="187.416984"/>
    </g>
   </g>
   <g id="line2d_40">
    <path clip-path="url(#p0b993edb62)" d="M 76.176773 182.52375 
L 82.669864 185.099818 
L 89.162955 174.469351 
L 95.656045 136.738298 
L 102.149136 125.705511 
L 108.642227 203.321351 
L 115.135318 195.252351 
L 121.628409 191.538381 
L 128.1215 178.67294 
L 134.614591 180.233115 
L 141.107682 154.277404 
L 147.600773 182.950777 
L 154.093864 182.877339 
L 160.586955 183.576259 
" style="fill:none;stroke:#008000;stroke-dasharray:5.6,2.4;stroke-dashoffset:0;stroke-width:1.5;"/>
   </g>
   <g id="line2d_41">
    <defs>
     <path d="M -0 6 
L 6 -6 
L -6 -6 
z
" id="m98e7c5af99" style="stroke:#008000;stroke-linejoin:miter;"/>
    </defs>
    <g clip-path="url(#p0b993edb62)">
     <use style="fill:none;stroke:#008000;stroke-linejoin:miter;" x="89.162955" xlink:href="#m98e7c5af99" y="174.469351"/>
     <use style="fill:none;stroke:#008000;stroke-linejoin:miter;" x="95.656045" xlink:href="#m98e7c5af99" y="136.738298"/>
     <use style="fill:none;stroke:#008000;stroke-linejoin:miter;" x="108.642227" xlink:href="#m98e7c5af99" y="203.321351"/>
     <use style="fill:none;stroke:#008000;stroke-linejoin:miter;" x="134.614591" xlink:href="#m98e7c5af99" y="180.233115"/>
     <use style="fill:none;stroke:#008000;stroke-linejoin:miter;" x="160.586955" xlink:href="#m98e7c5af99" y="183.576259"/>
    </g>
   </g>
   <g id="line2d_42"/>
   <g id="line2d_43">
    <path clip-path="url(#p0b993edb62)" d="M 76.176773 182.52375 
L 82.669864 185.099818 
L 89.162955 174.469351 
L 95.656045 136.738298 
L 102.149136 125.705511 
L 108.642227 203.321351 
L 115.135318 195.252351 
L 121.628409 191.538381 
L 128.1215 178.67294 
L 134.614591 180.233115 
" style="fill:none;stroke:#008000;stroke-linecap:square;stroke-width:1.5;"/>
   </g>
   <g id="line2d_44">
    <g clip-path="url(#p0b993edb62)">
     <use style="fill:none;stroke:#008000;stroke-linejoin:miter;" x="95.656045" xlink:href="#m98e7c5af99" y="136.738298"/>
     <use style="fill:none;stroke:#008000;stroke-linejoin:miter;" x="102.149136" xlink:href="#m98e7c5af99" y="125.705511"/>
     <use style="fill:none;stroke:#008000;stroke-linejoin:miter;" x="128.1215" xlink:href="#m98e7c5af99" y="178.67294"/>
     <use style="fill:none;stroke:#008000;stroke-linejoin:miter;" x="134.614591" xlink:href="#m98e7c5af99" y="180.233115"/>
    </g>
   </g>
   <g id="line2d_45">
    <path clip-path="url(#p0b993edb62)" d="M 76.176773 182.52375 
L 82.669864 179.551305 
L 89.162955 180.814027 
L 95.656045 151.76213 
L 102.149136 59.065202 
L 108.642227 86.484415 
L 115.135318 205.872119 
L 121.628409 185.844327 
L 128.1215 183.20267 
L 134.614591 195.859659 
L 141.107682 164.742581 
L 147.600773 149.202921 
L 154.093864 162.686228 
L 160.586955 177.174769 
L 167.080045 220.188391 
L 173.573136 110.866607 
" style="fill:none;stroke:#0000ff;stroke-dasharray:5.6,2.4;stroke-dashoffset:0;stroke-width:1.5;"/>
   </g>
   <g id="line2d_46">
    <defs>
     <path d="M 0 -6 
L -1.347084 -1.854102 
L -5.706339 -1.854102 
L -2.179628 0.708204 
L -3.526712 4.854102 
L -0 2.291796 
L 3.526712 4.854102 
L 2.179628 0.708204 
L 5.706339 -1.854102 
L 1.347084 -1.854102 
z
" id="m90de35fa29" style="stroke:#0000ff;stroke-linejoin:bevel;"/>
    </defs>
    <g clip-path="url(#p0b993edb62)">
     <use style="fill:none;stroke:#0000ff;stroke-linejoin:bevel;" x="95.656045" xlink:href="#m90de35fa29" y="151.76213"/>
     <use style="fill:none;stroke:#0000ff;stroke-linejoin:bevel;" x="115.135318" xlink:href="#m90de35fa29" y="205.872119"/>
     <use style="fill:none;stroke:#0000ff;stroke-linejoin:bevel;" x="147.600773" xlink:href="#m90de35fa29" y="149.202921"/>
     <use style="fill:none;stroke:#0000ff;stroke-linejoin:bevel;" x="167.080045" xlink:href="#m90de35fa29" y="220.188391"/>
     <use style="fill:none;stroke:#0000ff;stroke-linejoin:bevel;" x="173.573136" xlink:href="#m90de35fa29" y="110.866607"/>
    </g>
   </g>
   <g id="line2d_47"/>
   <g id="line2d_48">
    <path clip-path="url(#p0b993edb62)" d="M 76.176773 182.52375 
L 82.669864 179.551305 
L 89.162955 180.814027 
L 95.656045 151.76213 
L 102.149136 59.065202 
L 108.642227 86.484415 
L 115.135318 205.872119 
L 121.628409 185.844327 
L 128.1215 183.20267 
L 134.614591 195.859659 
L 141.107682 164.742581 
" style="fill:none;stroke:#0000ff;stroke-linecap:square;stroke-width:1.5;"/>
   </g>
   <g id="line2d_49">
    <g clip-path="url(#p0b993edb62)">
     <use style="fill:none;stroke:#0000ff;stroke-linejoin:bevel;" x="102.149136" xlink:href="#m90de35fa29" y="59.065202"/>
     <use style="fill:none;stroke:#0000ff;stroke-linejoin:bevel;" x="108.642227" xlink:href="#m90de35fa29" y="86.484415"/>
     <use style="fill:none;stroke:#0000ff;stroke-linejoin:bevel;" x="134.614591" xlink:href="#m90de35fa29" y="195.859659"/>
     <use style="fill:none;stroke:#0000ff;stroke-linejoin:bevel;" x="141.107682" xlink:href="#m90de35fa29" y="164.742581"/>
    </g>
   </g>
   <g id="line2d_50">
    <path clip-path="url(#p0b993edb62)" d="M 82.669864 182.52375 
L 89.162955 171.146282 
L 95.656045 187.72991 
L 102.149136 114.241036 
L 108.642227 130.748825 
L 115.135318 186.207363 
L 121.628409 134.480507 
" style="fill:none;stroke:#000000;stroke-dasharray:5.6,2.4;stroke-dashoffset:0;stroke-width:1.5;"/>
   </g>
   <g id="line2d_51">
    <defs>
     <path d="M 0 6 
C 1.591219 6 3.117479 5.367802 4.242641 4.242641 
C 5.367802 3.117479 6 1.591219 6 0 
C 6 -1.591219 5.367802 -3.117479 4.242641 -4.242641 
C 3.117479 -5.367802 1.591219 -6 0 -6 
C -1.591219 -6 -3.117479 -5.367802 -4.242641 -4.242641 
C -5.367802 -3.117479 -6 -1.591219 -6 0 
C -6 1.591219 -5.367802 3.117479 -4.242641 4.242641 
C -3.117479 5.367802 -1.591219 6 0 6 
z
" id="mf2977be5c0" style="stroke:#000000;"/>
    </defs>
    <g clip-path="url(#p0b993edb62)">
     <use style="fill:none;stroke:#000000;" x="89.162955" xlink:href="#mf2977be5c0" y="171.146282"/>
     <use style="fill:none;stroke:#000000;" x="102.149136" xlink:href="#mf2977be5c0" y="114.241036"/>
     <use style="fill:none;stroke:#000000;" x="108.642227" xlink:href="#mf2977be5c0" y="130.748825"/>
     <use style="fill:none;stroke:#000000;" x="121.628409" xlink:href="#mf2977be5c0" y="134.480507"/>
    </g>
   </g>
   <g id="line2d_52"/>
   <g id="line2d_53">
    <path clip-path="url(#p0b993edb62)" d="M 82.669864 182.52375 
L 89.162955 171.146282 
L 95.656045 187.72991 
L 102.149136 114.241036 
L 108.642227 130.748825 
L 115.135318 186.207363 
" style="fill:none;stroke:#000000;stroke-linecap:square;stroke-width:1.5;"/>
   </g>
   <g id="line2d_54">
    <g clip-path="url(#p0b993edb62)">
     <use style="fill:none;stroke:#000000;" x="89.162955" xlink:href="#mf2977be5c0" y="171.146282"/>
     <use style="fill:none;stroke:#000000;" x="95.656045" xlink:href="#mf2977be5c0" y="187.72991"/>
     <use style="fill:none;stroke:#000000;" x="108.642227" xlink:href="#mf2977be5c0" y="130.748825"/>
     <use style="fill:none;stroke:#000000;" x="115.135318" xlink:href="#mf2977be5c0" y="186.207363"/>
    </g>
   </g>
   <g id="line2d_55">
    <path clip-path="url(#p0b993edb62)" d="M 89.162955 182.52375 
L 95.656045 174.322733 
L 102.149136 208.224457 
L 108.642227 155.058409 
L 115.135318 202.941459 
" style="fill:none;stroke:#ff0000;stroke-dasharray:5.6,2.4;stroke-dashoffset:0;stroke-width:1.5;"/>
   </g>
   <g id="line2d_56">
    <defs>
     <path d="M -6 6 
L 6 6 
L 6 -6 
L -6 -6 
z
" id="m1d79551491" style="stroke:#ff0000;stroke-linejoin:miter;"/>
    </defs>
    <g clip-path="url(#p0b993edb62)">
     <use style="fill:none;stroke:#ff0000;stroke-linejoin:miter;" x="102.149136" xlink:href="#m1d79551491" y="208.224457"/>
     <use style="fill:none;stroke:#ff0000;stroke-linejoin:miter;" x="108.642227" xlink:href="#m1d79551491" y="155.058409"/>
     <use style="fill:none;stroke:#ff0000;stroke-linejoin:miter;" x="115.135318" xlink:href="#m1d79551491" y="202.941459"/>
    </g>
   </g>
   <g id="line2d_57"/>
   <g id="line2d_58">
    <path clip-path="url(#p0b993edb62)" d="M 89.162955 182.52375 
L 95.656045 174.322733 
L 102.149136 208.224457 
L 108.642227 155.058409 
" style="fill:none;stroke:#ff0000;stroke-linecap:square;stroke-width:1.5;"/>
   </g>
   <g id="line2d_59">
    <g clip-path="url(#p0b993edb62)">
     <use style="fill:none;stroke:#ff0000;stroke-linejoin:miter;" x="95.656045" xlink:href="#m1d79551491" y="174.322733"/>
     <use style="fill:none;stroke:#ff0000;stroke-linejoin:miter;" x="102.149136" xlink:href="#m1d79551491" y="208.224457"/>
     <use style="fill:none;stroke:#ff0000;stroke-linejoin:miter;" x="108.642227" xlink:href="#m1d79551491" y="155.058409"/>
    </g>
   </g>
   <g id="line2d_60">
    <path clip-path="url(#p0b993edb62)" d="M 82.669864 182.52375 
L 89.162955 179.551305 
L 95.656045 182.964631 
L 102.149136 161.360624 
L 108.642227 107.246887 
" style="fill:none;stroke:#bf00bf;stroke-dasharray:5.6,2.4;stroke-dashoffset:0;stroke-width:1.5;"/>
   </g>
   <g id="line2d_61">
    <defs>
     <path d="M -0 8.485281 
L 8.485281 0 
L 0 -8.485281 
L -8.485281 -0 
z
" id="md912df7c88" style="stroke:#bf00bf;stroke-linejoin:miter;"/>
    </defs>
    <g clip-path="url(#p0b993edb62)">
     <use style="fill:none;stroke:#bf00bf;stroke-linejoin:miter;" x="95.656045" xlink:href="#md912df7c88" y="182.964631"/>
     <use style="fill:none;stroke:#bf00bf;stroke-linejoin:miter;" x="102.149136" xlink:href="#md912df7c88" y="161.360624"/>
     <use style="fill:none;stroke:#bf00bf;stroke-linejoin:miter;" x="108.642227" xlink:href="#md912df7c88" y="107.246887"/>
    </g>
   </g>
   <g id="line2d_62"/>
   <g id="line2d_63">
    <path clip-path="url(#p0b993edb62)" d="M 82.669864 182.52375 
L 89.162955 179.551305 
L 95.656045 182.964631 
L 102.149136 161.360624 
" style="fill:none;stroke:#bf00bf;stroke-linecap:square;stroke-width:1.5;"/>
   </g>
   <g id="line2d_64">
    <g clip-path="url(#p0b993edb62)">
     <use style="fill:none;stroke:#bf00bf;stroke-linejoin:miter;" x="95.656045" xlink:href="#md912df7c88" y="182.964631"/>
     <use style="fill:none;stroke:#bf00bf;stroke-linejoin:miter;" x="95.656045" xlink:href="#md912df7c88" y="182.964631"/>
     <use style="fill:none;stroke:#bf00bf;stroke-linejoin:miter;" x="102.149136" xlink:href="#md912df7c88" y="161.360624"/>
    </g>
   </g>
   <g id="line2d_65">
    <defs>
     <path d="M -0 11.313708 
L 11.313708 0 
L 0 -11.313708 
L -11.313708 -0 
z
" id="mfb20ffee15" style="stroke:#00bfbf;stroke-linejoin:miter;"/>
    </defs>
    <g clip-path="url(#p0b993edb62)">
     <use style="fill:#00bfbf;stroke:#00bfbf;stroke-linejoin:miter;" x="251.490227" xlink:href="#mfb20ffee15" y="114.891347"/>
    </g>
   </g>
   <g id="line2d_66">
    <path clip-path="url(#p0b993edb62)" d="M 251.490227 114.891347 
L 251.490227 180.30615 
" style="fill:none;stroke:#00bfbf;stroke-dasharray:5.6,2.4;stroke-dashoffset:0;stroke-width:1.5;"/>
   </g>
   <g id="line2d_67">
    <g clip-path="url(#p0b993edb62)">
     <use style="fill:#00bfbf;stroke:#00bfbf;stroke-linejoin:miter;" x="251.490227" xlink:href="#mfb20ffee15" y="180.30615"/>
    </g>
   </g>
   <g id="line2d_68">
    <path clip-path="url(#p0b993edb62)" d="M 251.490227 180.30615 
L 257.983318 180.30615 
L 270.9695 180.30615 
L 277.462591 180.30615 
L 283.955682 180.30615 
" style="fill:none;stroke:#00bfbf;stroke-dasharray:5.6,2.4;stroke-dashoffset:0;stroke-width:1.5;"/>
   </g>
   <g id="line2d_69">
    <g clip-path="url(#p0b993edb62)">
     <use style="fill:none;stroke:#00bfbf;" x="251.490227" xlink:href="#m308ca881de" y="180.30615"/>
     <use style="fill:none;stroke:#00bfbf;" x="270.9695" xlink:href="#m308ca881de" y="180.30615"/>
     <use style="fill:none;stroke:#00bfbf;" x="283.955682" xlink:href="#m308ca881de" y="180.30615"/>
    </g>
   </g>
   <g id="line2d_70">
    <defs>
     <path d="M -0 11.313708 
L 11.313708 0 
L 0 -11.313708 
L -11.313708 -0 
z
" id="mc13f76543d" style="stroke:#008000;stroke-linejoin:miter;"/>
    </defs>
    <g clip-path="url(#p0b993edb62)">
     <use style="fill:#008000;stroke:#008000;stroke-linejoin:miter;" x="160.586955" xlink:href="#mc13f76543d" y="183.576259"/>
    </g>
   </g>
   <g id="line2d_71">
    <defs>
     <path d="M -0 11.313708 
L 11.313708 0 
L 0 -11.313708 
L -11.313708 -0 
z
" id="maa878dfaa7" style="stroke:#0000ff;stroke-linejoin:miter;"/>
    </defs>
    <g clip-path="url(#p0b993edb62)">
     <use style="fill:#0000ff;stroke:#0000ff;stroke-linejoin:miter;" x="173.573136" xlink:href="#maa878dfaa7" y="110.866607"/>
    </g>
   </g>
   <g id="line2d_72">
    <defs>
     <path d="M -0 11.313708 
L 11.313708 0 
L 0 -11.313708 
L -11.313708 -0 
z
" id="m912f8b09d8" style="stroke:#000000;stroke-linejoin:miter;"/>
    </defs>
    <g clip-path="url(#p0b993edb62)">
     <use style="stroke:#000000;stroke-linejoin:miter;" x="121.628409" xlink:href="#m912f8b09d8" y="134.480507"/>
    </g>
   </g>
   <g id="line2d_73">
    <path clip-path="url(#p0b993edb62)" d="M 121.628409 134.480507 
L 121.628409 202.03863 
" style="fill:none;stroke:#000000;stroke-dasharray:5.6,2.4;stroke-dashoffset:0;stroke-width:1.5;"/>
   </g>
   <g id="line2d_74">
    <g clip-path="url(#p0b993edb62)">
     <use style="stroke:#000000;stroke-linejoin:miter;" x="121.628409" xlink:href="#m912f8b09d8" y="202.03863"/>
    </g>
   </g>
   <g id="line2d_75">
    <path clip-path="url(#p0b993edb62)" d="M 121.628409 202.03863 
L 128.1215 197.60343 
L 134.614591 184.29783 
" style="fill:none;stroke:#000000;stroke-dasharray:5.6,2.4;stroke-dashoffset:0;stroke-width:1.5;"/>
   </g>
   <g id="line2d_76">
    <g clip-path="url(#p0b993edb62)">
     <use style="fill:none;stroke:#000000;" x="121.628409" xlink:href="#mf2977be5c0" y="202.03863"/>
     <use style="fill:none;stroke:#000000;" x="128.1215" xlink:href="#mf2977be5c0" y="197.60343"/>
     <use style="fill:none;stroke:#000000;" x="134.614591" xlink:href="#mf2977be5c0" y="184.29783"/>
    </g>
   </g>
   <g id="line2d_77">
    <defs>
     <path d="M -0 11.313708 
L 11.313708 0 
L 0 -11.313708 
L -11.313708 -0 
z
" id="mdcf2bd3d4d" style="stroke:#ff0000;stroke-linejoin:miter;"/>
    </defs>
    <g clip-path="url(#p0b993edb62)">
     <use style="fill:#ff0000;stroke:#ff0000;stroke-linejoin:miter;" x="115.135318" xlink:href="#mdcf2bd3d4d" y="202.941459"/>
    </g>
   </g>
   <g id="line2d_78">
    <defs>
     <path d="M -0 11.313708 
L 11.313708 0 
L 0 -11.313708 
L -11.313708 -0 
z
" id="m2cffaf6c6d" style="stroke:#bf00bf;stroke-linejoin:miter;"/>
    </defs>
    <g clip-path="url(#p0b993edb62)">
     <use style="fill:#bf00bf;stroke:#bf00bf;stroke-linejoin:miter;" x="108.642227" xlink:href="#m2cffaf6c6d" y="107.246887"/>
    </g>
   </g>
   <g id="patch_3">
    <path d="M 56.6975 315.57975 
L 56.6975 49.46775 
" style="fill:none;stroke:#000000;stroke-linecap:square;stroke-linejoin:miter;stroke-width:0.8;"/>
   </g>
   <g id="patch_4">
    <path d="M 413.8175 315.57975 
L 413.8175 49.46775 
" style="fill:none;stroke:#000000;stroke-linecap:square;stroke-linejoin:miter;stroke-width:0.8;"/>
   </g>
   <g id="patch_5">
    <path d="M 56.6975 315.57975 
L 413.8175 315.57975 
" style="fill:none;stroke:#000000;stroke-linecap:square;stroke-linejoin:miter;stroke-width:0.8;"/>
   </g>
   <g id="patch_6">
    <path d="M 56.6975 49.46775 
L 413.8175 49.46775 
" style="fill:none;stroke:#000000;stroke-linecap:square;stroke-linejoin:miter;stroke-width:0.8;"/>
   </g>
   <g id="text_8">
    <!-- 2D -->
    <g transform="translate(283.955682 186.92865)scale(0.24 -0.24)">
     <use xlink:href="#DejaVuSans-32"/>
     <use x="63.623047" xlink:href="#DejaVuSans-44"/>
    </g>
   </g>
   <g id="text_9">
    <!-- 2/1 -->
    <g transform="translate(160.586955 190.198759)scale(0.24 -0.24)">
     <use xlink:href="#DejaVuSans-32"/>
     <use x="63.623047" xlink:href="#DejaVuSans-2f"/>
     <use x="97.314453" xlink:href="#DejaVuSans-31"/>
    </g>
   </g>
   <g id="text_10">
    <!-- 1/1 -->
    <g transform="translate(173.573136 117.489107)scale(0.24 -0.24)">
     <use xlink:href="#DejaVuSans-31"/>
     <use x="63.623047" xlink:href="#DejaVuSans-2f"/>
     <use x="97.314453" xlink:href="#DejaVuSans-31"/>
    </g>
   </g>
   <g id="text_11">
    <!-- 10D -->
    <g transform="translate(134.614591 190.92033)scale(0.24 -0.24)">
     <use xlink:href="#DejaVuSans-31"/>
     <use x="63.623047" xlink:href="#DejaVuSans-30"/>
     <use x="127.246094" xlink:href="#DejaVuSans-44"/>
    </g>
   </g>
   <g id="text_12">
    <!-- 5/2 -->
    <g transform="translate(115.135318 209.563959)scale(0.24 -0.24)">
     <use xlink:href="#DejaVuSans-35"/>
     <use x="63.623047" xlink:href="#DejaVuSans-2f"/>
     <use x="97.314453" xlink:href="#DejaVuSans-32"/>
    </g>
   </g>
   <g id="text_13">
    <!-- 2/2 -->
    <g transform="translate(108.642227 113.869387)scale(0.24 -0.24)">
     <use xlink:href="#DejaVuSans-32"/>
     <use x="63.623047" xlink:href="#DejaVuSans-2f"/>
     <use x="97.314453" xlink:href="#DejaVuSans-32"/>
    </g>
   </g>
   <g id="text_14">
    <!-- v2.1 -->
    <defs>
     <path d="M 2.984375 54.6875 
L 12.5 54.6875 
L 29.59375 8.796875 
L 46.6875 54.6875 
L 56.203125 54.6875 
L 35.6875 0 
L 23.484375 0 
z
" id="DejaVuSans-76"/>
     <path d="M 10.6875 12.40625 
L 21 12.40625 
L 21 0 
L 10.6875 0 
z
" id="DejaVuSans-2e"/>
    </defs>
    <g style="fill:#808080;" transform="translate(224.346563 310.838942)scale(0.1 -0.1)">
     <use xlink:href="#DejaVuSans-76"/>
     <use x="59.179688" xlink:href="#DejaVuSans-32"/>
     <use x="122.802734" xlink:href="#DejaVuSans-2e"/>
     <use x="154.589844" xlink:href="#DejaVuSans-31"/>
    </g>
   </g>
   <g id="text_15">
    <!-- 16 Weierstrass -->
    <defs>
     <path d="M 33.015625 40.375 
Q 26.375 40.375 22.484375 35.828125 
Q 18.609375 31.296875 18.609375 23.390625 
Q 18.609375 15.53125 22.484375 10.953125 
Q 26.375 6.390625 33.015625 6.390625 
Q 39.65625 6.390625 43.53125 10.953125 
Q 47.40625 15.53125 47.40625 23.390625 
Q 47.40625 31.296875 43.53125 35.828125 
Q 39.65625 40.375 33.015625 40.375 
M 52.59375 71.296875 
L 52.59375 62.3125 
Q 48.875 64.0625 45.09375 64.984375 
Q 41.3125 65.921875 37.59375 65.921875 
Q 27.828125 65.921875 22.671875 59.328125 
Q 17.53125 52.734375 16.796875 39.40625 
Q 19.671875 43.65625 24.015625 45.921875 
Q 28.375 48.1875 33.59375 48.1875 
Q 44.578125 48.1875 50.953125 41.515625 
Q 57.328125 34.859375 57.328125 23.390625 
Q 57.328125 12.15625 50.6875 5.359375 
Q 44.046875 -1.421875 33.015625 -1.421875 
Q 20.359375 -1.421875 13.671875 8.265625 
Q 6.984375 17.96875 6.984375 36.375 
Q 6.984375 53.65625 15.1875 63.9375 
Q 23.390625 74.21875 37.203125 74.21875 
Q 40.921875 74.21875 44.703125 73.484375 
Q 48.484375 72.75 52.59375 71.296875 
" id="DejaVuSans-36"/>
     <path d="M 3.328125 72.90625 
L 13.28125 72.90625 
L 28.609375 11.28125 
L 43.890625 72.90625 
L 54.984375 72.90625 
L 70.3125 11.28125 
L 85.59375 72.90625 
L 95.609375 72.90625 
L 77.296875 0 
L 64.890625 0 
L 49.515625 63.28125 
L 33.984375 0 
L 21.578125 0 
z
" id="DejaVuSans-57"/>
     <path d="M 9.421875 54.6875 
L 18.40625 54.6875 
L 18.40625 0 
L 9.421875 0 
z
M 9.421875 75.984375 
L 18.40625 75.984375 
L 18.40625 64.59375 
L 9.421875 64.59375 
z
" id="DejaVuSans-69"/>
    </defs>
    <g transform="translate(127.595 43.46775)scale(0.288 -0.288)">
     <use xlink:href="#DejaVuSans-31"/>
     <use x="63.623047" xlink:href="#DejaVuSans-36"/>
     <use x="127.246094" xlink:href="#DejaVuSans-20"/>
     <use x="159.033203" xlink:href="#DejaVuSans-57"/>
     <use x="257.832031" xlink:href="#DejaVuSans-65"/>
     <use x="319.355469" xlink:href="#DejaVuSans-69"/>
     <use x="347.138672" xlink:href="#DejaVuSans-65"/>
     <use x="408.662109" xlink:href="#DejaVuSans-72"/>
     <use x="449.775391" xlink:href="#DejaVuSans-73"/>
     <use x="501.875" xlink:href="#DejaVuSans-74"/>
     <use x="541.083984" xlink:href="#DejaVuSans-72"/>
     <use x="582.197266" xlink:href="#DejaVuSans-61"/>
     <use x="643.476562" xlink:href="#DejaVuSans-73"/>
     <use x="695.576172" xlink:href="#DejaVuSans-73"/>
    </g>
   </g>
  </g>
 </g>
 <defs>
  <clipPath id="p0b993edb62">
   <rect height="266.112" width="357.12" x="56.6975" y="49.46775"/>
  </clipPath>
 </defs>
</svg>
