<?xml version="1.0" encoding="utf-8" standalone="no"?>
<!DOCTYPE svg PUBLIC "-//W3C//DTD SVG 1.1//EN"
  "http://www.w3.org/Graphics/SVG/1.1/DTD/svg11.dtd">
<!-- Created with matplotlib (http://matplotlib.org/) -->
<svg height="333pt" version="1.1" viewBox="0 0 405 333" width="405pt" xmlns="http://www.w3.org/2000/svg" xmlns:xlink="http://www.w3.org/1999/xlink">
 <defs>
  <style type="text/css">
*{stroke-linecap:butt;stroke-linejoin:round;}
  </style>
 </defs>
 <g id="figure_1">
  <g id="patch_1">
   <path d="M 0 333.7245 
L 405.37625 333.7245 
L 405.37625 0 
L 0 0 
z
" style="fill:#ffffff;"/>
  </g>
  <g id="axes_1">
   <g id="patch_2">
    <path d="M 37.55625 276.812 
L 394.67625 276.812 
L 394.67625 10.7 
L 37.55625 10.7 
z
" style="fill:#ffffff;"/>
   </g>
   <g id="matplotlib.axis_1">
    <g id="xtick_1">
     <g id="line2d_1">
      <path clip-path="url(#pf38e36ed1a)" d="M 88.406554 276.812 
L 88.406554 10.7 
" style="fill:none;stroke:#b0b0b0;stroke-linecap:square;stroke-width:0.8;"/>
     </g>
     <g id="line2d_2">
      <defs>
       <path d="M 0 0 
L 0 3.5 
" id="m8593124d33" style="stroke:#000000;stroke-width:0.8;"/>
      </defs>
      <g>
       <use style="stroke:#000000;stroke-width:0.8;" x="88.406554" xlink:href="#m8593124d33" y="276.812"/>
      </g>
     </g>
     <g id="text_1">
      <!-- -3 -->
      <defs>
       <path d="M 4.890625 31.390625 
L 31.203125 31.390625 
L 31.203125 23.390625 
L 4.890625 23.390625 
z
" id="DejaVuSans-2d"/>
       <path d="M 40.578125 39.3125 
Q 47.65625 37.796875 51.625 33 
Q 55.609375 28.21875 55.609375 21.1875 
Q 55.609375 10.40625 48.1875 4.484375 
Q 40.765625 -1.421875 27.09375 -1.421875 
Q 22.515625 -1.421875 17.65625 -0.515625 
Q 12.796875 0.390625 7.625 2.203125 
L 7.625 11.71875 
Q 11.71875 9.328125 16.59375 8.109375 
Q 21.484375 6.890625 26.8125 6.890625 
Q 36.078125 6.890625 40.9375 10.546875 
Q 45.796875 14.203125 45.796875 21.1875 
Q 45.796875 27.640625 41.28125 31.265625 
Q 36.765625 34.90625 28.71875 34.90625 
L 20.21875 34.90625 
L 20.21875 43.015625 
L 29.109375 43.015625 
Q 36.375 43.015625 40.234375 45.921875 
Q 44.09375 48.828125 44.09375 54.296875 
Q 44.09375 59.90625 40.109375 62.90625 
Q 36.140625 65.921875 28.71875 65.921875 
Q 24.65625 65.921875 20.015625 65.03125 
Q 15.375 64.15625 9.8125 62.3125 
L 9.8125 71.09375 
Q 15.4375 72.65625 20.34375 73.4375 
Q 25.25 74.21875 29.59375 74.21875 
Q 40.828125 74.21875 47.359375 69.109375 
Q 53.90625 64.015625 53.90625 55.328125 
Q 53.90625 49.265625 50.4375 45.09375 
Q 46.96875 40.921875 40.578125 39.3125 
" id="DejaVuSans-33"/>
      </defs>
      <g transform="translate(78.436241 299.008875)scale(0.2 -0.2)">
       <use xlink:href="#DejaVuSans-2d"/>
       <use x="36.083984" xlink:href="#DejaVuSans-33"/>
      </g>
     </g>
    </g>
    <g id="xtick_2">
     <g id="line2d_3">
      <path clip-path="url(#pf38e36ed1a)" d="M 173.546351 276.812 
L 173.546351 10.7 
" style="fill:none;stroke:#b0b0b0;stroke-linecap:square;stroke-width:0.8;"/>
     </g>
     <g id="line2d_4">
      <g>
       <use style="stroke:#000000;stroke-width:0.8;" x="173.546351" xlink:href="#m8593124d33" y="276.812"/>
      </g>
     </g>
     <g id="text_2">
      <!-- -1 -->
      <defs>
       <path d="M 12.40625 8.296875 
L 28.515625 8.296875 
L 28.515625 63.921875 
L 10.984375 60.40625 
L 10.984375 69.390625 
L 28.421875 72.90625 
L 38.28125 72.90625 
L 38.28125 8.296875 
L 54.390625 8.296875 
L 54.390625 0 
L 12.40625 0 
z
" id="DejaVuSans-31"/>
      </defs>
      <g transform="translate(163.576039 299.008875)scale(0.2 -0.2)">
       <use xlink:href="#DejaVuSans-2d"/>
       <use x="36.083984" xlink:href="#DejaVuSans-31"/>
      </g>
     </g>
    </g>
    <g id="xtick_3">
     <g id="line2d_5">
      <path clip-path="url(#pf38e36ed1a)" d="M 258.686149 276.812 
L 258.686149 10.7 
" style="fill:none;stroke:#b0b0b0;stroke-linecap:square;stroke-width:0.8;"/>
     </g>
     <g id="line2d_6">
      <g>
       <use style="stroke:#000000;stroke-width:0.8;" x="258.686149" xlink:href="#m8593124d33" y="276.812"/>
      </g>
     </g>
     <g id="text_3">
      <!-- 1 -->
      <g transform="translate(252.323649 299.008875)scale(0.2 -0.2)">
       <use xlink:href="#DejaVuSans-31"/>
      </g>
     </g>
    </g>
    <g id="xtick_4">
     <g id="line2d_7">
      <path clip-path="url(#pf38e36ed1a)" d="M 343.825946 276.812 
L 343.825946 10.7 
" style="fill:none;stroke:#b0b0b0;stroke-linecap:square;stroke-width:0.8;"/>
     </g>
     <g id="line2d_8">
      <g>
       <use style="stroke:#000000;stroke-width:0.8;" x="343.825946" xlink:href="#m8593124d33" y="276.812"/>
      </g>
     </g>
     <g id="text_4">
      <!-- 3 -->
      <g transform="translate(337.463446 299.008875)scale(0.2 -0.2)">
       <use xlink:href="#DejaVuSans-33"/>
      </g>
     </g>
    </g>
    <g id="xtick_5">
     <g id="line2d_9">
      <defs>
       <path d="M 0 0 
L 0 2 
" id="m703f9d50aa" style="stroke:#000000;stroke-width:0.6;"/>
      </defs>
      <g>
       <use style="stroke:#000000;stroke-width:0.6;" x="92.532003" xlink:href="#m703f9d50aa" y="276.812"/>
      </g>
     </g>
     <g id="text_5">
      <!-- ${1.25\times10^{-3}}$ -->
      <defs>
       <path d="M 10.6875 12.40625 
L 21 12.40625 
L 21 0 
L 10.6875 0 
z
" id="DejaVuSans-2e"/>
       <path d="M 19.1875 8.296875 
L 53.609375 8.296875 
L 53.609375 0 
L 7.328125 0 
L 7.328125 8.296875 
Q 12.9375 14.109375 22.625 23.890625 
Q 32.328125 33.6875 34.8125 36.53125 
Q 39.546875 41.84375 41.421875 45.53125 
Q 43.3125 49.21875 43.3125 52.78125 
Q 43.3125 58.59375 39.234375 62.25 
Q 35.15625 65.921875 28.609375 65.921875 
Q 23.96875 65.921875 18.8125 64.3125 
Q 13.671875 62.703125 7.8125 59.421875 
L 7.8125 69.390625 
Q 13.765625 71.78125 18.9375 73 
Q 24.125 74.21875 28.421875 74.21875 
Q 39.75 74.21875 46.484375 68.546875 
Q 53.21875 62.890625 53.21875 53.421875 
Q 53.21875 48.921875 51.53125 44.890625 
Q 49.859375 40.875 45.40625 35.40625 
Q 44.1875 33.984375 37.640625 27.21875 
Q 31.109375 20.453125 19.1875 8.296875 
" id="DejaVuSans-32"/>
       <path d="M 10.796875 72.90625 
L 49.515625 72.90625 
L 49.515625 64.59375 
L 19.828125 64.59375 
L 19.828125 46.734375 
Q 21.96875 47.46875 24.109375 47.828125 
Q 26.265625 48.1875 28.421875 48.1875 
Q 40.625 48.1875 47.75 41.5 
Q 54.890625 34.8125 54.890625 23.390625 
Q 54.890625 11.625 47.5625 5.09375 
Q 40.234375 -1.421875 26.90625 -1.421875 
Q 22.3125 -1.421875 17.546875 -0.640625 
Q 12.796875 0.140625 7.71875 1.703125 
L 7.71875 11.625 
Q 12.109375 9.234375 16.796875 8.0625 
Q 21.484375 6.890625 26.703125 6.890625 
Q 35.15625 6.890625 40.078125 11.328125 
Q 45.015625 15.765625 45.015625 23.390625 
Q 45.015625 31 40.078125 35.4375 
Q 35.15625 39.890625 26.703125 39.890625 
Q 22.75 39.890625 18.8125 39.015625 
Q 14.890625 38.140625 10.796875 36.28125 
z
" id="DejaVuSans-35"/>
       <path d="M 70.125 53.71875 
L 47.796875 31.296875 
L 70.125 8.984375 
L 64.3125 3.078125 
L 41.890625 25.484375 
L 19.484375 3.078125 
L 13.71875 8.984375 
L 35.984375 31.296875 
L 13.71875 53.71875 
L 19.484375 59.625 
L 41.890625 37.203125 
L 64.3125 59.625 
z
" id="DejaVuSans-d7"/>
       <path d="M 31.78125 66.40625 
Q 24.171875 66.40625 20.328125 58.90625 
Q 16.5 51.421875 16.5 36.375 
Q 16.5 21.390625 20.328125 13.890625 
Q 24.171875 6.390625 31.78125 6.390625 
Q 39.453125 6.390625 43.28125 13.890625 
Q 47.125 21.390625 47.125 36.375 
Q 47.125 51.421875 43.28125 58.90625 
Q 39.453125 66.40625 31.78125 66.40625 
M 31.78125 74.21875 
Q 44.046875 74.21875 50.515625 64.515625 
Q 56.984375 54.828125 56.984375 36.375 
Q 56.984375 17.96875 50.515625 8.265625 
Q 44.046875 -1.421875 31.78125 -1.421875 
Q 19.53125 -1.421875 13.0625 8.265625 
Q 6.59375 17.96875 6.59375 36.375 
Q 6.59375 54.828125 13.0625 64.515625 
Q 19.53125 74.21875 31.78125 74.21875 
" id="DejaVuSans-30"/>
       <path d="M 10.59375 35.5 
L 73.1875 35.5 
L 73.1875 27.203125 
L 10.59375 27.203125 
z
" id="DejaVuSans-2212"/>
      </defs>
      <g transform="translate(34.532003 297.408875)scale(0.2 -0.2)">
       <use transform="translate(0 0.765625)" xlink:href="#DejaVuSans-31"/>
       <use transform="translate(63.623047 0.765625)" xlink:href="#DejaVuSans-2e"/>
       <use transform="translate(95.332031 0.765625)" xlink:href="#DejaVuSans-32"/>
       <use transform="translate(158.955078 0.765625)" xlink:href="#DejaVuSans-35"/>
       <use transform="translate(242.060547 0.765625)" xlink:href="#DejaVuSans-d7"/>
       <use transform="translate(345.332031 0.765625)" xlink:href="#DejaVuSans-31"/>
       <use transform="translate(408.955078 0.765625)" xlink:href="#DejaVuSans-30"/>
       <use transform="translate(473.535156 39.046875)scale(0.7)" xlink:href="#DejaVuSans-2212"/>
       <use transform="translate(532.1875 39.046875)scale(0.7)" xlink:href="#DejaVuSans-33"/>
      </g>
     </g>
    </g>
    <g id="xtick_6">
     <g id="line2d_10">
      <g>
       <use style="stroke:#000000;stroke-width:0.6;" x="97.850633" xlink:href="#m703f9d50aa" y="276.812"/>
      </g>
     </g>
    </g>
    <g id="xtick_7">
     <g id="line2d_11">
      <g>
       <use style="stroke:#000000;stroke-width:0.6;" x="105.34682" xlink:href="#m703f9d50aa" y="276.812"/>
      </g>
     </g>
    </g>
    <g id="xtick_8">
     <g id="line2d_12">
      <g>
       <use style="stroke:#000000;stroke-width:0.6;" x="118.161636" xlink:href="#m703f9d50aa" y="276.812"/>
      </g>
     </g>
    </g>
    <g id="xtick_9">
     <g id="line2d_13">
      <g>
       <use style="stroke:#000000;stroke-width:0.6;" x="177.671801" xlink:href="#m703f9d50aa" y="276.812"/>
      </g>
     </g>
     <g id="text_6">
      <!-- ${1.25\times10^{-1}}$ -->
      <g transform="translate(119.671801 297.408875)scale(0.2 -0.2)">
       <use transform="translate(0 0.684375)" xlink:href="#DejaVuSans-31"/>
       <use transform="translate(63.623047 0.684375)" xlink:href="#DejaVuSans-2e"/>
       <use transform="translate(95.332031 0.684375)" xlink:href="#DejaVuSans-32"/>
       <use transform="translate(158.955078 0.684375)" xlink:href="#DejaVuSans-35"/>
       <use transform="translate(242.060547 0.684375)" xlink:href="#DejaVuSans-d7"/>
       <use transform="translate(345.332031 0.684375)" xlink:href="#DejaVuSans-31"/>
       <use transform="translate(408.955078 0.684375)" xlink:href="#DejaVuSans-30"/>
       <use transform="translate(473.535156 38.965625)scale(0.7)" xlink:href="#DejaVuSans-2212"/>
       <use transform="translate(532.1875 38.965625)scale(0.7)" xlink:href="#DejaVuSans-31"/>
      </g>
     </g>
    </g>
    <g id="xtick_10">
     <g id="line2d_14">
      <g>
       <use style="stroke:#000000;stroke-width:0.6;" x="182.99043" xlink:href="#m703f9d50aa" y="276.812"/>
      </g>
     </g>
    </g>
    <g id="xtick_11">
     <g id="line2d_15">
      <g>
       <use style="stroke:#000000;stroke-width:0.6;" x="190.486617" xlink:href="#m703f9d50aa" y="276.812"/>
      </g>
     </g>
    </g>
    <g id="xtick_12">
     <g id="line2d_16">
      <g>
       <use style="stroke:#000000;stroke-width:0.6;" x="203.301434" xlink:href="#m703f9d50aa" y="276.812"/>
      </g>
     </g>
    </g>
    <g id="xtick_13">
     <g id="line2d_17">
      <g>
       <use style="stroke:#000000;stroke-width:0.6;" x="271.500965" xlink:href="#m703f9d50aa" y="276.812"/>
      </g>
     </g>
    </g>
    <g id="xtick_14">
     <g id="line2d_18">
      <g>
       <use style="stroke:#000000;stroke-width:0.6;" x="284.315782" xlink:href="#m703f9d50aa" y="276.812"/>
      </g>
     </g>
    </g>
    <g id="xtick_15">
     <g id="line2d_19">
      <g>
       <use style="stroke:#000000;stroke-width:0.6;" x="291.811969" xlink:href="#m703f9d50aa" y="276.812"/>
      </g>
     </g>
    </g>
    <g id="xtick_16">
     <g id="line2d_20">
      <g>
       <use style="stroke:#000000;stroke-width:0.6;" x="297.130598" xlink:href="#m703f9d50aa" y="276.812"/>
      </g>
     </g>
    </g>
    <g id="xtick_17">
     <g id="line2d_21">
      <g>
       <use style="stroke:#000000;stroke-width:0.6;" x="356.640763" xlink:href="#m703f9d50aa" y="276.812"/>
      </g>
     </g>
    </g>
    <g id="xtick_18">
     <g id="line2d_22">
      <g>
       <use style="stroke:#000000;stroke-width:0.6;" x="369.455579" xlink:href="#m703f9d50aa" y="276.812"/>
      </g>
     </g>
    </g>
    <g id="xtick_19">
     <g id="line2d_23">
      <g>
       <use style="stroke:#000000;stroke-width:0.6;" x="376.951766" xlink:href="#m703f9d50aa" y="276.812"/>
      </g>
     </g>
    </g>
    <g id="xtick_20">
     <g id="line2d_24">
      <g>
       <use style="stroke:#000000;stroke-width:0.6;" x="382.270395" xlink:href="#m703f9d50aa" y="276.812"/>
      </g>
     </g>
    </g>
    <g id="text_7">
     <!-- log10 of FEvals ratio -->
     <defs>
      <path d="M 9.421875 75.984375 
L 18.40625 75.984375 
L 18.40625 0 
L 9.421875 0 
z
" id="DejaVuSans-6c"/>
      <path d="M 30.609375 48.390625 
Q 23.390625 48.390625 19.1875 42.75 
Q 14.984375 37.109375 14.984375 27.296875 
Q 14.984375 17.484375 19.15625 11.84375 
Q 23.34375 6.203125 30.609375 6.203125 
Q 37.796875 6.203125 41.984375 11.859375 
Q 46.1875 17.53125 46.1875 27.296875 
Q 46.1875 37.015625 41.984375 42.703125 
Q 37.796875 48.390625 30.609375 48.390625 
M 30.609375 56 
Q 42.328125 56 49.015625 48.375 
Q 55.71875 40.765625 55.71875 27.296875 
Q 55.71875 13.875 49.015625 6.21875 
Q 42.328125 -1.421875 30.609375 -1.421875 
Q 18.84375 -1.421875 12.171875 6.21875 
Q 5.515625 13.875 5.515625 27.296875 
Q 5.515625 40.765625 12.171875 48.375 
Q 18.84375 56 30.609375 56 
" id="DejaVuSans-6f"/>
      <path d="M 45.40625 27.984375 
Q 45.40625 37.75 41.375 43.109375 
Q 37.359375 48.484375 30.078125 48.484375 
Q 22.859375 48.484375 18.828125 43.109375 
Q 14.796875 37.75 14.796875 27.984375 
Q 14.796875 18.265625 18.828125 12.890625 
Q 22.859375 7.515625 30.078125 7.515625 
Q 37.359375 7.515625 41.375 12.890625 
Q 45.40625 18.265625 45.40625 27.984375 
M 54.390625 6.78125 
Q 54.390625 -7.171875 48.1875 -13.984375 
Q 42 -20.796875 29.203125 -20.796875 
Q 24.46875 -20.796875 20.265625 -20.09375 
Q 16.0625 -19.390625 12.109375 -17.921875 
L 12.109375 -9.1875 
Q 16.0625 -11.328125 19.921875 -12.34375 
Q 23.78125 -13.375 27.78125 -13.375 
Q 36.625 -13.375 41.015625 -8.765625 
Q 45.40625 -4.15625 45.40625 5.171875 
L 45.40625 9.625 
Q 42.625 4.78125 38.28125 2.390625 
Q 33.9375 0 27.875 0 
Q 17.828125 0 11.671875 7.65625 
Q 5.515625 15.328125 5.515625 27.984375 
Q 5.515625 40.671875 11.671875 48.328125 
Q 17.828125 56 27.875 56 
Q 33.9375 56 38.28125 53.609375 
Q 42.625 51.21875 45.40625 46.390625 
L 45.40625 54.6875 
L 54.390625 54.6875 
z
" id="DejaVuSans-67"/>
      <path id="DejaVuSans-20"/>
      <path d="M 37.109375 75.984375 
L 37.109375 68.5 
L 28.515625 68.5 
Q 23.6875 68.5 21.796875 66.546875 
Q 19.921875 64.59375 19.921875 59.515625 
L 19.921875 54.6875 
L 34.71875 54.6875 
L 34.71875 47.703125 
L 19.921875 47.703125 
L 19.921875 0 
L 10.890625 0 
L 10.890625 47.703125 
L 2.296875 47.703125 
L 2.296875 54.6875 
L 10.890625 54.6875 
L 10.890625 58.5 
Q 10.890625 67.625 15.140625 71.796875 
Q 19.390625 75.984375 28.609375 75.984375 
z
" id="DejaVuSans-66"/>
      <path d="M 9.8125 72.90625 
L 51.703125 72.90625 
L 51.703125 64.59375 
L 19.671875 64.59375 
L 19.671875 43.109375 
L 48.578125 43.109375 
L 48.578125 34.8125 
L 19.671875 34.8125 
L 19.671875 0 
L 9.8125 0 
z
" id="DejaVuSans-46"/>
      <path d="M 9.8125 72.90625 
L 55.90625 72.90625 
L 55.90625 64.59375 
L 19.671875 64.59375 
L 19.671875 43.015625 
L 54.390625 43.015625 
L 54.390625 34.71875 
L 19.671875 34.71875 
L 19.671875 8.296875 
L 56.78125 8.296875 
L 56.78125 0 
L 9.8125 0 
z
" id="DejaVuSans-45"/>
      <path d="M 2.984375 54.6875 
L 12.5 54.6875 
L 29.59375 8.796875 
L 46.6875 54.6875 
L 56.203125 54.6875 
L 35.6875 0 
L 23.484375 0 
z
" id="DejaVuSans-76"/>
      <path d="M 34.28125 27.484375 
Q 23.390625 27.484375 19.1875 25 
Q 14.984375 22.515625 14.984375 16.5 
Q 14.984375 11.71875 18.140625 8.90625 
Q 21.296875 6.109375 26.703125 6.109375 
Q 34.1875 6.109375 38.703125 11.40625 
Q 43.21875 16.703125 43.21875 25.484375 
L 43.21875 27.484375 
z
M 52.203125 31.203125 
L 52.203125 0 
L 43.21875 0 
L 43.21875 8.296875 
Q 40.140625 3.328125 35.546875 0.953125 
Q 30.953125 -1.421875 24.3125 -1.421875 
Q 15.921875 -1.421875 10.953125 3.296875 
Q 6 8.015625 6 15.921875 
Q 6 25.140625 12.171875 29.828125 
Q 18.359375 34.515625 30.609375 34.515625 
L 43.21875 34.515625 
L 43.21875 35.40625 
Q 43.21875 41.609375 39.140625 45 
Q 35.0625 48.390625 27.6875 48.390625 
Q 23 48.390625 18.546875 47.265625 
Q 14.109375 46.140625 10.015625 43.890625 
L 10.015625 52.203125 
Q 14.9375 54.109375 19.578125 55.046875 
Q 24.21875 56 28.609375 56 
Q 40.484375 56 46.34375 49.84375 
Q 52.203125 43.703125 52.203125 31.203125 
" id="DejaVuSans-61"/>
      <path d="M 44.28125 53.078125 
L 44.28125 44.578125 
Q 40.484375 46.53125 36.375 47.5 
Q 32.28125 48.484375 27.875 48.484375 
Q 21.1875 48.484375 17.84375 46.4375 
Q 14.5 44.390625 14.5 40.28125 
Q 14.5 37.15625 16.890625 35.375 
Q 19.28125 33.59375 26.515625 31.984375 
L 29.59375 31.296875 
Q 39.15625 29.25 43.1875 25.515625 
Q 47.21875 21.78125 47.21875 15.09375 
Q 47.21875 7.46875 41.1875 3.015625 
Q 35.15625 -1.421875 24.609375 -1.421875 
Q 20.21875 -1.421875 15.453125 -0.5625 
Q 10.6875 0.296875 5.421875 2 
L 5.421875 11.28125 
Q 10.40625 8.6875 15.234375 7.390625 
Q 20.0625 6.109375 24.8125 6.109375 
Q 31.15625 6.109375 34.5625 8.28125 
Q 37.984375 10.453125 37.984375 14.40625 
Q 37.984375 18.0625 35.515625 20.015625 
Q 33.0625 21.96875 24.703125 23.78125 
L 21.578125 24.515625 
Q 13.234375 26.265625 9.515625 29.90625 
Q 5.8125 33.546875 5.8125 39.890625 
Q 5.8125 47.609375 11.28125 51.796875 
Q 16.75 56 26.8125 56 
Q 31.78125 56 36.171875 55.265625 
Q 40.578125 54.546875 44.28125 53.078125 
" id="DejaVuSans-73"/>
      <path d="M 41.109375 46.296875 
Q 39.59375 47.171875 37.8125 47.578125 
Q 36.03125 48 33.890625 48 
Q 26.265625 48 22.1875 43.046875 
Q 18.109375 38.09375 18.109375 28.8125 
L 18.109375 0 
L 9.078125 0 
L 9.078125 54.6875 
L 18.109375 54.6875 
L 18.109375 46.1875 
Q 20.953125 51.171875 25.484375 53.578125 
Q 30.03125 56 36.53125 56 
Q 37.453125 56 38.578125 55.875 
Q 39.703125 55.765625 41.0625 55.515625 
z
" id="DejaVuSans-72"/>
      <path d="M 18.3125 70.21875 
L 18.3125 54.6875 
L 36.8125 54.6875 
L 36.8125 47.703125 
L 18.3125 47.703125 
L 18.3125 18.015625 
Q 18.3125 11.328125 20.140625 9.421875 
Q 21.96875 7.515625 27.59375 7.515625 
L 36.8125 7.515625 
L 36.8125 0 
L 27.59375 0 
Q 17.1875 0 13.234375 3.875 
Q 9.28125 7.765625 9.28125 18.015625 
L 9.28125 47.703125 
L 2.6875 47.703125 
L 2.6875 54.6875 
L 9.28125 54.6875 
L 9.28125 70.21875 
z
" id="DejaVuSans-74"/>
      <path d="M 9.421875 54.6875 
L 18.40625 54.6875 
L 18.40625 0 
L 9.421875 0 
z
M 9.421875 75.984375 
L 18.40625 75.984375 
L 18.40625 64.59375 
L 9.421875 64.59375 
z
" id="DejaVuSans-69"/>
     </defs>
     <g transform="translate(113.811563 322.365125)scale(0.2 -0.2)">
      <use xlink:href="#DejaVuSans-6c"/>
      <use x="27.783203" xlink:href="#DejaVuSans-6f"/>
      <use x="88.964844" xlink:href="#DejaVuSans-67"/>
      <use x="152.441406" xlink:href="#DejaVuSans-31"/>
      <use x="216.064453" xlink:href="#DejaVuSans-30"/>
      <use x="279.6875" xlink:href="#DejaVuSans-20"/>
      <use x="311.474609" xlink:href="#DejaVuSans-6f"/>
      <use x="372.65625" xlink:href="#DejaVuSans-66"/>
      <use x="407.861328" xlink:href="#DejaVuSans-20"/>
      <use x="439.648438" xlink:href="#DejaVuSans-46"/>
      <use x="497.167969" xlink:href="#DejaVuSans-45"/>
      <use x="560.351562" xlink:href="#DejaVuSans-76"/>
      <use x="619.53125" xlink:href="#DejaVuSans-61"/>
      <use x="680.810547" xlink:href="#DejaVuSans-6c"/>
      <use x="708.59375" xlink:href="#DejaVuSans-73"/>
      <use x="760.693359" xlink:href="#DejaVuSans-20"/>
      <use x="792.480469" xlink:href="#DejaVuSans-72"/>
      <use x="833.59375" xlink:href="#DejaVuSans-61"/>
      <use x="894.873047" xlink:href="#DejaVuSans-74"/>
      <use x="934.082031" xlink:href="#DejaVuSans-69"/>
      <use x="961.865234" xlink:href="#DejaVuSans-6f"/>
     </g>
    </g>
   </g>
   <g id="matplotlib.axis_2">
    <g id="ytick_1">
     <g id="line2d_25">
      <path clip-path="url(#pf38e36ed1a)" d="M 37.55625 274.203059 
L 394.67625 274.203059 
" style="fill:none;stroke:#b0b0b0;stroke-linecap:square;stroke-width:0.8;"/>
     </g>
     <g id="line2d_26">
      <defs>
       <path d="M 0 0 
L -3.5 0 
" id="m6fcbe82823" style="stroke:#000000;stroke-width:0.8;"/>
      </defs>
      <g>
       <use style="stroke:#000000;stroke-width:0.8;" x="37.55625" xlink:href="#m6fcbe82823" y="274.203059"/>
      </g>
     </g>
    </g>
    <g id="ytick_2">
     <g id="line2d_27">
      <path clip-path="url(#pf38e36ed1a)" d="M 37.55625 208.979529 
L 394.67625 208.979529 
" style="fill:none;stroke:#b0b0b0;stroke-linecap:square;stroke-width:0.8;"/>
     </g>
     <g id="line2d_28">
      <g>
       <use style="stroke:#000000;stroke-width:0.8;" x="37.55625" xlink:href="#m6fcbe82823" y="208.979529"/>
      </g>
     </g>
    </g>
    <g id="ytick_3">
     <g id="line2d_29">
      <path clip-path="url(#pf38e36ed1a)" d="M 37.55625 143.756 
L 394.67625 143.756 
" style="fill:none;stroke:#b0b0b0;stroke-linecap:square;stroke-width:0.8;"/>
     </g>
     <g id="line2d_30">
      <g>
       <use style="stroke:#000000;stroke-width:0.8;" x="37.55625" xlink:href="#m6fcbe82823" y="143.756"/>
      </g>
     </g>
    </g>
    <g id="ytick_4">
     <g id="line2d_31">
      <path clip-path="url(#pf38e36ed1a)" d="M 37.55625 78.532471 
L 394.67625 78.532471 
" style="fill:none;stroke:#b0b0b0;stroke-linecap:square;stroke-width:0.8;"/>
     </g>
     <g id="line2d_32">
      <g>
       <use style="stroke:#000000;stroke-width:0.8;" x="37.55625" xlink:href="#m6fcbe82823" y="78.532471"/>
      </g>
     </g>
    </g>
    <g id="ytick_5">
     <g id="line2d_33">
      <path clip-path="url(#pf38e36ed1a)" d="M 37.55625 13.308941 
L 394.67625 13.308941 
" style="fill:none;stroke:#b0b0b0;stroke-linecap:square;stroke-width:0.8;"/>
     </g>
     <g id="line2d_34">
      <g>
       <use style="stroke:#000000;stroke-width:0.8;" x="37.55625" xlink:href="#m6fcbe82823" y="13.308941"/>
      </g>
     </g>
    </g>
    <g id="text_8">
     <!-- proportion of trials -->
     <defs>
      <path d="M 18.109375 8.203125 
L 18.109375 -20.796875 
L 9.078125 -20.796875 
L 9.078125 54.6875 
L 18.109375 54.6875 
L 18.109375 46.390625 
Q 20.953125 51.265625 25.265625 53.625 
Q 29.59375 56 35.59375 56 
Q 45.5625 56 51.78125 48.09375 
Q 58.015625 40.1875 58.015625 27.296875 
Q 58.015625 14.40625 51.78125 6.484375 
Q 45.5625 -1.421875 35.59375 -1.421875 
Q 29.59375 -1.421875 25.265625 0.953125 
Q 20.953125 3.328125 18.109375 8.203125 
M 48.6875 27.296875 
Q 48.6875 37.203125 44.609375 42.84375 
Q 40.53125 48.484375 33.40625 48.484375 
Q 26.265625 48.484375 22.1875 42.84375 
Q 18.109375 37.203125 18.109375 27.296875 
Q 18.109375 17.390625 22.1875 11.75 
Q 26.265625 6.109375 33.40625 6.109375 
Q 40.53125 6.109375 44.609375 11.75 
Q 48.6875 17.390625 48.6875 27.296875 
" id="DejaVuSans-70"/>
      <path d="M 54.890625 33.015625 
L 54.890625 0 
L 45.90625 0 
L 45.90625 32.71875 
Q 45.90625 40.484375 42.875 44.328125 
Q 39.84375 48.1875 33.796875 48.1875 
Q 26.515625 48.1875 22.3125 43.546875 
Q 18.109375 38.921875 18.109375 30.90625 
L 18.109375 0 
L 9.078125 0 
L 9.078125 54.6875 
L 18.109375 54.6875 
L 18.109375 46.1875 
Q 21.34375 51.125 25.703125 53.5625 
Q 30.078125 56 35.796875 56 
Q 45.21875 56 50.046875 50.171875 
Q 54.890625 44.34375 54.890625 33.015625 
" id="DejaVuSans-6e"/>
     </defs>
     <g transform="translate(22.396875 236.984125)rotate(-90)scale(0.2 -0.2)">
      <use xlink:href="#DejaVuSans-70"/>
      <use x="63.476562" xlink:href="#DejaVuSans-72"/>
      <use x="104.558594" xlink:href="#DejaVuSans-6f"/>
      <use x="165.740234" xlink:href="#DejaVuSans-70"/>
      <use x="229.216797" xlink:href="#DejaVuSans-6f"/>
      <use x="290.398438" xlink:href="#DejaVuSans-72"/>
      <use x="331.511719" xlink:href="#DejaVuSans-74"/>
      <use x="370.720703" xlink:href="#DejaVuSans-69"/>
      <use x="398.503906" xlink:href="#DejaVuSans-6f"/>
      <use x="459.685547" xlink:href="#DejaVuSans-6e"/>
      <use x="523.064453" xlink:href="#DejaVuSans-20"/>
      <use x="554.851562" xlink:href="#DejaVuSans-6f"/>
      <use x="616.033203" xlink:href="#DejaVuSans-66"/>
      <use x="651.238281" xlink:href="#DejaVuSans-20"/>
      <use x="683.025391" xlink:href="#DejaVuSans-74"/>
      <use x="722.234375" xlink:href="#DejaVuSans-72"/>
      <use x="763.347656" xlink:href="#DejaVuSans-69"/>
      <use x="791.130859" xlink:href="#DejaVuSans-61"/>
      <use x="852.410156" xlink:href="#DejaVuSans-6c"/>
      <use x="880.193359" xlink:href="#DejaVuSans-73"/>
     </g>
    </g>
   </g>
   <g id="line2d_35">
    <path clip-path="url(#pf38e36ed1a)" d="M 37.55625 256.783725 
L 60.347191 256.783725 
L 60.347191 256.585778 
L 61.179439 256.585778 
L 61.179439 256.387831 
L 63.167413 256.387831 
L 63.167413 256.189884 
L 63.717929 256.189884 
L 63.717929 255.991937 
L 64.550177 255.991937 
L 64.550177 255.79399 
L 66.53815 255.79399 
L 66.53815 255.596043 
L 69.130985 255.596043 
L 69.130985 255.398096 
L 72.501722 255.398096 
L 72.501722 255.200149 
L 75.100985 255.200149 
L 75.100985 255.002202 
L 78.012564 255.002202 
L 78.012564 254.804255 
L 78.471723 254.804255 
L 78.471723 254.606308 
L 78.844812 254.606308 
L 78.844812 254.408361 
L 80.609625 254.408361 
L 80.609625 254.210414 
L 80.832786 254.210414 
L 80.832786 254.012467 
L 83.888914 254.012467 
L 83.980363 253.616573 
L 86.796358 253.616573 
L 86.796358 253.418626 
L 87.259652 253.418626 
L 87.259652 253.220679 
L 92.766359 253.220679 
L 92.766359 253.022732 
L 98.274999 253.022732 
L 98.274999 252.824785 
L 99.506408 252.824785 
L 99.533388 252.428891 
L 101.258383 252.428891 
L 101.258383 252.230944 
L 101.554287 252.230944 
L 101.554287 252.032997 
L 102.877146 252.032997 
L 102.904125 251.637103 
L 104.629121 251.637103 
L 104.629121 251.439156 
L 106.471107 251.439156 
L 106.471107 251.241209 
L 109.841844 251.241209 
L 109.841844 251.043262 
L 110.408414 251.043262 
L 110.408414 250.845315 
L 113.779152 250.845315 
L 113.779152 250.647368 
L 117.171781 250.647368 
L 117.198761 250.251474 
L 118.923756 250.251474 
L 118.923756 250.053527 
L 124.13648 250.053527 
L 124.13648 249.85558 
L 128.073787 249.85558 
L 128.073787 249.657633 
L 130.501911 249.657633 
L 130.501911 249.459687 
L 130.865857 249.459687 
L 130.865857 249.26174 
L 133.872648 249.26174 
L 133.872648 249.063793 
L 134.163365 249.063793 
L 134.236594 248.667899 
L 134.995613 248.667899 
L 134.995613 248.469952 
L 136.983587 248.469952 
L 136.983587 248.272005 
L 138.998172 248.272005 
L 138.998172 248.074058 
L 139.83042 248.074058 
L 139.83042 247.876111 
L 141.818394 247.876111 
L 141.818394 247.678164 
L 142.947159 247.678164 
L 142.947159 247.480217 
L 147.781966 247.480217 
L 147.781966 247.28227 
L 148.167284 247.28227 
L 148.167284 247.084323 
L 148.53123 247.084323 
L 148.53123 246.886376 
L 148.917159 246.886376 
L 148.917159 246.688429 
L 153.751966 246.688429 
L 153.751966 246.490482 
L 154.425799 246.490482 
L 154.425799 246.292535 
L 154.643409 246.292535 
L 154.643409 246.094588 
L 156.230248 246.094588 
L 156.230248 245.896641 
L 157.062496 245.896641 
L 157.062496 245.698694 
L 157.360797 245.698694 
L 157.360797 245.104853 
L 157.705088 245.104853 
L 157.705088 244.906906 
L 158.014147 244.906906 
L 158.014147 244.708959 
L 159.05047 244.708959 
L 159.05047 244.511012 
L 159.260606 244.511012 
L 159.260606 244.313065 
L 161.875479 244.313065 
L 161.875479 244.115118 
L 162.539895 244.115118 
L 162.539895 243.917171 
L 165.014042 243.917171 
L 165.014042 243.719224 
L 165.246217 243.719224 
L 165.246217 243.521277 
L 165.805288 243.521277 
L 165.805288 243.32333 
L 167.325696 243.32333 
L 167.325696 242.729489 
L 168.695794 242.729489 
L 168.695794 240.947966 
L 169.176026 240.947966 
L 169.176026 240.750019 
L 170.175614 240.750019 
L 170.175614 239.166444 
L 170.984042 239.166444 
L 170.984042 238.968497 
L 171.784269 238.968497 
L 171.784269 238.374656 
L 172.308783 238.374656 
L 172.308783 238.176709 
L 173.322582 238.176709 
L 173.349562 237.780815 
L 175.074557 237.780815 
L 175.074557 237.582868 
L 175.494243 237.582868 
L 175.494243 236.395186 
L 176.492682 236.395186 
L 176.492682 236.197239 
L 177.671801 236.197239 
L 177.671801 235.405451 
L 178.157389 235.405451 
L 178.184369 235.009557 
L 179.540853 235.009557 
L 179.540853 234.81161 
L 179.771971 234.81161 
L 179.771971 234.613663 
L 179.909364 234.613663 
L 179.909364 234.415716 
L 180.140512 234.415716 
L 180.140512 234.019822 
L 180.287281 234.019822 
L 180.287281 233.821875 
L 181.510611 233.821875 
L 181.510611 232.634193 
L 182.99043 232.634193 
L 182.99043 230.456777 
L 183.470662 230.456777 
L 183.470662 230.25883 
L 184.224588 230.25883 
L 184.224588 230.060883 
L 184.599085 230.060883 
L 184.599085 229.664989 
L 185.122088 229.664989 
L 185.122088 229.467042 
L 186.361168 229.467042 
L 186.361168 228.873201 
L 186.786637 228.873201 
L 186.786637 228.675254 
L 187.11588 228.675254 
L 187.11588 228.477307 
L 187.618885 228.477307 
L 187.636699 228.081413 
L 188.309059 228.081413 
L 188.309059 227.289625 
L 188.724535 227.289625 
L 188.724535 227.091678 
L 189.006798 227.091678 
L 189.059395 226.29989 
L 189.606859 226.29989 
L 189.606859 226.101943 
L 189.795424 226.101943 
L 189.795424 225.903996 
L 190.486617 225.903996 
L 190.486617 221.945057 
L 190.627672 221.945057 
L 190.627672 221.74711 
L 192.095272 221.74711 
L 192.095272 221.351216 
L 192.615646 221.351216 
L 192.615646 221.153269 
L 192.955328 221.153269 
L 192.955328 220.955322 
L 194.325427 220.955322 
L 194.325427 220.361481 
L 195.259886 220.361481 
L 195.259886 220.163534 
L 195.389465 220.163534 
L 195.416445 219.76764 
L 195.570431 219.76764 
L 195.570431 219.569693 
L 195.805247 219.569693 
L 195.805247 215.412806 
L 196.092134 215.412806 
L 196.092134 215.214859 
L 197.080778 215.214859 
L 197.14144 214.818965 
L 197.413902 214.818965 
L 197.413902 214.621018 
L 197.982804 214.621018 
L 198.080107 214.027177 
L 198.450877 214.027177 
L 198.450877 213.433336 
L 198.579218 213.433336 
L 198.579218 213.235389 
L 199.175984 213.235389 
L 199.175984 212.641549 
L 199.930696 212.641549 
L 199.930696 212.047708 
L 200.451516 212.047708 
L 200.451516 211.849761 
L 201.123876 211.849761 
L 201.123876 211.453867 
L 201.539351 211.453867 
L 201.540431 211.057973 
L 201.745536 211.057973 
L 201.821614 210.266185 
L 202.354164 210.266185 
L 202.354164 210.068238 
L 202.577784 210.068238 
L 202.577784 209.870291 
L 203.301434 209.870291 
L 203.301434 206.307245 
L 204.04368 206.307245 
L 204.04368 206.109298 
L 204.318085 206.109298 
L 204.318085 205.911351 
L 204.549219 205.911351 
L 204.565758 205.515457 
L 204.682031 205.515457 
L 204.781253 205.119563 
L 204.910089 205.119563 
L 204.910089 204.921616 
L 205.249325 204.921616 
L 205.249325 204.525722 
L 206.151352 204.525722 
L 206.151352 204.327775 
L 206.291471 204.327775 
L 206.389908 203.931881 
L 206.672171 203.931881 
L 206.672171 203.733934 
L 207.049071 203.733934 
L 207.049071 203.535988 
L 207.426883 203.535988 
L 207.426883 203.338041 
L 207.947703 203.338041 
L 207.947703 203.140094 
L 208.620063 203.140094 
L 208.620063 200.76473 
L 209.152892 200.76473 
L 209.152892 200.566783 
L 209.317801 200.566783 
L 209.317801 199.972942 
L 209.516838 199.972942 
L 209.516838 199.774995 
L 209.740883 199.774995 
L 209.740883 199.577048 
L 209.895594 199.577048 
L 209.895594 199.379101 
L 210.01368 199.379101 
L 210.057859 198.983207 
L 210.32836 198.983207 
L 210.32836 198.78526 
L 210.52933 198.78526 
L 210.52933 198.587313 
L 210.797621 198.587313 
L 210.797621 197.003737 
L 211.265693 197.003737 
L 211.265693 196.409896 
L 211.990801 196.409896 
L 211.990801 196.211949 
L 212.406276 196.211949 
L 212.406276 196.014002 
L 212.745512 196.014002 
L 212.745512 195.024267 
L 213.337147 195.024267 
L 213.337147 194.82632 
L 213.47062 194.82632 
L 213.542681 194.430426 
L 214.354168 194.430426 
L 214.374929 194.034533 
L 214.746151 194.034533 
L 214.746151 193.836586 
L 215.52232 193.836586 
L 215.52232 193.638639 
L 216.11625 193.638639 
L 216.11625 97.040513 
L 216.362902 97.040513 
L 216.362902 96.842566 
L 216.49933 96.842566 
L 216.49933 96.644619 
L 217.486349 96.644619 
L 217.596069 95.654884 
L 218.064142 95.654884 
L 218.064142 95.25899 
L 218.293808 95.25899 
L 218.293808 95.061043 
L 218.801609 95.061043 
L 218.801609 94.863096 
L 218.966168 94.863096 
L 218.966168 94.467202 
L 219.204725 94.467202 
L 219.204725 94.269255 
L 219.486988 94.269255 
L 219.486988 94.071308 
L 219.705782 94.071308 
L 219.705782 93.873361 
L 220.241699 93.873361 
L 220.241699 92.487733 
L 220.574823 92.487733 
L 220.574823 92.289786 
L 221.07588 92.289786 
L 221.07588 91.695945 
L 221.434879 91.695945 
L 221.434879 90.904157 
L 222.00797 90.904157 
L 222.00797 90.70621 
L 222.326475 90.70621 
L 222.326475 90.508263 
L 222.5557 90.508263 
L 222.5557 90.112369 
L 222.710411 90.112369 
L 222.710411 89.914422 
L 222.914699 89.914422 
L 222.914699 89.518528 
L 223.612437 89.518528 
L 223.612437 87.737005 
L 224.080509 87.737005 
L 224.164355 86.945217 
L 224.284797 86.945217 
L 224.284797 86.549323 
L 225.092256 86.549323 
L 225.092256 86.351376 
L 225.287259 86.351376 
L 225.287259 86.153429 
L 225.560329 86.153429 
L 225.560329 84.173959 
L 225.945854 84.173959 
L 225.972834 83.778066 
L 226.384968 83.778066 
L 226.462355 83.382172 
L 226.748914 83.382172 
L 226.748914 83.184225 
L 226.983175 83.184225 
L 226.983175 82.986278 
L 227.168984 82.986278 
L 227.168984 82.788331 
L 227.697829 82.788331 
L 227.697829 82.590384 
L 227.874329 82.590384 
L 227.874329 82.19449 
L 228.296475 82.19449 
L 228.296475 81.996543 
L 228.459583 81.996543 
L 228.459583 81.798596 
L 228.931066 81.798596 
L 228.981621 77.443762 
L 230.051887 77.443762 
L 230.051887 77.245815 
L 230.410886 77.245815 
L 230.410886 76.849921 
L 230.706617 76.849921 
L 230.706617 76.651974 
L 230.878958 76.651974 
L 230.878958 76.25608 
L 231.108624 76.25608 
L 231.108624 75.266345 
L 231.780984 75.266345 
L 231.780984 74.870451 
L 232.910553 74.870451 
L 232.910553 74.672505 
L 233.056516 74.672505 
L 233.056516 73.286876 
L 233.29439 73.286876 
L 233.29439 73.088929 
L 233.781623 73.088929 
L 233.805115 72.693035 
L 234.419103 72.693035 
L 234.446082 72.297141 
L 235.151722 72.297141 
L 235.151722 72.099194 
L 235.370516 72.099194 
L 235.370516 71.7033 
L 235.691653 71.7033 
L 235.691653 71.505353 
L 235.91934 71.505353 
L 235.91934 71.307406 
L 236.171078 71.307406 
L 236.171078 71.109459 
L 236.427253 71.109459 
L 236.427253 68.932042 
L 236.84786 68.932042 
L 236.84786 68.734095 
L 237.084404 68.734095 
L 237.084404 68.536148 
L 237.907073 68.536148 
L 237.907073 67.348466 
L 238.375145 67.348466 
L 238.375145 66.160784 
L 238.741254 66.160784 
L 238.741254 65.962837 
L 239.277172 65.962837 
L 239.277172 64.973103 
L 239.621462 64.973103 
L 239.621462 64.775156 
L 239.856647 64.775156 
L 239.856647 64.577209 
L 240.52646 64.577209 
L 240.52646 64.379262 
L 240.904753 64.379262 
L 240.931733 63.983368 
L 241.383802 63.983368 
L 241.383802 63.785421 
L 241.745883 63.785421 
L 241.745883 62.399792 
L 242.656728 62.399792 
L 242.656728 62.201845 
L 242.866703 62.201845 
L 242.866703 61.21211 
L 243.225702 61.21211 
L 243.225702 60.024428 
L 243.923441 60.024428 
L 243.923441 59.826481 
L 244.456269 59.826481 
L 244.456269 59.628534 
L 244.595801 59.628534 
L 244.595801 58.836746 
L 245.321109 58.836746 
L 245.321109 58.638799 
L 245.871332 58.638799 
L 245.871332 56.263436 
L 247.869452 56.263436 
L 247.869452 56.065489 
L 248.185332 56.065489 
L 248.185332 55.273701 
L 249.24207 55.273701 
L 249.24207 54.086019 
L 250.526466 54.086019 
L 250.526466 53.888072 
L 250.721889 53.888072 
L 250.721889 53.690125 
L 251.189962 53.690125 
L 251.189962 52.898337 
L 251.806759 52.898337 
L 251.806759 52.70039 
L 252.091988 52.70039 
L 252.091988 52.502443 
L 252.701898 52.502443 
L 252.728878 52.106549 
L 254.453873 52.106549 
L 254.453873 51.908602 
L 255.68152 51.908602 
L 255.68152 51.710655 
L 256.738257 51.710655 
L 256.738257 50.522973 
L 256.941357 50.522973 
L 256.941357 50.325026 
L 257.305303 50.325026 
L 257.305303 50.127079 
L 257.758536 50.127079 
L 257.758536 49.929132 
L 258.686149 49.929132 
L 258.686149 48.543503 
L 259.666597 48.543503 
L 259.666597 48.345556 
L 259.950144 48.345556 
L 259.950144 48.147609 
L 260.31409 48.147609 
L 260.31409 47.949662 
L 261.688345 47.949662 
L 261.688345 47.751715 
L 262.540709 47.751715 
L 262.540709 47.553768 
L 263.536706 47.553768 
L 263.603904 46.16814 
L 264.906804 46.16814 
L 264.906804 44.980458 
L 265.414605 44.980458 
L 265.414605 44.782511 
L 265.778552 44.782511 
L 265.778552 44.584564 
L 267.375516 44.584564 
L 267.375516 44.386617 
L 268.496336 44.386617 
L 268.496336 43.198935 
L 269.62142 43.198935 
L 269.62142 43.000988 
L 271.500965 43.000988 
L 271.500965 41.813306 
L 271.900256 41.813306 
L 271.900256 41.615359 
L 272.264202 41.615359 
L 272.264202 41.417412 
L 274.456227 41.417412 
L 274.456227 41.219465 
L 281.082856 41.219465 
L 281.082856 41.021518 
L 283.6974 41.021518 
L 283.6974 40.823571 
L 284.061347 40.823571 
L 284.091643 40.427677 
L 284.607592 40.427677 
L 284.607592 40.22973 
L 288.314926 40.22973 
L 288.314926 40.031783 
L 289.556104 40.031783 
L 289.556104 39.833836 
L 291.323713 39.833836 
L 291.323713 39.635889 
L 291.688303 39.635889 
L 291.688303 39.437942 
L 292.244734 39.437942 
L 292.244734 39.239995 
L 294.057873 39.239995 
L 294.057873 39.042048 
L 295.253522 39.042048 
L 295.253522 38.844101 
L 296.041755 38.844101 
L 296.041755 38.646154 
L 296.788174 38.646154 
L 296.788174 38.448207 
L 298.89268 38.448207 
L 298.89268 38.25026 
L 299.376503 38.25026 
L 299.376503 37.854367 
L 300.717983 37.854367 
L 300.717983 37.65642 
L 303.273825 37.65642 
L 303.273825 37.458473 
L 304.21131 37.458473 
L 304.21131 37.062579 
L 307.203634 37.062579 
L 307.203634 36.864632 
L 307.838899 36.864632 
L 307.838899 36.666685 
L 315.070969 36.666685 
L 315.163981 36.270791 
L 316.124756 36.270791 
L 316.124756 36.072844 
L 318.172768 36.072844 
L 318.172768 35.874897 
L 319.000778 35.874897 
L 319.000778 35.67695 
L 321.443386 35.67695 
L 321.443386 35.281056 
L 322.244693 35.281056 
L 322.244693 35.083109 
L 323.63723 35.083109 
L 323.63723 34.885162 
L 325.25348 34.885162 
L 325.25348 34.687215 
L 330.12288 34.687215 
L 330.12288 34.489268 
L 330.717941 34.489268 
L 330.717941 34.291321 
L 337.203592 34.291321 
L 337.203592 34.093374 
L 341.920025 34.093374 
L 341.920025 33.895427 
L 346.681146 33.895427 
L 346.681146 33.69748 
L 349.000736 33.69748 
L 349.000736 33.499533 
L 349.689933 33.499533 
L 349.689933 33.301586 
L 351.999775 33.301586 
L 351.999775 32.905692 
L 355.008562 32.905692 
L 355.008562 32.509798 
L 355.154394 32.509798 
L 355.154394 32.311851 
L 360.473024 32.311851 
L 360.473024 31.915957 
L 361.640045 31.915957 
L 361.640045 31.71801 
L 366.958674 31.71801 
L 366.958674 31.322116 
L 373.437189 31.322116 
L 373.437189 31.124169 
L 378.755819 31.124169 
L 378.755819 30.728275 
L 394.67625 30.728275 
L 394.67625 30.728275 
" style="fill:none;stroke:#000000;stroke-linecap:square;stroke-width:3;"/>
   </g>
   <g id="line2d_36"/>
   <g id="line2d_37"/>
   <g id="line2d_38"/>
   <g id="line2d_39"/>
   <g id="line2d_40">
    <path clip-path="url(#pf38e36ed1a)" d="M 216.11625 276.812 
L 216.11625 10.7 
" style="fill:none;stroke:#000000;stroke-linecap:square;stroke-width:1.5;"/>
   </g>
   <g id="line2d_41">
    <path clip-path="url(#pf38e36ed1a)" d="M 37.55625 143.756 
L 394.67625 143.756 
" style="fill:none;stroke:#000000;stroke-dasharray:2.2,2.2;stroke-dashoffset:0;stroke-width:2;"/>
   </g>
   <g id="patch_3">
    <path d="M 37.55625 276.812 
L 37.55625 10.7 
" style="fill:none;stroke:#000000;stroke-linecap:square;stroke-linejoin:miter;stroke-width:0.8;"/>
   </g>
   <g id="patch_4">
    <path d="M 394.67625 276.812 
L 394.67625 10.7 
" style="fill:none;stroke:#000000;stroke-linecap:square;stroke-linejoin:miter;stroke-width:0.8;"/>
   </g>
   <g id="patch_5">
    <path d="M 37.55625 276.812 
L 394.67625 276.812 
" style="fill:none;stroke:#000000;stroke-linecap:square;stroke-linejoin:miter;stroke-width:0.8;"/>
   </g>
   <g id="patch_6">
    <path d="M 37.55625 10.7 
L 394.67625 10.7 
" style="fill:none;stroke:#000000;stroke-linecap:square;stroke-linejoin:miter;stroke-width:0.8;"/>
   </g>
   <g id="text_9">
    <!-- f1-f24,20-D -->
    <defs>
     <path d="M 37.796875 64.3125 
L 12.890625 25.390625 
L 37.796875 25.390625 
z
M 35.203125 72.90625 
L 47.609375 72.90625 
L 47.609375 25.390625 
L 58.015625 25.390625 
L 58.015625 17.1875 
L 47.609375 17.1875 
L 47.609375 0 
L 37.796875 0 
L 37.796875 17.1875 
L 4.890625 17.1875 
L 4.890625 26.703125 
z
" id="DejaVuSans-34"/>
     <path d="M 11.71875 12.40625 
L 22.015625 12.40625 
L 22.015625 4 
L 14.015625 -11.625 
L 7.71875 -11.625 
L 11.71875 4 
z
" id="DejaVuSans-2c"/>
     <path d="M 19.671875 64.796875 
L 19.671875 8.109375 
L 31.59375 8.109375 
Q 46.6875 8.109375 53.6875 14.9375 
Q 60.6875 21.78125 60.6875 36.53125 
Q 60.6875 51.171875 53.6875 57.984375 
Q 46.6875 64.796875 31.59375 64.796875 
z
M 9.8125 72.90625 
L 30.078125 72.90625 
Q 51.265625 72.90625 61.171875 64.09375 
Q 71.09375 55.28125 71.09375 36.53125 
Q 71.09375 17.671875 61.125 8.828125 
Q 51.171875 0 30.078125 0 
L 9.8125 0 
z
" id="DejaVuSans-44"/>
    </defs>
    <g transform="translate(273.6401 271.48976)scale(0.2 -0.2)">
     <use xlink:href="#DejaVuSans-66"/>
     <use x="35.205078" xlink:href="#DejaVuSans-31"/>
     <use x="98.828125" xlink:href="#DejaVuSans-2d"/>
     <use x="134.912109" xlink:href="#DejaVuSans-66"/>
     <use x="170.117188" xlink:href="#DejaVuSans-32"/>
     <use x="233.740234" xlink:href="#DejaVuSans-34"/>
     <use x="297.363281" xlink:href="#DejaVuSans-2c"/>
     <use x="329.150391" xlink:href="#DejaVuSans-32"/>
     <use x="392.773438" xlink:href="#DejaVuSans-30"/>
     <use x="456.396484" xlink:href="#DejaVuSans-2d"/>
     <use x="492.480469" xlink:href="#DejaVuSans-44"/>
    </g>
   </g>
   <g id="text_10">
    <!-- v2.1 -->
    <g style="fill:#808080;" transform="translate(205.205313 272.071193)scale(0.1 -0.1)">
     <use xlink:href="#DejaVuSans-76"/>
     <use x="59.179688" xlink:href="#DejaVuSans-32"/>
     <use x="122.802734" xlink:href="#DejaVuSans-2e"/>
     <use x="154.589844" xlink:href="#DejaVuSans-31"/>
    </g>
   </g>
   <g id="legend_1">
    <g id="patch_7">
     <path d="M 51.55625 144.125 
L 180.778125 144.125 
Q 184.778125 144.125 184.778125 140.125 
L 184.778125 24.7 
Q 184.778125 20.7 180.778125 20.7 
L 51.55625 20.7 
Q 47.55625 20.7 47.55625 24.7 
L 47.55625 140.125 
Q 47.55625 144.125 51.55625 144.125 
z
" style="fill:#ffffff;opacity:0.2;stroke:#cccccc;stroke-linejoin:miter;"/>
    </g>
    <g id="line2d_42">
     <path d="M 55.55625 36.896875 
L 95.55625 36.896875 
" style="fill:none;stroke:#000000;stroke-linecap:square;stroke-width:3;"/>
    </g>
    <g id="line2d_43"/>
    <g id="text_11">
     <!-- 1: 3/3 -->
     <defs>
      <path d="M 11.71875 12.40625 
L 22.015625 12.40625 
L 22.015625 0 
L 11.71875 0 
z
M 11.71875 51.703125 
L 22.015625 51.703125 
L 22.015625 39.3125 
L 11.71875 39.3125 
z
" id="DejaVuSans-3a"/>
      <path d="M 25.390625 72.90625 
L 33.6875 72.90625 
L 8.296875 -9.28125 
L 0 -9.28125 
z
" id="DejaVuSans-2f"/>
     </defs>
     <g transform="translate(111.55625 43.896875)scale(0.2 -0.2)">
      <use xlink:href="#DejaVuSans-31"/>
      <use x="63.623047" xlink:href="#DejaVuSans-3a"/>
      <use x="97.314453" xlink:href="#DejaVuSans-20"/>
      <use x="129.101562" xlink:href="#DejaVuSans-33"/>
      <use x="192.724609" xlink:href="#DejaVuSans-2f"/>
      <use x="226.416016" xlink:href="#DejaVuSans-33"/>
     </g>
    </g>
    <g id="line2d_44">
     <path d="M 55.55625 66.253125 
L 95.55625 66.253125 
" style="fill:none;stroke:#00bfbf;stroke-linecap:square;stroke-width:3;"/>
    </g>
    <g id="line2d_45"/>
    <g id="text_12">
     <!-- -1: 0/0 -->
     <g transform="translate(111.55625 73.253125)scale(0.2 -0.2)">
      <use xlink:href="#DejaVuSans-2d"/>
      <use x="36.083984" xlink:href="#DejaVuSans-31"/>
      <use x="99.707031" xlink:href="#DejaVuSans-3a"/>
      <use x="133.398438" xlink:href="#DejaVuSans-20"/>
      <use x="165.185547" xlink:href="#DejaVuSans-30"/>
      <use x="228.808594" xlink:href="#DejaVuSans-2f"/>
      <use x="262.5" xlink:href="#DejaVuSans-30"/>
     </g>
    </g>
    <g id="line2d_46">
     <path d="M 55.55625 95.609375 
L 95.55625 95.609375 
" style="fill:none;stroke:#bf00bf;stroke-linecap:square;stroke-width:3;"/>
    </g>
    <g id="line2d_47"/>
    <g id="text_13">
     <!-- -4: 0/0 -->
     <g transform="translate(111.55625 102.609375)scale(0.2 -0.2)">
      <use xlink:href="#DejaVuSans-2d"/>
      <use x="36.083984" xlink:href="#DejaVuSans-34"/>
      <use x="99.707031" xlink:href="#DejaVuSans-3a"/>
      <use x="133.398438" xlink:href="#DejaVuSans-20"/>
      <use x="165.185547" xlink:href="#DejaVuSans-30"/>
      <use x="228.808594" xlink:href="#DejaVuSans-2f"/>
      <use x="262.5" xlink:href="#DejaVuSans-30"/>
     </g>
    </g>
    <g id="line2d_48">
     <path d="M 55.55625 124.965625 
L 95.55625 124.965625 
" style="fill:none;stroke:#ff0000;stroke-linecap:square;stroke-width:3;"/>
    </g>
    <g id="line2d_49"/>
    <g id="text_14">
     <!-- -8: 0/0 -->
     <defs>
      <path d="M 31.78125 34.625 
Q 24.75 34.625 20.71875 30.859375 
Q 16.703125 27.09375 16.703125 20.515625 
Q 16.703125 13.921875 20.71875 10.15625 
Q 24.75 6.390625 31.78125 6.390625 
Q 38.8125 6.390625 42.859375 10.171875 
Q 46.921875 13.96875 46.921875 20.515625 
Q 46.921875 27.09375 42.890625 30.859375 
Q 38.875 34.625 31.78125 34.625 
M 21.921875 38.8125 
Q 15.578125 40.375 12.03125 44.71875 
Q 8.5 49.078125 8.5 55.328125 
Q 8.5 64.0625 14.71875 69.140625 
Q 20.953125 74.21875 31.78125 74.21875 
Q 42.671875 74.21875 48.875 69.140625 
Q 55.078125 64.0625 55.078125 55.328125 
Q 55.078125 49.078125 51.53125 44.71875 
Q 48 40.375 41.703125 38.8125 
Q 48.828125 37.15625 52.796875 32.3125 
Q 56.78125 27.484375 56.78125 20.515625 
Q 56.78125 9.90625 50.3125 4.234375 
Q 43.84375 -1.421875 31.78125 -1.421875 
Q 19.734375 -1.421875 13.25 4.234375 
Q 6.78125 9.90625 6.78125 20.515625 
Q 6.78125 27.484375 10.78125 32.3125 
Q 14.796875 37.15625 21.921875 38.8125 
M 18.3125 54.390625 
Q 18.3125 48.734375 21.84375 45.5625 
Q 25.390625 42.390625 31.78125 42.390625 
Q 38.140625 42.390625 41.71875 45.5625 
Q 45.3125 48.734375 45.3125 54.390625 
Q 45.3125 60.0625 41.71875 63.234375 
Q 38.140625 66.40625 31.78125 66.40625 
Q 25.390625 66.40625 21.84375 63.234375 
Q 18.3125 60.0625 18.3125 54.390625 
" id="DejaVuSans-38"/>
     </defs>
     <g transform="translate(111.55625 131.965625)scale(0.2 -0.2)">
      <use xlink:href="#DejaVuSans-2d"/>
      <use x="36.083984" xlink:href="#DejaVuSans-38"/>
      <use x="99.707031" xlink:href="#DejaVuSans-3a"/>
      <use x="133.398438" xlink:href="#DejaVuSans-20"/>
      <use x="165.185547" xlink:href="#DejaVuSans-30"/>
      <use x="228.808594" xlink:href="#DejaVuSans-2f"/>
      <use x="262.5" xlink:href="#DejaVuSans-30"/>
     </g>
    </g>
   </g>
  </g>
 </g>
 <defs>
  <clipPath id="pf38e36ed1a">
   <rect height="266.112" width="357.12" x="37.55625" y="10.7"/>
  </clipPath>
 </defs>
</svg>
