<?xml version="1.0" encoding="utf-8" standalone="no"?>
<!DOCTYPE svg PUBLIC "-//W3C//DTD SVG 1.1//EN"
  "http://www.w3.org/Graphics/SVG/1.1/DTD/svg11.dtd">
<!-- Created with matplotlib (http://matplotlib.org/) -->
<svg height="353pt" version="1.1" viewBox="0 0 483 353" width="483pt" xmlns="http://www.w3.org/2000/svg" xmlns:xlink="http://www.w3.org/1999/xlink">
 <defs>
  <style type="text/css">
*{stroke-linecap:butt;stroke-linejoin:round;}
  </style>
 </defs>
 <g id="figure_1">
  <g id="patch_1">
   <path d="M 0 353.22225 
L 483.757969 353.22225 
L 483.757969 0 
L 0 0 
z
" style="fill:#ffffff;"/>
  </g>
  <g id="axes_1">
   <g id="patch_2">
    <path d="M 70.8 298.245375 
L 427.92 298.245375 
L 427.92 32.133375 
L 70.8 32.133375 
z
" style="fill:#ffffff;"/>
   </g>
   <g id="line2d_1">
    <path d="M 51.169868 298.245375 
L 51.169868 287.697676 
L 63.555102 287.697676 
L 63.555102 286.190861 
L 70.8 286.190861 
L 70.8 284.899306 
L 75.940337 284.899306 
L 75.940337 283.82301 
L 79.927491 283.82301 
L 79.927491 282.316196 
L 83.185234 282.316196 
L 83.185234 281.024641 
L 85.939616 281.024641 
L 85.939616 271.122719 
L 88.325571 271.122719 
L 88.325571 259.713983 
L 90.430132 259.713983 
L 90.430132 259.283465 
L 92.312726 259.283465 
L 92.312726 258.422428 
L 94.015739 258.422428 
L 94.015739 258.207169 
L 95.570468 258.207169 
L 95.570468 257.77665 
L 97.000681 257.77665 
L 97.000681 256.915614 
L 98.32485 256.915614 
L 98.32485 256.269836 
L 99.557623 256.269836 
L 99.557623 256.054577 
L 100.710805 256.054577 
L 100.710805 255.624059 
L 101.794053 255.624059 
L 101.794053 254.978281 
L 102.815366 254.978281 
L 102.815366 254.547763 
L 103.781445 254.547763 
L 103.781445 254.117245 
L 104.69796 254.117245 
L 104.69796 253.686726 
L 105.569748 253.686726 
L 105.569748 252.82569 
L 106.400973 252.82569 
L 106.400973 252.61043 
L 107.195242 252.61043 
L 107.195242 251.964653 
L 107.955702 251.964653 
L 107.955702 251.318875 
L 108.685114 251.318875 
L 108.685114 250.673098 
L 109.385915 250.673098 
L 109.385915 250.457839 
L 110.060263 250.457839 
L 110.060263 249.812061 
L 110.710085 249.812061 
L 110.710085 249.596802 
L 111.942857 249.596802 
L 111.942857 249.381543 
L 112.528749 249.381543 
L 112.528749 248.520506 
L 113.096039 248.520506 
L 113.096039 247.659469 
L 113.64587 247.659469 
L 113.64587 247.44421 
L 114.179287 247.44421 
L 114.179287 246.367914 
L 115.2006 246.367914 
L 115.2006 245.937396 
L 115.690168 245.937396 
L 115.690168 245.722137 
L 116.166679 245.722137 
L 116.166679 244.645841 
L 116.630812 244.645841 
L 116.630812 243.784804 
L 117.083194 243.784804 
L 117.083194 242.062731 
L 117.524404 242.062731 
L 117.524404 241.201694 
L 117.954982 241.201694 
L 117.954982 240.555917 
L 118.375428 240.555917 
L 118.375428 239.049102 
L 118.786207 239.049102 
L 118.786207 237.327029 
L 119.187755 237.327029 
L 119.187755 236.035474 
L 119.580476 236.035474 
L 119.580476 234.743919 
L 119.964752 234.743919 
L 119.964752 232.376068 
L 120.340936 232.376068 
L 120.340936 230.438736 
L 120.709364 230.438736 
L 120.709364 229.36244 
L 121.771149 229.36244 
L 121.771149 229.14718 
L 122.111504 229.14718 
L 122.111504 228.716662 
L 122.445497 228.716662 
L 122.445497 228.501403 
L 122.773362 228.501403 
L 122.773362 228.286144 
L 123.095319 228.286144 
L 123.095319 227.640366 
L 123.411577 227.640366 
L 123.411577 227.425107 
L 123.722334 227.425107 
L 123.722334 227.209848 
L 124.02778 227.209848 
L 124.02778 226.994589 
L 124.328091 226.994589 
L 124.328091 226.348811 
L 124.623439 226.348811 
L 124.623439 226.133552 
L 124.913984 226.133552 
L 124.913984 225.918293 
L 125.19988 225.918293 
L 125.19988 225.703034 
L 125.758304 225.703034 
L 125.758304 225.057256 
L 126.031105 225.057256 
L 126.031105 224.626738 
L 126.299803 224.626738 
L 126.299803 224.411479 
L 126.564521 224.411479 
L 126.564521 223.98096 
L 127.082473 223.98096 
L 127.082473 223.765701 
L 127.335926 223.765701 
L 127.335926 223.335183 
L 128.075402 223.335183 
L 128.075402 223.119924 
L 128.785487 223.119924 
L 128.785487 222.904664 
L 129.016046 222.904664 
L 129.016046 222.258887 
L 129.243669 222.258887 
L 129.243669 221.613109 
L 129.468428 221.613109 
L 129.468428 221.182591 
L 129.690395 221.182591 
L 129.690395 220.967332 
L 130.340216 220.967332 
L 130.340216 220.752073 
L 130.551676 220.752073 
L 130.551676 220.321554 
L 130.760662 220.321554 
L 130.760662 220.106295 
L 131.171441 220.106295 
L 131.171441 219.891036 
L 131.373343 219.891036 
L 131.373343 219.460518 
L 131.572989 219.460518 
L 131.572989 218.81474 
L 131.770429 218.81474 
L 131.770429 218.599481 
L 131.96571 218.599481 
L 131.96571 218.384222 
L 132.539068 218.384222 
L 132.539068 218.168963 
L 132.726171 218.168963 
L 132.726171 217.738444 
L 132.911334 217.738444 
L 132.911334 217.523185 
L 133.276002 217.523185 
L 133.276002 217.092667 
L 133.455583 217.092667 
L 133.455583 216.446889 
L 133.809418 216.446889 
L 133.809418 216.23163 
L 133.983743 216.23163 
L 133.983743 216.016371 
L 134.156383 216.016371 
L 134.156383 215.585853 
L 134.327371 215.585853 
L 134.327371 215.155334 
L 134.664515 215.155334 
L 134.664515 214.724816 
L 134.830731 214.724816 
L 134.830731 214.294298 
L 134.995416 214.294298 
L 134.995416 213.863779 
L 135.158596 213.863779 
L 135.158596 213.64852 
L 135.480553 213.64852 
L 135.480553 213.433261 
L 135.796811 213.433261 
L 135.796811 213.002743 
L 135.952865 213.002743 
L 135.952865 212.787483 
L 136.107569 212.787483 
L 136.107569 212.572224 
L 136.260944 212.572224 
L 136.260944 212.141706 
L 136.413014 212.141706 
L 136.413014 211.926447 
L 136.563801 211.926447 
L 136.563801 211.495928 
L 136.861609 211.495928 
L 136.861609 211.06541 
L 137.299218 211.06541 
L 137.299218 210.634892 
L 137.442737 210.634892 
L 137.442737 210.419632 
L 137.726364 210.419632 
L 137.726364 210.204373 
L 137.866507 210.204373 
L 137.866507 209.989114 
L 138.005559 209.989114 
L 138.005559 209.773855 
L 138.143538 209.773855 
L 138.143538 209.558596 
L 138.280459 209.558596 
L 138.280459 209.343337 
L 138.416339 209.343337 
L 138.416339 209.128077 
L 138.551193 209.128077 
L 138.551193 208.912818 
L 138.949755 208.912818 
L 138.949755 208.267041 
L 139.080657 208.267041 
L 139.080657 208.051782 
L 139.210608 208.051782 
L 139.210608 207.836522 
L 139.33962 207.836522 
L 139.33962 207.406004 
L 139.594883 207.406004 
L 139.594883 207.190745 
L 139.846551 207.190745 
L 139.846551 206.544967 
L 139.971068 206.544967 
L 139.971068 206.329708 
L 140.094723 206.329708 
L 140.094723 205.683931 
L 140.217529 205.683931 
L 140.217529 205.253412 
L 140.460636 205.253412 
L 140.460636 205.038153 
L 140.580961 205.038153 
L 140.580961 204.392376 
L 140.937147 204.392376 
L 140.937147 203.746598 
L 141.170721 203.746598 
L 141.170721 203.531339 
L 141.286373 203.531339 
L 141.286373 203.100821 
L 141.628903 203.100821 
L 141.628903 202.670302 
L 141.741636 202.670302 
L 141.741636 202.024525 
L 141.853662 202.024525 
L 141.853662 201.378747 
L 142.075629 201.378747 
L 142.075629 200.948229 
L 142.294872 200.948229 
L 142.403494 199.656674 
L 142.511458 199.656674 
L 142.618775 198.795637 
L 142.72545 198.795637 
L 142.831493 197.9346 
L 142.93691 197.9346 
L 143.041708 197.073564 
L 143.145896 197.073564 
L 143.249479 196.212527 
L 143.352466 196.212527 
L 143.454862 194.490454 
L 143.556675 194.490454 
L 143.657911 193.198899 
L 143.758577 193.198899 
L 143.858679 191.907344 
L 143.958223 191.907344 
L 144.057215 191.046307 
L 144.155663 191.046307 
L 144.25357 190.400529 
L 144.350945 190.400529 
L 144.447791 189.324233 
L 144.544115 189.324233 
L 144.639923 188.678456 
L 144.73522 188.678456 
L 144.830011 187.817419 
L 144.924302 187.817419 
L 145.018098 187.171642 
L 145.111405 187.171642 
L 145.111405 186.741123 
L 145.296568 186.741123 
L 145.388435 185.664828 
L 145.479832 185.664828 
L 145.570765 184.588532 
L 145.661236 184.588532 
L 145.751252 183.512236 
L 145.929935 183.512236 
L 146.01861 182.43594 
L 146.106848 182.43594 
L 146.194652 181.359644 
L 146.282027 181.359644 
L 146.368977 180.929126 
L 146.455505 180.929126 
L 146.541617 179.637571 
L 146.627316 179.637571 
L 146.712605 178.346016 
L 146.797489 178.346016 
L 146.881972 177.915497 
L 147.049749 177.915497 
L 147.133051 177.054461 
L 147.215966 177.054461 
L 147.215966 176.623942 
L 147.38065 176.623942 
L 147.38065 176.408683 
L 147.54383 176.408683 
L 147.624865 175.332387 
L 147.865787 175.332387 
L 147.865787 175.117128 
L 148.024616 175.117128 
L 148.103504 174.256091 
L 148.182045 174.256091 
L 148.260243 173.825573 
L 148.338099 173.825573 
L 148.415618 173.179796 
L 148.492803 173.179796 
L 148.492803 172.964536 
L 148.722375 172.964536 
L 148.798248 172.318759 
L 148.8738 172.318759 
L 148.8738 172.1035 
L 149.098559 172.1035 
L 149.098559 171.672981 
L 149.246843 171.672981 
L 149.320526 171.027204 
L 149.393907 171.027204 
L 149.393907 170.596685 
L 149.53977 170.596685 
L 149.612257 170.166167 
L 149.684452 170.166167 
L 149.756356 169.52039 
L 149.970348 169.52039 
L 150.041113 168.874612 
L 150.111598 168.874612 
L 150.181807 168.444094 
L 150.459916 168.444094 
L 150.528772 167.798316 
L 150.597364 167.798316 
L 150.597364 167.583057 
L 150.733762 167.583057 
L 150.733762 167.367798 
L 150.869127 167.367798 
L 150.869127 166.937279 
L 151.003475 166.937279 
L 151.003475 166.72202 
L 151.136819 166.72202 
L 151.136819 166.506761 
L 151.269176 166.506761 
L 151.334989 165.860984 
L 151.530985 165.860984 
L 151.595842 165.430465 
L 151.660465 165.430465 
L 151.660465 164.999947 
L 151.852942 164.999947 
L 151.916643 164.354169 
L 151.980117 164.354169 
L 151.980117 164.13891 
L 152.106394 164.13891 
L 152.106394 163.923651 
L 152.231785 163.923651 
L 152.294152 163.493133 
L 152.356302 163.493133 
L 152.418237 163.062614 
L 152.541466 163.062614 
L 152.602763 162.416837 
L 152.72473 162.416837 
L 152.72473 161.986319 
L 152.906134 161.986319 
L 152.966195 161.5558 
L 153.085714 161.5558 
L 153.085714 161.340541 
L 153.20444 161.340541 
L 153.263508 160.910023 
L 153.381062 160.910023 
L 153.43955 160.479504 
L 153.497847 160.479504 
L 153.497847 160.264245 
L 153.613874 160.264245 
L 153.613874 160.048986 
L 153.729153 160.048986 
L 153.729153 159.833727 
L 153.900688 159.833727 
L 153.957503 159.403208 
L 154.12687 159.403208 
L 154.182971 158.326913 
L 154.294647 158.326913 
L 154.350224 157.896394 
L 154.460863 157.896394 
L 154.515927 157.465876 
L 154.625547 157.465876 
L 154.7345 157.035358 
L 154.788728 157.035358 
L 154.896692 156.38958 
L 154.950431 156.38958 
L 155.057426 155.528543 
L 155.163784 155.528543 
L 155.269513 154.882766 
L 155.322144 154.882766 
L 155.426942 154.452247 
L 155.686281 154.452247 
L 155.686281 154.236988 
L 155.840096 154.236988 
L 155.840096 154.021729 
L 156.043145 154.021729 
L 156.143811 153.375952 
L 156.193932 153.375952 
L 156.293754 152.514915 
L 156.393022 152.514915 
L 156.491741 151.653878 
L 156.540897 151.653878 
L 156.589918 151.008101 
L 156.736179 151.008101 
L 156.784667 150.577582 
L 157.025157 150.577582 
L 157.025157 150.362323 
L 157.403332 150.362323 
L 157.496639 149.286027 
L 157.54311 149.286027 
L 157.58946 148.855509 
L 157.727795 148.855509 
L 157.819426 148.209731 
L 157.91059 148.209731 
L 158.001292 147.348695 
L 158.04647 147.348695 
L 158.136486 146.702917 
L 158.270665 146.702917 
L 158.359562 145.626621 
L 158.403845 145.626621 
L 158.492082 144.765585 
L 158.536038 144.765585 
L 158.623627 143.904548 
L 158.667261 143.904548 
L 158.754211 143.043511 
L 158.797528 143.043511 
L 158.883847 142.397734 
L 158.969752 142.397734 
L 159.01255 141.536697 
L 159.140332 141.536697 
L 159.225015 141.106179 
L 159.267206 141.106179 
L 159.309299 140.460401 
L 159.642513 140.460401 
L 159.724855 139.814624 
L 159.765884 139.814624 
L 159.806819 139.168846 
L 159.888409 139.168846 
L 159.969627 138.523069 
L 160.130966 138.523069 
L 160.130966 138.307809 
L 160.370275 138.307809 
L 160.449337 137.877291 
L 160.567279 137.877291 
L 160.645477 137.016254 
L 160.762135 137.016254 
L 160.800853 136.370477 
L 160.878037 136.370477 
L 160.954889 135.50944 
L 160.993191 135.50944 
L 161.069551 134.648404 
L 161.107609 134.648404 
L 161.107609 134.433144 
L 161.221298 134.433144 
L 161.259034 133.787367 
L 161.334269 133.787367 
L 161.409188 133.141589 
L 161.44653 133.141589 
L 161.52098 132.065293 
L 161.558089 132.065293 
L 161.668957 127.114332 
L 161.705761 127.114332 
L 161.742488 126.683814 
L 161.88865 126.683814 
L 161.961284 126.038037 
L 162.213206 126.038037 
L 162.213206 125.822777 
L 162.567041 125.822777 
L 162.67184 125.392259 
L 162.914006 125.392259 
L 162.914006 125.177 
L 163.422138 125.177 
L 163.422138 124.961741 
L 163.621413 124.961741 
L 163.621413 124.746482 
L 163.916219 124.746482 
L 163.981076 124.315963 
L 164.077923 124.315963 
L 164.077923 124.100704 
L 164.491628 124.100704 
L 164.491628 123.885445 
L 164.9267 123.885445 
L 164.9267 123.670186 
L 165.07955 123.670186 
L 165.07955 123.239667 
L 165.470948 123.239667 
L 165.53041 122.809149 
L 165.853956 122.809149 
L 165.941189 122.163372 
L 165.970172 122.163372 
L 165.970172 121.948112 
L 166.171749 121.948112 
L 166.171749 121.732853 
L 166.483987 121.732853 
L 166.483987 121.517594 
L 166.652027 121.517594 
L 166.652027 121.302335 
L 166.928629 121.302335 
L 167.010781 120.871816 
L 167.281926 120.871816 
L 167.362474 120.441298 
L 167.601961 120.441298 
L 167.601961 120.226039 
L 167.759854 120.226039 
L 167.759854 120.01078 
L 167.968231 120.01078 
L 167.968231 119.795521 
L 168.122934 119.795521 
L 168.122934 119.580261 
L 168.377833 119.580261 
L 168.377833 119.365002 
L 168.529045 119.365002 
L 168.604174 118.934484 
L 168.876975 118.934484 
L 168.876975 118.719225 
L 169.097119 118.719225 
L 169.169902 118.288706 
L 169.386487 118.288706 
L 169.386487 118.073447 
L 169.553147 118.073447 
L 169.553147 117.858188 
L 169.905124 117.858188 
L 169.905124 117.642929 
L 170.043996 117.642929 
L 170.043996 117.42767 
L 170.227495 117.42767 
L 170.227495 117.212411 
L 170.363894 117.212411 
L 170.431704 116.566633 
L 170.499259 116.566633 
L 170.566559 115.920855 
L 170.678165 115.920855 
L 170.789079 115.275078 
L 170.855298 115.275078 
L 170.855298 115.059819 
L 170.987004 115.059819 
L 171.096023 114.414041 
L 171.117747 114.414041 
L 171.182762 113.553005 
L 171.269081 113.553005 
L 171.376398 111.830931 
L 171.419144 111.830931 
L 171.525566 110.324117 
L 171.546774 110.324117 
L 171.652441 106.87997 
L 171.694533 106.87997 
L 171.799331 104.512119 
L 171.965741 104.512119 
L 172.027747 104.081601 
L 172.5162 104.081601 
L 172.5162 103.866342 
L 172.834571 103.866342 
L 172.834571 103.651083 
L 172.972095 103.651083 
L 172.991655 103.005305 
L 173.127979 103.005305 
L 173.127979 102.790046 
L 173.397546 102.790046 
L 173.492843 101.929009 
L 173.587634 101.929009 
L 173.644269 101.498491 
L 173.719503 101.498491 
L 173.719503 101.283232 
L 173.943323 101.283232 
L 173.943323 101.067973 
L 174.109368 101.067973 
L 174.109368 100.852713 
L 174.382726 100.852713 
L 174.400802 99.776418 
L 174.829228 99.776418 
L 174.882067 98.700122 
L 175.143939 98.700122 
L 175.161262 97.839085 
L 175.264845 97.839085 
L 175.367832 96.332271 
L 175.470228 96.332271 
L 175.470228 95.686493 
L 176.463157 95.686493 
L 176.463157 95.471234 
L 176.845377 95.471234 
L 176.845377 95.040716 
L 178.07815 95.040716 
L 178.180798 94.610197 
L 178.297393 94.610197 
L 178.36988 94.179679 
L 179.023318 94.179679 
L 179.023318 93.96442 
L 179.13456 93.96442 
L 179.13456 93.749161 
L 179.653701 93.749161 
L 179.653701 93.533901 
L 179.867853 93.533901 
L 179.894442 93.103383 
L 180.131984 93.103383 
L 180.171269 92.672865 
L 180.24958 92.672865 
L 180.262599 92.242346 
L 180.366408 92.242346 
L 180.366408 92.027087 
L 180.939357 92.027087 
L 181.001899 91.596569 
L 181.212918 91.596569 
L 181.212918 91.38131 
L 182.021131 91.38131 
L 182.021131 91.166051 
L 183.196413 91.166051 
L 183.196413 90.950791 
L 183.502981 90.950791 
L 183.502981 90.735532 
L 184.709682 90.735532 
L 184.709682 90.520273 
L 185.170432 90.520273 
L 185.170432 90.305014 
L 185.347541 90.305014 
L 185.347541 90.089755 
L 185.725357 90.089755 
L 185.725357 89.874496 
L 186.20767 89.874496 
L 186.20767 89.659236 
L 186.430213 89.659236 
L 186.430213 89.443977 
L 186.577049 89.443977 
L 186.577049 89.228718 
L 187.170311 89.228718 
L 187.170311 89.013459 
L 187.693063 89.013459 
L 187.693063 88.7982 
L 187.889464 88.7982 
L 187.889464 88.582941 
L 188.284217 88.582941 
L 188.358823 88.152422 
L 188.759635 88.152422 
L 188.864481 87.506645 
L 188.952719 87.506645 
L 189.032558 86.860867 
L 189.072345 86.860867 
L 189.159565 86.21509 
L 189.230611 86.21509 
L 189.277819 85.569312 
L 189.379676 85.569312 
L 189.473186 84.708275 
L 189.512004 84.708275 
L 189.512004 84.493016 
L 189.63566 84.493016 
L 189.712512 83.847239 
L 189.750814 83.847239 
L 189.857627 82.770943 
L 190.039261 82.770943 
L 190.1144 82.125165 
L 190.159333 82.125165 
L 190.23397 81.264129 
L 190.278603 81.264129 
L 190.374927 80.618351 
L 190.404462 80.618351 
L 190.500112 79.972574 
L 190.668094 79.972574 
L 190.769577 79.326796 
L 190.834512 79.326796 
L 190.913559 78.896278 
L 190.977975 78.896278 
L 191.077717 78.2505 
L 191.148622 78.2505 
L 191.240381 77.819982 
L 191.310645 77.819982 
L 191.345673 77.389464 
L 191.457306 77.389464 
L 191.561332 76.743686 
L 191.657879 76.743686 
L 191.733373 76.313168 
L 191.815369 76.313168 
L 191.896989 75.882649 
L 191.951197 75.882649 
L 191.984993 75.452131 
L 192.233119 75.452131 
L 192.233119 75.236872 
L 192.523771 75.236872 
L 192.523771 75.021613 
L 192.841983 75.021613 
L 192.841983 74.806353 
L 193.046778 74.806353 
L 193.148301 74.160576 
L 193.418322 74.160576 
L 193.461895 73.730058 
L 193.536346 73.730058 
L 193.604321 73.299539 
L 194.228571 73.299539 
L 194.228571 73.08428 
L 194.406365 73.08428 
L 194.406365 72.869021 
L 194.722002 72.869021 
L 194.820227 72.438503 
L 195.071975 72.438503 
L 195.145682 71.792725 
L 195.280961 71.792725 
L 195.280961 71.577466 
L 195.404074 71.577466 
L 195.404074 71.362207 
L 195.537419 71.362207 
L 195.625766 70.716429 
L 195.691741 70.716429 
L 195.719158 70.285911 
L 195.822964 70.285911 
L 195.899068 69.640133 
L 196.018009 69.640133 
L 196.114739 68.563837 
L 196.178935 68.563837 
L 196.258859 68.133319 
L 196.327837 68.133319 
L 196.41764 67.272282 
L 196.48076 67.272282 
L 196.543658 66.841764 
L 196.606334 66.841764 
L 196.637591 66.195987 
L 196.823988 66.195987 
L 196.823988 65.980727 
L 196.993161 65.980727 
L 197.099989 65.33495 
L 197.231372 65.33495 
L 197.231372 65.119691 
L 197.351798 65.119691 
L 197.436611 64.689172 
L 197.908145 64.689172 
L 197.908145 64.473913 
L 198.028925 64.473913 
L 198.028925 64.258654 
L 198.291801 64.258654 
L 198.291801 64.043395 
L 198.65345 64.043395 
L 198.65345 63.828136 
L 199.112456 63.828136 
L 199.112456 63.612876 
L 199.533428 63.612876 
L 199.630538 63.182358 
L 199.656931 63.182358 
L 199.656931 62.967099 
L 200.026704 62.967099 
L 200.026704 62.75184 
L 201.059734 62.75184 
L 201.059734 62.536581 
L 202.394351 62.536581 
L 202.394351 62.321321 
L 203.706395 62.321321 
L 203.706395 62.106062 
L 203.863394 62.106062 
L 203.863394 61.890803 
L 204.029353 61.890803 
L 204.132299 61.460285 
L 204.163068 61.460285 
L 204.163068 61.245026 
L 204.380354 61.245026 
L 204.380354 61.029766 
L 204.691461 61.029766 
L 204.691461 60.814507 
L 204.833495 60.814507 
L 204.833495 60.599248 
L 204.993983 60.599248 
L 204.993983 60.383989 
L 205.146578 60.383989 
L 205.146578 60.16873 
L 205.269007 60.16873 
L 205.355489 59.738211 
L 205.495532 59.738211 
L 205.596696 59.307693 
L 205.684748 59.307693 
L 205.684748 59.092434 
L 206.038829 59.092434 
L 206.038829 58.877175 
L 207.139074 58.877175 
L 207.188166 58.446656 
L 207.257244 58.446656 
L 207.348935 58.016138 
L 207.443 58.016138 
L 207.496935 57.58562 
L 208.200025 57.58562 
L 208.200025 57.37036 
L 208.755388 57.37036 
L 208.755388 57.155101 
L 210.230249 57.155101 
L 210.339372 54.571991 
L 210.351455 54.571991 
L 210.459842 51.773622 
L 210.471845 51.773622 
L 210.558025 50.697326 
L 212.186634 50.697326 
L 212.288806 50.266808 
L 212.373146 50.266808 
L 212.480695 49.62103 
L 212.544915 49.62103 
L 212.630184 49.190512 
L 212.687512 49.190512 
L 212.797405 48.544734 
L 212.875188 48.544734 
L 212.925462 48.114216 
L 213.021426 48.114216 
L 213.125154 47.683698 
L 213.203587 47.683698 
L 213.244729 47.253179 
L 213.324685 47.253179 
L 213.43074 46.822661 
L 213.461216 46.822661 
L 213.522013 46.392143 
L 213.576553 46.392143 
L 213.679122 45.961624 
L 213.691151 45.961624 
L 213.761155 45.531106 
L 213.810991 45.531106 
L 213.860688 45.100588 
L 213.928055 45.100588 
L 214.030599 44.45481 
L 214.111037 44.45481 
L 214.216431 44.024292 
L 214.25725 44.024292 
L 214.352134 43.593773 
L 216.426628 43.593773 
L 216.426628 43.378514 
L 227.645721 43.378514 
L 227.645721 43.163255 
L 234.65566 43.163255 
L 234.65566 42.947996 
L 241.512841 42.947996 
L 241.512841 42.732737 
L 245.634225 42.732737 
L 245.634225 42.517478 
L 257.35219 42.517478 
L 257.35219 42.302218 
L 261.384197 42.302218 
L 261.384197 42.086959 
L 272.056184 42.086959 
L 272.056184 41.8717 
L 279.648461 41.8717 
L 279.649261 34.768147 
L 358.8 34.768147 
L 358.8 34.768147 
" style="fill:none;stroke:#f5deb3;stroke-linecap:square;stroke-width:6;"/>
   </g>
   <g id="line2d_2"/>
   <g id="line2d_3">
    <path d="M 358.8 34.768147 
L 390.48 40.037692 
" style="fill:none;stroke:#f5deb3;stroke-linecap:square;stroke-width:6;"/>
    <defs>
     <path d="M -0 7.778175 
L 7.778175 0 
L 0 -7.778175 
L -7.778175 -0 
z
" id="maf6425dece" style="stroke:#f5deb3;stroke-linejoin:miter;stroke-width:1.5;"/>
    </defs>
    <g>
     <use style="fill:#f5deb3;stroke:#f5deb3;stroke-linejoin:miter;stroke-width:1.5;" x="358.8" xlink:href="#maf6425dece" y="34.768147"/>
     <use style="fill:#f5deb3;stroke:#f5deb3;stroke-linejoin:miter;stroke-width:1.5;" x="390.48" xlink:href="#maf6425dece" y="40.037692"/>
    </g>
   </g>
   <g id="matplotlib.axis_1">
    <g id="xtick_1">
     <g id="line2d_4">
      <path clip-path="url(#p08955cf508)" d="M 70.8 298.245375 
L 70.8 32.133375 
" style="fill:none;stroke:#b0b0b0;stroke-linecap:square;stroke-width:0.8;"/>
     </g>
     <g id="line2d_5">
      <defs>
       <path d="M 0 0 
L 0 3.5 
" id="m4bfa532aca" style="stroke:#000000;stroke-width:0.8;"/>
      </defs>
      <g>
       <use style="stroke:#000000;stroke-width:0.8;" x="70.8" xlink:href="#m4bfa532aca" y="298.245375"/>
      </g>
     </g>
     <g id="text_1">
      <!-- 0 -->
      <defs>
       <path d="M 31.78125 66.40625 
Q 24.171875 66.40625 20.328125 58.90625 
Q 16.5 51.421875 16.5 36.375 
Q 16.5 21.390625 20.328125 13.890625 
Q 24.171875 6.390625 31.78125 6.390625 
Q 39.453125 6.390625 43.28125 13.890625 
Q 47.125 21.390625 47.125 36.375 
Q 47.125 51.421875 43.28125 58.90625 
Q 39.453125 66.40625 31.78125 66.40625 
M 31.78125 74.21875 
Q 44.046875 74.21875 50.515625 64.515625 
Q 56.984375 54.828125 56.984375 36.375 
Q 56.984375 17.96875 50.515625 8.265625 
Q 44.046875 -1.421875 31.78125 -1.421875 
Q 19.53125 -1.421875 13.0625 8.265625 
Q 6.59375 17.96875 6.59375 36.375 
Q 6.59375 54.828125 13.0625 64.515625 
Q 19.53125 74.21875 31.78125 74.21875 
" id="DejaVuSans-30"/>
      </defs>
      <g transform="translate(64.4375 320.44225)scale(0.2 -0.2)">
       <use xlink:href="#DejaVuSans-30"/>
      </g>
     </g>
    </g>
    <g id="xtick_2">
     <g id="line2d_6">
      <path clip-path="url(#p08955cf508)" d="M 153.085714 298.245375 
L 153.085714 32.133375 
" style="fill:none;stroke:#b0b0b0;stroke-linecap:square;stroke-width:0.8;"/>
     </g>
     <g id="line2d_7">
      <g>
       <use style="stroke:#000000;stroke-width:0.8;" x="153.085714" xlink:href="#m4bfa532aca" y="298.245375"/>
      </g>
     </g>
     <g id="text_2">
      <!-- 2 -->
      <defs>
       <path d="M 19.1875 8.296875 
L 53.609375 8.296875 
L 53.609375 0 
L 7.328125 0 
L 7.328125 8.296875 
Q 12.9375 14.109375 22.625 23.890625 
Q 32.328125 33.6875 34.8125 36.53125 
Q 39.546875 41.84375 41.421875 45.53125 
Q 43.3125 49.21875 43.3125 52.78125 
Q 43.3125 58.59375 39.234375 62.25 
Q 35.15625 65.921875 28.609375 65.921875 
Q 23.96875 65.921875 18.8125 64.3125 
Q 13.671875 62.703125 7.8125 59.421875 
L 7.8125 69.390625 
Q 13.765625 71.78125 18.9375 73 
Q 24.125 74.21875 28.421875 74.21875 
Q 39.75 74.21875 46.484375 68.546875 
Q 53.21875 62.890625 53.21875 53.421875 
Q 53.21875 48.921875 51.53125 44.890625 
Q 49.859375 40.875 45.40625 35.40625 
Q 44.1875 33.984375 37.640625 27.21875 
Q 31.109375 20.453125 19.1875 8.296875 
" id="DejaVuSans-32"/>
      </defs>
      <g transform="translate(146.723214 320.44225)scale(0.2 -0.2)">
       <use xlink:href="#DejaVuSans-32"/>
      </g>
     </g>
    </g>
    <g id="xtick_3">
     <g id="line2d_8">
      <path clip-path="url(#p08955cf508)" d="M 235.371429 298.245375 
L 235.371429 32.133375 
" style="fill:none;stroke:#b0b0b0;stroke-linecap:square;stroke-width:0.8;"/>
     </g>
     <g id="line2d_9">
      <g>
       <use style="stroke:#000000;stroke-width:0.8;" x="235.371429" xlink:href="#m4bfa532aca" y="298.245375"/>
      </g>
     </g>
     <g id="text_3">
      <!-- 4 -->
      <defs>
       <path d="M 37.796875 64.3125 
L 12.890625 25.390625 
L 37.796875 25.390625 
z
M 35.203125 72.90625 
L 47.609375 72.90625 
L 47.609375 25.390625 
L 58.015625 25.390625 
L 58.015625 17.1875 
L 47.609375 17.1875 
L 47.609375 0 
L 37.796875 0 
L 37.796875 17.1875 
L 4.890625 17.1875 
L 4.890625 26.703125 
z
" id="DejaVuSans-34"/>
      </defs>
      <g transform="translate(229.008929 320.44225)scale(0.2 -0.2)">
       <use xlink:href="#DejaVuSans-34"/>
      </g>
     </g>
    </g>
    <g id="xtick_4">
     <g id="line2d_10">
      <path clip-path="url(#p08955cf508)" d="M 317.657143 298.245375 
L 317.657143 32.133375 
" style="fill:none;stroke:#b0b0b0;stroke-linecap:square;stroke-width:0.8;"/>
     </g>
     <g id="line2d_11">
      <g>
       <use style="stroke:#000000;stroke-width:0.8;" x="317.657143" xlink:href="#m4bfa532aca" y="298.245375"/>
      </g>
     </g>
     <g id="text_4">
      <!-- 6 -->
      <defs>
       <path d="M 33.015625 40.375 
Q 26.375 40.375 22.484375 35.828125 
Q 18.609375 31.296875 18.609375 23.390625 
Q 18.609375 15.53125 22.484375 10.953125 
Q 26.375 6.390625 33.015625 6.390625 
Q 39.65625 6.390625 43.53125 10.953125 
Q 47.40625 15.53125 47.40625 23.390625 
Q 47.40625 31.296875 43.53125 35.828125 
Q 39.65625 40.375 33.015625 40.375 
M 52.59375 71.296875 
L 52.59375 62.3125 
Q 48.875 64.0625 45.09375 64.984375 
Q 41.3125 65.921875 37.59375 65.921875 
Q 27.828125 65.921875 22.671875 59.328125 
Q 17.53125 52.734375 16.796875 39.40625 
Q 19.671875 43.65625 24.015625 45.921875 
Q 28.375 48.1875 33.59375 48.1875 
Q 44.578125 48.1875 50.953125 41.515625 
Q 57.328125 34.859375 57.328125 23.390625 
Q 57.328125 12.15625 50.6875 5.359375 
Q 44.046875 -1.421875 33.015625 -1.421875 
Q 20.359375 -1.421875 13.671875 8.265625 
Q 6.984375 17.96875 6.984375 36.375 
Q 6.984375 53.65625 15.1875 63.9375 
Q 23.390625 74.21875 37.203125 74.21875 
Q 40.921875 74.21875 44.703125 73.484375 
Q 48.484375 72.75 52.59375 71.296875 
" id="DejaVuSans-36"/>
      </defs>
      <g transform="translate(311.294643 320.44225)scale(0.2 -0.2)">
       <use xlink:href="#DejaVuSans-36"/>
      </g>
     </g>
    </g>
    <g id="xtick_5">
     <g id="line2d_12">
      <path clip-path="url(#p08955cf508)" d="M 399.942857 298.245375 
L 399.942857 32.133375 
" style="fill:none;stroke:#b0b0b0;stroke-linecap:square;stroke-width:0.8;"/>
     </g>
     <g id="line2d_13">
      <g>
       <use style="stroke:#000000;stroke-width:0.8;" x="399.942857" xlink:href="#m4bfa532aca" y="298.245375"/>
      </g>
     </g>
     <g id="text_5">
      <!-- 8 -->
      <defs>
       <path d="M 31.78125 34.625 
Q 24.75 34.625 20.71875 30.859375 
Q 16.703125 27.09375 16.703125 20.515625 
Q 16.703125 13.921875 20.71875 10.15625 
Q 24.75 6.390625 31.78125 6.390625 
Q 38.8125 6.390625 42.859375 10.171875 
Q 46.921875 13.96875 46.921875 20.515625 
Q 46.921875 27.09375 42.890625 30.859375 
Q 38.875 34.625 31.78125 34.625 
M 21.921875 38.8125 
Q 15.578125 40.375 12.03125 44.71875 
Q 8.5 49.078125 8.5 55.328125 
Q 8.5 64.0625 14.71875 69.140625 
Q 20.953125 74.21875 31.78125 74.21875 
Q 42.671875 74.21875 48.875 69.140625 
Q 55.078125 64.0625 55.078125 55.328125 
Q 55.078125 49.078125 51.53125 44.71875 
Q 48 40.375 41.703125 38.8125 
Q 48.828125 37.15625 52.796875 32.3125 
Q 56.78125 27.484375 56.78125 20.515625 
Q 56.78125 9.90625 50.3125 4.234375 
Q 43.84375 -1.421875 31.78125 -1.421875 
Q 19.734375 -1.421875 13.25 4.234375 
Q 6.78125 9.90625 6.78125 20.515625 
Q 6.78125 27.484375 10.78125 32.3125 
Q 14.796875 37.15625 21.921875 38.8125 
M 18.3125 54.390625 
Q 18.3125 48.734375 21.84375 45.5625 
Q 25.390625 42.390625 31.78125 42.390625 
Q 38.140625 42.390625 41.71875 45.5625 
Q 45.3125 48.734375 45.3125 54.390625 
Q 45.3125 60.0625 41.71875 63.234375 
Q 38.140625 66.40625 31.78125 66.40625 
Q 25.390625 66.40625 21.84375 63.234375 
Q 18.3125 60.0625 18.3125 54.390625 
" id="DejaVuSans-38"/>
      </defs>
      <g transform="translate(393.580357 320.44225)scale(0.2 -0.2)">
       <use xlink:href="#DejaVuSans-38"/>
      </g>
     </g>
    </g>
    <g id="xtick_6">
     <g id="line2d_14">
      <defs>
       <path d="M 0 0 
L 0 2 
" id="mad00ca32bd" style="stroke:#000000;stroke-width:0.6;"/>
      </defs>
      <g>
       <use style="stroke:#000000;stroke-width:0.6;" x="83.185234" xlink:href="#mad00ca32bd" y="298.245375"/>
      </g>
     </g>
    </g>
    <g id="xtick_7">
     <g id="line2d_15">
      <g>
       <use style="stroke:#000000;stroke-width:0.6;" x="95.570468" xlink:href="#mad00ca32bd" y="298.245375"/>
      </g>
     </g>
    </g>
    <g id="xtick_8">
     <g id="line2d_16">
      <g>
       <use style="stroke:#000000;stroke-width:0.6;" x="102.815366" xlink:href="#mad00ca32bd" y="298.245375"/>
      </g>
     </g>
    </g>
    <g id="xtick_9">
     <g id="line2d_17">
      <g>
       <use style="stroke:#000000;stroke-width:0.6;" x="107.955702" xlink:href="#mad00ca32bd" y="298.245375"/>
      </g>
     </g>
    </g>
    <g id="xtick_10">
     <g id="line2d_18">
      <g>
       <use style="stroke:#000000;stroke-width:0.6;" x="165.470948" xlink:href="#mad00ca32bd" y="298.245375"/>
      </g>
     </g>
    </g>
    <g id="xtick_11">
     <g id="line2d_19">
      <g>
       <use style="stroke:#000000;stroke-width:0.6;" x="177.856183" xlink:href="#mad00ca32bd" y="298.245375"/>
      </g>
     </g>
    </g>
    <g id="xtick_12">
     <g id="line2d_20">
      <g>
       <use style="stroke:#000000;stroke-width:0.6;" x="185.10108" xlink:href="#mad00ca32bd" y="298.245375"/>
      </g>
     </g>
    </g>
    <g id="xtick_13">
     <g id="line2d_21">
      <g>
       <use style="stroke:#000000;stroke-width:0.6;" x="190.241417" xlink:href="#mad00ca32bd" y="298.245375"/>
      </g>
     </g>
    </g>
    <g id="xtick_14">
     <g id="line2d_22">
      <g>
       <use style="stroke:#000000;stroke-width:0.6;" x="247.756663" xlink:href="#mad00ca32bd" y="298.245375"/>
      </g>
     </g>
    </g>
    <g id="xtick_15">
     <g id="line2d_23">
      <g>
       <use style="stroke:#000000;stroke-width:0.6;" x="260.141897" xlink:href="#mad00ca32bd" y="298.245375"/>
      </g>
     </g>
    </g>
    <g id="xtick_16">
     <g id="line2d_24">
      <g>
       <use style="stroke:#000000;stroke-width:0.6;" x="267.386794" xlink:href="#mad00ca32bd" y="298.245375"/>
      </g>
     </g>
    </g>
    <g id="xtick_17">
     <g id="line2d_25">
      <g>
       <use style="stroke:#000000;stroke-width:0.6;" x="272.527131" xlink:href="#mad00ca32bd" y="298.245375"/>
      </g>
     </g>
    </g>
    <g id="xtick_18">
     <g id="line2d_26">
      <g>
       <use style="stroke:#000000;stroke-width:0.6;" x="330.042377" xlink:href="#mad00ca32bd" y="298.245375"/>
      </g>
     </g>
    </g>
    <g id="xtick_19">
     <g id="line2d_27">
      <g>
       <use style="stroke:#000000;stroke-width:0.6;" x="342.427611" xlink:href="#mad00ca32bd" y="298.245375"/>
      </g>
     </g>
    </g>
    <g id="xtick_20">
     <g id="line2d_28">
      <g>
       <use style="stroke:#000000;stroke-width:0.6;" x="349.672509" xlink:href="#mad00ca32bd" y="298.245375"/>
      </g>
     </g>
    </g>
    <g id="xtick_21">
     <g id="line2d_29">
      <g>
       <use style="stroke:#000000;stroke-width:0.6;" x="354.812845" xlink:href="#mad00ca32bd" y="298.245375"/>
      </g>
     </g>
    </g>
    <g id="xtick_22">
     <g id="line2d_30">
      <g>
       <use style="stroke:#000000;stroke-width:0.6;" x="412.328091" xlink:href="#mad00ca32bd" y="298.245375"/>
      </g>
     </g>
    </g>
    <g id="xtick_23">
     <g id="line2d_31">
      <g>
       <use style="stroke:#000000;stroke-width:0.6;" x="424.713325" xlink:href="#mad00ca32bd" y="298.245375"/>
      </g>
     </g>
    </g>
    <g id="text_6">
     <!-- log10 of (# f-evals / dimension) -->
     <defs>
      <path d="M 9.421875 75.984375 
L 18.40625 75.984375 
L 18.40625 0 
L 9.421875 0 
z
" id="DejaVuSans-6c"/>
      <path d="M 30.609375 48.390625 
Q 23.390625 48.390625 19.1875 42.75 
Q 14.984375 37.109375 14.984375 27.296875 
Q 14.984375 17.484375 19.15625 11.84375 
Q 23.34375 6.203125 30.609375 6.203125 
Q 37.796875 6.203125 41.984375 11.859375 
Q 46.1875 17.53125 46.1875 27.296875 
Q 46.1875 37.015625 41.984375 42.703125 
Q 37.796875 48.390625 30.609375 48.390625 
M 30.609375 56 
Q 42.328125 56 49.015625 48.375 
Q 55.71875 40.765625 55.71875 27.296875 
Q 55.71875 13.875 49.015625 6.21875 
Q 42.328125 -1.421875 30.609375 -1.421875 
Q 18.84375 -1.421875 12.171875 6.21875 
Q 5.515625 13.875 5.515625 27.296875 
Q 5.515625 40.765625 12.171875 48.375 
Q 18.84375 56 30.609375 56 
" id="DejaVuSans-6f"/>
      <path d="M 45.40625 27.984375 
Q 45.40625 37.75 41.375 43.109375 
Q 37.359375 48.484375 30.078125 48.484375 
Q 22.859375 48.484375 18.828125 43.109375 
Q 14.796875 37.75 14.796875 27.984375 
Q 14.796875 18.265625 18.828125 12.890625 
Q 22.859375 7.515625 30.078125 7.515625 
Q 37.359375 7.515625 41.375 12.890625 
Q 45.40625 18.265625 45.40625 27.984375 
M 54.390625 6.78125 
Q 54.390625 -7.171875 48.1875 -13.984375 
Q 42 -20.796875 29.203125 -20.796875 
Q 24.46875 -20.796875 20.265625 -20.09375 
Q 16.0625 -19.390625 12.109375 -17.921875 
L 12.109375 -9.1875 
Q 16.0625 -11.328125 19.921875 -12.34375 
Q 23.78125 -13.375 27.78125 -13.375 
Q 36.625 -13.375 41.015625 -8.765625 
Q 45.40625 -4.15625 45.40625 5.171875 
L 45.40625 9.625 
Q 42.625 4.78125 38.28125 2.390625 
Q 33.9375 0 27.875 0 
Q 17.828125 0 11.671875 7.65625 
Q 5.515625 15.328125 5.515625 27.984375 
Q 5.515625 40.671875 11.671875 48.328125 
Q 17.828125 56 27.875 56 
Q 33.9375 56 38.28125 53.609375 
Q 42.625 51.21875 45.40625 46.390625 
L 45.40625 54.6875 
L 54.390625 54.6875 
z
" id="DejaVuSans-67"/>
      <path d="M 12.40625 8.296875 
L 28.515625 8.296875 
L 28.515625 63.921875 
L 10.984375 60.40625 
L 10.984375 69.390625 
L 28.421875 72.90625 
L 38.28125 72.90625 
L 38.28125 8.296875 
L 54.390625 8.296875 
L 54.390625 0 
L 12.40625 0 
z
" id="DejaVuSans-31"/>
      <path id="DejaVuSans-20"/>
      <path d="M 37.109375 75.984375 
L 37.109375 68.5 
L 28.515625 68.5 
Q 23.6875 68.5 21.796875 66.546875 
Q 19.921875 64.59375 19.921875 59.515625 
L 19.921875 54.6875 
L 34.71875 54.6875 
L 34.71875 47.703125 
L 19.921875 47.703125 
L 19.921875 0 
L 10.890625 0 
L 10.890625 47.703125 
L 2.296875 47.703125 
L 2.296875 54.6875 
L 10.890625 54.6875 
L 10.890625 58.5 
Q 10.890625 67.625 15.140625 71.796875 
Q 19.390625 75.984375 28.609375 75.984375 
z
" id="DejaVuSans-66"/>
      <path d="M 31 75.875 
Q 24.46875 64.65625 21.28125 53.65625 
Q 18.109375 42.671875 18.109375 31.390625 
Q 18.109375 20.125 21.3125 9.0625 
Q 24.515625 -2 31 -13.1875 
L 23.1875 -13.1875 
Q 15.875 -1.703125 12.234375 9.375 
Q 8.59375 20.453125 8.59375 31.390625 
Q 8.59375 42.28125 12.203125 53.3125 
Q 15.828125 64.359375 23.1875 75.875 
z
" id="DejaVuSans-28"/>
      <path d="M 51.125 44 
L 36.921875 44 
L 32.8125 27.6875 
L 47.125 27.6875 
z
M 43.796875 71.78125 
L 38.71875 51.515625 
L 52.984375 51.515625 
L 58.109375 71.78125 
L 65.921875 71.78125 
L 60.890625 51.515625 
L 76.125 51.515625 
L 76.125 44 
L 58.984375 44 
L 54.984375 27.6875 
L 70.515625 27.6875 
L 70.515625 20.21875 
L 53.078125 20.21875 
L 48 0 
L 40.1875 0 
L 45.21875 20.21875 
L 30.90625 20.21875 
L 25.875 0 
L 18.015625 0 
L 23.09375 20.21875 
L 7.71875 20.21875 
L 7.71875 27.6875 
L 24.90625 27.6875 
L 29 44 
L 13.28125 44 
L 13.28125 51.515625 
L 30.90625 51.515625 
L 35.890625 71.78125 
z
" id="DejaVuSans-23"/>
      <path d="M 4.890625 31.390625 
L 31.203125 31.390625 
L 31.203125 23.390625 
L 4.890625 23.390625 
z
" id="DejaVuSans-2d"/>
      <path d="M 56.203125 29.59375 
L 56.203125 25.203125 
L 14.890625 25.203125 
Q 15.484375 15.921875 20.484375 11.0625 
Q 25.484375 6.203125 34.421875 6.203125 
Q 39.59375 6.203125 44.453125 7.46875 
Q 49.3125 8.734375 54.109375 11.28125 
L 54.109375 2.78125 
Q 49.265625 0.734375 44.1875 -0.34375 
Q 39.109375 -1.421875 33.890625 -1.421875 
Q 20.796875 -1.421875 13.15625 6.1875 
Q 5.515625 13.8125 5.515625 26.8125 
Q 5.515625 40.234375 12.765625 48.109375 
Q 20.015625 56 32.328125 56 
Q 43.359375 56 49.78125 48.890625 
Q 56.203125 41.796875 56.203125 29.59375 
M 47.21875 32.234375 
Q 47.125 39.59375 43.09375 43.984375 
Q 39.0625 48.390625 32.421875 48.390625 
Q 24.90625 48.390625 20.390625 44.140625 
Q 15.875 39.890625 15.1875 32.171875 
z
" id="DejaVuSans-65"/>
      <path d="M 2.984375 54.6875 
L 12.5 54.6875 
L 29.59375 8.796875 
L 46.6875 54.6875 
L 56.203125 54.6875 
L 35.6875 0 
L 23.484375 0 
z
" id="DejaVuSans-76"/>
      <path d="M 34.28125 27.484375 
Q 23.390625 27.484375 19.1875 25 
Q 14.984375 22.515625 14.984375 16.5 
Q 14.984375 11.71875 18.140625 8.90625 
Q 21.296875 6.109375 26.703125 6.109375 
Q 34.1875 6.109375 38.703125 11.40625 
Q 43.21875 16.703125 43.21875 25.484375 
L 43.21875 27.484375 
z
M 52.203125 31.203125 
L 52.203125 0 
L 43.21875 0 
L 43.21875 8.296875 
Q 40.140625 3.328125 35.546875 0.953125 
Q 30.953125 -1.421875 24.3125 -1.421875 
Q 15.921875 -1.421875 10.953125 3.296875 
Q 6 8.015625 6 15.921875 
Q 6 25.140625 12.171875 29.828125 
Q 18.359375 34.515625 30.609375 34.515625 
L 43.21875 34.515625 
L 43.21875 35.40625 
Q 43.21875 41.609375 39.140625 45 
Q 35.0625 48.390625 27.6875 48.390625 
Q 23 48.390625 18.546875 47.265625 
Q 14.109375 46.140625 10.015625 43.890625 
L 10.015625 52.203125 
Q 14.9375 54.109375 19.578125 55.046875 
Q 24.21875 56 28.609375 56 
Q 40.484375 56 46.34375 49.84375 
Q 52.203125 43.703125 52.203125 31.203125 
" id="DejaVuSans-61"/>
      <path d="M 44.28125 53.078125 
L 44.28125 44.578125 
Q 40.484375 46.53125 36.375 47.5 
Q 32.28125 48.484375 27.875 48.484375 
Q 21.1875 48.484375 17.84375 46.4375 
Q 14.5 44.390625 14.5 40.28125 
Q 14.5 37.15625 16.890625 35.375 
Q 19.28125 33.59375 26.515625 31.984375 
L 29.59375 31.296875 
Q 39.15625 29.25 43.1875 25.515625 
Q 47.21875 21.78125 47.21875 15.09375 
Q 47.21875 7.46875 41.1875 3.015625 
Q 35.15625 -1.421875 24.609375 -1.421875 
Q 20.21875 -1.421875 15.453125 -0.5625 
Q 10.6875 0.296875 5.421875 2 
L 5.421875 11.28125 
Q 10.40625 8.6875 15.234375 7.390625 
Q 20.0625 6.109375 24.8125 6.109375 
Q 31.15625 6.109375 34.5625 8.28125 
Q 37.984375 10.453125 37.984375 14.40625 
Q 37.984375 18.0625 35.515625 20.015625 
Q 33.0625 21.96875 24.703125 23.78125 
L 21.578125 24.515625 
Q 13.234375 26.265625 9.515625 29.90625 
Q 5.8125 33.546875 5.8125 39.890625 
Q 5.8125 47.609375 11.28125 51.796875 
Q 16.75 56 26.8125 56 
Q 31.78125 56 36.171875 55.265625 
Q 40.578125 54.546875 44.28125 53.078125 
" id="DejaVuSans-73"/>
      <path d="M 25.390625 72.90625 
L 33.6875 72.90625 
L 8.296875 -9.28125 
L 0 -9.28125 
z
" id="DejaVuSans-2f"/>
      <path d="M 45.40625 46.390625 
L 45.40625 75.984375 
L 54.390625 75.984375 
L 54.390625 0 
L 45.40625 0 
L 45.40625 8.203125 
Q 42.578125 3.328125 38.25 0.953125 
Q 33.9375 -1.421875 27.875 -1.421875 
Q 17.96875 -1.421875 11.734375 6.484375 
Q 5.515625 14.40625 5.515625 27.296875 
Q 5.515625 40.1875 11.734375 48.09375 
Q 17.96875 56 27.875 56 
Q 33.9375 56 38.25 53.625 
Q 42.578125 51.265625 45.40625 46.390625 
M 14.796875 27.296875 
Q 14.796875 17.390625 18.875 11.75 
Q 22.953125 6.109375 30.078125 6.109375 
Q 37.203125 6.109375 41.296875 11.75 
Q 45.40625 17.390625 45.40625 27.296875 
Q 45.40625 37.203125 41.296875 42.84375 
Q 37.203125 48.484375 30.078125 48.484375 
Q 22.953125 48.484375 18.875 42.84375 
Q 14.796875 37.203125 14.796875 27.296875 
" id="DejaVuSans-64"/>
      <path d="M 9.421875 54.6875 
L 18.40625 54.6875 
L 18.40625 0 
L 9.421875 0 
z
M 9.421875 75.984375 
L 18.40625 75.984375 
L 18.40625 64.59375 
L 9.421875 64.59375 
z
" id="DejaVuSans-69"/>
      <path d="M 52 44.1875 
Q 55.375 50.25 60.0625 53.125 
Q 64.75 56 71.09375 56 
Q 79.640625 56 84.28125 50.015625 
Q 88.921875 44.046875 88.921875 33.015625 
L 88.921875 0 
L 79.890625 0 
L 79.890625 32.71875 
Q 79.890625 40.578125 77.09375 44.375 
Q 74.3125 48.1875 68.609375 48.1875 
Q 61.625 48.1875 57.5625 43.546875 
Q 53.515625 38.921875 53.515625 30.90625 
L 53.515625 0 
L 44.484375 0 
L 44.484375 32.71875 
Q 44.484375 40.625 41.703125 44.40625 
Q 38.921875 48.1875 33.109375 48.1875 
Q 26.21875 48.1875 22.15625 43.53125 
Q 18.109375 38.875 18.109375 30.90625 
L 18.109375 0 
L 9.078125 0 
L 9.078125 54.6875 
L 18.109375 54.6875 
L 18.109375 46.1875 
Q 21.1875 51.21875 25.484375 53.609375 
Q 29.78125 56 35.6875 56 
Q 41.65625 56 45.828125 52.96875 
Q 50 49.953125 52 44.1875 
" id="DejaVuSans-6d"/>
      <path d="M 54.890625 33.015625 
L 54.890625 0 
L 45.90625 0 
L 45.90625 32.71875 
Q 45.90625 40.484375 42.875 44.328125 
Q 39.84375 48.1875 33.796875 48.1875 
Q 26.515625 48.1875 22.3125 43.546875 
Q 18.109375 38.921875 18.109375 30.90625 
L 18.109375 0 
L 9.078125 0 
L 9.078125 54.6875 
L 18.109375 54.6875 
L 18.109375 46.1875 
Q 21.34375 51.125 25.703125 53.5625 
Q 30.078125 56 35.796875 56 
Q 45.21875 56 50.046875 50.171875 
Q 54.890625 44.34375 54.890625 33.015625 
" id="DejaVuSans-6e"/>
      <path d="M 8.015625 75.875 
L 15.828125 75.875 
Q 23.140625 64.359375 26.78125 53.3125 
Q 30.421875 42.28125 30.421875 31.390625 
Q 30.421875 20.453125 26.78125 9.375 
Q 23.140625 -1.703125 15.828125 -13.1875 
L 8.015625 -13.1875 
Q 14.5 -2 17.703125 9.0625 
Q 20.90625 20.125 20.90625 31.390625 
Q 20.90625 42.671875 17.703125 53.65625 
Q 14.5 64.65625 8.015625 75.875 
" id="DejaVuSans-29"/>
     </defs>
     <g transform="translate(107.015156 342.278812)scale(0.18 -0.18)">
      <use xlink:href="#DejaVuSans-6c"/>
      <use x="27.783203" xlink:href="#DejaVuSans-6f"/>
      <use x="88.964844" xlink:href="#DejaVuSans-67"/>
      <use x="152.441406" xlink:href="#DejaVuSans-31"/>
      <use x="216.064453" xlink:href="#DejaVuSans-30"/>
      <use x="279.6875" xlink:href="#DejaVuSans-20"/>
      <use x="311.474609" xlink:href="#DejaVuSans-6f"/>
      <use x="372.65625" xlink:href="#DejaVuSans-66"/>
      <use x="407.861328" xlink:href="#DejaVuSans-20"/>
      <use x="439.648438" xlink:href="#DejaVuSans-28"/>
      <use x="478.662109" xlink:href="#DejaVuSans-23"/>
      <use x="562.451172" xlink:href="#DejaVuSans-20"/>
      <use x="594.238281" xlink:href="#DejaVuSans-66"/>
      <use x="629.365234" xlink:href="#DejaVuSans-2d"/>
      <use x="665.449219" xlink:href="#DejaVuSans-65"/>
      <use x="726.972656" xlink:href="#DejaVuSans-76"/>
      <use x="786.152344" xlink:href="#DejaVuSans-61"/>
      <use x="847.431641" xlink:href="#DejaVuSans-6c"/>
      <use x="875.214844" xlink:href="#DejaVuSans-73"/>
      <use x="927.314453" xlink:href="#DejaVuSans-20"/>
      <use x="959.101562" xlink:href="#DejaVuSans-2f"/>
      <use x="992.792969" xlink:href="#DejaVuSans-20"/>
      <use x="1024.580078" xlink:href="#DejaVuSans-64"/>
      <use x="1088.056641" xlink:href="#DejaVuSans-69"/>
      <use x="1115.839844" xlink:href="#DejaVuSans-6d"/>
      <use x="1213.251953" xlink:href="#DejaVuSans-65"/>
      <use x="1274.775391" xlink:href="#DejaVuSans-6e"/>
      <use x="1338.154297" xlink:href="#DejaVuSans-73"/>
      <use x="1390.253906" xlink:href="#DejaVuSans-69"/>
      <use x="1418.037109" xlink:href="#DejaVuSans-6f"/>
      <use x="1479.21875" xlink:href="#DejaVuSans-6e"/>
      <use x="1542.597656" xlink:href="#DejaVuSans-29"/>
     </g>
    </g>
   </g>
   <g id="matplotlib.axis_2">
    <g id="ytick_1">
     <g id="line2d_32">
      <path clip-path="url(#p08955cf508)" d="M 70.8 298.245375 
L 427.92 298.245375 
" style="fill:none;stroke:#b0b0b0;stroke-linecap:square;stroke-width:0.8;"/>
     </g>
     <g id="line2d_33">
      <defs>
       <path d="M 0 0 
L -3.5 0 
" id="m0bca2f01f8" style="stroke:#000000;stroke-width:0.8;"/>
      </defs>
      <g>
       <use style="stroke:#000000;stroke-width:0.8;" x="70.8" xlink:href="#m0bca2f01f8" y="298.245375"/>
      </g>
     </g>
     <g id="text_7">
      <!-- 0.0 -->
      <defs>
       <path d="M 10.6875 12.40625 
L 21 12.40625 
L 21 0 
L 10.6875 0 
z
" id="DejaVuSans-2e"/>
      </defs>
      <g transform="translate(31.99375 305.843812)scale(0.2 -0.2)">
       <use xlink:href="#DejaVuSans-30"/>
       <use x="63.623047" xlink:href="#DejaVuSans-2e"/>
       <use x="95.410156" xlink:href="#DejaVuSans-30"/>
      </g>
     </g>
    </g>
    <g id="ytick_2">
     <g id="line2d_34">
      <path clip-path="url(#p08955cf508)" d="M 70.8 245.549929 
L 427.92 245.549929 
" style="fill:none;stroke:#b0b0b0;stroke-linecap:square;stroke-width:0.8;"/>
     </g>
     <g id="line2d_35">
      <g>
       <use style="stroke:#000000;stroke-width:0.8;" x="70.8" xlink:href="#m0bca2f01f8" y="245.549929"/>
      </g>
     </g>
     <g id="text_8">
      <!-- 0.2 -->
      <g transform="translate(31.99375 253.148367)scale(0.2 -0.2)">
       <use xlink:href="#DejaVuSans-30"/>
       <use x="63.623047" xlink:href="#DejaVuSans-2e"/>
       <use x="95.410156" xlink:href="#DejaVuSans-32"/>
      </g>
     </g>
    </g>
    <g id="ytick_3">
     <g id="line2d_36">
      <path clip-path="url(#p08955cf508)" d="M 70.8 192.854484 
L 427.92 192.854484 
" style="fill:none;stroke:#b0b0b0;stroke-linecap:square;stroke-width:0.8;"/>
     </g>
     <g id="line2d_37">
      <g>
       <use style="stroke:#000000;stroke-width:0.8;" x="70.8" xlink:href="#m0bca2f01f8" y="192.854484"/>
      </g>
     </g>
     <g id="text_9">
      <!-- 0.4 -->
      <g transform="translate(31.99375 200.452921)scale(0.2 -0.2)">
       <use xlink:href="#DejaVuSans-30"/>
       <use x="63.623047" xlink:href="#DejaVuSans-2e"/>
       <use x="95.410156" xlink:href="#DejaVuSans-34"/>
      </g>
     </g>
    </g>
    <g id="ytick_4">
     <g id="line2d_38">
      <path clip-path="url(#p08955cf508)" d="M 70.8 140.159038 
L 427.92 140.159038 
" style="fill:none;stroke:#b0b0b0;stroke-linecap:square;stroke-width:0.8;"/>
     </g>
     <g id="line2d_39">
      <g>
       <use style="stroke:#000000;stroke-width:0.8;" x="70.8" xlink:href="#m0bca2f01f8" y="140.159038"/>
      </g>
     </g>
     <g id="text_10">
      <!-- 0.6 -->
      <g transform="translate(31.99375 147.757476)scale(0.2 -0.2)">
       <use xlink:href="#DejaVuSans-30"/>
       <use x="63.623047" xlink:href="#DejaVuSans-2e"/>
       <use x="95.410156" xlink:href="#DejaVuSans-36"/>
      </g>
     </g>
    </g>
    <g id="ytick_5">
     <g id="line2d_40">
      <path clip-path="url(#p08955cf508)" d="M 70.8 87.463593 
L 427.92 87.463593 
" style="fill:none;stroke:#b0b0b0;stroke-linecap:square;stroke-width:0.8;"/>
     </g>
     <g id="line2d_41">
      <g>
       <use style="stroke:#000000;stroke-width:0.8;" x="70.8" xlink:href="#m0bca2f01f8" y="87.463593"/>
      </g>
     </g>
     <g id="text_11">
      <!-- 0.8 -->
      <g transform="translate(31.99375 95.06203)scale(0.2 -0.2)">
       <use xlink:href="#DejaVuSans-30"/>
       <use x="63.623047" xlink:href="#DejaVuSans-2e"/>
       <use x="95.410156" xlink:href="#DejaVuSans-38"/>
      </g>
     </g>
    </g>
    <g id="ytick_6">
     <g id="line2d_42">
      <path clip-path="url(#p08955cf508)" d="M 70.8 34.768147 
L 427.92 34.768147 
" style="fill:none;stroke:#b0b0b0;stroke-linecap:square;stroke-width:0.8;"/>
     </g>
     <g id="line2d_43">
      <g>
       <use style="stroke:#000000;stroke-width:0.8;" x="70.8" xlink:href="#m0bca2f01f8" y="34.768147"/>
      </g>
     </g>
     <g id="text_12">
      <!-- 1.0 -->
      <g transform="translate(31.99375 42.366585)scale(0.2 -0.2)">
       <use xlink:href="#DejaVuSans-31"/>
       <use x="63.623047" xlink:href="#DejaVuSans-2e"/>
       <use x="95.410156" xlink:href="#DejaVuSans-30"/>
      </g>
     </g>
    </g>
    <g id="text_13">
     <!-- Proportion of function+target pairs -->
     <defs>
      <path d="M 19.671875 64.796875 
L 19.671875 37.40625 
L 32.078125 37.40625 
Q 38.96875 37.40625 42.71875 40.96875 
Q 46.484375 44.53125 46.484375 51.125 
Q 46.484375 57.671875 42.71875 61.234375 
Q 38.96875 64.796875 32.078125 64.796875 
z
M 9.8125 72.90625 
L 32.078125 72.90625 
Q 44.34375 72.90625 50.609375 67.359375 
Q 56.890625 61.8125 56.890625 51.125 
Q 56.890625 40.328125 50.609375 34.8125 
Q 44.34375 29.296875 32.078125 29.296875 
L 19.671875 29.296875 
L 19.671875 0 
L 9.8125 0 
z
" id="DejaVuSans-50"/>
      <path d="M 41.109375 46.296875 
Q 39.59375 47.171875 37.8125 47.578125 
Q 36.03125 48 33.890625 48 
Q 26.265625 48 22.1875 43.046875 
Q 18.109375 38.09375 18.109375 28.8125 
L 18.109375 0 
L 9.078125 0 
L 9.078125 54.6875 
L 18.109375 54.6875 
L 18.109375 46.1875 
Q 20.953125 51.171875 25.484375 53.578125 
Q 30.03125 56 36.53125 56 
Q 37.453125 56 38.578125 55.875 
Q 39.703125 55.765625 41.0625 55.515625 
z
" id="DejaVuSans-72"/>
      <path d="M 18.109375 8.203125 
L 18.109375 -20.796875 
L 9.078125 -20.796875 
L 9.078125 54.6875 
L 18.109375 54.6875 
L 18.109375 46.390625 
Q 20.953125 51.265625 25.265625 53.625 
Q 29.59375 56 35.59375 56 
Q 45.5625 56 51.78125 48.09375 
Q 58.015625 40.1875 58.015625 27.296875 
Q 58.015625 14.40625 51.78125 6.484375 
Q 45.5625 -1.421875 35.59375 -1.421875 
Q 29.59375 -1.421875 25.265625 0.953125 
Q 20.953125 3.328125 18.109375 8.203125 
M 48.6875 27.296875 
Q 48.6875 37.203125 44.609375 42.84375 
Q 40.53125 48.484375 33.40625 48.484375 
Q 26.265625 48.484375 22.1875 42.84375 
Q 18.109375 37.203125 18.109375 27.296875 
Q 18.109375 17.390625 22.1875 11.75 
Q 26.265625 6.109375 33.40625 6.109375 
Q 40.53125 6.109375 44.609375 11.75 
Q 48.6875 17.390625 48.6875 27.296875 
" id="DejaVuSans-70"/>
      <path d="M 18.3125 70.21875 
L 18.3125 54.6875 
L 36.8125 54.6875 
L 36.8125 47.703125 
L 18.3125 47.703125 
L 18.3125 18.015625 
Q 18.3125 11.328125 20.140625 9.421875 
Q 21.96875 7.515625 27.59375 7.515625 
L 36.8125 7.515625 
L 36.8125 0 
L 27.59375 0 
Q 17.1875 0 13.234375 3.875 
Q 9.28125 7.765625 9.28125 18.015625 
L 9.28125 47.703125 
L 2.6875 47.703125 
L 2.6875 54.6875 
L 9.28125 54.6875 
L 9.28125 70.21875 
z
" id="DejaVuSans-74"/>
      <path d="M 8.5 21.578125 
L 8.5 54.6875 
L 17.484375 54.6875 
L 17.484375 21.921875 
Q 17.484375 14.15625 20.5 10.265625 
Q 23.53125 6.390625 29.59375 6.390625 
Q 36.859375 6.390625 41.078125 11.03125 
Q 45.3125 15.671875 45.3125 23.6875 
L 45.3125 54.6875 
L 54.296875 54.6875 
L 54.296875 0 
L 45.3125 0 
L 45.3125 8.40625 
Q 42.046875 3.421875 37.71875 1 
Q 33.40625 -1.421875 27.6875 -1.421875 
Q 18.265625 -1.421875 13.375 4.4375 
Q 8.5 10.296875 8.5 21.578125 
M 31.109375 56 
z
" id="DejaVuSans-75"/>
      <path d="M 48.78125 52.59375 
L 48.78125 44.1875 
Q 44.96875 46.296875 41.140625 47.34375 
Q 37.3125 48.390625 33.40625 48.390625 
Q 24.65625 48.390625 19.8125 42.84375 
Q 14.984375 37.3125 14.984375 27.296875 
Q 14.984375 17.28125 19.8125 11.734375 
Q 24.65625 6.203125 33.40625 6.203125 
Q 37.3125 6.203125 41.140625 7.25 
Q 44.96875 8.296875 48.78125 10.40625 
L 48.78125 2.09375 
Q 45.015625 0.34375 40.984375 -0.53125 
Q 36.96875 -1.421875 32.421875 -1.421875 
Q 20.0625 -1.421875 12.78125 6.34375 
Q 5.515625 14.109375 5.515625 27.296875 
Q 5.515625 40.671875 12.859375 48.328125 
Q 20.21875 56 33.015625 56 
Q 37.15625 56 41.109375 55.140625 
Q 45.0625 54.296875 48.78125 52.59375 
" id="DejaVuSans-63"/>
      <path d="M 46 62.703125 
L 46 35.5 
L 73.1875 35.5 
L 73.1875 27.203125 
L 46 27.203125 
L 46 0 
L 37.796875 0 
L 37.796875 27.203125 
L 10.59375 27.203125 
L 10.59375 35.5 
L 37.796875 35.5 
L 37.796875 62.703125 
z
" id="DejaVuSans-2b"/>
     </defs>
     <g transform="translate(24.250312 323.17875)rotate(-90)scale(0.18 -0.18)">
      <use xlink:href="#DejaVuSans-50"/>
      <use x="60.287109" xlink:href="#DejaVuSans-72"/>
      <use x="101.369141" xlink:href="#DejaVuSans-6f"/>
      <use x="162.550781" xlink:href="#DejaVuSans-70"/>
      <use x="226.027344" xlink:href="#DejaVuSans-6f"/>
      <use x="287.208984" xlink:href="#DejaVuSans-72"/>
      <use x="328.322266" xlink:href="#DejaVuSans-74"/>
      <use x="367.53125" xlink:href="#DejaVuSans-69"/>
      <use x="395.314453" xlink:href="#DejaVuSans-6f"/>
      <use x="456.496094" xlink:href="#DejaVuSans-6e"/>
      <use x="519.875" xlink:href="#DejaVuSans-20"/>
      <use x="551.662109" xlink:href="#DejaVuSans-6f"/>
      <use x="612.84375" xlink:href="#DejaVuSans-66"/>
      <use x="648.048828" xlink:href="#DejaVuSans-20"/>
      <use x="679.835938" xlink:href="#DejaVuSans-66"/>
      <use x="715.041016" xlink:href="#DejaVuSans-75"/>
      <use x="778.419922" xlink:href="#DejaVuSans-6e"/>
      <use x="841.798828" xlink:href="#DejaVuSans-63"/>
      <use x="896.779297" xlink:href="#DejaVuSans-74"/>
      <use x="935.988281" xlink:href="#DejaVuSans-69"/>
      <use x="963.771484" xlink:href="#DejaVuSans-6f"/>
      <use x="1024.953125" xlink:href="#DejaVuSans-6e"/>
      <use x="1088.332031" xlink:href="#DejaVuSans-2b"/>
      <use x="1172.121094" xlink:href="#DejaVuSans-74"/>
      <use x="1211.330078" xlink:href="#DejaVuSans-61"/>
      <use x="1272.609375" xlink:href="#DejaVuSans-72"/>
      <use x="1313.707031" xlink:href="#DejaVuSans-67"/>
      <use x="1377.183594" xlink:href="#DejaVuSans-65"/>
      <use x="1438.707031" xlink:href="#DejaVuSans-74"/>
      <use x="1477.916016" xlink:href="#DejaVuSans-20"/>
      <use x="1509.703125" xlink:href="#DejaVuSans-70"/>
      <use x="1573.179688" xlink:href="#DejaVuSans-61"/>
      <use x="1634.458984" xlink:href="#DejaVuSans-69"/>
      <use x="1662.242188" xlink:href="#DejaVuSans-72"/>
      <use x="1703.355469" xlink:href="#DejaVuSans-73"/>
     </g>
    </g>
   </g>
   <g id="line2d_44">
    <defs>
     <path d="M 0 1.5 
C 0.397805 1.5 0.77937 1.341951 1.06066 1.06066 
C 1.341951 0.77937 1.5 0.397805 1.5 0 
C 1.5 -0.397805 1.341951 -0.77937 1.06066 -1.06066 
C 0.77937 -1.341951 0.397805 -1.5 0 -1.5 
C -0.397805 -1.5 -0.77937 -1.341951 -1.06066 -1.06066 
C -1.341951 -0.77937 -1.5 -0.397805 -1.5 0 
C -1.5 0.397805 -1.341951 0.77937 -1.06066 1.06066 
C -0.77937 1.341951 -0.397805 1.5 0 1.5 
z
" id="m2b6774846c" style="stroke:#f5deb3;"/>
    </defs>
    <g>
     <use style="fill:#f5deb3;stroke:#f5deb3;" x="279.649261" xlink:href="#m2b6774846c" y="34.768147"/>
     <use style="fill:#f5deb3;stroke:#f5deb3;" x="279.649261" xlink:href="#m2b6774846c" y="34.768147"/>
    </g>
   </g>
   <g id="line2d_45">
    <g>
     <use style="fill:#f5deb3;stroke:#f5deb3;stroke-linejoin:miter;stroke-width:1.5;" x="139.33962" xlink:href="#maf6425dece" y="207.836522"/>
     <use style="fill:#f5deb3;stroke:#f5deb3;stroke-linejoin:miter;stroke-width:1.5;" x="166.171749" xlink:href="#maf6425dece" y="121.948112"/>
     <use style="fill:#f5deb3;stroke:#f5deb3;stroke-linejoin:miter;stroke-width:1.5;" x="234.65566" xlink:href="#maf6425dece" y="42.947996"/>
     <use style="fill:#f5deb3;stroke:#f5deb3;stroke-linejoin:miter;stroke-width:1.5;" x="279.649261" xlink:href="#maf6425dece" y="34.768147"/>
     <use style="fill:#f5deb3;stroke:#f5deb3;stroke-linejoin:miter;stroke-width:1.5;" x="279.649261" xlink:href="#maf6425dece" y="34.768147"/>
     <use style="fill:#f5deb3;stroke:#f5deb3;stroke-linejoin:miter;stroke-width:1.5;" x="358.8" xlink:href="#maf6425dece" y="34.768147"/>
    </g>
   </g>
   <g id="line2d_46">
    <defs>
     <path d="M 0 1.5 
C 0.397805 1.5 0.77937 1.341951 1.06066 1.06066 
C 1.341951 0.77937 1.5 0.397805 1.5 0 
C 1.5 -0.397805 1.341951 -0.77937 1.06066 -1.06066 
C 0.77937 -1.341951 0.397805 -1.5 0 -1.5 
C -0.397805 -1.5 -0.77937 -1.341951 -1.06066 -1.06066 
C -1.341951 -0.77937 -1.5 -0.397805 -1.5 0 
C -1.5 0.397805 -1.341951 0.77937 -1.06066 1.06066 
C -0.77937 1.341951 -0.397805 1.5 0 1.5 
z
" id="mca7e0ee5df" style="stroke:#000080;"/>
    </defs>
    <g>
     <use style="fill:#000080;stroke:#000080;" x="332.575851" xlink:href="#mca7e0ee5df" y="248.951024"/>
     <use style="fill:#000080;stroke:#000080;" x="332.575851" xlink:href="#mca7e0ee5df" y="248.951024"/>
    </g>
   </g>
   <g id="line2d_47">
    <path d="M 51.169868 298.245375 
L 51.169868 286.147809 
L 63.555102 286.147809 
L 63.555102 284.748625 
L 70.8 284.748625 
L 70.8 283.995218 
L 75.940337 283.995218 
L 75.940337 283.370966 
L 79.927491 283.370966 
L 79.927491 283.005026 
L 83.185234 283.005026 
L 83.185234 282.854344 
L 85.939616 282.854344 
L 85.939616 282.660611 
L 88.325571 282.660611 
L 88.325571 282.423826 
L 90.430132 282.423826 
L 90.430132 282.273144 
L 92.312726 282.273144 
L 92.312726 282.143989 
L 95.570468 282.036359 
L 95.570468 281.950256 
L 97.000681 281.950256 
L 97.000681 281.778048 
L 99.557623 281.691945 
L 99.557623 281.584315 
L 101.794053 281.541263 
L 101.794053 281.261426 
L 102.815366 281.261426 
L 102.815366 281.089219 
L 104.69796 281.067693 
L 104.69796 280.917012 
L 110.710085 280.809382 
L 110.710085 280.744804 
L 112.528749 280.658701 
L 112.528749 280.529545 
L 114.697239 280.443441 
L 114.697239 280.29276 
L 115.690168 280.271234 
L 115.690168 280.142079 
L 116.630812 280.142079 
L 116.630812 280.012923 
L 117.524404 279.926819 
L 117.524404 279.862242 
L 119.187755 279.776138 
L 119.187755 279.646982 
L 122.111504 279.539353 
L 122.111504 279.496301 
L 123.411577 279.474775 
L 123.411577 279.302568 
L 124.328091 279.23799 
L 124.328091 279.065783 
L 126.825374 278.958153 
L 126.825374 278.76442 
L 127.585834 278.699842 
L 127.585834 278.592213 
L 129.690395 278.484583 
L 129.690395 278.463057 
L 130.967232 278.355427 
L 130.967232 278.312376 
L 132.911334 278.204746 
L 132.911334 278.140168 
L 136.260944 278.054065 
L 136.260944 278.011013 
L 138.416339 277.903383 
L 138.416339 277.881857 
L 140.937147 277.774228 
L 140.937147 277.752702 
L 144.057215 277.645072 
L 144.057215 277.623546 
L 147.215966 277.515917 
L 147.215966 277.451339 
L 150.181807 277.343709 
L 150.181807 277.322183 
L 154.350224 277.214554 
L 154.350224 277.149976 
L 156.44245 277.042346 
L 156.44245 277.020821 
L 160.130966 276.913191 
L 160.130966 276.870139 
L 160.645477 276.805561 
L 160.645477 276.740984 
L 163.321661 276.633354 
L 163.388709 276.525724 
L 164.013417 276.504199 
L 164.013417 276.396569 
L 164.238176 276.396569 
L 164.238176 276.267413 
L 170.227495 276.159784 
L 170.250301 276.116732 
L 171.861917 276.009102 
L 171.861917 275.966051 
L 181.482353 275.858421 
L 181.494504 275.793843 
L 182.056478 275.70774 
L 182.1035 275.578584 
L 184.567062 275.470954 
L 184.567062 275.449429 
L 185.80188 275.341799 
L 185.80188 275.320273 
L 192.132942 275.212643 
L 192.132942 275.148066 
L 198.191886 275.040436 
L 198.191886 274.932807 
L 201.866191 274.825177 
L 201.935973 274.760599 
L 204.964613 274.65297 
L 204.964613 274.566866 
L 216.248628 274.459236 
L 216.29546 274.416185 
L 219.097045 274.308555 
L 219.097045 274.265503 
L 221.98799 274.157874 
L 222.048351 274.093296 
L 223.281542 273.985666 
L 223.281542 273.96414 
L 225.194223 273.878037 
L 225.194223 273.813459 
L 229.866055 273.727355 
L 229.866055 273.684303 
L 233.767901 273.576674 
L 233.767901 273.555148 
L 238.588425 273.469044 
L 238.588425 273.425992 
L 240.478679 273.339889 
L 240.532748 273.275311 
L 242.934702 273.189207 
L 242.934702 273.146155 
L 247.201358 273.038526 
L 247.201358 273.017 
L 249.826513 272.90937 
L 249.826513 272.866319 
L 255.774755 272.758689 
L 255.842312 272.694111 
L 256.136492 272.586482 
L 256.247378 268.884024 
L 256.269399 268.776394 
L 256.319447 268.582661 
L 256.648897 268.475031 
L 256.651794 268.43198 
L 257.154586 268.32435 
L 257.191156 268.238246 
L 258.114282 268.130617 
L 258.152271 268.066039 
L 258.809616 267.958409 
L 258.809616 267.936883 
L 259.631847 267.829254 
L 259.641956 267.786202 
L 261.306522 267.678572 
L 261.341364 267.613995 
L 265.168184 267.506365 
L 265.168184 267.484839 
L 268.345913 267.37721 
L 268.345913 267.355684 
L 268.529271 267.248054 
L 268.630113 264.987833 
L 269.038204 264.880203 
L 269.130191 264.7941 
L 269.324694 264.68647 
L 269.324694 264.664944 
L 270.514105 264.557314 
L 270.522269 264.514263 
L 271.327989 264.406633 
L 271.327989 264.385107 
L 273.602038 264.277478 
L 273.602038 264.255952 
L 275.772461 264.148322 
L 275.84483 262.447775 
L 276.567929 262.340145 
L 276.577249 262.297093 
L 277.946972 262.189464 
L 277.996213 262.146412 
L 280.910314 262.038782 
L 281.007706 260.747227 
L 281.258049 260.639597 
L 281.258231 260.596546 
L 281.697633 260.488916 
L 281.704138 260.424338 
L 283.154864 260.316709 
L 283.154864 260.295183 
L 284.669314 260.187553 
L 284.669314 260.166027 
L 284.908233 260.058398 
L 285.018698 259.025154 
L 285.15825 258.917524 
L 285.18518 258.852946 
L 286.305635 258.745317 
L 286.305635 258.723791 
L 288.162134 258.616161 
L 288.220446 257.819702 
L 288.747232 257.712073 
L 288.747232 257.690547 
L 290.028703 257.582917 
L 290.028703 257.561391 
L 290.918506 257.453762 
L 290.990973 256.894088 
L 291.580261 256.786458 
L 291.580261 256.764932 
L 293.309165 256.657303 
L 293.375516 256.054577 
L 294.718544 255.946948 
L 294.817269 255.903896 
L 295.414447 255.796266 
L 295.437657 255.387274 
L 295.888851 255.279644 
L 295.99219 255.215066 
L 297.294193 255.107437 
L 297.399362 254.698444 
L 297.74137 254.590815 
L 297.813214 254.547763 
L 299.003167 254.440133 
L 299.096077 254.13877 
L 300.544776 254.031141 
L 300.610644 253.536045 
L 301.9806 253.428415 
L 302.067847 253.062475 
L 302.926885 252.954845 
L 302.926885 252.933319 
L 303.310136 252.82569 
L 303.342983 252.631956 
L 304.545611 252.524327 
L 304.574073 252.416697 
L 305.694655 252.309067 
L 305.76746 252.072282 
L 306.780174 251.964653 
L 306.885042 251.857023 
L 307.50796 251.749394 
L 307.509484 251.706342 
L 308.767426 251.598712 
L 308.780194 251.512609 
L 309.683755 251.404979 
L 309.734149 251.254298 
L 310.553425 251.146668 
L 310.652627 250.974461 
L 311.514301 250.866831 
L 311.538166 250.823779 
L 312.186427 250.71615 
L 312.190989 250.651572 
L 312.949291 250.543942 
L 312.949291 250.522416 
L 313.840416 250.414787 
L 313.840416 250.393261 
L 315.045371 250.285631 
L 315.152135 250.113424 
L 316.32293 250.005794 
L 316.324791 249.962743 
L 316.935311 249.855113 
L 316.945082 249.790535 
L 318.078312 249.682906 
L 318.078312 249.66138 
L 319.124093 249.55375 
L 319.172802 249.467646 
L 320.280054 249.360017 
L 320.280054 249.338491 
L 321.614373 249.230861 
L 321.614373 249.209335 
L 324.954369 249.101706 
L 325.03749 249.037128 
L 358.8 248.951024 
L 358.8 248.951024 
" style="fill:none;stroke:#000080;stroke-linecap:square;stroke-width:1.5;"/>
   </g>
   <g id="line2d_48">
    <defs>
     <path d="M 0 6 
C 1.591219 6 3.117479 5.367802 4.242641 4.242641 
C 5.367802 3.117479 6 1.591219 6 0 
C 6 -1.591219 5.367802 -3.117479 4.242641 -4.242641 
C 3.117479 -5.367802 1.591219 -6 0 -6 
C -1.591219 -6 -3.117479 -5.367802 -4.242641 -4.242641 
C -5.367802 -3.117479 -6 -1.591219 -6 0 
C -6 1.591219 -5.367802 3.117479 -4.242641 4.242641 
C -3.117479 5.367802 -1.591219 6 0 6 
z
" id="m232e6580a5" style="stroke:#000080;stroke-width:1.5;"/>
    </defs>
    <g>
     <use style="fill:none;stroke:#000080;stroke-width:1.5;" x="94.015739" xlink:href="#m232e6580a5" y="282.036359"/>
     <use style="fill:none;stroke:#000080;stroke-width:1.5;" x="162.461624" xlink:href="#m232e6580a5" y="276.676406"/>
     <use style="fill:none;stroke:#000080;stroke-width:1.5;" x="237.795535" xlink:href="#m232e6580a5" y="273.469044"/>
     <use style="fill:none;stroke:#000080;stroke-width:1.5;" x="288.191128" xlink:href="#m232e6580a5" y="257.905806"/>
     <use style="fill:none;stroke:#000080;stroke-width:1.5;" x="332.575851" xlink:href="#m232e6580a5" y="248.951024"/>
     <use style="fill:none;stroke:#000080;stroke-width:1.5;" x="358.8" xlink:href="#m232e6580a5" y="248.951024"/>
    </g>
   </g>
   <g id="line2d_49"/>
   <g id="line2d_50">
    <path clip-path="url(#p08955cf508)" d="M 256.156045 271.703919 
" style="fill:none;stroke:#000080;stroke-linecap:square;stroke-width:1.5;"/>
    <defs>
     <path d="M -12 12 
L 12 -12 
M -12 -12 
L 12 12 
" id="m8a209633a6" style="stroke:#000080;stroke-width:3;"/>
    </defs>
    <g clip-path="url(#p08955cf508)">
     <use style="fill:#000080;stroke:#000080;stroke-width:3;" x="256.156045" xlink:href="#m8a209633a6" y="271.703919"/>
    </g>
   </g>
   <g id="line2d_51">
    <defs>
     <path d="M 0 1.5 
C 0.397805 1.5 0.77937 1.341951 1.06066 1.06066 
C 1.341951 0.77937 1.5 0.397805 1.5 0 
C 1.5 -0.397805 1.341951 -0.77937 1.06066 -1.06066 
C 0.77937 -1.341951 0.397805 -1.5 0 -1.5 
C -0.397805 -1.5 -0.77937 -1.341951 -1.06066 -1.06066 
C -1.341951 -0.77937 -1.5 -0.397805 -1.5 0 
C -1.5 0.397805 -1.341951 0.77937 -1.06066 1.06066 
C -0.77937 1.341951 -0.397805 1.5 0 1.5 
z
" id="m0153ca4bce" style="stroke:#ff00ff;"/>
    </defs>
    <g>
     <use style="fill:#ff00ff;stroke:#ff00ff;" x="340.551657" xlink:href="#m0153ca4bce" y="247.44421"/>
     <use style="fill:#ff00ff;stroke:#ff00ff;" x="340.551657" xlink:href="#m0153ca4bce" y="247.44421"/>
    </g>
   </g>
   <g id="line2d_52">
    <path d="M 51.169868 298.245375 
L 51.169868 286.061706 
L 63.555102 286.061706 
L 63.555102 284.920832 
L 70.8 284.920832 
L 70.8 284.339632 
L 75.940337 284.339632 
L 75.940337 283.887588 
L 79.927491 283.887588 
L 79.927491 283.34944 
L 83.185234 283.34944 
L 83.185234 283.198759 
L 85.939616 283.198759 
L 85.939616 282.682137 
L 88.325571 282.682137 
L 88.325571 282.531455 
L 90.430132 282.531455 
L 90.430132 282.380774 
L 92.312726 282.380774 
L 92.312726 282.122463 
L 95.570468 282.014833 
L 95.570468 281.885678 
L 98.32485 281.799574 
L 98.32485 281.734996 
L 99.557623 281.734996 
L 99.557623 281.605841 
L 101.794053 281.498211 
L 101.794053 281.304478 
L 102.815366 281.304478 
L 102.815366 281.175323 
L 104.69796 281.132271 
L 104.69796 281.003115 
L 107.195242 280.895486 
L 107.195242 280.852434 
L 109.385915 280.744804 
L 109.385915 280.680226 
L 110.710085 280.615649 
L 110.710085 280.508019 
L 114.179287 280.421915 
L 114.179287 280.378864 
L 115.690168 280.314286 
L 115.690168 280.228182 
L 117.524404 280.120553 
L 117.524404 280.034449 
L 119.187755 279.948345 
L 119.187755 279.905293 
L 121.424184 279.840716 
L 121.424184 279.776138 
L 123.411577 279.690034 
L 123.411577 279.625457 
L 124.623439 279.539353 
L 124.623439 279.496301 
L 125.758304 279.410197 
L 125.758304 279.34562 
L 127.585834 279.23799 
L 127.585834 279.216464 
L 130.126224 279.13036 
L 130.126224 279.065783 
L 131.171441 279.001205 
L 131.171441 278.936627 
L 132.539068 278.872049 
L 132.539068 278.807472 
L 134.327371 278.699842 
L 134.327371 278.65679 
L 135.3203 278.570687 
L 135.3203 278.527635 
L 136.713325 278.463057 
L 136.713325 278.376953 
L 137.442737 278.269324 
L 137.442737 278.247798 
L 139.971068 278.140168 
L 139.971068 278.118642 
L 143.041708 278.011013 
L 143.041708 277.989487 
L 144.73522 277.881857 
L 144.73522 277.838805 
L 147.865787 277.731176 
L 147.865787 277.70965 
L 149.098559 277.623546 
L 149.098559 277.580494 
L 150.528772 277.494391 
L 150.528772 277.451339 
L 151.852942 277.365235 
L 151.852942 277.300657 
L 153.729153 277.214554 
L 153.729153 277.171502 
L 157.955999 277.063872 
L 158.001292 276.977769 
L 160.130966 276.870139 
L 160.130966 276.848613 
L 164.460143 276.740984 
L 164.460143 276.719458 
L 165.589674 276.611828 
L 165.589674 276.590302 
L 166.342737 276.504199 
L 166.342737 276.461147 
L 168.999612 276.353517 
L 168.999612 276.331991 
L 169.974694 276.245888 
L 169.974694 276.202836 
L 171.631357 276.095206 
L 171.631357 276.07368 
L 181.675785 275.966051 
L 181.759758 275.922999 
L 183.074522 275.815369 
L 183.074522 275.772317 
L 185.120922 275.664688 
L 185.120922 275.643162 
L 190.60255 275.535532 
L 190.60255 275.514006 
L 196.590686 275.406377 
L 196.590686 275.363325 
L 198.052983 275.255695 
L 198.163236 275.212643 
L 201.908868 275.105014 
L 201.908868 275.083488 
L 204.922105 274.975858 
L 204.922105 274.954332 
L 207.431624 274.846703 
L 207.431624 274.825177 
L 210.320021 274.717547 
L 210.320021 274.696021 
L 215.842856 274.588392 
L 215.842856 274.566866 
L 216.381863 274.459236 
L 216.440379 274.416185 
L 220.647825 274.308555 
L 220.647825 274.287029 
L 224.100247 274.200925 
L 224.160582 274.136348 
L 227.212838 274.028718 
L 227.212838 274.007192 
L 231.093802 273.899563 
L 231.093802 273.878037 
L 233.886735 273.770407 
L 233.886735 273.727355 
L 236.526285 273.619726 
L 236.526285 273.5982 
L 238.544594 273.49057 
L 238.624207 273.447518 
L 241.339254 273.339889 
L 241.339254 273.275311 
L 246.860199 273.167681 
L 246.860199 273.146155 
L 249.143113 273.038526 
L 249.143113 272.995474 
L 251.822028 272.887844 
L 251.822028 272.844793 
L 253.00633 272.737163 
L 253.00633 272.715637 
L 253.699948 272.608007 
L 253.699948 272.586482 
L 255.84894 272.478852 
L 255.84894 272.457326 
L 256.131461 272.349696 
L 256.238488 268.539609 
L 256.279383 268.43198 
L 256.33401 268.345876 
L 256.49306 268.238246 
L 256.507665 268.173669 
L 256.969894 268.066039 
L 257.002584 268.022987 
L 257.946031 267.915358 
L 258.021974 267.872306 
L 258.928896 267.764676 
L 258.945621 267.700098 
L 259.526433 267.592469 
L 259.526433 267.570943 
L 261.699889 267.463313 
L 261.729614 267.398736 
L 263.695475 267.291106 
L 263.722793 267.205002 
L 265.347778 267.097373 
L 265.369907 267.032795 
L 267.734498 266.925165 
L 267.734498 266.903639 
L 268.523683 266.79601 
L 268.610286 264.492737 
L 268.868612 264.385107 
L 268.947107 264.299003 
L 269.29733 264.191374 
L 269.29733 264.169848 
L 269.57841 264.062218 
L 269.589383 264.019166 
L 270.786257 263.911537 
L 270.786257 263.890011 
L 272.219247 263.782381 
L 272.219247 263.760855 
L 273.726459 263.653226 
L 273.756856 263.588648 
L 274.824746 263.481019 
L 274.824746 263.459493 
L 275.769294 263.351863 
L 275.85781 261.349953 
L 276.014315 261.242323 
L 276.056467 261.134694 
L 278.574479 261.027064 
L 278.574479 261.005538 
L 279.637412 260.897908 
L 279.637412 260.876383 
L 280.909569 260.768753 
L 281.011365 259.541776 
L 281.412394 259.434146 
L 281.520871 259.369568 
L 282.174931 259.261939 
L 282.174931 259.240413 
L 283.71987 259.132783 
L 283.720984 259.089731 
L 284.855133 258.982102 
L 284.963402 257.819702 
L 285.071315 257.712073 
L 285.071315 257.690547 
L 288.160333 257.582917 
L 288.267619 256.958666 
L 288.490184 256.851036 
L 288.497282 256.807984 
L 289.530717 256.700355 
L 289.530717 256.678829 
L 290.918586 256.571199 
L 290.945085 255.88237 
L 291.27697 255.77474 
L 291.32048 255.731688 
L 292.206456 255.624059 
L 292.206456 255.602533 
L 293.302695 255.494903 
L 293.352947 254.956755 
L 293.618488 254.849126 
L 293.618488 254.8276 
L 295.395969 254.71997 
L 295.494449 254.310978 
L 296.357441 254.203348 
L 296.357441 254.181822 
L 297.294639 254.074193 
L 297.385902 253.794356 
L 298.301209 253.686726 
L 298.301209 253.6652 
L 298.998717 253.557571 
L 299.08222 253.213156 
L 300.035462 253.105526 
L 300.076007 253.062475 
L 300.560692 252.954845 
L 300.617586 252.82569 
L 301.981087 252.71806 
L 301.997663 252.438223 
L 303.307224 252.330593 
L 303.366058 252.201438 
L 304.287605 252.093808 
L 304.287605 252.072282 
L 304.543142 251.964653 
L 304.587619 251.813971 
L 305.694713 251.706342 
L 305.761469 251.55566 
L 306.777295 251.448031 
L 306.867151 251.275823 
L 307.803134 251.168194 
L 307.881989 250.974461 
L 308.763889 250.866831 
L 308.847452 250.694624 
L 309.686109 250.586994 
L 309.74171 250.522416 
L 310.550943 250.414787 
L 310.645997 250.221054 
L 311.389323 250.113424 
L 311.426536 249.962743 
L 312.182956 249.855113 
L 312.214839 249.790535 
L 312.947143 249.682906 
L 313.001529 249.596802 
L 314.36418 249.489172 
L 314.396369 249.338491 
L 315.054709 249.230861 
L 315.054709 249.209335 
L 316.326986 249.101706 
L 316.405139 249.037128 
L 317.236846 248.929498 
L 317.236846 248.907973 
L 318.145817 248.800343 
L 318.145817 248.778817 
L 318.642269 248.671187 
L 318.642269 248.649662 
L 320.188704 248.542032 
L 320.193775 248.49898 
L 321.395851 248.391351 
L 321.395851 248.369825 
L 323.165188 248.262195 
L 323.165188 248.240669 
L 325.693383 248.13304 
L 325.702847 248.068462 
L 326.783065 247.960832 
L 326.796045 247.91778 
L 327.785268 247.810151 
L 327.785268 247.788625 
L 329.76229 247.680995 
L 329.76229 247.659469 
L 333.66233 247.55184 
L 333.66233 247.530314 
L 358.8 247.44421 
L 358.8 247.44421 
" style="fill:none;stroke:#ff00ff;stroke-linecap:square;stroke-width:1.5;"/>
   </g>
   <g id="line2d_53">
    <defs>
     <path d="M -0 8.485281 
L 5.091169 0 
L 0 -8.485281 
L -5.091169 -0 
z
" id="m87bc8fe246" style="stroke:#ff00ff;stroke-linejoin:miter;stroke-width:1.5;"/>
    </defs>
    <g>
     <use style="fill:none;stroke:#ff00ff;stroke-linejoin:miter;stroke-width:1.5;" x="90.430132" xlink:href="#m87bc8fe246" y="282.380774"/>
     <use style="fill:none;stroke:#ff00ff;stroke-linejoin:miter;stroke-width:1.5;" x="143.758577" xlink:href="#m87bc8fe246" y="277.924909"/>
     <use style="fill:none;stroke:#ff00ff;stroke-linejoin:miter;stroke-width:1.5;" x="241.339254" xlink:href="#m87bc8fe246" y="273.339889"/>
     <use style="fill:none;stroke:#ff00ff;stroke-linejoin:miter;stroke-width:1.5;" x="299.230516" xlink:href="#m87bc8fe246" y="253.19163"/>
     <use style="fill:none;stroke:#ff00ff;stroke-linejoin:miter;stroke-width:1.5;" x="340.551657" xlink:href="#m87bc8fe246" y="247.44421"/>
     <use style="fill:none;stroke:#ff00ff;stroke-linejoin:miter;stroke-width:1.5;" x="358.8" xlink:href="#m87bc8fe246" y="247.44421"/>
    </g>
   </g>
   <g id="line2d_54"/>
   <g id="line2d_55">
    <path clip-path="url(#p08955cf508)" d="M 256.155673 271.058141 
" style="fill:none;stroke:#ff00ff;stroke-linecap:square;stroke-width:1.5;"/>
    <defs>
     <path d="M -12 12 
L 12 -12 
M -12 -12 
L 12 12 
" id="m8a306264b9" style="stroke:#ff00ff;stroke-width:3;"/>
    </defs>
    <g clip-path="url(#p08955cf508)">
     <use style="fill:#ff00ff;stroke:#ff00ff;stroke-width:3;" x="256.155673" xlink:href="#m8a306264b9" y="271.058141"/>
    </g>
   </g>
   <g id="line2d_56">
    <path d="M 358.8 248.951024 
L 390.48 292.97583 
" style="fill:none;stroke:#000080;stroke-linecap:square;stroke-width:1.5;"/>
    <g>
     <use style="fill:none;stroke:#000080;stroke-width:1.5;" x="358.8" xlink:href="#m232e6580a5" y="248.951024"/>
     <use style="fill:none;stroke:#000080;stroke-width:1.5;" x="390.48" xlink:href="#m232e6580a5" y="292.97583"/>
    </g>
   </g>
   <g id="line2d_57">
    <path d="M 358.8 247.44421 
L 390.48 166.506761 
" style="fill:none;stroke:#ff00ff;stroke-linecap:square;stroke-width:1.5;"/>
    <g>
     <use style="fill:none;stroke:#ff00ff;stroke-linejoin:miter;stroke-width:1.5;" x="358.8" xlink:href="#m87bc8fe246" y="247.44421"/>
     <use style="fill:none;stroke:#ff00ff;stroke-linejoin:miter;stroke-width:1.5;" x="390.48" xlink:href="#m87bc8fe246" y="166.506761"/>
    </g>
   </g>
   <g id="line2d_58">
    <path d="M 358.8 298.245375 
L 358.8 34.768147 
" style="fill:none;stroke:#000000;stroke-linecap:square;stroke-width:1.5;"/>
   </g>
   <g id="patch_3">
    <path d="M 70.8 298.245375 
L 70.8 32.133375 
" style="fill:none;stroke:#000000;stroke-linecap:square;stroke-linejoin:miter;stroke-width:0.8;"/>
   </g>
   <g id="patch_4">
    <path d="M 427.92 298.245375 
L 427.92 32.133375 
" style="fill:none;stroke:#000000;stroke-linecap:square;stroke-linejoin:miter;stroke-width:0.8;"/>
   </g>
   <g id="patch_5">
    <path d="M 70.8 298.245375 
L 427.92 298.245375 
" style="fill:none;stroke:#000000;stroke-linecap:square;stroke-linejoin:miter;stroke-width:0.8;"/>
   </g>
   <g id="patch_6">
    <path d="M 70.8 32.133375 
L 427.92 32.133375 
" style="fill:none;stroke:#000000;stroke-linecap:square;stroke-linejoin:miter;stroke-width:0.8;"/>
   </g>
   <g id="text_14">
    <!-- ex1Tourna -->
    <defs>
     <path d="M 54.890625 54.6875 
L 35.109375 28.078125 
L 55.90625 0 
L 45.3125 0 
L 29.390625 21.484375 
L 13.484375 0 
L 2.875 0 
L 24.125 28.609375 
L 4.6875 54.6875 
L 15.28125 54.6875 
L 29.78125 35.203125 
L 44.28125 54.6875 
z
" id="DejaVuSans-78"/>
     <path d="M -0.296875 72.90625 
L 61.375 72.90625 
L 61.375 64.59375 
L 35.5 64.59375 
L 35.5 0 
L 25.59375 0 
L 25.59375 64.59375 
L -0.296875 64.59375 
z
" id="DejaVuSans-54"/>
    </defs>
    <g transform="translate(396.24 297.114893)scale(0.15 -0.15)">
     <use xlink:href="#DejaVuSans-65"/>
     <use x="61.507812" xlink:href="#DejaVuSans-78"/>
     <use x="120.6875" xlink:href="#DejaVuSans-31"/>
     <use x="184.310547" xlink:href="#DejaVuSans-54"/>
     <use x="245.128906" xlink:href="#DejaVuSans-6f"/>
     <use x="306.310547" xlink:href="#DejaVuSans-75"/>
     <use x="369.689453" xlink:href="#DejaVuSans-72"/>
     <use x="410.787109" xlink:href="#DejaVuSans-6e"/>
     <use x="474.166016" xlink:href="#DejaVuSans-61"/>
    </g>
   </g>
   <g id="text_15">
    <!-- ex -->
    <g transform="translate(396.24 170.645824)scale(0.15 -0.15)">
     <use xlink:href="#DejaVuSans-65"/>
     <use x="61.507812" xlink:href="#DejaVuSans-78"/>
    </g>
   </g>
   <g id="text_16">
    <!-- best 2009 -->
    <defs>
     <path d="M 48.6875 27.296875 
Q 48.6875 37.203125 44.609375 42.84375 
Q 40.53125 48.484375 33.40625 48.484375 
Q 26.265625 48.484375 22.1875 42.84375 
Q 18.109375 37.203125 18.109375 27.296875 
Q 18.109375 17.390625 22.1875 11.75 
Q 26.265625 6.109375 33.40625 6.109375 
Q 40.53125 6.109375 44.609375 11.75 
Q 48.6875 17.390625 48.6875 27.296875 
M 18.109375 46.390625 
Q 20.953125 51.265625 25.265625 53.625 
Q 29.59375 56 35.59375 56 
Q 45.5625 56 51.78125 48.09375 
Q 58.015625 40.1875 58.015625 27.296875 
Q 58.015625 14.40625 51.78125 6.484375 
Q 45.5625 -1.421875 35.59375 -1.421875 
Q 29.59375 -1.421875 25.265625 0.953125 
Q 20.953125 3.328125 18.109375 8.203125 
L 18.109375 0 
L 9.078125 0 
L 9.078125 75.984375 
L 18.109375 75.984375 
z
" id="DejaVuSans-62"/>
     <path d="M 10.984375 1.515625 
L 10.984375 10.5 
Q 14.703125 8.734375 18.5 7.8125 
Q 22.3125 6.890625 25.984375 6.890625 
Q 35.75 6.890625 40.890625 13.453125 
Q 46.046875 20.015625 46.78125 33.40625 
Q 43.953125 29.203125 39.59375 26.953125 
Q 35.25 24.703125 29.984375 24.703125 
Q 19.046875 24.703125 12.671875 31.3125 
Q 6.296875 37.9375 6.296875 49.421875 
Q 6.296875 60.640625 12.9375 67.421875 
Q 19.578125 74.21875 30.609375 74.21875 
Q 43.265625 74.21875 49.921875 64.515625 
Q 56.59375 54.828125 56.59375 36.375 
Q 56.59375 19.140625 48.40625 8.859375 
Q 40.234375 -1.421875 26.421875 -1.421875 
Q 22.703125 -1.421875 18.890625 -0.6875 
Q 15.09375 0.046875 10.984375 1.515625 
M 30.609375 32.421875 
Q 37.25 32.421875 41.125 36.953125 
Q 45.015625 41.5 45.015625 49.421875 
Q 45.015625 57.28125 41.125 61.84375 
Q 37.25 66.40625 30.609375 66.40625 
Q 23.96875 66.40625 20.09375 61.84375 
Q 16.21875 57.28125 16.21875 49.421875 
Q 16.21875 41.5 20.09375 36.953125 
Q 23.96875 32.421875 30.609375 32.421875 
" id="DejaVuSans-39"/>
    </defs>
    <g transform="translate(396.24 44.176754)scale(0.15 -0.15)">
     <use xlink:href="#DejaVuSans-62"/>
     <use x="63.476562" xlink:href="#DejaVuSans-65"/>
     <use x="125" xlink:href="#DejaVuSans-73"/>
     <use x="177.099609" xlink:href="#DejaVuSans-74"/>
     <use x="216.308594" xlink:href="#DejaVuSans-20"/>
     <use x="248.095703" xlink:href="#DejaVuSans-32"/>
     <use x="311.71875" xlink:href="#DejaVuSans-30"/>
     <use x="375.341797" xlink:href="#DejaVuSans-30"/>
     <use x="438.964844" xlink:href="#DejaVuSans-39"/>
    </g>
   </g>
   <g id="text_17">
    <!-- bbob - f1-f24, 3-D -->
    <defs>
     <path d="M 11.71875 12.40625 
L 22.015625 12.40625 
L 22.015625 4 
L 14.015625 -11.625 
L 7.71875 -11.625 
L 11.71875 4 
z
" id="DejaVuSans-2c"/>
     <path d="M 40.578125 39.3125 
Q 47.65625 37.796875 51.625 33 
Q 55.609375 28.21875 55.609375 21.1875 
Q 55.609375 10.40625 48.1875 4.484375 
Q 40.765625 -1.421875 27.09375 -1.421875 
Q 22.515625 -1.421875 17.65625 -0.515625 
Q 12.796875 0.390625 7.625 2.203125 
L 7.625 11.71875 
Q 11.71875 9.328125 16.59375 8.109375 
Q 21.484375 6.890625 26.8125 6.890625 
Q 36.078125 6.890625 40.9375 10.546875 
Q 45.796875 14.203125 45.796875 21.1875 
Q 45.796875 27.640625 41.28125 31.265625 
Q 36.765625 34.90625 28.71875 34.90625 
L 20.21875 34.90625 
L 20.21875 43.015625 
L 29.109375 43.015625 
Q 36.375 43.015625 40.234375 45.921875 
Q 44.09375 48.828125 44.09375 54.296875 
Q 44.09375 59.90625 40.109375 62.90625 
Q 36.140625 65.921875 28.71875 65.921875 
Q 24.65625 65.921875 20.015625 65.03125 
Q 15.375 64.15625 9.8125 62.3125 
L 9.8125 71.09375 
Q 15.4375 72.65625 20.34375 73.4375 
Q 25.25 74.21875 29.59375 74.21875 
Q 40.828125 74.21875 47.359375 69.109375 
Q 53.90625 64.015625 53.90625 55.328125 
Q 53.90625 49.265625 50.4375 45.09375 
Q 46.96875 40.921875 40.578125 39.3125 
" id="DejaVuSans-33"/>
     <path d="M 19.671875 64.796875 
L 19.671875 8.109375 
L 31.59375 8.109375 
Q 46.6875 8.109375 53.6875 14.9375 
Q 60.6875 21.78125 60.6875 36.53125 
Q 60.6875 51.171875 53.6875 57.984375 
Q 46.6875 64.796875 31.59375 64.796875 
z
M 9.8125 72.90625 
L 30.078125 72.90625 
Q 51.265625 72.90625 61.171875 64.09375 
Q 71.09375 55.28125 71.09375 36.53125 
Q 71.09375 17.671875 61.125 8.828125 
Q 51.171875 0 30.078125 0 
L 9.8125 0 
z
" id="DejaVuSans-44"/>
    </defs>
    <g transform="translate(74.3712 50.114612)scale(0.1666 -0.1666)">
     <use xlink:href="#DejaVuSans-62"/>
     <use x="63.476562" xlink:href="#DejaVuSans-62"/>
     <use x="126.953125" xlink:href="#DejaVuSans-6f"/>
     <use x="188.134766" xlink:href="#DejaVuSans-62"/>
     <use x="251.611328" xlink:href="#DejaVuSans-20"/>
     <use x="283.398438" xlink:href="#DejaVuSans-2d"/>
     <use x="319.482422" xlink:href="#DejaVuSans-20"/>
     <use x="351.269531" xlink:href="#DejaVuSans-66"/>
     <use x="386.474609" xlink:href="#DejaVuSans-31"/>
     <use x="450.097656" xlink:href="#DejaVuSans-2d"/>
     <use x="486.181641" xlink:href="#DejaVuSans-66"/>
     <use x="521.386719" xlink:href="#DejaVuSans-32"/>
     <use x="585.009766" xlink:href="#DejaVuSans-34"/>
     <use x="648.632812" xlink:href="#DejaVuSans-2c"/>
     <use x="680.419922" xlink:href="#DejaVuSans-20"/>
     <use x="712.207031" xlink:href="#DejaVuSans-33"/>
     <use x="775.830078" xlink:href="#DejaVuSans-2d"/>
     <use x="811.914062" xlink:href="#DejaVuSans-44"/>
    </g>
    <!-- 51 targets in 100..1e-08 -->
    <defs>
     <path d="M 10.796875 72.90625 
L 49.515625 72.90625 
L 49.515625 64.59375 
L 19.828125 64.59375 
L 19.828125 46.734375 
Q 21.96875 47.46875 24.109375 47.828125 
Q 26.265625 48.1875 28.421875 48.1875 
Q 40.625 48.1875 47.75 41.5 
Q 54.890625 34.8125 54.890625 23.390625 
Q 54.890625 11.625 47.5625 5.09375 
Q 40.234375 -1.421875 26.90625 -1.421875 
Q 22.3125 -1.421875 17.546875 -0.640625 
Q 12.796875 0.140625 7.71875 1.703125 
L 7.71875 11.625 
Q 12.109375 9.234375 16.796875 8.0625 
Q 21.484375 6.890625 26.703125 6.890625 
Q 35.15625 6.890625 40.078125 11.328125 
Q 45.015625 15.765625 45.015625 23.390625 
Q 45.015625 31 40.078125 35.4375 
Q 35.15625 39.890625 26.703125 39.890625 
Q 22.75 39.890625 18.8125 39.015625 
Q 14.890625 38.140625 10.796875 36.28125 
z
" id="DejaVuSans-35"/>
    </defs>
    <g transform="translate(74.3712 68.770168)scale(0.1666 -0.1666)">
     <use xlink:href="#DejaVuSans-35"/>
     <use x="63.623047" xlink:href="#DejaVuSans-31"/>
     <use x="127.246094" xlink:href="#DejaVuSans-20"/>
     <use x="159.033203" xlink:href="#DejaVuSans-74"/>
     <use x="198.242188" xlink:href="#DejaVuSans-61"/>
     <use x="259.521484" xlink:href="#DejaVuSans-72"/>
     <use x="300.619141" xlink:href="#DejaVuSans-67"/>
     <use x="364.095703" xlink:href="#DejaVuSans-65"/>
     <use x="425.619141" xlink:href="#DejaVuSans-74"/>
     <use x="464.828125" xlink:href="#DejaVuSans-73"/>
     <use x="516.927734" xlink:href="#DejaVuSans-20"/>
     <use x="548.714844" xlink:href="#DejaVuSans-69"/>
     <use x="576.498047" xlink:href="#DejaVuSans-6e"/>
     <use x="639.876953" xlink:href="#DejaVuSans-20"/>
     <use x="671.664062" xlink:href="#DejaVuSans-31"/>
     <use x="735.287109" xlink:href="#DejaVuSans-30"/>
     <use x="798.910156" xlink:href="#DejaVuSans-30"/>
     <use x="862.533203" xlink:href="#DejaVuSans-2e"/>
     <use x="894.320312" xlink:href="#DejaVuSans-2e"/>
     <use x="926.107422" xlink:href="#DejaVuSans-31"/>
     <use x="989.730469" xlink:href="#DejaVuSans-65"/>
     <use x="1051.253906" xlink:href="#DejaVuSans-2d"/>
     <use x="1087.337891" xlink:href="#DejaVuSans-30"/>
     <use x="1150.960938" xlink:href="#DejaVuSans-38"/>
    </g>
    <!-- 30, 15 instances -->
    <g transform="translate(74.3712 87.425723)scale(0.1666 -0.1666)">
     <use xlink:href="#DejaVuSans-33"/>
     <use x="63.623047" xlink:href="#DejaVuSans-30"/>
     <use x="127.246094" xlink:href="#DejaVuSans-2c"/>
     <use x="159.033203" xlink:href="#DejaVuSans-20"/>
     <use x="190.820312" xlink:href="#DejaVuSans-31"/>
     <use x="254.443359" xlink:href="#DejaVuSans-35"/>
     <use x="318.066406" xlink:href="#DejaVuSans-20"/>
     <use x="349.853516" xlink:href="#DejaVuSans-69"/>
     <use x="377.636719" xlink:href="#DejaVuSans-6e"/>
     <use x="441.015625" xlink:href="#DejaVuSans-73"/>
     <use x="493.115234" xlink:href="#DejaVuSans-74"/>
     <use x="532.324219" xlink:href="#DejaVuSans-61"/>
     <use x="593.603516" xlink:href="#DejaVuSans-6e"/>
     <use x="656.982422" xlink:href="#DejaVuSans-63"/>
     <use x="711.962891" xlink:href="#DejaVuSans-65"/>
     <use x="773.486328" xlink:href="#DejaVuSans-73"/>
    </g>
   </g>
   <g id="text_18">
    <!-- v2.1 -->
    <g style="fill:#808080;" transform="translate(238.449063 293.504568)scale(0.1 -0.1)">
     <use xlink:href="#DejaVuSans-76"/>
     <use x="59.179688" xlink:href="#DejaVuSans-32"/>
     <use x="122.802734" xlink:href="#DejaVuSans-2e"/>
     <use x="154.589844" xlink:href="#DejaVuSans-31"/>
    </g>
   </g>
  </g>
 </g>
 <defs>
  <clipPath id="p08955cf508">
   <rect height="266.112" width="357.12" x="70.8" y="32.133375"/>
  </clipPath>
 </defs>
</svg>
