<?xml version="1.0" encoding="utf-8" standalone="no"?>
<!DOCTYPE svg PUBLIC "-//W3C//DTD SVG 1.1//EN"
  "http://www.w3.org/Graphics/SVG/1.1/DTD/svg11.dtd">
<!-- Created with matplotlib (http://matplotlib.org/) -->
<svg height="353pt" version="1.1" viewBox="0 0 483 353" width="483pt" xmlns="http://www.w3.org/2000/svg" xmlns:xlink="http://www.w3.org/1999/xlink">
 <defs>
  <style type="text/css">
*{stroke-linecap:butt;stroke-linejoin:round;}
  </style>
 </defs>
 <g id="figure_1">
  <g id="patch_1">
   <path d="M 0 353.22225 
L 483.757969 353.22225 
L 483.757969 0 
L 0 0 
z
" style="fill:#ffffff;"/>
  </g>
  <g id="axes_1">
   <g id="patch_2">
    <path d="M 70.8 298.245375 
L 427.92 298.245375 
L 427.92 32.133375 
L 70.8 32.133375 
z
" style="fill:#ffffff;"/>
   </g>
   <g id="line2d_1">
    <path d="M 58.414766 298.245375 
L 58.414766 276.54725 
L 70.8 276.54725 
L 70.8 273.447518 
L 78.044898 273.447518 
L 78.044898 271.38103 
L 83.185234 271.38103 
L 83.185234 269.314542 
L 87.172389 269.314542 
L 87.172389 268.281298 
L 90.430132 268.281298 
L 90.430132 266.21481 
L 93.184514 266.21481 
L 93.184514 265.181566 
L 97.675029 265.181566 
L 97.675029 263.115078 
L 99.557623 263.115078 
L 99.557623 261.04859 
L 101.260636 261.04859 
L 101.260636 260.015346 
L 109.03895 260.015346 
L 109.03895 258.982102 
L 111.026343 258.982102 
L 111.026343 256.915614 
L 114.44014 256.915614 
L 114.44014 255.88237 
L 116.630812 255.88237 
L 116.630812 254.849126 
L 117.954982 254.849126 
L 117.954982 253.815882 
L 119.773647 253.815882 
L 119.773647 252.782638 
L 120.340936 252.782638 
L 120.340936 251.749394 
L 122.935065 251.749394 
L 122.935065 250.71615 
L 123.411577 250.71615 
L 123.411577 249.682906 
L 124.328091 249.682906 
L 124.328091 247.616418 
L 124.769302 247.616418 
L 124.769302 246.583173 
L 126.825374 246.583173 
L 126.825374 244.516685 
L 127.585834 244.516685 
L 127.585834 243.483441 
L 128.315246 243.483441 
L 128.315246 242.450197 
L 130.656474 242.450197 
L 130.656474 241.416953 
L 130.967232 241.416953 
L 130.967232 240.383709 
L 131.868336 240.383709 
L 131.868336 238.317221 
L 132.444777 238.317221 
L 132.444777 237.283977 
L 133.276002 237.283977 
L 133.276002 236.250733 
L 135.077192 236.250733 
L 135.077192 235.217489 
L 136.935292 235.217489 
L 136.935292 234.184245 
L 138.212129 234.184245 
L 138.212129 233.151001 
L 139.210608 233.151001 
L 139.210608 232.117757 
L 141.40128 232.117757 
L 141.40128 231.084513 
L 143.657911 231.084513 
L 143.657911 230.051269 
L 143.808698 230.051269 
L 143.808698 229.018025 
L 144.971262 229.018025 
L 144.971262 227.984781 
L 145.796091 227.984781 
L 145.796091 225.918293 
L 145.929935 225.918293 
L 145.929935 224.885049 
L 147.462426 224.885049 
L 147.462426 223.851805 
L 148.646178 223.851805 
L 148.646178 222.818561 
L 149.756356 222.818561 
L 149.756356 221.785317 
L 150.597364 221.785317 
L 150.597364 220.752073 
L 150.902809 220.752073 
L 150.902809 219.718829 
L 152.72473 219.718829 
L 152.72473 218.685585 
L 153.43955 218.685585 
L 153.43955 217.652341 
L 153.872213 217.652341 
L 153.872213 216.619097 
L 154.042387 216.619097 
L 154.042387 215.585853 
L 154.460863 215.585853 
L 154.460863 214.552609 
L 154.625547 214.552609 
L 154.707324 212.48612 
L 155.030737 212.48612 
L 155.110684 210.419632 
L 155.348401 210.419632 
L 155.348401 208.353144 
L 155.7377 208.353144 
L 155.814552 206.286656 
L 155.967272 206.286656 
L 155.967272 205.253412 
L 156.193932 205.253412 
L 156.193932 204.220168 
L 156.343457 204.220168 
L 156.343457 203.186924 
L 156.491741 203.186924 
L 156.491741 201.120436 
L 156.784667 201.120436 
L 156.784667 200.087192 
L 157.001253 200.087192 
L 157.001253 199.053948 
L 157.215245 199.053948 
L 157.28601 196.98746 
L 157.426705 196.98746 
L 157.426705 195.954216 
L 157.704813 195.954216 
L 157.704813 193.887728 
L 157.97866 193.887728 
L 158.04647 191.82124 
L 158.248372 191.82124 
L 158.315169 189.754752 
L 158.448018 189.754752 
L 158.448018 188.721508 
L 158.775882 188.721508 
L 158.84074 185.621776 
L 158.905362 185.621776 
L 158.969752 182.522044 
L 159.16154 182.522044 
L 159.225015 180.455556 
L 159.786363 180.455556 
L 159.786363 179.422312 
L 160.449337 179.422312 
L 160.449337 178.389067 
L 161.483794 178.389067 
L 161.483794 177.355823 
L 161.595122 177.355823 
L 161.595122 176.322579 
L 161.815719 176.322579 
L 161.925004 174.256091 
L 162.355582 174.256091 
L 162.355582 173.222847 
L 162.67184 173.222847 
L 162.67184 172.189603 
L 162.982598 172.189603 
L 162.982598 171.156359 
L 163.43883 171.156359 
L 163.48881 168.056627 
L 163.981076 168.056627 
L 163.981076 167.023383 
L 164.741536 167.023383 
L 164.741536 165.990139 
L 164.880588 165.990139 
L 164.9267 163.923651 
L 165.018567 163.923651 
L 165.064324 161.857163 
L 165.155488 161.857163 
L 165.155488 160.823919 
L 165.291368 160.823919 
L 165.291368 159.790675 
L 165.560066 159.790675 
L 165.560066 158.757431 
L 165.692915 158.757431 
L 165.692915 157.724187 
L 165.824784 157.724187 
L 165.868525 155.657699 
L 166.042425 155.657699 
L 166.042425 154.624455 
L 168.199786 154.624455 
L 168.199786 152.557967 
L 170.329892 152.557967 
L 170.397831 149.458235 
L 170.499259 149.458235 
L 170.566559 147.391747 
L 170.633606 147.391747 
L 170.700403 144.292014 
L 170.766951 144.292014 
L 170.766951 143.25877 
L 171.258314 143.25877 
L 171.354986 140.159038 
L 171.419144 140.159038 
L 171.483073 137.059306 
L 173.21507 137.059306 
L 173.21507 136.026062 
L 174.580563 136.026062 
L 174.580563 134.992818 
L 175.213128 134.992818 
L 175.213128 133.959574 
L 176.072581 133.959574 
L 176.072581 132.92633 
L 176.36631 132.92633 
L 176.438994 130.859842 
L 176.559481 130.859842 
L 176.559481 129.826598 
L 176.750586 129.826598 
L 176.750586 128.793354 
L 176.916142 128.793354 
L 176.916142 127.76011 
L 178.642681 127.76011 
L 178.74923 125.693622 
L 179.801206 125.693622 
L 179.801206 124.660378 
L 182.423465 124.660378 
L 182.423465 123.627134 
L 182.578466 123.627134 
L 182.612729 121.560646 
L 182.766105 121.560646 
L 182.766105 120.527402 
L 182.901342 120.527402 
L 182.985348 117.42767 
L 183.035563 117.42767 
L 183.068961 115.361182 
L 183.201934 115.361182 
L 183.201934 114.327938 
L 183.317479 114.327938 
L 183.333924 112.26145 
L 183.69195 112.26145 
L 183.756281 109.161717 
L 183.900186 109.161717 
L 183.900186 108.128473 
L 184.200232 108.128473 
L 184.278362 105.028741 
L 184.433602 105.028741 
L 184.433602 103.995497 
L 184.556831 103.995497 
L 184.556831 102.962253 
L 185.264125 102.962253 
L 185.264125 101.929009 
L 185.381775 101.929009 
L 185.484088 97.796033 
L 185.556811 97.796033 
L 185.556811 96.762789 
L 185.715769 96.762789 
L 185.816192 93.663057 
L 186.043633 93.663057 
L 186.057753 91.596569 
L 186.572479 91.596569 
L 186.572479 90.563325 
L 186.979206 90.563325 
L 186.979206 89.530081 
L 187.17915 89.530081 
L 187.17915 88.496837 
L 187.389986 88.496837 
L 187.389986 87.463593 
L 187.675882 87.463593 
L 187.675882 86.430349 
L 187.919163 86.430349 
L 188.007965 84.363861 
L 188.445471 84.363861 
L 188.556262 80.230885 
L 188.56853 80.230885 
L 188.605283 77.131153 
L 188.824228 77.131153 
L 188.824228 76.097908 
L 189.266029 76.097908 
L 189.289601 74.03142 
L 189.395295 74.03142 
L 189.395295 72.998176 
L 189.891824 72.998176 
L 189.971364 70.931688 
L 190.286031 70.931688 
L 190.286031 69.898444 
L 190.430264 69.898444 
L 190.430264 68.8652 
L 190.617136 68.8652 
L 190.617136 67.831956 
L 190.866892 67.831956 
L 190.866892 66.798712 
L 191.134464 66.798712 
L 191.134464 65.765468 
L 191.408552 65.765468 
L 191.408552 64.732224 
L 192.075925 64.732224 
L 192.075925 63.69898 
L 192.336048 63.69898 
L 192.336048 62.665736 
L 192.504103 62.665736 
L 192.51394 60.599248 
L 192.631558 60.599248 
L 192.651086 58.53276 
L 193.05632 58.53276 
L 193.05632 57.499516 
L 193.573455 57.499516 
L 193.573455 56.466272 
L 194.869137 56.466272 
L 194.869137 55.433028 
L 195.006519 55.433028 
L 195.0407 53.36654 
L 197.508635 53.36654 
L 197.568023 51.300052 
L 197.76701 51.300052 
L 197.76701 50.266808 
L 197.949302 50.266808 
L 197.949302 49.233564 
L 198.826962 49.233564 
L 198.909653 47.167076 
L 198.991963 47.167076 
L 199.067082 45.100588 
L 199.663523 45.100588 
L 199.663523 44.067344 
L 199.970644 44.067344 
L 199.970644 43.0341 
L 200.221542 43.0341 
L 200.221542 42.000855 
L 200.513014 42.000855 
L 200.60704 39.934367 
L 200.719223 39.934367 
L 200.812173 37.867879 
L 200.867712 37.867879 
L 200.867712 36.834635 
L 200.990517 36.834635 
L 201.051605 34.768147 
L 358.8 34.768147 
L 358.8 34.768147 
" style="fill:none;stroke:#f5deb3;stroke-linecap:square;stroke-width:6;"/>
   </g>
   <g id="line2d_2"/>
   <g id="line2d_3">
    <path d="M 358.8 34.768147 
L 390.48 40.037692 
" style="fill:none;stroke:#f5deb3;stroke-linecap:square;stroke-width:6;"/>
    <defs>
     <path d="M -0 7.778175 
L 7.778175 0 
L 0 -7.778175 
L -7.778175 -0 
z
" id="m886b0e27f0" style="stroke:#f5deb3;stroke-linejoin:miter;stroke-width:1.5;"/>
    </defs>
    <g>
     <use style="fill:#f5deb3;stroke:#f5deb3;stroke-linejoin:miter;stroke-width:1.5;" x="358.8" xlink:href="#m886b0e27f0" y="34.768147"/>
     <use style="fill:#f5deb3;stroke:#f5deb3;stroke-linejoin:miter;stroke-width:1.5;" x="390.48" xlink:href="#m886b0e27f0" y="40.037692"/>
    </g>
   </g>
   <g id="matplotlib.axis_1">
    <g id="xtick_1">
     <g id="line2d_4">
      <path clip-path="url(#pcbacf26a1f)" d="M 70.8 298.245375 
L 70.8 32.133375 
" style="fill:none;stroke:#b0b0b0;stroke-linecap:square;stroke-width:0.8;"/>
     </g>
     <g id="line2d_5">
      <defs>
       <path d="M 0 0 
L 0 3.5 
" id="m25af8669bf" style="stroke:#000000;stroke-width:0.8;"/>
      </defs>
      <g>
       <use style="stroke:#000000;stroke-width:0.8;" x="70.8" xlink:href="#m25af8669bf" y="298.245375"/>
      </g>
     </g>
     <g id="text_1">
      <!-- 0 -->
      <defs>
       <path d="M 31.78125 66.40625 
Q 24.171875 66.40625 20.328125 58.90625 
Q 16.5 51.421875 16.5 36.375 
Q 16.5 21.390625 20.328125 13.890625 
Q 24.171875 6.390625 31.78125 6.390625 
Q 39.453125 6.390625 43.28125 13.890625 
Q 47.125 21.390625 47.125 36.375 
Q 47.125 51.421875 43.28125 58.90625 
Q 39.453125 66.40625 31.78125 66.40625 
M 31.78125 74.21875 
Q 44.046875 74.21875 50.515625 64.515625 
Q 56.984375 54.828125 56.984375 36.375 
Q 56.984375 17.96875 50.515625 8.265625 
Q 44.046875 -1.421875 31.78125 -1.421875 
Q 19.53125 -1.421875 13.0625 8.265625 
Q 6.59375 17.96875 6.59375 36.375 
Q 6.59375 54.828125 13.0625 64.515625 
Q 19.53125 74.21875 31.78125 74.21875 
" id="DejaVuSans-30"/>
      </defs>
      <g transform="translate(64.4375 320.44225)scale(0.2 -0.2)">
       <use xlink:href="#DejaVuSans-30"/>
      </g>
     </g>
    </g>
    <g id="xtick_2">
     <g id="line2d_6">
      <path clip-path="url(#pcbacf26a1f)" d="M 153.085714 298.245375 
L 153.085714 32.133375 
" style="fill:none;stroke:#b0b0b0;stroke-linecap:square;stroke-width:0.8;"/>
     </g>
     <g id="line2d_7">
      <g>
       <use style="stroke:#000000;stroke-width:0.8;" x="153.085714" xlink:href="#m25af8669bf" y="298.245375"/>
      </g>
     </g>
     <g id="text_2">
      <!-- 2 -->
      <defs>
       <path d="M 19.1875 8.296875 
L 53.609375 8.296875 
L 53.609375 0 
L 7.328125 0 
L 7.328125 8.296875 
Q 12.9375 14.109375 22.625 23.890625 
Q 32.328125 33.6875 34.8125 36.53125 
Q 39.546875 41.84375 41.421875 45.53125 
Q 43.3125 49.21875 43.3125 52.78125 
Q 43.3125 58.59375 39.234375 62.25 
Q 35.15625 65.921875 28.609375 65.921875 
Q 23.96875 65.921875 18.8125 64.3125 
Q 13.671875 62.703125 7.8125 59.421875 
L 7.8125 69.390625 
Q 13.765625 71.78125 18.9375 73 
Q 24.125 74.21875 28.421875 74.21875 
Q 39.75 74.21875 46.484375 68.546875 
Q 53.21875 62.890625 53.21875 53.421875 
Q 53.21875 48.921875 51.53125 44.890625 
Q 49.859375 40.875 45.40625 35.40625 
Q 44.1875 33.984375 37.640625 27.21875 
Q 31.109375 20.453125 19.1875 8.296875 
" id="DejaVuSans-32"/>
      </defs>
      <g transform="translate(146.723214 320.44225)scale(0.2 -0.2)">
       <use xlink:href="#DejaVuSans-32"/>
      </g>
     </g>
    </g>
    <g id="xtick_3">
     <g id="line2d_8">
      <path clip-path="url(#pcbacf26a1f)" d="M 235.371429 298.245375 
L 235.371429 32.133375 
" style="fill:none;stroke:#b0b0b0;stroke-linecap:square;stroke-width:0.8;"/>
     </g>
     <g id="line2d_9">
      <g>
       <use style="stroke:#000000;stroke-width:0.8;" x="235.371429" xlink:href="#m25af8669bf" y="298.245375"/>
      </g>
     </g>
     <g id="text_3">
      <!-- 4 -->
      <defs>
       <path d="M 37.796875 64.3125 
L 12.890625 25.390625 
L 37.796875 25.390625 
z
M 35.203125 72.90625 
L 47.609375 72.90625 
L 47.609375 25.390625 
L 58.015625 25.390625 
L 58.015625 17.1875 
L 47.609375 17.1875 
L 47.609375 0 
L 37.796875 0 
L 37.796875 17.1875 
L 4.890625 17.1875 
L 4.890625 26.703125 
z
" id="DejaVuSans-34"/>
      </defs>
      <g transform="translate(229.008929 320.44225)scale(0.2 -0.2)">
       <use xlink:href="#DejaVuSans-34"/>
      </g>
     </g>
    </g>
    <g id="xtick_4">
     <g id="line2d_10">
      <path clip-path="url(#pcbacf26a1f)" d="M 317.657143 298.245375 
L 317.657143 32.133375 
" style="fill:none;stroke:#b0b0b0;stroke-linecap:square;stroke-width:0.8;"/>
     </g>
     <g id="line2d_11">
      <g>
       <use style="stroke:#000000;stroke-width:0.8;" x="317.657143" xlink:href="#m25af8669bf" y="298.245375"/>
      </g>
     </g>
     <g id="text_4">
      <!-- 6 -->
      <defs>
       <path d="M 33.015625 40.375 
Q 26.375 40.375 22.484375 35.828125 
Q 18.609375 31.296875 18.609375 23.390625 
Q 18.609375 15.53125 22.484375 10.953125 
Q 26.375 6.390625 33.015625 6.390625 
Q 39.65625 6.390625 43.53125 10.953125 
Q 47.40625 15.53125 47.40625 23.390625 
Q 47.40625 31.296875 43.53125 35.828125 
Q 39.65625 40.375 33.015625 40.375 
M 52.59375 71.296875 
L 52.59375 62.3125 
Q 48.875 64.0625 45.09375 64.984375 
Q 41.3125 65.921875 37.59375 65.921875 
Q 27.828125 65.921875 22.671875 59.328125 
Q 17.53125 52.734375 16.796875 39.40625 
Q 19.671875 43.65625 24.015625 45.921875 
Q 28.375 48.1875 33.59375 48.1875 
Q 44.578125 48.1875 50.953125 41.515625 
Q 57.328125 34.859375 57.328125 23.390625 
Q 57.328125 12.15625 50.6875 5.359375 
Q 44.046875 -1.421875 33.015625 -1.421875 
Q 20.359375 -1.421875 13.671875 8.265625 
Q 6.984375 17.96875 6.984375 36.375 
Q 6.984375 53.65625 15.1875 63.9375 
Q 23.390625 74.21875 37.203125 74.21875 
Q 40.921875 74.21875 44.703125 73.484375 
Q 48.484375 72.75 52.59375 71.296875 
" id="DejaVuSans-36"/>
      </defs>
      <g transform="translate(311.294643 320.44225)scale(0.2 -0.2)">
       <use xlink:href="#DejaVuSans-36"/>
      </g>
     </g>
    </g>
    <g id="xtick_5">
     <g id="line2d_12">
      <path clip-path="url(#pcbacf26a1f)" d="M 399.942857 298.245375 
L 399.942857 32.133375 
" style="fill:none;stroke:#b0b0b0;stroke-linecap:square;stroke-width:0.8;"/>
     </g>
     <g id="line2d_13">
      <g>
       <use style="stroke:#000000;stroke-width:0.8;" x="399.942857" xlink:href="#m25af8669bf" y="298.245375"/>
      </g>
     </g>
     <g id="text_5">
      <!-- 8 -->
      <defs>
       <path d="M 31.78125 34.625 
Q 24.75 34.625 20.71875 30.859375 
Q 16.703125 27.09375 16.703125 20.515625 
Q 16.703125 13.921875 20.71875 10.15625 
Q 24.75 6.390625 31.78125 6.390625 
Q 38.8125 6.390625 42.859375 10.171875 
Q 46.921875 13.96875 46.921875 20.515625 
Q 46.921875 27.09375 42.890625 30.859375 
Q 38.875 34.625 31.78125 34.625 
M 21.921875 38.8125 
Q 15.578125 40.375 12.03125 44.71875 
Q 8.5 49.078125 8.5 55.328125 
Q 8.5 64.0625 14.71875 69.140625 
Q 20.953125 74.21875 31.78125 74.21875 
Q 42.671875 74.21875 48.875 69.140625 
Q 55.078125 64.0625 55.078125 55.328125 
Q 55.078125 49.078125 51.53125 44.71875 
Q 48 40.375 41.703125 38.8125 
Q 48.828125 37.15625 52.796875 32.3125 
Q 56.78125 27.484375 56.78125 20.515625 
Q 56.78125 9.90625 50.3125 4.234375 
Q 43.84375 -1.421875 31.78125 -1.421875 
Q 19.734375 -1.421875 13.25 4.234375 
Q 6.78125 9.90625 6.78125 20.515625 
Q 6.78125 27.484375 10.78125 32.3125 
Q 14.796875 37.15625 21.921875 38.8125 
M 18.3125 54.390625 
Q 18.3125 48.734375 21.84375 45.5625 
Q 25.390625 42.390625 31.78125 42.390625 
Q 38.140625 42.390625 41.71875 45.5625 
Q 45.3125 48.734375 45.3125 54.390625 
Q 45.3125 60.0625 41.71875 63.234375 
Q 38.140625 66.40625 31.78125 66.40625 
Q 25.390625 66.40625 21.84375 63.234375 
Q 18.3125 60.0625 18.3125 54.390625 
" id="DejaVuSans-38"/>
      </defs>
      <g transform="translate(393.580357 320.44225)scale(0.2 -0.2)">
       <use xlink:href="#DejaVuSans-38"/>
      </g>
     </g>
    </g>
    <g id="xtick_6">
     <g id="line2d_14">
      <defs>
       <path d="M 0 0 
L 0 2 
" id="ma1fe49430c" style="stroke:#000000;stroke-width:0.6;"/>
      </defs>
      <g>
       <use style="stroke:#000000;stroke-width:0.6;" x="83.185234" xlink:href="#ma1fe49430c" y="298.245375"/>
      </g>
     </g>
    </g>
    <g id="xtick_7">
     <g id="line2d_15">
      <g>
       <use style="stroke:#000000;stroke-width:0.6;" x="95.570468" xlink:href="#ma1fe49430c" y="298.245375"/>
      </g>
     </g>
    </g>
    <g id="xtick_8">
     <g id="line2d_16">
      <g>
       <use style="stroke:#000000;stroke-width:0.6;" x="102.815366" xlink:href="#ma1fe49430c" y="298.245375"/>
      </g>
     </g>
    </g>
    <g id="xtick_9">
     <g id="line2d_17">
      <g>
       <use style="stroke:#000000;stroke-width:0.6;" x="107.955702" xlink:href="#ma1fe49430c" y="298.245375"/>
      </g>
     </g>
    </g>
    <g id="xtick_10">
     <g id="line2d_18">
      <g>
       <use style="stroke:#000000;stroke-width:0.6;" x="165.470948" xlink:href="#ma1fe49430c" y="298.245375"/>
      </g>
     </g>
    </g>
    <g id="xtick_11">
     <g id="line2d_19">
      <g>
       <use style="stroke:#000000;stroke-width:0.6;" x="177.856183" xlink:href="#ma1fe49430c" y="298.245375"/>
      </g>
     </g>
    </g>
    <g id="xtick_12">
     <g id="line2d_20">
      <g>
       <use style="stroke:#000000;stroke-width:0.6;" x="185.10108" xlink:href="#ma1fe49430c" y="298.245375"/>
      </g>
     </g>
    </g>
    <g id="xtick_13">
     <g id="line2d_21">
      <g>
       <use style="stroke:#000000;stroke-width:0.6;" x="190.241417" xlink:href="#ma1fe49430c" y="298.245375"/>
      </g>
     </g>
    </g>
    <g id="xtick_14">
     <g id="line2d_22">
      <g>
       <use style="stroke:#000000;stroke-width:0.6;" x="247.756663" xlink:href="#ma1fe49430c" y="298.245375"/>
      </g>
     </g>
    </g>
    <g id="xtick_15">
     <g id="line2d_23">
      <g>
       <use style="stroke:#000000;stroke-width:0.6;" x="260.141897" xlink:href="#ma1fe49430c" y="298.245375"/>
      </g>
     </g>
    </g>
    <g id="xtick_16">
     <g id="line2d_24">
      <g>
       <use style="stroke:#000000;stroke-width:0.6;" x="267.386794" xlink:href="#ma1fe49430c" y="298.245375"/>
      </g>
     </g>
    </g>
    <g id="xtick_17">
     <g id="line2d_25">
      <g>
       <use style="stroke:#000000;stroke-width:0.6;" x="272.527131" xlink:href="#ma1fe49430c" y="298.245375"/>
      </g>
     </g>
    </g>
    <g id="xtick_18">
     <g id="line2d_26">
      <g>
       <use style="stroke:#000000;stroke-width:0.6;" x="330.042377" xlink:href="#ma1fe49430c" y="298.245375"/>
      </g>
     </g>
    </g>
    <g id="xtick_19">
     <g id="line2d_27">
      <g>
       <use style="stroke:#000000;stroke-width:0.6;" x="342.427611" xlink:href="#ma1fe49430c" y="298.245375"/>
      </g>
     </g>
    </g>
    <g id="xtick_20">
     <g id="line2d_28">
      <g>
       <use style="stroke:#000000;stroke-width:0.6;" x="349.672509" xlink:href="#ma1fe49430c" y="298.245375"/>
      </g>
     </g>
    </g>
    <g id="xtick_21">
     <g id="line2d_29">
      <g>
       <use style="stroke:#000000;stroke-width:0.6;" x="354.812845" xlink:href="#ma1fe49430c" y="298.245375"/>
      </g>
     </g>
    </g>
    <g id="xtick_22">
     <g id="line2d_30">
      <g>
       <use style="stroke:#000000;stroke-width:0.6;" x="412.328091" xlink:href="#ma1fe49430c" y="298.245375"/>
      </g>
     </g>
    </g>
    <g id="xtick_23">
     <g id="line2d_31">
      <g>
       <use style="stroke:#000000;stroke-width:0.6;" x="424.713325" xlink:href="#ma1fe49430c" y="298.245375"/>
      </g>
     </g>
    </g>
    <g id="text_6">
     <!-- log10 of (# f-evals / dimension) -->
     <defs>
      <path d="M 9.421875 75.984375 
L 18.40625 75.984375 
L 18.40625 0 
L 9.421875 0 
z
" id="DejaVuSans-6c"/>
      <path d="M 30.609375 48.390625 
Q 23.390625 48.390625 19.1875 42.75 
Q 14.984375 37.109375 14.984375 27.296875 
Q 14.984375 17.484375 19.15625 11.84375 
Q 23.34375 6.203125 30.609375 6.203125 
Q 37.796875 6.203125 41.984375 11.859375 
Q 46.1875 17.53125 46.1875 27.296875 
Q 46.1875 37.015625 41.984375 42.703125 
Q 37.796875 48.390625 30.609375 48.390625 
M 30.609375 56 
Q 42.328125 56 49.015625 48.375 
Q 55.71875 40.765625 55.71875 27.296875 
Q 55.71875 13.875 49.015625 6.21875 
Q 42.328125 -1.421875 30.609375 -1.421875 
Q 18.84375 -1.421875 12.171875 6.21875 
Q 5.515625 13.875 5.515625 27.296875 
Q 5.515625 40.765625 12.171875 48.375 
Q 18.84375 56 30.609375 56 
" id="DejaVuSans-6f"/>
      <path d="M 45.40625 27.984375 
Q 45.40625 37.75 41.375 43.109375 
Q 37.359375 48.484375 30.078125 48.484375 
Q 22.859375 48.484375 18.828125 43.109375 
Q 14.796875 37.75 14.796875 27.984375 
Q 14.796875 18.265625 18.828125 12.890625 
Q 22.859375 7.515625 30.078125 7.515625 
Q 37.359375 7.515625 41.375 12.890625 
Q 45.40625 18.265625 45.40625 27.984375 
M 54.390625 6.78125 
Q 54.390625 -7.171875 48.1875 -13.984375 
Q 42 -20.796875 29.203125 -20.796875 
Q 24.46875 -20.796875 20.265625 -20.09375 
Q 16.0625 -19.390625 12.109375 -17.921875 
L 12.109375 -9.1875 
Q 16.0625 -11.328125 19.921875 -12.34375 
Q 23.78125 -13.375 27.78125 -13.375 
Q 36.625 -13.375 41.015625 -8.765625 
Q 45.40625 -4.15625 45.40625 5.171875 
L 45.40625 9.625 
Q 42.625 4.78125 38.28125 2.390625 
Q 33.9375 0 27.875 0 
Q 17.828125 0 11.671875 7.65625 
Q 5.515625 15.328125 5.515625 27.984375 
Q 5.515625 40.671875 11.671875 48.328125 
Q 17.828125 56 27.875 56 
Q 33.9375 56 38.28125 53.609375 
Q 42.625 51.21875 45.40625 46.390625 
L 45.40625 54.6875 
L 54.390625 54.6875 
z
" id="DejaVuSans-67"/>
      <path d="M 12.40625 8.296875 
L 28.515625 8.296875 
L 28.515625 63.921875 
L 10.984375 60.40625 
L 10.984375 69.390625 
L 28.421875 72.90625 
L 38.28125 72.90625 
L 38.28125 8.296875 
L 54.390625 8.296875 
L 54.390625 0 
L 12.40625 0 
z
" id="DejaVuSans-31"/>
      <path id="DejaVuSans-20"/>
      <path d="M 37.109375 75.984375 
L 37.109375 68.5 
L 28.515625 68.5 
Q 23.6875 68.5 21.796875 66.546875 
Q 19.921875 64.59375 19.921875 59.515625 
L 19.921875 54.6875 
L 34.71875 54.6875 
L 34.71875 47.703125 
L 19.921875 47.703125 
L 19.921875 0 
L 10.890625 0 
L 10.890625 47.703125 
L 2.296875 47.703125 
L 2.296875 54.6875 
L 10.890625 54.6875 
L 10.890625 58.5 
Q 10.890625 67.625 15.140625 71.796875 
Q 19.390625 75.984375 28.609375 75.984375 
z
" id="DejaVuSans-66"/>
      <path d="M 31 75.875 
Q 24.46875 64.65625 21.28125 53.65625 
Q 18.109375 42.671875 18.109375 31.390625 
Q 18.109375 20.125 21.3125 9.0625 
Q 24.515625 -2 31 -13.1875 
L 23.1875 -13.1875 
Q 15.875 -1.703125 12.234375 9.375 
Q 8.59375 20.453125 8.59375 31.390625 
Q 8.59375 42.28125 12.203125 53.3125 
Q 15.828125 64.359375 23.1875 75.875 
z
" id="DejaVuSans-28"/>
      <path d="M 51.125 44 
L 36.921875 44 
L 32.8125 27.6875 
L 47.125 27.6875 
z
M 43.796875 71.78125 
L 38.71875 51.515625 
L 52.984375 51.515625 
L 58.109375 71.78125 
L 65.921875 71.78125 
L 60.890625 51.515625 
L 76.125 51.515625 
L 76.125 44 
L 58.984375 44 
L 54.984375 27.6875 
L 70.515625 27.6875 
L 70.515625 20.21875 
L 53.078125 20.21875 
L 48 0 
L 40.1875 0 
L 45.21875 20.21875 
L 30.90625 20.21875 
L 25.875 0 
L 18.015625 0 
L 23.09375 20.21875 
L 7.71875 20.21875 
L 7.71875 27.6875 
L 24.90625 27.6875 
L 29 44 
L 13.28125 44 
L 13.28125 51.515625 
L 30.90625 51.515625 
L 35.890625 71.78125 
z
" id="DejaVuSans-23"/>
      <path d="M 4.890625 31.390625 
L 31.203125 31.390625 
L 31.203125 23.390625 
L 4.890625 23.390625 
z
" id="DejaVuSans-2d"/>
      <path d="M 56.203125 29.59375 
L 56.203125 25.203125 
L 14.890625 25.203125 
Q 15.484375 15.921875 20.484375 11.0625 
Q 25.484375 6.203125 34.421875 6.203125 
Q 39.59375 6.203125 44.453125 7.46875 
Q 49.3125 8.734375 54.109375 11.28125 
L 54.109375 2.78125 
Q 49.265625 0.734375 44.1875 -0.34375 
Q 39.109375 -1.421875 33.890625 -1.421875 
Q 20.796875 -1.421875 13.15625 6.1875 
Q 5.515625 13.8125 5.515625 26.8125 
Q 5.515625 40.234375 12.765625 48.109375 
Q 20.015625 56 32.328125 56 
Q 43.359375 56 49.78125 48.890625 
Q 56.203125 41.796875 56.203125 29.59375 
M 47.21875 32.234375 
Q 47.125 39.59375 43.09375 43.984375 
Q 39.0625 48.390625 32.421875 48.390625 
Q 24.90625 48.390625 20.390625 44.140625 
Q 15.875 39.890625 15.1875 32.171875 
z
" id="DejaVuSans-65"/>
      <path d="M 2.984375 54.6875 
L 12.5 54.6875 
L 29.59375 8.796875 
L 46.6875 54.6875 
L 56.203125 54.6875 
L 35.6875 0 
L 23.484375 0 
z
" id="DejaVuSans-76"/>
      <path d="M 34.28125 27.484375 
Q 23.390625 27.484375 19.1875 25 
Q 14.984375 22.515625 14.984375 16.5 
Q 14.984375 11.71875 18.140625 8.90625 
Q 21.296875 6.109375 26.703125 6.109375 
Q 34.1875 6.109375 38.703125 11.40625 
Q 43.21875 16.703125 43.21875 25.484375 
L 43.21875 27.484375 
z
M 52.203125 31.203125 
L 52.203125 0 
L 43.21875 0 
L 43.21875 8.296875 
Q 40.140625 3.328125 35.546875 0.953125 
Q 30.953125 -1.421875 24.3125 -1.421875 
Q 15.921875 -1.421875 10.953125 3.296875 
Q 6 8.015625 6 15.921875 
Q 6 25.140625 12.171875 29.828125 
Q 18.359375 34.515625 30.609375 34.515625 
L 43.21875 34.515625 
L 43.21875 35.40625 
Q 43.21875 41.609375 39.140625 45 
Q 35.0625 48.390625 27.6875 48.390625 
Q 23 48.390625 18.546875 47.265625 
Q 14.109375 46.140625 10.015625 43.890625 
L 10.015625 52.203125 
Q 14.9375 54.109375 19.578125 55.046875 
Q 24.21875 56 28.609375 56 
Q 40.484375 56 46.34375 49.84375 
Q 52.203125 43.703125 52.203125 31.203125 
" id="DejaVuSans-61"/>
      <path d="M 44.28125 53.078125 
L 44.28125 44.578125 
Q 40.484375 46.53125 36.375 47.5 
Q 32.28125 48.484375 27.875 48.484375 
Q 21.1875 48.484375 17.84375 46.4375 
Q 14.5 44.390625 14.5 40.28125 
Q 14.5 37.15625 16.890625 35.375 
Q 19.28125 33.59375 26.515625 31.984375 
L 29.59375 31.296875 
Q 39.15625 29.25 43.1875 25.515625 
Q 47.21875 21.78125 47.21875 15.09375 
Q 47.21875 7.46875 41.1875 3.015625 
Q 35.15625 -1.421875 24.609375 -1.421875 
Q 20.21875 -1.421875 15.453125 -0.5625 
Q 10.6875 0.296875 5.421875 2 
L 5.421875 11.28125 
Q 10.40625 8.6875 15.234375 7.390625 
Q 20.0625 6.109375 24.8125 6.109375 
Q 31.15625 6.109375 34.5625 8.28125 
Q 37.984375 10.453125 37.984375 14.40625 
Q 37.984375 18.0625 35.515625 20.015625 
Q 33.0625 21.96875 24.703125 23.78125 
L 21.578125 24.515625 
Q 13.234375 26.265625 9.515625 29.90625 
Q 5.8125 33.546875 5.8125 39.890625 
Q 5.8125 47.609375 11.28125 51.796875 
Q 16.75 56 26.8125 56 
Q 31.78125 56 36.171875 55.265625 
Q 40.578125 54.546875 44.28125 53.078125 
" id="DejaVuSans-73"/>
      <path d="M 25.390625 72.90625 
L 33.6875 72.90625 
L 8.296875 -9.28125 
L 0 -9.28125 
z
" id="DejaVuSans-2f"/>
      <path d="M 45.40625 46.390625 
L 45.40625 75.984375 
L 54.390625 75.984375 
L 54.390625 0 
L 45.40625 0 
L 45.40625 8.203125 
Q 42.578125 3.328125 38.25 0.953125 
Q 33.9375 -1.421875 27.875 -1.421875 
Q 17.96875 -1.421875 11.734375 6.484375 
Q 5.515625 14.40625 5.515625 27.296875 
Q 5.515625 40.1875 11.734375 48.09375 
Q 17.96875 56 27.875 56 
Q 33.9375 56 38.25 53.625 
Q 42.578125 51.265625 45.40625 46.390625 
M 14.796875 27.296875 
Q 14.796875 17.390625 18.875 11.75 
Q 22.953125 6.109375 30.078125 6.109375 
Q 37.203125 6.109375 41.296875 11.75 
Q 45.40625 17.390625 45.40625 27.296875 
Q 45.40625 37.203125 41.296875 42.84375 
Q 37.203125 48.484375 30.078125 48.484375 
Q 22.953125 48.484375 18.875 42.84375 
Q 14.796875 37.203125 14.796875 27.296875 
" id="DejaVuSans-64"/>
      <path d="M 9.421875 54.6875 
L 18.40625 54.6875 
L 18.40625 0 
L 9.421875 0 
z
M 9.421875 75.984375 
L 18.40625 75.984375 
L 18.40625 64.59375 
L 9.421875 64.59375 
z
" id="DejaVuSans-69"/>
      <path d="M 52 44.1875 
Q 55.375 50.25 60.0625 53.125 
Q 64.75 56 71.09375 56 
Q 79.640625 56 84.28125 50.015625 
Q 88.921875 44.046875 88.921875 33.015625 
L 88.921875 0 
L 79.890625 0 
L 79.890625 32.71875 
Q 79.890625 40.578125 77.09375 44.375 
Q 74.3125 48.1875 68.609375 48.1875 
Q 61.625 48.1875 57.5625 43.546875 
Q 53.515625 38.921875 53.515625 30.90625 
L 53.515625 0 
L 44.484375 0 
L 44.484375 32.71875 
Q 44.484375 40.625 41.703125 44.40625 
Q 38.921875 48.1875 33.109375 48.1875 
Q 26.21875 48.1875 22.15625 43.53125 
Q 18.109375 38.875 18.109375 30.90625 
L 18.109375 0 
L 9.078125 0 
L 9.078125 54.6875 
L 18.109375 54.6875 
L 18.109375 46.1875 
Q 21.1875 51.21875 25.484375 53.609375 
Q 29.78125 56 35.6875 56 
Q 41.65625 56 45.828125 52.96875 
Q 50 49.953125 52 44.1875 
" id="DejaVuSans-6d"/>
      <path d="M 54.890625 33.015625 
L 54.890625 0 
L 45.90625 0 
L 45.90625 32.71875 
Q 45.90625 40.484375 42.875 44.328125 
Q 39.84375 48.1875 33.796875 48.1875 
Q 26.515625 48.1875 22.3125 43.546875 
Q 18.109375 38.921875 18.109375 30.90625 
L 18.109375 0 
L 9.078125 0 
L 9.078125 54.6875 
L 18.109375 54.6875 
L 18.109375 46.1875 
Q 21.34375 51.125 25.703125 53.5625 
Q 30.078125 56 35.796875 56 
Q 45.21875 56 50.046875 50.171875 
Q 54.890625 44.34375 54.890625 33.015625 
" id="DejaVuSans-6e"/>
      <path d="M 8.015625 75.875 
L 15.828125 75.875 
Q 23.140625 64.359375 26.78125 53.3125 
Q 30.421875 42.28125 30.421875 31.390625 
Q 30.421875 20.453125 26.78125 9.375 
Q 23.140625 -1.703125 15.828125 -13.1875 
L 8.015625 -13.1875 
Q 14.5 -2 17.703125 9.0625 
Q 20.90625 20.125 20.90625 31.390625 
Q 20.90625 42.671875 17.703125 53.65625 
Q 14.5 64.65625 8.015625 75.875 
" id="DejaVuSans-29"/>
     </defs>
     <g transform="translate(107.015156 342.278812)scale(0.18 -0.18)">
      <use xlink:href="#DejaVuSans-6c"/>
      <use x="27.783203" xlink:href="#DejaVuSans-6f"/>
      <use x="88.964844" xlink:href="#DejaVuSans-67"/>
      <use x="152.441406" xlink:href="#DejaVuSans-31"/>
      <use x="216.064453" xlink:href="#DejaVuSans-30"/>
      <use x="279.6875" xlink:href="#DejaVuSans-20"/>
      <use x="311.474609" xlink:href="#DejaVuSans-6f"/>
      <use x="372.65625" xlink:href="#DejaVuSans-66"/>
      <use x="407.861328" xlink:href="#DejaVuSans-20"/>
      <use x="439.648438" xlink:href="#DejaVuSans-28"/>
      <use x="478.662109" xlink:href="#DejaVuSans-23"/>
      <use x="562.451172" xlink:href="#DejaVuSans-20"/>
      <use x="594.238281" xlink:href="#DejaVuSans-66"/>
      <use x="629.365234" xlink:href="#DejaVuSans-2d"/>
      <use x="665.449219" xlink:href="#DejaVuSans-65"/>
      <use x="726.972656" xlink:href="#DejaVuSans-76"/>
      <use x="786.152344" xlink:href="#DejaVuSans-61"/>
      <use x="847.431641" xlink:href="#DejaVuSans-6c"/>
      <use x="875.214844" xlink:href="#DejaVuSans-73"/>
      <use x="927.314453" xlink:href="#DejaVuSans-20"/>
      <use x="959.101562" xlink:href="#DejaVuSans-2f"/>
      <use x="992.792969" xlink:href="#DejaVuSans-20"/>
      <use x="1024.580078" xlink:href="#DejaVuSans-64"/>
      <use x="1088.056641" xlink:href="#DejaVuSans-69"/>
      <use x="1115.839844" xlink:href="#DejaVuSans-6d"/>
      <use x="1213.251953" xlink:href="#DejaVuSans-65"/>
      <use x="1274.775391" xlink:href="#DejaVuSans-6e"/>
      <use x="1338.154297" xlink:href="#DejaVuSans-73"/>
      <use x="1390.253906" xlink:href="#DejaVuSans-69"/>
      <use x="1418.037109" xlink:href="#DejaVuSans-6f"/>
      <use x="1479.21875" xlink:href="#DejaVuSans-6e"/>
      <use x="1542.597656" xlink:href="#DejaVuSans-29"/>
     </g>
    </g>
   </g>
   <g id="matplotlib.axis_2">
    <g id="ytick_1">
     <g id="line2d_32">
      <path clip-path="url(#pcbacf26a1f)" d="M 70.8 298.245375 
L 427.92 298.245375 
" style="fill:none;stroke:#b0b0b0;stroke-linecap:square;stroke-width:0.8;"/>
     </g>
     <g id="line2d_33">
      <defs>
       <path d="M 0 0 
L -3.5 0 
" id="m29287a4460" style="stroke:#000000;stroke-width:0.8;"/>
      </defs>
      <g>
       <use style="stroke:#000000;stroke-width:0.8;" x="70.8" xlink:href="#m29287a4460" y="298.245375"/>
      </g>
     </g>
     <g id="text_7">
      <!-- 0.0 -->
      <defs>
       <path d="M 10.6875 12.40625 
L 21 12.40625 
L 21 0 
L 10.6875 0 
z
" id="DejaVuSans-2e"/>
      </defs>
      <g transform="translate(31.99375 305.843812)scale(0.2 -0.2)">
       <use xlink:href="#DejaVuSans-30"/>
       <use x="63.623047" xlink:href="#DejaVuSans-2e"/>
       <use x="95.410156" xlink:href="#DejaVuSans-30"/>
      </g>
     </g>
    </g>
    <g id="ytick_2">
     <g id="line2d_34">
      <path clip-path="url(#pcbacf26a1f)" d="M 70.8 245.549929 
L 427.92 245.549929 
" style="fill:none;stroke:#b0b0b0;stroke-linecap:square;stroke-width:0.8;"/>
     </g>
     <g id="line2d_35">
      <g>
       <use style="stroke:#000000;stroke-width:0.8;" x="70.8" xlink:href="#m29287a4460" y="245.549929"/>
      </g>
     </g>
     <g id="text_8">
      <!-- 0.2 -->
      <g transform="translate(31.99375 253.148367)scale(0.2 -0.2)">
       <use xlink:href="#DejaVuSans-30"/>
       <use x="63.623047" xlink:href="#DejaVuSans-2e"/>
       <use x="95.410156" xlink:href="#DejaVuSans-32"/>
      </g>
     </g>
    </g>
    <g id="ytick_3">
     <g id="line2d_36">
      <path clip-path="url(#pcbacf26a1f)" d="M 70.8 192.854484 
L 427.92 192.854484 
" style="fill:none;stroke:#b0b0b0;stroke-linecap:square;stroke-width:0.8;"/>
     </g>
     <g id="line2d_37">
      <g>
       <use style="stroke:#000000;stroke-width:0.8;" x="70.8" xlink:href="#m29287a4460" y="192.854484"/>
      </g>
     </g>
     <g id="text_9">
      <!-- 0.4 -->
      <g transform="translate(31.99375 200.452921)scale(0.2 -0.2)">
       <use xlink:href="#DejaVuSans-30"/>
       <use x="63.623047" xlink:href="#DejaVuSans-2e"/>
       <use x="95.410156" xlink:href="#DejaVuSans-34"/>
      </g>
     </g>
    </g>
    <g id="ytick_4">
     <g id="line2d_38">
      <path clip-path="url(#pcbacf26a1f)" d="M 70.8 140.159038 
L 427.92 140.159038 
" style="fill:none;stroke:#b0b0b0;stroke-linecap:square;stroke-width:0.8;"/>
     </g>
     <g id="line2d_39">
      <g>
       <use style="stroke:#000000;stroke-width:0.8;" x="70.8" xlink:href="#m29287a4460" y="140.159038"/>
      </g>
     </g>
     <g id="text_10">
      <!-- 0.6 -->
      <g transform="translate(31.99375 147.757476)scale(0.2 -0.2)">
       <use xlink:href="#DejaVuSans-30"/>
       <use x="63.623047" xlink:href="#DejaVuSans-2e"/>
       <use x="95.410156" xlink:href="#DejaVuSans-36"/>
      </g>
     </g>
    </g>
    <g id="ytick_5">
     <g id="line2d_40">
      <path clip-path="url(#pcbacf26a1f)" d="M 70.8 87.463593 
L 427.92 87.463593 
" style="fill:none;stroke:#b0b0b0;stroke-linecap:square;stroke-width:0.8;"/>
     </g>
     <g id="line2d_41">
      <g>
       <use style="stroke:#000000;stroke-width:0.8;" x="70.8" xlink:href="#m29287a4460" y="87.463593"/>
      </g>
     </g>
     <g id="text_11">
      <!-- 0.8 -->
      <g transform="translate(31.99375 95.06203)scale(0.2 -0.2)">
       <use xlink:href="#DejaVuSans-30"/>
       <use x="63.623047" xlink:href="#DejaVuSans-2e"/>
       <use x="95.410156" xlink:href="#DejaVuSans-38"/>
      </g>
     </g>
    </g>
    <g id="ytick_6">
     <g id="line2d_42">
      <path clip-path="url(#pcbacf26a1f)" d="M 70.8 34.768147 
L 427.92 34.768147 
" style="fill:none;stroke:#b0b0b0;stroke-linecap:square;stroke-width:0.8;"/>
     </g>
     <g id="line2d_43">
      <g>
       <use style="stroke:#000000;stroke-width:0.8;" x="70.8" xlink:href="#m29287a4460" y="34.768147"/>
      </g>
     </g>
     <g id="text_12">
      <!-- 1.0 -->
      <g transform="translate(31.99375 42.366585)scale(0.2 -0.2)">
       <use xlink:href="#DejaVuSans-31"/>
       <use x="63.623047" xlink:href="#DejaVuSans-2e"/>
       <use x="95.410156" xlink:href="#DejaVuSans-30"/>
      </g>
     </g>
    </g>
    <g id="text_13">
     <!-- Proportion of function+target pairs -->
     <defs>
      <path d="M 19.671875 64.796875 
L 19.671875 37.40625 
L 32.078125 37.40625 
Q 38.96875 37.40625 42.71875 40.96875 
Q 46.484375 44.53125 46.484375 51.125 
Q 46.484375 57.671875 42.71875 61.234375 
Q 38.96875 64.796875 32.078125 64.796875 
z
M 9.8125 72.90625 
L 32.078125 72.90625 
Q 44.34375 72.90625 50.609375 67.359375 
Q 56.890625 61.8125 56.890625 51.125 
Q 56.890625 40.328125 50.609375 34.8125 
Q 44.34375 29.296875 32.078125 29.296875 
L 19.671875 29.296875 
L 19.671875 0 
L 9.8125 0 
z
" id="DejaVuSans-50"/>
      <path d="M 41.109375 46.296875 
Q 39.59375 47.171875 37.8125 47.578125 
Q 36.03125 48 33.890625 48 
Q 26.265625 48 22.1875 43.046875 
Q 18.109375 38.09375 18.109375 28.8125 
L 18.109375 0 
L 9.078125 0 
L 9.078125 54.6875 
L 18.109375 54.6875 
L 18.109375 46.1875 
Q 20.953125 51.171875 25.484375 53.578125 
Q 30.03125 56 36.53125 56 
Q 37.453125 56 38.578125 55.875 
Q 39.703125 55.765625 41.0625 55.515625 
z
" id="DejaVuSans-72"/>
      <path d="M 18.109375 8.203125 
L 18.109375 -20.796875 
L 9.078125 -20.796875 
L 9.078125 54.6875 
L 18.109375 54.6875 
L 18.109375 46.390625 
Q 20.953125 51.265625 25.265625 53.625 
Q 29.59375 56 35.59375 56 
Q 45.5625 56 51.78125 48.09375 
Q 58.015625 40.1875 58.015625 27.296875 
Q 58.015625 14.40625 51.78125 6.484375 
Q 45.5625 -1.421875 35.59375 -1.421875 
Q 29.59375 -1.421875 25.265625 0.953125 
Q 20.953125 3.328125 18.109375 8.203125 
M 48.6875 27.296875 
Q 48.6875 37.203125 44.609375 42.84375 
Q 40.53125 48.484375 33.40625 48.484375 
Q 26.265625 48.484375 22.1875 42.84375 
Q 18.109375 37.203125 18.109375 27.296875 
Q 18.109375 17.390625 22.1875 11.75 
Q 26.265625 6.109375 33.40625 6.109375 
Q 40.53125 6.109375 44.609375 11.75 
Q 48.6875 17.390625 48.6875 27.296875 
" id="DejaVuSans-70"/>
      <path d="M 18.3125 70.21875 
L 18.3125 54.6875 
L 36.8125 54.6875 
L 36.8125 47.703125 
L 18.3125 47.703125 
L 18.3125 18.015625 
Q 18.3125 11.328125 20.140625 9.421875 
Q 21.96875 7.515625 27.59375 7.515625 
L 36.8125 7.515625 
L 36.8125 0 
L 27.59375 0 
Q 17.1875 0 13.234375 3.875 
Q 9.28125 7.765625 9.28125 18.015625 
L 9.28125 47.703125 
L 2.6875 47.703125 
L 2.6875 54.6875 
L 9.28125 54.6875 
L 9.28125 70.21875 
z
" id="DejaVuSans-74"/>
      <path d="M 8.5 21.578125 
L 8.5 54.6875 
L 17.484375 54.6875 
L 17.484375 21.921875 
Q 17.484375 14.15625 20.5 10.265625 
Q 23.53125 6.390625 29.59375 6.390625 
Q 36.859375 6.390625 41.078125 11.03125 
Q 45.3125 15.671875 45.3125 23.6875 
L 45.3125 54.6875 
L 54.296875 54.6875 
L 54.296875 0 
L 45.3125 0 
L 45.3125 8.40625 
Q 42.046875 3.421875 37.71875 1 
Q 33.40625 -1.421875 27.6875 -1.421875 
Q 18.265625 -1.421875 13.375 4.4375 
Q 8.5 10.296875 8.5 21.578125 
M 31.109375 56 
z
" id="DejaVuSans-75"/>
      <path d="M 48.78125 52.59375 
L 48.78125 44.1875 
Q 44.96875 46.296875 41.140625 47.34375 
Q 37.3125 48.390625 33.40625 48.390625 
Q 24.65625 48.390625 19.8125 42.84375 
Q 14.984375 37.3125 14.984375 27.296875 
Q 14.984375 17.28125 19.8125 11.734375 
Q 24.65625 6.203125 33.40625 6.203125 
Q 37.3125 6.203125 41.140625 7.25 
Q 44.96875 8.296875 48.78125 10.40625 
L 48.78125 2.09375 
Q 45.015625 0.34375 40.984375 -0.53125 
Q 36.96875 -1.421875 32.421875 -1.421875 
Q 20.0625 -1.421875 12.78125 6.34375 
Q 5.515625 14.109375 5.515625 27.296875 
Q 5.515625 40.671875 12.859375 48.328125 
Q 20.21875 56 33.015625 56 
Q 37.15625 56 41.109375 55.140625 
Q 45.0625 54.296875 48.78125 52.59375 
" id="DejaVuSans-63"/>
      <path d="M 46 62.703125 
L 46 35.5 
L 73.1875 35.5 
L 73.1875 27.203125 
L 46 27.203125 
L 46 0 
L 37.796875 0 
L 37.796875 27.203125 
L 10.59375 27.203125 
L 10.59375 35.5 
L 37.796875 35.5 
L 37.796875 62.703125 
z
" id="DejaVuSans-2b"/>
     </defs>
     <g transform="translate(24.250312 323.17875)rotate(-90)scale(0.18 -0.18)">
      <use xlink:href="#DejaVuSans-50"/>
      <use x="60.287109" xlink:href="#DejaVuSans-72"/>
      <use x="101.369141" xlink:href="#DejaVuSans-6f"/>
      <use x="162.550781" xlink:href="#DejaVuSans-70"/>
      <use x="226.027344" xlink:href="#DejaVuSans-6f"/>
      <use x="287.208984" xlink:href="#DejaVuSans-72"/>
      <use x="328.322266" xlink:href="#DejaVuSans-74"/>
      <use x="367.53125" xlink:href="#DejaVuSans-69"/>
      <use x="395.314453" xlink:href="#DejaVuSans-6f"/>
      <use x="456.496094" xlink:href="#DejaVuSans-6e"/>
      <use x="519.875" xlink:href="#DejaVuSans-20"/>
      <use x="551.662109" xlink:href="#DejaVuSans-6f"/>
      <use x="612.84375" xlink:href="#DejaVuSans-66"/>
      <use x="648.048828" xlink:href="#DejaVuSans-20"/>
      <use x="679.835938" xlink:href="#DejaVuSans-66"/>
      <use x="715.041016" xlink:href="#DejaVuSans-75"/>
      <use x="778.419922" xlink:href="#DejaVuSans-6e"/>
      <use x="841.798828" xlink:href="#DejaVuSans-63"/>
      <use x="896.779297" xlink:href="#DejaVuSans-74"/>
      <use x="935.988281" xlink:href="#DejaVuSans-69"/>
      <use x="963.771484" xlink:href="#DejaVuSans-6f"/>
      <use x="1024.953125" xlink:href="#DejaVuSans-6e"/>
      <use x="1088.332031" xlink:href="#DejaVuSans-2b"/>
      <use x="1172.121094" xlink:href="#DejaVuSans-74"/>
      <use x="1211.330078" xlink:href="#DejaVuSans-61"/>
      <use x="1272.609375" xlink:href="#DejaVuSans-72"/>
      <use x="1313.707031" xlink:href="#DejaVuSans-67"/>
      <use x="1377.183594" xlink:href="#DejaVuSans-65"/>
      <use x="1438.707031" xlink:href="#DejaVuSans-74"/>
      <use x="1477.916016" xlink:href="#DejaVuSans-20"/>
      <use x="1509.703125" xlink:href="#DejaVuSans-70"/>
      <use x="1573.179688" xlink:href="#DejaVuSans-61"/>
      <use x="1634.458984" xlink:href="#DejaVuSans-69"/>
      <use x="1662.242188" xlink:href="#DejaVuSans-72"/>
      <use x="1703.355469" xlink:href="#DejaVuSans-73"/>
     </g>
    </g>
   </g>
   <g id="line2d_44">
    <defs>
     <path d="M 0 1.5 
C 0.397805 1.5 0.77937 1.341951 1.06066 1.06066 
C 1.341951 0.77937 1.5 0.397805 1.5 0 
C 1.5 -0.397805 1.341951 -0.77937 1.06066 -1.06066 
C 0.77937 -1.341951 0.397805 -1.5 0 -1.5 
C -0.397805 -1.5 -0.77937 -1.341951 -1.06066 -1.06066 
C -1.341951 -0.77937 -1.5 -0.397805 -1.5 0 
C -1.5 0.397805 -1.341951 0.77937 -1.06066 1.06066 
C -0.77937 1.341951 -0.397805 1.5 0 1.5 
z
" id="m9853dc9e83" style="stroke:#f5deb3;"/>
    </defs>
    <g>
     <use style="fill:#f5deb3;stroke:#f5deb3;" x="201.051605" xlink:href="#m9853dc9e83" y="34.768147"/>
     <use style="fill:#f5deb3;stroke:#f5deb3;" x="201.051605" xlink:href="#m9853dc9e83" y="34.768147"/>
    </g>
   </g>
   <g id="line2d_45">
    <g>
     <use style="fill:#f5deb3;stroke:#f5deb3;stroke-linejoin:miter;stroke-width:1.5;" x="97.675029" xlink:href="#m886b0e27f0" y="263.115078"/>
     <use style="fill:#f5deb3;stroke:#f5deb3;stroke-linejoin:miter;stroke-width:1.5;" x="158.248372" xlink:href="#m886b0e27f0" y="191.82124"/>
     <use style="fill:#f5deb3;stroke:#f5deb3;stroke-linejoin:miter;stroke-width:1.5;" x="183.69195" xlink:href="#m886b0e27f0" y="112.26145"/>
     <use style="fill:#f5deb3;stroke:#f5deb3;stroke-linejoin:miter;stroke-width:1.5;" x="201.051605" xlink:href="#m886b0e27f0" y="35.801391"/>
     <use style="fill:#f5deb3;stroke:#f5deb3;stroke-linejoin:miter;stroke-width:1.5;" x="201.051605" xlink:href="#m886b0e27f0" y="34.768147"/>
     <use style="fill:#f5deb3;stroke:#f5deb3;stroke-linejoin:miter;stroke-width:1.5;" x="358.8" xlink:href="#m886b0e27f0" y="34.768147"/>
    </g>
   </g>
   <g id="line2d_46">
    <defs>
     <path d="M 0 1.5 
C 0.397805 1.5 0.77937 1.341951 1.06066 1.06066 
C 1.341951 0.77937 1.5 0.397805 1.5 0 
C 1.5 -0.397805 1.341951 -0.77937 1.06066 -1.06066 
C 0.77937 -1.341951 0.397805 -1.5 0 -1.5 
C -0.397805 -1.5 -0.77937 -1.341951 -1.06066 -1.06066 
C -1.341951 -0.77937 -1.5 -0.397805 -1.5 0 
C -1.5 0.397805 -1.341951 0.77937 -1.06066 1.06066 
C -0.77937 1.341951 -0.397805 1.5 0 1.5 
z
" id="me672bbf2b7" style="stroke:#000080;"/>
    </defs>
    <g>
     <use style="fill:#000080;stroke:#000080;" x="346.234774" xlink:href="#me672bbf2b7" y="155.657699"/>
     <use style="fill:#000080;stroke:#000080;" x="346.234774" xlink:href="#me672bbf2b7" y="155.657699"/>
    </g>
   </g>
   <g id="line2d_47">
    <path d="M 58.414766 298.245375 
L 58.414766 273.654167 
L 70.8 273.654167 
L 70.8 270.554435 
L 78.044898 270.554435 
L 78.044898 269.72784 
L 83.185234 269.72784 
L 83.185234 268.177974 
L 87.172389 268.177974 
L 87.172389 267.454703 
L 90.430132 267.454703 
L 90.430132 266.524783 
L 95.570468 266.421459 
L 95.570468 265.28489 
L 97.675029 265.28489 
L 97.675029 264.871593 
L 102.815366 264.871593 
L 102.815366 264.664944 
L 107.955702 264.56162 
L 107.955702 264.354971 
L 109.03895 264.354971 
L 109.03895 263.838349 
L 110.060263 263.838349 
L 110.060263 263.6317 
L 112.814645 263.6317 
L 112.814645 263.425051 
L 114.44014 263.425051 
L 114.44014 263.218402 
L 115.2006 263.218402 
L 115.2006 263.011754 
L 115.930012 263.011754 
L 115.930012 262.805105 
L 117.954982 262.805105 
L 117.954982 262.495132 
L 118.581998 262.495132 
L 118.581998 262.081834 
L 120.890768 261.97851 
L 120.890768 261.358563 
L 124.769302 261.255239 
L 124.769302 261.04859 
L 127.209649 260.945266 
L 127.209649 260.841941 
L 128.315246 260.841941 
L 128.315246 260.635292 
L 131.572989 260.635292 
L 131.572989 260.325319 
L 133.276002 260.325319 
L 133.276002 259.912021 
L 135.3203 259.808697 
L 135.3203 259.705373 
L 135.796811 259.602048 
L 135.796811 259.085426 
L 137.796573 258.982102 
L 137.796573 258.258831 
L 138.416339 258.258831 
L 138.416339 258.052182 
L 138.817886 258.052182 
L 138.817886 257.845533 
L 139.783966 257.742209 
L 139.783966 257.638885 
L 140.878274 257.638885 
L 140.878274 257.122263 
L 142.075629 257.018938 
L 142.075629 256.812289 
L 142.403494 256.812289 
L 142.403494 256.605641 
L 143.352466 256.605641 
L 143.352466 256.192343 
L 144.971262 256.192343 
L 144.971262 255.572397 
L 146.584518 255.572397 
L 146.584518 255.365748 
L 148.760352 255.262423 
L 148.760352 254.745801 
L 150.801573 254.642477 
L 150.801573 254.539153 
L 151.302113 254.539153 
L 151.302113 254.022531 
L 151.789013 253.919206 
L 151.789013 253.815882 
L 151.980117 253.815882 
L 151.980117 253.609233 
L 152.356302 253.609233 
L 152.356302 253.29926 
L 155.030737 253.29926 
L 155.030737 253.092611 
L 160.567279 253.092611 
L 160.567279 252.885962 
L 163.834815 252.782638 
L 163.834815 252.679313 
L 164.270055 252.575989 
L 164.270055 252.472664 
L 166.638084 252.36934 
L 166.638084 252.059367 
L 166.969752 252.059367 
L 166.969752 251.542745 
L 168.616665 251.542745 
L 168.616665 251.232772 
L 169.386487 251.129447 
L 169.386487 251.026123 
L 169.986263 250.922798 
L 169.986263 250.819474 
L 173.757002 250.71615 
L 173.757002 250.302852 
L 174.364631 250.199528 
L 174.364631 250.096203 
L 176.047884 249.992879 
L 176.047884 249.476257 
L 176.916142 249.476257 
L 176.916142 248.959635 
L 190.352745 248.85631 
L 190.352745 248.649662 
L 191.740221 248.546337 
L 191.740221 248.236364 
L 199.951198 248.13304 
L 199.951198 248.029715 
L 204.186963 247.926391 
L 204.186963 247.823066 
L 205.269007 247.823066 
L 205.269007 247.616418 
L 208.042643 247.616418 
L 208.042643 247.306444 
L 212.137515 247.20312 
L 212.137515 246.996471 
L 212.954723 246.893147 
L 212.954723 246.686498 
L 219.609412 246.583173 
L 219.609412 246.479849 
L 222.101626 246.479849 
L 222.101626 246.2732 
L 223.059304 246.2732 
L 223.059304 246.066551 
L 223.585339 246.066551 
L 223.585339 245.653254 
L 226.230531 245.653254 
L 226.230531 244.723334 
L 231.419974 244.62001 
L 231.419974 244.413361 
L 238.239295 244.310037 
L 238.239295 244.206712 
L 241.716731 244.206712 
L 241.716731 243.896739 
L 242.368633 243.896739 
L 242.368633 243.69009 
L 244.487481 243.586766 
L 244.487481 243.380117 
L 244.966434 243.276793 
L 244.966434 243.173468 
L 245.981944 243.173468 
L 245.981944 242.966819 
L 249.784026 242.863495 
L 249.784026 242.760171 
L 255.810843 242.656846 
L 255.810843 242.553522 
L 258.104021 242.553522 
L 258.104021 242.346873 
L 263.279932 242.243549 
L 263.390517 240.590358 
L 263.391448 240.487034 
L 263.502272 231.291162 
L 263.507083 231.187837 
L 263.543862 230.257918 
L 263.68986 230.257918 
L 263.730103 229.741296 
L 264.183823 229.637971 
L 264.183823 229.534647 
L 264.395435 229.431323 
L 264.447115 229.224674 
L 265.382849 229.121349 
L 265.478869 228.914701 
L 265.511809 228.811376 
L 265.530652 228.604727 
L 266.166939 228.501403 
L 266.184149 228.294754 
L 266.715607 228.19143 
L 266.73662 227.984781 
L 268.562994 227.881457 
L 268.58835 227.674808 
L 268.71929 227.571483 
L 268.806558 227.158186 
L 269.126184 227.158186 
L 269.126184 226.951537 
L 269.980794 226.848213 
L 269.980794 226.744888 
L 275.620045 226.641564 
L 275.730255 226.124942 
L 275.761686 226.021617 
L 275.871676 218.168963 
L 275.926234 218.065638 
L 276.027785 217.135719 
L 276.281111 217.032394 
L 276.30716 216.515772 
L 276.702514 216.412448 
L 276.75204 215.895826 
L 276.859886 215.792501 
L 276.930638 215.379204 
L 277.213711 215.275879 
L 277.214313 215.069231 
L 277.519163 214.965906 
L 277.552828 214.655933 
L 278.278433 214.552609 
L 278.336293 214.34596 
L 278.643289 214.242635 
L 278.647096 214.035987 
L 279.183361 213.932662 
L 279.183361 213.829338 
L 280.787459 213.726013 
L 280.863543 213.41604 
L 283.010776 213.312716 
L 283.095539 208.559793 
L 283.127468 208.456469 
L 283.1509 207.939847 
L 283.353107 207.836522 
L 283.462748 207.113252 
L 283.750247 207.009927 
L 283.78204 206.803278 
L 284.145631 206.699954 
L 284.223912 206.183332 
L 284.979468 206.080007 
L 285.017644 205.873359 
L 285.162381 205.770034 
L 285.162381 205.66671 
L 286.513719 205.563385 
L 286.513719 205.460061 
L 288.122909 205.356737 
L 288.22173 201.017112 
L 288.255475 200.913787 
L 288.26205 200.707139 
L 288.412147 200.603814 
L 288.431875 200.190517 
L 288.639533 200.087192 
L 288.713937 199.673895 
L 288.89952 199.57057 
L 288.90613 199.363921 
L 289.450651 199.260597 
L 289.450651 199.157272 
L 291.210119 199.053948 
L 291.210119 198.950624 
L 292.133124 198.847299 
L 292.225404 194.920972 
L 292.364002 194.817648 
L 292.433927 194.610999 
L 292.606497 194.507674 
L 292.606497 194.40435 
L 292.896392 194.301026 
L 292.896392 194.197701 
L 293.194063 194.094377 
L 293.194063 193.991052 
L 293.459986 193.887728 
L 293.470988 193.681079 
L 294.335724 193.577755 
L 294.335724 193.47443 
L 295.403648 193.371106 
L 295.469488 190.581347 
L 295.633449 190.478023 
L 295.633449 190.374698 
L 295.771669 190.271374 
L 295.789449 190.064725 
L 295.916612 189.961401 
L 296.0063 189.651427 
L 296.279436 189.548103 
L 296.28047 189.341454 
L 296.438593 189.23813 
L 296.438593 189.134805 
L 298.156194 189.031481 
L 298.225165 187.068317 
L 298.322338 186.964993 
L 298.433035 186.758344 
L 298.596506 186.65502 
L 298.690938 186.345047 
L 299.005561 186.241722 
L 299.105079 185.931749 
L 300.274137 185.828425 
L 300.274137 185.7251 
L 300.553271 185.621776 
L 300.603762 184.381883 
L 300.784959 184.278558 
L 300.834022 183.968585 
L 301.011708 183.865261 
L 301.019667 183.658612 
L 301.469424 183.555288 
L 301.469424 183.451963 
L 302.64809 183.348639 
L 302.739635 181.075502 
L 302.867628 180.972178 
L 302.867628 180.868853 
L 303.038437 180.765529 
L 303.038437 180.662204 
L 303.352091 180.55888 
L 303.393623 180.352231 
L 303.907931 180.248907 
L 303.913003 180.042258 
L 304.533449 179.938934 
L 304.628484 178.389067 
L 304.73569 178.285743 
L 304.73569 178.182419 
L 304.884686 178.079094 
L 304.884686 177.97577 
L 305.156178 177.872445 
L 305.216754 177.665797 
L 306.226701 177.562472 
L 306.308883 176.425904 
L 307.780499 176.322579 
L 307.889049 174.876038 
L 308.233973 174.772713 
L 308.316213 174.46274 
L 308.452055 174.359416 
L 308.452055 174.256091 
L 308.59892 174.152767 
L 308.59892 174.049443 
L 309.218364 173.946118 
L 309.313942 172.602901 
L 309.374532 172.499577 
L 309.374532 172.396252 
L 309.494043 172.292928 
L 309.497146 172.086279 
L 309.744803 171.982954 
L 309.744803 171.87963 
L 310.553624 171.776306 
L 310.623356 171.156359 
L 310.767933 171.053035 
L 310.823443 170.743062 
L 311.111929 170.639737 
L 311.111929 170.536413 
L 311.794007 170.433088 
L 311.871795 169.709818 
L 312.184267 169.606493 
L 312.184267 169.503169 
L 312.938121 169.399844 
L 312.95876 168.883222 
L 314.023835 168.779898 
L 314.093311 168.159952 
L 314.334586 168.056627 
L 314.334586 167.953303 
L 315.045178 167.849978 
L 315.116529 167.540005 
L 315.389806 167.436681 
L 315.473652 167.230032 
L 316.012117 167.126708 
L 316.038096 166.610086 
L 316.20301 166.506761 
L 316.292905 166.300112 
L 316.362161 166.196788 
L 316.414693 165.990139 
L 316.931164 165.886815 
L 316.936021 165.473517 
L 317.79842 165.370193 
L 317.858282 164.956895 
L 318.633299 164.853571 
L 318.652677 164.440273 
L 318.8707 164.336949 
L 318.907017 164.1303 
L 319.444368 164.026975 
L 319.475899 163.820327 
L 320.183325 163.717002 
L 320.286864 162.993731 
L 320.590678 162.890407 
L 320.590678 162.787083 
L 320.92817 162.683758 
L 320.954383 162.373785 
L 321.191528 162.270461 
L 321.191528 162.167136 
L 321.657044 162.063812 
L 321.657044 161.960487 
L 322.315426 161.857163 
L 322.410725 161.650514 
L 322.932928 161.54719 
L 322.955649 161.340541 
L 323.828267 161.237217 
L 323.828267 161.133892 
L 324.350035 161.030568 
L 324.350035 160.927243 
L 324.773722 160.823919 
L 324.773722 160.720595 
L 325.340828 160.61727 
L 325.369136 160.307297 
L 325.565686 160.203973 
L 325.565686 160.100648 
L 326.422251 159.997324 
L 326.422251 159.893999 
L 326.937829 159.790675 
L 327.02527 159.480702 
L 327.435773 159.377377 
L 327.445513 159.067404 
L 328.400892 158.96408 
L 328.494256 158.447458 
L 329.324905 158.344133 
L 329.324905 158.240809 
L 329.75832 158.137484 
L 329.765244 157.930836 
L 330.83277 157.827511 
L 330.83277 157.724187 
L 331.138884 157.620862 
L 331.138884 157.517538 
L 331.809499 157.414214 
L 331.824974 157.207565 
L 333.303667 157.10424 
L 333.30888 156.897592 
L 333.998393 156.794267 
L 333.998393 156.690943 
L 334.13399 156.587618 
L 334.13399 156.484294 
L 334.459722 156.38097 
L 334.459722 156.277645 
L 336.608541 156.174321 
L 336.608541 156.070996 
L 338.072499 155.967672 
L 338.072499 155.864348 
L 346.234774 155.761023 
L 346.234774 155.657699 
L 358.8 155.657699 
L 358.8 155.657699 
" style="fill:none;stroke:#000080;stroke-linecap:square;stroke-width:1.5;"/>
   </g>
   <g id="line2d_48">
    <defs>
     <path d="M 0 6 
C 1.591219 6 3.117479 5.367802 4.242641 4.242641 
C 5.367802 3.117479 6 1.591219 6 0 
C 6 -1.591219 5.367802 -3.117479 4.242641 -4.242641 
C 3.117479 -5.367802 1.591219 -6 0 -6 
C -1.591219 -6 -3.117479 -5.367802 -4.242641 -4.242641 
C -5.367802 -3.117479 -6 -1.591219 -6 0 
C -6 1.591219 -5.367802 3.117479 -4.242641 4.242641 
C -3.117479 5.367802 -1.591219 6 0 6 
z
" id="m4ee47cd4a0" style="stroke:#000080;stroke-width:1.5;"/>
    </defs>
    <g>
     <use style="fill:none;stroke:#000080;stroke-width:1.5;" x="139.210608" xlink:href="#m4ee47cd4a0" y="257.742209"/>
     <use style="fill:none;stroke:#000080;stroke-width:1.5;" x="231.419974" xlink:href="#m4ee47cd4a0" y="244.62001"/>
     <use style="fill:none;stroke:#000080;stroke-width:1.5;" x="286.513719" xlink:href="#m4ee47cd4a0" y="205.460061"/>
     <use style="fill:none;stroke:#000080;stroke-width:1.5;" x="338.839573" xlink:href="#m4ee47cd4a0" y="155.864348"/>
     <use style="fill:none;stroke:#000080;stroke-width:1.5;" x="346.234774" xlink:href="#m4ee47cd4a0" y="155.657699"/>
     <use style="fill:none;stroke:#000080;stroke-width:1.5;" x="358.8" xlink:href="#m4ee47cd4a0" y="155.657699"/>
    </g>
   </g>
   <g id="line2d_49"/>
   <g id="line2d_50">
    <path clip-path="url(#pcbacf26a1f)" d="M 263.400756 238.213897 
" style="fill:none;stroke:#000080;stroke-linecap:square;stroke-width:1.5;"/>
    <defs>
     <path d="M -12 12 
L 12 -12 
M -12 -12 
L 12 12 
" id="m9a7be5f977" style="stroke:#000080;stroke-width:3;"/>
    </defs>
    <g clip-path="url(#pcbacf26a1f)">
     <use style="fill:#000080;stroke:#000080;stroke-width:3;" x="263.400756" xlink:href="#m9a7be5f977" y="238.213897"/>
    </g>
   </g>
   <g id="line2d_51">
    <defs>
     <path d="M 0 1.5 
C 0.397805 1.5 0.77937 1.341951 1.06066 1.06066 
C 1.341951 0.77937 1.5 0.397805 1.5 0 
C 1.5 -0.397805 1.341951 -0.77937 1.06066 -1.06066 
C 0.77937 -1.341951 0.397805 -1.5 0 -1.5 
C -0.397805 -1.5 -0.77937 -1.341951 -1.06066 -1.06066 
C -1.341951 -0.77937 -1.5 -0.397805 -1.5 0 
C -1.5 0.397805 -1.341951 0.77937 -1.06066 1.06066 
C -0.77937 1.341951 -0.397805 1.5 0 1.5 
z
" id="mb625ba175d" style="stroke:#ff00ff;"/>
    </defs>
    <g>
     <use style="fill:#ff00ff;stroke:#ff00ff;" x="347.410104" xlink:href="#mb625ba175d" y="143.25877"/>
     <use style="fill:#ff00ff;stroke:#ff00ff;" x="347.410104" xlink:href="#mb625ba175d" y="143.25877"/>
    </g>
   </g>
   <g id="line2d_52">
    <path d="M 58.414766 298.245375 
L 58.414766 274.997384 
L 70.8 274.997384 
L 70.8 271.277706 
L 78.044898 271.277706 
L 78.044898 269.314542 
L 83.185234 269.314542 
L 83.185234 268.79792 
L 87.172389 268.79792 
L 87.172389 268.281298 
L 90.430132 268.281298 
L 90.430132 267.764676 
L 93.184514 267.764676 
L 93.184514 267.041405 
L 95.570468 267.041405 
L 95.570468 265.698188 
L 97.675029 265.698188 
L 97.675029 265.388215 
L 99.557623 265.388215 
L 99.557623 265.181566 
L 101.260636 265.181566 
L 101.260636 264.974917 
L 102.815366 264.974917 
L 102.815366 264.458295 
L 104.245578 264.458295 
L 104.245578 264.251646 
L 105.569748 264.251646 
L 105.569748 263.838349 
L 107.955702 263.838349 
L 107.955702 263.528376 
L 110.060263 263.425051 
L 110.060263 263.321727 
L 112.814645 263.218402 
L 112.814645 263.011754 
L 113.64587 263.011754 
L 113.64587 262.70178 
L 114.44014 262.70178 
L 114.44014 262.391807 
L 115.2006 262.391807 
L 115.2006 261.97851 
L 115.930012 261.97851 
L 115.930012 261.358563 
L 118.581998 261.255239 
L 118.581998 260.945266 
L 119.773647 260.945266 
L 119.773647 260.738617 
L 120.890768 260.738617 
L 120.890768 260.531968 
L 122.445497 260.428643 
L 122.445497 260.015346 
L 124.769302 260.015346 
L 124.769302 259.808697 
L 127.954262 259.705373 
L 127.954262 259.602048 
L 128.669082 259.498724 
L 128.669082 258.982102 
L 129.016046 258.982102 
L 129.016046 258.775453 
L 130.018259 258.775453 
L 130.018259 258.568804 
L 130.340216 258.568804 
L 130.340216 258.362155 
L 130.967232 258.362155 
L 130.967232 258.155507 
L 131.272677 258.155507 
L 131.272677 257.948858 
L 132.726171 257.845533 
L 132.726171 257.742209 
L 133.544701 257.638885 
L 133.544701 257.53556 
L 134.580824 257.432236 
L 134.580824 257.225587 
L 135.077192 257.122263 
L 135.077192 256.915614 
L 136.030384 256.812289 
L 136.030384 256.708965 
L 137.796573 256.605641 
L 137.796573 256.398992 
L 138.61824 256.295667 
L 138.61824 256.192343 
L 138.817886 256.192343 
L 138.817886 255.262423 
L 139.210608 255.262423 
L 139.210608 254.849126 
L 141.741636 254.849126 
L 141.741636 254.642477 
L 141.909413 254.642477 
L 141.909413 254.435828 
L 144.25357 254.332504 
L 144.25357 254.229179 
L 146.712605 254.125855 
L 146.712605 254.022531 
L 146.966058 254.022531 
L 146.966058 253.815882 
L 148.760352 253.815882 
L 148.760352 253.609233 
L 151.692688 253.505908 
L 151.692688 253.29926 
L 153.43955 253.195935 
L 153.43955 253.092611 
L 155.110684 252.989286 
L 155.190275 252.679313 
L 155.348401 252.679313 
L 155.348401 252.472664 
L 155.660516 252.36934 
L 155.7377 251.956042 
L 157.496639 251.852718 
L 157.496639 251.749394 
L 158.315169 251.749394 
L 158.315169 251.336096 
L 159.225015 251.232772 
L 159.225015 251.129447 
L 162.982598 251.026123 
L 162.982598 250.922798 
L 164.64823 250.819474 
L 164.64823 250.612825 
L 166.969752 250.612825 
L 166.969752 250.406176 
L 171.063387 250.302852 
L 171.063387 249.992879 
L 171.830651 249.992879 
L 171.830651 249.372932 
L 175.342141 249.269608 
L 175.342141 249.062959 
L 178.834013 248.959635 
L 178.834013 248.85631 
L 192.286318 248.752986 
L 192.286318 248.649662 
L 198.208578 248.546337 
L 198.230015 248.339688 
L 200.594532 248.236364 
L 200.594532 248.13304 
L 203.741403 248.13304 
L 203.741403 247.926391 
L 204.874573 247.926391 
L 204.874573 247.306444 
L 208.067369 247.20312 
L 208.067369 247.099796 
L 208.45436 247.099796 
L 208.45436 246.893147 
L 208.574847 246.893147 
L 208.574847 246.686498 
L 208.686573 246.686498 
L 208.781785 245.963227 
L 212.038868 245.859903 
L 212.038868 245.446605 
L 212.555596 245.343281 
L 212.555596 245.239956 
L 217.61567 245.136632 
L 217.61567 245.033307 
L 220.008561 245.033307 
L 220.057044 244.723334 
L 221.58544 244.62001 
L 221.652951 244.206712 
L 223.252226 244.206712 
L 223.252226 244.000063 
L 228.183618 243.896739 
L 228.183618 243.793415 
L 232.450697 243.69009 
L 232.450697 243.586766 
L 233.447094 243.483441 
L 233.452068 243.173468 
L 235.883969 243.070144 
L 235.987844 242.863495 
L 237.015869 242.863495 
L 237.015869 242.553522 
L 237.589981 242.450197 
L 237.589981 242.346873 
L 239.607002 242.243549 
L 239.607002 242.140224 
L 242.825936 242.0369 
L 242.825936 241.933575 
L 246.411864 241.933575 
L 246.411864 241.726927 
L 248.935511 241.623602 
L 248.935511 241.520278 
L 251.62118 241.416953 
L 251.62118 241.210305 
L 260.167118 241.10698 
L 260.167118 241.003656 
L 261.32848 241.003656 
L 261.32848 240.693683 
L 263.370953 240.590358 
L 263.473379 230.981189 
L 263.572641 230.877864 
L 263.667138 230.567891 
L 263.702308 230.464567 
L 263.730468 230.051269 
L 263.893976 229.947945 
L 263.893976 229.84462 
L 264.062996 229.741296 
L 264.06981 229.327998 
L 264.193617 229.224674 
L 264.237894 228.604727 
L 264.759099 228.501403 
L 264.759099 228.398079 
L 264.945107 228.294754 
L 265.054703 228.088105 
L 265.546174 227.984781 
L 265.546174 227.881457 
L 266.409676 227.778132 
L 266.409676 227.674808 
L 266.889151 227.571483 
L 266.889151 227.468159 
L 268.8645 227.364835 
L 268.8645 227.26151 
L 269.501147 227.158186 
L 269.597323 226.951537 
L 270.683581 226.848213 
L 270.693607 226.434915 
L 270.852773 226.33159 
L 270.910202 226.021617 
L 272.403076 225.918293 
L 272.417127 225.711644 
L 274.774166 225.60832 
L 274.774166 225.504995 
L 275.763363 225.401671 
L 275.849899 216.309123 
L 275.940909 216.205799 
L 276.050997 215.99915 
L 276.120544 215.895826 
L 276.217093 215.275879 
L 276.289708 215.172555 
L 276.38085 214.759257 
L 276.557831 214.655933 
L 276.562643 214.449284 
L 276.86453 214.34596 
L 276.879154 214.139311 
L 277.85648 214.035987 
L 277.869653 213.726013 
L 278.074271 213.622689 
L 278.074271 213.519365 
L 278.327578 213.41604 
L 278.42442 213.106067 
L 279.367308 213.002743 
L 279.377434 212.796094 
L 279.889423 212.692769 
L 279.893416 212.48612 
L 282.00629 212.382796 
L 282.00629 212.279472 
L 282.978451 212.176147 
L 283.077789 206.803278 
L 283.242728 206.699954 
L 283.326522 205.873359 
L 283.36127 205.770034 
L 283.435234 205.460061 
L 283.546543 205.356737 
L 283.640503 204.943439 
L 284.116814 204.840115 
L 284.116814 204.73679 
L 284.254642 204.633466 
L 284.337466 204.116844 
L 284.430178 204.013519 
L 284.435455 203.806871 
L 284.812696 203.703546 
L 284.812696 203.600222 
L 285.047649 203.496897 
L 285.047649 203.393573 
L 285.298743 203.290249 
L 285.309941 203.0836 
L 285.801162 202.980275 
L 285.906154 202.773627 
L 287.671086 202.670302 
L 287.683905 202.463653 
L 288.15442 202.360329 
L 288.244357 198.64065 
L 288.325266 198.537326 
L 288.386927 197.814055 
L 288.474927 197.710731 
L 288.571961 197.297433 
L 288.600692 197.194109 
L 288.607822 196.98746 
L 288.987304 196.884136 
L 288.987304 196.780811 
L 289.102329 196.677487 
L 289.102329 196.574162 
L 289.804588 196.470838 
L 289.819614 196.160865 
L 290.028955 196.05754 
L 290.063224 195.850892 
L 290.297114 195.747567 
L 290.370617 195.437594 
L 291.765294 195.33427 
L 291.84934 195.024296 
L 292.150523 194.920972 
L 292.194895 192.854484 
L 292.29565 192.75116 
L 292.329969 192.027889 
L 292.467835 191.924564 
L 292.479831 191.614591 
L 292.803071 191.511267 
L 292.908032 191.097969 
L 293.014367 190.994645 
L 293.014367 190.89132 
L 293.458221 190.787996 
L 293.569219 190.064725 
L 293.983842 189.961401 
L 293.983842 189.858076 
L 295.407341 189.754752 
L 295.502117 187.791588 
L 295.543558 187.688264 
L 295.64512 187.068317 
L 295.692463 186.964993 
L 295.705684 186.758344 
L 295.825077 186.65502 
L 295.825077 186.551695 
L 296.127882 186.448371 
L 296.127882 186.345047 
L 296.52142 186.241722 
L 296.606708 186.035073 
L 296.718836 185.931749 
L 296.718836 185.828425 
L 298.15944 185.7251 
L 298.248422 183.865261 
L 298.304244 183.761936 
L 298.396291 183.038666 
L 298.519677 182.935341 
L 298.519677 182.832017 
L 298.63652 182.728692 
L 298.63652 182.625368 
L 298.954054 182.522044 
L 298.954054 182.418719 
L 299.453507 182.315395 
L 299.453507 182.21207 
L 299.77297 182.108746 
L 299.77297 182.005422 
L 300.54999 181.902097 
L 300.660681 179.215663 
L 300.83109 179.112338 
L 300.83109 179.009014 
L 300.96113 178.90569 
L 301.017808 178.595716 
L 301.400565 178.492392 
L 301.438715 178.182419 
L 302.656697 178.079094 
L 302.756592 176.632553 
L 302.854642 176.529228 
L 302.904752 176.322579 
L 303.039226 176.219255 
L 303.080097 176.012606 
L 303.405726 175.909282 
L 303.458628 175.702633 
L 303.85826 175.599309 
L 303.85826 175.495984 
L 304.54164 175.39266 
L 304.626039 174.566065 
L 304.675213 174.46274 
L 304.706316 174.049443 
L 304.974571 173.946118 
L 304.974571 173.842794 
L 305.1695 173.739469 
L 305.174207 173.532821 
L 305.671914 173.429496 
L 305.676911 173.222847 
L 306.246661 173.119523 
L 306.332708 171.87963 
L 306.388675 171.776306 
L 306.395338 171.466332 
L 306.861621 171.363008 
L 306.95672 171.053035 
L 307.789829 170.94971 
L 307.870287 169.709818 
L 307.929408 169.606493 
L 308.004826 169.29652 
L 308.272338 169.193196 
L 308.353665 168.986547 
L 308.706487 168.883222 
L 308.706487 168.779898 
L 309.227058 168.676574 
L 309.304049 167.64333 
L 309.364346 167.540005 
L 309.366847 167.333356 
L 309.657367 167.230032 
L 309.714605 167.023383 
L 309.911706 166.920059 
L 309.911706 166.816734 
L 310.105703 166.71341 
L 310.105703 166.610086 
L 310.567446 166.506761 
L 310.66595 165.990139 
L 310.95355 165.886815 
L 311.055797 165.680166 
L 311.113849 165.576842 
L 311.113849 165.473517 
L 311.581762 165.370193 
L 311.581762 165.266868 
L 311.78655 165.163544 
L 311.850367 164.440273 
L 312.155299 164.336949 
L 312.155299 164.233624 
L 312.550367 164.1303 
L 312.550367 164.026975 
L 312.939657 163.923651 
L 312.989228 163.510353 
L 313.387392 163.407029 
L 313.387392 163.303705 
L 314.025827 163.20038 
L 314.120827 162.063812 
L 314.457855 161.960487 
L 314.457855 161.857163 
L 315.094495 161.753839 
L 315.094495 161.650514 
L 315.395465 161.54719 
L 315.438637 161.237217 
L 316.010109 161.133892 
L 316.019747 160.823919 
L 316.345978 160.720595 
L 316.372945 160.513946 
L 316.616248 160.410621 
L 316.616248 160.307297 
L 316.928494 160.203973 
L 317.011236 159.480702 
L 317.145543 159.377377 
L 317.239712 159.170729 
L 317.797152 159.067404 
L 317.885603 158.137484 
L 318.099216 158.03416 
L 318.124439 157.827511 
L 318.635989 157.724187 
L 318.707988 157.207565 
L 319.417996 157.10424 
L 319.49864 156.38097 
L 320.061815 156.277645 
L 320.061815 156.174321 
L 320.472298 156.070996 
L 320.489294 155.761023 
L 320.923832 155.657699 
L 320.923832 155.554374 
L 321.228056 155.45105 
L 321.228056 155.347726 
L 321.609378 155.244401 
L 321.706527 154.831104 
L 321.879256 154.727779 
L 321.901891 154.314482 
L 322.295617 154.211157 
L 322.295617 154.107833 
L 322.631937 154.004508 
L 322.631937 153.901184 
L 322.946714 153.79786 
L 323.001205 153.177913 
L 323.139184 153.074589 
L 323.230044 152.661291 
L 323.566891 152.557967 
L 323.649723 152.247994 
L 323.890523 152.144669 
L 323.890523 152.041345 
L 324.177231 151.93802 
L 324.205809 151.524723 
L 324.471356 151.421398 
L 324.471356 151.318074 
L 324.78366 151.214749 
L 324.810626 150.904776 
L 325.3251 150.801452 
L 325.39714 150.594803 
L 325.539635 150.491479 
L 325.539635 150.388154 
L 325.88326 150.28483 
L 325.899816 150.078181 
L 326.224035 149.974857 
L 326.224035 149.871532 
L 326.435616 149.768208 
L 326.435616 149.664883 
L 326.949156 149.561559 
L 326.95152 149.35491 
L 327.466102 149.251586 
L 327.553128 148.838288 
L 327.942506 148.734964 
L 327.945164 148.528315 
L 328.181718 148.424991 
L 328.181718 148.321666 
L 328.872596 148.218342 
L 328.895927 148.011693 
L 329.321432 147.908369 
L 329.321432 147.805044 
L 329.756722 147.70172 
L 329.836638 147.391747 
L 330.683089 147.288422 
L 330.765361 147.081773 
L 331.414928 146.978449 
L 331.492019 146.668476 
L 331.882262 146.565151 
L 331.960959 146.358503 
L 333.370552 146.255178 
L 333.440793 146.048529 
L 334.341999 145.945205 
L 334.342395 145.738556 
L 334.880067 145.635232 
L 334.880067 145.531907 
L 335.34995 145.428583 
L 335.358677 145.221934 
L 336.26032 145.11861 
L 336.26032 145.015285 
L 337.041505 144.911961 
L 337.041505 144.808637 
L 338.964848 144.705312 
L 338.964848 144.601988 
L 339.473635 144.498663 
L 339.473635 144.395339 
L 339.925217 144.292014 
L 339.925217 144.18869 
L 340.871692 144.085366 
L 340.871692 143.982041 
L 342.212252 143.878717 
L 342.27625 143.672068 
L 343.92868 143.568744 
L 343.92868 143.465419 
L 347.410104 143.362095 
L 347.410104 143.25877 
L 358.8 143.25877 
L 358.8 143.25877 
" style="fill:none;stroke:#ff00ff;stroke-linecap:square;stroke-width:1.5;"/>
   </g>
   <g id="line2d_53">
    <defs>
     <path d="M -0 8.485281 
L 5.091169 0 
L 0 -8.485281 
L -5.091169 -0 
z
" id="m6e813ebcd8" style="stroke:#ff00ff;stroke-linejoin:miter;stroke-width:1.5;"/>
    </defs>
    <g>
     <use style="fill:none;stroke:#ff00ff;stroke-linejoin:miter;stroke-width:1.5;" x="114.44014" xlink:href="#m6e813ebcd8" y="262.70178"/>
     <use style="fill:none;stroke:#ff00ff;stroke-linejoin:miter;stroke-width:1.5;" x="228.183618" xlink:href="#m6e813ebcd8" y="243.896739"/>
     <use style="fill:none;stroke:#ff00ff;stroke-linejoin:miter;stroke-width:1.5;" x="275.791108" xlink:href="#m6e813ebcd8" y="220.132126"/>
     <use style="fill:none;stroke:#ff00ff;stroke-linejoin:miter;stroke-width:1.5;" x="317.239712" xlink:href="#m6e813ebcd8" y="159.170729"/>
     <use style="fill:none;stroke:#ff00ff;stroke-linejoin:miter;stroke-width:1.5;" x="347.410104" xlink:href="#m6e813ebcd8" y="143.25877"/>
     <use style="fill:none;stroke:#ff00ff;stroke-linejoin:miter;stroke-width:1.5;" x="358.8" xlink:href="#m6e813ebcd8" y="143.25877"/>
    </g>
   </g>
   <g id="line2d_54"/>
   <g id="line2d_55">
    <path clip-path="url(#pcbacf26a1f)" d="M 263.399453 237.59395 
" style="fill:none;stroke:#ff00ff;stroke-linecap:square;stroke-width:1.5;"/>
    <defs>
     <path d="M -12 12 
L 12 -12 
M -12 -12 
L 12 12 
" id="m73e3ec2534" style="stroke:#ff00ff;stroke-width:3;"/>
    </defs>
    <g clip-path="url(#pcbacf26a1f)">
     <use style="fill:#ff00ff;stroke:#ff00ff;stroke-width:3;" x="263.399453" xlink:href="#m73e3ec2534" y="237.59395"/>
    </g>
   </g>
   <g id="line2d_56">
    <path d="M 358.8 155.657699 
L 390.48 292.97583 
" style="fill:none;stroke:#000080;stroke-linecap:square;stroke-width:1.5;"/>
    <g>
     <use style="fill:none;stroke:#000080;stroke-width:1.5;" x="358.8" xlink:href="#m4ee47cd4a0" y="155.657699"/>
     <use style="fill:none;stroke:#000080;stroke-width:1.5;" x="390.48" xlink:href="#m4ee47cd4a0" y="292.97583"/>
    </g>
   </g>
   <g id="line2d_57">
    <path d="M 358.8 143.25877 
L 390.48 166.506761 
" style="fill:none;stroke:#ff00ff;stroke-linecap:square;stroke-width:1.5;"/>
    <g>
     <use style="fill:none;stroke:#ff00ff;stroke-linejoin:miter;stroke-width:1.5;" x="358.8" xlink:href="#m6e813ebcd8" y="143.25877"/>
     <use style="fill:none;stroke:#ff00ff;stroke-linejoin:miter;stroke-width:1.5;" x="390.48" xlink:href="#m6e813ebcd8" y="166.506761"/>
    </g>
   </g>
   <g id="line2d_58">
    <path d="M 358.8 298.245375 
L 358.8 34.768147 
" style="fill:none;stroke:#000000;stroke-linecap:square;stroke-width:1.5;"/>
   </g>
   <g id="patch_3">
    <path d="M 70.8 298.245375 
L 70.8 32.133375 
" style="fill:none;stroke:#000000;stroke-linecap:square;stroke-linejoin:miter;stroke-width:0.8;"/>
   </g>
   <g id="patch_4">
    <path d="M 427.92 298.245375 
L 427.92 32.133375 
" style="fill:none;stroke:#000000;stroke-linecap:square;stroke-linejoin:miter;stroke-width:0.8;"/>
   </g>
   <g id="patch_5">
    <path d="M 70.8 298.245375 
L 427.92 298.245375 
" style="fill:none;stroke:#000000;stroke-linecap:square;stroke-linejoin:miter;stroke-width:0.8;"/>
   </g>
   <g id="patch_6">
    <path d="M 70.8 32.133375 
L 427.92 32.133375 
" style="fill:none;stroke:#000000;stroke-linecap:square;stroke-linejoin:miter;stroke-width:0.8;"/>
   </g>
   <g id="text_14">
    <!-- ex1Tourna -->
    <defs>
     <path d="M 54.890625 54.6875 
L 35.109375 28.078125 
L 55.90625 0 
L 45.3125 0 
L 29.390625 21.484375 
L 13.484375 0 
L 2.875 0 
L 24.125 28.609375 
L 4.6875 54.6875 
L 15.28125 54.6875 
L 29.78125 35.203125 
L 44.28125 54.6875 
z
" id="DejaVuSans-78"/>
     <path d="M -0.296875 72.90625 
L 61.375 72.90625 
L 61.375 64.59375 
L 35.5 64.59375 
L 35.5 0 
L 25.59375 0 
L 25.59375 64.59375 
L -0.296875 64.59375 
z
" id="DejaVuSans-54"/>
    </defs>
    <g transform="translate(396.24 297.114893)scale(0.15 -0.15)">
     <use xlink:href="#DejaVuSans-65"/>
     <use x="61.507812" xlink:href="#DejaVuSans-78"/>
     <use x="120.6875" xlink:href="#DejaVuSans-31"/>
     <use x="184.310547" xlink:href="#DejaVuSans-54"/>
     <use x="245.128906" xlink:href="#DejaVuSans-6f"/>
     <use x="306.310547" xlink:href="#DejaVuSans-75"/>
     <use x="369.689453" xlink:href="#DejaVuSans-72"/>
     <use x="410.787109" xlink:href="#DejaVuSans-6e"/>
     <use x="474.166016" xlink:href="#DejaVuSans-61"/>
    </g>
   </g>
   <g id="text_15">
    <!-- ex -->
    <g transform="translate(396.24 170.645824)scale(0.15 -0.15)">
     <use xlink:href="#DejaVuSans-65"/>
     <use x="61.507812" xlink:href="#DejaVuSans-78"/>
    </g>
   </g>
   <g id="text_16">
    <!-- best 2009 -->
    <defs>
     <path d="M 48.6875 27.296875 
Q 48.6875 37.203125 44.609375 42.84375 
Q 40.53125 48.484375 33.40625 48.484375 
Q 26.265625 48.484375 22.1875 42.84375 
Q 18.109375 37.203125 18.109375 27.296875 
Q 18.109375 17.390625 22.1875 11.75 
Q 26.265625 6.109375 33.40625 6.109375 
Q 40.53125 6.109375 44.609375 11.75 
Q 48.6875 17.390625 48.6875 27.296875 
M 18.109375 46.390625 
Q 20.953125 51.265625 25.265625 53.625 
Q 29.59375 56 35.59375 56 
Q 45.5625 56 51.78125 48.09375 
Q 58.015625 40.1875 58.015625 27.296875 
Q 58.015625 14.40625 51.78125 6.484375 
Q 45.5625 -1.421875 35.59375 -1.421875 
Q 29.59375 -1.421875 25.265625 0.953125 
Q 20.953125 3.328125 18.109375 8.203125 
L 18.109375 0 
L 9.078125 0 
L 9.078125 75.984375 
L 18.109375 75.984375 
z
" id="DejaVuSans-62"/>
     <path d="M 10.984375 1.515625 
L 10.984375 10.5 
Q 14.703125 8.734375 18.5 7.8125 
Q 22.3125 6.890625 25.984375 6.890625 
Q 35.75 6.890625 40.890625 13.453125 
Q 46.046875 20.015625 46.78125 33.40625 
Q 43.953125 29.203125 39.59375 26.953125 
Q 35.25 24.703125 29.984375 24.703125 
Q 19.046875 24.703125 12.671875 31.3125 
Q 6.296875 37.9375 6.296875 49.421875 
Q 6.296875 60.640625 12.9375 67.421875 
Q 19.578125 74.21875 30.609375 74.21875 
Q 43.265625 74.21875 49.921875 64.515625 
Q 56.59375 54.828125 56.59375 36.375 
Q 56.59375 19.140625 48.40625 8.859375 
Q 40.234375 -1.421875 26.421875 -1.421875 
Q 22.703125 -1.421875 18.890625 -0.6875 
Q 15.09375 0.046875 10.984375 1.515625 
M 30.609375 32.421875 
Q 37.25 32.421875 41.125 36.953125 
Q 45.015625 41.5 45.015625 49.421875 
Q 45.015625 57.28125 41.125 61.84375 
Q 37.25 66.40625 30.609375 66.40625 
Q 23.96875 66.40625 20.09375 61.84375 
Q 16.21875 57.28125 16.21875 49.421875 
Q 16.21875 41.5 20.09375 36.953125 
Q 23.96875 32.421875 30.609375 32.421875 
" id="DejaVuSans-39"/>
    </defs>
    <g transform="translate(396.24 44.176754)scale(0.15 -0.15)">
     <use xlink:href="#DejaVuSans-62"/>
     <use x="63.476562" xlink:href="#DejaVuSans-65"/>
     <use x="125" xlink:href="#DejaVuSans-73"/>
     <use x="177.099609" xlink:href="#DejaVuSans-74"/>
     <use x="216.308594" xlink:href="#DejaVuSans-20"/>
     <use x="248.095703" xlink:href="#DejaVuSans-32"/>
     <use x="311.71875" xlink:href="#DejaVuSans-30"/>
     <use x="375.341797" xlink:href="#DejaVuSans-30"/>
     <use x="438.964844" xlink:href="#DejaVuSans-39"/>
    </g>
   </g>
   <g id="text_17">
    <!-- bbob - f15-f19, 2-D -->
    <defs>
     <path d="M 10.796875 72.90625 
L 49.515625 72.90625 
L 49.515625 64.59375 
L 19.828125 64.59375 
L 19.828125 46.734375 
Q 21.96875 47.46875 24.109375 47.828125 
Q 26.265625 48.1875 28.421875 48.1875 
Q 40.625 48.1875 47.75 41.5 
Q 54.890625 34.8125 54.890625 23.390625 
Q 54.890625 11.625 47.5625 5.09375 
Q 40.234375 -1.421875 26.90625 -1.421875 
Q 22.3125 -1.421875 17.546875 -0.640625 
Q 12.796875 0.140625 7.71875 1.703125 
L 7.71875 11.625 
Q 12.109375 9.234375 16.796875 8.0625 
Q 21.484375 6.890625 26.703125 6.890625 
Q 35.15625 6.890625 40.078125 11.328125 
Q 45.015625 15.765625 45.015625 23.390625 
Q 45.015625 31 40.078125 35.4375 
Q 35.15625 39.890625 26.703125 39.890625 
Q 22.75 39.890625 18.8125 39.015625 
Q 14.890625 38.140625 10.796875 36.28125 
z
" id="DejaVuSans-35"/>
     <path d="M 11.71875 12.40625 
L 22.015625 12.40625 
L 22.015625 4 
L 14.015625 -11.625 
L 7.71875 -11.625 
L 11.71875 4 
z
" id="DejaVuSans-2c"/>
     <path d="M 19.671875 64.796875 
L 19.671875 8.109375 
L 31.59375 8.109375 
Q 46.6875 8.109375 53.6875 14.9375 
Q 60.6875 21.78125 60.6875 36.53125 
Q 60.6875 51.171875 53.6875 57.984375 
Q 46.6875 64.796875 31.59375 64.796875 
z
M 9.8125 72.90625 
L 30.078125 72.90625 
Q 51.265625 72.90625 61.171875 64.09375 
Q 71.09375 55.28125 71.09375 36.53125 
Q 71.09375 17.671875 61.125 8.828125 
Q 51.171875 0 30.078125 0 
L 9.8125 0 
z
" id="DejaVuSans-44"/>
    </defs>
    <g transform="translate(74.3712 50.114612)scale(0.1666 -0.1666)">
     <use xlink:href="#DejaVuSans-62"/>
     <use x="63.476562" xlink:href="#DejaVuSans-62"/>
     <use x="126.953125" xlink:href="#DejaVuSans-6f"/>
     <use x="188.134766" xlink:href="#DejaVuSans-62"/>
     <use x="251.611328" xlink:href="#DejaVuSans-20"/>
     <use x="283.398438" xlink:href="#DejaVuSans-2d"/>
     <use x="319.482422" xlink:href="#DejaVuSans-20"/>
     <use x="351.269531" xlink:href="#DejaVuSans-66"/>
     <use x="386.474609" xlink:href="#DejaVuSans-31"/>
     <use x="450.097656" xlink:href="#DejaVuSans-35"/>
     <use x="513.720703" xlink:href="#DejaVuSans-2d"/>
     <use x="549.804688" xlink:href="#DejaVuSans-66"/>
     <use x="585.009766" xlink:href="#DejaVuSans-31"/>
     <use x="648.632812" xlink:href="#DejaVuSans-39"/>
     <use x="712.255859" xlink:href="#DejaVuSans-2c"/>
     <use x="744.042969" xlink:href="#DejaVuSans-20"/>
     <use x="775.830078" xlink:href="#DejaVuSans-32"/>
     <use x="839.453125" xlink:href="#DejaVuSans-2d"/>
     <use x="875.537109" xlink:href="#DejaVuSans-44"/>
    </g>
    <!-- 51 targets in 100..1e-08 -->
    <g transform="translate(74.3712 68.770168)scale(0.1666 -0.1666)">
     <use xlink:href="#DejaVuSans-35"/>
     <use x="63.623047" xlink:href="#DejaVuSans-31"/>
     <use x="127.246094" xlink:href="#DejaVuSans-20"/>
     <use x="159.033203" xlink:href="#DejaVuSans-74"/>
     <use x="198.242188" xlink:href="#DejaVuSans-61"/>
     <use x="259.521484" xlink:href="#DejaVuSans-72"/>
     <use x="300.619141" xlink:href="#DejaVuSans-67"/>
     <use x="364.095703" xlink:href="#DejaVuSans-65"/>
     <use x="425.619141" xlink:href="#DejaVuSans-74"/>
     <use x="464.828125" xlink:href="#DejaVuSans-73"/>
     <use x="516.927734" xlink:href="#DejaVuSans-20"/>
     <use x="548.714844" xlink:href="#DejaVuSans-69"/>
     <use x="576.498047" xlink:href="#DejaVuSans-6e"/>
     <use x="639.876953" xlink:href="#DejaVuSans-20"/>
     <use x="671.664062" xlink:href="#DejaVuSans-31"/>
     <use x="735.287109" xlink:href="#DejaVuSans-30"/>
     <use x="798.910156" xlink:href="#DejaVuSans-30"/>
     <use x="862.533203" xlink:href="#DejaVuSans-2e"/>
     <use x="894.320312" xlink:href="#DejaVuSans-2e"/>
     <use x="926.107422" xlink:href="#DejaVuSans-31"/>
     <use x="989.730469" xlink:href="#DejaVuSans-65"/>
     <use x="1051.253906" xlink:href="#DejaVuSans-2d"/>
     <use x="1087.337891" xlink:href="#DejaVuSans-30"/>
     <use x="1150.960938" xlink:href="#DejaVuSans-38"/>
    </g>
    <!-- 30, 15 instances -->
    <defs>
     <path d="M 40.578125 39.3125 
Q 47.65625 37.796875 51.625 33 
Q 55.609375 28.21875 55.609375 21.1875 
Q 55.609375 10.40625 48.1875 4.484375 
Q 40.765625 -1.421875 27.09375 -1.421875 
Q 22.515625 -1.421875 17.65625 -0.515625 
Q 12.796875 0.390625 7.625 2.203125 
L 7.625 11.71875 
Q 11.71875 9.328125 16.59375 8.109375 
Q 21.484375 6.890625 26.8125 6.890625 
Q 36.078125 6.890625 40.9375 10.546875 
Q 45.796875 14.203125 45.796875 21.1875 
Q 45.796875 27.640625 41.28125 31.265625 
Q 36.765625 34.90625 28.71875 34.90625 
L 20.21875 34.90625 
L 20.21875 43.015625 
L 29.109375 43.015625 
Q 36.375 43.015625 40.234375 45.921875 
Q 44.09375 48.828125 44.09375 54.296875 
Q 44.09375 59.90625 40.109375 62.90625 
Q 36.140625 65.921875 28.71875 65.921875 
Q 24.65625 65.921875 20.015625 65.03125 
Q 15.375 64.15625 9.8125 62.3125 
L 9.8125 71.09375 
Q 15.4375 72.65625 20.34375 73.4375 
Q 25.25 74.21875 29.59375 74.21875 
Q 40.828125 74.21875 47.359375 69.109375 
Q 53.90625 64.015625 53.90625 55.328125 
Q 53.90625 49.265625 50.4375 45.09375 
Q 46.96875 40.921875 40.578125 39.3125 
" id="DejaVuSans-33"/>
    </defs>
    <g transform="translate(74.3712 87.425723)scale(0.1666 -0.1666)">
     <use xlink:href="#DejaVuSans-33"/>
     <use x="63.623047" xlink:href="#DejaVuSans-30"/>
     <use x="127.246094" xlink:href="#DejaVuSans-2c"/>
     <use x="159.033203" xlink:href="#DejaVuSans-20"/>
     <use x="190.820312" xlink:href="#DejaVuSans-31"/>
     <use x="254.443359" xlink:href="#DejaVuSans-35"/>
     <use x="318.066406" xlink:href="#DejaVuSans-20"/>
     <use x="349.853516" xlink:href="#DejaVuSans-69"/>
     <use x="377.636719" xlink:href="#DejaVuSans-6e"/>
     <use x="441.015625" xlink:href="#DejaVuSans-73"/>
     <use x="493.115234" xlink:href="#DejaVuSans-74"/>
     <use x="532.324219" xlink:href="#DejaVuSans-61"/>
     <use x="593.603516" xlink:href="#DejaVuSans-6e"/>
     <use x="656.982422" xlink:href="#DejaVuSans-63"/>
     <use x="711.962891" xlink:href="#DejaVuSans-65"/>
     <use x="773.486328" xlink:href="#DejaVuSans-73"/>
    </g>
   </g>
   <g id="text_18">
    <!-- v2.1 -->
    <g style="fill:#808080;" transform="translate(238.449063 293.504568)scale(0.1 -0.1)">
     <use xlink:href="#DejaVuSans-76"/>
     <use x="59.179688" xlink:href="#DejaVuSans-32"/>
     <use x="122.802734" xlink:href="#DejaVuSans-2e"/>
     <use x="154.589844" xlink:href="#DejaVuSans-31"/>
    </g>
   </g>
  </g>
 </g>
 <defs>
  <clipPath id="pcbacf26a1f">
   <rect height="266.112" width="357.12" x="70.8" y="32.133375"/>
  </clipPath>
 </defs>
</svg>
