<?xml version="1.0" encoding="utf-8" standalone="no"?>
<!DOCTYPE svg PUBLIC "-//W3C//DTD SVG 1.1//EN"
  "http://www.w3.org/Graphics/SVG/1.1/DTD/svg11.dtd">
<!-- Created with matplotlib (http://matplotlib.org/) -->
<svg height="335pt" version="1.1" viewBox="0 0 437 335" width="437pt" xmlns="http://www.w3.org/2000/svg" xmlns:xlink="http://www.w3.org/1999/xlink">
 <defs>
  <style type="text/css">
*{stroke-linecap:butt;stroke-linejoin:round;}
  </style>
 </defs>
 <g id="figure_1">
  <g id="patch_1">
   <path d="M 0 335.188165 
L 437.1825 335.188165 
L 437.1825 0 
L 0 0 
z
" style="fill:#ffffff;"/>
  </g>
  <g id="axes_1">
   <g id="patch_2">
    <path d="M 69.3625 278.275665 
L 426.4825 278.275665 
L 426.4825 12.163665 
L 69.3625 12.163665 
z
" style="fill:#ffffff;"/>
   </g>
   <g id="line2d_1"/>
   <g id="line2d_2"/>
   <g id="line2d_3"/>
   <g id="line2d_4">
    <path clip-path="url(#pae01dd7375)" d="M 337.854359 278.275665 
L 337.854359 274.762636 
L 337.854359 274.762636 
L 337.854359 274.762636 
L 337.874228 274.762636 
L 337.874228 271.249606 
L 338.765597 271.249606 
L 338.765597 267.736576 
L 339.404035 267.736576 
L 339.404035 264.223546 
L 339.824873 264.223546 
L 339.824873 260.710517 
L 340.217926 260.710517 
L 340.253043 253.684457 
L 340.362876 253.684457 
L 340.362876 250.171428 
L 341.047762 250.171428 
L 341.095911 239.632338 
L 342.655436 239.632338 
L 342.655436 236.119309 
L 343.180946 236.119309 
L 343.180946 232.606279 
L 344.029003 232.606279 
L 344.029003 229.093249 
L 344.175693 229.093249 
L 344.175693 225.58022 
L 345.061351 225.58022 
L 345.061351 222.06719 
L 345.650656 222.06719 
L 345.650656 218.55416 
L 346.506679 218.55416 
L 346.506679 215.041131 
L 346.702422 215.041131 
L 346.702422 211.528101 
L 347.21519 211.528101 
L 347.21519 208.015071 
L 347.676782 208.015071 
L 347.676782 204.502041 
L 349.583218 204.502041 
L 349.620289 197.475982 
L 351.073942 197.475982 
L 351.073942 193.962952 
L 352.2605 193.962952 
L 352.2605 190.449923 
L 353.613044 190.449923 
L 353.6784 183.423863 
L 354.365695 183.423863 
L 354.365695 179.910834 
L 354.701712 179.910834 
L 354.701712 176.397804 
L 357.760103 176.397804 
L 357.760103 172.884774 
L 360.076985 172.884774 
L 360.076985 169.371744 
L 360.815326 169.371744 
L 360.815326 165.858715 
L 361.004085 165.858715 
L 361.004085 162.345685 
L 362.065408 162.345685 
L 362.065408 158.832655 
L 362.499134 158.832655 
L 362.499134 155.319626 
L 363.665966 155.319626 
L 363.665966 151.806596 
L 363.898948 151.806596 
L 363.906734 144.780537 
L 364.155093 144.780537 
L 364.155093 141.267507 
L 364.559255 141.267507 
L 364.647245 134.241447 
L 365.011174 134.241447 
L 365.011174 130.728418 
L 365.424339 130.728418 
L 365.469291 123.702358 
L 365.911128 123.702358 
L 365.911128 120.189329 
L 366.651015 120.189329 
L 366.651015 116.676299 
L 368.33116 116.676299 
L 368.33116 113.163269 
L 370.842234 113.163269 
L 370.842234 109.650239 
L 378.629542 109.650239 
L 378.629542 106.13721 
L 379.191895 106.13721 
L 379.191895 102.62418 
L 379.304309 102.62418 
L 379.304309 99.11115 
L 379.699236 99.11115 
L 379.699236 95.598121 
L 382.641523 95.598121 
L 382.641523 92.085091 
L 389.493004 92.085091 
L 389.493004 88.572061 
L 394.313141 88.572061 
L 394.313141 85.059032 
L 398.618417 85.059032 
L 398.618417 81.546002 
L 399.102086 81.546002 
L 399.102086 78.032972 
L 399.371508 78.032972 
L 399.371508 74.519942 
L 399.531442 74.519942 
L 399.531442 71.006913 
L 400.361447 71.006913 
L 400.361447 67.493883 
L 401.567249 67.493883 
L 401.567249 63.980853 
L 419.876854 63.980853 
L 419.876854 60.467824 
L 432.286741 60.467824 
L 432.286741 56.954794 
L 434.776485 56.954794 
L 434.776485 53.441764 
L 434.776485 53.441764 
" style="fill:none;stroke:#f5deb3;stroke-linecap:square;stroke-width:1.5;"/>
   </g>
   <g id="line2d_5">
    <path clip-path="url(#pae01dd7375)" d="M 330.196927 278.275665 
L 330.196927 274.762636 
L 330.439744 274.762636 
L 330.439744 271.249606 
L 330.850077 271.249606 
L 330.850077 267.736576 
L 331.652561 267.736576 
L 331.652561 264.223546 
L 332.516002 264.223546 
L 332.516002 260.710517 
L 336.618209 260.710517 
L 336.618209 257.197487 
L 338.772882 257.197487 
L 338.772882 253.684457 
L 340.161676 253.684457 
L 340.161676 250.171428 
L 343.650239 250.171428 
L 343.650239 246.658398 
L 343.937315 246.658398 
L 343.937315 243.145368 
L 349.875152 243.145368 
L 349.875152 239.632338 
L 350.71679 239.632338 
L 350.71679 236.119309 
L 352.897253 236.119309 
L 352.897253 232.606279 
L 354.678854 232.606279 
L 354.678854 229.093249 
L 356.158653 229.093249 
L 356.158653 225.58022 
L 414.979729 225.58022 
L 414.979729 222.06719 
L 418.804414 222.06719 
L 418.804414 218.55416 
L 419.548919 218.55416 
L 419.548919 215.041131 
L 419.566092 215.041131 
L 419.566092 211.528101 
L 419.834721 211.528101 
L 419.834721 208.015071 
L 420.022209 208.015071 
L 420.022209 204.502041 
L 420.877181 204.502041 
L 420.877181 200.989012 
L 421.524711 200.989012 
L 421.524711 197.475982 
L 421.795904 197.475982 
L 421.795904 193.962952 
L 421.986056 193.962952 
L 421.986056 190.449923 
L 422.945273 190.449923 
L 422.945273 186.936893 
L 423.679102 186.936893 
L 423.679102 183.423863 
L 424.646246 183.423863 
L 424.646246 179.910834 
L 424.78472 179.910834 
L 424.78472 176.397804 
L 427.027318 176.397804 
L 427.027318 172.884774 
L 437.286594 172.884774 
L 437.286594 169.371744 
L 438.1825 169.371744 
" style="fill:none;stroke:#f5deb3;stroke-linecap:square;stroke-width:1.5;"/>
   </g>
   <g id="line2d_6"/>
   <g id="line2d_7">
    <path clip-path="url(#pae01dd7375)" d="M 336.886324 278.275665 
L 336.886324 274.762636 
L 336.886324 274.762636 
L 336.886324 274.762636 
L 336.932107 274.762636 
L 337.013371 267.736576 
L 337.236 267.736576 
L 337.236 264.223546 
L 337.590157 264.223546 
L 337.590157 260.710517 
L 337.814591 260.710517 
L 337.814591 257.197487 
L 338.10449 257.197487 
L 338.10449 253.684457 
L 338.299055 253.684457 
L 338.343255 246.658398 
L 338.811711 246.658398 
L 338.903782 236.119309 
L 338.981151 236.119309 
L 338.981151 232.606279 
L 340.616443 232.606279 
L 340.616443 229.093249 
L 348.20228 229.093249 
L 348.20228 225.58022 
L 348.380386 225.58022 
L 348.380386 222.06719 
L 348.572922 222.06719 
L 348.572922 218.55416 
L 349.047436 218.55416 
L 349.047436 215.041131 
L 349.180649 215.041131 
L 349.216223 208.015071 
L 349.651773 208.015071 
L 349.651773 204.502041 
L 350.530676 204.502041 
L 350.530676 200.989012 
L 351.061433 200.989012 
L 351.061433 197.475982 
L 352.159761 197.475982 
L 352.237942 190.449923 
L 352.902374 190.449923 
L 352.902374 186.936893 
L 353.46013 186.936893 
L 353.46013 183.423863 
L 353.703509 183.423863 
L 353.703509 179.910834 
L 355.180361 179.910834 
L 355.180361 176.397804 
L 355.694789 176.397804 
L 355.734577 169.371744 
L 357.064437 169.371744 
L 357.064437 165.858715 
L 357.312966 165.858715 
L 357.312966 162.345685 
L 357.926126 162.345685 
L 357.926126 158.832655 
L 358.445396 158.832655 
L 358.445396 155.319626 
L 359.806267 155.319626 
L 359.806267 151.806596 
L 359.959755 151.806596 
L 359.959755 148.293566 
L 360.385572 148.293566 
L 360.385572 144.780537 
L 362.096642 144.780537 
L 362.096642 141.267507 
L 362.886982 141.267507 
L 362.886982 137.754477 
L 363.238145 137.754477 
L 363.238145 134.241447 
L 364.972023 134.241447 
L 364.972023 130.728418 
L 365.443075 130.728418 
L 365.500478 123.702358 
L 367.05251 123.702358 
L 367.05251 120.189329 
L 367.889488 120.189329 
L 367.889488 116.676299 
L 377.457485 116.676299 
L 377.457485 113.163269 
L 385.545641 113.163269 
L 385.545641 109.650239 
L 391.281799 109.650239 
L 391.281799 106.13721 
L 395.21612 106.13721 
L 395.21612 102.62418 
L 404.786051 102.62418 
L 404.786051 99.11115 
L 405.472276 99.11115 
L 405.472276 95.598121 
L 406.12613 95.598121 
L 406.12613 92.085091 
L 407.366277 92.085091 
L 407.366277 88.572061 
L 407.994963 88.572061 
L 407.994963 85.059032 
L 408.210095 85.059032 
L 408.210095 81.546002 
L 420.819134 81.546002 
L 420.819134 78.032972 
L 424.439357 78.032972 
L 424.439357 74.519942 
L 424.795527 74.519942 
L 424.795527 71.006913 
L 425.216997 71.006913 
L 425.216997 67.493883 
L 438.1825 67.493883 
L 438.1825 67.493883 
" style="fill:none;stroke:#f5deb3;stroke-linecap:square;stroke-width:1.5;"/>
   </g>
   <g id="line2d_8"/>
   <g id="line2d_9">
    <path clip-path="url(#pae01dd7375)" d="M 335.130604 278.275665 
L 335.130604 274.762636 
L 335.474771 274.762636 
L 335.474771 271.249606 
L 335.656252 271.249606 
L 335.656252 267.736576 
L 335.839528 267.736576 
L 335.839528 264.223546 
L 336.200998 264.223546 
L 336.200998 260.710517 
L 336.412721 260.710517 
L 336.412721 257.197487 
L 336.789499 257.197487 
L 336.789499 253.684457 
L 336.929565 253.684457 
L 336.929565 250.171428 
L 337.091938 250.171428 
L 337.12484 243.145368 
L 337.223384 243.145368 
L 337.311615 229.093249 
L 337.747393 229.093249 
L 337.747393 225.58022 
L 340.516603 225.58022 
L 340.516603 222.06719 
L 344.400003 222.06719 
L 344.400003 218.55416 
L 344.882441 218.55416 
L 344.957431 208.015071 
L 345.18984 208.015071 
L 345.284905 200.989012 
L 345.468197 200.989012 
L 345.517482 190.449923 
L 345.62201 190.449923 
L 345.62201 186.936893 
L 345.760958 186.936893 
L 345.760958 183.423863 
L 346.360248 183.423863 
L 346.360248 179.910834 
L 346.578696 179.910834 
L 346.578696 176.397804 
L 346.988322 176.397804 
L 346.988322 172.884774 
L 347.126568 172.884774 
L 347.126568 169.371744 
L 347.462294 169.371744 
L 347.462294 165.858715 
L 348.472003 165.858715 
L 348.472003 162.345685 
L 348.665998 162.345685 
L 348.665998 158.832655 
L 349.629552 158.832655 
L 349.629552 155.319626 
L 350.570501 155.319626 
L 350.570501 151.806596 
L 351.211288 151.806596 
L 351.211288 148.293566 
L 351.373002 148.293566 
L 351.373002 144.780537 
L 351.683929 144.780537 
L 351.74196 137.754477 
L 351.827974 137.754477 
L 351.827974 134.241447 
L 352.196265 134.241447 
L 352.196265 130.728418 
L 352.502623 130.728418 
L 352.599065 120.189329 
L 352.868217 120.189329 
L 352.914323 113.163269 
L 353.101615 113.163269 
L 353.101615 109.650239 
L 353.306632 109.650239 
L 353.306632 106.13721 
L 353.527417 106.13721 
L 353.527417 102.62418 
L 357.559964 102.62418 
L 357.599464 95.598121 
L 361.269635 95.598121 
L 361.269635 92.085091 
L 361.712004 92.085091 
L 361.712004 88.572061 
L 365.945673 88.572061 
L 365.945673 85.059032 
L 368.41242 85.059032 
L 368.490044 78.032972 
L 372.415506 78.032972 
L 372.415506 74.519942 
L 373.936466 74.519942 
L 373.936466 71.006913 
L 377.777376 71.006913 
L 377.777376 67.493883 
L 380.914741 67.493883 
L 380.914741 63.980853 
L 385.462335 63.980853 
L 385.462335 60.467824 
L 387.17861 60.467824 
L 387.17861 56.954794 
L 387.3822 56.954794 
L 387.3822 53.441764 
L 388.008193 53.441764 
L 388.008193 49.928735 
L 388.308738 49.928735 
L 388.308738 46.415705 
L 400.801916 46.415705 
L 400.801916 42.902675 
L 410.927514 42.902675 
L 410.927514 39.389645 
L 423.790054 39.389645 
L 423.790054 35.876616 
L 426.369163 35.876616 
L 426.369163 32.363586 
L 427.062269 32.363586 
L 427.062269 28.850556 
L 427.45085 28.850556 
L 427.45085 25.337527 
L 428.258654 25.337527 
L 428.258654 21.824497 
L 430.463099 21.824497 
L 430.463099 18.311467 
L 431.172517 18.311467 
L 431.172517 14.798437 
L 431.172517 14.798437 
" style="fill:none;stroke:#f5deb3;stroke-linecap:square;stroke-width:1.5;"/>
   </g>
   <g id="line2d_10"/>
   <g id="line2d_11">
    <path clip-path="url(#pae01dd7375)" style="fill:none;stroke:#f5deb3;stroke-linecap:square;stroke-width:1.5;"/>
   </g>
   <g id="line2d_12">
    <path clip-path="url(#pae01dd7375)" d="M 419.081455 278.275665 
L 419.081455 274.762636 
L 419.081455 274.762636 
L 419.081455 274.762636 
L 426.4825 274.762636 
" style="fill:none;stroke:#f5deb3;stroke-linecap:square;stroke-width:1.5;"/>
   </g>
   <g id="line2d_13"/>
   <g id="line2d_14"/>
   <g id="line2d_15"/>
   <g id="line2d_16">
    <path clip-path="url(#pae01dd7375)" style="fill:none;stroke:#f5deb3;stroke-linecap:square;stroke-width:1.5;"/>
   </g>
   <g id="line2d_17">
    <path clip-path="url(#pae01dd7375)" style="fill:none;stroke:#f5deb3;stroke-linecap:square;stroke-width:1.5;"/>
   </g>
   <g id="line2d_18">
    <path clip-path="url(#pae01dd7375)" d="M 312.769423 278.275665 
L 312.769423 274.762636 
L 318.821704 274.762636 
L 318.821704 271.249606 
L 320.322497 271.249606 
L 320.322497 267.736576 
L 321.246381 267.736576 
L 321.246381 264.223546 
L 321.564591 264.223546 
L 321.564591 260.710517 
L 323.38698 260.710517 
L 323.38698 257.197487 
L 328.523787 257.197487 
L 328.523787 253.684457 
L 333.051614 253.684457 
L 333.051614 250.171428 
L 333.28615 250.171428 
L 333.28615 246.658398 
L 333.339011 246.658398 
L 333.339011 243.145368 
L 338.247427 243.145368 
L 338.247427 239.632338 
L 342.848923 239.632338 
L 342.848923 236.119309 
L 345.67315 236.119309 
L 345.67315 232.606279 
L 348.770215 232.606279 
L 348.770215 229.093249 
L 356.37998 229.093249 
L 356.37998 225.58022 
L 407.293758 225.58022 
L 407.293758 222.06719 
L 408.065795 222.06719 
L 408.065795 218.55416 
L 409.55711 218.55416 
L 409.55711 215.041131 
L 409.837192 215.041131 
L 409.837192 211.528101 
L 411.400453 211.528101 
L 411.400453 208.015071 
L 411.627347 208.015071 
L 411.627347 204.502041 
L 411.853357 204.502041 
L 411.853357 200.989012 
L 412.316732 200.989012 
L 412.316732 197.475982 
L 412.374134 197.475982 
L 412.374134 193.962952 
L 412.881731 193.962952 
L 412.881731 190.449923 
L 413.361813 190.449923 
L 413.361813 186.936893 
L 413.485277 186.936893 
L 413.485277 183.423863 
L 413.6279 183.423863 
L 413.6279 179.910834 
L 413.679331 179.910834 
L 413.679331 176.397804 
L 414.024494 176.397804 
L 414.024494 172.884774 
L 414.090647 172.884774 
L 414.090647 169.371744 
L 414.449237 169.371744 
L 414.449237 165.858715 
L 414.696527 165.858715 
L 414.696527 162.345685 
L 414.722854 162.345685 
L 414.722854 158.832655 
L 415.627856 158.832655 
L 415.627856 155.319626 
L 415.657865 155.319626 
L 415.657865 151.806596 
L 419.900313 151.806596 
L 419.900313 148.293566 
L 424.917898 148.293566 
L 424.917898 144.780537 
L 435.958386 144.780537 
L 435.958386 141.267507 
L 438.1825 141.267507 
" style="fill:none;stroke:#f5deb3;stroke-linecap:square;stroke-width:1.5;"/>
   </g>
   <g id="line2d_19"/>
   <g id="line2d_20"/>
   <g id="line2d_21"/>
   <g id="line2d_22"/>
   <g id="line2d_23"/>
   <g id="line2d_24">
    <path clip-path="url(#pae01dd7375)" d="M 355.520846 278.275665 
L 355.520846 274.762636 
L 356.845318 274.762636 
L 356.845318 271.249606 
L 357.746489 271.249606 
L 357.746489 267.736576 
L 358.424575 267.736576 
L 358.424575 264.223546 
L 359.021101 264.223546 
L 359.021101 260.710517 
L 361.066807 260.710517 
L 361.066807 257.197487 
L 361.706521 257.197487 
L 361.706521 253.684457 
L 362.100714 253.684457 
L 362.163102 246.658398 
L 362.90295 246.658398 
L 362.90295 243.145368 
L 363.712932 243.145368 
L 363.712932 239.632338 
L 364.869546 239.632338 
L 364.92145 232.606279 
L 365.468043 232.606279 
L 365.483016 225.58022 
L 366.207497 225.58022 
L 366.207497 222.06719 
L 367.208165 222.06719 
L 367.269065 215.041131 
L 367.489205 215.041131 
L 367.505815 208.015071 
L 368.528221 208.015071 
L 368.528221 204.502041 
L 368.825453 204.502041 
L 368.825453 200.989012 
L 369.436006 200.989012 
L 369.467646 193.962952 
L 369.555656 193.962952 
L 369.555656 190.449923 
L 369.896839 190.449923 
L 369.896839 186.936893 
L 370.767942 186.936893 
L 370.861876 179.910834 
L 370.928371 179.910834 
L 370.928371 176.397804 
L 371.342294 176.397804 
L 371.342294 172.884774 
L 371.53372 172.884774 
L 371.53372 169.371744 
L 372.933763 169.371744 
L 372.933763 165.858715 
L 373.488348 165.858715 
L 373.488348 162.345685 
L 373.875791 162.345685 
L 373.875791 158.832655 
L 374.060563 158.832655 
L 374.060563 155.319626 
L 374.185282 155.319626 
L 374.185282 151.806596 
L 374.561108 151.806596 
L 374.561108 148.293566 
L 376.438564 148.293566 
L 376.453751 141.267507 
L 377.016351 141.267507 
L 377.016351 137.754477 
L 377.916702 137.754477 
L 377.916702 134.241447 
L 378.87241 134.241447 
L 378.932229 127.215388 
L 379.394368 127.215388 
L 379.394368 123.702358 
L 379.88959 123.702358 
L 379.88959 120.189329 
L 385.935629 120.189329 
L 385.935629 116.676299 
L 386.187325 116.676299 
L 386.187325 113.163269 
L 386.80791 113.163269 
L 386.80791 109.650239 
L 387.094991 109.650239 
L 387.107363 102.62418 
L 387.767701 102.62418 
L 387.767701 99.11115 
L 387.971179 99.11115 
L 387.971179 95.598121 
L 388.534082 95.598121 
L 388.534082 92.085091 
L 389.276445 92.085091 
L 389.307454 85.059032 
L 390.326924 85.059032 
L 390.326924 81.546002 
L 390.48041 81.546002 
L 390.508497 74.519942 
L 392.238808 74.519942 
L 392.238808 71.006913 
L 396.692614 71.006913 
L 396.692614 67.493883 
L 405.698586 67.493883 
L 405.698586 63.980853 
L 414.646019 63.980853 
L 414.646019 60.467824 
L 415.305642 60.467824 
L 415.305642 56.954794 
L 418.173484 56.954794 
L 418.233811 49.928735 
L 418.778653 49.928735 
L 418.778653 46.415705 
L 419.042416 46.415705 
L 419.042416 42.902675 
L 419.403136 42.902675 
L 419.403136 39.389645 
L 419.740002 39.389645 
L 419.751935 32.363586 
L 420.131919 32.363586 
L 420.131919 28.850556 
L 423.864627 28.850556 
L 423.864627 25.337527 
L 424.091862 25.337527 
L 424.091862 21.824497 
L 424.94907 21.824497 
L 424.94907 18.311467 
L 425.754761 18.311467 
L 425.754761 14.798437 
L 425.754761 14.798437 
L 426.4825 14.798437 
L 426.4825 14.798437 
" style="fill:none;stroke:#f5deb3;stroke-linecap:square;stroke-width:1.5;"/>
   </g>
   <g id="line2d_25"/>
   <g id="line2d_26">
    <path clip-path="url(#pae01dd7375)" d="M 360.607365 278.275665 
L 360.607365 274.762636 
L 377.541623 274.762636 
L 377.541623 271.249606 
L 377.627428 271.249606 
L 377.627428 267.736576 
L 382.547063 267.736576 
L 382.547063 264.223546 
L 385.199929 264.223546 
L 385.199929 260.710517 
L 385.84487 260.710517 
L 385.84487 257.197487 
L 387.215637 257.197487 
L 387.215637 253.684457 
L 387.405319 253.684457 
L 387.405319 250.171428 
L 387.45801 250.171428 
L 387.45801 246.658398 
L 387.912027 246.658398 
L 387.912027 243.145368 
L 388.023132 243.145368 
L 388.023132 239.632338 
L 388.623166 239.632338 
L 388.623166 236.119309 
L 388.730924 236.119309 
L 388.730924 232.606279 
L 388.795161 232.606279 
L 388.795161 229.093249 
L 388.865564 229.093249 
L 388.865564 225.58022 
L 389.291608 225.58022 
L 389.291608 222.06719 
L 389.410643 222.06719 
L 389.410643 218.55416 
L 389.516994 218.55416 
L 389.516994 215.041131 
L 390.189697 215.041131 
L 390.189697 211.528101 
L 390.888404 211.528101 
L 390.888404 208.015071 
L 391.45454 208.015071 
L 391.45454 204.502041 
L 391.463679 204.502041 
L 391.463679 200.989012 
L 391.536723 200.989012 
L 391.536723 197.475982 
L 392.531621 197.475982 
L 392.531621 193.962952 
L 392.629387 193.962952 
L 392.629387 190.449923 
L 392.684513 190.449923 
L 392.684513 186.936893 
L 392.811584 186.936893 
L 392.811584 183.423863 
L 393.975498 183.423863 
L 393.975498 179.910834 
L 394.384214 179.910834 
L 394.384214 176.397804 
L 396.325374 176.397804 
L 396.325374 172.884774 
L 396.816759 172.884774 
L 396.816759 169.371744 
L 397.867057 169.371744 
L 397.867057 165.858715 
L 400.113349 165.858715 
L 400.113349 162.345685 
L 400.208469 162.345685 
L 400.208469 158.832655 
L 406.030454 158.832655 
L 406.030454 155.319626 
L 409.758668 155.319626 
L 409.758668 151.806596 
L 418.209691 151.806596 
L 418.209691 148.293566 
L 423.50916 148.293566 
L 423.50916 144.780537 
L 425.848493 144.780537 
L 425.848493 141.267507 
L 427.41011 141.267507 
L 427.41011 137.754477 
L 427.496069 137.754477 
L 427.496069 134.241447 
L 428.965772 134.241447 
L 428.965772 130.728418 
L 429.048465 130.728418 
L 429.048465 127.215388 
L 429.316108 127.215388 
L 429.316108 123.702358 
L 430.962152 123.702358 
L 430.962152 120.189329 
L 438.1825 120.189329 
" style="fill:none;stroke:#f5deb3;stroke-linecap:square;stroke-width:1.5;"/>
   </g>
   <g id="line2d_27"/>
   <g id="line2d_28">
    <path clip-path="url(#pae01dd7375)" d="M 335.377116 278.275665 
L 335.377116 274.762636 
L 335.377116 274.762636 
L 335.377116 274.762636 
L 335.448402 274.762636 
L 335.448402 271.249606 
L 335.587965 271.249606 
L 335.587965 267.736576 
L 335.920426 267.736576 
L 335.977739 260.710517 
L 336.260496 260.710517 
L 336.260496 257.197487 
L 336.417871 257.197487 
L 336.417871 253.684457 
L 337.076744 253.684457 
L 337.076744 250.171428 
L 337.19814 250.171428 
L 337.251135 243.145368 
L 337.973428 243.145368 
L 337.973428 239.632338 
L 338.357977 239.632338 
L 338.357977 236.119309 
L 338.908622 236.119309 
L 338.985982 225.58022 
L 339.147473 225.58022 
L 339.147473 222.06719 
L 339.454197 222.06719 
L 339.454197 218.55416 
L 340.013643 218.55416 
L 340.013643 215.041131 
L 340.507303 215.041131 
L 340.507303 211.528101 
L 340.672059 211.528101 
L 340.672059 208.015071 
L 341.48811 208.015071 
L 341.48811 204.502041 
L 341.804535 204.502041 
L 341.804535 200.989012 
L 342.321239 200.989012 
L 342.321239 197.475982 
L 342.67747 197.475982 
L 342.67747 193.962952 
L 343.263524 193.962952 
L 343.263524 190.449923 
L 344.547447 190.449923 
L 344.589475 183.423863 
L 344.978237 183.423863 
L 344.978237 179.910834 
L 345.121502 179.910834 
L 345.121502 176.397804 
L 345.844504 176.397804 
L 345.844504 172.884774 
L 346.831726 172.884774 
L 346.875396 165.858715 
L 347.505283 165.858715 
L 347.587226 151.806596 
L 348.58433 151.806596 
L 348.58433 148.293566 
L 348.838283 148.293566 
L 348.838283 144.780537 
L 349.238674 144.780537 
L 349.238674 141.267507 
L 349.570235 141.267507 
L 349.570235 137.754477 
L 350.016657 137.754477 
L 350.029496 130.728418 
L 351.164964 130.728418 
L 351.164964 127.215388 
L 351.719109 127.215388 
L 351.719109 123.702358 
L 353.171201 123.702358 
L 353.171201 120.189329 
L 361.313954 120.189329 
L 361.313954 116.676299 
L 361.783208 116.676299 
L 361.783208 113.163269 
L 362.847033 113.163269 
L 362.847033 109.650239 
L 363.330394 109.650239 
L 363.330394 106.13721 
L 363.532598 106.13721 
L 363.532598 102.62418 
L 364.337791 102.62418 
L 364.337791 99.11115 
L 364.621761 99.11115 
L 364.621761 95.598121 
L 365.112032 95.598121 
L 365.112032 92.085091 
L 365.817211 92.085091 
L 365.817211 88.572061 
L 366.086017 88.572061 
L 366.086017 85.059032 
L 367.322724 85.059032 
L 367.322724 81.546002 
L 369.38963 81.546002 
L 369.38963 78.032972 
L 369.543256 78.032972 
L 369.543256 74.519942 
L 373.267022 74.519942 
L 373.267022 71.006913 
L 374.239474 71.006913 
L 374.239474 67.493883 
L 378.337233 67.493883 
L 378.337233 63.980853 
L 379.710613 63.980853 
L 379.710613 60.467824 
L 385.354538 60.467824 
L 385.354538 56.954794 
L 386.27137 56.954794 
L 386.27137 53.441764 
L 387.339539 53.441764 
L 387.423372 46.415705 
L 387.500546 46.415705 
L 387.500546 42.902675 
L 387.943395 42.902675 
L 387.943395 39.389645 
L 388.092772 39.389645 
L 388.092772 35.876616 
L 389.633314 35.876616 
L 389.694077 28.850556 
L 391.813339 28.850556 
L 391.813339 25.337527 
L 393.034407 25.337527 
L 393.034407 21.824497 
L 394.427889 21.824497 
L 394.427889 18.311467 
L 395.442567 18.311467 
L 395.442567 14.798437 
L 395.442567 14.798437 
L 426.4825 14.798437 
L 426.4825 14.798437 
" style="fill:none;stroke:#f5deb3;stroke-linecap:square;stroke-width:1.5;"/>
   </g>
   <g id="line2d_29"/>
   <g id="line2d_30"/>
   <g id="matplotlib.axis_1">
    <g id="xtick_1">
     <g id="line2d_31">
      <path clip-path="url(#pae01dd7375)" d="M 161.72185 278.275665 
L 161.72185 12.163665 
" style="fill:none;stroke:#b0b0b0;stroke-linecap:square;stroke-width:0.8;"/>
     </g>
     <g id="line2d_32">
      <defs>
       <path d="M 0 0 
L 0 3.5 
" id="mb3f15cffcc" style="stroke:#000000;stroke-width:0.8;"/>
      </defs>
      <g>
       <use style="stroke:#000000;stroke-width:0.8;" x="161.72185" xlink:href="#mb3f15cffcc" y="278.275665"/>
      </g>
     </g>
     <g id="text_1">
      <!-- 1 -->
      <defs>
       <path d="M 12.40625 8.296875 
L 28.515625 8.296875 
L 28.515625 63.921875 
L 10.984375 60.40625 
L 10.984375 69.390625 
L 28.421875 72.90625 
L 38.28125 72.90625 
L 38.28125 8.296875 
L 54.390625 8.296875 
L 54.390625 0 
L 12.40625 0 
z
" id="DejaVuSans-31"/>
      </defs>
      <g transform="translate(155.35935 300.47254)scale(0.2 -0.2)">
       <use xlink:href="#DejaVuSans-31"/>
      </g>
     </g>
    </g>
    <g id="xtick_2">
     <g id="line2d_33">
      <path clip-path="url(#pae01dd7375)" d="M 254.0812 278.275665 
L 254.0812 12.163665 
" style="fill:none;stroke:#b0b0b0;stroke-linecap:square;stroke-width:0.8;"/>
     </g>
     <g id="line2d_34">
      <g>
       <use style="stroke:#000000;stroke-width:0.8;" x="254.0812" xlink:href="#mb3f15cffcc" y="278.275665"/>
      </g>
     </g>
     <g id="text_2">
      <!-- 2 -->
      <defs>
       <path d="M 19.1875 8.296875 
L 53.609375 8.296875 
L 53.609375 0 
L 7.328125 0 
L 7.328125 8.296875 
Q 12.9375 14.109375 22.625 23.890625 
Q 32.328125 33.6875 34.8125 36.53125 
Q 39.546875 41.84375 41.421875 45.53125 
Q 43.3125 49.21875 43.3125 52.78125 
Q 43.3125 58.59375 39.234375 62.25 
Q 35.15625 65.921875 28.609375 65.921875 
Q 23.96875 65.921875 18.8125 64.3125 
Q 13.671875 62.703125 7.8125 59.421875 
L 7.8125 69.390625 
Q 13.765625 71.78125 18.9375 73 
Q 24.125 74.21875 28.421875 74.21875 
Q 39.75 74.21875 46.484375 68.546875 
Q 53.21875 62.890625 53.21875 53.421875 
Q 53.21875 48.921875 51.53125 44.890625 
Q 49.859375 40.875 45.40625 35.40625 
Q 44.1875 33.984375 37.640625 27.21875 
Q 31.109375 20.453125 19.1875 8.296875 
" id="DejaVuSans-32"/>
      </defs>
      <g transform="translate(247.7187 300.47254)scale(0.2 -0.2)">
       <use xlink:href="#DejaVuSans-32"/>
      </g>
     </g>
    </g>
    <g id="xtick_3">
     <g id="line2d_35">
      <path clip-path="url(#pae01dd7375)" d="M 346.440551 278.275665 
L 346.440551 12.163665 
" style="fill:none;stroke:#b0b0b0;stroke-linecap:square;stroke-width:0.8;"/>
     </g>
     <g id="line2d_36">
      <g>
       <use style="stroke:#000000;stroke-width:0.8;" x="346.440551" xlink:href="#mb3f15cffcc" y="278.275665"/>
      </g>
     </g>
     <g id="text_3">
      <!-- 3 -->
      <defs>
       <path d="M 40.578125 39.3125 
Q 47.65625 37.796875 51.625 33 
Q 55.609375 28.21875 55.609375 21.1875 
Q 55.609375 10.40625 48.1875 4.484375 
Q 40.765625 -1.421875 27.09375 -1.421875 
Q 22.515625 -1.421875 17.65625 -0.515625 
Q 12.796875 0.390625 7.625 2.203125 
L 7.625 11.71875 
Q 11.71875 9.328125 16.59375 8.109375 
Q 21.484375 6.890625 26.8125 6.890625 
Q 36.078125 6.890625 40.9375 10.546875 
Q 45.796875 14.203125 45.796875 21.1875 
Q 45.796875 27.640625 41.28125 31.265625 
Q 36.765625 34.90625 28.71875 34.90625 
L 20.21875 34.90625 
L 20.21875 43.015625 
L 29.109375 43.015625 
Q 36.375 43.015625 40.234375 45.921875 
Q 44.09375 48.828125 44.09375 54.296875 
Q 44.09375 59.90625 40.109375 62.90625 
Q 36.140625 65.921875 28.71875 65.921875 
Q 24.65625 65.921875 20.015625 65.03125 
Q 15.375 64.15625 9.8125 62.3125 
L 9.8125 71.09375 
Q 15.4375 72.65625 20.34375 73.4375 
Q 25.25 74.21875 29.59375 74.21875 
Q 40.828125 74.21875 47.359375 69.109375 
Q 53.90625 64.015625 53.90625 55.328125 
Q 53.90625 49.265625 50.4375 45.09375 
Q 46.96875 40.921875 40.578125 39.3125 
" id="DejaVuSans-33"/>
      </defs>
      <g transform="translate(340.078051 300.47254)scale(0.2 -0.2)">
       <use xlink:href="#DejaVuSans-33"/>
      </g>
     </g>
    </g>
    <g id="xtick_4">
     <g id="line2d_37">
      <defs>
       <path d="M 0 0 
L 0 2 
" id="md36d5efb6f" style="stroke:#000000;stroke-width:0.6;"/>
      </defs>
      <g>
       <use style="stroke:#000000;stroke-width:0.6;" x="97.165435" xlink:href="#md36d5efb6f" y="278.275665"/>
      </g>
     </g>
    </g>
    <g id="xtick_5">
     <g id="line2d_38">
      <g>
       <use style="stroke:#000000;stroke-width:0.6;" x="113.429109" xlink:href="#md36d5efb6f" y="278.275665"/>
      </g>
     </g>
    </g>
    <g id="xtick_6">
     <g id="line2d_39">
      <g>
       <use style="stroke:#000000;stroke-width:0.6;" x="124.96837" xlink:href="#md36d5efb6f" y="278.275665"/>
      </g>
     </g>
    </g>
    <g id="xtick_7">
     <g id="line2d_40">
      <g>
       <use style="stroke:#000000;stroke-width:0.6;" x="133.918915" xlink:href="#md36d5efb6f" y="278.275665"/>
      </g>
     </g>
    </g>
    <g id="xtick_8">
     <g id="line2d_41">
      <g>
       <use style="stroke:#000000;stroke-width:0.6;" x="141.232044" xlink:href="#md36d5efb6f" y="278.275665"/>
      </g>
     </g>
    </g>
    <g id="xtick_9">
     <g id="line2d_42">
      <g>
       <use style="stroke:#000000;stroke-width:0.6;" x="147.415206" xlink:href="#md36d5efb6f" y="278.275665"/>
      </g>
     </g>
    </g>
    <g id="xtick_10">
     <g id="line2d_43">
      <g>
       <use style="stroke:#000000;stroke-width:0.6;" x="152.771304" xlink:href="#md36d5efb6f" y="278.275665"/>
      </g>
     </g>
    </g>
    <g id="xtick_11">
     <g id="line2d_44">
      <g>
       <use style="stroke:#000000;stroke-width:0.6;" x="157.495718" xlink:href="#md36d5efb6f" y="278.275665"/>
      </g>
     </g>
    </g>
    <g id="xtick_12">
     <g id="line2d_45">
      <g>
       <use style="stroke:#000000;stroke-width:0.6;" x="189.524785" xlink:href="#md36d5efb6f" y="278.275665"/>
      </g>
     </g>
    </g>
    <g id="xtick_13">
     <g id="line2d_46">
      <g>
       <use style="stroke:#000000;stroke-width:0.6;" x="205.788459" xlink:href="#md36d5efb6f" y="278.275665"/>
      </g>
     </g>
    </g>
    <g id="xtick_14">
     <g id="line2d_47">
      <g>
       <use style="stroke:#000000;stroke-width:0.6;" x="217.32772" xlink:href="#md36d5efb6f" y="278.275665"/>
      </g>
     </g>
    </g>
    <g id="xtick_15">
     <g id="line2d_48">
      <g>
       <use style="stroke:#000000;stroke-width:0.6;" x="226.278266" xlink:href="#md36d5efb6f" y="278.275665"/>
      </g>
     </g>
    </g>
    <g id="xtick_16">
     <g id="line2d_49">
      <g>
       <use style="stroke:#000000;stroke-width:0.6;" x="233.591394" xlink:href="#md36d5efb6f" y="278.275665"/>
      </g>
     </g>
    </g>
    <g id="xtick_17">
     <g id="line2d_50">
      <g>
       <use style="stroke:#000000;stroke-width:0.6;" x="239.774556" xlink:href="#md36d5efb6f" y="278.275665"/>
      </g>
     </g>
    </g>
    <g id="xtick_18">
     <g id="line2d_51">
      <g>
       <use style="stroke:#000000;stroke-width:0.6;" x="245.130655" xlink:href="#md36d5efb6f" y="278.275665"/>
      </g>
     </g>
    </g>
    <g id="xtick_19">
     <g id="line2d_52">
      <g>
       <use style="stroke:#000000;stroke-width:0.6;" x="249.855068" xlink:href="#md36d5efb6f" y="278.275665"/>
      </g>
     </g>
    </g>
    <g id="xtick_20">
     <g id="line2d_53">
      <g>
       <use style="stroke:#000000;stroke-width:0.6;" x="281.884135" xlink:href="#md36d5efb6f" y="278.275665"/>
      </g>
     </g>
    </g>
    <g id="xtick_21">
     <g id="line2d_54">
      <g>
       <use style="stroke:#000000;stroke-width:0.6;" x="298.147809" xlink:href="#md36d5efb6f" y="278.275665"/>
      </g>
     </g>
    </g>
    <g id="xtick_22">
     <g id="line2d_55">
      <g>
       <use style="stroke:#000000;stroke-width:0.6;" x="309.68707" xlink:href="#md36d5efb6f" y="278.275665"/>
      </g>
     </g>
    </g>
    <g id="xtick_23">
     <g id="line2d_56">
      <g>
       <use style="stroke:#000000;stroke-width:0.6;" x="318.637616" xlink:href="#md36d5efb6f" y="278.275665"/>
      </g>
     </g>
    </g>
    <g id="xtick_24">
     <g id="line2d_57">
      <g>
       <use style="stroke:#000000;stroke-width:0.6;" x="325.950744" xlink:href="#md36d5efb6f" y="278.275665"/>
      </g>
     </g>
    </g>
    <g id="xtick_25">
     <g id="line2d_58">
      <g>
       <use style="stroke:#000000;stroke-width:0.6;" x="332.133906" xlink:href="#md36d5efb6f" y="278.275665"/>
      </g>
     </g>
    </g>
    <g id="xtick_26">
     <g id="line2d_59">
      <g>
       <use style="stroke:#000000;stroke-width:0.6;" x="337.490005" xlink:href="#md36d5efb6f" y="278.275665"/>
      </g>
     </g>
    </g>
    <g id="xtick_27">
     <g id="line2d_60">
      <g>
       <use style="stroke:#000000;stroke-width:0.6;" x="342.214418" xlink:href="#md36d5efb6f" y="278.275665"/>
      </g>
     </g>
    </g>
    <g id="xtick_28">
     <g id="line2d_61">
      <g>
       <use style="stroke:#000000;stroke-width:0.6;" x="374.243485" xlink:href="#md36d5efb6f" y="278.275665"/>
      </g>
     </g>
    </g>
    <g id="xtick_29">
     <g id="line2d_62">
      <g>
       <use style="stroke:#000000;stroke-width:0.6;" x="390.50716" xlink:href="#md36d5efb6f" y="278.275665"/>
      </g>
     </g>
    </g>
    <g id="xtick_30">
     <g id="line2d_63">
      <g>
       <use style="stroke:#000000;stroke-width:0.6;" x="402.04642" xlink:href="#md36d5efb6f" y="278.275665"/>
      </g>
     </g>
    </g>
    <g id="xtick_31">
     <g id="line2d_64">
      <g>
       <use style="stroke:#000000;stroke-width:0.6;" x="410.996966" xlink:href="#md36d5efb6f" y="278.275665"/>
      </g>
     </g>
    </g>
    <g id="xtick_32">
     <g id="line2d_65">
      <g>
       <use style="stroke:#000000;stroke-width:0.6;" x="418.310094" xlink:href="#md36d5efb6f" y="278.275665"/>
      </g>
     </g>
    </g>
    <g id="xtick_33">
     <g id="line2d_66">
      <g>
       <use style="stroke:#000000;stroke-width:0.6;" x="424.493256" xlink:href="#md36d5efb6f" y="278.275665"/>
      </g>
     </g>
    </g>
    <g id="text_4">
     <!-- log10 of FEvals / DIM -->
     <defs>
      <path d="M 9.421875 75.984375 
L 18.40625 75.984375 
L 18.40625 0 
L 9.421875 0 
z
" id="DejaVuSans-6c"/>
      <path d="M 30.609375 48.390625 
Q 23.390625 48.390625 19.1875 42.75 
Q 14.984375 37.109375 14.984375 27.296875 
Q 14.984375 17.484375 19.15625 11.84375 
Q 23.34375 6.203125 30.609375 6.203125 
Q 37.796875 6.203125 41.984375 11.859375 
Q 46.1875 17.53125 46.1875 27.296875 
Q 46.1875 37.015625 41.984375 42.703125 
Q 37.796875 48.390625 30.609375 48.390625 
M 30.609375 56 
Q 42.328125 56 49.015625 48.375 
Q 55.71875 40.765625 55.71875 27.296875 
Q 55.71875 13.875 49.015625 6.21875 
Q 42.328125 -1.421875 30.609375 -1.421875 
Q 18.84375 -1.421875 12.171875 6.21875 
Q 5.515625 13.875 5.515625 27.296875 
Q 5.515625 40.765625 12.171875 48.375 
Q 18.84375 56 30.609375 56 
" id="DejaVuSans-6f"/>
      <path d="M 45.40625 27.984375 
Q 45.40625 37.75 41.375 43.109375 
Q 37.359375 48.484375 30.078125 48.484375 
Q 22.859375 48.484375 18.828125 43.109375 
Q 14.796875 37.75 14.796875 27.984375 
Q 14.796875 18.265625 18.828125 12.890625 
Q 22.859375 7.515625 30.078125 7.515625 
Q 37.359375 7.515625 41.375 12.890625 
Q 45.40625 18.265625 45.40625 27.984375 
M 54.390625 6.78125 
Q 54.390625 -7.171875 48.1875 -13.984375 
Q 42 -20.796875 29.203125 -20.796875 
Q 24.46875 -20.796875 20.265625 -20.09375 
Q 16.0625 -19.390625 12.109375 -17.921875 
L 12.109375 -9.1875 
Q 16.0625 -11.328125 19.921875 -12.34375 
Q 23.78125 -13.375 27.78125 -13.375 
Q 36.625 -13.375 41.015625 -8.765625 
Q 45.40625 -4.15625 45.40625 5.171875 
L 45.40625 9.625 
Q 42.625 4.78125 38.28125 2.390625 
Q 33.9375 0 27.875 0 
Q 17.828125 0 11.671875 7.65625 
Q 5.515625 15.328125 5.515625 27.984375 
Q 5.515625 40.671875 11.671875 48.328125 
Q 17.828125 56 27.875 56 
Q 33.9375 56 38.28125 53.609375 
Q 42.625 51.21875 45.40625 46.390625 
L 45.40625 54.6875 
L 54.390625 54.6875 
z
" id="DejaVuSans-67"/>
      <path d="M 31.78125 66.40625 
Q 24.171875 66.40625 20.328125 58.90625 
Q 16.5 51.421875 16.5 36.375 
Q 16.5 21.390625 20.328125 13.890625 
Q 24.171875 6.390625 31.78125 6.390625 
Q 39.453125 6.390625 43.28125 13.890625 
Q 47.125 21.390625 47.125 36.375 
Q 47.125 51.421875 43.28125 58.90625 
Q 39.453125 66.40625 31.78125 66.40625 
M 31.78125 74.21875 
Q 44.046875 74.21875 50.515625 64.515625 
Q 56.984375 54.828125 56.984375 36.375 
Q 56.984375 17.96875 50.515625 8.265625 
Q 44.046875 -1.421875 31.78125 -1.421875 
Q 19.53125 -1.421875 13.0625 8.265625 
Q 6.59375 17.96875 6.59375 36.375 
Q 6.59375 54.828125 13.0625 64.515625 
Q 19.53125 74.21875 31.78125 74.21875 
" id="DejaVuSans-30"/>
      <path id="DejaVuSans-20"/>
      <path d="M 37.109375 75.984375 
L 37.109375 68.5 
L 28.515625 68.5 
Q 23.6875 68.5 21.796875 66.546875 
Q 19.921875 64.59375 19.921875 59.515625 
L 19.921875 54.6875 
L 34.71875 54.6875 
L 34.71875 47.703125 
L 19.921875 47.703125 
L 19.921875 0 
L 10.890625 0 
L 10.890625 47.703125 
L 2.296875 47.703125 
L 2.296875 54.6875 
L 10.890625 54.6875 
L 10.890625 58.5 
Q 10.890625 67.625 15.140625 71.796875 
Q 19.390625 75.984375 28.609375 75.984375 
z
" id="DejaVuSans-66"/>
      <path d="M 9.8125 72.90625 
L 51.703125 72.90625 
L 51.703125 64.59375 
L 19.671875 64.59375 
L 19.671875 43.109375 
L 48.578125 43.109375 
L 48.578125 34.8125 
L 19.671875 34.8125 
L 19.671875 0 
L 9.8125 0 
z
" id="DejaVuSans-46"/>
      <path d="M 9.8125 72.90625 
L 55.90625 72.90625 
L 55.90625 64.59375 
L 19.671875 64.59375 
L 19.671875 43.015625 
L 54.390625 43.015625 
L 54.390625 34.71875 
L 19.671875 34.71875 
L 19.671875 8.296875 
L 56.78125 8.296875 
L 56.78125 0 
L 9.8125 0 
z
" id="DejaVuSans-45"/>
      <path d="M 2.984375 54.6875 
L 12.5 54.6875 
L 29.59375 8.796875 
L 46.6875 54.6875 
L 56.203125 54.6875 
L 35.6875 0 
L 23.484375 0 
z
" id="DejaVuSans-76"/>
      <path d="M 34.28125 27.484375 
Q 23.390625 27.484375 19.1875 25 
Q 14.984375 22.515625 14.984375 16.5 
Q 14.984375 11.71875 18.140625 8.90625 
Q 21.296875 6.109375 26.703125 6.109375 
Q 34.1875 6.109375 38.703125 11.40625 
Q 43.21875 16.703125 43.21875 25.484375 
L 43.21875 27.484375 
z
M 52.203125 31.203125 
L 52.203125 0 
L 43.21875 0 
L 43.21875 8.296875 
Q 40.140625 3.328125 35.546875 0.953125 
Q 30.953125 -1.421875 24.3125 -1.421875 
Q 15.921875 -1.421875 10.953125 3.296875 
Q 6 8.015625 6 15.921875 
Q 6 25.140625 12.171875 29.828125 
Q 18.359375 34.515625 30.609375 34.515625 
L 43.21875 34.515625 
L 43.21875 35.40625 
Q 43.21875 41.609375 39.140625 45 
Q 35.0625 48.390625 27.6875 48.390625 
Q 23 48.390625 18.546875 47.265625 
Q 14.109375 46.140625 10.015625 43.890625 
L 10.015625 52.203125 
Q 14.9375 54.109375 19.578125 55.046875 
Q 24.21875 56 28.609375 56 
Q 40.484375 56 46.34375 49.84375 
Q 52.203125 43.703125 52.203125 31.203125 
" id="DejaVuSans-61"/>
      <path d="M 44.28125 53.078125 
L 44.28125 44.578125 
Q 40.484375 46.53125 36.375 47.5 
Q 32.28125 48.484375 27.875 48.484375 
Q 21.1875 48.484375 17.84375 46.4375 
Q 14.5 44.390625 14.5 40.28125 
Q 14.5 37.15625 16.890625 35.375 
Q 19.28125 33.59375 26.515625 31.984375 
L 29.59375 31.296875 
Q 39.15625 29.25 43.1875 25.515625 
Q 47.21875 21.78125 47.21875 15.09375 
Q 47.21875 7.46875 41.1875 3.015625 
Q 35.15625 -1.421875 24.609375 -1.421875 
Q 20.21875 -1.421875 15.453125 -0.5625 
Q 10.6875 0.296875 5.421875 2 
L 5.421875 11.28125 
Q 10.40625 8.6875 15.234375 7.390625 
Q 20.0625 6.109375 24.8125 6.109375 
Q 31.15625 6.109375 34.5625 8.28125 
Q 37.984375 10.453125 37.984375 14.40625 
Q 37.984375 18.0625 35.515625 20.015625 
Q 33.0625 21.96875 24.703125 23.78125 
L 21.578125 24.515625 
Q 13.234375 26.265625 9.515625 29.90625 
Q 5.8125 33.546875 5.8125 39.890625 
Q 5.8125 47.609375 11.28125 51.796875 
Q 16.75 56 26.8125 56 
Q 31.78125 56 36.171875 55.265625 
Q 40.578125 54.546875 44.28125 53.078125 
" id="DejaVuSans-73"/>
      <path d="M 25.390625 72.90625 
L 33.6875 72.90625 
L 8.296875 -9.28125 
L 0 -9.28125 
z
" id="DejaVuSans-2f"/>
      <path d="M 19.671875 64.796875 
L 19.671875 8.109375 
L 31.59375 8.109375 
Q 46.6875 8.109375 53.6875 14.9375 
Q 60.6875 21.78125 60.6875 36.53125 
Q 60.6875 51.171875 53.6875 57.984375 
Q 46.6875 64.796875 31.59375 64.796875 
z
M 9.8125 72.90625 
L 30.078125 72.90625 
Q 51.265625 72.90625 61.171875 64.09375 
Q 71.09375 55.28125 71.09375 36.53125 
Q 71.09375 17.671875 61.125 8.828125 
Q 51.171875 0 30.078125 0 
L 9.8125 0 
z
" id="DejaVuSans-44"/>
      <path d="M 9.8125 72.90625 
L 19.671875 72.90625 
L 19.671875 0 
L 9.8125 0 
z
" id="DejaVuSans-49"/>
      <path d="M 9.8125 72.90625 
L 24.515625 72.90625 
L 43.109375 23.296875 
L 61.8125 72.90625 
L 76.515625 72.90625 
L 76.515625 0 
L 66.890625 0 
L 66.890625 64.015625 
L 48.09375 14.015625 
L 38.1875 14.015625 
L 19.390625 64.015625 
L 19.390625 0 
L 9.8125 0 
z
" id="DejaVuSans-4d"/>
     </defs>
     <g transform="translate(142.849063 323.82879)scale(0.2 -0.2)">
      <use xlink:href="#DejaVuSans-6c"/>
      <use x="27.783203" xlink:href="#DejaVuSans-6f"/>
      <use x="88.964844" xlink:href="#DejaVuSans-67"/>
      <use x="152.441406" xlink:href="#DejaVuSans-31"/>
      <use x="216.064453" xlink:href="#DejaVuSans-30"/>
      <use x="279.6875" xlink:href="#DejaVuSans-20"/>
      <use x="311.474609" xlink:href="#DejaVuSans-6f"/>
      <use x="372.65625" xlink:href="#DejaVuSans-66"/>
      <use x="407.861328" xlink:href="#DejaVuSans-20"/>
      <use x="439.648438" xlink:href="#DejaVuSans-46"/>
      <use x="497.167969" xlink:href="#DejaVuSans-45"/>
      <use x="560.351562" xlink:href="#DejaVuSans-76"/>
      <use x="619.53125" xlink:href="#DejaVuSans-61"/>
      <use x="680.810547" xlink:href="#DejaVuSans-6c"/>
      <use x="708.59375" xlink:href="#DejaVuSans-73"/>
      <use x="760.693359" xlink:href="#DejaVuSans-20"/>
      <use x="792.480469" xlink:href="#DejaVuSans-2f"/>
      <use x="826.171875" xlink:href="#DejaVuSans-20"/>
      <use x="857.958984" xlink:href="#DejaVuSans-44"/>
      <use x="934.960938" xlink:href="#DejaVuSans-49"/>
      <use x="964.453125" xlink:href="#DejaVuSans-4d"/>
     </g>
    </g>
   </g>
   <g id="matplotlib.axis_2">
    <g id="ytick_1">
     <g id="line2d_67">
      <path clip-path="url(#pae01dd7375)" d="M 69.3625 278.275665 
L 426.4825 278.275665 
" style="fill:none;stroke:#b0b0b0;stroke-linecap:square;stroke-width:0.8;"/>
     </g>
     <g id="line2d_68">
      <defs>
       <path d="M 0 0 
L -3.5 0 
" id="m0f18d6be17" style="stroke:#000000;stroke-width:0.8;"/>
      </defs>
      <g>
       <use style="stroke:#000000;stroke-width:0.8;" x="69.3625" xlink:href="#m0f18d6be17" y="278.275665"/>
      </g>
     </g>
     <g id="text_5">
      <!-- 0.0 -->
      <defs>
       <path d="M 10.6875 12.40625 
L 21 12.40625 
L 21 0 
L 10.6875 0 
z
" id="DejaVuSans-2e"/>
      </defs>
      <g transform="translate(30.55625 285.874103)scale(0.2 -0.2)">
       <use xlink:href="#DejaVuSans-30"/>
       <use x="63.623047" xlink:href="#DejaVuSans-2e"/>
       <use x="95.410156" xlink:href="#DejaVuSans-30"/>
      </g>
     </g>
    </g>
    <g id="ytick_2">
     <g id="line2d_69">
      <path clip-path="url(#pae01dd7375)" d="M 69.3625 225.58022 
L 426.4825 225.58022 
" style="fill:none;stroke:#b0b0b0;stroke-linecap:square;stroke-width:0.8;"/>
     </g>
     <g id="line2d_70">
      <g>
       <use style="stroke:#000000;stroke-width:0.8;" x="69.3625" xlink:href="#m0f18d6be17" y="225.58022"/>
      </g>
     </g>
     <g id="text_6">
      <!-- 0.2 -->
      <g transform="translate(30.55625 233.178657)scale(0.2 -0.2)">
       <use xlink:href="#DejaVuSans-30"/>
       <use x="63.623047" xlink:href="#DejaVuSans-2e"/>
       <use x="95.410156" xlink:href="#DejaVuSans-32"/>
      </g>
     </g>
    </g>
    <g id="ytick_3">
     <g id="line2d_71">
      <path clip-path="url(#pae01dd7375)" d="M 69.3625 172.884774 
L 426.4825 172.884774 
" style="fill:none;stroke:#b0b0b0;stroke-linecap:square;stroke-width:0.8;"/>
     </g>
     <g id="line2d_72">
      <g>
       <use style="stroke:#000000;stroke-width:0.8;" x="69.3625" xlink:href="#m0f18d6be17" y="172.884774"/>
      </g>
     </g>
     <g id="text_7">
      <!-- 0.4 -->
      <defs>
       <path d="M 37.796875 64.3125 
L 12.890625 25.390625 
L 37.796875 25.390625 
z
M 35.203125 72.90625 
L 47.609375 72.90625 
L 47.609375 25.390625 
L 58.015625 25.390625 
L 58.015625 17.1875 
L 47.609375 17.1875 
L 47.609375 0 
L 37.796875 0 
L 37.796875 17.1875 
L 4.890625 17.1875 
L 4.890625 26.703125 
z
" id="DejaVuSans-34"/>
      </defs>
      <g transform="translate(30.55625 180.483212)scale(0.2 -0.2)">
       <use xlink:href="#DejaVuSans-30"/>
       <use x="63.623047" xlink:href="#DejaVuSans-2e"/>
       <use x="95.410156" xlink:href="#DejaVuSans-34"/>
      </g>
     </g>
    </g>
    <g id="ytick_4">
     <g id="line2d_73">
      <path clip-path="url(#pae01dd7375)" d="M 69.3625 120.189329 
L 426.4825 120.189329 
" style="fill:none;stroke:#b0b0b0;stroke-linecap:square;stroke-width:0.8;"/>
     </g>
     <g id="line2d_74">
      <g>
       <use style="stroke:#000000;stroke-width:0.8;" x="69.3625" xlink:href="#m0f18d6be17" y="120.189329"/>
      </g>
     </g>
     <g id="text_8">
      <!-- 0.6 -->
      <defs>
       <path d="M 33.015625 40.375 
Q 26.375 40.375 22.484375 35.828125 
Q 18.609375 31.296875 18.609375 23.390625 
Q 18.609375 15.53125 22.484375 10.953125 
Q 26.375 6.390625 33.015625 6.390625 
Q 39.65625 6.390625 43.53125 10.953125 
Q 47.40625 15.53125 47.40625 23.390625 
Q 47.40625 31.296875 43.53125 35.828125 
Q 39.65625 40.375 33.015625 40.375 
M 52.59375 71.296875 
L 52.59375 62.3125 
Q 48.875 64.0625 45.09375 64.984375 
Q 41.3125 65.921875 37.59375 65.921875 
Q 27.828125 65.921875 22.671875 59.328125 
Q 17.53125 52.734375 16.796875 39.40625 
Q 19.671875 43.65625 24.015625 45.921875 
Q 28.375 48.1875 33.59375 48.1875 
Q 44.578125 48.1875 50.953125 41.515625 
Q 57.328125 34.859375 57.328125 23.390625 
Q 57.328125 12.15625 50.6875 5.359375 
Q 44.046875 -1.421875 33.015625 -1.421875 
Q 20.359375 -1.421875 13.671875 8.265625 
Q 6.984375 17.96875 6.984375 36.375 
Q 6.984375 53.65625 15.1875 63.9375 
Q 23.390625 74.21875 37.203125 74.21875 
Q 40.921875 74.21875 44.703125 73.484375 
Q 48.484375 72.75 52.59375 71.296875 
" id="DejaVuSans-36"/>
      </defs>
      <g transform="translate(30.55625 127.787766)scale(0.2 -0.2)">
       <use xlink:href="#DejaVuSans-30"/>
       <use x="63.623047" xlink:href="#DejaVuSans-2e"/>
       <use x="95.410156" xlink:href="#DejaVuSans-36"/>
      </g>
     </g>
    </g>
    <g id="ytick_5">
     <g id="line2d_75">
      <path clip-path="url(#pae01dd7375)" d="M 69.3625 67.493883 
L 426.4825 67.493883 
" style="fill:none;stroke:#b0b0b0;stroke-linecap:square;stroke-width:0.8;"/>
     </g>
     <g id="line2d_76">
      <g>
       <use style="stroke:#000000;stroke-width:0.8;" x="69.3625" xlink:href="#m0f18d6be17" y="67.493883"/>
      </g>
     </g>
     <g id="text_9">
      <!-- 0.8 -->
      <defs>
       <path d="M 31.78125 34.625 
Q 24.75 34.625 20.71875 30.859375 
Q 16.703125 27.09375 16.703125 20.515625 
Q 16.703125 13.921875 20.71875 10.15625 
Q 24.75 6.390625 31.78125 6.390625 
Q 38.8125 6.390625 42.859375 10.171875 
Q 46.921875 13.96875 46.921875 20.515625 
Q 46.921875 27.09375 42.890625 30.859375 
Q 38.875 34.625 31.78125 34.625 
M 21.921875 38.8125 
Q 15.578125 40.375 12.03125 44.71875 
Q 8.5 49.078125 8.5 55.328125 
Q 8.5 64.0625 14.71875 69.140625 
Q 20.953125 74.21875 31.78125 74.21875 
Q 42.671875 74.21875 48.875 69.140625 
Q 55.078125 64.0625 55.078125 55.328125 
Q 55.078125 49.078125 51.53125 44.71875 
Q 48 40.375 41.703125 38.8125 
Q 48.828125 37.15625 52.796875 32.3125 
Q 56.78125 27.484375 56.78125 20.515625 
Q 56.78125 9.90625 50.3125 4.234375 
Q 43.84375 -1.421875 31.78125 -1.421875 
Q 19.734375 -1.421875 13.25 4.234375 
Q 6.78125 9.90625 6.78125 20.515625 
Q 6.78125 27.484375 10.78125 32.3125 
Q 14.796875 37.15625 21.921875 38.8125 
M 18.3125 54.390625 
Q 18.3125 48.734375 21.84375 45.5625 
Q 25.390625 42.390625 31.78125 42.390625 
Q 38.140625 42.390625 41.71875 45.5625 
Q 45.3125 48.734375 45.3125 54.390625 
Q 45.3125 60.0625 41.71875 63.234375 
Q 38.140625 66.40625 31.78125 66.40625 
Q 25.390625 66.40625 21.84375 63.234375 
Q 18.3125 60.0625 18.3125 54.390625 
" id="DejaVuSans-38"/>
      </defs>
      <g transform="translate(30.55625 75.092321)scale(0.2 -0.2)">
       <use xlink:href="#DejaVuSans-30"/>
       <use x="63.623047" xlink:href="#DejaVuSans-2e"/>
       <use x="95.410156" xlink:href="#DejaVuSans-38"/>
      </g>
     </g>
    </g>
    <g id="ytick_6">
     <g id="line2d_77">
      <path clip-path="url(#pae01dd7375)" d="M 69.3625 14.798437 
L 426.4825 14.798437 
" style="fill:none;stroke:#b0b0b0;stroke-linecap:square;stroke-width:0.8;"/>
     </g>
     <g id="line2d_78">
      <g>
       <use style="stroke:#000000;stroke-width:0.8;" x="69.3625" xlink:href="#m0f18d6be17" y="14.798437"/>
      </g>
     </g>
     <g id="text_10">
      <!-- 1.0 -->
      <g transform="translate(30.55625 22.396875)scale(0.2 -0.2)">
       <use xlink:href="#DejaVuSans-31"/>
       <use x="63.623047" xlink:href="#DejaVuSans-2e"/>
       <use x="95.410156" xlink:href="#DejaVuSans-30"/>
      </g>
     </g>
    </g>
    <g id="text_11">
     <!-- proportion of trials -->
     <defs>
      <path d="M 18.109375 8.203125 
L 18.109375 -20.796875 
L 9.078125 -20.796875 
L 9.078125 54.6875 
L 18.109375 54.6875 
L 18.109375 46.390625 
Q 20.953125 51.265625 25.265625 53.625 
Q 29.59375 56 35.59375 56 
Q 45.5625 56 51.78125 48.09375 
Q 58.015625 40.1875 58.015625 27.296875 
Q 58.015625 14.40625 51.78125 6.484375 
Q 45.5625 -1.421875 35.59375 -1.421875 
Q 29.59375 -1.421875 25.265625 0.953125 
Q 20.953125 3.328125 18.109375 8.203125 
M 48.6875 27.296875 
Q 48.6875 37.203125 44.609375 42.84375 
Q 40.53125 48.484375 33.40625 48.484375 
Q 26.265625 48.484375 22.1875 42.84375 
Q 18.109375 37.203125 18.109375 27.296875 
Q 18.109375 17.390625 22.1875 11.75 
Q 26.265625 6.109375 33.40625 6.109375 
Q 40.53125 6.109375 44.609375 11.75 
Q 48.6875 17.390625 48.6875 27.296875 
" id="DejaVuSans-70"/>
      <path d="M 41.109375 46.296875 
Q 39.59375 47.171875 37.8125 47.578125 
Q 36.03125 48 33.890625 48 
Q 26.265625 48 22.1875 43.046875 
Q 18.109375 38.09375 18.109375 28.8125 
L 18.109375 0 
L 9.078125 0 
L 9.078125 54.6875 
L 18.109375 54.6875 
L 18.109375 46.1875 
Q 20.953125 51.171875 25.484375 53.578125 
Q 30.03125 56 36.53125 56 
Q 37.453125 56 38.578125 55.875 
Q 39.703125 55.765625 41.0625 55.515625 
z
" id="DejaVuSans-72"/>
      <path d="M 18.3125 70.21875 
L 18.3125 54.6875 
L 36.8125 54.6875 
L 36.8125 47.703125 
L 18.3125 47.703125 
L 18.3125 18.015625 
Q 18.3125 11.328125 20.140625 9.421875 
Q 21.96875 7.515625 27.59375 7.515625 
L 36.8125 7.515625 
L 36.8125 0 
L 27.59375 0 
Q 17.1875 0 13.234375 3.875 
Q 9.28125 7.765625 9.28125 18.015625 
L 9.28125 47.703125 
L 2.6875 47.703125 
L 2.6875 54.6875 
L 9.28125 54.6875 
L 9.28125 70.21875 
z
" id="DejaVuSans-74"/>
      <path d="M 9.421875 54.6875 
L 18.40625 54.6875 
L 18.40625 0 
L 9.421875 0 
z
M 9.421875 75.984375 
L 18.40625 75.984375 
L 18.40625 64.59375 
L 9.421875 64.59375 
z
" id="DejaVuSans-69"/>
      <path d="M 54.890625 33.015625 
L 54.890625 0 
L 45.90625 0 
L 45.90625 32.71875 
Q 45.90625 40.484375 42.875 44.328125 
Q 39.84375 48.1875 33.796875 48.1875 
Q 26.515625 48.1875 22.3125 43.546875 
Q 18.109375 38.921875 18.109375 30.90625 
L 18.109375 0 
L 9.078125 0 
L 9.078125 54.6875 
L 18.109375 54.6875 
L 18.109375 46.1875 
Q 21.34375 51.125 25.703125 53.5625 
Q 30.078125 56 35.796875 56 
Q 45.21875 56 50.046875 50.171875 
Q 54.890625 44.34375 54.890625 33.015625 
" id="DejaVuSans-6e"/>
     </defs>
     <g transform="translate(22.396875 238.44779)rotate(-90)scale(0.2 -0.2)">
      <use xlink:href="#DejaVuSans-70"/>
      <use x="63.476562" xlink:href="#DejaVuSans-72"/>
      <use x="104.558594" xlink:href="#DejaVuSans-6f"/>
      <use x="165.740234" xlink:href="#DejaVuSans-70"/>
      <use x="229.216797" xlink:href="#DejaVuSans-6f"/>
      <use x="290.398438" xlink:href="#DejaVuSans-72"/>
      <use x="331.511719" xlink:href="#DejaVuSans-74"/>
      <use x="370.720703" xlink:href="#DejaVuSans-69"/>
      <use x="398.503906" xlink:href="#DejaVuSans-6f"/>
      <use x="459.685547" xlink:href="#DejaVuSans-6e"/>
      <use x="523.064453" xlink:href="#DejaVuSans-20"/>
      <use x="554.851562" xlink:href="#DejaVuSans-6f"/>
      <use x="616.033203" xlink:href="#DejaVuSans-66"/>
      <use x="651.238281" xlink:href="#DejaVuSans-20"/>
      <use x="683.025391" xlink:href="#DejaVuSans-74"/>
      <use x="722.234375" xlink:href="#DejaVuSans-72"/>
      <use x="763.347656" xlink:href="#DejaVuSans-69"/>
      <use x="791.130859" xlink:href="#DejaVuSans-61"/>
      <use x="852.410156" xlink:href="#DejaVuSans-6c"/>
      <use x="880.193359" xlink:href="#DejaVuSans-73"/>
     </g>
    </g>
   </g>
   <g id="line2d_79"/>
   <g id="line2d_80"/>
   <g id="line2d_81"/>
   <g id="line2d_82"/>
   <g id="line2d_83"/>
   <g id="line2d_84"/>
   <g id="line2d_85"/>
   <g id="line2d_86"/>
   <g id="line2d_87">
    <path clip-path="url(#pae01dd7375)" d="M 409.461785 278.275665 
L 409.461785 12.163665 
" style="fill:none;stroke:#000000;stroke-linecap:square;stroke-width:1.5;"/>
    <defs>
     <path d="M -10 0 
L 10 0 
M 0 10 
L 0 -10 
" id="m2dd04d9ef5" style="stroke:#000000;stroke-width:3;"/>
    </defs>
    <g clip-path="url(#pae01dd7375)">
     <use style="stroke:#000000;stroke-width:3;" x="409.461785" xlink:href="#m2dd04d9ef5" y="278.275665"/>
     <use style="stroke:#000000;stroke-width:3;" x="409.461785" xlink:href="#m2dd04d9ef5" y="12.163665"/>
    </g>
   </g>
   <g id="line2d_88">
    <path clip-path="url(#pae01dd7375)" d="M 409.445945 278.275665 
L 409.445945 12.163665 
" style="fill:none;stroke:#000000;stroke-linecap:square;stroke-width:1.5;"/>
    <defs>
     <path d="M 0 7.5 
C 1.989023 7.5 3.896849 6.709753 5.303301 5.303301 
C 6.709753 3.896849 7.5 1.989023 7.5 0 
C 7.5 -1.989023 6.709753 -3.896849 5.303301 -5.303301 
C 3.896849 -6.709753 1.989023 -7.5 0 -7.5 
C -1.989023 -7.5 -3.896849 -6.709753 -5.303301 -5.303301 
C -6.709753 -3.896849 -7.5 -1.989023 -7.5 0 
C -7.5 1.989023 -6.709753 3.896849 -5.303301 5.303301 
C -3.896849 6.709753 -1.989023 7.5 0 7.5 
z
" id="m5c7411a148" style="stroke:#000000;stroke-width:3;"/>
    </defs>
    <g clip-path="url(#pae01dd7375)">
     <use style="fill:none;stroke:#000000;stroke-width:3;" x="409.445945" xlink:href="#m5c7411a148" y="278.275665"/>
     <use style="fill:none;stroke:#000000;stroke-width:3;" x="409.445945" xlink:href="#m5c7411a148" y="12.163665"/>
    </g>
   </g>
   <g id="patch_3">
    <path d="M 69.3625 278.275665 
L 69.3625 12.163665 
" style="fill:none;stroke:#000000;stroke-linecap:square;stroke-linejoin:miter;stroke-width:0.8;"/>
   </g>
   <g id="patch_4">
    <path d="M 426.4825 278.275665 
L 426.4825 12.163665 
" style="fill:none;stroke:#000000;stroke-linecap:square;stroke-linejoin:miter;stroke-width:0.8;"/>
   </g>
   <g id="patch_5">
    <path d="M 69.3625 278.275665 
L 426.4825 278.275665 
" style="fill:none;stroke:#000000;stroke-linecap:square;stroke-linejoin:miter;stroke-width:0.8;"/>
   </g>
   <g id="patch_6">
    <path d="M 69.3625 12.163665 
L 426.4825 12.163665 
" style="fill:none;stroke:#000000;stroke-linecap:square;stroke-linejoin:miter;stroke-width:0.8;"/>
   </g>
   <g id="text_12">
    <!-- f10-f14 -->
    <defs>
     <path d="M 4.890625 31.390625 
L 31.203125 31.390625 
L 31.203125 23.390625 
L 4.890625 23.390625 
z
" id="DejaVuSans-2d"/>
    </defs>
    <g transform="translate(211.824063 32.68278)scale(0.2 -0.2)">
     <use xlink:href="#DejaVuSans-66"/>
     <use x="35.205078" xlink:href="#DejaVuSans-31"/>
     <use x="98.828125" xlink:href="#DejaVuSans-30"/>
     <use x="162.451172" xlink:href="#DejaVuSans-2d"/>
     <use x="198.535156" xlink:href="#DejaVuSans-66"/>
     <use x="233.740234" xlink:href="#DejaVuSans-31"/>
     <use x="297.363281" xlink:href="#DejaVuSans-34"/>
    </g>
   </g>
   <g id="text_13">
    <!-- absolute targets -->
    <defs>
     <path d="M 48.6875 27.296875 
Q 48.6875 37.203125 44.609375 42.84375 
Q 40.53125 48.484375 33.40625 48.484375 
Q 26.265625 48.484375 22.1875 42.84375 
Q 18.109375 37.203125 18.109375 27.296875 
Q 18.109375 17.390625 22.1875 11.75 
Q 26.265625 6.109375 33.40625 6.109375 
Q 40.53125 6.109375 44.609375 11.75 
Q 48.6875 17.390625 48.6875 27.296875 
M 18.109375 46.390625 
Q 20.953125 51.265625 25.265625 53.625 
Q 29.59375 56 35.59375 56 
Q 45.5625 56 51.78125 48.09375 
Q 58.015625 40.1875 58.015625 27.296875 
Q 58.015625 14.40625 51.78125 6.484375 
Q 45.5625 -1.421875 35.59375 -1.421875 
Q 29.59375 -1.421875 25.265625 0.953125 
Q 20.953125 3.328125 18.109375 8.203125 
L 18.109375 0 
L 9.078125 0 
L 9.078125 75.984375 
L 18.109375 75.984375 
z
" id="DejaVuSans-62"/>
     <path d="M 8.5 21.578125 
L 8.5 54.6875 
L 17.484375 54.6875 
L 17.484375 21.921875 
Q 17.484375 14.15625 20.5 10.265625 
Q 23.53125 6.390625 29.59375 6.390625 
Q 36.859375 6.390625 41.078125 11.03125 
Q 45.3125 15.671875 45.3125 23.6875 
L 45.3125 54.6875 
L 54.296875 54.6875 
L 54.296875 0 
L 45.3125 0 
L 45.3125 8.40625 
Q 42.046875 3.421875 37.71875 1 
Q 33.40625 -1.421875 27.6875 -1.421875 
Q 18.265625 -1.421875 13.375 4.4375 
Q 8.5 10.296875 8.5 21.578125 
M 31.109375 56 
z
" id="DejaVuSans-75"/>
     <path d="M 56.203125 29.59375 
L 56.203125 25.203125 
L 14.890625 25.203125 
Q 15.484375 15.921875 20.484375 11.0625 
Q 25.484375 6.203125 34.421875 6.203125 
Q 39.59375 6.203125 44.453125 7.46875 
Q 49.3125 8.734375 54.109375 11.28125 
L 54.109375 2.78125 
Q 49.265625 0.734375 44.1875 -0.34375 
Q 39.109375 -1.421875 33.890625 -1.421875 
Q 20.796875 -1.421875 13.15625 6.1875 
Q 5.515625 13.8125 5.515625 26.8125 
Q 5.515625 40.234375 12.765625 48.109375 
Q 20.015625 56 32.328125 56 
Q 43.359375 56 49.78125 48.890625 
Q 56.203125 41.796875 56.203125 29.59375 
M 47.21875 32.234375 
Q 47.125 39.59375 43.09375 43.984375 
Q 39.0625 48.390625 32.421875 48.390625 
Q 24.90625 48.390625 20.390625 44.140625 
Q 15.875 39.890625 15.1875 32.171875 
z
" id="DejaVuSans-65"/>
    </defs>
    <g transform="translate(69.3625 291.449527)scale(0.14 -0.14)">
     <use xlink:href="#DejaVuSans-61"/>
     <use x="61.279297" xlink:href="#DejaVuSans-62"/>
     <use x="124.755859" xlink:href="#DejaVuSans-73"/>
     <use x="176.855469" xlink:href="#DejaVuSans-6f"/>
     <use x="238.037109" xlink:href="#DejaVuSans-6c"/>
     <use x="265.820312" xlink:href="#DejaVuSans-75"/>
     <use x="329.199219" xlink:href="#DejaVuSans-74"/>
     <use x="368.408203" xlink:href="#DejaVuSans-65"/>
     <use x="429.931641" xlink:href="#DejaVuSans-20"/>
     <use x="461.71875" xlink:href="#DejaVuSans-74"/>
     <use x="500.927734" xlink:href="#DejaVuSans-61"/>
     <use x="562.207031" xlink:href="#DejaVuSans-72"/>
     <use x="603.304688" xlink:href="#DejaVuSans-67"/>
     <use x="666.78125" xlink:href="#DejaVuSans-65"/>
     <use x="728.304688" xlink:href="#DejaVuSans-74"/>
     <use x="767.513672" xlink:href="#DejaVuSans-73"/>
    </g>
   </g>
   <g id="text_14">
    <!-- v2.1 -->
    <g style="fill:#808080;" transform="translate(237.011563 273.534858)scale(0.1 -0.1)">
     <use xlink:href="#DejaVuSans-76"/>
     <use x="59.179688" xlink:href="#DejaVuSans-32"/>
     <use x="122.802734" xlink:href="#DejaVuSans-2e"/>
     <use x="154.589844" xlink:href="#DejaVuSans-31"/>
    </g>
   </g>
   <g id="legend_1">
    <g id="patch_7">
     <path d="M 83.3625 145.588665 
L 167.303125 145.588665 
Q 171.303125 145.588665 171.303125 141.588665 
L 171.303125 26.163665 
Q 171.303125 22.163665 167.303125 22.163665 
L 83.3625 22.163665 
Q 79.3625 22.163665 79.3625 26.163665 
L 79.3625 141.588665 
Q 79.3625 145.588665 83.3625 145.588665 
z
" style="fill:#ffffff;opacity:0.2;stroke:#cccccc;stroke-linejoin:miter;"/>
    </g>
    <g id="line2d_89">
     <path d="M 87.3625 38.36054 
L 127.3625 38.36054 
" style="fill:none;stroke:#000000;stroke-linecap:square;stroke-width:1.5;"/>
    </g>
    <g id="line2d_90"/>
    <g id="text_15">
     <!-- 1 -->
     <g transform="translate(143.3625 45.36054)scale(0.2 -0.2)">
      <use xlink:href="#DejaVuSans-31"/>
     </g>
    </g>
    <g id="line2d_91">
     <path d="M 87.3625 67.71679 
L 127.3625 67.71679 
" style="fill:none;stroke:#00bfbf;stroke-linecap:square;stroke-width:1.5;"/>
    </g>
    <g id="line2d_92"/>
    <g id="text_16">
     <!-- -1 -->
     <g transform="translate(143.3625 74.71679)scale(0.2 -0.2)">
      <use xlink:href="#DejaVuSans-2d"/>
      <use x="36.083984" xlink:href="#DejaVuSans-31"/>
     </g>
    </g>
    <g id="line2d_93">
     <path d="M 87.3625 97.07304 
L 127.3625 97.07304 
" style="fill:none;stroke:#bf00bf;stroke-linecap:square;stroke-width:1.5;"/>
    </g>
    <g id="line2d_94"/>
    <g id="text_17">
     <!-- -4 -->
     <g transform="translate(143.3625 104.07304)scale(0.2 -0.2)">
      <use xlink:href="#DejaVuSans-2d"/>
      <use x="36.083984" xlink:href="#DejaVuSans-34"/>
     </g>
    </g>
    <g id="line2d_95">
     <path d="M 87.3625 126.42929 
L 127.3625 126.42929 
" style="fill:none;stroke:#ff0000;stroke-linecap:square;stroke-width:3;"/>
    </g>
    <g id="line2d_96"/>
    <g id="text_18">
     <!-- -8 -->
     <g transform="translate(143.3625 133.42929)scale(0.2 -0.2)">
      <use xlink:href="#DejaVuSans-2d"/>
      <use x="36.083984" xlink:href="#DejaVuSans-38"/>
     </g>
    </g>
   </g>
  </g>
 </g>
 <defs>
  <clipPath id="pae01dd7375">
   <rect height="266.112" width="357.12" x="69.3625" y="12.163665"/>
  </clipPath>
 </defs>
</svg>
