<?xml version="1.0" encoding="utf-8" standalone="no"?>
<!DOCTYPE svg PUBLIC "-//W3C//DTD SVG 1.1//EN"
  "http://www.w3.org/Graphics/SVG/1.1/DTD/svg11.dtd">
<!-- Created with matplotlib (http://matplotlib.org/) -->
<svg height="335pt" version="1.1" viewBox="0 0 437 335" width="437pt" xmlns="http://www.w3.org/2000/svg" xmlns:xlink="http://www.w3.org/1999/xlink">
 <defs>
  <style type="text/css">
*{stroke-linecap:butt;stroke-linejoin:round;}
  </style>
 </defs>
 <g id="figure_1">
  <g id="patch_1">
   <path d="M 0 335.188165 
L 437.1825 335.188165 
L 437.1825 0 
L 0 0 
z
" style="fill:#ffffff;"/>
  </g>
  <g id="axes_1">
   <g id="patch_2">
    <path d="M 69.3625 278.275665 
L 426.4825 278.275665 
L 426.4825 12.163665 
L 69.3625 12.163665 
z
" style="fill:#ffffff;"/>
   </g>
   <g id="line2d_1"/>
   <g id="line2d_2"/>
   <g id="line2d_3">
    <path clip-path="url(#p432ac7df54)" d="M 253.024513 278.275665 
L 253.024513 274.762636 
L 294.032943 274.762636 
L 294.032943 271.249606 
L 312.156528 271.249606 
L 312.156528 267.736576 
L 342.029034 267.736576 
L 342.029034 264.223546 
L 348.094651 264.223546 
L 348.094651 260.710517 
L 348.496781 260.710517 
L 348.496781 257.197487 
L 351.009567 257.197487 
L 351.009567 253.684457 
L 360.022701 253.684457 
L 360.022701 250.171428 
L 371.968016 250.171428 
L 371.968016 246.658398 
L 380.313317 246.658398 
L 380.313317 243.145368 
L 381.343795 243.145368 
L 381.343795 239.632338 
L 386.436713 239.632338 
L 386.436713 236.119309 
L 400.531031 236.119309 
L 400.531031 232.606279 
L 434.274495 232.606279 
L 434.274495 229.093249 
L 436.326113 229.093249 
L 436.326113 225.58022 
L 437.443528 225.58022 
L 437.443528 222.06719 
L 437.443528 222.06719 
" style="fill:none;stroke:#f5deb3;stroke-linecap:square;stroke-width:1.5;"/>
   </g>
   <g id="line2d_4">
    <path clip-path="url(#p432ac7df54)" d="M 287.69888 278.275665 
L 287.69888 274.762636 
L 297.778428 274.762636 
L 297.778428 271.249606 
L 303.168248 271.249606 
L 303.168248 267.736576 
L 323.625008 267.736576 
L 323.625008 264.223546 
L 327.18179 264.223546 
L 327.18179 260.710517 
L 372.81132 260.710517 
L 372.81132 257.197487 
L 375.74719 257.197487 
L 375.74719 253.684457 
L 379.711488 253.684457 
L 379.711488 250.171428 
L 385.640098 250.171428 
L 385.640098 246.658398 
L 387.732612 246.658398 
L 387.732612 243.145368 
L 393.742441 243.145368 
L 393.742441 239.632338 
L 396.565784 239.632338 
L 396.565784 236.119309 
L 398.093449 236.119309 
L 398.093449 232.606279 
L 402.056948 232.606279 
L 402.056948 229.093249 
L 406.468866 229.093249 
L 406.468866 225.58022 
L 406.644955 225.58022 
L 406.644955 222.06719 
L 408.02478 222.06719 
L 408.02478 218.55416 
L 410.965667 218.55416 
L 410.965667 215.041131 
L 413.827622 215.041131 
L 413.827622 211.528101 
L 414.00552 211.528101 
L 414.00552 208.015071 
L 416.659792 208.015071 
L 416.659792 204.502041 
L 416.973425 204.502041 
L 416.973425 200.989012 
L 423.011029 200.989012 
L 423.011029 197.475982 
L 426.812917 197.475982 
L 426.812917 193.962952 
L 427.320228 193.962952 
L 427.320228 190.449923 
L 430.361995 190.449923 
L 430.361995 186.936893 
L 430.361995 186.936893 
" style="fill:none;stroke:#f5deb3;stroke-linecap:square;stroke-width:1.5;"/>
   </g>
   <g id="line2d_5">
    <path clip-path="url(#p432ac7df54)" d="M 251.854521 278.275665 
L 251.854521 274.762636 
L 298.294615 274.762636 
L 298.294615 271.249606 
L 301.769752 271.249606 
L 301.769752 267.736576 
L 306.227926 267.736576 
L 306.227926 264.223546 
L 322.624374 264.223546 
L 322.624374 260.710517 
L 329.801085 260.710517 
L 329.801085 257.197487 
L 344.901202 257.197487 
L 344.901202 253.684457 
L 345.82007 253.684457 
L 345.82007 250.171428 
L 357.07367 250.171428 
L 357.07367 246.658398 
L 375.094772 246.658398 
L 375.094772 243.145368 
L 388.000366 243.145368 
L 388.000366 239.632338 
L 394.183427 239.632338 
L 394.183427 236.119309 
L 395.402942 236.119309 
L 395.402942 232.606279 
L 410.077591 232.606279 
L 410.077591 229.093249 
L 414.393625 229.093249 
L 414.393625 225.58022 
L 421.761261 225.58022 
L 421.761261 222.06719 
L 425.781405 222.06719 
L 425.781405 218.55416 
L 426.107471 218.55416 
L 426.107471 215.041131 
L 430.970198 215.041131 
L 430.970198 211.528101 
L 438.1825 211.528101 
" style="fill:none;stroke:#f5deb3;stroke-linecap:square;stroke-width:1.5;"/>
   </g>
   <g id="line2d_6"/>
   <g id="line2d_7">
    <path clip-path="url(#p432ac7df54)" d="M 258.626945 278.275665 
L 258.626945 274.762636 
L 333.458385 274.762636 
L 333.458385 271.249606 
L 334.495458 271.249606 
L 334.495458 267.736576 
L 375.212406 267.736576 
L 375.212406 264.223546 
L 377.642172 264.223546 
L 377.642172 260.710517 
L 408.658618 260.710517 
L 408.658618 257.197487 
L 415.135962 257.197487 
L 415.135962 253.684457 
L 420.200854 253.684457 
L 420.200854 250.171428 
L 423.795885 250.171428 
L 423.795885 246.658398 
L 438.1825 246.658398 
" style="fill:none;stroke:#f5deb3;stroke-linecap:square;stroke-width:1.5;"/>
   </g>
   <g id="line2d_8"/>
   <g id="line2d_9">
    <path clip-path="url(#p432ac7df54)" d="M 258.447476 278.275665 
L 258.447476 274.762636 
L 259.739498 274.762636 
L 259.739498 271.249606 
L 309.862173 271.249606 
L 309.862173 267.736576 
L 342.576012 267.736576 
L 342.576012 264.223546 
L 367.42745 264.223546 
L 367.42745 260.710517 
L 370.622236 260.710517 
L 370.622236 257.197487 
L 410.12435 257.197487 
L 410.12435 253.684457 
L 428.171702 253.684457 
L 428.171702 250.171428 
L 438.1825 250.171428 
" style="fill:none;stroke:#f5deb3;stroke-linecap:square;stroke-width:1.5;"/>
   </g>
   <g id="line2d_10">
    <path clip-path="url(#p432ac7df54)" style="fill:none;stroke:#f5deb3;stroke-linecap:square;stroke-width:1.5;"/>
   </g>
   <g id="line2d_11">
    <path clip-path="url(#p432ac7df54)" d="M 287.122234 278.275665 
L 287.122234 274.762636 
L 310.294148 274.762636 
L 310.294148 271.249606 
L 332.824148 271.249606 
L 332.824148 267.736576 
L 334.216258 267.736576 
L 334.216258 264.223546 
L 343.962923 264.223546 
L 343.962923 260.710517 
L 359.396008 260.710517 
L 359.396008 257.197487 
L 370.339176 257.197487 
L 370.339176 253.684457 
L 384.565385 253.684457 
L 384.565385 250.171428 
L 384.82349 250.171428 
L 384.82349 246.658398 
L 394.72567 246.658398 
L 394.72567 243.145368 
L 395.28858 243.145368 
L 395.28858 239.632338 
L 395.903934 239.632338 
L 395.903934 236.119309 
L 402.869227 236.119309 
L 402.869227 232.606279 
L 414.132215 232.606279 
L 414.132215 229.093249 
L 417.649536 229.093249 
L 417.649536 225.58022 
L 419.128643 225.58022 
L 419.128643 222.06719 
L 421.558633 222.06719 
L 421.558633 218.55416 
L 430.664793 218.55416 
L 430.664793 215.041131 
L 431.785369 215.041131 
L 431.785369 211.528101 
L 433.406653 211.528101 
L 433.406653 208.015071 
L 438.1825 208.015071 
" style="fill:none;stroke:#f5deb3;stroke-linecap:square;stroke-width:1.5;"/>
   </g>
   <g id="line2d_12">
    <path clip-path="url(#p432ac7df54)" d="M 301.555401 278.275665 
L 301.555401 274.762636 
L 391.021944 274.762636 
L 391.021944 271.249606 
L 391.021944 271.249606 
L 391.021944 271.249606 
L 426.4825 271.249606 
" style="fill:none;stroke:#f5deb3;stroke-linecap:square;stroke-width:1.5;"/>
   </g>
   <g id="line2d_13"/>
   <g id="line2d_14">
    <path clip-path="url(#p432ac7df54)" d="M 236.585433 278.275665 
L 236.585433 274.762636 
L 269.684316 274.762636 
L 269.684316 271.249606 
L 300.598404 271.249606 
L 300.598404 267.736576 
L 316.542164 267.736576 
L 316.542164 264.223546 
L 325.927339 264.223546 
L 325.927339 260.710517 
L 329.367546 260.710517 
L 329.367546 257.197487 
L 334.229856 257.197487 
L 334.229856 253.684457 
L 347.389889 253.684457 
L 347.389889 250.171428 
L 356.840675 250.171428 
L 356.840675 246.658398 
L 368.945792 246.658398 
L 368.945792 243.145368 
L 380.302972 243.145368 
L 380.302972 239.632338 
L 396.694905 239.632338 
L 396.694905 236.119309 
L 404.524363 236.119309 
L 404.524363 232.606279 
L 421.012401 232.606279 
L 421.012401 229.093249 
L 422.925913 229.093249 
L 422.925913 225.58022 
L 423.897792 225.58022 
L 423.897792 222.06719 
L 427.021669 222.06719 
L 427.021669 218.55416 
L 428.171702 218.55416 
L 428.171702 215.041131 
L 429.190156 215.041131 
L 429.190156 211.528101 
L 432.827802 211.528101 
L 432.827802 208.015071 
L 437.167497 208.015071 
L 437.167497 204.502041 
L 437.768738 204.502041 
L 437.768738 200.989012 
L 437.768738 200.989012 
" style="fill:none;stroke:#f5deb3;stroke-linecap:square;stroke-width:1.5;"/>
   </g>
   <g id="line2d_15"/>
   <g id="line2d_16">
    <path clip-path="url(#p432ac7df54)" d="M 351.705041 278.275665 
L 351.705041 274.762636 
L 388.661684 274.762636 
L 388.661684 271.249606 
L 398.298757 271.249606 
L 398.298757 267.736576 
L 400.573185 267.736576 
L 400.573185 264.223546 
L 410.453403 264.223546 
L 410.453403 260.710517 
L 436.811652 260.710517 
L 436.811652 257.197487 
L 438.1825 257.197487 
" style="fill:none;stroke:#f5deb3;stroke-linecap:square;stroke-width:1.5;"/>
   </g>
   <g id="line2d_17"/>
   <g id="line2d_18">
    <path clip-path="url(#p432ac7df54)" d="M 227.346904 278.275665 
L 227.346904 274.762636 
L 280.961066 274.762636 
L 280.961066 271.249606 
L 289.868492 271.249606 
L 289.868492 267.736576 
L 295.373262 267.736576 
L 295.373262 264.223546 
L 298.850253 264.223546 
L 298.850253 260.710517 
L 304.365338 260.710517 
L 304.365338 257.197487 
L 304.911231 257.197487 
L 304.911231 253.684457 
L 314.933968 253.684457 
L 314.933968 250.171428 
L 319.416189 250.171428 
L 319.416189 246.658398 
L 330.082504 246.658398 
L 330.082504 243.145368 
L 335.719184 243.145368 
L 335.719184 239.632338 
L 337.542616 239.632338 
L 337.542616 236.119309 
L 348.042655 236.119309 
L 348.042655 232.606279 
L 349.315288 232.606279 
L 349.315288 229.093249 
L 350.356429 229.093249 
L 350.356429 225.58022 
L 353.272817 225.58022 
L 353.272817 222.06719 
L 354.326172 222.06719 
L 354.326172 218.55416 
L 372.422852 218.55416 
L 372.422852 215.041131 
L 386.894324 215.041131 
L 386.894324 211.528101 
L 387.864214 211.528101 
L 387.864214 208.015071 
L 397.957101 208.015071 
L 397.957101 204.502041 
L 399.124742 204.502041 
L 399.124742 200.989012 
L 399.124742 200.989012 
L 399.124742 200.989012 
L 426.4825 200.989012 
" style="fill:none;stroke:#f5deb3;stroke-linecap:square;stroke-width:1.5;"/>
   </g>
   <g id="line2d_19">
    <path clip-path="url(#p432ac7df54)" d="M 411.981936 278.275665 
L 411.981936 274.762636 
L 416.9945 274.762636 
L 416.9945 271.249606 
L 420.396481 271.249606 
L 420.396481 267.736576 
L 425.489575 267.736576 
L 425.489575 264.223546 
L 425.576678 264.223546 
L 425.576678 260.710517 
L 425.86677 260.710517 
L 425.86677 257.197487 
L 427.487827 257.197487 
L 427.487827 253.684457 
L 428.189473 253.684457 
L 428.189473 250.171428 
L 428.907811 250.171428 
L 428.907811 246.658398 
L 428.99805 246.658398 
L 428.99805 243.145368 
L 436.866199 243.145368 
L 436.866199 239.632338 
L 438.1825 239.632338 
" style="fill:none;stroke:#f5deb3;stroke-linecap:square;stroke-width:1.5;"/>
   </g>
   <g id="line2d_20">
    <path clip-path="url(#p432ac7df54)" d="M 267.376432 278.275665 
L 267.376432 274.762636 
L 274.046143 274.762636 
L 274.046143 271.249606 
L 318.813718 271.249606 
L 318.813718 267.736576 
L 326.399475 267.736576 
L 326.399475 264.223546 
L 333.40013 264.223546 
L 333.40013 260.710517 
L 336.350869 260.710517 
L 336.350869 257.197487 
L 338.604996 257.197487 
L 338.604996 253.684457 
L 338.903782 253.684457 
L 338.903782 250.171428 
L 353.380924 250.171428 
L 353.380924 246.658398 
L 367.627808 246.658398 
L 367.627808 243.145368 
L 370.897863 243.145368 
L 370.897863 239.632338 
L 373.422898 239.632338 
L 373.422898 236.119309 
L 373.600593 236.119309 
L 373.600593 232.606279 
L 374.240477 232.606279 
L 374.240477 229.093249 
L 375.821494 229.093249 
L 375.821494 225.58022 
L 383.637605 225.58022 
L 383.637605 222.06719 
L 383.863879 222.06719 
L 383.863879 218.55416 
L 385.044721 218.55416 
L 385.044721 215.041131 
L 386.433013 215.041131 
L 386.433013 211.528101 
L 391.576449 211.528101 
L 391.576449 208.015071 
L 394.945918 208.015071 
L 394.945918 204.502041 
L 400.971197 204.502041 
L 400.971197 200.989012 
L 419.416145 200.989012 
L 419.416145 197.475982 
L 434.768281 197.475982 
L 434.768281 193.962952 
L 438.1825 193.962952 
" style="fill:none;stroke:#f5deb3;stroke-linecap:square;stroke-width:1.5;"/>
   </g>
   <g id="line2d_21">
    <path clip-path="url(#p432ac7df54)" d="M 433.58406 278.275665 
L 433.58406 274.762636 
L 433.58406 274.762636 
" style="fill:none;stroke:#f5deb3;stroke-linecap:square;stroke-width:1.5;"/>
   </g>
   <g id="line2d_22">
    <path clip-path="url(#p432ac7df54)" d="M 371.230025 278.275665 
L 371.230025 274.762636 
L 399.093991 274.762636 
L 399.093991 271.249606 
L 409.522586 271.249606 
L 409.522586 267.736576 
L 412.062871 267.736576 
L 412.062871 264.223546 
L 415.154771 264.223546 
L 415.154771 260.710517 
L 421.533965 260.710517 
L 421.533965 257.197487 
L 432.390645 257.197487 
L 432.390645 253.684457 
L 432.640698 253.684457 
L 432.640698 250.171428 
L 435.64002 250.171428 
L 435.64002 246.658398 
L 435.64002 246.658398 
" style="fill:none;stroke:#f5deb3;stroke-linecap:square;stroke-width:1.5;"/>
   </g>
   <g id="line2d_23">
    <path clip-path="url(#p432ac7df54)" d="M 347.957775 278.275665 
L 347.957775 274.762636 
L 347.957775 274.762636 
L 347.957775 274.762636 
L 426.4825 274.762636 
" style="fill:none;stroke:#f5deb3;stroke-linecap:square;stroke-width:1.5;"/>
   </g>
   <g id="line2d_24">
    <path clip-path="url(#p432ac7df54)" d="M 413.963075 278.275665 
L 413.963075 274.762636 
L 421.14156 274.762636 
L 421.14156 271.249606 
L 424.202257 271.249606 
L 424.202257 267.736576 
L 438.1825 267.736576 
" style="fill:none;stroke:#f5deb3;stroke-linecap:square;stroke-width:1.5;"/>
   </g>
   <g id="line2d_25">
    <path clip-path="url(#p432ac7df54)" d="M 417.997011 278.275665 
L 417.997011 274.762636 
L 418.467555 274.762636 
L 418.467555 271.249606 
L 419.666069 271.249606 
L 419.666069 267.736576 
L 419.666069 267.736576 
L 419.666069 267.736576 
L 426.4825 267.736576 
" style="fill:none;stroke:#f5deb3;stroke-linecap:square;stroke-width:1.5;"/>
   </g>
   <g id="line2d_26">
    <path clip-path="url(#p432ac7df54)" d="M 327.780235 278.275665 
L 327.780235 275.315247 
L 407.062582 275.315247 
L 407.062582 272.354829 
L 435.553346 272.354829 
L 435.553346 269.39441 
L 437.972148 269.39441 
L 437.972148 266.433992 
L 438.1825 266.433992 
" style="fill:none;stroke:#f5deb3;stroke-linecap:square;stroke-width:1.5;"/>
   </g>
   <g id="line2d_27"/>
   <g id="line2d_28">
    <path clip-path="url(#p432ac7df54)" d="M 409.90732 278.275665 
L 409.90732 274.762636 
L 410.11041 274.762636 
L 410.11041 271.249606 
L 412.732583 271.249606 
L 412.732583 267.736576 
L 438.1825 267.736576 
" style="fill:none;stroke:#f5deb3;stroke-linecap:square;stroke-width:1.5;"/>
   </g>
   <g id="line2d_29">
    <path clip-path="url(#p432ac7df54)" d="M 372.5109 278.275665 
L 372.5109 274.762636 
L 398.019235 274.762636 
L 398.019235 271.249606 
L 398.019235 271.249606 
L 398.019235 271.249606 
L 426.4825 271.249606 
" style="fill:none;stroke:#f5deb3;stroke-linecap:square;stroke-width:1.5;"/>
   </g>
   <g id="line2d_30">
    <path clip-path="url(#p432ac7df54)" d="M 314.366891 278.275665 
L 314.366891 274.762636 
L 341.599143 274.762636 
L 341.599143 271.249606 
L 368.917173 271.249606 
L 368.917173 267.736576 
L 376.439514 267.736576 
L 376.439514 264.223546 
L 400.892322 264.223546 
L 400.892322 260.710517 
L 408.973296 260.710517 
L 408.973296 257.197487 
L 421.338243 257.197487 
L 421.338243 253.684457 
L 435.971946 253.684457 
L 435.971946 250.171428 
L 436.979477 250.171428 
L 436.979477 246.658398 
L 437.948391 246.658398 
L 437.948391 243.145368 
L 437.948391 243.145368 
" style="fill:none;stroke:#f5deb3;stroke-linecap:square;stroke-width:1.5;"/>
   </g>
   <g id="matplotlib.axis_1">
    <g id="xtick_1">
     <g id="line2d_31">
      <path clip-path="url(#p432ac7df54)" d="M 69.3625 278.275665 
L 69.3625 12.163665 
" style="fill:none;stroke:#b0b0b0;stroke-linecap:square;stroke-width:0.8;"/>
     </g>
     <g id="line2d_32">
      <defs>
       <path d="M 0 0 
L 0 3.5 
" id="m9488a59deb" style="stroke:#000000;stroke-width:0.8;"/>
      </defs>
      <g>
       <use style="stroke:#000000;stroke-width:0.8;" x="69.3625" xlink:href="#m9488a59deb" y="278.275665"/>
      </g>
     </g>
     <g id="text_1">
      <!-- 0 -->
      <defs>
       <path d="M 31.78125 66.40625 
Q 24.171875 66.40625 20.328125 58.90625 
Q 16.5 51.421875 16.5 36.375 
Q 16.5 21.390625 20.328125 13.890625 
Q 24.171875 6.390625 31.78125 6.390625 
Q 39.453125 6.390625 43.28125 13.890625 
Q 47.125 21.390625 47.125 36.375 
Q 47.125 51.421875 43.28125 58.90625 
Q 39.453125 66.40625 31.78125 66.40625 
M 31.78125 74.21875 
Q 44.046875 74.21875 50.515625 64.515625 
Q 56.984375 54.828125 56.984375 36.375 
Q 56.984375 17.96875 50.515625 8.265625 
Q 44.046875 -1.421875 31.78125 -1.421875 
Q 19.53125 -1.421875 13.0625 8.265625 
Q 6.59375 17.96875 6.59375 36.375 
Q 6.59375 54.828125 13.0625 64.515625 
Q 19.53125 74.21875 31.78125 74.21875 
" id="DejaVuSans-30"/>
      </defs>
      <g transform="translate(63 300.47254)scale(0.2 -0.2)">
       <use xlink:href="#DejaVuSans-30"/>
      </g>
     </g>
    </g>
    <g id="xtick_2">
     <g id="line2d_33">
      <path clip-path="url(#p432ac7df54)" d="M 254.0812 278.275665 
L 254.0812 12.163665 
" style="fill:none;stroke:#b0b0b0;stroke-linecap:square;stroke-width:0.8;"/>
     </g>
     <g id="line2d_34">
      <g>
       <use style="stroke:#000000;stroke-width:0.8;" x="254.0812" xlink:href="#m9488a59deb" y="278.275665"/>
      </g>
     </g>
     <g id="text_2">
      <!-- 2 -->
      <defs>
       <path d="M 19.1875 8.296875 
L 53.609375 8.296875 
L 53.609375 0 
L 7.328125 0 
L 7.328125 8.296875 
Q 12.9375 14.109375 22.625 23.890625 
Q 32.328125 33.6875 34.8125 36.53125 
Q 39.546875 41.84375 41.421875 45.53125 
Q 43.3125 49.21875 43.3125 52.78125 
Q 43.3125 58.59375 39.234375 62.25 
Q 35.15625 65.921875 28.609375 65.921875 
Q 23.96875 65.921875 18.8125 64.3125 
Q 13.671875 62.703125 7.8125 59.421875 
L 7.8125 69.390625 
Q 13.765625 71.78125 18.9375 73 
Q 24.125 74.21875 28.421875 74.21875 
Q 39.75 74.21875 46.484375 68.546875 
Q 53.21875 62.890625 53.21875 53.421875 
Q 53.21875 48.921875 51.53125 44.890625 
Q 49.859375 40.875 45.40625 35.40625 
Q 44.1875 33.984375 37.640625 27.21875 
Q 31.109375 20.453125 19.1875 8.296875 
" id="DejaVuSans-32"/>
      </defs>
      <g transform="translate(247.7187 300.47254)scale(0.2 -0.2)">
       <use xlink:href="#DejaVuSans-32"/>
      </g>
     </g>
    </g>
    <g id="xtick_3">
     <g id="line2d_35">
      <defs>
       <path d="M 0 0 
L 0 2 
" id="m551554cbfd" style="stroke:#000000;stroke-width:0.6;"/>
      </defs>
      <g>
       <use style="stroke:#000000;stroke-width:0.6;" x="97.165435" xlink:href="#m551554cbfd" y="278.275665"/>
      </g>
     </g>
    </g>
    <g id="xtick_4">
     <g id="line2d_36">
      <g>
       <use style="stroke:#000000;stroke-width:0.6;" x="113.429109" xlink:href="#m551554cbfd" y="278.275665"/>
      </g>
     </g>
    </g>
    <g id="xtick_5">
     <g id="line2d_37">
      <g>
       <use style="stroke:#000000;stroke-width:0.6;" x="124.96837" xlink:href="#m551554cbfd" y="278.275665"/>
      </g>
     </g>
    </g>
    <g id="xtick_6">
     <g id="line2d_38">
      <g>
       <use style="stroke:#000000;stroke-width:0.6;" x="133.918915" xlink:href="#m551554cbfd" y="278.275665"/>
      </g>
     </g>
    </g>
    <g id="xtick_7">
     <g id="line2d_39">
      <g>
       <use style="stroke:#000000;stroke-width:0.6;" x="141.232044" xlink:href="#m551554cbfd" y="278.275665"/>
      </g>
     </g>
    </g>
    <g id="xtick_8">
     <g id="line2d_40">
      <g>
       <use style="stroke:#000000;stroke-width:0.6;" x="147.415206" xlink:href="#m551554cbfd" y="278.275665"/>
      </g>
     </g>
    </g>
    <g id="xtick_9">
     <g id="line2d_41">
      <g>
       <use style="stroke:#000000;stroke-width:0.6;" x="152.771304" xlink:href="#m551554cbfd" y="278.275665"/>
      </g>
     </g>
    </g>
    <g id="xtick_10">
     <g id="line2d_42">
      <g>
       <use style="stroke:#000000;stroke-width:0.6;" x="157.495718" xlink:href="#m551554cbfd" y="278.275665"/>
      </g>
     </g>
    </g>
    <g id="xtick_11">
     <g id="line2d_43">
      <g>
       <use style="stroke:#000000;stroke-width:0.6;" x="189.524785" xlink:href="#m551554cbfd" y="278.275665"/>
      </g>
     </g>
    </g>
    <g id="xtick_12">
     <g id="line2d_44">
      <g>
       <use style="stroke:#000000;stroke-width:0.6;" x="205.788459" xlink:href="#m551554cbfd" y="278.275665"/>
      </g>
     </g>
    </g>
    <g id="xtick_13">
     <g id="line2d_45">
      <g>
       <use style="stroke:#000000;stroke-width:0.6;" x="217.32772" xlink:href="#m551554cbfd" y="278.275665"/>
      </g>
     </g>
    </g>
    <g id="xtick_14">
     <g id="line2d_46">
      <g>
       <use style="stroke:#000000;stroke-width:0.6;" x="226.278266" xlink:href="#m551554cbfd" y="278.275665"/>
      </g>
     </g>
    </g>
    <g id="xtick_15">
     <g id="line2d_47">
      <g>
       <use style="stroke:#000000;stroke-width:0.6;" x="233.591394" xlink:href="#m551554cbfd" y="278.275665"/>
      </g>
     </g>
    </g>
    <g id="xtick_16">
     <g id="line2d_48">
      <g>
       <use style="stroke:#000000;stroke-width:0.6;" x="239.774556" xlink:href="#m551554cbfd" y="278.275665"/>
      </g>
     </g>
    </g>
    <g id="xtick_17">
     <g id="line2d_49">
      <g>
       <use style="stroke:#000000;stroke-width:0.6;" x="245.130655" xlink:href="#m551554cbfd" y="278.275665"/>
      </g>
     </g>
    </g>
    <g id="xtick_18">
     <g id="line2d_50">
      <g>
       <use style="stroke:#000000;stroke-width:0.6;" x="249.855068" xlink:href="#m551554cbfd" y="278.275665"/>
      </g>
     </g>
    </g>
    <g id="xtick_19">
     <g id="line2d_51">
      <g>
       <use style="stroke:#000000;stroke-width:0.6;" x="281.884135" xlink:href="#m551554cbfd" y="278.275665"/>
      </g>
     </g>
    </g>
    <g id="xtick_20">
     <g id="line2d_52">
      <g>
       <use style="stroke:#000000;stroke-width:0.6;" x="298.147809" xlink:href="#m551554cbfd" y="278.275665"/>
      </g>
     </g>
    </g>
    <g id="xtick_21">
     <g id="line2d_53">
      <g>
       <use style="stroke:#000000;stroke-width:0.6;" x="309.68707" xlink:href="#m551554cbfd" y="278.275665"/>
      </g>
     </g>
    </g>
    <g id="xtick_22">
     <g id="line2d_54">
      <g>
       <use style="stroke:#000000;stroke-width:0.6;" x="318.637616" xlink:href="#m551554cbfd" y="278.275665"/>
      </g>
     </g>
    </g>
    <g id="xtick_23">
     <g id="line2d_55">
      <g>
       <use style="stroke:#000000;stroke-width:0.6;" x="325.950744" xlink:href="#m551554cbfd" y="278.275665"/>
      </g>
     </g>
    </g>
    <g id="xtick_24">
     <g id="line2d_56">
      <g>
       <use style="stroke:#000000;stroke-width:0.6;" x="332.133906" xlink:href="#m551554cbfd" y="278.275665"/>
      </g>
     </g>
    </g>
    <g id="xtick_25">
     <g id="line2d_57">
      <g>
       <use style="stroke:#000000;stroke-width:0.6;" x="337.490005" xlink:href="#m551554cbfd" y="278.275665"/>
      </g>
     </g>
    </g>
    <g id="xtick_26">
     <g id="line2d_58">
      <g>
       <use style="stroke:#000000;stroke-width:0.6;" x="342.214418" xlink:href="#m551554cbfd" y="278.275665"/>
      </g>
     </g>
    </g>
    <g id="xtick_27">
     <g id="line2d_59">
      <g>
       <use style="stroke:#000000;stroke-width:0.6;" x="374.243485" xlink:href="#m551554cbfd" y="278.275665"/>
      </g>
     </g>
    </g>
    <g id="xtick_28">
     <g id="line2d_60">
      <g>
       <use style="stroke:#000000;stroke-width:0.6;" x="390.50716" xlink:href="#m551554cbfd" y="278.275665"/>
      </g>
     </g>
    </g>
    <g id="xtick_29">
     <g id="line2d_61">
      <g>
       <use style="stroke:#000000;stroke-width:0.6;" x="402.04642" xlink:href="#m551554cbfd" y="278.275665"/>
      </g>
     </g>
    </g>
    <g id="xtick_30">
     <g id="line2d_62">
      <g>
       <use style="stroke:#000000;stroke-width:0.6;" x="410.996966" xlink:href="#m551554cbfd" y="278.275665"/>
      </g>
     </g>
    </g>
    <g id="xtick_31">
     <g id="line2d_63">
      <g>
       <use style="stroke:#000000;stroke-width:0.6;" x="418.310094" xlink:href="#m551554cbfd" y="278.275665"/>
      </g>
     </g>
    </g>
    <g id="xtick_32">
     <g id="line2d_64">
      <g>
       <use style="stroke:#000000;stroke-width:0.6;" x="424.493256" xlink:href="#m551554cbfd" y="278.275665"/>
      </g>
     </g>
    </g>
    <g id="text_3">
     <!-- log10 of FEvals / DIM -->
     <defs>
      <path d="M 9.421875 75.984375 
L 18.40625 75.984375 
L 18.40625 0 
L 9.421875 0 
z
" id="DejaVuSans-6c"/>
      <path d="M 30.609375 48.390625 
Q 23.390625 48.390625 19.1875 42.75 
Q 14.984375 37.109375 14.984375 27.296875 
Q 14.984375 17.484375 19.15625 11.84375 
Q 23.34375 6.203125 30.609375 6.203125 
Q 37.796875 6.203125 41.984375 11.859375 
Q 46.1875 17.53125 46.1875 27.296875 
Q 46.1875 37.015625 41.984375 42.703125 
Q 37.796875 48.390625 30.609375 48.390625 
M 30.609375 56 
Q 42.328125 56 49.015625 48.375 
Q 55.71875 40.765625 55.71875 27.296875 
Q 55.71875 13.875 49.015625 6.21875 
Q 42.328125 -1.421875 30.609375 -1.421875 
Q 18.84375 -1.421875 12.171875 6.21875 
Q 5.515625 13.875 5.515625 27.296875 
Q 5.515625 40.765625 12.171875 48.375 
Q 18.84375 56 30.609375 56 
" id="DejaVuSans-6f"/>
      <path d="M 45.40625 27.984375 
Q 45.40625 37.75 41.375 43.109375 
Q 37.359375 48.484375 30.078125 48.484375 
Q 22.859375 48.484375 18.828125 43.109375 
Q 14.796875 37.75 14.796875 27.984375 
Q 14.796875 18.265625 18.828125 12.890625 
Q 22.859375 7.515625 30.078125 7.515625 
Q 37.359375 7.515625 41.375 12.890625 
Q 45.40625 18.265625 45.40625 27.984375 
M 54.390625 6.78125 
Q 54.390625 -7.171875 48.1875 -13.984375 
Q 42 -20.796875 29.203125 -20.796875 
Q 24.46875 -20.796875 20.265625 -20.09375 
Q 16.0625 -19.390625 12.109375 -17.921875 
L 12.109375 -9.1875 
Q 16.0625 -11.328125 19.921875 -12.34375 
Q 23.78125 -13.375 27.78125 -13.375 
Q 36.625 -13.375 41.015625 -8.765625 
Q 45.40625 -4.15625 45.40625 5.171875 
L 45.40625 9.625 
Q 42.625 4.78125 38.28125 2.390625 
Q 33.9375 0 27.875 0 
Q 17.828125 0 11.671875 7.65625 
Q 5.515625 15.328125 5.515625 27.984375 
Q 5.515625 40.671875 11.671875 48.328125 
Q 17.828125 56 27.875 56 
Q 33.9375 56 38.28125 53.609375 
Q 42.625 51.21875 45.40625 46.390625 
L 45.40625 54.6875 
L 54.390625 54.6875 
z
" id="DejaVuSans-67"/>
      <path d="M 12.40625 8.296875 
L 28.515625 8.296875 
L 28.515625 63.921875 
L 10.984375 60.40625 
L 10.984375 69.390625 
L 28.421875 72.90625 
L 38.28125 72.90625 
L 38.28125 8.296875 
L 54.390625 8.296875 
L 54.390625 0 
L 12.40625 0 
z
" id="DejaVuSans-31"/>
      <path id="DejaVuSans-20"/>
      <path d="M 37.109375 75.984375 
L 37.109375 68.5 
L 28.515625 68.5 
Q 23.6875 68.5 21.796875 66.546875 
Q 19.921875 64.59375 19.921875 59.515625 
L 19.921875 54.6875 
L 34.71875 54.6875 
L 34.71875 47.703125 
L 19.921875 47.703125 
L 19.921875 0 
L 10.890625 0 
L 10.890625 47.703125 
L 2.296875 47.703125 
L 2.296875 54.6875 
L 10.890625 54.6875 
L 10.890625 58.5 
Q 10.890625 67.625 15.140625 71.796875 
Q 19.390625 75.984375 28.609375 75.984375 
z
" id="DejaVuSans-66"/>
      <path d="M 9.8125 72.90625 
L 51.703125 72.90625 
L 51.703125 64.59375 
L 19.671875 64.59375 
L 19.671875 43.109375 
L 48.578125 43.109375 
L 48.578125 34.8125 
L 19.671875 34.8125 
L 19.671875 0 
L 9.8125 0 
z
" id="DejaVuSans-46"/>
      <path d="M 9.8125 72.90625 
L 55.90625 72.90625 
L 55.90625 64.59375 
L 19.671875 64.59375 
L 19.671875 43.015625 
L 54.390625 43.015625 
L 54.390625 34.71875 
L 19.671875 34.71875 
L 19.671875 8.296875 
L 56.78125 8.296875 
L 56.78125 0 
L 9.8125 0 
z
" id="DejaVuSans-45"/>
      <path d="M 2.984375 54.6875 
L 12.5 54.6875 
L 29.59375 8.796875 
L 46.6875 54.6875 
L 56.203125 54.6875 
L 35.6875 0 
L 23.484375 0 
z
" id="DejaVuSans-76"/>
      <path d="M 34.28125 27.484375 
Q 23.390625 27.484375 19.1875 25 
Q 14.984375 22.515625 14.984375 16.5 
Q 14.984375 11.71875 18.140625 8.90625 
Q 21.296875 6.109375 26.703125 6.109375 
Q 34.1875 6.109375 38.703125 11.40625 
Q 43.21875 16.703125 43.21875 25.484375 
L 43.21875 27.484375 
z
M 52.203125 31.203125 
L 52.203125 0 
L 43.21875 0 
L 43.21875 8.296875 
Q 40.140625 3.328125 35.546875 0.953125 
Q 30.953125 -1.421875 24.3125 -1.421875 
Q 15.921875 -1.421875 10.953125 3.296875 
Q 6 8.015625 6 15.921875 
Q 6 25.140625 12.171875 29.828125 
Q 18.359375 34.515625 30.609375 34.515625 
L 43.21875 34.515625 
L 43.21875 35.40625 
Q 43.21875 41.609375 39.140625 45 
Q 35.0625 48.390625 27.6875 48.390625 
Q 23 48.390625 18.546875 47.265625 
Q 14.109375 46.140625 10.015625 43.890625 
L 10.015625 52.203125 
Q 14.9375 54.109375 19.578125 55.046875 
Q 24.21875 56 28.609375 56 
Q 40.484375 56 46.34375 49.84375 
Q 52.203125 43.703125 52.203125 31.203125 
" id="DejaVuSans-61"/>
      <path d="M 44.28125 53.078125 
L 44.28125 44.578125 
Q 40.484375 46.53125 36.375 47.5 
Q 32.28125 48.484375 27.875 48.484375 
Q 21.1875 48.484375 17.84375 46.4375 
Q 14.5 44.390625 14.5 40.28125 
Q 14.5 37.15625 16.890625 35.375 
Q 19.28125 33.59375 26.515625 31.984375 
L 29.59375 31.296875 
Q 39.15625 29.25 43.1875 25.515625 
Q 47.21875 21.78125 47.21875 15.09375 
Q 47.21875 7.46875 41.1875 3.015625 
Q 35.15625 -1.421875 24.609375 -1.421875 
Q 20.21875 -1.421875 15.453125 -0.5625 
Q 10.6875 0.296875 5.421875 2 
L 5.421875 11.28125 
Q 10.40625 8.6875 15.234375 7.390625 
Q 20.0625 6.109375 24.8125 6.109375 
Q 31.15625 6.109375 34.5625 8.28125 
Q 37.984375 10.453125 37.984375 14.40625 
Q 37.984375 18.0625 35.515625 20.015625 
Q 33.0625 21.96875 24.703125 23.78125 
L 21.578125 24.515625 
Q 13.234375 26.265625 9.515625 29.90625 
Q 5.8125 33.546875 5.8125 39.890625 
Q 5.8125 47.609375 11.28125 51.796875 
Q 16.75 56 26.8125 56 
Q 31.78125 56 36.171875 55.265625 
Q 40.578125 54.546875 44.28125 53.078125 
" id="DejaVuSans-73"/>
      <path d="M 25.390625 72.90625 
L 33.6875 72.90625 
L 8.296875 -9.28125 
L 0 -9.28125 
z
" id="DejaVuSans-2f"/>
      <path d="M 19.671875 64.796875 
L 19.671875 8.109375 
L 31.59375 8.109375 
Q 46.6875 8.109375 53.6875 14.9375 
Q 60.6875 21.78125 60.6875 36.53125 
Q 60.6875 51.171875 53.6875 57.984375 
Q 46.6875 64.796875 31.59375 64.796875 
z
M 9.8125 72.90625 
L 30.078125 72.90625 
Q 51.265625 72.90625 61.171875 64.09375 
Q 71.09375 55.28125 71.09375 36.53125 
Q 71.09375 17.671875 61.125 8.828125 
Q 51.171875 0 30.078125 0 
L 9.8125 0 
z
" id="DejaVuSans-44"/>
      <path d="M 9.8125 72.90625 
L 19.671875 72.90625 
L 19.671875 0 
L 9.8125 0 
z
" id="DejaVuSans-49"/>
      <path d="M 9.8125 72.90625 
L 24.515625 72.90625 
L 43.109375 23.296875 
L 61.8125 72.90625 
L 76.515625 72.90625 
L 76.515625 0 
L 66.890625 0 
L 66.890625 64.015625 
L 48.09375 14.015625 
L 38.1875 14.015625 
L 19.390625 64.015625 
L 19.390625 0 
L 9.8125 0 
z
" id="DejaVuSans-4d"/>
     </defs>
     <g transform="translate(142.849063 323.82879)scale(0.2 -0.2)">
      <use xlink:href="#DejaVuSans-6c"/>
      <use x="27.783203" xlink:href="#DejaVuSans-6f"/>
      <use x="88.964844" xlink:href="#DejaVuSans-67"/>
      <use x="152.441406" xlink:href="#DejaVuSans-31"/>
      <use x="216.064453" xlink:href="#DejaVuSans-30"/>
      <use x="279.6875" xlink:href="#DejaVuSans-20"/>
      <use x="311.474609" xlink:href="#DejaVuSans-6f"/>
      <use x="372.65625" xlink:href="#DejaVuSans-66"/>
      <use x="407.861328" xlink:href="#DejaVuSans-20"/>
      <use x="439.648438" xlink:href="#DejaVuSans-46"/>
      <use x="497.167969" xlink:href="#DejaVuSans-45"/>
      <use x="560.351562" xlink:href="#DejaVuSans-76"/>
      <use x="619.53125" xlink:href="#DejaVuSans-61"/>
      <use x="680.810547" xlink:href="#DejaVuSans-6c"/>
      <use x="708.59375" xlink:href="#DejaVuSans-73"/>
      <use x="760.693359" xlink:href="#DejaVuSans-20"/>
      <use x="792.480469" xlink:href="#DejaVuSans-2f"/>
      <use x="826.171875" xlink:href="#DejaVuSans-20"/>
      <use x="857.958984" xlink:href="#DejaVuSans-44"/>
      <use x="934.960938" xlink:href="#DejaVuSans-49"/>
      <use x="964.453125" xlink:href="#DejaVuSans-4d"/>
     </g>
    </g>
   </g>
   <g id="matplotlib.axis_2">
    <g id="ytick_1">
     <g id="line2d_65">
      <path clip-path="url(#p432ac7df54)" d="M 69.3625 278.275665 
L 426.4825 278.275665 
" style="fill:none;stroke:#b0b0b0;stroke-linecap:square;stroke-width:0.8;"/>
     </g>
     <g id="line2d_66">
      <defs>
       <path d="M 0 0 
L -3.5 0 
" id="m0b2da4ec2d" style="stroke:#000000;stroke-width:0.8;"/>
      </defs>
      <g>
       <use style="stroke:#000000;stroke-width:0.8;" x="69.3625" xlink:href="#m0b2da4ec2d" y="278.275665"/>
      </g>
     </g>
     <g id="text_4">
      <!-- 0.0 -->
      <defs>
       <path d="M 10.6875 12.40625 
L 21 12.40625 
L 21 0 
L 10.6875 0 
z
" id="DejaVuSans-2e"/>
      </defs>
      <g transform="translate(30.55625 285.874103)scale(0.2 -0.2)">
       <use xlink:href="#DejaVuSans-30"/>
       <use x="63.623047" xlink:href="#DejaVuSans-2e"/>
       <use x="95.410156" xlink:href="#DejaVuSans-30"/>
      </g>
     </g>
    </g>
    <g id="ytick_2">
     <g id="line2d_67">
      <path clip-path="url(#p432ac7df54)" d="M 69.3625 225.58022 
L 426.4825 225.58022 
" style="fill:none;stroke:#b0b0b0;stroke-linecap:square;stroke-width:0.8;"/>
     </g>
     <g id="line2d_68">
      <g>
       <use style="stroke:#000000;stroke-width:0.8;" x="69.3625" xlink:href="#m0b2da4ec2d" y="225.58022"/>
      </g>
     </g>
     <g id="text_5">
      <!-- 0.2 -->
      <g transform="translate(30.55625 233.178657)scale(0.2 -0.2)">
       <use xlink:href="#DejaVuSans-30"/>
       <use x="63.623047" xlink:href="#DejaVuSans-2e"/>
       <use x="95.410156" xlink:href="#DejaVuSans-32"/>
      </g>
     </g>
    </g>
    <g id="ytick_3">
     <g id="line2d_69">
      <path clip-path="url(#p432ac7df54)" d="M 69.3625 172.884774 
L 426.4825 172.884774 
" style="fill:none;stroke:#b0b0b0;stroke-linecap:square;stroke-width:0.8;"/>
     </g>
     <g id="line2d_70">
      <g>
       <use style="stroke:#000000;stroke-width:0.8;" x="69.3625" xlink:href="#m0b2da4ec2d" y="172.884774"/>
      </g>
     </g>
     <g id="text_6">
      <!-- 0.4 -->
      <defs>
       <path d="M 37.796875 64.3125 
L 12.890625 25.390625 
L 37.796875 25.390625 
z
M 35.203125 72.90625 
L 47.609375 72.90625 
L 47.609375 25.390625 
L 58.015625 25.390625 
L 58.015625 17.1875 
L 47.609375 17.1875 
L 47.609375 0 
L 37.796875 0 
L 37.796875 17.1875 
L 4.890625 17.1875 
L 4.890625 26.703125 
z
" id="DejaVuSans-34"/>
      </defs>
      <g transform="translate(30.55625 180.483212)scale(0.2 -0.2)">
       <use xlink:href="#DejaVuSans-30"/>
       <use x="63.623047" xlink:href="#DejaVuSans-2e"/>
       <use x="95.410156" xlink:href="#DejaVuSans-34"/>
      </g>
     </g>
    </g>
    <g id="ytick_4">
     <g id="line2d_71">
      <path clip-path="url(#p432ac7df54)" d="M 69.3625 120.189329 
L 426.4825 120.189329 
" style="fill:none;stroke:#b0b0b0;stroke-linecap:square;stroke-width:0.8;"/>
     </g>
     <g id="line2d_72">
      <g>
       <use style="stroke:#000000;stroke-width:0.8;" x="69.3625" xlink:href="#m0b2da4ec2d" y="120.189329"/>
      </g>
     </g>
     <g id="text_7">
      <!-- 0.6 -->
      <defs>
       <path d="M 33.015625 40.375 
Q 26.375 40.375 22.484375 35.828125 
Q 18.609375 31.296875 18.609375 23.390625 
Q 18.609375 15.53125 22.484375 10.953125 
Q 26.375 6.390625 33.015625 6.390625 
Q 39.65625 6.390625 43.53125 10.953125 
Q 47.40625 15.53125 47.40625 23.390625 
Q 47.40625 31.296875 43.53125 35.828125 
Q 39.65625 40.375 33.015625 40.375 
M 52.59375 71.296875 
L 52.59375 62.3125 
Q 48.875 64.0625 45.09375 64.984375 
Q 41.3125 65.921875 37.59375 65.921875 
Q 27.828125 65.921875 22.671875 59.328125 
Q 17.53125 52.734375 16.796875 39.40625 
Q 19.671875 43.65625 24.015625 45.921875 
Q 28.375 48.1875 33.59375 48.1875 
Q 44.578125 48.1875 50.953125 41.515625 
Q 57.328125 34.859375 57.328125 23.390625 
Q 57.328125 12.15625 50.6875 5.359375 
Q 44.046875 -1.421875 33.015625 -1.421875 
Q 20.359375 -1.421875 13.671875 8.265625 
Q 6.984375 17.96875 6.984375 36.375 
Q 6.984375 53.65625 15.1875 63.9375 
Q 23.390625 74.21875 37.203125 74.21875 
Q 40.921875 74.21875 44.703125 73.484375 
Q 48.484375 72.75 52.59375 71.296875 
" id="DejaVuSans-36"/>
      </defs>
      <g transform="translate(30.55625 127.787766)scale(0.2 -0.2)">
       <use xlink:href="#DejaVuSans-30"/>
       <use x="63.623047" xlink:href="#DejaVuSans-2e"/>
       <use x="95.410156" xlink:href="#DejaVuSans-36"/>
      </g>
     </g>
    </g>
    <g id="ytick_5">
     <g id="line2d_73">
      <path clip-path="url(#p432ac7df54)" d="M 69.3625 67.493883 
L 426.4825 67.493883 
" style="fill:none;stroke:#b0b0b0;stroke-linecap:square;stroke-width:0.8;"/>
     </g>
     <g id="line2d_74">
      <g>
       <use style="stroke:#000000;stroke-width:0.8;" x="69.3625" xlink:href="#m0b2da4ec2d" y="67.493883"/>
      </g>
     </g>
     <g id="text_8">
      <!-- 0.8 -->
      <defs>
       <path d="M 31.78125 34.625 
Q 24.75 34.625 20.71875 30.859375 
Q 16.703125 27.09375 16.703125 20.515625 
Q 16.703125 13.921875 20.71875 10.15625 
Q 24.75 6.390625 31.78125 6.390625 
Q 38.8125 6.390625 42.859375 10.171875 
Q 46.921875 13.96875 46.921875 20.515625 
Q 46.921875 27.09375 42.890625 30.859375 
Q 38.875 34.625 31.78125 34.625 
M 21.921875 38.8125 
Q 15.578125 40.375 12.03125 44.71875 
Q 8.5 49.078125 8.5 55.328125 
Q 8.5 64.0625 14.71875 69.140625 
Q 20.953125 74.21875 31.78125 74.21875 
Q 42.671875 74.21875 48.875 69.140625 
Q 55.078125 64.0625 55.078125 55.328125 
Q 55.078125 49.078125 51.53125 44.71875 
Q 48 40.375 41.703125 38.8125 
Q 48.828125 37.15625 52.796875 32.3125 
Q 56.78125 27.484375 56.78125 20.515625 
Q 56.78125 9.90625 50.3125 4.234375 
Q 43.84375 -1.421875 31.78125 -1.421875 
Q 19.734375 -1.421875 13.25 4.234375 
Q 6.78125 9.90625 6.78125 20.515625 
Q 6.78125 27.484375 10.78125 32.3125 
Q 14.796875 37.15625 21.921875 38.8125 
M 18.3125 54.390625 
Q 18.3125 48.734375 21.84375 45.5625 
Q 25.390625 42.390625 31.78125 42.390625 
Q 38.140625 42.390625 41.71875 45.5625 
Q 45.3125 48.734375 45.3125 54.390625 
Q 45.3125 60.0625 41.71875 63.234375 
Q 38.140625 66.40625 31.78125 66.40625 
Q 25.390625 66.40625 21.84375 63.234375 
Q 18.3125 60.0625 18.3125 54.390625 
" id="DejaVuSans-38"/>
      </defs>
      <g transform="translate(30.55625 75.092321)scale(0.2 -0.2)">
       <use xlink:href="#DejaVuSans-30"/>
       <use x="63.623047" xlink:href="#DejaVuSans-2e"/>
       <use x="95.410156" xlink:href="#DejaVuSans-38"/>
      </g>
     </g>
    </g>
    <g id="ytick_6">
     <g id="line2d_75">
      <path clip-path="url(#p432ac7df54)" d="M 69.3625 14.798437 
L 426.4825 14.798437 
" style="fill:none;stroke:#b0b0b0;stroke-linecap:square;stroke-width:0.8;"/>
     </g>
     <g id="line2d_76">
      <g>
       <use style="stroke:#000000;stroke-width:0.8;" x="69.3625" xlink:href="#m0b2da4ec2d" y="14.798437"/>
      </g>
     </g>
     <g id="text_9">
      <!-- 1.0 -->
      <g transform="translate(30.55625 22.396875)scale(0.2 -0.2)">
       <use xlink:href="#DejaVuSans-31"/>
       <use x="63.623047" xlink:href="#DejaVuSans-2e"/>
       <use x="95.410156" xlink:href="#DejaVuSans-30"/>
      </g>
     </g>
    </g>
    <g id="text_10">
     <!-- proportion of trials -->
     <defs>
      <path d="M 18.109375 8.203125 
L 18.109375 -20.796875 
L 9.078125 -20.796875 
L 9.078125 54.6875 
L 18.109375 54.6875 
L 18.109375 46.390625 
Q 20.953125 51.265625 25.265625 53.625 
Q 29.59375 56 35.59375 56 
Q 45.5625 56 51.78125 48.09375 
Q 58.015625 40.1875 58.015625 27.296875 
Q 58.015625 14.40625 51.78125 6.484375 
Q 45.5625 -1.421875 35.59375 -1.421875 
Q 29.59375 -1.421875 25.265625 0.953125 
Q 20.953125 3.328125 18.109375 8.203125 
M 48.6875 27.296875 
Q 48.6875 37.203125 44.609375 42.84375 
Q 40.53125 48.484375 33.40625 48.484375 
Q 26.265625 48.484375 22.1875 42.84375 
Q 18.109375 37.203125 18.109375 27.296875 
Q 18.109375 17.390625 22.1875 11.75 
Q 26.265625 6.109375 33.40625 6.109375 
Q 40.53125 6.109375 44.609375 11.75 
Q 48.6875 17.390625 48.6875 27.296875 
" id="DejaVuSans-70"/>
      <path d="M 41.109375 46.296875 
Q 39.59375 47.171875 37.8125 47.578125 
Q 36.03125 48 33.890625 48 
Q 26.265625 48 22.1875 43.046875 
Q 18.109375 38.09375 18.109375 28.8125 
L 18.109375 0 
L 9.078125 0 
L 9.078125 54.6875 
L 18.109375 54.6875 
L 18.109375 46.1875 
Q 20.953125 51.171875 25.484375 53.578125 
Q 30.03125 56 36.53125 56 
Q 37.453125 56 38.578125 55.875 
Q 39.703125 55.765625 41.0625 55.515625 
z
" id="DejaVuSans-72"/>
      <path d="M 18.3125 70.21875 
L 18.3125 54.6875 
L 36.8125 54.6875 
L 36.8125 47.703125 
L 18.3125 47.703125 
L 18.3125 18.015625 
Q 18.3125 11.328125 20.140625 9.421875 
Q 21.96875 7.515625 27.59375 7.515625 
L 36.8125 7.515625 
L 36.8125 0 
L 27.59375 0 
Q 17.1875 0 13.234375 3.875 
Q 9.28125 7.765625 9.28125 18.015625 
L 9.28125 47.703125 
L 2.6875 47.703125 
L 2.6875 54.6875 
L 9.28125 54.6875 
L 9.28125 70.21875 
z
" id="DejaVuSans-74"/>
      <path d="M 9.421875 54.6875 
L 18.40625 54.6875 
L 18.40625 0 
L 9.421875 0 
z
M 9.421875 75.984375 
L 18.40625 75.984375 
L 18.40625 64.59375 
L 9.421875 64.59375 
z
" id="DejaVuSans-69"/>
      <path d="M 54.890625 33.015625 
L 54.890625 0 
L 45.90625 0 
L 45.90625 32.71875 
Q 45.90625 40.484375 42.875 44.328125 
Q 39.84375 48.1875 33.796875 48.1875 
Q 26.515625 48.1875 22.3125 43.546875 
Q 18.109375 38.921875 18.109375 30.90625 
L 18.109375 0 
L 9.078125 0 
L 9.078125 54.6875 
L 18.109375 54.6875 
L 18.109375 46.1875 
Q 21.34375 51.125 25.703125 53.5625 
Q 30.078125 56 35.796875 56 
Q 45.21875 56 50.046875 50.171875 
Q 54.890625 44.34375 54.890625 33.015625 
" id="DejaVuSans-6e"/>
     </defs>
     <g transform="translate(22.396875 238.44779)rotate(-90)scale(0.2 -0.2)">
      <use xlink:href="#DejaVuSans-70"/>
      <use x="63.476562" xlink:href="#DejaVuSans-72"/>
      <use x="104.558594" xlink:href="#DejaVuSans-6f"/>
      <use x="165.740234" xlink:href="#DejaVuSans-70"/>
      <use x="229.216797" xlink:href="#DejaVuSans-6f"/>
      <use x="290.398438" xlink:href="#DejaVuSans-72"/>
      <use x="331.511719" xlink:href="#DejaVuSans-74"/>
      <use x="370.720703" xlink:href="#DejaVuSans-69"/>
      <use x="398.503906" xlink:href="#DejaVuSans-6f"/>
      <use x="459.685547" xlink:href="#DejaVuSans-6e"/>
      <use x="523.064453" xlink:href="#DejaVuSans-20"/>
      <use x="554.851562" xlink:href="#DejaVuSans-6f"/>
      <use x="616.033203" xlink:href="#DejaVuSans-66"/>
      <use x="651.238281" xlink:href="#DejaVuSans-20"/>
      <use x="683.025391" xlink:href="#DejaVuSans-74"/>
      <use x="722.234375" xlink:href="#DejaVuSans-72"/>
      <use x="763.347656" xlink:href="#DejaVuSans-69"/>
      <use x="791.130859" xlink:href="#DejaVuSans-61"/>
      <use x="852.410156" xlink:href="#DejaVuSans-6c"/>
      <use x="880.193359" xlink:href="#DejaVuSans-73"/>
     </g>
    </g>
   </g>
   <g id="line2d_77">
    <path clip-path="url(#p432ac7df54)" d="M -1 258.954002 
L 4.806085 258.954002 
L 4.806085 257.197487 
L 4.806085 257.197487 
L 4.806085 255.440972 
L 4.806085 255.440972 
L 4.806085 253.684457 
L 4.806085 253.684457 
L 4.806085 251.927942 
L 4.806085 251.927942 
L 4.806085 250.171428 
L 13.75663 250.171428 
L 13.75663 248.414913 
L 21.069759 248.414913 
L 21.069759 246.658398 
L 21.069759 246.658398 
L 21.069759 244.901883 
L 32.609019 244.901883 
L 32.609019 243.145368 
L 37.333433 243.145368 
L 37.333433 241.388853 
L 37.333433 241.388853 
L 37.333433 239.632338 
L 45.382567 239.632338 
L 45.382567 237.875824 
L 48.872694 237.875824 
L 48.872694 236.119309 
L 48.872694 236.119309 
L 48.872694 234.362794 
L 52.083299 234.362794 
L 52.083299 232.606279 
L 52.083299 232.606279 
L 52.083299 230.849764 
L 52.083299 230.849764 
L 52.083299 229.093249 
L 55.055856 229.093249 
L 55.055856 227.336735 
L 76.675628 227.336735 
L 76.675628 225.58022 
L 76.675628 225.58022 
L 76.675628 225.58022 
L 426.4825 225.58022 
" style="fill:none;stroke:#000000;stroke-linecap:square;stroke-width:1.5;"/>
   </g>
   <g id="line2d_78">
    <defs>
     <path d="M -0 14.142136 
L 8.485281 0 
L -0 -14.142136 
L -8.485281 -0 
z
" id="mce4a5ec0c2" style="stroke:#000000;stroke-linejoin:miter;stroke-width:1.5;"/>
    </defs>
    <g clip-path="url(#p432ac7df54)">
     <use style="fill:none;stroke:#000000;stroke-linejoin:miter;stroke-width:1.5;" x="4.806085" xlink:href="#mce4a5ec0c2" y="253.684457"/>
     <use style="fill:none;stroke:#000000;stroke-linejoin:miter;stroke-width:1.5;" x="37.333433" xlink:href="#mce4a5ec0c2" y="241.388853"/>
     <use style="fill:none;stroke:#000000;stroke-linejoin:miter;stroke-width:1.5;" x="76.675628" xlink:href="#mce4a5ec0c2" y="227.336735"/>
     <use style="fill:none;stroke:#000000;stroke-linejoin:miter;stroke-width:1.5;" x="76.675628" xlink:href="#mce4a5ec0c2" y="225.58022"/>
     <use style="fill:none;stroke:#000000;stroke-linejoin:miter;stroke-width:1.5;" x="161.72185" xlink:href="#mce4a5ec0c2" y="225.58022"/>
     <use style="fill:none;stroke:#000000;stroke-linejoin:miter;stroke-width:1.5;" x="254.0812" xlink:href="#mce4a5ec0c2" y="225.58022"/>
     <use style="fill:none;stroke:#000000;stroke-linejoin:miter;stroke-width:1.5;" x="346.440551" xlink:href="#mce4a5ec0c2" y="225.58022"/>
    </g>
   </g>
   <g id="line2d_79"/>
   <g id="line2d_80">
    <path clip-path="url(#p432ac7df54)" d="M -1 257.197487 
L 4.806085 257.197487 
L 4.806085 253.684457 
L 13.75663 253.684457 
L 13.75663 250.171428 
L 21.069759 250.171428 
L 21.069759 246.658398 
L 37.333433 246.658398 
L 37.333433 243.145368 
L 41.559565 243.145368 
L 41.559565 239.632338 
L 52.083299 239.632338 
L 52.083299 236.119309 
L 55.055856 236.119309 
L 55.055856 232.606279 
L 62.843678 232.606279 
L 62.843678 229.093249 
L 69.3625 229.093249 
L 69.3625 225.58022 
L 69.3625 225.58022 
L 69.3625 225.58022 
L 426.4825 225.58022 
" style="fill:none;stroke:#000000;stroke-linecap:square;stroke-width:1.5;"/>
   </g>
   <g id="line2d_81">
    <defs>
     <path d="M 0 7.5 
C 1.989023 7.5 3.896849 6.709753 5.303301 5.303301 
C 6.709753 3.896849 7.5 1.989023 7.5 0 
C 7.5 -1.989023 6.709753 -3.896849 5.303301 -5.303301 
C 3.896849 -6.709753 1.989023 -7.5 0 -7.5 
C -1.989023 -7.5 -3.896849 -6.709753 -5.303301 -5.303301 
C -6.709753 -3.896849 -7.5 -1.989023 -7.5 0 
C -7.5 1.989023 -6.709753 3.896849 -5.303301 5.303301 
C -3.896849 6.709753 -1.989023 7.5 0 7.5 
z
" id="m5c03109d94" style="stroke:#000000;stroke-width:1.5;"/>
    </defs>
    <g clip-path="url(#p432ac7df54)">
     <use style="fill:none;stroke:#000000;stroke-width:1.5;" x="-1" xlink:href="#m5c03109d94" y="259.398364"/>
     <use style="fill:none;stroke:#000000;stroke-width:1.5;" x="4.806085" xlink:href="#m5c03109d94" y="257.197487"/>
     <use style="fill:none;stroke:#000000;stroke-width:1.5;" x="55.055856" xlink:href="#m5c03109d94" y="236.119309"/>
     <use style="fill:none;stroke:#000000;stroke-width:1.5;" x="69.3625" xlink:href="#m5c03109d94" y="225.58022"/>
     <use style="fill:none;stroke:#000000;stroke-width:1.5;" x="69.3625" xlink:href="#m5c03109d94" y="225.58022"/>
     <use style="fill:none;stroke:#000000;stroke-width:1.5;" x="161.72185" xlink:href="#m5c03109d94" y="225.58022"/>
     <use style="fill:none;stroke:#000000;stroke-width:1.5;" x="254.0812" xlink:href="#m5c03109d94" y="225.58022"/>
     <use style="fill:none;stroke:#000000;stroke-width:1.5;" x="346.440551" xlink:href="#m5c03109d94" y="225.58022"/>
    </g>
   </g>
   <g id="line2d_82"/>
   <g id="line2d_83"/>
   <g id="line2d_84"/>
   <g id="line2d_85"/>
   <g id="line2d_86"/>
   <g id="line2d_87"/>
   <g id="line2d_88"/>
   <g id="line2d_89">
    <path clip-path="url(#p432ac7df54)" d="M 409.455533 278.275665 
L 409.455533 12.163665 
" style="fill:none;stroke:#000000;stroke-linecap:square;stroke-width:1.5;"/>
    <defs>
     <path d="M -10 0 
L 10 0 
M 0 10 
L 0 -10 
" id="m144b412a80" style="stroke:#000000;stroke-width:3;"/>
    </defs>
    <g clip-path="url(#p432ac7df54)">
     <use style="stroke:#000000;stroke-width:3;" x="409.455533" xlink:href="#m144b412a80" y="278.275665"/>
     <use style="stroke:#000000;stroke-width:3;" x="409.455533" xlink:href="#m144b412a80" y="12.163665"/>
    </g>
   </g>
   <g id="line2d_90">
    <path clip-path="url(#p432ac7df54)" d="M 409.450114 278.275665 
L 409.450114 12.163665 
" style="fill:none;stroke:#000000;stroke-linecap:square;stroke-width:1.5;"/>
    <defs>
     <path d="M 0 7.5 
C 1.989023 7.5 3.896849 6.709753 5.303301 5.303301 
C 6.709753 3.896849 7.5 1.989023 7.5 0 
C 7.5 -1.989023 6.709753 -3.896849 5.303301 -5.303301 
C 3.896849 -6.709753 1.989023 -7.5 0 -7.5 
C -1.989023 -7.5 -3.896849 -6.709753 -5.303301 -5.303301 
C -6.709753 -3.896849 -7.5 -1.989023 -7.5 0 
C -7.5 1.989023 -6.709753 3.896849 -5.303301 5.303301 
C -3.896849 6.709753 -1.989023 7.5 0 7.5 
z
" id="mebc27e8765" style="stroke:#000000;stroke-width:3;"/>
    </defs>
    <g clip-path="url(#p432ac7df54)">
     <use style="fill:none;stroke:#000000;stroke-width:3;" x="409.450114" xlink:href="#mebc27e8765" y="278.275665"/>
     <use style="fill:none;stroke:#000000;stroke-width:3;" x="409.450114" xlink:href="#mebc27e8765" y="12.163665"/>
    </g>
   </g>
   <g id="patch_3">
    <path d="M 69.3625 278.275665 
L 69.3625 12.163665 
" style="fill:none;stroke:#000000;stroke-linecap:square;stroke-linejoin:miter;stroke-width:0.8;"/>
   </g>
   <g id="patch_4">
    <path d="M 426.4825 278.275665 
L 426.4825 12.163665 
" style="fill:none;stroke:#000000;stroke-linecap:square;stroke-linejoin:miter;stroke-width:0.8;"/>
   </g>
   <g id="patch_5">
    <path d="M 69.3625 278.275665 
L 426.4825 278.275665 
" style="fill:none;stroke:#000000;stroke-linecap:square;stroke-linejoin:miter;stroke-width:0.8;"/>
   </g>
   <g id="patch_6">
    <path d="M 69.3625 12.163665 
L 426.4825 12.163665 
" style="fill:none;stroke:#000000;stroke-linecap:square;stroke-linejoin:miter;stroke-width:0.8;"/>
   </g>
   <g id="text_11">
    <!-- f20-f24 -->
    <defs>
     <path d="M 4.890625 31.390625 
L 31.203125 31.390625 
L 31.203125 23.390625 
L 4.890625 23.390625 
z
" id="DejaVuSans-2d"/>
    </defs>
    <g transform="translate(211.824063 32.68278)scale(0.2 -0.2)">
     <use xlink:href="#DejaVuSans-66"/>
     <use x="35.205078" xlink:href="#DejaVuSans-32"/>
     <use x="98.828125" xlink:href="#DejaVuSans-30"/>
     <use x="162.451172" xlink:href="#DejaVuSans-2d"/>
     <use x="198.535156" xlink:href="#DejaVuSans-66"/>
     <use x="233.740234" xlink:href="#DejaVuSans-32"/>
     <use x="297.363281" xlink:href="#DejaVuSans-34"/>
    </g>
   </g>
   <g id="text_12">
    <!-- absolute targets -->
    <defs>
     <path d="M 48.6875 27.296875 
Q 48.6875 37.203125 44.609375 42.84375 
Q 40.53125 48.484375 33.40625 48.484375 
Q 26.265625 48.484375 22.1875 42.84375 
Q 18.109375 37.203125 18.109375 27.296875 
Q 18.109375 17.390625 22.1875 11.75 
Q 26.265625 6.109375 33.40625 6.109375 
Q 40.53125 6.109375 44.609375 11.75 
Q 48.6875 17.390625 48.6875 27.296875 
M 18.109375 46.390625 
Q 20.953125 51.265625 25.265625 53.625 
Q 29.59375 56 35.59375 56 
Q 45.5625 56 51.78125 48.09375 
Q 58.015625 40.1875 58.015625 27.296875 
Q 58.015625 14.40625 51.78125 6.484375 
Q 45.5625 -1.421875 35.59375 -1.421875 
Q 29.59375 -1.421875 25.265625 0.953125 
Q 20.953125 3.328125 18.109375 8.203125 
L 18.109375 0 
L 9.078125 0 
L 9.078125 75.984375 
L 18.109375 75.984375 
z
" id="DejaVuSans-62"/>
     <path d="M 8.5 21.578125 
L 8.5 54.6875 
L 17.484375 54.6875 
L 17.484375 21.921875 
Q 17.484375 14.15625 20.5 10.265625 
Q 23.53125 6.390625 29.59375 6.390625 
Q 36.859375 6.390625 41.078125 11.03125 
Q 45.3125 15.671875 45.3125 23.6875 
L 45.3125 54.6875 
L 54.296875 54.6875 
L 54.296875 0 
L 45.3125 0 
L 45.3125 8.40625 
Q 42.046875 3.421875 37.71875 1 
Q 33.40625 -1.421875 27.6875 -1.421875 
Q 18.265625 -1.421875 13.375 4.4375 
Q 8.5 10.296875 8.5 21.578125 
M 31.109375 56 
z
" id="DejaVuSans-75"/>
     <path d="M 56.203125 29.59375 
L 56.203125 25.203125 
L 14.890625 25.203125 
Q 15.484375 15.921875 20.484375 11.0625 
Q 25.484375 6.203125 34.421875 6.203125 
Q 39.59375 6.203125 44.453125 7.46875 
Q 49.3125 8.734375 54.109375 11.28125 
L 54.109375 2.78125 
Q 49.265625 0.734375 44.1875 -0.34375 
Q 39.109375 -1.421875 33.890625 -1.421875 
Q 20.796875 -1.421875 13.15625 6.1875 
Q 5.515625 13.8125 5.515625 26.8125 
Q 5.515625 40.234375 12.765625 48.109375 
Q 20.015625 56 32.328125 56 
Q 43.359375 56 49.78125 48.890625 
Q 56.203125 41.796875 56.203125 29.59375 
M 47.21875 32.234375 
Q 47.125 39.59375 43.09375 43.984375 
Q 39.0625 48.390625 32.421875 48.390625 
Q 24.90625 48.390625 20.390625 44.140625 
Q 15.875 39.890625 15.1875 32.171875 
z
" id="DejaVuSans-65"/>
    </defs>
    <g transform="translate(69.3625 287.058239)scale(0.14 -0.14)">
     <use xlink:href="#DejaVuSans-61"/>
     <use x="61.279297" xlink:href="#DejaVuSans-62"/>
     <use x="124.755859" xlink:href="#DejaVuSans-73"/>
     <use x="176.855469" xlink:href="#DejaVuSans-6f"/>
     <use x="238.037109" xlink:href="#DejaVuSans-6c"/>
     <use x="265.820312" xlink:href="#DejaVuSans-75"/>
     <use x="329.199219" xlink:href="#DejaVuSans-74"/>
     <use x="368.408203" xlink:href="#DejaVuSans-65"/>
     <use x="429.931641" xlink:href="#DejaVuSans-20"/>
     <use x="461.71875" xlink:href="#DejaVuSans-74"/>
     <use x="500.927734" xlink:href="#DejaVuSans-61"/>
     <use x="562.207031" xlink:href="#DejaVuSans-72"/>
     <use x="603.304688" xlink:href="#DejaVuSans-67"/>
     <use x="666.78125" xlink:href="#DejaVuSans-65"/>
     <use x="728.304688" xlink:href="#DejaVuSans-74"/>
     <use x="767.513672" xlink:href="#DejaVuSans-73"/>
    </g>
   </g>
   <g id="text_13">
    <!-- v2.1 -->
    <g style="fill:#808080;" transform="translate(237.011563 273.534858)scale(0.1 -0.1)">
     <use xlink:href="#DejaVuSans-76"/>
     <use x="59.179688" xlink:href="#DejaVuSans-32"/>
     <use x="122.802734" xlink:href="#DejaVuSans-2e"/>
     <use x="154.589844" xlink:href="#DejaVuSans-31"/>
    </g>
   </g>
   <g id="legend_1">
    <g id="patch_7">
     <path d="M 83.3625 145.588665 
L 167.303125 145.588665 
Q 171.303125 145.588665 171.303125 141.588665 
L 171.303125 26.163665 
Q 171.303125 22.163665 167.303125 22.163665 
L 83.3625 22.163665 
Q 79.3625 22.163665 79.3625 26.163665 
L 79.3625 141.588665 
Q 79.3625 145.588665 83.3625 145.588665 
z
" style="fill:#ffffff;opacity:0.2;stroke:#cccccc;stroke-linejoin:miter;"/>
    </g>
    <g id="line2d_91">
     <path d="M 87.3625 38.36054 
L 127.3625 38.36054 
" style="fill:none;stroke:#000000;stroke-linecap:square;stroke-width:1.5;"/>
    </g>
    <g id="line2d_92"/>
    <g id="text_14">
     <!-- 1 -->
     <g transform="translate(143.3625 45.36054)scale(0.2 -0.2)">
      <use xlink:href="#DejaVuSans-31"/>
     </g>
    </g>
    <g id="line2d_93">
     <path d="M 87.3625 67.71679 
L 127.3625 67.71679 
" style="fill:none;stroke:#00bfbf;stroke-linecap:square;stroke-width:1.5;"/>
    </g>
    <g id="line2d_94"/>
    <g id="text_15">
     <!-- -1 -->
     <g transform="translate(143.3625 74.71679)scale(0.2 -0.2)">
      <use xlink:href="#DejaVuSans-2d"/>
      <use x="36.083984" xlink:href="#DejaVuSans-31"/>
     </g>
    </g>
    <g id="line2d_95">
     <path d="M 87.3625 97.07304 
L 127.3625 97.07304 
" style="fill:none;stroke:#bf00bf;stroke-linecap:square;stroke-width:1.5;"/>
    </g>
    <g id="line2d_96"/>
    <g id="text_16">
     <!-- -4 -->
     <g transform="translate(143.3625 104.07304)scale(0.2 -0.2)">
      <use xlink:href="#DejaVuSans-2d"/>
      <use x="36.083984" xlink:href="#DejaVuSans-34"/>
     </g>
    </g>
    <g id="line2d_97">
     <path d="M 87.3625 126.42929 
L 127.3625 126.42929 
" style="fill:none;stroke:#ff0000;stroke-linecap:square;stroke-width:3;"/>
    </g>
    <g id="line2d_98"/>
    <g id="text_17">
     <!-- -8 -->
     <g transform="translate(143.3625 133.42929)scale(0.2 -0.2)">
      <use xlink:href="#DejaVuSans-2d"/>
      <use x="36.083984" xlink:href="#DejaVuSans-38"/>
     </g>
    </g>
   </g>
  </g>
 </g>
 <defs>
  <clipPath id="p432ac7df54">
   <rect height="266.112" width="357.12" x="69.3625" y="12.163665"/>
  </clipPath>
 </defs>
</svg>
