<?xml version="1.0" encoding="utf-8" standalone="no"?>
<!DOCTYPE svg PUBLIC "-//W3C//DTD SVG 1.1//EN"
  "http://www.w3.org/Graphics/SVG/1.1/DTD/svg11.dtd">
<!-- Created with matplotlib (http://matplotlib.org/) -->
<svg height="335pt" version="1.1" viewBox="0 0 437 335" width="437pt" xmlns="http://www.w3.org/2000/svg" xmlns:xlink="http://www.w3.org/1999/xlink">
 <defs>
  <style type="text/css">
*{stroke-linecap:butt;stroke-linejoin:round;}
  </style>
 </defs>
 <g id="figure_1">
  <g id="patch_1">
   <path d="M 0 335.188165 
L 437.1825 335.188165 
L 437.1825 0 
L 0 0 
z
" style="fill:#ffffff;"/>
  </g>
  <g id="axes_1">
   <g id="patch_2">
    <path d="M 69.3625 278.275665 
L 426.4825 278.275665 
L 426.4825 12.163665 
L 69.3625 12.163665 
z
" style="fill:#ffffff;"/>
   </g>
   <g id="line2d_1">
    <path clip-path="url(#p2225e4a9d9)" d="M 220.431877 278.275665 
L 220.431877 274.762636 
L 223.639233 274.762636 
L 223.639233 271.249606 
L 224.645302 271.249606 
L 224.645302 267.736576 
L 225.844546 267.736576 
L 225.844546 264.223546 
L 225.99156 264.223546 
L 225.99156 260.710517 
L 226.283721 260.710517 
L 226.283721 257.197487 
L 230.263357 257.197487 
L 230.263357 253.684457 
L 232.031681 253.684457 
L 232.031681 250.171428 
L 234.410195 250.171428 
L 234.410195 246.658398 
L 237.904299 246.658398 
L 237.904299 243.145368 
L 238.876926 243.145368 
L 238.876926 239.632338 
L 244.756233 239.632338 
L 244.756233 236.119309 
L 251.499754 236.119309 
L 251.499754 232.606279 
L 256.234218 232.606279 
L 256.234218 229.093249 
L 256.928871 229.093249 
L 256.928871 225.58022 
L 257.580476 225.58022 
L 257.580476 222.06719 
L 258.248781 222.06719 
L 258.248781 218.55416 
L 258.506806 218.55416 
L 258.506806 215.041131 
L 261.012663 215.041131 
L 261.012663 211.528101 
L 261.826342 211.528101 
L 261.826342 208.015071 
L 273.63673 208.015071 
L 273.63673 204.502041 
L 274.527507 204.502041 
L 274.527507 200.989012 
L 275.622597 200.989012 
L 275.622597 197.475982 
L 277.94195 197.475982 
L 277.94195 193.962952 
L 286.250152 193.962952 
L 286.250152 190.449923 
L 289.941139 190.449923 
L 289.941139 186.936893 
L 292.760571 186.936893 
L 292.760571 183.423863 
L 303.106609 183.423863 
L 303.106609 179.910834 
L 303.106609 179.910834 
L 303.106609 179.910834 
L 426.4825 179.910834 
" style="fill:none;stroke:#f5deb3;stroke-linecap:square;stroke-width:1.5;"/>
   </g>
   <g id="line2d_2">
    <path clip-path="url(#p2225e4a9d9)" d="M 287.774285 278.275665 
L 287.774285 267.736576 
L 303.950047 267.736576 
L 303.950047 257.197487 
L 316.027018 257.197487 
L 316.027018 246.658398 
L 354.724407 246.658398 
L 354.724407 236.119309 
L 382.820583 236.119309 
L 382.820583 225.58022 
L 382.820583 225.58022 
L 382.820583 225.58022 
L 426.4825 225.58022 
" style="fill:none;stroke:#f5deb3;stroke-linecap:square;stroke-width:1.5;"/>
   </g>
   <g id="line2d_3">
    <path clip-path="url(#p2225e4a9d9)" d="M 186.387409 278.275665 
L 186.387409 274.762636 
L 190.524991 274.762636 
L 190.524991 271.249606 
L 223.085092 271.249606 
L 223.085092 267.736576 
L 224.415725 267.736576 
L 224.415725 264.223546 
L 226.428878 264.223546 
L 226.428878 260.710517 
L 232.277055 260.710517 
L 232.277055 257.197487 
L 235.817524 257.197487 
L 235.817524 253.684457 
L 238.876926 253.684457 
L 238.876926 250.171428 
L 241.453407 250.171428 
L 241.453407 246.658398 
L 241.872417 246.658398 
L 241.872417 243.145368 
L 245.762867 243.145368 
L 245.762867 239.632338 
L 247.692029 239.632338 
L 247.692029 236.119309 
L 253.372918 236.119309 
L 253.372918 232.606279 
L 255.023363 232.606279 
L 255.023363 229.093249 
L 261.065742 229.093249 
L 261.065742 225.58022 
L 268.288641 225.58022 
L 268.288641 222.06719 
L 276.071674 222.06719 
L 276.071674 218.55416 
L 285.696484 218.55416 
L 285.696484 215.041131 
L 286.275689 215.041131 
L 286.275689 211.528101 
L 288.102677 211.528101 
L 288.102677 208.015071 
L 291.533428 208.015071 
L 291.533428 204.502041 
L 295.298049 204.502041 
L 295.298049 200.989012 
L 296.094403 200.989012 
L 296.094403 197.475982 
L 307.801016 197.475982 
L 307.801016 193.962952 
L 310.816661 193.962952 
L 310.816661 190.449923 
L 337.303159 190.449923 
L 337.303159 186.936893 
L 339.407702 186.936893 
L 339.407702 183.423863 
L 339.915032 183.423863 
L 339.915032 179.910834 
L 349.264612 179.910834 
L 349.264612 176.397804 
L 363.877043 176.397804 
L 363.877043 172.884774 
L 363.877043 172.884774 
L 363.877043 172.884774 
L 426.4825 172.884774 
" style="fill:none;stroke:#f5deb3;stroke-linecap:square;stroke-width:1.5;"/>
   </g>
   <g id="line2d_4">
    <path clip-path="url(#p2225e4a9d9)" d="M 213.060749 278.275665 
L 213.060749 274.762636 
L 230.968912 274.762636 
L 230.968912 271.249606 
L 231.032343 271.249606 
L 231.032343 267.736576 
L 233.478388 267.736576 
L 233.478388 264.223546 
L 260.746035 264.223546 
L 260.746035 260.710517 
L 261.748433 260.710517 
L 261.748433 257.197487 
L 265.466403 257.197487 
L 265.466403 253.684457 
L 265.699027 253.684457 
L 265.699027 250.171428 
L 269.159316 250.171428 
L 269.159316 246.658398 
L 278.935252 246.658398 
L 278.935252 243.145368 
L 280.221715 243.145368 
L 280.221715 239.632338 
L 282.941356 239.632338 
L 282.941356 236.119309 
L 283.039635 236.119309 
L 283.039635 232.606279 
L 286.504674 232.606279 
L 286.504674 229.093249 
L 287.157767 229.093249 
L 287.157767 225.58022 
L 288.439959 225.58022 
L 288.439959 222.06719 
L 292.675866 222.06719 
L 292.675866 218.55416 
L 305.889555 218.55416 
L 305.889555 215.041131 
L 315.132369 215.041131 
L 315.132369 211.528101 
L 315.533467 211.528101 
L 315.533467 208.015071 
L 320.220136 208.015071 
L 320.220136 204.502041 
L 321.78617 204.502041 
L 321.78617 200.989012 
L 330.599713 200.989012 
L 330.599713 197.475982 
L 333.508133 197.475982 
L 333.508133 193.962952 
L 336.873443 193.962952 
L 336.873443 190.449923 
L 340.199328 190.449923 
L 340.199328 186.936893 
L 351.189359 186.936893 
L 351.189359 183.423863 
L 355.444193 183.423863 
L 355.444193 179.910834 
L 369.290091 179.910834 
L 369.290091 176.397804 
L 370.082701 176.397804 
L 370.082701 172.884774 
L 371.606672 172.884774 
L 371.606672 169.371744 
L 374.399983 169.371744 
L 374.399983 165.858715 
L 379.79725 165.858715 
L 379.79725 162.345685 
L 379.79725 162.345685 
L 379.79725 162.345685 
L 426.4825 162.345685 
" style="fill:none;stroke:#f5deb3;stroke-linecap:square;stroke-width:1.5;"/>
   </g>
   <g id="line2d_5">
    <path clip-path="url(#p2225e4a9d9)" d="M 221.617859 278.275665 
L 221.617859 274.762636 
L 229.741002 274.762636 
L 229.741002 271.249606 
L 260.772791 271.249606 
L 260.772791 267.736576 
L 272.207909 267.736576 
L 272.207909 264.223546 
L 293.689135 264.223546 
L 293.689135 260.710517 
L 307.339924 260.710517 
L 307.339924 257.197487 
L 311.932128 257.197487 
L 311.932128 253.684457 
L 312.794491 253.684457 
L 312.794491 250.171428 
L 313.153392 250.171428 
L 313.153392 246.658398 
L 320.632502 246.658398 
L 320.632502 243.145368 
L 322.981791 243.145368 
L 322.981791 239.632338 
L 322.990593 239.632338 
L 322.990593 236.119309 
L 325.599778 236.119309 
L 325.599778 232.606279 
L 328.369586 232.606279 
L 328.369586 229.093249 
L 330.585595 229.093249 
L 330.585595 225.58022 
L 333.011614 225.58022 
L 333.011614 222.06719 
L 333.11346 222.06719 
L 333.11346 218.55416 
L 334.483371 218.55416 
L 334.483371 215.041131 
L 337.57228 215.041131 
L 337.57228 211.528101 
L 341.445271 211.528101 
L 341.445271 208.015071 
L 345.988465 208.015071 
L 345.988465 204.502041 
L 349.029724 204.502041 
L 349.029724 200.989012 
L 349.381458 200.989012 
L 349.381458 197.475982 
L 360.092256 197.475982 
L 360.092256 193.962952 
L 360.483019 193.962952 
L 360.483019 190.449923 
L 361.505824 190.449923 
L 361.505824 186.936893 
L 363.949542 186.936893 
L 363.949542 183.423863 
L 366.10317 183.423863 
L 366.10317 179.910834 
L 367.052578 179.910834 
L 367.052578 176.397804 
L 371.386867 176.397804 
L 371.386867 172.884774 
L 430.66645 172.884774 
L 430.66645 169.371744 
L 430.66645 169.371744 
" style="fill:none;stroke:#f5deb3;stroke-linecap:square;stroke-width:1.5;"/>
   </g>
   <g id="line2d_6"/>
   <g id="line2d_7">
    <path clip-path="url(#p2225e4a9d9)" d="M 233.947439 278.275665 
L 233.947439 274.762636 
L 239.969878 274.762636 
L 239.969878 271.249606 
L 241.733312 271.249606 
L 241.733312 267.736576 
L 245.388815 267.736576 
L 245.388815 264.223546 
L 253.006339 264.223546 
L 253.006339 260.710517 
L 302.712697 260.710517 
L 302.712697 257.197487 
L 315.467853 257.197487 
L 315.467853 253.684457 
L 318.614553 253.684457 
L 318.614553 250.171428 
L 319.370533 250.171428 
L 319.370533 246.658398 
L 323.166149 246.658398 
L 323.166149 243.145368 
L 332.707579 243.145368 
L 332.707579 239.632338 
L 334.859634 239.632338 
L 334.859634 236.119309 
L 335.973454 236.119309 
L 335.973454 232.606279 
L 336.172156 232.606279 
L 336.172156 229.093249 
L 337.491475 229.093249 
L 337.491475 225.58022 
L 339.108504 225.58022 
L 339.108504 222.06719 
L 343.359358 222.06719 
L 343.359358 218.55416 
L 344.448404 218.55416 
L 344.448404 215.041131 
L 345.579587 215.041131 
L 345.579587 211.528101 
L 351.177706 211.528101 
L 351.177706 208.015071 
L 352.58791 208.015071 
L 352.58791 204.502041 
L 353.980318 204.502041 
L 353.980318 200.989012 
L 357.845699 200.989012 
L 357.845699 197.475982 
L 361.040559 197.475982 
L 361.040559 193.962952 
L 364.354866 193.962952 
L 364.354866 190.449923 
L 374.770397 190.449923 
L 374.770397 186.936893 
L 374.893641 186.936893 
L 374.893641 183.423863 
L 379.54138 183.423863 
L 379.54138 179.910834 
L 393.880427 179.910834 
L 393.880427 176.397804 
L 395.888331 176.397804 
L 395.888331 172.884774 
L 397.448815 172.884774 
L 397.448815 169.371744 
L 404.038424 169.371744 
L 404.038424 165.858715 
L 406.263741 165.858715 
L 406.263741 162.345685 
L 406.888091 162.345685 
L 406.888091 158.832655 
L 415.290787 158.832655 
L 415.290787 155.319626 
L 417.508383 155.319626 
L 417.508383 151.806596 
L 423.072007 151.806596 
L 423.072007 148.293566 
L 427.773781 148.293566 
L 427.773781 144.780537 
L 431.002535 144.780537 
L 431.002535 141.267507 
L 432.148672 141.267507 
L 432.148672 137.754477 
L 434.049025 137.754477 
L 434.049025 134.241447 
L 436.572894 134.241447 
L 436.572894 130.728418 
L 438.1825 130.728418 
" style="fill:none;stroke:#f5deb3;stroke-linecap:square;stroke-width:1.5;"/>
   </g>
   <g id="line2d_8">
    <path clip-path="url(#p2225e4a9d9)" d="M 349.194725 278.275665 
L 349.194725 274.762636 
L 355.213419 274.762636 
L 355.213419 271.249606 
L 357.699704 271.249606 
L 357.699704 267.736576 
L 359.857467 267.736576 
L 359.857467 264.223546 
L 360.408787 264.223546 
L 360.408787 260.710517 
L 361.244251 260.710517 
L 361.244251 257.197487 
L 364.916256 257.197487 
L 364.916256 253.684457 
L 386.395249 253.684457 
L 386.395249 250.171428 
L 386.559218 250.171428 
L 386.559218 246.658398 
L 386.576615 246.658398 
L 386.576615 243.145368 
L 387.415124 243.145368 
L 387.415124 239.632338 
L 388.165357 239.632338 
L 388.165357 236.119309 
L 388.782994 236.119309 
L 388.782994 232.606279 
L 413.023562 232.606279 
L 413.023562 229.093249 
L 413.389252 229.093249 
L 413.389252 225.58022 
L 413.433654 225.58022 
L 413.433654 222.06719 
L 414.239799 222.06719 
L 414.239799 218.55416 
L 414.503863 218.55416 
L 414.503863 215.041131 
L 422.586825 215.041131 
L 422.586825 211.528101 
L 423.317813 211.528101 
L 423.317813 208.015071 
L 438.1825 208.015071 
" style="fill:none;stroke:#f5deb3;stroke-linecap:square;stroke-width:1.5;"/>
   </g>
   <g id="line2d_9">
    <path clip-path="url(#p2225e4a9d9)" d="M 225.770803 278.275665 
L 225.770803 274.762636 
L 229.937813 274.762636 
L 229.937813 271.249606 
L 241.07663 271.249606 
L 241.07663 267.736576 
L 241.964843 267.736576 
L 241.964843 264.223546 
L 275.570402 264.223546 
L 275.570402 260.710517 
L 279.638683 260.710517 
L 279.638683 257.197487 
L 283.747333 257.197487 
L 283.747333 253.684457 
L 286.895506 253.684457 
L 286.895506 250.171428 
L 292.173979 250.171428 
L 292.173979 246.658398 
L 305.247738 246.658398 
L 305.247738 243.145368 
L 306.413051 243.145368 
L 306.413051 239.632338 
L 306.441507 239.632338 
L 306.441507 236.119309 
L 316.54014 236.119309 
L 316.54014 232.606279 
L 319.189228 232.606279 
L 319.189228 229.093249 
L 328.695547 229.093249 
L 328.695547 225.58022 
L 332.494483 225.58022 
L 332.494483 222.06719 
L 334.772206 222.06719 
L 334.772206 218.55416 
L 336.160146 218.55416 
L 336.160146 215.041131 
L 339.769295 215.041131 
L 339.769295 211.528101 
L 342.007428 211.528101 
L 342.007428 208.015071 
L 345.038371 208.015071 
L 345.038371 204.502041 
L 345.040692 204.502041 
L 345.040692 200.989012 
L 347.611625 200.989012 
L 347.611625 197.475982 
L 352.384055 197.475982 
L 352.384055 193.962952 
L 354.706876 193.962952 
L 354.706876 190.449923 
L 357.073463 190.449923 
L 357.073463 186.936893 
L 360.192606 186.936893 
L 360.192606 183.423863 
L 367.717816 183.423863 
L 367.717816 179.910834 
L 369.028345 179.910834 
L 369.028345 176.397804 
L 370.309837 176.397804 
L 370.309837 172.884774 
L 377.446613 172.884774 
L 377.446613 169.371744 
L 379.213895 169.371744 
L 379.213895 165.858715 
L 383.73241 165.858715 
L 383.73241 162.345685 
L 393.650562 162.345685 
L 393.650562 158.832655 
L 393.798145 158.832655 
L 393.798145 155.319626 
L 395.219668 155.319626 
L 395.219668 151.806596 
L 398.60961 151.806596 
L 398.60961 148.293566 
L 401.162713 148.293566 
L 401.162713 144.780537 
L 402.186392 144.780537 
L 402.186392 141.267507 
L 402.343521 141.267507 
L 402.343521 137.754477 
L 406.258632 137.754477 
L 406.258632 134.241447 
L 406.47533 134.241447 
L 406.47533 130.728418 
L 408.987441 130.728418 
L 408.987441 127.215388 
L 409.838669 127.215388 
L 409.838669 123.702358 
L 417.501859 123.702358 
L 417.501859 120.189329 
L 419.610865 120.189329 
L 419.610865 116.676299 
L 419.660999 116.676299 
L 419.660999 113.163269 
L 419.906349 113.163269 
L 419.906349 109.650239 
L 419.935442 109.650239 
L 419.935442 106.13721 
L 420.777905 106.13721 
L 420.777905 102.62418 
L 421.918462 102.62418 
L 421.918462 99.11115 
L 422.682652 99.11115 
L 422.682652 95.598121 
L 422.744358 95.598121 
L 422.744358 92.085091 
L 424.112403 92.085091 
L 424.112403 88.572061 
L 425.046955 88.572061 
L 425.046955 85.059032 
L 425.256927 85.059032 
L 425.256927 81.546002 
L 430.696647 81.546002 
L 430.696647 78.032972 
L 434.519443 78.032972 
L 434.519443 74.519942 
L 438.1825 74.519942 
" style="fill:none;stroke:#f5deb3;stroke-linecap:square;stroke-width:1.5;"/>
   </g>
   <g id="line2d_10">
    <path clip-path="url(#p2225e4a9d9)" d="M 334.322207 278.275665 
L 334.322207 274.762636 
L 349.278983 274.762636 
L 349.278983 271.249606 
L 353.375086 271.249606 
L 353.375086 267.736576 
L 356.562154 267.736576 
L 356.562154 264.223546 
L 366.648177 264.223546 
L 366.648177 260.710517 
L 368.796073 260.710517 
L 368.796073 257.197487 
L 369.939837 257.197487 
L 369.939837 253.684457 
L 370.801472 253.684457 
L 370.801472 250.171428 
L 373.971435 250.171428 
L 373.971435 246.658398 
L 400.100187 246.658398 
L 400.100187 243.145368 
L 407.772889 243.145368 
L 407.772889 239.632338 
L 410.915467 239.632338 
L 410.915467 236.119309 
L 414.864369 236.119309 
L 414.864369 232.606279 
L 418.208917 232.606279 
L 418.208917 229.093249 
L 420.01044 229.093249 
L 420.01044 225.58022 
L 420.173866 225.58022 
L 420.173866 222.06719 
L 438.1825 222.06719 
" style="fill:none;stroke:#f5deb3;stroke-linecap:square;stroke-width:1.5;"/>
   </g>
   <g id="line2d_11">
    <path clip-path="url(#p2225e4a9d9)" d="M 284.961834 278.275665 
L 284.961834 274.762636 
L 313.986101 274.762636 
L 313.986101 271.249606 
L 327.080946 271.249606 
L 327.080946 267.736576 
L 333.290154 267.736576 
L 333.290154 264.223546 
L 336.27108 264.223546 
L 336.27108 260.710517 
L 339.396768 260.710517 
L 339.396768 257.197487 
L 340.573899 257.197487 
L 340.573899 253.684457 
L 341.699377 253.684457 
L 341.699377 250.171428 
L 350.44342 250.171428 
L 350.44342 246.658398 
L 351.966997 246.658398 
L 351.966997 243.145368 
L 352.020117 243.145368 
L 352.020117 239.632338 
L 354.137558 239.632338 
L 354.137558 236.119309 
L 359.868036 236.119309 
L 359.868036 232.606279 
L 360.265812 232.606279 
L 360.265812 229.093249 
L 362.983913 229.093249 
L 362.983913 225.58022 
L 363.613963 225.58022 
L 363.613963 222.06719 
L 364.118117 222.06719 
L 364.118117 218.55416 
L 364.521475 218.55416 
L 364.521475 215.041131 
L 365.263991 215.041131 
L 365.263991 211.528101 
L 369.376136 211.528101 
L 369.376136 208.015071 
L 379.96032 208.015071 
L 379.96032 204.502041 
L 380.549518 204.502041 
L 380.549518 200.989012 
L 382.443814 200.989012 
L 382.443814 197.475982 
L 386.226281 197.475982 
L 386.226281 193.962952 
L 387.43956 193.962952 
L 387.43956 190.449923 
L 389.195567 190.449923 
L 389.195567 186.936893 
L 398.019124 186.936893 
L 398.019124 183.423863 
L 399.08528 183.423863 
L 399.08528 179.910834 
L 399.188705 179.910834 
L 399.188705 176.397804 
L 401.620838 176.397804 
L 401.620838 172.884774 
L 405.446038 172.884774 
L 405.446038 169.371744 
L 424.163888 169.371744 
L 424.163888 165.858715 
L 438.1825 165.858715 
" style="fill:none;stroke:#f5deb3;stroke-linecap:square;stroke-width:1.5;"/>
   </g>
   <g id="line2d_12">
    <path clip-path="url(#p2225e4a9d9)" d="M 228.874923 278.275665 
L 228.874923 274.762636 
L 231.970064 274.762636 
L 231.970064 271.249606 
L 233.419305 271.249606 
L 233.419305 267.736576 
L 246.051016 267.736576 
L 246.051016 264.223546 
L 246.296099 264.223546 
L 246.296099 260.710517 
L 259.520015 260.710517 
L 259.520015 257.197487 
L 261.303591 257.197487 
L 261.303591 253.684457 
L 262.545127 253.684457 
L 262.545127 250.171428 
L 263.298979 250.171428 
L 263.298979 246.658398 
L 267.637335 246.658398 
L 267.637335 243.145368 
L 273.655142 243.145368 
L 273.655142 239.632338 
L 275.483235 239.632338 
L 275.483235 236.119309 
L 276.818571 236.119309 
L 276.818571 232.606279 
L 278.490204 232.606279 
L 278.490204 229.093249 
L 278.586057 229.093249 
L 278.586057 225.58022 
L 278.776965 225.58022 
L 278.776965 222.06719 
L 280.449172 222.06719 
L 280.449172 218.55416 
L 284.305917 218.55416 
L 284.305917 215.041131 
L 291.653759 215.041131 
L 291.653759 211.528101 
L 299.213099 211.528101 
L 299.213099 208.015071 
L 307.040716 208.015071 
L 307.040716 204.502041 
L 311.035193 204.502041 
L 311.035193 200.989012 
L 314.411966 200.989012 
L 314.411966 197.475982 
L 316.704218 197.475982 
L 316.704218 193.962952 
L 327.612203 193.962952 
L 327.612203 190.449923 
L 332.350566 190.449923 
L 332.350566 186.936893 
L 337.707492 186.936893 
L 337.707492 183.423863 
L 338.322164 183.423863 
L 338.322164 179.910834 
L 349.17826 179.910834 
L 349.17826 176.397804 
L 349.620067 176.397804 
L 349.620067 172.884774 
L 349.620067 172.884774 
L 349.620067 172.884774 
L 426.4825 172.884774 
" style="fill:none;stroke:#f5deb3;stroke-linecap:square;stroke-width:1.5;"/>
   </g>
   <g id="line2d_13">
    <path clip-path="url(#p2225e4a9d9)" d="M 285.107381 278.275665 
L 285.107381 274.762636 
L 297.03197 274.762636 
L 297.03197 271.249606 
L 301.552417 271.249606 
L 301.552417 267.736576 
L 302.577735 267.736576 
L 302.577735 264.223546 
L 307.242792 264.223546 
L 307.242792 260.710517 
L 310.997828 260.710517 
L 310.997828 257.197487 
L 314.088789 257.197487 
L 314.088789 253.684457 
L 314.33287 253.684457 
L 314.33287 250.171428 
L 314.33287 250.171428 
L 314.33287 246.658398 
L 316.52422 246.658398 
L 316.52422 243.145368 
L 329.044304 243.145368 
L 329.044304 239.632338 
L 329.044304 239.632338 
L 329.044304 239.632338 
L 426.4825 239.632338 
" style="fill:none;stroke:#f5deb3;stroke-linecap:square;stroke-width:1.5;"/>
   </g>
   <g id="line2d_14">
    <path clip-path="url(#p2225e4a9d9)" d="M 197.554818 278.275665 
L 197.554818 274.762636 
L 207.262763 274.762636 
L 207.262763 271.249606 
L 258.847862 271.249606 
L 258.847862 267.736576 
L 291.762787 267.736576 
L 291.762787 264.223546 
L 299.812977 264.223546 
L 299.812977 260.710517 
L 303.873521 260.710517 
L 303.873521 257.197487 
L 304.95943 257.197487 
L 304.95943 253.684457 
L 311.523416 253.684457 
L 311.523416 250.171428 
L 312.312069 250.171428 
L 312.312069 246.658398 
L 316.582558 246.658398 
L 316.582558 243.145368 
L 318.96743 243.145368 
L 318.96743 239.632338 
L 319.443764 239.632338 
L 319.443764 236.119309 
L 319.710955 236.119309 
L 319.710955 232.606279 
L 321.479522 232.606279 
L 321.479522 229.093249 
L 324.116046 229.093249 
L 324.116046 225.58022 
L 327.527441 225.58022 
L 327.527441 222.06719 
L 330.821303 222.06719 
L 330.821303 218.55416 
L 347.393355 218.55416 
L 347.393355 215.041131 
L 347.882 215.041131 
L 347.882 211.528101 
L 349.104072 211.528101 
L 349.104072 208.015071 
L 349.889316 208.015071 
L 349.889316 204.502041 
L 359.321736 204.502041 
L 359.321736 200.989012 
L 362.515938 200.989012 
L 362.515938 197.475982 
L 366.457904 197.475982 
L 366.457904 193.962952 
L 368.703893 193.962952 
L 368.703893 190.449923 
L 371.694632 190.449923 
L 371.694632 186.936893 
L 380.876928 186.936893 
L 380.876928 183.423863 
L 380.876928 183.423863 
L 380.876928 183.423863 
L 426.4825 183.423863 
" style="fill:none;stroke:#f5deb3;stroke-linecap:square;stroke-width:1.5;"/>
   </g>
   <g id="line2d_15">
    <path clip-path="url(#p2225e4a9d9)" d="M 397.281425 278.275665 
L 397.281425 274.762636 
L 398.841929 274.762636 
L 398.841929 271.249606 
L 401.295072 271.249606 
L 401.295072 267.736576 
L 404.115478 267.736576 
L 404.115478 264.223546 
L 406.366563 264.223546 
L 406.366563 260.710517 
L 409.882577 260.710517 
L 409.882577 257.197487 
L 412.309702 257.197487 
L 412.309702 253.684457 
L 416.35617 253.684457 
L 416.35617 250.171428 
L 421.893244 250.171428 
L 421.893244 246.658398 
L 424.64482 246.658398 
L 424.64482 243.145368 
L 424.922277 243.145368 
L 424.922277 239.632338 
L 429.205624 239.632338 
L 429.205624 236.119309 
L 429.924983 236.119309 
L 429.924983 232.606279 
L 429.971844 232.606279 
L 429.971844 229.093249 
L 430.584439 229.093249 
L 430.584439 225.58022 
L 431.496627 225.58022 
L 431.496627 222.06719 
L 433.337053 222.06719 
L 433.337053 218.55416 
L 436.505607 218.55416 
L 436.505607 215.041131 
L 438.1825 215.041131 
" style="fill:none;stroke:#f5deb3;stroke-linecap:square;stroke-width:1.5;"/>
   </g>
   <g id="line2d_16">
    <path clip-path="url(#p2225e4a9d9)" d="M 290.249614 278.275665 
L 290.249614 274.762636 
L 360.517112 274.762636 
L 360.517112 271.249606 
L 383.235463 271.249606 
L 383.235463 267.736576 
L 384.014587 267.736576 
L 384.014587 264.223546 
L 391.027028 264.223546 
L 391.027028 260.710517 
L 397.394464 260.710517 
L 397.394464 257.197487 
L 412.454844 257.197487 
L 412.454844 253.684457 
L 420.576608 253.684457 
L 420.576608 250.171428 
L 421.637784 250.171428 
L 421.637784 246.658398 
L 423.549978 246.658398 
L 423.549978 243.145368 
L 430.000286 243.145368 
L 430.000286 239.632338 
L 434.021804 239.632338 
L 434.021804 236.119309 
L 436.486638 236.119309 
L 436.486638 232.606279 
L 437.660162 232.606279 
L 437.660162 229.093249 
L 438.1825 229.093249 
" style="fill:none;stroke:#f5deb3;stroke-linecap:square;stroke-width:1.5;"/>
   </g>
   <g id="line2d_17">
    <path clip-path="url(#p2225e4a9d9)" d="M 298.477396 278.275665 
L 298.477396 274.762636 
L 300.537891 274.762636 
L 300.537891 271.249606 
L 316.904286 271.249606 
L 316.904286 267.736576 
L 379.384884 267.736576 
L 379.384884 264.223546 
L 412.392715 264.223546 
L 412.392715 260.710517 
L 412.392715 260.710517 
L 412.392715 260.710517 
L 426.4825 260.710517 
" style="fill:none;stroke:#f5deb3;stroke-linecap:square;stroke-width:1.5;"/>
   </g>
   <g id="line2d_18">
    <path clip-path="url(#p2225e4a9d9)" d="M 206.367264 278.275665 
L 206.367264 274.762636 
L 222.683751 274.762636 
L 222.683751 271.249606 
L 229.476826 271.249606 
L 229.476826 267.736576 
L 230.905364 267.736576 
L 230.905364 264.223546 
L 231.221939 264.223546 
L 231.221939 260.710517 
L 241.733312 260.710517 
L 241.733312 257.197487 
L 248.196452 257.197487 
L 248.196452 253.684457 
L 249.444716 253.684457 
L 249.444716 250.171428 
L 251.951774 250.171428 
L 251.951774 246.658398 
L 255.462938 246.658398 
L 255.462938 243.145368 
L 262.924113 243.145368 
L 262.924113 239.632338 
L 263.694393 239.632338 
L 263.694393 236.119309 
L 265.161626 236.119309 
L 265.161626 232.606279 
L 265.675835 232.606279 
L 265.675835 229.093249 
L 275.761399 229.093249 
L 275.761399 225.58022 
L 277.285581 225.58022 
L 277.285581 222.06719 
L 277.64813 222.06719 
L 277.64813 218.55416 
L 278.071738 218.55416 
L 278.071738 215.041131 
L 278.935252 215.041131 
L 278.935252 211.528101 
L 289.010589 211.528101 
L 289.010589 208.015071 
L 289.641457 208.015071 
L 289.641457 204.502041 
L 294.623413 204.502041 
L 294.623413 200.989012 
L 297.21832 200.989012 
L 297.21832 197.475982 
L 302.973183 197.475982 
L 302.973183 193.962952 
L 311.847125 193.962952 
L 311.847125 190.449923 
L 315.137895 190.449923 
L 315.137895 186.936893 
L 317.969109 186.936893 
L 317.969109 183.423863 
L 321.940745 183.423863 
L 321.940745 179.910834 
L 336.006651 179.910834 
L 336.006651 176.397804 
L 341.51733 176.397804 
L 341.51733 172.884774 
L 341.51733 172.884774 
L 341.51733 172.884774 
L 426.4825 172.884774 
" style="fill:none;stroke:#f5deb3;stroke-linecap:square;stroke-width:1.5;"/>
   </g>
   <g id="line2d_19">
    <path clip-path="url(#p2225e4a9d9)" d="M 332.674369 278.275665 
L 332.674369 276.99041 
L 332.674369 276.99041 
L 332.674369 276.99041 
L 332.674369 275.705156 
L 332.674369 275.705156 
L 332.674369 275.705156 
L 332.674369 274.419901 
L 335.819123 274.419901 
L 335.819123 270.564137 
L 338.828928 270.564137 
L 338.828928 266.708372 
L 342.560565 266.708372 
L 342.560565 262.852608 
L 343.473711 262.852608 
L 343.473711 258.996844 
L 343.759148 258.996844 
L 343.759148 255.141079 
L 346.568413 255.141079 
L 346.568413 251.285315 
L 346.699172 251.285315 
L 346.699172 247.429551 
L 347.336942 247.429551 
L 347.336942 243.573786 
L 348.75365 243.573786 
L 348.75365 239.718022 
L 350.536561 239.718022 
L 350.536561 235.862258 
L 351.144666 235.862258 
L 351.144666 232.006494 
L 351.294063 232.006494 
L 351.294063 228.150729 
L 351.66379 228.150729 
L 351.66379 224.294965 
L 353.493352 224.294965 
L 353.493352 220.439201 
L 359.496153 220.439201 
L 359.496153 216.583436 
L 360.812161 216.583436 
L 360.812161 212.727672 
L 365.703983 212.727672 
L 365.703983 208.871908 
L 369.215344 208.871908 
L 369.215344 205.016143 
L 370.313183 205.016143 
L 370.313183 201.160379 
L 370.971464 201.160379 
L 370.971464 197.304615 
L 371.29595 197.304615 
L 371.298118 189.593086 
L 373.64801 189.593086 
L 373.713746 181.881558 
L 374.958996 181.881558 
L 374.958996 178.025793 
L 377.604918 178.025793 
L 377.604918 174.170029 
L 380.312542 174.170029 
L 380.312542 170.314265 
L 381.438685 170.314265 
L 381.438685 166.4585 
L 381.584541 166.4585 
L 381.584541 162.602736 
L 389.900845 162.602736 
L 389.900845 158.746972 
L 391.362313 158.746972 
L 391.390157 151.035443 
L 392.526883 151.035443 
L 392.526883 147.179679 
L 393.835365 147.179679 
L 393.835365 143.323914 
L 395.13944 143.323914 
L 395.13944 139.46815 
L 395.446869 139.46815 
L 395.446869 135.612386 
L 397.776148 135.612386 
L 397.776148 131.756622 
L 398.148678 131.756622 
L 398.148678 127.900857 
L 399.171811 127.900857 
L 399.171811 124.045093 
L 399.359113 124.045093 
L 399.359113 120.189329 
L 408.692736 120.189329 
L 408.692736 116.333564 
L 409.912643 116.333564 
L 409.912643 112.4778 
L 414.863756 112.4778 
L 414.863756 108.622036 
L 438.1825 108.622036 
L 438.1825 108.622036 
" style="fill:none;stroke:#f5deb3;stroke-linecap:square;stroke-width:1.5;"/>
   </g>
   <g id="line2d_20">
    <path clip-path="url(#p2225e4a9d9)" d="M 202.241858 278.275665 
L 202.241858 274.762636 
L 202.241858 274.762636 
L 202.241858 271.249606 
L 205.844909 271.249606 
L 205.844909 267.736576 
L 207.764224 267.736576 
L 207.764224 264.223546 
L 219.114209 264.223546 
L 219.114209 260.710517 
L 234.866821 260.710517 
L 234.866821 257.197487 
L 238.826414 257.197487 
L 238.826414 253.684457 
L 244.883681 253.684457 
L 244.883681 250.171428 
L 252.329678 250.171428 
L 252.329678 246.658398 
L 260.82624 246.658398 
L 260.82624 243.145368 
L 261.981634 243.145368 
L 261.981634 239.632338 
L 263.768031 239.632338 
L 263.768031 236.119309 
L 265.161626 236.119309 
L 265.161626 232.606279 
L 268.116159 232.606279 
L 268.116159 229.093249 
L 268.202508 229.093249 
L 268.202508 225.58022 
L 274.021314 225.58022 
L 274.021314 222.06719 
L 276.768157 222.06719 
L 276.768157 218.55416 
L 277.384836 218.55416 
L 277.384836 215.041131 
L 278.006905 215.041131 
L 278.006905 211.528101 
L 278.887842 211.528101 
L 278.887842 208.015071 
L 281.652162 208.015071 
L 281.652162 204.502041 
L 284.882185 204.502041 
L 284.882185 200.989012 
L 290.317791 200.989012 
L 290.317791 197.475982 
L 290.329141 197.475982 
L 290.329141 193.962952 
L 291.730115 193.962952 
L 291.730115 190.449923 
L 301.264406 190.449923 
L 301.264406 186.936893 
L 302.258078 186.936893 
L 302.258078 183.423863 
L 303.581165 183.423863 
L 303.581165 179.910834 
L 320.580635 179.910834 
L 320.580635 176.397804 
L 322.063004 176.397804 
L 322.063004 172.884774 
L 408.14296 172.884774 
L 408.14296 169.371744 
L 408.14296 169.371744 
L 408.14296 169.371744 
L 426.4825 169.371744 
" style="fill:none;stroke:#f5deb3;stroke-linecap:square;stroke-width:1.5;"/>
   </g>
   <g id="line2d_21">
    <path clip-path="url(#p2225e4a9d9)" d="M 352.582315 278.275665 
L 352.582315 274.762636 
L 370.646103 274.762636 
L 370.646103 271.249606 
L 376.706118 271.249606 
L 376.706118 267.736576 
L 376.706118 267.736576 
L 376.706118 267.736576 
L 426.4825 267.736576 
" style="fill:none;stroke:#f5deb3;stroke-linecap:square;stroke-width:1.5;"/>
   </g>
   <g id="line2d_22">
    <path clip-path="url(#p2225e4a9d9)" d="M 189.483378 278.275665 
L 189.483378 274.762636 
L 194.76746 274.762636 
L 194.76746 271.249606 
L 201.652531 271.249606 
L 201.652531 267.736576 
L 202.532786 267.736576 
L 202.532786 264.223546 
L 207.764224 264.223546 
L 207.764224 260.710517 
L 210.628828 260.710517 
L 210.628828 257.197487 
L 253.964492 257.197487 
L 253.964492 253.684457 
L 275.622597 253.684457 
L 275.622597 250.171428 
L 277.384836 250.171428 
L 277.384836 246.658398 
L 280.645095 246.658398 
L 280.645095 243.145368 
L 282.701506 243.145368 
L 282.701506 239.632338 
L 289.186991 239.632338 
L 289.186991 236.119309 
L 292.141694 236.119309 
L 292.141694 232.606279 
L 298.807301 232.606279 
L 298.807301 229.093249 
L 302.59364 229.093249 
L 302.59364 225.58022 
L 306.647116 225.58022 
L 306.647116 222.06719 
L 323.70907 222.06719 
L 323.70907 218.55416 
L 324.209612 218.55416 
L 324.209612 215.041131 
L 327.077038 215.041131 
L 327.077038 211.528101 
L 328.203551 211.528101 
L 328.203551 208.015071 
L 330.947289 208.015071 
L 330.947289 204.502041 
L 338.975919 204.502041 
L 338.975919 200.989012 
L 347.691241 200.989012 
L 347.691241 197.475982 
L 353.289316 197.475982 
L 353.289316 193.962952 
L 354.017906 193.962952 
L 354.017906 190.449923 
L 354.659497 190.449923 
L 354.659497 186.936893 
L 366.59605 186.936893 
L 366.59605 183.423863 
L 375.639279 183.423863 
L 375.639279 179.910834 
L 381.340023 179.910834 
L 381.340023 176.397804 
L 390.070376 176.397804 
L 390.070376 172.884774 
L 392.8114 172.884774 
L 392.8114 169.371744 
L 396.649362 169.371744 
L 396.649362 165.858715 
L 401.855232 165.858715 
L 401.855232 162.345685 
L 404.849681 162.345685 
L 404.849681 158.832655 
L 407.149564 158.832655 
L 407.149564 155.319626 
L 417.818148 155.319626 
L 417.818148 151.806596 
L 418.824859 151.806596 
L 418.824859 148.293566 
L 422.15798 148.293566 
L 422.15798 144.780537 
L 431.878079 144.780537 
L 431.878079 141.267507 
L 438.1825 141.267507 
" style="fill:none;stroke:#f5deb3;stroke-linecap:square;stroke-width:1.5;"/>
   </g>
   <g id="line2d_23">
    <path clip-path="url(#p2225e4a9d9)" d="M 292.281377 278.275665 
L 292.281377 274.762636 
L 297.689005 274.762636 
L 297.689005 271.249606 
L 300.164545 271.249606 
L 300.164545 267.736576 
L 300.832011 267.736576 
L 300.832011 264.223546 
L 302.097131 264.223546 
L 302.097131 260.710517 
L 304.623744 260.710517 
L 304.623744 257.197487 
L 317.605809 257.197487 
L 317.605809 253.684457 
L 320.937404 253.684457 
L 320.937404 250.171428 
L 321.128348 250.171428 
L 321.128348 246.658398 
L 322.538835 246.658398 
L 322.538835 243.145368 
L 328.918565 243.145368 
L 328.918565 239.632338 
L 331.343236 239.632338 
L 331.343236 236.119309 
L 336.776235 236.119309 
L 336.776235 232.606279 
L 342.227231 232.606279 
L 342.227231 229.093249 
L 344.472009 229.093249 
L 344.472009 225.58022 
L 348.726547 225.58022 
L 348.726547 222.06719 
L 360.182136 222.06719 
L 360.182136 218.55416 
L 360.213538 218.55416 
L 360.213538 215.041131 
L 362.577401 215.041131 
L 362.577401 211.528101 
L 366.755905 211.528101 
L 366.755905 208.015071 
L 381.122296 208.015071 
L 381.122296 204.502041 
L 381.122296 204.502041 
L 381.122296 204.502041 
L 426.4825 204.502041 
" style="fill:none;stroke:#f5deb3;stroke-linecap:square;stroke-width:1.5;"/>
   </g>
   <g id="line2d_24">
    <path clip-path="url(#p2225e4a9d9)" d="M 255.587508 278.275665 
L 255.587508 274.762636 
L 256.749003 274.762636 
L 256.749003 271.249606 
L 262.238909 271.249606 
L 262.238909 267.736576 
L 263.174476 267.736576 
L 263.174476 264.223546 
L 268.417439 264.223546 
L 268.417439 260.710517 
L 269.201231 260.710517 
L 269.201231 257.197487 
L 277.069542 257.197487 
L 277.069542 253.684457 
L 297.679837 253.684457 
L 297.679837 250.171428 
L 320.419825 250.171428 
L 320.419825 246.658398 
L 321.211845 246.658398 
L 321.211845 243.145368 
L 322.386925 243.145368 
L 322.386925 239.632338 
L 323.553583 239.632338 
L 323.553583 236.119309 
L 325.110882 236.119309 
L 325.110882 232.606279 
L 325.843675 232.606279 
L 325.843675 229.093249 
L 326.041586 229.093249 
L 326.041586 225.58022 
L 328.316843 225.58022 
L 328.316843 222.06719 
L 335.909989 222.06719 
L 335.909989 218.55416 
L 336.533496 218.55416 
L 336.533496 215.041131 
L 337.485696 215.041131 
L 337.485696 211.528101 
L 345.736897 211.528101 
L 345.736897 208.015071 
L 350.471191 208.015071 
L 350.471191 204.502041 
L 351.433176 204.502041 
L 351.433176 200.989012 
L 352.539393 200.989012 
L 352.539393 197.475982 
L 352.692176 197.475982 
L 352.692176 193.962952 
L 354.899228 193.962952 
L 354.899228 190.449923 
L 360.497846 190.449923 
L 360.497846 186.936893 
L 361.973417 186.936893 
L 361.973417 183.423863 
L 362.525724 183.423863 
L 362.525724 179.910834 
L 367.609439 179.910834 
L 367.609439 176.397804 
L 370.806969 176.397804 
L 370.806969 172.884774 
L 372.324136 172.884774 
L 372.324136 169.371744 
L 376.093944 169.371744 
L 376.093944 165.858715 
L 377.469273 165.858715 
L 377.469273 162.345685 
L 381.336784 162.345685 
L 381.336784 158.832655 
L 386.641952 158.832655 
L 386.641952 155.319626 
L 387.892543 155.319626 
L 387.892543 151.806596 
L 392.470635 151.806596 
L 392.470635 148.293566 
L 406.136556 148.293566 
L 406.136556 144.780537 
L 408.257032 144.780537 
L 408.257032 141.267507 
L 410.365049 141.267507 
L 410.365049 137.754477 
L 419.442864 137.754477 
L 419.442864 134.241447 
L 422.750937 134.241447 
L 422.750937 130.728418 
L 438.1825 130.728418 
" style="fill:none;stroke:#f5deb3;stroke-linecap:square;stroke-width:1.5;"/>
   </g>
   <g id="line2d_25">
    <path clip-path="url(#p2225e4a9d9)" d="M 369.614787 278.275665 
L 369.614787 274.762636 
L 371.96355 274.762636 
L 371.96355 271.249606 
L 375.422661 271.249606 
L 375.422661 267.736576 
L 376.325136 267.736576 
L 376.325136 264.223546 
L 376.353225 264.223546 
L 376.353225 260.710517 
L 377.087517 260.710517 
L 377.087517 257.197487 
L 377.226495 257.197487 
L 377.226495 253.684457 
L 377.757109 253.684457 
L 377.757109 250.171428 
L 378.73336 250.171428 
L 378.73336 246.658398 
L 379.760813 246.658398 
L 379.760813 243.145368 
L 380.155326 243.145368 
L 380.155326 239.632338 
L 380.208927 239.632338 
L 380.208927 236.119309 
L 380.258267 236.119309 
L 380.258267 232.606279 
L 380.31588 232.606279 
L 380.31588 229.093249 
L 380.652116 229.093249 
L 380.652116 225.58022 
L 381.114145 225.58022 
L 381.114145 222.06719 
L 381.338404 222.06719 
L 381.338404 218.55416 
L 381.877604 218.55416 
L 381.877604 215.041131 
L 382.824462 215.041131 
L 382.824462 211.528101 
L 383.17255 211.528101 
L 383.17255 208.015071 
L 384.237934 208.015071 
L 384.237934 204.502041 
L 384.324938 204.502041 
L 384.324938 200.989012 
L 385.952496 200.989012 
L 385.952496 197.475982 
L 386.126333 197.475982 
L 386.126333 193.962952 
L 395.872927 193.962952 
L 395.872927 190.449923 
L 396.841544 190.449923 
L 396.841544 186.936893 
L 397.710728 186.936893 
L 397.710728 183.423863 
L 398.000648 183.423863 
L 398.000648 179.910834 
L 398.44038 179.910834 
L 398.44038 176.397804 
L 398.91351 176.397804 
L 398.91351 172.884774 
L 398.93442 172.884774 
L 398.93442 169.371744 
L 399.189187 169.371744 
L 399.189187 165.858715 
L 399.804244 165.858715 
L 399.804244 162.345685 
L 399.811828 162.345685 
L 399.811828 158.832655 
L 399.895138 158.832655 
L 399.895138 155.319626 
L 401.171826 155.319626 
L 401.171826 151.806596 
L 401.455403 151.806596 
L 401.455403 148.293566 
L 401.455403 148.293566 
L 401.455403 148.293566 
L 426.4825 148.293566 
" style="fill:none;stroke:#f5deb3;stroke-linecap:square;stroke-width:1.5;"/>
   </g>
   <g id="line2d_26">
    <path clip-path="url(#p2225e4a9d9)" d="M 269.159316 278.275665 
L 269.159316 274.762636 
L 270.415329 274.762636 
L 270.415329 271.249606 
L 270.7173 271.249606 
L 270.7173 267.736576 
L 271.115857 267.736576 
L 271.115857 264.223546 
L 271.273998 264.223546 
L 271.273998 260.710517 
L 272.169497 260.710517 
L 272.169497 257.197487 
L 272.816751 257.197487 
L 272.816751 253.684457 
L 273.042323 253.684457 
L 273.042323 250.171428 
L 275.813305 250.171428 
L 275.813305 246.658398 
L 283.99368 246.658398 
L 283.99368 243.145368 
L 284.789028 243.145368 
L 284.789028 239.632338 
L 285.761323 239.632338 
L 285.761323 236.119309 
L 286.122183 236.119309 
L 286.122183 232.606279 
L 288.690773 232.606279 
L 288.690773 229.093249 
L 295.503752 229.093249 
L 295.503752 225.58022 
L 296.142371 225.58022 
L 296.142371 222.06719 
L 296.16154 222.06719 
L 296.16154 218.55416 
L 296.646773 218.55416 
L 296.646773 215.041131 
L 298.144304 215.041131 
L 298.144304 211.528101 
L 298.369719 211.528101 
L 298.369719 208.015071 
L 299.169221 208.015071 
L 299.169221 204.502041 
L 308.838031 204.502041 
L 308.838031 200.989012 
L 311.178048 200.989012 
L 311.178048 197.475982 
L 311.264715 197.475982 
L 311.264715 193.962952 
L 312.0834 193.962952 
L 312.0834 190.449923 
L 313.450616 190.449923 
L 313.450616 186.936893 
L 318.111336 186.936893 
L 318.111336 183.423863 
L 318.288299 183.423863 
L 318.288299 179.910834 
L 321.151562 179.910834 
L 321.151562 176.397804 
L 322.035873 176.397804 
L 322.035873 172.884774 
L 330.670213 172.884774 
L 330.670213 169.371744 
L 331.710778 169.371744 
L 331.710778 165.858715 
L 335.14844 165.858715 
L 335.14844 162.345685 
L 337.529015 162.345685 
L 337.529015 158.832655 
L 353.962404 158.832655 
L 353.962404 155.319626 
L 355.887604 155.319626 
L 355.887604 151.806596 
L 378.822339 151.806596 
L 378.822339 148.293566 
L 379.133694 148.293566 
L 379.133694 144.780537 
L 392.835198 144.780537 
L 392.835198 141.267507 
L 396.772772 141.267507 
L 396.772772 137.754477 
L 399.433462 137.754477 
L 399.433462 134.241447 
L 399.859661 134.241447 
L 399.859661 130.728418 
L 402.552502 130.728418 
L 402.552502 127.215388 
L 402.928623 127.215388 
L 402.928623 123.702358 
L 403.28269 123.702358 
L 403.28269 120.189329 
L 405.363029 120.189329 
L 405.363029 116.676299 
L 406.856039 116.676299 
L 406.856039 113.163269 
L 406.921269 113.163269 
L 406.921269 109.650239 
L 406.979832 109.650239 
L 406.979832 106.13721 
L 412.145062 106.13721 
L 412.145062 102.62418 
L 412.145062 102.62418 
L 412.145062 102.62418 
L 426.4825 102.62418 
" style="fill:none;stroke:#f5deb3;stroke-linecap:square;stroke-width:1.5;"/>
   </g>
   <g id="line2d_27">
    <path clip-path="url(#p2225e4a9d9)" d="M 309.728597 278.275665 
L 309.728597 274.762636 
L 309.728597 274.762636 
L 309.728597 274.762636 
L 426.4825 274.762636 
" style="fill:none;stroke:#f5deb3;stroke-linecap:square;stroke-width:1.5;"/>
   </g>
   <g id="line2d_28">
    <path clip-path="url(#p2225e4a9d9)" d="M 235.707028 278.275665 
L 235.707028 274.762636 
L 236.256001 274.762636 
L 236.256001 271.249606 
L 243.455144 271.249606 
L 243.455144 267.736576 
L 251.67431 267.736576 
L 251.67431 264.223546 
L 268.331627 264.223546 
L 268.331627 260.710517 
L 289.116539 260.710517 
L 289.116539 257.197487 
L 301.495007 257.197487 
L 301.495007 253.684457 
L 321.585097 253.684457 
L 321.585097 250.171428 
L 323.60549 250.171428 
L 323.60549 246.658398 
L 325.374679 246.658398 
L 325.374679 243.145368 
L 325.40341 243.145368 
L 325.40341 239.632338 
L 326.990949 239.632338 
L 326.990949 236.119309 
L 327.318503 236.119309 
L 327.318503 232.606279 
L 329.509964 232.606279 
L 329.509964 229.093249 
L 333.927186 229.093249 
L 333.927186 225.58022 
L 335.12988 225.58022 
L 335.12988 222.06719 
L 350.140466 222.06719 
L 350.140466 218.55416 
L 351.177706 218.55416 
L 351.177706 215.041131 
L 351.696336 215.041131 
L 351.696336 211.528101 
L 351.989773 211.528101 
L 351.989773 208.015071 
L 352.57672 208.015071 
L 352.57672 204.502041 
L 353.498801 204.502041 
L 353.498801 200.989012 
L 354.428696 200.989012 
L 354.428696 197.475982 
L 354.86608 197.475982 
L 354.86608 193.962952 
L 355.432176 193.962952 
L 355.432176 190.449923 
L 359.497679 190.449923 
L 359.497679 186.936893 
L 359.573897 186.936893 
L 359.573897 183.423863 
L 363.373416 183.423863 
L 363.373416 179.910834 
L 364.323039 179.910834 
L 364.323039 176.397804 
L 364.444882 176.397804 
L 364.444882 172.884774 
L 367.533372 172.884774 
L 367.533372 169.371744 
L 367.780279 169.371744 
L 367.780279 165.858715 
L 378.644152 165.858715 
L 378.644152 162.345685 
L 382.190328 162.345685 
L 382.190328 158.832655 
L 385.1947 158.832655 
L 385.1947 155.319626 
L 386.849648 155.319626 
L 386.849648 151.806596 
L 387.508024 151.806596 
L 387.508024 148.293566 
L 389.786938 148.293566 
L 389.786938 144.780537 
L 397.175689 144.780537 
L 397.175689 141.267507 
L 402.601928 141.267507 
L 402.601928 137.754477 
L 405.266876 137.754477 
L 405.266876 134.241447 
L 406.478846 134.241447 
L 406.478846 130.728418 
L 408.733737 130.728418 
L 408.733737 127.215388 
L 426.669366 127.215388 
L 426.669366 123.702358 
L 437.273036 123.702358 
L 437.273036 120.189329 
L 438.1825 120.189329 
" style="fill:none;stroke:#f5deb3;stroke-linecap:square;stroke-width:1.5;"/>
   </g>
   <g id="line2d_29">
    <path clip-path="url(#p2225e4a9d9)" d="M 232.215875 278.275665 
L 232.215875 274.762636 
L 232.215875 274.762636 
L 232.215875 271.249606 
L 232.215875 271.249606 
L 232.215875 267.736576 
L 256.386425 267.736576 
L 256.386425 264.223546 
L 256.386425 264.223546 
L 256.386425 260.710517 
L 256.386425 260.710517 
L 256.386425 257.197487 
L 261.46125 257.197487 
L 261.46125 253.684457 
L 261.46125 253.684457 
L 261.46125 250.171428 
L 261.46125 250.171428 
L 261.46125 246.658398 
L 291.697411 246.658398 
L 291.697411 243.145368 
L 291.697411 243.145368 
L 291.697411 239.632338 
L 291.697411 239.632338 
L 291.697411 236.119309 
L 324.501432 236.119309 
L 324.501432 232.606279 
L 324.501432 232.606279 
L 324.501432 229.093249 
L 324.501432 229.093249 
L 324.501432 225.58022 
L 337.61549 225.58022 
L 337.61549 222.06719 
L 337.61549 222.06719 
L 337.61549 218.55416 
L 337.61549 218.55416 
L 337.61549 215.041131 
L 344.476728 215.041131 
L 344.476728 211.528101 
L 344.476728 211.528101 
L 344.476728 208.015071 
L 344.476728 208.015071 
L 344.476728 204.502041 
L 346.668189 204.502041 
L 346.668189 200.989012 
L 347.393355 200.989012 
L 347.393355 197.475982 
L 356.789055 197.475982 
L 356.789055 193.962952 
L 357.730238 193.962952 
L 357.730238 190.449923 
L 357.954392 190.449923 
L 357.954392 186.936893 
L 365.115206 186.936893 
L 365.115206 183.423863 
L 367.680525 183.423863 
L 367.680525 179.910834 
L 370.962711 179.910834 
L 370.962711 176.397804 
L 383.846311 176.397804 
L 383.846311 172.884774 
L 383.846311 172.884774 
L 383.846311 172.884774 
L 426.4825 172.884774 
" style="fill:none;stroke:#f5deb3;stroke-linecap:square;stroke-width:1.5;"/>
   </g>
   <g id="line2d_30">
    <path clip-path="url(#p2225e4a9d9)" d="M 316.893785 278.275665 
L 316.893785 274.762636 
L 319.046455 274.762636 
L 319.046455 271.249606 
L 355.375467 271.249606 
L 355.375467 267.736576 
L 365.446827 267.736576 
L 365.446827 264.223546 
L 379.595943 264.223546 
L 379.595943 260.710517 
L 384.530051 260.710517 
L 384.530051 257.197487 
L 385.601455 257.197487 
L 385.601455 253.684457 
L 385.88016 253.684457 
L 385.88016 250.171428 
L 386.164376 250.171428 
L 386.164376 246.658398 
L 386.461628 246.658398 
L 386.461628 243.145368 
L 386.461628 243.145368 
L 386.461628 243.145368 
L 426.4825 243.145368 
" style="fill:none;stroke:#f5deb3;stroke-linecap:square;stroke-width:1.5;"/>
   </g>
   <g id="matplotlib.axis_1">
    <g id="xtick_1">
     <g id="line2d_31">
      <path clip-path="url(#p2225e4a9d9)" d="M 69.3625 278.275665 
L 69.3625 12.163665 
" style="fill:none;stroke:#b0b0b0;stroke-linecap:square;stroke-width:0.8;"/>
     </g>
     <g id="line2d_32">
      <defs>
       <path d="M 0 0 
L 0 3.5 
" id="mb7e8cd1c01" style="stroke:#000000;stroke-width:0.8;"/>
      </defs>
      <g>
       <use style="stroke:#000000;stroke-width:0.8;" x="69.3625" xlink:href="#mb7e8cd1c01" y="278.275665"/>
      </g>
     </g>
     <g id="text_1">
      <!-- 0 -->
      <defs>
       <path d="M 31.78125 66.40625 
Q 24.171875 66.40625 20.328125 58.90625 
Q 16.5 51.421875 16.5 36.375 
Q 16.5 21.390625 20.328125 13.890625 
Q 24.171875 6.390625 31.78125 6.390625 
Q 39.453125 6.390625 43.28125 13.890625 
Q 47.125 21.390625 47.125 36.375 
Q 47.125 51.421875 43.28125 58.90625 
Q 39.453125 66.40625 31.78125 66.40625 
M 31.78125 74.21875 
Q 44.046875 74.21875 50.515625 64.515625 
Q 56.984375 54.828125 56.984375 36.375 
Q 56.984375 17.96875 50.515625 8.265625 
Q 44.046875 -1.421875 31.78125 -1.421875 
Q 19.53125 -1.421875 13.0625 8.265625 
Q 6.59375 17.96875 6.59375 36.375 
Q 6.59375 54.828125 13.0625 64.515625 
Q 19.53125 74.21875 31.78125 74.21875 
" id="DejaVuSans-30"/>
      </defs>
      <g transform="translate(63 300.47254)scale(0.2 -0.2)">
       <use xlink:href="#DejaVuSans-30"/>
      </g>
     </g>
    </g>
    <g id="xtick_2">
     <g id="line2d_33">
      <path clip-path="url(#p2225e4a9d9)" d="M 228.124701 278.275665 
L 228.124701 12.163665 
" style="fill:none;stroke:#b0b0b0;stroke-linecap:square;stroke-width:0.8;"/>
     </g>
     <g id="line2d_34">
      <g>
       <use style="stroke:#000000;stroke-width:0.8;" x="228.124701" xlink:href="#mb7e8cd1c01" y="278.275665"/>
      </g>
     </g>
     <g id="text_2">
      <!-- 2 -->
      <defs>
       <path d="M 19.1875 8.296875 
L 53.609375 8.296875 
L 53.609375 0 
L 7.328125 0 
L 7.328125 8.296875 
Q 12.9375 14.109375 22.625 23.890625 
Q 32.328125 33.6875 34.8125 36.53125 
Q 39.546875 41.84375 41.421875 45.53125 
Q 43.3125 49.21875 43.3125 52.78125 
Q 43.3125 58.59375 39.234375 62.25 
Q 35.15625 65.921875 28.609375 65.921875 
Q 23.96875 65.921875 18.8125 64.3125 
Q 13.671875 62.703125 7.8125 59.421875 
L 7.8125 69.390625 
Q 13.765625 71.78125 18.9375 73 
Q 24.125 74.21875 28.421875 74.21875 
Q 39.75 74.21875 46.484375 68.546875 
Q 53.21875 62.890625 53.21875 53.421875 
Q 53.21875 48.921875 51.53125 44.890625 
Q 49.859375 40.875 45.40625 35.40625 
Q 44.1875 33.984375 37.640625 27.21875 
Q 31.109375 20.453125 19.1875 8.296875 
" id="DejaVuSans-32"/>
      </defs>
      <g transform="translate(221.762201 300.47254)scale(0.2 -0.2)">
       <use xlink:href="#DejaVuSans-32"/>
      </g>
     </g>
    </g>
    <g id="xtick_3">
     <g id="line2d_35">
      <path clip-path="url(#p2225e4a9d9)" d="M 386.886901 278.275665 
L 386.886901 12.163665 
" style="fill:none;stroke:#b0b0b0;stroke-linecap:square;stroke-width:0.8;"/>
     </g>
     <g id="line2d_36">
      <g>
       <use style="stroke:#000000;stroke-width:0.8;" x="386.886901" xlink:href="#mb7e8cd1c01" y="278.275665"/>
      </g>
     </g>
     <g id="text_3">
      <!-- 4 -->
      <defs>
       <path d="M 37.796875 64.3125 
L 12.890625 25.390625 
L 37.796875 25.390625 
z
M 35.203125 72.90625 
L 47.609375 72.90625 
L 47.609375 25.390625 
L 58.015625 25.390625 
L 58.015625 17.1875 
L 47.609375 17.1875 
L 47.609375 0 
L 37.796875 0 
L 37.796875 17.1875 
L 4.890625 17.1875 
L 4.890625 26.703125 
z
" id="DejaVuSans-34"/>
      </defs>
      <g transform="translate(380.524401 300.47254)scale(0.2 -0.2)">
       <use xlink:href="#DejaVuSans-34"/>
      </g>
     </g>
    </g>
    <g id="xtick_4">
     <g id="line2d_37">
      <defs>
       <path d="M 0 0 
L 0 2 
" id="m9732722258" style="stroke:#000000;stroke-width:0.6;"/>
      </defs>
      <g>
       <use style="stroke:#000000;stroke-width:0.6;" x="93.258592" xlink:href="#m9732722258" y="278.275665"/>
      </g>
     </g>
    </g>
    <g id="xtick_5">
     <g id="line2d_38">
      <g>
       <use style="stroke:#000000;stroke-width:0.6;" x="107.23691" xlink:href="#m9732722258" y="278.275665"/>
      </g>
     </g>
    </g>
    <g id="xtick_6">
     <g id="line2d_39">
      <g>
       <use style="stroke:#000000;stroke-width:0.6;" x="117.154685" xlink:href="#m9732722258" y="278.275665"/>
      </g>
     </g>
    </g>
    <g id="xtick_7">
     <g id="line2d_40">
      <g>
       <use style="stroke:#000000;stroke-width:0.6;" x="124.847508" xlink:href="#m9732722258" y="278.275665"/>
      </g>
     </g>
    </g>
    <g id="xtick_8">
     <g id="line2d_41">
      <g>
       <use style="stroke:#000000;stroke-width:0.6;" x="131.133002" xlink:href="#m9732722258" y="278.275665"/>
      </g>
     </g>
    </g>
    <g id="xtick_9">
     <g id="line2d_42">
      <g>
       <use style="stroke:#000000;stroke-width:0.6;" x="136.447312" xlink:href="#m9732722258" y="278.275665"/>
      </g>
     </g>
    </g>
    <g id="xtick_10">
     <g id="line2d_43">
      <g>
       <use style="stroke:#000000;stroke-width:0.6;" x="141.050777" xlink:href="#m9732722258" y="278.275665"/>
      </g>
     </g>
    </g>
    <g id="xtick_11">
     <g id="line2d_44">
      <g>
       <use style="stroke:#000000;stroke-width:0.6;" x="145.11132" xlink:href="#m9732722258" y="278.275665"/>
      </g>
     </g>
    </g>
    <g id="xtick_12">
     <g id="line2d_45">
      <g>
       <use style="stroke:#000000;stroke-width:0.6;" x="172.639693" xlink:href="#m9732722258" y="278.275665"/>
      </g>
     </g>
    </g>
    <g id="xtick_13">
     <g id="line2d_46">
      <g>
       <use style="stroke:#000000;stroke-width:0.6;" x="186.61801" xlink:href="#m9732722258" y="278.275665"/>
      </g>
     </g>
    </g>
    <g id="xtick_14">
     <g id="line2d_47">
      <g>
       <use style="stroke:#000000;stroke-width:0.6;" x="196.535785" xlink:href="#m9732722258" y="278.275665"/>
      </g>
     </g>
    </g>
    <g id="xtick_15">
     <g id="line2d_48">
      <g>
       <use style="stroke:#000000;stroke-width:0.6;" x="204.228608" xlink:href="#m9732722258" y="278.275665"/>
      </g>
     </g>
    </g>
    <g id="xtick_16">
     <g id="line2d_49">
      <g>
       <use style="stroke:#000000;stroke-width:0.6;" x="210.514103" xlink:href="#m9732722258" y="278.275665"/>
      </g>
     </g>
    </g>
    <g id="xtick_17">
     <g id="line2d_50">
      <g>
       <use style="stroke:#000000;stroke-width:0.6;" x="215.828413" xlink:href="#m9732722258" y="278.275665"/>
      </g>
     </g>
    </g>
    <g id="xtick_18">
     <g id="line2d_51">
      <g>
       <use style="stroke:#000000;stroke-width:0.6;" x="220.431877" xlink:href="#m9732722258" y="278.275665"/>
      </g>
     </g>
    </g>
    <g id="xtick_19">
     <g id="line2d_52">
      <g>
       <use style="stroke:#000000;stroke-width:0.6;" x="224.492421" xlink:href="#m9732722258" y="278.275665"/>
      </g>
     </g>
    </g>
    <g id="xtick_20">
     <g id="line2d_53">
      <g>
       <use style="stroke:#000000;stroke-width:0.6;" x="252.020793" xlink:href="#m9732722258" y="278.275665"/>
      </g>
     </g>
    </g>
    <g id="xtick_21">
     <g id="line2d_54">
      <g>
       <use style="stroke:#000000;stroke-width:0.6;" x="265.999111" xlink:href="#m9732722258" y="278.275665"/>
      </g>
     </g>
    </g>
    <g id="xtick_22">
     <g id="line2d_55">
      <g>
       <use style="stroke:#000000;stroke-width:0.6;" x="275.916885" xlink:href="#m9732722258" y="278.275665"/>
      </g>
     </g>
    </g>
    <g id="xtick_23">
     <g id="line2d_56">
      <g>
       <use style="stroke:#000000;stroke-width:0.6;" x="283.609709" xlink:href="#m9732722258" y="278.275665"/>
      </g>
     </g>
    </g>
    <g id="xtick_24">
     <g id="line2d_57">
      <g>
       <use style="stroke:#000000;stroke-width:0.6;" x="289.895203" xlink:href="#m9732722258" y="278.275665"/>
      </g>
     </g>
    </g>
    <g id="xtick_25">
     <g id="line2d_58">
      <g>
       <use style="stroke:#000000;stroke-width:0.6;" x="295.209513" xlink:href="#m9732722258" y="278.275665"/>
      </g>
     </g>
    </g>
    <g id="xtick_26">
     <g id="line2d_59">
      <g>
       <use style="stroke:#000000;stroke-width:0.6;" x="299.812977" xlink:href="#m9732722258" y="278.275665"/>
      </g>
     </g>
    </g>
    <g id="xtick_27">
     <g id="line2d_60">
      <g>
       <use style="stroke:#000000;stroke-width:0.6;" x="303.873521" xlink:href="#m9732722258" y="278.275665"/>
      </g>
     </g>
    </g>
    <g id="xtick_28">
     <g id="line2d_61">
      <g>
       <use style="stroke:#000000;stroke-width:0.6;" x="331.401893" xlink:href="#m9732722258" y="278.275665"/>
      </g>
     </g>
    </g>
    <g id="xtick_29">
     <g id="line2d_62">
      <g>
       <use style="stroke:#000000;stroke-width:0.6;" x="345.380211" xlink:href="#m9732722258" y="278.275665"/>
      </g>
     </g>
    </g>
    <g id="xtick_30">
     <g id="line2d_63">
      <g>
       <use style="stroke:#000000;stroke-width:0.6;" x="355.297986" xlink:href="#m9732722258" y="278.275665"/>
      </g>
     </g>
    </g>
    <g id="xtick_31">
     <g id="line2d_64">
      <g>
       <use style="stroke:#000000;stroke-width:0.6;" x="362.990809" xlink:href="#m9732722258" y="278.275665"/>
      </g>
     </g>
    </g>
    <g id="xtick_32">
     <g id="line2d_65">
      <g>
       <use style="stroke:#000000;stroke-width:0.6;" x="369.276303" xlink:href="#m9732722258" y="278.275665"/>
      </g>
     </g>
    </g>
    <g id="xtick_33">
     <g id="line2d_66">
      <g>
       <use style="stroke:#000000;stroke-width:0.6;" x="374.590613" xlink:href="#m9732722258" y="278.275665"/>
      </g>
     </g>
    </g>
    <g id="xtick_34">
     <g id="line2d_67">
      <g>
       <use style="stroke:#000000;stroke-width:0.6;" x="379.194078" xlink:href="#m9732722258" y="278.275665"/>
      </g>
     </g>
    </g>
    <g id="xtick_35">
     <g id="line2d_68">
      <g>
       <use style="stroke:#000000;stroke-width:0.6;" x="383.254621" xlink:href="#m9732722258" y="278.275665"/>
      </g>
     </g>
    </g>
    <g id="xtick_36">
     <g id="line2d_69">
      <g>
       <use style="stroke:#000000;stroke-width:0.6;" x="410.782994" xlink:href="#m9732722258" y="278.275665"/>
      </g>
     </g>
    </g>
    <g id="xtick_37">
     <g id="line2d_70">
      <g>
       <use style="stroke:#000000;stroke-width:0.6;" x="424.761311" xlink:href="#m9732722258" y="278.275665"/>
      </g>
     </g>
    </g>
    <g id="text_4">
     <!-- log10 of FEvals / DIM -->
     <defs>
      <path d="M 9.421875 75.984375 
L 18.40625 75.984375 
L 18.40625 0 
L 9.421875 0 
z
" id="DejaVuSans-6c"/>
      <path d="M 30.609375 48.390625 
Q 23.390625 48.390625 19.1875 42.75 
Q 14.984375 37.109375 14.984375 27.296875 
Q 14.984375 17.484375 19.15625 11.84375 
Q 23.34375 6.203125 30.609375 6.203125 
Q 37.796875 6.203125 41.984375 11.859375 
Q 46.1875 17.53125 46.1875 27.296875 
Q 46.1875 37.015625 41.984375 42.703125 
Q 37.796875 48.390625 30.609375 48.390625 
M 30.609375 56 
Q 42.328125 56 49.015625 48.375 
Q 55.71875 40.765625 55.71875 27.296875 
Q 55.71875 13.875 49.015625 6.21875 
Q 42.328125 -1.421875 30.609375 -1.421875 
Q 18.84375 -1.421875 12.171875 6.21875 
Q 5.515625 13.875 5.515625 27.296875 
Q 5.515625 40.765625 12.171875 48.375 
Q 18.84375 56 30.609375 56 
" id="DejaVuSans-6f"/>
      <path d="M 45.40625 27.984375 
Q 45.40625 37.75 41.375 43.109375 
Q 37.359375 48.484375 30.078125 48.484375 
Q 22.859375 48.484375 18.828125 43.109375 
Q 14.796875 37.75 14.796875 27.984375 
Q 14.796875 18.265625 18.828125 12.890625 
Q 22.859375 7.515625 30.078125 7.515625 
Q 37.359375 7.515625 41.375 12.890625 
Q 45.40625 18.265625 45.40625 27.984375 
M 54.390625 6.78125 
Q 54.390625 -7.171875 48.1875 -13.984375 
Q 42 -20.796875 29.203125 -20.796875 
Q 24.46875 -20.796875 20.265625 -20.09375 
Q 16.0625 -19.390625 12.109375 -17.921875 
L 12.109375 -9.1875 
Q 16.0625 -11.328125 19.921875 -12.34375 
Q 23.78125 -13.375 27.78125 -13.375 
Q 36.625 -13.375 41.015625 -8.765625 
Q 45.40625 -4.15625 45.40625 5.171875 
L 45.40625 9.625 
Q 42.625 4.78125 38.28125 2.390625 
Q 33.9375 0 27.875 0 
Q 17.828125 0 11.671875 7.65625 
Q 5.515625 15.328125 5.515625 27.984375 
Q 5.515625 40.671875 11.671875 48.328125 
Q 17.828125 56 27.875 56 
Q 33.9375 56 38.28125 53.609375 
Q 42.625 51.21875 45.40625 46.390625 
L 45.40625 54.6875 
L 54.390625 54.6875 
z
" id="DejaVuSans-67"/>
      <path d="M 12.40625 8.296875 
L 28.515625 8.296875 
L 28.515625 63.921875 
L 10.984375 60.40625 
L 10.984375 69.390625 
L 28.421875 72.90625 
L 38.28125 72.90625 
L 38.28125 8.296875 
L 54.390625 8.296875 
L 54.390625 0 
L 12.40625 0 
z
" id="DejaVuSans-31"/>
      <path id="DejaVuSans-20"/>
      <path d="M 37.109375 75.984375 
L 37.109375 68.5 
L 28.515625 68.5 
Q 23.6875 68.5 21.796875 66.546875 
Q 19.921875 64.59375 19.921875 59.515625 
L 19.921875 54.6875 
L 34.71875 54.6875 
L 34.71875 47.703125 
L 19.921875 47.703125 
L 19.921875 0 
L 10.890625 0 
L 10.890625 47.703125 
L 2.296875 47.703125 
L 2.296875 54.6875 
L 10.890625 54.6875 
L 10.890625 58.5 
Q 10.890625 67.625 15.140625 71.796875 
Q 19.390625 75.984375 28.609375 75.984375 
z
" id="DejaVuSans-66"/>
      <path d="M 9.8125 72.90625 
L 51.703125 72.90625 
L 51.703125 64.59375 
L 19.671875 64.59375 
L 19.671875 43.109375 
L 48.578125 43.109375 
L 48.578125 34.8125 
L 19.671875 34.8125 
L 19.671875 0 
L 9.8125 0 
z
" id="DejaVuSans-46"/>
      <path d="M 9.8125 72.90625 
L 55.90625 72.90625 
L 55.90625 64.59375 
L 19.671875 64.59375 
L 19.671875 43.015625 
L 54.390625 43.015625 
L 54.390625 34.71875 
L 19.671875 34.71875 
L 19.671875 8.296875 
L 56.78125 8.296875 
L 56.78125 0 
L 9.8125 0 
z
" id="DejaVuSans-45"/>
      <path d="M 2.984375 54.6875 
L 12.5 54.6875 
L 29.59375 8.796875 
L 46.6875 54.6875 
L 56.203125 54.6875 
L 35.6875 0 
L 23.484375 0 
z
" id="DejaVuSans-76"/>
      <path d="M 34.28125 27.484375 
Q 23.390625 27.484375 19.1875 25 
Q 14.984375 22.515625 14.984375 16.5 
Q 14.984375 11.71875 18.140625 8.90625 
Q 21.296875 6.109375 26.703125 6.109375 
Q 34.1875 6.109375 38.703125 11.40625 
Q 43.21875 16.703125 43.21875 25.484375 
L 43.21875 27.484375 
z
M 52.203125 31.203125 
L 52.203125 0 
L 43.21875 0 
L 43.21875 8.296875 
Q 40.140625 3.328125 35.546875 0.953125 
Q 30.953125 -1.421875 24.3125 -1.421875 
Q 15.921875 -1.421875 10.953125 3.296875 
Q 6 8.015625 6 15.921875 
Q 6 25.140625 12.171875 29.828125 
Q 18.359375 34.515625 30.609375 34.515625 
L 43.21875 34.515625 
L 43.21875 35.40625 
Q 43.21875 41.609375 39.140625 45 
Q 35.0625 48.390625 27.6875 48.390625 
Q 23 48.390625 18.546875 47.265625 
Q 14.109375 46.140625 10.015625 43.890625 
L 10.015625 52.203125 
Q 14.9375 54.109375 19.578125 55.046875 
Q 24.21875 56 28.609375 56 
Q 40.484375 56 46.34375 49.84375 
Q 52.203125 43.703125 52.203125 31.203125 
" id="DejaVuSans-61"/>
      <path d="M 44.28125 53.078125 
L 44.28125 44.578125 
Q 40.484375 46.53125 36.375 47.5 
Q 32.28125 48.484375 27.875 48.484375 
Q 21.1875 48.484375 17.84375 46.4375 
Q 14.5 44.390625 14.5 40.28125 
Q 14.5 37.15625 16.890625 35.375 
Q 19.28125 33.59375 26.515625 31.984375 
L 29.59375 31.296875 
Q 39.15625 29.25 43.1875 25.515625 
Q 47.21875 21.78125 47.21875 15.09375 
Q 47.21875 7.46875 41.1875 3.015625 
Q 35.15625 -1.421875 24.609375 -1.421875 
Q 20.21875 -1.421875 15.453125 -0.5625 
Q 10.6875 0.296875 5.421875 2 
L 5.421875 11.28125 
Q 10.40625 8.6875 15.234375 7.390625 
Q 20.0625 6.109375 24.8125 6.109375 
Q 31.15625 6.109375 34.5625 8.28125 
Q 37.984375 10.453125 37.984375 14.40625 
Q 37.984375 18.0625 35.515625 20.015625 
Q 33.0625 21.96875 24.703125 23.78125 
L 21.578125 24.515625 
Q 13.234375 26.265625 9.515625 29.90625 
Q 5.8125 33.546875 5.8125 39.890625 
Q 5.8125 47.609375 11.28125 51.796875 
Q 16.75 56 26.8125 56 
Q 31.78125 56 36.171875 55.265625 
Q 40.578125 54.546875 44.28125 53.078125 
" id="DejaVuSans-73"/>
      <path d="M 25.390625 72.90625 
L 33.6875 72.90625 
L 8.296875 -9.28125 
L 0 -9.28125 
z
" id="DejaVuSans-2f"/>
      <path d="M 19.671875 64.796875 
L 19.671875 8.109375 
L 31.59375 8.109375 
Q 46.6875 8.109375 53.6875 14.9375 
Q 60.6875 21.78125 60.6875 36.53125 
Q 60.6875 51.171875 53.6875 57.984375 
Q 46.6875 64.796875 31.59375 64.796875 
z
M 9.8125 72.90625 
L 30.078125 72.90625 
Q 51.265625 72.90625 61.171875 64.09375 
Q 71.09375 55.28125 71.09375 36.53125 
Q 71.09375 17.671875 61.125 8.828125 
Q 51.171875 0 30.078125 0 
L 9.8125 0 
z
" id="DejaVuSans-44"/>
      <path d="M 9.8125 72.90625 
L 19.671875 72.90625 
L 19.671875 0 
L 9.8125 0 
z
" id="DejaVuSans-49"/>
      <path d="M 9.8125 72.90625 
L 24.515625 72.90625 
L 43.109375 23.296875 
L 61.8125 72.90625 
L 76.515625 72.90625 
L 76.515625 0 
L 66.890625 0 
L 66.890625 64.015625 
L 48.09375 14.015625 
L 38.1875 14.015625 
L 19.390625 64.015625 
L 19.390625 0 
L 9.8125 0 
z
" id="DejaVuSans-4d"/>
     </defs>
     <g transform="translate(142.849063 323.82879)scale(0.2 -0.2)">
      <use xlink:href="#DejaVuSans-6c"/>
      <use x="27.783203" xlink:href="#DejaVuSans-6f"/>
      <use x="88.964844" xlink:href="#DejaVuSans-67"/>
      <use x="152.441406" xlink:href="#DejaVuSans-31"/>
      <use x="216.064453" xlink:href="#DejaVuSans-30"/>
      <use x="279.6875" xlink:href="#DejaVuSans-20"/>
      <use x="311.474609" xlink:href="#DejaVuSans-6f"/>
      <use x="372.65625" xlink:href="#DejaVuSans-66"/>
      <use x="407.861328" xlink:href="#DejaVuSans-20"/>
      <use x="439.648438" xlink:href="#DejaVuSans-46"/>
      <use x="497.167969" xlink:href="#DejaVuSans-45"/>
      <use x="560.351562" xlink:href="#DejaVuSans-76"/>
      <use x="619.53125" xlink:href="#DejaVuSans-61"/>
      <use x="680.810547" xlink:href="#DejaVuSans-6c"/>
      <use x="708.59375" xlink:href="#DejaVuSans-73"/>
      <use x="760.693359" xlink:href="#DejaVuSans-20"/>
      <use x="792.480469" xlink:href="#DejaVuSans-2f"/>
      <use x="826.171875" xlink:href="#DejaVuSans-20"/>
      <use x="857.958984" xlink:href="#DejaVuSans-44"/>
      <use x="934.960938" xlink:href="#DejaVuSans-49"/>
      <use x="964.453125" xlink:href="#DejaVuSans-4d"/>
     </g>
    </g>
   </g>
   <g id="matplotlib.axis_2">
    <g id="ytick_1">
     <g id="line2d_71">
      <path clip-path="url(#p2225e4a9d9)" d="M 69.3625 278.275665 
L 426.4825 278.275665 
" style="fill:none;stroke:#b0b0b0;stroke-linecap:square;stroke-width:0.8;"/>
     </g>
     <g id="line2d_72">
      <defs>
       <path d="M 0 0 
L -3.5 0 
" id="m80ab41898e" style="stroke:#000000;stroke-width:0.8;"/>
      </defs>
      <g>
       <use style="stroke:#000000;stroke-width:0.8;" x="69.3625" xlink:href="#m80ab41898e" y="278.275665"/>
      </g>
     </g>
     <g id="text_5">
      <!-- 0.0 -->
      <defs>
       <path d="M 10.6875 12.40625 
L 21 12.40625 
L 21 0 
L 10.6875 0 
z
" id="DejaVuSans-2e"/>
      </defs>
      <g transform="translate(30.55625 285.874103)scale(0.2 -0.2)">
       <use xlink:href="#DejaVuSans-30"/>
       <use x="63.623047" xlink:href="#DejaVuSans-2e"/>
       <use x="95.410156" xlink:href="#DejaVuSans-30"/>
      </g>
     </g>
    </g>
    <g id="ytick_2">
     <g id="line2d_73">
      <path clip-path="url(#p2225e4a9d9)" d="M 69.3625 225.58022 
L 426.4825 225.58022 
" style="fill:none;stroke:#b0b0b0;stroke-linecap:square;stroke-width:0.8;"/>
     </g>
     <g id="line2d_74">
      <g>
       <use style="stroke:#000000;stroke-width:0.8;" x="69.3625" xlink:href="#m80ab41898e" y="225.58022"/>
      </g>
     </g>
     <g id="text_6">
      <!-- 0.2 -->
      <g transform="translate(30.55625 233.178657)scale(0.2 -0.2)">
       <use xlink:href="#DejaVuSans-30"/>
       <use x="63.623047" xlink:href="#DejaVuSans-2e"/>
       <use x="95.410156" xlink:href="#DejaVuSans-32"/>
      </g>
     </g>
    </g>
    <g id="ytick_3">
     <g id="line2d_75">
      <path clip-path="url(#p2225e4a9d9)" d="M 69.3625 172.884774 
L 426.4825 172.884774 
" style="fill:none;stroke:#b0b0b0;stroke-linecap:square;stroke-width:0.8;"/>
     </g>
     <g id="line2d_76">
      <g>
       <use style="stroke:#000000;stroke-width:0.8;" x="69.3625" xlink:href="#m80ab41898e" y="172.884774"/>
      </g>
     </g>
     <g id="text_7">
      <!-- 0.4 -->
      <g transform="translate(30.55625 180.483212)scale(0.2 -0.2)">
       <use xlink:href="#DejaVuSans-30"/>
       <use x="63.623047" xlink:href="#DejaVuSans-2e"/>
       <use x="95.410156" xlink:href="#DejaVuSans-34"/>
      </g>
     </g>
    </g>
    <g id="ytick_4">
     <g id="line2d_77">
      <path clip-path="url(#p2225e4a9d9)" d="M 69.3625 120.189329 
L 426.4825 120.189329 
" style="fill:none;stroke:#b0b0b0;stroke-linecap:square;stroke-width:0.8;"/>
     </g>
     <g id="line2d_78">
      <g>
       <use style="stroke:#000000;stroke-width:0.8;" x="69.3625" xlink:href="#m80ab41898e" y="120.189329"/>
      </g>
     </g>
     <g id="text_8">
      <!-- 0.6 -->
      <defs>
       <path d="M 33.015625 40.375 
Q 26.375 40.375 22.484375 35.828125 
Q 18.609375 31.296875 18.609375 23.390625 
Q 18.609375 15.53125 22.484375 10.953125 
Q 26.375 6.390625 33.015625 6.390625 
Q 39.65625 6.390625 43.53125 10.953125 
Q 47.40625 15.53125 47.40625 23.390625 
Q 47.40625 31.296875 43.53125 35.828125 
Q 39.65625 40.375 33.015625 40.375 
M 52.59375 71.296875 
L 52.59375 62.3125 
Q 48.875 64.0625 45.09375 64.984375 
Q 41.3125 65.921875 37.59375 65.921875 
Q 27.828125 65.921875 22.671875 59.328125 
Q 17.53125 52.734375 16.796875 39.40625 
Q 19.671875 43.65625 24.015625 45.921875 
Q 28.375 48.1875 33.59375 48.1875 
Q 44.578125 48.1875 50.953125 41.515625 
Q 57.328125 34.859375 57.328125 23.390625 
Q 57.328125 12.15625 50.6875 5.359375 
Q 44.046875 -1.421875 33.015625 -1.421875 
Q 20.359375 -1.421875 13.671875 8.265625 
Q 6.984375 17.96875 6.984375 36.375 
Q 6.984375 53.65625 15.1875 63.9375 
Q 23.390625 74.21875 37.203125 74.21875 
Q 40.921875 74.21875 44.703125 73.484375 
Q 48.484375 72.75 52.59375 71.296875 
" id="DejaVuSans-36"/>
      </defs>
      <g transform="translate(30.55625 127.787766)scale(0.2 -0.2)">
       <use xlink:href="#DejaVuSans-30"/>
       <use x="63.623047" xlink:href="#DejaVuSans-2e"/>
       <use x="95.410156" xlink:href="#DejaVuSans-36"/>
      </g>
     </g>
    </g>
    <g id="ytick_5">
     <g id="line2d_79">
      <path clip-path="url(#p2225e4a9d9)" d="M 69.3625 67.493883 
L 426.4825 67.493883 
" style="fill:none;stroke:#b0b0b0;stroke-linecap:square;stroke-width:0.8;"/>
     </g>
     <g id="line2d_80">
      <g>
       <use style="stroke:#000000;stroke-width:0.8;" x="69.3625" xlink:href="#m80ab41898e" y="67.493883"/>
      </g>
     </g>
     <g id="text_9">
      <!-- 0.8 -->
      <defs>
       <path d="M 31.78125 34.625 
Q 24.75 34.625 20.71875 30.859375 
Q 16.703125 27.09375 16.703125 20.515625 
Q 16.703125 13.921875 20.71875 10.15625 
Q 24.75 6.390625 31.78125 6.390625 
Q 38.8125 6.390625 42.859375 10.171875 
Q 46.921875 13.96875 46.921875 20.515625 
Q 46.921875 27.09375 42.890625 30.859375 
Q 38.875 34.625 31.78125 34.625 
M 21.921875 38.8125 
Q 15.578125 40.375 12.03125 44.71875 
Q 8.5 49.078125 8.5 55.328125 
Q 8.5 64.0625 14.71875 69.140625 
Q 20.953125 74.21875 31.78125 74.21875 
Q 42.671875 74.21875 48.875 69.140625 
Q 55.078125 64.0625 55.078125 55.328125 
Q 55.078125 49.078125 51.53125 44.71875 
Q 48 40.375 41.703125 38.8125 
Q 48.828125 37.15625 52.796875 32.3125 
Q 56.78125 27.484375 56.78125 20.515625 
Q 56.78125 9.90625 50.3125 4.234375 
Q 43.84375 -1.421875 31.78125 -1.421875 
Q 19.734375 -1.421875 13.25 4.234375 
Q 6.78125 9.90625 6.78125 20.515625 
Q 6.78125 27.484375 10.78125 32.3125 
Q 14.796875 37.15625 21.921875 38.8125 
M 18.3125 54.390625 
Q 18.3125 48.734375 21.84375 45.5625 
Q 25.390625 42.390625 31.78125 42.390625 
Q 38.140625 42.390625 41.71875 45.5625 
Q 45.3125 48.734375 45.3125 54.390625 
Q 45.3125 60.0625 41.71875 63.234375 
Q 38.140625 66.40625 31.78125 66.40625 
Q 25.390625 66.40625 21.84375 63.234375 
Q 18.3125 60.0625 18.3125 54.390625 
" id="DejaVuSans-38"/>
      </defs>
      <g transform="translate(30.55625 75.092321)scale(0.2 -0.2)">
       <use xlink:href="#DejaVuSans-30"/>
       <use x="63.623047" xlink:href="#DejaVuSans-2e"/>
       <use x="95.410156" xlink:href="#DejaVuSans-38"/>
      </g>
     </g>
    </g>
    <g id="ytick_6">
     <g id="line2d_81">
      <path clip-path="url(#p2225e4a9d9)" d="M 69.3625 14.798437 
L 426.4825 14.798437 
" style="fill:none;stroke:#b0b0b0;stroke-linecap:square;stroke-width:0.8;"/>
     </g>
     <g id="line2d_82">
      <g>
       <use style="stroke:#000000;stroke-width:0.8;" x="69.3625" xlink:href="#m80ab41898e" y="14.798437"/>
      </g>
     </g>
     <g id="text_10">
      <!-- 1.0 -->
      <g transform="translate(30.55625 22.396875)scale(0.2 -0.2)">
       <use xlink:href="#DejaVuSans-31"/>
       <use x="63.623047" xlink:href="#DejaVuSans-2e"/>
       <use x="95.410156" xlink:href="#DejaVuSans-30"/>
      </g>
     </g>
    </g>
    <g id="text_11">
     <!-- proportion of trials -->
     <defs>
      <path d="M 18.109375 8.203125 
L 18.109375 -20.796875 
L 9.078125 -20.796875 
L 9.078125 54.6875 
L 18.109375 54.6875 
L 18.109375 46.390625 
Q 20.953125 51.265625 25.265625 53.625 
Q 29.59375 56 35.59375 56 
Q 45.5625 56 51.78125 48.09375 
Q 58.015625 40.1875 58.015625 27.296875 
Q 58.015625 14.40625 51.78125 6.484375 
Q 45.5625 -1.421875 35.59375 -1.421875 
Q 29.59375 -1.421875 25.265625 0.953125 
Q 20.953125 3.328125 18.109375 8.203125 
M 48.6875 27.296875 
Q 48.6875 37.203125 44.609375 42.84375 
Q 40.53125 48.484375 33.40625 48.484375 
Q 26.265625 48.484375 22.1875 42.84375 
Q 18.109375 37.203125 18.109375 27.296875 
Q 18.109375 17.390625 22.1875 11.75 
Q 26.265625 6.109375 33.40625 6.109375 
Q 40.53125 6.109375 44.609375 11.75 
Q 48.6875 17.390625 48.6875 27.296875 
" id="DejaVuSans-70"/>
      <path d="M 41.109375 46.296875 
Q 39.59375 47.171875 37.8125 47.578125 
Q 36.03125 48 33.890625 48 
Q 26.265625 48 22.1875 43.046875 
Q 18.109375 38.09375 18.109375 28.8125 
L 18.109375 0 
L 9.078125 0 
L 9.078125 54.6875 
L 18.109375 54.6875 
L 18.109375 46.1875 
Q 20.953125 51.171875 25.484375 53.578125 
Q 30.03125 56 36.53125 56 
Q 37.453125 56 38.578125 55.875 
Q 39.703125 55.765625 41.0625 55.515625 
z
" id="DejaVuSans-72"/>
      <path d="M 18.3125 70.21875 
L 18.3125 54.6875 
L 36.8125 54.6875 
L 36.8125 47.703125 
L 18.3125 47.703125 
L 18.3125 18.015625 
Q 18.3125 11.328125 20.140625 9.421875 
Q 21.96875 7.515625 27.59375 7.515625 
L 36.8125 7.515625 
L 36.8125 0 
L 27.59375 0 
Q 17.1875 0 13.234375 3.875 
Q 9.28125 7.765625 9.28125 18.015625 
L 9.28125 47.703125 
L 2.6875 47.703125 
L 2.6875 54.6875 
L 9.28125 54.6875 
L 9.28125 70.21875 
z
" id="DejaVuSans-74"/>
      <path d="M 9.421875 54.6875 
L 18.40625 54.6875 
L 18.40625 0 
L 9.421875 0 
z
M 9.421875 75.984375 
L 18.40625 75.984375 
L 18.40625 64.59375 
L 9.421875 64.59375 
z
" id="DejaVuSans-69"/>
      <path d="M 54.890625 33.015625 
L 54.890625 0 
L 45.90625 0 
L 45.90625 32.71875 
Q 45.90625 40.484375 42.875 44.328125 
Q 39.84375 48.1875 33.796875 48.1875 
Q 26.515625 48.1875 22.3125 43.546875 
Q 18.109375 38.921875 18.109375 30.90625 
L 18.109375 0 
L 9.078125 0 
L 9.078125 54.6875 
L 18.109375 54.6875 
L 18.109375 46.1875 
Q 21.34375 51.125 25.703125 53.5625 
Q 30.078125 56 35.796875 56 
Q 45.21875 56 50.046875 50.171875 
Q 54.890625 44.34375 54.890625 33.015625 
" id="DejaVuSans-6e"/>
     </defs>
     <g transform="translate(22.396875 238.44779)rotate(-90)scale(0.2 -0.2)">
      <use xlink:href="#DejaVuSans-70"/>
      <use x="63.476562" xlink:href="#DejaVuSans-72"/>
      <use x="104.558594" xlink:href="#DejaVuSans-6f"/>
      <use x="165.740234" xlink:href="#DejaVuSans-70"/>
      <use x="229.216797" xlink:href="#DejaVuSans-6f"/>
      <use x="290.398438" xlink:href="#DejaVuSans-72"/>
      <use x="331.511719" xlink:href="#DejaVuSans-74"/>
      <use x="370.720703" xlink:href="#DejaVuSans-69"/>
      <use x="398.503906" xlink:href="#DejaVuSans-6f"/>
      <use x="459.685547" xlink:href="#DejaVuSans-6e"/>
      <use x="523.064453" xlink:href="#DejaVuSans-20"/>
      <use x="554.851562" xlink:href="#DejaVuSans-6f"/>
      <use x="616.033203" xlink:href="#DejaVuSans-66"/>
      <use x="651.238281" xlink:href="#DejaVuSans-20"/>
      <use x="683.025391" xlink:href="#DejaVuSans-74"/>
      <use x="722.234375" xlink:href="#DejaVuSans-72"/>
      <use x="763.347656" xlink:href="#DejaVuSans-69"/>
      <use x="791.130859" xlink:href="#DejaVuSans-61"/>
      <use x="852.410156" xlink:href="#DejaVuSans-6c"/>
      <use x="880.193359" xlink:href="#DejaVuSans-73"/>
     </g>
    </g>
   </g>
   <g id="line2d_83">
    <path clip-path="url(#p2225e4a9d9)" d="M 13.877492 278.275665 
L 13.877492 276.51915 
L 13.877492 276.51915 
L 13.877492 274.762636 
L 13.877492 274.762636 
L 13.877492 273.006121 
L 13.877492 273.006121 
L 13.877492 271.249606 
L 13.877492 271.249606 
L 13.877492 269.493091 
L 13.877492 269.493091 
L 13.877492 267.736576 
L 37.773584 267.736576 
L 37.773584 265.980061 
L 37.773584 265.980061 
L 37.773584 264.223546 
L 37.773584 264.223546 
L 37.773584 262.467032 
L 37.773584 262.467032 
L 37.773584 260.710517 
L 37.773584 260.710517 
L 37.773584 258.954002 
L 37.773584 258.954002 
L 37.773584 257.197487 
L 51.751902 257.197487 
L 51.751902 255.440972 
L 61.669677 255.440972 
L 61.669677 253.684457 
L 69.3625 253.684457 
L 69.3625 251.927942 
L 69.3625 251.927942 
L 69.3625 250.171428 
L 69.3625 250.171428 
L 69.3625 248.414913 
L 80.962304 248.414913 
L 80.962304 246.658398 
L 80.962304 246.658398 
L 80.962304 244.901883 
L 80.962304 244.901883 
L 80.962304 243.145368 
L 85.565769 243.145368 
L 85.565769 241.388853 
L 85.565769 241.388853 
L 85.565769 239.632338 
L 85.565769 239.632338 
L 85.565769 237.875824 
L 89.626312 237.875824 
L 89.626312 236.119309 
L 93.258592 236.119309 
L 93.258592 234.362794 
L 93.258592 234.362794 
L 93.258592 232.606279 
L 96.544389 232.606279 
L 96.544389 230.849764 
L 99.544087 230.849764 
L 99.544087 229.093249 
L 104.858397 229.093249 
L 104.858397 227.336735 
L 118.836714 227.336735 
L 118.836714 225.58022 
L 118.836714 225.58022 
L 118.836714 223.823705 
L 120.440481 223.823705 
L 120.440481 222.06719 
L 120.440481 222.06719 
L 120.440481 220.310675 
L 121.972946 220.310675 
L 121.972946 218.55416 
L 123.440179 218.55416 
L 123.440179 216.797645 
L 123.440179 216.797645 
L 123.440179 215.041131 
L 134.418799 215.041131 
L 134.418799 213.284616 
L 140.177951 213.284616 
L 140.177951 211.528101 
L 144.336574 211.528101 
L 144.336574 209.771586 
L 181.684641 209.771586 
L 181.684641 208.015071 
L 201.052955 208.015071 
L 201.052955 206.258556 
L 206.753901 206.258556 
L 206.753901 204.502041 
L 215.232292 204.502041 
L 215.232292 202.745527 
L 286.045174 202.745527 
L 286.045174 200.989012 
L 362.693044 200.989012 
L 362.693044 199.232497 
L 366.564984 199.232497 
L 366.564984 197.475982 
L 366.564984 197.475982 
L 366.564984 197.475982 
L 426.4825 197.475982 
" style="fill:none;stroke:#000000;stroke-linecap:square;stroke-width:1.5;"/>
   </g>
   <g id="line2d_84">
    <defs>
     <path d="M -0 14.142136 
L 8.485281 0 
L -0 -14.142136 
L -8.485281 -0 
z
" id="me5e1ff6904" style="stroke:#000000;stroke-linejoin:miter;stroke-width:1.5;"/>
    </defs>
    <g clip-path="url(#p2225e4a9d9)">
     <use style="fill:none;stroke:#000000;stroke-linejoin:miter;stroke-width:1.5;" x="51.751902" xlink:href="#me5e1ff6904" y="257.197487"/>
     <use style="fill:none;stroke:#000000;stroke-linejoin:miter;stroke-width:1.5;" x="89.626312" xlink:href="#me5e1ff6904" y="237.875824"/>
     <use style="fill:none;stroke:#000000;stroke-linejoin:miter;stroke-width:1.5;" x="120.440481" xlink:href="#me5e1ff6904" y="222.06719"/>
     <use style="fill:none;stroke:#000000;stroke-linejoin:miter;stroke-width:1.5;" x="181.684641" xlink:href="#me5e1ff6904" y="209.771586"/>
     <use style="fill:none;stroke:#000000;stroke-linejoin:miter;stroke-width:1.5;" x="215.232292" xlink:href="#me5e1ff6904" y="204.502041"/>
     <use style="fill:none;stroke:#000000;stroke-linejoin:miter;stroke-width:1.5;" x="366.564984" xlink:href="#me5e1ff6904" y="199.232497"/>
     <use style="fill:none;stroke:#000000;stroke-linejoin:miter;stroke-width:1.5;" x="366.564984" xlink:href="#me5e1ff6904" y="197.475982"/>
     <use style="fill:none;stroke:#000000;stroke-linejoin:miter;stroke-width:1.5;" x="386.886901" xlink:href="#me5e1ff6904" y="197.475982"/>
    </g>
   </g>
   <g id="line2d_85"/>
   <g id="line2d_86">
    <path clip-path="url(#p2225e4a9d9)" d="M 13.877492 278.275665 
L 13.877492 274.762636 
L 13.877492 274.762636 
L 13.877492 271.249606 
L 13.877492 271.249606 
L 13.877492 267.736576 
L 51.751902 267.736576 
L 51.751902 264.223546 
L 51.751902 264.223546 
L 51.751902 260.710517 
L 51.751902 260.710517 
L 51.751902 257.197487 
L 51.751902 257.197487 
L 51.751902 253.684457 
L 51.751902 253.684457 
L 51.751902 250.171428 
L 61.669677 250.171428 
L 61.669677 246.658398 
L 69.3625 246.658398 
L 69.3625 243.145368 
L 69.3625 243.145368 
L 69.3625 239.632338 
L 75.647994 239.632338 
L 75.647994 236.119309 
L 85.565769 236.119309 
L 85.565769 232.606279 
L 89.626312 232.606279 
L 89.626312 229.093249 
L 93.258592 229.093249 
L 93.258592 225.58022 
L 96.544389 225.58022 
L 96.544389 222.06719 
L 99.544087 222.06719 
L 99.544087 218.55416 
L 117.154685 218.55416 
L 117.154685 215.041131 
L 146.61046 215.041131 
L 146.61046 211.528101 
L 192.324083 211.528101 
L 192.324083 208.015071 
L 220.860141 208.015071 
L 220.860141 204.502041 
L 303.550245 204.502041 
L 303.550245 200.989012 
L 335.370381 200.989012 
L 335.370381 197.475982 
L 335.370381 197.475982 
L 335.370381 197.475982 
L 426.4825 197.475982 
" style="fill:none;stroke:#000000;stroke-linecap:square;stroke-width:1.5;"/>
   </g>
   <g id="line2d_87">
    <defs>
     <path d="M 0 7.5 
C 1.989023 7.5 3.896849 6.709753 5.303301 5.303301 
C 6.709753 3.896849 7.5 1.989023 7.5 0 
C 7.5 -1.989023 6.709753 -3.896849 5.303301 -5.303301 
C 3.896849 -6.709753 1.989023 -7.5 0 -7.5 
C -1.989023 -7.5 -3.896849 -6.709753 -5.303301 -5.303301 
C -6.709753 -3.896849 -7.5 -1.989023 -7.5 0 
C -7.5 1.989023 -6.709753 3.896849 -5.303301 5.303301 
C -3.896849 6.709753 -1.989023 7.5 0 7.5 
z
" id="m36432378c8" style="stroke:#000000;stroke-width:1.5;"/>
    </defs>
    <g clip-path="url(#p2225e4a9d9)">
     <use style="fill:none;stroke:#000000;stroke-width:1.5;" x="51.751902" xlink:href="#m36432378c8" y="257.197487"/>
     <use style="fill:none;stroke:#000000;stroke-width:1.5;" x="89.626312" xlink:href="#m36432378c8" y="232.606279"/>
     <use style="fill:none;stroke:#000000;stroke-width:1.5;" x="117.154685" xlink:href="#m36432378c8" y="218.55416"/>
     <use style="fill:none;stroke:#000000;stroke-width:1.5;" x="192.324083" xlink:href="#m36432378c8" y="211.528101"/>
     <use style="fill:none;stroke:#000000;stroke-width:1.5;" x="220.860141" xlink:href="#m36432378c8" y="208.015071"/>
     <use style="fill:none;stroke:#000000;stroke-width:1.5;" x="335.370381" xlink:href="#m36432378c8" y="200.989012"/>
     <use style="fill:none;stroke:#000000;stroke-width:1.5;" x="335.370381" xlink:href="#m36432378c8" y="197.475982"/>
     <use style="fill:none;stroke:#000000;stroke-width:1.5;" x="386.886901" xlink:href="#m36432378c8" y="197.475982"/>
    </g>
   </g>
   <g id="line2d_88"/>
   <g id="line2d_89"/>
   <g id="line2d_90"/>
   <g id="line2d_91"/>
   <g id="line2d_92"/>
   <g id="line2d_93"/>
   <g id="line2d_94"/>
   <g id="line2d_95">
    <path clip-path="url(#p2225e4a9d9)" d="M 409.476786 278.275665 
L 409.476786 12.163665 
" style="fill:none;stroke:#000000;stroke-linecap:square;stroke-width:1.5;"/>
    <defs>
     <path d="M -10 0 
L 10 0 
M 0 10 
L 0 -10 
" id="m1b312f3350" style="stroke:#000000;stroke-width:3;"/>
    </defs>
    <g clip-path="url(#p2225e4a9d9)">
     <use style="stroke:#000000;stroke-width:3;" x="409.476786" xlink:href="#m1b312f3350" y="278.275665"/>
     <use style="stroke:#000000;stroke-width:3;" x="409.476786" xlink:href="#m1b312f3350" y="12.163665"/>
    </g>
   </g>
   <g id="line2d_96">
    <path clip-path="url(#p2225e4a9d9)" d="M 409.450279 278.275665 
L 409.450279 12.163665 
" style="fill:none;stroke:#000000;stroke-linecap:square;stroke-width:1.5;"/>
    <defs>
     <path d="M 0 7.5 
C 1.989023 7.5 3.896849 6.709753 5.303301 5.303301 
C 6.709753 3.896849 7.5 1.989023 7.5 0 
C 7.5 -1.989023 6.709753 -3.896849 5.303301 -5.303301 
C 3.896849 -6.709753 1.989023 -7.5 0 -7.5 
C -1.989023 -7.5 -3.896849 -6.709753 -5.303301 -5.303301 
C -6.709753 -3.896849 -7.5 -1.989023 -7.5 0 
C -7.5 1.989023 -6.709753 3.896849 -5.303301 5.303301 
C -3.896849 6.709753 -1.989023 7.5 0 7.5 
z
" id="m0f2b700bf4" style="stroke:#000000;stroke-width:3;"/>
    </defs>
    <g clip-path="url(#p2225e4a9d9)">
     <use style="fill:none;stroke:#000000;stroke-width:3;" x="409.450279" xlink:href="#m0f2b700bf4" y="278.275665"/>
     <use style="fill:none;stroke:#000000;stroke-width:3;" x="409.450279" xlink:href="#m0f2b700bf4" y="12.163665"/>
    </g>
   </g>
   <g id="patch_3">
    <path d="M 69.3625 278.275665 
L 69.3625 12.163665 
" style="fill:none;stroke:#000000;stroke-linecap:square;stroke-linejoin:miter;stroke-width:0.8;"/>
   </g>
   <g id="patch_4">
    <path d="M 426.4825 278.275665 
L 426.4825 12.163665 
" style="fill:none;stroke:#000000;stroke-linecap:square;stroke-linejoin:miter;stroke-width:0.8;"/>
   </g>
   <g id="patch_5">
    <path d="M 69.3625 278.275665 
L 426.4825 278.275665 
" style="fill:none;stroke:#000000;stroke-linecap:square;stroke-linejoin:miter;stroke-width:0.8;"/>
   </g>
   <g id="patch_6">
    <path d="M 69.3625 12.163665 
L 426.4825 12.163665 
" style="fill:none;stroke:#000000;stroke-linecap:square;stroke-linejoin:miter;stroke-width:0.8;"/>
   </g>
   <g id="text_12">
    <!-- f20-f24 -->
    <defs>
     <path d="M 4.890625 31.390625 
L 31.203125 31.390625 
L 31.203125 23.390625 
L 4.890625 23.390625 
z
" id="DejaVuSans-2d"/>
    </defs>
    <g transform="translate(211.824063 32.68278)scale(0.2 -0.2)">
     <use xlink:href="#DejaVuSans-66"/>
     <use x="35.205078" xlink:href="#DejaVuSans-32"/>
     <use x="98.828125" xlink:href="#DejaVuSans-30"/>
     <use x="162.451172" xlink:href="#DejaVuSans-2d"/>
     <use x="198.535156" xlink:href="#DejaVuSans-66"/>
     <use x="233.740234" xlink:href="#DejaVuSans-32"/>
     <use x="297.363281" xlink:href="#DejaVuSans-34"/>
    </g>
   </g>
   <g id="text_13">
    <!-- absolute targets -->
    <defs>
     <path d="M 48.6875 27.296875 
Q 48.6875 37.203125 44.609375 42.84375 
Q 40.53125 48.484375 33.40625 48.484375 
Q 26.265625 48.484375 22.1875 42.84375 
Q 18.109375 37.203125 18.109375 27.296875 
Q 18.109375 17.390625 22.1875 11.75 
Q 26.265625 6.109375 33.40625 6.109375 
Q 40.53125 6.109375 44.609375 11.75 
Q 48.6875 17.390625 48.6875 27.296875 
M 18.109375 46.390625 
Q 20.953125 51.265625 25.265625 53.625 
Q 29.59375 56 35.59375 56 
Q 45.5625 56 51.78125 48.09375 
Q 58.015625 40.1875 58.015625 27.296875 
Q 58.015625 14.40625 51.78125 6.484375 
Q 45.5625 -1.421875 35.59375 -1.421875 
Q 29.59375 -1.421875 25.265625 0.953125 
Q 20.953125 3.328125 18.109375 8.203125 
L 18.109375 0 
L 9.078125 0 
L 9.078125 75.984375 
L 18.109375 75.984375 
z
" id="DejaVuSans-62"/>
     <path d="M 8.5 21.578125 
L 8.5 54.6875 
L 17.484375 54.6875 
L 17.484375 21.921875 
Q 17.484375 14.15625 20.5 10.265625 
Q 23.53125 6.390625 29.59375 6.390625 
Q 36.859375 6.390625 41.078125 11.03125 
Q 45.3125 15.671875 45.3125 23.6875 
L 45.3125 54.6875 
L 54.296875 54.6875 
L 54.296875 0 
L 45.3125 0 
L 45.3125 8.40625 
Q 42.046875 3.421875 37.71875 1 
Q 33.40625 -1.421875 27.6875 -1.421875 
Q 18.265625 -1.421875 13.375 4.4375 
Q 8.5 10.296875 8.5 21.578125 
M 31.109375 56 
z
" id="DejaVuSans-75"/>
     <path d="M 56.203125 29.59375 
L 56.203125 25.203125 
L 14.890625 25.203125 
Q 15.484375 15.921875 20.484375 11.0625 
Q 25.484375 6.203125 34.421875 6.203125 
Q 39.59375 6.203125 44.453125 7.46875 
Q 49.3125 8.734375 54.109375 11.28125 
L 54.109375 2.78125 
Q 49.265625 0.734375 44.1875 -0.34375 
Q 39.109375 -1.421875 33.890625 -1.421875 
Q 20.796875 -1.421875 13.15625 6.1875 
Q 5.515625 13.8125 5.515625 26.8125 
Q 5.515625 40.234375 12.765625 48.109375 
Q 20.015625 56 32.328125 56 
Q 43.359375 56 49.78125 48.890625 
Q 56.203125 41.796875 56.203125 29.59375 
M 47.21875 32.234375 
Q 47.125 39.59375 43.09375 43.984375 
Q 39.0625 48.390625 32.421875 48.390625 
Q 24.90625 48.390625 20.390625 44.140625 
Q 15.875 39.890625 15.1875 32.171875 
z
" id="DejaVuSans-65"/>
    </defs>
    <g transform="translate(69.3625 289.341709)scale(0.14 -0.14)">
     <use xlink:href="#DejaVuSans-61"/>
     <use x="61.279297" xlink:href="#DejaVuSans-62"/>
     <use x="124.755859" xlink:href="#DejaVuSans-73"/>
     <use x="176.855469" xlink:href="#DejaVuSans-6f"/>
     <use x="238.037109" xlink:href="#DejaVuSans-6c"/>
     <use x="265.820312" xlink:href="#DejaVuSans-75"/>
     <use x="329.199219" xlink:href="#DejaVuSans-74"/>
     <use x="368.408203" xlink:href="#DejaVuSans-65"/>
     <use x="429.931641" xlink:href="#DejaVuSans-20"/>
     <use x="461.71875" xlink:href="#DejaVuSans-74"/>
     <use x="500.927734" xlink:href="#DejaVuSans-61"/>
     <use x="562.207031" xlink:href="#DejaVuSans-72"/>
     <use x="603.304688" xlink:href="#DejaVuSans-67"/>
     <use x="666.78125" xlink:href="#DejaVuSans-65"/>
     <use x="728.304688" xlink:href="#DejaVuSans-74"/>
     <use x="767.513672" xlink:href="#DejaVuSans-73"/>
    </g>
   </g>
   <g id="text_14">
    <!-- v2.1 -->
    <g style="fill:#808080;" transform="translate(237.011563 273.534858)scale(0.1 -0.1)">
     <use xlink:href="#DejaVuSans-76"/>
     <use x="59.179688" xlink:href="#DejaVuSans-32"/>
     <use x="122.802734" xlink:href="#DejaVuSans-2e"/>
     <use x="154.589844" xlink:href="#DejaVuSans-31"/>
    </g>
   </g>
   <g id="legend_1">
    <g id="patch_7">
     <path d="M 83.3625 145.588665 
L 167.303125 145.588665 
Q 171.303125 145.588665 171.303125 141.588665 
L 171.303125 26.163665 
Q 171.303125 22.163665 167.303125 22.163665 
L 83.3625 22.163665 
Q 79.3625 22.163665 79.3625 26.163665 
L 79.3625 141.588665 
Q 79.3625 145.588665 83.3625 145.588665 
z
" style="fill:#ffffff;opacity:0.2;stroke:#cccccc;stroke-linejoin:miter;"/>
    </g>
    <g id="line2d_97">
     <path d="M 87.3625 38.36054 
L 127.3625 38.36054 
" style="fill:none;stroke:#000000;stroke-linecap:square;stroke-width:1.5;"/>
    </g>
    <g id="line2d_98"/>
    <g id="text_15">
     <!-- 1 -->
     <g transform="translate(143.3625 45.36054)scale(0.2 -0.2)">
      <use xlink:href="#DejaVuSans-31"/>
     </g>
    </g>
    <g id="line2d_99">
     <path d="M 87.3625 67.71679 
L 127.3625 67.71679 
" style="fill:none;stroke:#00bfbf;stroke-linecap:square;stroke-width:1.5;"/>
    </g>
    <g id="line2d_100"/>
    <g id="text_16">
     <!-- -1 -->
     <g transform="translate(143.3625 74.71679)scale(0.2 -0.2)">
      <use xlink:href="#DejaVuSans-2d"/>
      <use x="36.083984" xlink:href="#DejaVuSans-31"/>
     </g>
    </g>
    <g id="line2d_101">
     <path d="M 87.3625 97.07304 
L 127.3625 97.07304 
" style="fill:none;stroke:#bf00bf;stroke-linecap:square;stroke-width:1.5;"/>
    </g>
    <g id="line2d_102"/>
    <g id="text_17">
     <!-- -4 -->
     <g transform="translate(143.3625 104.07304)scale(0.2 -0.2)">
      <use xlink:href="#DejaVuSans-2d"/>
      <use x="36.083984" xlink:href="#DejaVuSans-34"/>
     </g>
    </g>
    <g id="line2d_103">
     <path d="M 87.3625 126.42929 
L 127.3625 126.42929 
" style="fill:none;stroke:#ff0000;stroke-linecap:square;stroke-width:3;"/>
    </g>
    <g id="line2d_104"/>
    <g id="text_18">
     <!-- -8 -->
     <g transform="translate(143.3625 133.42929)scale(0.2 -0.2)">
      <use xlink:href="#DejaVuSans-2d"/>
      <use x="36.083984" xlink:href="#DejaVuSans-38"/>
     </g>
    </g>
   </g>
  </g>
 </g>
 <defs>
  <clipPath id="p2225e4a9d9">
   <rect height="266.112" width="357.12" x="69.3625" y="12.163665"/>
  </clipPath>
 </defs>
</svg>
