<?xml version="1.0" encoding="utf-8" standalone="no"?>
<!DOCTYPE svg PUBLIC "-//W3C//DTD SVG 1.1//EN"
  "http://www.w3.org/Graphics/SVG/1.1/DTD/svg11.dtd">
<!-- Created with matplotlib (http://matplotlib.org/) -->
<svg height="334pt" version="1.1" viewBox="0 0 397 334" width="397pt" xmlns="http://www.w3.org/2000/svg" xmlns:xlink="http://www.w3.org/1999/xlink">
 <defs>
  <style type="text/css">
*{stroke-linecap:butt;stroke-linejoin:round;}
  </style>
 </defs>
 <g id="figure_1">
  <g id="patch_1">
   <path d="M 0 334.97575 
L 397.29 334.97575 
L 397.29 0 
L 0 0 
z
" style="fill:#ffffff;"/>
  </g>
  <g id="axes_1">
   <g id="patch_2">
    <path d="M 29.47 297.54825 
L 386.59 297.54825 
L 386.59 31.43625 
L 29.47 31.43625 
z
" style="fill:#ffffff;"/>
   </g>
   <g id="line2d_1">
    <path clip-path="url(#p49e104ee0e)" d="M 41.159282 144.966454 
L 86.143838 144.824834 
L 142.817676 136.965277 
L 219.719282 86.107558 
L 296.620888 42.223883 
L 373.522494 17.871465 
" style="fill:none;stroke:#f5deb3;stroke-linecap:square;stroke-width:10;"/>
    <defs>
     <path d="M -0 17.67767 
L 10.606602 0 
L 0 -17.67767 
L -10.606602 -0 
z
" id="m3c26021b06" style="stroke:#000000;stroke-linejoin:miter;"/>
    </defs>
    <g clip-path="url(#p49e104ee0e)">
     <use style="fill:#f5deb3;stroke:#000000;stroke-linejoin:miter;" x="41.159282" xlink:href="#m3c26021b06" y="144.966454"/>
     <use style="fill:#f5deb3;stroke:#000000;stroke-linejoin:miter;" x="86.143838" xlink:href="#m3c26021b06" y="144.824834"/>
     <use style="fill:#f5deb3;stroke:#000000;stroke-linejoin:miter;" x="142.817676" xlink:href="#m3c26021b06" y="136.965277"/>
     <use style="fill:#f5deb3;stroke:#000000;stroke-linejoin:miter;" x="219.719282" xlink:href="#m3c26021b06" y="86.107558"/>
     <use style="fill:#f5deb3;stroke:#000000;stroke-linejoin:miter;" x="296.620888" xlink:href="#m3c26021b06" y="42.223883"/>
     <use style="fill:#f5deb3;stroke:#000000;stroke-linejoin:miter;" x="373.522494" xlink:href="#m3c26021b06" y="17.871465"/>
    </g>
   </g>
   <g id="line2d_2">
    <defs>
     <path d="M -15 0 
L 15 0 
M 0 15 
L 0 -15 
" id="m15ea096017" style="stroke:#ff0000;stroke-width:5;"/>
    </defs>
    <g clip-path="url(#p49e104ee0e)">
     <use style="fill:#ff0000;stroke:#ff0000;stroke-width:5;" x="41.159282" xlink:href="#m15ea096017" y="177.506077"/>
    </g>
   </g>
   <g id="line2d_3">
    <defs>
     <path d="M -15 0 
L 15 0 
M 0 15 
L 0 -15 
" id="md87f1cfda4" style="stroke:#bfbf00;stroke-width:5;"/>
    </defs>
    <g clip-path="url(#p49e104ee0e)">
     <use style="fill:#bfbf00;stroke:#bfbf00;stroke-width:5;" x="86.143838" xlink:href="#md87f1cfda4" y="136.314828"/>
    </g>
   </g>
   <g id="matplotlib.axis_1">
    <g id="xtick_1">
     <g id="line2d_4">
      <defs>
       <path d="M 0 0 
L 0 3.5 
" id="m70c9391fb6" style="stroke:#000000;stroke-width:0.8;"/>
      </defs>
      <g>
       <use style="stroke:#000000;stroke-width:0.8;" x="41.159282" xlink:href="#m70c9391fb6" y="297.54825"/>
      </g>
     </g>
     <g id="text_1">
      <!-- 2 -->
      <defs>
       <path d="M 19.1875 8.296875 
L 53.609375 8.296875 
L 53.609375 0 
L 7.328125 0 
L 7.328125 8.296875 
Q 12.9375 14.109375 22.625 23.890625 
Q 32.328125 33.6875 34.8125 36.53125 
Q 39.546875 41.84375 41.421875 45.53125 
Q 43.3125 49.21875 43.3125 52.78125 
Q 43.3125 58.59375 39.234375 62.25 
Q 35.15625 65.921875 28.609375 65.921875 
Q 23.96875 65.921875 18.8125 64.3125 
Q 13.671875 62.703125 7.8125 59.421875 
L 7.8125 69.390625 
Q 13.765625 71.78125 18.9375 73 
Q 24.125 74.21875 28.421875 74.21875 
Q 39.75 74.21875 46.484375 68.546875 
Q 53.21875 62.890625 53.21875 53.421875 
Q 53.21875 48.921875 51.53125 44.890625 
Q 49.859375 40.875 45.40625 35.40625 
Q 44.1875 33.984375 37.640625 27.21875 
Q 31.109375 20.453125 19.1875 8.296875 
" id="DejaVuSans-32"/>
      </defs>
      <g transform="translate(33.524282 322.7845)scale(0.24 -0.24)">
       <use xlink:href="#DejaVuSans-32"/>
      </g>
     </g>
    </g>
    <g id="xtick_2">
     <g id="line2d_5">
      <g>
       <use style="stroke:#000000;stroke-width:0.8;" x="86.143838" xlink:href="#m70c9391fb6" y="297.54825"/>
      </g>
     </g>
     <g id="text_2">
      <!-- 3 -->
      <defs>
       <path d="M 40.578125 39.3125 
Q 47.65625 37.796875 51.625 33 
Q 55.609375 28.21875 55.609375 21.1875 
Q 55.609375 10.40625 48.1875 4.484375 
Q 40.765625 -1.421875 27.09375 -1.421875 
Q 22.515625 -1.421875 17.65625 -0.515625 
Q 12.796875 0.390625 7.625 2.203125 
L 7.625 11.71875 
Q 11.71875 9.328125 16.59375 8.109375 
Q 21.484375 6.890625 26.8125 6.890625 
Q 36.078125 6.890625 40.9375 10.546875 
Q 45.796875 14.203125 45.796875 21.1875 
Q 45.796875 27.640625 41.28125 31.265625 
Q 36.765625 34.90625 28.71875 34.90625 
L 20.21875 34.90625 
L 20.21875 43.015625 
L 29.109375 43.015625 
Q 36.375 43.015625 40.234375 45.921875 
Q 44.09375 48.828125 44.09375 54.296875 
Q 44.09375 59.90625 40.109375 62.90625 
Q 36.140625 65.921875 28.71875 65.921875 
Q 24.65625 65.921875 20.015625 65.03125 
Q 15.375 64.15625 9.8125 62.3125 
L 9.8125 71.09375 
Q 15.4375 72.65625 20.34375 73.4375 
Q 25.25 74.21875 29.59375 74.21875 
Q 40.828125 74.21875 47.359375 69.109375 
Q 53.90625 64.015625 53.90625 55.328125 
Q 53.90625 49.265625 50.4375 45.09375 
Q 46.96875 40.921875 40.578125 39.3125 
" id="DejaVuSans-33"/>
      </defs>
      <g transform="translate(78.508838 322.7845)scale(0.24 -0.24)">
       <use xlink:href="#DejaVuSans-33"/>
      </g>
     </g>
    </g>
    <g id="xtick_3">
     <g id="line2d_6">
      <g>
       <use style="stroke:#000000;stroke-width:0.8;" x="142.817676" xlink:href="#m70c9391fb6" y="297.54825"/>
      </g>
     </g>
     <g id="text_3">
      <!-- 5 -->
      <defs>
       <path d="M 10.796875 72.90625 
L 49.515625 72.90625 
L 49.515625 64.59375 
L 19.828125 64.59375 
L 19.828125 46.734375 
Q 21.96875 47.46875 24.109375 47.828125 
Q 26.265625 48.1875 28.421875 48.1875 
Q 40.625 48.1875 47.75 41.5 
Q 54.890625 34.8125 54.890625 23.390625 
Q 54.890625 11.625 47.5625 5.09375 
Q 40.234375 -1.421875 26.90625 -1.421875 
Q 22.3125 -1.421875 17.546875 -0.640625 
Q 12.796875 0.140625 7.71875 1.703125 
L 7.71875 11.625 
Q 12.109375 9.234375 16.796875 8.0625 
Q 21.484375 6.890625 26.703125 6.890625 
Q 35.15625 6.890625 40.078125 11.328125 
Q 45.015625 15.765625 45.015625 23.390625 
Q 45.015625 31 40.078125 35.4375 
Q 35.15625 39.890625 26.703125 39.890625 
Q 22.75 39.890625 18.8125 39.015625 
Q 14.890625 38.140625 10.796875 36.28125 
z
" id="DejaVuSans-35"/>
      </defs>
      <g transform="translate(135.182676 322.7845)scale(0.24 -0.24)">
       <use xlink:href="#DejaVuSans-35"/>
      </g>
     </g>
    </g>
    <g id="xtick_4">
     <g id="line2d_7">
      <g>
       <use style="stroke:#000000;stroke-width:0.8;" x="219.719282" xlink:href="#m70c9391fb6" y="297.54825"/>
      </g>
     </g>
     <g id="text_4">
      <!-- 10 -->
      <defs>
       <path d="M 12.40625 8.296875 
L 28.515625 8.296875 
L 28.515625 63.921875 
L 10.984375 60.40625 
L 10.984375 69.390625 
L 28.421875 72.90625 
L 38.28125 72.90625 
L 38.28125 8.296875 
L 54.390625 8.296875 
L 54.390625 0 
L 12.40625 0 
z
" id="DejaVuSans-31"/>
       <path d="M 31.78125 66.40625 
Q 24.171875 66.40625 20.328125 58.90625 
Q 16.5 51.421875 16.5 36.375 
Q 16.5 21.390625 20.328125 13.890625 
Q 24.171875 6.390625 31.78125 6.390625 
Q 39.453125 6.390625 43.28125 13.890625 
Q 47.125 21.390625 47.125 36.375 
Q 47.125 51.421875 43.28125 58.90625 
Q 39.453125 66.40625 31.78125 66.40625 
M 31.78125 74.21875 
Q 44.046875 74.21875 50.515625 64.515625 
Q 56.984375 54.828125 56.984375 36.375 
Q 56.984375 17.96875 50.515625 8.265625 
Q 44.046875 -1.421875 31.78125 -1.421875 
Q 19.53125 -1.421875 13.0625 8.265625 
Q 6.59375 17.96875 6.59375 36.375 
Q 6.59375 54.828125 13.0625 64.515625 
Q 19.53125 74.21875 31.78125 74.21875 
" id="DejaVuSans-30"/>
      </defs>
      <g transform="translate(204.449282 322.7845)scale(0.24 -0.24)">
       <use xlink:href="#DejaVuSans-31"/>
       <use x="63.623047" xlink:href="#DejaVuSans-30"/>
      </g>
     </g>
    </g>
    <g id="xtick_5">
     <g id="line2d_8">
      <g>
       <use style="stroke:#000000;stroke-width:0.8;" x="296.620888" xlink:href="#m70c9391fb6" y="297.54825"/>
      </g>
     </g>
     <g id="text_5">
      <!-- 20 -->
      <g transform="translate(281.350888 322.7845)scale(0.24 -0.24)">
       <use xlink:href="#DejaVuSans-32"/>
       <use x="63.623047" xlink:href="#DejaVuSans-30"/>
      </g>
     </g>
    </g>
    <g id="xtick_6">
     <g id="line2d_9">
      <g>
       <use style="stroke:#000000;stroke-width:0.8;" x="373.522494" xlink:href="#m70c9391fb6" y="297.54825"/>
      </g>
     </g>
     <g id="text_6">
      <!-- 40 -->
      <defs>
       <path d="M 37.796875 64.3125 
L 12.890625 25.390625 
L 37.796875 25.390625 
z
M 35.203125 72.90625 
L 47.609375 72.90625 
L 47.609375 25.390625 
L 58.015625 25.390625 
L 58.015625 17.1875 
L 47.609375 17.1875 
L 47.609375 0 
L 37.796875 0 
L 37.796875 17.1875 
L 4.890625 17.1875 
L 4.890625 26.703125 
z
" id="DejaVuSans-34"/>
      </defs>
      <g transform="translate(358.252494 322.7845)scale(0.24 -0.24)">
       <use xlink:href="#DejaVuSans-34"/>
       <use x="63.623047" xlink:href="#DejaVuSans-30"/>
      </g>
     </g>
    </g>
    <g id="xtick_7">
     <g id="line2d_10">
      <defs>
       <path d="M 0 0 
L 0 2 
" id="m130d54c399" style="stroke:#000000;stroke-width:0.6;"/>
      </defs>
      <g>
       <use style="stroke:#000000;stroke-width:0.6;" x="41.159282" xlink:href="#m130d54c399" y="297.54825"/>
      </g>
     </g>
    </g>
    <g id="xtick_8">
     <g id="line2d_11">
      <g>
       <use style="stroke:#000000;stroke-width:0.6;" x="86.143838" xlink:href="#m130d54c399" y="297.54825"/>
      </g>
     </g>
    </g>
    <g id="xtick_9">
     <g id="line2d_12">
      <g>
       <use style="stroke:#000000;stroke-width:0.6;" x="118.060888" xlink:href="#m130d54c399" y="297.54825"/>
      </g>
     </g>
    </g>
    <g id="xtick_10">
     <g id="line2d_13">
      <g>
       <use style="stroke:#000000;stroke-width:0.6;" x="142.817676" xlink:href="#m130d54c399" y="297.54825"/>
      </g>
     </g>
    </g>
    <g id="xtick_11">
     <g id="line2d_14">
      <g>
       <use style="stroke:#000000;stroke-width:0.6;" x="163.045444" xlink:href="#m130d54c399" y="297.54825"/>
      </g>
     </g>
    </g>
    <g id="xtick_12">
     <g id="line2d_15">
      <g>
       <use style="stroke:#000000;stroke-width:0.6;" x="180.147779" xlink:href="#m130d54c399" y="297.54825"/>
      </g>
     </g>
    </g>
    <g id="xtick_13">
     <g id="line2d_16">
      <g>
       <use style="stroke:#000000;stroke-width:0.6;" x="194.962494" xlink:href="#m130d54c399" y="297.54825"/>
      </g>
     </g>
    </g>
    <g id="xtick_14">
     <g id="line2d_17">
      <g>
       <use style="stroke:#000000;stroke-width:0.6;" x="208.03" xlink:href="#m130d54c399" y="297.54825"/>
      </g>
     </g>
    </g>
    <g id="xtick_15">
     <g id="line2d_18">
      <g>
       <use style="stroke:#000000;stroke-width:0.6;" x="296.620888" xlink:href="#m130d54c399" y="297.54825"/>
      </g>
     </g>
    </g>
    <g id="xtick_16">
     <g id="line2d_19">
      <g>
       <use style="stroke:#000000;stroke-width:0.6;" x="341.605444" xlink:href="#m130d54c399" y="297.54825"/>
      </g>
     </g>
    </g>
    <g id="xtick_17">
     <g id="line2d_20">
      <g>
       <use style="stroke:#000000;stroke-width:0.6;" x="373.522494" xlink:href="#m130d54c399" y="297.54825"/>
      </g>
     </g>
    </g>
   </g>
   <g id="matplotlib.axis_2">
    <g id="ytick_1">
     <g id="line2d_21">
      <path clip-path="url(#p49e104ee0e)" d="M 29.47 284.876251 
L 386.59 284.876251 
" style="fill:none;stroke:#b0b0b0;stroke-linecap:square;stroke-width:0.8;"/>
     </g>
     <g id="line2d_22">
      <defs>
       <path d="M 0 0 
L -3.5 0 
" id="m3aee6527f5" style="stroke:#000000;stroke-width:0.8;"/>
      </defs>
      <g>
       <use style="stroke:#000000;stroke-width:0.8;" x="29.47" xlink:href="#m3aee6527f5" y="284.876251"/>
      </g>
     </g>
     <g id="text_7">
      <!-- 0 -->
      <g transform="translate(7.2 293.994376)scale(0.24 -0.24)">
       <use xlink:href="#DejaVuSans-30"/>
      </g>
     </g>
    </g>
    <g id="ytick_2">
     <g id="line2d_23">
      <path clip-path="url(#p49e104ee0e)" d="M 29.47 221.516258 
L 386.59 221.516258 
" style="fill:none;stroke:#b0b0b0;stroke-linecap:square;stroke-width:0.8;"/>
     </g>
     <g id="line2d_24">
      <g>
       <use style="stroke:#000000;stroke-width:0.8;" x="29.47" xlink:href="#m3aee6527f5" y="221.516258"/>
      </g>
     </g>
     <g id="text_8">
      <!-- 1 -->
      <g transform="translate(7.2 230.634383)scale(0.24 -0.24)">
       <use xlink:href="#DejaVuSans-31"/>
      </g>
     </g>
    </g>
    <g id="ytick_3">
     <g id="line2d_25">
      <path clip-path="url(#p49e104ee0e)" d="M 29.47 158.156264 
L 386.59 158.156264 
" style="fill:none;stroke:#b0b0b0;stroke-linecap:square;stroke-width:0.8;"/>
     </g>
     <g id="line2d_26">
      <g>
       <use style="stroke:#000000;stroke-width:0.8;" x="29.47" xlink:href="#m3aee6527f5" y="158.156264"/>
      </g>
     </g>
     <g id="text_9">
      <!-- 2 -->
      <g transform="translate(7.2 167.274389)scale(0.24 -0.24)">
       <use xlink:href="#DejaVuSans-32"/>
      </g>
     </g>
    </g>
    <g id="ytick_4">
     <g id="line2d_27">
      <path clip-path="url(#p49e104ee0e)" d="M 29.47 94.796271 
L 386.59 94.796271 
" style="fill:none;stroke:#b0b0b0;stroke-linecap:square;stroke-width:0.8;"/>
     </g>
     <g id="line2d_28">
      <g>
       <use style="stroke:#000000;stroke-width:0.8;" x="29.47" xlink:href="#m3aee6527f5" y="94.796271"/>
      </g>
     </g>
     <g id="text_10">
      <!-- 3 -->
      <g transform="translate(7.2 103.914396)scale(0.24 -0.24)">
       <use xlink:href="#DejaVuSans-33"/>
      </g>
     </g>
    </g>
    <g id="ytick_5">
     <g id="line2d_29">
      <path clip-path="url(#p49e104ee0e)" d="M 29.47 31.436278 
L 386.59 31.436278 
" style="fill:none;stroke:#b0b0b0;stroke-linecap:square;stroke-width:0.8;"/>
     </g>
     <g id="line2d_30">
      <g>
       <use style="stroke:#000000;stroke-width:0.8;" x="29.47" xlink:href="#m3aee6527f5" y="31.436278"/>
      </g>
     </g>
     <g id="text_11">
      <!-- 4 -->
      <g transform="translate(7.2 40.554403)scale(0.24 -0.24)">
       <use xlink:href="#DejaVuSans-34"/>
      </g>
     </g>
    </g>
    <g id="ytick_6">
     <g id="line2d_31">
      <defs>
       <path d="M 0 0 
L -2 0 
" id="m470006f5c6" style="stroke:#000000;stroke-width:0.6;"/>
      </defs>
      <g>
       <use style="stroke:#000000;stroke-width:0.6;" x="29.47" xlink:href="#m470006f5c6" y="294.690838"/>
      </g>
     </g>
    </g>
    <g id="ytick_7">
     <g id="line2d_32">
      <g>
       <use style="stroke:#000000;stroke-width:0.6;" x="29.47" xlink:href="#m470006f5c6" y="291.016469"/>
      </g>
     </g>
    </g>
    <g id="ytick_8">
     <g id="line2d_33">
      <g>
       <use style="stroke:#000000;stroke-width:0.6;" x="29.47" xlink:href="#m470006f5c6" y="287.775446"/>
      </g>
     </g>
    </g>
    <g id="ytick_9">
     <g id="line2d_34">
      <g>
       <use style="stroke:#000000;stroke-width:0.6;" x="29.47" xlink:href="#m470006f5c6" y="265.802993"/>
      </g>
     </g>
    </g>
    <g id="ytick_10">
     <g id="line2d_35">
      <g>
       <use style="stroke:#000000;stroke-width:0.6;" x="29.47" xlink:href="#m470006f5c6" y="254.645852"/>
      </g>
     </g>
    </g>
    <g id="ytick_11">
     <g id="line2d_36">
      <g>
       <use style="stroke:#000000;stroke-width:0.6;" x="29.47" xlink:href="#m470006f5c6" y="246.729734"/>
      </g>
     </g>
    </g>
    <g id="ytick_12">
     <g id="line2d_37">
      <g>
       <use style="stroke:#000000;stroke-width:0.6;" x="29.47" xlink:href="#m470006f5c6" y="240.589516"/>
      </g>
     </g>
    </g>
    <g id="ytick_13">
     <g id="line2d_38">
      <g>
       <use style="stroke:#000000;stroke-width:0.6;" x="29.47" xlink:href="#m470006f5c6" y="235.572593"/>
      </g>
     </g>
    </g>
    <g id="ytick_14">
     <g id="line2d_39">
      <g>
       <use style="stroke:#000000;stroke-width:0.6;" x="29.47" xlink:href="#m470006f5c6" y="231.330845"/>
      </g>
     </g>
    </g>
    <g id="ytick_15">
     <g id="line2d_40">
      <g>
       <use style="stroke:#000000;stroke-width:0.6;" x="29.47" xlink:href="#m470006f5c6" y="227.656476"/>
      </g>
     </g>
    </g>
    <g id="ytick_16">
     <g id="line2d_41">
      <g>
       <use style="stroke:#000000;stroke-width:0.6;" x="29.47" xlink:href="#m470006f5c6" y="224.415452"/>
      </g>
     </g>
    </g>
    <g id="ytick_17">
     <g id="line2d_42">
      <g>
       <use style="stroke:#000000;stroke-width:0.6;" x="29.47" xlink:href="#m470006f5c6" y="202.442999"/>
      </g>
     </g>
    </g>
    <g id="ytick_18">
     <g id="line2d_43">
      <g>
       <use style="stroke:#000000;stroke-width:0.6;" x="29.47" xlink:href="#m470006f5c6" y="191.285858"/>
      </g>
     </g>
    </g>
    <g id="ytick_19">
     <g id="line2d_44">
      <g>
       <use style="stroke:#000000;stroke-width:0.6;" x="29.47" xlink:href="#m470006f5c6" y="183.369741"/>
      </g>
     </g>
    </g>
    <g id="ytick_20">
     <g id="line2d_45">
      <g>
       <use style="stroke:#000000;stroke-width:0.6;" x="29.47" xlink:href="#m470006f5c6" y="177.229523"/>
      </g>
     </g>
    </g>
    <g id="ytick_21">
     <g id="line2d_46">
      <g>
       <use style="stroke:#000000;stroke-width:0.6;" x="29.47" xlink:href="#m470006f5c6" y="172.2126"/>
      </g>
     </g>
    </g>
    <g id="ytick_22">
     <g id="line2d_47">
      <g>
       <use style="stroke:#000000;stroke-width:0.6;" x="29.47" xlink:href="#m470006f5c6" y="167.970852"/>
      </g>
     </g>
    </g>
    <g id="ytick_23">
     <g id="line2d_48">
      <g>
       <use style="stroke:#000000;stroke-width:0.6;" x="29.47" xlink:href="#m470006f5c6" y="164.296482"/>
      </g>
     </g>
    </g>
    <g id="ytick_24">
     <g id="line2d_49">
      <g>
       <use style="stroke:#000000;stroke-width:0.6;" x="29.47" xlink:href="#m470006f5c6" y="161.055459"/>
      </g>
     </g>
    </g>
    <g id="ytick_25">
     <g id="line2d_50">
      <g>
       <use style="stroke:#000000;stroke-width:0.6;" x="29.47" xlink:href="#m470006f5c6" y="139.083006"/>
      </g>
     </g>
    </g>
    <g id="ytick_26">
     <g id="line2d_51">
      <g>
       <use style="stroke:#000000;stroke-width:0.6;" x="29.47" xlink:href="#m470006f5c6" y="127.925865"/>
      </g>
     </g>
    </g>
    <g id="ytick_27">
     <g id="line2d_52">
      <g>
       <use style="stroke:#000000;stroke-width:0.6;" x="29.47" xlink:href="#m470006f5c6" y="120.009747"/>
      </g>
     </g>
    </g>
    <g id="ytick_28">
     <g id="line2d_53">
      <g>
       <use style="stroke:#000000;stroke-width:0.6;" x="29.47" xlink:href="#m470006f5c6" y="113.86953"/>
      </g>
     </g>
    </g>
    <g id="ytick_29">
     <g id="line2d_54">
      <g>
       <use style="stroke:#000000;stroke-width:0.6;" x="29.47" xlink:href="#m470006f5c6" y="108.852606"/>
      </g>
     </g>
    </g>
    <g id="ytick_30">
     <g id="line2d_55">
      <g>
       <use style="stroke:#000000;stroke-width:0.6;" x="29.47" xlink:href="#m470006f5c6" y="104.610858"/>
      </g>
     </g>
    </g>
    <g id="ytick_31">
     <g id="line2d_56">
      <g>
       <use style="stroke:#000000;stroke-width:0.6;" x="29.47" xlink:href="#m470006f5c6" y="100.936489"/>
      </g>
     </g>
    </g>
    <g id="ytick_32">
     <g id="line2d_57">
      <g>
       <use style="stroke:#000000;stroke-width:0.6;" x="29.47" xlink:href="#m470006f5c6" y="97.695465"/>
      </g>
     </g>
    </g>
    <g id="ytick_33">
     <g id="line2d_58">
      <g>
       <use style="stroke:#000000;stroke-width:0.6;" x="29.47" xlink:href="#m470006f5c6" y="75.723012"/>
      </g>
     </g>
    </g>
    <g id="ytick_34">
     <g id="line2d_59">
      <g>
       <use style="stroke:#000000;stroke-width:0.6;" x="29.47" xlink:href="#m470006f5c6" y="64.565871"/>
      </g>
     </g>
    </g>
    <g id="ytick_35">
     <g id="line2d_60">
      <g>
       <use style="stroke:#000000;stroke-width:0.6;" x="29.47" xlink:href="#m470006f5c6" y="56.649754"/>
      </g>
     </g>
    </g>
    <g id="ytick_36">
     <g id="line2d_61">
      <g>
       <use style="stroke:#000000;stroke-width:0.6;" x="29.47" xlink:href="#m470006f5c6" y="50.509536"/>
      </g>
     </g>
    </g>
    <g id="ytick_37">
     <g id="line2d_62">
      <g>
       <use style="stroke:#000000;stroke-width:0.6;" x="29.47" xlink:href="#m470006f5c6" y="45.492613"/>
      </g>
     </g>
    </g>
    <g id="ytick_38">
     <g id="line2d_63">
      <g>
       <use style="stroke:#000000;stroke-width:0.6;" x="29.47" xlink:href="#m470006f5c6" y="41.250865"/>
      </g>
     </g>
    </g>
    <g id="ytick_39">
     <g id="line2d_64">
      <g>
       <use style="stroke:#000000;stroke-width:0.6;" x="29.47" xlink:href="#m470006f5c6" y="37.576495"/>
      </g>
     </g>
    </g>
    <g id="ytick_40">
     <g id="line2d_65">
      <g>
       <use style="stroke:#000000;stroke-width:0.6;" x="29.47" xlink:href="#m470006f5c6" y="34.335472"/>
      </g>
     </g>
    </g>
   </g>
   <g id="line2d_66">
    <path clip-path="url(#p49e104ee0e)" d="M 38.515722 284.876251 
L 40.366214 208.583217 
L 38.515722 138.003774 
L 43.802842 138.003774 
L 41.95235 208.583217 
L 43.802842 284.876251 
L 38.515722 284.876251 
" style="fill:none;stroke:#000000;stroke-linecap:square;"/>
   </g>
   <g id="line2d_67">
    <path clip-path="url(#p49e104ee0e)" d="M 38.515722 284.876251 
L 43.802842 284.876251 
L 43.802842 138.003774 
L 38.515722 138.003774 
L 38.515722 284.876251 
" style="fill:none;"/>
    <defs>
     <path d="M 0 3 
C 0.795609 3 1.55874 2.683901 2.12132 2.12132 
C 2.683901 1.55874 3 0.795609 3 0 
C 3 -0.795609 2.683901 -1.55874 2.12132 -2.12132 
C 1.55874 -2.683901 0.795609 -3 0 -3 
C -0.795609 -3 -1.55874 -2.683901 -2.12132 -2.12132 
C -2.683901 -1.55874 -3 -0.795609 -3 0 
C -3 0.795609 -2.683901 1.55874 -2.12132 2.12132 
C -1.55874 2.683901 -0.795609 3 0 3 
z
" id="mb22afda9b1" style="stroke:#000000;stroke-width:2;"/>
    </defs>
    <g clip-path="url(#p49e104ee0e)">
     <use style="stroke:#000000;stroke-width:2;" x="38.515722" xlink:href="#mb22afda9b1" y="284.876251"/>
     <use style="stroke:#000000;stroke-width:2;" x="43.802842" xlink:href="#mb22afda9b1" y="284.876251"/>
     <use style="stroke:#000000;stroke-width:2;" x="43.802842" xlink:href="#mb22afda9b1" y="138.003774"/>
     <use style="stroke:#000000;stroke-width:2;" x="38.515722" xlink:href="#mb22afda9b1" y="138.003774"/>
     <use style="stroke:#000000;stroke-width:2;" x="38.515722" xlink:href="#mb22afda9b1" y="284.876251"/>
    </g>
   </g>
   <g id="line2d_68">
    <path clip-path="url(#p49e104ee0e)" d="M 38.515722 208.583217 
L 43.802842 208.583217 
" style="fill:none;stroke:#000000;stroke-linecap:square;stroke-width:2;"/>
   </g>
   <g id="line2d_69">
    <path clip-path="url(#p49e104ee0e)" d="M 83.500277 218.893618 
L 85.35077 209.754326 
L 83.500277 127.743028 
L 88.787398 127.743028 
L 86.936906 209.754326 
L 88.787398 218.893618 
L 83.500277 218.893618 
" style="fill:none;stroke:#000000;stroke-linecap:square;"/>
   </g>
   <g id="line2d_70">
    <path clip-path="url(#p49e104ee0e)" d="M 83.500277 218.893618 
L 88.787398 218.893618 
L 88.787398 127.743028 
L 83.500277 127.743028 
L 83.500277 218.893618 
" style="fill:none;"/>
    <g clip-path="url(#p49e104ee0e)">
     <use style="stroke:#000000;stroke-width:2;" x="83.500277" xlink:href="#mb22afda9b1" y="218.893618"/>
     <use style="stroke:#000000;stroke-width:2;" x="88.787398" xlink:href="#mb22afda9b1" y="218.893618"/>
     <use style="stroke:#000000;stroke-width:2;" x="88.787398" xlink:href="#mb22afda9b1" y="127.743028"/>
     <use style="stroke:#000000;stroke-width:2;" x="83.500277" xlink:href="#mb22afda9b1" y="127.743028"/>
     <use style="stroke:#000000;stroke-width:2;" x="83.500277" xlink:href="#mb22afda9b1" y="218.893618"/>
    </g>
   </g>
   <g id="line2d_71">
    <path clip-path="url(#p49e104ee0e)" d="M 83.500277 209.754326 
L 88.787398 209.754326 
" style="fill:none;stroke:#000000;stroke-linecap:square;stroke-width:2;"/>
   </g>
   <g id="line2d_72">
    <path clip-path="url(#p49e104ee0e)" d="M 41.159282 201.477395 
L 86.143838 155.436514 
" style="fill:none;stroke:#000000;stroke-linecap:square;stroke-width:4;"/>
   </g>
   <g id="line2d_73">
    <path clip-path="url(#p49e104ee0e)" d="M 41.159282 201.477395 
L 86.143838 155.436514 
" style="fill:none;"/>
    <defs>
     <path d="M 0 10 
C 2.652031 10 5.195799 8.946337 7.071068 7.071068 
C 8.946337 5.195799 10 2.652031 10 0 
C 10 -2.652031 8.946337 -5.195799 7.071068 -7.071068 
C 5.195799 -8.946337 2.652031 -10 0 -10 
C -2.652031 -10 -5.195799 -8.946337 -7.071068 -7.071068 
C -8.946337 -5.195799 -10 -2.652031 -10 0 
C -10 2.652031 -8.946337 5.195799 -7.071068 7.071068 
C -5.195799 8.946337 -2.652031 10 0 10 
z
" id="md72648d202" style="stroke:#000000;stroke-width:2;"/>
    </defs>
    <g clip-path="url(#p49e104ee0e)">
     <use style="stroke:#000000;stroke-width:2;" x="41.159282" xlink:href="#md72648d202" y="201.477395"/>
     <use style="stroke:#000000;stroke-width:2;" x="86.143838" xlink:href="#md72648d202" y="155.436514"/>
    </g>
   </g>
   <g id="line2d_74">
    <path clip-path="url(#p49e104ee0e)" d="M 37.634535 212.257586 
L 40.101858 116.08926 
L 37.634535 93.87625 
L 44.684029 93.87625 
L 42.216706 116.08926 
L 44.684029 212.257586 
L 37.634535 212.257586 
" style="fill:none;stroke:#0000ff;stroke-linecap:square;"/>
   </g>
   <g id="line2d_75">
    <path clip-path="url(#p49e104ee0e)" d="M 37.634535 212.257586 
L 44.684029 212.257586 
L 44.684029 93.87625 
L 37.634535 93.87625 
L 37.634535 212.257586 
" style="fill:none;"/>
    <defs>
     <path d="M 0 1.5 
C 0.397805 1.5 0.77937 1.341951 1.06066 1.06066 
C 1.341951 0.77937 1.5 0.397805 1.5 0 
C 1.5 -0.397805 1.341951 -0.77937 1.06066 -1.06066 
C 0.77937 -1.341951 0.397805 -1.5 0 -1.5 
C -0.397805 -1.5 -0.77937 -1.341951 -1.06066 -1.06066 
C -1.341951 -0.77937 -1.5 -0.397805 -1.5 0 
C -1.5 0.397805 -1.341951 0.77937 -1.06066 1.06066 
C -0.77937 1.341951 -0.397805 1.5 0 1.5 
z
" id="m68a2113fa4" style="stroke:#0000ff;"/>
    </defs>
    <g clip-path="url(#p49e104ee0e)">
     <use style="fill:#0000ff;stroke:#0000ff;" x="37.634535" xlink:href="#m68a2113fa4" y="212.257586"/>
     <use style="fill:#0000ff;stroke:#0000ff;" x="44.684029" xlink:href="#m68a2113fa4" y="212.257586"/>
     <use style="fill:#0000ff;stroke:#0000ff;" x="44.684029" xlink:href="#m68a2113fa4" y="93.87625"/>
     <use style="fill:#0000ff;stroke:#0000ff;" x="37.634535" xlink:href="#m68a2113fa4" y="93.87625"/>
     <use style="fill:#0000ff;stroke:#0000ff;" x="37.634535" xlink:href="#m68a2113fa4" y="212.257586"/>
    </g>
   </g>
   <g id="line2d_76">
    <path clip-path="url(#p49e104ee0e)" d="M 37.634535 116.08926 
L 44.684029 116.08926 
" style="fill:none;stroke:#0000ff;stroke-linecap:square;stroke-width:2;"/>
   </g>
   <g id="line2d_77">
    <path clip-path="url(#p49e104ee0e)" d="M 82.619091 127.987082 
L 85.086414 127.380958 
L 82.619091 97.715856 
L 89.668585 97.715856 
L 87.201262 127.380958 
L 89.668585 127.987082 
L 82.619091 127.987082 
" style="fill:none;stroke:#0000ff;stroke-linecap:square;"/>
   </g>
   <g id="line2d_78">
    <path clip-path="url(#p49e104ee0e)" d="M 82.619091 127.987082 
L 89.668585 127.987082 
L 89.668585 97.715856 
L 82.619091 97.715856 
L 82.619091 127.987082 
" style="fill:none;"/>
    <g clip-path="url(#p49e104ee0e)">
     <use style="fill:#0000ff;stroke:#0000ff;" x="82.619091" xlink:href="#m68a2113fa4" y="127.987082"/>
     <use style="fill:#0000ff;stroke:#0000ff;" x="89.668585" xlink:href="#m68a2113fa4" y="127.987082"/>
     <use style="fill:#0000ff;stroke:#0000ff;" x="89.668585" xlink:href="#m68a2113fa4" y="97.715856"/>
     <use style="fill:#0000ff;stroke:#0000ff;" x="82.619091" xlink:href="#m68a2113fa4" y="97.715856"/>
     <use style="fill:#0000ff;stroke:#0000ff;" x="82.619091" xlink:href="#m68a2113fa4" y="127.987082"/>
    </g>
   </g>
   <g id="line2d_79">
    <path clip-path="url(#p49e104ee0e)" d="M 82.619091 127.380958 
L 89.668585 127.380958 
" style="fill:none;stroke:#0000ff;stroke-linecap:square;stroke-width:2;"/>
   </g>
   <g id="line2d_80">
    <path clip-path="url(#p49e104ee0e)" d="M 41.159282 124.266787 
L 86.143838 97.27072 
" style="fill:none;stroke:#0000ff;stroke-linecap:square;stroke-width:4;"/>
   </g>
   <g id="line2d_81">
    <path clip-path="url(#p49e104ee0e)" d="M 41.159282 124.266787 
L 86.143838 97.27072 
" style="fill:none;"/>
    <defs>
     <path d="M 0 5 
C 1.326016 5 2.597899 4.473168 3.535534 3.535534 
C 4.473168 2.597899 5 1.326016 5 0 
C 5 -1.326016 4.473168 -2.597899 3.535534 -3.535534 
C 2.597899 -4.473168 1.326016 -5 0 -5 
C -1.326016 -5 -2.597899 -4.473168 -3.535534 -3.535534 
C -4.473168 -2.597899 -5 -1.326016 -5 0 
C -5 1.326016 -4.473168 2.597899 -3.535534 3.535534 
C -2.597899 4.473168 -1.326016 5 0 5 
z
" id="m52a3740d19" style="stroke:#0000ff;"/>
    </defs>
    <g clip-path="url(#p49e104ee0e)">
     <use style="fill:#0000ff;stroke:#0000ff;" x="41.159282" xlink:href="#m52a3740d19" y="124.266787"/>
     <use style="fill:#0000ff;stroke:#0000ff;" x="86.143838" xlink:href="#m52a3740d19" y="97.27072"/>
    </g>
   </g>
   <g id="line2d_82">
    <path clip-path="url(#p49e104ee0e)" d="M 36.753348 119.263251 
L 39.837502 96.22219 
L 36.753348 77.87571 
L 45.565216 77.87571 
L 42.481062 96.22219 
L 45.565216 119.263251 
L 36.753348 119.263251 
" style="fill:none;stroke:#00bfbf;stroke-linecap:square;"/>
   </g>
   <g id="line2d_83">
    <path clip-path="url(#p49e104ee0e)" d="M 36.753348 119.263251 
L 45.565216 119.263251 
L 45.565216 77.87571 
L 36.753348 77.87571 
L 36.753348 119.263251 
" style="fill:none;"/>
    <defs>
     <path d="M -0 3 
L 3 -3 
L -3 -3 
z
" id="mf6c2af9f68" style="stroke:#00bfbf;stroke-linejoin:miter;stroke-width:2;"/>
    </defs>
    <g clip-path="url(#p49e104ee0e)">
     <use style="fill:#00bfbf;stroke:#00bfbf;stroke-linejoin:miter;stroke-width:2;" x="36.753348" xlink:href="#mf6c2af9f68" y="119.263251"/>
     <use style="fill:#00bfbf;stroke:#00bfbf;stroke-linejoin:miter;stroke-width:2;" x="45.565216" xlink:href="#mf6c2af9f68" y="119.263251"/>
     <use style="fill:#00bfbf;stroke:#00bfbf;stroke-linejoin:miter;stroke-width:2;" x="45.565216" xlink:href="#mf6c2af9f68" y="77.87571"/>
     <use style="fill:#00bfbf;stroke:#00bfbf;stroke-linejoin:miter;stroke-width:2;" x="36.753348" xlink:href="#mf6c2af9f68" y="77.87571"/>
     <use style="fill:#00bfbf;stroke:#00bfbf;stroke-linejoin:miter;stroke-width:2;" x="36.753348" xlink:href="#mf6c2af9f68" y="119.263251"/>
    </g>
   </g>
   <g id="line2d_84">
    <path clip-path="url(#p49e104ee0e)" d="M 36.753348 96.22219 
L 45.565216 96.22219 
" style="fill:none;stroke:#00bfbf;stroke-linecap:square;stroke-width:2;"/>
   </g>
   <g id="line2d_85">
    <path clip-path="url(#p49e104ee0e)" d="M 81.737904 187.841757 
L 84.822058 101.492405 
L 81.737904 73.938515 
L 90.549772 73.938515 
L 87.465618 101.492405 
L 90.549772 187.841757 
L 81.737904 187.841757 
" style="fill:none;stroke:#00bfbf;stroke-linecap:square;"/>
   </g>
   <g id="line2d_86">
    <path clip-path="url(#p49e104ee0e)" d="M 81.737904 187.841757 
L 90.549772 187.841757 
L 90.549772 73.938515 
L 81.737904 73.938515 
L 81.737904 187.841757 
" style="fill:none;"/>
    <g clip-path="url(#p49e104ee0e)">
     <use style="fill:#00bfbf;stroke:#00bfbf;stroke-linejoin:miter;stroke-width:2;" x="81.737904" xlink:href="#mf6c2af9f68" y="187.841757"/>
     <use style="fill:#00bfbf;stroke:#00bfbf;stroke-linejoin:miter;stroke-width:2;" x="90.549772" xlink:href="#mf6c2af9f68" y="187.841757"/>
     <use style="fill:#00bfbf;stroke:#00bfbf;stroke-linejoin:miter;stroke-width:2;" x="90.549772" xlink:href="#mf6c2af9f68" y="73.938515"/>
     <use style="fill:#00bfbf;stroke:#00bfbf;stroke-linejoin:miter;stroke-width:2;" x="81.737904" xlink:href="#mf6c2af9f68" y="73.938515"/>
     <use style="fill:#00bfbf;stroke:#00bfbf;stroke-linejoin:miter;stroke-width:2;" x="81.737904" xlink:href="#mf6c2af9f68" y="187.841757"/>
    </g>
   </g>
   <g id="line2d_87">
    <path clip-path="url(#p49e104ee0e)" d="M 81.737904 101.492405 
L 90.549772 101.492405 
" style="fill:none;stroke:#00bfbf;stroke-linecap:square;stroke-width:2;"/>
   </g>
   <g id="line2d_88">
    <path clip-path="url(#p49e104ee0e)" d="M 41.159282 86.94386 
L 86.143838 76.025057 
" style="fill:none;stroke:#00bfbf;stroke-linecap:square;stroke-width:4;"/>
   </g>
   <g id="line2d_89">
    <path clip-path="url(#p49e104ee0e)" d="M 41.159282 86.94386 
L 86.143838 76.025057 
" style="fill:none;"/>
    <defs>
     <path d="M -0 10 
L 10 -10 
L -10 -10 
z
" id="md0773b1419" style="stroke:#000000;stroke-linejoin:miter;stroke-width:2;"/>
    </defs>
    <g clip-path="url(#p49e104ee0e)">
     <use style="fill:#00bfbf;stroke:#000000;stroke-linejoin:miter;stroke-width:2;" x="41.159282" xlink:href="#md0773b1419" y="86.94386"/>
     <use style="fill:#00bfbf;stroke:#000000;stroke-linejoin:miter;stroke-width:2;" x="86.143838" xlink:href="#md0773b1419" y="76.025057"/>
    </g>
   </g>
   <g id="line2d_90">
    <path clip-path="url(#p49e104ee0e)" d="M 35.872161 100.560709 
L 39.573146 67.353188 
L 35.872161 52.738216 
L 46.446403 52.738216 
L 42.745418 67.353188 
L 46.446403 100.560709 
L 35.872161 100.560709 
" style="fill:none;stroke:#008000;stroke-linecap:square;"/>
   </g>
   <g id="line2d_91">
    <path clip-path="url(#p49e104ee0e)" d="M 35.872161 100.560709 
L 46.446403 100.560709 
L 46.446403 52.738216 
L 35.872161 52.738216 
L 35.872161 100.560709 
" style="fill:none;"/>
    <defs>
     <path d="M 0 1.5 
C 0.397805 1.5 0.77937 1.341951 1.06066 1.06066 
C 1.341951 0.77937 1.5 0.397805 1.5 0 
C 1.5 -0.397805 1.341951 -0.77937 1.06066 -1.06066 
C 0.77937 -1.341951 0.397805 -1.5 0 -1.5 
C -0.397805 -1.5 -0.77937 -1.341951 -1.06066 -1.06066 
C -1.341951 -0.77937 -1.5 -0.397805 -1.5 0 
C -1.5 0.397805 -1.341951 0.77937 -1.06066 1.06066 
C -0.77937 1.341951 -0.397805 1.5 0 1.5 
z
" id="m18f7b80ee3" style="stroke:#008000;"/>
    </defs>
    <g clip-path="url(#p49e104ee0e)">
     <use style="fill:#008000;stroke:#008000;" x="35.872161" xlink:href="#m18f7b80ee3" y="100.560709"/>
     <use style="fill:#008000;stroke:#008000;" x="46.446403" xlink:href="#m18f7b80ee3" y="100.560709"/>
     <use style="fill:#008000;stroke:#008000;" x="46.446403" xlink:href="#m18f7b80ee3" y="52.738216"/>
     <use style="fill:#008000;stroke:#008000;" x="35.872161" xlink:href="#m18f7b80ee3" y="52.738216"/>
     <use style="fill:#008000;stroke:#008000;" x="35.872161" xlink:href="#m18f7b80ee3" y="100.560709"/>
    </g>
   </g>
   <g id="line2d_92">
    <path clip-path="url(#p49e104ee0e)" d="M 35.872161 67.353188 
L 46.446403 67.353188 
" style="fill:none;stroke:#008000;stroke-linecap:square;stroke-width:2;"/>
   </g>
   <g id="line2d_93">
    <path clip-path="url(#p49e104ee0e)" d="M 80.856717 104.311121 
L 84.557702 95.272746 
L 80.856717 73.004647 
L 91.430959 73.004647 
L 87.729974 95.272746 
L 91.430959 104.311121 
L 80.856717 104.311121 
" style="fill:none;stroke:#008000;stroke-linecap:square;"/>
   </g>
   <g id="line2d_94">
    <path clip-path="url(#p49e104ee0e)" d="M 80.856717 104.311121 
L 91.430959 104.311121 
L 91.430959 73.004647 
L 80.856717 73.004647 
L 80.856717 104.311121 
" style="fill:none;"/>
    <g clip-path="url(#p49e104ee0e)">
     <use style="fill:#008000;stroke:#008000;" x="80.856717" xlink:href="#m18f7b80ee3" y="104.311121"/>
     <use style="fill:#008000;stroke:#008000;" x="91.430959" xlink:href="#m18f7b80ee3" y="104.311121"/>
     <use style="fill:#008000;stroke:#008000;" x="91.430959" xlink:href="#m18f7b80ee3" y="73.004647"/>
     <use style="fill:#008000;stroke:#008000;" x="80.856717" xlink:href="#m18f7b80ee3" y="73.004647"/>
     <use style="fill:#008000;stroke:#008000;" x="80.856717" xlink:href="#m18f7b80ee3" y="104.311121"/>
    </g>
   </g>
   <g id="line2d_95">
    <path clip-path="url(#p49e104ee0e)" d="M 80.856717 95.272746 
L 91.430959 95.272746 
" style="fill:none;stroke:#008000;stroke-linecap:square;stroke-width:2;"/>
   </g>
   <g id="line2d_96">
    <path clip-path="url(#p49e104ee0e)" d="M 41.159282 66.356451 
L 86.143838 75.274945 
" style="fill:none;stroke:#008000;stroke-linecap:square;stroke-width:4;"/>
   </g>
   <g id="line2d_97">
    <path clip-path="url(#p49e104ee0e)" d="M 41.159282 66.356451 
L 86.143838 75.274945 
" style="fill:none;"/>
    <defs>
     <path d="M 0 5 
C 1.326016 5 2.597899 4.473168 3.535534 3.535534 
C 4.473168 2.597899 5 1.326016 5 0 
C 5 -1.326016 4.473168 -2.597899 3.535534 -3.535534 
C 2.597899 -4.473168 1.326016 -5 0 -5 
C -1.326016 -5 -2.597899 -4.473168 -3.535534 -3.535534 
C -4.473168 -2.597899 -5 -1.326016 -5 0 
C -5 1.326016 -4.473168 2.597899 -3.535534 3.535534 
C -2.597899 4.473168 -1.326016 5 0 5 
z
" id="m6da6eb0977" style="stroke:#008000;"/>
    </defs>
    <g clip-path="url(#p49e104ee0e)">
     <use style="fill:#008000;stroke:#008000;" x="41.159282" xlink:href="#m6da6eb0977" y="66.356451"/>
     <use style="fill:#008000;stroke:#008000;" x="86.143838" xlink:href="#m6da6eb0977" y="75.274945"/>
    </g>
   </g>
   <g id="line2d_98">
    <path clip-path="url(#p49e104ee0e)" d="M 34.990974 85.32224 
L 39.30879 71.745909 
L 34.990974 64.465161 
L 47.32759 64.465161 
L 43.009774 71.745909 
L 47.32759 85.32224 
L 34.990974 85.32224 
" style="fill:none;stroke:#bfbf00;stroke-linecap:square;"/>
   </g>
   <g id="line2d_99">
    <path clip-path="url(#p49e104ee0e)" d="M 34.990974 85.32224 
L 47.32759 85.32224 
L 47.32759 64.465161 
L 34.990974 64.465161 
L 34.990974 85.32224 
" style="fill:none;"/>
    <defs>
     <path d="M 0 -3 
L -3 3 
L 3 3 
z
" id="md22d51621e" style="stroke:#bfbf00;stroke-linejoin:miter;stroke-width:2;"/>
    </defs>
    <g clip-path="url(#p49e104ee0e)">
     <use style="fill:#bfbf00;stroke:#bfbf00;stroke-linejoin:miter;stroke-width:2;" x="34.990974" xlink:href="#md22d51621e" y="85.32224"/>
     <use style="fill:#bfbf00;stroke:#bfbf00;stroke-linejoin:miter;stroke-width:2;" x="47.32759" xlink:href="#md22d51621e" y="85.32224"/>
     <use style="fill:#bfbf00;stroke:#bfbf00;stroke-linejoin:miter;stroke-width:2;" x="47.32759" xlink:href="#md22d51621e" y="64.465161"/>
     <use style="fill:#bfbf00;stroke:#bfbf00;stroke-linejoin:miter;stroke-width:2;" x="34.990974" xlink:href="#md22d51621e" y="64.465161"/>
     <use style="fill:#bfbf00;stroke:#bfbf00;stroke-linejoin:miter;stroke-width:2;" x="34.990974" xlink:href="#md22d51621e" y="85.32224"/>
    </g>
   </g>
   <g id="line2d_100">
    <path clip-path="url(#p49e104ee0e)" d="M 34.990974 71.745909 
L 47.32759 71.745909 
" style="fill:none;stroke:#bfbf00;stroke-linecap:square;stroke-width:2;"/>
   </g>
   <g id="line2d_101">
    <path clip-path="url(#p49e104ee0e)" d="M 79.97553 85.920243 
L 84.293346 56.848823 
L 79.97553 39.493398 
L 92.312146 39.493398 
L 87.99433 56.848823 
L 92.312146 85.920243 
L 79.97553 85.920243 
" style="fill:none;stroke:#bfbf00;stroke-linecap:square;"/>
   </g>
   <g id="line2d_102">
    <path clip-path="url(#p49e104ee0e)" d="M 79.97553 85.920243 
L 92.312146 85.920243 
L 92.312146 39.493398 
L 79.97553 39.493398 
L 79.97553 85.920243 
" style="fill:none;"/>
    <g clip-path="url(#p49e104ee0e)">
     <use style="fill:#bfbf00;stroke:#bfbf00;stroke-linejoin:miter;stroke-width:2;" x="79.97553" xlink:href="#md22d51621e" y="85.920243"/>
     <use style="fill:#bfbf00;stroke:#bfbf00;stroke-linejoin:miter;stroke-width:2;" x="92.312146" xlink:href="#md22d51621e" y="85.920243"/>
     <use style="fill:#bfbf00;stroke:#bfbf00;stroke-linejoin:miter;stroke-width:2;" x="92.312146" xlink:href="#md22d51621e" y="39.493398"/>
     <use style="fill:#bfbf00;stroke:#bfbf00;stroke-linejoin:miter;stroke-width:2;" x="79.97553" xlink:href="#md22d51621e" y="39.493398"/>
     <use style="fill:#bfbf00;stroke:#bfbf00;stroke-linejoin:miter;stroke-width:2;" x="79.97553" xlink:href="#md22d51621e" y="85.920243"/>
    </g>
   </g>
   <g id="line2d_103">
    <path clip-path="url(#p49e104ee0e)" d="M 79.97553 56.848823 
L 92.312146 56.848823 
" style="fill:none;stroke:#bfbf00;stroke-linecap:square;stroke-width:2;"/>
   </g>
   <g id="line2d_104">
    <path clip-path="url(#p49e104ee0e)" d="M 41.159282 66.356451 
L 86.143838 73.463394 
" style="fill:none;stroke:#bfbf00;stroke-linecap:square;stroke-width:4;"/>
   </g>
   <g id="line2d_105">
    <path clip-path="url(#p49e104ee0e)" d="M 41.159282 66.356451 
L 86.143838 73.463394 
" style="fill:none;"/>
    <defs>
     <path d="M 0 -10 
L -10 10 
L 10 10 
z
" id="m1a3db00d74" style="stroke:#000000;stroke-linejoin:miter;stroke-width:2;"/>
    </defs>
    <g clip-path="url(#p49e104ee0e)">
     <use style="fill:#bfbf00;stroke:#000000;stroke-linejoin:miter;stroke-width:2;" x="41.159282" xlink:href="#m1a3db00d74" y="66.356451"/>
     <use style="fill:#bfbf00;stroke:#000000;stroke-linejoin:miter;stroke-width:2;" x="86.143838" xlink:href="#m1a3db00d74" y="73.463394"/>
    </g>
   </g>
   <g id="line2d_106">
    <path clip-path="url(#p49e104ee0e)" d="M 34.109787 100.560709 
L 39.044434 100.560709 
L 34.109787 57.981647 
L 48.208777 57.981647 
L 43.27413 100.560709 
L 48.208777 100.560709 
L 34.109787 100.560709 
" style="fill:none;stroke:#bf00bf;stroke-linecap:square;"/>
   </g>
   <g id="line2d_107">
    <path clip-path="url(#p49e104ee0e)" d="M 34.109787 100.560709 
L 48.208777 100.560709 
L 48.208777 57.981647 
L 34.109787 57.981647 
L 34.109787 100.560709 
" style="fill:none;"/>
    <defs>
     <path d="M 0 1.5 
C 0.397805 1.5 0.77937 1.341951 1.06066 1.06066 
C 1.341951 0.77937 1.5 0.397805 1.5 0 
C 1.5 -0.397805 1.341951 -0.77937 1.06066 -1.06066 
C 0.77937 -1.341951 0.397805 -1.5 0 -1.5 
C -0.397805 -1.5 -0.77937 -1.341951 -1.06066 -1.06066 
C -1.341951 -0.77937 -1.5 -0.397805 -1.5 0 
C -1.5 0.397805 -1.341951 0.77937 -1.06066 1.06066 
C -0.77937 1.341951 -0.397805 1.5 0 1.5 
z
" id="mb77b908e59" style="stroke:#bf00bf;"/>
    </defs>
    <g clip-path="url(#p49e104ee0e)">
     <use style="fill:#bf00bf;stroke:#bf00bf;" x="34.109787" xlink:href="#mb77b908e59" y="100.560709"/>
     <use style="fill:#bf00bf;stroke:#bf00bf;" x="48.208777" xlink:href="#mb77b908e59" y="100.560709"/>
     <use style="fill:#bf00bf;stroke:#bf00bf;" x="48.208777" xlink:href="#mb77b908e59" y="57.981647"/>
     <use style="fill:#bf00bf;stroke:#bf00bf;" x="34.109787" xlink:href="#mb77b908e59" y="57.981647"/>
     <use style="fill:#bf00bf;stroke:#bf00bf;" x="34.109787" xlink:href="#mb77b908e59" y="100.560709"/>
    </g>
   </g>
   <g id="line2d_108">
    <path clip-path="url(#p49e104ee0e)" d="M 34.109787 100.560709 
L 48.208777 100.560709 
" style="fill:none;stroke:#bf00bf;stroke-linecap:square;stroke-width:2;"/>
   </g>
   <g id="line2d_109">
    <path clip-path="url(#p49e104ee0e)" d="M 41.159282 66.356451 
" style="fill:none;"/>
    <defs>
     <path d="M 0 5 
C 1.326016 5 2.597899 4.473168 3.535534 3.535534 
C 4.473168 2.597899 5 1.326016 5 0 
C 5 -1.326016 4.473168 -2.597899 3.535534 -3.535534 
C 2.597899 -4.473168 1.326016 -5 0 -5 
C -1.326016 -5 -2.597899 -4.473168 -3.535534 -3.535534 
C -4.473168 -2.597899 -5 -1.326016 -5 0 
C -5 1.326016 -4.473168 2.597899 -3.535534 3.535534 
C -2.597899 4.473168 -1.326016 5 0 5 
z
" id="mc8ab7bad51" style="stroke:#bf00bf;"/>
    </defs>
    <g clip-path="url(#p49e104ee0e)">
     <use style="fill:#bf00bf;stroke:#bf00bf;" x="41.159282" xlink:href="#mc8ab7bad51" y="66.356451"/>
    </g>
   </g>
   <g id="line2d_110">
    <path clip-path="url(#p49e104ee0e)" d="M 33.228601 132.997877 
L 38.780078 65.982132 
L 33.228601 53.719277 
L 49.089963 53.719277 
L 43.538486 65.982132 
L 49.089963 132.997877 
L 33.228601 132.997877 
" style="fill:none;stroke:#ff0000;stroke-linecap:square;"/>
   </g>
   <g id="line2d_111">
    <path clip-path="url(#p49e104ee0e)" d="M 33.228601 132.997877 
L 49.089963 132.997877 
L 49.089963 53.719277 
L 33.228601 53.719277 
L 33.228601 132.997877 
" style="fill:none;"/>
    <defs>
     <path d="M 0 3 
C 0.795609 3 1.55874 2.683901 2.12132 2.12132 
C 2.683901 1.55874 3 0.795609 3 0 
C 3 -0.795609 2.683901 -1.55874 2.12132 -2.12132 
C 1.55874 -2.683901 0.795609 -3 0 -3 
C -0.795609 -3 -1.55874 -2.683901 -2.12132 -2.12132 
C -2.683901 -1.55874 -3 -0.795609 -3 0 
C -3 0.795609 -2.683901 1.55874 -2.12132 2.12132 
C -1.55874 2.683901 -0.795609 3 0 3 
z
" id="mb63a1cf85e" style="stroke:#ff0000;stroke-width:2;"/>
    </defs>
    <g clip-path="url(#p49e104ee0e)">
     <use style="fill:#ff0000;stroke:#ff0000;stroke-width:2;" x="33.228601" xlink:href="#mb63a1cf85e" y="132.997877"/>
     <use style="fill:#ff0000;stroke:#ff0000;stroke-width:2;" x="49.089963" xlink:href="#mb63a1cf85e" y="132.997877"/>
     <use style="fill:#ff0000;stroke:#ff0000;stroke-width:2;" x="49.089963" xlink:href="#mb63a1cf85e" y="53.719277"/>
     <use style="fill:#ff0000;stroke:#ff0000;stroke-width:2;" x="33.228601" xlink:href="#mb63a1cf85e" y="53.719277"/>
     <use style="fill:#ff0000;stroke:#ff0000;stroke-width:2;" x="33.228601" xlink:href="#mb63a1cf85e" y="132.997877"/>
    </g>
   </g>
   <g id="line2d_112">
    <path clip-path="url(#p49e104ee0e)" d="M 33.228601 65.982132 
L 49.089963 65.982132 
" style="fill:none;stroke:#ff0000;stroke-linecap:square;stroke-width:2;"/>
   </g>
   <g id="line2d_113">
    <path clip-path="url(#p49e104ee0e)" d="M 41.159282 65.982132 
" style="fill:none;"/>
    <defs>
     <path d="M 0 10 
C 2.652031 10 5.195799 8.946337 7.071068 7.071068 
C 8.946337 5.195799 10 2.652031 10 0 
C 10 -2.652031 8.946337 -5.195799 7.071068 -7.071068 
C 5.195799 -8.946337 2.652031 -10 0 -10 
C -2.652031 -10 -5.195799 -8.946337 -7.071068 -7.071068 
C -8.946337 -5.195799 -10 -2.652031 -10 0 
C -10 2.652031 -8.946337 5.195799 -7.071068 7.071068 
C -5.195799 8.946337 -2.652031 10 0 10 
z
" id="m6d8d4a81d9" style="stroke:#000000;stroke-width:2;"/>
    </defs>
    <g clip-path="url(#p49e104ee0e)">
     <use style="fill:#ff0000;stroke:#000000;stroke-width:2;" x="41.159282" xlink:href="#m6d8d4a81d9" y="65.982132"/>
    </g>
   </g>
   <g id="line2d_114"/>
   <g id="line2d_115"/>
   <g id="line2d_116"/>
   <g id="line2d_117"/>
   <g id="line2d_118"/>
   <g id="line2d_119"/>
   <g id="line2d_120"/>
   <g id="line2d_121">
    <defs>
     <path d="M -10 10 
L 10 -10 
M -10 -10 
L 10 10 
" id="m7d5ff91733" style="stroke:#ff0000;"/>
    </defs>
    <g clip-path="url(#p49e104ee0e)">
     <use style="fill:#ff0000;stroke:#ff0000;" x="41.159282" xlink:href="#m7d5ff91733" y="139.083006"/>
     <use style="fill:#ff0000;stroke:#ff0000;" x="86.143838" xlink:href="#m7d5ff91733" y="127.925865"/>
    </g>
   </g>
   <g id="line2d_122">
    <path clip-path="url(#p49e104ee0e)" d="M 90.592458 335.97575 
L 398.29 259.660117 
" style="fill:none;stroke:#000000;stroke-dasharray:2.2,2.2;stroke-dashoffset:0;stroke-width:0.5;"/>
   </g>
   <g id="line2d_123">
    <path clip-path="url(#p49e104ee0e)" d="M -1 295.332663 
L 398.29 196.300123 
" style="fill:none;stroke:#000000;stroke-dasharray:2.2,2.2;stroke-dashoffset:0;stroke-width:0.5;"/>
   </g>
   <g id="line2d_124">
    <path clip-path="url(#p49e104ee0e)" d="M -1 231.97267 
L 398.29 132.94013 
" style="fill:none;stroke:#000000;stroke-dasharray:2.2,2.2;stroke-dashoffset:0;stroke-width:0.5;"/>
   </g>
   <g id="line2d_125">
    <path clip-path="url(#p49e104ee0e)" d="M -1 168.612677 
L 398.29 69.580136 
" style="fill:none;stroke:#000000;stroke-dasharray:2.2,2.2;stroke-dashoffset:0;stroke-width:0.5;"/>
   </g>
   <g id="line2d_126">
    <path clip-path="url(#p49e104ee0e)" d="M -1 105.252683 
L 398.29 6.220143 
" style="fill:none;stroke:#000000;stroke-dasharray:2.2,2.2;stroke-dashoffset:0;stroke-width:0.5;"/>
   </g>
   <g id="line2d_127">
    <path clip-path="url(#p49e104ee0e)" d="M -1 41.89269 
L 171.939339 -1 
" style="fill:none;stroke:#000000;stroke-dasharray:2.2,2.2;stroke-dashoffset:0;stroke-width:0.5;"/>
   </g>
   <g id="line2d_128">
    <path clip-path="url(#p49e104ee0e)" style="fill:none;stroke:#000000;stroke-dasharray:2.2,2.2;stroke-dashoffset:0;stroke-width:0.5;"/>
   </g>
   <g id="line2d_129">
    <path clip-path="url(#p49e104ee0e)" style="fill:none;stroke:#000000;stroke-dasharray:2.2,2.2;stroke-dashoffset:0;stroke-width:0.5;"/>
   </g>
   <g id="line2d_130">
    <path clip-path="url(#p49e104ee0e)" style="fill:none;stroke:#000000;stroke-dasharray:2.2,2.2;stroke-dashoffset:0;stroke-width:0.5;"/>
   </g>
   <g id="patch_3">
    <path d="M 29.47 297.54825 
L 29.47 31.43625 
" style="fill:none;stroke:#000000;stroke-linecap:square;stroke-linejoin:miter;stroke-width:0.8;"/>
   </g>
   <g id="patch_4">
    <path d="M 386.59 297.54825 
L 386.59 31.43625 
" style="fill:none;stroke:#000000;stroke-linecap:square;stroke-linejoin:miter;stroke-width:0.8;"/>
   </g>
   <g id="patch_5">
    <path d="M 29.47 297.54825 
L 386.59 297.54825 
" style="fill:none;stroke:#000000;stroke-linecap:square;stroke-linejoin:miter;stroke-width:0.8;"/>
   </g>
   <g id="patch_6">
    <path d="M 29.47 31.43625 
L 386.59 31.43625 
" style="fill:none;stroke:#000000;stroke-linecap:square;stroke-linejoin:miter;stroke-width:0.8;"/>
   </g>
   <g id="text_12">
    <!-- 1 -->
    <g transform="translate(34.669532 50.582428)scale(0.204 -0.204)">
     <use xlink:href="#DejaVuSans-31"/>
    </g>
   </g>
   <g id="text_13">
    <!-- 2 -->
    <g transform="translate(79.654088 58.063691)scale(0.204 -0.204)">
     <use xlink:href="#DejaVuSans-32"/>
    </g>
   </g>
   <g id="text_14">
    <!-- 15 instances -->
    <defs>
     <path id="DejaVuSans-20"/>
     <path d="M 9.421875 54.6875 
L 18.40625 54.6875 
L 18.40625 0 
L 9.421875 0 
z
M 9.421875 75.984375 
L 18.40625 75.984375 
L 18.40625 64.59375 
L 9.421875 64.59375 
z
" id="DejaVuSans-69"/>
     <path d="M 54.890625 33.015625 
L 54.890625 0 
L 45.90625 0 
L 45.90625 32.71875 
Q 45.90625 40.484375 42.875 44.328125 
Q 39.84375 48.1875 33.796875 48.1875 
Q 26.515625 48.1875 22.3125 43.546875 
Q 18.109375 38.921875 18.109375 30.90625 
L 18.109375 0 
L 9.078125 0 
L 9.078125 54.6875 
L 18.109375 54.6875 
L 18.109375 46.1875 
Q 21.34375 51.125 25.703125 53.5625 
Q 30.078125 56 35.796875 56 
Q 45.21875 56 50.046875 50.171875 
Q 54.890625 44.34375 54.890625 33.015625 
" id="DejaVuSans-6e"/>
     <path d="M 44.28125 53.078125 
L 44.28125 44.578125 
Q 40.484375 46.53125 36.375 47.5 
Q 32.28125 48.484375 27.875 48.484375 
Q 21.1875 48.484375 17.84375 46.4375 
Q 14.5 44.390625 14.5 40.28125 
Q 14.5 37.15625 16.890625 35.375 
Q 19.28125 33.59375 26.515625 31.984375 
L 29.59375 31.296875 
Q 39.15625 29.25 43.1875 25.515625 
Q 47.21875 21.78125 47.21875 15.09375 
Q 47.21875 7.46875 41.1875 3.015625 
Q 35.15625 -1.421875 24.609375 -1.421875 
Q 20.21875 -1.421875 15.453125 -0.5625 
Q 10.6875 0.296875 5.421875 2 
L 5.421875 11.28125 
Q 10.40625 8.6875 15.234375 7.390625 
Q 20.0625 6.109375 24.8125 6.109375 
Q 31.15625 6.109375 34.5625 8.28125 
Q 37.984375 10.453125 37.984375 14.40625 
Q 37.984375 18.0625 35.515625 20.015625 
Q 33.0625 21.96875 24.703125 23.78125 
L 21.578125 24.515625 
Q 13.234375 26.265625 9.515625 29.90625 
Q 5.8125 33.546875 5.8125 39.890625 
Q 5.8125 47.609375 11.28125 51.796875 
Q 16.75 56 26.8125 56 
Q 31.78125 56 36.171875 55.265625 
Q 40.578125 54.546875 44.28125 53.078125 
" id="DejaVuSans-73"/>
     <path d="M 18.3125 70.21875 
L 18.3125 54.6875 
L 36.8125 54.6875 
L 36.8125 47.703125 
L 18.3125 47.703125 
L 18.3125 18.015625 
Q 18.3125 11.328125 20.140625 9.421875 
Q 21.96875 7.515625 27.59375 7.515625 
L 36.8125 7.515625 
L 36.8125 0 
L 27.59375 0 
Q 17.1875 0 13.234375 3.875 
Q 9.28125 7.765625 9.28125 18.015625 
L 9.28125 47.703125 
L 2.6875 47.703125 
L 2.6875 54.6875 
L 9.28125 54.6875 
L 9.28125 70.21875 
z
" id="DejaVuSans-74"/>
     <path d="M 34.28125 27.484375 
Q 23.390625 27.484375 19.1875 25 
Q 14.984375 22.515625 14.984375 16.5 
Q 14.984375 11.71875 18.140625 8.90625 
Q 21.296875 6.109375 26.703125 6.109375 
Q 34.1875 6.109375 38.703125 11.40625 
Q 43.21875 16.703125 43.21875 25.484375 
L 43.21875 27.484375 
z
M 52.203125 31.203125 
L 52.203125 0 
L 43.21875 0 
L 43.21875 8.296875 
Q 40.140625 3.328125 35.546875 0.953125 
Q 30.953125 -1.421875 24.3125 -1.421875 
Q 15.921875 -1.421875 10.953125 3.296875 
Q 6 8.015625 6 15.921875 
Q 6 25.140625 12.171875 29.828125 
Q 18.359375 34.515625 30.609375 34.515625 
L 43.21875 34.515625 
L 43.21875 35.40625 
Q 43.21875 41.609375 39.140625 45 
Q 35.0625 48.390625 27.6875 48.390625 
Q 23 48.390625 18.546875 47.265625 
Q 14.109375 46.140625 10.015625 43.890625 
L 10.015625 52.203125 
Q 14.9375 54.109375 19.578125 55.046875 
Q 24.21875 56 28.609375 56 
Q 40.484375 56 46.34375 49.84375 
Q 52.203125 43.703125 52.203125 31.203125 
" id="DejaVuSans-61"/>
     <path d="M 48.78125 52.59375 
L 48.78125 44.1875 
Q 44.96875 46.296875 41.140625 47.34375 
Q 37.3125 48.390625 33.40625 48.390625 
Q 24.65625 48.390625 19.8125 42.84375 
Q 14.984375 37.3125 14.984375 27.296875 
Q 14.984375 17.28125 19.8125 11.734375 
Q 24.65625 6.203125 33.40625 6.203125 
Q 37.3125 6.203125 41.140625 7.25 
Q 44.96875 8.296875 48.78125 10.40625 
L 48.78125 2.09375 
Q 45.015625 0.34375 40.984375 -0.53125 
Q 36.96875 -1.421875 32.421875 -1.421875 
Q 20.0625 -1.421875 12.78125 6.34375 
Q 5.515625 14.109375 5.515625 27.296875 
Q 5.515625 40.671875 12.859375 48.328125 
Q 20.21875 56 33.015625 56 
Q 37.15625 56 41.109375 55.140625 
Q 45.0625 54.296875 48.78125 52.59375 
" id="DejaVuSans-63"/>
     <path d="M 56.203125 29.59375 
L 56.203125 25.203125 
L 14.890625 25.203125 
Q 15.484375 15.921875 20.484375 11.0625 
Q 25.484375 6.203125 34.421875 6.203125 
Q 39.59375 6.203125 44.453125 7.46875 
Q 49.3125 8.734375 54.109375 11.28125 
L 54.109375 2.78125 
Q 49.265625 0.734375 44.1875 -0.34375 
Q 39.109375 -1.421875 33.890625 -1.421875 
Q 20.796875 -1.421875 13.15625 6.1875 
Q 5.515625 13.8125 5.515625 26.8125 
Q 5.515625 40.234375 12.765625 48.109375 
Q 20.015625 56 32.328125 56 
Q 43.359375 56 49.78125 48.890625 
Q 56.203125 41.796875 56.203125 29.59375 
M 47.21875 32.234375 
Q 47.125 39.59375 43.09375 43.984375 
Q 39.0625 48.390625 32.421875 48.390625 
Q 24.90625 48.390625 20.390625 44.140625 
Q 15.875 39.890625 15.1875 32.171875 
z
" id="DejaVuSans-65"/>
    </defs>
    <g transform="translate(29.47 278.95975)scale(0.14 -0.14)">
     <use xlink:href="#DejaVuSans-31"/>
     <use x="63.623047" xlink:href="#DejaVuSans-35"/>
     <use x="127.246094" xlink:href="#DejaVuSans-20"/>
     <use x="159.033203" xlink:href="#DejaVuSans-69"/>
     <use x="186.816406" xlink:href="#DejaVuSans-6e"/>
     <use x="250.195312" xlink:href="#DejaVuSans-73"/>
     <use x="302.294922" xlink:href="#DejaVuSans-74"/>
     <use x="341.503906" xlink:href="#DejaVuSans-61"/>
     <use x="402.783203" xlink:href="#DejaVuSans-6e"/>
     <use x="466.162109" xlink:href="#DejaVuSans-63"/>
     <use x="521.142578" xlink:href="#DejaVuSans-65"/>
     <use x="582.666016" xlink:href="#DejaVuSans-73"/>
    </g>
    <!-- absolute targets -->
    <defs>
     <path d="M 48.6875 27.296875 
Q 48.6875 37.203125 44.609375 42.84375 
Q 40.53125 48.484375 33.40625 48.484375 
Q 26.265625 48.484375 22.1875 42.84375 
Q 18.109375 37.203125 18.109375 27.296875 
Q 18.109375 17.390625 22.1875 11.75 
Q 26.265625 6.109375 33.40625 6.109375 
Q 40.53125 6.109375 44.609375 11.75 
Q 48.6875 17.390625 48.6875 27.296875 
M 18.109375 46.390625 
Q 20.953125 51.265625 25.265625 53.625 
Q 29.59375 56 35.59375 56 
Q 45.5625 56 51.78125 48.09375 
Q 58.015625 40.1875 58.015625 27.296875 
Q 58.015625 14.40625 51.78125 6.484375 
Q 45.5625 -1.421875 35.59375 -1.421875 
Q 29.59375 -1.421875 25.265625 0.953125 
Q 20.953125 3.328125 18.109375 8.203125 
L 18.109375 0 
L 9.078125 0 
L 9.078125 75.984375 
L 18.109375 75.984375 
z
" id="DejaVuSans-62"/>
     <path d="M 30.609375 48.390625 
Q 23.390625 48.390625 19.1875 42.75 
Q 14.984375 37.109375 14.984375 27.296875 
Q 14.984375 17.484375 19.15625 11.84375 
Q 23.34375 6.203125 30.609375 6.203125 
Q 37.796875 6.203125 41.984375 11.859375 
Q 46.1875 17.53125 46.1875 27.296875 
Q 46.1875 37.015625 41.984375 42.703125 
Q 37.796875 48.390625 30.609375 48.390625 
M 30.609375 56 
Q 42.328125 56 49.015625 48.375 
Q 55.71875 40.765625 55.71875 27.296875 
Q 55.71875 13.875 49.015625 6.21875 
Q 42.328125 -1.421875 30.609375 -1.421875 
Q 18.84375 -1.421875 12.171875 6.21875 
Q 5.515625 13.875 5.515625 27.296875 
Q 5.515625 40.765625 12.171875 48.375 
Q 18.84375 56 30.609375 56 
" id="DejaVuSans-6f"/>
     <path d="M 9.421875 75.984375 
L 18.40625 75.984375 
L 18.40625 0 
L 9.421875 0 
z
" id="DejaVuSans-6c"/>
     <path d="M 8.5 21.578125 
L 8.5 54.6875 
L 17.484375 54.6875 
L 17.484375 21.921875 
Q 17.484375 14.15625 20.5 10.265625 
Q 23.53125 6.390625 29.59375 6.390625 
Q 36.859375 6.390625 41.078125 11.03125 
Q 45.3125 15.671875 45.3125 23.6875 
L 45.3125 54.6875 
L 54.296875 54.6875 
L 54.296875 0 
L 45.3125 0 
L 45.3125 8.40625 
Q 42.046875 3.421875 37.71875 1 
Q 33.40625 -1.421875 27.6875 -1.421875 
Q 18.265625 -1.421875 13.375 4.4375 
Q 8.5 10.296875 8.5 21.578125 
M 31.109375 56 
z
" id="DejaVuSans-75"/>
     <path d="M 41.109375 46.296875 
Q 39.59375 47.171875 37.8125 47.578125 
Q 36.03125 48 33.890625 48 
Q 26.265625 48 22.1875 43.046875 
Q 18.109375 38.09375 18.109375 28.8125 
L 18.109375 0 
L 9.078125 0 
L 9.078125 54.6875 
L 18.109375 54.6875 
L 18.109375 46.1875 
Q 20.953125 51.171875 25.484375 53.578125 
Q 30.03125 56 36.53125 56 
Q 37.453125 56 38.578125 55.875 
Q 39.703125 55.765625 41.0625 55.515625 
z
" id="DejaVuSans-72"/>
     <path d="M 45.40625 27.984375 
Q 45.40625 37.75 41.375 43.109375 
Q 37.359375 48.484375 30.078125 48.484375 
Q 22.859375 48.484375 18.828125 43.109375 
Q 14.796875 37.75 14.796875 27.984375 
Q 14.796875 18.265625 18.828125 12.890625 
Q 22.859375 7.515625 30.078125 7.515625 
Q 37.359375 7.515625 41.375 12.890625 
Q 45.40625 18.265625 45.40625 27.984375 
M 54.390625 6.78125 
Q 54.390625 -7.171875 48.1875 -13.984375 
Q 42 -20.796875 29.203125 -20.796875 
Q 24.46875 -20.796875 20.265625 -20.09375 
Q 16.0625 -19.390625 12.109375 -17.921875 
L 12.109375 -9.1875 
Q 16.0625 -11.328125 19.921875 -12.34375 
Q 23.78125 -13.375 27.78125 -13.375 
Q 36.625 -13.375 41.015625 -8.765625 
Q 45.40625 -4.15625 45.40625 5.171875 
L 45.40625 9.625 
Q 42.625 4.78125 38.28125 2.390625 
Q 33.9375 0 27.875 0 
Q 17.828125 0 11.671875 7.65625 
Q 5.515625 15.328125 5.515625 27.984375 
Q 5.515625 40.671875 11.671875 48.328125 
Q 17.828125 56 27.875 56 
Q 33.9375 56 38.28125 53.609375 
Q 42.625 51.21875 45.40625 46.390625 
L 45.40625 54.6875 
L 54.390625 54.6875 
z
" id="DejaVuSans-67"/>
    </defs>
    <g transform="translate(29.47 294.636687)scale(0.14 -0.14)">
     <use xlink:href="#DejaVuSans-61"/>
     <use x="61.279297" xlink:href="#DejaVuSans-62"/>
     <use x="124.755859" xlink:href="#DejaVuSans-73"/>
     <use x="176.855469" xlink:href="#DejaVuSans-6f"/>
     <use x="238.037109" xlink:href="#DejaVuSans-6c"/>
     <use x="265.820312" xlink:href="#DejaVuSans-75"/>
     <use x="329.199219" xlink:href="#DejaVuSans-74"/>
     <use x="368.408203" xlink:href="#DejaVuSans-65"/>
     <use x="429.931641" xlink:href="#DejaVuSans-20"/>
     <use x="461.71875" xlink:href="#DejaVuSans-74"/>
     <use x="500.927734" xlink:href="#DejaVuSans-61"/>
     <use x="562.207031" xlink:href="#DejaVuSans-72"/>
     <use x="603.304688" xlink:href="#DejaVuSans-67"/>
     <use x="666.78125" xlink:href="#DejaVuSans-65"/>
     <use x="728.304688" xlink:href="#DejaVuSans-74"/>
     <use x="767.513672" xlink:href="#DejaVuSans-73"/>
    </g>
   </g>
   <g id="text_15">
    <!-- v2.1 -->
    <defs>
     <path d="M 2.984375 54.6875 
L 12.5 54.6875 
L 29.59375 8.796875 
L 46.6875 54.6875 
L 56.203125 54.6875 
L 35.6875 0 
L 23.484375 0 
z
" id="DejaVuSans-76"/>
     <path d="M 10.6875 12.40625 
L 21 12.40625 
L 21 0 
L 10.6875 0 
z
" id="DejaVuSans-2e"/>
    </defs>
    <g style="fill:#808080;" transform="translate(197.119063 292.807442)scale(0.1 -0.1)">
     <use xlink:href="#DejaVuSans-76"/>
     <use x="59.179688" xlink:href="#DejaVuSans-32"/>
     <use x="122.802734" xlink:href="#DejaVuSans-2e"/>
     <use x="154.589844" xlink:href="#DejaVuSans-31"/>
    </g>
   </g>
   <g id="text_16">
    <!-- 22 Gallagher 21 peaks -->
    <defs>
     <path d="M 59.515625 10.40625 
L 59.515625 29.984375 
L 43.40625 29.984375 
L 43.40625 38.09375 
L 69.28125 38.09375 
L 69.28125 6.78125 
Q 63.578125 2.734375 56.6875 0.65625 
Q 49.8125 -1.421875 42 -1.421875 
Q 24.90625 -1.421875 15.25 8.5625 
Q 5.609375 18.5625 5.609375 36.375 
Q 5.609375 54.25 15.25 64.234375 
Q 24.90625 74.21875 42 74.21875 
Q 49.125 74.21875 55.546875 72.453125 
Q 61.96875 70.703125 67.390625 67.28125 
L 67.390625 56.78125 
Q 61.921875 61.421875 55.765625 63.765625 
Q 49.609375 66.109375 42.828125 66.109375 
Q 29.4375 66.109375 22.71875 58.640625 
Q 16.015625 51.171875 16.015625 36.375 
Q 16.015625 21.625 22.71875 14.15625 
Q 29.4375 6.6875 42.828125 6.6875 
Q 48.046875 6.6875 52.140625 7.59375 
Q 56.25 8.5 59.515625 10.40625 
" id="DejaVuSans-47"/>
     <path d="M 54.890625 33.015625 
L 54.890625 0 
L 45.90625 0 
L 45.90625 32.71875 
Q 45.90625 40.484375 42.875 44.328125 
Q 39.84375 48.1875 33.796875 48.1875 
Q 26.515625 48.1875 22.3125 43.546875 
Q 18.109375 38.921875 18.109375 30.90625 
L 18.109375 0 
L 9.078125 0 
L 9.078125 75.984375 
L 18.109375 75.984375 
L 18.109375 46.1875 
Q 21.34375 51.125 25.703125 53.5625 
Q 30.078125 56 35.796875 56 
Q 45.21875 56 50.046875 50.171875 
Q 54.890625 44.34375 54.890625 33.015625 
" id="DejaVuSans-68"/>
     <path d="M 18.109375 8.203125 
L 18.109375 -20.796875 
L 9.078125 -20.796875 
L 9.078125 54.6875 
L 18.109375 54.6875 
L 18.109375 46.390625 
Q 20.953125 51.265625 25.265625 53.625 
Q 29.59375 56 35.59375 56 
Q 45.5625 56 51.78125 48.09375 
Q 58.015625 40.1875 58.015625 27.296875 
Q 58.015625 14.40625 51.78125 6.484375 
Q 45.5625 -1.421875 35.59375 -1.421875 
Q 29.59375 -1.421875 25.265625 0.953125 
Q 20.953125 3.328125 18.109375 8.203125 
M 48.6875 27.296875 
Q 48.6875 37.203125 44.609375 42.84375 
Q 40.53125 48.484375 33.40625 48.484375 
Q 26.265625 48.484375 22.1875 42.84375 
Q 18.109375 37.203125 18.109375 27.296875 
Q 18.109375 17.390625 22.1875 11.75 
Q 26.265625 6.109375 33.40625 6.109375 
Q 40.53125 6.109375 44.609375 11.75 
Q 48.6875 17.390625 48.6875 27.296875 
" id="DejaVuSans-70"/>
     <path d="M 9.078125 75.984375 
L 18.109375 75.984375 
L 18.109375 31.109375 
L 44.921875 54.6875 
L 56.390625 54.6875 
L 27.390625 29.109375 
L 57.625 0 
L 45.90625 0 
L 18.109375 26.703125 
L 18.109375 0 
L 9.078125 0 
z
" id="DejaVuSans-6b"/>
    </defs>
    <g transform="translate(72.28 25.43625)scale(0.24 -0.24)">
     <use xlink:href="#DejaVuSans-32"/>
     <use x="63.623047" xlink:href="#DejaVuSans-32"/>
     <use x="127.246094" xlink:href="#DejaVuSans-20"/>
     <use x="159.033203" xlink:href="#DejaVuSans-47"/>
     <use x="236.523438" xlink:href="#DejaVuSans-61"/>
     <use x="297.802734" xlink:href="#DejaVuSans-6c"/>
     <use x="325.585938" xlink:href="#DejaVuSans-6c"/>
     <use x="353.369141" xlink:href="#DejaVuSans-61"/>
     <use x="414.648438" xlink:href="#DejaVuSans-67"/>
     <use x="478.125" xlink:href="#DejaVuSans-68"/>
     <use x="541.503906" xlink:href="#DejaVuSans-65"/>
     <use x="603.027344" xlink:href="#DejaVuSans-72"/>
     <use x="644.140625" xlink:href="#DejaVuSans-20"/>
     <use x="675.927734" xlink:href="#DejaVuSans-32"/>
     <use x="739.550781" xlink:href="#DejaVuSans-31"/>
     <use x="803.173828" xlink:href="#DejaVuSans-20"/>
     <use x="834.960938" xlink:href="#DejaVuSans-70"/>
     <use x="898.4375" xlink:href="#DejaVuSans-65"/>
     <use x="959.960938" xlink:href="#DejaVuSans-61"/>
     <use x="1021.240234" xlink:href="#DejaVuSans-6b"/>
     <use x="1079.150391" xlink:href="#DejaVuSans-73"/>
    </g>
   </g>
  </g>
 </g>
 <defs>
  <clipPath id="p49e104ee0e">
   <rect height="266.112" width="357.12" x="29.47" y="31.43625"/>
  </clipPath>
 </defs>
</svg>
