<?xml version="1.0" encoding="utf-8" standalone="no"?>
<!DOCTYPE svg PUBLIC "-//W3C//DTD SVG 1.1//EN"
  "http://www.w3.org/Graphics/SVG/1.1/DTD/svg11.dtd">
<!-- Created with matplotlib (http://matplotlib.org/) -->
<svg height="333pt" version="1.1" viewBox="0 0 378 333" width="378pt" xmlns="http://www.w3.org/2000/svg" xmlns:xlink="http://www.w3.org/1999/xlink">
 <defs>
  <style type="text/css">
*{stroke-linecap:butt;stroke-linejoin:round;}
  </style>
 </defs>
 <g id="figure_1">
  <g id="patch_1">
   <path d="M 0 333.7245 
L 378.52 333.7245 
L 378.52 0 
L 0 0 
z
" style="fill:#ffffff;"/>
  </g>
  <g id="axes_1">
   <g id="patch_2">
    <path d="M 10.7 276.812 
L 367.82 276.812 
L 367.82 10.7 
L 10.7 10.7 
z
" style="fill:#ffffff;"/>
   </g>
   <g id="matplotlib.axis_1">
    <g id="xtick_1">
     <g id="line2d_1">
      <path clip-path="url(#p1b39c732db)" d="M 10.610538 276.812 
L 10.610538 10.7 
" style="fill:none;stroke:#b0b0b0;stroke-linecap:square;stroke-width:0.8;"/>
     </g>
     <g id="line2d_2">
      <defs>
       <path d="M 0 0 
L 0 3.5 
" id="m4b7c10103c" style="stroke:#000000;stroke-width:0.8;"/>
      </defs>
      <g>
       <use style="stroke:#000000;stroke-width:0.8;" x="10.610538" xlink:href="#m4b7c10103c" y="276.812"/>
      </g>
     </g>
    </g>
    <g id="xtick_2">
     <g id="line2d_3">
      <path clip-path="url(#p1b39c732db)" d="M 93.419793 276.812 
L 93.419793 10.7 
" style="fill:none;stroke:#b0b0b0;stroke-linecap:square;stroke-width:0.8;"/>
     </g>
     <g id="line2d_4">
      <g>
       <use style="stroke:#000000;stroke-width:0.8;" x="93.419793" xlink:href="#m4b7c10103c" y="276.812"/>
      </g>
     </g>
     <g id="text_1">
      <!-- -4 -->
      <defs>
       <path d="M 4.890625 31.390625 
L 31.203125 31.390625 
L 31.203125 23.390625 
L 4.890625 23.390625 
z
" id="DejaVuSans-2d"/>
       <path d="M 37.796875 64.3125 
L 12.890625 25.390625 
L 37.796875 25.390625 
z
M 35.203125 72.90625 
L 47.609375 72.90625 
L 47.609375 25.390625 
L 58.015625 25.390625 
L 58.015625 17.1875 
L 47.609375 17.1875 
L 47.609375 0 
L 37.796875 0 
L 37.796875 17.1875 
L 4.890625 17.1875 
L 4.890625 26.703125 
z
" id="DejaVuSans-34"/>
      </defs>
      <g transform="translate(83.449481 299.008875)scale(0.2 -0.2)">
       <use xlink:href="#DejaVuSans-2d"/>
       <use x="36.083984" xlink:href="#DejaVuSans-34"/>
      </g>
     </g>
    </g>
    <g id="xtick_3">
     <g id="line2d_5">
      <path clip-path="url(#p1b39c732db)" d="M 176.229049 276.812 
L 176.229049 10.7 
" style="fill:none;stroke:#b0b0b0;stroke-linecap:square;stroke-width:0.8;"/>
     </g>
     <g id="line2d_6">
      <g>
       <use style="stroke:#000000;stroke-width:0.8;" x="176.229049" xlink:href="#m4b7c10103c" y="276.812"/>
      </g>
     </g>
     <g id="text_2">
      <!-- 0 -->
      <defs>
       <path d="M 31.78125 66.40625 
Q 24.171875 66.40625 20.328125 58.90625 
Q 16.5 51.421875 16.5 36.375 
Q 16.5 21.390625 20.328125 13.890625 
Q 24.171875 6.390625 31.78125 6.390625 
Q 39.453125 6.390625 43.28125 13.890625 
Q 47.125 21.390625 47.125 36.375 
Q 47.125 51.421875 43.28125 58.90625 
Q 39.453125 66.40625 31.78125 66.40625 
M 31.78125 74.21875 
Q 44.046875 74.21875 50.515625 64.515625 
Q 56.984375 54.828125 56.984375 36.375 
Q 56.984375 17.96875 50.515625 8.265625 
Q 44.046875 -1.421875 31.78125 -1.421875 
Q 19.53125 -1.421875 13.0625 8.265625 
Q 6.59375 17.96875 6.59375 36.375 
Q 6.59375 54.828125 13.0625 64.515625 
Q 19.53125 74.21875 31.78125 74.21875 
" id="DejaVuSans-30"/>
      </defs>
      <g transform="translate(169.866549 299.008875)scale(0.2 -0.2)">
       <use xlink:href="#DejaVuSans-30"/>
      </g>
     </g>
    </g>
    <g id="xtick_4">
     <g id="line2d_7">
      <path clip-path="url(#p1b39c732db)" d="M 259.038304 276.812 
L 259.038304 10.7 
" style="fill:none;stroke:#b0b0b0;stroke-linecap:square;stroke-width:0.8;"/>
     </g>
     <g id="line2d_8">
      <g>
       <use style="stroke:#000000;stroke-width:0.8;" x="259.038304" xlink:href="#m4b7c10103c" y="276.812"/>
      </g>
     </g>
     <g id="text_3">
      <!-- 4 -->
      <g transform="translate(252.675804 299.008875)scale(0.2 -0.2)">
       <use xlink:href="#DejaVuSans-34"/>
      </g>
     </g>
    </g>
    <g id="xtick_5">
     <g id="line2d_9">
      <path clip-path="url(#p1b39c732db)" d="M 341.84756 276.812 
L 341.84756 10.7 
" style="fill:none;stroke:#b0b0b0;stroke-linecap:square;stroke-width:0.8;"/>
     </g>
     <g id="line2d_10">
      <g>
       <use style="stroke:#000000;stroke-width:0.8;" x="341.84756" xlink:href="#m4b7c10103c" y="276.812"/>
      </g>
     </g>
     <g id="text_4">
      <!-- 8 -->
      <defs>
       <path d="M 31.78125 34.625 
Q 24.75 34.625 20.71875 30.859375 
Q 16.703125 27.09375 16.703125 20.515625 
Q 16.703125 13.921875 20.71875 10.15625 
Q 24.75 6.390625 31.78125 6.390625 
Q 38.8125 6.390625 42.859375 10.171875 
Q 46.921875 13.96875 46.921875 20.515625 
Q 46.921875 27.09375 42.890625 30.859375 
Q 38.875 34.625 31.78125 34.625 
M 21.921875 38.8125 
Q 15.578125 40.375 12.03125 44.71875 
Q 8.5 49.078125 8.5 55.328125 
Q 8.5 64.0625 14.71875 69.140625 
Q 20.953125 74.21875 31.78125 74.21875 
Q 42.671875 74.21875 48.875 69.140625 
Q 55.078125 64.0625 55.078125 55.328125 
Q 55.078125 49.078125 51.53125 44.71875 
Q 48 40.375 41.703125 38.8125 
Q 48.828125 37.15625 52.796875 32.3125 
Q 56.78125 27.484375 56.78125 20.515625 
Q 56.78125 9.90625 50.3125 4.234375 
Q 43.84375 -1.421875 31.78125 -1.421875 
Q 19.734375 -1.421875 13.25 4.234375 
Q 6.78125 9.90625 6.78125 20.515625 
Q 6.78125 27.484375 10.78125 32.3125 
Q 14.796875 37.15625 21.921875 38.8125 
M 18.3125 54.390625 
Q 18.3125 48.734375 21.84375 45.5625 
Q 25.390625 42.390625 31.78125 42.390625 
Q 38.140625 42.390625 41.71875 45.5625 
Q 45.3125 48.734375 45.3125 54.390625 
Q 45.3125 60.0625 41.71875 63.234375 
Q 38.140625 66.40625 31.78125 66.40625 
Q 25.390625 66.40625 21.84375 63.234375 
Q 18.3125 60.0625 18.3125 54.390625 
" id="DejaVuSans-38"/>
      </defs>
      <g transform="translate(335.48506 299.008875)scale(0.2 -0.2)">
       <use xlink:href="#DejaVuSans-38"/>
      </g>
     </g>
    </g>
    <g id="text_5">
     <!-- log10 of Df -->
     <defs>
      <path d="M 9.421875 75.984375 
L 18.40625 75.984375 
L 18.40625 0 
L 9.421875 0 
z
" id="DejaVuSans-6c"/>
      <path d="M 30.609375 48.390625 
Q 23.390625 48.390625 19.1875 42.75 
Q 14.984375 37.109375 14.984375 27.296875 
Q 14.984375 17.484375 19.15625 11.84375 
Q 23.34375 6.203125 30.609375 6.203125 
Q 37.796875 6.203125 41.984375 11.859375 
Q 46.1875 17.53125 46.1875 27.296875 
Q 46.1875 37.015625 41.984375 42.703125 
Q 37.796875 48.390625 30.609375 48.390625 
M 30.609375 56 
Q 42.328125 56 49.015625 48.375 
Q 55.71875 40.765625 55.71875 27.296875 
Q 55.71875 13.875 49.015625 6.21875 
Q 42.328125 -1.421875 30.609375 -1.421875 
Q 18.84375 -1.421875 12.171875 6.21875 
Q 5.515625 13.875 5.515625 27.296875 
Q 5.515625 40.765625 12.171875 48.375 
Q 18.84375 56 30.609375 56 
" id="DejaVuSans-6f"/>
      <path d="M 45.40625 27.984375 
Q 45.40625 37.75 41.375 43.109375 
Q 37.359375 48.484375 30.078125 48.484375 
Q 22.859375 48.484375 18.828125 43.109375 
Q 14.796875 37.75 14.796875 27.984375 
Q 14.796875 18.265625 18.828125 12.890625 
Q 22.859375 7.515625 30.078125 7.515625 
Q 37.359375 7.515625 41.375 12.890625 
Q 45.40625 18.265625 45.40625 27.984375 
M 54.390625 6.78125 
Q 54.390625 -7.171875 48.1875 -13.984375 
Q 42 -20.796875 29.203125 -20.796875 
Q 24.46875 -20.796875 20.265625 -20.09375 
Q 16.0625 -19.390625 12.109375 -17.921875 
L 12.109375 -9.1875 
Q 16.0625 -11.328125 19.921875 -12.34375 
Q 23.78125 -13.375 27.78125 -13.375 
Q 36.625 -13.375 41.015625 -8.765625 
Q 45.40625 -4.15625 45.40625 5.171875 
L 45.40625 9.625 
Q 42.625 4.78125 38.28125 2.390625 
Q 33.9375 0 27.875 0 
Q 17.828125 0 11.671875 7.65625 
Q 5.515625 15.328125 5.515625 27.984375 
Q 5.515625 40.671875 11.671875 48.328125 
Q 17.828125 56 27.875 56 
Q 33.9375 56 38.28125 53.609375 
Q 42.625 51.21875 45.40625 46.390625 
L 45.40625 54.6875 
L 54.390625 54.6875 
z
" id="DejaVuSans-67"/>
      <path d="M 12.40625 8.296875 
L 28.515625 8.296875 
L 28.515625 63.921875 
L 10.984375 60.40625 
L 10.984375 69.390625 
L 28.421875 72.90625 
L 38.28125 72.90625 
L 38.28125 8.296875 
L 54.390625 8.296875 
L 54.390625 0 
L 12.40625 0 
z
" id="DejaVuSans-31"/>
      <path id="DejaVuSans-20"/>
      <path d="M 37.109375 75.984375 
L 37.109375 68.5 
L 28.515625 68.5 
Q 23.6875 68.5 21.796875 66.546875 
Q 19.921875 64.59375 19.921875 59.515625 
L 19.921875 54.6875 
L 34.71875 54.6875 
L 34.71875 47.703125 
L 19.921875 47.703125 
L 19.921875 0 
L 10.890625 0 
L 10.890625 47.703125 
L 2.296875 47.703125 
L 2.296875 54.6875 
L 10.890625 54.6875 
L 10.890625 58.5 
Q 10.890625 67.625 15.140625 71.796875 
Q 19.390625 75.984375 28.609375 75.984375 
z
" id="DejaVuSans-66"/>
      <path d="M 19.671875 64.796875 
L 19.671875 8.109375 
L 31.59375 8.109375 
Q 46.6875 8.109375 53.6875 14.9375 
Q 60.6875 21.78125 60.6875 36.53125 
Q 60.6875 51.171875 53.6875 57.984375 
Q 46.6875 64.796875 31.59375 64.796875 
z
M 9.8125 72.90625 
L 30.078125 72.90625 
Q 51.265625 72.90625 61.171875 64.09375 
Q 71.09375 55.28125 71.09375 36.53125 
Q 71.09375 17.671875 61.125 8.828125 
Q 51.171875 0 30.078125 0 
L 9.8125 0 
z
" id="DejaVuSans-44"/>
     </defs>
     <g transform="translate(134.074063 322.365125)scale(0.2 -0.2)">
      <use xlink:href="#DejaVuSans-6c"/>
      <use x="27.783203" xlink:href="#DejaVuSans-6f"/>
      <use x="88.964844" xlink:href="#DejaVuSans-67"/>
      <use x="152.441406" xlink:href="#DejaVuSans-31"/>
      <use x="216.064453" xlink:href="#DejaVuSans-30"/>
      <use x="279.6875" xlink:href="#DejaVuSans-20"/>
      <use x="311.474609" xlink:href="#DejaVuSans-6f"/>
      <use x="372.65625" xlink:href="#DejaVuSans-66"/>
      <use x="407.861328" xlink:href="#DejaVuSans-20"/>
      <use x="439.648438" xlink:href="#DejaVuSans-44"/>
      <use x="516.650391" xlink:href="#DejaVuSans-66"/>
     </g>
    </g>
   </g>
   <g id="matplotlib.axis_2">
    <g id="ytick_1">
     <g id="line2d_11">
      <path clip-path="url(#p1b39c732db)" d="M 10.7 276.812 
L 367.82 276.812 
" style="fill:none;stroke:#b0b0b0;stroke-linecap:square;stroke-width:0.8;"/>
     </g>
     <g id="line2d_12">
      <defs>
       <path d="M 0 0 
L -3.5 0 
" id="m683f3c7843" style="stroke:#000000;stroke-width:0.8;"/>
      </defs>
      <g>
       <use style="stroke:#000000;stroke-width:0.8;" x="10.7" xlink:href="#m683f3c7843" y="276.812"/>
      </g>
     </g>
    </g>
    <g id="ytick_2">
     <g id="line2d_13">
      <path clip-path="url(#p1b39c732db)" d="M 10.7 224.116554 
L 367.82 224.116554 
" style="fill:none;stroke:#b0b0b0;stroke-linecap:square;stroke-width:0.8;"/>
     </g>
     <g id="line2d_14">
      <g>
       <use style="stroke:#000000;stroke-width:0.8;" x="10.7" xlink:href="#m683f3c7843" y="224.116554"/>
      </g>
     </g>
    </g>
    <g id="ytick_3">
     <g id="line2d_15">
      <path clip-path="url(#p1b39c732db)" d="M 10.7 171.421109 
L 367.82 171.421109 
" style="fill:none;stroke:#b0b0b0;stroke-linecap:square;stroke-width:0.8;"/>
     </g>
     <g id="line2d_16">
      <g>
       <use style="stroke:#000000;stroke-width:0.8;" x="10.7" xlink:href="#m683f3c7843" y="171.421109"/>
      </g>
     </g>
    </g>
    <g id="ytick_4">
     <g id="line2d_17">
      <path clip-path="url(#p1b39c732db)" d="M 10.7 118.725663 
L 367.82 118.725663 
" style="fill:none;stroke:#b0b0b0;stroke-linecap:square;stroke-width:0.8;"/>
     </g>
     <g id="line2d_18">
      <g>
       <use style="stroke:#000000;stroke-width:0.8;" x="10.7" xlink:href="#m683f3c7843" y="118.725663"/>
      </g>
     </g>
    </g>
    <g id="ytick_5">
     <g id="line2d_19">
      <path clip-path="url(#p1b39c732db)" d="M 10.7 66.030218 
L 367.82 66.030218 
" style="fill:none;stroke:#b0b0b0;stroke-linecap:square;stroke-width:0.8;"/>
     </g>
     <g id="line2d_20">
      <g>
       <use style="stroke:#000000;stroke-width:0.8;" x="10.7" xlink:href="#m683f3c7843" y="66.030218"/>
      </g>
     </g>
    </g>
    <g id="ytick_6">
     <g id="line2d_21">
      <path clip-path="url(#p1b39c732db)" d="M 10.7 13.334772 
L 367.82 13.334772 
" style="fill:none;stroke:#b0b0b0;stroke-linecap:square;stroke-width:0.8;"/>
     </g>
     <g id="line2d_22">
      <g>
       <use style="stroke:#000000;stroke-width:0.8;" x="10.7" xlink:href="#m683f3c7843" y="13.334772"/>
      </g>
     </g>
    </g>
   </g>
   <g id="line2d_23">
    <path clip-path="url(#p1b39c732db)" d="M 163.778445 276.812 
L 163.778445 276.080119 
L 163.778445 276.080119 
L 163.778445 276.080119 
L 163.778445 275.348238 
L 163.778445 275.348238 
L 163.778445 275.348238 
L 163.778445 274.616356 
L 163.778445 274.616356 
L 163.778445 274.616356 
L 163.778445 273.884475 
L 163.778445 273.884475 
L 163.778445 273.884475 
L 163.778445 273.152594 
L 163.778445 273.152594 
L 163.778445 273.152594 
L 163.778445 272.420713 
L 163.778445 272.420713 
L 163.778445 272.420713 
L 163.778445 271.688832 
L 163.778445 271.688832 
L 163.778445 271.688832 
L 163.778445 270.95695 
L 163.778445 270.95695 
L 163.778445 270.95695 
L 163.778445 270.225069 
L 163.778445 270.225069 
L 163.778445 270.225069 
L 163.778445 269.493188 
L 163.778445 269.493188 
L 163.778445 269.493188 
L 163.778445 268.761307 
L 163.778445 268.761307 
L 163.778445 268.761307 
L 163.778445 268.029426 
L 163.778445 268.029426 
L 163.778445 268.029426 
L 163.778445 267.297545 
L 163.778445 267.297545 
L 163.778445 267.297545 
L 163.778445 266.565663 
L 163.778445 266.565663 
L 163.778445 266.565663 
L 163.778445 265.833782 
L 190.624321 265.833782 
L 190.624321 265.101901 
L 191.276355 265.101901 
L 191.276355 264.37002 
L 191.478591 264.37002 
L 191.478591 263.638139 
L 191.659346 263.638139 
L 191.659346 262.906257 
L 191.964041 262.906257 
L 191.964041 262.174376 
L 192.402356 262.174376 
L 192.402356 261.442495 
L 192.879509 261.442495 
L 192.945883 259.978733 
L 193.217164 259.978733 
L 193.217164 259.246851 
L 193.593281 259.246851 
L 193.68673 257.783089 
L 194.329367 257.783089 
L 194.415999 256.319327 
L 194.717959 256.319327 
L 194.717959 255.587446 
L 195.159781 255.587446 
L 195.159781 254.855564 
L 197.741603 254.855564 
L 197.741603 254.123683 
L 198.306376 254.123683 
L 198.306376 253.391802 
L 198.563851 253.391802 
L 198.563851 252.659921 
L 199.013415 252.659921 
L 199.11009 251.196158 
L 199.283914 251.196158 
L 199.283914 250.464277 
L 199.428517 250.464277 
L 199.428517 249.732396 
L 199.695376 249.732396 
L 199.698923 248.268634 
L 200.025484 248.268634 
L 200.025484 247.536752 
L 200.73739 247.536752 
L 200.73739 246.804871 
L 201.500332 246.804871 
L 201.500332 246.07299 
L 202.776056 246.07299 
L 202.776056 245.341109 
L 203.113922 245.341109 
L 203.113922 244.609228 
L 204.034489 244.609228 
L 204.034489 243.877347 
L 204.880318 243.877347 
L 204.880318 243.145465 
L 206.53041 243.145465 
L 206.53041 242.413584 
L 206.961738 242.413584 
L 206.961738 241.681703 
L 207.798347 241.681703 
L 207.798548 240.217941 
L 208.320863 240.217941 
L 208.429487 238.754178 
L 208.646495 238.754178 
L 208.702225 237.290416 
L 208.913305 237.290416 
L 208.974409 235.826653 
L 209.114136 235.826653 
L 209.114136 235.094772 
L 209.237358 235.094772 
L 209.286857 233.63101 
L 209.54969 233.63101 
L 209.647166 232.167248 
L 209.85487 232.167248 
L 209.881464 230.703485 
L 210.05753 230.703485 
L 210.163325 228.507842 
L 210.240348 228.507842 
L 210.251036 227.044079 
L 210.432417 227.044079 
L 210.432417 226.312198 
L 210.960833 226.312198 
L 210.991993 224.116554 
L 211.1534 224.116554 
L 211.1534 223.384673 
L 211.453483 223.384673 
L 211.48477 221.18903 
L 212.281415 221.18903 
L 212.354138 218.261505 
L 212.417109 218.261505 
L 212.417109 217.529624 
L 213.433191 217.529624 
L 213.433191 216.797743 
L 213.546663 216.797743 
L 213.622659 215.33398 
L 213.760196 215.33398 
L 213.760196 214.602099 
L 214.074742 214.602099 
L 214.074742 213.870218 
L 214.561439 213.870218 
L 214.645134 211.674574 
L 214.675857 211.674574 
L 214.783799 209.478931 
L 214.966969 209.478931 
L 215.06274 206.551406 
L 215.134634 206.551406 
L 215.232849 203.623881 
L 215.246039 203.623881 
L 215.347303 200.696356 
L 215.369958 200.696356 
L 215.477287 199.232594 
L 215.535937 199.232594 
L 215.639823 195.573188 
L 215.649727 195.573188 
L 215.705744 193.377545 
L 215.801184 193.377545 
L 215.904716 191.181901 
L 215.944966 191.181901 
L 216.033458 187.522495 
L 216.129336 187.522495 
L 216.129336 186.790614 
L 216.663666 186.790614 
L 216.663666 186.058733 
L 217.379481 186.058733 
L 217.379481 185.326851 
L 217.72925 185.326851 
L 217.72925 184.59497 
L 217.881565 184.59497 
L 217.881565 183.863089 
L 218.149907 183.863089 
L 218.149907 183.131208 
L 218.420753 183.131208 
L 218.462246 181.667446 
L 219.498511 181.667446 
L 219.531394 169.225465 
L 219.755035 169.225465 
L 219.755035 168.493584 
L 219.966869 168.493584 
L 219.966869 167.761703 
L 221.07689 167.761703 
L 221.07689 167.029822 
L 223.429405 167.029822 
L 223.429405 166.297941 
L 225.325997 166.297941 
L 225.325997 165.566059 
L 225.577649 165.566059 
L 225.660209 163.370416 
L 225.869822 163.370416 
L 225.870888 161.906653 
L 226.056206 161.906653 
L 226.105061 159.71101 
L 226.278384 159.71101 
L 226.374888 157.515366 
L 226.489716 157.515366 
L 226.600452 156.051604 
L 226.948696 156.051604 
L 226.948696 155.319723 
L 227.303304 155.319723 
L 227.303304 154.587842 
L 227.488367 154.587842 
L 227.488367 153.85596 
L 227.716757 153.85596 
L 227.781614 151.660317 
L 227.895821 151.660317 
L 227.895821 150.928436 
L 228.289112 150.928436 
L 228.323171 149.464673 
L 228.650844 149.464673 
L 228.695975 147.26903 
L 228.838446 147.26903 
L 228.838446 146.537149 
L 229.203059 146.537149 
L 229.203059 145.805267 
L 229.50106 145.805267 
L 229.50106 145.073386 
L 229.665035 145.073386 
L 229.665035 144.341505 
L 229.869825 144.341505 
L 229.869825 143.609624 
L 230.624514 143.609624 
L 230.624514 142.877743 
L 230.816151 142.877743 
L 230.816151 142.145861 
L 231.157632 142.145861 
L 231.157632 141.41398 
L 231.878973 141.41398 
L 231.934012 139.950218 
L 232.33878 139.950218 
L 232.33878 139.218337 
L 232.593844 139.218337 
L 232.632452 137.754574 
L 232.705266 137.754574 
L 232.705266 137.022693 
L 232.884416 137.022693 
L 232.884416 136.290812 
L 233.421985 136.290812 
L 233.459423 134.095168 
L 233.586218 134.095168 
L 233.586218 133.363287 
L 233.734607 133.363287 
L 233.784306 131.899525 
L 234.009004 131.899525 
L 234.042999 130.435762 
L 234.144161 130.435762 
L 234.145879 128.972 
L 234.319229 128.972 
L 234.429253 125.312594 
L 234.460854 125.312594 
L 234.484413 123.848832 
L 234.587528 123.848832 
L 234.617147 121.653188 
L 234.699188 121.653188 
L 234.805054 120.189426 
L 234.854409 120.189426 
L 234.854409 119.457545 
L 235.00118 119.457545 
L 235.051057 117.261901 
L 235.225568 117.261901 
L 235.300593 115.798139 
L 235.336974 115.798139 
L 235.407729 113.602495 
L 235.512729 113.602495 
L 235.512729 112.870614 
L 235.703472 112.870614 
L 235.811606 110.67497 
L 235.923293 110.67497 
L 235.923293 109.943089 
L 236.099359 109.943089 
L 236.112005 108.479327 
L 236.214132 108.479327 
L 236.257619 107.015564 
L 236.367613 107.015564 
L 236.367613 106.283683 
L 236.550191 106.283683 
L 236.653961 104.08804 
L 236.751154 104.08804 
L 236.751154 103.356158 
L 237.106262 103.356158 
L 237.107323 101.892396 
L 237.699434 101.892396 
L 237.699434 101.160515 
L 238.369916 101.160515 
L 238.369916 100.428634 
L 238.899684 100.428634 
L 238.899684 99.696752 
L 239.054669 99.696752 
L 239.054669 98.964871 
L 239.436099 98.964871 
L 239.436099 98.23299 
L 239.91044 98.23299 
L 239.91044 97.501109 
L 241.420032 97.501109 
L 241.420032 96.769228 
L 242.858056 96.769228 
L 242.858056 96.037347 
L 243.073029 96.037347 
L 243.073029 95.305465 
L 243.48866 95.305465 
L 243.489725 93.841703 
L 244.195959 93.841703 
L 244.230373 91.646059 
L 244.398572 91.646059 
L 244.398572 90.914178 
L 244.518718 90.914178 
L 244.555648 89.450416 
L 244.91358 89.450416 
L 244.91358 88.718535 
L 245.476321 88.718535 
L 245.476321 87.986653 
L 245.730503 87.986653 
L 245.730503 87.254772 
L 246.337718 87.254772 
L 246.337718 86.522891 
L 251.186078 86.522891 
L 251.186078 85.79101 
L 261.699282 85.79101 
L 261.699282 85.059129 
L 262.699132 85.059129 
L 262.699132 84.327248 
L 263.328602 84.327248 
L 263.328602 83.595366 
L 264.065498 83.595366 
L 264.065498 82.863485 
L 264.481282 82.863485 
L 264.481282 72.617149 
L 266.266194 72.617149 
L 266.266194 71.885267 
L 267.262575 71.885267 
L 267.262575 71.153386 
L 267.648865 71.153386 
L 267.648865 70.421505 
L 268.220578 70.421505 
L 268.220578 69.689624 
L 269.185778 69.689624 
L 269.192868 68.225861 
L 269.515774 68.225861 
L 269.515774 67.49398 
L 270.611541 67.49398 
L 270.611541 66.762099 
L 271.11148 66.762099 
L 271.11148 66.030218 
L 271.318741 66.030218 
L 271.318741 65.298337 
L 272.812146 65.298337 
L 272.862183 63.834574 
L 273.049998 63.834574 
L 273.049998 63.102693 
L 273.857242 63.102693 
L 273.909273 61.638931 
L 273.99098 61.638931 
L 273.99098 60.90705 
L 276.416944 60.90705 
L 276.416944 60.175168 
L 276.537973 60.175168 
L 276.537973 59.443287 
L 277.545521 59.443287 
L 277.545521 58.711406 
L 278.104357 58.711406 
L 278.104357 57.979525 
L 280.01307 57.979525 
L 280.01307 57.247644 
L 280.614646 57.247644 
L 280.614646 56.515762 
L 282.172196 56.515762 
L 282.172196 55.783881 
L 284.993648 55.783881 
L 284.993648 55.052 
L 286.638714 55.052 
L 286.638714 54.320119 
L 287.702293 54.320119 
L 287.702293 53.588238 
L 289.933239 53.588238 
L 289.933239 52.856356 
L 291.689582 52.856356 
L 291.689582 52.124475 
L 291.920687 52.124475 
L 291.920687 51.392594 
L 294.703141 51.392594 
L 294.703141 50.660713 
L 294.909907 50.660713 
L 294.909907 49.928832 
L 295.157316 49.928832 
L 295.157316 49.19695 
L 295.523715 49.19695 
L 295.539736 47.733188 
L 296.037568 47.733188 
L 296.037568 47.001307 
L 296.42056 47.001307 
L 296.42056 46.269426 
L 303.268296 46.269426 
L 303.268296 45.537545 
L 303.793025 45.537545 
L 303.793025 44.805663 
L 304.438295 44.805663 
L 304.438295 44.073782 
L 305.900725 44.073782 
L 305.900725 43.341901 
L 306.603176 43.341901 
L 306.603176 42.61002 
L 306.849084 42.61002 
L 306.849084 41.878139 
L 307.578579 41.878139 
L 307.578579 41.146257 
L 308.277741 41.146257 
L 308.277741 40.414376 
L 309.56208 40.414376 
L 309.66204 38.950614 
L 310.8939 38.950614 
L 310.946324 37.486851 
L 311.160025 37.486851 
L 311.160025 36.75497 
L 311.694615 36.75497 
L 311.694615 36.023089 
L 312.268413 36.023089 
L 312.268413 35.291208 
L 312.409449 35.291208 
L 312.409449 34.559327 
L 312.641266 34.559327 
L 312.641266 33.827446 
L 312.815964 33.827446 
L 312.895119 32.363683 
L 313.035065 32.363683 
L 313.035065 31.631802 
L 313.162485 31.631802 
L 313.162485 30.899921 
L 313.55452 30.899921 
L 313.55452 30.16804 
L 313.923762 30.16804 
L 313.987382 28.704277 
L 314.69979 28.704277 
L 314.69979 27.972396 
L 315.117994 27.972396 
L 315.20517 26.508634 
L 316.338075 26.508634 
L 316.338075 25.776752 
L 318.251318 25.776752 
L 318.251318 25.044871 
L 318.75805 25.044871 
L 318.75805 24.31299 
L 341.002144 24.31299 
L 341.002144 23.581109 
L 343.379425 23.581109 
L 343.379425 22.849228 
L 343.68833 22.849228 
L 343.68833 22.117347 
L 343.819474 22.117347 
L 343.819474 21.385465 
L 344.621114 21.385465 
L 344.621114 20.653584 
L 344.912337 20.653584 
L 344.912337 19.921703 
L 345.342852 19.921703 
L 345.342852 19.189822 
L 346.235667 19.189822 
L 346.235667 18.457941 
L 346.728296 18.457941 
L 346.728296 17.726059 
L 347.288897 17.726059 
L 347.288897 16.994178 
L 349.483492 16.994178 
L 349.483492 16.262297 
L 350.383919 16.262297 
L 350.383919 15.530416 
L 351.159041 15.530416 
L 351.159041 14.798535 
L 351.292667 14.798535 
L 351.292667 14.066653 
L 357.522215 14.066653 
L 357.522215 13.334772 
L 357.522215 13.334772 
L 367.82 13.334772 
L 367.82 13.334772 
" style="fill:none;stroke:#ff0000;stroke-linecap:square;stroke-width:3;"/>
   </g>
   <g id="line2d_24">
    <path clip-path="url(#p1b39c732db)" d="M 163.778445 276.812 
L 163.778445 276.080119 
L 163.778445 276.080119 
L 163.778445 276.080119 
L 163.778445 275.348238 
L 163.778445 275.348238 
L 163.778445 275.348238 
L 163.778445 274.616356 
L 163.778445 274.616356 
L 163.778445 274.616356 
L 163.778445 273.884475 
L 163.778445 273.884475 
L 163.778445 273.884475 
L 163.778445 273.152594 
L 163.778445 273.152594 
L 163.778445 273.152594 
L 163.778445 272.420713 
L 163.778445 272.420713 
L 163.778445 272.420713 
L 163.778445 271.688832 
L 163.778445 271.688832 
L 163.778445 271.688832 
L 163.778445 270.95695 
L 163.778445 270.95695 
L 163.778445 270.95695 
L 163.778445 270.225069 
L 163.778445 270.225069 
L 163.778445 270.225069 
L 163.778445 269.493188 
L 163.778445 269.493188 
L 163.778445 269.493188 
L 163.778445 268.761307 
L 163.778445 268.761307 
L 163.778445 268.761307 
L 163.778445 268.029426 
L 163.778445 268.029426 
L 163.778445 268.029426 
L 163.778445 267.297545 
L 163.778445 267.297545 
L 163.778445 267.297545 
L 163.778445 266.565663 
L 163.778445 266.565663 
L 163.778445 266.565663 
L 163.778445 265.833782 
L 191.659346 265.833782 
L 191.659346 265.101901 
L 192.879509 265.101901 
L 192.879509 264.37002 
L 193.634219 264.37002 
L 193.634219 263.638139 
L 193.980547 263.638139 
L 193.980547 262.906257 
L 194.415999 262.906257 
L 194.415999 262.174376 
L 194.659891 262.174376 
L 194.717959 260.710614 
L 195.926857 260.710614 
L 195.926857 259.978733 
L 196.352818 259.978733 
L 196.352818 259.246851 
L 196.580842 259.246851 
L 196.679988 257.783089 
L 196.726215 257.783089 
L 196.726215 257.051208 
L 197.32228 257.051208 
L 197.32228 256.319327 
L 198.144059 256.319327 
L 198.144059 255.587446 
L 198.306376 255.587446 
L 198.40439 254.123683 
L 198.563851 254.123683 
L 198.563851 253.391802 
L 199.013415 253.391802 
L 199.11009 251.92804 
L 199.283914 251.92804 
L 199.283914 251.196158 
L 199.428517 251.196158 
L 199.428517 250.464277 
L 199.698923 250.464277 
L 199.698923 249.732396 
L 200.230714 249.732396 
L 200.230714 249.000515 
L 200.841317 249.000515 
L 200.841317 248.268634 
L 201.075802 248.268634 
L 201.075802 247.536752 
L 202.863037 247.536752 
L 202.863037 246.804871 
L 203.113922 246.804871 
L 203.113922 246.07299 
L 204.226461 246.07299 
L 204.226461 245.341109 
L 204.880318 245.341109 
L 204.880318 244.609228 
L 206.53041 244.609228 
L 206.53041 243.877347 
L 206.961738 243.877347 
L 206.961738 243.145465 
L 207.798347 243.145465 
L 207.863708 241.681703 
L 208.320863 241.681703 
L 208.320863 240.949822 
L 208.646495 240.949822 
L 208.711855 239.486059 
L 209.044429 239.486059 
L 209.114136 238.022297 
L 209.380704 238.022297 
L 209.380704 237.290416 
L 209.54969 237.290416 
L 209.54969 236.558535 
L 209.881464 236.558535 
L 209.881464 235.826653 
L 210.087178 235.826653 
L 210.087178 235.094772 
L 210.251036 235.094772 
L 210.251036 234.362891 
L 210.423982 234.362891 
L 210.441515 232.899129 
L 210.72818 232.899129 
L 210.72818 232.167248 
L 211.3288 232.167248 
L 211.356979 230.703485 
L 211.453483 230.703485 
L 211.545194 227.77596 
L 211.724402 227.77596 
L 211.744921 226.312198 
L 212.100833 226.312198 
L 212.100833 225.580317 
L 212.29349 225.580317 
L 212.359865 222.652792 
L 212.417109 222.652792 
L 212.417109 221.920911 
L 212.660364 221.920911 
L 212.662481 220.457149 
L 213.169271 220.457149 
L 213.169271 219.725267 
L 213.583048 219.725267 
L 213.662996 218.261505 
L 213.870662 218.261505 
L 213.870662 217.529624 
L 214.013957 217.529624 
L 214.013957 216.797743 
L 214.141808 216.797743 
L 214.141808 216.065861 
L 214.561439 216.065861 
L 214.63219 213.138337 
L 214.675857 213.138337 
L 214.783799 210.942693 
L 214.966969 210.942693 
L 215.06274 208.74705 
L 215.145957 208.74705 
L 215.246039 205.819525 
L 215.301245 205.819525 
L 215.369958 203.623881 
L 215.415887 203.623881 
L 215.477287 202.160119 
L 215.535937 202.160119 
L 215.646282 198.500713 
L 215.667741 198.500713 
L 215.705744 197.03695 
L 215.801184 197.03695 
L 215.904716 195.573188 
L 215.924161 195.573188 
L 216.033458 188.986257 
L 216.106679 188.986257 
L 216.157961 187.522495 
L 216.663666 187.522495 
L 216.663666 186.790614 
L 217.72925 186.790614 
L 217.72925 186.058733 
L 217.881565 186.058733 
L 217.881565 185.326851 
L 218.149907 185.326851 
L 218.149907 184.59497 
L 218.420753 184.59497 
L 218.462246 183.131208 
L 218.621142 183.131208 
L 218.621142 182.399327 
L 219.498511 182.399327 
L 219.531394 169.957347 
L 219.755035 169.957347 
L 219.755035 169.225465 
L 219.966869 169.225465 
L 219.966869 168.493584 
L 220.731906 168.493584 
L 220.731906 167.761703 
L 221.07689 167.761703 
L 221.07689 167.029822 
L 225.869822 167.029822 
L 225.869822 166.297941 
L 226.09873 166.297941 
L 226.09873 165.566059 
L 226.249517 165.566059 
L 226.35542 164.102297 
L 226.471412 164.102297 
L 226.471412 163.370416 
L 226.600452 163.370416 
L 226.600452 162.638535 
L 226.723281 162.638535 
L 226.723281 161.906653 
L 226.948696 161.906653 
L 227.055644 160.442891 
L 227.266676 160.442891 
L 227.279567 158.979129 
L 227.453075 158.979129 
L 227.453075 158.247248 
L 227.716757 158.247248 
L 227.781614 155.319723 
L 227.884097 155.319723 
L 227.915102 153.124079 
L 228.289112 153.124079 
L 228.323171 151.660317 
L 228.512166 151.660317 
L 228.512166 150.928436 
L 228.650844 150.928436 
L 228.695975 148.732792 
L 228.838446 148.732792 
L 228.838446 148.000911 
L 229.203059 148.000911 
L 229.203059 147.26903 
L 229.374585 147.26903 
L 229.374585 146.537149 
L 229.50106 146.537149 
L 229.50106 145.805267 
L 229.665035 145.805267 
L 229.665035 145.073386 
L 231.157632 145.073386 
L 231.157632 144.341505 
L 231.878973 144.341505 
L 231.934012 142.877743 
L 232.705266 142.877743 
L 232.705266 142.145861 
L 232.884416 142.145861 
L 232.884416 141.41398 
L 233.421985 141.41398 
L 233.459423 139.218337 
L 233.586218 139.218337 
L 233.586218 138.486455 
L 233.734607 138.486455 
L 233.784306 137.022693 
L 234.009004 137.022693 
L 234.042999 135.558931 
L 234.144161 135.558931 
L 234.145879 134.095168 
L 234.319229 134.095168 
L 234.372469 131.899525 
L 234.460854 131.899525 
L 234.484413 130.435762 
L 234.587528 130.435762 
L 234.617147 128.240119 
L 234.699188 128.240119 
L 234.805054 126.776356 
L 235.00118 126.776356 
L 235.051057 124.580713 
L 235.300593 124.580713 
L 235.407729 122.385069 
L 235.512729 122.385069 
L 235.512729 121.653188 
L 235.654171 121.653188 
L 235.662594 120.189426 
L 235.811606 120.189426 
L 235.891463 118.725663 
L 235.923293 118.725663 
L 235.923293 117.993782 
L 236.099359 117.993782 
L 236.112005 116.53002 
L 236.214132 116.53002 
L 236.268818 114.334376 
L 236.367613 114.334376 
L 236.367613 113.602495 
L 236.550191 113.602495 
L 236.646529 111.406851 
L 236.668622 111.406851 
L 236.751154 109.943089 
L 237.511932 109.943089 
L 237.545799 108.479327 
L 237.720755 108.479327 
L 237.722417 107.015564 
L 238.001042 107.015564 
L 238.001042 106.283683 
L 238.134446 106.283683 
L 238.134446 105.551802 
L 238.369916 105.551802 
L 238.369916 104.819921 
L 239.068902 104.819921 
L 239.068902 104.08804 
L 239.549506 104.08804 
L 239.549506 103.356158 
L 239.842033 103.356158 
L 239.91044 101.892396 
L 243.051922 101.892396 
L 243.073029 100.428634 
L 243.401156 100.428634 
L 243.489725 98.23299 
L 243.832428 98.23299 
L 243.832428 97.501109 
L 244.195959 97.501109 
L 244.230373 95.305465 
L 244.398572 95.305465 
L 244.398572 94.573584 
L 244.518718 94.573584 
L 244.518718 93.841703 
L 244.651496 93.841703 
L 244.651496 93.109822 
L 244.868837 93.109822 
L 244.91358 91.646059 
L 245.476321 91.646059 
L 245.476321 90.914178 
L 246.391325 90.914178 
L 246.397798 89.450416 
L 262.699132 89.450416 
L 262.699132 88.718535 
L 264.481282 88.718535 
L 264.481282 77.740317 
L 267.262575 77.740317 
L 267.262575 77.008436 
L 267.648865 77.008436 
L 267.648865 76.276554 
L 268.220578 76.276554 
L 268.220578 75.544673 
L 269.192868 75.544673 
L 269.192868 74.812792 
L 269.412529 74.812792 
L 269.515774 73.34903 
L 271.11148 73.34903 
L 271.11148 72.617149 
L 271.318741 72.617149 
L 271.318741 71.885267 
L 272.812146 71.885267 
L 272.862183 70.421505 
L 273.049998 70.421505 
L 273.049998 69.689624 
L 273.399736 69.689624 
L 273.399736 68.957743 
L 273.857242 68.957743 
L 273.857242 68.225861 
L 273.99098 68.225861 
L 273.99098 67.49398 
L 276.416944 67.49398 
L 276.416944 66.762099 
L 276.537973 66.762099 
L 276.537973 66.030218 
L 277.545521 66.030218 
L 277.545521 65.298337 
L 278.104357 65.298337 
L 278.104357 64.566455 
L 278.400167 64.566455 
L 278.400167 63.834574 
L 280.3637 63.834574 
L 280.3637 63.102693 
L 282.172196 63.102693 
L 282.172196 62.370812 
L 283.170102 62.370812 
L 283.170102 61.638931 
L 286.883909 61.638931 
L 286.883909 60.90705 
L 287.774517 60.90705 
L 287.774517 60.175168 
L 289.034953 60.175168 
L 289.034953 59.443287 
L 290.164162 59.443287 
L 290.164162 58.711406 
L 290.439157 58.711406 
L 290.439157 57.979525 
L 291.689582 57.979525 
L 291.689582 57.247644 
L 291.913655 57.247644 
L 291.913655 56.515762 
L 293.203362 56.515762 
L 293.203362 55.783881 
L 294.703141 55.783881 
L 294.703141 55.052 
L 295.206742 55.052 
L 295.206742 54.320119 
L 295.523715 54.320119 
L 295.531729 52.856356 
L 296.037568 52.856356 
L 296.037568 52.124475 
L 296.150032 52.124475 
L 296.150032 51.392594 
L 296.690325 51.392594 
L 296.690325 50.660713 
L 297.08908 50.660713 
L 297.192232 49.19695 
L 298.563609 49.19695 
L 298.563609 48.465069 
L 298.678593 48.465069 
L 298.678593 47.733188 
L 299.579389 47.733188 
L 299.579389 47.001307 
L 303.268296 47.001307 
L 303.268296 46.269426 
L 305.321295 46.269426 
L 305.321295 45.537545 
L 305.900725 45.537545 
L 305.900725 44.805663 
L 306.603176 44.805663 
L 306.603176 44.073782 
L 306.849084 44.073782 
L 306.849084 43.341901 
L 309.66204 43.341901 
L 309.66204 42.61002 
L 310.8939 42.61002 
L 310.8939 41.878139 
L 311.210401 41.878139 
L 311.210401 41.146257 
L 312.641266 41.146257 
L 312.641266 40.414376 
L 312.815964 40.414376 
L 312.815964 39.682495 
L 313.473607 39.682495 
L 313.55452 38.218733 
L 313.987382 38.218733 
L 313.987382 37.486851 
L 314.240293 37.486851 
L 314.240293 36.75497 
L 314.841042 36.75497 
L 314.841042 36.023089 
L 315.060472 36.023089 
L 315.060472 35.291208 
L 316.085315 35.291208 
L 316.085315 34.559327 
L 316.346714 34.559327 
L 316.346714 33.827446 
L 316.700292 33.827446 
L 316.700292 33.095564 
L 317.203759 33.095564 
L 317.203759 32.363683 
L 318.771957 32.363683 
L 318.790701 30.899921 
L 319.0313 30.899921 
L 319.0313 30.16804 
L 320.157058 30.16804 
L 320.165707 28.704277 
L 320.518167 28.704277 
L 320.61267 27.240515 
L 321.224528 27.240515 
L 321.224528 26.508634 
L 321.759268 26.508634 
L 321.759268 25.776752 
L 323.098423 25.776752 
L 323.098423 25.044871 
L 325.242047 25.044871 
L 325.242047 24.31299 
L 341.002144 24.31299 
L 341.002144 23.581109 
L 343.379425 23.581109 
L 343.379425 22.849228 
L 343.68833 22.849228 
L 343.68833 22.117347 
L 343.819474 22.117347 
L 343.819474 21.385465 
L 344.912337 21.385465 
L 344.912337 20.653584 
L 345.561391 20.653584 
L 345.561391 19.921703 
L 346.235667 19.921703 
L 346.235667 19.189822 
L 351.094608 19.189822 
L 351.159041 17.726059 
L 351.292667 17.726059 
L 351.292667 16.994178 
L 352.524996 16.994178 
L 352.566054 15.530416 
L 354.437519 15.530416 
L 354.437519 14.798535 
L 355.221252 14.798535 
L 355.221252 14.066653 
L 358.103735 14.066653 
L 358.103735 13.334772 
L 358.103735 13.334772 
L 367.82 13.334772 
L 367.82 13.334772 
" style="fill:none;stroke:#00bfbf;stroke-linecap:square;stroke-width:1.5;"/>
   </g>
   <g id="line2d_25">
    <path clip-path="url(#p1b39c732db)" d="M 163.778445 276.812 
L 163.778445 276.080119 
L 163.778445 276.080119 
L 163.778445 276.080119 
L 163.778445 275.348238 
L 163.778445 275.348238 
L 163.778445 275.348238 
L 163.778445 274.616356 
L 163.778445 274.616356 
L 163.778445 274.616356 
L 163.778445 273.884475 
L 163.778445 273.884475 
L 163.778445 273.884475 
L 163.778445 273.152594 
L 163.778445 273.152594 
L 163.778445 273.152594 
L 163.778445 272.420713 
L 163.778445 272.420713 
L 163.778445 272.420713 
L 163.778445 271.688832 
L 163.778445 271.688832 
L 163.778445 271.688832 
L 163.778445 270.95695 
L 163.778445 270.95695 
L 163.778445 270.95695 
L 163.778445 270.225069 
L 163.778445 270.225069 
L 163.778445 270.225069 
L 163.778445 269.493188 
L 163.778445 269.493188 
L 163.778445 269.493188 
L 163.778445 268.761307 
L 163.778445 268.761307 
L 163.778445 268.761307 
L 163.778445 268.029426 
L 163.778445 268.029426 
L 163.778445 268.029426 
L 163.778445 267.297545 
L 163.778445 267.297545 
L 163.778445 267.297545 
L 163.778445 266.565663 
L 163.778445 266.565663 
L 163.778445 266.565663 
L 163.778445 265.833782 
L 191.478591 265.833782 
L 191.478591 265.101901 
L 191.659346 265.101901 
L 191.659346 264.37002 
L 191.964041 264.37002 
L 191.964041 263.638139 
L 192.879509 263.638139 
L 192.879509 262.906257 
L 193.593281 262.906257 
L 193.593281 262.174376 
L 193.803659 262.174376 
L 193.803659 261.442495 
L 194.329367 261.442495 
L 194.415999 259.978733 
L 194.717959 259.978733 
L 194.717959 259.246851 
L 194.893065 259.246851 
L 194.893065 258.51497 
L 195.159781 258.51497 
L 195.26362 257.051208 
L 195.619014 257.051208 
L 195.619014 256.319327 
L 195.926857 256.319327 
L 195.926857 255.587446 
L 196.198882 255.587446 
L 196.198882 254.855564 
L 197.741603 254.855564 
L 197.741603 254.123683 
L 198.306376 254.123683 
L 198.306376 253.391802 
L 198.563851 253.391802 
L 198.563851 252.659921 
L 199.013415 252.659921 
L 199.11009 251.196158 
L 199.283914 251.196158 
L 199.283914 250.464277 
L 199.428517 250.464277 
L 199.428517 249.732396 
L 199.698923 249.732396 
L 199.698923 249.000515 
L 200.025484 249.000515 
L 200.025484 248.268634 
L 200.841317 248.268634 
L 200.841317 247.536752 
L 201.075802 247.536752 
L 201.075802 246.804871 
L 202.863037 246.804871 
L 202.863037 246.07299 
L 203.113922 246.07299 
L 203.113922 245.341109 
L 204.034489 245.341109 
L 204.034489 244.609228 
L 204.880318 244.609228 
L 204.880318 243.877347 
L 206.53041 243.877347 
L 206.53041 243.145465 
L 206.961738 243.145465 
L 206.961738 242.413584 
L 207.798347 242.413584 
L 207.863708 240.217941 
L 208.320863 240.217941 
L 208.429487 238.754178 
L 208.646495 238.754178 
L 208.646495 238.022297 
L 208.913305 238.022297 
L 208.913305 237.290416 
L 209.114136 237.290416 
L 209.114136 236.558535 
L 209.286857 236.558535 
L 209.286857 235.826653 
L 209.54969 235.826653 
L 209.54969 235.094772 
L 209.85487 235.094772 
L 209.881464 233.63101 
L 210.05753 233.63101 
L 210.087178 232.167248 
L 210.240348 232.167248 
L 210.251036 230.703485 
L 210.423982 230.703485 
L 210.423982 229.971604 
L 210.815581 229.971604 
L 210.815581 229.239723 
L 211.063255 229.239723 
L 211.1534 227.77596 
L 211.3288 227.77596 
L 211.356979 226.312198 
L 211.453483 226.312198 
L 211.545194 223.384673 
L 211.724402 223.384673 
L 211.724402 222.652792 
L 211.880221 222.652792 
L 211.880221 221.920911 
L 211.99533 221.920911 
L 211.99533 221.18903 
L 212.29349 221.18903 
L 212.354138 218.993386 
L 212.417109 218.993386 
L 212.417109 218.261505 
L 213.583048 218.261505 
L 213.662996 216.065861 
L 213.891806 216.065861 
L 213.891806 215.33398 
L 214.141808 215.33398 
L 214.141808 214.602099 
L 214.508758 214.602099 
L 214.561439 213.138337 
L 214.63219 213.138337 
L 214.676885 210.210812 
L 214.783799 210.210812 
L 214.783799 209.478931 
L 214.966969 209.478931 
L 215.06274 207.283287 
L 215.145957 207.283287 
L 215.246039 205.087644 
L 215.261142 205.087644 
L 215.369958 202.160119 
L 215.415887 202.160119 
L 215.477287 200.696356 
L 215.535937 200.696356 
L 215.646282 197.03695 
L 215.649727 197.03695 
L 215.705744 194.841307 
L 215.801184 194.841307 
L 215.904716 191.913782 
L 215.944966 191.913782 
L 216.033458 188.986257 
L 216.106679 188.986257 
L 216.157961 187.522495 
L 216.663666 187.522495 
L 216.665937 186.058733 
L 217.72925 186.058733 
L 217.72925 185.326851 
L 217.881565 185.326851 
L 217.881565 184.59497 
L 218.149907 184.59497 
L 218.149907 183.863089 
L 218.420753 183.863089 
L 218.462246 182.399327 
L 218.621142 182.399327 
L 218.621142 181.667446 
L 219.498511 181.667446 
L 219.531394 169.225465 
L 219.755035 169.225465 
L 219.755035 168.493584 
L 219.966869 168.493584 
L 219.966869 167.761703 
L 221.07689 167.761703 
L 221.07689 167.029822 
L 223.429405 167.029822 
L 223.429405 166.297941 
L 225.325997 166.297941 
L 225.325997 165.566059 
L 225.613968 165.566059 
L 225.613968 164.834178 
L 225.869822 164.834178 
L 225.870888 163.370416 
L 226.09873 163.370416 
L 226.105061 161.906653 
L 226.278384 161.906653 
L 226.35542 160.442891 
L 226.567085 160.442891 
L 226.600452 158.979129 
L 226.712233 158.979129 
L 226.712233 158.247248 
L 226.948696 158.247248 
L 227.028116 156.783485 
L 227.07023 156.783485 
L 227.07023 156.051604 
L 227.266676 156.051604 
L 227.303304 154.587842 
L 227.488367 154.587842 
L 227.488367 153.85596 
L 227.716757 153.85596 
L 227.781614 151.660317 
L 227.895821 151.660317 
L 227.895821 150.928436 
L 228.289112 150.928436 
L 228.323171 149.464673 
L 228.650844 149.464673 
L 228.695975 147.26903 
L 228.838446 147.26903 
L 228.838446 146.537149 
L 229.203059 146.537149 
L 229.203059 145.805267 
L 229.50106 145.805267 
L 229.50106 145.073386 
L 229.665035 145.073386 
L 229.665035 144.341505 
L 230.624514 144.341505 
L 230.624514 143.609624 
L 231.157632 143.609624 
L 231.157632 142.877743 
L 231.878973 142.877743 
L 231.934012 141.41398 
L 232.705266 141.41398 
L 232.705266 140.682099 
L 232.884416 140.682099 
L 232.884416 139.950218 
L 233.421985 139.950218 
L 233.459423 137.754574 
L 233.586218 137.754574 
L 233.586218 137.022693 
L 233.734607 137.022693 
L 233.784306 135.558931 
L 234.009004 135.558931 
L 234.042999 134.095168 
L 234.144161 134.095168 
L 234.145879 132.631406 
L 234.319229 132.631406 
L 234.429253 128.972 
L 234.460854 128.972 
L 234.484413 127.508238 
L 234.587528 127.508238 
L 234.617147 125.312594 
L 234.699188 125.312594 
L 234.805054 123.848832 
L 234.854409 123.848832 
L 234.854409 123.11695 
L 235.00118 123.11695 
L 235.051057 120.921307 
L 235.300593 120.921307 
L 235.407729 118.725663 
L 235.512729 118.725663 
L 235.512729 117.993782 
L 235.662594 117.993782 
L 235.703472 116.53002 
L 235.811606 116.53002 
L 235.891463 115.066257 
L 235.923293 115.066257 
L 235.923293 114.334376 
L 236.099359 114.334376 
L 236.112005 112.870614 
L 236.214132 112.870614 
L 236.268818 110.67497 
L 236.367613 110.67497 
L 236.367613 109.943089 
L 236.550191 109.943089 
L 236.646529 107.747446 
L 236.751154 107.747446 
L 236.751154 107.015564 
L 237.401303 107.015564 
L 237.511932 105.551802 
L 237.545799 105.551802 
L 237.545799 104.819921 
L 238.001042 104.819921 
L 238.001042 104.08804 
L 238.134446 104.08804 
L 238.134446 103.356158 
L 238.369916 103.356158 
L 238.369916 102.624277 
L 238.899684 102.624277 
L 238.899684 101.892396 
L 239.054669 101.892396 
L 239.054669 101.160515 
L 239.842033 101.160515 
L 239.91044 99.696752 
L 241.420032 99.696752 
L 241.420032 98.964871 
L 242.858056 98.964871 
L 242.858056 98.23299 
L 243.073029 98.23299 
L 243.073029 97.501109 
L 243.48866 97.501109 
L 243.489725 96.037347 
L 243.832428 96.037347 
L 243.832428 95.305465 
L 244.195959 95.305465 
L 244.230373 93.109822 
L 244.398572 93.109822 
L 244.398572 92.377941 
L 244.518718 92.377941 
L 244.555648 90.914178 
L 244.91358 90.914178 
L 244.91358 90.182297 
L 245.476321 90.182297 
L 245.476321 89.450416 
L 245.730503 89.450416 
L 245.730503 88.718535 
L 246.337718 88.718535 
L 246.337718 87.986653 
L 259.751702 87.986653 
L 259.751702 87.254772 
L 262.699132 87.254772 
L 262.699132 86.522891 
L 264.481282 86.522891 
L 264.481282 75.544673 
L 266.266194 75.544673 
L 266.266194 74.812792 
L 267.262575 74.812792 
L 267.262575 74.080911 
L 267.648865 74.080911 
L 267.648865 73.34903 
L 268.204507 73.34903 
L 268.220578 71.885267 
L 269.192868 71.885267 
L 269.192868 71.153386 
L 269.515774 71.153386 
L 269.515774 70.421505 
L 270.611541 70.421505 
L 270.611541 69.689624 
L 271.11148 69.689624 
L 271.11148 68.957743 
L 271.318741 68.957743 
L 271.318741 68.225861 
L 272.812146 68.225861 
L 272.862183 66.762099 
L 273.049998 66.762099 
L 273.049998 66.030218 
L 273.857242 66.030218 
L 273.857242 65.298337 
L 273.99098 65.298337 
L 273.99098 64.566455 
L 276.416944 64.566455 
L 276.416944 63.834574 
L 276.537973 63.834574 
L 276.537973 63.102693 
L 277.545521 63.102693 
L 277.545521 62.370812 
L 278.104357 62.370812 
L 278.104357 61.638931 
L 278.400167 61.638931 
L 278.400167 60.90705 
L 280.3637 60.90705 
L 280.3637 60.175168 
L 282.172196 60.175168 
L 282.172196 59.443287 
L 283.170102 59.443287 
L 283.170102 58.711406 
L 286.883909 58.711406 
L 286.883909 57.979525 
L 287.129071 57.979525 
L 287.129071 57.247644 
L 287.774517 57.247644 
L 287.774517 56.515762 
L 290.164162 56.515762 
L 290.164162 55.783881 
L 290.439157 55.783881 
L 290.439157 55.052 
L 291.53551 55.052 
L 291.53551 54.320119 
L 291.689582 54.320119 
L 291.689582 53.588238 
L 291.920687 53.588238 
L 291.920687 52.856356 
L 293.203362 52.856356 
L 293.203362 52.124475 
L 294.703141 52.124475 
L 294.703141 51.392594 
L 294.909907 51.392594 
L 294.909907 50.660713 
L 295.523715 50.660713 
L 295.539736 49.19695 
L 296.037568 49.19695 
L 296.037568 48.465069 
L 296.42056 48.465069 
L 296.42056 47.733188 
L 297.08908 47.733188 
L 297.08908 47.001307 
L 303.005814 47.001307 
L 303.005814 46.269426 
L 303.268296 46.269426 
L 303.268296 45.537545 
L 303.793025 45.537545 
L 303.793025 44.805663 
L 304.438295 44.805663 
L 304.438295 44.073782 
L 305.900725 44.073782 
L 305.900725 43.341901 
L 306.603176 43.341901 
L 306.603176 42.61002 
L 306.849084 42.61002 
L 306.849084 41.878139 
L 307.578579 41.878139 
L 307.578579 41.146257 
L 308.277741 41.146257 
L 308.277741 40.414376 
L 309.66204 40.414376 
L 309.66204 39.682495 
L 310.8939 39.682495 
L 310.8939 38.950614 
L 311.694615 38.950614 
L 311.694615 38.218733 
L 312.641266 38.218733 
L 312.641266 37.486851 
L 312.815964 37.486851 
L 312.895119 36.023089 
L 313.035065 36.023089 
L 313.035065 35.291208 
L 313.162485 35.291208 
L 313.162485 34.559327 
L 313.473607 34.559327 
L 313.55452 33.095564 
L 313.987382 33.095564 
L 313.987382 32.363683 
L 314.57374 32.363683 
L 314.57374 31.631802 
L 314.841042 31.631802 
L 314.841042 30.899921 
L 315.117994 30.899921 
L 315.117994 30.16804 
L 315.577721 30.16804 
L 315.577721 29.436158 
L 316.338075 29.436158 
L 316.338075 28.704277 
L 317.002276 28.704277 
L 317.002276 27.972396 
L 317.559294 27.972396 
L 317.559294 27.240515 
L 318.251318 27.240515 
L 318.251318 26.508634 
L 319.283907 26.508634 
L 319.283907 25.776752 
L 319.444117 25.776752 
L 319.444117 25.044871 
L 319.831265 25.044871 
L 319.831265 24.31299 
L 341.002144 24.31299 
L 341.002144 23.581109 
L 343.379425 23.581109 
L 343.379425 22.849228 
L 343.68833 22.849228 
L 343.68833 22.117347 
L 343.819474 22.117347 
L 343.819474 21.385465 
L 344.621114 21.385465 
L 344.621114 20.653584 
L 344.912337 20.653584 
L 344.912337 19.921703 
L 346.235667 19.921703 
L 346.235667 19.189822 
L 350.383919 19.189822 
L 350.383919 18.457941 
L 350.544556 18.457941 
L 350.544556 17.726059 
L 351.159041 17.726059 
L 351.159041 16.994178 
L 351.292667 16.994178 
L 351.292667 16.262297 
L 352.524996 16.262297 
L 352.524996 15.530416 
L 353.093675 15.530416 
L 353.093675 14.798535 
L 354.096189 14.798535 
L 354.096189 14.066653 
L 357.522215 14.066653 
L 357.522215 13.334772 
L 357.522215 13.334772 
L 367.82 13.334772 
L 367.82 13.334772 
" style="fill:none;stroke:#bf00bf;stroke-linecap:square;stroke-width:1.5;"/>
   </g>
   <g id="patch_3">
    <path d="M 10.7 276.812 
L 10.7 10.7 
" style="fill:none;stroke:#000000;stroke-linecap:square;stroke-linejoin:miter;stroke-width:0.8;"/>
   </g>
   <g id="patch_4">
    <path d="M 367.82 276.812 
L 367.82 10.7 
" style="fill:none;stroke:#000000;stroke-linecap:square;stroke-linejoin:miter;stroke-width:0.8;"/>
   </g>
   <g id="patch_5">
    <path d="M 10.7 276.812 
L 367.82 276.812 
" style="fill:none;stroke:#000000;stroke-linecap:square;stroke-linejoin:miter;stroke-width:0.8;"/>
   </g>
   <g id="patch_6">
    <path d="M 10.7 10.7 
L 367.82 10.7 
" style="fill:none;stroke:#000000;stroke-linecap:square;stroke-linejoin:miter;stroke-width:0.8;"/>
   </g>
   <g id="text_6">
    <!-- {f1-f24}, 20-D -->
    <defs>
     <path d="M 51.125 -9.28125 
L 51.125 -16.3125 
L 48.09375 -16.3125 
Q 35.9375 -16.3125 31.8125 -12.6875 
Q 27.6875 -9.078125 27.6875 1.703125 
L 27.6875 13.375 
Q 27.6875 20.75 25.046875 23.578125 
Q 22.40625 26.421875 15.484375 26.421875 
L 12.5 26.421875 
L 12.5 33.40625 
L 15.484375 33.40625 
Q 22.46875 33.40625 25.078125 36.203125 
Q 27.6875 39.015625 27.6875 46.296875 
L 27.6875 58.015625 
Q 27.6875 68.796875 31.8125 72.390625 
Q 35.9375 75.984375 48.09375 75.984375 
L 51.125 75.984375 
L 51.125 69 
L 47.796875 69 
Q 40.921875 69 38.8125 66.84375 
Q 36.71875 64.703125 36.71875 57.8125 
L 36.71875 45.703125 
Q 36.71875 38.03125 34.5 34.5625 
Q 32.28125 31.109375 26.90625 29.890625 
Q 32.328125 28.5625 34.515625 25.09375 
Q 36.71875 21.625 36.71875 14.015625 
L 36.71875 1.90625 
Q 36.71875 -4.984375 38.8125 -7.125 
Q 40.921875 -9.28125 47.796875 -9.28125 
z
" id="DejaVuSans-7b"/>
     <path d="M 19.1875 8.296875 
L 53.609375 8.296875 
L 53.609375 0 
L 7.328125 0 
L 7.328125 8.296875 
Q 12.9375 14.109375 22.625 23.890625 
Q 32.328125 33.6875 34.8125 36.53125 
Q 39.546875 41.84375 41.421875 45.53125 
Q 43.3125 49.21875 43.3125 52.78125 
Q 43.3125 58.59375 39.234375 62.25 
Q 35.15625 65.921875 28.609375 65.921875 
Q 23.96875 65.921875 18.8125 64.3125 
Q 13.671875 62.703125 7.8125 59.421875 
L 7.8125 69.390625 
Q 13.765625 71.78125 18.9375 73 
Q 24.125 74.21875 28.421875 74.21875 
Q 39.75 74.21875 46.484375 68.546875 
Q 53.21875 62.890625 53.21875 53.421875 
Q 53.21875 48.921875 51.53125 44.890625 
Q 49.859375 40.875 45.40625 35.40625 
Q 44.1875 33.984375 37.640625 27.21875 
Q 31.109375 20.453125 19.1875 8.296875 
" id="DejaVuSans-32"/>
     <path d="M 12.5 -9.28125 
L 15.921875 -9.28125 
Q 22.75 -9.28125 24.828125 -7.171875 
Q 26.90625 -5.078125 26.90625 1.90625 
L 26.90625 14.015625 
Q 26.90625 21.625 29.09375 25.09375 
Q 31.296875 28.5625 36.71875 29.890625 
Q 31.296875 31.109375 29.09375 34.5625 
Q 26.90625 38.03125 26.90625 45.703125 
L 26.90625 57.8125 
Q 26.90625 64.75 24.828125 66.875 
Q 22.75 69 15.921875 69 
L 12.5 69 
L 12.5 75.984375 
L 15.578125 75.984375 
Q 27.734375 75.984375 31.8125 72.390625 
Q 35.890625 68.796875 35.890625 58.015625 
L 35.890625 46.296875 
Q 35.890625 39.015625 38.515625 36.203125 
Q 41.15625 33.40625 48.09375 33.40625 
L 51.125 33.40625 
L 51.125 26.421875 
L 48.09375 26.421875 
Q 41.15625 26.421875 38.515625 23.578125 
Q 35.890625 20.75 35.890625 13.375 
L 35.890625 1.703125 
Q 35.890625 -9.078125 31.8125 -12.6875 
Q 27.734375 -16.3125 15.578125 -16.3125 
L 12.5 -16.3125 
z
" id="DejaVuSans-7d"/>
     <path d="M 11.71875 12.40625 
L 22.015625 12.40625 
L 22.015625 4 
L 14.015625 -11.625 
L 7.71875 -11.625 
L 11.71875 4 
z
" id="DejaVuSans-2c"/>
    </defs>
    <g transform="translate(214.9776 271.48976)scale(0.2 -0.2)">
     <use xlink:href="#DejaVuSans-7b"/>
     <use x="63.623047" xlink:href="#DejaVuSans-66"/>
     <use x="98.828125" xlink:href="#DejaVuSans-31"/>
     <use x="162.451172" xlink:href="#DejaVuSans-2d"/>
     <use x="198.535156" xlink:href="#DejaVuSans-66"/>
     <use x="233.740234" xlink:href="#DejaVuSans-32"/>
     <use x="297.363281" xlink:href="#DejaVuSans-34"/>
     <use x="360.986328" xlink:href="#DejaVuSans-7d"/>
     <use x="424.609375" xlink:href="#DejaVuSans-2c"/>
     <use x="456.396484" xlink:href="#DejaVuSans-20"/>
     <use x="488.183594" xlink:href="#DejaVuSans-32"/>
     <use x="551.806641" xlink:href="#DejaVuSans-30"/>
     <use x="615.429688" xlink:href="#DejaVuSans-2d"/>
     <use x="651.513672" xlink:href="#DejaVuSans-44"/>
    </g>
   </g>
   <g id="text_7">
    <!-- v2.1 -->
    <defs>
     <path d="M 2.984375 54.6875 
L 12.5 54.6875 
L 29.59375 8.796875 
L 46.6875 54.6875 
L 56.203125 54.6875 
L 35.6875 0 
L 23.484375 0 
z
" id="DejaVuSans-76"/>
     <path d="M 10.6875 12.40625 
L 21 12.40625 
L 21 0 
L 10.6875 0 
z
" id="DejaVuSans-2e"/>
    </defs>
    <g style="fill:#808080;" transform="translate(178.349063 272.071193)scale(0.1 -0.1)">
     <use xlink:href="#DejaVuSans-76"/>
     <use x="59.179688" xlink:href="#DejaVuSans-32"/>
     <use x="122.802734" xlink:href="#DejaVuSans-2e"/>
     <use x="154.589844" xlink:href="#DejaVuSans-31"/>
    </g>
   </g>
  </g>
 </g>
 <defs>
  <clipPath id="p1b39c732db">
   <rect height="266.112" width="357.12" x="10.7" y="10.7"/>
  </clipPath>
 </defs>
</svg>
