<?xml version="1.0" encoding="utf-8" standalone="no"?>
<!DOCTYPE svg PUBLIC "-//W3C//DTD SVG 1.1//EN"
  "http://www.w3.org/Graphics/SVG/1.1/DTD/svg11.dtd">
<!-- Created with matplotlib (http://matplotlib.org/) -->
<svg height="333pt" version="1.1" viewBox="0 0 378 333" width="378pt" xmlns="http://www.w3.org/2000/svg" xmlns:xlink="http://www.w3.org/1999/xlink">
 <defs>
  <style type="text/css">
*{stroke-linecap:butt;stroke-linejoin:round;}
  </style>
 </defs>
 <g id="figure_1">
  <g id="patch_1">
   <path d="M 0 333.7245 
L 378.52 333.7245 
L 378.52 0 
L 0 0 
z
" style="fill:#ffffff;"/>
  </g>
  <g id="axes_1">
   <g id="patch_2">
    <path d="M 10.7 276.812 
L 367.82 276.812 
L 367.82 10.7 
L 10.7 10.7 
z
" style="fill:#ffffff;"/>
   </g>
   <g id="matplotlib.axis_1">
    <g id="xtick_1">
     <g id="line2d_1">
      <path clip-path="url(#p8820a44378)" d="M 10.609618 276.812 
L 10.609618 10.7 
" style="fill:none;stroke:#b0b0b0;stroke-linecap:square;stroke-width:0.8;"/>
     </g>
     <g id="line2d_2">
      <defs>
       <path d="M 0 0 
L 0 3.5 
" id="m98d412ebd6" style="stroke:#000000;stroke-width:0.8;"/>
      </defs>
      <g>
       <use style="stroke:#000000;stroke-width:0.8;" x="10.609618" xlink:href="#m98d412ebd6" y="276.812"/>
      </g>
     </g>
    </g>
    <g id="xtick_2">
     <g id="line2d_3">
      <path clip-path="url(#p8820a44378)" d="M 94.269693 276.812 
L 94.269693 10.7 
" style="fill:none;stroke:#b0b0b0;stroke-linecap:square;stroke-width:0.8;"/>
     </g>
     <g id="line2d_4">
      <g>
       <use style="stroke:#000000;stroke-width:0.8;" x="94.269693" xlink:href="#m98d412ebd6" y="276.812"/>
      </g>
     </g>
     <g id="text_1">
      <!-- -4 -->
      <defs>
       <path d="M 4.890625 31.390625 
L 31.203125 31.390625 
L 31.203125 23.390625 
L 4.890625 23.390625 
z
" id="DejaVuSans-2d"/>
       <path d="M 37.796875 64.3125 
L 12.890625 25.390625 
L 37.796875 25.390625 
z
M 35.203125 72.90625 
L 47.609375 72.90625 
L 47.609375 25.390625 
L 58.015625 25.390625 
L 58.015625 17.1875 
L 47.609375 17.1875 
L 47.609375 0 
L 37.796875 0 
L 37.796875 17.1875 
L 4.890625 17.1875 
L 4.890625 26.703125 
z
" id="DejaVuSans-34"/>
      </defs>
      <g transform="translate(84.299381 299.008875)scale(0.2 -0.2)">
       <use xlink:href="#DejaVuSans-2d"/>
       <use x="36.083984" xlink:href="#DejaVuSans-34"/>
      </g>
     </g>
    </g>
    <g id="xtick_3">
     <g id="line2d_5">
      <path clip-path="url(#p8820a44378)" d="M 177.929768 276.812 
L 177.929768 10.7 
" style="fill:none;stroke:#b0b0b0;stroke-linecap:square;stroke-width:0.8;"/>
     </g>
     <g id="line2d_6">
      <g>
       <use style="stroke:#000000;stroke-width:0.8;" x="177.929768" xlink:href="#m98d412ebd6" y="276.812"/>
      </g>
     </g>
     <g id="text_2">
      <!-- 0 -->
      <defs>
       <path d="M 31.78125 66.40625 
Q 24.171875 66.40625 20.328125 58.90625 
Q 16.5 51.421875 16.5 36.375 
Q 16.5 21.390625 20.328125 13.890625 
Q 24.171875 6.390625 31.78125 6.390625 
Q 39.453125 6.390625 43.28125 13.890625 
Q 47.125 21.390625 47.125 36.375 
Q 47.125 51.421875 43.28125 58.90625 
Q 39.453125 66.40625 31.78125 66.40625 
M 31.78125 74.21875 
Q 44.046875 74.21875 50.515625 64.515625 
Q 56.984375 54.828125 56.984375 36.375 
Q 56.984375 17.96875 50.515625 8.265625 
Q 44.046875 -1.421875 31.78125 -1.421875 
Q 19.53125 -1.421875 13.0625 8.265625 
Q 6.59375 17.96875 6.59375 36.375 
Q 6.59375 54.828125 13.0625 64.515625 
Q 19.53125 74.21875 31.78125 74.21875 
" id="DejaVuSans-30"/>
      </defs>
      <g transform="translate(171.567268 299.008875)scale(0.2 -0.2)">
       <use xlink:href="#DejaVuSans-30"/>
      </g>
     </g>
    </g>
    <g id="xtick_4">
     <g id="line2d_7">
      <path clip-path="url(#p8820a44378)" d="M 261.589843 276.812 
L 261.589843 10.7 
" style="fill:none;stroke:#b0b0b0;stroke-linecap:square;stroke-width:0.8;"/>
     </g>
     <g id="line2d_8">
      <g>
       <use style="stroke:#000000;stroke-width:0.8;" x="261.589843" xlink:href="#m98d412ebd6" y="276.812"/>
      </g>
     </g>
     <g id="text_3">
      <!-- 4 -->
      <g transform="translate(255.227343 299.008875)scale(0.2 -0.2)">
       <use xlink:href="#DejaVuSans-34"/>
      </g>
     </g>
    </g>
    <g id="xtick_5">
     <g id="line2d_9">
      <path clip-path="url(#p8820a44378)" d="M 345.249918 276.812 
L 345.249918 10.7 
" style="fill:none;stroke:#b0b0b0;stroke-linecap:square;stroke-width:0.8;"/>
     </g>
     <g id="line2d_10">
      <g>
       <use style="stroke:#000000;stroke-width:0.8;" x="345.249918" xlink:href="#m98d412ebd6" y="276.812"/>
      </g>
     </g>
     <g id="text_4">
      <!-- 8 -->
      <defs>
       <path d="M 31.78125 34.625 
Q 24.75 34.625 20.71875 30.859375 
Q 16.703125 27.09375 16.703125 20.515625 
Q 16.703125 13.921875 20.71875 10.15625 
Q 24.75 6.390625 31.78125 6.390625 
Q 38.8125 6.390625 42.859375 10.171875 
Q 46.921875 13.96875 46.921875 20.515625 
Q 46.921875 27.09375 42.890625 30.859375 
Q 38.875 34.625 31.78125 34.625 
M 21.921875 38.8125 
Q 15.578125 40.375 12.03125 44.71875 
Q 8.5 49.078125 8.5 55.328125 
Q 8.5 64.0625 14.71875 69.140625 
Q 20.953125 74.21875 31.78125 74.21875 
Q 42.671875 74.21875 48.875 69.140625 
Q 55.078125 64.0625 55.078125 55.328125 
Q 55.078125 49.078125 51.53125 44.71875 
Q 48 40.375 41.703125 38.8125 
Q 48.828125 37.15625 52.796875 32.3125 
Q 56.78125 27.484375 56.78125 20.515625 
Q 56.78125 9.90625 50.3125 4.234375 
Q 43.84375 -1.421875 31.78125 -1.421875 
Q 19.734375 -1.421875 13.25 4.234375 
Q 6.78125 9.90625 6.78125 20.515625 
Q 6.78125 27.484375 10.78125 32.3125 
Q 14.796875 37.15625 21.921875 38.8125 
M 18.3125 54.390625 
Q 18.3125 48.734375 21.84375 45.5625 
Q 25.390625 42.390625 31.78125 42.390625 
Q 38.140625 42.390625 41.71875 45.5625 
Q 45.3125 48.734375 45.3125 54.390625 
Q 45.3125 60.0625 41.71875 63.234375 
Q 38.140625 66.40625 31.78125 66.40625 
Q 25.390625 66.40625 21.84375 63.234375 
Q 18.3125 60.0625 18.3125 54.390625 
" id="DejaVuSans-38"/>
      </defs>
      <g transform="translate(338.887418 299.008875)scale(0.2 -0.2)">
       <use xlink:href="#DejaVuSans-38"/>
      </g>
     </g>
    </g>
    <g id="text_5">
     <!-- log10 of Df -->
     <defs>
      <path d="M 9.421875 75.984375 
L 18.40625 75.984375 
L 18.40625 0 
L 9.421875 0 
z
" id="DejaVuSans-6c"/>
      <path d="M 30.609375 48.390625 
Q 23.390625 48.390625 19.1875 42.75 
Q 14.984375 37.109375 14.984375 27.296875 
Q 14.984375 17.484375 19.15625 11.84375 
Q 23.34375 6.203125 30.609375 6.203125 
Q 37.796875 6.203125 41.984375 11.859375 
Q 46.1875 17.53125 46.1875 27.296875 
Q 46.1875 37.015625 41.984375 42.703125 
Q 37.796875 48.390625 30.609375 48.390625 
M 30.609375 56 
Q 42.328125 56 49.015625 48.375 
Q 55.71875 40.765625 55.71875 27.296875 
Q 55.71875 13.875 49.015625 6.21875 
Q 42.328125 -1.421875 30.609375 -1.421875 
Q 18.84375 -1.421875 12.171875 6.21875 
Q 5.515625 13.875 5.515625 27.296875 
Q 5.515625 40.765625 12.171875 48.375 
Q 18.84375 56 30.609375 56 
" id="DejaVuSans-6f"/>
      <path d="M 45.40625 27.984375 
Q 45.40625 37.75 41.375 43.109375 
Q 37.359375 48.484375 30.078125 48.484375 
Q 22.859375 48.484375 18.828125 43.109375 
Q 14.796875 37.75 14.796875 27.984375 
Q 14.796875 18.265625 18.828125 12.890625 
Q 22.859375 7.515625 30.078125 7.515625 
Q 37.359375 7.515625 41.375 12.890625 
Q 45.40625 18.265625 45.40625 27.984375 
M 54.390625 6.78125 
Q 54.390625 -7.171875 48.1875 -13.984375 
Q 42 -20.796875 29.203125 -20.796875 
Q 24.46875 -20.796875 20.265625 -20.09375 
Q 16.0625 -19.390625 12.109375 -17.921875 
L 12.109375 -9.1875 
Q 16.0625 -11.328125 19.921875 -12.34375 
Q 23.78125 -13.375 27.78125 -13.375 
Q 36.625 -13.375 41.015625 -8.765625 
Q 45.40625 -4.15625 45.40625 5.171875 
L 45.40625 9.625 
Q 42.625 4.78125 38.28125 2.390625 
Q 33.9375 0 27.875 0 
Q 17.828125 0 11.671875 7.65625 
Q 5.515625 15.328125 5.515625 27.984375 
Q 5.515625 40.671875 11.671875 48.328125 
Q 17.828125 56 27.875 56 
Q 33.9375 56 38.28125 53.609375 
Q 42.625 51.21875 45.40625 46.390625 
L 45.40625 54.6875 
L 54.390625 54.6875 
z
" id="DejaVuSans-67"/>
      <path d="M 12.40625 8.296875 
L 28.515625 8.296875 
L 28.515625 63.921875 
L 10.984375 60.40625 
L 10.984375 69.390625 
L 28.421875 72.90625 
L 38.28125 72.90625 
L 38.28125 8.296875 
L 54.390625 8.296875 
L 54.390625 0 
L 12.40625 0 
z
" id="DejaVuSans-31"/>
      <path id="DejaVuSans-20"/>
      <path d="M 37.109375 75.984375 
L 37.109375 68.5 
L 28.515625 68.5 
Q 23.6875 68.5 21.796875 66.546875 
Q 19.921875 64.59375 19.921875 59.515625 
L 19.921875 54.6875 
L 34.71875 54.6875 
L 34.71875 47.703125 
L 19.921875 47.703125 
L 19.921875 0 
L 10.890625 0 
L 10.890625 47.703125 
L 2.296875 47.703125 
L 2.296875 54.6875 
L 10.890625 54.6875 
L 10.890625 58.5 
Q 10.890625 67.625 15.140625 71.796875 
Q 19.390625 75.984375 28.609375 75.984375 
z
" id="DejaVuSans-66"/>
      <path d="M 19.671875 64.796875 
L 19.671875 8.109375 
L 31.59375 8.109375 
Q 46.6875 8.109375 53.6875 14.9375 
Q 60.6875 21.78125 60.6875 36.53125 
Q 60.6875 51.171875 53.6875 57.984375 
Q 46.6875 64.796875 31.59375 64.796875 
z
M 9.8125 72.90625 
L 30.078125 72.90625 
Q 51.265625 72.90625 61.171875 64.09375 
Q 71.09375 55.28125 71.09375 36.53125 
Q 71.09375 17.671875 61.125 8.828125 
Q 51.171875 0 30.078125 0 
L 9.8125 0 
z
" id="DejaVuSans-44"/>
     </defs>
     <g transform="translate(134.074063 322.365125)scale(0.2 -0.2)">
      <use xlink:href="#DejaVuSans-6c"/>
      <use x="27.783203" xlink:href="#DejaVuSans-6f"/>
      <use x="88.964844" xlink:href="#DejaVuSans-67"/>
      <use x="152.441406" xlink:href="#DejaVuSans-31"/>
      <use x="216.064453" xlink:href="#DejaVuSans-30"/>
      <use x="279.6875" xlink:href="#DejaVuSans-20"/>
      <use x="311.474609" xlink:href="#DejaVuSans-6f"/>
      <use x="372.65625" xlink:href="#DejaVuSans-66"/>
      <use x="407.861328" xlink:href="#DejaVuSans-20"/>
      <use x="439.648438" xlink:href="#DejaVuSans-44"/>
      <use x="516.650391" xlink:href="#DejaVuSans-66"/>
     </g>
    </g>
   </g>
   <g id="matplotlib.axis_2">
    <g id="ytick_1">
     <g id="line2d_11">
      <path clip-path="url(#p8820a44378)" d="M 10.7 276.812 
L 367.82 276.812 
" style="fill:none;stroke:#b0b0b0;stroke-linecap:square;stroke-width:0.8;"/>
     </g>
     <g id="line2d_12">
      <defs>
       <path d="M 0 0 
L -3.5 0 
" id="m9814ff2ea1" style="stroke:#000000;stroke-width:0.8;"/>
      </defs>
      <g>
       <use style="stroke:#000000;stroke-width:0.8;" x="10.7" xlink:href="#m9814ff2ea1" y="276.812"/>
      </g>
     </g>
    </g>
    <g id="ytick_2">
     <g id="line2d_13">
      <path clip-path="url(#p8820a44378)" d="M 10.7 224.116554 
L 367.82 224.116554 
" style="fill:none;stroke:#b0b0b0;stroke-linecap:square;stroke-width:0.8;"/>
     </g>
     <g id="line2d_14">
      <g>
       <use style="stroke:#000000;stroke-width:0.8;" x="10.7" xlink:href="#m9814ff2ea1" y="224.116554"/>
      </g>
     </g>
    </g>
    <g id="ytick_3">
     <g id="line2d_15">
      <path clip-path="url(#p8820a44378)" d="M 10.7 171.421109 
L 367.82 171.421109 
" style="fill:none;stroke:#b0b0b0;stroke-linecap:square;stroke-width:0.8;"/>
     </g>
     <g id="line2d_16">
      <g>
       <use style="stroke:#000000;stroke-width:0.8;" x="10.7" xlink:href="#m9814ff2ea1" y="171.421109"/>
      </g>
     </g>
    </g>
    <g id="ytick_4">
     <g id="line2d_17">
      <path clip-path="url(#p8820a44378)" d="M 10.7 118.725663 
L 367.82 118.725663 
" style="fill:none;stroke:#b0b0b0;stroke-linecap:square;stroke-width:0.8;"/>
     </g>
     <g id="line2d_18">
      <g>
       <use style="stroke:#000000;stroke-width:0.8;" x="10.7" xlink:href="#m9814ff2ea1" y="118.725663"/>
      </g>
     </g>
    </g>
    <g id="ytick_5">
     <g id="line2d_19">
      <path clip-path="url(#p8820a44378)" d="M 10.7 66.030218 
L 367.82 66.030218 
" style="fill:none;stroke:#b0b0b0;stroke-linecap:square;stroke-width:0.8;"/>
     </g>
     <g id="line2d_20">
      <g>
       <use style="stroke:#000000;stroke-width:0.8;" x="10.7" xlink:href="#m9814ff2ea1" y="66.030218"/>
      </g>
     </g>
    </g>
    <g id="ytick_6">
     <g id="line2d_21">
      <path clip-path="url(#p8820a44378)" d="M 10.7 13.334772 
L 367.82 13.334772 
" style="fill:none;stroke:#b0b0b0;stroke-linecap:square;stroke-width:0.8;"/>
     </g>
     <g id="line2d_22">
      <g>
       <use style="stroke:#000000;stroke-width:0.8;" x="10.7" xlink:href="#m9814ff2ea1" y="13.334772"/>
      </g>
     </g>
    </g>
   </g>
   <g id="line2d_23">
    <path clip-path="url(#p8820a44378)" d="M 165.351241 276.812 
L 165.351241 276.080119 
L 165.351241 276.080119 
L 165.351241 276.080119 
L 165.351241 275.348238 
L 165.351241 275.348238 
L 165.351241 275.348238 
L 165.351241 274.616356 
L 165.351241 274.616356 
L 165.351241 274.616356 
L 165.351241 273.884475 
L 165.351241 273.884475 
L 165.351241 273.884475 
L 165.351241 273.152594 
L 165.351241 273.152594 
L 165.351241 273.152594 
L 165.351241 272.420713 
L 165.351241 272.420713 
L 165.351241 272.420713 
L 165.351241 271.688832 
L 165.351241 271.688832 
L 165.351241 271.688832 
L 165.351241 270.95695 
L 165.351241 270.95695 
L 165.351241 270.95695 
L 165.351241 270.225069 
L 165.351241 270.225069 
L 165.351241 270.225069 
L 165.351241 269.493188 
L 165.351241 269.493188 
L 165.351241 269.493188 
L 165.351241 268.761307 
L 165.351241 268.761307 
L 165.351241 268.761307 
L 165.351241 268.029426 
L 165.351241 268.029426 
L 165.351241 268.029426 
L 165.351241 267.297545 
L 165.351241 267.297545 
L 165.351241 267.297545 
L 165.351241 266.565663 
L 165.351241 266.565663 
L 165.351241 266.565663 
L 165.351241 265.833782 
L 173.879181 265.833782 
L 173.879181 265.101901 
L 182.587111 265.101901 
L 182.587111 264.37002 
L 187.548266 264.37002 
L 187.548266 263.638139 
L 188.590368 263.638139 
L 188.590368 262.906257 
L 189.656703 262.906257 
L 189.656703 262.174376 
L 189.801853 262.174376 
L 189.801853 261.442495 
L 191.241615 261.442495 
L 191.241615 260.710614 
L 191.832114 260.710614 
L 191.832114 259.978733 
L 192.567281 259.978733 
L 192.567281 259.246851 
L 193.240665 259.246851 
L 193.240665 258.51497 
L 193.628848 258.51497 
L 193.628848 257.783089 
L 193.755881 257.783089 
L 193.755881 257.051208 
L 193.881665 257.051208 
L 193.881665 256.319327 
L 194.056317 256.319327 
L 194.056317 255.587446 
L 194.959328 255.587446 
L 194.959328 254.855564 
L 195.108802 254.855564 
L 195.108802 254.123683 
L 195.26469 254.123683 
L 195.26469 253.391802 
L 195.448127 253.391802 
L 195.448127 252.659921 
L 195.756754 252.659921 
L 195.756754 251.92804 
L 196.296958 251.92804 
L 196.296958 251.196158 
L 196.43168 251.196158 
L 196.46787 249.732396 
L 196.616213 249.732396 
L 196.616213 249.000515 
L 196.941837 249.000515 
L 196.941837 248.268634 
L 197.456253 248.268634 
L 197.544605 246.07299 
L 197.573786 246.07299 
L 197.636768 244.609228 
L 197.713055 244.609228 
L 197.713055 243.877347 
L 198.06729 243.877347 
L 198.06729 243.145465 
L 198.288734 243.145465 
L 198.288734 242.413584 
L 198.423062 242.413584 
L 198.466313 240.949822 
L 199.105555 240.949822 
L 199.20945 239.486059 
L 199.284648 239.486059 
L 199.393605 238.022297 
L 199.508922 238.022297 
L 199.508922 237.290416 
L 199.767026 237.290416 
L 199.767026 236.558535 
L 200.087388 236.558535 
L 200.157188 235.094772 
L 200.72386 235.094772 
L 200.72386 234.362891 
L 201.173995 234.362891 
L 201.173995 233.63101 
L 201.30801 233.63101 
L 201.324275 232.167248 
L 201.434528 232.167248 
L 201.434528 231.435366 
L 201.553029 231.435366 
L 201.600331 229.971604 
L 201.996831 229.971604 
L 202.09916 228.507842 
L 202.577242 228.507842 
L 202.640512 227.044079 
L 203.397114 227.044079 
L 203.397114 226.312198 
L 203.647745 226.312198 
L 203.713844 224.848436 
L 203.864481 224.848436 
L 203.864481 224.116554 
L 203.978468 224.116554 
L 203.978468 223.384673 
L 204.347458 223.384673 
L 204.347458 222.652792 
L 204.542044 222.652792 
L 204.542044 221.920911 
L 205.226887 221.920911 
L 205.226887 221.18903 
L 205.388064 221.18903 
L 205.488172 218.993386 
L 205.588151 218.993386 
L 205.588151 218.261505 
L 205.758729 218.261505 
L 205.850347 216.797743 
L 206.106869 216.797743 
L 206.168774 215.33398 
L 206.313911 215.33398 
L 206.377874 213.870218 
L 206.596165 213.870218 
L 206.596165 213.138337 
L 206.830158 213.138337 
L 206.929356 210.942693 
L 207.241845 210.942693 
L 207.241845 210.210812 
L 207.509147 210.210812 
L 207.523962 198.500713 
L 207.64644 198.500713 
L 207.64644 197.768832 
L 207.905567 197.768832 
L 207.992058 196.305069 
L 208.088437 196.305069 
L 208.168734 194.109426 
L 208.283179 194.109426 
L 208.283179 193.377545 
L 208.399929 193.377545 
L 208.477409 191.913782 
L 208.539261 191.913782 
L 208.539261 191.181901 
L 208.983154 191.181901 
L 208.983154 190.45002 
L 209.142041 190.45002 
L 209.142041 189.718139 
L 209.322111 189.718139 
L 209.322111 188.986257 
L 209.496917 188.986257 
L 209.602778 187.522495 
L 209.787055 187.522495 
L 209.860857 184.59497 
L 209.993898 184.59497 
L 210.09301 183.131208 
L 210.39228 183.131208 
L 210.39228 182.399327 
L 211.013156 182.399327 
L 211.013156 181.667446 
L 211.144437 181.667446 
L 211.144437 180.935564 
L 211.363793 180.935564 
L 211.363793 180.203683 
L 211.768133 180.203683 
L 211.768133 179.471802 
L 212.036802 179.471802 
L 212.036802 178.739921 
L 212.243521 178.739921 
L 212.300886 176.544277 
L 212.407898 176.544277 
L 212.407898 175.812396 
L 212.560593 175.812396 
L 212.560593 175.080515 
L 212.697307 175.080515 
L 212.781832 171.421109 
L 212.859583 171.421109 
L 212.866834 169.957347 
L 213.001806 169.957347 
L 213.09209 167.761703 
L 213.134589 167.761703 
L 213.134589 167.029822 
L 213.421416 167.029822 
L 213.434265 165.566059 
L 213.573587 165.566059 
L 213.573587 164.834178 
L 213.736886 164.834178 
L 213.842086 161.174772 
L 213.854927 161.174772 
L 213.854927 160.442891 
L 213.967876 160.442891 
L 213.967876 159.71101 
L 214.163172 159.71101 
L 214.163172 158.979129 
L 214.483868 158.979129 
L 214.507992 157.515366 
L 214.700571 157.515366 
L 214.785672 156.051604 
L 214.913998 156.051604 
L 214.913998 155.319723 
L 215.178503 155.319723 
L 215.178503 154.587842 
L 215.613207 154.587842 
L 215.613207 153.85596 
L 215.840594 153.85596 
L 215.840594 153.124079 
L 216.041877 153.124079 
L 216.11186 151.660317 
L 216.16975 151.660317 
L 216.218501 150.196554 
L 216.316927 150.196554 
L 216.375976 147.26903 
L 216.659129 147.26903 
L 216.730717 145.805267 
L 216.779911 145.805267 
L 216.779911 145.073386 
L 216.914592 145.073386 
L 216.914592 144.341505 
L 217.16618 144.341505 
L 217.258553 142.877743 
L 217.285226 142.877743 
L 217.384577 139.950218 
L 217.551149 139.950218 
L 217.636333 138.486455 
L 217.68212 138.486455 
L 217.751906 137.022693 
L 217.986592 137.022693 
L 217.986592 136.290812 
L 218.305494 136.290812 
L 218.305494 135.558931 
L 218.456283 135.558931 
L 218.55951 133.363287 
L 218.700127 133.363287 
L 218.792399 131.899525 
L 218.837057 131.899525 
L 218.925274 130.435762 
L 218.956665 130.435762 
L 219.053777 128.240119 
L 219.291487 128.240119 
L 219.298024 126.776356 
L 219.417513 126.776356 
L 219.425363 125.312594 
L 219.747616 125.312594 
L 219.747616 124.580713 
L 219.874271 124.580713 
L 219.874271 123.848832 
L 220.4437 123.848832 
L 220.4437 123.11695 
L 220.586427 123.11695 
L 220.586427 122.385069 
L 220.733154 122.385069 
L 220.733154 121.653188 
L 221.03083 121.653188 
L 221.03083 120.921307 
L 221.18068 120.921307 
L 221.263208 119.457545 
L 221.361052 119.457545 
L 221.430829 117.261901 
L 221.602724 117.261901 
L 221.691136 115.798139 
L 221.811706 115.798139 
L 221.811706 115.066257 
L 221.937075 115.066257 
L 221.937075 114.334376 
L 222.148649 114.334376 
L 222.235232 112.870614 
L 222.289759 112.870614 
L 222.289759 112.138733 
L 222.40931 112.138733 
L 222.40931 111.406851 
L 222.658693 111.406851 
L 222.658693 110.67497 
L 222.798228 110.67497 
L 222.798228 109.943089 
L 223.036769 109.943089 
L 223.036769 109.211208 
L 223.264914 109.211208 
L 223.264914 108.479327 
L 223.46392 108.479327 
L 223.510101 106.283683 
L 223.940721 106.283683 
L 223.940721 105.551802 
L 224.266917 105.551802 
L 224.266917 104.819921 
L 225.045548 104.819921 
L 225.081591 103.356158 
L 225.717567 103.356158 
L 225.717567 102.624277 
L 226.693198 102.624277 
L 226.747863 101.160515 
L 226.860328 101.160515 
L 226.968307 99.696752 
L 227.54434 99.696752 
L 227.54434 98.964871 
L 227.659788 98.964871 
L 227.659788 98.23299 
L 228.403106 98.23299 
L 228.403106 97.501109 
L 228.782429 97.501109 
L 228.782429 96.769228 
L 231.545353 96.769228 
L 231.545353 96.037347 
L 232.159821 96.037347 
L 232.159821 95.305465 
L 234.072518 95.305465 
L 234.110979 93.841703 
L 234.418252 93.841703 
L 234.418252 93.109822 
L 235.236228 93.109822 
L 235.236228 92.377941 
L 237.189045 92.377941 
L 237.189045 91.646059 
L 237.518851 91.646059 
L 237.624968 90.182297 
L 237.737058 90.182297 
L 237.737058 89.450416 
L 238.07138 89.450416 
L 238.07138 88.718535 
L 238.623335 88.718535 
L 238.703047 87.254772 
L 238.928298 87.254772 
L 238.928298 86.522891 
L 239.43662 86.522891 
L 239.43662 85.79101 
L 239.860356 85.79101 
L 239.860356 85.059129 
L 240.198056 85.059129 
L 240.198056 84.327248 
L 240.447449 84.327248 
L 240.447449 83.595366 
L 240.558585 83.595366 
L 240.558585 82.863485 
L 241.093855 82.863485 
L 241.093855 82.131604 
L 241.570898 82.131604 
L 241.570898 81.399723 
L 242.692466 81.399723 
L 242.692466 80.667842 
L 243.075283 80.667842 
L 243.075283 79.93596 
L 243.245064 79.93596 
L 243.245064 79.204079 
L 249.271498 79.204079 
L 249.271498 78.472198 
L 250.172163 78.472198 
L 250.172163 77.740317 
L 251.647226 77.740317 
L 251.647226 77.008436 
L 252.084082 77.008436 
L 252.084082 76.276554 
L 252.95621 76.276554 
L 252.95621 75.544673 
L 253.438674 75.544673 
L 253.438674 74.812792 
L 253.858589 74.812792 
L 253.858589 74.080911 
L 255.532494 74.080911 
L 255.532494 73.34903 
L 256.376262 73.34903 
L 256.376262 72.617149 
L 256.713766 72.617149 
L 256.713766 71.885267 
L 256.953739 71.885267 
L 256.953739 71.153386 
L 257.805486 71.153386 
L 257.805486 65.298337 
L 258.246065 65.298337 
L 258.246065 64.566455 
L 259.905624 64.566455 
L 259.905624 63.834574 
L 262.999733 63.834574 
L 262.999733 63.102693 
L 264.514279 63.102693 
L 264.514279 62.370812 
L 264.956028 62.370812 
L 264.956028 61.638931 
L 267.057628 61.638931 
L 267.057628 60.90705 
L 268.261963 60.90705 
L 268.261963 60.175168 
L 269.994595 60.175168 
L 269.994595 59.443287 
L 270.593199 59.443287 
L 270.593199 58.711406 
L 271.316494 58.711406 
L 271.316494 57.979525 
L 275.506685 57.979525 
L 275.506685 57.247644 
L 277.085436 57.247644 
L 277.085436 56.515762 
L 277.638199 56.515762 
L 277.654778 55.052 
L 278.344183 55.052 
L 278.383999 53.588238 
L 278.514378 53.588238 
L 278.514378 52.856356 
L 279.435262 52.856356 
L 279.435262 52.124475 
L 281.241278 52.124475 
L 281.241278 51.392594 
L 282.285826 51.392594 
L 282.285826 50.660713 
L 283.204921 50.660713 
L 283.204921 49.928832 
L 283.60466 49.928832 
L 283.60466 49.19695 
L 284.387098 49.19695 
L 284.387098 48.465069 
L 284.864431 48.465069 
L 284.864431 47.733188 
L 285.051599 47.733188 
L 285.051599 47.001307 
L 285.267932 47.001307 
L 285.267932 46.269426 
L 285.543468 46.269426 
L 285.543468 45.537545 
L 285.816855 45.537545 
L 285.816855 44.805663 
L 286.113942 44.805663 
L 286.113942 44.073782 
L 287.338543 44.073782 
L 287.338543 43.341901 
L 289.069941 43.341901 
L 289.069941 42.61002 
L 289.53823 42.61002 
L 289.53823 41.878139 
L 293.089028 41.878139 
L 293.089028 41.146257 
L 293.510999 41.146257 
L 293.510999 40.414376 
L 293.757558 40.414376 
L 293.757558 39.682495 
L 294.765269 39.682495 
L 294.765269 38.950614 
L 294.968013 38.950614 
L 294.968013 38.218733 
L 295.835706 38.218733 
L 295.835706 37.486851 
L 296.379349 37.486851 
L 296.379349 36.75497 
L 296.926647 36.75497 
L 296.926647 36.023089 
L 297.629765 36.023089 
L 297.629765 35.291208 
L 298.50149 35.291208 
L 298.503552 33.827446 
L 298.639111 33.827446 
L 298.639111 33.095564 
L 298.948836 33.095564 
L 298.948836 32.363683 
L 301.958053 32.363683 
L 301.958053 31.631802 
L 302.974344 31.631802 
L 302.974344 30.899921 
L 304.379715 30.899921 
L 304.379715 30.16804 
L 304.790603 30.16804 
L 304.790603 29.436158 
L 309.024528 29.436158 
L 309.024528 28.704277 
L 309.165832 28.704277 
L 309.268112 27.240515 
L 310.199099 27.240515 
L 310.199099 26.508634 
L 310.941014 26.508634 
L 310.941014 25.776752 
L 313.108551 25.776752 
L 313.108551 25.044871 
L 319.567744 25.044871 
L 319.567744 24.31299 
L 320.713398 24.31299 
L 320.713398 23.581109 
L 321.249346 23.581109 
L 321.249346 22.849228 
L 324.403114 22.849228 
L 324.403114 22.117347 
L 327.188611 22.117347 
L 327.188611 21.385465 
L 328.955357 21.385465 
L 329.025836 19.921703 
L 329.673797 19.921703 
L 329.673797 19.189822 
L 330.387493 19.189822 
L 330.387493 18.457941 
L 331.926731 18.457941 
L 331.926731 17.726059 
L 332.718945 17.726059 
L 332.718945 16.994178 
L 335.662981 16.994178 
L 335.748734 15.530416 
L 337.135348 15.530416 
L 337.135348 14.798535 
L 339.603124 14.798535 
L 339.603124 14.066653 
L 348.887911 14.066653 
L 348.887911 13.334772 
L 348.887911 13.334772 
L 367.82 13.334772 
L 367.82 13.334772 
" style="fill:none;stroke:#ff0000;stroke-linecap:square;stroke-width:3;"/>
   </g>
   <g id="line2d_24">
    <path clip-path="url(#p8820a44378)" d="M 165.351241 276.812 
L 165.351241 276.080119 
L 165.351241 276.080119 
L 165.351241 276.080119 
L 165.351241 275.348238 
L 165.351241 275.348238 
L 165.351241 275.348238 
L 165.351241 274.616356 
L 165.351241 274.616356 
L 165.351241 274.616356 
L 165.351241 273.884475 
L 165.351241 273.884475 
L 165.351241 273.884475 
L 165.351241 273.152594 
L 165.351241 273.152594 
L 165.351241 273.152594 
L 165.351241 272.420713 
L 165.351241 272.420713 
L 165.351241 272.420713 
L 165.351241 271.688832 
L 165.351241 271.688832 
L 165.351241 271.688832 
L 165.351241 270.95695 
L 165.351241 270.95695 
L 165.351241 270.95695 
L 165.351241 270.225069 
L 165.351241 270.225069 
L 165.351241 270.225069 
L 165.351241 269.493188 
L 165.351241 269.493188 
L 165.351241 269.493188 
L 165.351241 268.761307 
L 165.351241 268.761307 
L 165.351241 268.761307 
L 165.351241 268.029426 
L 165.351241 268.029426 
L 165.351241 268.029426 
L 165.351241 267.297545 
L 165.351241 267.297545 
L 165.351241 267.297545 
L 165.351241 266.565663 
L 165.351241 266.565663 
L 165.351241 266.565663 
L 165.351241 265.833782 
L 192.567281 265.833782 
L 192.567281 265.101901 
L 193.628848 265.101901 
L 193.628848 264.37002 
L 193.755881 264.37002 
L 193.755881 263.638139 
L 193.881665 263.638139 
L 193.881665 262.906257 
L 195.230074 262.906257 
L 195.230074 262.174376 
L 195.448127 262.174376 
L 195.448127 261.442495 
L 196.296958 261.442495 
L 196.296958 260.710614 
L 197.044285 260.710614 
L 197.044285 259.978733 
L 197.544605 259.978733 
L 197.544605 259.246851 
L 198.593844 259.246851 
L 198.675015 257.783089 
L 199.105555 257.783089 
L 199.105555 257.051208 
L 199.235162 257.051208 
L 199.235162 256.319327 
L 199.393605 256.319327 
L 199.393605 255.587446 
L 199.508922 255.587446 
L 199.508922 254.855564 
L 199.767026 254.855564 
L 199.767026 254.123683 
L 200.157188 254.123683 
L 200.157188 253.391802 
L 200.357078 253.391802 
L 200.357078 252.659921 
L 200.678475 252.659921 
L 200.678475 251.92804 
L 200.805342 251.92804 
L 200.805342 251.196158 
L 201.104084 251.196158 
L 201.173995 249.000515 
L 201.30801 249.000515 
L 201.349805 247.536752 
L 201.662309 247.536752 
L 201.662309 246.804871 
L 202.075948 246.804871 
L 202.075948 246.07299 
L 202.520319 246.07299 
L 202.520319 245.341109 
L 202.640512 245.341109 
L 202.640512 244.609228 
L 202.880849 244.609228 
L 202.958565 243.145465 
L 203.317743 243.145465 
L 203.317743 242.413584 
L 203.605144 242.413584 
L 203.605144 241.681703 
L 203.864481 241.681703 
L 203.864481 240.949822 
L 204.019308 240.949822 
L 204.095698 239.486059 
L 204.211188 239.486059 
L 204.211188 238.754178 
L 204.688202 238.754178 
L 204.688202 238.022297 
L 205.226887 238.022297 
L 205.274974 236.558535 
L 205.388064 236.558535 
L 205.421894 235.094772 
L 205.758729 235.094772 
L 205.824821 233.63101 
L 205.882269 233.63101 
L 205.990605 232.167248 
L 206.637749 232.167248 
L 206.68054 230.703485 
L 207.523962 230.703485 
L 207.55617 218.993386 
L 207.760903 218.993386 
L 207.760903 218.261505 
L 207.905567 218.261505 
L 207.905567 217.529624 
L 208.088437 217.529624 
L 208.088437 216.797743 
L 208.240613 216.797743 
L 208.240613 216.065861 
L 208.44157 216.065861 
L 208.44157 215.33398 
L 208.67954 215.33398 
L 208.67954 214.602099 
L 209.119209 214.602099 
L 209.142041 212.406455 
L 209.299985 212.406455 
L 209.362988 210.210812 
L 209.496917 210.210812 
L 209.602778 208.74705 
L 209.993898 208.74705 
L 210.068786 206.551406 
L 210.105064 206.551406 
L 210.105064 205.819525 
L 211.013156 205.819525 
L 211.013156 205.087644 
L 211.327777 205.087644 
L 211.431372 203.623881 
L 211.793146 203.623881 
L 211.793146 202.892 
L 212.367116 202.892 
L 212.430503 201.428238 
L 212.560593 201.428238 
L 212.560593 200.696356 
L 212.758194 200.696356 
L 212.859583 197.768832 
L 212.953854 197.768832 
L 212.953854 197.03695 
L 213.09209 197.03695 
L 213.09209 196.305069 
L 213.421416 196.305069 
L 213.421416 195.573188 
L 213.820533 195.573188 
L 213.917727 191.913782 
L 213.990155 191.913782 
L 214.095556 190.45002 
L 214.163172 190.45002 
L 214.24088 188.254376 
L 214.456542 188.254376 
L 214.511049 186.058733 
L 214.913998 186.058733 
L 214.919659 184.59497 
L 215.095258 184.59497 
L 215.178503 183.131208 
L 215.388416 183.131208 
L 215.388416 182.399327 
L 215.579133 182.399327 
L 215.657214 179.471802 
L 215.713103 179.471802 
L 215.713103 178.739921 
L 215.840594 178.739921 
L 215.86244 177.276158 
L 216.010959 177.276158 
L 216.11186 175.080515 
L 216.23268 175.080515 
L 216.335414 173.616752 
L 216.370203 173.616752 
L 216.442781 171.421109 
L 216.586125 171.421109 
L 216.659129 169.957347 
L 216.740477 169.957347 
L 216.837276 167.761703 
L 216.901118 167.761703 
L 217.006333 164.102297 
L 217.030243 164.102297 
L 217.030243 163.370416 
L 217.258553 163.370416 
L 217.368003 161.174772 
L 217.384577 161.174772 
L 217.384577 160.442891 
L 217.68212 160.442891 
L 217.751906 158.247248 
L 217.797611 158.247248 
L 217.80763 156.783485 
L 218.238905 156.783485 
L 218.238905 156.051604 
L 218.495544 156.051604 
L 218.55951 152.392198 
L 218.925274 152.392198 
L 218.925274 151.660317 
L 219.053777 151.660317 
L 219.137045 150.196554 
L 219.211007 150.196554 
L 219.298024 148.000911 
L 219.328822 148.000911 
L 219.417513 146.537149 
L 219.808262 146.537149 
L 219.874271 145.073386 
L 219.93849 145.073386 
L 219.93849 144.341505 
L 220.273789 144.341505 
L 220.273789 143.609624 
L 220.436793 143.609624 
L 220.4437 138.486455 
L 220.586427 138.486455 
L 220.586427 137.754574 
L 220.752406 137.754574 
L 220.752406 137.022693 
L 221.361052 137.022693 
L 221.361052 135.558931 
L 221.633951 135.558931 
L 221.633951 134.82705 
L 221.811706 134.82705 
L 221.811706 134.095168 
L 221.937075 134.095168 
L 221.937075 133.363287 
L 222.305037 133.363287 
L 222.37957 130.435762 
L 222.658693 130.435762 
L 222.688688 128.972 
L 222.798228 128.972 
L 222.887201 127.508238 
L 223.036769 127.508238 
L 223.036997 126.044475 
L 223.264914 126.044475 
L 223.264914 125.312594 
L 223.46392 125.312594 
L 223.510101 123.11695 
L 223.748977 123.11695 
L 223.807948 120.921307 
L 223.879035 120.921307 
L 223.879035 120.189426 
L 224.266917 120.189426 
L 224.266917 119.457545 
L 225.081591 119.457545 
L 225.081591 118.725663 
L 225.518205 118.725663 
L 225.518205 117.993782 
L 225.679568 117.993782 
L 225.717567 116.53002 
L 225.964618 116.53002 
L 225.964618 115.798139 
L 226.693198 115.798139 
L 226.693198 115.066257 
L 226.968307 115.066257 
L 226.968307 114.334376 
L 227.54434 114.334376 
L 227.54434 113.602495 
L 227.659788 113.602495 
L 227.659788 112.870614 
L 228.091558 112.870614 
L 228.091558 112.138733 
L 228.319004 112.138733 
L 228.403106 109.943089 
L 228.782429 109.943089 
L 228.818478 108.479327 
L 230.572742 108.479327 
L 230.572742 107.747446 
L 231.543656 107.747446 
L 231.543656 107.015564 
L 231.965237 107.015564 
L 231.965237 106.283683 
L 233.012779 106.283683 
L 233.012779 105.551802 
L 233.708942 105.551802 
L 233.708942 104.819921 
L 233.849953 104.819921 
L 233.849953 104.08804 
L 234.418252 104.08804 
L 234.418252 103.356158 
L 234.942096 103.356158 
L 234.962383 101.892396 
L 235.236228 101.892396 
L 235.236228 101.160515 
L 238.198472 101.160515 
L 238.198472 100.428634 
L 238.471354 100.428634 
L 238.471354 99.696752 
L 238.835633 99.696752 
L 238.928298 98.23299 
L 239.25896 98.23299 
L 239.25896 97.501109 
L 239.878364 97.501109 
L 239.917286 96.037347 
L 240.198056 96.037347 
L 240.198056 95.305465 
L 240.832539 95.305465 
L 240.832539 94.573584 
L 240.945114 94.573584 
L 240.990796 93.109822 
L 241.101691 93.109822 
L 241.193059 91.646059 
L 242.78927 91.646059 
L 242.827571 90.182297 
L 243.245064 90.182297 
L 243.245064 89.450416 
L 243.624138 89.450416 
L 243.624138 88.718535 
L 243.823377 88.718535 
L 243.823377 87.986653 
L 246.573794 87.986653 
L 246.573794 87.254772 
L 247.424571 87.254772 
L 247.424571 86.522891 
L 251.918937 86.522891 
L 251.918937 85.79101 
L 252.700639 85.79101 
L 252.700639 85.059129 
L 255.886248 85.059129 
L 255.886248 84.327248 
L 256.713766 84.327248 
L 256.713766 83.595366 
L 257.276158 83.595366 
L 257.276158 82.863485 
L 257.532107 82.863485 
L 257.532107 82.131604 
L 257.805486 82.131604 
L 257.805486 71.885267 
L 257.974446 71.885267 
L 257.974446 71.153386 
L 258.246494 71.153386 
L 258.246494 70.421505 
L 259.180363 70.421505 
L 259.180363 69.689624 
L 259.905624 69.689624 
L 259.905624 68.957743 
L 260.965482 68.957743 
L 260.965482 68.225861 
L 262.835452 68.225861 
L 262.835452 67.49398 
L 264.514279 67.49398 
L 264.514279 66.762099 
L 264.956028 66.762099 
L 264.956028 66.030218 
L 265.545816 66.030218 
L 265.545816 65.298337 
L 267.057628 65.298337 
L 267.057628 64.566455 
L 267.434981 64.566455 
L 267.434981 63.834574 
L 269.625354 63.834574 
L 269.625354 63.102693 
L 270.010262 63.102693 
L 270.010262 62.370812 
L 271.316494 62.370812 
L 271.316494 61.638931 
L 277.085436 61.638931 
L 277.085436 60.90705 
L 277.654778 60.90705 
L 277.654778 60.175168 
L 277.822989 60.175168 
L 277.822989 59.443287 
L 278.126395 59.443287 
L 278.126395 58.711406 
L 279.435262 58.711406 
L 279.435262 57.979525 
L 280.151777 57.979525 
L 280.151777 57.247644 
L 281.241278 57.247644 
L 281.241278 56.515762 
L 282.285826 56.515762 
L 282.285826 55.783881 
L 283.106506 55.783881 
L 283.204921 54.320119 
L 283.60466 54.320119 
L 283.60466 53.588238 
L 285.051599 53.588238 
L 285.051599 52.856356 
L 285.543468 52.856356 
L 285.611552 51.392594 
L 286.113942 51.392594 
L 286.113942 50.660713 
L 286.856972 50.660713 
L 286.856972 49.928832 
L 287.319068 49.928832 
L 287.319068 49.19695 
L 291.069468 49.19695 
L 291.162143 47.733188 
L 293.510999 47.733188 
L 293.510999 47.001307 
L 293.878029 47.001307 
L 293.878029 46.269426 
L 295.863841 46.269426 
L 295.863841 45.537545 
L 296.379349 45.537545 
L 296.379349 44.805663 
L 298.50149 44.805663 
L 298.510594 42.61002 
L 299.890694 42.61002 
L 299.900773 41.146257 
L 300.657393 41.146257 
L 300.657393 40.414376 
L 307.366399 40.414376 
L 307.366399 39.682495 
L 309.024528 39.682495 
L 309.024528 38.950614 
L 310.199099 38.950614 
L 310.199099 38.218733 
L 310.689938 38.218733 
L 310.689938 37.486851 
L 310.808036 37.486851 
L 310.808036 36.75497 
L 313.108551 36.75497 
L 313.108551 36.023089 
L 313.6392 36.023089 
L 313.6392 35.291208 
L 315.065792 35.291208 
L 315.065792 34.559327 
L 315.20515 34.559327 
L 315.290601 33.095564 
L 317.303329 33.095564 
L 317.303329 32.363683 
L 317.664199 32.363683 
L 317.664199 31.631802 
L 318.372213 31.631802 
L 318.372213 30.899921 
L 319.475399 30.899921 
L 319.567744 28.704277 
L 319.889894 28.704277 
L 319.889894 27.972396 
L 320.751163 27.972396 
L 320.751163 27.240515 
L 321.681383 27.240515 
L 321.681383 26.508634 
L 324.591535 26.508634 
L 324.591535 25.776752 
L 325.942097 25.776752 
L 325.942097 25.044871 
L 328.86674 25.044871 
L 328.86674 24.31299 
L 329.168491 24.31299 
L 329.168491 23.581109 
L 333.176191 23.581109 
L 333.176191 22.849228 
L 335.112842 22.849228 
L 335.112842 22.117347 
L 336.336297 22.117347 
L 336.336297 21.385465 
L 337.135348 21.385465 
L 337.135348 20.653584 
L 337.573971 20.653584 
L 337.573971 19.921703 
L 339.154841 19.921703 
L 339.154841 19.189822 
L 340.582976 19.189822 
L 340.582976 18.457941 
L 341.369244 18.457941 
L 341.369244 17.726059 
L 342.615817 17.726059 
L 342.615817 16.994178 
L 347.406701 16.994178 
L 347.406701 16.262297 
L 348.025976 16.262297 
L 348.025976 15.530416 
L 349.069669 15.530416 
L 349.069669 14.798535 
L 357.182092 14.798535 
L 357.182092 14.066653 
L 358.178631 14.066653 
L 358.178631 13.334772 
L 358.178631 13.334772 
L 367.82 13.334772 
L 367.82 13.334772 
" style="fill:none;stroke:#00bfbf;stroke-linecap:square;stroke-width:1.5;"/>
   </g>
   <g id="line2d_25">
    <path clip-path="url(#p8820a44378)" d="M 165.351241 276.812 
L 165.351241 276.080119 
L 165.351241 276.080119 
L 165.351241 276.080119 
L 165.351241 275.348238 
L 165.351241 275.348238 
L 165.351241 275.348238 
L 165.351241 274.616356 
L 165.351241 274.616356 
L 165.351241 274.616356 
L 165.351241 273.884475 
L 165.351241 273.884475 
L 165.351241 273.884475 
L 165.351241 273.152594 
L 165.351241 273.152594 
L 165.351241 273.152594 
L 165.351241 272.420713 
L 165.351241 272.420713 
L 165.351241 272.420713 
L 165.351241 271.688832 
L 165.351241 271.688832 
L 165.351241 271.688832 
L 165.351241 270.95695 
L 165.351241 270.95695 
L 165.351241 270.95695 
L 165.351241 270.225069 
L 165.351241 270.225069 
L 165.351241 270.225069 
L 165.351241 269.493188 
L 165.351241 269.493188 
L 165.351241 269.493188 
L 165.351241 268.761307 
L 165.351241 268.761307 
L 165.351241 268.761307 
L 165.351241 268.029426 
L 165.351241 268.029426 
L 165.351241 268.029426 
L 165.351241 267.297545 
L 165.351241 267.297545 
L 165.351241 267.297545 
L 165.351241 266.565663 
L 165.351241 266.565663 
L 165.351241 266.565663 
L 165.351241 265.833782 
L 173.879181 265.833782 
L 173.879181 265.101901 
L 189.656703 265.101901 
L 189.656703 264.37002 
L 189.801853 264.37002 
L 189.801853 263.638139 
L 191.832114 263.638139 
L 191.832114 262.906257 
L 192.567281 262.906257 
L 192.567281 262.174376 
L 193.628848 262.174376 
L 193.628848 261.442495 
L 193.755881 261.442495 
L 193.755881 260.710614 
L 193.881665 260.710614 
L 193.881665 259.978733 
L 194.056317 259.978733 
L 194.056317 259.246851 
L 194.959328 259.246851 
L 194.959328 258.51497 
L 195.26469 258.51497 
L 195.26469 257.783089 
L 195.448127 257.783089 
L 195.448127 257.051208 
L 196.296958 257.051208 
L 196.296958 256.319327 
L 196.46787 256.319327 
L 196.46787 255.587446 
L 196.616213 255.587446 
L 196.616213 254.855564 
L 196.941837 254.855564 
L 196.941837 254.123683 
L 197.501049 254.123683 
L 197.544605 252.659921 
L 197.713055 252.659921 
L 197.713055 251.92804 
L 197.900988 251.92804 
L 197.900988 251.196158 
L 198.288734 251.196158 
L 198.288734 250.464277 
L 198.777373 250.464277 
L 198.777373 249.732396 
L 199.105555 249.732396 
L 199.105555 249.000515 
L 199.393605 249.000515 
L 199.393605 248.268634 
L 199.508922 248.268634 
L 199.508922 247.536752 
L 199.767026 247.536752 
L 199.767026 246.804871 
L 200.087388 246.804871 
L 200.157188 245.341109 
L 200.436149 245.341109 
L 200.436149 244.609228 
L 200.678475 244.609228 
L 200.678475 243.877347 
L 201.173995 243.877347 
L 201.173995 243.145465 
L 201.30801 243.145465 
L 201.407024 240.949822 
L 201.553029 240.949822 
L 201.600331 239.486059 
L 202.09916 239.486059 
L 202.09916 238.754178 
L 202.244703 238.754178 
L 202.244703 238.022297 
L 202.640512 238.022297 
L 202.691675 236.558535 
L 202.958565 236.558535 
L 202.958565 235.826653 
L 203.605144 235.826653 
L 203.713844 233.63101 
L 203.864481 233.63101 
L 203.974542 232.167248 
L 203.978468 232.167248 
L 204.06063 230.703485 
L 204.347458 230.703485 
L 204.347458 229.971604 
L 204.542044 229.971604 
L 204.542044 229.239723 
L 205.226887 229.239723 
L 205.226887 228.507842 
L 205.388064 228.507842 
L 205.488172 226.312198 
L 205.758729 226.312198 
L 205.824821 224.848436 
L 205.882269 224.848436 
L 205.882269 224.116554 
L 206.106869 224.116554 
L 206.168774 222.652792 
L 206.313911 222.652792 
L 206.377874 221.18903 
L 206.596165 221.18903 
L 206.596165 220.457149 
L 206.858676 220.457149 
L 206.9608 218.993386 
L 207.462435 218.993386 
L 207.55617 206.551406 
L 207.64644 206.551406 
L 207.733813 205.087644 
L 207.905567 205.087644 
L 207.905567 204.355762 
L 208.088437 204.355762 
L 208.088437 203.623881 
L 208.283179 203.623881 
L 208.283179 202.892 
L 208.44157 202.892 
L 208.477409 201.428238 
L 208.639921 201.428238 
L 208.639921 200.696356 
L 208.983154 200.696356 
L 208.983154 199.964475 
L 209.142041 199.964475 
L 209.142041 199.232594 
L 209.322111 199.232594 
L 209.322111 198.500713 
L 209.496917 198.500713 
L 209.602778 197.03695 
L 209.787055 197.03695 
L 209.860857 194.841307 
L 209.993898 194.841307 
L 210.09301 192.645663 
L 210.117915 192.645663 
L 210.117915 191.913782 
L 210.39228 191.913782 
L 210.39228 191.181901 
L 211.013156 191.181901 
L 211.013156 190.45002 
L 211.327777 190.45002 
L 211.370644 188.254376 
L 211.818833 188.254376 
L 211.818833 187.522495 
L 211.94107 187.522495 
L 211.94107 186.790614 
L 212.243521 186.790614 
L 212.243521 186.058733 
L 212.560593 186.058733 
L 212.560593 185.326851 
L 212.734112 185.326851 
L 212.781832 183.131208 
L 212.859583 183.131208 
L 212.941612 180.935564 
L 213.09209 180.935564 
L 213.09209 180.203683 
L 213.421416 180.203683 
L 213.421416 179.471802 
L 213.669306 179.471802 
L 213.760784 177.276158 
L 213.841017 177.276158 
L 213.854927 175.080515 
L 213.967876 175.080515 
L 214.07103 173.616752 
L 214.091504 173.616752 
L 214.163172 171.421109 
L 214.239975 171.421109 
L 214.239975 170.689228 
L 214.483868 170.689228 
L 214.483868 169.957347 
L 214.700571 169.957347 
L 214.700571 169.225465 
L 214.913998 169.225465 
L 214.919659 167.761703 
L 215.095258 167.761703 
L 215.178503 166.297941 
L 215.210822 166.297941 
L 215.210822 165.566059 
L 215.419769 165.566059 
L 215.419769 164.834178 
L 215.613207 164.834178 
L 215.640363 163.370416 
L 215.840594 163.370416 
L 215.86244 161.906653 
L 216.020524 161.906653 
L 216.11186 159.71101 
L 216.16975 159.71101 
L 216.243526 157.515366 
L 216.3116 157.515366 
L 216.387695 154.587842 
L 216.442781 154.587842 
L 216.442781 153.85596 
L 216.659129 153.85596 
L 216.740477 151.660317 
L 216.914592 151.660317 
L 216.958431 150.196554 
L 217.258553 150.196554 
L 217.368003 148.000911 
L 217.384577 148.000911 
L 217.384577 147.26903 
L 217.551149 147.26903 
L 217.636333 145.805267 
L 217.68212 145.805267 
L 217.751906 144.341505 
L 217.986592 144.341505 
L 217.986592 143.609624 
L 218.280874 143.609624 
L 218.280874 142.877743 
L 218.453344 142.877743 
L 218.55951 139.950218 
L 218.837057 139.950218 
L 218.925274 138.486455 
L 218.956665 138.486455 
L 219.053777 137.022693 
L 219.137045 137.022693 
L 219.241547 135.558931 
L 219.298024 135.558931 
L 219.328822 134.095168 
L 219.417513 134.095168 
L 219.425363 132.631406 
L 219.874271 132.631406 
L 219.93849 131.167644 
L 220.4437 131.167644 
L 220.4437 130.435762 
L 220.586427 130.435762 
L 220.586427 129.703881 
L 221.03083 129.703881 
L 221.03083 128.972 
L 221.263208 128.972 
L 221.361052 126.776356 
L 221.691136 126.776356 
L 221.691136 126.044475 
L 221.811706 126.044475 
L 221.811706 125.312594 
L 221.937075 125.312594 
L 221.937075 124.580713 
L 222.347814 124.580713 
L 222.376157 123.11695 
L 222.658693 123.11695 
L 222.658693 122.385069 
L 222.798228 122.385069 
L 222.887201 120.921307 
L 223.036769 120.921307 
L 223.036769 120.189426 
L 223.264914 120.189426 
L 223.264914 119.457545 
L 223.46392 119.457545 
L 223.510101 117.261901 
L 223.748977 117.261901 
L 223.748977 116.53002 
L 223.940721 116.53002 
L 223.940721 115.798139 
L 224.266917 115.798139 
L 224.266917 115.066257 
L 225.081591 115.066257 
L 225.081591 114.334376 
L 225.320643 114.334376 
L 225.320643 113.602495 
L 225.518205 113.602495 
L 225.518205 112.870614 
L 225.679568 112.870614 
L 225.738305 110.67497 
L 225.964618 110.67497 
L 225.964618 109.943089 
L 226.693198 109.943089 
L 226.693198 109.211208 
L 226.968307 109.211208 
L 226.968307 108.479327 
L 227.54434 108.479327 
L 227.563134 107.015564 
L 227.659788 107.015564 
L 227.659788 106.283683 
L 228.02939 106.283683 
L 228.02939 105.551802 
L 228.319004 105.551802 
L 228.403106 104.08804 
L 228.782429 104.08804 
L 228.782429 103.356158 
L 231.543656 103.356158 
L 231.543656 102.624277 
L 232.115958 102.624277 
L 232.115958 101.892396 
L 233.708942 101.892396 
L 233.708942 101.160515 
L 234.233572 101.160515 
L 234.233572 100.428634 
L 234.407687 100.428634 
L 234.418252 98.964871 
L 234.962383 98.964871 
L 234.962383 98.23299 
L 235.236228 98.23299 
L 235.236228 97.501109 
L 235.624898 97.501109 
L 235.624898 96.769228 
L 237.624968 96.769228 
L 237.718589 94.573584 
L 238.198472 94.573584 
L 238.198472 93.841703 
L 238.923379 93.841703 
L 238.928298 92.377941 
L 239.43662 92.377941 
L 239.43662 91.646059 
L 239.878364 91.646059 
L 239.878364 90.914178 
L 240.198056 90.914178 
L 240.198056 90.182297 
L 240.832539 90.182297 
L 240.832539 89.450416 
L 241.07884 89.450416 
L 241.093855 87.986653 
L 241.193059 87.986653 
L 241.193059 87.254772 
L 241.570898 87.254772 
L 241.570898 86.522891 
L 242.043609 86.522891 
L 242.043609 85.79101 
L 242.692466 85.79101 
L 242.692466 85.059129 
L 243.075283 85.059129 
L 243.075283 84.327248 
L 243.245064 84.327248 
L 243.245064 83.595366 
L 243.374583 83.595366 
L 243.374583 82.863485 
L 249.271498 82.863485 
L 249.271498 82.131604 
L 250.172163 82.131604 
L 250.172163 81.399723 
L 251.647226 81.399723 
L 251.647226 80.667842 
L 251.918937 80.667842 
L 251.918937 79.93596 
L 253.438674 79.93596 
L 253.438674 79.204079 
L 253.858589 79.204079 
L 253.858589 78.472198 
L 255.886248 78.472198 
L 255.886248 77.740317 
L 256.362497 77.740317 
L 256.362497 77.008436 
L 256.713766 77.008436 
L 256.713766 76.276554 
L 256.953739 76.276554 
L 256.953739 75.544673 
L 257.276158 75.544673 
L 257.276158 74.812792 
L 257.805486 74.812792 
L 257.805486 67.49398 
L 257.974446 67.49398 
L 257.974446 66.762099 
L 259.905624 66.762099 
L 259.905624 66.030218 
L 260.965482 66.030218 
L 260.965482 65.298337 
L 264.514279 65.298337 
L 264.514279 64.566455 
L 264.956028 64.566455 
L 264.956028 63.834574 
L 265.545816 63.834574 
L 265.545816 63.102693 
L 267.057628 63.102693 
L 267.057628 62.370812 
L 269.625354 62.370812 
L 269.625354 61.638931 
L 269.994595 61.638931 
L 269.994595 60.90705 
L 270.593199 60.90705 
L 270.593199 60.175168 
L 271.316494 60.175168 
L 271.316494 59.443287 
L 275.506685 59.443287 
L 275.506685 58.711406 
L 276.417901 58.711406 
L 276.417901 57.979525 
L 276.737497 57.979525 
L 276.737497 57.247644 
L 277.085436 57.247644 
L 277.085436 56.515762 
L 277.654778 56.515762 
L 277.654778 55.783881 
L 279.435262 55.783881 
L 279.435262 55.052 
L 281.241278 55.052 
L 281.241278 54.320119 
L 282.23173 54.320119 
L 282.285826 52.856356 
L 283.204921 52.856356 
L 283.204921 52.124475 
L 283.60466 52.124475 
L 283.60466 51.392594 
L 284.153039 51.392594 
L 284.153039 50.660713 
L 284.387098 50.660713 
L 284.387098 49.928832 
L 284.864431 49.928832 
L 284.864431 49.19695 
L 285.051599 49.19695 
L 285.051599 48.465069 
L 285.267932 48.465069 
L 285.267932 47.733188 
L 285.543468 47.733188 
L 285.543468 47.001307 
L 285.816855 47.001307 
L 285.816855 46.269426 
L 286.113942 46.269426 
L 286.113942 45.537545 
L 286.856972 45.537545 
L 286.856972 44.805663 
L 287.338543 44.805663 
L 287.338543 44.073782 
L 291.069468 44.073782 
L 291.069468 43.341901 
L 293.510999 43.341901 
L 293.510999 42.61002 
L 293.757558 42.61002 
L 293.757558 41.878139 
L 294.765269 41.878139 
L 294.765269 41.146257 
L 296.379349 41.146257 
L 296.379349 40.414376 
L 296.926647 40.414376 
L 296.926647 39.682495 
L 297.598046 39.682495 
L 297.629765 38.218733 
L 298.50149 38.218733 
L 298.503552 36.75497 
L 298.639111 36.75497 
L 298.639111 36.023089 
L 299.890694 36.023089 
L 299.900773 34.559327 
L 300.657393 34.559327 
L 300.657393 33.827446 
L 302.02078 33.827446 
L 302.02078 33.095564 
L 304.790603 33.095564 
L 304.859638 31.631802 
L 309.024528 31.631802 
L 309.024528 30.899921 
L 309.423385 30.899921 
L 309.423385 30.16804 
L 310.199099 30.16804 
L 310.199099 29.436158 
L 310.927101 29.436158 
L 310.941014 27.972396 
L 313.108551 27.972396 
L 313.108551 27.240515 
L 315.065792 27.240515 
L 315.065792 26.508634 
L 319.567744 26.508634 
L 319.567744 25.776752 
L 320.713398 25.776752 
L 320.713398 25.044871 
L 324.403114 25.044871 
L 324.403114 24.31299 
L 324.591535 24.31299 
L 324.591535 23.581109 
L 327.188611 23.581109 
L 327.188611 22.849228 
L 329.168491 22.849228 
L 329.168491 22.117347 
L 329.673797 22.117347 
L 329.69976 20.653584 
L 333.411577 20.653584 
L 333.411577 19.921703 
L 334.772181 19.921703 
L 334.772181 19.189822 
L 335.662981 19.189822 
L 335.662981 18.457941 
L 337.135348 18.457941 
L 337.135348 17.726059 
L 337.573971 17.726059 
L 337.573971 16.994178 
L 340.582976 16.994178 
L 340.582976 16.262297 
L 342.615817 16.262297 
L 342.615817 15.530416 
L 344.230225 15.530416 
L 344.230225 14.798535 
L 345.602096 14.798535 
L 345.602096 14.066653 
L 358.178631 14.066653 
L 358.178631 13.334772 
L 358.178631 13.334772 
L 367.82 13.334772 
L 367.82 13.334772 
" style="fill:none;stroke:#bf00bf;stroke-linecap:square;stroke-width:1.5;"/>
   </g>
   <g id="patch_3">
    <path d="M 10.7 276.812 
L 10.7 10.7 
" style="fill:none;stroke:#000000;stroke-linecap:square;stroke-linejoin:miter;stroke-width:0.8;"/>
   </g>
   <g id="patch_4">
    <path d="M 367.82 276.812 
L 367.82 10.7 
" style="fill:none;stroke:#000000;stroke-linecap:square;stroke-linejoin:miter;stroke-width:0.8;"/>
   </g>
   <g id="patch_5">
    <path d="M 10.7 276.812 
L 367.82 276.812 
" style="fill:none;stroke:#000000;stroke-linecap:square;stroke-linejoin:miter;stroke-width:0.8;"/>
   </g>
   <g id="patch_6">
    <path d="M 10.7 10.7 
L 367.82 10.7 
" style="fill:none;stroke:#000000;stroke-linecap:square;stroke-linejoin:miter;stroke-width:0.8;"/>
   </g>
   <g id="text_6">
    <!-- {f1-f24}, 5-D -->
    <defs>
     <path d="M 51.125 -9.28125 
L 51.125 -16.3125 
L 48.09375 -16.3125 
Q 35.9375 -16.3125 31.8125 -12.6875 
Q 27.6875 -9.078125 27.6875 1.703125 
L 27.6875 13.375 
Q 27.6875 20.75 25.046875 23.578125 
Q 22.40625 26.421875 15.484375 26.421875 
L 12.5 26.421875 
L 12.5 33.40625 
L 15.484375 33.40625 
Q 22.46875 33.40625 25.078125 36.203125 
Q 27.6875 39.015625 27.6875 46.296875 
L 27.6875 58.015625 
Q 27.6875 68.796875 31.8125 72.390625 
Q 35.9375 75.984375 48.09375 75.984375 
L 51.125 75.984375 
L 51.125 69 
L 47.796875 69 
Q 40.921875 69 38.8125 66.84375 
Q 36.71875 64.703125 36.71875 57.8125 
L 36.71875 45.703125 
Q 36.71875 38.03125 34.5 34.5625 
Q 32.28125 31.109375 26.90625 29.890625 
Q 32.328125 28.5625 34.515625 25.09375 
Q 36.71875 21.625 36.71875 14.015625 
L 36.71875 1.90625 
Q 36.71875 -4.984375 38.8125 -7.125 
Q 40.921875 -9.28125 47.796875 -9.28125 
z
" id="DejaVuSans-7b"/>
     <path d="M 19.1875 8.296875 
L 53.609375 8.296875 
L 53.609375 0 
L 7.328125 0 
L 7.328125 8.296875 
Q 12.9375 14.109375 22.625 23.890625 
Q 32.328125 33.6875 34.8125 36.53125 
Q 39.546875 41.84375 41.421875 45.53125 
Q 43.3125 49.21875 43.3125 52.78125 
Q 43.3125 58.59375 39.234375 62.25 
Q 35.15625 65.921875 28.609375 65.921875 
Q 23.96875 65.921875 18.8125 64.3125 
Q 13.671875 62.703125 7.8125 59.421875 
L 7.8125 69.390625 
Q 13.765625 71.78125 18.9375 73 
Q 24.125 74.21875 28.421875 74.21875 
Q 39.75 74.21875 46.484375 68.546875 
Q 53.21875 62.890625 53.21875 53.421875 
Q 53.21875 48.921875 51.53125 44.890625 
Q 49.859375 40.875 45.40625 35.40625 
Q 44.1875 33.984375 37.640625 27.21875 
Q 31.109375 20.453125 19.1875 8.296875 
" id="DejaVuSans-32"/>
     <path d="M 12.5 -9.28125 
L 15.921875 -9.28125 
Q 22.75 -9.28125 24.828125 -7.171875 
Q 26.90625 -5.078125 26.90625 1.90625 
L 26.90625 14.015625 
Q 26.90625 21.625 29.09375 25.09375 
Q 31.296875 28.5625 36.71875 29.890625 
Q 31.296875 31.109375 29.09375 34.5625 
Q 26.90625 38.03125 26.90625 45.703125 
L 26.90625 57.8125 
Q 26.90625 64.75 24.828125 66.875 
Q 22.75 69 15.921875 69 
L 12.5 69 
L 12.5 75.984375 
L 15.578125 75.984375 
Q 27.734375 75.984375 31.8125 72.390625 
Q 35.890625 68.796875 35.890625 58.015625 
L 35.890625 46.296875 
Q 35.890625 39.015625 38.515625 36.203125 
Q 41.15625 33.40625 48.09375 33.40625 
L 51.125 33.40625 
L 51.125 26.421875 
L 48.09375 26.421875 
Q 41.15625 26.421875 38.515625 23.578125 
Q 35.890625 20.75 35.890625 13.375 
L 35.890625 1.703125 
Q 35.890625 -9.078125 31.8125 -12.6875 
Q 27.734375 -16.3125 15.578125 -16.3125 
L 12.5 -16.3125 
z
" id="DejaVuSans-7d"/>
     <path d="M 11.71875 12.40625 
L 22.015625 12.40625 
L 22.015625 4 
L 14.015625 -11.625 
L 7.71875 -11.625 
L 11.71875 4 
z
" id="DejaVuSans-2c"/>
     <path d="M 10.796875 72.90625 
L 49.515625 72.90625 
L 49.515625 64.59375 
L 19.828125 64.59375 
L 19.828125 46.734375 
Q 21.96875 47.46875 24.109375 47.828125 
Q 26.265625 48.1875 28.421875 48.1875 
Q 40.625 48.1875 47.75 41.5 
Q 54.890625 34.8125 54.890625 23.390625 
Q 54.890625 11.625 47.5625 5.09375 
Q 40.234375 -1.421875 26.90625 -1.421875 
Q 22.3125 -1.421875 17.546875 -0.640625 
Q 12.796875 0.140625 7.71875 1.703125 
L 7.71875 11.625 
Q 12.109375 9.234375 16.796875 8.0625 
Q 21.484375 6.890625 26.703125 6.890625 
Q 35.15625 6.890625 40.078125 11.328125 
Q 45.015625 15.765625 45.015625 23.390625 
Q 45.015625 31 40.078125 35.4375 
Q 35.15625 39.890625 26.703125 39.890625 
Q 22.75 39.890625 18.8125 39.015625 
Q 14.890625 38.140625 10.796875 36.28125 
z
" id="DejaVuSans-35"/>
    </defs>
    <g transform="translate(227.7026 271.48976)scale(0.2 -0.2)">
     <use xlink:href="#DejaVuSans-7b"/>
     <use x="63.623047" xlink:href="#DejaVuSans-66"/>
     <use x="98.828125" xlink:href="#DejaVuSans-31"/>
     <use x="162.451172" xlink:href="#DejaVuSans-2d"/>
     <use x="198.535156" xlink:href="#DejaVuSans-66"/>
     <use x="233.740234" xlink:href="#DejaVuSans-32"/>
     <use x="297.363281" xlink:href="#DejaVuSans-34"/>
     <use x="360.986328" xlink:href="#DejaVuSans-7d"/>
     <use x="424.609375" xlink:href="#DejaVuSans-2c"/>
     <use x="456.396484" xlink:href="#DejaVuSans-20"/>
     <use x="488.183594" xlink:href="#DejaVuSans-35"/>
     <use x="551.806641" xlink:href="#DejaVuSans-2d"/>
     <use x="587.890625" xlink:href="#DejaVuSans-44"/>
    </g>
   </g>
   <g id="text_7">
    <!-- v2.1 -->
    <defs>
     <path d="M 2.984375 54.6875 
L 12.5 54.6875 
L 29.59375 8.796875 
L 46.6875 54.6875 
L 56.203125 54.6875 
L 35.6875 0 
L 23.484375 0 
z
" id="DejaVuSans-76"/>
     <path d="M 10.6875 12.40625 
L 21 12.40625 
L 21 0 
L 10.6875 0 
z
" id="DejaVuSans-2e"/>
    </defs>
    <g style="fill:#808080;" transform="translate(178.349063 272.071193)scale(0.1 -0.1)">
     <use xlink:href="#DejaVuSans-76"/>
     <use x="59.179688" xlink:href="#DejaVuSans-32"/>
     <use x="122.802734" xlink:href="#DejaVuSans-2e"/>
     <use x="154.589844" xlink:href="#DejaVuSans-31"/>
    </g>
   </g>
  </g>
 </g>
 <defs>
  <clipPath id="p8820a44378">
   <rect height="266.112" width="357.12" x="10.7" y="10.7"/>
  </clipPath>
 </defs>
</svg>
