<?xml version="1.0" encoding="utf-8" standalone="no"?>
<!DOCTYPE svg PUBLIC "-//W3C//DTD SVG 1.1//EN"
  "http://www.w3.org/Graphics/SVG/1.1/DTD/svg11.dtd">
<!-- Created with matplotlib (http://matplotlib.org/) -->
<svg height="333pt" version="1.1" viewBox="0 0 378 333" width="378pt" xmlns="http://www.w3.org/2000/svg" xmlns:xlink="http://www.w3.org/1999/xlink">
 <defs>
  <style type="text/css">
*{stroke-linecap:butt;stroke-linejoin:round;}
  </style>
 </defs>
 <g id="figure_1">
  <g id="patch_1">
   <path d="M 0 333.7245 
L 378.52 333.7245 
L 378.52 0 
L 0 0 
z
" style="fill:#ffffff;"/>
  </g>
  <g id="axes_1">
   <g id="patch_2">
    <path d="M 10.7 276.812 
L 367.82 276.812 
L 367.82 10.7 
L 10.7 10.7 
z
" style="fill:#ffffff;"/>
   </g>
   <g id="matplotlib.axis_1">
    <g id="xtick_1">
     <g id="line2d_1">
      <path clip-path="url(#peb78f33961)" d="M 10.609618 276.812 
L 10.609618 10.7 
" style="fill:none;stroke:#b0b0b0;stroke-linecap:square;stroke-width:0.8;"/>
     </g>
     <g id="line2d_2">
      <defs>
       <path d="M 0 0 
L 0 3.5 
" id="mbc2c8f2878" style="stroke:#000000;stroke-width:0.8;"/>
      </defs>
      <g>
       <use style="stroke:#000000;stroke-width:0.8;" x="10.609618" xlink:href="#mbc2c8f2878" y="276.812"/>
      </g>
     </g>
    </g>
    <g id="xtick_2">
     <g id="line2d_3">
      <path clip-path="url(#peb78f33961)" d="M 94.269693 276.812 
L 94.269693 10.7 
" style="fill:none;stroke:#b0b0b0;stroke-linecap:square;stroke-width:0.8;"/>
     </g>
     <g id="line2d_4">
      <g>
       <use style="stroke:#000000;stroke-width:0.8;" x="94.269693" xlink:href="#mbc2c8f2878" y="276.812"/>
      </g>
     </g>
     <g id="text_1">
      <!-- -4 -->
      <defs>
       <path d="M 4.890625 31.390625 
L 31.203125 31.390625 
L 31.203125 23.390625 
L 4.890625 23.390625 
z
" id="DejaVuSans-2d"/>
       <path d="M 37.796875 64.3125 
L 12.890625 25.390625 
L 37.796875 25.390625 
z
M 35.203125 72.90625 
L 47.609375 72.90625 
L 47.609375 25.390625 
L 58.015625 25.390625 
L 58.015625 17.1875 
L 47.609375 17.1875 
L 47.609375 0 
L 37.796875 0 
L 37.796875 17.1875 
L 4.890625 17.1875 
L 4.890625 26.703125 
z
" id="DejaVuSans-34"/>
      </defs>
      <g transform="translate(84.299381 299.008875)scale(0.2 -0.2)">
       <use xlink:href="#DejaVuSans-2d"/>
       <use x="36.083984" xlink:href="#DejaVuSans-34"/>
      </g>
     </g>
    </g>
    <g id="xtick_3">
     <g id="line2d_5">
      <path clip-path="url(#peb78f33961)" d="M 177.929768 276.812 
L 177.929768 10.7 
" style="fill:none;stroke:#b0b0b0;stroke-linecap:square;stroke-width:0.8;"/>
     </g>
     <g id="line2d_6">
      <g>
       <use style="stroke:#000000;stroke-width:0.8;" x="177.929768" xlink:href="#mbc2c8f2878" y="276.812"/>
      </g>
     </g>
     <g id="text_2">
      <!-- 0 -->
      <defs>
       <path d="M 31.78125 66.40625 
Q 24.171875 66.40625 20.328125 58.90625 
Q 16.5 51.421875 16.5 36.375 
Q 16.5 21.390625 20.328125 13.890625 
Q 24.171875 6.390625 31.78125 6.390625 
Q 39.453125 6.390625 43.28125 13.890625 
Q 47.125 21.390625 47.125 36.375 
Q 47.125 51.421875 43.28125 58.90625 
Q 39.453125 66.40625 31.78125 66.40625 
M 31.78125 74.21875 
Q 44.046875 74.21875 50.515625 64.515625 
Q 56.984375 54.828125 56.984375 36.375 
Q 56.984375 17.96875 50.515625 8.265625 
Q 44.046875 -1.421875 31.78125 -1.421875 
Q 19.53125 -1.421875 13.0625 8.265625 
Q 6.59375 17.96875 6.59375 36.375 
Q 6.59375 54.828125 13.0625 64.515625 
Q 19.53125 74.21875 31.78125 74.21875 
" id="DejaVuSans-30"/>
      </defs>
      <g transform="translate(171.567268 299.008875)scale(0.2 -0.2)">
       <use xlink:href="#DejaVuSans-30"/>
      </g>
     </g>
    </g>
    <g id="xtick_4">
     <g id="line2d_7">
      <path clip-path="url(#peb78f33961)" d="M 261.589843 276.812 
L 261.589843 10.7 
" style="fill:none;stroke:#b0b0b0;stroke-linecap:square;stroke-width:0.8;"/>
     </g>
     <g id="line2d_8">
      <g>
       <use style="stroke:#000000;stroke-width:0.8;" x="261.589843" xlink:href="#mbc2c8f2878" y="276.812"/>
      </g>
     </g>
     <g id="text_3">
      <!-- 4 -->
      <g transform="translate(255.227343 299.008875)scale(0.2 -0.2)">
       <use xlink:href="#DejaVuSans-34"/>
      </g>
     </g>
    </g>
    <g id="xtick_5">
     <g id="line2d_9">
      <path clip-path="url(#peb78f33961)" d="M 345.249918 276.812 
L 345.249918 10.7 
" style="fill:none;stroke:#b0b0b0;stroke-linecap:square;stroke-width:0.8;"/>
     </g>
     <g id="line2d_10">
      <g>
       <use style="stroke:#000000;stroke-width:0.8;" x="345.249918" xlink:href="#mbc2c8f2878" y="276.812"/>
      </g>
     </g>
     <g id="text_4">
      <!-- 8 -->
      <defs>
       <path d="M 31.78125 34.625 
Q 24.75 34.625 20.71875 30.859375 
Q 16.703125 27.09375 16.703125 20.515625 
Q 16.703125 13.921875 20.71875 10.15625 
Q 24.75 6.390625 31.78125 6.390625 
Q 38.8125 6.390625 42.859375 10.171875 
Q 46.921875 13.96875 46.921875 20.515625 
Q 46.921875 27.09375 42.890625 30.859375 
Q 38.875 34.625 31.78125 34.625 
M 21.921875 38.8125 
Q 15.578125 40.375 12.03125 44.71875 
Q 8.5 49.078125 8.5 55.328125 
Q 8.5 64.0625 14.71875 69.140625 
Q 20.953125 74.21875 31.78125 74.21875 
Q 42.671875 74.21875 48.875 69.140625 
Q 55.078125 64.0625 55.078125 55.328125 
Q 55.078125 49.078125 51.53125 44.71875 
Q 48 40.375 41.703125 38.8125 
Q 48.828125 37.15625 52.796875 32.3125 
Q 56.78125 27.484375 56.78125 20.515625 
Q 56.78125 9.90625 50.3125 4.234375 
Q 43.84375 -1.421875 31.78125 -1.421875 
Q 19.734375 -1.421875 13.25 4.234375 
Q 6.78125 9.90625 6.78125 20.515625 
Q 6.78125 27.484375 10.78125 32.3125 
Q 14.796875 37.15625 21.921875 38.8125 
M 18.3125 54.390625 
Q 18.3125 48.734375 21.84375 45.5625 
Q 25.390625 42.390625 31.78125 42.390625 
Q 38.140625 42.390625 41.71875 45.5625 
Q 45.3125 48.734375 45.3125 54.390625 
Q 45.3125 60.0625 41.71875 63.234375 
Q 38.140625 66.40625 31.78125 66.40625 
Q 25.390625 66.40625 21.84375 63.234375 
Q 18.3125 60.0625 18.3125 54.390625 
" id="DejaVuSans-38"/>
      </defs>
      <g transform="translate(338.887418 299.008875)scale(0.2 -0.2)">
       <use xlink:href="#DejaVuSans-38"/>
      </g>
     </g>
    </g>
    <g id="text_5">
     <!-- log10 of Df -->
     <defs>
      <path d="M 9.421875 75.984375 
L 18.40625 75.984375 
L 18.40625 0 
L 9.421875 0 
z
" id="DejaVuSans-6c"/>
      <path d="M 30.609375 48.390625 
Q 23.390625 48.390625 19.1875 42.75 
Q 14.984375 37.109375 14.984375 27.296875 
Q 14.984375 17.484375 19.15625 11.84375 
Q 23.34375 6.203125 30.609375 6.203125 
Q 37.796875 6.203125 41.984375 11.859375 
Q 46.1875 17.53125 46.1875 27.296875 
Q 46.1875 37.015625 41.984375 42.703125 
Q 37.796875 48.390625 30.609375 48.390625 
M 30.609375 56 
Q 42.328125 56 49.015625 48.375 
Q 55.71875 40.765625 55.71875 27.296875 
Q 55.71875 13.875 49.015625 6.21875 
Q 42.328125 -1.421875 30.609375 -1.421875 
Q 18.84375 -1.421875 12.171875 6.21875 
Q 5.515625 13.875 5.515625 27.296875 
Q 5.515625 40.765625 12.171875 48.375 
Q 18.84375 56 30.609375 56 
" id="DejaVuSans-6f"/>
      <path d="M 45.40625 27.984375 
Q 45.40625 37.75 41.375 43.109375 
Q 37.359375 48.484375 30.078125 48.484375 
Q 22.859375 48.484375 18.828125 43.109375 
Q 14.796875 37.75 14.796875 27.984375 
Q 14.796875 18.265625 18.828125 12.890625 
Q 22.859375 7.515625 30.078125 7.515625 
Q 37.359375 7.515625 41.375 12.890625 
Q 45.40625 18.265625 45.40625 27.984375 
M 54.390625 6.78125 
Q 54.390625 -7.171875 48.1875 -13.984375 
Q 42 -20.796875 29.203125 -20.796875 
Q 24.46875 -20.796875 20.265625 -20.09375 
Q 16.0625 -19.390625 12.109375 -17.921875 
L 12.109375 -9.1875 
Q 16.0625 -11.328125 19.921875 -12.34375 
Q 23.78125 -13.375 27.78125 -13.375 
Q 36.625 -13.375 41.015625 -8.765625 
Q 45.40625 -4.15625 45.40625 5.171875 
L 45.40625 9.625 
Q 42.625 4.78125 38.28125 2.390625 
Q 33.9375 0 27.875 0 
Q 17.828125 0 11.671875 7.65625 
Q 5.515625 15.328125 5.515625 27.984375 
Q 5.515625 40.671875 11.671875 48.328125 
Q 17.828125 56 27.875 56 
Q 33.9375 56 38.28125 53.609375 
Q 42.625 51.21875 45.40625 46.390625 
L 45.40625 54.6875 
L 54.390625 54.6875 
z
" id="DejaVuSans-67"/>
      <path d="M 12.40625 8.296875 
L 28.515625 8.296875 
L 28.515625 63.921875 
L 10.984375 60.40625 
L 10.984375 69.390625 
L 28.421875 72.90625 
L 38.28125 72.90625 
L 38.28125 8.296875 
L 54.390625 8.296875 
L 54.390625 0 
L 12.40625 0 
z
" id="DejaVuSans-31"/>
      <path id="DejaVuSans-20"/>
      <path d="M 37.109375 75.984375 
L 37.109375 68.5 
L 28.515625 68.5 
Q 23.6875 68.5 21.796875 66.546875 
Q 19.921875 64.59375 19.921875 59.515625 
L 19.921875 54.6875 
L 34.71875 54.6875 
L 34.71875 47.703125 
L 19.921875 47.703125 
L 19.921875 0 
L 10.890625 0 
L 10.890625 47.703125 
L 2.296875 47.703125 
L 2.296875 54.6875 
L 10.890625 54.6875 
L 10.890625 58.5 
Q 10.890625 67.625 15.140625 71.796875 
Q 19.390625 75.984375 28.609375 75.984375 
z
" id="DejaVuSans-66"/>
      <path d="M 19.671875 64.796875 
L 19.671875 8.109375 
L 31.59375 8.109375 
Q 46.6875 8.109375 53.6875 14.9375 
Q 60.6875 21.78125 60.6875 36.53125 
Q 60.6875 51.171875 53.6875 57.984375 
Q 46.6875 64.796875 31.59375 64.796875 
z
M 9.8125 72.90625 
L 30.078125 72.90625 
Q 51.265625 72.90625 61.171875 64.09375 
Q 71.09375 55.28125 71.09375 36.53125 
Q 71.09375 17.671875 61.125 8.828125 
Q 51.171875 0 30.078125 0 
L 9.8125 0 
z
" id="DejaVuSans-44"/>
     </defs>
     <g transform="translate(134.074063 322.365125)scale(0.2 -0.2)">
      <use xlink:href="#DejaVuSans-6c"/>
      <use x="27.783203" xlink:href="#DejaVuSans-6f"/>
      <use x="88.964844" xlink:href="#DejaVuSans-67"/>
      <use x="152.441406" xlink:href="#DejaVuSans-31"/>
      <use x="216.064453" xlink:href="#DejaVuSans-30"/>
      <use x="279.6875" xlink:href="#DejaVuSans-20"/>
      <use x="311.474609" xlink:href="#DejaVuSans-6f"/>
      <use x="372.65625" xlink:href="#DejaVuSans-66"/>
      <use x="407.861328" xlink:href="#DejaVuSans-20"/>
      <use x="439.648438" xlink:href="#DejaVuSans-44"/>
      <use x="516.650391" xlink:href="#DejaVuSans-66"/>
     </g>
    </g>
   </g>
   <g id="matplotlib.axis_2">
    <g id="ytick_1">
     <g id="line2d_11">
      <path clip-path="url(#peb78f33961)" d="M 10.7 276.812 
L 367.82 276.812 
" style="fill:none;stroke:#b0b0b0;stroke-linecap:square;stroke-width:0.8;"/>
     </g>
     <g id="line2d_12">
      <defs>
       <path d="M 0 0 
L -3.5 0 
" id="m96a78b42c5" style="stroke:#000000;stroke-width:0.8;"/>
      </defs>
      <g>
       <use style="stroke:#000000;stroke-width:0.8;" x="10.7" xlink:href="#m96a78b42c5" y="276.812"/>
      </g>
     </g>
    </g>
    <g id="ytick_2">
     <g id="line2d_13">
      <path clip-path="url(#peb78f33961)" d="M 10.7 224.116554 
L 367.82 224.116554 
" style="fill:none;stroke:#b0b0b0;stroke-linecap:square;stroke-width:0.8;"/>
     </g>
     <g id="line2d_14">
      <g>
       <use style="stroke:#000000;stroke-width:0.8;" x="10.7" xlink:href="#m96a78b42c5" y="224.116554"/>
      </g>
     </g>
    </g>
    <g id="ytick_3">
     <g id="line2d_15">
      <path clip-path="url(#peb78f33961)" d="M 10.7 171.421109 
L 367.82 171.421109 
" style="fill:none;stroke:#b0b0b0;stroke-linecap:square;stroke-width:0.8;"/>
     </g>
     <g id="line2d_16">
      <g>
       <use style="stroke:#000000;stroke-width:0.8;" x="10.7" xlink:href="#m96a78b42c5" y="171.421109"/>
      </g>
     </g>
    </g>
    <g id="ytick_4">
     <g id="line2d_17">
      <path clip-path="url(#peb78f33961)" d="M 10.7 118.725663 
L 367.82 118.725663 
" style="fill:none;stroke:#b0b0b0;stroke-linecap:square;stroke-width:0.8;"/>
     </g>
     <g id="line2d_18">
      <g>
       <use style="stroke:#000000;stroke-width:0.8;" x="10.7" xlink:href="#m96a78b42c5" y="118.725663"/>
      </g>
     </g>
    </g>
    <g id="ytick_5">
     <g id="line2d_19">
      <path clip-path="url(#peb78f33961)" d="M 10.7 66.030218 
L 367.82 66.030218 
" style="fill:none;stroke:#b0b0b0;stroke-linecap:square;stroke-width:0.8;"/>
     </g>
     <g id="line2d_20">
      <g>
       <use style="stroke:#000000;stroke-width:0.8;" x="10.7" xlink:href="#m96a78b42c5" y="66.030218"/>
      </g>
     </g>
    </g>
    <g id="ytick_6">
     <g id="line2d_21">
      <path clip-path="url(#peb78f33961)" d="M 10.7 13.334772 
L 367.82 13.334772 
" style="fill:none;stroke:#b0b0b0;stroke-linecap:square;stroke-width:0.8;"/>
     </g>
     <g id="line2d_22">
      <g>
       <use style="stroke:#000000;stroke-width:0.8;" x="10.7" xlink:href="#m96a78b42c5" y="13.334772"/>
      </g>
     </g>
    </g>
   </g>
   <g id="line2d_23">
    <path clip-path="url(#peb78f33961)" d="M 201.30801 276.812 
L 201.30801 272.420713 
L 205.850347 272.420713 
L 205.850347 268.029426 
L 207.523962 268.029426 
L 207.523962 263.638139 
L 207.523962 263.638139 
L 207.523962 259.246851 
L 207.523962 259.246851 
L 207.523962 254.855564 
L 207.523962 254.855564 
L 207.523962 250.464277 
L 207.523962 250.464277 
L 207.523962 246.07299 
L 207.523962 246.07299 
L 207.523962 241.681703 
L 207.523962 241.681703 
L 207.523962 237.290416 
L 207.523962 237.290416 
L 207.523962 232.899129 
L 207.523962 232.899129 
L 207.523962 228.507842 
L 207.523962 228.507842 
L 207.523962 224.116554 
L 207.523962 224.116554 
L 207.523962 219.725267 
L 207.523962 219.725267 
L 207.523962 215.33398 
L 207.523962 215.33398 
L 207.523962 210.942693 
L 207.523962 210.942693 
L 207.523962 206.551406 
L 207.523962 206.551406 
L 207.523962 202.160119 
L 209.602778 202.160119 
L 209.602778 197.768832 
L 213.854927 197.768832 
L 213.854927 193.377545 
L 214.483868 193.377545 
L 214.483868 188.986257 
L 216.333494 188.986257 
L 216.333494 184.59497 
L 217.636333 184.59497 
L 217.636333 180.203683 
L 217.986592 180.203683 
L 217.986592 175.812396 
L 218.792399 175.812396 
L 218.792399 171.421109 
L 221.18068 171.421109 
L 221.18068 167.029822 
L 221.263208 167.029822 
L 221.263208 162.638535 
L 221.390563 162.638535 
L 221.390563 158.247248 
L 221.430829 158.247248 
L 221.430829 153.85596 
L 222.148649 153.85596 
L 222.148649 149.464673 
L 222.289759 149.464673 
L 222.289759 145.073386 
L 223.264914 145.073386 
L 223.264914 140.682099 
L 223.940721 140.682099 
L 223.940721 136.290812 
L 227.659788 136.290812 
L 227.659788 131.899525 
L 232.159821 131.899525 
L 232.159821 127.508238 
L 237.518851 127.508238 
L 237.518851 123.11695 
L 240.198056 123.11695 
L 240.198056 118.725663 
L 243.075283 118.725663 
L 243.075283 114.334376 
L 243.245064 114.334376 
L 243.245064 109.943089 
L 249.271498 109.943089 
L 249.271498 105.551802 
L 250.172163 105.551802 
L 250.172163 101.160515 
L 252.95621 101.160515 
L 252.95621 96.769228 
L 253.438674 96.769228 
L 253.438674 92.377941 
L 253.858589 92.377941 
L 253.858589 87.986653 
L 256.376262 87.986653 
L 256.376262 83.595366 
L 256.713766 83.595366 
L 256.713766 79.204079 
L 256.953739 79.204079 
L 256.953739 74.812792 
L 258.246065 74.812792 
L 258.246065 70.421505 
L 259.905624 70.421505 
L 259.905624 66.030218 
L 262.999733 66.030218 
L 262.999733 61.638931 
L 264.956028 61.638931 
L 264.956028 57.247644 
L 267.057628 57.247644 
L 267.057628 52.856356 
L 268.261963 52.856356 
L 268.261963 48.465069 
L 277.085436 48.465069 
L 277.085436 44.073782 
L 277.638199 44.073782 
L 277.638199 39.682495 
L 278.344183 39.682495 
L 278.344183 35.291208 
L 278.383999 35.291208 
L 278.383999 30.899921 
L 279.435262 30.899921 
L 279.435262 26.508634 
L 284.387098 26.508634 
L 284.387098 22.117347 
L 285.051599 22.117347 
L 285.051599 17.726059 
L 294.765269 17.726059 
L 294.765269 13.334772 
L 294.765269 13.334772 
L 294.765269 13.334772 
L 367.82 13.334772 
" style="fill:none;stroke:#ff0000;stroke-linecap:square;stroke-width:3;"/>
   </g>
   <g id="line2d_24">
    <path clip-path="url(#peb78f33961)" d="M 201.30801 276.812 
L 201.30801 272.420713 
L 207.523962 272.420713 
L 207.523962 268.029426 
L 207.523962 268.029426 
L 207.523962 263.638139 
L 207.523962 263.638139 
L 207.523962 259.246851 
L 207.523962 259.246851 
L 207.523962 254.855564 
L 207.523962 254.855564 
L 207.523962 250.464277 
L 207.523962 250.464277 
L 207.523962 246.07299 
L 207.523962 246.07299 
L 207.523962 241.681703 
L 207.523962 241.681703 
L 207.523962 237.290416 
L 207.523962 237.290416 
L 207.523962 232.899129 
L 207.523962 232.899129 
L 207.523962 228.507842 
L 207.523962 228.507842 
L 207.523962 224.116554 
L 207.523962 224.116554 
L 207.523962 219.725267 
L 207.523962 219.725267 
L 207.523962 215.33398 
L 207.523962 215.33398 
L 207.523962 210.942693 
L 207.523962 210.942693 
L 207.523962 206.551406 
L 209.602778 206.551406 
L 209.602778 202.160119 
L 214.483868 202.160119 
L 214.483868 197.768832 
L 218.238905 197.768832 
L 218.238905 193.377545 
L 218.537466 193.377545 
L 218.537466 188.986257 
L 223.264914 188.986257 
L 223.264914 184.59497 
L 223.748977 184.59497 
L 223.748977 180.203683 
L 227.659788 180.203683 
L 227.659788 175.812396 
L 230.572742 175.812396 
L 230.572742 171.421109 
L 231.543656 171.421109 
L 231.543656 167.029822 
L 233.708942 167.029822 
L 233.708942 162.638535 
L 233.849953 162.638535 
L 233.849953 158.247248 
L 239.25896 158.247248 
L 239.25896 153.85596 
L 239.917286 153.85596 
L 239.917286 149.464673 
L 240.198056 149.464673 
L 240.198056 145.073386 
L 243.245064 145.073386 
L 243.245064 140.682099 
L 247.424571 140.682099 
L 247.424571 136.290812 
L 251.918937 136.290812 
L 251.918937 131.899525 
L 252.700639 131.899525 
L 252.700639 127.508238 
L 256.713766 127.508238 
L 256.713766 123.11695 
L 257.276158 123.11695 
L 257.276158 118.725663 
L 257.532107 118.725663 
L 257.532107 114.334376 
L 257.974446 114.334376 
L 257.974446 109.943089 
L 258.246494 109.943089 
L 258.246494 105.551802 
L 259.180363 105.551802 
L 259.180363 101.160515 
L 259.905624 101.160515 
L 259.905624 96.769228 
L 260.965482 96.769228 
L 260.965482 92.377941 
L 262.835452 92.377941 
L 262.835452 87.986653 
L 264.956028 87.986653 
L 264.956028 83.595366 
L 265.545816 83.595366 
L 265.545816 79.204079 
L 267.057628 79.204079 
L 267.057628 74.812792 
L 267.434981 74.812792 
L 267.434981 70.421505 
L 269.625354 70.421505 
L 269.625354 66.030218 
L 270.010262 66.030218 
L 270.010262 61.638931 
L 277.085436 61.638931 
L 277.085436 57.247644 
L 277.822989 57.247644 
L 277.822989 52.856356 
L 278.126395 52.856356 
L 278.126395 48.465069 
L 279.435262 48.465069 
L 279.435262 44.073782 
L 283.106506 44.073782 
L 283.106506 39.682495 
L 285.051599 39.682495 
L 285.051599 35.291208 
L 286.856972 35.291208 
L 286.856972 30.899921 
L 287.319068 30.899921 
L 287.319068 26.508634 
L 291.162143 26.508634 
L 291.162143 22.117347 
L 293.878029 22.117347 
L 293.878029 17.726059 
L 295.863841 17.726059 
L 295.863841 13.334772 
L 295.863841 13.334772 
L 295.863841 13.334772 
L 367.82 13.334772 
" style="fill:none;stroke:#00bfbf;stroke-linecap:square;stroke-width:1.5;"/>
   </g>
   <g id="line2d_25">
    <path clip-path="url(#peb78f33961)" d="M 201.30801 276.812 
L 201.30801 272.420713 
L 207.523962 272.420713 
L 207.523962 268.029426 
L 207.523962 268.029426 
L 207.523962 263.638139 
L 207.523962 263.638139 
L 207.523962 259.246851 
L 207.523962 259.246851 
L 207.523962 254.855564 
L 207.523962 254.855564 
L 207.523962 250.464277 
L 207.523962 250.464277 
L 207.523962 246.07299 
L 207.523962 246.07299 
L 207.523962 241.681703 
L 207.523962 241.681703 
L 207.523962 237.290416 
L 207.523962 237.290416 
L 207.523962 232.899129 
L 207.523962 232.899129 
L 207.523962 228.507842 
L 207.523962 228.507842 
L 207.523962 224.116554 
L 207.523962 224.116554 
L 207.523962 219.725267 
L 207.523962 219.725267 
L 207.523962 215.33398 
L 207.523962 215.33398 
L 207.523962 210.942693 
L 207.523962 210.942693 
L 207.523962 206.551406 
L 209.602778 206.551406 
L 209.602778 202.160119 
L 213.854927 202.160119 
L 213.854927 197.768832 
L 214.483868 197.768832 
L 214.483868 193.377545 
L 217.636333 193.377545 
L 217.636333 188.986257 
L 217.986592 188.986257 
L 217.986592 184.59497 
L 218.537466 184.59497 
L 218.537466 180.203683 
L 221.263208 180.203683 
L 221.263208 175.812396 
L 223.264914 175.812396 
L 223.264914 171.421109 
L 223.748977 171.421109 
L 223.748977 167.029822 
L 223.940721 167.029822 
L 223.940721 162.638535 
L 227.659788 162.638535 
L 227.659788 158.247248 
L 228.02939 158.247248 
L 228.02939 153.85596 
L 231.543656 153.85596 
L 231.543656 149.464673 
L 233.708942 149.464673 
L 233.708942 145.073386 
L 234.407687 145.073386 
L 234.407687 140.682099 
L 237.665905 140.682099 
L 237.665905 136.290812 
L 240.198056 136.290812 
L 240.198056 131.899525 
L 243.075283 131.899525 
L 243.075283 127.508238 
L 243.245064 127.508238 
L 243.245064 123.11695 
L 249.271498 123.11695 
L 249.271498 118.725663 
L 250.172163 118.725663 
L 250.172163 114.334376 
L 251.918937 114.334376 
L 251.918937 109.943089 
L 253.438674 109.943089 
L 253.438674 105.551802 
L 253.858589 105.551802 
L 253.858589 101.160515 
L 256.713766 101.160515 
L 256.713766 96.769228 
L 256.953739 96.769228 
L 256.953739 92.377941 
L 257.276158 92.377941 
L 257.276158 87.986653 
L 257.974446 87.986653 
L 257.974446 83.595366 
L 259.905624 83.595366 
L 259.905624 79.204079 
L 260.965482 79.204079 
L 260.965482 74.812792 
L 264.956028 74.812792 
L 264.956028 70.421505 
L 265.545816 70.421505 
L 265.545816 66.030218 
L 267.057628 66.030218 
L 267.057628 61.638931 
L 269.625354 61.638931 
L 269.625354 57.247644 
L 276.417901 57.247644 
L 276.417901 52.856356 
L 276.737497 52.856356 
L 276.737497 48.465069 
L 277.085436 48.465069 
L 277.085436 44.073782 
L 279.435262 44.073782 
L 279.435262 39.682495 
L 282.23173 39.682495 
L 282.23173 35.291208 
L 284.153039 35.291208 
L 284.153039 30.899921 
L 284.387098 30.899921 
L 284.387098 26.508634 
L 285.051599 26.508634 
L 285.051599 22.117347 
L 286.856972 22.117347 
L 286.856972 17.726059 
L 294.765269 17.726059 
L 294.765269 13.334772 
L 294.765269 13.334772 
L 294.765269 13.334772 
L 367.82 13.334772 
" style="fill:none;stroke:#bf00bf;stroke-linecap:square;stroke-width:1.5;"/>
   </g>
   <g id="patch_3">
    <path d="M 10.7 276.812 
L 10.7 10.7 
" style="fill:none;stroke:#000000;stroke-linecap:square;stroke-linejoin:miter;stroke-width:0.8;"/>
   </g>
   <g id="patch_4">
    <path d="M 367.82 276.812 
L 367.82 10.7 
" style="fill:none;stroke:#000000;stroke-linecap:square;stroke-linejoin:miter;stroke-width:0.8;"/>
   </g>
   <g id="patch_5">
    <path d="M 10.7 276.812 
L 367.82 276.812 
" style="fill:none;stroke:#000000;stroke-linecap:square;stroke-linejoin:miter;stroke-width:0.8;"/>
   </g>
   <g id="patch_6">
    <path d="M 10.7 10.7 
L 367.82 10.7 
" style="fill:none;stroke:#000000;stroke-linecap:square;stroke-linejoin:miter;stroke-width:0.8;"/>
   </g>
   <g id="text_6">
    <!-- {f6-f9}, 5-D -->
    <defs>
     <path d="M 51.125 -9.28125 
L 51.125 -16.3125 
L 48.09375 -16.3125 
Q 35.9375 -16.3125 31.8125 -12.6875 
Q 27.6875 -9.078125 27.6875 1.703125 
L 27.6875 13.375 
Q 27.6875 20.75 25.046875 23.578125 
Q 22.40625 26.421875 15.484375 26.421875 
L 12.5 26.421875 
L 12.5 33.40625 
L 15.484375 33.40625 
Q 22.46875 33.40625 25.078125 36.203125 
Q 27.6875 39.015625 27.6875 46.296875 
L 27.6875 58.015625 
Q 27.6875 68.796875 31.8125 72.390625 
Q 35.9375 75.984375 48.09375 75.984375 
L 51.125 75.984375 
L 51.125 69 
L 47.796875 69 
Q 40.921875 69 38.8125 66.84375 
Q 36.71875 64.703125 36.71875 57.8125 
L 36.71875 45.703125 
Q 36.71875 38.03125 34.5 34.5625 
Q 32.28125 31.109375 26.90625 29.890625 
Q 32.328125 28.5625 34.515625 25.09375 
Q 36.71875 21.625 36.71875 14.015625 
L 36.71875 1.90625 
Q 36.71875 -4.984375 38.8125 -7.125 
Q 40.921875 -9.28125 47.796875 -9.28125 
z
" id="DejaVuSans-7b"/>
     <path d="M 33.015625 40.375 
Q 26.375 40.375 22.484375 35.828125 
Q 18.609375 31.296875 18.609375 23.390625 
Q 18.609375 15.53125 22.484375 10.953125 
Q 26.375 6.390625 33.015625 6.390625 
Q 39.65625 6.390625 43.53125 10.953125 
Q 47.40625 15.53125 47.40625 23.390625 
Q 47.40625 31.296875 43.53125 35.828125 
Q 39.65625 40.375 33.015625 40.375 
M 52.59375 71.296875 
L 52.59375 62.3125 
Q 48.875 64.0625 45.09375 64.984375 
Q 41.3125 65.921875 37.59375 65.921875 
Q 27.828125 65.921875 22.671875 59.328125 
Q 17.53125 52.734375 16.796875 39.40625 
Q 19.671875 43.65625 24.015625 45.921875 
Q 28.375 48.1875 33.59375 48.1875 
Q 44.578125 48.1875 50.953125 41.515625 
Q 57.328125 34.859375 57.328125 23.390625 
Q 57.328125 12.15625 50.6875 5.359375 
Q 44.046875 -1.421875 33.015625 -1.421875 
Q 20.359375 -1.421875 13.671875 8.265625 
Q 6.984375 17.96875 6.984375 36.375 
Q 6.984375 53.65625 15.1875 63.9375 
Q 23.390625 74.21875 37.203125 74.21875 
Q 40.921875 74.21875 44.703125 73.484375 
Q 48.484375 72.75 52.59375 71.296875 
" id="DejaVuSans-36"/>
     <path d="M 10.984375 1.515625 
L 10.984375 10.5 
Q 14.703125 8.734375 18.5 7.8125 
Q 22.3125 6.890625 25.984375 6.890625 
Q 35.75 6.890625 40.890625 13.453125 
Q 46.046875 20.015625 46.78125 33.40625 
Q 43.953125 29.203125 39.59375 26.953125 
Q 35.25 24.703125 29.984375 24.703125 
Q 19.046875 24.703125 12.671875 31.3125 
Q 6.296875 37.9375 6.296875 49.421875 
Q 6.296875 60.640625 12.9375 67.421875 
Q 19.578125 74.21875 30.609375 74.21875 
Q 43.265625 74.21875 49.921875 64.515625 
Q 56.59375 54.828125 56.59375 36.375 
Q 56.59375 19.140625 48.40625 8.859375 
Q 40.234375 -1.421875 26.421875 -1.421875 
Q 22.703125 -1.421875 18.890625 -0.6875 
Q 15.09375 0.046875 10.984375 1.515625 
M 30.609375 32.421875 
Q 37.25 32.421875 41.125 36.953125 
Q 45.015625 41.5 45.015625 49.421875 
Q 45.015625 57.28125 41.125 61.84375 
Q 37.25 66.40625 30.609375 66.40625 
Q 23.96875 66.40625 20.09375 61.84375 
Q 16.21875 57.28125 16.21875 49.421875 
Q 16.21875 41.5 20.09375 36.953125 
Q 23.96875 32.421875 30.609375 32.421875 
" id="DejaVuSans-39"/>
     <path d="M 12.5 -9.28125 
L 15.921875 -9.28125 
Q 22.75 -9.28125 24.828125 -7.171875 
Q 26.90625 -5.078125 26.90625 1.90625 
L 26.90625 14.015625 
Q 26.90625 21.625 29.09375 25.09375 
Q 31.296875 28.5625 36.71875 29.890625 
Q 31.296875 31.109375 29.09375 34.5625 
Q 26.90625 38.03125 26.90625 45.703125 
L 26.90625 57.8125 
Q 26.90625 64.75 24.828125 66.875 
Q 22.75 69 15.921875 69 
L 12.5 69 
L 12.5 75.984375 
L 15.578125 75.984375 
Q 27.734375 75.984375 31.8125 72.390625 
Q 35.890625 68.796875 35.890625 58.015625 
L 35.890625 46.296875 
Q 35.890625 39.015625 38.515625 36.203125 
Q 41.15625 33.40625 48.09375 33.40625 
L 51.125 33.40625 
L 51.125 26.421875 
L 48.09375 26.421875 
Q 41.15625 26.421875 38.515625 23.578125 
Q 35.890625 20.75 35.890625 13.375 
L 35.890625 1.703125 
Q 35.890625 -9.078125 31.8125 -12.6875 
Q 27.734375 -16.3125 15.578125 -16.3125 
L 12.5 -16.3125 
z
" id="DejaVuSans-7d"/>
     <path d="M 11.71875 12.40625 
L 22.015625 12.40625 
L 22.015625 4 
L 14.015625 -11.625 
L 7.71875 -11.625 
L 11.71875 4 
z
" id="DejaVuSans-2c"/>
     <path d="M 10.796875 72.90625 
L 49.515625 72.90625 
L 49.515625 64.59375 
L 19.828125 64.59375 
L 19.828125 46.734375 
Q 21.96875 47.46875 24.109375 47.828125 
Q 26.265625 48.1875 28.421875 48.1875 
Q 40.625 48.1875 47.75 41.5 
Q 54.890625 34.8125 54.890625 23.390625 
Q 54.890625 11.625 47.5625 5.09375 
Q 40.234375 -1.421875 26.90625 -1.421875 
Q 22.3125 -1.421875 17.546875 -0.640625 
Q 12.796875 0.140625 7.71875 1.703125 
L 7.71875 11.625 
Q 12.109375 9.234375 16.796875 8.0625 
Q 21.484375 6.890625 26.703125 6.890625 
Q 35.15625 6.890625 40.078125 11.328125 
Q 45.015625 15.765625 45.015625 23.390625 
Q 45.015625 31 40.078125 35.4375 
Q 35.15625 39.890625 26.703125 39.890625 
Q 22.75 39.890625 18.8125 39.015625 
Q 14.890625 38.140625 10.796875 36.28125 
z
" id="DejaVuSans-35"/>
    </defs>
    <g transform="translate(240.4276 271.48976)scale(0.2 -0.2)">
     <use xlink:href="#DejaVuSans-7b"/>
     <use x="63.623047" xlink:href="#DejaVuSans-66"/>
     <use x="98.828125" xlink:href="#DejaVuSans-36"/>
     <use x="162.451172" xlink:href="#DejaVuSans-2d"/>
     <use x="198.535156" xlink:href="#DejaVuSans-66"/>
     <use x="233.740234" xlink:href="#DejaVuSans-39"/>
     <use x="297.363281" xlink:href="#DejaVuSans-7d"/>
     <use x="360.986328" xlink:href="#DejaVuSans-2c"/>
     <use x="392.773438" xlink:href="#DejaVuSans-20"/>
     <use x="424.560547" xlink:href="#DejaVuSans-35"/>
     <use x="488.183594" xlink:href="#DejaVuSans-2d"/>
     <use x="524.267578" xlink:href="#DejaVuSans-44"/>
    </g>
   </g>
   <g id="text_7">
    <!-- v2.1 -->
    <defs>
     <path d="M 2.984375 54.6875 
L 12.5 54.6875 
L 29.59375 8.796875 
L 46.6875 54.6875 
L 56.203125 54.6875 
L 35.6875 0 
L 23.484375 0 
z
" id="DejaVuSans-76"/>
     <path d="M 19.1875 8.296875 
L 53.609375 8.296875 
L 53.609375 0 
L 7.328125 0 
L 7.328125 8.296875 
Q 12.9375 14.109375 22.625 23.890625 
Q 32.328125 33.6875 34.8125 36.53125 
Q 39.546875 41.84375 41.421875 45.53125 
Q 43.3125 49.21875 43.3125 52.78125 
Q 43.3125 58.59375 39.234375 62.25 
Q 35.15625 65.921875 28.609375 65.921875 
Q 23.96875 65.921875 18.8125 64.3125 
Q 13.671875 62.703125 7.8125 59.421875 
L 7.8125 69.390625 
Q 13.765625 71.78125 18.9375 73 
Q 24.125 74.21875 28.421875 74.21875 
Q 39.75 74.21875 46.484375 68.546875 
Q 53.21875 62.890625 53.21875 53.421875 
Q 53.21875 48.921875 51.53125 44.890625 
Q 49.859375 40.875 45.40625 35.40625 
Q 44.1875 33.984375 37.640625 27.21875 
Q 31.109375 20.453125 19.1875 8.296875 
" id="DejaVuSans-32"/>
     <path d="M 10.6875 12.40625 
L 21 12.40625 
L 21 0 
L 10.6875 0 
z
" id="DejaVuSans-2e"/>
    </defs>
    <g style="fill:#808080;" transform="translate(178.349063 272.071193)scale(0.1 -0.1)">
     <use xlink:href="#DejaVuSans-76"/>
     <use x="59.179688" xlink:href="#DejaVuSans-32"/>
     <use x="122.802734" xlink:href="#DejaVuSans-2e"/>
     <use x="154.589844" xlink:href="#DejaVuSans-31"/>
    </g>
   </g>
  </g>
 </g>
 <defs>
  <clipPath id="peb78f33961">
   <rect height="266.112" width="357.12" x="10.7" y="10.7"/>
  </clipPath>
 </defs>
</svg>
