<?xml version="1.0" encoding="utf-8" standalone="no"?>
<!DOCTYPE svg PUBLIC "-//W3C//DTD SVG 1.1//EN"
  "http://www.w3.org/Graphics/SVG/1.1/DTD/svg11.dtd">
<!-- Created with matplotlib (http://matplotlib.org/) -->
<svg height="333pt" version="1.1" viewBox="0 0 378 333" width="378pt" xmlns="http://www.w3.org/2000/svg" xmlns:xlink="http://www.w3.org/1999/xlink">
 <defs>
  <style type="text/css">
*{stroke-linecap:butt;stroke-linejoin:round;}
  </style>
 </defs>
 <g id="figure_1">
  <g id="patch_1">
   <path d="M 0 333.7245 
L 378.52 333.7245 
L 378.52 0 
L 0 0 
z
" style="fill:#ffffff;"/>
  </g>
  <g id="axes_1">
   <g id="patch_2">
    <path d="M 10.7 276.812 
L 367.82 276.812 
L 367.82 10.7 
L 10.7 10.7 
z
" style="fill:#ffffff;"/>
   </g>
   <g id="matplotlib.axis_1">
    <g id="xtick_1">
     <g id="line2d_1">
      <path clip-path="url(#p0da4752850)" d="M 10.609699 276.812 
L 10.609699 10.7 
" style="fill:none;stroke:#b0b0b0;stroke-linecap:square;stroke-width:0.8;"/>
     </g>
     <g id="line2d_2">
      <defs>
       <path d="M 0 0 
L 0 3.5 
" id="m8a94ee5dd3" style="stroke:#000000;stroke-width:0.8;"/>
      </defs>
      <g>
       <use style="stroke:#000000;stroke-width:0.8;" x="10.609699" xlink:href="#m8a94ee5dd3" y="276.812"/>
      </g>
     </g>
    </g>
    <g id="xtick_2">
     <g id="line2d_3">
      <path clip-path="url(#p0da4752850)" d="M 94.195204 276.812 
L 94.195204 10.7 
" style="fill:none;stroke:#b0b0b0;stroke-linecap:square;stroke-width:0.8;"/>
     </g>
     <g id="line2d_4">
      <g>
       <use style="stroke:#000000;stroke-width:0.8;" x="94.195204" xlink:href="#m8a94ee5dd3" y="276.812"/>
      </g>
     </g>
     <g id="text_1">
      <!-- -4 -->
      <defs>
       <path d="M 4.890625 31.390625 
L 31.203125 31.390625 
L 31.203125 23.390625 
L 4.890625 23.390625 
z
" id="DejaVuSans-2d"/>
       <path d="M 37.796875 64.3125 
L 12.890625 25.390625 
L 37.796875 25.390625 
z
M 35.203125 72.90625 
L 47.609375 72.90625 
L 47.609375 25.390625 
L 58.015625 25.390625 
L 58.015625 17.1875 
L 47.609375 17.1875 
L 47.609375 0 
L 37.796875 0 
L 37.796875 17.1875 
L 4.890625 17.1875 
L 4.890625 26.703125 
z
" id="DejaVuSans-34"/>
      </defs>
      <g transform="translate(84.224892 299.008875)scale(0.2 -0.2)">
       <use xlink:href="#DejaVuSans-2d"/>
       <use x="36.083984" xlink:href="#DejaVuSans-34"/>
      </g>
     </g>
    </g>
    <g id="xtick_3">
     <g id="line2d_5">
      <path clip-path="url(#p0da4752850)" d="M 177.780709 276.812 
L 177.780709 10.7 
" style="fill:none;stroke:#b0b0b0;stroke-linecap:square;stroke-width:0.8;"/>
     </g>
     <g id="line2d_6">
      <g>
       <use style="stroke:#000000;stroke-width:0.8;" x="177.780709" xlink:href="#m8a94ee5dd3" y="276.812"/>
      </g>
     </g>
     <g id="text_2">
      <!-- 0 -->
      <defs>
       <path d="M 31.78125 66.40625 
Q 24.171875 66.40625 20.328125 58.90625 
Q 16.5 51.421875 16.5 36.375 
Q 16.5 21.390625 20.328125 13.890625 
Q 24.171875 6.390625 31.78125 6.390625 
Q 39.453125 6.390625 43.28125 13.890625 
Q 47.125 21.390625 47.125 36.375 
Q 47.125 51.421875 43.28125 58.90625 
Q 39.453125 66.40625 31.78125 66.40625 
M 31.78125 74.21875 
Q 44.046875 74.21875 50.515625 64.515625 
Q 56.984375 54.828125 56.984375 36.375 
Q 56.984375 17.96875 50.515625 8.265625 
Q 44.046875 -1.421875 31.78125 -1.421875 
Q 19.53125 -1.421875 13.0625 8.265625 
Q 6.59375 17.96875 6.59375 36.375 
Q 6.59375 54.828125 13.0625 64.515625 
Q 19.53125 74.21875 31.78125 74.21875 
" id="DejaVuSans-30"/>
      </defs>
      <g transform="translate(171.418209 299.008875)scale(0.2 -0.2)">
       <use xlink:href="#DejaVuSans-30"/>
      </g>
     </g>
    </g>
    <g id="xtick_4">
     <g id="line2d_7">
      <path clip-path="url(#p0da4752850)" d="M 261.366214 276.812 
L 261.366214 10.7 
" style="fill:none;stroke:#b0b0b0;stroke-linecap:square;stroke-width:0.8;"/>
     </g>
     <g id="line2d_8">
      <g>
       <use style="stroke:#000000;stroke-width:0.8;" x="261.366214" xlink:href="#m8a94ee5dd3" y="276.812"/>
      </g>
     </g>
     <g id="text_3">
      <!-- 4 -->
      <g transform="translate(255.003714 299.008875)scale(0.2 -0.2)">
       <use xlink:href="#DejaVuSans-34"/>
      </g>
     </g>
    </g>
    <g id="xtick_5">
     <g id="line2d_9">
      <path clip-path="url(#p0da4752850)" d="M 344.951719 276.812 
L 344.951719 10.7 
" style="fill:none;stroke:#b0b0b0;stroke-linecap:square;stroke-width:0.8;"/>
     </g>
     <g id="line2d_10">
      <g>
       <use style="stroke:#000000;stroke-width:0.8;" x="344.951719" xlink:href="#m8a94ee5dd3" y="276.812"/>
      </g>
     </g>
     <g id="text_4">
      <!-- 8 -->
      <defs>
       <path d="M 31.78125 34.625 
Q 24.75 34.625 20.71875 30.859375 
Q 16.703125 27.09375 16.703125 20.515625 
Q 16.703125 13.921875 20.71875 10.15625 
Q 24.75 6.390625 31.78125 6.390625 
Q 38.8125 6.390625 42.859375 10.171875 
Q 46.921875 13.96875 46.921875 20.515625 
Q 46.921875 27.09375 42.890625 30.859375 
Q 38.875 34.625 31.78125 34.625 
M 21.921875 38.8125 
Q 15.578125 40.375 12.03125 44.71875 
Q 8.5 49.078125 8.5 55.328125 
Q 8.5 64.0625 14.71875 69.140625 
Q 20.953125 74.21875 31.78125 74.21875 
Q 42.671875 74.21875 48.875 69.140625 
Q 55.078125 64.0625 55.078125 55.328125 
Q 55.078125 49.078125 51.53125 44.71875 
Q 48 40.375 41.703125 38.8125 
Q 48.828125 37.15625 52.796875 32.3125 
Q 56.78125 27.484375 56.78125 20.515625 
Q 56.78125 9.90625 50.3125 4.234375 
Q 43.84375 -1.421875 31.78125 -1.421875 
Q 19.734375 -1.421875 13.25 4.234375 
Q 6.78125 9.90625 6.78125 20.515625 
Q 6.78125 27.484375 10.78125 32.3125 
Q 14.796875 37.15625 21.921875 38.8125 
M 18.3125 54.390625 
Q 18.3125 48.734375 21.84375 45.5625 
Q 25.390625 42.390625 31.78125 42.390625 
Q 38.140625 42.390625 41.71875 45.5625 
Q 45.3125 48.734375 45.3125 54.390625 
Q 45.3125 60.0625 41.71875 63.234375 
Q 38.140625 66.40625 31.78125 66.40625 
Q 25.390625 66.40625 21.84375 63.234375 
Q 18.3125 60.0625 18.3125 54.390625 
" id="DejaVuSans-38"/>
      </defs>
      <g transform="translate(338.589219 299.008875)scale(0.2 -0.2)">
       <use xlink:href="#DejaVuSans-38"/>
      </g>
     </g>
    </g>
    <g id="text_5">
     <!-- log10 of Df -->
     <defs>
      <path d="M 9.421875 75.984375 
L 18.40625 75.984375 
L 18.40625 0 
L 9.421875 0 
z
" id="DejaVuSans-6c"/>
      <path d="M 30.609375 48.390625 
Q 23.390625 48.390625 19.1875 42.75 
Q 14.984375 37.109375 14.984375 27.296875 
Q 14.984375 17.484375 19.15625 11.84375 
Q 23.34375 6.203125 30.609375 6.203125 
Q 37.796875 6.203125 41.984375 11.859375 
Q 46.1875 17.53125 46.1875 27.296875 
Q 46.1875 37.015625 41.984375 42.703125 
Q 37.796875 48.390625 30.609375 48.390625 
M 30.609375 56 
Q 42.328125 56 49.015625 48.375 
Q 55.71875 40.765625 55.71875 27.296875 
Q 55.71875 13.875 49.015625 6.21875 
Q 42.328125 -1.421875 30.609375 -1.421875 
Q 18.84375 -1.421875 12.171875 6.21875 
Q 5.515625 13.875 5.515625 27.296875 
Q 5.515625 40.765625 12.171875 48.375 
Q 18.84375 56 30.609375 56 
" id="DejaVuSans-6f"/>
      <path d="M 45.40625 27.984375 
Q 45.40625 37.75 41.375 43.109375 
Q 37.359375 48.484375 30.078125 48.484375 
Q 22.859375 48.484375 18.828125 43.109375 
Q 14.796875 37.75 14.796875 27.984375 
Q 14.796875 18.265625 18.828125 12.890625 
Q 22.859375 7.515625 30.078125 7.515625 
Q 37.359375 7.515625 41.375 12.890625 
Q 45.40625 18.265625 45.40625 27.984375 
M 54.390625 6.78125 
Q 54.390625 -7.171875 48.1875 -13.984375 
Q 42 -20.796875 29.203125 -20.796875 
Q 24.46875 -20.796875 20.265625 -20.09375 
Q 16.0625 -19.390625 12.109375 -17.921875 
L 12.109375 -9.1875 
Q 16.0625 -11.328125 19.921875 -12.34375 
Q 23.78125 -13.375 27.78125 -13.375 
Q 36.625 -13.375 41.015625 -8.765625 
Q 45.40625 -4.15625 45.40625 5.171875 
L 45.40625 9.625 
Q 42.625 4.78125 38.28125 2.390625 
Q 33.9375 0 27.875 0 
Q 17.828125 0 11.671875 7.65625 
Q 5.515625 15.328125 5.515625 27.984375 
Q 5.515625 40.671875 11.671875 48.328125 
Q 17.828125 56 27.875 56 
Q 33.9375 56 38.28125 53.609375 
Q 42.625 51.21875 45.40625 46.390625 
L 45.40625 54.6875 
L 54.390625 54.6875 
z
" id="DejaVuSans-67"/>
      <path d="M 12.40625 8.296875 
L 28.515625 8.296875 
L 28.515625 63.921875 
L 10.984375 60.40625 
L 10.984375 69.390625 
L 28.421875 72.90625 
L 38.28125 72.90625 
L 38.28125 8.296875 
L 54.390625 8.296875 
L 54.390625 0 
L 12.40625 0 
z
" id="DejaVuSans-31"/>
      <path id="DejaVuSans-20"/>
      <path d="M 37.109375 75.984375 
L 37.109375 68.5 
L 28.515625 68.5 
Q 23.6875 68.5 21.796875 66.546875 
Q 19.921875 64.59375 19.921875 59.515625 
L 19.921875 54.6875 
L 34.71875 54.6875 
L 34.71875 47.703125 
L 19.921875 47.703125 
L 19.921875 0 
L 10.890625 0 
L 10.890625 47.703125 
L 2.296875 47.703125 
L 2.296875 54.6875 
L 10.890625 54.6875 
L 10.890625 58.5 
Q 10.890625 67.625 15.140625 71.796875 
Q 19.390625 75.984375 28.609375 75.984375 
z
" id="DejaVuSans-66"/>
      <path d="M 19.671875 64.796875 
L 19.671875 8.109375 
L 31.59375 8.109375 
Q 46.6875 8.109375 53.6875 14.9375 
Q 60.6875 21.78125 60.6875 36.53125 
Q 60.6875 51.171875 53.6875 57.984375 
Q 46.6875 64.796875 31.59375 64.796875 
z
M 9.8125 72.90625 
L 30.078125 72.90625 
Q 51.265625 72.90625 61.171875 64.09375 
Q 71.09375 55.28125 71.09375 36.53125 
Q 71.09375 17.671875 61.125 8.828125 
Q 51.171875 0 30.078125 0 
L 9.8125 0 
z
" id="DejaVuSans-44"/>
     </defs>
     <g transform="translate(134.074063 322.365125)scale(0.2 -0.2)">
      <use xlink:href="#DejaVuSans-6c"/>
      <use x="27.783203" xlink:href="#DejaVuSans-6f"/>
      <use x="88.964844" xlink:href="#DejaVuSans-67"/>
      <use x="152.441406" xlink:href="#DejaVuSans-31"/>
      <use x="216.064453" xlink:href="#DejaVuSans-30"/>
      <use x="279.6875" xlink:href="#DejaVuSans-20"/>
      <use x="311.474609" xlink:href="#DejaVuSans-6f"/>
      <use x="372.65625" xlink:href="#DejaVuSans-66"/>
      <use x="407.861328" xlink:href="#DejaVuSans-20"/>
      <use x="439.648438" xlink:href="#DejaVuSans-44"/>
      <use x="516.650391" xlink:href="#DejaVuSans-66"/>
     </g>
    </g>
   </g>
   <g id="matplotlib.axis_2">
    <g id="ytick_1">
     <g id="line2d_11">
      <path clip-path="url(#p0da4752850)" d="M 10.7 276.812 
L 367.82 276.812 
" style="fill:none;stroke:#b0b0b0;stroke-linecap:square;stroke-width:0.8;"/>
     </g>
     <g id="line2d_12">
      <defs>
       <path d="M 0 0 
L -3.5 0 
" id="meb4642b8c3" style="stroke:#000000;stroke-width:0.8;"/>
      </defs>
      <g>
       <use style="stroke:#000000;stroke-width:0.8;" x="10.7" xlink:href="#meb4642b8c3" y="276.812"/>
      </g>
     </g>
    </g>
    <g id="ytick_2">
     <g id="line2d_13">
      <path clip-path="url(#p0da4752850)" d="M 10.7 224.116554 
L 367.82 224.116554 
" style="fill:none;stroke:#b0b0b0;stroke-linecap:square;stroke-width:0.8;"/>
     </g>
     <g id="line2d_14">
      <g>
       <use style="stroke:#000000;stroke-width:0.8;" x="10.7" xlink:href="#meb4642b8c3" y="224.116554"/>
      </g>
     </g>
    </g>
    <g id="ytick_3">
     <g id="line2d_15">
      <path clip-path="url(#p0da4752850)" d="M 10.7 171.421109 
L 367.82 171.421109 
" style="fill:none;stroke:#b0b0b0;stroke-linecap:square;stroke-width:0.8;"/>
     </g>
     <g id="line2d_16">
      <g>
       <use style="stroke:#000000;stroke-width:0.8;" x="10.7" xlink:href="#meb4642b8c3" y="171.421109"/>
      </g>
     </g>
    </g>
    <g id="ytick_4">
     <g id="line2d_17">
      <path clip-path="url(#p0da4752850)" d="M 10.7 118.725663 
L 367.82 118.725663 
" style="fill:none;stroke:#b0b0b0;stroke-linecap:square;stroke-width:0.8;"/>
     </g>
     <g id="line2d_18">
      <g>
       <use style="stroke:#000000;stroke-width:0.8;" x="10.7" xlink:href="#meb4642b8c3" y="118.725663"/>
      </g>
     </g>
    </g>
    <g id="ytick_5">
     <g id="line2d_19">
      <path clip-path="url(#p0da4752850)" d="M 10.7 66.030218 
L 367.82 66.030218 
" style="fill:none;stroke:#b0b0b0;stroke-linecap:square;stroke-width:0.8;"/>
     </g>
     <g id="line2d_20">
      <g>
       <use style="stroke:#000000;stroke-width:0.8;" x="10.7" xlink:href="#meb4642b8c3" y="66.030218"/>
      </g>
     </g>
    </g>
    <g id="ytick_6">
     <g id="line2d_21">
      <path clip-path="url(#p0da4752850)" d="M 10.7 13.334772 
L 367.82 13.334772 
" style="fill:none;stroke:#b0b0b0;stroke-linecap:square;stroke-width:0.8;"/>
     </g>
     <g id="line2d_22">
      <g>
       <use style="stroke:#000000;stroke-width:0.8;" x="10.7" xlink:href="#meb4642b8c3" y="13.334772"/>
      </g>
     </g>
    </g>
   </g>
   <g id="line2d_23">
    <path clip-path="url(#p0da4752850)" d="M 158.847065 276.812 
L 158.847065 273.29897 
L 158.847065 273.29897 
L 158.847065 273.29897 
L 158.880944 273.29897 
L 158.880944 269.785941 
L 160.026251 269.785941 
L 160.026251 266.272911 
L 160.263913 266.272911 
L 160.263913 262.759881 
L 160.377168 262.759881 
L 160.377168 259.246851 
L 161.019449 259.246851 
L 161.019449 255.733822 
L 161.806641 255.733822 
L 161.809189 248.707762 
L 162.372218 248.707762 
L 162.372218 245.194733 
L 162.773499 245.194733 
L 162.873457 238.168673 
L 163.071421 238.168673 
L 163.071421 234.655644 
L 165.041867 234.655644 
L 165.041867 231.142614 
L 165.213394 231.142614 
L 165.213394 220.603525 
L 172.749711 220.603525 
L 172.749711 217.090495 
L 176.746076 217.090495 
L 176.746076 213.577465 
L 181.463299 213.577465 
L 181.463299 210.064436 
L 184.586192 210.064436 
L 184.586192 206.551406 
L 184.876841 206.551406 
L 184.876841 203.038376 
L 186.085168 203.038376 
L 186.085168 199.525347 
L 187.527946 199.525347 
L 187.527946 196.012317 
L 191.408015 196.012317 
L 191.408015 192.499287 
L 191.583917 192.499287 
L 191.583917 188.986257 
L 192.512321 188.986257 
L 192.512321 185.473228 
L 192.778136 185.473228 
L 192.813751 178.447168 
L 192.890944 178.447168 
L 192.890944 174.934139 
L 193.016728 174.934139 
L 193.016728 171.421109 
L 193.218496 171.421109 
L 193.218496 167.908079 
L 194.289109 167.908079 
L 194.289109 164.39505 
L 195.940419 164.39505 
L 195.940419 160.88202 
L 196.401243 160.88202 
L 196.401243 157.36899 
L 196.583719 157.36899 
L 196.583719 153.85596 
L 196.824932 153.85596 
L 196.824932 150.342931 
L 197.148001 150.342931 
L 197.148001 146.829901 
L 197.26991 146.829901 
L 197.26991 143.316871 
L 197.898933 143.316871 
L 197.898933 139.803842 
L 199.624656 139.803842 
L 199.712271 129.264752 
L 200.302102 129.264752 
L 200.302102 125.751723 
L 201.462125 125.751723 
L 201.462125 122.238693 
L 201.964871 122.238693 
L 201.964871 118.725663 
L 202.468723 118.725663 
L 202.545464 111.699604 
L 202.699942 111.699604 
L 202.699942 108.186574 
L 203.78997 108.186574 
L 203.78997 104.673545 
L 204.394107 104.673545 
L 204.394107 101.160515 
L 205.273101 101.160515 
L 205.27701 94.134455 
L 205.680328 94.134455 
L 205.680328 90.621426 
L 206.036652 90.621426 
L 206.141576 83.595366 
L 206.522933 83.595366 
L 206.522933 80.082337 
L 206.835863 80.082337 
L 206.835863 76.569307 
L 206.985942 76.569307 
L 206.985942 73.056277 
L 208.135245 73.056277 
L 208.135245 69.543248 
L 209.619052 69.543248 
L 209.619052 66.030218 
L 211.052688 66.030218 
L 211.052688 62.517188 
L 211.305328 62.517188 
L 211.305328 59.004158 
L 213.398833 59.004158 
L 213.398833 55.491129 
L 214.704219 55.491129 
L 214.704219 51.978099 
L 216.525444 51.978099 
L 216.525444 48.465069 
L 217.649353 48.465069 
L 217.649353 44.95204 
L 219.517465 44.95204 
L 219.590998 37.92598 
L 219.673521 37.92598 
L 219.673521 34.41295 
L 221.195564 34.41295 
L 221.195564 30.899921 
L 221.770278 30.899921 
L 221.770278 27.386891 
L 222.764811 27.386891 
L 222.764811 23.873861 
L 224.307612 23.873861 
L 224.313536 16.847802 
L 224.862518 16.847802 
L 224.862518 13.334772 
L 224.862518 13.334772 
L 367.82 13.334772 
L 367.82 13.334772 
" style="fill:none;stroke:#ff0000;stroke-linecap:square;stroke-width:3;"/>
   </g>
   <g id="line2d_24">
    <path clip-path="url(#p0da4752850)" d="M 165.213394 276.812 
L 165.213394 273.29897 
L 165.213394 273.29897 
L 165.213394 273.29897 
L 165.213394 269.785941 
L 165.213394 269.785941 
L 165.213394 269.785941 
L 165.213394 266.272911 
L 165.213394 266.272911 
L 165.213394 266.272911 
L 165.213394 262.759881 
L 165.213394 262.759881 
L 165.213394 262.759881 
L 165.213394 259.246851 
L 165.213394 259.246851 
L 165.213394 259.246851 
L 165.213394 255.733822 
L 165.213394 255.733822 
L 165.213394 255.733822 
L 165.213394 252.220792 
L 165.213394 252.220792 
L 165.213394 252.220792 
L 165.213394 248.707762 
L 165.213394 248.707762 
L 165.213394 248.707762 
L 165.213394 245.194733 
L 165.213394 245.194733 
L 165.213394 245.194733 
L 165.213394 241.681703 
L 165.213394 241.681703 
L 165.213394 241.681703 
L 165.213394 238.168673 
L 165.213394 238.168673 
L 165.213394 238.168673 
L 165.213394 234.655644 
L 165.213394 234.655644 
L 165.213394 234.655644 
L 165.213394 231.142614 
L 165.213394 231.142614 
L 165.213394 231.142614 
L 165.213394 227.629584 
L 165.213394 227.629584 
L 165.213394 227.629584 
L 165.213394 224.116554 
L 192.140358 224.116554 
L 192.140358 220.603525 
L 192.405175 220.603525 
L 192.405175 217.090495 
L 195.299756 217.090495 
L 195.299756 213.577465 
L 196.131528 213.577465 
L 196.131528 210.064436 
L 199.067364 210.064436 
L 199.067364 206.551406 
L 199.598503 206.551406 
L 199.598503 203.038376 
L 199.988317 203.038376 
L 199.988317 199.525347 
L 200.460065 199.525347 
L 200.460065 196.012317 
L 201.905366 196.012317 
L 201.905366 192.499287 
L 202.175003 192.499287 
L 202.175003 188.986257 
L 202.771487 188.986257 
L 202.771487 185.473228 
L 204.515292 185.473228 
L 204.515292 181.960198 
L 204.746026 181.960198 
L 204.746026 178.447168 
L 206.505854 178.447168 
L 206.505854 174.934139 
L 207.225268 174.934139 
L 207.225268 171.421109 
L 207.665355 171.421109 
L 207.729789 164.39505 
L 208.334648 164.39505 
L 208.334648 160.88202 
L 208.66647 160.88202 
L 208.66647 157.36899 
L 208.796005 157.36899 
L 208.796005 153.85596 
L 208.965161 153.85596 
L 208.965161 150.342931 
L 212.393688 150.342931 
L 212.393688 146.829901 
L 212.773576 146.829901 
L 212.87321 132.777782 
L 212.911689 132.777782 
L 212.911689 129.264752 
L 213.639483 129.264752 
L 213.639483 125.751723 
L 214.150198 125.751723 
L 214.150198 122.238693 
L 214.361648 122.238693 
L 214.361648 118.725663 
L 214.546473 118.725663 
L 214.552865 111.699604 
L 215.014383 111.699604 
L 215.014383 108.186574 
L 215.205968 108.186574 
L 215.240051 101.160515 
L 215.427316 101.160515 
L 215.427316 97.647485 
L 216.549999 97.647485 
L 216.549999 94.134455 
L 217.18678 94.134455 
L 217.18678 90.621426 
L 218.812641 90.621426 
L 218.812641 87.108396 
L 218.933044 87.108396 
L 218.933044 83.595366 
L 219.621875 83.595366 
L 219.687825 76.569307 
L 220.008854 76.569307 
L 220.116483 69.543248 
L 220.148643 69.543248 
L 220.148643 66.030218 
L 220.271888 66.030218 
L 220.271888 62.517188 
L 221.445937 62.517188 
L 221.445937 59.004158 
L 221.754438 59.004158 
L 221.754438 55.491129 
L 222.764811 55.491129 
L 222.847732 44.95204 
L 223.058044 44.95204 
L 223.058044 41.43901 
L 223.320414 41.43901 
L 223.320414 37.92598 
L 225.326729 37.92598 
L 225.326729 34.41295 
L 225.525913 34.41295 
L 225.525913 30.899921 
L 226.112621 30.899921 
L 226.112621 27.386891 
L 226.411745 27.386891 
L 226.411745 23.873861 
L 226.775538 23.873861 
L 226.775538 20.360832 
L 227.351057 20.360832 
L 227.351057 16.847802 
L 228.91084 16.847802 
L 228.91084 13.334772 
L 228.91084 13.334772 
L 367.82 13.334772 
L 367.82 13.334772 
" style="fill:none;stroke:#00bfbf;stroke-linecap:square;stroke-width:1.5;"/>
   </g>
   <g id="line2d_25">
    <path clip-path="url(#p0da4752850)" d="M 165.213394 276.812 
L 165.213394 273.29897 
L 165.213394 273.29897 
L 165.213394 273.29897 
L 165.213394 269.785941 
L 165.213394 269.785941 
L 165.213394 269.785941 
L 165.213394 266.272911 
L 165.213394 266.272911 
L 165.213394 266.272911 
L 165.213394 262.759881 
L 165.213394 262.759881 
L 165.213394 262.759881 
L 165.213394 259.246851 
L 165.213394 259.246851 
L 165.213394 259.246851 
L 165.213394 255.733822 
L 165.213394 255.733822 
L 165.213394 255.733822 
L 165.213394 252.220792 
L 165.213394 252.220792 
L 165.213394 252.220792 
L 165.213394 248.707762 
L 165.213394 248.707762 
L 165.213394 248.707762 
L 165.213394 245.194733 
L 165.213394 245.194733 
L 165.213394 245.194733 
L 165.213394 241.681703 
L 165.213394 241.681703 
L 165.213394 241.681703 
L 165.213394 238.168673 
L 165.213394 238.168673 
L 165.213394 238.168673 
L 165.213394 234.655644 
L 165.213394 234.655644 
L 165.213394 234.655644 
L 165.213394 231.142614 
L 165.213394 231.142614 
L 165.213394 231.142614 
L 165.213394 227.629584 
L 165.213394 227.629584 
L 165.213394 227.629584 
L 165.213394 224.116554 
L 190.598507 224.116554 
L 190.598507 220.603525 
L 191.991208 220.603525 
L 191.991208 217.090495 
L 192.140358 217.090495 
L 192.140358 213.577465 
L 195.299756 213.577465 
L 195.299756 210.064436 
L 196.07009 210.064436 
L 196.07009 206.551406 
L 198.463502 206.551406 
L 198.463502 203.038376 
L 198.797959 203.038376 
L 198.797959 199.525347 
L 199.067364 199.525347 
L 199.067364 196.012317 
L 199.255411 196.012317 
L 199.255411 192.499287 
L 199.525098 192.499287 
L 199.598503 185.473228 
L 201.368267 185.473228 
L 201.368267 181.960198 
L 201.905366 181.960198 
L 201.905366 178.447168 
L 202.060554 178.447168 
L 202.060554 174.934139 
L 202.716259 174.934139 
L 202.716259 171.421109 
L 203.257955 171.421109 
L 203.257955 167.908079 
L 203.737189 167.908079 
L 203.835612 160.88202 
L 204.911225 160.88202 
L 204.911225 157.36899 
L 205.517766 157.36899 
L 205.517766 153.85596 
L 207.001778 153.85596 
L 207.001778 150.342931 
L 207.8752 150.342931 
L 207.8752 146.829901 
L 208.334648 146.829901 
L 208.334648 143.316871 
L 208.965161 143.316871 
L 208.965161 139.803842 
L 209.165508 139.803842 
L 209.213935 132.777782 
L 209.461822 132.777782 
L 209.481453 125.751723 
L 210.093692 125.751723 
L 210.093692 122.238693 
L 210.304324 122.238693 
L 210.304324 118.725663 
L 210.748177 118.725663 
L 210.748177 115.212634 
L 212.773576 115.212634 
L 212.87321 104.673545 
L 212.982327 104.673545 
L 213.07321 97.647485 
L 213.109806 97.647485 
L 213.109806 94.134455 
L 213.272076 94.134455 
L 213.272076 90.621426 
L 214.142185 90.621426 
L 214.142185 87.108396 
L 214.361648 87.108396 
L 214.367335 80.082337 
L 215.014383 80.082337 
L 215.014383 76.569307 
L 215.427316 76.569307 
L 215.427316 73.056277 
L 216.549999 73.056277 
L 216.549999 69.543248 
L 217.35311 69.543248 
L 217.35311 66.030218 
L 218.307133 66.030218 
L 218.307133 62.517188 
L 218.679708 62.517188 
L 218.679708 59.004158 
L 220.116483 59.004158 
L 220.116483 55.491129 
L 221.293715 55.491129 
L 221.293715 51.978099 
L 221.445937 51.978099 
L 221.445937 48.465069 
L 222.764811 48.465069 
L 222.847732 41.43901 
L 223.320414 41.43901 
L 223.320414 37.92598 
L 223.843429 37.92598 
L 223.843429 34.41295 
L 224.223699 34.41295 
L 224.223699 30.899921 
L 224.549842 30.899921 
L 224.549842 27.386891 
L 226.112621 27.386891 
L 226.112621 23.873861 
L 226.775538 23.873861 
L 226.775538 20.360832 
L 227.351057 20.360832 
L 227.351057 16.847802 
L 227.713387 16.847802 
L 227.713387 13.334772 
L 227.713387 13.334772 
L 367.82 13.334772 
L 367.82 13.334772 
" style="fill:none;stroke:#bf00bf;stroke-linecap:square;stroke-width:1.5;"/>
   </g>
   <g id="line2d_26">
    <path clip-path="url(#p0da4752850)" d="M 165.213394 276.812 
L 165.213394 273.29897 
L 165.213394 273.29897 
L 165.213394 273.29897 
L 165.213394 269.785941 
L 165.213394 269.785941 
L 165.213394 269.785941 
L 165.213394 266.272911 
L 165.213394 266.272911 
L 165.213394 266.272911 
L 165.213394 262.759881 
L 165.213394 262.759881 
L 165.213394 262.759881 
L 165.213394 259.246851 
L 165.213394 259.246851 
L 165.213394 259.246851 
L 165.213394 255.733822 
L 165.213394 255.733822 
L 165.213394 255.733822 
L 165.213394 252.220792 
L 165.213394 252.220792 
L 165.213394 252.220792 
L 165.213394 248.707762 
L 165.213394 248.707762 
L 165.213394 248.707762 
L 165.213394 245.194733 
L 165.213394 245.194733 
L 165.213394 245.194733 
L 165.213394 241.681703 
L 165.213394 241.681703 
L 165.213394 241.681703 
L 165.213394 238.168673 
L 165.213394 238.168673 
L 165.213394 238.168673 
L 165.213394 234.655644 
L 165.213394 234.655644 
L 165.213394 234.655644 
L 165.213394 231.142614 
L 165.213394 231.142614 
L 165.213394 231.142614 
L 165.213394 227.629584 
L 165.213394 227.629584 
L 165.213394 227.629584 
L 165.213394 224.116554 
L 190.598507 224.116554 
L 190.598507 220.603525 
L 190.717145 220.603525 
L 190.799147 213.577465 
L 194.424999 213.577465 
L 194.424999 210.064436 
L 195.299756 210.064436 
L 195.299756 206.551406 
L 196.07009 206.551406 
L 196.07009 203.038376 
L 196.64301 203.038376 
L 196.64301 199.525347 
L 197.117195 199.525347 
L 197.117195 196.012317 
L 197.823905 196.012317 
L 197.823905 192.499287 
L 198.186475 192.499287 
L 198.186475 188.986257 
L 198.372894 188.986257 
L 198.40629 181.960198 
L 199.587444 181.960198 
L 199.587444 178.447168 
L 200.07121 178.447168 
L 200.07121 174.934139 
L 200.410735 174.934139 
L 200.410735 171.421109 
L 202.716259 171.421109 
L 202.769189 164.39505 
L 203.240559 164.39505 
L 203.316628 153.85596 
L 203.737189 153.85596 
L 203.835612 146.829901 
L 204.911225 146.829901 
L 204.911225 143.316871 
L 205.724998 143.316871 
L 205.724998 139.803842 
L 208.25234 139.803842 
L 208.25234 136.290812 
L 208.475529 136.290812 
L 208.475529 132.777782 
L 208.810818 132.777782 
L 208.810818 129.264752 
L 208.965161 129.264752 
L 208.965161 125.751723 
L 209.165508 125.751723 
L 209.213935 118.725663 
L 209.343983 118.725663 
L 209.343983 115.212634 
L 209.461822 115.212634 
L 209.481453 108.186574 
L 209.60421 108.186574 
L 209.60421 104.673545 
L 210.093692 104.673545 
L 210.093692 101.160515 
L 210.748177 101.160515 
L 210.785803 94.134455 
L 212.306524 94.134455 
L 212.306524 90.621426 
L 212.720797 90.621426 
L 212.757016 83.595366 
L 213.07321 83.595366 
L 213.07321 80.082337 
L 214.228755 80.082337 
L 214.228755 76.569307 
L 214.361648 76.569307 
L 214.367335 69.543248 
L 215.752394 69.543248 
L 215.752394 66.030218 
L 216.592922 66.030218 
L 216.592922 62.517188 
L 216.789468 62.517188 
L 216.789468 59.004158 
L 220.116483 59.004158 
L 220.116483 55.491129 
L 220.636186 55.491129 
L 220.636186 51.978099 
L 221.445937 51.978099 
L 221.445937 48.465069 
L 222.764811 48.465069 
L 222.847732 41.43901 
L 222.91881 41.43901 
L 222.91881 37.92598 
L 223.320414 37.92598 
L 223.320414 34.41295 
L 223.967177 34.41295 
L 223.967177 30.899921 
L 224.223699 30.899921 
L 224.223699 27.386891 
L 225.322732 27.386891 
L 225.322732 23.873861 
L 226.775538 23.873861 
L 226.775538 20.360832 
L 227.334683 20.360832 
L 227.351057 13.334772 
L 227.351057 13.334772 
L 367.82 13.334772 
L 367.82 13.334772 
" style="fill:none;stroke:#000000;stroke-linecap:square;stroke-width:1.5;"/>
   </g>
   <g id="line2d_27">
    <path clip-path="url(#p0da4752850)" d="M 165.213394 276.812 
L 165.213394 273.29897 
L 165.213394 273.29897 
L 165.213394 273.29897 
L 165.213394 269.785941 
L 165.213394 269.785941 
L 165.213394 269.785941 
L 165.213394 266.272911 
L 165.213394 266.272911 
L 165.213394 266.272911 
L 165.213394 262.759881 
L 165.213394 262.759881 
L 165.213394 262.759881 
L 165.213394 259.246851 
L 165.213394 259.246851 
L 165.213394 259.246851 
L 165.213394 255.733822 
L 165.213394 255.733822 
L 165.213394 255.733822 
L 165.213394 252.220792 
L 165.213394 252.220792 
L 165.213394 252.220792 
L 165.213394 248.707762 
L 165.213394 248.707762 
L 165.213394 248.707762 
L 165.213394 245.194733 
L 165.213394 245.194733 
L 165.213394 245.194733 
L 165.213394 241.681703 
L 165.213394 241.681703 
L 165.213394 241.681703 
L 165.213394 238.168673 
L 165.213394 238.168673 
L 165.213394 238.168673 
L 165.213394 234.655644 
L 165.213394 234.655644 
L 165.213394 234.655644 
L 165.213394 231.142614 
L 165.213394 231.142614 
L 165.213394 231.142614 
L 165.213394 227.629584 
L 165.213394 227.629584 
L 165.213394 227.629584 
L 165.213394 224.116554 
L 189.011083 224.116554 
L 189.011083 220.603525 
L 189.855216 220.603525 
L 189.855216 217.090495 
L 190.423775 217.090495 
L 190.423775 213.577465 
L 190.785969 213.577465 
L 190.785969 210.064436 
L 194.161731 210.064436 
L 194.161731 206.551406 
L 194.424999 206.551406 
L 194.424999 203.038376 
L 195.299756 203.038376 
L 195.299756 199.525347 
L 196.07009 199.525347 
L 196.073806 192.499287 
L 196.405908 192.499287 
L 196.405908 188.986257 
L 196.924864 188.986257 
L 196.924864 185.473228 
L 197.823905 185.473228 
L 197.823905 181.960198 
L 197.935469 181.960198 
L 197.935469 178.447168 
L 198.054156 178.447168 
L 198.054156 174.934139 
L 200.410735 174.934139 
L 200.410735 171.421109 
L 200.757574 171.421109 
L 200.757574 167.908079 
L 201.002842 167.908079 
L 201.002842 164.39505 
L 202.210113 164.39505 
L 202.210113 160.88202 
L 202.454982 160.88202 
L 202.486815 153.85596 
L 202.659934 153.85596 
L 202.659934 150.342931 
L 203.316628 150.342931 
L 203.316628 146.829901 
L 203.48091 146.829901 
L 203.48091 143.316871 
L 204.307145 143.316871 
L 204.307145 139.803842 
L 204.911225 139.803842 
L 204.911225 136.290812 
L 206.400468 136.290812 
L 206.400468 132.777782 
L 207.284588 132.777782 
L 207.292515 125.751723 
L 207.932525 125.751723 
L 207.991558 118.725663 
L 208.056457 118.725663 
L 208.056457 115.212634 
L 208.561407 115.212634 
L 208.561407 111.699604 
L 208.965161 111.699604 
L 208.965161 108.186574 
L 209.116926 108.186574 
L 209.116926 104.673545 
L 209.318464 104.673545 
L 209.318464 101.160515 
L 209.446842 101.160515 
L 209.446842 97.647485 
L 210.093692 97.647485 
L 210.093692 94.134455 
L 210.386616 94.134455 
L 210.386616 90.621426 
L 211.159601 90.621426 
L 211.159601 87.108396 
L 211.564001 87.108396 
L 211.564001 83.595366 
L 211.682538 83.595366 
L 211.682538 80.082337 
L 211.834698 80.082337 
L 211.834698 76.569307 
L 213.07321 76.569307 
L 213.175165 69.543248 
L 214.367335 69.543248 
L 214.367335 66.030218 
L 214.786698 66.030218 
L 214.786698 62.517188 
L 216.221893 62.517188 
L 216.221893 59.004158 
L 216.592922 59.004158 
L 216.592922 55.491129 
L 219.616043 55.491129 
L 219.616043 51.978099 
L 221.445937 51.978099 
L 221.445937 48.465069 
L 222.58373 48.465069 
L 222.58373 44.95204 
L 222.764811 44.95204 
L 222.811759 37.92598 
L 222.91881 37.92598 
L 222.91881 34.41295 
L 223.272756 34.41295 
L 223.272756 30.899921 
L 223.901947 30.899921 
L 223.901947 27.386891 
L 225.19862 27.386891 
L 225.19862 23.873861 
L 225.716444 23.873861 
L 225.716444 20.360832 
L 226.608553 20.360832 
L 226.608553 16.847802 
L 227.131577 16.847802 
L 227.131577 13.334772 
L 227.131577 13.334772 
L 367.82 13.334772 
L 367.82 13.334772 
" style="fill:none;stroke:#00bfbf;stroke-linecap:square;stroke-width:1.5;"/>
   </g>
   <g id="line2d_28">
    <path clip-path="url(#p0da4752850)" d="M 165.213394 276.812 
L 165.213394 273.29897 
L 165.213394 273.29897 
L 165.213394 273.29897 
L 165.213394 269.785941 
L 165.213394 269.785941 
L 165.213394 269.785941 
L 165.213394 266.272911 
L 165.213394 266.272911 
L 165.213394 266.272911 
L 165.213394 262.759881 
L 165.213394 262.759881 
L 165.213394 262.759881 
L 165.213394 259.246851 
L 165.213394 259.246851 
L 165.213394 259.246851 
L 165.213394 255.733822 
L 165.213394 255.733822 
L 165.213394 255.733822 
L 165.213394 252.220792 
L 165.213394 252.220792 
L 165.213394 252.220792 
L 165.213394 248.707762 
L 165.213394 248.707762 
L 165.213394 248.707762 
L 165.213394 245.194733 
L 165.213394 245.194733 
L 165.213394 245.194733 
L 165.213394 241.681703 
L 165.213394 241.681703 
L 165.213394 241.681703 
L 165.213394 238.168673 
L 165.213394 238.168673 
L 165.213394 238.168673 
L 165.213394 234.655644 
L 165.213394 234.655644 
L 165.213394 234.655644 
L 165.213394 231.142614 
L 165.213394 231.142614 
L 165.213394 231.142614 
L 165.213394 227.629584 
L 165.213394 227.629584 
L 165.213394 227.629584 
L 165.213394 224.116554 
L 174.594471 224.116554 
L 174.594471 220.603525 
L 182.199373 220.603525 
L 182.199373 217.090495 
L 186.381027 217.090495 
L 186.381027 213.577465 
L 187.587299 213.577465 
L 187.587299 210.064436 
L 189.855216 210.064436 
L 189.855216 206.551406 
L 192.430861 206.551406 
L 192.523579 199.525347 
L 193.056079 199.525347 
L 193.056079 196.012317 
L 193.953606 196.012317 
L 193.953606 192.499287 
L 194.161731 192.499287 
L 194.161731 188.986257 
L 195.335017 188.986257 
L 195.410705 181.960198 
L 196.07009 181.960198 
L 196.07009 178.447168 
L 196.203906 178.447168 
L 196.303593 171.421109 
L 196.523609 171.421109 
L 196.523609 167.908079 
L 199.00159 167.908079 
L 199.00159 164.39505 
L 199.657901 164.39505 
L 199.657901 160.88202 
L 200.159193 160.88202 
L 200.159193 157.36899 
L 200.272491 157.36899 
L 200.272491 153.85596 
L 201.002842 153.85596 
L 201.02155 146.829901 
L 201.467182 146.829901 
L 201.467182 143.316871 
L 201.84078 143.316871 
L 201.84078 139.803842 
L 203.572859 139.803842 
L 203.572859 136.290812 
L 203.913622 136.290812 
L 203.913622 132.777782 
L 204.792263 132.777782 
L 204.792263 129.264752 
L 204.911225 129.264752 
L 204.911225 125.751723 
L 205.894669 125.751723 
L 205.894669 122.238693 
L 206.588604 122.238693 
L 206.588604 118.725663 
L 206.858505 118.725663 
L 206.858505 115.212634 
L 207.235765 115.212634 
L 207.31571 108.186574 
L 207.398473 108.186574 
L 207.398473 104.673545 
L 207.869332 104.673545 
L 207.869332 101.160515 
L 208.085342 101.160515 
L 208.107061 94.134455 
L 208.583665 94.134455 
L 208.68088 87.108396 
L 208.965161 87.108396 
L 208.965161 83.595366 
L 209.446842 83.595366 
L 209.446842 80.082337 
L 209.562016 80.082337 
L 209.562016 76.569307 
L 209.788252 76.569307 
L 209.788252 73.056277 
L 211.854065 73.056277 
L 211.854065 69.543248 
L 212.737176 69.543248 
L 212.737176 66.030218 
L 213.006177 66.030218 
L 213.006177 62.517188 
L 213.999041 62.517188 
L 213.999041 59.004158 
L 215.638581 59.004158 
L 215.638581 55.491129 
L 216.131184 55.491129 
L 216.131184 51.978099 
L 219.30802 51.978099 
L 219.30802 48.465069 
L 220.686112 48.465069 
L 220.686112 44.95204 
L 220.985373 44.95204 
L 220.985373 41.43901 
L 221.39956 41.43901 
L 221.39956 37.92598 
L 221.675254 37.92598 
L 221.720273 30.899921 
L 222.764811 30.899921 
L 222.764811 27.386891 
L 224.440864 27.386891 
L 224.440864 23.873861 
L 225.716444 23.873861 
L 225.716444 20.360832 
L 226.158941 20.360832 
L 226.158941 16.847802 
L 226.414466 16.847802 
L 226.414466 13.334772 
L 226.414466 13.334772 
L 367.82 13.334772 
L 367.82 13.334772 
" style="fill:none;stroke:#bf00bf;stroke-linecap:square;stroke-width:1.5;"/>
   </g>
   <g id="line2d_29">
    <path clip-path="url(#p0da4752850)" d="M 163.690658 276.812 
L 163.690658 273.29897 
L 164.806041 273.29897 
L 164.806041 269.785941 
L 164.963382 269.785941 
L 164.963382 266.272911 
L 165.213394 266.272911 
L 165.213394 224.116554 
L 172.348689 224.116554 
L 172.348689 220.603525 
L 177.942764 220.603525 
L 177.942764 217.090495 
L 185.997783 217.090495 
L 186.062409 210.064436 
L 189.489572 210.064436 
L 189.489572 206.551406 
L 189.844424 206.551406 
L 189.844424 203.038376 
L 190.567669 203.038376 
L 190.567669 199.525347 
L 191.560531 199.525347 
L 191.560531 196.012317 
L 192.606276 196.012317 
L 192.606276 192.499287 
L 193.628973 192.499287 
L 193.628973 188.986257 
L 193.903239 188.986257 
L 193.903239 185.473228 
L 194.161731 185.473228 
L 194.161731 181.960198 
L 195.410705 181.960198 
L 195.410705 178.447168 
L 195.562489 178.447168 
L 195.562489 174.934139 
L 195.810715 174.934139 
L 195.810715 171.421109 
L 196.346434 171.421109 
L 196.346434 167.908079 
L 196.523609 167.908079 
L 196.523609 164.39505 
L 197.479045 164.39505 
L 197.479045 160.88202 
L 198.445243 160.88202 
L 198.445243 157.36899 
L 198.773991 157.36899 
L 198.773991 153.85596 
L 199.235312 153.85596 
L 199.235312 150.342931 
L 199.794353 150.342931 
L 199.794353 146.829901 
L 199.997065 146.829901 
L 199.997065 143.316871 
L 200.877383 143.316871 
L 200.877383 139.803842 
L 201.270175 139.803842 
L 201.270175 136.290812 
L 201.683161 136.290812 
L 201.683161 132.777782 
L 203.43272 132.777782 
L 203.43272 129.264752 
L 203.672564 129.264752 
L 203.672564 125.751723 
L 203.913622 125.751723 
L 203.913622 122.238693 
L 205.004911 122.238693 
L 205.004911 118.725663 
L 205.894669 118.725663 
L 205.894669 115.212634 
L 206.375585 115.212634 
L 206.375585 111.699604 
L 206.588604 111.699604 
L 206.648861 104.673545 
L 206.739117 104.673545 
L 206.805127 94.134455 
L 206.858505 94.134455 
L 206.858505 90.621426 
L 207.039003 90.621426 
L 207.039003 87.108396 
L 207.315096 87.108396 
L 207.315096 83.595366 
L 207.755788 83.595366 
L 207.755788 80.082337 
L 207.921466 80.082337 
L 208.023113 73.056277 
L 209.2562 73.056277 
L 209.2562 69.543248 
L 211.473718 69.543248 
L 211.473718 66.030218 
L 212.986207 66.030218 
L 213.006177 59.004158 
L 215.206292 59.004158 
L 215.206292 55.491129 
L 215.638581 55.491129 
L 215.638581 51.978099 
L 218.352113 51.978099 
L 218.352113 48.465069 
L 218.687632 48.465069 
L 218.687632 44.95204 
L 220.618118 44.95204 
L 220.618118 41.43901 
L 220.78205 41.43901 
L 220.850689 34.41295 
L 221.335344 34.41295 
L 221.335344 30.899921 
L 222.764811 30.899921 
L 222.764811 27.386891 
L 223.769284 27.386891 
L 223.769284 23.873861 
L 224.915926 23.873861 
L 224.915926 20.360832 
L 225.481944 20.360832 
L 225.481944 16.847802 
L 225.680632 16.847802 
L 225.680632 13.334772 
L 225.680632 13.334772 
L 367.82 13.334772 
L 367.82 13.334772 
" style="fill:none;stroke:#000000;stroke-linecap:square;stroke-width:1.5;"/>
   </g>
   <g id="line2d_30">
    <path clip-path="url(#p0da4752850)" d="M 160.263913 276.812 
L 160.263913 273.29897 
L 160.377168 273.29897 
L 160.377168 269.785941 
L 161.019449 269.785941 
L 161.019449 266.272911 
L 161.806641 266.272911 
L 161.806641 262.759881 
L 162.773499 262.759881 
L 162.869809 255.733822 
L 163.690658 255.733822 
L 163.690658 252.220792 
L 164.077403 252.220792 
L 164.077403 248.707762 
L 164.926402 248.707762 
L 164.926402 245.194733 
L 165.041867 245.194733 
L 165.041867 241.681703 
L 165.213394 241.681703 
L 165.213394 220.603525 
L 172.749711 220.603525 
L 172.749711 217.090495 
L 179.128943 217.090495 
L 179.128943 213.577465 
L 184.709533 213.577465 
L 184.709533 210.064436 
L 184.916776 210.064436 
L 184.916776 206.551406 
L 186.519984 206.551406 
L 186.519984 203.038376 
L 187.674149 203.038376 
L 187.674149 199.525347 
L 190.080165 199.525347 
L 190.080165 196.012317 
L 191.408015 196.012317 
L 191.408015 192.499287 
L 191.583917 192.499287 
L 191.583917 188.986257 
L 192.522476 188.986257 
L 192.522476 185.473228 
L 192.863599 185.473228 
L 192.863599 181.960198 
L 193.199251 181.960198 
L 193.238983 174.934139 
L 193.65794 174.934139 
L 193.65794 171.421109 
L 194.648653 171.421109 
L 194.648653 167.908079 
L 194.857546 167.908079 
L 194.857546 164.39505 
L 196.176479 164.39505 
L 196.176479 160.88202 
L 196.811227 160.88202 
L 196.845878 153.85596 
L 196.929889 153.85596 
L 196.929889 150.342931 
L 197.854979 150.342931 
L 197.924862 143.316871 
L 199.146958 143.316871 
L 199.146958 139.803842 
L 199.721892 139.803842 
L 199.721892 136.290812 
L 200.078483 136.290812 
L 200.078483 132.777782 
L 200.308262 132.777782 
L 200.308262 129.264752 
L 202.126776 129.264752 
L 202.126776 125.751723 
L 202.468723 125.751723 
L 202.468723 122.238693 
L 202.637512 122.238693 
L 202.637512 118.725663 
L 203.191534 118.725663 
L 203.191534 115.212634 
L 203.458794 115.212634 
L 203.496439 108.186574 
L 204.471238 108.186574 
L 204.505276 101.160515 
L 205.454196 101.160515 
L 205.4613 94.134455 
L 205.849808 94.134455 
L 205.849808 90.621426 
L 206.175099 90.621426 
L 206.175099 87.108396 
L 206.375585 87.108396 
L 206.375585 83.595366 
L 206.522933 83.595366 
L 206.522933 80.082337 
L 206.91281 80.082337 
L 206.91281 76.569307 
L 207.053508 76.569307 
L 207.053508 73.056277 
L 208.207421 73.056277 
L 208.207421 69.543248 
L 210.091947 69.543248 
L 210.091947 66.030218 
L 211.504141 66.030218 
L 211.504141 62.517188 
L 211.968545 62.517188 
L 211.968545 59.004158 
L 213.555808 59.004158 
L 213.555808 55.491129 
L 215.039744 55.491129 
L 215.039744 51.978099 
L 217.617784 51.978099 
L 217.617784 48.465069 
L 217.751899 48.465069 
L 217.751899 44.95204 
L 219.590998 44.95204 
L 219.641342 37.92598 
L 219.962197 37.92598 
L 219.962197 34.41295 
L 221.195564 34.41295 
L 221.195564 30.899921 
L 221.777184 30.899921 
L 221.777184 27.386891 
L 222.764811 27.386891 
L 222.764811 23.873861 
L 224.347362 23.873861 
L 224.347362 20.360832 
L 224.675432 20.360832 
L 224.675432 16.847802 
L 224.923556 16.847802 
L 224.923556 13.334772 
L 224.923556 13.334772 
L 367.82 13.334772 
L 367.82 13.334772 
" style="fill:none;stroke:#00bfbf;stroke-linecap:square;stroke-width:1.5;"/>
   </g>
   <g id="patch_3">
    <path d="M 10.7 276.812 
L 10.7 10.7 
" style="fill:none;stroke:#000000;stroke-linecap:square;stroke-linejoin:miter;stroke-width:0.8;"/>
   </g>
   <g id="patch_4">
    <path d="M 367.82 276.812 
L 367.82 10.7 
" style="fill:none;stroke:#000000;stroke-linecap:square;stroke-linejoin:miter;stroke-width:0.8;"/>
   </g>
   <g id="patch_5">
    <path d="M 10.7 276.812 
L 367.82 276.812 
" style="fill:none;stroke:#000000;stroke-linecap:square;stroke-linejoin:miter;stroke-width:0.8;"/>
   </g>
   <g id="patch_6">
    <path d="M 10.7 10.7 
L 367.82 10.7 
" style="fill:none;stroke:#000000;stroke-linecap:square;stroke-linejoin:miter;stroke-width:0.8;"/>
   </g>
   <g id="text_6">
    <!-- {f15-f19}, 5-D -->
    <defs>
     <path d="M 51.125 -9.28125 
L 51.125 -16.3125 
L 48.09375 -16.3125 
Q 35.9375 -16.3125 31.8125 -12.6875 
Q 27.6875 -9.078125 27.6875 1.703125 
L 27.6875 13.375 
Q 27.6875 20.75 25.046875 23.578125 
Q 22.40625 26.421875 15.484375 26.421875 
L 12.5 26.421875 
L 12.5 33.40625 
L 15.484375 33.40625 
Q 22.46875 33.40625 25.078125 36.203125 
Q 27.6875 39.015625 27.6875 46.296875 
L 27.6875 58.015625 
Q 27.6875 68.796875 31.8125 72.390625 
Q 35.9375 75.984375 48.09375 75.984375 
L 51.125 75.984375 
L 51.125 69 
L 47.796875 69 
Q 40.921875 69 38.8125 66.84375 
Q 36.71875 64.703125 36.71875 57.8125 
L 36.71875 45.703125 
Q 36.71875 38.03125 34.5 34.5625 
Q 32.28125 31.109375 26.90625 29.890625 
Q 32.328125 28.5625 34.515625 25.09375 
Q 36.71875 21.625 36.71875 14.015625 
L 36.71875 1.90625 
Q 36.71875 -4.984375 38.8125 -7.125 
Q 40.921875 -9.28125 47.796875 -9.28125 
z
" id="DejaVuSans-7b"/>
     <path d="M 10.796875 72.90625 
L 49.515625 72.90625 
L 49.515625 64.59375 
L 19.828125 64.59375 
L 19.828125 46.734375 
Q 21.96875 47.46875 24.109375 47.828125 
Q 26.265625 48.1875 28.421875 48.1875 
Q 40.625 48.1875 47.75 41.5 
Q 54.890625 34.8125 54.890625 23.390625 
Q 54.890625 11.625 47.5625 5.09375 
Q 40.234375 -1.421875 26.90625 -1.421875 
Q 22.3125 -1.421875 17.546875 -0.640625 
Q 12.796875 0.140625 7.71875 1.703125 
L 7.71875 11.625 
Q 12.109375 9.234375 16.796875 8.0625 
Q 21.484375 6.890625 26.703125 6.890625 
Q 35.15625 6.890625 40.078125 11.328125 
Q 45.015625 15.765625 45.015625 23.390625 
Q 45.015625 31 40.078125 35.4375 
Q 35.15625 39.890625 26.703125 39.890625 
Q 22.75 39.890625 18.8125 39.015625 
Q 14.890625 38.140625 10.796875 36.28125 
z
" id="DejaVuSans-35"/>
     <path d="M 10.984375 1.515625 
L 10.984375 10.5 
Q 14.703125 8.734375 18.5 7.8125 
Q 22.3125 6.890625 25.984375 6.890625 
Q 35.75 6.890625 40.890625 13.453125 
Q 46.046875 20.015625 46.78125 33.40625 
Q 43.953125 29.203125 39.59375 26.953125 
Q 35.25 24.703125 29.984375 24.703125 
Q 19.046875 24.703125 12.671875 31.3125 
Q 6.296875 37.9375 6.296875 49.421875 
Q 6.296875 60.640625 12.9375 67.421875 
Q 19.578125 74.21875 30.609375 74.21875 
Q 43.265625 74.21875 49.921875 64.515625 
Q 56.59375 54.828125 56.59375 36.375 
Q 56.59375 19.140625 48.40625 8.859375 
Q 40.234375 -1.421875 26.421875 -1.421875 
Q 22.703125 -1.421875 18.890625 -0.6875 
Q 15.09375 0.046875 10.984375 1.515625 
M 30.609375 32.421875 
Q 37.25 32.421875 41.125 36.953125 
Q 45.015625 41.5 45.015625 49.421875 
Q 45.015625 57.28125 41.125 61.84375 
Q 37.25 66.40625 30.609375 66.40625 
Q 23.96875 66.40625 20.09375 61.84375 
Q 16.21875 57.28125 16.21875 49.421875 
Q 16.21875 41.5 20.09375 36.953125 
Q 23.96875 32.421875 30.609375 32.421875 
" id="DejaVuSans-39"/>
     <path d="M 12.5 -9.28125 
L 15.921875 -9.28125 
Q 22.75 -9.28125 24.828125 -7.171875 
Q 26.90625 -5.078125 26.90625 1.90625 
L 26.90625 14.015625 
Q 26.90625 21.625 29.09375 25.09375 
Q 31.296875 28.5625 36.71875 29.890625 
Q 31.296875 31.109375 29.09375 34.5625 
Q 26.90625 38.03125 26.90625 45.703125 
L 26.90625 57.8125 
Q 26.90625 64.75 24.828125 66.875 
Q 22.75 69 15.921875 69 
L 12.5 69 
L 12.5 75.984375 
L 15.578125 75.984375 
Q 27.734375 75.984375 31.8125 72.390625 
Q 35.890625 68.796875 35.890625 58.015625 
L 35.890625 46.296875 
Q 35.890625 39.015625 38.515625 36.203125 
Q 41.15625 33.40625 48.09375 33.40625 
L 51.125 33.40625 
L 51.125 26.421875 
L 48.09375 26.421875 
Q 41.15625 26.421875 38.515625 23.578125 
Q 35.890625 20.75 35.890625 13.375 
L 35.890625 1.703125 
Q 35.890625 -9.078125 31.8125 -12.6875 
Q 27.734375 -16.3125 15.578125 -16.3125 
L 12.5 -16.3125 
z
" id="DejaVuSans-7d"/>
     <path d="M 11.71875 12.40625 
L 22.015625 12.40625 
L 22.015625 4 
L 14.015625 -11.625 
L 7.71875 -11.625 
L 11.71875 4 
z
" id="DejaVuSans-2c"/>
    </defs>
    <g transform="translate(214.9776 271.48976)scale(0.2 -0.2)">
     <use xlink:href="#DejaVuSans-7b"/>
     <use x="63.623047" xlink:href="#DejaVuSans-66"/>
     <use x="98.828125" xlink:href="#DejaVuSans-31"/>
     <use x="162.451172" xlink:href="#DejaVuSans-35"/>
     <use x="226.074219" xlink:href="#DejaVuSans-2d"/>
     <use x="262.158203" xlink:href="#DejaVuSans-66"/>
     <use x="297.363281" xlink:href="#DejaVuSans-31"/>
     <use x="360.986328" xlink:href="#DejaVuSans-39"/>
     <use x="424.609375" xlink:href="#DejaVuSans-7d"/>
     <use x="488.232422" xlink:href="#DejaVuSans-2c"/>
     <use x="520.019531" xlink:href="#DejaVuSans-20"/>
     <use x="551.806641" xlink:href="#DejaVuSans-35"/>
     <use x="615.429688" xlink:href="#DejaVuSans-2d"/>
     <use x="651.513672" xlink:href="#DejaVuSans-44"/>
    </g>
   </g>
   <g id="text_7">
    <!-- v2.1 -->
    <defs>
     <path d="M 2.984375 54.6875 
L 12.5 54.6875 
L 29.59375 8.796875 
L 46.6875 54.6875 
L 56.203125 54.6875 
L 35.6875 0 
L 23.484375 0 
z
" id="DejaVuSans-76"/>
     <path d="M 19.1875 8.296875 
L 53.609375 8.296875 
L 53.609375 0 
L 7.328125 0 
L 7.328125 8.296875 
Q 12.9375 14.109375 22.625 23.890625 
Q 32.328125 33.6875 34.8125 36.53125 
Q 39.546875 41.84375 41.421875 45.53125 
Q 43.3125 49.21875 43.3125 52.78125 
Q 43.3125 58.59375 39.234375 62.25 
Q 35.15625 65.921875 28.609375 65.921875 
Q 23.96875 65.921875 18.8125 64.3125 
Q 13.671875 62.703125 7.8125 59.421875 
L 7.8125 69.390625 
Q 13.765625 71.78125 18.9375 73 
Q 24.125 74.21875 28.421875 74.21875 
Q 39.75 74.21875 46.484375 68.546875 
Q 53.21875 62.890625 53.21875 53.421875 
Q 53.21875 48.921875 51.53125 44.890625 
Q 49.859375 40.875 45.40625 35.40625 
Q 44.1875 33.984375 37.640625 27.21875 
Q 31.109375 20.453125 19.1875 8.296875 
" id="DejaVuSans-32"/>
     <path d="M 10.6875 12.40625 
L 21 12.40625 
L 21 0 
L 10.6875 0 
z
" id="DejaVuSans-2e"/>
    </defs>
    <g style="fill:#808080;" transform="translate(178.349063 272.071193)scale(0.1 -0.1)">
     <use xlink:href="#DejaVuSans-76"/>
     <use x="59.179688" xlink:href="#DejaVuSans-32"/>
     <use x="122.802734" xlink:href="#DejaVuSans-2e"/>
     <use x="154.589844" xlink:href="#DejaVuSans-31"/>
    </g>
   </g>
  </g>
 </g>
 <defs>
  <clipPath id="p0da4752850">
   <rect height="266.112" width="357.12" x="10.7" y="10.7"/>
  </clipPath>
 </defs>
</svg>
