<?xml version="1.0" encoding="utf-8" standalone="no"?>
<!DOCTYPE svg PUBLIC "-//W3C//DTD SVG 1.1//EN"
  "http://www.w3.org/Graphics/SVG/1.1/DTD/svg11.dtd">
<!-- Created with matplotlib (http://matplotlib.org/) -->
<svg height="333pt" version="1.1" viewBox="0 0 378 333" width="378pt" xmlns="http://www.w3.org/2000/svg" xmlns:xlink="http://www.w3.org/1999/xlink">
 <defs>
  <style type="text/css">
*{stroke-linecap:butt;stroke-linejoin:round;}
  </style>
 </defs>
 <g id="figure_1">
  <g id="patch_1">
   <path d="M 0 333.7245 
L 378.52 333.7245 
L 378.52 0 
L 0 0 
z
" style="fill:#ffffff;"/>
  </g>
  <g id="axes_1">
   <g id="patch_2">
    <path d="M 10.7 276.812 
L 367.82 276.812 
L 367.82 10.7 
L 10.7 10.7 
z
" style="fill:#ffffff;"/>
   </g>
   <g id="matplotlib.axis_1">
    <g id="xtick_1">
     <g id="line2d_1">
      <path clip-path="url(#pd17f8bbd48)" d="M 10.609699 276.812 
L 10.609699 10.7 
" style="fill:none;stroke:#b0b0b0;stroke-linecap:square;stroke-width:0.8;"/>
     </g>
     <g id="line2d_2">
      <defs>
       <path d="M 0 0 
L 0 3.5 
" id="m3f7b034b19" style="stroke:#000000;stroke-width:0.8;"/>
      </defs>
      <g>
       <use style="stroke:#000000;stroke-width:0.8;" x="10.609699" xlink:href="#m3f7b034b19" y="276.812"/>
      </g>
     </g>
    </g>
    <g id="xtick_2">
     <g id="line2d_3">
      <path clip-path="url(#pd17f8bbd48)" d="M 94.195204 276.812 
L 94.195204 10.7 
" style="fill:none;stroke:#b0b0b0;stroke-linecap:square;stroke-width:0.8;"/>
     </g>
     <g id="line2d_4">
      <g>
       <use style="stroke:#000000;stroke-width:0.8;" x="94.195204" xlink:href="#m3f7b034b19" y="276.812"/>
      </g>
     </g>
     <g id="text_1">
      <!-- -4 -->
      <defs>
       <path d="M 4.890625 31.390625 
L 31.203125 31.390625 
L 31.203125 23.390625 
L 4.890625 23.390625 
z
" id="DejaVuSans-2d"/>
       <path d="M 37.796875 64.3125 
L 12.890625 25.390625 
L 37.796875 25.390625 
z
M 35.203125 72.90625 
L 47.609375 72.90625 
L 47.609375 25.390625 
L 58.015625 25.390625 
L 58.015625 17.1875 
L 47.609375 17.1875 
L 47.609375 0 
L 37.796875 0 
L 37.796875 17.1875 
L 4.890625 17.1875 
L 4.890625 26.703125 
z
" id="DejaVuSans-34"/>
      </defs>
      <g transform="translate(84.224892 299.008875)scale(0.2 -0.2)">
       <use xlink:href="#DejaVuSans-2d"/>
       <use x="36.083984" xlink:href="#DejaVuSans-34"/>
      </g>
     </g>
    </g>
    <g id="xtick_3">
     <g id="line2d_5">
      <path clip-path="url(#pd17f8bbd48)" d="M 177.780709 276.812 
L 177.780709 10.7 
" style="fill:none;stroke:#b0b0b0;stroke-linecap:square;stroke-width:0.8;"/>
     </g>
     <g id="line2d_6">
      <g>
       <use style="stroke:#000000;stroke-width:0.8;" x="177.780709" xlink:href="#m3f7b034b19" y="276.812"/>
      </g>
     </g>
     <g id="text_2">
      <!-- 0 -->
      <defs>
       <path d="M 31.78125 66.40625 
Q 24.171875 66.40625 20.328125 58.90625 
Q 16.5 51.421875 16.5 36.375 
Q 16.5 21.390625 20.328125 13.890625 
Q 24.171875 6.390625 31.78125 6.390625 
Q 39.453125 6.390625 43.28125 13.890625 
Q 47.125 21.390625 47.125 36.375 
Q 47.125 51.421875 43.28125 58.90625 
Q 39.453125 66.40625 31.78125 66.40625 
M 31.78125 74.21875 
Q 44.046875 74.21875 50.515625 64.515625 
Q 56.984375 54.828125 56.984375 36.375 
Q 56.984375 17.96875 50.515625 8.265625 
Q 44.046875 -1.421875 31.78125 -1.421875 
Q 19.53125 -1.421875 13.0625 8.265625 
Q 6.59375 17.96875 6.59375 36.375 
Q 6.59375 54.828125 13.0625 64.515625 
Q 19.53125 74.21875 31.78125 74.21875 
" id="DejaVuSans-30"/>
      </defs>
      <g transform="translate(171.418209 299.008875)scale(0.2 -0.2)">
       <use xlink:href="#DejaVuSans-30"/>
      </g>
     </g>
    </g>
    <g id="xtick_4">
     <g id="line2d_7">
      <path clip-path="url(#pd17f8bbd48)" d="M 261.366214 276.812 
L 261.366214 10.7 
" style="fill:none;stroke:#b0b0b0;stroke-linecap:square;stroke-width:0.8;"/>
     </g>
     <g id="line2d_8">
      <g>
       <use style="stroke:#000000;stroke-width:0.8;" x="261.366214" xlink:href="#m3f7b034b19" y="276.812"/>
      </g>
     </g>
     <g id="text_3">
      <!-- 4 -->
      <g transform="translate(255.003714 299.008875)scale(0.2 -0.2)">
       <use xlink:href="#DejaVuSans-34"/>
      </g>
     </g>
    </g>
    <g id="xtick_5">
     <g id="line2d_9">
      <path clip-path="url(#pd17f8bbd48)" d="M 344.951719 276.812 
L 344.951719 10.7 
" style="fill:none;stroke:#b0b0b0;stroke-linecap:square;stroke-width:0.8;"/>
     </g>
     <g id="line2d_10">
      <g>
       <use style="stroke:#000000;stroke-width:0.8;" x="344.951719" xlink:href="#m3f7b034b19" y="276.812"/>
      </g>
     </g>
     <g id="text_4">
      <!-- 8 -->
      <defs>
       <path d="M 31.78125 34.625 
Q 24.75 34.625 20.71875 30.859375 
Q 16.703125 27.09375 16.703125 20.515625 
Q 16.703125 13.921875 20.71875 10.15625 
Q 24.75 6.390625 31.78125 6.390625 
Q 38.8125 6.390625 42.859375 10.171875 
Q 46.921875 13.96875 46.921875 20.515625 
Q 46.921875 27.09375 42.890625 30.859375 
Q 38.875 34.625 31.78125 34.625 
M 21.921875 38.8125 
Q 15.578125 40.375 12.03125 44.71875 
Q 8.5 49.078125 8.5 55.328125 
Q 8.5 64.0625 14.71875 69.140625 
Q 20.953125 74.21875 31.78125 74.21875 
Q 42.671875 74.21875 48.875 69.140625 
Q 55.078125 64.0625 55.078125 55.328125 
Q 55.078125 49.078125 51.53125 44.71875 
Q 48 40.375 41.703125 38.8125 
Q 48.828125 37.15625 52.796875 32.3125 
Q 56.78125 27.484375 56.78125 20.515625 
Q 56.78125 9.90625 50.3125 4.234375 
Q 43.84375 -1.421875 31.78125 -1.421875 
Q 19.734375 -1.421875 13.25 4.234375 
Q 6.78125 9.90625 6.78125 20.515625 
Q 6.78125 27.484375 10.78125 32.3125 
Q 14.796875 37.15625 21.921875 38.8125 
M 18.3125 54.390625 
Q 18.3125 48.734375 21.84375 45.5625 
Q 25.390625 42.390625 31.78125 42.390625 
Q 38.140625 42.390625 41.71875 45.5625 
Q 45.3125 48.734375 45.3125 54.390625 
Q 45.3125 60.0625 41.71875 63.234375 
Q 38.140625 66.40625 31.78125 66.40625 
Q 25.390625 66.40625 21.84375 63.234375 
Q 18.3125 60.0625 18.3125 54.390625 
" id="DejaVuSans-38"/>
      </defs>
      <g transform="translate(338.589219 299.008875)scale(0.2 -0.2)">
       <use xlink:href="#DejaVuSans-38"/>
      </g>
     </g>
    </g>
    <g id="text_5">
     <!-- log10 of Df -->
     <defs>
      <path d="M 9.421875 75.984375 
L 18.40625 75.984375 
L 18.40625 0 
L 9.421875 0 
z
" id="DejaVuSans-6c"/>
      <path d="M 30.609375 48.390625 
Q 23.390625 48.390625 19.1875 42.75 
Q 14.984375 37.109375 14.984375 27.296875 
Q 14.984375 17.484375 19.15625 11.84375 
Q 23.34375 6.203125 30.609375 6.203125 
Q 37.796875 6.203125 41.984375 11.859375 
Q 46.1875 17.53125 46.1875 27.296875 
Q 46.1875 37.015625 41.984375 42.703125 
Q 37.796875 48.390625 30.609375 48.390625 
M 30.609375 56 
Q 42.328125 56 49.015625 48.375 
Q 55.71875 40.765625 55.71875 27.296875 
Q 55.71875 13.875 49.015625 6.21875 
Q 42.328125 -1.421875 30.609375 -1.421875 
Q 18.84375 -1.421875 12.171875 6.21875 
Q 5.515625 13.875 5.515625 27.296875 
Q 5.515625 40.765625 12.171875 48.375 
Q 18.84375 56 30.609375 56 
" id="DejaVuSans-6f"/>
      <path d="M 45.40625 27.984375 
Q 45.40625 37.75 41.375 43.109375 
Q 37.359375 48.484375 30.078125 48.484375 
Q 22.859375 48.484375 18.828125 43.109375 
Q 14.796875 37.75 14.796875 27.984375 
Q 14.796875 18.265625 18.828125 12.890625 
Q 22.859375 7.515625 30.078125 7.515625 
Q 37.359375 7.515625 41.375 12.890625 
Q 45.40625 18.265625 45.40625 27.984375 
M 54.390625 6.78125 
Q 54.390625 -7.171875 48.1875 -13.984375 
Q 42 -20.796875 29.203125 -20.796875 
Q 24.46875 -20.796875 20.265625 -20.09375 
Q 16.0625 -19.390625 12.109375 -17.921875 
L 12.109375 -9.1875 
Q 16.0625 -11.328125 19.921875 -12.34375 
Q 23.78125 -13.375 27.78125 -13.375 
Q 36.625 -13.375 41.015625 -8.765625 
Q 45.40625 -4.15625 45.40625 5.171875 
L 45.40625 9.625 
Q 42.625 4.78125 38.28125 2.390625 
Q 33.9375 0 27.875 0 
Q 17.828125 0 11.671875 7.65625 
Q 5.515625 15.328125 5.515625 27.984375 
Q 5.515625 40.671875 11.671875 48.328125 
Q 17.828125 56 27.875 56 
Q 33.9375 56 38.28125 53.609375 
Q 42.625 51.21875 45.40625 46.390625 
L 45.40625 54.6875 
L 54.390625 54.6875 
z
" id="DejaVuSans-67"/>
      <path d="M 12.40625 8.296875 
L 28.515625 8.296875 
L 28.515625 63.921875 
L 10.984375 60.40625 
L 10.984375 69.390625 
L 28.421875 72.90625 
L 38.28125 72.90625 
L 38.28125 8.296875 
L 54.390625 8.296875 
L 54.390625 0 
L 12.40625 0 
z
" id="DejaVuSans-31"/>
      <path id="DejaVuSans-20"/>
      <path d="M 37.109375 75.984375 
L 37.109375 68.5 
L 28.515625 68.5 
Q 23.6875 68.5 21.796875 66.546875 
Q 19.921875 64.59375 19.921875 59.515625 
L 19.921875 54.6875 
L 34.71875 54.6875 
L 34.71875 47.703125 
L 19.921875 47.703125 
L 19.921875 0 
L 10.890625 0 
L 10.890625 47.703125 
L 2.296875 47.703125 
L 2.296875 54.6875 
L 10.890625 54.6875 
L 10.890625 58.5 
Q 10.890625 67.625 15.140625 71.796875 
Q 19.390625 75.984375 28.609375 75.984375 
z
" id="DejaVuSans-66"/>
      <path d="M 19.671875 64.796875 
L 19.671875 8.109375 
L 31.59375 8.109375 
Q 46.6875 8.109375 53.6875 14.9375 
Q 60.6875 21.78125 60.6875 36.53125 
Q 60.6875 51.171875 53.6875 57.984375 
Q 46.6875 64.796875 31.59375 64.796875 
z
M 9.8125 72.90625 
L 30.078125 72.90625 
Q 51.265625 72.90625 61.171875 64.09375 
Q 71.09375 55.28125 71.09375 36.53125 
Q 71.09375 17.671875 61.125 8.828125 
Q 51.171875 0 30.078125 0 
L 9.8125 0 
z
" id="DejaVuSans-44"/>
     </defs>
     <g transform="translate(134.074063 322.365125)scale(0.2 -0.2)">
      <use xlink:href="#DejaVuSans-6c"/>
      <use x="27.783203" xlink:href="#DejaVuSans-6f"/>
      <use x="88.964844" xlink:href="#DejaVuSans-67"/>
      <use x="152.441406" xlink:href="#DejaVuSans-31"/>
      <use x="216.064453" xlink:href="#DejaVuSans-30"/>
      <use x="279.6875" xlink:href="#DejaVuSans-20"/>
      <use x="311.474609" xlink:href="#DejaVuSans-6f"/>
      <use x="372.65625" xlink:href="#DejaVuSans-66"/>
      <use x="407.861328" xlink:href="#DejaVuSans-20"/>
      <use x="439.648438" xlink:href="#DejaVuSans-44"/>
      <use x="516.650391" xlink:href="#DejaVuSans-66"/>
     </g>
    </g>
   </g>
   <g id="matplotlib.axis_2">
    <g id="ytick_1">
     <g id="line2d_11">
      <path clip-path="url(#pd17f8bbd48)" d="M 10.7 276.812 
L 367.82 276.812 
" style="fill:none;stroke:#b0b0b0;stroke-linecap:square;stroke-width:0.8;"/>
     </g>
     <g id="line2d_12">
      <defs>
       <path d="M 0 0 
L -3.5 0 
" id="md5d3538111" style="stroke:#000000;stroke-width:0.8;"/>
      </defs>
      <g>
       <use style="stroke:#000000;stroke-width:0.8;" x="10.7" xlink:href="#md5d3538111" y="276.812"/>
      </g>
     </g>
    </g>
    <g id="ytick_2">
     <g id="line2d_13">
      <path clip-path="url(#pd17f8bbd48)" d="M 10.7 224.116554 
L 367.82 224.116554 
" style="fill:none;stroke:#b0b0b0;stroke-linecap:square;stroke-width:0.8;"/>
     </g>
     <g id="line2d_14">
      <g>
       <use style="stroke:#000000;stroke-width:0.8;" x="10.7" xlink:href="#md5d3538111" y="224.116554"/>
      </g>
     </g>
    </g>
    <g id="ytick_3">
     <g id="line2d_15">
      <path clip-path="url(#pd17f8bbd48)" d="M 10.7 171.421109 
L 367.82 171.421109 
" style="fill:none;stroke:#b0b0b0;stroke-linecap:square;stroke-width:0.8;"/>
     </g>
     <g id="line2d_16">
      <g>
       <use style="stroke:#000000;stroke-width:0.8;" x="10.7" xlink:href="#md5d3538111" y="171.421109"/>
      </g>
     </g>
    </g>
    <g id="ytick_4">
     <g id="line2d_17">
      <path clip-path="url(#pd17f8bbd48)" d="M 10.7 118.725663 
L 367.82 118.725663 
" style="fill:none;stroke:#b0b0b0;stroke-linecap:square;stroke-width:0.8;"/>
     </g>
     <g id="line2d_18">
      <g>
       <use style="stroke:#000000;stroke-width:0.8;" x="10.7" xlink:href="#md5d3538111" y="118.725663"/>
      </g>
     </g>
    </g>
    <g id="ytick_5">
     <g id="line2d_19">
      <path clip-path="url(#pd17f8bbd48)" d="M 10.7 66.030218 
L 367.82 66.030218 
" style="fill:none;stroke:#b0b0b0;stroke-linecap:square;stroke-width:0.8;"/>
     </g>
     <g id="line2d_20">
      <g>
       <use style="stroke:#000000;stroke-width:0.8;" x="10.7" xlink:href="#md5d3538111" y="66.030218"/>
      </g>
     </g>
    </g>
    <g id="ytick_6">
     <g id="line2d_21">
      <path clip-path="url(#pd17f8bbd48)" d="M 10.7 13.334772 
L 367.82 13.334772 
" style="fill:none;stroke:#b0b0b0;stroke-linecap:square;stroke-width:0.8;"/>
     </g>
     <g id="line2d_22">
      <g>
       <use style="stroke:#000000;stroke-width:0.8;" x="10.7" xlink:href="#md5d3538111" y="13.334772"/>
      </g>
     </g>
    </g>
   </g>
   <g id="line2d_23">
    <path clip-path="url(#pd17f8bbd48)" d="M 168.193022 276.812 
L 168.193022 272.420713 
L 177.037648 272.420713 
L 177.037648 268.029426 
L 183.731476 268.029426 
L 183.731476 263.638139 
L 187.65125 263.638139 
L 187.65125 259.246851 
L 190.145624 259.246851 
L 190.145624 254.855564 
L 193.398515 254.855564 
L 193.398515 250.464277 
L 193.408217 250.464277 
L 193.408217 246.07299 
L 196.277881 246.07299 
L 196.277881 241.681703 
L 196.956115 241.681703 
L 196.956115 237.290416 
L 197.001083 237.290416 
L 197.001083 232.899129 
L 202.012429 232.899129 
L 202.012429 228.507842 
L 204.43485 228.507842 
L 204.43485 224.116554 
L 204.88461 224.116554 
L 204.88461 219.725267 
L 205.447034 219.725267 
L 205.447034 215.33398 
L 206.108305 215.33398 
L 206.108305 210.942693 
L 206.182489 210.942693 
L 206.182489 206.551406 
L 206.546149 206.551406 
L 206.546149 202.160119 
L 207.348525 202.160119 
L 207.348525 197.768832 
L 207.348525 197.768832 
L 207.348525 193.377545 
L 211.332551 193.377545 
L 211.332551 188.986257 
L 212.692213 188.986257 
L 212.692213 184.59497 
L 215.674828 184.59497 
L 215.674828 180.203683 
L 216.654219 180.203683 
L 216.654219 175.812396 
L 218.089214 175.812396 
L 218.089214 171.421109 
L 225.528251 171.421109 
L 225.528251 167.029822 
L 225.901982 167.029822 
L 225.901982 162.638535 
L 226.007466 162.638535 
L 226.007466 158.247248 
L 228.353606 158.247248 
L 228.353606 153.85596 
L 229.642546 153.85596 
L 229.642546 149.464673 
L 232.899604 149.464673 
L 232.899604 145.073386 
L 233.723511 145.073386 
L 233.723511 140.682099 
L 237.316743 140.682099 
L 237.316743 136.290812 
L 243.037787 136.290812 
L 243.037787 131.899525 
L 244.234967 131.899525 
L 244.234967 127.508238 
L 244.865991 127.508238 
L 244.865991 123.11695 
L 253.919933 123.11695 
L 253.919933 118.725663 
L 253.957607 118.725663 
L 253.957607 114.334376 
L 255.290298 114.334376 
L 255.290298 109.943089 
L 256.815893 109.943089 
L 256.815893 105.551802 
L 256.962829 105.551802 
L 256.962829 101.160515 
L 258.57574 101.160515 
L 258.57574 96.769228 
L 260.954507 96.769228 
L 260.954507 92.377941 
L 263.250815 92.377941 
L 263.250815 87.986653 
L 264.037298 87.986653 
L 264.037298 83.595366 
L 265.018449 83.595366 
L 265.018449 79.204079 
L 265.617071 79.204079 
L 265.617071 74.812792 
L 266.134336 74.812792 
L 266.134336 70.421505 
L 266.746242 70.421505 
L 266.746242 66.030218 
L 268.048513 66.030218 
L 268.048513 61.638931 
L 272.464643 61.638931 
L 272.464643 57.247644 
L 274.801136 57.247644 
L 274.801136 52.856356 
L 275.437965 52.856356 
L 275.437965 48.465069 
L 278.2804 48.465069 
L 278.2804 44.073782 
L 280.299616 44.073782 
L 280.299616 39.682495 
L 282.612304 39.682495 
L 282.612304 35.291208 
L 282.863699 35.291208 
L 282.863699 30.899921 
L 284.277855 30.899921 
L 284.277855 26.508634 
L 287.679805 26.508634 
L 287.679805 22.117347 
L 295.609662 22.117347 
L 295.609662 17.726059 
L 297.959832 17.726059 
L 297.959832 13.334772 
L 297.959832 13.334772 
L 297.959832 13.334772 
L 367.82 13.334772 
" style="fill:none;stroke:#ff0000;stroke-linecap:square;stroke-width:3;"/>
   </g>
   <g id="line2d_24">
    <path clip-path="url(#pd17f8bbd48)" d="M 201.138113 276.812 
L 201.138113 272.420713 
L 201.406061 272.420713 
L 201.406061 268.029426 
L 207.348525 268.029426 
L 207.348525 263.638139 
L 207.348525 263.638139 
L 207.348525 259.246851 
L 207.348525 259.246851 
L 207.348525 254.855564 
L 207.348525 254.855564 
L 207.348525 250.464277 
L 207.348525 250.464277 
L 207.348525 246.07299 
L 207.348525 246.07299 
L 207.348525 241.681703 
L 207.348525 241.681703 
L 207.348525 237.290416 
L 207.348525 237.290416 
L 207.348525 232.899129 
L 207.348525 232.899129 
L 207.348525 228.507842 
L 207.348525 228.507842 
L 207.348525 224.116554 
L 207.348525 224.116554 
L 207.348525 219.725267 
L 207.348525 219.725267 
L 207.348525 215.33398 
L 207.348525 215.33398 
L 207.348525 210.942693 
L 207.348525 210.942693 
L 207.348525 206.551406 
L 207.348525 206.551406 
L 207.348525 202.160119 
L 212.167908 202.160119 
L 212.167908 197.768832 
L 214.302226 197.768832 
L 214.302226 193.377545 
L 218.352212 193.377545 
L 218.352212 188.986257 
L 220.630542 188.986257 
L 220.630542 184.59497 
L 221.169488 184.59497 
L 221.169488 180.203683 
L 231.529382 180.203683 
L 231.529382 175.812396 
L 231.894121 175.812396 
L 231.894121 171.421109 
L 233.069355 171.421109 
L 233.069355 167.029822 
L 234.074406 167.029822 
L 234.074406 162.638535 
L 236.790025 162.638535 
L 236.790025 158.247248 
L 237.492872 158.247248 
L 237.492872 153.85596 
L 237.963234 153.85596 
L 237.963234 149.464673 
L 239.055235 149.464673 
L 239.055235 145.073386 
L 243.037787 145.073386 
L 243.037787 140.682099 
L 246.936332 140.682099 
L 246.936332 136.290812 
L 247.213568 136.290812 
L 247.213568 131.899525 
L 249.612678 131.899525 
L 249.612678 127.508238 
L 252.484933 127.508238 
L 252.484933 123.11695 
L 257.056374 123.11695 
L 257.056374 118.725663 
L 257.312095 118.725663 
L 257.312095 114.334376 
L 257.75404 114.334376 
L 257.75404 109.943089 
L 258.025846 109.943089 
L 258.025846 105.551802 
L 258.958882 105.551802 
L 258.958882 101.160515 
L 259.683497 101.160515 
L 259.683497 96.769228 
L 262.610713 96.769228 
L 262.610713 92.377941 
L 264.729398 92.377941 
L 264.729398 87.986653 
L 265.318661 87.986653 
L 265.318661 83.595366 
L 266.829125 83.595366 
L 266.829125 79.204079 
L 267.206142 79.204079 
L 267.206142 74.812792 
L 268.395168 74.812792 
L 268.395168 70.421505 
L 269.394563 70.421505 
L 269.394563 66.030218 
L 272.870572 66.030218 
L 272.870572 61.638931 
L 274.801136 61.638931 
L 274.801136 57.247644 
L 276.847996 57.247644 
L 276.847996 52.856356 
L 277.888026 52.856356 
L 277.888026 48.465069 
L 279.195726 48.465069 
L 279.195726 44.073782 
L 282.863699 44.073782 
L 282.863699 39.682495 
L 284.807058 39.682495 
L 284.807058 35.291208 
L 286.610822 35.291208 
L 286.610822 30.899921 
L 287.214246 30.899921 
L 287.214246 26.508634 
L 290.912155 26.508634 
L 290.912155 22.117347 
L 295.609662 22.117347 
L 295.609662 17.726059 
L 298.194554 17.726059 
L 298.194554 13.334772 
L 298.194554 13.334772 
L 298.194554 13.334772 
L 367.82 13.334772 
" style="fill:none;stroke:#00bfbf;stroke-linecap:square;stroke-width:1.5;"/>
   </g>
   <g id="line2d_25">
    <path clip-path="url(#pd17f8bbd48)" d="M 199.117338 276.812 
L 199.117338 272.420713 
L 201.406061 272.420713 
L 201.406061 268.029426 
L 207.348525 268.029426 
L 207.348525 263.638139 
L 207.348525 263.638139 
L 207.348525 259.246851 
L 207.348525 259.246851 
L 207.348525 254.855564 
L 207.348525 254.855564 
L 207.348525 250.464277 
L 207.348525 250.464277 
L 207.348525 246.07299 
L 207.348525 246.07299 
L 207.348525 241.681703 
L 207.348525 241.681703 
L 207.348525 237.290416 
L 207.348525 237.290416 
L 207.348525 232.899129 
L 207.348525 232.899129 
L 207.348525 228.507842 
L 207.348525 228.507842 
L 207.348525 224.116554 
L 207.348525 224.116554 
L 207.348525 219.725267 
L 207.348525 219.725267 
L 207.348525 215.33398 
L 207.348525 215.33398 
L 207.348525 210.942693 
L 207.348525 210.942693 
L 207.348525 206.551406 
L 207.348525 206.551406 
L 207.348525 202.160119 
L 212.167908 202.160119 
L 212.167908 197.768832 
L 214.20266 197.768832 
L 214.20266 193.377545 
L 217.807696 193.377545 
L 217.807696 188.986257 
L 220.630542 188.986257 
L 220.630542 184.59497 
L 221.169488 184.59497 
L 221.169488 180.203683 
L 228.506455 180.203683 
L 228.506455 175.812396 
L 229.756805 175.812396 
L 229.756805 171.421109 
L 230.49561 171.421109 
L 230.49561 167.029822 
L 233.483127 167.029822 
L 233.483127 162.638535 
L 233.654787 162.638535 
L 233.654787 158.247248 
L 234.654887 158.247248 
L 234.654887 153.85596 
L 236.465541 153.85596 
L 236.465541 149.464673 
L 239.055235 149.464673 
L 239.055235 145.073386 
L 243.037787 145.073386 
L 243.037787 140.682099 
L 245.813809 140.682099 
L 245.813809 136.290812 
L 246.69701 136.290812 
L 246.69701 131.899525 
L 246.71175 131.899525 
L 246.71175 127.508238 
L 252.484933 127.508238 
L 252.484933 123.11695 
L 256.280799 123.11695 
L 256.280799 118.725663 
L 257.056374 118.725663 
L 257.056374 114.334376 
L 257.312095 114.334376 
L 257.312095 109.943089 
L 257.75404 109.943089 
L 257.75404 105.551802 
L 258.958882 105.551802 
L 258.958882 101.160515 
L 259.371453 101.160515 
L 259.371453 96.769228 
L 262.610713 96.769228 
L 262.610713 92.377941 
L 264.729398 92.377941 
L 264.729398 87.986653 
L 265.318661 87.986653 
L 265.318661 83.595366 
L 266.829125 83.595366 
L 266.829125 79.204079 
L 267.206142 79.204079 
L 267.206142 74.812792 
L 268.395168 74.812792 
L 268.395168 70.421505 
L 269.394563 70.421505 
L 269.394563 66.030218 
L 272.870572 66.030218 
L 272.870572 61.638931 
L 274.801136 61.638931 
L 274.801136 57.247644 
L 276.847996 57.247644 
L 276.847996 52.856356 
L 277.888026 52.856356 
L 277.888026 48.465069 
L 279.195726 48.465069 
L 279.195726 44.073782 
L 282.863699 44.073782 
L 282.863699 39.682495 
L 283.500852 39.682495 
L 283.500852 35.291208 
L 284.807058 35.291208 
L 284.807058 30.899921 
L 285.362068 30.899921 
L 285.362068 26.508634 
L 289.901771 26.508634 
L 289.901771 22.117347 
L 295.609662 22.117347 
L 295.609662 17.726059 
L 298.194554 17.726059 
L 298.194554 13.334772 
L 298.194554 13.334772 
L 298.194554 13.334772 
L 367.82 13.334772 
" style="fill:none;stroke:#bf00bf;stroke-linecap:square;stroke-width:1.5;"/>
   </g>
   <g id="line2d_26">
    <path clip-path="url(#pd17f8bbd48)" d="M 198.585812 276.812 
L 198.585812 272.420713 
L 201.406061 272.420713 
L 201.406061 268.029426 
L 207.348525 268.029426 
L 207.348525 263.638139 
L 207.348525 263.638139 
L 207.348525 259.246851 
L 207.348525 259.246851 
L 207.348525 254.855564 
L 207.348525 254.855564 
L 207.348525 250.464277 
L 207.348525 250.464277 
L 207.348525 246.07299 
L 207.348525 246.07299 
L 207.348525 241.681703 
L 207.348525 241.681703 
L 207.348525 237.290416 
L 207.348525 237.290416 
L 207.348525 232.899129 
L 207.348525 232.899129 
L 207.348525 228.507842 
L 207.348525 228.507842 
L 207.348525 224.116554 
L 207.348525 224.116554 
L 207.348525 219.725267 
L 207.348525 219.725267 
L 207.348525 215.33398 
L 207.348525 215.33398 
L 207.348525 210.942693 
L 207.348525 210.942693 
L 207.348525 206.551406 
L 207.348525 206.551406 
L 207.348525 202.160119 
L 212.167908 202.160119 
L 212.167908 197.768832 
L 214.20266 197.768832 
L 214.20266 193.377545 
L 214.74239 193.377545 
L 214.74239 188.986257 
L 215.511899 188.986257 
L 215.511899 184.59497 
L 220.630542 184.59497 
L 220.630542 180.203683 
L 221.169488 180.203683 
L 221.169488 175.812396 
L 226.319394 175.812396 
L 226.319394 171.421109 
L 228.506455 171.421109 
L 228.506455 167.029822 
L 229.756805 167.029822 
L 229.756805 162.638535 
L 230.156685 162.638535 
L 230.156685 158.247248 
L 231.616647 158.247248 
L 231.616647 153.85596 
L 232.912349 153.85596 
L 232.912349 149.464673 
L 234.654887 149.464673 
L 234.654887 145.073386 
L 236.465541 145.073386 
L 236.465541 140.682099 
L 238.833809 140.682099 
L 238.833809 136.290812 
L 243.037787 136.290812 
L 243.037787 131.899525 
L 245.813809 131.899525 
L 245.813809 127.508238 
L 252.484933 127.508238 
L 252.484933 123.11695 
L 256.280799 123.11695 
L 256.280799 118.725663 
L 256.600394 118.725663 
L 256.600394 114.334376 
L 257.312095 114.334376 
L 257.312095 109.943089 
L 257.75404 109.943089 
L 257.75404 105.551802 
L 258.958882 105.551802 
L 258.958882 101.160515 
L 259.371453 101.160515 
L 259.371453 96.769228 
L 262.610713 96.769228 
L 262.610713 92.377941 
L 264.729398 92.377941 
L 264.729398 87.986653 
L 265.318661 87.986653 
L 265.318661 83.595366 
L 266.829125 83.595366 
L 266.829125 79.204079 
L 267.206142 79.204079 
L 267.206142 74.812792 
L 268.395168 74.812792 
L 268.395168 70.421505 
L 269.394563 70.421505 
L 269.394563 66.030218 
L 272.216772 66.030218 
L 272.216772 61.638931 
L 274.801136 61.638931 
L 274.801136 57.247644 
L 276.847996 57.247644 
L 276.847996 52.856356 
L 277.888026 52.856356 
L 277.888026 48.465069 
L 278.700216 48.465069 
L 278.700216 44.073782 
L 282.863699 44.073782 
L 282.863699 39.682495 
L 283.500852 39.682495 
L 283.500852 35.291208 
L 284.483985 35.291208 
L 284.483985 30.899921 
L 284.807058 30.899921 
L 284.807058 26.508634 
L 289.901771 26.508634 
L 289.901771 22.117347 
L 295.609662 22.117347 
L 295.609662 17.726059 
L 298.175754 17.726059 
L 298.175754 13.334772 
L 298.175754 13.334772 
L 298.175754 13.334772 
L 367.82 13.334772 
" style="fill:none;stroke:#000000;stroke-linecap:square;stroke-width:1.5;"/>
   </g>
   <g id="line2d_27">
    <path clip-path="url(#pd17f8bbd48)" d="M 190.998939 276.812 
L 190.998939 272.420713 
L 199.719606 272.420713 
L 199.719606 268.029426 
L 205.798178 268.029426 
L 205.798178 263.638139 
L 206.63043 263.638139 
L 206.63043 259.246851 
L 207.348525 259.246851 
L 207.348525 254.855564 
L 207.348525 254.855564 
L 207.348525 250.464277 
L 207.348525 250.464277 
L 207.348525 246.07299 
L 207.348525 246.07299 
L 207.348525 241.681703 
L 207.348525 241.681703 
L 207.348525 237.290416 
L 207.348525 237.290416 
L 207.348525 232.899129 
L 207.348525 232.899129 
L 207.348525 228.507842 
L 207.348525 228.507842 
L 207.348525 224.116554 
L 207.348525 224.116554 
L 207.348525 219.725267 
L 207.348525 219.725267 
L 207.348525 215.33398 
L 207.348525 215.33398 
L 207.348525 210.942693 
L 207.348525 210.942693 
L 207.348525 206.551406 
L 207.348525 206.551406 
L 207.348525 202.160119 
L 209.226075 202.160119 
L 209.226075 197.768832 
L 212.814271 197.768832 
L 212.814271 193.377545 
L 214.532666 193.377545 
L 214.532666 188.986257 
L 215.511899 188.986257 
L 215.511899 184.59497 
L 218.102464 184.59497 
L 218.102464 180.203683 
L 219.181609 180.203683 
L 219.181609 175.812396 
L 220.247069 175.812396 
L 220.247069 171.421109 
L 228.506455 171.421109 
L 228.506455 167.029822 
L 229.756805 167.029822 
L 229.756805 162.638535 
L 230.156685 162.638535 
L 230.156685 158.247248 
L 230.431873 158.247248 
L 230.431873 153.85596 
L 231.79586 153.85596 
L 231.79586 149.464673 
L 234.654887 149.464673 
L 234.654887 145.073386 
L 236.465541 145.073386 
L 236.465541 140.682099 
L 238.833809 140.682099 
L 238.833809 136.290812 
L 243.037787 136.290812 
L 243.037787 131.899525 
L 245.230286 131.899525 
L 245.230286 127.508238 
L 252.484933 127.508238 
L 252.484933 123.11695 
L 255.202135 123.11695 
L 255.202135 118.725663 
L 256.299857 118.725663 
L 256.299857 114.334376 
L 257.312095 114.334376 
L 257.312095 109.943089 
L 257.75404 109.943089 
L 257.75404 105.551802 
L 258.866023 105.551802 
L 258.866023 101.160515 
L 258.958882 101.160515 
L 258.958882 96.769228 
L 262.610713 96.769228 
L 262.610713 92.377941 
L 264.729398 92.377941 
L 264.729398 87.986653 
L 265.318661 87.986653 
L 265.318661 83.595366 
L 266.798527 83.595366 
L 266.798527 79.204079 
L 266.829125 79.204079 
L 266.829125 74.812792 
L 268.037778 74.812792 
L 268.037778 70.421505 
L 269.394563 70.421505 
L 269.394563 66.030218 
L 272.216772 66.030218 
L 272.216772 61.638931 
L 274.277872 61.638931 
L 274.277872 57.247644 
L 274.801136 57.247644 
L 274.801136 52.856356 
L 277.727331 52.856356 
L 277.727331 48.465069 
L 278.56699 48.465069 
L 278.56699 44.073782 
L 282.863699 44.073782 
L 282.863699 39.682495 
L 283.30901 39.682495 
L 283.30901 35.291208 
L 283.413616 35.291208 
L 283.413616 30.899921 
L 284.807058 30.899921 
L 284.807058 26.508634 
L 288.784633 26.508634 
L 288.784633 22.117347 
L 295.609662 22.117347 
L 295.609662 17.726059 
L 298.175754 17.726059 
L 298.175754 13.334772 
L 298.175754 13.334772 
L 298.175754 13.334772 
L 367.82 13.334772 
" style="fill:none;stroke:#00bfbf;stroke-linecap:square;stroke-width:1.5;"/>
   </g>
   <g id="line2d_28">
    <path clip-path="url(#pd17f8bbd48)" d="M 190.998939 276.812 
L 190.998939 272.420713 
L 197.130397 272.420713 
L 197.130397 268.029426 
L 197.388183 268.029426 
L 197.388183 263.638139 
L 199.53274 263.638139 
L 199.53274 259.246851 
L 200.82683 259.246851 
L 200.82683 254.855564 
L 203.092227 254.855564 
L 203.092227 250.464277 
L 203.590156 250.464277 
L 203.590156 246.07299 
L 205.785047 246.07299 
L 205.785047 241.681703 
L 207.058355 241.681703 
L 207.058355 237.290416 
L 207.348525 237.290416 
L 207.348525 232.899129 
L 207.348525 232.899129 
L 207.348525 228.507842 
L 207.348525 228.507842 
L 207.348525 224.116554 
L 207.348525 224.116554 
L 207.348525 219.725267 
L 207.348525 219.725267 
L 207.348525 215.33398 
L 207.348525 215.33398 
L 207.348525 210.942693 
L 207.348525 210.942693 
L 207.348525 206.551406 
L 207.348525 206.551406 
L 207.348525 202.160119 
L 209.226075 202.160119 
L 209.226075 197.768832 
L 212.789458 197.768832 
L 212.789458 193.377545 
L 213.12993 193.377545 
L 213.12993 188.986257 
L 213.748941 188.986257 
L 213.748941 184.59497 
L 217.330541 184.59497 
L 217.330541 180.203683 
L 218.185661 180.203683 
L 218.185661 175.812396 
L 219.548977 175.812396 
L 219.548977 171.421109 
L 226.345712 171.421109 
L 226.345712 167.029822 
L 227.585521 167.029822 
L 227.585521 162.638535 
L 227.619007 162.638535 
L 227.619007 158.247248 
L 228.92194 158.247248 
L 228.92194 153.85596 
L 231.111024 153.85596 
L 231.111024 149.464673 
L 233.797368 149.464673 
L 233.797368 145.073386 
L 235.108228 145.073386 
L 235.108228 140.682099 
L 238.600658 140.682099 
L 238.600658 136.290812 
L 243.037787 136.290812 
L 243.037787 131.899525 
L 244.880495 131.899525 
L 244.880495 127.508238 
L 252.484933 127.508238 
L 252.484933 123.11695 
L 254.666359 123.11695 
L 254.666359 118.725663 
L 254.96713 118.725663 
L 254.96713 114.334376 
L 257.143804 114.334376 
L 257.143804 109.943089 
L 257.524556 109.943089 
L 257.524556 105.551802 
L 257.704524 105.551802 
L 257.704524 101.160515 
L 258.863497 101.160515 
L 258.863497 96.769228 
L 262.02628 96.769228 
L 262.02628 92.377941 
L 264.334847 92.377941 
L 264.334847 87.986653 
L 264.773768 87.986653 
L 264.773768 83.595366 
L 266.029938 83.595366 
L 266.029938 79.204079 
L 266.798527 79.204079 
L 266.798527 74.812792 
L 267.596568 74.812792 
L 267.596568 70.421505 
L 268.737526 70.421505 
L 268.737526 66.030218 
L 270.960625 66.030218 
L 270.960625 61.638931 
L 272.953975 61.638931 
L 272.953975 57.247644 
L 274.801136 57.247644 
L 274.801136 52.856356 
L 277.145535 52.856356 
L 277.145535 48.465069 
L 278.382533 48.465069 
L 278.382533 44.073782 
L 282.863699 44.073782 
L 282.863699 39.682495 
L 282.874196 39.682495 
L 282.874196 35.291208 
L 283.413616 35.291208 
L 283.413616 30.899921 
L 284.807058 30.899921 
L 284.807058 26.508634 
L 288.24508 26.508634 
L 288.24508 22.117347 
L 295.609662 22.117347 
L 295.609662 17.726059 
L 298.038405 17.726059 
L 298.038405 13.334772 
L 298.038405 13.334772 
L 298.038405 13.334772 
L 367.82 13.334772 
" style="fill:none;stroke:#bf00bf;stroke-linecap:square;stroke-width:1.5;"/>
   </g>
   <g id="line2d_29">
    <path clip-path="url(#pd17f8bbd48)" d="M 190.47461 276.812 
L 190.47461 272.420713 
L 191.396339 272.420713 
L 191.396339 268.029426 
L 192.471084 268.029426 
L 192.471084 263.638139 
L 196.870139 263.638139 
L 196.870139 259.246851 
L 197.068364 259.246851 
L 197.068364 254.855564 
L 198.90276 254.855564 
L 198.90276 250.464277 
L 199.051427 250.464277 
L 199.051427 246.07299 
L 202.450966 246.07299 
L 202.450966 241.681703 
L 202.591539 241.681703 
L 202.591539 237.290416 
L 204.771253 237.290416 
L 204.771253 232.899129 
L 207.348525 232.899129 
L 207.348525 228.507842 
L 207.348525 228.507842 
L 207.348525 224.116554 
L 207.348525 224.116554 
L 207.348525 219.725267 
L 207.348525 219.725267 
L 207.348525 215.33398 
L 207.348525 215.33398 
L 207.348525 210.942693 
L 207.348525 210.942693 
L 207.348525 206.551406 
L 207.348525 206.551406 
L 207.348525 202.160119 
L 209.224056 202.160119 
L 209.224056 197.768832 
L 212.239152 197.768832 
L 212.239152 193.377545 
L 212.998925 193.377545 
L 212.998925 188.986257 
L 213.057122 188.986257 
L 213.057122 184.59497 
L 217.330541 184.59497 
L 217.330541 180.203683 
L 218.132602 180.203683 
L 218.132602 175.812396 
L 218.185661 175.812396 
L 218.185661 171.421109 
L 226.345712 171.421109 
L 226.345712 167.029822 
L 227.410351 167.029822 
L 227.410351 162.638535 
L 227.452827 162.638535 
L 227.452827 158.247248 
L 228.92194 158.247248 
L 228.92194 153.85596 
L 229.642546 153.85596 
L 229.642546 149.464673 
L 233.797368 149.464673 
L 233.797368 145.073386 
L 234.368518 145.073386 
L 234.368518 140.682099 
L 237.546586 140.682099 
L 237.546586 136.290812 
L 243.037787 136.290812 
L 243.037787 131.899525 
L 244.264206 131.899525 
L 244.264206 127.508238 
L 252.480964 127.508238 
L 252.480964 123.11695 
L 254.369827 123.11695 
L 254.369827 118.725663 
L 254.610445 118.725663 
L 254.610445 114.334376 
L 256.32938 114.334376 
L 256.32938 109.943089 
L 256.985342 109.943089 
L 256.985342 105.551802 
L 257.174288 105.551802 
L 257.174288 101.160515 
L 258.767619 101.160515 
L 258.767619 96.769228 
L 261.666364 96.769228 
L 261.666364 92.377941 
L 263.962124 92.377941 
L 263.962124 87.986653 
L 264.314423 87.986653 
L 264.314423 83.595366 
L 265.656296 83.595366 
L 265.656296 79.204079 
L 266.090113 79.204079 
L 266.090113 74.812792 
L 266.867022 74.812792 
L 266.867022 70.421505 
L 268.577817 70.421505 
L 268.577817 66.030218 
L 268.894798 66.030218 
L 268.894798 61.638931 
L 272.591221 61.638931 
L 272.591221 57.247644 
L 274.801136 57.247644 
L 274.801136 52.856356 
L 276.491119 52.856356 
L 276.491119 48.465069 
L 278.333141 48.465069 
L 278.333141 44.073782 
L 282.233914 44.073782 
L 282.233914 39.682495 
L 282.863699 39.682495 
L 282.863699 35.291208 
L 283.413616 35.291208 
L 283.413616 30.899921 
L 284.669318 30.899921 
L 284.669318 26.508634 
L 288.231457 26.508634 
L 288.231457 22.117347 
L 295.609662 22.117347 
L 295.609662 17.726059 
L 298.013517 17.726059 
L 298.013517 13.334772 
L 298.013517 13.334772 
L 298.013517 13.334772 
L 367.82 13.334772 
" style="fill:none;stroke:#000000;stroke-linecap:square;stroke-width:1.5;"/>
   </g>
   <g id="line2d_30">
    <path clip-path="url(#pd17f8bbd48)" d="M 170.005521 276.812 
L 170.005521 272.420713 
L 181.864499 272.420713 
L 181.864499 268.029426 
L 185.767303 268.029426 
L 185.767303 263.638139 
L 187.65125 263.638139 
L 187.65125 259.246851 
L 190.415175 259.246851 
L 190.415175 254.855564 
L 193.408217 254.855564 
L 193.408217 250.464277 
L 196.473528 250.464277 
L 196.473528 246.07299 
L 197.135414 246.07299 
L 197.135414 241.681703 
L 197.693788 241.681703 
L 197.693788 237.290416 
L 197.745213 237.290416 
L 197.745213 232.899129 
L 202.522656 232.899129 
L 202.522656 228.507842 
L 204.43485 228.507842 
L 204.43485 224.116554 
L 204.929204 224.116554 
L 204.929204 219.725267 
L 205.455534 219.725267 
L 205.455534 215.33398 
L 206.576602 215.33398 
L 206.576602 210.942693 
L 206.618246 210.942693 
L 206.618246 206.551406 
L 206.922434 206.551406 
L 206.922434 202.160119 
L 207.348525 202.160119 
L 207.348525 197.768832 
L 207.348525 197.768832 
L 207.348525 193.377545 
L 211.836369 193.377545 
L 211.836369 188.986257 
L 212.764239 188.986257 
L 212.764239 184.59497 
L 215.674828 184.59497 
L 215.674828 180.203683 
L 216.789543 180.203683 
L 216.789543 175.812396 
L 218.089214 175.812396 
L 218.089214 171.421109 
L 225.80279 171.421109 
L 225.80279 167.029822 
L 225.905994 167.029822 
L 225.905994 162.638535 
L 226.083328 162.638535 
L 226.083328 158.247248 
L 228.372324 158.247248 
L 228.372324 153.85596 
L 229.642546 153.85596 
L 229.642546 149.464673 
L 232.899604 149.464673 
L 232.899604 145.073386 
L 233.723511 145.073386 
L 233.723511 140.682099 
L 237.482094 140.682099 
L 237.482094 136.290812 
L 243.037787 136.290812 
L 243.037787 131.899525 
L 244.240674 131.899525 
L 244.240674 127.508238 
L 246.482889 127.508238 
L 246.482889 123.11695 
L 253.971312 123.11695 
L 253.971312 118.725663 
L 254.00613 118.725663 
L 254.00613 114.334376 
L 255.380226 114.334376 
L 255.380226 109.943089 
L 256.876366 109.943089 
L 256.876366 105.551802 
L 256.988479 105.551802 
L 256.988479 101.160515 
L 258.57574 101.160515 
L 258.57574 96.769228 
L 261.013289 96.769228 
L 261.013289 92.377941 
L 263.489352 92.377941 
L 263.489352 87.986653 
L 264.192582 87.986653 
L 264.192582 83.595366 
L 265.113893 83.595366 
L 265.113893 79.204079 
L 265.657481 79.204079 
L 265.657481 74.812792 
L 266.229639 74.812792 
L 266.229639 70.421505 
L 267.232031 70.421505 
L 267.232031 66.030218 
L 268.055453 66.030218 
L 268.055453 61.638931 
L 272.485371 61.638931 
L 272.485371 57.247644 
L 274.801136 57.247644 
L 274.801136 52.856356 
L 275.826123 52.856356 
L 275.826123 48.465069 
L 278.293646 48.465069 
L 278.293646 44.073782 
L 280.815844 44.073782 
L 280.815844 39.682495 
L 282.831242 39.682495 
L 282.831242 35.291208 
L 282.863699 35.291208 
L 282.863699 30.899921 
L 284.358722 30.899921 
L 284.358722 26.508634 
L 287.866214 26.508634 
L 287.866214 22.117347 
L 295.609662 22.117347 
L 295.609662 17.726059 
L 297.959884 17.726059 
L 297.959884 13.334772 
L 297.959884 13.334772 
L 297.959884 13.334772 
L 367.82 13.334772 
" style="fill:none;stroke:#00bfbf;stroke-linecap:square;stroke-width:1.5;"/>
   </g>
   <g id="patch_3">
    <path d="M 10.7 276.812 
L 10.7 10.7 
" style="fill:none;stroke:#000000;stroke-linecap:square;stroke-linejoin:miter;stroke-width:0.8;"/>
   </g>
   <g id="patch_4">
    <path d="M 367.82 276.812 
L 367.82 10.7 
" style="fill:none;stroke:#000000;stroke-linecap:square;stroke-linejoin:miter;stroke-width:0.8;"/>
   </g>
   <g id="patch_5">
    <path d="M 10.7 276.812 
L 367.82 276.812 
" style="fill:none;stroke:#000000;stroke-linecap:square;stroke-linejoin:miter;stroke-width:0.8;"/>
   </g>
   <g id="patch_6">
    <path d="M 10.7 10.7 
L 367.82 10.7 
" style="fill:none;stroke:#000000;stroke-linecap:square;stroke-linejoin:miter;stroke-width:0.8;"/>
   </g>
   <g id="text_6">
    <!-- {f6-f9}, 5-D -->
    <defs>
     <path d="M 51.125 -9.28125 
L 51.125 -16.3125 
L 48.09375 -16.3125 
Q 35.9375 -16.3125 31.8125 -12.6875 
Q 27.6875 -9.078125 27.6875 1.703125 
L 27.6875 13.375 
Q 27.6875 20.75 25.046875 23.578125 
Q 22.40625 26.421875 15.484375 26.421875 
L 12.5 26.421875 
L 12.5 33.40625 
L 15.484375 33.40625 
Q 22.46875 33.40625 25.078125 36.203125 
Q 27.6875 39.015625 27.6875 46.296875 
L 27.6875 58.015625 
Q 27.6875 68.796875 31.8125 72.390625 
Q 35.9375 75.984375 48.09375 75.984375 
L 51.125 75.984375 
L 51.125 69 
L 47.796875 69 
Q 40.921875 69 38.8125 66.84375 
Q 36.71875 64.703125 36.71875 57.8125 
L 36.71875 45.703125 
Q 36.71875 38.03125 34.5 34.5625 
Q 32.28125 31.109375 26.90625 29.890625 
Q 32.328125 28.5625 34.515625 25.09375 
Q 36.71875 21.625 36.71875 14.015625 
L 36.71875 1.90625 
Q 36.71875 -4.984375 38.8125 -7.125 
Q 40.921875 -9.28125 47.796875 -9.28125 
z
" id="DejaVuSans-7b"/>
     <path d="M 33.015625 40.375 
Q 26.375 40.375 22.484375 35.828125 
Q 18.609375 31.296875 18.609375 23.390625 
Q 18.609375 15.53125 22.484375 10.953125 
Q 26.375 6.390625 33.015625 6.390625 
Q 39.65625 6.390625 43.53125 10.953125 
Q 47.40625 15.53125 47.40625 23.390625 
Q 47.40625 31.296875 43.53125 35.828125 
Q 39.65625 40.375 33.015625 40.375 
M 52.59375 71.296875 
L 52.59375 62.3125 
Q 48.875 64.0625 45.09375 64.984375 
Q 41.3125 65.921875 37.59375 65.921875 
Q 27.828125 65.921875 22.671875 59.328125 
Q 17.53125 52.734375 16.796875 39.40625 
Q 19.671875 43.65625 24.015625 45.921875 
Q 28.375 48.1875 33.59375 48.1875 
Q 44.578125 48.1875 50.953125 41.515625 
Q 57.328125 34.859375 57.328125 23.390625 
Q 57.328125 12.15625 50.6875 5.359375 
Q 44.046875 -1.421875 33.015625 -1.421875 
Q 20.359375 -1.421875 13.671875 8.265625 
Q 6.984375 17.96875 6.984375 36.375 
Q 6.984375 53.65625 15.1875 63.9375 
Q 23.390625 74.21875 37.203125 74.21875 
Q 40.921875 74.21875 44.703125 73.484375 
Q 48.484375 72.75 52.59375 71.296875 
" id="DejaVuSans-36"/>
     <path d="M 10.984375 1.515625 
L 10.984375 10.5 
Q 14.703125 8.734375 18.5 7.8125 
Q 22.3125 6.890625 25.984375 6.890625 
Q 35.75 6.890625 40.890625 13.453125 
Q 46.046875 20.015625 46.78125 33.40625 
Q 43.953125 29.203125 39.59375 26.953125 
Q 35.25 24.703125 29.984375 24.703125 
Q 19.046875 24.703125 12.671875 31.3125 
Q 6.296875 37.9375 6.296875 49.421875 
Q 6.296875 60.640625 12.9375 67.421875 
Q 19.578125 74.21875 30.609375 74.21875 
Q 43.265625 74.21875 49.921875 64.515625 
Q 56.59375 54.828125 56.59375 36.375 
Q 56.59375 19.140625 48.40625 8.859375 
Q 40.234375 -1.421875 26.421875 -1.421875 
Q 22.703125 -1.421875 18.890625 -0.6875 
Q 15.09375 0.046875 10.984375 1.515625 
M 30.609375 32.421875 
Q 37.25 32.421875 41.125 36.953125 
Q 45.015625 41.5 45.015625 49.421875 
Q 45.015625 57.28125 41.125 61.84375 
Q 37.25 66.40625 30.609375 66.40625 
Q 23.96875 66.40625 20.09375 61.84375 
Q 16.21875 57.28125 16.21875 49.421875 
Q 16.21875 41.5 20.09375 36.953125 
Q 23.96875 32.421875 30.609375 32.421875 
" id="DejaVuSans-39"/>
     <path d="M 12.5 -9.28125 
L 15.921875 -9.28125 
Q 22.75 -9.28125 24.828125 -7.171875 
Q 26.90625 -5.078125 26.90625 1.90625 
L 26.90625 14.015625 
Q 26.90625 21.625 29.09375 25.09375 
Q 31.296875 28.5625 36.71875 29.890625 
Q 31.296875 31.109375 29.09375 34.5625 
Q 26.90625 38.03125 26.90625 45.703125 
L 26.90625 57.8125 
Q 26.90625 64.75 24.828125 66.875 
Q 22.75 69 15.921875 69 
L 12.5 69 
L 12.5 75.984375 
L 15.578125 75.984375 
Q 27.734375 75.984375 31.8125 72.390625 
Q 35.890625 68.796875 35.890625 58.015625 
L 35.890625 46.296875 
Q 35.890625 39.015625 38.515625 36.203125 
Q 41.15625 33.40625 48.09375 33.40625 
L 51.125 33.40625 
L 51.125 26.421875 
L 48.09375 26.421875 
Q 41.15625 26.421875 38.515625 23.578125 
Q 35.890625 20.75 35.890625 13.375 
L 35.890625 1.703125 
Q 35.890625 -9.078125 31.8125 -12.6875 
Q 27.734375 -16.3125 15.578125 -16.3125 
L 12.5 -16.3125 
z
" id="DejaVuSans-7d"/>
     <path d="M 11.71875 12.40625 
L 22.015625 12.40625 
L 22.015625 4 
L 14.015625 -11.625 
L 7.71875 -11.625 
L 11.71875 4 
z
" id="DejaVuSans-2c"/>
     <path d="M 10.796875 72.90625 
L 49.515625 72.90625 
L 49.515625 64.59375 
L 19.828125 64.59375 
L 19.828125 46.734375 
Q 21.96875 47.46875 24.109375 47.828125 
Q 26.265625 48.1875 28.421875 48.1875 
Q 40.625 48.1875 47.75 41.5 
Q 54.890625 34.8125 54.890625 23.390625 
Q 54.890625 11.625 47.5625 5.09375 
Q 40.234375 -1.421875 26.90625 -1.421875 
Q 22.3125 -1.421875 17.546875 -0.640625 
Q 12.796875 0.140625 7.71875 1.703125 
L 7.71875 11.625 
Q 12.109375 9.234375 16.796875 8.0625 
Q 21.484375 6.890625 26.703125 6.890625 
Q 35.15625 6.890625 40.078125 11.328125 
Q 45.015625 15.765625 45.015625 23.390625 
Q 45.015625 31 40.078125 35.4375 
Q 35.15625 39.890625 26.703125 39.890625 
Q 22.75 39.890625 18.8125 39.015625 
Q 14.890625 38.140625 10.796875 36.28125 
z
" id="DejaVuSans-35"/>
    </defs>
    <g transform="translate(240.4276 271.48976)scale(0.2 -0.2)">
     <use xlink:href="#DejaVuSans-7b"/>
     <use x="63.623047" xlink:href="#DejaVuSans-66"/>
     <use x="98.828125" xlink:href="#DejaVuSans-36"/>
     <use x="162.451172" xlink:href="#DejaVuSans-2d"/>
     <use x="198.535156" xlink:href="#DejaVuSans-66"/>
     <use x="233.740234" xlink:href="#DejaVuSans-39"/>
     <use x="297.363281" xlink:href="#DejaVuSans-7d"/>
     <use x="360.986328" xlink:href="#DejaVuSans-2c"/>
     <use x="392.773438" xlink:href="#DejaVuSans-20"/>
     <use x="424.560547" xlink:href="#DejaVuSans-35"/>
     <use x="488.183594" xlink:href="#DejaVuSans-2d"/>
     <use x="524.267578" xlink:href="#DejaVuSans-44"/>
    </g>
   </g>
   <g id="text_7">
    <!-- v2.1 -->
    <defs>
     <path d="M 2.984375 54.6875 
L 12.5 54.6875 
L 29.59375 8.796875 
L 46.6875 54.6875 
L 56.203125 54.6875 
L 35.6875 0 
L 23.484375 0 
z
" id="DejaVuSans-76"/>
     <path d="M 19.1875 8.296875 
L 53.609375 8.296875 
L 53.609375 0 
L 7.328125 0 
L 7.328125 8.296875 
Q 12.9375 14.109375 22.625 23.890625 
Q 32.328125 33.6875 34.8125 36.53125 
Q 39.546875 41.84375 41.421875 45.53125 
Q 43.3125 49.21875 43.3125 52.78125 
Q 43.3125 58.59375 39.234375 62.25 
Q 35.15625 65.921875 28.609375 65.921875 
Q 23.96875 65.921875 18.8125 64.3125 
Q 13.671875 62.703125 7.8125 59.421875 
L 7.8125 69.390625 
Q 13.765625 71.78125 18.9375 73 
Q 24.125 74.21875 28.421875 74.21875 
Q 39.75 74.21875 46.484375 68.546875 
Q 53.21875 62.890625 53.21875 53.421875 
Q 53.21875 48.921875 51.53125 44.890625 
Q 49.859375 40.875 45.40625 35.40625 
Q 44.1875 33.984375 37.640625 27.21875 
Q 31.109375 20.453125 19.1875 8.296875 
" id="DejaVuSans-32"/>
     <path d="M 10.6875 12.40625 
L 21 12.40625 
L 21 0 
L 10.6875 0 
z
" id="DejaVuSans-2e"/>
    </defs>
    <g style="fill:#808080;" transform="translate(178.349063 272.071193)scale(0.1 -0.1)">
     <use xlink:href="#DejaVuSans-76"/>
     <use x="59.179688" xlink:href="#DejaVuSans-32"/>
     <use x="122.802734" xlink:href="#DejaVuSans-2e"/>
     <use x="154.589844" xlink:href="#DejaVuSans-31"/>
    </g>
   </g>
  </g>
 </g>
 <defs>
  <clipPath id="pd17f8bbd48">
   <rect height="266.112" width="357.12" x="10.7" y="10.7"/>
  </clipPath>
 </defs>
</svg>
