<?xml version="1.0" encoding="utf-8" standalone="no"?>
<!DOCTYPE svg PUBLIC "-//W3C//DTD SVG 1.1//EN"
  "http://www.w3.org/Graphics/SVG/1.1/DTD/svg11.dtd">
<!-- Created with matplotlib (http://matplotlib.org/) -->
<svg height="333pt" version="1.1" viewBox="0 0 378 333" width="378pt" xmlns="http://www.w3.org/2000/svg" xmlns:xlink="http://www.w3.org/1999/xlink">
 <defs>
  <style type="text/css">
*{stroke-linecap:butt;stroke-linejoin:round;}
  </style>
 </defs>
 <g id="figure_1">
  <g id="patch_1">
   <path d="M 0 333.7245 
L 378.52 333.7245 
L 378.52 0 
L 0 0 
z
" style="fill:#ffffff;"/>
  </g>
  <g id="axes_1">
   <g id="patch_2">
    <path d="M 10.7 276.812 
L 367.82 276.812 
L 367.82 10.7 
L 10.7 10.7 
z
" style="fill:#ffffff;"/>
   </g>
   <g id="matplotlib.axis_1">
    <g id="xtick_1">
     <g id="line2d_1">
      <path clip-path="url(#pa4d6b9df04)" d="M 10.609699 276.812 
L 10.609699 10.7 
" style="fill:none;stroke:#b0b0b0;stroke-linecap:square;stroke-width:0.8;"/>
     </g>
     <g id="line2d_2">
      <defs>
       <path d="M 0 0 
L 0 3.5 
" id="mb679b52f7f" style="stroke:#000000;stroke-width:0.8;"/>
      </defs>
      <g>
       <use style="stroke:#000000;stroke-width:0.8;" x="10.609699" xlink:href="#mb679b52f7f" y="276.812"/>
      </g>
     </g>
    </g>
    <g id="xtick_2">
     <g id="line2d_3">
      <path clip-path="url(#pa4d6b9df04)" d="M 94.195204 276.812 
L 94.195204 10.7 
" style="fill:none;stroke:#b0b0b0;stroke-linecap:square;stroke-width:0.8;"/>
     </g>
     <g id="line2d_4">
      <g>
       <use style="stroke:#000000;stroke-width:0.8;" x="94.195204" xlink:href="#mb679b52f7f" y="276.812"/>
      </g>
     </g>
     <g id="text_1">
      <!-- -4 -->
      <defs>
       <path d="M 4.890625 31.390625 
L 31.203125 31.390625 
L 31.203125 23.390625 
L 4.890625 23.390625 
z
" id="DejaVuSans-2d"/>
       <path d="M 37.796875 64.3125 
L 12.890625 25.390625 
L 37.796875 25.390625 
z
M 35.203125 72.90625 
L 47.609375 72.90625 
L 47.609375 25.390625 
L 58.015625 25.390625 
L 58.015625 17.1875 
L 47.609375 17.1875 
L 47.609375 0 
L 37.796875 0 
L 37.796875 17.1875 
L 4.890625 17.1875 
L 4.890625 26.703125 
z
" id="DejaVuSans-34"/>
      </defs>
      <g transform="translate(84.224892 299.008875)scale(0.2 -0.2)">
       <use xlink:href="#DejaVuSans-2d"/>
       <use x="36.083984" xlink:href="#DejaVuSans-34"/>
      </g>
     </g>
    </g>
    <g id="xtick_3">
     <g id="line2d_5">
      <path clip-path="url(#pa4d6b9df04)" d="M 177.780709 276.812 
L 177.780709 10.7 
" style="fill:none;stroke:#b0b0b0;stroke-linecap:square;stroke-width:0.8;"/>
     </g>
     <g id="line2d_6">
      <g>
       <use style="stroke:#000000;stroke-width:0.8;" x="177.780709" xlink:href="#mb679b52f7f" y="276.812"/>
      </g>
     </g>
     <g id="text_2">
      <!-- 0 -->
      <defs>
       <path d="M 31.78125 66.40625 
Q 24.171875 66.40625 20.328125 58.90625 
Q 16.5 51.421875 16.5 36.375 
Q 16.5 21.390625 20.328125 13.890625 
Q 24.171875 6.390625 31.78125 6.390625 
Q 39.453125 6.390625 43.28125 13.890625 
Q 47.125 21.390625 47.125 36.375 
Q 47.125 51.421875 43.28125 58.90625 
Q 39.453125 66.40625 31.78125 66.40625 
M 31.78125 74.21875 
Q 44.046875 74.21875 50.515625 64.515625 
Q 56.984375 54.828125 56.984375 36.375 
Q 56.984375 17.96875 50.515625 8.265625 
Q 44.046875 -1.421875 31.78125 -1.421875 
Q 19.53125 -1.421875 13.0625 8.265625 
Q 6.59375 17.96875 6.59375 36.375 
Q 6.59375 54.828125 13.0625 64.515625 
Q 19.53125 74.21875 31.78125 74.21875 
" id="DejaVuSans-30"/>
      </defs>
      <g transform="translate(171.418209 299.008875)scale(0.2 -0.2)">
       <use xlink:href="#DejaVuSans-30"/>
      </g>
     </g>
    </g>
    <g id="xtick_4">
     <g id="line2d_7">
      <path clip-path="url(#pa4d6b9df04)" d="M 261.366214 276.812 
L 261.366214 10.7 
" style="fill:none;stroke:#b0b0b0;stroke-linecap:square;stroke-width:0.8;"/>
     </g>
     <g id="line2d_8">
      <g>
       <use style="stroke:#000000;stroke-width:0.8;" x="261.366214" xlink:href="#mb679b52f7f" y="276.812"/>
      </g>
     </g>
     <g id="text_3">
      <!-- 4 -->
      <g transform="translate(255.003714 299.008875)scale(0.2 -0.2)">
       <use xlink:href="#DejaVuSans-34"/>
      </g>
     </g>
    </g>
    <g id="xtick_5">
     <g id="line2d_9">
      <path clip-path="url(#pa4d6b9df04)" d="M 344.951719 276.812 
L 344.951719 10.7 
" style="fill:none;stroke:#b0b0b0;stroke-linecap:square;stroke-width:0.8;"/>
     </g>
     <g id="line2d_10">
      <g>
       <use style="stroke:#000000;stroke-width:0.8;" x="344.951719" xlink:href="#mb679b52f7f" y="276.812"/>
      </g>
     </g>
     <g id="text_4">
      <!-- 8 -->
      <defs>
       <path d="M 31.78125 34.625 
Q 24.75 34.625 20.71875 30.859375 
Q 16.703125 27.09375 16.703125 20.515625 
Q 16.703125 13.921875 20.71875 10.15625 
Q 24.75 6.390625 31.78125 6.390625 
Q 38.8125 6.390625 42.859375 10.171875 
Q 46.921875 13.96875 46.921875 20.515625 
Q 46.921875 27.09375 42.890625 30.859375 
Q 38.875 34.625 31.78125 34.625 
M 21.921875 38.8125 
Q 15.578125 40.375 12.03125 44.71875 
Q 8.5 49.078125 8.5 55.328125 
Q 8.5 64.0625 14.71875 69.140625 
Q 20.953125 74.21875 31.78125 74.21875 
Q 42.671875 74.21875 48.875 69.140625 
Q 55.078125 64.0625 55.078125 55.328125 
Q 55.078125 49.078125 51.53125 44.71875 
Q 48 40.375 41.703125 38.8125 
Q 48.828125 37.15625 52.796875 32.3125 
Q 56.78125 27.484375 56.78125 20.515625 
Q 56.78125 9.90625 50.3125 4.234375 
Q 43.84375 -1.421875 31.78125 -1.421875 
Q 19.734375 -1.421875 13.25 4.234375 
Q 6.78125 9.90625 6.78125 20.515625 
Q 6.78125 27.484375 10.78125 32.3125 
Q 14.796875 37.15625 21.921875 38.8125 
M 18.3125 54.390625 
Q 18.3125 48.734375 21.84375 45.5625 
Q 25.390625 42.390625 31.78125 42.390625 
Q 38.140625 42.390625 41.71875 45.5625 
Q 45.3125 48.734375 45.3125 54.390625 
Q 45.3125 60.0625 41.71875 63.234375 
Q 38.140625 66.40625 31.78125 66.40625 
Q 25.390625 66.40625 21.84375 63.234375 
Q 18.3125 60.0625 18.3125 54.390625 
" id="DejaVuSans-38"/>
      </defs>
      <g transform="translate(338.589219 299.008875)scale(0.2 -0.2)">
       <use xlink:href="#DejaVuSans-38"/>
      </g>
     </g>
    </g>
    <g id="text_5">
     <!-- log10 of Df -->
     <defs>
      <path d="M 9.421875 75.984375 
L 18.40625 75.984375 
L 18.40625 0 
L 9.421875 0 
z
" id="DejaVuSans-6c"/>
      <path d="M 30.609375 48.390625 
Q 23.390625 48.390625 19.1875 42.75 
Q 14.984375 37.109375 14.984375 27.296875 
Q 14.984375 17.484375 19.15625 11.84375 
Q 23.34375 6.203125 30.609375 6.203125 
Q 37.796875 6.203125 41.984375 11.859375 
Q 46.1875 17.53125 46.1875 27.296875 
Q 46.1875 37.015625 41.984375 42.703125 
Q 37.796875 48.390625 30.609375 48.390625 
M 30.609375 56 
Q 42.328125 56 49.015625 48.375 
Q 55.71875 40.765625 55.71875 27.296875 
Q 55.71875 13.875 49.015625 6.21875 
Q 42.328125 -1.421875 30.609375 -1.421875 
Q 18.84375 -1.421875 12.171875 6.21875 
Q 5.515625 13.875 5.515625 27.296875 
Q 5.515625 40.765625 12.171875 48.375 
Q 18.84375 56 30.609375 56 
" id="DejaVuSans-6f"/>
      <path d="M 45.40625 27.984375 
Q 45.40625 37.75 41.375 43.109375 
Q 37.359375 48.484375 30.078125 48.484375 
Q 22.859375 48.484375 18.828125 43.109375 
Q 14.796875 37.75 14.796875 27.984375 
Q 14.796875 18.265625 18.828125 12.890625 
Q 22.859375 7.515625 30.078125 7.515625 
Q 37.359375 7.515625 41.375 12.890625 
Q 45.40625 18.265625 45.40625 27.984375 
M 54.390625 6.78125 
Q 54.390625 -7.171875 48.1875 -13.984375 
Q 42 -20.796875 29.203125 -20.796875 
Q 24.46875 -20.796875 20.265625 -20.09375 
Q 16.0625 -19.390625 12.109375 -17.921875 
L 12.109375 -9.1875 
Q 16.0625 -11.328125 19.921875 -12.34375 
Q 23.78125 -13.375 27.78125 -13.375 
Q 36.625 -13.375 41.015625 -8.765625 
Q 45.40625 -4.15625 45.40625 5.171875 
L 45.40625 9.625 
Q 42.625 4.78125 38.28125 2.390625 
Q 33.9375 0 27.875 0 
Q 17.828125 0 11.671875 7.65625 
Q 5.515625 15.328125 5.515625 27.984375 
Q 5.515625 40.671875 11.671875 48.328125 
Q 17.828125 56 27.875 56 
Q 33.9375 56 38.28125 53.609375 
Q 42.625 51.21875 45.40625 46.390625 
L 45.40625 54.6875 
L 54.390625 54.6875 
z
" id="DejaVuSans-67"/>
      <path d="M 12.40625 8.296875 
L 28.515625 8.296875 
L 28.515625 63.921875 
L 10.984375 60.40625 
L 10.984375 69.390625 
L 28.421875 72.90625 
L 38.28125 72.90625 
L 38.28125 8.296875 
L 54.390625 8.296875 
L 54.390625 0 
L 12.40625 0 
z
" id="DejaVuSans-31"/>
      <path id="DejaVuSans-20"/>
      <path d="M 37.109375 75.984375 
L 37.109375 68.5 
L 28.515625 68.5 
Q 23.6875 68.5 21.796875 66.546875 
Q 19.921875 64.59375 19.921875 59.515625 
L 19.921875 54.6875 
L 34.71875 54.6875 
L 34.71875 47.703125 
L 19.921875 47.703125 
L 19.921875 0 
L 10.890625 0 
L 10.890625 47.703125 
L 2.296875 47.703125 
L 2.296875 54.6875 
L 10.890625 54.6875 
L 10.890625 58.5 
Q 10.890625 67.625 15.140625 71.796875 
Q 19.390625 75.984375 28.609375 75.984375 
z
" id="DejaVuSans-66"/>
      <path d="M 19.671875 64.796875 
L 19.671875 8.109375 
L 31.59375 8.109375 
Q 46.6875 8.109375 53.6875 14.9375 
Q 60.6875 21.78125 60.6875 36.53125 
Q 60.6875 51.171875 53.6875 57.984375 
Q 46.6875 64.796875 31.59375 64.796875 
z
M 9.8125 72.90625 
L 30.078125 72.90625 
Q 51.265625 72.90625 61.171875 64.09375 
Q 71.09375 55.28125 71.09375 36.53125 
Q 71.09375 17.671875 61.125 8.828125 
Q 51.171875 0 30.078125 0 
L 9.8125 0 
z
" id="DejaVuSans-44"/>
     </defs>
     <g transform="translate(134.074063 322.365125)scale(0.2 -0.2)">
      <use xlink:href="#DejaVuSans-6c"/>
      <use x="27.783203" xlink:href="#DejaVuSans-6f"/>
      <use x="88.964844" xlink:href="#DejaVuSans-67"/>
      <use x="152.441406" xlink:href="#DejaVuSans-31"/>
      <use x="216.064453" xlink:href="#DejaVuSans-30"/>
      <use x="279.6875" xlink:href="#DejaVuSans-20"/>
      <use x="311.474609" xlink:href="#DejaVuSans-6f"/>
      <use x="372.65625" xlink:href="#DejaVuSans-66"/>
      <use x="407.861328" xlink:href="#DejaVuSans-20"/>
      <use x="439.648438" xlink:href="#DejaVuSans-44"/>
      <use x="516.650391" xlink:href="#DejaVuSans-66"/>
     </g>
    </g>
   </g>
   <g id="matplotlib.axis_2">
    <g id="ytick_1">
     <g id="line2d_11">
      <path clip-path="url(#pa4d6b9df04)" d="M 10.7 276.812 
L 367.82 276.812 
" style="fill:none;stroke:#b0b0b0;stroke-linecap:square;stroke-width:0.8;"/>
     </g>
     <g id="line2d_12">
      <defs>
       <path d="M 0 0 
L -3.5 0 
" id="ma130beb88a" style="stroke:#000000;stroke-width:0.8;"/>
      </defs>
      <g>
       <use style="stroke:#000000;stroke-width:0.8;" x="10.7" xlink:href="#ma130beb88a" y="276.812"/>
      </g>
     </g>
    </g>
    <g id="ytick_2">
     <g id="line2d_13">
      <path clip-path="url(#pa4d6b9df04)" d="M 10.7 224.116554 
L 367.82 224.116554 
" style="fill:none;stroke:#b0b0b0;stroke-linecap:square;stroke-width:0.8;"/>
     </g>
     <g id="line2d_14">
      <g>
       <use style="stroke:#000000;stroke-width:0.8;" x="10.7" xlink:href="#ma130beb88a" y="224.116554"/>
      </g>
     </g>
    </g>
    <g id="ytick_3">
     <g id="line2d_15">
      <path clip-path="url(#pa4d6b9df04)" d="M 10.7 171.421109 
L 367.82 171.421109 
" style="fill:none;stroke:#b0b0b0;stroke-linecap:square;stroke-width:0.8;"/>
     </g>
     <g id="line2d_16">
      <g>
       <use style="stroke:#000000;stroke-width:0.8;" x="10.7" xlink:href="#ma130beb88a" y="171.421109"/>
      </g>
     </g>
    </g>
    <g id="ytick_4">
     <g id="line2d_17">
      <path clip-path="url(#pa4d6b9df04)" d="M 10.7 118.725663 
L 367.82 118.725663 
" style="fill:none;stroke:#b0b0b0;stroke-linecap:square;stroke-width:0.8;"/>
     </g>
     <g id="line2d_18">
      <g>
       <use style="stroke:#000000;stroke-width:0.8;" x="10.7" xlink:href="#ma130beb88a" y="118.725663"/>
      </g>
     </g>
    </g>
    <g id="ytick_5">
     <g id="line2d_19">
      <path clip-path="url(#pa4d6b9df04)" d="M 10.7 66.030218 
L 367.82 66.030218 
" style="fill:none;stroke:#b0b0b0;stroke-linecap:square;stroke-width:0.8;"/>
     </g>
     <g id="line2d_20">
      <g>
       <use style="stroke:#000000;stroke-width:0.8;" x="10.7" xlink:href="#ma130beb88a" y="66.030218"/>
      </g>
     </g>
    </g>
    <g id="ytick_6">
     <g id="line2d_21">
      <path clip-path="url(#pa4d6b9df04)" d="M 10.7 13.334772 
L 367.82 13.334772 
" style="fill:none;stroke:#b0b0b0;stroke-linecap:square;stroke-width:0.8;"/>
     </g>
     <g id="line2d_22">
      <g>
       <use style="stroke:#000000;stroke-width:0.8;" x="10.7" xlink:href="#ma130beb88a" y="13.334772"/>
      </g>
     </g>
    </g>
   </g>
   <g id="line2d_23">
    <path clip-path="url(#pa4d6b9df04)" d="M 192.18736 276.812 
L 192.18736 273.29897 
L 197.485042 273.29897 
L 197.485042 269.785941 
L 197.597223 269.785941 
L 197.597223 266.272911 
L 198.56513 266.272911 
L 198.647115 259.246851 
L 199.74766 259.246851 
L 199.74766 255.733822 
L 201.160383 255.733822 
L 201.246052 248.707762 
L 202.715009 248.707762 
L 202.715009 245.194733 
L 203.175571 245.194733 
L 203.175571 241.681703 
L 204.194408 241.681703 
L 204.194408 238.168673 
L 204.48294 238.168673 
L 204.48294 234.655644 
L 204.734978 234.655644 
L 204.734978 231.142614 
L 206.279661 231.142614 
L 206.279661 227.629584 
L 206.416937 227.629584 
L 206.416937 224.116554 
L 207.161256 224.116554 
L 207.198091 217.090495 
L 210.679485 217.090495 
L 210.679485 213.577465 
L 210.834608 213.577465 
L 210.834608 210.064436 
L 211.749684 210.064436 
L 211.749684 206.551406 
L 212.377041 206.551406 
L 212.377041 203.038376 
L 212.663923 203.038376 
L 212.663923 199.525347 
L 212.894277 199.525347 
L 212.894277 196.012317 
L 213.127851 196.012317 
L 213.127851 192.499287 
L 214.379682 192.499287 
L 214.379682 188.986257 
L 214.767887 188.986257 
L 214.767887 185.473228 
L 215.677058 185.473228 
L 215.677058 181.960198 
L 216.306658 181.960198 
L 216.306658 178.447168 
L 216.6965 178.447168 
L 216.6965 174.934139 
L 217.046459 174.934139 
L 217.084389 167.908079 
L 218.442824 167.908079 
L 218.54069 157.36899 
L 218.600806 157.36899 
L 218.693634 150.342931 
L 219.175238 150.342931 
L 219.243357 143.316871 
L 219.326726 143.316871 
L 219.420443 136.290812 
L 219.517612 136.290812 
L 219.623638 125.751723 
L 219.693361 125.751723 
L 219.78914 111.699604 
L 219.847428 111.699604 
L 219.8584 104.673545 
L 220.010241 104.673545 
L 220.010241 101.160515 
L 220.415013 101.160515 
L 220.415013 97.647485 
L 221.064255 97.647485 
L 221.064255 94.134455 
L 221.583855 94.134455 
L 221.601701 87.108396 
L 223.217504 87.108396 
L 223.217504 83.595366 
L 225.181296 83.595366 
L 225.181296 80.082337 
L 226.799255 80.082337 
L 226.799255 76.569307 
L 230.535395 76.569307 
L 230.535395 73.056277 
L 231.27417 73.056277 
L 231.27417 69.543248 
L 232.224081 69.543248 
L 232.224081 66.030218 
L 233.766704 66.030218 
L 233.766704 62.517188 
L 262.065494 62.517188 
L 262.065494 59.004158 
L 262.946903 59.004158 
L 262.946903 55.491129 
L 277.416829 55.491129 
L 277.416829 51.978099 
L 282.959064 51.978099 
L 282.959064 48.465069 
L 289.929854 48.465069 
L 289.929854 44.95204 
L 294.432706 44.95204 
L 294.432706 41.43901 
L 298.581007 41.43901 
L 298.581007 37.92598 
L 301.612606 37.92598 
L 301.612606 34.41295 
L 310.422544 34.41295 
L 310.422544 30.899921 
L 312.54554 30.899921 
L 312.54554 27.386891 
L 315.861218 27.386891 
L 315.861218 23.873861 
L 319.221097 23.873861 
L 319.221097 20.360832 
L 323.330352 20.360832 
L 323.330352 16.847802 
L 325.294003 16.847802 
L 325.294003 13.334772 
L 325.294003 13.334772 
L 367.82 13.334772 
L 367.82 13.334772 
" style="fill:none;stroke:#ff0000;stroke-linecap:square;stroke-width:3;"/>
   </g>
   <g id="line2d_24">
    <path clip-path="url(#pa4d6b9df04)" d="M 198.780043 276.812 
L 198.780043 273.29897 
L 200.934368 273.29897 
L 201.004217 266.272911 
L 203.678548 266.272911 
L 203.678548 262.759881 
L 204.336874 262.759881 
L 204.336874 259.246851 
L 204.993155 259.246851 
L 204.993155 255.733822 
L 205.391804 255.733822 
L 205.391804 252.220792 
L 205.650898 252.220792 
L 205.650898 248.707762 
L 206.321298 248.707762 
L 206.321298 245.194733 
L 206.57826 245.194733 
L 206.57826 241.681703 
L 208.064537 241.681703 
L 208.064537 238.168673 
L 208.942349 238.168673 
L 208.942349 234.655644 
L 209.842834 234.655644 
L 209.842834 231.142614 
L 210.834608 231.142614 
L 210.834608 227.629584 
L 213.562778 227.629584 
L 213.562778 224.116554 
L 213.981817 224.116554 
L 213.981817 220.603525 
L 217.829041 220.603525 
L 217.829041 217.090495 
L 217.961901 217.090495 
L 217.961901 213.577465 
L 218.296002 213.577465 
L 218.374236 206.551406 
L 219.113262 206.551406 
L 219.113262 203.038376 
L 219.421966 203.038376 
L 219.421966 199.525347 
L 219.612069 199.525347 
L 219.612069 196.012317 
L 219.840927 196.012317 
L 219.934153 188.986257 
L 220.031388 188.986257 
L 220.031388 185.473228 
L 220.207533 185.473228 
L 220.256747 150.342931 
L 220.399346 150.342931 
L 220.399346 146.829901 
L 220.901215 146.829901 
L 220.901215 143.316871 
L 221.131688 143.316871 
L 221.131688 139.803842 
L 221.570843 139.803842 
L 221.570843 136.290812 
L 221.915981 136.290812 
L 221.915981 132.777782 
L 222.469765 132.777782 
L 222.525409 125.751723 
L 222.609176 125.751723 
L 222.698069 118.725663 
L 222.847505 118.725663 
L 222.869193 111.699604 
L 223.55554 111.699604 
L 223.55554 108.186574 
L 224.685239 108.186574 
L 224.781905 101.160515 
L 225.131687 101.160515 
L 225.131687 97.647485 
L 225.76719 97.647485 
L 225.838647 90.621426 
L 226.363784 90.621426 
L 226.363784 87.108396 
L 226.986377 87.108396 
L 226.986377 83.595366 
L 227.621373 83.595366 
L 227.621373 80.082337 
L 228.209058 80.082337 
L 228.209058 76.569307 
L 232.814622 76.569307 
L 232.814622 73.056277 
L 232.956051 73.056277 
L 232.956051 69.543248 
L 234.742219 69.543248 
L 234.742219 66.030218 
L 264.288044 66.030218 
L 264.288044 62.517188 
L 277.416829 62.517188 
L 277.416829 59.004158 
L 279.99373 59.004158 
L 279.99373 55.491129 
L 282.962025 55.491129 
L 282.962025 51.978099 
L 285.432056 51.978099 
L 285.432056 48.465069 
L 290.819562 48.465069 
L 290.819562 44.95204 
L 295.668658 44.95204 
L 295.668658 41.43901 
L 306.664248 41.43901 
L 306.664248 37.92598 
L 310.422544 37.92598 
L 310.422544 34.41295 
L 310.761035 34.41295 
L 310.761035 30.899921 
L 316.302598 30.899921 
L 316.302598 27.386891 
L 316.981242 27.386891 
L 316.981242 23.873861 
L 320.98287 23.873861 
L 320.98287 20.360832 
L 323.332133 20.360832 
L 323.332133 16.847802 
L 325.295353 16.847802 
L 325.295353 13.334772 
L 325.295353 13.334772 
L 367.82 13.334772 
L 367.82 13.334772 
" style="fill:none;stroke:#00bfbf;stroke-linecap:square;stroke-width:1.5;"/>
   </g>
   <g id="line2d_25">
    <path clip-path="url(#pa4d6b9df04)" d="M 195.737162 276.812 
L 195.737162 273.29897 
L 199.902649 273.29897 
L 199.902649 269.785941 
L 200.934368 269.785941 
L 201.004217 262.759881 
L 201.36674 262.759881 
L 201.36674 259.246851 
L 201.605167 259.246851 
L 201.605167 255.733822 
L 203.817062 255.733822 
L 203.817062 252.220792 
L 204.024005 252.220792 
L 204.024005 248.707762 
L 205.039522 248.707762 
L 205.039522 245.194733 
L 205.1519 245.194733 
L 205.1519 241.681703 
L 206.367826 241.681703 
L 206.367826 238.168673 
L 208.064537 238.168673 
L 208.064537 234.655644 
L 208.62476 234.655644 
L 208.62476 231.142614 
L 210.834608 231.142614 
L 210.834608 227.629584 
L 213.562778 227.629584 
L 213.562778 224.116554 
L 213.981817 224.116554 
L 213.981817 220.603525 
L 216.581126 220.603525 
L 216.581126 217.090495 
L 216.769705 217.090495 
L 216.769705 213.577465 
L 217.545932 213.577465 
L 217.58987 206.551406 
L 217.829041 206.551406 
L 217.829041 203.038376 
L 217.961901 203.038376 
L 217.961901 199.525347 
L 218.990508 199.525347 
L 219.053884 192.499287 
L 219.145166 192.499287 
L 219.145166 188.986257 
L 219.283126 188.986257 
L 219.283126 185.473228 
L 219.690748 185.473228 
L 219.734184 178.447168 
L 219.934153 178.447168 
L 220.029174 164.39505 
L 220.096358 164.39505 
L 220.125314 153.85596 
L 220.256747 153.85596 
L 220.256747 136.290812 
L 220.441026 136.290812 
L 220.441026 132.777782 
L 221.565729 132.777782 
L 221.570843 125.751723 
L 221.915981 125.751723 
L 221.915981 122.238693 
L 222.407661 122.238693 
L 222.45428 115.212634 
L 222.609176 115.212634 
L 222.609176 111.699604 
L 222.847505 111.699604 
L 222.847505 108.186574 
L 223.241737 108.186574 
L 223.241737 104.673545 
L 223.55554 104.673545 
L 223.55554 101.160515 
L 224.781905 101.160515 
L 224.781905 97.647485 
L 224.959277 97.647485 
L 224.959277 94.134455 
L 225.137176 94.134455 
L 225.137176 90.621426 
L 225.532679 90.621426 
L 225.532679 87.108396 
L 226.051867 87.108396 
L 226.051867 83.595366 
L 226.986377 83.595366 
L 226.986377 80.082337 
L 228.209058 80.082337 
L 228.209058 76.569307 
L 232.814622 76.569307 
L 232.814622 73.056277 
L 232.956051 73.056277 
L 232.956051 69.543248 
L 234.742219 69.543248 
L 234.742219 66.030218 
L 264.288044 66.030218 
L 264.288044 62.517188 
L 275.065523 62.517188 
L 275.065523 59.004158 
L 277.416829 59.004158 
L 277.416829 55.491129 
L 279.99373 55.491129 
L 279.99373 51.978099 
L 282.962025 51.978099 
L 282.962025 48.465069 
L 290.819562 48.465069 
L 290.819562 44.95204 
L 295.668658 44.95204 
L 295.668658 41.43901 
L 299.499615 41.43901 
L 299.499615 37.92598 
L 304.923403 37.92598 
L 304.923403 34.41295 
L 310.422544 34.41295 
L 310.422544 30.899921 
L 316.302598 30.899921 
L 316.302598 27.386891 
L 316.642879 27.386891 
L 316.642879 23.873861 
L 319.939253 23.873861 
L 319.939253 20.360832 
L 323.332133 20.360832 
L 323.332133 16.847802 
L 325.295353 16.847802 
L 325.295353 13.334772 
L 325.295353 13.334772 
L 367.82 13.334772 
L 367.82 13.334772 
" style="fill:none;stroke:#bf00bf;stroke-linecap:square;stroke-width:1.5;"/>
   </g>
   <g id="line2d_26">
    <path clip-path="url(#pa4d6b9df04)" d="M 195.737162 276.812 
L 195.737162 273.29897 
L 199.902649 273.29897 
L 199.902649 269.785941 
L 200.711607 269.785941 
L 200.711607 266.272911 
L 200.934368 266.272911 
L 201.004217 259.246851 
L 201.36674 259.246851 
L 201.36674 255.733822 
L 203.817062 255.733822 
L 203.817062 252.220792 
L 204.024005 252.220792 
L 204.024005 248.707762 
L 204.619765 248.707762 
L 204.619765 245.194733 
L 205.1519 245.194733 
L 205.1519 241.681703 
L 206.367826 241.681703 
L 206.367826 238.168673 
L 207.295219 238.168673 
L 207.295219 234.655644 
L 207.983409 234.655644 
L 207.983409 231.142614 
L 210.834608 231.142614 
L 210.834608 227.629584 
L 213.562778 227.629584 
L 213.562778 224.116554 
L 213.981817 224.116554 
L 213.981817 220.603525 
L 214.121655 220.603525 
L 214.121655 217.090495 
L 215.379429 217.090495 
L 215.379429 213.577465 
L 215.509711 213.577465 
L 215.509711 210.064436 
L 216.70888 210.064436 
L 216.70888 206.551406 
L 217.427493 206.551406 
L 217.427493 203.038376 
L 217.58987 203.038376 
L 217.58987 199.525347 
L 217.754649 199.525347 
L 217.754649 196.012317 
L 218.341907 196.012317 
L 218.341907 192.499287 
L 218.843155 192.499287 
L 218.843155 188.986257 
L 218.990508 188.986257 
L 219.052229 181.960198 
L 219.344026 181.960198 
L 219.344026 178.447168 
L 219.734184 178.447168 
L 219.734184 174.934139 
L 219.934153 174.934139 
L 220.029174 157.36899 
L 220.096358 157.36899 
L 220.145844 143.316871 
L 220.256747 143.316871 
L 220.318771 125.751723 
L 220.379423 125.751723 
L 220.379423 122.238693 
L 220.950921 122.238693 
L 220.950921 118.725663 
L 221.100205 118.725663 
L 221.100205 115.212634 
L 221.476728 115.212634 
L 221.476728 111.699604 
L 222.407661 111.699604 
L 222.407661 108.186574 
L 222.847505 108.186574 
L 222.925834 101.160515 
L 223.059107 101.160515 
L 223.059107 97.647485 
L 223.458223 97.647485 
L 223.458223 94.134455 
L 224.663235 94.134455 
L 224.663235 90.621426 
L 224.781905 90.621426 
L 224.781905 87.108396 
L 224.977362 87.108396 
L 224.977362 83.595366 
L 226.963367 83.595366 
L 226.963367 80.082337 
L 228.209058 80.082337 
L 228.209058 76.569307 
L 232.814622 76.569307 
L 232.814622 73.056277 
L 232.956051 73.056277 
L 232.956051 69.543248 
L 234.742219 69.543248 
L 234.742219 66.030218 
L 240.610882 66.030218 
L 240.610882 62.517188 
L 264.288044 62.517188 
L 264.288044 59.004158 
L 271.812203 59.004158 
L 271.812203 55.491129 
L 277.416829 55.491129 
L 277.416829 51.978099 
L 282.962025 51.978099 
L 282.962025 48.465069 
L 290.819562 48.465069 
L 290.819562 44.95204 
L 295.668658 44.95204 
L 295.668658 41.43901 
L 299.499615 41.43901 
L 299.499615 37.92598 
L 304.089883 37.92598 
L 304.089883 34.41295 
L 310.422544 34.41295 
L 310.422544 30.899921 
L 313.252317 30.899921 
L 313.252317 27.386891 
L 316.302598 27.386891 
L 316.302598 23.873861 
L 319.939253 23.873861 
L 319.939253 20.360832 
L 323.332133 20.360832 
L 323.332133 16.847802 
L 325.295353 16.847802 
L 325.295353 13.334772 
L 325.295353 13.334772 
L 367.82 13.334772 
L 367.82 13.334772 
" style="fill:none;stroke:#000000;stroke-linecap:square;stroke-width:1.5;"/>
   </g>
   <g id="line2d_27">
    <path clip-path="url(#pa4d6b9df04)" d="M 193.610898 276.812 
L 193.610898 273.29897 
L 199.502852 273.29897 
L 199.502852 269.785941 
L 199.938095 269.785941 
L 199.938095 266.272911 
L 200.472968 266.272911 
L 200.472968 262.759881 
L 200.871669 262.759881 
L 200.871669 259.246851 
L 200.999995 259.246851 
L 200.999995 255.733822 
L 203.026201 255.733822 
L 203.026201 252.220792 
L 203.727117 252.220792 
L 203.727117 248.707762 
L 204.024005 248.707762 
L 204.024005 245.194733 
L 204.429103 245.194733 
L 204.429103 241.681703 
L 206.334305 241.681703 
L 206.334305 238.168673 
L 207.295219 238.168673 
L 207.298569 231.142614 
L 210.143788 231.142614 
L 210.143788 227.629584 
L 210.834608 227.629584 
L 210.834608 224.116554 
L 212.483864 224.116554 
L 212.483864 220.603525 
L 213.197434 220.603525 
L 213.197434 217.090495 
L 213.94127 217.090495 
L 213.94127 213.577465 
L 214.20556 213.577465 
L 214.20556 210.064436 
L 214.829734 210.064436 
L 214.829734 206.551406 
L 215.509711 206.551406 
L 215.509711 203.038376 
L 217.427493 203.038376 
L 217.427493 199.525347 
L 217.754649 199.525347 
L 217.754649 196.012317 
L 218.341907 196.012317 
L 218.341907 192.499287 
L 218.843155 192.499287 
L 218.928569 185.473228 
L 218.982916 185.473228 
L 219.088612 178.447168 
L 219.28564 178.447168 
L 219.344026 171.421109 
L 219.397734 171.421109 
L 219.397734 167.908079 
L 219.77411 167.908079 
L 219.880544 157.36899 
L 219.934153 157.36899 
L 219.964586 146.829901 
L 220.047892 146.829901 
L 220.145844 132.777782 
L 220.249318 132.777782 
L 220.318771 118.725663 
L 220.850963 118.725663 
L 220.850963 115.212634 
L 221.100205 115.212634 
L 221.100205 111.699604 
L 222.407661 111.699604 
L 222.434683 104.673545 
L 222.750231 104.673545 
L 222.750231 101.160515 
L 222.871579 101.160515 
L 222.871579 97.647485 
L 223.059107 97.647485 
L 223.059107 94.134455 
L 224.016866 94.134455 
L 224.016866 90.621426 
L 224.390605 90.621426 
L 224.390605 87.108396 
L 224.556278 87.108396 
L 224.556278 83.595366 
L 226.356523 83.595366 
L 226.356523 80.082337 
L 228.209058 80.082337 
L 228.209058 76.569307 
L 232.448814 76.569307 
L 232.448814 73.056277 
L 232.956051 73.056277 
L 232.956051 69.543248 
L 234.694856 69.543248 
L 234.694856 66.030218 
L 240.610882 66.030218 
L 240.610882 62.517188 
L 264.288044 62.517188 
L 264.288044 59.004158 
L 265.484003 59.004158 
L 265.484003 55.491129 
L 277.416829 55.491129 
L 277.416829 51.978099 
L 282.962025 51.978099 
L 282.962025 48.465069 
L 290.083382 48.465069 
L 290.083382 44.95204 
L 295.668658 44.95204 
L 295.668658 41.43901 
L 299.499615 41.43901 
L 299.499615 37.92598 
L 302.717442 37.92598 
L 302.717442 34.41295 
L 310.422544 34.41295 
L 310.422544 30.899921 
L 312.889172 30.899921 
L 312.889172 27.386891 
L 316.302598 27.386891 
L 316.302598 23.873861 
L 319.772761 23.873861 
L 319.772761 20.360832 
L 323.332133 20.360832 
L 323.332133 16.847802 
L 325.295353 16.847802 
L 325.295353 13.334772 
L 325.295353 13.334772 
L 367.82 13.334772 
L 367.82 13.334772 
" style="fill:none;stroke:#00bfbf;stroke-linecap:square;stroke-width:1.5;"/>
   </g>
   <g id="line2d_28">
    <path clip-path="url(#pa4d6b9df04)" d="M 193.247904 276.812 
L 193.247904 273.29897 
L 198.632807 273.29897 
L 198.632807 269.785941 
L 198.973313 269.785941 
L 199.080293 262.759881 
L 199.112952 262.759881 
L 199.112952 259.246851 
L 200.471776 259.246851 
L 200.471776 255.733822 
L 202.217839 255.733822 
L 202.217839 252.220792 
L 202.44389 252.220792 
L 202.44389 248.707762 
L 203.727117 248.707762 
L 203.727117 245.194733 
L 203.915469 245.194733 
L 203.915469 241.681703 
L 205.207691 241.681703 
L 205.207691 238.168673 
L 206.841663 238.168673 
L 206.841663 234.655644 
L 207.287549 234.655644 
L 207.287549 231.142614 
L 207.520645 231.142614 
L 207.520645 227.629584 
L 209.908564 227.629584 
L 209.908564 224.116554 
L 210.212643 224.116554 
L 210.212643 220.603525 
L 210.830519 220.603525 
L 210.834608 213.577465 
L 213.246213 213.577465 
L 213.246213 210.064436 
L 214.398471 210.064436 
L 214.398471 206.551406 
L 214.532909 206.551406 
L 214.532909 203.038376 
L 215.452947 203.038376 
L 215.452947 199.525347 
L 215.651236 199.525347 
L 215.651236 196.012317 
L 215.810689 196.012317 
L 215.810689 192.499287 
L 217.485677 192.499287 
L 217.485677 188.986257 
L 217.713174 188.986257 
L 217.713174 185.473228 
L 218.083668 185.473228 
L 218.083668 181.960198 
L 218.197678 181.960198 
L 218.277369 174.934139 
L 218.529137 174.934139 
L 218.529137 171.421109 
L 218.708393 171.421109 
L 218.721379 160.88202 
L 219.397734 160.88202 
L 219.397734 157.36899 
L 219.519826 157.36899 
L 219.519826 153.85596 
L 219.643585 153.85596 
L 219.746691 146.829901 
L 219.760747 146.829901 
L 219.817177 136.290812 
L 219.934153 136.290812 
L 219.996054 122.238693 
L 220.048016 122.238693 
L 220.131686 111.699604 
L 220.282753 111.699604 
L 220.282753 108.186574 
L 221.075887 108.186574 
L 221.075887 104.673545 
L 221.89277 104.673545 
L 221.89277 101.160515 
L 222.07549 101.160515 
L 222.07549 97.647485 
L 222.422181 97.647485 
L 222.422181 94.134455 
L 222.653802 94.134455 
L 222.653802 90.621426 
L 222.887871 90.621426 
L 222.887871 87.108396 
L 223.730005 87.108396 
L 223.730005 83.595366 
L 225.913133 83.595366 
L 225.913133 80.082337 
L 227.963927 80.082337 
L 227.963927 76.569307 
L 231.733529 76.569307 
L 231.733529 73.056277 
L 232.956051 73.056277 
L 232.956051 69.543248 
L 234.25189 69.543248 
L 234.252678 62.517188 
L 263.218238 62.517188 
L 263.218238 59.004158 
L 264.288044 59.004158 
L 264.288044 55.491129 
L 277.416829 55.491129 
L 277.416829 51.978099 
L 282.962025 51.978099 
L 282.962025 48.465069 
L 290.083382 48.465069 
L 290.083382 44.95204 
L 294.571296 44.95204 
L 294.571296 41.43901 
L 299.292952 41.43901 
L 299.292952 37.92598 
L 301.951168 37.92598 
L 301.951168 34.41295 
L 310.422544 34.41295 
L 310.422544 30.899921 
L 312.82521 30.899921 
L 312.82521 27.386891 
L 315.914168 27.386891 
L 315.914168 23.873861 
L 319.325278 23.873861 
L 319.325278 20.360832 
L 323.332133 20.360832 
L 323.332133 16.847802 
L 325.295353 16.847802 
L 325.295353 13.334772 
L 325.295353 13.334772 
L 367.82 13.334772 
L 367.82 13.334772 
" style="fill:none;stroke:#bf00bf;stroke-linecap:square;stroke-width:1.5;"/>
   </g>
   <g id="line2d_29">
    <path clip-path="url(#pa4d6b9df04)" d="M 192.784699 276.812 
L 192.784699 273.29897 
L 197.742265 273.29897 
L 197.742265 269.785941 
L 198.483337 269.785941 
L 198.483337 266.272911 
L 199.080293 266.272911 
L 199.112952 259.246851 
L 200.105772 259.246851 
L 200.105772 255.733822 
L 201.454887 255.733822 
L 201.454887 252.220792 
L 202.106108 252.220792 
L 202.106108 248.707762 
L 203.189774 248.707762 
L 203.189774 245.194733 
L 203.385473 245.194733 
L 203.385473 241.681703 
L 204.964672 241.681703 
L 204.964672 238.168673 
L 206.523317 238.168673 
L 206.523317 234.655644 
L 206.9681 234.655644 
L 207.077936 227.629584 
L 207.565275 227.629584 
L 207.565275 224.116554 
L 208.933282 224.116554 
L 208.933282 220.603525 
L 209.210421 220.603525 
L 209.210421 217.090495 
L 210.834608 217.090495 
L 210.834608 213.577465 
L 212.354318 213.577465 
L 212.414106 206.551406 
L 213.070357 206.551406 
L 213.070357 203.038376 
L 214.178526 203.038376 
L 214.178526 199.525347 
L 214.744377 199.525347 
L 214.744377 196.012317 
L 215.00592 196.012317 
L 215.00592 192.499287 
L 216.592145 192.499287 
L 216.592145 188.986257 
L 216.716952 188.986257 
L 216.716952 185.473228 
L 216.881482 185.473228 
L 216.881482 181.960198 
L 216.997075 181.960198 
L 217.096688 174.934139 
L 218.113427 174.934139 
L 218.113427 171.421109 
L 218.506614 171.421109 
L 218.553109 164.39505 
L 218.689302 164.39505 
L 218.696097 157.36899 
L 219.337323 157.36899 
L 219.337323 153.85596 
L 219.573798 153.85596 
L 219.64854 143.316871 
L 219.768481 143.316871 
L 219.841387 125.751723 
L 219.901542 125.751723 
L 220.000937 111.699604 
L 220.105957 111.699604 
L 220.105957 108.186574 
L 220.23164 108.186574 
L 220.23164 104.673545 
L 220.779111 104.673545 
L 220.779111 101.160515 
L 221.285907 101.160515 
L 221.285907 97.647485 
L 221.774022 97.647485 
L 221.774022 94.134455 
L 222.309621 94.134455 
L 222.309621 90.621426 
L 222.544531 90.621426 
L 222.544531 87.108396 
L 223.715592 87.108396 
L 223.715592 83.595366 
L 225.413329 83.595366 
L 225.413329 80.082337 
L 227.273172 80.082337 
L 227.273172 76.569307 
L 231.701256 76.569307 
L 231.701256 73.056277 
L 232.760008 73.056277 
L 232.760008 69.543248 
L 233.994647 69.543248 
L 234.073403 62.517188 
L 263.180783 62.517188 
L 263.180783 59.004158 
L 264.288044 59.004158 
L 264.288044 55.491129 
L 277.416829 55.491129 
L 277.416829 51.978099 
L 282.962025 51.978099 
L 282.962025 48.465069 
L 290.049693 48.465069 
L 290.049693 44.95204 
L 294.453569 44.95204 
L 294.453569 41.43901 
L 298.817496 41.43901 
L 298.817496 37.92598 
L 301.823794 37.92598 
L 301.823794 34.41295 
L 310.422544 34.41295 
L 310.422544 30.899921 
L 312.721968 30.899921 
L 312.721968 27.386891 
L 315.912082 27.386891 
L 315.912082 23.873861 
L 319.233658 23.873861 
L 319.233658 20.360832 
L 323.332133 20.360832 
L 323.332133 16.847802 
L 325.295353 16.847802 
L 325.295353 13.334772 
L 325.295353 13.334772 
L 367.82 13.334772 
L 367.82 13.334772 
" style="fill:none;stroke:#000000;stroke-linecap:square;stroke-width:1.5;"/>
   </g>
   <g id="line2d_30">
    <path clip-path="url(#pa4d6b9df04)" d="M 192.425321 276.812 
L 192.425321 273.29897 
L 197.532761 273.29897 
L 197.532761 269.785941 
L 197.890629 269.785941 
L 197.890629 266.272911 
L 198.606392 266.272911 
L 198.606392 262.759881 
L 198.770925 262.759881 
L 198.770925 259.246851 
L 199.852408 259.246851 
L 199.852408 255.733822 
L 201.312317 255.733822 
L 201.33572 248.707762 
L 202.809695 248.707762 
L 202.809695 245.194733 
L 203.252162 245.194733 
L 203.252162 241.681703 
L 204.594107 241.681703 
L 204.594107 238.168673 
L 204.918501 238.168673 
L 204.918501 234.655644 
L 205.140019 234.655644 
L 205.140019 231.142614 
L 206.367793 231.142614 
L 206.440971 224.116554 
L 207.501802 224.116554 
L 207.501802 220.603525 
L 208.369314 220.603525 
L 208.369314 217.090495 
L 210.684858 217.090495 
L 210.684858 213.577465 
L 210.834608 213.577465 
L 210.834608 210.064436 
L 211.962728 210.064436 
L 211.962728 206.551406 
L 212.700185 206.551406 
L 212.700185 203.038376 
L 213.201417 203.038376 
L 213.261457 196.012317 
L 213.349805 196.012317 
L 213.349805 192.499287 
L 214.525875 192.499287 
L 214.525875 188.986257 
L 214.948443 188.986257 
L 214.948443 185.473228 
L 216.125116 185.473228 
L 216.125116 181.960198 
L 216.545294 181.960198 
L 216.545294 178.447168 
L 216.825891 178.447168 
L 216.825891 174.934139 
L 217.084389 174.934139 
L 217.084389 171.421109 
L 217.475388 171.421109 
L 217.475388 167.908079 
L 218.477359 167.908079 
L 218.563908 160.88202 
L 218.646816 160.88202 
L 218.646816 157.36899 
L 218.82105 157.36899 
L 218.82105 153.85596 
L 219.137535 153.85596 
L 219.137535 150.342931 
L 219.273378 150.342931 
L 219.273378 146.829901 
L 219.430092 146.829901 
L 219.538625 132.777782 
L 219.548449 132.777782 
L 219.548449 129.264752 
L 219.659619 129.264752 
L 219.758346 118.725663 
L 219.791139 118.725663 
L 219.886499 104.673545 
L 220.037188 104.673545 
L 220.037188 101.160515 
L 220.655508 101.160515 
L 220.655508 97.647485 
L 221.183493 97.647485 
L 221.183493 94.134455 
L 221.622344 94.134455 
L 221.724877 87.108396 
L 223.322285 87.108396 
L 223.322285 83.595366 
L 225.274612 83.595366 
L 225.274612 80.082337 
L 226.82172 80.082337 
L 226.82172 76.569307 
L 231.03929 76.569307 
L 231.03929 73.056277 
L 231.276704 73.056277 
L 231.276704 69.543248 
L 232.418514 69.543248 
L 232.418514 66.030218 
L 233.783374 66.030218 
L 233.783374 62.517188 
L 262.244634 62.517188 
L 262.244634 59.004158 
L 263.132912 59.004158 
L 263.132912 55.491129 
L 277.416829 55.491129 
L 277.416829 51.978099 
L 282.962025 51.978099 
L 282.962025 48.465069 
L 289.933761 48.465069 
L 289.933761 44.95204 
L 294.43609 44.95204 
L 294.43609 41.43901 
L 298.591007 41.43901 
L 298.591007 37.92598 
L 301.626474 37.92598 
L 301.626474 34.41295 
L 310.422544 34.41295 
L 310.422544 30.899921 
L 312.548471 30.899921 
L 312.548471 27.386891 
L 315.863429 27.386891 
L 315.863429 23.873861 
L 319.224255 23.873861 
L 319.224255 20.360832 
L 323.331613 20.360832 
L 323.331613 16.847802 
L 325.295353 16.847802 
L 325.295353 13.334772 
L 325.295353 13.334772 
L 367.82 13.334772 
L 367.82 13.334772 
" style="fill:none;stroke:#00bfbf;stroke-linecap:square;stroke-width:1.5;"/>
   </g>
   <g id="patch_3">
    <path d="M 10.7 276.812 
L 10.7 10.7 
" style="fill:none;stroke:#000000;stroke-linecap:square;stroke-linejoin:miter;stroke-width:0.8;"/>
   </g>
   <g id="patch_4">
    <path d="M 367.82 276.812 
L 367.82 10.7 
" style="fill:none;stroke:#000000;stroke-linecap:square;stroke-linejoin:miter;stroke-width:0.8;"/>
   </g>
   <g id="patch_5">
    <path d="M 10.7 276.812 
L 367.82 276.812 
" style="fill:none;stroke:#000000;stroke-linecap:square;stroke-linejoin:miter;stroke-width:0.8;"/>
   </g>
   <g id="patch_6">
    <path d="M 10.7 10.7 
L 367.82 10.7 
" style="fill:none;stroke:#000000;stroke-linecap:square;stroke-linejoin:miter;stroke-width:0.8;"/>
   </g>
   <g id="text_6">
    <!-- {f1-f5}, 5-D -->
    <defs>
     <path d="M 51.125 -9.28125 
L 51.125 -16.3125 
L 48.09375 -16.3125 
Q 35.9375 -16.3125 31.8125 -12.6875 
Q 27.6875 -9.078125 27.6875 1.703125 
L 27.6875 13.375 
Q 27.6875 20.75 25.046875 23.578125 
Q 22.40625 26.421875 15.484375 26.421875 
L 12.5 26.421875 
L 12.5 33.40625 
L 15.484375 33.40625 
Q 22.46875 33.40625 25.078125 36.203125 
Q 27.6875 39.015625 27.6875 46.296875 
L 27.6875 58.015625 
Q 27.6875 68.796875 31.8125 72.390625 
Q 35.9375 75.984375 48.09375 75.984375 
L 51.125 75.984375 
L 51.125 69 
L 47.796875 69 
Q 40.921875 69 38.8125 66.84375 
Q 36.71875 64.703125 36.71875 57.8125 
L 36.71875 45.703125 
Q 36.71875 38.03125 34.5 34.5625 
Q 32.28125 31.109375 26.90625 29.890625 
Q 32.328125 28.5625 34.515625 25.09375 
Q 36.71875 21.625 36.71875 14.015625 
L 36.71875 1.90625 
Q 36.71875 -4.984375 38.8125 -7.125 
Q 40.921875 -9.28125 47.796875 -9.28125 
z
" id="DejaVuSans-7b"/>
     <path d="M 10.796875 72.90625 
L 49.515625 72.90625 
L 49.515625 64.59375 
L 19.828125 64.59375 
L 19.828125 46.734375 
Q 21.96875 47.46875 24.109375 47.828125 
Q 26.265625 48.1875 28.421875 48.1875 
Q 40.625 48.1875 47.75 41.5 
Q 54.890625 34.8125 54.890625 23.390625 
Q 54.890625 11.625 47.5625 5.09375 
Q 40.234375 -1.421875 26.90625 -1.421875 
Q 22.3125 -1.421875 17.546875 -0.640625 
Q 12.796875 0.140625 7.71875 1.703125 
L 7.71875 11.625 
Q 12.109375 9.234375 16.796875 8.0625 
Q 21.484375 6.890625 26.703125 6.890625 
Q 35.15625 6.890625 40.078125 11.328125 
Q 45.015625 15.765625 45.015625 23.390625 
Q 45.015625 31 40.078125 35.4375 
Q 35.15625 39.890625 26.703125 39.890625 
Q 22.75 39.890625 18.8125 39.015625 
Q 14.890625 38.140625 10.796875 36.28125 
z
" id="DejaVuSans-35"/>
     <path d="M 12.5 -9.28125 
L 15.921875 -9.28125 
Q 22.75 -9.28125 24.828125 -7.171875 
Q 26.90625 -5.078125 26.90625 1.90625 
L 26.90625 14.015625 
Q 26.90625 21.625 29.09375 25.09375 
Q 31.296875 28.5625 36.71875 29.890625 
Q 31.296875 31.109375 29.09375 34.5625 
Q 26.90625 38.03125 26.90625 45.703125 
L 26.90625 57.8125 
Q 26.90625 64.75 24.828125 66.875 
Q 22.75 69 15.921875 69 
L 12.5 69 
L 12.5 75.984375 
L 15.578125 75.984375 
Q 27.734375 75.984375 31.8125 72.390625 
Q 35.890625 68.796875 35.890625 58.015625 
L 35.890625 46.296875 
Q 35.890625 39.015625 38.515625 36.203125 
Q 41.15625 33.40625 48.09375 33.40625 
L 51.125 33.40625 
L 51.125 26.421875 
L 48.09375 26.421875 
Q 41.15625 26.421875 38.515625 23.578125 
Q 35.890625 20.75 35.890625 13.375 
L 35.890625 1.703125 
Q 35.890625 -9.078125 31.8125 -12.6875 
Q 27.734375 -16.3125 15.578125 -16.3125 
L 12.5 -16.3125 
z
" id="DejaVuSans-7d"/>
     <path d="M 11.71875 12.40625 
L 22.015625 12.40625 
L 22.015625 4 
L 14.015625 -11.625 
L 7.71875 -11.625 
L 11.71875 4 
z
" id="DejaVuSans-2c"/>
    </defs>
    <g transform="translate(240.4276 271.48976)scale(0.2 -0.2)">
     <use xlink:href="#DejaVuSans-7b"/>
     <use x="63.623047" xlink:href="#DejaVuSans-66"/>
     <use x="98.828125" xlink:href="#DejaVuSans-31"/>
     <use x="162.451172" xlink:href="#DejaVuSans-2d"/>
     <use x="198.535156" xlink:href="#DejaVuSans-66"/>
     <use x="233.740234" xlink:href="#DejaVuSans-35"/>
     <use x="297.363281" xlink:href="#DejaVuSans-7d"/>
     <use x="360.986328" xlink:href="#DejaVuSans-2c"/>
     <use x="392.773438" xlink:href="#DejaVuSans-20"/>
     <use x="424.560547" xlink:href="#DejaVuSans-35"/>
     <use x="488.183594" xlink:href="#DejaVuSans-2d"/>
     <use x="524.267578" xlink:href="#DejaVuSans-44"/>
    </g>
   </g>
   <g id="text_7">
    <!-- v2.1 -->
    <defs>
     <path d="M 2.984375 54.6875 
L 12.5 54.6875 
L 29.59375 8.796875 
L 46.6875 54.6875 
L 56.203125 54.6875 
L 35.6875 0 
L 23.484375 0 
z
" id="DejaVuSans-76"/>
     <path d="M 19.1875 8.296875 
L 53.609375 8.296875 
L 53.609375 0 
L 7.328125 0 
L 7.328125 8.296875 
Q 12.9375 14.109375 22.625 23.890625 
Q 32.328125 33.6875 34.8125 36.53125 
Q 39.546875 41.84375 41.421875 45.53125 
Q 43.3125 49.21875 43.3125 52.78125 
Q 43.3125 58.59375 39.234375 62.25 
Q 35.15625 65.921875 28.609375 65.921875 
Q 23.96875 65.921875 18.8125 64.3125 
Q 13.671875 62.703125 7.8125 59.421875 
L 7.8125 69.390625 
Q 13.765625 71.78125 18.9375 73 
Q 24.125 74.21875 28.421875 74.21875 
Q 39.75 74.21875 46.484375 68.546875 
Q 53.21875 62.890625 53.21875 53.421875 
Q 53.21875 48.921875 51.53125 44.890625 
Q 49.859375 40.875 45.40625 35.40625 
Q 44.1875 33.984375 37.640625 27.21875 
Q 31.109375 20.453125 19.1875 8.296875 
" id="DejaVuSans-32"/>
     <path d="M 10.6875 12.40625 
L 21 12.40625 
L 21 0 
L 10.6875 0 
z
" id="DejaVuSans-2e"/>
    </defs>
    <g style="fill:#808080;" transform="translate(178.349063 272.071193)scale(0.1 -0.1)">
     <use xlink:href="#DejaVuSans-76"/>
     <use x="59.179688" xlink:href="#DejaVuSans-32"/>
     <use x="122.802734" xlink:href="#DejaVuSans-2e"/>
     <use x="154.589844" xlink:href="#DejaVuSans-31"/>
    </g>
   </g>
  </g>
 </g>
 <defs>
  <clipPath id="pa4d6b9df04">
   <rect height="266.112" width="357.12" x="10.7" y="10.7"/>
  </clipPath>
 </defs>
</svg>
