<?xml version="1.0" encoding="utf-8" standalone="no"?>
<!DOCTYPE svg PUBLIC "-//W3C//DTD SVG 1.1//EN"
  "http://www.w3.org/Graphics/SVG/1.1/DTD/svg11.dtd">
<!-- Created with matplotlib (http://matplotlib.org/) -->
<svg height="335pt" version="1.1" viewBox="0 0 437 335" width="437pt" xmlns="http://www.w3.org/2000/svg" xmlns:xlink="http://www.w3.org/1999/xlink">
 <defs>
  <style type="text/css">
*{stroke-linecap:butt;stroke-linejoin:round;}
  </style>
 </defs>
 <g id="figure_1">
  <g id="patch_1">
   <path d="M 0 335.188165 
L 437.1825 335.188165 
L 437.1825 0 
L 0 0 
z
" style="fill:#ffffff;"/>
  </g>
  <g id="axes_1">
   <g id="patch_2">
    <path d="M 69.3625 278.275665 
L 426.4825 278.275665 
L 426.4825 12.163665 
L 69.3625 12.163665 
z
" style="fill:#ffffff;"/>
   </g>
   <g id="line2d_1">
    <path clip-path="url(#p128df617ac)" d="M 227.987016 278.275665 
L 227.987016 274.762636 
L 231.354775 274.762636 
L 231.354775 271.249606 
L 232.411159 271.249606 
L 232.411159 267.736576 
L 233.670378 267.736576 
L 233.670378 264.223546 
L 233.824745 264.223546 
L 233.824745 260.710517 
L 234.131517 260.710517 
L 234.131517 257.197487 
L 238.310178 257.197487 
L 238.310178 253.684457 
L 240.166939 253.684457 
L 240.166939 250.171428 
L 242.664404 250.171428 
L 242.664404 246.658398 
L 246.333253 246.658398 
L 246.333253 243.145368 
L 247.354521 243.145368 
L 247.354521 239.632338 
L 253.527859 239.632338 
L 253.527859 236.119309 
L 260.60863 236.119309 
L 260.60863 232.606279 
L 265.57987 232.606279 
L 265.57987 229.093249 
L 266.309263 229.093249 
L 266.309263 225.58022 
L 266.993455 225.58022 
L 266.993455 222.06719 
L 267.695184 222.06719 
L 267.695184 218.55416 
L 267.966112 218.55416 
L 267.966112 215.041131 
L 270.597289 215.041131 
L 270.597289 211.528101 
L 271.451662 211.528101 
L 271.451662 208.015071 
L 283.8527 208.015071 
L 283.8527 204.502041 
L 284.788026 204.502041 
L 284.788026 200.989012 
L 285.937882 200.989012 
L 285.937882 197.475982 
L 288.373229 197.475982 
L 288.373229 193.962952 
L 297.096933 193.962952 
L 297.096933 190.449923 
L 300.972509 190.449923 
L 300.972509 186.936893 
L 303.932944 186.936893 
L 303.932944 183.423863 
L 314.796398 183.423863 
L 314.796398 179.910834 
L 314.796398 179.910834 
L 314.796398 179.910834 
L 426.4825 179.910834 
" style="fill:none;stroke:#f5deb3;stroke-linecap:square;stroke-width:1.5;"/>
   </g>
   <g id="line2d_2">
    <path clip-path="url(#p128df617ac)" d="M 298.697289 278.275665 
L 298.697289 267.736576 
L 315.682017 267.736576 
L 315.682017 257.197487 
L 328.362971 257.197487 
L 328.362971 246.658398 
L 368.995657 246.658398 
L 368.995657 236.119309 
L 398.496952 236.119309 
L 398.496952 225.58022 
L 398.496952 225.58022 
L 398.496952 225.58022 
L 426.4825 225.58022 
" style="fill:none;stroke:#f5deb3;stroke-linecap:square;stroke-width:1.5;"/>
   </g>
   <g id="line2d_3">
    <path clip-path="url(#p128df617ac)" d="M 192.239948 278.275665 
L 192.239948 274.762636 
L 196.584455 274.762636 
L 196.584455 271.249606 
L 230.772921 271.249606 
L 230.772921 267.736576 
L 232.1701 267.736576 
L 232.1701 264.223546 
L 234.283933 264.223546 
L 234.283933 260.710517 
L 240.424583 260.710517 
L 240.424583 257.197487 
L 244.142115 257.197487 
L 244.142115 253.684457 
L 247.354521 253.684457 
L 247.354521 250.171428 
L 250.059855 250.171428 
L 250.059855 246.658398 
L 250.49982 246.658398 
L 250.49982 243.145368 
L 254.584836 243.145368 
L 254.584836 239.632338 
L 256.610477 239.632338 
L 256.610477 236.119309 
L 262.575473 236.119309 
L 262.575473 232.606279 
L 264.308459 232.606279 
L 264.308459 229.093249 
L 270.653023 229.093249 
L 270.653023 225.58022 
L 278.237148 225.58022 
L 278.237148 222.06719 
L 286.409417 222.06719 
L 286.409417 218.55416 
L 296.515575 218.55416 
L 296.515575 215.041131 
L 297.123747 215.041131 
L 297.123747 211.528101 
L 299.042104 211.528101 
L 299.042104 208.015071 
L 302.64443 208.015071 
L 302.64443 204.502041 
L 306.597324 204.502041 
L 306.597324 200.989012 
L 307.433504 200.989012 
L 307.433504 197.475982 
L 319.725578 197.475982 
L 319.725578 193.962952 
L 322.892039 193.962952 
L 322.892039 190.449923 
L 350.703154 190.449923 
L 350.703154 186.936893 
L 352.912947 186.936893 
L 352.912947 183.423863 
L 353.445649 183.423863 
L 353.445649 179.910834 
L 363.262812 179.910834 
L 363.262812 176.397804 
L 378.606026 176.397804 
L 378.606026 172.884774 
L 378.606026 172.884774 
L 378.606026 172.884774 
L 426.4825 172.884774 
" style="fill:none;stroke:#f5deb3;stroke-linecap:square;stroke-width:1.5;"/>
   </g>
   <g id="line2d_4">
    <path clip-path="url(#p128df617ac)" d="M 220.24725 278.275665 
L 220.24725 274.762636 
L 239.051019 274.762636 
L 239.051019 271.249606 
L 239.117622 271.249606 
L 239.117622 267.736576 
L 241.685996 267.736576 
L 241.685996 264.223546 
L 270.317328 264.223546 
L 270.317328 260.710517 
L 271.369856 260.710517 
L 271.369856 257.197487 
L 275.273766 257.197487 
L 275.273766 253.684457 
L 275.518024 253.684457 
L 275.518024 250.171428 
L 279.151366 250.171428 
L 279.151366 246.658398 
L 289.416206 246.658398 
L 289.416206 243.145368 
L 290.767007 243.145368 
L 290.767007 239.632338 
L 293.62266 239.632338 
L 293.62266 236.119309 
L 293.725854 236.119309 
L 293.725854 232.606279 
L 297.364183 232.606279 
L 297.364183 229.093249 
L 298.049938 229.093249 
L 298.049938 225.58022 
L 299.396254 225.58022 
L 299.396254 222.06719 
L 303.844003 222.06719 
L 303.844003 218.55416 
L 317.718523 218.55416 
L 317.718523 215.041131 
L 327.42358 215.041131 
L 327.42358 211.528101 
L 327.844737 211.528101 
L 327.844737 208.015071 
L 332.765791 208.015071 
L 332.765791 204.502041 
L 334.410144 204.502041 
L 334.410144 200.989012 
L 343.664461 200.989012 
L 343.664461 197.475982 
L 346.718335 197.475982 
L 346.718335 193.962952 
L 350.251947 193.962952 
L 350.251947 190.449923 
L 353.744164 190.449923 
L 353.744164 186.936893 
L 365.283818 186.936893 
L 365.283818 183.423863 
L 369.75144 183.423863 
L 369.75144 179.910834 
L 384.289786 179.910834 
L 384.289786 176.397804 
L 385.122036 176.397804 
L 385.122036 172.884774 
L 386.722222 172.884774 
L 386.722222 169.371744 
L 389.65523 169.371744 
L 389.65523 165.858715 
L 395.322419 165.858715 
L 395.322419 162.345685 
L 395.322419 162.345685 
L 395.322419 162.345685 
L 426.4825 162.345685 
" style="fill:none;stroke:#f5deb3;stroke-linecap:square;stroke-width:1.5;"/>
   </g>
   <g id="line2d_5">
    <path clip-path="url(#p128df617ac)" d="M 229.23231 278.275665 
L 229.23231 274.762636 
L 237.7617 274.762636 
L 237.7617 271.249606 
L 270.345421 271.249606 
L 270.345421 267.736576 
L 282.352422 267.736576 
L 282.352422 264.223546 
L 304.907947 264.223546 
L 304.907947 260.710517 
L 319.241426 260.710517 
L 319.241426 257.197487 
L 324.063291 257.197487 
L 324.063291 253.684457 
L 324.968782 253.684457 
L 324.968782 250.171428 
L 325.345632 250.171428 
L 325.345632 246.658398 
L 333.19878 246.658398 
L 333.19878 243.145368 
L 335.665559 243.145368 
L 335.665559 239.632338 
L 335.674801 239.632338 
L 335.674801 236.119309 
L 338.414474 236.119309 
L 338.414474 232.606279 
L 341.322803 232.606279 
L 341.322803 229.093249 
L 343.649638 229.093249 
L 343.649638 225.58022 
L 346.196985 225.58022 
L 346.196985 222.06719 
L 346.303924 222.06719 
L 346.303924 218.55416 
L 347.742346 218.55416 
L 347.742346 215.041131 
L 350.985734 215.041131 
L 350.985734 211.528101 
L 355.052418 211.528101 
L 355.052418 208.015071 
L 359.822821 208.015071 
L 359.822821 204.502041 
L 363.016177 204.502041 
L 363.016177 200.989012 
L 363.385502 200.989012 
L 363.385502 197.475982 
L 374.631958 197.475982 
L 374.631958 193.962952 
L 375.042263 193.962952 
L 375.042263 190.449923 
L 376.11622 190.449923 
L 376.11622 186.936893 
L 378.682151 186.936893 
L 378.682151 183.423863 
L 380.943484 183.423863 
L 380.943484 179.910834 
L 381.940373 179.910834 
L 381.940373 176.397804 
L 386.491424 176.397804 
L 386.491424 172.884774 
L 438.1825 172.884774 
" style="fill:none;stroke:#f5deb3;stroke-linecap:square;stroke-width:1.5;"/>
   </g>
   <g id="line2d_6"/>
   <g id="line2d_7">
    <path clip-path="url(#p128df617ac)" d="M 242.178506 278.275665 
L 242.178506 274.762636 
L 248.502133 274.762636 
L 248.502133 271.249606 
L 250.353758 271.249606 
L 250.353758 267.736576 
L 254.192077 267.736576 
L 254.192077 264.223546 
L 262.190561 264.223546 
L 262.190561 260.710517 
L 314.382786 260.710517 
L 314.382786 257.197487 
L 327.775841 257.197487 
L 327.775841 253.684457 
L 331.079911 253.684457 
L 331.079911 250.171428 
L 331.873698 250.171428 
L 331.873698 246.658398 
L 335.859137 246.658398 
L 335.859137 243.145368 
L 345.877744 243.145368 
L 345.877744 239.632338 
L 348.137426 239.632338 
L 348.137426 236.119309 
L 349.306949 236.119309 
L 349.306949 232.606279 
L 349.515589 232.606279 
L 349.515589 229.093249 
L 350.900888 229.093249 
L 350.900888 225.58022 
L 352.598786 225.58022 
L 352.598786 222.06719 
L 357.06223 222.06719 
L 357.06223 218.55416 
L 358.20574 218.55416 
L 358.20574 215.041131 
L 359.393495 215.041131 
L 359.393495 211.528101 
L 365.271582 211.528101 
L 365.271582 208.015071 
L 366.752311 208.015071 
L 366.752311 204.502041 
L 368.214355 204.502041 
L 368.214355 200.989012 
L 372.273048 200.989012 
L 372.273048 197.475982 
L 375.627686 197.475982 
L 375.627686 193.962952 
L 379.107745 193.962952 
L 379.107745 190.449923 
L 390.044169 190.449923 
L 390.044169 186.936893 
L 390.173575 186.936893 
L 390.173575 183.423863 
L 395.053753 183.423863 
L 395.053753 179.910834 
L 410.10991 179.910834 
L 410.10991 176.397804 
L 412.218232 176.397804 
L 412.218232 172.884774 
L 413.856757 172.884774 
L 413.856757 169.371744 
L 420.77592 169.371744 
L 420.77592 165.858715 
L 423.112528 165.858715 
L 423.112528 162.345685 
L 423.768101 162.345685 
L 423.768101 158.832655 
L 432.591026 158.832655 
L 432.591026 155.319626 
L 434.919526 155.319626 
L 434.919526 151.806596 
L 438.1825 151.806596 
" style="fill:none;stroke:#f5deb3;stroke-linecap:square;stroke-width:1.5;"/>
   </g>
   <g id="line2d_8">
    <path clip-path="url(#p128df617ac)" d="M 363.18943 278.275665 
L 363.18943 274.762636 
L 369.509125 274.762636 
L 369.509125 271.249606 
L 372.119752 271.249606 
L 372.119752 267.736576 
L 374.385426 267.736576 
L 374.385426 264.223546 
L 374.964319 264.223546 
L 374.964319 260.710517 
L 375.841565 260.710517 
L 375.841565 257.197487 
L 379.697211 257.197487 
L 379.697211 253.684457 
L 402.250391 253.684457 
L 402.250391 250.171428 
L 402.42256 250.171428 
L 402.42256 246.658398 
L 402.440828 246.658398 
L 402.440828 243.145368 
L 403.321271 243.145368 
L 403.321271 239.632338 
L 404.109025 239.632338 
L 404.109025 236.119309 
L 404.75755 236.119309 
L 404.75755 232.606279 
L 430.210415 232.606279 
L 430.210415 229.093249 
L 430.594393 229.093249 
L 430.594393 225.58022 
L 430.641016 225.58022 
L 430.641016 222.06719 
L 431.487477 222.06719 
L 431.487477 218.55416 
L 431.764747 218.55416 
L 431.764747 215.041131 
L 438.1825 215.041131 
" style="fill:none;stroke:#f5deb3;stroke-linecap:square;stroke-width:1.5;"/>
   </g>
   <g id="line2d_9">
    <path clip-path="url(#p128df617ac)" d="M 233.592947 278.275665 
L 233.592947 274.762636 
L 237.968354 274.762636 
L 237.968354 271.249606 
L 249.664235 271.249606 
L 249.664235 267.736576 
L 250.596868 267.736576 
L 250.596868 264.223546 
L 285.883077 264.223546 
L 285.883077 260.710517 
L 290.154817 260.710517 
L 290.154817 257.197487 
L 294.468944 257.197487 
L 294.468944 253.684457 
L 297.774561 253.684457 
L 297.774561 250.171428 
L 303.317016 250.171428 
L 303.317016 246.658398 
L 317.044608 246.658398 
L 317.044608 243.145368 
L 318.268199 243.145368 
L 318.268199 239.632338 
L 318.298079 239.632338 
L 318.298079 236.119309 
L 328.901755 236.119309 
L 328.901755 232.606279 
L 331.683326 232.606279 
L 331.683326 229.093249 
L 341.665066 229.093249 
L 341.665066 225.58022 
L 345.653991 225.58022 
L 345.653991 222.06719 
L 348.045626 222.06719 
L 348.045626 218.55416 
L 349.502978 218.55416 
L 349.502978 215.041131 
L 353.292624 215.041131 
L 353.292624 211.528101 
L 355.642689 211.528101 
L 355.642689 208.015071 
L 358.825212 208.015071 
L 358.825212 204.502041 
L 358.827649 204.502041 
L 358.827649 200.989012 
L 361.527158 200.989012 
L 361.527158 197.475982 
L 366.538261 197.475982 
L 366.538261 193.962952 
L 368.977249 193.962952 
L 368.977249 190.449923 
L 371.462192 190.449923 
L 371.462192 186.936893 
L 374.737327 186.936893 
L 374.737327 183.423863 
L 382.63888 183.423863 
L 382.63888 179.910834 
L 384.01495 179.910834 
L 384.01495 176.397804 
L 385.360531 176.397804 
L 385.360531 172.884774 
L 392.854225 172.884774 
L 392.854225 169.371744 
L 394.70989 169.371744 
L 394.70989 165.858715 
L 399.45438 165.858715 
L 399.45438 162.345685 
L 409.86855 162.345685 
L 409.86855 158.832655 
L 410.023514 158.832655 
L 410.023514 155.319626 
L 411.516128 155.319626 
L 411.516128 151.806596 
L 415.075606 151.806596 
L 415.075606 148.293566 
L 417.756392 148.293566 
L 417.756392 144.780537 
L 418.831265 144.780537 
L 418.831265 141.267507 
L 418.996253 141.267507 
L 418.996253 137.754477 
L 423.107163 137.754477 
L 423.107163 134.241447 
L 423.334699 134.241447 
L 423.334699 130.728418 
L 425.972443 130.728418 
L 425.972443 127.215388 
L 426.866241 127.215388 
L 426.866241 123.702358 
L 434.912675 123.702358 
L 434.912675 120.189329 
L 437.127155 120.189329 
L 437.127155 116.676299 
L 437.179796 116.676299 
L 437.179796 113.163269 
L 437.437417 113.163269 
L 437.437417 109.650239 
L 437.467964 109.650239 
L 437.467964 106.13721 
L 438.1825 106.13721 
" style="fill:none;stroke:#f5deb3;stroke-linecap:square;stroke-width:1.5;"/>
   </g>
   <g id="line2d_10">
    <path clip-path="url(#p128df617ac)" d="M 347.573122 278.275665 
L 347.573122 274.762636 
L 363.277901 274.762636 
L 363.277901 271.249606 
L 367.578854 271.249606 
L 367.578854 267.736576 
L 370.925312 267.736576 
L 370.925312 264.223546 
L 381.515748 264.223546 
L 381.515748 260.710517 
L 383.771062 260.710517 
L 383.771062 257.197487 
L 384.972026 257.197487 
L 384.972026 253.684457 
L 385.876753 253.684457 
L 385.876753 250.171428 
L 389.205249 250.171428 
L 389.205249 246.658398 
L 416.640727 246.658398 
L 416.640727 243.145368 
L 424.69715 243.145368 
L 424.69715 239.632338 
L 427.996891 239.632338 
L 427.996891 236.119309 
L 432.143282 236.119309 
L 432.143282 232.606279 
L 435.655094 232.606279 
L 435.655094 229.093249 
L 437.546713 229.093249 
L 437.546713 225.58022 
L 437.718312 225.58022 
L 437.718312 222.06719 
L 438.1825 222.06719 
" style="fill:none;stroke:#f5deb3;stroke-linecap:square;stroke-width:1.5;"/>
   </g>
   <g id="line2d_11">
    <path clip-path="url(#p128df617ac)" d="M 295.744184 278.275665 
L 295.744184 274.762636 
L 326.219985 274.762636 
L 326.219985 271.249606 
L 339.969717 271.249606 
L 339.969717 267.736576 
L 346.489454 267.736576 
L 346.489454 264.223546 
L 349.619459 264.223546 
L 349.619459 260.710517 
L 352.901466 260.710517 
L 352.901466 257.197487 
L 354.137467 257.197487 
L 354.137467 253.684457 
L 355.319231 253.684457 
L 355.319231 250.171428 
L 364.500574 250.171428 
L 364.500574 246.658398 
L 366.100346 246.658398 
L 366.100346 243.145368 
L 366.156122 243.145368 
L 366.156122 239.632338 
L 368.379459 239.632338 
L 368.379459 236.119309 
L 374.396525 236.119309 
L 374.396525 232.606279 
L 374.814194 232.606279 
L 374.814194 229.093249 
L 377.66823 229.093249 
L 377.66823 225.58022 
L 378.329789 225.58022 
L 378.329789 222.06719 
L 378.859156 222.06719 
L 378.859156 218.55416 
L 379.282686 218.55416 
L 379.282686 215.041131 
L 380.062336 215.041131 
L 380.062336 211.528101 
L 384.380134 211.528101 
L 384.380134 208.015071 
L 395.493644 208.015071 
L 395.493644 204.502041 
L 396.112309 204.502041 
L 396.112309 200.989012 
L 398.101341 200.989012 
L 398.101341 197.475982 
L 402.072973 197.475982 
L 402.072973 193.962952 
L 403.346929 193.962952 
L 403.346929 190.449923 
L 405.190756 190.449923 
L 405.190756 186.936893 
L 414.455589 186.936893 
L 414.455589 183.423863 
L 415.575064 183.423863 
L 415.575064 179.910834 
L 415.683661 179.910834 
L 415.683661 176.397804 
L 418.237428 176.397804 
L 418.237428 172.884774 
L 422.25393 172.884774 
L 422.25393 169.371744 
L 438.1825 169.371744 
" style="fill:none;stroke:#f5deb3;stroke-linecap:square;stroke-width:1.5;"/>
   </g>
   <g id="line2d_12">
    <path clip-path="url(#p128df617ac)" d="M 236.852308 278.275665 
L 236.852308 274.762636 
L 240.10224 274.762636 
L 240.10224 271.249606 
L 241.623959 271.249606 
L 241.623959 267.736576 
L 254.887395 267.736576 
L 254.887395 264.223546 
L 255.144735 264.223546 
L 255.144735 260.710517 
L 269.029993 260.710517 
L 269.029993 257.197487 
L 270.902767 257.197487 
L 270.902767 253.684457 
L 272.206394 253.684457 
L 272.206394 250.171428 
L 272.997947 250.171428 
L 272.997947 246.658398 
L 277.553269 246.658398 
L 277.553269 243.145368 
L 283.872032 243.145368 
L 283.872032 239.632338 
L 285.79155 239.632338 
L 285.79155 236.119309 
L 287.193668 236.119309 
L 287.193668 232.606279 
L 288.948902 232.606279 
L 288.948902 229.093249 
L 289.049547 229.093249 
L 289.049547 225.58022 
L 289.250003 225.58022 
L 289.250003 222.06719 
L 291.005839 222.06719 
L 291.005839 218.55416 
L 295.055464 218.55416 
L 295.055464 215.041131 
L 302.770779 215.041131 
L 302.770779 211.528101 
L 310.70817 211.528101 
L 310.70817 208.015071 
L 318.927254 208.015071 
L 318.927254 204.502041 
L 323.121499 204.502041 
L 323.121499 200.989012 
L 326.667149 200.989012 
L 326.667149 197.475982 
L 329.074038 197.475982 
L 329.074038 193.962952 
L 340.527543 193.962952 
L 340.527543 190.449923 
L 345.502877 190.449923 
L 345.502877 186.936893 
L 351.127708 186.936893 
L 351.127708 183.423863 
L 351.77312 183.423863 
L 351.77312 179.910834 
L 363.172142 179.910834 
L 363.172142 176.397804 
L 363.636044 176.397804 
L 363.636044 172.884774 
L 363.636044 172.884774 
L 363.636044 172.884774 
L 426.4825 172.884774 
" style="fill:none;stroke:#f5deb3;stroke-linecap:square;stroke-width:1.5;"/>
   </g>
   <g id="line2d_13">
    <path clip-path="url(#p128df617ac)" d="M 295.89701 278.275665 
L 295.89701 274.762636 
L 308.41796 274.762636 
L 308.41796 271.249606 
L 313.16448 271.249606 
L 313.16448 267.736576 
L 314.241075 267.736576 
L 314.241075 264.223546 
L 319.139436 264.223546 
L 319.139436 260.710517 
L 323.082266 260.710517 
L 323.082266 257.197487 
L 326.327809 257.197487 
L 326.327809 253.684457 
L 326.584096 253.684457 
L 326.584096 250.171428 
L 326.584096 250.171428 
L 326.584096 246.658398 
L 328.885039 246.658398 
L 328.885039 243.145368 
L 342.031265 243.145368 
L 342.031265 239.632338 
L 342.031265 239.632338 
L 342.031265 239.632338 
L 426.4825 239.632338 
" style="fill:none;stroke:#f5deb3;stroke-linecap:square;stroke-width:1.5;"/>
   </g>
   <g id="line2d_14">
    <path clip-path="url(#p128df617ac)" d="M 203.965851 278.275665 
L 203.965851 274.762636 
L 214.159301 274.762636 
L 214.159301 271.249606 
L 268.324224 271.249606 
L 268.324224 267.736576 
L 302.88526 267.736576 
L 302.88526 264.223546 
L 311.338049 264.223546 
L 311.338049 260.710517 
L 315.601665 260.710517 
L 315.601665 257.197487 
L 316.741881 257.197487 
L 316.741881 253.684457 
L 323.634139 253.684457 
L 323.634139 250.171428 
L 324.462233 250.171428 
L 324.462233 246.658398 
L 328.946294 246.658398 
L 328.946294 243.145368 
L 331.450435 243.145368 
L 331.450435 239.632338 
L 331.950592 239.632338 
L 331.950592 236.119309 
L 332.231146 236.119309 
L 332.231146 232.606279 
L 334.08816 232.606279 
L 334.08816 229.093249 
L 336.85654 229.093249 
L 336.85654 225.58022 
L 340.438542 225.58022 
L 340.438542 222.06719 
L 343.897133 222.06719 
L 343.897133 218.55416 
L 361.297971 218.55416 
L 361.297971 215.041131 
L 361.811054 215.041131 
L 361.811054 211.528101 
L 363.094243 211.528101 
L 363.094243 208.015071 
L 363.918758 208.015071 
L 363.918758 204.502041 
L 373.822904 204.502041 
L 373.822904 200.989012 
L 377.176851 200.989012 
L 377.176851 197.475982 
L 381.315959 197.475982 
L 381.315959 193.962952 
L 383.674272 193.962952 
L 383.674272 190.449923 
L 386.81458 190.449923 
L 386.81458 186.936893 
L 396.456094 186.936893 
L 396.456094 183.423863 
L 396.456094 183.423863 
L 396.456094 183.423863 
L 426.4825 183.423863 
" style="fill:none;stroke:#f5deb3;stroke-linecap:square;stroke-width:1.5;"/>
   </g>
   <g id="line2d_15">
    <path clip-path="url(#p128df617ac)" d="M 413.680996 278.275665 
L 413.680996 274.762636 
L 415.319543 274.762636 
L 415.319543 271.249606 
L 417.89537 271.249606 
L 417.89537 267.736576 
L 420.856828 267.736576 
L 420.856828 264.223546 
L 423.220492 264.223546 
L 423.220492 260.710517 
L 426.912345 260.710517 
L 426.912345 257.197487 
L 429.460853 257.197487 
L 429.460853 253.684457 
L 433.70969 253.684457 
L 433.70969 250.171428 
L 438.1825 250.171428 
" style="fill:none;stroke:#f5deb3;stroke-linecap:square;stroke-width:1.5;"/>
   </g>
   <g id="line2d_16">
    <path clip-path="url(#p128df617ac)" d="M 301.296412 278.275665 
L 301.296412 274.762636 
L 375.078061 274.762636 
L 375.078061 271.249606 
L 398.932581 271.249606 
L 398.932581 267.736576 
L 399.75067 267.736576 
L 399.75067 264.223546 
L 407.11381 264.223546 
L 407.11381 260.710517 
L 413.799688 260.710517 
L 413.799688 257.197487 
L 429.613254 257.197487 
L 429.613254 253.684457 
L 438.141196 253.684457 
L 438.141196 250.171428 
L 438.1825 250.171428 
" style="fill:none;stroke:#f5deb3;stroke-linecap:square;stroke-width:1.5;"/>
   </g>
   <g id="line2d_17">
    <path clip-path="url(#p128df617ac)" d="M 309.935674 278.275665 
L 309.935674 274.762636 
L 312.099216 274.762636 
L 312.099216 271.249606 
L 329.284112 271.249606 
L 329.284112 267.736576 
L 394.88943 267.736576 
L 394.88943 264.223546 
L 429.548018 264.223546 
L 429.548018 260.710517 
L 429.548018 260.710517 
" style="fill:none;stroke:#f5deb3;stroke-linecap:square;stroke-width:1.5;"/>
   </g>
   <g id="line2d_18">
    <path clip-path="url(#p128df617ac)" d="M 213.219017 278.275665 
L 213.219017 274.762636 
L 230.351508 274.762636 
L 230.351508 271.249606 
L 237.484312 271.249606 
L 237.484312 267.736576 
L 238.984293 267.736576 
L 238.984293 264.223546 
L 239.3167 264.223546 
L 239.3167 260.710517 
L 250.353758 260.710517 
L 250.353758 257.197487 
L 257.140127 257.197487 
L 257.140127 253.684457 
L 258.450817 253.684457 
L 258.450817 250.171428 
L 261.083257 250.171428 
L 261.083257 246.658398 
L 264.770017 246.658398 
L 264.770017 243.145368 
L 272.604334 243.145368 
L 272.604334 239.632338 
L 273.413136 239.632338 
L 273.413136 236.119309 
L 274.953747 236.119309 
L 274.953747 232.606279 
L 275.493672 232.606279 
L 275.493672 229.093249 
L 286.083625 229.093249 
L 286.083625 225.58022 
L 287.684033 225.58022 
L 287.684033 222.06719 
L 288.064714 222.06719 
L 288.064714 218.55416 
L 288.509507 218.55416 
L 288.509507 215.041131 
L 289.416206 215.041131 
L 289.416206 211.528101 
L 299.995422 211.528101 
L 299.995422 208.015071 
L 300.657839 208.015071 
L 300.657839 204.502041 
L 305.888949 204.502041 
L 305.888949 200.989012 
L 308.61363 200.989012 
L 308.61363 197.475982 
L 314.6563 197.475982 
L 314.6563 193.962952 
L 323.974037 193.962952 
L 323.974037 190.449923 
L 327.429382 190.449923 
L 327.429382 186.936893 
L 330.402188 186.936893 
L 330.402188 183.423863 
L 334.572449 183.423863 
L 334.572449 179.910834 
L 349.341806 179.910834 
L 349.341806 176.397804 
L 355.12808 176.397804 
L 355.12808 172.884774 
L 355.12808 172.884774 
L 355.12808 172.884774 
L 426.4825 172.884774 
" style="fill:none;stroke:#f5deb3;stroke-linecap:square;stroke-width:1.5;"/>
   </g>
   <g id="line2d_19">
    <path clip-path="url(#p128df617ac)" d="M 345.842874 278.275665 
L 345.842874 276.99041 
L 345.842874 276.99041 
L 345.842874 276.99041 
L 345.842874 275.705156 
L 345.842874 275.705156 
L 345.842874 275.705156 
L 345.842874 274.419901 
L 349.1449 274.419901 
L 349.1449 270.564137 
L 352.305229 270.564137 
L 352.305229 266.708372 
L 356.223488 266.708372 
L 356.223488 262.852608 
L 357.182302 262.852608 
L 357.182302 258.996844 
L 357.482013 258.996844 
L 357.482013 255.141079 
L 360.431773 255.141079 
L 360.431773 251.285315 
L 360.569071 251.285315 
L 360.569071 247.429551 
L 361.238737 247.429551 
L 361.238737 243.573786 
L 362.726297 243.573786 
L 362.726297 239.718022 
L 364.598372 239.718022 
L 364.598372 235.862258 
L 365.23689 235.862258 
L 365.23689 232.006494 
L 365.393758 232.006494 
L 365.393758 228.150729 
L 365.781976 228.150729 
L 365.781976 224.294965 
L 367.703036 224.294965 
L 367.703036 220.439201 
L 374.006043 220.439201 
L 374.006043 216.583436 
L 375.387866 216.583436 
L 375.387866 212.727672 
L 380.524333 212.727672 
L 380.524333 208.871908 
L 384.211301 208.871908 
L 384.211301 205.016143 
L 385.364044 205.016143 
L 385.364044 201.160379 
L 386.055246 201.160379 
L 386.055246 197.304615 
L 386.395961 197.304615 
L 386.398236 189.593086 
L 388.865649 189.593086 
L 388.934673 181.881558 
L 390.242199 181.881558 
L 390.242199 178.025793 
L 393.020447 178.025793 
L 393.020447 174.170029 
L 395.863482 174.170029 
L 395.863482 170.314265 
L 397.045944 170.314265 
L 397.045944 166.4585 
L 397.199094 166.4585 
L 397.199094 162.602736 
L 405.931306 162.602736 
L 405.931306 158.746972 
L 407.465863 158.746972 
L 407.4951 151.035443 
L 408.688674 151.035443 
L 408.688674 147.179679 
L 410.062595 147.179679 
L 410.062595 143.323914 
L 411.431888 143.323914 
L 411.431888 139.46815 
L 411.754692 139.46815 
L 411.754692 135.612386 
L 414.20046 135.612386 
L 414.20046 131.756622 
L 414.591622 131.756622 
L 414.591622 127.900857 
L 415.665922 127.900857 
L 415.665922 124.045093 
L 415.862591 124.045093 
L 415.862591 120.189329 
L 425.662999 120.189329 
L 425.662999 116.333564 
L 426.943915 116.333564 
L 426.943915 112.4778 
L 432.142639 112.4778 
L 432.142639 108.622036 
L 438.1825 108.622036 
L 438.1825 108.622036 
" style="fill:none;stroke:#f5deb3;stroke-linecap:square;stroke-width:1.5;"/>
   </g>
   <g id="line2d_20">
    <path clip-path="url(#p128df617ac)" d="M 208.887295 278.275665 
L 208.887295 274.762636 
L 208.887295 274.762636 
L 208.887295 271.249606 
L 212.670539 271.249606 
L 212.670539 267.736576 
L 214.68584 267.736576 
L 214.68584 264.223546 
L 226.60345 264.223546 
L 226.60345 260.710517 
L 243.143867 260.710517 
L 243.143867 257.197487 
L 247.301483 257.197487 
L 247.301483 253.684457 
L 253.661681 253.684457 
L 253.661681 250.171428 
L 261.48006 250.171428 
L 261.48006 246.658398 
L 270.401544 246.658398 
L 270.401544 243.145368 
L 271.61472 243.145368 
L 271.61472 239.632338 
L 273.490456 239.632338 
L 273.490456 236.119309 
L 274.953747 236.119309 
L 274.953747 232.606279 
L 278.05604 232.606279 
L 278.05604 229.093249 
L 278.146707 229.093249 
L 278.146707 225.58022 
L 284.256517 225.58022 
L 284.256517 222.06719 
L 287.140733 222.06719 
L 287.140733 218.55416 
L 287.788253 218.55416 
L 287.788253 215.041131 
L 288.441432 215.041131 
L 288.441432 211.528101 
L 289.366425 211.528101 
L 289.366425 208.015071 
L 292.268991 208.015071 
L 292.268991 204.502041 
L 295.660552 204.502041 
L 295.660552 200.989012 
L 301.367999 200.989012 
L 301.367999 197.475982 
L 301.379916 197.475982 
L 301.379916 193.962952 
L 302.850954 193.962952 
L 302.850954 190.449923 
L 312.862065 190.449923 
L 312.862065 186.936893 
L 313.905432 186.936893 
L 313.905432 183.423863 
L 315.294687 183.423863 
L 315.294687 179.910834 
L 333.144319 179.910834 
L 333.144319 176.397804 
L 334.700823 176.397804 
L 334.700823 172.884774 
L 425.085728 172.884774 
L 425.085728 169.371744 
L 425.085728 169.371744 
L 425.085728 169.371744 
L 426.4825 169.371744 
" style="fill:none;stroke:#f5deb3;stroke-linecap:square;stroke-width:1.5;"/>
   </g>
   <g id="line2d_21">
    <path clip-path="url(#p128df617ac)" d="M 366.746437 278.275665 
L 366.746437 274.762636 
L 385.713614 274.762636 
L 385.713614 271.249606 
L 392.076696 271.249606 
L 392.076696 267.736576 
L 392.076696 267.736576 
L 392.076696 267.736576 
L 426.4825 267.736576 
" style="fill:none;stroke:#f5deb3;stroke-linecap:square;stroke-width:1.5;"/>
   </g>
   <g id="line2d_22">
    <path clip-path="url(#p128df617ac)" d="M 195.49075 278.275665 
L 195.49075 274.762636 
L 201.039094 274.762636 
L 201.039094 271.249606 
L 208.268495 271.249606 
L 208.268495 267.736576 
L 209.192772 267.736576 
L 209.192772 264.223546 
L 214.68584 264.223546 
L 214.68584 260.710517 
L 217.693706 260.710517 
L 217.693706 257.197487 
L 263.196632 257.197487 
L 263.196632 253.684457 
L 285.937882 253.684457 
L 285.937882 250.171428 
L 287.788253 250.171428 
L 287.788253 246.658398 
L 291.21156 246.658398 
L 291.21156 243.145368 
L 293.370815 243.145368 
L 293.370815 239.632338 
L 300.180646 239.632338 
L 300.180646 236.119309 
L 303.283116 236.119309 
L 303.283116 232.606279 
L 310.282077 232.606279 
L 310.282077 229.093249 
L 314.257776 229.093249 
L 314.257776 225.58022 
L 318.51397 225.58022 
L 318.51397 222.06719 
L 336.42921 222.06719 
L 336.42921 218.55416 
L 336.954785 218.55416 
L 336.954785 215.041131 
L 339.965614 215.041131 
L 339.965614 211.528101 
L 341.148465 211.528101 
L 341.148465 208.015071 
L 344.029421 208.015071 
L 344.029421 204.502041 
L 352.45957 204.502041 
L 352.45957 200.989012 
L 361.610755 200.989012 
L 361.610755 197.475982 
L 367.488796 197.475982 
L 367.488796 193.962952 
L 368.253823 193.962952 
L 368.253823 190.449923 
L 368.927501 190.449923 
L 368.927501 186.936893 
L 381.461013 186.936893 
L 381.461013 183.423863 
L 390.956504 183.423863 
L 390.956504 179.910834 
L 396.942348 179.910834 
L 396.942348 176.397804 
L 406.109315 176.397804 
L 406.109315 172.884774 
L 408.987421 172.884774 
L 408.987421 169.371744 
L 413.017323 169.371744 
L 413.017323 165.858715 
L 418.483544 165.858715 
L 418.483544 162.345685 
L 421.627749 162.345685 
L 421.627749 158.832655 
L 424.042652 158.832655 
L 424.042652 155.319626 
L 435.244783 155.319626 
L 435.244783 151.806596 
L 436.301841 151.806596 
L 436.301841 148.293566 
L 438.1825 148.293566 
" style="fill:none;stroke:#f5deb3;stroke-linecap:square;stroke-width:1.5;"/>
   </g>
   <g id="line2d_23">
    <path clip-path="url(#p128df617ac)" d="M 303.429785 278.275665 
L 303.429785 274.762636 
L 309.107854 274.762636 
L 309.107854 271.249606 
L 311.707199 271.249606 
L 311.707199 267.736576 
L 312.408045 267.736576 
L 312.408045 264.223546 
L 313.736435 264.223546 
L 313.736435 260.710517 
L 316.389406 260.710517 
L 316.389406 257.197487 
L 330.020719 257.197487 
L 330.020719 253.684457 
L 333.51893 253.684457 
L 333.51893 250.171428 
L 333.719424 250.171428 
L 333.719424 246.658398 
L 335.200451 246.658398 
L 335.200451 243.145368 
L 341.899237 243.145368 
L 341.899237 239.632338 
L 344.445169 239.632338 
L 344.445169 236.119309 
L 350.149878 236.119309 
L 350.149878 232.606279 
L 355.873484 232.606279 
L 355.873484 229.093249 
L 358.230525 229.093249 
L 358.230525 225.58022 
L 362.697837 225.58022 
L 362.697837 222.06719 
L 374.726332 222.06719 
L 374.726332 218.55416 
L 374.759305 218.55416 
L 374.759305 215.041131 
L 377.241387 215.041131 
L 377.241387 211.528101 
L 381.628863 211.528101 
L 381.628863 208.015071 
L 396.713732 208.015071 
L 396.713732 204.502041 
L 396.713732 204.502041 
L 396.713732 204.502041 
L 426.4825 204.502041 
" style="fill:none;stroke:#f5deb3;stroke-linecap:square;stroke-width:1.5;"/>
   </g>
   <g id="line2d_24">
    <path clip-path="url(#p128df617ac)" d="M 264.900818 278.275665 
L 264.900818 274.762636 
L 266.120399 274.762636 
L 266.120399 271.249606 
L 271.884862 271.249606 
L 271.884862 267.736576 
L 272.867217 267.736576 
L 272.867217 264.223546 
L 278.372386 264.223546 
L 278.372386 260.710517 
L 279.195377 260.710517 
L 279.195377 257.197487 
L 287.45719 257.197487 
L 287.45719 253.684457 
L 309.098228 253.684457 
L 309.098228 250.171428 
L 332.975467 250.171428 
L 332.975467 246.658398 
L 333.807096 246.658398 
L 333.807096 243.145368 
L 335.040943 243.145368 
L 335.040943 239.632338 
L 336.265947 239.632338 
L 336.265947 236.119309 
L 337.901129 236.119309 
L 337.901129 232.606279 
L 338.67057 232.606279 
L 338.67057 229.093249 
L 338.878378 229.093249 
L 338.878378 225.58022 
L 341.267423 225.58022 
L 341.267423 222.06719 
L 349.240311 222.06719 
L 349.240311 218.55416 
L 349.894999 218.55416 
L 349.894999 215.041131 
L 350.89482 215.041131 
L 350.89482 211.528101 
L 359.558672 211.528101 
L 359.558672 208.015071 
L 364.529733 208.015071 
L 364.529733 204.502041 
L 365.539828 204.502041 
L 365.539828 200.989012 
L 366.701368 200.989012 
L 366.701368 197.475982 
L 366.861792 197.475982 
L 366.861792 193.962952 
L 369.179221 193.962952 
L 369.179221 190.449923 
L 375.057832 190.449923 
L 375.057832 186.936893 
L 376.607197 186.936893 
L 376.607197 183.423863 
L 377.187126 183.423863 
L 377.187126 179.910834 
L 382.525083 179.910834 
L 382.525083 176.397804 
L 385.882525 176.397804 
L 385.882525 172.884774 
L 387.475567 172.884774 
L 387.475567 169.371744 
L 391.433907 169.371744 
L 391.433907 165.858715 
L 392.878017 165.858715 
L 392.878017 162.345685 
L 396.938947 162.345685 
L 396.938947 158.832655 
L 402.509432 158.832655 
L 402.509432 155.319626 
L 403.822567 155.319626 
L 403.822567 151.806596 
L 408.629613 151.806596 
L 408.629613 148.293566 
L 422.978982 148.293566 
L 422.978982 144.780537 
L 425.205505 144.780537 
L 425.205505 141.267507 
L 427.418946 141.267507 
L 427.418946 137.754477 
L 436.950753 137.754477 
L 436.950753 134.241447 
L 438.1825 134.241447 
" style="fill:none;stroke:#f5deb3;stroke-linecap:square;stroke-width:1.5;"/>
   </g>
   <g id="line2d_25">
    <path clip-path="url(#p128df617ac)" d="M 384.630721 278.275665 
L 384.630721 274.762636 
L 387.096948 274.762636 
L 387.096948 271.249606 
L 390.729052 271.249606 
L 390.729052 267.736576 
L 391.676661 267.736576 
L 391.676661 264.223546 
L 391.706154 264.223546 
L 391.706154 260.710517 
L 392.477169 260.710517 
L 392.477169 257.197487 
L 392.623098 257.197487 
L 392.623098 253.684457 
L 393.180249 253.684457 
L 393.180249 250.171428 
L 394.205323 250.171428 
L 394.205323 246.658398 
L 395.28416 246.658398 
L 395.28416 243.145368 
L 395.698403 243.145368 
L 395.698403 239.632338 
L 395.754684 239.632338 
L 395.754684 236.119309 
L 395.806492 236.119309 
L 395.806492 232.606279 
L 395.866986 232.606279 
L 395.866986 229.093249 
L 396.220038 229.093249 
L 396.220038 225.58022 
L 396.705173 225.58022 
L 396.705173 222.06719 
L 396.940648 222.06719 
L 396.940648 218.55416 
L 397.506814 218.55416 
L 397.506814 215.041131 
L 398.501025 215.041131 
L 398.501025 211.528101 
L 398.866522 211.528101 
L 398.866522 208.015071 
L 399.985186 208.015071 
L 399.985186 204.502041 
L 400.076542 204.502041 
L 400.076542 200.989012 
L 401.785496 200.989012 
L 401.785496 197.475982 
L 401.968027 197.475982 
L 401.968027 193.962952 
L 412.202058 193.962952 
L 412.202058 190.449923 
L 413.219116 190.449923 
L 413.219116 186.936893 
L 414.131769 186.936893 
L 414.131769 183.423863 
L 414.436189 183.423863 
L 414.436189 179.910834 
L 414.897912 179.910834 
L 414.897912 176.397804 
L 415.394703 176.397804 
L 415.394703 172.884774 
L 415.41666 172.884774 
L 415.41666 169.371744 
L 415.684168 169.371744 
L 415.684168 165.858715 
L 416.329984 165.858715 
L 416.329984 162.345685 
L 416.337947 162.345685 
L 416.337947 158.832655 
L 416.425424 158.832655 
L 416.425424 155.319626 
L 417.765961 155.319626 
L 417.765961 151.806596 
L 418.063719 151.806596 
L 418.063719 148.293566 
L 418.063719 148.293566 
L 418.063719 148.293566 
L 426.4825 148.293566 
" style="fill:none;stroke:#f5deb3;stroke-linecap:square;stroke-width:1.5;"/>
   </g>
   <g id="line2d_26">
    <path clip-path="url(#p128df617ac)" d="M 279.151366 278.275665 
L 279.151366 274.762636 
L 280.470193 274.762636 
L 280.470193 271.249606 
L 280.787266 271.249606 
L 280.787266 267.736576 
L 281.205755 267.736576 
L 281.205755 264.223546 
L 281.371805 264.223546 
L 281.371805 260.710517 
L 282.312089 260.710517 
L 282.312089 257.197487 
L 282.991713 257.197487 
L 282.991713 253.684457 
L 283.228566 253.684457 
L 283.228566 250.171428 
L 286.138128 250.171428 
L 286.138128 246.658398 
L 294.727612 246.658398 
L 294.727612 243.145368 
L 295.562735 243.145368 
L 295.562735 239.632338 
L 296.583656 239.632338 
L 296.583656 236.119309 
L 296.962564 236.119309 
L 296.962564 232.606279 
L 299.659611 232.606279 
L 299.659611 229.093249 
L 306.813314 229.093249 
L 306.813314 225.58022 
L 307.483871 225.58022 
L 307.483871 222.06719 
L 307.503999 222.06719 
L 307.503999 218.55416 
L 308.013499 218.55416 
L 308.013499 215.041131 
L 309.585923 215.041131 
L 309.585923 211.528101 
L 309.822611 211.528101 
L 309.822611 208.015071 
L 310.662097 208.015071 
L 310.662097 204.502041 
L 320.814455 204.502041 
L 320.814455 200.989012 
L 323.271499 200.989012 
L 323.271499 197.475982 
L 323.3625 197.475982 
L 323.3625 193.962952 
L 324.222128 193.962952 
L 324.222128 190.449923 
L 325.65772 190.449923 
L 325.65772 186.936893 
L 330.551528 186.936893 
L 330.551528 183.423863 
L 330.73734 183.423863 
L 330.73734 179.910834 
L 333.743799 179.910834 
L 333.743799 176.397804 
L 334.672335 176.397804 
L 334.672335 172.884774 
L 343.738488 172.884774 
L 343.738488 169.371744 
L 344.831092 169.371744 
L 344.831092 165.858715 
L 348.440675 165.858715 
L 348.440675 162.345685 
L 350.940305 162.345685 
L 350.940305 158.832655 
L 368.195546 158.832655 
L 368.195546 155.319626 
L 370.217027 155.319626 
L 370.217027 151.806596 
L 394.298752 151.806596 
L 394.298752 148.293566 
L 394.625678 148.293566 
L 394.625678 144.780537 
L 409.012408 144.780537 
L 409.012408 141.267507 
L 413.146905 141.267507 
L 413.146905 137.754477 
L 415.940659 137.754477 
L 415.940659 134.241447 
L 416.388172 134.241447 
L 416.388172 130.728418 
L 419.215685 130.728418 
L 419.215685 127.215388 
L 419.610616 127.215388 
L 419.610616 123.702358 
L 419.982391 123.702358 
L 419.982391 120.189329 
L 422.16677 120.189329 
L 422.16677 116.676299 
L 423.734447 116.676299 
L 423.734447 113.163269 
L 423.802939 113.163269 
L 423.802939 109.650239 
L 423.864431 109.650239 
L 423.864431 106.13721 
L 429.287979 106.13721 
L 429.287979 102.62418 
L 429.287979 102.62418 
" style="fill:none;stroke:#f5deb3;stroke-linecap:square;stroke-width:1.5;"/>
   </g>
   <g id="line2d_27">
    <path clip-path="url(#p128df617ac)" d="M 321.749559 278.275665 
L 321.749559 274.762636 
L 321.749559 274.762636 
L 321.749559 274.762636 
L 426.4825 274.762636 
" style="fill:none;stroke:#f5deb3;stroke-linecap:square;stroke-width:1.5;"/>
   </g>
   <g id="line2d_28">
    <path clip-path="url(#p128df617ac)" d="M 244.026093 278.275665 
L 244.026093 274.762636 
L 244.602521 274.762636 
L 244.602521 271.249606 
L 252.1617 271.249606 
L 252.1617 267.736576 
L 260.791916 267.736576 
L 260.791916 264.223546 
L 278.282283 264.223546 
L 278.282283 260.710517 
L 300.10667 260.710517 
L 300.10667 257.197487 
L 313.104199 257.197487 
L 313.104199 253.684457 
L 334.199015 253.684457 
L 334.199015 250.171428 
L 336.32045 250.171428 
L 336.32045 246.658398 
L 338.178118 246.658398 
L 338.178118 243.145368 
L 338.208286 243.145368 
L 338.208286 239.632338 
L 339.875219 239.632338 
L 339.875219 236.119309 
L 340.219154 236.119309 
L 340.219154 232.606279 
L 342.520213 232.606279 
L 342.520213 229.093249 
L 347.158345 229.093249 
L 347.158345 225.58022 
L 348.421187 225.58022 
L 348.421187 222.06719 
L 364.182468 222.06719 
L 364.182468 218.55416 
L 365.271582 218.55416 
L 365.271582 215.041131 
L 365.816149 215.041131 
L 365.816149 211.528101 
L 366.124261 211.528101 
L 366.124261 208.015071 
L 366.740561 208.015071 
L 366.740561 204.502041 
L 367.708757 204.502041 
L 367.708757 200.989012 
L 368.685157 200.989012 
L 368.685157 197.475982 
L 369.144416 197.475982 
L 369.144416 193.962952 
L 369.738822 193.962952 
L 369.738822 190.449923 
L 374.007645 190.449923 
L 374.007645 186.936893 
L 374.087675 186.936893 
L 374.087675 183.423863 
L 378.077212 183.423863 
L 378.077212 179.910834 
L 379.074327 179.910834 
L 379.074327 176.397804 
L 379.202263 176.397804 
L 379.202263 172.884774 
L 382.445212 172.884774 
L 382.445212 169.371744 
L 382.704467 169.371744 
L 382.704467 165.858715 
L 394.111653 165.858715 
L 394.111653 162.345685 
L 397.835177 162.345685 
L 397.835177 158.832655 
L 400.989801 158.832655 
L 400.989801 155.319626 
L 402.727516 155.319626 
L 402.727516 151.806596 
L 403.418817 151.806596 
L 403.418817 148.293566 
L 405.811702 148.293566 
L 405.811702 144.780537 
L 413.569972 144.780537 
L 413.569972 141.267507 
L 419.267583 141.267507 
L 419.267583 137.754477 
L 422.065809 137.754477 
L 422.065809 134.241447 
L 423.33839 134.241447 
L 423.33839 130.728418 
L 425.706051 130.728418 
L 425.706051 127.215388 
L 438.1825 127.215388 
" style="fill:none;stroke:#f5deb3;stroke-linecap:square;stroke-width:1.5;"/>
   </g>
   <g id="line2d_29">
    <path clip-path="url(#p128df617ac)" d="M 240.360344 278.275665 
L 240.360344 274.762636 
L 240.360344 274.762636 
L 240.360344 271.249606 
L 240.360344 271.249606 
L 240.360344 267.736576 
L 265.739689 267.736576 
L 265.739689 264.223546 
L 265.739689 264.223546 
L 265.739689 260.710517 
L 265.739689 260.710517 
L 265.739689 257.197487 
L 271.068311 257.197487 
L 271.068311 253.684457 
L 271.068311 253.684457 
L 271.068311 250.171428 
L 271.068311 250.171428 
L 271.068311 246.658398 
L 302.816615 246.658398 
L 302.816615 243.145368 
L 302.816615 243.145368 
L 302.816615 239.632338 
L 302.816615 239.632338 
L 302.816615 236.119309 
L 337.261199 236.119309 
L 337.261199 232.606279 
L 337.261199 232.606279 
L 337.261199 229.093249 
L 337.261199 229.093249 
L 337.261199 225.58022 
L 351.031105 225.58022 
L 351.031105 222.06719 
L 351.031105 222.06719 
L 351.031105 218.55416 
L 351.031105 218.55416 
L 351.031105 215.041131 
L 358.23548 215.041131 
L 358.23548 211.528101 
L 358.23548 211.528101 
L 358.23548 208.015071 
L 358.23548 208.015071 
L 358.23548 204.502041 
L 360.536539 204.502041 
L 360.536539 200.989012 
L 361.297971 200.989012 
L 361.297971 197.475982 
L 371.163561 197.475982 
L 371.163561 193.962952 
L 372.151813 193.962952 
L 372.151813 190.449923 
L 372.387177 190.449923 
L 372.387177 186.936893 
L 379.90611 186.936893 
L 379.90611 183.423863 
L 382.599724 183.423863 
L 382.599724 179.910834 
L 386.046055 179.910834 
L 386.046055 176.397804 
L 399.573978 176.397804 
L 399.573978 172.884774 
L 399.573978 172.884774 
L 399.573978 172.884774 
L 426.4825 172.884774 
" style="fill:none;stroke:#f5deb3;stroke-linecap:square;stroke-width:1.5;"/>
   </g>
   <g id="line2d_30">
    <path clip-path="url(#p128df617ac)" d="M 329.273086 278.275665 
L 329.273086 274.762636 
L 331.533413 274.762636 
L 331.533413 271.249606 
L 369.679277 271.249606 
L 369.679277 267.736576 
L 380.254316 267.736576 
L 380.254316 264.223546 
L 395.111045 264.223546 
L 395.111045 260.710517 
L 400.291912 260.710517 
L 400.291912 257.197487 
L 401.416898 257.197487 
L 401.416898 253.684457 
L 401.709542 253.684457 
L 401.709542 250.171428 
L 402.007972 250.171428 
L 402.007972 246.658398 
L 402.32009 246.658398 
L 402.32009 243.145368 
L 402.32009 243.145368 
L 402.32009 243.145368 
L 426.4825 243.145368 
" style="fill:none;stroke:#f5deb3;stroke-linecap:square;stroke-width:1.5;"/>
   </g>
   <g id="matplotlib.axis_1">
    <g id="xtick_1">
     <g id="line2d_31">
      <path clip-path="url(#p128df617ac)" d="M 69.3625 278.275665 
L 69.3625 12.163665 
" style="fill:none;stroke:#b0b0b0;stroke-linecap:square;stroke-width:0.8;"/>
     </g>
     <g id="line2d_32">
      <defs>
       <path d="M 0 0 
L 0 3.5 
" id="m5b37cefd29" style="stroke:#000000;stroke-width:0.8;"/>
      </defs>
      <g>
       <use style="stroke:#000000;stroke-width:0.8;" x="69.3625" xlink:href="#m5b37cefd29" y="278.275665"/>
      </g>
     </g>
     <g id="text_1">
      <!-- 0 -->
      <defs>
       <path d="M 31.78125 66.40625 
Q 24.171875 66.40625 20.328125 58.90625 
Q 16.5 51.421875 16.5 36.375 
Q 16.5 21.390625 20.328125 13.890625 
Q 24.171875 6.390625 31.78125 6.390625 
Q 39.453125 6.390625 43.28125 13.890625 
Q 47.125 21.390625 47.125 36.375 
Q 47.125 51.421875 43.28125 58.90625 
Q 39.453125 66.40625 31.78125 66.40625 
M 31.78125 74.21875 
Q 44.046875 74.21875 50.515625 64.515625 
Q 56.984375 54.828125 56.984375 36.375 
Q 56.984375 17.96875 50.515625 8.265625 
Q 44.046875 -1.421875 31.78125 -1.421875 
Q 19.53125 -1.421875 13.0625 8.265625 
Q 6.59375 17.96875 6.59375 36.375 
Q 6.59375 54.828125 13.0625 64.515625 
Q 19.53125 74.21875 31.78125 74.21875 
" id="DejaVuSans-30"/>
      </defs>
      <g transform="translate(63 300.47254)scale(0.2 -0.2)">
       <use xlink:href="#DejaVuSans-30"/>
      </g>
     </g>
    </g>
    <g id="xtick_2">
     <g id="line2d_33">
      <path clip-path="url(#p128df617ac)" d="M 236.064566 278.275665 
L 236.064566 12.163665 
" style="fill:none;stroke:#b0b0b0;stroke-linecap:square;stroke-width:0.8;"/>
     </g>
     <g id="line2d_34">
      <g>
       <use style="stroke:#000000;stroke-width:0.8;" x="236.064566" xlink:href="#m5b37cefd29" y="278.275665"/>
      </g>
     </g>
     <g id="text_2">
      <!-- 2 -->
      <defs>
       <path d="M 19.1875 8.296875 
L 53.609375 8.296875 
L 53.609375 0 
L 7.328125 0 
L 7.328125 8.296875 
Q 12.9375 14.109375 22.625 23.890625 
Q 32.328125 33.6875 34.8125 36.53125 
Q 39.546875 41.84375 41.421875 45.53125 
Q 43.3125 49.21875 43.3125 52.78125 
Q 43.3125 58.59375 39.234375 62.25 
Q 35.15625 65.921875 28.609375 65.921875 
Q 23.96875 65.921875 18.8125 64.3125 
Q 13.671875 62.703125 7.8125 59.421875 
L 7.8125 69.390625 
Q 13.765625 71.78125 18.9375 73 
Q 24.125 74.21875 28.421875 74.21875 
Q 39.75 74.21875 46.484375 68.546875 
Q 53.21875 62.890625 53.21875 53.421875 
Q 53.21875 48.921875 51.53125 44.890625 
Q 49.859375 40.875 45.40625 35.40625 
Q 44.1875 33.984375 37.640625 27.21875 
Q 31.109375 20.453125 19.1875 8.296875 
" id="DejaVuSans-32"/>
      </defs>
      <g transform="translate(229.702066 300.47254)scale(0.2 -0.2)">
       <use xlink:href="#DejaVuSans-32"/>
      </g>
     </g>
    </g>
    <g id="xtick_3">
     <g id="line2d_35">
      <path clip-path="url(#p128df617ac)" d="M 402.766631 278.275665 
L 402.766631 12.163665 
" style="fill:none;stroke:#b0b0b0;stroke-linecap:square;stroke-width:0.8;"/>
     </g>
     <g id="line2d_36">
      <g>
       <use style="stroke:#000000;stroke-width:0.8;" x="402.766631" xlink:href="#m5b37cefd29" y="278.275665"/>
      </g>
     </g>
     <g id="text_3">
      <!-- 4 -->
      <defs>
       <path d="M 37.796875 64.3125 
L 12.890625 25.390625 
L 37.796875 25.390625 
z
M 35.203125 72.90625 
L 47.609375 72.90625 
L 47.609375 25.390625 
L 58.015625 25.390625 
L 58.015625 17.1875 
L 47.609375 17.1875 
L 47.609375 0 
L 37.796875 0 
L 37.796875 17.1875 
L 4.890625 17.1875 
L 4.890625 26.703125 
z
" id="DejaVuSans-34"/>
      </defs>
      <g transform="translate(396.404131 300.47254)scale(0.2 -0.2)">
       <use xlink:href="#DejaVuSans-34"/>
      </g>
     </g>
    </g>
    <g id="xtick_4">
     <g id="line2d_37">
      <defs>
       <path d="M 0 0 
L 0 2 
" id="mb58704f62f" style="stroke:#000000;stroke-width:0.6;"/>
      </defs>
      <g>
       <use style="stroke:#000000;stroke-width:0.6;" x="94.453661" xlink:href="#mb58704f62f" y="278.275665"/>
      </g>
     </g>
    </g>
    <g id="xtick_5">
     <g id="line2d_38">
      <g>
       <use style="stroke:#000000;stroke-width:0.6;" x="109.131049" xlink:href="#mb58704f62f" y="278.275665"/>
      </g>
     </g>
    </g>
    <g id="xtick_6">
     <g id="line2d_39">
      <g>
       <use style="stroke:#000000;stroke-width:0.6;" x="119.544822" xlink:href="#mb58704f62f" y="278.275665"/>
      </g>
     </g>
    </g>
    <g id="xtick_7">
     <g id="line2d_40">
      <g>
       <use style="stroke:#000000;stroke-width:0.6;" x="127.622372" xlink:href="#mb58704f62f" y="278.275665"/>
      </g>
     </g>
    </g>
    <g id="xtick_8">
     <g id="line2d_41">
      <g>
       <use style="stroke:#000000;stroke-width:0.6;" x="134.22221" xlink:href="#mb58704f62f" y="278.275665"/>
      </g>
     </g>
    </g>
    <g id="xtick_9">
     <g id="line2d_42">
      <g>
       <use style="stroke:#000000;stroke-width:0.6;" x="139.802295" xlink:href="#mb58704f62f" y="278.275665"/>
      </g>
     </g>
    </g>
    <g id="xtick_10">
     <g id="line2d_43">
      <g>
       <use style="stroke:#000000;stroke-width:0.6;" x="144.635983" xlink:href="#mb58704f62f" y="278.275665"/>
      </g>
     </g>
    </g>
    <g id="xtick_11">
     <g id="line2d_44">
      <g>
       <use style="stroke:#000000;stroke-width:0.6;" x="148.899599" xlink:href="#mb58704f62f" y="278.275665"/>
      </g>
     </g>
    </g>
    <g id="xtick_12">
     <g id="line2d_45">
      <g>
       <use style="stroke:#000000;stroke-width:0.6;" x="177.804694" xlink:href="#mb58704f62f" y="278.275665"/>
      </g>
     </g>
    </g>
    <g id="xtick_13">
     <g id="line2d_46">
      <g>
       <use style="stroke:#000000;stroke-width:0.6;" x="192.482082" xlink:href="#mb58704f62f" y="278.275665"/>
      </g>
     </g>
    </g>
    <g id="xtick_14">
     <g id="line2d_47">
      <g>
       <use style="stroke:#000000;stroke-width:0.6;" x="202.895855" xlink:href="#mb58704f62f" y="278.275665"/>
      </g>
     </g>
    </g>
    <g id="xtick_15">
     <g id="line2d_48">
      <g>
       <use style="stroke:#000000;stroke-width:0.6;" x="210.973405" xlink:href="#mb58704f62f" y="278.275665"/>
      </g>
     </g>
    </g>
    <g id="xtick_16">
     <g id="line2d_49">
      <g>
       <use style="stroke:#000000;stroke-width:0.6;" x="217.573243" xlink:href="#mb58704f62f" y="278.275665"/>
      </g>
     </g>
    </g>
    <g id="xtick_17">
     <g id="line2d_50">
      <g>
       <use style="stroke:#000000;stroke-width:0.6;" x="223.153327" xlink:href="#mb58704f62f" y="278.275665"/>
      </g>
     </g>
    </g>
    <g id="xtick_18">
     <g id="line2d_51">
      <g>
       <use style="stroke:#000000;stroke-width:0.6;" x="227.987016" xlink:href="#mb58704f62f" y="278.275665"/>
      </g>
     </g>
    </g>
    <g id="xtick_19">
     <g id="line2d_52">
      <g>
       <use style="stroke:#000000;stroke-width:0.6;" x="232.250632" xlink:href="#mb58704f62f" y="278.275665"/>
      </g>
     </g>
    </g>
    <g id="xtick_20">
     <g id="line2d_53">
      <g>
       <use style="stroke:#000000;stroke-width:0.6;" x="261.155727" xlink:href="#mb58704f62f" y="278.275665"/>
      </g>
     </g>
    </g>
    <g id="xtick_21">
     <g id="line2d_54">
      <g>
       <use style="stroke:#000000;stroke-width:0.6;" x="275.833115" xlink:href="#mb58704f62f" y="278.275665"/>
      </g>
     </g>
    </g>
    <g id="xtick_22">
     <g id="line2d_55">
      <g>
       <use style="stroke:#000000;stroke-width:0.6;" x="286.246888" xlink:href="#mb58704f62f" y="278.275665"/>
      </g>
     </g>
    </g>
    <g id="xtick_23">
     <g id="line2d_56">
      <g>
       <use style="stroke:#000000;stroke-width:0.6;" x="294.324438" xlink:href="#mb58704f62f" y="278.275665"/>
      </g>
     </g>
    </g>
    <g id="xtick_24">
     <g id="line2d_57">
      <g>
       <use style="stroke:#000000;stroke-width:0.6;" x="300.924276" xlink:href="#mb58704f62f" y="278.275665"/>
      </g>
     </g>
    </g>
    <g id="xtick_25">
     <g id="line2d_58">
      <g>
       <use style="stroke:#000000;stroke-width:0.6;" x="306.50436" xlink:href="#mb58704f62f" y="278.275665"/>
      </g>
     </g>
    </g>
    <g id="xtick_26">
     <g id="line2d_59">
      <g>
       <use style="stroke:#000000;stroke-width:0.6;" x="311.338049" xlink:href="#mb58704f62f" y="278.275665"/>
      </g>
     </g>
    </g>
    <g id="xtick_27">
     <g id="line2d_60">
      <g>
       <use style="stroke:#000000;stroke-width:0.6;" x="315.601665" xlink:href="#mb58704f62f" y="278.275665"/>
      </g>
     </g>
    </g>
    <g id="xtick_28">
     <g id="line2d_61">
      <g>
       <use style="stroke:#000000;stroke-width:0.6;" x="344.50676" xlink:href="#mb58704f62f" y="278.275665"/>
      </g>
     </g>
    </g>
    <g id="xtick_29">
     <g id="line2d_62">
      <g>
       <use style="stroke:#000000;stroke-width:0.6;" x="359.184148" xlink:href="#mb58704f62f" y="278.275665"/>
      </g>
     </g>
    </g>
    <g id="xtick_30">
     <g id="line2d_63">
      <g>
       <use style="stroke:#000000;stroke-width:0.6;" x="369.597921" xlink:href="#mb58704f62f" y="278.275665"/>
      </g>
     </g>
    </g>
    <g id="xtick_31">
     <g id="line2d_64">
      <g>
       <use style="stroke:#000000;stroke-width:0.6;" x="377.67547" xlink:href="#mb58704f62f" y="278.275665"/>
      </g>
     </g>
    </g>
    <g id="xtick_32">
     <g id="line2d_65">
      <g>
       <use style="stroke:#000000;stroke-width:0.6;" x="384.275309" xlink:href="#mb58704f62f" y="278.275665"/>
      </g>
     </g>
    </g>
    <g id="xtick_33">
     <g id="line2d_66">
      <g>
       <use style="stroke:#000000;stroke-width:0.6;" x="389.855393" xlink:href="#mb58704f62f" y="278.275665"/>
      </g>
     </g>
    </g>
    <g id="xtick_34">
     <g id="line2d_67">
      <g>
       <use style="stroke:#000000;stroke-width:0.6;" x="394.689082" xlink:href="#mb58704f62f" y="278.275665"/>
      </g>
     </g>
    </g>
    <g id="xtick_35">
     <g id="line2d_68">
      <g>
       <use style="stroke:#000000;stroke-width:0.6;" x="398.952697" xlink:href="#mb58704f62f" y="278.275665"/>
      </g>
     </g>
    </g>
    <g id="text_4">
     <!-- log10 of FEvals / DIM -->
     <defs>
      <path d="M 9.421875 75.984375 
L 18.40625 75.984375 
L 18.40625 0 
L 9.421875 0 
z
" id="DejaVuSans-6c"/>
      <path d="M 30.609375 48.390625 
Q 23.390625 48.390625 19.1875 42.75 
Q 14.984375 37.109375 14.984375 27.296875 
Q 14.984375 17.484375 19.15625 11.84375 
Q 23.34375 6.203125 30.609375 6.203125 
Q 37.796875 6.203125 41.984375 11.859375 
Q 46.1875 17.53125 46.1875 27.296875 
Q 46.1875 37.015625 41.984375 42.703125 
Q 37.796875 48.390625 30.609375 48.390625 
M 30.609375 56 
Q 42.328125 56 49.015625 48.375 
Q 55.71875 40.765625 55.71875 27.296875 
Q 55.71875 13.875 49.015625 6.21875 
Q 42.328125 -1.421875 30.609375 -1.421875 
Q 18.84375 -1.421875 12.171875 6.21875 
Q 5.515625 13.875 5.515625 27.296875 
Q 5.515625 40.765625 12.171875 48.375 
Q 18.84375 56 30.609375 56 
" id="DejaVuSans-6f"/>
      <path d="M 45.40625 27.984375 
Q 45.40625 37.75 41.375 43.109375 
Q 37.359375 48.484375 30.078125 48.484375 
Q 22.859375 48.484375 18.828125 43.109375 
Q 14.796875 37.75 14.796875 27.984375 
Q 14.796875 18.265625 18.828125 12.890625 
Q 22.859375 7.515625 30.078125 7.515625 
Q 37.359375 7.515625 41.375 12.890625 
Q 45.40625 18.265625 45.40625 27.984375 
M 54.390625 6.78125 
Q 54.390625 -7.171875 48.1875 -13.984375 
Q 42 -20.796875 29.203125 -20.796875 
Q 24.46875 -20.796875 20.265625 -20.09375 
Q 16.0625 -19.390625 12.109375 -17.921875 
L 12.109375 -9.1875 
Q 16.0625 -11.328125 19.921875 -12.34375 
Q 23.78125 -13.375 27.78125 -13.375 
Q 36.625 -13.375 41.015625 -8.765625 
Q 45.40625 -4.15625 45.40625 5.171875 
L 45.40625 9.625 
Q 42.625 4.78125 38.28125 2.390625 
Q 33.9375 0 27.875 0 
Q 17.828125 0 11.671875 7.65625 
Q 5.515625 15.328125 5.515625 27.984375 
Q 5.515625 40.671875 11.671875 48.328125 
Q 17.828125 56 27.875 56 
Q 33.9375 56 38.28125 53.609375 
Q 42.625 51.21875 45.40625 46.390625 
L 45.40625 54.6875 
L 54.390625 54.6875 
z
" id="DejaVuSans-67"/>
      <path d="M 12.40625 8.296875 
L 28.515625 8.296875 
L 28.515625 63.921875 
L 10.984375 60.40625 
L 10.984375 69.390625 
L 28.421875 72.90625 
L 38.28125 72.90625 
L 38.28125 8.296875 
L 54.390625 8.296875 
L 54.390625 0 
L 12.40625 0 
z
" id="DejaVuSans-31"/>
      <path id="DejaVuSans-20"/>
      <path d="M 37.109375 75.984375 
L 37.109375 68.5 
L 28.515625 68.5 
Q 23.6875 68.5 21.796875 66.546875 
Q 19.921875 64.59375 19.921875 59.515625 
L 19.921875 54.6875 
L 34.71875 54.6875 
L 34.71875 47.703125 
L 19.921875 47.703125 
L 19.921875 0 
L 10.890625 0 
L 10.890625 47.703125 
L 2.296875 47.703125 
L 2.296875 54.6875 
L 10.890625 54.6875 
L 10.890625 58.5 
Q 10.890625 67.625 15.140625 71.796875 
Q 19.390625 75.984375 28.609375 75.984375 
z
" id="DejaVuSans-66"/>
      <path d="M 9.8125 72.90625 
L 51.703125 72.90625 
L 51.703125 64.59375 
L 19.671875 64.59375 
L 19.671875 43.109375 
L 48.578125 43.109375 
L 48.578125 34.8125 
L 19.671875 34.8125 
L 19.671875 0 
L 9.8125 0 
z
" id="DejaVuSans-46"/>
      <path d="M 9.8125 72.90625 
L 55.90625 72.90625 
L 55.90625 64.59375 
L 19.671875 64.59375 
L 19.671875 43.015625 
L 54.390625 43.015625 
L 54.390625 34.71875 
L 19.671875 34.71875 
L 19.671875 8.296875 
L 56.78125 8.296875 
L 56.78125 0 
L 9.8125 0 
z
" id="DejaVuSans-45"/>
      <path d="M 2.984375 54.6875 
L 12.5 54.6875 
L 29.59375 8.796875 
L 46.6875 54.6875 
L 56.203125 54.6875 
L 35.6875 0 
L 23.484375 0 
z
" id="DejaVuSans-76"/>
      <path d="M 34.28125 27.484375 
Q 23.390625 27.484375 19.1875 25 
Q 14.984375 22.515625 14.984375 16.5 
Q 14.984375 11.71875 18.140625 8.90625 
Q 21.296875 6.109375 26.703125 6.109375 
Q 34.1875 6.109375 38.703125 11.40625 
Q 43.21875 16.703125 43.21875 25.484375 
L 43.21875 27.484375 
z
M 52.203125 31.203125 
L 52.203125 0 
L 43.21875 0 
L 43.21875 8.296875 
Q 40.140625 3.328125 35.546875 0.953125 
Q 30.953125 -1.421875 24.3125 -1.421875 
Q 15.921875 -1.421875 10.953125 3.296875 
Q 6 8.015625 6 15.921875 
Q 6 25.140625 12.171875 29.828125 
Q 18.359375 34.515625 30.609375 34.515625 
L 43.21875 34.515625 
L 43.21875 35.40625 
Q 43.21875 41.609375 39.140625 45 
Q 35.0625 48.390625 27.6875 48.390625 
Q 23 48.390625 18.546875 47.265625 
Q 14.109375 46.140625 10.015625 43.890625 
L 10.015625 52.203125 
Q 14.9375 54.109375 19.578125 55.046875 
Q 24.21875 56 28.609375 56 
Q 40.484375 56 46.34375 49.84375 
Q 52.203125 43.703125 52.203125 31.203125 
" id="DejaVuSans-61"/>
      <path d="M 44.28125 53.078125 
L 44.28125 44.578125 
Q 40.484375 46.53125 36.375 47.5 
Q 32.28125 48.484375 27.875 48.484375 
Q 21.1875 48.484375 17.84375 46.4375 
Q 14.5 44.390625 14.5 40.28125 
Q 14.5 37.15625 16.890625 35.375 
Q 19.28125 33.59375 26.515625 31.984375 
L 29.59375 31.296875 
Q 39.15625 29.25 43.1875 25.515625 
Q 47.21875 21.78125 47.21875 15.09375 
Q 47.21875 7.46875 41.1875 3.015625 
Q 35.15625 -1.421875 24.609375 -1.421875 
Q 20.21875 -1.421875 15.453125 -0.5625 
Q 10.6875 0.296875 5.421875 2 
L 5.421875 11.28125 
Q 10.40625 8.6875 15.234375 7.390625 
Q 20.0625 6.109375 24.8125 6.109375 
Q 31.15625 6.109375 34.5625 8.28125 
Q 37.984375 10.453125 37.984375 14.40625 
Q 37.984375 18.0625 35.515625 20.015625 
Q 33.0625 21.96875 24.703125 23.78125 
L 21.578125 24.515625 
Q 13.234375 26.265625 9.515625 29.90625 
Q 5.8125 33.546875 5.8125 39.890625 
Q 5.8125 47.609375 11.28125 51.796875 
Q 16.75 56 26.8125 56 
Q 31.78125 56 36.171875 55.265625 
Q 40.578125 54.546875 44.28125 53.078125 
" id="DejaVuSans-73"/>
      <path d="M 25.390625 72.90625 
L 33.6875 72.90625 
L 8.296875 -9.28125 
L 0 -9.28125 
z
" id="DejaVuSans-2f"/>
      <path d="M 19.671875 64.796875 
L 19.671875 8.109375 
L 31.59375 8.109375 
Q 46.6875 8.109375 53.6875 14.9375 
Q 60.6875 21.78125 60.6875 36.53125 
Q 60.6875 51.171875 53.6875 57.984375 
Q 46.6875 64.796875 31.59375 64.796875 
z
M 9.8125 72.90625 
L 30.078125 72.90625 
Q 51.265625 72.90625 61.171875 64.09375 
Q 71.09375 55.28125 71.09375 36.53125 
Q 71.09375 17.671875 61.125 8.828125 
Q 51.171875 0 30.078125 0 
L 9.8125 0 
z
" id="DejaVuSans-44"/>
      <path d="M 9.8125 72.90625 
L 19.671875 72.90625 
L 19.671875 0 
L 9.8125 0 
z
" id="DejaVuSans-49"/>
      <path d="M 9.8125 72.90625 
L 24.515625 72.90625 
L 43.109375 23.296875 
L 61.8125 72.90625 
L 76.515625 72.90625 
L 76.515625 0 
L 66.890625 0 
L 66.890625 64.015625 
L 48.09375 14.015625 
L 38.1875 14.015625 
L 19.390625 64.015625 
L 19.390625 0 
L 9.8125 0 
z
" id="DejaVuSans-4d"/>
     </defs>
     <g transform="translate(142.849063 323.82879)scale(0.2 -0.2)">
      <use xlink:href="#DejaVuSans-6c"/>
      <use x="27.783203" xlink:href="#DejaVuSans-6f"/>
      <use x="88.964844" xlink:href="#DejaVuSans-67"/>
      <use x="152.441406" xlink:href="#DejaVuSans-31"/>
      <use x="216.064453" xlink:href="#DejaVuSans-30"/>
      <use x="279.6875" xlink:href="#DejaVuSans-20"/>
      <use x="311.474609" xlink:href="#DejaVuSans-6f"/>
      <use x="372.65625" xlink:href="#DejaVuSans-66"/>
      <use x="407.861328" xlink:href="#DejaVuSans-20"/>
      <use x="439.648438" xlink:href="#DejaVuSans-46"/>
      <use x="497.167969" xlink:href="#DejaVuSans-45"/>
      <use x="560.351562" xlink:href="#DejaVuSans-76"/>
      <use x="619.53125" xlink:href="#DejaVuSans-61"/>
      <use x="680.810547" xlink:href="#DejaVuSans-6c"/>
      <use x="708.59375" xlink:href="#DejaVuSans-73"/>
      <use x="760.693359" xlink:href="#DejaVuSans-20"/>
      <use x="792.480469" xlink:href="#DejaVuSans-2f"/>
      <use x="826.171875" xlink:href="#DejaVuSans-20"/>
      <use x="857.958984" xlink:href="#DejaVuSans-44"/>
      <use x="934.960938" xlink:href="#DejaVuSans-49"/>
      <use x="964.453125" xlink:href="#DejaVuSans-4d"/>
     </g>
    </g>
   </g>
   <g id="matplotlib.axis_2">
    <g id="ytick_1">
     <g id="line2d_69">
      <path clip-path="url(#p128df617ac)" d="M 69.3625 278.275665 
L 426.4825 278.275665 
" style="fill:none;stroke:#b0b0b0;stroke-linecap:square;stroke-width:0.8;"/>
     </g>
     <g id="line2d_70">
      <defs>
       <path d="M 0 0 
L -3.5 0 
" id="m668b8ad7bd" style="stroke:#000000;stroke-width:0.8;"/>
      </defs>
      <g>
       <use style="stroke:#000000;stroke-width:0.8;" x="69.3625" xlink:href="#m668b8ad7bd" y="278.275665"/>
      </g>
     </g>
     <g id="text_5">
      <!-- 0.0 -->
      <defs>
       <path d="M 10.6875 12.40625 
L 21 12.40625 
L 21 0 
L 10.6875 0 
z
" id="DejaVuSans-2e"/>
      </defs>
      <g transform="translate(30.55625 285.874103)scale(0.2 -0.2)">
       <use xlink:href="#DejaVuSans-30"/>
       <use x="63.623047" xlink:href="#DejaVuSans-2e"/>
       <use x="95.410156" xlink:href="#DejaVuSans-30"/>
      </g>
     </g>
    </g>
    <g id="ytick_2">
     <g id="line2d_71">
      <path clip-path="url(#p128df617ac)" d="M 69.3625 225.58022 
L 426.4825 225.58022 
" style="fill:none;stroke:#b0b0b0;stroke-linecap:square;stroke-width:0.8;"/>
     </g>
     <g id="line2d_72">
      <g>
       <use style="stroke:#000000;stroke-width:0.8;" x="69.3625" xlink:href="#m668b8ad7bd" y="225.58022"/>
      </g>
     </g>
     <g id="text_6">
      <!-- 0.2 -->
      <g transform="translate(30.55625 233.178657)scale(0.2 -0.2)">
       <use xlink:href="#DejaVuSans-30"/>
       <use x="63.623047" xlink:href="#DejaVuSans-2e"/>
       <use x="95.410156" xlink:href="#DejaVuSans-32"/>
      </g>
     </g>
    </g>
    <g id="ytick_3">
     <g id="line2d_73">
      <path clip-path="url(#p128df617ac)" d="M 69.3625 172.884774 
L 426.4825 172.884774 
" style="fill:none;stroke:#b0b0b0;stroke-linecap:square;stroke-width:0.8;"/>
     </g>
     <g id="line2d_74">
      <g>
       <use style="stroke:#000000;stroke-width:0.8;" x="69.3625" xlink:href="#m668b8ad7bd" y="172.884774"/>
      </g>
     </g>
     <g id="text_7">
      <!-- 0.4 -->
      <g transform="translate(30.55625 180.483212)scale(0.2 -0.2)">
       <use xlink:href="#DejaVuSans-30"/>
       <use x="63.623047" xlink:href="#DejaVuSans-2e"/>
       <use x="95.410156" xlink:href="#DejaVuSans-34"/>
      </g>
     </g>
    </g>
    <g id="ytick_4">
     <g id="line2d_75">
      <path clip-path="url(#p128df617ac)" d="M 69.3625 120.189329 
L 426.4825 120.189329 
" style="fill:none;stroke:#b0b0b0;stroke-linecap:square;stroke-width:0.8;"/>
     </g>
     <g id="line2d_76">
      <g>
       <use style="stroke:#000000;stroke-width:0.8;" x="69.3625" xlink:href="#m668b8ad7bd" y="120.189329"/>
      </g>
     </g>
     <g id="text_8">
      <!-- 0.6 -->
      <defs>
       <path d="M 33.015625 40.375 
Q 26.375 40.375 22.484375 35.828125 
Q 18.609375 31.296875 18.609375 23.390625 
Q 18.609375 15.53125 22.484375 10.953125 
Q 26.375 6.390625 33.015625 6.390625 
Q 39.65625 6.390625 43.53125 10.953125 
Q 47.40625 15.53125 47.40625 23.390625 
Q 47.40625 31.296875 43.53125 35.828125 
Q 39.65625 40.375 33.015625 40.375 
M 52.59375 71.296875 
L 52.59375 62.3125 
Q 48.875 64.0625 45.09375 64.984375 
Q 41.3125 65.921875 37.59375 65.921875 
Q 27.828125 65.921875 22.671875 59.328125 
Q 17.53125 52.734375 16.796875 39.40625 
Q 19.671875 43.65625 24.015625 45.921875 
Q 28.375 48.1875 33.59375 48.1875 
Q 44.578125 48.1875 50.953125 41.515625 
Q 57.328125 34.859375 57.328125 23.390625 
Q 57.328125 12.15625 50.6875 5.359375 
Q 44.046875 -1.421875 33.015625 -1.421875 
Q 20.359375 -1.421875 13.671875 8.265625 
Q 6.984375 17.96875 6.984375 36.375 
Q 6.984375 53.65625 15.1875 63.9375 
Q 23.390625 74.21875 37.203125 74.21875 
Q 40.921875 74.21875 44.703125 73.484375 
Q 48.484375 72.75 52.59375 71.296875 
" id="DejaVuSans-36"/>
      </defs>
      <g transform="translate(30.55625 127.787766)scale(0.2 -0.2)">
       <use xlink:href="#DejaVuSans-30"/>
       <use x="63.623047" xlink:href="#DejaVuSans-2e"/>
       <use x="95.410156" xlink:href="#DejaVuSans-36"/>
      </g>
     </g>
    </g>
    <g id="ytick_5">
     <g id="line2d_77">
      <path clip-path="url(#p128df617ac)" d="M 69.3625 67.493883 
L 426.4825 67.493883 
" style="fill:none;stroke:#b0b0b0;stroke-linecap:square;stroke-width:0.8;"/>
     </g>
     <g id="line2d_78">
      <g>
       <use style="stroke:#000000;stroke-width:0.8;" x="69.3625" xlink:href="#m668b8ad7bd" y="67.493883"/>
      </g>
     </g>
     <g id="text_9">
      <!-- 0.8 -->
      <defs>
       <path d="M 31.78125 34.625 
Q 24.75 34.625 20.71875 30.859375 
Q 16.703125 27.09375 16.703125 20.515625 
Q 16.703125 13.921875 20.71875 10.15625 
Q 24.75 6.390625 31.78125 6.390625 
Q 38.8125 6.390625 42.859375 10.171875 
Q 46.921875 13.96875 46.921875 20.515625 
Q 46.921875 27.09375 42.890625 30.859375 
Q 38.875 34.625 31.78125 34.625 
M 21.921875 38.8125 
Q 15.578125 40.375 12.03125 44.71875 
Q 8.5 49.078125 8.5 55.328125 
Q 8.5 64.0625 14.71875 69.140625 
Q 20.953125 74.21875 31.78125 74.21875 
Q 42.671875 74.21875 48.875 69.140625 
Q 55.078125 64.0625 55.078125 55.328125 
Q 55.078125 49.078125 51.53125 44.71875 
Q 48 40.375 41.703125 38.8125 
Q 48.828125 37.15625 52.796875 32.3125 
Q 56.78125 27.484375 56.78125 20.515625 
Q 56.78125 9.90625 50.3125 4.234375 
Q 43.84375 -1.421875 31.78125 -1.421875 
Q 19.734375 -1.421875 13.25 4.234375 
Q 6.78125 9.90625 6.78125 20.515625 
Q 6.78125 27.484375 10.78125 32.3125 
Q 14.796875 37.15625 21.921875 38.8125 
M 18.3125 54.390625 
Q 18.3125 48.734375 21.84375 45.5625 
Q 25.390625 42.390625 31.78125 42.390625 
Q 38.140625 42.390625 41.71875 45.5625 
Q 45.3125 48.734375 45.3125 54.390625 
Q 45.3125 60.0625 41.71875 63.234375 
Q 38.140625 66.40625 31.78125 66.40625 
Q 25.390625 66.40625 21.84375 63.234375 
Q 18.3125 60.0625 18.3125 54.390625 
" id="DejaVuSans-38"/>
      </defs>
      <g transform="translate(30.55625 75.092321)scale(0.2 -0.2)">
       <use xlink:href="#DejaVuSans-30"/>
       <use x="63.623047" xlink:href="#DejaVuSans-2e"/>
       <use x="95.410156" xlink:href="#DejaVuSans-38"/>
      </g>
     </g>
    </g>
    <g id="ytick_6">
     <g id="line2d_79">
      <path clip-path="url(#p128df617ac)" d="M 69.3625 14.798437 
L 426.4825 14.798437 
" style="fill:none;stroke:#b0b0b0;stroke-linecap:square;stroke-width:0.8;"/>
     </g>
     <g id="line2d_80">
      <g>
       <use style="stroke:#000000;stroke-width:0.8;" x="69.3625" xlink:href="#m668b8ad7bd" y="14.798437"/>
      </g>
     </g>
     <g id="text_10">
      <!-- 1.0 -->
      <g transform="translate(30.55625 22.396875)scale(0.2 -0.2)">
       <use xlink:href="#DejaVuSans-31"/>
       <use x="63.623047" xlink:href="#DejaVuSans-2e"/>
       <use x="95.410156" xlink:href="#DejaVuSans-30"/>
      </g>
     </g>
    </g>
    <g id="text_11">
     <!-- proportion of trials -->
     <defs>
      <path d="M 18.109375 8.203125 
L 18.109375 -20.796875 
L 9.078125 -20.796875 
L 9.078125 54.6875 
L 18.109375 54.6875 
L 18.109375 46.390625 
Q 20.953125 51.265625 25.265625 53.625 
Q 29.59375 56 35.59375 56 
Q 45.5625 56 51.78125 48.09375 
Q 58.015625 40.1875 58.015625 27.296875 
Q 58.015625 14.40625 51.78125 6.484375 
Q 45.5625 -1.421875 35.59375 -1.421875 
Q 29.59375 -1.421875 25.265625 0.953125 
Q 20.953125 3.328125 18.109375 8.203125 
M 48.6875 27.296875 
Q 48.6875 37.203125 44.609375 42.84375 
Q 40.53125 48.484375 33.40625 48.484375 
Q 26.265625 48.484375 22.1875 42.84375 
Q 18.109375 37.203125 18.109375 27.296875 
Q 18.109375 17.390625 22.1875 11.75 
Q 26.265625 6.109375 33.40625 6.109375 
Q 40.53125 6.109375 44.609375 11.75 
Q 48.6875 17.390625 48.6875 27.296875 
" id="DejaVuSans-70"/>
      <path d="M 41.109375 46.296875 
Q 39.59375 47.171875 37.8125 47.578125 
Q 36.03125 48 33.890625 48 
Q 26.265625 48 22.1875 43.046875 
Q 18.109375 38.09375 18.109375 28.8125 
L 18.109375 0 
L 9.078125 0 
L 9.078125 54.6875 
L 18.109375 54.6875 
L 18.109375 46.1875 
Q 20.953125 51.171875 25.484375 53.578125 
Q 30.03125 56 36.53125 56 
Q 37.453125 56 38.578125 55.875 
Q 39.703125 55.765625 41.0625 55.515625 
z
" id="DejaVuSans-72"/>
      <path d="M 18.3125 70.21875 
L 18.3125 54.6875 
L 36.8125 54.6875 
L 36.8125 47.703125 
L 18.3125 47.703125 
L 18.3125 18.015625 
Q 18.3125 11.328125 20.140625 9.421875 
Q 21.96875 7.515625 27.59375 7.515625 
L 36.8125 7.515625 
L 36.8125 0 
L 27.59375 0 
Q 17.1875 0 13.234375 3.875 
Q 9.28125 7.765625 9.28125 18.015625 
L 9.28125 47.703125 
L 2.6875 47.703125 
L 2.6875 54.6875 
L 9.28125 54.6875 
L 9.28125 70.21875 
z
" id="DejaVuSans-74"/>
      <path d="M 9.421875 54.6875 
L 18.40625 54.6875 
L 18.40625 0 
L 9.421875 0 
z
M 9.421875 75.984375 
L 18.40625 75.984375 
L 18.40625 64.59375 
L 9.421875 64.59375 
z
" id="DejaVuSans-69"/>
      <path d="M 54.890625 33.015625 
L 54.890625 0 
L 45.90625 0 
L 45.90625 32.71875 
Q 45.90625 40.484375 42.875 44.328125 
Q 39.84375 48.1875 33.796875 48.1875 
Q 26.515625 48.1875 22.3125 43.546875 
Q 18.109375 38.921875 18.109375 30.90625 
L 18.109375 0 
L 9.078125 0 
L 9.078125 54.6875 
L 18.109375 54.6875 
L 18.109375 46.1875 
Q 21.34375 51.125 25.703125 53.5625 
Q 30.078125 56 35.796875 56 
Q 45.21875 56 50.046875 50.171875 
Q 54.890625 44.34375 54.890625 33.015625 
" id="DejaVuSans-6e"/>
     </defs>
     <g transform="translate(22.396875 238.44779)rotate(-90)scale(0.2 -0.2)">
      <use xlink:href="#DejaVuSans-70"/>
      <use x="63.476562" xlink:href="#DejaVuSans-72"/>
      <use x="104.558594" xlink:href="#DejaVuSans-6f"/>
      <use x="165.740234" xlink:href="#DejaVuSans-70"/>
      <use x="229.216797" xlink:href="#DejaVuSans-6f"/>
      <use x="290.398438" xlink:href="#DejaVuSans-72"/>
      <use x="331.511719" xlink:href="#DejaVuSans-74"/>
      <use x="370.720703" xlink:href="#DejaVuSans-69"/>
      <use x="398.503906" xlink:href="#DejaVuSans-6f"/>
      <use x="459.685547" xlink:href="#DejaVuSans-6e"/>
      <use x="523.064453" xlink:href="#DejaVuSans-20"/>
      <use x="554.851562" xlink:href="#DejaVuSans-6f"/>
      <use x="616.033203" xlink:href="#DejaVuSans-66"/>
      <use x="651.238281" xlink:href="#DejaVuSans-20"/>
      <use x="683.025391" xlink:href="#DejaVuSans-74"/>
      <use x="722.234375" xlink:href="#DejaVuSans-72"/>
      <use x="763.347656" xlink:href="#DejaVuSans-69"/>
      <use x="791.130859" xlink:href="#DejaVuSans-61"/>
      <use x="852.410156" xlink:href="#DejaVuSans-6c"/>
      <use x="880.193359" xlink:href="#DejaVuSans-73"/>
     </g>
    </g>
   </g>
   <g id="line2d_81">
    <path clip-path="url(#p128df617ac)" d="M 11.102628 278.275665 
L 11.102628 274.762636 
L 11.102628 274.762636 
L 11.102628 271.249606 
L 11.102628 271.249606 
L 11.102628 267.736576 
L 50.871178 267.736576 
L 50.871178 264.223546 
L 50.871178 264.223546 
L 50.871178 260.710517 
L 50.871178 260.710517 
L 50.871178 257.197487 
L 50.871178 257.197487 
L 50.871178 253.684457 
L 50.871178 253.684457 
L 50.871178 250.171428 
L 61.28495 250.171428 
L 61.28495 246.658398 
L 69.3625 246.658398 
L 69.3625 243.145368 
L 69.3625 243.145368 
L 69.3625 239.632338 
L 75.962339 239.632338 
L 75.962339 236.119309 
L 86.376111 236.119309 
L 86.376111 232.606279 
L 90.639727 232.606279 
L 90.639727 229.093249 
L 94.453661 229.093249 
L 94.453661 225.58022 
L 97.903784 225.58022 
L 97.903784 222.06719 
L 101.0535 222.06719 
L 101.0535 218.55416 
L 119.544822 218.55416 
L 119.544822 215.041131 
L 150.473712 215.041131 
L 150.473712 211.528101 
L 198.473522 211.528101 
L 198.473522 208.015071 
L 228.436698 208.015071 
L 228.436698 204.502041 
L 315.262222 204.502041 
L 315.262222 200.989012 
L 348.673716 200.989012 
L 348.673716 197.475982 
L 348.673716 197.475982 
L 348.673716 197.475982 
L 426.4825 197.475982 
" style="fill:none;stroke:#000000;stroke-linecap:square;stroke-width:1.5;"/>
   </g>
   <g id="line2d_82"/>
   <g id="line2d_83"/>
   <g id="line2d_84"/>
   <g id="line2d_85"/>
   <g id="line2d_86">
    <path clip-path="url(#p128df617ac)" d="M 426.458428 278.275665 
L 426.458428 12.163665 
" style="fill:none;stroke:#000000;stroke-linecap:square;stroke-width:1.5;"/>
   </g>
   <g id="patch_3">
    <path d="M 69.3625 278.275665 
L 69.3625 12.163665 
" style="fill:none;stroke:#000000;stroke-linecap:square;stroke-linejoin:miter;stroke-width:0.8;"/>
   </g>
   <g id="patch_4">
    <path d="M 426.4825 278.275665 
L 426.4825 12.163665 
" style="fill:none;stroke:#000000;stroke-linecap:square;stroke-linejoin:miter;stroke-width:0.8;"/>
   </g>
   <g id="patch_5">
    <path d="M 69.3625 278.275665 
L 426.4825 278.275665 
" style="fill:none;stroke:#000000;stroke-linecap:square;stroke-linejoin:miter;stroke-width:0.8;"/>
   </g>
   <g id="patch_6">
    <path d="M 69.3625 12.163665 
L 426.4825 12.163665 
" style="fill:none;stroke:#000000;stroke-linecap:square;stroke-linejoin:miter;stroke-width:0.8;"/>
   </g>
   <g id="text_12">
    <!-- {f20-f24}, 5-D -->
    <defs>
     <path d="M 51.125 -9.28125 
L 51.125 -16.3125 
L 48.09375 -16.3125 
Q 35.9375 -16.3125 31.8125 -12.6875 
Q 27.6875 -9.078125 27.6875 1.703125 
L 27.6875 13.375 
Q 27.6875 20.75 25.046875 23.578125 
Q 22.40625 26.421875 15.484375 26.421875 
L 12.5 26.421875 
L 12.5 33.40625 
L 15.484375 33.40625 
Q 22.46875 33.40625 25.078125 36.203125 
Q 27.6875 39.015625 27.6875 46.296875 
L 27.6875 58.015625 
Q 27.6875 68.796875 31.8125 72.390625 
Q 35.9375 75.984375 48.09375 75.984375 
L 51.125 75.984375 
L 51.125 69 
L 47.796875 69 
Q 40.921875 69 38.8125 66.84375 
Q 36.71875 64.703125 36.71875 57.8125 
L 36.71875 45.703125 
Q 36.71875 38.03125 34.5 34.5625 
Q 32.28125 31.109375 26.90625 29.890625 
Q 32.328125 28.5625 34.515625 25.09375 
Q 36.71875 21.625 36.71875 14.015625 
L 36.71875 1.90625 
Q 36.71875 -4.984375 38.8125 -7.125 
Q 40.921875 -9.28125 47.796875 -9.28125 
z
" id="DejaVuSans-7b"/>
     <path d="M 4.890625 31.390625 
L 31.203125 31.390625 
L 31.203125 23.390625 
L 4.890625 23.390625 
z
" id="DejaVuSans-2d"/>
     <path d="M 12.5 -9.28125 
L 15.921875 -9.28125 
Q 22.75 -9.28125 24.828125 -7.171875 
Q 26.90625 -5.078125 26.90625 1.90625 
L 26.90625 14.015625 
Q 26.90625 21.625 29.09375 25.09375 
Q 31.296875 28.5625 36.71875 29.890625 
Q 31.296875 31.109375 29.09375 34.5625 
Q 26.90625 38.03125 26.90625 45.703125 
L 26.90625 57.8125 
Q 26.90625 64.75 24.828125 66.875 
Q 22.75 69 15.921875 69 
L 12.5 69 
L 12.5 75.984375 
L 15.578125 75.984375 
Q 27.734375 75.984375 31.8125 72.390625 
Q 35.890625 68.796875 35.890625 58.015625 
L 35.890625 46.296875 
Q 35.890625 39.015625 38.515625 36.203125 
Q 41.15625 33.40625 48.09375 33.40625 
L 51.125 33.40625 
L 51.125 26.421875 
L 48.09375 26.421875 
Q 41.15625 26.421875 38.515625 23.578125 
Q 35.890625 20.75 35.890625 13.375 
L 35.890625 1.703125 
Q 35.890625 -9.078125 31.8125 -12.6875 
Q 27.734375 -16.3125 15.578125 -16.3125 
L 12.5 -16.3125 
z
" id="DejaVuSans-7d"/>
     <path d="M 11.71875 12.40625 
L 22.015625 12.40625 
L 22.015625 4 
L 14.015625 -11.625 
L 7.71875 -11.625 
L 11.71875 4 
z
" id="DejaVuSans-2c"/>
     <path d="M 10.796875 72.90625 
L 49.515625 72.90625 
L 49.515625 64.59375 
L 19.828125 64.59375 
L 19.828125 46.734375 
Q 21.96875 47.46875 24.109375 47.828125 
Q 26.265625 48.1875 28.421875 48.1875 
Q 40.625 48.1875 47.75 41.5 
Q 54.890625 34.8125 54.890625 23.390625 
Q 54.890625 11.625 47.5625 5.09375 
Q 40.234375 -1.421875 26.90625 -1.421875 
Q 22.3125 -1.421875 17.546875 -0.640625 
Q 12.796875 0.140625 7.71875 1.703125 
L 7.71875 11.625 
Q 12.109375 9.234375 16.796875 8.0625 
Q 21.484375 6.890625 26.703125 6.890625 
Q 35.15625 6.890625 40.078125 11.328125 
Q 45.015625 15.765625 45.015625 23.390625 
Q 45.015625 31 40.078125 35.4375 
Q 35.15625 39.890625 26.703125 39.890625 
Q 22.75 39.890625 18.8125 39.015625 
Q 14.890625 38.140625 10.796875 36.28125 
z
" id="DejaVuSans-35"/>
    </defs>
    <g transform="translate(175.0725 32.68278)scale(0.2 -0.2)">
     <use xlink:href="#DejaVuSans-7b"/>
     <use x="63.623047" xlink:href="#DejaVuSans-66"/>
     <use x="98.828125" xlink:href="#DejaVuSans-32"/>
     <use x="162.451172" xlink:href="#DejaVuSans-30"/>
     <use x="226.074219" xlink:href="#DejaVuSans-2d"/>
     <use x="262.158203" xlink:href="#DejaVuSans-66"/>
     <use x="297.363281" xlink:href="#DejaVuSans-32"/>
     <use x="360.986328" xlink:href="#DejaVuSans-34"/>
     <use x="424.609375" xlink:href="#DejaVuSans-7d"/>
     <use x="488.232422" xlink:href="#DejaVuSans-2c"/>
     <use x="520.019531" xlink:href="#DejaVuSans-20"/>
     <use x="551.806641" xlink:href="#DejaVuSans-35"/>
     <use x="615.429688" xlink:href="#DejaVuSans-2d"/>
     <use x="651.513672" xlink:href="#DejaVuSans-44"/>
    </g>
   </g>
   <g id="text_13">
    <!-- absolute targets -->
    <defs>
     <path d="M 48.6875 27.296875 
Q 48.6875 37.203125 44.609375 42.84375 
Q 40.53125 48.484375 33.40625 48.484375 
Q 26.265625 48.484375 22.1875 42.84375 
Q 18.109375 37.203125 18.109375 27.296875 
Q 18.109375 17.390625 22.1875 11.75 
Q 26.265625 6.109375 33.40625 6.109375 
Q 40.53125 6.109375 44.609375 11.75 
Q 48.6875 17.390625 48.6875 27.296875 
M 18.109375 46.390625 
Q 20.953125 51.265625 25.265625 53.625 
Q 29.59375 56 35.59375 56 
Q 45.5625 56 51.78125 48.09375 
Q 58.015625 40.1875 58.015625 27.296875 
Q 58.015625 14.40625 51.78125 6.484375 
Q 45.5625 -1.421875 35.59375 -1.421875 
Q 29.59375 -1.421875 25.265625 0.953125 
Q 20.953125 3.328125 18.109375 8.203125 
L 18.109375 0 
L 9.078125 0 
L 9.078125 75.984375 
L 18.109375 75.984375 
z
" id="DejaVuSans-62"/>
     <path d="M 8.5 21.578125 
L 8.5 54.6875 
L 17.484375 54.6875 
L 17.484375 21.921875 
Q 17.484375 14.15625 20.5 10.265625 
Q 23.53125 6.390625 29.59375 6.390625 
Q 36.859375 6.390625 41.078125 11.03125 
Q 45.3125 15.671875 45.3125 23.6875 
L 45.3125 54.6875 
L 54.296875 54.6875 
L 54.296875 0 
L 45.3125 0 
L 45.3125 8.40625 
Q 42.046875 3.421875 37.71875 1 
Q 33.40625 -1.421875 27.6875 -1.421875 
Q 18.265625 -1.421875 13.375 4.4375 
Q 8.5 10.296875 8.5 21.578125 
M 31.109375 56 
z
" id="DejaVuSans-75"/>
     <path d="M 56.203125 29.59375 
L 56.203125 25.203125 
L 14.890625 25.203125 
Q 15.484375 15.921875 20.484375 11.0625 
Q 25.484375 6.203125 34.421875 6.203125 
Q 39.59375 6.203125 44.453125 7.46875 
Q 49.3125 8.734375 54.109375 11.28125 
L 54.109375 2.78125 
Q 49.265625 0.734375 44.1875 -0.34375 
Q 39.109375 -1.421875 33.890625 -1.421875 
Q 20.796875 -1.421875 13.15625 6.1875 
Q 5.515625 13.8125 5.515625 26.8125 
Q 5.515625 40.234375 12.765625 48.109375 
Q 20.015625 56 32.328125 56 
Q 43.359375 56 49.78125 48.890625 
Q 56.203125 41.796875 56.203125 29.59375 
M 47.21875 32.234375 
Q 47.125 39.59375 43.09375 43.984375 
Q 39.0625 48.390625 32.421875 48.390625 
Q 24.90625 48.390625 20.390625 44.140625 
Q 15.875 39.890625 15.1875 32.171875 
z
" id="DejaVuSans-65"/>
    </defs>
    <g transform="translate(69.3625 289.341709)scale(0.14 -0.14)">
     <use xlink:href="#DejaVuSans-61"/>
     <use x="61.279297" xlink:href="#DejaVuSans-62"/>
     <use x="124.755859" xlink:href="#DejaVuSans-73"/>
     <use x="176.855469" xlink:href="#DejaVuSans-6f"/>
     <use x="238.037109" xlink:href="#DejaVuSans-6c"/>
     <use x="265.820312" xlink:href="#DejaVuSans-75"/>
     <use x="329.199219" xlink:href="#DejaVuSans-74"/>
     <use x="368.408203" xlink:href="#DejaVuSans-65"/>
     <use x="429.931641" xlink:href="#DejaVuSans-20"/>
     <use x="461.71875" xlink:href="#DejaVuSans-74"/>
     <use x="500.927734" xlink:href="#DejaVuSans-61"/>
     <use x="562.207031" xlink:href="#DejaVuSans-72"/>
     <use x="603.304688" xlink:href="#DejaVuSans-67"/>
     <use x="666.78125" xlink:href="#DejaVuSans-65"/>
     <use x="728.304688" xlink:href="#DejaVuSans-74"/>
     <use x="767.513672" xlink:href="#DejaVuSans-73"/>
    </g>
   </g>
   <g id="text_14">
    <!-- v2.1 -->
    <g style="fill:#808080;" transform="translate(237.011563 273.534858)scale(0.1 -0.1)">
     <use xlink:href="#DejaVuSans-76"/>
     <use x="59.179688" xlink:href="#DejaVuSans-32"/>
     <use x="122.802734" xlink:href="#DejaVuSans-2e"/>
     <use x="154.589844" xlink:href="#DejaVuSans-31"/>
    </g>
   </g>
   <g id="legend_1">
    <g id="patch_7">
     <path d="M 83.3625 145.588665 
L 212.584375 145.588665 
Q 216.584375 145.588665 216.584375 141.588665 
L 216.584375 26.163665 
Q 216.584375 22.163665 212.584375 22.163665 
L 83.3625 22.163665 
Q 79.3625 22.163665 79.3625 26.163665 
L 79.3625 141.588665 
Q 79.3625 145.588665 83.3625 145.588665 
z
" style="fill:#ffffff;opacity:0.2;stroke:#cccccc;stroke-linejoin:miter;"/>
    </g>
    <g id="line2d_87">
     <path d="M 87.3625 38.36054 
L 127.3625 38.36054 
" style="fill:none;stroke:#000000;stroke-linecap:square;stroke-width:1.5;"/>
    </g>
    <g id="line2d_88"/>
    <g id="text_15">
     <!-- 1: 4/5 -->
     <defs>
      <path d="M 11.71875 12.40625 
L 22.015625 12.40625 
L 22.015625 0 
L 11.71875 0 
z
M 11.71875 51.703125 
L 22.015625 51.703125 
L 22.015625 39.3125 
L 11.71875 39.3125 
z
" id="DejaVuSans-3a"/>
     </defs>
     <g transform="translate(143.3625 45.36054)scale(0.2 -0.2)">
      <use xlink:href="#DejaVuSans-31"/>
      <use x="63.623047" xlink:href="#DejaVuSans-3a"/>
      <use x="97.314453" xlink:href="#DejaVuSans-20"/>
      <use x="129.101562" xlink:href="#DejaVuSans-34"/>
      <use x="192.724609" xlink:href="#DejaVuSans-2f"/>
      <use x="226.416016" xlink:href="#DejaVuSans-35"/>
     </g>
    </g>
    <g id="line2d_89">
     <path d="M 87.3625 67.71679 
L 127.3625 67.71679 
" style="fill:none;stroke:#00bfbf;stroke-linecap:square;stroke-width:1.5;"/>
    </g>
    <g id="line2d_90"/>
    <g id="text_16">
     <!-- -1: 0/5 -->
     <g transform="translate(143.3625 74.71679)scale(0.2 -0.2)">
      <use xlink:href="#DejaVuSans-2d"/>
      <use x="36.083984" xlink:href="#DejaVuSans-31"/>
      <use x="99.707031" xlink:href="#DejaVuSans-3a"/>
      <use x="133.398438" xlink:href="#DejaVuSans-20"/>
      <use x="165.185547" xlink:href="#DejaVuSans-30"/>
      <use x="228.808594" xlink:href="#DejaVuSans-2f"/>
      <use x="262.5" xlink:href="#DejaVuSans-35"/>
     </g>
    </g>
    <g id="line2d_91">
     <path d="M 87.3625 97.07304 
L 127.3625 97.07304 
" style="fill:none;stroke:#bf00bf;stroke-linecap:square;stroke-width:1.5;"/>
    </g>
    <g id="line2d_92"/>
    <g id="text_17">
     <!-- -4: 0/5 -->
     <g transform="translate(143.3625 104.07304)scale(0.2 -0.2)">
      <use xlink:href="#DejaVuSans-2d"/>
      <use x="36.083984" xlink:href="#DejaVuSans-34"/>
      <use x="99.707031" xlink:href="#DejaVuSans-3a"/>
      <use x="133.398438" xlink:href="#DejaVuSans-20"/>
      <use x="165.185547" xlink:href="#DejaVuSans-30"/>
      <use x="228.808594" xlink:href="#DejaVuSans-2f"/>
      <use x="262.5" xlink:href="#DejaVuSans-35"/>
     </g>
    </g>
    <g id="line2d_93">
     <path d="M 87.3625 126.42929 
L 127.3625 126.42929 
" style="fill:none;stroke:#ff0000;stroke-linecap:square;stroke-width:3;"/>
    </g>
    <g id="line2d_94"/>
    <g id="text_18">
     <!-- -8: 0/5 -->
     <g transform="translate(143.3625 133.42929)scale(0.2 -0.2)">
      <use xlink:href="#DejaVuSans-2d"/>
      <use x="36.083984" xlink:href="#DejaVuSans-38"/>
      <use x="99.707031" xlink:href="#DejaVuSans-3a"/>
      <use x="133.398438" xlink:href="#DejaVuSans-20"/>
      <use x="165.185547" xlink:href="#DejaVuSans-30"/>
      <use x="228.808594" xlink:href="#DejaVuSans-2f"/>
      <use x="262.5" xlink:href="#DejaVuSans-35"/>
     </g>
    </g>
   </g>
  </g>
 </g>
 <defs>
  <clipPath id="p128df617ac">
   <rect height="266.112" width="357.12" x="69.3625" y="12.163665"/>
  </clipPath>
 </defs>
</svg>
