<?xml version="1.0" encoding="utf-8" standalone="no"?>
<!DOCTYPE svg PUBLIC "-//W3C//DTD SVG 1.1//EN"
  "http://www.w3.org/Graphics/SVG/1.1/DTD/svg11.dtd">
<!-- Created with matplotlib (http://matplotlib.org/) -->
<svg height="335pt" version="1.1" viewBox="0 0 437 335" width="437pt" xmlns="http://www.w3.org/2000/svg" xmlns:xlink="http://www.w3.org/1999/xlink">
 <defs>
  <style type="text/css">
*{stroke-linecap:butt;stroke-linejoin:round;}
  </style>
 </defs>
 <g id="figure_1">
  <g id="patch_1">
   <path d="M 0 335.188165 
L 437.1825 335.188165 
L 437.1825 0 
L 0 0 
z
" style="fill:#ffffff;"/>
  </g>
  <g id="axes_1">
   <g id="patch_2">
    <path d="M 69.3625 278.275665 
L 426.4825 278.275665 
L 426.4825 12.163665 
L 69.3625 12.163665 
z
" style="fill:#ffffff;"/>
   </g>
   <g id="line2d_1">
    <path clip-path="url(#p598eca0dfe)" d="M 253.706179 278.275665 
L 253.706179 274.762636 
L 256.445936 274.762636 
L 256.445936 271.249606 
L 257.422145 271.249606 
L 257.422145 267.736576 
L 257.781542 267.736576 
L 257.781542 264.223546 
L 258.098037 264.223546 
L 258.098037 260.710517 
L 258.722844 260.710517 
L 258.722844 257.197487 
L 258.761539 257.197487 
L 258.761539 253.684457 
L 258.992843 253.684457 
L 258.992843 250.171428 
L 260.535055 250.171428 
L 260.535055 246.658398 
L 261.48006 246.658398 
L 261.48006 243.145368 
L 261.87256 243.145368 
L 261.87256 239.632338 
L 262.120135 239.632338 
L 262.120135 236.119309 
L 274.279911 236.119309 
L 274.279911 232.606279 
L 279.12934 232.606279 
L 279.12934 229.093249 
L 279.392766 229.093249 
L 279.392766 225.58022 
L 283.346414 225.58022 
L 283.346414 222.06719 
L 283.639366 222.06719 
L 283.639366 218.55416 
L 288.526506 218.55416 
L 288.526506 215.041131 
L 297.404101 215.041131 
L 297.404101 211.528101 
L 297.827175 211.528101 
L 297.827175 208.015071 
L 300.669993 208.015071 
L 300.669993 204.502041 
L 309.490813 204.502041 
L 309.490813 200.989012 
L 316.765258 200.989012 
L 316.765258 197.475982 
L 335.083234 197.475982 
L 335.083234 193.962952 
L 338.091787 193.962952 
L 338.091787 190.449923 
L 342.672854 190.449923 
L 342.672854 186.936893 
L 361.215929 186.936893 
L 361.215929 183.423863 
L 369.967071 183.423863 
L 369.967071 179.910834 
L 374.415543 179.910834 
L 374.415543 176.397804 
L 374.415543 176.397804 
L 374.415543 176.397804 
L 426.4825 176.397804 
" style="fill:none;stroke:#f5deb3;stroke-linecap:square;stroke-width:1.5;"/>
   </g>
   <g id="line2d_2"/>
   <g id="line2d_3">
    <path clip-path="url(#p598eca0dfe)" d="M 164.893456 278.275665 
L 164.893456 274.762636 
L 165.91321 274.762636 
L 165.91321 271.249606 
L 175.177715 271.249606 
L 175.177715 267.736576 
L 235.185197 267.736576 
L 235.185197 264.223546 
L 250.353758 264.223546 
L 250.353758 260.710517 
L 282.952086 260.710517 
L 282.952086 257.197487 
L 291.8218 257.197487 
L 291.8218 253.684457 
L 296.324263 253.684457 
L 296.324263 250.171428 
L 305.846845 250.171428 
L 305.846845 246.658398 
L 307.524115 246.658398 
L 307.524115 243.145368 
L 312.081489 243.145368 
L 312.081489 239.632338 
L 317.665373 239.632338 
L 317.665373 236.119309 
L 322.080639 236.119309 
L 322.080639 232.606279 
L 324.095114 232.606279 
L 324.095114 229.093249 
L 328.136089 229.093249 
L 328.136089 225.58022 
L 346.629687 225.58022 
L 346.629687 222.06719 
L 348.647896 222.06719 
L 348.647896 218.55416 
L 349.829436 218.55416 
L 349.829436 215.041131 
L 350.149878 215.041131 
L 350.149878 211.528101 
L 350.727549 211.528101 
L 350.727549 208.015071 
L 350.946366 208.015071 
L 350.946366 204.502041 
L 352.240969 204.502041 
L 352.240969 200.989012 
L 352.337316 200.989012 
L 352.337316 197.475982 
L 353.732944 197.475982 
L 353.732944 193.962952 
L 353.861765 193.962952 
L 353.861765 190.449923 
L 356.081789 190.449923 
L 356.081789 186.936893 
L 356.539 186.936893 
L 356.539 183.423863 
L 356.949461 183.423863 
L 356.949461 179.910834 
L 356.98538 179.910834 
L 356.98538 176.397804 
L 357.851945 176.397804 
L 357.851945 172.884774 
L 358.051691 172.884774 
L 358.051691 169.371744 
L 359.22274 169.371744 
L 359.22274 165.858715 
L 366.108319 165.858715 
L 366.108319 162.345685 
L 367.622844 162.345685 
L 367.622844 158.832655 
L 371.599458 158.832655 
L 371.599458 155.319626 
L 375.099834 155.319626 
L 375.099834 151.806596 
L 384.344022 151.806596 
L 384.344022 148.293566 
L 392.120441 148.293566 
L 392.120441 144.780537 
L 396.077489 144.780537 
L 396.077489 141.267507 
L 398.784182 141.267507 
L 398.784182 137.754477 
L 398.784182 137.754477 
L 398.784182 137.754477 
L 426.4825 137.754477 
" style="fill:none;stroke:#f5deb3;stroke-linecap:square;stroke-width:1.5;"/>
   </g>
   <g id="line2d_4">
    <path clip-path="url(#p598eca0dfe)" d="M 264.008604 278.275665 
L 264.008604 274.762636 
L 269.088191 274.762636 
L 269.088191 271.249606 
L 270.063497 271.249606 
L 270.148305 264.223546 
L 270.261074 264.223546 
L 270.261074 260.710517 
L 271.723019 260.710517 
L 271.723019 257.197487 
L 272.339527 257.197487 
L 272.339527 253.684457 
L 273.618958 253.684457 
L 273.618958 250.171428 
L 273.823616 250.171428 
L 273.823616 246.658398 
L 275.126416 246.658398 
L 275.126416 243.145368 
L 276.00165 243.145368 
L 276.00165 239.632338 
L 276.526281 239.632338 
L 276.526281 236.119309 
L 277.090065 236.119309 
L 277.090065 232.606279 
L 277.252862 232.606279 
L 277.252862 229.093249 
L 277.576274 229.093249 
L 277.576274 225.58022 
L 277.805527 225.58022 
L 277.896823 215.041131 
L 278.146707 215.041131 
L 278.237148 208.015071 
L 278.417354 208.015071 
L 278.417354 204.502041 
L 279.283238 204.502041 
L 279.283238 200.989012 
L 279.978556 200.989012 
L 279.978556 197.475982 
L 280.257258 197.475982 
L 280.257258 193.962952 
L 280.38517 193.962952 
L 280.38517 190.449923 
L 280.976185 190.449923 
L 281.059834 183.423863 
L 282.473152 183.423863 
L 282.473152 179.910834 
L 282.832946 179.910834 
L 282.832946 176.397804 
L 283.110333 176.397804 
L 283.110333 172.884774 
L 283.463879 172.884774 
L 283.463879 169.371744 
L 284.007067 169.371744 
L 284.084004 162.345685 
L 284.294742 162.345685 
L 284.294742 158.832655 
L 284.938463 158.832655 
L 284.938463 155.319626 
L 285.497099 155.319626 
L 285.497099 151.806596 
L 285.79155 151.806596 
L 285.883077 144.780537 
L 285.919623 144.780537 
L 285.919623 141.267507 
L 286.210671 141.267507 
L 286.228784 134.241447 
L 286.750158 134.241447 
L 286.803667 127.215388 
L 287.1054 127.215388 
L 287.140733 120.189329 
L 287.649227 120.189329 
L 287.666634 113.163269 
L 287.874874 113.163269 
L 287.909464 106.13721 
L 288.509507 106.13721 
L 288.509507 102.62418 
L 288.746767 102.62418 
L 288.746767 99.11115 
L 290.65501 99.11115 
L 290.65501 95.598121 
L 292.891947 95.598121 
L 292.891947 92.085091 
L 294.179352 92.085091 
L 294.179352 88.572061 
L 295.394433 88.572061 
L 295.394433 85.059032 
L 298.914777 85.059032 
L 298.914777 81.546002 
L 306.056876 81.546002 
L 306.056876 78.032972 
L 306.359274 78.032972 
L 306.359274 74.519942 
L 307.514058 74.519942 
L 307.514058 71.006913 
L 307.924107 71.006913 
L 307.924107 67.493883 
L 308.152116 67.493883 
L 308.152116 63.980853 
L 310.864378 63.980853 
L 310.864378 60.467824 
L 313.795674 60.467824 
L 313.795674 56.954794 
L 321.126546 56.954794 
L 321.126546 53.441764 
L 325.123704 53.441764 
L 325.123704 49.928735 
L 330.123197 49.928735 
L 330.123197 46.415705 
L 330.289777 46.415705 
L 330.289777 42.902675 
L 334.073676 42.902675 
L 334.073676 39.389645 
L 339.407329 39.389645 
L 339.407329 35.876616 
L 342.108704 35.876616 
L 342.108704 32.363586 
L 353.631806 32.363586 
L 353.631806 28.850556 
L 358.917711 28.850556 
L 358.917711 25.337527 
L 361.75715 25.337527 
L 361.75715 21.824497 
L 363.432745 21.824497 
L 363.432745 18.311467 
L 370.947987 18.311467 
L 370.947987 14.798437 
L 370.947987 14.798437 
L 426.4825 14.798437 
L 426.4825 14.798437 
" style="fill:none;stroke:#f5deb3;stroke-linecap:square;stroke-width:1.5;"/>
   </g>
   <g id="line2d_5">
    <path clip-path="url(#p598eca0dfe)" d="M 305.804692 278.275665 
L 305.804692 274.762636 
L 306.85431 274.762636 
L 306.85431 271.249606 
L 316.585649 271.249606 
L 316.585649 267.736576 
L 317.191178 267.736576 
L 317.191178 264.223546 
L 317.444345 264.223546 
L 317.444345 260.710517 
L 324.411817 260.710517 
L 324.411817 257.197487 
L 330.588766 257.197487 
L 330.588766 253.684457 
L 338.384478 253.684457 
L 338.384478 250.171428 
L 338.717324 250.171428 
L 338.717324 246.658398 
L 340.178381 246.658398 
L 340.178381 243.145368 
L 345.266155 243.145368 
L 345.266155 239.632338 
L 346.034246 239.632338 
L 346.034246 236.119309 
L 349.490363 236.119309 
L 349.490363 232.606279 
L 350.931213 232.606279 
L 350.931213 229.093249 
L 358.489751 229.093249 
L 358.489751 225.58022 
L 398.535219 225.58022 
L 398.535219 222.06719 
L 402.400626 222.06719 
L 402.400626 218.55416 
L 402.400626 218.55416 
L 402.400626 215.041131 
L 403.090247 215.041131 
L 403.090247 211.528101 
L 406.191736 211.528101 
L 406.191736 208.015071 
L 410.00455 208.015071 
L 410.00455 204.502041 
L 411.15617 204.502041 
L 411.15617 200.989012 
L 411.674402 200.989012 
L 411.674402 197.475982 
L 415.655782 197.475982 
L 415.655782 193.962952 
L 416.038634 193.962952 
L 416.038634 190.449923 
L 416.872905 190.449923 
L 416.872905 186.936893 
L 418.293104 186.936893 
L 418.293104 183.423863 
L 421.857056 183.423863 
L 421.857056 179.910834 
L 422.476797 179.910834 
L 422.476797 176.397804 
L 423.084454 176.397804 
L 423.084454 172.884774 
L 423.620276 172.884774 
L 423.620276 169.371744 
L 425.029409 169.371744 
L 425.029409 165.858715 
L 425.968248 165.858715 
L 425.968248 162.345685 
L 426.81002 162.345685 
L 426.81002 158.832655 
L 428.453405 158.832655 
L 428.453405 155.319626 
L 429.343959 155.319626 
L 429.343959 151.806596 
L 429.708996 151.806596 
L 429.708996 148.293566 
L 429.723783 148.293566 
L 429.723783 144.780537 
L 430.202951 144.780537 
L 430.202951 141.267507 
L 433.380223 141.267507 
L 433.380223 137.754477 
L 433.664392 137.754477 
L 433.664392 134.241447 
L 438.1825 134.241447 
" style="fill:none;stroke:#f5deb3;stroke-linecap:square;stroke-width:1.5;"/>
   </g>
   <g id="line2d_6"/>
   <g id="line2d_7">
    <path clip-path="url(#p598eca0dfe)" d="M 288.948902 278.275665 
L 288.948902 274.762636 
L 289.532095 274.762636 
L 289.532095 271.249606 
L 290.040907 271.249606 
L 290.040907 267.736576 
L 290.5748 267.736576 
L 290.5748 264.223546 
L 290.687045 264.223546 
L 290.687045 260.710517 
L 292.421923 260.710517 
L 292.421923 257.197487 
L 292.559012 257.197487 
L 292.559012 253.684457 
L 293.102231 253.684457 
L 293.102231 250.171428 
L 293.43023 250.171428 
L 293.459902 243.145368 
L 293.652174 243.145368 
L 293.71113 232.606279 
L 293.78469 232.606279 
L 293.872765 225.58022 
L 294.179352 225.58022 
L 294.237456 218.55416 
L 294.295467 218.55416 
L 294.338914 211.528101 
L 294.483363 211.528101 
L 294.526586 197.475982 
L 294.998659 197.475982 
L 294.998659 193.962952 
L 295.140504 193.962952 
L 295.140504 190.449923 
L 295.408489 190.449923 
L 295.408489 186.936893 
L 296.035385 186.936893 
L 296.035385 183.423863 
L 296.255691 183.423863 
L 296.255691 179.910834 
L 296.488306 179.910834 
L 296.515575 172.884774 
L 296.624444 172.884774 
L 296.624444 169.371744 
L 296.746531 169.371744 
L 296.746531 165.858715 
L 297.056674 165.858715 
L 297.123747 158.832655 
L 297.576572 158.832655 
L 297.589805 151.806596 
L 297.800877 151.806596 
L 297.800877 148.293566 
L 298.620216 148.293566 
L 298.620216 144.780537 
L 299.168984 144.780537 
L 299.168984 141.267507 
L 299.609595 141.267507 
L 299.697078 134.241447 
L 299.722034 134.241447 
L 299.722034 130.728418 
L 299.896247 130.728418 
L 299.896247 127.215388 
L 300.069625 127.215388 
L 300.069625 123.702358 
L 300.924276 123.702358 
L 300.984557 116.676299 
L 301.74742 116.676299 
L 301.74742 113.163269 
L 304.549485 113.163269 
L 304.549485 109.650239 
L 304.788853 109.650239 
L 304.788853 106.13721 
L 308.388518 106.13721 
L 308.388518 102.62418 
L 308.52571 102.62418 
L 308.52571 99.11115 
L 310.12333 99.11115 
L 310.12333 95.598121 
L 311.183876 95.598121 
L 311.183876 92.085091 
L 311.319945 92.085091 
L 311.319945 88.572061 
L 312.381677 88.572061 
L 312.451949 81.546002 
L 313.035183 81.546002 
L 313.035183 78.032972 
L 313.181685 78.032972 
L 313.21607 71.006913 
L 313.905432 71.006913 
L 313.905432 67.493883 
L 314.976901 67.493883 
L 314.976901 63.980853 
L 315.319017 63.980853 
L 315.319017 60.467824 
L 316.522967 60.467824 
L 316.522967 56.954794 
L 318.676895 56.954794 
L 318.676895 53.441764 
L 319.197751 53.441764 
L 319.197751 49.928735 
L 321.140355 49.928735 
L 321.140355 46.415705 
L 323.186793 46.415705 
L 323.186793 42.902675 
L 328.627753 42.902675 
L 328.627753 39.389645 
L 335.480233 39.389645 
L 335.480233 35.876616 
L 343.996394 35.876616 
L 343.996394 32.363586 
L 346.172793 32.363586 
L 346.172793 28.850556 
L 349.176731 28.850556 
L 349.176731 25.337527 
L 349.760622 25.337527 
L 349.760622 21.824497 
L 357.999365 21.824497 
L 357.999365 18.311467 
L 396.245187 18.311467 
L 396.245187 14.798437 
L 396.245187 14.798437 
L 426.4825 14.798437 
L 426.4825 14.798437 
" style="fill:none;stroke:#f5deb3;stroke-linecap:square;stroke-width:1.5;"/>
   </g>
   <g id="line2d_8">
    <path clip-path="url(#p598eca0dfe)" style="fill:none;stroke:#f5deb3;stroke-linecap:square;stroke-width:1.5;"/>
   </g>
   <g id="line2d_9">
    <path clip-path="url(#p598eca0dfe)" d="M 284.294742 278.275665 
L 284.294742 274.762636 
L 285.200233 274.762636 
L 285.200233 271.249606 
L 285.901354 271.249606 
L 285.901354 267.736576 
L 287.052335 267.736576 
L 287.052335 264.223546 
L 287.352011 264.223546 
L 287.45719 257.197487 
L 288.030271 257.197487 
L 288.030271 253.684457 
L 288.645274 253.684457 
L 288.645274 250.171428 
L 289.049547 250.171428 
L 289.049547 246.658398 
L 289.250003 246.658398 
L 289.349816 236.119309 
L 289.366425 236.119309 
L 289.366425 232.606279 
L 289.893923 232.606279 
L 289.893923 229.093249 
L 290.106042 229.093249 
L 290.106042 225.58022 
L 290.268369 225.58022 
L 290.284562 218.55416 
L 290.413844 218.55416 
L 290.413844 215.041131 
L 290.526588 215.041131 
L 290.526588 211.528101 
L 290.751029 211.528101 
L 290.83085 204.502041 
L 291.306116 204.502041 
L 291.306116 200.989012 
L 291.697459 200.989012 
L 291.697459 197.475982 
L 291.883811 197.475982 
L 291.883811 193.962952 
L 292.038376 193.962952 
L 292.038376 190.449923 
L 292.284314 190.449923 
L 292.360828 179.910834 
L 292.574212 179.910834 
L 292.650116 162.345685 
L 292.695583 162.345685 
L 292.695583 158.832655 
L 292.937111 158.832655 
L 292.937111 155.319626 
L 293.162089 155.319626 
L 293.177038 148.293566 
L 293.725854 148.293566 
L 293.76999 141.267507 
L 294.193886 141.267507 
L 294.193886 137.754477 
L 294.512184 137.754477 
L 294.584136 130.728418 
L 294.984444 130.728418 
L 295.069651 123.702358 
L 295.309988 123.702358 
L 295.309988 120.189329 
L 296.214486 120.189329 
L 296.29685 109.650239 
L 297.20407 109.650239 
L 297.20407 106.13721 
L 297.827175 106.13721 
L 297.827175 102.62418 
L 302.529184 102.62418 
L 302.529184 99.11115 
L 303.124498 99.11115 
L 303.124498 95.598121 
L 303.777154 95.598121 
L 303.777154 92.085091 
L 304.864685 92.085091 
L 304.864685 88.572061 
L 305.080477 88.572061 
L 305.080477 85.059032 
L 306.359274 85.059032 
L 306.359274 81.546002 
L 307.724663 81.546002 
L 307.724663 78.032972 
L 307.914161 78.032972 
L 307.914161 74.519942 
L 308.240948 74.519942 
L 308.240948 71.006913 
L 309.935674 71.006913 
L 309.935674 67.493883 
L 310.827683 67.493883 
L 310.827683 63.980853 
L 311.419405 63.980853 
L 311.419405 60.467824 
L 313.558136 60.467824 
L 313.558136 56.954794 
L 320.372957 56.954794 
L 320.372957 53.441764 
L 320.527743 53.441764 
L 320.527743 49.928735 
L 321.40172 49.928735 
L 321.40172 46.415705 
L 326.177967 46.415705 
L 326.177967 42.902675 
L 331.195127 42.902675 
L 331.195127 39.389645 
L 332.378203 39.389645 
L 332.378203 35.876616 
L 333.169084 35.876616 
L 333.169084 32.363586 
L 333.489496 32.363586 
L 333.489496 28.850556 
L 334.719803 28.850556 
L 334.719803 25.337527 
L 336.288667 25.337527 
L 336.288667 21.824497 
L 339.419829 21.824497 
L 339.419829 18.311467 
L 341.774534 18.311467 
L 341.774534 14.798437 
L 341.774534 14.798437 
L 426.4825 14.798437 
L 426.4825 14.798437 
" style="fill:none;stroke:#f5deb3;stroke-linecap:square;stroke-width:1.5;"/>
   </g>
   <g id="line2d_10">
    <path clip-path="url(#p598eca0dfe)" style="fill:none;stroke:#f5deb3;stroke-linecap:square;stroke-width:1.5;"/>
   </g>
   <g id="line2d_11">
    <path clip-path="url(#p598eca0dfe)" style="fill:none;stroke:#f5deb3;stroke-linecap:square;stroke-width:1.5;"/>
   </g>
   <g id="line2d_12">
    <path clip-path="url(#p598eca0dfe)" d="M 254.628214 278.275665 
L 254.628214 274.762636 
L 298.154296 274.762636 
L 298.154296 271.249606 
L 300.352671 271.249606 
L 300.352671 267.736576 
L 351.469776 267.736576 
L 351.469776 264.223546 
L 359.316635 264.223546 
L 359.316635 260.710517 
L 380.862693 260.710517 
L 380.862693 257.197487 
L 392.934107 257.197487 
L 392.934107 253.684457 
L 396.493996 253.684457 
L 396.493996 250.171428 
L 399.021009 250.171428 
L 399.021009 246.658398 
L 414.969817 246.658398 
L 414.969817 243.145368 
L 414.969817 243.145368 
L 414.969817 243.145368 
L 426.4825 243.145368 
" style="fill:none;stroke:#f5deb3;stroke-linecap:square;stroke-width:1.5;"/>
   </g>
   <g id="line2d_13"/>
   <g id="line2d_14">
    <path clip-path="url(#p598eca0dfe)" d="M 278.79734 278.275665 
L 278.79734 274.762636 
L 283.678247 274.762636 
L 283.678247 271.249606 
L 293.84343 271.249606 
L 293.84343 267.736576 
L 295.069651 267.736576 
L 295.069651 264.223546 
L 299.358475 264.223546 
L 299.358475 260.710517 
L 299.659611 260.710517 
L 299.659611 257.197487 
L 302.041101 257.197487 
L 302.041101 253.684457 
L 304.929558 253.684457 
L 304.929558 250.171428 
L 305.699094 250.171428 
L 305.699094 246.658398 
L 309.803733 246.658398 
L 309.803733 243.145368 
L 310.70817 243.145368 
L 310.70817 239.632338 
L 311.983834 239.632338 
L 311.983834 236.119309 
L 312.862065 236.119309 
L 312.862065 232.606279 
L 316.780834 232.606279 
L 316.780834 229.093249 
L 319.897443 229.093249 
L 319.897443 225.58022 
L 320.323567 225.58022 
L 320.323567 222.06719 
L 321.456504 222.06719 
L 321.456504 218.55416 
L 321.939118 218.55416 
L 321.939118 215.041131 
L 329.31717 215.041131 
L 329.31717 211.528101 
L 330.236125 211.528101 
L 330.236125 208.015071 
L 333.904262 208.015071 
L 333.904262 204.502041 
L 336.632258 204.502041 
L 336.632258 200.989012 
L 337.159349 200.989012 
L 337.159349 197.475982 
L 339.026086 197.475982 
L 339.026086 193.962952 
L 341.064961 193.962952 
L 341.064961 190.449923 
L 342.569892 190.449923 
L 342.569892 186.936893 
L 343.448925 186.936893 
L 343.448925 183.423863 
L 346.006473 183.423863 
L 346.006473 179.910834 
L 346.691082 179.910834 
L 346.691082 176.397804 
L 353.70207 176.397804 
L 353.70207 172.884774 
L 355.041596 172.884774 
L 355.041596 169.371744 
L 356.923783 169.371744 
L 356.923783 165.858715 
L 369.043473 165.858715 
L 369.043473 162.345685 
L 381.790769 162.345685 
L 381.790769 158.832655 
L 383.915154 158.832655 
L 383.915154 155.319626 
L 388.127955 155.319626 
L 388.127955 151.806596 
L 392.448298 151.806596 
L 392.448298 148.293566 
L 399.547875 148.293566 
L 399.547875 144.780537 
L 400.027379 144.780537 
L 400.027379 141.267507 
L 400.027379 141.267507 
L 400.027379 141.267507 
L 426.4825 141.267507 
" style="fill:none;stroke:#f5deb3;stroke-linecap:square;stroke-width:1.5;"/>
   </g>
   <g id="line2d_15"/>
   <g id="line2d_16"/>
   <g id="line2d_17">
    <path clip-path="url(#p598eca0dfe)" d="M 338.221207 278.275665 
L 338.221207 274.762636 
L 339.394824 274.762636 
L 339.394824 271.249606 
L 340.45474 271.249606 
L 340.45474 267.736576 
L 340.865364 267.736576 
L 340.865364 264.223546 
L 342.619503 264.223546 
L 342.619503 260.710517 
L 343.029049 260.710517 
L 343.029049 257.197487 
L 343.168297 257.197487 
L 343.168297 253.684457 
L 343.40417 253.684457 
L 343.40417 250.171428 
L 344.036756 250.171428 
L 344.080735 243.145368 
L 344.831092 243.145368 
L 344.884866 229.093249 
L 346.037716 229.093249 
L 346.075866 222.06719 
L 346.27291 222.06719 
L 346.290143 215.041131 
L 346.595534 215.041131 
L 346.595534 211.528101 
L 346.806766 211.528101 
L 346.806766 208.015071 
L 347.181887 208.015071 
L 347.181887 204.502041 
L 347.429826 204.502041 
L 347.429826 200.989012 
L 347.851423 200.989012 
L 347.851423 197.475982 
L 348.124326 197.475982 
L 348.124326 193.962952 
L 348.950118 193.962952 
L 348.950118 190.449923 
L 349.141715 190.449923 
L 349.141715 186.936893 
L 349.319628 186.936893 
L 349.319628 183.423863 
L 349.446176 183.423863 
L 349.493517 176.397804 
L 349.672852 176.397804 
L 349.723033 169.371744 
L 349.866915 169.371744 
L 349.866915 165.858715 
L 350.276648 165.858715 
L 350.276648 162.345685 
L 350.473649 162.345685 
L 350.473649 158.832655 
L 351.019012 158.832655 
L 351.019012 155.319626 
L 351.463802 155.319626 
L 351.463802 151.806596 
L 351.59499 151.806596 
L 351.657436 144.780537 
L 352.535045 144.780537 
L 352.535045 141.267507 
L 353.22156 141.267507 
L 353.22156 137.754477 
L 353.383384 137.754477 
L 353.383384 134.241447 
L 353.707686 134.241447 
L 353.707686 130.728418 
L 354.688115 130.728418 
L 354.688115 127.215388 
L 356.867226 127.215388 
L 356.867226 123.702358 
L 357.291806 123.702358 
L 357.291806 120.189329 
L 360.536539 120.189329 
L 360.550485 113.163269 
L 362.392137 113.163269 
L 362.392137 109.650239 
L 363.799989 109.650239 
L 363.799989 106.13721 
L 364.117247 106.13721 
L 364.14882 99.11115 
L 365.09369 99.11115 
L 365.09369 95.598121 
L 365.608601 95.598121 
L 365.608601 92.085091 
L 366.174032 92.085091 
L 366.185967 85.059032 
L 366.530382 85.059032 
L 366.530382 81.546002 
L 366.64839 81.546002 
L 366.64839 78.032972 
L 367.165038 78.032972 
L 367.165038 74.519942 
L 369.372789 74.519942 
L 369.372789 71.006913 
L 369.512753 71.006913 
L 369.512753 67.493883 
L 369.767657 67.493883 
L 369.767657 63.980853 
L 369.931221 63.980853 
L 369.931221 60.467824 
L 371.156627 60.467824 
L 371.156627 56.954794 
L 372.31337 56.954794 
L 372.31337 53.441764 
L 374.188261 53.441764 
L 374.291748 46.415705 
L 376.27761 46.415705 
L 376.27761 42.902675 
L 378.815687 42.902675 
L 378.815687 39.389645 
L 380.73385 39.389645 
L 380.73385 35.876616 
L 382.1713 35.876616 
L 382.1713 32.363586 
L 384.440241 32.363586 
L 384.440241 28.850556 
L 388.522833 28.850556 
L 388.522833 25.337527 
L 388.636396 25.337527 
L 388.636396 21.824497 
L 391.04068 21.824497 
L 391.04068 18.311467 
L 393.446277 18.311467 
L 393.446277 14.798437 
L 393.446277 14.798437 
L 426.4825 14.798437 
L 426.4825 14.798437 
" style="fill:none;stroke:#f5deb3;stroke-linecap:square;stroke-width:1.5;"/>
   </g>
   <g id="line2d_18">
    <path clip-path="url(#p598eca0dfe)" d="M 218.643239 278.275665 
L 218.643239 274.762636 
L 243.909698 274.762636 
L 243.909698 271.249606 
L 245.057144 271.249606 
L 245.057144 267.736576 
L 251.126031 267.736576 
L 251.126031 264.223546 
L 251.835372 264.223546 
L 251.835372 260.710517 
L 262.956335 260.710517 
L 262.956335 257.197487 
L 266.025596 257.197487 
L 266.025596 253.684457 
L 278.259722 253.684457 
L 278.259722 250.171428 
L 281.247339 250.171428 
L 281.247339 246.658398 
L 293.206917 246.658398 
L 293.206917 243.145368 
L 293.666922 243.145368 
L 293.666922 239.632338 
L 299.029392 239.632338 
L 299.029392 236.119309 
L 302.344023 236.119309 
L 302.344023 232.606279 
L 303.766 232.606279 
L 303.766 229.093249 
L 303.910729 229.093249 
L 303.910729 225.58022 
L 303.999506 225.58022 
L 303.999506 222.06719 
L 307.983726 222.06719 
L 307.983726 218.55416 
L 308.64289 218.55416 
L 308.64289 215.041131 
L 309.136717 215.041131 
L 309.136717 211.528101 
L 309.232761 211.528101 
L 309.232761 208.015071 
L 309.718659 208.015071 
L 309.718659 204.502041 
L 310.263437 204.502041 
L 310.263437 200.989012 
L 314.140708 200.989012 
L 314.140708 197.475982 
L 317.915256 197.475982 
L 317.915256 193.962952 
L 318.065865 193.962952 
L 318.065865 190.449923 
L 321.105824 190.449923 
L 321.105824 186.936893 
L 322.355356 186.936893 
L 322.355356 183.423863 
L 323.381971 183.423863 
L 323.381971 179.910834 
L 334.400574 179.910834 
L 334.400574 176.397804 
L 337.987916 176.397804 
L 337.987916 172.884774 
L 349.985345 172.884774 
L 349.985345 169.371744 
L 353.476742 169.371744 
L 353.476742 165.858715 
L 355.860259 165.858715 
L 355.860259 162.345685 
L 360.728982 162.345685 
L 360.728982 158.832655 
L 364.604605 158.832655 
L 364.604605 155.319626 
L 365.800071 155.319626 
L 365.800071 151.806596 
L 367.573113 151.806596 
L 367.573113 148.293566 
L 371.732794 148.293566 
L 371.732794 144.780537 
L 380.410392 144.780537 
L 380.410392 141.267507 
L 392.309394 141.267507 
L 392.309394 137.754477 
L 395.366856 137.754477 
L 395.366856 134.241447 
L 400.668248 134.241447 
L 400.668248 130.728418 
L 401.429671 130.728418 
L 401.429671 127.215388 
L 401.801114 127.215388 
L 401.801114 123.702358 
L 417.261116 123.702358 
L 417.261116 120.189329 
L 417.261116 120.189329 
L 417.261116 120.189329 
L 426.4825 120.189329 
" style="fill:none;stroke:#f5deb3;stroke-linecap:square;stroke-width:1.5;"/>
   </g>
   <g id="line2d_19">
    <path clip-path="url(#p598eca0dfe)" style="fill:none;stroke:#f5deb3;stroke-linecap:square;stroke-width:1.5;"/>
   </g>
   <g id="line2d_20">
    <path clip-path="url(#p598eca0dfe)" d="M 231.927425 278.275665 
L 231.927425 274.762636 
L 235.91948 274.762636 
L 235.91948 271.249606 
L 239.051019 271.249606 
L 239.051019 267.736576 
L 239.777001 267.736576 
L 239.777001 264.223546 
L 241.249484 264.223546 
L 241.249484 257.197487 
L 241.499564 257.197487 
L 241.499564 253.684457 
L 242.117307 253.684457 
L 242.117307 250.171428 
L 242.42227 250.171428 
L 242.42227 246.658398 
L 243.675779 246.658398 
L 243.7344 239.632338 
L 244.659662 239.632338 
L 244.659662 236.119309 
L 245.394403 236.119309 
L 245.394403 232.606279 
L 247.723632 232.606279 
L 247.723632 229.093249 
L 248.502133 229.093249 
L 248.502133 222.06719 
L 250.30494 222.06719 
L 250.30494 218.55416 
L 251.975588 218.55416 
L 251.975588 215.041131 
L 254.584836 215.041131 
L 254.584836 208.015071 
L 254.887395 208.015071 
L 254.887395 204.502041 
L 255.400257 204.502041 
L 255.400257 200.989012 
L 255.780191 200.989012 
L 255.780191 197.475982 
L 256.404684 197.475982 
L 256.404684 193.962952 
L 258.255253 193.962952 
L 258.255253 190.449923 
L 258.838805 190.449923 
L 258.838805 186.936893 
L 259.526872 186.936893 
L 259.526872 183.423863 
L 260.23925 183.423863 
L 260.23925 179.910834 
L 262.54065 179.910834 
L 262.64502 172.884774 
L 262.679743 172.884774 
L 262.679743 169.371744 
L 263.025155 169.371744 
L 263.025155 165.858715 
L 263.807312 165.858715 
L 263.840939 158.832655 
L 265.387151 158.832655 
L 265.387151 155.319626 
L 267.936109 155.319626 
L 267.936109 151.806596 
L 268.324224 151.806596 
L 268.324224 148.293566 
L 269.921707 148.293566 
L 270.006848 141.267507 
L 274.153738 141.267507 
L 274.153738 137.754477 
L 274.705638 137.754477 
L 274.705638 134.241447 
L 274.829905 134.241447 
L 274.829905 130.728418 
L 275.44492 130.728418 
L 275.44492 127.215388 
L 275.760645 127.215388 
L 275.833115 120.189329 
L 281.268113 120.189329 
L 281.268113 116.676299 
L 285.736522 116.676299 
L 285.736522 113.163269 
L 286.301146 113.163269 
L 286.301146 109.650239 
L 288.270682 109.650239 
L 288.270682 106.13721 
L 291.868318 106.13721 
L 291.868318 102.62418 
L 292.360828 102.62418 
L 292.360828 99.11115 
L 294.222938 99.11115 
L 294.222938 95.598121 
L 297.945279 95.598121 
L 297.945279 92.085091 
L 299.958263 92.085091 
L 299.958263 88.572061 
L 301.912175 88.572061 
L 301.912175 85.059032 
L 302.239452 85.059032 
L 302.239452 81.546002 
L 305.497605 81.546002 
L 305.497605 78.032972 
L 305.656768 78.032972 
L 305.656768 74.519942 
L 306.987225 74.519942 
L 306.987225 71.006913 
L 308.260659 71.006913 
L 308.260659 67.493883 
L 309.652352 67.493883 
L 309.652352 63.980853 
L 311.220211 63.980853 
L 311.220211 60.467824 
L 320.217506 60.467824 
L 320.217506 56.954794 
L 323.356008 56.954794 
L 323.356008 53.441764 
L 323.769197 53.441764 
L 323.769197 49.928735 
L 328.795755 49.928735 
L 328.795755 46.415705 
L 333.297589 46.415705 
L 333.297589 42.902675 
L 338.687578 42.902675 
L 338.687578 39.389645 
L 348.242057 39.389645 
L 348.242057 35.876616 
L 352.846883 35.876616 
L 352.846883 32.363586 
L 353.892503 32.363586 
L 353.892503 28.850556 
L 355.62938 28.850556 
L 355.62938 25.337527 
L 357.643537 25.337527 
L 357.643537 21.824497 
L 375.629218 21.824497 
L 375.629218 18.311467 
L 400.867169 18.311467 
L 400.867169 14.798437 
L 400.867169 14.798437 
L 426.4825 14.798437 
L 426.4825 14.798437 
" style="fill:none;stroke:#f5deb3;stroke-linecap:square;stroke-width:1.5;"/>
   </g>
   <g id="line2d_21"/>
   <g id="line2d_22">
    <path clip-path="url(#p598eca0dfe)" d="M 230.68903 278.275665 
L 230.68903 274.762636 
L 232.491157 274.762636 
L 232.491157 271.249606 
L 236.28111 271.249606 
L 236.28111 267.736576 
L 236.710351 267.736576 
L 236.710351 264.223546 
L 237.274868 264.223546 
L 237.274868 260.710517 
L 237.414632 260.710517 
L 237.414632 257.197487 
L 237.7617 257.197487 
L 237.7617 253.684457 
L 238.173836 253.684457 
L 238.242071 246.658398 
L 239.051019 246.658398 
L 239.051019 243.145368 
L 239.842283 243.145368 
L 239.842283 239.632338 
L 241.249484 239.632338 
L 241.249484 236.119309 
L 242.239601 236.119309 
L 242.239601 232.606279 
L 243.381238 232.606279 
L 243.381238 229.093249 
L 243.909698 229.093249 
L 243.909698 225.58022 
L 244.026093 225.58022 
L 244.026093 222.06719 
L 244.257767 222.06719 
L 244.257767 218.55416 
L 246.224055 218.55416 
L 246.224055 215.041131 
L 247.141899 215.041131 
L 247.141899 211.528101 
L 247.828405 211.528101 
L 247.828405 208.015071 
L 248.655844 208.015071 
L 248.655844 204.502041 
L 254.410802 204.502041 
L 254.410802 200.989012 
L 254.887395 200.989012 
L 254.887395 197.475982 
L 255.357795 197.475982 
L 255.357795 193.962952 
L 257.18055 193.962952 
L 257.18055 190.449923 
L 258.684108 190.449923 
L 258.684108 186.936893 
L 260.571861 186.936893 
L 260.571861 183.423863 
L 261.444166 183.423863 
L 261.444166 179.910834 
L 262.956335 179.910834 
L 262.956335 176.397804 
L 266.057225 176.397804 
L 266.057225 172.884774 
L 267.361271 172.884774 
L 267.361271 169.371744 
L 267.785719 169.371744 
L 267.785719 165.858715 
L 268.472399 165.858715 
L 268.472399 162.345685 
L 268.708223 162.345685 
L 268.708223 158.832655 
L 269.97849 158.832655 
L 269.97849 155.319626 
L 270.764233 155.319626 
L 270.764233 151.806596 
L 273.413136 151.806596 
L 273.413136 148.293566 
L 276.73873 148.293566 
L 276.73873 144.780537 
L 277.34556 144.780537 
L 277.34556 141.267507 
L 277.874021 141.267507 
L 277.874021 137.754477 
L 279.654288 137.754477 
L 279.654288 134.241447 
L 281.433878 134.241447 
L 281.433878 130.728418 
L 283.366018 130.728418 
L 283.366018 127.215388 
L 284.237389 127.215388 
L 284.237389 123.702358 
L 285.181597 123.702358 
L 285.181597 120.189329 
L 286.228784 120.189329 
L 286.301146 113.163269 
L 286.355322 113.163269 
L 286.355322 109.650239 
L 287.176032 109.650239 
L 287.176032 106.13721 
L 287.753546 106.13721 
L 287.753546 102.62418 
L 288.441432 102.62418 
L 288.441432 99.11115 
L 291.494488 99.11115 
L 291.510142 92.085091 
L 293.71113 92.085091 
L 293.71113 88.572061 
L 294.784843 88.572061 
L 294.784843 85.059032 
L 295.197087 85.059032 
L 295.197087 81.546002 
L 297.350867 81.546002 
L 297.350867 78.032972 
L 297.879714 78.032972 
L 297.879714 74.519942 
L 298.271339 74.519942 
L 298.271339 71.006913 
L 298.555862 71.006913 
L 298.555862 67.493883 
L 298.774199 67.493883 
L 298.774199 63.980853 
L 299.130967 63.980853 
L 299.181648 56.954794 
L 301.581912 56.954794 
L 301.581912 53.441764 
L 307.26173 53.441764 
L 307.26173 49.928735 
L 308.260659 49.928735 
L 308.260659 46.415705 
L 312.34649 46.415705 
L 312.34649 42.902675 
L 312.696832 42.902675 
L 312.696832 39.389645 
L 315.115766 39.389645 
L 315.115766 35.876616 
L 315.738158 35.876616 
L 315.738158 32.363586 
L 316.811966 32.363586 
L 316.811966 28.850556 
L 323.25848 28.850556 
L 323.25848 25.337527 
L 323.814105 25.337527 
L 323.814105 21.824497 
L 334.998602 21.824497 
L 334.998602 18.311467 
L 343.051666 18.311467 
L 343.051666 14.798437 
L 343.051666 14.798437 
L 426.4825 14.798437 
L 426.4825 14.798437 
" style="fill:none;stroke:#f5deb3;stroke-linecap:square;stroke-width:1.5;"/>
   </g>
   <g id="line2d_23">
    <path clip-path="url(#p598eca0dfe)" style="fill:none;stroke:#f5deb3;stroke-linecap:square;stroke-width:1.5;"/>
   </g>
   <g id="line2d_24">
    <path clip-path="url(#p598eca0dfe)" d="M 272.498644 278.275665 
L 272.498644 274.762636 
L 274.179008 274.762636 
L 274.179008 271.249606 
L 278.439817 271.249606 
L 278.439817 267.736576 
L 278.952652 267.736576 
L 279.041104 260.710517 
L 279.151366 260.710517 
L 279.151366 257.197487 
L 279.589085 257.197487 
L 279.589085 253.684457 
L 279.935488 253.684457 
L 279.935488 250.171428 
L 282.39271 250.171428 
L 282.412838 243.145368 
L 282.713411 243.145368 
L 282.713411 239.632338 
L 283.01151 239.632338 
L 283.01151 236.119309 
L 283.424766 236.119309 
L 283.424766 232.606279 
L 284.064785 232.606279 
L 284.064785 229.093249 
L 284.428211 229.093249 
L 284.428211 225.58022 
L 285.256081 225.58022 
L 285.256081 222.06719 
L 285.589372 222.06719 
L 285.589372 218.55416 
L 286.624995 218.55416 
L 286.624995 215.041131 
L 287.299307 215.041131 
L 287.352011 208.015071 
L 288.458463 208.015071 
L 288.458463 204.502041 
L 289.515562 204.502041 
L 289.515562 200.989012 
L 290.138566 200.989012 
L 290.138566 197.475982 
L 291.369015 197.475982 
L 291.369015 193.962952 
L 291.525789 193.962952 
L 291.603922 186.936893 
L 291.837313 186.936893 
L 291.837313 183.423863 
L 292.29963 183.423863 
L 292.391389 176.397804 
L 292.634948 176.397804 
L 292.695583 169.371744 
L 293.162089 169.371744 
L 293.162089 165.858715 
L 293.740572 165.858715 
L 293.740572 162.345685 
L 293.945998 162.345685 
L 293.945998 158.832655 
L 294.813425 158.832655 
L 294.813425 155.319626 
L 295.520733 155.319626 
L 295.520733 151.806596 
L 295.785928 151.806596 
L 295.841512 144.780537 
L 296.93563 144.780537 
L 296.93563 141.267507 
L 297.958378 141.267507 
L 297.958378 137.754477 
L 298.41388 137.754477 
L 298.41388 134.241447 
L 299.219612 134.241447 
L 299.219612 130.728418 
L 299.659611 130.728418 
L 299.659611 127.215388 
L 299.771894 127.215388 
L 299.771894 123.702358 
L 301.664761 123.702358 
L 301.664761 120.189329 
L 302.297584 120.189329 
L 302.297584 116.676299 
L 303.788304 116.676299 
L 303.788304 113.163269 
L 304.27554 113.163269 
L 304.27554 109.650239 
L 304.778007 109.650239 
L 304.778007 106.13721 
L 305.359096 106.13721 
L 305.359096 102.62418 
L 305.656768 102.62418 
L 305.656768 99.11115 
L 305.962513 99.11115 
L 305.962513 95.598121 
L 307.26173 95.598121 
L 307.26173 92.085091 
L 308.329562 92.085091 
L 308.359052 85.059032 
L 308.447378 85.059032 
L 308.447378 81.546002 
L 308.924519 81.546002 
L 308.924519 78.032972 
L 309.405 78.032972 
L 309.405 74.519942 
L 310.170093 74.519942 
L 310.170093 71.006913 
L 310.412289 71.006913 
L 310.412289 67.493883 
L 311.147504 67.493883 
L 311.238365 60.467824 
L 314.935956 60.467824 
L 314.935956 56.954794 
L 316.128726 56.954794 
L 316.128726 53.441764 
L 317.11411 53.441764 
L 317.11411 49.928735 
L 317.474912 49.928735 
L 317.474912 46.415705 
L 324.76951 46.415705 
L 324.76951 42.902675 
L 328.039232 42.902675 
L 328.039232 39.389645 
L 332.610248 39.389645 
L 332.610248 35.876616 
L 343.593996 35.876616 
L 343.593996 32.363586 
L 343.716295 32.363586 
L 343.716295 28.850556 
L 346.772779 28.850556 
L 346.772779 25.337527 
L 349.594306 25.337527 
L 349.594306 21.824497 
L 366.269402 21.824497 
L 366.269402 18.311467 
L 368.048495 18.311467 
L 368.048495 14.798437 
L 368.048495 14.798437 
L 426.4825 14.798437 
L 426.4825 14.798437 
" style="fill:none;stroke:#f5deb3;stroke-linecap:square;stroke-width:1.5;"/>
   </g>
   <g id="line2d_25"/>
   <g id="line2d_26">
    <path clip-path="url(#p598eca0dfe)" d="M 316.835298 278.275665 
L 316.835298 274.762636 
L 318.125934 274.762636 
L 318.125934 271.249606 
L 318.927254 271.249606 
L 319.029842 260.710517 
L 319.146731 260.710517 
L 319.2487 253.684457 
L 322.951182 253.684457 
L 322.977437 246.658398 
L 323.154161 246.658398 
L 323.154161 243.145368 
L 323.517972 243.145368 
L 323.608356 236.119309 
L 323.807693 236.119309 
L 323.878163 229.093249 
L 323.961268 229.093249 
L 323.961268 225.58022 
L 324.088752 225.58022 
L 324.13962 218.55416 
L 324.32974 218.55416 
L 324.411817 211.528101 
L 324.675723 211.528101 
L 324.675723 208.015071 
L 324.806957 208.015071 
L 324.806957 204.502041 
L 324.931502 204.502041 
L 324.931502 200.989012 
L 325.210171 200.989012 
L 325.247165 190.449923 
L 325.474465 190.449923 
L 325.474465 186.936893 
L 325.730763 186.936893 
L 325.809727 172.884774 
L 328.82368 172.884774 
L 328.862738 162.345685 
L 329.112828 162.345685 
L 329.168169 155.319626 
L 329.520366 155.319626 
L 329.520366 151.806596 
L 329.706085 151.806596 
L 329.760528 144.780537 
L 330.241494 144.780537 
L 330.241494 141.267507 
L 330.55685 141.267507 
L 330.55685 137.754477 
L 331.032671 137.754477 
L 331.032671 134.241447 
L 334.174945 134.241447 
L 334.174945 130.728418 
L 334.648578 130.728418 
L 334.658082 123.702358 
L 334.975058 123.702358 
L 334.975058 120.189329 
L 335.23788 120.189329 
L 335.23788 116.676299 
L 338.882607 116.676299 
L 338.882607 113.163269 
L 339.928662 113.163269 
L 339.932769 106.13721 
L 340.068062 106.13721 
L 340.096695 95.598121 
L 340.373677 95.598121 
L 340.373677 92.085091 
L 342.737533 92.085091 
L 342.737533 88.572061 
L 343.213344 88.572061 
L 343.213344 85.059032 
L 343.486178 85.059032 
L 343.564285 74.519942 
L 344.175842 74.519942 
L 344.175842 71.006913 
L 346.448307 71.006913 
L 346.533977 63.980853 
L 346.908534 63.980853 
L 346.908534 60.467824 
L 347.476543 60.467824 
L 347.489879 53.441764 
L 350.69095 53.441764 
L 350.69095 49.928735 
L 352.993211 49.928735 
L 352.993211 46.415705 
L 359.957719 46.415705 
L 359.957719 42.902675 
L 360.601574 42.902675 
L 360.701222 32.363586 
L 361.705417 32.363586 
L 361.705417 28.850556 
L 362.614521 28.850556 
L 362.614521 25.337527 
L 366.816867 25.337527 
L 366.816867 21.824497 
L 369.42011 21.824497 
L 369.42011 18.311467 
L 384.167759 18.311467 
L 384.167759 14.798437 
L 384.167759 14.798437 
L 426.4825 14.798437 
L 426.4825 14.798437 
" style="fill:none;stroke:#f5deb3;stroke-linecap:square;stroke-width:1.5;"/>
   </g>
   <g id="line2d_27"/>
   <g id="line2d_28">
    <path clip-path="url(#p598eca0dfe)" d="M 266.71512 278.275665 
L 266.71512 274.762636 
L 267.08576 274.762636 
L 267.08576 271.249606 
L 268.026044 271.249606 
L 268.026044 267.736576 
L 269.579128 267.736576 
L 269.579128 264.223546 
L 269.836366 264.223546 
L 269.836366 260.710517 
L 270.204734 260.710517 
L 270.204734 257.197487 
L 271.451662 257.197487 
L 271.451662 253.684457 
L 272.893401 253.684457 
L 272.893401 250.171428 
L 273.024036 250.171428 
L 273.024036 246.658398 
L 274.153738 246.658398 
L 274.153738 243.145368 
L 274.605916 243.145368 
L 274.605916 239.632338 
L 274.805086 239.632338 
L 274.805086 236.119309 
L 275.712251 236.119309 
L 275.712251 232.606279 
L 276.526281 232.606279 
L 276.526281 229.093249 
L 276.668052 229.093249 
L 276.668052 225.58022 
L 276.94994 225.58022 
L 276.94994 222.06719 
L 277.090065 222.06719 
L 277.090065 218.55416 
L 277.438023 218.55416 
L 277.438023 215.041131 
L 277.714 215.041131 
L 277.714 211.528101 
L 277.965145 211.528101 
L 277.965145 208.015071 
L 278.124061 208.015071 
L 278.124061 204.502041 
L 278.708289 204.502041 
L 278.708289 200.989012 
L 278.886171 200.989012 
L 278.886171 197.475982 
L 279.019012 197.475982 
L 279.019012 193.962952 
L 279.913935 193.962952 
L 279.913935 190.449923 
L 280.406444 190.449923 
L 280.406444 186.936893 
L 280.576193 186.936893 
L 280.576193 183.423863 
L 281.475201 183.423863 
L 281.475201 179.910834 
L 282.109747 179.910834 
L 282.109747 176.397804 
L 282.892565 176.397804 
L 282.892565 172.884774 
L 283.267891 172.884774 
L 283.267891 169.371744 
L 284.045556 169.371744 
L 284.045556 165.858715 
L 285.088277 165.858715 
L 285.088277 162.345685 
L 285.552491 162.345685 
L 285.552491 158.832655 
L 285.773217 158.832655 
L 285.773217 155.319626 
L 285.937882 155.319626 
L 285.937882 151.806596 
L 287.052335 151.806596 
L 287.052335 148.293566 
L 287.193668 148.293566 
L 287.193668 144.780537 
L 287.614387 144.780537 
L 287.614387 141.267507 
L 287.753546 141.267507 
L 287.753546 137.754477 
L 288.099123 137.754477 
L 288.099123 134.241447 
L 288.270682 134.241447 
L 288.270682 130.728418 
L 288.407347 130.728418 
L 288.407347 127.215388 
L 288.831127 127.215388 
L 288.831127 123.702358 
L 289.465918 123.702358 
L 289.465918 120.189329 
L 289.861179 120.189329 
L 289.861179 116.676299 
L 290.187297 116.676299 
L 290.284562 109.650239 
L 290.333097 109.650239 
L 290.349261 102.62418 
L 290.989966 102.62418 
L 290.989966 99.11115 
L 291.868318 99.11115 
L 291.868318 95.598121 
L 292.786345 95.598121 
L 292.786345 92.085091 
L 293.057273 92.085091 
L 293.057273 88.572061 
L 293.6964 88.572061 
L 293.6964 85.059032 
L 293.902076 85.059032 
L 293.902076 81.546002 
L 295.027072 81.546002 
L 295.027072 78.032972 
L 295.618663 78.032972 
L 295.618663 74.519942 
L 295.966264 74.519942 
L 295.966264 71.006913 
L 296.241961 71.006913 
L 296.241961 67.493883 
L 297.27087 67.493883 
L 297.27087 63.980853 
L 297.576572 63.980853 
L 297.576572 60.467824 
L 297.919067 60.467824 
L 297.919067 56.954794 
L 298.349158 56.954794 
L 298.349158 53.441764 
L 298.633073 53.441764 
L 298.633073 49.928735 
L 299.433994 49.928735 
L 299.433994 46.415705 
L 300.984557 46.415705 
L 300.984557 42.902675 
L 301.284467 42.902675 
L 301.284467 39.389645 
L 301.676581 39.389645 
L 301.676581 35.876616 
L 314.332834 35.876616 
L 314.332834 32.363586 
L 314.968715 32.363586 
L 314.968715 28.850556 
L 317.390791 28.850556 
L 317.390791 25.337527 
L 319.53125 25.337527 
L 319.53125 21.824497 
L 321.633984 21.824497 
L 321.633984 18.311467 
L 333.40105 18.311467 
L 333.40105 14.798437 
L 333.40105 14.798437 
L 426.4825 14.798437 
L 426.4825 14.798437 
" style="fill:none;stroke:#f5deb3;stroke-linecap:square;stroke-width:1.5;"/>
   </g>
   <g id="line2d_29">
    <path clip-path="url(#p598eca0dfe)" d="M 326.261955 278.275665 
L 326.261955 274.762636 
L 326.261955 274.762636 
L 326.261955 271.249606 
L 326.261955 271.249606 
L 326.261955 267.736576 
L 350.217956 267.736576 
L 350.217956 264.223546 
L 350.217956 264.223546 
L 350.217956 260.710517 
L 350.217956 260.710517 
L 350.217956 257.197487 
L 350.217956 257.197487 
L 350.217956 257.197487 
L 426.4825 257.197487 
" style="fill:none;stroke:#f5deb3;stroke-linecap:square;stroke-width:1.5;"/>
   </g>
   <g id="line2d_30"/>
   <g id="matplotlib.axis_1">
    <g id="xtick_1">
     <g id="line2d_31">
      <path clip-path="url(#p598eca0dfe)" d="M 69.3625 278.275665 
L 69.3625 12.163665 
" style="fill:none;stroke:#b0b0b0;stroke-linecap:square;stroke-width:0.8;"/>
     </g>
     <g id="line2d_32">
      <defs>
       <path d="M 0 0 
L 0 3.5 
" id="mf50e3b4539" style="stroke:#000000;stroke-width:0.8;"/>
      </defs>
      <g>
       <use style="stroke:#000000;stroke-width:0.8;" x="69.3625" xlink:href="#mf50e3b4539" y="278.275665"/>
      </g>
     </g>
     <g id="text_1">
      <!-- 0 -->
      <defs>
       <path d="M 31.78125 66.40625 
Q 24.171875 66.40625 20.328125 58.90625 
Q 16.5 51.421875 16.5 36.375 
Q 16.5 21.390625 20.328125 13.890625 
Q 24.171875 6.390625 31.78125 6.390625 
Q 39.453125 6.390625 43.28125 13.890625 
Q 47.125 21.390625 47.125 36.375 
Q 47.125 51.421875 43.28125 58.90625 
Q 39.453125 66.40625 31.78125 66.40625 
M 31.78125 74.21875 
Q 44.046875 74.21875 50.515625 64.515625 
Q 56.984375 54.828125 56.984375 36.375 
Q 56.984375 17.96875 50.515625 8.265625 
Q 44.046875 -1.421875 31.78125 -1.421875 
Q 19.53125 -1.421875 13.0625 8.265625 
Q 6.59375 17.96875 6.59375 36.375 
Q 6.59375 54.828125 13.0625 64.515625 
Q 19.53125 74.21875 31.78125 74.21875 
" id="DejaVuSans-30"/>
      </defs>
      <g transform="translate(63 300.47254)scale(0.2 -0.2)">
       <use xlink:href="#DejaVuSans-30"/>
      </g>
     </g>
    </g>
    <g id="xtick_2">
     <g id="line2d_33">
      <path clip-path="url(#p598eca0dfe)" d="M 236.064566 278.275665 
L 236.064566 12.163665 
" style="fill:none;stroke:#b0b0b0;stroke-linecap:square;stroke-width:0.8;"/>
     </g>
     <g id="line2d_34">
      <g>
       <use style="stroke:#000000;stroke-width:0.8;" x="236.064566" xlink:href="#mf50e3b4539" y="278.275665"/>
      </g>
     </g>
     <g id="text_2">
      <!-- 2 -->
      <defs>
       <path d="M 19.1875 8.296875 
L 53.609375 8.296875 
L 53.609375 0 
L 7.328125 0 
L 7.328125 8.296875 
Q 12.9375 14.109375 22.625 23.890625 
Q 32.328125 33.6875 34.8125 36.53125 
Q 39.546875 41.84375 41.421875 45.53125 
Q 43.3125 49.21875 43.3125 52.78125 
Q 43.3125 58.59375 39.234375 62.25 
Q 35.15625 65.921875 28.609375 65.921875 
Q 23.96875 65.921875 18.8125 64.3125 
Q 13.671875 62.703125 7.8125 59.421875 
L 7.8125 69.390625 
Q 13.765625 71.78125 18.9375 73 
Q 24.125 74.21875 28.421875 74.21875 
Q 39.75 74.21875 46.484375 68.546875 
Q 53.21875 62.890625 53.21875 53.421875 
Q 53.21875 48.921875 51.53125 44.890625 
Q 49.859375 40.875 45.40625 35.40625 
Q 44.1875 33.984375 37.640625 27.21875 
Q 31.109375 20.453125 19.1875 8.296875 
" id="DejaVuSans-32"/>
      </defs>
      <g transform="translate(229.702066 300.47254)scale(0.2 -0.2)">
       <use xlink:href="#DejaVuSans-32"/>
      </g>
     </g>
    </g>
    <g id="xtick_3">
     <g id="line2d_35">
      <path clip-path="url(#p598eca0dfe)" d="M 402.766631 278.275665 
L 402.766631 12.163665 
" style="fill:none;stroke:#b0b0b0;stroke-linecap:square;stroke-width:0.8;"/>
     </g>
     <g id="line2d_36">
      <g>
       <use style="stroke:#000000;stroke-width:0.8;" x="402.766631" xlink:href="#mf50e3b4539" y="278.275665"/>
      </g>
     </g>
     <g id="text_3">
      <!-- 4 -->
      <defs>
       <path d="M 37.796875 64.3125 
L 12.890625 25.390625 
L 37.796875 25.390625 
z
M 35.203125 72.90625 
L 47.609375 72.90625 
L 47.609375 25.390625 
L 58.015625 25.390625 
L 58.015625 17.1875 
L 47.609375 17.1875 
L 47.609375 0 
L 37.796875 0 
L 37.796875 17.1875 
L 4.890625 17.1875 
L 4.890625 26.703125 
z
" id="DejaVuSans-34"/>
      </defs>
      <g transform="translate(396.404131 300.47254)scale(0.2 -0.2)">
       <use xlink:href="#DejaVuSans-34"/>
      </g>
     </g>
    </g>
    <g id="xtick_4">
     <g id="line2d_37">
      <defs>
       <path d="M 0 0 
L 0 2 
" id="m02510b10a4" style="stroke:#000000;stroke-width:0.6;"/>
      </defs>
      <g>
       <use style="stroke:#000000;stroke-width:0.6;" x="94.453661" xlink:href="#m02510b10a4" y="278.275665"/>
      </g>
     </g>
    </g>
    <g id="xtick_5">
     <g id="line2d_38">
      <g>
       <use style="stroke:#000000;stroke-width:0.6;" x="109.131049" xlink:href="#m02510b10a4" y="278.275665"/>
      </g>
     </g>
    </g>
    <g id="xtick_6">
     <g id="line2d_39">
      <g>
       <use style="stroke:#000000;stroke-width:0.6;" x="119.544822" xlink:href="#m02510b10a4" y="278.275665"/>
      </g>
     </g>
    </g>
    <g id="xtick_7">
     <g id="line2d_40">
      <g>
       <use style="stroke:#000000;stroke-width:0.6;" x="127.622372" xlink:href="#m02510b10a4" y="278.275665"/>
      </g>
     </g>
    </g>
    <g id="xtick_8">
     <g id="line2d_41">
      <g>
       <use style="stroke:#000000;stroke-width:0.6;" x="134.22221" xlink:href="#m02510b10a4" y="278.275665"/>
      </g>
     </g>
    </g>
    <g id="xtick_9">
     <g id="line2d_42">
      <g>
       <use style="stroke:#000000;stroke-width:0.6;" x="139.802295" xlink:href="#m02510b10a4" y="278.275665"/>
      </g>
     </g>
    </g>
    <g id="xtick_10">
     <g id="line2d_43">
      <g>
       <use style="stroke:#000000;stroke-width:0.6;" x="144.635983" xlink:href="#m02510b10a4" y="278.275665"/>
      </g>
     </g>
    </g>
    <g id="xtick_11">
     <g id="line2d_44">
      <g>
       <use style="stroke:#000000;stroke-width:0.6;" x="148.899599" xlink:href="#m02510b10a4" y="278.275665"/>
      </g>
     </g>
    </g>
    <g id="xtick_12">
     <g id="line2d_45">
      <g>
       <use style="stroke:#000000;stroke-width:0.6;" x="177.804694" xlink:href="#m02510b10a4" y="278.275665"/>
      </g>
     </g>
    </g>
    <g id="xtick_13">
     <g id="line2d_46">
      <g>
       <use style="stroke:#000000;stroke-width:0.6;" x="192.482082" xlink:href="#m02510b10a4" y="278.275665"/>
      </g>
     </g>
    </g>
    <g id="xtick_14">
     <g id="line2d_47">
      <g>
       <use style="stroke:#000000;stroke-width:0.6;" x="202.895855" xlink:href="#m02510b10a4" y="278.275665"/>
      </g>
     </g>
    </g>
    <g id="xtick_15">
     <g id="line2d_48">
      <g>
       <use style="stroke:#000000;stroke-width:0.6;" x="210.973405" xlink:href="#m02510b10a4" y="278.275665"/>
      </g>
     </g>
    </g>
    <g id="xtick_16">
     <g id="line2d_49">
      <g>
       <use style="stroke:#000000;stroke-width:0.6;" x="217.573243" xlink:href="#m02510b10a4" y="278.275665"/>
      </g>
     </g>
    </g>
    <g id="xtick_17">
     <g id="line2d_50">
      <g>
       <use style="stroke:#000000;stroke-width:0.6;" x="223.153327" xlink:href="#m02510b10a4" y="278.275665"/>
      </g>
     </g>
    </g>
    <g id="xtick_18">
     <g id="line2d_51">
      <g>
       <use style="stroke:#000000;stroke-width:0.6;" x="227.987016" xlink:href="#m02510b10a4" y="278.275665"/>
      </g>
     </g>
    </g>
    <g id="xtick_19">
     <g id="line2d_52">
      <g>
       <use style="stroke:#000000;stroke-width:0.6;" x="232.250632" xlink:href="#m02510b10a4" y="278.275665"/>
      </g>
     </g>
    </g>
    <g id="xtick_20">
     <g id="line2d_53">
      <g>
       <use style="stroke:#000000;stroke-width:0.6;" x="261.155727" xlink:href="#m02510b10a4" y="278.275665"/>
      </g>
     </g>
    </g>
    <g id="xtick_21">
     <g id="line2d_54">
      <g>
       <use style="stroke:#000000;stroke-width:0.6;" x="275.833115" xlink:href="#m02510b10a4" y="278.275665"/>
      </g>
     </g>
    </g>
    <g id="xtick_22">
     <g id="line2d_55">
      <g>
       <use style="stroke:#000000;stroke-width:0.6;" x="286.246888" xlink:href="#m02510b10a4" y="278.275665"/>
      </g>
     </g>
    </g>
    <g id="xtick_23">
     <g id="line2d_56">
      <g>
       <use style="stroke:#000000;stroke-width:0.6;" x="294.324438" xlink:href="#m02510b10a4" y="278.275665"/>
      </g>
     </g>
    </g>
    <g id="xtick_24">
     <g id="line2d_57">
      <g>
       <use style="stroke:#000000;stroke-width:0.6;" x="300.924276" xlink:href="#m02510b10a4" y="278.275665"/>
      </g>
     </g>
    </g>
    <g id="xtick_25">
     <g id="line2d_58">
      <g>
       <use style="stroke:#000000;stroke-width:0.6;" x="306.50436" xlink:href="#m02510b10a4" y="278.275665"/>
      </g>
     </g>
    </g>
    <g id="xtick_26">
     <g id="line2d_59">
      <g>
       <use style="stroke:#000000;stroke-width:0.6;" x="311.338049" xlink:href="#m02510b10a4" y="278.275665"/>
      </g>
     </g>
    </g>
    <g id="xtick_27">
     <g id="line2d_60">
      <g>
       <use style="stroke:#000000;stroke-width:0.6;" x="315.601665" xlink:href="#m02510b10a4" y="278.275665"/>
      </g>
     </g>
    </g>
    <g id="xtick_28">
     <g id="line2d_61">
      <g>
       <use style="stroke:#000000;stroke-width:0.6;" x="344.50676" xlink:href="#m02510b10a4" y="278.275665"/>
      </g>
     </g>
    </g>
    <g id="xtick_29">
     <g id="line2d_62">
      <g>
       <use style="stroke:#000000;stroke-width:0.6;" x="359.184148" xlink:href="#m02510b10a4" y="278.275665"/>
      </g>
     </g>
    </g>
    <g id="xtick_30">
     <g id="line2d_63">
      <g>
       <use style="stroke:#000000;stroke-width:0.6;" x="369.597921" xlink:href="#m02510b10a4" y="278.275665"/>
      </g>
     </g>
    </g>
    <g id="xtick_31">
     <g id="line2d_64">
      <g>
       <use style="stroke:#000000;stroke-width:0.6;" x="377.67547" xlink:href="#m02510b10a4" y="278.275665"/>
      </g>
     </g>
    </g>
    <g id="xtick_32">
     <g id="line2d_65">
      <g>
       <use style="stroke:#000000;stroke-width:0.6;" x="384.275309" xlink:href="#m02510b10a4" y="278.275665"/>
      </g>
     </g>
    </g>
    <g id="xtick_33">
     <g id="line2d_66">
      <g>
       <use style="stroke:#000000;stroke-width:0.6;" x="389.855393" xlink:href="#m02510b10a4" y="278.275665"/>
      </g>
     </g>
    </g>
    <g id="xtick_34">
     <g id="line2d_67">
      <g>
       <use style="stroke:#000000;stroke-width:0.6;" x="394.689082" xlink:href="#m02510b10a4" y="278.275665"/>
      </g>
     </g>
    </g>
    <g id="xtick_35">
     <g id="line2d_68">
      <g>
       <use style="stroke:#000000;stroke-width:0.6;" x="398.952697" xlink:href="#m02510b10a4" y="278.275665"/>
      </g>
     </g>
    </g>
    <g id="text_4">
     <!-- log10 of FEvals / DIM -->
     <defs>
      <path d="M 9.421875 75.984375 
L 18.40625 75.984375 
L 18.40625 0 
L 9.421875 0 
z
" id="DejaVuSans-6c"/>
      <path d="M 30.609375 48.390625 
Q 23.390625 48.390625 19.1875 42.75 
Q 14.984375 37.109375 14.984375 27.296875 
Q 14.984375 17.484375 19.15625 11.84375 
Q 23.34375 6.203125 30.609375 6.203125 
Q 37.796875 6.203125 41.984375 11.859375 
Q 46.1875 17.53125 46.1875 27.296875 
Q 46.1875 37.015625 41.984375 42.703125 
Q 37.796875 48.390625 30.609375 48.390625 
M 30.609375 56 
Q 42.328125 56 49.015625 48.375 
Q 55.71875 40.765625 55.71875 27.296875 
Q 55.71875 13.875 49.015625 6.21875 
Q 42.328125 -1.421875 30.609375 -1.421875 
Q 18.84375 -1.421875 12.171875 6.21875 
Q 5.515625 13.875 5.515625 27.296875 
Q 5.515625 40.765625 12.171875 48.375 
Q 18.84375 56 30.609375 56 
" id="DejaVuSans-6f"/>
      <path d="M 45.40625 27.984375 
Q 45.40625 37.75 41.375 43.109375 
Q 37.359375 48.484375 30.078125 48.484375 
Q 22.859375 48.484375 18.828125 43.109375 
Q 14.796875 37.75 14.796875 27.984375 
Q 14.796875 18.265625 18.828125 12.890625 
Q 22.859375 7.515625 30.078125 7.515625 
Q 37.359375 7.515625 41.375 12.890625 
Q 45.40625 18.265625 45.40625 27.984375 
M 54.390625 6.78125 
Q 54.390625 -7.171875 48.1875 -13.984375 
Q 42 -20.796875 29.203125 -20.796875 
Q 24.46875 -20.796875 20.265625 -20.09375 
Q 16.0625 -19.390625 12.109375 -17.921875 
L 12.109375 -9.1875 
Q 16.0625 -11.328125 19.921875 -12.34375 
Q 23.78125 -13.375 27.78125 -13.375 
Q 36.625 -13.375 41.015625 -8.765625 
Q 45.40625 -4.15625 45.40625 5.171875 
L 45.40625 9.625 
Q 42.625 4.78125 38.28125 2.390625 
Q 33.9375 0 27.875 0 
Q 17.828125 0 11.671875 7.65625 
Q 5.515625 15.328125 5.515625 27.984375 
Q 5.515625 40.671875 11.671875 48.328125 
Q 17.828125 56 27.875 56 
Q 33.9375 56 38.28125 53.609375 
Q 42.625 51.21875 45.40625 46.390625 
L 45.40625 54.6875 
L 54.390625 54.6875 
z
" id="DejaVuSans-67"/>
      <path d="M 12.40625 8.296875 
L 28.515625 8.296875 
L 28.515625 63.921875 
L 10.984375 60.40625 
L 10.984375 69.390625 
L 28.421875 72.90625 
L 38.28125 72.90625 
L 38.28125 8.296875 
L 54.390625 8.296875 
L 54.390625 0 
L 12.40625 0 
z
" id="DejaVuSans-31"/>
      <path id="DejaVuSans-20"/>
      <path d="M 37.109375 75.984375 
L 37.109375 68.5 
L 28.515625 68.5 
Q 23.6875 68.5 21.796875 66.546875 
Q 19.921875 64.59375 19.921875 59.515625 
L 19.921875 54.6875 
L 34.71875 54.6875 
L 34.71875 47.703125 
L 19.921875 47.703125 
L 19.921875 0 
L 10.890625 0 
L 10.890625 47.703125 
L 2.296875 47.703125 
L 2.296875 54.6875 
L 10.890625 54.6875 
L 10.890625 58.5 
Q 10.890625 67.625 15.140625 71.796875 
Q 19.390625 75.984375 28.609375 75.984375 
z
" id="DejaVuSans-66"/>
      <path d="M 9.8125 72.90625 
L 51.703125 72.90625 
L 51.703125 64.59375 
L 19.671875 64.59375 
L 19.671875 43.109375 
L 48.578125 43.109375 
L 48.578125 34.8125 
L 19.671875 34.8125 
L 19.671875 0 
L 9.8125 0 
z
" id="DejaVuSans-46"/>
      <path d="M 9.8125 72.90625 
L 55.90625 72.90625 
L 55.90625 64.59375 
L 19.671875 64.59375 
L 19.671875 43.015625 
L 54.390625 43.015625 
L 54.390625 34.71875 
L 19.671875 34.71875 
L 19.671875 8.296875 
L 56.78125 8.296875 
L 56.78125 0 
L 9.8125 0 
z
" id="DejaVuSans-45"/>
      <path d="M 2.984375 54.6875 
L 12.5 54.6875 
L 29.59375 8.796875 
L 46.6875 54.6875 
L 56.203125 54.6875 
L 35.6875 0 
L 23.484375 0 
z
" id="DejaVuSans-76"/>
      <path d="M 34.28125 27.484375 
Q 23.390625 27.484375 19.1875 25 
Q 14.984375 22.515625 14.984375 16.5 
Q 14.984375 11.71875 18.140625 8.90625 
Q 21.296875 6.109375 26.703125 6.109375 
Q 34.1875 6.109375 38.703125 11.40625 
Q 43.21875 16.703125 43.21875 25.484375 
L 43.21875 27.484375 
z
M 52.203125 31.203125 
L 52.203125 0 
L 43.21875 0 
L 43.21875 8.296875 
Q 40.140625 3.328125 35.546875 0.953125 
Q 30.953125 -1.421875 24.3125 -1.421875 
Q 15.921875 -1.421875 10.953125 3.296875 
Q 6 8.015625 6 15.921875 
Q 6 25.140625 12.171875 29.828125 
Q 18.359375 34.515625 30.609375 34.515625 
L 43.21875 34.515625 
L 43.21875 35.40625 
Q 43.21875 41.609375 39.140625 45 
Q 35.0625 48.390625 27.6875 48.390625 
Q 23 48.390625 18.546875 47.265625 
Q 14.109375 46.140625 10.015625 43.890625 
L 10.015625 52.203125 
Q 14.9375 54.109375 19.578125 55.046875 
Q 24.21875 56 28.609375 56 
Q 40.484375 56 46.34375 49.84375 
Q 52.203125 43.703125 52.203125 31.203125 
" id="DejaVuSans-61"/>
      <path d="M 44.28125 53.078125 
L 44.28125 44.578125 
Q 40.484375 46.53125 36.375 47.5 
Q 32.28125 48.484375 27.875 48.484375 
Q 21.1875 48.484375 17.84375 46.4375 
Q 14.5 44.390625 14.5 40.28125 
Q 14.5 37.15625 16.890625 35.375 
Q 19.28125 33.59375 26.515625 31.984375 
L 29.59375 31.296875 
Q 39.15625 29.25 43.1875 25.515625 
Q 47.21875 21.78125 47.21875 15.09375 
Q 47.21875 7.46875 41.1875 3.015625 
Q 35.15625 -1.421875 24.609375 -1.421875 
Q 20.21875 -1.421875 15.453125 -0.5625 
Q 10.6875 0.296875 5.421875 2 
L 5.421875 11.28125 
Q 10.40625 8.6875 15.234375 7.390625 
Q 20.0625 6.109375 24.8125 6.109375 
Q 31.15625 6.109375 34.5625 8.28125 
Q 37.984375 10.453125 37.984375 14.40625 
Q 37.984375 18.0625 35.515625 20.015625 
Q 33.0625 21.96875 24.703125 23.78125 
L 21.578125 24.515625 
Q 13.234375 26.265625 9.515625 29.90625 
Q 5.8125 33.546875 5.8125 39.890625 
Q 5.8125 47.609375 11.28125 51.796875 
Q 16.75 56 26.8125 56 
Q 31.78125 56 36.171875 55.265625 
Q 40.578125 54.546875 44.28125 53.078125 
" id="DejaVuSans-73"/>
      <path d="M 25.390625 72.90625 
L 33.6875 72.90625 
L 8.296875 -9.28125 
L 0 -9.28125 
z
" id="DejaVuSans-2f"/>
      <path d="M 19.671875 64.796875 
L 19.671875 8.109375 
L 31.59375 8.109375 
Q 46.6875 8.109375 53.6875 14.9375 
Q 60.6875 21.78125 60.6875 36.53125 
Q 60.6875 51.171875 53.6875 57.984375 
Q 46.6875 64.796875 31.59375 64.796875 
z
M 9.8125 72.90625 
L 30.078125 72.90625 
Q 51.265625 72.90625 61.171875 64.09375 
Q 71.09375 55.28125 71.09375 36.53125 
Q 71.09375 17.671875 61.125 8.828125 
Q 51.171875 0 30.078125 0 
L 9.8125 0 
z
" id="DejaVuSans-44"/>
      <path d="M 9.8125 72.90625 
L 19.671875 72.90625 
L 19.671875 0 
L 9.8125 0 
z
" id="DejaVuSans-49"/>
      <path d="M 9.8125 72.90625 
L 24.515625 72.90625 
L 43.109375 23.296875 
L 61.8125 72.90625 
L 76.515625 72.90625 
L 76.515625 0 
L 66.890625 0 
L 66.890625 64.015625 
L 48.09375 14.015625 
L 38.1875 14.015625 
L 19.390625 64.015625 
L 19.390625 0 
L 9.8125 0 
z
" id="DejaVuSans-4d"/>
     </defs>
     <g transform="translate(142.849063 323.82879)scale(0.2 -0.2)">
      <use xlink:href="#DejaVuSans-6c"/>
      <use x="27.783203" xlink:href="#DejaVuSans-6f"/>
      <use x="88.964844" xlink:href="#DejaVuSans-67"/>
      <use x="152.441406" xlink:href="#DejaVuSans-31"/>
      <use x="216.064453" xlink:href="#DejaVuSans-30"/>
      <use x="279.6875" xlink:href="#DejaVuSans-20"/>
      <use x="311.474609" xlink:href="#DejaVuSans-6f"/>
      <use x="372.65625" xlink:href="#DejaVuSans-66"/>
      <use x="407.861328" xlink:href="#DejaVuSans-20"/>
      <use x="439.648438" xlink:href="#DejaVuSans-46"/>
      <use x="497.167969" xlink:href="#DejaVuSans-45"/>
      <use x="560.351562" xlink:href="#DejaVuSans-76"/>
      <use x="619.53125" xlink:href="#DejaVuSans-61"/>
      <use x="680.810547" xlink:href="#DejaVuSans-6c"/>
      <use x="708.59375" xlink:href="#DejaVuSans-73"/>
      <use x="760.693359" xlink:href="#DejaVuSans-20"/>
      <use x="792.480469" xlink:href="#DejaVuSans-2f"/>
      <use x="826.171875" xlink:href="#DejaVuSans-20"/>
      <use x="857.958984" xlink:href="#DejaVuSans-44"/>
      <use x="934.960938" xlink:href="#DejaVuSans-49"/>
      <use x="964.453125" xlink:href="#DejaVuSans-4d"/>
     </g>
    </g>
   </g>
   <g id="matplotlib.axis_2">
    <g id="ytick_1">
     <g id="line2d_69">
      <path clip-path="url(#p598eca0dfe)" d="M 69.3625 278.275665 
L 426.4825 278.275665 
" style="fill:none;stroke:#b0b0b0;stroke-linecap:square;stroke-width:0.8;"/>
     </g>
     <g id="line2d_70">
      <defs>
       <path d="M 0 0 
L -3.5 0 
" id="mfdc6682a32" style="stroke:#000000;stroke-width:0.8;"/>
      </defs>
      <g>
       <use style="stroke:#000000;stroke-width:0.8;" x="69.3625" xlink:href="#mfdc6682a32" y="278.275665"/>
      </g>
     </g>
     <g id="text_5">
      <!-- 0.0 -->
      <defs>
       <path d="M 10.6875 12.40625 
L 21 12.40625 
L 21 0 
L 10.6875 0 
z
" id="DejaVuSans-2e"/>
      </defs>
      <g transform="translate(30.55625 285.874103)scale(0.2 -0.2)">
       <use xlink:href="#DejaVuSans-30"/>
       <use x="63.623047" xlink:href="#DejaVuSans-2e"/>
       <use x="95.410156" xlink:href="#DejaVuSans-30"/>
      </g>
     </g>
    </g>
    <g id="ytick_2">
     <g id="line2d_71">
      <path clip-path="url(#p598eca0dfe)" d="M 69.3625 225.58022 
L 426.4825 225.58022 
" style="fill:none;stroke:#b0b0b0;stroke-linecap:square;stroke-width:0.8;"/>
     </g>
     <g id="line2d_72">
      <g>
       <use style="stroke:#000000;stroke-width:0.8;" x="69.3625" xlink:href="#mfdc6682a32" y="225.58022"/>
      </g>
     </g>
     <g id="text_6">
      <!-- 0.2 -->
      <g transform="translate(30.55625 233.178657)scale(0.2 -0.2)">
       <use xlink:href="#DejaVuSans-30"/>
       <use x="63.623047" xlink:href="#DejaVuSans-2e"/>
       <use x="95.410156" xlink:href="#DejaVuSans-32"/>
      </g>
     </g>
    </g>
    <g id="ytick_3">
     <g id="line2d_73">
      <path clip-path="url(#p598eca0dfe)" d="M 69.3625 172.884774 
L 426.4825 172.884774 
" style="fill:none;stroke:#b0b0b0;stroke-linecap:square;stroke-width:0.8;"/>
     </g>
     <g id="line2d_74">
      <g>
       <use style="stroke:#000000;stroke-width:0.8;" x="69.3625" xlink:href="#mfdc6682a32" y="172.884774"/>
      </g>
     </g>
     <g id="text_7">
      <!-- 0.4 -->
      <g transform="translate(30.55625 180.483212)scale(0.2 -0.2)">
       <use xlink:href="#DejaVuSans-30"/>
       <use x="63.623047" xlink:href="#DejaVuSans-2e"/>
       <use x="95.410156" xlink:href="#DejaVuSans-34"/>
      </g>
     </g>
    </g>
    <g id="ytick_4">
     <g id="line2d_75">
      <path clip-path="url(#p598eca0dfe)" d="M 69.3625 120.189329 
L 426.4825 120.189329 
" style="fill:none;stroke:#b0b0b0;stroke-linecap:square;stroke-width:0.8;"/>
     </g>
     <g id="line2d_76">
      <g>
       <use style="stroke:#000000;stroke-width:0.8;" x="69.3625" xlink:href="#mfdc6682a32" y="120.189329"/>
      </g>
     </g>
     <g id="text_8">
      <!-- 0.6 -->
      <defs>
       <path d="M 33.015625 40.375 
Q 26.375 40.375 22.484375 35.828125 
Q 18.609375 31.296875 18.609375 23.390625 
Q 18.609375 15.53125 22.484375 10.953125 
Q 26.375 6.390625 33.015625 6.390625 
Q 39.65625 6.390625 43.53125 10.953125 
Q 47.40625 15.53125 47.40625 23.390625 
Q 47.40625 31.296875 43.53125 35.828125 
Q 39.65625 40.375 33.015625 40.375 
M 52.59375 71.296875 
L 52.59375 62.3125 
Q 48.875 64.0625 45.09375 64.984375 
Q 41.3125 65.921875 37.59375 65.921875 
Q 27.828125 65.921875 22.671875 59.328125 
Q 17.53125 52.734375 16.796875 39.40625 
Q 19.671875 43.65625 24.015625 45.921875 
Q 28.375 48.1875 33.59375 48.1875 
Q 44.578125 48.1875 50.953125 41.515625 
Q 57.328125 34.859375 57.328125 23.390625 
Q 57.328125 12.15625 50.6875 5.359375 
Q 44.046875 -1.421875 33.015625 -1.421875 
Q 20.359375 -1.421875 13.671875 8.265625 
Q 6.984375 17.96875 6.984375 36.375 
Q 6.984375 53.65625 15.1875 63.9375 
Q 23.390625 74.21875 37.203125 74.21875 
Q 40.921875 74.21875 44.703125 73.484375 
Q 48.484375 72.75 52.59375 71.296875 
" id="DejaVuSans-36"/>
      </defs>
      <g transform="translate(30.55625 127.787766)scale(0.2 -0.2)">
       <use xlink:href="#DejaVuSans-30"/>
       <use x="63.623047" xlink:href="#DejaVuSans-2e"/>
       <use x="95.410156" xlink:href="#DejaVuSans-36"/>
      </g>
     </g>
    </g>
    <g id="ytick_5">
     <g id="line2d_77">
      <path clip-path="url(#p598eca0dfe)" d="M 69.3625 67.493883 
L 426.4825 67.493883 
" style="fill:none;stroke:#b0b0b0;stroke-linecap:square;stroke-width:0.8;"/>
     </g>
     <g id="line2d_78">
      <g>
       <use style="stroke:#000000;stroke-width:0.8;" x="69.3625" xlink:href="#mfdc6682a32" y="67.493883"/>
      </g>
     </g>
     <g id="text_9">
      <!-- 0.8 -->
      <defs>
       <path d="M 31.78125 34.625 
Q 24.75 34.625 20.71875 30.859375 
Q 16.703125 27.09375 16.703125 20.515625 
Q 16.703125 13.921875 20.71875 10.15625 
Q 24.75 6.390625 31.78125 6.390625 
Q 38.8125 6.390625 42.859375 10.171875 
Q 46.921875 13.96875 46.921875 20.515625 
Q 46.921875 27.09375 42.890625 30.859375 
Q 38.875 34.625 31.78125 34.625 
M 21.921875 38.8125 
Q 15.578125 40.375 12.03125 44.71875 
Q 8.5 49.078125 8.5 55.328125 
Q 8.5 64.0625 14.71875 69.140625 
Q 20.953125 74.21875 31.78125 74.21875 
Q 42.671875 74.21875 48.875 69.140625 
Q 55.078125 64.0625 55.078125 55.328125 
Q 55.078125 49.078125 51.53125 44.71875 
Q 48 40.375 41.703125 38.8125 
Q 48.828125 37.15625 52.796875 32.3125 
Q 56.78125 27.484375 56.78125 20.515625 
Q 56.78125 9.90625 50.3125 4.234375 
Q 43.84375 -1.421875 31.78125 -1.421875 
Q 19.734375 -1.421875 13.25 4.234375 
Q 6.78125 9.90625 6.78125 20.515625 
Q 6.78125 27.484375 10.78125 32.3125 
Q 14.796875 37.15625 21.921875 38.8125 
M 18.3125 54.390625 
Q 18.3125 48.734375 21.84375 45.5625 
Q 25.390625 42.390625 31.78125 42.390625 
Q 38.140625 42.390625 41.71875 45.5625 
Q 45.3125 48.734375 45.3125 54.390625 
Q 45.3125 60.0625 41.71875 63.234375 
Q 38.140625 66.40625 31.78125 66.40625 
Q 25.390625 66.40625 21.84375 63.234375 
Q 18.3125 60.0625 18.3125 54.390625 
" id="DejaVuSans-38"/>
      </defs>
      <g transform="translate(30.55625 75.092321)scale(0.2 -0.2)">
       <use xlink:href="#DejaVuSans-30"/>
       <use x="63.623047" xlink:href="#DejaVuSans-2e"/>
       <use x="95.410156" xlink:href="#DejaVuSans-38"/>
      </g>
     </g>
    </g>
    <g id="ytick_6">
     <g id="line2d_79">
      <path clip-path="url(#p598eca0dfe)" d="M 69.3625 14.798437 
L 426.4825 14.798437 
" style="fill:none;stroke:#b0b0b0;stroke-linecap:square;stroke-width:0.8;"/>
     </g>
     <g id="line2d_80">
      <g>
       <use style="stroke:#000000;stroke-width:0.8;" x="69.3625" xlink:href="#mfdc6682a32" y="14.798437"/>
      </g>
     </g>
     <g id="text_10">
      <!-- 1.0 -->
      <g transform="translate(30.55625 22.396875)scale(0.2 -0.2)">
       <use xlink:href="#DejaVuSans-31"/>
       <use x="63.623047" xlink:href="#DejaVuSans-2e"/>
       <use x="95.410156" xlink:href="#DejaVuSans-30"/>
      </g>
     </g>
    </g>
    <g id="text_11">
     <!-- proportion of trials -->
     <defs>
      <path d="M 18.109375 8.203125 
L 18.109375 -20.796875 
L 9.078125 -20.796875 
L 9.078125 54.6875 
L 18.109375 54.6875 
L 18.109375 46.390625 
Q 20.953125 51.265625 25.265625 53.625 
Q 29.59375 56 35.59375 56 
Q 45.5625 56 51.78125 48.09375 
Q 58.015625 40.1875 58.015625 27.296875 
Q 58.015625 14.40625 51.78125 6.484375 
Q 45.5625 -1.421875 35.59375 -1.421875 
Q 29.59375 -1.421875 25.265625 0.953125 
Q 20.953125 3.328125 18.109375 8.203125 
M 48.6875 27.296875 
Q 48.6875 37.203125 44.609375 42.84375 
Q 40.53125 48.484375 33.40625 48.484375 
Q 26.265625 48.484375 22.1875 42.84375 
Q 18.109375 37.203125 18.109375 27.296875 
Q 18.109375 17.390625 22.1875 11.75 
Q 26.265625 6.109375 33.40625 6.109375 
Q 40.53125 6.109375 44.609375 11.75 
Q 48.6875 17.390625 48.6875 27.296875 
" id="DejaVuSans-70"/>
      <path d="M 41.109375 46.296875 
Q 39.59375 47.171875 37.8125 47.578125 
Q 36.03125 48 33.890625 48 
Q 26.265625 48 22.1875 43.046875 
Q 18.109375 38.09375 18.109375 28.8125 
L 18.109375 0 
L 9.078125 0 
L 9.078125 54.6875 
L 18.109375 54.6875 
L 18.109375 46.1875 
Q 20.953125 51.171875 25.484375 53.578125 
Q 30.03125 56 36.53125 56 
Q 37.453125 56 38.578125 55.875 
Q 39.703125 55.765625 41.0625 55.515625 
z
" id="DejaVuSans-72"/>
      <path d="M 18.3125 70.21875 
L 18.3125 54.6875 
L 36.8125 54.6875 
L 36.8125 47.703125 
L 18.3125 47.703125 
L 18.3125 18.015625 
Q 18.3125 11.328125 20.140625 9.421875 
Q 21.96875 7.515625 27.59375 7.515625 
L 36.8125 7.515625 
L 36.8125 0 
L 27.59375 0 
Q 17.1875 0 13.234375 3.875 
Q 9.28125 7.765625 9.28125 18.015625 
L 9.28125 47.703125 
L 2.6875 47.703125 
L 2.6875 54.6875 
L 9.28125 54.6875 
L 9.28125 70.21875 
z
" id="DejaVuSans-74"/>
      <path d="M 9.421875 54.6875 
L 18.40625 54.6875 
L 18.40625 0 
L 9.421875 0 
z
M 9.421875 75.984375 
L 18.40625 75.984375 
L 18.40625 64.59375 
L 9.421875 64.59375 
z
" id="DejaVuSans-69"/>
      <path d="M 54.890625 33.015625 
L 54.890625 0 
L 45.90625 0 
L 45.90625 32.71875 
Q 45.90625 40.484375 42.875 44.328125 
Q 39.84375 48.1875 33.796875 48.1875 
Q 26.515625 48.1875 22.3125 43.546875 
Q 18.109375 38.921875 18.109375 30.90625 
L 18.109375 0 
L 9.078125 0 
L 9.078125 54.6875 
L 18.109375 54.6875 
L 18.109375 46.1875 
Q 21.34375 51.125 25.703125 53.5625 
Q 30.078125 56 35.796875 56 
Q 45.21875 56 50.046875 50.171875 
Q 54.890625 44.34375 54.890625 33.015625 
" id="DejaVuSans-6e"/>
     </defs>
     <g transform="translate(22.396875 238.44779)rotate(-90)scale(0.2 -0.2)">
      <use xlink:href="#DejaVuSans-70"/>
      <use x="63.476562" xlink:href="#DejaVuSans-72"/>
      <use x="104.558594" xlink:href="#DejaVuSans-6f"/>
      <use x="165.740234" xlink:href="#DejaVuSans-70"/>
      <use x="229.216797" xlink:href="#DejaVuSans-6f"/>
      <use x="290.398438" xlink:href="#DejaVuSans-72"/>
      <use x="331.511719" xlink:href="#DejaVuSans-74"/>
      <use x="370.720703" xlink:href="#DejaVuSans-69"/>
      <use x="398.503906" xlink:href="#DejaVuSans-6f"/>
      <use x="459.685547" xlink:href="#DejaVuSans-6e"/>
      <use x="523.064453" xlink:href="#DejaVuSans-20"/>
      <use x="554.851562" xlink:href="#DejaVuSans-6f"/>
      <use x="616.033203" xlink:href="#DejaVuSans-66"/>
      <use x="651.238281" xlink:href="#DejaVuSans-20"/>
      <use x="683.025391" xlink:href="#DejaVuSans-74"/>
      <use x="722.234375" xlink:href="#DejaVuSans-72"/>
      <use x="763.347656" xlink:href="#DejaVuSans-69"/>
      <use x="791.130859" xlink:href="#DejaVuSans-61"/>
      <use x="852.410156" xlink:href="#DejaVuSans-6c"/>
      <use x="880.193359" xlink:href="#DejaVuSans-73"/>
     </g>
    </g>
   </g>
   <g id="line2d_81">
    <path clip-path="url(#p598eca0dfe)" d="M 11.102628 278.275665 
L 11.102628 274.762636 
L 11.102628 274.762636 
L 11.102628 271.249606 
L 11.102628 271.249606 
L 11.102628 267.736576 
L 69.3625 267.736576 
L 69.3625 264.223546 
L 160.500327 264.223546 
L 160.500327 260.710517 
L 241.933089 260.710517 
L 241.933089 257.197487 
L 408.764819 257.197487 
L 408.764819 253.684457 
L 408.764819 253.684457 
L 408.764819 253.684457 
L 426.4825 253.684457 
" style="fill:none;stroke:#000000;stroke-linecap:square;stroke-width:1.5;"/>
   </g>
   <g id="line2d_82"/>
   <g id="line2d_83"/>
   <g id="line2d_84"/>
   <g id="line2d_85"/>
   <g id="line2d_86">
    <path clip-path="url(#p598eca0dfe)" d="M 426.4825 278.275665 
L 426.4825 12.163665 
" style="fill:none;stroke:#000000;stroke-linecap:square;stroke-width:1.5;"/>
   </g>
   <g id="patch_3">
    <path d="M 69.3625 278.275665 
L 69.3625 12.163665 
" style="fill:none;stroke:#000000;stroke-linecap:square;stroke-linejoin:miter;stroke-width:0.8;"/>
   </g>
   <g id="patch_4">
    <path d="M 426.4825 278.275665 
L 426.4825 12.163665 
" style="fill:none;stroke:#000000;stroke-linecap:square;stroke-linejoin:miter;stroke-width:0.8;"/>
   </g>
   <g id="patch_5">
    <path d="M 69.3625 278.275665 
L 426.4825 278.275665 
" style="fill:none;stroke:#000000;stroke-linecap:square;stroke-linejoin:miter;stroke-width:0.8;"/>
   </g>
   <g id="patch_6">
    <path d="M 69.3625 12.163665 
L 426.4825 12.163665 
" style="fill:none;stroke:#000000;stroke-linecap:square;stroke-linejoin:miter;stroke-width:0.8;"/>
   </g>
   <g id="text_12">
    <!-- {f10-f14}, 5-D -->
    <defs>
     <path d="M 51.125 -9.28125 
L 51.125 -16.3125 
L 48.09375 -16.3125 
Q 35.9375 -16.3125 31.8125 -12.6875 
Q 27.6875 -9.078125 27.6875 1.703125 
L 27.6875 13.375 
Q 27.6875 20.75 25.046875 23.578125 
Q 22.40625 26.421875 15.484375 26.421875 
L 12.5 26.421875 
L 12.5 33.40625 
L 15.484375 33.40625 
Q 22.46875 33.40625 25.078125 36.203125 
Q 27.6875 39.015625 27.6875 46.296875 
L 27.6875 58.015625 
Q 27.6875 68.796875 31.8125 72.390625 
Q 35.9375 75.984375 48.09375 75.984375 
L 51.125 75.984375 
L 51.125 69 
L 47.796875 69 
Q 40.921875 69 38.8125 66.84375 
Q 36.71875 64.703125 36.71875 57.8125 
L 36.71875 45.703125 
Q 36.71875 38.03125 34.5 34.5625 
Q 32.28125 31.109375 26.90625 29.890625 
Q 32.328125 28.5625 34.515625 25.09375 
Q 36.71875 21.625 36.71875 14.015625 
L 36.71875 1.90625 
Q 36.71875 -4.984375 38.8125 -7.125 
Q 40.921875 -9.28125 47.796875 -9.28125 
z
" id="DejaVuSans-7b"/>
     <path d="M 4.890625 31.390625 
L 31.203125 31.390625 
L 31.203125 23.390625 
L 4.890625 23.390625 
z
" id="DejaVuSans-2d"/>
     <path d="M 12.5 -9.28125 
L 15.921875 -9.28125 
Q 22.75 -9.28125 24.828125 -7.171875 
Q 26.90625 -5.078125 26.90625 1.90625 
L 26.90625 14.015625 
Q 26.90625 21.625 29.09375 25.09375 
Q 31.296875 28.5625 36.71875 29.890625 
Q 31.296875 31.109375 29.09375 34.5625 
Q 26.90625 38.03125 26.90625 45.703125 
L 26.90625 57.8125 
Q 26.90625 64.75 24.828125 66.875 
Q 22.75 69 15.921875 69 
L 12.5 69 
L 12.5 75.984375 
L 15.578125 75.984375 
Q 27.734375 75.984375 31.8125 72.390625 
Q 35.890625 68.796875 35.890625 58.015625 
L 35.890625 46.296875 
Q 35.890625 39.015625 38.515625 36.203125 
Q 41.15625 33.40625 48.09375 33.40625 
L 51.125 33.40625 
L 51.125 26.421875 
L 48.09375 26.421875 
Q 41.15625 26.421875 38.515625 23.578125 
Q 35.890625 20.75 35.890625 13.375 
L 35.890625 1.703125 
Q 35.890625 -9.078125 31.8125 -12.6875 
Q 27.734375 -16.3125 15.578125 -16.3125 
L 12.5 -16.3125 
z
" id="DejaVuSans-7d"/>
     <path d="M 11.71875 12.40625 
L 22.015625 12.40625 
L 22.015625 4 
L 14.015625 -11.625 
L 7.71875 -11.625 
L 11.71875 4 
z
" id="DejaVuSans-2c"/>
     <path d="M 10.796875 72.90625 
L 49.515625 72.90625 
L 49.515625 64.59375 
L 19.828125 64.59375 
L 19.828125 46.734375 
Q 21.96875 47.46875 24.109375 47.828125 
Q 26.265625 48.1875 28.421875 48.1875 
Q 40.625 48.1875 47.75 41.5 
Q 54.890625 34.8125 54.890625 23.390625 
Q 54.890625 11.625 47.5625 5.09375 
Q 40.234375 -1.421875 26.90625 -1.421875 
Q 22.3125 -1.421875 17.546875 -0.640625 
Q 12.796875 0.140625 7.71875 1.703125 
L 7.71875 11.625 
Q 12.109375 9.234375 16.796875 8.0625 
Q 21.484375 6.890625 26.703125 6.890625 
Q 35.15625 6.890625 40.078125 11.328125 
Q 45.015625 15.765625 45.015625 23.390625 
Q 45.015625 31 40.078125 35.4375 
Q 35.15625 39.890625 26.703125 39.890625 
Q 22.75 39.890625 18.8125 39.015625 
Q 14.890625 38.140625 10.796875 36.28125 
z
" id="DejaVuSans-35"/>
    </defs>
    <g transform="translate(175.0725 32.68278)scale(0.2 -0.2)">
     <use xlink:href="#DejaVuSans-7b"/>
     <use x="63.623047" xlink:href="#DejaVuSans-66"/>
     <use x="98.828125" xlink:href="#DejaVuSans-31"/>
     <use x="162.451172" xlink:href="#DejaVuSans-30"/>
     <use x="226.074219" xlink:href="#DejaVuSans-2d"/>
     <use x="262.158203" xlink:href="#DejaVuSans-66"/>
     <use x="297.363281" xlink:href="#DejaVuSans-31"/>
     <use x="360.986328" xlink:href="#DejaVuSans-34"/>
     <use x="424.609375" xlink:href="#DejaVuSans-7d"/>
     <use x="488.232422" xlink:href="#DejaVuSans-2c"/>
     <use x="520.019531" xlink:href="#DejaVuSans-20"/>
     <use x="551.806641" xlink:href="#DejaVuSans-35"/>
     <use x="615.429688" xlink:href="#DejaVuSans-2d"/>
     <use x="651.513672" xlink:href="#DejaVuSans-44"/>
    </g>
   </g>
   <g id="text_13">
    <!-- absolute targets -->
    <defs>
     <path d="M 48.6875 27.296875 
Q 48.6875 37.203125 44.609375 42.84375 
Q 40.53125 48.484375 33.40625 48.484375 
Q 26.265625 48.484375 22.1875 42.84375 
Q 18.109375 37.203125 18.109375 27.296875 
Q 18.109375 17.390625 22.1875 11.75 
Q 26.265625 6.109375 33.40625 6.109375 
Q 40.53125 6.109375 44.609375 11.75 
Q 48.6875 17.390625 48.6875 27.296875 
M 18.109375 46.390625 
Q 20.953125 51.265625 25.265625 53.625 
Q 29.59375 56 35.59375 56 
Q 45.5625 56 51.78125 48.09375 
Q 58.015625 40.1875 58.015625 27.296875 
Q 58.015625 14.40625 51.78125 6.484375 
Q 45.5625 -1.421875 35.59375 -1.421875 
Q 29.59375 -1.421875 25.265625 0.953125 
Q 20.953125 3.328125 18.109375 8.203125 
L 18.109375 0 
L 9.078125 0 
L 9.078125 75.984375 
L 18.109375 75.984375 
z
" id="DejaVuSans-62"/>
     <path d="M 8.5 21.578125 
L 8.5 54.6875 
L 17.484375 54.6875 
L 17.484375 21.921875 
Q 17.484375 14.15625 20.5 10.265625 
Q 23.53125 6.390625 29.59375 6.390625 
Q 36.859375 6.390625 41.078125 11.03125 
Q 45.3125 15.671875 45.3125 23.6875 
L 45.3125 54.6875 
L 54.296875 54.6875 
L 54.296875 0 
L 45.3125 0 
L 45.3125 8.40625 
Q 42.046875 3.421875 37.71875 1 
Q 33.40625 -1.421875 27.6875 -1.421875 
Q 18.265625 -1.421875 13.375 4.4375 
Q 8.5 10.296875 8.5 21.578125 
M 31.109375 56 
z
" id="DejaVuSans-75"/>
     <path d="M 56.203125 29.59375 
L 56.203125 25.203125 
L 14.890625 25.203125 
Q 15.484375 15.921875 20.484375 11.0625 
Q 25.484375 6.203125 34.421875 6.203125 
Q 39.59375 6.203125 44.453125 7.46875 
Q 49.3125 8.734375 54.109375 11.28125 
L 54.109375 2.78125 
Q 49.265625 0.734375 44.1875 -0.34375 
Q 39.109375 -1.421875 33.890625 -1.421875 
Q 20.796875 -1.421875 13.15625 6.1875 
Q 5.515625 13.8125 5.515625 26.8125 
Q 5.515625 40.234375 12.765625 48.109375 
Q 20.015625 56 32.328125 56 
Q 43.359375 56 49.78125 48.890625 
Q 56.203125 41.796875 56.203125 29.59375 
M 47.21875 32.234375 
Q 47.125 39.59375 43.09375 43.984375 
Q 39.0625 48.390625 32.421875 48.390625 
Q 24.90625 48.390625 20.390625 44.140625 
Q 15.875 39.890625 15.1875 32.171875 
z
" id="DejaVuSans-65"/>
    </defs>
    <g transform="translate(69.3625 291.449527)scale(0.14 -0.14)">
     <use xlink:href="#DejaVuSans-61"/>
     <use x="61.279297" xlink:href="#DejaVuSans-62"/>
     <use x="124.755859" xlink:href="#DejaVuSans-73"/>
     <use x="176.855469" xlink:href="#DejaVuSans-6f"/>
     <use x="238.037109" xlink:href="#DejaVuSans-6c"/>
     <use x="265.820312" xlink:href="#DejaVuSans-75"/>
     <use x="329.199219" xlink:href="#DejaVuSans-74"/>
     <use x="368.408203" xlink:href="#DejaVuSans-65"/>
     <use x="429.931641" xlink:href="#DejaVuSans-20"/>
     <use x="461.71875" xlink:href="#DejaVuSans-74"/>
     <use x="500.927734" xlink:href="#DejaVuSans-61"/>
     <use x="562.207031" xlink:href="#DejaVuSans-72"/>
     <use x="603.304688" xlink:href="#DejaVuSans-67"/>
     <use x="666.78125" xlink:href="#DejaVuSans-65"/>
     <use x="728.304688" xlink:href="#DejaVuSans-74"/>
     <use x="767.513672" xlink:href="#DejaVuSans-73"/>
    </g>
   </g>
   <g id="text_14">
    <!-- v2.1 -->
    <g style="fill:#808080;" transform="translate(237.011563 273.534858)scale(0.1 -0.1)">
     <use xlink:href="#DejaVuSans-76"/>
     <use x="59.179688" xlink:href="#DejaVuSans-32"/>
     <use x="122.802734" xlink:href="#DejaVuSans-2e"/>
     <use x="154.589844" xlink:href="#DejaVuSans-31"/>
    </g>
   </g>
   <g id="legend_1">
    <g id="patch_7">
     <path d="M 83.3625 145.588665 
L 212.584375 145.588665 
Q 216.584375 145.588665 216.584375 141.588665 
L 216.584375 26.163665 
Q 216.584375 22.163665 212.584375 22.163665 
L 83.3625 22.163665 
Q 79.3625 22.163665 79.3625 26.163665 
L 79.3625 141.588665 
Q 79.3625 145.588665 83.3625 145.588665 
z
" style="fill:#ffffff;opacity:0.2;stroke:#cccccc;stroke-linejoin:miter;"/>
    </g>
    <g id="line2d_87">
     <path d="M 87.3625 38.36054 
L 127.3625 38.36054 
" style="fill:none;stroke:#000000;stroke-linecap:square;stroke-width:1.5;"/>
    </g>
    <g id="line2d_88"/>
    <g id="text_15">
     <!-- 1: 2/5 -->
     <defs>
      <path d="M 11.71875 12.40625 
L 22.015625 12.40625 
L 22.015625 0 
L 11.71875 0 
z
M 11.71875 51.703125 
L 22.015625 51.703125 
L 22.015625 39.3125 
L 11.71875 39.3125 
z
" id="DejaVuSans-3a"/>
     </defs>
     <g transform="translate(143.3625 45.36054)scale(0.2 -0.2)">
      <use xlink:href="#DejaVuSans-31"/>
      <use x="63.623047" xlink:href="#DejaVuSans-3a"/>
      <use x="97.314453" xlink:href="#DejaVuSans-20"/>
      <use x="129.101562" xlink:href="#DejaVuSans-32"/>
      <use x="192.724609" xlink:href="#DejaVuSans-2f"/>
      <use x="226.416016" xlink:href="#DejaVuSans-35"/>
     </g>
    </g>
    <g id="line2d_89">
     <path d="M 87.3625 67.71679 
L 127.3625 67.71679 
" style="fill:none;stroke:#00bfbf;stroke-linecap:square;stroke-width:1.5;"/>
    </g>
    <g id="line2d_90"/>
    <g id="text_16">
     <!-- -1: 0/5 -->
     <g transform="translate(143.3625 74.71679)scale(0.2 -0.2)">
      <use xlink:href="#DejaVuSans-2d"/>
      <use x="36.083984" xlink:href="#DejaVuSans-31"/>
      <use x="99.707031" xlink:href="#DejaVuSans-3a"/>
      <use x="133.398438" xlink:href="#DejaVuSans-20"/>
      <use x="165.185547" xlink:href="#DejaVuSans-30"/>
      <use x="228.808594" xlink:href="#DejaVuSans-2f"/>
      <use x="262.5" xlink:href="#DejaVuSans-35"/>
     </g>
    </g>
    <g id="line2d_91">
     <path d="M 87.3625 97.07304 
L 127.3625 97.07304 
" style="fill:none;stroke:#bf00bf;stroke-linecap:square;stroke-width:1.5;"/>
    </g>
    <g id="line2d_92"/>
    <g id="text_17">
     <!-- -4: 0/5 -->
     <g transform="translate(143.3625 104.07304)scale(0.2 -0.2)">
      <use xlink:href="#DejaVuSans-2d"/>
      <use x="36.083984" xlink:href="#DejaVuSans-34"/>
      <use x="99.707031" xlink:href="#DejaVuSans-3a"/>
      <use x="133.398438" xlink:href="#DejaVuSans-20"/>
      <use x="165.185547" xlink:href="#DejaVuSans-30"/>
      <use x="228.808594" xlink:href="#DejaVuSans-2f"/>
      <use x="262.5" xlink:href="#DejaVuSans-35"/>
     </g>
    </g>
    <g id="line2d_93">
     <path d="M 87.3625 126.42929 
L 127.3625 126.42929 
" style="fill:none;stroke:#ff0000;stroke-linecap:square;stroke-width:3;"/>
    </g>
    <g id="line2d_94"/>
    <g id="text_18">
     <!-- -8: 0/5 -->
     <g transform="translate(143.3625 133.42929)scale(0.2 -0.2)">
      <use xlink:href="#DejaVuSans-2d"/>
      <use x="36.083984" xlink:href="#DejaVuSans-38"/>
      <use x="99.707031" xlink:href="#DejaVuSans-3a"/>
      <use x="133.398438" xlink:href="#DejaVuSans-20"/>
      <use x="165.185547" xlink:href="#DejaVuSans-30"/>
      <use x="228.808594" xlink:href="#DejaVuSans-2f"/>
      <use x="262.5" xlink:href="#DejaVuSans-35"/>
     </g>
    </g>
   </g>
  </g>
 </g>
 <defs>
  <clipPath id="p598eca0dfe">
   <rect height="266.112" width="357.12" x="69.3625" y="12.163665"/>
  </clipPath>
 </defs>
</svg>
