<?xml version="1.0" encoding="utf-8" standalone="no"?>
<!DOCTYPE svg PUBLIC "-//W3C//DTD SVG 1.1//EN"
  "http://www.w3.org/Graphics/SVG/1.1/DTD/svg11.dtd">
<!-- Created with matplotlib (http://matplotlib.org/) -->
<svg height="353pt" version="1.1" viewBox="0 0 438 353" width="438pt" xmlns="http://www.w3.org/2000/svg" xmlns:xlink="http://www.w3.org/1999/xlink">
 <defs>
  <style type="text/css">
*{stroke-linecap:butt;stroke-linejoin:round;}
  </style>
 </defs>
 <g id="figure_1">
  <g id="patch_1">
   <path d="M 0 353.22225 
L 438.62 353.22225 
L 438.62 0 
L 0 0 
z
" style="fill:#ffffff;"/>
  </g>
  <g id="axes_1">
   <g id="patch_2">
    <path d="M 70.8 298.245375 
L 427.92 298.245375 
L 427.92 32.133375 
L 70.8 32.133375 
z
" style="fill:#ffffff;"/>
   </g>
   <g id="matplotlib.axis_1">
    <g id="xtick_1">
     <g id="line2d_1">
      <path clip-path="url(#pcadac93bce)" d="M 70.8 298.245375 
L 70.8 32.133375 
" style="fill:none;stroke:#b0b0b0;stroke-linecap:square;stroke-width:0.8;"/>
     </g>
     <g id="line2d_2">
      <defs>
       <path d="M 0 0 
L 0 3.5 
" id="md370e649b4" style="stroke:#000000;stroke-width:0.8;"/>
      </defs>
      <g>
       <use style="stroke:#000000;stroke-width:0.8;" x="70.8" xlink:href="#md370e649b4" y="298.245375"/>
      </g>
     </g>
     <g id="text_1">
      <!-- 0 -->
      <defs>
       <path d="M 31.78125 66.40625 
Q 24.171875 66.40625 20.328125 58.90625 
Q 16.5 51.421875 16.5 36.375 
Q 16.5 21.390625 20.328125 13.890625 
Q 24.171875 6.390625 31.78125 6.390625 
Q 39.453125 6.390625 43.28125 13.890625 
Q 47.125 21.390625 47.125 36.375 
Q 47.125 51.421875 43.28125 58.90625 
Q 39.453125 66.40625 31.78125 66.40625 
M 31.78125 74.21875 
Q 44.046875 74.21875 50.515625 64.515625 
Q 56.984375 54.828125 56.984375 36.375 
Q 56.984375 17.96875 50.515625 8.265625 
Q 44.046875 -1.421875 31.78125 -1.421875 
Q 19.53125 -1.421875 13.0625 8.265625 
Q 6.59375 17.96875 6.59375 36.375 
Q 6.59375 54.828125 13.0625 64.515625 
Q 19.53125 74.21875 31.78125 74.21875 
" id="DejaVuSans-30"/>
      </defs>
      <g transform="translate(64.4375 320.44225)scale(0.2 -0.2)">
       <use xlink:href="#DejaVuSans-30"/>
      </g>
     </g>
    </g>
    <g id="xtick_2">
     <g id="line2d_3">
      <path clip-path="url(#pcadac93bce)" d="M 153.085714 298.245375 
L 153.085714 32.133375 
" style="fill:none;stroke:#b0b0b0;stroke-linecap:square;stroke-width:0.8;"/>
     </g>
     <g id="line2d_4">
      <g>
       <use style="stroke:#000000;stroke-width:0.8;" x="153.085714" xlink:href="#md370e649b4" y="298.245375"/>
      </g>
     </g>
     <g id="text_2">
      <!-- 2 -->
      <defs>
       <path d="M 19.1875 8.296875 
L 53.609375 8.296875 
L 53.609375 0 
L 7.328125 0 
L 7.328125 8.296875 
Q 12.9375 14.109375 22.625 23.890625 
Q 32.328125 33.6875 34.8125 36.53125 
Q 39.546875 41.84375 41.421875 45.53125 
Q 43.3125 49.21875 43.3125 52.78125 
Q 43.3125 58.59375 39.234375 62.25 
Q 35.15625 65.921875 28.609375 65.921875 
Q 23.96875 65.921875 18.8125 64.3125 
Q 13.671875 62.703125 7.8125 59.421875 
L 7.8125 69.390625 
Q 13.765625 71.78125 18.9375 73 
Q 24.125 74.21875 28.421875 74.21875 
Q 39.75 74.21875 46.484375 68.546875 
Q 53.21875 62.890625 53.21875 53.421875 
Q 53.21875 48.921875 51.53125 44.890625 
Q 49.859375 40.875 45.40625 35.40625 
Q 44.1875 33.984375 37.640625 27.21875 
Q 31.109375 20.453125 19.1875 8.296875 
" id="DejaVuSans-32"/>
      </defs>
      <g transform="translate(146.723214 320.44225)scale(0.2 -0.2)">
       <use xlink:href="#DejaVuSans-32"/>
      </g>
     </g>
    </g>
    <g id="xtick_3">
     <g id="line2d_5">
      <path clip-path="url(#pcadac93bce)" d="M 235.371429 298.245375 
L 235.371429 32.133375 
" style="fill:none;stroke:#b0b0b0;stroke-linecap:square;stroke-width:0.8;"/>
     </g>
     <g id="line2d_6">
      <g>
       <use style="stroke:#000000;stroke-width:0.8;" x="235.371429" xlink:href="#md370e649b4" y="298.245375"/>
      </g>
     </g>
     <g id="text_3">
      <!-- 4 -->
      <defs>
       <path d="M 37.796875 64.3125 
L 12.890625 25.390625 
L 37.796875 25.390625 
z
M 35.203125 72.90625 
L 47.609375 72.90625 
L 47.609375 25.390625 
L 58.015625 25.390625 
L 58.015625 17.1875 
L 47.609375 17.1875 
L 47.609375 0 
L 37.796875 0 
L 37.796875 17.1875 
L 4.890625 17.1875 
L 4.890625 26.703125 
z
" id="DejaVuSans-34"/>
      </defs>
      <g transform="translate(229.008929 320.44225)scale(0.2 -0.2)">
       <use xlink:href="#DejaVuSans-34"/>
      </g>
     </g>
    </g>
    <g id="xtick_4">
     <g id="line2d_7">
      <path clip-path="url(#pcadac93bce)" d="M 317.657143 298.245375 
L 317.657143 32.133375 
" style="fill:none;stroke:#b0b0b0;stroke-linecap:square;stroke-width:0.8;"/>
     </g>
     <g id="line2d_8">
      <g>
       <use style="stroke:#000000;stroke-width:0.8;" x="317.657143" xlink:href="#md370e649b4" y="298.245375"/>
      </g>
     </g>
     <g id="text_4">
      <!-- 6 -->
      <defs>
       <path d="M 33.015625 40.375 
Q 26.375 40.375 22.484375 35.828125 
Q 18.609375 31.296875 18.609375 23.390625 
Q 18.609375 15.53125 22.484375 10.953125 
Q 26.375 6.390625 33.015625 6.390625 
Q 39.65625 6.390625 43.53125 10.953125 
Q 47.40625 15.53125 47.40625 23.390625 
Q 47.40625 31.296875 43.53125 35.828125 
Q 39.65625 40.375 33.015625 40.375 
M 52.59375 71.296875 
L 52.59375 62.3125 
Q 48.875 64.0625 45.09375 64.984375 
Q 41.3125 65.921875 37.59375 65.921875 
Q 27.828125 65.921875 22.671875 59.328125 
Q 17.53125 52.734375 16.796875 39.40625 
Q 19.671875 43.65625 24.015625 45.921875 
Q 28.375 48.1875 33.59375 48.1875 
Q 44.578125 48.1875 50.953125 41.515625 
Q 57.328125 34.859375 57.328125 23.390625 
Q 57.328125 12.15625 50.6875 5.359375 
Q 44.046875 -1.421875 33.015625 -1.421875 
Q 20.359375 -1.421875 13.671875 8.265625 
Q 6.984375 17.96875 6.984375 36.375 
Q 6.984375 53.65625 15.1875 63.9375 
Q 23.390625 74.21875 37.203125 74.21875 
Q 40.921875 74.21875 44.703125 73.484375 
Q 48.484375 72.75 52.59375 71.296875 
" id="DejaVuSans-36"/>
      </defs>
      <g transform="translate(311.294643 320.44225)scale(0.2 -0.2)">
       <use xlink:href="#DejaVuSans-36"/>
      </g>
     </g>
    </g>
    <g id="xtick_5">
     <g id="line2d_9">
      <path clip-path="url(#pcadac93bce)" d="M 399.942857 298.245375 
L 399.942857 32.133375 
" style="fill:none;stroke:#b0b0b0;stroke-linecap:square;stroke-width:0.8;"/>
     </g>
     <g id="line2d_10">
      <g>
       <use style="stroke:#000000;stroke-width:0.8;" x="399.942857" xlink:href="#md370e649b4" y="298.245375"/>
      </g>
     </g>
     <g id="text_5">
      <!-- 8 -->
      <defs>
       <path d="M 31.78125 34.625 
Q 24.75 34.625 20.71875 30.859375 
Q 16.703125 27.09375 16.703125 20.515625 
Q 16.703125 13.921875 20.71875 10.15625 
Q 24.75 6.390625 31.78125 6.390625 
Q 38.8125 6.390625 42.859375 10.171875 
Q 46.921875 13.96875 46.921875 20.515625 
Q 46.921875 27.09375 42.890625 30.859375 
Q 38.875 34.625 31.78125 34.625 
M 21.921875 38.8125 
Q 15.578125 40.375 12.03125 44.71875 
Q 8.5 49.078125 8.5 55.328125 
Q 8.5 64.0625 14.71875 69.140625 
Q 20.953125 74.21875 31.78125 74.21875 
Q 42.671875 74.21875 48.875 69.140625 
Q 55.078125 64.0625 55.078125 55.328125 
Q 55.078125 49.078125 51.53125 44.71875 
Q 48 40.375 41.703125 38.8125 
Q 48.828125 37.15625 52.796875 32.3125 
Q 56.78125 27.484375 56.78125 20.515625 
Q 56.78125 9.90625 50.3125 4.234375 
Q 43.84375 -1.421875 31.78125 -1.421875 
Q 19.734375 -1.421875 13.25 4.234375 
Q 6.78125 9.90625 6.78125 20.515625 
Q 6.78125 27.484375 10.78125 32.3125 
Q 14.796875 37.15625 21.921875 38.8125 
M 18.3125 54.390625 
Q 18.3125 48.734375 21.84375 45.5625 
Q 25.390625 42.390625 31.78125 42.390625 
Q 38.140625 42.390625 41.71875 45.5625 
Q 45.3125 48.734375 45.3125 54.390625 
Q 45.3125 60.0625 41.71875 63.234375 
Q 38.140625 66.40625 31.78125 66.40625 
Q 25.390625 66.40625 21.84375 63.234375 
Q 18.3125 60.0625 18.3125 54.390625 
" id="DejaVuSans-38"/>
      </defs>
      <g transform="translate(393.580357 320.44225)scale(0.2 -0.2)">
       <use xlink:href="#DejaVuSans-38"/>
      </g>
     </g>
    </g>
    <g id="xtick_6">
     <g id="line2d_11">
      <defs>
       <path d="M 0 0 
L 0 2 
" id="m3633b6c2f5" style="stroke:#000000;stroke-width:0.6;"/>
      </defs>
      <g>
       <use style="stroke:#000000;stroke-width:0.6;" x="83.185234" xlink:href="#m3633b6c2f5" y="298.245375"/>
      </g>
     </g>
    </g>
    <g id="xtick_7">
     <g id="line2d_12">
      <g>
       <use style="stroke:#000000;stroke-width:0.6;" x="95.570468" xlink:href="#m3633b6c2f5" y="298.245375"/>
      </g>
     </g>
    </g>
    <g id="xtick_8">
     <g id="line2d_13">
      <g>
       <use style="stroke:#000000;stroke-width:0.6;" x="102.815366" xlink:href="#m3633b6c2f5" y="298.245375"/>
      </g>
     </g>
    </g>
    <g id="xtick_9">
     <g id="line2d_14">
      <g>
       <use style="stroke:#000000;stroke-width:0.6;" x="107.955702" xlink:href="#m3633b6c2f5" y="298.245375"/>
      </g>
     </g>
    </g>
    <g id="xtick_10">
     <g id="line2d_15">
      <g>
       <use style="stroke:#000000;stroke-width:0.6;" x="165.470948" xlink:href="#m3633b6c2f5" y="298.245375"/>
      </g>
     </g>
    </g>
    <g id="xtick_11">
     <g id="line2d_16">
      <g>
       <use style="stroke:#000000;stroke-width:0.6;" x="177.856183" xlink:href="#m3633b6c2f5" y="298.245375"/>
      </g>
     </g>
    </g>
    <g id="xtick_12">
     <g id="line2d_17">
      <g>
       <use style="stroke:#000000;stroke-width:0.6;" x="185.10108" xlink:href="#m3633b6c2f5" y="298.245375"/>
      </g>
     </g>
    </g>
    <g id="xtick_13">
     <g id="line2d_18">
      <g>
       <use style="stroke:#000000;stroke-width:0.6;" x="190.241417" xlink:href="#m3633b6c2f5" y="298.245375"/>
      </g>
     </g>
    </g>
    <g id="xtick_14">
     <g id="line2d_19">
      <g>
       <use style="stroke:#000000;stroke-width:0.6;" x="247.756663" xlink:href="#m3633b6c2f5" y="298.245375"/>
      </g>
     </g>
    </g>
    <g id="xtick_15">
     <g id="line2d_20">
      <g>
       <use style="stroke:#000000;stroke-width:0.6;" x="260.141897" xlink:href="#m3633b6c2f5" y="298.245375"/>
      </g>
     </g>
    </g>
    <g id="xtick_16">
     <g id="line2d_21">
      <g>
       <use style="stroke:#000000;stroke-width:0.6;" x="267.386794" xlink:href="#m3633b6c2f5" y="298.245375"/>
      </g>
     </g>
    </g>
    <g id="xtick_17">
     <g id="line2d_22">
      <g>
       <use style="stroke:#000000;stroke-width:0.6;" x="272.527131" xlink:href="#m3633b6c2f5" y="298.245375"/>
      </g>
     </g>
    </g>
    <g id="xtick_18">
     <g id="line2d_23">
      <g>
       <use style="stroke:#000000;stroke-width:0.6;" x="330.042377" xlink:href="#m3633b6c2f5" y="298.245375"/>
      </g>
     </g>
    </g>
    <g id="xtick_19">
     <g id="line2d_24">
      <g>
       <use style="stroke:#000000;stroke-width:0.6;" x="342.427611" xlink:href="#m3633b6c2f5" y="298.245375"/>
      </g>
     </g>
    </g>
    <g id="xtick_20">
     <g id="line2d_25">
      <g>
       <use style="stroke:#000000;stroke-width:0.6;" x="349.672509" xlink:href="#m3633b6c2f5" y="298.245375"/>
      </g>
     </g>
    </g>
    <g id="xtick_21">
     <g id="line2d_26">
      <g>
       <use style="stroke:#000000;stroke-width:0.6;" x="354.812845" xlink:href="#m3633b6c2f5" y="298.245375"/>
      </g>
     </g>
    </g>
    <g id="xtick_22">
     <g id="line2d_27">
      <g>
       <use style="stroke:#000000;stroke-width:0.6;" x="412.328091" xlink:href="#m3633b6c2f5" y="298.245375"/>
      </g>
     </g>
    </g>
    <g id="xtick_23">
     <g id="line2d_28">
      <g>
       <use style="stroke:#000000;stroke-width:0.6;" x="424.713325" xlink:href="#m3633b6c2f5" y="298.245375"/>
      </g>
     </g>
    </g>
    <g id="text_6">
     <!-- log10 of (# f-evals / dimension) -->
     <defs>
      <path d="M 9.421875 75.984375 
L 18.40625 75.984375 
L 18.40625 0 
L 9.421875 0 
z
" id="DejaVuSans-6c"/>
      <path d="M 30.609375 48.390625 
Q 23.390625 48.390625 19.1875 42.75 
Q 14.984375 37.109375 14.984375 27.296875 
Q 14.984375 17.484375 19.15625 11.84375 
Q 23.34375 6.203125 30.609375 6.203125 
Q 37.796875 6.203125 41.984375 11.859375 
Q 46.1875 17.53125 46.1875 27.296875 
Q 46.1875 37.015625 41.984375 42.703125 
Q 37.796875 48.390625 30.609375 48.390625 
M 30.609375 56 
Q 42.328125 56 49.015625 48.375 
Q 55.71875 40.765625 55.71875 27.296875 
Q 55.71875 13.875 49.015625 6.21875 
Q 42.328125 -1.421875 30.609375 -1.421875 
Q 18.84375 -1.421875 12.171875 6.21875 
Q 5.515625 13.875 5.515625 27.296875 
Q 5.515625 40.765625 12.171875 48.375 
Q 18.84375 56 30.609375 56 
" id="DejaVuSans-6f"/>
      <path d="M 45.40625 27.984375 
Q 45.40625 37.75 41.375 43.109375 
Q 37.359375 48.484375 30.078125 48.484375 
Q 22.859375 48.484375 18.828125 43.109375 
Q 14.796875 37.75 14.796875 27.984375 
Q 14.796875 18.265625 18.828125 12.890625 
Q 22.859375 7.515625 30.078125 7.515625 
Q 37.359375 7.515625 41.375 12.890625 
Q 45.40625 18.265625 45.40625 27.984375 
M 54.390625 6.78125 
Q 54.390625 -7.171875 48.1875 -13.984375 
Q 42 -20.796875 29.203125 -20.796875 
Q 24.46875 -20.796875 20.265625 -20.09375 
Q 16.0625 -19.390625 12.109375 -17.921875 
L 12.109375 -9.1875 
Q 16.0625 -11.328125 19.921875 -12.34375 
Q 23.78125 -13.375 27.78125 -13.375 
Q 36.625 -13.375 41.015625 -8.765625 
Q 45.40625 -4.15625 45.40625 5.171875 
L 45.40625 9.625 
Q 42.625 4.78125 38.28125 2.390625 
Q 33.9375 0 27.875 0 
Q 17.828125 0 11.671875 7.65625 
Q 5.515625 15.328125 5.515625 27.984375 
Q 5.515625 40.671875 11.671875 48.328125 
Q 17.828125 56 27.875 56 
Q 33.9375 56 38.28125 53.609375 
Q 42.625 51.21875 45.40625 46.390625 
L 45.40625 54.6875 
L 54.390625 54.6875 
z
" id="DejaVuSans-67"/>
      <path d="M 12.40625 8.296875 
L 28.515625 8.296875 
L 28.515625 63.921875 
L 10.984375 60.40625 
L 10.984375 69.390625 
L 28.421875 72.90625 
L 38.28125 72.90625 
L 38.28125 8.296875 
L 54.390625 8.296875 
L 54.390625 0 
L 12.40625 0 
z
" id="DejaVuSans-31"/>
      <path id="DejaVuSans-20"/>
      <path d="M 37.109375 75.984375 
L 37.109375 68.5 
L 28.515625 68.5 
Q 23.6875 68.5 21.796875 66.546875 
Q 19.921875 64.59375 19.921875 59.515625 
L 19.921875 54.6875 
L 34.71875 54.6875 
L 34.71875 47.703125 
L 19.921875 47.703125 
L 19.921875 0 
L 10.890625 0 
L 10.890625 47.703125 
L 2.296875 47.703125 
L 2.296875 54.6875 
L 10.890625 54.6875 
L 10.890625 58.5 
Q 10.890625 67.625 15.140625 71.796875 
Q 19.390625 75.984375 28.609375 75.984375 
z
" id="DejaVuSans-66"/>
      <path d="M 31 75.875 
Q 24.46875 64.65625 21.28125 53.65625 
Q 18.109375 42.671875 18.109375 31.390625 
Q 18.109375 20.125 21.3125 9.0625 
Q 24.515625 -2 31 -13.1875 
L 23.1875 -13.1875 
Q 15.875 -1.703125 12.234375 9.375 
Q 8.59375 20.453125 8.59375 31.390625 
Q 8.59375 42.28125 12.203125 53.3125 
Q 15.828125 64.359375 23.1875 75.875 
z
" id="DejaVuSans-28"/>
      <path d="M 51.125 44 
L 36.921875 44 
L 32.8125 27.6875 
L 47.125 27.6875 
z
M 43.796875 71.78125 
L 38.71875 51.515625 
L 52.984375 51.515625 
L 58.109375 71.78125 
L 65.921875 71.78125 
L 60.890625 51.515625 
L 76.125 51.515625 
L 76.125 44 
L 58.984375 44 
L 54.984375 27.6875 
L 70.515625 27.6875 
L 70.515625 20.21875 
L 53.078125 20.21875 
L 48 0 
L 40.1875 0 
L 45.21875 20.21875 
L 30.90625 20.21875 
L 25.875 0 
L 18.015625 0 
L 23.09375 20.21875 
L 7.71875 20.21875 
L 7.71875 27.6875 
L 24.90625 27.6875 
L 29 44 
L 13.28125 44 
L 13.28125 51.515625 
L 30.90625 51.515625 
L 35.890625 71.78125 
z
" id="DejaVuSans-23"/>
      <path d="M 4.890625 31.390625 
L 31.203125 31.390625 
L 31.203125 23.390625 
L 4.890625 23.390625 
z
" id="DejaVuSans-2d"/>
      <path d="M 56.203125 29.59375 
L 56.203125 25.203125 
L 14.890625 25.203125 
Q 15.484375 15.921875 20.484375 11.0625 
Q 25.484375 6.203125 34.421875 6.203125 
Q 39.59375 6.203125 44.453125 7.46875 
Q 49.3125 8.734375 54.109375 11.28125 
L 54.109375 2.78125 
Q 49.265625 0.734375 44.1875 -0.34375 
Q 39.109375 -1.421875 33.890625 -1.421875 
Q 20.796875 -1.421875 13.15625 6.1875 
Q 5.515625 13.8125 5.515625 26.8125 
Q 5.515625 40.234375 12.765625 48.109375 
Q 20.015625 56 32.328125 56 
Q 43.359375 56 49.78125 48.890625 
Q 56.203125 41.796875 56.203125 29.59375 
M 47.21875 32.234375 
Q 47.125 39.59375 43.09375 43.984375 
Q 39.0625 48.390625 32.421875 48.390625 
Q 24.90625 48.390625 20.390625 44.140625 
Q 15.875 39.890625 15.1875 32.171875 
z
" id="DejaVuSans-65"/>
      <path d="M 2.984375 54.6875 
L 12.5 54.6875 
L 29.59375 8.796875 
L 46.6875 54.6875 
L 56.203125 54.6875 
L 35.6875 0 
L 23.484375 0 
z
" id="DejaVuSans-76"/>
      <path d="M 34.28125 27.484375 
Q 23.390625 27.484375 19.1875 25 
Q 14.984375 22.515625 14.984375 16.5 
Q 14.984375 11.71875 18.140625 8.90625 
Q 21.296875 6.109375 26.703125 6.109375 
Q 34.1875 6.109375 38.703125 11.40625 
Q 43.21875 16.703125 43.21875 25.484375 
L 43.21875 27.484375 
z
M 52.203125 31.203125 
L 52.203125 0 
L 43.21875 0 
L 43.21875 8.296875 
Q 40.140625 3.328125 35.546875 0.953125 
Q 30.953125 -1.421875 24.3125 -1.421875 
Q 15.921875 -1.421875 10.953125 3.296875 
Q 6 8.015625 6 15.921875 
Q 6 25.140625 12.171875 29.828125 
Q 18.359375 34.515625 30.609375 34.515625 
L 43.21875 34.515625 
L 43.21875 35.40625 
Q 43.21875 41.609375 39.140625 45 
Q 35.0625 48.390625 27.6875 48.390625 
Q 23 48.390625 18.546875 47.265625 
Q 14.109375 46.140625 10.015625 43.890625 
L 10.015625 52.203125 
Q 14.9375 54.109375 19.578125 55.046875 
Q 24.21875 56 28.609375 56 
Q 40.484375 56 46.34375 49.84375 
Q 52.203125 43.703125 52.203125 31.203125 
" id="DejaVuSans-61"/>
      <path d="M 44.28125 53.078125 
L 44.28125 44.578125 
Q 40.484375 46.53125 36.375 47.5 
Q 32.28125 48.484375 27.875 48.484375 
Q 21.1875 48.484375 17.84375 46.4375 
Q 14.5 44.390625 14.5 40.28125 
Q 14.5 37.15625 16.890625 35.375 
Q 19.28125 33.59375 26.515625 31.984375 
L 29.59375 31.296875 
Q 39.15625 29.25 43.1875 25.515625 
Q 47.21875 21.78125 47.21875 15.09375 
Q 47.21875 7.46875 41.1875 3.015625 
Q 35.15625 -1.421875 24.609375 -1.421875 
Q 20.21875 -1.421875 15.453125 -0.5625 
Q 10.6875 0.296875 5.421875 2 
L 5.421875 11.28125 
Q 10.40625 8.6875 15.234375 7.390625 
Q 20.0625 6.109375 24.8125 6.109375 
Q 31.15625 6.109375 34.5625 8.28125 
Q 37.984375 10.453125 37.984375 14.40625 
Q 37.984375 18.0625 35.515625 20.015625 
Q 33.0625 21.96875 24.703125 23.78125 
L 21.578125 24.515625 
Q 13.234375 26.265625 9.515625 29.90625 
Q 5.8125 33.546875 5.8125 39.890625 
Q 5.8125 47.609375 11.28125 51.796875 
Q 16.75 56 26.8125 56 
Q 31.78125 56 36.171875 55.265625 
Q 40.578125 54.546875 44.28125 53.078125 
" id="DejaVuSans-73"/>
      <path d="M 25.390625 72.90625 
L 33.6875 72.90625 
L 8.296875 -9.28125 
L 0 -9.28125 
z
" id="DejaVuSans-2f"/>
      <path d="M 45.40625 46.390625 
L 45.40625 75.984375 
L 54.390625 75.984375 
L 54.390625 0 
L 45.40625 0 
L 45.40625 8.203125 
Q 42.578125 3.328125 38.25 0.953125 
Q 33.9375 -1.421875 27.875 -1.421875 
Q 17.96875 -1.421875 11.734375 6.484375 
Q 5.515625 14.40625 5.515625 27.296875 
Q 5.515625 40.1875 11.734375 48.09375 
Q 17.96875 56 27.875 56 
Q 33.9375 56 38.25 53.625 
Q 42.578125 51.265625 45.40625 46.390625 
M 14.796875 27.296875 
Q 14.796875 17.390625 18.875 11.75 
Q 22.953125 6.109375 30.078125 6.109375 
Q 37.203125 6.109375 41.296875 11.75 
Q 45.40625 17.390625 45.40625 27.296875 
Q 45.40625 37.203125 41.296875 42.84375 
Q 37.203125 48.484375 30.078125 48.484375 
Q 22.953125 48.484375 18.875 42.84375 
Q 14.796875 37.203125 14.796875 27.296875 
" id="DejaVuSans-64"/>
      <path d="M 9.421875 54.6875 
L 18.40625 54.6875 
L 18.40625 0 
L 9.421875 0 
z
M 9.421875 75.984375 
L 18.40625 75.984375 
L 18.40625 64.59375 
L 9.421875 64.59375 
z
" id="DejaVuSans-69"/>
      <path d="M 52 44.1875 
Q 55.375 50.25 60.0625 53.125 
Q 64.75 56 71.09375 56 
Q 79.640625 56 84.28125 50.015625 
Q 88.921875 44.046875 88.921875 33.015625 
L 88.921875 0 
L 79.890625 0 
L 79.890625 32.71875 
Q 79.890625 40.578125 77.09375 44.375 
Q 74.3125 48.1875 68.609375 48.1875 
Q 61.625 48.1875 57.5625 43.546875 
Q 53.515625 38.921875 53.515625 30.90625 
L 53.515625 0 
L 44.484375 0 
L 44.484375 32.71875 
Q 44.484375 40.625 41.703125 44.40625 
Q 38.921875 48.1875 33.109375 48.1875 
Q 26.21875 48.1875 22.15625 43.53125 
Q 18.109375 38.875 18.109375 30.90625 
L 18.109375 0 
L 9.078125 0 
L 9.078125 54.6875 
L 18.109375 54.6875 
L 18.109375 46.1875 
Q 21.1875 51.21875 25.484375 53.609375 
Q 29.78125 56 35.6875 56 
Q 41.65625 56 45.828125 52.96875 
Q 50 49.953125 52 44.1875 
" id="DejaVuSans-6d"/>
      <path d="M 54.890625 33.015625 
L 54.890625 0 
L 45.90625 0 
L 45.90625 32.71875 
Q 45.90625 40.484375 42.875 44.328125 
Q 39.84375 48.1875 33.796875 48.1875 
Q 26.515625 48.1875 22.3125 43.546875 
Q 18.109375 38.921875 18.109375 30.90625 
L 18.109375 0 
L 9.078125 0 
L 9.078125 54.6875 
L 18.109375 54.6875 
L 18.109375 46.1875 
Q 21.34375 51.125 25.703125 53.5625 
Q 30.078125 56 35.796875 56 
Q 45.21875 56 50.046875 50.171875 
Q 54.890625 44.34375 54.890625 33.015625 
" id="DejaVuSans-6e"/>
      <path d="M 8.015625 75.875 
L 15.828125 75.875 
Q 23.140625 64.359375 26.78125 53.3125 
Q 30.421875 42.28125 30.421875 31.390625 
Q 30.421875 20.453125 26.78125 9.375 
Q 23.140625 -1.703125 15.828125 -13.1875 
L 8.015625 -13.1875 
Q 14.5 -2 17.703125 9.0625 
Q 20.90625 20.125 20.90625 31.390625 
Q 20.90625 42.671875 17.703125 53.65625 
Q 14.5 64.65625 8.015625 75.875 
" id="DejaVuSans-29"/>
     </defs>
     <g transform="translate(107.015156 342.278812)scale(0.18 -0.18)">
      <use xlink:href="#DejaVuSans-6c"/>
      <use x="27.783203" xlink:href="#DejaVuSans-6f"/>
      <use x="88.964844" xlink:href="#DejaVuSans-67"/>
      <use x="152.441406" xlink:href="#DejaVuSans-31"/>
      <use x="216.064453" xlink:href="#DejaVuSans-30"/>
      <use x="279.6875" xlink:href="#DejaVuSans-20"/>
      <use x="311.474609" xlink:href="#DejaVuSans-6f"/>
      <use x="372.65625" xlink:href="#DejaVuSans-66"/>
      <use x="407.861328" xlink:href="#DejaVuSans-20"/>
      <use x="439.648438" xlink:href="#DejaVuSans-28"/>
      <use x="478.662109" xlink:href="#DejaVuSans-23"/>
      <use x="562.451172" xlink:href="#DejaVuSans-20"/>
      <use x="594.238281" xlink:href="#DejaVuSans-66"/>
      <use x="629.365234" xlink:href="#DejaVuSans-2d"/>
      <use x="665.449219" xlink:href="#DejaVuSans-65"/>
      <use x="726.972656" xlink:href="#DejaVuSans-76"/>
      <use x="786.152344" xlink:href="#DejaVuSans-61"/>
      <use x="847.431641" xlink:href="#DejaVuSans-6c"/>
      <use x="875.214844" xlink:href="#DejaVuSans-73"/>
      <use x="927.314453" xlink:href="#DejaVuSans-20"/>
      <use x="959.101562" xlink:href="#DejaVuSans-2f"/>
      <use x="992.792969" xlink:href="#DejaVuSans-20"/>
      <use x="1024.580078" xlink:href="#DejaVuSans-64"/>
      <use x="1088.056641" xlink:href="#DejaVuSans-69"/>
      <use x="1115.839844" xlink:href="#DejaVuSans-6d"/>
      <use x="1213.251953" xlink:href="#DejaVuSans-65"/>
      <use x="1274.775391" xlink:href="#DejaVuSans-6e"/>
      <use x="1338.154297" xlink:href="#DejaVuSans-73"/>
      <use x="1390.253906" xlink:href="#DejaVuSans-69"/>
      <use x="1418.037109" xlink:href="#DejaVuSans-6f"/>
      <use x="1479.21875" xlink:href="#DejaVuSans-6e"/>
      <use x="1542.597656" xlink:href="#DejaVuSans-29"/>
     </g>
    </g>
   </g>
   <g id="matplotlib.axis_2">
    <g id="ytick_1">
     <g id="line2d_29">
      <path clip-path="url(#pcadac93bce)" d="M 70.8 298.245375 
L 427.92 298.245375 
" style="fill:none;stroke:#b0b0b0;stroke-linecap:square;stroke-width:0.8;"/>
     </g>
     <g id="line2d_30">
      <defs>
       <path d="M 0 0 
L -3.5 0 
" id="macf7b1d71e" style="stroke:#000000;stroke-width:0.8;"/>
      </defs>
      <g>
       <use style="stroke:#000000;stroke-width:0.8;" x="70.8" xlink:href="#macf7b1d71e" y="298.245375"/>
      </g>
     </g>
     <g id="text_7">
      <!-- 0.0 -->
      <defs>
       <path d="M 10.6875 12.40625 
L 21 12.40625 
L 21 0 
L 10.6875 0 
z
" id="DejaVuSans-2e"/>
      </defs>
      <g transform="translate(31.99375 305.843812)scale(0.2 -0.2)">
       <use xlink:href="#DejaVuSans-30"/>
       <use x="63.623047" xlink:href="#DejaVuSans-2e"/>
       <use x="95.410156" xlink:href="#DejaVuSans-30"/>
      </g>
     </g>
    </g>
    <g id="ytick_2">
     <g id="line2d_31">
      <path clip-path="url(#pcadac93bce)" d="M 70.8 245.549929 
L 427.92 245.549929 
" style="fill:none;stroke:#b0b0b0;stroke-linecap:square;stroke-width:0.8;"/>
     </g>
     <g id="line2d_32">
      <g>
       <use style="stroke:#000000;stroke-width:0.8;" x="70.8" xlink:href="#macf7b1d71e" y="245.549929"/>
      </g>
     </g>
     <g id="text_8">
      <!-- 0.2 -->
      <g transform="translate(31.99375 253.148367)scale(0.2 -0.2)">
       <use xlink:href="#DejaVuSans-30"/>
       <use x="63.623047" xlink:href="#DejaVuSans-2e"/>
       <use x="95.410156" xlink:href="#DejaVuSans-32"/>
      </g>
     </g>
    </g>
    <g id="ytick_3">
     <g id="line2d_33">
      <path clip-path="url(#pcadac93bce)" d="M 70.8 192.854484 
L 427.92 192.854484 
" style="fill:none;stroke:#b0b0b0;stroke-linecap:square;stroke-width:0.8;"/>
     </g>
     <g id="line2d_34">
      <g>
       <use style="stroke:#000000;stroke-width:0.8;" x="70.8" xlink:href="#macf7b1d71e" y="192.854484"/>
      </g>
     </g>
     <g id="text_9">
      <!-- 0.4 -->
      <g transform="translate(31.99375 200.452921)scale(0.2 -0.2)">
       <use xlink:href="#DejaVuSans-30"/>
       <use x="63.623047" xlink:href="#DejaVuSans-2e"/>
       <use x="95.410156" xlink:href="#DejaVuSans-34"/>
      </g>
     </g>
    </g>
    <g id="ytick_4">
     <g id="line2d_35">
      <path clip-path="url(#pcadac93bce)" d="M 70.8 140.159038 
L 427.92 140.159038 
" style="fill:none;stroke:#b0b0b0;stroke-linecap:square;stroke-width:0.8;"/>
     </g>
     <g id="line2d_36">
      <g>
       <use style="stroke:#000000;stroke-width:0.8;" x="70.8" xlink:href="#macf7b1d71e" y="140.159038"/>
      </g>
     </g>
     <g id="text_10">
      <!-- 0.6 -->
      <g transform="translate(31.99375 147.757476)scale(0.2 -0.2)">
       <use xlink:href="#DejaVuSans-30"/>
       <use x="63.623047" xlink:href="#DejaVuSans-2e"/>
       <use x="95.410156" xlink:href="#DejaVuSans-36"/>
      </g>
     </g>
    </g>
    <g id="ytick_5">
     <g id="line2d_37">
      <path clip-path="url(#pcadac93bce)" d="M 70.8 87.463593 
L 427.92 87.463593 
" style="fill:none;stroke:#b0b0b0;stroke-linecap:square;stroke-width:0.8;"/>
     </g>
     <g id="line2d_38">
      <g>
       <use style="stroke:#000000;stroke-width:0.8;" x="70.8" xlink:href="#macf7b1d71e" y="87.463593"/>
      </g>
     </g>
     <g id="text_11">
      <!-- 0.8 -->
      <g transform="translate(31.99375 95.06203)scale(0.2 -0.2)">
       <use xlink:href="#DejaVuSans-30"/>
       <use x="63.623047" xlink:href="#DejaVuSans-2e"/>
       <use x="95.410156" xlink:href="#DejaVuSans-38"/>
      </g>
     </g>
    </g>
    <g id="ytick_6">
     <g id="line2d_39">
      <path clip-path="url(#pcadac93bce)" d="M 70.8 34.768147 
L 427.92 34.768147 
" style="fill:none;stroke:#b0b0b0;stroke-linecap:square;stroke-width:0.8;"/>
     </g>
     <g id="line2d_40">
      <g>
       <use style="stroke:#000000;stroke-width:0.8;" x="70.8" xlink:href="#macf7b1d71e" y="34.768147"/>
      </g>
     </g>
     <g id="text_12">
      <!-- 1.0 -->
      <g transform="translate(31.99375 42.366585)scale(0.2 -0.2)">
       <use xlink:href="#DejaVuSans-31"/>
       <use x="63.623047" xlink:href="#DejaVuSans-2e"/>
       <use x="95.410156" xlink:href="#DejaVuSans-30"/>
      </g>
     </g>
    </g>
    <g id="text_13">
     <!-- Proportion of function+target pairs -->
     <defs>
      <path d="M 19.671875 64.796875 
L 19.671875 37.40625 
L 32.078125 37.40625 
Q 38.96875 37.40625 42.71875 40.96875 
Q 46.484375 44.53125 46.484375 51.125 
Q 46.484375 57.671875 42.71875 61.234375 
Q 38.96875 64.796875 32.078125 64.796875 
z
M 9.8125 72.90625 
L 32.078125 72.90625 
Q 44.34375 72.90625 50.609375 67.359375 
Q 56.890625 61.8125 56.890625 51.125 
Q 56.890625 40.328125 50.609375 34.8125 
Q 44.34375 29.296875 32.078125 29.296875 
L 19.671875 29.296875 
L 19.671875 0 
L 9.8125 0 
z
" id="DejaVuSans-50"/>
      <path d="M 41.109375 46.296875 
Q 39.59375 47.171875 37.8125 47.578125 
Q 36.03125 48 33.890625 48 
Q 26.265625 48 22.1875 43.046875 
Q 18.109375 38.09375 18.109375 28.8125 
L 18.109375 0 
L 9.078125 0 
L 9.078125 54.6875 
L 18.109375 54.6875 
L 18.109375 46.1875 
Q 20.953125 51.171875 25.484375 53.578125 
Q 30.03125 56 36.53125 56 
Q 37.453125 56 38.578125 55.875 
Q 39.703125 55.765625 41.0625 55.515625 
z
" id="DejaVuSans-72"/>
      <path d="M 18.109375 8.203125 
L 18.109375 -20.796875 
L 9.078125 -20.796875 
L 9.078125 54.6875 
L 18.109375 54.6875 
L 18.109375 46.390625 
Q 20.953125 51.265625 25.265625 53.625 
Q 29.59375 56 35.59375 56 
Q 45.5625 56 51.78125 48.09375 
Q 58.015625 40.1875 58.015625 27.296875 
Q 58.015625 14.40625 51.78125 6.484375 
Q 45.5625 -1.421875 35.59375 -1.421875 
Q 29.59375 -1.421875 25.265625 0.953125 
Q 20.953125 3.328125 18.109375 8.203125 
M 48.6875 27.296875 
Q 48.6875 37.203125 44.609375 42.84375 
Q 40.53125 48.484375 33.40625 48.484375 
Q 26.265625 48.484375 22.1875 42.84375 
Q 18.109375 37.203125 18.109375 27.296875 
Q 18.109375 17.390625 22.1875 11.75 
Q 26.265625 6.109375 33.40625 6.109375 
Q 40.53125 6.109375 44.609375 11.75 
Q 48.6875 17.390625 48.6875 27.296875 
" id="DejaVuSans-70"/>
      <path d="M 18.3125 70.21875 
L 18.3125 54.6875 
L 36.8125 54.6875 
L 36.8125 47.703125 
L 18.3125 47.703125 
L 18.3125 18.015625 
Q 18.3125 11.328125 20.140625 9.421875 
Q 21.96875 7.515625 27.59375 7.515625 
L 36.8125 7.515625 
L 36.8125 0 
L 27.59375 0 
Q 17.1875 0 13.234375 3.875 
Q 9.28125 7.765625 9.28125 18.015625 
L 9.28125 47.703125 
L 2.6875 47.703125 
L 2.6875 54.6875 
L 9.28125 54.6875 
L 9.28125 70.21875 
z
" id="DejaVuSans-74"/>
      <path d="M 8.5 21.578125 
L 8.5 54.6875 
L 17.484375 54.6875 
L 17.484375 21.921875 
Q 17.484375 14.15625 20.5 10.265625 
Q 23.53125 6.390625 29.59375 6.390625 
Q 36.859375 6.390625 41.078125 11.03125 
Q 45.3125 15.671875 45.3125 23.6875 
L 45.3125 54.6875 
L 54.296875 54.6875 
L 54.296875 0 
L 45.3125 0 
L 45.3125 8.40625 
Q 42.046875 3.421875 37.71875 1 
Q 33.40625 -1.421875 27.6875 -1.421875 
Q 18.265625 -1.421875 13.375 4.4375 
Q 8.5 10.296875 8.5 21.578125 
M 31.109375 56 
z
" id="DejaVuSans-75"/>
      <path d="M 48.78125 52.59375 
L 48.78125 44.1875 
Q 44.96875 46.296875 41.140625 47.34375 
Q 37.3125 48.390625 33.40625 48.390625 
Q 24.65625 48.390625 19.8125 42.84375 
Q 14.984375 37.3125 14.984375 27.296875 
Q 14.984375 17.28125 19.8125 11.734375 
Q 24.65625 6.203125 33.40625 6.203125 
Q 37.3125 6.203125 41.140625 7.25 
Q 44.96875 8.296875 48.78125 10.40625 
L 48.78125 2.09375 
Q 45.015625 0.34375 40.984375 -0.53125 
Q 36.96875 -1.421875 32.421875 -1.421875 
Q 20.0625 -1.421875 12.78125 6.34375 
Q 5.515625 14.109375 5.515625 27.296875 
Q 5.515625 40.671875 12.859375 48.328125 
Q 20.21875 56 33.015625 56 
Q 37.15625 56 41.109375 55.140625 
Q 45.0625 54.296875 48.78125 52.59375 
" id="DejaVuSans-63"/>
      <path d="M 46 62.703125 
L 46 35.5 
L 73.1875 35.5 
L 73.1875 27.203125 
L 46 27.203125 
L 46 0 
L 37.796875 0 
L 37.796875 27.203125 
L 10.59375 27.203125 
L 10.59375 35.5 
L 37.796875 35.5 
L 37.796875 62.703125 
z
" id="DejaVuSans-2b"/>
     </defs>
     <g transform="translate(24.250312 323.17875)rotate(-90)scale(0.18 -0.18)">
      <use xlink:href="#DejaVuSans-50"/>
      <use x="60.287109" xlink:href="#DejaVuSans-72"/>
      <use x="101.369141" xlink:href="#DejaVuSans-6f"/>
      <use x="162.550781" xlink:href="#DejaVuSans-70"/>
      <use x="226.027344" xlink:href="#DejaVuSans-6f"/>
      <use x="287.208984" xlink:href="#DejaVuSans-72"/>
      <use x="328.322266" xlink:href="#DejaVuSans-74"/>
      <use x="367.53125" xlink:href="#DejaVuSans-69"/>
      <use x="395.314453" xlink:href="#DejaVuSans-6f"/>
      <use x="456.496094" xlink:href="#DejaVuSans-6e"/>
      <use x="519.875" xlink:href="#DejaVuSans-20"/>
      <use x="551.662109" xlink:href="#DejaVuSans-6f"/>
      <use x="612.84375" xlink:href="#DejaVuSans-66"/>
      <use x="648.048828" xlink:href="#DejaVuSans-20"/>
      <use x="679.835938" xlink:href="#DejaVuSans-66"/>
      <use x="715.041016" xlink:href="#DejaVuSans-75"/>
      <use x="778.419922" xlink:href="#DejaVuSans-6e"/>
      <use x="841.798828" xlink:href="#DejaVuSans-63"/>
      <use x="896.779297" xlink:href="#DejaVuSans-74"/>
      <use x="935.988281" xlink:href="#DejaVuSans-69"/>
      <use x="963.771484" xlink:href="#DejaVuSans-6f"/>
      <use x="1024.953125" xlink:href="#DejaVuSans-6e"/>
      <use x="1088.332031" xlink:href="#DejaVuSans-2b"/>
      <use x="1172.121094" xlink:href="#DejaVuSans-74"/>
      <use x="1211.330078" xlink:href="#DejaVuSans-61"/>
      <use x="1272.609375" xlink:href="#DejaVuSans-72"/>
      <use x="1313.707031" xlink:href="#DejaVuSans-67"/>
      <use x="1377.183594" xlink:href="#DejaVuSans-65"/>
      <use x="1438.707031" xlink:href="#DejaVuSans-74"/>
      <use x="1477.916016" xlink:href="#DejaVuSans-20"/>
      <use x="1509.703125" xlink:href="#DejaVuSans-70"/>
      <use x="1573.179688" xlink:href="#DejaVuSans-61"/>
      <use x="1634.458984" xlink:href="#DejaVuSans-69"/>
      <use x="1662.242188" xlink:href="#DejaVuSans-72"/>
      <use x="1703.355469" xlink:href="#DejaVuSans-73"/>
     </g>
    </g>
   </g>
   <g id="line2d_41">
    <defs>
     <path d="M 0 1.5 
C 0.397805 1.5 0.77937 1.341951 1.06066 1.06066 
C 1.341951 0.77937 1.5 0.397805 1.5 0 
C 1.5 -0.397805 1.341951 -0.77937 1.06066 -1.06066 
C 0.77937 -1.341951 0.397805 -1.5 0 -1.5 
C -0.397805 -1.5 -0.77937 -1.341951 -1.06066 -1.06066 
C -1.341951 -0.77937 -1.5 -0.397805 -1.5 0 
C -1.5 0.397805 -1.341951 0.77937 -1.06066 1.06066 
C -0.77937 1.341951 -0.397805 1.5 0 1.5 
z
" id="m4603df234e" style="stroke:#000080;"/>
    </defs>
    <g>
     <use style="fill:#000080;stroke:#000080;" x="156.977317" xlink:href="#m4603df234e" y="34.768147"/>
     <use style="fill:#000080;stroke:#000080;" x="156.977317" xlink:href="#m4603df234e" y="34.768147"/>
    </g>
   </g>
   <g id="line2d_42">
    <path d="M 51.169868 298.245375 
L 51.169868 277.063872 
L 63.555102 277.063872 
L 63.555102 276.54725 
L 70.8 276.54725 
L 70.8 276.030628 
L 75.940337 276.030628 
L 75.940337 272.930896 
L 79.927491 272.930896 
L 79.927491 270.347786 
L 83.185234 270.347786 
L 83.185234 269.831164 
L 90.430132 269.831164 
L 90.430132 267.764676 
L 97.000681 267.764676 
L 97.000681 266.21481 
L 98.32485 266.21481 
L 98.32485 265.181566 
L 100.710805 265.181566 
L 100.710805 264.664944 
L 102.815366 264.664944 
L 102.815366 264.148322 
L 104.69796 264.148322 
L 104.69796 263.115078 
L 105.569748 263.115078 
L 105.569748 259.498724 
L 107.195242 259.498724 
L 107.195242 258.982102 
L 107.955702 258.982102 
L 107.955702 256.915614 
L 108.685114 256.915614 
L 108.685114 255.365748 
L 109.385915 255.365748 
L 109.385915 251.232772 
L 110.060263 251.232772 
L 110.060263 250.71615 
L 111.942857 250.71615 
L 111.942857 249.682906 
L 114.697239 249.682906 
L 114.697239 249.166284 
L 117.524404 249.166284 
L 117.524404 248.649662 
L 117.954982 248.649662 
L 117.954982 247.616418 
L 118.375428 247.616418 
L 118.375428 246.066551 
L 118.786207 246.066551 
L 118.786207 240.900331 
L 119.580476 240.900331 
L 119.580476 239.867087 
L 119.964752 239.867087 
L 119.964752 236.250733 
L 120.340936 236.250733 
L 120.340936 234.184245 
L 121.070349 234.184245 
L 121.070349 232.117757 
L 121.424184 232.117757 
L 121.424184 231.601135 
L 122.773362 231.601135 
L 122.773362 231.084513 
L 124.328091 231.084513 
L 124.328091 230.051269 
L 124.623439 230.051269 
L 124.623439 228.501403 
L 124.913984 228.501403 
L 124.913984 227.468159 
L 125.481273 227.468159 
L 125.481273 224.368427 
L 126.031105 224.368427 
L 126.031105 223.335183 
L 126.299803 223.335183 
L 126.299803 222.818561 
L 127.082473 222.818561 
L 127.082473 221.785317 
L 128.075402 221.785317 
L 128.075402 221.268695 
L 129.016046 221.268695 
L 129.016046 220.752073 
L 129.690395 220.752073 
L 129.690395 218.685585 
L 129.909638 218.685585 
L 129.909638 218.168963 
L 130.126224 218.168963 
L 130.126224 215.585853 
L 130.551676 215.585853 
L 130.551676 214.552609 
L 130.760662 214.552609 
L 130.760662 213.519365 
L 130.967232 213.519365 
L 130.967232 213.002743 
L 131.171441 213.002743 
L 131.171441 212.48612 
L 131.373343 212.48612 
L 131.373343 210.936254 
L 131.770429 210.936254 
L 131.770429 209.386388 
L 131.96571 209.386388 
L 131.96571 208.353144 
L 132.349986 208.353144 
L 132.349986 206.286656 
L 132.539068 206.286656 
L 132.539068 205.253412 
L 132.911334 205.253412 
L 132.911334 204.220168 
L 133.094598 204.220168 
L 133.094598 203.703546 
L 133.455583 203.703546 
L 133.455583 202.670302 
L 133.809418 202.670302 
L 133.809418 200.603814 
L 133.983743 200.603814 
L 133.983743 199.57057 
L 134.156383 199.57057 
L 134.156383 198.537326 
L 134.664515 198.537326 
L 134.664515 197.504082 
L 134.830731 197.504082 
L 134.830731 196.98746 
L 134.995416 196.98746 
L 134.995416 194.920972 
L 135.3203 194.920972 
L 135.3203 194.40435 
L 136.107569 194.40435 
L 136.107569 192.337862 
L 136.413014 192.337862 
L 136.413014 191.304618 
L 136.563801 191.304618 
L 136.563801 189.23813 
L 137.154536 189.23813 
L 137.154536 188.721508 
L 137.299218 188.721508 
L 137.299218 187.171642 
L 137.585114 187.171642 
L 137.585114 186.138398 
L 137.866507 186.138398 
L 137.866507 185.621776 
L 138.005559 185.621776 
L 138.005559 182.005422 
L 138.280459 182.005422 
L 138.280459 180.455556 
L 138.416339 180.455556 
L 138.416339 179.422312 
L 138.817886 179.422312 
L 138.817886 178.90569 
L 138.949755 178.90569 
L 138.949755 177.355823 
L 139.467708 177.355823 
L 139.467708 174.256091 
L 139.594883 174.256091 
L 139.594883 171.156359 
L 140.339496 171.156359 
L 140.339496 169.089871 
L 140.580961 169.089871 
L 140.580961 164.956895 
L 140.70048 164.956895 
L 140.70048 163.407029 
L 140.819206 163.407029 
L 140.819206 162.890407 
L 141.170721 162.890407 
L 141.170721 162.373785 
L 141.40128 162.373785 
L 141.40128 160.307297 
L 141.515454 160.307297 
L 141.515454 158.757431 
L 141.741636 158.757431 
L 141.741636 157.724187 
L 141.853662 157.724187 
L 141.853662 156.690943 
L 142.294872 156.690943 
L 142.294872 155.141077 
L 142.618775 155.141077 
L 142.618775 153.591211 
L 142.93691 153.591211 
L 142.93691 153.074589 
L 143.249479 153.074589 
L 143.352466 148.941613 
L 143.556675 148.941613 
L 143.556675 147.391747 
L 143.758577 147.391747 
L 143.858679 145.841881 
L 143.958223 145.841881 
L 144.057215 141.708904 
L 144.639923 141.708904 
L 144.639923 140.67566 
L 144.830011 140.67566 
L 144.924302 136.542684 
L 145.111405 136.542684 
L 145.111405 132.409708 
L 145.296568 132.409708 
L 145.296568 128.793354 
L 145.840817 128.793354 
L 145.840817 124.660378 
L 146.106848 124.660378 
L 146.194652 123.110512 
L 146.455505 123.110512 
L 146.455505 122.077268 
L 146.712605 122.077268 
L 146.712605 120.527402 
L 147.133051 120.527402 
L 147.133051 117.42767 
L 147.38065 117.42767 
L 147.38065 116.911048 
L 147.624865 116.911048 
L 147.624865 111.744828 
L 147.865787 111.744828 
L 147.945378 109.678339 
L 148.182045 109.678339 
L 148.260243 106.061985 
L 148.338099 106.061985 
L 148.415618 103.478875 
L 148.798248 103.478875 
L 148.8738 99.862521 
L 149.172855 99.862521 
L 149.246843 98.312655 
L 149.320526 98.312655 
L 149.393907 95.729545 
L 149.466987 95.729545 
L 149.466987 94.179679 
L 149.756356 94.179679 
L 149.756356 93.663057 
L 149.899301 93.663057 
L 149.970348 92.113191 
L 150.041113 92.113191 
L 150.111598 91.079947 
L 150.321403 91.079947 
L 150.390793 86.430349 
L 150.459916 86.430349 
L 150.528772 84.880483 
L 150.733762 84.880483 
L 150.801573 81.264129 
L 151.070271 81.264129 
L 151.070271 79.714263 
L 151.20312 79.714263 
L 151.20312 78.164397 
L 151.40056 78.164397 
L 151.465892 76.614531 
L 151.530985 76.614531 
L 151.595842 74.03142 
L 151.789013 74.03142 
L 151.789013 72.998176 
L 151.916643 72.998176 
L 151.980117 71.964932 
L 152.106394 71.964932 
L 152.1692 70.415066 
L 152.294152 70.415066 
L 152.294152 64.215602 
L 152.418237 64.215602 
L 152.479957 62.149114 
L 152.541466 62.149114 
L 152.541466 61.632492 
L 152.966195 61.632492 
L 153.026054 60.082626 
L 153.085714 60.082626 
L 153.085714 58.53276 
L 153.20444 58.53276 
L 153.263508 56.982894 
L 153.322382 56.982894 
L 153.322382 55.433028 
L 153.497847 55.433028 
L 153.555955 52.849918 
L 153.613874 52.849918 
L 153.613874 51.816674 
L 153.729153 51.816674 
L 153.729153 49.750186 
L 153.900688 49.750186 
L 153.900688 49.233564 
L 154.014137 49.233564 
L 154.014137 48.716942 
L 154.182971 48.716942 
L 154.238896 45.61721 
L 154.405629 45.61721 
L 154.515927 44.067344 
L 154.570821 44.067344 
L 154.625547 42.000855 
L 154.842792 42.000855 
L 154.842792 41.484233 
L 155.057426 41.484233 
L 155.163784 39.934367 
L 155.322144 39.934367 
L 155.322144 39.417745 
L 155.53113 39.417745 
L 155.53113 37.867879 
L 155.788972 37.867879 
L 155.788972 37.351257 
L 155.992599 37.351257 
L 156.043145 35.801391 
L 156.736179 35.801391 
L 156.736179 35.284769 
L 156.977317 35.284769 
L 156.977317 34.768147 
L 358.8 34.768147 
L 358.8 34.768147 
" style="fill:none;stroke:#000080;stroke-linecap:square;stroke-width:1.5;"/>
   </g>
   <g id="line2d_43">
    <defs>
     <path d="M 0 6 
C 1.591219 6 3.117479 5.367802 4.242641 4.242641 
C 5.367802 3.117479 6 1.591219 6 0 
C 6 -1.591219 5.367802 -3.117479 4.242641 -4.242641 
C 3.117479 -5.367802 1.591219 -6 0 -6 
C -1.591219 -6 -3.117479 -5.367802 -4.242641 -4.242641 
C -5.367802 -3.117479 -6 -1.591219 -6 0 
C -6 1.591219 -5.367802 3.117479 -4.242641 4.242641 
C -3.117479 5.367802 -1.591219 6 0 6 
z
" id="m6ff59bb6e4" style="stroke:#000080;stroke-width:1.5;"/>
    </defs>
    <g>
     <use style="fill:none;stroke:#000080;stroke-width:1.5;" x="111.942857" xlink:href="#m6ff59bb6e4" y="250.71615"/>
     <use style="fill:none;stroke:#000080;stroke-width:1.5;" x="141.515454" xlink:href="#m6ff59bb6e4" y="158.757431"/>
     <use style="fill:none;stroke:#000080;stroke-width:1.5;" x="155.322144" xlink:href="#m6ff59bb6e4" y="39.417745"/>
     <use style="fill:none;stroke:#000080;stroke-width:1.5;" x="156.977317" xlink:href="#m6ff59bb6e4" y="34.768147"/>
     <use style="fill:none;stroke:#000080;stroke-width:1.5;" x="156.977317" xlink:href="#m6ff59bb6e4" y="34.768147"/>
     <use style="fill:none;stroke:#000080;stroke-width:1.5;" x="358.8" xlink:href="#m6ff59bb6e4" y="34.768147"/>
    </g>
   </g>
   <g id="line2d_44"/>
   <g id="line2d_45">
    <defs>
     <path d="M 0 1.5 
C 0.397805 1.5 0.77937 1.341951 1.06066 1.06066 
C 1.341951 0.77937 1.5 0.397805 1.5 0 
C 1.5 -0.397805 1.341951 -0.77937 1.06066 -1.06066 
C 0.77937 -1.341951 0.397805 -1.5 0 -1.5 
C -0.397805 -1.5 -0.77937 -1.341951 -1.06066 -1.06066 
C -1.341951 -0.77937 -1.5 -0.397805 -1.5 0 
C -1.5 0.397805 -1.341951 0.77937 -1.06066 1.06066 
C -0.77937 1.341951 -0.397805 1.5 0 1.5 
z
" id="m9fa0a25c0a" style="stroke:#ff00ff;"/>
    </defs>
    <g>
     <use style="fill:#ff00ff;stroke:#ff00ff;" x="241.802337" xlink:href="#m9fa0a25c0a" y="272.414274"/>
     <use style="fill:#ff00ff;stroke:#ff00ff;" x="241.802337" xlink:href="#m9fa0a25c0a" y="272.414274"/>
    </g>
   </g>
   <g id="line2d_46">
    <path d="M 134.995416 298.245375 
L 134.995416 297.728753 
L 141.96499 297.728753 
L 141.96499 296.695509 
L 152.66385 296.695509 
L 152.66385 295.662265 
L 156.093549 295.662265 
L 156.093549 294.629021 
L 164.013417 294.629021 
L 164.013417 294.112399 
L 168.122934 294.112399 
L 168.122934 293.595777 
L 185.091151 293.595777 
L 185.091151 292.562533 
L 186.151598 292.562533 
L 186.151598 292.045911 
L 186.631804 292.045911 
L 186.631804 291.012667 
L 188.317413 291.012667 
L 188.317413 290.496045 
L 190.942217 290.496045 
L 190.942217 289.979423 
L 193.380889 289.979423 
L 193.380889 289.462801 
L 194.553187 289.462801 
L 194.553187 288.946179 
L 197.39176 288.946179 
L 197.39176 288.429557 
L 197.48135 288.429557 
L 197.48135 287.912935 
L 198.019292 287.912935 
L 198.019292 287.396313 
L 198.268063 287.396313 
L 198.268063 286.879691 
L 200.039616 286.879691 
L 200.039616 286.363069 
L 200.644513 286.363069 
L 200.644513 285.846447 
L 202.830225 285.846447 
L 202.830225 285.329825 
L 204.043113 285.329825 
L 204.043113 284.813203 
L 204.668231 284.813203 
L 204.668231 284.296581 
L 204.727902 284.296581 
L 204.727902 283.779959 
L 205.675334 283.779959 
L 205.675334 283.263337 
L 209.824334 283.263337 
L 209.824334 282.746715 
L 210.140025 282.746715 
L 210.140025 282.230093 
L 213.820942 282.230093 
L 213.820942 281.713471 
L 215.757371 281.713471 
L 215.757371 281.196849 
L 216.532925 281.196849 
L 216.532925 280.163604 
L 216.775709 280.163604 
L 216.775709 279.646982 
L 217.084983 279.646982 
L 217.084983 279.13036 
L 218.517618 279.13036 
L 218.517618 278.613738 
L 223.100186 278.613738 
L 223.100186 278.097116 
L 225.307558 278.097116 
L 225.307558 277.580494 
L 226.351812 277.580494 
L 226.351812 277.063872 
L 226.532449 277.063872 
L 226.532449 276.54725 
L 228.740357 276.54725 
L 228.740357 276.030628 
L 229.332123 276.030628 
L 229.332123 275.514006 
L 229.485956 275.514006 
L 229.485956 274.997384 
L 231.592264 274.997384 
L 231.592264 274.480762 
L 232.110827 274.480762 
L 232.110827 273.447518 
L 234.062555 273.447518 
L 234.062555 272.930896 
L 241.802337 272.930896 
L 241.802337 272.414274 
L 358.8 272.414274 
" style="fill:none;stroke:#ff00ff;stroke-linecap:square;stroke-width:1.5;"/>
   </g>
   <g id="line2d_47">
    <defs>
     <path d="M -0 8.485281 
L 5.091169 0 
L 0 -8.485281 
L -5.091169 -0 
z
" id="me5518c5cb5" style="stroke:#ff00ff;stroke-linejoin:miter;stroke-width:1.5;"/>
    </defs>
    <g>
     <use style="fill:none;stroke:#ff00ff;stroke-linejoin:miter;stroke-width:1.5;" x="188.317413" xlink:href="#me5518c5cb5" y="291.012667"/>
     <use style="fill:none;stroke:#ff00ff;stroke-linejoin:miter;stroke-width:1.5;" x="231.592264" xlink:href="#me5518c5cb5" y="274.480762"/>
     <use style="fill:none;stroke:#ff00ff;stroke-linejoin:miter;stroke-width:1.5;" x="241.802337" xlink:href="#me5518c5cb5" y="272.414274"/>
     <use style="fill:none;stroke:#ff00ff;stroke-linejoin:miter;stroke-width:1.5;" x="241.802337" xlink:href="#me5518c5cb5" y="272.414274"/>
     <use style="fill:none;stroke:#ff00ff;stroke-linejoin:miter;stroke-width:1.5;" x="358.8" xlink:href="#me5518c5cb5" y="272.414274"/>
    </g>
   </g>
   <g id="line2d_48"/>
   <g id="line2d_49">
    <path clip-path="url(#pcadac93bce)" d="M 172.715846 293.595777 
" style="fill:none;stroke:#ff00ff;stroke-linecap:square;stroke-width:1.5;"/>
    <defs>
     <path d="M -12 12 
L 12 -12 
M -12 -12 
L 12 12 
" id="m4c696063dd" style="stroke:#ff00ff;stroke-width:3;"/>
    </defs>
    <g clip-path="url(#pcadac93bce)">
     <use style="fill:#ff00ff;stroke:#ff00ff;stroke-width:3;" x="172.715846" xlink:href="#m4c696063dd" y="293.595777"/>
    </g>
   </g>
   <g id="line2d_50">
    <defs>
     <path d="M 0 1.5 
C 0.397805 1.5 0.77937 1.341951 1.06066 1.06066 
C 1.341951 0.77937 1.5 0.397805 1.5 0 
C 1.5 -0.397805 1.341951 -0.77937 1.06066 -1.06066 
C 0.77937 -1.341951 0.397805 -1.5 0 -1.5 
C -0.397805 -1.5 -0.77937 -1.341951 -1.06066 -1.06066 
C -1.341951 -0.77937 -1.5 -0.397805 -1.5 0 
C -1.5 0.397805 -1.341951 0.77937 -1.06066 1.06066 
C -0.77937 1.341951 -0.397805 1.5 0 1.5 
z
" id="m39a8fe568d" style="stroke:#ffa500;"/>
    </defs>
    <g>
     <use style="fill:#ffa500;stroke:#ffa500;" x="245.3639" xlink:href="#m39a8fe568d" y="241.416953"/>
     <use style="fill:#ffa500;stroke:#ffa500;" x="245.3639" xlink:href="#m39a8fe568d" y="241.416953"/>
    </g>
   </g>
   <g id="line2d_51">
    <path d="M 70.8 298.245375 
L 70.8 297.728753 
L 75.940337 297.728753 
L 75.940337 295.662265 
L 88.325571 295.662265 
L 88.325571 294.629021 
L 90.430132 294.629021 
L 90.430132 294.112399 
L 92.312726 294.112399 
L 92.312726 291.529289 
L 95.570468 291.529289 
L 95.570468 289.979423 
L 98.32485 289.979423 
L 98.32485 288.946179 
L 100.710805 288.946179 
L 100.710805 288.429557 
L 102.815366 288.429557 
L 102.815366 287.912935 
L 103.781445 287.912935 
L 103.781445 286.879691 
L 104.69796 286.879691 
L 104.69796 286.363069 
L 107.195242 286.363069 
L 107.195242 285.846447 
L 114.179287 285.846447 
L 114.179287 284.296581 
L 114.697239 284.296581 
L 114.697239 283.779959 
L 115.2006 283.779959 
L 115.2006 283.263337 
L 117.524404 283.263337 
L 117.524404 282.746715 
L 117.954982 282.746715 
L 117.954982 282.230093 
L 118.375428 282.230093 
L 118.375428 280.680226 
L 119.187755 280.680226 
L 119.187755 278.613738 
L 120.709364 278.613738 
L 120.709364 277.063872 
L 123.411577 277.063872 
L 123.411577 276.030628 
L 126.564521 276.030628 
L 126.564521 275.514006 
L 127.585834 275.514006 
L 127.585834 274.997384 
L 130.126224 274.997384 
L 130.126224 274.480762 
L 130.340216 274.480762 
L 130.340216 273.96414 
L 131.171441 273.96414 
L 131.171441 273.447518 
L 133.455583 273.447518 
L 133.455583 272.414274 
L 133.633376 272.414274 
L 133.633376 271.38103 
L 133.809418 271.38103 
L 133.809418 269.314542 
L 135.796811 269.314542 
L 135.796811 267.764676 
L 136.713325 267.764676 
L 136.713325 267.248054 
L 136.861609 267.248054 
L 136.861609 266.731432 
L 138.143538 266.731432 
L 138.143538 266.21481 
L 142.511458 266.21481 
L 142.511458 265.181566 
L 143.858679 265.181566 
L 143.858679 264.148322 
L 147.049749 264.148322 
L 147.049749 263.6317 
L 147.78584 263.6317 
L 147.78584 262.598456 
L 173.587634 262.598456 
L 173.587634 262.081834 
L 174.29207 262.081834 
L 174.29207 261.565212 
L 174.63414 261.565212 
L 174.63414 260.015346 
L 174.829228 260.015346 
L 174.882067 258.46548 
L 175.957036 258.46548 
L 175.957036 257.948858 
L 176.301453 257.948858 
L 176.301453 257.432236 
L 176.527431 257.432236 
L 176.527431 256.915614 
L 186.076561 256.915614 
L 186.160955 255.88237 
L 186.216998 255.88237 
L 186.216998 255.365748 
L 186.347083 255.365748 
L 186.347083 254.849126 
L 187.684474 254.849126 
L 187.684474 254.332504 
L 193.002179 254.332504 
L 193.002179 253.815882 
L 193.186225 253.815882 
L 193.186225 252.782638 
L 193.622815 252.782638 
L 193.622815 252.266016 
L 197.985538 252.266016 
L 197.985538 251.749394 
L 198.120175 251.749394 
L 198.120175 251.232772 
L 198.518102 251.232772 
L 198.518102 250.71615 
L 207.986197 250.71615 
L 207.986197 249.166284 
L 210.553248 249.166284 
L 210.553248 248.649662 
L 212.583337 248.649662 
L 212.583337 248.13304 
L 215.74487 248.13304 
L 215.74487 247.616418 
L 215.8819 247.616418 
L 215.8819 247.099796 
L 216.060063 247.099796 
L 216.060063 246.583173 
L 217.410166 246.583173 
L 217.410166 246.066551 
L 218.817955 246.066551 
L 218.817955 245.549929 
L 218.969235 245.549929 
L 218.969235 245.033307 
L 223.664072 245.033307 
L 223.664072 244.516685 
L 228.10776 244.516685 
L 228.10776 244.000063 
L 232.453502 244.000063 
L 232.453502 243.483441 
L 234.15779 243.483441 
L 234.15779 242.966819 
L 235.88802 242.966819 
L 235.88802 242.450197 
L 240.050218 242.450197 
L 240.050218 241.933575 
L 245.3639 241.933575 
L 245.3639 241.416953 
L 358.8 241.416953 
L 358.8 241.416953 
" style="fill:none;stroke:#ffa500;stroke-linecap:square;stroke-width:1.5;"/>
   </g>
   <g id="line2d_52">
    <defs>
     <path d="M 0 -6 
L -1.347084 -1.854102 
L -5.706339 -1.854102 
L -2.179628 0.708204 
L -3.526712 4.854102 
L -0 2.291796 
L 3.526712 4.854102 
L 2.179628 0.708204 
L 5.706339 -1.854102 
L 1.347084 -1.854102 
z
" id="m93c075151d" style="stroke:#ffa500;stroke-linejoin:bevel;stroke-width:1.5;"/>
    </defs>
    <g>
     <use style="fill:none;stroke:#ffa500;stroke-linejoin:bevel;stroke-width:1.5;" x="176.527431" xlink:href="#m93c075151d" y="257.432236"/>
     <use style="fill:none;stroke:#ffa500;stroke-linejoin:bevel;stroke-width:1.5;" x="245.3639" xlink:href="#m93c075151d" y="241.933575"/>
     <use style="fill:none;stroke:#ffa500;stroke-linejoin:bevel;stroke-width:1.5;" x="245.3639" xlink:href="#m93c075151d" y="241.416953"/>
     <use style="fill:none;stroke:#ffa500;stroke-linejoin:bevel;stroke-width:1.5;" x="245.3639" xlink:href="#m93c075151d" y="241.416953"/>
     <use style="fill:none;stroke:#ffa500;stroke-linejoin:bevel;stroke-width:1.5;" x="358.8" xlink:href="#m93c075151d" y="241.416953"/>
    </g>
   </g>
   <g id="line2d_53"/>
   <g id="line2d_54">
    <path clip-path="url(#pcadac93bce)" d="M 172.715846 262.598456 
" style="fill:none;stroke:#ffa500;stroke-linecap:square;stroke-width:1.5;"/>
    <defs>
     <path d="M -12 12 
L 12 -12 
M -12 -12 
L 12 12 
" id="mca3bb36e36" style="stroke:#ffa500;stroke-width:3;"/>
    </defs>
    <g clip-path="url(#pcadac93bce)">
     <use style="fill:#ffa500;stroke:#ffa500;stroke-width:3;" x="172.715846" xlink:href="#mca3bb36e36" y="262.598456"/>
    </g>
   </g>
   <g id="line2d_55">
    <defs>
     <path d="M 0 1.5 
C 0.397805 1.5 0.77937 1.341951 1.06066 1.06066 
C 1.341951 0.77937 1.5 0.397805 1.5 0 
C 1.5 -0.397805 1.341951 -0.77937 1.06066 -1.06066 
C 0.77937 -1.341951 0.397805 -1.5 0 -1.5 
C -0.397805 -1.5 -0.77937 -1.341951 -1.06066 -1.06066 
C -1.341951 -0.77937 -1.5 -0.397805 -1.5 0 
C -1.5 0.397805 -1.341951 0.77937 -1.06066 1.06066 
C -0.77937 1.341951 -0.397805 1.5 0 1.5 
z
" id="m322ef1ddfe" style="stroke:#6495ed;"/>
    </defs>
    <g>
     <use style="fill:#6495ed;stroke:#6495ed;" x="250.395294" xlink:href="#m322ef1ddfe" y="34.768147"/>
     <use style="fill:#6495ed;stroke:#6495ed;" x="250.395294" xlink:href="#m322ef1ddfe" y="34.768147"/>
    </g>
   </g>
   <g id="line2d_56">
    <path d="M 51.169868 298.245375 
L 51.169868 297.212131 
L 79.927491 297.212131 
L 79.927491 295.662265 
L 90.430132 295.662265 
L 90.430132 295.145643 
L 92.312726 295.145643 
L 92.312726 294.629021 
L 94.015739 294.629021 
L 94.015739 292.562533 
L 97.000681 292.562533 
L 97.000681 289.979423 
L 99.557623 289.979423 
L 99.557623 288.429557 
L 104.69796 288.429557 
L 104.69796 287.396313 
L 111.3371 287.396313 
L 111.3371 286.879691 
L 112.528749 286.879691 
L 112.528749 286.363069 
L 114.179287 286.363069 
L 114.179287 285.846447 
L 116.166679 285.846447 
L 116.166679 284.813203 
L 117.083194 284.813203 
L 117.083194 284.296581 
L 121.424184 284.296581 
L 121.424184 283.263337 
L 121.771149 283.263337 
L 121.771149 282.746715 
L 122.445497 282.746715 
L 122.445497 281.713471 
L 123.411577 281.713471 
L 123.411577 280.680226 
L 123.722334 280.680226 
L 123.722334 279.646982 
L 125.758304 279.646982 
L 125.758304 278.613738 
L 126.031105 278.613738 
L 126.031105 278.097116 
L 128.315246 278.097116 
L 128.315246 277.580494 
L 129.468428 277.580494 
L 129.468428 277.063872 
L 129.690395 277.063872 
L 129.690395 275.514006 
L 130.126224 275.514006 
L 130.126224 274.480762 
L 131.572989 274.480762 
L 131.572989 272.414274 
L 132.158881 272.414274 
L 132.158881 271.897652 
L 133.276002 271.897652 
L 133.276002 271.38103 
L 133.983743 271.38103 
L 133.983743 270.864408 
L 135.3203 270.864408 
L 135.3203 270.347786 
L 135.480553 270.347786 
L 135.480553 269.831164 
L 135.796811 269.831164 
L 135.796811 268.79792 
L 135.952865 268.79792 
L 135.952865 268.281298 
L 136.260944 268.281298 
L 136.260944 267.764676 
L 136.861609 267.764676 
L 136.861609 266.731432 
L 137.726364 266.731432 
L 137.726364 265.698188 
L 138.143538 265.698188 
L 138.143538 264.148322 
L 139.72116 264.148322 
L 139.72116 262.081834 
L 140.217529 262.081834 
L 140.217529 261.565212 
L 140.70048 261.565212 
L 140.70048 260.015346 
L 141.170721 260.015346 
L 141.170721 259.498724 
L 143.958223 259.498724 
L 143.958223 258.46548 
L 144.73522 258.46548 
L 144.73522 257.948858 
L 148.8738 257.948858 
L 148.8738 257.432236 
L 149.970348 257.432236 
L 149.970348 256.915614 
L 150.321403 256.915614 
L 150.321403 255.365748 
L 152.906134 255.365748 
L 152.906134 254.849126 
L 154.405629 254.849126 
L 154.405629 254.332504 
L 154.625547 254.332504 
L 154.625547 253.815882 
L 156.093549 253.815882 
L 156.093549 253.29926 
L 158.359562 253.29926 
L 158.359562 252.782638 
L 158.797528 252.782638 
L 158.797528 252.266016 
L 159.393187 252.266016 
L 159.393187 251.749394 
L 160.528052 251.749394 
L 160.528052 251.232772 
L 161.558089 251.232772 
L 161.558089 250.71615 
L 162.810622 250.71615 
L 162.810622 249.166284 
L 173.813102 249.166284 
L 173.813102 248.649662 
L 174.255679 248.649662 
L 174.29207 247.616418 
L 174.472923 247.616418 
L 174.562668 246.583173 
L 174.969785 246.583173 
L 174.969785 245.033307 
L 175.1266 245.033307 
L 175.1266 244.000063 
L 175.333569 244.000063 
L 175.333569 243.483441 
L 175.538168 243.483441 
L 175.538168 242.966819 
L 175.706895 242.966819 
L 175.706895 242.450197 
L 175.973589 242.450197 
L 175.973589 241.933575 
L 176.171028 241.933575 
L 176.171028 241.416953 
L 176.734738 241.416953 
L 176.734738 240.900331 
L 176.892585 240.900331 
L 176.892585 239.867087 
L 177.06462 239.867087 
L 177.12677 237.800599 
L 177.204155 237.800599 
L 177.204155 235.734111 
L 177.811456 235.734111 
L 177.811456 235.217489 
L 178.485252 235.217489 
L 178.485252 234.700867 
L 178.656925 234.700867 
L 178.656925 233.151001 
L 179.327581 233.151001 
L 179.327581 232.634379 
L 179.653701 232.634379 
L 179.653701 232.117757 
L 179.841224 232.117757 
L 179.841224 230.567891 
L 180.026799 230.567891 
L 180.026799 230.051269 
L 180.379342 230.051269 
L 180.379342 229.534647 
L 180.788358 229.534647 
L 180.788358 229.018025 
L 185.887579 229.018025 
L 185.972868 227.984781 
L 186.263566 227.984781 
L 186.347083 226.434915 
L 186.567907 226.434915 
L 186.613571 225.401671 
L 186.804093 225.401671 
L 186.912058 223.851805 
L 187.22328 223.851805 
L 187.22328 222.818561 
L 187.407444 222.818561 
L 187.485794 220.235451 
L 188.083731 220.235451 
L 188.083731 219.718829 
L 188.317413 219.718829 
L 188.317413 219.202207 
L 188.482478 219.202207 
L 188.482478 218.168963 
L 188.711036 218.168963 
L 188.711036 217.135719 
L 188.848391 217.135719 
L 188.848391 216.619097 
L 189.127898 216.619097 
L 189.127898 215.585853 
L 189.301376 215.585853 
L 189.301376 215.069231 
L 189.589389 215.069231 
L 189.612539 213.519365 
L 192.944674 213.519365 
L 192.944674 213.002743 
L 193.186225 213.002743 
L 193.186225 211.969498 
L 193.337117 211.969498 
L 193.399615 210.936254 
L 193.573455 210.936254 
L 193.573455 209.90301 
L 193.788403 209.90301 
L 193.788403 209.386388 
L 193.916142 209.386388 
L 193.970609 206.803278 
L 194.210694 206.803278 
L 194.210694 205.770034 
L 194.365038 205.770034 
L 194.388665 203.703546 
L 194.553187 203.703546 
L 194.553187 203.186924 
L 194.669782 203.186924 
L 194.669782 202.670302 
L 195.128699 202.670302 
L 195.128699 202.15368 
L 195.252862 202.15368 
L 195.280961 200.603814 
L 198.215726 200.603814 
L 198.215726 200.087192 
L 198.414737 200.087192 
L 198.424158 198.537326 
L 198.718425 198.537326 
L 198.718425 196.470838 
L 198.902777 196.470838 
L 198.902777 195.437594 
L 199.021593 195.437594 
L 199.112456 193.887728 
L 199.166752 193.887728 
L 199.256882 192.854484 
L 199.382304 192.854484 
L 199.489113 189.23813 
L 199.612921 189.23813 
L 199.612921 188.721508 
L 199.7315 188.721508 
L 199.7315 187.688264 
L 199.871028 187.688264 
L 199.871028 187.171642 
L 201.947577 187.171642 
L 202.028594 185.105154 
L 202.074725 185.105154 
L 202.074725 184.588532 
L 202.204787 184.588532 
L 202.227641 183.038666 
L 202.352819 183.038666 
L 202.44707 181.4888 
L 202.465861 181.4888 
L 202.465861 180.455556 
L 202.786007 180.455556 
L 202.830225 178.389067 
L 203.143965 178.389067 
L 203.194522 177.355823 
L 203.291622 177.355823 
L 203.291622 176.839201 
L 205.11422 176.839201 
L 205.195005 175.289335 
L 205.355489 175.289335 
L 205.361878 173.739469 
L 205.498702 173.739469 
L 205.561985 171.156359 
L 205.687884 171.156359 
L 205.78173 169.606493 
L 205.868876 169.606493 
L 205.868876 169.089871 
L 206.017288 169.089871 
L 206.091035 166.506761 
L 206.176689 166.506761 
L 206.258898 164.956895 
L 207.917117 164.956895 
L 208.011 162.890407 
L 208.175482 162.890407 
L 208.200025 161.340541 
L 208.308695 161.340541 
L 208.389767 158.757431 
L 208.432855 158.757431 
L 208.465103 157.724187 
L 208.593516 157.724187 
L 208.657379 155.141077 
L 208.789696 155.141077 
L 208.789696 154.624455 
L 210.191289 154.624455 
L 210.249698 153.074589 
L 210.346623 153.074589 
L 210.346623 152.557967 
L 210.476643 152.557967 
L 210.498222 150.491479 
L 210.66517 150.491479 
L 210.66517 149.458235 
L 210.778754 149.458235 
L 210.778754 148.424991 
L 210.900994 148.424991 
L 210.966471 146.358503 
L 211.029383 146.358503 
L 211.029383 145.841881 
L 212.260604 145.841881 
L 212.368831 143.775392 
L 212.386086 143.775392 
L 212.491414 142.225526 
L 212.514974 142.225526 
L 212.534228 140.67566 
L 212.742543 140.67566 
L 212.784759 139.642416 
L 212.864697 139.642416 
L 212.894057 138.609172 
L 213.081662 138.609172 
L 213.081662 137.575928 
L 214.114952 137.575928 
L 214.114952 137.059306 
L 214.239768 137.059306 
L 214.239768 136.542684 
L 214.352134 136.542684 
L 214.361788 135.50944 
L 214.527021 135.50944 
L 214.527021 134.992818 
L 214.641402 134.992818 
L 214.739943 132.409708 
L 215.837525 132.409708 
L 215.908473 130.859842 
L 216.003807 130.859842 
L 216.089876 129.309976 
L 216.142368 129.309976 
L 216.191221 128.276732 
L 216.274661 128.276732 
L 216.340441 127.243488 
L 217.504311 127.243488 
L 217.504311 126.726866 
L 217.649424 126.726866 
L 217.694331 124.660378 
L 217.798146 124.660378 
L 217.896611 121.560646 
L 218.744098 121.560646 
L 218.837499 120.01078 
L 218.934897 120.01078 
L 219.039198 118.460914 
L 219.110368 118.460914 
L 219.207766 117.42767 
L 219.26067 117.42767 
L 219.31488 116.394426 
L 220.054237 116.394426 
L 220.135462 115.361182 
L 220.203797 115.361182 
L 220.287118 112.26145 
L 220.433375 112.26145 
L 220.541605 109.678339 
L 220.585259 109.678339 
L 220.585259 109.161717 
L 221.274841 109.161717 
L 221.350714 106.578607 
L 221.440559 106.578607 
L 221.440559 105.028741 
L 221.62919 105.028741 
L 221.695896 102.445631 
L 221.775106 102.445631 
L 221.775106 101.929009 
L 222.478749 101.929009 
L 222.561891 100.379143 
L 222.795781 100.379143 
L 222.883456 98.312655 
L 223.491209 98.312655 
L 223.491209 97.279411 
L 223.627335 97.279411 
L 223.736179 94.696301 
L 223.74988 94.696301 
L 223.74988 94.179679 
L 223.863654 94.179679 
L 223.863654 93.146435 
L 224.574048 93.146435 
L 224.642582 91.596569 
L 224.714098 91.596569 
L 224.718423 90.046703 
L 224.84125 90.046703 
L 224.885219 89.013459 
L 225.522795 89.013459 
L 225.593969 86.946971 
L 225.635099 86.946971 
L 225.74364 85.913727 
L 225.760986 85.913727 
L 225.824106 84.363861 
L 226.384344 84.363861 
L 226.467865 83.330617 
L 226.49725 83.330617 
L 226.592906 81.264129 
L 226.676429 81.264129 
L 226.747022 79.197641 
L 227.260728 79.197641 
L 227.357057 75.581286 
L 227.394327 75.581286 
L 227.394327 75.064664 
L 227.527858 75.064664 
L 227.565696 73.514798 
L 228.085387 73.514798 
L 228.177383 71.44831 
L 228.853084 71.44831 
L 228.961695 70.415066 
L 228.995767 70.415066 
L 229.094209 69.381822 
L 229.179482 69.381822 
L 229.179482 68.8652 
L 229.713023 68.8652 
L 229.770156 67.831956 
L 229.85146 67.831956 
L 229.85146 67.315334 
L 230.410458 67.315334 
L 230.434029 65.765468 
L 230.556097 65.765468 
L 230.634687 64.215602 
L 231.068813 64.215602 
L 231.068813 63.69898 
L 231.265504 63.69898 
L 231.292464 62.149114 
L 231.794224 62.149114 
L 231.794224 61.632492 
L 232.356465 61.632492 
L 232.356465 61.11587 
L 232.546527 61.11587 
L 232.616848 59.049382 
L 233.05816 59.049382 
L 233.05816 58.53276 
L 233.173037 58.53276 
L 233.182465 57.499516 
L 233.652207 57.499516 
L 233.652207 56.982894 
L 234.737307 56.982894 
L 234.843751 55.94965 
L 234.922101 55.94965 
L 234.922101 55.433028 
L 235.306987 55.433028 
L 235.404157 53.36654 
L 235.912884 53.36654 
L 235.912884 52.849918 
L 236.323584 52.849918 
L 236.410898 51.300052 
L 236.491636 51.300052 
L 236.491636 50.78343 
L 236.934742 50.78343 
L 236.934742 50.266808 
L 237.318588 50.266808 
L 237.394803 48.20032 
L 237.436238 48.20032 
L 237.436238 47.683698 
L 238.399888 47.683698 
L 238.438056 46.133832 
L 238.751841 46.133832 
L 238.751841 45.61721 
L 239.213623 45.61721 
L 239.213623 45.100588 
L 239.573608 45.100588 
L 239.617807 44.067344 
L 240.093712 44.067344 
L 240.142574 43.0341 
L 240.434318 43.0341 
L 240.434318 42.517478 
L 240.875671 42.517478 
L 240.960383 40.967611 
L 241.680156 40.967611 
L 241.680156 40.450989 
L 242.424709 40.450989 
L 242.427518 39.417745 
L 242.782322 39.417745 
L 242.782322 38.901123 
L 244.756852 38.901123 
L 244.762487 37.867879 
L 245.378535 37.867879 
L 245.378535 37.351257 
L 245.924953 37.351257 
L 245.924953 36.834635 
L 246.872407 36.834635 
L 246.872407 36.318013 
L 247.137037 36.318013 
L 247.137037 35.801391 
L 247.654224 35.801391 
L 247.654224 35.284769 
L 250.395294 35.284769 
L 250.395294 34.768147 
L 358.8 34.768147 
L 358.8 34.768147 
" style="fill:none;stroke:#6495ed;stroke-linecap:square;stroke-width:1.5;"/>
   </g>
   <g id="line2d_57">
    <defs>
     <path d="M -0 6 
L 6 -6 
L -6 -6 
z
" id="ma9360ff9f3" style="stroke:#6495ed;stroke-linejoin:miter;stroke-width:1.5;"/>
    </defs>
    <g>
     <use style="fill:none;stroke:#6495ed;stroke-linejoin:miter;stroke-width:1.5;" x="121.424184" xlink:href="#ma9360ff9f3" y="283.263337"/>
     <use style="fill:none;stroke:#6495ed;stroke-linejoin:miter;stroke-width:1.5;" x="193.186225" xlink:href="#ma9360ff9f3" y="213.002743"/>
     <use style="fill:none;stroke:#6495ed;stroke-linejoin:miter;stroke-width:1.5;" x="221.440559" xlink:href="#ma9360ff9f3" y="105.028741"/>
     <use style="fill:none;stroke:#6495ed;stroke-linejoin:miter;stroke-width:1.5;" x="242.782322" xlink:href="#ma9360ff9f3" y="38.901123"/>
     <use style="fill:none;stroke:#6495ed;stroke-linejoin:miter;stroke-width:1.5;" x="250.395294" xlink:href="#ma9360ff9f3" y="34.768147"/>
     <use style="fill:none;stroke:#6495ed;stroke-linejoin:miter;stroke-width:1.5;" x="358.8" xlink:href="#ma9360ff9f3" y="34.768147"/>
    </g>
   </g>
   <g id="line2d_58"/>
   <g id="line2d_59">
    <path clip-path="url(#pcadac93bce)" d="M 172.715846 249.166284 
" style="fill:none;stroke:#6495ed;stroke-linecap:square;stroke-width:1.5;"/>
    <defs>
     <path d="M -12 12 
L 12 -12 
M -12 -12 
L 12 12 
" id="m51503beb5d" style="stroke:#6495ed;stroke-width:3;"/>
    </defs>
    <g clip-path="url(#pcadac93bce)">
     <use style="fill:#6495ed;stroke:#6495ed;stroke-width:3;" x="172.715846" xlink:href="#m51503beb5d" y="249.166284"/>
    </g>
   </g>
   <g id="line2d_60">
    <defs>
     <path d="M 0 1.5 
C 0.397805 1.5 0.77937 1.341951 1.06066 1.06066 
C 1.341951 0.77937 1.5 0.397805 1.5 0 
C 1.5 -0.397805 1.341951 -0.77937 1.06066 -1.06066 
C 0.77937 -1.341951 0.397805 -1.5 0 -1.5 
C -0.397805 -1.5 -0.77937 -1.341951 -1.06066 -1.06066 
C -1.341951 -0.77937 -1.5 -0.397805 -1.5 0 
C -1.5 0.397805 -1.341951 0.77937 -1.06066 1.06066 
C -0.77937 1.341951 -0.397805 1.5 0 1.5 
z
" id="m4288f1a3ad" style="stroke:#ff0000;"/>
    </defs>
    <g>
     <use style="fill:#ff0000;stroke:#ff0000;" x="108.685114" xlink:href="#m4288f1a3ad" y="34.768147"/>
     <use style="fill:#ff0000;stroke:#ff0000;" x="108.685114" xlink:href="#m4288f1a3ad" y="34.768147"/>
    </g>
   </g>
   <g id="line2d_61">
    <path d="M 51.169868 298.245375 
L 51.169868 292.045911 
L 63.555102 292.045911 
L 63.555102 288.429557 
L 70.8 288.429557 
L 70.8 282.230093 
L 75.940337 282.230093 
L 75.940337 271.897652 
L 79.927491 271.897652 
L 79.927491 269.314542 
L 83.185234 269.314542 
L 83.185234 248.649662 
L 85.939616 248.649662 
L 85.939616 229.018025 
L 88.325571 229.018025 
L 88.325571 199.57057 
L 90.430132 199.57057 
L 90.430132 134.476196 
L 94.015739 134.476196 
L 94.015739 102.962253 
L 95.570468 102.962253 
L 95.570468 83.330617 
L 97.000681 83.330617 
L 97.000681 82.813995 
L 99.557623 82.813995 
L 99.557623 70.415066 
L 100.710805 70.415066 
L 100.710805 69.898444 
L 104.69796 69.898444 
L 104.69796 53.36654 
L 107.195242 53.36654 
L 107.195242 52.333296 
L 108.685114 52.333296 
L 108.685114 34.768147 
L 358.8 34.768147 
" style="fill:none;stroke:#ff0000;stroke-linecap:square;stroke-width:1.5;"/>
   </g>
   <g id="line2d_62">
    <defs>
     <path d="M 0 -6 
L -5.196152 -3 
L -5.196152 3 
L -0 6 
L 5.196152 3 
L 5.196152 -3 
z
" id="md9affef9c4" style="stroke:#ff0000;stroke-linejoin:miter;stroke-width:1.5;"/>
    </defs>
    <g>
     <use style="fill:none;stroke:#ff0000;stroke-linejoin:miter;stroke-width:1.5;" x="85.939616" xlink:href="#md9affef9c4" y="248.649662"/>
     <use style="fill:none;stroke:#ff0000;stroke-linejoin:miter;stroke-width:1.5;" x="94.015739" xlink:href="#md9affef9c4" y="134.476196"/>
     <use style="fill:none;stroke:#ff0000;stroke-linejoin:miter;stroke-width:1.5;" x="108.685114" xlink:href="#md9affef9c4" y="52.333296"/>
     <use style="fill:none;stroke:#ff0000;stroke-linejoin:miter;stroke-width:1.5;" x="108.685114" xlink:href="#md9affef9c4" y="34.768147"/>
     <use style="fill:none;stroke:#ff0000;stroke-linejoin:miter;stroke-width:1.5;" x="108.685114" xlink:href="#md9affef9c4" y="34.768147"/>
     <use style="fill:none;stroke:#ff0000;stroke-linejoin:miter;stroke-width:1.5;" x="358.8" xlink:href="#md9affef9c4" y="34.768147"/>
    </g>
   </g>
   <g id="line2d_63"/>
   <g id="line2d_64">
    <path d="M 358.8 272.414274 
L 390.48 292.97583 
" style="fill:none;stroke:#ff00ff;stroke-linecap:square;stroke-width:1.5;"/>
    <g>
     <use style="fill:none;stroke:#ff00ff;stroke-linejoin:miter;stroke-width:1.5;" x="358.8" xlink:href="#me5518c5cb5" y="272.414274"/>
     <use style="fill:none;stroke:#ff00ff;stroke-linejoin:miter;stroke-width:1.5;" x="390.48" xlink:href="#me5518c5cb5" y="292.97583"/>
    </g>
   </g>
   <g id="line2d_65">
    <path d="M 358.8 241.416953 
L 390.48 229.741296 
" style="fill:none;stroke:#ffa500;stroke-linecap:square;stroke-width:1.5;"/>
    <g>
     <use style="fill:none;stroke:#ffa500;stroke-linejoin:bevel;stroke-width:1.5;" x="358.8" xlink:href="#m93c075151d" y="241.416953"/>
     <use style="fill:none;stroke:#ffa500;stroke-linejoin:bevel;stroke-width:1.5;" x="390.48" xlink:href="#m93c075151d" y="229.741296"/>
    </g>
   </g>
   <g id="line2d_66">
    <path d="M 358.8 34.768147 
L 390.48 166.506761 
" style="fill:none;stroke:#6495ed;stroke-linecap:square;stroke-width:1.5;"/>
    <g>
     <use style="fill:none;stroke:#6495ed;stroke-linejoin:miter;stroke-width:1.5;" x="358.8" xlink:href="#ma9360ff9f3" y="34.768147"/>
     <use style="fill:none;stroke:#6495ed;stroke-linejoin:miter;stroke-width:1.5;" x="390.48" xlink:href="#ma9360ff9f3" y="166.506761"/>
    </g>
   </g>
   <g id="line2d_67">
    <path d="M 358.8 34.768147 
L 390.48 103.272226 
" style="fill:none;stroke:#000080;stroke-linecap:square;stroke-width:1.5;"/>
    <g>
     <use style="fill:none;stroke:#000080;stroke-width:1.5;" x="358.8" xlink:href="#m6ff59bb6e4" y="34.768147"/>
     <use style="fill:none;stroke:#000080;stroke-width:1.5;" x="390.48" xlink:href="#m6ff59bb6e4" y="103.272226"/>
    </g>
   </g>
   <g id="line2d_68">
    <path d="M 358.8 34.768147 
L 390.48 40.037692 
" style="fill:none;stroke:#ff0000;stroke-linecap:square;stroke-width:1.5;"/>
    <g>
     <use style="fill:none;stroke:#ff0000;stroke-linejoin:miter;stroke-width:1.5;" x="358.8" xlink:href="#md9affef9c4" y="34.768147"/>
     <use style="fill:none;stroke:#ff0000;stroke-linejoin:miter;stroke-width:1.5;" x="390.48" xlink:href="#md9affef9c4" y="40.037692"/>
    </g>
   </g>
   <g id="line2d_69">
    <path d="M 358.8 298.245375 
L 358.8 34.768147 
" style="fill:none;stroke:#000000;stroke-linecap:square;stroke-width:1.5;"/>
   </g>
   <g id="patch_3">
    <path d="M 70.8 298.245375 
L 70.8 32.133375 
" style="fill:none;stroke:#000000;stroke-linecap:square;stroke-linejoin:miter;stroke-width:0.8;"/>
   </g>
   <g id="patch_4">
    <path d="M 427.92 298.245375 
L 427.92 32.133375 
" style="fill:none;stroke:#000000;stroke-linecap:square;stroke-linejoin:miter;stroke-width:0.8;"/>
   </g>
   <g id="patch_5">
    <path d="M 70.8 298.245375 
L 427.92 298.245375 
" style="fill:none;stroke:#000000;stroke-linecap:square;stroke-linejoin:miter;stroke-width:0.8;"/>
   </g>
   <g id="patch_6">
    <path d="M 70.8 32.133375 
L 427.92 32.133375 
" style="fill:none;stroke:#000000;stroke-linecap:square;stroke-linejoin:miter;stroke-width:0.8;"/>
   </g>
   <g id="text_14">
    <!-- f2 -->
    <g transform="translate(396.24 297.114893)scale(0.15 -0.15)">
     <use xlink:href="#DejaVuSans-66"/>
     <use x="35.205078" xlink:href="#DejaVuSans-32"/>
    </g>
   </g>
   <g id="text_15">
    <!-- f3 -->
    <defs>
     <path d="M 40.578125 39.3125 
Q 47.65625 37.796875 51.625 33 
Q 55.609375 28.21875 55.609375 21.1875 
Q 55.609375 10.40625 48.1875 4.484375 
Q 40.765625 -1.421875 27.09375 -1.421875 
Q 22.515625 -1.421875 17.65625 -0.515625 
Q 12.796875 0.390625 7.625 2.203125 
L 7.625 11.71875 
Q 11.71875 9.328125 16.59375 8.109375 
Q 21.484375 6.890625 26.8125 6.890625 
Q 36.078125 6.890625 40.9375 10.546875 
Q 45.796875 14.203125 45.796875 21.1875 
Q 45.796875 27.640625 41.28125 31.265625 
Q 36.765625 34.90625 28.71875 34.90625 
L 20.21875 34.90625 
L 20.21875 43.015625 
L 29.109375 43.015625 
Q 36.375 43.015625 40.234375 45.921875 
Q 44.09375 48.828125 44.09375 54.296875 
Q 44.09375 59.90625 40.109375 62.90625 
Q 36.140625 65.921875 28.71875 65.921875 
Q 24.65625 65.921875 20.015625 65.03125 
Q 15.375 64.15625 9.8125 62.3125 
L 9.8125 71.09375 
Q 15.4375 72.65625 20.34375 73.4375 
Q 25.25 74.21875 29.59375 74.21875 
Q 40.828125 74.21875 47.359375 69.109375 
Q 53.90625 64.015625 53.90625 55.328125 
Q 53.90625 49.265625 50.4375 45.09375 
Q 46.96875 40.921875 40.578125 39.3125 
" id="DejaVuSans-33"/>
    </defs>
    <g transform="translate(396.24 233.880358)scale(0.15 -0.15)">
     <use xlink:href="#DejaVuSans-66"/>
     <use x="35.205078" xlink:href="#DejaVuSans-33"/>
    </g>
   </g>
   <g id="text_16">
    <!-- f4 -->
    <g transform="translate(396.24 170.645824)scale(0.15 -0.15)">
     <use xlink:href="#DejaVuSans-66"/>
     <use x="35.205078" xlink:href="#DejaVuSans-34"/>
    </g>
   </g>
   <g id="text_17">
    <!-- f1 -->
    <g transform="translate(396.24 107.411289)scale(0.15 -0.15)">
     <use xlink:href="#DejaVuSans-66"/>
     <use x="35.205078" xlink:href="#DejaVuSans-31"/>
    </g>
   </g>
   <g id="text_18">
    <!-- f5 -->
    <defs>
     <path d="M 10.796875 72.90625 
L 49.515625 72.90625 
L 49.515625 64.59375 
L 19.828125 64.59375 
L 19.828125 46.734375 
Q 21.96875 47.46875 24.109375 47.828125 
Q 26.265625 48.1875 28.421875 48.1875 
Q 40.625 48.1875 47.75 41.5 
Q 54.890625 34.8125 54.890625 23.390625 
Q 54.890625 11.625 47.5625 5.09375 
Q 40.234375 -1.421875 26.90625 -1.421875 
Q 22.3125 -1.421875 17.546875 -0.640625 
Q 12.796875 0.140625 7.71875 1.703125 
L 7.71875 11.625 
Q 12.109375 9.234375 16.796875 8.0625 
Q 21.484375 6.890625 26.703125 6.890625 
Q 35.15625 6.890625 40.078125 11.328125 
Q 45.015625 15.765625 45.015625 23.390625 
Q 45.015625 31 40.078125 35.4375 
Q 35.15625 39.890625 26.703125 39.890625 
Q 22.75 39.890625 18.8125 39.015625 
Q 14.890625 38.140625 10.796875 36.28125 
z
" id="DejaVuSans-35"/>
    </defs>
    <g transform="translate(396.24 44.176754)scale(0.15 -0.15)">
     <use xlink:href="#DejaVuSans-66"/>
     <use x="35.205078" xlink:href="#DejaVuSans-35"/>
    </g>
   </g>
   <g id="text_19">
    <!-- bbob -->
    <defs>
     <path d="M 48.6875 27.296875 
Q 48.6875 37.203125 44.609375 42.84375 
Q 40.53125 48.484375 33.40625 48.484375 
Q 26.265625 48.484375 22.1875 42.84375 
Q 18.109375 37.203125 18.109375 27.296875 
Q 18.109375 17.390625 22.1875 11.75 
Q 26.265625 6.109375 33.40625 6.109375 
Q 40.53125 6.109375 44.609375 11.75 
Q 48.6875 17.390625 48.6875 27.296875 
M 18.109375 46.390625 
Q 20.953125 51.265625 25.265625 53.625 
Q 29.59375 56 35.59375 56 
Q 45.5625 56 51.78125 48.09375 
Q 58.015625 40.1875 58.015625 27.296875 
Q 58.015625 14.40625 51.78125 6.484375 
Q 45.5625 -1.421875 35.59375 -1.421875 
Q 29.59375 -1.421875 25.265625 0.953125 
Q 20.953125 3.328125 18.109375 8.203125 
L 18.109375 0 
L 9.078125 0 
L 9.078125 75.984375 
L 18.109375 75.984375 
z
" id="DejaVuSans-62"/>
    </defs>
    <g transform="translate(74.3712 50.114612)scale(0.1666 -0.1666)">
     <use xlink:href="#DejaVuSans-62"/>
     <use x="63.476562" xlink:href="#DejaVuSans-62"/>
     <use x="126.953125" xlink:href="#DejaVuSans-6f"/>
     <use x="188.134766" xlink:href="#DejaVuSans-62"/>
    </g>
    <!-- Separable functions, 3-D -->
    <defs>
     <path d="M 53.515625 70.515625 
L 53.515625 60.890625 
Q 47.90625 63.578125 42.921875 64.890625 
Q 37.9375 66.21875 33.296875 66.21875 
Q 25.25 66.21875 20.875 63.09375 
Q 16.5 59.96875 16.5 54.203125 
Q 16.5 49.359375 19.40625 46.890625 
Q 22.3125 44.4375 30.421875 42.921875 
L 36.375 41.703125 
Q 47.40625 39.59375 52.65625 34.296875 
Q 57.90625 29 57.90625 20.125 
Q 57.90625 9.515625 50.796875 4.046875 
Q 43.703125 -1.421875 29.984375 -1.421875 
Q 24.8125 -1.421875 18.96875 -0.25 
Q 13.140625 0.921875 6.890625 3.21875 
L 6.890625 13.375 
Q 12.890625 10.015625 18.65625 8.296875 
Q 24.421875 6.59375 29.984375 6.59375 
Q 38.421875 6.59375 43.015625 9.90625 
Q 47.609375 13.234375 47.609375 19.390625 
Q 47.609375 24.75 44.3125 27.78125 
Q 41.015625 30.8125 33.5 32.328125 
L 27.484375 33.5 
Q 16.453125 35.6875 11.515625 40.375 
Q 6.59375 45.0625 6.59375 53.421875 
Q 6.59375 63.09375 13.40625 68.65625 
Q 20.21875 74.21875 32.171875 74.21875 
Q 37.3125 74.21875 42.625 73.28125 
Q 47.953125 72.359375 53.515625 70.515625 
" id="DejaVuSans-53"/>
     <path d="M 11.71875 12.40625 
L 22.015625 12.40625 
L 22.015625 4 
L 14.015625 -11.625 
L 7.71875 -11.625 
L 11.71875 4 
z
" id="DejaVuSans-2c"/>
     <path d="M 19.671875 64.796875 
L 19.671875 8.109375 
L 31.59375 8.109375 
Q 46.6875 8.109375 53.6875 14.9375 
Q 60.6875 21.78125 60.6875 36.53125 
Q 60.6875 51.171875 53.6875 57.984375 
Q 46.6875 64.796875 31.59375 64.796875 
z
M 9.8125 72.90625 
L 30.078125 72.90625 
Q 51.265625 72.90625 61.171875 64.09375 
Q 71.09375 55.28125 71.09375 36.53125 
Q 71.09375 17.671875 61.125 8.828125 
Q 51.171875 0 30.078125 0 
L 9.8125 0 
z
" id="DejaVuSans-44"/>
    </defs>
    <g transform="translate(74.3712 68.770168)scale(0.1666 -0.1666)">
     <use xlink:href="#DejaVuSans-53"/>
     <use x="63.476562" xlink:href="#DejaVuSans-65"/>
     <use x="125" xlink:href="#DejaVuSans-70"/>
     <use x="188.476562" xlink:href="#DejaVuSans-61"/>
     <use x="249.755859" xlink:href="#DejaVuSans-72"/>
     <use x="290.869141" xlink:href="#DejaVuSans-61"/>
     <use x="352.148438" xlink:href="#DejaVuSans-62"/>
     <use x="415.625" xlink:href="#DejaVuSans-6c"/>
     <use x="443.408203" xlink:href="#DejaVuSans-65"/>
     <use x="504.931641" xlink:href="#DejaVuSans-20"/>
     <use x="536.71875" xlink:href="#DejaVuSans-66"/>
     <use x="571.923828" xlink:href="#DejaVuSans-75"/>
     <use x="635.302734" xlink:href="#DejaVuSans-6e"/>
     <use x="698.681641" xlink:href="#DejaVuSans-63"/>
     <use x="753.662109" xlink:href="#DejaVuSans-74"/>
     <use x="792.871094" xlink:href="#DejaVuSans-69"/>
     <use x="820.654297" xlink:href="#DejaVuSans-6f"/>
     <use x="881.835938" xlink:href="#DejaVuSans-6e"/>
     <use x="945.214844" xlink:href="#DejaVuSans-73"/>
     <use x="997.314453" xlink:href="#DejaVuSans-2c"/>
     <use x="1029.101562" xlink:href="#DejaVuSans-20"/>
     <use x="1060.888672" xlink:href="#DejaVuSans-33"/>
     <use x="1124.511719" xlink:href="#DejaVuSans-2d"/>
     <use x="1160.595703" xlink:href="#DejaVuSans-44"/>
    </g>
    <!-- 51 targets in 100..1e-08 -->
    <g transform="translate(74.3712 87.425723)scale(0.1666 -0.1666)">
     <use xlink:href="#DejaVuSans-35"/>
     <use x="63.623047" xlink:href="#DejaVuSans-31"/>
     <use x="127.246094" xlink:href="#DejaVuSans-20"/>
     <use x="159.033203" xlink:href="#DejaVuSans-74"/>
     <use x="198.242188" xlink:href="#DejaVuSans-61"/>
     <use x="259.521484" xlink:href="#DejaVuSans-72"/>
     <use x="300.619141" xlink:href="#DejaVuSans-67"/>
     <use x="364.095703" xlink:href="#DejaVuSans-65"/>
     <use x="425.619141" xlink:href="#DejaVuSans-74"/>
     <use x="464.828125" xlink:href="#DejaVuSans-73"/>
     <use x="516.927734" xlink:href="#DejaVuSans-20"/>
     <use x="548.714844" xlink:href="#DejaVuSans-69"/>
     <use x="576.498047" xlink:href="#DejaVuSans-6e"/>
     <use x="639.876953" xlink:href="#DejaVuSans-20"/>
     <use x="671.664062" xlink:href="#DejaVuSans-31"/>
     <use x="735.287109" xlink:href="#DejaVuSans-30"/>
     <use x="798.910156" xlink:href="#DejaVuSans-30"/>
     <use x="862.533203" xlink:href="#DejaVuSans-2e"/>
     <use x="894.320312" xlink:href="#DejaVuSans-2e"/>
     <use x="926.107422" xlink:href="#DejaVuSans-31"/>
     <use x="989.730469" xlink:href="#DejaVuSans-65"/>
     <use x="1051.253906" xlink:href="#DejaVuSans-2d"/>
     <use x="1087.337891" xlink:href="#DejaVuSans-30"/>
     <use x="1150.960938" xlink:href="#DejaVuSans-38"/>
    </g>
    <!-- 15 instances -->
    <g transform="translate(74.3712 106.081279)scale(0.1666 -0.1666)">
     <use xlink:href="#DejaVuSans-31"/>
     <use x="63.623047" xlink:href="#DejaVuSans-35"/>
     <use x="127.246094" xlink:href="#DejaVuSans-20"/>
     <use x="159.033203" xlink:href="#DejaVuSans-69"/>
     <use x="186.816406" xlink:href="#DejaVuSans-6e"/>
     <use x="250.195312" xlink:href="#DejaVuSans-73"/>
     <use x="302.294922" xlink:href="#DejaVuSans-74"/>
     <use x="341.503906" xlink:href="#DejaVuSans-61"/>
     <use x="402.783203" xlink:href="#DejaVuSans-6e"/>
     <use x="466.162109" xlink:href="#DejaVuSans-63"/>
     <use x="521.142578" xlink:href="#DejaVuSans-65"/>
     <use x="582.666016" xlink:href="#DejaVuSans-73"/>
    </g>
   </g>
   <g id="text_20">
    <!-- v2.1 -->
    <g style="fill:#808080;" transform="translate(238.449063 293.504568)scale(0.1 -0.1)">
     <use xlink:href="#DejaVuSans-76"/>
     <use x="59.179688" xlink:href="#DejaVuSans-32"/>
     <use x="122.802734" xlink:href="#DejaVuSans-2e"/>
     <use x="154.589844" xlink:href="#DejaVuSans-31"/>
    </g>
   </g>
  </g>
 </g>
 <defs>
  <clipPath id="pcadac93bce">
   <rect height="266.112" width="357.12" x="70.8" y="32.133375"/>
  </clipPath>
 </defs>
</svg>
