<?xml version="1.0" encoding="utf-8" standalone="no"?>
<!DOCTYPE svg PUBLIC "-//W3C//DTD SVG 1.1//EN"
  "http://www.w3.org/Graphics/SVG/1.1/DTD/svg11.dtd">
<!-- Created with matplotlib (http://matplotlib.org/) -->
<svg height="353pt" version="1.1" viewBox="0 0 438 353" width="438pt" xmlns="http://www.w3.org/2000/svg" xmlns:xlink="http://www.w3.org/1999/xlink">
 <defs>
  <style type="text/css">
*{stroke-linecap:butt;stroke-linejoin:round;}
  </style>
 </defs>
 <g id="figure_1">
  <g id="patch_1">
   <path d="M 0 353.22225 
L 438.62 353.22225 
L 438.62 0 
L 0 0 
z
" style="fill:#ffffff;"/>
  </g>
  <g id="axes_1">
   <g id="patch_2">
    <path d="M 70.8 298.245375 
L 427.92 298.245375 
L 427.92 32.133375 
L 70.8 32.133375 
z
" style="fill:#ffffff;"/>
   </g>
   <g id="matplotlib.axis_1">
    <g id="xtick_1">
     <g id="line2d_1">
      <path clip-path="url(#pb5261df816)" d="M 70.8 298.245375 
L 70.8 32.133375 
" style="fill:none;stroke:#b0b0b0;stroke-linecap:square;stroke-width:0.8;"/>
     </g>
     <g id="line2d_2">
      <defs>
       <path d="M 0 0 
L 0 3.5 
" id="m4f4d5b8f5a" style="stroke:#000000;stroke-width:0.8;"/>
      </defs>
      <g>
       <use style="stroke:#000000;stroke-width:0.8;" x="70.8" xlink:href="#m4f4d5b8f5a" y="298.245375"/>
      </g>
     </g>
     <g id="text_1">
      <!-- 0 -->
      <defs>
       <path d="M 31.78125 66.40625 
Q 24.171875 66.40625 20.328125 58.90625 
Q 16.5 51.421875 16.5 36.375 
Q 16.5 21.390625 20.328125 13.890625 
Q 24.171875 6.390625 31.78125 6.390625 
Q 39.453125 6.390625 43.28125 13.890625 
Q 47.125 21.390625 47.125 36.375 
Q 47.125 51.421875 43.28125 58.90625 
Q 39.453125 66.40625 31.78125 66.40625 
M 31.78125 74.21875 
Q 44.046875 74.21875 50.515625 64.515625 
Q 56.984375 54.828125 56.984375 36.375 
Q 56.984375 17.96875 50.515625 8.265625 
Q 44.046875 -1.421875 31.78125 -1.421875 
Q 19.53125 -1.421875 13.0625 8.265625 
Q 6.59375 17.96875 6.59375 36.375 
Q 6.59375 54.828125 13.0625 64.515625 
Q 19.53125 74.21875 31.78125 74.21875 
" id="DejaVuSans-30"/>
      </defs>
      <g transform="translate(64.4375 320.44225)scale(0.2 -0.2)">
       <use xlink:href="#DejaVuSans-30"/>
      </g>
     </g>
    </g>
    <g id="xtick_2">
     <g id="line2d_3">
      <path clip-path="url(#pb5261df816)" d="M 153.085714 298.245375 
L 153.085714 32.133375 
" style="fill:none;stroke:#b0b0b0;stroke-linecap:square;stroke-width:0.8;"/>
     </g>
     <g id="line2d_4">
      <g>
       <use style="stroke:#000000;stroke-width:0.8;" x="153.085714" xlink:href="#m4f4d5b8f5a" y="298.245375"/>
      </g>
     </g>
     <g id="text_2">
      <!-- 2 -->
      <defs>
       <path d="M 19.1875 8.296875 
L 53.609375 8.296875 
L 53.609375 0 
L 7.328125 0 
L 7.328125 8.296875 
Q 12.9375 14.109375 22.625 23.890625 
Q 32.328125 33.6875 34.8125 36.53125 
Q 39.546875 41.84375 41.421875 45.53125 
Q 43.3125 49.21875 43.3125 52.78125 
Q 43.3125 58.59375 39.234375 62.25 
Q 35.15625 65.921875 28.609375 65.921875 
Q 23.96875 65.921875 18.8125 64.3125 
Q 13.671875 62.703125 7.8125 59.421875 
L 7.8125 69.390625 
Q 13.765625 71.78125 18.9375 73 
Q 24.125 74.21875 28.421875 74.21875 
Q 39.75 74.21875 46.484375 68.546875 
Q 53.21875 62.890625 53.21875 53.421875 
Q 53.21875 48.921875 51.53125 44.890625 
Q 49.859375 40.875 45.40625 35.40625 
Q 44.1875 33.984375 37.640625 27.21875 
Q 31.109375 20.453125 19.1875 8.296875 
" id="DejaVuSans-32"/>
      </defs>
      <g transform="translate(146.723214 320.44225)scale(0.2 -0.2)">
       <use xlink:href="#DejaVuSans-32"/>
      </g>
     </g>
    </g>
    <g id="xtick_3">
     <g id="line2d_5">
      <path clip-path="url(#pb5261df816)" d="M 235.371429 298.245375 
L 235.371429 32.133375 
" style="fill:none;stroke:#b0b0b0;stroke-linecap:square;stroke-width:0.8;"/>
     </g>
     <g id="line2d_6">
      <g>
       <use style="stroke:#000000;stroke-width:0.8;" x="235.371429" xlink:href="#m4f4d5b8f5a" y="298.245375"/>
      </g>
     </g>
     <g id="text_3">
      <!-- 4 -->
      <defs>
       <path d="M 37.796875 64.3125 
L 12.890625 25.390625 
L 37.796875 25.390625 
z
M 35.203125 72.90625 
L 47.609375 72.90625 
L 47.609375 25.390625 
L 58.015625 25.390625 
L 58.015625 17.1875 
L 47.609375 17.1875 
L 47.609375 0 
L 37.796875 0 
L 37.796875 17.1875 
L 4.890625 17.1875 
L 4.890625 26.703125 
z
" id="DejaVuSans-34"/>
      </defs>
      <g transform="translate(229.008929 320.44225)scale(0.2 -0.2)">
       <use xlink:href="#DejaVuSans-34"/>
      </g>
     </g>
    </g>
    <g id="xtick_4">
     <g id="line2d_7">
      <path clip-path="url(#pb5261df816)" d="M 317.657143 298.245375 
L 317.657143 32.133375 
" style="fill:none;stroke:#b0b0b0;stroke-linecap:square;stroke-width:0.8;"/>
     </g>
     <g id="line2d_8">
      <g>
       <use style="stroke:#000000;stroke-width:0.8;" x="317.657143" xlink:href="#m4f4d5b8f5a" y="298.245375"/>
      </g>
     </g>
     <g id="text_4">
      <!-- 6 -->
      <defs>
       <path d="M 33.015625 40.375 
Q 26.375 40.375 22.484375 35.828125 
Q 18.609375 31.296875 18.609375 23.390625 
Q 18.609375 15.53125 22.484375 10.953125 
Q 26.375 6.390625 33.015625 6.390625 
Q 39.65625 6.390625 43.53125 10.953125 
Q 47.40625 15.53125 47.40625 23.390625 
Q 47.40625 31.296875 43.53125 35.828125 
Q 39.65625 40.375 33.015625 40.375 
M 52.59375 71.296875 
L 52.59375 62.3125 
Q 48.875 64.0625 45.09375 64.984375 
Q 41.3125 65.921875 37.59375 65.921875 
Q 27.828125 65.921875 22.671875 59.328125 
Q 17.53125 52.734375 16.796875 39.40625 
Q 19.671875 43.65625 24.015625 45.921875 
Q 28.375 48.1875 33.59375 48.1875 
Q 44.578125 48.1875 50.953125 41.515625 
Q 57.328125 34.859375 57.328125 23.390625 
Q 57.328125 12.15625 50.6875 5.359375 
Q 44.046875 -1.421875 33.015625 -1.421875 
Q 20.359375 -1.421875 13.671875 8.265625 
Q 6.984375 17.96875 6.984375 36.375 
Q 6.984375 53.65625 15.1875 63.9375 
Q 23.390625 74.21875 37.203125 74.21875 
Q 40.921875 74.21875 44.703125 73.484375 
Q 48.484375 72.75 52.59375 71.296875 
" id="DejaVuSans-36"/>
      </defs>
      <g transform="translate(311.294643 320.44225)scale(0.2 -0.2)">
       <use xlink:href="#DejaVuSans-36"/>
      </g>
     </g>
    </g>
    <g id="xtick_5">
     <g id="line2d_9">
      <path clip-path="url(#pb5261df816)" d="M 399.942857 298.245375 
L 399.942857 32.133375 
" style="fill:none;stroke:#b0b0b0;stroke-linecap:square;stroke-width:0.8;"/>
     </g>
     <g id="line2d_10">
      <g>
       <use style="stroke:#000000;stroke-width:0.8;" x="399.942857" xlink:href="#m4f4d5b8f5a" y="298.245375"/>
      </g>
     </g>
     <g id="text_5">
      <!-- 8 -->
      <defs>
       <path d="M 31.78125 34.625 
Q 24.75 34.625 20.71875 30.859375 
Q 16.703125 27.09375 16.703125 20.515625 
Q 16.703125 13.921875 20.71875 10.15625 
Q 24.75 6.390625 31.78125 6.390625 
Q 38.8125 6.390625 42.859375 10.171875 
Q 46.921875 13.96875 46.921875 20.515625 
Q 46.921875 27.09375 42.890625 30.859375 
Q 38.875 34.625 31.78125 34.625 
M 21.921875 38.8125 
Q 15.578125 40.375 12.03125 44.71875 
Q 8.5 49.078125 8.5 55.328125 
Q 8.5 64.0625 14.71875 69.140625 
Q 20.953125 74.21875 31.78125 74.21875 
Q 42.671875 74.21875 48.875 69.140625 
Q 55.078125 64.0625 55.078125 55.328125 
Q 55.078125 49.078125 51.53125 44.71875 
Q 48 40.375 41.703125 38.8125 
Q 48.828125 37.15625 52.796875 32.3125 
Q 56.78125 27.484375 56.78125 20.515625 
Q 56.78125 9.90625 50.3125 4.234375 
Q 43.84375 -1.421875 31.78125 -1.421875 
Q 19.734375 -1.421875 13.25 4.234375 
Q 6.78125 9.90625 6.78125 20.515625 
Q 6.78125 27.484375 10.78125 32.3125 
Q 14.796875 37.15625 21.921875 38.8125 
M 18.3125 54.390625 
Q 18.3125 48.734375 21.84375 45.5625 
Q 25.390625 42.390625 31.78125 42.390625 
Q 38.140625 42.390625 41.71875 45.5625 
Q 45.3125 48.734375 45.3125 54.390625 
Q 45.3125 60.0625 41.71875 63.234375 
Q 38.140625 66.40625 31.78125 66.40625 
Q 25.390625 66.40625 21.84375 63.234375 
Q 18.3125 60.0625 18.3125 54.390625 
" id="DejaVuSans-38"/>
      </defs>
      <g transform="translate(393.580357 320.44225)scale(0.2 -0.2)">
       <use xlink:href="#DejaVuSans-38"/>
      </g>
     </g>
    </g>
    <g id="xtick_6">
     <g id="line2d_11">
      <defs>
       <path d="M 0 0 
L 0 2 
" id="md5ca965fcf" style="stroke:#000000;stroke-width:0.6;"/>
      </defs>
      <g>
       <use style="stroke:#000000;stroke-width:0.6;" x="83.185234" xlink:href="#md5ca965fcf" y="298.245375"/>
      </g>
     </g>
    </g>
    <g id="xtick_7">
     <g id="line2d_12">
      <g>
       <use style="stroke:#000000;stroke-width:0.6;" x="95.570468" xlink:href="#md5ca965fcf" y="298.245375"/>
      </g>
     </g>
    </g>
    <g id="xtick_8">
     <g id="line2d_13">
      <g>
       <use style="stroke:#000000;stroke-width:0.6;" x="102.815366" xlink:href="#md5ca965fcf" y="298.245375"/>
      </g>
     </g>
    </g>
    <g id="xtick_9">
     <g id="line2d_14">
      <g>
       <use style="stroke:#000000;stroke-width:0.6;" x="107.955702" xlink:href="#md5ca965fcf" y="298.245375"/>
      </g>
     </g>
    </g>
    <g id="xtick_10">
     <g id="line2d_15">
      <g>
       <use style="stroke:#000000;stroke-width:0.6;" x="165.470948" xlink:href="#md5ca965fcf" y="298.245375"/>
      </g>
     </g>
    </g>
    <g id="xtick_11">
     <g id="line2d_16">
      <g>
       <use style="stroke:#000000;stroke-width:0.6;" x="177.856183" xlink:href="#md5ca965fcf" y="298.245375"/>
      </g>
     </g>
    </g>
    <g id="xtick_12">
     <g id="line2d_17">
      <g>
       <use style="stroke:#000000;stroke-width:0.6;" x="185.10108" xlink:href="#md5ca965fcf" y="298.245375"/>
      </g>
     </g>
    </g>
    <g id="xtick_13">
     <g id="line2d_18">
      <g>
       <use style="stroke:#000000;stroke-width:0.6;" x="190.241417" xlink:href="#md5ca965fcf" y="298.245375"/>
      </g>
     </g>
    </g>
    <g id="xtick_14">
     <g id="line2d_19">
      <g>
       <use style="stroke:#000000;stroke-width:0.6;" x="247.756663" xlink:href="#md5ca965fcf" y="298.245375"/>
      </g>
     </g>
    </g>
    <g id="xtick_15">
     <g id="line2d_20">
      <g>
       <use style="stroke:#000000;stroke-width:0.6;" x="260.141897" xlink:href="#md5ca965fcf" y="298.245375"/>
      </g>
     </g>
    </g>
    <g id="xtick_16">
     <g id="line2d_21">
      <g>
       <use style="stroke:#000000;stroke-width:0.6;" x="267.386794" xlink:href="#md5ca965fcf" y="298.245375"/>
      </g>
     </g>
    </g>
    <g id="xtick_17">
     <g id="line2d_22">
      <g>
       <use style="stroke:#000000;stroke-width:0.6;" x="272.527131" xlink:href="#md5ca965fcf" y="298.245375"/>
      </g>
     </g>
    </g>
    <g id="xtick_18">
     <g id="line2d_23">
      <g>
       <use style="stroke:#000000;stroke-width:0.6;" x="330.042377" xlink:href="#md5ca965fcf" y="298.245375"/>
      </g>
     </g>
    </g>
    <g id="xtick_19">
     <g id="line2d_24">
      <g>
       <use style="stroke:#000000;stroke-width:0.6;" x="342.427611" xlink:href="#md5ca965fcf" y="298.245375"/>
      </g>
     </g>
    </g>
    <g id="xtick_20">
     <g id="line2d_25">
      <g>
       <use style="stroke:#000000;stroke-width:0.6;" x="349.672509" xlink:href="#md5ca965fcf" y="298.245375"/>
      </g>
     </g>
    </g>
    <g id="xtick_21">
     <g id="line2d_26">
      <g>
       <use style="stroke:#000000;stroke-width:0.6;" x="354.812845" xlink:href="#md5ca965fcf" y="298.245375"/>
      </g>
     </g>
    </g>
    <g id="xtick_22">
     <g id="line2d_27">
      <g>
       <use style="stroke:#000000;stroke-width:0.6;" x="412.328091" xlink:href="#md5ca965fcf" y="298.245375"/>
      </g>
     </g>
    </g>
    <g id="xtick_23">
     <g id="line2d_28">
      <g>
       <use style="stroke:#000000;stroke-width:0.6;" x="424.713325" xlink:href="#md5ca965fcf" y="298.245375"/>
      </g>
     </g>
    </g>
    <g id="text_6">
     <!-- log10 of (# f-evals / dimension) -->
     <defs>
      <path d="M 9.421875 75.984375 
L 18.40625 75.984375 
L 18.40625 0 
L 9.421875 0 
z
" id="DejaVuSans-6c"/>
      <path d="M 30.609375 48.390625 
Q 23.390625 48.390625 19.1875 42.75 
Q 14.984375 37.109375 14.984375 27.296875 
Q 14.984375 17.484375 19.15625 11.84375 
Q 23.34375 6.203125 30.609375 6.203125 
Q 37.796875 6.203125 41.984375 11.859375 
Q 46.1875 17.53125 46.1875 27.296875 
Q 46.1875 37.015625 41.984375 42.703125 
Q 37.796875 48.390625 30.609375 48.390625 
M 30.609375 56 
Q 42.328125 56 49.015625 48.375 
Q 55.71875 40.765625 55.71875 27.296875 
Q 55.71875 13.875 49.015625 6.21875 
Q 42.328125 -1.421875 30.609375 -1.421875 
Q 18.84375 -1.421875 12.171875 6.21875 
Q 5.515625 13.875 5.515625 27.296875 
Q 5.515625 40.765625 12.171875 48.375 
Q 18.84375 56 30.609375 56 
" id="DejaVuSans-6f"/>
      <path d="M 45.40625 27.984375 
Q 45.40625 37.75 41.375 43.109375 
Q 37.359375 48.484375 30.078125 48.484375 
Q 22.859375 48.484375 18.828125 43.109375 
Q 14.796875 37.75 14.796875 27.984375 
Q 14.796875 18.265625 18.828125 12.890625 
Q 22.859375 7.515625 30.078125 7.515625 
Q 37.359375 7.515625 41.375 12.890625 
Q 45.40625 18.265625 45.40625 27.984375 
M 54.390625 6.78125 
Q 54.390625 -7.171875 48.1875 -13.984375 
Q 42 -20.796875 29.203125 -20.796875 
Q 24.46875 -20.796875 20.265625 -20.09375 
Q 16.0625 -19.390625 12.109375 -17.921875 
L 12.109375 -9.1875 
Q 16.0625 -11.328125 19.921875 -12.34375 
Q 23.78125 -13.375 27.78125 -13.375 
Q 36.625 -13.375 41.015625 -8.765625 
Q 45.40625 -4.15625 45.40625 5.171875 
L 45.40625 9.625 
Q 42.625 4.78125 38.28125 2.390625 
Q 33.9375 0 27.875 0 
Q 17.828125 0 11.671875 7.65625 
Q 5.515625 15.328125 5.515625 27.984375 
Q 5.515625 40.671875 11.671875 48.328125 
Q 17.828125 56 27.875 56 
Q 33.9375 56 38.28125 53.609375 
Q 42.625 51.21875 45.40625 46.390625 
L 45.40625 54.6875 
L 54.390625 54.6875 
z
" id="DejaVuSans-67"/>
      <path d="M 12.40625 8.296875 
L 28.515625 8.296875 
L 28.515625 63.921875 
L 10.984375 60.40625 
L 10.984375 69.390625 
L 28.421875 72.90625 
L 38.28125 72.90625 
L 38.28125 8.296875 
L 54.390625 8.296875 
L 54.390625 0 
L 12.40625 0 
z
" id="DejaVuSans-31"/>
      <path id="DejaVuSans-20"/>
      <path d="M 37.109375 75.984375 
L 37.109375 68.5 
L 28.515625 68.5 
Q 23.6875 68.5 21.796875 66.546875 
Q 19.921875 64.59375 19.921875 59.515625 
L 19.921875 54.6875 
L 34.71875 54.6875 
L 34.71875 47.703125 
L 19.921875 47.703125 
L 19.921875 0 
L 10.890625 0 
L 10.890625 47.703125 
L 2.296875 47.703125 
L 2.296875 54.6875 
L 10.890625 54.6875 
L 10.890625 58.5 
Q 10.890625 67.625 15.140625 71.796875 
Q 19.390625 75.984375 28.609375 75.984375 
z
" id="DejaVuSans-66"/>
      <path d="M 31 75.875 
Q 24.46875 64.65625 21.28125 53.65625 
Q 18.109375 42.671875 18.109375 31.390625 
Q 18.109375 20.125 21.3125 9.0625 
Q 24.515625 -2 31 -13.1875 
L 23.1875 -13.1875 
Q 15.875 -1.703125 12.234375 9.375 
Q 8.59375 20.453125 8.59375 31.390625 
Q 8.59375 42.28125 12.203125 53.3125 
Q 15.828125 64.359375 23.1875 75.875 
z
" id="DejaVuSans-28"/>
      <path d="M 51.125 44 
L 36.921875 44 
L 32.8125 27.6875 
L 47.125 27.6875 
z
M 43.796875 71.78125 
L 38.71875 51.515625 
L 52.984375 51.515625 
L 58.109375 71.78125 
L 65.921875 71.78125 
L 60.890625 51.515625 
L 76.125 51.515625 
L 76.125 44 
L 58.984375 44 
L 54.984375 27.6875 
L 70.515625 27.6875 
L 70.515625 20.21875 
L 53.078125 20.21875 
L 48 0 
L 40.1875 0 
L 45.21875 20.21875 
L 30.90625 20.21875 
L 25.875 0 
L 18.015625 0 
L 23.09375 20.21875 
L 7.71875 20.21875 
L 7.71875 27.6875 
L 24.90625 27.6875 
L 29 44 
L 13.28125 44 
L 13.28125 51.515625 
L 30.90625 51.515625 
L 35.890625 71.78125 
z
" id="DejaVuSans-23"/>
      <path d="M 4.890625 31.390625 
L 31.203125 31.390625 
L 31.203125 23.390625 
L 4.890625 23.390625 
z
" id="DejaVuSans-2d"/>
      <path d="M 56.203125 29.59375 
L 56.203125 25.203125 
L 14.890625 25.203125 
Q 15.484375 15.921875 20.484375 11.0625 
Q 25.484375 6.203125 34.421875 6.203125 
Q 39.59375 6.203125 44.453125 7.46875 
Q 49.3125 8.734375 54.109375 11.28125 
L 54.109375 2.78125 
Q 49.265625 0.734375 44.1875 -0.34375 
Q 39.109375 -1.421875 33.890625 -1.421875 
Q 20.796875 -1.421875 13.15625 6.1875 
Q 5.515625 13.8125 5.515625 26.8125 
Q 5.515625 40.234375 12.765625 48.109375 
Q 20.015625 56 32.328125 56 
Q 43.359375 56 49.78125 48.890625 
Q 56.203125 41.796875 56.203125 29.59375 
M 47.21875 32.234375 
Q 47.125 39.59375 43.09375 43.984375 
Q 39.0625 48.390625 32.421875 48.390625 
Q 24.90625 48.390625 20.390625 44.140625 
Q 15.875 39.890625 15.1875 32.171875 
z
" id="DejaVuSans-65"/>
      <path d="M 2.984375 54.6875 
L 12.5 54.6875 
L 29.59375 8.796875 
L 46.6875 54.6875 
L 56.203125 54.6875 
L 35.6875 0 
L 23.484375 0 
z
" id="DejaVuSans-76"/>
      <path d="M 34.28125 27.484375 
Q 23.390625 27.484375 19.1875 25 
Q 14.984375 22.515625 14.984375 16.5 
Q 14.984375 11.71875 18.140625 8.90625 
Q 21.296875 6.109375 26.703125 6.109375 
Q 34.1875 6.109375 38.703125 11.40625 
Q 43.21875 16.703125 43.21875 25.484375 
L 43.21875 27.484375 
z
M 52.203125 31.203125 
L 52.203125 0 
L 43.21875 0 
L 43.21875 8.296875 
Q 40.140625 3.328125 35.546875 0.953125 
Q 30.953125 -1.421875 24.3125 -1.421875 
Q 15.921875 -1.421875 10.953125 3.296875 
Q 6 8.015625 6 15.921875 
Q 6 25.140625 12.171875 29.828125 
Q 18.359375 34.515625 30.609375 34.515625 
L 43.21875 34.515625 
L 43.21875 35.40625 
Q 43.21875 41.609375 39.140625 45 
Q 35.0625 48.390625 27.6875 48.390625 
Q 23 48.390625 18.546875 47.265625 
Q 14.109375 46.140625 10.015625 43.890625 
L 10.015625 52.203125 
Q 14.9375 54.109375 19.578125 55.046875 
Q 24.21875 56 28.609375 56 
Q 40.484375 56 46.34375 49.84375 
Q 52.203125 43.703125 52.203125 31.203125 
" id="DejaVuSans-61"/>
      <path d="M 44.28125 53.078125 
L 44.28125 44.578125 
Q 40.484375 46.53125 36.375 47.5 
Q 32.28125 48.484375 27.875 48.484375 
Q 21.1875 48.484375 17.84375 46.4375 
Q 14.5 44.390625 14.5 40.28125 
Q 14.5 37.15625 16.890625 35.375 
Q 19.28125 33.59375 26.515625 31.984375 
L 29.59375 31.296875 
Q 39.15625 29.25 43.1875 25.515625 
Q 47.21875 21.78125 47.21875 15.09375 
Q 47.21875 7.46875 41.1875 3.015625 
Q 35.15625 -1.421875 24.609375 -1.421875 
Q 20.21875 -1.421875 15.453125 -0.5625 
Q 10.6875 0.296875 5.421875 2 
L 5.421875 11.28125 
Q 10.40625 8.6875 15.234375 7.390625 
Q 20.0625 6.109375 24.8125 6.109375 
Q 31.15625 6.109375 34.5625 8.28125 
Q 37.984375 10.453125 37.984375 14.40625 
Q 37.984375 18.0625 35.515625 20.015625 
Q 33.0625 21.96875 24.703125 23.78125 
L 21.578125 24.515625 
Q 13.234375 26.265625 9.515625 29.90625 
Q 5.8125 33.546875 5.8125 39.890625 
Q 5.8125 47.609375 11.28125 51.796875 
Q 16.75 56 26.8125 56 
Q 31.78125 56 36.171875 55.265625 
Q 40.578125 54.546875 44.28125 53.078125 
" id="DejaVuSans-73"/>
      <path d="M 25.390625 72.90625 
L 33.6875 72.90625 
L 8.296875 -9.28125 
L 0 -9.28125 
z
" id="DejaVuSans-2f"/>
      <path d="M 45.40625 46.390625 
L 45.40625 75.984375 
L 54.390625 75.984375 
L 54.390625 0 
L 45.40625 0 
L 45.40625 8.203125 
Q 42.578125 3.328125 38.25 0.953125 
Q 33.9375 -1.421875 27.875 -1.421875 
Q 17.96875 -1.421875 11.734375 6.484375 
Q 5.515625 14.40625 5.515625 27.296875 
Q 5.515625 40.1875 11.734375 48.09375 
Q 17.96875 56 27.875 56 
Q 33.9375 56 38.25 53.625 
Q 42.578125 51.265625 45.40625 46.390625 
M 14.796875 27.296875 
Q 14.796875 17.390625 18.875 11.75 
Q 22.953125 6.109375 30.078125 6.109375 
Q 37.203125 6.109375 41.296875 11.75 
Q 45.40625 17.390625 45.40625 27.296875 
Q 45.40625 37.203125 41.296875 42.84375 
Q 37.203125 48.484375 30.078125 48.484375 
Q 22.953125 48.484375 18.875 42.84375 
Q 14.796875 37.203125 14.796875 27.296875 
" id="DejaVuSans-64"/>
      <path d="M 9.421875 54.6875 
L 18.40625 54.6875 
L 18.40625 0 
L 9.421875 0 
z
M 9.421875 75.984375 
L 18.40625 75.984375 
L 18.40625 64.59375 
L 9.421875 64.59375 
z
" id="DejaVuSans-69"/>
      <path d="M 52 44.1875 
Q 55.375 50.25 60.0625 53.125 
Q 64.75 56 71.09375 56 
Q 79.640625 56 84.28125 50.015625 
Q 88.921875 44.046875 88.921875 33.015625 
L 88.921875 0 
L 79.890625 0 
L 79.890625 32.71875 
Q 79.890625 40.578125 77.09375 44.375 
Q 74.3125 48.1875 68.609375 48.1875 
Q 61.625 48.1875 57.5625 43.546875 
Q 53.515625 38.921875 53.515625 30.90625 
L 53.515625 0 
L 44.484375 0 
L 44.484375 32.71875 
Q 44.484375 40.625 41.703125 44.40625 
Q 38.921875 48.1875 33.109375 48.1875 
Q 26.21875 48.1875 22.15625 43.53125 
Q 18.109375 38.875 18.109375 30.90625 
L 18.109375 0 
L 9.078125 0 
L 9.078125 54.6875 
L 18.109375 54.6875 
L 18.109375 46.1875 
Q 21.1875 51.21875 25.484375 53.609375 
Q 29.78125 56 35.6875 56 
Q 41.65625 56 45.828125 52.96875 
Q 50 49.953125 52 44.1875 
" id="DejaVuSans-6d"/>
      <path d="M 54.890625 33.015625 
L 54.890625 0 
L 45.90625 0 
L 45.90625 32.71875 
Q 45.90625 40.484375 42.875 44.328125 
Q 39.84375 48.1875 33.796875 48.1875 
Q 26.515625 48.1875 22.3125 43.546875 
Q 18.109375 38.921875 18.109375 30.90625 
L 18.109375 0 
L 9.078125 0 
L 9.078125 54.6875 
L 18.109375 54.6875 
L 18.109375 46.1875 
Q 21.34375 51.125 25.703125 53.5625 
Q 30.078125 56 35.796875 56 
Q 45.21875 56 50.046875 50.171875 
Q 54.890625 44.34375 54.890625 33.015625 
" id="DejaVuSans-6e"/>
      <path d="M 8.015625 75.875 
L 15.828125 75.875 
Q 23.140625 64.359375 26.78125 53.3125 
Q 30.421875 42.28125 30.421875 31.390625 
Q 30.421875 20.453125 26.78125 9.375 
Q 23.140625 -1.703125 15.828125 -13.1875 
L 8.015625 -13.1875 
Q 14.5 -2 17.703125 9.0625 
Q 20.90625 20.125 20.90625 31.390625 
Q 20.90625 42.671875 17.703125 53.65625 
Q 14.5 64.65625 8.015625 75.875 
" id="DejaVuSans-29"/>
     </defs>
     <g transform="translate(107.015156 342.278812)scale(0.18 -0.18)">
      <use xlink:href="#DejaVuSans-6c"/>
      <use x="27.783203" xlink:href="#DejaVuSans-6f"/>
      <use x="88.964844" xlink:href="#DejaVuSans-67"/>
      <use x="152.441406" xlink:href="#DejaVuSans-31"/>
      <use x="216.064453" xlink:href="#DejaVuSans-30"/>
      <use x="279.6875" xlink:href="#DejaVuSans-20"/>
      <use x="311.474609" xlink:href="#DejaVuSans-6f"/>
      <use x="372.65625" xlink:href="#DejaVuSans-66"/>
      <use x="407.861328" xlink:href="#DejaVuSans-20"/>
      <use x="439.648438" xlink:href="#DejaVuSans-28"/>
      <use x="478.662109" xlink:href="#DejaVuSans-23"/>
      <use x="562.451172" xlink:href="#DejaVuSans-20"/>
      <use x="594.238281" xlink:href="#DejaVuSans-66"/>
      <use x="629.365234" xlink:href="#DejaVuSans-2d"/>
      <use x="665.449219" xlink:href="#DejaVuSans-65"/>
      <use x="726.972656" xlink:href="#DejaVuSans-76"/>
      <use x="786.152344" xlink:href="#DejaVuSans-61"/>
      <use x="847.431641" xlink:href="#DejaVuSans-6c"/>
      <use x="875.214844" xlink:href="#DejaVuSans-73"/>
      <use x="927.314453" xlink:href="#DejaVuSans-20"/>
      <use x="959.101562" xlink:href="#DejaVuSans-2f"/>
      <use x="992.792969" xlink:href="#DejaVuSans-20"/>
      <use x="1024.580078" xlink:href="#DejaVuSans-64"/>
      <use x="1088.056641" xlink:href="#DejaVuSans-69"/>
      <use x="1115.839844" xlink:href="#DejaVuSans-6d"/>
      <use x="1213.251953" xlink:href="#DejaVuSans-65"/>
      <use x="1274.775391" xlink:href="#DejaVuSans-6e"/>
      <use x="1338.154297" xlink:href="#DejaVuSans-73"/>
      <use x="1390.253906" xlink:href="#DejaVuSans-69"/>
      <use x="1418.037109" xlink:href="#DejaVuSans-6f"/>
      <use x="1479.21875" xlink:href="#DejaVuSans-6e"/>
      <use x="1542.597656" xlink:href="#DejaVuSans-29"/>
     </g>
    </g>
   </g>
   <g id="matplotlib.axis_2">
    <g id="ytick_1">
     <g id="line2d_29">
      <path clip-path="url(#pb5261df816)" d="M 70.8 298.245375 
L 427.92 298.245375 
" style="fill:none;stroke:#b0b0b0;stroke-linecap:square;stroke-width:0.8;"/>
     </g>
     <g id="line2d_30">
      <defs>
       <path d="M 0 0 
L -3.5 0 
" id="ma5b1b342b5" style="stroke:#000000;stroke-width:0.8;"/>
      </defs>
      <g>
       <use style="stroke:#000000;stroke-width:0.8;" x="70.8" xlink:href="#ma5b1b342b5" y="298.245375"/>
      </g>
     </g>
     <g id="text_7">
      <!-- 0.0 -->
      <defs>
       <path d="M 10.6875 12.40625 
L 21 12.40625 
L 21 0 
L 10.6875 0 
z
" id="DejaVuSans-2e"/>
      </defs>
      <g transform="translate(31.99375 305.843812)scale(0.2 -0.2)">
       <use xlink:href="#DejaVuSans-30"/>
       <use x="63.623047" xlink:href="#DejaVuSans-2e"/>
       <use x="95.410156" xlink:href="#DejaVuSans-30"/>
      </g>
     </g>
    </g>
    <g id="ytick_2">
     <g id="line2d_31">
      <path clip-path="url(#pb5261df816)" d="M 70.8 245.549929 
L 427.92 245.549929 
" style="fill:none;stroke:#b0b0b0;stroke-linecap:square;stroke-width:0.8;"/>
     </g>
     <g id="line2d_32">
      <g>
       <use style="stroke:#000000;stroke-width:0.8;" x="70.8" xlink:href="#ma5b1b342b5" y="245.549929"/>
      </g>
     </g>
     <g id="text_8">
      <!-- 0.2 -->
      <g transform="translate(31.99375 253.148367)scale(0.2 -0.2)">
       <use xlink:href="#DejaVuSans-30"/>
       <use x="63.623047" xlink:href="#DejaVuSans-2e"/>
       <use x="95.410156" xlink:href="#DejaVuSans-32"/>
      </g>
     </g>
    </g>
    <g id="ytick_3">
     <g id="line2d_33">
      <path clip-path="url(#pb5261df816)" d="M 70.8 192.854484 
L 427.92 192.854484 
" style="fill:none;stroke:#b0b0b0;stroke-linecap:square;stroke-width:0.8;"/>
     </g>
     <g id="line2d_34">
      <g>
       <use style="stroke:#000000;stroke-width:0.8;" x="70.8" xlink:href="#ma5b1b342b5" y="192.854484"/>
      </g>
     </g>
     <g id="text_9">
      <!-- 0.4 -->
      <g transform="translate(31.99375 200.452921)scale(0.2 -0.2)">
       <use xlink:href="#DejaVuSans-30"/>
       <use x="63.623047" xlink:href="#DejaVuSans-2e"/>
       <use x="95.410156" xlink:href="#DejaVuSans-34"/>
      </g>
     </g>
    </g>
    <g id="ytick_4">
     <g id="line2d_35">
      <path clip-path="url(#pb5261df816)" d="M 70.8 140.159038 
L 427.92 140.159038 
" style="fill:none;stroke:#b0b0b0;stroke-linecap:square;stroke-width:0.8;"/>
     </g>
     <g id="line2d_36">
      <g>
       <use style="stroke:#000000;stroke-width:0.8;" x="70.8" xlink:href="#ma5b1b342b5" y="140.159038"/>
      </g>
     </g>
     <g id="text_10">
      <!-- 0.6 -->
      <g transform="translate(31.99375 147.757476)scale(0.2 -0.2)">
       <use xlink:href="#DejaVuSans-30"/>
       <use x="63.623047" xlink:href="#DejaVuSans-2e"/>
       <use x="95.410156" xlink:href="#DejaVuSans-36"/>
      </g>
     </g>
    </g>
    <g id="ytick_5">
     <g id="line2d_37">
      <path clip-path="url(#pb5261df816)" d="M 70.8 87.463593 
L 427.92 87.463593 
" style="fill:none;stroke:#b0b0b0;stroke-linecap:square;stroke-width:0.8;"/>
     </g>
     <g id="line2d_38">
      <g>
       <use style="stroke:#000000;stroke-width:0.8;" x="70.8" xlink:href="#ma5b1b342b5" y="87.463593"/>
      </g>
     </g>
     <g id="text_11">
      <!-- 0.8 -->
      <g transform="translate(31.99375 95.06203)scale(0.2 -0.2)">
       <use xlink:href="#DejaVuSans-30"/>
       <use x="63.623047" xlink:href="#DejaVuSans-2e"/>
       <use x="95.410156" xlink:href="#DejaVuSans-38"/>
      </g>
     </g>
    </g>
    <g id="ytick_6">
     <g id="line2d_39">
      <path clip-path="url(#pb5261df816)" d="M 70.8 34.768147 
L 427.92 34.768147 
" style="fill:none;stroke:#b0b0b0;stroke-linecap:square;stroke-width:0.8;"/>
     </g>
     <g id="line2d_40">
      <g>
       <use style="stroke:#000000;stroke-width:0.8;" x="70.8" xlink:href="#ma5b1b342b5" y="34.768147"/>
      </g>
     </g>
     <g id="text_12">
      <!-- 1.0 -->
      <g transform="translate(31.99375 42.366585)scale(0.2 -0.2)">
       <use xlink:href="#DejaVuSans-31"/>
       <use x="63.623047" xlink:href="#DejaVuSans-2e"/>
       <use x="95.410156" xlink:href="#DejaVuSans-30"/>
      </g>
     </g>
    </g>
    <g id="text_13">
     <!-- Proportion of function+target pairs -->
     <defs>
      <path d="M 19.671875 64.796875 
L 19.671875 37.40625 
L 32.078125 37.40625 
Q 38.96875 37.40625 42.71875 40.96875 
Q 46.484375 44.53125 46.484375 51.125 
Q 46.484375 57.671875 42.71875 61.234375 
Q 38.96875 64.796875 32.078125 64.796875 
z
M 9.8125 72.90625 
L 32.078125 72.90625 
Q 44.34375 72.90625 50.609375 67.359375 
Q 56.890625 61.8125 56.890625 51.125 
Q 56.890625 40.328125 50.609375 34.8125 
Q 44.34375 29.296875 32.078125 29.296875 
L 19.671875 29.296875 
L 19.671875 0 
L 9.8125 0 
z
" id="DejaVuSans-50"/>
      <path d="M 41.109375 46.296875 
Q 39.59375 47.171875 37.8125 47.578125 
Q 36.03125 48 33.890625 48 
Q 26.265625 48 22.1875 43.046875 
Q 18.109375 38.09375 18.109375 28.8125 
L 18.109375 0 
L 9.078125 0 
L 9.078125 54.6875 
L 18.109375 54.6875 
L 18.109375 46.1875 
Q 20.953125 51.171875 25.484375 53.578125 
Q 30.03125 56 36.53125 56 
Q 37.453125 56 38.578125 55.875 
Q 39.703125 55.765625 41.0625 55.515625 
z
" id="DejaVuSans-72"/>
      <path d="M 18.109375 8.203125 
L 18.109375 -20.796875 
L 9.078125 -20.796875 
L 9.078125 54.6875 
L 18.109375 54.6875 
L 18.109375 46.390625 
Q 20.953125 51.265625 25.265625 53.625 
Q 29.59375 56 35.59375 56 
Q 45.5625 56 51.78125 48.09375 
Q 58.015625 40.1875 58.015625 27.296875 
Q 58.015625 14.40625 51.78125 6.484375 
Q 45.5625 -1.421875 35.59375 -1.421875 
Q 29.59375 -1.421875 25.265625 0.953125 
Q 20.953125 3.328125 18.109375 8.203125 
M 48.6875 27.296875 
Q 48.6875 37.203125 44.609375 42.84375 
Q 40.53125 48.484375 33.40625 48.484375 
Q 26.265625 48.484375 22.1875 42.84375 
Q 18.109375 37.203125 18.109375 27.296875 
Q 18.109375 17.390625 22.1875 11.75 
Q 26.265625 6.109375 33.40625 6.109375 
Q 40.53125 6.109375 44.609375 11.75 
Q 48.6875 17.390625 48.6875 27.296875 
" id="DejaVuSans-70"/>
      <path d="M 18.3125 70.21875 
L 18.3125 54.6875 
L 36.8125 54.6875 
L 36.8125 47.703125 
L 18.3125 47.703125 
L 18.3125 18.015625 
Q 18.3125 11.328125 20.140625 9.421875 
Q 21.96875 7.515625 27.59375 7.515625 
L 36.8125 7.515625 
L 36.8125 0 
L 27.59375 0 
Q 17.1875 0 13.234375 3.875 
Q 9.28125 7.765625 9.28125 18.015625 
L 9.28125 47.703125 
L 2.6875 47.703125 
L 2.6875 54.6875 
L 9.28125 54.6875 
L 9.28125 70.21875 
z
" id="DejaVuSans-74"/>
      <path d="M 8.5 21.578125 
L 8.5 54.6875 
L 17.484375 54.6875 
L 17.484375 21.921875 
Q 17.484375 14.15625 20.5 10.265625 
Q 23.53125 6.390625 29.59375 6.390625 
Q 36.859375 6.390625 41.078125 11.03125 
Q 45.3125 15.671875 45.3125 23.6875 
L 45.3125 54.6875 
L 54.296875 54.6875 
L 54.296875 0 
L 45.3125 0 
L 45.3125 8.40625 
Q 42.046875 3.421875 37.71875 1 
Q 33.40625 -1.421875 27.6875 -1.421875 
Q 18.265625 -1.421875 13.375 4.4375 
Q 8.5 10.296875 8.5 21.578125 
M 31.109375 56 
z
" id="DejaVuSans-75"/>
      <path d="M 48.78125 52.59375 
L 48.78125 44.1875 
Q 44.96875 46.296875 41.140625 47.34375 
Q 37.3125 48.390625 33.40625 48.390625 
Q 24.65625 48.390625 19.8125 42.84375 
Q 14.984375 37.3125 14.984375 27.296875 
Q 14.984375 17.28125 19.8125 11.734375 
Q 24.65625 6.203125 33.40625 6.203125 
Q 37.3125 6.203125 41.140625 7.25 
Q 44.96875 8.296875 48.78125 10.40625 
L 48.78125 2.09375 
Q 45.015625 0.34375 40.984375 -0.53125 
Q 36.96875 -1.421875 32.421875 -1.421875 
Q 20.0625 -1.421875 12.78125 6.34375 
Q 5.515625 14.109375 5.515625 27.296875 
Q 5.515625 40.671875 12.859375 48.328125 
Q 20.21875 56 33.015625 56 
Q 37.15625 56 41.109375 55.140625 
Q 45.0625 54.296875 48.78125 52.59375 
" id="DejaVuSans-63"/>
      <path d="M 46 62.703125 
L 46 35.5 
L 73.1875 35.5 
L 73.1875 27.203125 
L 46 27.203125 
L 46 0 
L 37.796875 0 
L 37.796875 27.203125 
L 10.59375 27.203125 
L 10.59375 35.5 
L 37.796875 35.5 
L 37.796875 62.703125 
z
" id="DejaVuSans-2b"/>
     </defs>
     <g transform="translate(24.250312 323.17875)rotate(-90)scale(0.18 -0.18)">
      <use xlink:href="#DejaVuSans-50"/>
      <use x="60.287109" xlink:href="#DejaVuSans-72"/>
      <use x="101.369141" xlink:href="#DejaVuSans-6f"/>
      <use x="162.550781" xlink:href="#DejaVuSans-70"/>
      <use x="226.027344" xlink:href="#DejaVuSans-6f"/>
      <use x="287.208984" xlink:href="#DejaVuSans-72"/>
      <use x="328.322266" xlink:href="#DejaVuSans-74"/>
      <use x="367.53125" xlink:href="#DejaVuSans-69"/>
      <use x="395.314453" xlink:href="#DejaVuSans-6f"/>
      <use x="456.496094" xlink:href="#DejaVuSans-6e"/>
      <use x="519.875" xlink:href="#DejaVuSans-20"/>
      <use x="551.662109" xlink:href="#DejaVuSans-6f"/>
      <use x="612.84375" xlink:href="#DejaVuSans-66"/>
      <use x="648.048828" xlink:href="#DejaVuSans-20"/>
      <use x="679.835938" xlink:href="#DejaVuSans-66"/>
      <use x="715.041016" xlink:href="#DejaVuSans-75"/>
      <use x="778.419922" xlink:href="#DejaVuSans-6e"/>
      <use x="841.798828" xlink:href="#DejaVuSans-63"/>
      <use x="896.779297" xlink:href="#DejaVuSans-74"/>
      <use x="935.988281" xlink:href="#DejaVuSans-69"/>
      <use x="963.771484" xlink:href="#DejaVuSans-6f"/>
      <use x="1024.953125" xlink:href="#DejaVuSans-6e"/>
      <use x="1088.332031" xlink:href="#DejaVuSans-2b"/>
      <use x="1172.121094" xlink:href="#DejaVuSans-74"/>
      <use x="1211.330078" xlink:href="#DejaVuSans-61"/>
      <use x="1272.609375" xlink:href="#DejaVuSans-72"/>
      <use x="1313.707031" xlink:href="#DejaVuSans-67"/>
      <use x="1377.183594" xlink:href="#DejaVuSans-65"/>
      <use x="1438.707031" xlink:href="#DejaVuSans-74"/>
      <use x="1477.916016" xlink:href="#DejaVuSans-20"/>
      <use x="1509.703125" xlink:href="#DejaVuSans-70"/>
      <use x="1573.179688" xlink:href="#DejaVuSans-61"/>
      <use x="1634.458984" xlink:href="#DejaVuSans-69"/>
      <use x="1662.242188" xlink:href="#DejaVuSans-72"/>
      <use x="1703.355469" xlink:href="#DejaVuSans-73"/>
     </g>
    </g>
   </g>
   <g id="line2d_41">
    <defs>
     <path d="M 0 1.5 
C 0.397805 1.5 0.77937 1.341951 1.06066 1.06066 
C 1.341951 0.77937 1.5 0.397805 1.5 0 
C 1.5 -0.397805 1.341951 -0.77937 1.06066 -1.06066 
C 0.77937 -1.341951 0.397805 -1.5 0 -1.5 
C -0.397805 -1.5 -0.77937 -1.341951 -1.06066 -1.06066 
C -1.341951 -0.77937 -1.5 -0.397805 -1.5 0 
C -1.5 0.397805 -1.341951 0.77937 -1.06066 1.06066 
C -0.77937 1.341951 -0.397805 1.5 0 1.5 
z
" id="m04dfa19902" style="stroke:#00bfbf;"/>
    </defs>
    <g>
     <use style="fill:#00bfbf;stroke:#00bfbf;" x="241.611822" xlink:href="#m04dfa19902" y="34.768147"/>
     <use style="fill:#00bfbf;stroke:#00bfbf;" x="241.611822" xlink:href="#m04dfa19902" y="34.768147"/>
    </g>
   </g>
   <g id="line2d_42">
    <path d="M 58.414766 298.245375 
L 58.414766 275.514006 
L 70.8 275.514006 
L 70.8 271.897652 
L 78.044898 271.897652 
L 78.044898 267.248054 
L 83.185234 267.248054 
L 83.185234 264.664944 
L 87.172389 264.664944 
L 87.172389 264.148322 
L 95.570468 264.148322 
L 95.570468 263.115078 
L 97.675029 263.115078 
L 97.675029 262.081834 
L 99.557623 262.081834 
L 99.557623 261.04859 
L 101.260636 261.04859 
L 101.260636 260.015346 
L 102.815366 260.015346 
L 102.815366 258.46548 
L 104.245578 258.46548 
L 104.245578 257.432236 
L 107.955702 257.432236 
L 107.955702 256.915614 
L 112.814645 256.915614 
L 112.814645 256.398992 
L 114.44014 256.398992 
L 114.44014 255.365748 
L 120.890768 255.365748 
L 120.890768 254.849126 
L 121.424184 254.849126 
L 121.424184 248.13304 
L 123.411577 248.13304 
L 123.411577 246.066551 
L 124.328091 246.066551 
L 124.328091 245.549929 
L 126.432652 245.549929 
L 126.432652 245.033307 
L 126.825374 245.033307 
L 126.825374 244.516685 
L 127.209649 244.516685 
L 127.209649 241.933575 
L 129.690395 241.933575 
L 129.690395 240.900331 
L 130.340216 240.900331 
L 130.340216 239.350465 
L 131.572989 239.350465 
L 131.572989 236.250733 
L 132.444777 236.250733 
L 132.444777 235.734111 
L 134.580824 235.734111 
L 134.580824 234.700867 
L 135.796811 234.700867 
L 135.796811 233.667623 
L 136.260944 233.667623 
L 136.260944 233.151001 
L 136.935292 233.151001 
L 136.935292 232.117757 
L 137.371122 232.117757 
L 137.371122 231.084513 
L 138.817886 231.084513 
L 138.817886 230.567891 
L 139.783966 230.567891 
L 139.783966 230.051269 
L 140.156232 230.051269 
L 140.156232 229.534647 
L 140.339496 229.534647 
L 140.339496 227.468159 
L 140.70048 227.468159 
L 140.70048 226.434915 
L 140.878274 226.434915 
L 140.878274 225.401671 
L 141.22864 225.401671 
L 141.22864 224.885049 
L 141.40128 224.885049 
L 141.40128 224.368427 
L 142.403494 224.368427 
L 142.403494 223.335183 
L 143.041708 223.335183 
L 143.041708 222.301939 
L 143.197763 222.301939 
L 143.197763 221.785317 
L 143.352466 221.785317 
L 143.352466 221.268695 
L 143.958223 221.268695 
L 143.958223 219.718829 
L 145.525356 219.718829 
L 145.525356 219.202207 
L 145.661236 219.202207 
L 145.661236 218.685585 
L 146.062784 218.685585 
L 146.062784 218.168963 
L 146.712605 218.168963 
L 146.712605 217.135719 
L 149.320526 217.135719 
L 149.320526 215.069231 
L 150.69976 215.069231 
L 150.69976 214.552609 
L 151.498468 214.552609 
L 151.498468 213.519365 
L 151.692688 213.519365 
L 151.692688 213.002743 
L 154.210955 213.002743 
L 154.210955 211.969498 
L 156.118698 211.969498 
L 156.118698 210.936254 
L 157.842261 210.936254 
L 157.842261 210.419632 
L 158.710789 210.419632 
L 158.710789 209.386388 
L 160.97405 209.386388 
L 160.97405 208.869766 
L 161.145586 208.869766 
L 161.145586 207.836522 
L 162.248906 207.836522 
L 162.248906 206.803278 
L 162.67184 206.803278 
L 162.67184 206.286656 
L 163.084994 206.286656 
L 163.084994 205.770034 
L 163.588354 205.770034 
L 163.588354 204.220168 
L 164.64823 204.220168 
L 164.64823 203.703546 
L 164.972692 203.703546 
L 164.972692 203.186924 
L 165.515563 203.186924 
L 165.515563 202.670302 
L 165.868525 202.670302 
L 165.868525 202.15368 
L 166.928629 202.15368 
L 166.928629 200.087192 
L 167.051716 200.087192 
L 167.092558 198.537326 
L 167.45599 198.537326 
L 167.45599 197.504082 
L 168.579166 197.504082 
L 168.579166 196.98746 
L 168.765878 196.98746 
L 168.840019 195.437594 
L 169.242389 195.437594 
L 169.350572 193.887728 
L 169.386487 193.887728 
L 169.458103 192.337862 
L 169.564992 192.337862 
L 169.564992 191.82124 
L 170.020925 191.82124 
L 170.020925 190.787996 
L 170.158903 190.787996 
L 170.158903 187.688264 
L 170.397831 187.688264 
L 170.397831 187.171642 
L 170.53294 187.171642 
L 170.53294 186.65502 
L 170.667036 186.65502 
L 170.667036 185.621776 
L 170.833252 185.621776 
L 170.833252 185.105154 
L 171.258314 185.105154 
L 171.290596 184.07191 
L 171.483073 184.07191 
L 171.546774 182.005422 
L 172.048368 182.005422 
L 172.048368 181.4888 
L 172.202272 181.4888 
L 172.263464 179.422312 
L 172.566321 179.422312 
L 172.566321 178.389067 
L 173.186087 178.389067 
L 173.186087 176.839201 
L 174.445912 176.839201 
L 174.445912 176.322579 
L 174.793916 176.322579 
L 174.793916 174.256091 
L 175.004752 174.256091 
L 175.004752 173.739469 
L 175.135272 173.739469 
L 175.135272 171.672981 
L 175.470228 171.672981 
L 175.470228 171.156359 
L 175.748829 171.156359 
L 175.824064 169.606493 
L 176.31769 169.606493 
L 176.31769 169.089871 
L 176.511384 169.089871 
L 176.511384 168.573249 
L 176.939668 168.573249 
L 176.939668 167.023383 
L 177.449558 167.023383 
L 177.449558 165.990139 
L 178.362645 165.990139 
L 178.362645 165.473517 
L 178.599883 165.473517 
L 178.599883 164.956895 
L 179.53888 164.956895 
L 179.53888 164.440273 
L 179.861199 164.440273 
L 179.920992 162.890407 
L 180.138537 162.890407 
L 180.138537 162.373785 
L 180.353465 162.373785 
L 180.353465 161.857163 
L 180.565838 161.857163 
L 180.565838 161.340541 
L 181.113925 161.340541 
L 181.151112 159.274053 
L 181.390956 159.274053 
L 181.44585 158.240809 
L 181.573285 158.240809 
L 181.573285 156.690943 
L 181.82546 156.690943 
L 181.82546 156.174321 
L 182.126964 156.174321 
L 182.126964 154.624455 
L 182.681059 154.624455 
L 182.681059 153.074589 
L 183.118942 153.074589 
L 183.118942 152.557967 
L 183.251545 152.557967 
L 183.333924 149.458235 
L 183.724144 149.458235 
L 183.724144 148.941613 
L 184.090274 148.941613 
L 184.090274 148.424991 
L 184.495323 148.424991 
L 184.495323 146.358503 
L 184.936534 146.358503 
L 184.936534 145.325259 
L 185.887579 145.325259 
L 185.972868 144.292014 
L 186.268216 144.292014 
L 186.268216 143.775392 
L 186.545032 143.775392 
L 186.654568 142.742148 
L 186.804093 142.742148 
L 186.804093 141.708904 
L 186.965797 141.708904 
L 187.005995 140.67566 
L 187.086121 140.67566 
L 187.086121 140.159038 
L 187.245304 140.159038 
L 187.33751 139.125794 
L 187.363767 139.125794 
L 187.363767 138.609172 
L 187.572448 138.609172 
L 187.637164 137.059306 
L 187.791533 137.059306 
L 187.791533 136.542684 
L 188.058511 136.542684 
L 188.058511 136.026062 
L 188.457815 136.026062 
L 188.457815 134.992818 
L 188.617518 134.992818 
L 188.617518 133.959574 
L 188.775805 133.959574 
L 188.872521 132.409708 
L 188.932703 132.409708 
L 188.932703 131.893086 
L 189.488724 131.893086 
L 189.488724 131.376464 
L 189.789035 131.376464 
L 189.789035 129.309976 
L 189.994025 129.309976 
L 190.039261 126.726866 
L 191.533651 126.726866 
L 191.533651 126.210244 
L 191.64756 126.210244 
L 191.750487 124.660378 
L 191.873222 124.660378 
L 191.964723 122.59389 
L 192.09607 122.59389 
L 192.196453 119.494158 
L 192.474561 119.494158 
L 192.504103 117.42767 
L 192.816218 117.42767 
L 192.816218 116.911048 
L 193.065857 116.911048 
L 193.065857 115.877804 
L 193.312057 115.877804 
L 193.312057 115.361182 
L 193.628975 115.361182 
L 193.628975 113.294694 
L 194.030933 113.294694 
L 194.06703 112.26145 
L 195.328628 112.26145 
L 195.328628 111.744828 
L 195.54572 111.744828 
L 195.620257 110.711584 
L 195.752004 110.711584 
L 195.792977 109.678339 
L 196.173595 109.678339 
L 196.173595 109.161717 
L 196.420275 109.161717 
L 196.522716 107.611851 
L 196.624574 107.611851 
L 196.624574 106.578607 
L 196.811107 106.578607 
L 196.811107 106.061985 
L 196.988058 106.061985 
L 196.988058 105.545363 
L 197.40423 105.545363 
L 197.40423 105.028741 
L 198.464145 105.028741 
L 198.464145 104.512119 
L 198.590571 104.512119 
L 198.646474 103.478875 
L 198.764691 103.478875 
L 198.813143 101.412387 
L 199.005644 101.412387 
L 199.005644 100.895765 
L 199.243391 100.895765 
L 199.243391 100.379143 
L 199.417978 100.379143 
L 199.504636 98.312655 
L 199.663523 98.312655 
L 199.663523 97.796033 
L 199.983597 97.796033 
L 199.983597 97.279411 
L 200.125459 97.279411 
L 200.170362 95.729545 
L 201.112485 95.729545 
L 201.191319 94.179679 
L 201.341953 94.179679 
L 201.341953 92.629813 
L 201.568512 92.629813 
L 201.651263 91.596569 
L 201.757096 91.596569 
L 201.757096 91.079947 
L 201.908868 91.079947 
L 201.955309 89.530081 
L 202.401892 89.530081 
L 202.503383 87.980215 
L 202.525859 87.980215 
L 202.525859 87.463593 
L 203.225147 87.463593 
L 203.284447 86.430349 
L 203.391763 86.430349 
L 203.461175 85.397105 
L 203.630894 85.397105 
L 203.630894 83.847239 
L 203.793787 83.847239 
L 203.793787 83.330617 
L 203.96039 83.330617 
L 203.96039 82.813995 
L 204.135721 82.813995 
L 204.135721 81.264129 
L 204.299181 81.264129 
L 204.299181 80.747507 
L 204.481304 80.747507 
L 204.531566 78.164397 
L 204.641647 78.164397 
L 204.676531 76.614531 
L 205.51296 76.614531 
L 205.51296 76.097908 
L 205.626619 76.097908 
L 205.626619 75.064664 
L 205.772367 75.064664 
L 205.772367 74.03142 
L 205.92158 74.03142 
L 205.981843 71.964932 
L 206.041904 71.964932 
L 206.041904 71.44831 
L 206.389046 71.44831 
L 206.434225 68.8652 
L 206.51526 68.8652 
L 206.564601 67.831956 
L 207.284514 67.831956 
L 207.284514 67.315334 
L 207.540814 67.315334 
L 207.61277 66.28209 
L 207.797672 66.28209 
L 207.797672 65.765468 
L 207.96412 65.765468 
L 207.96412 65.248846 
L 208.079718 65.248846 
L 208.153639 63.69898 
L 208.272093 63.69898 
L 208.272093 63.182358 
L 208.927584 63.182358 
L 208.927584 62.665736 
L 209.346478 62.665736 
L 209.396244 61.632492 
L 209.495363 61.632492 
L 209.495363 61.11587 
L 210.547275 61.11587 
L 210.547275 60.082626 
L 210.771676 60.082626 
L 210.771676 59.566004 
L 211.163782 59.566004 
L 211.263923 58.016138 
L 211.926406 58.016138 
L 211.926406 57.499516 
L 212.134235 57.499516 
L 212.134235 56.982894 
L 213.004774 56.982894 
L 213.004774 56.466272 
L 213.185042 56.466272 
L 213.185042 55.94965 
L 213.30217 55.94965 
L 213.36657 54.916406 
L 213.518978 54.916406 
L 213.518978 54.399784 
L 213.661065 54.399784 
L 213.661065 53.883162 
L 213.805018 53.883162 
L 213.805018 52.849918 
L 214.550911 52.849918 
L 214.550911 52.333296 
L 214.679367 52.333296 
L 214.693583 51.300052 
L 215.434019 51.300052 
L 215.434019 50.78343 
L 215.989716 50.78343 
L 215.989716 49.233564 
L 217.061765 49.233564 
L 217.089126 48.20032 
L 217.492165 48.20032 
L 217.564918 47.167076 
L 218.774281 47.167076 
L 218.774281 46.650454 
L 219.475081 46.650454 
L 219.544539 45.61721 
L 219.729881 45.61721 
L 219.729881 45.100588 
L 220.245506 45.100588 
L 220.245506 44.583966 
L 221.129391 44.583966 
L 221.198644 43.550722 
L 221.453543 43.550722 
L 221.453543 43.0341 
L 222.182176 43.0341 
L 222.182176 42.000855 
L 222.774097 42.000855 
L 222.774097 41.484233 
L 223.668086 41.484233 
L 223.668086 40.967611 
L 223.959796 40.967611 
L 223.959796 40.450989 
L 224.295042 40.450989 
L 224.295042 39.934367 
L 225.57646 39.934367 
L 225.57646 39.417745 
L 226.211149 39.417745 
L 226.211149 38.901123 
L 226.772097 38.901123 
L 226.772097 37.867879 
L 227.341194 37.867879 
L 227.341194 37.351257 
L 228.947195 37.351257 
L 228.947195 36.834635 
L 232.958908 36.834635 
L 232.958908 36.318013 
L 233.274125 36.318013 
L 233.274125 35.801391 
L 236.037834 35.801391 
L 236.037834 35.284769 
L 241.611822 35.284769 
L 241.611822 34.768147 
L 358.8 34.768147 
L 358.8 34.768147 
" style="fill:none;stroke:#00bfbf;stroke-linecap:square;stroke-width:1.5;"/>
   </g>
   <g id="line2d_43">
    <defs>
     <path d="M -6 0 
L 6 0 
M 0 6 
L 0 -6 
" id="mad4ee6ef9c" style="stroke:#00bfbf;stroke-width:1.5;"/>
    </defs>
    <g>
     <use style="fill:none;stroke:#00bfbf;stroke-width:1.5;" x="146.062784" xlink:href="#mad4ee6ef9c" y="218.168963"/>
     <use style="fill:none;stroke:#00bfbf;stroke-width:1.5;" x="181.151112" xlink:href="#mad4ee6ef9c" y="159.274053"/>
     <use style="fill:none;stroke:#00bfbf;stroke-width:1.5;" x="208.927584" xlink:href="#mad4ee6ef9c" y="63.182358"/>
     <use style="fill:none;stroke:#00bfbf;stroke-width:1.5;" x="241.611822" xlink:href="#mad4ee6ef9c" y="34.768147"/>
     <use style="fill:none;stroke:#00bfbf;stroke-width:1.5;" x="241.611822" xlink:href="#mad4ee6ef9c" y="34.768147"/>
     <use style="fill:none;stroke:#00bfbf;stroke-width:1.5;" x="358.8" xlink:href="#mad4ee6ef9c" y="34.768147"/>
    </g>
   </g>
   <g id="line2d_44"/>
   <g id="line2d_45">
    <path clip-path="url(#pb5261df816)" d="M 165.470948 203.186924 
" style="fill:none;stroke:#00bfbf;stroke-linecap:square;stroke-width:1.5;"/>
    <defs>
     <path d="M -12 12 
L 12 -12 
M -12 -12 
L 12 12 
" id="m67e56fcfe1" style="stroke:#00bfbf;stroke-width:3;"/>
    </defs>
    <g clip-path="url(#pb5261df816)">
     <use style="fill:#00bfbf;stroke:#00bfbf;stroke-width:3;" x="165.470948" xlink:href="#m67e56fcfe1" y="203.186924"/>
    </g>
   </g>
   <g id="line2d_46">
    <defs>
     <path d="M 0 1.5 
C 0.397805 1.5 0.77937 1.341951 1.06066 1.06066 
C 1.341951 0.77937 1.5 0.397805 1.5 0 
C 1.5 -0.397805 1.341951 -0.77937 1.06066 -1.06066 
C 0.77937 -1.341951 0.397805 -1.5 0 -1.5 
C -0.397805 -1.5 -0.77937 -1.341951 -1.06066 -1.06066 
C -1.341951 -0.77937 -1.5 -0.397805 -1.5 0 
C -1.5 0.397805 -1.341951 0.77937 -1.06066 1.06066 
C -0.77937 1.341951 -0.397805 1.5 0 1.5 
z
" id="m88876cddd7" style="stroke:#008000;"/>
    </defs>
    <g>
     <use style="fill:#008000;stroke:#008000;" x="245.023957" xlink:href="#m88876cddd7" y="158.757431"/>
     <use style="fill:#008000;stroke:#008000;" x="245.023957" xlink:href="#m88876cddd7" y="158.757431"/>
    </g>
   </g>
   <g id="line2d_47">
    <path d="M 51.169868 298.245375 
L 51.169868 283.779959 
L 63.555102 283.779959 
L 63.555102 283.263337 
L 70.8 283.263337 
L 70.8 281.713471 
L 75.940337 281.713471 
L 75.940337 279.13036 
L 83.185234 279.13036 
L 83.185234 278.613738 
L 88.325571 278.613738 
L 88.325571 278.097116 
L 90.430132 278.097116 
L 90.430132 274.997384 
L 94.015739 274.997384 
L 94.015739 274.480762 
L 95.570468 274.480762 
L 95.570468 273.96414 
L 97.000681 273.96414 
L 97.000681 273.447518 
L 99.557623 273.447518 
L 99.557623 271.897652 
L 101.794053 271.897652 
L 101.794053 269.831164 
L 102.815366 269.831164 
L 102.815366 267.764676 
L 104.69796 267.764676 
L 104.69796 267.248054 
L 107.195242 267.248054 
L 107.195242 266.731432 
L 108.685114 266.731432 
L 108.685114 266.21481 
L 109.385915 266.21481 
L 109.385915 264.664944 
L 110.060263 264.664944 
L 110.060263 264.148322 
L 110.710085 264.148322 
L 110.710085 263.115078 
L 115.2006 263.115078 
L 115.2006 258.982102 
L 115.690168 258.982102 
L 115.690168 258.46548 
L 116.630812 258.46548 
L 116.630812 257.948858 
L 117.083194 257.948858 
L 117.083194 256.915614 
L 117.524404 256.915614 
L 117.524404 255.365748 
L 117.954982 255.365748 
L 117.954982 254.849126 
L 121.424184 254.849126 
L 121.424184 253.815882 
L 121.771149 253.815882 
L 121.771149 253.29926 
L 123.411577 253.29926 
L 123.411577 252.782638 
L 123.722334 252.782638 
L 123.722334 251.232772 
L 124.623439 251.232772 
L 124.623439 250.71615 
L 128.315246 250.71615 
L 128.315246 250.199528 
L 128.551913 250.199528 
L 128.551913 248.649662 
L 129.243669 248.649662 
L 129.243669 247.616418 
L 131.770429 247.616418 
L 131.770429 247.099796 
L 133.094598 247.099796 
L 133.094598 246.066551 
L 133.809418 246.066551 
L 133.809418 245.549929 
L 134.327371 245.549929 
L 134.327371 245.033307 
L 135.158596 245.033307 
L 135.158596 242.966819 
L 135.639381 242.966819 
L 135.639381 241.933575 
L 136.107569 241.933575 
L 136.107569 241.416953 
L 136.713325 241.416953 
L 136.713325 239.867087 
L 138.280459 239.867087 
L 138.280459 239.350465 
L 139.210608 239.350465 
L 139.210608 238.833843 
L 140.580961 238.833843 
L 140.580961 237.800599 
L 141.170721 237.800599 
L 141.170721 236.250733 
L 141.515454 236.250733 
L 141.515454 235.217489 
L 141.853662 235.217489 
L 141.853662 234.700867 
L 144.25357 234.700867 
L 144.25357 234.184245 
L 145.570765 234.184245 
L 145.570765 232.117757 
L 145.929935 232.117757 
L 146.01861 231.084513 
L 151.334989 231.084513 
L 151.334989 230.567891 
L 151.595842 230.567891 
L 151.595842 230.051269 
L 152.541466 230.051269 
L 152.541466 229.534647 
L 152.66385 229.534647 
L 152.66385 228.501403 
L 172.834571 228.501403 
L 172.834571 227.984781 
L 173.416646 227.984781 
L 173.511841 225.918293 
L 173.606532 225.918293 
L 173.700724 224.885049 
L 173.887631 224.885049 
L 173.887631 224.368427 
L 174.164375 224.368427 
L 174.219213 222.818561 
L 174.364631 222.818561 
L 174.364631 222.301939 
L 174.562668 222.301939 
L 174.562668 221.785317 
L 174.723081 221.785317 
L 174.811581 220.752073 
L 174.882067 220.752073 
L 174.952275 219.202207 
L 175.538168 219.202207 
L 175.538168 218.168963 
L 175.790665 218.168963 
L 175.874045 217.135719 
L 176.154658 217.135719 
L 176.252655 216.102475 
L 177.142274 216.102475 
L 177.142274 215.069231 
L 177.495198 215.069231 
L 177.495198 214.552609 
L 177.721667 214.552609 
L 177.721667 214.035987 
L 185.600304 214.035987 
L 185.667749 213.002743 
L 185.86857 213.002743 
L 185.906567 211.969498 
L 186.160955 211.969498 
L 186.254262 210.419632 
L 186.356339 210.419632 
L 186.356339 209.90301 
L 186.522127 209.90301 
L 186.595319 207.836522 
L 186.722689 207.836522 
L 186.76796 206.803278 
L 187.001533 206.803278 
L 187.001533 206.286656 
L 187.311214 206.286656 
L 187.311214 205.253412 
L 192.621786 205.253412 
L 192.725747 204.220168 
L 192.938273 204.220168 
L 193.027678 202.15368 
L 193.236664 202.15368 
L 193.337117 200.087192 
L 193.443234 200.087192 
L 193.443234 199.57057 
L 193.567276 199.57057 
L 193.604321 198.020704 
L 193.849345 198.020704 
L 193.946422 196.98746 
L 194.085052 196.98746 
L 194.085052 196.470838 
L 198.158457 196.470838 
L 198.158457 195.954216 
L 198.329718 195.954216 
L 198.438282 194.40435 
L 198.457095 194.40435 
L 198.466494 192.854484 
L 198.699885 192.854484 
L 198.78778 191.82124 
L 202.216218 191.82124 
L 202.216218 191.304618 
L 202.593117 191.304618 
L 202.593117 190.787996 
L 205.233653 190.787996 
L 205.304291 189.23813 
L 205.371458 189.23813 
L 205.371458 188.721508 
L 205.498702 188.721508 
L 205.498702 187.171642 
L 205.621898 187.171642 
L 205.621898 186.65502 
L 205.828468 186.65502 
L 205.828468 186.138398 
L 207.917117 186.138398 
L 208.01926 185.105154 
L 208.035769 185.105154 
L 208.035769 184.588532 
L 208.240853 184.588532 
L 208.251725 183.555288 
L 210.249698 183.555288 
L 210.249698 183.038666 
L 210.488635 183.038666 
L 210.543691 179.938934 
L 212.392553 179.938934 
L 212.491414 178.90569 
L 212.566271 178.90569 
L 212.606776 177.872445 
L 214.233936 177.872445 
L 214.233936 177.355823 
L 214.427295 177.355823 
L 214.427295 176.839201 
L 215.913782 176.839201 
L 215.984428 175.805957 
L 217.530195 175.805957 
L 217.530195 175.289335 
L 220.258 175.289335 
L 220.278803 172.706225 
L 221.46522 172.706225 
L 221.46522 170.639737 
L 222.596014 170.639737 
L 222.596014 170.123115 
L 224.65886 170.123115 
L 224.663199 169.089871 
L 225.532095 169.089871 
L 225.613518 167.023383 
L 226.438431 167.023383 
L 226.530495 165.990139 
L 227.371042 165.990139 
L 227.371042 165.473517 
L 229.740796 165.473517 
L 229.740796 164.956895 
L 230.460705 164.956895 
L 230.460705 164.440273 
L 233.068326 164.440273 
L 233.068326 163.923651 
L 233.655486 163.923651 
L 233.655486 163.407029 
L 236.351233 163.407029 
L 236.351233 162.890407 
L 236.876804 162.890407 
L 236.898143 161.857163 
L 240.046551 161.857163 
L 240.046551 160.823919 
L 243.407384 160.823919 
L 243.407384 160.307297 
L 244.410433 160.307297 
L 244.410433 159.790675 
L 244.708883 159.790675 
L 244.708883 159.274053 
L 245.023957 159.274053 
L 245.023957 158.757431 
L 358.8 158.757431 
L 358.8 158.757431 
" style="fill:none;stroke:#008000;stroke-linecap:square;stroke-width:1.5;"/>
   </g>
   <g id="line2d_48">
    <defs>
     <path d="M -0 6 
L 6 -6 
L -6 -6 
z
" id="m536074507e" style="stroke:#008000;stroke-linejoin:miter;stroke-width:1.5;"/>
    </defs>
    <g>
     <use style="fill:none;stroke:#008000;stroke-linejoin:miter;stroke-width:1.5;" x="99.557623" xlink:href="#m536074507e" y="273.447518"/>
     <use style="fill:none;stroke:#008000;stroke-linejoin:miter;stroke-width:1.5;" x="145.570765" xlink:href="#m536074507e" y="234.184245"/>
     <use style="fill:none;stroke:#008000;stroke-linejoin:miter;stroke-width:1.5;" x="215.984428" xlink:href="#m536074507e" y="175.805957"/>
     <use style="fill:none;stroke:#008000;stroke-linejoin:miter;stroke-width:1.5;" x="245.023957" xlink:href="#m536074507e" y="159.274053"/>
     <use style="fill:none;stroke:#008000;stroke-linejoin:miter;stroke-width:1.5;" x="245.023957" xlink:href="#m536074507e" y="158.757431"/>
     <use style="fill:none;stroke:#008000;stroke-linejoin:miter;stroke-width:1.5;" x="358.8" xlink:href="#m536074507e" y="158.757431"/>
    </g>
   </g>
   <g id="line2d_49"/>
   <g id="line2d_50">
    <path clip-path="url(#pb5261df816)" d="M 172.715846 228.501403 
" style="fill:none;stroke:#008000;stroke-linecap:square;stroke-width:1.5;"/>
    <defs>
     <path d="M -12 12 
L 12 -12 
M -12 -12 
L 12 12 
" id="m580765e30d" style="stroke:#008000;stroke-width:3;"/>
    </defs>
    <g clip-path="url(#pb5261df816)">
     <use style="fill:#008000;stroke:#008000;stroke-width:3;" x="172.715846" xlink:href="#m580765e30d" y="228.501403"/>
    </g>
   </g>
   <g id="line2d_51">
    <path d="M 358.8 158.757431 
L 390.48 292.97583 
" style="fill:none;stroke:#008000;stroke-linecap:square;stroke-width:1.5;"/>
    <g>
     <use style="fill:none;stroke:#008000;stroke-linejoin:miter;stroke-width:1.5;" x="358.8" xlink:href="#m536074507e" y="158.757431"/>
     <use style="fill:none;stroke:#008000;stroke-linejoin:miter;stroke-width:1.5;" x="390.48" xlink:href="#m536074507e" y="292.97583"/>
    </g>
   </g>
   <g id="line2d_52">
    <path d="M 358.8 34.768147 
L 390.48 40.037692 
" style="fill:none;stroke:#00bfbf;stroke-linecap:square;stroke-width:1.5;"/>
    <g>
     <use style="fill:none;stroke:#00bfbf;stroke-width:1.5;" x="358.8" xlink:href="#mad4ee6ef9c" y="34.768147"/>
     <use style="fill:none;stroke:#00bfbf;stroke-width:1.5;" x="390.48" xlink:href="#mad4ee6ef9c" y="40.037692"/>
    </g>
   </g>
   <g id="line2d_53">
    <path d="M 358.8 298.245375 
L 358.8 34.768147 
" style="fill:none;stroke:#000000;stroke-linecap:square;stroke-width:1.5;"/>
   </g>
   <g id="patch_3">
    <path d="M 70.8 298.245375 
L 70.8 32.133375 
" style="fill:none;stroke:#000000;stroke-linecap:square;stroke-linejoin:miter;stroke-width:0.8;"/>
   </g>
   <g id="patch_4">
    <path d="M 427.92 298.245375 
L 427.92 32.133375 
" style="fill:none;stroke:#000000;stroke-linecap:square;stroke-linejoin:miter;stroke-width:0.8;"/>
   </g>
   <g id="patch_5">
    <path d="M 70.8 298.245375 
L 427.92 298.245375 
" style="fill:none;stroke:#000000;stroke-linecap:square;stroke-linejoin:miter;stroke-width:0.8;"/>
   </g>
   <g id="patch_6">
    <path d="M 70.8 32.133375 
L 427.92 32.133375 
" style="fill:none;stroke:#000000;stroke-linecap:square;stroke-linejoin:miter;stroke-width:0.8;"/>
   </g>
   <g id="text_14">
    <!-- 3-D -->
    <defs>
     <path d="M 40.578125 39.3125 
Q 47.65625 37.796875 51.625 33 
Q 55.609375 28.21875 55.609375 21.1875 
Q 55.609375 10.40625 48.1875 4.484375 
Q 40.765625 -1.421875 27.09375 -1.421875 
Q 22.515625 -1.421875 17.65625 -0.515625 
Q 12.796875 0.390625 7.625 2.203125 
L 7.625 11.71875 
Q 11.71875 9.328125 16.59375 8.109375 
Q 21.484375 6.890625 26.8125 6.890625 
Q 36.078125 6.890625 40.9375 10.546875 
Q 45.796875 14.203125 45.796875 21.1875 
Q 45.796875 27.640625 41.28125 31.265625 
Q 36.765625 34.90625 28.71875 34.90625 
L 20.21875 34.90625 
L 20.21875 43.015625 
L 29.109375 43.015625 
Q 36.375 43.015625 40.234375 45.921875 
Q 44.09375 48.828125 44.09375 54.296875 
Q 44.09375 59.90625 40.109375 62.90625 
Q 36.140625 65.921875 28.71875 65.921875 
Q 24.65625 65.921875 20.015625 65.03125 
Q 15.375 64.15625 9.8125 62.3125 
L 9.8125 71.09375 
Q 15.4375 72.65625 20.34375 73.4375 
Q 25.25 74.21875 29.59375 74.21875 
Q 40.828125 74.21875 47.359375 69.109375 
Q 53.90625 64.015625 53.90625 55.328125 
Q 53.90625 49.265625 50.4375 45.09375 
Q 46.96875 40.921875 40.578125 39.3125 
" id="DejaVuSans-33"/>
     <path d="M 19.671875 64.796875 
L 19.671875 8.109375 
L 31.59375 8.109375 
Q 46.6875 8.109375 53.6875 14.9375 
Q 60.6875 21.78125 60.6875 36.53125 
Q 60.6875 51.171875 53.6875 57.984375 
Q 46.6875 64.796875 31.59375 64.796875 
z
M 9.8125 72.90625 
L 30.078125 72.90625 
Q 51.265625 72.90625 61.171875 64.09375 
Q 71.09375 55.28125 71.09375 36.53125 
Q 71.09375 17.671875 61.125 8.828125 
Q 51.171875 0 30.078125 0 
L 9.8125 0 
z
" id="DejaVuSans-44"/>
    </defs>
    <g transform="translate(396.24 297.114893)scale(0.15 -0.15)">
     <use xlink:href="#DejaVuSans-33"/>
     <use x="63.623047" xlink:href="#DejaVuSans-2d"/>
     <use x="99.707031" xlink:href="#DejaVuSans-44"/>
    </g>
   </g>
   <g id="text_15">
    <!-- 2-D -->
    <g transform="translate(396.24 44.176754)scale(0.15 -0.15)">
     <use xlink:href="#DejaVuSans-32"/>
     <use x="63.623047" xlink:href="#DejaVuSans-2d"/>
     <use x="99.707031" xlink:href="#DejaVuSans-44"/>
    </g>
   </g>
   <g id="text_16">
    <!-- bbob - f17 -->
    <defs>
     <path d="M 48.6875 27.296875 
Q 48.6875 37.203125 44.609375 42.84375 
Q 40.53125 48.484375 33.40625 48.484375 
Q 26.265625 48.484375 22.1875 42.84375 
Q 18.109375 37.203125 18.109375 27.296875 
Q 18.109375 17.390625 22.1875 11.75 
Q 26.265625 6.109375 33.40625 6.109375 
Q 40.53125 6.109375 44.609375 11.75 
Q 48.6875 17.390625 48.6875 27.296875 
M 18.109375 46.390625 
Q 20.953125 51.265625 25.265625 53.625 
Q 29.59375 56 35.59375 56 
Q 45.5625 56 51.78125 48.09375 
Q 58.015625 40.1875 58.015625 27.296875 
Q 58.015625 14.40625 51.78125 6.484375 
Q 45.5625 -1.421875 35.59375 -1.421875 
Q 29.59375 -1.421875 25.265625 0.953125 
Q 20.953125 3.328125 18.109375 8.203125 
L 18.109375 0 
L 9.078125 0 
L 9.078125 75.984375 
L 18.109375 75.984375 
z
" id="DejaVuSans-62"/>
     <path d="M 8.203125 72.90625 
L 55.078125 72.90625 
L 55.078125 68.703125 
L 28.609375 0 
L 18.3125 0 
L 43.21875 64.59375 
L 8.203125 64.59375 
z
" id="DejaVuSans-37"/>
    </defs>
    <g transform="translate(74.3712 50.114612)scale(0.1666 -0.1666)">
     <use xlink:href="#DejaVuSans-62"/>
     <use x="63.476562" xlink:href="#DejaVuSans-62"/>
     <use x="126.953125" xlink:href="#DejaVuSans-6f"/>
     <use x="188.134766" xlink:href="#DejaVuSans-62"/>
     <use x="251.611328" xlink:href="#DejaVuSans-20"/>
     <use x="283.398438" xlink:href="#DejaVuSans-2d"/>
     <use x="319.482422" xlink:href="#DejaVuSans-20"/>
     <use x="351.269531" xlink:href="#DejaVuSans-66"/>
     <use x="386.474609" xlink:href="#DejaVuSans-31"/>
     <use x="450.097656" xlink:href="#DejaVuSans-37"/>
    </g>
    <!-- 51 targets in 100..1e-08 -->
    <defs>
     <path d="M 10.796875 72.90625 
L 49.515625 72.90625 
L 49.515625 64.59375 
L 19.828125 64.59375 
L 19.828125 46.734375 
Q 21.96875 47.46875 24.109375 47.828125 
Q 26.265625 48.1875 28.421875 48.1875 
Q 40.625 48.1875 47.75 41.5 
Q 54.890625 34.8125 54.890625 23.390625 
Q 54.890625 11.625 47.5625 5.09375 
Q 40.234375 -1.421875 26.90625 -1.421875 
Q 22.3125 -1.421875 17.546875 -0.640625 
Q 12.796875 0.140625 7.71875 1.703125 
L 7.71875 11.625 
Q 12.109375 9.234375 16.796875 8.0625 
Q 21.484375 6.890625 26.703125 6.890625 
Q 35.15625 6.890625 40.078125 11.328125 
Q 45.015625 15.765625 45.015625 23.390625 
Q 45.015625 31 40.078125 35.4375 
Q 35.15625 39.890625 26.703125 39.890625 
Q 22.75 39.890625 18.8125 39.015625 
Q 14.890625 38.140625 10.796875 36.28125 
z
" id="DejaVuSans-35"/>
    </defs>
    <g transform="translate(74.3712 68.770168)scale(0.1666 -0.1666)">
     <use xlink:href="#DejaVuSans-35"/>
     <use x="63.623047" xlink:href="#DejaVuSans-31"/>
     <use x="127.246094" xlink:href="#DejaVuSans-20"/>
     <use x="159.033203" xlink:href="#DejaVuSans-74"/>
     <use x="198.242188" xlink:href="#DejaVuSans-61"/>
     <use x="259.521484" xlink:href="#DejaVuSans-72"/>
     <use x="300.619141" xlink:href="#DejaVuSans-67"/>
     <use x="364.095703" xlink:href="#DejaVuSans-65"/>
     <use x="425.619141" xlink:href="#DejaVuSans-74"/>
     <use x="464.828125" xlink:href="#DejaVuSans-73"/>
     <use x="516.927734" xlink:href="#DejaVuSans-20"/>
     <use x="548.714844" xlink:href="#DejaVuSans-69"/>
     <use x="576.498047" xlink:href="#DejaVuSans-6e"/>
     <use x="639.876953" xlink:href="#DejaVuSans-20"/>
     <use x="671.664062" xlink:href="#DejaVuSans-31"/>
     <use x="735.287109" xlink:href="#DejaVuSans-30"/>
     <use x="798.910156" xlink:href="#DejaVuSans-30"/>
     <use x="862.533203" xlink:href="#DejaVuSans-2e"/>
     <use x="894.320312" xlink:href="#DejaVuSans-2e"/>
     <use x="926.107422" xlink:href="#DejaVuSans-31"/>
     <use x="989.730469" xlink:href="#DejaVuSans-65"/>
     <use x="1051.253906" xlink:href="#DejaVuSans-2d"/>
     <use x="1087.337891" xlink:href="#DejaVuSans-30"/>
     <use x="1150.960938" xlink:href="#DejaVuSans-38"/>
    </g>
    <!-- 15 instances -->
    <g transform="translate(74.3712 87.425723)scale(0.1666 -0.1666)">
     <use xlink:href="#DejaVuSans-31"/>
     <use x="63.623047" xlink:href="#DejaVuSans-35"/>
     <use x="127.246094" xlink:href="#DejaVuSans-20"/>
     <use x="159.033203" xlink:href="#DejaVuSans-69"/>
     <use x="186.816406" xlink:href="#DejaVuSans-6e"/>
     <use x="250.195312" xlink:href="#DejaVuSans-73"/>
     <use x="302.294922" xlink:href="#DejaVuSans-74"/>
     <use x="341.503906" xlink:href="#DejaVuSans-61"/>
     <use x="402.783203" xlink:href="#DejaVuSans-6e"/>
     <use x="466.162109" xlink:href="#DejaVuSans-63"/>
     <use x="521.142578" xlink:href="#DejaVuSans-65"/>
     <use x="582.666016" xlink:href="#DejaVuSans-73"/>
    </g>
   </g>
   <g id="text_17">
    <!-- v2.1 -->
    <g style="fill:#808080;" transform="translate(238.449063 293.504568)scale(0.1 -0.1)">
     <use xlink:href="#DejaVuSans-76"/>
     <use x="59.179688" xlink:href="#DejaVuSans-32"/>
     <use x="122.802734" xlink:href="#DejaVuSans-2e"/>
     <use x="154.589844" xlink:href="#DejaVuSans-31"/>
    </g>
   </g>
   <g id="text_18">
    <!-- 17 Schaffer F7, condition 10 -->
    <defs>
     <path d="M 53.515625 70.515625 
L 53.515625 60.890625 
Q 47.90625 63.578125 42.921875 64.890625 
Q 37.9375 66.21875 33.296875 66.21875 
Q 25.25 66.21875 20.875 63.09375 
Q 16.5 59.96875 16.5 54.203125 
Q 16.5 49.359375 19.40625 46.890625 
Q 22.3125 44.4375 30.421875 42.921875 
L 36.375 41.703125 
Q 47.40625 39.59375 52.65625 34.296875 
Q 57.90625 29 57.90625 20.125 
Q 57.90625 9.515625 50.796875 4.046875 
Q 43.703125 -1.421875 29.984375 -1.421875 
Q 24.8125 -1.421875 18.96875 -0.25 
Q 13.140625 0.921875 6.890625 3.21875 
L 6.890625 13.375 
Q 12.890625 10.015625 18.65625 8.296875 
Q 24.421875 6.59375 29.984375 6.59375 
Q 38.421875 6.59375 43.015625 9.90625 
Q 47.609375 13.234375 47.609375 19.390625 
Q 47.609375 24.75 44.3125 27.78125 
Q 41.015625 30.8125 33.5 32.328125 
L 27.484375 33.5 
Q 16.453125 35.6875 11.515625 40.375 
Q 6.59375 45.0625 6.59375 53.421875 
Q 6.59375 63.09375 13.40625 68.65625 
Q 20.21875 74.21875 32.171875 74.21875 
Q 37.3125 74.21875 42.625 73.28125 
Q 47.953125 72.359375 53.515625 70.515625 
" id="DejaVuSans-53"/>
     <path d="M 54.890625 33.015625 
L 54.890625 0 
L 45.90625 0 
L 45.90625 32.71875 
Q 45.90625 40.484375 42.875 44.328125 
Q 39.84375 48.1875 33.796875 48.1875 
Q 26.515625 48.1875 22.3125 43.546875 
Q 18.109375 38.921875 18.109375 30.90625 
L 18.109375 0 
L 9.078125 0 
L 9.078125 75.984375 
L 18.109375 75.984375 
L 18.109375 46.1875 
Q 21.34375 51.125 25.703125 53.5625 
Q 30.078125 56 35.796875 56 
Q 45.21875 56 50.046875 50.171875 
Q 54.890625 44.34375 54.890625 33.015625 
" id="DejaVuSans-68"/>
     <path d="M 9.8125 72.90625 
L 51.703125 72.90625 
L 51.703125 64.59375 
L 19.671875 64.59375 
L 19.671875 43.109375 
L 48.578125 43.109375 
L 48.578125 34.8125 
L 19.671875 34.8125 
L 19.671875 0 
L 9.8125 0 
z
" id="DejaVuSans-46"/>
     <path d="M 11.71875 12.40625 
L 22.015625 12.40625 
L 22.015625 4 
L 14.015625 -11.625 
L 7.71875 -11.625 
L 11.71875 4 
z
" id="DejaVuSans-2c"/>
    </defs>
    <g transform="translate(79.790625 26.133375)scale(0.24 -0.24)">
     <use xlink:href="#DejaVuSans-31"/>
     <use x="63.623047" xlink:href="#DejaVuSans-37"/>
     <use x="127.246094" xlink:href="#DejaVuSans-20"/>
     <use x="159.033203" xlink:href="#DejaVuSans-53"/>
     <use x="222.509766" xlink:href="#DejaVuSans-63"/>
     <use x="277.490234" xlink:href="#DejaVuSans-68"/>
     <use x="340.869141" xlink:href="#DejaVuSans-61"/>
     <use x="402.148438" xlink:href="#DejaVuSans-66"/>
     <use x="437.353516" xlink:href="#DejaVuSans-66"/>
     <use x="472.558594" xlink:href="#DejaVuSans-65"/>
     <use x="534.082031" xlink:href="#DejaVuSans-72"/>
     <use x="575.195312" xlink:href="#DejaVuSans-20"/>
     <use x="606.982422" xlink:href="#DejaVuSans-46"/>
     <use x="664.501953" xlink:href="#DejaVuSans-37"/>
     <use x="728.125" xlink:href="#DejaVuSans-2c"/>
     <use x="759.912109" xlink:href="#DejaVuSans-20"/>
     <use x="791.699219" xlink:href="#DejaVuSans-63"/>
     <use x="846.679688" xlink:href="#DejaVuSans-6f"/>
     <use x="907.861328" xlink:href="#DejaVuSans-6e"/>
     <use x="971.240234" xlink:href="#DejaVuSans-64"/>
     <use x="1034.716797" xlink:href="#DejaVuSans-69"/>
     <use x="1062.5" xlink:href="#DejaVuSans-74"/>
     <use x="1101.708984" xlink:href="#DejaVuSans-69"/>
     <use x="1129.492188" xlink:href="#DejaVuSans-6f"/>
     <use x="1190.673828" xlink:href="#DejaVuSans-6e"/>
     <use x="1254.052734" xlink:href="#DejaVuSans-20"/>
     <use x="1285.839844" xlink:href="#DejaVuSans-31"/>
     <use x="1349.462891" xlink:href="#DejaVuSans-30"/>
    </g>
   </g>
  </g>
 </g>
 <defs>
  <clipPath id="pb5261df816">
   <rect height="266.112" width="357.12" x="70.8" y="32.133375"/>
  </clipPath>
 </defs>
</svg>
