<?xml version="1.0" encoding="utf-8" standalone="no"?>
<!DOCTYPE svg PUBLIC "-//W3C//DTD SVG 1.1//EN"
  "http://www.w3.org/Graphics/SVG/1.1/DTD/svg11.dtd">
<!-- Created with matplotlib (http://matplotlib.org/) -->
<svg height="353pt" version="1.1" viewBox="0 0 438 353" width="438pt" xmlns="http://www.w3.org/2000/svg" xmlns:xlink="http://www.w3.org/1999/xlink">
 <defs>
  <style type="text/css">
*{stroke-linecap:butt;stroke-linejoin:round;}
  </style>
 </defs>
 <g id="figure_1">
  <g id="patch_1">
   <path d="M 0 353.22225 
L 438.62 353.22225 
L 438.62 0 
L 0 0 
z
" style="fill:#ffffff;"/>
  </g>
  <g id="axes_1">
   <g id="patch_2">
    <path d="M 70.8 298.245375 
L 427.92 298.245375 
L 427.92 32.133375 
L 70.8 32.133375 
z
" style="fill:#ffffff;"/>
   </g>
   <g id="matplotlib.axis_1">
    <g id="xtick_1">
     <g id="line2d_1">
      <path clip-path="url(#p9e52f1fefb)" d="M 70.8 298.245375 
L 70.8 32.133375 
" style="fill:none;stroke:#b0b0b0;stroke-linecap:square;stroke-width:0.8;"/>
     </g>
     <g id="line2d_2">
      <defs>
       <path d="M 0 0 
L 0 3.5 
" id="m7770eed418" style="stroke:#000000;stroke-width:0.8;"/>
      </defs>
      <g>
       <use style="stroke:#000000;stroke-width:0.8;" x="70.8" xlink:href="#m7770eed418" y="298.245375"/>
      </g>
     </g>
     <g id="text_1">
      <!-- 0 -->
      <defs>
       <path d="M 31.78125 66.40625 
Q 24.171875 66.40625 20.328125 58.90625 
Q 16.5 51.421875 16.5 36.375 
Q 16.5 21.390625 20.328125 13.890625 
Q 24.171875 6.390625 31.78125 6.390625 
Q 39.453125 6.390625 43.28125 13.890625 
Q 47.125 21.390625 47.125 36.375 
Q 47.125 51.421875 43.28125 58.90625 
Q 39.453125 66.40625 31.78125 66.40625 
M 31.78125 74.21875 
Q 44.046875 74.21875 50.515625 64.515625 
Q 56.984375 54.828125 56.984375 36.375 
Q 56.984375 17.96875 50.515625 8.265625 
Q 44.046875 -1.421875 31.78125 -1.421875 
Q 19.53125 -1.421875 13.0625 8.265625 
Q 6.59375 17.96875 6.59375 36.375 
Q 6.59375 54.828125 13.0625 64.515625 
Q 19.53125 74.21875 31.78125 74.21875 
" id="DejaVuSans-30"/>
      </defs>
      <g transform="translate(64.4375 320.44225)scale(0.2 -0.2)">
       <use xlink:href="#DejaVuSans-30"/>
      </g>
     </g>
    </g>
    <g id="xtick_2">
     <g id="line2d_3">
      <path clip-path="url(#p9e52f1fefb)" d="M 153.085714 298.245375 
L 153.085714 32.133375 
" style="fill:none;stroke:#b0b0b0;stroke-linecap:square;stroke-width:0.8;"/>
     </g>
     <g id="line2d_4">
      <g>
       <use style="stroke:#000000;stroke-width:0.8;" x="153.085714" xlink:href="#m7770eed418" y="298.245375"/>
      </g>
     </g>
     <g id="text_2">
      <!-- 2 -->
      <defs>
       <path d="M 19.1875 8.296875 
L 53.609375 8.296875 
L 53.609375 0 
L 7.328125 0 
L 7.328125 8.296875 
Q 12.9375 14.109375 22.625 23.890625 
Q 32.328125 33.6875 34.8125 36.53125 
Q 39.546875 41.84375 41.421875 45.53125 
Q 43.3125 49.21875 43.3125 52.78125 
Q 43.3125 58.59375 39.234375 62.25 
Q 35.15625 65.921875 28.609375 65.921875 
Q 23.96875 65.921875 18.8125 64.3125 
Q 13.671875 62.703125 7.8125 59.421875 
L 7.8125 69.390625 
Q 13.765625 71.78125 18.9375 73 
Q 24.125 74.21875 28.421875 74.21875 
Q 39.75 74.21875 46.484375 68.546875 
Q 53.21875 62.890625 53.21875 53.421875 
Q 53.21875 48.921875 51.53125 44.890625 
Q 49.859375 40.875 45.40625 35.40625 
Q 44.1875 33.984375 37.640625 27.21875 
Q 31.109375 20.453125 19.1875 8.296875 
" id="DejaVuSans-32"/>
      </defs>
      <g transform="translate(146.723214 320.44225)scale(0.2 -0.2)">
       <use xlink:href="#DejaVuSans-32"/>
      </g>
     </g>
    </g>
    <g id="xtick_3">
     <g id="line2d_5">
      <path clip-path="url(#p9e52f1fefb)" d="M 235.371429 298.245375 
L 235.371429 32.133375 
" style="fill:none;stroke:#b0b0b0;stroke-linecap:square;stroke-width:0.8;"/>
     </g>
     <g id="line2d_6">
      <g>
       <use style="stroke:#000000;stroke-width:0.8;" x="235.371429" xlink:href="#m7770eed418" y="298.245375"/>
      </g>
     </g>
     <g id="text_3">
      <!-- 4 -->
      <defs>
       <path d="M 37.796875 64.3125 
L 12.890625 25.390625 
L 37.796875 25.390625 
z
M 35.203125 72.90625 
L 47.609375 72.90625 
L 47.609375 25.390625 
L 58.015625 25.390625 
L 58.015625 17.1875 
L 47.609375 17.1875 
L 47.609375 0 
L 37.796875 0 
L 37.796875 17.1875 
L 4.890625 17.1875 
L 4.890625 26.703125 
z
" id="DejaVuSans-34"/>
      </defs>
      <g transform="translate(229.008929 320.44225)scale(0.2 -0.2)">
       <use xlink:href="#DejaVuSans-34"/>
      </g>
     </g>
    </g>
    <g id="xtick_4">
     <g id="line2d_7">
      <path clip-path="url(#p9e52f1fefb)" d="M 317.657143 298.245375 
L 317.657143 32.133375 
" style="fill:none;stroke:#b0b0b0;stroke-linecap:square;stroke-width:0.8;"/>
     </g>
     <g id="line2d_8">
      <g>
       <use style="stroke:#000000;stroke-width:0.8;" x="317.657143" xlink:href="#m7770eed418" y="298.245375"/>
      </g>
     </g>
     <g id="text_4">
      <!-- 6 -->
      <defs>
       <path d="M 33.015625 40.375 
Q 26.375 40.375 22.484375 35.828125 
Q 18.609375 31.296875 18.609375 23.390625 
Q 18.609375 15.53125 22.484375 10.953125 
Q 26.375 6.390625 33.015625 6.390625 
Q 39.65625 6.390625 43.53125 10.953125 
Q 47.40625 15.53125 47.40625 23.390625 
Q 47.40625 31.296875 43.53125 35.828125 
Q 39.65625 40.375 33.015625 40.375 
M 52.59375 71.296875 
L 52.59375 62.3125 
Q 48.875 64.0625 45.09375 64.984375 
Q 41.3125 65.921875 37.59375 65.921875 
Q 27.828125 65.921875 22.671875 59.328125 
Q 17.53125 52.734375 16.796875 39.40625 
Q 19.671875 43.65625 24.015625 45.921875 
Q 28.375 48.1875 33.59375 48.1875 
Q 44.578125 48.1875 50.953125 41.515625 
Q 57.328125 34.859375 57.328125 23.390625 
Q 57.328125 12.15625 50.6875 5.359375 
Q 44.046875 -1.421875 33.015625 -1.421875 
Q 20.359375 -1.421875 13.671875 8.265625 
Q 6.984375 17.96875 6.984375 36.375 
Q 6.984375 53.65625 15.1875 63.9375 
Q 23.390625 74.21875 37.203125 74.21875 
Q 40.921875 74.21875 44.703125 73.484375 
Q 48.484375 72.75 52.59375 71.296875 
" id="DejaVuSans-36"/>
      </defs>
      <g transform="translate(311.294643 320.44225)scale(0.2 -0.2)">
       <use xlink:href="#DejaVuSans-36"/>
      </g>
     </g>
    </g>
    <g id="xtick_5">
     <g id="line2d_9">
      <path clip-path="url(#p9e52f1fefb)" d="M 399.942857 298.245375 
L 399.942857 32.133375 
" style="fill:none;stroke:#b0b0b0;stroke-linecap:square;stroke-width:0.8;"/>
     </g>
     <g id="line2d_10">
      <g>
       <use style="stroke:#000000;stroke-width:0.8;" x="399.942857" xlink:href="#m7770eed418" y="298.245375"/>
      </g>
     </g>
     <g id="text_5">
      <!-- 8 -->
      <defs>
       <path d="M 31.78125 34.625 
Q 24.75 34.625 20.71875 30.859375 
Q 16.703125 27.09375 16.703125 20.515625 
Q 16.703125 13.921875 20.71875 10.15625 
Q 24.75 6.390625 31.78125 6.390625 
Q 38.8125 6.390625 42.859375 10.171875 
Q 46.921875 13.96875 46.921875 20.515625 
Q 46.921875 27.09375 42.890625 30.859375 
Q 38.875 34.625 31.78125 34.625 
M 21.921875 38.8125 
Q 15.578125 40.375 12.03125 44.71875 
Q 8.5 49.078125 8.5 55.328125 
Q 8.5 64.0625 14.71875 69.140625 
Q 20.953125 74.21875 31.78125 74.21875 
Q 42.671875 74.21875 48.875 69.140625 
Q 55.078125 64.0625 55.078125 55.328125 
Q 55.078125 49.078125 51.53125 44.71875 
Q 48 40.375 41.703125 38.8125 
Q 48.828125 37.15625 52.796875 32.3125 
Q 56.78125 27.484375 56.78125 20.515625 
Q 56.78125 9.90625 50.3125 4.234375 
Q 43.84375 -1.421875 31.78125 -1.421875 
Q 19.734375 -1.421875 13.25 4.234375 
Q 6.78125 9.90625 6.78125 20.515625 
Q 6.78125 27.484375 10.78125 32.3125 
Q 14.796875 37.15625 21.921875 38.8125 
M 18.3125 54.390625 
Q 18.3125 48.734375 21.84375 45.5625 
Q 25.390625 42.390625 31.78125 42.390625 
Q 38.140625 42.390625 41.71875 45.5625 
Q 45.3125 48.734375 45.3125 54.390625 
Q 45.3125 60.0625 41.71875 63.234375 
Q 38.140625 66.40625 31.78125 66.40625 
Q 25.390625 66.40625 21.84375 63.234375 
Q 18.3125 60.0625 18.3125 54.390625 
" id="DejaVuSans-38"/>
      </defs>
      <g transform="translate(393.580357 320.44225)scale(0.2 -0.2)">
       <use xlink:href="#DejaVuSans-38"/>
      </g>
     </g>
    </g>
    <g id="xtick_6">
     <g id="line2d_11">
      <defs>
       <path d="M 0 0 
L 0 2 
" id="me396729eef" style="stroke:#000000;stroke-width:0.6;"/>
      </defs>
      <g>
       <use style="stroke:#000000;stroke-width:0.6;" x="83.185234" xlink:href="#me396729eef" y="298.245375"/>
      </g>
     </g>
    </g>
    <g id="xtick_7">
     <g id="line2d_12">
      <g>
       <use style="stroke:#000000;stroke-width:0.6;" x="95.570468" xlink:href="#me396729eef" y="298.245375"/>
      </g>
     </g>
    </g>
    <g id="xtick_8">
     <g id="line2d_13">
      <g>
       <use style="stroke:#000000;stroke-width:0.6;" x="102.815366" xlink:href="#me396729eef" y="298.245375"/>
      </g>
     </g>
    </g>
    <g id="xtick_9">
     <g id="line2d_14">
      <g>
       <use style="stroke:#000000;stroke-width:0.6;" x="107.955702" xlink:href="#me396729eef" y="298.245375"/>
      </g>
     </g>
    </g>
    <g id="xtick_10">
     <g id="line2d_15">
      <g>
       <use style="stroke:#000000;stroke-width:0.6;" x="165.470948" xlink:href="#me396729eef" y="298.245375"/>
      </g>
     </g>
    </g>
    <g id="xtick_11">
     <g id="line2d_16">
      <g>
       <use style="stroke:#000000;stroke-width:0.6;" x="177.856183" xlink:href="#me396729eef" y="298.245375"/>
      </g>
     </g>
    </g>
    <g id="xtick_12">
     <g id="line2d_17">
      <g>
       <use style="stroke:#000000;stroke-width:0.6;" x="185.10108" xlink:href="#me396729eef" y="298.245375"/>
      </g>
     </g>
    </g>
    <g id="xtick_13">
     <g id="line2d_18">
      <g>
       <use style="stroke:#000000;stroke-width:0.6;" x="190.241417" xlink:href="#me396729eef" y="298.245375"/>
      </g>
     </g>
    </g>
    <g id="xtick_14">
     <g id="line2d_19">
      <g>
       <use style="stroke:#000000;stroke-width:0.6;" x="247.756663" xlink:href="#me396729eef" y="298.245375"/>
      </g>
     </g>
    </g>
    <g id="xtick_15">
     <g id="line2d_20">
      <g>
       <use style="stroke:#000000;stroke-width:0.6;" x="260.141897" xlink:href="#me396729eef" y="298.245375"/>
      </g>
     </g>
    </g>
    <g id="xtick_16">
     <g id="line2d_21">
      <g>
       <use style="stroke:#000000;stroke-width:0.6;" x="267.386794" xlink:href="#me396729eef" y="298.245375"/>
      </g>
     </g>
    </g>
    <g id="xtick_17">
     <g id="line2d_22">
      <g>
       <use style="stroke:#000000;stroke-width:0.6;" x="272.527131" xlink:href="#me396729eef" y="298.245375"/>
      </g>
     </g>
    </g>
    <g id="xtick_18">
     <g id="line2d_23">
      <g>
       <use style="stroke:#000000;stroke-width:0.6;" x="330.042377" xlink:href="#me396729eef" y="298.245375"/>
      </g>
     </g>
    </g>
    <g id="xtick_19">
     <g id="line2d_24">
      <g>
       <use style="stroke:#000000;stroke-width:0.6;" x="342.427611" xlink:href="#me396729eef" y="298.245375"/>
      </g>
     </g>
    </g>
    <g id="xtick_20">
     <g id="line2d_25">
      <g>
       <use style="stroke:#000000;stroke-width:0.6;" x="349.672509" xlink:href="#me396729eef" y="298.245375"/>
      </g>
     </g>
    </g>
    <g id="xtick_21">
     <g id="line2d_26">
      <g>
       <use style="stroke:#000000;stroke-width:0.6;" x="354.812845" xlink:href="#me396729eef" y="298.245375"/>
      </g>
     </g>
    </g>
    <g id="xtick_22">
     <g id="line2d_27">
      <g>
       <use style="stroke:#000000;stroke-width:0.6;" x="412.328091" xlink:href="#me396729eef" y="298.245375"/>
      </g>
     </g>
    </g>
    <g id="xtick_23">
     <g id="line2d_28">
      <g>
       <use style="stroke:#000000;stroke-width:0.6;" x="424.713325" xlink:href="#me396729eef" y="298.245375"/>
      </g>
     </g>
    </g>
    <g id="text_6">
     <!-- log10 of (# f-evals / dimension) -->
     <defs>
      <path d="M 9.421875 75.984375 
L 18.40625 75.984375 
L 18.40625 0 
L 9.421875 0 
z
" id="DejaVuSans-6c"/>
      <path d="M 30.609375 48.390625 
Q 23.390625 48.390625 19.1875 42.75 
Q 14.984375 37.109375 14.984375 27.296875 
Q 14.984375 17.484375 19.15625 11.84375 
Q 23.34375 6.203125 30.609375 6.203125 
Q 37.796875 6.203125 41.984375 11.859375 
Q 46.1875 17.53125 46.1875 27.296875 
Q 46.1875 37.015625 41.984375 42.703125 
Q 37.796875 48.390625 30.609375 48.390625 
M 30.609375 56 
Q 42.328125 56 49.015625 48.375 
Q 55.71875 40.765625 55.71875 27.296875 
Q 55.71875 13.875 49.015625 6.21875 
Q 42.328125 -1.421875 30.609375 -1.421875 
Q 18.84375 -1.421875 12.171875 6.21875 
Q 5.515625 13.875 5.515625 27.296875 
Q 5.515625 40.765625 12.171875 48.375 
Q 18.84375 56 30.609375 56 
" id="DejaVuSans-6f"/>
      <path d="M 45.40625 27.984375 
Q 45.40625 37.75 41.375 43.109375 
Q 37.359375 48.484375 30.078125 48.484375 
Q 22.859375 48.484375 18.828125 43.109375 
Q 14.796875 37.75 14.796875 27.984375 
Q 14.796875 18.265625 18.828125 12.890625 
Q 22.859375 7.515625 30.078125 7.515625 
Q 37.359375 7.515625 41.375 12.890625 
Q 45.40625 18.265625 45.40625 27.984375 
M 54.390625 6.78125 
Q 54.390625 -7.171875 48.1875 -13.984375 
Q 42 -20.796875 29.203125 -20.796875 
Q 24.46875 -20.796875 20.265625 -20.09375 
Q 16.0625 -19.390625 12.109375 -17.921875 
L 12.109375 -9.1875 
Q 16.0625 -11.328125 19.921875 -12.34375 
Q 23.78125 -13.375 27.78125 -13.375 
Q 36.625 -13.375 41.015625 -8.765625 
Q 45.40625 -4.15625 45.40625 5.171875 
L 45.40625 9.625 
Q 42.625 4.78125 38.28125 2.390625 
Q 33.9375 0 27.875 0 
Q 17.828125 0 11.671875 7.65625 
Q 5.515625 15.328125 5.515625 27.984375 
Q 5.515625 40.671875 11.671875 48.328125 
Q 17.828125 56 27.875 56 
Q 33.9375 56 38.28125 53.609375 
Q 42.625 51.21875 45.40625 46.390625 
L 45.40625 54.6875 
L 54.390625 54.6875 
z
" id="DejaVuSans-67"/>
      <path d="M 12.40625 8.296875 
L 28.515625 8.296875 
L 28.515625 63.921875 
L 10.984375 60.40625 
L 10.984375 69.390625 
L 28.421875 72.90625 
L 38.28125 72.90625 
L 38.28125 8.296875 
L 54.390625 8.296875 
L 54.390625 0 
L 12.40625 0 
z
" id="DejaVuSans-31"/>
      <path id="DejaVuSans-20"/>
      <path d="M 37.109375 75.984375 
L 37.109375 68.5 
L 28.515625 68.5 
Q 23.6875 68.5 21.796875 66.546875 
Q 19.921875 64.59375 19.921875 59.515625 
L 19.921875 54.6875 
L 34.71875 54.6875 
L 34.71875 47.703125 
L 19.921875 47.703125 
L 19.921875 0 
L 10.890625 0 
L 10.890625 47.703125 
L 2.296875 47.703125 
L 2.296875 54.6875 
L 10.890625 54.6875 
L 10.890625 58.5 
Q 10.890625 67.625 15.140625 71.796875 
Q 19.390625 75.984375 28.609375 75.984375 
z
" id="DejaVuSans-66"/>
      <path d="M 31 75.875 
Q 24.46875 64.65625 21.28125 53.65625 
Q 18.109375 42.671875 18.109375 31.390625 
Q 18.109375 20.125 21.3125 9.0625 
Q 24.515625 -2 31 -13.1875 
L 23.1875 -13.1875 
Q 15.875 -1.703125 12.234375 9.375 
Q 8.59375 20.453125 8.59375 31.390625 
Q 8.59375 42.28125 12.203125 53.3125 
Q 15.828125 64.359375 23.1875 75.875 
z
" id="DejaVuSans-28"/>
      <path d="M 51.125 44 
L 36.921875 44 
L 32.8125 27.6875 
L 47.125 27.6875 
z
M 43.796875 71.78125 
L 38.71875 51.515625 
L 52.984375 51.515625 
L 58.109375 71.78125 
L 65.921875 71.78125 
L 60.890625 51.515625 
L 76.125 51.515625 
L 76.125 44 
L 58.984375 44 
L 54.984375 27.6875 
L 70.515625 27.6875 
L 70.515625 20.21875 
L 53.078125 20.21875 
L 48 0 
L 40.1875 0 
L 45.21875 20.21875 
L 30.90625 20.21875 
L 25.875 0 
L 18.015625 0 
L 23.09375 20.21875 
L 7.71875 20.21875 
L 7.71875 27.6875 
L 24.90625 27.6875 
L 29 44 
L 13.28125 44 
L 13.28125 51.515625 
L 30.90625 51.515625 
L 35.890625 71.78125 
z
" id="DejaVuSans-23"/>
      <path d="M 4.890625 31.390625 
L 31.203125 31.390625 
L 31.203125 23.390625 
L 4.890625 23.390625 
z
" id="DejaVuSans-2d"/>
      <path d="M 56.203125 29.59375 
L 56.203125 25.203125 
L 14.890625 25.203125 
Q 15.484375 15.921875 20.484375 11.0625 
Q 25.484375 6.203125 34.421875 6.203125 
Q 39.59375 6.203125 44.453125 7.46875 
Q 49.3125 8.734375 54.109375 11.28125 
L 54.109375 2.78125 
Q 49.265625 0.734375 44.1875 -0.34375 
Q 39.109375 -1.421875 33.890625 -1.421875 
Q 20.796875 -1.421875 13.15625 6.1875 
Q 5.515625 13.8125 5.515625 26.8125 
Q 5.515625 40.234375 12.765625 48.109375 
Q 20.015625 56 32.328125 56 
Q 43.359375 56 49.78125 48.890625 
Q 56.203125 41.796875 56.203125 29.59375 
M 47.21875 32.234375 
Q 47.125 39.59375 43.09375 43.984375 
Q 39.0625 48.390625 32.421875 48.390625 
Q 24.90625 48.390625 20.390625 44.140625 
Q 15.875 39.890625 15.1875 32.171875 
z
" id="DejaVuSans-65"/>
      <path d="M 2.984375 54.6875 
L 12.5 54.6875 
L 29.59375 8.796875 
L 46.6875 54.6875 
L 56.203125 54.6875 
L 35.6875 0 
L 23.484375 0 
z
" id="DejaVuSans-76"/>
      <path d="M 34.28125 27.484375 
Q 23.390625 27.484375 19.1875 25 
Q 14.984375 22.515625 14.984375 16.5 
Q 14.984375 11.71875 18.140625 8.90625 
Q 21.296875 6.109375 26.703125 6.109375 
Q 34.1875 6.109375 38.703125 11.40625 
Q 43.21875 16.703125 43.21875 25.484375 
L 43.21875 27.484375 
z
M 52.203125 31.203125 
L 52.203125 0 
L 43.21875 0 
L 43.21875 8.296875 
Q 40.140625 3.328125 35.546875 0.953125 
Q 30.953125 -1.421875 24.3125 -1.421875 
Q 15.921875 -1.421875 10.953125 3.296875 
Q 6 8.015625 6 15.921875 
Q 6 25.140625 12.171875 29.828125 
Q 18.359375 34.515625 30.609375 34.515625 
L 43.21875 34.515625 
L 43.21875 35.40625 
Q 43.21875 41.609375 39.140625 45 
Q 35.0625 48.390625 27.6875 48.390625 
Q 23 48.390625 18.546875 47.265625 
Q 14.109375 46.140625 10.015625 43.890625 
L 10.015625 52.203125 
Q 14.9375 54.109375 19.578125 55.046875 
Q 24.21875 56 28.609375 56 
Q 40.484375 56 46.34375 49.84375 
Q 52.203125 43.703125 52.203125 31.203125 
" id="DejaVuSans-61"/>
      <path d="M 44.28125 53.078125 
L 44.28125 44.578125 
Q 40.484375 46.53125 36.375 47.5 
Q 32.28125 48.484375 27.875 48.484375 
Q 21.1875 48.484375 17.84375 46.4375 
Q 14.5 44.390625 14.5 40.28125 
Q 14.5 37.15625 16.890625 35.375 
Q 19.28125 33.59375 26.515625 31.984375 
L 29.59375 31.296875 
Q 39.15625 29.25 43.1875 25.515625 
Q 47.21875 21.78125 47.21875 15.09375 
Q 47.21875 7.46875 41.1875 3.015625 
Q 35.15625 -1.421875 24.609375 -1.421875 
Q 20.21875 -1.421875 15.453125 -0.5625 
Q 10.6875 0.296875 5.421875 2 
L 5.421875 11.28125 
Q 10.40625 8.6875 15.234375 7.390625 
Q 20.0625 6.109375 24.8125 6.109375 
Q 31.15625 6.109375 34.5625 8.28125 
Q 37.984375 10.453125 37.984375 14.40625 
Q 37.984375 18.0625 35.515625 20.015625 
Q 33.0625 21.96875 24.703125 23.78125 
L 21.578125 24.515625 
Q 13.234375 26.265625 9.515625 29.90625 
Q 5.8125 33.546875 5.8125 39.890625 
Q 5.8125 47.609375 11.28125 51.796875 
Q 16.75 56 26.8125 56 
Q 31.78125 56 36.171875 55.265625 
Q 40.578125 54.546875 44.28125 53.078125 
" id="DejaVuSans-73"/>
      <path d="M 25.390625 72.90625 
L 33.6875 72.90625 
L 8.296875 -9.28125 
L 0 -9.28125 
z
" id="DejaVuSans-2f"/>
      <path d="M 45.40625 46.390625 
L 45.40625 75.984375 
L 54.390625 75.984375 
L 54.390625 0 
L 45.40625 0 
L 45.40625 8.203125 
Q 42.578125 3.328125 38.25 0.953125 
Q 33.9375 -1.421875 27.875 -1.421875 
Q 17.96875 -1.421875 11.734375 6.484375 
Q 5.515625 14.40625 5.515625 27.296875 
Q 5.515625 40.1875 11.734375 48.09375 
Q 17.96875 56 27.875 56 
Q 33.9375 56 38.25 53.625 
Q 42.578125 51.265625 45.40625 46.390625 
M 14.796875 27.296875 
Q 14.796875 17.390625 18.875 11.75 
Q 22.953125 6.109375 30.078125 6.109375 
Q 37.203125 6.109375 41.296875 11.75 
Q 45.40625 17.390625 45.40625 27.296875 
Q 45.40625 37.203125 41.296875 42.84375 
Q 37.203125 48.484375 30.078125 48.484375 
Q 22.953125 48.484375 18.875 42.84375 
Q 14.796875 37.203125 14.796875 27.296875 
" id="DejaVuSans-64"/>
      <path d="M 9.421875 54.6875 
L 18.40625 54.6875 
L 18.40625 0 
L 9.421875 0 
z
M 9.421875 75.984375 
L 18.40625 75.984375 
L 18.40625 64.59375 
L 9.421875 64.59375 
z
" id="DejaVuSans-69"/>
      <path d="M 52 44.1875 
Q 55.375 50.25 60.0625 53.125 
Q 64.75 56 71.09375 56 
Q 79.640625 56 84.28125 50.015625 
Q 88.921875 44.046875 88.921875 33.015625 
L 88.921875 0 
L 79.890625 0 
L 79.890625 32.71875 
Q 79.890625 40.578125 77.09375 44.375 
Q 74.3125 48.1875 68.609375 48.1875 
Q 61.625 48.1875 57.5625 43.546875 
Q 53.515625 38.921875 53.515625 30.90625 
L 53.515625 0 
L 44.484375 0 
L 44.484375 32.71875 
Q 44.484375 40.625 41.703125 44.40625 
Q 38.921875 48.1875 33.109375 48.1875 
Q 26.21875 48.1875 22.15625 43.53125 
Q 18.109375 38.875 18.109375 30.90625 
L 18.109375 0 
L 9.078125 0 
L 9.078125 54.6875 
L 18.109375 54.6875 
L 18.109375 46.1875 
Q 21.1875 51.21875 25.484375 53.609375 
Q 29.78125 56 35.6875 56 
Q 41.65625 56 45.828125 52.96875 
Q 50 49.953125 52 44.1875 
" id="DejaVuSans-6d"/>
      <path d="M 54.890625 33.015625 
L 54.890625 0 
L 45.90625 0 
L 45.90625 32.71875 
Q 45.90625 40.484375 42.875 44.328125 
Q 39.84375 48.1875 33.796875 48.1875 
Q 26.515625 48.1875 22.3125 43.546875 
Q 18.109375 38.921875 18.109375 30.90625 
L 18.109375 0 
L 9.078125 0 
L 9.078125 54.6875 
L 18.109375 54.6875 
L 18.109375 46.1875 
Q 21.34375 51.125 25.703125 53.5625 
Q 30.078125 56 35.796875 56 
Q 45.21875 56 50.046875 50.171875 
Q 54.890625 44.34375 54.890625 33.015625 
" id="DejaVuSans-6e"/>
      <path d="M 8.015625 75.875 
L 15.828125 75.875 
Q 23.140625 64.359375 26.78125 53.3125 
Q 30.421875 42.28125 30.421875 31.390625 
Q 30.421875 20.453125 26.78125 9.375 
Q 23.140625 -1.703125 15.828125 -13.1875 
L 8.015625 -13.1875 
Q 14.5 -2 17.703125 9.0625 
Q 20.90625 20.125 20.90625 31.390625 
Q 20.90625 42.671875 17.703125 53.65625 
Q 14.5 64.65625 8.015625 75.875 
" id="DejaVuSans-29"/>
     </defs>
     <g transform="translate(107.015156 342.278812)scale(0.18 -0.18)">
      <use xlink:href="#DejaVuSans-6c"/>
      <use x="27.783203" xlink:href="#DejaVuSans-6f"/>
      <use x="88.964844" xlink:href="#DejaVuSans-67"/>
      <use x="152.441406" xlink:href="#DejaVuSans-31"/>
      <use x="216.064453" xlink:href="#DejaVuSans-30"/>
      <use x="279.6875" xlink:href="#DejaVuSans-20"/>
      <use x="311.474609" xlink:href="#DejaVuSans-6f"/>
      <use x="372.65625" xlink:href="#DejaVuSans-66"/>
      <use x="407.861328" xlink:href="#DejaVuSans-20"/>
      <use x="439.648438" xlink:href="#DejaVuSans-28"/>
      <use x="478.662109" xlink:href="#DejaVuSans-23"/>
      <use x="562.451172" xlink:href="#DejaVuSans-20"/>
      <use x="594.238281" xlink:href="#DejaVuSans-66"/>
      <use x="629.365234" xlink:href="#DejaVuSans-2d"/>
      <use x="665.449219" xlink:href="#DejaVuSans-65"/>
      <use x="726.972656" xlink:href="#DejaVuSans-76"/>
      <use x="786.152344" xlink:href="#DejaVuSans-61"/>
      <use x="847.431641" xlink:href="#DejaVuSans-6c"/>
      <use x="875.214844" xlink:href="#DejaVuSans-73"/>
      <use x="927.314453" xlink:href="#DejaVuSans-20"/>
      <use x="959.101562" xlink:href="#DejaVuSans-2f"/>
      <use x="992.792969" xlink:href="#DejaVuSans-20"/>
      <use x="1024.580078" xlink:href="#DejaVuSans-64"/>
      <use x="1088.056641" xlink:href="#DejaVuSans-69"/>
      <use x="1115.839844" xlink:href="#DejaVuSans-6d"/>
      <use x="1213.251953" xlink:href="#DejaVuSans-65"/>
      <use x="1274.775391" xlink:href="#DejaVuSans-6e"/>
      <use x="1338.154297" xlink:href="#DejaVuSans-73"/>
      <use x="1390.253906" xlink:href="#DejaVuSans-69"/>
      <use x="1418.037109" xlink:href="#DejaVuSans-6f"/>
      <use x="1479.21875" xlink:href="#DejaVuSans-6e"/>
      <use x="1542.597656" xlink:href="#DejaVuSans-29"/>
     </g>
    </g>
   </g>
   <g id="matplotlib.axis_2">
    <g id="ytick_1">
     <g id="line2d_29">
      <path clip-path="url(#p9e52f1fefb)" d="M 70.8 298.245375 
L 427.92 298.245375 
" style="fill:none;stroke:#b0b0b0;stroke-linecap:square;stroke-width:0.8;"/>
     </g>
     <g id="line2d_30">
      <defs>
       <path d="M 0 0 
L -3.5 0 
" id="m17bb3fa168" style="stroke:#000000;stroke-width:0.8;"/>
      </defs>
      <g>
       <use style="stroke:#000000;stroke-width:0.8;" x="70.8" xlink:href="#m17bb3fa168" y="298.245375"/>
      </g>
     </g>
     <g id="text_7">
      <!-- 0.0 -->
      <defs>
       <path d="M 10.6875 12.40625 
L 21 12.40625 
L 21 0 
L 10.6875 0 
z
" id="DejaVuSans-2e"/>
      </defs>
      <g transform="translate(31.99375 305.843812)scale(0.2 -0.2)">
       <use xlink:href="#DejaVuSans-30"/>
       <use x="63.623047" xlink:href="#DejaVuSans-2e"/>
       <use x="95.410156" xlink:href="#DejaVuSans-30"/>
      </g>
     </g>
    </g>
    <g id="ytick_2">
     <g id="line2d_31">
      <path clip-path="url(#p9e52f1fefb)" d="M 70.8 245.549929 
L 427.92 245.549929 
" style="fill:none;stroke:#b0b0b0;stroke-linecap:square;stroke-width:0.8;"/>
     </g>
     <g id="line2d_32">
      <g>
       <use style="stroke:#000000;stroke-width:0.8;" x="70.8" xlink:href="#m17bb3fa168" y="245.549929"/>
      </g>
     </g>
     <g id="text_8">
      <!-- 0.2 -->
      <g transform="translate(31.99375 253.148367)scale(0.2 -0.2)">
       <use xlink:href="#DejaVuSans-30"/>
       <use x="63.623047" xlink:href="#DejaVuSans-2e"/>
       <use x="95.410156" xlink:href="#DejaVuSans-32"/>
      </g>
     </g>
    </g>
    <g id="ytick_3">
     <g id="line2d_33">
      <path clip-path="url(#p9e52f1fefb)" d="M 70.8 192.854484 
L 427.92 192.854484 
" style="fill:none;stroke:#b0b0b0;stroke-linecap:square;stroke-width:0.8;"/>
     </g>
     <g id="line2d_34">
      <g>
       <use style="stroke:#000000;stroke-width:0.8;" x="70.8" xlink:href="#m17bb3fa168" y="192.854484"/>
      </g>
     </g>
     <g id="text_9">
      <!-- 0.4 -->
      <g transform="translate(31.99375 200.452921)scale(0.2 -0.2)">
       <use xlink:href="#DejaVuSans-30"/>
       <use x="63.623047" xlink:href="#DejaVuSans-2e"/>
       <use x="95.410156" xlink:href="#DejaVuSans-34"/>
      </g>
     </g>
    </g>
    <g id="ytick_4">
     <g id="line2d_35">
      <path clip-path="url(#p9e52f1fefb)" d="M 70.8 140.159038 
L 427.92 140.159038 
" style="fill:none;stroke:#b0b0b0;stroke-linecap:square;stroke-width:0.8;"/>
     </g>
     <g id="line2d_36">
      <g>
       <use style="stroke:#000000;stroke-width:0.8;" x="70.8" xlink:href="#m17bb3fa168" y="140.159038"/>
      </g>
     </g>
     <g id="text_10">
      <!-- 0.6 -->
      <g transform="translate(31.99375 147.757476)scale(0.2 -0.2)">
       <use xlink:href="#DejaVuSans-30"/>
       <use x="63.623047" xlink:href="#DejaVuSans-2e"/>
       <use x="95.410156" xlink:href="#DejaVuSans-36"/>
      </g>
     </g>
    </g>
    <g id="ytick_5">
     <g id="line2d_37">
      <path clip-path="url(#p9e52f1fefb)" d="M 70.8 87.463593 
L 427.92 87.463593 
" style="fill:none;stroke:#b0b0b0;stroke-linecap:square;stroke-width:0.8;"/>
     </g>
     <g id="line2d_38">
      <g>
       <use style="stroke:#000000;stroke-width:0.8;" x="70.8" xlink:href="#m17bb3fa168" y="87.463593"/>
      </g>
     </g>
     <g id="text_11">
      <!-- 0.8 -->
      <g transform="translate(31.99375 95.06203)scale(0.2 -0.2)">
       <use xlink:href="#DejaVuSans-30"/>
       <use x="63.623047" xlink:href="#DejaVuSans-2e"/>
       <use x="95.410156" xlink:href="#DejaVuSans-38"/>
      </g>
     </g>
    </g>
    <g id="ytick_6">
     <g id="line2d_39">
      <path clip-path="url(#p9e52f1fefb)" d="M 70.8 34.768147 
L 427.92 34.768147 
" style="fill:none;stroke:#b0b0b0;stroke-linecap:square;stroke-width:0.8;"/>
     </g>
     <g id="line2d_40">
      <g>
       <use style="stroke:#000000;stroke-width:0.8;" x="70.8" xlink:href="#m17bb3fa168" y="34.768147"/>
      </g>
     </g>
     <g id="text_12">
      <!-- 1.0 -->
      <g transform="translate(31.99375 42.366585)scale(0.2 -0.2)">
       <use xlink:href="#DejaVuSans-31"/>
       <use x="63.623047" xlink:href="#DejaVuSans-2e"/>
       <use x="95.410156" xlink:href="#DejaVuSans-30"/>
      </g>
     </g>
    </g>
    <g id="text_13">
     <!-- Proportion of function+target pairs -->
     <defs>
      <path d="M 19.671875 64.796875 
L 19.671875 37.40625 
L 32.078125 37.40625 
Q 38.96875 37.40625 42.71875 40.96875 
Q 46.484375 44.53125 46.484375 51.125 
Q 46.484375 57.671875 42.71875 61.234375 
Q 38.96875 64.796875 32.078125 64.796875 
z
M 9.8125 72.90625 
L 32.078125 72.90625 
Q 44.34375 72.90625 50.609375 67.359375 
Q 56.890625 61.8125 56.890625 51.125 
Q 56.890625 40.328125 50.609375 34.8125 
Q 44.34375 29.296875 32.078125 29.296875 
L 19.671875 29.296875 
L 19.671875 0 
L 9.8125 0 
z
" id="DejaVuSans-50"/>
      <path d="M 41.109375 46.296875 
Q 39.59375 47.171875 37.8125 47.578125 
Q 36.03125 48 33.890625 48 
Q 26.265625 48 22.1875 43.046875 
Q 18.109375 38.09375 18.109375 28.8125 
L 18.109375 0 
L 9.078125 0 
L 9.078125 54.6875 
L 18.109375 54.6875 
L 18.109375 46.1875 
Q 20.953125 51.171875 25.484375 53.578125 
Q 30.03125 56 36.53125 56 
Q 37.453125 56 38.578125 55.875 
Q 39.703125 55.765625 41.0625 55.515625 
z
" id="DejaVuSans-72"/>
      <path d="M 18.109375 8.203125 
L 18.109375 -20.796875 
L 9.078125 -20.796875 
L 9.078125 54.6875 
L 18.109375 54.6875 
L 18.109375 46.390625 
Q 20.953125 51.265625 25.265625 53.625 
Q 29.59375 56 35.59375 56 
Q 45.5625 56 51.78125 48.09375 
Q 58.015625 40.1875 58.015625 27.296875 
Q 58.015625 14.40625 51.78125 6.484375 
Q 45.5625 -1.421875 35.59375 -1.421875 
Q 29.59375 -1.421875 25.265625 0.953125 
Q 20.953125 3.328125 18.109375 8.203125 
M 48.6875 27.296875 
Q 48.6875 37.203125 44.609375 42.84375 
Q 40.53125 48.484375 33.40625 48.484375 
Q 26.265625 48.484375 22.1875 42.84375 
Q 18.109375 37.203125 18.109375 27.296875 
Q 18.109375 17.390625 22.1875 11.75 
Q 26.265625 6.109375 33.40625 6.109375 
Q 40.53125 6.109375 44.609375 11.75 
Q 48.6875 17.390625 48.6875 27.296875 
" id="DejaVuSans-70"/>
      <path d="M 18.3125 70.21875 
L 18.3125 54.6875 
L 36.8125 54.6875 
L 36.8125 47.703125 
L 18.3125 47.703125 
L 18.3125 18.015625 
Q 18.3125 11.328125 20.140625 9.421875 
Q 21.96875 7.515625 27.59375 7.515625 
L 36.8125 7.515625 
L 36.8125 0 
L 27.59375 0 
Q 17.1875 0 13.234375 3.875 
Q 9.28125 7.765625 9.28125 18.015625 
L 9.28125 47.703125 
L 2.6875 47.703125 
L 2.6875 54.6875 
L 9.28125 54.6875 
L 9.28125 70.21875 
z
" id="DejaVuSans-74"/>
      <path d="M 8.5 21.578125 
L 8.5 54.6875 
L 17.484375 54.6875 
L 17.484375 21.921875 
Q 17.484375 14.15625 20.5 10.265625 
Q 23.53125 6.390625 29.59375 6.390625 
Q 36.859375 6.390625 41.078125 11.03125 
Q 45.3125 15.671875 45.3125 23.6875 
L 45.3125 54.6875 
L 54.296875 54.6875 
L 54.296875 0 
L 45.3125 0 
L 45.3125 8.40625 
Q 42.046875 3.421875 37.71875 1 
Q 33.40625 -1.421875 27.6875 -1.421875 
Q 18.265625 -1.421875 13.375 4.4375 
Q 8.5 10.296875 8.5 21.578125 
M 31.109375 56 
z
" id="DejaVuSans-75"/>
      <path d="M 48.78125 52.59375 
L 48.78125 44.1875 
Q 44.96875 46.296875 41.140625 47.34375 
Q 37.3125 48.390625 33.40625 48.390625 
Q 24.65625 48.390625 19.8125 42.84375 
Q 14.984375 37.3125 14.984375 27.296875 
Q 14.984375 17.28125 19.8125 11.734375 
Q 24.65625 6.203125 33.40625 6.203125 
Q 37.3125 6.203125 41.140625 7.25 
Q 44.96875 8.296875 48.78125 10.40625 
L 48.78125 2.09375 
Q 45.015625 0.34375 40.984375 -0.53125 
Q 36.96875 -1.421875 32.421875 -1.421875 
Q 20.0625 -1.421875 12.78125 6.34375 
Q 5.515625 14.109375 5.515625 27.296875 
Q 5.515625 40.671875 12.859375 48.328125 
Q 20.21875 56 33.015625 56 
Q 37.15625 56 41.109375 55.140625 
Q 45.0625 54.296875 48.78125 52.59375 
" id="DejaVuSans-63"/>
      <path d="M 46 62.703125 
L 46 35.5 
L 73.1875 35.5 
L 73.1875 27.203125 
L 46 27.203125 
L 46 0 
L 37.796875 0 
L 37.796875 27.203125 
L 10.59375 27.203125 
L 10.59375 35.5 
L 37.796875 35.5 
L 37.796875 62.703125 
z
" id="DejaVuSans-2b"/>
     </defs>
     <g transform="translate(24.250312 323.17875)rotate(-90)scale(0.18 -0.18)">
      <use xlink:href="#DejaVuSans-50"/>
      <use x="60.287109" xlink:href="#DejaVuSans-72"/>
      <use x="101.369141" xlink:href="#DejaVuSans-6f"/>
      <use x="162.550781" xlink:href="#DejaVuSans-70"/>
      <use x="226.027344" xlink:href="#DejaVuSans-6f"/>
      <use x="287.208984" xlink:href="#DejaVuSans-72"/>
      <use x="328.322266" xlink:href="#DejaVuSans-74"/>
      <use x="367.53125" xlink:href="#DejaVuSans-69"/>
      <use x="395.314453" xlink:href="#DejaVuSans-6f"/>
      <use x="456.496094" xlink:href="#DejaVuSans-6e"/>
      <use x="519.875" xlink:href="#DejaVuSans-20"/>
      <use x="551.662109" xlink:href="#DejaVuSans-6f"/>
      <use x="612.84375" xlink:href="#DejaVuSans-66"/>
      <use x="648.048828" xlink:href="#DejaVuSans-20"/>
      <use x="679.835938" xlink:href="#DejaVuSans-66"/>
      <use x="715.041016" xlink:href="#DejaVuSans-75"/>
      <use x="778.419922" xlink:href="#DejaVuSans-6e"/>
      <use x="841.798828" xlink:href="#DejaVuSans-63"/>
      <use x="896.779297" xlink:href="#DejaVuSans-74"/>
      <use x="935.988281" xlink:href="#DejaVuSans-69"/>
      <use x="963.771484" xlink:href="#DejaVuSans-6f"/>
      <use x="1024.953125" xlink:href="#DejaVuSans-6e"/>
      <use x="1088.332031" xlink:href="#DejaVuSans-2b"/>
      <use x="1172.121094" xlink:href="#DejaVuSans-74"/>
      <use x="1211.330078" xlink:href="#DejaVuSans-61"/>
      <use x="1272.609375" xlink:href="#DejaVuSans-72"/>
      <use x="1313.707031" xlink:href="#DejaVuSans-67"/>
      <use x="1377.183594" xlink:href="#DejaVuSans-65"/>
      <use x="1438.707031" xlink:href="#DejaVuSans-74"/>
      <use x="1477.916016" xlink:href="#DejaVuSans-20"/>
      <use x="1509.703125" xlink:href="#DejaVuSans-70"/>
      <use x="1573.179688" xlink:href="#DejaVuSans-61"/>
      <use x="1634.458984" xlink:href="#DejaVuSans-69"/>
      <use x="1662.242188" xlink:href="#DejaVuSans-72"/>
      <use x="1703.355469" xlink:href="#DejaVuSans-73"/>
     </g>
    </g>
   </g>
   <g id="line2d_41">
    <defs>
     <path d="M 0 1.5 
C 0.397805 1.5 0.77937 1.341951 1.06066 1.06066 
C 1.341951 0.77937 1.5 0.397805 1.5 0 
C 1.5 -0.397805 1.341951 -0.77937 1.06066 -1.06066 
C 0.77937 -1.341951 0.397805 -1.5 0 -1.5 
C -0.397805 -1.5 -0.77937 -1.341951 -1.06066 -1.06066 
C -1.341951 -0.77937 -1.5 -0.397805 -1.5 0 
C -1.5 0.397805 -1.341951 0.77937 -1.06066 1.06066 
C -0.77937 1.341951 -0.397805 1.5 0 1.5 
z
" id="m545b57d637" style="stroke:#000080;"/>
    </defs>
    <g>
     <use style="fill:#000080;stroke:#000080;" x="230.12356" xlink:href="#m545b57d637" y="231.084513"/>
     <use style="fill:#000080;stroke:#000080;" x="230.12356" xlink:href="#m545b57d637" y="231.084513"/>
    </g>
   </g>
   <g id="line2d_42">
    <path d="M 127.954262 298.245375 
L 127.954262 297.728753 
L 128.669082 297.728753 
L 128.669082 297.212131 
L 129.690395 297.212131 
L 129.690395 293.079155 
L 132.444777 293.079155 
L 132.444777 292.562533 
L 133.276002 292.562533 
L 133.276002 290.496045 
L 134.327371 290.496045 
L 134.327371 289.979423 
L 134.580824 289.979423 
L 134.580824 289.462801 
L 134.830731 289.462801 
L 134.830731 287.912935 
L 135.3203 287.912935 
L 135.3203 286.363069 
L 136.030384 286.363069 
L 136.030384 285.846447 
L 136.713325 285.846447 
L 136.713325 284.813203 
L 138.005559 284.813203 
L 138.005559 284.296581 
L 139.210608 284.296581 
L 139.210608 282.746715 
L 140.339496 282.746715 
L 140.339496 282.230093 
L 142.403494 282.230093 
L 142.403494 281.713471 
L 143.197763 281.713471 
L 143.197763 280.680226 
L 143.808698 280.680226 
L 143.808698 280.163604 
L 147.215966 280.163604 
L 147.215966 279.646982 
L 167.214525 279.646982 
L 167.214525 279.13036 
L 167.535758 279.13036 
L 167.535758 278.613738 
L 167.733635 278.613738 
L 167.733635 276.030628 
L 168.199786 276.030628 
L 168.199786 275.514006 
L 168.42838 275.514006 
L 168.42838 274.480762 
L 168.728691 274.480762 
L 168.728691 273.447518 
L 169.169902 273.447518 
L 169.169902 272.414274 
L 169.493804 272.414274 
L 169.493804 271.897652 
L 169.986263 271.897652 
L 170.020925 270.864408 
L 170.700403 270.864408 
L 170.700403 269.831164 
L 170.965121 269.831164 
L 170.965121 269.314542 
L 179.272645 269.314542 
L 179.272645 268.281298 
L 179.396016 268.281298 
L 179.396016 265.698188 
L 179.559196 265.698188 
L 179.559196 265.181566 
L 179.801206 265.181566 
L 179.801206 262.598456 
L 180.813614 262.598456 
L 180.813614 261.565212 
L 185.887579 261.565212 
L 185.887579 260.531968 
L 186.057753 260.531968 
L 186.142236 257.948858 
L 186.420995 257.948858 
L 186.503782 254.332504 
L 191.240381 254.332504 
L 191.335172 252.782638 
L 194.860516 252.782638 
L 194.903582 251.749394 
L 194.98084 251.749394 
L 195.032161 250.71615 
L 195.108866 250.71615 
L 195.185244 249.166284 
L 197.971052 249.166284 
L 197.971052 248.649662 
L 198.158457 248.649662 
L 198.230015 245.033307 
L 198.52747 245.033307 
L 198.52747 244.516685 
L 200.656986 244.516685 
L 200.656986 244.000063 
L 200.818353 244.000063 
L 200.880031 242.966819 
L 203.133113 242.966819 
L 203.230546 241.933575 
L 205.182104 241.933575 
L 205.269007 239.867087 
L 206.932571 239.867087 
L 207.020117 238.833843 
L 207.06373 238.833843 
L 207.098544 237.800599 
L 208.60684 237.800599 
L 208.60684 237.283977 
L 211.615125 237.283977 
L 211.648857 235.734111 
L 214.071844 235.734111 
L 214.148191 234.700867 
L 217.343314 234.700867 
L 217.343314 234.184245 
L 222.460357 234.184245 
L 222.460357 233.151001 
L 223.844364 233.151001 
L 223.844364 232.634379 
L 228.600832 232.634379 
L 228.600832 232.117757 
L 229.615474 232.117757 
L 229.615474 231.601135 
L 230.12356 231.601135 
L 230.12356 231.084513 
L 358.8 231.084513 
L 358.8 231.084513 
" style="fill:none;stroke:#000080;stroke-linecap:square;stroke-width:1.5;"/>
   </g>
   <g id="line2d_43">
    <defs>
     <path d="M 0 6 
C 1.591219 6 3.117479 5.367802 4.242641 4.242641 
C 5.367802 3.117479 6 1.591219 6 0 
C 6 -1.591219 5.367802 -3.117479 4.242641 -4.242641 
C 3.117479 -5.367802 1.591219 -6 0 -6 
C -1.591219 -6 -3.117479 -5.367802 -4.242641 -4.242641 
C -5.367802 -3.117479 -6 -1.591219 -6 0 
C -6 1.591219 -5.367802 3.117479 -4.242641 4.242641 
C -3.117479 5.367802 -1.591219 6 0 6 
z
" id="me371e12a77" style="stroke:#000080;stroke-width:1.5;"/>
    </defs>
    <g>
     <use style="fill:none;stroke:#000080;stroke-width:1.5;" x="147.215966" xlink:href="#me371e12a77" y="279.646982"/>
     <use style="fill:none;stroke:#000080;stroke-width:1.5;" x="197.971052" xlink:href="#me371e12a77" y="248.649662"/>
     <use style="fill:none;stroke:#000080;stroke-width:1.5;" x="230.12356" xlink:href="#me371e12a77" y="231.601135"/>
     <use style="fill:none;stroke:#000080;stroke-width:1.5;" x="230.12356" xlink:href="#me371e12a77" y="231.084513"/>
     <use style="fill:none;stroke:#000080;stroke-width:1.5;" x="358.8" xlink:href="#me371e12a77" y="231.084513"/>
    </g>
   </g>
   <g id="line2d_44"/>
   <g id="line2d_45">
    <path clip-path="url(#p9e52f1fefb)" d="M 165.470948 279.646982 
" style="fill:none;stroke:#000080;stroke-linecap:square;stroke-width:1.5;"/>
    <defs>
     <path d="M -12 12 
L 12 -12 
M -12 -12 
L 12 12 
" id="m05085e2d9a" style="stroke:#000080;stroke-width:3;"/>
    </defs>
    <g clip-path="url(#p9e52f1fefb)">
     <use style="fill:#000080;stroke:#000080;stroke-width:3;" x="165.470948" xlink:href="#m05085e2d9a" y="279.646982"/>
    </g>
   </g>
   <g id="line2d_46">
    <defs>
     <path d="M 0 1.5 
C 0.397805 1.5 0.77937 1.341951 1.06066 1.06066 
C 1.341951 0.77937 1.5 0.397805 1.5 0 
C 1.5 -0.397805 1.341951 -0.77937 1.06066 -1.06066 
C 0.77937 -1.341951 0.397805 -1.5 0 -1.5 
C -0.397805 -1.5 -0.77937 -1.341951 -1.06066 -1.06066 
C -1.341951 -0.77937 -1.5 -0.397805 -1.5 0 
C -1.5 0.397805 -1.341951 0.77937 -1.06066 1.06066 
C -0.77937 1.341951 -0.397805 1.5 0 1.5 
z
" id="m344f9cfbb2" style="stroke:#ff00ff;"/>
    </defs>
    <g>
     <use style="fill:#ff00ff;stroke:#ff00ff;" x="231.11082" xlink:href="#m344f9cfbb2" y="194.920972"/>
     <use style="fill:#ff00ff;stroke:#ff00ff;" x="231.11082" xlink:href="#m344f9cfbb2" y="194.920972"/>
    </g>
   </g>
   <g id="line2d_47">
    <path d="M 58.414766 298.245375 
L 58.414766 295.662265 
L 83.185234 295.662265 
L 83.185234 293.595777 
L 97.675029 293.595777 
L 97.675029 291.529289 
L 102.815366 291.529289 
L 102.815366 291.012667 
L 107.955702 291.012667 
L 107.955702 287.912935 
L 111.026343 287.912935 
L 111.026343 286.879691 
L 115.2006 286.879691 
L 115.2006 286.363069 
L 117.305161 286.363069 
L 117.305161 284.813203 
L 119.773647 284.813203 
L 119.773647 284.296581 
L 122.445497 284.296581 
L 122.445497 283.779959 
L 122.935065 283.779959 
L 122.935065 281.713471 
L 124.328091 281.713471 
L 124.328091 281.196849 
L 129.016046 281.196849 
L 129.016046 280.163604 
L 129.690395 280.163604 
L 129.690395 279.13036 
L 130.018259 279.13036 
L 130.018259 275.514006 
L 130.340216 275.514006 
L 130.340216 272.930896 
L 130.656474 272.930896 
L 130.656474 272.414274 
L 130.967232 272.414274 
L 130.967232 270.347786 
L 132.444777 270.347786 
L 132.444777 269.831164 
L 132.726171 269.831164 
L 132.726171 269.314542 
L 134.830731 269.314542 
L 134.830731 268.281298 
L 135.560144 268.281298 
L 135.560144 267.248054 
L 136.260944 267.248054 
L 136.260944 265.698188 
L 138.212129 265.698188 
L 138.212129 265.181566 
L 138.61824 265.181566 
L 138.61824 263.6317 
L 138.817886 263.6317 
L 138.817886 263.115078 
L 139.594883 263.115078 
L 139.594883 262.081834 
L 141.054316 262.081834 
L 141.054316 261.565212 
L 141.572268 261.565212 
L 141.572268 261.04859 
L 142.72545 261.04859 
L 142.72545 260.015346 
L 143.041708 260.015346 
L 143.041708 259.498724 
L 143.657911 259.498724 
L 143.657911 258.46548 
L 146.455505 258.46548 
L 146.455505 257.948858 
L 148.064103 257.948858 
L 148.064103 257.432236 
L 148.760352 257.432236 
L 148.760352 256.398992 
L 150.286606 256.398992 
L 150.286606 255.88237 
L 166.171749 255.88237 
L 166.171749 255.365748 
L 166.300143 255.365748 
L 166.300143 254.849126 
L 166.638084 254.849126 
L 166.638084 253.29926 
L 166.928629 253.29926 
L 166.928629 252.782638 
L 167.051716 252.782638 
L 167.051716 252.266016 
L 167.733635 252.266016 
L 167.812177 248.649662 
L 167.851318 248.649662 
L 167.890374 247.616418 
L 168.084384 247.616418 
L 168.161402 246.066551 
L 168.42838 246.066551 
L 168.42838 245.549929 
L 168.541589 245.549929 
L 168.541589 244.516685 
L 168.654085 244.516685 
L 168.654085 243.483441 
L 168.950658 243.483441 
L 169.060616 242.450197 
L 169.097119 242.450197 
L 169.097119 241.416953 
L 169.242389 241.416953 
L 169.242389 240.900331 
L 169.881873 240.900331 
L 169.881873 240.383709 
L 170.090047 240.383709 
L 170.090047 239.867087 
L 170.465514 239.867087 
L 170.465514 239.350465 
L 171.193575 239.350465 
L 171.193575 238.317221 
L 178.449278 238.317221 
L 178.449278 237.800599 
L 179.023318 237.800599 
L 179.044229 235.734111 
L 179.231331 235.734111 
L 179.231331 235.217489 
L 179.457383 235.217489 
L 179.51854 234.184245 
L 179.74101 234.184245 
L 179.801206 232.634379 
L 180.000406 232.634379 
L 180.059736 231.601135 
L 180.236552 231.601135 
L 180.236552 231.084513 
L 181.37262 231.084513 
L 181.37262 230.567891 
L 185.80188 230.567891 
L 185.80188 230.051269 
L 186.226321 230.051269 
L 186.226321 229.534647 
L 186.379457 229.534647 
L 186.379457 229.018025 
L 186.627247 229.018025 
L 186.722689 225.918293 
L 186.777 225.918293 
L 186.871648 224.885049 
L 187.046103 224.885049 
L 187.046103 224.368427 
L 187.218872 224.368427 
L 187.324366 222.818561 
L 187.520506 222.818561 
L 187.520506 222.301939 
L 191.091921 222.301939 
L 191.091921 221.785317 
L 191.450349 221.785317 
L 191.512862 220.235451 
L 191.913947 220.235451 
L 191.913947 219.718829 
L 195.049235 219.718829 
L 195.117369 218.168963 
L 195.202173 218.168963 
L 195.252862 217.135719 
L 197.818239 217.135719 
L 197.818239 216.619097 
L 198.14411 216.619097 
L 198.230015 215.585853 
L 198.315509 215.585853 
L 198.315509 215.069231 
L 198.485278 215.069231 
L 198.485278 214.035987 
L 198.618544 214.035987 
L 198.618544 213.519365 
L 201.215506 213.519365 
L 201.215506 213.002743 
L 203.127684 213.002743 
L 203.127684 212.48612 
L 203.381061 212.48612 
L 203.381061 211.969498 
L 203.572735 211.969498 
L 203.572735 211.452876 
L 205.278637 211.452876 
L 205.278637 210.936254 
L 205.493946 210.936254 
L 205.493946 210.419632 
L 207.01575 210.419632 
L 207.01575 209.90301 
L 207.21986 209.90301 
L 207.21986 209.386388 
L 208.765951 209.386388 
L 208.868619 206.803278 
L 209.87527 206.803278 
L 209.87527 206.286656 
L 210.378011 206.286656 
L 210.378011 205.770034 
L 210.507804 205.770034 
L 210.507804 205.253412 
L 211.6657 205.253412 
L 211.76977 204.220168 
L 213.172668 204.220168 
L 213.172668 203.703546 
L 214.265015 203.703546 
L 214.326043 202.670302 
L 215.393071 202.670302 
L 215.393071 202.15368 
L 216.45412 202.15368 
L 216.45412 200.603814 
L 217.543123 200.603814 
L 217.543123 200.087192 
L 220.237172 200.087192 
L 220.237172 199.57057 
L 221.831107 199.57057 
L 221.831107 199.053948 
L 223.264545 199.053948 
L 223.264545 198.537326 
L 223.922532 198.537326 
L 223.922532 198.020704 
L 224.619223 198.020704 
L 224.646924 196.98746 
L 228.660762 196.98746 
L 228.660762 195.954216 
L 229.716292 195.954216 
L 229.716292 195.437594 
L 231.11082 195.437594 
L 231.11082 194.920972 
L 358.8 194.920972 
L 358.8 194.920972 
" style="fill:none;stroke:#ff00ff;stroke-linecap:square;stroke-width:1.5;"/>
   </g>
   <g id="line2d_48">
    <defs>
     <path d="M -0 8.485281 
L 5.091169 0 
L 0 -8.485281 
L -5.091169 -0 
z
" id="me3e8c3babf" style="stroke:#ff00ff;stroke-linejoin:miter;stroke-width:1.5;"/>
    </defs>
    <g>
     <use style="fill:none;stroke:#ff00ff;stroke-linejoin:miter;stroke-width:1.5;" x="136.260944" xlink:href="#me3e8c3babf" y="265.698188"/>
     <use style="fill:none;stroke:#ff00ff;stroke-linejoin:miter;stroke-width:1.5;" x="186.627247" xlink:href="#me3e8c3babf" y="229.018025"/>
     <use style="fill:none;stroke:#ff00ff;stroke-linejoin:miter;stroke-width:1.5;" x="231.11082" xlink:href="#me3e8c3babf" y="195.437594"/>
     <use style="fill:none;stroke:#ff00ff;stroke-linejoin:miter;stroke-width:1.5;" x="231.11082" xlink:href="#me3e8c3babf" y="194.920972"/>
     <use style="fill:none;stroke:#ff00ff;stroke-linejoin:miter;stroke-width:1.5;" x="231.11082" xlink:href="#me3e8c3babf" y="194.920972"/>
     <use style="fill:none;stroke:#ff00ff;stroke-linejoin:miter;stroke-width:1.5;" x="358.8" xlink:href="#me3e8c3babf" y="194.920972"/>
    </g>
   </g>
   <g id="line2d_49"/>
   <g id="line2d_50">
    <path clip-path="url(#p9e52f1fefb)" d="M 165.470948 255.88237 
" style="fill:none;stroke:#ff00ff;stroke-linecap:square;stroke-width:1.5;"/>
    <defs>
     <path d="M -12 12 
L 12 -12 
M -12 -12 
L 12 12 
" id="m6e387174d6" style="stroke:#ff00ff;stroke-width:3;"/>
    </defs>
    <g clip-path="url(#p9e52f1fefb)">
     <use style="fill:#ff00ff;stroke:#ff00ff;stroke-width:3;" x="165.470948" xlink:href="#m6e387174d6" y="255.88237"/>
    </g>
   </g>
   <g id="line2d_51">
    <defs>
     <path d="M 0 1.5 
C 0.397805 1.5 0.77937 1.341951 1.06066 1.06066 
C 1.341951 0.77937 1.5 0.397805 1.5 0 
C 1.5 -0.397805 1.341951 -0.77937 1.06066 -1.06066 
C 0.77937 -1.341951 0.397805 -1.5 0 -1.5 
C -0.397805 -1.5 -0.77937 -1.341951 -1.06066 -1.06066 
C -1.341951 -0.77937 -1.5 -0.397805 -1.5 0 
C -1.5 0.397805 -1.341951 0.77937 -1.06066 1.06066 
C -0.77937 1.341951 -0.397805 1.5 0 1.5 
z
" id="mc816b04996" style="stroke:#ffa500;"/>
    </defs>
    <g>
     <use style="fill:#ffa500;stroke:#ffa500;" x="233.202651" xlink:href="#mc816b04996" y="236.250733"/>
     <use style="fill:#ffa500;stroke:#ffa500;" x="233.202651" xlink:href="#mc816b04996" y="236.250733"/>
    </g>
   </g>
   <g id="line2d_52">
    <path d="M 130.018259 298.245375 
L 130.018259 297.728753 
L 132.444777 297.728753 
L 132.444777 295.145643 
L 133.276002 295.145643 
L 133.276002 294.629021 
L 134.070271 294.629021 
L 134.070271 290.496045 
L 134.580824 290.496045 
L 134.580824 289.979423 
L 134.830731 289.979423 
L 134.830731 289.462801 
L 135.077192 289.462801 
L 135.077192 288.429557 
L 135.3203 288.429557 
L 135.3203 286.879691 
L 137.371122 286.879691 
L 137.371122 286.363069 
L 137.585114 286.363069 
L 137.585114 285.846447 
L 138.005559 285.846447 
L 138.005559 285.329825 
L 139.783966 285.329825 
L 139.783966 284.296581 
L 140.70048 284.296581 
L 140.70048 283.779959 
L 141.054316 283.779959 
L 141.054316 282.746715 
L 141.22864 282.746715 
L 141.22864 281.196849 
L 141.572268 281.196849 
L 141.572268 280.163604 
L 142.075629 280.163604 
L 142.075629 279.646982 
L 145.111405 279.646982 
L 145.111405 279.13036 
L 145.929935 279.13036 
L 145.929935 278.097116 
L 167.772949 278.097116 
L 167.772949 277.580494 
L 168.084384 277.580494 
L 168.084384 277.063872 
L 168.314449 277.063872 
L 168.390483 275.514006 
L 168.503932 275.514006 
L 168.503932 274.997384 
L 168.840019 274.997384 
L 168.950658 272.414274 
L 169.278523 272.414274 
L 169.278523 271.897652 
L 169.458103 271.897652 
L 169.458103 270.864408 
L 169.635897 270.864408 
L 169.74173 268.79792 
L 169.776869 268.79792 
L 169.776869 268.281298 
L 169.951534 268.281298 
L 169.951534 266.21481 
L 170.633606 266.21481 
L 170.633606 265.698188 
L 179.334437 265.698188 
L 179.334437 264.664944 
L 179.68061 264.664944 
L 179.68061 264.148322 
L 179.960743 264.148322 
L 180.059736 263.115078 
L 180.138537 263.115078 
L 180.236552 261.565212 
L 180.392267 261.565212 
L 180.392267 261.04859 
L 180.508168 261.04859 
L 180.508168 260.531968 
L 180.623323 260.531968 
L 180.623323 260.015346 
L 186.310013 260.015346 
L 186.310013 259.498724 
L 186.531292 259.498724 
L 186.640913 257.432236 
L 186.654568 257.432236 
L 186.654568 256.915614 
L 186.912058 256.915614 
L 186.992606 255.88237 
L 190.995827 255.88237 
L 190.995827 255.365748 
L 191.408552 255.365748 
L 191.471211 253.815882 
L 191.6785 253.815882 
L 191.6785 253.29926 
L 195.057766 253.29926 
L 195.057766 252.782638 
L 195.219085 252.782638 
L 195.219085 251.749394 
L 198.215726 251.749394 
L 198.272813 250.199528 
L 198.414737 250.199528 
L 198.414737 249.682906 
L 200.867712 249.682906 
L 200.953764 247.099796 
L 203.176482 247.099796 
L 203.176482 246.583173 
L 207.176627 246.583173 
L 207.20258 245.549929 
L 210.269125 245.549929 
L 210.290955 244.516685 
L 211.642116 244.516685 
L 211.642116 244.000063 
L 212.986021 244.000063 
L 212.986021 243.483441 
L 215.327359 243.483441 
L 215.327359 242.966819 
L 216.37669 242.966819 
L 216.37669 242.450197 
L 217.397141 242.450197 
L 217.397141 241.933575 
L 219.221007 241.933575 
L 219.221007 241.416953 
L 220.920009 241.416953 
L 220.920009 240.900331 
L 221.704857 240.900331 
L 221.704857 240.383709 
L 223.178135 240.383709 
L 223.178135 239.350465 
L 224.548963 239.350465 
L 224.548963 238.317221 
L 225.812924 238.317221 
L 225.812924 237.800599 
L 228.092549 237.800599 
L 228.092549 237.283977 
L 229.143228 237.283977 
L 229.143228 236.767355 
L 233.202651 236.767355 
L 233.202651 236.250733 
L 358.8 236.250733 
L 358.8 236.250733 
" style="fill:none;stroke:#ffa500;stroke-linecap:square;stroke-width:1.5;"/>
   </g>
   <g id="line2d_53">
    <defs>
     <path d="M 0 -6 
L -1.347084 -1.854102 
L -5.706339 -1.854102 
L -2.179628 0.708204 
L -3.526712 4.854102 
L -0 2.291796 
L 3.526712 4.854102 
L 2.179628 0.708204 
L 5.706339 -1.854102 
L 1.347084 -1.854102 
z
" id="m79e6c5f2b5" style="stroke:#ffa500;stroke-linejoin:bevel;stroke-width:1.5;"/>
    </defs>
    <g>
     <use style="fill:none;stroke:#ffa500;stroke-linejoin:bevel;stroke-width:1.5;" x="169.74173" xlink:href="#m79e6c5f2b5" y="270.347786"/>
     <use style="fill:none;stroke:#ffa500;stroke-linejoin:bevel;stroke-width:1.5;" x="225.812924" xlink:href="#m79e6c5f2b5" y="237.800599"/>
     <use style="fill:none;stroke:#ffa500;stroke-linejoin:bevel;stroke-width:1.5;" x="233.202651" xlink:href="#m79e6c5f2b5" y="236.250733"/>
     <use style="fill:none;stroke:#ffa500;stroke-linejoin:bevel;stroke-width:1.5;" x="233.202651" xlink:href="#m79e6c5f2b5" y="236.250733"/>
     <use style="fill:none;stroke:#ffa500;stroke-linejoin:bevel;stroke-width:1.5;" x="358.8" xlink:href="#m79e6c5f2b5" y="236.250733"/>
    </g>
   </g>
   <g id="line2d_54"/>
   <g id="line2d_55">
    <path clip-path="url(#p9e52f1fefb)" d="M 165.470948 278.097116 
" style="fill:none;stroke:#ffa500;stroke-linecap:square;stroke-width:1.5;"/>
    <defs>
     <path d="M -12 12 
L 12 -12 
M -12 -12 
L 12 12 
" id="m96d5fcc999" style="stroke:#ffa500;stroke-width:3;"/>
    </defs>
    <g clip-path="url(#p9e52f1fefb)">
     <use style="fill:#ffa500;stroke:#ffa500;stroke-width:3;" x="165.470948" xlink:href="#m96d5fcc999" y="278.097116"/>
    </g>
   </g>
   <g id="line2d_56">
    <defs>
     <path d="M 0 1.5 
C 0.397805 1.5 0.77937 1.341951 1.06066 1.06066 
C 1.341951 0.77937 1.5 0.397805 1.5 0 
C 1.5 -0.397805 1.341951 -0.77937 1.06066 -1.06066 
C 0.77937 -1.341951 0.397805 -1.5 0 -1.5 
C -0.397805 -1.5 -0.77937 -1.341951 -1.06066 -1.06066 
C -1.341951 -0.77937 -1.5 -0.397805 -1.5 0 
C -1.5 0.397805 -1.341951 0.77937 -1.06066 1.06066 
C -0.77937 1.341951 -0.397805 1.5 0 1.5 
z
" id="mde26e019df" style="stroke:#6495ed;"/>
    </defs>
    <g>
     <use style="fill:#6495ed;stroke:#6495ed;" x="230.600103" xlink:href="#mde26e019df" y="256.915614"/>
     <use style="fill:#6495ed;stroke:#6495ed;" x="230.600103" xlink:href="#mde26e019df" y="256.915614"/>
    </g>
   </g>
   <g id="line2d_57">
    <path d="M 125.620325 298.245375 
L 125.620325 296.178887 
L 126.031105 296.178887 
L 126.031105 294.629021 
L 127.209649 294.629021 
L 127.209649 292.562533 
L 130.967232 292.562533 
L 130.967232 292.045911 
L 134.070271 292.045911 
L 134.070271 290.496045 
L 135.560144 290.496045 
L 135.560144 289.462801 
L 138.817886 289.462801 
L 138.817886 288.946179 
L 139.015326 288.946179 
L 139.015326 287.912935 
L 139.210608 287.912935 
L 139.210608 287.396313 
L 141.22864 287.396313 
L 141.22864 286.879691 
L 141.40128 286.879691 
L 141.40128 286.363069 
L 142.565197 286.363069 
L 142.565197 285.846447 
L 142.72545 285.846447 
L 142.72545 283.779959 
L 144.25357 283.779959 
L 144.25357 283.263337 
L 167.295376 283.263337 
L 167.295376 282.746715 
L 167.45599 282.746715 
L 167.45599 281.196849 
L 167.890374 281.196849 
L 167.890374 280.680226 
L 168.238089 280.680226 
L 168.238089 279.646982 
L 168.913855 279.646982 
L 168.913855 279.13036 
L 169.097119 279.13036 
L 169.097119 278.613738 
L 169.169902 278.613738 
L 169.169902 278.097116 
L 169.881873 278.097116 
L 169.881873 277.580494 
L 178.876255 277.580494 
L 178.876255 276.030628 
L 179.375513 276.030628 
L 179.375513 275.514006 
L 179.457383 275.514006 
L 179.457383 274.997384 
L 179.660432 274.997384 
L 179.660432 274.480762 
L 179.761098 274.480762 
L 179.761098 273.96414 
L 180.216992 273.96414 
L 180.216992 272.930896 
L 185.744519 272.930896 
L 185.744519 272.414274 
L 185.787557 272.414274 
L 185.787557 271.38103 
L 186.071861 271.38103 
L 186.071861 270.347786 
L 186.323923 270.347786 
L 186.323923 269.831164 
L 186.586187 269.831164 
L 186.586187 268.281298 
L 186.681848 268.281298 
L 186.681848 267.764676 
L 186.695472 267.764676 
L 186.695472 267.248054 
L 191.240381 267.248054 
L 191.240381 266.731432 
L 191.366658 266.731432 
L 191.366658 266.21481 
L 191.450349 266.21481 
L 191.450349 265.181566 
L 194.617408 265.181566 
L 194.617408 264.664944 
L 194.643614 264.664944 
L 194.643614 264.148322 
L 195.032161 264.148322 
L 195.032161 263.6317 
L 197.803617 263.6317 
L 197.803617 263.115078 
L 198.007245 263.115078 
L 198.007245 262.598456 
L 198.3084 262.598456 
L 198.3084 261.565212 
L 203.246734 261.565212 
L 203.246734 261.04859 
L 205.240086 261.04859 
L 205.240086 260.531968 
L 206.822532 260.531968 
L 206.822532 260.015346 
L 207.111581 260.015346 
L 207.111581 259.498724 
L 208.734242 259.498724 
L 208.734242 258.982102 
L 214.19209 258.982102 
L 214.19209 258.46548 
L 223.186972 258.46548 
L 223.186972 257.948858 
L 226.411408 257.948858 
L 226.411408 257.432236 
L 230.600103 257.432236 
L 230.600103 256.915614 
L 358.8 256.915614 
" style="fill:none;stroke:#6495ed;stroke-linecap:square;stroke-width:1.5;"/>
   </g>
   <g id="line2d_58">
    <defs>
     <path d="M -0 6 
L 6 -6 
L -6 -6 
z
" id="md4be995e48" style="stroke:#6495ed;stroke-linejoin:miter;stroke-width:1.5;"/>
    </defs>
    <g>
     <use style="fill:none;stroke:#6495ed;stroke-linejoin:miter;stroke-width:1.5;" x="179.761098" xlink:href="#md4be995e48" y="273.96414"/>
     <use style="fill:none;stroke:#6495ed;stroke-linejoin:miter;stroke-width:1.5;" x="205.240086" xlink:href="#md4be995e48" y="260.531968"/>
     <use style="fill:none;stroke:#6495ed;stroke-linejoin:miter;stroke-width:1.5;" x="230.600103" xlink:href="#md4be995e48" y="256.915614"/>
     <use style="fill:none;stroke:#6495ed;stroke-linejoin:miter;stroke-width:1.5;" x="230.600103" xlink:href="#md4be995e48" y="256.915614"/>
     <use style="fill:none;stroke:#6495ed;stroke-linejoin:miter;stroke-width:1.5;" x="358.8" xlink:href="#md4be995e48" y="256.915614"/>
    </g>
   </g>
   <g id="line2d_59"/>
   <g id="line2d_60">
    <path clip-path="url(#p9e52f1fefb)" d="M 165.470948 283.263337 
" style="fill:none;stroke:#6495ed;stroke-linecap:square;stroke-width:1.5;"/>
    <defs>
     <path d="M -12 12 
L 12 -12 
M -12 -12 
L 12 12 
" id="m57f22ea620" style="stroke:#6495ed;stroke-width:3;"/>
    </defs>
    <g clip-path="url(#p9e52f1fefb)">
     <use style="fill:#6495ed;stroke:#6495ed;stroke-width:3;" x="165.470948" xlink:href="#m57f22ea620" y="283.263337"/>
    </g>
   </g>
   <g id="line2d_61">
    <defs>
     <path d="M 0 1.5 
C 0.397805 1.5 0.77937 1.341951 1.06066 1.06066 
C 1.341951 0.77937 1.5 0.397805 1.5 0 
C 1.5 -0.397805 1.341951 -0.77937 1.06066 -1.06066 
C 0.77937 -1.341951 0.397805 -1.5 0 -1.5 
C -0.397805 -1.5 -0.77937 -1.341951 -1.06066 -1.06066 
C -1.341951 -0.77937 -1.5 -0.397805 -1.5 0 
C -1.5 0.397805 -1.341951 0.77937 -1.06066 1.06066 
C -0.77937 1.341951 -0.397805 1.5 0 1.5 
z
" id="mf31551ca74" style="stroke:#ff0000;"/>
    </defs>
    <g>
     <use style="fill:#ff0000;stroke:#ff0000;" x="241.524663" xlink:href="#mf31551ca74" y="86.430349"/>
     <use style="fill:#ff0000;stroke:#ff0000;" x="241.524663" xlink:href="#mf31551ca74" y="86.430349"/>
    </g>
   </g>
   <g id="line2d_62">
    <path d="M 58.414766 298.245375 
L 58.414766 272.930896 
L 70.8 272.930896 
L 70.8 266.731432 
L 78.044898 266.731432 
L 78.044898 264.148322 
L 83.185234 264.148322 
L 83.185234 262.598456 
L 87.172389 262.598456 
L 87.172389 262.081834 
L 90.430132 262.081834 
L 90.430132 261.565212 
L 95.570468 261.565212 
L 95.570468 260.015346 
L 97.675029 260.015346 
L 97.675029 258.982102 
L 101.260636 258.982102 
L 101.260636 258.46548 
L 102.815366 258.46548 
L 102.815366 252.782638 
L 104.245578 252.782638 
L 104.245578 250.71615 
L 105.569748 250.71615 
L 105.569748 250.199528 
L 107.955702 250.199528 
L 107.955702 248.13304 
L 109.03895 248.13304 
L 109.03895 245.549929 
L 111.026343 245.549929 
L 111.026343 245.033307 
L 116.630812 245.033307 
L 116.630812 244.000063 
L 117.954982 244.000063 
L 117.954982 241.933575 
L 118.581998 241.933575 
L 118.581998 241.416953 
L 119.187755 241.416953 
L 119.187755 239.867087 
L 119.773647 239.867087 
L 119.773647 238.833843 
L 120.890768 238.833843 
L 120.890768 238.317221 
L 121.424184 238.317221 
L 121.424184 235.217489 
L 121.942137 235.217489 
L 121.942137 234.184245 
L 122.445497 234.184245 
L 122.445497 232.634379 
L 123.411577 232.634379 
L 123.411577 231.084513 
L 125.19988 231.084513 
L 125.19988 230.567891 
L 125.620325 230.567891 
L 125.620325 230.051269 
L 126.825374 230.051269 
L 126.825374 228.501403 
L 127.954262 228.501403 
L 127.954262 227.468159 
L 128.315246 227.468159 
L 128.315246 225.918293 
L 128.669082 225.918293 
L 128.669082 225.401671 
L 129.016046 225.401671 
L 129.016046 224.368427 
L 129.356402 224.368427 
L 129.356402 221.785317 
L 130.656474 221.785317 
L 130.656474 218.685585 
L 130.967232 218.685585 
L 130.967232 218.168963 
L 131.572989 218.168963 
L 131.572989 215.069231 
L 131.868336 215.069231 
L 131.868336 213.519365 
L 133.544701 213.519365 
L 133.544701 213.002743 
L 133.809418 213.002743 
L 133.809418 210.936254 
L 134.070271 210.936254 
L 134.070271 210.419632 
L 134.830731 210.419632 
L 134.830731 208.869766 
L 135.560144 208.869766 
L 135.560144 207.836522 
L 135.796811 207.836522 
L 135.796811 205.253412 
L 136.030384 205.253412 
L 136.030384 201.120436 
L 136.488566 201.120436 
L 136.488566 200.603814 
L 136.713325 200.603814 
L 136.713325 199.57057 
L 136.935292 199.57057 
L 136.935292 198.537326 
L 137.154536 198.537326 
L 137.154536 195.954216 
L 137.585114 195.954216 
L 137.585114 195.437594 
L 137.796573 195.437594 
L 137.796573 192.854484 
L 138.212129 192.854484 
L 138.212129 189.754752 
L 138.416339 189.754752 
L 138.416339 187.688264 
L 139.403779 187.688264 
L 139.403779 186.138398 
L 139.594883 186.138398 
L 139.594883 185.621776 
L 140.5209 185.621776 
L 140.5209 185.105154 
L 140.70048 185.105154 
L 140.70048 182.522044 
L 141.22864 182.522044 
L 141.22864 182.005422 
L 142.075629 182.005422 
L 142.075629 181.4888 
L 142.240313 181.4888 
L 142.240313 178.389067 
L 142.565197 178.389067 
L 142.565197 177.872445 
L 142.72545 177.872445 
L 142.72545 177.355823 
L 143.657911 177.355823 
L 143.657911 176.322579 
L 143.958223 176.322579 
L 143.958223 172.706225 
L 144.106507 172.706225 
L 144.106507 171.672981 
L 144.830011 171.672981 
L 144.830011 170.639737 
L 144.971262 170.639737 
L 144.971262 169.606493 
L 145.250457 169.606493 
L 145.250457 169.089871 
L 145.661236 169.089871 
L 145.661236 163.923651 
L 146.839781 163.923651 
L 146.839781 163.407029 
L 146.966058 163.407029 
L 146.966058 162.890407 
L 147.215966 162.890407 
L 147.215966 162.373785 
L 147.339621 162.373785 
L 147.339621 161.857163 
L 147.584393 161.857163 
L 147.584393 161.340541 
L 147.825858 161.340541 
L 147.825858 159.790675 
L 148.182045 159.790675 
L 148.182045 158.757431 
L 148.53127 158.757431 
L 148.53127 156.690943 
L 148.986533 156.690943 
L 148.986533 156.174321 
L 149.098559 156.174321 
L 149.098559 155.657699 
L 149.430484 155.657699 
L 149.430484 155.141077 
L 150.494377 155.141077 
L 150.494377 154.624455 
L 151.884821 154.624455 
L 151.884821 152.557967 
L 152.541466 152.557967 
L 152.541466 152.041345 
L 152.99615 152.041345 
L 152.99615 149.974857 
L 153.263508 149.974857 
L 153.263508 149.458235 
L 153.43955 149.458235 
L 153.43955 148.941613 
L 153.613874 148.941613 
L 153.613874 148.424991 
L 154.625547 148.424991 
L 154.625547 147.391747 
L 155.891075 147.391747 
L 155.891075 146.358503 
L 157.356496 146.358503 
L 157.356496 145.841881 
L 162.14159 145.841881 
L 162.14159 145.325259 
L 164.694944 145.325259 
L 164.694944 144.808637 
L 167.968231 144.808637 
L 167.968231 144.292014 
L 169.458103 144.292014 
L 169.458103 143.775392 
L 170.158903 143.775392 
L 170.158903 143.25877 
L 170.566559 143.25877 
L 170.566559 141.708904 
L 171.128599 141.708904 
L 171.128599 140.159038 
L 171.32282 140.159038 
L 171.32282 138.609172 
L 171.451137 138.609172 
L 171.483073 137.575928 
L 172.324448 137.575928 
L 172.324448 136.026062 
L 172.536265 136.026062 
L 172.536265 135.50944 
L 172.686041 135.50944 
L 172.686041 132.92633 
L 172.89364 132.92633 
L 172.89364 132.409708 
L 173.359285 132.409708 
L 173.359285 131.893086 
L 179.960743 131.893086 
L 179.960743 131.376464 
L 180.585021 131.376464 
L 180.585021 130.859842 
L 181.113925 130.859842 
L 181.113925 129.826598 
L 181.609529 129.826598 
L 181.609529 129.309976 
L 181.82546 129.309976 
L 181.879038 127.76011 
L 182.232174 127.76011 
L 182.232174 127.243488 
L 182.440754 127.243488 
L 182.440754 126.726866 
L 186.965797 126.726866 
L 186.965797 125.693622 
L 187.271697 125.693622 
L 187.271697 124.660378 
L 187.507497 124.660378 
L 187.507497 124.143756 
L 187.842695 124.143756 
L 187.919163 123.110512 
L 191.657879 123.110512 
L 191.657879 122.59389 
L 191.893596 122.59389 
L 191.94443 121.560646 
L 192.326113 121.560646 
L 192.336048 120.527402 
L 192.680338 120.527402 
L 192.680338 120.01078 
L 195.60372 120.01078 
L 195.60372 119.494158 
L 195.923461 119.494158 
L 195.923461 117.42767 
L 196.36487 117.42767 
L 196.36487 116.394426 
L 198.442987 116.394426 
L 198.442987 115.877804 
L 198.730003 115.877804 
L 198.826962 114.327938 
L 198.909653 114.327938 
L 198.930266 113.294694 
L 199.148672 113.294694 
L 199.148672 111.744828 
L 199.283832 111.744828 
L 199.283832 111.228206 
L 201.467512 111.228206 
L 201.509169 110.194961 
L 203.348914 110.194961 
L 203.40246 109.161717 
L 203.47183 109.161717 
L 203.47183 108.128473 
L 203.704642 108.128473 
L 203.741403 107.095229 
L 203.825143 107.095229 
L 203.825143 106.578607 
L 203.991456 106.578607 
L 203.991456 106.061985 
L 205.692588 106.061985 
L 205.692588 105.545363 
L 207.430202 105.545363 
L 207.481339 104.512119 
L 209.107203 104.512119 
L 209.196341 102.962253 
L 210.439419 102.962253 
L 210.439419 102.445631 
L 210.679408 102.445631 
L 210.722052 101.412387 
L 211.84326 101.412387 
L 211.933041 100.379143 
L 211.982726 100.379143 
L 212.088259 99.345899 
L 212.153903 99.345899 
L 212.153903 98.829277 
L 213.249865 98.829277 
L 213.271421 97.796033 
L 214.441713 97.796033 
L 214.441713 96.762789 
L 215.526487 96.762789 
L 215.559009 95.729545 
L 217.603599 95.729545 
L 217.659056 94.696301 
L 218.596984 94.696301 
L 218.596984 94.179679 
L 219.488125 94.179679 
L 219.488125 93.663057 
L 221.794853 93.663057 
L 221.876795 92.629813 
L 223.338278 92.629813 
L 223.338278 92.113191 
L 224.005423 92.113191 
L 224.005423 91.596569 
L 224.118145 91.596569 
L 224.118145 91.079947 
L 224.687583 91.079947 
L 224.687583 90.563325 
L 225.952709 90.563325 
L 225.952709 90.046703 
L 226.53782 90.046703 
L 226.53782 89.530081 
L 227.748217 89.530081 
L 227.748217 89.013459 
L 228.72438 89.013459 
L 228.72438 88.496837 
L 230.295302 88.496837 
L 230.295302 87.980215 
L 235.240513 87.980215 
L 235.240513 87.463593 
L 236.242366 87.463593 
L 236.242366 86.946971 
L 241.524663 86.946971 
L 241.524663 86.430349 
L 358.8 86.430349 
L 358.8 86.430349 
" style="fill:none;stroke:#ff0000;stroke-linecap:square;stroke-width:1.5;"/>
   </g>
   <g id="line2d_63">
    <defs>
     <path d="M 0 -6 
L -5.196152 -3 
L -5.196152 3 
L -0 6 
L 5.196152 3 
L 5.196152 -3 
z
" id="m4616ba2971" style="stroke:#ff0000;stroke-linejoin:miter;stroke-width:1.5;"/>
    </defs>
    <g>
     <use style="fill:none;stroke:#ff0000;stroke-linejoin:miter;stroke-width:1.5;" x="120.890768" xlink:href="#m4616ba2971" y="238.317221"/>
     <use style="fill:none;stroke:#ff0000;stroke-linejoin:miter;stroke-width:1.5;" x="147.215966" xlink:href="#m4616ba2971" y="162.373785"/>
     <use style="fill:none;stroke:#ff0000;stroke-linejoin:miter;stroke-width:1.5;" x="223.338278" xlink:href="#m4616ba2971" y="92.629813"/>
     <use style="fill:none;stroke:#ff0000;stroke-linejoin:miter;stroke-width:1.5;" x="241.524663" xlink:href="#m4616ba2971" y="86.430349"/>
     <use style="fill:none;stroke:#ff0000;stroke-linejoin:miter;stroke-width:1.5;" x="241.524663" xlink:href="#m4616ba2971" y="86.430349"/>
     <use style="fill:none;stroke:#ff0000;stroke-linejoin:miter;stroke-width:1.5;" x="358.8" xlink:href="#m4616ba2971" y="86.430349"/>
    </g>
   </g>
   <g id="line2d_64"/>
   <g id="line2d_65">
    <path clip-path="url(#p9e52f1fefb)" d="M 165.470948 144.808637 
" style="fill:none;stroke:#ff0000;stroke-linecap:square;stroke-width:1.5;"/>
    <defs>
     <path d="M -12 12 
L 12 -12 
M -12 -12 
L 12 12 
" id="m0609a8026d" style="stroke:#ff0000;stroke-width:3;"/>
    </defs>
    <g clip-path="url(#p9e52f1fefb)">
     <use style="fill:#ff0000;stroke:#ff0000;stroke-width:3;" x="165.470948" xlink:href="#m0609a8026d" y="144.808637"/>
    </g>
   </g>
   <g id="line2d_66">
    <path d="M 358.8 256.915614 
L 390.48 292.97583 
" style="fill:none;stroke:#6495ed;stroke-linecap:square;stroke-width:1.5;"/>
    <g>
     <use style="fill:none;stroke:#6495ed;stroke-linejoin:miter;stroke-width:1.5;" x="358.8" xlink:href="#md4be995e48" y="256.915614"/>
     <use style="fill:none;stroke:#6495ed;stroke-linejoin:miter;stroke-width:1.5;" x="390.48" xlink:href="#md4be995e48" y="292.97583"/>
    </g>
   </g>
   <g id="line2d_67">
    <path d="M 358.8 236.250733 
L 390.48 229.741296 
" style="fill:none;stroke:#ffa500;stroke-linecap:square;stroke-width:1.5;"/>
    <g>
     <use style="fill:none;stroke:#ffa500;stroke-linejoin:bevel;stroke-width:1.5;" x="358.8" xlink:href="#m79e6c5f2b5" y="236.250733"/>
     <use style="fill:none;stroke:#ffa500;stroke-linejoin:bevel;stroke-width:1.5;" x="390.48" xlink:href="#m79e6c5f2b5" y="229.741296"/>
    </g>
   </g>
   <g id="line2d_68">
    <path d="M 358.8 231.084513 
L 390.48 166.506761 
" style="fill:none;stroke:#000080;stroke-linecap:square;stroke-width:1.5;"/>
    <g>
     <use style="fill:none;stroke:#000080;stroke-width:1.5;" x="358.8" xlink:href="#me371e12a77" y="231.084513"/>
     <use style="fill:none;stroke:#000080;stroke-width:1.5;" x="390.48" xlink:href="#me371e12a77" y="166.506761"/>
    </g>
   </g>
   <g id="line2d_69">
    <path d="M 358.8 194.920972 
L 390.48 103.272226 
" style="fill:none;stroke:#ff00ff;stroke-linecap:square;stroke-width:1.5;"/>
    <g>
     <use style="fill:none;stroke:#ff00ff;stroke-linejoin:miter;stroke-width:1.5;" x="358.8" xlink:href="#me3e8c3babf" y="194.920972"/>
     <use style="fill:none;stroke:#ff00ff;stroke-linejoin:miter;stroke-width:1.5;" x="390.48" xlink:href="#me3e8c3babf" y="103.272226"/>
    </g>
   </g>
   <g id="line2d_70">
    <path d="M 358.8 86.430349 
L 390.48 40.037692 
" style="fill:none;stroke:#ff0000;stroke-linecap:square;stroke-width:1.5;"/>
    <g>
     <use style="fill:none;stroke:#ff0000;stroke-linejoin:miter;stroke-width:1.5;" x="358.8" xlink:href="#m4616ba2971" y="86.430349"/>
     <use style="fill:none;stroke:#ff0000;stroke-linejoin:miter;stroke-width:1.5;" x="390.48" xlink:href="#m4616ba2971" y="40.037692"/>
    </g>
   </g>
   <g id="line2d_71">
    <path d="M 358.8 298.245375 
L 358.8 34.768147 
" style="fill:none;stroke:#000000;stroke-linecap:square;stroke-width:1.5;"/>
   </g>
   <g id="patch_3">
    <path d="M 70.8 298.245375 
L 70.8 32.133375 
" style="fill:none;stroke:#000000;stroke-linecap:square;stroke-linejoin:miter;stroke-width:0.8;"/>
   </g>
   <g id="patch_4">
    <path d="M 427.92 298.245375 
L 427.92 32.133375 
" style="fill:none;stroke:#000000;stroke-linecap:square;stroke-linejoin:miter;stroke-width:0.8;"/>
   </g>
   <g id="patch_5">
    <path d="M 70.8 298.245375 
L 427.92 298.245375 
" style="fill:none;stroke:#000000;stroke-linecap:square;stroke-linejoin:miter;stroke-width:0.8;"/>
   </g>
   <g id="patch_6">
    <path d="M 70.8 32.133375 
L 427.92 32.133375 
" style="fill:none;stroke:#000000;stroke-linecap:square;stroke-linejoin:miter;stroke-width:0.8;"/>
   </g>
   <g id="text_14">
    <!-- f11 -->
    <g transform="translate(396.24 297.114893)scale(0.15 -0.15)">
     <use xlink:href="#DejaVuSans-66"/>
     <use x="35.205078" xlink:href="#DejaVuSans-31"/>
     <use x="98.828125" xlink:href="#DejaVuSans-31"/>
    </g>
   </g>
   <g id="text_15">
    <!-- f10 -->
    <g transform="translate(396.24 233.880358)scale(0.15 -0.15)">
     <use xlink:href="#DejaVuSans-66"/>
     <use x="35.205078" xlink:href="#DejaVuSans-31"/>
     <use x="98.828125" xlink:href="#DejaVuSans-30"/>
    </g>
   </g>
   <g id="text_16">
    <!-- f12 -->
    <g transform="translate(396.24 170.645824)scale(0.15 -0.15)">
     <use xlink:href="#DejaVuSans-66"/>
     <use x="35.205078" xlink:href="#DejaVuSans-31"/>
     <use x="98.828125" xlink:href="#DejaVuSans-32"/>
    </g>
   </g>
   <g id="text_17">
    <!-- f13 -->
    <defs>
     <path d="M 40.578125 39.3125 
Q 47.65625 37.796875 51.625 33 
Q 55.609375 28.21875 55.609375 21.1875 
Q 55.609375 10.40625 48.1875 4.484375 
Q 40.765625 -1.421875 27.09375 -1.421875 
Q 22.515625 -1.421875 17.65625 -0.515625 
Q 12.796875 0.390625 7.625 2.203125 
L 7.625 11.71875 
Q 11.71875 9.328125 16.59375 8.109375 
Q 21.484375 6.890625 26.8125 6.890625 
Q 36.078125 6.890625 40.9375 10.546875 
Q 45.796875 14.203125 45.796875 21.1875 
Q 45.796875 27.640625 41.28125 31.265625 
Q 36.765625 34.90625 28.71875 34.90625 
L 20.21875 34.90625 
L 20.21875 43.015625 
L 29.109375 43.015625 
Q 36.375 43.015625 40.234375 45.921875 
Q 44.09375 48.828125 44.09375 54.296875 
Q 44.09375 59.90625 40.109375 62.90625 
Q 36.140625 65.921875 28.71875 65.921875 
Q 24.65625 65.921875 20.015625 65.03125 
Q 15.375 64.15625 9.8125 62.3125 
L 9.8125 71.09375 
Q 15.4375 72.65625 20.34375 73.4375 
Q 25.25 74.21875 29.59375 74.21875 
Q 40.828125 74.21875 47.359375 69.109375 
Q 53.90625 64.015625 53.90625 55.328125 
Q 53.90625 49.265625 50.4375 45.09375 
Q 46.96875 40.921875 40.578125 39.3125 
" id="DejaVuSans-33"/>
    </defs>
    <g transform="translate(396.24 107.411289)scale(0.15 -0.15)">
     <use xlink:href="#DejaVuSans-66"/>
     <use x="35.205078" xlink:href="#DejaVuSans-31"/>
     <use x="98.828125" xlink:href="#DejaVuSans-33"/>
    </g>
   </g>
   <g id="text_18">
    <!-- f14 -->
    <g transform="translate(396.24 44.176754)scale(0.15 -0.15)">
     <use xlink:href="#DejaVuSans-66"/>
     <use x="35.205078" xlink:href="#DejaVuSans-31"/>
     <use x="98.828125" xlink:href="#DejaVuSans-34"/>
    </g>
   </g>
   <g id="text_19">
    <!-- bbob -->
    <defs>
     <path d="M 48.6875 27.296875 
Q 48.6875 37.203125 44.609375 42.84375 
Q 40.53125 48.484375 33.40625 48.484375 
Q 26.265625 48.484375 22.1875 42.84375 
Q 18.109375 37.203125 18.109375 27.296875 
Q 18.109375 17.390625 22.1875 11.75 
Q 26.265625 6.109375 33.40625 6.109375 
Q 40.53125 6.109375 44.609375 11.75 
Q 48.6875 17.390625 48.6875 27.296875 
M 18.109375 46.390625 
Q 20.953125 51.265625 25.265625 53.625 
Q 29.59375 56 35.59375 56 
Q 45.5625 56 51.78125 48.09375 
Q 58.015625 40.1875 58.015625 27.296875 
Q 58.015625 14.40625 51.78125 6.484375 
Q 45.5625 -1.421875 35.59375 -1.421875 
Q 29.59375 -1.421875 25.265625 0.953125 
Q 20.953125 3.328125 18.109375 8.203125 
L 18.109375 0 
L 9.078125 0 
L 9.078125 75.984375 
L 18.109375 75.984375 
z
" id="DejaVuSans-62"/>
    </defs>
    <g transform="translate(74.3712 50.114612)scale(0.1666 -0.1666)">
     <use xlink:href="#DejaVuSans-62"/>
     <use x="63.476562" xlink:href="#DejaVuSans-62"/>
     <use x="126.953125" xlink:href="#DejaVuSans-6f"/>
     <use x="188.134766" xlink:href="#DejaVuSans-62"/>
    </g>
    <!-- Ill-conditioned functions, 2-D -->
    <defs>
     <path d="M 9.8125 72.90625 
L 19.671875 72.90625 
L 19.671875 0 
L 9.8125 0 
z
" id="DejaVuSans-49"/>
     <path d="M 11.71875 12.40625 
L 22.015625 12.40625 
L 22.015625 4 
L 14.015625 -11.625 
L 7.71875 -11.625 
L 11.71875 4 
z
" id="DejaVuSans-2c"/>
     <path d="M 19.671875 64.796875 
L 19.671875 8.109375 
L 31.59375 8.109375 
Q 46.6875 8.109375 53.6875 14.9375 
Q 60.6875 21.78125 60.6875 36.53125 
Q 60.6875 51.171875 53.6875 57.984375 
Q 46.6875 64.796875 31.59375 64.796875 
z
M 9.8125 72.90625 
L 30.078125 72.90625 
Q 51.265625 72.90625 61.171875 64.09375 
Q 71.09375 55.28125 71.09375 36.53125 
Q 71.09375 17.671875 61.125 8.828125 
Q 51.171875 0 30.078125 0 
L 9.8125 0 
z
" id="DejaVuSans-44"/>
    </defs>
    <g transform="translate(74.3712 68.770168)scale(0.1666 -0.1666)">
     <use xlink:href="#DejaVuSans-49"/>
     <use x="29.492188" xlink:href="#DejaVuSans-6c"/>
     <use x="57.275391" xlink:href="#DejaVuSans-6c"/>
     <use x="85.058594" xlink:href="#DejaVuSans-2d"/>
     <use x="121.142578" xlink:href="#DejaVuSans-63"/>
     <use x="176.123047" xlink:href="#DejaVuSans-6f"/>
     <use x="237.304688" xlink:href="#DejaVuSans-6e"/>
     <use x="300.683594" xlink:href="#DejaVuSans-64"/>
     <use x="364.160156" xlink:href="#DejaVuSans-69"/>
     <use x="391.943359" xlink:href="#DejaVuSans-74"/>
     <use x="431.152344" xlink:href="#DejaVuSans-69"/>
     <use x="458.935547" xlink:href="#DejaVuSans-6f"/>
     <use x="520.117188" xlink:href="#DejaVuSans-6e"/>
     <use x="583.496094" xlink:href="#DejaVuSans-65"/>
     <use x="645.019531" xlink:href="#DejaVuSans-64"/>
     <use x="708.496094" xlink:href="#DejaVuSans-20"/>
     <use x="740.283203" xlink:href="#DejaVuSans-66"/>
     <use x="775.488281" xlink:href="#DejaVuSans-75"/>
     <use x="838.867188" xlink:href="#DejaVuSans-6e"/>
     <use x="902.246094" xlink:href="#DejaVuSans-63"/>
     <use x="957.226562" xlink:href="#DejaVuSans-74"/>
     <use x="996.435547" xlink:href="#DejaVuSans-69"/>
     <use x="1024.21875" xlink:href="#DejaVuSans-6f"/>
     <use x="1085.400391" xlink:href="#DejaVuSans-6e"/>
     <use x="1148.779297" xlink:href="#DejaVuSans-73"/>
     <use x="1200.878906" xlink:href="#DejaVuSans-2c"/>
     <use x="1232.666016" xlink:href="#DejaVuSans-20"/>
     <use x="1264.453125" xlink:href="#DejaVuSans-32"/>
     <use x="1328.076172" xlink:href="#DejaVuSans-2d"/>
     <use x="1364.160156" xlink:href="#DejaVuSans-44"/>
    </g>
    <!-- 51 targets in 100..1e-08 -->
    <defs>
     <path d="M 10.796875 72.90625 
L 49.515625 72.90625 
L 49.515625 64.59375 
L 19.828125 64.59375 
L 19.828125 46.734375 
Q 21.96875 47.46875 24.109375 47.828125 
Q 26.265625 48.1875 28.421875 48.1875 
Q 40.625 48.1875 47.75 41.5 
Q 54.890625 34.8125 54.890625 23.390625 
Q 54.890625 11.625 47.5625 5.09375 
Q 40.234375 -1.421875 26.90625 -1.421875 
Q 22.3125 -1.421875 17.546875 -0.640625 
Q 12.796875 0.140625 7.71875 1.703125 
L 7.71875 11.625 
Q 12.109375 9.234375 16.796875 8.0625 
Q 21.484375 6.890625 26.703125 6.890625 
Q 35.15625 6.890625 40.078125 11.328125 
Q 45.015625 15.765625 45.015625 23.390625 
Q 45.015625 31 40.078125 35.4375 
Q 35.15625 39.890625 26.703125 39.890625 
Q 22.75 39.890625 18.8125 39.015625 
Q 14.890625 38.140625 10.796875 36.28125 
z
" id="DejaVuSans-35"/>
    </defs>
    <g transform="translate(74.3712 87.425723)scale(0.1666 -0.1666)">
     <use xlink:href="#DejaVuSans-35"/>
     <use x="63.623047" xlink:href="#DejaVuSans-31"/>
     <use x="127.246094" xlink:href="#DejaVuSans-20"/>
     <use x="159.033203" xlink:href="#DejaVuSans-74"/>
     <use x="198.242188" xlink:href="#DejaVuSans-61"/>
     <use x="259.521484" xlink:href="#DejaVuSans-72"/>
     <use x="300.619141" xlink:href="#DejaVuSans-67"/>
     <use x="364.095703" xlink:href="#DejaVuSans-65"/>
     <use x="425.619141" xlink:href="#DejaVuSans-74"/>
     <use x="464.828125" xlink:href="#DejaVuSans-73"/>
     <use x="516.927734" xlink:href="#DejaVuSans-20"/>
     <use x="548.714844" xlink:href="#DejaVuSans-69"/>
     <use x="576.498047" xlink:href="#DejaVuSans-6e"/>
     <use x="639.876953" xlink:href="#DejaVuSans-20"/>
     <use x="671.664062" xlink:href="#DejaVuSans-31"/>
     <use x="735.287109" xlink:href="#DejaVuSans-30"/>
     <use x="798.910156" xlink:href="#DejaVuSans-30"/>
     <use x="862.533203" xlink:href="#DejaVuSans-2e"/>
     <use x="894.320312" xlink:href="#DejaVuSans-2e"/>
     <use x="926.107422" xlink:href="#DejaVuSans-31"/>
     <use x="989.730469" xlink:href="#DejaVuSans-65"/>
     <use x="1051.253906" xlink:href="#DejaVuSans-2d"/>
     <use x="1087.337891" xlink:href="#DejaVuSans-30"/>
     <use x="1150.960938" xlink:href="#DejaVuSans-38"/>
    </g>
    <!-- 15 instances -->
    <g transform="translate(74.3712 106.081279)scale(0.1666 -0.1666)">
     <use xlink:href="#DejaVuSans-31"/>
     <use x="63.623047" xlink:href="#DejaVuSans-35"/>
     <use x="127.246094" xlink:href="#DejaVuSans-20"/>
     <use x="159.033203" xlink:href="#DejaVuSans-69"/>
     <use x="186.816406" xlink:href="#DejaVuSans-6e"/>
     <use x="250.195312" xlink:href="#DejaVuSans-73"/>
     <use x="302.294922" xlink:href="#DejaVuSans-74"/>
     <use x="341.503906" xlink:href="#DejaVuSans-61"/>
     <use x="402.783203" xlink:href="#DejaVuSans-6e"/>
     <use x="466.162109" xlink:href="#DejaVuSans-63"/>
     <use x="521.142578" xlink:href="#DejaVuSans-65"/>
     <use x="582.666016" xlink:href="#DejaVuSans-73"/>
    </g>
   </g>
   <g id="text_20">
    <!-- v2.1 -->
    <g style="fill:#808080;" transform="translate(238.449063 293.504568)scale(0.1 -0.1)">
     <use xlink:href="#DejaVuSans-76"/>
     <use x="59.179688" xlink:href="#DejaVuSans-32"/>
     <use x="122.802734" xlink:href="#DejaVuSans-2e"/>
     <use x="154.589844" xlink:href="#DejaVuSans-31"/>
    </g>
   </g>
  </g>
 </g>
 <defs>
  <clipPath id="p9e52f1fefb">
   <rect height="266.112" width="357.12" x="70.8" y="32.133375"/>
  </clipPath>
 </defs>
</svg>
