<?xml version="1.0" encoding="utf-8" standalone="no"?>
<!DOCTYPE svg PUBLIC "-//W3C//DTD SVG 1.1//EN"
  "http://www.w3.org/Graphics/SVG/1.1/DTD/svg11.dtd">
<!-- Created with matplotlib (http://matplotlib.org/) -->
<svg height="353pt" version="1.1" viewBox="0 0 438 353" width="438pt" xmlns="http://www.w3.org/2000/svg" xmlns:xlink="http://www.w3.org/1999/xlink">
 <defs>
  <style type="text/css">
*{stroke-linecap:butt;stroke-linejoin:round;}
  </style>
 </defs>
 <g id="figure_1">
  <g id="patch_1">
   <path d="M 0 353.22225 
L 438.62 353.22225 
L 438.62 0 
L 0 0 
z
" style="fill:#ffffff;"/>
  </g>
  <g id="axes_1">
   <g id="patch_2">
    <path d="M 70.8 298.245375 
L 427.92 298.245375 
L 427.92 32.133375 
L 70.8 32.133375 
z
" style="fill:#ffffff;"/>
   </g>
   <g id="matplotlib.axis_1">
    <g id="xtick_1">
     <g id="line2d_1">
      <path clip-path="url(#p9c8d13e606)" d="M 70.8 298.245375 
L 70.8 32.133375 
" style="fill:none;stroke:#b0b0b0;stroke-linecap:square;stroke-width:0.8;"/>
     </g>
     <g id="line2d_2">
      <defs>
       <path d="M 0 0 
L 0 3.5 
" id="m21d2d08fb1" style="stroke:#000000;stroke-width:0.8;"/>
      </defs>
      <g>
       <use style="stroke:#000000;stroke-width:0.8;" x="70.8" xlink:href="#m21d2d08fb1" y="298.245375"/>
      </g>
     </g>
     <g id="text_1">
      <!-- 0 -->
      <defs>
       <path d="M 31.78125 66.40625 
Q 24.171875 66.40625 20.328125 58.90625 
Q 16.5 51.421875 16.5 36.375 
Q 16.5 21.390625 20.328125 13.890625 
Q 24.171875 6.390625 31.78125 6.390625 
Q 39.453125 6.390625 43.28125 13.890625 
Q 47.125 21.390625 47.125 36.375 
Q 47.125 51.421875 43.28125 58.90625 
Q 39.453125 66.40625 31.78125 66.40625 
M 31.78125 74.21875 
Q 44.046875 74.21875 50.515625 64.515625 
Q 56.984375 54.828125 56.984375 36.375 
Q 56.984375 17.96875 50.515625 8.265625 
Q 44.046875 -1.421875 31.78125 -1.421875 
Q 19.53125 -1.421875 13.0625 8.265625 
Q 6.59375 17.96875 6.59375 36.375 
Q 6.59375 54.828125 13.0625 64.515625 
Q 19.53125 74.21875 31.78125 74.21875 
" id="DejaVuSans-30"/>
      </defs>
      <g transform="translate(64.4375 320.44225)scale(0.2 -0.2)">
       <use xlink:href="#DejaVuSans-30"/>
      </g>
     </g>
    </g>
    <g id="xtick_2">
     <g id="line2d_3">
      <path clip-path="url(#p9c8d13e606)" d="M 153.085714 298.245375 
L 153.085714 32.133375 
" style="fill:none;stroke:#b0b0b0;stroke-linecap:square;stroke-width:0.8;"/>
     </g>
     <g id="line2d_4">
      <g>
       <use style="stroke:#000000;stroke-width:0.8;" x="153.085714" xlink:href="#m21d2d08fb1" y="298.245375"/>
      </g>
     </g>
     <g id="text_2">
      <!-- 2 -->
      <defs>
       <path d="M 19.1875 8.296875 
L 53.609375 8.296875 
L 53.609375 0 
L 7.328125 0 
L 7.328125 8.296875 
Q 12.9375 14.109375 22.625 23.890625 
Q 32.328125 33.6875 34.8125 36.53125 
Q 39.546875 41.84375 41.421875 45.53125 
Q 43.3125 49.21875 43.3125 52.78125 
Q 43.3125 58.59375 39.234375 62.25 
Q 35.15625 65.921875 28.609375 65.921875 
Q 23.96875 65.921875 18.8125 64.3125 
Q 13.671875 62.703125 7.8125 59.421875 
L 7.8125 69.390625 
Q 13.765625 71.78125 18.9375 73 
Q 24.125 74.21875 28.421875 74.21875 
Q 39.75 74.21875 46.484375 68.546875 
Q 53.21875 62.890625 53.21875 53.421875 
Q 53.21875 48.921875 51.53125 44.890625 
Q 49.859375 40.875 45.40625 35.40625 
Q 44.1875 33.984375 37.640625 27.21875 
Q 31.109375 20.453125 19.1875 8.296875 
" id="DejaVuSans-32"/>
      </defs>
      <g transform="translate(146.723214 320.44225)scale(0.2 -0.2)">
       <use xlink:href="#DejaVuSans-32"/>
      </g>
     </g>
    </g>
    <g id="xtick_3">
     <g id="line2d_5">
      <path clip-path="url(#p9c8d13e606)" d="M 235.371429 298.245375 
L 235.371429 32.133375 
" style="fill:none;stroke:#b0b0b0;stroke-linecap:square;stroke-width:0.8;"/>
     </g>
     <g id="line2d_6">
      <g>
       <use style="stroke:#000000;stroke-width:0.8;" x="235.371429" xlink:href="#m21d2d08fb1" y="298.245375"/>
      </g>
     </g>
     <g id="text_3">
      <!-- 4 -->
      <defs>
       <path d="M 37.796875 64.3125 
L 12.890625 25.390625 
L 37.796875 25.390625 
z
M 35.203125 72.90625 
L 47.609375 72.90625 
L 47.609375 25.390625 
L 58.015625 25.390625 
L 58.015625 17.1875 
L 47.609375 17.1875 
L 47.609375 0 
L 37.796875 0 
L 37.796875 17.1875 
L 4.890625 17.1875 
L 4.890625 26.703125 
z
" id="DejaVuSans-34"/>
      </defs>
      <g transform="translate(229.008929 320.44225)scale(0.2 -0.2)">
       <use xlink:href="#DejaVuSans-34"/>
      </g>
     </g>
    </g>
    <g id="xtick_4">
     <g id="line2d_7">
      <path clip-path="url(#p9c8d13e606)" d="M 317.657143 298.245375 
L 317.657143 32.133375 
" style="fill:none;stroke:#b0b0b0;stroke-linecap:square;stroke-width:0.8;"/>
     </g>
     <g id="line2d_8">
      <g>
       <use style="stroke:#000000;stroke-width:0.8;" x="317.657143" xlink:href="#m21d2d08fb1" y="298.245375"/>
      </g>
     </g>
     <g id="text_4">
      <!-- 6 -->
      <defs>
       <path d="M 33.015625 40.375 
Q 26.375 40.375 22.484375 35.828125 
Q 18.609375 31.296875 18.609375 23.390625 
Q 18.609375 15.53125 22.484375 10.953125 
Q 26.375 6.390625 33.015625 6.390625 
Q 39.65625 6.390625 43.53125 10.953125 
Q 47.40625 15.53125 47.40625 23.390625 
Q 47.40625 31.296875 43.53125 35.828125 
Q 39.65625 40.375 33.015625 40.375 
M 52.59375 71.296875 
L 52.59375 62.3125 
Q 48.875 64.0625 45.09375 64.984375 
Q 41.3125 65.921875 37.59375 65.921875 
Q 27.828125 65.921875 22.671875 59.328125 
Q 17.53125 52.734375 16.796875 39.40625 
Q 19.671875 43.65625 24.015625 45.921875 
Q 28.375 48.1875 33.59375 48.1875 
Q 44.578125 48.1875 50.953125 41.515625 
Q 57.328125 34.859375 57.328125 23.390625 
Q 57.328125 12.15625 50.6875 5.359375 
Q 44.046875 -1.421875 33.015625 -1.421875 
Q 20.359375 -1.421875 13.671875 8.265625 
Q 6.984375 17.96875 6.984375 36.375 
Q 6.984375 53.65625 15.1875 63.9375 
Q 23.390625 74.21875 37.203125 74.21875 
Q 40.921875 74.21875 44.703125 73.484375 
Q 48.484375 72.75 52.59375 71.296875 
" id="DejaVuSans-36"/>
      </defs>
      <g transform="translate(311.294643 320.44225)scale(0.2 -0.2)">
       <use xlink:href="#DejaVuSans-36"/>
      </g>
     </g>
    </g>
    <g id="xtick_5">
     <g id="line2d_9">
      <path clip-path="url(#p9c8d13e606)" d="M 399.942857 298.245375 
L 399.942857 32.133375 
" style="fill:none;stroke:#b0b0b0;stroke-linecap:square;stroke-width:0.8;"/>
     </g>
     <g id="line2d_10">
      <g>
       <use style="stroke:#000000;stroke-width:0.8;" x="399.942857" xlink:href="#m21d2d08fb1" y="298.245375"/>
      </g>
     </g>
     <g id="text_5">
      <!-- 8 -->
      <defs>
       <path d="M 31.78125 34.625 
Q 24.75 34.625 20.71875 30.859375 
Q 16.703125 27.09375 16.703125 20.515625 
Q 16.703125 13.921875 20.71875 10.15625 
Q 24.75 6.390625 31.78125 6.390625 
Q 38.8125 6.390625 42.859375 10.171875 
Q 46.921875 13.96875 46.921875 20.515625 
Q 46.921875 27.09375 42.890625 30.859375 
Q 38.875 34.625 31.78125 34.625 
M 21.921875 38.8125 
Q 15.578125 40.375 12.03125 44.71875 
Q 8.5 49.078125 8.5 55.328125 
Q 8.5 64.0625 14.71875 69.140625 
Q 20.953125 74.21875 31.78125 74.21875 
Q 42.671875 74.21875 48.875 69.140625 
Q 55.078125 64.0625 55.078125 55.328125 
Q 55.078125 49.078125 51.53125 44.71875 
Q 48 40.375 41.703125 38.8125 
Q 48.828125 37.15625 52.796875 32.3125 
Q 56.78125 27.484375 56.78125 20.515625 
Q 56.78125 9.90625 50.3125 4.234375 
Q 43.84375 -1.421875 31.78125 -1.421875 
Q 19.734375 -1.421875 13.25 4.234375 
Q 6.78125 9.90625 6.78125 20.515625 
Q 6.78125 27.484375 10.78125 32.3125 
Q 14.796875 37.15625 21.921875 38.8125 
M 18.3125 54.390625 
Q 18.3125 48.734375 21.84375 45.5625 
Q 25.390625 42.390625 31.78125 42.390625 
Q 38.140625 42.390625 41.71875 45.5625 
Q 45.3125 48.734375 45.3125 54.390625 
Q 45.3125 60.0625 41.71875 63.234375 
Q 38.140625 66.40625 31.78125 66.40625 
Q 25.390625 66.40625 21.84375 63.234375 
Q 18.3125 60.0625 18.3125 54.390625 
" id="DejaVuSans-38"/>
      </defs>
      <g transform="translate(393.580357 320.44225)scale(0.2 -0.2)">
       <use xlink:href="#DejaVuSans-38"/>
      </g>
     </g>
    </g>
    <g id="xtick_6">
     <g id="line2d_11">
      <defs>
       <path d="M 0 0 
L 0 2 
" id="m4382d8dd75" style="stroke:#000000;stroke-width:0.6;"/>
      </defs>
      <g>
       <use style="stroke:#000000;stroke-width:0.6;" x="83.185234" xlink:href="#m4382d8dd75" y="298.245375"/>
      </g>
     </g>
    </g>
    <g id="xtick_7">
     <g id="line2d_12">
      <g>
       <use style="stroke:#000000;stroke-width:0.6;" x="95.570468" xlink:href="#m4382d8dd75" y="298.245375"/>
      </g>
     </g>
    </g>
    <g id="xtick_8">
     <g id="line2d_13">
      <g>
       <use style="stroke:#000000;stroke-width:0.6;" x="102.815366" xlink:href="#m4382d8dd75" y="298.245375"/>
      </g>
     </g>
    </g>
    <g id="xtick_9">
     <g id="line2d_14">
      <g>
       <use style="stroke:#000000;stroke-width:0.6;" x="107.955702" xlink:href="#m4382d8dd75" y="298.245375"/>
      </g>
     </g>
    </g>
    <g id="xtick_10">
     <g id="line2d_15">
      <g>
       <use style="stroke:#000000;stroke-width:0.6;" x="165.470948" xlink:href="#m4382d8dd75" y="298.245375"/>
      </g>
     </g>
    </g>
    <g id="xtick_11">
     <g id="line2d_16">
      <g>
       <use style="stroke:#000000;stroke-width:0.6;" x="177.856183" xlink:href="#m4382d8dd75" y="298.245375"/>
      </g>
     </g>
    </g>
    <g id="xtick_12">
     <g id="line2d_17">
      <g>
       <use style="stroke:#000000;stroke-width:0.6;" x="185.10108" xlink:href="#m4382d8dd75" y="298.245375"/>
      </g>
     </g>
    </g>
    <g id="xtick_13">
     <g id="line2d_18">
      <g>
       <use style="stroke:#000000;stroke-width:0.6;" x="190.241417" xlink:href="#m4382d8dd75" y="298.245375"/>
      </g>
     </g>
    </g>
    <g id="xtick_14">
     <g id="line2d_19">
      <g>
       <use style="stroke:#000000;stroke-width:0.6;" x="247.756663" xlink:href="#m4382d8dd75" y="298.245375"/>
      </g>
     </g>
    </g>
    <g id="xtick_15">
     <g id="line2d_20">
      <g>
       <use style="stroke:#000000;stroke-width:0.6;" x="260.141897" xlink:href="#m4382d8dd75" y="298.245375"/>
      </g>
     </g>
    </g>
    <g id="xtick_16">
     <g id="line2d_21">
      <g>
       <use style="stroke:#000000;stroke-width:0.6;" x="267.386794" xlink:href="#m4382d8dd75" y="298.245375"/>
      </g>
     </g>
    </g>
    <g id="xtick_17">
     <g id="line2d_22">
      <g>
       <use style="stroke:#000000;stroke-width:0.6;" x="272.527131" xlink:href="#m4382d8dd75" y="298.245375"/>
      </g>
     </g>
    </g>
    <g id="xtick_18">
     <g id="line2d_23">
      <g>
       <use style="stroke:#000000;stroke-width:0.6;" x="330.042377" xlink:href="#m4382d8dd75" y="298.245375"/>
      </g>
     </g>
    </g>
    <g id="xtick_19">
     <g id="line2d_24">
      <g>
       <use style="stroke:#000000;stroke-width:0.6;" x="342.427611" xlink:href="#m4382d8dd75" y="298.245375"/>
      </g>
     </g>
    </g>
    <g id="xtick_20">
     <g id="line2d_25">
      <g>
       <use style="stroke:#000000;stroke-width:0.6;" x="349.672509" xlink:href="#m4382d8dd75" y="298.245375"/>
      </g>
     </g>
    </g>
    <g id="xtick_21">
     <g id="line2d_26">
      <g>
       <use style="stroke:#000000;stroke-width:0.6;" x="354.812845" xlink:href="#m4382d8dd75" y="298.245375"/>
      </g>
     </g>
    </g>
    <g id="xtick_22">
     <g id="line2d_27">
      <g>
       <use style="stroke:#000000;stroke-width:0.6;" x="412.328091" xlink:href="#m4382d8dd75" y="298.245375"/>
      </g>
     </g>
    </g>
    <g id="xtick_23">
     <g id="line2d_28">
      <g>
       <use style="stroke:#000000;stroke-width:0.6;" x="424.713325" xlink:href="#m4382d8dd75" y="298.245375"/>
      </g>
     </g>
    </g>
    <g id="text_6">
     <!-- log10 of (# f-evals / dimension) -->
     <defs>
      <path d="M 9.421875 75.984375 
L 18.40625 75.984375 
L 18.40625 0 
L 9.421875 0 
z
" id="DejaVuSans-6c"/>
      <path d="M 30.609375 48.390625 
Q 23.390625 48.390625 19.1875 42.75 
Q 14.984375 37.109375 14.984375 27.296875 
Q 14.984375 17.484375 19.15625 11.84375 
Q 23.34375 6.203125 30.609375 6.203125 
Q 37.796875 6.203125 41.984375 11.859375 
Q 46.1875 17.53125 46.1875 27.296875 
Q 46.1875 37.015625 41.984375 42.703125 
Q 37.796875 48.390625 30.609375 48.390625 
M 30.609375 56 
Q 42.328125 56 49.015625 48.375 
Q 55.71875 40.765625 55.71875 27.296875 
Q 55.71875 13.875 49.015625 6.21875 
Q 42.328125 -1.421875 30.609375 -1.421875 
Q 18.84375 -1.421875 12.171875 6.21875 
Q 5.515625 13.875 5.515625 27.296875 
Q 5.515625 40.765625 12.171875 48.375 
Q 18.84375 56 30.609375 56 
" id="DejaVuSans-6f"/>
      <path d="M 45.40625 27.984375 
Q 45.40625 37.75 41.375 43.109375 
Q 37.359375 48.484375 30.078125 48.484375 
Q 22.859375 48.484375 18.828125 43.109375 
Q 14.796875 37.75 14.796875 27.984375 
Q 14.796875 18.265625 18.828125 12.890625 
Q 22.859375 7.515625 30.078125 7.515625 
Q 37.359375 7.515625 41.375 12.890625 
Q 45.40625 18.265625 45.40625 27.984375 
M 54.390625 6.78125 
Q 54.390625 -7.171875 48.1875 -13.984375 
Q 42 -20.796875 29.203125 -20.796875 
Q 24.46875 -20.796875 20.265625 -20.09375 
Q 16.0625 -19.390625 12.109375 -17.921875 
L 12.109375 -9.1875 
Q 16.0625 -11.328125 19.921875 -12.34375 
Q 23.78125 -13.375 27.78125 -13.375 
Q 36.625 -13.375 41.015625 -8.765625 
Q 45.40625 -4.15625 45.40625 5.171875 
L 45.40625 9.625 
Q 42.625 4.78125 38.28125 2.390625 
Q 33.9375 0 27.875 0 
Q 17.828125 0 11.671875 7.65625 
Q 5.515625 15.328125 5.515625 27.984375 
Q 5.515625 40.671875 11.671875 48.328125 
Q 17.828125 56 27.875 56 
Q 33.9375 56 38.28125 53.609375 
Q 42.625 51.21875 45.40625 46.390625 
L 45.40625 54.6875 
L 54.390625 54.6875 
z
" id="DejaVuSans-67"/>
      <path d="M 12.40625 8.296875 
L 28.515625 8.296875 
L 28.515625 63.921875 
L 10.984375 60.40625 
L 10.984375 69.390625 
L 28.421875 72.90625 
L 38.28125 72.90625 
L 38.28125 8.296875 
L 54.390625 8.296875 
L 54.390625 0 
L 12.40625 0 
z
" id="DejaVuSans-31"/>
      <path id="DejaVuSans-20"/>
      <path d="M 37.109375 75.984375 
L 37.109375 68.5 
L 28.515625 68.5 
Q 23.6875 68.5 21.796875 66.546875 
Q 19.921875 64.59375 19.921875 59.515625 
L 19.921875 54.6875 
L 34.71875 54.6875 
L 34.71875 47.703125 
L 19.921875 47.703125 
L 19.921875 0 
L 10.890625 0 
L 10.890625 47.703125 
L 2.296875 47.703125 
L 2.296875 54.6875 
L 10.890625 54.6875 
L 10.890625 58.5 
Q 10.890625 67.625 15.140625 71.796875 
Q 19.390625 75.984375 28.609375 75.984375 
z
" id="DejaVuSans-66"/>
      <path d="M 31 75.875 
Q 24.46875 64.65625 21.28125 53.65625 
Q 18.109375 42.671875 18.109375 31.390625 
Q 18.109375 20.125 21.3125 9.0625 
Q 24.515625 -2 31 -13.1875 
L 23.1875 -13.1875 
Q 15.875 -1.703125 12.234375 9.375 
Q 8.59375 20.453125 8.59375 31.390625 
Q 8.59375 42.28125 12.203125 53.3125 
Q 15.828125 64.359375 23.1875 75.875 
z
" id="DejaVuSans-28"/>
      <path d="M 51.125 44 
L 36.921875 44 
L 32.8125 27.6875 
L 47.125 27.6875 
z
M 43.796875 71.78125 
L 38.71875 51.515625 
L 52.984375 51.515625 
L 58.109375 71.78125 
L 65.921875 71.78125 
L 60.890625 51.515625 
L 76.125 51.515625 
L 76.125 44 
L 58.984375 44 
L 54.984375 27.6875 
L 70.515625 27.6875 
L 70.515625 20.21875 
L 53.078125 20.21875 
L 48 0 
L 40.1875 0 
L 45.21875 20.21875 
L 30.90625 20.21875 
L 25.875 0 
L 18.015625 0 
L 23.09375 20.21875 
L 7.71875 20.21875 
L 7.71875 27.6875 
L 24.90625 27.6875 
L 29 44 
L 13.28125 44 
L 13.28125 51.515625 
L 30.90625 51.515625 
L 35.890625 71.78125 
z
" id="DejaVuSans-23"/>
      <path d="M 4.890625 31.390625 
L 31.203125 31.390625 
L 31.203125 23.390625 
L 4.890625 23.390625 
z
" id="DejaVuSans-2d"/>
      <path d="M 56.203125 29.59375 
L 56.203125 25.203125 
L 14.890625 25.203125 
Q 15.484375 15.921875 20.484375 11.0625 
Q 25.484375 6.203125 34.421875 6.203125 
Q 39.59375 6.203125 44.453125 7.46875 
Q 49.3125 8.734375 54.109375 11.28125 
L 54.109375 2.78125 
Q 49.265625 0.734375 44.1875 -0.34375 
Q 39.109375 -1.421875 33.890625 -1.421875 
Q 20.796875 -1.421875 13.15625 6.1875 
Q 5.515625 13.8125 5.515625 26.8125 
Q 5.515625 40.234375 12.765625 48.109375 
Q 20.015625 56 32.328125 56 
Q 43.359375 56 49.78125 48.890625 
Q 56.203125 41.796875 56.203125 29.59375 
M 47.21875 32.234375 
Q 47.125 39.59375 43.09375 43.984375 
Q 39.0625 48.390625 32.421875 48.390625 
Q 24.90625 48.390625 20.390625 44.140625 
Q 15.875 39.890625 15.1875 32.171875 
z
" id="DejaVuSans-65"/>
      <path d="M 2.984375 54.6875 
L 12.5 54.6875 
L 29.59375 8.796875 
L 46.6875 54.6875 
L 56.203125 54.6875 
L 35.6875 0 
L 23.484375 0 
z
" id="DejaVuSans-76"/>
      <path d="M 34.28125 27.484375 
Q 23.390625 27.484375 19.1875 25 
Q 14.984375 22.515625 14.984375 16.5 
Q 14.984375 11.71875 18.140625 8.90625 
Q 21.296875 6.109375 26.703125 6.109375 
Q 34.1875 6.109375 38.703125 11.40625 
Q 43.21875 16.703125 43.21875 25.484375 
L 43.21875 27.484375 
z
M 52.203125 31.203125 
L 52.203125 0 
L 43.21875 0 
L 43.21875 8.296875 
Q 40.140625 3.328125 35.546875 0.953125 
Q 30.953125 -1.421875 24.3125 -1.421875 
Q 15.921875 -1.421875 10.953125 3.296875 
Q 6 8.015625 6 15.921875 
Q 6 25.140625 12.171875 29.828125 
Q 18.359375 34.515625 30.609375 34.515625 
L 43.21875 34.515625 
L 43.21875 35.40625 
Q 43.21875 41.609375 39.140625 45 
Q 35.0625 48.390625 27.6875 48.390625 
Q 23 48.390625 18.546875 47.265625 
Q 14.109375 46.140625 10.015625 43.890625 
L 10.015625 52.203125 
Q 14.9375 54.109375 19.578125 55.046875 
Q 24.21875 56 28.609375 56 
Q 40.484375 56 46.34375 49.84375 
Q 52.203125 43.703125 52.203125 31.203125 
" id="DejaVuSans-61"/>
      <path d="M 44.28125 53.078125 
L 44.28125 44.578125 
Q 40.484375 46.53125 36.375 47.5 
Q 32.28125 48.484375 27.875 48.484375 
Q 21.1875 48.484375 17.84375 46.4375 
Q 14.5 44.390625 14.5 40.28125 
Q 14.5 37.15625 16.890625 35.375 
Q 19.28125 33.59375 26.515625 31.984375 
L 29.59375 31.296875 
Q 39.15625 29.25 43.1875 25.515625 
Q 47.21875 21.78125 47.21875 15.09375 
Q 47.21875 7.46875 41.1875 3.015625 
Q 35.15625 -1.421875 24.609375 -1.421875 
Q 20.21875 -1.421875 15.453125 -0.5625 
Q 10.6875 0.296875 5.421875 2 
L 5.421875 11.28125 
Q 10.40625 8.6875 15.234375 7.390625 
Q 20.0625 6.109375 24.8125 6.109375 
Q 31.15625 6.109375 34.5625 8.28125 
Q 37.984375 10.453125 37.984375 14.40625 
Q 37.984375 18.0625 35.515625 20.015625 
Q 33.0625 21.96875 24.703125 23.78125 
L 21.578125 24.515625 
Q 13.234375 26.265625 9.515625 29.90625 
Q 5.8125 33.546875 5.8125 39.890625 
Q 5.8125 47.609375 11.28125 51.796875 
Q 16.75 56 26.8125 56 
Q 31.78125 56 36.171875 55.265625 
Q 40.578125 54.546875 44.28125 53.078125 
" id="DejaVuSans-73"/>
      <path d="M 25.390625 72.90625 
L 33.6875 72.90625 
L 8.296875 -9.28125 
L 0 -9.28125 
z
" id="DejaVuSans-2f"/>
      <path d="M 45.40625 46.390625 
L 45.40625 75.984375 
L 54.390625 75.984375 
L 54.390625 0 
L 45.40625 0 
L 45.40625 8.203125 
Q 42.578125 3.328125 38.25 0.953125 
Q 33.9375 -1.421875 27.875 -1.421875 
Q 17.96875 -1.421875 11.734375 6.484375 
Q 5.515625 14.40625 5.515625 27.296875 
Q 5.515625 40.1875 11.734375 48.09375 
Q 17.96875 56 27.875 56 
Q 33.9375 56 38.25 53.625 
Q 42.578125 51.265625 45.40625 46.390625 
M 14.796875 27.296875 
Q 14.796875 17.390625 18.875 11.75 
Q 22.953125 6.109375 30.078125 6.109375 
Q 37.203125 6.109375 41.296875 11.75 
Q 45.40625 17.390625 45.40625 27.296875 
Q 45.40625 37.203125 41.296875 42.84375 
Q 37.203125 48.484375 30.078125 48.484375 
Q 22.953125 48.484375 18.875 42.84375 
Q 14.796875 37.203125 14.796875 27.296875 
" id="DejaVuSans-64"/>
      <path d="M 9.421875 54.6875 
L 18.40625 54.6875 
L 18.40625 0 
L 9.421875 0 
z
M 9.421875 75.984375 
L 18.40625 75.984375 
L 18.40625 64.59375 
L 9.421875 64.59375 
z
" id="DejaVuSans-69"/>
      <path d="M 52 44.1875 
Q 55.375 50.25 60.0625 53.125 
Q 64.75 56 71.09375 56 
Q 79.640625 56 84.28125 50.015625 
Q 88.921875 44.046875 88.921875 33.015625 
L 88.921875 0 
L 79.890625 0 
L 79.890625 32.71875 
Q 79.890625 40.578125 77.09375 44.375 
Q 74.3125 48.1875 68.609375 48.1875 
Q 61.625 48.1875 57.5625 43.546875 
Q 53.515625 38.921875 53.515625 30.90625 
L 53.515625 0 
L 44.484375 0 
L 44.484375 32.71875 
Q 44.484375 40.625 41.703125 44.40625 
Q 38.921875 48.1875 33.109375 48.1875 
Q 26.21875 48.1875 22.15625 43.53125 
Q 18.109375 38.875 18.109375 30.90625 
L 18.109375 0 
L 9.078125 0 
L 9.078125 54.6875 
L 18.109375 54.6875 
L 18.109375 46.1875 
Q 21.1875 51.21875 25.484375 53.609375 
Q 29.78125 56 35.6875 56 
Q 41.65625 56 45.828125 52.96875 
Q 50 49.953125 52 44.1875 
" id="DejaVuSans-6d"/>
      <path d="M 54.890625 33.015625 
L 54.890625 0 
L 45.90625 0 
L 45.90625 32.71875 
Q 45.90625 40.484375 42.875 44.328125 
Q 39.84375 48.1875 33.796875 48.1875 
Q 26.515625 48.1875 22.3125 43.546875 
Q 18.109375 38.921875 18.109375 30.90625 
L 18.109375 0 
L 9.078125 0 
L 9.078125 54.6875 
L 18.109375 54.6875 
L 18.109375 46.1875 
Q 21.34375 51.125 25.703125 53.5625 
Q 30.078125 56 35.796875 56 
Q 45.21875 56 50.046875 50.171875 
Q 54.890625 44.34375 54.890625 33.015625 
" id="DejaVuSans-6e"/>
      <path d="M 8.015625 75.875 
L 15.828125 75.875 
Q 23.140625 64.359375 26.78125 53.3125 
Q 30.421875 42.28125 30.421875 31.390625 
Q 30.421875 20.453125 26.78125 9.375 
Q 23.140625 -1.703125 15.828125 -13.1875 
L 8.015625 -13.1875 
Q 14.5 -2 17.703125 9.0625 
Q 20.90625 20.125 20.90625 31.390625 
Q 20.90625 42.671875 17.703125 53.65625 
Q 14.5 64.65625 8.015625 75.875 
" id="DejaVuSans-29"/>
     </defs>
     <g transform="translate(107.015156 342.278812)scale(0.18 -0.18)">
      <use xlink:href="#DejaVuSans-6c"/>
      <use x="27.783203" xlink:href="#DejaVuSans-6f"/>
      <use x="88.964844" xlink:href="#DejaVuSans-67"/>
      <use x="152.441406" xlink:href="#DejaVuSans-31"/>
      <use x="216.064453" xlink:href="#DejaVuSans-30"/>
      <use x="279.6875" xlink:href="#DejaVuSans-20"/>
      <use x="311.474609" xlink:href="#DejaVuSans-6f"/>
      <use x="372.65625" xlink:href="#DejaVuSans-66"/>
      <use x="407.861328" xlink:href="#DejaVuSans-20"/>
      <use x="439.648438" xlink:href="#DejaVuSans-28"/>
      <use x="478.662109" xlink:href="#DejaVuSans-23"/>
      <use x="562.451172" xlink:href="#DejaVuSans-20"/>
      <use x="594.238281" xlink:href="#DejaVuSans-66"/>
      <use x="629.365234" xlink:href="#DejaVuSans-2d"/>
      <use x="665.449219" xlink:href="#DejaVuSans-65"/>
      <use x="726.972656" xlink:href="#DejaVuSans-76"/>
      <use x="786.152344" xlink:href="#DejaVuSans-61"/>
      <use x="847.431641" xlink:href="#DejaVuSans-6c"/>
      <use x="875.214844" xlink:href="#DejaVuSans-73"/>
      <use x="927.314453" xlink:href="#DejaVuSans-20"/>
      <use x="959.101562" xlink:href="#DejaVuSans-2f"/>
      <use x="992.792969" xlink:href="#DejaVuSans-20"/>
      <use x="1024.580078" xlink:href="#DejaVuSans-64"/>
      <use x="1088.056641" xlink:href="#DejaVuSans-69"/>
      <use x="1115.839844" xlink:href="#DejaVuSans-6d"/>
      <use x="1213.251953" xlink:href="#DejaVuSans-65"/>
      <use x="1274.775391" xlink:href="#DejaVuSans-6e"/>
      <use x="1338.154297" xlink:href="#DejaVuSans-73"/>
      <use x="1390.253906" xlink:href="#DejaVuSans-69"/>
      <use x="1418.037109" xlink:href="#DejaVuSans-6f"/>
      <use x="1479.21875" xlink:href="#DejaVuSans-6e"/>
      <use x="1542.597656" xlink:href="#DejaVuSans-29"/>
     </g>
    </g>
   </g>
   <g id="matplotlib.axis_2">
    <g id="ytick_1">
     <g id="line2d_29">
      <path clip-path="url(#p9c8d13e606)" d="M 70.8 298.245375 
L 427.92 298.245375 
" style="fill:none;stroke:#b0b0b0;stroke-linecap:square;stroke-width:0.8;"/>
     </g>
     <g id="line2d_30">
      <defs>
       <path d="M 0 0 
L -3.5 0 
" id="mbcbf34fc1a" style="stroke:#000000;stroke-width:0.8;"/>
      </defs>
      <g>
       <use style="stroke:#000000;stroke-width:0.8;" x="70.8" xlink:href="#mbcbf34fc1a" y="298.245375"/>
      </g>
     </g>
     <g id="text_7">
      <!-- 0.0 -->
      <defs>
       <path d="M 10.6875 12.40625 
L 21 12.40625 
L 21 0 
L 10.6875 0 
z
" id="DejaVuSans-2e"/>
      </defs>
      <g transform="translate(31.99375 305.843812)scale(0.2 -0.2)">
       <use xlink:href="#DejaVuSans-30"/>
       <use x="63.623047" xlink:href="#DejaVuSans-2e"/>
       <use x="95.410156" xlink:href="#DejaVuSans-30"/>
      </g>
     </g>
    </g>
    <g id="ytick_2">
     <g id="line2d_31">
      <path clip-path="url(#p9c8d13e606)" d="M 70.8 245.549929 
L 427.92 245.549929 
" style="fill:none;stroke:#b0b0b0;stroke-linecap:square;stroke-width:0.8;"/>
     </g>
     <g id="line2d_32">
      <g>
       <use style="stroke:#000000;stroke-width:0.8;" x="70.8" xlink:href="#mbcbf34fc1a" y="245.549929"/>
      </g>
     </g>
     <g id="text_8">
      <!-- 0.2 -->
      <g transform="translate(31.99375 253.148367)scale(0.2 -0.2)">
       <use xlink:href="#DejaVuSans-30"/>
       <use x="63.623047" xlink:href="#DejaVuSans-2e"/>
       <use x="95.410156" xlink:href="#DejaVuSans-32"/>
      </g>
     </g>
    </g>
    <g id="ytick_3">
     <g id="line2d_33">
      <path clip-path="url(#p9c8d13e606)" d="M 70.8 192.854484 
L 427.92 192.854484 
" style="fill:none;stroke:#b0b0b0;stroke-linecap:square;stroke-width:0.8;"/>
     </g>
     <g id="line2d_34">
      <g>
       <use style="stroke:#000000;stroke-width:0.8;" x="70.8" xlink:href="#mbcbf34fc1a" y="192.854484"/>
      </g>
     </g>
     <g id="text_9">
      <!-- 0.4 -->
      <g transform="translate(31.99375 200.452921)scale(0.2 -0.2)">
       <use xlink:href="#DejaVuSans-30"/>
       <use x="63.623047" xlink:href="#DejaVuSans-2e"/>
       <use x="95.410156" xlink:href="#DejaVuSans-34"/>
      </g>
     </g>
    </g>
    <g id="ytick_4">
     <g id="line2d_35">
      <path clip-path="url(#p9c8d13e606)" d="M 70.8 140.159038 
L 427.92 140.159038 
" style="fill:none;stroke:#b0b0b0;stroke-linecap:square;stroke-width:0.8;"/>
     </g>
     <g id="line2d_36">
      <g>
       <use style="stroke:#000000;stroke-width:0.8;" x="70.8" xlink:href="#mbcbf34fc1a" y="140.159038"/>
      </g>
     </g>
     <g id="text_10">
      <!-- 0.6 -->
      <g transform="translate(31.99375 147.757476)scale(0.2 -0.2)">
       <use xlink:href="#DejaVuSans-30"/>
       <use x="63.623047" xlink:href="#DejaVuSans-2e"/>
       <use x="95.410156" xlink:href="#DejaVuSans-36"/>
      </g>
     </g>
    </g>
    <g id="ytick_5">
     <g id="line2d_37">
      <path clip-path="url(#p9c8d13e606)" d="M 70.8 87.463593 
L 427.92 87.463593 
" style="fill:none;stroke:#b0b0b0;stroke-linecap:square;stroke-width:0.8;"/>
     </g>
     <g id="line2d_38">
      <g>
       <use style="stroke:#000000;stroke-width:0.8;" x="70.8" xlink:href="#mbcbf34fc1a" y="87.463593"/>
      </g>
     </g>
     <g id="text_11">
      <!-- 0.8 -->
      <g transform="translate(31.99375 95.06203)scale(0.2 -0.2)">
       <use xlink:href="#DejaVuSans-30"/>
       <use x="63.623047" xlink:href="#DejaVuSans-2e"/>
       <use x="95.410156" xlink:href="#DejaVuSans-38"/>
      </g>
     </g>
    </g>
    <g id="ytick_6">
     <g id="line2d_39">
      <path clip-path="url(#p9c8d13e606)" d="M 70.8 34.768147 
L 427.92 34.768147 
" style="fill:none;stroke:#b0b0b0;stroke-linecap:square;stroke-width:0.8;"/>
     </g>
     <g id="line2d_40">
      <g>
       <use style="stroke:#000000;stroke-width:0.8;" x="70.8" xlink:href="#mbcbf34fc1a" y="34.768147"/>
      </g>
     </g>
     <g id="text_12">
      <!-- 1.0 -->
      <g transform="translate(31.99375 42.366585)scale(0.2 -0.2)">
       <use xlink:href="#DejaVuSans-31"/>
       <use x="63.623047" xlink:href="#DejaVuSans-2e"/>
       <use x="95.410156" xlink:href="#DejaVuSans-30"/>
      </g>
     </g>
    </g>
    <g id="text_13">
     <!-- Proportion of function+target pairs -->
     <defs>
      <path d="M 19.671875 64.796875 
L 19.671875 37.40625 
L 32.078125 37.40625 
Q 38.96875 37.40625 42.71875 40.96875 
Q 46.484375 44.53125 46.484375 51.125 
Q 46.484375 57.671875 42.71875 61.234375 
Q 38.96875 64.796875 32.078125 64.796875 
z
M 9.8125 72.90625 
L 32.078125 72.90625 
Q 44.34375 72.90625 50.609375 67.359375 
Q 56.890625 61.8125 56.890625 51.125 
Q 56.890625 40.328125 50.609375 34.8125 
Q 44.34375 29.296875 32.078125 29.296875 
L 19.671875 29.296875 
L 19.671875 0 
L 9.8125 0 
z
" id="DejaVuSans-50"/>
      <path d="M 41.109375 46.296875 
Q 39.59375 47.171875 37.8125 47.578125 
Q 36.03125 48 33.890625 48 
Q 26.265625 48 22.1875 43.046875 
Q 18.109375 38.09375 18.109375 28.8125 
L 18.109375 0 
L 9.078125 0 
L 9.078125 54.6875 
L 18.109375 54.6875 
L 18.109375 46.1875 
Q 20.953125 51.171875 25.484375 53.578125 
Q 30.03125 56 36.53125 56 
Q 37.453125 56 38.578125 55.875 
Q 39.703125 55.765625 41.0625 55.515625 
z
" id="DejaVuSans-72"/>
      <path d="M 18.109375 8.203125 
L 18.109375 -20.796875 
L 9.078125 -20.796875 
L 9.078125 54.6875 
L 18.109375 54.6875 
L 18.109375 46.390625 
Q 20.953125 51.265625 25.265625 53.625 
Q 29.59375 56 35.59375 56 
Q 45.5625 56 51.78125 48.09375 
Q 58.015625 40.1875 58.015625 27.296875 
Q 58.015625 14.40625 51.78125 6.484375 
Q 45.5625 -1.421875 35.59375 -1.421875 
Q 29.59375 -1.421875 25.265625 0.953125 
Q 20.953125 3.328125 18.109375 8.203125 
M 48.6875 27.296875 
Q 48.6875 37.203125 44.609375 42.84375 
Q 40.53125 48.484375 33.40625 48.484375 
Q 26.265625 48.484375 22.1875 42.84375 
Q 18.109375 37.203125 18.109375 27.296875 
Q 18.109375 17.390625 22.1875 11.75 
Q 26.265625 6.109375 33.40625 6.109375 
Q 40.53125 6.109375 44.609375 11.75 
Q 48.6875 17.390625 48.6875 27.296875 
" id="DejaVuSans-70"/>
      <path d="M 18.3125 70.21875 
L 18.3125 54.6875 
L 36.8125 54.6875 
L 36.8125 47.703125 
L 18.3125 47.703125 
L 18.3125 18.015625 
Q 18.3125 11.328125 20.140625 9.421875 
Q 21.96875 7.515625 27.59375 7.515625 
L 36.8125 7.515625 
L 36.8125 0 
L 27.59375 0 
Q 17.1875 0 13.234375 3.875 
Q 9.28125 7.765625 9.28125 18.015625 
L 9.28125 47.703125 
L 2.6875 47.703125 
L 2.6875 54.6875 
L 9.28125 54.6875 
L 9.28125 70.21875 
z
" id="DejaVuSans-74"/>
      <path d="M 8.5 21.578125 
L 8.5 54.6875 
L 17.484375 54.6875 
L 17.484375 21.921875 
Q 17.484375 14.15625 20.5 10.265625 
Q 23.53125 6.390625 29.59375 6.390625 
Q 36.859375 6.390625 41.078125 11.03125 
Q 45.3125 15.671875 45.3125 23.6875 
L 45.3125 54.6875 
L 54.296875 54.6875 
L 54.296875 0 
L 45.3125 0 
L 45.3125 8.40625 
Q 42.046875 3.421875 37.71875 1 
Q 33.40625 -1.421875 27.6875 -1.421875 
Q 18.265625 -1.421875 13.375 4.4375 
Q 8.5 10.296875 8.5 21.578125 
M 31.109375 56 
z
" id="DejaVuSans-75"/>
      <path d="M 48.78125 52.59375 
L 48.78125 44.1875 
Q 44.96875 46.296875 41.140625 47.34375 
Q 37.3125 48.390625 33.40625 48.390625 
Q 24.65625 48.390625 19.8125 42.84375 
Q 14.984375 37.3125 14.984375 27.296875 
Q 14.984375 17.28125 19.8125 11.734375 
Q 24.65625 6.203125 33.40625 6.203125 
Q 37.3125 6.203125 41.140625 7.25 
Q 44.96875 8.296875 48.78125 10.40625 
L 48.78125 2.09375 
Q 45.015625 0.34375 40.984375 -0.53125 
Q 36.96875 -1.421875 32.421875 -1.421875 
Q 20.0625 -1.421875 12.78125 6.34375 
Q 5.515625 14.109375 5.515625 27.296875 
Q 5.515625 40.671875 12.859375 48.328125 
Q 20.21875 56 33.015625 56 
Q 37.15625 56 41.109375 55.140625 
Q 45.0625 54.296875 48.78125 52.59375 
" id="DejaVuSans-63"/>
      <path d="M 46 62.703125 
L 46 35.5 
L 73.1875 35.5 
L 73.1875 27.203125 
L 46 27.203125 
L 46 0 
L 37.796875 0 
L 37.796875 27.203125 
L 10.59375 27.203125 
L 10.59375 35.5 
L 37.796875 35.5 
L 37.796875 62.703125 
z
" id="DejaVuSans-2b"/>
     </defs>
     <g transform="translate(24.250312 323.17875)rotate(-90)scale(0.18 -0.18)">
      <use xlink:href="#DejaVuSans-50"/>
      <use x="60.287109" xlink:href="#DejaVuSans-72"/>
      <use x="101.369141" xlink:href="#DejaVuSans-6f"/>
      <use x="162.550781" xlink:href="#DejaVuSans-70"/>
      <use x="226.027344" xlink:href="#DejaVuSans-6f"/>
      <use x="287.208984" xlink:href="#DejaVuSans-72"/>
      <use x="328.322266" xlink:href="#DejaVuSans-74"/>
      <use x="367.53125" xlink:href="#DejaVuSans-69"/>
      <use x="395.314453" xlink:href="#DejaVuSans-6f"/>
      <use x="456.496094" xlink:href="#DejaVuSans-6e"/>
      <use x="519.875" xlink:href="#DejaVuSans-20"/>
      <use x="551.662109" xlink:href="#DejaVuSans-6f"/>
      <use x="612.84375" xlink:href="#DejaVuSans-66"/>
      <use x="648.048828" xlink:href="#DejaVuSans-20"/>
      <use x="679.835938" xlink:href="#DejaVuSans-66"/>
      <use x="715.041016" xlink:href="#DejaVuSans-75"/>
      <use x="778.419922" xlink:href="#DejaVuSans-6e"/>
      <use x="841.798828" xlink:href="#DejaVuSans-63"/>
      <use x="896.779297" xlink:href="#DejaVuSans-74"/>
      <use x="935.988281" xlink:href="#DejaVuSans-69"/>
      <use x="963.771484" xlink:href="#DejaVuSans-6f"/>
      <use x="1024.953125" xlink:href="#DejaVuSans-6e"/>
      <use x="1088.332031" xlink:href="#DejaVuSans-2b"/>
      <use x="1172.121094" xlink:href="#DejaVuSans-74"/>
      <use x="1211.330078" xlink:href="#DejaVuSans-61"/>
      <use x="1272.609375" xlink:href="#DejaVuSans-72"/>
      <use x="1313.707031" xlink:href="#DejaVuSans-67"/>
      <use x="1377.183594" xlink:href="#DejaVuSans-65"/>
      <use x="1438.707031" xlink:href="#DejaVuSans-74"/>
      <use x="1477.916016" xlink:href="#DejaVuSans-20"/>
      <use x="1509.703125" xlink:href="#DejaVuSans-70"/>
      <use x="1573.179688" xlink:href="#DejaVuSans-61"/>
      <use x="1634.458984" xlink:href="#DejaVuSans-69"/>
      <use x="1662.242188" xlink:href="#DejaVuSans-72"/>
      <use x="1703.355469" xlink:href="#DejaVuSans-73"/>
     </g>
    </g>
   </g>
   <g id="line2d_41">
    <defs>
     <path d="M 0 1.5 
C 0.397805 1.5 0.77937 1.341951 1.06066 1.06066 
C 1.341951 0.77937 1.5 0.397805 1.5 0 
C 1.5 -0.397805 1.341951 -0.77937 1.06066 -1.06066 
C 0.77937 -1.341951 0.397805 -1.5 0 -1.5 
C -0.397805 -1.5 -0.77937 -1.341951 -1.06066 -1.06066 
C -1.341951 -0.77937 -1.5 -0.397805 -1.5 0 
C -1.5 0.397805 -1.341951 0.77937 -1.06066 1.06066 
C -0.77937 1.341951 -0.397805 1.5 0 1.5 
z
" id="m0a92efea35" style="stroke:#000080;"/>
    </defs>
    <g>
     <use style="fill:#000080;stroke:#000080;" x="238.904736" xlink:href="#m0a92efea35" y="127.76011"/>
     <use style="fill:#000080;stroke:#000080;" x="238.904736" xlink:href="#m0a92efea35" y="127.76011"/>
    </g>
   </g>
   <g id="line2d_42">
    <path d="M 58.414766 298.245375 
L 58.414766 281.713471 
L 70.8 281.713471 
L 70.8 277.580494 
L 78.044898 277.580494 
L 78.044898 277.063872 
L 83.185234 277.063872 
L 83.185234 276.54725 
L 87.172389 276.54725 
L 87.172389 274.997384 
L 99.557623 274.997384 
L 99.557623 273.447518 
L 105.569748 273.447518 
L 105.569748 272.930896 
L 110.060263 272.930896 
L 110.060263 272.414274 
L 111.026343 272.414274 
L 111.026343 270.864408 
L 113.64587 270.864408 
L 113.64587 270.347786 
L 116.630812 270.347786 
L 116.630812 268.79792 
L 117.305161 268.79792 
L 117.305161 267.764676 
L 120.340936 267.764676 
L 120.340936 267.248054 
L 121.424184 267.248054 
L 121.424184 266.731432 
L 122.445497 266.731432 
L 122.445497 266.21481 
L 123.87571 266.21481 
L 123.87571 265.698188 
L 128.315246 265.698188 
L 128.315246 264.148322 
L 129.016046 264.148322 
L 129.016046 262.598456 
L 129.690395 262.598456 
L 129.690395 262.081834 
L 130.340216 262.081834 
L 130.340216 261.565212 
L 130.967232 261.565212 
L 130.967232 261.04859 
L 132.158881 261.04859 
L 132.158881 260.015346 
L 132.444777 260.015346 
L 132.444777 259.498724 
L 136.935292 259.498724 
L 136.935292 257.948858 
L 138.817886 257.948858 
L 138.817886 256.915614 
L 139.594883 256.915614 
L 139.594883 256.398992 
L 141.054316 256.398992 
L 141.054316 254.332504 
L 141.22864 254.332504 
L 141.22864 252.782638 
L 142.565197 252.782638 
L 142.565197 251.232772 
L 142.72545 251.232772 
L 142.72545 250.199528 
L 143.197763 250.199528 
L 143.197763 249.166284 
L 144.106507 249.166284 
L 144.106507 248.649662 
L 145.796091 248.649662 
L 145.796091 248.13304 
L 146.062784 248.13304 
L 146.062784 247.099796 
L 146.455505 247.099796 
L 146.455505 246.066551 
L 146.839781 246.066551 
L 146.839781 244.516685 
L 147.584393 244.516685 
L 147.584393 243.483441 
L 147.705534 243.483441 
L 147.705534 242.450197 
L 148.53127 242.450197 
L 148.53127 241.933575 
L 148.8738 241.933575 
L 148.8738 241.416953 
L 151.103576 241.416953 
L 151.103576 240.900331 
L 151.980117 240.900331 
L 151.980117 240.383709 
L 153.43955 240.383709 
L 153.43955 239.350465 
L 154.042387 239.350465 
L 154.042387 238.317221 
L 154.543395 238.317221 
L 154.543395 237.800599 
L 155.967272 237.800599 
L 155.967272 237.283977 
L 156.193932 237.283977 
L 156.193932 236.250733 
L 157.356496 236.250733 
L 157.356496 235.734111 
L 158.181325 235.734111 
L 158.181325 235.217489 
L 158.315169 235.217489 
L 158.315169 234.184245 
L 159.097839 234.184245 
L 159.097839 233.151001 
L 160.508405 233.151001 
L 160.508405 231.084513 
L 161.650527 231.084513 
L 161.650527 230.567891 
L 162.14159 230.567891 
L 162.14159 229.534647 
L 163.237497 229.534647 
L 163.338447 227.468159 
L 165.018567 227.468159 
L 165.018567 226.951537 
L 168.04575 226.951537 
L 168.04575 226.434915 
L 169.529433 226.434915 
L 169.529433 225.918293 
L 170.766951 225.918293 
L 170.766951 225.401671 
L 170.932245 225.401671 
L 170.932245 223.851805 
L 171.161117 223.851805 
L 171.161117 222.818561 
L 171.736526 222.818561 
L 171.736526 221.268695 
L 171.861917 221.268695 
L 171.861917 220.235451 
L 172.079255 220.235451 
L 172.079255 219.718829 
L 172.263464 219.718829 
L 172.354862 218.168963 
L 172.834571 218.168963 
L 172.834571 217.652341 
L 173.040461 217.652341 
L 173.040461 216.619097 
L 173.21507 216.619097 
L 173.244006 215.069231 
L 173.728885 215.069231 
L 173.813102 214.035987 
L 174.090995 214.035987 
L 174.090995 213.519365 
L 174.899645 213.519365 
L 174.952275 212.48612 
L 175.546642 212.48612 
L 175.546642 210.419632 
L 176.047884 210.419632 
L 176.047884 209.90301 
L 177.608791 209.90301 
L 177.608791 209.386388 
L 180.020205 209.386388 
L 180.020205 208.869766 
L 180.295104 208.869766 
L 180.295104 208.353144 
L 180.794676 208.353144 
L 180.889166 206.803278 
L 180.926823 206.803278 
L 180.926823 205.770034 
L 181.076661 205.770034 
L 181.076661 205.253412 
L 181.335892 205.253412 
L 181.335892 204.73679 
L 181.464111 204.73679 
L 181.464111 204.220168 
L 181.645699 204.220168 
L 181.645699 203.703546 
L 182.162103 203.703546 
L 182.162103 202.670302 
L 182.336768 202.670302 
L 182.336768 202.15368 
L 182.681059 202.15368 
L 182.681059 201.637058 
L 183.595016 201.637058 
L 183.595016 201.120436 
L 184.058733 201.120436 
L 184.058733 200.603814 
L 184.694456 200.603814 
L 184.694456 199.053948 
L 184.951555 199.053948 
L 184.951555 198.537326 
L 186.001208 198.537326 
L 186.001208 198.020704 
L 187.205641 198.020704 
L 187.205641 197.504082 
L 187.416166 197.504082 
L 187.494478 196.470838 
L 187.89371 196.470838 
L 187.995306 194.920972 
L 188.083731 194.920972 
L 188.083731 194.40435 
L 188.296673 194.40435 
L 188.296673 193.887728 
L 188.56853 193.887728 
L 188.678564 192.337862 
L 188.848391 192.337862 
L 188.848391 191.82124 
L 189.123935 191.82124 
L 189.123935 191.304618 
L 189.360133 191.304618 
L 189.465412 189.754752 
L 189.731674 189.754752 
L 189.731674 189.23813 
L 189.937319 189.23813 
L 189.937319 188.204886 
L 190.118149 188.204886 
L 190.118149 187.688264 
L 191.668192 187.688264 
L 191.771001 186.65502 
L 192.065845 186.65502 
L 192.065845 186.138398 
L 192.196453 186.138398 
L 192.196453 185.621776 
L 192.454839 185.621776 
L 192.523771 184.588532 
L 192.816218 184.588532 
L 192.874138 183.555288 
L 193.103956 183.555288 
L 193.122975 182.522044 
L 193.340247 182.522044 
L 193.340247 181.4888 
L 193.803658 181.4888 
L 193.821947 180.455556 
L 193.985709 180.455556 
L 193.985709 179.938934 
L 195.462535 179.938934 
L 195.495856 178.90569 
L 195.760206 178.90569 
L 195.84202 177.355823 
L 195.955934 177.355823 
L 195.955934 176.839201 
L 196.077184 176.839201 
L 196.077184 176.322579 
L 196.237581 176.322579 
L 196.237581 175.805957 
L 196.475509 175.805957 
L 196.475509 175.289335 
L 196.97274 175.289335 
L 196.97274 174.772713 
L 198.625531 174.772713 
L 198.625531 174.256091 
L 199.283832 174.256091 
L 199.304018 173.222847 
L 199.590875 173.222847 
L 199.610717 171.672981 
L 200.170362 171.672981 
L 200.176767 170.123115 
L 201.130708 170.123115 
L 201.154977 169.089871 
L 201.538866 169.089871 
L 201.538866 168.573249 
L 202.076645 168.573249 
L 202.076645 167.540005 
L 202.191442 167.540005 
L 202.191442 167.023383 
L 202.362266 167.023383 
L 202.362266 166.506761 
L 202.475249 166.506761 
L 202.475249 165.990139 
L 203.407805 165.990139 
L 203.407805 165.473517 
L 203.630894 165.473517 
L 203.630894 164.956895 
L 203.96039 164.956895 
L 203.96039 164.440273 
L 204.125455 164.440273 
L 204.227851 163.407029 
L 204.506453 163.407029 
L 204.506453 162.890407 
L 204.676531 162.890407 
L 204.676531 162.373785 
L 206.175163 162.373785 
L 206.175163 161.340541 
L 206.402612 161.340541 
L 206.492787 159.790675 
L 206.569079 159.790675 
L 206.569079 158.757431 
L 207.822738 158.757431 
L 207.822738 158.240809 
L 208.001358 158.240809 
L 208.001358 157.724187 
L 208.133136 157.724187 
L 208.206836 155.657699 
L 208.272093 155.657699 
L 208.272093 154.624455 
L 209.331137 154.624455 
L 209.411529 153.074589 
L 209.506765 153.074589 
L 209.506765 152.557967 
L 209.695727 152.557967 
L 209.695727 152.041345 
L 211.986033 152.041345 
L 211.986033 151.524723 
L 212.539572 151.524723 
L 212.539572 150.491479 
L 213.567475 150.491479 
L 213.627911 149.458235 
L 213.724187 149.458235 
L 213.825915 148.424991 
L 214.738998 148.424991 
L 214.738998 147.908369 
L 214.936344 147.908369 
L 214.936344 146.875125 
L 215.891648 146.875125 
L 215.915552 145.841881 
L 216.066205 145.841881 
L 216.066205 145.325259 
L 216.874086 145.325259 
L 216.874086 144.808637 
L 217.00442 144.808637 
L 217.049314 143.775392 
L 217.921933 143.775392 
L 217.971682 142.742148 
L 218.724452 142.742148 
L 218.781065 141.708904 
L 219.706282 141.708904 
L 219.813302 140.67566 
L 220.504004 140.67566 
L 220.610448 139.125794 
L 221.363763 139.125794 
L 221.363763 138.609172 
L 222.032023 138.609172 
L 222.075322 137.575928 
L 222.172829 137.575928 
L 222.23816 136.542684 
L 223.519558 136.542684 
L 223.519558 135.50944 
L 223.640546 135.50944 
L 223.669806 134.476196 
L 224.344791 134.476196 
L 224.344791 133.959574 
L 227.883216 133.959574 
L 227.883216 133.442952 
L 228.352468 133.442952 
L 228.352468 132.92633 
L 228.899773 132.92633 
L 228.963826 131.893086 
L 230.353367 131.893086 
L 230.387644 130.859842 
L 233.478905 130.859842 
L 233.478905 130.34322 
L 234.551516 130.34322 
L 234.551516 129.826598 
L 236.013718 129.826598 
L 236.013718 129.309976 
L 236.403311 129.309976 
L 236.403311 128.793354 
L 238.62098 128.793354 
L 238.62098 128.276732 
L 238.904736 128.276732 
L 238.904736 127.76011 
L 358.8 127.76011 
L 358.8 127.76011 
" style="fill:none;stroke:#000080;stroke-linecap:square;stroke-width:1.5;"/>
   </g>
   <g id="line2d_43">
    <defs>
     <path d="M 0 6 
C 1.591219 6 3.117479 5.367802 4.242641 4.242641 
C 5.367802 3.117479 6 1.591219 6 0 
C 6 -1.591219 5.367802 -3.117479 4.242641 -4.242641 
C 3.117479 -5.367802 1.591219 -6 0 -6 
C -1.591219 -6 -3.117479 -5.367802 -4.242641 -4.242641 
C -5.367802 -3.117479 -6 -1.591219 -6 0 
C -6 1.591219 -5.367802 3.117479 -4.242641 4.242641 
C -3.117479 5.367802 -1.591219 6 0 6 
z
" id="mb9a0002102" style="stroke:#000080;stroke-width:1.5;"/>
    </defs>
    <g>
     <use style="fill:none;stroke:#000080;stroke-width:1.5;" x="146.455505" xlink:href="#mb9a0002102" y="247.099796"/>
     <use style="fill:none;stroke:#000080;stroke-width:1.5;" x="177.608791" xlink:href="#mb9a0002102" y="209.386388"/>
     <use style="fill:none;stroke:#000080;stroke-width:1.5;" x="222.075322" xlink:href="#mb9a0002102" y="138.09255"/>
     <use style="fill:none;stroke:#000080;stroke-width:1.5;" x="238.904736" xlink:href="#mb9a0002102" y="127.76011"/>
     <use style="fill:none;stroke:#000080;stroke-width:1.5;" x="238.904736" xlink:href="#mb9a0002102" y="127.76011"/>
     <use style="fill:none;stroke:#000080;stroke-width:1.5;" x="358.8" xlink:href="#mb9a0002102" y="127.76011"/>
    </g>
   </g>
   <g id="line2d_44"/>
   <g id="line2d_45">
    <path clip-path="url(#p9c8d13e606)" d="M 165.470948 226.951537 
" style="fill:none;stroke:#000080;stroke-linecap:square;stroke-width:1.5;"/>
    <defs>
     <path d="M -12 12 
L 12 -12 
M -12 -12 
L 12 12 
" id="m04f8539e0a" style="stroke:#000080;stroke-width:3;"/>
    </defs>
    <g clip-path="url(#p9c8d13e606)">
     <use style="fill:#000080;stroke:#000080;stroke-width:3;" x="165.470948" xlink:href="#m04f8539e0a" y="226.951537"/>
    </g>
   </g>
   <g id="line2d_46">
    <defs>
     <path d="M 0 1.5 
C 0.397805 1.5 0.77937 1.341951 1.06066 1.06066 
C 1.341951 0.77937 1.5 0.397805 1.5 0 
C 1.5 -0.397805 1.341951 -0.77937 1.06066 -1.06066 
C 0.77937 -1.341951 0.397805 -1.5 0 -1.5 
C -0.397805 -1.5 -0.77937 -1.341951 -1.06066 -1.06066 
C -1.341951 -0.77937 -1.5 -0.397805 -1.5 0 
C -1.5 0.397805 -1.341951 0.77937 -1.06066 1.06066 
C -0.77937 1.341951 -0.397805 1.5 0 1.5 
z
" id="m6c1be24d17" style="stroke:#ff00ff;"/>
    </defs>
    <g>
     <use style="fill:#ff00ff;stroke:#ff00ff;" x="242.675194" xlink:href="#m6c1be24d17" y="34.768147"/>
     <use style="fill:#ff00ff;stroke:#ff00ff;" x="242.675194" xlink:href="#m6c1be24d17" y="34.768147"/>
    </g>
   </g>
   <g id="line2d_47">
    <path d="M 58.414766 298.245375 
L 58.414766 285.846447 
L 70.8 285.846447 
L 70.8 281.196849 
L 78.044898 281.196849 
L 78.044898 279.646982 
L 87.172389 279.646982 
L 87.172389 278.097116 
L 90.430132 278.097116 
L 90.430132 276.030628 
L 93.184514 276.030628 
L 93.184514 275.514006 
L 95.570468 275.514006 
L 95.570468 274.997384 
L 97.675029 274.997384 
L 97.675029 272.414274 
L 99.557623 272.414274 
L 99.557623 267.764676 
L 107.955702 267.764676 
L 107.955702 266.731432 
L 111.026343 266.731432 
L 111.026343 265.698188 
L 113.64587 265.698188 
L 113.64587 252.782638 
L 117.305161 252.782638 
L 117.305161 252.266016 
L 117.954982 252.266016 
L 117.954982 251.232772 
L 118.581998 251.232772 
L 118.581998 249.682906 
L 120.340936 249.682906 
L 120.340936 249.166284 
L 126.031105 249.166284 
L 126.031105 248.649662 
L 126.432652 248.649662 
L 126.432652 248.13304 
L 126.825374 248.13304 
L 126.825374 247.616418 
L 130.018259 247.616418 
L 130.018259 245.549929 
L 130.340216 245.549929 
L 130.340216 244.516685 
L 130.656474 244.516685 
L 130.656474 244.000063 
L 131.572989 244.000063 
L 131.572989 243.483441 
L 133.809418 243.483441 
L 133.809418 242.966819 
L 137.585114 242.966819 
L 137.585114 240.900331 
L 140.5209 240.900331 
L 140.5209 239.350465 
L 150.902809 239.350465 
L 150.902809 238.833843 
L 151.302113 238.833843 
L 151.302113 237.800599 
L 161.760824 237.800599 
L 161.760824 237.283977 
L 165.560066 237.283977 
L 165.560066 235.734111 
L 165.868525 235.734111 
L 165.868525 235.217489 
L 166.427621 235.217489 
L 166.427621 225.401671 
L 166.638084 225.401671 
L 166.72158 224.368427 
L 166.846097 224.368427 
L 166.846097 223.851805 
L 167.968231 223.851805 
L 167.968231 223.335183 
L 168.27631 223.335183 
L 168.27631 222.818561 
L 168.876975 222.818561 
L 168.876975 219.718829 
L 169.422331 219.718829 
L 169.422331 216.619097 
L 172.017428 216.619097 
L 172.017428 216.102475 
L 172.952513 216.102475 
L 172.952513 215.585853 
L 176.36631 215.585853 
L 176.36631 214.035987 
L 178.340921 214.035987 
L 178.340921 207.3199 
L 178.492438 207.3199 
L 178.492438 205.253412 
L 179.044229 205.253412 
L 179.127627 202.670302 
L 179.640231 202.670302 
L 179.640231 200.603814 
L 179.940879 200.603814 
L 179.940879 200.087192 
L 181.427571 200.087192 
L 181.500576 199.053948 
L 183.947898 199.053948 
L 183.947898 198.537326 
L 184.495323 198.537326 
L 184.495323 198.020704 
L 185.425696 198.020704 
L 185.527758 189.754752 
L 185.958682 189.754752 
L 185.958682 188.204886 
L 186.310013 188.204886 
L 186.310013 185.621776 
L 186.517542 185.621776 
L 186.517542 184.07191 
L 187.611306 184.07191 
L 187.611306 183.555288 
L 189.383582 183.555288 
L 189.383582 183.038666 
L 190.485429 183.038666 
L 190.562376 174.256091 
L 191.155697 174.256091 
L 191.155697 171.672981 
L 191.314151 171.672981 
L 191.314151 167.023383 
L 192.660842 167.023383 
L 192.660842 166.506761 
L 194.021897 166.506761 
L 194.021897 165.990139 
L 194.424048 165.990139 
L 194.424048 161.857163 
L 194.748056 161.857163 
L 194.748056 161.340541 
L 194.9637 161.340541 
L 194.9637 158.757431 
L 195.091849 158.757431 
L 195.091849 157.724187 
L 195.776599 157.724187 
L 195.776599 157.207565 
L 197.186003 157.207565 
L 197.186003 156.690943 
L 197.649359 156.690943 
L 197.693569 147.391747 
L 198.101003 147.391747 
L 198.208578 144.292014 
L 198.785472 144.292014 
L 198.785472 143.775392 
L 199.983597 143.775392 
L 199.983597 143.25877 
L 200.38054 143.25877 
L 200.424807 138.609172 
L 200.613291 138.609172 
L 200.613291 137.575928 
L 200.768856 137.575928 
L 200.86155 133.959574 
L 202.401892 133.959574 
L 202.401892 133.442952 
L 202.749074 133.442952 
L 202.749074 130.34322 
L 202.942125 130.34322 
L 202.942125 129.826598 
L 203.089638 129.826598 
L 203.171067 128.276732 
L 203.609767 128.276732 
L 203.609767 127.76011 
L 204.840073 127.76011 
L 204.840073 125.693622 
L 205.143345 125.693622 
L 205.21595 122.59389 
L 206.711811 122.59389 
L 206.711811 119.494158 
L 206.98515 119.494158 
L 207.050657 117.42767 
L 208.05501 117.42767 
L 208.05501 116.911048 
L 208.405937 116.911048 
L 208.405937 113.811316 
L 208.654722 113.811316 
L 208.714395 108.645095 
L 209.037132 108.645095 
L 209.037132 108.128473 
L 209.590155 108.128473 
L 209.590155 107.611851 
L 209.953257 107.611851 
L 209.953257 104.512119 
L 210.082482 104.512119 
L 210.082482 103.995497 
L 210.236329 103.995497 
L 210.236329 103.478875 
L 211.377197 103.478875 
L 211.377197 101.929009 
L 211.638744 101.929009 
L 211.638744 100.895765 
L 212.695989 100.895765 
L 212.718223 98.829277 
L 212.813199 98.829277 
L 212.891962 97.796033 
L 213.9241 97.796033 
L 213.9241 95.212923 
L 214.107122 95.212923 
L 214.151121 92.113191 
L 214.801256 92.113191 
L 214.801256 91.596569 
L 215.073201 91.596569 
L 215.073201 88.496837 
L 215.244878 88.496837 
L 215.244878 87.980215 
L 216.152848 87.980215 
L 216.152848 86.430349 
L 216.314504 86.430349 
L 216.314504 84.880483 
L 217.17096 84.880483 
L 217.17096 83.330617 
L 217.3237 83.330617 
L 217.360459 80.230885 
L 218.134174 80.230885 
L 218.134174 77.647775 
L 218.278931 77.647775 
L 218.313778 76.614531 
L 219.04811 76.614531 
L 219.04811 76.097908 
L 219.185677 76.097908 
L 219.218801 73.514798 
L 219.917564 73.514798 
L 219.917564 70.415066 
L 220.080185 70.415066 
L 220.080185 68.8652 
L 220.746668 68.8652 
L 220.746668 68.348578 
L 220.871803 68.348578 
L 220.901947 67.315334 
L 221.538999 67.315334 
L 221.538999 64.215602 
L 221.658726 64.215602 
L 221.687572 63.182358 
L 222.297683 63.182358 
L 222.297683 62.665736 
L 222.412448 62.665736 
L 222.412448 61.632492 
L 223.025461 61.632492 
L 223.025461 59.049382 
L 223.724753 59.049382 
L 223.724753 56.982894 
L 224.397704 56.982894 
L 224.397704 55.433028 
L 224.524388 55.433028 
L 224.524388 54.399784 
L 225.046228 54.399784 
L 225.046228 53.36654 
L 225.168412 53.36654 
L 225.168412 52.849918 
L 225.767104 52.849918 
L 225.767104 52.333296 
L 226.276665 52.333296 
L 226.276665 51.816674 
L 226.97192 51.816674 
L 226.97192 51.300052 
L 227.976706 51.300052 
L 227.976706 50.266808 
L 229.105208 50.266808 
L 229.105208 49.750186 
L 229.624103 49.750186 
L 229.624103 48.716942 
L 230.110373 48.716942 
L 230.110373 48.20032 
L 230.957073 48.20032 
L 231.027847 47.167076 
L 231.408826 47.167076 
L 231.494492 46.133832 
L 231.849438 46.133832 
L 231.849438 45.100588 
L 232.279445 45.100588 
L 232.279445 43.550722 
L 232.763558 43.550722 
L 232.763558 43.0341 
L 233.187514 43.0341 
L 233.187514 42.517478 
L 235.100469 42.517478 
L 235.100469 42.000855 
L 235.446318 42.000855 
L 235.446318 41.484233 
L 236.764767 41.484233 
L 236.81593 40.450989 
L 237.142536 40.450989 
L 237.154668 39.417745 
L 237.413939 39.417745 
L 237.413939 38.901123 
L 238.04035 38.901123 
L 238.04035 38.384501 
L 238.345509 38.384501 
L 238.345509 37.867879 
L 239.230907 37.867879 
L 239.230907 37.351257 
L 239.516552 37.351257 
L 239.560421 36.318013 
L 241.190431 36.318013 
L 241.190431 35.801391 
L 242.629425 35.801391 
L 242.675194 34.768147 
L 358.8 34.768147 
L 358.8 34.768147 
" style="fill:none;stroke:#ff00ff;stroke-linecap:square;stroke-width:1.5;"/>
   </g>
   <g id="line2d_48">
    <defs>
     <path d="M -0 8.485281 
L 5.091169 0 
L 0 -8.485281 
L -5.091169 -0 
z
" id="m686bbb5255" style="stroke:#ff00ff;stroke-linejoin:miter;stroke-width:1.5;"/>
    </defs>
    <g>
     <use style="fill:none;stroke:#ff00ff;stroke-linejoin:miter;stroke-width:1.5;" x="113.64587" xlink:href="#m686bbb5255" y="252.782638"/>
     <use style="fill:none;stroke:#ff00ff;stroke-linejoin:miter;stroke-width:1.5;" x="176.36631" xlink:href="#m686bbb5255" y="215.585853"/>
     <use style="fill:none;stroke:#ff00ff;stroke-linejoin:miter;stroke-width:1.5;" x="214.107122" xlink:href="#m686bbb5255" y="95.212923"/>
     <use style="fill:none;stroke:#ff00ff;stroke-linejoin:miter;stroke-width:1.5;" x="238.345509" xlink:href="#m686bbb5255" y="38.384501"/>
     <use style="fill:none;stroke:#ff00ff;stroke-linejoin:miter;stroke-width:1.5;" x="242.675194" xlink:href="#m686bbb5255" y="34.768147"/>
     <use style="fill:none;stroke:#ff00ff;stroke-linejoin:miter;stroke-width:1.5;" x="358.8" xlink:href="#m686bbb5255" y="34.768147"/>
    </g>
   </g>
   <g id="line2d_49"/>
   <g id="line2d_50">
    <path clip-path="url(#p9c8d13e606)" d="M 165.470948 237.283977 
" style="fill:none;stroke:#ff00ff;stroke-linecap:square;stroke-width:1.5;"/>
    <defs>
     <path d="M -12 12 
L 12 -12 
M -12 -12 
L 12 12 
" id="ma931b1081e" style="stroke:#ff00ff;stroke-width:3;"/>
    </defs>
    <g clip-path="url(#p9c8d13e606)">
     <use style="fill:#ff00ff;stroke:#ff00ff;stroke-width:3;" x="165.470948" xlink:href="#ma931b1081e" y="237.283977"/>
    </g>
   </g>
   <g id="line2d_51">
    <defs>
     <path d="M 0 1.5 
C 0.397805 1.5 0.77937 1.341951 1.06066 1.06066 
C 1.341951 0.77937 1.5 0.397805 1.5 0 
C 1.5 -0.397805 1.341951 -0.77937 1.06066 -1.06066 
C 0.77937 -1.341951 0.397805 -1.5 0 -1.5 
C -0.397805 -1.5 -0.77937 -1.341951 -1.06066 -1.06066 
C -1.341951 -0.77937 -1.5 -0.397805 -1.5 0 
C -1.5 0.397805 -1.341951 0.77937 -1.06066 1.06066 
C -0.77937 1.341951 -0.397805 1.5 0 1.5 
z
" id="me2ffa10764" style="stroke:#ffa500;"/>
    </defs>
    <g>
     <use style="fill:#ffa500;stroke:#ffa500;" x="205.055827" xlink:href="#me2ffa10764" y="34.768147"/>
     <use style="fill:#ffa500;stroke:#ffa500;" x="205.055827" xlink:href="#me2ffa10764" y="34.768147"/>
    </g>
   </g>
   <g id="line2d_52">
    <path d="M 58.414766 298.245375 
L 58.414766 268.79792 
L 70.8 268.79792 
L 70.8 267.764676 
L 78.044898 267.764676 
L 78.044898 266.21481 
L 83.185234 266.21481 
L 83.185234 265.181566 
L 87.172389 265.181566 
L 87.172389 263.115078 
L 90.430132 263.115078 
L 90.430132 262.598456 
L 93.184514 262.598456 
L 93.184514 261.04859 
L 95.570468 261.04859 
L 95.570468 259.498724 
L 97.675029 259.498724 
L 97.675029 258.982102 
L 102.815366 258.982102 
L 102.815366 258.46548 
L 104.245578 258.46548 
L 104.245578 256.398992 
L 106.802521 256.398992 
L 106.802521 251.749394 
L 109.03895 251.749394 
L 109.03895 250.71615 
L 112.814645 250.71615 
L 112.814645 248.13304 
L 115.930012 248.13304 
L 115.930012 247.616418 
L 118.581998 247.616418 
L 118.581998 247.099796 
L 121.424184 247.099796 
L 121.424184 245.033307 
L 121.942137 245.033307 
L 121.942137 239.867087 
L 123.87571 239.867087 
L 123.87571 237.800599 
L 124.328091 237.800599 
L 124.328091 235.217489 
L 125.19988 235.217489 
L 125.19988 233.151001 
L 127.209649 233.151001 
L 127.209649 231.601135 
L 127.585834 231.601135 
L 127.585834 230.567891 
L 130.967232 230.567891 
L 130.967232 229.534647 
L 131.272677 229.534647 
L 131.272677 227.984781 
L 131.572989 227.984781 
L 131.572989 227.468159 
L 131.868336 227.468159 
L 131.868336 226.951537 
L 133.276002 226.951537 
L 133.276002 224.368427 
L 133.809418 224.368427 
L 133.809418 223.851805 
L 134.070271 223.851805 
L 134.070271 219.202207 
L 134.830731 219.202207 
L 134.830731 218.685585 
L 135.3203 218.685585 
L 135.3203 218.168963 
L 135.560144 218.168963 
L 135.560144 215.585853 
L 135.796811 215.585853 
L 135.796811 215.069231 
L 136.030384 215.069231 
L 136.030384 214.035987 
L 136.260944 214.035987 
L 136.260944 213.519365 
L 136.713325 213.519365 
L 136.713325 213.002743 
L 136.935292 213.002743 
L 136.935292 208.869766 
L 137.154536 208.869766 
L 137.154536 207.836522 
L 137.371122 207.836522 
L 137.371122 206.286656 
L 137.796573 206.286656 
L 137.796573 205.253412 
L 138.005559 205.253412 
L 138.005559 203.186924 
L 138.817886 203.186924 
L 138.817886 201.637058 
L 139.210608 201.637058 
L 139.210608 201.120436 
L 139.403779 201.120436 
L 139.403779 198.020704 
L 140.878274 198.020704 
L 140.878274 196.98746 
L 141.22864 196.98746 
L 141.22864 194.920972 
L 141.40128 194.920972 
L 141.40128 193.371106 
L 142.565197 193.371106 
L 142.565197 185.105154 
L 142.884279 185.105154 
L 142.884279 184.588532 
L 143.041708 184.588532 
L 143.041708 183.038666 
L 143.352466 183.038666 
L 143.352466 182.522044 
L 143.657911 182.522044 
L 143.657911 182.005422 
L 143.958223 182.005422 
L 143.958223 179.422312 
L 144.106507 179.422312 
L 144.106507 178.389067 
L 144.25357 178.389067 
L 144.25357 177.872445 
L 144.399433 177.872445 
L 144.399433 175.289335 
L 145.250457 175.289335 
L 145.250457 174.256091 
L 145.929935 174.256091 
L 145.929935 172.189603 
L 146.194652 172.189603 
L 146.194652 170.123115 
L 146.839781 170.123115 
L 146.839781 169.606493 
L 146.966058 169.606493 
L 146.966058 167.023383 
L 147.091449 167.023383 
L 147.091449 165.990139 
L 147.945378 165.990139 
L 147.945378 165.473517 
L 148.646178 165.473517 
L 148.646178 163.923651 
L 148.760352 163.923651 
L 148.760352 161.857163 
L 148.8738 161.857163 
L 148.8738 161.340541 
L 149.209888 161.340541 
L 149.209888 159.790675 
L 149.648391 159.790675 
L 149.648391 157.724187 
L 149.863672 157.724187 
L 149.970348 154.107833 
L 150.801573 154.107833 
L 150.801573 153.074589 
L 152.356302 153.074589 
L 152.356302 152.041345 
L 153.174832 152.041345 
L 153.174832 151.524723 
L 156.118698 151.524723 
L 156.118698 149.974857 
L 157.144199 149.974857 
L 157.144199 149.458235 
L 157.496639 149.458235 
L 157.496639 147.391747 
L 166.214649 147.391747 
L 166.214649 146.875125 
L 166.554196 146.875125 
L 166.554196 145.325259 
L 166.928629 145.325259 
L 166.969752 142.742148 
L 167.173962 142.742148 
L 167.254996 138.609172 
L 167.375863 138.609172 
L 167.45599 136.026062 
L 167.890374 136.026062 
L 167.929345 133.442952 
L 168.007033 133.442952 
L 168.007033 132.92633 
L 168.199786 132.92633 
L 168.27631 129.826598 
L 168.314449 129.826598 
L 168.314449 126.210244 
L 168.541589 126.210244 
L 168.616665 123.627134 
L 168.654085 123.627134 
L 168.654085 123.110512 
L 168.765878 123.110512 
L 168.765878 117.944292 
L 168.950658 117.944292 
L 168.950658 117.42767 
L 169.097119 117.42767 
L 169.206182 114.327938 
L 169.242389 114.327938 
L 169.242389 113.811316 
L 169.493804 113.811316 
L 169.600479 109.161717 
L 169.84694 109.161717 
L 169.951534 105.028741 
L 170.090047 105.028741 
L 170.193232 101.929009 
L 170.261693 101.929009 
L 170.261693 100.379143 
L 170.633606 100.379143 
L 170.700403 98.312655 
L 170.866311 98.312655 
L 170.965121 95.212923 
L 170.997936 95.212923 
L 170.997936 94.696301 
L 171.419144 94.696301 
L 171.419144 94.179679 
L 171.70504 94.179679 
L 171.70504 93.663057 
L 171.893127 93.663057 
L 171.986434 90.563325 
L 172.476002 90.563325 
L 172.476002 90.046703 
L 172.745601 90.046703 
L 172.745601 89.530081 
L 173.127979 89.530081 
L 173.127979 87.980215 
L 174.173527 87.980215 
L 174.173527 86.430349 
L 174.310238 86.430349 
L 174.310238 84.880483 
L 178.621295 84.880483 
L 178.727971 83.847239 
L 178.897338 83.847239 
L 178.897338 83.330617 
L 179.127627 83.330617 
L 179.127627 82.297373 
L 179.272645 82.297373 
L 179.334437 79.197641 
L 179.579489 79.197641 
L 179.68061 74.548042 
L 179.801206 74.548042 
L 179.821226 73.514798 
L 180.177808 73.514798 
L 180.236552 70.415066 
L 180.353465 70.415066 
L 180.353465 69.381822 
L 180.661544 69.381822 
L 180.756739 68.348578 
L 180.775717 68.348578 
L 180.832532 66.798712 
L 181.058 66.798712 
L 181.132528 65.248846 
L 181.243741 65.248846 
L 181.354266 64.215602 
L 182.49252 64.215602 
L 182.49252 63.69898 
L 185.411067 63.69898 
L 185.411067 63.182358 
L 185.715769 63.182358 
L 185.758876 62.149114 
L 185.958682 62.149114 
L 185.958682 61.632492 
L 186.100044 61.632492 
L 186.184328 59.049382 
L 186.282159 59.049382 
L 186.282159 58.016138 
L 186.586187 58.016138 
L 186.681848 56.466272 
L 186.749865 56.466272 
L 186.844657 53.883162 
L 187.099441 53.883162 
L 187.099441 53.36654 
L 187.429242 53.36654 
L 187.442308 52.333296 
L 187.546496 52.333296 
L 187.546496 51.300052 
L 188.556262 51.300052 
L 188.556262 49.750186 
L 190.682627 49.750186 
L 190.682627 49.233564 
L 190.96368 49.233564 
L 191.059947 47.683698 
L 191.091921 47.683698 
L 191.176906 46.650454 
L 191.219247 46.650454 
L 191.219247 46.133832 
L 191.335172 46.133832 
L 191.439909 44.583966 
L 191.471211 44.583966 
L 191.533651 43.550722 
L 191.842617 43.550722 
L 191.903774 42.517478 
L 192.266387 42.517478 
L 192.266387 42.000855 
L 192.893402 42.000855 
L 192.893402 41.484233 
L 195.19371 41.484233 
L 195.19371 40.450989 
L 197.832849 40.450989 
L 197.832849 39.934367 
L 197.971052 39.934367 
L 197.971052 39.417745 
L 198.115384 39.417745 
L 198.14411 38.384501 
L 198.513417 38.384501 
L 198.513417 37.867879 
L 200.506728 37.867879 
L 200.506728 37.351257 
L 200.713009 37.351257 
L 200.713009 36.834635 
L 202.953094 36.834635 
L 202.953094 36.318013 
L 203.192719 36.318013 
L 203.192719 35.801391 
L 203.418492 35.801391 
L 203.418492 35.284769 
L 205.055827 35.284769 
L 205.055827 34.768147 
L 358.8 34.768147 
L 358.8 34.768147 
" style="fill:none;stroke:#ffa500;stroke-linecap:square;stroke-width:1.5;"/>
   </g>
   <g id="line2d_53">
    <defs>
     <path d="M 0 -6 
L -1.347084 -1.854102 
L -5.706339 -1.854102 
L -2.179628 0.708204 
L -3.526712 4.854102 
L -0 2.291796 
L 3.526712 4.854102 
L 2.179628 0.708204 
L 5.706339 -1.854102 
L 1.347084 -1.854102 
z
" id="m3f088f1c49" style="stroke:#ffa500;stroke-linejoin:bevel;stroke-width:1.5;"/>
    </defs>
    <g>
     <use style="fill:none;stroke:#ffa500;stroke-linejoin:bevel;stroke-width:1.5;" x="109.03895" xlink:href="#m3f088f1c49" y="250.71615"/>
     <use style="fill:none;stroke:#ffa500;stroke-linejoin:bevel;stroke-width:1.5;" x="153.174832" xlink:href="#m3f088f1c49" y="152.041345"/>
     <use style="fill:none;stroke:#ffa500;stroke-linejoin:bevel;stroke-width:1.5;" x="179.68061" xlink:href="#m3f088f1c49" y="74.548042"/>
     <use style="fill:none;stroke:#ffa500;stroke-linejoin:bevel;stroke-width:1.5;" x="205.055827" xlink:href="#m3f088f1c49" y="34.768147"/>
     <use style="fill:none;stroke:#ffa500;stroke-linejoin:bevel;stroke-width:1.5;" x="205.055827" xlink:href="#m3f088f1c49" y="34.768147"/>
     <use style="fill:none;stroke:#ffa500;stroke-linejoin:bevel;stroke-width:1.5;" x="358.8" xlink:href="#m3f088f1c49" y="34.768147"/>
    </g>
   </g>
   <g id="line2d_54"/>
   <g id="line2d_55">
    <path clip-path="url(#p9c8d13e606)" d="M 165.470948 147.391747 
" style="fill:none;stroke:#ffa500;stroke-linecap:square;stroke-width:1.5;"/>
    <defs>
     <path d="M -12 12 
L 12 -12 
M -12 -12 
L 12 12 
" id="m4999d62f9a" style="stroke:#ffa500;stroke-width:3;"/>
    </defs>
    <g clip-path="url(#p9c8d13e606)">
     <use style="fill:#ffa500;stroke:#ffa500;stroke-width:3;" x="165.470948" xlink:href="#m4999d62f9a" y="147.391747"/>
    </g>
   </g>
   <g id="line2d_56">
    <defs>
     <path d="M 0 1.5 
C 0.397805 1.5 0.77937 1.341951 1.06066 1.06066 
C 1.341951 0.77937 1.5 0.397805 1.5 0 
C 1.5 -0.397805 1.341951 -0.77937 1.06066 -1.06066 
C 0.77937 -1.341951 0.397805 -1.5 0 -1.5 
C -0.397805 -1.5 -0.77937 -1.341951 -1.06066 -1.06066 
C -1.341951 -0.77937 -1.5 -0.397805 -1.5 0 
C -1.5 0.397805 -1.341951 0.77937 -1.06066 1.06066 
C -0.77937 1.341951 -0.397805 1.5 0 1.5 
z
" id="m18541f8114" style="stroke:#6495ed;"/>
    </defs>
    <g>
     <use style="fill:#6495ed;stroke:#6495ed;" x="231.683282" xlink:href="#m18541f8114" y="34.768147"/>
     <use style="fill:#6495ed;stroke:#6495ed;" x="231.683282" xlink:href="#m18541f8114" y="34.768147"/>
    </g>
   </g>
   <g id="line2d_57">
    <path d="M 58.414766 298.245375 
L 58.414766 295.662265 
L 70.8 295.662265 
L 70.8 293.079155 
L 90.430132 293.079155 
L 90.430132 289.979423 
L 99.557623 289.979423 
L 99.557623 287.912935 
L 101.260636 287.912935 
L 101.260636 284.813203 
L 107.955702 284.813203 
L 107.955702 283.779959 
L 109.03895 283.779959 
L 109.03895 283.263337 
L 111.942857 283.263337 
L 111.942857 280.163604 
L 112.814645 280.163604 
L 112.814645 277.063872 
L 113.64587 277.063872 
L 113.64587 272.930896 
L 114.44014 272.930896 
L 114.44014 269.314542 
L 116.630812 269.314542 
L 116.630812 264.664944 
L 117.305161 264.664944 
L 117.305161 259.498724 
L 117.954982 259.498724 
L 117.954982 257.948858 
L 119.773647 257.948858 
L 119.773647 256.915614 
L 120.340936 256.915614 
L 120.340936 256.398992 
L 121.424184 256.398992 
L 121.424184 255.88237 
L 126.031105 255.88237 
L 126.031105 254.332504 
L 127.209649 254.332504 
L 127.209649 251.749394 
L 127.585834 251.749394 
L 127.585834 250.71615 
L 128.669082 250.71615 
L 128.669082 249.682906 
L 129.356402 249.682906 
L 129.356402 249.166284 
L 129.690395 249.166284 
L 129.690395 248.13304 
L 130.967232 248.13304 
L 130.967232 247.616418 
L 131.868336 247.616418 
L 131.868336 246.583173 
L 132.444777 246.583173 
L 132.444777 246.066551 
L 133.003201 246.066551 
L 133.003201 245.549929 
L 134.327371 245.549929 
L 134.327371 244.516685 
L 135.077192 244.516685 
L 135.077192 242.966819 
L 136.260944 242.966819 
L 136.260944 242.450197 
L 136.935292 242.450197 
L 136.935292 240.383709 
L 137.796573 240.383709 
L 137.796573 235.734111 
L 139.210608 235.734111 
L 139.210608 235.217489 
L 141.22864 235.217489 
L 141.22864 234.700867 
L 142.565197 234.700867 
L 142.565197 233.151001 
L 145.929935 233.151001 
L 145.929935 232.634379 
L 146.455505 232.634379 
L 146.455505 231.601135 
L 146.966058 231.601135 
L 146.966058 230.567891 
L 149.648391 230.567891 
L 149.648391 229.534647 
L 150.494377 229.534647 
L 150.494377 221.785317 
L 151.003475 221.785317 
L 151.003475 221.268695 
L 152.815662 221.268695 
L 152.815662 220.235451 
L 153.351746 220.235451 
L 153.351746 219.202207 
L 153.700403 219.202207 
L 153.700403 218.168963 
L 154.460863 218.168963 
L 154.460863 216.102475 
L 155.269513 216.102475 
L 155.269513 215.069231 
L 155.582997 215.069231 
L 155.582997 214.552609 
L 156.491741 214.552609 
L 156.491741 213.002743 
L 157.28601 213.002743 
L 157.28601 208.869766 
L 158.448018 208.869766 
L 158.448018 206.803278 
L 168.466196 206.803278 
L 168.466196 206.286656 
L 168.913855 206.286656 
L 168.913855 204.220168 
L 169.169902 204.220168 
L 169.169902 203.703546 
L 169.84694 203.703546 
L 169.84694 203.186924 
L 169.986263 203.186924 
L 169.986263 202.15368 
L 170.329892 202.15368 
L 170.329892 201.120436 
L 170.633606 201.120436 
L 170.633606 199.053948 
L 170.766951 199.053948 
L 170.866311 197.504082 
L 170.899308 197.504082 
L 170.899308 196.470838 
L 171.893127 196.470838 
L 171.893127 194.920972 
L 172.048368 194.920972 
L 172.048368 194.40435 
L 172.626281 194.40435 
L 172.626281 193.887728 
L 172.804964 193.887728 
L 172.804964 192.337862 
L 172.923101 192.337862 
L 173.011193 190.787996 
L 173.186087 190.787996 
L 173.186087 190.271374 
L 173.473824 190.271374 
L 173.473824 189.754752 
L 173.924778 189.754752 
L 173.924778 187.688264 
L 174.228337 187.688264 
L 174.228337 187.171642 
L 174.687558 187.171642 
L 174.687558 184.588532 
L 179.599759 184.588532 
L 179.660432 182.005422 
L 179.801206 182.005422 
L 179.801206 181.4888 
L 180.623323 181.4888 
L 180.699683 179.938934 
L 180.756739 179.938934 
L 180.775717 178.389067 
L 181.354266 178.389067 
L 181.354266 173.222847 
L 181.789652 173.222847 
L 181.789652 172.706225 
L 181.967978 172.706225 
L 181.967978 171.156359 
L 182.126964 171.156359 
L 182.126964 169.606493 
L 182.301972 169.606493 
L 182.371497 167.023383 
L 182.578466 167.023383 
L 182.578466 166.506761 
L 182.766105 166.506761 
L 182.766105 164.956895 
L 183.05227 164.956895 
L 183.05227 164.440273 
L 186.043633 164.440273 
L 186.043633 163.923651 
L 186.156277 163.923651 
L 186.156277 163.407029 
L 186.323923 163.407029 
L 186.420995 160.823919 
L 186.871648 160.823919 
L 186.871648 160.307297 
L 187.046103 160.307297 
L 187.099441 158.240809 
L 187.507497 158.240809 
L 187.572448 154.107833 
L 187.765898 154.107833 
L 187.817132 153.074589 
L 187.94458 153.074589 
L 187.94458 152.557967 
L 188.058511 152.557967 
L 188.058511 150.491479 
L 188.184255 150.491479 
L 188.234306 148.941613 
L 188.383622 148.941613 
L 188.383622 148.424991 
L 188.519408 148.424991 
L 188.519408 146.875125 
L 188.727251 146.875125 
L 188.727251 145.325259 
L 191.123838 145.325259 
L 191.166305 142.742148 
L 191.240381 142.742148 
L 191.240381 141.708904 
L 191.439909 141.708904 
L 191.439909 141.192282 
L 191.760747 141.192282 
L 191.760747 140.67566 
L 192.075925 140.67566 
L 192.075925 137.575928 
L 192.276355 137.575928 
L 192.375733 136.542684 
L 192.44497 136.542684 
L 192.504103 135.50944 
L 192.75811 135.50944 
L 192.864497 132.409708 
L 193.027678 132.409708 
L 193.027678 131.893086 
L 194.93796 131.893086 
L 194.972272 129.309976 
L 195.311819 129.309976 
L 195.420797 128.276732 
L 195.454195 128.276732 
L 195.454195 127.76011 
L 195.645034 127.76011 
L 195.710937 126.210244 
L 195.874641 126.210244 
L 195.874641 125.693622 
L 195.988348 125.693622 
L 195.988348 125.177 
L 196.141515 125.177 
L 196.173595 123.110512 
L 196.269488 123.110512 
L 196.356941 121.044024 
L 198.108195 121.044024 
L 198.158457 118.977536 
L 198.39352 118.977536 
L 198.39352 117.944292 
L 198.506386 117.944292 
L 198.513417 116.911048 
L 198.730003 116.911048 
L 198.730003 115.877804 
L 198.895898 115.877804 
L 198.985118 114.327938 
L 199.026147 114.327938 
L 199.121517 112.26145 
L 199.202859 112.26145 
L 199.277098 110.194961 
L 200.775051 110.194961 
L 200.818353 107.095229 
L 201.021087 107.095229 
L 201.075982 105.545363 
L 201.311928 105.545363 
L 201.341953 103.478875 
L 201.491328 103.478875 
L 201.568512 101.412387 
L 201.721888 101.412387 
L 201.786383 99.862521 
L 201.885602 99.862521 
L 201.885602 99.345899 
L 203.073308 99.345899 
L 203.133113 97.279411 
L 203.257517 97.279411 
L 203.311337 96.246167 
L 203.397112 96.246167 
L 203.397112 95.729545 
L 203.525009 95.729545 
L 203.525009 95.212923 
L 203.793787 95.212923 
L 203.793787 94.179679 
L 203.92927 94.179679 
L 203.92927 93.663057 
L 204.074036 93.663057 
L 204.074036 93.146435 
L 205.148194 93.146435 
L 205.148194 92.629813 
L 205.341104 92.629813 
L 205.422464 90.563325 
L 205.711392 90.563325 
L 205.81913 87.463593 
L 205.944782 87.463593 
L 205.944782 86.430349 
L 206.97202 86.430349 
L 207.020117 84.363861 
L 207.163637 84.363861 
L 207.21986 82.813995 
L 207.370357 82.813995 
L 207.370357 82.297373 
L 207.498352 82.297373 
L 207.595865 80.230885 
L 207.663388 80.230885 
L 207.663388 79.714263 
L 208.658707 79.714263 
L 208.658707 78.164397 
L 208.817359 78.164397 
L 208.884362 77.131153 
L 209.005901 77.131153 
L 209.025427 75.064664 
L 209.122737 75.064664 
L 209.17313 72.998176 
L 209.273491 72.998176 
L 209.315783 71.44831 
L 210.185194 71.44831 
L 210.21078 69.898444 
L 210.363531 69.898444 
L 210.378011 68.348578 
L 210.504211 68.348578 
L 210.611678 67.315334 
L 210.625958 67.315334 
L 210.658047 66.28209 
L 210.789366 66.28209 
L 210.789366 65.765468 
L 211.591474 65.765468 
L 211.615125 64.732224 
L 211.726201 64.732224 
L 211.726201 64.215602 
L 211.886544 64.215602 
L 211.886544 63.69898 
L 212.009168 63.69898 
L 212.075102 61.11587 
L 212.150626 61.11587 
L 212.150626 60.599248 
L 213.169573 60.599248 
L 213.169573 59.566004 
L 213.415482 59.566004 
L 213.415482 59.049382 
L 214.130602 59.049382 
L 214.197935 57.499516 
L 214.276655 57.499516 
L 214.276655 56.982894 
L 214.59669 56.982894 
L 214.59669 55.94965 
L 215.382136 55.94965 
L 215.48847 53.883162 
L 215.675062 53.883162 
L 215.675062 53.36654 
L 216.544032 53.36654 
L 216.65388 51.300052 
L 216.790879 51.300052 
L 216.790879 50.266808 
L 217.343314 50.266808 
L 217.445935 49.233564 
L 217.455677 49.233564 
L 217.455677 48.716942 
L 217.644606 48.716942 
L 217.668684 47.683698 
L 218.281257 47.683698 
L 218.281257 47.167076 
L 218.4663 47.167076 
L 218.553529 46.133832 
L 219.313417 46.133832 
L 219.381319 44.583966 
L 219.446786 44.583966 
L 219.555368 42.517478 
L 220.235088 42.517478 
L 220.297506 41.484233 
L 221.737461 41.484233 
L 221.8292 40.450989 
L 221.899596 40.450989 
L 221.899596 39.934367 
L 222.575914 39.934367 
L 222.575914 39.417745 
L 223.357539 39.417745 
L 223.357539 38.901123 
L 223.981779 38.901123 
L 223.981779 38.384501 
L 224.69408 38.384501 
L 224.775093 37.351257 
L 225.139924 37.351257 
L 225.146259 36.318013 
L 225.285053 36.318013 
L 225.285053 35.801391 
L 230.314283 35.801391 
L 230.314283 35.284769 
L 231.683282 35.284769 
L 231.683282 34.768147 
L 358.8 34.768147 
L 358.8 34.768147 
" style="fill:none;stroke:#6495ed;stroke-linecap:square;stroke-width:1.5;"/>
   </g>
   <g id="line2d_58">
    <defs>
     <path d="M -0 6 
L 6 -6 
L -6 -6 
z
" id="m42c91bffe5" style="stroke:#6495ed;stroke-linejoin:miter;stroke-width:1.5;"/>
    </defs>
    <g>
     <use style="fill:none;stroke:#6495ed;stroke-linejoin:miter;stroke-width:1.5;" x="121.424184" xlink:href="#m42c91bffe5" y="255.88237"/>
     <use style="fill:none;stroke:#6495ed;stroke-linejoin:miter;stroke-width:1.5;" x="158.448018" xlink:href="#m42c91bffe5" y="208.869766"/>
     <use style="fill:none;stroke:#6495ed;stroke-linejoin:miter;stroke-width:1.5;" x="198.158457" xlink:href="#m42c91bffe5" y="120.01078"/>
     <use style="fill:none;stroke:#6495ed;stroke-linejoin:miter;stroke-width:1.5;" x="231.683282" xlink:href="#m42c91bffe5" y="35.284769"/>
     <use style="fill:none;stroke:#6495ed;stroke-linejoin:miter;stroke-width:1.5;" x="231.683282" xlink:href="#m42c91bffe5" y="34.768147"/>
     <use style="fill:none;stroke:#6495ed;stroke-linejoin:miter;stroke-width:1.5;" x="358.8" xlink:href="#m42c91bffe5" y="34.768147"/>
    </g>
   </g>
   <g id="line2d_59"/>
   <g id="line2d_60">
    <path clip-path="url(#p9c8d13e606)" d="M 165.470948 206.803278 
" style="fill:none;stroke:#6495ed;stroke-linecap:square;stroke-width:1.5;"/>
    <defs>
     <path d="M -12 12 
L 12 -12 
M -12 -12 
L 12 12 
" id="m8d09230763" style="stroke:#6495ed;stroke-width:3;"/>
    </defs>
    <g clip-path="url(#p9c8d13e606)">
     <use style="fill:#6495ed;stroke:#6495ed;stroke-width:3;" x="165.470948" xlink:href="#m8d09230763" y="206.803278"/>
    </g>
   </g>
   <g id="line2d_61">
    <defs>
     <path d="M 0 1.5 
C 0.397805 1.5 0.77937 1.341951 1.06066 1.06066 
C 1.341951 0.77937 1.5 0.397805 1.5 0 
C 1.5 -0.397805 1.341951 -0.77937 1.06066 -1.06066 
C 0.77937 -1.341951 0.397805 -1.5 0 -1.5 
C -0.397805 -1.5 -0.77937 -1.341951 -1.06066 -1.06066 
C -1.341951 -0.77937 -1.5 -0.397805 -1.5 0 
C -1.5 0.397805 -1.341951 0.77937 -1.06066 1.06066 
C -0.77937 1.341951 -0.397805 1.5 0 1.5 
z
" id="mc23161747a" style="stroke:#ff0000;"/>
    </defs>
    <g>
     <use style="fill:#ff0000;stroke:#ff0000;" x="235.116789" xlink:href="#mc23161747a" y="215.585853"/>
     <use style="fill:#ff0000;stroke:#ff0000;" x="235.116789" xlink:href="#mc23161747a" y="215.585853"/>
    </g>
   </g>
   <g id="line2d_62">
    <path d="M 58.414766 298.245375 
L 58.414766 284.296581 
L 70.8 284.296581 
L 70.8 283.263337 
L 78.044898 283.263337 
L 78.044898 281.196849 
L 83.185234 281.196849 
L 83.185234 280.163604 
L 87.172389 280.163604 
L 87.172389 279.646982 
L 90.430132 279.646982 
L 90.430132 279.13036 
L 95.570468 279.13036 
L 95.570468 278.613738 
L 101.260636 278.613738 
L 101.260636 277.580494 
L 104.245578 277.580494 
L 104.245578 277.063872 
L 106.802521 277.063872 
L 106.802521 276.54725 
L 109.03895 276.54725 
L 109.03895 275.514006 
L 110.060263 275.514006 
L 110.060263 273.96414 
L 114.44014 273.96414 
L 114.44014 272.414274 
L 118.581998 272.414274 
L 118.581998 270.864408 
L 119.187755 270.864408 
L 119.187755 269.831164 
L 120.890768 269.831164 
L 120.890768 269.314542 
L 121.424184 269.314542 
L 121.424184 268.79792 
L 123.411577 268.79792 
L 123.411577 266.21481 
L 125.19988 266.21481 
L 125.19988 265.698188 
L 128.669082 265.698188 
L 128.669082 265.181566 
L 131.272677 265.181566 
L 131.272677 264.664944 
L 134.327371 264.664944 
L 134.327371 263.6317 
L 134.580824 263.6317 
L 134.580824 263.115078 
L 139.015326 263.115078 
L 139.015326 262.081834 
L 143.505841 262.081834 
L 143.505841 261.565212 
L 145.111405 261.565212 
L 145.111405 261.04859 
L 166.887411 261.04859 
L 166.887411 260.015346 
L 167.335665 260.015346 
L 167.335665 258.982102 
L 167.929345 258.982102 
L 167.929345 258.46548 
L 168.084384 258.46548 
L 168.084384 257.948858 
L 168.390483 257.948858 
L 168.390483 257.432236 
L 169.024039 257.432236 
L 169.133547 256.398992 
L 169.386487 256.398992 
L 169.386487 254.849126 
L 169.811939 254.849126 
L 169.811939 253.815882 
L 170.295825 253.815882 
L 170.295825 253.29926 
L 178.897338 253.29926 
L 178.897338 252.266016 
L 179.920992 252.266016 
L 179.920992 251.232772 
L 180.508168 251.232772 
L 180.508168 250.71615 
L 185.367111 250.71615 
L 185.367111 250.199528 
L 185.958682 250.199528 
L 186.015361 249.166284 
L 186.763438 249.166284 
L 186.763438 248.649662 
L 186.912058 248.649662 
L 186.912058 248.13304 
L 190.441311 248.13304 
L 190.441311 247.616418 
L 190.888446 247.616418 
L 190.931476 245.549929 
L 191.303631 245.549929 
L 191.303631 244.516685 
L 191.429463 244.516685 
L 191.429463 244.000063 
L 194.748056 244.000063 
L 194.748056 243.483441 
L 195.083334 243.483441 
L 195.083334 242.966819 
L 195.244424 242.966819 
L 195.303409 241.416953 
L 197.619825 241.416953 
L 197.730327 239.867087 
L 198.201426 239.867087 
L 198.201426 239.350465 
L 200.613291 239.350465 
L 200.638273 237.800599 
L 200.793622 237.800599 
L 200.793622 237.283977 
L 201.039404 237.283977 
L 201.039404 236.767355 
L 202.975011 236.767355 
L 202.975011 236.250733 
L 203.16565 236.250733 
L 203.268294 234.700867 
L 203.305962 234.700867 
L 203.305962 233.667623 
L 205.269007 233.667623 
L 205.355489 232.117757 
L 207.046298 232.117757 
L 207.12895 231.084513 
L 208.389767 231.084513 
L 208.389767 230.567891 
L 208.829201 230.567891 
L 208.829201 230.051269 
L 210.104542 230.051269 
L 210.104542 229.534647 
L 210.232681 229.534647 
L 210.341789 228.501403 
L 211.635372 228.501403 
L 211.635372 227.984781 
L 212.825824 227.984781 
L 212.935918 226.434915 
L 212.9954 226.434915 
L 212.9954 225.918293 
L 214.04534 225.918293 
L 214.04534 225.401671 
L 216.259913 225.401671 
L 216.350806 224.368427 
L 216.381863 224.368427 
L 216.418028 223.335183 
L 217.35801 223.335183 
L 217.387367 222.301939 
L 218.311457 222.301939 
L 218.311457 221.785317 
L 219.243052 221.785317 
L 219.282666 220.752073 
L 220.117988 220.752073 
L 220.14105 219.718829 
L 220.899939 219.718829 
L 220.899939 219.202207 
L 222.438261 219.202207 
L 222.460357 218.168963 
L 223.83755 218.168963 
L 223.83755 217.652341 
L 228.095234 217.652341 
L 228.095234 217.135719 
L 228.608661 217.135719 
L 228.608661 216.619097 
L 234.760742 216.619097 
L 234.760742 216.102475 
L 235.116789 216.102475 
L 235.116789 215.585853 
L 358.8 215.585853 
L 358.8 215.585853 
" style="fill:none;stroke:#ff0000;stroke-linecap:square;stroke-width:1.5;"/>
   </g>
   <g id="line2d_63">
    <defs>
     <path d="M 0 -6 
L -5.196152 -3 
L -5.196152 3 
L -0 6 
L 5.196152 3 
L 5.196152 -3 
z
" id="mb185afe8ee" style="stroke:#ff0000;stroke-linejoin:miter;stroke-width:1.5;"/>
    </defs>
    <g>
     <use style="fill:none;stroke:#ff0000;stroke-linejoin:miter;stroke-width:1.5;" x="118.581998" xlink:href="#mb185afe8ee" y="272.414274"/>
     <use style="fill:none;stroke:#ff0000;stroke-linejoin:miter;stroke-width:1.5;" x="185.367111" xlink:href="#mb185afe8ee" y="250.199528"/>
     <use style="fill:none;stroke:#ff0000;stroke-linejoin:miter;stroke-width:1.5;" x="228.608661" xlink:href="#mb185afe8ee" y="216.619097"/>
     <use style="fill:none;stroke:#ff0000;stroke-linejoin:miter;stroke-width:1.5;" x="235.116789" xlink:href="#mb185afe8ee" y="215.585853"/>
     <use style="fill:none;stroke:#ff0000;stroke-linejoin:miter;stroke-width:1.5;" x="235.116789" xlink:href="#mb185afe8ee" y="215.585853"/>
     <use style="fill:none;stroke:#ff0000;stroke-linejoin:miter;stroke-width:1.5;" x="358.8" xlink:href="#mb185afe8ee" y="215.585853"/>
    </g>
   </g>
   <g id="line2d_64"/>
   <g id="line2d_65">
    <path clip-path="url(#p9c8d13e606)" d="M 165.470948 261.04859 
" style="fill:none;stroke:#ff0000;stroke-linecap:square;stroke-width:1.5;"/>
    <defs>
     <path d="M -12 12 
L 12 -12 
M -12 -12 
L 12 12 
" id="mf9a1984bb7" style="stroke:#ff0000;stroke-width:3;"/>
    </defs>
    <g clip-path="url(#p9c8d13e606)">
     <use style="fill:#ff0000;stroke:#ff0000;stroke-width:3;" x="165.470948" xlink:href="#mf9a1984bb7" y="261.04859"/>
    </g>
   </g>
   <g id="line2d_66">
    <path d="M 358.8 215.585853 
L 390.48 292.97583 
" style="fill:none;stroke:#ff0000;stroke-linecap:square;stroke-width:1.5;"/>
    <g>
     <use style="fill:none;stroke:#ff0000;stroke-linejoin:miter;stroke-width:1.5;" x="358.8" xlink:href="#mb185afe8ee" y="215.585853"/>
     <use style="fill:none;stroke:#ff0000;stroke-linejoin:miter;stroke-width:1.5;" x="390.48" xlink:href="#mb185afe8ee" y="292.97583"/>
    </g>
   </g>
   <g id="line2d_67">
    <path d="M 358.8 127.76011 
L 390.48 229.741296 
" style="fill:none;stroke:#000080;stroke-linecap:square;stroke-width:1.5;"/>
    <g>
     <use style="fill:none;stroke:#000080;stroke-width:1.5;" x="358.8" xlink:href="#mb9a0002102" y="127.76011"/>
     <use style="fill:none;stroke:#000080;stroke-width:1.5;" x="390.48" xlink:href="#mb9a0002102" y="229.741296"/>
    </g>
   </g>
   <g id="line2d_68">
    <path d="M 358.8 34.768147 
L 390.48 166.506761 
" style="fill:none;stroke:#ff00ff;stroke-linecap:square;stroke-width:1.5;"/>
    <g>
     <use style="fill:none;stroke:#ff00ff;stroke-linejoin:miter;stroke-width:1.5;" x="358.8" xlink:href="#m686bbb5255" y="34.768147"/>
     <use style="fill:none;stroke:#ff00ff;stroke-linejoin:miter;stroke-width:1.5;" x="390.48" xlink:href="#m686bbb5255" y="166.506761"/>
    </g>
   </g>
   <g id="line2d_69">
    <path d="M 358.8 34.768147 
L 390.48 103.272226 
" style="fill:none;stroke:#6495ed;stroke-linecap:square;stroke-width:1.5;"/>
    <g>
     <use style="fill:none;stroke:#6495ed;stroke-linejoin:miter;stroke-width:1.5;" x="358.8" xlink:href="#m42c91bffe5" y="34.768147"/>
     <use style="fill:none;stroke:#6495ed;stroke-linejoin:miter;stroke-width:1.5;" x="390.48" xlink:href="#m42c91bffe5" y="103.272226"/>
    </g>
   </g>
   <g id="line2d_70">
    <path d="M 358.8 34.768147 
L 390.48 40.037692 
" style="fill:none;stroke:#ffa500;stroke-linecap:square;stroke-width:1.5;"/>
    <g>
     <use style="fill:none;stroke:#ffa500;stroke-linejoin:bevel;stroke-width:1.5;" x="358.8" xlink:href="#m3f088f1c49" y="34.768147"/>
     <use style="fill:none;stroke:#ffa500;stroke-linejoin:bevel;stroke-width:1.5;" x="390.48" xlink:href="#m3f088f1c49" y="40.037692"/>
    </g>
   </g>
   <g id="line2d_71">
    <path d="M 358.8 298.245375 
L 358.8 34.768147 
" style="fill:none;stroke:#000000;stroke-linecap:square;stroke-width:1.5;"/>
   </g>
   <g id="patch_3">
    <path d="M 70.8 298.245375 
L 70.8 32.133375 
" style="fill:none;stroke:#000000;stroke-linecap:square;stroke-linejoin:miter;stroke-width:0.8;"/>
   </g>
   <g id="patch_4">
    <path d="M 427.92 298.245375 
L 427.92 32.133375 
" style="fill:none;stroke:#000000;stroke-linecap:square;stroke-linejoin:miter;stroke-width:0.8;"/>
   </g>
   <g id="patch_5">
    <path d="M 70.8 298.245375 
L 427.92 298.245375 
" style="fill:none;stroke:#000000;stroke-linecap:square;stroke-linejoin:miter;stroke-width:0.8;"/>
   </g>
   <g id="patch_6">
    <path d="M 70.8 32.133375 
L 427.92 32.133375 
" style="fill:none;stroke:#000000;stroke-linecap:square;stroke-linejoin:miter;stroke-width:0.8;"/>
   </g>
   <g id="text_14">
    <!-- f24 -->
    <g transform="translate(396.24 297.114893)scale(0.15 -0.15)">
     <use xlink:href="#DejaVuSans-66"/>
     <use x="35.205078" xlink:href="#DejaVuSans-32"/>
     <use x="98.828125" xlink:href="#DejaVuSans-34"/>
    </g>
   </g>
   <g id="text_15">
    <!-- f23 -->
    <defs>
     <path d="M 40.578125 39.3125 
Q 47.65625 37.796875 51.625 33 
Q 55.609375 28.21875 55.609375 21.1875 
Q 55.609375 10.40625 48.1875 4.484375 
Q 40.765625 -1.421875 27.09375 -1.421875 
Q 22.515625 -1.421875 17.65625 -0.515625 
Q 12.796875 0.390625 7.625 2.203125 
L 7.625 11.71875 
Q 11.71875 9.328125 16.59375 8.109375 
Q 21.484375 6.890625 26.8125 6.890625 
Q 36.078125 6.890625 40.9375 10.546875 
Q 45.796875 14.203125 45.796875 21.1875 
Q 45.796875 27.640625 41.28125 31.265625 
Q 36.765625 34.90625 28.71875 34.90625 
L 20.21875 34.90625 
L 20.21875 43.015625 
L 29.109375 43.015625 
Q 36.375 43.015625 40.234375 45.921875 
Q 44.09375 48.828125 44.09375 54.296875 
Q 44.09375 59.90625 40.109375 62.90625 
Q 36.140625 65.921875 28.71875 65.921875 
Q 24.65625 65.921875 20.015625 65.03125 
Q 15.375 64.15625 9.8125 62.3125 
L 9.8125 71.09375 
Q 15.4375 72.65625 20.34375 73.4375 
Q 25.25 74.21875 29.59375 74.21875 
Q 40.828125 74.21875 47.359375 69.109375 
Q 53.90625 64.015625 53.90625 55.328125 
Q 53.90625 49.265625 50.4375 45.09375 
Q 46.96875 40.921875 40.578125 39.3125 
" id="DejaVuSans-33"/>
    </defs>
    <g transform="translate(396.24 233.880358)scale(0.15 -0.15)">
     <use xlink:href="#DejaVuSans-66"/>
     <use x="35.205078" xlink:href="#DejaVuSans-32"/>
     <use x="98.828125" xlink:href="#DejaVuSans-33"/>
    </g>
   </g>
   <g id="text_16">
    <!-- f22 -->
    <g transform="translate(396.24 170.645824)scale(0.15 -0.15)">
     <use xlink:href="#DejaVuSans-66"/>
     <use x="35.205078" xlink:href="#DejaVuSans-32"/>
     <use x="98.828125" xlink:href="#DejaVuSans-32"/>
    </g>
   </g>
   <g id="text_17">
    <!-- f20 -->
    <g transform="translate(396.24 107.411289)scale(0.15 -0.15)">
     <use xlink:href="#DejaVuSans-66"/>
     <use x="35.205078" xlink:href="#DejaVuSans-32"/>
     <use x="98.828125" xlink:href="#DejaVuSans-30"/>
    </g>
   </g>
   <g id="text_18">
    <!-- f21 -->
    <g transform="translate(396.24 44.176754)scale(0.15 -0.15)">
     <use xlink:href="#DejaVuSans-66"/>
     <use x="35.205078" xlink:href="#DejaVuSans-32"/>
     <use x="98.828125" xlink:href="#DejaVuSans-31"/>
    </g>
   </g>
   <g id="text_19">
    <!-- bbob -->
    <defs>
     <path d="M 48.6875 27.296875 
Q 48.6875 37.203125 44.609375 42.84375 
Q 40.53125 48.484375 33.40625 48.484375 
Q 26.265625 48.484375 22.1875 42.84375 
Q 18.109375 37.203125 18.109375 27.296875 
Q 18.109375 17.390625 22.1875 11.75 
Q 26.265625 6.109375 33.40625 6.109375 
Q 40.53125 6.109375 44.609375 11.75 
Q 48.6875 17.390625 48.6875 27.296875 
M 18.109375 46.390625 
Q 20.953125 51.265625 25.265625 53.625 
Q 29.59375 56 35.59375 56 
Q 45.5625 56 51.78125 48.09375 
Q 58.015625 40.1875 58.015625 27.296875 
Q 58.015625 14.40625 51.78125 6.484375 
Q 45.5625 -1.421875 35.59375 -1.421875 
Q 29.59375 -1.421875 25.265625 0.953125 
Q 20.953125 3.328125 18.109375 8.203125 
L 18.109375 0 
L 9.078125 0 
L 9.078125 75.984375 
L 18.109375 75.984375 
z
" id="DejaVuSans-62"/>
    </defs>
    <g transform="translate(74.3712 50.114612)scale(0.1666 -0.1666)">
     <use xlink:href="#DejaVuSans-62"/>
     <use x="63.476562" xlink:href="#DejaVuSans-62"/>
     <use x="126.953125" xlink:href="#DejaVuSans-6f"/>
     <use x="188.134766" xlink:href="#DejaVuSans-62"/>
    </g>
    <!-- Weak structure functions, 2-D -->
    <defs>
     <path d="M 3.328125 72.90625 
L 13.28125 72.90625 
L 28.609375 11.28125 
L 43.890625 72.90625 
L 54.984375 72.90625 
L 70.3125 11.28125 
L 85.59375 72.90625 
L 95.609375 72.90625 
L 77.296875 0 
L 64.890625 0 
L 49.515625 63.28125 
L 33.984375 0 
L 21.578125 0 
z
" id="DejaVuSans-57"/>
     <path d="M 9.078125 75.984375 
L 18.109375 75.984375 
L 18.109375 31.109375 
L 44.921875 54.6875 
L 56.390625 54.6875 
L 27.390625 29.109375 
L 57.625 0 
L 45.90625 0 
L 18.109375 26.703125 
L 18.109375 0 
L 9.078125 0 
z
" id="DejaVuSans-6b"/>
     <path d="M 11.71875 12.40625 
L 22.015625 12.40625 
L 22.015625 4 
L 14.015625 -11.625 
L 7.71875 -11.625 
L 11.71875 4 
z
" id="DejaVuSans-2c"/>
     <path d="M 19.671875 64.796875 
L 19.671875 8.109375 
L 31.59375 8.109375 
Q 46.6875 8.109375 53.6875 14.9375 
Q 60.6875 21.78125 60.6875 36.53125 
Q 60.6875 51.171875 53.6875 57.984375 
Q 46.6875 64.796875 31.59375 64.796875 
z
M 9.8125 72.90625 
L 30.078125 72.90625 
Q 51.265625 72.90625 61.171875 64.09375 
Q 71.09375 55.28125 71.09375 36.53125 
Q 71.09375 17.671875 61.125 8.828125 
Q 51.171875 0 30.078125 0 
L 9.8125 0 
z
" id="DejaVuSans-44"/>
    </defs>
    <g transform="translate(74.3712 68.770168)scale(0.1666 -0.1666)">
     <use xlink:href="#DejaVuSans-57"/>
     <use x="98.798828" xlink:href="#DejaVuSans-65"/>
     <use x="160.322266" xlink:href="#DejaVuSans-61"/>
     <use x="221.601562" xlink:href="#DejaVuSans-6b"/>
     <use x="279.511719" xlink:href="#DejaVuSans-20"/>
     <use x="311.298828" xlink:href="#DejaVuSans-73"/>
     <use x="363.398438" xlink:href="#DejaVuSans-74"/>
     <use x="402.607422" xlink:href="#DejaVuSans-72"/>
     <use x="443.720703" xlink:href="#DejaVuSans-75"/>
     <use x="507.099609" xlink:href="#DejaVuSans-63"/>
     <use x="562.080078" xlink:href="#DejaVuSans-74"/>
     <use x="601.289062" xlink:href="#DejaVuSans-75"/>
     <use x="664.667969" xlink:href="#DejaVuSans-72"/>
     <use x="705.75" xlink:href="#DejaVuSans-65"/>
     <use x="767.273438" xlink:href="#DejaVuSans-20"/>
     <use x="799.060547" xlink:href="#DejaVuSans-66"/>
     <use x="834.265625" xlink:href="#DejaVuSans-75"/>
     <use x="897.644531" xlink:href="#DejaVuSans-6e"/>
     <use x="961.023438" xlink:href="#DejaVuSans-63"/>
     <use x="1016.003906" xlink:href="#DejaVuSans-74"/>
     <use x="1055.212891" xlink:href="#DejaVuSans-69"/>
     <use x="1082.996094" xlink:href="#DejaVuSans-6f"/>
     <use x="1144.177734" xlink:href="#DejaVuSans-6e"/>
     <use x="1207.556641" xlink:href="#DejaVuSans-73"/>
     <use x="1259.65625" xlink:href="#DejaVuSans-2c"/>
     <use x="1291.443359" xlink:href="#DejaVuSans-20"/>
     <use x="1323.230469" xlink:href="#DejaVuSans-32"/>
     <use x="1386.853516" xlink:href="#DejaVuSans-2d"/>
     <use x="1422.9375" xlink:href="#DejaVuSans-44"/>
    </g>
    <!-- 51 targets in 100..1e-08 -->
    <defs>
     <path d="M 10.796875 72.90625 
L 49.515625 72.90625 
L 49.515625 64.59375 
L 19.828125 64.59375 
L 19.828125 46.734375 
Q 21.96875 47.46875 24.109375 47.828125 
Q 26.265625 48.1875 28.421875 48.1875 
Q 40.625 48.1875 47.75 41.5 
Q 54.890625 34.8125 54.890625 23.390625 
Q 54.890625 11.625 47.5625 5.09375 
Q 40.234375 -1.421875 26.90625 -1.421875 
Q 22.3125 -1.421875 17.546875 -0.640625 
Q 12.796875 0.140625 7.71875 1.703125 
L 7.71875 11.625 
Q 12.109375 9.234375 16.796875 8.0625 
Q 21.484375 6.890625 26.703125 6.890625 
Q 35.15625 6.890625 40.078125 11.328125 
Q 45.015625 15.765625 45.015625 23.390625 
Q 45.015625 31 40.078125 35.4375 
Q 35.15625 39.890625 26.703125 39.890625 
Q 22.75 39.890625 18.8125 39.015625 
Q 14.890625 38.140625 10.796875 36.28125 
z
" id="DejaVuSans-35"/>
    </defs>
    <g transform="translate(74.3712 87.425723)scale(0.1666 -0.1666)">
     <use xlink:href="#DejaVuSans-35"/>
     <use x="63.623047" xlink:href="#DejaVuSans-31"/>
     <use x="127.246094" xlink:href="#DejaVuSans-20"/>
     <use x="159.033203" xlink:href="#DejaVuSans-74"/>
     <use x="198.242188" xlink:href="#DejaVuSans-61"/>
     <use x="259.521484" xlink:href="#DejaVuSans-72"/>
     <use x="300.619141" xlink:href="#DejaVuSans-67"/>
     <use x="364.095703" xlink:href="#DejaVuSans-65"/>
     <use x="425.619141" xlink:href="#DejaVuSans-74"/>
     <use x="464.828125" xlink:href="#DejaVuSans-73"/>
     <use x="516.927734" xlink:href="#DejaVuSans-20"/>
     <use x="548.714844" xlink:href="#DejaVuSans-69"/>
     <use x="576.498047" xlink:href="#DejaVuSans-6e"/>
     <use x="639.876953" xlink:href="#DejaVuSans-20"/>
     <use x="671.664062" xlink:href="#DejaVuSans-31"/>
     <use x="735.287109" xlink:href="#DejaVuSans-30"/>
     <use x="798.910156" xlink:href="#DejaVuSans-30"/>
     <use x="862.533203" xlink:href="#DejaVuSans-2e"/>
     <use x="894.320312" xlink:href="#DejaVuSans-2e"/>
     <use x="926.107422" xlink:href="#DejaVuSans-31"/>
     <use x="989.730469" xlink:href="#DejaVuSans-65"/>
     <use x="1051.253906" xlink:href="#DejaVuSans-2d"/>
     <use x="1087.337891" xlink:href="#DejaVuSans-30"/>
     <use x="1150.960938" xlink:href="#DejaVuSans-38"/>
    </g>
    <!-- 15 instances -->
    <g transform="translate(74.3712 106.081279)scale(0.1666 -0.1666)">
     <use xlink:href="#DejaVuSans-31"/>
     <use x="63.623047" xlink:href="#DejaVuSans-35"/>
     <use x="127.246094" xlink:href="#DejaVuSans-20"/>
     <use x="159.033203" xlink:href="#DejaVuSans-69"/>
     <use x="186.816406" xlink:href="#DejaVuSans-6e"/>
     <use x="250.195312" xlink:href="#DejaVuSans-73"/>
     <use x="302.294922" xlink:href="#DejaVuSans-74"/>
     <use x="341.503906" xlink:href="#DejaVuSans-61"/>
     <use x="402.783203" xlink:href="#DejaVuSans-6e"/>
     <use x="466.162109" xlink:href="#DejaVuSans-63"/>
     <use x="521.142578" xlink:href="#DejaVuSans-65"/>
     <use x="582.666016" xlink:href="#DejaVuSans-73"/>
    </g>
   </g>
   <g id="text_20">
    <!-- v2.1 -->
    <g style="fill:#808080;" transform="translate(238.449063 293.504568)scale(0.1 -0.1)">
     <use xlink:href="#DejaVuSans-76"/>
     <use x="59.179688" xlink:href="#DejaVuSans-32"/>
     <use x="122.802734" xlink:href="#DejaVuSans-2e"/>
     <use x="154.589844" xlink:href="#DejaVuSans-31"/>
    </g>
   </g>
  </g>
 </g>
 <defs>
  <clipPath id="p9c8d13e606">
   <rect height="266.112" width="357.12" x="70.8" y="32.133375"/>
  </clipPath>
 </defs>
</svg>
