<?xml version="1.0" encoding="utf-8" standalone="no"?>
<!DOCTYPE svg PUBLIC "-//W3C//DTD SVG 1.1//EN"
  "http://www.w3.org/Graphics/SVG/1.1/DTD/svg11.dtd">
<!-- Created with matplotlib (http://matplotlib.org/) -->
<svg height="353pt" version="1.1" viewBox="0 0 438 353" width="438pt" xmlns="http://www.w3.org/2000/svg" xmlns:xlink="http://www.w3.org/1999/xlink">
 <defs>
  <style type="text/css">
*{stroke-linecap:butt;stroke-linejoin:round;}
  </style>
 </defs>
 <g id="figure_1">
  <g id="patch_1">
   <path d="M 0 353.22225 
L 438.62 353.22225 
L 438.62 0 
L 0 0 
z
" style="fill:#ffffff;"/>
  </g>
  <g id="axes_1">
   <g id="patch_2">
    <path d="M 70.8 298.245375 
L 427.92 298.245375 
L 427.92 32.133375 
L 70.8 32.133375 
z
" style="fill:#ffffff;"/>
   </g>
   <g id="matplotlib.axis_1">
    <g id="xtick_1">
     <g id="line2d_1">
      <path clip-path="url(#p2f38a26fa1)" d="M 70.8 298.245375 
L 70.8 32.133375 
" style="fill:none;stroke:#b0b0b0;stroke-linecap:square;stroke-width:0.8;"/>
     </g>
     <g id="line2d_2">
      <defs>
       <path d="M 0 0 
L 0 3.5 
" id="mdb21e41687" style="stroke:#000000;stroke-width:0.8;"/>
      </defs>
      <g>
       <use style="stroke:#000000;stroke-width:0.8;" x="70.8" xlink:href="#mdb21e41687" y="298.245375"/>
      </g>
     </g>
     <g id="text_1">
      <!-- 0 -->
      <defs>
       <path d="M 31.78125 66.40625 
Q 24.171875 66.40625 20.328125 58.90625 
Q 16.5 51.421875 16.5 36.375 
Q 16.5 21.390625 20.328125 13.890625 
Q 24.171875 6.390625 31.78125 6.390625 
Q 39.453125 6.390625 43.28125 13.890625 
Q 47.125 21.390625 47.125 36.375 
Q 47.125 51.421875 43.28125 58.90625 
Q 39.453125 66.40625 31.78125 66.40625 
M 31.78125 74.21875 
Q 44.046875 74.21875 50.515625 64.515625 
Q 56.984375 54.828125 56.984375 36.375 
Q 56.984375 17.96875 50.515625 8.265625 
Q 44.046875 -1.421875 31.78125 -1.421875 
Q 19.53125 -1.421875 13.0625 8.265625 
Q 6.59375 17.96875 6.59375 36.375 
Q 6.59375 54.828125 13.0625 64.515625 
Q 19.53125 74.21875 31.78125 74.21875 
" id="DejaVuSans-30"/>
      </defs>
      <g transform="translate(64.4375 320.44225)scale(0.2 -0.2)">
       <use xlink:href="#DejaVuSans-30"/>
      </g>
     </g>
    </g>
    <g id="xtick_2">
     <g id="line2d_3">
      <path clip-path="url(#p2f38a26fa1)" d="M 153.085714 298.245375 
L 153.085714 32.133375 
" style="fill:none;stroke:#b0b0b0;stroke-linecap:square;stroke-width:0.8;"/>
     </g>
     <g id="line2d_4">
      <g>
       <use style="stroke:#000000;stroke-width:0.8;" x="153.085714" xlink:href="#mdb21e41687" y="298.245375"/>
      </g>
     </g>
     <g id="text_2">
      <!-- 2 -->
      <defs>
       <path d="M 19.1875 8.296875 
L 53.609375 8.296875 
L 53.609375 0 
L 7.328125 0 
L 7.328125 8.296875 
Q 12.9375 14.109375 22.625 23.890625 
Q 32.328125 33.6875 34.8125 36.53125 
Q 39.546875 41.84375 41.421875 45.53125 
Q 43.3125 49.21875 43.3125 52.78125 
Q 43.3125 58.59375 39.234375 62.25 
Q 35.15625 65.921875 28.609375 65.921875 
Q 23.96875 65.921875 18.8125 64.3125 
Q 13.671875 62.703125 7.8125 59.421875 
L 7.8125 69.390625 
Q 13.765625 71.78125 18.9375 73 
Q 24.125 74.21875 28.421875 74.21875 
Q 39.75 74.21875 46.484375 68.546875 
Q 53.21875 62.890625 53.21875 53.421875 
Q 53.21875 48.921875 51.53125 44.890625 
Q 49.859375 40.875 45.40625 35.40625 
Q 44.1875 33.984375 37.640625 27.21875 
Q 31.109375 20.453125 19.1875 8.296875 
" id="DejaVuSans-32"/>
      </defs>
      <g transform="translate(146.723214 320.44225)scale(0.2 -0.2)">
       <use xlink:href="#DejaVuSans-32"/>
      </g>
     </g>
    </g>
    <g id="xtick_3">
     <g id="line2d_5">
      <path clip-path="url(#p2f38a26fa1)" d="M 235.371429 298.245375 
L 235.371429 32.133375 
" style="fill:none;stroke:#b0b0b0;stroke-linecap:square;stroke-width:0.8;"/>
     </g>
     <g id="line2d_6">
      <g>
       <use style="stroke:#000000;stroke-width:0.8;" x="235.371429" xlink:href="#mdb21e41687" y="298.245375"/>
      </g>
     </g>
     <g id="text_3">
      <!-- 4 -->
      <defs>
       <path d="M 37.796875 64.3125 
L 12.890625 25.390625 
L 37.796875 25.390625 
z
M 35.203125 72.90625 
L 47.609375 72.90625 
L 47.609375 25.390625 
L 58.015625 25.390625 
L 58.015625 17.1875 
L 47.609375 17.1875 
L 47.609375 0 
L 37.796875 0 
L 37.796875 17.1875 
L 4.890625 17.1875 
L 4.890625 26.703125 
z
" id="DejaVuSans-34"/>
      </defs>
      <g transform="translate(229.008929 320.44225)scale(0.2 -0.2)">
       <use xlink:href="#DejaVuSans-34"/>
      </g>
     </g>
    </g>
    <g id="xtick_4">
     <g id="line2d_7">
      <path clip-path="url(#p2f38a26fa1)" d="M 317.657143 298.245375 
L 317.657143 32.133375 
" style="fill:none;stroke:#b0b0b0;stroke-linecap:square;stroke-width:0.8;"/>
     </g>
     <g id="line2d_8">
      <g>
       <use style="stroke:#000000;stroke-width:0.8;" x="317.657143" xlink:href="#mdb21e41687" y="298.245375"/>
      </g>
     </g>
     <g id="text_4">
      <!-- 6 -->
      <defs>
       <path d="M 33.015625 40.375 
Q 26.375 40.375 22.484375 35.828125 
Q 18.609375 31.296875 18.609375 23.390625 
Q 18.609375 15.53125 22.484375 10.953125 
Q 26.375 6.390625 33.015625 6.390625 
Q 39.65625 6.390625 43.53125 10.953125 
Q 47.40625 15.53125 47.40625 23.390625 
Q 47.40625 31.296875 43.53125 35.828125 
Q 39.65625 40.375 33.015625 40.375 
M 52.59375 71.296875 
L 52.59375 62.3125 
Q 48.875 64.0625 45.09375 64.984375 
Q 41.3125 65.921875 37.59375 65.921875 
Q 27.828125 65.921875 22.671875 59.328125 
Q 17.53125 52.734375 16.796875 39.40625 
Q 19.671875 43.65625 24.015625 45.921875 
Q 28.375 48.1875 33.59375 48.1875 
Q 44.578125 48.1875 50.953125 41.515625 
Q 57.328125 34.859375 57.328125 23.390625 
Q 57.328125 12.15625 50.6875 5.359375 
Q 44.046875 -1.421875 33.015625 -1.421875 
Q 20.359375 -1.421875 13.671875 8.265625 
Q 6.984375 17.96875 6.984375 36.375 
Q 6.984375 53.65625 15.1875 63.9375 
Q 23.390625 74.21875 37.203125 74.21875 
Q 40.921875 74.21875 44.703125 73.484375 
Q 48.484375 72.75 52.59375 71.296875 
" id="DejaVuSans-36"/>
      </defs>
      <g transform="translate(311.294643 320.44225)scale(0.2 -0.2)">
       <use xlink:href="#DejaVuSans-36"/>
      </g>
     </g>
    </g>
    <g id="xtick_5">
     <g id="line2d_9">
      <path clip-path="url(#p2f38a26fa1)" d="M 399.942857 298.245375 
L 399.942857 32.133375 
" style="fill:none;stroke:#b0b0b0;stroke-linecap:square;stroke-width:0.8;"/>
     </g>
     <g id="line2d_10">
      <g>
       <use style="stroke:#000000;stroke-width:0.8;" x="399.942857" xlink:href="#mdb21e41687" y="298.245375"/>
      </g>
     </g>
     <g id="text_5">
      <!-- 8 -->
      <defs>
       <path d="M 31.78125 34.625 
Q 24.75 34.625 20.71875 30.859375 
Q 16.703125 27.09375 16.703125 20.515625 
Q 16.703125 13.921875 20.71875 10.15625 
Q 24.75 6.390625 31.78125 6.390625 
Q 38.8125 6.390625 42.859375 10.171875 
Q 46.921875 13.96875 46.921875 20.515625 
Q 46.921875 27.09375 42.890625 30.859375 
Q 38.875 34.625 31.78125 34.625 
M 21.921875 38.8125 
Q 15.578125 40.375 12.03125 44.71875 
Q 8.5 49.078125 8.5 55.328125 
Q 8.5 64.0625 14.71875 69.140625 
Q 20.953125 74.21875 31.78125 74.21875 
Q 42.671875 74.21875 48.875 69.140625 
Q 55.078125 64.0625 55.078125 55.328125 
Q 55.078125 49.078125 51.53125 44.71875 
Q 48 40.375 41.703125 38.8125 
Q 48.828125 37.15625 52.796875 32.3125 
Q 56.78125 27.484375 56.78125 20.515625 
Q 56.78125 9.90625 50.3125 4.234375 
Q 43.84375 -1.421875 31.78125 -1.421875 
Q 19.734375 -1.421875 13.25 4.234375 
Q 6.78125 9.90625 6.78125 20.515625 
Q 6.78125 27.484375 10.78125 32.3125 
Q 14.796875 37.15625 21.921875 38.8125 
M 18.3125 54.390625 
Q 18.3125 48.734375 21.84375 45.5625 
Q 25.390625 42.390625 31.78125 42.390625 
Q 38.140625 42.390625 41.71875 45.5625 
Q 45.3125 48.734375 45.3125 54.390625 
Q 45.3125 60.0625 41.71875 63.234375 
Q 38.140625 66.40625 31.78125 66.40625 
Q 25.390625 66.40625 21.84375 63.234375 
Q 18.3125 60.0625 18.3125 54.390625 
" id="DejaVuSans-38"/>
      </defs>
      <g transform="translate(393.580357 320.44225)scale(0.2 -0.2)">
       <use xlink:href="#DejaVuSans-38"/>
      </g>
     </g>
    </g>
    <g id="xtick_6">
     <g id="line2d_11">
      <defs>
       <path d="M 0 0 
L 0 2 
" id="m4b192d9b31" style="stroke:#000000;stroke-width:0.6;"/>
      </defs>
      <g>
       <use style="stroke:#000000;stroke-width:0.6;" x="83.185234" xlink:href="#m4b192d9b31" y="298.245375"/>
      </g>
     </g>
    </g>
    <g id="xtick_7">
     <g id="line2d_12">
      <g>
       <use style="stroke:#000000;stroke-width:0.6;" x="95.570468" xlink:href="#m4b192d9b31" y="298.245375"/>
      </g>
     </g>
    </g>
    <g id="xtick_8">
     <g id="line2d_13">
      <g>
       <use style="stroke:#000000;stroke-width:0.6;" x="102.815366" xlink:href="#m4b192d9b31" y="298.245375"/>
      </g>
     </g>
    </g>
    <g id="xtick_9">
     <g id="line2d_14">
      <g>
       <use style="stroke:#000000;stroke-width:0.6;" x="107.955702" xlink:href="#m4b192d9b31" y="298.245375"/>
      </g>
     </g>
    </g>
    <g id="xtick_10">
     <g id="line2d_15">
      <g>
       <use style="stroke:#000000;stroke-width:0.6;" x="165.470948" xlink:href="#m4b192d9b31" y="298.245375"/>
      </g>
     </g>
    </g>
    <g id="xtick_11">
     <g id="line2d_16">
      <g>
       <use style="stroke:#000000;stroke-width:0.6;" x="177.856183" xlink:href="#m4b192d9b31" y="298.245375"/>
      </g>
     </g>
    </g>
    <g id="xtick_12">
     <g id="line2d_17">
      <g>
       <use style="stroke:#000000;stroke-width:0.6;" x="185.10108" xlink:href="#m4b192d9b31" y="298.245375"/>
      </g>
     </g>
    </g>
    <g id="xtick_13">
     <g id="line2d_18">
      <g>
       <use style="stroke:#000000;stroke-width:0.6;" x="190.241417" xlink:href="#m4b192d9b31" y="298.245375"/>
      </g>
     </g>
    </g>
    <g id="xtick_14">
     <g id="line2d_19">
      <g>
       <use style="stroke:#000000;stroke-width:0.6;" x="247.756663" xlink:href="#m4b192d9b31" y="298.245375"/>
      </g>
     </g>
    </g>
    <g id="xtick_15">
     <g id="line2d_20">
      <g>
       <use style="stroke:#000000;stroke-width:0.6;" x="260.141897" xlink:href="#m4b192d9b31" y="298.245375"/>
      </g>
     </g>
    </g>
    <g id="xtick_16">
     <g id="line2d_21">
      <g>
       <use style="stroke:#000000;stroke-width:0.6;" x="267.386794" xlink:href="#m4b192d9b31" y="298.245375"/>
      </g>
     </g>
    </g>
    <g id="xtick_17">
     <g id="line2d_22">
      <g>
       <use style="stroke:#000000;stroke-width:0.6;" x="272.527131" xlink:href="#m4b192d9b31" y="298.245375"/>
      </g>
     </g>
    </g>
    <g id="xtick_18">
     <g id="line2d_23">
      <g>
       <use style="stroke:#000000;stroke-width:0.6;" x="330.042377" xlink:href="#m4b192d9b31" y="298.245375"/>
      </g>
     </g>
    </g>
    <g id="xtick_19">
     <g id="line2d_24">
      <g>
       <use style="stroke:#000000;stroke-width:0.6;" x="342.427611" xlink:href="#m4b192d9b31" y="298.245375"/>
      </g>
     </g>
    </g>
    <g id="xtick_20">
     <g id="line2d_25">
      <g>
       <use style="stroke:#000000;stroke-width:0.6;" x="349.672509" xlink:href="#m4b192d9b31" y="298.245375"/>
      </g>
     </g>
    </g>
    <g id="xtick_21">
     <g id="line2d_26">
      <g>
       <use style="stroke:#000000;stroke-width:0.6;" x="354.812845" xlink:href="#m4b192d9b31" y="298.245375"/>
      </g>
     </g>
    </g>
    <g id="xtick_22">
     <g id="line2d_27">
      <g>
       <use style="stroke:#000000;stroke-width:0.6;" x="412.328091" xlink:href="#m4b192d9b31" y="298.245375"/>
      </g>
     </g>
    </g>
    <g id="xtick_23">
     <g id="line2d_28">
      <g>
       <use style="stroke:#000000;stroke-width:0.6;" x="424.713325" xlink:href="#m4b192d9b31" y="298.245375"/>
      </g>
     </g>
    </g>
    <g id="text_6">
     <!-- log10 of (# f-evals / dimension) -->
     <defs>
      <path d="M 9.421875 75.984375 
L 18.40625 75.984375 
L 18.40625 0 
L 9.421875 0 
z
" id="DejaVuSans-6c"/>
      <path d="M 30.609375 48.390625 
Q 23.390625 48.390625 19.1875 42.75 
Q 14.984375 37.109375 14.984375 27.296875 
Q 14.984375 17.484375 19.15625 11.84375 
Q 23.34375 6.203125 30.609375 6.203125 
Q 37.796875 6.203125 41.984375 11.859375 
Q 46.1875 17.53125 46.1875 27.296875 
Q 46.1875 37.015625 41.984375 42.703125 
Q 37.796875 48.390625 30.609375 48.390625 
M 30.609375 56 
Q 42.328125 56 49.015625 48.375 
Q 55.71875 40.765625 55.71875 27.296875 
Q 55.71875 13.875 49.015625 6.21875 
Q 42.328125 -1.421875 30.609375 -1.421875 
Q 18.84375 -1.421875 12.171875 6.21875 
Q 5.515625 13.875 5.515625 27.296875 
Q 5.515625 40.765625 12.171875 48.375 
Q 18.84375 56 30.609375 56 
" id="DejaVuSans-6f"/>
      <path d="M 45.40625 27.984375 
Q 45.40625 37.75 41.375 43.109375 
Q 37.359375 48.484375 30.078125 48.484375 
Q 22.859375 48.484375 18.828125 43.109375 
Q 14.796875 37.75 14.796875 27.984375 
Q 14.796875 18.265625 18.828125 12.890625 
Q 22.859375 7.515625 30.078125 7.515625 
Q 37.359375 7.515625 41.375 12.890625 
Q 45.40625 18.265625 45.40625 27.984375 
M 54.390625 6.78125 
Q 54.390625 -7.171875 48.1875 -13.984375 
Q 42 -20.796875 29.203125 -20.796875 
Q 24.46875 -20.796875 20.265625 -20.09375 
Q 16.0625 -19.390625 12.109375 -17.921875 
L 12.109375 -9.1875 
Q 16.0625 -11.328125 19.921875 -12.34375 
Q 23.78125 -13.375 27.78125 -13.375 
Q 36.625 -13.375 41.015625 -8.765625 
Q 45.40625 -4.15625 45.40625 5.171875 
L 45.40625 9.625 
Q 42.625 4.78125 38.28125 2.390625 
Q 33.9375 0 27.875 0 
Q 17.828125 0 11.671875 7.65625 
Q 5.515625 15.328125 5.515625 27.984375 
Q 5.515625 40.671875 11.671875 48.328125 
Q 17.828125 56 27.875 56 
Q 33.9375 56 38.28125 53.609375 
Q 42.625 51.21875 45.40625 46.390625 
L 45.40625 54.6875 
L 54.390625 54.6875 
z
" id="DejaVuSans-67"/>
      <path d="M 12.40625 8.296875 
L 28.515625 8.296875 
L 28.515625 63.921875 
L 10.984375 60.40625 
L 10.984375 69.390625 
L 28.421875 72.90625 
L 38.28125 72.90625 
L 38.28125 8.296875 
L 54.390625 8.296875 
L 54.390625 0 
L 12.40625 0 
z
" id="DejaVuSans-31"/>
      <path id="DejaVuSans-20"/>
      <path d="M 37.109375 75.984375 
L 37.109375 68.5 
L 28.515625 68.5 
Q 23.6875 68.5 21.796875 66.546875 
Q 19.921875 64.59375 19.921875 59.515625 
L 19.921875 54.6875 
L 34.71875 54.6875 
L 34.71875 47.703125 
L 19.921875 47.703125 
L 19.921875 0 
L 10.890625 0 
L 10.890625 47.703125 
L 2.296875 47.703125 
L 2.296875 54.6875 
L 10.890625 54.6875 
L 10.890625 58.5 
Q 10.890625 67.625 15.140625 71.796875 
Q 19.390625 75.984375 28.609375 75.984375 
z
" id="DejaVuSans-66"/>
      <path d="M 31 75.875 
Q 24.46875 64.65625 21.28125 53.65625 
Q 18.109375 42.671875 18.109375 31.390625 
Q 18.109375 20.125 21.3125 9.0625 
Q 24.515625 -2 31 -13.1875 
L 23.1875 -13.1875 
Q 15.875 -1.703125 12.234375 9.375 
Q 8.59375 20.453125 8.59375 31.390625 
Q 8.59375 42.28125 12.203125 53.3125 
Q 15.828125 64.359375 23.1875 75.875 
z
" id="DejaVuSans-28"/>
      <path d="M 51.125 44 
L 36.921875 44 
L 32.8125 27.6875 
L 47.125 27.6875 
z
M 43.796875 71.78125 
L 38.71875 51.515625 
L 52.984375 51.515625 
L 58.109375 71.78125 
L 65.921875 71.78125 
L 60.890625 51.515625 
L 76.125 51.515625 
L 76.125 44 
L 58.984375 44 
L 54.984375 27.6875 
L 70.515625 27.6875 
L 70.515625 20.21875 
L 53.078125 20.21875 
L 48 0 
L 40.1875 0 
L 45.21875 20.21875 
L 30.90625 20.21875 
L 25.875 0 
L 18.015625 0 
L 23.09375 20.21875 
L 7.71875 20.21875 
L 7.71875 27.6875 
L 24.90625 27.6875 
L 29 44 
L 13.28125 44 
L 13.28125 51.515625 
L 30.90625 51.515625 
L 35.890625 71.78125 
z
" id="DejaVuSans-23"/>
      <path d="M 4.890625 31.390625 
L 31.203125 31.390625 
L 31.203125 23.390625 
L 4.890625 23.390625 
z
" id="DejaVuSans-2d"/>
      <path d="M 56.203125 29.59375 
L 56.203125 25.203125 
L 14.890625 25.203125 
Q 15.484375 15.921875 20.484375 11.0625 
Q 25.484375 6.203125 34.421875 6.203125 
Q 39.59375 6.203125 44.453125 7.46875 
Q 49.3125 8.734375 54.109375 11.28125 
L 54.109375 2.78125 
Q 49.265625 0.734375 44.1875 -0.34375 
Q 39.109375 -1.421875 33.890625 -1.421875 
Q 20.796875 -1.421875 13.15625 6.1875 
Q 5.515625 13.8125 5.515625 26.8125 
Q 5.515625 40.234375 12.765625 48.109375 
Q 20.015625 56 32.328125 56 
Q 43.359375 56 49.78125 48.890625 
Q 56.203125 41.796875 56.203125 29.59375 
M 47.21875 32.234375 
Q 47.125 39.59375 43.09375 43.984375 
Q 39.0625 48.390625 32.421875 48.390625 
Q 24.90625 48.390625 20.390625 44.140625 
Q 15.875 39.890625 15.1875 32.171875 
z
" id="DejaVuSans-65"/>
      <path d="M 2.984375 54.6875 
L 12.5 54.6875 
L 29.59375 8.796875 
L 46.6875 54.6875 
L 56.203125 54.6875 
L 35.6875 0 
L 23.484375 0 
z
" id="DejaVuSans-76"/>
      <path d="M 34.28125 27.484375 
Q 23.390625 27.484375 19.1875 25 
Q 14.984375 22.515625 14.984375 16.5 
Q 14.984375 11.71875 18.140625 8.90625 
Q 21.296875 6.109375 26.703125 6.109375 
Q 34.1875 6.109375 38.703125 11.40625 
Q 43.21875 16.703125 43.21875 25.484375 
L 43.21875 27.484375 
z
M 52.203125 31.203125 
L 52.203125 0 
L 43.21875 0 
L 43.21875 8.296875 
Q 40.140625 3.328125 35.546875 0.953125 
Q 30.953125 -1.421875 24.3125 -1.421875 
Q 15.921875 -1.421875 10.953125 3.296875 
Q 6 8.015625 6 15.921875 
Q 6 25.140625 12.171875 29.828125 
Q 18.359375 34.515625 30.609375 34.515625 
L 43.21875 34.515625 
L 43.21875 35.40625 
Q 43.21875 41.609375 39.140625 45 
Q 35.0625 48.390625 27.6875 48.390625 
Q 23 48.390625 18.546875 47.265625 
Q 14.109375 46.140625 10.015625 43.890625 
L 10.015625 52.203125 
Q 14.9375 54.109375 19.578125 55.046875 
Q 24.21875 56 28.609375 56 
Q 40.484375 56 46.34375 49.84375 
Q 52.203125 43.703125 52.203125 31.203125 
" id="DejaVuSans-61"/>
      <path d="M 44.28125 53.078125 
L 44.28125 44.578125 
Q 40.484375 46.53125 36.375 47.5 
Q 32.28125 48.484375 27.875 48.484375 
Q 21.1875 48.484375 17.84375 46.4375 
Q 14.5 44.390625 14.5 40.28125 
Q 14.5 37.15625 16.890625 35.375 
Q 19.28125 33.59375 26.515625 31.984375 
L 29.59375 31.296875 
Q 39.15625 29.25 43.1875 25.515625 
Q 47.21875 21.78125 47.21875 15.09375 
Q 47.21875 7.46875 41.1875 3.015625 
Q 35.15625 -1.421875 24.609375 -1.421875 
Q 20.21875 -1.421875 15.453125 -0.5625 
Q 10.6875 0.296875 5.421875 2 
L 5.421875 11.28125 
Q 10.40625 8.6875 15.234375 7.390625 
Q 20.0625 6.109375 24.8125 6.109375 
Q 31.15625 6.109375 34.5625 8.28125 
Q 37.984375 10.453125 37.984375 14.40625 
Q 37.984375 18.0625 35.515625 20.015625 
Q 33.0625 21.96875 24.703125 23.78125 
L 21.578125 24.515625 
Q 13.234375 26.265625 9.515625 29.90625 
Q 5.8125 33.546875 5.8125 39.890625 
Q 5.8125 47.609375 11.28125 51.796875 
Q 16.75 56 26.8125 56 
Q 31.78125 56 36.171875 55.265625 
Q 40.578125 54.546875 44.28125 53.078125 
" id="DejaVuSans-73"/>
      <path d="M 25.390625 72.90625 
L 33.6875 72.90625 
L 8.296875 -9.28125 
L 0 -9.28125 
z
" id="DejaVuSans-2f"/>
      <path d="M 45.40625 46.390625 
L 45.40625 75.984375 
L 54.390625 75.984375 
L 54.390625 0 
L 45.40625 0 
L 45.40625 8.203125 
Q 42.578125 3.328125 38.25 0.953125 
Q 33.9375 -1.421875 27.875 -1.421875 
Q 17.96875 -1.421875 11.734375 6.484375 
Q 5.515625 14.40625 5.515625 27.296875 
Q 5.515625 40.1875 11.734375 48.09375 
Q 17.96875 56 27.875 56 
Q 33.9375 56 38.25 53.625 
Q 42.578125 51.265625 45.40625 46.390625 
M 14.796875 27.296875 
Q 14.796875 17.390625 18.875 11.75 
Q 22.953125 6.109375 30.078125 6.109375 
Q 37.203125 6.109375 41.296875 11.75 
Q 45.40625 17.390625 45.40625 27.296875 
Q 45.40625 37.203125 41.296875 42.84375 
Q 37.203125 48.484375 30.078125 48.484375 
Q 22.953125 48.484375 18.875 42.84375 
Q 14.796875 37.203125 14.796875 27.296875 
" id="DejaVuSans-64"/>
      <path d="M 9.421875 54.6875 
L 18.40625 54.6875 
L 18.40625 0 
L 9.421875 0 
z
M 9.421875 75.984375 
L 18.40625 75.984375 
L 18.40625 64.59375 
L 9.421875 64.59375 
z
" id="DejaVuSans-69"/>
      <path d="M 52 44.1875 
Q 55.375 50.25 60.0625 53.125 
Q 64.75 56 71.09375 56 
Q 79.640625 56 84.28125 50.015625 
Q 88.921875 44.046875 88.921875 33.015625 
L 88.921875 0 
L 79.890625 0 
L 79.890625 32.71875 
Q 79.890625 40.578125 77.09375 44.375 
Q 74.3125 48.1875 68.609375 48.1875 
Q 61.625 48.1875 57.5625 43.546875 
Q 53.515625 38.921875 53.515625 30.90625 
L 53.515625 0 
L 44.484375 0 
L 44.484375 32.71875 
Q 44.484375 40.625 41.703125 44.40625 
Q 38.921875 48.1875 33.109375 48.1875 
Q 26.21875 48.1875 22.15625 43.53125 
Q 18.109375 38.875 18.109375 30.90625 
L 18.109375 0 
L 9.078125 0 
L 9.078125 54.6875 
L 18.109375 54.6875 
L 18.109375 46.1875 
Q 21.1875 51.21875 25.484375 53.609375 
Q 29.78125 56 35.6875 56 
Q 41.65625 56 45.828125 52.96875 
Q 50 49.953125 52 44.1875 
" id="DejaVuSans-6d"/>
      <path d="M 54.890625 33.015625 
L 54.890625 0 
L 45.90625 0 
L 45.90625 32.71875 
Q 45.90625 40.484375 42.875 44.328125 
Q 39.84375 48.1875 33.796875 48.1875 
Q 26.515625 48.1875 22.3125 43.546875 
Q 18.109375 38.921875 18.109375 30.90625 
L 18.109375 0 
L 9.078125 0 
L 9.078125 54.6875 
L 18.109375 54.6875 
L 18.109375 46.1875 
Q 21.34375 51.125 25.703125 53.5625 
Q 30.078125 56 35.796875 56 
Q 45.21875 56 50.046875 50.171875 
Q 54.890625 44.34375 54.890625 33.015625 
" id="DejaVuSans-6e"/>
      <path d="M 8.015625 75.875 
L 15.828125 75.875 
Q 23.140625 64.359375 26.78125 53.3125 
Q 30.421875 42.28125 30.421875 31.390625 
Q 30.421875 20.453125 26.78125 9.375 
Q 23.140625 -1.703125 15.828125 -13.1875 
L 8.015625 -13.1875 
Q 14.5 -2 17.703125 9.0625 
Q 20.90625 20.125 20.90625 31.390625 
Q 20.90625 42.671875 17.703125 53.65625 
Q 14.5 64.65625 8.015625 75.875 
" id="DejaVuSans-29"/>
     </defs>
     <g transform="translate(107.015156 342.278812)scale(0.18 -0.18)">
      <use xlink:href="#DejaVuSans-6c"/>
      <use x="27.783203" xlink:href="#DejaVuSans-6f"/>
      <use x="88.964844" xlink:href="#DejaVuSans-67"/>
      <use x="152.441406" xlink:href="#DejaVuSans-31"/>
      <use x="216.064453" xlink:href="#DejaVuSans-30"/>
      <use x="279.6875" xlink:href="#DejaVuSans-20"/>
      <use x="311.474609" xlink:href="#DejaVuSans-6f"/>
      <use x="372.65625" xlink:href="#DejaVuSans-66"/>
      <use x="407.861328" xlink:href="#DejaVuSans-20"/>
      <use x="439.648438" xlink:href="#DejaVuSans-28"/>
      <use x="478.662109" xlink:href="#DejaVuSans-23"/>
      <use x="562.451172" xlink:href="#DejaVuSans-20"/>
      <use x="594.238281" xlink:href="#DejaVuSans-66"/>
      <use x="629.365234" xlink:href="#DejaVuSans-2d"/>
      <use x="665.449219" xlink:href="#DejaVuSans-65"/>
      <use x="726.972656" xlink:href="#DejaVuSans-76"/>
      <use x="786.152344" xlink:href="#DejaVuSans-61"/>
      <use x="847.431641" xlink:href="#DejaVuSans-6c"/>
      <use x="875.214844" xlink:href="#DejaVuSans-73"/>
      <use x="927.314453" xlink:href="#DejaVuSans-20"/>
      <use x="959.101562" xlink:href="#DejaVuSans-2f"/>
      <use x="992.792969" xlink:href="#DejaVuSans-20"/>
      <use x="1024.580078" xlink:href="#DejaVuSans-64"/>
      <use x="1088.056641" xlink:href="#DejaVuSans-69"/>
      <use x="1115.839844" xlink:href="#DejaVuSans-6d"/>
      <use x="1213.251953" xlink:href="#DejaVuSans-65"/>
      <use x="1274.775391" xlink:href="#DejaVuSans-6e"/>
      <use x="1338.154297" xlink:href="#DejaVuSans-73"/>
      <use x="1390.253906" xlink:href="#DejaVuSans-69"/>
      <use x="1418.037109" xlink:href="#DejaVuSans-6f"/>
      <use x="1479.21875" xlink:href="#DejaVuSans-6e"/>
      <use x="1542.597656" xlink:href="#DejaVuSans-29"/>
     </g>
    </g>
   </g>
   <g id="matplotlib.axis_2">
    <g id="ytick_1">
     <g id="line2d_29">
      <path clip-path="url(#p2f38a26fa1)" d="M 70.8 298.245375 
L 427.92 298.245375 
" style="fill:none;stroke:#b0b0b0;stroke-linecap:square;stroke-width:0.8;"/>
     </g>
     <g id="line2d_30">
      <defs>
       <path d="M 0 0 
L -3.5 0 
" id="m49af464119" style="stroke:#000000;stroke-width:0.8;"/>
      </defs>
      <g>
       <use style="stroke:#000000;stroke-width:0.8;" x="70.8" xlink:href="#m49af464119" y="298.245375"/>
      </g>
     </g>
     <g id="text_7">
      <!-- 0.0 -->
      <defs>
       <path d="M 10.6875 12.40625 
L 21 12.40625 
L 21 0 
L 10.6875 0 
z
" id="DejaVuSans-2e"/>
      </defs>
      <g transform="translate(31.99375 305.843812)scale(0.2 -0.2)">
       <use xlink:href="#DejaVuSans-30"/>
       <use x="63.623047" xlink:href="#DejaVuSans-2e"/>
       <use x="95.410156" xlink:href="#DejaVuSans-30"/>
      </g>
     </g>
    </g>
    <g id="ytick_2">
     <g id="line2d_31">
      <path clip-path="url(#p2f38a26fa1)" d="M 70.8 245.549929 
L 427.92 245.549929 
" style="fill:none;stroke:#b0b0b0;stroke-linecap:square;stroke-width:0.8;"/>
     </g>
     <g id="line2d_32">
      <g>
       <use style="stroke:#000000;stroke-width:0.8;" x="70.8" xlink:href="#m49af464119" y="245.549929"/>
      </g>
     </g>
     <g id="text_8">
      <!-- 0.2 -->
      <g transform="translate(31.99375 253.148367)scale(0.2 -0.2)">
       <use xlink:href="#DejaVuSans-30"/>
       <use x="63.623047" xlink:href="#DejaVuSans-2e"/>
       <use x="95.410156" xlink:href="#DejaVuSans-32"/>
      </g>
     </g>
    </g>
    <g id="ytick_3">
     <g id="line2d_33">
      <path clip-path="url(#p2f38a26fa1)" d="M 70.8 192.854484 
L 427.92 192.854484 
" style="fill:none;stroke:#b0b0b0;stroke-linecap:square;stroke-width:0.8;"/>
     </g>
     <g id="line2d_34">
      <g>
       <use style="stroke:#000000;stroke-width:0.8;" x="70.8" xlink:href="#m49af464119" y="192.854484"/>
      </g>
     </g>
     <g id="text_9">
      <!-- 0.4 -->
      <g transform="translate(31.99375 200.452921)scale(0.2 -0.2)">
       <use xlink:href="#DejaVuSans-30"/>
       <use x="63.623047" xlink:href="#DejaVuSans-2e"/>
       <use x="95.410156" xlink:href="#DejaVuSans-34"/>
      </g>
     </g>
    </g>
    <g id="ytick_4">
     <g id="line2d_35">
      <path clip-path="url(#p2f38a26fa1)" d="M 70.8 140.159038 
L 427.92 140.159038 
" style="fill:none;stroke:#b0b0b0;stroke-linecap:square;stroke-width:0.8;"/>
     </g>
     <g id="line2d_36">
      <g>
       <use style="stroke:#000000;stroke-width:0.8;" x="70.8" xlink:href="#m49af464119" y="140.159038"/>
      </g>
     </g>
     <g id="text_10">
      <!-- 0.6 -->
      <g transform="translate(31.99375 147.757476)scale(0.2 -0.2)">
       <use xlink:href="#DejaVuSans-30"/>
       <use x="63.623047" xlink:href="#DejaVuSans-2e"/>
       <use x="95.410156" xlink:href="#DejaVuSans-36"/>
      </g>
     </g>
    </g>
    <g id="ytick_5">
     <g id="line2d_37">
      <path clip-path="url(#p2f38a26fa1)" d="M 70.8 87.463593 
L 427.92 87.463593 
" style="fill:none;stroke:#b0b0b0;stroke-linecap:square;stroke-width:0.8;"/>
     </g>
     <g id="line2d_38">
      <g>
       <use style="stroke:#000000;stroke-width:0.8;" x="70.8" xlink:href="#m49af464119" y="87.463593"/>
      </g>
     </g>
     <g id="text_11">
      <!-- 0.8 -->
      <g transform="translate(31.99375 95.06203)scale(0.2 -0.2)">
       <use xlink:href="#DejaVuSans-30"/>
       <use x="63.623047" xlink:href="#DejaVuSans-2e"/>
       <use x="95.410156" xlink:href="#DejaVuSans-38"/>
      </g>
     </g>
    </g>
    <g id="ytick_6">
     <g id="line2d_39">
      <path clip-path="url(#p2f38a26fa1)" d="M 70.8 34.768147 
L 427.92 34.768147 
" style="fill:none;stroke:#b0b0b0;stroke-linecap:square;stroke-width:0.8;"/>
     </g>
     <g id="line2d_40">
      <g>
       <use style="stroke:#000000;stroke-width:0.8;" x="70.8" xlink:href="#m49af464119" y="34.768147"/>
      </g>
     </g>
     <g id="text_12">
      <!-- 1.0 -->
      <g transform="translate(31.99375 42.366585)scale(0.2 -0.2)">
       <use xlink:href="#DejaVuSans-31"/>
       <use x="63.623047" xlink:href="#DejaVuSans-2e"/>
       <use x="95.410156" xlink:href="#DejaVuSans-30"/>
      </g>
     </g>
    </g>
    <g id="text_13">
     <!-- Proportion of function+target pairs -->
     <defs>
      <path d="M 19.671875 64.796875 
L 19.671875 37.40625 
L 32.078125 37.40625 
Q 38.96875 37.40625 42.71875 40.96875 
Q 46.484375 44.53125 46.484375 51.125 
Q 46.484375 57.671875 42.71875 61.234375 
Q 38.96875 64.796875 32.078125 64.796875 
z
M 9.8125 72.90625 
L 32.078125 72.90625 
Q 44.34375 72.90625 50.609375 67.359375 
Q 56.890625 61.8125 56.890625 51.125 
Q 56.890625 40.328125 50.609375 34.8125 
Q 44.34375 29.296875 32.078125 29.296875 
L 19.671875 29.296875 
L 19.671875 0 
L 9.8125 0 
z
" id="DejaVuSans-50"/>
      <path d="M 41.109375 46.296875 
Q 39.59375 47.171875 37.8125 47.578125 
Q 36.03125 48 33.890625 48 
Q 26.265625 48 22.1875 43.046875 
Q 18.109375 38.09375 18.109375 28.8125 
L 18.109375 0 
L 9.078125 0 
L 9.078125 54.6875 
L 18.109375 54.6875 
L 18.109375 46.1875 
Q 20.953125 51.171875 25.484375 53.578125 
Q 30.03125 56 36.53125 56 
Q 37.453125 56 38.578125 55.875 
Q 39.703125 55.765625 41.0625 55.515625 
z
" id="DejaVuSans-72"/>
      <path d="M 18.109375 8.203125 
L 18.109375 -20.796875 
L 9.078125 -20.796875 
L 9.078125 54.6875 
L 18.109375 54.6875 
L 18.109375 46.390625 
Q 20.953125 51.265625 25.265625 53.625 
Q 29.59375 56 35.59375 56 
Q 45.5625 56 51.78125 48.09375 
Q 58.015625 40.1875 58.015625 27.296875 
Q 58.015625 14.40625 51.78125 6.484375 
Q 45.5625 -1.421875 35.59375 -1.421875 
Q 29.59375 -1.421875 25.265625 0.953125 
Q 20.953125 3.328125 18.109375 8.203125 
M 48.6875 27.296875 
Q 48.6875 37.203125 44.609375 42.84375 
Q 40.53125 48.484375 33.40625 48.484375 
Q 26.265625 48.484375 22.1875 42.84375 
Q 18.109375 37.203125 18.109375 27.296875 
Q 18.109375 17.390625 22.1875 11.75 
Q 26.265625 6.109375 33.40625 6.109375 
Q 40.53125 6.109375 44.609375 11.75 
Q 48.6875 17.390625 48.6875 27.296875 
" id="DejaVuSans-70"/>
      <path d="M 18.3125 70.21875 
L 18.3125 54.6875 
L 36.8125 54.6875 
L 36.8125 47.703125 
L 18.3125 47.703125 
L 18.3125 18.015625 
Q 18.3125 11.328125 20.140625 9.421875 
Q 21.96875 7.515625 27.59375 7.515625 
L 36.8125 7.515625 
L 36.8125 0 
L 27.59375 0 
Q 17.1875 0 13.234375 3.875 
Q 9.28125 7.765625 9.28125 18.015625 
L 9.28125 47.703125 
L 2.6875 47.703125 
L 2.6875 54.6875 
L 9.28125 54.6875 
L 9.28125 70.21875 
z
" id="DejaVuSans-74"/>
      <path d="M 8.5 21.578125 
L 8.5 54.6875 
L 17.484375 54.6875 
L 17.484375 21.921875 
Q 17.484375 14.15625 20.5 10.265625 
Q 23.53125 6.390625 29.59375 6.390625 
Q 36.859375 6.390625 41.078125 11.03125 
Q 45.3125 15.671875 45.3125 23.6875 
L 45.3125 54.6875 
L 54.296875 54.6875 
L 54.296875 0 
L 45.3125 0 
L 45.3125 8.40625 
Q 42.046875 3.421875 37.71875 1 
Q 33.40625 -1.421875 27.6875 -1.421875 
Q 18.265625 -1.421875 13.375 4.4375 
Q 8.5 10.296875 8.5 21.578125 
M 31.109375 56 
z
" id="DejaVuSans-75"/>
      <path d="M 48.78125 52.59375 
L 48.78125 44.1875 
Q 44.96875 46.296875 41.140625 47.34375 
Q 37.3125 48.390625 33.40625 48.390625 
Q 24.65625 48.390625 19.8125 42.84375 
Q 14.984375 37.3125 14.984375 27.296875 
Q 14.984375 17.28125 19.8125 11.734375 
Q 24.65625 6.203125 33.40625 6.203125 
Q 37.3125 6.203125 41.140625 7.25 
Q 44.96875 8.296875 48.78125 10.40625 
L 48.78125 2.09375 
Q 45.015625 0.34375 40.984375 -0.53125 
Q 36.96875 -1.421875 32.421875 -1.421875 
Q 20.0625 -1.421875 12.78125 6.34375 
Q 5.515625 14.109375 5.515625 27.296875 
Q 5.515625 40.671875 12.859375 48.328125 
Q 20.21875 56 33.015625 56 
Q 37.15625 56 41.109375 55.140625 
Q 45.0625 54.296875 48.78125 52.59375 
" id="DejaVuSans-63"/>
      <path d="M 46 62.703125 
L 46 35.5 
L 73.1875 35.5 
L 73.1875 27.203125 
L 46 27.203125 
L 46 0 
L 37.796875 0 
L 37.796875 27.203125 
L 10.59375 27.203125 
L 10.59375 35.5 
L 37.796875 35.5 
L 37.796875 62.703125 
z
" id="DejaVuSans-2b"/>
     </defs>
     <g transform="translate(24.250312 323.17875)rotate(-90)scale(0.18 -0.18)">
      <use xlink:href="#DejaVuSans-50"/>
      <use x="60.287109" xlink:href="#DejaVuSans-72"/>
      <use x="101.369141" xlink:href="#DejaVuSans-6f"/>
      <use x="162.550781" xlink:href="#DejaVuSans-70"/>
      <use x="226.027344" xlink:href="#DejaVuSans-6f"/>
      <use x="287.208984" xlink:href="#DejaVuSans-72"/>
      <use x="328.322266" xlink:href="#DejaVuSans-74"/>
      <use x="367.53125" xlink:href="#DejaVuSans-69"/>
      <use x="395.314453" xlink:href="#DejaVuSans-6f"/>
      <use x="456.496094" xlink:href="#DejaVuSans-6e"/>
      <use x="519.875" xlink:href="#DejaVuSans-20"/>
      <use x="551.662109" xlink:href="#DejaVuSans-6f"/>
      <use x="612.84375" xlink:href="#DejaVuSans-66"/>
      <use x="648.048828" xlink:href="#DejaVuSans-20"/>
      <use x="679.835938" xlink:href="#DejaVuSans-66"/>
      <use x="715.041016" xlink:href="#DejaVuSans-75"/>
      <use x="778.419922" xlink:href="#DejaVuSans-6e"/>
      <use x="841.798828" xlink:href="#DejaVuSans-63"/>
      <use x="896.779297" xlink:href="#DejaVuSans-74"/>
      <use x="935.988281" xlink:href="#DejaVuSans-69"/>
      <use x="963.771484" xlink:href="#DejaVuSans-6f"/>
      <use x="1024.953125" xlink:href="#DejaVuSans-6e"/>
      <use x="1088.332031" xlink:href="#DejaVuSans-2b"/>
      <use x="1172.121094" xlink:href="#DejaVuSans-74"/>
      <use x="1211.330078" xlink:href="#DejaVuSans-61"/>
      <use x="1272.609375" xlink:href="#DejaVuSans-72"/>
      <use x="1313.707031" xlink:href="#DejaVuSans-67"/>
      <use x="1377.183594" xlink:href="#DejaVuSans-65"/>
      <use x="1438.707031" xlink:href="#DejaVuSans-74"/>
      <use x="1477.916016" xlink:href="#DejaVuSans-20"/>
      <use x="1509.703125" xlink:href="#DejaVuSans-70"/>
      <use x="1573.179688" xlink:href="#DejaVuSans-61"/>
      <use x="1634.458984" xlink:href="#DejaVuSans-69"/>
      <use x="1662.242188" xlink:href="#DejaVuSans-72"/>
      <use x="1703.355469" xlink:href="#DejaVuSans-73"/>
     </g>
    </g>
   </g>
   <g id="line2d_41">
    <defs>
     <path d="M 0 1.5 
C 0.397805 1.5 0.77937 1.341951 1.06066 1.06066 
C 1.341951 0.77937 1.5 0.397805 1.5 0 
C 1.5 -0.397805 1.341951 -0.77937 1.06066 -1.06066 
C 0.77937 -1.341951 0.397805 -1.5 0 -1.5 
C -0.397805 -1.5 -0.77937 -1.341951 -1.06066 -1.06066 
C -1.341951 -0.77937 -1.5 -0.397805 -1.5 0 
C -1.5 0.397805 -1.341951 0.77937 -1.06066 1.06066 
C -0.77937 1.341951 -0.397805 1.5 0 1.5 
z
" id="mf93066d081" style="stroke:#000080;"/>
    </defs>
    <g>
     <use style="fill:#000080;stroke:#000080;" x="157.842261" xlink:href="#mf93066d081" y="34.768147"/>
     <use style="fill:#000080;stroke:#000080;" x="157.842261" xlink:href="#mf93066d081" y="34.768147"/>
    </g>
   </g>
   <g id="line2d_42">
    <path d="M 58.414766 298.245375 
L 58.414766 273.96414 
L 70.8 273.96414 
L 70.8 272.930896 
L 78.044898 272.930896 
L 78.044898 267.248054 
L 83.185234 267.248054 
L 83.185234 264.148322 
L 87.172389 264.148322 
L 87.172389 263.115078 
L 90.430132 263.115078 
L 90.430132 261.04859 
L 93.184514 261.04859 
L 93.184514 260.531968 
L 95.570468 260.531968 
L 95.570468 257.432236 
L 101.260636 257.432236 
L 101.260636 255.365748 
L 102.815366 255.365748 
L 102.815366 253.815882 
L 105.569748 253.815882 
L 105.569748 252.782638 
L 107.955702 252.782638 
L 107.955702 251.749394 
L 109.03895 251.749394 
L 109.03895 251.232772 
L 110.060263 251.232772 
L 110.060263 250.71615 
L 113.64587 250.71615 
L 113.64587 248.13304 
L 114.44014 248.13304 
L 114.44014 247.099796 
L 115.930012 247.099796 
L 115.930012 245.549929 
L 116.630812 245.549929 
L 116.630812 245.033307 
L 117.305161 245.033307 
L 117.305161 242.966819 
L 119.187755 242.966819 
L 119.187755 241.933575 
L 119.773647 241.933575 
L 119.773647 240.900331 
L 120.340936 240.900331 
L 120.340936 237.283977 
L 121.942137 237.283977 
L 121.942137 231.601135 
L 122.445497 231.601135 
L 122.445497 229.534647 
L 122.935065 229.534647 
L 122.935065 229.018025 
L 123.411577 229.018025 
L 123.411577 227.984781 
L 123.87571 227.984781 
L 123.87571 227.468159 
L 124.328091 227.468159 
L 124.328091 224.885049 
L 124.769302 224.885049 
L 124.769302 224.368427 
L 125.620325 224.368427 
L 125.620325 223.335183 
L 126.031105 223.335183 
L 126.031105 222.818561 
L 126.432652 222.818561 
L 126.432652 221.785317 
L 127.209649 221.785317 
L 127.209649 219.202207 
L 127.585834 219.202207 
L 127.585834 214.035987 
L 128.315246 214.035987 
L 128.315246 211.452876 
L 128.669082 211.452876 
L 128.669082 210.419632 
L 130.018259 210.419632 
L 130.018259 209.386388 
L 130.967232 209.386388 
L 130.967232 203.703546 
L 132.158881 203.703546 
L 132.158881 203.186924 
L 132.444777 203.186924 
L 132.444777 201.120436 
L 132.726171 201.120436 
L 132.726171 198.537326 
L 133.003201 198.537326 
L 133.003201 198.020704 
L 133.276002 198.020704 
L 133.276002 195.437594 
L 133.544701 195.437594 
L 133.544701 192.854484 
L 134.070271 192.854484 
L 134.070271 191.82124 
L 134.580824 191.82124 
L 134.580824 190.787996 
L 134.830731 190.787996 
L 134.830731 186.65502 
L 135.560144 186.65502 
L 135.560144 185.105154 
L 136.713325 185.105154 
L 136.713325 180.455556 
L 138.005559 180.455556 
L 138.005559 176.839201 
L 138.212129 176.839201 
L 138.212129 173.222847 
L 138.416339 173.222847 
L 138.416339 170.639737 
L 139.210608 170.639737 
L 139.210608 168.573249 
L 139.594883 168.573249 
L 139.594883 164.440273 
L 139.783966 164.440273 
L 139.783966 163.923651 
L 140.156232 163.923651 
L 140.156232 162.373785 
L 140.5209 162.373785 
L 140.5209 156.174321 
L 140.70048 156.174321 
L 140.70048 155.657699 
L 141.22864 155.657699 
L 141.22864 151.008101 
L 141.40128 151.008101 
L 141.40128 150.491479 
L 141.572268 150.491479 
L 141.572268 149.974857 
L 141.741636 149.974857 
L 141.741636 149.458235 
L 142.240313 149.458235 
L 142.240313 147.908369 
L 142.403494 147.908369 
L 142.403494 145.841881 
L 142.565197 145.841881 
L 142.565197 145.325259 
L 142.72545 145.325259 
L 142.72545 144.292014 
L 142.884279 144.292014 
L 142.884279 143.775392 
L 143.041708 143.775392 
L 143.041708 142.742148 
L 143.352466 142.742148 
L 143.352466 142.225526 
L 143.505841 142.225526 
L 143.505841 137.059306 
L 143.657911 137.059306 
L 143.657911 135.50944 
L 143.958223 135.50944 
L 143.958223 131.376464 
L 144.25357 131.376464 
L 144.25357 126.726866 
L 144.399433 126.726866 
L 144.399433 126.210244 
L 144.544115 126.210244 
L 144.544115 125.693622 
L 144.971262 125.693622 
L 144.971262 124.660378 
L 145.111405 124.660378 
L 145.111405 124.143756 
L 145.796091 124.143756 
L 145.796091 121.560646 
L 145.929935 121.560646 
L 145.929935 118.460914 
L 146.194652 118.460914 
L 146.194652 111.744828 
L 146.325555 111.744828 
L 146.325555 110.711584 
L 146.839781 110.711584 
L 146.839781 108.128473 
L 146.966058 108.128473 
L 146.966058 107.611851 
L 147.462426 107.611851 
L 147.462426 106.578607 
L 147.705534 106.578607 
L 147.705534 105.028741 
L 147.825858 105.028741 
L 147.825858 103.995497 
L 148.415618 103.995497 
L 148.415618 102.445631 
L 148.646178 102.445631 
L 148.646178 101.412387 
L 148.760352 101.412387 
L 148.760352 96.246167 
L 149.430484 96.246167 
L 149.53977 94.179679 
L 149.648391 94.179679 
L 149.756356 92.629813 
L 149.970348 92.629813 
L 150.07639 79.714263 
L 150.286606 79.714263 
L 150.390793 75.581286 
L 150.494377 75.581286 
L 150.597364 71.44831 
L 151.003475 71.44831 
L 151.103576 68.348578 
L 151.20312 68.348578 
L 151.302113 65.765468 
L 151.595842 65.765468 
L 151.595842 64.215602 
L 152.074909 64.215602 
L 152.074909 63.182358 
L 152.262996 63.182358 
L 152.262996 60.599248 
L 152.449124 60.599248 
L 152.541466 55.94965 
L 152.633333 55.94965 
L 152.72473 53.883162 
L 152.815662 53.883162 
L 152.815662 50.78343 
L 153.263508 50.78343 
L 153.351746 47.683698 
L 153.526925 47.683698 
L 153.526925 46.650454 
L 153.786515 46.650454 
L 153.786515 45.61721 
L 154.210955 45.61721 
L 154.294647 42.517478 
L 154.543395 42.517478 
L 154.543395 41.484233 
L 155.582997 41.484233 
L 155.582997 39.934367 
L 155.7377 39.934367 
L 155.7377 39.417745 
L 156.118698 39.417745 
L 156.118698 38.384501 
L 156.417753 38.384501 
L 156.417753 37.351257 
L 156.565424 37.351257 
L 156.565424 36.834635 
L 156.929349 36.834635 
L 156.929349 36.318013 
L 157.426705 36.318013 
L 157.426705 35.801391 
L 157.842261 35.801391 
L 157.842261 34.768147 
L 358.8 34.768147 
L 358.8 34.768147 
" style="fill:none;stroke:#000080;stroke-linecap:square;stroke-width:1.5;"/>
   </g>
   <g id="line2d_43">
    <defs>
     <path d="M 0 6 
C 1.591219 6 3.117479 5.367802 4.242641 4.242641 
C 5.367802 3.117479 6 1.591219 6 0 
C 6 -1.591219 5.367802 -3.117479 4.242641 -4.242641 
C 3.117479 -5.367802 1.591219 -6 0 -6 
C -1.591219 -6 -3.117479 -5.367802 -4.242641 -4.242641 
C -5.367802 -3.117479 -6 -1.591219 -6 0 
C -6 1.591219 -5.367802 3.117479 -4.242641 4.242641 
C -3.117479 5.367802 -1.591219 6 0 6 
z
" id="m0181641bc2" style="stroke:#000080;stroke-width:1.5;"/>
    </defs>
    <g>
     <use style="fill:none;stroke:#000080;stroke-width:1.5;" x="125.620325" xlink:href="#m0181641bc2" y="224.368427"/>
     <use style="fill:none;stroke:#000080;stroke-width:1.5;" x="149.756356" xlink:href="#m0181641bc2" y="92.629813"/>
     <use style="fill:none;stroke:#000080;stroke-width:1.5;" x="157.842261" xlink:href="#m0181641bc2" y="35.801391"/>
     <use style="fill:none;stroke:#000080;stroke-width:1.5;" x="157.842261" xlink:href="#m0181641bc2" y="34.768147"/>
     <use style="fill:none;stroke:#000080;stroke-width:1.5;" x="157.842261" xlink:href="#m0181641bc2" y="34.768147"/>
     <use style="fill:none;stroke:#000080;stroke-width:1.5;" x="358.8" xlink:href="#m0181641bc2" y="34.768147"/>
    </g>
   </g>
   <g id="line2d_44"/>
   <g id="line2d_45">
    <defs>
     <path d="M 0 1.5 
C 0.397805 1.5 0.77937 1.341951 1.06066 1.06066 
C 1.341951 0.77937 1.5 0.397805 1.5 0 
C 1.5 -0.397805 1.341951 -0.77937 1.06066 -1.06066 
C 0.77937 -1.341951 0.397805 -1.5 0 -1.5 
C -0.397805 -1.5 -0.77937 -1.341951 -1.06066 -1.06066 
C -1.341951 -0.77937 -1.5 -0.397805 -1.5 0 
C -1.5 0.397805 -1.341951 0.77937 -1.06066 1.06066 
C -0.77937 1.341951 -0.397805 1.5 0 1.5 
z
" id="mdfe8265251" style="stroke:#ff00ff;"/>
    </defs>
    <g>
     <use style="fill:#ff00ff;stroke:#ff00ff;" x="215.341069" xlink:href="#mdfe8265251" y="220.752073"/>
     <use style="fill:#ff00ff;stroke:#ff00ff;" x="215.341069" xlink:href="#mdfe8265251" y="220.752073"/>
    </g>
   </g>
   <g id="line2d_46">
    <path d="M 124.328091 298.245375 
L 124.328091 297.728753 
L 125.620325 297.728753 
L 125.620325 296.695509 
L 131.272677 296.695509 
L 131.272677 294.629021 
L 132.726171 294.629021 
L 132.726171 289.979423 
L 134.327371 289.979423 
L 134.327371 287.912935 
L 136.030384 287.912935 
L 136.030384 281.713471 
L 136.260944 281.713471 
L 136.260944 281.196849 
L 136.935292 281.196849 
L 136.935292 280.680226 
L 137.154536 280.680226 
L 137.154536 279.646982 
L 137.585114 279.646982 
L 137.585114 279.13036 
L 138.416339 279.13036 
L 138.416339 276.54725 
L 138.817886 276.54725 
L 138.817886 271.897652 
L 139.210608 271.897652 
L 139.210608 270.864408 
L 139.971068 270.864408 
L 139.971068 267.764676 
L 140.70048 267.764676 
L 140.70048 266.731432 
L 142.075629 266.731432 
L 142.075629 266.21481 
L 143.808698 266.21481 
L 143.808698 264.664944 
L 145.388435 264.664944 
L 145.388435 263.115078 
L 146.062784 263.115078 
L 146.062784 262.598456 
L 146.455505 262.598456 
L 146.455505 262.081834 
L 146.712605 262.081834 
L 146.712605 261.565212 
L 167.929345 261.565212 
L 167.929345 261.04859 
L 168.122934 261.04859 
L 168.122934 260.531968 
L 168.352506 260.531968 
L 168.352506 260.015346 
L 168.616665 260.015346 
L 168.616665 258.46548 
L 168.802987 258.46548 
L 168.876975 256.398992 
L 169.024039 256.398992 
L 169.097119 252.782638 
L 169.314583 252.782638 
L 169.314583 252.266016 
L 169.458103 252.266016 
L 169.529433 251.232772 
L 169.881873 251.232772 
L 169.881873 250.199528 
L 170.124509 250.199528 
L 170.124509 249.682906 
L 170.261693 249.682906 
L 170.261693 249.166284 
L 171.451137 249.166284 
L 171.451137 248.13304 
L 179.599759 248.13304 
L 179.599759 247.099796 
L 179.720899 247.099796 
L 179.801206 245.033307 
L 179.841224 245.033307 
L 179.841224 244.516685 
L 179.960743 244.516685 
L 179.960743 244.000063 
L 180.334033 244.000063 
L 180.411636 242.966819 
L 180.508168 242.966819 
L 180.546636 241.933575 
L 180.699683 241.933575 
L 180.699683 241.416953 
L 185.958682 241.416953 
L 185.958682 240.383709 
L 186.212334 240.383709 
L 186.282159 238.833843 
L 186.393314 238.833843 
L 186.476229 236.250733 
L 186.531292 236.250733 
L 186.640913 235.217489 
L 187.046103 235.217489 
L 187.046103 234.700867 
L 187.324366 234.700867 
L 187.324366 234.184245 
L 190.888446 234.184245 
L 190.888446 233.667623 
L 191.198089 233.667623 
L 191.198089 233.151001 
L 191.523259 233.151001 
L 191.523259 232.634379 
L 191.719671 232.634379 
L 191.719671 231.601135 
L 194.903582 231.601135 
L 194.903582 231.084513 
L 195.420797 231.084513 
L 195.420797 230.567891 
L 198.172791 230.567891 
L 198.172791 229.534647 
L 198.414737 229.534647 
L 198.485278 227.984781 
L 200.805991 227.984781 
L 200.805991 227.468159 
L 201.227587 227.468159 
L 201.227587 226.951537 
L 203.122254 226.951537 
L 203.122254 226.434915 
L 203.364995 226.434915 
L 203.364995 225.918293 
L 205.172422 225.918293 
L 205.191781 224.885049 
L 205.503456 224.885049 
L 205.503456 224.368427 
L 207.011382 224.368427 
L 207.011382 223.851805 
L 207.137628 223.851805 
L 207.137628 223.335183 
L 208.678615 223.335183 
L 208.678615 222.818561 
L 210.203473 222.818561 
L 210.203473 222.301939 
L 211.706057 222.301939 
L 211.706057 221.785317 
L 214.23588 221.785317 
L 214.23588 221.268695 
L 215.341069 221.268695 
L 215.341069 220.752073 
L 358.8 220.752073 
L 358.8 220.752073 
" style="fill:none;stroke:#ff00ff;stroke-linecap:square;stroke-width:1.5;"/>
   </g>
   <g id="line2d_47">
    <defs>
     <path d="M -0 8.485281 
L 5.091169 0 
L 0 -8.485281 
L -5.091169 -0 
z
" id="m22fd09c289" style="stroke:#ff00ff;stroke-linejoin:miter;stroke-width:1.5;"/>
    </defs>
    <g>
     <use style="fill:none;stroke:#ff00ff;stroke-linejoin:miter;stroke-width:1.5;" x="180.699683" xlink:href="#m22fd09c289" y="241.933575"/>
     <use style="fill:none;stroke:#ff00ff;stroke-linejoin:miter;stroke-width:1.5;" x="215.341069" xlink:href="#m22fd09c289" y="221.268695"/>
     <use style="fill:none;stroke:#ff00ff;stroke-linejoin:miter;stroke-width:1.5;" x="215.341069" xlink:href="#m22fd09c289" y="220.752073"/>
     <use style="fill:none;stroke:#ff00ff;stroke-linejoin:miter;stroke-width:1.5;" x="215.341069" xlink:href="#m22fd09c289" y="220.752073"/>
     <use style="fill:none;stroke:#ff00ff;stroke-linejoin:miter;stroke-width:1.5;" x="358.8" xlink:href="#m22fd09c289" y="220.752073"/>
    </g>
   </g>
   <g id="line2d_48"/>
   <g id="line2d_49">
    <path clip-path="url(#p2f38a26fa1)" d="M 165.470948 261.565212 
" style="fill:none;stroke:#ff00ff;stroke-linecap:square;stroke-width:1.5;"/>
    <defs>
     <path d="M -12 12 
L 12 -12 
M -12 -12 
L 12 12 
" id="mb1ec09ba16" style="stroke:#ff00ff;stroke-width:3;"/>
    </defs>
    <g clip-path="url(#p2f38a26fa1)">
     <use style="fill:#ff00ff;stroke:#ff00ff;stroke-width:3;" x="165.470948" xlink:href="#mb1ec09ba16" y="261.565212"/>
    </g>
   </g>
   <g id="line2d_50">
    <defs>
     <path d="M 0 1.5 
C 0.397805 1.5 0.77937 1.341951 1.06066 1.06066 
C 1.341951 0.77937 1.5 0.397805 1.5 0 
C 1.5 -0.397805 1.341951 -0.77937 1.06066 -1.06066 
C 0.77937 -1.341951 0.397805 -1.5 0 -1.5 
C -0.397805 -1.5 -0.77937 -1.341951 -1.06066 -1.06066 
C -1.341951 -0.77937 -1.5 -0.397805 -1.5 0 
C -1.5 0.397805 -1.341951 0.77937 -1.06066 1.06066 
C -0.77937 1.341951 -0.397805 1.5 0 1.5 
z
" id="m522a9878da" style="stroke:#ffa500;"/>
    </defs>
    <g>
     <use style="fill:#ffa500;stroke:#ffa500;" x="216.436083" xlink:href="#m522a9878da" y="241.416953"/>
     <use style="fill:#ffa500;stroke:#ffa500;" x="216.436083" xlink:href="#m522a9878da" y="241.416953"/>
    </g>
   </g>
   <g id="line2d_51">
    <path d="M 58.414766 298.245375 
L 58.414766 290.496045 
L 78.044898 290.496045 
L 78.044898 289.979423 
L 83.185234 289.979423 
L 83.185234 288.946179 
L 90.430132 288.946179 
L 90.430132 288.429557 
L 93.184514 288.429557 
L 93.184514 287.912935 
L 95.570468 287.912935 
L 95.570468 284.813203 
L 99.557623 284.813203 
L 99.557623 284.296581 
L 106.802521 284.296581 
L 106.802521 283.779959 
L 107.955702 283.779959 
L 107.955702 283.263337 
L 109.03895 283.263337 
L 109.03895 282.230093 
L 110.060263 282.230093 
L 110.060263 281.196849 
L 114.44014 281.196849 
L 114.44014 280.163604 
L 115.2006 280.163604 
L 115.2006 279.646982 
L 116.630812 279.646982 
L 116.630812 279.13036 
L 117.305161 279.13036 
L 117.305161 278.097116 
L 119.187755 278.097116 
L 119.187755 277.580494 
L 119.773647 277.580494 
L 119.773647 277.063872 
L 120.340936 277.063872 
L 120.340936 274.480762 
L 121.942137 274.480762 
L 121.942137 273.96414 
L 123.411577 273.96414 
L 123.411577 273.447518 
L 126.825374 273.447518 
L 126.825374 272.930896 
L 127.585834 272.930896 
L 127.585834 272.414274 
L 128.669082 272.414274 
L 128.669082 271.38103 
L 129.356402 271.38103 
L 129.356402 268.79792 
L 130.340216 268.79792 
L 130.340216 266.731432 
L 133.003201 266.731432 
L 133.003201 266.21481 
L 134.580824 266.21481 
L 134.580824 265.181566 
L 135.560144 265.181566 
L 135.560144 264.148322 
L 136.488566 264.148322 
L 136.488566 263.6317 
L 137.585114 263.6317 
L 137.585114 263.115078 
L 139.015326 263.115078 
L 139.015326 262.081834 
L 144.25357 262.081834 
L 144.25357 261.565212 
L 145.525356 261.565212 
L 145.525356 261.04859 
L 150.69976 261.04859 
L 150.69976 260.531968 
L 152.262996 260.531968 
L 152.262996 260.015346 
L 166.846097 260.015346 
L 166.846097 259.498724 
L 167.173962 259.498724 
L 167.173962 258.982102 
L 167.694235 258.982102 
L 167.694235 258.46548 
L 167.812177 258.46548 
L 167.812177 257.432236 
L 168.161402 257.432236 
L 168.161402 256.915614 
L 168.390483 256.915614 
L 168.390483 256.398992 
L 168.876975 256.398992 
L 168.876975 255.88237 
L 170.227495 255.88237 
L 170.227495 255.365748 
L 170.700403 255.365748 
L 170.700403 254.849126 
L 171.955386 254.849126 
L 171.955386 254.332504 
L 179.002383 254.332504 
L 179.002383 253.29926 
L 179.375513 253.29926 
L 179.375513 252.782638 
L 179.640231 252.782638 
L 179.640231 251.232772 
L 180.565838 251.232772 
L 180.565838 250.71615 
L 181.390956 250.71615 
L 181.390956 250.199528 
L 186.128183 250.199528 
L 186.128183 249.682906 
L 186.310013 249.682906 
L 186.310013 249.166284 
L 186.952377 249.166284 
L 186.952377 248.649662 
L 191.155697 248.649662 
L 191.155697 248.13304 
L 191.554415 248.13304 
L 191.64756 247.099796 
L 194.722002 247.099796 
L 194.722002 246.583173 
L 198.471192 246.583173 
L 198.471192 246.066551 
L 200.768856 246.066551 
L 200.768856 245.549929 
L 201.057702 245.549929 
L 201.088158 244.516685 
L 206.862224 244.516685 
L 206.862224 244.000063 
L 208.530762 244.000063 
L 208.530762 243.483441 
L 210.352663 243.483441 
L 210.352663 242.966819 
L 211.544079 242.966819 
L 211.544079 242.450197 
L 216.241679 242.450197 
L 216.241679 241.933575 
L 216.436083 241.933575 
L 216.436083 241.416953 
L 358.8 241.416953 
L 358.8 241.416953 
" style="fill:none;stroke:#ffa500;stroke-linecap:square;stroke-width:1.5;"/>
   </g>
   <g id="line2d_52">
    <defs>
     <path d="M 0 -6 
L -1.347084 -1.854102 
L -5.706339 -1.854102 
L -2.179628 0.708204 
L -3.526712 4.854102 
L -0 2.291796 
L 3.526712 4.854102 
L 2.179628 0.708204 
L 5.706339 -1.854102 
L 1.347084 -1.854102 
z
" id="m95d708f17b" style="stroke:#ffa500;stroke-linejoin:bevel;stroke-width:1.5;"/>
    </defs>
    <g>
     <use style="fill:none;stroke:#ffa500;stroke-linejoin:bevel;stroke-width:1.5;" x="133.003201" xlink:href="#m95d708f17b" y="266.731432"/>
     <use style="fill:none;stroke:#ffa500;stroke-linejoin:bevel;stroke-width:1.5;" x="179.640231" xlink:href="#m95d708f17b" y="252.782638"/>
     <use style="fill:none;stroke:#ffa500;stroke-linejoin:bevel;stroke-width:1.5;" x="216.436083" xlink:href="#m95d708f17b" y="241.933575"/>
     <use style="fill:none;stroke:#ffa500;stroke-linejoin:bevel;stroke-width:1.5;" x="216.436083" xlink:href="#m95d708f17b" y="241.416953"/>
     <use style="fill:none;stroke:#ffa500;stroke-linejoin:bevel;stroke-width:1.5;" x="216.436083" xlink:href="#m95d708f17b" y="241.416953"/>
     <use style="fill:none;stroke:#ffa500;stroke-linejoin:bevel;stroke-width:1.5;" x="358.8" xlink:href="#m95d708f17b" y="241.416953"/>
    </g>
   </g>
   <g id="line2d_53"/>
   <g id="line2d_54">
    <path clip-path="url(#p2f38a26fa1)" d="M 165.470948 260.015346 
" style="fill:none;stroke:#ffa500;stroke-linecap:square;stroke-width:1.5;"/>
    <defs>
     <path d="M -12 12 
L 12 -12 
M -12 -12 
L 12 12 
" id="m8c8f50486e" style="stroke:#ffa500;stroke-width:3;"/>
    </defs>
    <g clip-path="url(#p2f38a26fa1)">
     <use style="fill:#ffa500;stroke:#ffa500;stroke-width:3;" x="165.470948" xlink:href="#m8c8f50486e" y="260.015346"/>
    </g>
   </g>
   <g id="line2d_55">
    <defs>
     <path d="M 0 1.5 
C 0.397805 1.5 0.77937 1.341951 1.06066 1.06066 
C 1.341951 0.77937 1.5 0.397805 1.5 0 
C 1.5 -0.397805 1.341951 -0.77937 1.06066 -1.06066 
C 0.77937 -1.341951 0.397805 -1.5 0 -1.5 
C -0.397805 -1.5 -0.77937 -1.341951 -1.06066 -1.06066 
C -1.341951 -0.77937 -1.5 -0.397805 -1.5 0 
C -1.5 0.397805 -1.341951 0.77937 -1.06066 1.06066 
C -0.77937 1.341951 -0.397805 1.5 0 1.5 
z
" id="m5ae761b13b" style="stroke:#6495ed;"/>
    </defs>
    <g>
     <use style="fill:#6495ed;stroke:#6495ed;" x="234.365349" xlink:href="#m5ae761b13b" y="34.768147"/>
     <use style="fill:#6495ed;stroke:#6495ed;" x="234.365349" xlink:href="#m5ae761b13b" y="34.768147"/>
    </g>
   </g>
   <g id="line2d_56">
    <path d="M 58.414766 298.245375 
L 58.414766 293.079155 
L 70.8 293.079155 
L 70.8 292.562533 
L 83.185234 292.562533 
L 83.185234 291.529289 
L 90.430132 291.529289 
L 90.430132 289.462801 
L 95.570468 289.462801 
L 95.570468 288.946179 
L 97.675029 288.946179 
L 97.675029 286.879691 
L 102.815366 286.879691 
L 102.815366 285.846447 
L 105.569748 285.846447 
L 105.569748 283.779959 
L 106.802521 283.779959 
L 106.802521 282.746715 
L 107.955702 282.746715 
L 107.955702 282.230093 
L 109.03895 282.230093 
L 109.03895 281.713471 
L 111.026343 281.713471 
L 111.026343 280.163604 
L 111.942857 280.163604 
L 111.942857 279.13036 
L 113.64587 279.13036 
L 113.64587 277.580494 
L 114.44014 277.580494 
L 114.44014 276.54725 
L 115.2006 276.54725 
L 115.2006 276.030628 
L 117.305161 276.030628 
L 117.305161 275.514006 
L 118.581998 275.514006 
L 118.581998 273.96414 
L 119.773647 273.96414 
L 119.773647 273.447518 
L 122.935065 273.447518 
L 122.935065 269.831164 
L 123.411577 269.831164 
L 123.411577 268.281298 
L 126.432652 268.281298 
L 126.432652 267.764676 
L 127.209649 267.764676 
L 127.209649 267.248054 
L 128.315246 267.248054 
L 128.315246 266.731432 
L 130.018259 266.731432 
L 130.018259 266.21481 
L 131.272677 266.21481 
L 131.272677 265.181566 
L 131.572989 265.181566 
L 131.572989 261.04859 
L 133.276002 261.04859 
L 133.276002 260.531968 
L 134.070271 260.531968 
L 134.070271 260.015346 
L 134.327371 260.015346 
L 134.327371 258.982102 
L 134.830731 258.982102 
L 134.830731 257.948858 
L 135.077192 257.948858 
L 135.077192 256.915614 
L 135.3203 256.915614 
L 135.3203 254.332504 
L 138.005559 254.332504 
L 138.005559 253.815882 
L 138.212129 253.815882 
L 138.212129 253.29926 
L 139.015326 253.29926 
L 139.015326 252.782638 
L 139.971068 252.782638 
L 139.971068 251.749394 
L 141.572268 251.749394 
L 141.572268 251.232772 
L 141.741636 251.232772 
L 141.741636 250.199528 
L 142.565197 250.199528 
L 142.565197 247.099796 
L 142.884279 247.099796 
L 142.884279 246.066551 
L 146.062784 246.066551 
L 146.062784 245.549929 
L 146.839781 245.549929 
L 146.839781 245.033307 
L 149.320526 245.033307 
L 149.430484 241.416953 
L 150.07639 241.416953 
L 150.07639 240.383709 
L 150.597364 240.383709 
L 150.597364 238.833843 
L 152.99615 238.833843 
L 152.99615 238.317221 
L 154.788728 238.317221 
L 154.788728 236.250733 
L 156.118698 236.250733 
L 156.118698 235.217489 
L 157.773669 235.217489 
L 157.773669 233.667623 
L 158.114025 233.667623 
L 158.114025 233.151001 
L 166.342737 233.151001 
L 166.342737 232.634379 
L 167.051716 232.634379 
L 167.051716 232.117757 
L 167.929345 232.117757 
L 167.968231 230.051269 
L 168.199786 230.051269 
L 168.199786 229.534647 
L 168.616665 229.534647 
L 168.616665 229.018025 
L 168.950658 229.018025 
L 168.987386 227.984781 
L 169.133547 227.984781 
L 169.242389 226.951537 
L 169.635897 226.951537 
L 169.635897 224.885049 
L 169.84694 224.885049 
L 169.916737 219.718829 
L 170.667036 219.718829 
L 170.667036 219.202207 
L 170.800132 219.202207 
L 170.899308 213.519365 
L 171.063387 213.519365 
L 171.063387 213.002743 
L 171.514952 213.002743 
L 171.57854 208.353144 
L 171.924284 208.353144 
L 171.924284 205.253412 
L 172.354862 205.253412 
L 172.354862 204.73679 
L 173.785074 204.73679 
L 173.785074 203.186924 
L 174.418859 203.186924 
L 174.418859 202.670302 
L 178.664042 202.670302 
L 178.664042 202.15368 
L 179.148416 202.15368 
L 179.148416 201.120436 
L 179.334437 201.120436 
L 179.436951 200.087192 
L 179.980586 200.087192 
L 180.059736 196.470838 
L 180.177808 196.470838 
L 180.216992 191.304618 
L 180.756739 191.304618 
L 180.775717 187.171642 
L 181.151112 187.171642 
L 181.169676 184.588532 
L 181.37262 184.588532 
L 181.37262 182.005422 
L 182.126964 182.005422 
L 182.197173 180.972178 
L 182.49252 180.972178 
L 182.49252 179.422312 
L 182.884493 179.422312 
L 182.884493 178.389067 
L 185.972868 178.389067 
L 185.972868 177.355823 
L 186.212334 177.355823 
L 186.212334 176.839201 
L 186.599884 176.839201 
L 186.681848 170.639737 
L 187.099441 170.639737 
L 187.099441 169.089871 
L 187.363767 169.089871 
L 187.376881 166.506761 
L 187.520506 166.506761 
L 187.520506 164.956895 
L 187.842695 164.956895 
L 187.842695 163.923651 
L 188.058511 163.923651 
L 188.108915 161.340541 
L 188.321559 161.340541 
L 188.321559 160.307297 
L 188.666371 160.307297 
L 188.666371 159.274053 
L 190.649912 159.274053 
L 190.649912 158.757431 
L 190.899213 158.757431 
L 190.899213 158.240809 
L 191.091921 158.240809 
L 191.176906 157.207565 
L 191.335172 157.207565 
L 191.439909 151.008101 
L 191.750487 151.008101 
L 191.760747 147.908369 
L 191.954579 147.908369 
L 191.974861 143.25877 
L 192.086 143.25877 
L 192.086 142.742148 
L 192.336048 142.742148 
L 192.336048 142.225526 
L 192.504103 142.225526 
L 192.543417 140.67566 
L 192.709543 140.67566 
L 192.709543 140.159038 
L 192.93187 140.159038 
L 192.979838 138.609172 
L 194.695911 138.609172 
L 194.695911 138.09255 
L 194.903582 138.09255 
L 194.903582 137.575928 
L 195.108866 137.575928 
L 195.19371 133.959574 
L 195.454195 133.959574 
L 195.454195 133.442952 
L 195.620257 133.442952 
L 195.719158 127.76011 
L 195.923461 127.76011 
L 195.923461 127.243488 
L 196.093288 127.243488 
L 196.093288 126.210244 
L 196.229595 126.210244 
L 196.229595 125.693622 
L 198.194272 125.693622 
L 198.294174 121.044024 
L 198.3084 121.044024 
L 198.3084 120.527402 
L 198.506386 120.527402 
L 198.513417 118.460914 
L 198.65345 118.460914 
L 198.660423 115.877804 
L 198.909653 115.877804 
L 198.991963 114.84456 
L 199.026147 114.84456 
L 199.026147 113.811316 
L 199.169011 113.811316 
L 199.169011 112.778072 
L 199.357737 112.778072 
L 199.357737 111.744828 
L 200.61954 111.744828 
L 200.61954 111.228206 
L 200.898493 111.228206 
L 200.935359 107.611851 
L 201.124636 107.611851 
L 201.124636 107.095229 
L 201.23966 107.095229 
L 201.317937 104.512119 
L 201.592194 104.512119 
L 201.592194 102.445631 
L 201.827305 102.445631 
L 201.827305 101.929009 
L 202.958576 101.929009 
L 202.958576 101.412387 
L 203.203535 101.412387 
L 203.246734 98.829277 
L 203.397112 98.829277 
L 203.397112 97.796033 
L 203.572735 97.796033 
L 203.572735 96.762789 
L 203.814697 96.762789 
L 203.814697 94.179679 
L 204.048271 94.179679 
L 204.048271 93.146435 
L 205.153042 93.146435 
L 205.244909 92.113191 
L 205.273822 92.113191 
L 205.273822 90.563325 
L 205.422464 90.563325 
L 205.522459 89.013459 
L 205.74894 89.013459 
L 205.74894 87.980215 
L 205.870428 87.980215 
L 205.870428 87.463593 
L 207.076793 87.463593 
L 207.111581 85.397105 
L 207.237124 85.397105 
L 207.237124 83.847239 
L 207.374638 83.847239 
L 207.374638 83.330617 
L 207.553534 83.330617 
L 207.570478 82.297373 
L 207.739047 82.297373 
L 207.739047 81.264129 
L 208.558829 81.264129 
L 208.558829 80.747507 
L 208.761991 80.747507 
L 208.761991 80.230885 
L 208.880428 80.230885 
L 208.962869 78.681019 
L 209.009808 78.681019 
L 209.009808 77.647775 
L 209.188607 77.647775 
L 209.188607 77.131153 
L 209.342644 77.131153 
L 209.361805 75.064664 
L 210.188851 75.064664 
L 210.280043 71.964932 
L 210.392479 71.964932 
L 210.468245 70.931688 
L 210.507804 70.931688 
L 210.597386 69.898444 
L 211.506751 69.898444 
L 211.506751 69.381822 
L 211.783154 69.381822 
L 211.88987 66.798712 
L 212.189904 66.798712 
L 212.189904 66.28209 
L 212.743599 66.28209 
L 212.743599 65.765468 
L 212.898248 65.765468 
L 212.957855 63.182358 
L 213.314454 63.182358 
L 213.314454 62.665736 
L 214.156979 62.665736 
L 214.186243 61.11587 
L 214.273746 61.11587 
L 214.334744 59.566004 
L 214.502142 59.566004 
L 214.502142 59.049382 
L 215.114887 59.049382 
L 215.114887 58.53276 
L 215.401268 58.53276 
L 215.491188 56.982894 
L 216.518389 56.982894 
L 216.546594 55.94965 
L 216.707282 55.94965 
L 216.778238 53.36654 
L 217.375141 53.36654 
L 217.462981 52.333296 
L 217.516449 52.333296 
L 217.516449 51.816674 
L 217.654241 51.816674 
L 217.654241 51.300052 
L 218.223035 51.300052 
L 218.327697 49.750186 
L 218.341606 49.750186 
L 218.341606 49.233564 
L 218.486998 49.233564 
L 218.486998 48.716942 
L 219.232033 48.716942 
L 219.311222 47.167076 
L 219.520693 47.167076 
L 219.570516 46.133832 
L 220.17036 46.133832 
L 220.237172 45.100588 
L 220.926025 45.100588 
L 221.029991 43.550722 
L 221.918574 43.550722 
L 221.918574 43.0341 
L 222.519146 43.0341 
L 222.519146 42.517478 
L 223.238137 42.517478 
L 223.275097 40.967611 
L 223.866489 40.967611 
L 223.866489 40.450989 
L 223.983469 40.450989 
L 223.983469 39.934367 
L 225.808347 39.934367 
L 225.811398 38.901123 
L 225.942111 38.901123 
L 225.942111 37.867879 
L 227.078817 37.867879 
L 227.078817 37.351257 
L 228.825184 37.351257 
L 228.825184 36.834635 
L 230.124759 36.834635 
L 230.124759 36.318013 
L 231.542154 36.318013 
L 231.542154 35.801391 
L 233.983231 35.801391 
L 233.983231 35.284769 
L 234.365349 35.284769 
L 234.365349 34.768147 
L 358.8 34.768147 
L 358.8 34.768147 
" style="fill:none;stroke:#6495ed;stroke-linecap:square;stroke-width:1.5;"/>
   </g>
   <g id="line2d_57">
    <defs>
     <path d="M -0 6 
L 6 -6 
L -6 -6 
z
" id="me7a9e77b7a" style="stroke:#6495ed;stroke-linejoin:miter;stroke-width:1.5;"/>
    </defs>
    <g>
     <use style="fill:none;stroke:#6495ed;stroke-linejoin:miter;stroke-width:1.5;" x="158.114025" xlink:href="#me7a9e77b7a" y="233.151001"/>
     <use style="fill:none;stroke:#6495ed;stroke-linejoin:miter;stroke-width:1.5;" x="198.660423" xlink:href="#me7a9e77b7a" y="116.911048"/>
     <use style="fill:none;stroke:#6495ed;stroke-linejoin:miter;stroke-width:1.5;" x="234.365349" xlink:href="#me7a9e77b7a" y="35.284769"/>
     <use style="fill:none;stroke:#6495ed;stroke-linejoin:miter;stroke-width:1.5;" x="234.365349" xlink:href="#me7a9e77b7a" y="34.768147"/>
     <use style="fill:none;stroke:#6495ed;stroke-linejoin:miter;stroke-width:1.5;" x="234.365349" xlink:href="#me7a9e77b7a" y="34.768147"/>
     <use style="fill:none;stroke:#6495ed;stroke-linejoin:miter;stroke-width:1.5;" x="358.8" xlink:href="#me7a9e77b7a" y="34.768147"/>
    </g>
   </g>
   <g id="line2d_58"/>
   <g id="line2d_59">
    <path clip-path="url(#p2f38a26fa1)" d="M 165.470948 233.151001 
" style="fill:none;stroke:#6495ed;stroke-linecap:square;stroke-width:1.5;"/>
    <defs>
     <path d="M -12 12 
L 12 -12 
M -12 -12 
L 12 12 
" id="mb8cf014928" style="stroke:#6495ed;stroke-width:3;"/>
    </defs>
    <g clip-path="url(#p2f38a26fa1)">
     <use style="fill:#6495ed;stroke:#6495ed;stroke-width:3;" x="165.470948" xlink:href="#mb8cf014928" y="233.151001"/>
    </g>
   </g>
   <g id="line2d_60">
    <defs>
     <path d="M 0 1.5 
C 0.397805 1.5 0.77937 1.341951 1.06066 1.06066 
C 1.341951 0.77937 1.5 0.397805 1.5 0 
C 1.5 -0.397805 1.341951 -0.77937 1.06066 -1.06066 
C 0.77937 -1.341951 0.397805 -1.5 0 -1.5 
C -0.397805 -1.5 -0.77937 -1.341951 -1.06066 -1.06066 
C -1.341951 -0.77937 -1.5 -0.397805 -1.5 0 
C -1.5 0.397805 -1.341951 0.77937 -1.06066 1.06066 
C -0.77937 1.341951 -0.397805 1.5 0 1.5 
z
" id="m67c5cf4cbc" style="stroke:#ff0000;"/>
    </defs>
    <g>
     <use style="fill:#ff0000;stroke:#ff0000;" x="114.44014" xlink:href="#m67c5cf4cbc" y="34.768147"/>
     <use style="fill:#ff0000;stroke:#ff0000;" x="114.44014" xlink:href="#m67c5cf4cbc" y="34.768147"/>
    </g>
   </g>
   <g id="line2d_61">
    <path d="M 58.414766 298.245375 
L 58.414766 287.396313 
L 70.8 287.396313 
L 70.8 282.746715 
L 78.044898 282.746715 
L 78.044898 260.015346 
L 83.185234 260.015346 
L 83.185234 239.350465 
L 87.172389 239.350465 
L 87.172389 222.818561 
L 90.430132 222.818561 
L 90.430132 187.171642 
L 93.184514 187.171642 
L 93.184514 154.107833 
L 95.570468 154.107833 
L 95.570468 141.708904 
L 97.675029 141.708904 
L 97.675029 141.192282 
L 99.557623 141.192282 
L 99.557623 140.67566 
L 101.260636 140.67566 
L 101.260636 107.611851 
L 104.245578 107.611851 
L 104.245578 91.596569 
L 105.569748 91.596569 
L 105.569748 91.079947 
L 106.802521 91.079947 
L 106.802521 90.563325 
L 107.955702 90.563325 
L 107.955702 77.131153 
L 110.060263 77.131153 
L 110.060263 64.732224 
L 111.942857 64.732224 
L 111.942857 63.69898 
L 113.64587 63.69898 
L 113.64587 49.750186 
L 114.44014 49.750186 
L 114.44014 34.768147 
L 358.8 34.768147 
" style="fill:none;stroke:#ff0000;stroke-linecap:square;stroke-width:1.5;"/>
   </g>
   <g id="line2d_62">
    <defs>
     <path d="M 0 -6 
L -5.196152 -3 
L -5.196152 3 
L -0 6 
L 5.196152 3 
L 5.196152 -3 
z
" id="m8e77c982b9" style="stroke:#ff0000;stroke-linejoin:miter;stroke-width:1.5;"/>
    </defs>
    <g>
     <use style="fill:none;stroke:#ff0000;stroke-linejoin:miter;stroke-width:1.5;" x="90.430132" xlink:href="#m8e77c982b9" y="222.818561"/>
     <use style="fill:none;stroke:#ff0000;stroke-linejoin:miter;stroke-width:1.5;" x="111.942857" xlink:href="#m8e77c982b9" y="63.69898"/>
     <use style="fill:none;stroke:#ff0000;stroke-linejoin:miter;stroke-width:1.5;" x="114.44014" xlink:href="#m8e77c982b9" y="49.750186"/>
     <use style="fill:none;stroke:#ff0000;stroke-linejoin:miter;stroke-width:1.5;" x="114.44014" xlink:href="#m8e77c982b9" y="34.768147"/>
     <use style="fill:none;stroke:#ff0000;stroke-linejoin:miter;stroke-width:1.5;" x="114.44014" xlink:href="#m8e77c982b9" y="34.768147"/>
     <use style="fill:none;stroke:#ff0000;stroke-linejoin:miter;stroke-width:1.5;" x="358.8" xlink:href="#m8e77c982b9" y="34.768147"/>
    </g>
   </g>
   <g id="line2d_63"/>
   <g id="line2d_64">
    <path d="M 358.8 241.416953 
L 390.48 292.97583 
" style="fill:none;stroke:#ffa500;stroke-linecap:square;stroke-width:1.5;"/>
    <g>
     <use style="fill:none;stroke:#ffa500;stroke-linejoin:bevel;stroke-width:1.5;" x="358.8" xlink:href="#m95d708f17b" y="241.416953"/>
     <use style="fill:none;stroke:#ffa500;stroke-linejoin:bevel;stroke-width:1.5;" x="390.48" xlink:href="#m95d708f17b" y="292.97583"/>
    </g>
   </g>
   <g id="line2d_65">
    <path d="M 358.8 220.752073 
L 390.48 229.741296 
" style="fill:none;stroke:#ff00ff;stroke-linecap:square;stroke-width:1.5;"/>
    <g>
     <use style="fill:none;stroke:#ff00ff;stroke-linejoin:miter;stroke-width:1.5;" x="358.8" xlink:href="#m22fd09c289" y="220.752073"/>
     <use style="fill:none;stroke:#ff00ff;stroke-linejoin:miter;stroke-width:1.5;" x="390.48" xlink:href="#m22fd09c289" y="229.741296"/>
    </g>
   </g>
   <g id="line2d_66">
    <path d="M 358.8 34.768147 
L 390.48 166.506761 
" style="fill:none;stroke:#6495ed;stroke-linecap:square;stroke-width:1.5;"/>
    <g>
     <use style="fill:none;stroke:#6495ed;stroke-linejoin:miter;stroke-width:1.5;" x="358.8" xlink:href="#me7a9e77b7a" y="34.768147"/>
     <use style="fill:none;stroke:#6495ed;stroke-linejoin:miter;stroke-width:1.5;" x="390.48" xlink:href="#me7a9e77b7a" y="166.506761"/>
    </g>
   </g>
   <g id="line2d_67">
    <path d="M 358.8 34.768147 
L 390.48 103.272226 
" style="fill:none;stroke:#000080;stroke-linecap:square;stroke-width:1.5;"/>
    <g>
     <use style="fill:none;stroke:#000080;stroke-width:1.5;" x="358.8" xlink:href="#m0181641bc2" y="34.768147"/>
     <use style="fill:none;stroke:#000080;stroke-width:1.5;" x="390.48" xlink:href="#m0181641bc2" y="103.272226"/>
    </g>
   </g>
   <g id="line2d_68">
    <path d="M 358.8 34.768147 
L 390.48 40.037692 
" style="fill:none;stroke:#ff0000;stroke-linecap:square;stroke-width:1.5;"/>
    <g>
     <use style="fill:none;stroke:#ff0000;stroke-linejoin:miter;stroke-width:1.5;" x="358.8" xlink:href="#m8e77c982b9" y="34.768147"/>
     <use style="fill:none;stroke:#ff0000;stroke-linejoin:miter;stroke-width:1.5;" x="390.48" xlink:href="#m8e77c982b9" y="40.037692"/>
    </g>
   </g>
   <g id="line2d_69">
    <path d="M 358.8 298.245375 
L 358.8 34.768147 
" style="fill:none;stroke:#000000;stroke-linecap:square;stroke-width:1.5;"/>
   </g>
   <g id="patch_3">
    <path d="M 70.8 298.245375 
L 70.8 32.133375 
" style="fill:none;stroke:#000000;stroke-linecap:square;stroke-linejoin:miter;stroke-width:0.8;"/>
   </g>
   <g id="patch_4">
    <path d="M 427.92 298.245375 
L 427.92 32.133375 
" style="fill:none;stroke:#000000;stroke-linecap:square;stroke-linejoin:miter;stroke-width:0.8;"/>
   </g>
   <g id="patch_5">
    <path d="M 70.8 298.245375 
L 427.92 298.245375 
" style="fill:none;stroke:#000000;stroke-linecap:square;stroke-linejoin:miter;stroke-width:0.8;"/>
   </g>
   <g id="patch_6">
    <path d="M 70.8 32.133375 
L 427.92 32.133375 
" style="fill:none;stroke:#000000;stroke-linecap:square;stroke-linejoin:miter;stroke-width:0.8;"/>
   </g>
   <g id="text_14">
    <!-- f3 -->
    <defs>
     <path d="M 40.578125 39.3125 
Q 47.65625 37.796875 51.625 33 
Q 55.609375 28.21875 55.609375 21.1875 
Q 55.609375 10.40625 48.1875 4.484375 
Q 40.765625 -1.421875 27.09375 -1.421875 
Q 22.515625 -1.421875 17.65625 -0.515625 
Q 12.796875 0.390625 7.625 2.203125 
L 7.625 11.71875 
Q 11.71875 9.328125 16.59375 8.109375 
Q 21.484375 6.890625 26.8125 6.890625 
Q 36.078125 6.890625 40.9375 10.546875 
Q 45.796875 14.203125 45.796875 21.1875 
Q 45.796875 27.640625 41.28125 31.265625 
Q 36.765625 34.90625 28.71875 34.90625 
L 20.21875 34.90625 
L 20.21875 43.015625 
L 29.109375 43.015625 
Q 36.375 43.015625 40.234375 45.921875 
Q 44.09375 48.828125 44.09375 54.296875 
Q 44.09375 59.90625 40.109375 62.90625 
Q 36.140625 65.921875 28.71875 65.921875 
Q 24.65625 65.921875 20.015625 65.03125 
Q 15.375 64.15625 9.8125 62.3125 
L 9.8125 71.09375 
Q 15.4375 72.65625 20.34375 73.4375 
Q 25.25 74.21875 29.59375 74.21875 
Q 40.828125 74.21875 47.359375 69.109375 
Q 53.90625 64.015625 53.90625 55.328125 
Q 53.90625 49.265625 50.4375 45.09375 
Q 46.96875 40.921875 40.578125 39.3125 
" id="DejaVuSans-33"/>
    </defs>
    <g transform="translate(396.24 297.114893)scale(0.15 -0.15)">
     <use xlink:href="#DejaVuSans-66"/>
     <use x="35.205078" xlink:href="#DejaVuSans-33"/>
    </g>
   </g>
   <g id="text_15">
    <!-- f2 -->
    <g transform="translate(396.24 233.880358)scale(0.15 -0.15)">
     <use xlink:href="#DejaVuSans-66"/>
     <use x="35.205078" xlink:href="#DejaVuSans-32"/>
    </g>
   </g>
   <g id="text_16">
    <!-- f4 -->
    <g transform="translate(396.24 170.645824)scale(0.15 -0.15)">
     <use xlink:href="#DejaVuSans-66"/>
     <use x="35.205078" xlink:href="#DejaVuSans-34"/>
    </g>
   </g>
   <g id="text_17">
    <!-- f1 -->
    <g transform="translate(396.24 107.411289)scale(0.15 -0.15)">
     <use xlink:href="#DejaVuSans-66"/>
     <use x="35.205078" xlink:href="#DejaVuSans-31"/>
    </g>
   </g>
   <g id="text_18">
    <!-- f5 -->
    <defs>
     <path d="M 10.796875 72.90625 
L 49.515625 72.90625 
L 49.515625 64.59375 
L 19.828125 64.59375 
L 19.828125 46.734375 
Q 21.96875 47.46875 24.109375 47.828125 
Q 26.265625 48.1875 28.421875 48.1875 
Q 40.625 48.1875 47.75 41.5 
Q 54.890625 34.8125 54.890625 23.390625 
Q 54.890625 11.625 47.5625 5.09375 
Q 40.234375 -1.421875 26.90625 -1.421875 
Q 22.3125 -1.421875 17.546875 -0.640625 
Q 12.796875 0.140625 7.71875 1.703125 
L 7.71875 11.625 
Q 12.109375 9.234375 16.796875 8.0625 
Q 21.484375 6.890625 26.703125 6.890625 
Q 35.15625 6.890625 40.078125 11.328125 
Q 45.015625 15.765625 45.015625 23.390625 
Q 45.015625 31 40.078125 35.4375 
Q 35.15625 39.890625 26.703125 39.890625 
Q 22.75 39.890625 18.8125 39.015625 
Q 14.890625 38.140625 10.796875 36.28125 
z
" id="DejaVuSans-35"/>
    </defs>
    <g transform="translate(396.24 44.176754)scale(0.15 -0.15)">
     <use xlink:href="#DejaVuSans-66"/>
     <use x="35.205078" xlink:href="#DejaVuSans-35"/>
    </g>
   </g>
   <g id="text_19">
    <!-- bbob -->
    <defs>
     <path d="M 48.6875 27.296875 
Q 48.6875 37.203125 44.609375 42.84375 
Q 40.53125 48.484375 33.40625 48.484375 
Q 26.265625 48.484375 22.1875 42.84375 
Q 18.109375 37.203125 18.109375 27.296875 
Q 18.109375 17.390625 22.1875 11.75 
Q 26.265625 6.109375 33.40625 6.109375 
Q 40.53125 6.109375 44.609375 11.75 
Q 48.6875 17.390625 48.6875 27.296875 
M 18.109375 46.390625 
Q 20.953125 51.265625 25.265625 53.625 
Q 29.59375 56 35.59375 56 
Q 45.5625 56 51.78125 48.09375 
Q 58.015625 40.1875 58.015625 27.296875 
Q 58.015625 14.40625 51.78125 6.484375 
Q 45.5625 -1.421875 35.59375 -1.421875 
Q 29.59375 -1.421875 25.265625 0.953125 
Q 20.953125 3.328125 18.109375 8.203125 
L 18.109375 0 
L 9.078125 0 
L 9.078125 75.984375 
L 18.109375 75.984375 
z
" id="DejaVuSans-62"/>
    </defs>
    <g transform="translate(74.3712 50.114612)scale(0.1666 -0.1666)">
     <use xlink:href="#DejaVuSans-62"/>
     <use x="63.476562" xlink:href="#DejaVuSans-62"/>
     <use x="126.953125" xlink:href="#DejaVuSans-6f"/>
     <use x="188.134766" xlink:href="#DejaVuSans-62"/>
    </g>
    <!-- Separable functions, 2-D -->
    <defs>
     <path d="M 53.515625 70.515625 
L 53.515625 60.890625 
Q 47.90625 63.578125 42.921875 64.890625 
Q 37.9375 66.21875 33.296875 66.21875 
Q 25.25 66.21875 20.875 63.09375 
Q 16.5 59.96875 16.5 54.203125 
Q 16.5 49.359375 19.40625 46.890625 
Q 22.3125 44.4375 30.421875 42.921875 
L 36.375 41.703125 
Q 47.40625 39.59375 52.65625 34.296875 
Q 57.90625 29 57.90625 20.125 
Q 57.90625 9.515625 50.796875 4.046875 
Q 43.703125 -1.421875 29.984375 -1.421875 
Q 24.8125 -1.421875 18.96875 -0.25 
Q 13.140625 0.921875 6.890625 3.21875 
L 6.890625 13.375 
Q 12.890625 10.015625 18.65625 8.296875 
Q 24.421875 6.59375 29.984375 6.59375 
Q 38.421875 6.59375 43.015625 9.90625 
Q 47.609375 13.234375 47.609375 19.390625 
Q 47.609375 24.75 44.3125 27.78125 
Q 41.015625 30.8125 33.5 32.328125 
L 27.484375 33.5 
Q 16.453125 35.6875 11.515625 40.375 
Q 6.59375 45.0625 6.59375 53.421875 
Q 6.59375 63.09375 13.40625 68.65625 
Q 20.21875 74.21875 32.171875 74.21875 
Q 37.3125 74.21875 42.625 73.28125 
Q 47.953125 72.359375 53.515625 70.515625 
" id="DejaVuSans-53"/>
     <path d="M 11.71875 12.40625 
L 22.015625 12.40625 
L 22.015625 4 
L 14.015625 -11.625 
L 7.71875 -11.625 
L 11.71875 4 
z
" id="DejaVuSans-2c"/>
     <path d="M 19.671875 64.796875 
L 19.671875 8.109375 
L 31.59375 8.109375 
Q 46.6875 8.109375 53.6875 14.9375 
Q 60.6875 21.78125 60.6875 36.53125 
Q 60.6875 51.171875 53.6875 57.984375 
Q 46.6875 64.796875 31.59375 64.796875 
z
M 9.8125 72.90625 
L 30.078125 72.90625 
Q 51.265625 72.90625 61.171875 64.09375 
Q 71.09375 55.28125 71.09375 36.53125 
Q 71.09375 17.671875 61.125 8.828125 
Q 51.171875 0 30.078125 0 
L 9.8125 0 
z
" id="DejaVuSans-44"/>
    </defs>
    <g transform="translate(74.3712 68.770168)scale(0.1666 -0.1666)">
     <use xlink:href="#DejaVuSans-53"/>
     <use x="63.476562" xlink:href="#DejaVuSans-65"/>
     <use x="125" xlink:href="#DejaVuSans-70"/>
     <use x="188.476562" xlink:href="#DejaVuSans-61"/>
     <use x="249.755859" xlink:href="#DejaVuSans-72"/>
     <use x="290.869141" xlink:href="#DejaVuSans-61"/>
     <use x="352.148438" xlink:href="#DejaVuSans-62"/>
     <use x="415.625" xlink:href="#DejaVuSans-6c"/>
     <use x="443.408203" xlink:href="#DejaVuSans-65"/>
     <use x="504.931641" xlink:href="#DejaVuSans-20"/>
     <use x="536.71875" xlink:href="#DejaVuSans-66"/>
     <use x="571.923828" xlink:href="#DejaVuSans-75"/>
     <use x="635.302734" xlink:href="#DejaVuSans-6e"/>
     <use x="698.681641" xlink:href="#DejaVuSans-63"/>
     <use x="753.662109" xlink:href="#DejaVuSans-74"/>
     <use x="792.871094" xlink:href="#DejaVuSans-69"/>
     <use x="820.654297" xlink:href="#DejaVuSans-6f"/>
     <use x="881.835938" xlink:href="#DejaVuSans-6e"/>
     <use x="945.214844" xlink:href="#DejaVuSans-73"/>
     <use x="997.314453" xlink:href="#DejaVuSans-2c"/>
     <use x="1029.101562" xlink:href="#DejaVuSans-20"/>
     <use x="1060.888672" xlink:href="#DejaVuSans-32"/>
     <use x="1124.511719" xlink:href="#DejaVuSans-2d"/>
     <use x="1160.595703" xlink:href="#DejaVuSans-44"/>
    </g>
    <!-- 51 targets in 100..1e-08 -->
    <g transform="translate(74.3712 87.425723)scale(0.1666 -0.1666)">
     <use xlink:href="#DejaVuSans-35"/>
     <use x="63.623047" xlink:href="#DejaVuSans-31"/>
     <use x="127.246094" xlink:href="#DejaVuSans-20"/>
     <use x="159.033203" xlink:href="#DejaVuSans-74"/>
     <use x="198.242188" xlink:href="#DejaVuSans-61"/>
     <use x="259.521484" xlink:href="#DejaVuSans-72"/>
     <use x="300.619141" xlink:href="#DejaVuSans-67"/>
     <use x="364.095703" xlink:href="#DejaVuSans-65"/>
     <use x="425.619141" xlink:href="#DejaVuSans-74"/>
     <use x="464.828125" xlink:href="#DejaVuSans-73"/>
     <use x="516.927734" xlink:href="#DejaVuSans-20"/>
     <use x="548.714844" xlink:href="#DejaVuSans-69"/>
     <use x="576.498047" xlink:href="#DejaVuSans-6e"/>
     <use x="639.876953" xlink:href="#DejaVuSans-20"/>
     <use x="671.664062" xlink:href="#DejaVuSans-31"/>
     <use x="735.287109" xlink:href="#DejaVuSans-30"/>
     <use x="798.910156" xlink:href="#DejaVuSans-30"/>
     <use x="862.533203" xlink:href="#DejaVuSans-2e"/>
     <use x="894.320312" xlink:href="#DejaVuSans-2e"/>
     <use x="926.107422" xlink:href="#DejaVuSans-31"/>
     <use x="989.730469" xlink:href="#DejaVuSans-65"/>
     <use x="1051.253906" xlink:href="#DejaVuSans-2d"/>
     <use x="1087.337891" xlink:href="#DejaVuSans-30"/>
     <use x="1150.960938" xlink:href="#DejaVuSans-38"/>
    </g>
    <!-- 15 instances -->
    <g transform="translate(74.3712 106.081279)scale(0.1666 -0.1666)">
     <use xlink:href="#DejaVuSans-31"/>
     <use x="63.623047" xlink:href="#DejaVuSans-35"/>
     <use x="127.246094" xlink:href="#DejaVuSans-20"/>
     <use x="159.033203" xlink:href="#DejaVuSans-69"/>
     <use x="186.816406" xlink:href="#DejaVuSans-6e"/>
     <use x="250.195312" xlink:href="#DejaVuSans-73"/>
     <use x="302.294922" xlink:href="#DejaVuSans-74"/>
     <use x="341.503906" xlink:href="#DejaVuSans-61"/>
     <use x="402.783203" xlink:href="#DejaVuSans-6e"/>
     <use x="466.162109" xlink:href="#DejaVuSans-63"/>
     <use x="521.142578" xlink:href="#DejaVuSans-65"/>
     <use x="582.666016" xlink:href="#DejaVuSans-73"/>
    </g>
   </g>
   <g id="text_20">
    <!-- v2.1 -->
    <g style="fill:#808080;" transform="translate(238.449063 293.504568)scale(0.1 -0.1)">
     <use xlink:href="#DejaVuSans-76"/>
     <use x="59.179688" xlink:href="#DejaVuSans-32"/>
     <use x="122.802734" xlink:href="#DejaVuSans-2e"/>
     <use x="154.589844" xlink:href="#DejaVuSans-31"/>
    </g>
   </g>
  </g>
 </g>
 <defs>
  <clipPath id="p2f38a26fa1">
   <rect height="266.112" width="357.12" x="70.8" y="32.133375"/>
  </clipPath>
 </defs>
</svg>
