<?xml version="1.0" encoding="utf-8" standalone="no"?>
<!DOCTYPE svg PUBLIC "-//W3C//DTD SVG 1.1//EN"
  "http://www.w3.org/Graphics/SVG/1.1/DTD/svg11.dtd">
<!-- Created with matplotlib (http://matplotlib.org/) -->
<svg height="353pt" version="1.1" viewBox="0 0 438 353" width="438pt" xmlns="http://www.w3.org/2000/svg" xmlns:xlink="http://www.w3.org/1999/xlink">
 <defs>
  <style type="text/css">
*{stroke-linecap:butt;stroke-linejoin:round;}
  </style>
 </defs>
 <g id="figure_1">
  <g id="patch_1">
   <path d="M 0 353.22225 
L 438.62 353.22225 
L 438.62 0 
L 0 0 
z
" style="fill:#ffffff;"/>
  </g>
  <g id="axes_1">
   <g id="patch_2">
    <path d="M 70.8 298.245375 
L 427.92 298.245375 
L 427.92 32.133375 
L 70.8 32.133375 
z
" style="fill:#ffffff;"/>
   </g>
   <g id="matplotlib.axis_1">
    <g id="xtick_1">
     <g id="line2d_1">
      <path clip-path="url(#pee0584fc9c)" d="M 70.8 298.245375 
L 70.8 32.133375 
" style="fill:none;stroke:#b0b0b0;stroke-linecap:square;stroke-width:0.8;"/>
     </g>
     <g id="line2d_2">
      <defs>
       <path d="M 0 0 
L 0 3.5 
" id="m5dd66ee038" style="stroke:#000000;stroke-width:0.8;"/>
      </defs>
      <g>
       <use style="stroke:#000000;stroke-width:0.8;" x="70.8" xlink:href="#m5dd66ee038" y="298.245375"/>
      </g>
     </g>
     <g id="text_1">
      <!-- 0 -->
      <defs>
       <path d="M 31.78125 66.40625 
Q 24.171875 66.40625 20.328125 58.90625 
Q 16.5 51.421875 16.5 36.375 
Q 16.5 21.390625 20.328125 13.890625 
Q 24.171875 6.390625 31.78125 6.390625 
Q 39.453125 6.390625 43.28125 13.890625 
Q 47.125 21.390625 47.125 36.375 
Q 47.125 51.421875 43.28125 58.90625 
Q 39.453125 66.40625 31.78125 66.40625 
M 31.78125 74.21875 
Q 44.046875 74.21875 50.515625 64.515625 
Q 56.984375 54.828125 56.984375 36.375 
Q 56.984375 17.96875 50.515625 8.265625 
Q 44.046875 -1.421875 31.78125 -1.421875 
Q 19.53125 -1.421875 13.0625 8.265625 
Q 6.59375 17.96875 6.59375 36.375 
Q 6.59375 54.828125 13.0625 64.515625 
Q 19.53125 74.21875 31.78125 74.21875 
" id="DejaVuSans-30"/>
      </defs>
      <g transform="translate(64.4375 320.44225)scale(0.2 -0.2)">
       <use xlink:href="#DejaVuSans-30"/>
      </g>
     </g>
    </g>
    <g id="xtick_2">
     <g id="line2d_3">
      <path clip-path="url(#pee0584fc9c)" d="M 153.085714 298.245375 
L 153.085714 32.133375 
" style="fill:none;stroke:#b0b0b0;stroke-linecap:square;stroke-width:0.8;"/>
     </g>
     <g id="line2d_4">
      <g>
       <use style="stroke:#000000;stroke-width:0.8;" x="153.085714" xlink:href="#m5dd66ee038" y="298.245375"/>
      </g>
     </g>
     <g id="text_2">
      <!-- 2 -->
      <defs>
       <path d="M 19.1875 8.296875 
L 53.609375 8.296875 
L 53.609375 0 
L 7.328125 0 
L 7.328125 8.296875 
Q 12.9375 14.109375 22.625 23.890625 
Q 32.328125 33.6875 34.8125 36.53125 
Q 39.546875 41.84375 41.421875 45.53125 
Q 43.3125 49.21875 43.3125 52.78125 
Q 43.3125 58.59375 39.234375 62.25 
Q 35.15625 65.921875 28.609375 65.921875 
Q 23.96875 65.921875 18.8125 64.3125 
Q 13.671875 62.703125 7.8125 59.421875 
L 7.8125 69.390625 
Q 13.765625 71.78125 18.9375 73 
Q 24.125 74.21875 28.421875 74.21875 
Q 39.75 74.21875 46.484375 68.546875 
Q 53.21875 62.890625 53.21875 53.421875 
Q 53.21875 48.921875 51.53125 44.890625 
Q 49.859375 40.875 45.40625 35.40625 
Q 44.1875 33.984375 37.640625 27.21875 
Q 31.109375 20.453125 19.1875 8.296875 
" id="DejaVuSans-32"/>
      </defs>
      <g transform="translate(146.723214 320.44225)scale(0.2 -0.2)">
       <use xlink:href="#DejaVuSans-32"/>
      </g>
     </g>
    </g>
    <g id="xtick_3">
     <g id="line2d_5">
      <path clip-path="url(#pee0584fc9c)" d="M 235.371429 298.245375 
L 235.371429 32.133375 
" style="fill:none;stroke:#b0b0b0;stroke-linecap:square;stroke-width:0.8;"/>
     </g>
     <g id="line2d_6">
      <g>
       <use style="stroke:#000000;stroke-width:0.8;" x="235.371429" xlink:href="#m5dd66ee038" y="298.245375"/>
      </g>
     </g>
     <g id="text_3">
      <!-- 4 -->
      <defs>
       <path d="M 37.796875 64.3125 
L 12.890625 25.390625 
L 37.796875 25.390625 
z
M 35.203125 72.90625 
L 47.609375 72.90625 
L 47.609375 25.390625 
L 58.015625 25.390625 
L 58.015625 17.1875 
L 47.609375 17.1875 
L 47.609375 0 
L 37.796875 0 
L 37.796875 17.1875 
L 4.890625 17.1875 
L 4.890625 26.703125 
z
" id="DejaVuSans-34"/>
      </defs>
      <g transform="translate(229.008929 320.44225)scale(0.2 -0.2)">
       <use xlink:href="#DejaVuSans-34"/>
      </g>
     </g>
    </g>
    <g id="xtick_4">
     <g id="line2d_7">
      <path clip-path="url(#pee0584fc9c)" d="M 317.657143 298.245375 
L 317.657143 32.133375 
" style="fill:none;stroke:#b0b0b0;stroke-linecap:square;stroke-width:0.8;"/>
     </g>
     <g id="line2d_8">
      <g>
       <use style="stroke:#000000;stroke-width:0.8;" x="317.657143" xlink:href="#m5dd66ee038" y="298.245375"/>
      </g>
     </g>
     <g id="text_4">
      <!-- 6 -->
      <defs>
       <path d="M 33.015625 40.375 
Q 26.375 40.375 22.484375 35.828125 
Q 18.609375 31.296875 18.609375 23.390625 
Q 18.609375 15.53125 22.484375 10.953125 
Q 26.375 6.390625 33.015625 6.390625 
Q 39.65625 6.390625 43.53125 10.953125 
Q 47.40625 15.53125 47.40625 23.390625 
Q 47.40625 31.296875 43.53125 35.828125 
Q 39.65625 40.375 33.015625 40.375 
M 52.59375 71.296875 
L 52.59375 62.3125 
Q 48.875 64.0625 45.09375 64.984375 
Q 41.3125 65.921875 37.59375 65.921875 
Q 27.828125 65.921875 22.671875 59.328125 
Q 17.53125 52.734375 16.796875 39.40625 
Q 19.671875 43.65625 24.015625 45.921875 
Q 28.375 48.1875 33.59375 48.1875 
Q 44.578125 48.1875 50.953125 41.515625 
Q 57.328125 34.859375 57.328125 23.390625 
Q 57.328125 12.15625 50.6875 5.359375 
Q 44.046875 -1.421875 33.015625 -1.421875 
Q 20.359375 -1.421875 13.671875 8.265625 
Q 6.984375 17.96875 6.984375 36.375 
Q 6.984375 53.65625 15.1875 63.9375 
Q 23.390625 74.21875 37.203125 74.21875 
Q 40.921875 74.21875 44.703125 73.484375 
Q 48.484375 72.75 52.59375 71.296875 
" id="DejaVuSans-36"/>
      </defs>
      <g transform="translate(311.294643 320.44225)scale(0.2 -0.2)">
       <use xlink:href="#DejaVuSans-36"/>
      </g>
     </g>
    </g>
    <g id="xtick_5">
     <g id="line2d_9">
      <path clip-path="url(#pee0584fc9c)" d="M 399.942857 298.245375 
L 399.942857 32.133375 
" style="fill:none;stroke:#b0b0b0;stroke-linecap:square;stroke-width:0.8;"/>
     </g>
     <g id="line2d_10">
      <g>
       <use style="stroke:#000000;stroke-width:0.8;" x="399.942857" xlink:href="#m5dd66ee038" y="298.245375"/>
      </g>
     </g>
     <g id="text_5">
      <!-- 8 -->
      <defs>
       <path d="M 31.78125 34.625 
Q 24.75 34.625 20.71875 30.859375 
Q 16.703125 27.09375 16.703125 20.515625 
Q 16.703125 13.921875 20.71875 10.15625 
Q 24.75 6.390625 31.78125 6.390625 
Q 38.8125 6.390625 42.859375 10.171875 
Q 46.921875 13.96875 46.921875 20.515625 
Q 46.921875 27.09375 42.890625 30.859375 
Q 38.875 34.625 31.78125 34.625 
M 21.921875 38.8125 
Q 15.578125 40.375 12.03125 44.71875 
Q 8.5 49.078125 8.5 55.328125 
Q 8.5 64.0625 14.71875 69.140625 
Q 20.953125 74.21875 31.78125 74.21875 
Q 42.671875 74.21875 48.875 69.140625 
Q 55.078125 64.0625 55.078125 55.328125 
Q 55.078125 49.078125 51.53125 44.71875 
Q 48 40.375 41.703125 38.8125 
Q 48.828125 37.15625 52.796875 32.3125 
Q 56.78125 27.484375 56.78125 20.515625 
Q 56.78125 9.90625 50.3125 4.234375 
Q 43.84375 -1.421875 31.78125 -1.421875 
Q 19.734375 -1.421875 13.25 4.234375 
Q 6.78125 9.90625 6.78125 20.515625 
Q 6.78125 27.484375 10.78125 32.3125 
Q 14.796875 37.15625 21.921875 38.8125 
M 18.3125 54.390625 
Q 18.3125 48.734375 21.84375 45.5625 
Q 25.390625 42.390625 31.78125 42.390625 
Q 38.140625 42.390625 41.71875 45.5625 
Q 45.3125 48.734375 45.3125 54.390625 
Q 45.3125 60.0625 41.71875 63.234375 
Q 38.140625 66.40625 31.78125 66.40625 
Q 25.390625 66.40625 21.84375 63.234375 
Q 18.3125 60.0625 18.3125 54.390625 
" id="DejaVuSans-38"/>
      </defs>
      <g transform="translate(393.580357 320.44225)scale(0.2 -0.2)">
       <use xlink:href="#DejaVuSans-38"/>
      </g>
     </g>
    </g>
    <g id="xtick_6">
     <g id="line2d_11">
      <defs>
       <path d="M 0 0 
L 0 2 
" id="m5c90a3b02f" style="stroke:#000000;stroke-width:0.6;"/>
      </defs>
      <g>
       <use style="stroke:#000000;stroke-width:0.6;" x="83.185234" xlink:href="#m5c90a3b02f" y="298.245375"/>
      </g>
     </g>
    </g>
    <g id="xtick_7">
     <g id="line2d_12">
      <g>
       <use style="stroke:#000000;stroke-width:0.6;" x="95.570468" xlink:href="#m5c90a3b02f" y="298.245375"/>
      </g>
     </g>
    </g>
    <g id="xtick_8">
     <g id="line2d_13">
      <g>
       <use style="stroke:#000000;stroke-width:0.6;" x="102.815366" xlink:href="#m5c90a3b02f" y="298.245375"/>
      </g>
     </g>
    </g>
    <g id="xtick_9">
     <g id="line2d_14">
      <g>
       <use style="stroke:#000000;stroke-width:0.6;" x="107.955702" xlink:href="#m5c90a3b02f" y="298.245375"/>
      </g>
     </g>
    </g>
    <g id="xtick_10">
     <g id="line2d_15">
      <g>
       <use style="stroke:#000000;stroke-width:0.6;" x="165.470948" xlink:href="#m5c90a3b02f" y="298.245375"/>
      </g>
     </g>
    </g>
    <g id="xtick_11">
     <g id="line2d_16">
      <g>
       <use style="stroke:#000000;stroke-width:0.6;" x="177.856183" xlink:href="#m5c90a3b02f" y="298.245375"/>
      </g>
     </g>
    </g>
    <g id="xtick_12">
     <g id="line2d_17">
      <g>
       <use style="stroke:#000000;stroke-width:0.6;" x="185.10108" xlink:href="#m5c90a3b02f" y="298.245375"/>
      </g>
     </g>
    </g>
    <g id="xtick_13">
     <g id="line2d_18">
      <g>
       <use style="stroke:#000000;stroke-width:0.6;" x="190.241417" xlink:href="#m5c90a3b02f" y="298.245375"/>
      </g>
     </g>
    </g>
    <g id="xtick_14">
     <g id="line2d_19">
      <g>
       <use style="stroke:#000000;stroke-width:0.6;" x="247.756663" xlink:href="#m5c90a3b02f" y="298.245375"/>
      </g>
     </g>
    </g>
    <g id="xtick_15">
     <g id="line2d_20">
      <g>
       <use style="stroke:#000000;stroke-width:0.6;" x="260.141897" xlink:href="#m5c90a3b02f" y="298.245375"/>
      </g>
     </g>
    </g>
    <g id="xtick_16">
     <g id="line2d_21">
      <g>
       <use style="stroke:#000000;stroke-width:0.6;" x="267.386794" xlink:href="#m5c90a3b02f" y="298.245375"/>
      </g>
     </g>
    </g>
    <g id="xtick_17">
     <g id="line2d_22">
      <g>
       <use style="stroke:#000000;stroke-width:0.6;" x="272.527131" xlink:href="#m5c90a3b02f" y="298.245375"/>
      </g>
     </g>
    </g>
    <g id="xtick_18">
     <g id="line2d_23">
      <g>
       <use style="stroke:#000000;stroke-width:0.6;" x="330.042377" xlink:href="#m5c90a3b02f" y="298.245375"/>
      </g>
     </g>
    </g>
    <g id="xtick_19">
     <g id="line2d_24">
      <g>
       <use style="stroke:#000000;stroke-width:0.6;" x="342.427611" xlink:href="#m5c90a3b02f" y="298.245375"/>
      </g>
     </g>
    </g>
    <g id="xtick_20">
     <g id="line2d_25">
      <g>
       <use style="stroke:#000000;stroke-width:0.6;" x="349.672509" xlink:href="#m5c90a3b02f" y="298.245375"/>
      </g>
     </g>
    </g>
    <g id="xtick_21">
     <g id="line2d_26">
      <g>
       <use style="stroke:#000000;stroke-width:0.6;" x="354.812845" xlink:href="#m5c90a3b02f" y="298.245375"/>
      </g>
     </g>
    </g>
    <g id="xtick_22">
     <g id="line2d_27">
      <g>
       <use style="stroke:#000000;stroke-width:0.6;" x="412.328091" xlink:href="#m5c90a3b02f" y="298.245375"/>
      </g>
     </g>
    </g>
    <g id="xtick_23">
     <g id="line2d_28">
      <g>
       <use style="stroke:#000000;stroke-width:0.6;" x="424.713325" xlink:href="#m5c90a3b02f" y="298.245375"/>
      </g>
     </g>
    </g>
    <g id="text_6">
     <!-- log10 of (# f-evals / dimension) -->
     <defs>
      <path d="M 9.421875 75.984375 
L 18.40625 75.984375 
L 18.40625 0 
L 9.421875 0 
z
" id="DejaVuSans-6c"/>
      <path d="M 30.609375 48.390625 
Q 23.390625 48.390625 19.1875 42.75 
Q 14.984375 37.109375 14.984375 27.296875 
Q 14.984375 17.484375 19.15625 11.84375 
Q 23.34375 6.203125 30.609375 6.203125 
Q 37.796875 6.203125 41.984375 11.859375 
Q 46.1875 17.53125 46.1875 27.296875 
Q 46.1875 37.015625 41.984375 42.703125 
Q 37.796875 48.390625 30.609375 48.390625 
M 30.609375 56 
Q 42.328125 56 49.015625 48.375 
Q 55.71875 40.765625 55.71875 27.296875 
Q 55.71875 13.875 49.015625 6.21875 
Q 42.328125 -1.421875 30.609375 -1.421875 
Q 18.84375 -1.421875 12.171875 6.21875 
Q 5.515625 13.875 5.515625 27.296875 
Q 5.515625 40.765625 12.171875 48.375 
Q 18.84375 56 30.609375 56 
" id="DejaVuSans-6f"/>
      <path d="M 45.40625 27.984375 
Q 45.40625 37.75 41.375 43.109375 
Q 37.359375 48.484375 30.078125 48.484375 
Q 22.859375 48.484375 18.828125 43.109375 
Q 14.796875 37.75 14.796875 27.984375 
Q 14.796875 18.265625 18.828125 12.890625 
Q 22.859375 7.515625 30.078125 7.515625 
Q 37.359375 7.515625 41.375 12.890625 
Q 45.40625 18.265625 45.40625 27.984375 
M 54.390625 6.78125 
Q 54.390625 -7.171875 48.1875 -13.984375 
Q 42 -20.796875 29.203125 -20.796875 
Q 24.46875 -20.796875 20.265625 -20.09375 
Q 16.0625 -19.390625 12.109375 -17.921875 
L 12.109375 -9.1875 
Q 16.0625 -11.328125 19.921875 -12.34375 
Q 23.78125 -13.375 27.78125 -13.375 
Q 36.625 -13.375 41.015625 -8.765625 
Q 45.40625 -4.15625 45.40625 5.171875 
L 45.40625 9.625 
Q 42.625 4.78125 38.28125 2.390625 
Q 33.9375 0 27.875 0 
Q 17.828125 0 11.671875 7.65625 
Q 5.515625 15.328125 5.515625 27.984375 
Q 5.515625 40.671875 11.671875 48.328125 
Q 17.828125 56 27.875 56 
Q 33.9375 56 38.28125 53.609375 
Q 42.625 51.21875 45.40625 46.390625 
L 45.40625 54.6875 
L 54.390625 54.6875 
z
" id="DejaVuSans-67"/>
      <path d="M 12.40625 8.296875 
L 28.515625 8.296875 
L 28.515625 63.921875 
L 10.984375 60.40625 
L 10.984375 69.390625 
L 28.421875 72.90625 
L 38.28125 72.90625 
L 38.28125 8.296875 
L 54.390625 8.296875 
L 54.390625 0 
L 12.40625 0 
z
" id="DejaVuSans-31"/>
      <path id="DejaVuSans-20"/>
      <path d="M 37.109375 75.984375 
L 37.109375 68.5 
L 28.515625 68.5 
Q 23.6875 68.5 21.796875 66.546875 
Q 19.921875 64.59375 19.921875 59.515625 
L 19.921875 54.6875 
L 34.71875 54.6875 
L 34.71875 47.703125 
L 19.921875 47.703125 
L 19.921875 0 
L 10.890625 0 
L 10.890625 47.703125 
L 2.296875 47.703125 
L 2.296875 54.6875 
L 10.890625 54.6875 
L 10.890625 58.5 
Q 10.890625 67.625 15.140625 71.796875 
Q 19.390625 75.984375 28.609375 75.984375 
z
" id="DejaVuSans-66"/>
      <path d="M 31 75.875 
Q 24.46875 64.65625 21.28125 53.65625 
Q 18.109375 42.671875 18.109375 31.390625 
Q 18.109375 20.125 21.3125 9.0625 
Q 24.515625 -2 31 -13.1875 
L 23.1875 -13.1875 
Q 15.875 -1.703125 12.234375 9.375 
Q 8.59375 20.453125 8.59375 31.390625 
Q 8.59375 42.28125 12.203125 53.3125 
Q 15.828125 64.359375 23.1875 75.875 
z
" id="DejaVuSans-28"/>
      <path d="M 51.125 44 
L 36.921875 44 
L 32.8125 27.6875 
L 47.125 27.6875 
z
M 43.796875 71.78125 
L 38.71875 51.515625 
L 52.984375 51.515625 
L 58.109375 71.78125 
L 65.921875 71.78125 
L 60.890625 51.515625 
L 76.125 51.515625 
L 76.125 44 
L 58.984375 44 
L 54.984375 27.6875 
L 70.515625 27.6875 
L 70.515625 20.21875 
L 53.078125 20.21875 
L 48 0 
L 40.1875 0 
L 45.21875 20.21875 
L 30.90625 20.21875 
L 25.875 0 
L 18.015625 0 
L 23.09375 20.21875 
L 7.71875 20.21875 
L 7.71875 27.6875 
L 24.90625 27.6875 
L 29 44 
L 13.28125 44 
L 13.28125 51.515625 
L 30.90625 51.515625 
L 35.890625 71.78125 
z
" id="DejaVuSans-23"/>
      <path d="M 4.890625 31.390625 
L 31.203125 31.390625 
L 31.203125 23.390625 
L 4.890625 23.390625 
z
" id="DejaVuSans-2d"/>
      <path d="M 56.203125 29.59375 
L 56.203125 25.203125 
L 14.890625 25.203125 
Q 15.484375 15.921875 20.484375 11.0625 
Q 25.484375 6.203125 34.421875 6.203125 
Q 39.59375 6.203125 44.453125 7.46875 
Q 49.3125 8.734375 54.109375 11.28125 
L 54.109375 2.78125 
Q 49.265625 0.734375 44.1875 -0.34375 
Q 39.109375 -1.421875 33.890625 -1.421875 
Q 20.796875 -1.421875 13.15625 6.1875 
Q 5.515625 13.8125 5.515625 26.8125 
Q 5.515625 40.234375 12.765625 48.109375 
Q 20.015625 56 32.328125 56 
Q 43.359375 56 49.78125 48.890625 
Q 56.203125 41.796875 56.203125 29.59375 
M 47.21875 32.234375 
Q 47.125 39.59375 43.09375 43.984375 
Q 39.0625 48.390625 32.421875 48.390625 
Q 24.90625 48.390625 20.390625 44.140625 
Q 15.875 39.890625 15.1875 32.171875 
z
" id="DejaVuSans-65"/>
      <path d="M 2.984375 54.6875 
L 12.5 54.6875 
L 29.59375 8.796875 
L 46.6875 54.6875 
L 56.203125 54.6875 
L 35.6875 0 
L 23.484375 0 
z
" id="DejaVuSans-76"/>
      <path d="M 34.28125 27.484375 
Q 23.390625 27.484375 19.1875 25 
Q 14.984375 22.515625 14.984375 16.5 
Q 14.984375 11.71875 18.140625 8.90625 
Q 21.296875 6.109375 26.703125 6.109375 
Q 34.1875 6.109375 38.703125 11.40625 
Q 43.21875 16.703125 43.21875 25.484375 
L 43.21875 27.484375 
z
M 52.203125 31.203125 
L 52.203125 0 
L 43.21875 0 
L 43.21875 8.296875 
Q 40.140625 3.328125 35.546875 0.953125 
Q 30.953125 -1.421875 24.3125 -1.421875 
Q 15.921875 -1.421875 10.953125 3.296875 
Q 6 8.015625 6 15.921875 
Q 6 25.140625 12.171875 29.828125 
Q 18.359375 34.515625 30.609375 34.515625 
L 43.21875 34.515625 
L 43.21875 35.40625 
Q 43.21875 41.609375 39.140625 45 
Q 35.0625 48.390625 27.6875 48.390625 
Q 23 48.390625 18.546875 47.265625 
Q 14.109375 46.140625 10.015625 43.890625 
L 10.015625 52.203125 
Q 14.9375 54.109375 19.578125 55.046875 
Q 24.21875 56 28.609375 56 
Q 40.484375 56 46.34375 49.84375 
Q 52.203125 43.703125 52.203125 31.203125 
" id="DejaVuSans-61"/>
      <path d="M 44.28125 53.078125 
L 44.28125 44.578125 
Q 40.484375 46.53125 36.375 47.5 
Q 32.28125 48.484375 27.875 48.484375 
Q 21.1875 48.484375 17.84375 46.4375 
Q 14.5 44.390625 14.5 40.28125 
Q 14.5 37.15625 16.890625 35.375 
Q 19.28125 33.59375 26.515625 31.984375 
L 29.59375 31.296875 
Q 39.15625 29.25 43.1875 25.515625 
Q 47.21875 21.78125 47.21875 15.09375 
Q 47.21875 7.46875 41.1875 3.015625 
Q 35.15625 -1.421875 24.609375 -1.421875 
Q 20.21875 -1.421875 15.453125 -0.5625 
Q 10.6875 0.296875 5.421875 2 
L 5.421875 11.28125 
Q 10.40625 8.6875 15.234375 7.390625 
Q 20.0625 6.109375 24.8125 6.109375 
Q 31.15625 6.109375 34.5625 8.28125 
Q 37.984375 10.453125 37.984375 14.40625 
Q 37.984375 18.0625 35.515625 20.015625 
Q 33.0625 21.96875 24.703125 23.78125 
L 21.578125 24.515625 
Q 13.234375 26.265625 9.515625 29.90625 
Q 5.8125 33.546875 5.8125 39.890625 
Q 5.8125 47.609375 11.28125 51.796875 
Q 16.75 56 26.8125 56 
Q 31.78125 56 36.171875 55.265625 
Q 40.578125 54.546875 44.28125 53.078125 
" id="DejaVuSans-73"/>
      <path d="M 25.390625 72.90625 
L 33.6875 72.90625 
L 8.296875 -9.28125 
L 0 -9.28125 
z
" id="DejaVuSans-2f"/>
      <path d="M 45.40625 46.390625 
L 45.40625 75.984375 
L 54.390625 75.984375 
L 54.390625 0 
L 45.40625 0 
L 45.40625 8.203125 
Q 42.578125 3.328125 38.25 0.953125 
Q 33.9375 -1.421875 27.875 -1.421875 
Q 17.96875 -1.421875 11.734375 6.484375 
Q 5.515625 14.40625 5.515625 27.296875 
Q 5.515625 40.1875 11.734375 48.09375 
Q 17.96875 56 27.875 56 
Q 33.9375 56 38.25 53.625 
Q 42.578125 51.265625 45.40625 46.390625 
M 14.796875 27.296875 
Q 14.796875 17.390625 18.875 11.75 
Q 22.953125 6.109375 30.078125 6.109375 
Q 37.203125 6.109375 41.296875 11.75 
Q 45.40625 17.390625 45.40625 27.296875 
Q 45.40625 37.203125 41.296875 42.84375 
Q 37.203125 48.484375 30.078125 48.484375 
Q 22.953125 48.484375 18.875 42.84375 
Q 14.796875 37.203125 14.796875 27.296875 
" id="DejaVuSans-64"/>
      <path d="M 9.421875 54.6875 
L 18.40625 54.6875 
L 18.40625 0 
L 9.421875 0 
z
M 9.421875 75.984375 
L 18.40625 75.984375 
L 18.40625 64.59375 
L 9.421875 64.59375 
z
" id="DejaVuSans-69"/>
      <path d="M 52 44.1875 
Q 55.375 50.25 60.0625 53.125 
Q 64.75 56 71.09375 56 
Q 79.640625 56 84.28125 50.015625 
Q 88.921875 44.046875 88.921875 33.015625 
L 88.921875 0 
L 79.890625 0 
L 79.890625 32.71875 
Q 79.890625 40.578125 77.09375 44.375 
Q 74.3125 48.1875 68.609375 48.1875 
Q 61.625 48.1875 57.5625 43.546875 
Q 53.515625 38.921875 53.515625 30.90625 
L 53.515625 0 
L 44.484375 0 
L 44.484375 32.71875 
Q 44.484375 40.625 41.703125 44.40625 
Q 38.921875 48.1875 33.109375 48.1875 
Q 26.21875 48.1875 22.15625 43.53125 
Q 18.109375 38.875 18.109375 30.90625 
L 18.109375 0 
L 9.078125 0 
L 9.078125 54.6875 
L 18.109375 54.6875 
L 18.109375 46.1875 
Q 21.1875 51.21875 25.484375 53.609375 
Q 29.78125 56 35.6875 56 
Q 41.65625 56 45.828125 52.96875 
Q 50 49.953125 52 44.1875 
" id="DejaVuSans-6d"/>
      <path d="M 54.890625 33.015625 
L 54.890625 0 
L 45.90625 0 
L 45.90625 32.71875 
Q 45.90625 40.484375 42.875 44.328125 
Q 39.84375 48.1875 33.796875 48.1875 
Q 26.515625 48.1875 22.3125 43.546875 
Q 18.109375 38.921875 18.109375 30.90625 
L 18.109375 0 
L 9.078125 0 
L 9.078125 54.6875 
L 18.109375 54.6875 
L 18.109375 46.1875 
Q 21.34375 51.125 25.703125 53.5625 
Q 30.078125 56 35.796875 56 
Q 45.21875 56 50.046875 50.171875 
Q 54.890625 44.34375 54.890625 33.015625 
" id="DejaVuSans-6e"/>
      <path d="M 8.015625 75.875 
L 15.828125 75.875 
Q 23.140625 64.359375 26.78125 53.3125 
Q 30.421875 42.28125 30.421875 31.390625 
Q 30.421875 20.453125 26.78125 9.375 
Q 23.140625 -1.703125 15.828125 -13.1875 
L 8.015625 -13.1875 
Q 14.5 -2 17.703125 9.0625 
Q 20.90625 20.125 20.90625 31.390625 
Q 20.90625 42.671875 17.703125 53.65625 
Q 14.5 64.65625 8.015625 75.875 
" id="DejaVuSans-29"/>
     </defs>
     <g transform="translate(107.015156 342.278812)scale(0.18 -0.18)">
      <use xlink:href="#DejaVuSans-6c"/>
      <use x="27.783203" xlink:href="#DejaVuSans-6f"/>
      <use x="88.964844" xlink:href="#DejaVuSans-67"/>
      <use x="152.441406" xlink:href="#DejaVuSans-31"/>
      <use x="216.064453" xlink:href="#DejaVuSans-30"/>
      <use x="279.6875" xlink:href="#DejaVuSans-20"/>
      <use x="311.474609" xlink:href="#DejaVuSans-6f"/>
      <use x="372.65625" xlink:href="#DejaVuSans-66"/>
      <use x="407.861328" xlink:href="#DejaVuSans-20"/>
      <use x="439.648438" xlink:href="#DejaVuSans-28"/>
      <use x="478.662109" xlink:href="#DejaVuSans-23"/>
      <use x="562.451172" xlink:href="#DejaVuSans-20"/>
      <use x="594.238281" xlink:href="#DejaVuSans-66"/>
      <use x="629.365234" xlink:href="#DejaVuSans-2d"/>
      <use x="665.449219" xlink:href="#DejaVuSans-65"/>
      <use x="726.972656" xlink:href="#DejaVuSans-76"/>
      <use x="786.152344" xlink:href="#DejaVuSans-61"/>
      <use x="847.431641" xlink:href="#DejaVuSans-6c"/>
      <use x="875.214844" xlink:href="#DejaVuSans-73"/>
      <use x="927.314453" xlink:href="#DejaVuSans-20"/>
      <use x="959.101562" xlink:href="#DejaVuSans-2f"/>
      <use x="992.792969" xlink:href="#DejaVuSans-20"/>
      <use x="1024.580078" xlink:href="#DejaVuSans-64"/>
      <use x="1088.056641" xlink:href="#DejaVuSans-69"/>
      <use x="1115.839844" xlink:href="#DejaVuSans-6d"/>
      <use x="1213.251953" xlink:href="#DejaVuSans-65"/>
      <use x="1274.775391" xlink:href="#DejaVuSans-6e"/>
      <use x="1338.154297" xlink:href="#DejaVuSans-73"/>
      <use x="1390.253906" xlink:href="#DejaVuSans-69"/>
      <use x="1418.037109" xlink:href="#DejaVuSans-6f"/>
      <use x="1479.21875" xlink:href="#DejaVuSans-6e"/>
      <use x="1542.597656" xlink:href="#DejaVuSans-29"/>
     </g>
    </g>
   </g>
   <g id="matplotlib.axis_2">
    <g id="ytick_1">
     <g id="line2d_29">
      <path clip-path="url(#pee0584fc9c)" d="M 70.8 298.245375 
L 427.92 298.245375 
" style="fill:none;stroke:#b0b0b0;stroke-linecap:square;stroke-width:0.8;"/>
     </g>
     <g id="line2d_30">
      <defs>
       <path d="M 0 0 
L -3.5 0 
" id="m8d26c6ff5f" style="stroke:#000000;stroke-width:0.8;"/>
      </defs>
      <g>
       <use style="stroke:#000000;stroke-width:0.8;" x="70.8" xlink:href="#m8d26c6ff5f" y="298.245375"/>
      </g>
     </g>
     <g id="text_7">
      <!-- 0.0 -->
      <defs>
       <path d="M 10.6875 12.40625 
L 21 12.40625 
L 21 0 
L 10.6875 0 
z
" id="DejaVuSans-2e"/>
      </defs>
      <g transform="translate(31.99375 305.843812)scale(0.2 -0.2)">
       <use xlink:href="#DejaVuSans-30"/>
       <use x="63.623047" xlink:href="#DejaVuSans-2e"/>
       <use x="95.410156" xlink:href="#DejaVuSans-30"/>
      </g>
     </g>
    </g>
    <g id="ytick_2">
     <g id="line2d_31">
      <path clip-path="url(#pee0584fc9c)" d="M 70.8 245.549929 
L 427.92 245.549929 
" style="fill:none;stroke:#b0b0b0;stroke-linecap:square;stroke-width:0.8;"/>
     </g>
     <g id="line2d_32">
      <g>
       <use style="stroke:#000000;stroke-width:0.8;" x="70.8" xlink:href="#m8d26c6ff5f" y="245.549929"/>
      </g>
     </g>
     <g id="text_8">
      <!-- 0.2 -->
      <g transform="translate(31.99375 253.148367)scale(0.2 -0.2)">
       <use xlink:href="#DejaVuSans-30"/>
       <use x="63.623047" xlink:href="#DejaVuSans-2e"/>
       <use x="95.410156" xlink:href="#DejaVuSans-32"/>
      </g>
     </g>
    </g>
    <g id="ytick_3">
     <g id="line2d_33">
      <path clip-path="url(#pee0584fc9c)" d="M 70.8 192.854484 
L 427.92 192.854484 
" style="fill:none;stroke:#b0b0b0;stroke-linecap:square;stroke-width:0.8;"/>
     </g>
     <g id="line2d_34">
      <g>
       <use style="stroke:#000000;stroke-width:0.8;" x="70.8" xlink:href="#m8d26c6ff5f" y="192.854484"/>
      </g>
     </g>
     <g id="text_9">
      <!-- 0.4 -->
      <g transform="translate(31.99375 200.452921)scale(0.2 -0.2)">
       <use xlink:href="#DejaVuSans-30"/>
       <use x="63.623047" xlink:href="#DejaVuSans-2e"/>
       <use x="95.410156" xlink:href="#DejaVuSans-34"/>
      </g>
     </g>
    </g>
    <g id="ytick_4">
     <g id="line2d_35">
      <path clip-path="url(#pee0584fc9c)" d="M 70.8 140.159038 
L 427.92 140.159038 
" style="fill:none;stroke:#b0b0b0;stroke-linecap:square;stroke-width:0.8;"/>
     </g>
     <g id="line2d_36">
      <g>
       <use style="stroke:#000000;stroke-width:0.8;" x="70.8" xlink:href="#m8d26c6ff5f" y="140.159038"/>
      </g>
     </g>
     <g id="text_10">
      <!-- 0.6 -->
      <g transform="translate(31.99375 147.757476)scale(0.2 -0.2)">
       <use xlink:href="#DejaVuSans-30"/>
       <use x="63.623047" xlink:href="#DejaVuSans-2e"/>
       <use x="95.410156" xlink:href="#DejaVuSans-36"/>
      </g>
     </g>
    </g>
    <g id="ytick_5">
     <g id="line2d_37">
      <path clip-path="url(#pee0584fc9c)" d="M 70.8 87.463593 
L 427.92 87.463593 
" style="fill:none;stroke:#b0b0b0;stroke-linecap:square;stroke-width:0.8;"/>
     </g>
     <g id="line2d_38">
      <g>
       <use style="stroke:#000000;stroke-width:0.8;" x="70.8" xlink:href="#m8d26c6ff5f" y="87.463593"/>
      </g>
     </g>
     <g id="text_11">
      <!-- 0.8 -->
      <g transform="translate(31.99375 95.06203)scale(0.2 -0.2)">
       <use xlink:href="#DejaVuSans-30"/>
       <use x="63.623047" xlink:href="#DejaVuSans-2e"/>
       <use x="95.410156" xlink:href="#DejaVuSans-38"/>
      </g>
     </g>
    </g>
    <g id="ytick_6">
     <g id="line2d_39">
      <path clip-path="url(#pee0584fc9c)" d="M 70.8 34.768147 
L 427.92 34.768147 
" style="fill:none;stroke:#b0b0b0;stroke-linecap:square;stroke-width:0.8;"/>
     </g>
     <g id="line2d_40">
      <g>
       <use style="stroke:#000000;stroke-width:0.8;" x="70.8" xlink:href="#m8d26c6ff5f" y="34.768147"/>
      </g>
     </g>
     <g id="text_12">
      <!-- 1.0 -->
      <g transform="translate(31.99375 42.366585)scale(0.2 -0.2)">
       <use xlink:href="#DejaVuSans-31"/>
       <use x="63.623047" xlink:href="#DejaVuSans-2e"/>
       <use x="95.410156" xlink:href="#DejaVuSans-30"/>
      </g>
     </g>
    </g>
    <g id="text_13">
     <!-- Proportion of function+target pairs -->
     <defs>
      <path d="M 19.671875 64.796875 
L 19.671875 37.40625 
L 32.078125 37.40625 
Q 38.96875 37.40625 42.71875 40.96875 
Q 46.484375 44.53125 46.484375 51.125 
Q 46.484375 57.671875 42.71875 61.234375 
Q 38.96875 64.796875 32.078125 64.796875 
z
M 9.8125 72.90625 
L 32.078125 72.90625 
Q 44.34375 72.90625 50.609375 67.359375 
Q 56.890625 61.8125 56.890625 51.125 
Q 56.890625 40.328125 50.609375 34.8125 
Q 44.34375 29.296875 32.078125 29.296875 
L 19.671875 29.296875 
L 19.671875 0 
L 9.8125 0 
z
" id="DejaVuSans-50"/>
      <path d="M 41.109375 46.296875 
Q 39.59375 47.171875 37.8125 47.578125 
Q 36.03125 48 33.890625 48 
Q 26.265625 48 22.1875 43.046875 
Q 18.109375 38.09375 18.109375 28.8125 
L 18.109375 0 
L 9.078125 0 
L 9.078125 54.6875 
L 18.109375 54.6875 
L 18.109375 46.1875 
Q 20.953125 51.171875 25.484375 53.578125 
Q 30.03125 56 36.53125 56 
Q 37.453125 56 38.578125 55.875 
Q 39.703125 55.765625 41.0625 55.515625 
z
" id="DejaVuSans-72"/>
      <path d="M 18.109375 8.203125 
L 18.109375 -20.796875 
L 9.078125 -20.796875 
L 9.078125 54.6875 
L 18.109375 54.6875 
L 18.109375 46.390625 
Q 20.953125 51.265625 25.265625 53.625 
Q 29.59375 56 35.59375 56 
Q 45.5625 56 51.78125 48.09375 
Q 58.015625 40.1875 58.015625 27.296875 
Q 58.015625 14.40625 51.78125 6.484375 
Q 45.5625 -1.421875 35.59375 -1.421875 
Q 29.59375 -1.421875 25.265625 0.953125 
Q 20.953125 3.328125 18.109375 8.203125 
M 48.6875 27.296875 
Q 48.6875 37.203125 44.609375 42.84375 
Q 40.53125 48.484375 33.40625 48.484375 
Q 26.265625 48.484375 22.1875 42.84375 
Q 18.109375 37.203125 18.109375 27.296875 
Q 18.109375 17.390625 22.1875 11.75 
Q 26.265625 6.109375 33.40625 6.109375 
Q 40.53125 6.109375 44.609375 11.75 
Q 48.6875 17.390625 48.6875 27.296875 
" id="DejaVuSans-70"/>
      <path d="M 18.3125 70.21875 
L 18.3125 54.6875 
L 36.8125 54.6875 
L 36.8125 47.703125 
L 18.3125 47.703125 
L 18.3125 18.015625 
Q 18.3125 11.328125 20.140625 9.421875 
Q 21.96875 7.515625 27.59375 7.515625 
L 36.8125 7.515625 
L 36.8125 0 
L 27.59375 0 
Q 17.1875 0 13.234375 3.875 
Q 9.28125 7.765625 9.28125 18.015625 
L 9.28125 47.703125 
L 2.6875 47.703125 
L 2.6875 54.6875 
L 9.28125 54.6875 
L 9.28125 70.21875 
z
" id="DejaVuSans-74"/>
      <path d="M 8.5 21.578125 
L 8.5 54.6875 
L 17.484375 54.6875 
L 17.484375 21.921875 
Q 17.484375 14.15625 20.5 10.265625 
Q 23.53125 6.390625 29.59375 6.390625 
Q 36.859375 6.390625 41.078125 11.03125 
Q 45.3125 15.671875 45.3125 23.6875 
L 45.3125 54.6875 
L 54.296875 54.6875 
L 54.296875 0 
L 45.3125 0 
L 45.3125 8.40625 
Q 42.046875 3.421875 37.71875 1 
Q 33.40625 -1.421875 27.6875 -1.421875 
Q 18.265625 -1.421875 13.375 4.4375 
Q 8.5 10.296875 8.5 21.578125 
M 31.109375 56 
z
" id="DejaVuSans-75"/>
      <path d="M 48.78125 52.59375 
L 48.78125 44.1875 
Q 44.96875 46.296875 41.140625 47.34375 
Q 37.3125 48.390625 33.40625 48.390625 
Q 24.65625 48.390625 19.8125 42.84375 
Q 14.984375 37.3125 14.984375 27.296875 
Q 14.984375 17.28125 19.8125 11.734375 
Q 24.65625 6.203125 33.40625 6.203125 
Q 37.3125 6.203125 41.140625 7.25 
Q 44.96875 8.296875 48.78125 10.40625 
L 48.78125 2.09375 
Q 45.015625 0.34375 40.984375 -0.53125 
Q 36.96875 -1.421875 32.421875 -1.421875 
Q 20.0625 -1.421875 12.78125 6.34375 
Q 5.515625 14.109375 5.515625 27.296875 
Q 5.515625 40.671875 12.859375 48.328125 
Q 20.21875 56 33.015625 56 
Q 37.15625 56 41.109375 55.140625 
Q 45.0625 54.296875 48.78125 52.59375 
" id="DejaVuSans-63"/>
      <path d="M 46 62.703125 
L 46 35.5 
L 73.1875 35.5 
L 73.1875 27.203125 
L 46 27.203125 
L 46 0 
L 37.796875 0 
L 37.796875 27.203125 
L 10.59375 27.203125 
L 10.59375 35.5 
L 37.796875 35.5 
L 37.796875 62.703125 
z
" id="DejaVuSans-2b"/>
     </defs>
     <g transform="translate(24.250312 323.17875)rotate(-90)scale(0.18 -0.18)">
      <use xlink:href="#DejaVuSans-50"/>
      <use x="60.287109" xlink:href="#DejaVuSans-72"/>
      <use x="101.369141" xlink:href="#DejaVuSans-6f"/>
      <use x="162.550781" xlink:href="#DejaVuSans-70"/>
      <use x="226.027344" xlink:href="#DejaVuSans-6f"/>
      <use x="287.208984" xlink:href="#DejaVuSans-72"/>
      <use x="328.322266" xlink:href="#DejaVuSans-74"/>
      <use x="367.53125" xlink:href="#DejaVuSans-69"/>
      <use x="395.314453" xlink:href="#DejaVuSans-6f"/>
      <use x="456.496094" xlink:href="#DejaVuSans-6e"/>
      <use x="519.875" xlink:href="#DejaVuSans-20"/>
      <use x="551.662109" xlink:href="#DejaVuSans-6f"/>
      <use x="612.84375" xlink:href="#DejaVuSans-66"/>
      <use x="648.048828" xlink:href="#DejaVuSans-20"/>
      <use x="679.835938" xlink:href="#DejaVuSans-66"/>
      <use x="715.041016" xlink:href="#DejaVuSans-75"/>
      <use x="778.419922" xlink:href="#DejaVuSans-6e"/>
      <use x="841.798828" xlink:href="#DejaVuSans-63"/>
      <use x="896.779297" xlink:href="#DejaVuSans-74"/>
      <use x="935.988281" xlink:href="#DejaVuSans-69"/>
      <use x="963.771484" xlink:href="#DejaVuSans-6f"/>
      <use x="1024.953125" xlink:href="#DejaVuSans-6e"/>
      <use x="1088.332031" xlink:href="#DejaVuSans-2b"/>
      <use x="1172.121094" xlink:href="#DejaVuSans-74"/>
      <use x="1211.330078" xlink:href="#DejaVuSans-61"/>
      <use x="1272.609375" xlink:href="#DejaVuSans-72"/>
      <use x="1313.707031" xlink:href="#DejaVuSans-67"/>
      <use x="1377.183594" xlink:href="#DejaVuSans-65"/>
      <use x="1438.707031" xlink:href="#DejaVuSans-74"/>
      <use x="1477.916016" xlink:href="#DejaVuSans-20"/>
      <use x="1509.703125" xlink:href="#DejaVuSans-70"/>
      <use x="1573.179688" xlink:href="#DejaVuSans-61"/>
      <use x="1634.458984" xlink:href="#DejaVuSans-69"/>
      <use x="1662.242188" xlink:href="#DejaVuSans-72"/>
      <use x="1703.355469" xlink:href="#DejaVuSans-73"/>
     </g>
    </g>
   </g>
   <g id="line2d_41">
    <defs>
     <path d="M 0 1.5 
C 0.397805 1.5 0.77937 1.341951 1.06066 1.06066 
C 1.341951 0.77937 1.5 0.397805 1.5 0 
C 1.5 -0.397805 1.341951 -0.77937 1.06066 -1.06066 
C 0.77937 -1.341951 0.397805 -1.5 0 -1.5 
C -0.397805 -1.5 -0.77937 -1.341951 -1.06066 -1.06066 
C -1.341951 -0.77937 -1.5 -0.397805 -1.5 0 
C -1.5 0.397805 -1.341951 0.77937 -1.06066 1.06066 
C -0.77937 1.341951 -0.397805 1.5 0 1.5 
z
" id="m0ad5588815" style="stroke:#000080;"/>
    </defs>
    <g>
     <use style="fill:#000080;stroke:#000080;" x="337.832595" xlink:href="#m0ad5588815" y="200.087192"/>
     <use style="fill:#000080;stroke:#000080;" x="337.832595" xlink:href="#m0ad5588815" y="200.087192"/>
    </g>
   </g>
   <g id="line2d_42">
    <path d="M 58.414766 298.245375 
L 58.414766 295.662265 
L 70.8 295.662265 
L 70.8 290.496045 
L 78.044898 290.496045 
L 78.044898 289.462801 
L 83.185234 289.462801 
L 83.185234 287.912935 
L 87.172389 287.912935 
L 87.172389 287.396313 
L 90.430132 287.396313 
L 90.430132 285.846447 
L 93.184514 285.846447 
L 93.184514 285.329825 
L 109.03895 285.329825 
L 109.03895 284.296581 
L 111.026343 284.296581 
L 111.026343 283.263337 
L 114.44014 283.263337 
L 114.44014 282.746715 
L 115.2006 282.746715 
L 115.2006 282.230093 
L 117.954982 282.230093 
L 117.954982 281.196849 
L 124.769302 281.196849 
L 124.769302 280.163604 
L 126.825374 280.163604 
L 126.825374 279.646982 
L 135.3203 279.646982 
L 135.3203 279.13036 
L 139.783966 279.13036 
L 139.783966 278.613738 
L 145.796091 278.613738 
L 145.796091 278.097116 
L 146.584518 278.097116 
L 146.584518 277.063872 
L 148.299213 277.063872 
L 148.299213 276.54725 
L 234.201085 276.54725 
L 234.201085 276.030628 
L 244.816984 276.030628 
L 244.816984 274.997384 
L 263.378781 274.997384 
L 263.427908 263.115078 
L 263.496534 263.115078 
L 263.496534 262.598456 
L 266.577012 262.598456 
L 266.577012 262.081834 
L 275.761499 262.081834 
L 275.79334 251.232772 
L 283.00823 251.232772 
L 283.057359 242.966819 
L 283.872938 242.966819 
L 283.885303 241.933575 
L 288.156608 241.933575 
L 288.187177 235.734111 
L 290.053218 235.734111 
L 290.056987 234.184245 
L 292.148848 234.184245 
L 292.163218 230.567891 
L 293.372004 230.567891 
L 293.372004 230.051269 
L 295.40222 230.051269 
L 295.417828 228.501403 
L 295.837502 228.501403 
L 295.839108 227.468159 
L 295.983207 227.468159 
L 295.983207 226.951537 
L 298.162765 226.951537 
L 298.174093 225.401671 
L 298.66181 225.401671 
L 298.66181 224.885049 
L 299.270394 224.885049 
L 299.270394 224.368427 
L 300.548105 224.368427 
L 300.55697 221.785317 
L 302.647883 221.785317 
L 302.656924 220.752073 
L 304.538066 220.752073 
L 304.538066 220.235451 
L 304.88255 220.235451 
L 304.890675 219.202207 
L 305.313743 219.202207 
L 305.313743 218.685585 
L 306.558091 218.685585 
L 306.558524 217.652341 
L 306.800608 217.652341 
L 306.811709 216.619097 
L 307.792824 216.619097 
L 307.801108 215.585853 
L 309.426353 215.585853 
L 309.426353 215.069231 
L 309.709127 215.069231 
L 309.709127 214.552609 
L 310.54196 214.552609 
L 310.54196 214.035987 
L 310.794516 214.035987 
L 310.794516 213.519365 
L 311.111336 213.519365 
L 311.111336 213.002743 
L 311.779575 213.002743 
L 311.783684 211.969498 
L 312.934898 211.969498 
L 312.937062 210.936254 
L 316.19062 210.936254 
L 316.19062 210.419632 
L 316.341574 210.419632 
L 316.420736 209.386388 
L 317.954412 209.386388 
L 317.954412 208.869766 
L 318.783021 208.869766 
L 318.783021 208.353144 
L 319.421112 208.353144 
L 319.421112 207.836522 
L 319.568963 207.836522 
L 319.568963 207.3199 
L 319.763141 207.3199 
L 319.763141 206.803278 
L 320.327419 206.803278 
L 320.327419 206.286656 
L 321.046852 206.286656 
L 321.051093 204.73679 
L 322.521395 204.73679 
L 322.521395 204.220168 
L 324.285134 204.220168 
L 324.285134 203.703546 
L 325.567241 203.703546 
L 325.567241 203.186924 
L 328.087634 203.186924 
L 328.087634 202.670302 
L 328.484077 202.670302 
L 328.484077 202.15368 
L 330.334373 202.15368 
L 330.334373 201.637058 
L 330.603268 201.637058 
L 330.680995 200.603814 
L 337.832595 200.603814 
L 337.832595 200.087192 
L 358.8 200.087192 
L 358.8 200.087192 
" style="fill:none;stroke:#000080;stroke-linecap:square;stroke-width:1.5;"/>
   </g>
   <g id="line2d_43">
    <defs>
     <path d="M 0 6 
C 1.591219 6 3.117479 5.367802 4.242641 4.242641 
C 5.367802 3.117479 6 1.591219 6 0 
C 6 -1.591219 5.367802 -3.117479 4.242641 -4.242641 
C 3.117479 -5.367802 1.591219 -6 0 -6 
C -1.591219 -6 -3.117479 -5.367802 -4.242641 -4.242641 
C -5.367802 -3.117479 -6 -1.591219 -6 0 
C -6 1.591219 -5.367802 3.117479 -4.242641 4.242641 
C -3.117479 5.367802 -1.591219 6 0 6 
z
" id="m216cb3faab" style="stroke:#000080;stroke-width:1.5;"/>
    </defs>
    <g>
     <use style="fill:none;stroke:#000080;stroke-width:1.5;" x="93.184514" xlink:href="#m216cb3faab" y="285.329825"/>
     <use style="fill:none;stroke:#000080;stroke-width:1.5;" x="148.299213" xlink:href="#m216cb3faab" y="276.54725"/>
     <use style="fill:none;stroke:#000080;stroke-width:1.5;" x="283.033555" xlink:href="#m216cb3faab" y="243.483441"/>
     <use style="fill:none;stroke:#000080;stroke-width:1.5;" x="305.313743" xlink:href="#m216cb3faab" y="218.685585"/>
     <use style="fill:none;stroke:#000080;stroke-width:1.5;" x="337.832595" xlink:href="#m216cb3faab" y="200.087192"/>
     <use style="fill:none;stroke:#000080;stroke-width:1.5;" x="358.8" xlink:href="#m216cb3faab" y="200.087192"/>
    </g>
   </g>
   <g id="line2d_44"/>
   <g id="line2d_45">
    <path clip-path="url(#pee0584fc9c)" d="M 263.397592 270.864408 
" style="fill:none;stroke:#000080;stroke-linecap:square;stroke-width:1.5;"/>
    <defs>
     <path d="M -12 12 
L 12 -12 
M -12 -12 
L 12 12 
" id="m93574c6236" style="stroke:#000080;stroke-width:3;"/>
    </defs>
    <g clip-path="url(#pee0584fc9c)">
     <use style="fill:#000080;stroke:#000080;stroke-width:3;" x="263.397592" xlink:href="#m93574c6236" y="270.864408"/>
    </g>
   </g>
   <g id="line2d_46">
    <defs>
     <path d="M 0 1.5 
C 0.397805 1.5 0.77937 1.341951 1.06066 1.06066 
C 1.341951 0.77937 1.5 0.397805 1.5 0 
C 1.5 -0.397805 1.341951 -0.77937 1.06066 -1.06066 
C 0.77937 -1.341951 0.397805 -1.5 0 -1.5 
C -0.397805 -1.5 -0.77937 -1.341951 -1.06066 -1.06066 
C -1.341951 -0.77937 -1.5 -0.397805 -1.5 0 
C -1.5 0.397805 -1.341951 0.77937 -1.06066 1.06066 
C -0.77937 1.341951 -0.397805 1.5 0 1.5 
z
" id="m3ca860b600" style="stroke:#ff00ff;"/>
    </defs>
    <g>
     <use style="fill:#ff00ff;stroke:#ff00ff;" x="332.931461" xlink:href="#m3ca860b600" y="60.599248"/>
     <use style="fill:#ff00ff;stroke:#ff00ff;" x="332.931461" xlink:href="#m3ca860b600" y="60.599248"/>
    </g>
   </g>
   <g id="line2d_47">
    <path d="M 58.414766 298.245375 
L 58.414766 225.918293 
L 90.430132 225.918293 
L 90.430132 225.401671 
L 110.060263 225.401671 
L 110.060263 223.851805 
L 114.44014 223.851805 
L 114.44014 222.301939 
L 115.930012 222.301939 
L 115.930012 221.268695 
L 117.954982 221.268695 
L 117.954982 219.718829 
L 118.581998 219.718829 
L 118.581998 216.619097 
L 120.890768 216.619097 
L 120.890768 215.585853 
L 127.209649 215.585853 
L 127.209649 214.552609 
L 131.572989 214.552609 
L 131.572989 213.002743 
L 133.276002 213.002743 
L 133.276002 210.419632 
L 135.077192 210.419632 
L 135.077192 209.90301 
L 135.796811 209.90301 
L 135.796811 208.869766 
L 136.488566 208.869766 
L 136.488566 208.353144 
L 137.796573 208.353144 
L 137.796573 203.186924 
L 139.210608 203.186924 
L 139.210608 201.637058 
L 141.909413 201.637058 
L 141.909413 200.603814 
L 142.403494 200.603814 
L 142.403494 200.087192 
L 143.352466 200.087192 
L 143.352466 198.537326 
L 144.971262 198.537326 
L 144.971262 194.40435 
L 149.209888 194.40435 
L 149.209888 192.854484 
L 150.597364 192.854484 
L 150.597364 191.304618 
L 151.302113 191.304618 
L 151.302113 188.204886 
L 160.567279 188.204886 
L 160.567279 187.688264 
L 161.595122 187.688264 
L 161.595122 185.621776 
L 165.018567 185.621776 
L 165.018567 184.588532 
L 166.638084 184.588532 
L 166.638084 183.555288 
L 166.969752 183.555288 
L 166.969752 182.522044 
L 168.616665 182.522044 
L 168.616665 180.455556 
L 173.757002 180.455556 
L 173.757002 179.938934 
L 176.047884 179.938934 
L 176.047884 179.422312 
L 176.916142 179.422312 
L 176.916142 177.355823 
L 190.352745 177.355823 
L 190.352745 176.839201 
L 200.009474 176.839201 
L 200.009474 176.322579 
L 208.206836 176.322579 
L 208.206836 175.805957 
L 209.673157 175.805957 
L 209.673157 174.772713 
L 212.346158 174.772713 
L 212.346158 174.256091 
L 215.417651 174.256091 
L 215.417651 173.739469 
L 217.526153 173.739469 
L 217.526153 173.222847 
L 219.609412 173.222847 
L 219.609412 172.706225 
L 223.585339 172.706225 
L 223.585339 169.606493 
L 226.230531 169.606493 
L 226.230531 169.089871 
L 238.239295 169.089871 
L 238.239295 168.573249 
L 244.487481 168.573249 
L 244.487481 167.023383 
L 261.558359 167.023383 
L 261.558359 164.440273 
L 263.279932 164.440273 
L 263.389586 161.857163 
L 263.406525 161.857163 
L 263.514482 147.908369 
L 263.518365 147.908369 
L 263.564897 144.808637 
L 264.553345 144.808637 
L 264.553345 144.292014 
L 264.696894 144.292014 
L 264.719209 143.25877 
L 265.064202 143.25877 
L 265.064202 142.742148 
L 265.225748 142.742148 
L 265.225748 142.225526 
L 265.478869 142.225526 
L 265.506682 140.67566 
L 265.656422 140.67566 
L 265.656422 140.159038 
L 268.702283 140.159038 
L 268.725508 139.125794 
L 272.393065 139.125794 
L 272.393065 138.609172 
L 274.885886 138.609172 
L 274.893322 137.575928 
L 275.766344 137.575928 
L 275.868342 125.177 
L 276.288893 125.177 
L 276.288893 124.660378 
L 276.727692 124.660378 
L 276.727692 124.143756 
L 276.853839 124.143756 
L 276.860675 123.110512 
L 280.834242 123.110512 
L 280.834242 122.59389 
L 282.439796 122.59389 
L 282.439796 122.077268 
L 282.983863 122.077268 
L 283.074695 113.294694 
L 283.099185 113.294694 
L 283.099185 112.778072 
L 283.359443 112.778072 
L 283.363827 111.744828 
L 283.652371 111.744828 
L 283.7596 107.611851 
L 284.980246 107.611851 
L 284.980246 107.095229 
L 286.540093 107.095229 
L 286.540093 106.578607 
L 288.096903 106.578607 
L 288.198609 101.929009 
L 288.214072 101.929009 
L 288.214072 101.412387 
L 288.407096 101.412387 
L 288.439256 99.345899 
L 288.644654 99.345899 
L 288.730089 98.312655 
L 288.764014 98.312655 
L 288.764014 97.796033 
L 289.653202 97.796033 
L 289.664247 96.246167 
L 291.807252 96.246167 
L 291.807252 95.729545 
L 292.081647 95.729545 
L 292.19118 90.563325 
L 292.525289 90.563325 
L 292.541655 89.530081 
L 295.395544 89.530081 
L 295.443398 85.397105 
L 295.57307 85.397105 
L 295.57307 84.880483 
L 295.722401 84.880483 
L 295.788051 82.813995 
L 296.425025 82.813995 
L 296.425025 82.297373 
L 298.139795 82.297373 
L 298.178744 78.681019 
L 298.434554 78.681019 
L 298.434554 78.164397 
L 300.329758 78.164397 
L 300.332679 77.131153 
L 300.544404 77.131153 
L 300.560901 75.581286 
L 300.681646 75.581286 
L 300.790884 74.548042 
L 302.447663 74.548042 
L 302.447663 74.03142 
L 302.654608 74.03142 
L 302.672369 72.481554 
L 304.5123 72.481554 
L 304.526371 71.44831 
L 306.243039 71.44831 
L 306.250568 69.898444 
L 307.783434 69.898444 
L 307.783434 69.381822 
L 307.961609 69.381822 
L 307.961609 68.8652 
L 309.084189 68.8652 
L 309.084189 68.348578 
L 310.539605 68.348578 
L 310.545432 66.798712 
L 311.795135 66.798712 
L 311.795135 66.28209 
L 311.912232 66.28209 
L 311.912232 65.765468 
L 312.939808 65.765468 
L 312.944054 64.732224 
L 313.070657 64.732224 
L 313.070657 64.215602 
L 314.007722 64.215602 
L 314.007722 63.69898 
L 316.013675 63.69898 
L 316.013675 63.182358 
L 316.917388 63.182358 
L 316.917388 62.665736 
L 317.797268 62.665736 
L 317.797268 62.149114 
L 321.608583 62.149114 
L 321.608583 61.632492 
L 323.553093 61.632492 
L 323.553093 61.11587 
L 332.931461 61.11587 
L 332.931461 60.599248 
L 358.8 60.599248 
L 358.8 60.599248 
" style="fill:none;stroke:#ff00ff;stroke-linecap:square;stroke-width:1.5;"/>
   </g>
   <g id="line2d_48">
    <defs>
     <path d="M -0 8.485281 
L 5.091169 0 
L 0 -8.485281 
L -5.091169 -0 
z
" id="m155a153ca5" style="stroke:#ff00ff;stroke-linejoin:miter;stroke-width:1.5;"/>
    </defs>
    <g>
     <use style="fill:none;stroke:#ff00ff;stroke-linejoin:miter;stroke-width:1.5;" x="58.414766" xlink:href="#m155a153ca5" y="298.245375"/>
     <use style="fill:none;stroke:#ff00ff;stroke-linejoin:miter;stroke-width:1.5;" x="176.916142" xlink:href="#m155a153ca5" y="179.422312"/>
     <use style="fill:none;stroke:#ff00ff;stroke-linejoin:miter;stroke-width:1.5;" x="263.422518" xlink:href="#m155a153ca5" y="158.240809"/>
     <use style="fill:none;stroke:#ff00ff;stroke-linejoin:miter;stroke-width:1.5;" x="309.084189" xlink:href="#m155a153ca5" y="68.348578"/>
     <use style="fill:none;stroke:#ff00ff;stroke-linejoin:miter;stroke-width:1.5;" x="332.931461" xlink:href="#m155a153ca5" y="60.599248"/>
     <use style="fill:none;stroke:#ff00ff;stroke-linejoin:miter;stroke-width:1.5;" x="358.8" xlink:href="#m155a153ca5" y="60.599248"/>
    </g>
   </g>
   <g id="line2d_49"/>
   <g id="line2d_50">
    <path clip-path="url(#pee0584fc9c)" d="M 263.397592 161.857163 
" style="fill:none;stroke:#ff00ff;stroke-linecap:square;stroke-width:1.5;"/>
    <defs>
     <path d="M -12 12 
L 12 -12 
M -12 -12 
L 12 12 
" id="mb6141840fe" style="stroke:#ff00ff;stroke-width:3;"/>
    </defs>
    <g clip-path="url(#pee0584fc9c)">
     <use style="fill:#ff00ff;stroke:#ff00ff;stroke-width:3;" x="263.397592" xlink:href="#mb6141840fe" y="161.857163"/>
    </g>
   </g>
   <g id="line2d_51">
    <defs>
     <path d="M 0 1.5 
C 0.397805 1.5 0.77937 1.341951 1.06066 1.06066 
C 1.341951 0.77937 1.5 0.397805 1.5 0 
C 1.5 -0.397805 1.341951 -0.77937 1.06066 -1.06066 
C 0.77937 -1.341951 0.397805 -1.5 0 -1.5 
C -0.397805 -1.5 -0.77937 -1.341951 -1.06066 -1.06066 
C -1.341951 -0.77937 -1.5 -0.397805 -1.5 0 
C -1.5 0.397805 -1.341951 0.77937 -1.06066 1.06066 
C -0.77937 1.341951 -0.397805 1.5 0 1.5 
z
" id="m5d8f1a6805" style="stroke:#ffa500;"/>
    </defs>
    <g>
     <use style="fill:#ffa500;stroke:#ffa500;" x="336.262733" xlink:href="#m5d8f1a6805" y="163.923651"/>
     <use style="fill:#ffa500;stroke:#ffa500;" x="336.262733" xlink:href="#m5d8f1a6805" y="163.923651"/>
    </g>
   </g>
   <g id="line2d_52">
    <path d="M 58.414766 298.245375 
L 58.414766 287.912935 
L 70.8 287.912935 
L 70.8 285.846447 
L 78.044898 285.846447 
L 78.044898 281.196849 
L 83.185234 281.196849 
L 83.185234 277.063872 
L 87.172389 277.063872 
L 87.172389 276.030628 
L 90.430132 276.030628 
L 90.430132 275.514006 
L 95.570468 275.514006 
L 95.570468 271.897652 
L 102.815366 271.897652 
L 102.815366 270.347786 
L 105.569748 270.347786 
L 105.569748 269.831164 
L 109.03895 269.831164 
L 109.03895 268.79792 
L 111.942857 268.79792 
L 111.942857 268.281298 
L 112.814645 268.281298 
L 112.814645 267.764676 
L 120.890768 267.764676 
L 120.890768 266.731432 
L 130.340216 266.731432 
L 130.340216 266.21481 
L 135.3203 266.21481 
L 135.3203 265.181566 
L 136.713325 265.181566 
L 136.713325 264.664944 
L 142.075629 264.664944 
L 142.075629 264.148322 
L 148.760352 264.148322 
L 148.760352 261.565212 
L 150.801573 261.565212 
L 150.801573 260.531968 
L 163.834815 260.531968 
L 163.834815 260.015346 
L 169.133547 260.015346 
L 169.133547 258.46548 
L 171.736526 258.46548 
L 171.736526 257.948858 
L 175.030932 257.948858 
L 175.030932 255.88237 
L 189.21879 255.88237 
L 189.21879 255.365748 
L 191.657879 255.365748 
L 191.740221 254.332504 
L 199.458026 254.332504 
L 199.458026 253.29926 
L 208.042643 253.29926 
L 208.042643 252.782638 
L 212.137515 252.782638 
L 212.137515 251.749394 
L 226.704023 251.749394 
L 226.704023 251.232772 
L 235.405346 251.232772 
L 235.405346 250.199528 
L 242.368633 250.199528 
L 242.368633 249.682906 
L 249.784026 249.682906 
L 249.784026 249.166284 
L 255.607039 249.166284 
L 255.607039 248.649662 
L 258.526557 248.649662 
L 258.526557 248.13304 
L 260.983028 248.13304 
L 260.983028 247.099796 
L 263.39573 247.099796 
L 263.43051 239.350465 
L 263.535921 239.350465 
L 263.535921 238.833843 
L 264.397899 238.833843 
L 264.417426 236.767355 
L 264.914524 236.767355 
L 264.914524 236.250733 
L 269.210684 236.250733 
L 269.210684 235.734111 
L 269.654859 235.734111 
L 269.654859 235.217489 
L 275.78841 235.217489 
L 275.856296 232.634379 
L 275.967274 232.634379 
L 275.967274 232.117757 
L 276.126844 232.117757 
L 276.126844 231.601135 
L 276.280206 231.601135 
L 276.306798 230.051269 
L 277.558307 230.051269 
L 277.558307 229.534647 
L 278.346214 229.534647 
L 278.346214 229.018025 
L 279.530977 229.018025 
L 279.530977 228.501403 
L 283.014378 228.501403 
L 283.053703 224.885049 
L 283.14523 224.885049 
L 283.155891 223.335183 
L 283.309673 223.335183 
L 283.377706 221.785317 
L 288.178435 221.785317 
L 288.266077 219.718829 
L 288.37934 219.718829 
L 288.37934 219.202207 
L 289.492313 219.202207 
L 289.492313 218.685585 
L 289.940844 218.685585 
L 289.940844 218.168963 
L 292.161692 218.168963 
L 292.229037 214.035987 
L 292.297866 214.035987 
L 292.361279 213.002743 
L 293.589193 213.002743 
L 293.589193 212.48612 
L 294.335361 212.48612 
L 294.335361 211.969498 
L 295.033592 211.969498 
L 295.033592 211.452876 
L 295.435281 211.452876 
L 295.470292 209.90301 
L 295.548147 209.90301 
L 295.562612 208.869766 
L 297.249318 208.869766 
L 297.249318 208.353144 
L 298.169148 208.353144 
L 298.201983 205.253412 
L 298.290305 205.253412 
L 298.320862 203.703546 
L 300.557598 203.703546 
L 300.602509 200.603814 
L 300.681508 200.603814 
L 300.697672 199.053948 
L 302.408527 199.053948 
L 302.408527 198.537326 
L 302.667925 198.537326 
L 302.709076 196.470838 
L 303.471359 196.470838 
L 303.476358 195.437594 
L 304.554907 195.437594 
L 304.633652 193.371106 
L 306.278964 193.371106 
L 306.348984 191.82124 
L 307.272661 191.82124 
L 307.272661 191.304618 
L 307.800332 191.304618 
L 307.885252 190.271374 
L 309.312573 190.271374 
L 309.406728 189.23813 
L 309.799834 189.23813 
L 309.799834 188.721508 
L 310.100058 188.721508 
L 310.100058 188.204886 
L 310.558011 188.204886 
L 310.648752 185.621776 
L 311.093698 185.621776 
L 311.093698 185.105154 
L 311.820952 185.105154 
L 311.821968 184.07191 
L 312.547168 184.07191 
L 312.547168 183.555288 
L 312.950182 183.555288 
L 312.950182 183.038666 
L 313.401092 183.038666 
L 313.401092 182.522044 
L 314.034277 182.522044 
L 314.09018 181.4888 
L 315.055691 181.4888 
L 315.065661 180.455556 
L 316.015526 180.455556 
L 316.072835 178.90569 
L 317.811303 178.90569 
L 317.848492 177.355823 
L 318.641249 177.355823 
L 318.653015 176.322579 
L 319.476819 176.322579 
L 319.476819 175.805957 
L 320.196312 175.805957 
L 320.196312 175.289335 
L 320.937571 175.289335 
L 320.937571 174.772713 
L 321.22027 174.772713 
L 321.22027 174.256091 
L 321.61618 174.256091 
L 321.61618 173.739469 
L 322.293274 173.739469 
L 322.293274 173.222847 
L 322.945246 173.222847 
L 322.954972 172.189603 
L 323.201597 172.189603 
L 323.201597 171.672981 
L 324.193295 171.672981 
L 324.201591 170.639737 
L 326.427415 170.639737 
L 326.430007 169.606493 
L 326.940098 169.606493 
L 326.940098 169.089871 
L 327.469141 169.089871 
L 327.469239 168.056627 
L 327.928574 168.056627 
L 327.94427 167.023383 
L 328.405681 167.023383 
L 328.430166 165.990139 
L 329.349339 165.990139 
L 329.349339 165.473517 
L 331.819507 165.473517 
L 331.819507 164.956895 
L 332.206783 164.956895 
L 332.206783 164.440273 
L 336.262733 164.440273 
L 336.262733 163.923651 
L 358.8 163.923651 
L 358.8 163.923651 
" style="fill:none;stroke:#ffa500;stroke-linecap:square;stroke-width:1.5;"/>
   </g>
   <g id="line2d_53">
    <defs>
     <path d="M 0 -6 
L -1.347084 -1.854102 
L -5.706339 -1.854102 
L -2.179628 0.708204 
L -3.526712 4.854102 
L -0 2.291796 
L 3.526712 4.854102 
L 2.179628 0.708204 
L 5.706339 -1.854102 
L 1.347084 -1.854102 
z
" id="m1d259a375e" style="stroke:#ffa500;stroke-linejoin:bevel;stroke-width:1.5;"/>
    </defs>
    <g>
     <use style="fill:none;stroke:#ffa500;stroke-linejoin:bevel;stroke-width:1.5;" x="120.890768" xlink:href="#m1d259a375e" y="267.764676"/>
     <use style="fill:none;stroke:#ffa500;stroke-linejoin:bevel;stroke-width:1.5;" x="199.458026" xlink:href="#m1d259a375e" y="253.29926"/>
     <use style="fill:none;stroke:#ffa500;stroke-linejoin:bevel;stroke-width:1.5;" x="263.43051" xlink:href="#m1d259a375e" y="239.350465"/>
     <use style="fill:none;stroke:#ffa500;stroke-linejoin:bevel;stroke-width:1.5;" x="310.632346" xlink:href="#m1d259a375e" y="186.65502"/>
     <use style="fill:none;stroke:#ffa500;stroke-linejoin:bevel;stroke-width:1.5;" x="336.262733" xlink:href="#m1d259a375e" y="163.923651"/>
     <use style="fill:none;stroke:#ffa500;stroke-linejoin:bevel;stroke-width:1.5;" x="358.8" xlink:href="#m1d259a375e" y="163.923651"/>
    </g>
   </g>
   <g id="line2d_54"/>
   <g id="line2d_55">
    <path clip-path="url(#pee0584fc9c)" d="M 263.409315 244.516685 
" style="fill:none;stroke:#ffa500;stroke-linecap:square;stroke-width:1.5;"/>
    <defs>
     <path d="M -12 12 
L 12 -12 
M -12 -12 
L 12 12 
" id="m15bc30f094" style="stroke:#ffa500;stroke-width:3;"/>
    </defs>
    <g clip-path="url(#pee0584fc9c)">
     <use style="fill:#ffa500;stroke:#ffa500;stroke-width:3;" x="263.409315" xlink:href="#m15bc30f094" y="244.516685"/>
    </g>
   </g>
   <g id="line2d_56">
    <defs>
     <path d="M 0 1.5 
C 0.397805 1.5 0.77937 1.341951 1.06066 1.06066 
C 1.341951 0.77937 1.5 0.397805 1.5 0 
C 1.5 -0.397805 1.341951 -0.77937 1.06066 -1.06066 
C 0.77937 -1.341951 0.397805 -1.5 0 -1.5 
C -0.397805 -1.5 -0.77937 -1.341951 -1.06066 -1.06066 
C -1.341951 -0.77937 -1.5 -0.397805 -1.5 0 
C -1.5 0.397805 -1.341951 0.77937 -1.06066 1.06066 
C -0.77937 1.341951 -0.397805 1.5 0 1.5 
z
" id="m64bb6641b8" style="stroke:#6495ed;"/>
    </defs>
    <g>
     <use style="fill:#6495ed;stroke:#6495ed;" x="339.31393" xlink:href="#m64bb6641b8" y="179.422312"/>
     <use style="fill:#6495ed;stroke:#6495ed;" x="339.31393" xlink:href="#m64bb6641b8" y="179.422312"/>
    </g>
   </g>
   <g id="line2d_57">
    <path d="M 58.414766 298.245375 
L 58.414766 272.414274 
L 70.8 272.414274 
L 70.8 269.314542 
L 78.044898 269.314542 
L 78.044898 268.281298 
L 83.185234 268.281298 
L 83.185234 266.731432 
L 95.570468 266.731432 
L 95.570468 266.21481 
L 99.557623 266.21481 
L 99.557623 263.6317 
L 116.630812 263.6317 
L 116.630812 263.115078 
L 136.713325 263.115078 
L 136.713325 262.598456 
L 143.958223 262.598456 
L 143.958223 262.081834 
L 169.671244 262.081834 
L 169.671244 261.565212 
L 169.986263 261.565212 
L 169.986263 260.015346 
L 223.059304 260.015346 
L 223.059304 258.982102 
L 225.316448 258.982102 
L 225.316448 257.948858 
L 235.036862 257.948858 
L 235.036862 256.915614 
L 245.981944 256.915614 
L 245.981944 256.398992 
L 263.376918 256.398992 
L 263.457988 246.066551 
L 265.162451 246.066551 
L 265.162451 245.549929 
L 269.112129 245.549929 
L 269.15399 244.516685 
L 275.775565 244.516685 
L 275.849807 237.800599 
L 276.694556 237.800599 
L 276.694556 237.283977 
L 276.819531 237.283977 
L 276.819531 236.767355 
L 277.54271 236.767355 
L 277.54271 236.250733 
L 278.86891 236.250733 
L 278.886208 235.217489 
L 283.024931 235.217489 
L 283.053208 232.117757 
L 283.728304 232.117757 
L 283.728304 231.601135 
L 285.131795 231.601135 
L 285.151971 229.534647 
L 288.162428 229.534647 
L 288.202557 224.368427 
L 288.640892 224.368427 
L 288.640892 223.851805 
L 289.069351 223.851805 
L 289.075323 222.818561 
L 292.145421 222.818561 
L 292.18029 217.652341 
L 292.875057 217.652341 
L 292.875057 217.135719 
L 293.458878 217.135719 
L 293.458878 216.619097 
L 295.408893 216.619097 
L 295.440393 215.585853 
L 296.015452 215.585853 
L 296.024688 214.552609 
L 296.50234 214.552609 
L 296.504237 213.519365 
L 298.160797 213.519365 
L 298.17069 211.969498 
L 298.684015 211.969498 
L 298.684015 211.452876 
L 300.550665 211.452876 
L 300.571504 208.353144 
L 301.377339 208.353144 
L 301.377339 207.836522 
L 302.652953 207.836522 
L 302.671687 206.803278 
L 304.539909 206.803278 
L 304.552154 205.253412 
L 304.905107 205.253412 
L 304.911398 203.703546 
L 306.249249 203.703546 
L 306.25297 202.670302 
L 306.57971 202.670302 
L 306.582301 201.637058 
L 306.849913 201.637058 
L 306.849913 201.120436 
L 307.799247 201.120436 
L 307.809404 198.537326 
L 308.354733 198.537326 
L 308.354733 198.020704 
L 309.229865 198.020704 
L 309.229865 197.504082 
L 309.748768 197.504082 
L 309.748768 196.98746 
L 310.689465 196.98746 
L 310.696866 195.954216 
L 310.820732 195.954216 
L 310.820732 195.437594 
L 311.787282 195.437594 
L 311.790062 193.887728 
L 311.912627 193.887728 
L 311.912627 193.371106 
L 312.942332 193.371106 
L 312.944193 192.337862 
L 314.02875 192.337862 
L 314.029998 191.304618 
L 314.243509 191.304618 
L 314.243509 190.787996 
L 315.042562 190.787996 
L 315.052539 189.754752 
L 316.019991 189.754752 
L 316.019991 189.23813 
L 316.209192 189.23813 
L 316.209192 188.721508 
L 316.363304 188.721508 
L 316.363304 188.204886 
L 316.9233 188.204886 
L 317.02282 187.171642 
L 317.109108 187.171642 
L 317.109108 186.65502 
L 318.122089 186.65502 
L 318.122089 186.138398 
L 321.870768 186.138398 
L 321.870768 185.621776 
L 322.944076 185.621776 
L 322.944076 185.105154 
L 325.334126 185.105154 
L 325.334126 184.588532 
L 325.884382 184.588532 
L 325.884382 184.07191 
L 326.413979 184.07191 
L 326.413979 183.555288 
L 327.931767 183.555288 
L 327.931767 183.038666 
L 328.101274 183.038666 
L 328.101274 182.522044 
L 328.859887 182.522044 
L 328.951045 181.4888 
L 330.691956 181.4888 
L 330.691956 180.972178 
L 331.01594 180.972178 
L 331.01594 180.455556 
L 335.03884 180.455556 
L 335.03884 179.938934 
L 339.31393 179.938934 
L 339.31393 179.422312 
L 358.8 179.422312 
L 358.8 179.422312 
" style="fill:none;stroke:#6495ed;stroke-linecap:square;stroke-width:1.5;"/>
   </g>
   <g id="line2d_58">
    <defs>
     <path d="M -0 6 
L 6 -6 
L -6 -6 
z
" id="m93d180e058" style="stroke:#6495ed;stroke-linejoin:miter;stroke-width:1.5;"/>
    </defs>
    <g>
     <use style="fill:none;stroke:#6495ed;stroke-linejoin:miter;stroke-width:1.5;" x="99.557623" xlink:href="#m93d180e058" y="266.21481"/>
     <use style="fill:none;stroke:#6495ed;stroke-linejoin:miter;stroke-width:1.5;" x="169.986263" xlink:href="#m93d180e058" y="260.015346"/>
     <use style="fill:none;stroke:#6495ed;stroke-linejoin:miter;stroke-width:1.5;" x="288.1862" xlink:href="#m93d180e058" y="225.401671"/>
     <use style="fill:none;stroke:#6495ed;stroke-linejoin:miter;stroke-width:1.5;" x="331.01594" xlink:href="#m93d180e058" y="180.972178"/>
     <use style="fill:none;stroke:#6495ed;stroke-linejoin:miter;stroke-width:1.5;" x="339.31393" xlink:href="#m93d180e058" y="179.422312"/>
     <use style="fill:none;stroke:#6495ed;stroke-linejoin:miter;stroke-width:1.5;" x="358.8" xlink:href="#m93d180e058" y="179.422312"/>
    </g>
   </g>
   <g id="line2d_59"/>
   <g id="line2d_60">
    <path clip-path="url(#pee0584fc9c)" d="M 263.392007 254.849126 
" style="fill:none;stroke:#6495ed;stroke-linecap:square;stroke-width:1.5;"/>
    <defs>
     <path d="M -12 12 
L 12 -12 
M -12 -12 
L 12 12 
" id="m80c2eb7cda" style="stroke:#6495ed;stroke-width:3;"/>
    </defs>
    <g clip-path="url(#pee0584fc9c)">
     <use style="fill:#6495ed;stroke:#6495ed;stroke-width:3;" x="263.392007" xlink:href="#m80c2eb7cda" y="254.849126"/>
    </g>
   </g>
   <g id="line2d_61">
    <defs>
     <path d="M 0 1.5 
C 0.397805 1.5 0.77937 1.341951 1.06066 1.06066 
C 1.341951 0.77937 1.5 0.397805 1.5 0 
C 1.5 -0.397805 1.341951 -0.77937 1.06066 -1.06066 
C 0.77937 -1.341951 0.397805 -1.5 0 -1.5 
C -0.397805 -1.5 -0.77937 -1.341951 -1.06066 -1.06066 
C -1.341951 -0.77937 -1.5 -0.397805 -1.5 0 
C -1.5 0.397805 -1.341951 0.77937 -1.06066 1.06066 
C -0.77937 1.341951 -0.397805 1.5 0 1.5 
z
" id="m259c2da127" style="stroke:#ff0000;"/>
    </defs>
    <g>
     <use style="fill:#ff0000;stroke:#ff0000;" x="332.579853" xlink:href="#m259c2da127" y="174.256091"/>
     <use style="fill:#ff0000;stroke:#ff0000;" x="332.579853" xlink:href="#m259c2da127" y="174.256091"/>
    </g>
   </g>
   <g id="line2d_62">
    <path d="M 58.414766 298.245375 
L 58.414766 288.946179 
L 70.8 288.946179 
L 70.8 286.363069 
L 78.044898 286.363069 
L 78.044898 285.329825 
L 83.185234 285.329825 
L 83.185234 284.813203 
L 93.184514 284.813203 
L 93.184514 284.296581 
L 95.570468 284.296581 
L 95.570468 283.779959 
L 97.675029 283.779959 
L 97.675029 282.746715 
L 138.416339 282.746715 
L 138.416339 281.713471 
L 151.789013 281.713471 
L 151.789013 280.680226 
L 175.444684 280.680226 
L 175.444684 280.163604 
L 189.674127 280.163604 
L 189.674127 277.580494 
L 212.954723 277.580494 
L 212.954723 276.54725 
L 241.716731 276.54725 
L 241.716731 275.514006 
L 252.48649 275.514006 
L 252.48649 274.480762 
L 263.381949 274.480762 
L 263.437569 268.281298 
L 263.680152 268.281298 
L 263.68693 266.731432 
L 268.034685 266.731432 
L 268.034685 266.21481 
L 268.567316 266.21481 
L 268.58835 265.181566 
L 275.769884 265.181566 
L 275.816487 258.46548 
L 275.933619 258.46548 
L 275.941462 256.398992 
L 276.306437 256.398992 
L 276.306437 255.88237 
L 277.216374 255.88237 
L 277.233203 254.849126 
L 278.261184 254.849126 
L 278.268232 253.815882 
L 283.024559 253.815882 
L 283.134748 246.066551 
L 283.139866 246.066551 
L 283.139866 245.549929 
L 284.001316 245.549929 
L 284.001316 245.033307 
L 284.717324 245.033307 
L 284.730246 242.450197 
L 286.006961 242.450197 
L 286.006961 241.933575 
L 288.169922 241.933575 
L 288.243013 235.734111 
L 288.90997 235.734111 
L 288.90997 235.217489 
L 289.447575 235.217489 
L 289.454289 234.184245 
L 289.598516 234.184245 
L 289.598516 233.667623 
L 292.156108 233.667623 
L 292.227258 230.567891 
L 292.753455 230.567891 
L 292.753455 230.051269 
L 293.323213 230.051269 
L 293.329872 229.018025 
L 295.412244 229.018025 
L 295.46955 226.434915 
L 295.595993 226.434915 
L 295.595993 225.918293 
L 295.910066 225.918293 
L 295.910971 224.885049 
L 296.28638 224.885049 
L 296.386491 223.851805 
L 298.174572 223.851805 
L 298.213631 220.752073 
L 298.588483 220.752073 
L 298.588483 220.235451 
L 298.918979 220.235451 
L 298.918979 219.718829 
L 300.556947 219.718829 
L 300.599585 216.619097 
L 300.92696 216.619097 
L 300.92696 216.102475 
L 301.299668 216.102475 
L 301.299668 215.585853 
L 301.728492 215.585853 
L 301.730845 214.552609 
L 302.66654 214.552609 
L 302.775074 210.936254 
L 304.547503 210.936254 
L 304.577473 208.869766 
L 305.067946 208.869766 
L 305.070295 207.836522 
L 306.244715 207.836522 
L 306.273441 205.770034 
L 306.728684 205.770034 
L 306.73229 204.220168 
L 307.106337 204.220168 
L 307.106337 203.703546 
L 308.052375 203.703546 
L 308.052375 203.186924 
L 308.243205 203.186924 
L 308.243205 202.670302 
L 308.59168 202.670302 
L 308.59168 202.15368 
L 309.254532 202.15368 
L 309.260007 200.603814 
L 309.461693 200.603814 
L 309.461693 200.087192 
L 310.561241 200.087192 
L 310.561241 199.57057 
L 310.77605 199.57057 
L 310.77605 199.053948 
L 312.427301 199.053948 
L 312.427301 198.537326 
L 312.941169 198.537326 
L 312.963199 196.470838 
L 313.128825 196.470838 
L 313.129089 195.437594 
L 314.03978 195.437594 
L 314.03978 194.920972 
L 314.33606 194.920972 
L 314.33606 194.40435 
L 315.33904 194.40435 
L 315.33904 193.887728 
L 316.028547 193.887728 
L 316.028547 193.371106 
L 316.932067 193.371106 
L 316.951028 192.337862 
L 317.193423 192.337862 
L 317.224396 190.787996 
L 317.806139 190.787996 
L 317.814731 189.754752 
L 317.942783 189.754752 
L 317.942783 189.23813 
L 318.63362 189.23813 
L 318.646778 188.204886 
L 318.768738 188.204886 
L 318.768738 187.688264 
L 319.441838 187.688264 
L 319.441838 187.171642 
L 320.198389 187.171642 
L 320.198389 186.65502 
L 321.627544 186.65502 
L 321.627544 186.138398 
L 321.824872 186.138398 
L 321.850142 185.105154 
L 323.133313 185.105154 
L 323.133313 184.588532 
L 323.577548 184.588532 
L 323.582121 183.555288 
L 323.753038 183.555288 
L 323.753038 183.038666 
L 323.903634 183.038666 
L 323.903634 182.522044 
L 324.186037 182.522044 
L 324.274089 181.4888 
L 324.354869 181.4888 
L 324.354869 180.972178 
L 324.49965 180.972178 
L 324.49965 180.455556 
L 325.967807 180.455556 
L 325.968934 179.422312 
L 326.421032 179.422312 
L 326.421032 178.90569 
L 326.586532 178.90569 
L 326.586532 178.389067 
L 328.535677 178.389067 
L 328.535677 177.872445 
L 328.869921 177.872445 
L 328.870665 176.839201 
L 329.324985 176.839201 
L 329.324985 176.322579 
L 330.259133 176.322579 
L 330.259133 175.805957 
L 331.138422 175.805957 
L 331.138422 175.289335 
L 331.427565 175.289335 
L 331.427565 174.772713 
L 332.579853 174.772713 
L 332.579853 174.256091 
L 358.8 174.256091 
L 358.8 174.256091 
" style="fill:none;stroke:#ff0000;stroke-linecap:square;stroke-width:1.5;"/>
   </g>
   <g id="line2d_63">
    <defs>
     <path d="M 0 -6 
L -5.196152 -3 
L -5.196152 3 
L -0 6 
L 5.196152 3 
L 5.196152 -3 
z
" id="me546762c71" style="stroke:#ff0000;stroke-linejoin:miter;stroke-width:1.5;"/>
    </defs>
    <g>
     <use style="fill:none;stroke:#ff0000;stroke-linejoin:miter;stroke-width:1.5;" x="97.675029" xlink:href="#me546762c71" y="283.779959"/>
     <use style="fill:none;stroke:#ff0000;stroke-linejoin:miter;stroke-width:1.5;" x="189.674127" xlink:href="#me546762c71" y="280.163604"/>
     <use style="fill:none;stroke:#ff0000;stroke-linejoin:miter;stroke-width:1.5;" x="278.268232" xlink:href="#me546762c71" y="253.815882"/>
     <use style="fill:none;stroke:#ff0000;stroke-linejoin:miter;stroke-width:1.5;" x="314.03978" xlink:href="#me546762c71" y="195.437594"/>
     <use style="fill:none;stroke:#ff0000;stroke-linejoin:miter;stroke-width:1.5;" x="332.579853" xlink:href="#me546762c71" y="174.256091"/>
     <use style="fill:none;stroke:#ff0000;stroke-linejoin:miter;stroke-width:1.5;" x="358.8" xlink:href="#me546762c71" y="174.256091"/>
    </g>
   </g>
   <g id="line2d_64"/>
   <g id="line2d_65">
    <path clip-path="url(#pee0584fc9c)" d="M 263.402989 272.930896 
" style="fill:none;stroke:#ff0000;stroke-linecap:square;stroke-width:1.5;"/>
    <defs>
     <path d="M -12 12 
L 12 -12 
M -12 -12 
L 12 12 
" id="m25c3973bbc" style="stroke:#ff0000;stroke-width:3;"/>
    </defs>
    <g clip-path="url(#pee0584fc9c)">
     <use style="fill:#ff0000;stroke:#ff0000;stroke-width:3;" x="263.402989" xlink:href="#m25c3973bbc" y="272.930896"/>
    </g>
   </g>
   <g id="line2d_66">
    <path d="M 358.8 200.087192 
L 390.48 292.97583 
" style="fill:none;stroke:#000080;stroke-linecap:square;stroke-width:1.5;"/>
    <g>
     <use style="fill:none;stroke:#000080;stroke-width:1.5;" x="358.8" xlink:href="#m216cb3faab" y="200.087192"/>
     <use style="fill:none;stroke:#000080;stroke-width:1.5;" x="390.48" xlink:href="#m216cb3faab" y="292.97583"/>
    </g>
   </g>
   <g id="line2d_67">
    <path d="M 358.8 179.422312 
L 390.48 229.741296 
" style="fill:none;stroke:#6495ed;stroke-linecap:square;stroke-width:1.5;"/>
    <g>
     <use style="fill:none;stroke:#6495ed;stroke-linejoin:miter;stroke-width:1.5;" x="358.8" xlink:href="#m93d180e058" y="179.422312"/>
     <use style="fill:none;stroke:#6495ed;stroke-linejoin:miter;stroke-width:1.5;" x="390.48" xlink:href="#m93d180e058" y="229.741296"/>
    </g>
   </g>
   <g id="line2d_68">
    <path d="M 358.8 174.256091 
L 390.48 166.506761 
" style="fill:none;stroke:#ff0000;stroke-linecap:square;stroke-width:1.5;"/>
    <g>
     <use style="fill:none;stroke:#ff0000;stroke-linejoin:miter;stroke-width:1.5;" x="358.8" xlink:href="#me546762c71" y="174.256091"/>
     <use style="fill:none;stroke:#ff0000;stroke-linejoin:miter;stroke-width:1.5;" x="390.48" xlink:href="#me546762c71" y="166.506761"/>
    </g>
   </g>
   <g id="line2d_69">
    <path d="M 358.8 163.923651 
L 390.48 103.272226 
" style="fill:none;stroke:#ffa500;stroke-linecap:square;stroke-width:1.5;"/>
    <g>
     <use style="fill:none;stroke:#ffa500;stroke-linejoin:bevel;stroke-width:1.5;" x="358.8" xlink:href="#m1d259a375e" y="163.923651"/>
     <use style="fill:none;stroke:#ffa500;stroke-linejoin:bevel;stroke-width:1.5;" x="390.48" xlink:href="#m1d259a375e" y="103.272226"/>
    </g>
   </g>
   <g id="line2d_70">
    <path d="M 358.8 60.599248 
L 390.48 40.037692 
" style="fill:none;stroke:#ff00ff;stroke-linecap:square;stroke-width:1.5;"/>
    <g>
     <use style="fill:none;stroke:#ff00ff;stroke-linejoin:miter;stroke-width:1.5;" x="358.8" xlink:href="#m155a153ca5" y="60.599248"/>
     <use style="fill:none;stroke:#ff00ff;stroke-linejoin:miter;stroke-width:1.5;" x="390.48" xlink:href="#m155a153ca5" y="40.037692"/>
    </g>
   </g>
   <g id="line2d_71">
    <path d="M 358.8 298.245375 
L 358.8 34.768147 
" style="fill:none;stroke:#000000;stroke-linecap:square;stroke-width:1.5;"/>
   </g>
   <g id="patch_3">
    <path d="M 70.8 298.245375 
L 70.8 32.133375 
" style="fill:none;stroke:#000000;stroke-linecap:square;stroke-linejoin:miter;stroke-width:0.8;"/>
   </g>
   <g id="patch_4">
    <path d="M 427.92 298.245375 
L 427.92 32.133375 
" style="fill:none;stroke:#000000;stroke-linecap:square;stroke-linejoin:miter;stroke-width:0.8;"/>
   </g>
   <g id="patch_5">
    <path d="M 70.8 298.245375 
L 427.92 298.245375 
" style="fill:none;stroke:#000000;stroke-linecap:square;stroke-linejoin:miter;stroke-width:0.8;"/>
   </g>
   <g id="patch_6">
    <path d="M 70.8 32.133375 
L 427.92 32.133375 
" style="fill:none;stroke:#000000;stroke-linecap:square;stroke-linejoin:miter;stroke-width:0.8;"/>
   </g>
   <g id="text_14">
    <!-- f18 -->
    <g transform="translate(396.24 297.114893)scale(0.15 -0.15)">
     <use xlink:href="#DejaVuSans-66"/>
     <use x="35.205078" xlink:href="#DejaVuSans-31"/>
     <use x="98.828125" xlink:href="#DejaVuSans-38"/>
    </g>
   </g>
   <g id="text_15">
    <!-- f17 -->
    <defs>
     <path d="M 8.203125 72.90625 
L 55.078125 72.90625 
L 55.078125 68.703125 
L 28.609375 0 
L 18.3125 0 
L 43.21875 64.59375 
L 8.203125 64.59375 
z
" id="DejaVuSans-37"/>
    </defs>
    <g transform="translate(396.24 233.880358)scale(0.15 -0.15)">
     <use xlink:href="#DejaVuSans-66"/>
     <use x="35.205078" xlink:href="#DejaVuSans-31"/>
     <use x="98.828125" xlink:href="#DejaVuSans-37"/>
    </g>
   </g>
   <g id="text_16">
    <!-- f15 -->
    <defs>
     <path d="M 10.796875 72.90625 
L 49.515625 72.90625 
L 49.515625 64.59375 
L 19.828125 64.59375 
L 19.828125 46.734375 
Q 21.96875 47.46875 24.109375 47.828125 
Q 26.265625 48.1875 28.421875 48.1875 
Q 40.625 48.1875 47.75 41.5 
Q 54.890625 34.8125 54.890625 23.390625 
Q 54.890625 11.625 47.5625 5.09375 
Q 40.234375 -1.421875 26.90625 -1.421875 
Q 22.3125 -1.421875 17.546875 -0.640625 
Q 12.796875 0.140625 7.71875 1.703125 
L 7.71875 11.625 
Q 12.109375 9.234375 16.796875 8.0625 
Q 21.484375 6.890625 26.703125 6.890625 
Q 35.15625 6.890625 40.078125 11.328125 
Q 45.015625 15.765625 45.015625 23.390625 
Q 45.015625 31 40.078125 35.4375 
Q 35.15625 39.890625 26.703125 39.890625 
Q 22.75 39.890625 18.8125 39.015625 
Q 14.890625 38.140625 10.796875 36.28125 
z
" id="DejaVuSans-35"/>
    </defs>
    <g transform="translate(396.24 170.645824)scale(0.15 -0.15)">
     <use xlink:href="#DejaVuSans-66"/>
     <use x="35.205078" xlink:href="#DejaVuSans-31"/>
     <use x="98.828125" xlink:href="#DejaVuSans-35"/>
    </g>
   </g>
   <g id="text_17">
    <!-- f16 -->
    <g transform="translate(396.24 107.411289)scale(0.15 -0.15)">
     <use xlink:href="#DejaVuSans-66"/>
     <use x="35.205078" xlink:href="#DejaVuSans-31"/>
     <use x="98.828125" xlink:href="#DejaVuSans-36"/>
    </g>
   </g>
   <g id="text_18">
    <!-- f19 -->
    <defs>
     <path d="M 10.984375 1.515625 
L 10.984375 10.5 
Q 14.703125 8.734375 18.5 7.8125 
Q 22.3125 6.890625 25.984375 6.890625 
Q 35.75 6.890625 40.890625 13.453125 
Q 46.046875 20.015625 46.78125 33.40625 
Q 43.953125 29.203125 39.59375 26.953125 
Q 35.25 24.703125 29.984375 24.703125 
Q 19.046875 24.703125 12.671875 31.3125 
Q 6.296875 37.9375 6.296875 49.421875 
Q 6.296875 60.640625 12.9375 67.421875 
Q 19.578125 74.21875 30.609375 74.21875 
Q 43.265625 74.21875 49.921875 64.515625 
Q 56.59375 54.828125 56.59375 36.375 
Q 56.59375 19.140625 48.40625 8.859375 
Q 40.234375 -1.421875 26.421875 -1.421875 
Q 22.703125 -1.421875 18.890625 -0.6875 
Q 15.09375 0.046875 10.984375 1.515625 
M 30.609375 32.421875 
Q 37.25 32.421875 41.125 36.953125 
Q 45.015625 41.5 45.015625 49.421875 
Q 45.015625 57.28125 41.125 61.84375 
Q 37.25 66.40625 30.609375 66.40625 
Q 23.96875 66.40625 20.09375 61.84375 
Q 16.21875 57.28125 16.21875 49.421875 
Q 16.21875 41.5 20.09375 36.953125 
Q 23.96875 32.421875 30.609375 32.421875 
" id="DejaVuSans-39"/>
    </defs>
    <g transform="translate(396.24 44.176754)scale(0.15 -0.15)">
     <use xlink:href="#DejaVuSans-66"/>
     <use x="35.205078" xlink:href="#DejaVuSans-31"/>
     <use x="98.828125" xlink:href="#DejaVuSans-39"/>
    </g>
   </g>
   <g id="text_19">
    <!-- bbob -->
    <defs>
     <path d="M 48.6875 27.296875 
Q 48.6875 37.203125 44.609375 42.84375 
Q 40.53125 48.484375 33.40625 48.484375 
Q 26.265625 48.484375 22.1875 42.84375 
Q 18.109375 37.203125 18.109375 27.296875 
Q 18.109375 17.390625 22.1875 11.75 
Q 26.265625 6.109375 33.40625 6.109375 
Q 40.53125 6.109375 44.609375 11.75 
Q 48.6875 17.390625 48.6875 27.296875 
M 18.109375 46.390625 
Q 20.953125 51.265625 25.265625 53.625 
Q 29.59375 56 35.59375 56 
Q 45.5625 56 51.78125 48.09375 
Q 58.015625 40.1875 58.015625 27.296875 
Q 58.015625 14.40625 51.78125 6.484375 
Q 45.5625 -1.421875 35.59375 -1.421875 
Q 29.59375 -1.421875 25.265625 0.953125 
Q 20.953125 3.328125 18.109375 8.203125 
L 18.109375 0 
L 9.078125 0 
L 9.078125 75.984375 
L 18.109375 75.984375 
z
" id="DejaVuSans-62"/>
    </defs>
    <g transform="translate(74.3712 50.114612)scale(0.1666 -0.1666)">
     <use xlink:href="#DejaVuSans-62"/>
     <use x="63.476562" xlink:href="#DejaVuSans-62"/>
     <use x="126.953125" xlink:href="#DejaVuSans-6f"/>
     <use x="188.134766" xlink:href="#DejaVuSans-62"/>
    </g>
    <!-- Multi-modal functions, 2-D -->
    <defs>
     <path d="M 9.8125 72.90625 
L 24.515625 72.90625 
L 43.109375 23.296875 
L 61.8125 72.90625 
L 76.515625 72.90625 
L 76.515625 0 
L 66.890625 0 
L 66.890625 64.015625 
L 48.09375 14.015625 
L 38.1875 14.015625 
L 19.390625 64.015625 
L 19.390625 0 
L 9.8125 0 
z
" id="DejaVuSans-4d"/>
     <path d="M 11.71875 12.40625 
L 22.015625 12.40625 
L 22.015625 4 
L 14.015625 -11.625 
L 7.71875 -11.625 
L 11.71875 4 
z
" id="DejaVuSans-2c"/>
     <path d="M 19.671875 64.796875 
L 19.671875 8.109375 
L 31.59375 8.109375 
Q 46.6875 8.109375 53.6875 14.9375 
Q 60.6875 21.78125 60.6875 36.53125 
Q 60.6875 51.171875 53.6875 57.984375 
Q 46.6875 64.796875 31.59375 64.796875 
z
M 9.8125 72.90625 
L 30.078125 72.90625 
Q 51.265625 72.90625 61.171875 64.09375 
Q 71.09375 55.28125 71.09375 36.53125 
Q 71.09375 17.671875 61.125 8.828125 
Q 51.171875 0 30.078125 0 
L 9.8125 0 
z
" id="DejaVuSans-44"/>
    </defs>
    <g transform="translate(74.3712 68.770168)scale(0.1666 -0.1666)">
     <use xlink:href="#DejaVuSans-4d"/>
     <use x="86.279297" xlink:href="#DejaVuSans-75"/>
     <use x="149.658203" xlink:href="#DejaVuSans-6c"/>
     <use x="177.441406" xlink:href="#DejaVuSans-74"/>
     <use x="216.650391" xlink:href="#DejaVuSans-69"/>
     <use x="244.433594" xlink:href="#DejaVuSans-2d"/>
     <use x="280.517578" xlink:href="#DejaVuSans-6d"/>
     <use x="377.929688" xlink:href="#DejaVuSans-6f"/>
     <use x="439.111328" xlink:href="#DejaVuSans-64"/>
     <use x="502.587891" xlink:href="#DejaVuSans-61"/>
     <use x="563.867188" xlink:href="#DejaVuSans-6c"/>
     <use x="591.650391" xlink:href="#DejaVuSans-20"/>
     <use x="623.4375" xlink:href="#DejaVuSans-66"/>
     <use x="658.642578" xlink:href="#DejaVuSans-75"/>
     <use x="722.021484" xlink:href="#DejaVuSans-6e"/>
     <use x="785.400391" xlink:href="#DejaVuSans-63"/>
     <use x="840.380859" xlink:href="#DejaVuSans-74"/>
     <use x="879.589844" xlink:href="#DejaVuSans-69"/>
     <use x="907.373047" xlink:href="#DejaVuSans-6f"/>
     <use x="968.554688" xlink:href="#DejaVuSans-6e"/>
     <use x="1031.933594" xlink:href="#DejaVuSans-73"/>
     <use x="1084.033203" xlink:href="#DejaVuSans-2c"/>
     <use x="1115.820312" xlink:href="#DejaVuSans-20"/>
     <use x="1147.607422" xlink:href="#DejaVuSans-32"/>
     <use x="1211.230469" xlink:href="#DejaVuSans-2d"/>
     <use x="1247.314453" xlink:href="#DejaVuSans-44"/>
    </g>
    <!-- 51 targets in 100..1e-08 -->
    <g transform="translate(74.3712 87.425723)scale(0.1666 -0.1666)">
     <use xlink:href="#DejaVuSans-35"/>
     <use x="63.623047" xlink:href="#DejaVuSans-31"/>
     <use x="127.246094" xlink:href="#DejaVuSans-20"/>
     <use x="159.033203" xlink:href="#DejaVuSans-74"/>
     <use x="198.242188" xlink:href="#DejaVuSans-61"/>
     <use x="259.521484" xlink:href="#DejaVuSans-72"/>
     <use x="300.619141" xlink:href="#DejaVuSans-67"/>
     <use x="364.095703" xlink:href="#DejaVuSans-65"/>
     <use x="425.619141" xlink:href="#DejaVuSans-74"/>
     <use x="464.828125" xlink:href="#DejaVuSans-73"/>
     <use x="516.927734" xlink:href="#DejaVuSans-20"/>
     <use x="548.714844" xlink:href="#DejaVuSans-69"/>
     <use x="576.498047" xlink:href="#DejaVuSans-6e"/>
     <use x="639.876953" xlink:href="#DejaVuSans-20"/>
     <use x="671.664062" xlink:href="#DejaVuSans-31"/>
     <use x="735.287109" xlink:href="#DejaVuSans-30"/>
     <use x="798.910156" xlink:href="#DejaVuSans-30"/>
     <use x="862.533203" xlink:href="#DejaVuSans-2e"/>
     <use x="894.320312" xlink:href="#DejaVuSans-2e"/>
     <use x="926.107422" xlink:href="#DejaVuSans-31"/>
     <use x="989.730469" xlink:href="#DejaVuSans-65"/>
     <use x="1051.253906" xlink:href="#DejaVuSans-2d"/>
     <use x="1087.337891" xlink:href="#DejaVuSans-30"/>
     <use x="1150.960938" xlink:href="#DejaVuSans-38"/>
    </g>
    <!-- 15 instances -->
    <g transform="translate(74.3712 106.081279)scale(0.1666 -0.1666)">
     <use xlink:href="#DejaVuSans-31"/>
     <use x="63.623047" xlink:href="#DejaVuSans-35"/>
     <use x="127.246094" xlink:href="#DejaVuSans-20"/>
     <use x="159.033203" xlink:href="#DejaVuSans-69"/>
     <use x="186.816406" xlink:href="#DejaVuSans-6e"/>
     <use x="250.195312" xlink:href="#DejaVuSans-73"/>
     <use x="302.294922" xlink:href="#DejaVuSans-74"/>
     <use x="341.503906" xlink:href="#DejaVuSans-61"/>
     <use x="402.783203" xlink:href="#DejaVuSans-6e"/>
     <use x="466.162109" xlink:href="#DejaVuSans-63"/>
     <use x="521.142578" xlink:href="#DejaVuSans-65"/>
     <use x="582.666016" xlink:href="#DejaVuSans-73"/>
    </g>
   </g>
   <g id="text_20">
    <!-- v2.1 -->
    <g style="fill:#808080;" transform="translate(238.449063 293.504568)scale(0.1 -0.1)">
     <use xlink:href="#DejaVuSans-76"/>
     <use x="59.179688" xlink:href="#DejaVuSans-32"/>
     <use x="122.802734" xlink:href="#DejaVuSans-2e"/>
     <use x="154.589844" xlink:href="#DejaVuSans-31"/>
    </g>
   </g>
  </g>
 </g>
 <defs>
  <clipPath id="pee0584fc9c">
   <rect height="266.112" width="357.12" x="70.8" y="32.133375"/>
  </clipPath>
 </defs>
</svg>
