<?xml version="1.0" encoding="utf-8" standalone="no"?>
<!DOCTYPE svg PUBLIC "-//W3C//DTD SVG 1.1//EN"
  "http://www.w3.org/Graphics/SVG/1.1/DTD/svg11.dtd">
<!-- Created with matplotlib (http://matplotlib.org/) -->
<svg height="353pt" version="1.1" viewBox="0 0 441 353" width="441pt" xmlns="http://www.w3.org/2000/svg" xmlns:xlink="http://www.w3.org/1999/xlink">
 <defs>
  <style type="text/css">
*{stroke-linecap:butt;stroke-linejoin:round;}
  </style>
 </defs>
 <g id="figure_1">
  <g id="patch_1">
   <path d="M -0 353.22225 
L 441.802544 353.22225 
L 441.802544 0 
L -0 0 
z
" style="fill:#ffffff;"/>
  </g>
  <g id="axes_1">
   <g id="patch_2">
    <path d="M 73.113325 298.245375 
L 430.233325 298.245375 
L 430.233325 32.133375 
L 73.113325 32.133375 
z
" style="fill:#ffffff;"/>
   </g>
   <g id="matplotlib.axis_1">
    <g id="xtick_1">
     <g id="line2d_1">
      <path clip-path="url(#p1648dbbc6e)" d="M 73.113325 298.245375 
L 73.113325 32.133375 
" style="fill:none;stroke:#b0b0b0;stroke-linecap:square;stroke-width:0.8;"/>
     </g>
     <g id="line2d_2">
      <defs>
       <path d="M 0 0 
L 0 3.5 
" id="m12ee2df0c4" style="stroke:#000000;stroke-width:0.8;"/>
      </defs>
      <g>
       <use style="stroke:#000000;stroke-width:0.8;" x="73.113325" xlink:href="#m12ee2df0c4" y="298.245375"/>
      </g>
     </g>
     <g id="text_1">
      <!-- 0 -->
      <defs>
       <path d="M 31.78125 66.40625 
Q 24.171875 66.40625 20.328125 58.90625 
Q 16.5 51.421875 16.5 36.375 
Q 16.5 21.390625 20.328125 13.890625 
Q 24.171875 6.390625 31.78125 6.390625 
Q 39.453125 6.390625 43.28125 13.890625 
Q 47.125 21.390625 47.125 36.375 
Q 47.125 51.421875 43.28125 58.90625 
Q 39.453125 66.40625 31.78125 66.40625 
M 31.78125 74.21875 
Q 44.046875 74.21875 50.515625 64.515625 
Q 56.984375 54.828125 56.984375 36.375 
Q 56.984375 17.96875 50.515625 8.265625 
Q 44.046875 -1.421875 31.78125 -1.421875 
Q 19.53125 -1.421875 13.0625 8.265625 
Q 6.59375 17.96875 6.59375 36.375 
Q 6.59375 54.828125 13.0625 64.515625 
Q 19.53125 74.21875 31.78125 74.21875 
" id="DejaVuSans-30"/>
      </defs>
      <g transform="translate(66.750825 320.44225)scale(0.2 -0.2)">
       <use xlink:href="#DejaVuSans-30"/>
      </g>
     </g>
    </g>
    <g id="xtick_2">
     <g id="line2d_3">
      <path clip-path="url(#p1648dbbc6e)" d="M 155.39904 298.245375 
L 155.39904 32.133375 
" style="fill:none;stroke:#b0b0b0;stroke-linecap:square;stroke-width:0.8;"/>
     </g>
     <g id="line2d_4">
      <g>
       <use style="stroke:#000000;stroke-width:0.8;" x="155.39904" xlink:href="#m12ee2df0c4" y="298.245375"/>
      </g>
     </g>
     <g id="text_2">
      <!-- 2 -->
      <defs>
       <path d="M 19.1875 8.296875 
L 53.609375 8.296875 
L 53.609375 0 
L 7.328125 0 
L 7.328125 8.296875 
Q 12.9375 14.109375 22.625 23.890625 
Q 32.328125 33.6875 34.8125 36.53125 
Q 39.546875 41.84375 41.421875 45.53125 
Q 43.3125 49.21875 43.3125 52.78125 
Q 43.3125 58.59375 39.234375 62.25 
Q 35.15625 65.921875 28.609375 65.921875 
Q 23.96875 65.921875 18.8125 64.3125 
Q 13.671875 62.703125 7.8125 59.421875 
L 7.8125 69.390625 
Q 13.765625 71.78125 18.9375 73 
Q 24.125 74.21875 28.421875 74.21875 
Q 39.75 74.21875 46.484375 68.546875 
Q 53.21875 62.890625 53.21875 53.421875 
Q 53.21875 48.921875 51.53125 44.890625 
Q 49.859375 40.875 45.40625 35.40625 
Q 44.1875 33.984375 37.640625 27.21875 
Q 31.109375 20.453125 19.1875 8.296875 
" id="DejaVuSans-32"/>
      </defs>
      <g transform="translate(149.03654 320.44225)scale(0.2 -0.2)">
       <use xlink:href="#DejaVuSans-32"/>
      </g>
     </g>
    </g>
    <g id="xtick_3">
     <g id="line2d_5">
      <path clip-path="url(#p1648dbbc6e)" d="M 237.684754 298.245375 
L 237.684754 32.133375 
" style="fill:none;stroke:#b0b0b0;stroke-linecap:square;stroke-width:0.8;"/>
     </g>
     <g id="line2d_6">
      <g>
       <use style="stroke:#000000;stroke-width:0.8;" x="237.684754" xlink:href="#m12ee2df0c4" y="298.245375"/>
      </g>
     </g>
     <g id="text_3">
      <!-- 4 -->
      <defs>
       <path d="M 37.796875 64.3125 
L 12.890625 25.390625 
L 37.796875 25.390625 
z
M 35.203125 72.90625 
L 47.609375 72.90625 
L 47.609375 25.390625 
L 58.015625 25.390625 
L 58.015625 17.1875 
L 47.609375 17.1875 
L 47.609375 0 
L 37.796875 0 
L 37.796875 17.1875 
L 4.890625 17.1875 
L 4.890625 26.703125 
z
" id="DejaVuSans-34"/>
      </defs>
      <g transform="translate(231.322254 320.44225)scale(0.2 -0.2)">
       <use xlink:href="#DejaVuSans-34"/>
      </g>
     </g>
    </g>
    <g id="xtick_4">
     <g id="line2d_7">
      <path clip-path="url(#p1648dbbc6e)" d="M 319.970468 298.245375 
L 319.970468 32.133375 
" style="fill:none;stroke:#b0b0b0;stroke-linecap:square;stroke-width:0.8;"/>
     </g>
     <g id="line2d_8">
      <g>
       <use style="stroke:#000000;stroke-width:0.8;" x="319.970468" xlink:href="#m12ee2df0c4" y="298.245375"/>
      </g>
     </g>
     <g id="text_4">
      <!-- 6 -->
      <defs>
       <path d="M 33.015625 40.375 
Q 26.375 40.375 22.484375 35.828125 
Q 18.609375 31.296875 18.609375 23.390625 
Q 18.609375 15.53125 22.484375 10.953125 
Q 26.375 6.390625 33.015625 6.390625 
Q 39.65625 6.390625 43.53125 10.953125 
Q 47.40625 15.53125 47.40625 23.390625 
Q 47.40625 31.296875 43.53125 35.828125 
Q 39.65625 40.375 33.015625 40.375 
M 52.59375 71.296875 
L 52.59375 62.3125 
Q 48.875 64.0625 45.09375 64.984375 
Q 41.3125 65.921875 37.59375 65.921875 
Q 27.828125 65.921875 22.671875 59.328125 
Q 17.53125 52.734375 16.796875 39.40625 
Q 19.671875 43.65625 24.015625 45.921875 
Q 28.375 48.1875 33.59375 48.1875 
Q 44.578125 48.1875 50.953125 41.515625 
Q 57.328125 34.859375 57.328125 23.390625 
Q 57.328125 12.15625 50.6875 5.359375 
Q 44.046875 -1.421875 33.015625 -1.421875 
Q 20.359375 -1.421875 13.671875 8.265625 
Q 6.984375 17.96875 6.984375 36.375 
Q 6.984375 53.65625 15.1875 63.9375 
Q 23.390625 74.21875 37.203125 74.21875 
Q 40.921875 74.21875 44.703125 73.484375 
Q 48.484375 72.75 52.59375 71.296875 
" id="DejaVuSans-36"/>
      </defs>
      <g transform="translate(313.607968 320.44225)scale(0.2 -0.2)">
       <use xlink:href="#DejaVuSans-36"/>
      </g>
     </g>
    </g>
    <g id="xtick_5">
     <g id="line2d_9">
      <path clip-path="url(#p1648dbbc6e)" d="M 402.256183 298.245375 
L 402.256183 32.133375 
" style="fill:none;stroke:#b0b0b0;stroke-linecap:square;stroke-width:0.8;"/>
     </g>
     <g id="line2d_10">
      <g>
       <use style="stroke:#000000;stroke-width:0.8;" x="402.256183" xlink:href="#m12ee2df0c4" y="298.245375"/>
      </g>
     </g>
     <g id="text_5">
      <!-- 8 -->
      <defs>
       <path d="M 31.78125 34.625 
Q 24.75 34.625 20.71875 30.859375 
Q 16.703125 27.09375 16.703125 20.515625 
Q 16.703125 13.921875 20.71875 10.15625 
Q 24.75 6.390625 31.78125 6.390625 
Q 38.8125 6.390625 42.859375 10.171875 
Q 46.921875 13.96875 46.921875 20.515625 
Q 46.921875 27.09375 42.890625 30.859375 
Q 38.875 34.625 31.78125 34.625 
M 21.921875 38.8125 
Q 15.578125 40.375 12.03125 44.71875 
Q 8.5 49.078125 8.5 55.328125 
Q 8.5 64.0625 14.71875 69.140625 
Q 20.953125 74.21875 31.78125 74.21875 
Q 42.671875 74.21875 48.875 69.140625 
Q 55.078125 64.0625 55.078125 55.328125 
Q 55.078125 49.078125 51.53125 44.71875 
Q 48 40.375 41.703125 38.8125 
Q 48.828125 37.15625 52.796875 32.3125 
Q 56.78125 27.484375 56.78125 20.515625 
Q 56.78125 9.90625 50.3125 4.234375 
Q 43.84375 -1.421875 31.78125 -1.421875 
Q 19.734375 -1.421875 13.25 4.234375 
Q 6.78125 9.90625 6.78125 20.515625 
Q 6.78125 27.484375 10.78125 32.3125 
Q 14.796875 37.15625 21.921875 38.8125 
M 18.3125 54.390625 
Q 18.3125 48.734375 21.84375 45.5625 
Q 25.390625 42.390625 31.78125 42.390625 
Q 38.140625 42.390625 41.71875 45.5625 
Q 45.3125 48.734375 45.3125 54.390625 
Q 45.3125 60.0625 41.71875 63.234375 
Q 38.140625 66.40625 31.78125 66.40625 
Q 25.390625 66.40625 21.84375 63.234375 
Q 18.3125 60.0625 18.3125 54.390625 
" id="DejaVuSans-38"/>
      </defs>
      <g transform="translate(395.893683 320.44225)scale(0.2 -0.2)">
       <use xlink:href="#DejaVuSans-38"/>
      </g>
     </g>
    </g>
    <g id="xtick_6">
     <g id="line2d_11">
      <defs>
       <path d="M 0 0 
L 0 2 
" id="m2d95102396" style="stroke:#000000;stroke-width:0.6;"/>
      </defs>
      <g>
       <use style="stroke:#000000;stroke-width:0.6;" x="85.498559" xlink:href="#m2d95102396" y="298.245375"/>
      </g>
     </g>
    </g>
    <g id="xtick_7">
     <g id="line2d_12">
      <g>
       <use style="stroke:#000000;stroke-width:0.6;" x="97.883794" xlink:href="#m2d95102396" y="298.245375"/>
      </g>
     </g>
    </g>
    <g id="xtick_8">
     <g id="line2d_13">
      <g>
       <use style="stroke:#000000;stroke-width:0.6;" x="105.128691" xlink:href="#m2d95102396" y="298.245375"/>
      </g>
     </g>
    </g>
    <g id="xtick_9">
     <g id="line2d_14">
      <g>
       <use style="stroke:#000000;stroke-width:0.6;" x="110.269028" xlink:href="#m2d95102396" y="298.245375"/>
      </g>
     </g>
    </g>
    <g id="xtick_10">
     <g id="line2d_15">
      <g>
       <use style="stroke:#000000;stroke-width:0.6;" x="167.784274" xlink:href="#m2d95102396" y="298.245375"/>
      </g>
     </g>
    </g>
    <g id="xtick_11">
     <g id="line2d_16">
      <g>
       <use style="stroke:#000000;stroke-width:0.6;" x="180.169508" xlink:href="#m2d95102396" y="298.245375"/>
      </g>
     </g>
    </g>
    <g id="xtick_12">
     <g id="line2d_17">
      <g>
       <use style="stroke:#000000;stroke-width:0.6;" x="187.414405" xlink:href="#m2d95102396" y="298.245375"/>
      </g>
     </g>
    </g>
    <g id="xtick_13">
     <g id="line2d_18">
      <g>
       <use style="stroke:#000000;stroke-width:0.6;" x="192.554742" xlink:href="#m2d95102396" y="298.245375"/>
      </g>
     </g>
    </g>
    <g id="xtick_14">
     <g id="line2d_19">
      <g>
       <use style="stroke:#000000;stroke-width:0.6;" x="250.069988" xlink:href="#m2d95102396" y="298.245375"/>
      </g>
     </g>
    </g>
    <g id="xtick_15">
     <g id="line2d_20">
      <g>
       <use style="stroke:#000000;stroke-width:0.6;" x="262.455222" xlink:href="#m2d95102396" y="298.245375"/>
      </g>
     </g>
    </g>
    <g id="xtick_16">
     <g id="line2d_21">
      <g>
       <use style="stroke:#000000;stroke-width:0.6;" x="269.70012" xlink:href="#m2d95102396" y="298.245375"/>
      </g>
     </g>
    </g>
    <g id="xtick_17">
     <g id="line2d_22">
      <g>
       <use style="stroke:#000000;stroke-width:0.6;" x="274.840456" xlink:href="#m2d95102396" y="298.245375"/>
      </g>
     </g>
    </g>
    <g id="xtick_18">
     <g id="line2d_23">
      <g>
       <use style="stroke:#000000;stroke-width:0.6;" x="332.355702" xlink:href="#m2d95102396" y="298.245375"/>
      </g>
     </g>
    </g>
    <g id="xtick_19">
     <g id="line2d_24">
      <g>
       <use style="stroke:#000000;stroke-width:0.6;" x="344.740936" xlink:href="#m2d95102396" y="298.245375"/>
      </g>
     </g>
    </g>
    <g id="xtick_20">
     <g id="line2d_25">
      <g>
       <use style="stroke:#000000;stroke-width:0.6;" x="351.985834" xlink:href="#m2d95102396" y="298.245375"/>
      </g>
     </g>
    </g>
    <g id="xtick_21">
     <g id="line2d_26">
      <g>
       <use style="stroke:#000000;stroke-width:0.6;" x="357.126171" xlink:href="#m2d95102396" y="298.245375"/>
      </g>
     </g>
    </g>
    <g id="xtick_22">
     <g id="line2d_27">
      <g>
       <use style="stroke:#000000;stroke-width:0.6;" x="414.641417" xlink:href="#m2d95102396" y="298.245375"/>
      </g>
     </g>
    </g>
    <g id="xtick_23">
     <g id="line2d_28">
      <g>
       <use style="stroke:#000000;stroke-width:0.6;" x="427.026651" xlink:href="#m2d95102396" y="298.245375"/>
      </g>
     </g>
    </g>
    <g id="text_6">
     <!-- log10 of (# f-evals / dimension) -->
     <defs>
      <path d="M 9.421875 75.984375 
L 18.40625 75.984375 
L 18.40625 0 
L 9.421875 0 
z
" id="DejaVuSans-6c"/>
      <path d="M 30.609375 48.390625 
Q 23.390625 48.390625 19.1875 42.75 
Q 14.984375 37.109375 14.984375 27.296875 
Q 14.984375 17.484375 19.15625 11.84375 
Q 23.34375 6.203125 30.609375 6.203125 
Q 37.796875 6.203125 41.984375 11.859375 
Q 46.1875 17.53125 46.1875 27.296875 
Q 46.1875 37.015625 41.984375 42.703125 
Q 37.796875 48.390625 30.609375 48.390625 
M 30.609375 56 
Q 42.328125 56 49.015625 48.375 
Q 55.71875 40.765625 55.71875 27.296875 
Q 55.71875 13.875 49.015625 6.21875 
Q 42.328125 -1.421875 30.609375 -1.421875 
Q 18.84375 -1.421875 12.171875 6.21875 
Q 5.515625 13.875 5.515625 27.296875 
Q 5.515625 40.765625 12.171875 48.375 
Q 18.84375 56 30.609375 56 
" id="DejaVuSans-6f"/>
      <path d="M 45.40625 27.984375 
Q 45.40625 37.75 41.375 43.109375 
Q 37.359375 48.484375 30.078125 48.484375 
Q 22.859375 48.484375 18.828125 43.109375 
Q 14.796875 37.75 14.796875 27.984375 
Q 14.796875 18.265625 18.828125 12.890625 
Q 22.859375 7.515625 30.078125 7.515625 
Q 37.359375 7.515625 41.375 12.890625 
Q 45.40625 18.265625 45.40625 27.984375 
M 54.390625 6.78125 
Q 54.390625 -7.171875 48.1875 -13.984375 
Q 42 -20.796875 29.203125 -20.796875 
Q 24.46875 -20.796875 20.265625 -20.09375 
Q 16.0625 -19.390625 12.109375 -17.921875 
L 12.109375 -9.1875 
Q 16.0625 -11.328125 19.921875 -12.34375 
Q 23.78125 -13.375 27.78125 -13.375 
Q 36.625 -13.375 41.015625 -8.765625 
Q 45.40625 -4.15625 45.40625 5.171875 
L 45.40625 9.625 
Q 42.625 4.78125 38.28125 2.390625 
Q 33.9375 0 27.875 0 
Q 17.828125 0 11.671875 7.65625 
Q 5.515625 15.328125 5.515625 27.984375 
Q 5.515625 40.671875 11.671875 48.328125 
Q 17.828125 56 27.875 56 
Q 33.9375 56 38.28125 53.609375 
Q 42.625 51.21875 45.40625 46.390625 
L 45.40625 54.6875 
L 54.390625 54.6875 
z
" id="DejaVuSans-67"/>
      <path d="M 12.40625 8.296875 
L 28.515625 8.296875 
L 28.515625 63.921875 
L 10.984375 60.40625 
L 10.984375 69.390625 
L 28.421875 72.90625 
L 38.28125 72.90625 
L 38.28125 8.296875 
L 54.390625 8.296875 
L 54.390625 0 
L 12.40625 0 
z
" id="DejaVuSans-31"/>
      <path id="DejaVuSans-20"/>
      <path d="M 37.109375 75.984375 
L 37.109375 68.5 
L 28.515625 68.5 
Q 23.6875 68.5 21.796875 66.546875 
Q 19.921875 64.59375 19.921875 59.515625 
L 19.921875 54.6875 
L 34.71875 54.6875 
L 34.71875 47.703125 
L 19.921875 47.703125 
L 19.921875 0 
L 10.890625 0 
L 10.890625 47.703125 
L 2.296875 47.703125 
L 2.296875 54.6875 
L 10.890625 54.6875 
L 10.890625 58.5 
Q 10.890625 67.625 15.140625 71.796875 
Q 19.390625 75.984375 28.609375 75.984375 
z
" id="DejaVuSans-66"/>
      <path d="M 31 75.875 
Q 24.46875 64.65625 21.28125 53.65625 
Q 18.109375 42.671875 18.109375 31.390625 
Q 18.109375 20.125 21.3125 9.0625 
Q 24.515625 -2 31 -13.1875 
L 23.1875 -13.1875 
Q 15.875 -1.703125 12.234375 9.375 
Q 8.59375 20.453125 8.59375 31.390625 
Q 8.59375 42.28125 12.203125 53.3125 
Q 15.828125 64.359375 23.1875 75.875 
z
" id="DejaVuSans-28"/>
      <path d="M 51.125 44 
L 36.921875 44 
L 32.8125 27.6875 
L 47.125 27.6875 
z
M 43.796875 71.78125 
L 38.71875 51.515625 
L 52.984375 51.515625 
L 58.109375 71.78125 
L 65.921875 71.78125 
L 60.890625 51.515625 
L 76.125 51.515625 
L 76.125 44 
L 58.984375 44 
L 54.984375 27.6875 
L 70.515625 27.6875 
L 70.515625 20.21875 
L 53.078125 20.21875 
L 48 0 
L 40.1875 0 
L 45.21875 20.21875 
L 30.90625 20.21875 
L 25.875 0 
L 18.015625 0 
L 23.09375 20.21875 
L 7.71875 20.21875 
L 7.71875 27.6875 
L 24.90625 27.6875 
L 29 44 
L 13.28125 44 
L 13.28125 51.515625 
L 30.90625 51.515625 
L 35.890625 71.78125 
z
" id="DejaVuSans-23"/>
      <path d="M 4.890625 31.390625 
L 31.203125 31.390625 
L 31.203125 23.390625 
L 4.890625 23.390625 
z
" id="DejaVuSans-2d"/>
      <path d="M 56.203125 29.59375 
L 56.203125 25.203125 
L 14.890625 25.203125 
Q 15.484375 15.921875 20.484375 11.0625 
Q 25.484375 6.203125 34.421875 6.203125 
Q 39.59375 6.203125 44.453125 7.46875 
Q 49.3125 8.734375 54.109375 11.28125 
L 54.109375 2.78125 
Q 49.265625 0.734375 44.1875 -0.34375 
Q 39.109375 -1.421875 33.890625 -1.421875 
Q 20.796875 -1.421875 13.15625 6.1875 
Q 5.515625 13.8125 5.515625 26.8125 
Q 5.515625 40.234375 12.765625 48.109375 
Q 20.015625 56 32.328125 56 
Q 43.359375 56 49.78125 48.890625 
Q 56.203125 41.796875 56.203125 29.59375 
M 47.21875 32.234375 
Q 47.125 39.59375 43.09375 43.984375 
Q 39.0625 48.390625 32.421875 48.390625 
Q 24.90625 48.390625 20.390625 44.140625 
Q 15.875 39.890625 15.1875 32.171875 
z
" id="DejaVuSans-65"/>
      <path d="M 2.984375 54.6875 
L 12.5 54.6875 
L 29.59375 8.796875 
L 46.6875 54.6875 
L 56.203125 54.6875 
L 35.6875 0 
L 23.484375 0 
z
" id="DejaVuSans-76"/>
      <path d="M 34.28125 27.484375 
Q 23.390625 27.484375 19.1875 25 
Q 14.984375 22.515625 14.984375 16.5 
Q 14.984375 11.71875 18.140625 8.90625 
Q 21.296875 6.109375 26.703125 6.109375 
Q 34.1875 6.109375 38.703125 11.40625 
Q 43.21875 16.703125 43.21875 25.484375 
L 43.21875 27.484375 
z
M 52.203125 31.203125 
L 52.203125 0 
L 43.21875 0 
L 43.21875 8.296875 
Q 40.140625 3.328125 35.546875 0.953125 
Q 30.953125 -1.421875 24.3125 -1.421875 
Q 15.921875 -1.421875 10.953125 3.296875 
Q 6 8.015625 6 15.921875 
Q 6 25.140625 12.171875 29.828125 
Q 18.359375 34.515625 30.609375 34.515625 
L 43.21875 34.515625 
L 43.21875 35.40625 
Q 43.21875 41.609375 39.140625 45 
Q 35.0625 48.390625 27.6875 48.390625 
Q 23 48.390625 18.546875 47.265625 
Q 14.109375 46.140625 10.015625 43.890625 
L 10.015625 52.203125 
Q 14.9375 54.109375 19.578125 55.046875 
Q 24.21875 56 28.609375 56 
Q 40.484375 56 46.34375 49.84375 
Q 52.203125 43.703125 52.203125 31.203125 
" id="DejaVuSans-61"/>
      <path d="M 44.28125 53.078125 
L 44.28125 44.578125 
Q 40.484375 46.53125 36.375 47.5 
Q 32.28125 48.484375 27.875 48.484375 
Q 21.1875 48.484375 17.84375 46.4375 
Q 14.5 44.390625 14.5 40.28125 
Q 14.5 37.15625 16.890625 35.375 
Q 19.28125 33.59375 26.515625 31.984375 
L 29.59375 31.296875 
Q 39.15625 29.25 43.1875 25.515625 
Q 47.21875 21.78125 47.21875 15.09375 
Q 47.21875 7.46875 41.1875 3.015625 
Q 35.15625 -1.421875 24.609375 -1.421875 
Q 20.21875 -1.421875 15.453125 -0.5625 
Q 10.6875 0.296875 5.421875 2 
L 5.421875 11.28125 
Q 10.40625 8.6875 15.234375 7.390625 
Q 20.0625 6.109375 24.8125 6.109375 
Q 31.15625 6.109375 34.5625 8.28125 
Q 37.984375 10.453125 37.984375 14.40625 
Q 37.984375 18.0625 35.515625 20.015625 
Q 33.0625 21.96875 24.703125 23.78125 
L 21.578125 24.515625 
Q 13.234375 26.265625 9.515625 29.90625 
Q 5.8125 33.546875 5.8125 39.890625 
Q 5.8125 47.609375 11.28125 51.796875 
Q 16.75 56 26.8125 56 
Q 31.78125 56 36.171875 55.265625 
Q 40.578125 54.546875 44.28125 53.078125 
" id="DejaVuSans-73"/>
      <path d="M 25.390625 72.90625 
L 33.6875 72.90625 
L 8.296875 -9.28125 
L 0 -9.28125 
z
" id="DejaVuSans-2f"/>
      <path d="M 45.40625 46.390625 
L 45.40625 75.984375 
L 54.390625 75.984375 
L 54.390625 0 
L 45.40625 0 
L 45.40625 8.203125 
Q 42.578125 3.328125 38.25 0.953125 
Q 33.9375 -1.421875 27.875 -1.421875 
Q 17.96875 -1.421875 11.734375 6.484375 
Q 5.515625 14.40625 5.515625 27.296875 
Q 5.515625 40.1875 11.734375 48.09375 
Q 17.96875 56 27.875 56 
Q 33.9375 56 38.25 53.625 
Q 42.578125 51.265625 45.40625 46.390625 
M 14.796875 27.296875 
Q 14.796875 17.390625 18.875 11.75 
Q 22.953125 6.109375 30.078125 6.109375 
Q 37.203125 6.109375 41.296875 11.75 
Q 45.40625 17.390625 45.40625 27.296875 
Q 45.40625 37.203125 41.296875 42.84375 
Q 37.203125 48.484375 30.078125 48.484375 
Q 22.953125 48.484375 18.875 42.84375 
Q 14.796875 37.203125 14.796875 27.296875 
" id="DejaVuSans-64"/>
      <path d="M 9.421875 54.6875 
L 18.40625 54.6875 
L 18.40625 0 
L 9.421875 0 
z
M 9.421875 75.984375 
L 18.40625 75.984375 
L 18.40625 64.59375 
L 9.421875 64.59375 
z
" id="DejaVuSans-69"/>
      <path d="M 52 44.1875 
Q 55.375 50.25 60.0625 53.125 
Q 64.75 56 71.09375 56 
Q 79.640625 56 84.28125 50.015625 
Q 88.921875 44.046875 88.921875 33.015625 
L 88.921875 0 
L 79.890625 0 
L 79.890625 32.71875 
Q 79.890625 40.578125 77.09375 44.375 
Q 74.3125 48.1875 68.609375 48.1875 
Q 61.625 48.1875 57.5625 43.546875 
Q 53.515625 38.921875 53.515625 30.90625 
L 53.515625 0 
L 44.484375 0 
L 44.484375 32.71875 
Q 44.484375 40.625 41.703125 44.40625 
Q 38.921875 48.1875 33.109375 48.1875 
Q 26.21875 48.1875 22.15625 43.53125 
Q 18.109375 38.875 18.109375 30.90625 
L 18.109375 0 
L 9.078125 0 
L 9.078125 54.6875 
L 18.109375 54.6875 
L 18.109375 46.1875 
Q 21.1875 51.21875 25.484375 53.609375 
Q 29.78125 56 35.6875 56 
Q 41.65625 56 45.828125 52.96875 
Q 50 49.953125 52 44.1875 
" id="DejaVuSans-6d"/>
      <path d="M 54.890625 33.015625 
L 54.890625 0 
L 45.90625 0 
L 45.90625 32.71875 
Q 45.90625 40.484375 42.875 44.328125 
Q 39.84375 48.1875 33.796875 48.1875 
Q 26.515625 48.1875 22.3125 43.546875 
Q 18.109375 38.921875 18.109375 30.90625 
L 18.109375 0 
L 9.078125 0 
L 9.078125 54.6875 
L 18.109375 54.6875 
L 18.109375 46.1875 
Q 21.34375 51.125 25.703125 53.5625 
Q 30.078125 56 35.796875 56 
Q 45.21875 56 50.046875 50.171875 
Q 54.890625 44.34375 54.890625 33.015625 
" id="DejaVuSans-6e"/>
      <path d="M 8.015625 75.875 
L 15.828125 75.875 
Q 23.140625 64.359375 26.78125 53.3125 
Q 30.421875 42.28125 30.421875 31.390625 
Q 30.421875 20.453125 26.78125 9.375 
Q 23.140625 -1.703125 15.828125 -13.1875 
L 8.015625 -13.1875 
Q 14.5 -2 17.703125 9.0625 
Q 20.90625 20.125 20.90625 31.390625 
Q 20.90625 42.671875 17.703125 53.65625 
Q 14.5 64.65625 8.015625 75.875 
" id="DejaVuSans-29"/>
     </defs>
     <g transform="translate(109.328482 342.278812)scale(0.18 -0.18)">
      <use xlink:href="#DejaVuSans-6c"/>
      <use x="27.783203" xlink:href="#DejaVuSans-6f"/>
      <use x="88.964844" xlink:href="#DejaVuSans-67"/>
      <use x="152.441406" xlink:href="#DejaVuSans-31"/>
      <use x="216.064453" xlink:href="#DejaVuSans-30"/>
      <use x="279.6875" xlink:href="#DejaVuSans-20"/>
      <use x="311.474609" xlink:href="#DejaVuSans-6f"/>
      <use x="372.65625" xlink:href="#DejaVuSans-66"/>
      <use x="407.861328" xlink:href="#DejaVuSans-20"/>
      <use x="439.648438" xlink:href="#DejaVuSans-28"/>
      <use x="478.662109" xlink:href="#DejaVuSans-23"/>
      <use x="562.451172" xlink:href="#DejaVuSans-20"/>
      <use x="594.238281" xlink:href="#DejaVuSans-66"/>
      <use x="629.365234" xlink:href="#DejaVuSans-2d"/>
      <use x="665.449219" xlink:href="#DejaVuSans-65"/>
      <use x="726.972656" xlink:href="#DejaVuSans-76"/>
      <use x="786.152344" xlink:href="#DejaVuSans-61"/>
      <use x="847.431641" xlink:href="#DejaVuSans-6c"/>
      <use x="875.214844" xlink:href="#DejaVuSans-73"/>
      <use x="927.314453" xlink:href="#DejaVuSans-20"/>
      <use x="959.101562" xlink:href="#DejaVuSans-2f"/>
      <use x="992.792969" xlink:href="#DejaVuSans-20"/>
      <use x="1024.580078" xlink:href="#DejaVuSans-64"/>
      <use x="1088.056641" xlink:href="#DejaVuSans-69"/>
      <use x="1115.839844" xlink:href="#DejaVuSans-6d"/>
      <use x="1213.251953" xlink:href="#DejaVuSans-65"/>
      <use x="1274.775391" xlink:href="#DejaVuSans-6e"/>
      <use x="1338.154297" xlink:href="#DejaVuSans-73"/>
      <use x="1390.253906" xlink:href="#DejaVuSans-69"/>
      <use x="1418.037109" xlink:href="#DejaVuSans-6f"/>
      <use x="1479.21875" xlink:href="#DejaVuSans-6e"/>
      <use x="1542.597656" xlink:href="#DejaVuSans-29"/>
     </g>
    </g>
   </g>
   <g id="matplotlib.axis_2">
    <g id="ytick_1">
     <g id="line2d_29">
      <path clip-path="url(#p1648dbbc6e)" d="M 73.113325 298.245375 
L 430.233325 298.245375 
" style="fill:none;stroke:#b0b0b0;stroke-linecap:square;stroke-width:0.8;"/>
     </g>
     <g id="line2d_30">
      <defs>
       <path d="M 0 0 
L -3.5 0 
" id="m428d765031" style="stroke:#000000;stroke-width:0.8;"/>
      </defs>
      <g>
       <use style="stroke:#000000;stroke-width:0.8;" x="73.113325" xlink:href="#m428d765031" y="298.245375"/>
      </g>
     </g>
     <g id="text_7">
      <!-- 0.0 -->
      <defs>
       <path d="M 10.6875 12.40625 
L 21 12.40625 
L 21 0 
L 10.6875 0 
z
" id="DejaVuSans-2e"/>
      </defs>
      <g transform="translate(34.307075 305.843812)scale(0.2 -0.2)">
       <use xlink:href="#DejaVuSans-30"/>
       <use x="63.623047" xlink:href="#DejaVuSans-2e"/>
       <use x="95.410156" xlink:href="#DejaVuSans-30"/>
      </g>
     </g>
    </g>
    <g id="ytick_2">
     <g id="line2d_31">
      <path clip-path="url(#p1648dbbc6e)" d="M 73.113325 245.549929 
L 430.233325 245.549929 
" style="fill:none;stroke:#b0b0b0;stroke-linecap:square;stroke-width:0.8;"/>
     </g>
     <g id="line2d_32">
      <g>
       <use style="stroke:#000000;stroke-width:0.8;" x="73.113325" xlink:href="#m428d765031" y="245.549929"/>
      </g>
     </g>
     <g id="text_8">
      <!-- 0.2 -->
      <g transform="translate(34.307075 253.148367)scale(0.2 -0.2)">
       <use xlink:href="#DejaVuSans-30"/>
       <use x="63.623047" xlink:href="#DejaVuSans-2e"/>
       <use x="95.410156" xlink:href="#DejaVuSans-32"/>
      </g>
     </g>
    </g>
    <g id="ytick_3">
     <g id="line2d_33">
      <path clip-path="url(#p1648dbbc6e)" d="M 73.113325 192.854484 
L 430.233325 192.854484 
" style="fill:none;stroke:#b0b0b0;stroke-linecap:square;stroke-width:0.8;"/>
     </g>
     <g id="line2d_34">
      <g>
       <use style="stroke:#000000;stroke-width:0.8;" x="73.113325" xlink:href="#m428d765031" y="192.854484"/>
      </g>
     </g>
     <g id="text_9">
      <!-- 0.4 -->
      <g transform="translate(34.307075 200.452921)scale(0.2 -0.2)">
       <use xlink:href="#DejaVuSans-30"/>
       <use x="63.623047" xlink:href="#DejaVuSans-2e"/>
       <use x="95.410156" xlink:href="#DejaVuSans-34"/>
      </g>
     </g>
    </g>
    <g id="ytick_4">
     <g id="line2d_35">
      <path clip-path="url(#p1648dbbc6e)" d="M 73.113325 140.159038 
L 430.233325 140.159038 
" style="fill:none;stroke:#b0b0b0;stroke-linecap:square;stroke-width:0.8;"/>
     </g>
     <g id="line2d_36">
      <g>
       <use style="stroke:#000000;stroke-width:0.8;" x="73.113325" xlink:href="#m428d765031" y="140.159038"/>
      </g>
     </g>
     <g id="text_10">
      <!-- 0.6 -->
      <g transform="translate(34.307075 147.757476)scale(0.2 -0.2)">
       <use xlink:href="#DejaVuSans-30"/>
       <use x="63.623047" xlink:href="#DejaVuSans-2e"/>
       <use x="95.410156" xlink:href="#DejaVuSans-36"/>
      </g>
     </g>
    </g>
    <g id="ytick_5">
     <g id="line2d_37">
      <path clip-path="url(#p1648dbbc6e)" d="M 73.113325 87.463593 
L 430.233325 87.463593 
" style="fill:none;stroke:#b0b0b0;stroke-linecap:square;stroke-width:0.8;"/>
     </g>
     <g id="line2d_38">
      <g>
       <use style="stroke:#000000;stroke-width:0.8;" x="73.113325" xlink:href="#m428d765031" y="87.463593"/>
      </g>
     </g>
     <g id="text_11">
      <!-- 0.8 -->
      <g transform="translate(34.307075 95.06203)scale(0.2 -0.2)">
       <use xlink:href="#DejaVuSans-30"/>
       <use x="63.623047" xlink:href="#DejaVuSans-2e"/>
       <use x="95.410156" xlink:href="#DejaVuSans-38"/>
      </g>
     </g>
    </g>
    <g id="ytick_6">
     <g id="line2d_39">
      <path clip-path="url(#p1648dbbc6e)" d="M 73.113325 34.768147 
L 430.233325 34.768147 
" style="fill:none;stroke:#b0b0b0;stroke-linecap:square;stroke-width:0.8;"/>
     </g>
     <g id="line2d_40">
      <g>
       <use style="stroke:#000000;stroke-width:0.8;" x="73.113325" xlink:href="#m428d765031" y="34.768147"/>
      </g>
     </g>
     <g id="text_12">
      <!-- 1.0 -->
      <g transform="translate(34.307075 42.366585)scale(0.2 -0.2)">
       <use xlink:href="#DejaVuSans-31"/>
       <use x="63.623047" xlink:href="#DejaVuSans-2e"/>
       <use x="95.410156" xlink:href="#DejaVuSans-30"/>
      </g>
     </g>
    </g>
    <g id="text_13">
     <!-- Proportion of function+target pairs -->
     <defs>
      <path d="M 19.671875 64.796875 
L 19.671875 37.40625 
L 32.078125 37.40625 
Q 38.96875 37.40625 42.71875 40.96875 
Q 46.484375 44.53125 46.484375 51.125 
Q 46.484375 57.671875 42.71875 61.234375 
Q 38.96875 64.796875 32.078125 64.796875 
z
M 9.8125 72.90625 
L 32.078125 72.90625 
Q 44.34375 72.90625 50.609375 67.359375 
Q 56.890625 61.8125 56.890625 51.125 
Q 56.890625 40.328125 50.609375 34.8125 
Q 44.34375 29.296875 32.078125 29.296875 
L 19.671875 29.296875 
L 19.671875 0 
L 9.8125 0 
z
" id="DejaVuSans-50"/>
      <path d="M 41.109375 46.296875 
Q 39.59375 47.171875 37.8125 47.578125 
Q 36.03125 48 33.890625 48 
Q 26.265625 48 22.1875 43.046875 
Q 18.109375 38.09375 18.109375 28.8125 
L 18.109375 0 
L 9.078125 0 
L 9.078125 54.6875 
L 18.109375 54.6875 
L 18.109375 46.1875 
Q 20.953125 51.171875 25.484375 53.578125 
Q 30.03125 56 36.53125 56 
Q 37.453125 56 38.578125 55.875 
Q 39.703125 55.765625 41.0625 55.515625 
z
" id="DejaVuSans-72"/>
      <path d="M 18.109375 8.203125 
L 18.109375 -20.796875 
L 9.078125 -20.796875 
L 9.078125 54.6875 
L 18.109375 54.6875 
L 18.109375 46.390625 
Q 20.953125 51.265625 25.265625 53.625 
Q 29.59375 56 35.59375 56 
Q 45.5625 56 51.78125 48.09375 
Q 58.015625 40.1875 58.015625 27.296875 
Q 58.015625 14.40625 51.78125 6.484375 
Q 45.5625 -1.421875 35.59375 -1.421875 
Q 29.59375 -1.421875 25.265625 0.953125 
Q 20.953125 3.328125 18.109375 8.203125 
M 48.6875 27.296875 
Q 48.6875 37.203125 44.609375 42.84375 
Q 40.53125 48.484375 33.40625 48.484375 
Q 26.265625 48.484375 22.1875 42.84375 
Q 18.109375 37.203125 18.109375 27.296875 
Q 18.109375 17.390625 22.1875 11.75 
Q 26.265625 6.109375 33.40625 6.109375 
Q 40.53125 6.109375 44.609375 11.75 
Q 48.6875 17.390625 48.6875 27.296875 
" id="DejaVuSans-70"/>
      <path d="M 18.3125 70.21875 
L 18.3125 54.6875 
L 36.8125 54.6875 
L 36.8125 47.703125 
L 18.3125 47.703125 
L 18.3125 18.015625 
Q 18.3125 11.328125 20.140625 9.421875 
Q 21.96875 7.515625 27.59375 7.515625 
L 36.8125 7.515625 
L 36.8125 0 
L 27.59375 0 
Q 17.1875 0 13.234375 3.875 
Q 9.28125 7.765625 9.28125 18.015625 
L 9.28125 47.703125 
L 2.6875 47.703125 
L 2.6875 54.6875 
L 9.28125 54.6875 
L 9.28125 70.21875 
z
" id="DejaVuSans-74"/>
      <path d="M 8.5 21.578125 
L 8.5 54.6875 
L 17.484375 54.6875 
L 17.484375 21.921875 
Q 17.484375 14.15625 20.5 10.265625 
Q 23.53125 6.390625 29.59375 6.390625 
Q 36.859375 6.390625 41.078125 11.03125 
Q 45.3125 15.671875 45.3125 23.6875 
L 45.3125 54.6875 
L 54.296875 54.6875 
L 54.296875 0 
L 45.3125 0 
L 45.3125 8.40625 
Q 42.046875 3.421875 37.71875 1 
Q 33.40625 -1.421875 27.6875 -1.421875 
Q 18.265625 -1.421875 13.375 4.4375 
Q 8.5 10.296875 8.5 21.578125 
M 31.109375 56 
z
" id="DejaVuSans-75"/>
      <path d="M 48.78125 52.59375 
L 48.78125 44.1875 
Q 44.96875 46.296875 41.140625 47.34375 
Q 37.3125 48.390625 33.40625 48.390625 
Q 24.65625 48.390625 19.8125 42.84375 
Q 14.984375 37.3125 14.984375 27.296875 
Q 14.984375 17.28125 19.8125 11.734375 
Q 24.65625 6.203125 33.40625 6.203125 
Q 37.3125 6.203125 41.140625 7.25 
Q 44.96875 8.296875 48.78125 10.40625 
L 48.78125 2.09375 
Q 45.015625 0.34375 40.984375 -0.53125 
Q 36.96875 -1.421875 32.421875 -1.421875 
Q 20.0625 -1.421875 12.78125 6.34375 
Q 5.515625 14.109375 5.515625 27.296875 
Q 5.515625 40.671875 12.859375 48.328125 
Q 20.21875 56 33.015625 56 
Q 37.15625 56 41.109375 55.140625 
Q 45.0625 54.296875 48.78125 52.59375 
" id="DejaVuSans-63"/>
      <path d="M 46 62.703125 
L 46 35.5 
L 73.1875 35.5 
L 73.1875 27.203125 
L 46 27.203125 
L 46 0 
L 37.796875 0 
L 37.796875 27.203125 
L 10.59375 27.203125 
L 10.59375 35.5 
L 37.796875 35.5 
L 37.796875 62.703125 
z
" id="DejaVuSans-2b"/>
     </defs>
     <g transform="translate(26.563638 323.17875)rotate(-90)scale(0.18 -0.18)">
      <use xlink:href="#DejaVuSans-50"/>
      <use x="60.287109" xlink:href="#DejaVuSans-72"/>
      <use x="101.369141" xlink:href="#DejaVuSans-6f"/>
      <use x="162.550781" xlink:href="#DejaVuSans-70"/>
      <use x="226.027344" xlink:href="#DejaVuSans-6f"/>
      <use x="287.208984" xlink:href="#DejaVuSans-72"/>
      <use x="328.322266" xlink:href="#DejaVuSans-74"/>
      <use x="367.53125" xlink:href="#DejaVuSans-69"/>
      <use x="395.314453" xlink:href="#DejaVuSans-6f"/>
      <use x="456.496094" xlink:href="#DejaVuSans-6e"/>
      <use x="519.875" xlink:href="#DejaVuSans-20"/>
      <use x="551.662109" xlink:href="#DejaVuSans-6f"/>
      <use x="612.84375" xlink:href="#DejaVuSans-66"/>
      <use x="648.048828" xlink:href="#DejaVuSans-20"/>
      <use x="679.835938" xlink:href="#DejaVuSans-66"/>
      <use x="715.041016" xlink:href="#DejaVuSans-75"/>
      <use x="778.419922" xlink:href="#DejaVuSans-6e"/>
      <use x="841.798828" xlink:href="#DejaVuSans-63"/>
      <use x="896.779297" xlink:href="#DejaVuSans-74"/>
      <use x="935.988281" xlink:href="#DejaVuSans-69"/>
      <use x="963.771484" xlink:href="#DejaVuSans-6f"/>
      <use x="1024.953125" xlink:href="#DejaVuSans-6e"/>
      <use x="1088.332031" xlink:href="#DejaVuSans-2b"/>
      <use x="1172.121094" xlink:href="#DejaVuSans-74"/>
      <use x="1211.330078" xlink:href="#DejaVuSans-61"/>
      <use x="1272.609375" xlink:href="#DejaVuSans-72"/>
      <use x="1313.707031" xlink:href="#DejaVuSans-67"/>
      <use x="1377.183594" xlink:href="#DejaVuSans-65"/>
      <use x="1438.707031" xlink:href="#DejaVuSans-74"/>
      <use x="1477.916016" xlink:href="#DejaVuSans-20"/>
      <use x="1509.703125" xlink:href="#DejaVuSans-70"/>
      <use x="1573.179688" xlink:href="#DejaVuSans-61"/>
      <use x="1634.458984" xlink:href="#DejaVuSans-69"/>
      <use x="1662.242188" xlink:href="#DejaVuSans-72"/>
      <use x="1703.355469" xlink:href="#DejaVuSans-73"/>
     </g>
    </g>
   </g>
   <g id="line2d_41">
    <defs>
     <path d="M 0 1.5 
C 0.397805 1.5 0.77937 1.341951 1.06066 1.06066 
C 1.341951 0.77937 1.5 0.397805 1.5 0 
C 1.5 -0.397805 1.341951 -0.77937 1.06066 -1.06066 
C 0.77937 -1.341951 0.397805 -1.5 0 -1.5 
C -0.397805 -1.5 -0.77937 -1.341951 -1.06066 -1.06066 
C -1.341951 -0.77937 -1.5 -0.397805 -1.5 0 
C -1.5 0.397805 -1.341951 0.77937 -1.06066 1.06066 
C -0.77937 1.341951 -0.397805 1.5 0 1.5 
z
" id="mf40e8bba28" style="stroke:#00bfbf;"/>
    </defs>
    <g>
     <use style="fill:#00bfbf;stroke:#00bfbf;" x="352.603647" xlink:href="#mf40e8bba28" y="155.657699"/>
     <use style="fill:#00bfbf;stroke:#00bfbf;" x="352.603647" xlink:href="#mf40e8bba28" y="155.657699"/>
    </g>
   </g>
   <g id="line2d_42">
    <path d="M 60.728091 298.245375 
L 60.728091 275.410682 
L 73.113325 275.410682 
L 73.113325 272.724247 
L 80.358223 272.724247 
L 80.358223 271.587679 
L 85.498559 271.587679 
L 85.498559 269.314542 
L 89.485714 269.314542 
L 89.485714 268.694596 
L 92.743457 268.694596 
L 92.743457 267.661352 
L 95.497839 267.661352 
L 95.497839 267.351378 
L 97.883794 267.351378 
L 97.883794 266.008161 
L 99.988354 266.008161 
L 99.988354 265.801512 
L 101.870948 265.801512 
L 101.870948 265.28489 
L 103.573962 265.28489 
L 103.573962 265.078242 
L 110.269028 264.974917 
L 110.269028 264.768268 
L 111.352275 264.768268 
L 111.352275 264.56162 
L 113.339668 264.458295 
L 113.339668 264.354971 
L 114.256183 264.354971 
L 114.256183 264.044998 
L 115.127971 264.044998 
L 115.127971 263.735024 
L 117.513925 263.6317 
L 117.513925 263.425051 
L 120.268307 263.425051 
L 120.268307 263.011754 
L 120.895323 263.011754 
L 120.895323 262.70178 
L 123.204093 262.598456 
L 123.204093 262.185158 
L 126.641417 262.185158 
L 126.641417 261.97851 
L 129.138699 261.875185 
L 129.138699 261.668536 
L 129.522975 261.668536 
L 129.522975 261.461888 
L 129.899159 261.461888 
L 129.899159 261.255239 
L 133.886314 261.151914 
L 133.886314 261.04859 
L 135.316526 260.945266 
L 135.316526 260.841941 
L 137.633625 260.738617 
L 137.633625 260.015346 
L 138.110136 259.912021 
L 138.110136 259.808697 
L 138.801892 259.808697 
L 138.801892 259.395399 
L 140.109898 259.292075 
L 140.109898 258.362155 
L 141.131212 258.258831 
L 141.131212 258.155507 
L 141.523933 258.155507 
L 141.523933 257.845533 
L 142.097291 257.845533 
L 142.097291 257.638885 
L 143.191599 257.53556 
L 143.191599 257.432236 
L 144.222738 257.432236 
L 144.222738 257.225587 
L 145.665791 257.122263 
L 145.665791 257.018938 
L 147.284587 257.018938 
L 147.284587 255.985694 
L 151.073677 255.88237 
L 151.073677 255.469072 
L 151.523213 255.469072 
L 151.523213 254.95245 
L 152.910689 254.95245 
L 152.910689 254.745801 
L 153.615438 254.642477 
L 153.615438 254.125855 
L 154.293443 254.022531 
L 154.293443 253.815882 
L 154.669628 253.815882 
L 154.669628 253.505908 
L 157.183088 253.402584 
L 157.183088 253.29926 
L 158.204401 253.195935 
L 158.204401 253.092611 
L 166.148141 252.989286 
L 166.148141 252.885962 
L 168.95141 252.782638 
L 168.95141 252.472664 
L 169.283078 252.472664 
L 169.283078 252.266016 
L 170.92999 252.266016 
L 170.92999 251.749394 
L 171.446873 251.749394 
L 171.446873 251.542745 
L 174.049851 251.43942 
L 174.049851 251.129447 
L 176.070327 251.129447 
L 176.070327 250.71615 
L 176.623563 250.71615 
L 176.623563 250.509501 
L 177.344257 250.406176 
L 177.344257 250.302852 
L 178.36121 250.199528 
L 178.36121 249.992879 
L 179.229467 249.992879 
L 179.229467 249.579581 
L 193.266277 249.476257 
L 193.266277 249.166284 
L 202.693865 249.062959 
L 202.693865 248.959635 
L 210.520161 248.959635 
L 210.520161 248.752986 
L 214.45084 248.752986 
L 214.45084 248.443013 
L 219.536166 248.339688 
L 219.536166 248.236364 
L 225.898664 248.13304 
L 225.898664 247.719742 
L 227.629773 247.719742 
L 227.629773 247.409769 
L 228.543856 247.409769 
L 228.543856 246.996471 
L 237.350188 246.893147 
L 237.350188 246.686498 
L 244.030057 246.686498 
L 244.030057 246.2732 
L 246.800806 246.169876 
L 246.800806 246.066551 
L 248.631994 245.963227 
L 248.631994 245.756578 
L 250.098108 245.756578 
L 250.098108 245.549929 
L 252.097351 245.446605 
L 252.097351 245.343281 
L 254.799815 245.343281 
L 254.799815 245.033307 
L 260.417347 244.929983 
L 260.417347 244.723334 
L 263.296353 244.62001 
L 263.296353 244.413361 
L 265.397504 244.310037 
L 265.397504 244.206712 
L 265.593258 244.206712 
L 265.704215 241.933575 
L 265.705332 241.830251 
L 265.805046 231.807784 
L 265.824848 231.704459 
L 265.878223 230.77454 
L 266.009228 230.671215 
L 266.047813 230.361242 
L 266.662932 230.257918 
L 266.712809 229.534647 
L 267.499034 229.431323 
L 267.52697 229.224674 
L 267.802298 229.121349 
L 267.877812 228.811376 
L 269.046239 228.708052 
L 269.046239 228.604727 
L 270.524054 228.501403 
L 270.524054 228.398079 
L 271.036485 228.294754 
L 271.043116 228.088105 
L 271.467316 227.984781 
L 271.467316 227.881457 
L 274.702452 227.778132 
L 274.70639 227.468159 
L 276.922767 227.364835 
L 276.943131 227.054861 
L 278.04274 226.951537 
L 278.151166 220.338775 
L 278.157939 220.235451 
L 278.268251 218.58226 
L 278.406723 218.478936 
L 278.502873 218.168963 
L 278.606561 218.065638 
L 278.618949 217.858989 
L 278.882738 217.755665 
L 278.887102 217.549016 
L 279.030332 217.445692 
L 279.039163 217.135719 
L 279.177592 217.032394 
L 279.177592 216.92907 
L 279.536055 216.825745 
L 279.536055 216.722421 
L 279.755044 216.722421 
L 279.755044 216.515772 
L 280.959232 216.412448 
L 280.959232 216.309123 
L 281.688856 216.205799 
L 281.688856 216.102475 
L 284.579658 215.99915 
L 284.579658 215.895826 
L 285.329069 215.792501 
L 285.438942 210.212984 
L 285.442583 210.109659 
L 285.461082 209.799686 
L 285.681232 209.696362 
L 285.690849 209.283064 
L 285.974442 209.17974 
L 286.07233 208.766442 
L 286.180877 208.663118 
L 286.180877 208.559793 
L 286.319459 208.456469 
L 286.319518 208.24982 
L 286.527253 208.146496 
L 286.527253 208.043171 
L 287.033246 207.939847 
L 287.033246 207.836522 
L 287.470254 207.733198 
L 287.470254 207.629874 
L 290.429468 207.526549 
L 290.531946 203.806871 
L 290.553929 203.703546 
L 290.653209 203.393573 
L 290.687836 203.290249 
L 290.760601 202.773627 
L 290.939936 202.670302 
L 290.963461 202.360329 
L 291.115467 202.257005 
L 291.226197 201.843707 
L 291.363684 201.740383 
L 291.368954 201.533734 
L 291.926956 201.430409 
L 291.995026 201.223761 
L 292.087611 201.120436 
L 292.107295 200.913787 
L 294.447195 200.810463 
L 294.551592 197.607406 
L 294.693217 197.504082 
L 294.693217 197.400758 
L 295.150401 197.297433 
L 295.150401 197.194109 
L 295.505491 197.090784 
L 295.51062 196.677487 
L 295.768535 196.574162 
L 295.775387 196.264189 
L 296.319838 196.160865 
L 296.319838 196.05754 
L 297.720108 195.954216 
L 297.786308 193.164457 
L 297.893312 193.061133 
L 297.911099 192.854484 
L 298.117562 192.75116 
L 298.148889 192.544511 
L 298.327637 192.441186 
L 298.327637 192.337862 
L 298.594357 192.234537 
L 298.594357 192.131213 
L 298.934161 192.027889 
L 299.001104 191.82124 
L 300.457994 191.717915 
L 300.547023 189.444779 
L 300.620499 189.341454 
L 300.620499 189.23813 
L 300.792674 189.134805 
L 300.808634 188.824832 
L 300.972082 188.721508 
L 300.972082 188.618183 
L 301.822374 188.514859 
L 301.822374 188.411535 
L 302.844501 188.30821 
L 302.921843 185.621776 
L 303.101132 185.518451 
L 303.103199 185.311802 
L 303.238576 185.208478 
L 303.299706 184.691856 
L 303.551539 184.588532 
L 303.551539 184.485207 
L 303.694841 184.381883 
L 303.701837 184.175234 
L 304.259621 184.07191 
L 304.259621 183.968585 
L 304.96007 183.865261 
L 305.013593 181.4888 
L 305.212242 181.385475 
L 305.216772 181.178826 
L 305.560161 181.075502 
L 305.646705 180.765529 
L 305.711731 180.662204 
L 305.791561 180.455556 
L 306.818577 180.352231 
L 306.894847 179.009014 
L 307.044798 178.90569 
L 307.044798 178.802365 
L 307.383332 178.699041 
L 307.469755 178.285743 
L 308.394152 178.182419 
L 308.394152 178.079094 
L 308.554097 177.97577 
L 308.66135 176.735877 
L 309.160539 176.632553 
L 309.160539 176.529228 
L 310.11493 176.425904 
L 310.211508 175.289335 
L 310.402717 175.186011 
L 310.423202 174.876038 
L 310.732389 174.772713 
L 310.732389 174.669389 
L 311.548501 174.566065 
L 311.624901 173.739469 
L 311.73778 173.636145 
L 311.804913 173.429496 
L 311.954007 173.326172 
L 312.061467 173.119523 
L 312.142675 173.016199 
L 312.142675 172.912874 
L 312.85192 172.80955 
L 312.89684 171.982954 
L 313.114569 171.87963 
L 313.114569 171.776306 
L 313.295585 171.672981 
L 313.295585 171.569657 
L 314.092031 171.466332 
L 314.17651 170.846386 
L 314.452572 170.743062 
L 314.455699 170.536413 
L 315.255704 170.433088 
L 315.316632 169.399844 
L 315.444452 169.29652 
L 315.444452 169.193196 
L 315.642784 169.089871 
L 315.743032 168.883222 
L 316.324981 168.779898 
L 316.363024 168.263276 
L 317.359424 168.159952 
L 317.426599 167.540005 
L 318.34059 167.436681 
L 318.34059 167.333356 
L 318.499833 167.230032 
L 318.521103 167.023383 
L 319.24796 166.920059 
L 319.261026 166.610086 
L 320.11592 166.506761 
L 320.175362 165.990139 
L 320.257594 165.886815 
L 320.285767 165.680166 
L 320.929707 165.576842 
L 320.997534 164.853571 
L 321.742449 164.750246 
L 321.819185 164.233624 
L 322.024809 164.1303 
L 322.024809 164.026975 
L 322.519811 163.923651 
L 322.630185 163.407029 
L 322.826262 163.303705 
L 322.826262 163.20038 
L 323.229439 163.097056 
L 323.275224 162.580434 
L 323.912259 162.477109 
L 323.980822 162.167136 
L 324.738814 162.063812 
L 324.738814 161.960487 
L 325.269001 161.857163 
L 325.326994 161.54719 
L 325.891765 161.443865 
L 325.987564 161.030568 
L 326.067215 160.927243 
L 326.067215 160.823919 
L 326.487145 160.720595 
L 326.487145 160.61727 
L 327.08442 160.513946 
L 327.08442 160.410621 
L 327.64741 160.307297 
L 327.677065 159.997324 
L 328.207857 159.893999 
L 328.207857 159.790675 
L 328.738585 159.687351 
L 328.832199 159.377377 
L 328.947464 159.274053 
L 328.947464 159.170729 
L 329.343798 159.067404 
L 329.343798 158.96408 
L 330.253063 158.860755 
L 330.33225 158.550782 
L 331.178843 158.447458 
L 331.183408 158.240809 
L 331.77941 158.137484 
L 331.77941 158.03416 
L 332.100238 157.930836 
L 332.100238 157.827511 
L 333.852292 157.724187 
L 333.852292 157.620862 
L 334.579174 157.517538 
L 334.624536 157.310889 
L 335.639309 157.207565 
L 335.639309 157.10424 
L 336.304679 157.000916 
L 336.304679 156.897592 
L 338.563751 156.794267 
L 338.571267 156.587618 
L 338.9615 156.484294 
L 338.9615 156.38097 
L 340.936404 156.277645 
L 340.936404 156.174321 
L 341.970798 156.070996 
L 341.970798 155.967672 
L 344.103892 155.864348 
L 344.103892 155.761023 
L 361.113325 155.657699 
L 361.113325 155.657699 
" style="fill:none;stroke:#00bfbf;stroke-linecap:square;stroke-width:1.5;"/>
   </g>
   <g id="line2d_43">
    <defs>
     <path d="M -6 0 
L 6 0 
M 0 6 
L 0 -6 
" id="m99b3b2e5e1" style="stroke:#00bfbf;stroke-width:1.5;"/>
    </defs>
    <g>
     <use style="fill:none;stroke:#00bfbf;stroke-width:1.5;" x="89.485714" xlink:href="#m99b3b2e5e1" y="269.314542"/>
     <use style="fill:none;stroke:#00bfbf;stroke-width:1.5;" x="193.266277" xlink:href="#m99b3b2e5e1" y="249.166284"/>
     <use style="fill:none;stroke:#00bfbf;stroke-width:1.5;" x="278.103968" xlink:href="#m99b3b2e5e1" y="223.02521"/>
     <use style="fill:none;stroke:#00bfbf;stroke-width:1.5;" x="308.66135" xlink:href="#m99b3b2e5e1" y="176.735877"/>
     <use style="fill:none;stroke:#00bfbf;stroke-width:1.5;" x="352.603647" xlink:href="#m99b3b2e5e1" y="155.657699"/>
     <use style="fill:none;stroke:#00bfbf;stroke-width:1.5;" x="361.113325" xlink:href="#m99b3b2e5e1" y="155.657699"/>
    </g>
   </g>
   <g id="line2d_44"/>
   <g id="line2d_45">
    <path clip-path="url(#p1648dbbc6e)" d="M 265.714082 240.383709 
" style="fill:none;stroke:#00bfbf;stroke-linecap:square;stroke-width:1.5;"/>
    <defs>
     <path d="M -12 12 
L 12 -12 
M -12 -12 
L 12 12 
" id="m449dbc4e10" style="stroke:#00bfbf;stroke-width:3;"/>
    </defs>
    <g clip-path="url(#p1648dbbc6e)">
     <use style="fill:#00bfbf;stroke:#00bfbf;stroke-width:3;" x="265.714082" xlink:href="#m449dbc4e10" y="240.383709"/>
    </g>
   </g>
   <g id="line2d_46">
    <defs>
     <path d="M 0 1.5 
C 0.397805 1.5 0.77937 1.341951 1.06066 1.06066 
C 1.341951 0.77937 1.5 0.397805 1.5 0 
C 1.5 -0.397805 1.341951 -0.77937 1.06066 -1.06066 
C 0.77937 -1.341951 0.397805 -1.5 0 -1.5 
C -0.397805 -1.5 -0.77937 -1.341951 -1.06066 -1.06066 
C -1.341951 -0.77937 -1.5 -0.397805 -1.5 0 
C -1.5 0.397805 -1.341951 0.77937 -1.06066 1.06066 
C -0.77937 1.341951 -0.397805 1.5 0 1.5 
z
" id="m9f6d94bd4b" style="stroke:#008000;"/>
    </defs>
    <g>
     <use style="fill:#008000;stroke:#008000;" x="333.354326" xlink:href="#m9f6d94bd4b" y="240.383709"/>
     <use style="fill:#008000;stroke:#008000;" x="333.354326" xlink:href="#m9f6d94bd4b" y="240.383709"/>
    </g>
   </g>
   <g id="line2d_47">
    <path d="M 53.483194 298.245375 
L 53.483194 274.377438 
L 65.868428 274.377438 
L 65.868428 272.31095 
L 73.113325 272.31095 
L 73.113325 271.277706 
L 78.253662 271.277706 
L 78.253662 270.761084 
L 82.240817 270.761084 
L 82.240817 269.934489 
L 88.252942 269.934489 
L 88.252942 269.624515 
L 90.638896 269.624515 
L 90.638896 269.211218 
L 92.743457 269.211218 
L 92.743457 268.79792 
L 100.638176 268.694596 
L 100.638176 268.591271 
L 104.107378 268.591271 
L 104.107378 268.384623 
L 113.02341 268.281298 
L 113.02341 268.177974 
L 118.944138 268.074649 
L 118.944138 267.764676 
L 120.268307 267.661352 
L 120.268307 267.454703 
L 121.50108 267.351378 
L 121.50108 266.834756 
L 124.084474 266.834756 
L 124.084474 266.628108 
L 125.086687 266.628108 
L 125.086687 266.421459 
L 129.138699 266.318134 
L 129.138699 266.21481 
L 139.174935 266.21481 
L 139.174935 265.904837 
L 140.729664 265.801512 
L 140.729664 265.698188 
L 142.894286 265.698188 
L 142.894286 265.491539 
L 145.355034 265.388215 
L 145.355034 265.28489 
L 147.701761 265.28489 
L 147.701761 265.078242 
L 154.229968 264.974917 
L 154.229968 264.871593 
L 157.47711 264.768268 
L 157.47711 264.56162 
L 158.60708 264.56162 
L 158.60708 264.354971 
L 161.53834 264.251646 
L 161.53834 264.148322 
L 165.934738 264.044998 
L 165.934738 263.941673 
L 174.98942 263.838349 
L 174.98942 263.735024 
L 187.454068 263.6317 
L 187.454068 263.321727 
L 193.205361 263.218402 
L 193.205361 263.115078 
L 193.679983 263.011754 
L 193.679983 262.908429 
L 195.843479 262.805105 
L 195.843479 262.70178 
L 203.04083 262.598456 
L 203.04083 262.288483 
L 203.234357 262.288483 
L 203.234357 262.081834 
L 204.257035 261.97851 
L 204.257035 261.771861 
L 210.149974 261.668536 
L 210.149974 261.461888 
L 212.536276 261.358563 
L 212.536276 261.255239 
L 219.843521 261.151914 
L 219.843521 261.04859 
L 220.111471 261.04859 
L 220.111471 260.531968 
L 222.969295 260.428643 
L 222.969295 260.325319 
L 223.14217 260.325319 
L 223.14217 259.912021 
L 226.472792 259.808697 
L 226.472792 259.705373 
L 229.42716 259.602048 
L 229.42716 259.498724 
L 232.615747 259.498724 
L 232.615747 259.292075 
L 241.823264 259.188751 
L 241.823264 259.085426 
L 242.792004 258.982102 
L 242.792004 258.878777 
L 247.25241 258.878777 
L 247.25241 258.672129 
L 249.214497 258.568804 
L 249.214497 258.362155 
L 252.481349 258.362155 
L 252.481349 258.155507 
L 258.08808 258.052182 
L 258.08808 257.948858 
L 258.453171 257.845533 
L 258.545329 255.159099 
L 258.810403 255.055775 
L 258.810403 254.849126 
L 258.960593 254.745801 
L 258.989359 254.435828 
L 259.244589 254.332504 
L 259.300282 254.125855 
L 260.461434 254.022531 
L 260.461434 253.919206 
L 268.104843 253.815882 
L 268.104843 253.712557 
L 270.837287 253.609233 
L 270.912577 252.266016 
L 271.664096 252.162691 
L 271.773682 251.749394 
L 271.847513 251.646069 
L 271.847513 251.542745 
L 272.848916 251.43942 
L 272.848916 251.336096 
L 274.132513 251.232772 
L 274.236317 251.026123 
L 276.466281 250.922798 
L 276.466281 250.819474 
L 278.09187 250.71615 
L 278.140709 249.682906 
L 278.31183 249.579581 
L 278.315999 249.372932 
L 279.225654 249.269608 
L 279.225654 249.166284 
L 281.818022 249.062959 
L 281.818022 248.959635 
L 283.238768 248.85631 
L 283.33381 248.029715 
L 284.953643 247.926391 
L 284.96387 247.719742 
L 286.260717 247.616418 
L 286.260717 247.513093 
L 287.207068 247.409769 
L 287.249647 246.686498 
L 290.291063 246.583173 
L 290.291063 246.479849 
L 290.475273 246.376525 
L 290.500115 246.169876 
L 291.163222 246.066551 
L 291.163222 245.963227 
L 293.068814 245.859903 
L 293.075469 245.653254 
L 293.240713 245.549929 
L 293.242654 245.343281 
L 293.531018 245.239956 
L 293.531018 245.136632 
L 293.840091 245.033307 
L 293.840091 244.929983 
L 295.625212 244.826659 
L 295.628701 244.516685 
L 297.204516 244.413361 
L 297.204516 244.310037 
L 297.729592 244.206712 
L 297.729592 244.103388 
L 298.476772 244.000063 
L 298.476772 243.896739 
L 299.61513 243.793415 
L 299.681606 243.586766 
L 301.313109 243.483441 
L 301.345653 243.276793 
L 301.632155 243.173468 
L 301.632155 243.070144 
L 303.145072 242.966819 
L 303.145072 242.863495 
L 305.753987 242.760171 
L 305.769553 242.553522 
L 306.769873 242.450197 
L 306.769873 242.346873 
L 306.949532 242.243549 
L 306.949532 242.140224 
L 309.012433 242.0369 
L 309.093193 241.830251 
L 312.802844 241.726927 
L 312.865766 241.520278 
L 313.028691 241.416953 
L 313.028691 241.313629 
L 313.781209 241.210305 
L 313.781478 241.003656 
L 320.346823 240.900331 
L 320.346823 240.797007 
L 328.071238 240.693683 
L 328.071238 240.590358 
L 333.354326 240.487034 
L 333.354326 240.383709 
L 361.113325 240.383709 
L 361.113325 240.383709 
" style="fill:none;stroke:#008000;stroke-linecap:square;stroke-width:1.5;"/>
   </g>
   <g id="line2d_48">
    <defs>
     <path d="M -0 6 
L 6 -6 
L -6 -6 
z
" id="mb3c80c78d3" style="stroke:#008000;stroke-linejoin:miter;stroke-width:1.5;"/>
    </defs>
    <g>
     <use style="fill:none;stroke:#008000;stroke-linejoin:miter;stroke-width:1.5;" x="53.483194" xlink:href="#mb3c80c78d3" y="274.377438"/>
     <use style="fill:none;stroke:#008000;stroke-linejoin:miter;stroke-width:1.5;" x="150.258703" xlink:href="#mb3c80c78d3" y="264.974917"/>
     <use style="fill:none;stroke:#008000;stroke-linejoin:miter;stroke-width:1.5;" x="229.42716" xlink:href="#mb3c80c78d3" y="259.602048"/>
     <use style="fill:none;stroke:#008000;stroke-linejoin:miter;stroke-width:1.5;" x="295.84615" xlink:href="#mb3c80c78d3" y="244.413361"/>
     <use style="fill:none;stroke:#008000;stroke-linejoin:miter;stroke-width:1.5;" x="333.354326" xlink:href="#mb3c80c78d3" y="240.383709"/>
     <use style="fill:none;stroke:#008000;stroke-linejoin:miter;stroke-width:1.5;" x="361.113325" xlink:href="#mb3c80c78d3" y="240.383709"/>
    </g>
   </g>
   <g id="line2d_49"/>
   <g id="line2d_50">
    <path clip-path="url(#p1648dbbc6e)" d="M 258.467323 257.53556 
" style="fill:none;stroke:#008000;stroke-linecap:square;stroke-width:1.5;"/>
    <defs>
     <path d="M -12 12 
L 12 -12 
M -12 -12 
L 12 12 
" id="mbef4112b44" style="stroke:#008000;stroke-width:3;"/>
    </defs>
    <g clip-path="url(#p1648dbbc6e)">
     <use style="fill:#008000;stroke:#008000;stroke-width:3;" x="258.467323" xlink:href="#mbef4112b44" y="257.53556"/>
    </g>
   </g>
   <g id="line2d_51">
    <defs>
     <path d="M 0 1.5 
C 0.397805 1.5 0.77937 1.341951 1.06066 1.06066 
C 1.341951 0.77937 1.5 0.397805 1.5 0 
C 1.5 -0.397805 1.341951 -0.77937 1.06066 -1.06066 
C 0.77937 -1.341951 0.397805 -1.5 0 -1.5 
C -0.397805 -1.5 -0.77937 -1.341951 -1.06066 -1.06066 
C -1.341951 -0.77937 -1.5 -0.397805 -1.5 0 
C -1.5 0.397805 -1.341951 0.77937 -1.06066 1.06066 
C -0.77937 1.341951 -0.397805 1.5 0 1.5 
z
" id="mfd39aa9eb8" style="stroke:#0000ff;"/>
    </defs>
    <g>
     <use style="fill:#0000ff;stroke:#0000ff;" x="317.785758" xlink:href="#mfd39aa9eb8" y="247.616418"/>
     <use style="fill:#0000ff;stroke:#0000ff;" x="317.785758" xlink:href="#mfd39aa9eb8" y="247.616418"/>
    </g>
   </g>
   <g id="line2d_52">
    <path d="M 44.355702 298.245375 
L 44.355702 276.030628 
L 56.740936 276.030628 
L 56.740936 274.480762 
L 63.985834 274.480762 
L 63.985834 273.96414 
L 69.126171 273.96414 
L 69.126171 273.034221 
L 73.113325 273.034221 
L 73.113325 272.724247 
L 76.371068 272.724247 
L 76.371068 272.207625 
L 79.12545 272.207625 
L 79.12545 272.000977 
L 83.615966 271.897652 
L 83.615966 271.38103 
L 85.498559 271.38103 
L 85.498559 271.174381 
L 90.186515 271.071057 
L 90.186515 270.967733 
L 101.870948 270.864408 
L 101.870948 270.761084 
L 106.831704 270.657759 
L 106.831704 270.554435 
L 109.816646 270.451111 
L 109.816646 270.244462 
L 113.52677 270.141137 
L 113.52677 270.037813 
L 114.610018 270.037813 
L 114.610018 269.831164 
L 118.385713 269.72784 
L 118.385713 269.624515 
L 123.312058 269.624515 
L 123.312058 269.314542 
L 132.135589 269.211218 
L 132.135589 269.107893 
L 135.697292 269.004569 
L 135.697292 268.901245 
L 137.243049 268.901245 
L 137.243049 268.694596 
L 138.665666 268.694596 
L 138.665666 268.487947 
L 141.601452 268.384623 
L 141.601452 268.281298 
L 142.652821 268.281298 
L 142.652821 268.074649 
L 158.356471 267.971325 
L 158.356471 267.868001 
L 164.194695 267.764676 
L 164.194695 267.661352 
L 178.484354 267.558027 
L 178.484354 267.454703 
L 186.302471 267.351378 
L 186.302471 267.248054 
L 190.153465 267.14473 
L 190.153465 267.041405 
L 197.70401 266.938081 
L 197.70401 266.834756 
L 201.282006 266.834756 
L 201.282006 266.524783 
L 209.844807 266.421459 
L 209.844807 266.318134 
L 211.039631 266.318134 
L 211.039631 266.111486 
L 213.537949 266.008161 
L 213.537949 265.904837 
L 215.967162 265.801512 
L 215.967162 265.698188 
L 218.318893 265.594864 
L 218.318893 265.388215 
L 224.935618 265.28489 
L 224.935618 265.181566 
L 232.812561 265.078242 
L 232.812561 264.974917 
L 237.119124 264.871593 
L 237.119124 264.768268 
L 239.356227 264.664944 
L 239.418279 264.458295 
L 242.010322 264.458295 
L 242.08339 264.148322 
L 247.510434 264.044998 
L 247.510434 263.838349 
L 248.299216 263.735024 
L 248.299216 263.6317 
L 249.315804 263.528376 
L 249.422655 261.255239 
L 249.487937 261.151914 
L 249.487937 261.04859 
L 249.857167 260.945266 
L 249.857167 260.841941 
L 249.970903 260.738617 
L 249.991913 260.325319 
L 250.28719 260.221995 
L 250.28719 260.11867 
L 251.598507 260.015346 
L 251.598507 259.912021 
L 253.398171 259.808697 
L 253.398171 259.705373 
L 255.31144 259.602048 
L 255.31144 259.498724 
L 257.444376 259.395399 
L 257.444376 259.292075 
L 260.815662 259.188751 
L 260.815662 259.085426 
L 261.21578 258.982102 
L 261.21578 258.878777 
L 261.716408 258.775453 
L 261.744506 258.155507 
L 262.048598 258.052182 
L 262.048598 257.948858 
L 262.895299 257.845533 
L 262.900616 257.638885 
L 263.866649 257.638885 
L 263.866649 257.432236 
L 266.582839 257.328911 
L 266.582839 257.225587 
L 268.964999 257.122263 
L 268.988753 256.605641 
L 269.146965 256.502316 
L 269.190714 256.295667 
L 269.746516 256.192343 
L 269.758631 255.985694 
L 272.341423 255.88237 
L 272.343477 255.675721 
L 274.103877 255.572397 
L 274.185155 255.159099 
L 274.269754 255.055775 
L 274.358958 254.849126 
L 274.69509 254.745801 
L 274.701034 254.539153 
L 278.088071 254.435828 
L 278.108247 253.712557 
L 278.495047 253.609233 
L 278.564233 253.402584 
L 280.188592 253.29926 
L 280.188592 253.195935 
L 281.346509 253.092611 
L 281.406713 252.679313 
L 281.465204 252.575989 
L 281.476762 252.266016 
L 281.756976 252.162691 
L 281.756976 252.059367 
L 284.11261 251.956042 
L 284.198383 251.542745 
L 284.795777 251.43942 
L 284.795777 251.336096 
L 286.495929 251.232772 
L 286.495929 251.129447 
L 286.876121 251.026123 
L 286.876121 250.922798 
L 289.093707 250.819474 
L 289.093707 250.71615 
L 290.479524 250.612825 
L 290.576681 249.992879 
L 292.188511 249.889554 
L 292.279369 249.682906 
L 294.115771 249.579581 
L 294.115771 249.476257 
L 295.300479 249.372932 
L 295.300479 249.269608 
L 296.66852 249.166284 
L 296.715542 248.959635 
L 298.985348 248.85631 
L 298.985348 248.752986 
L 301.082114 248.649662 
L 301.082114 248.546337 
L 302.077776 248.443013 
L 302.077776 248.339688 
L 306.193831 248.236364 
L 306.193831 248.13304 
L 309.584309 248.029715 
L 309.584309 247.926391 
L 314.37904 247.823066 
L 314.37904 247.719742 
L 361.113325 247.616418 
L 361.113325 247.616418 
" style="fill:none;stroke:#0000ff;stroke-linecap:square;stroke-width:1.5;"/>
   </g>
   <g id="line2d_53">
    <defs>
     <path d="M 0 -6 
L -1.347084 -1.854102 
L -5.706339 -1.854102 
L -2.179628 0.708204 
L -3.526712 4.854102 
L -0 2.291796 
L 3.526712 4.854102 
L 2.179628 0.708204 
L 5.706339 -1.854102 
L 1.347084 -1.854102 
z
" id="m5ab4c85696" style="stroke:#0000ff;stroke-linejoin:bevel;stroke-width:1.5;"/>
    </defs>
    <g>
     <use style="fill:none;stroke:#0000ff;stroke-linejoin:bevel;stroke-width:1.5;" x="56.740936" xlink:href="#m5ab4c85696" y="276.030628"/>
     <use style="fill:none;stroke:#0000ff;stroke-linejoin:bevel;stroke-width:1.5;" x="142.652821" xlink:href="#m5ab4c85696" y="268.074649"/>
     <use style="fill:none;stroke:#0000ff;stroke-linejoin:bevel;stroke-width:1.5;" x="249.422655" xlink:href="#m5ab4c85696" y="261.255239"/>
     <use style="fill:none;stroke:#0000ff;stroke-linejoin:bevel;stroke-width:1.5;" x="310.116418" xlink:href="#m5ab4c85696" y="247.823066"/>
     <use style="fill:none;stroke:#0000ff;stroke-linejoin:bevel;stroke-width:1.5;" x="317.785758" xlink:href="#m5ab4c85696" y="247.616418"/>
     <use style="fill:none;stroke:#0000ff;stroke-linejoin:bevel;stroke-width:1.5;" x="361.113325" xlink:href="#m5ab4c85696" y="247.616418"/>
    </g>
   </g>
   <g id="line2d_54"/>
   <g id="line2d_55">
    <path clip-path="url(#p1648dbbc6e)" d="M 249.34039 262.70178 
" style="fill:none;stroke:#0000ff;stroke-linecap:square;stroke-width:1.5;"/>
    <defs>
     <path d="M -12 12 
L 12 -12 
M -12 -12 
L 12 12 
" id="mcfdf8e1b78" style="stroke:#0000ff;stroke-width:3;"/>
    </defs>
    <g clip-path="url(#p1648dbbc6e)">
     <use style="fill:#0000ff;stroke:#0000ff;stroke-width:3;" x="249.34039" xlink:href="#mcfdf8e1b78" y="262.70178"/>
    </g>
   </g>
   <g id="line2d_56">
    <defs>
     <path d="M 0 1.5 
C 0.397805 1.5 0.77937 1.341951 1.06066 1.06066 
C 1.341951 0.77937 1.5 0.397805 1.5 0 
C 1.5 -0.397805 1.341951 -0.77937 1.06066 -1.06066 
C 0.77937 -1.341951 0.397805 -1.5 0 -1.5 
C -0.397805 -1.5 -0.77937 -1.341951 -1.06066 -1.06066 
C -1.341951 -0.77937 -1.5 -0.397805 -1.5 0 
C -1.5 0.397805 -1.341951 0.77937 -1.06066 1.06066 
C -0.77937 1.341951 -0.397805 1.5 0 1.5 
z
" id="m047e8b96fc" style="stroke:#000000;"/>
    </defs>
    <g>
     <use style="stroke:#000000;" x="290.48321" xlink:href="#m047e8b96fc" y="263.115078"/>
     <use style="stroke:#000000;" x="290.48321" xlink:href="#m047e8b96fc" y="263.115078"/>
    </g>
   </g>
   <g id="line2d_57">
    <path d="M 31.970468 298.245375 
L 31.970468 277.270521 
L 44.355702 277.270521 
L 44.355702 276.133953 
L 56.740936 276.133953 
L 56.740936 275.82398 
L 60.728091 275.82398 
L 60.728091 275.514006 
L 63.985834 275.514006 
L 63.985834 275.307358 
L 66.740216 275.307358 
L 66.740216 275.100709 
L 71.230731 274.997384 
L 71.230731 274.790736 
L 74.816339 274.687411 
L 74.816339 274.480762 
L 79.12545 274.480762 
L 79.12545 274.274113 
L 84.582045 274.170789 
L 84.582045 274.067465 
L 87.201573 274.067465 
L 87.201573 273.860816 
L 94.44647 273.757491 
L 94.44647 273.654167 
L 115.796016 273.550843 
L 115.796016 273.344194 
L 117.662209 273.344194 
L 117.662209 273.137545 
L 118.667107 273.034221 
L 118.667107 272.930896 
L 124.153066 272.827572 
L 124.153066 272.724247 
L 127.850349 272.620923 
L 127.850349 272.31095 
L 138.84707 272.207625 
L 138.84707 272.104301 
L 142.761884 272.000977 
L 142.761884 271.794328 
L 151.209729 271.794328 
L 151.209729 271.587679 
L 163.974913 271.484355 
L 163.974913 271.38103 
L 177.469392 271.277706 
L 177.469392 271.174381 
L 177.711938 271.174381 
L 177.711938 270.967733 
L 189.095747 270.864408 
L 189.095747 270.761084 
L 193.42653 270.657759 
L 193.42653 270.451111 
L 200.219046 270.347786 
L 200.219046 270.037813 
L 210.325427 269.934489 
L 210.325427 269.831164 
L 217.517925 269.72784 
L 217.517925 269.624515 
L 221.195843 269.624515 
L 221.195843 269.417867 
L 227.986899 269.314542 
L 227.986899 269.107893 
L 230.427881 269.107893 
L 230.427881 268.901245 
L 235.717184 268.901245 
L 235.717184 268.694596 
L 236.946033 268.591271 
L 236.996057 267.971325 
L 237.245746 267.868001 
L 237.245746 267.764676 
L 238.090716 267.661352 
L 238.140079 267.454703 
L 238.461846 267.351378 
L 238.461846 267.248054 
L 243.14684 267.14473 
L 243.14684 267.041405 
L 249.337505 266.938081 
L 249.409774 266.318134 
L 250.431792 266.21481 
L 250.448857 266.008161 
L 251.724855 265.904837 
L 251.724855 265.801512 
L 253.627984 265.698188 
L 253.627984 265.594864 
L 256.585908 265.491539 
L 256.617582 265.28489 
L 257.328103 265.181566 
L 257.328103 265.078242 
L 260.274689 264.974917 
L 260.274689 264.871593 
L 261.761232 264.768268 
L 261.761232 264.664944 
L 265.707231 264.56162 
L 265.724092 264.354971 
L 269.78989 264.251646 
L 269.78989 264.148322 
L 274.100525 264.044998 
L 274.10909 263.735024 
L 276.4722 263.6317 
L 276.4722 263.528376 
L 284.114564 263.425051 
L 284.114564 263.321727 
L 290.48321 263.218402 
L 290.48321 263.115078 
L 361.113325 263.115078 
L 361.113325 263.115078 
" style="fill:none;stroke:#000000;stroke-linecap:square;stroke-width:1.5;"/>
   </g>
   <g id="line2d_58">
    <defs>
     <path d="M 0 6 
C 1.591219 6 3.117479 5.367802 4.242641 4.242641 
C 5.367802 3.117479 6 1.591219 6 0 
C 6 -1.591219 5.367802 -3.117479 4.242641 -4.242641 
C 3.117479 -5.367802 1.591219 -6 0 -6 
C -1.591219 -6 -3.117479 -5.367802 -4.242641 -4.242641 
C -5.367802 -3.117479 -6 -1.591219 -6 0 
C -6 1.591219 -5.367802 3.117479 -4.242641 4.242641 
C -3.117479 5.367802 -1.591219 6 0 6 
z
" id="m840234a590" style="stroke:#000000;stroke-width:1.5;"/>
    </defs>
    <g>
     <use style="fill:none;stroke:#000000;stroke-width:1.5;" x="66.740216" xlink:href="#m840234a590" y="275.100709"/>
     <use style="fill:none;stroke:#000000;stroke-width:1.5;" x="153.155461" xlink:href="#m840234a590" y="271.484355"/>
     <use style="fill:none;stroke:#000000;stroke-width:1.5;" x="217.517925" xlink:href="#m840234a590" y="269.72784"/>
     <use style="fill:none;stroke:#000000;stroke-width:1.5;" x="290.48321" xlink:href="#m840234a590" y="263.218402"/>
     <use style="fill:none;stroke:#000000;stroke-width:1.5;" x="290.48321" xlink:href="#m840234a590" y="263.115078"/>
     <use style="fill:none;stroke:#000000;stroke-width:1.5;" x="361.113325" xlink:href="#m840234a590" y="263.115078"/>
    </g>
   </g>
   <g id="line2d_59"/>
   <g id="line2d_60">
    <path clip-path="url(#p1648dbbc6e)" d="M 236.955342 268.281298 
" style="fill:none;stroke:#000000;stroke-linecap:square;stroke-width:1.5;"/>
    <defs>
     <path d="M -12 12 
L 12 -12 
M -12 -12 
L 12 12 
" id="m0485d84af2" style="stroke:#000000;stroke-width:3;"/>
    </defs>
    <g clip-path="url(#p1648dbbc6e)">
     <use style="stroke:#000000;stroke-width:3;" x="236.955342" xlink:href="#m0485d84af2" y="268.281298"/>
    </g>
   </g>
   <g id="line2d_61">
    <defs>
     <path d="M 0 1.5 
C 0.397805 1.5 0.77937 1.341951 1.06066 1.06066 
C 1.341951 0.77937 1.5 0.397805 1.5 0 
C 1.5 -0.397805 1.341951 -0.77937 1.06066 -1.06066 
C 0.77937 -1.341951 0.397805 -1.5 0 -1.5 
C -0.397805 -1.5 -0.77937 -1.341951 -1.06066 -1.06066 
C -1.341951 -0.77937 -1.5 -0.397805 -1.5 0 
C -1.5 0.397805 -1.341951 0.77937 -1.06066 1.06066 
C -0.77937 1.341951 -0.397805 1.5 0 1.5 
z
" id="m47336cc376" style="stroke:#ff0000;"/>
    </defs>
    <g>
     <use style="fill:#ff0000;stroke:#ff0000;" x="283.463818" xlink:href="#m47336cc376" y="267.248054"/>
     <use style="fill:#ff0000;stroke:#ff0000;" x="283.463818" xlink:href="#m47336cc376" y="267.248054"/>
    </g>
   </g>
   <g id="line2d_62">
    <path d="M 19.585234 298.245375 
L 19.585234 275.927304 
L 31.970468 275.927304 
L 31.970468 275.514006 
L 39.215366 275.514006 
L 39.215366 275.204033 
L 48.342857 275.100709 
L 48.342857 274.790736 
L 58.845497 274.687411 
L 58.845497 274.480762 
L 63.985834 274.377438 
L 63.985834 274.274113 
L 72.196811 274.274113 
L 72.196811 274.067465 
L 86.790793 273.96414 
L 86.790793 273.860816 
L 108.386434 273.757491 
L 108.386434 273.654167 
L 110.269028 273.550843 
L 110.269028 273.447518 
L 119.684542 273.344194 
L 119.684542 273.137545 
L 127.640381 273.034221 
L 127.640381 272.930896 
L 136.33173 272.827572 
L 136.33173 272.620923 
L 141.697881 272.517599 
L 141.697881 272.414274 
L 150.151171 272.31095 
L 150.151171 272.104301 
L 178.732966 272.000977 
L 178.732966 271.897652 
L 198.136561 271.794328 
L 198.136561 271.484355 
L 206.502847 271.38103 
L 206.502847 271.277706 
L 213.387543 271.277706 
L 213.387543 271.071057 
L 217.78194 270.967733 
L 217.78194 270.864408 
L 222.119584 270.864408 
L 222.119584 270.657759 
L 224.570852 270.554435 
L 224.663485 270.347786 
L 224.845672 270.244462 
L 224.845672 270.141137 
L 225.405165 270.037813 
L 225.405165 269.934489 
L 235.769272 269.831164 
L 235.769272 269.72784 
L 237.095687 269.624515 
L 237.095687 269.521191 
L 239.653639 269.417867 
L 239.653639 269.314542 
L 245.508914 269.211218 
L 245.513296 269.004569 
L 253.386895 268.901245 
L 253.394796 268.694596 
L 255.307475 268.591271 
L 255.307475 268.487947 
L 257.252267 268.384623 
L 257.252267 268.281298 
L 266.126698 268.177974 
L 266.126698 268.074649 
L 268.985808 267.971325 
L 268.985808 267.868001 
L 272.453889 267.764676 
L 272.453889 267.661352 
L 278.978529 267.558027 
L 278.978529 267.454703 
L 283.463818 267.351378 
L 283.463818 267.248054 
L 361.113325 267.248054 
L 361.113325 267.248054 
" style="fill:none;stroke:#ff0000;stroke-linecap:square;stroke-width:1.5;"/>
   </g>
   <g id="line2d_63">
    <defs>
     <path d="M -6 6 
L 6 6 
L 6 -6 
L -6 -6 
z
" id="m90ed72d857" style="stroke:#ff0000;stroke-linejoin:miter;stroke-width:1.5;"/>
    </defs>
    <g>
     <use style="fill:none;stroke:#ff0000;stroke-linejoin:miter;stroke-width:1.5;" x="56.740936" xlink:href="#m90ed72d857" y="274.790736"/>
     <use style="fill:none;stroke:#ff0000;stroke-linejoin:miter;stroke-width:1.5;" x="127.640381" xlink:href="#m90ed72d857" y="273.034221"/>
     <use style="fill:none;stroke:#ff0000;stroke-linejoin:miter;stroke-width:1.5;" x="217.78194" xlink:href="#m90ed72d857" y="270.864408"/>
     <use style="fill:none;stroke:#ff0000;stroke-linejoin:miter;stroke-width:1.5;" x="283.463818" xlink:href="#m90ed72d857" y="267.351378"/>
     <use style="fill:none;stroke:#ff0000;stroke-linejoin:miter;stroke-width:1.5;" x="283.463818" xlink:href="#m90ed72d857" y="267.248054"/>
     <use style="fill:none;stroke:#ff0000;stroke-linejoin:miter;stroke-width:1.5;" x="361.113325" xlink:href="#m90ed72d857" y="267.248054"/>
    </g>
   </g>
   <g id="line2d_64"/>
   <g id="line2d_65">
    <path clip-path="url(#p1648dbbc6e)" d="M 224.567688 270.657759 
" style="fill:none;stroke:#ff0000;stroke-linecap:square;stroke-width:1.5;"/>
    <defs>
     <path d="M -12 12 
L 12 -12 
M -12 -12 
L 12 12 
" id="m7e9f41a551" style="stroke:#ff0000;stroke-width:3;"/>
    </defs>
    <g clip-path="url(#p1648dbbc6e)">
     <use style="fill:#ff0000;stroke:#ff0000;stroke-width:3;" x="224.567688" xlink:href="#m7e9f41a551" y="270.657759"/>
    </g>
   </g>
   <g id="line2d_66">
    <defs>
     <path d="M 0 1.5 
C 0.397805 1.5 0.77937 1.341951 1.06066 1.06066 
C 1.341951 0.77937 1.5 0.397805 1.5 0 
C 1.5 -0.397805 1.341951 -0.77937 1.06066 -1.06066 
C 0.77937 -1.341951 0.397805 -1.5 0 -1.5 
C -0.397805 -1.5 -0.77937 -1.341951 -1.06066 -1.06066 
C -1.341951 -0.77937 -1.5 -0.397805 -1.5 0 
C -1.5 0.397805 -1.341951 0.77937 -1.06066 1.06066 
C -0.77937 1.341951 -0.397805 1.5 0 1.5 
z
" id="m504d661f76" style="stroke:#bf00bf;"/>
    </defs>
    <g>
     <use style="fill:#bf00bf;stroke:#bf00bf;" x="267.848016" xlink:href="#m504d661f76" y="270.347786"/>
     <use style="fill:#bf00bf;stroke:#bf00bf;" x="267.848016" xlink:href="#m504d661f76" y="270.347786"/>
    </g>
   </g>
   <g id="line2d_67">
    <path d="M 7.2 298.245375 
L 7.2 277.890468 
L 19.585234 277.890468 
L 19.585234 277.270521 
L 26.830132 277.270521 
L 26.830132 277.063872 
L 31.970468 277.063872 
L 31.970468 276.960548 
L 39.215366 276.960548 
L 39.215366 276.753899 
L 44.355702 276.753899 
L 44.355702 276.650575 
L 50.04587 276.650575 
L 50.04587 276.54725 
L 51.6006 276.54725 
L 51.6006 276.443926 
L 53.030812 276.443926 
L 53.030812 276.340602 
L 68.558881 276.340602 
L 68.558881 276.237277 
L 70.727371 276.237277 
L 70.727371 276.133953 
L 78.141636 276.133953 
L 78.141636 276.030628 
L 85.720526 276.030628 
L 85.720526 275.927304 
L 86.370348 275.927304 
L 86.370348 275.720655 
L 95.625015 275.720655 
L 95.625015 275.617331 
L 101.04823 275.617331 
L 101.04823 275.514006 
L 101.870948 275.514006 
L 101.870948 275.410682 
L 126.234792 275.410682 
L 126.234792 275.307358 
L 148.949188 275.307358 
L 148.949188 275.100709 
L 153.271571 275.100709 
L 153.271571 274.997384 
L 173.55871 274.997384 
L 173.55871 274.89406 
L 176.924715 274.89406 
L 176.924715 274.790736 
L 180.144922 274.790736 
L 180.144922 274.584087 
L 184.029347 274.584087 
L 184.029347 274.480762 
L 185.47879 274.480762 
L 185.47879 274.377438 
L 186.509642 274.377438 
L 186.509642 274.274113 
L 196.586511 274.274113 
L 196.586511 274.067465 
L 200.645529 274.067465 
L 200.645529 273.96414 
L 201.395394 273.96414 
L 201.395394 273.860816 
L 210.727342 273.860816 
L 210.727342 273.757491 
L 211.295963 273.757491 
L 211.295963 273.654167 
L 212.187851 273.654167 
L 212.187851 273.550843 
L 212.191015 273.550843 
L 212.191015 273.447518 
L 212.191759 273.447518 
L 212.191759 273.344194 
L 212.310993 273.344194 
L 212.310993 273.240869 
L 215.541455 273.240869 
L 215.541455 273.137545 
L 215.545002 273.137545 
L 215.545002 273.034221 
L 215.803445 273.034221 
L 215.803445 272.930896 
L 219.702647 272.930896 
L 219.702647 272.827572 
L 220.537993 272.827572 
L 220.537993 272.724247 
L 224.574853 272.724247 
L 224.574853 272.620923 
L 226.335786 272.620923 
L 226.335786 272.517599 
L 227.32449 272.517599 
L 227.32449 272.414274 
L 227.326723 272.414274 
L 227.326723 272.31095 
L 228.890211 272.31095 
L 228.890211 272.207625 
L 231.527497 272.207625 
L 231.527497 272.104301 
L 233.708205 272.104301 
L 233.708205 272.000977 
L 238.391652 272.000977 
L 238.391652 271.897652 
L 239.155563 271.897652 
L 239.155563 271.794328 
L 240.760547 271.794328 
L 240.760547 271.691003 
L 241.664724 271.691003 
L 241.664724 271.587679 
L 244.279817 271.587679 
L 244.279817 271.484355 
L 250.520196 271.484355 
L 250.520196 271.38103 
L 252.094998 271.38103 
L 252.094998 271.277706 
L 255.080675 271.277706 
L 255.080675 271.174381 
L 257.347852 271.174381 
L 257.347852 271.071057 
L 259.994192 271.071057 
L 259.994192 270.967733 
L 261.184931 270.967733 
L 261.184931 270.864408 
L 261.752731 270.864408 
L 261.752731 270.761084 
L 262.094568 270.761084 
L 262.094568 270.657759 
L 263.778708 270.657759 
L 263.778708 270.554435 
L 266.603383 270.554435 
L 266.603383 270.451111 
L 267.848016 270.451111 
L 267.848016 270.347786 
L 361.113325 270.347786 
" style="fill:none;stroke:#bf00bf;stroke-linecap:square;stroke-width:1.5;"/>
   </g>
   <g id="line2d_68">
    <defs>
     <path d="M -0 8.485281 
L 8.485281 0 
L 0 -8.485281 
L -8.485281 -0 
z
" id="mba80480559" style="stroke:#bf00bf;stroke-linejoin:miter;stroke-width:1.5;"/>
    </defs>
    <g>
     <use style="fill:none;stroke:#bf00bf;stroke-linejoin:miter;stroke-width:1.5;" x="86.370348" xlink:href="#mba80480559" y="275.720655"/>
     <use style="fill:none;stroke:#bf00bf;stroke-linejoin:miter;stroke-width:1.5;" x="186.509642" xlink:href="#mba80480559" y="274.274113"/>
     <use style="fill:none;stroke:#bf00bf;stroke-linejoin:miter;stroke-width:1.5;" x="262.094568" xlink:href="#mba80480559" y="270.761084"/>
     <use style="fill:none;stroke:#bf00bf;stroke-linejoin:miter;stroke-width:1.5;" x="267.848016" xlink:href="#mba80480559" y="270.347786"/>
     <use style="fill:none;stroke:#bf00bf;stroke-linejoin:miter;stroke-width:1.5;" x="267.848016" xlink:href="#mba80480559" y="270.347786"/>
     <use style="fill:none;stroke:#bf00bf;stroke-linejoin:miter;stroke-width:1.5;" x="361.113325" xlink:href="#mba80480559" y="270.347786"/>
    </g>
   </g>
   <g id="line2d_69"/>
   <g id="line2d_70">
    <path clip-path="url(#p1648dbbc6e)" d="M 212.183943 273.654167 
" style="fill:none;stroke:#bf00bf;stroke-linecap:square;stroke-width:1.5;"/>
    <defs>
     <path d="M -12 12 
L 12 -12 
M -12 -12 
L 12 12 
" id="m8afc0e45c5" style="stroke:#bf00bf;stroke-width:3;"/>
    </defs>
    <g clip-path="url(#p1648dbbc6e)">
     <use style="fill:#bf00bf;stroke:#bf00bf;stroke-width:3;" x="212.183943" xlink:href="#m8afc0e45c5" y="273.654167"/>
    </g>
   </g>
   <g id="line2d_71">
    <path d="M 361.113325 270.347786 
L 392.793325 292.97583 
" style="fill:none;stroke:#bf00bf;stroke-linecap:square;stroke-width:1.5;"/>
    <g>
     <use style="fill:none;stroke:#bf00bf;stroke-linejoin:miter;stroke-width:1.5;" x="361.113325" xlink:href="#mba80480559" y="270.347786"/>
     <use style="fill:none;stroke:#bf00bf;stroke-linejoin:miter;stroke-width:1.5;" x="392.793325" xlink:href="#mba80480559" y="292.97583"/>
    </g>
   </g>
   <g id="line2d_72">
    <path d="M 361.113325 267.248054 
L 392.793325 242.388203 
" style="fill:none;stroke:#ff0000;stroke-linecap:square;stroke-width:1.5;"/>
    <g>
     <use style="fill:none;stroke:#ff0000;stroke-linejoin:miter;stroke-width:1.5;" x="361.113325" xlink:href="#m90ed72d857" y="267.248054"/>
     <use style="fill:none;stroke:#ff0000;stroke-linejoin:miter;stroke-width:1.5;" x="392.793325" xlink:href="#m90ed72d857" y="242.388203"/>
    </g>
   </g>
   <g id="line2d_73">
    <path d="M 361.113325 263.115078 
L 392.793325 191.800575 
" style="fill:none;stroke:#000000;stroke-linecap:square;stroke-width:1.5;"/>
    <g>
     <use style="fill:none;stroke:#000000;stroke-width:1.5;" x="361.113325" xlink:href="#m840234a590" y="263.115078"/>
     <use style="fill:none;stroke:#000000;stroke-width:1.5;" x="392.793325" xlink:href="#m840234a590" y="191.800575"/>
    </g>
   </g>
   <g id="line2d_74">
    <path d="M 361.113325 247.616418 
L 392.793325 141.212947 
" style="fill:none;stroke:#0000ff;stroke-linecap:square;stroke-width:1.5;"/>
    <g>
     <use style="fill:none;stroke:#0000ff;stroke-linejoin:bevel;stroke-width:1.5;" x="361.113325" xlink:href="#m5ab4c85696" y="247.616418"/>
     <use style="fill:none;stroke:#0000ff;stroke-linejoin:bevel;stroke-width:1.5;" x="392.793325" xlink:href="#m5ab4c85696" y="141.212947"/>
    </g>
   </g>
   <g id="line2d_75">
    <path d="M 361.113325 240.383709 
L 392.793325 90.62532 
" style="fill:none;stroke:#008000;stroke-linecap:square;stroke-width:1.5;"/>
    <g>
     <use style="fill:none;stroke:#008000;stroke-linejoin:miter;stroke-width:1.5;" x="361.113325" xlink:href="#mb3c80c78d3" y="240.383709"/>
     <use style="fill:none;stroke:#008000;stroke-linejoin:miter;stroke-width:1.5;" x="392.793325" xlink:href="#mb3c80c78d3" y="90.62532"/>
    </g>
   </g>
   <g id="line2d_76">
    <path d="M 361.113325 155.657699 
L 392.793325 40.037692 
" style="fill:none;stroke:#00bfbf;stroke-linecap:square;stroke-width:1.5;"/>
    <g>
     <use style="fill:none;stroke:#00bfbf;stroke-width:1.5;" x="361.113325" xlink:href="#m99b3b2e5e1" y="155.657699"/>
     <use style="fill:none;stroke:#00bfbf;stroke-width:1.5;" x="392.793325" xlink:href="#m99b3b2e5e1" y="40.037692"/>
    </g>
   </g>
   <g id="line2d_77">
    <path d="M 361.113325 298.245375 
L 361.113325 34.768147 
" style="fill:none;stroke:#000000;stroke-linecap:square;stroke-width:1.5;"/>
   </g>
   <g id="patch_3">
    <path d="M 73.113325 298.245375 
L 73.113325 32.133375 
" style="fill:none;stroke:#000000;stroke-linecap:square;stroke-linejoin:miter;stroke-width:0.8;"/>
   </g>
   <g id="patch_4">
    <path d="M 430.233325 298.245375 
L 430.233325 32.133375 
" style="fill:none;stroke:#000000;stroke-linecap:square;stroke-linejoin:miter;stroke-width:0.8;"/>
   </g>
   <g id="patch_5">
    <path d="M 73.113325 298.245375 
L 430.233325 298.245375 
" style="fill:none;stroke:#000000;stroke-linecap:square;stroke-linejoin:miter;stroke-width:0.8;"/>
   </g>
   <g id="patch_6">
    <path d="M 73.113325 32.133375 
L 430.233325 32.133375 
" style="fill:none;stroke:#000000;stroke-linecap:square;stroke-linejoin:miter;stroke-width:0.8;"/>
   </g>
   <g id="text_14">
    <!-- 40-D -->
    <defs>
     <path d="M 19.671875 64.796875 
L 19.671875 8.109375 
L 31.59375 8.109375 
Q 46.6875 8.109375 53.6875 14.9375 
Q 60.6875 21.78125 60.6875 36.53125 
Q 60.6875 51.171875 53.6875 57.984375 
Q 46.6875 64.796875 31.59375 64.796875 
z
M 9.8125 72.90625 
L 30.078125 72.90625 
Q 51.265625 72.90625 61.171875 64.09375 
Q 71.09375 55.28125 71.09375 36.53125 
Q 71.09375 17.671875 61.125 8.828125 
Q 51.171875 0 30.078125 0 
L 9.8125 0 
z
" id="DejaVuSans-44"/>
    </defs>
    <g transform="translate(398.553325 297.114893)scale(0.15 -0.15)">
     <use xlink:href="#DejaVuSans-34"/>
     <use x="63.623047" xlink:href="#DejaVuSans-30"/>
     <use x="127.246094" xlink:href="#DejaVuSans-2d"/>
     <use x="163.330078" xlink:href="#DejaVuSans-44"/>
    </g>
   </g>
   <g id="text_15">
    <!-- 20-D -->
    <g transform="translate(398.553325 246.527265)scale(0.15 -0.15)">
     <use xlink:href="#DejaVuSans-32"/>
     <use x="63.623047" xlink:href="#DejaVuSans-30"/>
     <use x="127.246094" xlink:href="#DejaVuSans-2d"/>
     <use x="163.330078" xlink:href="#DejaVuSans-44"/>
    </g>
   </g>
   <g id="text_16">
    <!-- 10-D -->
    <g transform="translate(398.553325 195.939637)scale(0.15 -0.15)">
     <use xlink:href="#DejaVuSans-31"/>
     <use x="63.623047" xlink:href="#DejaVuSans-30"/>
     <use x="127.246094" xlink:href="#DejaVuSans-2d"/>
     <use x="163.330078" xlink:href="#DejaVuSans-44"/>
    </g>
   </g>
   <g id="text_17">
    <!-- 5-D -->
    <defs>
     <path d="M 10.796875 72.90625 
L 49.515625 72.90625 
L 49.515625 64.59375 
L 19.828125 64.59375 
L 19.828125 46.734375 
Q 21.96875 47.46875 24.109375 47.828125 
Q 26.265625 48.1875 28.421875 48.1875 
Q 40.625 48.1875 47.75 41.5 
Q 54.890625 34.8125 54.890625 23.390625 
Q 54.890625 11.625 47.5625 5.09375 
Q 40.234375 -1.421875 26.90625 -1.421875 
Q 22.3125 -1.421875 17.546875 -0.640625 
Q 12.796875 0.140625 7.71875 1.703125 
L 7.71875 11.625 
Q 12.109375 9.234375 16.796875 8.0625 
Q 21.484375 6.890625 26.703125 6.890625 
Q 35.15625 6.890625 40.078125 11.328125 
Q 45.015625 15.765625 45.015625 23.390625 
Q 45.015625 31 40.078125 35.4375 
Q 35.15625 39.890625 26.703125 39.890625 
Q 22.75 39.890625 18.8125 39.015625 
Q 14.890625 38.140625 10.796875 36.28125 
z
" id="DejaVuSans-35"/>
    </defs>
    <g transform="translate(398.553325 145.35201)scale(0.15 -0.15)">
     <use xlink:href="#DejaVuSans-35"/>
     <use x="63.623047" xlink:href="#DejaVuSans-2d"/>
     <use x="99.707031" xlink:href="#DejaVuSans-44"/>
    </g>
   </g>
   <g id="text_18">
    <!-- 3-D -->
    <defs>
     <path d="M 40.578125 39.3125 
Q 47.65625 37.796875 51.625 33 
Q 55.609375 28.21875 55.609375 21.1875 
Q 55.609375 10.40625 48.1875 4.484375 
Q 40.765625 -1.421875 27.09375 -1.421875 
Q 22.515625 -1.421875 17.65625 -0.515625 
Q 12.796875 0.390625 7.625 2.203125 
L 7.625 11.71875 
Q 11.71875 9.328125 16.59375 8.109375 
Q 21.484375 6.890625 26.8125 6.890625 
Q 36.078125 6.890625 40.9375 10.546875 
Q 45.796875 14.203125 45.796875 21.1875 
Q 45.796875 27.640625 41.28125 31.265625 
Q 36.765625 34.90625 28.71875 34.90625 
L 20.21875 34.90625 
L 20.21875 43.015625 
L 29.109375 43.015625 
Q 36.375 43.015625 40.234375 45.921875 
Q 44.09375 48.828125 44.09375 54.296875 
Q 44.09375 59.90625 40.109375 62.90625 
Q 36.140625 65.921875 28.71875 65.921875 
Q 24.65625 65.921875 20.015625 65.03125 
Q 15.375 64.15625 9.8125 62.3125 
L 9.8125 71.09375 
Q 15.4375 72.65625 20.34375 73.4375 
Q 25.25 74.21875 29.59375 74.21875 
Q 40.828125 74.21875 47.359375 69.109375 
Q 53.90625 64.015625 53.90625 55.328125 
Q 53.90625 49.265625 50.4375 45.09375 
Q 46.96875 40.921875 40.578125 39.3125 
" id="DejaVuSans-33"/>
    </defs>
    <g transform="translate(398.553325 94.764382)scale(0.15 -0.15)">
     <use xlink:href="#DejaVuSans-33"/>
     <use x="63.623047" xlink:href="#DejaVuSans-2d"/>
     <use x="99.707031" xlink:href="#DejaVuSans-44"/>
    </g>
   </g>
   <g id="text_19">
    <!-- 2-D -->
    <g transform="translate(398.553325 44.176754)scale(0.15 -0.15)">
     <use xlink:href="#DejaVuSans-32"/>
     <use x="63.623047" xlink:href="#DejaVuSans-2d"/>
     <use x="99.707031" xlink:href="#DejaVuSans-44"/>
    </g>
   </g>
   <g id="text_20">
    <!-- bbob - f15-f19 -->
    <defs>
     <path d="M 48.6875 27.296875 
Q 48.6875 37.203125 44.609375 42.84375 
Q 40.53125 48.484375 33.40625 48.484375 
Q 26.265625 48.484375 22.1875 42.84375 
Q 18.109375 37.203125 18.109375 27.296875 
Q 18.109375 17.390625 22.1875 11.75 
Q 26.265625 6.109375 33.40625 6.109375 
Q 40.53125 6.109375 44.609375 11.75 
Q 48.6875 17.390625 48.6875 27.296875 
M 18.109375 46.390625 
Q 20.953125 51.265625 25.265625 53.625 
Q 29.59375 56 35.59375 56 
Q 45.5625 56 51.78125 48.09375 
Q 58.015625 40.1875 58.015625 27.296875 
Q 58.015625 14.40625 51.78125 6.484375 
Q 45.5625 -1.421875 35.59375 -1.421875 
Q 29.59375 -1.421875 25.265625 0.953125 
Q 20.953125 3.328125 18.109375 8.203125 
L 18.109375 0 
L 9.078125 0 
L 9.078125 75.984375 
L 18.109375 75.984375 
z
" id="DejaVuSans-62"/>
     <path d="M 10.984375 1.515625 
L 10.984375 10.5 
Q 14.703125 8.734375 18.5 7.8125 
Q 22.3125 6.890625 25.984375 6.890625 
Q 35.75 6.890625 40.890625 13.453125 
Q 46.046875 20.015625 46.78125 33.40625 
Q 43.953125 29.203125 39.59375 26.953125 
Q 35.25 24.703125 29.984375 24.703125 
Q 19.046875 24.703125 12.671875 31.3125 
Q 6.296875 37.9375 6.296875 49.421875 
Q 6.296875 60.640625 12.9375 67.421875 
Q 19.578125 74.21875 30.609375 74.21875 
Q 43.265625 74.21875 49.921875 64.515625 
Q 56.59375 54.828125 56.59375 36.375 
Q 56.59375 19.140625 48.40625 8.859375 
Q 40.234375 -1.421875 26.421875 -1.421875 
Q 22.703125 -1.421875 18.890625 -0.6875 
Q 15.09375 0.046875 10.984375 1.515625 
M 30.609375 32.421875 
Q 37.25 32.421875 41.125 36.953125 
Q 45.015625 41.5 45.015625 49.421875 
Q 45.015625 57.28125 41.125 61.84375 
Q 37.25 66.40625 30.609375 66.40625 
Q 23.96875 66.40625 20.09375 61.84375 
Q 16.21875 57.28125 16.21875 49.421875 
Q 16.21875 41.5 20.09375 36.953125 
Q 23.96875 32.421875 30.609375 32.421875 
" id="DejaVuSans-39"/>
    </defs>
    <g transform="translate(76.684525 50.114612)scale(0.1666 -0.1666)">
     <use xlink:href="#DejaVuSans-62"/>
     <use x="63.476562" xlink:href="#DejaVuSans-62"/>
     <use x="126.953125" xlink:href="#DejaVuSans-6f"/>
     <use x="188.134766" xlink:href="#DejaVuSans-62"/>
     <use x="251.611328" xlink:href="#DejaVuSans-20"/>
     <use x="283.398438" xlink:href="#DejaVuSans-2d"/>
     <use x="319.482422" xlink:href="#DejaVuSans-20"/>
     <use x="351.269531" xlink:href="#DejaVuSans-66"/>
     <use x="386.474609" xlink:href="#DejaVuSans-31"/>
     <use x="450.097656" xlink:href="#DejaVuSans-35"/>
     <use x="513.720703" xlink:href="#DejaVuSans-2d"/>
     <use x="549.804688" xlink:href="#DejaVuSans-66"/>
     <use x="585.009766" xlink:href="#DejaVuSans-31"/>
     <use x="648.632812" xlink:href="#DejaVuSans-39"/>
    </g>
    <!-- 51 targets in 100..1e-08 -->
    <g transform="translate(76.684525 68.770168)scale(0.1666 -0.1666)">
     <use xlink:href="#DejaVuSans-35"/>
     <use x="63.623047" xlink:href="#DejaVuSans-31"/>
     <use x="127.246094" xlink:href="#DejaVuSans-20"/>
     <use x="159.033203" xlink:href="#DejaVuSans-74"/>
     <use x="198.242188" xlink:href="#DejaVuSans-61"/>
     <use x="259.521484" xlink:href="#DejaVuSans-72"/>
     <use x="300.619141" xlink:href="#DejaVuSans-67"/>
     <use x="364.095703" xlink:href="#DejaVuSans-65"/>
     <use x="425.619141" xlink:href="#DejaVuSans-74"/>
     <use x="464.828125" xlink:href="#DejaVuSans-73"/>
     <use x="516.927734" xlink:href="#DejaVuSans-20"/>
     <use x="548.714844" xlink:href="#DejaVuSans-69"/>
     <use x="576.498047" xlink:href="#DejaVuSans-6e"/>
     <use x="639.876953" xlink:href="#DejaVuSans-20"/>
     <use x="671.664062" xlink:href="#DejaVuSans-31"/>
     <use x="735.287109" xlink:href="#DejaVuSans-30"/>
     <use x="798.910156" xlink:href="#DejaVuSans-30"/>
     <use x="862.533203" xlink:href="#DejaVuSans-2e"/>
     <use x="894.320312" xlink:href="#DejaVuSans-2e"/>
     <use x="926.107422" xlink:href="#DejaVuSans-31"/>
     <use x="989.730469" xlink:href="#DejaVuSans-65"/>
     <use x="1051.253906" xlink:href="#DejaVuSans-2d"/>
     <use x="1087.337891" xlink:href="#DejaVuSans-30"/>
     <use x="1150.960938" xlink:href="#DejaVuSans-38"/>
    </g>
    <!-- 15 instances -->
    <g transform="translate(76.684525 87.425723)scale(0.1666 -0.1666)">
     <use xlink:href="#DejaVuSans-31"/>
     <use x="63.623047" xlink:href="#DejaVuSans-35"/>
     <use x="127.246094" xlink:href="#DejaVuSans-20"/>
     <use x="159.033203" xlink:href="#DejaVuSans-69"/>
     <use x="186.816406" xlink:href="#DejaVuSans-6e"/>
     <use x="250.195312" xlink:href="#DejaVuSans-73"/>
     <use x="302.294922" xlink:href="#DejaVuSans-74"/>
     <use x="341.503906" xlink:href="#DejaVuSans-61"/>
     <use x="402.783203" xlink:href="#DejaVuSans-6e"/>
     <use x="466.162109" xlink:href="#DejaVuSans-63"/>
     <use x="521.142578" xlink:href="#DejaVuSans-65"/>
     <use x="582.666016" xlink:href="#DejaVuSans-73"/>
    </g>
   </g>
   <g id="text_21">
    <!-- v2.1 -->
    <g style="fill:#808080;" transform="translate(240.762388 293.504568)scale(0.1 -0.1)">
     <use xlink:href="#DejaVuSans-76"/>
     <use x="59.179688" xlink:href="#DejaVuSans-32"/>
     <use x="122.802734" xlink:href="#DejaVuSans-2e"/>
     <use x="154.589844" xlink:href="#DejaVuSans-31"/>
    </g>
   </g>
  </g>
 </g>
 <defs>
  <clipPath id="p1648dbbc6e">
   <rect height="266.112" width="357.12" x="73.113325" y="32.133375"/>
  </clipPath>
 </defs>
</svg>
