<?xml version="1.0" encoding="utf-8" standalone="no"?>
<!DOCTYPE svg PUBLIC "-//W3C//DTD SVG 1.1//EN"
  "http://www.w3.org/Graphics/SVG/1.1/DTD/svg11.dtd">
<!-- Created with matplotlib (http://matplotlib.org/) -->
<svg height="333pt" version="1.1" viewBox="0 0 378 333" width="378pt" xmlns="http://www.w3.org/2000/svg" xmlns:xlink="http://www.w3.org/1999/xlink">
 <defs>
  <style type="text/css">
*{stroke-linecap:butt;stroke-linejoin:round;}
  </style>
 </defs>
 <g id="figure_1">
  <g id="patch_1">
   <path d="M 0 333.7245 
L 378.52 333.7245 
L 378.52 0 
L 0 0 
z
" style="fill:#ffffff;"/>
  </g>
  <g id="axes_1">
   <g id="patch_2">
    <path d="M 10.7 276.812 
L 367.82 276.812 
L 367.82 10.7 
L 10.7 10.7 
z
" style="fill:#ffffff;"/>
   </g>
   <g id="matplotlib.axis_1">
    <g id="xtick_1">
     <g id="line2d_1">
      <path clip-path="url(#pd613e36ced)" d="M 10.610538 276.812 
L 10.610538 10.7 
" style="fill:none;stroke:#b0b0b0;stroke-linecap:square;stroke-width:0.8;"/>
     </g>
     <g id="line2d_2">
      <defs>
       <path d="M 0 0 
L 0 3.5 
" id="me4948bbe22" style="stroke:#000000;stroke-width:0.8;"/>
      </defs>
      <g>
       <use style="stroke:#000000;stroke-width:0.8;" x="10.610538" xlink:href="#me4948bbe22" y="276.812"/>
      </g>
     </g>
    </g>
    <g id="xtick_2">
     <g id="line2d_3">
      <path clip-path="url(#pd613e36ced)" d="M 93.419793 276.812 
L 93.419793 10.7 
" style="fill:none;stroke:#b0b0b0;stroke-linecap:square;stroke-width:0.8;"/>
     </g>
     <g id="line2d_4">
      <g>
       <use style="stroke:#000000;stroke-width:0.8;" x="93.419793" xlink:href="#me4948bbe22" y="276.812"/>
      </g>
     </g>
     <g id="text_1">
      <!-- -4 -->
      <defs>
       <path d="M 4.890625 31.390625 
L 31.203125 31.390625 
L 31.203125 23.390625 
L 4.890625 23.390625 
z
" id="DejaVuSans-2d"/>
       <path d="M 37.796875 64.3125 
L 12.890625 25.390625 
L 37.796875 25.390625 
z
M 35.203125 72.90625 
L 47.609375 72.90625 
L 47.609375 25.390625 
L 58.015625 25.390625 
L 58.015625 17.1875 
L 47.609375 17.1875 
L 47.609375 0 
L 37.796875 0 
L 37.796875 17.1875 
L 4.890625 17.1875 
L 4.890625 26.703125 
z
" id="DejaVuSans-34"/>
      </defs>
      <g transform="translate(83.449481 299.008875)scale(0.2 -0.2)">
       <use xlink:href="#DejaVuSans-2d"/>
       <use x="36.083984" xlink:href="#DejaVuSans-34"/>
      </g>
     </g>
    </g>
    <g id="xtick_3">
     <g id="line2d_5">
      <path clip-path="url(#pd613e36ced)" d="M 176.229049 276.812 
L 176.229049 10.7 
" style="fill:none;stroke:#b0b0b0;stroke-linecap:square;stroke-width:0.8;"/>
     </g>
     <g id="line2d_6">
      <g>
       <use style="stroke:#000000;stroke-width:0.8;" x="176.229049" xlink:href="#me4948bbe22" y="276.812"/>
      </g>
     </g>
     <g id="text_2">
      <!-- 0 -->
      <defs>
       <path d="M 31.78125 66.40625 
Q 24.171875 66.40625 20.328125 58.90625 
Q 16.5 51.421875 16.5 36.375 
Q 16.5 21.390625 20.328125 13.890625 
Q 24.171875 6.390625 31.78125 6.390625 
Q 39.453125 6.390625 43.28125 13.890625 
Q 47.125 21.390625 47.125 36.375 
Q 47.125 51.421875 43.28125 58.90625 
Q 39.453125 66.40625 31.78125 66.40625 
M 31.78125 74.21875 
Q 44.046875 74.21875 50.515625 64.515625 
Q 56.984375 54.828125 56.984375 36.375 
Q 56.984375 17.96875 50.515625 8.265625 
Q 44.046875 -1.421875 31.78125 -1.421875 
Q 19.53125 -1.421875 13.0625 8.265625 
Q 6.59375 17.96875 6.59375 36.375 
Q 6.59375 54.828125 13.0625 64.515625 
Q 19.53125 74.21875 31.78125 74.21875 
" id="DejaVuSans-30"/>
      </defs>
      <g transform="translate(169.866549 299.008875)scale(0.2 -0.2)">
       <use xlink:href="#DejaVuSans-30"/>
      </g>
     </g>
    </g>
    <g id="xtick_4">
     <g id="line2d_7">
      <path clip-path="url(#pd613e36ced)" d="M 259.038304 276.812 
L 259.038304 10.7 
" style="fill:none;stroke:#b0b0b0;stroke-linecap:square;stroke-width:0.8;"/>
     </g>
     <g id="line2d_8">
      <g>
       <use style="stroke:#000000;stroke-width:0.8;" x="259.038304" xlink:href="#me4948bbe22" y="276.812"/>
      </g>
     </g>
     <g id="text_3">
      <!-- 4 -->
      <g transform="translate(252.675804 299.008875)scale(0.2 -0.2)">
       <use xlink:href="#DejaVuSans-34"/>
      </g>
     </g>
    </g>
    <g id="xtick_5">
     <g id="line2d_9">
      <path clip-path="url(#pd613e36ced)" d="M 341.84756 276.812 
L 341.84756 10.7 
" style="fill:none;stroke:#b0b0b0;stroke-linecap:square;stroke-width:0.8;"/>
     </g>
     <g id="line2d_10">
      <g>
       <use style="stroke:#000000;stroke-width:0.8;" x="341.84756" xlink:href="#me4948bbe22" y="276.812"/>
      </g>
     </g>
     <g id="text_4">
      <!-- 8 -->
      <defs>
       <path d="M 31.78125 34.625 
Q 24.75 34.625 20.71875 30.859375 
Q 16.703125 27.09375 16.703125 20.515625 
Q 16.703125 13.921875 20.71875 10.15625 
Q 24.75 6.390625 31.78125 6.390625 
Q 38.8125 6.390625 42.859375 10.171875 
Q 46.921875 13.96875 46.921875 20.515625 
Q 46.921875 27.09375 42.890625 30.859375 
Q 38.875 34.625 31.78125 34.625 
M 21.921875 38.8125 
Q 15.578125 40.375 12.03125 44.71875 
Q 8.5 49.078125 8.5 55.328125 
Q 8.5 64.0625 14.71875 69.140625 
Q 20.953125 74.21875 31.78125 74.21875 
Q 42.671875 74.21875 48.875 69.140625 
Q 55.078125 64.0625 55.078125 55.328125 
Q 55.078125 49.078125 51.53125 44.71875 
Q 48 40.375 41.703125 38.8125 
Q 48.828125 37.15625 52.796875 32.3125 
Q 56.78125 27.484375 56.78125 20.515625 
Q 56.78125 9.90625 50.3125 4.234375 
Q 43.84375 -1.421875 31.78125 -1.421875 
Q 19.734375 -1.421875 13.25 4.234375 
Q 6.78125 9.90625 6.78125 20.515625 
Q 6.78125 27.484375 10.78125 32.3125 
Q 14.796875 37.15625 21.921875 38.8125 
M 18.3125 54.390625 
Q 18.3125 48.734375 21.84375 45.5625 
Q 25.390625 42.390625 31.78125 42.390625 
Q 38.140625 42.390625 41.71875 45.5625 
Q 45.3125 48.734375 45.3125 54.390625 
Q 45.3125 60.0625 41.71875 63.234375 
Q 38.140625 66.40625 31.78125 66.40625 
Q 25.390625 66.40625 21.84375 63.234375 
Q 18.3125 60.0625 18.3125 54.390625 
" id="DejaVuSans-38"/>
      </defs>
      <g transform="translate(335.48506 299.008875)scale(0.2 -0.2)">
       <use xlink:href="#DejaVuSans-38"/>
      </g>
     </g>
    </g>
    <g id="text_5">
     <!-- log10 of Df -->
     <defs>
      <path d="M 9.421875 75.984375 
L 18.40625 75.984375 
L 18.40625 0 
L 9.421875 0 
z
" id="DejaVuSans-6c"/>
      <path d="M 30.609375 48.390625 
Q 23.390625 48.390625 19.1875 42.75 
Q 14.984375 37.109375 14.984375 27.296875 
Q 14.984375 17.484375 19.15625 11.84375 
Q 23.34375 6.203125 30.609375 6.203125 
Q 37.796875 6.203125 41.984375 11.859375 
Q 46.1875 17.53125 46.1875 27.296875 
Q 46.1875 37.015625 41.984375 42.703125 
Q 37.796875 48.390625 30.609375 48.390625 
M 30.609375 56 
Q 42.328125 56 49.015625 48.375 
Q 55.71875 40.765625 55.71875 27.296875 
Q 55.71875 13.875 49.015625 6.21875 
Q 42.328125 -1.421875 30.609375 -1.421875 
Q 18.84375 -1.421875 12.171875 6.21875 
Q 5.515625 13.875 5.515625 27.296875 
Q 5.515625 40.765625 12.171875 48.375 
Q 18.84375 56 30.609375 56 
" id="DejaVuSans-6f"/>
      <path d="M 45.40625 27.984375 
Q 45.40625 37.75 41.375 43.109375 
Q 37.359375 48.484375 30.078125 48.484375 
Q 22.859375 48.484375 18.828125 43.109375 
Q 14.796875 37.75 14.796875 27.984375 
Q 14.796875 18.265625 18.828125 12.890625 
Q 22.859375 7.515625 30.078125 7.515625 
Q 37.359375 7.515625 41.375 12.890625 
Q 45.40625 18.265625 45.40625 27.984375 
M 54.390625 6.78125 
Q 54.390625 -7.171875 48.1875 -13.984375 
Q 42 -20.796875 29.203125 -20.796875 
Q 24.46875 -20.796875 20.265625 -20.09375 
Q 16.0625 -19.390625 12.109375 -17.921875 
L 12.109375 -9.1875 
Q 16.0625 -11.328125 19.921875 -12.34375 
Q 23.78125 -13.375 27.78125 -13.375 
Q 36.625 -13.375 41.015625 -8.765625 
Q 45.40625 -4.15625 45.40625 5.171875 
L 45.40625 9.625 
Q 42.625 4.78125 38.28125 2.390625 
Q 33.9375 0 27.875 0 
Q 17.828125 0 11.671875 7.65625 
Q 5.515625 15.328125 5.515625 27.984375 
Q 5.515625 40.671875 11.671875 48.328125 
Q 17.828125 56 27.875 56 
Q 33.9375 56 38.28125 53.609375 
Q 42.625 51.21875 45.40625 46.390625 
L 45.40625 54.6875 
L 54.390625 54.6875 
z
" id="DejaVuSans-67"/>
      <path d="M 12.40625 8.296875 
L 28.515625 8.296875 
L 28.515625 63.921875 
L 10.984375 60.40625 
L 10.984375 69.390625 
L 28.421875 72.90625 
L 38.28125 72.90625 
L 38.28125 8.296875 
L 54.390625 8.296875 
L 54.390625 0 
L 12.40625 0 
z
" id="DejaVuSans-31"/>
      <path id="DejaVuSans-20"/>
      <path d="M 37.109375 75.984375 
L 37.109375 68.5 
L 28.515625 68.5 
Q 23.6875 68.5 21.796875 66.546875 
Q 19.921875 64.59375 19.921875 59.515625 
L 19.921875 54.6875 
L 34.71875 54.6875 
L 34.71875 47.703125 
L 19.921875 47.703125 
L 19.921875 0 
L 10.890625 0 
L 10.890625 47.703125 
L 2.296875 47.703125 
L 2.296875 54.6875 
L 10.890625 54.6875 
L 10.890625 58.5 
Q 10.890625 67.625 15.140625 71.796875 
Q 19.390625 75.984375 28.609375 75.984375 
z
" id="DejaVuSans-66"/>
      <path d="M 19.671875 64.796875 
L 19.671875 8.109375 
L 31.59375 8.109375 
Q 46.6875 8.109375 53.6875 14.9375 
Q 60.6875 21.78125 60.6875 36.53125 
Q 60.6875 51.171875 53.6875 57.984375 
Q 46.6875 64.796875 31.59375 64.796875 
z
M 9.8125 72.90625 
L 30.078125 72.90625 
Q 51.265625 72.90625 61.171875 64.09375 
Q 71.09375 55.28125 71.09375 36.53125 
Q 71.09375 17.671875 61.125 8.828125 
Q 51.171875 0 30.078125 0 
L 9.8125 0 
z
" id="DejaVuSans-44"/>
     </defs>
     <g transform="translate(134.074063 322.365125)scale(0.2 -0.2)">
      <use xlink:href="#DejaVuSans-6c"/>
      <use x="27.783203" xlink:href="#DejaVuSans-6f"/>
      <use x="88.964844" xlink:href="#DejaVuSans-67"/>
      <use x="152.441406" xlink:href="#DejaVuSans-31"/>
      <use x="216.064453" xlink:href="#DejaVuSans-30"/>
      <use x="279.6875" xlink:href="#DejaVuSans-20"/>
      <use x="311.474609" xlink:href="#DejaVuSans-6f"/>
      <use x="372.65625" xlink:href="#DejaVuSans-66"/>
      <use x="407.861328" xlink:href="#DejaVuSans-20"/>
      <use x="439.648438" xlink:href="#DejaVuSans-44"/>
      <use x="516.650391" xlink:href="#DejaVuSans-66"/>
     </g>
    </g>
   </g>
   <g id="matplotlib.axis_2">
    <g id="ytick_1">
     <g id="line2d_11">
      <path clip-path="url(#pd613e36ced)" d="M 10.7 276.812 
L 367.82 276.812 
" style="fill:none;stroke:#b0b0b0;stroke-linecap:square;stroke-width:0.8;"/>
     </g>
     <g id="line2d_12">
      <defs>
       <path d="M 0 0 
L -3.5 0 
" id="mfed37c9fa2" style="stroke:#000000;stroke-width:0.8;"/>
      </defs>
      <g>
       <use style="stroke:#000000;stroke-width:0.8;" x="10.7" xlink:href="#mfed37c9fa2" y="276.812"/>
      </g>
     </g>
    </g>
    <g id="ytick_2">
     <g id="line2d_13">
      <path clip-path="url(#pd613e36ced)" d="M 10.7 224.116554 
L 367.82 224.116554 
" style="fill:none;stroke:#b0b0b0;stroke-linecap:square;stroke-width:0.8;"/>
     </g>
     <g id="line2d_14">
      <g>
       <use style="stroke:#000000;stroke-width:0.8;" x="10.7" xlink:href="#mfed37c9fa2" y="224.116554"/>
      </g>
     </g>
    </g>
    <g id="ytick_3">
     <g id="line2d_15">
      <path clip-path="url(#pd613e36ced)" d="M 10.7 171.421109 
L 367.82 171.421109 
" style="fill:none;stroke:#b0b0b0;stroke-linecap:square;stroke-width:0.8;"/>
     </g>
     <g id="line2d_16">
      <g>
       <use style="stroke:#000000;stroke-width:0.8;" x="10.7" xlink:href="#mfed37c9fa2" y="171.421109"/>
      </g>
     </g>
    </g>
    <g id="ytick_4">
     <g id="line2d_17">
      <path clip-path="url(#pd613e36ced)" d="M 10.7 118.725663 
L 367.82 118.725663 
" style="fill:none;stroke:#b0b0b0;stroke-linecap:square;stroke-width:0.8;"/>
     </g>
     <g id="line2d_18">
      <g>
       <use style="stroke:#000000;stroke-width:0.8;" x="10.7" xlink:href="#mfed37c9fa2" y="118.725663"/>
      </g>
     </g>
    </g>
    <g id="ytick_5">
     <g id="line2d_19">
      <path clip-path="url(#pd613e36ced)" d="M 10.7 66.030218 
L 367.82 66.030218 
" style="fill:none;stroke:#b0b0b0;stroke-linecap:square;stroke-width:0.8;"/>
     </g>
     <g id="line2d_20">
      <g>
       <use style="stroke:#000000;stroke-width:0.8;" x="10.7" xlink:href="#mfed37c9fa2" y="66.030218"/>
      </g>
     </g>
    </g>
    <g id="ytick_6">
     <g id="line2d_21">
      <path clip-path="url(#pd613e36ced)" d="M 10.7 13.334772 
L 367.82 13.334772 
" style="fill:none;stroke:#b0b0b0;stroke-linecap:square;stroke-width:0.8;"/>
     </g>
     <g id="line2d_22">
      <g>
       <use style="stroke:#000000;stroke-width:0.8;" x="10.7" xlink:href="#mfed37c9fa2" y="13.334772"/>
      </g>
     </g>
    </g>
   </g>
   <g id="line2d_23">
    <path clip-path="url(#pd613e36ced)" d="M 163.778445 276.812 
L 163.778445 276.080119 
L 163.778445 276.080119 
L 163.778445 276.080119 
L 163.778445 275.348238 
L 163.778445 275.348238 
L 163.778445 275.348238 
L 163.778445 274.616356 
L 163.778445 274.616356 
L 163.778445 274.616356 
L 163.778445 273.884475 
L 163.778445 273.884475 
L 163.778445 273.884475 
L 163.778445 273.152594 
L 163.778445 273.152594 
L 163.778445 273.152594 
L 163.778445 272.420713 
L 163.778445 272.420713 
L 163.778445 272.420713 
L 163.778445 271.688832 
L 163.778445 271.688832 
L 163.778445 271.688832 
L 163.778445 270.95695 
L 163.778445 270.95695 
L 163.778445 270.95695 
L 163.778445 270.225069 
L 163.778445 270.225069 
L 163.778445 270.225069 
L 163.778445 269.493188 
L 163.778445 269.493188 
L 163.778445 269.493188 
L 163.778445 268.761307 
L 163.778445 268.761307 
L 163.778445 268.761307 
L 163.778445 268.029426 
L 163.778445 268.029426 
L 163.778445 268.029426 
L 163.778445 267.297545 
L 163.778445 267.297545 
L 163.778445 267.297545 
L 163.778445 266.565663 
L 163.778445 266.565663 
L 163.778445 266.565663 
L 163.778445 265.833782 
L 186.748351 265.833782 
L 186.748351 265.101901 
L 189.596316 265.101901 
L 189.596316 264.37002 
L 190.749504 264.37002 
L 190.749504 263.638139 
L 191.058088 263.638139 
L 191.058088 262.906257 
L 191.182499 262.906257 
L 191.291889 261.442495 
L 191.657714 261.442495 
L 191.657714 260.710614 
L 191.869106 260.710614 
L 191.869106 259.978733 
L 192.554796 259.978733 
L 192.554796 259.246851 
L 192.842704 259.246851 
L 192.842704 258.51497 
L 192.982275 258.51497 
L 192.982275 257.783089 
L 193.095214 257.783089 
L 193.095214 257.051208 
L 193.400188 257.051208 
L 193.400188 256.319327 
L 193.524951 256.319327 
L 193.524951 255.587446 
L 194.418706 255.587446 
L 194.418706 254.855564 
L 197.82709 254.855564 
L 197.82709 254.123683 
L 198.136308 254.123683 
L 198.136308 253.391802 
L 198.306376 253.391802 
L 198.306376 252.659921 
L 198.544534 252.659921 
L 198.563851 251.196158 
L 198.813186 251.196158 
L 198.813186 250.464277 
L 199.11009 250.464277 
L 199.11009 249.732396 
L 199.698923 249.732396 
L 199.796355 248.268634 
L 200.110985 248.268634 
L 200.110985 247.536752 
L 200.785045 247.536752 
L 200.785045 246.804871 
L 201.158335 246.804871 
L 201.158335 246.07299 
L 201.33624 246.07299 
L 201.33624 245.341109 
L 201.741125 245.341109 
L 201.741125 244.609228 
L 202.579746 244.609228 
L 202.579746 243.877347 
L 204.844986 243.877347 
L 204.880318 242.413584 
L 206.961738 242.413584 
L 206.961738 241.681703 
L 207.102796 241.681703 
L 207.102796 240.949822 
L 207.426582 240.949822 
L 207.426582 240.217941 
L 207.798347 240.217941 
L 207.798347 239.486059 
L 207.92559 239.486059 
L 207.92559 238.754178 
L 208.126374 238.754178 
L 208.126374 238.022297 
L 208.320863 238.022297 
L 208.320863 237.290416 
L 208.646495 237.290416 
L 208.646495 236.558535 
L 209.114136 236.558535 
L 209.203474 235.094772 
L 209.228263 235.094772 
L 209.257038 232.899129 
L 209.474988 232.899129 
L 209.565531 230.703485 
L 209.696781 230.703485 
L 209.746106 229.239723 
L 209.97458 229.239723 
L 209.97458 228.507842 
L 210.119507 228.507842 
L 210.189796 227.044079 
L 210.340684 227.044079 
L 210.441515 225.580317 
L 210.47361 225.580317 
L 210.47361 224.848436 
L 210.647694 224.848436 
L 210.70204 222.652792 
L 211.023686 222.652792 
L 211.023686 221.920911 
L 211.244718 221.920911 
L 211.244718 221.18903 
L 211.527808 221.18903 
L 211.596668 219.725267 
L 212.113876 219.725267 
L 212.113876 218.993386 
L 212.358548 218.993386 
L 212.359865 217.529624 
L 212.774408 217.529624 
L 212.861147 216.065861 
L 212.969432 216.065861 
L 212.969432 215.33398 
L 213.136236 215.33398 
L 213.136236 214.602099 
L 214.013957 214.602099 
L 214.013957 213.870218 
L 214.561439 213.870218 
L 214.66827 211.674574 
L 214.675857 211.674574 
L 214.783799 208.74705 
L 214.903322 208.74705 
L 214.966969 206.551406 
L 215.146916 206.551406 
L 215.232849 204.355762 
L 215.301245 204.355762 
L 215.385621 201.428238 
L 215.415887 201.428238 
L 215.481908 199.964475 
L 215.529778 199.964475 
L 215.596012 195.573188 
L 215.667741 195.573188 
L 215.667741 194.841307 
L 215.801184 194.841307 
L 215.912066 191.913782 
L 215.923894 191.913782 
L 215.974412 188.254376 
L 216.087227 188.254376 
L 216.087227 187.522495 
L 216.663666 187.522495 
L 216.663666 186.790614 
L 216.859427 186.790614 
L 216.859427 186.058733 
L 217.72925 186.058733 
L 217.72925 185.326851 
L 217.881565 185.326851 
L 217.881565 184.59497 
L 218.149907 184.59497 
L 218.189091 183.131208 
L 218.420753 183.131208 
L 218.420753 182.399327 
L 218.621142 182.399327 
L 218.621142 181.667446 
L 219.048775 181.667446 
L 219.048775 180.935564 
L 219.507119 180.935564 
L 219.531394 169.225465 
L 219.685116 169.225465 
L 219.755035 167.761703 
L 221.07689 167.761703 
L 221.07689 167.029822 
L 224.275064 167.029822 
L 224.275064 166.297941 
L 225.374292 166.297941 
L 225.467383 164.102297 
L 225.623123 164.102297 
L 225.623123 163.370416 
L 225.863627 163.370416 
L 225.863627 162.638535 
L 226.053287 162.638535 
L 226.09873 161.174772 
L 226.238227 161.174772 
L 226.238227 160.442891 
L 226.37178 160.442891 
L 226.37178 159.71101 
L 226.537436 159.71101 
L 226.537436 158.979129 
L 226.664667 158.979129 
L 226.713478 157.515366 
L 226.866796 157.515366 
L 226.948696 155.319723 
L 227.107676 155.319723 
L 227.107676 154.587842 
L 227.716757 154.587842 
L 227.781614 152.392198 
L 227.895821 152.392198 
L 227.895821 151.660317 
L 228.289112 151.660317 
L 228.323171 150.196554 
L 228.650844 150.196554 
L 228.695975 148.000911 
L 228.838446 148.000911 
L 228.880234 146.537149 
L 229.203059 146.537149 
L 229.203059 145.805267 
L 229.50106 145.805267 
L 229.50106 145.073386 
L 229.665035 145.073386 
L 229.665035 144.341505 
L 230.78255 144.341505 
L 230.877093 142.877743 
L 230.930986 142.877743 
L 230.930986 142.145861 
L 231.157632 142.145861 
L 231.157632 141.41398 
L 231.612726 141.41398 
L 231.612726 140.682099 
L 231.748053 140.682099 
L 231.748053 139.950218 
L 231.878973 139.950218 
L 231.934012 138.486455 
L 232.483866 138.486455 
L 232.483866 137.754574 
L 232.705266 137.754574 
L 232.815346 136.290812 
L 232.86462 136.290812 
L 232.86462 135.558931 
L 233.147274 135.558931 
L 233.147274 134.82705 
L 233.421985 134.82705 
L 233.459423 132.631406 
L 233.586218 132.631406 
L 233.657791 130.435762 
L 233.734607 130.435762 
L 233.784306 128.240119 
L 233.945349 128.240119 
L 234.042999 126.044475 
L 234.145879 126.044475 
L 234.165592 124.580713 
L 234.319229 124.580713 
L 234.372469 122.385069 
L 234.460854 122.385069 
L 234.484413 120.921307 
L 234.612679 120.921307 
L 234.612679 120.189426 
L 234.805054 120.189426 
L 234.805054 119.457545 
L 235.037526 119.457545 
L 235.051057 117.261901 
L 235.186314 117.261901 
L 235.197885 115.798139 
L 235.407729 115.798139 
L 235.512729 114.334376 
L 235.652861 114.334376 
L 235.728977 111.406851 
L 235.811606 111.406851 
L 235.891463 109.943089 
L 236.048225 109.943089 
L 236.124032 107.747446 
L 236.214132 107.747446 
L 236.268818 106.283683 
L 236.356352 106.283683 
L 236.367613 104.819921 
L 236.646529 104.819921 
L 236.646529 104.08804 
L 237.511932 104.08804 
L 237.511932 103.356158 
L 238.034275 103.356158 
L 238.134446 101.892396 
L 238.417647 101.892396 
L 238.417647 101.160515 
L 238.889317 101.160515 
L 238.889317 100.428634 
L 241.35472 100.428634 
L 241.35472 99.696752 
L 242.01875 99.696752 
L 242.01875 98.964871 
L 242.655368 98.964871 
L 242.655368 98.23299 
L 243.051922 98.23299 
L 243.073029 96.769228 
L 243.174828 96.769228 
L 243.174828 96.037347 
L 243.48866 96.037347 
L 243.489725 94.573584 
L 244.195959 94.573584 
L 244.283509 91.646059 
L 244.337639 91.646059 
L 244.398572 90.182297 
L 244.518718 90.182297 
L 244.518718 89.450416 
L 244.651496 89.450416 
L 244.651496 88.718535 
L 244.91358 88.718535 
L 244.91358 87.986653 
L 245.063711 87.986653 
L 245.063711 87.254772 
L 245.601797 87.254772 
L 245.601797 86.522891 
L 247.066181 86.522891 
L 247.066181 85.79101 
L 249.779846 85.79101 
L 249.779846 85.059129 
L 250.265366 85.059129 
L 250.329022 83.595366 
L 250.704478 83.595366 
L 250.704478 82.863485 
L 264.481282 82.863485 
L 264.481282 71.885267 
L 267.262575 71.885267 
L 267.262575 71.153386 
L 267.648865 71.153386 
L 267.648865 70.421505 
L 268.220578 70.421505 
L 268.220578 69.689624 
L 268.728472 69.689624 
L 268.728472 68.957743 
L 269.192868 68.957743 
L 269.192868 68.225861 
L 270.68691 68.225861 
L 270.723591 66.762099 
L 271.11148 66.762099 
L 271.11148 66.030218 
L 271.318741 66.030218 
L 271.318741 65.298337 
L 272.812146 65.298337 
L 272.862183 63.834574 
L 273.049998 63.834574 
L 273.049998 63.102693 
L 273.245616 63.102693 
L 273.245616 62.370812 
L 273.857242 62.370812 
L 273.857242 61.638931 
L 273.99098 61.638931 
L 273.99098 60.90705 
L 275.682662 60.90705 
L 275.760405 59.443287 
L 276.416944 59.443287 
L 276.416944 58.711406 
L 276.537973 58.711406 
L 276.537973 57.979525 
L 278.104357 57.979525 
L 278.104357 57.247644 
L 278.912904 57.247644 
L 278.912904 56.515762 
L 280.347086 56.515762 
L 280.347086 55.783881 
L 289.213941 55.783881 
L 289.213941 55.052 
L 290.1624 55.052 
L 290.1624 54.320119 
L 290.557935 54.320119 
L 290.557935 53.588238 
L 291.547926 53.588238 
L 291.547926 52.856356 
L 291.858361 52.856356 
L 291.858361 52.124475 
L 292.394558 52.124475 
L 292.394558 51.392594 
L 294.144825 51.392594 
L 294.144825 50.660713 
L 294.435491 50.660713 
L 294.435491 49.928832 
L 295.207958 49.928832 
L 295.207958 49.19695 
L 295.334679 49.19695 
L 295.334679 48.465069 
L 295.565213 48.465069 
L 295.565213 47.733188 
L 298.038989 47.733188 
L 298.038989 47.001307 
L 304.569954 47.001307 
L 304.569954 46.269426 
L 306.603176 46.269426 
L 306.603176 45.537545 
L 307.970682 45.537545 
L 307.970682 44.805663 
L 308.998414 44.805663 
L 308.998414 44.073782 
L 309.248794 44.073782 
L 309.248794 43.341901 
L 309.467604 43.341901 
L 309.467604 42.61002 
L 309.793317 42.61002 
L 309.793317 41.878139 
L 310.043638 41.878139 
L 310.043638 41.146257 
L 310.459223 41.146257 
L 310.459223 40.414376 
L 310.731604 40.414376 
L 310.731604 39.682495 
L 310.8939 39.682495 
L 310.8939 38.950614 
L 311.480751 38.950614 
L 311.491982 37.486851 
L 311.818861 37.486851 
L 311.818861 36.75497 
L 311.949094 36.75497 
L 311.949094 36.023089 
L 312.616775 36.023089 
L 312.722311 34.559327 
L 312.786389 34.559327 
L 312.786389 33.827446 
L 312.959327 33.827446 
L 312.973333 32.363683 
L 313.227946 32.363683 
L 313.227946 31.631802 
L 313.474493 31.631802 
L 313.474493 30.899921 
L 314.542286 30.899921 
L 314.542286 30.16804 
L 314.841042 30.16804 
L 314.944189 28.704277 
L 315.060472 28.704277 
L 315.060472 27.972396 
L 315.484388 27.972396 
L 315.55097 26.508634 
L 317.253227 26.508634 
L 317.253227 25.776752 
L 317.68334 25.776752 
L 317.68334 25.044871 
L 321.840278 25.044871 
L 321.840278 24.31299 
L 341.002144 24.31299 
L 341.002144 23.581109 
L 343.68833 23.581109 
L 343.68833 22.849228 
L 343.819474 22.849228 
L 343.819474 22.117347 
L 344.905846 22.117347 
L 344.912337 20.653584 
L 345.561391 20.653584 
L 345.561391 19.921703 
L 346.235667 19.921703 
L 346.298617 18.457941 
L 348.914753 18.457941 
L 348.914753 17.726059 
L 349.428797 17.726059 
L 349.428797 16.994178 
L 349.555919 16.994178 
L 349.555919 16.262297 
L 350.685394 16.262297 
L 350.685394 15.530416 
L 351.292667 15.530416 
L 351.292667 14.798535 
L 352.60917 14.798535 
L 352.60917 14.066653 
L 358.103735 14.066653 
L 358.103735 13.334772 
L 358.103735 13.334772 
L 367.82 13.334772 
L 367.82 13.334772 
" style="fill:none;stroke:#ff0000;stroke-linecap:square;stroke-width:3;"/>
   </g>
   <g id="line2d_24">
    <path clip-path="url(#pd613e36ced)" d="M 163.778445 276.812 
L 163.778445 276.080119 
L 163.778445 276.080119 
L 163.778445 276.080119 
L 163.778445 275.348238 
L 163.778445 275.348238 
L 163.778445 275.348238 
L 163.778445 274.616356 
L 163.778445 274.616356 
L 163.778445 274.616356 
L 163.778445 273.884475 
L 163.778445 273.884475 
L 163.778445 273.884475 
L 163.778445 273.152594 
L 163.778445 273.152594 
L 163.778445 273.152594 
L 163.778445 272.420713 
L 163.778445 272.420713 
L 163.778445 272.420713 
L 163.778445 271.688832 
L 163.778445 271.688832 
L 163.778445 271.688832 
L 163.778445 270.95695 
L 163.778445 270.95695 
L 163.778445 270.95695 
L 163.778445 270.225069 
L 163.778445 270.225069 
L 163.778445 270.225069 
L 163.778445 269.493188 
L 163.778445 269.493188 
L 163.778445 269.493188 
L 163.778445 268.761307 
L 163.778445 268.761307 
L 163.778445 268.761307 
L 163.778445 268.029426 
L 163.778445 268.029426 
L 163.778445 268.029426 
L 163.778445 267.297545 
L 163.778445 267.297545 
L 163.778445 267.297545 
L 163.778445 266.565663 
L 163.778445 266.565663 
L 163.778445 266.565663 
L 163.778445 265.833782 
L 191.657714 265.833782 
L 191.657714 265.101901 
L 191.869106 265.101901 
L 191.869106 264.37002 
L 192.287277 264.37002 
L 192.287277 263.638139 
L 192.842704 263.638139 
L 192.879509 262.174376 
L 193.524951 262.174376 
L 193.540311 260.710614 
L 194.027093 260.710614 
L 194.027093 259.978733 
L 194.487965 259.978733 
L 194.487965 259.246851 
L 194.683746 259.246851 
L 194.683746 258.51497 
L 195.786234 258.51497 
L 195.786234 257.783089 
L 196.207786 257.783089 
L 196.268164 256.319327 
L 196.758035 256.319327 
L 196.758035 255.587446 
L 197.465723 255.587446 
L 197.465723 254.855564 
L 197.82709 254.855564 
L 197.82709 254.123683 
L 198.306376 254.123683 
L 198.306376 253.391802 
L 198.563851 253.391802 
L 198.563851 252.659921 
L 199.11009 252.659921 
L 199.11009 251.92804 
L 199.443646 251.92804 
L 199.443646 251.196158 
L 199.698923 251.196158 
L 199.796355 249.732396 
L 200.230714 249.732396 
L 200.230714 249.000515 
L 200.389848 249.000515 
L 200.389848 248.268634 
L 201.014694 248.268634 
L 201.014694 247.536752 
L 201.741125 247.536752 
L 201.741125 246.804871 
L 202.863037 246.804871 
L 202.863037 246.07299 
L 203.113922 246.07299 
L 203.113922 245.341109 
L 204.574495 245.341109 
L 204.574495 244.609228 
L 204.880318 244.609228 
L 204.880318 243.877347 
L 206.727835 243.877347 
L 206.727835 243.145465 
L 206.961738 243.145465 
L 206.961738 242.413584 
L 207.798347 242.413584 
L 207.875433 240.949822 
L 208.320863 240.949822 
L 208.320863 240.217941 
L 208.646495 240.217941 
L 208.646495 239.486059 
L 209.114136 239.486059 
L 209.203474 238.022297 
L 209.256943 238.022297 
L 209.256943 237.290416 
L 209.541696 237.290416 
L 209.541696 236.558535 
L 209.97458 236.558535 
L 209.97458 235.826653 
L 210.340684 235.826653 
L 210.441515 234.362891 
L 210.499362 234.362891 
L 210.499362 233.63101 
L 210.647694 233.63101 
L 210.707457 232.167248 
L 211.327007 232.167248 
L 211.3288 230.703485 
L 211.462978 230.703485 
L 211.545194 229.239723 
L 211.596668 229.239723 
L 211.596668 228.507842 
L 211.876834 228.507842 
L 211.878925 227.044079 
L 212.039153 227.044079 
L 212.113876 225.580317 
L 212.243109 225.580317 
L 212.354138 223.384673 
L 212.359865 223.384673 
L 212.359865 222.652792 
L 212.481244 222.652792 
L 212.481244 221.920911 
L 212.774408 221.920911 
L 212.861147 220.457149 
L 213.136236 220.457149 
L 213.193235 218.993386 
L 213.583048 218.993386 
L 213.662996 217.529624 
L 213.727117 217.529624 
L 213.727117 216.797743 
L 213.881967 216.797743 
L 213.881967 216.065861 
L 214.013957 216.065861 
L 214.013957 215.33398 
L 214.141808 215.33398 
L 214.141808 214.602099 
L 214.561439 214.602099 
L 214.66827 212.406455 
L 214.675857 212.406455 
L 214.783799 210.210812 
L 214.93062 210.210812 
L 214.966969 208.74705 
L 215.219228 208.74705 
L 215.301245 206.551406 
L 215.347303 206.551406 
L 215.415887 203.623881 
L 215.481908 203.623881 
L 215.569556 199.964475 
L 215.596012 199.964475 
L 215.705744 196.305069 
L 215.801184 196.305069 
L 215.912066 194.841307 
L 215.923894 194.841307 
L 216.031724 189.718139 
L 216.040797 189.718139 
L 216.040797 188.986257 
L 216.157961 188.986257 
L 216.157961 188.254376 
L 216.663666 188.254376 
L 216.663666 187.522495 
L 216.859427 187.522495 
L 216.859427 186.790614 
L 217.329209 186.790614 
L 217.329209 186.058733 
L 217.72925 186.058733 
L 217.72925 185.326851 
L 217.881565 185.326851 
L 217.881565 184.59497 
L 218.149907 184.59497 
L 218.149907 183.863089 
L 218.420753 183.863089 
L 218.462246 182.399327 
L 218.621142 182.399327 
L 218.621142 181.667446 
L 219.498511 181.667446 
L 219.531394 169.225465 
L 219.755035 169.225465 
L 219.755035 168.493584 
L 219.966869 168.493584 
L 219.966869 167.761703 
L 221.07689 167.761703 
L 221.07689 167.029822 
L 226.053287 167.029822 
L 226.09873 165.566059 
L 226.380321 165.566059 
L 226.380321 164.834178 
L 226.537436 164.834178 
L 226.537436 164.102297 
L 226.948696 164.102297 
L 227.050325 162.638535 
L 227.157252 162.638535 
L 227.157252 161.906653 
L 227.344492 161.906653 
L 227.344492 161.174772 
L 227.494736 161.174772 
L 227.494736 160.442891 
L 227.716757 160.442891 
L 227.823149 157.515366 
L 227.85725 157.515366 
L 227.920532 155.319723 
L 228.137686 155.319723 
L 228.137686 154.587842 
L 228.289112 154.587842 
L 228.323171 153.124079 
L 228.50922 153.124079 
L 228.50922 152.392198 
L 228.650844 152.392198 
L 228.695975 150.196554 
L 228.838446 150.196554 
L 228.851275 148.732792 
L 229.203059 148.732792 
L 229.203059 148.000911 
L 229.434929 148.000911 
L 229.502724 145.805267 
L 229.665035 145.805267 
L 229.665035 145.073386 
L 230.78255 145.073386 
L 230.78255 144.341505 
L 231.157632 144.341505 
L 231.157632 143.609624 
L 231.878973 143.609624 
L 231.934012 142.145861 
L 232.483866 142.145861 
L 232.483866 141.41398 
L 232.705266 141.41398 
L 232.705266 140.682099 
L 233.421985 140.682099 
L 233.459423 138.486455 
L 233.586218 138.486455 
L 233.586218 137.754574 
L 233.734607 137.754574 
L 233.784306 136.290812 
L 233.945349 136.290812 
L 234.042999 134.095168 
L 234.145879 134.095168 
L 234.165592 132.631406 
L 234.319229 132.631406 
L 234.372469 130.435762 
L 234.460854 130.435762 
L 234.484413 128.972 
L 234.612679 128.972 
L 234.612679 128.240119 
L 234.805054 128.240119 
L 234.805054 127.508238 
L 235.037526 127.508238 
L 235.051057 125.312594 
L 235.197885 125.312594 
L 235.197885 124.580713 
L 235.407729 124.580713 
L 235.512729 123.11695 
L 235.654171 123.11695 
L 235.714708 120.921307 
L 235.811606 120.921307 
L 235.891463 119.457545 
L 235.923293 119.457545 
L 235.923293 118.725663 
L 236.048225 118.725663 
L 236.112005 116.53002 
L 236.214132 116.53002 
L 236.284657 114.334376 
L 236.367613 114.334376 
L 236.367613 113.602495 
L 236.550191 113.602495 
L 236.646529 112.138733 
L 236.668622 112.138733 
L 236.668622 111.406851 
L 237.511932 111.406851 
L 237.545799 109.943089 
L 237.720755 109.943089 
L 237.720755 109.211208 
L 237.839642 109.211208 
L 237.849933 107.747446 
L 238.034275 107.747446 
L 238.134446 106.283683 
L 238.417647 106.283683 
L 238.417647 105.551802 
L 238.889317 105.551802 
L 238.889317 104.819921 
L 239.549506 104.819921 
L 239.549506 104.08804 
L 239.91044 104.08804 
L 239.963145 102.624277 
L 243.051922 102.624277 
L 243.073029 101.160515 
L 243.48866 101.160515 
L 243.489725 99.696752 
L 244.195959 99.696752 
L 244.230373 97.501109 
L 244.398572 97.501109 
L 244.398572 96.769228 
L 244.518718 96.769228 
L 244.518718 96.037347 
L 244.651496 96.037347 
L 244.651496 95.305465 
L 244.868837 95.305465 
L 244.91985 93.109822 
L 245.476321 93.109822 
L 245.476321 92.377941 
L 245.601797 92.377941 
L 245.67384 90.914178 
L 247.109156 90.914178 
L 247.109156 90.182297 
L 250.265366 90.182297 
L 250.265366 89.450416 
L 264.481282 89.450416 
L 264.481282 78.472198 
L 266.928508 78.472198 
L 266.928508 77.740317 
L 267.262575 77.740317 
L 267.262575 77.008436 
L 267.648865 77.008436 
L 267.648865 76.276554 
L 268.220578 76.276554 
L 268.220578 75.544673 
L 269.192868 75.544673 
L 269.192868 74.812792 
L 269.412529 74.812792 
L 269.412529 74.080911 
L 271.11148 74.080911 
L 271.11148 73.34903 
L 271.318741 73.34903 
L 271.318741 72.617149 
L 272.812146 72.617149 
L 272.862183 71.153386 
L 272.947749 71.153386 
L 273.049998 69.689624 
L 273.857242 69.689624 
L 273.857242 68.957743 
L 273.987618 68.957743 
L 273.99098 67.49398 
L 275.617405 67.49398 
L 275.617405 66.762099 
L 276.416944 66.762099 
L 276.416944 66.030218 
L 276.537973 66.030218 
L 276.537973 65.298337 
L 277.545521 65.298337 
L 277.545521 64.566455 
L 278.104357 64.566455 
L 278.104357 63.834574 
L 281.566191 63.834574 
L 281.566191 63.102693 
L 282.086847 63.102693 
L 282.086847 62.370812 
L 282.494207 62.370812 
L 282.494207 61.638931 
L 283.184518 61.638931 
L 283.184518 60.90705 
L 283.590775 60.90705 
L 283.590775 60.175168 
L 287.774517 60.175168 
L 287.774517 59.443287 
L 288.209095 59.443287 
L 288.209095 58.711406 
L 290.439157 58.711406 
L 290.439157 57.979525 
L 291.689582 57.979525 
L 291.689582 57.247644 
L 293.280064 57.247644 
L 293.280064 56.515762 
L 295.162496 56.515762 
L 295.206742 55.052 
L 295.531729 55.052 
L 295.535704 53.588238 
L 296.053791 53.588238 
L 296.053791 52.856356 
L 297.003436 52.856356 
L 297.08908 51.392594 
L 297.192232 51.392594 
L 297.192232 50.660713 
L 298.143637 50.660713 
L 298.143637 49.928832 
L 300.085801 49.928832 
L 300.085801 49.19695 
L 300.898471 49.19695 
L 300.898471 48.465069 
L 305.218385 48.465069 
L 305.218385 47.733188 
L 306.603176 47.733188 
L 306.603176 47.001307 
L 307.970682 47.001307 
L 307.970682 46.269426 
L 310.241108 46.269426 
L 310.241108 45.537545 
L 310.731604 45.537545 
L 310.731604 44.805663 
L 310.8939 44.805663 
L 310.8939 44.073782 
L 311.038422 44.073782 
L 311.038422 43.341901 
L 311.480751 43.341901 
L 311.480751 42.61002 
L 312.071039 42.61002 
L 312.071039 41.878139 
L 312.616775 41.878139 
L 312.616775 41.146257 
L 312.959327 41.146257 
L 312.973333 39.682495 
L 313.227946 39.682495 
L 313.227946 38.950614 
L 313.39388 38.950614 
L 313.474493 37.486851 
L 314.841042 37.486851 
L 314.841042 36.75497 
L 315.060472 36.75497 
L 315.060472 36.023089 
L 315.534613 36.023089 
L 315.625022 34.559327 
L 316.589217 34.559327 
L 316.589217 33.827446 
L 317.68334 33.827446 
L 317.68334 33.095564 
L 317.973388 33.095564 
L 317.973388 32.363683 
L 318.632059 32.363683 
L 318.632059 31.631802 
L 319.068916 31.631802 
L 319.068916 30.899921 
L 319.962887 30.899921 
L 320.072627 29.436158 
L 320.157058 29.436158 
L 320.157058 28.704277 
L 320.518167 28.704277 
L 320.518167 27.972396 
L 320.794399 27.972396 
L 320.794399 27.240515 
L 321.853518 27.240515 
L 321.853518 26.508634 
L 322.008837 26.508634 
L 322.008837 25.776752 
L 322.926784 25.776752 
L 322.926784 25.044871 
L 328.918987 25.044871 
L 328.918987 24.31299 
L 341.002144 24.31299 
L 341.002144 23.581109 
L 343.68833 23.581109 
L 343.68833 22.849228 
L 343.819474 22.849228 
L 343.819474 22.117347 
L 344.905846 22.117347 
L 344.912337 20.653584 
L 345.561391 20.653584 
L 345.561391 19.921703 
L 346.235667 19.921703 
L 346.235667 19.189822 
L 348.914753 19.189822 
L 348.914753 18.457941 
L 351.292667 18.457941 
L 351.292667 17.726059 
L 351.632477 17.726059 
L 351.632477 16.994178 
L 352.598499 16.994178 
L 352.598499 16.262297 
L 353.175109 16.262297 
L 353.175109 15.530416 
L 354.351655 15.530416 
L 354.351655 14.798535 
L 355.224465 14.798535 
L 355.224465 14.066653 
L 358.103735 14.066653 
L 358.103735 13.334772 
L 358.103735 13.334772 
L 367.82 13.334772 
L 367.82 13.334772 
" style="fill:none;stroke:#00bfbf;stroke-linecap:square;stroke-width:1.5;"/>
   </g>
   <g id="line2d_25">
    <path clip-path="url(#pd613e36ced)" d="M 163.778445 276.812 
L 163.778445 276.080119 
L 163.778445 276.080119 
L 163.778445 276.080119 
L 163.778445 275.348238 
L 163.778445 275.348238 
L 163.778445 275.348238 
L 163.778445 274.616356 
L 163.778445 274.616356 
L 163.778445 274.616356 
L 163.778445 273.884475 
L 163.778445 273.884475 
L 163.778445 273.884475 
L 163.778445 273.152594 
L 163.778445 273.152594 
L 163.778445 273.152594 
L 163.778445 272.420713 
L 163.778445 272.420713 
L 163.778445 272.420713 
L 163.778445 271.688832 
L 163.778445 271.688832 
L 163.778445 271.688832 
L 163.778445 270.95695 
L 163.778445 270.95695 
L 163.778445 270.95695 
L 163.778445 270.225069 
L 163.778445 270.225069 
L 163.778445 270.225069 
L 163.778445 269.493188 
L 163.778445 269.493188 
L 163.778445 269.493188 
L 163.778445 268.761307 
L 163.778445 268.761307 
L 163.778445 268.761307 
L 163.778445 268.029426 
L 163.778445 268.029426 
L 163.778445 268.029426 
L 163.778445 267.297545 
L 163.778445 267.297545 
L 163.778445 267.297545 
L 163.778445 266.565663 
L 163.778445 266.565663 
L 163.778445 266.565663 
L 163.778445 265.833782 
L 186.748351 265.833782 
L 186.748351 265.101901 
L 189.596316 265.101901 
L 189.596316 264.37002 
L 191.058088 264.37002 
L 191.058088 263.638139 
L 191.657714 263.638139 
L 191.657714 262.906257 
L 191.869106 262.906257 
L 191.869106 262.174376 
L 192.227509 262.174376 
L 192.287277 260.710614 
L 192.554796 260.710614 
L 192.554796 259.978733 
L 192.842704 259.978733 
L 192.842704 259.246851 
L 192.982275 259.246851 
L 192.982275 258.51497 
L 193.400188 258.51497 
L 193.400188 257.783089 
L 193.524951 257.783089 
L 193.524951 257.051208 
L 195.756206 257.051208 
L 195.786234 255.587446 
L 197.465723 255.587446 
L 197.465723 254.855564 
L 197.82709 254.855564 
L 197.82709 254.123683 
L 198.136308 254.123683 
L 198.136308 253.391802 
L 198.306376 253.391802 
L 198.306376 252.659921 
L 198.563851 252.659921 
L 198.563851 251.92804 
L 198.813186 251.92804 
L 198.813186 251.196158 
L 199.11009 251.196158 
L 199.11009 250.464277 
L 199.698923 250.464277 
L 199.796355 249.000515 
L 200.230714 249.000515 
L 200.230714 248.268634 
L 200.389848 248.268634 
L 200.389848 247.536752 
L 200.785045 247.536752 
L 200.785045 246.804871 
L 201.741125 246.804871 
L 201.741125 246.07299 
L 202.863037 246.07299 
L 202.863037 245.341109 
L 203.113922 245.341109 
L 203.113922 244.609228 
L 204.574495 244.609228 
L 204.574495 243.877347 
L 204.880318 243.877347 
L 204.880318 243.145465 
L 206.961738 243.145465 
L 206.961738 242.413584 
L 207.102796 242.413584 
L 207.102796 241.681703 
L 207.798347 241.681703 
L 207.875433 240.217941 
L 208.320863 240.217941 
L 208.320863 239.486059 
L 208.646495 239.486059 
L 208.646495 238.754178 
L 209.114136 238.754178 
L 209.203474 237.290416 
L 209.256943 237.290416 
L 209.257038 235.826653 
L 209.474988 235.826653 
L 209.541696 234.362891 
L 209.895589 234.362891 
L 209.97458 232.899129 
L 210.189796 232.899129 
L 210.189796 232.167248 
L 210.340684 232.167248 
L 210.441515 229.971604 
L 210.499362 229.971604 
L 210.499362 229.239723 
L 210.647694 229.239723 
L 210.70204 227.77596 
L 210.895641 227.77596 
L 210.895641 227.044079 
L 211.244718 227.044079 
L 211.3288 224.848436 
L 211.462978 224.848436 
L 211.462978 224.116554 
L 211.596668 224.116554 
L 211.596668 223.384673 
L 211.876834 223.384673 
L 211.876834 222.652792 
L 212.113876 222.652792 
L 212.146454 220.457149 
L 212.29349 220.457149 
L 212.359865 218.261505 
L 212.544345 218.261505 
L 212.544345 217.529624 
L 212.774408 217.529624 
L 212.861147 216.065861 
L 213.136236 216.065861 
L 213.136236 215.33398 
L 213.583048 215.33398 
L 213.583048 214.602099 
L 214.013957 214.602099 
L 214.013957 213.870218 
L 214.561439 213.870218 
L 214.66827 211.674574 
L 214.675857 211.674574 
L 214.783799 208.74705 
L 214.93062 208.74705 
L 214.966969 207.283287 
L 215.146916 207.283287 
L 215.232849 205.087644 
L 215.301245 205.087644 
L 215.385621 202.160119 
L 215.415887 202.160119 
L 215.481908 200.696356 
L 215.529778 200.696356 
L 215.596012 196.305069 
L 215.646282 196.305069 
L 215.667741 194.841307 
L 215.801184 194.841307 
L 215.912066 193.377545 
L 215.923894 193.377545 
L 216.031724 188.254376 
L 216.087227 188.254376 
L 216.087227 187.522495 
L 216.663666 187.522495 
L 216.663666 186.790614 
L 216.859427 186.790614 
L 216.859427 186.058733 
L 217.72925 186.058733 
L 217.72925 185.326851 
L 217.881565 185.326851 
L 217.881565 184.59497 
L 218.149907 184.59497 
L 218.149907 183.863089 
L 218.420753 183.863089 
L 218.462246 182.399327 
L 218.621142 182.399327 
L 218.621142 181.667446 
L 219.048775 181.667446 
L 219.048775 180.935564 
L 219.507119 180.935564 
L 219.531394 169.225465 
L 219.755035 169.225465 
L 219.755035 168.493584 
L 219.966869 168.493584 
L 219.966869 167.761703 
L 221.07689 167.761703 
L 221.07689 167.029822 
L 224.275064 167.029822 
L 224.275064 166.297941 
L 225.374292 166.297941 
L 225.374292 165.566059 
L 226.053287 165.566059 
L 226.09873 164.102297 
L 226.238227 164.102297 
L 226.238227 163.370416 
L 226.37178 163.370416 
L 226.37178 162.638535 
L 226.537436 162.638535 
L 226.537436 161.906653 
L 226.94603 161.906653 
L 227.050388 158.979129 
L 227.099861 158.979129 
L 227.107676 157.515366 
L 227.386625 157.515366 
L 227.386625 156.783485 
L 227.55982 156.783485 
L 227.613019 155.319723 
L 227.716757 155.319723 
L 227.823149 152.392198 
L 227.895821 152.392198 
L 227.895821 151.660317 
L 228.289112 151.660317 
L 228.323171 150.196554 
L 228.650844 150.196554 
L 228.695975 148.000911 
L 228.838446 148.000911 
L 228.880234 146.537149 
L 229.203059 146.537149 
L 229.203059 145.805267 
L 229.50106 145.805267 
L 229.50106 145.073386 
L 229.665035 145.073386 
L 229.665035 144.341505 
L 230.78255 144.341505 
L 230.877093 142.877743 
L 231.157632 142.877743 
L 231.157632 142.145861 
L 231.612726 142.145861 
L 231.612726 141.41398 
L 231.878973 141.41398 
L 231.934012 139.950218 
L 232.483866 139.950218 
L 232.483866 139.218337 
L 232.705266 139.218337 
L 232.705266 138.486455 
L 233.147274 138.486455 
L 233.147274 137.754574 
L 233.421985 137.754574 
L 233.459423 135.558931 
L 233.586218 135.558931 
L 233.586218 134.82705 
L 233.734607 134.82705 
L 233.784306 133.363287 
L 233.945349 133.363287 
L 234.042999 131.167644 
L 234.145879 131.167644 
L 234.165592 129.703881 
L 234.319229 129.703881 
L 234.372469 127.508238 
L 234.460854 127.508238 
L 234.484413 126.044475 
L 234.612679 126.044475 
L 234.612679 125.312594 
L 234.805054 125.312594 
L 234.805054 124.580713 
L 235.037526 124.580713 
L 235.051057 122.385069 
L 235.186314 122.385069 
L 235.197885 120.921307 
L 235.407729 120.921307 
L 235.512729 119.457545 
L 235.654171 119.457545 
L 235.714708 117.261901 
L 235.811606 117.261901 
L 235.891463 115.798139 
L 235.923293 115.798139 
L 235.923293 115.066257 
L 236.048225 115.066257 
L 236.124032 112.870614 
L 236.214132 112.870614 
L 236.268818 111.406851 
L 236.356352 111.406851 
L 236.367613 109.943089 
L 236.550191 109.943089 
L 236.646529 107.747446 
L 237.172619 107.747446 
L 237.22756 106.283683 
L 237.511932 106.283683 
L 237.511932 105.551802 
L 237.839642 105.551802 
L 237.839642 104.819921 
L 238.034275 104.819921 
L 238.134446 103.356158 
L 238.417647 103.356158 
L 238.417647 102.624277 
L 238.889317 102.624277 
L 238.889317 101.892396 
L 239.126273 101.892396 
L 239.126273 101.160515 
L 242.655368 101.160515 
L 242.655368 100.428634 
L 243.051922 100.428634 
L 243.073029 98.964871 
L 243.174828 98.964871 
L 243.174828 98.23299 
L 243.48866 98.23299 
L 243.489725 96.769228 
L 244.195959 96.769228 
L 244.230373 94.573584 
L 244.337639 94.573584 
L 244.398572 93.109822 
L 244.518718 93.109822 
L 244.518718 92.377941 
L 244.651496 92.377941 
L 244.651496 91.646059 
L 244.91358 91.646059 
L 244.91358 90.914178 
L 245.063711 90.914178 
L 245.116189 89.450416 
L 245.601797 89.450416 
L 245.67384 87.986653 
L 249.779846 87.986653 
L 249.779846 87.254772 
L 250.265366 87.254772 
L 250.265366 86.522891 
L 250.704478 86.522891 
L 250.704478 85.79101 
L 262.619979 85.79101 
L 262.619979 85.059129 
L 264.481282 85.059129 
L 264.481282 74.080911 
L 267.262575 74.080911 
L 267.262575 73.34903 
L 267.648865 73.34903 
L 267.648865 72.617149 
L 268.220578 72.617149 
L 268.220578 71.885267 
L 269.192868 71.885267 
L 269.192868 71.153386 
L 269.412529 71.153386 
L 269.412529 70.421505 
L 270.68691 70.421505 
L 270.68691 69.689624 
L 271.11148 69.689624 
L 271.11148 68.957743 
L 271.318741 68.957743 
L 271.318741 68.225861 
L 272.812146 68.225861 
L 272.862183 66.762099 
L 272.947749 66.762099 
L 273.049998 65.298337 
L 273.245616 65.298337 
L 273.245616 64.566455 
L 273.857242 64.566455 
L 273.857242 63.834574 
L 273.99098 63.834574 
L 273.99098 63.102693 
L 276.416944 63.102693 
L 276.416944 62.370812 
L 276.537973 62.370812 
L 276.537973 61.638931 
L 277.545521 61.638931 
L 277.545521 60.90705 
L 278.104357 60.90705 
L 278.104357 60.175168 
L 281.566191 60.175168 
L 281.566191 59.443287 
L 283.071681 59.443287 
L 283.071681 58.711406 
L 283.184518 58.711406 
L 283.184518 57.979525 
L 285.560438 57.979525 
L 285.560438 57.247644 
L 287.774517 57.247644 
L 287.774517 56.515762 
L 290.1624 56.515762 
L 290.1624 55.783881 
L 291.547926 55.783881 
L 291.547926 55.052 
L 291.689582 55.052 
L 291.689582 54.320119 
L 292.846472 54.320119 
L 292.846472 53.588238 
L 293.280064 53.588238 
L 293.280064 52.856356 
L 295.162496 52.856356 
L 295.162496 52.124475 
L 295.473932 52.124475 
L 295.548589 49.928832 
L 296.539478 49.928832 
L 296.539478 49.19695 
L 297.003436 49.19695 
L 297.08908 47.733188 
L 298.038989 47.733188 
L 298.038989 47.001307 
L 304.569954 47.001307 
L 304.569954 46.269426 
L 306.603176 46.269426 
L 306.603176 45.537545 
L 307.970682 45.537545 
L 307.970682 44.805663 
L 310.459223 44.805663 
L 310.459223 44.073782 
L 310.731604 44.073782 
L 310.731604 43.341901 
L 310.8939 43.341901 
L 310.8939 42.61002 
L 311.038422 42.61002 
L 311.038422 41.878139 
L 311.480751 41.878139 
L 311.480751 41.146257 
L 311.818861 41.146257 
L 311.818861 40.414376 
L 312.071039 40.414376 
L 312.071039 39.682495 
L 312.616775 39.682495 
L 312.722311 38.218733 
L 312.786389 38.218733 
L 312.786389 37.486851 
L 312.959327 37.486851 
L 312.973333 36.023089 
L 313.227946 36.023089 
L 313.227946 35.291208 
L 313.474493 35.291208 
L 313.522899 33.827446 
L 314.542286 33.827446 
L 314.542286 33.095564 
L 314.841042 33.095564 
L 314.944189 31.631802 
L 315.060472 31.631802 
L 315.060472 30.899921 
L 315.534613 30.899921 
L 315.55097 29.436158 
L 315.941952 29.436158 
L 315.941952 28.704277 
L 316.380272 28.704277 
L 316.380272 27.972396 
L 317.551186 27.972396 
L 317.551186 27.240515 
L 317.68334 27.240515 
L 317.68334 26.508634 
L 317.897791 26.508634 
L 317.897791 25.776752 
L 321.840278 25.776752 
L 321.840278 25.044871 
L 322.008837 25.044871 
L 322.008837 24.31299 
L 341.002144 24.31299 
L 341.002144 23.581109 
L 343.68833 23.581109 
L 343.68833 22.849228 
L 343.819474 22.849228 
L 343.819474 22.117347 
L 344.905846 22.117347 
L 344.912337 20.653584 
L 345.561391 20.653584 
L 345.561391 19.921703 
L 346.235667 19.921703 
L 346.235667 19.189822 
L 348.914753 19.189822 
L 348.914753 18.457941 
L 349.428797 18.457941 
L 349.428797 17.726059 
L 351.292667 17.726059 
L 351.292667 16.994178 
L 351.632477 16.994178 
L 351.632477 16.262297 
L 352.60917 16.262297 
L 352.719794 14.798535 
L 353.175109 14.798535 
L 353.175109 14.066653 
L 358.103735 14.066653 
L 358.103735 13.334772 
L 358.103735 13.334772 
L 367.82 13.334772 
L 367.82 13.334772 
" style="fill:none;stroke:#bf00bf;stroke-linecap:square;stroke-width:1.5;"/>
   </g>
   <g id="patch_3">
    <path d="M 10.7 276.812 
L 10.7 10.7 
" style="fill:none;stroke:#000000;stroke-linecap:square;stroke-linejoin:miter;stroke-width:0.8;"/>
   </g>
   <g id="patch_4">
    <path d="M 367.82 276.812 
L 367.82 10.7 
" style="fill:none;stroke:#000000;stroke-linecap:square;stroke-linejoin:miter;stroke-width:0.8;"/>
   </g>
   <g id="patch_5">
    <path d="M 10.7 276.812 
L 367.82 276.812 
" style="fill:none;stroke:#000000;stroke-linecap:square;stroke-linejoin:miter;stroke-width:0.8;"/>
   </g>
   <g id="patch_6">
    <path d="M 10.7 10.7 
L 367.82 10.7 
" style="fill:none;stroke:#000000;stroke-linecap:square;stroke-linejoin:miter;stroke-width:0.8;"/>
   </g>
   <g id="text_6">
    <!-- {f1-f24}, 20-D -->
    <defs>
     <path d="M 51.125 -9.28125 
L 51.125 -16.3125 
L 48.09375 -16.3125 
Q 35.9375 -16.3125 31.8125 -12.6875 
Q 27.6875 -9.078125 27.6875 1.703125 
L 27.6875 13.375 
Q 27.6875 20.75 25.046875 23.578125 
Q 22.40625 26.421875 15.484375 26.421875 
L 12.5 26.421875 
L 12.5 33.40625 
L 15.484375 33.40625 
Q 22.46875 33.40625 25.078125 36.203125 
Q 27.6875 39.015625 27.6875 46.296875 
L 27.6875 58.015625 
Q 27.6875 68.796875 31.8125 72.390625 
Q 35.9375 75.984375 48.09375 75.984375 
L 51.125 75.984375 
L 51.125 69 
L 47.796875 69 
Q 40.921875 69 38.8125 66.84375 
Q 36.71875 64.703125 36.71875 57.8125 
L 36.71875 45.703125 
Q 36.71875 38.03125 34.5 34.5625 
Q 32.28125 31.109375 26.90625 29.890625 
Q 32.328125 28.5625 34.515625 25.09375 
Q 36.71875 21.625 36.71875 14.015625 
L 36.71875 1.90625 
Q 36.71875 -4.984375 38.8125 -7.125 
Q 40.921875 -9.28125 47.796875 -9.28125 
z
" id="DejaVuSans-7b"/>
     <path d="M 19.1875 8.296875 
L 53.609375 8.296875 
L 53.609375 0 
L 7.328125 0 
L 7.328125 8.296875 
Q 12.9375 14.109375 22.625 23.890625 
Q 32.328125 33.6875 34.8125 36.53125 
Q 39.546875 41.84375 41.421875 45.53125 
Q 43.3125 49.21875 43.3125 52.78125 
Q 43.3125 58.59375 39.234375 62.25 
Q 35.15625 65.921875 28.609375 65.921875 
Q 23.96875 65.921875 18.8125 64.3125 
Q 13.671875 62.703125 7.8125 59.421875 
L 7.8125 69.390625 
Q 13.765625 71.78125 18.9375 73 
Q 24.125 74.21875 28.421875 74.21875 
Q 39.75 74.21875 46.484375 68.546875 
Q 53.21875 62.890625 53.21875 53.421875 
Q 53.21875 48.921875 51.53125 44.890625 
Q 49.859375 40.875 45.40625 35.40625 
Q 44.1875 33.984375 37.640625 27.21875 
Q 31.109375 20.453125 19.1875 8.296875 
" id="DejaVuSans-32"/>
     <path d="M 12.5 -9.28125 
L 15.921875 -9.28125 
Q 22.75 -9.28125 24.828125 -7.171875 
Q 26.90625 -5.078125 26.90625 1.90625 
L 26.90625 14.015625 
Q 26.90625 21.625 29.09375 25.09375 
Q 31.296875 28.5625 36.71875 29.890625 
Q 31.296875 31.109375 29.09375 34.5625 
Q 26.90625 38.03125 26.90625 45.703125 
L 26.90625 57.8125 
Q 26.90625 64.75 24.828125 66.875 
Q 22.75 69 15.921875 69 
L 12.5 69 
L 12.5 75.984375 
L 15.578125 75.984375 
Q 27.734375 75.984375 31.8125 72.390625 
Q 35.890625 68.796875 35.890625 58.015625 
L 35.890625 46.296875 
Q 35.890625 39.015625 38.515625 36.203125 
Q 41.15625 33.40625 48.09375 33.40625 
L 51.125 33.40625 
L 51.125 26.421875 
L 48.09375 26.421875 
Q 41.15625 26.421875 38.515625 23.578125 
Q 35.890625 20.75 35.890625 13.375 
L 35.890625 1.703125 
Q 35.890625 -9.078125 31.8125 -12.6875 
Q 27.734375 -16.3125 15.578125 -16.3125 
L 12.5 -16.3125 
z
" id="DejaVuSans-7d"/>
     <path d="M 11.71875 12.40625 
L 22.015625 12.40625 
L 22.015625 4 
L 14.015625 -11.625 
L 7.71875 -11.625 
L 11.71875 4 
z
" id="DejaVuSans-2c"/>
    </defs>
    <g transform="translate(214.9776 271.48976)scale(0.2 -0.2)">
     <use xlink:href="#DejaVuSans-7b"/>
     <use x="63.623047" xlink:href="#DejaVuSans-66"/>
     <use x="98.828125" xlink:href="#DejaVuSans-31"/>
     <use x="162.451172" xlink:href="#DejaVuSans-2d"/>
     <use x="198.535156" xlink:href="#DejaVuSans-66"/>
     <use x="233.740234" xlink:href="#DejaVuSans-32"/>
     <use x="297.363281" xlink:href="#DejaVuSans-34"/>
     <use x="360.986328" xlink:href="#DejaVuSans-7d"/>
     <use x="424.609375" xlink:href="#DejaVuSans-2c"/>
     <use x="456.396484" xlink:href="#DejaVuSans-20"/>
     <use x="488.183594" xlink:href="#DejaVuSans-32"/>
     <use x="551.806641" xlink:href="#DejaVuSans-30"/>
     <use x="615.429688" xlink:href="#DejaVuSans-2d"/>
     <use x="651.513672" xlink:href="#DejaVuSans-44"/>
    </g>
   </g>
   <g id="text_7">
    <!-- v2.1 -->
    <defs>
     <path d="M 2.984375 54.6875 
L 12.5 54.6875 
L 29.59375 8.796875 
L 46.6875 54.6875 
L 56.203125 54.6875 
L 35.6875 0 
L 23.484375 0 
z
" id="DejaVuSans-76"/>
     <path d="M 10.6875 12.40625 
L 21 12.40625 
L 21 0 
L 10.6875 0 
z
" id="DejaVuSans-2e"/>
    </defs>
    <g style="fill:#808080;" transform="translate(178.349063 272.071193)scale(0.1 -0.1)">
     <use xlink:href="#DejaVuSans-76"/>
     <use x="59.179688" xlink:href="#DejaVuSans-32"/>
     <use x="122.802734" xlink:href="#DejaVuSans-2e"/>
     <use x="154.589844" xlink:href="#DejaVuSans-31"/>
    </g>
   </g>
  </g>
 </g>
 <defs>
  <clipPath id="pd613e36ced">
   <rect height="266.112" width="357.12" x="10.7" y="10.7"/>
  </clipPath>
 </defs>
</svg>
