<?xml version="1.0" encoding="utf-8" standalone="no"?>
<!DOCTYPE svg PUBLIC "-//W3C//DTD SVG 1.1//EN"
  "http://www.w3.org/Graphics/SVG/1.1/DTD/svg11.dtd">
<!-- Created with matplotlib (http://matplotlib.org/) -->
<svg height="333pt" version="1.1" viewBox="0 0 378 333" width="378pt" xmlns="http://www.w3.org/2000/svg" xmlns:xlink="http://www.w3.org/1999/xlink">
 <defs>
  <style type="text/css">
*{stroke-linecap:butt;stroke-linejoin:round;}
  </style>
 </defs>
 <g id="figure_1">
  <g id="patch_1">
   <path d="M 0 333.7245 
L 378.52 333.7245 
L 378.52 0 
L 0 0 
z
" style="fill:#ffffff;"/>
  </g>
  <g id="axes_1">
   <g id="patch_2">
    <path d="M 10.7 276.812 
L 367.82 276.812 
L 367.82 10.7 
L 10.7 10.7 
z
" style="fill:#ffffff;"/>
   </g>
   <g id="matplotlib.axis_1">
    <g id="xtick_1">
     <g id="line2d_1">
      <path clip-path="url(#p3a97a25df8)" d="M 10.609699 276.812 
L 10.609699 10.7 
" style="fill:none;stroke:#b0b0b0;stroke-linecap:square;stroke-width:0.8;"/>
     </g>
     <g id="line2d_2">
      <defs>
       <path d="M 0 0 
L 0 3.5 
" id="m57b1c1b4e8" style="stroke:#000000;stroke-width:0.8;"/>
      </defs>
      <g>
       <use style="stroke:#000000;stroke-width:0.8;" x="10.609699" xlink:href="#m57b1c1b4e8" y="276.812"/>
      </g>
     </g>
    </g>
    <g id="xtick_2">
     <g id="line2d_3">
      <path clip-path="url(#p3a97a25df8)" d="M 94.195204 276.812 
L 94.195204 10.7 
" style="fill:none;stroke:#b0b0b0;stroke-linecap:square;stroke-width:0.8;"/>
     </g>
     <g id="line2d_4">
      <g>
       <use style="stroke:#000000;stroke-width:0.8;" x="94.195204" xlink:href="#m57b1c1b4e8" y="276.812"/>
      </g>
     </g>
     <g id="text_1">
      <!-- -4 -->
      <defs>
       <path d="M 4.890625 31.390625 
L 31.203125 31.390625 
L 31.203125 23.390625 
L 4.890625 23.390625 
z
" id="DejaVuSans-2d"/>
       <path d="M 37.796875 64.3125 
L 12.890625 25.390625 
L 37.796875 25.390625 
z
M 35.203125 72.90625 
L 47.609375 72.90625 
L 47.609375 25.390625 
L 58.015625 25.390625 
L 58.015625 17.1875 
L 47.609375 17.1875 
L 47.609375 0 
L 37.796875 0 
L 37.796875 17.1875 
L 4.890625 17.1875 
L 4.890625 26.703125 
z
" id="DejaVuSans-34"/>
      </defs>
      <g transform="translate(84.224892 299.008875)scale(0.2 -0.2)">
       <use xlink:href="#DejaVuSans-2d"/>
       <use x="36.083984" xlink:href="#DejaVuSans-34"/>
      </g>
     </g>
    </g>
    <g id="xtick_3">
     <g id="line2d_5">
      <path clip-path="url(#p3a97a25df8)" d="M 177.780709 276.812 
L 177.780709 10.7 
" style="fill:none;stroke:#b0b0b0;stroke-linecap:square;stroke-width:0.8;"/>
     </g>
     <g id="line2d_6">
      <g>
       <use style="stroke:#000000;stroke-width:0.8;" x="177.780709" xlink:href="#m57b1c1b4e8" y="276.812"/>
      </g>
     </g>
     <g id="text_2">
      <!-- 0 -->
      <defs>
       <path d="M 31.78125 66.40625 
Q 24.171875 66.40625 20.328125 58.90625 
Q 16.5 51.421875 16.5 36.375 
Q 16.5 21.390625 20.328125 13.890625 
Q 24.171875 6.390625 31.78125 6.390625 
Q 39.453125 6.390625 43.28125 13.890625 
Q 47.125 21.390625 47.125 36.375 
Q 47.125 51.421875 43.28125 58.90625 
Q 39.453125 66.40625 31.78125 66.40625 
M 31.78125 74.21875 
Q 44.046875 74.21875 50.515625 64.515625 
Q 56.984375 54.828125 56.984375 36.375 
Q 56.984375 17.96875 50.515625 8.265625 
Q 44.046875 -1.421875 31.78125 -1.421875 
Q 19.53125 -1.421875 13.0625 8.265625 
Q 6.59375 17.96875 6.59375 36.375 
Q 6.59375 54.828125 13.0625 64.515625 
Q 19.53125 74.21875 31.78125 74.21875 
" id="DejaVuSans-30"/>
      </defs>
      <g transform="translate(171.418209 299.008875)scale(0.2 -0.2)">
       <use xlink:href="#DejaVuSans-30"/>
      </g>
     </g>
    </g>
    <g id="xtick_4">
     <g id="line2d_7">
      <path clip-path="url(#p3a97a25df8)" d="M 261.366214 276.812 
L 261.366214 10.7 
" style="fill:none;stroke:#b0b0b0;stroke-linecap:square;stroke-width:0.8;"/>
     </g>
     <g id="line2d_8">
      <g>
       <use style="stroke:#000000;stroke-width:0.8;" x="261.366214" xlink:href="#m57b1c1b4e8" y="276.812"/>
      </g>
     </g>
     <g id="text_3">
      <!-- 4 -->
      <g transform="translate(255.003714 299.008875)scale(0.2 -0.2)">
       <use xlink:href="#DejaVuSans-34"/>
      </g>
     </g>
    </g>
    <g id="xtick_5">
     <g id="line2d_9">
      <path clip-path="url(#p3a97a25df8)" d="M 344.951719 276.812 
L 344.951719 10.7 
" style="fill:none;stroke:#b0b0b0;stroke-linecap:square;stroke-width:0.8;"/>
     </g>
     <g id="line2d_10">
      <g>
       <use style="stroke:#000000;stroke-width:0.8;" x="344.951719" xlink:href="#m57b1c1b4e8" y="276.812"/>
      </g>
     </g>
     <g id="text_4">
      <!-- 8 -->
      <defs>
       <path d="M 31.78125 34.625 
Q 24.75 34.625 20.71875 30.859375 
Q 16.703125 27.09375 16.703125 20.515625 
Q 16.703125 13.921875 20.71875 10.15625 
Q 24.75 6.390625 31.78125 6.390625 
Q 38.8125 6.390625 42.859375 10.171875 
Q 46.921875 13.96875 46.921875 20.515625 
Q 46.921875 27.09375 42.890625 30.859375 
Q 38.875 34.625 31.78125 34.625 
M 21.921875 38.8125 
Q 15.578125 40.375 12.03125 44.71875 
Q 8.5 49.078125 8.5 55.328125 
Q 8.5 64.0625 14.71875 69.140625 
Q 20.953125 74.21875 31.78125 74.21875 
Q 42.671875 74.21875 48.875 69.140625 
Q 55.078125 64.0625 55.078125 55.328125 
Q 55.078125 49.078125 51.53125 44.71875 
Q 48 40.375 41.703125 38.8125 
Q 48.828125 37.15625 52.796875 32.3125 
Q 56.78125 27.484375 56.78125 20.515625 
Q 56.78125 9.90625 50.3125 4.234375 
Q 43.84375 -1.421875 31.78125 -1.421875 
Q 19.734375 -1.421875 13.25 4.234375 
Q 6.78125 9.90625 6.78125 20.515625 
Q 6.78125 27.484375 10.78125 32.3125 
Q 14.796875 37.15625 21.921875 38.8125 
M 18.3125 54.390625 
Q 18.3125 48.734375 21.84375 45.5625 
Q 25.390625 42.390625 31.78125 42.390625 
Q 38.140625 42.390625 41.71875 45.5625 
Q 45.3125 48.734375 45.3125 54.390625 
Q 45.3125 60.0625 41.71875 63.234375 
Q 38.140625 66.40625 31.78125 66.40625 
Q 25.390625 66.40625 21.84375 63.234375 
Q 18.3125 60.0625 18.3125 54.390625 
" id="DejaVuSans-38"/>
      </defs>
      <g transform="translate(338.589219 299.008875)scale(0.2 -0.2)">
       <use xlink:href="#DejaVuSans-38"/>
      </g>
     </g>
    </g>
    <g id="text_5">
     <!-- log10 of Df -->
     <defs>
      <path d="M 9.421875 75.984375 
L 18.40625 75.984375 
L 18.40625 0 
L 9.421875 0 
z
" id="DejaVuSans-6c"/>
      <path d="M 30.609375 48.390625 
Q 23.390625 48.390625 19.1875 42.75 
Q 14.984375 37.109375 14.984375 27.296875 
Q 14.984375 17.484375 19.15625 11.84375 
Q 23.34375 6.203125 30.609375 6.203125 
Q 37.796875 6.203125 41.984375 11.859375 
Q 46.1875 17.53125 46.1875 27.296875 
Q 46.1875 37.015625 41.984375 42.703125 
Q 37.796875 48.390625 30.609375 48.390625 
M 30.609375 56 
Q 42.328125 56 49.015625 48.375 
Q 55.71875 40.765625 55.71875 27.296875 
Q 55.71875 13.875 49.015625 6.21875 
Q 42.328125 -1.421875 30.609375 -1.421875 
Q 18.84375 -1.421875 12.171875 6.21875 
Q 5.515625 13.875 5.515625 27.296875 
Q 5.515625 40.765625 12.171875 48.375 
Q 18.84375 56 30.609375 56 
" id="DejaVuSans-6f"/>
      <path d="M 45.40625 27.984375 
Q 45.40625 37.75 41.375 43.109375 
Q 37.359375 48.484375 30.078125 48.484375 
Q 22.859375 48.484375 18.828125 43.109375 
Q 14.796875 37.75 14.796875 27.984375 
Q 14.796875 18.265625 18.828125 12.890625 
Q 22.859375 7.515625 30.078125 7.515625 
Q 37.359375 7.515625 41.375 12.890625 
Q 45.40625 18.265625 45.40625 27.984375 
M 54.390625 6.78125 
Q 54.390625 -7.171875 48.1875 -13.984375 
Q 42 -20.796875 29.203125 -20.796875 
Q 24.46875 -20.796875 20.265625 -20.09375 
Q 16.0625 -19.390625 12.109375 -17.921875 
L 12.109375 -9.1875 
Q 16.0625 -11.328125 19.921875 -12.34375 
Q 23.78125 -13.375 27.78125 -13.375 
Q 36.625 -13.375 41.015625 -8.765625 
Q 45.40625 -4.15625 45.40625 5.171875 
L 45.40625 9.625 
Q 42.625 4.78125 38.28125 2.390625 
Q 33.9375 0 27.875 0 
Q 17.828125 0 11.671875 7.65625 
Q 5.515625 15.328125 5.515625 27.984375 
Q 5.515625 40.671875 11.671875 48.328125 
Q 17.828125 56 27.875 56 
Q 33.9375 56 38.28125 53.609375 
Q 42.625 51.21875 45.40625 46.390625 
L 45.40625 54.6875 
L 54.390625 54.6875 
z
" id="DejaVuSans-67"/>
      <path d="M 12.40625 8.296875 
L 28.515625 8.296875 
L 28.515625 63.921875 
L 10.984375 60.40625 
L 10.984375 69.390625 
L 28.421875 72.90625 
L 38.28125 72.90625 
L 38.28125 8.296875 
L 54.390625 8.296875 
L 54.390625 0 
L 12.40625 0 
z
" id="DejaVuSans-31"/>
      <path id="DejaVuSans-20"/>
      <path d="M 37.109375 75.984375 
L 37.109375 68.5 
L 28.515625 68.5 
Q 23.6875 68.5 21.796875 66.546875 
Q 19.921875 64.59375 19.921875 59.515625 
L 19.921875 54.6875 
L 34.71875 54.6875 
L 34.71875 47.703125 
L 19.921875 47.703125 
L 19.921875 0 
L 10.890625 0 
L 10.890625 47.703125 
L 2.296875 47.703125 
L 2.296875 54.6875 
L 10.890625 54.6875 
L 10.890625 58.5 
Q 10.890625 67.625 15.140625 71.796875 
Q 19.390625 75.984375 28.609375 75.984375 
z
" id="DejaVuSans-66"/>
      <path d="M 19.671875 64.796875 
L 19.671875 8.109375 
L 31.59375 8.109375 
Q 46.6875 8.109375 53.6875 14.9375 
Q 60.6875 21.78125 60.6875 36.53125 
Q 60.6875 51.171875 53.6875 57.984375 
Q 46.6875 64.796875 31.59375 64.796875 
z
M 9.8125 72.90625 
L 30.078125 72.90625 
Q 51.265625 72.90625 61.171875 64.09375 
Q 71.09375 55.28125 71.09375 36.53125 
Q 71.09375 17.671875 61.125 8.828125 
Q 51.171875 0 30.078125 0 
L 9.8125 0 
z
" id="DejaVuSans-44"/>
     </defs>
     <g transform="translate(134.074063 322.365125)scale(0.2 -0.2)">
      <use xlink:href="#DejaVuSans-6c"/>
      <use x="27.783203" xlink:href="#DejaVuSans-6f"/>
      <use x="88.964844" xlink:href="#DejaVuSans-67"/>
      <use x="152.441406" xlink:href="#DejaVuSans-31"/>
      <use x="216.064453" xlink:href="#DejaVuSans-30"/>
      <use x="279.6875" xlink:href="#DejaVuSans-20"/>
      <use x="311.474609" xlink:href="#DejaVuSans-6f"/>
      <use x="372.65625" xlink:href="#DejaVuSans-66"/>
      <use x="407.861328" xlink:href="#DejaVuSans-20"/>
      <use x="439.648438" xlink:href="#DejaVuSans-44"/>
      <use x="516.650391" xlink:href="#DejaVuSans-66"/>
     </g>
    </g>
   </g>
   <g id="matplotlib.axis_2">
    <g id="ytick_1">
     <g id="line2d_11">
      <path clip-path="url(#p3a97a25df8)" d="M 10.7 276.812 
L 367.82 276.812 
" style="fill:none;stroke:#b0b0b0;stroke-linecap:square;stroke-width:0.8;"/>
     </g>
     <g id="line2d_12">
      <defs>
       <path d="M 0 0 
L -3.5 0 
" id="m48223dc614" style="stroke:#000000;stroke-width:0.8;"/>
      </defs>
      <g>
       <use style="stroke:#000000;stroke-width:0.8;" x="10.7" xlink:href="#m48223dc614" y="276.812"/>
      </g>
     </g>
    </g>
    <g id="ytick_2">
     <g id="line2d_13">
      <path clip-path="url(#p3a97a25df8)" d="M 10.7 224.116554 
L 367.82 224.116554 
" style="fill:none;stroke:#b0b0b0;stroke-linecap:square;stroke-width:0.8;"/>
     </g>
     <g id="line2d_14">
      <g>
       <use style="stroke:#000000;stroke-width:0.8;" x="10.7" xlink:href="#m48223dc614" y="224.116554"/>
      </g>
     </g>
    </g>
    <g id="ytick_3">
     <g id="line2d_15">
      <path clip-path="url(#p3a97a25df8)" d="M 10.7 171.421109 
L 367.82 171.421109 
" style="fill:none;stroke:#b0b0b0;stroke-linecap:square;stroke-width:0.8;"/>
     </g>
     <g id="line2d_16">
      <g>
       <use style="stroke:#000000;stroke-width:0.8;" x="10.7" xlink:href="#m48223dc614" y="171.421109"/>
      </g>
     </g>
    </g>
    <g id="ytick_4">
     <g id="line2d_17">
      <path clip-path="url(#p3a97a25df8)" d="M 10.7 118.725663 
L 367.82 118.725663 
" style="fill:none;stroke:#b0b0b0;stroke-linecap:square;stroke-width:0.8;"/>
     </g>
     <g id="line2d_18">
      <g>
       <use style="stroke:#000000;stroke-width:0.8;" x="10.7" xlink:href="#m48223dc614" y="118.725663"/>
      </g>
     </g>
    </g>
    <g id="ytick_5">
     <g id="line2d_19">
      <path clip-path="url(#p3a97a25df8)" d="M 10.7 66.030218 
L 367.82 66.030218 
" style="fill:none;stroke:#b0b0b0;stroke-linecap:square;stroke-width:0.8;"/>
     </g>
     <g id="line2d_20">
      <g>
       <use style="stroke:#000000;stroke-width:0.8;" x="10.7" xlink:href="#m48223dc614" y="66.030218"/>
      </g>
     </g>
    </g>
    <g id="ytick_6">
     <g id="line2d_21">
      <path clip-path="url(#p3a97a25df8)" d="M 10.7 13.334772 
L 367.82 13.334772 
" style="fill:none;stroke:#b0b0b0;stroke-linecap:square;stroke-width:0.8;"/>
     </g>
     <g id="line2d_22">
      <g>
       <use style="stroke:#000000;stroke-width:0.8;" x="10.7" xlink:href="#m48223dc614" y="13.334772"/>
      </g>
     </g>
    </g>
   </g>
   <g id="line2d_23">
    <path clip-path="url(#p3a97a25df8)" d="M 170.921895 276.812 
L 170.921895 273.29897 
L 170.921895 273.29897 
L 170.921895 273.29897 
L 170.940832 273.29897 
L 170.940832 269.785941 
L 171.831457 269.785941 
L 171.831457 266.272911 
L 171.976908 266.272911 
L 171.976908 262.759881 
L 173.919721 262.759881 
L 173.919721 259.246851 
L 174.303605 259.246851 
L 174.380963 252.220792 
L 175.54588 252.220792 
L 175.54588 248.707762 
L 175.731539 248.707762 
L 175.731539 245.194733 
L 176.325196 245.194733 
L 176.325196 241.681703 
L 176.508625 241.681703 
L 176.508625 238.168673 
L 177.256828 238.168673 
L 177.256828 234.655644 
L 177.974743 234.655644 
L 177.974743 231.142614 
L 178.415886 231.142614 
L 178.415886 227.629584 
L 178.703939 227.629584 
L 178.747376 220.603525 
L 183.543327 220.603525 
L 183.543327 217.090495 
L 186.925127 217.090495 
L 186.925127 213.577465 
L 187.256789 213.577465 
L 187.256789 210.064436 
L 187.651079 210.064436 
L 187.651079 206.551406 
L 187.886165 206.551406 
L 187.886165 203.038376 
L 192.778255 203.038376 
L 192.778255 199.525347 
L 195.869829 199.525347 
L 195.869829 196.012317 
L 200.428736 196.012317 
L 200.428736 192.499287 
L 201.767879 192.499287 
L 201.767879 188.986257 
L 201.965124 188.986257 
L 201.965124 185.473228 
L 202.481013 185.473228 
L 202.481013 181.960198 
L 202.615556 181.960198 
L 202.615556 178.447168 
L 203.201067 178.447168 
L 203.201067 174.934139 
L 203.779302 174.934139 
L 203.779302 171.421109 
L 205.316461 171.421109 
L 205.410648 164.39505 
L 205.42788 164.39505 
L 205.437874 157.36899 
L 205.607043 157.36899 
L 205.644526 150.342931 
L 205.807614 150.342931 
L 205.89228 139.803842 
L 206.256858 139.803842 
L 206.256858 136.290812 
L 207.059798 136.290812 
L 207.059798 132.777782 
L 207.545827 132.777782 
L 207.545827 129.264752 
L 207.726783 129.264752 
L 207.726783 125.751723 
L 207.863321 125.751723 
L 207.900276 118.725663 
L 208.060628 118.725663 
L 208.130853 108.186574 
L 208.63432 108.186574 
L 208.63432 104.673545 
L 209.295863 104.673545 
L 209.301193 97.647485 
L 210.595316 97.647485 
L 210.595316 94.134455 
L 210.999354 94.134455 
L 211.016595 87.108396 
L 211.920651 87.108396 
L 211.920651 83.595366 
L 212.99113 83.595366 
L 212.99113 80.082337 
L 213.851758 80.082337 
L 213.851758 76.569307 
L 213.980589 76.569307 
L 213.980589 73.056277 
L 214.470165 73.056277 
L 214.470165 69.543248 
L 214.981165 69.543248 
L 215.037023 62.517188 
L 215.746768 62.517188 
L 215.746768 59.004158 
L 216.450476 59.004158 
L 216.450476 55.491129 
L 216.630298 55.491129 
L 216.66056 48.465069 
L 235.235839 48.465069 
L 235.235839 44.95204 
L 235.36065 44.95204 
L 235.36065 41.43901 
L 242.123056 41.43901 
L 242.123056 37.92598 
L 251.650045 37.92598 
L 251.677653 27.386891 
L 256.675333 27.386891 
L 256.677458 20.360832 
L 257.585231 20.360832 
L 257.585231 13.334772 
L 257.585231 13.334772 
L 367.82 13.334772 
L 367.82 13.334772 
" style="fill:none;stroke:#ff0000;stroke-linecap:square;stroke-width:3;"/>
   </g>
   <g id="line2d_24">
    <path clip-path="url(#p3a97a25df8)" d="M 195.065594 276.812 
L 195.065594 273.29897 
L 195.283453 273.29897 
L 195.283453 269.785941 
L 198.426367 269.785941 
L 198.426367 266.272911 
L 199.225415 266.272911 
L 199.225415 262.759881 
L 199.380889 262.759881 
L 199.380889 259.246851 
L 200.213651 259.246851 
L 200.213651 255.733822 
L 200.635893 255.733822 
L 200.635893 252.220792 
L 201.492097 252.220792 
L 201.492097 248.707762 
L 201.893658 248.707762 
L 201.893658 245.194733 
L 202.163258 245.194733 
L 202.163258 241.681703 
L 202.578118 241.681703 
L 202.578118 238.168673 
L 202.70955 238.168673 
L 202.70955 234.655644 
L 203.146054 234.655644 
L 203.146054 231.142614 
L 203.690229 231.142614 
L 203.690229 227.629584 
L 204.177827 227.629584 
L 204.177827 224.116554 
L 204.591079 224.116554 
L 204.591079 220.603525 
L 206.478047 220.603525 
L 206.478047 217.090495 
L 208.451573 217.090495 
L 208.562629 210.064436 
L 209.319721 210.064436 
L 209.319721 206.551406 
L 209.816259 206.551406 
L 209.927326 199.525347 
L 211.023604 199.525347 
L 211.023604 196.012317 
L 212.250692 196.012317 
L 212.250692 192.499287 
L 212.679389 192.499287 
L 212.679389 188.986257 
L 213.012823 188.986257 
L 213.012823 185.473228 
L 213.445543 185.473228 
L 213.445543 181.960198 
L 213.931314 181.960198 
L 213.931314 178.447168 
L 214.059455 178.447168 
L 214.059455 174.934139 
L 214.274925 174.934139 
L 214.329383 167.908079 
L 214.731974 167.908079 
L 214.796593 160.88202 
L 215.183907 160.88202 
L 215.183907 157.36899 
L 215.430559 157.36899 
L 215.438275 150.342931 
L 215.679305 150.342931 
L 215.679305 146.829901 
L 215.827957 146.829901 
L 215.928768 125.751723 
L 216.077768 125.751723 
L 216.079832 118.725663 
L 216.345226 118.725663 
L 216.345226 115.212634 
L 216.524893 115.212634 
L 216.593384 104.673545 
L 216.765239 104.673545 
L 216.822444 94.134455 
L 216.93199 94.134455 
L 217.02692 87.108396 
L 217.183791 87.108396 
L 217.183791 83.595366 
L 217.294989 83.595366 
L 217.294989 80.082337 
L 217.613016 80.082337 
L 217.613016 76.569307 
L 217.907373 76.569307 
L 217.907373 73.056277 
L 218.21268 73.056277 
L 218.21268 69.543248 
L 219.849347 69.543248 
L 219.849347 66.030218 
L 231.148674 66.030218 
L 231.148674 62.517188 
L 243.22376 62.517188 
L 243.22376 59.004158 
L 243.511223 59.004158 
L 243.511223 55.491129 
L 246.951008 55.491129 
L 246.951008 51.978099 
L 248.261763 51.978099 
L 248.261763 48.465069 
L 249.699506 48.465069 
L 249.699506 44.95204 
L 250.673054 44.95204 
L 250.673054 41.43901 
L 250.96087 41.43901 
L 250.96087 37.92598 
L 257.585231 37.92598 
L 257.585231 13.334772 
L 257.585231 13.334772 
L 367.82 13.334772 
L 367.82 13.334772 
" style="fill:none;stroke:#00bfbf;stroke-linecap:square;stroke-width:1.5;"/>
   </g>
   <g id="line2d_25">
    <path clip-path="url(#p3a97a25df8)" d="M 194.18766 276.812 
L 194.18766 273.29897 
L 195.065594 273.29897 
L 195.065594 269.785941 
L 195.283453 269.785941 
L 195.324153 259.246851 
L 195.785342 259.246851 
L 195.785342 255.733822 
L 195.946991 255.733822 
L 195.946991 252.220792 
L 196.671985 252.220792 
L 196.671985 248.707762 
L 196.900689 248.707762 
L 196.900689 245.194733 
L 197.394088 245.194733 
L 197.394088 241.681703 
L 197.875076 241.681703 
L 197.875076 238.168673 
L 198.066848 238.168673 
L 198.066848 234.655644 
L 199.380889 234.655644 
L 199.380889 231.142614 
L 199.755338 231.142614 
L 199.755338 227.629584 
L 200.213651 227.629584 
L 200.213651 224.116554 
L 200.335914 224.116554 
L 200.335914 220.603525 
L 200.635893 220.603525 
L 200.635893 217.090495 
L 202.701896 217.090495 
L 202.701896 213.577465 
L 207.309728 213.577465 
L 207.309728 210.064436 
L 208.562629 210.064436 
L 208.562629 206.551406 
L 209.319721 206.551406 
L 209.319721 203.038376 
L 209.816259 203.038376 
L 209.927326 196.012317 
L 209.991499 196.012317 
L 209.994504 188.986257 
L 210.836486 188.986257 
L 210.836486 185.473228 
L 211.023604 185.473228 
L 211.023604 181.960198 
L 211.460625 181.960198 
L 211.460625 178.447168 
L 212.147003 178.447168 
L 212.250692 171.421109 
L 212.679389 171.421109 
L 212.679389 167.908079 
L 213.445543 167.908079 
L 213.445543 164.39505 
L 213.789432 164.39505 
L 213.789432 160.88202 
L 213.931314 160.88202 
L 213.931314 157.36899 
L 214.059455 157.36899 
L 214.059455 153.85596 
L 214.274925 153.85596 
L 214.274925 150.342931 
L 214.414186 150.342931 
L 214.414186 146.829901 
L 214.669505 146.829901 
L 214.731974 139.803842 
L 214.796593 139.803842 
L 214.875684 132.777782 
L 214.988564 132.777782 
L 214.988564 129.264752 
L 215.122852 129.264752 
L 215.122852 125.751723 
L 215.310236 125.751723 
L 215.350975 118.725663 
L 215.449802 118.725663 
L 215.449802 115.212634 
L 215.585375 115.212634 
L 215.681973 108.186574 
L 215.70093 108.186574 
L 215.703156 101.160515 
L 215.847418 101.160515 
L 215.930137 87.108396 
L 216.228488 87.108396 
L 216.228488 83.595366 
L 216.345226 83.595366 
L 216.345226 80.082337 
L 216.556824 80.082337 
L 216.593384 73.056277 
L 216.806804 73.056277 
L 216.806804 69.543248 
L 217.02692 69.543248 
L 217.02692 66.030218 
L 217.810696 66.030218 
L 217.810696 62.517188 
L 219.000967 62.517188 
L 219.000967 59.004158 
L 231.148674 59.004158 
L 231.148674 55.491129 
L 245.434368 55.491129 
L 245.520547 48.465069 
L 246.951008 48.465069 
L 246.951008 44.95204 
L 248.261763 44.95204 
L 248.261763 41.43901 
L 250.96087 41.43901 
L 250.96087 37.92598 
L 256.483602 37.92598 
L 256.483602 34.41295 
L 257.585231 34.41295 
L 257.585231 13.334772 
L 257.585231 13.334772 
L 367.82 13.334772 
L 367.82 13.334772 
" style="fill:none;stroke:#bf00bf;stroke-linecap:square;stroke-width:1.5;"/>
   </g>
   <g id="line2d_26">
    <path clip-path="url(#p3a97a25df8)" d="M 185.798876 276.812 
L 185.798876 273.29897 
L 190.808748 273.29897 
L 190.808748 269.785941 
L 191.117603 269.785941 
L 191.117603 266.272911 
L 193.129887 266.272911 
L 193.129887 262.759881 
L 193.658446 262.759881 
L 193.658446 259.246851 
L 194.18766 259.246851 
L 194.18766 255.733822 
L 194.347964 255.733822 
L 194.347964 252.220792 
L 195.283453 252.220792 
L 195.324153 241.681703 
L 195.918059 241.681703 
L 195.946991 234.655644 
L 196.103992 234.655644 
L 196.103992 231.142614 
L 196.382558 231.142614 
L 196.410137 224.116554 
L 196.671985 224.116554 
L 196.671985 220.603525 
L 198.660278 220.603525 
L 198.660278 217.090495 
L 199.476609 217.090495 
L 199.476609 213.577465 
L 207.309728 213.577465 
L 207.309728 210.064436 
L 208.562629 210.064436 
L 208.562629 206.551406 
L 209.319721 206.551406 
L 209.320475 199.525347 
L 209.816259 199.525347 
L 209.927326 192.499287 
L 209.991499 192.499287 
L 209.994504 185.473228 
L 211.023604 185.473228 
L 211.023604 181.960198 
L 211.460625 181.960198 
L 211.46646 174.934139 
L 211.608583 174.934139 
L 211.608583 171.421109 
L 211.962624 171.421109 
L 211.962624 167.908079 
L 212.147003 167.908079 
L 212.250692 160.88202 
L 212.335957 160.88202 
L 212.335957 157.36899 
L 212.637786 157.36899 
L 212.637786 153.85596 
L 212.855639 153.85596 
L 212.855639 150.342931 
L 213.377236 150.342931 
L 213.485645 139.803842 
L 213.516558 139.803842 
L 213.516558 136.290812 
L 213.918039 136.290812 
L 213.918039 132.777782 
L 214.07027 132.777782 
L 214.07027 129.264752 
L 214.274925 129.264752 
L 214.344211 122.238693 
L 214.496838 122.238693 
L 214.598594 115.212634 
L 214.623056 115.212634 
L 214.623056 111.699604 
L 215.285722 111.699604 
L 215.285722 108.186574 
L 215.411696 108.186574 
L 215.470393 97.647485 
L 215.585375 97.647485 
L 215.681973 90.621426 
L 215.70093 90.621426 
L 215.703156 83.595366 
L 216.27092 83.595366 
L 216.27092 80.082337 
L 216.458836 80.082337 
L 216.556824 73.056277 
L 216.806804 73.056277 
L 216.806804 69.543248 
L 217.02692 69.543248 
L 217.02692 66.030218 
L 217.810696 66.030218 
L 217.810696 62.517188 
L 219.000967 62.517188 
L 219.000967 59.004158 
L 219.634938 59.004158 
L 219.634938 55.491129 
L 234.177034 55.491129 
L 234.177034 51.978099 
L 239.58004 51.978099 
L 239.58004 48.465069 
L 243.383466 48.465069 
L 243.383466 44.95204 
L 246.951008 44.95204 
L 246.951008 41.43901 
L 250.96087 41.43901 
L 250.96087 37.92598 
L 253.95222 37.92598 
L 253.95222 34.41295 
L 254.652636 34.41295 
L 254.652636 30.899921 
L 254.993261 30.899921 
L 254.993261 27.386891 
L 257.585231 27.386891 
L 257.585231 13.334772 
L 257.585231 13.334772 
L 367.82 13.334772 
L 367.82 13.334772 
" style="fill:none;stroke:#000000;stroke-linecap:square;stroke-width:1.5;"/>
   </g>
   <g id="line2d_27">
    <path clip-path="url(#p3a97a25df8)" d="M 179.671721 276.812 
L 179.671721 273.29897 
L 185.740765 273.29897 
L 185.798876 266.272911 
L 187.735445 266.272911 
L 187.735445 262.759881 
L 189.317009 262.759881 
L 189.317009 259.246851 
L 190.279175 259.246851 
L 190.279175 255.733822 
L 190.647294 255.733822 
L 190.647294 252.220792 
L 191.117603 252.220792 
L 191.117603 248.707762 
L 191.510047 248.707762 
L 191.518443 241.681703 
L 194.18766 241.681703 
L 194.26727 234.655644 
L 194.785057 234.655644 
L 194.785057 231.142614 
L 195.283376 231.142614 
L 195.283453 224.116554 
L 196.050651 224.116554 
L 196.103992 217.090495 
L 197.08559 217.090495 
L 197.08559 213.577465 
L 198.240317 213.577465 
L 198.240317 210.064436 
L 199.772205 210.064436 
L 199.772205 206.551406 
L 204.022547 206.551406 
L 204.022547 203.038376 
L 205.651334 203.038376 
L 205.651334 199.525347 
L 206.300897 199.525347 
L 206.300897 196.012317 
L 206.995584 196.012317 
L 206.995584 192.499287 
L 207.271836 192.499287 
L 207.271836 188.986257 
L 208.670227 188.986257 
L 208.749597 178.447168 
L 209.669427 178.447168 
L 209.669427 174.934139 
L 209.816259 174.934139 
L 209.816259 171.421109 
L 210.010599 171.421109 
L 210.092061 164.39505 
L 210.244209 164.39505 
L 210.244209 160.88202 
L 210.775203 160.88202 
L 210.775203 157.36899 
L 211.027072 157.36899 
L 211.027072 153.85596 
L 211.15242 153.85596 
L 211.242807 146.829901 
L 211.401676 146.829901 
L 211.46646 136.290812 
L 211.915615 136.290812 
L 211.915615 132.777782 
L 212.066987 132.777782 
L 212.066987 129.264752 
L 212.335957 129.264752 
L 212.421799 122.238693 
L 212.612677 122.238693 
L 212.612677 118.725663 
L 212.798886 118.725663 
L 212.798886 115.212634 
L 213.090363 115.212634 
L 213.137895 108.186574 
L 213.565791 108.186574 
L 213.565791 104.673545 
L 213.774495 104.673545 
L 213.774495 101.160515 
L 213.899784 101.160515 
L 213.899784 97.647485 
L 214.104295 97.647485 
L 214.104295 94.134455 
L 215.411696 94.134455 
L 215.448926 83.595366 
L 215.585375 83.595366 
L 215.585375 80.082337 
L 215.70093 80.082337 
L 215.714359 73.056277 
L 216.147228 73.056277 
L 216.147228 69.543248 
L 216.556824 69.543248 
L 216.556824 66.030218 
L 216.804939 66.030218 
L 216.806804 59.004158 
L 217.810696 59.004158 
L 217.810696 55.491129 
L 225.288023 55.491129 
L 225.288023 51.978099 
L 229.73092 51.978099 
L 229.73092 48.465069 
L 242.712675 48.465069 
L 242.712675 44.95204 
L 245.695997 44.95204 
L 245.695997 41.43901 
L 250.218488 41.43901 
L 250.218488 37.92598 
L 253.305071 37.92598 
L 253.305071 34.41295 
L 253.95222 34.41295 
L 254.01332 27.386891 
L 257.585231 27.386891 
L 257.585231 13.334772 
L 257.585231 13.334772 
L 367.82 13.334772 
L 367.82 13.334772 
" style="fill:none;stroke:#00bfbf;stroke-linecap:square;stroke-width:1.5;"/>
   </g>
   <g id="line2d_28">
    <path clip-path="url(#p3a97a25df8)" d="M 178.703939 276.812 
L 178.703939 273.29897 
L 179.671721 273.29897 
L 179.748417 266.272911 
L 180.19322 266.272911 
L 180.19322 262.759881 
L 181.572131 262.759881 
L 181.572131 259.246851 
L 182.362867 259.246851 
L 182.362867 255.733822 
L 182.984073 255.733822 
L 182.984073 252.220792 
L 183.118246 252.220792 
L 183.118246 248.707762 
L 184.122145 248.707762 
L 184.122145 245.194733 
L 184.510915 245.194733 
L 184.510915 241.681703 
L 185.740765 241.681703 
L 185.798876 234.655644 
L 185.96988 234.655644 
L 186.029684 227.629584 
L 186.596595 227.629584 
L 186.596595 224.116554 
L 187.540233 224.116554 
L 187.540233 220.603525 
L 189.134785 220.603525 
L 189.134785 217.090495 
L 191.28503 217.090495 
L 191.28503 213.577465 
L 192.857309 213.577465 
L 192.857309 210.064436 
L 194.190002 210.064436 
L 194.190002 206.551406 
L 196.658337 206.551406 
L 196.658337 203.038376 
L 203.39703 203.038376 
L 203.39703 199.525347 
L 203.694078 199.525347 
L 203.694078 196.012317 
L 205.651334 196.012317 
L 205.651334 192.499287 
L 206.300897 192.499287 
L 206.300897 188.986257 
L 206.995584 188.986257 
L 206.995584 185.473228 
L 207.271836 185.473228 
L 207.271836 181.960198 
L 207.570754 181.960198 
L 207.570754 178.447168 
L 208.094185 178.447168 
L 208.199494 167.908079 
L 208.217358 167.908079 
L 208.217358 164.39505 
L 208.35203 164.39505 
L 208.397203 157.36899 
L 208.472991 157.36899 
L 208.472991 153.85596 
L 208.883832 153.85596 
L 208.883832 150.342931 
L 209.145752 150.342931 
L 209.161667 143.316871 
L 209.367197 143.316871 
L 209.367197 139.803842 
L 209.491885 139.803842 
L 209.539886 132.777782 
L 210.050282 132.777782 
L 210.050282 129.264752 
L 210.633924 129.264752 
L 210.633924 125.751723 
L 211.074872 125.751723 
L 211.079819 118.725663 
L 211.201754 118.725663 
L 211.213845 111.699604 
L 211.336916 111.699604 
L 211.415153 104.673545 
L 211.482786 104.673545 
L 211.482786 101.160515 
L 211.915615 101.160515 
L 211.915615 97.647485 
L 212.587429 97.647485 
L 212.587429 94.134455 
L 212.833903 94.134455 
L 212.833903 90.621426 
L 212.99785 90.621426 
L 212.99785 87.108396 
L 213.897523 87.108396 
L 213.897523 83.595366 
L 214.467341 83.595366 
L 214.525259 76.569307 
L 215.242746 76.569307 
L 215.242746 73.056277 
L 215.449914 73.056277 
L 215.449914 69.543248 
L 215.714359 69.543248 
L 215.714359 66.030218 
L 215.996437 66.030218 
L 215.996437 62.517188 
L 216.556824 62.517188 
L 216.556824 59.004158 
L 216.804939 59.004158 
L 216.806804 51.978099 
L 218.569178 51.978099 
L 218.569178 48.465069 
L 238.007703 48.465069 
L 238.007703 44.95204 
L 240.261925 44.95204 
L 240.261925 41.43901 
L 243.719137 41.43901 
L 243.719137 37.92598 
L 252.128362 37.92598 
L 252.128362 34.41295 
L 252.600936 34.41295 
L 252.698025 27.386891 
L 257.585231 27.386891 
L 257.585231 13.334772 
L 257.585231 13.334772 
L 367.82 13.334772 
L 367.82 13.334772 
" style="fill:none;stroke:#bf00bf;stroke-linecap:square;stroke-width:1.5;"/>
   </g>
   <g id="line2d_29">
    <path clip-path="url(#p3a97a25df8)" d="M 174.380963 276.812 
L 174.380963 273.29897 
L 176.764209 273.29897 
L 176.764209 269.785941 
L 178.703939 269.785941 
L 178.703939 266.272911 
L 178.988477 266.272911 
L 178.988477 262.759881 
L 179.671721 262.759881 
L 179.748417 255.733822 
L 179.853341 255.733822 
L 179.853341 252.220792 
L 181.476523 252.220792 
L 181.476523 248.707762 
L 181.626992 248.707762 
L 181.655849 241.681703 
L 182.245635 241.681703 
L 182.245635 238.168673 
L 182.415617 238.168673 
L 182.415617 234.655644 
L 182.984073 234.655644 
L 182.984073 231.142614 
L 183.118246 231.142614 
L 183.118246 227.629584 
L 183.531502 227.629584 
L 183.531502 224.116554 
L 185.567909 224.116554 
L 185.567909 220.603525 
L 187.121148 220.603525 
L 187.121148 217.090495 
L 190.256627 217.090495 
L 190.271461 210.064436 
L 190.392579 210.064436 
L 190.392579 206.551406 
L 191.44937 206.551406 
L 191.44937 203.038376 
L 196.49225 203.038376 
L 196.49225 199.525347 
L 201.60934 199.525347 
L 201.60934 196.012317 
L 202.849971 196.012317 
L 202.849971 192.499287 
L 205.651334 192.499287 
L 205.651334 188.986257 
L 205.796307 188.986257 
L 205.796307 185.473228 
L 205.924679 185.473228 
L 205.954713 174.934139 
L 206.350867 174.934139 
L 206.350867 171.421109 
L 206.601719 171.421109 
L 206.601719 167.908079 
L 206.944499 167.908079 
L 206.995584 160.88202 
L 207.167733 160.88202 
L 207.194421 153.85596 
L 207.444383 153.85596 
L 207.444383 150.342931 
L 207.64784 150.342931 
L 207.64784 146.829901 
L 208.134669 146.829901 
L 208.213398 139.803842 
L 208.268503 139.803842 
L 208.268503 136.290812 
L 208.575801 136.290812 
L 208.66202 129.264752 
L 208.852461 129.264752 
L 208.852461 125.751723 
L 209.026795 125.751723 
L 209.026795 122.238693 
L 209.426776 122.238693 
L 209.426776 118.725663 
L 209.539886 118.725663 
L 209.539886 115.212634 
L 209.954209 115.212634 
L 209.954209 111.699604 
L 210.225224 111.699604 
L 210.237498 104.673545 
L 211.287297 104.673545 
L 211.287297 101.160515 
L 211.412246 101.160515 
L 211.412246 97.647485 
L 211.683187 97.647485 
L 211.729868 90.621426 
L 212.364309 90.621426 
L 212.364309 87.108396 
L 212.89126 87.108396 
L 212.89126 83.595366 
L 213.694326 83.595366 
L 213.694326 80.082337 
L 214.464319 80.082337 
L 214.520396 73.056277 
L 214.998375 73.056277 
L 214.998375 69.543248 
L 215.156761 69.543248 
L 215.156761 66.030218 
L 215.367088 66.030218 
L 215.367088 62.517188 
L 215.970006 62.517188 
L 215.970006 59.004158 
L 216.556824 59.004158 
L 216.556824 55.491129 
L 216.701944 55.491129 
L 216.709449 48.465069 
L 237.897676 48.465069 
L 237.897676 44.95204 
L 238.883669 44.95204 
L 238.883669 41.43901 
L 243.716359 41.43901 
L 243.716359 37.92598 
L 251.832075 37.92598 
L 251.832075 34.41295 
L 252.304789 34.41295 
L 252.304789 30.899921 
L 252.475369 30.899921 
L 252.475369 27.386891 
L 257.126079 27.386891 
L 257.126079 23.873861 
L 257.333982 23.873861 
L 257.333982 20.360832 
L 257.585231 20.360832 
L 257.585231 13.334772 
L 257.585231 13.334772 
L 367.82 13.334772 
L 367.82 13.334772 
" style="fill:none;stroke:#000000;stroke-linecap:square;stroke-width:1.5;"/>
   </g>
   <g id="line2d_30">
    <path clip-path="url(#p3a97a25df8)" d="M 170.921895 276.812 
L 170.921895 273.29897 
L 172.367567 273.29897 
L 172.367567 269.785941 
L 173.856764 269.785941 
L 173.856764 266.272911 
L 174.350848 266.272911 
L 174.380963 259.246851 
L 175.412173 259.246851 
L 175.412173 255.733822 
L 176.115677 255.733822 
L 176.115677 252.220792 
L 176.508625 252.220792 
L 176.508625 248.707762 
L 176.657685 248.707762 
L 176.764209 241.681703 
L 177.256828 241.681703 
L 177.256828 238.168673 
L 178.415886 238.168673 
L 178.415886 234.655644 
L 178.703939 234.655644 
L 178.747376 227.629584 
L 178.850462 227.629584 
L 178.956642 220.603525 
L 183.917342 220.603525 
L 183.917342 217.090495 
L 188.242687 217.090495 
L 188.242687 213.577465 
L 188.570826 213.577465 
L 188.570826 210.064436 
L 188.843896 210.064436 
L 188.843896 206.551406 
L 188.969529 206.551406 
L 188.969529 203.038376 
L 195.56337 203.038376 
L 195.56337 199.525347 
L 196.124069 199.525347 
L 196.124069 196.012317 
L 200.575055 196.012317 
L 200.575055 192.499287 
L 201.929434 192.499287 
L 201.929434 188.986257 
L 202.37979 188.986257 
L 202.37979 185.473228 
L 202.615556 185.473228 
L 202.615556 181.960198 
L 203.09024 181.960198 
L 203.09024 178.447168 
L 204.082725 178.447168 
L 204.082725 174.934139 
L 204.31453 174.934139 
L 204.31453 171.421109 
L 205.542789 171.421109 
L 205.542789 167.908079 
L 205.756737 167.908079 
L 205.756737 164.39505 
L 205.924679 164.39505 
L 206.02386 153.85596 
L 206.215933 153.85596 
L 206.215933 150.342931 
L 206.445306 150.342931 
L 206.524289 143.316871 
L 206.948208 143.316871 
L 206.948208 139.803842 
L 207.159749 139.803842 
L 207.159749 136.290812 
L 207.63933 136.290812 
L 207.697125 129.264752 
L 207.840234 129.264752 
L 207.840234 125.751723 
L 208.060628 125.751723 
L 208.157246 118.725663 
L 208.470731 118.725663 
L 208.575801 111.699604 
L 208.722302 111.699604 
L 208.768159 104.673545 
L 209.37891 104.673545 
L 209.37891 101.160515 
L 209.5263 101.160515 
L 209.5263 97.647485 
L 210.716936 97.647485 
L 210.716936 94.134455 
L 211.404428 94.134455 
L 211.404428 90.621426 
L 211.746868 90.621426 
L 211.746868 87.108396 
L 212.010843 87.108396 
L 212.010843 83.595366 
L 213.088143 83.595366 
L 213.088143 80.082337 
L 213.922509 80.082337 
L 213.922509 76.569307 
L 214.057625 76.569307 
L 214.057625 73.056277 
L 214.812213 73.056277 
L 214.812213 69.543248 
L 215.018086 69.543248 
L 215.057767 62.517188 
L 215.778921 62.517188 
L 215.778921 59.004158 
L 216.476086 59.004158 
L 216.476086 55.491129 
L 216.656393 55.491129 
L 216.686385 48.465069 
L 235.454292 48.465069 
L 235.454292 44.95204 
L 235.751795 44.95204 
L 235.751795 41.43901 
L 242.331704 41.43901 
L 242.331704 37.92598 
L 251.656402 37.92598 
L 251.76583 27.386891 
L 256.699187 27.386891 
L 256.699187 23.873861 
L 256.823655 23.873861 
L 256.823655 20.360832 
L 257.585231 20.360832 
L 257.585231 13.334772 
L 257.585231 13.334772 
L 367.82 13.334772 
L 367.82 13.334772 
" style="fill:none;stroke:#00bfbf;stroke-linecap:square;stroke-width:1.5;"/>
   </g>
   <g id="patch_3">
    <path d="M 10.7 276.812 
L 10.7 10.7 
" style="fill:none;stroke:#000000;stroke-linecap:square;stroke-linejoin:miter;stroke-width:0.8;"/>
   </g>
   <g id="patch_4">
    <path d="M 367.82 276.812 
L 367.82 10.7 
" style="fill:none;stroke:#000000;stroke-linecap:square;stroke-linejoin:miter;stroke-width:0.8;"/>
   </g>
   <g id="patch_5">
    <path d="M 10.7 276.812 
L 367.82 276.812 
" style="fill:none;stroke:#000000;stroke-linecap:square;stroke-linejoin:miter;stroke-width:0.8;"/>
   </g>
   <g id="patch_6">
    <path d="M 10.7 10.7 
L 367.82 10.7 
" style="fill:none;stroke:#000000;stroke-linecap:square;stroke-linejoin:miter;stroke-width:0.8;"/>
   </g>
   <g id="text_6">
    <!-- {f20-f24}, 5-D -->
    <defs>
     <path d="M 51.125 -9.28125 
L 51.125 -16.3125 
L 48.09375 -16.3125 
Q 35.9375 -16.3125 31.8125 -12.6875 
Q 27.6875 -9.078125 27.6875 1.703125 
L 27.6875 13.375 
Q 27.6875 20.75 25.046875 23.578125 
Q 22.40625 26.421875 15.484375 26.421875 
L 12.5 26.421875 
L 12.5 33.40625 
L 15.484375 33.40625 
Q 22.46875 33.40625 25.078125 36.203125 
Q 27.6875 39.015625 27.6875 46.296875 
L 27.6875 58.015625 
Q 27.6875 68.796875 31.8125 72.390625 
Q 35.9375 75.984375 48.09375 75.984375 
L 51.125 75.984375 
L 51.125 69 
L 47.796875 69 
Q 40.921875 69 38.8125 66.84375 
Q 36.71875 64.703125 36.71875 57.8125 
L 36.71875 45.703125 
Q 36.71875 38.03125 34.5 34.5625 
Q 32.28125 31.109375 26.90625 29.890625 
Q 32.328125 28.5625 34.515625 25.09375 
Q 36.71875 21.625 36.71875 14.015625 
L 36.71875 1.90625 
Q 36.71875 -4.984375 38.8125 -7.125 
Q 40.921875 -9.28125 47.796875 -9.28125 
z
" id="DejaVuSans-7b"/>
     <path d="M 19.1875 8.296875 
L 53.609375 8.296875 
L 53.609375 0 
L 7.328125 0 
L 7.328125 8.296875 
Q 12.9375 14.109375 22.625 23.890625 
Q 32.328125 33.6875 34.8125 36.53125 
Q 39.546875 41.84375 41.421875 45.53125 
Q 43.3125 49.21875 43.3125 52.78125 
Q 43.3125 58.59375 39.234375 62.25 
Q 35.15625 65.921875 28.609375 65.921875 
Q 23.96875 65.921875 18.8125 64.3125 
Q 13.671875 62.703125 7.8125 59.421875 
L 7.8125 69.390625 
Q 13.765625 71.78125 18.9375 73 
Q 24.125 74.21875 28.421875 74.21875 
Q 39.75 74.21875 46.484375 68.546875 
Q 53.21875 62.890625 53.21875 53.421875 
Q 53.21875 48.921875 51.53125 44.890625 
Q 49.859375 40.875 45.40625 35.40625 
Q 44.1875 33.984375 37.640625 27.21875 
Q 31.109375 20.453125 19.1875 8.296875 
" id="DejaVuSans-32"/>
     <path d="M 12.5 -9.28125 
L 15.921875 -9.28125 
Q 22.75 -9.28125 24.828125 -7.171875 
Q 26.90625 -5.078125 26.90625 1.90625 
L 26.90625 14.015625 
Q 26.90625 21.625 29.09375 25.09375 
Q 31.296875 28.5625 36.71875 29.890625 
Q 31.296875 31.109375 29.09375 34.5625 
Q 26.90625 38.03125 26.90625 45.703125 
L 26.90625 57.8125 
Q 26.90625 64.75 24.828125 66.875 
Q 22.75 69 15.921875 69 
L 12.5 69 
L 12.5 75.984375 
L 15.578125 75.984375 
Q 27.734375 75.984375 31.8125 72.390625 
Q 35.890625 68.796875 35.890625 58.015625 
L 35.890625 46.296875 
Q 35.890625 39.015625 38.515625 36.203125 
Q 41.15625 33.40625 48.09375 33.40625 
L 51.125 33.40625 
L 51.125 26.421875 
L 48.09375 26.421875 
Q 41.15625 26.421875 38.515625 23.578125 
Q 35.890625 20.75 35.890625 13.375 
L 35.890625 1.703125 
Q 35.890625 -9.078125 31.8125 -12.6875 
Q 27.734375 -16.3125 15.578125 -16.3125 
L 12.5 -16.3125 
z
" id="DejaVuSans-7d"/>
     <path d="M 11.71875 12.40625 
L 22.015625 12.40625 
L 22.015625 4 
L 14.015625 -11.625 
L 7.71875 -11.625 
L 11.71875 4 
z
" id="DejaVuSans-2c"/>
     <path d="M 10.796875 72.90625 
L 49.515625 72.90625 
L 49.515625 64.59375 
L 19.828125 64.59375 
L 19.828125 46.734375 
Q 21.96875 47.46875 24.109375 47.828125 
Q 26.265625 48.1875 28.421875 48.1875 
Q 40.625 48.1875 47.75 41.5 
Q 54.890625 34.8125 54.890625 23.390625 
Q 54.890625 11.625 47.5625 5.09375 
Q 40.234375 -1.421875 26.90625 -1.421875 
Q 22.3125 -1.421875 17.546875 -0.640625 
Q 12.796875 0.140625 7.71875 1.703125 
L 7.71875 11.625 
Q 12.109375 9.234375 16.796875 8.0625 
Q 21.484375 6.890625 26.703125 6.890625 
Q 35.15625 6.890625 40.078125 11.328125 
Q 45.015625 15.765625 45.015625 23.390625 
Q 45.015625 31 40.078125 35.4375 
Q 35.15625 39.890625 26.703125 39.890625 
Q 22.75 39.890625 18.8125 39.015625 
Q 14.890625 38.140625 10.796875 36.28125 
z
" id="DejaVuSans-35"/>
    </defs>
    <g transform="translate(214.9776 271.48976)scale(0.2 -0.2)">
     <use xlink:href="#DejaVuSans-7b"/>
     <use x="63.623047" xlink:href="#DejaVuSans-66"/>
     <use x="98.828125" xlink:href="#DejaVuSans-32"/>
     <use x="162.451172" xlink:href="#DejaVuSans-30"/>
     <use x="226.074219" xlink:href="#DejaVuSans-2d"/>
     <use x="262.158203" xlink:href="#DejaVuSans-66"/>
     <use x="297.363281" xlink:href="#DejaVuSans-32"/>
     <use x="360.986328" xlink:href="#DejaVuSans-34"/>
     <use x="424.609375" xlink:href="#DejaVuSans-7d"/>
     <use x="488.232422" xlink:href="#DejaVuSans-2c"/>
     <use x="520.019531" xlink:href="#DejaVuSans-20"/>
     <use x="551.806641" xlink:href="#DejaVuSans-35"/>
     <use x="615.429688" xlink:href="#DejaVuSans-2d"/>
     <use x="651.513672" xlink:href="#DejaVuSans-44"/>
    </g>
   </g>
   <g id="text_7">
    <!-- v2.1 -->
    <defs>
     <path d="M 2.984375 54.6875 
L 12.5 54.6875 
L 29.59375 8.796875 
L 46.6875 54.6875 
L 56.203125 54.6875 
L 35.6875 0 
L 23.484375 0 
z
" id="DejaVuSans-76"/>
     <path d="M 10.6875 12.40625 
L 21 12.40625 
L 21 0 
L 10.6875 0 
z
" id="DejaVuSans-2e"/>
    </defs>
    <g style="fill:#808080;" transform="translate(178.349063 272.071193)scale(0.1 -0.1)">
     <use xlink:href="#DejaVuSans-76"/>
     <use x="59.179688" xlink:href="#DejaVuSans-32"/>
     <use x="122.802734" xlink:href="#DejaVuSans-2e"/>
     <use x="154.589844" xlink:href="#DejaVuSans-31"/>
    </g>
   </g>
  </g>
 </g>
 <defs>
  <clipPath id="p3a97a25df8">
   <rect height="266.112" width="357.12" x="10.7" y="10.7"/>
  </clipPath>
 </defs>
</svg>
