<?xml version="1.0" encoding="utf-8" standalone="no"?>
<!DOCTYPE svg PUBLIC "-//W3C//DTD SVG 1.1//EN"
  "http://www.w3.org/Graphics/SVG/1.1/DTD/svg11.dtd">
<!-- Created with matplotlib (http://matplotlib.org/) -->
<svg height="333pt" version="1.1" viewBox="0 0 378 333" width="378pt" xmlns="http://www.w3.org/2000/svg" xmlns:xlink="http://www.w3.org/1999/xlink">
 <defs>
  <style type="text/css">
*{stroke-linecap:butt;stroke-linejoin:round;}
  </style>
 </defs>
 <g id="figure_1">
  <g id="patch_1">
   <path d="M 0 333.7245 
L 378.52 333.7245 
L 378.52 0 
L 0 0 
z
" style="fill:#ffffff;"/>
  </g>
  <g id="axes_1">
   <g id="patch_2">
    <path d="M 10.7 276.812 
L 367.82 276.812 
L 367.82 10.7 
L 10.7 10.7 
z
" style="fill:#ffffff;"/>
   </g>
   <g id="matplotlib.axis_1">
    <g id="xtick_1">
     <g id="line2d_1">
      <path clip-path="url(#p5d98652868)" d="M 10.609982 276.812 
L 10.609982 10.7 
" style="fill:none;stroke:#b0b0b0;stroke-linecap:square;stroke-width:0.8;"/>
     </g>
     <g id="line2d_2">
      <defs>
       <path d="M 0 0 
L 0 3.5 
" id="m482bb021c9" style="stroke:#000000;stroke-width:0.8;"/>
      </defs>
      <g>
       <use style="stroke:#000000;stroke-width:0.8;" x="10.609982" xlink:href="#m482bb021c9" y="276.812"/>
      </g>
     </g>
    </g>
    <g id="xtick_2">
     <g id="line2d_3">
      <path clip-path="url(#p5d98652868)" d="M 93.933403 276.812 
L 93.933403 10.7 
" style="fill:none;stroke:#b0b0b0;stroke-linecap:square;stroke-width:0.8;"/>
     </g>
     <g id="line2d_4">
      <g>
       <use style="stroke:#000000;stroke-width:0.8;" x="93.933403" xlink:href="#m482bb021c9" y="276.812"/>
      </g>
     </g>
     <g id="text_1">
      <!-- -4 -->
      <defs>
       <path d="M 4.890625 31.390625 
L 31.203125 31.390625 
L 31.203125 23.390625 
L 4.890625 23.390625 
z
" id="DejaVuSans-2d"/>
       <path d="M 37.796875 64.3125 
L 12.890625 25.390625 
L 37.796875 25.390625 
z
M 35.203125 72.90625 
L 47.609375 72.90625 
L 47.609375 25.390625 
L 58.015625 25.390625 
L 58.015625 17.1875 
L 47.609375 17.1875 
L 47.609375 0 
L 37.796875 0 
L 37.796875 17.1875 
L 4.890625 17.1875 
L 4.890625 26.703125 
z
" id="DejaVuSans-34"/>
      </defs>
      <g transform="translate(83.963091 299.008875)scale(0.2 -0.2)">
       <use xlink:href="#DejaVuSans-2d"/>
       <use x="36.083984" xlink:href="#DejaVuSans-34"/>
      </g>
     </g>
    </g>
    <g id="xtick_3">
     <g id="line2d_5">
      <path clip-path="url(#p5d98652868)" d="M 177.256825 276.812 
L 177.256825 10.7 
" style="fill:none;stroke:#b0b0b0;stroke-linecap:square;stroke-width:0.8;"/>
     </g>
     <g id="line2d_6">
      <g>
       <use style="stroke:#000000;stroke-width:0.8;" x="177.256825" xlink:href="#m482bb021c9" y="276.812"/>
      </g>
     </g>
     <g id="text_2">
      <!-- 0 -->
      <defs>
       <path d="M 31.78125 66.40625 
Q 24.171875 66.40625 20.328125 58.90625 
Q 16.5 51.421875 16.5 36.375 
Q 16.5 21.390625 20.328125 13.890625 
Q 24.171875 6.390625 31.78125 6.390625 
Q 39.453125 6.390625 43.28125 13.890625 
Q 47.125 21.390625 47.125 36.375 
Q 47.125 51.421875 43.28125 58.90625 
Q 39.453125 66.40625 31.78125 66.40625 
M 31.78125 74.21875 
Q 44.046875 74.21875 50.515625 64.515625 
Q 56.984375 54.828125 56.984375 36.375 
Q 56.984375 17.96875 50.515625 8.265625 
Q 44.046875 -1.421875 31.78125 -1.421875 
Q 19.53125 -1.421875 13.0625 8.265625 
Q 6.59375 17.96875 6.59375 36.375 
Q 6.59375 54.828125 13.0625 64.515625 
Q 19.53125 74.21875 31.78125 74.21875 
" id="DejaVuSans-30"/>
      </defs>
      <g transform="translate(170.894325 299.008875)scale(0.2 -0.2)">
       <use xlink:href="#DejaVuSans-30"/>
      </g>
     </g>
    </g>
    <g id="xtick_4">
     <g id="line2d_7">
      <path clip-path="url(#p5d98652868)" d="M 260.580246 276.812 
L 260.580246 10.7 
" style="fill:none;stroke:#b0b0b0;stroke-linecap:square;stroke-width:0.8;"/>
     </g>
     <g id="line2d_8">
      <g>
       <use style="stroke:#000000;stroke-width:0.8;" x="260.580246" xlink:href="#m482bb021c9" y="276.812"/>
      </g>
     </g>
     <g id="text_3">
      <!-- 4 -->
      <g transform="translate(254.217746 299.008875)scale(0.2 -0.2)">
       <use xlink:href="#DejaVuSans-34"/>
      </g>
     </g>
    </g>
    <g id="xtick_5">
     <g id="line2d_9">
      <path clip-path="url(#p5d98652868)" d="M 343.903667 276.812 
L 343.903667 10.7 
" style="fill:none;stroke:#b0b0b0;stroke-linecap:square;stroke-width:0.8;"/>
     </g>
     <g id="line2d_10">
      <g>
       <use style="stroke:#000000;stroke-width:0.8;" x="343.903667" xlink:href="#m482bb021c9" y="276.812"/>
      </g>
     </g>
     <g id="text_4">
      <!-- 8 -->
      <defs>
       <path d="M 31.78125 34.625 
Q 24.75 34.625 20.71875 30.859375 
Q 16.703125 27.09375 16.703125 20.515625 
Q 16.703125 13.921875 20.71875 10.15625 
Q 24.75 6.390625 31.78125 6.390625 
Q 38.8125 6.390625 42.859375 10.171875 
Q 46.921875 13.96875 46.921875 20.515625 
Q 46.921875 27.09375 42.890625 30.859375 
Q 38.875 34.625 31.78125 34.625 
M 21.921875 38.8125 
Q 15.578125 40.375 12.03125 44.71875 
Q 8.5 49.078125 8.5 55.328125 
Q 8.5 64.0625 14.71875 69.140625 
Q 20.953125 74.21875 31.78125 74.21875 
Q 42.671875 74.21875 48.875 69.140625 
Q 55.078125 64.0625 55.078125 55.328125 
Q 55.078125 49.078125 51.53125 44.71875 
Q 48 40.375 41.703125 38.8125 
Q 48.828125 37.15625 52.796875 32.3125 
Q 56.78125 27.484375 56.78125 20.515625 
Q 56.78125 9.90625 50.3125 4.234375 
Q 43.84375 -1.421875 31.78125 -1.421875 
Q 19.734375 -1.421875 13.25 4.234375 
Q 6.78125 9.90625 6.78125 20.515625 
Q 6.78125 27.484375 10.78125 32.3125 
Q 14.796875 37.15625 21.921875 38.8125 
M 18.3125 54.390625 
Q 18.3125 48.734375 21.84375 45.5625 
Q 25.390625 42.390625 31.78125 42.390625 
Q 38.140625 42.390625 41.71875 45.5625 
Q 45.3125 48.734375 45.3125 54.390625 
Q 45.3125 60.0625 41.71875 63.234375 
Q 38.140625 66.40625 31.78125 66.40625 
Q 25.390625 66.40625 21.84375 63.234375 
Q 18.3125 60.0625 18.3125 54.390625 
" id="DejaVuSans-38"/>
      </defs>
      <g transform="translate(337.541167 299.008875)scale(0.2 -0.2)">
       <use xlink:href="#DejaVuSans-38"/>
      </g>
     </g>
    </g>
    <g id="text_5">
     <!-- log10 of Df -->
     <defs>
      <path d="M 9.421875 75.984375 
L 18.40625 75.984375 
L 18.40625 0 
L 9.421875 0 
z
" id="DejaVuSans-6c"/>
      <path d="M 30.609375 48.390625 
Q 23.390625 48.390625 19.1875 42.75 
Q 14.984375 37.109375 14.984375 27.296875 
Q 14.984375 17.484375 19.15625 11.84375 
Q 23.34375 6.203125 30.609375 6.203125 
Q 37.796875 6.203125 41.984375 11.859375 
Q 46.1875 17.53125 46.1875 27.296875 
Q 46.1875 37.015625 41.984375 42.703125 
Q 37.796875 48.390625 30.609375 48.390625 
M 30.609375 56 
Q 42.328125 56 49.015625 48.375 
Q 55.71875 40.765625 55.71875 27.296875 
Q 55.71875 13.875 49.015625 6.21875 
Q 42.328125 -1.421875 30.609375 -1.421875 
Q 18.84375 -1.421875 12.171875 6.21875 
Q 5.515625 13.875 5.515625 27.296875 
Q 5.515625 40.765625 12.171875 48.375 
Q 18.84375 56 30.609375 56 
" id="DejaVuSans-6f"/>
      <path d="M 45.40625 27.984375 
Q 45.40625 37.75 41.375 43.109375 
Q 37.359375 48.484375 30.078125 48.484375 
Q 22.859375 48.484375 18.828125 43.109375 
Q 14.796875 37.75 14.796875 27.984375 
Q 14.796875 18.265625 18.828125 12.890625 
Q 22.859375 7.515625 30.078125 7.515625 
Q 37.359375 7.515625 41.375 12.890625 
Q 45.40625 18.265625 45.40625 27.984375 
M 54.390625 6.78125 
Q 54.390625 -7.171875 48.1875 -13.984375 
Q 42 -20.796875 29.203125 -20.796875 
Q 24.46875 -20.796875 20.265625 -20.09375 
Q 16.0625 -19.390625 12.109375 -17.921875 
L 12.109375 -9.1875 
Q 16.0625 -11.328125 19.921875 -12.34375 
Q 23.78125 -13.375 27.78125 -13.375 
Q 36.625 -13.375 41.015625 -8.765625 
Q 45.40625 -4.15625 45.40625 5.171875 
L 45.40625 9.625 
Q 42.625 4.78125 38.28125 2.390625 
Q 33.9375 0 27.875 0 
Q 17.828125 0 11.671875 7.65625 
Q 5.515625 15.328125 5.515625 27.984375 
Q 5.515625 40.671875 11.671875 48.328125 
Q 17.828125 56 27.875 56 
Q 33.9375 56 38.28125 53.609375 
Q 42.625 51.21875 45.40625 46.390625 
L 45.40625 54.6875 
L 54.390625 54.6875 
z
" id="DejaVuSans-67"/>
      <path d="M 12.40625 8.296875 
L 28.515625 8.296875 
L 28.515625 63.921875 
L 10.984375 60.40625 
L 10.984375 69.390625 
L 28.421875 72.90625 
L 38.28125 72.90625 
L 38.28125 8.296875 
L 54.390625 8.296875 
L 54.390625 0 
L 12.40625 0 
z
" id="DejaVuSans-31"/>
      <path id="DejaVuSans-20"/>
      <path d="M 37.109375 75.984375 
L 37.109375 68.5 
L 28.515625 68.5 
Q 23.6875 68.5 21.796875 66.546875 
Q 19.921875 64.59375 19.921875 59.515625 
L 19.921875 54.6875 
L 34.71875 54.6875 
L 34.71875 47.703125 
L 19.921875 47.703125 
L 19.921875 0 
L 10.890625 0 
L 10.890625 47.703125 
L 2.296875 47.703125 
L 2.296875 54.6875 
L 10.890625 54.6875 
L 10.890625 58.5 
Q 10.890625 67.625 15.140625 71.796875 
Q 19.390625 75.984375 28.609375 75.984375 
z
" id="DejaVuSans-66"/>
      <path d="M 19.671875 64.796875 
L 19.671875 8.109375 
L 31.59375 8.109375 
Q 46.6875 8.109375 53.6875 14.9375 
Q 60.6875 21.78125 60.6875 36.53125 
Q 60.6875 51.171875 53.6875 57.984375 
Q 46.6875 64.796875 31.59375 64.796875 
z
M 9.8125 72.90625 
L 30.078125 72.90625 
Q 51.265625 72.90625 61.171875 64.09375 
Q 71.09375 55.28125 71.09375 36.53125 
Q 71.09375 17.671875 61.125 8.828125 
Q 51.171875 0 30.078125 0 
L 9.8125 0 
z
" id="DejaVuSans-44"/>
     </defs>
     <g transform="translate(134.074063 322.365125)scale(0.2 -0.2)">
      <use xlink:href="#DejaVuSans-6c"/>
      <use x="27.783203" xlink:href="#DejaVuSans-6f"/>
      <use x="88.964844" xlink:href="#DejaVuSans-67"/>
      <use x="152.441406" xlink:href="#DejaVuSans-31"/>
      <use x="216.064453" xlink:href="#DejaVuSans-30"/>
      <use x="279.6875" xlink:href="#DejaVuSans-20"/>
      <use x="311.474609" xlink:href="#DejaVuSans-6f"/>
      <use x="372.65625" xlink:href="#DejaVuSans-66"/>
      <use x="407.861328" xlink:href="#DejaVuSans-20"/>
      <use x="439.648438" xlink:href="#DejaVuSans-44"/>
      <use x="516.650391" xlink:href="#DejaVuSans-66"/>
     </g>
    </g>
   </g>
   <g id="matplotlib.axis_2">
    <g id="ytick_1">
     <g id="line2d_11">
      <path clip-path="url(#p5d98652868)" d="M 10.7 276.812 
L 367.82 276.812 
" style="fill:none;stroke:#b0b0b0;stroke-linecap:square;stroke-width:0.8;"/>
     </g>
     <g id="line2d_12">
      <defs>
       <path d="M 0 0 
L -3.5 0 
" id="mb736db1353" style="stroke:#000000;stroke-width:0.8;"/>
      </defs>
      <g>
       <use style="stroke:#000000;stroke-width:0.8;" x="10.7" xlink:href="#mb736db1353" y="276.812"/>
      </g>
     </g>
    </g>
    <g id="ytick_2">
     <g id="line2d_13">
      <path clip-path="url(#p5d98652868)" d="M 10.7 224.116554 
L 367.82 224.116554 
" style="fill:none;stroke:#b0b0b0;stroke-linecap:square;stroke-width:0.8;"/>
     </g>
     <g id="line2d_14">
      <g>
       <use style="stroke:#000000;stroke-width:0.8;" x="10.7" xlink:href="#mb736db1353" y="224.116554"/>
      </g>
     </g>
    </g>
    <g id="ytick_3">
     <g id="line2d_15">
      <path clip-path="url(#p5d98652868)" d="M 10.7 171.421109 
L 367.82 171.421109 
" style="fill:none;stroke:#b0b0b0;stroke-linecap:square;stroke-width:0.8;"/>
     </g>
     <g id="line2d_16">
      <g>
       <use style="stroke:#000000;stroke-width:0.8;" x="10.7" xlink:href="#mb736db1353" y="171.421109"/>
      </g>
     </g>
    </g>
    <g id="ytick_4">
     <g id="line2d_17">
      <path clip-path="url(#p5d98652868)" d="M 10.7 118.725663 
L 367.82 118.725663 
" style="fill:none;stroke:#b0b0b0;stroke-linecap:square;stroke-width:0.8;"/>
     </g>
     <g id="line2d_18">
      <g>
       <use style="stroke:#000000;stroke-width:0.8;" x="10.7" xlink:href="#mb736db1353" y="118.725663"/>
      </g>
     </g>
    </g>
    <g id="ytick_5">
     <g id="line2d_19">
      <path clip-path="url(#p5d98652868)" d="M 10.7 66.030218 
L 367.82 66.030218 
" style="fill:none;stroke:#b0b0b0;stroke-linecap:square;stroke-width:0.8;"/>
     </g>
     <g id="line2d_20">
      <g>
       <use style="stroke:#000000;stroke-width:0.8;" x="10.7" xlink:href="#mb736db1353" y="66.030218"/>
      </g>
     </g>
    </g>
    <g id="ytick_6">
     <g id="line2d_21">
      <path clip-path="url(#p5d98652868)" d="M 10.7 13.334772 
L 367.82 13.334772 
" style="fill:none;stroke:#b0b0b0;stroke-linecap:square;stroke-width:0.8;"/>
     </g>
     <g id="line2d_22">
      <g>
       <use style="stroke:#000000;stroke-width:0.8;" x="10.7" xlink:href="#mb736db1353" y="13.334772"/>
      </g>
     </g>
    </g>
   </g>
   <g id="line2d_23">
    <path clip-path="url(#p5d98652868)" d="M 220.081365 276.812 
L 220.081365 272.420713 
L 220.828036 272.420713 
L 220.828036 268.029426 
L 220.828036 268.029426 
L 220.828036 263.638139 
L 220.828036 263.638139 
L 220.828036 259.246851 
L 220.828036 259.246851 
L 220.828036 254.855564 
L 220.828036 254.855564 
L 220.828036 250.464277 
L 220.828036 250.464277 
L 220.828036 246.07299 
L 220.828036 246.07299 
L 220.828036 241.681703 
L 220.828036 241.681703 
L 220.828036 237.290416 
L 220.828036 237.290416 
L 220.828036 232.899129 
L 220.828036 232.899129 
L 220.828036 228.507842 
L 220.828036 228.507842 
L 220.828036 224.116554 
L 220.828036 224.116554 
L 220.828036 219.725267 
L 220.828036 219.725267 
L 220.828036 215.33398 
L 220.828036 215.33398 
L 220.828036 210.942693 
L 229.342672 210.942693 
L 229.342672 206.551406 
L 231.758664 206.551406 
L 231.758664 202.160119 
L 232.11164 202.160119 
L 232.11164 197.768832 
L 232.347654 197.768832 
L 232.347654 193.377545 
L 232.528864 193.377545 
L 232.528864 188.986257 
L 233.635763 188.986257 
L 233.635763 184.59497 
L 234.13927 184.59497 
L 234.13927 180.203683 
L 234.87292 180.203683 
L 234.87292 175.812396 
L 235.359068 175.812396 
L 235.359068 171.421109 
L 236.307997 171.421109 
L 236.307997 167.029822 
L 237.48847 167.029822 
L 237.48847 162.638535 
L 238.452061 162.638535 
L 238.452061 158.247248 
L 240.491547 158.247248 
L 240.491547 153.85596 
L 243.45822 153.85596 
L 243.45822 149.464673 
L 243.510369 149.464673 
L 243.510369 145.073386 
L 267.557224 145.073386 
L 267.557224 140.682099 
L 268.172967 140.682099 
L 268.172967 136.290812 
L 268.413924 136.290812 
L 268.413924 131.899525 
L 269.076739 131.899525 
L 269.076739 127.508238 
L 270.389775 127.508238 
L 270.389775 123.11695 
L 271.610994 123.11695 
L 271.610994 118.725663 
L 273.014897 118.725663 
L 273.014897 114.334376 
L 274.383003 114.334376 
L 274.383003 109.943089 
L 274.439611 109.943089 
L 274.439611 105.551802 
L 274.738326 105.551802 
L 274.738326 101.160515 
L 275.288341 101.160515 
L 275.288341 96.769228 
L 277.029025 96.769228 
L 277.029025 92.377941 
L 277.918388 92.377941 
L 277.918388 87.986653 
L 278.188571 87.986653 
L 278.188571 83.595366 
L 279.089721 83.595366 
L 279.089721 79.204079 
L 279.76468 79.204079 
L 279.76468 74.812792 
L 285.848703 74.812792 
L 285.848703 70.421505 
L 286.662841 70.421505 
L 286.662841 66.030218 
L 291.263503 66.030218 
L 291.263503 61.638931 
L 291.679515 61.638931 
L 291.679515 57.247644 
L 292.261984 57.247644 
L 292.261984 52.856356 
L 292.594213 52.856356 
L 292.594213 48.465069 
L 295.33235 48.465069 
L 295.33235 44.073782 
L 295.394138 44.073782 
L 295.394138 39.682495 
L 295.693173 39.682495 
L 295.693173 35.291208 
L 297.421305 35.291208 
L 297.421305 30.899921 
L 297.475572 30.899921 
L 297.475572 26.508634 
L 297.780205 26.508634 
L 297.780205 22.117347 
L 298.032001 22.117347 
L 298.032001 17.726059 
L 301.911886 17.726059 
L 301.911886 13.334772 
L 301.911886 13.334772 
L 301.911886 13.334772 
L 367.82 13.334772 
" style="fill:none;stroke:#ff0000;stroke-linecap:square;stroke-width:3;"/>
   </g>
   <g id="line2d_24">
    <path clip-path="url(#p5d98652868)" d="M 220.828036 276.812 
L 220.828036 272.420713 
L 220.828036 272.420713 
L 220.828036 268.029426 
L 220.828036 268.029426 
L 220.828036 263.638139 
L 220.828036 263.638139 
L 220.828036 259.246851 
L 220.828036 259.246851 
L 220.828036 254.855564 
L 220.828036 254.855564 
L 220.828036 250.464277 
L 220.828036 250.464277 
L 220.828036 246.07299 
L 220.828036 246.07299 
L 220.828036 241.681703 
L 220.828036 241.681703 
L 220.828036 237.290416 
L 220.828036 237.290416 
L 220.828036 232.899129 
L 220.828036 232.899129 
L 220.828036 228.507842 
L 220.828036 228.507842 
L 220.828036 224.116554 
L 220.828036 224.116554 
L 220.828036 219.725267 
L 220.828036 219.725267 
L 220.828036 215.33398 
L 220.828036 215.33398 
L 220.828036 210.942693 
L 232.968553 210.942693 
L 232.968553 206.551406 
L 233.922054 206.551406 
L 233.922054 202.160119 
L 234.635359 202.160119 
L 234.635359 197.768832 
L 235.878402 197.768832 
L 235.878402 193.377545 
L 236.210916 193.377545 
L 236.210916 188.986257 
L 237.610468 188.986257 
L 237.610468 184.59497 
L 237.618491 184.59497 
L 237.618491 180.203683 
L 238.071669 180.203683 
L 238.071669 175.812396 
L 238.419288 175.812396 
L 238.419288 171.421109 
L 239.546595 171.421109 
L 239.546595 167.029822 
L 240.428501 167.029822 
L 240.428501 162.638535 
L 241.386648 162.638535 
L 241.386648 158.247248 
L 242.37352 158.247248 
L 242.37352 153.85596 
L 245.307744 153.85596 
L 245.307744 149.464673 
L 245.556608 149.464673 
L 245.556608 145.073386 
L 268.855581 145.073386 
L 268.855581 140.682099 
L 269.24427 140.682099 
L 269.24427 136.290812 
L 269.819533 136.290812 
L 269.819533 131.899525 
L 270.797859 131.899525 
L 270.797859 127.508238 
L 272.728384 127.508238 
L 272.728384 123.11695 
L 272.936933 123.11695 
L 272.936933 118.725663 
L 274.439611 118.725663 
L 274.439611 114.334376 
L 274.489958 114.334376 
L 274.489958 109.943089 
L 274.678939 109.943089 
L 274.678939 105.551802 
L 275.491195 105.551802 
L 275.491195 101.160515 
L 275.625763 101.160515 
L 275.625763 96.769228 
L 278.06679 96.769228 
L 278.06679 92.377941 
L 278.188571 92.377941 
L 278.188571 87.986653 
L 279.202375 87.986653 
L 279.202375 83.595366 
L 279.76468 83.595366 
L 279.76468 79.204079 
L 282.043297 79.204079 
L 282.043297 74.812792 
L 289.494883 74.812792 
L 289.494883 70.421505 
L 290.269901 70.421505 
L 290.269901 66.030218 
L 293.327768 66.030218 
L 293.327768 61.638931 
L 295.034614 61.638931 
L 295.034614 57.247644 
L 295.611825 57.247644 
L 295.611825 52.856356 
L 296.202933 52.856356 
L 296.202933 48.465069 
L 297.279723 48.465069 
L 297.279723 44.073782 
L 297.30026 44.073782 
L 297.30026 39.682495 
L 297.311605 39.682495 
L 297.311605 35.291208 
L 298.86728 35.291208 
L 298.86728 30.899921 
L 298.971073 30.899921 
L 298.971073 26.508634 
L 299.928385 26.508634 
L 299.928385 22.117347 
L 301.011516 22.117347 
L 301.011516 17.726059 
L 302.700324 17.726059 
L 302.700324 13.334772 
L 302.700324 13.334772 
L 302.700324 13.334772 
L 367.82 13.334772 
" style="fill:none;stroke:#00bfbf;stroke-linecap:square;stroke-width:1.5;"/>
   </g>
   <g id="line2d_25">
    <path clip-path="url(#p5d98652868)" d="M 220.828036 276.812 
L 220.828036 272.420713 
L 220.828036 272.420713 
L 220.828036 268.029426 
L 220.828036 268.029426 
L 220.828036 263.638139 
L 220.828036 263.638139 
L 220.828036 259.246851 
L 220.828036 259.246851 
L 220.828036 254.855564 
L 220.828036 254.855564 
L 220.828036 250.464277 
L 220.828036 250.464277 
L 220.828036 246.07299 
L 220.828036 246.07299 
L 220.828036 241.681703 
L 220.828036 241.681703 
L 220.828036 237.290416 
L 220.828036 237.290416 
L 220.828036 232.899129 
L 220.828036 232.899129 
L 220.828036 228.507842 
L 220.828036 228.507842 
L 220.828036 224.116554 
L 220.828036 224.116554 
L 220.828036 219.725267 
L 220.828036 219.725267 
L 220.828036 215.33398 
L 220.828036 215.33398 
L 220.828036 210.942693 
L 231.655277 210.942693 
L 231.655277 206.551406 
L 233.922054 206.551406 
L 233.922054 202.160119 
L 234.567901 202.160119 
L 234.567901 197.768832 
L 234.769569 197.768832 
L 234.769569 193.377545 
L 235.878402 193.377545 
L 235.878402 188.986257 
L 237.339551 188.986257 
L 237.339551 184.59497 
L 237.610468 184.59497 
L 237.610468 180.203683 
L 237.618491 180.203683 
L 237.618491 175.812396 
L 238.071669 175.812396 
L 238.071669 171.421109 
L 239.468218 171.421109 
L 239.468218 167.029822 
L 239.546595 167.029822 
L 239.546595 162.638535 
L 240.938253 162.638535 
L 240.938253 158.247248 
L 242.37352 158.247248 
L 242.37352 153.85596 
L 245.307744 153.85596 
L 245.307744 149.464673 
L 245.446406 149.464673 
L 245.446406 145.073386 
L 268.855581 145.073386 
L 268.855581 140.682099 
L 269.24427 140.682099 
L 269.24427 136.290812 
L 269.819533 136.290812 
L 269.819533 131.899525 
L 270.797859 131.899525 
L 270.797859 127.508238 
L 272.728384 127.508238 
L 272.728384 123.11695 
L 272.936933 123.11695 
L 272.936933 118.725663 
L 274.439611 118.725663 
L 274.439611 114.334376 
L 274.489958 114.334376 
L 274.489958 109.943089 
L 274.678939 109.943089 
L 274.678939 105.551802 
L 275.491195 105.551802 
L 275.491195 101.160515 
L 275.625763 101.160515 
L 275.625763 96.769228 
L 278.06679 96.769228 
L 278.06679 92.377941 
L 278.188571 92.377941 
L 278.188571 87.986653 
L 279.202375 87.986653 
L 279.202375 83.595366 
L 279.76468 83.595366 
L 279.76468 79.204079 
L 281.581553 79.204079 
L 281.581553 74.812792 
L 289.494883 74.812792 
L 289.494883 70.421505 
L 290.269901 70.421505 
L 290.269901 66.030218 
L 292.856469 66.030218 
L 292.856469 61.638931 
L 295.034614 61.638931 
L 295.034614 57.247644 
L 295.361028 57.247644 
L 295.361028 52.856356 
L 295.611825 52.856356 
L 295.611825 48.465069 
L 297.22543 48.465069 
L 297.22543 44.073782 
L 297.30026 44.073782 
L 297.30026 39.682495 
L 297.311605 39.682495 
L 297.311605 35.291208 
L 298.40353 35.291208 
L 298.40353 30.899921 
L 298.86728 30.899921 
L 298.86728 26.508634 
L 298.971073 26.508634 
L 298.971073 22.117347 
L 300.757135 22.117347 
L 300.757135 17.726059 
L 302.700324 17.726059 
L 302.700324 13.334772 
L 302.700324 13.334772 
L 302.700324 13.334772 
L 367.82 13.334772 
" style="fill:none;stroke:#bf00bf;stroke-linecap:square;stroke-width:1.5;"/>
   </g>
   <g id="line2d_26">
    <path clip-path="url(#p5d98652868)" d="M 220.828036 276.812 
L 220.828036 272.420713 
L 220.828036 272.420713 
L 220.828036 268.029426 
L 220.828036 268.029426 
L 220.828036 263.638139 
L 220.828036 263.638139 
L 220.828036 259.246851 
L 220.828036 259.246851 
L 220.828036 254.855564 
L 220.828036 254.855564 
L 220.828036 250.464277 
L 220.828036 250.464277 
L 220.828036 246.07299 
L 220.828036 246.07299 
L 220.828036 241.681703 
L 220.828036 241.681703 
L 220.828036 237.290416 
L 220.828036 237.290416 
L 220.828036 232.899129 
L 220.828036 232.899129 
L 220.828036 228.507842 
L 220.828036 228.507842 
L 220.828036 224.116554 
L 220.828036 224.116554 
L 220.828036 219.725267 
L 220.828036 219.725267 
L 220.828036 215.33398 
L 220.828036 215.33398 
L 220.828036 210.942693 
L 231.655277 210.942693 
L 231.655277 206.551406 
L 233.922054 206.551406 
L 233.922054 202.160119 
L 234.394707 202.160119 
L 234.394707 197.768832 
L 234.769569 197.768832 
L 234.769569 193.377545 
L 235.307153 193.377545 
L 235.307153 188.986257 
L 237.331298 188.986257 
L 237.331298 184.59497 
L 237.571366 184.59497 
L 237.571366 180.203683 
L 237.579712 180.203683 
L 237.579712 175.812396 
L 237.610468 175.812396 
L 237.610468 171.421109 
L 239.40966 171.421109 
L 239.40966 167.029822 
L 239.468218 167.029822 
L 239.468218 162.638535 
L 239.546595 162.638535 
L 239.546595 158.247248 
L 242.220189 158.247248 
L 242.220189 153.85596 
L 245.179381 153.85596 
L 245.179381 149.464673 
L 245.307744 149.464673 
L 245.307744 145.073386 
L 268.855581 145.073386 
L 268.855581 140.682099 
L 269.24427 140.682099 
L 269.24427 136.290812 
L 269.819533 136.290812 
L 269.819533 131.899525 
L 270.797859 131.899525 
L 270.797859 127.508238 
L 272.728384 127.508238 
L 272.728384 123.11695 
L 272.936933 123.11695 
L 272.936933 118.725663 
L 274.439611 118.725663 
L 274.439611 114.334376 
L 274.489958 114.334376 
L 274.489958 109.943089 
L 274.678939 109.943089 
L 274.678939 105.551802 
L 275.491195 105.551802 
L 275.491195 101.160515 
L 275.625763 101.160515 
L 275.625763 96.769228 
L 278.06679 96.769228 
L 278.06679 92.377941 
L 278.188571 92.377941 
L 278.188571 87.986653 
L 279.202375 87.986653 
L 279.202375 83.595366 
L 279.76468 83.595366 
L 279.76468 79.204079 
L 280.290874 79.204079 
L 280.290874 74.812792 
L 288.857256 74.812792 
L 288.857256 70.421505 
L 290.023966 70.421505 
L 290.023966 66.030218 
L 292.856469 66.030218 
L 292.856469 61.638931 
L 295.034614 61.638931 
L 295.034614 57.247644 
L 295.361028 57.247644 
L 295.361028 52.856356 
L 295.611825 52.856356 
L 295.611825 48.465069 
L 297.212326 48.465069 
L 297.212326 44.073782 
L 297.281336 44.073782 
L 297.281336 39.682495 
L 297.30026 39.682495 
L 297.30026 35.291208 
L 298.40353 35.291208 
L 298.40353 30.899921 
L 298.86728 30.899921 
L 298.86728 26.508634 
L 298.971073 26.508634 
L 298.971073 22.117347 
L 300.527173 22.117347 
L 300.527173 17.726059 
L 302.700324 17.726059 
L 302.700324 13.334772 
L 302.700324 13.334772 
L 302.700324 13.334772 
L 367.82 13.334772 
" style="fill:none;stroke:#000000;stroke-linecap:square;stroke-width:1.5;"/>
   </g>
   <g id="line2d_27">
    <path clip-path="url(#p5d98652868)" d="M 220.828036 276.812 
L 220.828036 272.420713 
L 220.828036 272.420713 
L 220.828036 268.029426 
L 220.828036 268.029426 
L 220.828036 263.638139 
L 220.828036 263.638139 
L 220.828036 259.246851 
L 220.828036 259.246851 
L 220.828036 254.855564 
L 220.828036 254.855564 
L 220.828036 250.464277 
L 220.828036 250.464277 
L 220.828036 246.07299 
L 220.828036 246.07299 
L 220.828036 241.681703 
L 220.828036 241.681703 
L 220.828036 237.290416 
L 220.828036 237.290416 
L 220.828036 232.899129 
L 220.828036 232.899129 
L 220.828036 228.507842 
L 220.828036 228.507842 
L 220.828036 224.116554 
L 220.828036 224.116554 
L 220.828036 219.725267 
L 220.828036 219.725267 
L 220.828036 215.33398 
L 220.828036 215.33398 
L 220.828036 210.942693 
L 231.135402 210.942693 
L 231.135402 206.551406 
L 233.548365 206.551406 
L 233.548365 202.160119 
L 233.896118 202.160119 
L 233.896118 197.768832 
L 234.103018 197.768832 
L 234.103018 193.377545 
L 234.769569 193.377545 
L 234.769569 188.986257 
L 236.6483 188.986257 
L 236.6483 184.59497 
L 236.80614 184.59497 
L 236.80614 180.203683 
L 236.855333 180.203683 
L 236.855333 175.812396 
L 237.456827 175.812396 
L 237.456827 171.421109 
L 238.741737 171.421109 
L 238.741737 167.029822 
L 239.072276 167.029822 
L 239.072276 162.638535 
L 239.40966 162.638535 
L 239.40966 158.247248 
L 241.995599 158.247248 
L 241.995599 153.85596 
L 244.416208 153.85596 
L 244.416208 149.464673 
L 245.307744 149.464673 
L 245.307744 145.073386 
L 268.855581 145.073386 
L 268.855581 140.682099 
L 269.24427 140.682099 
L 269.24427 136.290812 
L 269.499927 136.290812 
L 269.499927 131.899525 
L 269.819533 131.899525 
L 269.819533 127.508238 
L 272.164706 127.508238 
L 272.164706 123.11695 
L 272.561427 123.11695 
L 272.561427 118.725663 
L 274.439611 118.725663 
L 274.439611 114.334376 
L 274.489958 114.334376 
L 274.489958 109.943089 
L 274.678939 109.943089 
L 274.678939 105.551802 
L 275.491195 105.551802 
L 275.491195 101.160515 
L 275.625763 101.160515 
L 275.625763 96.769228 
L 278.06679 96.769228 
L 278.06679 92.377941 
L 278.188571 92.377941 
L 278.188571 87.986653 
L 278.309306 87.986653 
L 278.309306 83.595366 
L 279.202375 83.595366 
L 279.202375 79.204079 
L 279.76468 79.204079 
L 279.76468 74.812792 
L 288.679195 74.812792 
L 288.679195 70.421505 
L 288.879205 70.421505 
L 288.879205 66.030218 
L 291.692761 66.030218 
L 291.692761 61.638931 
L 294.730943 61.638931 
L 294.730943 57.247644 
L 294.762678 57.247644 
L 294.762678 52.856356 
L 294.844753 52.856356 
L 294.844753 48.465069 
L 297.032365 48.465069 
L 297.032365 44.073782 
L 297.064958 44.073782 
L 297.064958 39.682495 
L 297.111212 39.682495 
L 297.111212 35.291208 
L 298.086855 35.291208 
L 298.086855 30.899921 
L 298.676534 30.899921 
L 298.676534 26.508634 
L 298.971073 26.508634 
L 298.971073 22.117347 
L 299.794079 22.117347 
L 299.794079 17.726059 
L 302.700324 17.726059 
L 302.700324 13.334772 
L 302.700324 13.334772 
L 302.700324 13.334772 
L 367.82 13.334772 
" style="fill:none;stroke:#00bfbf;stroke-linecap:square;stroke-width:1.5;"/>
   </g>
   <g id="line2d_28">
    <path clip-path="url(#p5d98652868)" d="M 220.828036 276.812 
L 220.828036 272.420713 
L 220.828036 272.420713 
L 220.828036 268.029426 
L 220.828036 268.029426 
L 220.828036 263.638139 
L 220.828036 263.638139 
L 220.828036 259.246851 
L 220.828036 259.246851 
L 220.828036 254.855564 
L 220.828036 254.855564 
L 220.828036 250.464277 
L 220.828036 250.464277 
L 220.828036 246.07299 
L 220.828036 246.07299 
L 220.828036 241.681703 
L 220.828036 241.681703 
L 220.828036 237.290416 
L 220.828036 237.290416 
L 220.828036 232.899129 
L 220.828036 232.899129 
L 220.828036 228.507842 
L 220.828036 228.507842 
L 220.828036 224.116554 
L 220.828036 224.116554 
L 220.828036 219.725267 
L 220.828036 219.725267 
L 220.828036 215.33398 
L 220.828036 215.33398 
L 220.828036 210.942693 
L 231.135402 210.942693 
L 231.135402 206.551406 
L 233.285005 206.551406 
L 233.285005 202.160119 
L 233.595114 202.160119 
L 233.595114 197.768832 
L 233.666406 197.768832 
L 233.666406 193.377545 
L 234.517513 193.377545 
L 234.517513 188.986257 
L 235.828278 188.986257 
L 235.828278 184.59497 
L 236.119598 184.59497 
L 236.119598 180.203683 
L 236.463042 180.203683 
L 236.463042 175.812396 
L 236.769484 175.812396 
L 236.769484 171.421109 
L 238.638621 171.421109 
L 238.638621 167.029822 
L 238.705658 167.029822 
L 238.705658 162.638535 
L 239.362554 162.638535 
L 239.362554 158.247248 
L 241.82708 158.247248 
L 241.82708 153.85596 
L 244.416208 153.85596 
L 244.416208 149.464673 
L 244.689538 149.464673 
L 244.689538 145.073386 
L 268.855581 145.073386 
L 268.855581 140.682099 
L 268.930675 140.682099 
L 268.930675 136.290812 
L 269.24427 136.290812 
L 269.24427 131.899525 
L 269.499927 131.899525 
L 269.499927 127.508238 
L 272.164706 127.508238 
L 272.164706 123.11695 
L 272.561427 123.11695 
L 272.561427 118.725663 
L 274.159718 118.725663 
L 274.159718 114.334376 
L 274.439611 114.334376 
L 274.439611 109.943089 
L 274.678939 109.943089 
L 274.678939 105.551802 
L 275.491195 105.551802 
L 275.491195 101.160515 
L 275.625763 101.160515 
L 275.625763 96.769228 
L 278.06679 96.769228 
L 278.06679 92.377941 
L 278.188571 92.377941 
L 278.188571 87.986653 
L 278.309306 87.986653 
L 278.309306 83.595366 
L 279.202375 83.595366 
L 279.202375 79.204079 
L 279.76468 79.204079 
L 279.76468 74.812792 
L 288.01998 74.812792 
L 288.01998 70.421505 
L 288.150656 70.421505 
L 288.150656 66.030218 
L 291.692761 66.030218 
L 291.692761 61.638931 
L 292.23056 61.638931 
L 292.23056 57.247644 
L 294.090294 57.247644 
L 294.090294 52.856356 
L 294.130977 52.856356 
L 294.130977 48.465069 
L 296.485644 48.465069 
L 296.485644 44.073782 
L 296.75111 44.073782 
L 296.75111 39.682495 
L 297.064958 39.682495 
L 297.064958 35.291208 
L 298.086855 35.291208 
L 298.086855 30.899921 
L 298.389453 30.899921 
L 298.389453 26.508634 
L 298.700044 26.508634 
L 298.700044 22.117347 
L 299.169496 22.117347 
L 299.169496 17.726059 
L 302.676337 17.726059 
L 302.676337 13.334772 
L 302.676337 13.334772 
L 302.676337 13.334772 
L 367.82 13.334772 
" style="fill:none;stroke:#bf00bf;stroke-linecap:square;stroke-width:1.5;"/>
   </g>
   <g id="line2d_29">
    <path clip-path="url(#p5d98652868)" d="M 220.471355 276.812 
L 220.471355 272.420713 
L 220.828036 272.420713 
L 220.828036 268.029426 
L 220.828036 268.029426 
L 220.828036 263.638139 
L 220.828036 263.638139 
L 220.828036 259.246851 
L 220.828036 259.246851 
L 220.828036 254.855564 
L 220.828036 254.855564 
L 220.828036 250.464277 
L 220.828036 250.464277 
L 220.828036 246.07299 
L 220.828036 246.07299 
L 220.828036 241.681703 
L 220.828036 241.681703 
L 220.828036 237.290416 
L 220.828036 237.290416 
L 220.828036 232.899129 
L 220.828036 232.899129 
L 220.828036 228.507842 
L 220.828036 228.507842 
L 220.828036 224.116554 
L 220.828036 224.116554 
L 220.828036 219.725267 
L 220.828036 219.725267 
L 220.828036 215.33398 
L 220.828036 215.33398 
L 220.828036 210.942693 
L 230.079363 210.942693 
L 230.079363 206.551406 
L 233.179983 206.551406 
L 233.179983 202.160119 
L 233.200337 202.160119 
L 233.200337 197.768832 
L 233.285005 197.768832 
L 233.285005 193.377545 
L 233.353657 193.377545 
L 233.353657 188.986257 
L 235.350607 188.986257 
L 235.350607 184.59497 
L 235.608755 184.59497 
L 235.608755 180.203683 
L 235.622395 180.203683 
L 235.622395 175.812396 
L 235.629767 175.812396 
L 235.629767 171.421109 
L 237.203378 171.421109 
L 237.203378 167.029822 
L 238.18426 167.029822 
L 238.18426 162.638535 
L 238.705658 162.638535 
L 238.705658 158.247248 
L 240.96987 158.247248 
L 240.96987 153.85596 
L 243.857575 153.85596 
L 243.857575 149.464673 
L 244.347329 149.464673 
L 244.347329 145.073386 
L 268.516254 145.073386 
L 268.516254 140.682099 
L 268.518318 140.682099 
L 268.518318 136.290812 
L 268.855581 136.290812 
L 268.855581 131.899525 
L 269.24427 131.899525 
L 269.24427 127.508238 
L 271.729587 127.508238 
L 271.729587 123.11695 
L 271.823486 123.11695 
L 271.823486 118.725663 
L 273.617875 118.725663 
L 273.617875 114.334376 
L 274.439611 114.334376 
L 274.439611 109.943089 
L 274.678939 109.943089 
L 274.678939 105.551802 
L 275.491195 105.551802 
L 275.491195 101.160515 
L 275.625763 101.160515 
L 275.625763 96.769228 
L 277.485793 96.769228 
L 277.485793 92.377941 
L 278.06679 92.377941 
L 278.06679 87.986653 
L 278.188571 87.986653 
L 278.188571 83.595366 
L 279.202375 83.595366 
L 279.202375 79.204079 
L 279.76468 79.204079 
L 279.76468 74.812792 
L 287.068643 74.812792 
L 287.068643 70.421505 
L 287.910637 70.421505 
L 287.910637 66.030218 
L 291.626385 66.030218 
L 291.626385 61.638931 
L 291.810351 61.638931 
L 291.810351 57.247644 
L 293.172622 57.247644 
L 293.172622 52.856356 
L 293.957487 52.856356 
L 293.957487 48.465069 
L 296.074163 48.465069 
L 296.074163 44.073782 
L 296.478921 44.073782 
L 296.478921 39.682495 
L 296.549587 39.682495 
L 296.549587 35.291208 
L 297.550719 35.291208 
L 297.550719 30.899921 
L 297.934501 30.899921 
L 297.934501 26.508634 
L 298.367327 26.508634 
L 298.367327 22.117347 
L 298.729272 22.117347 
L 298.729272 17.726059 
L 302.466649 17.726059 
L 302.466649 13.334772 
L 302.466649 13.334772 
L 302.466649 13.334772 
L 367.82 13.334772 
" style="fill:none;stroke:#000000;stroke-linecap:square;stroke-width:1.5;"/>
   </g>
   <g id="patch_3">
    <path d="M 10.7 276.812 
L 10.7 10.7 
" style="fill:none;stroke:#000000;stroke-linecap:square;stroke-linejoin:miter;stroke-width:0.8;"/>
   </g>
   <g id="patch_4">
    <path d="M 367.82 276.812 
L 367.82 10.7 
" style="fill:none;stroke:#000000;stroke-linecap:square;stroke-linejoin:miter;stroke-width:0.8;"/>
   </g>
   <g id="patch_5">
    <path d="M 10.7 276.812 
L 367.82 276.812 
" style="fill:none;stroke:#000000;stroke-linecap:square;stroke-linejoin:miter;stroke-width:0.8;"/>
   </g>
   <g id="patch_6">
    <path d="M 10.7 10.7 
L 367.82 10.7 
" style="fill:none;stroke:#000000;stroke-linecap:square;stroke-linejoin:miter;stroke-width:0.8;"/>
   </g>
   <g id="text_6">
    <!-- {f6-f9}, 20-D -->
    <defs>
     <path d="M 51.125 -9.28125 
L 51.125 -16.3125 
L 48.09375 -16.3125 
Q 35.9375 -16.3125 31.8125 -12.6875 
Q 27.6875 -9.078125 27.6875 1.703125 
L 27.6875 13.375 
Q 27.6875 20.75 25.046875 23.578125 
Q 22.40625 26.421875 15.484375 26.421875 
L 12.5 26.421875 
L 12.5 33.40625 
L 15.484375 33.40625 
Q 22.46875 33.40625 25.078125 36.203125 
Q 27.6875 39.015625 27.6875 46.296875 
L 27.6875 58.015625 
Q 27.6875 68.796875 31.8125 72.390625 
Q 35.9375 75.984375 48.09375 75.984375 
L 51.125 75.984375 
L 51.125 69 
L 47.796875 69 
Q 40.921875 69 38.8125 66.84375 
Q 36.71875 64.703125 36.71875 57.8125 
L 36.71875 45.703125 
Q 36.71875 38.03125 34.5 34.5625 
Q 32.28125 31.109375 26.90625 29.890625 
Q 32.328125 28.5625 34.515625 25.09375 
Q 36.71875 21.625 36.71875 14.015625 
L 36.71875 1.90625 
Q 36.71875 -4.984375 38.8125 -7.125 
Q 40.921875 -9.28125 47.796875 -9.28125 
z
" id="DejaVuSans-7b"/>
     <path d="M 33.015625 40.375 
Q 26.375 40.375 22.484375 35.828125 
Q 18.609375 31.296875 18.609375 23.390625 
Q 18.609375 15.53125 22.484375 10.953125 
Q 26.375 6.390625 33.015625 6.390625 
Q 39.65625 6.390625 43.53125 10.953125 
Q 47.40625 15.53125 47.40625 23.390625 
Q 47.40625 31.296875 43.53125 35.828125 
Q 39.65625 40.375 33.015625 40.375 
M 52.59375 71.296875 
L 52.59375 62.3125 
Q 48.875 64.0625 45.09375 64.984375 
Q 41.3125 65.921875 37.59375 65.921875 
Q 27.828125 65.921875 22.671875 59.328125 
Q 17.53125 52.734375 16.796875 39.40625 
Q 19.671875 43.65625 24.015625 45.921875 
Q 28.375 48.1875 33.59375 48.1875 
Q 44.578125 48.1875 50.953125 41.515625 
Q 57.328125 34.859375 57.328125 23.390625 
Q 57.328125 12.15625 50.6875 5.359375 
Q 44.046875 -1.421875 33.015625 -1.421875 
Q 20.359375 -1.421875 13.671875 8.265625 
Q 6.984375 17.96875 6.984375 36.375 
Q 6.984375 53.65625 15.1875 63.9375 
Q 23.390625 74.21875 37.203125 74.21875 
Q 40.921875 74.21875 44.703125 73.484375 
Q 48.484375 72.75 52.59375 71.296875 
" id="DejaVuSans-36"/>
     <path d="M 10.984375 1.515625 
L 10.984375 10.5 
Q 14.703125 8.734375 18.5 7.8125 
Q 22.3125 6.890625 25.984375 6.890625 
Q 35.75 6.890625 40.890625 13.453125 
Q 46.046875 20.015625 46.78125 33.40625 
Q 43.953125 29.203125 39.59375 26.953125 
Q 35.25 24.703125 29.984375 24.703125 
Q 19.046875 24.703125 12.671875 31.3125 
Q 6.296875 37.9375 6.296875 49.421875 
Q 6.296875 60.640625 12.9375 67.421875 
Q 19.578125 74.21875 30.609375 74.21875 
Q 43.265625 74.21875 49.921875 64.515625 
Q 56.59375 54.828125 56.59375 36.375 
Q 56.59375 19.140625 48.40625 8.859375 
Q 40.234375 -1.421875 26.421875 -1.421875 
Q 22.703125 -1.421875 18.890625 -0.6875 
Q 15.09375 0.046875 10.984375 1.515625 
M 30.609375 32.421875 
Q 37.25 32.421875 41.125 36.953125 
Q 45.015625 41.5 45.015625 49.421875 
Q 45.015625 57.28125 41.125 61.84375 
Q 37.25 66.40625 30.609375 66.40625 
Q 23.96875 66.40625 20.09375 61.84375 
Q 16.21875 57.28125 16.21875 49.421875 
Q 16.21875 41.5 20.09375 36.953125 
Q 23.96875 32.421875 30.609375 32.421875 
" id="DejaVuSans-39"/>
     <path d="M 12.5 -9.28125 
L 15.921875 -9.28125 
Q 22.75 -9.28125 24.828125 -7.171875 
Q 26.90625 -5.078125 26.90625 1.90625 
L 26.90625 14.015625 
Q 26.90625 21.625 29.09375 25.09375 
Q 31.296875 28.5625 36.71875 29.890625 
Q 31.296875 31.109375 29.09375 34.5625 
Q 26.90625 38.03125 26.90625 45.703125 
L 26.90625 57.8125 
Q 26.90625 64.75 24.828125 66.875 
Q 22.75 69 15.921875 69 
L 12.5 69 
L 12.5 75.984375 
L 15.578125 75.984375 
Q 27.734375 75.984375 31.8125 72.390625 
Q 35.890625 68.796875 35.890625 58.015625 
L 35.890625 46.296875 
Q 35.890625 39.015625 38.515625 36.203125 
Q 41.15625 33.40625 48.09375 33.40625 
L 51.125 33.40625 
L 51.125 26.421875 
L 48.09375 26.421875 
Q 41.15625 26.421875 38.515625 23.578125 
Q 35.890625 20.75 35.890625 13.375 
L 35.890625 1.703125 
Q 35.890625 -9.078125 31.8125 -12.6875 
Q 27.734375 -16.3125 15.578125 -16.3125 
L 12.5 -16.3125 
z
" id="DejaVuSans-7d"/>
     <path d="M 11.71875 12.40625 
L 22.015625 12.40625 
L 22.015625 4 
L 14.015625 -11.625 
L 7.71875 -11.625 
L 11.71875 4 
z
" id="DejaVuSans-2c"/>
     <path d="M 19.1875 8.296875 
L 53.609375 8.296875 
L 53.609375 0 
L 7.328125 0 
L 7.328125 8.296875 
Q 12.9375 14.109375 22.625 23.890625 
Q 32.328125 33.6875 34.8125 36.53125 
Q 39.546875 41.84375 41.421875 45.53125 
Q 43.3125 49.21875 43.3125 52.78125 
Q 43.3125 58.59375 39.234375 62.25 
Q 35.15625 65.921875 28.609375 65.921875 
Q 23.96875 65.921875 18.8125 64.3125 
Q 13.671875 62.703125 7.8125 59.421875 
L 7.8125 69.390625 
Q 13.765625 71.78125 18.9375 73 
Q 24.125 74.21875 28.421875 74.21875 
Q 39.75 74.21875 46.484375 68.546875 
Q 53.21875 62.890625 53.21875 53.421875 
Q 53.21875 48.921875 51.53125 44.890625 
Q 49.859375 40.875 45.40625 35.40625 
Q 44.1875 33.984375 37.640625 27.21875 
Q 31.109375 20.453125 19.1875 8.296875 
" id="DejaVuSans-32"/>
    </defs>
    <g transform="translate(227.7026 271.48976)scale(0.2 -0.2)">
     <use xlink:href="#DejaVuSans-7b"/>
     <use x="63.623047" xlink:href="#DejaVuSans-66"/>
     <use x="98.828125" xlink:href="#DejaVuSans-36"/>
     <use x="162.451172" xlink:href="#DejaVuSans-2d"/>
     <use x="198.535156" xlink:href="#DejaVuSans-66"/>
     <use x="233.740234" xlink:href="#DejaVuSans-39"/>
     <use x="297.363281" xlink:href="#DejaVuSans-7d"/>
     <use x="360.986328" xlink:href="#DejaVuSans-2c"/>
     <use x="392.773438" xlink:href="#DejaVuSans-20"/>
     <use x="424.560547" xlink:href="#DejaVuSans-32"/>
     <use x="488.183594" xlink:href="#DejaVuSans-30"/>
     <use x="551.806641" xlink:href="#DejaVuSans-2d"/>
     <use x="587.890625" xlink:href="#DejaVuSans-44"/>
    </g>
   </g>
   <g id="text_7">
    <!-- v2.1 -->
    <defs>
     <path d="M 2.984375 54.6875 
L 12.5 54.6875 
L 29.59375 8.796875 
L 46.6875 54.6875 
L 56.203125 54.6875 
L 35.6875 0 
L 23.484375 0 
z
" id="DejaVuSans-76"/>
     <path d="M 10.6875 12.40625 
L 21 12.40625 
L 21 0 
L 10.6875 0 
z
" id="DejaVuSans-2e"/>
    </defs>
    <g style="fill:#808080;" transform="translate(178.349063 272.071193)scale(0.1 -0.1)">
     <use xlink:href="#DejaVuSans-76"/>
     <use x="59.179688" xlink:href="#DejaVuSans-32"/>
     <use x="122.802734" xlink:href="#DejaVuSans-2e"/>
     <use x="154.589844" xlink:href="#DejaVuSans-31"/>
    </g>
   </g>
  </g>
 </g>
 <defs>
  <clipPath id="p5d98652868">
   <rect height="266.112" width="357.12" x="10.7" y="10.7"/>
  </clipPath>
 </defs>
</svg>
