<?xml version="1.0" encoding="utf-8" standalone="no"?>
<!DOCTYPE svg PUBLIC "-//W3C//DTD SVG 1.1//EN"
  "http://www.w3.org/Graphics/SVG/1.1/DTD/svg11.dtd">
<!-- Created with matplotlib (http://matplotlib.org/) -->
<svg height="333pt" version="1.1" viewBox="0 0 378 333" width="378pt" xmlns="http://www.w3.org/2000/svg" xmlns:xlink="http://www.w3.org/1999/xlink">
 <defs>
  <style type="text/css">
*{stroke-linecap:butt;stroke-linejoin:round;}
  </style>
 </defs>
 <g id="figure_1">
  <g id="patch_1">
   <path d="M 0 333.7245 
L 378.52 333.7245 
L 378.52 0 
L 0 0 
z
" style="fill:#ffffff;"/>
  </g>
  <g id="axes_1">
   <g id="patch_2">
    <path d="M 10.7 276.812 
L 367.82 276.812 
L 367.82 10.7 
L 10.7 10.7 
z
" style="fill:#ffffff;"/>
   </g>
   <g id="matplotlib.axis_1">
    <g id="xtick_1">
     <g id="line2d_1">
      <path clip-path="url(#p7af578ac44)" d="M 10.609699 276.812 
L 10.609699 10.7 
" style="fill:none;stroke:#b0b0b0;stroke-linecap:square;stroke-width:0.8;"/>
     </g>
     <g id="line2d_2">
      <defs>
       <path d="M 0 0 
L 0 3.5 
" id="m9c3db007f6" style="stroke:#000000;stroke-width:0.8;"/>
      </defs>
      <g>
       <use style="stroke:#000000;stroke-width:0.8;" x="10.609699" xlink:href="#m9c3db007f6" y="276.812"/>
      </g>
     </g>
    </g>
    <g id="xtick_2">
     <g id="line2d_3">
      <path clip-path="url(#p7af578ac44)" d="M 94.195204 276.812 
L 94.195204 10.7 
" style="fill:none;stroke:#b0b0b0;stroke-linecap:square;stroke-width:0.8;"/>
     </g>
     <g id="line2d_4">
      <g>
       <use style="stroke:#000000;stroke-width:0.8;" x="94.195204" xlink:href="#m9c3db007f6" y="276.812"/>
      </g>
     </g>
     <g id="text_1">
      <!-- -4 -->
      <defs>
       <path d="M 4.890625 31.390625 
L 31.203125 31.390625 
L 31.203125 23.390625 
L 4.890625 23.390625 
z
" id="DejaVuSans-2d"/>
       <path d="M 37.796875 64.3125 
L 12.890625 25.390625 
L 37.796875 25.390625 
z
M 35.203125 72.90625 
L 47.609375 72.90625 
L 47.609375 25.390625 
L 58.015625 25.390625 
L 58.015625 17.1875 
L 47.609375 17.1875 
L 47.609375 0 
L 37.796875 0 
L 37.796875 17.1875 
L 4.890625 17.1875 
L 4.890625 26.703125 
z
" id="DejaVuSans-34"/>
      </defs>
      <g transform="translate(84.224892 299.008875)scale(0.2 -0.2)">
       <use xlink:href="#DejaVuSans-2d"/>
       <use x="36.083984" xlink:href="#DejaVuSans-34"/>
      </g>
     </g>
    </g>
    <g id="xtick_3">
     <g id="line2d_5">
      <path clip-path="url(#p7af578ac44)" d="M 177.780709 276.812 
L 177.780709 10.7 
" style="fill:none;stroke:#b0b0b0;stroke-linecap:square;stroke-width:0.8;"/>
     </g>
     <g id="line2d_6">
      <g>
       <use style="stroke:#000000;stroke-width:0.8;" x="177.780709" xlink:href="#m9c3db007f6" y="276.812"/>
      </g>
     </g>
     <g id="text_2">
      <!-- 0 -->
      <defs>
       <path d="M 31.78125 66.40625 
Q 24.171875 66.40625 20.328125 58.90625 
Q 16.5 51.421875 16.5 36.375 
Q 16.5 21.390625 20.328125 13.890625 
Q 24.171875 6.390625 31.78125 6.390625 
Q 39.453125 6.390625 43.28125 13.890625 
Q 47.125 21.390625 47.125 36.375 
Q 47.125 51.421875 43.28125 58.90625 
Q 39.453125 66.40625 31.78125 66.40625 
M 31.78125 74.21875 
Q 44.046875 74.21875 50.515625 64.515625 
Q 56.984375 54.828125 56.984375 36.375 
Q 56.984375 17.96875 50.515625 8.265625 
Q 44.046875 -1.421875 31.78125 -1.421875 
Q 19.53125 -1.421875 13.0625 8.265625 
Q 6.59375 17.96875 6.59375 36.375 
Q 6.59375 54.828125 13.0625 64.515625 
Q 19.53125 74.21875 31.78125 74.21875 
" id="DejaVuSans-30"/>
      </defs>
      <g transform="translate(171.418209 299.008875)scale(0.2 -0.2)">
       <use xlink:href="#DejaVuSans-30"/>
      </g>
     </g>
    </g>
    <g id="xtick_4">
     <g id="line2d_7">
      <path clip-path="url(#p7af578ac44)" d="M 261.366214 276.812 
L 261.366214 10.7 
" style="fill:none;stroke:#b0b0b0;stroke-linecap:square;stroke-width:0.8;"/>
     </g>
     <g id="line2d_8">
      <g>
       <use style="stroke:#000000;stroke-width:0.8;" x="261.366214" xlink:href="#m9c3db007f6" y="276.812"/>
      </g>
     </g>
     <g id="text_3">
      <!-- 4 -->
      <g transform="translate(255.003714 299.008875)scale(0.2 -0.2)">
       <use xlink:href="#DejaVuSans-34"/>
      </g>
     </g>
    </g>
    <g id="xtick_5">
     <g id="line2d_9">
      <path clip-path="url(#p7af578ac44)" d="M 344.951719 276.812 
L 344.951719 10.7 
" style="fill:none;stroke:#b0b0b0;stroke-linecap:square;stroke-width:0.8;"/>
     </g>
     <g id="line2d_10">
      <g>
       <use style="stroke:#000000;stroke-width:0.8;" x="344.951719" xlink:href="#m9c3db007f6" y="276.812"/>
      </g>
     </g>
     <g id="text_4">
      <!-- 8 -->
      <defs>
       <path d="M 31.78125 34.625 
Q 24.75 34.625 20.71875 30.859375 
Q 16.703125 27.09375 16.703125 20.515625 
Q 16.703125 13.921875 20.71875 10.15625 
Q 24.75 6.390625 31.78125 6.390625 
Q 38.8125 6.390625 42.859375 10.171875 
Q 46.921875 13.96875 46.921875 20.515625 
Q 46.921875 27.09375 42.890625 30.859375 
Q 38.875 34.625 31.78125 34.625 
M 21.921875 38.8125 
Q 15.578125 40.375 12.03125 44.71875 
Q 8.5 49.078125 8.5 55.328125 
Q 8.5 64.0625 14.71875 69.140625 
Q 20.953125 74.21875 31.78125 74.21875 
Q 42.671875 74.21875 48.875 69.140625 
Q 55.078125 64.0625 55.078125 55.328125 
Q 55.078125 49.078125 51.53125 44.71875 
Q 48 40.375 41.703125 38.8125 
Q 48.828125 37.15625 52.796875 32.3125 
Q 56.78125 27.484375 56.78125 20.515625 
Q 56.78125 9.90625 50.3125 4.234375 
Q 43.84375 -1.421875 31.78125 -1.421875 
Q 19.734375 -1.421875 13.25 4.234375 
Q 6.78125 9.90625 6.78125 20.515625 
Q 6.78125 27.484375 10.78125 32.3125 
Q 14.796875 37.15625 21.921875 38.8125 
M 18.3125 54.390625 
Q 18.3125 48.734375 21.84375 45.5625 
Q 25.390625 42.390625 31.78125 42.390625 
Q 38.140625 42.390625 41.71875 45.5625 
Q 45.3125 48.734375 45.3125 54.390625 
Q 45.3125 60.0625 41.71875 63.234375 
Q 38.140625 66.40625 31.78125 66.40625 
Q 25.390625 66.40625 21.84375 63.234375 
Q 18.3125 60.0625 18.3125 54.390625 
" id="DejaVuSans-38"/>
      </defs>
      <g transform="translate(338.589219 299.008875)scale(0.2 -0.2)">
       <use xlink:href="#DejaVuSans-38"/>
      </g>
     </g>
    </g>
    <g id="text_5">
     <!-- log10 of Df -->
     <defs>
      <path d="M 9.421875 75.984375 
L 18.40625 75.984375 
L 18.40625 0 
L 9.421875 0 
z
" id="DejaVuSans-6c"/>
      <path d="M 30.609375 48.390625 
Q 23.390625 48.390625 19.1875 42.75 
Q 14.984375 37.109375 14.984375 27.296875 
Q 14.984375 17.484375 19.15625 11.84375 
Q 23.34375 6.203125 30.609375 6.203125 
Q 37.796875 6.203125 41.984375 11.859375 
Q 46.1875 17.53125 46.1875 27.296875 
Q 46.1875 37.015625 41.984375 42.703125 
Q 37.796875 48.390625 30.609375 48.390625 
M 30.609375 56 
Q 42.328125 56 49.015625 48.375 
Q 55.71875 40.765625 55.71875 27.296875 
Q 55.71875 13.875 49.015625 6.21875 
Q 42.328125 -1.421875 30.609375 -1.421875 
Q 18.84375 -1.421875 12.171875 6.21875 
Q 5.515625 13.875 5.515625 27.296875 
Q 5.515625 40.765625 12.171875 48.375 
Q 18.84375 56 30.609375 56 
" id="DejaVuSans-6f"/>
      <path d="M 45.40625 27.984375 
Q 45.40625 37.75 41.375 43.109375 
Q 37.359375 48.484375 30.078125 48.484375 
Q 22.859375 48.484375 18.828125 43.109375 
Q 14.796875 37.75 14.796875 27.984375 
Q 14.796875 18.265625 18.828125 12.890625 
Q 22.859375 7.515625 30.078125 7.515625 
Q 37.359375 7.515625 41.375 12.890625 
Q 45.40625 18.265625 45.40625 27.984375 
M 54.390625 6.78125 
Q 54.390625 -7.171875 48.1875 -13.984375 
Q 42 -20.796875 29.203125 -20.796875 
Q 24.46875 -20.796875 20.265625 -20.09375 
Q 16.0625 -19.390625 12.109375 -17.921875 
L 12.109375 -9.1875 
Q 16.0625 -11.328125 19.921875 -12.34375 
Q 23.78125 -13.375 27.78125 -13.375 
Q 36.625 -13.375 41.015625 -8.765625 
Q 45.40625 -4.15625 45.40625 5.171875 
L 45.40625 9.625 
Q 42.625 4.78125 38.28125 2.390625 
Q 33.9375 0 27.875 0 
Q 17.828125 0 11.671875 7.65625 
Q 5.515625 15.328125 5.515625 27.984375 
Q 5.515625 40.671875 11.671875 48.328125 
Q 17.828125 56 27.875 56 
Q 33.9375 56 38.28125 53.609375 
Q 42.625 51.21875 45.40625 46.390625 
L 45.40625 54.6875 
L 54.390625 54.6875 
z
" id="DejaVuSans-67"/>
      <path d="M 12.40625 8.296875 
L 28.515625 8.296875 
L 28.515625 63.921875 
L 10.984375 60.40625 
L 10.984375 69.390625 
L 28.421875 72.90625 
L 38.28125 72.90625 
L 38.28125 8.296875 
L 54.390625 8.296875 
L 54.390625 0 
L 12.40625 0 
z
" id="DejaVuSans-31"/>
      <path id="DejaVuSans-20"/>
      <path d="M 37.109375 75.984375 
L 37.109375 68.5 
L 28.515625 68.5 
Q 23.6875 68.5 21.796875 66.546875 
Q 19.921875 64.59375 19.921875 59.515625 
L 19.921875 54.6875 
L 34.71875 54.6875 
L 34.71875 47.703125 
L 19.921875 47.703125 
L 19.921875 0 
L 10.890625 0 
L 10.890625 47.703125 
L 2.296875 47.703125 
L 2.296875 54.6875 
L 10.890625 54.6875 
L 10.890625 58.5 
Q 10.890625 67.625 15.140625 71.796875 
Q 19.390625 75.984375 28.609375 75.984375 
z
" id="DejaVuSans-66"/>
      <path d="M 19.671875 64.796875 
L 19.671875 8.109375 
L 31.59375 8.109375 
Q 46.6875 8.109375 53.6875 14.9375 
Q 60.6875 21.78125 60.6875 36.53125 
Q 60.6875 51.171875 53.6875 57.984375 
Q 46.6875 64.796875 31.59375 64.796875 
z
M 9.8125 72.90625 
L 30.078125 72.90625 
Q 51.265625 72.90625 61.171875 64.09375 
Q 71.09375 55.28125 71.09375 36.53125 
Q 71.09375 17.671875 61.125 8.828125 
Q 51.171875 0 30.078125 0 
L 9.8125 0 
z
" id="DejaVuSans-44"/>
     </defs>
     <g transform="translate(134.074063 322.365125)scale(0.2 -0.2)">
      <use xlink:href="#DejaVuSans-6c"/>
      <use x="27.783203" xlink:href="#DejaVuSans-6f"/>
      <use x="88.964844" xlink:href="#DejaVuSans-67"/>
      <use x="152.441406" xlink:href="#DejaVuSans-31"/>
      <use x="216.064453" xlink:href="#DejaVuSans-30"/>
      <use x="279.6875" xlink:href="#DejaVuSans-20"/>
      <use x="311.474609" xlink:href="#DejaVuSans-6f"/>
      <use x="372.65625" xlink:href="#DejaVuSans-66"/>
      <use x="407.861328" xlink:href="#DejaVuSans-20"/>
      <use x="439.648438" xlink:href="#DejaVuSans-44"/>
      <use x="516.650391" xlink:href="#DejaVuSans-66"/>
     </g>
    </g>
   </g>
   <g id="matplotlib.axis_2">
    <g id="ytick_1">
     <g id="line2d_11">
      <path clip-path="url(#p7af578ac44)" d="M 10.7 276.812 
L 367.82 276.812 
" style="fill:none;stroke:#b0b0b0;stroke-linecap:square;stroke-width:0.8;"/>
     </g>
     <g id="line2d_12">
      <defs>
       <path d="M 0 0 
L -3.5 0 
" id="m1ff7a9f785" style="stroke:#000000;stroke-width:0.8;"/>
      </defs>
      <g>
       <use style="stroke:#000000;stroke-width:0.8;" x="10.7" xlink:href="#m1ff7a9f785" y="276.812"/>
      </g>
     </g>
    </g>
    <g id="ytick_2">
     <g id="line2d_13">
      <path clip-path="url(#p7af578ac44)" d="M 10.7 224.116554 
L 367.82 224.116554 
" style="fill:none;stroke:#b0b0b0;stroke-linecap:square;stroke-width:0.8;"/>
     </g>
     <g id="line2d_14">
      <g>
       <use style="stroke:#000000;stroke-width:0.8;" x="10.7" xlink:href="#m1ff7a9f785" y="224.116554"/>
      </g>
     </g>
    </g>
    <g id="ytick_3">
     <g id="line2d_15">
      <path clip-path="url(#p7af578ac44)" d="M 10.7 171.421109 
L 367.82 171.421109 
" style="fill:none;stroke:#b0b0b0;stroke-linecap:square;stroke-width:0.8;"/>
     </g>
     <g id="line2d_16">
      <g>
       <use style="stroke:#000000;stroke-width:0.8;" x="10.7" xlink:href="#m1ff7a9f785" y="171.421109"/>
      </g>
     </g>
    </g>
    <g id="ytick_4">
     <g id="line2d_17">
      <path clip-path="url(#p7af578ac44)" d="M 10.7 118.725663 
L 367.82 118.725663 
" style="fill:none;stroke:#b0b0b0;stroke-linecap:square;stroke-width:0.8;"/>
     </g>
     <g id="line2d_18">
      <g>
       <use style="stroke:#000000;stroke-width:0.8;" x="10.7" xlink:href="#m1ff7a9f785" y="118.725663"/>
      </g>
     </g>
    </g>
    <g id="ytick_5">
     <g id="line2d_19">
      <path clip-path="url(#p7af578ac44)" d="M 10.7 66.030218 
L 367.82 66.030218 
" style="fill:none;stroke:#b0b0b0;stroke-linecap:square;stroke-width:0.8;"/>
     </g>
     <g id="line2d_20">
      <g>
       <use style="stroke:#000000;stroke-width:0.8;" x="10.7" xlink:href="#m1ff7a9f785" y="66.030218"/>
      </g>
     </g>
    </g>
    <g id="ytick_6">
     <g id="line2d_21">
      <path clip-path="url(#p7af578ac44)" d="M 10.7 13.334772 
L 367.82 13.334772 
" style="fill:none;stroke:#b0b0b0;stroke-linecap:square;stroke-width:0.8;"/>
     </g>
     <g id="line2d_22">
      <g>
       <use style="stroke:#000000;stroke-width:0.8;" x="10.7" xlink:href="#m1ff7a9f785" y="13.334772"/>
      </g>
     </g>
    </g>
   </g>
   <g id="line2d_23">
    <path clip-path="url(#p7af578ac44)" d="M 191.605798 276.812 
L 191.605798 273.29897 
L 191.820431 273.29897 
L 191.820431 269.785941 
L 194.074868 269.785941 
L 194.074868 266.272911 
L 196.486417 266.272911 
L 196.486417 262.759881 
L 196.764786 262.759881 
L 196.764786 259.246851 
L 197.579329 259.246851 
L 197.579329 255.733822 
L 197.951351 255.733822 
L 197.951351 252.220792 
L 198.800804 252.220792 
L 198.805787 245.194733 
L 199.393551 245.194733 
L 199.393551 241.681703 
L 201.411768 241.681703 
L 201.411768 238.168673 
L 202.970747 238.168673 
L 202.970747 234.655644 
L 203.132292 234.655644 
L 203.155188 227.629584 
L 203.954845 227.629584 
L 203.954845 224.116554 
L 204.999368 224.116554 
L 204.999368 220.603525 
L 205.639915 220.603525 
L 205.639915 217.090495 
L 206.270086 217.090495 
L 206.270086 213.577465 
L 208.747843 213.577465 
L 208.747843 210.064436 
L 210.996359 210.064436 
L 210.996359 206.551406 
L 229.928265 206.551406 
L 229.928265 203.038376 
L 233.551817 203.038376 
L 233.551817 199.525347 
L 235.38784 199.525347 
L 235.38784 196.012317 
L 237.272671 196.012317 
L 237.272671 192.499287 
L 238.182159 192.499287 
L 238.182159 188.986257 
L 238.881019 188.986257 
L 238.905722 181.960198 
L 239.909745 181.960198 
L 239.909745 178.447168 
L 240.136988 178.447168 
L 240.136988 174.934139 
L 240.435273 174.934139 
L 240.435273 171.421109 
L 240.839373 171.421109 
L 240.870245 164.39505 
L 240.951014 164.39505 
L 240.951014 160.88202 
L 241.822492 160.88202 
L 241.822492 157.36899 
L 246.131048 157.36899 
L 246.131048 153.85596 
L 249.899115 153.85596 
L 249.899115 150.342931 
L 256.050533 150.342931 
L 256.050533 146.829901 
L 274.648916 146.829901 
L 274.648916 143.316871 
L 275.100542 143.316871 
L 275.100542 139.803842 
L 279.836126 139.803842 
L 279.836126 136.290812 
L 287.179828 136.290812 
L 287.179828 132.777782 
L 288.446654 132.777782 
L 288.446654 129.264752 
L 289.807683 129.264752 
L 289.807683 125.751723 
L 295.021647 125.751723 
L 295.021647 122.238693 
L 303.446028 122.238693 
L 303.446028 118.725663 
L 304.858929 118.725663 
L 304.858929 115.212634 
L 309.083554 115.212634 
L 309.083554 111.699604 
L 309.307196 111.699604 
L 309.307196 108.186574 
L 309.805096 108.186574 
L 309.805096 104.673545 
L 310.713649 104.673545 
L 310.713649 101.160515 
L 313.301839 101.160515 
L 313.301839 97.647485 
L 313.883015 97.647485 
L 313.883015 94.134455 
L 314.513967 94.134455 
L 314.513967 90.621426 
L 315.42351 90.621426 
L 315.42351 87.108396 
L 318.3798 87.108396 
L 318.3798 83.595366 
L 321.085512 83.595366 
L 321.085512 80.082337 
L 323.015903 80.082337 
L 323.015903 76.569307 
L 323.362384 76.569307 
L 323.362384 73.056277 
L 325.617248 73.056277 
L 325.617248 69.543248 
L 325.860647 69.543248 
L 325.860647 66.030218 
L 326.953663 66.030218 
L 326.953663 62.517188 
L 327.599159 62.517188 
L 327.599159 59.004158 
L 328.188802 59.004158 
L 328.188802 55.491129 
L 330.728716 55.491129 
L 330.728716 51.978099 
L 332.568665 51.978099 
L 332.568665 48.465069 
L 333.868497 48.465069 
L 333.959001 41.43901 
L 335.19661 41.43901 
L 335.198414 34.41295 
L 343.019706 34.41295 
L 343.019706 30.899921 
L 343.183182 30.899921 
L 343.183182 27.386891 
L 343.948955 27.386891 
L 343.948955 23.873861 
L 346.777868 23.873861 
L 346.777868 20.360832 
L 347.10658 20.360832 
L 347.10658 16.847802 
L 354.704174 16.847802 
L 354.704174 13.334772 
L 354.704174 13.334772 
L 367.82 13.334772 
L 367.82 13.334772 
" style="fill:none;stroke:#ff0000;stroke-linecap:square;stroke-width:3;"/>
   </g>
   <g id="line2d_24">
    <path clip-path="url(#p7af578ac44)" d="M 193.407995 276.812 
L 193.407995 273.29897 
L 193.718387 273.29897 
L 193.718387 269.785941 
L 198.507465 269.785941 
L 198.507465 266.272911 
L 199.473446 266.272911 
L 199.473446 262.759881 
L 202.506219 262.759881 
L 202.506219 259.246851 
L 202.787197 259.246851 
L 202.787197 255.733822 
L 205.816534 255.733822 
L 205.816534 252.220792 
L 206.097478 252.220792 
L 206.097478 248.707762 
L 206.459134 248.707762 
L 206.459134 245.194733 
L 207.736544 245.194733 
L 207.736544 241.681703 
L 208.016403 241.681703 
L 208.048962 234.655644 
L 209.185911 234.655644 
L 209.185911 231.142614 
L 211.252452 231.142614 
L 211.252452 227.629584 
L 215.474527 227.629584 
L 215.474527 224.116554 
L 232.459426 224.116554 
L 232.459426 220.603525 
L 232.920588 220.603525 
L 232.920588 217.090495 
L 237.995693 217.090495 
L 237.995693 213.577465 
L 238.268332 213.577465 
L 238.268332 210.064436 
L 238.632285 210.064436 
L 238.724868 203.038376 
L 238.779961 203.038376 
L 238.779961 199.525347 
L 240.627412 199.525347 
L 240.627412 196.012317 
L 240.785528 196.012317 
L 240.896324 185.473228 
L 241.46126 185.473228 
L 241.46126 181.960198 
L 241.946467 181.960198 
L 241.946467 178.447168 
L 242.620666 178.447168 
L 242.620666 174.934139 
L 242.785977 174.934139 
L 242.785977 171.421109 
L 243.080031 171.421109 
L 243.080031 167.908079 
L 246.36355 167.908079 
L 246.36355 164.39505 
L 263.215468 164.39505 
L 263.215468 160.88202 
L 271.084195 160.88202 
L 271.084195 157.36899 
L 272.69973 157.36899 
L 272.69973 153.85596 
L 281.000133 153.85596 
L 281.000133 150.342931 
L 282.04375 150.342931 
L 282.04375 146.829901 
L 284.949966 146.829901 
L 284.949966 143.316871 
L 287.386404 143.316871 
L 287.386404 139.803842 
L 294.600108 139.803842 
L 294.600108 136.290812 
L 301.25993 136.290812 
L 301.25993 132.777782 
L 305.763109 132.777782 
L 305.763109 129.264752 
L 310.952657 129.264752 
L 311.009697 122.238693 
L 311.552983 122.238693 
L 311.552983 118.725663 
L 312.946107 118.725663 
L 312.946107 115.212634 
L 313.748271 115.212634 
L 313.748271 111.699604 
L 316.574039 111.699604 
L 316.574039 108.186574 
L 317.038676 108.186574 
L 317.038676 104.673545 
L 317.390588 104.673545 
L 317.390588 101.160515 
L 318.3798 101.160515 
L 318.3798 97.647485 
L 318.539805 97.647485 
L 318.539805 94.134455 
L 319.17118 94.134455 
L 319.17118 90.621426 
L 319.926152 90.621426 
L 319.926152 87.108396 
L 322.724849 87.108396 
L 322.724849 83.595366 
L 327.327933 83.595366 
L 327.327933 80.082337 
L 327.532118 80.082337 
L 327.532118 76.569307 
L 328.420266 76.569307 
L 328.420266 73.056277 
L 328.583144 73.056277 
L 328.583144 69.543248 
L 328.745307 69.543248 
L 328.745307 66.030218 
L 330.120929 66.030218 
L 330.120929 62.517188 
L 330.528258 62.517188 
L 330.528258 59.004158 
L 332.646614 59.004158 
L 332.646614 55.491129 
L 334.322175 55.491129 
L 334.322175 51.978099 
L 334.515056 51.978099 
L 334.515056 48.465069 
L 336.046043 48.465069 
L 336.046043 44.95204 
L 337.282614 44.95204 
L 337.282614 41.43901 
L 341.009439 41.43901 
L 341.074504 34.41295 
L 347.10658 34.41295 
L 347.10658 30.899921 
L 347.725303 30.899921 
L 347.725303 27.386891 
L 348.768065 27.386891 
L 348.768065 23.873861 
L 349.450657 23.873861 
L 349.450657 20.360832 
L 354.217196 20.360832 
L 354.217196 16.847802 
L 357.868908 16.847802 
L 357.868908 13.334772 
L 357.868908 13.334772 
L 367.82 13.334772 
L 367.82 13.334772 
" style="fill:none;stroke:#00bfbf;stroke-linecap:square;stroke-width:1.5;"/>
   </g>
   <g id="line2d_25">
    <path clip-path="url(#p7af578ac44)" d="M 193.407995 276.812 
L 193.407995 273.29897 
L 193.718387 273.29897 
L 193.718387 269.785941 
L 197.739046 269.785941 
L 197.739046 266.272911 
L 198.507465 266.272911 
L 198.507465 262.759881 
L 200.980914 262.759881 
L 200.980914 259.246851 
L 202.0401 259.246851 
L 202.0401 255.733822 
L 202.506219 255.733822 
L 202.506219 252.220792 
L 204.406265 252.220792 
L 204.406265 248.707762 
L 205.741437 248.707762 
L 205.741437 245.194733 
L 206.541557 245.194733 
L 206.541557 241.681703 
L 207.69125 241.681703 
L 207.778077 234.655644 
L 208.016403 234.655644 
L 208.016403 231.142614 
L 211.252452 231.142614 
L 211.252452 227.629584 
L 215.474527 227.629584 
L 215.474527 224.116554 
L 219.013584 224.116554 
L 219.013584 220.603525 
L 232.459426 220.603525 
L 232.459426 217.090495 
L 232.920588 217.090495 
L 232.920588 213.577465 
L 235.642797 213.577465 
L 235.642797 210.064436 
L 237.995693 210.064436 
L 237.995693 206.551406 
L 238.632285 206.551406 
L 238.724868 199.525347 
L 238.779961 199.525347 
L 238.779961 196.012317 
L 240.066473 196.012317 
L 240.066473 192.499287 
L 240.646731 192.499287 
L 240.646731 188.986257 
L 240.785528 188.986257 
L 240.896324 181.960198 
L 241.46126 181.960198 
L 241.46126 178.447168 
L 241.946467 178.447168 
L 241.946467 174.934139 
L 242.110872 174.934139 
L 242.110872 171.421109 
L 242.785977 171.421109 
L 242.785977 167.908079 
L 243.017154 167.908079 
L 243.017154 164.39505 
L 244.48508 164.39505 
L 244.48508 160.88202 
L 245.607536 160.88202 
L 245.607536 157.36899 
L 246.36355 157.36899 
L 246.36355 153.85596 
L 259.269384 153.85596 
L 259.269384 150.342931 
L 281.000133 150.342931 
L 281.000133 146.829901 
L 284.949966 146.829901 
L 284.949966 143.316871 
L 287.386404 143.316871 
L 287.386404 139.803842 
L 294.600108 139.803842 
L 294.600108 136.290812 
L 298.220144 136.290812 
L 298.220144 132.777782 
L 299.107123 132.777782 
L 299.107123 129.264752 
L 300.912121 129.264752 
L 300.912121 125.751723 
L 309.070995 125.751723 
L 309.070995 122.238693 
L 310.139249 122.238693 
L 310.139249 118.725663 
L 312.099789 118.725663 
L 312.099789 115.212634 
L 313.748271 115.212634 
L 313.748271 111.699604 
L 314.553703 111.699604 
L 314.553703 108.186574 
L 316.16009 108.186574 
L 316.16009 104.673545 
L 316.574039 104.673545 
L 316.574039 101.160515 
L 317.390588 101.160515 
L 317.390588 97.647485 
L 318.3798 97.647485 
L 318.3798 94.134455 
L 318.539805 94.134455 
L 318.539805 90.621426 
L 318.713235 90.621426 
L 318.713235 87.108396 
L 322.320311 87.108396 
L 322.320311 83.595366 
L 325.661753 83.595366 
L 325.661753 80.082337 
L 326.303854 80.082337 
L 326.303854 76.569307 
L 327.327933 76.569307 
L 327.327933 73.056277 
L 328.420266 73.056277 
L 328.482363 66.030218 
L 328.626791 66.030218 
L 328.626791 62.517188 
L 330.120929 62.517188 
L 330.120929 59.004158 
L 332.646614 59.004158 
L 332.646614 55.491129 
L 332.858761 55.491129 
L 332.858761 51.978099 
L 334.322175 51.978099 
L 334.322175 48.465069 
L 334.768103 48.465069 
L 334.768103 44.95204 
L 337.282614 44.95204 
L 337.282614 41.43901 
L 338.504847 41.43901 
L 338.504847 37.92598 
L 339.727123 37.92598 
L 339.727123 34.41295 
L 347.10658 34.41295 
L 347.10658 30.899921 
L 347.725303 30.899921 
L 347.725303 27.386891 
L 348.636264 27.386891 
L 348.636264 23.873861 
L 349.450657 23.873861 
L 349.450657 20.360832 
L 350.70721 20.360832 
L 350.70721 16.847802 
L 357.868908 16.847802 
L 357.868908 13.334772 
L 357.868908 13.334772 
L 367.82 13.334772 
L 367.82 13.334772 
" style="fill:none;stroke:#bf00bf;stroke-linecap:square;stroke-width:1.5;"/>
   </g>
   <g id="line2d_26">
    <path clip-path="url(#p7af578ac44)" d="M 192.659526 276.812 
L 192.659526 273.29897 
L 193.718387 273.29897 
L 193.718387 269.785941 
L 197.583032 269.785941 
L 197.583032 266.272911 
L 198.507465 266.272911 
L 198.507465 262.759881 
L 200.980914 262.759881 
L 200.980914 259.246851 
L 201.624092 259.246851 
L 201.624092 255.733822 
L 202.26863 255.733822 
L 202.339288 248.707762 
L 205.445979 248.707762 
L 205.445979 245.194733 
L 205.557638 245.194733 
L 205.557638 241.681703 
L 206.640964 241.681703 
L 206.640964 238.168673 
L 207.69125 238.168673 
L 207.69125 234.655644 
L 208.016403 234.655644 
L 208.121478 227.629584 
L 211.252452 227.629584 
L 211.252452 224.116554 
L 215.474527 224.116554 
L 215.474527 220.603525 
L 216.213636 220.603525 
L 216.213636 217.090495 
L 229.205465 217.090495 
L 229.205465 213.577465 
L 232.459426 213.577465 
L 232.459426 210.064436 
L 232.920588 210.064436 
L 232.920588 206.551406 
L 235.642797 206.551406 
L 235.642797 203.038376 
L 237.324276 203.038376 
L 237.324276 199.525347 
L 238.054096 199.525347 
L 238.054096 196.012317 
L 238.632285 196.012317 
L 238.632285 192.499287 
L 239.76942 192.499287 
L 239.76942 188.986257 
L 240.522358 188.986257 
L 240.600887 181.960198 
L 240.896324 181.960198 
L 240.896324 178.447168 
L 241.081857 178.447168 
L 241.081857 174.934139 
L 241.46126 174.934139 
L 241.46126 171.421109 
L 241.590152 171.421109 
L 241.590152 167.908079 
L 242.675193 167.908079 
L 242.675193 164.39505 
L 242.826141 164.39505 
L 242.826141 160.88202 
L 244.48508 160.88202 
L 244.48508 157.36899 
L 246.36355 157.36899 
L 246.36355 153.85596 
L 259.269384 153.85596 
L 259.269384 150.342931 
L 281.000133 150.342931 
L 281.000133 146.829901 
L 284.949966 146.829901 
L 284.949966 143.316871 
L 287.386404 143.316871 
L 287.386404 139.803842 
L 292.14268 139.803842 
L 292.14268 136.290812 
L 297.037942 136.290812 
L 297.037942 132.777782 
L 298.220144 132.777782 
L 298.220144 129.264752 
L 298.829882 129.264752 
L 298.829882 125.751723 
L 299.477661 125.751723 
L 299.477661 122.238693 
L 307.712657 122.238693 
L 307.712657 118.725663 
L 309.140074 118.725663 
L 309.140074 115.212634 
L 311.131318 115.212634 
L 311.131318 111.699604 
L 311.567736 111.699604 
L 311.567736 108.186574 
L 314.553703 108.186574 
L 314.553703 104.673545 
L 316.189593 104.673545 
L 316.189593 101.160515 
L 316.574039 101.160515 
L 316.574039 97.647485 
L 317.622192 97.647485 
L 317.622192 94.134455 
L 318.3798 94.134455 
L 318.3798 90.621426 
L 318.713235 90.621426 
L 318.713235 87.108396 
L 319.000181 87.108396 
L 319.000181 83.595366 
L 324.942669 83.595366 
L 324.942669 80.082337 
L 326.303854 80.082337 
L 326.303854 76.569307 
L 326.632939 76.569307 
L 326.632939 73.056277 
L 327.327933 73.056277 
L 327.327933 69.543248 
L 328.420266 69.543248 
L 328.482363 62.517188 
L 329.486763 62.517188 
L 329.486763 59.004158 
L 331.166262 59.004158 
L 331.166262 55.491129 
L 332.646614 55.491129 
L 332.646614 51.978099 
L 334.322175 51.978099 
L 334.322175 48.465069 
L 334.768103 48.465069 
L 334.768103 44.95204 
L 337.207662 44.95204 
L 337.207662 41.43901 
L 338.142267 41.43901 
L 338.142267 37.92598 
L 339.727123 37.92598 
L 339.727123 34.41295 
L 346.182223 34.41295 
L 346.182223 30.899921 
L 347.10658 30.899921 
L 347.10658 27.386891 
L 347.725303 27.386891 
L 347.725303 23.873861 
L 348.635156 23.873861 
L 348.635156 20.360832 
L 349.450657 20.360832 
L 349.450657 16.847802 
L 357.868908 16.847802 
L 357.868908 13.334772 
L 357.868908 13.334772 
L 367.82 13.334772 
L 367.82 13.334772 
" style="fill:none;stroke:#000000;stroke-linecap:square;stroke-width:1.5;"/>
   </g>
   <g id="line2d_27">
    <path clip-path="url(#p7af578ac44)" d="M 192.659526 276.812 
L 192.659526 273.29897 
L 193.718387 273.29897 
L 193.718387 269.785941 
L 197.344822 269.785941 
L 197.344822 266.272911 
L 198.507465 266.272911 
L 198.507465 262.759881 
L 198.820765 262.759881 
L 198.820765 259.246851 
L 200.980914 259.246851 
L 200.980914 255.733822 
L 201.315361 255.733822 
L 201.315361 252.220792 
L 201.489843 252.220792 
L 201.489843 248.707762 
L 202.248708 248.707762 
L 202.248708 245.194733 
L 204.76217 245.194733 
L 204.76217 241.681703 
L 204.932219 241.681703 
L 204.932219 238.168673 
L 206.559169 238.168673 
L 206.559169 234.655644 
L 207.69125 234.655644 
L 207.69125 231.142614 
L 208.016403 231.142614 
L 208.121478 224.116554 
L 211.252452 224.116554 
L 211.252452 220.603525 
L 215.402861 220.603525 
L 215.402861 217.090495 
L 216.213636 217.090495 
L 216.213636 213.577465 
L 225.482306 213.577465 
L 225.482306 210.064436 
L 226.748183 210.064436 
L 226.748183 206.551406 
L 232.459426 206.551406 
L 232.459426 203.038376 
L 234.239234 203.038376 
L 234.239234 199.525347 
L 237.324276 199.525347 
L 237.324276 196.012317 
L 237.826378 196.012317 
L 237.826378 192.499287 
L 238.632285 192.499287 
L 238.632285 188.986257 
L 239.490644 188.986257 
L 239.490644 185.473228 
L 240.069201 185.473228 
L 240.149759 178.447168 
L 240.600887 178.447168 
L 240.600887 174.934139 
L 241.081857 174.934139 
L 241.081857 171.421109 
L 241.46126 171.421109 
L 241.46126 167.908079 
L 241.590152 167.908079 
L 241.590152 164.39505 
L 241.904393 164.39505 
L 241.904393 160.88202 
L 242.151011 160.88202 
L 242.151011 157.36899 
L 246.36355 157.36899 
L 246.36355 153.85596 
L 254.710805 153.85596 
L 254.710805 150.342931 
L 281.000133 150.342931 
L 281.000133 146.829901 
L 282.543211 146.829901 
L 282.543211 143.316871 
L 282.955069 143.316871 
L 282.955069 139.803842 
L 288.585719 139.803842 
L 288.585719 136.290812 
L 297.037942 136.290812 
L 297.037942 132.777782 
L 297.260138 132.777782 
L 297.260138 129.264752 
L 297.687618 129.264752 
L 297.687618 125.751723 
L 298.759442 125.751723 
L 298.759442 122.238693 
L 307.712657 122.238693 
L 307.712657 118.725663 
L 309.140074 118.725663 
L 309.140074 115.212634 
L 311.131318 115.212634 
L 311.131318 111.699604 
L 311.567736 111.699604 
L 311.567736 108.186574 
L 312.738651 108.186574 
L 312.738651 104.673545 
L 315.560754 104.673545 
L 315.560754 101.160515 
L 316.189593 101.160515 
L 316.189593 97.647485 
L 317.079358 97.647485 
L 317.079358 94.134455 
L 317.622192 94.134455 
L 317.622192 90.621426 
L 318.3798 90.621426 
L 318.3798 87.108396 
L 318.63562 87.108396 
L 318.63562 83.595366 
L 323.615461 83.595366 
L 323.615461 80.082337 
L 326.123511 80.082337 
L 326.123511 76.569307 
L 326.606216 76.569307 
L 326.606216 73.056277 
L 327.240877 73.056277 
L 327.240877 69.543248 
L 327.865505 69.543248 
L 327.865505 66.030218 
L 328.331835 66.030218 
L 328.331835 62.517188 
L 328.482363 62.517188 
L 328.482363 59.004158 
L 331.166262 59.004158 
L 331.166262 55.491129 
L 331.477179 55.491129 
L 331.477179 51.978099 
L 334.159387 51.978099 
L 334.159387 48.465069 
L 334.695371 48.465069 
L 334.695371 44.95204 
L 335.828748 44.95204 
L 335.828748 41.43901 
L 337.788343 41.43901 
L 337.788343 37.92598 
L 339.727123 37.92598 
L 339.727123 34.41295 
L 346.182223 34.41295 
L 346.281867 27.386891 
L 346.437481 27.386891 
L 346.437481 23.873861 
L 347.10658 23.873861 
L 347.10658 20.360832 
L 349.450657 20.360832 
L 349.450657 16.847802 
L 357.868908 16.847802 
L 357.868908 13.334772 
L 357.868908 13.334772 
L 367.82 13.334772 
L 367.82 13.334772 
" style="fill:none;stroke:#00bfbf;stroke-linecap:square;stroke-width:1.5;"/>
   </g>
   <g id="line2d_28">
    <path clip-path="url(#p7af578ac44)" d="M 191.717495 276.812 
L 191.717495 273.29897 
L 192.42987 273.29897 
L 192.42987 269.785941 
L 197.082547 269.785941 
L 197.082547 266.272911 
L 197.42485 266.272911 
L 197.42485 262.759881 
L 198.507465 262.759881 
L 198.507465 259.246851 
L 199.755062 259.246851 
L 199.755062 255.733822 
L 199.965412 255.733822 
L 200.00542 245.194733 
L 200.980914 245.194733 
L 200.980914 241.681703 
L 202.248708 241.681703 
L 202.248708 238.168673 
L 204.058817 238.168673 
L 204.110834 231.142614 
L 204.75576 231.142614 
L 204.75576 227.629584 
L 206.559169 227.629584 
L 206.559169 224.116554 
L 206.894813 224.116554 
L 206.894813 220.603525 
L 207.19551 220.603525 
L 207.19551 217.090495 
L 209.471738 217.090495 
L 209.471738 213.577465 
L 209.617483 213.577465 
L 209.617483 210.064436 
L 212.365637 210.064436 
L 212.365637 206.551406 
L 231.067895 206.551406 
L 231.067895 203.038376 
L 234.239234 203.038376 
L 234.239234 199.525347 
L 236.692941 199.525347 
L 236.692941 196.012317 
L 237.720494 196.012317 
L 237.720494 192.499287 
L 238.375998 192.499287 
L 238.375998 188.986257 
L 239.215054 188.986257 
L 239.215054 185.473228 
L 239.82127 185.473228 
L 239.82127 181.960198 
L 240.149759 181.960198 
L 240.149759 178.447168 
L 240.280966 178.447168 
L 240.280966 174.934139 
L 240.975998 174.934139 
L 240.975998 171.421109 
L 241.163799 171.421109 
L 241.163799 167.908079 
L 241.43979 167.908079 
L 241.43979 164.39505 
L 241.709484 164.39505 
L 241.709484 160.88202 
L 242.151011 160.88202 
L 242.151011 157.36899 
L 246.351624 157.36899 
L 246.351624 153.85596 
L 253.189609 153.85596 
L 253.189609 150.342931 
L 277.836609 150.342931 
L 277.836609 146.829901 
L 279.265294 146.829901 
L 279.265294 143.316871 
L 281.320101 143.316871 
L 281.320101 139.803842 
L 282.543211 139.803842 
L 282.543211 136.290812 
L 293.501699 136.290812 
L 293.501699 132.777782 
L 295.690894 132.777782 
L 295.690894 129.264752 
L 296.851683 129.264752 
L 296.851683 125.751723 
L 297.02205 125.751723 
L 297.02205 122.238693 
L 307.023226 122.238693 
L 307.023226 118.725663 
L 308.58372 118.725663 
L 308.58372 115.212634 
L 309.723589 115.212634 
L 309.723589 111.699604 
L 311.408428 111.699604 
L 311.408428 108.186574 
L 312.321101 108.186574 
L 312.36096 101.160515 
L 315.222675 101.160515 
L 315.222675 97.647485 
L 315.560754 97.647485 
L 315.560754 94.134455 
L 316.687775 94.134455 
L 316.687775 90.621426 
L 317.402817 90.621426 
L 317.402817 87.108396 
L 318.3798 87.108396 
L 318.3798 83.595366 
L 322.497226 83.595366 
L 322.497226 80.082337 
L 324.47003 80.082337 
L 324.47003 76.569307 
L 324.742928 76.569307 
L 324.742928 73.056277 
L 326.020211 73.056277 
L 326.020211 69.543248 
L 327.057309 69.543248 
L 327.057309 66.030218 
L 327.61453 66.030218 
L 327.61453 62.517188 
L 327.929661 62.517188 
L 327.929661 59.004158 
L 329.077868 59.004158 
L 329.077868 55.491129 
L 331.166262 55.491129 
L 331.166262 51.978099 
L 333.398219 51.978099 
L 333.398219 48.465069 
L 334.64831 48.465069 
L 334.720151 41.43901 
L 336.918828 41.43901 
L 336.918828 37.92598 
L 338.532543 37.92598 
L 338.532543 34.41295 
L 345.000173 34.41295 
L 345.000173 30.899921 
L 345.139478 30.899921 
L 345.139478 27.386891 
L 346.182223 27.386891 
L 346.182223 23.873861 
L 347.10658 23.873861 
L 347.10658 20.360832 
L 347.777444 20.360832 
L 347.777444 16.847802 
L 357.845096 16.847802 
L 357.845096 13.334772 
L 357.845096 13.334772 
L 367.82 13.334772 
L 367.82 13.334772 
" style="fill:none;stroke:#bf00bf;stroke-linecap:square;stroke-width:1.5;"/>
   </g>
   <g id="line2d_29">
    <path clip-path="url(#p7af578ac44)" d="M 191.667488 276.812 
L 191.667488 273.29897 
L 192.045889 273.29897 
L 192.045889 269.785941 
L 196.925379 269.785941 
L 196.925379 266.272911 
L 197.397683 266.272911 
L 197.397683 262.759881 
L 198.143186 262.759881 
L 198.143186 259.246851 
L 198.507465 259.246851 
L 198.507465 255.733822 
L 199.678223 255.733822 
L 199.678223 252.220792 
L 199.965412 252.220792 
L 200.00542 245.194733 
L 200.319996 245.194733 
L 200.319996 241.681703 
L 201.596215 241.681703 
L 201.596215 238.168673 
L 203.497182 238.168673 
L 203.497182 234.655644 
L 203.967435 234.655644 
L 203.967435 231.142614 
L 204.65703 231.142614 
L 204.75576 224.116554 
L 206.825636 224.116554 
L 206.893924 217.090495 
L 207.044224 217.090495 
L 207.044224 213.577465 
L 209.617483 213.577465 
L 209.617483 210.064436 
L 211.554071 210.064436 
L 211.554071 206.551406 
L 230.746582 206.551406 
L 230.746582 203.038376 
L 233.977249 203.038376 
L 233.977249 199.525347 
L 236.43728 199.525347 
L 236.43728 196.012317 
L 237.528421 196.012317 
L 237.528421 192.499287 
L 238.375998 192.499287 
L 238.375998 188.986257 
L 239.117438 188.986257 
L 239.117438 185.473228 
L 239.535341 185.473228 
L 239.535341 181.960198 
L 240.121256 181.960198 
L 240.121256 178.447168 
L 240.255062 178.447168 
L 240.255062 174.934139 
L 240.933257 174.934139 
L 240.997996 167.908079 
L 241.231193 167.908079 
L 241.327833 160.88202 
L 242.051685 160.88202 
L 242.051685 157.36899 
L 246.338014 157.36899 
L 246.338014 153.85596 
L 252.366054 153.85596 
L 252.366054 150.342931 
L 268.193596 150.342931 
L 268.193596 146.829901 
L 277.526929 146.829901 
L 277.526929 143.316871 
L 279.772612 143.316871 
L 279.772612 139.803842 
L 281.160873 139.803842 
L 281.160873 136.290812 
L 289.692406 136.290812 
L 289.692406 132.777782 
L 295.291189 132.777782 
L 295.291189 129.264752 
L 295.516275 129.264752 
L 295.516275 125.751723 
L 296.194872 125.751723 
L 296.194872 122.238693 
L 305.469582 122.238693 
L 305.469582 118.725663 
L 307.300108 118.725663 
L 307.300108 115.212634 
L 309.582422 115.212634 
L 309.582422 111.699604 
L 310.729734 111.699604 
L 310.729734 108.186574 
L 311.317223 108.186574 
L 311.317223 104.673545 
L 311.998577 104.673545 
L 311.998577 101.160515 
L 314.312192 101.160515 
L 314.312192 97.647485 
L 314.654256 97.647485 
L 314.654256 94.134455 
L 316.227715 94.134455 
L 316.227715 90.621426 
L 317.233065 90.621426 
L 317.233065 87.108396 
L 318.3798 87.108396 
L 318.3798 83.595366 
L 322.371582 83.595366 
L 322.371582 80.082337 
L 323.683842 80.082337 
L 323.683842 76.569307 
L 324.197818 76.569307 
L 324.197818 73.056277 
L 326.020211 73.056277 
L 326.020211 69.543248 
L 326.843583 69.543248 
L 326.843583 66.030218 
L 327.220608 66.030218 
L 327.220608 62.517188 
L 327.818874 62.517188 
L 327.818874 59.004158 
L 329.064729 59.004158 
L 329.064729 55.491129 
L 331.036165 55.491129 
L 331.036165 51.978099 
L 333.131225 51.978099 
L 333.131225 48.465069 
L 334.460926 48.465069 
L 334.460926 44.95204 
L 334.720151 44.95204 
L 334.720151 41.43901 
L 335.826122 41.43901 
L 335.826122 37.92598 
L 336.26861 37.92598 
L 336.26861 34.41295 
L 344.061364 34.41295 
L 344.061364 30.899921 
L 344.484493 30.899921 
L 344.484493 27.386891 
L 345.27237 27.386891 
L 345.27237 23.873861 
L 347.10658 23.873861 
L 347.10658 20.360832 
L 347.639047 20.360832 
L 347.639047 16.847802 
L 357.136773 16.847802 
L 357.136773 13.334772 
L 357.136773 13.334772 
L 367.82 13.334772 
L 367.82 13.334772 
" style="fill:none;stroke:#000000;stroke-linecap:square;stroke-width:1.5;"/>
   </g>
   <g id="line2d_30">
    <path clip-path="url(#p7af578ac44)" d="M 191.63088 276.812 
L 191.63088 273.29897 
L 191.889943 273.29897 
L 191.889943 269.785941 
L 194.074868 269.785941 
L 194.074868 266.272911 
L 196.726721 266.272911 
L 196.835443 259.246851 
L 197.783155 259.246851 
L 197.783155 255.733822 
L 199.090495 255.733822 
L 199.151663 248.707762 
L 199.343683 248.707762 
L 199.343683 245.194733 
L 199.535946 245.194733 
L 199.535946 241.681703 
L 201.480098 241.681703 
L 201.480098 238.168673 
L 203.051563 238.168673 
L 203.155188 231.142614 
L 203.201564 231.142614 
L 203.201564 227.629584 
L 203.954845 227.629584 
L 203.954845 224.116554 
L 204.999368 224.116554 
L 204.999368 220.603525 
L 205.793756 220.603525 
L 205.793756 217.090495 
L 206.325076 217.090495 
L 206.325076 213.577465 
L 208.760792 213.577465 
L 208.760792 210.064436 
L 211.17407 210.064436 
L 211.17407 206.551406 
L 230.141702 206.551406 
L 230.141702 203.038376 
L 233.711177 203.038376 
L 233.711177 199.525347 
L 235.50693 199.525347 
L 235.50693 196.012317 
L 237.283635 196.012317 
L 237.283635 192.499287 
L 238.202499 192.499287 
L 238.202499 188.986257 
L 238.966385 188.986257 
L 239.02739 181.960198 
L 239.917761 181.960198 
L 239.917761 178.447168 
L 240.155072 178.447168 
L 240.155072 174.934139 
L 240.47604 174.934139 
L 240.47604 171.421109 
L 240.867331 171.421109 
L 240.971507 160.88202 
L 241.861391 160.88202 
L 241.861391 157.36899 
L 246.163546 157.36899 
L 246.163546 153.85596 
L 250.446332 153.85596 
L 250.446332 150.342931 
L 260.807379 150.342931 
L 260.807379 146.829901 
L 275.62019 146.829901 
L 275.72071 139.803842 
L 280.463514 139.803842 
L 280.463514 136.290812 
L 287.423493 136.290812 
L 287.423493 132.777782 
L 289.384658 132.777782 
L 289.384658 129.264752 
L 290.202387 129.264752 
L 290.202387 125.751723 
L 295.170657 125.751723 
L 295.170657 122.238693 
L 303.551946 122.238693 
L 303.551946 118.725663 
L 305.049678 118.725663 
L 305.049678 115.212634 
L 309.165222 115.212634 
L 309.165222 111.699604 
L 309.62931 111.699604 
L 309.62931 108.186574 
L 310.093136 108.186574 
L 310.093136 104.673545 
L 310.888116 104.673545 
L 310.888116 101.160515 
L 313.626476 101.160515 
L 313.626476 97.647485 
L 314.531283 97.647485 
L 314.531283 94.134455 
L 314.788564 94.134455 
L 314.788564 90.621426 
L 315.682694 90.621426 
L 315.682694 87.108396 
L 318.3798 87.108396 
L 318.3798 83.595366 
L 321.303757 83.595366 
L 321.303757 80.082337 
L 323.113522 80.082337 
L 323.113522 76.569307 
L 323.79582 76.569307 
L 323.79582 73.056277 
L 325.764784 73.056277 
L 325.764784 69.543248 
L 326.153944 69.543248 
L 326.153944 66.030218 
L 327.048759 66.030218 
L 327.048759 62.517188 
L 327.718378 62.517188 
L 327.718378 59.004158 
L 328.232563 59.004158 
L 328.232563 55.491129 
L 330.806163 55.491129 
L 330.806163 51.978099 
L 332.718531 51.978099 
L 332.718531 48.465069 
L 334.056086 48.465069 
L 334.059344 41.43901 
L 335.19661 41.43901 
L 335.19661 37.92598 
L 335.393269 37.92598 
L 335.393269 34.41295 
L 343.195575 34.41295 
L 343.195575 30.899921 
L 343.614738 30.899921 
L 343.614738 27.386891 
L 344.234813 27.386891 
L 344.234813 23.873861 
L 346.879692 23.873861 
L 346.879692 20.360832 
L 347.10658 20.360832 
L 347.10658 16.847802 
L 354.904009 16.847802 
L 354.904009 13.334772 
L 354.904009 13.334772 
L 367.82 13.334772 
L 367.82 13.334772 
" style="fill:none;stroke:#00bfbf;stroke-linecap:square;stroke-width:1.5;"/>
   </g>
   <g id="patch_3">
    <path d="M 10.7 276.812 
L 10.7 10.7 
" style="fill:none;stroke:#000000;stroke-linecap:square;stroke-linejoin:miter;stroke-width:0.8;"/>
   </g>
   <g id="patch_4">
    <path d="M 367.82 276.812 
L 367.82 10.7 
" style="fill:none;stroke:#000000;stroke-linecap:square;stroke-linejoin:miter;stroke-width:0.8;"/>
   </g>
   <g id="patch_5">
    <path d="M 10.7 276.812 
L 367.82 276.812 
" style="fill:none;stroke:#000000;stroke-linecap:square;stroke-linejoin:miter;stroke-width:0.8;"/>
   </g>
   <g id="patch_6">
    <path d="M 10.7 10.7 
L 367.82 10.7 
" style="fill:none;stroke:#000000;stroke-linecap:square;stroke-linejoin:miter;stroke-width:0.8;"/>
   </g>
   <g id="text_6">
    <!-- {f10-f14}, 5-D -->
    <defs>
     <path d="M 51.125 -9.28125 
L 51.125 -16.3125 
L 48.09375 -16.3125 
Q 35.9375 -16.3125 31.8125 -12.6875 
Q 27.6875 -9.078125 27.6875 1.703125 
L 27.6875 13.375 
Q 27.6875 20.75 25.046875 23.578125 
Q 22.40625 26.421875 15.484375 26.421875 
L 12.5 26.421875 
L 12.5 33.40625 
L 15.484375 33.40625 
Q 22.46875 33.40625 25.078125 36.203125 
Q 27.6875 39.015625 27.6875 46.296875 
L 27.6875 58.015625 
Q 27.6875 68.796875 31.8125 72.390625 
Q 35.9375 75.984375 48.09375 75.984375 
L 51.125 75.984375 
L 51.125 69 
L 47.796875 69 
Q 40.921875 69 38.8125 66.84375 
Q 36.71875 64.703125 36.71875 57.8125 
L 36.71875 45.703125 
Q 36.71875 38.03125 34.5 34.5625 
Q 32.28125 31.109375 26.90625 29.890625 
Q 32.328125 28.5625 34.515625 25.09375 
Q 36.71875 21.625 36.71875 14.015625 
L 36.71875 1.90625 
Q 36.71875 -4.984375 38.8125 -7.125 
Q 40.921875 -9.28125 47.796875 -9.28125 
z
" id="DejaVuSans-7b"/>
     <path d="M 12.5 -9.28125 
L 15.921875 -9.28125 
Q 22.75 -9.28125 24.828125 -7.171875 
Q 26.90625 -5.078125 26.90625 1.90625 
L 26.90625 14.015625 
Q 26.90625 21.625 29.09375 25.09375 
Q 31.296875 28.5625 36.71875 29.890625 
Q 31.296875 31.109375 29.09375 34.5625 
Q 26.90625 38.03125 26.90625 45.703125 
L 26.90625 57.8125 
Q 26.90625 64.75 24.828125 66.875 
Q 22.75 69 15.921875 69 
L 12.5 69 
L 12.5 75.984375 
L 15.578125 75.984375 
Q 27.734375 75.984375 31.8125 72.390625 
Q 35.890625 68.796875 35.890625 58.015625 
L 35.890625 46.296875 
Q 35.890625 39.015625 38.515625 36.203125 
Q 41.15625 33.40625 48.09375 33.40625 
L 51.125 33.40625 
L 51.125 26.421875 
L 48.09375 26.421875 
Q 41.15625 26.421875 38.515625 23.578125 
Q 35.890625 20.75 35.890625 13.375 
L 35.890625 1.703125 
Q 35.890625 -9.078125 31.8125 -12.6875 
Q 27.734375 -16.3125 15.578125 -16.3125 
L 12.5 -16.3125 
z
" id="DejaVuSans-7d"/>
     <path d="M 11.71875 12.40625 
L 22.015625 12.40625 
L 22.015625 4 
L 14.015625 -11.625 
L 7.71875 -11.625 
L 11.71875 4 
z
" id="DejaVuSans-2c"/>
     <path d="M 10.796875 72.90625 
L 49.515625 72.90625 
L 49.515625 64.59375 
L 19.828125 64.59375 
L 19.828125 46.734375 
Q 21.96875 47.46875 24.109375 47.828125 
Q 26.265625 48.1875 28.421875 48.1875 
Q 40.625 48.1875 47.75 41.5 
Q 54.890625 34.8125 54.890625 23.390625 
Q 54.890625 11.625 47.5625 5.09375 
Q 40.234375 -1.421875 26.90625 -1.421875 
Q 22.3125 -1.421875 17.546875 -0.640625 
Q 12.796875 0.140625 7.71875 1.703125 
L 7.71875 11.625 
Q 12.109375 9.234375 16.796875 8.0625 
Q 21.484375 6.890625 26.703125 6.890625 
Q 35.15625 6.890625 40.078125 11.328125 
Q 45.015625 15.765625 45.015625 23.390625 
Q 45.015625 31 40.078125 35.4375 
Q 35.15625 39.890625 26.703125 39.890625 
Q 22.75 39.890625 18.8125 39.015625 
Q 14.890625 38.140625 10.796875 36.28125 
z
" id="DejaVuSans-35"/>
    </defs>
    <g transform="translate(214.9776 271.48976)scale(0.2 -0.2)">
     <use xlink:href="#DejaVuSans-7b"/>
     <use x="63.623047" xlink:href="#DejaVuSans-66"/>
     <use x="98.828125" xlink:href="#DejaVuSans-31"/>
     <use x="162.451172" xlink:href="#DejaVuSans-30"/>
     <use x="226.074219" xlink:href="#DejaVuSans-2d"/>
     <use x="262.158203" xlink:href="#DejaVuSans-66"/>
     <use x="297.363281" xlink:href="#DejaVuSans-31"/>
     <use x="360.986328" xlink:href="#DejaVuSans-34"/>
     <use x="424.609375" xlink:href="#DejaVuSans-7d"/>
     <use x="488.232422" xlink:href="#DejaVuSans-2c"/>
     <use x="520.019531" xlink:href="#DejaVuSans-20"/>
     <use x="551.806641" xlink:href="#DejaVuSans-35"/>
     <use x="615.429688" xlink:href="#DejaVuSans-2d"/>
     <use x="651.513672" xlink:href="#DejaVuSans-44"/>
    </g>
   </g>
   <g id="text_7">
    <!-- v2.1 -->
    <defs>
     <path d="M 2.984375 54.6875 
L 12.5 54.6875 
L 29.59375 8.796875 
L 46.6875 54.6875 
L 56.203125 54.6875 
L 35.6875 0 
L 23.484375 0 
z
" id="DejaVuSans-76"/>
     <path d="M 19.1875 8.296875 
L 53.609375 8.296875 
L 53.609375 0 
L 7.328125 0 
L 7.328125 8.296875 
Q 12.9375 14.109375 22.625 23.890625 
Q 32.328125 33.6875 34.8125 36.53125 
Q 39.546875 41.84375 41.421875 45.53125 
Q 43.3125 49.21875 43.3125 52.78125 
Q 43.3125 58.59375 39.234375 62.25 
Q 35.15625 65.921875 28.609375 65.921875 
Q 23.96875 65.921875 18.8125 64.3125 
Q 13.671875 62.703125 7.8125 59.421875 
L 7.8125 69.390625 
Q 13.765625 71.78125 18.9375 73 
Q 24.125 74.21875 28.421875 74.21875 
Q 39.75 74.21875 46.484375 68.546875 
Q 53.21875 62.890625 53.21875 53.421875 
Q 53.21875 48.921875 51.53125 44.890625 
Q 49.859375 40.875 45.40625 35.40625 
Q 44.1875 33.984375 37.640625 27.21875 
Q 31.109375 20.453125 19.1875 8.296875 
" id="DejaVuSans-32"/>
     <path d="M 10.6875 12.40625 
L 21 12.40625 
L 21 0 
L 10.6875 0 
z
" id="DejaVuSans-2e"/>
    </defs>
    <g style="fill:#808080;" transform="translate(178.349063 272.071193)scale(0.1 -0.1)">
     <use xlink:href="#DejaVuSans-76"/>
     <use x="59.179688" xlink:href="#DejaVuSans-32"/>
     <use x="122.802734" xlink:href="#DejaVuSans-2e"/>
     <use x="154.589844" xlink:href="#DejaVuSans-31"/>
    </g>
   </g>
  </g>
 </g>
 <defs>
  <clipPath id="p7af578ac44">
   <rect height="266.112" width="357.12" x="10.7" y="10.7"/>
  </clipPath>
 </defs>
</svg>
