<?xml version="1.0" encoding="utf-8" standalone="no"?>
<!DOCTYPE svg PUBLIC "-//W3C//DTD SVG 1.1//EN"
  "http://www.w3.org/Graphics/SVG/1.1/DTD/svg11.dtd">
<!-- Created with matplotlib (http://matplotlib.org/) -->
<svg height="333pt" version="1.1" viewBox="0 0 378 333" width="378pt" xmlns="http://www.w3.org/2000/svg" xmlns:xlink="http://www.w3.org/1999/xlink">
 <defs>
  <style type="text/css">
*{stroke-linecap:butt;stroke-linejoin:round;}
  </style>
 </defs>
 <g id="figure_1">
  <g id="patch_1">
   <path d="M 0 333.7245 
L 378.52 333.7245 
L 378.52 0 
L 0 0 
z
" style="fill:#ffffff;"/>
  </g>
  <g id="axes_1">
   <g id="patch_2">
    <path d="M 10.7 276.812 
L 367.82 276.812 
L 367.82 10.7 
L 10.7 10.7 
z
" style="fill:#ffffff;"/>
   </g>
   <g id="matplotlib.axis_1">
    <g id="xtick_1">
     <g id="line2d_1">
      <path clip-path="url(#pff027d62fe)" d="M 10.609982 276.812 
L 10.609982 10.7 
" style="fill:none;stroke:#b0b0b0;stroke-linecap:square;stroke-width:0.8;"/>
     </g>
     <g id="line2d_2">
      <defs>
       <path d="M 0 0 
L 0 3.5 
" id="me36063eb74" style="stroke:#000000;stroke-width:0.8;"/>
      </defs>
      <g>
       <use style="stroke:#000000;stroke-width:0.8;" x="10.609982" xlink:href="#me36063eb74" y="276.812"/>
      </g>
     </g>
    </g>
    <g id="xtick_2">
     <g id="line2d_3">
      <path clip-path="url(#pff027d62fe)" d="M 93.933403 276.812 
L 93.933403 10.7 
" style="fill:none;stroke:#b0b0b0;stroke-linecap:square;stroke-width:0.8;"/>
     </g>
     <g id="line2d_4">
      <g>
       <use style="stroke:#000000;stroke-width:0.8;" x="93.933403" xlink:href="#me36063eb74" y="276.812"/>
      </g>
     </g>
     <g id="text_1">
      <!-- -4 -->
      <defs>
       <path d="M 4.890625 31.390625 
L 31.203125 31.390625 
L 31.203125 23.390625 
L 4.890625 23.390625 
z
" id="DejaVuSans-2d"/>
       <path d="M 37.796875 64.3125 
L 12.890625 25.390625 
L 37.796875 25.390625 
z
M 35.203125 72.90625 
L 47.609375 72.90625 
L 47.609375 25.390625 
L 58.015625 25.390625 
L 58.015625 17.1875 
L 47.609375 17.1875 
L 47.609375 0 
L 37.796875 0 
L 37.796875 17.1875 
L 4.890625 17.1875 
L 4.890625 26.703125 
z
" id="DejaVuSans-34"/>
      </defs>
      <g transform="translate(83.963091 299.008875)scale(0.2 -0.2)">
       <use xlink:href="#DejaVuSans-2d"/>
       <use x="36.083984" xlink:href="#DejaVuSans-34"/>
      </g>
     </g>
    </g>
    <g id="xtick_3">
     <g id="line2d_5">
      <path clip-path="url(#pff027d62fe)" d="M 177.256825 276.812 
L 177.256825 10.7 
" style="fill:none;stroke:#b0b0b0;stroke-linecap:square;stroke-width:0.8;"/>
     </g>
     <g id="line2d_6">
      <g>
       <use style="stroke:#000000;stroke-width:0.8;" x="177.256825" xlink:href="#me36063eb74" y="276.812"/>
      </g>
     </g>
     <g id="text_2">
      <!-- 0 -->
      <defs>
       <path d="M 31.78125 66.40625 
Q 24.171875 66.40625 20.328125 58.90625 
Q 16.5 51.421875 16.5 36.375 
Q 16.5 21.390625 20.328125 13.890625 
Q 24.171875 6.390625 31.78125 6.390625 
Q 39.453125 6.390625 43.28125 13.890625 
Q 47.125 21.390625 47.125 36.375 
Q 47.125 51.421875 43.28125 58.90625 
Q 39.453125 66.40625 31.78125 66.40625 
M 31.78125 74.21875 
Q 44.046875 74.21875 50.515625 64.515625 
Q 56.984375 54.828125 56.984375 36.375 
Q 56.984375 17.96875 50.515625 8.265625 
Q 44.046875 -1.421875 31.78125 -1.421875 
Q 19.53125 -1.421875 13.0625 8.265625 
Q 6.59375 17.96875 6.59375 36.375 
Q 6.59375 54.828125 13.0625 64.515625 
Q 19.53125 74.21875 31.78125 74.21875 
" id="DejaVuSans-30"/>
      </defs>
      <g transform="translate(170.894325 299.008875)scale(0.2 -0.2)">
       <use xlink:href="#DejaVuSans-30"/>
      </g>
     </g>
    </g>
    <g id="xtick_4">
     <g id="line2d_7">
      <path clip-path="url(#pff027d62fe)" d="M 260.580246 276.812 
L 260.580246 10.7 
" style="fill:none;stroke:#b0b0b0;stroke-linecap:square;stroke-width:0.8;"/>
     </g>
     <g id="line2d_8">
      <g>
       <use style="stroke:#000000;stroke-width:0.8;" x="260.580246" xlink:href="#me36063eb74" y="276.812"/>
      </g>
     </g>
     <g id="text_3">
      <!-- 4 -->
      <g transform="translate(254.217746 299.008875)scale(0.2 -0.2)">
       <use xlink:href="#DejaVuSans-34"/>
      </g>
     </g>
    </g>
    <g id="xtick_5">
     <g id="line2d_9">
      <path clip-path="url(#pff027d62fe)" d="M 343.903667 276.812 
L 343.903667 10.7 
" style="fill:none;stroke:#b0b0b0;stroke-linecap:square;stroke-width:0.8;"/>
     </g>
     <g id="line2d_10">
      <g>
       <use style="stroke:#000000;stroke-width:0.8;" x="343.903667" xlink:href="#me36063eb74" y="276.812"/>
      </g>
     </g>
     <g id="text_4">
      <!-- 8 -->
      <defs>
       <path d="M 31.78125 34.625 
Q 24.75 34.625 20.71875 30.859375 
Q 16.703125 27.09375 16.703125 20.515625 
Q 16.703125 13.921875 20.71875 10.15625 
Q 24.75 6.390625 31.78125 6.390625 
Q 38.8125 6.390625 42.859375 10.171875 
Q 46.921875 13.96875 46.921875 20.515625 
Q 46.921875 27.09375 42.890625 30.859375 
Q 38.875 34.625 31.78125 34.625 
M 21.921875 38.8125 
Q 15.578125 40.375 12.03125 44.71875 
Q 8.5 49.078125 8.5 55.328125 
Q 8.5 64.0625 14.71875 69.140625 
Q 20.953125 74.21875 31.78125 74.21875 
Q 42.671875 74.21875 48.875 69.140625 
Q 55.078125 64.0625 55.078125 55.328125 
Q 55.078125 49.078125 51.53125 44.71875 
Q 48 40.375 41.703125 38.8125 
Q 48.828125 37.15625 52.796875 32.3125 
Q 56.78125 27.484375 56.78125 20.515625 
Q 56.78125 9.90625 50.3125 4.234375 
Q 43.84375 -1.421875 31.78125 -1.421875 
Q 19.734375 -1.421875 13.25 4.234375 
Q 6.78125 9.90625 6.78125 20.515625 
Q 6.78125 27.484375 10.78125 32.3125 
Q 14.796875 37.15625 21.921875 38.8125 
M 18.3125 54.390625 
Q 18.3125 48.734375 21.84375 45.5625 
Q 25.390625 42.390625 31.78125 42.390625 
Q 38.140625 42.390625 41.71875 45.5625 
Q 45.3125 48.734375 45.3125 54.390625 
Q 45.3125 60.0625 41.71875 63.234375 
Q 38.140625 66.40625 31.78125 66.40625 
Q 25.390625 66.40625 21.84375 63.234375 
Q 18.3125 60.0625 18.3125 54.390625 
" id="DejaVuSans-38"/>
      </defs>
      <g transform="translate(337.541167 299.008875)scale(0.2 -0.2)">
       <use xlink:href="#DejaVuSans-38"/>
      </g>
     </g>
    </g>
    <g id="text_5">
     <!-- log10 of Df -->
     <defs>
      <path d="M 9.421875 75.984375 
L 18.40625 75.984375 
L 18.40625 0 
L 9.421875 0 
z
" id="DejaVuSans-6c"/>
      <path d="M 30.609375 48.390625 
Q 23.390625 48.390625 19.1875 42.75 
Q 14.984375 37.109375 14.984375 27.296875 
Q 14.984375 17.484375 19.15625 11.84375 
Q 23.34375 6.203125 30.609375 6.203125 
Q 37.796875 6.203125 41.984375 11.859375 
Q 46.1875 17.53125 46.1875 27.296875 
Q 46.1875 37.015625 41.984375 42.703125 
Q 37.796875 48.390625 30.609375 48.390625 
M 30.609375 56 
Q 42.328125 56 49.015625 48.375 
Q 55.71875 40.765625 55.71875 27.296875 
Q 55.71875 13.875 49.015625 6.21875 
Q 42.328125 -1.421875 30.609375 -1.421875 
Q 18.84375 -1.421875 12.171875 6.21875 
Q 5.515625 13.875 5.515625 27.296875 
Q 5.515625 40.765625 12.171875 48.375 
Q 18.84375 56 30.609375 56 
" id="DejaVuSans-6f"/>
      <path d="M 45.40625 27.984375 
Q 45.40625 37.75 41.375 43.109375 
Q 37.359375 48.484375 30.078125 48.484375 
Q 22.859375 48.484375 18.828125 43.109375 
Q 14.796875 37.75 14.796875 27.984375 
Q 14.796875 18.265625 18.828125 12.890625 
Q 22.859375 7.515625 30.078125 7.515625 
Q 37.359375 7.515625 41.375 12.890625 
Q 45.40625 18.265625 45.40625 27.984375 
M 54.390625 6.78125 
Q 54.390625 -7.171875 48.1875 -13.984375 
Q 42 -20.796875 29.203125 -20.796875 
Q 24.46875 -20.796875 20.265625 -20.09375 
Q 16.0625 -19.390625 12.109375 -17.921875 
L 12.109375 -9.1875 
Q 16.0625 -11.328125 19.921875 -12.34375 
Q 23.78125 -13.375 27.78125 -13.375 
Q 36.625 -13.375 41.015625 -8.765625 
Q 45.40625 -4.15625 45.40625 5.171875 
L 45.40625 9.625 
Q 42.625 4.78125 38.28125 2.390625 
Q 33.9375 0 27.875 0 
Q 17.828125 0 11.671875 7.65625 
Q 5.515625 15.328125 5.515625 27.984375 
Q 5.515625 40.671875 11.671875 48.328125 
Q 17.828125 56 27.875 56 
Q 33.9375 56 38.28125 53.609375 
Q 42.625 51.21875 45.40625 46.390625 
L 45.40625 54.6875 
L 54.390625 54.6875 
z
" id="DejaVuSans-67"/>
      <path d="M 12.40625 8.296875 
L 28.515625 8.296875 
L 28.515625 63.921875 
L 10.984375 60.40625 
L 10.984375 69.390625 
L 28.421875 72.90625 
L 38.28125 72.90625 
L 38.28125 8.296875 
L 54.390625 8.296875 
L 54.390625 0 
L 12.40625 0 
z
" id="DejaVuSans-31"/>
      <path id="DejaVuSans-20"/>
      <path d="M 37.109375 75.984375 
L 37.109375 68.5 
L 28.515625 68.5 
Q 23.6875 68.5 21.796875 66.546875 
Q 19.921875 64.59375 19.921875 59.515625 
L 19.921875 54.6875 
L 34.71875 54.6875 
L 34.71875 47.703125 
L 19.921875 47.703125 
L 19.921875 0 
L 10.890625 0 
L 10.890625 47.703125 
L 2.296875 47.703125 
L 2.296875 54.6875 
L 10.890625 54.6875 
L 10.890625 58.5 
Q 10.890625 67.625 15.140625 71.796875 
Q 19.390625 75.984375 28.609375 75.984375 
z
" id="DejaVuSans-66"/>
      <path d="M 19.671875 64.796875 
L 19.671875 8.109375 
L 31.59375 8.109375 
Q 46.6875 8.109375 53.6875 14.9375 
Q 60.6875 21.78125 60.6875 36.53125 
Q 60.6875 51.171875 53.6875 57.984375 
Q 46.6875 64.796875 31.59375 64.796875 
z
M 9.8125 72.90625 
L 30.078125 72.90625 
Q 51.265625 72.90625 61.171875 64.09375 
Q 71.09375 55.28125 71.09375 36.53125 
Q 71.09375 17.671875 61.125 8.828125 
Q 51.171875 0 30.078125 0 
L 9.8125 0 
z
" id="DejaVuSans-44"/>
     </defs>
     <g transform="translate(134.074063 322.365125)scale(0.2 -0.2)">
      <use xlink:href="#DejaVuSans-6c"/>
      <use x="27.783203" xlink:href="#DejaVuSans-6f"/>
      <use x="88.964844" xlink:href="#DejaVuSans-67"/>
      <use x="152.441406" xlink:href="#DejaVuSans-31"/>
      <use x="216.064453" xlink:href="#DejaVuSans-30"/>
      <use x="279.6875" xlink:href="#DejaVuSans-20"/>
      <use x="311.474609" xlink:href="#DejaVuSans-6f"/>
      <use x="372.65625" xlink:href="#DejaVuSans-66"/>
      <use x="407.861328" xlink:href="#DejaVuSans-20"/>
      <use x="439.648438" xlink:href="#DejaVuSans-44"/>
      <use x="516.650391" xlink:href="#DejaVuSans-66"/>
     </g>
    </g>
   </g>
   <g id="matplotlib.axis_2">
    <g id="ytick_1">
     <g id="line2d_11">
      <path clip-path="url(#pff027d62fe)" d="M 10.7 276.812 
L 367.82 276.812 
" style="fill:none;stroke:#b0b0b0;stroke-linecap:square;stroke-width:0.8;"/>
     </g>
     <g id="line2d_12">
      <defs>
       <path d="M 0 0 
L -3.5 0 
" id="m1b925a20d7" style="stroke:#000000;stroke-width:0.8;"/>
      </defs>
      <g>
       <use style="stroke:#000000;stroke-width:0.8;" x="10.7" xlink:href="#m1b925a20d7" y="276.812"/>
      </g>
     </g>
    </g>
    <g id="ytick_2">
     <g id="line2d_13">
      <path clip-path="url(#pff027d62fe)" d="M 10.7 224.116554 
L 367.82 224.116554 
" style="fill:none;stroke:#b0b0b0;stroke-linecap:square;stroke-width:0.8;"/>
     </g>
     <g id="line2d_14">
      <g>
       <use style="stroke:#000000;stroke-width:0.8;" x="10.7" xlink:href="#m1b925a20d7" y="224.116554"/>
      </g>
     </g>
    </g>
    <g id="ytick_3">
     <g id="line2d_15">
      <path clip-path="url(#pff027d62fe)" d="M 10.7 171.421109 
L 367.82 171.421109 
" style="fill:none;stroke:#b0b0b0;stroke-linecap:square;stroke-width:0.8;"/>
     </g>
     <g id="line2d_16">
      <g>
       <use style="stroke:#000000;stroke-width:0.8;" x="10.7" xlink:href="#m1b925a20d7" y="171.421109"/>
      </g>
     </g>
    </g>
    <g id="ytick_4">
     <g id="line2d_17">
      <path clip-path="url(#pff027d62fe)" d="M 10.7 118.725663 
L 367.82 118.725663 
" style="fill:none;stroke:#b0b0b0;stroke-linecap:square;stroke-width:0.8;"/>
     </g>
     <g id="line2d_18">
      <g>
       <use style="stroke:#000000;stroke-width:0.8;" x="10.7" xlink:href="#m1b925a20d7" y="118.725663"/>
      </g>
     </g>
    </g>
    <g id="ytick_5">
     <g id="line2d_19">
      <path clip-path="url(#pff027d62fe)" d="M 10.7 66.030218 
L 367.82 66.030218 
" style="fill:none;stroke:#b0b0b0;stroke-linecap:square;stroke-width:0.8;"/>
     </g>
     <g id="line2d_20">
      <g>
       <use style="stroke:#000000;stroke-width:0.8;" x="10.7" xlink:href="#m1b925a20d7" y="66.030218"/>
      </g>
     </g>
    </g>
    <g id="ytick_6">
     <g id="line2d_21">
      <path clip-path="url(#pff027d62fe)" d="M 10.7 13.334772 
L 367.82 13.334772 
" style="fill:none;stroke:#b0b0b0;stroke-linecap:square;stroke-width:0.8;"/>
     </g>
     <g id="line2d_22">
      <g>
       <use style="stroke:#000000;stroke-width:0.8;" x="10.7" xlink:href="#m1b925a20d7" y="13.334772"/>
      </g>
     </g>
    </g>
   </g>
   <g id="line2d_23">
    <path clip-path="url(#pff027d62fe)" d="M 199.062514 276.812 
L 199.062514 273.29897 
L 202.267052 273.29897 
L 202.267052 269.785941 
L 205.295086 269.785941 
L 205.295086 266.272911 
L 205.799125 266.272911 
L 205.799125 262.759881 
L 205.992747 262.759881 
L 205.992747 259.246851 
L 206.3122 259.246851 
L 206.415812 248.707762 
L 206.533378 248.707762 
L 206.596488 241.681703 
L 210.429363 241.681703 
L 210.429363 238.168673 
L 210.620965 238.168673 
L 210.620965 234.655644 
L 211.016054 234.655644 
L 211.016054 231.142614 
L 212.903341 231.142614 
L 212.903341 227.629584 
L 213.202762 227.629584 
L 213.202762 224.116554 
L 215.85424 224.116554 
L 215.85424 220.603525 
L 217.352909 220.603525 
L 217.352909 217.090495 
L 219.897981 217.090495 
L 219.897981 213.577465 
L 220.117367 213.577465 
L 220.117367 210.064436 
L 220.598484 210.064436 
L 220.598484 206.551406 
L 241.891675 206.551406 
L 241.891675 203.038376 
L 243.110347 203.038376 
L 243.110347 199.525347 
L 243.552919 199.525347 
L 243.552919 196.012317 
L 243.895603 196.012317 
L 243.981454 188.986257 
L 244.076559 188.986257 
L 244.127606 178.447168 
L 244.363601 178.447168 
L 244.363601 174.934139 
L 244.620126 174.934139 
L 244.620126 171.421109 
L 244.937893 171.421109 
L 244.937893 167.908079 
L 245.370848 167.908079 
L 245.377776 160.88202 
L 246.464028 160.88202 
L 246.464028 157.36899 
L 246.576391 157.36899 
L 246.576391 153.85596 
L 279.642841 153.85596 
L 279.642841 150.342931 
L 285.279829 150.342931 
L 285.279829 146.829901 
L 295.906177 146.829901 
L 295.906177 143.316871 
L 297.917297 143.316871 
L 297.917297 139.803842 
L 303.272214 139.803842 
L 303.272214 136.290812 
L 304.650937 136.290812 
L 304.650937 132.777782 
L 304.853134 132.777782 
L 304.853134 129.264752 
L 305.080366 129.264752 
L 305.080366 125.751723 
L 308.58037 125.751723 
L 308.58037 122.238693 
L 310.407213 122.238693 
L 310.407213 118.725663 
L 311.898593 118.725663 
L 311.898593 115.212634 
L 312.533015 115.212634 
L 312.533015 111.699604 
L 315.232914 111.699604 
L 315.232914 108.186574 
L 316.940575 108.186574 
L 316.940575 104.673545 
L 317.141649 104.673545 
L 317.141649 101.160515 
L 318.849942 101.160515 
L 318.876201 94.134455 
L 319.254712 94.134455 
L 319.254712 90.621426 
L 319.57481 90.621426 
L 319.57481 87.108396 
L 321.2413 87.108396 
L 321.2413 83.595366 
L 322.065906 83.595366 
L 322.065906 80.082337 
L 322.717454 80.082337 
L 322.759315 73.056277 
L 323.366711 73.056277 
L 323.366711 69.543248 
L 325.62333 69.543248 
L 325.62333 66.030218 
L 341.125705 66.030218 
L 341.125705 62.517188 
L 341.397248 62.517188 
L 341.397248 59.004158 
L 344.112587 59.004158 
L 344.150481 51.978099 
L 344.392227 51.978099 
L 344.490879 44.95204 
L 344.635645 44.95204 
L 344.635645 41.43901 
L 345.937303 41.43901 
L 345.937303 37.92598 
L 346.420939 37.92598 
L 346.420939 34.41295 
L 350.260106 34.41295 
L 350.260106 30.899921 
L 350.480045 30.899921 
L 350.480045 27.386891 
L 351.159752 27.386891 
L 351.159752 23.873861 
L 351.375508 23.873861 
L 351.375508 20.360832 
L 352.518384 20.360832 
L 352.518384 16.847802 
L 353.018669 16.847802 
L 353.018669 13.334772 
L 353.018669 13.334772 
L 367.82 13.334772 
L 367.82 13.334772 
" style="fill:none;stroke:#ff0000;stroke-linecap:square;stroke-width:3;"/>
   </g>
   <g id="line2d_24">
    <path clip-path="url(#pff027d62fe)" d="M 201.80214 276.812 
L 201.80214 273.29897 
L 204.308627 273.29897 
L 204.308627 269.785941 
L 207.270476 269.785941 
L 207.270476 266.272911 
L 208.69053 266.272911 
L 208.69053 262.759881 
L 209.022138 262.759881 
L 209.022138 259.246851 
L 209.365029 259.246851 
L 209.443213 252.220792 
L 209.486583 252.220792 
L 209.486583 248.707762 
L 209.610881 248.707762 
L 209.610881 245.194733 
L 210.103225 245.194733 
L 210.103225 241.681703 
L 213.125948 241.681703 
L 213.125948 238.168673 
L 213.545191 238.168673 
L 213.606216 231.142614 
L 214.656137 231.142614 
L 214.656137 227.629584 
L 218.062701 227.629584 
L 218.062701 224.116554 
L 229.889003 224.116554 
L 229.889003 220.603525 
L 233.720912 220.603525 
L 233.720912 217.090495 
L 243.242003 217.090495 
L 243.242003 213.577465 
L 243.870665 213.577465 
L 243.870665 210.064436 
L 244.494604 210.064436 
L 244.494604 206.551406 
L 244.724889 206.551406 
L 244.80591 199.525347 
L 244.933702 199.525347 
L 244.935125 192.499287 
L 245.089255 192.499287 
L 245.089255 188.986257 
L 245.49508 188.986257 
L 245.49508 185.473228 
L 245.915902 185.473228 
L 245.915902 181.960198 
L 246.05408 181.960198 
L 246.10411 174.934139 
L 246.232979 174.934139 
L 246.232979 171.421109 
L 247.303858 171.421109 
L 247.303858 167.908079 
L 247.605985 167.908079 
L 247.605985 164.39505 
L 270.932061 164.39505 
L 270.932061 160.88202 
L 275.288709 160.88202 
L 275.288709 157.36899 
L 289.940279 157.36899 
L 289.940279 153.85596 
L 302.441515 153.85596 
L 302.441515 150.342931 
L 303.949969 150.342931 
L 303.949969 146.829901 
L 306.612797 146.829901 
L 306.612797 143.316871 
L 308.390705 143.316871 
L 308.390705 139.803842 
L 309.564088 139.803842 
L 309.564088 136.290812 
L 309.808451 136.290812 
L 309.808451 132.777782 
L 312.760084 132.777782 
L 312.760084 129.264752 
L 313.680631 129.264752 
L 313.680631 125.751723 
L 314.80832 125.751723 
L 314.80832 122.238693 
L 316.729465 122.238693 
L 316.810621 115.212634 
L 320.220078 115.212634 
L 320.220078 111.699604 
L 320.429783 111.699604 
L 320.490578 104.673545 
L 320.945741 104.673545 
L 320.945741 101.160515 
L 321.524202 101.160515 
L 321.524202 97.647485 
L 322.410406 97.647485 
L 322.410406 94.134455 
L 323.278865 94.134455 
L 323.278865 90.621426 
L 323.572145 90.621426 
L 323.572145 87.108396 
L 324.001889 87.108396 
L 324.001889 83.595366 
L 325.450566 83.595366 
L 325.450566 80.082337 
L 327.096316 80.082337 
L 327.096316 76.569307 
L 327.442276 76.569307 
L 327.442276 73.056277 
L 328.369895 73.056277 
L 328.369895 69.543248 
L 330.348884 69.543248 
L 330.348884 66.030218 
L 343.053002 66.030218 
L 343.053002 62.517188 
L 343.91053 62.517188 
L 343.91053 59.004158 
L 345.755867 59.004158 
L 345.755867 55.491129 
L 346.453069 55.491129 
L 346.453069 51.978099 
L 346.987474 51.978099 
L 346.987474 48.465069 
L 347.640558 48.465069 
L 347.640558 44.95204 
L 348.31902 44.95204 
L 348.31902 41.43901 
L 349.651417 41.43901 
L 349.651417 37.92598 
L 350.954834 37.92598 
L 350.954834 34.41295 
L 353.407419 34.41295 
L 353.407419 30.899921 
L 354.821691 30.899921 
L 354.821691 27.386891 
L 355.30155 27.386891 
L 355.30155 23.873861 
L 355.880977 23.873861 
L 355.880977 20.360832 
L 357.282943 20.360832 
L 357.282943 16.847802 
L 358.148996 16.847802 
L 358.148996 13.334772 
L 358.148996 13.334772 
L 367.82 13.334772 
L 367.82 13.334772 
" style="fill:none;stroke:#00bfbf;stroke-linecap:square;stroke-width:1.5;"/>
   </g>
   <g id="line2d_25">
    <path clip-path="url(#pff027d62fe)" d="M 200.536286 276.812 
L 200.536286 273.29897 
L 204.02371 273.29897 
L 204.02371 269.785941 
L 207.270476 269.785941 
L 207.270476 266.272911 
L 208.403398 266.272911 
L 208.403398 262.759881 
L 208.821317 262.759881 
L 208.821317 259.246851 
L 209.28216 259.246851 
L 209.365029 252.220792 
L 209.443213 252.220792 
L 209.443213 248.707762 
L 209.610881 248.707762 
L 209.610881 245.194733 
L 209.73721 245.194733 
L 209.73721 241.681703 
L 212.60178 241.681703 
L 212.60178 238.168673 
L 213.125948 238.168673 
L 213.125948 234.655644 
L 213.545191 234.655644 
L 213.545191 231.142614 
L 214.656137 231.142614 
L 214.656137 227.629584 
L 217.710604 227.629584 
L 217.710604 224.116554 
L 229.889003 224.116554 
L 229.889003 220.603525 
L 233.720912 220.603525 
L 233.720912 217.090495 
L 243.242003 217.090495 
L 243.242003 213.577465 
L 243.870665 213.577465 
L 243.870665 210.064436 
L 244.494604 210.064436 
L 244.494604 206.551406 
L 244.724889 206.551406 
L 244.80591 199.525347 
L 244.933702 199.525347 
L 244.935125 192.499287 
L 245.057219 192.499287 
L 245.057219 188.986257 
L 245.49508 188.986257 
L 245.49508 185.473228 
L 245.787846 185.473228 
L 245.787846 181.960198 
L 246.05408 181.960198 
L 246.102051 174.934139 
L 246.232979 174.934139 
L 246.232979 171.421109 
L 247.303858 171.421109 
L 247.3915 164.39505 
L 262.773074 164.39505 
L 262.773074 160.88202 
L 275.288709 160.88202 
L 275.288709 157.36899 
L 289.940279 157.36899 
L 289.940279 153.85596 
L 302.441515 153.85596 
L 302.441515 150.342931 
L 303.949969 150.342931 
L 303.949969 146.829901 
L 306.612797 146.829901 
L 306.612797 143.316871 
L 308.390705 143.316871 
L 308.390705 139.803842 
L 309.564088 139.803842 
L 309.564088 136.290812 
L 309.808451 136.290812 
L 309.808451 132.777782 
L 312.760084 132.777782 
L 312.760084 129.264752 
L 313.680631 129.264752 
L 313.680631 125.751723 
L 314.80832 125.751723 
L 314.80832 122.238693 
L 316.311108 122.238693 
L 316.311108 118.725663 
L 316.726781 118.725663 
L 316.726781 115.212634 
L 318.192959 115.212634 
L 318.192959 111.699604 
L 320.220078 111.699604 
L 320.220078 108.186574 
L 320.429783 108.186574 
L 320.429783 104.673545 
L 320.945741 104.673545 
L 320.945741 101.160515 
L 321.345462 101.160515 
L 321.345462 97.647485 
L 321.539138 97.647485 
L 321.539138 94.134455 
L 322.410406 94.134455 
L 322.410406 90.621426 
L 323.572145 90.621426 
L 323.572145 87.108396 
L 324.001889 87.108396 
L 324.001889 83.595366 
L 324.649703 83.595366 
L 324.649703 80.082337 
L 327.096316 80.082337 
L 327.096316 76.569307 
L 327.442276 76.569307 
L 327.442276 73.056277 
L 328.369895 73.056277 
L 328.369895 69.543248 
L 328.853614 69.543248 
L 328.853614 66.030218 
L 343.053002 66.030218 
L 343.053002 62.517188 
L 343.91053 62.517188 
L 343.91053 59.004158 
L 345.755867 59.004158 
L 345.755867 55.491129 
L 345.883508 55.491129 
L 345.883508 51.978099 
L 346.048642 51.978099 
L 346.048642 48.465069 
L 346.987474 48.465069 
L 346.987474 44.95204 
L 348.004698 44.95204 
L 348.004698 41.43901 
L 349.651417 41.43901 
L 349.651417 37.92598 
L 350.954834 37.92598 
L 350.954834 34.41295 
L 353.407419 34.41295 
L 353.407419 30.899921 
L 354.299632 30.899921 
L 354.299632 27.386891 
L 354.821691 27.386891 
L 354.821691 23.873861 
L 355.30155 23.873861 
L 355.30155 20.360832 
L 357.282943 20.360832 
L 357.35154 13.334772 
L 357.35154 13.334772 
L 367.82 13.334772 
L 367.82 13.334772 
" style="fill:none;stroke:#bf00bf;stroke-linecap:square;stroke-width:1.5;"/>
   </g>
   <g id="line2d_26">
    <path clip-path="url(#pff027d62fe)" d="M 200.536286 276.812 
L 200.536286 273.29897 
L 204.02371 273.29897 
L 204.02371 269.785941 
L 207.014896 269.785941 
L 207.014896 266.272911 
L 208.403398 266.272911 
L 208.403398 262.759881 
L 208.754986 262.759881 
L 208.821317 255.733822 
L 208.995917 255.733822 
L 208.995917 252.220792 
L 209.443213 252.220792 
L 209.512404 245.194733 
L 209.610881 245.194733 
L 209.610881 241.681703 
L 212.60178 241.681703 
L 212.60178 238.168673 
L 213.125948 238.168673 
L 213.125948 234.655644 
L 213.545191 234.655644 
L 213.545191 231.142614 
L 214.586573 231.142614 
L 214.586573 227.629584 
L 217.34532 227.629584 
L 217.34532 224.116554 
L 229.250377 224.116554 
L 229.250377 220.603525 
L 233.137313 220.603525 
L 233.137313 217.090495 
L 242.755928 217.090495 
L 242.755928 213.577465 
L 243.870665 213.577465 
L 243.870665 210.064436 
L 244.493459 210.064436 
L 244.493459 206.551406 
L 244.724889 206.551406 
L 244.808633 196.012317 
L 244.933702 196.012317 
L 244.933702 192.499287 
L 245.057219 192.499287 
L 245.057219 188.986257 
L 245.420993 188.986257 
L 245.486354 181.960198 
L 245.614338 181.960198 
L 245.614338 178.447168 
L 245.787846 178.447168 
L 245.787846 174.934139 
L 245.961362 174.934139 
L 246.030453 167.908079 
L 247.303858 167.908079 
L 247.3915 160.88202 
L 272.74653 160.88202 
L 272.74653 157.36899 
L 289.940279 157.36899 
L 289.940279 153.85596 
L 300.914399 153.85596 
L 300.997586 146.829901 
L 306.612797 146.829901 
L 306.612797 143.316871 
L 308.12727 143.316871 
L 308.12727 139.803842 
L 308.390705 139.803842 
L 308.390705 136.290812 
L 309.808451 136.290812 
L 309.808451 132.777782 
L 312.760084 132.777782 
L 312.849785 125.751723 
L 313.608895 125.751723 
L 313.608895 122.238693 
L 316.311108 122.238693 
L 316.311108 118.725663 
L 316.726781 118.725663 
L 316.726781 115.212634 
L 318.192959 115.212634 
L 318.192959 111.699604 
L 320.220078 111.699604 
L 320.220078 108.186574 
L 320.429783 108.186574 
L 320.429783 104.673545 
L 320.945741 104.673545 
L 320.945741 101.160515 
L 321.097115 101.160515 
L 321.097115 97.647485 
L 321.539138 97.647485 
L 321.539138 94.134455 
L 322.410406 94.134455 
L 322.410406 90.621426 
L 323.572145 90.621426 
L 323.617801 83.595366 
L 324.649703 83.595366 
L 324.649703 80.082337 
L 326.317535 80.082337 
L 326.317535 76.569307 
L 326.856045 76.569307 
L 326.856045 73.056277 
L 327.521782 73.056277 
L 327.521782 69.543248 
L 328.616939 69.543248 
L 328.616939 66.030218 
L 343.053002 66.030218 
L 343.053002 62.517188 
L 343.463113 62.517188 
L 343.463113 59.004158 
L 345.659135 59.004158 
L 345.755867 51.978099 
L 346.026121 51.978099 
L 346.026121 48.465069 
L 346.987474 48.465069 
L 346.987474 44.95204 
L 347.785027 44.95204 
L 347.785027 41.43901 
L 349.651417 41.43901 
L 349.651417 37.92598 
L 350.2464 37.92598 
L 350.2464 34.41295 
L 353.407419 34.41295 
L 353.407419 30.899921 
L 353.559012 30.899921 
L 353.559012 27.386891 
L 353.755021 27.386891 
L 353.755021 23.873861 
L 355.30155 23.873861 
L 355.30155 20.360832 
L 356.502143 20.360832 
L 356.502143 16.847802 
L 356.715113 16.847802 
L 356.715113 13.334772 
L 356.715113 13.334772 
L 367.82 13.334772 
L 367.82 13.334772 
" style="fill:none;stroke:#000000;stroke-linecap:square;stroke-width:1.5;"/>
   </g>
   <g id="line2d_27">
    <path clip-path="url(#pff027d62fe)" d="M 200.536286 276.812 
L 200.536286 273.29897 
L 204.02371 273.29897 
L 204.02371 269.785941 
L 206.977272 269.785941 
L 206.977272 266.272911 
L 207.35028 266.272911 
L 207.35028 262.759881 
L 207.77927 262.759881 
L 207.77927 259.246851 
L 207.911218 259.246851 
L 207.911218 255.733822 
L 208.146232 255.733822 
L 208.146232 252.220792 
L 208.396686 252.220792 
L 208.396686 248.707762 
L 209.161507 248.707762 
L 209.161507 245.194733 
L 209.610881 245.194733 
L 209.610881 241.681703 
L 212.334594 241.681703 
L 212.334594 238.168673 
L 213.125948 238.168673 
L 213.125948 234.655644 
L 213.545191 234.655644 
L 213.545191 231.142614 
L 213.725847 231.142614 
L 213.725847 227.629584 
L 217.180318 227.629584 
L 217.180318 224.116554 
L 222.769611 224.116554 
L 222.769611 220.603525 
L 223.388374 220.603525 
L 223.388374 217.090495 
L 225.88146 217.090495 
L 225.88146 213.577465 
L 242.755928 213.577465 
L 242.755928 210.064436 
L 243.870665 210.064436 
L 243.870665 206.551406 
L 244.493459 206.551406 
L 244.574705 196.012317 
L 244.673696 196.012317 
L 244.673696 192.499287 
L 244.885766 192.499287 
L 244.899678 185.473228 
L 245.308285 185.473228 
L 245.386129 178.447168 
L 245.614338 178.447168 
L 245.614338 174.934139 
L 245.943774 174.934139 
L 246.030453 167.908079 
L 247.111247 167.908079 
L 247.111247 164.39505 
L 247.255945 164.39505 
L 247.255945 160.88202 
L 263.854194 160.88202 
L 263.854194 157.36899 
L 289.940279 157.36899 
L 289.940279 153.85596 
L 297.257114 153.85596 
L 297.257114 150.342931 
L 300.914399 150.342931 
L 300.914399 146.829901 
L 306.612797 146.829901 
L 306.612797 143.316871 
L 308.12727 143.316871 
L 308.175028 136.290812 
L 309.482927 136.290812 
L 309.482927 132.777782 
L 310.546678 132.777782 
L 310.546678 129.264752 
L 312.760084 129.264752 
L 312.760084 125.751723 
L 313.608895 125.751723 
L 313.608895 122.238693 
L 314.782463 122.238693 
L 314.782463 118.725663 
L 316.726781 118.725663 
L 316.726781 115.212634 
L 317.491677 115.212634 
L 317.491677 111.699604 
L 319.233002 111.699604 
L 319.233002 108.186574 
L 319.804199 108.186574 
L 319.804199 104.673545 
L 320.220078 104.673545 
L 320.220078 101.160515 
L 320.428431 101.160515 
L 320.428431 97.647485 
L 320.945741 97.647485 
L 320.945741 94.134455 
L 321.962315 94.134455 
L 321.962315 90.621426 
L 323.433946 90.621426 
L 323.433946 87.108396 
L 323.572145 87.108396 
L 323.572145 83.595366 
L 324.649703 83.595366 
L 324.649703 80.082337 
L 326.028962 80.082337 
L 326.028962 76.569307 
L 326.317535 76.569307 
L 326.317535 73.056277 
L 327.207286 73.056277 
L 327.207286 69.543248 
L 327.499372 69.543248 
L 327.499372 66.030218 
L 342.978829 66.030218 
L 343.053002 59.004158 
L 345.551488 59.004158 
L 345.551488 55.491129 
L 345.68858 55.491129 
L 345.68858 51.978099 
L 346.026121 51.978099 
L 346.026121 48.465069 
L 346.906702 48.465069 
L 346.906702 44.95204 
L 347.330139 44.95204 
L 347.330139 41.43901 
L 348.711663 41.43901 
L 348.711663 37.92598 
L 349.71052 37.92598 
L 349.71052 34.41295 
L 352.442372 34.41295 
L 352.442372 30.899921 
L 352.58593 30.899921 
L 352.58593 27.386891 
L 353.559012 27.386891 
L 353.559012 23.873861 
L 354.217207 23.873861 
L 354.217207 20.360832 
L 355.099117 20.360832 
L 355.099117 16.847802 
L 356.715113 16.847802 
L 356.715113 13.334772 
L 356.715113 13.334772 
L 367.82 13.334772 
L 367.82 13.334772 
" style="fill:none;stroke:#00bfbf;stroke-linecap:square;stroke-width:1.5;"/>
   </g>
   <g id="line2d_28">
    <path clip-path="url(#pff027d62fe)" d="M 200.066447 276.812 
L 200.066447 273.29897 
L 203.966681 273.29897 
L 203.966681 269.785941 
L 206.129413 269.785941 
L 206.129413 266.272911 
L 206.492229 266.272911 
L 206.492229 262.759881 
L 207.344463 262.759881 
L 207.344463 259.246851 
L 207.654492 259.246851 
L 207.74361 252.220792 
L 208.090097 252.220792 
L 208.090097 248.707762 
L 208.539421 248.707762 
L 208.539421 245.194733 
L 209.210739 245.194733 
L 209.210739 241.681703 
L 212.146397 241.681703 
L 212.146397 238.168673 
L 212.334594 238.168673 
L 212.334594 234.655644 
L 213.075117 234.655644 
L 213.125948 227.629584 
L 215.273424 227.629584 
L 215.273424 224.116554 
L 215.85424 224.116554 
L 215.85424 220.603525 
L 218.729182 220.603525 
L 218.729182 217.090495 
L 220.882962 217.090495 
L 220.882962 213.577465 
L 223.906909 213.577465 
L 223.906909 210.064436 
L 242.737938 210.064436 
L 242.737938 206.551406 
L 243.779429 206.551406 
L 243.779429 203.038376 
L 244.299602 203.038376 
L 244.299602 199.525347 
L 244.522668 199.525347 
L 244.621838 185.473228 
L 244.669868 185.473228 
L 244.669868 181.960198 
L 244.979074 181.960198 
L 244.979074 178.447168 
L 245.255899 178.447168 
L 245.255899 174.934139 
L 245.370223 174.934139 
L 245.370223 171.421109 
L 245.746122 171.421109 
L 245.746122 167.908079 
L 245.954188 167.908079 
L 245.954188 164.39505 
L 246.921109 164.39505 
L 246.921109 160.88202 
L 247.111247 160.88202 
L 247.111247 157.36899 
L 289.90432 157.36899 
L 289.90432 153.85596 
L 295.633424 153.85596 
L 295.633424 150.342931 
L 297.95732 150.342931 
L 297.95732 146.829901 
L 300.460161 146.829901 
L 300.460161 143.316871 
L 306.611595 143.316871 
L 306.629495 136.290812 
L 309.482927 136.290812 
L 309.482927 132.777782 
L 310.060116 132.777782 
L 310.060116 129.264752 
L 310.175141 129.264752 
L 310.175141 125.751723 
L 312.893291 125.751723 
L 312.893291 122.238693 
L 313.738733 122.238693 
L 313.738733 118.725663 
L 316.292496 118.725663 
L 316.292496 115.212634 
L 317.142709 115.212634 
L 317.142709 111.699604 
L 318.662582 111.699604 
L 318.662582 108.186574 
L 319.16834 108.186574 
L 319.233002 101.160515 
L 320.220078 101.160515 
L 320.220078 97.647485 
L 320.945741 97.647485 
L 320.945741 94.134455 
L 321.904812 94.134455 
L 321.904812 90.621426 
L 322.776466 90.621426 
L 322.776466 87.108396 
L 323.572145 87.108396 
L 323.572145 83.595366 
L 324.207027 83.595366 
L 324.207027 80.082337 
L 324.645185 80.082337 
L 324.645185 76.569307 
L 325.389512 76.569307 
L 325.389512 73.056277 
L 326.771054 73.056277 
L 326.771054 69.543248 
L 327.499372 69.543248 
L 327.499372 66.030218 
L 342.978829 66.030218 
L 343.053002 59.004158 
L 344.83526 59.004158 
L 344.83526 55.491129 
L 345.600229 55.491129 
L 345.600229 51.978099 
L 346.026121 51.978099 
L 346.026121 48.465069 
L 346.699264 48.465069 
L 346.699264 44.95204 
L 347.077392 44.95204 
L 347.077392 41.43901 
L 348.399301 41.43901 
L 348.399301 37.92598 
L 349.69385 37.92598 
L 349.69385 34.41295 
L 351.688078 34.41295 
L 351.688078 30.899921 
L 352.442372 30.899921 
L 352.442372 27.386891 
L 352.945821 27.386891 
L 352.945821 23.873861 
L 353.246428 23.873861 
L 353.246428 20.360832 
L 354.190314 20.360832 
L 354.190314 16.847802 
L 355.41735 16.847802 
L 355.41735 13.334772 
L 355.41735 13.334772 
L 367.82 13.334772 
L 367.82 13.334772 
" style="fill:none;stroke:#bf00bf;stroke-linecap:square;stroke-width:1.5;"/>
   </g>
   <g id="line2d_29">
    <path clip-path="url(#pff027d62fe)" d="M 199.672064 276.812 
L 199.672064 273.29897 
L 202.714688 273.29897 
L 202.714688 269.785941 
L 205.71687 269.785941 
L 205.71687 266.272911 
L 206.414401 266.272911 
L 206.414401 262.759881 
L 206.685508 262.759881 
L 206.685508 259.246851 
L 206.819595 259.246851 
L 206.819595 255.733822 
L 207.031359 255.733822 
L 207.031359 252.220792 
L 207.355053 252.220792 
L 207.355053 248.707762 
L 207.746558 248.707762 
L 207.746558 245.194733 
L 208.249416 245.194733 
L 208.249416 241.681703 
L 210.988983 241.681703 
L 210.988983 238.168673 
L 212.123016 238.168673 
L 212.123016 234.655644 
L 212.544979 234.655644 
L 212.544979 231.142614 
L 213.125948 231.142614 
L 213.125948 227.629584 
L 214.674734 227.629584 
L 214.674734 224.116554 
L 215.85424 224.116554 
L 215.85424 220.603525 
L 217.812848 220.603525 
L 217.812848 217.090495 
L 220.772373 217.090495 
L 220.772373 213.577465 
L 221.694731 213.577465 
L 221.694731 210.064436 
L 242.302805 210.064436 
L 242.302805 206.551406 
L 243.576513 206.551406 
L 243.576513 203.038376 
L 244.06222 203.038376 
L 244.135354 196.012317 
L 244.378745 196.012317 
L 244.378745 192.499287 
L 244.498985 192.499287 
L 244.52361 181.960198 
L 244.824131 181.960198 
L 244.824131 178.447168 
L 245.027547 178.447168 
L 245.038745 171.421109 
L 245.556024 171.421109 
L 245.585808 164.39505 
L 246.793516 164.39505 
L 246.793516 160.88202 
L 246.938843 160.88202 
L 246.938843 157.36899 
L 285.374945 157.36899 
L 285.374945 153.85596 
L 292.956818 153.85596 
L 292.956818 150.342931 
L 296.060232 150.342931 
L 296.060232 146.829901 
L 298.458249 146.829901 
L 298.458249 143.316871 
L 300.055832 143.316871 
L 300.055832 139.803842 
L 305.161694 139.803842 
L 305.161694 136.290812 
L 308.002123 136.290812 
L 308.002123 132.777782 
L 308.741392 132.777782 
L 308.741392 129.264752 
L 309.38262 129.264752 
L 309.38262 125.751723 
L 310.125274 125.751723 
L 310.125274 122.238693 
L 311.633185 122.238693 
L 311.633185 118.725663 
L 313.282444 118.725663 
L 313.282444 115.212634 
L 316.85463 115.212634 
L 316.85463 111.699604 
L 317.542417 111.699604 
L 317.542417 108.186574 
L 317.949122 108.186574 
L 317.949122 104.673545 
L 318.48041 104.673545 
L 318.48041 101.160515 
L 319.984481 101.160515 
L 319.984481 97.647485 
L 320.756878 97.647485 
L 320.756878 94.134455 
L 321.260886 94.134455 
L 321.260886 90.621426 
L 321.572076 90.621426 
L 321.572076 87.108396 
L 323.100525 87.108396 
L 323.100525 83.595366 
L 323.281725 83.595366 
L 323.281725 80.082337 
L 323.79876 80.082337 
L 323.79876 76.569307 
L 324.004336 76.569307 
L 324.004336 73.056277 
L 325.819029 73.056277 
L 325.819029 69.543248 
L 326.690277 69.543248 
L 326.690277 66.030218 
L 342.219968 66.030218 
L 342.219968 62.517188 
L 342.558456 62.517188 
L 342.558456 59.004158 
L 344.49744 59.004158 
L 344.49744 55.491129 
L 344.655678 55.491129 
L 344.655678 51.978099 
L 345.091088 51.978099 
L 345.151771 44.95204 
L 345.321946 44.95204 
L 345.321946 41.43901 
L 347.433615 41.43901 
L 347.433615 37.92598 
L 347.553088 37.92598 
L 347.553088 34.41295 
L 350.86722 34.41295 
L 350.86722 30.899921 
L 351.849552 30.899921 
L 351.849552 27.386891 
L 352.599953 27.386891 
L 352.599953 23.873861 
L 352.762521 23.873861 
L 352.762521 20.360832 
L 353.460289 20.360832 
L 353.460289 16.847802 
L 354.446566 16.847802 
L 354.446566 13.334772 
L 354.446566 13.334772 
L 367.82 13.334772 
L 367.82 13.334772 
" style="fill:none;stroke:#000000;stroke-linecap:square;stroke-width:1.5;"/>
   </g>
   <g id="patch_3">
    <path d="M 10.7 276.812 
L 10.7 10.7 
" style="fill:none;stroke:#000000;stroke-linecap:square;stroke-linejoin:miter;stroke-width:0.8;"/>
   </g>
   <g id="patch_4">
    <path d="M 367.82 276.812 
L 367.82 10.7 
" style="fill:none;stroke:#000000;stroke-linecap:square;stroke-linejoin:miter;stroke-width:0.8;"/>
   </g>
   <g id="patch_5">
    <path d="M 10.7 276.812 
L 367.82 276.812 
" style="fill:none;stroke:#000000;stroke-linecap:square;stroke-linejoin:miter;stroke-width:0.8;"/>
   </g>
   <g id="patch_6">
    <path d="M 10.7 10.7 
L 367.82 10.7 
" style="fill:none;stroke:#000000;stroke-linecap:square;stroke-linejoin:miter;stroke-width:0.8;"/>
   </g>
   <g id="text_6">
    <!-- {f10-f14}, 20-D -->
    <defs>
     <path d="M 51.125 -9.28125 
L 51.125 -16.3125 
L 48.09375 -16.3125 
Q 35.9375 -16.3125 31.8125 -12.6875 
Q 27.6875 -9.078125 27.6875 1.703125 
L 27.6875 13.375 
Q 27.6875 20.75 25.046875 23.578125 
Q 22.40625 26.421875 15.484375 26.421875 
L 12.5 26.421875 
L 12.5 33.40625 
L 15.484375 33.40625 
Q 22.46875 33.40625 25.078125 36.203125 
Q 27.6875 39.015625 27.6875 46.296875 
L 27.6875 58.015625 
Q 27.6875 68.796875 31.8125 72.390625 
Q 35.9375 75.984375 48.09375 75.984375 
L 51.125 75.984375 
L 51.125 69 
L 47.796875 69 
Q 40.921875 69 38.8125 66.84375 
Q 36.71875 64.703125 36.71875 57.8125 
L 36.71875 45.703125 
Q 36.71875 38.03125 34.5 34.5625 
Q 32.28125 31.109375 26.90625 29.890625 
Q 32.328125 28.5625 34.515625 25.09375 
Q 36.71875 21.625 36.71875 14.015625 
L 36.71875 1.90625 
Q 36.71875 -4.984375 38.8125 -7.125 
Q 40.921875 -9.28125 47.796875 -9.28125 
z
" id="DejaVuSans-7b"/>
     <path d="M 12.5 -9.28125 
L 15.921875 -9.28125 
Q 22.75 -9.28125 24.828125 -7.171875 
Q 26.90625 -5.078125 26.90625 1.90625 
L 26.90625 14.015625 
Q 26.90625 21.625 29.09375 25.09375 
Q 31.296875 28.5625 36.71875 29.890625 
Q 31.296875 31.109375 29.09375 34.5625 
Q 26.90625 38.03125 26.90625 45.703125 
L 26.90625 57.8125 
Q 26.90625 64.75 24.828125 66.875 
Q 22.75 69 15.921875 69 
L 12.5 69 
L 12.5 75.984375 
L 15.578125 75.984375 
Q 27.734375 75.984375 31.8125 72.390625 
Q 35.890625 68.796875 35.890625 58.015625 
L 35.890625 46.296875 
Q 35.890625 39.015625 38.515625 36.203125 
Q 41.15625 33.40625 48.09375 33.40625 
L 51.125 33.40625 
L 51.125 26.421875 
L 48.09375 26.421875 
Q 41.15625 26.421875 38.515625 23.578125 
Q 35.890625 20.75 35.890625 13.375 
L 35.890625 1.703125 
Q 35.890625 -9.078125 31.8125 -12.6875 
Q 27.734375 -16.3125 15.578125 -16.3125 
L 12.5 -16.3125 
z
" id="DejaVuSans-7d"/>
     <path d="M 11.71875 12.40625 
L 22.015625 12.40625 
L 22.015625 4 
L 14.015625 -11.625 
L 7.71875 -11.625 
L 11.71875 4 
z
" id="DejaVuSans-2c"/>
     <path d="M 19.1875 8.296875 
L 53.609375 8.296875 
L 53.609375 0 
L 7.328125 0 
L 7.328125 8.296875 
Q 12.9375 14.109375 22.625 23.890625 
Q 32.328125 33.6875 34.8125 36.53125 
Q 39.546875 41.84375 41.421875 45.53125 
Q 43.3125 49.21875 43.3125 52.78125 
Q 43.3125 58.59375 39.234375 62.25 
Q 35.15625 65.921875 28.609375 65.921875 
Q 23.96875 65.921875 18.8125 64.3125 
Q 13.671875 62.703125 7.8125 59.421875 
L 7.8125 69.390625 
Q 13.765625 71.78125 18.9375 73 
Q 24.125 74.21875 28.421875 74.21875 
Q 39.75 74.21875 46.484375 68.546875 
Q 53.21875 62.890625 53.21875 53.421875 
Q 53.21875 48.921875 51.53125 44.890625 
Q 49.859375 40.875 45.40625 35.40625 
Q 44.1875 33.984375 37.640625 27.21875 
Q 31.109375 20.453125 19.1875 8.296875 
" id="DejaVuSans-32"/>
    </defs>
    <g transform="translate(202.2526 271.48976)scale(0.2 -0.2)">
     <use xlink:href="#DejaVuSans-7b"/>
     <use x="63.623047" xlink:href="#DejaVuSans-66"/>
     <use x="98.828125" xlink:href="#DejaVuSans-31"/>
     <use x="162.451172" xlink:href="#DejaVuSans-30"/>
     <use x="226.074219" xlink:href="#DejaVuSans-2d"/>
     <use x="262.158203" xlink:href="#DejaVuSans-66"/>
     <use x="297.363281" xlink:href="#DejaVuSans-31"/>
     <use x="360.986328" xlink:href="#DejaVuSans-34"/>
     <use x="424.609375" xlink:href="#DejaVuSans-7d"/>
     <use x="488.232422" xlink:href="#DejaVuSans-2c"/>
     <use x="520.019531" xlink:href="#DejaVuSans-20"/>
     <use x="551.806641" xlink:href="#DejaVuSans-32"/>
     <use x="615.429688" xlink:href="#DejaVuSans-30"/>
     <use x="679.052734" xlink:href="#DejaVuSans-2d"/>
     <use x="715.136719" xlink:href="#DejaVuSans-44"/>
    </g>
   </g>
   <g id="text_7">
    <!-- v2.1 -->
    <defs>
     <path d="M 2.984375 54.6875 
L 12.5 54.6875 
L 29.59375 8.796875 
L 46.6875 54.6875 
L 56.203125 54.6875 
L 35.6875 0 
L 23.484375 0 
z
" id="DejaVuSans-76"/>
     <path d="M 10.6875 12.40625 
L 21 12.40625 
L 21 0 
L 10.6875 0 
z
" id="DejaVuSans-2e"/>
    </defs>
    <g style="fill:#808080;" transform="translate(178.349063 272.071193)scale(0.1 -0.1)">
     <use xlink:href="#DejaVuSans-76"/>
     <use x="59.179688" xlink:href="#DejaVuSans-32"/>
     <use x="122.802734" xlink:href="#DejaVuSans-2e"/>
     <use x="154.589844" xlink:href="#DejaVuSans-31"/>
    </g>
   </g>
  </g>
 </g>
 <defs>
  <clipPath id="pff027d62fe">
   <rect height="266.112" width="357.12" x="10.7" y="10.7"/>
  </clipPath>
 </defs>
</svg>
