<?xml version="1.0" encoding="utf-8" standalone="no"?>
<!DOCTYPE svg PUBLIC "-//W3C//DTD SVG 1.1//EN"
  "http://www.w3.org/Graphics/SVG/1.1/DTD/svg11.dtd">
<!-- Created with matplotlib (http://matplotlib.org/) -->
<svg height="333pt" version="1.1" viewBox="0 0 378 333" width="378pt" xmlns="http://www.w3.org/2000/svg" xmlns:xlink="http://www.w3.org/1999/xlink">
 <defs>
  <style type="text/css">
*{stroke-linecap:butt;stroke-linejoin:round;}
  </style>
 </defs>
 <g id="figure_1">
  <g id="patch_1">
   <path d="M 0 333.7245 
L 378.52 333.7245 
L 378.52 0 
L 0 0 
z
" style="fill:#ffffff;"/>
  </g>
  <g id="axes_1">
   <g id="patch_2">
    <path d="M 10.7 276.812 
L 367.82 276.812 
L 367.82 10.7 
L 10.7 10.7 
z
" style="fill:#ffffff;"/>
   </g>
   <g id="matplotlib.axis_1">
    <g id="xtick_1">
     <g id="line2d_1">
      <path clip-path="url(#p90d08e0d14)" d="M 10.609982 276.812 
L 10.609982 10.7 
" style="fill:none;stroke:#b0b0b0;stroke-linecap:square;stroke-width:0.8;"/>
     </g>
     <g id="line2d_2">
      <defs>
       <path d="M 0 0 
L 0 3.5 
" id="mf823a88450" style="stroke:#000000;stroke-width:0.8;"/>
      </defs>
      <g>
       <use style="stroke:#000000;stroke-width:0.8;" x="10.609982" xlink:href="#mf823a88450" y="276.812"/>
      </g>
     </g>
    </g>
    <g id="xtick_2">
     <g id="line2d_3">
      <path clip-path="url(#p90d08e0d14)" d="M 93.933403 276.812 
L 93.933403 10.7 
" style="fill:none;stroke:#b0b0b0;stroke-linecap:square;stroke-width:0.8;"/>
     </g>
     <g id="line2d_4">
      <g>
       <use style="stroke:#000000;stroke-width:0.8;" x="93.933403" xlink:href="#mf823a88450" y="276.812"/>
      </g>
     </g>
     <g id="text_1">
      <!-- -4 -->
      <defs>
       <path d="M 4.890625 31.390625 
L 31.203125 31.390625 
L 31.203125 23.390625 
L 4.890625 23.390625 
z
" id="DejaVuSans-2d"/>
       <path d="M 37.796875 64.3125 
L 12.890625 25.390625 
L 37.796875 25.390625 
z
M 35.203125 72.90625 
L 47.609375 72.90625 
L 47.609375 25.390625 
L 58.015625 25.390625 
L 58.015625 17.1875 
L 47.609375 17.1875 
L 47.609375 0 
L 37.796875 0 
L 37.796875 17.1875 
L 4.890625 17.1875 
L 4.890625 26.703125 
z
" id="DejaVuSans-34"/>
      </defs>
      <g transform="translate(83.963091 299.008875)scale(0.2 -0.2)">
       <use xlink:href="#DejaVuSans-2d"/>
       <use x="36.083984" xlink:href="#DejaVuSans-34"/>
      </g>
     </g>
    </g>
    <g id="xtick_3">
     <g id="line2d_5">
      <path clip-path="url(#p90d08e0d14)" d="M 177.256825 276.812 
L 177.256825 10.7 
" style="fill:none;stroke:#b0b0b0;stroke-linecap:square;stroke-width:0.8;"/>
     </g>
     <g id="line2d_6">
      <g>
       <use style="stroke:#000000;stroke-width:0.8;" x="177.256825" xlink:href="#mf823a88450" y="276.812"/>
      </g>
     </g>
     <g id="text_2">
      <!-- 0 -->
      <defs>
       <path d="M 31.78125 66.40625 
Q 24.171875 66.40625 20.328125 58.90625 
Q 16.5 51.421875 16.5 36.375 
Q 16.5 21.390625 20.328125 13.890625 
Q 24.171875 6.390625 31.78125 6.390625 
Q 39.453125 6.390625 43.28125 13.890625 
Q 47.125 21.390625 47.125 36.375 
Q 47.125 51.421875 43.28125 58.90625 
Q 39.453125 66.40625 31.78125 66.40625 
M 31.78125 74.21875 
Q 44.046875 74.21875 50.515625 64.515625 
Q 56.984375 54.828125 56.984375 36.375 
Q 56.984375 17.96875 50.515625 8.265625 
Q 44.046875 -1.421875 31.78125 -1.421875 
Q 19.53125 -1.421875 13.0625 8.265625 
Q 6.59375 17.96875 6.59375 36.375 
Q 6.59375 54.828125 13.0625 64.515625 
Q 19.53125 74.21875 31.78125 74.21875 
" id="DejaVuSans-30"/>
      </defs>
      <g transform="translate(170.894325 299.008875)scale(0.2 -0.2)">
       <use xlink:href="#DejaVuSans-30"/>
      </g>
     </g>
    </g>
    <g id="xtick_4">
     <g id="line2d_7">
      <path clip-path="url(#p90d08e0d14)" d="M 260.580246 276.812 
L 260.580246 10.7 
" style="fill:none;stroke:#b0b0b0;stroke-linecap:square;stroke-width:0.8;"/>
     </g>
     <g id="line2d_8">
      <g>
       <use style="stroke:#000000;stroke-width:0.8;" x="260.580246" xlink:href="#mf823a88450" y="276.812"/>
      </g>
     </g>
     <g id="text_3">
      <!-- 4 -->
      <g transform="translate(254.217746 299.008875)scale(0.2 -0.2)">
       <use xlink:href="#DejaVuSans-34"/>
      </g>
     </g>
    </g>
    <g id="xtick_5">
     <g id="line2d_9">
      <path clip-path="url(#p90d08e0d14)" d="M 343.903667 276.812 
L 343.903667 10.7 
" style="fill:none;stroke:#b0b0b0;stroke-linecap:square;stroke-width:0.8;"/>
     </g>
     <g id="line2d_10">
      <g>
       <use style="stroke:#000000;stroke-width:0.8;" x="343.903667" xlink:href="#mf823a88450" y="276.812"/>
      </g>
     </g>
     <g id="text_4">
      <!-- 8 -->
      <defs>
       <path d="M 31.78125 34.625 
Q 24.75 34.625 20.71875 30.859375 
Q 16.703125 27.09375 16.703125 20.515625 
Q 16.703125 13.921875 20.71875 10.15625 
Q 24.75 6.390625 31.78125 6.390625 
Q 38.8125 6.390625 42.859375 10.171875 
Q 46.921875 13.96875 46.921875 20.515625 
Q 46.921875 27.09375 42.890625 30.859375 
Q 38.875 34.625 31.78125 34.625 
M 21.921875 38.8125 
Q 15.578125 40.375 12.03125 44.71875 
Q 8.5 49.078125 8.5 55.328125 
Q 8.5 64.0625 14.71875 69.140625 
Q 20.953125 74.21875 31.78125 74.21875 
Q 42.671875 74.21875 48.875 69.140625 
Q 55.078125 64.0625 55.078125 55.328125 
Q 55.078125 49.078125 51.53125 44.71875 
Q 48 40.375 41.703125 38.8125 
Q 48.828125 37.15625 52.796875 32.3125 
Q 56.78125 27.484375 56.78125 20.515625 
Q 56.78125 9.90625 50.3125 4.234375 
Q 43.84375 -1.421875 31.78125 -1.421875 
Q 19.734375 -1.421875 13.25 4.234375 
Q 6.78125 9.90625 6.78125 20.515625 
Q 6.78125 27.484375 10.78125 32.3125 
Q 14.796875 37.15625 21.921875 38.8125 
M 18.3125 54.390625 
Q 18.3125 48.734375 21.84375 45.5625 
Q 25.390625 42.390625 31.78125 42.390625 
Q 38.140625 42.390625 41.71875 45.5625 
Q 45.3125 48.734375 45.3125 54.390625 
Q 45.3125 60.0625 41.71875 63.234375 
Q 38.140625 66.40625 31.78125 66.40625 
Q 25.390625 66.40625 21.84375 63.234375 
Q 18.3125 60.0625 18.3125 54.390625 
" id="DejaVuSans-38"/>
      </defs>
      <g transform="translate(337.541167 299.008875)scale(0.2 -0.2)">
       <use xlink:href="#DejaVuSans-38"/>
      </g>
     </g>
    </g>
    <g id="text_5">
     <!-- log10 of Df -->
     <defs>
      <path d="M 9.421875 75.984375 
L 18.40625 75.984375 
L 18.40625 0 
L 9.421875 0 
z
" id="DejaVuSans-6c"/>
      <path d="M 30.609375 48.390625 
Q 23.390625 48.390625 19.1875 42.75 
Q 14.984375 37.109375 14.984375 27.296875 
Q 14.984375 17.484375 19.15625 11.84375 
Q 23.34375 6.203125 30.609375 6.203125 
Q 37.796875 6.203125 41.984375 11.859375 
Q 46.1875 17.53125 46.1875 27.296875 
Q 46.1875 37.015625 41.984375 42.703125 
Q 37.796875 48.390625 30.609375 48.390625 
M 30.609375 56 
Q 42.328125 56 49.015625 48.375 
Q 55.71875 40.765625 55.71875 27.296875 
Q 55.71875 13.875 49.015625 6.21875 
Q 42.328125 -1.421875 30.609375 -1.421875 
Q 18.84375 -1.421875 12.171875 6.21875 
Q 5.515625 13.875 5.515625 27.296875 
Q 5.515625 40.765625 12.171875 48.375 
Q 18.84375 56 30.609375 56 
" id="DejaVuSans-6f"/>
      <path d="M 45.40625 27.984375 
Q 45.40625 37.75 41.375 43.109375 
Q 37.359375 48.484375 30.078125 48.484375 
Q 22.859375 48.484375 18.828125 43.109375 
Q 14.796875 37.75 14.796875 27.984375 
Q 14.796875 18.265625 18.828125 12.890625 
Q 22.859375 7.515625 30.078125 7.515625 
Q 37.359375 7.515625 41.375 12.890625 
Q 45.40625 18.265625 45.40625 27.984375 
M 54.390625 6.78125 
Q 54.390625 -7.171875 48.1875 -13.984375 
Q 42 -20.796875 29.203125 -20.796875 
Q 24.46875 -20.796875 20.265625 -20.09375 
Q 16.0625 -19.390625 12.109375 -17.921875 
L 12.109375 -9.1875 
Q 16.0625 -11.328125 19.921875 -12.34375 
Q 23.78125 -13.375 27.78125 -13.375 
Q 36.625 -13.375 41.015625 -8.765625 
Q 45.40625 -4.15625 45.40625 5.171875 
L 45.40625 9.625 
Q 42.625 4.78125 38.28125 2.390625 
Q 33.9375 0 27.875 0 
Q 17.828125 0 11.671875 7.65625 
Q 5.515625 15.328125 5.515625 27.984375 
Q 5.515625 40.671875 11.671875 48.328125 
Q 17.828125 56 27.875 56 
Q 33.9375 56 38.28125 53.609375 
Q 42.625 51.21875 45.40625 46.390625 
L 45.40625 54.6875 
L 54.390625 54.6875 
z
" id="DejaVuSans-67"/>
      <path d="M 12.40625 8.296875 
L 28.515625 8.296875 
L 28.515625 63.921875 
L 10.984375 60.40625 
L 10.984375 69.390625 
L 28.421875 72.90625 
L 38.28125 72.90625 
L 38.28125 8.296875 
L 54.390625 8.296875 
L 54.390625 0 
L 12.40625 0 
z
" id="DejaVuSans-31"/>
      <path id="DejaVuSans-20"/>
      <path d="M 37.109375 75.984375 
L 37.109375 68.5 
L 28.515625 68.5 
Q 23.6875 68.5 21.796875 66.546875 
Q 19.921875 64.59375 19.921875 59.515625 
L 19.921875 54.6875 
L 34.71875 54.6875 
L 34.71875 47.703125 
L 19.921875 47.703125 
L 19.921875 0 
L 10.890625 0 
L 10.890625 47.703125 
L 2.296875 47.703125 
L 2.296875 54.6875 
L 10.890625 54.6875 
L 10.890625 58.5 
Q 10.890625 67.625 15.140625 71.796875 
Q 19.390625 75.984375 28.609375 75.984375 
z
" id="DejaVuSans-66"/>
      <path d="M 19.671875 64.796875 
L 19.671875 8.109375 
L 31.59375 8.109375 
Q 46.6875 8.109375 53.6875 14.9375 
Q 60.6875 21.78125 60.6875 36.53125 
Q 60.6875 51.171875 53.6875 57.984375 
Q 46.6875 64.796875 31.59375 64.796875 
z
M 9.8125 72.90625 
L 30.078125 72.90625 
Q 51.265625 72.90625 61.171875 64.09375 
Q 71.09375 55.28125 71.09375 36.53125 
Q 71.09375 17.671875 61.125 8.828125 
Q 51.171875 0 30.078125 0 
L 9.8125 0 
z
" id="DejaVuSans-44"/>
     </defs>
     <g transform="translate(134.074063 322.365125)scale(0.2 -0.2)">
      <use xlink:href="#DejaVuSans-6c"/>
      <use x="27.783203" xlink:href="#DejaVuSans-6f"/>
      <use x="88.964844" xlink:href="#DejaVuSans-67"/>
      <use x="152.441406" xlink:href="#DejaVuSans-31"/>
      <use x="216.064453" xlink:href="#DejaVuSans-30"/>
      <use x="279.6875" xlink:href="#DejaVuSans-20"/>
      <use x="311.474609" xlink:href="#DejaVuSans-6f"/>
      <use x="372.65625" xlink:href="#DejaVuSans-66"/>
      <use x="407.861328" xlink:href="#DejaVuSans-20"/>
      <use x="439.648438" xlink:href="#DejaVuSans-44"/>
      <use x="516.650391" xlink:href="#DejaVuSans-66"/>
     </g>
    </g>
   </g>
   <g id="matplotlib.axis_2">
    <g id="ytick_1">
     <g id="line2d_11">
      <path clip-path="url(#p90d08e0d14)" d="M 10.7 276.812 
L 367.82 276.812 
" style="fill:none;stroke:#b0b0b0;stroke-linecap:square;stroke-width:0.8;"/>
     </g>
     <g id="line2d_12">
      <defs>
       <path d="M 0 0 
L -3.5 0 
" id="m7cdc3c709e" style="stroke:#000000;stroke-width:0.8;"/>
      </defs>
      <g>
       <use style="stroke:#000000;stroke-width:0.8;" x="10.7" xlink:href="#m7cdc3c709e" y="276.812"/>
      </g>
     </g>
    </g>
    <g id="ytick_2">
     <g id="line2d_13">
      <path clip-path="url(#p90d08e0d14)" d="M 10.7 224.116554 
L 367.82 224.116554 
" style="fill:none;stroke:#b0b0b0;stroke-linecap:square;stroke-width:0.8;"/>
     </g>
     <g id="line2d_14">
      <g>
       <use style="stroke:#000000;stroke-width:0.8;" x="10.7" xlink:href="#m7cdc3c709e" y="224.116554"/>
      </g>
     </g>
    </g>
    <g id="ytick_3">
     <g id="line2d_15">
      <path clip-path="url(#p90d08e0d14)" d="M 10.7 171.421109 
L 367.82 171.421109 
" style="fill:none;stroke:#b0b0b0;stroke-linecap:square;stroke-width:0.8;"/>
     </g>
     <g id="line2d_16">
      <g>
       <use style="stroke:#000000;stroke-width:0.8;" x="10.7" xlink:href="#m7cdc3c709e" y="171.421109"/>
      </g>
     </g>
    </g>
    <g id="ytick_4">
     <g id="line2d_17">
      <path clip-path="url(#p90d08e0d14)" d="M 10.7 118.725663 
L 367.82 118.725663 
" style="fill:none;stroke:#b0b0b0;stroke-linecap:square;stroke-width:0.8;"/>
     </g>
     <g id="line2d_18">
      <g>
       <use style="stroke:#000000;stroke-width:0.8;" x="10.7" xlink:href="#m7cdc3c709e" y="118.725663"/>
      </g>
     </g>
    </g>
    <g id="ytick_5">
     <g id="line2d_19">
      <path clip-path="url(#p90d08e0d14)" d="M 10.7 66.030218 
L 367.82 66.030218 
" style="fill:none;stroke:#b0b0b0;stroke-linecap:square;stroke-width:0.8;"/>
     </g>
     <g id="line2d_20">
      <g>
       <use style="stroke:#000000;stroke-width:0.8;" x="10.7" xlink:href="#m7cdc3c709e" y="66.030218"/>
      </g>
     </g>
    </g>
    <g id="ytick_6">
     <g id="line2d_21">
      <path clip-path="url(#p90d08e0d14)" d="M 10.7 13.334772 
L 367.82 13.334772 
" style="fill:none;stroke:#b0b0b0;stroke-linecap:square;stroke-width:0.8;"/>
     </g>
     <g id="line2d_22">
      <g>
       <use style="stroke:#000000;stroke-width:0.8;" x="10.7" xlink:href="#m7cdc3c709e" y="13.334772"/>
      </g>
     </g>
    </g>
   </g>
   <g id="line2d_23">
    <path clip-path="url(#p90d08e0d14)" d="M 212.438683 276.812 
L 212.438683 273.29897 
L 213.646489 273.29897 
L 213.646489 269.785941 
L 215.653632 269.785941 
L 215.653632 266.272911 
L 215.827222 266.272911 
L 215.870956 259.246851 
L 216.170875 259.246851 
L 216.191288 252.220792 
L 216.810171 252.220792 
L 216.879199 245.194733 
L 217.720535 245.194733 
L 217.720535 241.681703 
L 217.9298 241.681703 
L 217.9298 238.168673 
L 218.058415 238.168673 
L 218.058415 234.655644 
L 218.558524 234.655644 
L 218.558524 231.142614 
L 218.912554 231.142614 
L 218.912554 227.629584 
L 220.801065 227.629584 
L 220.801065 224.116554 
L 225.705909 224.116554 
L 225.705909 220.603525 
L 226.825316 220.603525 
L 226.825316 217.090495 
L 227.568889 217.090495 
L 227.568889 213.577465 
L 228.345268 213.577465 
L 228.345268 210.064436 
L 229.371062 210.064436 
L 229.371062 206.551406 
L 229.949185 206.551406 
L 230.025291 199.525347 
L 230.153464 199.525347 
L 230.153464 196.012317 
L 230.498817 196.012317 
L 230.607733 178.447168 
L 230.625843 178.447168 
L 230.692846 171.421109 
L 230.739147 171.421109 
L 230.822986 157.36899 
L 230.99915 157.36899 
L 231.060165 143.316871 
L 231.389638 143.316871 
L 231.389638 139.803842 
L 231.648826 139.803842 
L 231.648826 136.290812 
L 231.882694 136.290812 
L 231.882694 132.777782 
L 232.190725 132.777782 
L 232.190725 129.264752 
L 232.335032 129.264752 
L 232.384754 122.238693 
L 232.719256 122.238693 
L 232.729789 115.212634 
L 232.863816 115.212634 
L 232.863816 111.699604 
L 233.306736 111.699604 
L 233.306736 108.186574 
L 233.525113 108.186574 
L 233.525113 104.673545 
L 234.923768 104.673545 
L 234.923768 101.160515 
L 235.142965 101.160515 
L 235.142965 97.647485 
L 235.635211 97.647485 
L 235.686638 90.621426 
L 236.273463 90.621426 
L 236.383341 80.082337 
L 236.753819 80.082337 
L 236.753819 76.569307 
L 237.260012 76.569307 
L 237.260012 73.056277 
L 237.934235 73.056277 
L 237.934235 69.543248 
L 238.465802 69.543248 
L 238.465802 66.030218 
L 308.483621 66.030218 
L 308.488286 59.004158 
L 310.671408 59.004158 
L 310.671408 55.491129 
L 312.757815 55.491129 
L 312.757815 51.978099 
L 316.213203 51.978099 
L 316.213203 48.465069 
L 318.144154 48.465069 
L 318.144154 44.95204 
L 318.533282 44.95204 
L 318.533282 41.43901 
L 319.736397 41.43901 
L 319.736397 37.92598 
L 320.972453 37.92598 
L 320.972453 34.41295 
L 323.509577 34.41295 
L 323.593797 27.386891 
L 325.871309 27.386891 
L 325.871309 23.873861 
L 327.392668 23.873861 
L 327.392668 20.360832 
L 328.900344 20.360832 
L 328.900344 16.847802 
L 330.754611 16.847802 
L 330.754611 13.334772 
L 330.754611 13.334772 
L 367.82 13.334772 
L 367.82 13.334772 
" style="fill:none;stroke:#ff0000;stroke-linecap:square;stroke-width:3;"/>
   </g>
   <g id="line2d_24">
    <path clip-path="url(#p90d08e0d14)" d="M 213.911562 276.812 
L 213.911562 273.29897 
L 215.827222 273.29897 
L 215.827222 269.785941 
L 215.943385 269.785941 
L 215.943385 266.272911 
L 217.865481 266.272911 
L 217.894287 259.246851 
L 218.32583 259.246851 
L 218.32583 255.733822 
L 218.620906 255.733822 
L 218.720897 248.707762 
L 218.777584 248.707762 
L 218.777584 245.194733 
L 219.415185 245.194733 
L 219.502002 238.168673 
L 219.912133 238.168673 
L 219.912133 234.655644 
L 220.437711 234.655644 
L 220.437711 231.142614 
L 220.795952 231.142614 
L 220.795952 227.629584 
L 222.193757 227.629584 
L 222.193757 224.116554 
L 228.808615 224.116554 
L 228.808615 220.603525 
L 230.940957 220.603525 
L 231.032863 213.577465 
L 231.059568 213.577465 
L 231.11245 199.525347 
L 231.218779 199.525347 
L 231.324369 181.960198 
L 231.337463 181.960198 
L 231.443573 164.39505 
L 232.3245 164.39505 
L 232.3245 160.88202 
L 232.616724 160.88202 
L 232.616724 157.36899 
L 232.92473 157.36899 
L 232.92473 153.85596 
L 233.408361 153.85596 
L 233.428755 146.829901 
L 233.764953 146.829901 
L 233.874255 139.803842 
L 234.626781 139.803842 
L 234.64041 132.777782 
L 234.8206 132.777782 
L 234.8206 129.264752 
L 235.031339 129.264752 
L 235.031339 125.751723 
L 235.283636 125.751723 
L 235.283636 122.238693 
L 235.593589 122.238693 
L 235.621656 115.212634 
L 235.893342 115.212634 
L 236.00006 108.186574 
L 236.402262 108.186574 
L 236.402262 104.673545 
L 237.289685 104.673545 
L 237.289685 101.160515 
L 237.498872 101.160515 
L 237.498872 97.647485 
L 237.768791 97.647485 
L 237.768791 94.134455 
L 237.952503 94.134455 
L 238.049439 83.595366 
L 238.154714 83.595366 
L 238.154714 80.082337 
L 238.266747 80.082337 
L 238.266747 76.569307 
L 238.920216 76.569307 
L 238.920216 73.056277 
L 239.260316 73.056277 
L 239.260316 69.543248 
L 240.808714 69.543248 
L 240.808714 66.030218 
L 310.892056 66.030218 
L 310.892056 62.517188 
L 311.45702 62.517188 
L 311.45702 59.004158 
L 312.676326 59.004158 
L 312.757815 51.978099 
L 319.035048 51.978099 
L 319.035048 48.465069 
L 320.665548 48.465069 
L 320.665548 44.95204 
L 321.064955 44.95204 
L 321.064955 41.43901 
L 322.405644 41.43901 
L 322.405644 37.92598 
L 323.039932 37.92598 
L 323.039932 34.41295 
L 324.400286 34.41295 
L 324.400286 30.899921 
L 325.775095 30.899921 
L 325.775095 27.386891 
L 325.936383 27.386891 
L 325.936383 23.873861 
L 327.528797 23.873861 
L 327.528797 20.360832 
L 329.357416 20.360832 
L 329.357416 16.847802 
L 331.052889 16.847802 
L 331.052889 13.334772 
L 331.052889 13.334772 
L 367.82 13.334772 
L 367.82 13.334772 
" style="fill:none;stroke:#00bfbf;stroke-linecap:square;stroke-width:1.5;"/>
   </g>
   <g id="line2d_25">
    <path clip-path="url(#p90d08e0d14)" d="M 213.911562 276.812 
L 213.911562 273.29897 
L 215.816997 273.29897 
L 215.827222 266.272911 
L 217.670286 266.272911 
L 217.670286 262.759881 
L 217.865481 262.759881 
L 217.865481 259.246851 
L 218.077661 259.246851 
L 218.077661 255.733822 
L 218.272055 255.733822 
L 218.272055 252.220792 
L 218.620906 252.220792 
L 218.720897 245.194733 
L 219.415185 245.194733 
L 219.502002 238.168673 
L 219.875468 238.168673 
L 219.875468 234.655644 
L 220.150961 234.655644 
L 220.150961 231.142614 
L 220.480481 231.142614 
L 220.480481 227.629584 
L 222.177966 227.629584 
L 222.177966 224.116554 
L 228.808615 224.116554 
L 228.808615 220.603525 
L 230.411343 220.603525 
L 230.411343 217.090495 
L 230.795058 217.090495 
L 230.795058 213.577465 
L 230.940957 213.577465 
L 231.027087 203.038376 
L 231.059568 203.038376 
L 231.11245 192.499287 
L 231.176323 192.499287 
L 231.275837 178.447168 
L 231.307528 178.447168 
L 231.373179 171.421109 
L 231.419525 171.421109 
L 231.443573 164.39505 
L 231.871323 164.39505 
L 231.871323 160.88202 
L 232.3245 160.88202 
L 232.3245 157.36899 
L 232.44129 157.36899 
L 232.44129 153.85596 
L 232.616724 153.85596 
L 232.616724 150.342931 
L 233.287919 150.342931 
L 233.287919 146.829901 
L 233.408361 146.829901 
L 233.408361 143.316871 
L 233.874255 143.316871 
L 233.874255 139.803842 
L 234.289493 139.803842 
L 234.312331 132.777782 
L 234.626781 132.777782 
L 234.626781 129.264752 
L 234.8206 129.264752 
L 234.8206 125.751723 
L 235.030568 125.751723 
L 235.031339 118.725663 
L 235.283636 118.725663 
L 235.364653 111.699604 
L 235.663743 111.699604 
L 235.717031 104.673545 
L 237.228273 104.673545 
L 237.289685 97.647485 
L 237.498872 97.647485 
L 237.580918 90.621426 
L 237.976464 90.621426 
L 238.049439 83.595366 
L 238.154714 83.595366 
L 238.154714 80.082337 
L 238.266747 80.082337 
L 238.266747 76.569307 
L 238.920216 76.569307 
L 238.920216 73.056277 
L 239.260316 73.056277 
L 239.260316 69.543248 
L 240.808714 69.543248 
L 240.808714 66.030218 
L 310.285117 66.030218 
L 310.285117 62.517188 
L 310.892056 62.517188 
L 310.892056 59.004158 
L 312.676326 59.004158 
L 312.757815 51.978099 
L 318.150382 51.978099 
L 318.150382 48.465069 
L 319.768703 48.465069 
L 319.768703 44.95204 
L 321.02667 44.95204 
L 321.02667 41.43901 
L 322.393785 41.43901 
L 322.405644 34.41295 
L 324.400286 34.41295 
L 324.400286 30.899921 
L 324.910522 30.899921 
L 324.910522 27.386891 
L 325.936383 27.386891 
L 325.936383 23.873861 
L 327.528797 23.873861 
L 327.528797 20.360832 
L 329.357416 20.360832 
L 329.357416 16.847802 
L 331.052889 16.847802 
L 331.052889 13.334772 
L 331.052889 13.334772 
L 367.82 13.334772 
L 367.82 13.334772 
" style="fill:none;stroke:#bf00bf;stroke-linecap:square;stroke-width:1.5;"/>
   </g>
   <g id="line2d_26">
    <path clip-path="url(#p90d08e0d14)" d="M 213.911562 276.812 
L 213.911562 273.29897 
L 215.816997 273.29897 
L 215.827222 266.272911 
L 217.670286 266.272911 
L 217.687246 259.246851 
L 218.036223 259.246851 
L 218.077661 252.220792 
L 218.324248 252.220792 
L 218.362057 245.194733 
L 219.158398 245.194733 
L 219.235013 238.168673 
L 219.37654 238.168673 
L 219.37654 234.655644 
L 219.806835 234.655644 
L 219.806835 231.142614 
L 220.480481 231.142614 
L 220.480481 227.629584 
L 222.177966 227.629584 
L 222.177966 224.116554 
L 228.808615 224.116554 
L 228.808615 220.603525 
L 229.47019 220.603525 
L 229.47019 217.090495 
L 230.795058 217.090495 
L 230.795058 213.577465 
L 230.912724 213.577465 
L 231.007252 196.012317 
L 231.055998 196.012317 
L 231.154581 188.986257 
L 231.176323 188.986257 
L 231.284418 167.908079 
L 231.373179 167.908079 
L 231.397823 160.88202 
L 231.871323 160.88202 
L 231.906489 153.85596 
L 232.528138 153.85596 
L 232.528138 150.342931 
L 232.962781 150.342931 
L 232.962781 146.829901 
L 233.287919 146.829901 
L 233.287919 143.316871 
L 233.874255 143.316871 
L 233.887864 136.290812 
L 234.2207 136.290812 
L 234.289493 129.264752 
L 234.492326 129.264752 
L 234.601465 118.725663 
L 234.8206 118.725663 
L 234.8206 115.212634 
L 235.351 115.212634 
L 235.351 111.699604 
L 235.509637 111.699604 
L 235.509637 108.186574 
L 235.663743 108.186574 
L 235.663743 104.673545 
L 236.756822 104.673545 
L 236.756822 101.160515 
L 236.873888 101.160515 
L 236.873888 97.647485 
L 237.289685 97.647485 
L 237.289685 94.134455 
L 237.498872 94.134455 
L 237.498872 90.621426 
L 237.806025 90.621426 
L 237.806025 87.108396 
L 237.976464 87.108396 
L 237.976464 83.595366 
L 238.154714 83.595366 
L 238.154714 80.082337 
L 238.266747 80.082337 
L 238.266747 76.569307 
L 238.920216 76.569307 
L 238.920216 73.056277 
L 239.260316 73.056277 
L 239.260316 69.543248 
L 240.467427 69.543248 
L 240.467427 66.030218 
L 310.285117 66.030218 
L 310.285117 62.517188 
L 310.770188 62.517188 
L 310.770188 59.004158 
L 312.344281 59.004158 
L 312.344281 55.491129 
L 312.757815 55.491129 
L 312.757815 51.978099 
L 318.150382 51.978099 
L 318.150382 48.465069 
L 319.768703 48.465069 
L 319.768703 44.95204 
L 320.079318 44.95204 
L 320.079318 41.43901 
L 321.244539 41.43901 
L 321.244539 37.92598 
L 322.326585 37.92598 
L 322.326585 34.41295 
L 323.940689 34.41295 
L 323.940689 30.899921 
L 324.666541 30.899921 
L 324.666541 27.386891 
L 325.936383 27.386891 
L 325.936383 23.873861 
L 327.528797 23.873861 
L 327.528797 20.360832 
L 329.357416 20.360832 
L 329.357416 16.847802 
L 331.052889 16.847802 
L 331.052889 13.334772 
L 331.052889 13.334772 
L 367.82 13.334772 
L 367.82 13.334772 
" style="fill:none;stroke:#000000;stroke-linecap:square;stroke-width:1.5;"/>
   </g>
   <g id="line2d_27">
    <path clip-path="url(#p90d08e0d14)" d="M 213.911562 276.812 
L 213.911562 273.29897 
L 215.146344 273.29897 
L 215.146344 269.785941 
L 215.827222 269.785941 
L 215.827222 266.272911 
L 217.214828 266.272911 
L 217.27867 259.246851 
L 217.451441 259.246851 
L 217.451441 255.733822 
L 217.589616 255.733822 
L 217.589616 252.220792 
L 217.982951 252.220792 
L 218.044985 245.194733 
L 219.158398 245.194733 
L 219.235013 234.655644 
L 219.697917 234.655644 
L 219.697917 231.142614 
L 220.227937 231.142614 
L 220.227937 227.629584 
L 222.122336 227.629584 
L 222.122336 224.116554 
L 228.751598 224.116554 
L 228.751598 220.603525 
L 229.196517 220.603525 
L 229.196517 217.090495 
L 230.201327 217.090495 
L 230.201327 213.577465 
L 230.527446 213.577465 
L 230.527446 210.064436 
L 230.782699 210.064436 
L 230.816586 203.038376 
L 230.895097 203.038376 
L 230.99364 185.473228 
L 231.082196 185.473228 
L 231.105017 171.421109 
L 231.275837 171.421109 
L 231.32462 160.88202 
L 231.394391 160.88202 
L 231.394391 157.36899 
L 231.871323 157.36899 
L 231.871323 153.85596 
L 232.105962 153.85596 
L 232.105962 150.342931 
L 232.679785 150.342931 
L 232.679785 146.829901 
L 233.274539 146.829901 
L 233.377773 139.803842 
L 233.554258 139.803842 
L 233.554258 136.290812 
L 233.702709 136.290812 
L 233.702709 132.777782 
L 233.874255 132.777782 
L 233.874255 129.264752 
L 234.17018 129.264752 
L 234.256109 122.238693 
L 234.459982 122.238693 
L 234.498128 115.212634 
L 234.601465 115.212634 
L 234.635183 108.186574 
L 235.509637 108.186574 
L 235.509637 104.673545 
L 236.693757 104.673545 
L 236.790564 94.134455 
L 237.289685 94.134455 
L 237.289685 90.621426 
L 237.806025 90.621426 
L 237.913387 83.595366 
L 238.154714 83.595366 
L 238.185784 76.569307 
L 238.318147 76.569307 
L 238.318147 73.056277 
L 238.920216 73.056277 
L 238.920216 69.543248 
L 240.169885 69.543248 
L 240.169885 66.030218 
L 309.590643 66.030218 
L 309.590643 62.517188 
L 310.112201 62.517188 
L 310.112201 59.004158 
L 312.128717 59.004158 
L 312.128717 55.491129 
L 312.757815 55.491129 
L 312.757815 51.978099 
L 317.517055 51.978099 
L 317.517055 48.465069 
L 318.953766 48.465069 
L 318.953766 44.95204 
L 319.648737 44.95204 
L 319.648737 41.43901 
L 320.92232 41.43901 
L 320.92232 37.92598 
L 321.841635 37.92598 
L 321.841635 34.41295 
L 323.940689 34.41295 
L 323.940689 30.899921 
L 324.317851 30.899921 
L 324.317851 27.386891 
L 325.936383 27.386891 
L 325.936383 23.873861 
L 327.510399 23.873861 
L 327.510399 20.360832 
L 329.196411 20.360832 
L 329.196411 16.847802 
L 331.052889 16.847802 
L 331.052889 13.334772 
L 331.052889 13.334772 
L 367.82 13.334772 
L 367.82 13.334772 
" style="fill:none;stroke:#00bfbf;stroke-linecap:square;stroke-width:1.5;"/>
   </g>
   <g id="line2d_28">
    <path clip-path="url(#p90d08e0d14)" d="M 213.816045 276.812 
L 213.816045 273.29897 
L 214.862849 273.29897 
L 214.862849 269.785941 
L 215.827222 269.785941 
L 215.827222 266.272911 
L 217.010554 266.272911 
L 217.034946 259.246851 
L 217.193927 259.246851 
L 217.214828 252.220792 
L 217.75679 252.220792 
L 217.75679 248.707762 
L 217.982951 248.707762 
L 217.982951 245.194733 
L 218.850319 245.194733 
L 218.959606 238.168673 
L 219.196602 238.168673 
L 219.196602 234.655644 
L 219.493415 234.655644 
L 219.493415 231.142614 
L 219.767997 231.142614 
L 219.767997 227.629584 
L 221.834764 227.629584 
L 221.834764 224.116554 
L 228.67547 224.116554 
L 228.778912 217.090495 
L 230.082903 217.090495 
L 230.082903 213.577465 
L 230.245811 213.577465 
L 230.245811 210.064436 
L 230.716643 210.064436 
L 230.80584 192.499287 
L 230.865853 192.499287 
L 230.969152 181.960198 
L 230.977649 181.960198 
L 231.0816 171.421109 
L 231.155354 171.421109 
L 231.253288 164.39505 
L 231.284295 164.39505 
L 231.335241 153.85596 
L 231.722416 153.85596 
L 231.722416 150.342931 
L 232.508489 150.342931 
L 232.508489 146.829901 
L 232.675818 146.829901 
L 232.675818 143.316871 
L 233.377773 143.316871 
L 233.465419 136.290812 
L 233.543963 136.290812 
L 233.554258 129.264752 
L 233.861486 129.264752 
L 233.948025 122.238693 
L 234.043662 122.238693 
L 234.043662 118.725663 
L 234.256109 118.725663 
L 234.298338 111.699604 
L 234.550296 111.699604 
L 234.550296 108.186574 
L 234.837293 108.186574 
L 234.837293 104.673545 
L 236.484738 104.673545 
L 236.484738 101.160515 
L 236.70481 101.160515 
L 236.756822 94.134455 
L 237.255718 94.134455 
L 237.289685 87.108396 
L 237.913387 87.108396 
L 237.944688 80.082337 
L 238.154714 80.082337 
L 238.154714 76.569307 
L 238.318147 76.569307 
L 238.318147 73.056277 
L 238.920216 73.056277 
L 238.920216 69.543248 
L 239.714684 69.543248 
L 239.714684 66.030218 
L 309.416944 66.030218 
L 309.416944 62.517188 
L 310.021542 62.517188 
L 310.021542 59.004158 
L 311.240405 59.004158 
L 311.240405 55.491129 
L 312.757815 55.491129 
L 312.757815 51.978099 
L 316.581429 51.978099 
L 316.581429 48.465069 
L 318.376796 48.465069 
L 318.376796 44.95204 
L 319.489992 44.95204 
L 319.489992 41.43901 
L 320.485502 41.43901 
L 320.485502 37.92598 
L 321.596622 37.92598 
L 321.596622 34.41295 
L 323.872391 34.41295 
L 323.872391 30.899921 
L 324.085769 30.899921 
L 324.085769 27.386891 
L 325.936383 27.386891 
L 325.936383 23.873861 
L 327.510399 23.873861 
L 327.510399 20.360832 
L 329.106486 20.360832 
L 329.106486 16.847802 
L 330.962536 16.847802 
L 330.962536 13.334772 
L 330.962536 13.334772 
L 367.82 13.334772 
L 367.82 13.334772 
" style="fill:none;stroke:#bf00bf;stroke-linecap:square;stroke-width:1.5;"/>
   </g>
   <g id="line2d_29">
    <path clip-path="url(#p90d08e0d14)" d="M 213.138299 276.812 
L 213.138299 273.29897 
L 214.544735 273.29897 
L 214.544735 269.785941 
L 215.827222 269.785941 
L 215.827222 266.272911 
L 216.188133 266.272911 
L 216.188133 262.759881 
L 216.665138 262.759881 
L 216.665138 259.246851 
L 216.933603 259.246851 
L 216.933603 255.733822 
L 217.101448 255.733822 
L 217.101448 252.220792 
L 217.295957 252.220792 
L 217.295957 248.707762 
L 217.496383 248.707762 
L 217.496383 245.194733 
L 218.457234 245.194733 
L 218.457234 241.681703 
L 218.57349 241.681703 
L 218.66412 234.655644 
L 219.376798 234.655644 
L 219.376798 231.142614 
L 219.515813 231.142614 
L 219.515813 227.629584 
L 221.056967 227.629584 
L 221.056967 224.116554 
L 226.66196 224.116554 
L 226.66196 220.603525 
L 227.436829 220.603525 
L 227.436829 217.090495 
L 228.497451 217.090495 
L 228.497451 213.577465 
L 229.046844 213.577465 
L 229.046844 210.064436 
L 230.261885 210.064436 
L 230.261885 206.551406 
L 230.66474 206.551406 
L 230.755124 188.986257 
L 230.801605 188.986257 
L 230.907721 174.934139 
L 230.951555 174.934139 
L 231.014001 167.908079 
L 231.079566 167.908079 
L 231.172864 157.36899 
L 231.211063 157.36899 
L 231.31065 150.342931 
L 231.485536 150.342931 
L 231.53008 143.316871 
L 232.465411 143.316871 
L 232.517825 136.290812 
L 232.798518 136.290812 
L 232.798518 132.777782 
L 233.180713 132.777782 
L 233.180713 129.264752 
L 233.306423 129.264752 
L 233.399832 122.238693 
L 233.518331 122.238693 
L 233.607624 111.699604 
L 233.832547 111.699604 
L 233.832547 108.186574 
L 234.304291 108.186574 
L 234.304291 104.673545 
L 235.940902 104.673545 
L 235.940902 101.160515 
L 236.340555 101.160515 
L 236.340555 97.647485 
L 236.64542 97.647485 
L 236.68686 90.621426 
L 236.985931 90.621426 
L 236.985931 87.108396 
L 237.166735 87.108396 
L 237.166735 83.595366 
L 237.383448 83.595366 
L 237.390455 76.569307 
L 237.977548 76.569307 
L 237.977548 73.056277 
L 238.561202 73.056277 
L 238.561202 69.543248 
L 238.9936 69.543248 
L 238.9936 66.030218 
L 308.876442 66.030218 
L 308.876442 62.517188 
L 309.294319 62.517188 
L 309.294319 59.004158 
L 310.923499 59.004158 
L 310.923499 55.491129 
L 312.757815 55.491129 
L 312.757815 51.978099 
L 316.480411 51.978099 
L 316.480411 48.465069 
L 318.362948 48.465069 
L 318.362948 44.95204 
L 318.977195 44.95204 
L 318.977195 41.43901 
L 319.960476 41.43901 
L 319.960476 37.92598 
L 321.342025 37.92598 
L 321.342025 34.41295 
L 323.781858 34.41295 
L 323.846733 27.386891 
L 325.936383 27.386891 
L 325.936383 23.873861 
L 327.491185 23.873861 
L 327.491185 20.360832 
L 329.006185 20.360832 
L 329.006185 16.847802 
L 330.849091 16.847802 
L 330.849091 13.334772 
L 330.849091 13.334772 
L 367.82 13.334772 
L 367.82 13.334772 
" style="fill:none;stroke:#000000;stroke-linecap:square;stroke-width:1.5;"/>
   </g>
   <g id="patch_3">
    <path d="M 10.7 276.812 
L 10.7 10.7 
" style="fill:none;stroke:#000000;stroke-linecap:square;stroke-linejoin:miter;stroke-width:0.8;"/>
   </g>
   <g id="patch_4">
    <path d="M 367.82 276.812 
L 367.82 10.7 
" style="fill:none;stroke:#000000;stroke-linecap:square;stroke-linejoin:miter;stroke-width:0.8;"/>
   </g>
   <g id="patch_5">
    <path d="M 10.7 276.812 
L 367.82 276.812 
" style="fill:none;stroke:#000000;stroke-linecap:square;stroke-linejoin:miter;stroke-width:0.8;"/>
   </g>
   <g id="patch_6">
    <path d="M 10.7 10.7 
L 367.82 10.7 
" style="fill:none;stroke:#000000;stroke-linecap:square;stroke-linejoin:miter;stroke-width:0.8;"/>
   </g>
   <g id="text_6">
    <!-- {f1-f5}, 20-D -->
    <defs>
     <path d="M 51.125 -9.28125 
L 51.125 -16.3125 
L 48.09375 -16.3125 
Q 35.9375 -16.3125 31.8125 -12.6875 
Q 27.6875 -9.078125 27.6875 1.703125 
L 27.6875 13.375 
Q 27.6875 20.75 25.046875 23.578125 
Q 22.40625 26.421875 15.484375 26.421875 
L 12.5 26.421875 
L 12.5 33.40625 
L 15.484375 33.40625 
Q 22.46875 33.40625 25.078125 36.203125 
Q 27.6875 39.015625 27.6875 46.296875 
L 27.6875 58.015625 
Q 27.6875 68.796875 31.8125 72.390625 
Q 35.9375 75.984375 48.09375 75.984375 
L 51.125 75.984375 
L 51.125 69 
L 47.796875 69 
Q 40.921875 69 38.8125 66.84375 
Q 36.71875 64.703125 36.71875 57.8125 
L 36.71875 45.703125 
Q 36.71875 38.03125 34.5 34.5625 
Q 32.28125 31.109375 26.90625 29.890625 
Q 32.328125 28.5625 34.515625 25.09375 
Q 36.71875 21.625 36.71875 14.015625 
L 36.71875 1.90625 
Q 36.71875 -4.984375 38.8125 -7.125 
Q 40.921875 -9.28125 47.796875 -9.28125 
z
" id="DejaVuSans-7b"/>
     <path d="M 10.796875 72.90625 
L 49.515625 72.90625 
L 49.515625 64.59375 
L 19.828125 64.59375 
L 19.828125 46.734375 
Q 21.96875 47.46875 24.109375 47.828125 
Q 26.265625 48.1875 28.421875 48.1875 
Q 40.625 48.1875 47.75 41.5 
Q 54.890625 34.8125 54.890625 23.390625 
Q 54.890625 11.625 47.5625 5.09375 
Q 40.234375 -1.421875 26.90625 -1.421875 
Q 22.3125 -1.421875 17.546875 -0.640625 
Q 12.796875 0.140625 7.71875 1.703125 
L 7.71875 11.625 
Q 12.109375 9.234375 16.796875 8.0625 
Q 21.484375 6.890625 26.703125 6.890625 
Q 35.15625 6.890625 40.078125 11.328125 
Q 45.015625 15.765625 45.015625 23.390625 
Q 45.015625 31 40.078125 35.4375 
Q 35.15625 39.890625 26.703125 39.890625 
Q 22.75 39.890625 18.8125 39.015625 
Q 14.890625 38.140625 10.796875 36.28125 
z
" id="DejaVuSans-35"/>
     <path d="M 12.5 -9.28125 
L 15.921875 -9.28125 
Q 22.75 -9.28125 24.828125 -7.171875 
Q 26.90625 -5.078125 26.90625 1.90625 
L 26.90625 14.015625 
Q 26.90625 21.625 29.09375 25.09375 
Q 31.296875 28.5625 36.71875 29.890625 
Q 31.296875 31.109375 29.09375 34.5625 
Q 26.90625 38.03125 26.90625 45.703125 
L 26.90625 57.8125 
Q 26.90625 64.75 24.828125 66.875 
Q 22.75 69 15.921875 69 
L 12.5 69 
L 12.5 75.984375 
L 15.578125 75.984375 
Q 27.734375 75.984375 31.8125 72.390625 
Q 35.890625 68.796875 35.890625 58.015625 
L 35.890625 46.296875 
Q 35.890625 39.015625 38.515625 36.203125 
Q 41.15625 33.40625 48.09375 33.40625 
L 51.125 33.40625 
L 51.125 26.421875 
L 48.09375 26.421875 
Q 41.15625 26.421875 38.515625 23.578125 
Q 35.890625 20.75 35.890625 13.375 
L 35.890625 1.703125 
Q 35.890625 -9.078125 31.8125 -12.6875 
Q 27.734375 -16.3125 15.578125 -16.3125 
L 12.5 -16.3125 
z
" id="DejaVuSans-7d"/>
     <path d="M 11.71875 12.40625 
L 22.015625 12.40625 
L 22.015625 4 
L 14.015625 -11.625 
L 7.71875 -11.625 
L 11.71875 4 
z
" id="DejaVuSans-2c"/>
     <path d="M 19.1875 8.296875 
L 53.609375 8.296875 
L 53.609375 0 
L 7.328125 0 
L 7.328125 8.296875 
Q 12.9375 14.109375 22.625 23.890625 
Q 32.328125 33.6875 34.8125 36.53125 
Q 39.546875 41.84375 41.421875 45.53125 
Q 43.3125 49.21875 43.3125 52.78125 
Q 43.3125 58.59375 39.234375 62.25 
Q 35.15625 65.921875 28.609375 65.921875 
Q 23.96875 65.921875 18.8125 64.3125 
Q 13.671875 62.703125 7.8125 59.421875 
L 7.8125 69.390625 
Q 13.765625 71.78125 18.9375 73 
Q 24.125 74.21875 28.421875 74.21875 
Q 39.75 74.21875 46.484375 68.546875 
Q 53.21875 62.890625 53.21875 53.421875 
Q 53.21875 48.921875 51.53125 44.890625 
Q 49.859375 40.875 45.40625 35.40625 
Q 44.1875 33.984375 37.640625 27.21875 
Q 31.109375 20.453125 19.1875 8.296875 
" id="DejaVuSans-32"/>
    </defs>
    <g transform="translate(227.7026 271.48976)scale(0.2 -0.2)">
     <use xlink:href="#DejaVuSans-7b"/>
     <use x="63.623047" xlink:href="#DejaVuSans-66"/>
     <use x="98.828125" xlink:href="#DejaVuSans-31"/>
     <use x="162.451172" xlink:href="#DejaVuSans-2d"/>
     <use x="198.535156" xlink:href="#DejaVuSans-66"/>
     <use x="233.740234" xlink:href="#DejaVuSans-35"/>
     <use x="297.363281" xlink:href="#DejaVuSans-7d"/>
     <use x="360.986328" xlink:href="#DejaVuSans-2c"/>
     <use x="392.773438" xlink:href="#DejaVuSans-20"/>
     <use x="424.560547" xlink:href="#DejaVuSans-32"/>
     <use x="488.183594" xlink:href="#DejaVuSans-30"/>
     <use x="551.806641" xlink:href="#DejaVuSans-2d"/>
     <use x="587.890625" xlink:href="#DejaVuSans-44"/>
    </g>
   </g>
   <g id="text_7">
    <!-- v2.1 -->
    <defs>
     <path d="M 2.984375 54.6875 
L 12.5 54.6875 
L 29.59375 8.796875 
L 46.6875 54.6875 
L 56.203125 54.6875 
L 35.6875 0 
L 23.484375 0 
z
" id="DejaVuSans-76"/>
     <path d="M 10.6875 12.40625 
L 21 12.40625 
L 21 0 
L 10.6875 0 
z
" id="DejaVuSans-2e"/>
    </defs>
    <g style="fill:#808080;" transform="translate(178.349063 272.071193)scale(0.1 -0.1)">
     <use xlink:href="#DejaVuSans-76"/>
     <use x="59.179688" xlink:href="#DejaVuSans-32"/>
     <use x="122.802734" xlink:href="#DejaVuSans-2e"/>
     <use x="154.589844" xlink:href="#DejaVuSans-31"/>
    </g>
   </g>
  </g>
 </g>
 <defs>
  <clipPath id="p90d08e0d14">
   <rect height="266.112" width="357.12" x="10.7" y="10.7"/>
  </clipPath>
 </defs>
</svg>
