<?xml version="1.0" encoding="utf-8" standalone="no"?>
<!DOCTYPE svg PUBLIC "-//W3C//DTD SVG 1.1//EN"
  "http://www.w3.org/Graphics/SVG/1.1/DTD/svg11.dtd">
<!-- Created with matplotlib (http://matplotlib.org/) -->
<svg height="335pt" version="1.1" viewBox="0 0 437 335" width="437pt" xmlns="http://www.w3.org/2000/svg" xmlns:xlink="http://www.w3.org/1999/xlink">
 <defs>
  <style type="text/css">
*{stroke-linecap:butt;stroke-linejoin:round;}
  </style>
 </defs>
 <g id="figure_1">
  <g id="patch_1">
   <path d="M 0 335.188165 
L 437.1825 335.188165 
L 437.1825 0 
L 0 0 
z
" style="fill:#ffffff;"/>
  </g>
  <g id="axes_1">
   <g id="patch_2">
    <path d="M 69.3625 278.275665 
L 426.4825 278.275665 
L 426.4825 12.163665 
L 69.3625 12.163665 
z
" style="fill:#ffffff;"/>
   </g>
   <g id="line2d_1">
    <path clip-path="url(#p15fef06bec)" d="M 189.058124 278.275665 
L 189.058124 274.762636 
L 189.058124 274.762636 
L 189.058124 271.249606 
L 189.058124 271.249606 
L 189.058124 267.736576 
L 189.058124 267.736576 
L 189.058124 264.223546 
L 189.058124 264.223546 
L 189.058124 260.710517 
L 189.058124 260.710517 
L 189.058124 257.197487 
L 189.058124 257.197487 
L 189.058124 253.684457 
L 189.058124 253.684457 
L 189.058124 250.171428 
L 189.058124 250.171428 
L 189.058124 246.658398 
L 189.058124 246.658398 
L 189.058124 243.145368 
L 189.058124 243.145368 
L 189.058124 239.632338 
L 189.058124 239.632338 
L 189.058124 236.119309 
L 189.058124 236.119309 
L 189.058124 232.606279 
L 189.058124 232.606279 
L 189.058124 229.093249 
L 189.058124 229.093249 
L 189.058124 225.58022 
L 193.923147 225.58022 
L 193.923147 222.06719 
L 196.159959 222.06719 
L 196.159959 218.55416 
L 196.159959 218.55416 
L 196.159959 215.041131 
L 198.28394 215.041131 
L 198.28394 211.528101 
L 198.28394 211.528101 
L 198.28394 208.015071 
L 198.28394 208.015071 
L 198.28394 204.502041 
L 198.28394 204.502041 
L 198.28394 200.989012 
L 200.305931 200.989012 
L 200.305931 197.475982 
L 200.305931 197.475982 
L 200.305931 193.962952 
L 200.305931 193.962952 
L 200.305931 190.449923 
L 202.235278 190.449923 
L 202.235278 186.936893 
L 202.235278 186.936893 
L 202.235278 183.423863 
L 202.235278 183.423863 
L 202.235278 179.910834 
L 202.235278 179.910834 
L 202.235278 176.397804 
L 204.080101 176.397804 
L 204.080101 172.884774 
L 329.21504 172.884774 
L 329.21504 169.371744 
L 329.948587 169.371744 
L 329.948587 165.858715 
L 330.490482 165.858715 
L 330.490482 162.345685 
L 330.758837 162.345685 
L 330.758837 158.832655 
L 331.025493 158.832655 
L 331.025493 155.319626 
L 331.989037 155.319626 
L 331.989037 151.806596 
L 359.892432 151.806596 
L 359.892432 148.293566 
L 360.248099 148.293566 
L 360.248099 144.780537 
L 360.600788 144.780537 
L 360.600788 141.267507 
L 376.32804 141.267507 
L 376.32804 137.754477 
L 378.161266 137.754477 
L 378.161266 134.241447 
L 378.212214 134.241447 
L 378.212214 130.728418 
L 387.792369 130.728418 
L 387.792369 127.215388 
L 387.792369 127.215388 
L 387.792369 127.215388 
L 426.4825 127.215388 
" style="fill:none;stroke:#f5deb3;stroke-linecap:square;stroke-width:1.5;"/>
   </g>
   <g id="line2d_2">
    <path clip-path="url(#p15fef06bec)" d="M 327.433675 278.275665 
L 327.433675 267.736576 
L 327.433675 267.736576 
L 327.433675 257.197487 
L 327.43827 257.197487 
L 327.43827 246.658398 
L 327.43827 246.658398 
L 327.43827 236.119309 
L 327.43827 236.119309 
L 327.43827 225.58022 
L 411.727325 225.58022 
L 411.727325 215.041131 
L 416.140663 215.041131 
L 416.140663 204.502041 
L 419.360548 204.502041 
L 419.360548 193.962952 
L 425.503605 193.962952 
L 425.503605 183.423863 
L 425.503605 183.423863 
L 425.503605 183.423863 
L 426.4825 183.423863 
" style="fill:none;stroke:#f5deb3;stroke-linecap:square;stroke-width:1.5;"/>
   </g>
   <g id="line2d_3">
    <path clip-path="url(#p15fef06bec)" d="M 172.771928 278.275665 
L 172.771928 274.762636 
L 172.771928 274.762636 
L 172.771928 271.249606 
L 172.771928 271.249606 
L 172.771928 267.736576 
L 172.771928 267.736576 
L 172.771928 264.223546 
L 172.9523 264.223546 
L 172.9523 260.710517 
L 173.131902 260.710517 
L 173.131902 257.197487 
L 173.131902 257.197487 
L 173.131902 253.684457 
L 173.131902 253.684457 
L 173.131902 250.171428 
L 173.131902 250.171428 
L 173.131902 246.658398 
L 173.131902 246.658398 
L 173.131902 243.145368 
L 173.131902 243.145368 
L 173.131902 239.632338 
L 173.131902 239.632338 
L 173.131902 236.119309 
L 173.131902 236.119309 
L 173.131902 232.606279 
L 173.131902 232.606279 
L 173.131902 229.093249 
L 173.310742 229.093249 
L 173.310742 225.58022 
L 173.488826 225.58022 
L 173.488826 222.06719 
L 173.84275 222.06719 
L 173.84275 218.55416 
L 175.569086 218.55416 
L 175.569086 215.041131 
L 176.240283 215.041131 
L 176.240283 211.528101 
L 177.551415 211.528101 
L 177.551415 208.015071 
L 177.551415 208.015071 
L 177.551415 204.502041 
L 178.032754 204.502041 
L 178.032754 200.989012 
L 178.191986 200.989012 
L 178.191986 197.475982 
L 178.350618 197.475982 
L 178.350618 193.962952 
L 179.134937 193.962952 
L 179.134937 190.449923 
L 179.290063 190.449923 
L 179.290063 186.936893 
L 179.752042 186.936893 
L 179.752042 183.423863 
L 181.108333 183.423863 
L 181.108333 179.910834 
L 183.416676 179.910834 
L 183.416676 176.397804 
L 185.203297 176.397804 
L 185.203297 172.884774 
L 185.203297 172.884774 
L 185.203297 172.884774 
L 426.4825 172.884774 
" style="fill:none;stroke:#f5deb3;stroke-linecap:square;stroke-width:1.5;"/>
   </g>
   <g id="line2d_4">
    <path clip-path="url(#p15fef06bec)" d="M 142.294141 278.275665 
L 142.294141 274.762636 
L 143.03305 274.762636 
L 143.03305 271.249606 
L 144.11766 271.249606 
L 144.11766 267.736576 
L 145.521681 267.736576 
L 145.521681 264.223546 
L 146.880402 264.223546 
L 146.880402 260.710517 
L 151.617605 260.710517 
L 151.617605 257.197487 
L 151.617605 257.197487 
L 151.617605 253.684457 
L 151.915251 253.684457 
L 151.915251 250.171428 
L 153.941876 250.171428 
L 153.941876 246.658398 
L 153.941876 246.658398 
L 153.941876 243.145368 
L 156.411968 243.145368 
L 156.411968 239.632338 
L 159.246578 239.632338 
L 159.246578 236.119309 
L 159.742074 236.119309 
L 159.742074 232.606279 
L 160.715914 232.606279 
L 160.715914 229.093249 
L 177.551415 229.093249 
L 177.551415 225.58022 
L 254.076705 225.58022 
L 254.076705 222.06719 
L 255.973944 222.06719 
L 255.973944 218.55416 
L 256.248809 218.55416 
L 256.248809 215.041131 
L 256.571354 215.041131 
L 256.571354 211.528101 
L 257.038366 211.528101 
L 257.038366 208.015071 
L 258.12422 208.015071 
L 258.12422 204.502041 
L 258.266908 204.502041 
L 258.266908 200.989012 
L 258.338071 200.989012 
L 258.338071 197.475982 
L 258.409114 197.475982 
L 258.409114 193.962952 
L 258.668585 193.962952 
L 258.668585 190.449923 
L 258.809444 190.449923 
L 258.809444 186.936893 
L 258.856292 186.936893 
L 258.856292 183.423863 
L 259.919668 183.423863 
L 259.919668 179.910834 
L 260.101893 179.910834 
L 260.101893 176.397804 
L 260.305959 176.397804 
L 260.305959 172.884774 
L 352.281625 172.884774 
L 352.281625 169.371744 
L 352.284172 169.371744 
L 352.284172 165.858715 
L 352.785477 165.858715 
L 352.785477 162.345685 
L 353.644955 162.345685 
L 353.644955 158.832655 
L 354.07919 158.832655 
L 354.07919 155.319626 
L 354.499328 155.319626 
L 354.499328 151.806596 
L 354.537974 151.806596 
L 354.537974 148.293566 
L 354.646476 148.293566 
L 354.646476 144.780537 
L 354.675363 144.780537 
L 354.675363 141.267507 
L 354.737882 141.267507 
L 354.737882 137.754477 
L 354.814703 137.754477 
L 354.814703 134.241447 
L 355.386432 134.241447 
L 355.386432 130.728418 
L 355.814877 130.728418 
L 355.814877 127.215388 
L 356.183321 127.215388 
L 356.183321 123.702358 
L 357.183635 123.702358 
L 357.183635 120.189329 
L 357.183635 120.189329 
L 357.183635 120.189329 
L 426.4825 120.189329 
" style="fill:none;stroke:#f5deb3;stroke-linecap:square;stroke-width:1.5;"/>
   </g>
   <g id="line2d_5">
    <path clip-path="url(#p15fef06bec)" d="M 219.461539 278.275665 
L 219.461539 274.762636 
L 219.461539 274.762636 
L 219.461539 271.249606 
L 222.399097 271.249606 
L 222.399097 267.736576 
L 223.605647 267.736576 
L 223.605647 264.223546 
L 225.197148 264.223546 
L 225.197148 260.710517 
L 233.401914 260.710517 
L 233.401914 257.197487 
L 237.598734 257.197487 
L 237.598734 253.684457 
L 237.637498 253.684457 
L 237.637498 250.171428 
L 237.869334 250.171428 
L 237.869334 246.658398 
L 239.642534 246.658398 
L 239.642534 243.145368 
L 242.602437 243.145368 
L 242.602437 239.632338 
L 246.732264 239.632338 
L 246.732264 236.119309 
L 249.889114 236.119309 
L 249.889114 232.606279 
L 250.206542 232.606279 
L 250.206542 229.093249 
L 253.548919 229.093249 
L 253.548919 225.58022 
L 264.315998 225.58022 
L 264.315998 222.06719 
L 267.617472 222.06719 
L 267.617472 218.55416 
L 267.788254 218.55416 
L 267.788254 215.041131 
L 267.977203 215.041131 
L 267.977203 211.528101 
L 268.090167 211.528101 
L 268.090167 208.015071 
L 268.202829 208.015071 
L 268.202829 204.502041 
L 268.202829 204.502041 
L 268.202829 200.989012 
L 268.333888 200.989012 
L 268.333888 197.475982 
L 268.613363 197.475982 
L 268.613363 193.962952 
L 268.743153 193.962952 
L 268.743153 190.449923 
L 268.927875 190.449923 
L 268.927875 186.936893 
L 269.857561 186.936893 
L 269.857561 183.423863 
L 269.893605 183.423863 
L 269.893605 179.910834 
L 270.252352 179.910834 
L 270.252352 176.397804 
L 271.013465 176.397804 
L 271.013465 172.884774 
L 438.1825 172.884774 
" style="fill:none;stroke:#f5deb3;stroke-linecap:square;stroke-width:1.5;"/>
   </g>
   <g id="line2d_6"/>
   <g id="line2d_7">
    <path clip-path="url(#p15fef06bec)" d="M 171.858298 278.275665 
L 171.858298 274.762636 
L 180.510923 274.762636 
L 180.510923 271.249606 
L 181.256371 271.249606 
L 181.256371 267.736576 
L 181.843373 267.736576 
L 181.843373 264.223546 
L 181.988854 264.223546 
L 181.988854 260.710517 
L 182.422306 260.710517 
L 182.422306 257.197487 
L 183.134957 257.197487 
L 183.134957 253.684457 
L 183.134957 253.684457 
L 183.134957 250.171428 
L 183.416676 250.171428 
L 183.416676 246.658398 
L 187.174798 246.658398 
L 187.174798 243.145368 
L 188.439659 243.145368 
L 188.439659 239.632338 
L 189.546439 239.632338 
L 189.546439 236.119309 
L 190.624878 236.119309 
L 190.624878 232.606279 
L 196.572871 232.606279 
L 196.572871 229.093249 
L 196.572871 229.093249 
L 196.572871 225.58022 
L 275.169303 225.58022 
L 275.169303 222.06719 
L 275.690537 222.06719 
L 275.690537 218.55416 
L 276.744672 218.55416 
L 276.744672 215.041131 
L 277.004135 215.041131 
L 277.004135 211.528101 
L 277.125684 211.528101 
L 277.125684 208.015071 
L 277.322456 208.015071 
L 277.322456 204.502041 
L 277.428031 204.502041 
L 277.428031 200.989012 
L 277.698299 200.989012 
L 277.698299 197.475982 
L 277.713263 197.475982 
L 277.713263 193.962952 
L 278.337006 193.962952 
L 278.337006 190.449923 
L 278.747761 190.449923 
L 278.747761 186.936893 
L 279.140088 186.936893 
L 279.140088 183.423863 
L 280.16877 183.423863 
L 280.16877 179.910834 
L 280.548139 179.910834 
L 280.548139 176.397804 
L 280.743512 176.397804 
L 280.743512 172.884774 
L 361.784001 172.884774 
L 361.784001 169.371744 
L 362.162403 169.371744 
L 362.162403 165.858715 
L 363.596201 165.858715 
L 363.596201 162.345685 
L 363.88145 162.345685 
L 363.88145 158.832655 
L 364.308605 158.832655 
L 364.308605 155.319626 
L 364.541516 155.319626 
L 364.541516 151.806596 
L 364.684062 151.806596 
L 364.684062 148.293566 
L 365.123853 148.293566 
L 365.123853 144.780537 
L 366.177104 144.780537 
L 366.177104 141.267507 
L 366.541785 141.267507 
L 366.541785 137.754477 
L 368.525888 137.754477 
L 368.525888 134.241447 
L 420.47346 134.241447 
L 420.47346 130.728418 
L 420.510274 130.728418 
L 420.510274 127.215388 
L 422.855747 127.215388 
L 422.855747 123.702358 
L 424.108022 123.702358 
L 424.108022 120.189329 
L 438.1825 120.189329 
" style="fill:none;stroke:#f5deb3;stroke-linecap:square;stroke-width:1.5;"/>
   </g>
   <g id="line2d_8">
    <path clip-path="url(#p15fef06bec)" d="M 340.593681 278.275665 
L 340.593681 274.762636 
L 341.904349 274.762636 
L 341.907608 267.736576 
L 342.138331 267.736576 
L 342.138331 264.223546 
L 343.575118 264.223546 
L 343.575118 260.710517 
L 344.221598 260.710517 
L 344.221598 257.197487 
L 345.392638 257.197487 
L 345.392638 253.684457 
L 345.745132 253.684457 
L 345.745132 250.171428 
L 346.100599 250.171428 
L 346.100599 246.658398 
L 346.782346 246.658398 
L 346.782346 243.145368 
L 348.766543 243.145368 
L 348.766543 239.632338 
L 349.532048 239.632338 
L 349.532048 236.119309 
L 350.576662 236.119309 
L 350.576662 232.606279 
L 350.891115 232.606279 
L 350.891115 229.093249 
L 354.088952 229.093249 
L 354.088952 225.58022 
L 438.1825 225.58022 
L 438.1825 225.58022 
" style="fill:none;stroke:#f5deb3;stroke-linecap:square;stroke-width:1.5;"/>
   </g>
   <g id="line2d_9">
    <path clip-path="url(#p15fef06bec)" d="M 167.584737 278.275665 
L 167.584737 274.762636 
L 168.992109 274.762636 
L 168.992109 271.249606 
L 171.673169 271.249606 
L 171.673169 267.736576 
L 172.408851 267.736576 
L 172.408851 264.223546 
L 172.590781 264.223546 
L 172.590781 260.710517 
L 173.131902 260.710517 
L 173.131902 257.197487 
L 174.193724 257.197487 
L 174.193724 253.684457 
L 174.368121 253.684457 
L 174.368121 250.171428 
L 175.399602 250.171428 
L 175.399602 246.658398 
L 178.6661 246.658398 
L 178.6661 243.145368 
L 179.44462 243.145368 
L 179.44462 239.632338 
L 182.422306 239.632338 
L 182.422306 236.119309 
L 183.416676 236.119309 
L 183.416676 232.606279 
L 185.203297 232.606279 
L 185.203297 229.093249 
L 186.658022 229.093249 
L 186.658022 225.58022 
L 272.512562 225.58022 
L 272.512562 222.06719 
L 274.721929 222.06719 
L 274.721929 218.55416 
L 274.994115 218.55416 
L 274.994115 215.041131 
L 275.391221 215.041131 
L 275.391221 211.528101 
L 275.564768 211.528101 
L 275.564768 208.015071 
L 276.267381 208.015071 
L 276.267381 204.502041 
L 276.313807 204.502041 
L 276.313807 200.989012 
L 276.714042 200.989012 
L 276.714042 197.475982 
L 277.034555 197.475982 
L 277.034555 193.962952 
L 277.458146 193.962952 
L 277.458146 190.449923 
L 277.668355 190.449923 
L 277.668355 186.936893 
L 278.026289 186.936893 
L 278.026289 183.423863 
L 278.572213 183.423863 
L 278.572213 179.910834 
L 278.630811 179.910834 
L 278.630811 176.397804 
L 281.228015 176.397804 
L 281.228015 172.884774 
L 357.522359 172.884774 
L 357.522359 169.371744 
L 357.574056 169.371744 
L 357.574056 165.858715 
L 358.583938 165.858715 
L 358.583938 162.345685 
L 358.700014 162.345685 
L 358.700014 158.832655 
L 358.798318 158.832655 
L 358.798318 155.319626 
L 359.325231 155.319626 
L 359.325231 151.806596 
L 359.357541 151.806596 
L 359.357541 148.293566 
L 359.779601 148.293566 
L 359.779601 144.780537 
L 359.856274 144.780537 
L 359.856274 141.267507 
L 360.08969 141.267507 
L 360.08969 137.754477 
L 361.095429 137.754477 
L 361.095429 134.241447 
L 361.132604 134.241447 
L 361.132604 130.728418 
L 361.274803 130.728418 
L 361.274803 127.215388 
L 361.537328 127.215388 
L 361.537328 123.702358 
L 361.698543 123.702358 
L 361.698543 120.189329 
L 361.698543 120.189329 
L 361.698543 120.189329 
L 426.4825 120.189329 
" style="fill:none;stroke:#f5deb3;stroke-linecap:square;stroke-width:1.5;"/>
   </g>
   <g id="line2d_10">
    <path clip-path="url(#p15fef06bec)" d="M 199.547051 278.275665 
L 199.547051 274.762636 
L 200.86625 274.762636 
L 200.86625 271.249606 
L 206.663736 271.249606 
L 206.663736 267.736576 
L 206.663736 267.736576 
L 206.663736 264.223546 
L 209.779145 264.223546 
L 209.779145 260.710517 
L 214.664639 260.710517 
L 214.664639 257.197487 
L 218.004908 257.197487 
L 218.004908 253.684457 
L 332.35038 253.684457 
L 332.35038 250.171428 
L 332.452471 250.171428 
L 332.452471 246.658398 
L 332.603114 246.658398 
L 332.603114 243.145368 
L 332.761318 243.145368 
L 332.761318 239.632338 
L 332.773463 239.632338 
L 332.773463 236.119309 
L 333.332373 236.119309 
L 333.332373 232.606279 
L 333.801092 232.606279 
L 333.801092 229.093249 
L 361.469802 229.093249 
L 361.469802 225.58022 
L 438.1825 225.58022 
" style="fill:none;stroke:#f5deb3;stroke-linecap:square;stroke-width:1.5;"/>
   </g>
   <g id="line2d_11">
    <path clip-path="url(#p15fef06bec)" d="M 135.427448 278.275665 
L 135.427448 274.762636 
L 141.919768 274.762636 
L 141.919768 271.249606 
L 143.03305 271.249606 
L 143.03305 267.736576 
L 143.759218 267.736576 
L 143.759218 264.223546 
L 144.825521 264.223546 
L 144.825521 260.710517 
L 145.865493 260.710517 
L 145.865493 257.197487 
L 148.519392 257.197487 
L 148.519392 253.684457 
L 151.317841 253.684457 
L 151.317841 250.171428 
L 151.617605 250.171428 
L 151.617605 246.658398 
L 153.372722 246.658398 
L 153.372722 243.145368 
L 156.941745 243.145368 
L 156.941745 239.632338 
L 160.715914 239.632338 
L 160.715914 236.119309 
L 160.955896 236.119309 
L 160.955896 232.606279 
L 168.193664 232.606279 
L 168.193664 229.093249 
L 174.368121 229.093249 
L 174.368121 225.58022 
L 246.669776 225.58022 
L 246.669776 222.06719 
L 247.259699 222.06719 
L 247.259699 218.55416 
L 248.234949 218.55416 
L 248.234949 215.041131 
L 248.325231 215.041131 
L 248.325231 211.528101 
L 249.393789 211.528101 
L 249.393789 208.015071 
L 249.627609 208.015071 
L 249.627609 204.502041 
L 250.493051 204.502041 
L 250.493051 200.989012 
L 250.890918 200.989012 
L 250.890918 197.475982 
L 250.975688 197.475982 
L 250.975688 193.962952 
L 251.814138 193.962952 
L 251.814138 190.449923 
L 252.117434 190.449923 
L 252.117434 186.936893 
L 252.33665 186.936893 
L 252.33665 183.423863 
L 252.933675 183.423863 
L 252.933675 179.910834 
L 253.655007 179.910834 
L 253.655007 176.397804 
L 254.39023 176.397804 
L 254.39023 172.884774 
L 254.39023 172.884774 
L 254.39023 172.884774 
L 426.4825 172.884774 
" style="fill:none;stroke:#f5deb3;stroke-linecap:square;stroke-width:1.5;"/>
   </g>
   <g id="line2d_12">
    <path clip-path="url(#p15fef06bec)" d="M 101.60149 278.275665 
L 101.60149 274.762636 
L 101.60149 274.762636 
L 101.60149 271.249606 
L 101.60149 271.249606 
L 101.60149 267.736576 
L 101.60149 267.736576 
L 101.60149 264.223546 
L 101.60149 264.223546 
L 101.60149 260.710517 
L 101.60149 260.710517 
L 101.60149 257.197487 
L 101.60149 257.197487 
L 101.60149 253.684457 
L 101.60149 253.684457 
L 101.60149 250.171428 
L 101.60149 250.171428 
L 101.60149 246.658398 
L 101.60149 246.658398 
L 101.60149 243.145368 
L 101.60149 243.145368 
L 101.60149 239.632338 
L 101.60149 239.632338 
L 101.60149 236.119309 
L 101.60149 236.119309 
L 101.60149 232.606279 
L 101.60149 232.606279 
L 101.60149 229.093249 
L 101.60149 229.093249 
L 101.60149 225.58022 
L 130.301973 225.58022 
L 130.301973 222.06719 
L 139.600831 222.06719 
L 139.600831 218.55416 
L 139.600831 218.55416 
L 139.600831 215.041131 
L 139.600831 215.041131 
L 139.600831 211.528101 
L 139.600831 211.528101 
L 139.600831 208.015071 
L 139.600831 208.015071 
L 139.600831 204.502041 
L 139.600831 204.502041 
L 139.600831 200.989012 
L 139.600831 200.989012 
L 139.600831 197.475982 
L 139.600831 197.475982 
L 139.600831 193.962952 
L 139.600831 193.962952 
L 139.600831 190.449923 
L 147.213343 190.449923 
L 147.213343 186.936893 
L 147.213343 186.936893 
L 147.213343 183.423863 
L 147.213343 183.423863 
L 147.213343 179.910834 
L 147.213343 179.910834 
L 147.213343 176.397804 
L 159.246578 176.397804 
L 159.246578 172.884774 
L 325.817836 172.884774 
L 325.817836 169.371744 
L 327.295602 169.371744 
L 327.295602 165.858715 
L 329.648853 165.858715 
L 329.648853 162.345685 
L 335.192029 162.345685 
L 335.192029 158.832655 
L 335.29128 158.832655 
L 335.29128 155.319626 
L 335.930772 155.319626 
L 335.930772 151.806596 
L 336.774733 151.806596 
L 336.774733 148.293566 
L 336.943714 148.293566 
L 336.943714 144.780537 
L 337.174051 144.780537 
L 337.174051 141.267507 
L 337.388626 141.267507 
L 337.388626 137.754477 
L 337.555167 137.754477 
L 337.555167 134.241447 
L 337.630978 134.241447 
L 337.630978 130.728418 
L 337.706653 130.728418 
L 337.706653 127.215388 
L 337.782193 127.215388 
L 337.782193 123.702358 
L 340.485965 123.702358 
L 340.485965 120.189329 
L 340.485965 120.189329 
L 340.485965 120.189329 
L 426.4825 120.189329 
" style="fill:none;stroke:#f5deb3;stroke-linecap:square;stroke-width:1.5;"/>
   </g>
   <g id="line2d_13">
    <path clip-path="url(#p15fef06bec)" d="M 260.215385 278.275665 
L 260.215385 274.762636 
L 260.215385 274.762636 
L 260.215385 271.249606 
L 260.889987 271.249606 
L 260.889987 267.736576 
L 260.889987 267.736576 
L 260.889987 264.223546 
L 261.903834 264.223546 
L 261.903834 260.710517 
L 262.012578 260.710517 
L 262.012578 257.197487 
L 262.012578 257.197487 
L 262.012578 253.684457 
L 262.012578 253.684457 
L 262.012578 250.171428 
L 262.594995 250.171428 
L 262.594995 246.658398 
L 264.315998 246.658398 
L 264.315998 243.145368 
L 264.315998 243.145368 
L 264.315998 239.632338 
L 264.315998 239.632338 
L 264.315998 236.119309 
L 264.398177 236.119309 
L 264.398177 232.606279 
L 264.398177 232.606279 
L 264.398177 229.093249 
L 264.398177 229.093249 
L 264.398177 225.58022 
L 264.398177 225.58022 
L 264.398177 225.58022 
L 426.4825 225.58022 
" style="fill:none;stroke:#f5deb3;stroke-linecap:square;stroke-width:1.5;"/>
   </g>
   <g id="line2d_14">
    <path clip-path="url(#p15fef06bec)" d="M 157.204155 278.275665 
L 157.204155 274.762636 
L 158.492228 274.762636 
L 158.492228 271.249606 
L 159.246578 271.249606 
L 159.246578 267.736576 
L 160.231809 267.736576 
L 160.231809 264.223546 
L 160.474557 264.223546 
L 160.474557 260.710517 
L 160.474557 260.710517 
L 160.474557 257.197487 
L 160.715914 257.197487 
L 160.715914 253.684457 
L 160.955896 253.684457 
L 160.955896 250.171428 
L 161.431796 250.171428 
L 161.431796 246.658398 
L 161.431796 246.658398 
L 161.431796 243.145368 
L 161.431796 243.145368 
L 161.431796 239.632338 
L 161.431796 239.632338 
L 161.431796 236.119309 
L 161.667745 236.119309 
L 161.667745 232.606279 
L 161.902379 232.606279 
L 161.902379 229.093249 
L 161.902379 229.093249 
L 161.902379 225.58022 
L 221.156959 225.58022 
L 221.156959 222.06719 
L 222.00783 222.06719 
L 222.00783 218.55416 
L 223.225481 218.55416 
L 223.225481 215.041131 
L 223.659678 215.041131 
L 223.659678 211.528101 
L 224.035962 211.528101 
L 224.035962 208.015071 
L 226.021982 208.015071 
L 226.021982 204.502041 
L 226.174856 204.502041 
L 226.174856 200.989012 
L 226.276464 200.989012 
L 226.276464 197.475982 
L 226.680465 197.475982 
L 226.680465 193.962952 
L 227.279291 193.962952 
L 227.279291 190.449923 
L 227.427676 190.449923 
L 227.427676 186.936893 
L 227.52631 186.936893 
L 227.52631 183.423863 
L 228.548256 183.423863 
L 228.548256 179.910834 
L 228.835743 179.910834 
L 228.835743 176.397804 
L 229.026317 176.397804 
L 229.026317 172.884774 
L 236.379015 172.884774 
L 236.379015 169.371744 
L 238.897086 169.371744 
L 238.897086 165.858715 
L 239.19685 165.858715 
L 239.19685 162.345685 
L 240.411309 162.345685 
L 240.411309 158.832655 
L 240.736536 158.832655 
L 240.736536 155.319626 
L 241.130655 155.319626 
L 241.130655 151.806596 
L 241.802839 151.806596 
L 241.802839 148.293566 
L 242.533506 148.293566 
L 242.533506 144.780537 
L 242.84281 144.780537 
L 242.84281 141.267507 
L 244.520989 141.267507 
L 244.520989 137.754477 
L 249.744034 137.754477 
L 249.744034 134.241447 
L 251.73104 134.241447 
L 251.73104 130.728418 
L 254.701439 130.728418 
L 254.701439 127.215388 
L 438.1825 127.215388 
" style="fill:none;stroke:#f5deb3;stroke-linecap:square;stroke-width:1.5;"/>
   </g>
   <g id="line2d_15"/>
   <g id="line2d_16">
    <path clip-path="url(#p15fef06bec)" d="M 269.075072 278.275665 
L 269.075072 274.762636 
L 269.422617 274.762636 
L 269.422617 271.249606 
L 270.216615 271.249606 
L 270.216615 267.736576 
L 270.572633 267.736576 
L 270.572633 264.223546 
L 273.714071 264.223546 
L 273.714071 260.710517 
L 276.37563 260.710517 
L 276.37563 257.197487 
L 278.070818 257.197487 
L 278.070818 253.684457 
L 279.370865 253.684457 
L 279.370865 250.171428 
L 279.999058 250.171428 
L 279.999058 246.658398 
L 280.211091 246.658398 
L 280.211091 243.145368 
L 281.007219 243.145368 
L 281.007219 239.632338 
L 281.310516 239.632338 
L 281.310516 236.119309 
L 284.036392 236.119309 
L 284.036392 232.606279 
L 284.865112 232.606279 
L 284.865112 229.093249 
L 293.17875 229.093249 
L 293.17875 225.58022 
L 340.249373 225.58022 
L 340.249373 222.06719 
L 340.788215 222.06719 
L 340.788215 218.55416 
L 343.270208 218.55416 
L 343.270208 215.041131 
L 344.029933 215.041131 
L 344.029933 211.528101 
L 344.206174 211.528101 
L 344.206174 208.015071 
L 344.712224 208.015071 
L 344.712224 204.502041 
L 345.652813 204.502041 
L 345.652813 200.989012 
L 346.569936 200.989012 
L 346.569936 197.475982 
L 347.310164 197.475982 
L 347.310164 193.962952 
L 347.842771 193.962952 
L 347.842771 190.449923 
L 349.827377 190.449923 
L 349.827377 186.936893 
L 350.491701 186.936893 
L 350.491701 183.423863 
L 351.686507 183.423863 
L 351.686507 179.910834 
L 352.291812 179.910834 
L 352.291812 176.397804 
L 352.418946 176.397804 
L 352.418946 172.884774 
L 359.184931 172.884774 
L 359.184931 169.371744 
L 359.909436 169.371744 
L 359.909436 165.858715 
L 361.025121 165.858715 
L 361.025121 162.345685 
L 361.420624 162.345685 
L 361.420624 158.832655 
L 361.806354 158.832655 
L 361.806354 155.319626 
L 361.980709 155.319626 
L 361.980709 151.806596 
L 362.120078 151.806596 
L 362.200661 144.780537 
L 362.597292 144.780537 
L 362.597292 141.267507 
L 363.067188 141.267507 
L 363.067188 137.754477 
L 363.625397 137.754477 
L 363.736156 130.728418 
L 364.408036 130.728418 
L 364.408036 127.215388 
L 364.583379 127.215388 
L 364.583379 123.702358 
L 365.195146 123.702358 
L 365.195146 120.189329 
L 368.570895 120.189329 
L 368.570895 116.676299 
L 402.065294 116.676299 
L 402.065294 113.163269 
L 405.915026 113.163269 
L 405.915026 109.650239 
L 412.540947 109.650239 
L 412.540947 106.13721 
L 413.896043 106.13721 
L 413.896043 102.62418 
L 427.016706 102.62418 
L 427.016706 99.11115 
L 438.1825 99.11115 
L 438.1825 99.11115 
" style="fill:none;stroke:#f5deb3;stroke-linecap:square;stroke-width:1.5;"/>
   </g>
   <g id="line2d_17">
    <path clip-path="url(#p15fef06bec)" d="M 289.532955 278.275665 
L 289.532955 274.762636 
L 294.404347 274.762636 
L 294.404347 271.249606 
L 294.404347 271.249606 
L 294.404347 267.736576 
L 294.504889 267.736576 
L 294.504889 264.223546 
L 296.581761 264.223546 
L 296.581761 260.710517 
L 306.786482 260.710517 
L 306.786482 257.197487 
L 311.420765 257.197487 
L 311.420765 253.684457 
L 314.58513 253.684457 
L 314.58513 250.171428 
L 315.856188 250.171428 
L 315.856188 246.658398 
L 316.109468 246.658398 
L 316.109468 243.145368 
L 321.560914 243.145368 
L 321.560914 239.632338 
L 323.552107 239.632338 
L 323.552107 236.119309 
L 326.188618 236.119309 
L 326.188618 232.606279 
L 334.241203 232.606279 
L 334.241203 229.093249 
L 338.083002 229.093249 
L 338.083002 225.58022 
L 438.1825 225.58022 
" style="fill:none;stroke:#f5deb3;stroke-linecap:square;stroke-width:1.5;"/>
   </g>
   <g id="line2d_18">
    <path clip-path="url(#p15fef06bec)" d="M 101.60149 278.275665 
L 101.60149 274.762636 
L 101.60149 274.762636 
L 101.60149 271.249606 
L 101.60149 271.249606 
L 101.60149 267.736576 
L 101.60149 267.736576 
L 101.60149 264.223546 
L 101.60149 264.223546 
L 101.60149 260.710517 
L 101.60149 260.710517 
L 101.60149 257.197487 
L 101.60149 257.197487 
L 101.60149 253.684457 
L 101.60149 253.684457 
L 101.60149 250.171428 
L 102.569733 250.171428 
L 102.569733 246.658398 
L 102.569733 246.658398 
L 102.569733 243.145368 
L 102.569733 243.145368 
L 102.569733 239.632338 
L 102.569733 239.632338 
L 102.569733 236.119309 
L 102.569733 236.119309 
L 102.569733 232.606279 
L 102.569733 232.606279 
L 102.569733 229.093249 
L 104.441895 229.093249 
L 104.441895 225.58022 
L 105.347666 225.58022 
L 105.347666 222.06719 
L 105.347666 222.06719 
L 105.347666 218.55416 
L 107.953655 218.55416 
L 107.953655 215.041131 
L 108.787676 215.041131 
L 108.787676 211.528101 
L 110.40775 211.528101 
L 110.40775 208.015071 
L 114.924579 208.015071 
L 114.924579 204.502041 
L 115.632439 204.502041 
L 115.632439 200.989012 
L 115.632439 200.989012 
L 115.632439 197.475982 
L 117.687321 197.475982 
L 117.687321 193.962952 
L 126.138911 193.962952 
L 126.138911 190.449923 
L 126.68236 190.449923 
L 126.68236 186.936893 
L 126.68236 186.936893 
L 126.68236 183.423863 
L 129.803544 183.423863 
L 129.803544 179.910834 
L 130.794572 179.910834 
L 130.794572 176.397804 
L 132.238715 176.397804 
L 132.238715 172.884774 
L 411.458211 172.884774 
L 411.458211 169.371744 
L 413.377978 169.371744 
L 413.377978 165.858715 
L 417.942942 165.858715 
L 417.942942 162.345685 
L 419.193411 162.345685 
L 419.193411 158.832655 
L 420.294987 158.832655 
L 420.294987 155.319626 
L 424.968324 155.319626 
L 424.968324 151.806596 
L 425.461946 151.806596 
L 425.461946 148.293566 
L 425.735333 148.293566 
L 425.735333 144.780537 
L 427.233834 144.780537 
L 427.233834 141.267507 
L 432.275842 141.267507 
L 432.275842 137.754477 
L 432.897198 137.754477 
L 432.897198 134.241447 
L 438.1825 134.241447 
" style="fill:none;stroke:#f5deb3;stroke-linecap:square;stroke-width:1.5;"/>
   </g>
   <g id="line2d_19">
    <path clip-path="url(#p15fef06bec)" d="M 328.481939 278.275665 
L 328.481939 274.762636 
L 333.808991 274.762636 
L 333.808991 271.249606 
L 336.379025 271.249606 
L 336.379025 267.736576 
L 337.566006 267.736576 
L 337.566006 264.223546 
L 338.723963 264.223546 
L 338.723963 260.710517 
L 339.717279 260.710517 
L 339.717279 257.197487 
L 343.868507 257.197487 
L 343.868507 253.684457 
L 343.874727 253.684457 
L 343.874727 250.171428 
L 345.840217 250.171428 
L 345.840217 246.658398 
L 346.764928 246.658398 
L 346.764928 243.145368 
L 346.785248 243.145368 
L 346.785248 239.632338 
L 346.791052 239.632338 
L 346.791052 236.119309 
L 346.796856 236.119309 
L 346.796856 232.606279 
L 348.547235 232.606279 
L 348.547235 229.093249 
L 356.764378 229.093249 
L 356.764378 225.58022 
L 422.019342 225.58022 
L 422.019342 222.06719 
L 422.46393 222.06719 
L 422.46393 218.55416 
L 423.093462 218.55416 
L 423.093462 215.041131 
L 423.114317 215.041131 
L 423.114317 211.528101 
L 423.571466 211.528101 
L 423.571466 208.015071 
L 424.145492 208.015071 
L 424.145492 204.502041 
L 424.308402 204.502041 
L 424.308402 200.989012 
L 424.740532 200.989012 
L 424.740532 197.475982 
L 425.021344 197.475982 
L 425.021344 193.962952 
L 425.585905 193.962952 
L 425.585905 190.449923 
L 425.740676 190.449923 
L 425.740676 186.936893 
L 425.905082 186.936893 
L 425.905082 183.423863 
L 426.047639 183.423863 
L 426.047639 179.910834 
L 426.300133 179.910834 
L 426.300133 176.397804 
L 428.092164 176.397804 
L 428.092164 172.884774 
L 438.1825 172.884774 
" style="fill:none;stroke:#f5deb3;stroke-linecap:square;stroke-width:1.5;"/>
   </g>
   <g id="line2d_20">
    <path clip-path="url(#p15fef06bec)" d="M 155.331993 278.275665 
L 155.331993 274.762636 
L 160.715914 274.762636 
L 160.715914 271.249606 
L 161.194518 271.249606 
L 161.194518 267.736576 
L 164.400598 267.736576 
L 164.400598 264.223546 
L 170.544975 264.223546 
L 170.544975 260.710517 
L 172.9523 260.710517 
L 172.9523 257.197487 
L 174.018603 257.197487 
L 174.018603 253.684457 
L 174.541798 253.684457 
L 174.541798 250.171428 
L 179.290063 250.171428 
L 179.290063 246.658398 
L 181.256371 246.658398 
L 181.256371 243.145368 
L 182.565804 243.145368 
L 182.565804 239.632338 
L 184.525074 239.632338 
L 184.525074 236.119309 
L 186.397236 236.119309 
L 186.397236 232.606279 
L 189.302989 232.606279 
L 189.302989 229.093249 
L 196.470022 229.093249 
L 196.470022 225.58022 
L 253.415933 225.58022 
L 253.415933 222.06719 
L 254.39023 222.06719 
L 254.39023 218.55416 
L 256.223895 218.55416 
L 256.223895 215.041131 
L 256.645438 215.041131 
L 256.645438 211.528101 
L 259.460626 211.528101 
L 259.460626 208.015071 
L 261.20114 208.015071 
L 261.20114 204.502041 
L 261.20114 204.502041 
L 261.20114 200.989012 
L 261.421994 200.989012 
L 261.421994 197.475982 
L 261.421994 197.475982 
L 261.421994 193.962952 
L 261.531988 193.962952 
L 261.531988 190.449923 
L 261.860257 190.449923 
L 261.860257 186.936893 
L 264.109846 186.936893 
L 264.109846 183.423863 
L 264.582495 183.423863 
L 264.582495 179.910834 
L 265.830787 179.910834 
L 265.830787 176.397804 
L 271.898704 176.397804 
L 271.898704 172.884774 
L 336.877672 172.884774 
L 336.877672 169.371744 
L 337.163111 169.371744 
L 337.163111 165.858715 
L 340.529758 165.858715 
L 340.529758 162.345685 
L 344.384752 162.345685 
L 344.384752 158.832655 
L 345.239372 158.832655 
L 345.239372 155.319626 
L 345.317577 155.319626 
L 345.317577 151.806596 
L 345.425623 151.806596 
L 345.425623 148.293566 
L 345.614038 148.293566 
L 345.614038 144.780537 
L 348.093912 144.780537 
L 348.093912 141.267507 
L 387.816477 141.267507 
L 387.816477 137.754477 
L 393.048415 137.754477 
L 393.048415 134.241447 
L 396.118011 134.241447 
L 396.118011 130.728418 
L 400.949313 130.728418 
L 400.949313 127.215388 
L 407.44106 127.215388 
L 407.44106 123.702358 
L 438.1825 123.702358 
" style="fill:none;stroke:#f5deb3;stroke-linecap:square;stroke-width:1.5;"/>
   </g>
   <g id="line2d_21">
    <path clip-path="url(#p15fef06bec)" d="M 313.358035 278.275665 
L 313.358035 274.762636 
L 313.358035 274.762636 
L 313.358035 274.762636 
L 313.364453 274.762636 
L 313.4542 246.658398 
L 313.486206 246.658398 
L 313.486206 243.145368 
L 313.823983 243.145368 
L 313.823983 239.632338 
L 314.441504 239.632338 
L 314.441504 236.119309 
L 318.282998 236.119309 
L 318.282998 232.606279 
L 319.548535 232.606279 
L 319.642626 127.215388 
L 319.775103 127.215388 
L 319.879686 81.546002 
L 319.896175 81.546002 
L 319.940116 53.441764 
L 320.771769 53.441764 
L 320.771769 49.928735 
L 321.002576 49.928735 
L 321.002576 46.415705 
L 321.205497 46.415705 
L 321.205497 42.902675 
L 322.809988 42.902675 
L 322.809988 39.389645 
L 327.32786 39.389645 
L 327.32786 35.876616 
L 327.32786 35.876616 
L 426.4825 35.876616 
L 426.4825 35.876616 
" style="fill:none;stroke:#f5deb3;stroke-linecap:square;stroke-width:1.5;"/>
   </g>
   <g id="line2d_22">
    <path clip-path="url(#p15fef06bec)" d="M 175.229433 278.275665 
L 175.229433 274.762636 
L 178.350618 274.762636 
L 178.350618 271.249606 
L 182.565804 271.249606 
L 182.565804 267.736576 
L 185.068523 267.736576 
L 185.068523 264.223546 
L 188.064173 264.223546 
L 188.064173 260.710517 
L 190.860826 260.710517 
L 190.860826 257.197487 
L 190.978307 257.197487 
L 190.978307 253.684457 
L 191.560843 253.684457 
L 191.560843 250.171428 
L 192.589525 250.171428 
L 192.589525 246.658398 
L 192.926911 246.658398 
L 192.926911 243.145368 
L 195.951974 243.145368 
L 195.951974 239.632338 
L 196.159959 239.632338 
L 196.159959 236.119309 
L 196.87992 236.119309 
L 196.87992 232.606279 
L 200.493534 232.606279 
L 200.493534 229.093249 
L 214.530722 229.093249 
L 214.530722 225.58022 
L 256.915969 225.58022 
L 256.915969 222.06719 
L 264.439206 222.06719 
L 264.439206 218.55416 
L 264.439206 218.55416 
L 264.439206 215.041131 
L 265.110484 215.041131 
L 265.110484 211.528101 
L 265.751359 211.528101 
L 265.751359 208.015071 
L 266.402204 208.015071 
L 266.402204 204.502041 
L 268.946303 204.502041 
L 268.946303 200.989012 
L 269.16681 200.989012 
L 269.16681 197.475982 
L 269.404397 197.475982 
L 269.404397 193.962952 
L 270.019514 193.962952 
L 270.019514 190.449923 
L 271.380231 190.449923 
L 271.380231 186.936893 
L 274.657629 186.936893 
L 274.657629 183.423863 
L 274.962185 183.423863 
L 274.962185 179.910834 
L 276.866972 179.910834 
L 276.866972 176.397804 
L 279.413995 176.397804 
L 279.413995 172.884774 
L 292.908437 172.884774 
L 292.908437 169.371744 
L 294.775157 169.371744 
L 294.775157 165.858715 
L 298.715771 165.858715 
L 298.715771 162.345685 
L 299.02359 162.345685 
L 299.02359 158.832655 
L 299.347083 158.832655 
L 299.347083 155.319626 
L 301.357183 155.319626 
L 301.357183 151.806596 
L 301.629398 151.806596 
L 301.629398 148.293566 
L 302.176978 148.293566 
L 302.176978 144.780537 
L 302.310682 144.780537 
L 302.310682 141.267507 
L 302.394032 141.267507 
L 302.394032 137.754477 
L 302.551944 137.754477 
L 302.551944 134.241447 
L 303.030361 134.241447 
L 303.030361 130.728418 
L 305.055939 130.728418 
L 305.055939 127.215388 
L 307.352816 127.215388 
L 307.352816 123.702358 
L 310.283235 123.702358 
L 310.283235 120.189329 
L 310.283235 120.189329 
L 310.283235 120.189329 
L 426.4825 120.189329 
" style="fill:none;stroke:#f5deb3;stroke-linecap:square;stroke-width:1.5;"/>
   </g>
   <g id="line2d_23">
    <path clip-path="url(#p15fef06bec)" d="M 218.128237 278.275665 
L 218.128237 274.762636 
L 225.30114 274.762636 
L 225.30114 271.249606 
L 226.830971 271.249606 
L 226.830971 267.736576 
L 227.575541 267.736576 
L 227.575541 264.223546 
L 228.835743 264.223546 
L 228.835743 260.710517 
L 230.84057 260.710517 
L 230.84057 257.197487 
L 232.448614 257.197487 
L 232.448614 253.684457 
L 241.837921 253.684457 
L 241.837921 250.171428 
L 362.045401 250.171428 
L 362.045401 246.658398 
L 364.166701 246.658398 
L 364.166701 243.145368 
L 364.253051 243.145368 
L 364.253051 239.632338 
L 364.884708 239.632338 
L 364.884708 236.119309 
L 365.958611 236.119309 
L 365.958611 232.606279 
L 366.111125 232.606279 
L 366.111125 229.093249 
L 367.245742 229.093249 
L 367.245742 225.58022 
L 367.279652 225.58022 
L 367.279652 222.06719 
L 367.555268 222.06719 
L 367.555268 218.55416 
L 367.702118 218.55416 
L 367.702118 215.041131 
L 368.178058 215.041131 
L 368.178058 211.528101 
L 368.501633 211.528101 
L 368.501633 208.015071 
L 370.729211 208.015071 
L 370.729211 204.502041 
L 372.2498 204.502041 
L 372.2498 200.989012 
L 381.09989 200.989012 
L 381.09989 197.475982 
L 382.35939 197.475982 
L 382.35939 193.962952 
L 383.294232 193.962952 
L 383.294232 190.449923 
L 383.764842 190.449923 
L 383.764842 186.936893 
L 384.642168 186.936893 
L 384.642168 183.423863 
L 386.472965 183.423863 
L 386.472965 179.910834 
L 386.523831 179.910834 
L 386.523831 176.397804 
L 387.671618 176.397804 
L 387.671618 172.884774 
L 387.671618 172.884774 
L 387.671618 172.884774 
L 426.4825 172.884774 
" style="fill:none;stroke:#f5deb3;stroke-linecap:square;stroke-width:1.5;"/>
   </g>
   <g id="line2d_24">
    <path clip-path="url(#p15fef06bec)" d="M 263.944195 278.275665 
L 263.944195 274.762636 
L 269.386168 274.762636 
L 269.386168 271.249606 
L 278.1153 271.249606 
L 278.1153 267.736576 
L 278.159734 267.736576 
L 278.159734 264.223546 
L 278.174536 264.223546 
L 278.174536 260.710517 
L 280.618019 260.710517 
L 280.618019 257.197487 
L 282.167157 257.197487 
L 282.167157 253.684457 
L 282.24784 253.684457 
L 282.24784 250.171428 
L 285.789145 250.171428 
L 285.789145 246.658398 
L 285.998589 246.658398 
L 285.998589 243.145368 
L 289.15838 243.145368 
L 289.15838 239.632338 
L 289.238114 239.632338 
L 289.238114 236.119309 
L 292.288522 236.119309 
L 292.288522 232.606279 
L 295.192158 232.606279 
L 295.192158 229.093249 
L 295.231658 229.093249 
L 295.231658 225.58022 
L 362.220783 225.58022 
L 362.220783 222.06719 
L 364.112882 222.06719 
L 364.112882 218.55416 
L 365.110708 218.55416 
L 365.110708 215.041131 
L 367.680919 215.041131 
L 367.680919 211.528101 
L 368.717701 211.528101 
L 368.717701 208.015071 
L 369.318559 208.015071 
L 369.318559 204.502041 
L 370.321245 204.502041 
L 370.321245 200.989012 
L 370.704548 200.989012 
L 370.704548 197.475982 
L 371.559268 197.475982 
L 371.559268 193.962952 
L 372.760369 193.962952 
L 372.760369 190.449923 
L 372.930752 190.449923 
L 372.930752 186.936893 
L 372.960382 186.936893 
L 372.960382 183.423863 
L 373.080246 183.423863 
L 373.080246 179.910834 
L 374.804135 179.910834 
L 374.804135 176.397804 
L 378.681604 176.397804 
L 378.681604 172.884774 
L 379.683454 172.884774 
L 379.683454 169.371744 
L 380.958308 169.371744 
L 380.958308 165.858715 
L 382.13306 165.858715 
L 382.13306 162.345685 
L 382.855295 162.345685 
L 382.855295 158.832655 
L 384.501359 158.832655 
L 384.501359 155.319626 
L 385.081672 155.319626 
L 385.081672 151.806596 
L 385.4877 151.806596 
L 385.4877 148.293566 
L 386.127716 148.293566 
L 386.127716 144.780537 
L 387.370432 144.780537 
L 387.370432 141.267507 
L 388.068789 141.267507 
L 388.068789 137.754477 
L 388.655998 137.754477 
L 388.655998 134.241447 
L 389.866976 134.241447 
L 389.866976 130.728418 
L 393.980426 130.728418 
L 393.980426 127.215388 
L 395.168257 127.215388 
L 395.168257 123.702358 
L 396.131502 123.702358 
L 396.131502 120.189329 
L 396.131502 120.189329 
L 396.131502 120.189329 
L 426.4825 120.189329 
" style="fill:none;stroke:#f5deb3;stroke-linecap:square;stroke-width:1.5;"/>
   </g>
   <g id="line2d_25">
    <path clip-path="url(#p15fef06bec)" d="M 222.786761 278.275665 
L 222.786761 274.762636 
L 225.35304 274.762636 
L 225.35304 271.249606 
L 225.868551 271.249606 
L 225.868551 267.736576 
L 226.680465 267.736576 
L 226.680465 264.223546 
L 236.219027 264.223546 
L 236.219027 260.710517 
L 237.287334 260.710517 
L 237.287334 257.197487 
L 237.5211 257.197487 
L 237.5211 253.684457 
L 240.519997 253.684457 
L 240.519997 250.171428 
L 246.26133 250.171428 
L 246.26133 246.658398 
L 250.149005 246.658398 
L 250.149005 243.145368 
L 251.032107 243.145368 
L 251.032107 239.632338 
L 255.112838 239.632338 
L 255.112838 236.119309 
L 255.772909 236.119309 
L 255.772909 232.606279 
L 258.432768 232.606279 
L 258.432768 229.093249 
L 315.698628 229.093249 
L 315.698628 225.58022 
L 438.1825 225.58022 
" style="fill:none;stroke:#f5deb3;stroke-linecap:square;stroke-width:1.5;"/>
   </g>
   <g id="line2d_26">
    <path clip-path="url(#p15fef06bec)" d="M 254.494222 278.275665 
L 254.494222 274.762636 
L 255.163982 274.762636 
L 255.163982 271.249606 
L 257.548584 271.249606 
L 257.548584 267.736576 
L 258.12422 267.736576 
L 258.12422 264.223546 
L 258.219399 264.223546 
L 258.219399 260.710517 
L 258.432768 260.710517 
L 258.432768 257.197487 
L 258.45641 257.197487 
L 258.45641 253.684457 
L 259.089756 253.684457 
L 259.089756 250.171428 
L 259.089756 250.171428 
L 259.089756 246.658398 
L 259.896835 246.658398 
L 259.896835 243.145368 
L 260.711147 243.145368 
L 260.711147 239.632338 
L 261.134658 239.632338 
L 261.134658 236.119309 
L 262.099372 236.119309 
L 262.099372 232.606279 
L 262.294007 232.606279 
L 262.294007 229.093249 
L 272.816167 229.093249 
L 272.816167 225.58022 
L 315.436749 225.58022 
L 315.436749 222.06719 
L 319.708916 222.06719 
L 319.708916 218.55416 
L 324.773686 218.55416 
L 324.773686 215.041131 
L 325.09063 215.041131 
L 325.09063 211.528101 
L 325.46784 211.528101 
L 325.46784 208.015071 
L 325.755721 208.015071 
L 325.755721 204.502041 
L 326.093856 204.502041 
L 326.093856 200.989012 
L 326.368079 200.989012 
L 326.368079 197.475982 
L 328.887833 197.475982 
L 328.887833 193.962952 
L 328.936633 193.962952 
L 328.936633 190.449923 
L 329.254663 190.449923 
L 329.254663 186.936893 
L 330.460559 186.936893 
L 330.460559 183.423863 
L 330.494755 183.423863 
L 330.494755 179.910834 
L 333.551493 179.910834 
L 333.551493 176.397804 
L 333.81689 176.397804 
L 333.81689 172.884774 
L 358.366258 172.884774 
L 358.366258 169.371744 
L 360.443703 169.371744 
L 360.443703 165.858715 
L 360.538024 165.858715 
L 360.538024 162.345685 
L 360.861303 162.345685 
L 360.861303 158.832655 
L 360.898684 158.832655 
L 360.898684 155.319626 
L 362.236873 155.319626 
L 362.236873 151.806596 
L 362.704819 151.806596 
L 362.704819 148.293566 
L 362.857672 148.293566 
L 362.857672 144.780537 
L 362.87154 144.780537 
L 362.87154 141.267507 
L 362.966513 141.267507 
L 362.966513 137.754477 
L 364.928119 137.754477 
L 364.928119 134.241447 
L 366.341602 134.241447 
L 366.341602 130.728418 
L 366.755475 130.728418 
L 366.755475 127.215388 
L 377.130559 127.215388 
L 377.130559 123.702358 
L 438.1825 123.702358 
" style="fill:none;stroke:#f5deb3;stroke-linecap:square;stroke-width:1.5;"/>
   </g>
   <g id="line2d_27">
    <path clip-path="url(#p15fef06bec)" d="M 319.281726 278.275665 
L 319.281726 274.762636 
L 319.409783 274.762636 
L 319.409783 271.249606 
L 319.791633 271.249606 
L 319.791633 267.736576 
L 320.164593 267.736576 
L 320.164593 264.223546 
L 320.197343 264.223546 
L 320.197343 260.710517 
L 320.496372 260.710517 
L 320.496372 257.197487 
L 320.814806 257.197487 
L 320.814806 253.684457 
L 321.829459 253.684457 
L 321.829459 250.171428 
L 322.397732 250.171428 
L 322.397732 246.658398 
L 322.922654 246.658398 
L 322.922654 243.145368 
L 323.324762 243.145368 
L 323.324762 239.632338 
L 325.0177 239.632338 
L 325.0177 236.119309 
L 325.559215 236.119309 
L 325.559215 232.606279 
L 326.574926 232.606279 
L 326.574926 229.093249 
L 340.001217 229.093249 
L 340.001217 225.58022 
L 340.001217 225.58022 
L 340.001217 225.58022 
L 426.4825 225.58022 
" style="fill:none;stroke:#f5deb3;stroke-linecap:square;stroke-width:1.5;"/>
   </g>
   <g id="line2d_28">
    <path clip-path="url(#p15fef06bec)" d="M 194.358466 278.275665 
L 194.358466 274.762636 
L 194.466596 274.762636 
L 194.466596 271.249606 
L 194.57445 271.249606 
L 194.57445 267.736576 
L 194.682028 267.736576 
L 194.682028 264.223546 
L 198.774245 264.223546 
L 198.774245 260.710517 
L 198.774245 260.710517 
L 198.774245 257.197487 
L 198.774245 257.197487 
L 198.774245 253.684457 
L 198.774245 253.684457 
L 198.774245 250.171428 
L 198.871625 250.171428 
L 198.871625 246.658398 
L 202.770667 246.658398 
L 202.770667 243.145368 
L 202.770667 243.145368 
L 202.770667 239.632338 
L 203.035831 239.632338 
L 203.035831 236.119309 
L 206.825103 236.119309 
L 206.825103 232.606279 
L 209.854153 232.606279 
L 209.854153 229.093249 
L 216.045638 229.093249 
L 216.045638 225.58022 
L 340.300183 225.58022 
L 340.300183 222.06719 
L 340.435379 222.06719 
L 340.435379 218.55416 
L 340.536491 218.55416 
L 340.536491 215.041131 
L 340.630644 215.041131 
L 340.630644 211.528101 
L 340.687706 211.528101 
L 340.687706 208.015071 
L 341.260731 208.015071 
L 341.260731 204.502041 
L 341.531198 204.502041 
L 341.531198 200.989012 
L 341.596902 200.989012 
L 341.596902 197.475982 
L 341.613313 197.475982 
L 341.613313 193.962952 
L 342.13509 193.962952 
L 342.13509 190.449923 
L 342.206332 190.449923 
L 342.206332 186.936893 
L 342.756003 186.936893 
L 342.756003 183.423863 
L 343.235491 183.423863 
L 343.235491 179.910834 
L 343.462213 179.910834 
L 343.462213 176.397804 
L 343.675225 176.397804 
L 343.675225 172.884774 
L 358.129714 172.884774 
L 358.129714 169.371744 
L 359.852018 169.371744 
L 359.852018 165.858715 
L 359.975265 165.858715 
L 359.975265 162.345685 
L 360.638402 162.345685 
L 360.638402 158.832655 
L 360.675982 158.832655 
L 360.675982 155.319626 
L 361.188304 155.319626 
L 361.188304 151.806596 
L 361.498463 151.806596 
L 361.498463 148.293566 
L 361.574115 148.293566 
L 361.574115 144.780537 
L 361.61291 144.780537 
L 361.61291 141.267507 
L 361.885511 141.267507 
L 361.885511 137.754477 
L 361.895649 137.754477 
L 361.895649 134.241447 
L 362.162403 134.241447 
L 362.162403 130.728418 
L 362.35134 130.728418 
L 362.35134 127.215388 
L 362.970466 127.215388 
L 362.970466 123.702358 
L 365.731576 123.702358 
L 365.731576 120.189329 
L 365.731576 120.189329 
L 365.731576 120.189329 
L 426.4825 120.189329 
" style="fill:none;stroke:#f5deb3;stroke-linecap:square;stroke-width:1.5;"/>
   </g>
   <g id="line2d_29">
    <path clip-path="url(#p15fef06bec)" d="M 98.555582 278.275665 
L 98.555582 274.762636 
L 98.555582 274.762636 
L 98.555582 271.249606 
L 98.555582 271.249606 
L 98.555582 267.736576 
L 98.555582 267.736576 
L 98.555582 264.223546 
L 98.555582 264.223546 
L 98.555582 260.710517 
L 98.555582 260.710517 
L 98.555582 257.197487 
L 99.595553 257.197487 
L 99.595553 253.684457 
L 99.595553 253.684457 
L 99.595553 250.171428 
L 99.595553 250.171428 
L 99.595553 246.658398 
L 99.595553 246.658398 
L 99.595553 243.145368 
L 99.595553 243.145368 
L 99.595553 239.632338 
L 99.595553 239.632338 
L 99.595553 236.119309 
L 99.595553 236.119309 
L 99.595553 232.606279 
L 99.595553 232.606279 
L 99.595553 229.093249 
L 99.595553 229.093249 
L 99.595553 225.58022 
L 119.646591 225.58022 
L 119.646591 222.06719 
L 119.646591 222.06719 
L 119.646591 218.55416 
L 119.646591 218.55416 
L 119.646591 215.041131 
L 190.029158 215.041131 
L 190.029158 211.528101 
L 190.029158 211.528101 
L 190.029158 208.015071 
L 190.029158 208.015071 
L 190.029158 204.502041 
L 190.624878 204.502041 
L 190.624878 200.989012 
L 190.624878 200.989012 
L 190.624878 197.475982 
L 190.624878 197.475982 
L 190.624878 193.962952 
L 191.095461 193.962952 
L 191.095461 190.449923 
L 191.095461 190.449923 
L 191.095461 186.936893 
L 191.095461 186.936893 
L 191.095461 183.423863 
L 191.328795 183.423863 
L 191.328795 179.910834 
L 191.328795 179.910834 
L 191.328795 176.397804 
L 191.328795 176.397804 
L 191.328795 172.884774 
L 191.328795 172.884774 
L 191.328795 172.884774 
L 426.4825 172.884774 
" style="fill:none;stroke:#f5deb3;stroke-linecap:square;stroke-width:1.5;"/>
   </g>
   <g id="line2d_30">
    <path clip-path="url(#p15fef06bec)" d="M 191.212289 278.275665 
L 191.212289 274.762636 
L 191.212289 274.762636 
L 191.212289 271.249606 
L 191.79162 271.249606 
L 191.79162 267.736576 
L 192.814749 267.736576 
L 192.814749 264.223546 
L 193.261615 264.223546 
L 193.261615 260.710517 
L 193.261615 260.710517 
L 193.261615 257.197487 
L 193.923147 257.197487 
L 193.923147 253.684457 
L 194.141369 253.684457 
L 194.141369 250.171428 
L 194.250057 250.171428 
L 194.250057 246.658398 
L 194.358466 246.658398 
L 194.358466 243.145368 
L 194.682028 243.145368 
L 194.682028 239.632338 
L 195.321787 239.632338 
L 195.321787 236.119309 
L 195.847596 236.119309 
L 195.847596 232.606279 
L 195.951974 232.606279 
L 195.951974 229.093249 
L 196.87992 229.093249 
L 196.87992 225.58022 
L 197.083383 225.58022 
L 197.083383 222.06719 
L 197.386746 222.06719 
L 197.386746 218.55416 
L 198.086209 218.55416 
L 198.086209 215.041131 
L 198.382459 215.041131 
L 198.382459 211.528101 
L 198.774245 211.528101 
L 198.774245 208.015071 
L 199.451222 208.015071 
L 199.451222 204.502041 
L 199.738057 204.502041 
L 199.738057 200.989012 
L 200.680304 200.989012 
L 200.680304 197.475982 
L 201.692995 197.475982 
L 201.692995 193.962952 
L 201.96501 193.962952 
L 201.96501 190.449923 
L 202.145381 190.449923 
L 202.145381 186.936893 
L 202.859241 186.936893 
L 202.859241 183.423863 
L 203.386806 183.423863 
L 203.386806 179.910834 
L 203.561202 179.910834 
L 203.561202 176.397804 
L 212.889603 176.397804 
L 212.889603 172.884774 
L 216.110284 172.884774 
L 216.110284 169.371744 
L 216.110284 169.371744 
L 216.110284 165.858715 
L 216.110284 165.858715 
L 216.110284 162.345685 
L 216.110284 162.345685 
L 216.110284 158.832655 
L 216.110284 158.832655 
L 216.110284 155.319626 
L 216.110284 155.319626 
L 216.110284 151.806596 
L 216.110284 151.806596 
L 216.110284 148.293566 
L 216.110284 148.293566 
L 216.110284 144.780537 
L 216.110284 144.780537 
L 216.110284 141.267507 
L 216.110284 141.267507 
L 216.110284 137.754477 
L 216.110284 137.754477 
L 216.110284 134.241447 
L 216.110284 134.241447 
L 216.110284 130.728418 
L 216.110284 130.728418 
L 216.110284 127.215388 
L 216.110284 127.215388 
L 216.110284 123.702358 
L 216.110284 123.702358 
L 216.110284 120.189329 
L 216.110284 120.189329 
L 216.110284 120.189329 
L 426.4825 120.189329 
" style="fill:none;stroke:#f5deb3;stroke-linecap:square;stroke-width:1.5;"/>
   </g>
   <g id="matplotlib.axis_1">
    <g id="xtick_1">
     <g id="line2d_31">
      <path clip-path="url(#p15fef06bec)" d="M 166.339818 278.275665 
L 166.339818 12.163665 
" style="fill:none;stroke:#b0b0b0;stroke-linecap:square;stroke-width:0.8;"/>
     </g>
     <g id="line2d_32">
      <defs>
       <path d="M 0 0 
L 0 3.5 
" id="me1abd78c01" style="stroke:#000000;stroke-width:0.8;"/>
      </defs>
      <g>
       <use style="stroke:#000000;stroke-width:0.8;" x="166.339818" xlink:href="#me1abd78c01" y="278.275665"/>
      </g>
     </g>
     <g id="text_1">
      <!-- 1 -->
      <defs>
       <path d="M 12.40625 8.296875 
L 28.515625 8.296875 
L 28.515625 63.921875 
L 10.984375 60.40625 
L 10.984375 69.390625 
L 28.421875 72.90625 
L 38.28125 72.90625 
L 38.28125 8.296875 
L 54.390625 8.296875 
L 54.390625 0 
L 12.40625 0 
z
" id="DejaVuSans-31"/>
      </defs>
      <g transform="translate(159.977318 300.47254)scale(0.2 -0.2)">
       <use xlink:href="#DejaVuSans-31"/>
      </g>
     </g>
    </g>
    <g id="xtick_2">
     <g id="line2d_33">
      <path clip-path="url(#p15fef06bec)" d="M 360.294453 278.275665 
L 360.294453 12.163665 
" style="fill:none;stroke:#b0b0b0;stroke-linecap:square;stroke-width:0.8;"/>
     </g>
     <g id="line2d_34">
      <g>
       <use style="stroke:#000000;stroke-width:0.8;" x="360.294453" xlink:href="#me1abd78c01" y="278.275665"/>
      </g>
     </g>
     <g id="text_2">
      <!-- 3 -->
      <defs>
       <path d="M 40.578125 39.3125 
Q 47.65625 37.796875 51.625 33 
Q 55.609375 28.21875 55.609375 21.1875 
Q 55.609375 10.40625 48.1875 4.484375 
Q 40.765625 -1.421875 27.09375 -1.421875 
Q 22.515625 -1.421875 17.65625 -0.515625 
Q 12.796875 0.390625 7.625 2.203125 
L 7.625 11.71875 
Q 11.71875 9.328125 16.59375 8.109375 
Q 21.484375 6.890625 26.8125 6.890625 
Q 36.078125 6.890625 40.9375 10.546875 
Q 45.796875 14.203125 45.796875 21.1875 
Q 45.796875 27.640625 41.28125 31.265625 
Q 36.765625 34.90625 28.71875 34.90625 
L 20.21875 34.90625 
L 20.21875 43.015625 
L 29.109375 43.015625 
Q 36.375 43.015625 40.234375 45.921875 
Q 44.09375 48.828125 44.09375 54.296875 
Q 44.09375 59.90625 40.109375 62.90625 
Q 36.140625 65.921875 28.71875 65.921875 
Q 24.65625 65.921875 20.015625 65.03125 
Q 15.375 64.15625 9.8125 62.3125 
L 9.8125 71.09375 
Q 15.4375 72.65625 20.34375 73.4375 
Q 25.25 74.21875 29.59375 74.21875 
Q 40.828125 74.21875 47.359375 69.109375 
Q 53.90625 64.015625 53.90625 55.328125 
Q 53.90625 49.265625 50.4375 45.09375 
Q 46.96875 40.921875 40.578125 39.3125 
" id="DejaVuSans-33"/>
      </defs>
      <g transform="translate(353.931953 300.47254)scale(0.2 -0.2)">
       <use xlink:href="#DejaVuSans-33"/>
      </g>
     </g>
    </g>
    <g id="xtick_3">
     <g id="line2d_35">
      <defs>
       <path d="M 0 0 
L 0 2 
" id="mec66be9b18" style="stroke:#000000;stroke-width:0.6;"/>
      </defs>
      <g>
       <use style="stroke:#000000;stroke-width:0.6;" x="98.555582" xlink:href="#mec66be9b18" y="278.275665"/>
      </g>
     </g>
    </g>
    <g id="xtick_4">
     <g id="line2d_36">
      <g>
       <use style="stroke:#000000;stroke-width:0.6;" x="115.632439" xlink:href="#mec66be9b18" y="278.275665"/>
      </g>
     </g>
    </g>
    <g id="xtick_5">
     <g id="line2d_37">
      <g>
       <use style="stroke:#000000;stroke-width:0.6;" x="127.748663" xlink:href="#mec66be9b18" y="278.275665"/>
      </g>
     </g>
    </g>
    <g id="xtick_6">
     <g id="line2d_38">
      <g>
       <use style="stroke:#000000;stroke-width:0.6;" x="137.146736" xlink:href="#mec66be9b18" y="278.275665"/>
      </g>
     </g>
    </g>
    <g id="xtick_7">
     <g id="line2d_39">
      <g>
       <use style="stroke:#000000;stroke-width:0.6;" x="144.825521" xlink:href="#mec66be9b18" y="278.275665"/>
      </g>
     </g>
    </g>
    <g id="xtick_8">
     <g id="line2d_40">
      <g>
       <use style="stroke:#000000;stroke-width:0.6;" x="151.317841" xlink:href="#mec66be9b18" y="278.275665"/>
      </g>
     </g>
    </g>
    <g id="xtick_9">
     <g id="line2d_41">
      <g>
       <use style="stroke:#000000;stroke-width:0.6;" x="156.941745" xlink:href="#mec66be9b18" y="278.275665"/>
      </g>
     </g>
    </g>
    <g id="xtick_10">
     <g id="line2d_42">
      <g>
       <use style="stroke:#000000;stroke-width:0.6;" x="161.902379" xlink:href="#mec66be9b18" y="278.275665"/>
      </g>
     </g>
    </g>
    <g id="xtick_11">
     <g id="line2d_43">
      <g>
       <use style="stroke:#000000;stroke-width:0.6;" x="195.532899" xlink:href="#mec66be9b18" y="278.275665"/>
      </g>
     </g>
    </g>
    <g id="xtick_12">
     <g id="line2d_44">
      <g>
       <use style="stroke:#000000;stroke-width:0.6;" x="212.609757" xlink:href="#mec66be9b18" y="278.275665"/>
      </g>
     </g>
    </g>
    <g id="xtick_13">
     <g id="line2d_45">
      <g>
       <use style="stroke:#000000;stroke-width:0.6;" x="224.725981" xlink:href="#mec66be9b18" y="278.275665"/>
      </g>
     </g>
    </g>
    <g id="xtick_14">
     <g id="line2d_46">
      <g>
       <use style="stroke:#000000;stroke-width:0.6;" x="234.124054" xlink:href="#mec66be9b18" y="278.275665"/>
      </g>
     </g>
    </g>
    <g id="xtick_15">
     <g id="line2d_47">
      <g>
       <use style="stroke:#000000;stroke-width:0.6;" x="241.802839" xlink:href="#mec66be9b18" y="278.275665"/>
      </g>
     </g>
    </g>
    <g id="xtick_16">
     <g id="line2d_48">
      <g>
       <use style="stroke:#000000;stroke-width:0.6;" x="248.295159" xlink:href="#mec66be9b18" y="278.275665"/>
      </g>
     </g>
    </g>
    <g id="xtick_17">
     <g id="line2d_49">
      <g>
       <use style="stroke:#000000;stroke-width:0.6;" x="253.919062" xlink:href="#mec66be9b18" y="278.275665"/>
      </g>
     </g>
    </g>
    <g id="xtick_18">
     <g id="line2d_50">
      <g>
       <use style="stroke:#000000;stroke-width:0.6;" x="258.879697" xlink:href="#mec66be9b18" y="278.275665"/>
      </g>
     </g>
    </g>
    <g id="xtick_19">
     <g id="line2d_51">
      <g>
       <use style="stroke:#000000;stroke-width:0.6;" x="292.510217" xlink:href="#mec66be9b18" y="278.275665"/>
      </g>
     </g>
    </g>
    <g id="xtick_20">
     <g id="line2d_52">
      <g>
       <use style="stroke:#000000;stroke-width:0.6;" x="309.587075" xlink:href="#mec66be9b18" y="278.275665"/>
      </g>
     </g>
    </g>
    <g id="xtick_21">
     <g id="line2d_53">
      <g>
       <use style="stroke:#000000;stroke-width:0.6;" x="321.703298" xlink:href="#mec66be9b18" y="278.275665"/>
      </g>
     </g>
    </g>
    <g id="xtick_22">
     <g id="line2d_54">
      <g>
       <use style="stroke:#000000;stroke-width:0.6;" x="331.101372" xlink:href="#mec66be9b18" y="278.275665"/>
      </g>
     </g>
    </g>
    <g id="xtick_23">
     <g id="line2d_55">
      <g>
       <use style="stroke:#000000;stroke-width:0.6;" x="338.780156" xlink:href="#mec66be9b18" y="278.275665"/>
      </g>
     </g>
    </g>
    <g id="xtick_24">
     <g id="line2d_56">
      <g>
       <use style="stroke:#000000;stroke-width:0.6;" x="345.272476" xlink:href="#mec66be9b18" y="278.275665"/>
      </g>
     </g>
    </g>
    <g id="xtick_25">
     <g id="line2d_57">
      <g>
       <use style="stroke:#000000;stroke-width:0.6;" x="350.89638" xlink:href="#mec66be9b18" y="278.275665"/>
      </g>
     </g>
    </g>
    <g id="xtick_26">
     <g id="line2d_58">
      <g>
       <use style="stroke:#000000;stroke-width:0.6;" x="355.857014" xlink:href="#mec66be9b18" y="278.275665"/>
      </g>
     </g>
    </g>
    <g id="xtick_27">
     <g id="line2d_59">
      <g>
       <use style="stroke:#000000;stroke-width:0.6;" x="389.487535" xlink:href="#mec66be9b18" y="278.275665"/>
      </g>
     </g>
    </g>
    <g id="xtick_28">
     <g id="line2d_60">
      <g>
       <use style="stroke:#000000;stroke-width:0.6;" x="406.564393" xlink:href="#mec66be9b18" y="278.275665"/>
      </g>
     </g>
    </g>
    <g id="xtick_29">
     <g id="line2d_61">
      <g>
       <use style="stroke:#000000;stroke-width:0.6;" x="418.680616" xlink:href="#mec66be9b18" y="278.275665"/>
      </g>
     </g>
    </g>
    <g id="text_3">
     <!-- log10 of FEvals / DIM -->
     <defs>
      <path d="M 9.421875 75.984375 
L 18.40625 75.984375 
L 18.40625 0 
L 9.421875 0 
z
" id="DejaVuSans-6c"/>
      <path d="M 30.609375 48.390625 
Q 23.390625 48.390625 19.1875 42.75 
Q 14.984375 37.109375 14.984375 27.296875 
Q 14.984375 17.484375 19.15625 11.84375 
Q 23.34375 6.203125 30.609375 6.203125 
Q 37.796875 6.203125 41.984375 11.859375 
Q 46.1875 17.53125 46.1875 27.296875 
Q 46.1875 37.015625 41.984375 42.703125 
Q 37.796875 48.390625 30.609375 48.390625 
M 30.609375 56 
Q 42.328125 56 49.015625 48.375 
Q 55.71875 40.765625 55.71875 27.296875 
Q 55.71875 13.875 49.015625 6.21875 
Q 42.328125 -1.421875 30.609375 -1.421875 
Q 18.84375 -1.421875 12.171875 6.21875 
Q 5.515625 13.875 5.515625 27.296875 
Q 5.515625 40.765625 12.171875 48.375 
Q 18.84375 56 30.609375 56 
" id="DejaVuSans-6f"/>
      <path d="M 45.40625 27.984375 
Q 45.40625 37.75 41.375 43.109375 
Q 37.359375 48.484375 30.078125 48.484375 
Q 22.859375 48.484375 18.828125 43.109375 
Q 14.796875 37.75 14.796875 27.984375 
Q 14.796875 18.265625 18.828125 12.890625 
Q 22.859375 7.515625 30.078125 7.515625 
Q 37.359375 7.515625 41.375 12.890625 
Q 45.40625 18.265625 45.40625 27.984375 
M 54.390625 6.78125 
Q 54.390625 -7.171875 48.1875 -13.984375 
Q 42 -20.796875 29.203125 -20.796875 
Q 24.46875 -20.796875 20.265625 -20.09375 
Q 16.0625 -19.390625 12.109375 -17.921875 
L 12.109375 -9.1875 
Q 16.0625 -11.328125 19.921875 -12.34375 
Q 23.78125 -13.375 27.78125 -13.375 
Q 36.625 -13.375 41.015625 -8.765625 
Q 45.40625 -4.15625 45.40625 5.171875 
L 45.40625 9.625 
Q 42.625 4.78125 38.28125 2.390625 
Q 33.9375 0 27.875 0 
Q 17.828125 0 11.671875 7.65625 
Q 5.515625 15.328125 5.515625 27.984375 
Q 5.515625 40.671875 11.671875 48.328125 
Q 17.828125 56 27.875 56 
Q 33.9375 56 38.28125 53.609375 
Q 42.625 51.21875 45.40625 46.390625 
L 45.40625 54.6875 
L 54.390625 54.6875 
z
" id="DejaVuSans-67"/>
      <path d="M 31.78125 66.40625 
Q 24.171875 66.40625 20.328125 58.90625 
Q 16.5 51.421875 16.5 36.375 
Q 16.5 21.390625 20.328125 13.890625 
Q 24.171875 6.390625 31.78125 6.390625 
Q 39.453125 6.390625 43.28125 13.890625 
Q 47.125 21.390625 47.125 36.375 
Q 47.125 51.421875 43.28125 58.90625 
Q 39.453125 66.40625 31.78125 66.40625 
M 31.78125 74.21875 
Q 44.046875 74.21875 50.515625 64.515625 
Q 56.984375 54.828125 56.984375 36.375 
Q 56.984375 17.96875 50.515625 8.265625 
Q 44.046875 -1.421875 31.78125 -1.421875 
Q 19.53125 -1.421875 13.0625 8.265625 
Q 6.59375 17.96875 6.59375 36.375 
Q 6.59375 54.828125 13.0625 64.515625 
Q 19.53125 74.21875 31.78125 74.21875 
" id="DejaVuSans-30"/>
      <path id="DejaVuSans-20"/>
      <path d="M 37.109375 75.984375 
L 37.109375 68.5 
L 28.515625 68.5 
Q 23.6875 68.5 21.796875 66.546875 
Q 19.921875 64.59375 19.921875 59.515625 
L 19.921875 54.6875 
L 34.71875 54.6875 
L 34.71875 47.703125 
L 19.921875 47.703125 
L 19.921875 0 
L 10.890625 0 
L 10.890625 47.703125 
L 2.296875 47.703125 
L 2.296875 54.6875 
L 10.890625 54.6875 
L 10.890625 58.5 
Q 10.890625 67.625 15.140625 71.796875 
Q 19.390625 75.984375 28.609375 75.984375 
z
" id="DejaVuSans-66"/>
      <path d="M 9.8125 72.90625 
L 51.703125 72.90625 
L 51.703125 64.59375 
L 19.671875 64.59375 
L 19.671875 43.109375 
L 48.578125 43.109375 
L 48.578125 34.8125 
L 19.671875 34.8125 
L 19.671875 0 
L 9.8125 0 
z
" id="DejaVuSans-46"/>
      <path d="M 9.8125 72.90625 
L 55.90625 72.90625 
L 55.90625 64.59375 
L 19.671875 64.59375 
L 19.671875 43.015625 
L 54.390625 43.015625 
L 54.390625 34.71875 
L 19.671875 34.71875 
L 19.671875 8.296875 
L 56.78125 8.296875 
L 56.78125 0 
L 9.8125 0 
z
" id="DejaVuSans-45"/>
      <path d="M 2.984375 54.6875 
L 12.5 54.6875 
L 29.59375 8.796875 
L 46.6875 54.6875 
L 56.203125 54.6875 
L 35.6875 0 
L 23.484375 0 
z
" id="DejaVuSans-76"/>
      <path d="M 34.28125 27.484375 
Q 23.390625 27.484375 19.1875 25 
Q 14.984375 22.515625 14.984375 16.5 
Q 14.984375 11.71875 18.140625 8.90625 
Q 21.296875 6.109375 26.703125 6.109375 
Q 34.1875 6.109375 38.703125 11.40625 
Q 43.21875 16.703125 43.21875 25.484375 
L 43.21875 27.484375 
z
M 52.203125 31.203125 
L 52.203125 0 
L 43.21875 0 
L 43.21875 8.296875 
Q 40.140625 3.328125 35.546875 0.953125 
Q 30.953125 -1.421875 24.3125 -1.421875 
Q 15.921875 -1.421875 10.953125 3.296875 
Q 6 8.015625 6 15.921875 
Q 6 25.140625 12.171875 29.828125 
Q 18.359375 34.515625 30.609375 34.515625 
L 43.21875 34.515625 
L 43.21875 35.40625 
Q 43.21875 41.609375 39.140625 45 
Q 35.0625 48.390625 27.6875 48.390625 
Q 23 48.390625 18.546875 47.265625 
Q 14.109375 46.140625 10.015625 43.890625 
L 10.015625 52.203125 
Q 14.9375 54.109375 19.578125 55.046875 
Q 24.21875 56 28.609375 56 
Q 40.484375 56 46.34375 49.84375 
Q 52.203125 43.703125 52.203125 31.203125 
" id="DejaVuSans-61"/>
      <path d="M 44.28125 53.078125 
L 44.28125 44.578125 
Q 40.484375 46.53125 36.375 47.5 
Q 32.28125 48.484375 27.875 48.484375 
Q 21.1875 48.484375 17.84375 46.4375 
Q 14.5 44.390625 14.5 40.28125 
Q 14.5 37.15625 16.890625 35.375 
Q 19.28125 33.59375 26.515625 31.984375 
L 29.59375 31.296875 
Q 39.15625 29.25 43.1875 25.515625 
Q 47.21875 21.78125 47.21875 15.09375 
Q 47.21875 7.46875 41.1875 3.015625 
Q 35.15625 -1.421875 24.609375 -1.421875 
Q 20.21875 -1.421875 15.453125 -0.5625 
Q 10.6875 0.296875 5.421875 2 
L 5.421875 11.28125 
Q 10.40625 8.6875 15.234375 7.390625 
Q 20.0625 6.109375 24.8125 6.109375 
Q 31.15625 6.109375 34.5625 8.28125 
Q 37.984375 10.453125 37.984375 14.40625 
Q 37.984375 18.0625 35.515625 20.015625 
Q 33.0625 21.96875 24.703125 23.78125 
L 21.578125 24.515625 
Q 13.234375 26.265625 9.515625 29.90625 
Q 5.8125 33.546875 5.8125 39.890625 
Q 5.8125 47.609375 11.28125 51.796875 
Q 16.75 56 26.8125 56 
Q 31.78125 56 36.171875 55.265625 
Q 40.578125 54.546875 44.28125 53.078125 
" id="DejaVuSans-73"/>
      <path d="M 25.390625 72.90625 
L 33.6875 72.90625 
L 8.296875 -9.28125 
L 0 -9.28125 
z
" id="DejaVuSans-2f"/>
      <path d="M 19.671875 64.796875 
L 19.671875 8.109375 
L 31.59375 8.109375 
Q 46.6875 8.109375 53.6875 14.9375 
Q 60.6875 21.78125 60.6875 36.53125 
Q 60.6875 51.171875 53.6875 57.984375 
Q 46.6875 64.796875 31.59375 64.796875 
z
M 9.8125 72.90625 
L 30.078125 72.90625 
Q 51.265625 72.90625 61.171875 64.09375 
Q 71.09375 55.28125 71.09375 36.53125 
Q 71.09375 17.671875 61.125 8.828125 
Q 51.171875 0 30.078125 0 
L 9.8125 0 
z
" id="DejaVuSans-44"/>
      <path d="M 9.8125 72.90625 
L 19.671875 72.90625 
L 19.671875 0 
L 9.8125 0 
z
" id="DejaVuSans-49"/>
      <path d="M 9.8125 72.90625 
L 24.515625 72.90625 
L 43.109375 23.296875 
L 61.8125 72.90625 
L 76.515625 72.90625 
L 76.515625 0 
L 66.890625 0 
L 66.890625 64.015625 
L 48.09375 14.015625 
L 38.1875 14.015625 
L 19.390625 64.015625 
L 19.390625 0 
L 9.8125 0 
z
" id="DejaVuSans-4d"/>
     </defs>
     <g transform="translate(142.849063 323.82879)scale(0.2 -0.2)">
      <use xlink:href="#DejaVuSans-6c"/>
      <use x="27.783203" xlink:href="#DejaVuSans-6f"/>
      <use x="88.964844" xlink:href="#DejaVuSans-67"/>
      <use x="152.441406" xlink:href="#DejaVuSans-31"/>
      <use x="216.064453" xlink:href="#DejaVuSans-30"/>
      <use x="279.6875" xlink:href="#DejaVuSans-20"/>
      <use x="311.474609" xlink:href="#DejaVuSans-6f"/>
      <use x="372.65625" xlink:href="#DejaVuSans-66"/>
      <use x="407.861328" xlink:href="#DejaVuSans-20"/>
      <use x="439.648438" xlink:href="#DejaVuSans-46"/>
      <use x="497.167969" xlink:href="#DejaVuSans-45"/>
      <use x="560.351562" xlink:href="#DejaVuSans-76"/>
      <use x="619.53125" xlink:href="#DejaVuSans-61"/>
      <use x="680.810547" xlink:href="#DejaVuSans-6c"/>
      <use x="708.59375" xlink:href="#DejaVuSans-73"/>
      <use x="760.693359" xlink:href="#DejaVuSans-20"/>
      <use x="792.480469" xlink:href="#DejaVuSans-2f"/>
      <use x="826.171875" xlink:href="#DejaVuSans-20"/>
      <use x="857.958984" xlink:href="#DejaVuSans-44"/>
      <use x="934.960938" xlink:href="#DejaVuSans-49"/>
      <use x="964.453125" xlink:href="#DejaVuSans-4d"/>
     </g>
    </g>
   </g>
   <g id="matplotlib.axis_2">
    <g id="ytick_1">
     <g id="line2d_62">
      <path clip-path="url(#p15fef06bec)" d="M 69.3625 278.275665 
L 426.4825 278.275665 
" style="fill:none;stroke:#b0b0b0;stroke-linecap:square;stroke-width:0.8;"/>
     </g>
     <g id="line2d_63">
      <defs>
       <path d="M 0 0 
L -3.5 0 
" id="mfad9c8bc91" style="stroke:#000000;stroke-width:0.8;"/>
      </defs>
      <g>
       <use style="stroke:#000000;stroke-width:0.8;" x="69.3625" xlink:href="#mfad9c8bc91" y="278.275665"/>
      </g>
     </g>
     <g id="text_4">
      <!-- 0.0 -->
      <defs>
       <path d="M 10.6875 12.40625 
L 21 12.40625 
L 21 0 
L 10.6875 0 
z
" id="DejaVuSans-2e"/>
      </defs>
      <g transform="translate(30.55625 285.874103)scale(0.2 -0.2)">
       <use xlink:href="#DejaVuSans-30"/>
       <use x="63.623047" xlink:href="#DejaVuSans-2e"/>
       <use x="95.410156" xlink:href="#DejaVuSans-30"/>
      </g>
     </g>
    </g>
    <g id="ytick_2">
     <g id="line2d_64">
      <path clip-path="url(#p15fef06bec)" d="M 69.3625 225.58022 
L 426.4825 225.58022 
" style="fill:none;stroke:#b0b0b0;stroke-linecap:square;stroke-width:0.8;"/>
     </g>
     <g id="line2d_65">
      <g>
       <use style="stroke:#000000;stroke-width:0.8;" x="69.3625" xlink:href="#mfad9c8bc91" y="225.58022"/>
      </g>
     </g>
     <g id="text_5">
      <!-- 0.2 -->
      <defs>
       <path d="M 19.1875 8.296875 
L 53.609375 8.296875 
L 53.609375 0 
L 7.328125 0 
L 7.328125 8.296875 
Q 12.9375 14.109375 22.625 23.890625 
Q 32.328125 33.6875 34.8125 36.53125 
Q 39.546875 41.84375 41.421875 45.53125 
Q 43.3125 49.21875 43.3125 52.78125 
Q 43.3125 58.59375 39.234375 62.25 
Q 35.15625 65.921875 28.609375 65.921875 
Q 23.96875 65.921875 18.8125 64.3125 
Q 13.671875 62.703125 7.8125 59.421875 
L 7.8125 69.390625 
Q 13.765625 71.78125 18.9375 73 
Q 24.125 74.21875 28.421875 74.21875 
Q 39.75 74.21875 46.484375 68.546875 
Q 53.21875 62.890625 53.21875 53.421875 
Q 53.21875 48.921875 51.53125 44.890625 
Q 49.859375 40.875 45.40625 35.40625 
Q 44.1875 33.984375 37.640625 27.21875 
Q 31.109375 20.453125 19.1875 8.296875 
" id="DejaVuSans-32"/>
      </defs>
      <g transform="translate(30.55625 233.178657)scale(0.2 -0.2)">
       <use xlink:href="#DejaVuSans-30"/>
       <use x="63.623047" xlink:href="#DejaVuSans-2e"/>
       <use x="95.410156" xlink:href="#DejaVuSans-32"/>
      </g>
     </g>
    </g>
    <g id="ytick_3">
     <g id="line2d_66">
      <path clip-path="url(#p15fef06bec)" d="M 69.3625 172.884774 
L 426.4825 172.884774 
" style="fill:none;stroke:#b0b0b0;stroke-linecap:square;stroke-width:0.8;"/>
     </g>
     <g id="line2d_67">
      <g>
       <use style="stroke:#000000;stroke-width:0.8;" x="69.3625" xlink:href="#mfad9c8bc91" y="172.884774"/>
      </g>
     </g>
     <g id="text_6">
      <!-- 0.4 -->
      <defs>
       <path d="M 37.796875 64.3125 
L 12.890625 25.390625 
L 37.796875 25.390625 
z
M 35.203125 72.90625 
L 47.609375 72.90625 
L 47.609375 25.390625 
L 58.015625 25.390625 
L 58.015625 17.1875 
L 47.609375 17.1875 
L 47.609375 0 
L 37.796875 0 
L 37.796875 17.1875 
L 4.890625 17.1875 
L 4.890625 26.703125 
z
" id="DejaVuSans-34"/>
      </defs>
      <g transform="translate(30.55625 180.483212)scale(0.2 -0.2)">
       <use xlink:href="#DejaVuSans-30"/>
       <use x="63.623047" xlink:href="#DejaVuSans-2e"/>
       <use x="95.410156" xlink:href="#DejaVuSans-34"/>
      </g>
     </g>
    </g>
    <g id="ytick_4">
     <g id="line2d_68">
      <path clip-path="url(#p15fef06bec)" d="M 69.3625 120.189329 
L 426.4825 120.189329 
" style="fill:none;stroke:#b0b0b0;stroke-linecap:square;stroke-width:0.8;"/>
     </g>
     <g id="line2d_69">
      <g>
       <use style="stroke:#000000;stroke-width:0.8;" x="69.3625" xlink:href="#mfad9c8bc91" y="120.189329"/>
      </g>
     </g>
     <g id="text_7">
      <!-- 0.6 -->
      <defs>
       <path d="M 33.015625 40.375 
Q 26.375 40.375 22.484375 35.828125 
Q 18.609375 31.296875 18.609375 23.390625 
Q 18.609375 15.53125 22.484375 10.953125 
Q 26.375 6.390625 33.015625 6.390625 
Q 39.65625 6.390625 43.53125 10.953125 
Q 47.40625 15.53125 47.40625 23.390625 
Q 47.40625 31.296875 43.53125 35.828125 
Q 39.65625 40.375 33.015625 40.375 
M 52.59375 71.296875 
L 52.59375 62.3125 
Q 48.875 64.0625 45.09375 64.984375 
Q 41.3125 65.921875 37.59375 65.921875 
Q 27.828125 65.921875 22.671875 59.328125 
Q 17.53125 52.734375 16.796875 39.40625 
Q 19.671875 43.65625 24.015625 45.921875 
Q 28.375 48.1875 33.59375 48.1875 
Q 44.578125 48.1875 50.953125 41.515625 
Q 57.328125 34.859375 57.328125 23.390625 
Q 57.328125 12.15625 50.6875 5.359375 
Q 44.046875 -1.421875 33.015625 -1.421875 
Q 20.359375 -1.421875 13.671875 8.265625 
Q 6.984375 17.96875 6.984375 36.375 
Q 6.984375 53.65625 15.1875 63.9375 
Q 23.390625 74.21875 37.203125 74.21875 
Q 40.921875 74.21875 44.703125 73.484375 
Q 48.484375 72.75 52.59375 71.296875 
" id="DejaVuSans-36"/>
      </defs>
      <g transform="translate(30.55625 127.787766)scale(0.2 -0.2)">
       <use xlink:href="#DejaVuSans-30"/>
       <use x="63.623047" xlink:href="#DejaVuSans-2e"/>
       <use x="95.410156" xlink:href="#DejaVuSans-36"/>
      </g>
     </g>
    </g>
    <g id="ytick_5">
     <g id="line2d_70">
      <path clip-path="url(#p15fef06bec)" d="M 69.3625 67.493883 
L 426.4825 67.493883 
" style="fill:none;stroke:#b0b0b0;stroke-linecap:square;stroke-width:0.8;"/>
     </g>
     <g id="line2d_71">
      <g>
       <use style="stroke:#000000;stroke-width:0.8;" x="69.3625" xlink:href="#mfad9c8bc91" y="67.493883"/>
      </g>
     </g>
     <g id="text_8">
      <!-- 0.8 -->
      <defs>
       <path d="M 31.78125 34.625 
Q 24.75 34.625 20.71875 30.859375 
Q 16.703125 27.09375 16.703125 20.515625 
Q 16.703125 13.921875 20.71875 10.15625 
Q 24.75 6.390625 31.78125 6.390625 
Q 38.8125 6.390625 42.859375 10.171875 
Q 46.921875 13.96875 46.921875 20.515625 
Q 46.921875 27.09375 42.890625 30.859375 
Q 38.875 34.625 31.78125 34.625 
M 21.921875 38.8125 
Q 15.578125 40.375 12.03125 44.71875 
Q 8.5 49.078125 8.5 55.328125 
Q 8.5 64.0625 14.71875 69.140625 
Q 20.953125 74.21875 31.78125 74.21875 
Q 42.671875 74.21875 48.875 69.140625 
Q 55.078125 64.0625 55.078125 55.328125 
Q 55.078125 49.078125 51.53125 44.71875 
Q 48 40.375 41.703125 38.8125 
Q 48.828125 37.15625 52.796875 32.3125 
Q 56.78125 27.484375 56.78125 20.515625 
Q 56.78125 9.90625 50.3125 4.234375 
Q 43.84375 -1.421875 31.78125 -1.421875 
Q 19.734375 -1.421875 13.25 4.234375 
Q 6.78125 9.90625 6.78125 20.515625 
Q 6.78125 27.484375 10.78125 32.3125 
Q 14.796875 37.15625 21.921875 38.8125 
M 18.3125 54.390625 
Q 18.3125 48.734375 21.84375 45.5625 
Q 25.390625 42.390625 31.78125 42.390625 
Q 38.140625 42.390625 41.71875 45.5625 
Q 45.3125 48.734375 45.3125 54.390625 
Q 45.3125 60.0625 41.71875 63.234375 
Q 38.140625 66.40625 31.78125 66.40625 
Q 25.390625 66.40625 21.84375 63.234375 
Q 18.3125 60.0625 18.3125 54.390625 
" id="DejaVuSans-38"/>
      </defs>
      <g transform="translate(30.55625 75.092321)scale(0.2 -0.2)">
       <use xlink:href="#DejaVuSans-30"/>
       <use x="63.623047" xlink:href="#DejaVuSans-2e"/>
       <use x="95.410156" xlink:href="#DejaVuSans-38"/>
      </g>
     </g>
    </g>
    <g id="ytick_6">
     <g id="line2d_72">
      <path clip-path="url(#p15fef06bec)" d="M 69.3625 14.798437 
L 426.4825 14.798437 
" style="fill:none;stroke:#b0b0b0;stroke-linecap:square;stroke-width:0.8;"/>
     </g>
     <g id="line2d_73">
      <g>
       <use style="stroke:#000000;stroke-width:0.8;" x="69.3625" xlink:href="#mfad9c8bc91" y="14.798437"/>
      </g>
     </g>
     <g id="text_9">
      <!-- 1.0 -->
      <g transform="translate(30.55625 22.396875)scale(0.2 -0.2)">
       <use xlink:href="#DejaVuSans-31"/>
       <use x="63.623047" xlink:href="#DejaVuSans-2e"/>
       <use x="95.410156" xlink:href="#DejaVuSans-30"/>
      </g>
     </g>
    </g>
    <g id="text_10">
     <!-- proportion of trials -->
     <defs>
      <path d="M 18.109375 8.203125 
L 18.109375 -20.796875 
L 9.078125 -20.796875 
L 9.078125 54.6875 
L 18.109375 54.6875 
L 18.109375 46.390625 
Q 20.953125 51.265625 25.265625 53.625 
Q 29.59375 56 35.59375 56 
Q 45.5625 56 51.78125 48.09375 
Q 58.015625 40.1875 58.015625 27.296875 
Q 58.015625 14.40625 51.78125 6.484375 
Q 45.5625 -1.421875 35.59375 -1.421875 
Q 29.59375 -1.421875 25.265625 0.953125 
Q 20.953125 3.328125 18.109375 8.203125 
M 48.6875 27.296875 
Q 48.6875 37.203125 44.609375 42.84375 
Q 40.53125 48.484375 33.40625 48.484375 
Q 26.265625 48.484375 22.1875 42.84375 
Q 18.109375 37.203125 18.109375 27.296875 
Q 18.109375 17.390625 22.1875 11.75 
Q 26.265625 6.109375 33.40625 6.109375 
Q 40.53125 6.109375 44.609375 11.75 
Q 48.6875 17.390625 48.6875 27.296875 
" id="DejaVuSans-70"/>
      <path d="M 41.109375 46.296875 
Q 39.59375 47.171875 37.8125 47.578125 
Q 36.03125 48 33.890625 48 
Q 26.265625 48 22.1875 43.046875 
Q 18.109375 38.09375 18.109375 28.8125 
L 18.109375 0 
L 9.078125 0 
L 9.078125 54.6875 
L 18.109375 54.6875 
L 18.109375 46.1875 
Q 20.953125 51.171875 25.484375 53.578125 
Q 30.03125 56 36.53125 56 
Q 37.453125 56 38.578125 55.875 
Q 39.703125 55.765625 41.0625 55.515625 
z
" id="DejaVuSans-72"/>
      <path d="M 18.3125 70.21875 
L 18.3125 54.6875 
L 36.8125 54.6875 
L 36.8125 47.703125 
L 18.3125 47.703125 
L 18.3125 18.015625 
Q 18.3125 11.328125 20.140625 9.421875 
Q 21.96875 7.515625 27.59375 7.515625 
L 36.8125 7.515625 
L 36.8125 0 
L 27.59375 0 
Q 17.1875 0 13.234375 3.875 
Q 9.28125 7.765625 9.28125 18.015625 
L 9.28125 47.703125 
L 2.6875 47.703125 
L 2.6875 54.6875 
L 9.28125 54.6875 
L 9.28125 70.21875 
z
" id="DejaVuSans-74"/>
      <path d="M 9.421875 54.6875 
L 18.40625 54.6875 
L 18.40625 0 
L 9.421875 0 
z
M 9.421875 75.984375 
L 18.40625 75.984375 
L 18.40625 64.59375 
L 9.421875 64.59375 
z
" id="DejaVuSans-69"/>
      <path d="M 54.890625 33.015625 
L 54.890625 0 
L 45.90625 0 
L 45.90625 32.71875 
Q 45.90625 40.484375 42.875 44.328125 
Q 39.84375 48.1875 33.796875 48.1875 
Q 26.515625 48.1875 22.3125 43.546875 
Q 18.109375 38.921875 18.109375 30.90625 
L 18.109375 0 
L 9.078125 0 
L 9.078125 54.6875 
L 18.109375 54.6875 
L 18.109375 46.1875 
Q 21.34375 51.125 25.703125 53.5625 
Q 30.078125 56 35.796875 56 
Q 45.21875 56 50.046875 50.171875 
Q 54.890625 44.34375 54.890625 33.015625 
" id="DejaVuSans-6e"/>
     </defs>
     <g transform="translate(22.396875 238.44779)rotate(-90)scale(0.2 -0.2)">
      <use xlink:href="#DejaVuSans-70"/>
      <use x="63.476562" xlink:href="#DejaVuSans-72"/>
      <use x="104.558594" xlink:href="#DejaVuSans-6f"/>
      <use x="165.740234" xlink:href="#DejaVuSans-70"/>
      <use x="229.216797" xlink:href="#DejaVuSans-6f"/>
      <use x="290.398438" xlink:href="#DejaVuSans-72"/>
      <use x="331.511719" xlink:href="#DejaVuSans-74"/>
      <use x="370.720703" xlink:href="#DejaVuSans-69"/>
      <use x="398.503906" xlink:href="#DejaVuSans-6f"/>
      <use x="459.685547" xlink:href="#DejaVuSans-6e"/>
      <use x="523.064453" xlink:href="#DejaVuSans-20"/>
      <use x="554.851562" xlink:href="#DejaVuSans-6f"/>
      <use x="616.033203" xlink:href="#DejaVuSans-66"/>
      <use x="651.238281" xlink:href="#DejaVuSans-20"/>
      <use x="683.025391" xlink:href="#DejaVuSans-74"/>
      <use x="722.234375" xlink:href="#DejaVuSans-72"/>
      <use x="763.347656" xlink:href="#DejaVuSans-69"/>
      <use x="791.130859" xlink:href="#DejaVuSans-61"/>
      <use x="852.410156" xlink:href="#DejaVuSans-6c"/>
      <use x="880.193359" xlink:href="#DejaVuSans-73"/>
     </g>
    </g>
   </g>
   <g id="line2d_74"/>
   <g id="line2d_75"/>
   <g id="line2d_76"/>
   <g id="line2d_77"/>
   <g id="line2d_78">
    <path clip-path="url(#p15fef06bec)" d="M 426.461936 278.275665 
L 426.461936 12.163665 
" style="fill:none;stroke:#000000;stroke-linecap:square;stroke-width:1.5;"/>
   </g>
   <g id="patch_3">
    <path d="M 69.3625 278.275665 
L 69.3625 12.163665 
" style="fill:none;stroke:#000000;stroke-linecap:square;stroke-linejoin:miter;stroke-width:0.8;"/>
   </g>
   <g id="patch_4">
    <path d="M 426.4825 278.275665 
L 426.4825 12.163665 
" style="fill:none;stroke:#000000;stroke-linecap:square;stroke-linejoin:miter;stroke-width:0.8;"/>
   </g>
   <g id="patch_5">
    <path d="M 69.3625 278.275665 
L 426.4825 278.275665 
" style="fill:none;stroke:#000000;stroke-linecap:square;stroke-linejoin:miter;stroke-width:0.8;"/>
   </g>
   <g id="patch_6">
    <path d="M 69.3625 12.163665 
L 426.4825 12.163665 
" style="fill:none;stroke:#000000;stroke-linecap:square;stroke-linejoin:miter;stroke-width:0.8;"/>
   </g>
   <g id="text_11">
    <!-- {f1-f5}, 20-D -->
    <defs>
     <path d="M 51.125 -9.28125 
L 51.125 -16.3125 
L 48.09375 -16.3125 
Q 35.9375 -16.3125 31.8125 -12.6875 
Q 27.6875 -9.078125 27.6875 1.703125 
L 27.6875 13.375 
Q 27.6875 20.75 25.046875 23.578125 
Q 22.40625 26.421875 15.484375 26.421875 
L 12.5 26.421875 
L 12.5 33.40625 
L 15.484375 33.40625 
Q 22.46875 33.40625 25.078125 36.203125 
Q 27.6875 39.015625 27.6875 46.296875 
L 27.6875 58.015625 
Q 27.6875 68.796875 31.8125 72.390625 
Q 35.9375 75.984375 48.09375 75.984375 
L 51.125 75.984375 
L 51.125 69 
L 47.796875 69 
Q 40.921875 69 38.8125 66.84375 
Q 36.71875 64.703125 36.71875 57.8125 
L 36.71875 45.703125 
Q 36.71875 38.03125 34.5 34.5625 
Q 32.28125 31.109375 26.90625 29.890625 
Q 32.328125 28.5625 34.515625 25.09375 
Q 36.71875 21.625 36.71875 14.015625 
L 36.71875 1.90625 
Q 36.71875 -4.984375 38.8125 -7.125 
Q 40.921875 -9.28125 47.796875 -9.28125 
z
" id="DejaVuSans-7b"/>
     <path d="M 4.890625 31.390625 
L 31.203125 31.390625 
L 31.203125 23.390625 
L 4.890625 23.390625 
z
" id="DejaVuSans-2d"/>
     <path d="M 10.796875 72.90625 
L 49.515625 72.90625 
L 49.515625 64.59375 
L 19.828125 64.59375 
L 19.828125 46.734375 
Q 21.96875 47.46875 24.109375 47.828125 
Q 26.265625 48.1875 28.421875 48.1875 
Q 40.625 48.1875 47.75 41.5 
Q 54.890625 34.8125 54.890625 23.390625 
Q 54.890625 11.625 47.5625 5.09375 
Q 40.234375 -1.421875 26.90625 -1.421875 
Q 22.3125 -1.421875 17.546875 -0.640625 
Q 12.796875 0.140625 7.71875 1.703125 
L 7.71875 11.625 
Q 12.109375 9.234375 16.796875 8.0625 
Q 21.484375 6.890625 26.703125 6.890625 
Q 35.15625 6.890625 40.078125 11.328125 
Q 45.015625 15.765625 45.015625 23.390625 
Q 45.015625 31 40.078125 35.4375 
Q 35.15625 39.890625 26.703125 39.890625 
Q 22.75 39.890625 18.8125 39.015625 
Q 14.890625 38.140625 10.796875 36.28125 
z
" id="DejaVuSans-35"/>
     <path d="M 12.5 -9.28125 
L 15.921875 -9.28125 
Q 22.75 -9.28125 24.828125 -7.171875 
Q 26.90625 -5.078125 26.90625 1.90625 
L 26.90625 14.015625 
Q 26.90625 21.625 29.09375 25.09375 
Q 31.296875 28.5625 36.71875 29.890625 
Q 31.296875 31.109375 29.09375 34.5625 
Q 26.90625 38.03125 26.90625 45.703125 
L 26.90625 57.8125 
Q 26.90625 64.75 24.828125 66.875 
Q 22.75 69 15.921875 69 
L 12.5 69 
L 12.5 75.984375 
L 15.578125 75.984375 
Q 27.734375 75.984375 31.8125 72.390625 
Q 35.890625 68.796875 35.890625 58.015625 
L 35.890625 46.296875 
Q 35.890625 39.015625 38.515625 36.203125 
Q 41.15625 33.40625 48.09375 33.40625 
L 51.125 33.40625 
L 51.125 26.421875 
L 48.09375 26.421875 
Q 41.15625 26.421875 38.515625 23.578125 
Q 35.890625 20.75 35.890625 13.375 
L 35.890625 1.703125 
Q 35.890625 -9.078125 31.8125 -12.6875 
Q 27.734375 -16.3125 15.578125 -16.3125 
L 12.5 -16.3125 
z
" id="DejaVuSans-7d"/>
     <path d="M 11.71875 12.40625 
L 22.015625 12.40625 
L 22.015625 4 
L 14.015625 -11.625 
L 7.71875 -11.625 
L 11.71875 4 
z
" id="DejaVuSans-2c"/>
    </defs>
    <g transform="translate(181.435 32.68278)scale(0.2 -0.2)">
     <use xlink:href="#DejaVuSans-7b"/>
     <use x="63.623047" xlink:href="#DejaVuSans-66"/>
     <use x="98.828125" xlink:href="#DejaVuSans-31"/>
     <use x="162.451172" xlink:href="#DejaVuSans-2d"/>
     <use x="198.535156" xlink:href="#DejaVuSans-66"/>
     <use x="233.740234" xlink:href="#DejaVuSans-35"/>
     <use x="297.363281" xlink:href="#DejaVuSans-7d"/>
     <use x="360.986328" xlink:href="#DejaVuSans-2c"/>
     <use x="392.773438" xlink:href="#DejaVuSans-20"/>
     <use x="424.560547" xlink:href="#DejaVuSans-32"/>
     <use x="488.183594" xlink:href="#DejaVuSans-30"/>
     <use x="551.806641" xlink:href="#DejaVuSans-2d"/>
     <use x="587.890625" xlink:href="#DejaVuSans-44"/>
    </g>
   </g>
   <g id="text_12">
    <!-- absolute targets -->
    <defs>
     <path d="M 48.6875 27.296875 
Q 48.6875 37.203125 44.609375 42.84375 
Q 40.53125 48.484375 33.40625 48.484375 
Q 26.265625 48.484375 22.1875 42.84375 
Q 18.109375 37.203125 18.109375 27.296875 
Q 18.109375 17.390625 22.1875 11.75 
Q 26.265625 6.109375 33.40625 6.109375 
Q 40.53125 6.109375 44.609375 11.75 
Q 48.6875 17.390625 48.6875 27.296875 
M 18.109375 46.390625 
Q 20.953125 51.265625 25.265625 53.625 
Q 29.59375 56 35.59375 56 
Q 45.5625 56 51.78125 48.09375 
Q 58.015625 40.1875 58.015625 27.296875 
Q 58.015625 14.40625 51.78125 6.484375 
Q 45.5625 -1.421875 35.59375 -1.421875 
Q 29.59375 -1.421875 25.265625 0.953125 
Q 20.953125 3.328125 18.109375 8.203125 
L 18.109375 0 
L 9.078125 0 
L 9.078125 75.984375 
L 18.109375 75.984375 
z
" id="DejaVuSans-62"/>
     <path d="M 8.5 21.578125 
L 8.5 54.6875 
L 17.484375 54.6875 
L 17.484375 21.921875 
Q 17.484375 14.15625 20.5 10.265625 
Q 23.53125 6.390625 29.59375 6.390625 
Q 36.859375 6.390625 41.078125 11.03125 
Q 45.3125 15.671875 45.3125 23.6875 
L 45.3125 54.6875 
L 54.296875 54.6875 
L 54.296875 0 
L 45.3125 0 
L 45.3125 8.40625 
Q 42.046875 3.421875 37.71875 1 
Q 33.40625 -1.421875 27.6875 -1.421875 
Q 18.265625 -1.421875 13.375 4.4375 
Q 8.5 10.296875 8.5 21.578125 
M 31.109375 56 
z
" id="DejaVuSans-75"/>
     <path d="M 56.203125 29.59375 
L 56.203125 25.203125 
L 14.890625 25.203125 
Q 15.484375 15.921875 20.484375 11.0625 
Q 25.484375 6.203125 34.421875 6.203125 
Q 39.59375 6.203125 44.453125 7.46875 
Q 49.3125 8.734375 54.109375 11.28125 
L 54.109375 2.78125 
Q 49.265625 0.734375 44.1875 -0.34375 
Q 39.109375 -1.421875 33.890625 -1.421875 
Q 20.796875 -1.421875 13.15625 6.1875 
Q 5.515625 13.8125 5.515625 26.8125 
Q 5.515625 40.234375 12.765625 48.109375 
Q 20.015625 56 32.328125 56 
Q 43.359375 56 49.78125 48.890625 
Q 56.203125 41.796875 56.203125 29.59375 
M 47.21875 32.234375 
Q 47.125 39.59375 43.09375 43.984375 
Q 39.0625 48.390625 32.421875 48.390625 
Q 24.90625 48.390625 20.390625 44.140625 
Q 15.875 39.890625 15.1875 32.171875 
z
" id="DejaVuSans-65"/>
    </defs>
    <g transform="translate(69.3625 290.746921)scale(0.14 -0.14)">
     <use xlink:href="#DejaVuSans-61"/>
     <use x="61.279297" xlink:href="#DejaVuSans-62"/>
     <use x="124.755859" xlink:href="#DejaVuSans-73"/>
     <use x="176.855469" xlink:href="#DejaVuSans-6f"/>
     <use x="238.037109" xlink:href="#DejaVuSans-6c"/>
     <use x="265.820312" xlink:href="#DejaVuSans-75"/>
     <use x="329.199219" xlink:href="#DejaVuSans-74"/>
     <use x="368.408203" xlink:href="#DejaVuSans-65"/>
     <use x="429.931641" xlink:href="#DejaVuSans-20"/>
     <use x="461.71875" xlink:href="#DejaVuSans-74"/>
     <use x="500.927734" xlink:href="#DejaVuSans-61"/>
     <use x="562.207031" xlink:href="#DejaVuSans-72"/>
     <use x="603.304688" xlink:href="#DejaVuSans-67"/>
     <use x="666.78125" xlink:href="#DejaVuSans-65"/>
     <use x="728.304688" xlink:href="#DejaVuSans-74"/>
     <use x="767.513672" xlink:href="#DejaVuSans-73"/>
    </g>
   </g>
   <g id="text_13">
    <!-- v2.1 -->
    <g style="fill:#808080;" transform="translate(237.011563 273.534858)scale(0.1 -0.1)">
     <use xlink:href="#DejaVuSans-76"/>
     <use x="59.179688" xlink:href="#DejaVuSans-32"/>
     <use x="122.802734" xlink:href="#DejaVuSans-2e"/>
     <use x="154.589844" xlink:href="#DejaVuSans-31"/>
    </g>
   </g>
   <g id="legend_1">
    <g id="patch_7">
     <path d="M 83.3625 145.588665 
L 212.584375 145.588665 
Q 216.584375 145.588665 216.584375 141.588665 
L 216.584375 26.163665 
Q 216.584375 22.163665 212.584375 22.163665 
L 83.3625 22.163665 
Q 79.3625 22.163665 79.3625 26.163665 
L 79.3625 141.588665 
Q 79.3625 145.588665 83.3625 145.588665 
z
" style="fill:#ffffff;opacity:0.2;stroke:#cccccc;stroke-linejoin:miter;"/>
    </g>
    <g id="line2d_79">
     <path d="M 87.3625 38.36054 
L 127.3625 38.36054 
" style="fill:none;stroke:#000000;stroke-linecap:square;stroke-width:1.5;"/>
    </g>
    <g id="line2d_80"/>
    <g id="text_14">
     <!-- 1: 0/5 -->
     <defs>
      <path d="M 11.71875 12.40625 
L 22.015625 12.40625 
L 22.015625 0 
L 11.71875 0 
z
M 11.71875 51.703125 
L 22.015625 51.703125 
L 22.015625 39.3125 
L 11.71875 39.3125 
z
" id="DejaVuSans-3a"/>
     </defs>
     <g transform="translate(143.3625 45.36054)scale(0.2 -0.2)">
      <use xlink:href="#DejaVuSans-31"/>
      <use x="63.623047" xlink:href="#DejaVuSans-3a"/>
      <use x="97.314453" xlink:href="#DejaVuSans-20"/>
      <use x="129.101562" xlink:href="#DejaVuSans-30"/>
      <use x="192.724609" xlink:href="#DejaVuSans-2f"/>
      <use x="226.416016" xlink:href="#DejaVuSans-35"/>
     </g>
    </g>
    <g id="line2d_81">
     <path d="M 87.3625 67.71679 
L 127.3625 67.71679 
" style="fill:none;stroke:#00bfbf;stroke-linecap:square;stroke-width:1.5;"/>
    </g>
    <g id="line2d_82"/>
    <g id="text_15">
     <!-- -1: 0/5 -->
     <g transform="translate(143.3625 74.71679)scale(0.2 -0.2)">
      <use xlink:href="#DejaVuSans-2d"/>
      <use x="36.083984" xlink:href="#DejaVuSans-31"/>
      <use x="99.707031" xlink:href="#DejaVuSans-3a"/>
      <use x="133.398438" xlink:href="#DejaVuSans-20"/>
      <use x="165.185547" xlink:href="#DejaVuSans-30"/>
      <use x="228.808594" xlink:href="#DejaVuSans-2f"/>
      <use x="262.5" xlink:href="#DejaVuSans-35"/>
     </g>
    </g>
    <g id="line2d_83">
     <path d="M 87.3625 97.07304 
L 127.3625 97.07304 
" style="fill:none;stroke:#bf00bf;stroke-linecap:square;stroke-width:1.5;"/>
    </g>
    <g id="line2d_84"/>
    <g id="text_16">
     <!-- -4: 0/5 -->
     <g transform="translate(143.3625 104.07304)scale(0.2 -0.2)">
      <use xlink:href="#DejaVuSans-2d"/>
      <use x="36.083984" xlink:href="#DejaVuSans-34"/>
      <use x="99.707031" xlink:href="#DejaVuSans-3a"/>
      <use x="133.398438" xlink:href="#DejaVuSans-20"/>
      <use x="165.185547" xlink:href="#DejaVuSans-30"/>
      <use x="228.808594" xlink:href="#DejaVuSans-2f"/>
      <use x="262.5" xlink:href="#DejaVuSans-35"/>
     </g>
    </g>
    <g id="line2d_85">
     <path d="M 87.3625 126.42929 
L 127.3625 126.42929 
" style="fill:none;stroke:#ff0000;stroke-linecap:square;stroke-width:3;"/>
    </g>
    <g id="line2d_86"/>
    <g id="text_17">
     <!-- -8: 0/5 -->
     <g transform="translate(143.3625 133.42929)scale(0.2 -0.2)">
      <use xlink:href="#DejaVuSans-2d"/>
      <use x="36.083984" xlink:href="#DejaVuSans-38"/>
      <use x="99.707031" xlink:href="#DejaVuSans-3a"/>
      <use x="133.398438" xlink:href="#DejaVuSans-20"/>
      <use x="165.185547" xlink:href="#DejaVuSans-30"/>
      <use x="228.808594" xlink:href="#DejaVuSans-2f"/>
      <use x="262.5" xlink:href="#DejaVuSans-35"/>
     </g>
    </g>
   </g>
  </g>
 </g>
 <defs>
  <clipPath id="p15fef06bec">
   <rect height="266.112" width="357.12" x="69.3625" y="12.163665"/>
  </clipPath>
 </defs>
</svg>
