<?xml version="1.0" encoding="utf-8" standalone="no"?>
<!DOCTYPE svg PUBLIC "-//W3C//DTD SVG 1.1//EN"
  "http://www.w3.org/Graphics/SVG/1.1/DTD/svg11.dtd">
<!-- Created with matplotlib (http://matplotlib.org/) -->
<svg height="335pt" version="1.1" viewBox="0 0 437 335" width="437pt" xmlns="http://www.w3.org/2000/svg" xmlns:xlink="http://www.w3.org/1999/xlink">
 <defs>
  <style type="text/css">
*{stroke-linecap:butt;stroke-linejoin:round;}
  </style>
 </defs>
 <g id="figure_1">
  <g id="patch_1">
   <path d="M 0 335.188165 
L 437.1825 335.188165 
L 437.1825 0 
L 0 0 
z
" style="fill:#ffffff;"/>
  </g>
  <g id="axes_1">
   <g id="patch_2">
    <path d="M 69.3625 278.275665 
L 426.4825 278.275665 
L 426.4825 12.163665 
L 69.3625 12.163665 
z
" style="fill:#ffffff;"/>
   </g>
   <g id="line2d_1">
    <path clip-path="url(#pce4928ca38)" d="M 246.658882 278.275665 
L 246.658882 273.884378 
L 247.248366 273.884378 
L 247.248366 269.493091 
L 248.706936 269.493091 
L 248.706936 265.101804 
L 249.862585 265.101804 
L 249.862585 260.710517 
L 252.30066 260.710517 
L 252.30066 256.31923 
L 253.572521 256.31923 
L 253.572521 251.927942 
L 254.887395 251.927942 
L 254.887395 247.536655 
L 255.315283 247.536655 
L 255.315283 243.145368 
L 255.569609 243.145368 
L 255.569609 238.754081 
L 255.696105 238.754081 
L 255.696105 234.362794 
L 255.822161 234.362794 
L 255.822161 229.971507 
L 256.610477 229.971507 
L 256.610477 225.58022 
L 256.896636 225.58022 
L 256.896636 221.188933 
L 256.896636 221.188933 
L 256.896636 216.797645 
L 257.860925 216.797645 
L 257.860925 212.406358 
L 258.528748 212.406358 
L 258.528748 208.015071 
L 258.722844 208.015071 
L 258.722844 203.623784 
L 258.761539 203.623784 
L 258.761539 199.232497 
L 259.903555 199.232497 
L 259.903555 194.84121 
L 260.937879 194.84121 
L 260.937879 190.449923 
L 262.990761 190.449923 
L 262.990761 186.058636 
L 271.560449 186.058636 
L 271.560449 181.667348 
L 273.180178 181.667348 
L 273.180178 177.276061 
L 273.33565 177.276061 
L 273.33565 172.884774 
L 279.217362 172.884774 
L 279.217362 168.493487 
L 280.06454 168.493487 
L 280.06454 164.1022 
L 291.961176 164.1022 
L 291.961176 159.710913 
L 302.425147 159.710913 
L 302.425147 155.319626 
L 314.41605 155.319626 
L 314.41605 150.928338 
L 314.41605 150.928338 
L 314.41605 150.928338 
L 426.4825 150.928338 
" style="fill:none;stroke:#f5deb3;stroke-linecap:square;stroke-width:1.5;"/>
   </g>
   <g id="line2d_2">
    <path clip-path="url(#pce4928ca38)" d="M 373.504225 278.275665 
L 373.504225 265.101804 
L 405.340758 265.101804 
L 405.340758 251.927942 
L 410.362 251.927942 
L 410.362 238.754081 
L 410.968492 238.754081 
L 410.968492 225.58022 
L 411.059574 225.58022 
L 411.059574 212.406358 
L 424.302758 212.406358 
L 424.302758 199.232497 
L 424.302758 199.232497 
L 424.302758 199.232497 
L 426.4825 199.232497 
" style="fill:none;stroke:#f5deb3;stroke-linecap:square;stroke-width:1.5;"/>
   </g>
   <g id="line2d_3">
    <path clip-path="url(#pce4928ca38)" d="M 175.564873 278.275665 
L 175.564873 273.884378 
L 209.796101 273.884378 
L 209.796101 269.493091 
L 209.945375 269.493091 
L 209.945375 265.101804 
L 210.682649 265.101804 
L 210.682649 260.710517 
L 212.532111 260.710517 
L 212.532111 256.31923 
L 213.759309 256.31923 
L 213.759309 251.927942 
L 215.075778 251.927942 
L 215.075778 247.536655 
L 216.594835 247.536655 
L 216.594835 243.145368 
L 217.452379 243.145368 
L 217.452379 238.754081 
L 217.693706 238.754081 
L 217.693706 234.362794 
L 217.933434 234.362794 
L 217.933434 229.971507 
L 218.876781 229.971507 
L 218.876781 225.58022 
L 219.454128 225.58022 
L 219.454128 221.188933 
L 220.803312 221.188933 
L 220.803312 216.797645 
L 221.997386 216.797645 
L 221.997386 212.406358 
L 221.997386 212.406358 
L 221.997386 208.015071 
L 224.968694 208.015071 
L 224.968694 203.623784 
L 225.164895 203.623784 
L 225.164895 199.232497 
L 226.130256 199.232497 
L 226.130256 194.84121 
L 227.531678 194.84121 
L 227.531678 190.449923 
L 228.969044 190.449923 
L 228.969044 186.058636 
L 232.967465 186.058636 
L 232.967465 181.667348 
L 233.203289 181.667348 
L 233.203289 177.276061 
L 233.359656 177.276061 
L 233.359656 172.884774 
L 233.359656 172.884774 
L 233.359656 168.493487 
L 233.824745 168.493487 
L 233.824745 164.1022 
L 240.997665 164.1022 
L 240.997665 159.710913 
L 246.766777 159.710913 
L 246.766777 155.319626 
L 246.981608 155.319626 
L 246.981608 150.928338 
L 251.928909 150.928338 
L 251.928909 146.537051 
L 252.439088 146.537051 
L 252.439088 142.145764 
L 253.527859 142.145764 
L 253.527859 137.754477 
L 254.01614 137.754477 
L 254.01614 133.36319 
L 254.367163 133.36319 
L 254.367163 128.971903 
L 255.696105 128.971903 
L 255.696105 124.580616 
L 256.896636 124.580616 
L 256.896636 120.189329 
L 257.261261 120.189329 
L 257.261261 115.798041 
L 265.547821 115.798041 
L 265.547821 111.406754 
L 270.035183 111.406754 
L 270.035183 107.015467 
L 270.56939 107.015467 
L 270.56939 102.62418 
L 271.369856 102.62418 
L 271.369856 98.232893 
L 276.169405 98.232893 
L 276.169405 93.841606 
L 304.745449 93.841606 
L 304.745449 89.450319 
L 309.547909 89.450319 
L 309.547909 85.059032 
L 313.905432 85.059032 
L 313.905432 80.667744 
L 336.492503 80.667744 
L 336.492503 76.276457 
L 336.582729 76.276457 
L 336.582729 71.88517 
L 350.402975 71.88517 
L 350.402975 67.493883 
L 374.554702 67.493883 
L 374.554702 63.102596 
L 375.701159 63.102596 
L 375.701159 58.711309 
L 380.04471 58.711309 
L 380.04471 54.320022 
L 381.433615 54.320022 
L 381.433615 49.928735 
L 383.502107 49.928735 
L 383.502107 45.537447 
L 384.301845 45.537447 
L 384.301845 41.14616 
L 388.953764 41.14616 
L 388.953764 36.754873 
L 389.482179 36.754873 
L 389.482179 32.363586 
L 389.482179 32.363586 
L 389.482179 32.363586 
L 426.4825 32.363586 
" style="fill:none;stroke:#f5deb3;stroke-linecap:square;stroke-width:1.5;"/>
   </g>
   <g id="line2d_4">
    <path clip-path="url(#pce4928ca38)" d="M 219.454128 278.275665 
L 219.454128 273.884378 
L 257.50232 273.884378 
L 257.50232 269.493091 
L 258.528748 269.493091 
L 258.528748 265.101804 
L 264.671606 265.101804 
L 264.671606 260.710517 
L 265.387151 260.710517 
L 265.387151 256.31923 
L 265.57987 256.31923 
L 265.57987 251.927942 
L 265.962256 251.927942 
L 265.962256 247.536655 
L 266.088826 247.536655 
L 266.088826 243.145368 
L 266.151945 243.145368 
L 266.151945 238.754081 
L 266.183463 238.754081 
L 266.183463 234.362794 
L 266.465901 234.362794 
L 266.465901 229.971507 
L 266.652976 229.971507 
L 266.652976 225.58022 
L 266.777157 225.58022 
L 266.777157 221.188933 
L 268.026044 221.188933 
L 268.026044 216.797645 
L 268.264785 216.797645 
L 268.264785 212.406358 
L 270.791982 212.406358 
L 270.791982 208.015071 
L 272.072769 208.015071 
L 272.072769 203.623784 
L 273.232076 203.623784 
L 273.232076 199.232497 
L 273.77256 199.232497 
L 273.77256 194.84121 
L 273.925513 194.84121 
L 273.925513 190.449923 
L 274.805086 190.449923 
L 274.805086 186.058636 
L 274.904261 186.058636 
L 274.904261 181.667348 
L 275.077166 181.667348 
L 275.077166 177.276061 
L 275.663792 177.276061 
L 275.663792 172.884774 
L 276.809271 172.884774 
L 276.809271 168.493487 
L 276.856221 168.493487 
L 276.856221 164.1022 
L 278.79734 164.1022 
L 278.79734 159.710913 
L 279.501963 159.710913 
L 279.501963 155.319626 
L 280.597356 155.319626 
L 280.597356 150.928338 
L 280.618506 150.928338 
L 280.618506 146.537051 
L 280.871352 146.537051 
L 280.871352 142.145764 
L 283.326799 142.145764 
L 283.326799 137.754477 
L 285.069584 137.754477 
L 285.069584 133.36319 
L 286.119969 133.36319 
L 286.119969 128.971903 
L 287.193668 128.971903 
L 287.193668 124.580616 
L 288.270682 124.580616 
L 288.270682 120.189329 
L 288.304897 120.189329 
L 288.304897 115.798041 
L 291.416119 115.798041 
L 291.416119 111.406754 
L 291.8218 111.406754 
L 291.8218 107.015467 
L 292.861806 107.015467 
L 292.861806 102.62418 
L 295.168807 102.62418 
L 295.168807 98.232893 
L 298.748581 98.232893 
L 298.748581 93.841606 
L 300.972509 93.841606 
L 300.972509 89.450319 
L 303.362166 89.450319 
L 303.362166 85.059032 
L 306.556036 85.059032 
L 306.556036 80.667744 
L 306.576686 80.667744 
L 306.576686 76.276457 
L 307.67463 76.276457 
L 307.67463 71.88517 
L 307.914161 71.88517 
L 307.914161 67.493883 
L 309.907441 67.493883 
L 309.907441 63.102596 
L 310.781763 63.102596 
L 310.781763 58.711309 
L 312.223064 58.711309 
L 312.223064 54.320022 
L 312.844707 54.320022 
L 312.844707 49.928735 
L 313.481453 49.928735 
L 313.481453 45.537447 
L 325.858235 45.537447 
L 325.858235 41.14616 
L 327.90205 41.14616 
L 327.90205 36.754873 
L 335.480233 36.754873 
L 335.480233 32.363586 
L 340.206927 32.363586 
L 340.206927 27.972299 
L 342.81727 27.972299 
L 342.81727 23.581012 
L 355.079458 23.581012 
L 355.079458 19.189725 
L 364.527651 19.189725 
L 364.527651 14.798437 
L 364.527651 14.798437 
L 364.527651 14.798437 
L 426.4825 14.798437 
" style="fill:none;stroke:#f5deb3;stroke-linecap:square;stroke-width:1.5;"/>
   </g>
   <g id="line2d_5">
    <path clip-path="url(#pce4928ca38)" d="M 265.063656 278.275665 
L 265.063656 273.884378 
L 280.021574 273.884378 
L 280.021574 269.493091 
L 283.110333 269.493091 
L 283.110333 265.101804 
L 287.03463 265.101804 
L 287.03463 260.710517 
L 288.847975 260.710517 
L 288.847975 256.31923 
L 290.073489 256.31923 
L 290.073489 251.927942 
L 294.309955 251.927942 
L 294.309955 247.536655 
L 294.913284 247.536655 
L 294.913284 243.145368 
L 295.730259 243.145368 
L 295.730259 238.754081 
L 296.406377 238.754081 
L 296.406377 234.362794 
L 297.324221 234.362794 
L 297.324221 229.971507 
L 299.181648 229.971507 
L 299.181648 225.58022 
L 299.883831 225.58022 
L 299.883831 221.188933 
L 300.426146 221.188933 
L 300.426146 216.797645 
L 301.759214 216.797645 
L 301.759214 212.406358 
L 302.816615 212.406358 
L 302.816615 208.015071 
L 303.598283 208.015071 
L 303.598283 203.623784 
L 304.297532 203.623784 
L 304.297532 199.232497 
L 306.74146 199.232497 
L 306.74146 194.84121 
L 307.874349 194.84121 
L 307.874349 190.449923 
L 308.221226 190.449923 
L 308.221226 186.058636 
L 311.229289 186.058636 
L 311.229289 181.667348 
L 312.302457 181.667348 
L 312.302457 177.276061 
L 314.821065 177.276061 
L 314.821065 172.884774 
L 322.694194 172.884774 
L 322.694194 168.493487 
L 323.556735 168.493487 
L 323.556735 164.1022 
L 323.80128 164.1022 
L 323.80128 159.710913 
L 327.844737 159.710913 
L 327.844737 155.319626 
L 332.220982 155.319626 
L 332.220982 150.928338 
L 333.069923 150.928338 
L 333.069923 146.537051 
L 335.228527 146.537051 
L 335.228527 142.145764 
L 337.848956 142.145764 
L 337.848956 137.754477 
L 340.628415 137.754477 
L 340.628415 133.36319 
L 340.733024 133.36319 
L 340.733024 128.971903 
L 341.005198 128.971903 
L 341.005198 124.580616 
L 343.292041 124.580616 
L 343.292041 120.189329 
L 345.457066 120.189329 
L 345.457066 115.798041 
L 346.05853 115.798041 
L 346.05853 111.406754 
L 347.399762 111.406754 
L 347.399762 107.015467 
L 350.748881 107.015467 
L 350.748881 102.62418 
L 352.777817 102.62418 
L 352.777817 98.232893 
L 353.144653 98.232893 
L 353.144653 93.841606 
L 358.319612 93.841606 
L 358.319612 89.450319 
L 366.820775 89.450319 
L 366.820775 85.059032 
L 382.32953 85.059032 
L 382.32953 80.667744 
L 389.510382 80.667744 
L 389.510382 76.276457 
L 419.116276 76.276457 
L 419.116276 71.88517 
L 419.116276 71.88517 
L 419.116276 71.88517 
L 426.4825 71.88517 
" style="fill:none;stroke:#f5deb3;stroke-linecap:square;stroke-width:1.5;"/>
   </g>
   <g id="line2d_6"/>
   <g id="line2d_7">
    <path clip-path="url(#pce4928ca38)" d="M 250.010638 278.275665 
L 250.010638 273.884378 
L 252.393004 273.884378 
L 252.393004 269.493091 
L 253.92785 269.493091 
L 253.92785 265.101804 
L 282.813051 265.101804 
L 282.813051 260.710517 
L 283.910665 260.710517 
L 283.910665 256.31923 
L 284.618033 256.31923 
L 284.618033 251.927942 
L 285.478616 251.927942 
L 285.478616 247.536655 
L 286.065439 247.536655 
L 286.065439 243.145368 
L 286.101802 243.145368 
L 286.101802 238.754081 
L 286.732304 238.754081 
L 286.732304 234.362794 
L 286.945972 234.362794 
L 286.945972 229.971507 
L 287.211296 229.971507 
L 287.211296 225.58022 
L 287.211296 225.58022 
L 287.211296 221.188933 
L 287.492181 221.188933 
L 287.492181 216.797645 
L 287.666634 216.797645 
L 287.666634 212.406358 
L 287.788253 212.406358 
L 287.788253 208.015071 
L 287.822926 208.015071 
L 287.822926 203.623784 
L 287.874874 203.623784 
L 287.874874 199.232497 
L 288.047497 199.232497 
L 288.047497 194.84121 
L 288.287794 194.84121 
L 288.287794 190.449923 
L 288.356158 190.449923 
L 288.356158 186.058636 
L 288.729871 186.058636 
L 288.729871 181.667348 
L 289.366425 181.667348 
L 289.366425 177.276061 
L 289.465918 177.276061 
L 289.465918 172.884774 
L 289.598152 172.884774 
L 289.598152 168.493487 
L 290.316926 168.493487 
L 290.316926 164.1022 
L 290.349261 164.1022 
L 290.349261 159.710913 
L 290.381567 159.710913 
L 290.381567 155.319626 
L 290.942305 155.319626 
L 290.942305 150.928338 
L 292.284314 150.928338 
L 292.284314 146.537051 
L 294.497777 146.537051 
L 294.497777 142.145764 
L 294.698962 142.145764 
L 294.698962 137.754477 
L 296.214486 137.754477 
L 296.214486 133.36319 
L 297.787721 133.36319 
L 297.787721 128.971903 
L 298.063 128.971903 
L 298.063 124.580616 
L 298.167319 124.580616 
L 298.167319 120.189329 
L 298.349158 120.189329 
L 298.349158 115.798041 
L 299.496807 115.798041 
L 299.496807 111.406754 
L 300.0078 111.406754 
L 300.0078 107.015467 
L 300.254471 107.015467 
L 300.254471 102.62418 
L 301.116824 102.62418 
L 301.116824 98.232893 
L 302.494538 98.232893 
L 302.494538 93.841606 
L 318.342851 93.841606 
L 318.342851 89.450319 
L 321.188643 89.450319 
L 321.188643 85.059032 
L 324.838134 85.059032 
L 324.838134 80.667744 
L 326.04559 80.667744 
L 326.04559 76.276457 
L 331.698799 76.276457 
L 331.698799 71.88517 
L 332.590129 71.88517 
L 332.590129 67.493883 
L 336.347671 67.493883 
L 336.347671 63.102596 
L 341.441191 63.102596 
L 341.441191 58.711309 
L 348.98532 58.711309 
L 348.98532 54.320022 
L 350.292077 54.320022 
L 350.292077 49.928735 
L 357.446584 49.928735 
L 357.446584 45.537447 
L 365.397824 45.537447 
L 365.397824 41.14616 
L 369.414653 41.14616 
L 369.414653 36.754873 
L 371.712313 36.754873 
L 371.712313 32.363586 
L 385.974746 32.363586 
L 385.974746 27.972299 
L 392.446372 27.972299 
L 392.446372 23.581012 
L 425.877364 23.581012 
L 425.877364 19.189725 
L 438.1825 19.189725 
" style="fill:none;stroke:#f5deb3;stroke-linecap:square;stroke-width:1.5;"/>
   </g>
   <g id="line2d_8">
    <path clip-path="url(#pce4928ca38)" d="M 365.29605 278.275665 
L 365.29605 273.884378 
L 365.450633 273.884378 
L 365.450633 269.493091 
L 367.4408 269.493091 
L 367.4408 265.101804 
L 368.549402 265.101804 
L 368.549402 260.710517 
L 368.698147 260.710517 
L 368.698147 256.31923 
L 369.298041 256.31923 
L 369.298041 251.927942 
L 369.512753 251.927942 
L 369.512753 247.536655 
L 371.092424 247.536655 
L 371.092424 243.145368 
L 372.214165 243.145368 
L 372.214165 238.754081 
L 372.470866 238.754081 
L 372.470866 234.362794 
L 372.606033 234.362794 
L 372.606033 229.971507 
L 373.05627 229.971507 
L 373.05627 225.58022 
L 374.068484 225.58022 
L 374.068484 221.188933 
L 404.18777 221.188933 
L 404.18777 216.797645 
L 404.875218 216.797645 
L 404.875218 212.406358 
L 405.476707 212.406358 
L 405.476707 208.015071 
L 405.733079 208.015071 
L 405.733079 203.623784 
L 405.88019 203.623784 
L 405.88019 199.232497 
L 406.216096 199.232497 
L 406.216096 194.84121 
L 406.635546 194.84121 
L 406.635546 190.449923 
L 406.874175 190.449923 
L 406.874175 186.058636 
L 406.992903 186.058636 
L 406.992903 181.667348 
L 407.037325 181.667348 
L 407.037325 177.276061 
L 407.304638 177.276061 
L 407.304638 172.884774 
L 407.516695 172.884774 
L 407.516695 168.493487 
L 407.755912 168.493487 
L 407.755912 164.1022 
L 408.146136 164.1022 
L 408.146136 159.710913 
L 408.815085 159.710913 
L 408.815085 155.319626 
L 438.1825 155.319626 
" style="fill:none;stroke:#f5deb3;stroke-linecap:square;stroke-width:1.5;"/>
   </g>
   <g id="line2d_9">
    <path clip-path="url(#pce4928ca38)" d="M 226.320276 278.275665 
L 226.320276 273.884378 
L 242.361483 273.884378 
L 242.361483 269.493091 
L 251.553301 269.493091 
L 251.553301 265.101804 
L 266.151945 265.101804 
L 266.151945 260.710517 
L 268.413202 260.710517 
L 268.413202 256.31923 
L 269.000859 256.31923 
L 269.000859 251.927942 
L 269.77936 251.927942 
L 269.77936 247.536655 
L 269.921707 247.536655 
L 269.921707 243.145368 
L 275.639538 243.145368 
L 275.639538 238.754081 
L 276.715186 238.754081 
L 276.715186 234.362794 
L 278.974786 234.362794 
L 278.974786 229.971507 
L 279.107302 229.971507 
L 279.107302 225.58022 
L 279.327089 225.58022 
L 279.327089 221.188933 
L 281.164123 221.188933 
L 281.164123 216.797645 
L 281.184945 216.797645 
L 281.184945 212.406358 
L 281.681111 212.406358 
L 281.681111 208.015071 
L 281.885857 208.015071 
L 281.885857 203.623784 
L 282.028493 203.623784 
L 282.028493 199.232497 
L 282.089451 199.232497 
L 282.089451 194.84121 
L 282.251505 194.84121 
L 282.251505 190.449923 
L 282.453059 190.449923 
L 282.453059 186.058636 
L 282.633502 186.058636 
L 282.633502 181.667348 
L 282.673479 181.667348 
L 282.673479 177.276061 
L 283.697673 177.276061 
L 283.697673 172.884774 
L 283.910665 172.884774 
L 283.910665 168.493487 
L 284.045556 168.493487 
L 284.045556 164.1022 
L 284.655878 164.1022 
L 284.655878 159.710913 
L 284.994716 159.710913 
L 284.994716 155.319626 
L 285.256081 155.319626 
L 285.256081 150.928338 
L 286.010827 150.928338 
L 286.010827 146.537051 
L 286.047244 146.537051 
L 286.047244 142.145764 
L 286.174418 142.145764 
L 286.174418 137.754477 
L 286.210671 137.754477 
L 286.210671 133.36319 
L 286.768003 133.36319 
L 286.768003 128.971903 
L 286.928215 128.971903 
L 286.928215 124.580616 
L 287.334452 124.580616 
L 287.334452 120.189329 
L 288.2193 120.189329 
L 288.2193 115.798041 
L 288.66221 115.798041 
L 288.66221 111.406754 
L 288.696056 111.406754 
L 288.696056 107.015467 
L 289.149914 107.015467 
L 289.149914 102.62418 
L 289.39962 102.62418 
L 289.39962 98.232893 
L 289.548621 98.232893 
L 289.548621 93.841606 
L 289.926638 93.841606 
L 289.926638 89.450319 
L 290.252169 89.450319 
L 290.252169 85.059032 
L 291.069263 85.059032 
L 291.069263 80.667744 
L 291.541429 80.667744 
L 291.541429 76.276457 
L 291.681886 76.276457 
L 291.681886 71.88517 
L 292.100017 71.88517 
L 292.100017 67.493883 
L 292.786345 67.493883 
L 292.786345 63.102596 
L 294.019083 63.102596 
L 294.019083 58.711309 
L 294.440089 58.711309 
L 294.440089 54.320022 
L 297.150541 54.320022 
L 297.150541 49.928735 
L 297.244164 49.928735 
L 297.244164 45.537447 
L 297.27087 45.537447 
L 297.27087 41.14616 
L 299.821687 41.14616 
L 299.821687 36.754873 
L 302.425147 36.754873 
L 302.425147 32.363586 
L 305.369769 32.363586 
L 305.369769 27.972299 
L 306.213605 27.972299 
L 306.213605 23.581012 
L 319.975942 23.581012 
L 319.975942 19.189725 
L 323.212877 19.189725 
L 323.212877 14.798437 
L 323.212877 14.798437 
L 323.212877 14.798437 
L 426.4825 14.798437 
" style="fill:none;stroke:#f5deb3;stroke-linecap:square;stroke-width:1.5;"/>
   </g>
   <g id="line2d_10">
    <path clip-path="url(#pce4928ca38)" d="M 342.27464 278.275665 
L 342.27464 273.884378 
L 356.474037 273.884378 
L 356.474037 269.493091 
L 362.800623 269.493091 
L 362.800623 265.101804 
L 369.758648 265.101804 
L 369.758648 260.710517 
L 375.435649 260.710517 
L 375.435649 256.31923 
L 380.297439 256.31923 
L 380.297439 251.927942 
L 385.249116 251.927942 
L 385.249116 247.536655 
L 386.206563 247.536655 
L 386.206563 243.145368 
L 386.877519 243.145368 
L 386.877519 238.754081 
L 391.965639 238.754081 
L 391.965639 234.362794 
L 393.737317 234.362794 
L 393.737317 229.971507 
L 433.880203 229.971507 
L 433.880203 225.58022 
L 434.470299 225.58022 
L 434.470299 221.188933 
L 434.618659 221.188933 
L 434.618659 216.797645 
L 436.75792 216.797645 
L 436.75792 212.406358 
L 437.835284 212.406358 
L 437.835284 208.015071 
L 438.1825 208.015071 
" style="fill:none;stroke:#f5deb3;stroke-linecap:square;stroke-width:1.5;"/>
   </g>
   <g id="line2d_11">
    <path clip-path="url(#pce4928ca38)" d="M 227.531678 278.275665 
L 227.531678 273.884378 
L 259.715703 273.884378 
L 259.715703 269.493091 
L 261.587528 269.493091 
L 261.587528 265.101804 
L 262.575473 265.101804 
L 262.575473 260.710517 
L 266.372 260.710517 
L 266.372 256.31923 
L 267.574117 256.31923 
L 267.574117 251.927942 
L 270.204734 251.927942 
L 270.204734 247.536655 
L 270.345421 247.536655 
L 270.345421 243.145368 
L 272.099534 243.145368 
L 272.099534 238.754081 
L 272.498644 238.754081 
L 272.498644 234.362794 
L 273.309784 234.362794 
L 273.309784 229.971507 
L 273.77256 229.971507 
L 273.77256 225.58022 
L 281.392508 225.58022 
L 281.392508 221.188933 
L 286.355322 221.188933 
L 286.355322 216.797645 
L 293.54877 216.797645 
L 293.54877 212.406358 
L 293.666922 212.406358 
L 293.666922 208.015071 
L 309.155946 208.015071 
L 309.155946 203.623784 
L 406.313375 203.623784 
L 406.313375 199.232497 
L 407.946531 199.232497 
L 407.946531 194.84121 
L 417.224716 194.84121 
L 417.224716 190.449923 
L 423.768101 190.449923 
L 423.768101 186.058636 
L 428.818676 186.058636 
L 428.818676 181.667348 
L 429.370701 181.667348 
L 429.370701 177.276061 
L 429.441455 177.276061 
L 429.441455 172.884774 
L 429.484048 172.884774 
L 429.484048 168.493487 
L 429.724126 168.493487 
L 429.724126 164.1022 
L 429.823691 164.1022 
L 429.823691 159.710913 
L 429.900409 159.710913 
L 429.900409 155.319626 
L 430.013136 155.319626 
L 430.013136 150.928338 
L 430.018251 150.928338 
L 430.018251 146.537051 
L 430.064259 146.537051 
L 430.064259 142.145764 
L 430.148625 142.145764 
L 430.148625 137.754477 
L 430.237202 137.754477 
L 430.237202 133.36319 
L 430.340438 133.36319 
L 430.340438 128.971903 
L 430.367805 128.971903 
L 430.367805 124.580616 
L 430.687244 124.580616 
L 430.687244 120.189329 
L 430.748121 120.189329 
L 430.748121 115.798041 
L 431.055289 115.798041 
L 431.055289 111.406754 
L 431.080135 111.406754 
L 431.080135 107.015467 
L 431.299029 107.015467 
L 431.299029 102.62418 
L 431.349356 102.62418 
L 431.349356 98.232893 
L 433.2769 98.232893 
L 433.2769 93.841606 
L 438.1825 93.841606 
" style="fill:none;stroke:#f5deb3;stroke-linecap:square;stroke-width:1.5;"/>
   </g>
   <g id="line2d_12">
    <path clip-path="url(#pce4928ca38)" d="M 215.46156 278.275665 
L 215.46156 273.884378 
L 219.796168 273.884378 
L 219.796168 269.493091 
L 221.132894 269.493091 
L 221.132894 265.101804 
L 221.783191 265.101804 
L 221.783191 260.710517 
L 221.783191 260.710517 
L 221.783191 256.31923 
L 224.273495 256.31923 
L 224.273495 251.927942 
L 225.457216 251.927942 
L 225.457216 247.536655 
L 225.457216 247.536655 
L 225.457216 243.145368 
L 226.03487 243.145368 
L 226.03487 238.754081 
L 227.714501 238.754081 
L 227.714501 234.362794 
L 228.257495 234.362794 
L 228.257495 229.971507 
L 229.319641 229.971507 
L 229.319641 225.58022 
L 229.319641 225.58022 
L 229.319641 221.188933 
L 234.207805 221.188933 
L 234.207805 216.797645 
L 234.662191 216.797645 
L 234.662191 212.406358 
L 234.662191 212.406358 
L 234.662191 208.015071 
L 235.110943 208.015071 
L 235.110943 203.623784 
L 236.852308 203.623784 
L 236.852308 199.232497 
L 237.274868 199.232497 
L 237.274868 194.84121 
L 238.105471 194.84121 
L 238.105471 190.449923 
L 239.3167 190.449923 
L 239.3167 186.058636 
L 242.724686 186.058636 
L 242.724686 181.667348 
L 243.792927 181.667348 
L 243.792927 177.276061 
L 249.912004 177.276061 
L 249.912004 172.884774 
L 252.20808 172.884774 
L 252.20808 168.493487 
L 254.628214 168.493487 
L 254.628214 164.1022 
L 254.628214 164.1022 
L 254.628214 159.710913 
L 254.887395 159.710913 
L 254.887395 155.319626 
L 258.567651 155.319626 
L 258.567651 150.928338 
L 285.570936 150.928338 
L 285.570936 146.537051 
L 295.140504 146.537051 
L 295.140504 142.145764 
L 329.3722 142.145764 
L 329.3722 137.754477 
L 352.633506 137.754477 
L 352.633506 133.36319 
L 381.037292 133.36319 
L 381.037292 128.971903 
L 384.363286 128.971903 
L 384.363286 124.580616 
L 413.608092 124.580616 
L 413.608092 120.189329 
L 414.56132 120.189329 
L 414.56132 115.798041 
L 416.353868 115.798041 
L 416.353868 111.406754 
L 416.840038 111.406754 
L 416.840038 107.015467 
L 419.926102 107.015467 
L 419.926102 102.62418 
L 421.613987 102.62418 
L 421.613987 98.232893 
L 425.966341 98.232893 
L 425.966341 93.841606 
L 438.1825 93.841606 
" style="fill:none;stroke:#f5deb3;stroke-linecap:square;stroke-width:1.5;"/>
   </g>
   <g id="line2d_13">
    <path clip-path="url(#pce4928ca38)" d="M 303.788304 278.275665 
L 303.788304 273.884378 
L 306.772272 273.884378 
L 306.772272 269.493091 
L 313.795674 269.493091 
L 313.795674 265.101804 
L 313.795674 265.101804 
L 313.795674 260.710517 
L 319.241426 260.710517 
L 319.241426 256.31923 
L 322.806439 256.31923 
L 322.806439 251.927942 
L 322.806439 251.927942 
L 322.806439 247.536655 
L 334.975058 247.536655 
L 334.975058 243.145368 
L 334.975058 243.145368 
L 334.975058 238.754081 
L 336.865482 238.754081 
L 336.865482 234.362794 
L 336.865482 234.362794 
L 336.865482 229.971507 
L 339.743332 229.971507 
L 339.743332 225.58022 
L 341.088839 225.58022 
L 341.088839 221.188933 
L 341.382046 221.188933 
L 341.382046 216.797645 
L 344.510379 216.797645 
L 344.510379 212.406358 
L 344.510379 212.406358 
L 344.510379 212.406358 
L 426.4825 212.406358 
" style="fill:none;stroke:#f5deb3;stroke-linecap:square;stroke-width:1.5;"/>
   </g>
   <g id="line2d_14">
    <path clip-path="url(#pce4928ca38)" d="M 243.617062 278.275665 
L 243.617062 273.884378 
L 247.141899 273.884378 
L 247.141899 269.493091 
L 257.341793 269.493091 
L 257.341793 265.101804 
L 260.276358 265.101804 
L 260.276358 260.710517 
L 262.749089 260.710517 
L 262.749089 256.31923 
L 264.008604 256.31923 
L 264.008604 251.927942 
L 266.120399 251.927942 
L 266.120399 247.536655 
L 268.76694 247.536655 
L 268.76694 243.145368 
L 270.006848 243.145368 
L 270.006848 238.754081 
L 273.076158 238.754081 
L 273.076158 234.362794 
L 273.232076 234.362794 
L 273.232076 229.971507 
L 273.644604 229.971507 
L 273.644604 225.58022 
L 274.505919 225.58022 
L 274.505919 221.188933 
L 276.312578 221.188933 
L 276.312578 216.797645 
L 278.101402 216.797645 
L 278.101402 212.406358 
L 282.271711 212.406358 
L 282.271711 208.015071 
L 283.541978 208.015071 
L 283.541978 203.623784 
L 284.523247 203.623784 
L 284.523247 199.232497 
L 287.909464 199.232497 
L 287.909464 194.84121 
L 291.100933 194.84121 
L 291.100933 190.449923 
L 295.168807 190.449923 
L 295.168807 186.058636 
L 295.366307 186.058636 
L 295.366307 181.667348 
L 295.702392 181.667348 
L 295.702392 177.276061 
L 299.371072 177.276061 
L 299.371072 172.884774 
L 299.597081 172.884774 
L 299.597081 168.493487 
L 300.156004 168.493487 
L 300.156004 164.1022 
L 305.005096 164.1022 
L 305.005096 159.710913 
L 309.069334 159.710913 
L 309.069334 155.319626 
L 312.143496 155.319626 
L 312.143496 150.928338 
L 315.416173 150.928338 
L 315.416173 146.537051 
L 317.214266 146.537051 
L 317.214266 142.145764 
L 319.904586 142.145764 
L 319.904586 137.754477 
L 321.932365 137.754477 
L 321.932365 133.36319 
L 327.6088 133.36319 
L 327.6088 128.971903 
L 329.738761 128.971903 
L 329.738761 124.580616 
L 334.290335 124.580616 
L 334.290335 120.189329 
L 338.933311 120.189329 
L 338.933311 115.798041 
L 342.627129 115.798041 
L 342.627129 111.406754 
L 379.979553 111.406754 
L 379.979553 107.015467 
L 380.302826 107.015467 
L 380.302826 102.62418 
L 384.17623 102.62418 
L 384.17623 98.232893 
L 391.375442 98.232893 
L 391.375442 93.841606 
L 396.457817 93.841606 
L 396.457817 89.450319 
L 396.457817 89.450319 
L 396.457817 89.450319 
L 426.4825 89.450319 
" style="fill:none;stroke:#f5deb3;stroke-linecap:square;stroke-width:1.5;"/>
   </g>
   <g id="line2d_15">
    <path clip-path="url(#pce4928ca38)" d="M 409.05503 278.275665 
L 409.05503 273.884378 
L 415.090031 273.884378 
L 415.090031 269.493091 
L 417.56352 269.493091 
L 417.56352 265.101804 
L 421.960731 265.101804 
L 421.960731 260.710517 
L 438.1825 260.710517 
" style="fill:none;stroke:#f5deb3;stroke-linecap:square;stroke-width:1.5;"/>
   </g>
   <g id="line2d_16">
    <path clip-path="url(#pce4928ca38)" d="M 362.881334 278.275665 
L 362.881334 273.884378 
L 363.748969 273.884378 
L 363.748969 269.493091 
L 371.401973 269.493091 
L 371.401973 265.101804 
L 371.534322 265.101804 
L 371.534322 260.710517 
L 373.530212 260.710517 
L 373.530212 256.31923 
L 373.843835 256.31923 
L 373.843835 251.927942 
L 378.057159 251.927942 
L 378.057159 247.536655 
L 378.121577 247.536655 
L 378.121577 243.145368 
L 390.303542 243.145368 
L 390.303542 238.754081 
L 391.182535 238.754081 
L 391.182535 234.362794 
L 392.382771 234.362794 
L 392.382771 229.971507 
L 396.091421 229.971507 
L 396.091421 225.58022 
L 401.886521 225.58022 
L 401.886521 221.188933 
L 438.1825 221.188933 
" style="fill:none;stroke:#f5deb3;stroke-linecap:square;stroke-width:1.5;"/>
   </g>
   <g id="line2d_17">
    <path clip-path="url(#pce4928ca38)" d="M 307.443583 278.275665 
L 307.443583 273.884378 
L 323.310528 273.884378 
L 323.310528 269.493091 
L 324.757019 269.493091 
L 324.757019 265.101804 
L 325.761154 265.101804 
L 325.761154 260.710517 
L 327.522096 260.710517 
L 327.522096 256.31923 
L 327.701056 256.31923 
L 327.701056 251.927942 
L 327.844737 251.927942 
L 327.844737 247.536655 
L 328.644588 247.536655 
L 328.644588 243.145368 
L 329.553209 243.145368 
L 329.553209 238.754081 
L 330.074691 238.754081 
L 330.074691 234.362794 
L 330.128582 234.362794 
L 330.128582 229.971507 
L 330.806114 229.971507 
L 330.806114 225.58022 
L 334.781418 225.58022 
L 334.781418 221.188933 
L 335.298621 221.188933 
L 335.298621 216.797645 
L 342.416815 216.797645 
L 342.416815 212.406358 
L 345.102728 212.406358 
L 345.102728 208.015071 
L 354.789073 208.015071 
L 354.789073 203.623784 
L 357.049433 203.623784 
L 357.049433 199.232497 
L 359.28055 199.232497 
L 359.28055 194.84121 
L 360.141506 194.84121 
L 360.141506 190.449923 
L 360.485358 190.449923 
L 360.485358 186.058636 
L 360.768272 186.058636 
L 360.768272 181.667348 
L 361.019183 181.667348 
L 361.019183 177.276061 
L 362.230549 177.276061 
L 362.230549 172.884774 
L 362.502399 172.884774 
L 362.502399 168.493487 
L 362.528812 168.493487 
L 362.528812 164.1022 
L 362.649625 164.1022 
L 362.649625 159.710913 
L 363.665907 159.710913 
L 363.665907 155.319626 
L 364.226584 155.319626 
L 364.226584 150.928338 
L 364.452618 150.928338 
L 364.452618 146.537051 
L 364.844814 146.537051 
L 364.844814 142.145764 
L 365.204208 142.145764 
L 365.204208 137.754477 
L 365.324575 137.754477 
L 365.324575 133.36319 
L 365.852298 133.36319 
L 365.852298 128.971903 
L 365.878383 128.971903 
L 365.878383 124.580616 
L 366.467287 124.580616 
L 366.467287 120.189329 
L 367.040937 120.189329 
L 367.040937 115.798041 
L 367.481121 115.798041 
L 367.481121 111.406754 
L 369.019573 111.406754 
L 369.019573 107.015467 
L 369.37461 107.015467 
L 369.37461 102.62418 
L 369.889951 102.62418 
L 369.889951 98.232893 
L 370.428141 98.232893 
L 370.428141 93.841606 
L 370.551753 93.841606 
L 370.551753 89.450319 
L 371.443277 89.450319 
L 371.443277 85.059032 
L 374.442467 85.059032 
L 374.442467 80.667744 
L 393.223624 80.667744 
L 393.223624 76.276457 
L 396.981444 76.276457 
L 396.981444 71.88517 
L 397.471634 71.88517 
L 397.471634 67.493883 
L 397.61966 67.493883 
L 397.61966 63.102596 
L 398.842324 63.102596 
L 398.842324 58.711309 
L 399.528879 58.711309 
L 399.528879 54.320022 
L 401.177135 54.320022 
L 401.177135 49.928735 
L 401.273834 49.928735 
L 401.273834 45.537447 
L 402.570628 45.537447 
L 402.570628 41.14616 
L 402.985335 41.14616 
L 402.985335 36.754873 
L 404.870437 36.754873 
L 404.870437 32.363586 
L 407.24903 32.363586 
L 407.24903 27.972299 
L 408.270722 27.972299 
L 408.270722 23.581012 
L 408.700967 23.581012 
L 408.700967 19.189725 
L 408.981933 19.189725 
L 408.981933 14.798437 
L 408.981933 14.798437 
L 408.981933 14.798437 
L 426.4825 14.798437 
" style="fill:none;stroke:#f5deb3;stroke-linecap:square;stroke-width:1.5;"/>
   </g>
   <g id="line2d_18">
    <path clip-path="url(#pce4928ca38)" d="M 219.454128 278.275665 
L 219.454128 273.884378 
L 219.568501 273.884378 
L 219.568501 269.493091 
L 220.803312 269.493091 
L 220.803312 265.101804 
L 222.632471 265.101804 
L 222.632471 260.710517 
L 224.573074 260.710517 
L 224.573074 256.31923 
L 224.968694 256.31923 
L 224.968694 251.927942 
L 225.457216 251.927942 
L 225.457216 247.536655 
L 226.320276 247.536655 
L 226.320276 243.145368 
L 227.2557 243.145368 
L 227.2557 238.754081 
L 228.0774 238.754081 
L 228.0774 234.362794 
L 229.144767 234.362794 
L 229.144767 229.971507 
L 229.319641 229.971507 
L 229.319641 225.58022 
L 231.106553 225.58022 
L 231.106553 221.188933 
L 231.601307 221.188933 
L 231.601307 216.797645 
L 231.764733 216.797645 
L 231.764733 212.406358 
L 233.359656 212.406358 
L 233.359656 208.015071 
L 233.359656 208.015071 
L 233.359656 203.623784 
L 234.283933 203.623784 
L 234.283933 199.232497 
L 235.185197 199.232497 
L 235.185197 194.84121 
L 236.99371 194.84121 
L 236.99371 190.449923 
L 238.513734 190.449923 
L 238.513734 186.058636 
L 242.42227 186.058636 
L 242.42227 181.667348 
L 248.037044 181.667348 
L 248.037044 177.276061 
L 252.896729 177.276061 
L 252.896729 172.884774 
L 253.79501 172.884774 
L 253.79501 168.493487 
L 258.567651 168.493487 
L 258.567651 164.1022 
L 261.264161 164.1022 
L 261.264161 159.710913 
L 261.372271 159.710913 
L 261.372271 155.319626 
L 268.649411 155.319626 
L 268.649411 150.928338 
L 271.777047 150.928338 
L 271.777047 146.537051 
L 279.654288 146.537051 
L 279.654288 142.145764 
L 296.80066 142.145764 
L 296.80066 137.754477 
L 302.448292 137.754477 
L 302.448292 133.36319 
L 309.136717 133.36319 
L 309.136717 128.971903 
L 310.244788 128.971903 
L 310.244788 124.580616 
L 311.716156 124.580616 
L 311.716156 120.189329 
L 312.293644 120.189329 
L 312.293644 115.798041 
L 313.930713 115.798041 
L 313.930713 111.406754 
L 314.399422 111.406754 
L 314.399422 107.015467 
L 315.84219 107.015467 
L 315.84219 102.62418 
L 316.66385 102.62418 
L 316.66385 98.232893 
L 319.226873 98.232893 
L 319.226873 93.841606 
L 320.835345 93.841606 
L 320.835345 89.450319 
L 324.018691 89.450319 
L 324.018691 85.059032 
L 339.114422 85.059032 
L 339.114422 80.667744 
L 339.114422 80.667744 
L 339.114422 80.667744 
L 426.4825 80.667744 
" style="fill:none;stroke:#f5deb3;stroke-linecap:square;stroke-width:1.5;"/>
   </g>
   <g id="line2d_19">
    <path clip-path="url(#pce4928ca38)" d="M 349.39561 278.275665 
L 349.39561 276.811903 
L 349.39561 276.811903 
L 349.39561 276.811903 
L 349.39561 275.34814 
L 349.39561 275.34814 
L 349.39561 275.34814 
L 349.39561 273.884378 
L 349.969784 273.884378 
L 349.969784 269.493091 
L 353.064724 269.493091 
L 353.064724 265.101804 
L 357.350243 265.101804 
L 357.350243 260.710517 
L 360.478373 260.710517 
L 360.478373 256.31923 
L 362.38772 256.31923 
L 362.38772 251.927942 
L 362.585974 251.927942 
L 362.58817 243.145368 
L 363.256343 243.145368 
L 363.256343 238.754081 
L 363.437036 238.754081 
L 363.437036 234.362794 
L 364.585902 234.362794 
L 364.585902 229.971507 
L 365.822176 229.971507 
L 365.822176 225.58022 
L 370.792465 225.58022 
L 370.792465 221.188933 
L 375.065614 221.188933 
L 375.065614 216.797645 
L 375.976877 216.797645 
L 375.976877 212.406358 
L 396.816276 212.406358 
L 396.816276 208.015071 
L 397.636348 208.015071 
L 397.636348 203.623784 
L 399.168442 203.623784 
L 399.168442 199.232497 
L 402.546599 199.232497 
L 402.546599 194.84121 
L 404.791795 194.84121 
L 404.791795 190.449923 
L 405.259077 190.449923 
L 405.259077 186.058636 
L 406.512375 186.058636 
L 406.512375 181.667348 
L 407.767895 181.667348 
L 407.767895 177.276061 
L 409.359833 177.276061 
L 409.359833 172.884774 
L 410.471008 172.884774 
L 410.471008 168.493487 
L 410.855184 168.493487 
L 410.855184 164.1022 
L 411.008296 164.1022 
L 411.008296 159.710913 
L 412.120519 159.710913 
L 412.120519 155.319626 
L 412.472167 155.319626 
L 412.472167 150.928338 
L 415.190333 150.928338 
L 415.190333 146.537051 
L 431.117867 146.537051 
L 431.117867 142.145764 
L 431.6479 142.145764 
L 431.6479 137.754477 
L 432.98589 137.754477 
L 432.98589 133.36319 
L 438.1825 133.36319 
L 438.1825 133.36319 
" style="fill:none;stroke:#f5deb3;stroke-linecap:square;stroke-width:1.5;"/>
   </g>
   <g id="line2d_20">
    <path clip-path="url(#pce4928ca38)" d="M 234.359902 278.275665 
L 234.359902 273.884378 
L 237.623272 273.884378 
L 237.623272 269.493091 
L 238.984293 269.493091 
L 238.984293 265.101804 
L 241.747928 265.101804 
L 241.747928 260.710517 
L 242.784867 260.710517 
L 242.784867 256.31923 
L 243.381238 256.31923 
L 243.381238 251.927942 
L 243.7344 251.927942 
L 243.7344 247.536655 
L 244.142115 247.536655 
L 244.142115 243.145368 
L 245.226166 243.145368 
L 245.226166 238.754081 
L 245.61751 238.754081 
L 245.61751 234.362794 
L 248.604679 234.362794 
L 248.604679 229.971507 
L 249.062577 229.971507 
L 249.062577 225.58022 
L 249.912004 225.58022 
L 249.912004 221.188933 
L 250.693657 221.188933 
L 250.693657 216.797645 
L 250.741954 216.797645 
L 250.741954 212.406358 
L 251.316552 212.406358 
L 251.316552 208.015071 
L 251.411437 208.015071 
L 251.411437 203.623784 
L 254.235928 203.623784 
L 254.235928 199.232497 
L 255.947779 199.232497 
L 255.947779 194.84121 
L 258.216013 194.84121 
L 258.216013 190.449923 
L 259.678016 190.449923 
L 259.678016 186.058636 
L 263.059515 186.058636 
L 263.059515 181.667348 
L 263.435345 181.667348 
L 263.435345 177.276061 
L 269.291148 177.276061 
L 269.291148 172.884774 
L 270.81971 172.884774 
L 270.81971 168.493487 
L 272.788553 168.493487 
L 272.788553 164.1022 
L 274.879492 164.1022 
L 274.879492 159.710913 
L 276.879674 159.710913 
L 276.879674 155.319626 
L 281.578303 155.319626 
L 281.578303 150.928338 
L 284.103213 150.928338 
L 284.103213 146.537051 
L 313.413153 146.537051 
L 313.413153 142.145764 
L 318.758083 142.145764 
L 318.758083 137.754477 
L 323.225913 137.754477 
L 323.225913 133.36319 
L 335.41049 133.36319 
L 335.41049 128.971903 
L 337.371582 128.971903 
L 337.371582 124.580616 
L 347.579773 124.580616 
L 347.579773 120.189329 
L 357.996871 120.189329 
L 357.996871 115.798041 
L 358.803269 115.798041 
L 358.803269 111.406754 
L 360.735919 111.406754 
L 360.735919 107.015467 
L 369.990354 107.015467 
L 369.990354 102.62418 
L 370.725859 102.62418 
L 370.725859 98.232893 
L 374.784408 98.232893 
L 374.784408 93.841606 
L 375.395577 93.841606 
L 375.395577 89.450319 
L 379.033905 89.450319 
L 379.033905 85.059032 
L 379.773811 85.059032 
L 379.773811 80.667744 
L 381.136123 80.667744 
L 381.136123 76.276457 
L 386.094282 76.276457 
L 386.094282 71.88517 
L 388.988739 71.88517 
L 388.988739 67.493883 
L 391.546605 67.493883 
L 391.546605 63.102596 
L 412.701231 63.102596 
L 412.701231 58.711309 
L 414.527332 58.711309 
L 414.527332 54.320022 
L 421.193027 54.320022 
L 421.193027 49.928735 
L 425.089245 49.928735 
L 425.089245 45.537447 
L 425.089245 45.537447 
L 425.089245 45.537447 
L 426.4825 45.537447 
" style="fill:none;stroke:#f5deb3;stroke-linecap:square;stroke-width:1.5;"/>
   </g>
   <g id="line2d_21"/>
   <g id="line2d_22">
    <path clip-path="url(#pce4928ca38)" d="M 227.347927 278.275665 
L 227.347927 273.884378 
L 229.753166 273.884378 
L 229.753166 269.493091 
L 229.925133 269.493091 
L 229.925133 265.101804 
L 233.51535 265.101804 
L 233.51535 260.710517 
L 237.553859 260.710517 
L 237.553859 256.31923 
L 237.830716 256.31923 
L 237.830716 251.927942 
L 238.648805 251.927942 
L 238.648805 247.536655 
L 239.972495 247.536655 
L 239.972495 243.145368 
L 241.249484 243.145368 
L 241.249484 238.754081 
L 243.262747 238.754081 
L 243.262747 234.362794 
L 244.199987 234.362794 
L 244.199987 229.971507 
L 247.671132 229.971507 
L 247.671132 225.58022 
L 247.828405 225.58022 
L 247.828405 221.188933 
L 252.760043 221.188933 
L 252.760043 216.797645 
L 256.445936 216.797645 
L 256.445936 212.406358 
L 258.450817 212.406358 
L 258.450817 208.015071 
L 258.877376 208.015071 
L 258.877376 203.623784 
L 260.015799 203.623784 
L 260.015799 199.232497 
L 261.730324 199.232497 
L 261.730324 194.84121 
L 262.40102 194.84121 
L 262.40102 190.449923 
L 263.401339 190.449923 
L 263.401339 186.058636 
L 264.60585 186.058636 
L 264.60585 181.667348 
L 266.340645 181.667348 
L 266.340645 177.276061 
L 284.919692 177.276061 
L 284.919692 172.884774 
L 285.218858 172.884774 
L 285.218858 168.493487 
L 294.338914 168.493487 
L 294.338914 164.1022 
L 297.137146 164.1022 
L 297.137146 159.710913 
L 298.940279 159.710913 
L 298.940279 155.319626 
L 300.032542 155.319626 
L 300.032542 150.928338 
L 300.863894 150.928338 
L 300.863894 146.537051 
L 301.558207 146.537051 
L 301.558207 142.145764 
L 303.30572 142.145764 
L 303.30572 137.754477 
L 304.451103 137.754477 
L 304.451103 133.36319 
L 306.056876 133.36319 
L 306.056876 128.971903 
L 315.245978 128.971903 
L 315.245978 124.580616 
L 315.496939 124.580616 
L 315.496939 120.189329 
L 318.275671 120.189329 
L 318.275671 115.798041 
L 319.415599 115.798041 
L 319.415599 111.406754 
L 323.427361 111.406754 
L 323.427361 107.015467 
L 325.706432 107.015467 
L 325.706432 102.62418 
L 326.98572 102.62418 
L 326.98572 98.232893 
L 328.840424 98.232893 
L 328.840424 93.841606 
L 329.498453 93.841606 
L 329.498453 89.450319 
L 330.508922 89.450319 
L 330.508922 85.059032 
L 332.700645 85.059032 
L 332.700645 80.667744 
L 343.845558 80.667744 
L 343.845558 76.276457 
L 392.671929 76.276457 
L 392.671929 71.88517 
L 412.96547 71.88517 
L 412.96547 67.493883 
L 418.947669 67.493883 
L 418.947669 63.102596 
L 427.866479 63.102596 
L 427.866479 58.711309 
L 438.1825 58.711309 
" style="fill:none;stroke:#f5deb3;stroke-linecap:square;stroke-width:1.5;"/>
   </g>
   <g id="line2d_23">
    <path clip-path="url(#pce4928ca38)" d="M 324.03144 278.275665 
L 324.03144 273.884378 
L 340.539662 273.884378 
L 340.539662 269.493091 
L 354.586875 269.493091 
L 354.586875 265.101804 
L 360.312671 265.101804 
L 360.312671 260.710517 
L 360.587648 260.710517 
L 360.587648 256.31923 
L 360.782129 256.31923 
L 360.782129 251.927942 
L 360.915806 251.927942 
L 360.915806 247.536655 
L 361.0467 247.536655 
L 361.0467 243.145368 
L 361.775127 243.145368 
L 361.775127 238.754081 
L 362.246075 238.754081 
L 362.246075 234.362794 
L 362.511205 234.362794 
L 362.511205 229.971507 
L 362.774407 229.971507 
L 362.774407 225.58022 
L 363.509919 225.58022 
L 363.509919 221.188933 
L 364.228683 221.188933 
L 364.228683 216.797645 
L 364.348148 216.797645 
L 364.348148 212.406358 
L 364.941688 212.406358 
L 364.941688 208.015071 
L 365.70144 208.015071 
L 365.70144 203.623784 
L 369.34546 203.623784 
L 369.34546 199.232497 
L 428.567882 199.232497 
L 428.567882 194.84121 
L 437.5863 194.84121 
L 437.5863 190.449923 
L 438.1825 190.449923 
" style="fill:none;stroke:#f5deb3;stroke-linecap:square;stroke-width:1.5;"/>
   </g>
   <g id="line2d_24">
    <path clip-path="url(#pce4928ca38)" d="M 248.859782 278.275665 
L 248.859782 273.884378 
L 251.078243 273.884378 
L 251.078243 269.493091 
L 251.835372 269.493091 
L 251.835372 265.101804 
L 258.800193 265.101804 
L 258.800193 260.710517 
L 258.877376 260.710517 
L 258.877376 256.31923 
L 261.300234 256.31923 
L 261.300234 251.927942 
L 264.208783 251.927942 
L 264.208783 247.536655 
L 268.026044 247.536655 
L 268.026044 243.145368 
L 278.439817 243.145368 
L 278.439817 238.754081 
L 282.21106 238.754081 
L 282.21106 234.362794 
L 284.750318 234.362794 
L 284.750318 229.971507 
L 290.958199 229.971507 
L 290.958199 225.58022 
L 298.953023 225.58022 
L 298.953023 221.188933 
L 304.767158 221.188933 
L 304.767158 216.797645 
L 304.929558 216.797645 
L 304.929558 212.406358 
L 305.359096 212.406358 
L 305.359096 208.015071 
L 305.38044 208.015071 
L 305.38044 203.623784 
L 308.905167 203.623784 
L 308.905167 199.232497 
L 309.747039 199.232497 
L 309.747039 194.84121 
L 309.860338 194.84121 
L 309.860338 190.449923 
L 311.545596 190.449923 
L 311.545596 186.058636 
L 313.284742 186.058636 
L 313.284742 181.667348 
L 313.327597 181.667348 
L 313.327597 177.276061 
L 313.897 177.276061 
L 313.897 172.884774 
L 314.014857 172.884774 
L 314.014857 168.493487 
L 314.41605 168.493487 
L 314.41605 164.1022 
L 314.960528 164.1022 
L 314.960528 159.710913 
L 315.633827 159.710913 
L 315.633827 155.319626 
L 315.95389 155.319626 
L 315.95389 150.928338 
L 317.596922 150.928338 
L 317.596922 146.537051 
L 317.718523 146.537051 
L 317.718523 142.145764 
L 317.771595 142.145764 
L 317.771595 137.754477 
L 318.028272 137.754477 
L 318.028272 133.36319 
L 318.543647 133.36319 
L 318.543647 128.971903 
L 318.846445 128.971903 
L 318.846445 124.580616 
L 319.451779 124.580616 
L 319.451779 120.189329 
L 319.574524 120.189329 
L 319.574524 115.798041 
L 319.588938 115.798041 
L 319.588938 111.406754 
L 320.118233 111.406754 
L 320.118233 107.015467 
L 322.348681 107.015467 
L 322.348681 102.62418 
L 323.858957 102.62418 
L 323.858957 98.232893 
L 324.107836 98.232893 
L 324.107836 93.841606 
L 325.006024 93.841606 
L 325.006024 89.450319 
L 325.621143 89.450319 
L 325.621143 85.059032 
L 326.488946 85.059032 
L 326.488946 80.667744 
L 327.219904 80.667744 
L 327.219904 76.276457 
L 327.28404 76.276457 
L 327.28404 71.88517 
L 330.370106 71.88517 
L 330.370106 67.493883 
L 331.132327 67.493883 
L 331.132327 63.102596 
L 332.037541 63.102596 
L 332.037541 58.711309 
L 332.675557 58.711309 
L 332.675557 54.320022 
L 333.410888 54.320022 
L 333.410888 49.928735 
L 333.621761 49.928735 
L 333.621761 45.537447 
L 333.738925 45.537447 
L 333.738925 41.14616 
L 333.870283 41.14616 
L 333.870283 36.754873 
L 333.879995 36.754873 
L 333.879995 32.363586 
L 357.438987 32.363586 
L 357.438987 27.972299 
L 358.38875 27.972299 
L 358.38875 23.581012 
L 358.639501 23.581012 
L 358.639501 19.189725 
L 378.049995 19.189725 
L 378.049995 14.798437 
L 378.049995 14.798437 
L 378.049995 14.798437 
L 426.4825 14.798437 
" style="fill:none;stroke:#f5deb3;stroke-linecap:square;stroke-width:1.5;"/>
   </g>
   <g id="line2d_25">
    <path clip-path="url(#pce4928ca38)" d="M 384.618771 278.275665 
L 384.618771 273.884378 
L 385.389794 273.884378 
L 385.389794 269.493091 
L 386.528859 269.493091 
L 386.528859 265.101804 
L 387.65516 265.101804 
L 387.65516 260.710517 
L 388.045416 260.710517 
L 388.045416 256.31923 
L 388.285991 256.31923 
L 388.285991 251.927942 
L 388.333484 251.927942 
L 388.333484 247.536655 
L 388.709061 247.536655 
L 388.709061 243.145368 
L 388.987679 243.145368 
L 388.987679 238.754081 
L 389.233669 238.754081 
L 389.233669 234.362794 
L 389.392199 234.362794 
L 389.392199 229.971507 
L 389.463364 229.971507 
L 389.463364 225.58022 
L 389.583399 225.58022 
L 389.583399 221.188933 
L 389.731069 221.188933 
L 389.731069 216.797645 
L 391.757219 216.797645 
L 391.757219 212.406358 
L 426.514446 212.406358 
L 426.514446 208.015071 
L 426.956164 208.015071 
L 426.956164 203.623784 
L 427.282387 203.623784 
L 427.282387 199.232497 
L 427.468377 199.232497 
L 427.468377 194.84121 
L 427.744675 194.84121 
L 427.744675 190.449923 
L 428.149822 190.449923 
L 428.149822 186.058636 
L 428.168849 186.058636 
L 428.168849 181.667348 
L 428.194321 181.667348 
L 428.194321 177.276061 
L 428.356421 177.276061 
L 428.356421 172.884774 
L 428.536988 172.884774 
L 428.536988 168.493487 
L 428.760113 168.493487 
L 428.760113 164.1022 
L 429.216925 164.1022 
L 429.216925 159.710913 
L 429.352296 159.710913 
L 429.352296 155.319626 
L 429.537652 155.319626 
L 429.537652 150.928338 
L 429.657712 150.928338 
L 429.657712 146.537051 
L 438.1825 146.537051 
" style="fill:none;stroke:#f5deb3;stroke-linecap:square;stroke-width:1.5;"/>
   </g>
   <g id="line2d_26">
    <path clip-path="url(#pce4928ca38)" d="M 307.524115 278.275665 
L 307.524115 273.884378 
L 309.338115 273.884378 
L 309.338115 269.493091 
L 311.101988 269.493091 
L 311.101988 265.101804 
L 315.84219 265.101804 
L 315.84219 260.710517 
L 316.207918 260.710517 
L 316.207918 256.31923 
L 316.279044 256.31923 
L 316.279044 251.927942 
L 316.483736 251.927942 
L 316.483736 247.536655 
L 316.522967 247.536655 
L 316.522967 243.145368 
L 316.843072 243.145368 
L 316.843072 238.754081 
L 317.206572 238.754081 
L 317.206572 234.362794 
L 317.64257 234.362794 
L 317.64257 229.971507 
L 317.665373 229.971507 
L 317.665373 225.58022 
L 317.885059 225.58022 
L 317.885059 221.188933 
L 318.185903 221.188933 
L 318.185903 216.797645 
L 318.275671 216.797645 
L 318.275671 212.406358 
L 318.320472 212.406358 
L 318.320472 208.015071 
L 318.43967 208.015071 
L 318.43967 203.623784 
L 319.088334 203.623784 
L 319.088334 199.232497 
L 322.780059 199.232497 
L 322.780059 194.84121 
L 322.81303 194.84121 
L 322.81303 190.449923 
L 322.859139 190.449923 
L 322.859139 186.058636 
L 323.042991 186.058636 
L 323.042991 181.667348 
L 323.206358 181.667348 
L 323.206358 177.276061 
L 323.453273 177.276061 
L 323.453273 172.884774 
L 323.524435 172.884774 
L 323.524435 168.493487 
L 323.608356 168.493487 
L 323.608356 164.1022 
L 323.717806 164.1022 
L 323.717806 159.710913 
L 323.724234 159.710913 
L 323.724234 155.319626 
L 323.826926 155.319626 
L 323.826926 150.928338 
L 323.846148 150.928338 
L 323.846148 146.537051 
L 324.13962 146.537051 
L 324.13962 142.145764 
L 324.177724 142.145764 
L 324.177724 137.754477 
L 324.253812 137.754477 
L 324.253812 133.36319 
L 324.279139 133.36319 
L 324.279139 128.971903 
L 324.36133 128.971903 
L 324.36133 124.580616 
L 324.537726 124.580616 
L 324.537726 120.189329 
L 325.302586 120.189329 
L 325.302586 115.798041 
L 325.394765 115.798041 
L 325.394765 111.406754 
L 325.449961 111.406754 
L 325.449961 107.015467 
L 325.492832 107.015467 
L 325.492832 102.62418 
L 325.505072 102.62418 
L 325.505072 98.232893 
L 325.785449 98.232893 
L 325.785449 93.841606 
L 329.405178 93.841606 
L 329.405178 89.450319 
L 329.733317 89.450319 
L 329.733317 85.059032 
L 335.377897 85.059032 
L 335.377897 80.667744 
L 335.457 80.667744 
L 335.457 76.276457 
L 340.308695 76.276457 
L 340.308695 71.88517 
L 346.338353 71.88517 
L 346.338353 67.493883 
L 346.482599 67.493883 
L 346.482599 63.102596 
L 346.516859 63.102596 
L 346.516859 58.711309 
L 348.918087 58.711309 
L 348.918087 54.320022 
L 350.709254 54.320022 
L 350.709254 49.928735 
L 366.624819 49.928735 
L 366.624819 45.537447 
L 392.726428 45.537447 
L 392.726428 41.14616 
L 398.220561 41.14616 
L 398.220561 36.754873 
L 400.147437 36.754873 
L 400.147437 32.363586 
L 400.551448 32.363586 
L 400.551448 27.972299 
L 413.407382 27.972299 
L 413.407382 23.581012 
L 424.394889 23.581012 
L 424.394889 19.189725 
L 424.394889 19.189725 
L 424.394889 19.189725 
L 426.4825 19.189725 
" style="fill:none;stroke:#f5deb3;stroke-linecap:square;stroke-width:1.5;"/>
   </g>
   <g id="line2d_27"/>
   <g id="line2d_28">
    <path clip-path="url(#pce4928ca38)" d="M 237.968354 278.275665 
L 237.968354 273.884378 
L 239.3167 273.884378 
L 239.3167 269.493091 
L 243.55825 269.493091 
L 243.55825 265.101804 
L 249.912004 265.101804 
L 249.912004 260.710517 
L 268.913316 260.710517 
L 268.913316 256.31923 
L 283.580965 256.31923 
L 283.580965 251.927942 
L 287.822926 251.927942 
L 287.822926 247.536655 
L 288.847975 247.536655 
L 288.847975 243.145368 
L 289.01603 243.145368 
L 289.01603 238.754081 
L 290.974086 238.754081 
L 290.974086 234.362794 
L 291.635127 234.362794 
L 291.635127 229.971507 
L 292.268991 229.971507 
L 292.268991 225.58022 
L 293.56356 225.58022 
L 293.56356 221.188933 
L 294.033682 221.188933 
L 294.033682 216.797645 
L 294.411211 216.797645 
L 294.411211 212.406358 
L 294.526586 212.406358 
L 294.526586 208.015071 
L 295.055464 208.015071 
L 295.055464 203.623784 
L 296.021571 203.623784 
L 296.021571 199.232497 
L 298.232367 199.232497 
L 298.232367 194.84121 
L 298.400945 194.84121 
L 298.400945 190.449923 
L 298.568742 190.449923 
L 298.568742 186.058636 
L 299.181648 186.058636 
L 299.181648 181.667348 
L 299.697078 181.667348 
L 299.697078 177.276061 
L 299.759436 177.276061 
L 299.759436 172.884774 
L 299.834124 172.884774 
L 299.834124 168.493487 
L 301.546348 168.493487 
L 301.546348 164.1022 
L 301.735624 164.1022 
L 301.735624 159.710913 
L 302.122907 159.710913 
L 302.122907 155.319626 
L 302.134578 155.319626 
L 302.134578 150.928338 
L 302.482982 150.928338 
L 302.482982 146.537051 
L 303.181227 146.537051 
L 303.181227 142.145764 
L 304.099121 142.145764 
L 304.099121 137.754477 
L 304.352454 137.754477 
L 304.352454 133.36319 
L 304.897136 133.36319 
L 304.897136 128.971903 
L 305.24148 128.971903 
L 305.24148 124.580616 
L 305.836311 124.580616 
L 305.836311 120.189329 
L 307.119654 120.189329 
L 307.119654 115.798041 
L 307.26173 115.798041 
L 307.26173 111.406754 
L 308.496355 111.406754 
L 308.496355 107.015467 
L 309.184771 107.015467 
L 309.184771 102.62418 
L 309.595421 102.62418 
L 309.595421 98.232893 
L 309.728122 98.232893 
L 309.728122 93.841606 
L 310.160745 93.841606 
L 310.160745 89.450319 
L 316.31061 89.450319 
L 316.31061 85.059032 
L 328.650198 85.059032 
L 328.650198 80.667744 
L 329.206858 80.667744 
L 329.206858 76.276457 
L 329.695187 76.276457 
L 329.695187 71.88517 
L 329.809456 71.88517 
L 329.809456 67.493883 
L 330.530231 67.493883 
L 330.530231 63.102596 
L 331.158507 63.102596 
L 331.158507 58.711309 
L 331.460818 58.711309 
L 331.460818 54.320022 
L 331.56448 54.320022 
L 331.56448 49.928735 
L 332.114087 49.928735 
L 332.114087 45.537447 
L 332.805823 45.537447 
L 332.805823 41.14616 
L 345.793999 41.14616 
L 345.793999 36.754873 
L 347.8976 36.754873 
L 347.8976 32.363586 
L 348.780027 32.363586 
L 348.780027 27.972299 
L 349.256188 27.972299 
L 349.256188 23.581012 
L 355.019943 23.581012 
L 355.019943 19.189725 
L 370.738138 19.189725 
L 370.738138 14.798437 
L 370.738138 14.798437 
L 370.738138 14.798437 
L 426.4825 14.798437 
" style="fill:none;stroke:#f5deb3;stroke-linecap:square;stroke-width:1.5;"/>
   </g>
   <g id="line2d_29">
    <path clip-path="url(#pce4928ca38)" d="M 207.319998 278.275665 
L 207.319998 273.884378 
L 207.319998 273.884378 
L 207.319998 269.493091 
L 207.319998 269.493091 
L 207.319998 265.101804 
L 221.132894 265.101804 
L 221.132894 260.710517 
L 221.132894 260.710517 
L 221.132894 256.31923 
L 221.132894 256.31923 
L 221.132894 251.927942 
L 222.422012 251.927942 
L 222.422012 247.536655 
L 222.422012 247.536655 
L 222.422012 243.145368 
L 222.422012 243.145368 
L 222.422012 238.754081 
L 222.737244 238.754081 
L 222.737244 234.362794 
L 222.737244 234.362794 
L 222.737244 229.971507 
L 222.737244 229.971507 
L 222.737244 225.58022 
L 224.771424 225.58022 
L 224.771424 221.188933 
L 224.771424 221.188933 
L 224.771424 216.797645 
L 224.771424 216.797645 
L 224.771424 212.406358 
L 228.0774 212.406358 
L 228.0774 208.015071 
L 228.0774 208.015071 
L 228.0774 203.623784 
L 228.0774 203.623784 
L 228.0774 199.232497 
L 228.347207 199.232497 
L 228.347207 194.84121 
L 228.347207 194.84121 
L 228.347207 190.449923 
L 228.347207 190.449923 
L 228.347207 186.058636 
L 229.753166 186.058636 
L 229.753166 181.667348 
L 229.753166 181.667348 
L 229.753166 177.276061 
L 229.753166 177.276061 
L 229.753166 172.884774 
L 239.117622 172.884774 
L 239.117622 168.493487 
L 239.117622 168.493487 
L 239.117622 164.1022 
L 239.117622 164.1022 
L 239.117622 159.710913 
L 257.900552 159.710913 
L 257.900552 155.319626 
L 257.900552 155.319626 
L 257.900552 150.928338 
L 257.900552 150.928338 
L 257.900552 146.537051 
L 290.073489 146.537051 
L 290.073489 142.145764 
L 290.073489 142.145764 
L 290.073489 137.754477 
L 290.073489 137.754477 
L 290.073489 133.36319 
L 375.9374 133.36319 
L 375.9374 128.971903 
L 375.9374 128.971903 
L 375.9374 128.971903 
L 426.4825 128.971903 
" style="fill:none;stroke:#f5deb3;stroke-linecap:square;stroke-width:1.5;"/>
   </g>
   <g id="line2d_30">
    <path clip-path="url(#pce4928ca38)" d="M 320.096925 278.275665 
L 320.096925 273.884378 
L 342.174398 273.884378 
L 342.174398 269.493091 
L 352.378113 269.493091 
L 352.378113 265.101804 
L 358.0218 265.101804 
L 358.0218 260.710517 
L 370.131522 260.710517 
L 370.131522 256.31923 
L 375.400203 256.31923 
L 375.400203 251.927942 
L 375.400203 251.927942 
L 375.400203 251.927942 
L 426.4825 251.927942 
" style="fill:none;stroke:#f5deb3;stroke-linecap:square;stroke-width:1.5;"/>
   </g>
   <g id="matplotlib.axis_1">
    <g id="xtick_1">
     <g id="line2d_31">
      <path clip-path="url(#pce4928ca38)" d="M 69.3625 278.275665 
L 69.3625 12.163665 
" style="fill:none;stroke:#b0b0b0;stroke-linecap:square;stroke-width:0.8;"/>
     </g>
     <g id="line2d_32">
      <defs>
       <path d="M 0 0 
L 0 3.5 
" id="me6cda0cd67" style="stroke:#000000;stroke-width:0.8;"/>
      </defs>
      <g>
       <use style="stroke:#000000;stroke-width:0.8;" x="69.3625" xlink:href="#me6cda0cd67" y="278.275665"/>
      </g>
     </g>
     <g id="text_1">
      <!-- 0 -->
      <defs>
       <path d="M 31.78125 66.40625 
Q 24.171875 66.40625 20.328125 58.90625 
Q 16.5 51.421875 16.5 36.375 
Q 16.5 21.390625 20.328125 13.890625 
Q 24.171875 6.390625 31.78125 6.390625 
Q 39.453125 6.390625 43.28125 13.890625 
Q 47.125 21.390625 47.125 36.375 
Q 47.125 51.421875 43.28125 58.90625 
Q 39.453125 66.40625 31.78125 66.40625 
M 31.78125 74.21875 
Q 44.046875 74.21875 50.515625 64.515625 
Q 56.984375 54.828125 56.984375 36.375 
Q 56.984375 17.96875 50.515625 8.265625 
Q 44.046875 -1.421875 31.78125 -1.421875 
Q 19.53125 -1.421875 13.0625 8.265625 
Q 6.59375 17.96875 6.59375 36.375 
Q 6.59375 54.828125 13.0625 64.515625 
Q 19.53125 74.21875 31.78125 74.21875 
" id="DejaVuSans-30"/>
      </defs>
      <g transform="translate(63 300.47254)scale(0.2 -0.2)">
       <use xlink:href="#DejaVuSans-30"/>
      </g>
     </g>
    </g>
    <g id="xtick_2">
     <g id="line2d_33">
      <path clip-path="url(#pce4928ca38)" d="M 236.064566 278.275665 
L 236.064566 12.163665 
" style="fill:none;stroke:#b0b0b0;stroke-linecap:square;stroke-width:0.8;"/>
     </g>
     <g id="line2d_34">
      <g>
       <use style="stroke:#000000;stroke-width:0.8;" x="236.064566" xlink:href="#me6cda0cd67" y="278.275665"/>
      </g>
     </g>
     <g id="text_2">
      <!-- 2 -->
      <defs>
       <path d="M 19.1875 8.296875 
L 53.609375 8.296875 
L 53.609375 0 
L 7.328125 0 
L 7.328125 8.296875 
Q 12.9375 14.109375 22.625 23.890625 
Q 32.328125 33.6875 34.8125 36.53125 
Q 39.546875 41.84375 41.421875 45.53125 
Q 43.3125 49.21875 43.3125 52.78125 
Q 43.3125 58.59375 39.234375 62.25 
Q 35.15625 65.921875 28.609375 65.921875 
Q 23.96875 65.921875 18.8125 64.3125 
Q 13.671875 62.703125 7.8125 59.421875 
L 7.8125 69.390625 
Q 13.765625 71.78125 18.9375 73 
Q 24.125 74.21875 28.421875 74.21875 
Q 39.75 74.21875 46.484375 68.546875 
Q 53.21875 62.890625 53.21875 53.421875 
Q 53.21875 48.921875 51.53125 44.890625 
Q 49.859375 40.875 45.40625 35.40625 
Q 44.1875 33.984375 37.640625 27.21875 
Q 31.109375 20.453125 19.1875 8.296875 
" id="DejaVuSans-32"/>
      </defs>
      <g transform="translate(229.702066 300.47254)scale(0.2 -0.2)">
       <use xlink:href="#DejaVuSans-32"/>
      </g>
     </g>
    </g>
    <g id="xtick_3">
     <g id="line2d_35">
      <path clip-path="url(#pce4928ca38)" d="M 402.766631 278.275665 
L 402.766631 12.163665 
" style="fill:none;stroke:#b0b0b0;stroke-linecap:square;stroke-width:0.8;"/>
     </g>
     <g id="line2d_36">
      <g>
       <use style="stroke:#000000;stroke-width:0.8;" x="402.766631" xlink:href="#me6cda0cd67" y="278.275665"/>
      </g>
     </g>
     <g id="text_3">
      <!-- 4 -->
      <defs>
       <path d="M 37.796875 64.3125 
L 12.890625 25.390625 
L 37.796875 25.390625 
z
M 35.203125 72.90625 
L 47.609375 72.90625 
L 47.609375 25.390625 
L 58.015625 25.390625 
L 58.015625 17.1875 
L 47.609375 17.1875 
L 47.609375 0 
L 37.796875 0 
L 37.796875 17.1875 
L 4.890625 17.1875 
L 4.890625 26.703125 
z
" id="DejaVuSans-34"/>
      </defs>
      <g transform="translate(396.404131 300.47254)scale(0.2 -0.2)">
       <use xlink:href="#DejaVuSans-34"/>
      </g>
     </g>
    </g>
    <g id="xtick_4">
     <g id="line2d_37">
      <defs>
       <path d="M 0 0 
L 0 2 
" id="m6cd1d6a192" style="stroke:#000000;stroke-width:0.6;"/>
      </defs>
      <g>
       <use style="stroke:#000000;stroke-width:0.6;" x="94.453661" xlink:href="#m6cd1d6a192" y="278.275665"/>
      </g>
     </g>
    </g>
    <g id="xtick_5">
     <g id="line2d_38">
      <g>
       <use style="stroke:#000000;stroke-width:0.6;" x="109.131049" xlink:href="#m6cd1d6a192" y="278.275665"/>
      </g>
     </g>
    </g>
    <g id="xtick_6">
     <g id="line2d_39">
      <g>
       <use style="stroke:#000000;stroke-width:0.6;" x="119.544822" xlink:href="#m6cd1d6a192" y="278.275665"/>
      </g>
     </g>
    </g>
    <g id="xtick_7">
     <g id="line2d_40">
      <g>
       <use style="stroke:#000000;stroke-width:0.6;" x="127.622372" xlink:href="#m6cd1d6a192" y="278.275665"/>
      </g>
     </g>
    </g>
    <g id="xtick_8">
     <g id="line2d_41">
      <g>
       <use style="stroke:#000000;stroke-width:0.6;" x="134.22221" xlink:href="#m6cd1d6a192" y="278.275665"/>
      </g>
     </g>
    </g>
    <g id="xtick_9">
     <g id="line2d_42">
      <g>
       <use style="stroke:#000000;stroke-width:0.6;" x="139.802295" xlink:href="#m6cd1d6a192" y="278.275665"/>
      </g>
     </g>
    </g>
    <g id="xtick_10">
     <g id="line2d_43">
      <g>
       <use style="stroke:#000000;stroke-width:0.6;" x="144.635983" xlink:href="#m6cd1d6a192" y="278.275665"/>
      </g>
     </g>
    </g>
    <g id="xtick_11">
     <g id="line2d_44">
      <g>
       <use style="stroke:#000000;stroke-width:0.6;" x="148.899599" xlink:href="#m6cd1d6a192" y="278.275665"/>
      </g>
     </g>
    </g>
    <g id="xtick_12">
     <g id="line2d_45">
      <g>
       <use style="stroke:#000000;stroke-width:0.6;" x="177.804694" xlink:href="#m6cd1d6a192" y="278.275665"/>
      </g>
     </g>
    </g>
    <g id="xtick_13">
     <g id="line2d_46">
      <g>
       <use style="stroke:#000000;stroke-width:0.6;" x="192.482082" xlink:href="#m6cd1d6a192" y="278.275665"/>
      </g>
     </g>
    </g>
    <g id="xtick_14">
     <g id="line2d_47">
      <g>
       <use style="stroke:#000000;stroke-width:0.6;" x="202.895855" xlink:href="#m6cd1d6a192" y="278.275665"/>
      </g>
     </g>
    </g>
    <g id="xtick_15">
     <g id="line2d_48">
      <g>
       <use style="stroke:#000000;stroke-width:0.6;" x="210.973405" xlink:href="#m6cd1d6a192" y="278.275665"/>
      </g>
     </g>
    </g>
    <g id="xtick_16">
     <g id="line2d_49">
      <g>
       <use style="stroke:#000000;stroke-width:0.6;" x="217.573243" xlink:href="#m6cd1d6a192" y="278.275665"/>
      </g>
     </g>
    </g>
    <g id="xtick_17">
     <g id="line2d_50">
      <g>
       <use style="stroke:#000000;stroke-width:0.6;" x="223.153327" xlink:href="#m6cd1d6a192" y="278.275665"/>
      </g>
     </g>
    </g>
    <g id="xtick_18">
     <g id="line2d_51">
      <g>
       <use style="stroke:#000000;stroke-width:0.6;" x="227.987016" xlink:href="#m6cd1d6a192" y="278.275665"/>
      </g>
     </g>
    </g>
    <g id="xtick_19">
     <g id="line2d_52">
      <g>
       <use style="stroke:#000000;stroke-width:0.6;" x="232.250632" xlink:href="#m6cd1d6a192" y="278.275665"/>
      </g>
     </g>
    </g>
    <g id="xtick_20">
     <g id="line2d_53">
      <g>
       <use style="stroke:#000000;stroke-width:0.6;" x="261.155727" xlink:href="#m6cd1d6a192" y="278.275665"/>
      </g>
     </g>
    </g>
    <g id="xtick_21">
     <g id="line2d_54">
      <g>
       <use style="stroke:#000000;stroke-width:0.6;" x="275.833115" xlink:href="#m6cd1d6a192" y="278.275665"/>
      </g>
     </g>
    </g>
    <g id="xtick_22">
     <g id="line2d_55">
      <g>
       <use style="stroke:#000000;stroke-width:0.6;" x="286.246888" xlink:href="#m6cd1d6a192" y="278.275665"/>
      </g>
     </g>
    </g>
    <g id="xtick_23">
     <g id="line2d_56">
      <g>
       <use style="stroke:#000000;stroke-width:0.6;" x="294.324438" xlink:href="#m6cd1d6a192" y="278.275665"/>
      </g>
     </g>
    </g>
    <g id="xtick_24">
     <g id="line2d_57">
      <g>
       <use style="stroke:#000000;stroke-width:0.6;" x="300.924276" xlink:href="#m6cd1d6a192" y="278.275665"/>
      </g>
     </g>
    </g>
    <g id="xtick_25">
     <g id="line2d_58">
      <g>
       <use style="stroke:#000000;stroke-width:0.6;" x="306.50436" xlink:href="#m6cd1d6a192" y="278.275665"/>
      </g>
     </g>
    </g>
    <g id="xtick_26">
     <g id="line2d_59">
      <g>
       <use style="stroke:#000000;stroke-width:0.6;" x="311.338049" xlink:href="#m6cd1d6a192" y="278.275665"/>
      </g>
     </g>
    </g>
    <g id="xtick_27">
     <g id="line2d_60">
      <g>
       <use style="stroke:#000000;stroke-width:0.6;" x="315.601665" xlink:href="#m6cd1d6a192" y="278.275665"/>
      </g>
     </g>
    </g>
    <g id="xtick_28">
     <g id="line2d_61">
      <g>
       <use style="stroke:#000000;stroke-width:0.6;" x="344.50676" xlink:href="#m6cd1d6a192" y="278.275665"/>
      </g>
     </g>
    </g>
    <g id="xtick_29">
     <g id="line2d_62">
      <g>
       <use style="stroke:#000000;stroke-width:0.6;" x="359.184148" xlink:href="#m6cd1d6a192" y="278.275665"/>
      </g>
     </g>
    </g>
    <g id="xtick_30">
     <g id="line2d_63">
      <g>
       <use style="stroke:#000000;stroke-width:0.6;" x="369.597921" xlink:href="#m6cd1d6a192" y="278.275665"/>
      </g>
     </g>
    </g>
    <g id="xtick_31">
     <g id="line2d_64">
      <g>
       <use style="stroke:#000000;stroke-width:0.6;" x="377.67547" xlink:href="#m6cd1d6a192" y="278.275665"/>
      </g>
     </g>
    </g>
    <g id="xtick_32">
     <g id="line2d_65">
      <g>
       <use style="stroke:#000000;stroke-width:0.6;" x="384.275309" xlink:href="#m6cd1d6a192" y="278.275665"/>
      </g>
     </g>
    </g>
    <g id="xtick_33">
     <g id="line2d_66">
      <g>
       <use style="stroke:#000000;stroke-width:0.6;" x="389.855393" xlink:href="#m6cd1d6a192" y="278.275665"/>
      </g>
     </g>
    </g>
    <g id="xtick_34">
     <g id="line2d_67">
      <g>
       <use style="stroke:#000000;stroke-width:0.6;" x="394.689082" xlink:href="#m6cd1d6a192" y="278.275665"/>
      </g>
     </g>
    </g>
    <g id="xtick_35">
     <g id="line2d_68">
      <g>
       <use style="stroke:#000000;stroke-width:0.6;" x="398.952697" xlink:href="#m6cd1d6a192" y="278.275665"/>
      </g>
     </g>
    </g>
    <g id="text_4">
     <!-- log10 of FEvals / DIM -->
     <defs>
      <path d="M 9.421875 75.984375 
L 18.40625 75.984375 
L 18.40625 0 
L 9.421875 0 
z
" id="DejaVuSans-6c"/>
      <path d="M 30.609375 48.390625 
Q 23.390625 48.390625 19.1875 42.75 
Q 14.984375 37.109375 14.984375 27.296875 
Q 14.984375 17.484375 19.15625 11.84375 
Q 23.34375 6.203125 30.609375 6.203125 
Q 37.796875 6.203125 41.984375 11.859375 
Q 46.1875 17.53125 46.1875 27.296875 
Q 46.1875 37.015625 41.984375 42.703125 
Q 37.796875 48.390625 30.609375 48.390625 
M 30.609375 56 
Q 42.328125 56 49.015625 48.375 
Q 55.71875 40.765625 55.71875 27.296875 
Q 55.71875 13.875 49.015625 6.21875 
Q 42.328125 -1.421875 30.609375 -1.421875 
Q 18.84375 -1.421875 12.171875 6.21875 
Q 5.515625 13.875 5.515625 27.296875 
Q 5.515625 40.765625 12.171875 48.375 
Q 18.84375 56 30.609375 56 
" id="DejaVuSans-6f"/>
      <path d="M 45.40625 27.984375 
Q 45.40625 37.75 41.375 43.109375 
Q 37.359375 48.484375 30.078125 48.484375 
Q 22.859375 48.484375 18.828125 43.109375 
Q 14.796875 37.75 14.796875 27.984375 
Q 14.796875 18.265625 18.828125 12.890625 
Q 22.859375 7.515625 30.078125 7.515625 
Q 37.359375 7.515625 41.375 12.890625 
Q 45.40625 18.265625 45.40625 27.984375 
M 54.390625 6.78125 
Q 54.390625 -7.171875 48.1875 -13.984375 
Q 42 -20.796875 29.203125 -20.796875 
Q 24.46875 -20.796875 20.265625 -20.09375 
Q 16.0625 -19.390625 12.109375 -17.921875 
L 12.109375 -9.1875 
Q 16.0625 -11.328125 19.921875 -12.34375 
Q 23.78125 -13.375 27.78125 -13.375 
Q 36.625 -13.375 41.015625 -8.765625 
Q 45.40625 -4.15625 45.40625 5.171875 
L 45.40625 9.625 
Q 42.625 4.78125 38.28125 2.390625 
Q 33.9375 0 27.875 0 
Q 17.828125 0 11.671875 7.65625 
Q 5.515625 15.328125 5.515625 27.984375 
Q 5.515625 40.671875 11.671875 48.328125 
Q 17.828125 56 27.875 56 
Q 33.9375 56 38.28125 53.609375 
Q 42.625 51.21875 45.40625 46.390625 
L 45.40625 54.6875 
L 54.390625 54.6875 
z
" id="DejaVuSans-67"/>
      <path d="M 12.40625 8.296875 
L 28.515625 8.296875 
L 28.515625 63.921875 
L 10.984375 60.40625 
L 10.984375 69.390625 
L 28.421875 72.90625 
L 38.28125 72.90625 
L 38.28125 8.296875 
L 54.390625 8.296875 
L 54.390625 0 
L 12.40625 0 
z
" id="DejaVuSans-31"/>
      <path id="DejaVuSans-20"/>
      <path d="M 37.109375 75.984375 
L 37.109375 68.5 
L 28.515625 68.5 
Q 23.6875 68.5 21.796875 66.546875 
Q 19.921875 64.59375 19.921875 59.515625 
L 19.921875 54.6875 
L 34.71875 54.6875 
L 34.71875 47.703125 
L 19.921875 47.703125 
L 19.921875 0 
L 10.890625 0 
L 10.890625 47.703125 
L 2.296875 47.703125 
L 2.296875 54.6875 
L 10.890625 54.6875 
L 10.890625 58.5 
Q 10.890625 67.625 15.140625 71.796875 
Q 19.390625 75.984375 28.609375 75.984375 
z
" id="DejaVuSans-66"/>
      <path d="M 9.8125 72.90625 
L 51.703125 72.90625 
L 51.703125 64.59375 
L 19.671875 64.59375 
L 19.671875 43.109375 
L 48.578125 43.109375 
L 48.578125 34.8125 
L 19.671875 34.8125 
L 19.671875 0 
L 9.8125 0 
z
" id="DejaVuSans-46"/>
      <path d="M 9.8125 72.90625 
L 55.90625 72.90625 
L 55.90625 64.59375 
L 19.671875 64.59375 
L 19.671875 43.015625 
L 54.390625 43.015625 
L 54.390625 34.71875 
L 19.671875 34.71875 
L 19.671875 8.296875 
L 56.78125 8.296875 
L 56.78125 0 
L 9.8125 0 
z
" id="DejaVuSans-45"/>
      <path d="M 2.984375 54.6875 
L 12.5 54.6875 
L 29.59375 8.796875 
L 46.6875 54.6875 
L 56.203125 54.6875 
L 35.6875 0 
L 23.484375 0 
z
" id="DejaVuSans-76"/>
      <path d="M 34.28125 27.484375 
Q 23.390625 27.484375 19.1875 25 
Q 14.984375 22.515625 14.984375 16.5 
Q 14.984375 11.71875 18.140625 8.90625 
Q 21.296875 6.109375 26.703125 6.109375 
Q 34.1875 6.109375 38.703125 11.40625 
Q 43.21875 16.703125 43.21875 25.484375 
L 43.21875 27.484375 
z
M 52.203125 31.203125 
L 52.203125 0 
L 43.21875 0 
L 43.21875 8.296875 
Q 40.140625 3.328125 35.546875 0.953125 
Q 30.953125 -1.421875 24.3125 -1.421875 
Q 15.921875 -1.421875 10.953125 3.296875 
Q 6 8.015625 6 15.921875 
Q 6 25.140625 12.171875 29.828125 
Q 18.359375 34.515625 30.609375 34.515625 
L 43.21875 34.515625 
L 43.21875 35.40625 
Q 43.21875 41.609375 39.140625 45 
Q 35.0625 48.390625 27.6875 48.390625 
Q 23 48.390625 18.546875 47.265625 
Q 14.109375 46.140625 10.015625 43.890625 
L 10.015625 52.203125 
Q 14.9375 54.109375 19.578125 55.046875 
Q 24.21875 56 28.609375 56 
Q 40.484375 56 46.34375 49.84375 
Q 52.203125 43.703125 52.203125 31.203125 
" id="DejaVuSans-61"/>
      <path d="M 44.28125 53.078125 
L 44.28125 44.578125 
Q 40.484375 46.53125 36.375 47.5 
Q 32.28125 48.484375 27.875 48.484375 
Q 21.1875 48.484375 17.84375 46.4375 
Q 14.5 44.390625 14.5 40.28125 
Q 14.5 37.15625 16.890625 35.375 
Q 19.28125 33.59375 26.515625 31.984375 
L 29.59375 31.296875 
Q 39.15625 29.25 43.1875 25.515625 
Q 47.21875 21.78125 47.21875 15.09375 
Q 47.21875 7.46875 41.1875 3.015625 
Q 35.15625 -1.421875 24.609375 -1.421875 
Q 20.21875 -1.421875 15.453125 -0.5625 
Q 10.6875 0.296875 5.421875 2 
L 5.421875 11.28125 
Q 10.40625 8.6875 15.234375 7.390625 
Q 20.0625 6.109375 24.8125 6.109375 
Q 31.15625 6.109375 34.5625 8.28125 
Q 37.984375 10.453125 37.984375 14.40625 
Q 37.984375 18.0625 35.515625 20.015625 
Q 33.0625 21.96875 24.703125 23.78125 
L 21.578125 24.515625 
Q 13.234375 26.265625 9.515625 29.90625 
Q 5.8125 33.546875 5.8125 39.890625 
Q 5.8125 47.609375 11.28125 51.796875 
Q 16.75 56 26.8125 56 
Q 31.78125 56 36.171875 55.265625 
Q 40.578125 54.546875 44.28125 53.078125 
" id="DejaVuSans-73"/>
      <path d="M 25.390625 72.90625 
L 33.6875 72.90625 
L 8.296875 -9.28125 
L 0 -9.28125 
z
" id="DejaVuSans-2f"/>
      <path d="M 19.671875 64.796875 
L 19.671875 8.109375 
L 31.59375 8.109375 
Q 46.6875 8.109375 53.6875 14.9375 
Q 60.6875 21.78125 60.6875 36.53125 
Q 60.6875 51.171875 53.6875 57.984375 
Q 46.6875 64.796875 31.59375 64.796875 
z
M 9.8125 72.90625 
L 30.078125 72.90625 
Q 51.265625 72.90625 61.171875 64.09375 
Q 71.09375 55.28125 71.09375 36.53125 
Q 71.09375 17.671875 61.125 8.828125 
Q 51.171875 0 30.078125 0 
L 9.8125 0 
z
" id="DejaVuSans-44"/>
      <path d="M 9.8125 72.90625 
L 19.671875 72.90625 
L 19.671875 0 
L 9.8125 0 
z
" id="DejaVuSans-49"/>
      <path d="M 9.8125 72.90625 
L 24.515625 72.90625 
L 43.109375 23.296875 
L 61.8125 72.90625 
L 76.515625 72.90625 
L 76.515625 0 
L 66.890625 0 
L 66.890625 64.015625 
L 48.09375 14.015625 
L 38.1875 14.015625 
L 19.390625 64.015625 
L 19.390625 0 
L 9.8125 0 
z
" id="DejaVuSans-4d"/>
     </defs>
     <g transform="translate(142.849063 323.82879)scale(0.2 -0.2)">
      <use xlink:href="#DejaVuSans-6c"/>
      <use x="27.783203" xlink:href="#DejaVuSans-6f"/>
      <use x="88.964844" xlink:href="#DejaVuSans-67"/>
      <use x="152.441406" xlink:href="#DejaVuSans-31"/>
      <use x="216.064453" xlink:href="#DejaVuSans-30"/>
      <use x="279.6875" xlink:href="#DejaVuSans-20"/>
      <use x="311.474609" xlink:href="#DejaVuSans-6f"/>
      <use x="372.65625" xlink:href="#DejaVuSans-66"/>
      <use x="407.861328" xlink:href="#DejaVuSans-20"/>
      <use x="439.648438" xlink:href="#DejaVuSans-46"/>
      <use x="497.167969" xlink:href="#DejaVuSans-45"/>
      <use x="560.351562" xlink:href="#DejaVuSans-76"/>
      <use x="619.53125" xlink:href="#DejaVuSans-61"/>
      <use x="680.810547" xlink:href="#DejaVuSans-6c"/>
      <use x="708.59375" xlink:href="#DejaVuSans-73"/>
      <use x="760.693359" xlink:href="#DejaVuSans-20"/>
      <use x="792.480469" xlink:href="#DejaVuSans-2f"/>
      <use x="826.171875" xlink:href="#DejaVuSans-20"/>
      <use x="857.958984" xlink:href="#DejaVuSans-44"/>
      <use x="934.960938" xlink:href="#DejaVuSans-49"/>
      <use x="964.453125" xlink:href="#DejaVuSans-4d"/>
     </g>
    </g>
   </g>
   <g id="matplotlib.axis_2">
    <g id="ytick_1">
     <g id="line2d_69">
      <path clip-path="url(#pce4928ca38)" d="M 69.3625 278.275665 
L 426.4825 278.275665 
" style="fill:none;stroke:#b0b0b0;stroke-linecap:square;stroke-width:0.8;"/>
     </g>
     <g id="line2d_70">
      <defs>
       <path d="M 0 0 
L -3.5 0 
" id="m55d8983d2d" style="stroke:#000000;stroke-width:0.8;"/>
      </defs>
      <g>
       <use style="stroke:#000000;stroke-width:0.8;" x="69.3625" xlink:href="#m55d8983d2d" y="278.275665"/>
      </g>
     </g>
     <g id="text_5">
      <!-- 0.0 -->
      <defs>
       <path d="M 10.6875 12.40625 
L 21 12.40625 
L 21 0 
L 10.6875 0 
z
" id="DejaVuSans-2e"/>
      </defs>
      <g transform="translate(30.55625 285.874103)scale(0.2 -0.2)">
       <use xlink:href="#DejaVuSans-30"/>
       <use x="63.623047" xlink:href="#DejaVuSans-2e"/>
       <use x="95.410156" xlink:href="#DejaVuSans-30"/>
      </g>
     </g>
    </g>
    <g id="ytick_2">
     <g id="line2d_71">
      <path clip-path="url(#pce4928ca38)" d="M 69.3625 225.58022 
L 426.4825 225.58022 
" style="fill:none;stroke:#b0b0b0;stroke-linecap:square;stroke-width:0.8;"/>
     </g>
     <g id="line2d_72">
      <g>
       <use style="stroke:#000000;stroke-width:0.8;" x="69.3625" xlink:href="#m55d8983d2d" y="225.58022"/>
      </g>
     </g>
     <g id="text_6">
      <!-- 0.2 -->
      <g transform="translate(30.55625 233.178657)scale(0.2 -0.2)">
       <use xlink:href="#DejaVuSans-30"/>
       <use x="63.623047" xlink:href="#DejaVuSans-2e"/>
       <use x="95.410156" xlink:href="#DejaVuSans-32"/>
      </g>
     </g>
    </g>
    <g id="ytick_3">
     <g id="line2d_73">
      <path clip-path="url(#pce4928ca38)" d="M 69.3625 172.884774 
L 426.4825 172.884774 
" style="fill:none;stroke:#b0b0b0;stroke-linecap:square;stroke-width:0.8;"/>
     </g>
     <g id="line2d_74">
      <g>
       <use style="stroke:#000000;stroke-width:0.8;" x="69.3625" xlink:href="#m55d8983d2d" y="172.884774"/>
      </g>
     </g>
     <g id="text_7">
      <!-- 0.4 -->
      <g transform="translate(30.55625 180.483212)scale(0.2 -0.2)">
       <use xlink:href="#DejaVuSans-30"/>
       <use x="63.623047" xlink:href="#DejaVuSans-2e"/>
       <use x="95.410156" xlink:href="#DejaVuSans-34"/>
      </g>
     </g>
    </g>
    <g id="ytick_4">
     <g id="line2d_75">
      <path clip-path="url(#pce4928ca38)" d="M 69.3625 120.189329 
L 426.4825 120.189329 
" style="fill:none;stroke:#b0b0b0;stroke-linecap:square;stroke-width:0.8;"/>
     </g>
     <g id="line2d_76">
      <g>
       <use style="stroke:#000000;stroke-width:0.8;" x="69.3625" xlink:href="#m55d8983d2d" y="120.189329"/>
      </g>
     </g>
     <g id="text_8">
      <!-- 0.6 -->
      <defs>
       <path d="M 33.015625 40.375 
Q 26.375 40.375 22.484375 35.828125 
Q 18.609375 31.296875 18.609375 23.390625 
Q 18.609375 15.53125 22.484375 10.953125 
Q 26.375 6.390625 33.015625 6.390625 
Q 39.65625 6.390625 43.53125 10.953125 
Q 47.40625 15.53125 47.40625 23.390625 
Q 47.40625 31.296875 43.53125 35.828125 
Q 39.65625 40.375 33.015625 40.375 
M 52.59375 71.296875 
L 52.59375 62.3125 
Q 48.875 64.0625 45.09375 64.984375 
Q 41.3125 65.921875 37.59375 65.921875 
Q 27.828125 65.921875 22.671875 59.328125 
Q 17.53125 52.734375 16.796875 39.40625 
Q 19.671875 43.65625 24.015625 45.921875 
Q 28.375 48.1875 33.59375 48.1875 
Q 44.578125 48.1875 50.953125 41.515625 
Q 57.328125 34.859375 57.328125 23.390625 
Q 57.328125 12.15625 50.6875 5.359375 
Q 44.046875 -1.421875 33.015625 -1.421875 
Q 20.359375 -1.421875 13.671875 8.265625 
Q 6.984375 17.96875 6.984375 36.375 
Q 6.984375 53.65625 15.1875 63.9375 
Q 23.390625 74.21875 37.203125 74.21875 
Q 40.921875 74.21875 44.703125 73.484375 
Q 48.484375 72.75 52.59375 71.296875 
" id="DejaVuSans-36"/>
      </defs>
      <g transform="translate(30.55625 127.787766)scale(0.2 -0.2)">
       <use xlink:href="#DejaVuSans-30"/>
       <use x="63.623047" xlink:href="#DejaVuSans-2e"/>
       <use x="95.410156" xlink:href="#DejaVuSans-36"/>
      </g>
     </g>
    </g>
    <g id="ytick_5">
     <g id="line2d_77">
      <path clip-path="url(#pce4928ca38)" d="M 69.3625 67.493883 
L 426.4825 67.493883 
" style="fill:none;stroke:#b0b0b0;stroke-linecap:square;stroke-width:0.8;"/>
     </g>
     <g id="line2d_78">
      <g>
       <use style="stroke:#000000;stroke-width:0.8;" x="69.3625" xlink:href="#m55d8983d2d" y="67.493883"/>
      </g>
     </g>
     <g id="text_9">
      <!-- 0.8 -->
      <defs>
       <path d="M 31.78125 34.625 
Q 24.75 34.625 20.71875 30.859375 
Q 16.703125 27.09375 16.703125 20.515625 
Q 16.703125 13.921875 20.71875 10.15625 
Q 24.75 6.390625 31.78125 6.390625 
Q 38.8125 6.390625 42.859375 10.171875 
Q 46.921875 13.96875 46.921875 20.515625 
Q 46.921875 27.09375 42.890625 30.859375 
Q 38.875 34.625 31.78125 34.625 
M 21.921875 38.8125 
Q 15.578125 40.375 12.03125 44.71875 
Q 8.5 49.078125 8.5 55.328125 
Q 8.5 64.0625 14.71875 69.140625 
Q 20.953125 74.21875 31.78125 74.21875 
Q 42.671875 74.21875 48.875 69.140625 
Q 55.078125 64.0625 55.078125 55.328125 
Q 55.078125 49.078125 51.53125 44.71875 
Q 48 40.375 41.703125 38.8125 
Q 48.828125 37.15625 52.796875 32.3125 
Q 56.78125 27.484375 56.78125 20.515625 
Q 56.78125 9.90625 50.3125 4.234375 
Q 43.84375 -1.421875 31.78125 -1.421875 
Q 19.734375 -1.421875 13.25 4.234375 
Q 6.78125 9.90625 6.78125 20.515625 
Q 6.78125 27.484375 10.78125 32.3125 
Q 14.796875 37.15625 21.921875 38.8125 
M 18.3125 54.390625 
Q 18.3125 48.734375 21.84375 45.5625 
Q 25.390625 42.390625 31.78125 42.390625 
Q 38.140625 42.390625 41.71875 45.5625 
Q 45.3125 48.734375 45.3125 54.390625 
Q 45.3125 60.0625 41.71875 63.234375 
Q 38.140625 66.40625 31.78125 66.40625 
Q 25.390625 66.40625 21.84375 63.234375 
Q 18.3125 60.0625 18.3125 54.390625 
" id="DejaVuSans-38"/>
      </defs>
      <g transform="translate(30.55625 75.092321)scale(0.2 -0.2)">
       <use xlink:href="#DejaVuSans-30"/>
       <use x="63.623047" xlink:href="#DejaVuSans-2e"/>
       <use x="95.410156" xlink:href="#DejaVuSans-38"/>
      </g>
     </g>
    </g>
    <g id="ytick_6">
     <g id="line2d_79">
      <path clip-path="url(#pce4928ca38)" d="M 69.3625 14.798437 
L 426.4825 14.798437 
" style="fill:none;stroke:#b0b0b0;stroke-linecap:square;stroke-width:0.8;"/>
     </g>
     <g id="line2d_80">
      <g>
       <use style="stroke:#000000;stroke-width:0.8;" x="69.3625" xlink:href="#m55d8983d2d" y="14.798437"/>
      </g>
     </g>
     <g id="text_10">
      <!-- 1.0 -->
      <g transform="translate(30.55625 22.396875)scale(0.2 -0.2)">
       <use xlink:href="#DejaVuSans-31"/>
       <use x="63.623047" xlink:href="#DejaVuSans-2e"/>
       <use x="95.410156" xlink:href="#DejaVuSans-30"/>
      </g>
     </g>
    </g>
    <g id="text_11">
     <!-- proportion of trials -->
     <defs>
      <path d="M 18.109375 8.203125 
L 18.109375 -20.796875 
L 9.078125 -20.796875 
L 9.078125 54.6875 
L 18.109375 54.6875 
L 18.109375 46.390625 
Q 20.953125 51.265625 25.265625 53.625 
Q 29.59375 56 35.59375 56 
Q 45.5625 56 51.78125 48.09375 
Q 58.015625 40.1875 58.015625 27.296875 
Q 58.015625 14.40625 51.78125 6.484375 
Q 45.5625 -1.421875 35.59375 -1.421875 
Q 29.59375 -1.421875 25.265625 0.953125 
Q 20.953125 3.328125 18.109375 8.203125 
M 48.6875 27.296875 
Q 48.6875 37.203125 44.609375 42.84375 
Q 40.53125 48.484375 33.40625 48.484375 
Q 26.265625 48.484375 22.1875 42.84375 
Q 18.109375 37.203125 18.109375 27.296875 
Q 18.109375 17.390625 22.1875 11.75 
Q 26.265625 6.109375 33.40625 6.109375 
Q 40.53125 6.109375 44.609375 11.75 
Q 48.6875 17.390625 48.6875 27.296875 
" id="DejaVuSans-70"/>
      <path d="M 41.109375 46.296875 
Q 39.59375 47.171875 37.8125 47.578125 
Q 36.03125 48 33.890625 48 
Q 26.265625 48 22.1875 43.046875 
Q 18.109375 38.09375 18.109375 28.8125 
L 18.109375 0 
L 9.078125 0 
L 9.078125 54.6875 
L 18.109375 54.6875 
L 18.109375 46.1875 
Q 20.953125 51.171875 25.484375 53.578125 
Q 30.03125 56 36.53125 56 
Q 37.453125 56 38.578125 55.875 
Q 39.703125 55.765625 41.0625 55.515625 
z
" id="DejaVuSans-72"/>
      <path d="M 18.3125 70.21875 
L 18.3125 54.6875 
L 36.8125 54.6875 
L 36.8125 47.703125 
L 18.3125 47.703125 
L 18.3125 18.015625 
Q 18.3125 11.328125 20.140625 9.421875 
Q 21.96875 7.515625 27.59375 7.515625 
L 36.8125 7.515625 
L 36.8125 0 
L 27.59375 0 
Q 17.1875 0 13.234375 3.875 
Q 9.28125 7.765625 9.28125 18.015625 
L 9.28125 47.703125 
L 2.6875 47.703125 
L 2.6875 54.6875 
L 9.28125 54.6875 
L 9.28125 70.21875 
z
" id="DejaVuSans-74"/>
      <path d="M 9.421875 54.6875 
L 18.40625 54.6875 
L 18.40625 0 
L 9.421875 0 
z
M 9.421875 75.984375 
L 18.40625 75.984375 
L 18.40625 64.59375 
L 9.421875 64.59375 
z
" id="DejaVuSans-69"/>
      <path d="M 54.890625 33.015625 
L 54.890625 0 
L 45.90625 0 
L 45.90625 32.71875 
Q 45.90625 40.484375 42.875 44.328125 
Q 39.84375 48.1875 33.796875 48.1875 
Q 26.515625 48.1875 22.3125 43.546875 
Q 18.109375 38.921875 18.109375 30.90625 
L 18.109375 0 
L 9.078125 0 
L 9.078125 54.6875 
L 18.109375 54.6875 
L 18.109375 46.1875 
Q 21.34375 51.125 25.703125 53.5625 
Q 30.078125 56 35.796875 56 
Q 45.21875 56 50.046875 50.171875 
Q 54.890625 44.34375 54.890625 33.015625 
" id="DejaVuSans-6e"/>
     </defs>
     <g transform="translate(22.396875 238.44779)rotate(-90)scale(0.2 -0.2)">
      <use xlink:href="#DejaVuSans-70"/>
      <use x="63.476562" xlink:href="#DejaVuSans-72"/>
      <use x="104.558594" xlink:href="#DejaVuSans-6f"/>
      <use x="165.740234" xlink:href="#DejaVuSans-70"/>
      <use x="229.216797" xlink:href="#DejaVuSans-6f"/>
      <use x="290.398438" xlink:href="#DejaVuSans-72"/>
      <use x="331.511719" xlink:href="#DejaVuSans-74"/>
      <use x="370.720703" xlink:href="#DejaVuSans-69"/>
      <use x="398.503906" xlink:href="#DejaVuSans-6f"/>
      <use x="459.685547" xlink:href="#DejaVuSans-6e"/>
      <use x="523.064453" xlink:href="#DejaVuSans-20"/>
      <use x="554.851562" xlink:href="#DejaVuSans-6f"/>
      <use x="616.033203" xlink:href="#DejaVuSans-66"/>
      <use x="651.238281" xlink:href="#DejaVuSans-20"/>
      <use x="683.025391" xlink:href="#DejaVuSans-74"/>
      <use x="722.234375" xlink:href="#DejaVuSans-72"/>
      <use x="763.347656" xlink:href="#DejaVuSans-69"/>
      <use x="791.130859" xlink:href="#DejaVuSans-61"/>
      <use x="852.410156" xlink:href="#DejaVuSans-6c"/>
      <use x="880.193359" xlink:href="#DejaVuSans-73"/>
     </g>
    </g>
   </g>
   <g id="line2d_81">
    <path clip-path="url(#pce4928ca38)" d="M 103.950957 278.275665 
L 103.950957 273.884378 
L 199.481913 273.884378 
L 199.481913 269.493091 
L 206.673572 269.493091 
L 206.673572 265.101804 
L 306.442252 265.101804 
L 306.442252 260.710517 
L 306.823567 260.710517 
L 306.823567 256.31923 
L 337.168217 256.31923 
L 337.168217 251.927942 
L 345.411198 251.927942 
L 345.411198 247.536655 
L 375.704217 247.536655 
L 375.704217 243.145368 
L 386.998593 243.145368 
L 386.998593 238.754081 
L 387.803231 238.754081 
L 387.803231 234.362794 
L 387.803231 234.362794 
L 387.803231 234.362794 
L 426.4825 234.362794 
" style="fill:none;stroke:#000000;stroke-linecap:square;stroke-width:1.5;"/>
   </g>
   <g id="line2d_82"/>
   <g id="line2d_83"/>
   <g id="line2d_84"/>
   <g id="line2d_85"/>
   <g id="line2d_86">
    <path clip-path="url(#pce4928ca38)" d="M 426.452031 278.275665 
L 426.452031 12.163665 
" style="fill:none;stroke:#000000;stroke-linecap:square;stroke-width:1.5;"/>
   </g>
   <g id="patch_3">
    <path d="M 69.3625 278.275665 
L 69.3625 12.163665 
" style="fill:none;stroke:#000000;stroke-linecap:square;stroke-linejoin:miter;stroke-width:0.8;"/>
   </g>
   <g id="patch_4">
    <path d="M 426.4825 278.275665 
L 426.4825 12.163665 
" style="fill:none;stroke:#000000;stroke-linecap:square;stroke-linejoin:miter;stroke-width:0.8;"/>
   </g>
   <g id="patch_5">
    <path d="M 69.3625 278.275665 
L 426.4825 278.275665 
" style="fill:none;stroke:#000000;stroke-linecap:square;stroke-linejoin:miter;stroke-width:0.8;"/>
   </g>
   <g id="patch_6">
    <path d="M 69.3625 12.163665 
L 426.4825 12.163665 
" style="fill:none;stroke:#000000;stroke-linecap:square;stroke-linejoin:miter;stroke-width:0.8;"/>
   </g>
   <g id="text_12">
    <!-- {f6-f9}, 5-D -->
    <defs>
     <path d="M 51.125 -9.28125 
L 51.125 -16.3125 
L 48.09375 -16.3125 
Q 35.9375 -16.3125 31.8125 -12.6875 
Q 27.6875 -9.078125 27.6875 1.703125 
L 27.6875 13.375 
Q 27.6875 20.75 25.046875 23.578125 
Q 22.40625 26.421875 15.484375 26.421875 
L 12.5 26.421875 
L 12.5 33.40625 
L 15.484375 33.40625 
Q 22.46875 33.40625 25.078125 36.203125 
Q 27.6875 39.015625 27.6875 46.296875 
L 27.6875 58.015625 
Q 27.6875 68.796875 31.8125 72.390625 
Q 35.9375 75.984375 48.09375 75.984375 
L 51.125 75.984375 
L 51.125 69 
L 47.796875 69 
Q 40.921875 69 38.8125 66.84375 
Q 36.71875 64.703125 36.71875 57.8125 
L 36.71875 45.703125 
Q 36.71875 38.03125 34.5 34.5625 
Q 32.28125 31.109375 26.90625 29.890625 
Q 32.328125 28.5625 34.515625 25.09375 
Q 36.71875 21.625 36.71875 14.015625 
L 36.71875 1.90625 
Q 36.71875 -4.984375 38.8125 -7.125 
Q 40.921875 -9.28125 47.796875 -9.28125 
z
" id="DejaVuSans-7b"/>
     <path d="M 4.890625 31.390625 
L 31.203125 31.390625 
L 31.203125 23.390625 
L 4.890625 23.390625 
z
" id="DejaVuSans-2d"/>
     <path d="M 10.984375 1.515625 
L 10.984375 10.5 
Q 14.703125 8.734375 18.5 7.8125 
Q 22.3125 6.890625 25.984375 6.890625 
Q 35.75 6.890625 40.890625 13.453125 
Q 46.046875 20.015625 46.78125 33.40625 
Q 43.953125 29.203125 39.59375 26.953125 
Q 35.25 24.703125 29.984375 24.703125 
Q 19.046875 24.703125 12.671875 31.3125 
Q 6.296875 37.9375 6.296875 49.421875 
Q 6.296875 60.640625 12.9375 67.421875 
Q 19.578125 74.21875 30.609375 74.21875 
Q 43.265625 74.21875 49.921875 64.515625 
Q 56.59375 54.828125 56.59375 36.375 
Q 56.59375 19.140625 48.40625 8.859375 
Q 40.234375 -1.421875 26.421875 -1.421875 
Q 22.703125 -1.421875 18.890625 -0.6875 
Q 15.09375 0.046875 10.984375 1.515625 
M 30.609375 32.421875 
Q 37.25 32.421875 41.125 36.953125 
Q 45.015625 41.5 45.015625 49.421875 
Q 45.015625 57.28125 41.125 61.84375 
Q 37.25 66.40625 30.609375 66.40625 
Q 23.96875 66.40625 20.09375 61.84375 
Q 16.21875 57.28125 16.21875 49.421875 
Q 16.21875 41.5 20.09375 36.953125 
Q 23.96875 32.421875 30.609375 32.421875 
" id="DejaVuSans-39"/>
     <path d="M 12.5 -9.28125 
L 15.921875 -9.28125 
Q 22.75 -9.28125 24.828125 -7.171875 
Q 26.90625 -5.078125 26.90625 1.90625 
L 26.90625 14.015625 
Q 26.90625 21.625 29.09375 25.09375 
Q 31.296875 28.5625 36.71875 29.890625 
Q 31.296875 31.109375 29.09375 34.5625 
Q 26.90625 38.03125 26.90625 45.703125 
L 26.90625 57.8125 
Q 26.90625 64.75 24.828125 66.875 
Q 22.75 69 15.921875 69 
L 12.5 69 
L 12.5 75.984375 
L 15.578125 75.984375 
Q 27.734375 75.984375 31.8125 72.390625 
Q 35.890625 68.796875 35.890625 58.015625 
L 35.890625 46.296875 
Q 35.890625 39.015625 38.515625 36.203125 
Q 41.15625 33.40625 48.09375 33.40625 
L 51.125 33.40625 
L 51.125 26.421875 
L 48.09375 26.421875 
Q 41.15625 26.421875 38.515625 23.578125 
Q 35.890625 20.75 35.890625 13.375 
L 35.890625 1.703125 
Q 35.890625 -9.078125 31.8125 -12.6875 
Q 27.734375 -16.3125 15.578125 -16.3125 
L 12.5 -16.3125 
z
" id="DejaVuSans-7d"/>
     <path d="M 11.71875 12.40625 
L 22.015625 12.40625 
L 22.015625 4 
L 14.015625 -11.625 
L 7.71875 -11.625 
L 11.71875 4 
z
" id="DejaVuSans-2c"/>
     <path d="M 10.796875 72.90625 
L 49.515625 72.90625 
L 49.515625 64.59375 
L 19.828125 64.59375 
L 19.828125 46.734375 
Q 21.96875 47.46875 24.109375 47.828125 
Q 26.265625 48.1875 28.421875 48.1875 
Q 40.625 48.1875 47.75 41.5 
Q 54.890625 34.8125 54.890625 23.390625 
Q 54.890625 11.625 47.5625 5.09375 
Q 40.234375 -1.421875 26.90625 -1.421875 
Q 22.3125 -1.421875 17.546875 -0.640625 
Q 12.796875 0.140625 7.71875 1.703125 
L 7.71875 11.625 
Q 12.109375 9.234375 16.796875 8.0625 
Q 21.484375 6.890625 26.703125 6.890625 
Q 35.15625 6.890625 40.078125 11.328125 
Q 45.015625 15.765625 45.015625 23.390625 
Q 45.015625 31 40.078125 35.4375 
Q 35.15625 39.890625 26.703125 39.890625 
Q 22.75 39.890625 18.8125 39.015625 
Q 14.890625 38.140625 10.796875 36.28125 
z
" id="DejaVuSans-35"/>
    </defs>
    <g transform="translate(187.7975 32.68278)scale(0.2 -0.2)">
     <use xlink:href="#DejaVuSans-7b"/>
     <use x="63.623047" xlink:href="#DejaVuSans-66"/>
     <use x="98.828125" xlink:href="#DejaVuSans-36"/>
     <use x="162.451172" xlink:href="#DejaVuSans-2d"/>
     <use x="198.535156" xlink:href="#DejaVuSans-66"/>
     <use x="233.740234" xlink:href="#DejaVuSans-39"/>
     <use x="297.363281" xlink:href="#DejaVuSans-7d"/>
     <use x="360.986328" xlink:href="#DejaVuSans-2c"/>
     <use x="392.773438" xlink:href="#DejaVuSans-20"/>
     <use x="424.560547" xlink:href="#DejaVuSans-35"/>
     <use x="488.183594" xlink:href="#DejaVuSans-2d"/>
     <use x="524.267578" xlink:href="#DejaVuSans-44"/>
    </g>
   </g>
   <g id="text_13">
    <!-- absolute targets -->
    <defs>
     <path d="M 48.6875 27.296875 
Q 48.6875 37.203125 44.609375 42.84375 
Q 40.53125 48.484375 33.40625 48.484375 
Q 26.265625 48.484375 22.1875 42.84375 
Q 18.109375 37.203125 18.109375 27.296875 
Q 18.109375 17.390625 22.1875 11.75 
Q 26.265625 6.109375 33.40625 6.109375 
Q 40.53125 6.109375 44.609375 11.75 
Q 48.6875 17.390625 48.6875 27.296875 
M 18.109375 46.390625 
Q 20.953125 51.265625 25.265625 53.625 
Q 29.59375 56 35.59375 56 
Q 45.5625 56 51.78125 48.09375 
Q 58.015625 40.1875 58.015625 27.296875 
Q 58.015625 14.40625 51.78125 6.484375 
Q 45.5625 -1.421875 35.59375 -1.421875 
Q 29.59375 -1.421875 25.265625 0.953125 
Q 20.953125 3.328125 18.109375 8.203125 
L 18.109375 0 
L 9.078125 0 
L 9.078125 75.984375 
L 18.109375 75.984375 
z
" id="DejaVuSans-62"/>
     <path d="M 8.5 21.578125 
L 8.5 54.6875 
L 17.484375 54.6875 
L 17.484375 21.921875 
Q 17.484375 14.15625 20.5 10.265625 
Q 23.53125 6.390625 29.59375 6.390625 
Q 36.859375 6.390625 41.078125 11.03125 
Q 45.3125 15.671875 45.3125 23.6875 
L 45.3125 54.6875 
L 54.296875 54.6875 
L 54.296875 0 
L 45.3125 0 
L 45.3125 8.40625 
Q 42.046875 3.421875 37.71875 1 
Q 33.40625 -1.421875 27.6875 -1.421875 
Q 18.265625 -1.421875 13.375 4.4375 
Q 8.5 10.296875 8.5 21.578125 
M 31.109375 56 
z
" id="DejaVuSans-75"/>
     <path d="M 56.203125 29.59375 
L 56.203125 25.203125 
L 14.890625 25.203125 
Q 15.484375 15.921875 20.484375 11.0625 
Q 25.484375 6.203125 34.421875 6.203125 
Q 39.59375 6.203125 44.453125 7.46875 
Q 49.3125 8.734375 54.109375 11.28125 
L 54.109375 2.78125 
Q 49.265625 0.734375 44.1875 -0.34375 
Q 39.109375 -1.421875 33.890625 -1.421875 
Q 20.796875 -1.421875 13.15625 6.1875 
Q 5.515625 13.8125 5.515625 26.8125 
Q 5.515625 40.234375 12.765625 48.109375 
Q 20.015625 56 32.328125 56 
Q 43.359375 56 49.78125 48.890625 
Q 56.203125 41.796875 56.203125 29.59375 
M 47.21875 32.234375 
Q 47.125 39.59375 43.09375 43.984375 
Q 39.0625 48.390625 32.421875 48.390625 
Q 24.90625 48.390625 20.390625 44.140625 
Q 15.875 39.890625 15.1875 32.171875 
z
" id="DejaVuSans-65"/>
    </defs>
    <g transform="translate(69.3625 291.449527)scale(0.14 -0.14)">
     <use xlink:href="#DejaVuSans-61"/>
     <use x="61.279297" xlink:href="#DejaVuSans-62"/>
     <use x="124.755859" xlink:href="#DejaVuSans-73"/>
     <use x="176.855469" xlink:href="#DejaVuSans-6f"/>
     <use x="238.037109" xlink:href="#DejaVuSans-6c"/>
     <use x="265.820312" xlink:href="#DejaVuSans-75"/>
     <use x="329.199219" xlink:href="#DejaVuSans-74"/>
     <use x="368.408203" xlink:href="#DejaVuSans-65"/>
     <use x="429.931641" xlink:href="#DejaVuSans-20"/>
     <use x="461.71875" xlink:href="#DejaVuSans-74"/>
     <use x="500.927734" xlink:href="#DejaVuSans-61"/>
     <use x="562.207031" xlink:href="#DejaVuSans-72"/>
     <use x="603.304688" xlink:href="#DejaVuSans-67"/>
     <use x="666.78125" xlink:href="#DejaVuSans-65"/>
     <use x="728.304688" xlink:href="#DejaVuSans-74"/>
     <use x="767.513672" xlink:href="#DejaVuSans-73"/>
    </g>
   </g>
   <g id="text_14">
    <!-- v2.1 -->
    <g style="fill:#808080;" transform="translate(237.011563 273.534858)scale(0.1 -0.1)">
     <use xlink:href="#DejaVuSans-76"/>
     <use x="59.179688" xlink:href="#DejaVuSans-32"/>
     <use x="122.802734" xlink:href="#DejaVuSans-2e"/>
     <use x="154.589844" xlink:href="#DejaVuSans-31"/>
    </g>
   </g>
   <g id="legend_1">
    <g id="patch_7">
     <path d="M 83.3625 145.588665 
L 212.584375 145.588665 
Q 216.584375 145.588665 216.584375 141.588665 
L 216.584375 26.163665 
Q 216.584375 22.163665 212.584375 22.163665 
L 83.3625 22.163665 
Q 79.3625 22.163665 79.3625 26.163665 
L 79.3625 141.588665 
Q 79.3625 145.588665 83.3625 145.588665 
z
" style="fill:#ffffff;opacity:0.2;stroke:#cccccc;stroke-linejoin:miter;"/>
    </g>
    <g id="line2d_87">
     <path d="M 87.3625 38.36054 
L 127.3625 38.36054 
" style="fill:none;stroke:#000000;stroke-linecap:square;stroke-width:1.5;"/>
    </g>
    <g id="line2d_88"/>
    <g id="text_15">
     <!-- 1: 2/4 -->
     <defs>
      <path d="M 11.71875 12.40625 
L 22.015625 12.40625 
L 22.015625 0 
L 11.71875 0 
z
M 11.71875 51.703125 
L 22.015625 51.703125 
L 22.015625 39.3125 
L 11.71875 39.3125 
z
" id="DejaVuSans-3a"/>
     </defs>
     <g transform="translate(143.3625 45.36054)scale(0.2 -0.2)">
      <use xlink:href="#DejaVuSans-31"/>
      <use x="63.623047" xlink:href="#DejaVuSans-3a"/>
      <use x="97.314453" xlink:href="#DejaVuSans-20"/>
      <use x="129.101562" xlink:href="#DejaVuSans-32"/>
      <use x="192.724609" xlink:href="#DejaVuSans-2f"/>
      <use x="226.416016" xlink:href="#DejaVuSans-34"/>
     </g>
    </g>
    <g id="line2d_89">
     <path d="M 87.3625 67.71679 
L 127.3625 67.71679 
" style="fill:none;stroke:#00bfbf;stroke-linecap:square;stroke-width:1.5;"/>
    </g>
    <g id="line2d_90"/>
    <g id="text_16">
     <!-- -1: 0/4 -->
     <g transform="translate(143.3625 74.71679)scale(0.2 -0.2)">
      <use xlink:href="#DejaVuSans-2d"/>
      <use x="36.083984" xlink:href="#DejaVuSans-31"/>
      <use x="99.707031" xlink:href="#DejaVuSans-3a"/>
      <use x="133.398438" xlink:href="#DejaVuSans-20"/>
      <use x="165.185547" xlink:href="#DejaVuSans-30"/>
      <use x="228.808594" xlink:href="#DejaVuSans-2f"/>
      <use x="262.5" xlink:href="#DejaVuSans-34"/>
     </g>
    </g>
    <g id="line2d_91">
     <path d="M 87.3625 97.07304 
L 127.3625 97.07304 
" style="fill:none;stroke:#bf00bf;stroke-linecap:square;stroke-width:1.5;"/>
    </g>
    <g id="line2d_92"/>
    <g id="text_17">
     <!-- -4: 0/4 -->
     <g transform="translate(143.3625 104.07304)scale(0.2 -0.2)">
      <use xlink:href="#DejaVuSans-2d"/>
      <use x="36.083984" xlink:href="#DejaVuSans-34"/>
      <use x="99.707031" xlink:href="#DejaVuSans-3a"/>
      <use x="133.398438" xlink:href="#DejaVuSans-20"/>
      <use x="165.185547" xlink:href="#DejaVuSans-30"/>
      <use x="228.808594" xlink:href="#DejaVuSans-2f"/>
      <use x="262.5" xlink:href="#DejaVuSans-34"/>
     </g>
    </g>
    <g id="line2d_93">
     <path d="M 87.3625 126.42929 
L 127.3625 126.42929 
" style="fill:none;stroke:#ff0000;stroke-linecap:square;stroke-width:3;"/>
    </g>
    <g id="line2d_94"/>
    <g id="text_18">
     <!-- -8: 0/4 -->
     <g transform="translate(143.3625 133.42929)scale(0.2 -0.2)">
      <use xlink:href="#DejaVuSans-2d"/>
      <use x="36.083984" xlink:href="#DejaVuSans-38"/>
      <use x="99.707031" xlink:href="#DejaVuSans-3a"/>
      <use x="133.398438" xlink:href="#DejaVuSans-20"/>
      <use x="165.185547" xlink:href="#DejaVuSans-30"/>
      <use x="228.808594" xlink:href="#DejaVuSans-2f"/>
      <use x="262.5" xlink:href="#DejaVuSans-34"/>
     </g>
    </g>
   </g>
  </g>
 </g>
 <defs>
  <clipPath id="pce4928ca38">
   <rect height="266.112" width="357.12" x="69.3625" y="12.163665"/>
  </clipPath>
 </defs>
</svg>
