<?xml version="1.0" encoding="utf-8" standalone="no"?>
<!DOCTYPE svg PUBLIC "-//W3C//DTD SVG 1.1//EN"
  "http://www.w3.org/Graphics/SVG/1.1/DTD/svg11.dtd">
<!-- Created with matplotlib (http://matplotlib.org/) -->
<svg height="353pt" version="1.1" viewBox="0 0 441 353" width="441pt" xmlns="http://www.w3.org/2000/svg" xmlns:xlink="http://www.w3.org/1999/xlink">
 <defs>
  <style type="text/css">
*{stroke-linecap:butt;stroke-linejoin:round;}
  </style>
 </defs>
 <g id="figure_1">
  <g id="patch_1">
   <path d="M -0 353.22225 
L 441.802544 353.22225 
L 441.802544 0 
L -0 0 
z
" style="fill:#ffffff;"/>
  </g>
  <g id="axes_1">
   <g id="patch_2">
    <path d="M 73.113325 298.245375 
L 430.233325 298.245375 
L 430.233325 32.133375 
L 73.113325 32.133375 
z
" style="fill:#ffffff;"/>
   </g>
   <g id="matplotlib.axis_1">
    <g id="xtick_1">
     <g id="line2d_1">
      <path clip-path="url(#p0ee5c76965)" d="M 73.113325 298.245375 
L 73.113325 32.133375 
" style="fill:none;stroke:#b0b0b0;stroke-linecap:square;stroke-width:0.8;"/>
     </g>
     <g id="line2d_2">
      <defs>
       <path d="M 0 0 
L 0 3.5 
" id="m2dc16ddfe5" style="stroke:#000000;stroke-width:0.8;"/>
      </defs>
      <g>
       <use style="stroke:#000000;stroke-width:0.8;" x="73.113325" xlink:href="#m2dc16ddfe5" y="298.245375"/>
      </g>
     </g>
     <g id="text_1">
      <!-- 0 -->
      <defs>
       <path d="M 31.78125 66.40625 
Q 24.171875 66.40625 20.328125 58.90625 
Q 16.5 51.421875 16.5 36.375 
Q 16.5 21.390625 20.328125 13.890625 
Q 24.171875 6.390625 31.78125 6.390625 
Q 39.453125 6.390625 43.28125 13.890625 
Q 47.125 21.390625 47.125 36.375 
Q 47.125 51.421875 43.28125 58.90625 
Q 39.453125 66.40625 31.78125 66.40625 
M 31.78125 74.21875 
Q 44.046875 74.21875 50.515625 64.515625 
Q 56.984375 54.828125 56.984375 36.375 
Q 56.984375 17.96875 50.515625 8.265625 
Q 44.046875 -1.421875 31.78125 -1.421875 
Q 19.53125 -1.421875 13.0625 8.265625 
Q 6.59375 17.96875 6.59375 36.375 
Q 6.59375 54.828125 13.0625 64.515625 
Q 19.53125 74.21875 31.78125 74.21875 
" id="DejaVuSans-30"/>
      </defs>
      <g transform="translate(66.750825 320.44225)scale(0.2 -0.2)">
       <use xlink:href="#DejaVuSans-30"/>
      </g>
     </g>
    </g>
    <g id="xtick_2">
     <g id="line2d_3">
      <path clip-path="url(#p0ee5c76965)" d="M 155.39904 298.245375 
L 155.39904 32.133375 
" style="fill:none;stroke:#b0b0b0;stroke-linecap:square;stroke-width:0.8;"/>
     </g>
     <g id="line2d_4">
      <g>
       <use style="stroke:#000000;stroke-width:0.8;" x="155.39904" xlink:href="#m2dc16ddfe5" y="298.245375"/>
      </g>
     </g>
     <g id="text_2">
      <!-- 2 -->
      <defs>
       <path d="M 19.1875 8.296875 
L 53.609375 8.296875 
L 53.609375 0 
L 7.328125 0 
L 7.328125 8.296875 
Q 12.9375 14.109375 22.625 23.890625 
Q 32.328125 33.6875 34.8125 36.53125 
Q 39.546875 41.84375 41.421875 45.53125 
Q 43.3125 49.21875 43.3125 52.78125 
Q 43.3125 58.59375 39.234375 62.25 
Q 35.15625 65.921875 28.609375 65.921875 
Q 23.96875 65.921875 18.8125 64.3125 
Q 13.671875 62.703125 7.8125 59.421875 
L 7.8125 69.390625 
Q 13.765625 71.78125 18.9375 73 
Q 24.125 74.21875 28.421875 74.21875 
Q 39.75 74.21875 46.484375 68.546875 
Q 53.21875 62.890625 53.21875 53.421875 
Q 53.21875 48.921875 51.53125 44.890625 
Q 49.859375 40.875 45.40625 35.40625 
Q 44.1875 33.984375 37.640625 27.21875 
Q 31.109375 20.453125 19.1875 8.296875 
" id="DejaVuSans-32"/>
      </defs>
      <g transform="translate(149.03654 320.44225)scale(0.2 -0.2)">
       <use xlink:href="#DejaVuSans-32"/>
      </g>
     </g>
    </g>
    <g id="xtick_3">
     <g id="line2d_5">
      <path clip-path="url(#p0ee5c76965)" d="M 237.684754 298.245375 
L 237.684754 32.133375 
" style="fill:none;stroke:#b0b0b0;stroke-linecap:square;stroke-width:0.8;"/>
     </g>
     <g id="line2d_6">
      <g>
       <use style="stroke:#000000;stroke-width:0.8;" x="237.684754" xlink:href="#m2dc16ddfe5" y="298.245375"/>
      </g>
     </g>
     <g id="text_3">
      <!-- 4 -->
      <defs>
       <path d="M 37.796875 64.3125 
L 12.890625 25.390625 
L 37.796875 25.390625 
z
M 35.203125 72.90625 
L 47.609375 72.90625 
L 47.609375 25.390625 
L 58.015625 25.390625 
L 58.015625 17.1875 
L 47.609375 17.1875 
L 47.609375 0 
L 37.796875 0 
L 37.796875 17.1875 
L 4.890625 17.1875 
L 4.890625 26.703125 
z
" id="DejaVuSans-34"/>
      </defs>
      <g transform="translate(231.322254 320.44225)scale(0.2 -0.2)">
       <use xlink:href="#DejaVuSans-34"/>
      </g>
     </g>
    </g>
    <g id="xtick_4">
     <g id="line2d_7">
      <path clip-path="url(#p0ee5c76965)" d="M 319.970468 298.245375 
L 319.970468 32.133375 
" style="fill:none;stroke:#b0b0b0;stroke-linecap:square;stroke-width:0.8;"/>
     </g>
     <g id="line2d_8">
      <g>
       <use style="stroke:#000000;stroke-width:0.8;" x="319.970468" xlink:href="#m2dc16ddfe5" y="298.245375"/>
      </g>
     </g>
     <g id="text_4">
      <!-- 6 -->
      <defs>
       <path d="M 33.015625 40.375 
Q 26.375 40.375 22.484375 35.828125 
Q 18.609375 31.296875 18.609375 23.390625 
Q 18.609375 15.53125 22.484375 10.953125 
Q 26.375 6.390625 33.015625 6.390625 
Q 39.65625 6.390625 43.53125 10.953125 
Q 47.40625 15.53125 47.40625 23.390625 
Q 47.40625 31.296875 43.53125 35.828125 
Q 39.65625 40.375 33.015625 40.375 
M 52.59375 71.296875 
L 52.59375 62.3125 
Q 48.875 64.0625 45.09375 64.984375 
Q 41.3125 65.921875 37.59375 65.921875 
Q 27.828125 65.921875 22.671875 59.328125 
Q 17.53125 52.734375 16.796875 39.40625 
Q 19.671875 43.65625 24.015625 45.921875 
Q 28.375 48.1875 33.59375 48.1875 
Q 44.578125 48.1875 50.953125 41.515625 
Q 57.328125 34.859375 57.328125 23.390625 
Q 57.328125 12.15625 50.6875 5.359375 
Q 44.046875 -1.421875 33.015625 -1.421875 
Q 20.359375 -1.421875 13.671875 8.265625 
Q 6.984375 17.96875 6.984375 36.375 
Q 6.984375 53.65625 15.1875 63.9375 
Q 23.390625 74.21875 37.203125 74.21875 
Q 40.921875 74.21875 44.703125 73.484375 
Q 48.484375 72.75 52.59375 71.296875 
" id="DejaVuSans-36"/>
      </defs>
      <g transform="translate(313.607968 320.44225)scale(0.2 -0.2)">
       <use xlink:href="#DejaVuSans-36"/>
      </g>
     </g>
    </g>
    <g id="xtick_5">
     <g id="line2d_9">
      <path clip-path="url(#p0ee5c76965)" d="M 402.256183 298.245375 
L 402.256183 32.133375 
" style="fill:none;stroke:#b0b0b0;stroke-linecap:square;stroke-width:0.8;"/>
     </g>
     <g id="line2d_10">
      <g>
       <use style="stroke:#000000;stroke-width:0.8;" x="402.256183" xlink:href="#m2dc16ddfe5" y="298.245375"/>
      </g>
     </g>
     <g id="text_5">
      <!-- 8 -->
      <defs>
       <path d="M 31.78125 34.625 
Q 24.75 34.625 20.71875 30.859375 
Q 16.703125 27.09375 16.703125 20.515625 
Q 16.703125 13.921875 20.71875 10.15625 
Q 24.75 6.390625 31.78125 6.390625 
Q 38.8125 6.390625 42.859375 10.171875 
Q 46.921875 13.96875 46.921875 20.515625 
Q 46.921875 27.09375 42.890625 30.859375 
Q 38.875 34.625 31.78125 34.625 
M 21.921875 38.8125 
Q 15.578125 40.375 12.03125 44.71875 
Q 8.5 49.078125 8.5 55.328125 
Q 8.5 64.0625 14.71875 69.140625 
Q 20.953125 74.21875 31.78125 74.21875 
Q 42.671875 74.21875 48.875 69.140625 
Q 55.078125 64.0625 55.078125 55.328125 
Q 55.078125 49.078125 51.53125 44.71875 
Q 48 40.375 41.703125 38.8125 
Q 48.828125 37.15625 52.796875 32.3125 
Q 56.78125 27.484375 56.78125 20.515625 
Q 56.78125 9.90625 50.3125 4.234375 
Q 43.84375 -1.421875 31.78125 -1.421875 
Q 19.734375 -1.421875 13.25 4.234375 
Q 6.78125 9.90625 6.78125 20.515625 
Q 6.78125 27.484375 10.78125 32.3125 
Q 14.796875 37.15625 21.921875 38.8125 
M 18.3125 54.390625 
Q 18.3125 48.734375 21.84375 45.5625 
Q 25.390625 42.390625 31.78125 42.390625 
Q 38.140625 42.390625 41.71875 45.5625 
Q 45.3125 48.734375 45.3125 54.390625 
Q 45.3125 60.0625 41.71875 63.234375 
Q 38.140625 66.40625 31.78125 66.40625 
Q 25.390625 66.40625 21.84375 63.234375 
Q 18.3125 60.0625 18.3125 54.390625 
" id="DejaVuSans-38"/>
      </defs>
      <g transform="translate(395.893683 320.44225)scale(0.2 -0.2)">
       <use xlink:href="#DejaVuSans-38"/>
      </g>
     </g>
    </g>
    <g id="xtick_6">
     <g id="line2d_11">
      <defs>
       <path d="M 0 0 
L 0 2 
" id="mde8e1550a8" style="stroke:#000000;stroke-width:0.6;"/>
      </defs>
      <g>
       <use style="stroke:#000000;stroke-width:0.6;" x="85.498559" xlink:href="#mde8e1550a8" y="298.245375"/>
      </g>
     </g>
    </g>
    <g id="xtick_7">
     <g id="line2d_12">
      <g>
       <use style="stroke:#000000;stroke-width:0.6;" x="97.883794" xlink:href="#mde8e1550a8" y="298.245375"/>
      </g>
     </g>
    </g>
    <g id="xtick_8">
     <g id="line2d_13">
      <g>
       <use style="stroke:#000000;stroke-width:0.6;" x="105.128691" xlink:href="#mde8e1550a8" y="298.245375"/>
      </g>
     </g>
    </g>
    <g id="xtick_9">
     <g id="line2d_14">
      <g>
       <use style="stroke:#000000;stroke-width:0.6;" x="110.269028" xlink:href="#mde8e1550a8" y="298.245375"/>
      </g>
     </g>
    </g>
    <g id="xtick_10">
     <g id="line2d_15">
      <g>
       <use style="stroke:#000000;stroke-width:0.6;" x="167.784274" xlink:href="#mde8e1550a8" y="298.245375"/>
      </g>
     </g>
    </g>
    <g id="xtick_11">
     <g id="line2d_16">
      <g>
       <use style="stroke:#000000;stroke-width:0.6;" x="180.169508" xlink:href="#mde8e1550a8" y="298.245375"/>
      </g>
     </g>
    </g>
    <g id="xtick_12">
     <g id="line2d_17">
      <g>
       <use style="stroke:#000000;stroke-width:0.6;" x="187.414405" xlink:href="#mde8e1550a8" y="298.245375"/>
      </g>
     </g>
    </g>
    <g id="xtick_13">
     <g id="line2d_18">
      <g>
       <use style="stroke:#000000;stroke-width:0.6;" x="192.554742" xlink:href="#mde8e1550a8" y="298.245375"/>
      </g>
     </g>
    </g>
    <g id="xtick_14">
     <g id="line2d_19">
      <g>
       <use style="stroke:#000000;stroke-width:0.6;" x="250.069988" xlink:href="#mde8e1550a8" y="298.245375"/>
      </g>
     </g>
    </g>
    <g id="xtick_15">
     <g id="line2d_20">
      <g>
       <use style="stroke:#000000;stroke-width:0.6;" x="262.455222" xlink:href="#mde8e1550a8" y="298.245375"/>
      </g>
     </g>
    </g>
    <g id="xtick_16">
     <g id="line2d_21">
      <g>
       <use style="stroke:#000000;stroke-width:0.6;" x="269.70012" xlink:href="#mde8e1550a8" y="298.245375"/>
      </g>
     </g>
    </g>
    <g id="xtick_17">
     <g id="line2d_22">
      <g>
       <use style="stroke:#000000;stroke-width:0.6;" x="274.840456" xlink:href="#mde8e1550a8" y="298.245375"/>
      </g>
     </g>
    </g>
    <g id="xtick_18">
     <g id="line2d_23">
      <g>
       <use style="stroke:#000000;stroke-width:0.6;" x="332.355702" xlink:href="#mde8e1550a8" y="298.245375"/>
      </g>
     </g>
    </g>
    <g id="xtick_19">
     <g id="line2d_24">
      <g>
       <use style="stroke:#000000;stroke-width:0.6;" x="344.740936" xlink:href="#mde8e1550a8" y="298.245375"/>
      </g>
     </g>
    </g>
    <g id="xtick_20">
     <g id="line2d_25">
      <g>
       <use style="stroke:#000000;stroke-width:0.6;" x="351.985834" xlink:href="#mde8e1550a8" y="298.245375"/>
      </g>
     </g>
    </g>
    <g id="xtick_21">
     <g id="line2d_26">
      <g>
       <use style="stroke:#000000;stroke-width:0.6;" x="357.126171" xlink:href="#mde8e1550a8" y="298.245375"/>
      </g>
     </g>
    </g>
    <g id="xtick_22">
     <g id="line2d_27">
      <g>
       <use style="stroke:#000000;stroke-width:0.6;" x="414.641417" xlink:href="#mde8e1550a8" y="298.245375"/>
      </g>
     </g>
    </g>
    <g id="xtick_23">
     <g id="line2d_28">
      <g>
       <use style="stroke:#000000;stroke-width:0.6;" x="427.026651" xlink:href="#mde8e1550a8" y="298.245375"/>
      </g>
     </g>
    </g>
    <g id="text_6">
     <!-- log10 of (# f-evals / dimension) -->
     <defs>
      <path d="M 9.421875 75.984375 
L 18.40625 75.984375 
L 18.40625 0 
L 9.421875 0 
z
" id="DejaVuSans-6c"/>
      <path d="M 30.609375 48.390625 
Q 23.390625 48.390625 19.1875 42.75 
Q 14.984375 37.109375 14.984375 27.296875 
Q 14.984375 17.484375 19.15625 11.84375 
Q 23.34375 6.203125 30.609375 6.203125 
Q 37.796875 6.203125 41.984375 11.859375 
Q 46.1875 17.53125 46.1875 27.296875 
Q 46.1875 37.015625 41.984375 42.703125 
Q 37.796875 48.390625 30.609375 48.390625 
M 30.609375 56 
Q 42.328125 56 49.015625 48.375 
Q 55.71875 40.765625 55.71875 27.296875 
Q 55.71875 13.875 49.015625 6.21875 
Q 42.328125 -1.421875 30.609375 -1.421875 
Q 18.84375 -1.421875 12.171875 6.21875 
Q 5.515625 13.875 5.515625 27.296875 
Q 5.515625 40.765625 12.171875 48.375 
Q 18.84375 56 30.609375 56 
" id="DejaVuSans-6f"/>
      <path d="M 45.40625 27.984375 
Q 45.40625 37.75 41.375 43.109375 
Q 37.359375 48.484375 30.078125 48.484375 
Q 22.859375 48.484375 18.828125 43.109375 
Q 14.796875 37.75 14.796875 27.984375 
Q 14.796875 18.265625 18.828125 12.890625 
Q 22.859375 7.515625 30.078125 7.515625 
Q 37.359375 7.515625 41.375 12.890625 
Q 45.40625 18.265625 45.40625 27.984375 
M 54.390625 6.78125 
Q 54.390625 -7.171875 48.1875 -13.984375 
Q 42 -20.796875 29.203125 -20.796875 
Q 24.46875 -20.796875 20.265625 -20.09375 
Q 16.0625 -19.390625 12.109375 -17.921875 
L 12.109375 -9.1875 
Q 16.0625 -11.328125 19.921875 -12.34375 
Q 23.78125 -13.375 27.78125 -13.375 
Q 36.625 -13.375 41.015625 -8.765625 
Q 45.40625 -4.15625 45.40625 5.171875 
L 45.40625 9.625 
Q 42.625 4.78125 38.28125 2.390625 
Q 33.9375 0 27.875 0 
Q 17.828125 0 11.671875 7.65625 
Q 5.515625 15.328125 5.515625 27.984375 
Q 5.515625 40.671875 11.671875 48.328125 
Q 17.828125 56 27.875 56 
Q 33.9375 56 38.28125 53.609375 
Q 42.625 51.21875 45.40625 46.390625 
L 45.40625 54.6875 
L 54.390625 54.6875 
z
" id="DejaVuSans-67"/>
      <path d="M 12.40625 8.296875 
L 28.515625 8.296875 
L 28.515625 63.921875 
L 10.984375 60.40625 
L 10.984375 69.390625 
L 28.421875 72.90625 
L 38.28125 72.90625 
L 38.28125 8.296875 
L 54.390625 8.296875 
L 54.390625 0 
L 12.40625 0 
z
" id="DejaVuSans-31"/>
      <path id="DejaVuSans-20"/>
      <path d="M 37.109375 75.984375 
L 37.109375 68.5 
L 28.515625 68.5 
Q 23.6875 68.5 21.796875 66.546875 
Q 19.921875 64.59375 19.921875 59.515625 
L 19.921875 54.6875 
L 34.71875 54.6875 
L 34.71875 47.703125 
L 19.921875 47.703125 
L 19.921875 0 
L 10.890625 0 
L 10.890625 47.703125 
L 2.296875 47.703125 
L 2.296875 54.6875 
L 10.890625 54.6875 
L 10.890625 58.5 
Q 10.890625 67.625 15.140625 71.796875 
Q 19.390625 75.984375 28.609375 75.984375 
z
" id="DejaVuSans-66"/>
      <path d="M 31 75.875 
Q 24.46875 64.65625 21.28125 53.65625 
Q 18.109375 42.671875 18.109375 31.390625 
Q 18.109375 20.125 21.3125 9.0625 
Q 24.515625 -2 31 -13.1875 
L 23.1875 -13.1875 
Q 15.875 -1.703125 12.234375 9.375 
Q 8.59375 20.453125 8.59375 31.390625 
Q 8.59375 42.28125 12.203125 53.3125 
Q 15.828125 64.359375 23.1875 75.875 
z
" id="DejaVuSans-28"/>
      <path d="M 51.125 44 
L 36.921875 44 
L 32.8125 27.6875 
L 47.125 27.6875 
z
M 43.796875 71.78125 
L 38.71875 51.515625 
L 52.984375 51.515625 
L 58.109375 71.78125 
L 65.921875 71.78125 
L 60.890625 51.515625 
L 76.125 51.515625 
L 76.125 44 
L 58.984375 44 
L 54.984375 27.6875 
L 70.515625 27.6875 
L 70.515625 20.21875 
L 53.078125 20.21875 
L 48 0 
L 40.1875 0 
L 45.21875 20.21875 
L 30.90625 20.21875 
L 25.875 0 
L 18.015625 0 
L 23.09375 20.21875 
L 7.71875 20.21875 
L 7.71875 27.6875 
L 24.90625 27.6875 
L 29 44 
L 13.28125 44 
L 13.28125 51.515625 
L 30.90625 51.515625 
L 35.890625 71.78125 
z
" id="DejaVuSans-23"/>
      <path d="M 4.890625 31.390625 
L 31.203125 31.390625 
L 31.203125 23.390625 
L 4.890625 23.390625 
z
" id="DejaVuSans-2d"/>
      <path d="M 56.203125 29.59375 
L 56.203125 25.203125 
L 14.890625 25.203125 
Q 15.484375 15.921875 20.484375 11.0625 
Q 25.484375 6.203125 34.421875 6.203125 
Q 39.59375 6.203125 44.453125 7.46875 
Q 49.3125 8.734375 54.109375 11.28125 
L 54.109375 2.78125 
Q 49.265625 0.734375 44.1875 -0.34375 
Q 39.109375 -1.421875 33.890625 -1.421875 
Q 20.796875 -1.421875 13.15625 6.1875 
Q 5.515625 13.8125 5.515625 26.8125 
Q 5.515625 40.234375 12.765625 48.109375 
Q 20.015625 56 32.328125 56 
Q 43.359375 56 49.78125 48.890625 
Q 56.203125 41.796875 56.203125 29.59375 
M 47.21875 32.234375 
Q 47.125 39.59375 43.09375 43.984375 
Q 39.0625 48.390625 32.421875 48.390625 
Q 24.90625 48.390625 20.390625 44.140625 
Q 15.875 39.890625 15.1875 32.171875 
z
" id="DejaVuSans-65"/>
      <path d="M 2.984375 54.6875 
L 12.5 54.6875 
L 29.59375 8.796875 
L 46.6875 54.6875 
L 56.203125 54.6875 
L 35.6875 0 
L 23.484375 0 
z
" id="DejaVuSans-76"/>
      <path d="M 34.28125 27.484375 
Q 23.390625 27.484375 19.1875 25 
Q 14.984375 22.515625 14.984375 16.5 
Q 14.984375 11.71875 18.140625 8.90625 
Q 21.296875 6.109375 26.703125 6.109375 
Q 34.1875 6.109375 38.703125 11.40625 
Q 43.21875 16.703125 43.21875 25.484375 
L 43.21875 27.484375 
z
M 52.203125 31.203125 
L 52.203125 0 
L 43.21875 0 
L 43.21875 8.296875 
Q 40.140625 3.328125 35.546875 0.953125 
Q 30.953125 -1.421875 24.3125 -1.421875 
Q 15.921875 -1.421875 10.953125 3.296875 
Q 6 8.015625 6 15.921875 
Q 6 25.140625 12.171875 29.828125 
Q 18.359375 34.515625 30.609375 34.515625 
L 43.21875 34.515625 
L 43.21875 35.40625 
Q 43.21875 41.609375 39.140625 45 
Q 35.0625 48.390625 27.6875 48.390625 
Q 23 48.390625 18.546875 47.265625 
Q 14.109375 46.140625 10.015625 43.890625 
L 10.015625 52.203125 
Q 14.9375 54.109375 19.578125 55.046875 
Q 24.21875 56 28.609375 56 
Q 40.484375 56 46.34375 49.84375 
Q 52.203125 43.703125 52.203125 31.203125 
" id="DejaVuSans-61"/>
      <path d="M 44.28125 53.078125 
L 44.28125 44.578125 
Q 40.484375 46.53125 36.375 47.5 
Q 32.28125 48.484375 27.875 48.484375 
Q 21.1875 48.484375 17.84375 46.4375 
Q 14.5 44.390625 14.5 40.28125 
Q 14.5 37.15625 16.890625 35.375 
Q 19.28125 33.59375 26.515625 31.984375 
L 29.59375 31.296875 
Q 39.15625 29.25 43.1875 25.515625 
Q 47.21875 21.78125 47.21875 15.09375 
Q 47.21875 7.46875 41.1875 3.015625 
Q 35.15625 -1.421875 24.609375 -1.421875 
Q 20.21875 -1.421875 15.453125 -0.5625 
Q 10.6875 0.296875 5.421875 2 
L 5.421875 11.28125 
Q 10.40625 8.6875 15.234375 7.390625 
Q 20.0625 6.109375 24.8125 6.109375 
Q 31.15625 6.109375 34.5625 8.28125 
Q 37.984375 10.453125 37.984375 14.40625 
Q 37.984375 18.0625 35.515625 20.015625 
Q 33.0625 21.96875 24.703125 23.78125 
L 21.578125 24.515625 
Q 13.234375 26.265625 9.515625 29.90625 
Q 5.8125 33.546875 5.8125 39.890625 
Q 5.8125 47.609375 11.28125 51.796875 
Q 16.75 56 26.8125 56 
Q 31.78125 56 36.171875 55.265625 
Q 40.578125 54.546875 44.28125 53.078125 
" id="DejaVuSans-73"/>
      <path d="M 25.390625 72.90625 
L 33.6875 72.90625 
L 8.296875 -9.28125 
L 0 -9.28125 
z
" id="DejaVuSans-2f"/>
      <path d="M 45.40625 46.390625 
L 45.40625 75.984375 
L 54.390625 75.984375 
L 54.390625 0 
L 45.40625 0 
L 45.40625 8.203125 
Q 42.578125 3.328125 38.25 0.953125 
Q 33.9375 -1.421875 27.875 -1.421875 
Q 17.96875 -1.421875 11.734375 6.484375 
Q 5.515625 14.40625 5.515625 27.296875 
Q 5.515625 40.1875 11.734375 48.09375 
Q 17.96875 56 27.875 56 
Q 33.9375 56 38.25 53.625 
Q 42.578125 51.265625 45.40625 46.390625 
M 14.796875 27.296875 
Q 14.796875 17.390625 18.875 11.75 
Q 22.953125 6.109375 30.078125 6.109375 
Q 37.203125 6.109375 41.296875 11.75 
Q 45.40625 17.390625 45.40625 27.296875 
Q 45.40625 37.203125 41.296875 42.84375 
Q 37.203125 48.484375 30.078125 48.484375 
Q 22.953125 48.484375 18.875 42.84375 
Q 14.796875 37.203125 14.796875 27.296875 
" id="DejaVuSans-64"/>
      <path d="M 9.421875 54.6875 
L 18.40625 54.6875 
L 18.40625 0 
L 9.421875 0 
z
M 9.421875 75.984375 
L 18.40625 75.984375 
L 18.40625 64.59375 
L 9.421875 64.59375 
z
" id="DejaVuSans-69"/>
      <path d="M 52 44.1875 
Q 55.375 50.25 60.0625 53.125 
Q 64.75 56 71.09375 56 
Q 79.640625 56 84.28125 50.015625 
Q 88.921875 44.046875 88.921875 33.015625 
L 88.921875 0 
L 79.890625 0 
L 79.890625 32.71875 
Q 79.890625 40.578125 77.09375 44.375 
Q 74.3125 48.1875 68.609375 48.1875 
Q 61.625 48.1875 57.5625 43.546875 
Q 53.515625 38.921875 53.515625 30.90625 
L 53.515625 0 
L 44.484375 0 
L 44.484375 32.71875 
Q 44.484375 40.625 41.703125 44.40625 
Q 38.921875 48.1875 33.109375 48.1875 
Q 26.21875 48.1875 22.15625 43.53125 
Q 18.109375 38.875 18.109375 30.90625 
L 18.109375 0 
L 9.078125 0 
L 9.078125 54.6875 
L 18.109375 54.6875 
L 18.109375 46.1875 
Q 21.1875 51.21875 25.484375 53.609375 
Q 29.78125 56 35.6875 56 
Q 41.65625 56 45.828125 52.96875 
Q 50 49.953125 52 44.1875 
" id="DejaVuSans-6d"/>
      <path d="M 54.890625 33.015625 
L 54.890625 0 
L 45.90625 0 
L 45.90625 32.71875 
Q 45.90625 40.484375 42.875 44.328125 
Q 39.84375 48.1875 33.796875 48.1875 
Q 26.515625 48.1875 22.3125 43.546875 
Q 18.109375 38.921875 18.109375 30.90625 
L 18.109375 0 
L 9.078125 0 
L 9.078125 54.6875 
L 18.109375 54.6875 
L 18.109375 46.1875 
Q 21.34375 51.125 25.703125 53.5625 
Q 30.078125 56 35.796875 56 
Q 45.21875 56 50.046875 50.171875 
Q 54.890625 44.34375 54.890625 33.015625 
" id="DejaVuSans-6e"/>
      <path d="M 8.015625 75.875 
L 15.828125 75.875 
Q 23.140625 64.359375 26.78125 53.3125 
Q 30.421875 42.28125 30.421875 31.390625 
Q 30.421875 20.453125 26.78125 9.375 
Q 23.140625 -1.703125 15.828125 -13.1875 
L 8.015625 -13.1875 
Q 14.5 -2 17.703125 9.0625 
Q 20.90625 20.125 20.90625 31.390625 
Q 20.90625 42.671875 17.703125 53.65625 
Q 14.5 64.65625 8.015625 75.875 
" id="DejaVuSans-29"/>
     </defs>
     <g transform="translate(109.328482 342.278812)scale(0.18 -0.18)">
      <use xlink:href="#DejaVuSans-6c"/>
      <use x="27.783203" xlink:href="#DejaVuSans-6f"/>
      <use x="88.964844" xlink:href="#DejaVuSans-67"/>
      <use x="152.441406" xlink:href="#DejaVuSans-31"/>
      <use x="216.064453" xlink:href="#DejaVuSans-30"/>
      <use x="279.6875" xlink:href="#DejaVuSans-20"/>
      <use x="311.474609" xlink:href="#DejaVuSans-6f"/>
      <use x="372.65625" xlink:href="#DejaVuSans-66"/>
      <use x="407.861328" xlink:href="#DejaVuSans-20"/>
      <use x="439.648438" xlink:href="#DejaVuSans-28"/>
      <use x="478.662109" xlink:href="#DejaVuSans-23"/>
      <use x="562.451172" xlink:href="#DejaVuSans-20"/>
      <use x="594.238281" xlink:href="#DejaVuSans-66"/>
      <use x="629.365234" xlink:href="#DejaVuSans-2d"/>
      <use x="665.449219" xlink:href="#DejaVuSans-65"/>
      <use x="726.972656" xlink:href="#DejaVuSans-76"/>
      <use x="786.152344" xlink:href="#DejaVuSans-61"/>
      <use x="847.431641" xlink:href="#DejaVuSans-6c"/>
      <use x="875.214844" xlink:href="#DejaVuSans-73"/>
      <use x="927.314453" xlink:href="#DejaVuSans-20"/>
      <use x="959.101562" xlink:href="#DejaVuSans-2f"/>
      <use x="992.792969" xlink:href="#DejaVuSans-20"/>
      <use x="1024.580078" xlink:href="#DejaVuSans-64"/>
      <use x="1088.056641" xlink:href="#DejaVuSans-69"/>
      <use x="1115.839844" xlink:href="#DejaVuSans-6d"/>
      <use x="1213.251953" xlink:href="#DejaVuSans-65"/>
      <use x="1274.775391" xlink:href="#DejaVuSans-6e"/>
      <use x="1338.154297" xlink:href="#DejaVuSans-73"/>
      <use x="1390.253906" xlink:href="#DejaVuSans-69"/>
      <use x="1418.037109" xlink:href="#DejaVuSans-6f"/>
      <use x="1479.21875" xlink:href="#DejaVuSans-6e"/>
      <use x="1542.597656" xlink:href="#DejaVuSans-29"/>
     </g>
    </g>
   </g>
   <g id="matplotlib.axis_2">
    <g id="ytick_1">
     <g id="line2d_29">
      <path clip-path="url(#p0ee5c76965)" d="M 73.113325 298.245375 
L 430.233325 298.245375 
" style="fill:none;stroke:#b0b0b0;stroke-linecap:square;stroke-width:0.8;"/>
     </g>
     <g id="line2d_30">
      <defs>
       <path d="M 0 0 
L -3.5 0 
" id="m1d56f8afed" style="stroke:#000000;stroke-width:0.8;"/>
      </defs>
      <g>
       <use style="stroke:#000000;stroke-width:0.8;" x="73.113325" xlink:href="#m1d56f8afed" y="298.245375"/>
      </g>
     </g>
     <g id="text_7">
      <!-- 0.0 -->
      <defs>
       <path d="M 10.6875 12.40625 
L 21 12.40625 
L 21 0 
L 10.6875 0 
z
" id="DejaVuSans-2e"/>
      </defs>
      <g transform="translate(34.307075 305.843812)scale(0.2 -0.2)">
       <use xlink:href="#DejaVuSans-30"/>
       <use x="63.623047" xlink:href="#DejaVuSans-2e"/>
       <use x="95.410156" xlink:href="#DejaVuSans-30"/>
      </g>
     </g>
    </g>
    <g id="ytick_2">
     <g id="line2d_31">
      <path clip-path="url(#p0ee5c76965)" d="M 73.113325 245.549929 
L 430.233325 245.549929 
" style="fill:none;stroke:#b0b0b0;stroke-linecap:square;stroke-width:0.8;"/>
     </g>
     <g id="line2d_32">
      <g>
       <use style="stroke:#000000;stroke-width:0.8;" x="73.113325" xlink:href="#m1d56f8afed" y="245.549929"/>
      </g>
     </g>
     <g id="text_8">
      <!-- 0.2 -->
      <g transform="translate(34.307075 253.148367)scale(0.2 -0.2)">
       <use xlink:href="#DejaVuSans-30"/>
       <use x="63.623047" xlink:href="#DejaVuSans-2e"/>
       <use x="95.410156" xlink:href="#DejaVuSans-32"/>
      </g>
     </g>
    </g>
    <g id="ytick_3">
     <g id="line2d_33">
      <path clip-path="url(#p0ee5c76965)" d="M 73.113325 192.854484 
L 430.233325 192.854484 
" style="fill:none;stroke:#b0b0b0;stroke-linecap:square;stroke-width:0.8;"/>
     </g>
     <g id="line2d_34">
      <g>
       <use style="stroke:#000000;stroke-width:0.8;" x="73.113325" xlink:href="#m1d56f8afed" y="192.854484"/>
      </g>
     </g>
     <g id="text_9">
      <!-- 0.4 -->
      <g transform="translate(34.307075 200.452921)scale(0.2 -0.2)">
       <use xlink:href="#DejaVuSans-30"/>
       <use x="63.623047" xlink:href="#DejaVuSans-2e"/>
       <use x="95.410156" xlink:href="#DejaVuSans-34"/>
      </g>
     </g>
    </g>
    <g id="ytick_4">
     <g id="line2d_35">
      <path clip-path="url(#p0ee5c76965)" d="M 73.113325 140.159038 
L 430.233325 140.159038 
" style="fill:none;stroke:#b0b0b0;stroke-linecap:square;stroke-width:0.8;"/>
     </g>
     <g id="line2d_36">
      <g>
       <use style="stroke:#000000;stroke-width:0.8;" x="73.113325" xlink:href="#m1d56f8afed" y="140.159038"/>
      </g>
     </g>
     <g id="text_10">
      <!-- 0.6 -->
      <g transform="translate(34.307075 147.757476)scale(0.2 -0.2)">
       <use xlink:href="#DejaVuSans-30"/>
       <use x="63.623047" xlink:href="#DejaVuSans-2e"/>
       <use x="95.410156" xlink:href="#DejaVuSans-36"/>
      </g>
     </g>
    </g>
    <g id="ytick_5">
     <g id="line2d_37">
      <path clip-path="url(#p0ee5c76965)" d="M 73.113325 87.463593 
L 430.233325 87.463593 
" style="fill:none;stroke:#b0b0b0;stroke-linecap:square;stroke-width:0.8;"/>
     </g>
     <g id="line2d_38">
      <g>
       <use style="stroke:#000000;stroke-width:0.8;" x="73.113325" xlink:href="#m1d56f8afed" y="87.463593"/>
      </g>
     </g>
     <g id="text_11">
      <!-- 0.8 -->
      <g transform="translate(34.307075 95.06203)scale(0.2 -0.2)">
       <use xlink:href="#DejaVuSans-30"/>
       <use x="63.623047" xlink:href="#DejaVuSans-2e"/>
       <use x="95.410156" xlink:href="#DejaVuSans-38"/>
      </g>
     </g>
    </g>
    <g id="ytick_6">
     <g id="line2d_39">
      <path clip-path="url(#p0ee5c76965)" d="M 73.113325 34.768147 
L 430.233325 34.768147 
" style="fill:none;stroke:#b0b0b0;stroke-linecap:square;stroke-width:0.8;"/>
     </g>
     <g id="line2d_40">
      <g>
       <use style="stroke:#000000;stroke-width:0.8;" x="73.113325" xlink:href="#m1d56f8afed" y="34.768147"/>
      </g>
     </g>
     <g id="text_12">
      <!-- 1.0 -->
      <g transform="translate(34.307075 42.366585)scale(0.2 -0.2)">
       <use xlink:href="#DejaVuSans-31"/>
       <use x="63.623047" xlink:href="#DejaVuSans-2e"/>
       <use x="95.410156" xlink:href="#DejaVuSans-30"/>
      </g>
     </g>
    </g>
    <g id="text_13">
     <!-- Proportion of function+target pairs -->
     <defs>
      <path d="M 19.671875 64.796875 
L 19.671875 37.40625 
L 32.078125 37.40625 
Q 38.96875 37.40625 42.71875 40.96875 
Q 46.484375 44.53125 46.484375 51.125 
Q 46.484375 57.671875 42.71875 61.234375 
Q 38.96875 64.796875 32.078125 64.796875 
z
M 9.8125 72.90625 
L 32.078125 72.90625 
Q 44.34375 72.90625 50.609375 67.359375 
Q 56.890625 61.8125 56.890625 51.125 
Q 56.890625 40.328125 50.609375 34.8125 
Q 44.34375 29.296875 32.078125 29.296875 
L 19.671875 29.296875 
L 19.671875 0 
L 9.8125 0 
z
" id="DejaVuSans-50"/>
      <path d="M 41.109375 46.296875 
Q 39.59375 47.171875 37.8125 47.578125 
Q 36.03125 48 33.890625 48 
Q 26.265625 48 22.1875 43.046875 
Q 18.109375 38.09375 18.109375 28.8125 
L 18.109375 0 
L 9.078125 0 
L 9.078125 54.6875 
L 18.109375 54.6875 
L 18.109375 46.1875 
Q 20.953125 51.171875 25.484375 53.578125 
Q 30.03125 56 36.53125 56 
Q 37.453125 56 38.578125 55.875 
Q 39.703125 55.765625 41.0625 55.515625 
z
" id="DejaVuSans-72"/>
      <path d="M 18.109375 8.203125 
L 18.109375 -20.796875 
L 9.078125 -20.796875 
L 9.078125 54.6875 
L 18.109375 54.6875 
L 18.109375 46.390625 
Q 20.953125 51.265625 25.265625 53.625 
Q 29.59375 56 35.59375 56 
Q 45.5625 56 51.78125 48.09375 
Q 58.015625 40.1875 58.015625 27.296875 
Q 58.015625 14.40625 51.78125 6.484375 
Q 45.5625 -1.421875 35.59375 -1.421875 
Q 29.59375 -1.421875 25.265625 0.953125 
Q 20.953125 3.328125 18.109375 8.203125 
M 48.6875 27.296875 
Q 48.6875 37.203125 44.609375 42.84375 
Q 40.53125 48.484375 33.40625 48.484375 
Q 26.265625 48.484375 22.1875 42.84375 
Q 18.109375 37.203125 18.109375 27.296875 
Q 18.109375 17.390625 22.1875 11.75 
Q 26.265625 6.109375 33.40625 6.109375 
Q 40.53125 6.109375 44.609375 11.75 
Q 48.6875 17.390625 48.6875 27.296875 
" id="DejaVuSans-70"/>
      <path d="M 18.3125 70.21875 
L 18.3125 54.6875 
L 36.8125 54.6875 
L 36.8125 47.703125 
L 18.3125 47.703125 
L 18.3125 18.015625 
Q 18.3125 11.328125 20.140625 9.421875 
Q 21.96875 7.515625 27.59375 7.515625 
L 36.8125 7.515625 
L 36.8125 0 
L 27.59375 0 
Q 17.1875 0 13.234375 3.875 
Q 9.28125 7.765625 9.28125 18.015625 
L 9.28125 47.703125 
L 2.6875 47.703125 
L 2.6875 54.6875 
L 9.28125 54.6875 
L 9.28125 70.21875 
z
" id="DejaVuSans-74"/>
      <path d="M 8.5 21.578125 
L 8.5 54.6875 
L 17.484375 54.6875 
L 17.484375 21.921875 
Q 17.484375 14.15625 20.5 10.265625 
Q 23.53125 6.390625 29.59375 6.390625 
Q 36.859375 6.390625 41.078125 11.03125 
Q 45.3125 15.671875 45.3125 23.6875 
L 45.3125 54.6875 
L 54.296875 54.6875 
L 54.296875 0 
L 45.3125 0 
L 45.3125 8.40625 
Q 42.046875 3.421875 37.71875 1 
Q 33.40625 -1.421875 27.6875 -1.421875 
Q 18.265625 -1.421875 13.375 4.4375 
Q 8.5 10.296875 8.5 21.578125 
M 31.109375 56 
z
" id="DejaVuSans-75"/>
      <path d="M 48.78125 52.59375 
L 48.78125 44.1875 
Q 44.96875 46.296875 41.140625 47.34375 
Q 37.3125 48.390625 33.40625 48.390625 
Q 24.65625 48.390625 19.8125 42.84375 
Q 14.984375 37.3125 14.984375 27.296875 
Q 14.984375 17.28125 19.8125 11.734375 
Q 24.65625 6.203125 33.40625 6.203125 
Q 37.3125 6.203125 41.140625 7.25 
Q 44.96875 8.296875 48.78125 10.40625 
L 48.78125 2.09375 
Q 45.015625 0.34375 40.984375 -0.53125 
Q 36.96875 -1.421875 32.421875 -1.421875 
Q 20.0625 -1.421875 12.78125 6.34375 
Q 5.515625 14.109375 5.515625 27.296875 
Q 5.515625 40.671875 12.859375 48.328125 
Q 20.21875 56 33.015625 56 
Q 37.15625 56 41.109375 55.140625 
Q 45.0625 54.296875 48.78125 52.59375 
" id="DejaVuSans-63"/>
      <path d="M 46 62.703125 
L 46 35.5 
L 73.1875 35.5 
L 73.1875 27.203125 
L 46 27.203125 
L 46 0 
L 37.796875 0 
L 37.796875 27.203125 
L 10.59375 27.203125 
L 10.59375 35.5 
L 37.796875 35.5 
L 37.796875 62.703125 
z
" id="DejaVuSans-2b"/>
     </defs>
     <g transform="translate(26.563638 323.17875)rotate(-90)scale(0.18 -0.18)">
      <use xlink:href="#DejaVuSans-50"/>
      <use x="60.287109" xlink:href="#DejaVuSans-72"/>
      <use x="101.369141" xlink:href="#DejaVuSans-6f"/>
      <use x="162.550781" xlink:href="#DejaVuSans-70"/>
      <use x="226.027344" xlink:href="#DejaVuSans-6f"/>
      <use x="287.208984" xlink:href="#DejaVuSans-72"/>
      <use x="328.322266" xlink:href="#DejaVuSans-74"/>
      <use x="367.53125" xlink:href="#DejaVuSans-69"/>
      <use x="395.314453" xlink:href="#DejaVuSans-6f"/>
      <use x="456.496094" xlink:href="#DejaVuSans-6e"/>
      <use x="519.875" xlink:href="#DejaVuSans-20"/>
      <use x="551.662109" xlink:href="#DejaVuSans-6f"/>
      <use x="612.84375" xlink:href="#DejaVuSans-66"/>
      <use x="648.048828" xlink:href="#DejaVuSans-20"/>
      <use x="679.835938" xlink:href="#DejaVuSans-66"/>
      <use x="715.041016" xlink:href="#DejaVuSans-75"/>
      <use x="778.419922" xlink:href="#DejaVuSans-6e"/>
      <use x="841.798828" xlink:href="#DejaVuSans-63"/>
      <use x="896.779297" xlink:href="#DejaVuSans-74"/>
      <use x="935.988281" xlink:href="#DejaVuSans-69"/>
      <use x="963.771484" xlink:href="#DejaVuSans-6f"/>
      <use x="1024.953125" xlink:href="#DejaVuSans-6e"/>
      <use x="1088.332031" xlink:href="#DejaVuSans-2b"/>
      <use x="1172.121094" xlink:href="#DejaVuSans-74"/>
      <use x="1211.330078" xlink:href="#DejaVuSans-61"/>
      <use x="1272.609375" xlink:href="#DejaVuSans-72"/>
      <use x="1313.707031" xlink:href="#DejaVuSans-67"/>
      <use x="1377.183594" xlink:href="#DejaVuSans-65"/>
      <use x="1438.707031" xlink:href="#DejaVuSans-74"/>
      <use x="1477.916016" xlink:href="#DejaVuSans-20"/>
      <use x="1509.703125" xlink:href="#DejaVuSans-70"/>
      <use x="1573.179688" xlink:href="#DejaVuSans-61"/>
      <use x="1634.458984" xlink:href="#DejaVuSans-69"/>
      <use x="1662.242188" xlink:href="#DejaVuSans-72"/>
      <use x="1703.355469" xlink:href="#DejaVuSans-73"/>
     </g>
    </g>
   </g>
   <g id="line2d_41">
    <defs>
     <path d="M 0 1.5 
C 0.397805 1.5 0.77937 1.341951 1.06066 1.06066 
C 1.341951 0.77937 1.5 0.397805 1.5 0 
C 1.5 -0.397805 1.341951 -0.77937 1.06066 -1.06066 
C 0.77937 -1.341951 0.397805 -1.5 0 -1.5 
C -0.397805 -1.5 -0.77937 -1.341951 -1.06066 -1.06066 
C -1.341951 -0.77937 -1.5 -0.397805 -1.5 0 
C -1.5 0.397805 -1.341951 0.77937 -1.06066 1.06066 
C -0.77937 1.341951 -0.397805 1.5 0 1.5 
z
" id="m7a1ef6a025" style="stroke:#00bfbf;"/>
    </defs>
    <g>
     <use style="fill:#00bfbf;stroke:#00bfbf;" x="356.355626" xlink:href="#m7a1ef6a025" y="143.25877"/>
     <use style="fill:#00bfbf;stroke:#00bfbf;" x="356.355626" xlink:href="#m7a1ef6a025" y="143.25877"/>
    </g>
   </g>
   <g id="line2d_42">
    <path d="M 60.728091 298.245375 
L 60.728091 274.067465 
L 73.113325 274.067465 
L 73.113325 271.174381 
L 80.358223 271.174381 
L 80.358223 269.417867 
L 85.498559 269.417867 
L 85.498559 268.79792 
L 89.485714 268.79792 
L 89.485714 268.177974 
L 92.743457 268.177974 
L 92.743457 267.868001 
L 95.497839 267.868001 
L 95.497839 267.351378 
L 97.883794 267.351378 
L 97.883794 266.21481 
L 99.988354 266.21481 
L 99.988354 265.904837 
L 101.870948 265.904837 
L 101.870948 265.594864 
L 106.558903 265.491539 
L 106.558903 265.078242 
L 107.883073 265.078242 
L 107.883073 264.871593 
L 110.269028 264.871593 
L 110.269028 264.458295 
L 111.352275 264.458295 
L 111.352275 264.148322 
L 112.373589 264.148322 
L 112.373589 263.941673 
L 113.339668 263.941673 
L 113.339668 263.735024 
L 114.256183 263.735024 
L 114.256183 263.425051 
L 115.127971 263.425051 
L 115.127971 263.218402 
L 115.959196 263.218402 
L 115.959196 262.805105 
L 118.243337 262.70178 
L 118.243337 262.391807 
L 120.895323 262.288483 
L 120.895323 261.97851 
L 121.50108 261.97851 
L 121.50108 261.771861 
L 123.204093 261.771861 
L 123.204093 261.255239 
L 124.255462 261.151914 
L 124.255462 261.04859 
L 124.758823 261.04859 
L 124.758823 260.428643 
L 125.248391 260.428643 
L 125.248391 260.221995 
L 126.189035 260.11867 
L 126.189035 260.015346 
L 127.082627 260.015346 
L 127.082627 259.808697 
L 129.138699 259.705373 
L 129.138699 259.602048 
L 131.329372 259.498724 
L 131.329372 259.188751 
L 132.653542 259.085426 
L 132.653542 258.878777 
L 133.280557 258.878777 
L 133.280557 258.362155 
L 134.472206 258.258831 
L 134.472206 258.052182 
L 135.589327 257.948858 
L 135.589327 257.845533 
L 135.858026 257.845533 
L 135.858026 257.638885 
L 136.640696 257.638885 
L 136.640696 257.432236 
L 137.144057 257.328911 
L 137.144057 256.915614 
L 137.390517 256.915614 
L 137.390517 256.708965 
L 139.026651 256.605641 
L 139.026651 256.502316 
L 139.898439 256.398992 
L 139.898439 256.295667 
L 140.318885 256.192343 
L 140.318885 256.089019 
L 141.131212 256.089019 
L 141.131212 255.469072 
L 141.523933 255.469072 
L 141.523933 255.159099 
L 144.054961 255.055775 
L 144.054961 254.849126 
L 144.553639 254.849126 
L 144.553639 254.539153 
L 147.838682 254.435828 
L 147.838682 254.332504 
L 149.279383 254.229179 
L 149.279383 253.919206 
L 154.006014 253.815882 
L 154.006014 253.712557 
L 156.774188 253.609233 
L 156.774188 253.505908 
L 157.661727 253.402584 
L 157.661727 252.989286 
L 159.809964 252.885962 
L 159.809964 252.679313 
L 160.018139 252.679313 
L 160.018139 252.472664 
L 162.939285 252.472664 
L 162.939285 252.162691 
L 165.550822 252.059367 
L 165.550822 251.852718 
L 166.631092 251.852718 
L 166.631092 251.336096 
L 168.398962 251.232772 
L 168.398962 251.129447 
L 172.26486 251.026123 
L 172.26486 250.922798 
L 173.603922 250.819474 
L 173.603922 250.71615 
L 174.143977 250.71615 
L 174.143977 250.199528 
L 176.705091 250.096203 
L 176.705091 249.992879 
L 177.186596 249.992879 
L 177.291858 249.682906 
L 191.113359 249.579581 
L 191.113359 249.372932 
L 192.621622 249.372932 
L 192.699334 248.85631 
L 195.158527 248.752986 
L 195.158527 248.649662 
L 200.521903 248.546337 
L 200.54334 248.13304 
L 201.630789 248.029715 
L 201.630789 247.926391 
L 201.817961 247.926391 
L 201.817961 247.719742 
L 206.211421 247.616418 
L 206.211421 247.513093 
L 207.187898 247.513093 
L 207.187898 246.996471 
L 207.635232 246.893147 
L 207.635232 246.789822 
L 210.380694 246.686498 
L 210.380694 246.583173 
L 210.767685 246.479849 
L 210.767685 246.376525 
L 210.999898 246.376525 
L 210.999898 246.169876 
L 211.52126 246.066551 
L 211.52126 245.756578 
L 211.937482 245.756578 
L 211.937482 245.446605 
L 214.868921 245.343281 
L 214.868921 245.136632 
L 220.056445 245.033307 
L 220.056445 244.929983 
L 222.560914 244.826659 
L 222.560914 244.723334 
L 223.898766 244.723334 
L 223.898766 244.516685 
L 225.565551 244.516685 
L 225.565551 244.310037 
L 228.634524 244.206712 
L 228.634524 244.000063 
L 230.496943 243.896739 
L 230.496943 243.69009 
L 234.541713 243.586766 
L 234.541713 243.483441 
L 235.547218 243.380117 
L 235.547218 243.276793 
L 235.765393 243.276793 
L 235.765393 243.070144 
L 237.47356 243.070144 
L 237.47356 242.863495 
L 238.197294 242.863495 
L 238.197294 242.553522 
L 239.329194 242.553522 
L 239.329194 242.346873 
L 245.013435 242.243549 
L 245.013435 242.140224 
L 245.224999 242.0369 
L 245.224999 241.933575 
L 247.346996 241.933575 
L 247.346996 241.726927 
L 248.093838 241.623602 
L 248.188883 241.416953 
L 248.308585 241.416953 
L 248.308585 241.10698 
L 249.9894 241.003656 
L 249.9894 240.900331 
L 253.934505 240.900331 
L 253.934505 240.693683 
L 254.203773 240.693683 
L 254.203773 240.487034 
L 258.175893 240.383709 
L 258.175893 240.280385 
L 262.438016 240.280385 
L 262.480443 239.970412 
L 263.641806 239.970412 
L 263.641806 239.660438 
L 265.674582 239.557114 
L 265.777063 230.671215 
L 265.791338 230.567891 
L 265.890759 229.534647 
L 265.987796 229.431323 
L 266.03886 228.914701 
L 266.308401 228.811376 
L 266.392814 228.294754 
L 266.512995 228.19143 
L 266.549798 227.571483 
L 266.712281 227.468159 
L 266.712281 227.364835 
L 266.904494 227.26151 
L 266.904494 227.158186 
L 267.363278 227.054861 
L 267.395662 226.848213 
L 267.833071 226.744888 
L 267.841334 226.538239 
L 268.064313 226.434915 
L 268.064313 226.33159 
L 269.061369 226.228266 
L 269.061369 226.124942 
L 269.316938 226.021617 
L 269.324999 225.814968 
L 270.591609 225.711644 
L 270.591609 225.60832 
L 271.292605 225.504995 
L 271.37848 225.298346 
L 271.566849 225.195022 
L 271.566849 225.091698 
L 272.29309 224.988373 
L 272.29309 224.885049 
L 272.986874 224.781724 
L 273.0172 224.575076 
L 273.156038 224.471751 
L 273.248327 223.955129 
L 273.38248 223.851805 
L 273.423631 223.541832 
L 277.125464 223.438507 
L 277.125464 223.335183 
L 278.074079 223.231858 
L 278.182223 217.342367 
L 278.205365 217.239043 
L 278.267329 216.722421 
L 278.35038 216.619097 
L 278.430581 216.309123 
L 278.507785 216.205799 
L 278.515515 215.689177 
L 278.689854 215.585853 
L 278.689854 215.482528 
L 278.854036 215.379204 
L 278.94959 214.759257 
L 279.193355 214.655933 
L 279.199393 214.449284 
L 279.680671 214.34596 
L 279.693698 213.932662 
L 279.923215 213.829338 
L 280.030614 213.622689 
L 280.918349 213.519365 
L 280.918349 213.41604 
L 281.190847 213.312716 
L 281.190847 213.209391 
L 281.682156 213.106067 
L 281.766862 212.692769 
L 282.200973 212.589445 
L 282.212434 212.382796 
L 283.169442 212.279472 
L 283.169442 212.176147 
L 285.314099 212.072823 
L 285.41387 207.216576 
L 285.441842 207.113252 
L 285.508354 206.803278 
L 285.558996 206.699954 
L 285.668869 205.356737 
L 285.746072 205.253412 
L 285.851428 204.73679 
L 286.156766 204.633466 
L 286.156766 204.530141 
L 286.751705 204.426817 
L 286.751705 204.323493 
L 287.350609 204.220168 
L 287.460337 204.013519 
L 287.807926 203.910195 
L 287.807926 203.806871 
L 288.171298 203.703546 
L 288.171298 203.600222 
L 289.967608 203.496897 
L 289.972349 203.290249 
L 290.472355 203.186924 
L 290.555458 199.57057 
L 290.643481 199.467246 
L 290.701355 198.434002 
L 290.792231 198.330677 
L 290.894748 198.020704 
L 290.943473 197.91738 
L 291.037957 197.710731 
L 291.249749 197.607406 
L 291.249749 197.504082 
L 292.008917 197.400758 
L 292.008917 197.297433 
L 292.211978 197.194109 
L 292.212316 196.98746 
L 292.644858 196.884136 
L 292.647126 196.677487 
L 294.454797 196.574162 
L 294.538692 193.164457 
L 294.636362 193.061133 
L 294.678505 192.337862 
L 294.780722 192.234537 
L 294.780722 192.131213 
L 295.218752 192.027889 
L 295.244329 191.82124 
L 295.698575 191.717915 
L 295.698575 191.614591 
L 296.012367 191.511267 
L 296.012367 191.407942 
L 296.200045 191.304618 
L 296.258442 190.994645 
L 297.716197 190.89132 
L 297.753316 187.894913 
L 297.867198 187.791588 
L 297.893681 187.378291 
L 297.997754 187.274966 
L 297.997754 187.171642 
L 298.451726 187.068317 
L 298.451726 186.964993 
L 298.651216 186.861669 
L 298.651216 186.758344 
L 298.785546 186.65502 
L 298.884508 186.345047 
L 299.220287 186.241722 
L 299.220287 186.138398 
L 300.478564 186.035073 
L 300.577703 183.865261 
L 300.595811 183.761936 
L 300.694829 183.14199 
L 300.71022 183.038666 
L 300.745076 182.522044 
L 300.950493 182.418719 
L 300.957899 182.21207 
L 301.60673 182.108746 
L 301.60673 182.005422 
L 302.075524 181.902097 
L 302.08491 181.592124 
L 302.86278 181.4888 
L 302.971577 179.318987 
L 303.053278 179.215663 
L 303.085325 178.90569 
L 303.411594 178.802365 
L 303.411594 178.699041 
L 303.692908 178.595716 
L 303.692908 178.492392 
L 303.985736 178.389067 
L 303.985736 178.285743 
L 304.759293 178.182419 
L 304.759293 178.079094 
L 304.969133 177.97577 
L 305.069259 176.425904 
L 305.11109 176.322579 
L 305.166127 175.805957 
L 305.723871 175.702633 
L 305.723871 175.599309 
L 305.967889 175.495984 
L 305.967889 175.39266 
L 306.220774 175.289335 
L 306.220774 175.186011 
L 306.849623 175.082687 
L 306.948236 173.532821 
L 306.980371 173.429496 
L 306.980371 173.326172 
L 307.285589 173.222847 
L 307.285589 173.119523 
L 307.725058 173.016199 
L 307.738952 172.80955 
L 308.549696 172.706225 
L 308.616593 171.466332 
L 308.69594 171.363008 
L 308.69594 171.259684 
L 308.870436 171.156359 
L 308.953433 170.94971 
L 309.177741 170.846386 
L 309.177741 170.743062 
L 310.117535 170.639737 
L 310.18976 170.019791 
L 310.442521 169.916466 
L 310.476218 169.709818 
L 310.637899 169.606493 
L 310.637899 169.503169 
L 311.540369 169.399844 
L 311.642907 168.573249 
L 311.672384 168.469925 
L 311.686537 168.159952 
L 311.805379 168.056627 
L 311.805379 167.953303 
L 312.102256 167.849978 
L 312.102256 167.746654 
L 312.261984 167.64333 
L 312.261984 167.540005 
L 312.419165 167.436681 
L 312.419165 167.333356 
L 312.869675 167.230032 
L 312.931171 166.093464 
L 313.342693 165.990139 
L 313.371437 165.680166 
L 314.098635 165.576842 
L 314.205573 164.750246 
L 314.264035 164.646922 
L 314.264035 164.543597 
L 314.474884 164.440273 
L 314.547147 164.1303 
L 315.124003 164.026975 
L 315.124003 163.923651 
L 315.251319 163.820327 
L 315.360235 162.890407 
L 315.463168 162.787083 
L 315.520724 162.580434 
L 315.698437 162.477109 
L 315.698437 162.373785 
L 315.969516 162.270461 
L 315.969516 162.167136 
L 316.336864 162.063812 
L 316.434196 161.340541 
L 316.534358 161.237217 
L 316.592747 160.927243 
L 316.73919 160.823919 
L 316.757283 160.61727 
L 317.354915 160.513946 
L 317.454308 159.687351 
L 317.736571 159.584026 
L 317.800026 159.377377 
L 317.999168 159.274053 
L 317.999168 159.170729 
L 318.333483 159.067404 
L 318.41977 158.654107 
L 318.928996 158.550782 
L 318.928996 158.447458 
L 319.279626 158.344133 
L 319.326664 157.724187 
L 320.151596 157.620862 
L 320.164292 157.414214 
L 320.640798 157.310889 
L 320.640798 157.207565 
L 320.949255 157.10424 
L 321.050546 156.277645 
L 321.272714 156.174321 
L 321.272714 156.070996 
L 321.735393 155.967672 
L 321.779207 155.244401 
L 322.23469 155.141077 
L 322.23469 155.037752 
L 322.513675 154.934428 
L 322.52802 154.727779 
L 322.884805 154.624455 
L 322.976622 154.417806 
L 323.238557 154.314482 
L 323.2731 153.901184 
L 324.193025 153.79786 
L 324.193025 153.694535 
L 324.658815 153.591211 
L 324.658815 153.487886 
L 325.282605 153.384562 
L 325.374257 152.971264 
L 325.479008 152.86794 
L 325.50706 152.661291 
L 326.116414 152.557967 
L 326.116414 152.454642 
L 326.524725 152.351318 
L 326.627246 152.041345 
L 327.093627 151.93802 
L 327.179504 151.628047 
L 327.551143 151.524723 
L 327.640944 151.318074 
L 327.874081 151.214749 
L 327.9267 151.008101 
L 327.997356 150.904776 
L 327.997356 150.801452 
L 328.761662 150.698127 
L 328.773309 150.28483 
L 329.061787 150.181505 
L 329.061787 150.078181 
L 330.232223 149.974857 
L 330.232223 149.871532 
L 330.425501 149.768208 
L 330.425501 149.664883 
L 331.416241 149.561559 
L 331.416241 149.458235 
L 331.658902 149.35491 
L 331.668352 149.148261 
L 331.8493 149.044937 
L 331.8493 148.941613 
L 332.940132 148.838288 
L 332.940132 148.734964 
L 333.070156 148.631639 
L 333.088585 148.321666 
L 333.328534 148.218342 
L 333.339554 148.011693 
L 333.487984 147.908369 
L 333.487984 147.805044 
L 334.160226 147.70172 
L 334.214096 147.495071 
L 334.914803 147.391747 
L 334.914803 147.288422 
L 335.267322 147.185098 
L 335.267322 147.081773 
L 335.608385 146.978449 
L 335.608385 146.875125 
L 336.345716 146.7718 
L 336.451607 146.461827 
L 337.018931 146.358503 
L 337.020311 146.151854 
L 337.739405 146.048529 
L 337.837543 145.841881 
L 338.966898 145.738556 
L 339.061499 145.531907 
L 340.03939 145.428583 
L 340.133001 145.221934 
L 340.935456 145.11861 
L 340.935456 145.015285 
L 343.107021 144.911961 
L 343.107021 144.808637 
L 344.316236 144.705312 
L 344.316236 144.601988 
L 344.750335 144.498663 
L 344.750335 144.395339 
L 346.388381 144.292014 
L 346.388381 144.18869 
L 347.462666 144.085366 
L 347.462666 143.982041 
L 348.187843 143.878717 
L 348.187843 143.775392 
L 350.283856 143.672068 
L 350.391162 143.465419 
L 356.355626 143.362095 
L 356.355626 143.25877 
L 361.113325 143.25877 
L 361.113325 143.25877 
" style="fill:none;stroke:#00bfbf;stroke-linecap:square;stroke-width:1.5;"/>
   </g>
   <g id="line2d_43">
    <defs>
     <path d="M -6 0 
L 6 0 
M 0 6 
L 0 -6 
" id="mdcffaa7602" style="stroke:#00bfbf;stroke-width:1.5;"/>
    </defs>
    <g>
     <use style="fill:none;stroke:#00bfbf;stroke-width:1.5;" x="132.653542" xlink:href="#mdcffaa7602" y="259.085426"/>
     <use style="fill:none;stroke:#00bfbf;stroke-width:1.5;" x="238.197294" xlink:href="#mdcffaa7602" y="242.553522"/>
     <use style="fill:none;stroke:#00bfbf;stroke-width:1.5;" x="290.942793" xlink:href="#mdcffaa7602" y="197.91738"/>
     <use style="fill:none;stroke:#00bfbf;stroke-width:1.5;" x="321.748961" xlink:href="#mdcffaa7602" y="155.554374"/>
     <use style="fill:none;stroke:#00bfbf;stroke-width:1.5;" x="356.355626" xlink:href="#mdcffaa7602" y="143.25877"/>
     <use style="fill:none;stroke:#00bfbf;stroke-width:1.5;" x="361.113325" xlink:href="#mdcffaa7602" y="143.25877"/>
    </g>
   </g>
   <g id="line2d_44"/>
   <g id="line2d_45">
    <path clip-path="url(#p0ee5c76965)" d="M 265.712779 236.87068 
" style="fill:none;stroke:#00bfbf;stroke-linecap:square;stroke-width:1.5;"/>
    <defs>
     <path d="M -12 12 
L 12 -12 
M -12 -12 
L 12 12 
" id="m6833af8751" style="stroke:#00bfbf;stroke-width:3;"/>
    </defs>
    <g clip-path="url(#p0ee5c76965)">
     <use style="fill:#00bfbf;stroke:#00bfbf;stroke-width:3;" x="265.712779" xlink:href="#m6833af8751" y="236.87068"/>
    </g>
   </g>
   <g id="line2d_46">
    <defs>
     <path d="M 0 1.5 
C 0.397805 1.5 0.77937 1.341951 1.06066 1.06066 
C 1.341951 0.77937 1.5 0.397805 1.5 0 
C 1.5 -0.397805 1.341951 -0.77937 1.06066 -1.06066 
C 0.77937 -1.341951 0.397805 -1.5 0 -1.5 
C -0.397805 -1.5 -0.77937 -1.341951 -1.06066 -1.06066 
C -1.341951 -0.77937 -1.5 -0.397805 -1.5 0 
C -1.5 0.397805 -1.341951 0.77937 -1.06066 1.06066 
C -0.77937 1.341951 -0.397805 1.5 0 1.5 
z
" id="m3359bff380" style="stroke:#008000;"/>
    </defs>
    <g>
     <use style="fill:#008000;stroke:#008000;" x="333.745261" xlink:href="#m3359bff380" y="240.383709"/>
     <use style="fill:#008000;stroke:#008000;" x="333.745261" xlink:href="#m3359bff380" y="240.383709"/>
    </g>
   </g>
   <g id="line2d_47">
    <path d="M 53.483194 298.245375 
L 53.483194 275.204033 
L 65.868428 275.204033 
L 65.868428 273.447518 
L 73.113325 273.447518 
L 73.113325 272.31095 
L 78.253662 272.31095 
L 78.253662 271.277706 
L 82.240817 271.277706 
L 82.240817 270.864408 
L 85.498559 270.864408 
L 85.498559 270.451111 
L 88.252942 270.451111 
L 88.252942 270.244462 
L 92.743457 270.141137 
L 92.743457 269.934489 
L 96.329064 269.831164 
L 96.329064 269.624515 
L 100.638176 269.521191 
L 100.638176 269.107893 
L 105.128691 269.004569 
L 105.128691 268.487947 
L 107.011285 268.384623 
L 107.011285 268.281298 
L 110.269028 268.177974 
L 110.269028 267.971325 
L 113.650426 267.868001 
L 113.650426 267.764676 
L 114.256183 267.764676 
L 114.256183 267.558027 
L 117.010565 267.558027 
L 117.010565 267.351378 
L 119.83773 267.248054 
L 119.83773 267.14473 
L 121.50108 267.041405 
L 121.50108 266.938081 
L 124.758823 266.834756 
L 124.758823 266.731432 
L 126.936764 266.628108 
L 126.936764 266.524783 
L 131.329372 266.421459 
L 131.329372 266.318134 
L 137.308741 266.318134 
L 137.308741 266.111486 
L 140.318885 266.008161 
L 140.318885 265.904837 
L 142.408049 265.801512 
L 142.408049 265.698188 
L 146.271548 265.594864 
L 146.271548 265.491539 
L 147.237628 265.491539 
L 147.237628 265.28489 
L 154.102338 265.181566 
L 154.102338 265.078242 
L 154.916088 265.078242 
L 154.916088 264.871593 
L 156.884146 264.871593 
L 156.884146 264.664944 
L 158.557238 264.664944 
L 158.557238 264.458295 
L 159.716658 264.354971 
L 159.716658 264.251646 
L 162.524418 264.148322 
L 162.604186 263.941673 
L 162.958802 263.838349 
L 162.958802 263.735024 
L 166.71033 263.6317 
L 166.71033 263.528376 
L 168.656062 263.425051 
L 168.656062 263.321727 
L 172.586402 263.218402 
L 172.586402 263.115078 
L 173.058121 263.115078 
L 173.058121 262.908429 
L 175.729972 262.805105 
L 175.729972 262.70178 
L 185.265118 262.598456 
L 185.265118 262.495132 
L 186.128375 262.391807 
L 186.128375 262.185158 
L 192.915875 262.081834 
L 192.915875 261.97851 
L 194.526454 261.875185 
L 194.526454 261.771861 
L 198.804584 261.668536 
L 198.804584 261.565212 
L 207.591962 261.461888 
L 207.591962 261.358563 
L 209.880981 261.255239 
L 209.880981 261.151914 
L 212.528974 261.04859 
L 212.528974 260.945266 
L 214.770415 260.841941 
L 214.770415 260.738617 
L 217.16442 260.635292 
L 217.16442 260.531968 
L 218.375143 260.428643 
L 218.375143 260.325319 
L 226.413572 260.221995 
L 226.413572 260.11867 
L 228.673029 260.015346 
L 228.673029 259.912021 
L 233.4041 259.808697 
L 233.4041 259.705373 
L 239.439132 259.602048 
L 239.439132 259.498724 
L 241.056784 259.395399 
L 241.056784 259.292075 
L 244.103606 259.188751 
L 244.103606 259.085426 
L 247.254153 259.085426 
L 247.254153 258.878777 
L 250.381146 258.775453 
L 250.381146 258.672129 
L 254.109717 258.568804 
L 254.109717 258.46548 
L 254.529704 258.362155 
L 254.529704 258.155507 
L 257.589717 258.052182 
L 257.589717 257.948858 
L 258.441804 257.845533 
L 258.511011 255.469072 
L 258.622442 255.365748 
L 258.655994 254.95245 
L 258.79579 254.849126 
L 258.81661 254.642477 
L 259.15544 254.539153 
L 259.15544 254.435828 
L 260.640827 254.332504 
L 260.72731 254.125855 
L 261.088737 254.022531 
L 261.088737 253.919206 
L 261.999022 253.815882 
L 261.999022 253.712557 
L 266.093422 253.609233 
L 266.093422 253.505908 
L 267.648526 253.402584 
L 267.648526 253.29926 
L 269.403745 253.195935 
L 269.403745 253.092611 
L 269.925028 252.989286 
L 269.925028 252.885962 
L 270.853208 252.782638 
L 270.954546 251.129447 
L 272.018781 251.026123 
L 272.018781 250.922798 
L 278.084358 250.819474 
L 278.195094 249.78623 
L 278.310298 249.682906 
L 278.33505 249.476257 
L 280.189906 249.372932 
L 280.189906 249.269608 
L 283.222894 249.166284 
L 283.294101 248.029715 
L 285.131108 247.926391 
L 285.131108 247.823066 
L 287.173835 247.719742 
L 287.248458 247.099796 
L 287.339423 246.996471 
L 287.364262 246.686498 
L 288.488397 246.583173 
L 288.488397 246.479849 
L 290.474311 246.376525 
L 290.488551 245.963227 
L 291.122113 245.859903 
L 291.122113 245.756578 
L 292.512363 245.653254 
L 292.512363 245.549929 
L 293.248235 245.446605 
L 293.248235 245.343281 
L 295.261171 245.239956 
L 295.261171 245.136632 
L 295.621932 245.033307 
L 295.688842 244.310037 
L 297.766281 244.206712 
L 297.766281 244.103388 
L 299.796954 244.000063 
L 299.796954 243.896739 
L 300.26829 243.793415 
L 300.26829 243.69009 
L 302.201673 243.586766 
L 302.201673 243.483441 
L 304.305765 243.380117 
L 304.305765 243.276793 
L 304.906235 243.173468 
L 304.906235 243.070144 
L 305.625881 242.966819 
L 305.662518 242.553522 
L 306.89229 242.450197 
L 306.89229 242.346873 
L 310.090149 242.243549 
L 310.182268 241.933575 
L 312.985343 241.830251 
L 312.985343 241.726927 
L 315.9661 241.623602 
L 315.982926 241.416953 
L 318.657646 241.313629 
L 318.657646 241.210305 
L 320.399047 241.10698 
L 320.399047 241.003656 
L 322.504671 240.900331 
L 322.504671 240.797007 
L 323.00412 240.693683 
L 323.00412 240.590358 
L 333.745261 240.487034 
L 333.745261 240.383709 
L 361.113325 240.383709 
L 361.113325 240.383709 
" style="fill:none;stroke:#008000;stroke-linecap:square;stroke-width:1.5;"/>
   </g>
   <g id="line2d_48">
    <defs>
     <path d="M -0 6 
L 6 -6 
L -6 -6 
z
" id="m8e60119247" style="stroke:#008000;stroke-linejoin:miter;stroke-width:1.5;"/>
    </defs>
    <g>
     <use style="fill:none;stroke:#008000;stroke-linejoin:miter;stroke-width:1.5;" x="104.107378" xlink:href="#m8e60119247" y="269.004569"/>
     <use style="fill:none;stroke:#008000;stroke-linejoin:miter;stroke-width:1.5;" x="173.058121" xlink:href="#m8e60119247" y="263.115078"/>
     <use style="fill:none;stroke:#008000;stroke-linejoin:miter;stroke-width:1.5;" x="258.477929" xlink:href="#m8e60119247" y="256.295667"/>
     <use style="fill:none;stroke:#008000;stroke-linejoin:miter;stroke-width:1.5;" x="324.63128" xlink:href="#m8e60119247" y="240.487034"/>
     <use style="fill:none;stroke:#008000;stroke-linejoin:miter;stroke-width:1.5;" x="333.745261" xlink:href="#m8e60119247" y="240.383709"/>
     <use style="fill:none;stroke:#008000;stroke-linejoin:miter;stroke-width:1.5;" x="361.113325" xlink:href="#m8e60119247" y="240.383709"/>
    </g>
   </g>
   <g id="line2d_49"/>
   <g id="line2d_50">
    <path clip-path="url(#p0ee5c76965)" d="M 258.470673 256.708965 
" style="fill:none;stroke:#008000;stroke-linecap:square;stroke-width:1.5;"/>
    <defs>
     <path d="M -12 12 
L 12 -12 
M -12 -12 
L 12 12 
" id="m2f9c2150c6" style="stroke:#008000;stroke-width:3;"/>
    </defs>
    <g clip-path="url(#p0ee5c76965)">
     <use style="fill:#008000;stroke:#008000;stroke-width:3;" x="258.470673" xlink:href="#m2f9c2150c6" y="256.708965"/>
    </g>
   </g>
   <g id="line2d_51">
    <defs>
     <path d="M 0 1.5 
C 0.397805 1.5 0.77937 1.341951 1.06066 1.06066 
C 1.341951 0.77937 1.5 0.397805 1.5 0 
C 1.5 -0.397805 1.341951 -0.77937 1.06066 -1.06066 
C 0.77937 -1.341951 0.397805 -1.5 0 -1.5 
C -0.397805 -1.5 -0.77937 -1.341951 -1.06066 -1.06066 
C -1.341951 -0.77937 -1.5 -0.397805 -1.5 0 
C -1.5 0.397805 -1.341951 0.77937 -1.06066 1.06066 
C -0.77937 1.341951 -0.397805 1.5 0 1.5 
z
" id="m1407c3fa0b" style="stroke:#0000ff;"/>
    </defs>
    <g>
     <use style="fill:#0000ff;stroke:#0000ff;" x="332.533416" xlink:href="#m1407c3fa0b" y="245.549929"/>
     <use style="fill:#0000ff;stroke:#0000ff;" x="332.533416" xlink:href="#m1407c3fa0b" y="245.549929"/>
    </g>
   </g>
   <g id="line2d_52">
    <path d="M 44.355702 298.245375 
L 44.355702 276.753899 
L 56.740936 276.753899 
L 56.740936 275.307358 
L 63.985834 275.307358 
L 63.985834 274.480762 
L 69.126171 274.480762 
L 69.126171 273.757491 
L 73.113325 273.757491 
L 73.113325 273.344194 
L 76.371068 273.344194 
L 76.371068 273.137545 
L 79.12545 273.137545 
L 79.12545 272.930896 
L 81.511405 272.930896 
L 81.511405 272.724247 
L 83.615966 272.724247 
L 83.615966 272.517599 
L 88.756302 272.414274 
L 88.756302 272.104301 
L 90.186515 272.104301 
L 90.186515 271.794328 
L 91.510684 271.794328 
L 91.510684 271.484355 
L 96.967279 271.38103 
L 96.967279 271.174381 
L 99.586807 271.071057 
L 99.586807 270.864408 
L 107.365121 270.761084 
L 107.365121 270.554435 
L 112.373589 270.451111 
L 112.373589 270.347786 
L 114.610018 270.244462 
L 114.610018 270.037813 
L 120.771668 269.934489 
L 120.771668 269.831164 
L 121.261236 269.831164 
L 121.261236 269.624515 
L 125.344715 269.521191 
L 125.344715 269.417867 
L 128.825215 269.314542 
L 128.825215 269.211218 
L 138.937086 269.107893 
L 138.937086 269.004569 
L 146.857441 268.901245 
L 146.857441 268.79792 
L 148.560454 268.694596 
L 148.560454 268.591271 
L 150.63588 268.487947 
L 150.63588 268.384623 
L 157.708893 268.281298 
L 157.708893 268.177974 
L 177.793761 268.074649 
L 177.793761 267.971325 
L 183.991515 267.868001 
L 183.991515 267.764676 
L 190.736556 267.661352 
L 190.736556 267.454703 
L 198.189596 267.351378 
L 198.189596 267.248054 
L 201.331274 267.14473 
L 201.331274 266.938081 
L 205.487642 266.834756 
L 205.487642 266.628108 
L 212.177427 266.524783 
L 212.193805 266.318134 
L 218.461982 266.21481 
L 218.461982 266.111486 
L 222.647763 266.008161 
L 222.647763 265.904837 
L 225.072951 265.801512 
L 225.072951 265.698188 
L 229.926344 265.594864 
L 229.926344 265.491539 
L 230.319737 265.491539 
L 230.319737 265.28489 
L 232.231503 265.28489 
L 232.231503 265.078242 
L 236.847436 264.974917 
L 236.847436 264.768268 
L 241.266235 264.664944 
L 241.266235 264.56162 
L 242.304129 264.56162 
L 242.304129 264.354971 
L 242.58585 264.251646 
L 242.58585 264.148322 
L 245.200846 264.044998 
L 245.200846 263.838349 
L 249.342995 263.735024 
L 249.429879 261.771861 
L 250.056403 261.668536 
L 250.056403 261.565212 
L 250.484856 261.461888 
L 250.536806 261.255239 
L 250.853238 261.151914 
L 250.853238 261.04859 
L 251.46878 260.945266 
L 251.487441 260.738617 
L 252.250308 260.635292 
L 252.250308 260.531968 
L 252.97176 260.428643 
L 252.97176 260.325319 
L 253.445717 260.221995 
L 253.445717 260.11867 
L 255.143821 260.015346 
L 255.143821 259.912021 
L 256.542489 259.808697 
L 256.542489 259.705373 
L 261.107822 259.602048 
L 261.107822 259.498724 
L 261.737997 259.395399 
L 261.747109 259.085426 
L 262.495826 258.982102 
L 262.567261 258.775453 
L 263.340874 258.672129 
L 263.340874 258.568804 
L 264.097054 258.46548 
L 264.097054 258.362155 
L 266.38396 258.258831 
L 266.38396 258.155507 
L 268.974182 258.052182 
L 268.994578 257.53556 
L 269.251708 257.432236 
L 269.328192 256.915614 
L 269.395144 256.812289 
L 269.504288 256.398992 
L 271.799597 256.295667 
L 271.82135 255.985694 
L 274.117139 255.88237 
L 274.125417 255.469072 
L 274.416092 255.365748 
L 274.459131 254.95245 
L 275.259863 254.849126 
L 275.323542 254.642477 
L 275.605911 254.539153 
L 275.605911 254.435828 
L 276.919428 254.332504 
L 276.919428 254.229179 
L 277.647764 254.125855 
L 277.647764 254.022531 
L 277.86009 253.919206 
L 277.86009 253.815882 
L 278.101363 253.712557 
L 278.101363 253.609233 
L 278.994681 253.505908 
L 278.994681 253.402584 
L 280.38622 253.29926 
L 280.38622 253.195935 
L 281.355414 253.092611 
L 281.359292 252.885962 
L 281.633064 252.782638 
L 281.633064 252.679313 
L 282.662108 252.575989 
L 282.662108 252.472664 
L 283.919809 252.36934 
L 283.919809 252.266016 
L 284.108303 252.162691 
L 284.121328 251.956042 
L 284.29354 251.852718 
L 284.29354 251.749394 
L 284.437837 251.646069 
L 284.437837 251.542745 
L 284.781903 251.43942 
L 284.781903 251.336096 
L 285.264328 251.232772 
L 285.264328 251.129447 
L 286.802607 251.026123 
L 286.802607 250.922798 
L 288.326335 250.819474 
L 288.326335 250.71615 
L 288.602576 250.612825 
L 288.605058 250.302852 
L 289.019478 250.199528 
L 289.024447 249.992879 
L 290.482167 249.889554 
L 290.482167 249.78623 
L 290.611068 249.682906 
L 290.611068 249.579581 
L 291.293961 249.476257 
L 291.293961 249.372932 
L 291.950821 249.269608 
L 291.950821 249.166284 
L 292.550415 249.062959 
L 292.550415 248.959635 
L 293.18381 248.85631 
L 293.18381 248.752986 
L 295.228352 248.649662 
L 295.228352 248.546337 
L 296.500264 248.443013 
L 296.52883 248.236364 
L 297.800464 248.13304 
L 297.800464 248.029715 
L 300.0494 247.926391 
L 300.0494 247.823066 
L 302.14665 247.719742 
L 302.165613 247.513093 
L 303.819437 247.409769 
L 303.92647 247.099796 
L 305.88236 246.996471 
L 305.88236 246.893147 
L 306.181442 246.789822 
L 306.181442 246.686498 
L 308.362107 246.583173 
L 308.362107 246.479849 
L 310.160197 246.376525 
L 310.160197 246.2732 
L 313.211561 246.169876 
L 313.211561 246.066551 
L 325.042423 245.963227 
L 325.042423 245.859903 
L 328.706623 245.756578 
L 328.706623 245.653254 
L 361.113325 245.549929 
L 361.113325 245.549929 
" style="fill:none;stroke:#0000ff;stroke-linecap:square;stroke-width:1.5;"/>
   </g>
   <g id="line2d_53">
    <defs>
     <path d="M 0 -6 
L -1.347084 -1.854102 
L -5.706339 -1.854102 
L -2.179628 0.708204 
L -3.526712 4.854102 
L -0 2.291796 
L 3.526712 4.854102 
L 2.179628 0.708204 
L 5.706339 -1.854102 
L 1.347084 -1.854102 
z
" id="mdfa50682ff" style="stroke:#0000ff;stroke-linejoin:bevel;stroke-width:1.5;"/>
    </defs>
    <g>
     <use style="fill:none;stroke:#0000ff;stroke-linejoin:bevel;stroke-width:1.5;" x="92.743457" xlink:href="#mdfa50682ff" y="271.38103"/>
     <use style="fill:none;stroke:#0000ff;stroke-linejoin:bevel;stroke-width:1.5;" x="164.690166" xlink:href="#mdfa50682ff" y="268.177974"/>
     <use style="fill:none;stroke:#0000ff;stroke-linejoin:bevel;stroke-width:1.5;" x="249.35267" xlink:href="#mdfa50682ff" y="262.908429"/>
     <use style="fill:none;stroke:#0000ff;stroke-linejoin:bevel;stroke-width:1.5;" x="310.160197" xlink:href="#mdfa50682ff" y="246.2732"/>
     <use style="fill:none;stroke:#0000ff;stroke-linejoin:bevel;stroke-width:1.5;" x="332.533416" xlink:href="#mdfa50682ff" y="245.549929"/>
     <use style="fill:none;stroke:#0000ff;stroke-linejoin:bevel;stroke-width:1.5;" x="361.113325" xlink:href="#mdfa50682ff" y="245.549929"/>
    </g>
   </g>
   <g id="line2d_54"/>
   <g id="line2d_55">
    <path clip-path="url(#p0ee5c76965)" d="M 249.341134 263.735024 
" style="fill:none;stroke:#0000ff;stroke-linecap:square;stroke-width:1.5;"/>
    <defs>
     <path d="M -12 12 
L 12 -12 
M -12 -12 
L 12 12 
" id="m711bea431f" style="stroke:#0000ff;stroke-width:3;"/>
    </defs>
    <g clip-path="url(#p0ee5c76965)">
     <use style="fill:#0000ff;stroke:#0000ff;stroke-width:3;" x="249.341134" xlink:href="#m711bea431f" y="263.735024"/>
    </g>
   </g>
   <g id="line2d_56">
    <defs>
     <path d="M 0 1.5 
C 0.397805 1.5 0.77937 1.341951 1.06066 1.06066 
C 1.341951 0.77937 1.5 0.397805 1.5 0 
C 1.5 -0.397805 1.341951 -0.77937 1.06066 -1.06066 
C 0.77937 -1.341951 0.397805 -1.5 0 -1.5 
C -0.397805 -1.5 -0.77937 -1.341951 -1.06066 -1.06066 
C -1.341951 -0.77937 -1.5 -0.397805 -1.5 0 
C -1.5 0.397805 -1.341951 0.77937 -1.06066 1.06066 
C -0.77937 1.341951 -0.397805 1.5 0 1.5 
z
" id="m53dad5179d" style="stroke:#000000;"/>
    </defs>
    <g>
     <use style="stroke:#000000;" x="323.773161" xlink:href="#m53dad5179d" y="260.015346"/>
     <use style="stroke:#000000;" x="323.773161" xlink:href="#m53dad5179d" y="260.015346"/>
    </g>
   </g>
   <g id="line2d_57">
    <path d="M 31.970468 298.245375 
L 31.970468 276.960548 
L 44.355702 276.960548 
L 44.355702 275.82398 
L 51.6006 275.82398 
L 51.6006 275.100709 
L 56.740936 275.100709 
L 56.740936 274.790736 
L 63.985834 274.687411 
L 63.985834 274.480762 
L 79.12545 274.377438 
L 79.12545 274.274113 
L 87.201573 274.170789 
L 87.201573 273.96414 
L 99.176028 273.860816 
L 99.176028 273.757491 
L 102.571749 273.654167 
L 102.571749 273.550843 
L 111.352275 273.550843 
L 111.352275 273.240869 
L 116.908168 273.137545 
L 116.908168 273.034221 
L 118.243337 273.034221 
L 118.243337 272.827572 
L 119.081059 272.724247 
L 119.081059 272.620923 
L 123.73751 272.517599 
L 123.73751 272.414274 
L 124.659279 272.31095 
L 124.659279 272.207625 
L 129.899159 272.104301 
L 129.899159 272.000977 
L 130.121126 272.000977 
L 130.121126 271.794328 
L 135.804609 271.691003 
L 135.804609 271.484355 
L 143.541966 271.38103 
L 143.541966 271.277706 
L 147.811381 271.174381 
L 147.811381 271.071057 
L 163.102571 270.967733 
L 163.102571 270.864408 
L 171.85699 270.864408 
L 171.85699 270.657759 
L 183.126939 270.554435 
L 183.126939 270.451111 
L 198.228659 270.347786 
L 198.228659 270.244462 
L 198.898792 270.244462 
L 198.898792 270.037813 
L 203.60962 269.934489 
L 203.60962 269.831164 
L 206.714926 269.72784 
L 206.714926 269.624515 
L 228.196278 269.521191 
L 228.196278 269.417867 
L 235.314109 269.314542 
L 235.314109 269.107893 
L 236.927401 269.004569 
L 237.03705 267.764676 
L 237.60255 267.661352 
L 237.60255 267.558027 
L 241.594121 267.454703 
L 241.594121 267.351378 
L 243.139336 267.248054 
L 243.139336 267.14473 
L 247.962233 267.041405 
L 247.962233 266.938081 
L 249.341041 266.834756 
L 249.377205 266.524783 
L 250.380415 266.421459 
L 250.434506 266.111486 
L 252.96705 266.008161 
L 252.96705 265.904837 
L 256.571012 265.801512 
L 256.603147 265.594864 
L 259.321819 265.491539 
L 259.321819 265.388215 
L 260.409084 265.28489 
L 260.409084 265.181566 
L 261.048959 265.078242 
L 261.054999 264.871593 
L 261.740182 264.768268 
L 261.740182 264.664944 
L 263.808312 264.56162 
L 263.808312 264.458295 
L 264.649375 264.354971 
L 264.649375 264.251646 
L 265.146444 264.148322 
L 265.146444 264.044998 
L 265.705258 263.941673 
L 265.706859 263.6317 
L 268.51998 263.528376 
L 268.51998 263.425051 
L 268.989713 263.321727 
L 269.012475 263.115078 
L 270.254744 263.011754 
L 270.254744 262.908429 
L 271.727961 262.805105 
L 271.735935 262.598456 
L 274.453494 262.495132 
L 274.453494 262.391807 
L 276.525491 262.288483 
L 276.525491 262.185158 
L 282.586793 262.081834 
L 282.586793 261.97851 
L 283.735945 261.875185 
L 283.735945 261.771861 
L 283.919701 261.668536 
L 283.919701 261.565212 
L 285.142284 261.461888 
L 285.158188 261.255239 
L 289.511121 261.151914 
L 289.511121 261.04859 
L 292.852232 260.945266 
L 292.852232 260.841941 
L 294.366179 260.738617 
L 294.366179 260.635292 
L 301.389732 260.531968 
L 301.389732 260.428643 
L 306.7967 260.325319 
L 306.7967 260.221995 
L 323.773161 260.11867 
L 323.773161 260.015346 
L 361.113325 260.015346 
L 361.113325 260.015346 
" style="fill:none;stroke:#000000;stroke-linecap:square;stroke-width:1.5;"/>
   </g>
   <g id="line2d_58">
    <defs>
     <path d="M 0 6 
C 1.591219 6 3.117479 5.367802 4.242641 4.242641 
C 5.367802 3.117479 6 1.591219 6 0 
C 6 -1.591219 5.367802 -3.117479 4.242641 -4.242641 
C 3.117479 -5.367802 1.591219 -6 0 -6 
C -1.591219 -6 -3.117479 -5.367802 -4.242641 -4.242641 
C -5.367802 -3.117479 -6 -1.591219 -6 0 
C -6 1.591219 -5.367802 3.117479 -4.242641 4.242641 
C -3.117479 5.367802 -1.591219 6 0 6 
z
" id="m18965bbe68" style="stroke:#000000;stroke-width:1.5;"/>
    </defs>
    <g>
     <use style="fill:none;stroke:#000000;stroke-width:1.5;" x="102.571749" xlink:href="#m18965bbe68" y="273.550843"/>
     <use style="fill:none;stroke:#000000;stroke-width:1.5;" x="171.85699" xlink:href="#m18965bbe68" y="270.864408"/>
     <use style="fill:none;stroke:#000000;stroke-width:1.5;" x="273.756564" xlink:href="#m18965bbe68" y="262.598456"/>
     <use style="fill:none;stroke:#000000;stroke-width:1.5;" x="323.773161" xlink:href="#m18965bbe68" y="260.11867"/>
     <use style="fill:none;stroke:#000000;stroke-width:1.5;" x="323.773161" xlink:href="#m18965bbe68" y="260.015346"/>
     <use style="fill:none;stroke:#000000;stroke-width:1.5;" x="361.113325" xlink:href="#m18965bbe68" y="260.015346"/>
    </g>
   </g>
   <g id="line2d_59"/>
   <g id="line2d_60">
    <path clip-path="url(#p0ee5c76965)" d="M 236.954597 268.487947 
" style="fill:none;stroke:#000000;stroke-linecap:square;stroke-width:1.5;"/>
    <defs>
     <path d="M -12 12 
L 12 -12 
M -12 -12 
L 12 12 
" id="ma8274d582f" style="stroke:#000000;stroke-width:3;"/>
    </defs>
    <g clip-path="url(#p0ee5c76965)">
     <use style="stroke:#000000;stroke-width:3;" x="236.954597" xlink:href="#ma8274d582f" y="268.487947"/>
    </g>
   </g>
   <g id="line2d_61">
    <defs>
     <path d="M 0 1.5 
C 0.397805 1.5 0.77937 1.341951 1.06066 1.06066 
C 1.341951 0.77937 1.5 0.397805 1.5 0 
C 1.5 -0.397805 1.341951 -0.77937 1.06066 -1.06066 
C 0.77937 -1.341951 0.397805 -1.5 0 -1.5 
C -0.397805 -1.5 -0.77937 -1.341951 -1.06066 -1.06066 
C -1.341951 -0.77937 -1.5 -0.397805 -1.5 0 
C -1.5 0.397805 -1.341951 0.77937 -1.06066 1.06066 
C -0.77937 1.341951 -0.397805 1.5 0 1.5 
z
" id="m9661520f9b" style="stroke:#ff0000;"/>
    </defs>
    <g>
     <use style="fill:#ff0000;stroke:#ff0000;" x="300.018737" xlink:href="#m9661520f9b" y="267.248054"/>
     <use style="fill:#ff0000;stroke:#ff0000;" x="300.018737" xlink:href="#m9661520f9b" y="267.248054"/>
    </g>
   </g>
   <g id="line2d_62">
    <path d="M 19.585234 298.245375 
L 19.585234 276.753899 
L 31.970468 276.753899 
L 31.970468 276.443926 
L 39.215366 276.443926 
L 39.215366 276.237277 
L 44.355702 276.237277 
L 44.355702 275.720655 
L 63.985834 275.617331 
L 63.985834 275.307358 
L 80.944115 275.204033 
L 80.944115 274.997384 
L 96.967279 274.89406 
L 96.967279 274.790736 
L 106.281873 274.687411 
L 106.281873 274.584087 
L 115.297338 274.480762 
L 115.297338 274.377438 
L 116.120899 274.274113 
L 116.120899 274.170789 
L 118.456478 274.067465 
L 118.456478 273.96414 
L 125.005283 273.860816 
L 125.005283 273.757491 
L 133.796749 273.757491 
L 133.796749 273.447518 
L 149.714454 273.344194 
L 149.714454 273.240869 
L 161.270218 273.137545 
L 161.270218 273.034221 
L 191.602927 272.930896 
L 191.602927 272.827572 
L 193.843859 272.724247 
L 193.843859 272.620923 
L 196.164495 272.517599 
L 196.164495 272.414274 
L 197.979805 272.31095 
L 197.979805 272.104301 
L 215.001685 272.000977 
L 215.001685 271.897652 
L 224.416078 271.794328 
L 224.416078 271.691003 
L 224.548318 271.691003 
L 224.627714 270.864408 
L 226.414691 270.761084 
L 226.414691 270.657759 
L 236.957668 270.554435 
L 236.987234 270.141137 
L 237.149345 270.037813 
L 237.149345 269.934489 
L 237.978842 269.831164 
L 237.978842 269.72784 
L 243.930565 269.624515 
L 243.930565 269.521191 
L 244.897281 269.417867 
L 244.897281 269.314542 
L 251.778117 269.211218 
L 251.778117 269.107893 
L 254.533845 269.004569 
L 254.533845 268.901245 
L 259.384868 268.79792 
L 259.384868 268.694596 
L 263.830847 268.591271 
L 263.865267 268.384623 
L 267.603335 268.281298 
L 267.603335 268.177974 
L 270.40885 268.074649 
L 270.40885 267.971325 
L 274.349801 267.868001 
L 274.349801 267.764676 
L 282.862809 267.661352 
L 282.862809 267.558027 
L 298.601782 267.454703 
L 298.601782 267.351378 
L 361.113325 267.248054 
L 361.113325 267.248054 
" style="fill:none;stroke:#ff0000;stroke-linecap:square;stroke-width:1.5;"/>
   </g>
   <g id="line2d_63">
    <defs>
     <path d="M -6 6 
L 6 6 
L 6 -6 
L -6 -6 
z
" id="me9c21d3e81" style="stroke:#ff0000;stroke-linejoin:miter;stroke-width:1.5;"/>
    </defs>
    <g>
     <use style="fill:none;stroke:#ff0000;stroke-linejoin:miter;stroke-width:1.5;" x="39.215366" xlink:href="#me9c21d3e81" y="276.443926"/>
     <use style="fill:none;stroke:#ff0000;stroke-linejoin:miter;stroke-width:1.5;" x="119.684542" xlink:href="#me9c21d3e81" y="273.860816"/>
     <use style="fill:none;stroke:#ff0000;stroke-linejoin:miter;stroke-width:1.5;" x="224.576993" xlink:href="#me9c21d3e81" y="271.174381"/>
     <use style="fill:none;stroke:#ff0000;stroke-linejoin:miter;stroke-width:1.5;" x="300.018737" xlink:href="#me9c21d3e81" y="267.351378"/>
     <use style="fill:none;stroke:#ff0000;stroke-linejoin:miter;stroke-width:1.5;" x="300.018737" xlink:href="#me9c21d3e81" y="267.248054"/>
     <use style="fill:none;stroke:#ff0000;stroke-linejoin:miter;stroke-width:1.5;" x="361.113325" xlink:href="#me9c21d3e81" y="267.248054"/>
    </g>
   </g>
   <g id="line2d_64"/>
   <g id="line2d_65">
    <path clip-path="url(#p0ee5c76965)" d="M 224.570294 271.174381 
" style="fill:none;stroke:#ff0000;stroke-linecap:square;stroke-width:1.5;"/>
    <defs>
     <path d="M -12 12 
L 12 -12 
M -12 -12 
L 12 12 
" id="mef6e408582" style="stroke:#ff0000;stroke-width:3;"/>
    </defs>
    <g clip-path="url(#p0ee5c76965)">
     <use style="fill:#ff0000;stroke:#ff0000;stroke-width:3;" x="224.570294" xlink:href="#mef6e408582" y="271.174381"/>
    </g>
   </g>
   <g id="line2d_66">
    <defs>
     <path d="M 0 1.5 
C 0.397805 1.5 0.77937 1.341951 1.06066 1.06066 
C 1.341951 0.77937 1.5 0.397805 1.5 0 
C 1.5 -0.397805 1.341951 -0.77937 1.06066 -1.06066 
C 0.77937 -1.341951 0.397805 -1.5 0 -1.5 
C -0.397805 -1.5 -0.77937 -1.341951 -1.06066 -1.06066 
C -1.341951 -0.77937 -1.5 -0.397805 -1.5 0 
C -1.5 0.397805 -1.341951 0.77937 -1.06066 1.06066 
C -0.77937 1.341951 -0.397805 1.5 0 1.5 
z
" id="m68219ce988" style="stroke:#bf00bf;"/>
    </defs>
    <g>
     <use style="fill:#bf00bf;stroke:#bf00bf;" x="282.418561" xlink:href="#m68219ce988" y="270.347786"/>
     <use style="fill:#bf00bf;stroke:#bf00bf;" x="282.418561" xlink:href="#m68219ce988" y="270.347786"/>
    </g>
   </g>
   <g id="line2d_67">
    <path d="M 7.2 298.245375 
L 7.2 277.683819 
L 19.585234 277.683819 
L 19.585234 277.373846 
L 26.830132 277.373846 
L 26.830132 277.063872 
L 31.970468 277.063872 
L 31.970468 276.753899 
L 35.957623 276.753899 
L 35.957623 276.340602 
L 54.354982 276.340602 
L 54.354982 276.237277 
L 55.587755 276.237277 
L 55.587755 276.133953 
L 58.845497 276.133953 
L 58.845497 275.927304 
L 68.558881 275.927304 
L 68.558881 275.82398 
L 73.554536 275.82398 
L 73.554536 275.720655 
L 86.997364 275.720655 
L 86.997364 275.617331 
L 97.431412 275.617331 
L 97.431412 275.514006 
L 137.488158 275.514006 
L 137.488158 275.410682 
L 147.058047 275.410682 
L 147.058047 275.307358 
L 149.038689 275.307358 
L 149.038689 275.204033 
L 166.357411 275.204033 
L 166.357411 274.997384 
L 168.199317 274.997384 
L 168.199317 274.89406 
L 170.201749 274.89406 
L 170.201749 274.790736 
L 196.560648 274.790736 
L 196.560648 274.687411 
L 201.404924 274.687411 
L 201.404924 274.584087 
L 203.545139 274.584087 
L 203.545139 274.480762 
L 206.480834 274.480762 
L 206.480834 274.274113 
L 210.960475 274.274113 
L 210.960475 274.170789 
L 212.188224 274.170789 
L 212.188224 274.067465 
L 212.19455 274.067465 
L 212.19455 273.860816 
L 212.194922 273.860816 
L 212.194922 273.757491 
L 212.209425 273.757491 
L 212.209425 273.654167 
L 212.220574 273.654167 
L 212.220574 273.550843 
L 212.443202 273.550843 
L 212.443202 273.447518 
L 212.455672 273.447518 
L 212.455672 273.344194 
L 213.643583 273.344194 
L 213.643583 273.137545 
L 214.029961 273.137545 
L 214.029961 273.034221 
L 217.382213 273.034221 
L 217.382213 272.930896 
L 223.978305 272.930896 
L 223.978305 272.827572 
L 224.562382 272.827572 
L 224.562382 272.724247 
L 224.640418 272.724247 
L 224.640418 272.620923 
L 224.650334 272.620923 
L 224.650334 272.517599 
L 235.681741 272.517599 
L 235.681741 272.414274 
L 235.692881 272.414274 
L 235.692881 272.31095 
L 236.983843 272.31095 
L 236.983843 272.207625 
L 240.975373 272.207625 
L 240.975373 272.104301 
L 241.26086 272.104301 
L 241.26086 272.000977 
L 244.166985 272.000977 
L 244.166985 271.897652 
L 244.453522 271.897652 
L 244.453522 271.794328 
L 244.455876 271.794328 
L 244.455876 271.691003 
L 249.356715 271.691003 
L 249.356715 271.587679 
L 254.925681 271.587679 
L 254.925681 271.484355 
L 258.118532 271.484355 
L 258.118532 271.38103 
L 258.978057 271.38103 
L 258.978057 271.277706 
L 259.262953 271.277706 
L 259.262953 271.174381 
L 260.562252 271.174381 
L 260.562252 271.071057 
L 263.93583 271.071057 
L 263.93583 270.967733 
L 266.652967 270.967733 
L 266.652967 270.864408 
L 269.653923 270.864408 
L 269.653923 270.761084 
L 270.398471 270.761084 
L 270.398471 270.657759 
L 270.458226 270.657759 
L 270.458226 270.554435 
L 273.509252 270.554435 
L 273.509252 270.451111 
L 282.418561 270.451111 
L 282.418561 270.347786 
L 361.113325 270.347786 
" style="fill:none;stroke:#bf00bf;stroke-linecap:square;stroke-width:1.5;"/>
   </g>
   <g id="line2d_68">
    <defs>
     <path d="M -0 8.485281 
L 8.485281 0 
L 0 -8.485281 
L -8.485281 -0 
z
" id="m269a68a5c5" style="stroke:#bf00bf;stroke-linejoin:miter;stroke-width:1.5;"/>
    </defs>
    <g>
     <use style="fill:none;stroke:#bf00bf;stroke-linejoin:miter;stroke-width:1.5;" x="35.957623" xlink:href="#m269a68a5c5" y="276.340602"/>
     <use style="fill:none;stroke:#bf00bf;stroke-linejoin:miter;stroke-width:1.5;" x="97.431412" xlink:href="#m269a68a5c5" y="275.514006"/>
     <use style="fill:none;stroke:#bf00bf;stroke-linejoin:miter;stroke-width:1.5;" x="206.480834" xlink:href="#m269a68a5c5" y="274.274113"/>
     <use style="fill:none;stroke:#bf00bf;stroke-linejoin:miter;stroke-width:1.5;" x="282.418561" xlink:href="#m269a68a5c5" y="270.451111"/>
     <use style="fill:none;stroke:#bf00bf;stroke-linejoin:miter;stroke-width:1.5;" x="282.418561" xlink:href="#m269a68a5c5" y="270.347786"/>
     <use style="fill:none;stroke:#bf00bf;stroke-linejoin:miter;stroke-width:1.5;" x="361.113325" xlink:href="#m269a68a5c5" y="270.347786"/>
    </g>
   </g>
   <g id="line2d_69"/>
   <g id="line2d_70">
    <path clip-path="url(#p0ee5c76965)" d="M 212.186549 274.170789 
" style="fill:none;stroke:#bf00bf;stroke-linecap:square;stroke-width:1.5;"/>
    <defs>
     <path d="M -12 12 
L 12 -12 
M -12 -12 
L 12 12 
" id="mb74d829eb7" style="stroke:#bf00bf;stroke-width:3;"/>
    </defs>
    <g clip-path="url(#p0ee5c76965)">
     <use style="fill:#bf00bf;stroke:#bf00bf;stroke-width:3;" x="212.186549" xlink:href="#mb74d829eb7" y="274.170789"/>
    </g>
   </g>
   <g id="line2d_71">
    <path d="M 361.113325 270.347786 
L 392.793325 292.97583 
" style="fill:none;stroke:#bf00bf;stroke-linecap:square;stroke-width:1.5;"/>
    <g>
     <use style="fill:none;stroke:#bf00bf;stroke-linejoin:miter;stroke-width:1.5;" x="361.113325" xlink:href="#m269a68a5c5" y="270.347786"/>
     <use style="fill:none;stroke:#bf00bf;stroke-linejoin:miter;stroke-width:1.5;" x="392.793325" xlink:href="#m269a68a5c5" y="292.97583"/>
    </g>
   </g>
   <g id="line2d_72">
    <path d="M 361.113325 267.248054 
L 392.793325 242.388203 
" style="fill:none;stroke:#ff0000;stroke-linecap:square;stroke-width:1.5;"/>
    <g>
     <use style="fill:none;stroke:#ff0000;stroke-linejoin:miter;stroke-width:1.5;" x="361.113325" xlink:href="#me9c21d3e81" y="267.248054"/>
     <use style="fill:none;stroke:#ff0000;stroke-linejoin:miter;stroke-width:1.5;" x="392.793325" xlink:href="#me9c21d3e81" y="242.388203"/>
    </g>
   </g>
   <g id="line2d_73">
    <path d="M 361.113325 260.015346 
L 392.793325 191.800575 
" style="fill:none;stroke:#000000;stroke-linecap:square;stroke-width:1.5;"/>
    <g>
     <use style="fill:none;stroke:#000000;stroke-width:1.5;" x="361.113325" xlink:href="#m18965bbe68" y="260.015346"/>
     <use style="fill:none;stroke:#000000;stroke-width:1.5;" x="392.793325" xlink:href="#m18965bbe68" y="191.800575"/>
    </g>
   </g>
   <g id="line2d_74">
    <path d="M 361.113325 245.549929 
L 392.793325 141.212947 
" style="fill:none;stroke:#0000ff;stroke-linecap:square;stroke-width:1.5;"/>
    <g>
     <use style="fill:none;stroke:#0000ff;stroke-linejoin:bevel;stroke-width:1.5;" x="361.113325" xlink:href="#mdfa50682ff" y="245.549929"/>
     <use style="fill:none;stroke:#0000ff;stroke-linejoin:bevel;stroke-width:1.5;" x="392.793325" xlink:href="#mdfa50682ff" y="141.212947"/>
    </g>
   </g>
   <g id="line2d_75">
    <path d="M 361.113325 240.383709 
L 392.793325 90.62532 
" style="fill:none;stroke:#008000;stroke-linecap:square;stroke-width:1.5;"/>
    <g>
     <use style="fill:none;stroke:#008000;stroke-linejoin:miter;stroke-width:1.5;" x="361.113325" xlink:href="#m8e60119247" y="240.383709"/>
     <use style="fill:none;stroke:#008000;stroke-linejoin:miter;stroke-width:1.5;" x="392.793325" xlink:href="#m8e60119247" y="90.62532"/>
    </g>
   </g>
   <g id="line2d_76">
    <path d="M 361.113325 143.25877 
L 392.793325 40.037692 
" style="fill:none;stroke:#00bfbf;stroke-linecap:square;stroke-width:1.5;"/>
    <g>
     <use style="fill:none;stroke:#00bfbf;stroke-width:1.5;" x="361.113325" xlink:href="#mdcffaa7602" y="143.25877"/>
     <use style="fill:none;stroke:#00bfbf;stroke-width:1.5;" x="392.793325" xlink:href="#mdcffaa7602" y="40.037692"/>
    </g>
   </g>
   <g id="line2d_77">
    <path d="M 361.113325 298.245375 
L 361.113325 34.768147 
" style="fill:none;stroke:#000000;stroke-linecap:square;stroke-width:1.5;"/>
   </g>
   <g id="patch_3">
    <path d="M 73.113325 298.245375 
L 73.113325 32.133375 
" style="fill:none;stroke:#000000;stroke-linecap:square;stroke-linejoin:miter;stroke-width:0.8;"/>
   </g>
   <g id="patch_4">
    <path d="M 430.233325 298.245375 
L 430.233325 32.133375 
" style="fill:none;stroke:#000000;stroke-linecap:square;stroke-linejoin:miter;stroke-width:0.8;"/>
   </g>
   <g id="patch_5">
    <path d="M 73.113325 298.245375 
L 430.233325 298.245375 
" style="fill:none;stroke:#000000;stroke-linecap:square;stroke-linejoin:miter;stroke-width:0.8;"/>
   </g>
   <g id="patch_6">
    <path d="M 73.113325 32.133375 
L 430.233325 32.133375 
" style="fill:none;stroke:#000000;stroke-linecap:square;stroke-linejoin:miter;stroke-width:0.8;"/>
   </g>
   <g id="text_14">
    <!-- 40-D -->
    <defs>
     <path d="M 19.671875 64.796875 
L 19.671875 8.109375 
L 31.59375 8.109375 
Q 46.6875 8.109375 53.6875 14.9375 
Q 60.6875 21.78125 60.6875 36.53125 
Q 60.6875 51.171875 53.6875 57.984375 
Q 46.6875 64.796875 31.59375 64.796875 
z
M 9.8125 72.90625 
L 30.078125 72.90625 
Q 51.265625 72.90625 61.171875 64.09375 
Q 71.09375 55.28125 71.09375 36.53125 
Q 71.09375 17.671875 61.125 8.828125 
Q 51.171875 0 30.078125 0 
L 9.8125 0 
z
" id="DejaVuSans-44"/>
    </defs>
    <g transform="translate(398.553325 297.114893)scale(0.15 -0.15)">
     <use xlink:href="#DejaVuSans-34"/>
     <use x="63.623047" xlink:href="#DejaVuSans-30"/>
     <use x="127.246094" xlink:href="#DejaVuSans-2d"/>
     <use x="163.330078" xlink:href="#DejaVuSans-44"/>
    </g>
   </g>
   <g id="text_15">
    <!-- 20-D -->
    <g transform="translate(398.553325 246.527265)scale(0.15 -0.15)">
     <use xlink:href="#DejaVuSans-32"/>
     <use x="63.623047" xlink:href="#DejaVuSans-30"/>
     <use x="127.246094" xlink:href="#DejaVuSans-2d"/>
     <use x="163.330078" xlink:href="#DejaVuSans-44"/>
    </g>
   </g>
   <g id="text_16">
    <!-- 10-D -->
    <g transform="translate(398.553325 195.939637)scale(0.15 -0.15)">
     <use xlink:href="#DejaVuSans-31"/>
     <use x="63.623047" xlink:href="#DejaVuSans-30"/>
     <use x="127.246094" xlink:href="#DejaVuSans-2d"/>
     <use x="163.330078" xlink:href="#DejaVuSans-44"/>
    </g>
   </g>
   <g id="text_17">
    <!-- 5-D -->
    <defs>
     <path d="M 10.796875 72.90625 
L 49.515625 72.90625 
L 49.515625 64.59375 
L 19.828125 64.59375 
L 19.828125 46.734375 
Q 21.96875 47.46875 24.109375 47.828125 
Q 26.265625 48.1875 28.421875 48.1875 
Q 40.625 48.1875 47.75 41.5 
Q 54.890625 34.8125 54.890625 23.390625 
Q 54.890625 11.625 47.5625 5.09375 
Q 40.234375 -1.421875 26.90625 -1.421875 
Q 22.3125 -1.421875 17.546875 -0.640625 
Q 12.796875 0.140625 7.71875 1.703125 
L 7.71875 11.625 
Q 12.109375 9.234375 16.796875 8.0625 
Q 21.484375 6.890625 26.703125 6.890625 
Q 35.15625 6.890625 40.078125 11.328125 
Q 45.015625 15.765625 45.015625 23.390625 
Q 45.015625 31 40.078125 35.4375 
Q 35.15625 39.890625 26.703125 39.890625 
Q 22.75 39.890625 18.8125 39.015625 
Q 14.890625 38.140625 10.796875 36.28125 
z
" id="DejaVuSans-35"/>
    </defs>
    <g transform="translate(398.553325 145.35201)scale(0.15 -0.15)">
     <use xlink:href="#DejaVuSans-35"/>
     <use x="63.623047" xlink:href="#DejaVuSans-2d"/>
     <use x="99.707031" xlink:href="#DejaVuSans-44"/>
    </g>
   </g>
   <g id="text_18">
    <!-- 3-D -->
    <defs>
     <path d="M 40.578125 39.3125 
Q 47.65625 37.796875 51.625 33 
Q 55.609375 28.21875 55.609375 21.1875 
Q 55.609375 10.40625 48.1875 4.484375 
Q 40.765625 -1.421875 27.09375 -1.421875 
Q 22.515625 -1.421875 17.65625 -0.515625 
Q 12.796875 0.390625 7.625 2.203125 
L 7.625 11.71875 
Q 11.71875 9.328125 16.59375 8.109375 
Q 21.484375 6.890625 26.8125 6.890625 
Q 36.078125 6.890625 40.9375 10.546875 
Q 45.796875 14.203125 45.796875 21.1875 
Q 45.796875 27.640625 41.28125 31.265625 
Q 36.765625 34.90625 28.71875 34.90625 
L 20.21875 34.90625 
L 20.21875 43.015625 
L 29.109375 43.015625 
Q 36.375 43.015625 40.234375 45.921875 
Q 44.09375 48.828125 44.09375 54.296875 
Q 44.09375 59.90625 40.109375 62.90625 
Q 36.140625 65.921875 28.71875 65.921875 
Q 24.65625 65.921875 20.015625 65.03125 
Q 15.375 64.15625 9.8125 62.3125 
L 9.8125 71.09375 
Q 15.4375 72.65625 20.34375 73.4375 
Q 25.25 74.21875 29.59375 74.21875 
Q 40.828125 74.21875 47.359375 69.109375 
Q 53.90625 64.015625 53.90625 55.328125 
Q 53.90625 49.265625 50.4375 45.09375 
Q 46.96875 40.921875 40.578125 39.3125 
" id="DejaVuSans-33"/>
    </defs>
    <g transform="translate(398.553325 94.764382)scale(0.15 -0.15)">
     <use xlink:href="#DejaVuSans-33"/>
     <use x="63.623047" xlink:href="#DejaVuSans-2d"/>
     <use x="99.707031" xlink:href="#DejaVuSans-44"/>
    </g>
   </g>
   <g id="text_19">
    <!-- 2-D -->
    <g transform="translate(398.553325 44.176754)scale(0.15 -0.15)">
     <use xlink:href="#DejaVuSans-32"/>
     <use x="63.623047" xlink:href="#DejaVuSans-2d"/>
     <use x="99.707031" xlink:href="#DejaVuSans-44"/>
    </g>
   </g>
   <g id="text_20">
    <!-- bbob - f15-f19 -->
    <defs>
     <path d="M 48.6875 27.296875 
Q 48.6875 37.203125 44.609375 42.84375 
Q 40.53125 48.484375 33.40625 48.484375 
Q 26.265625 48.484375 22.1875 42.84375 
Q 18.109375 37.203125 18.109375 27.296875 
Q 18.109375 17.390625 22.1875 11.75 
Q 26.265625 6.109375 33.40625 6.109375 
Q 40.53125 6.109375 44.609375 11.75 
Q 48.6875 17.390625 48.6875 27.296875 
M 18.109375 46.390625 
Q 20.953125 51.265625 25.265625 53.625 
Q 29.59375 56 35.59375 56 
Q 45.5625 56 51.78125 48.09375 
Q 58.015625 40.1875 58.015625 27.296875 
Q 58.015625 14.40625 51.78125 6.484375 
Q 45.5625 -1.421875 35.59375 -1.421875 
Q 29.59375 -1.421875 25.265625 0.953125 
Q 20.953125 3.328125 18.109375 8.203125 
L 18.109375 0 
L 9.078125 0 
L 9.078125 75.984375 
L 18.109375 75.984375 
z
" id="DejaVuSans-62"/>
     <path d="M 10.984375 1.515625 
L 10.984375 10.5 
Q 14.703125 8.734375 18.5 7.8125 
Q 22.3125 6.890625 25.984375 6.890625 
Q 35.75 6.890625 40.890625 13.453125 
Q 46.046875 20.015625 46.78125 33.40625 
Q 43.953125 29.203125 39.59375 26.953125 
Q 35.25 24.703125 29.984375 24.703125 
Q 19.046875 24.703125 12.671875 31.3125 
Q 6.296875 37.9375 6.296875 49.421875 
Q 6.296875 60.640625 12.9375 67.421875 
Q 19.578125 74.21875 30.609375 74.21875 
Q 43.265625 74.21875 49.921875 64.515625 
Q 56.59375 54.828125 56.59375 36.375 
Q 56.59375 19.140625 48.40625 8.859375 
Q 40.234375 -1.421875 26.421875 -1.421875 
Q 22.703125 -1.421875 18.890625 -0.6875 
Q 15.09375 0.046875 10.984375 1.515625 
M 30.609375 32.421875 
Q 37.25 32.421875 41.125 36.953125 
Q 45.015625 41.5 45.015625 49.421875 
Q 45.015625 57.28125 41.125 61.84375 
Q 37.25 66.40625 30.609375 66.40625 
Q 23.96875 66.40625 20.09375 61.84375 
Q 16.21875 57.28125 16.21875 49.421875 
Q 16.21875 41.5 20.09375 36.953125 
Q 23.96875 32.421875 30.609375 32.421875 
" id="DejaVuSans-39"/>
    </defs>
    <g transform="translate(76.684525 50.114612)scale(0.1666 -0.1666)">
     <use xlink:href="#DejaVuSans-62"/>
     <use x="63.476562" xlink:href="#DejaVuSans-62"/>
     <use x="126.953125" xlink:href="#DejaVuSans-6f"/>
     <use x="188.134766" xlink:href="#DejaVuSans-62"/>
     <use x="251.611328" xlink:href="#DejaVuSans-20"/>
     <use x="283.398438" xlink:href="#DejaVuSans-2d"/>
     <use x="319.482422" xlink:href="#DejaVuSans-20"/>
     <use x="351.269531" xlink:href="#DejaVuSans-66"/>
     <use x="386.474609" xlink:href="#DejaVuSans-31"/>
     <use x="450.097656" xlink:href="#DejaVuSans-35"/>
     <use x="513.720703" xlink:href="#DejaVuSans-2d"/>
     <use x="549.804688" xlink:href="#DejaVuSans-66"/>
     <use x="585.009766" xlink:href="#DejaVuSans-31"/>
     <use x="648.632812" xlink:href="#DejaVuSans-39"/>
    </g>
    <!-- 51 targets in 100..1e-08 -->
    <g transform="translate(76.684525 68.770168)scale(0.1666 -0.1666)">
     <use xlink:href="#DejaVuSans-35"/>
     <use x="63.623047" xlink:href="#DejaVuSans-31"/>
     <use x="127.246094" xlink:href="#DejaVuSans-20"/>
     <use x="159.033203" xlink:href="#DejaVuSans-74"/>
     <use x="198.242188" xlink:href="#DejaVuSans-61"/>
     <use x="259.521484" xlink:href="#DejaVuSans-72"/>
     <use x="300.619141" xlink:href="#DejaVuSans-67"/>
     <use x="364.095703" xlink:href="#DejaVuSans-65"/>
     <use x="425.619141" xlink:href="#DejaVuSans-74"/>
     <use x="464.828125" xlink:href="#DejaVuSans-73"/>
     <use x="516.927734" xlink:href="#DejaVuSans-20"/>
     <use x="548.714844" xlink:href="#DejaVuSans-69"/>
     <use x="576.498047" xlink:href="#DejaVuSans-6e"/>
     <use x="639.876953" xlink:href="#DejaVuSans-20"/>
     <use x="671.664062" xlink:href="#DejaVuSans-31"/>
     <use x="735.287109" xlink:href="#DejaVuSans-30"/>
     <use x="798.910156" xlink:href="#DejaVuSans-30"/>
     <use x="862.533203" xlink:href="#DejaVuSans-2e"/>
     <use x="894.320312" xlink:href="#DejaVuSans-2e"/>
     <use x="926.107422" xlink:href="#DejaVuSans-31"/>
     <use x="989.730469" xlink:href="#DejaVuSans-65"/>
     <use x="1051.253906" xlink:href="#DejaVuSans-2d"/>
     <use x="1087.337891" xlink:href="#DejaVuSans-30"/>
     <use x="1150.960938" xlink:href="#DejaVuSans-38"/>
    </g>
    <!-- 30 instances -->
    <g transform="translate(76.684525 87.425723)scale(0.1666 -0.1666)">
     <use xlink:href="#DejaVuSans-33"/>
     <use x="63.623047" xlink:href="#DejaVuSans-30"/>
     <use x="127.246094" xlink:href="#DejaVuSans-20"/>
     <use x="159.033203" xlink:href="#DejaVuSans-69"/>
     <use x="186.816406" xlink:href="#DejaVuSans-6e"/>
     <use x="250.195312" xlink:href="#DejaVuSans-73"/>
     <use x="302.294922" xlink:href="#DejaVuSans-74"/>
     <use x="341.503906" xlink:href="#DejaVuSans-61"/>
     <use x="402.783203" xlink:href="#DejaVuSans-6e"/>
     <use x="466.162109" xlink:href="#DejaVuSans-63"/>
     <use x="521.142578" xlink:href="#DejaVuSans-65"/>
     <use x="582.666016" xlink:href="#DejaVuSans-73"/>
    </g>
   </g>
   <g id="text_21">
    <!-- v2.1 -->
    <g style="fill:#808080;" transform="translate(240.762388 293.504568)scale(0.1 -0.1)">
     <use xlink:href="#DejaVuSans-76"/>
     <use x="59.179688" xlink:href="#DejaVuSans-32"/>
     <use x="122.802734" xlink:href="#DejaVuSans-2e"/>
     <use x="154.589844" xlink:href="#DejaVuSans-31"/>
    </g>
   </g>
  </g>
 </g>
 <defs>
  <clipPath id="p0ee5c76965">
   <rect height="266.112" width="357.12" x="73.113325" y="32.133375"/>
  </clipPath>
 </defs>
</svg>
