<?xml version="1.0" encoding="utf-8" standalone="no"?>
<!DOCTYPE svg PUBLIC "-//W3C//DTD SVG 1.1//EN"
  "http://www.w3.org/Graphics/SVG/1.1/DTD/svg11.dtd">
<!-- Created with matplotlib (http://matplotlib.org/) -->
<svg height="353pt" version="1.1" viewBox="0 0 441 353" width="441pt" xmlns="http://www.w3.org/2000/svg" xmlns:xlink="http://www.w3.org/1999/xlink">
 <defs>
  <style type="text/css">
*{stroke-linecap:butt;stroke-linejoin:round;}
  </style>
 </defs>
 <g id="figure_1">
  <g id="patch_1">
   <path d="M -0 353.22225 
L 441.802544 353.22225 
L 441.802544 0 
L -0 0 
z
" style="fill:#ffffff;"/>
  </g>
  <g id="axes_1">
   <g id="patch_2">
    <path d="M 73.113325 298.245375 
L 430.233325 298.245375 
L 430.233325 32.133375 
L 73.113325 32.133375 
z
" style="fill:#ffffff;"/>
   </g>
   <g id="matplotlib.axis_1">
    <g id="xtick_1">
     <g id="line2d_1">
      <path clip-path="url(#p44a9b61ae3)" d="M 73.113325 298.245375 
L 73.113325 32.133375 
" style="fill:none;stroke:#b0b0b0;stroke-linecap:square;stroke-width:0.8;"/>
     </g>
     <g id="line2d_2">
      <defs>
       <path d="M 0 0 
L 0 3.5 
" id="m7906990efe" style="stroke:#000000;stroke-width:0.8;"/>
      </defs>
      <g>
       <use style="stroke:#000000;stroke-width:0.8;" x="73.113325" xlink:href="#m7906990efe" y="298.245375"/>
      </g>
     </g>
     <g id="text_1">
      <!-- 0 -->
      <defs>
       <path d="M 31.78125 66.40625 
Q 24.171875 66.40625 20.328125 58.90625 
Q 16.5 51.421875 16.5 36.375 
Q 16.5 21.390625 20.328125 13.890625 
Q 24.171875 6.390625 31.78125 6.390625 
Q 39.453125 6.390625 43.28125 13.890625 
Q 47.125 21.390625 47.125 36.375 
Q 47.125 51.421875 43.28125 58.90625 
Q 39.453125 66.40625 31.78125 66.40625 
M 31.78125 74.21875 
Q 44.046875 74.21875 50.515625 64.515625 
Q 56.984375 54.828125 56.984375 36.375 
Q 56.984375 17.96875 50.515625 8.265625 
Q 44.046875 -1.421875 31.78125 -1.421875 
Q 19.53125 -1.421875 13.0625 8.265625 
Q 6.59375 17.96875 6.59375 36.375 
Q 6.59375 54.828125 13.0625 64.515625 
Q 19.53125 74.21875 31.78125 74.21875 
" id="DejaVuSans-30"/>
      </defs>
      <g transform="translate(66.750825 320.44225)scale(0.2 -0.2)">
       <use xlink:href="#DejaVuSans-30"/>
      </g>
     </g>
    </g>
    <g id="xtick_2">
     <g id="line2d_3">
      <path clip-path="url(#p44a9b61ae3)" d="M 155.39904 298.245375 
L 155.39904 32.133375 
" style="fill:none;stroke:#b0b0b0;stroke-linecap:square;stroke-width:0.8;"/>
     </g>
     <g id="line2d_4">
      <g>
       <use style="stroke:#000000;stroke-width:0.8;" x="155.39904" xlink:href="#m7906990efe" y="298.245375"/>
      </g>
     </g>
     <g id="text_2">
      <!-- 2 -->
      <defs>
       <path d="M 19.1875 8.296875 
L 53.609375 8.296875 
L 53.609375 0 
L 7.328125 0 
L 7.328125 8.296875 
Q 12.9375 14.109375 22.625 23.890625 
Q 32.328125 33.6875 34.8125 36.53125 
Q 39.546875 41.84375 41.421875 45.53125 
Q 43.3125 49.21875 43.3125 52.78125 
Q 43.3125 58.59375 39.234375 62.25 
Q 35.15625 65.921875 28.609375 65.921875 
Q 23.96875 65.921875 18.8125 64.3125 
Q 13.671875 62.703125 7.8125 59.421875 
L 7.8125 69.390625 
Q 13.765625 71.78125 18.9375 73 
Q 24.125 74.21875 28.421875 74.21875 
Q 39.75 74.21875 46.484375 68.546875 
Q 53.21875 62.890625 53.21875 53.421875 
Q 53.21875 48.921875 51.53125 44.890625 
Q 49.859375 40.875 45.40625 35.40625 
Q 44.1875 33.984375 37.640625 27.21875 
Q 31.109375 20.453125 19.1875 8.296875 
" id="DejaVuSans-32"/>
      </defs>
      <g transform="translate(149.03654 320.44225)scale(0.2 -0.2)">
       <use xlink:href="#DejaVuSans-32"/>
      </g>
     </g>
    </g>
    <g id="xtick_3">
     <g id="line2d_5">
      <path clip-path="url(#p44a9b61ae3)" d="M 237.684754 298.245375 
L 237.684754 32.133375 
" style="fill:none;stroke:#b0b0b0;stroke-linecap:square;stroke-width:0.8;"/>
     </g>
     <g id="line2d_6">
      <g>
       <use style="stroke:#000000;stroke-width:0.8;" x="237.684754" xlink:href="#m7906990efe" y="298.245375"/>
      </g>
     </g>
     <g id="text_3">
      <!-- 4 -->
      <defs>
       <path d="M 37.796875 64.3125 
L 12.890625 25.390625 
L 37.796875 25.390625 
z
M 35.203125 72.90625 
L 47.609375 72.90625 
L 47.609375 25.390625 
L 58.015625 25.390625 
L 58.015625 17.1875 
L 47.609375 17.1875 
L 47.609375 0 
L 37.796875 0 
L 37.796875 17.1875 
L 4.890625 17.1875 
L 4.890625 26.703125 
z
" id="DejaVuSans-34"/>
      </defs>
      <g transform="translate(231.322254 320.44225)scale(0.2 -0.2)">
       <use xlink:href="#DejaVuSans-34"/>
      </g>
     </g>
    </g>
    <g id="xtick_4">
     <g id="line2d_7">
      <path clip-path="url(#p44a9b61ae3)" d="M 319.970468 298.245375 
L 319.970468 32.133375 
" style="fill:none;stroke:#b0b0b0;stroke-linecap:square;stroke-width:0.8;"/>
     </g>
     <g id="line2d_8">
      <g>
       <use style="stroke:#000000;stroke-width:0.8;" x="319.970468" xlink:href="#m7906990efe" y="298.245375"/>
      </g>
     </g>
     <g id="text_4">
      <!-- 6 -->
      <defs>
       <path d="M 33.015625 40.375 
Q 26.375 40.375 22.484375 35.828125 
Q 18.609375 31.296875 18.609375 23.390625 
Q 18.609375 15.53125 22.484375 10.953125 
Q 26.375 6.390625 33.015625 6.390625 
Q 39.65625 6.390625 43.53125 10.953125 
Q 47.40625 15.53125 47.40625 23.390625 
Q 47.40625 31.296875 43.53125 35.828125 
Q 39.65625 40.375 33.015625 40.375 
M 52.59375 71.296875 
L 52.59375 62.3125 
Q 48.875 64.0625 45.09375 64.984375 
Q 41.3125 65.921875 37.59375 65.921875 
Q 27.828125 65.921875 22.671875 59.328125 
Q 17.53125 52.734375 16.796875 39.40625 
Q 19.671875 43.65625 24.015625 45.921875 
Q 28.375 48.1875 33.59375 48.1875 
Q 44.578125 48.1875 50.953125 41.515625 
Q 57.328125 34.859375 57.328125 23.390625 
Q 57.328125 12.15625 50.6875 5.359375 
Q 44.046875 -1.421875 33.015625 -1.421875 
Q 20.359375 -1.421875 13.671875 8.265625 
Q 6.984375 17.96875 6.984375 36.375 
Q 6.984375 53.65625 15.1875 63.9375 
Q 23.390625 74.21875 37.203125 74.21875 
Q 40.921875 74.21875 44.703125 73.484375 
Q 48.484375 72.75 52.59375 71.296875 
" id="DejaVuSans-36"/>
      </defs>
      <g transform="translate(313.607968 320.44225)scale(0.2 -0.2)">
       <use xlink:href="#DejaVuSans-36"/>
      </g>
     </g>
    </g>
    <g id="xtick_5">
     <g id="line2d_9">
      <path clip-path="url(#p44a9b61ae3)" d="M 402.256183 298.245375 
L 402.256183 32.133375 
" style="fill:none;stroke:#b0b0b0;stroke-linecap:square;stroke-width:0.8;"/>
     </g>
     <g id="line2d_10">
      <g>
       <use style="stroke:#000000;stroke-width:0.8;" x="402.256183" xlink:href="#m7906990efe" y="298.245375"/>
      </g>
     </g>
     <g id="text_5">
      <!-- 8 -->
      <defs>
       <path d="M 31.78125 34.625 
Q 24.75 34.625 20.71875 30.859375 
Q 16.703125 27.09375 16.703125 20.515625 
Q 16.703125 13.921875 20.71875 10.15625 
Q 24.75 6.390625 31.78125 6.390625 
Q 38.8125 6.390625 42.859375 10.171875 
Q 46.921875 13.96875 46.921875 20.515625 
Q 46.921875 27.09375 42.890625 30.859375 
Q 38.875 34.625 31.78125 34.625 
M 21.921875 38.8125 
Q 15.578125 40.375 12.03125 44.71875 
Q 8.5 49.078125 8.5 55.328125 
Q 8.5 64.0625 14.71875 69.140625 
Q 20.953125 74.21875 31.78125 74.21875 
Q 42.671875 74.21875 48.875 69.140625 
Q 55.078125 64.0625 55.078125 55.328125 
Q 55.078125 49.078125 51.53125 44.71875 
Q 48 40.375 41.703125 38.8125 
Q 48.828125 37.15625 52.796875 32.3125 
Q 56.78125 27.484375 56.78125 20.515625 
Q 56.78125 9.90625 50.3125 4.234375 
Q 43.84375 -1.421875 31.78125 -1.421875 
Q 19.734375 -1.421875 13.25 4.234375 
Q 6.78125 9.90625 6.78125 20.515625 
Q 6.78125 27.484375 10.78125 32.3125 
Q 14.796875 37.15625 21.921875 38.8125 
M 18.3125 54.390625 
Q 18.3125 48.734375 21.84375 45.5625 
Q 25.390625 42.390625 31.78125 42.390625 
Q 38.140625 42.390625 41.71875 45.5625 
Q 45.3125 48.734375 45.3125 54.390625 
Q 45.3125 60.0625 41.71875 63.234375 
Q 38.140625 66.40625 31.78125 66.40625 
Q 25.390625 66.40625 21.84375 63.234375 
Q 18.3125 60.0625 18.3125 54.390625 
" id="DejaVuSans-38"/>
      </defs>
      <g transform="translate(395.893683 320.44225)scale(0.2 -0.2)">
       <use xlink:href="#DejaVuSans-38"/>
      </g>
     </g>
    </g>
    <g id="xtick_6">
     <g id="line2d_11">
      <defs>
       <path d="M 0 0 
L 0 2 
" id="me53577e0ed" style="stroke:#000000;stroke-width:0.6;"/>
      </defs>
      <g>
       <use style="stroke:#000000;stroke-width:0.6;" x="85.498559" xlink:href="#me53577e0ed" y="298.245375"/>
      </g>
     </g>
    </g>
    <g id="xtick_7">
     <g id="line2d_12">
      <g>
       <use style="stroke:#000000;stroke-width:0.6;" x="97.883794" xlink:href="#me53577e0ed" y="298.245375"/>
      </g>
     </g>
    </g>
    <g id="xtick_8">
     <g id="line2d_13">
      <g>
       <use style="stroke:#000000;stroke-width:0.6;" x="105.128691" xlink:href="#me53577e0ed" y="298.245375"/>
      </g>
     </g>
    </g>
    <g id="xtick_9">
     <g id="line2d_14">
      <g>
       <use style="stroke:#000000;stroke-width:0.6;" x="110.269028" xlink:href="#me53577e0ed" y="298.245375"/>
      </g>
     </g>
    </g>
    <g id="xtick_10">
     <g id="line2d_15">
      <g>
       <use style="stroke:#000000;stroke-width:0.6;" x="167.784274" xlink:href="#me53577e0ed" y="298.245375"/>
      </g>
     </g>
    </g>
    <g id="xtick_11">
     <g id="line2d_16">
      <g>
       <use style="stroke:#000000;stroke-width:0.6;" x="180.169508" xlink:href="#me53577e0ed" y="298.245375"/>
      </g>
     </g>
    </g>
    <g id="xtick_12">
     <g id="line2d_17">
      <g>
       <use style="stroke:#000000;stroke-width:0.6;" x="187.414405" xlink:href="#me53577e0ed" y="298.245375"/>
      </g>
     </g>
    </g>
    <g id="xtick_13">
     <g id="line2d_18">
      <g>
       <use style="stroke:#000000;stroke-width:0.6;" x="192.554742" xlink:href="#me53577e0ed" y="298.245375"/>
      </g>
     </g>
    </g>
    <g id="xtick_14">
     <g id="line2d_19">
      <g>
       <use style="stroke:#000000;stroke-width:0.6;" x="250.069988" xlink:href="#me53577e0ed" y="298.245375"/>
      </g>
     </g>
    </g>
    <g id="xtick_15">
     <g id="line2d_20">
      <g>
       <use style="stroke:#000000;stroke-width:0.6;" x="262.455222" xlink:href="#me53577e0ed" y="298.245375"/>
      </g>
     </g>
    </g>
    <g id="xtick_16">
     <g id="line2d_21">
      <g>
       <use style="stroke:#000000;stroke-width:0.6;" x="269.70012" xlink:href="#me53577e0ed" y="298.245375"/>
      </g>
     </g>
    </g>
    <g id="xtick_17">
     <g id="line2d_22">
      <g>
       <use style="stroke:#000000;stroke-width:0.6;" x="274.840456" xlink:href="#me53577e0ed" y="298.245375"/>
      </g>
     </g>
    </g>
    <g id="xtick_18">
     <g id="line2d_23">
      <g>
       <use style="stroke:#000000;stroke-width:0.6;" x="332.355702" xlink:href="#me53577e0ed" y="298.245375"/>
      </g>
     </g>
    </g>
    <g id="xtick_19">
     <g id="line2d_24">
      <g>
       <use style="stroke:#000000;stroke-width:0.6;" x="344.740936" xlink:href="#me53577e0ed" y="298.245375"/>
      </g>
     </g>
    </g>
    <g id="xtick_20">
     <g id="line2d_25">
      <g>
       <use style="stroke:#000000;stroke-width:0.6;" x="351.985834" xlink:href="#me53577e0ed" y="298.245375"/>
      </g>
     </g>
    </g>
    <g id="xtick_21">
     <g id="line2d_26">
      <g>
       <use style="stroke:#000000;stroke-width:0.6;" x="357.126171" xlink:href="#me53577e0ed" y="298.245375"/>
      </g>
     </g>
    </g>
    <g id="xtick_22">
     <g id="line2d_27">
      <g>
       <use style="stroke:#000000;stroke-width:0.6;" x="414.641417" xlink:href="#me53577e0ed" y="298.245375"/>
      </g>
     </g>
    </g>
    <g id="xtick_23">
     <g id="line2d_28">
      <g>
       <use style="stroke:#000000;stroke-width:0.6;" x="427.026651" xlink:href="#me53577e0ed" y="298.245375"/>
      </g>
     </g>
    </g>
    <g id="text_6">
     <!-- log10 of (# f-evals / dimension) -->
     <defs>
      <path d="M 9.421875 75.984375 
L 18.40625 75.984375 
L 18.40625 0 
L 9.421875 0 
z
" id="DejaVuSans-6c"/>
      <path d="M 30.609375 48.390625 
Q 23.390625 48.390625 19.1875 42.75 
Q 14.984375 37.109375 14.984375 27.296875 
Q 14.984375 17.484375 19.15625 11.84375 
Q 23.34375 6.203125 30.609375 6.203125 
Q 37.796875 6.203125 41.984375 11.859375 
Q 46.1875 17.53125 46.1875 27.296875 
Q 46.1875 37.015625 41.984375 42.703125 
Q 37.796875 48.390625 30.609375 48.390625 
M 30.609375 56 
Q 42.328125 56 49.015625 48.375 
Q 55.71875 40.765625 55.71875 27.296875 
Q 55.71875 13.875 49.015625 6.21875 
Q 42.328125 -1.421875 30.609375 -1.421875 
Q 18.84375 -1.421875 12.171875 6.21875 
Q 5.515625 13.875 5.515625 27.296875 
Q 5.515625 40.765625 12.171875 48.375 
Q 18.84375 56 30.609375 56 
" id="DejaVuSans-6f"/>
      <path d="M 45.40625 27.984375 
Q 45.40625 37.75 41.375 43.109375 
Q 37.359375 48.484375 30.078125 48.484375 
Q 22.859375 48.484375 18.828125 43.109375 
Q 14.796875 37.75 14.796875 27.984375 
Q 14.796875 18.265625 18.828125 12.890625 
Q 22.859375 7.515625 30.078125 7.515625 
Q 37.359375 7.515625 41.375 12.890625 
Q 45.40625 18.265625 45.40625 27.984375 
M 54.390625 6.78125 
Q 54.390625 -7.171875 48.1875 -13.984375 
Q 42 -20.796875 29.203125 -20.796875 
Q 24.46875 -20.796875 20.265625 -20.09375 
Q 16.0625 -19.390625 12.109375 -17.921875 
L 12.109375 -9.1875 
Q 16.0625 -11.328125 19.921875 -12.34375 
Q 23.78125 -13.375 27.78125 -13.375 
Q 36.625 -13.375 41.015625 -8.765625 
Q 45.40625 -4.15625 45.40625 5.171875 
L 45.40625 9.625 
Q 42.625 4.78125 38.28125 2.390625 
Q 33.9375 0 27.875 0 
Q 17.828125 0 11.671875 7.65625 
Q 5.515625 15.328125 5.515625 27.984375 
Q 5.515625 40.671875 11.671875 48.328125 
Q 17.828125 56 27.875 56 
Q 33.9375 56 38.28125 53.609375 
Q 42.625 51.21875 45.40625 46.390625 
L 45.40625 54.6875 
L 54.390625 54.6875 
z
" id="DejaVuSans-67"/>
      <path d="M 12.40625 8.296875 
L 28.515625 8.296875 
L 28.515625 63.921875 
L 10.984375 60.40625 
L 10.984375 69.390625 
L 28.421875 72.90625 
L 38.28125 72.90625 
L 38.28125 8.296875 
L 54.390625 8.296875 
L 54.390625 0 
L 12.40625 0 
z
" id="DejaVuSans-31"/>
      <path id="DejaVuSans-20"/>
      <path d="M 37.109375 75.984375 
L 37.109375 68.5 
L 28.515625 68.5 
Q 23.6875 68.5 21.796875 66.546875 
Q 19.921875 64.59375 19.921875 59.515625 
L 19.921875 54.6875 
L 34.71875 54.6875 
L 34.71875 47.703125 
L 19.921875 47.703125 
L 19.921875 0 
L 10.890625 0 
L 10.890625 47.703125 
L 2.296875 47.703125 
L 2.296875 54.6875 
L 10.890625 54.6875 
L 10.890625 58.5 
Q 10.890625 67.625 15.140625 71.796875 
Q 19.390625 75.984375 28.609375 75.984375 
z
" id="DejaVuSans-66"/>
      <path d="M 31 75.875 
Q 24.46875 64.65625 21.28125 53.65625 
Q 18.109375 42.671875 18.109375 31.390625 
Q 18.109375 20.125 21.3125 9.0625 
Q 24.515625 -2 31 -13.1875 
L 23.1875 -13.1875 
Q 15.875 -1.703125 12.234375 9.375 
Q 8.59375 20.453125 8.59375 31.390625 
Q 8.59375 42.28125 12.203125 53.3125 
Q 15.828125 64.359375 23.1875 75.875 
z
" id="DejaVuSans-28"/>
      <path d="M 51.125 44 
L 36.921875 44 
L 32.8125 27.6875 
L 47.125 27.6875 
z
M 43.796875 71.78125 
L 38.71875 51.515625 
L 52.984375 51.515625 
L 58.109375 71.78125 
L 65.921875 71.78125 
L 60.890625 51.515625 
L 76.125 51.515625 
L 76.125 44 
L 58.984375 44 
L 54.984375 27.6875 
L 70.515625 27.6875 
L 70.515625 20.21875 
L 53.078125 20.21875 
L 48 0 
L 40.1875 0 
L 45.21875 20.21875 
L 30.90625 20.21875 
L 25.875 0 
L 18.015625 0 
L 23.09375 20.21875 
L 7.71875 20.21875 
L 7.71875 27.6875 
L 24.90625 27.6875 
L 29 44 
L 13.28125 44 
L 13.28125 51.515625 
L 30.90625 51.515625 
L 35.890625 71.78125 
z
" id="DejaVuSans-23"/>
      <path d="M 4.890625 31.390625 
L 31.203125 31.390625 
L 31.203125 23.390625 
L 4.890625 23.390625 
z
" id="DejaVuSans-2d"/>
      <path d="M 56.203125 29.59375 
L 56.203125 25.203125 
L 14.890625 25.203125 
Q 15.484375 15.921875 20.484375 11.0625 
Q 25.484375 6.203125 34.421875 6.203125 
Q 39.59375 6.203125 44.453125 7.46875 
Q 49.3125 8.734375 54.109375 11.28125 
L 54.109375 2.78125 
Q 49.265625 0.734375 44.1875 -0.34375 
Q 39.109375 -1.421875 33.890625 -1.421875 
Q 20.796875 -1.421875 13.15625 6.1875 
Q 5.515625 13.8125 5.515625 26.8125 
Q 5.515625 40.234375 12.765625 48.109375 
Q 20.015625 56 32.328125 56 
Q 43.359375 56 49.78125 48.890625 
Q 56.203125 41.796875 56.203125 29.59375 
M 47.21875 32.234375 
Q 47.125 39.59375 43.09375 43.984375 
Q 39.0625 48.390625 32.421875 48.390625 
Q 24.90625 48.390625 20.390625 44.140625 
Q 15.875 39.890625 15.1875 32.171875 
z
" id="DejaVuSans-65"/>
      <path d="M 2.984375 54.6875 
L 12.5 54.6875 
L 29.59375 8.796875 
L 46.6875 54.6875 
L 56.203125 54.6875 
L 35.6875 0 
L 23.484375 0 
z
" id="DejaVuSans-76"/>
      <path d="M 34.28125 27.484375 
Q 23.390625 27.484375 19.1875 25 
Q 14.984375 22.515625 14.984375 16.5 
Q 14.984375 11.71875 18.140625 8.90625 
Q 21.296875 6.109375 26.703125 6.109375 
Q 34.1875 6.109375 38.703125 11.40625 
Q 43.21875 16.703125 43.21875 25.484375 
L 43.21875 27.484375 
z
M 52.203125 31.203125 
L 52.203125 0 
L 43.21875 0 
L 43.21875 8.296875 
Q 40.140625 3.328125 35.546875 0.953125 
Q 30.953125 -1.421875 24.3125 -1.421875 
Q 15.921875 -1.421875 10.953125 3.296875 
Q 6 8.015625 6 15.921875 
Q 6 25.140625 12.171875 29.828125 
Q 18.359375 34.515625 30.609375 34.515625 
L 43.21875 34.515625 
L 43.21875 35.40625 
Q 43.21875 41.609375 39.140625 45 
Q 35.0625 48.390625 27.6875 48.390625 
Q 23 48.390625 18.546875 47.265625 
Q 14.109375 46.140625 10.015625 43.890625 
L 10.015625 52.203125 
Q 14.9375 54.109375 19.578125 55.046875 
Q 24.21875 56 28.609375 56 
Q 40.484375 56 46.34375 49.84375 
Q 52.203125 43.703125 52.203125 31.203125 
" id="DejaVuSans-61"/>
      <path d="M 44.28125 53.078125 
L 44.28125 44.578125 
Q 40.484375 46.53125 36.375 47.5 
Q 32.28125 48.484375 27.875 48.484375 
Q 21.1875 48.484375 17.84375 46.4375 
Q 14.5 44.390625 14.5 40.28125 
Q 14.5 37.15625 16.890625 35.375 
Q 19.28125 33.59375 26.515625 31.984375 
L 29.59375 31.296875 
Q 39.15625 29.25 43.1875 25.515625 
Q 47.21875 21.78125 47.21875 15.09375 
Q 47.21875 7.46875 41.1875 3.015625 
Q 35.15625 -1.421875 24.609375 -1.421875 
Q 20.21875 -1.421875 15.453125 -0.5625 
Q 10.6875 0.296875 5.421875 2 
L 5.421875 11.28125 
Q 10.40625 8.6875 15.234375 7.390625 
Q 20.0625 6.109375 24.8125 6.109375 
Q 31.15625 6.109375 34.5625 8.28125 
Q 37.984375 10.453125 37.984375 14.40625 
Q 37.984375 18.0625 35.515625 20.015625 
Q 33.0625 21.96875 24.703125 23.78125 
L 21.578125 24.515625 
Q 13.234375 26.265625 9.515625 29.90625 
Q 5.8125 33.546875 5.8125 39.890625 
Q 5.8125 47.609375 11.28125 51.796875 
Q 16.75 56 26.8125 56 
Q 31.78125 56 36.171875 55.265625 
Q 40.578125 54.546875 44.28125 53.078125 
" id="DejaVuSans-73"/>
      <path d="M 25.390625 72.90625 
L 33.6875 72.90625 
L 8.296875 -9.28125 
L 0 -9.28125 
z
" id="DejaVuSans-2f"/>
      <path d="M 45.40625 46.390625 
L 45.40625 75.984375 
L 54.390625 75.984375 
L 54.390625 0 
L 45.40625 0 
L 45.40625 8.203125 
Q 42.578125 3.328125 38.25 0.953125 
Q 33.9375 -1.421875 27.875 -1.421875 
Q 17.96875 -1.421875 11.734375 6.484375 
Q 5.515625 14.40625 5.515625 27.296875 
Q 5.515625 40.1875 11.734375 48.09375 
Q 17.96875 56 27.875 56 
Q 33.9375 56 38.25 53.625 
Q 42.578125 51.265625 45.40625 46.390625 
M 14.796875 27.296875 
Q 14.796875 17.390625 18.875 11.75 
Q 22.953125 6.109375 30.078125 6.109375 
Q 37.203125 6.109375 41.296875 11.75 
Q 45.40625 17.390625 45.40625 27.296875 
Q 45.40625 37.203125 41.296875 42.84375 
Q 37.203125 48.484375 30.078125 48.484375 
Q 22.953125 48.484375 18.875 42.84375 
Q 14.796875 37.203125 14.796875 27.296875 
" id="DejaVuSans-64"/>
      <path d="M 9.421875 54.6875 
L 18.40625 54.6875 
L 18.40625 0 
L 9.421875 0 
z
M 9.421875 75.984375 
L 18.40625 75.984375 
L 18.40625 64.59375 
L 9.421875 64.59375 
z
" id="DejaVuSans-69"/>
      <path d="M 52 44.1875 
Q 55.375 50.25 60.0625 53.125 
Q 64.75 56 71.09375 56 
Q 79.640625 56 84.28125 50.015625 
Q 88.921875 44.046875 88.921875 33.015625 
L 88.921875 0 
L 79.890625 0 
L 79.890625 32.71875 
Q 79.890625 40.578125 77.09375 44.375 
Q 74.3125 48.1875 68.609375 48.1875 
Q 61.625 48.1875 57.5625 43.546875 
Q 53.515625 38.921875 53.515625 30.90625 
L 53.515625 0 
L 44.484375 0 
L 44.484375 32.71875 
Q 44.484375 40.625 41.703125 44.40625 
Q 38.921875 48.1875 33.109375 48.1875 
Q 26.21875 48.1875 22.15625 43.53125 
Q 18.109375 38.875 18.109375 30.90625 
L 18.109375 0 
L 9.078125 0 
L 9.078125 54.6875 
L 18.109375 54.6875 
L 18.109375 46.1875 
Q 21.1875 51.21875 25.484375 53.609375 
Q 29.78125 56 35.6875 56 
Q 41.65625 56 45.828125 52.96875 
Q 50 49.953125 52 44.1875 
" id="DejaVuSans-6d"/>
      <path d="M 54.890625 33.015625 
L 54.890625 0 
L 45.90625 0 
L 45.90625 32.71875 
Q 45.90625 40.484375 42.875 44.328125 
Q 39.84375 48.1875 33.796875 48.1875 
Q 26.515625 48.1875 22.3125 43.546875 
Q 18.109375 38.921875 18.109375 30.90625 
L 18.109375 0 
L 9.078125 0 
L 9.078125 54.6875 
L 18.109375 54.6875 
L 18.109375 46.1875 
Q 21.34375 51.125 25.703125 53.5625 
Q 30.078125 56 35.796875 56 
Q 45.21875 56 50.046875 50.171875 
Q 54.890625 44.34375 54.890625 33.015625 
" id="DejaVuSans-6e"/>
      <path d="M 8.015625 75.875 
L 15.828125 75.875 
Q 23.140625 64.359375 26.78125 53.3125 
Q 30.421875 42.28125 30.421875 31.390625 
Q 30.421875 20.453125 26.78125 9.375 
Q 23.140625 -1.703125 15.828125 -13.1875 
L 8.015625 -13.1875 
Q 14.5 -2 17.703125 9.0625 
Q 20.90625 20.125 20.90625 31.390625 
Q 20.90625 42.671875 17.703125 53.65625 
Q 14.5 64.65625 8.015625 75.875 
" id="DejaVuSans-29"/>
     </defs>
     <g transform="translate(109.328482 342.278812)scale(0.18 -0.18)">
      <use xlink:href="#DejaVuSans-6c"/>
      <use x="27.783203" xlink:href="#DejaVuSans-6f"/>
      <use x="88.964844" xlink:href="#DejaVuSans-67"/>
      <use x="152.441406" xlink:href="#DejaVuSans-31"/>
      <use x="216.064453" xlink:href="#DejaVuSans-30"/>
      <use x="279.6875" xlink:href="#DejaVuSans-20"/>
      <use x="311.474609" xlink:href="#DejaVuSans-6f"/>
      <use x="372.65625" xlink:href="#DejaVuSans-66"/>
      <use x="407.861328" xlink:href="#DejaVuSans-20"/>
      <use x="439.648438" xlink:href="#DejaVuSans-28"/>
      <use x="478.662109" xlink:href="#DejaVuSans-23"/>
      <use x="562.451172" xlink:href="#DejaVuSans-20"/>
      <use x="594.238281" xlink:href="#DejaVuSans-66"/>
      <use x="629.365234" xlink:href="#DejaVuSans-2d"/>
      <use x="665.449219" xlink:href="#DejaVuSans-65"/>
      <use x="726.972656" xlink:href="#DejaVuSans-76"/>
      <use x="786.152344" xlink:href="#DejaVuSans-61"/>
      <use x="847.431641" xlink:href="#DejaVuSans-6c"/>
      <use x="875.214844" xlink:href="#DejaVuSans-73"/>
      <use x="927.314453" xlink:href="#DejaVuSans-20"/>
      <use x="959.101562" xlink:href="#DejaVuSans-2f"/>
      <use x="992.792969" xlink:href="#DejaVuSans-20"/>
      <use x="1024.580078" xlink:href="#DejaVuSans-64"/>
      <use x="1088.056641" xlink:href="#DejaVuSans-69"/>
      <use x="1115.839844" xlink:href="#DejaVuSans-6d"/>
      <use x="1213.251953" xlink:href="#DejaVuSans-65"/>
      <use x="1274.775391" xlink:href="#DejaVuSans-6e"/>
      <use x="1338.154297" xlink:href="#DejaVuSans-73"/>
      <use x="1390.253906" xlink:href="#DejaVuSans-69"/>
      <use x="1418.037109" xlink:href="#DejaVuSans-6f"/>
      <use x="1479.21875" xlink:href="#DejaVuSans-6e"/>
      <use x="1542.597656" xlink:href="#DejaVuSans-29"/>
     </g>
    </g>
   </g>
   <g id="matplotlib.axis_2">
    <g id="ytick_1">
     <g id="line2d_29">
      <path clip-path="url(#p44a9b61ae3)" d="M 73.113325 298.245375 
L 430.233325 298.245375 
" style="fill:none;stroke:#b0b0b0;stroke-linecap:square;stroke-width:0.8;"/>
     </g>
     <g id="line2d_30">
      <defs>
       <path d="M 0 0 
L -3.5 0 
" id="mf315e791da" style="stroke:#000000;stroke-width:0.8;"/>
      </defs>
      <g>
       <use style="stroke:#000000;stroke-width:0.8;" x="73.113325" xlink:href="#mf315e791da" y="298.245375"/>
      </g>
     </g>
     <g id="text_7">
      <!-- 0.0 -->
      <defs>
       <path d="M 10.6875 12.40625 
L 21 12.40625 
L 21 0 
L 10.6875 0 
z
" id="DejaVuSans-2e"/>
      </defs>
      <g transform="translate(34.307075 305.843812)scale(0.2 -0.2)">
       <use xlink:href="#DejaVuSans-30"/>
       <use x="63.623047" xlink:href="#DejaVuSans-2e"/>
       <use x="95.410156" xlink:href="#DejaVuSans-30"/>
      </g>
     </g>
    </g>
    <g id="ytick_2">
     <g id="line2d_31">
      <path clip-path="url(#p44a9b61ae3)" d="M 73.113325 245.549929 
L 430.233325 245.549929 
" style="fill:none;stroke:#b0b0b0;stroke-linecap:square;stroke-width:0.8;"/>
     </g>
     <g id="line2d_32">
      <g>
       <use style="stroke:#000000;stroke-width:0.8;" x="73.113325" xlink:href="#mf315e791da" y="245.549929"/>
      </g>
     </g>
     <g id="text_8">
      <!-- 0.2 -->
      <g transform="translate(34.307075 253.148367)scale(0.2 -0.2)">
       <use xlink:href="#DejaVuSans-30"/>
       <use x="63.623047" xlink:href="#DejaVuSans-2e"/>
       <use x="95.410156" xlink:href="#DejaVuSans-32"/>
      </g>
     </g>
    </g>
    <g id="ytick_3">
     <g id="line2d_33">
      <path clip-path="url(#p44a9b61ae3)" d="M 73.113325 192.854484 
L 430.233325 192.854484 
" style="fill:none;stroke:#b0b0b0;stroke-linecap:square;stroke-width:0.8;"/>
     </g>
     <g id="line2d_34">
      <g>
       <use style="stroke:#000000;stroke-width:0.8;" x="73.113325" xlink:href="#mf315e791da" y="192.854484"/>
      </g>
     </g>
     <g id="text_9">
      <!-- 0.4 -->
      <g transform="translate(34.307075 200.452921)scale(0.2 -0.2)">
       <use xlink:href="#DejaVuSans-30"/>
       <use x="63.623047" xlink:href="#DejaVuSans-2e"/>
       <use x="95.410156" xlink:href="#DejaVuSans-34"/>
      </g>
     </g>
    </g>
    <g id="ytick_4">
     <g id="line2d_35">
      <path clip-path="url(#p44a9b61ae3)" d="M 73.113325 140.159038 
L 430.233325 140.159038 
" style="fill:none;stroke:#b0b0b0;stroke-linecap:square;stroke-width:0.8;"/>
     </g>
     <g id="line2d_36">
      <g>
       <use style="stroke:#000000;stroke-width:0.8;" x="73.113325" xlink:href="#mf315e791da" y="140.159038"/>
      </g>
     </g>
     <g id="text_10">
      <!-- 0.6 -->
      <g transform="translate(34.307075 147.757476)scale(0.2 -0.2)">
       <use xlink:href="#DejaVuSans-30"/>
       <use x="63.623047" xlink:href="#DejaVuSans-2e"/>
       <use x="95.410156" xlink:href="#DejaVuSans-36"/>
      </g>
     </g>
    </g>
    <g id="ytick_5">
     <g id="line2d_37">
      <path clip-path="url(#p44a9b61ae3)" d="M 73.113325 87.463593 
L 430.233325 87.463593 
" style="fill:none;stroke:#b0b0b0;stroke-linecap:square;stroke-width:0.8;"/>
     </g>
     <g id="line2d_38">
      <g>
       <use style="stroke:#000000;stroke-width:0.8;" x="73.113325" xlink:href="#mf315e791da" y="87.463593"/>
      </g>
     </g>
     <g id="text_11">
      <!-- 0.8 -->
      <g transform="translate(34.307075 95.06203)scale(0.2 -0.2)">
       <use xlink:href="#DejaVuSans-30"/>
       <use x="63.623047" xlink:href="#DejaVuSans-2e"/>
       <use x="95.410156" xlink:href="#DejaVuSans-38"/>
      </g>
     </g>
    </g>
    <g id="ytick_6">
     <g id="line2d_39">
      <path clip-path="url(#p44a9b61ae3)" d="M 73.113325 34.768147 
L 430.233325 34.768147 
" style="fill:none;stroke:#b0b0b0;stroke-linecap:square;stroke-width:0.8;"/>
     </g>
     <g id="line2d_40">
      <g>
       <use style="stroke:#000000;stroke-width:0.8;" x="73.113325" xlink:href="#mf315e791da" y="34.768147"/>
      </g>
     </g>
     <g id="text_12">
      <!-- 1.0 -->
      <g transform="translate(34.307075 42.366585)scale(0.2 -0.2)">
       <use xlink:href="#DejaVuSans-31"/>
       <use x="63.623047" xlink:href="#DejaVuSans-2e"/>
       <use x="95.410156" xlink:href="#DejaVuSans-30"/>
      </g>
     </g>
    </g>
    <g id="text_13">
     <!-- Proportion of function+target pairs -->
     <defs>
      <path d="M 19.671875 64.796875 
L 19.671875 37.40625 
L 32.078125 37.40625 
Q 38.96875 37.40625 42.71875 40.96875 
Q 46.484375 44.53125 46.484375 51.125 
Q 46.484375 57.671875 42.71875 61.234375 
Q 38.96875 64.796875 32.078125 64.796875 
z
M 9.8125 72.90625 
L 32.078125 72.90625 
Q 44.34375 72.90625 50.609375 67.359375 
Q 56.890625 61.8125 56.890625 51.125 
Q 56.890625 40.328125 50.609375 34.8125 
Q 44.34375 29.296875 32.078125 29.296875 
L 19.671875 29.296875 
L 19.671875 0 
L 9.8125 0 
z
" id="DejaVuSans-50"/>
      <path d="M 41.109375 46.296875 
Q 39.59375 47.171875 37.8125 47.578125 
Q 36.03125 48 33.890625 48 
Q 26.265625 48 22.1875 43.046875 
Q 18.109375 38.09375 18.109375 28.8125 
L 18.109375 0 
L 9.078125 0 
L 9.078125 54.6875 
L 18.109375 54.6875 
L 18.109375 46.1875 
Q 20.953125 51.171875 25.484375 53.578125 
Q 30.03125 56 36.53125 56 
Q 37.453125 56 38.578125 55.875 
Q 39.703125 55.765625 41.0625 55.515625 
z
" id="DejaVuSans-72"/>
      <path d="M 18.109375 8.203125 
L 18.109375 -20.796875 
L 9.078125 -20.796875 
L 9.078125 54.6875 
L 18.109375 54.6875 
L 18.109375 46.390625 
Q 20.953125 51.265625 25.265625 53.625 
Q 29.59375 56 35.59375 56 
Q 45.5625 56 51.78125 48.09375 
Q 58.015625 40.1875 58.015625 27.296875 
Q 58.015625 14.40625 51.78125 6.484375 
Q 45.5625 -1.421875 35.59375 -1.421875 
Q 29.59375 -1.421875 25.265625 0.953125 
Q 20.953125 3.328125 18.109375 8.203125 
M 48.6875 27.296875 
Q 48.6875 37.203125 44.609375 42.84375 
Q 40.53125 48.484375 33.40625 48.484375 
Q 26.265625 48.484375 22.1875 42.84375 
Q 18.109375 37.203125 18.109375 27.296875 
Q 18.109375 17.390625 22.1875 11.75 
Q 26.265625 6.109375 33.40625 6.109375 
Q 40.53125 6.109375 44.609375 11.75 
Q 48.6875 17.390625 48.6875 27.296875 
" id="DejaVuSans-70"/>
      <path d="M 18.3125 70.21875 
L 18.3125 54.6875 
L 36.8125 54.6875 
L 36.8125 47.703125 
L 18.3125 47.703125 
L 18.3125 18.015625 
Q 18.3125 11.328125 20.140625 9.421875 
Q 21.96875 7.515625 27.59375 7.515625 
L 36.8125 7.515625 
L 36.8125 0 
L 27.59375 0 
Q 17.1875 0 13.234375 3.875 
Q 9.28125 7.765625 9.28125 18.015625 
L 9.28125 47.703125 
L 2.6875 47.703125 
L 2.6875 54.6875 
L 9.28125 54.6875 
L 9.28125 70.21875 
z
" id="DejaVuSans-74"/>
      <path d="M 8.5 21.578125 
L 8.5 54.6875 
L 17.484375 54.6875 
L 17.484375 21.921875 
Q 17.484375 14.15625 20.5 10.265625 
Q 23.53125 6.390625 29.59375 6.390625 
Q 36.859375 6.390625 41.078125 11.03125 
Q 45.3125 15.671875 45.3125 23.6875 
L 45.3125 54.6875 
L 54.296875 54.6875 
L 54.296875 0 
L 45.3125 0 
L 45.3125 8.40625 
Q 42.046875 3.421875 37.71875 1 
Q 33.40625 -1.421875 27.6875 -1.421875 
Q 18.265625 -1.421875 13.375 4.4375 
Q 8.5 10.296875 8.5 21.578125 
M 31.109375 56 
z
" id="DejaVuSans-75"/>
      <path d="M 48.78125 52.59375 
L 48.78125 44.1875 
Q 44.96875 46.296875 41.140625 47.34375 
Q 37.3125 48.390625 33.40625 48.390625 
Q 24.65625 48.390625 19.8125 42.84375 
Q 14.984375 37.3125 14.984375 27.296875 
Q 14.984375 17.28125 19.8125 11.734375 
Q 24.65625 6.203125 33.40625 6.203125 
Q 37.3125 6.203125 41.140625 7.25 
Q 44.96875 8.296875 48.78125 10.40625 
L 48.78125 2.09375 
Q 45.015625 0.34375 40.984375 -0.53125 
Q 36.96875 -1.421875 32.421875 -1.421875 
Q 20.0625 -1.421875 12.78125 6.34375 
Q 5.515625 14.109375 5.515625 27.296875 
Q 5.515625 40.671875 12.859375 48.328125 
Q 20.21875 56 33.015625 56 
Q 37.15625 56 41.109375 55.140625 
Q 45.0625 54.296875 48.78125 52.59375 
" id="DejaVuSans-63"/>
      <path d="M 46 62.703125 
L 46 35.5 
L 73.1875 35.5 
L 73.1875 27.203125 
L 46 27.203125 
L 46 0 
L 37.796875 0 
L 37.796875 27.203125 
L 10.59375 27.203125 
L 10.59375 35.5 
L 37.796875 35.5 
L 37.796875 62.703125 
z
" id="DejaVuSans-2b"/>
     </defs>
     <g transform="translate(26.563638 323.17875)rotate(-90)scale(0.18 -0.18)">
      <use xlink:href="#DejaVuSans-50"/>
      <use x="60.287109" xlink:href="#DejaVuSans-72"/>
      <use x="101.369141" xlink:href="#DejaVuSans-6f"/>
      <use x="162.550781" xlink:href="#DejaVuSans-70"/>
      <use x="226.027344" xlink:href="#DejaVuSans-6f"/>
      <use x="287.208984" xlink:href="#DejaVuSans-72"/>
      <use x="328.322266" xlink:href="#DejaVuSans-74"/>
      <use x="367.53125" xlink:href="#DejaVuSans-69"/>
      <use x="395.314453" xlink:href="#DejaVuSans-6f"/>
      <use x="456.496094" xlink:href="#DejaVuSans-6e"/>
      <use x="519.875" xlink:href="#DejaVuSans-20"/>
      <use x="551.662109" xlink:href="#DejaVuSans-6f"/>
      <use x="612.84375" xlink:href="#DejaVuSans-66"/>
      <use x="648.048828" xlink:href="#DejaVuSans-20"/>
      <use x="679.835938" xlink:href="#DejaVuSans-66"/>
      <use x="715.041016" xlink:href="#DejaVuSans-75"/>
      <use x="778.419922" xlink:href="#DejaVuSans-6e"/>
      <use x="841.798828" xlink:href="#DejaVuSans-63"/>
      <use x="896.779297" xlink:href="#DejaVuSans-74"/>
      <use x="935.988281" xlink:href="#DejaVuSans-69"/>
      <use x="963.771484" xlink:href="#DejaVuSans-6f"/>
      <use x="1024.953125" xlink:href="#DejaVuSans-6e"/>
      <use x="1088.332031" xlink:href="#DejaVuSans-2b"/>
      <use x="1172.121094" xlink:href="#DejaVuSans-74"/>
      <use x="1211.330078" xlink:href="#DejaVuSans-61"/>
      <use x="1272.609375" xlink:href="#DejaVuSans-72"/>
      <use x="1313.707031" xlink:href="#DejaVuSans-67"/>
      <use x="1377.183594" xlink:href="#DejaVuSans-65"/>
      <use x="1438.707031" xlink:href="#DejaVuSans-74"/>
      <use x="1477.916016" xlink:href="#DejaVuSans-20"/>
      <use x="1509.703125" xlink:href="#DejaVuSans-70"/>
      <use x="1573.179688" xlink:href="#DejaVuSans-61"/>
      <use x="1634.458984" xlink:href="#DejaVuSans-69"/>
      <use x="1662.242188" xlink:href="#DejaVuSans-72"/>
      <use x="1703.355469" xlink:href="#DejaVuSans-73"/>
     </g>
    </g>
   </g>
   <g id="line2d_41">
    <defs>
     <path d="M 0 1.5 
C 0.397805 1.5 0.77937 1.341951 1.06066 1.06066 
C 1.341951 0.77937 1.5 0.397805 1.5 0 
C 1.5 -0.397805 1.341951 -0.77937 1.06066 -1.06066 
C 0.77937 -1.341951 0.397805 -1.5 0 -1.5 
C -0.397805 -1.5 -0.77937 -1.341951 -1.06066 -1.06066 
C -1.341951 -0.77937 -1.5 -0.397805 -1.5 0 
C -1.5 0.397805 -1.341951 0.77937 -1.06066 1.06066 
C -0.77937 1.341951 -0.397805 1.5 0 1.5 
z
" id="m775e7c3da6" style="stroke:#00bfbf;"/>
    </defs>
    <g>
     <use style="fill:#00bfbf;stroke:#00bfbf;" x="347.261409" xlink:href="#m775e7c3da6" y="197.288823"/>
     <use style="fill:#00bfbf;stroke:#00bfbf;" x="347.261409" xlink:href="#m775e7c3da6" y="197.288823"/>
    </g>
   </g>
   <g id="line2d_42">
    <path d="M 60.728091 298.245375 
L 60.728091 283.629277 
L 73.113325 283.629277 
L 73.113325 281.605841 
L 80.358223 281.605841 
L 80.358223 280.551071 
L 85.498559 280.551071 
L 85.498559 279.13036 
L 89.485714 279.13036 
L 89.485714 278.570687 
L 92.743457 278.570687 
L 92.743457 278.269324 
L 95.497839 278.269324 
L 95.497839 277.989487 
L 97.883794 277.989487 
L 97.883794 277.472865 
L 99.988354 277.472865 
L 99.988354 276.999295 
L 103.573962 276.934717 
L 103.573962 276.676406 
L 106.558903 276.611828 
L 106.558903 276.202836 
L 107.883073 276.202836 
L 107.883073 275.966051 
L 109.115846 275.966051 
L 109.115846 275.793843 
L 111.352275 275.70774 
L 111.352275 275.578584 
L 113.339668 275.535532 
L 113.339668 275.298747 
L 115.959196 275.212643 
L 115.959196 275.169592 
L 117.513925 275.105014 
L 117.513925 274.997384 
L 118.944138 274.889755 
L 118.944138 274.760599 
L 121.50108 274.717547 
L 121.50108 274.631444 
L 122.654262 274.523814 
L 122.654262 274.502288 
L 123.204093 274.502288 
L 123.204093 274.373133 
L 123.73751 274.373133 
L 123.73751 274.243977 
L 124.255462 274.243977 
L 124.255462 274.07177 
L 127.933651 273.985666 
L 127.933651 273.921088 
L 129.138699 273.856511 
L 129.138699 273.770407 
L 129.522975 273.770407 
L 129.522975 273.49057 
L 131.669727 273.382941 
L 131.669727 273.361415 
L 133.280557 273.296837 
L 133.280557 273.189207 
L 133.886314 273.081578 
L 133.886314 272.995474 
L 134.758102 272.995474 
L 134.758102 272.801741 
L 135.858026 272.715637 
L 135.858026 272.651059 
L 137.633625 272.54343 
L 137.633625 272.500378 
L 138.110136 272.478852 
L 138.110136 272.349696 
L 138.801892 272.328171 
L 138.801892 272.220541 
L 140.109898 272.134437 
L 140.109898 272.026808 
L 141.131212 271.983756 
L 141.131212 271.897652 
L 141.908209 271.876126 
L 141.908209 271.746971 
L 142.469557 271.660867 
L 142.469557 271.596289 
L 143.013806 271.48866 
L 143.013806 271.467134 
L 144.388954 271.359504 
L 144.388954 271.337978 
L 145.665791 271.251875 
L 145.665791 271.208823 
L 146.419832 271.101193 
L 146.419832 271.079667 
L 147.284587 271.058141 
L 147.284587 270.885934 
L 148.376109 270.79983 
L 148.376109 270.756779 
L 150.612539 270.670675 
L 150.612539 270.606097 
L 151.073677 270.584571 
L 151.073677 270.412364 
L 153.114898 270.347786 
L 153.114898 270.283208 
L 153.615438 270.240157 
L 153.615438 270.111001 
L 154.669628 270.003372 
L 154.669628 269.981846 
L 156.185538 269.874216 
L 156.185538 269.85269 
L 157.263756 269.74506 
L 157.344063 269.615905 
L 157.896322 269.594379 
L 157.896322 269.465224 
L 159.097993 269.443698 
L 159.17048 269.314542 
L 161.60159 269.293016 
L 161.60159 269.077757 
L 163.85287 268.991653 
L 163.85287 268.948602 
L 167.331892 268.862498 
L 167.331892 268.819446 
L 168.95141 268.711816 
L 168.95141 268.668765 
L 169.849084 268.582661 
L 169.928498 268.453505 
L 171.446873 268.345876 
L 171.555714 268.302824 
L 172.090194 268.195194 
L 172.090194 268.152143 
L 173.796399 268.066039 
L 173.796399 268.022987 
L 176.238104 267.915358 
L 176.238104 267.872306 
L 178.36121 267.764676 
L 178.36121 267.700098 
L 179.276489 267.613995 
L 179.276489 267.570943 
L 182.974869 267.484839 
L 182.974869 267.420261 
L 191.987453 267.355684 
L 191.987453 267.291106 
L 193.093741 267.226528 
L 193.093741 267.16195 
L 193.784536 267.118899 
L 193.784536 267.011269 
L 194.837097 266.903639 
L 194.837097 266.817536 
L 202.693865 266.709906 
L 202.693865 266.68838 
L 207.582332 266.580751 
L 207.582332 266.559225 
L 210.811958 266.473121 
L 210.811958 266.387017 
L 212.02784 266.300914 
L 212.02784 266.236336 
L 214.493418 266.128706 
L 214.493418 266.10718 
L 217.845237 266.021077 
L 217.866918 265.956499 
L 221.849197 265.848869 
L 221.922737 265.784292 
L 225.898664 265.676662 
L 225.898664 265.612084 
L 228.543856 265.547507 
L 228.543856 265.482929 
L 229.903435 265.375299 
L 229.903435 265.332247 
L 236.537289 265.246144 
L 236.537289 265.203092 
L 237.718671 265.116988 
L 237.718671 265.073936 
L 246.684029 264.966307 
L 246.684029 264.901729 
L 247.713109 264.7941 
L 247.727884 264.729522 
L 250.056582 264.643418 
L 250.098108 264.492737 
L 255.154511 264.385107 
L 255.154511 264.363581 
L 262.437345 264.255952 
L 262.437345 264.234426 
L 264.475804 264.148322 
L 264.475804 264.10527 
L 265.593258 264.019166 
L 265.704215 262.10336 
L 265.70496 261.99573 
L 265.808193 255.4088 
L 265.834833 255.30117 
L 265.874165 254.935229 
L 266.009228 254.8276 
L 266.058222 254.590815 
L 266.484674 254.483185 
L 266.53665 254.35403 
L 266.705063 254.2464 
L 266.715097 254.13877 
L 267.009873 254.031141 
L 267.03167 253.988089 
L 267.48151 253.880459 
L 267.48151 253.858934 
L 267.792195 253.751304 
L 267.825135 253.643674 
L 268.905133 253.536045 
L 268.905133 253.514519 
L 270.362651 253.406889 
L 270.384304 253.342312 
L 270.987089 253.234682 
L 271.015609 253.127052 
L 271.929453 253.019423 
L 271.960576 252.911793 
L 274.526246 252.804164 
L 274.611965 252.761112 
L 278.025368 252.653482 
L 278.135107 247.358107 
L 278.145134 247.250477 
L 278.25202 246.712329 
L 278.263826 246.604699 
L 278.348086 246.38944 
L 278.688054 246.281811 
L 278.756533 246.0235 
L 279.194668 245.91587 
L 279.238638 245.80824 
L 279.841353 245.700611 
L 279.841353 245.679085 
L 280.931775 245.571455 
L 281.014572 245.420774 
L 281.51007 245.313144 
L 281.51007 245.291618 
L 282.759289 245.183989 
L 282.759289 245.162463 
L 284.76011 245.054833 
L 284.76011 245.033307 
L 285.325468 244.925678 
L 285.435856 240.512865 
L 285.454116 240.405235 
L 285.497471 240.340657 
L 285.67222 240.233028 
L 285.760927 240.039295 
L 286.195257 239.931665 
L 286.195257 239.910139 
L 287.274816 239.80251 
L 287.309029 239.673354 
L 287.661452 239.565724 
L 287.671585 239.522673 
L 288.777302 239.415043 
L 288.784314 239.371991 
L 290.461084 239.264362 
L 290.570467 235.94937 
L 290.679369 235.841741 
L 290.789259 235.561904 
L 291.019994 235.454274 
L 291.130507 235.325119 
L 291.952732 235.217489 
L 291.971794 235.10986 
L 292.955895 235.00223 
L 293.062706 234.8946 
L 294.455543 234.786971 
L 294.546811 231.644187 
L 294.671476 231.536557 
L 294.770365 231.299772 
L 295.05367 231.192143 
L 295.05367 231.170617 
L 295.655569 231.062987 
L 295.694265 230.804676 
L 295.982087 230.697047 
L 295.997063 230.653995 
L 297.217502 230.546365 
L 297.217502 230.524839 
L 297.718494 230.41721 
L 297.796509 227.920203 
L 297.918559 227.812574 
L 298.009423 227.661892 
L 298.132034 227.554263 
L 298.224206 227.511211 
L 298.433873 227.403581 
L 298.501258 227.360529 
L 298.731372 227.2529 
L 298.828242 227.166796 
L 298.929927 227.059166 
L 299.010693 227.016115 
L 300.456663 226.908485 
L 300.527858 224.820471 
L 300.697667 224.712842 
L 300.795627 224.648264 
L 301.572541 224.540634 
L 301.572541 224.519108 
L 302.857636 224.411479 
L 302.926598 222.280413 
L 303.073944 222.172783 
L 303.153279 222.108206 
L 303.322834 222.000576 
L 303.345161 221.935998 
L 303.78202 221.828369 
L 303.825406 221.785317 
L 304.959739 221.677687 
L 305.051251 220.020192 
L 305.231291 219.912562 
L 305.302311 219.86951 
L 305.651066 219.761881 
L 305.651066 219.740355 
L 306.553087 219.632725 
L 306.553087 219.611199 
L 306.845005 219.50357 
L 306.95181 217.889126 
L 306.984418 217.781496 
L 307.030317 217.695392 
L 307.58191 217.587763 
L 307.58191 217.566237 
L 308.5415 217.458607 
L 308.638169 216.080949 
L 308.953598 215.973319 
L 309.040346 215.908741 
L 309.860118 215.801112 
L 309.866708 215.75806 
L 310.105342 215.65043 
L 310.203593 214.660238 
L 310.618278 214.552609 
L 310.72584 214.423453 
L 311.53719 214.315823 
L 311.630587 213.153424 
L 312.115351 213.045794 
L 312.148199 213.002743 
L 312.863134 212.895113 
L 312.950568 212.421543 
L 313.309676 212.313913 
L 313.403901 212.141706 
L 314.093099 212.034076 
L 314.17913 211.280669 
L 314.348734 211.17304 
L 314.348734 211.151514 
L 314.614574 211.043884 
L 314.614574 211.022358 
L 315.246711 210.914729 
L 315.330514 210.01064 
L 315.62839 209.90301 
L 315.641941 209.816907 
L 316.329429 209.709277 
L 316.390859 209.106551 
L 316.954842 208.998922 
L 316.987641 208.95587 
L 317.351119 208.84824 
L 317.445502 208.288567 
L 317.695735 208.180937 
L 317.695735 208.159411 
L 318.319613 208.051782 
L 318.386287 207.362952 
L 318.932784 207.255323 
L 318.932784 207.233797 
L 319.236495 207.126167 
L 319.297057 206.738701 
L 319.539387 206.631071 
L 319.608645 206.523441 
L 320.109937 206.415812 
L 320.197517 206.092923 
L 320.408915 205.985293 
L 320.408915 205.963768 
L 320.93763 205.856138 
L 321.006204 205.404094 
L 321.733418 205.296464 
L 321.785778 204.952049 
L 322.494114 204.84442 
L 322.594421 204.392376 
L 322.755636 204.284746 
L 322.80605 204.198642 
L 323.222827 204.091013 
L 323.299986 203.746598 
L 323.921113 203.638968 
L 323.990427 203.229976 
L 324.601933 203.122346 
L 324.668063 202.864035 
L 325.010325 202.756406 
L 325.010325 202.73488 
L 325.251878 202.62725 
L 325.312159 202.455043 
L 325.883303 202.347413 
L 325.893471 202.196732 
L 326.479469 202.089102 
L 326.527133 201.895369 
L 327.064766 201.78774 
L 327.13988 201.464851 
L 327.633632 201.357221 
L 327.741137 201.055858 
L 328.179805 200.948229 
L 328.228067 200.797547 
L 328.724978 200.689918 
L 328.751319 200.582288 
L 329.246286 200.474659 
L 329.327866 200.367029 
L 329.746839 200.259399 
L 329.809546 200.130244 
L 330.235291 200.022614 
L 330.244469 199.893459 
L 330.714781 199.785829 
L 330.719393 199.721252 
L 331.170716 199.613622 
L 331.195014 199.441415 
L 332.059296 199.333785 
L 332.144626 199.161578 
L 332.492206 199.053948 
L 332.534832 198.903267 
L 332.932612 198.795637 
L 333.006492 198.752585 
L 333.344762 198.644956 
L 333.399837 198.601904 
L 334.128945 198.494274 
L 334.134789 198.451222 
L 334.621034 198.343593 
L 334.621034 198.322067 
L 335.282186 198.214437 
L 335.282186 198.192911 
L 336.309835 198.085282 
L 336.324082 197.977652 
L 337.647596 197.870023 
L 337.680599 197.826971 
L 338.624705 197.719341 
L 338.624705 197.697815 
L 340.302399 197.590186 
L 340.302399 197.56866 
L 341.369425 197.46103 
L 341.374029 197.396452 
L 361.113325 197.288823 
L 361.113325 197.288823 
" style="fill:none;stroke:#00bfbf;stroke-linecap:square;stroke-width:1.5;"/>
   </g>
   <g id="line2d_43">
    <defs>
     <path d="M -6 0 
L 6 0 
M 0 6 
L 0 -6 
" id="m5e0d53bb45" style="stroke:#00bfbf;stroke-width:1.5;"/>
    </defs>
    <g>
     <use style="fill:none;stroke:#00bfbf;stroke-width:1.5;" x="138.801892" xlink:href="#m5e0d53bb45" y="272.328171"/>
     <use style="fill:none;stroke:#00bfbf;stroke-width:1.5;" x="226.98303" xlink:href="#m5e0d53bb45" y="265.569033"/>
     <use style="fill:none;stroke:#00bfbf;stroke-width:1.5;" x="285.363063" xlink:href="#m5e0d53bb45" y="241.266272"/>
     <use style="fill:none;stroke:#00bfbf;stroke-width:1.5;" x="324.606406" xlink:href="#m5e0d53bb45" y="203.057769"/>
     <use style="fill:none;stroke:#00bfbf;stroke-width:1.5;" x="347.261409" xlink:href="#m5e0d53bb45" y="197.288823"/>
     <use style="fill:none;stroke:#00bfbf;stroke-width:1.5;" x="361.113325" xlink:href="#m5e0d53bb45" y="197.288823"/>
    </g>
   </g>
   <g id="line2d_44"/>
   <g id="line2d_45">
    <path clip-path="url(#p44a9b61ae3)" d="M 265.712593 261.242323 
" style="fill:none;stroke:#00bfbf;stroke-linecap:square;stroke-width:1.5;"/>
    <defs>
     <path d="M -12 12 
L 12 -12 
M -12 -12 
L 12 12 
" id="m7ada9f41ef" style="stroke:#00bfbf;stroke-width:3;"/>
    </defs>
    <g clip-path="url(#p44a9b61ae3)">
     <use style="fill:#00bfbf;stroke:#00bfbf;stroke-width:3;" x="265.712593" xlink:href="#m7ada9f41ef" y="261.242323"/>
    </g>
   </g>
   <g id="line2d_46">
    <defs>
     <path d="M 0 1.5 
C 0.397805 1.5 0.77937 1.341951 1.06066 1.06066 
C 1.341951 0.77937 1.5 0.397805 1.5 0 
C 1.5 -0.397805 1.341951 -0.77937 1.06066 -1.06066 
C 0.77937 -1.341951 0.397805 -1.5 0 -1.5 
C -0.397805 -1.5 -0.77937 -1.341951 -1.06066 -1.06066 
C -1.341951 -0.77937 -1.5 -0.397805 -1.5 0 
C -1.5 0.397805 -1.341951 0.77937 -1.06066 1.06066 
C -0.77937 1.341951 -0.397805 1.5 0 1.5 
z
" id="me527fb8bc5" style="stroke:#008000;"/>
    </defs>
    <g>
     <use style="fill:#008000;stroke:#008000;" x="342.456925" xlink:href="#me527fb8bc5" y="248.951024"/>
     <use style="fill:#008000;stroke:#008000;" x="342.456925" xlink:href="#me527fb8bc5" y="248.951024"/>
    </g>
   </g>
   <g id="line2d_47">
    <path d="M 53.483194 298.245375 
L 53.483194 286.147809 
L 65.868428 286.147809 
L 65.868428 285.049988 
L 73.113325 285.049988 
L 73.113325 284.275055 
L 78.253662 284.275055 
L 78.253662 283.736907 
L 82.240817 283.736907 
L 82.240817 283.370966 
L 85.498559 283.370966 
L 85.498559 282.961974 
L 88.252942 282.961974 
L 88.252942 282.746715 
L 90.638896 282.746715 
L 90.638896 282.488404 
L 94.626051 282.4023 
L 94.626051 282.316196 
L 96.329064 282.316196 
L 96.329064 282.187041 
L 99.314006 282.165515 
L 99.314006 281.971782 
L 100.638176 281.971782 
L 100.638176 281.778048 
L 103.02413 281.670419 
L 103.02413 281.648893 
L 104.107378 281.648893 
L 104.107378 281.261426 
L 106.09477 281.175323 
L 106.09477 281.132271 
L 107.011285 281.132271 
L 107.011285 280.981589 
L 111.69924 280.917012 
L 111.69924 280.830908 
L 113.650426 280.744804 
L 113.650426 280.680226 
L 115.959196 280.572597 
L 115.959196 280.529545 
L 117.010565 280.443441 
L 117.010565 280.249708 
L 118.003493 280.18513 
L 118.003493 280.055975 
L 119.396519 279.948345 
L 119.396519 279.905293 
L 120.688753 279.81919 
L 120.688753 279.71156 
L 122.654262 279.603931 
L 122.654262 279.582405 
L 124.084474 279.496301 
L 124.084474 279.453249 
L 125.724902 279.34562 
L 125.724902 279.216464 
L 126.641417 279.13036 
L 126.641417 279.044257 
L 129.138699 278.958153 
L 129.138699 278.915101 
L 130.14562 278.828998 
L 130.14562 278.785946 
L 131.098812 278.699842 
L 131.098812 278.635264 
L 132.43955 278.549161 
L 132.43955 278.506109 
L 135.768908 278.398479 
L 135.768908 278.355427 
L 138.726339 278.247798 
L 138.726339 278.204746 
L 139.612543 278.118642 
L 139.612543 278.032539 
L 143.250473 277.924909 
L 143.250473 277.838805 
L 145.038776 277.731176 
L 145.038776 277.70965 
L 147.701761 277.623546 
L 147.701761 277.580494 
L 149.529291 277.472865 
L 149.529291 277.451339 
L 150.258703 277.429813 
L 150.258703 277.300657 
L 154.229968 277.193028 
L 154.229968 277.171502 
L 162.6836 277.063872 
L 162.6836 276.999295 
L 165.567687 276.891665 
L 165.634987 276.848613 
L 166.551501 276.740984 
L 166.551501 276.568776 
L 171.017182 276.482673 
L 171.017182 276.418095 
L 173.753805 276.310465 
L 173.753805 276.288939 
L 183.795678 276.18131 
L 183.807829 276.116732 
L 184.673254 276.009102 
L 184.673254 275.987577 
L 187.454068 275.879947 
L 187.454068 275.815369 
L 193.341241 275.70774 
L 193.341241 275.686214 
L 194.506441 275.60011 
L 194.506441 275.557058 
L 200.505212 275.449429 
L 200.581388 275.277221 
L 204.011702 275.169592 
L 204.011702 275.12654 
L 206.961622 275.061962 
L 206.961622 274.932807 
L 212.105283 274.846703 
L 212.105283 274.803651 
L 212.828312 274.696021 
L 212.828312 274.674496 
L 216.947124 274.566866 
L 216.947124 274.54534 
L 219.843521 274.459236 
L 219.843521 274.416185 
L 222.924453 274.308555 
L 222.924453 274.265503 
L 226.525144 274.157874 
L 226.525144 274.136348 
L 229.38077 274.028718 
L 229.42716 273.985666 
L 231.734583 273.899563 
L 231.734583 273.856511 
L 235.960286 273.748881 
L 235.960286 273.727355 
L 237.929648 273.662777 
L 237.929648 273.576674 
L 241.035071 273.469044 
L 241.035071 273.447518 
L 246.705433 273.339889 
L 246.705433 273.296837 
L 249.514684 273.189207 
L 249.514684 273.167681 
L 251.956959 273.060052 
L 251.956959 273.017 
L 254.267223 272.930896 
L 254.296396 272.866319 
L 258.443482 272.780215 
L 258.552369 269.120809 
L 258.575696 269.034705 
L 258.648994 268.884024 
L 258.816793 268.776394 
L 258.816793 268.754868 
L 259.178708 268.647239 
L 259.248866 268.604187 
L 259.45365 268.496557 
L 259.475829 268.410454 
L 260.426607 268.302824 
L 260.452442 268.238246 
L 261.087451 268.130617 
L 261.087451 268.109091 
L 262.066107 268.001461 
L 262.16581 267.958409 
L 263.928129 267.85078 
L 263.93841 267.807728 
L 264.70531 267.721624 
L 264.70531 267.678572 
L 267.495328 267.570943 
L 267.495328 267.549417 
L 268.902746 267.441787 
L 268.902746 267.420261 
L 270.838405 267.312632 
L 270.929358 264.664944 
L 271.281524 264.557314 
L 271.353702 264.471211 
L 271.626437 264.363581 
L 271.631071 264.320529 
L 272.029414 264.2129 
L 272.038474 264.148322 
L 273.227316 264.040692 
L 273.314536 263.997641 
L 275.932531 263.890011 
L 275.932531 263.868485 
L 278.087462 263.760855 
L 278.192502 262.533878 
L 278.427261 262.426249 
L 278.495897 262.383197 
L 279.220877 262.275567 
L 279.239569 262.210989 
L 280.435345 262.10336 
L 280.435345 262.081834 
L 283.149485 261.974204 
L 283.259788 260.682649 
L 283.271171 260.57502 
L 283.323718 260.46739 
L 283.702611 260.359761 
L 283.712991 260.316709 
L 284.172612 260.209079 
L 284.172612 260.187553 
L 284.481226 260.079924 
L 284.481226 260.058398 
L 286.122667 259.950768 
L 286.139052 259.864664 
L 287.220292 259.757035 
L 287.321215 258.573109 
L 287.791686 258.46548 
L 287.8521 258.400902 
L 288.225851 258.293272 
L 288.225851 258.271747 
L 290.477476 258.164117 
L 290.564987 257.260028 
L 291.517886 257.152399 
L 291.517886 257.130873 
L 293.234252 257.023243 
L 293.309145 256.35594 
L 294.404453 256.24831 
L 294.404453 256.226784 
L 295.619861 256.119155 
L 295.667224 255.645585 
L 295.84978 255.537955 
L 295.85465 255.494903 
L 297.128456 255.387274 
L 297.128456 255.365748 
L 297.727814 255.258118 
L 297.836165 254.870652 
L 298.759943 254.763022 
L 298.790876 254.71997 
L 299.605042 254.612341 
L 299.693911 254.181822 
L 301.318167 254.074193 
L 301.412633 253.77283 
L 302.871567 253.6652 
L 302.888169 253.449941 
L 304.297577 253.342312 
L 304.377851 253.148578 
L 305.537065 253.040949 
L 305.638106 252.804164 
L 306.860425 252.696534 
L 306.883224 252.545853 
L 308.013307 252.438223 
L 308.030256 252.266016 
L 309.091857 252.158386 
L 309.184441 252.072282 
L 310.124811 251.964653 
L 310.169006 251.900075 
L 311.079507 251.792445 
L 311.1665 251.620238 
L 312.007881 251.512609 
L 312.043381 251.469557 
L 313.005636 251.361927 
L 313.006269 251.318875 
L 313.703875 251.211246 
L 313.779634 251.125142 
L 314.576777 251.017512 
L 314.576777 250.995987 
L 315.265034 250.888357 
L 315.324011 250.823779 
L 316.078327 250.71615 
L 316.078327 250.694624 
L 316.793642 250.586994 
L 316.793642 250.565468 
L 317.367125 250.457839 
L 317.468639 250.393261 
L 318.016757 250.285631 
L 318.111312 250.242579 
L 318.748847 250.13495 
L 318.748847 250.113424 
L 319.652073 250.005794 
L 319.652073 249.984268 
L 319.904736 249.876639 
L 319.904736 249.855113 
L 322.001027 249.747483 
L 322.001027 249.725957 
L 322.995629 249.618328 
L 322.995629 249.596802 
L 325.718453 249.489172 
L 325.718453 249.467646 
L 326.944185 249.360017 
L 326.944185 249.338491 
L 329.410823 249.230861 
L 329.426212 249.166284 
L 333.331517 249.058654 
L 333.331517 249.037128 
L 361.113325 248.951024 
L 361.113325 248.951024 
" style="fill:none;stroke:#008000;stroke-linecap:square;stroke-width:1.5;"/>
   </g>
   <g id="line2d_48">
    <defs>
     <path d="M -0 6 
L 6 -6 
L -6 -6 
z
" id="m3e0881576f" style="stroke:#008000;stroke-linejoin:miter;stroke-width:1.5;"/>
    </defs>
    <g>
     <use style="fill:none;stroke:#008000;stroke-linejoin:miter;stroke-width:1.5;" x="126.641417" xlink:href="#m3e0881576f" y="279.13036"/>
     <use style="fill:none;stroke:#008000;stroke-linejoin:miter;stroke-width:1.5;" x="220.111471" xlink:href="#m3e0881576f" y="274.394659"/>
     <use style="fill:none;stroke:#008000;stroke-linejoin:miter;stroke-width:1.5;" x="271.631071" xlink:href="#m3e0881576f" y="264.320529"/>
     <use style="fill:none;stroke:#008000;stroke-linejoin:miter;stroke-width:1.5;" x="342.456925" xlink:href="#m3e0881576f" y="248.951024"/>
     <use style="fill:none;stroke:#008000;stroke-linejoin:miter;stroke-width:1.5;" x="342.456925" xlink:href="#m3e0881576f" y="248.951024"/>
     <use style="fill:none;stroke:#008000;stroke-linejoin:miter;stroke-width:1.5;" x="361.113325" xlink:href="#m3e0881576f" y="248.951024"/>
    </g>
   </g>
   <g id="line2d_49"/>
   <g id="line2d_50">
    <path clip-path="url(#p44a9b61ae3)" d="M 258.46937 271.596289 
" style="fill:none;stroke:#008000;stroke-linecap:square;stroke-width:1.5;"/>
    <defs>
     <path d="M -12 12 
L 12 -12 
M -12 -12 
L 12 12 
" id="maa0e4868a6" style="stroke:#008000;stroke-width:3;"/>
    </defs>
    <g clip-path="url(#p44a9b61ae3)">
     <use style="fill:#008000;stroke:#008000;stroke-width:3;" x="258.46937" xlink:href="#maa0e4868a6" y="271.596289"/>
    </g>
   </g>
   <g id="line2d_51">
    <defs>
     <path d="M 0 1.5 
C 0.397805 1.5 0.77937 1.341951 1.06066 1.06066 
C 1.341951 0.77937 1.5 0.397805 1.5 0 
C 1.5 -0.397805 1.341951 -0.77937 1.06066 -1.06066 
C 0.77937 -1.341951 0.397805 -1.5 0 -1.5 
C -0.397805 -1.5 -0.77937 -1.341951 -1.06066 -1.06066 
C -1.341951 -0.77937 -1.5 -0.397805 -1.5 0 
C -1.5 0.397805 -1.341951 0.77937 -1.06066 1.06066 
C -0.77937 1.341951 -0.397805 1.5 0 1.5 
z
" id="mb9f497c784" style="stroke:#0000ff;"/>
    </defs>
    <g>
     <use style="fill:#0000ff;stroke:#0000ff;" x="327.418993" xlink:href="#mb9f497c784" y="266.387017"/>
     <use style="fill:#0000ff;stroke:#0000ff;" x="327.418993" xlink:href="#mb9f497c784" y="266.387017"/>
    </g>
   </g>
   <g id="line2d_52">
    <path d="M 44.355702 298.245375 
L 44.355702 289.527378 
L 56.740936 289.527378 
L 56.740936 288.601764 
L 63.985834 288.601764 
L 63.985834 288.192772 
L 69.126171 288.192772 
L 69.126171 287.762253 
L 76.371068 287.697676 
L 76.371068 287.374787 
L 81.511405 287.267157 
L 81.511405 287.159528 
L 83.615966 287.159528 
L 83.615966 287.008846 
L 88.756302 286.901217 
L 88.756302 286.815113 
L 90.186515 286.815113 
L 90.186515 286.62138 
L 92.743457 286.535276 
L 92.743457 286.449172 
L 94.979887 286.384595 
L 94.979887 286.320017 
L 97.883794 286.233913 
L 97.883794 286.190861 
L 101.141536 286.083232 
L 101.141536 286.04018 
L 105.128691 285.93255 
L 105.128691 285.911024 
L 106.281873 285.889498 
L 106.281873 285.781869 
L 107.365121 285.674239 
L 107.365121 285.631187 
L 111.140816 285.523558 
L 111.140816 285.502032 
L 113.52677 285.394402 
L 113.52677 285.372876 
L 115.297338 285.265247 
L 115.297338 285.243721 
L 116.597411 285.136091 
L 116.597411 285.114565 
L 118.944138 285.006936 
L 118.944138 284.98541 
L 122.429503 284.87778 
L 122.429503 284.856254 
L 125.724902 284.770151 
L 125.724902 284.727099 
L 130.485052 284.619469 
L 130.485052 284.576418 
L 133.032385 284.468788 
L 133.032385 284.40421 
L 134.701288 284.339632 
L 134.701288 284.253529 
L 137.825757 284.145899 
L 137.825757 284.102847 
L 139.204444 283.995218 
L 139.204444 283.952166 
L 140.891368 283.887588 
L 140.891368 283.82301 
L 143.507237 283.715381 
L 143.507237 283.693855 
L 145.479986 283.629277 
L 145.479986 283.564699 
L 151.00526 283.500122 
L 151.00526 283.414018 
L 153.792255 283.327914 
L 153.792255 283.263337 
L 161.024114 283.155707 
L 161.024114 283.134181 
L 177.149608 283.026551 
L 177.149608 283.005026 
L 185.643962 282.897396 
L 185.643962 282.87587 
L 190.326351 282.76824 
L 190.326351 282.725189 
L 195.756559 282.617559 
L 195.756559 282.596033 
L 200.866062 282.488404 
L 200.866062 282.466878 
L 205.304757 282.359248 
L 205.304757 282.337722 
L 205.881823 282.230093 
L 205.881823 282.208567 
L 209.844807 282.100937 
L 209.844807 282.079411 
L 213.65353 281.971782 
L 213.65353 281.950256 
L 215.260529 281.864152 
L 215.260529 281.8211 
L 218.338953 281.756522 
L 218.422117 281.670419 
L 228.146372 281.562789 
L 228.19567 281.519737 
L 230.298678 281.412108 
L 230.298678 281.390582 
L 233.110009 281.304478 
L 233.110009 281.261426 
L 233.694025 281.153797 
L 233.694025 281.132271 
L 234.437443 281.089219 
L 234.437443 281.003115 
L 235.983492 280.895486 
L 235.983492 280.87396 
L 239.356227 280.76633 
L 239.418279 280.701752 
L 241.707039 280.594123 
L 241.707039 280.572597 
L 246.539508 280.464967 
L 246.539508 280.40039 
L 249.315245 280.29276 
L 249.417096 278.721368 
L 249.459856 278.613738 
L 249.478889 278.506109 
L 250.018991 278.398479 
L 250.022396 278.355427 
L 250.474204 278.247798 
L 250.495503 278.18322 
L 251.159793 278.07559 
L 251.196739 277.946435 
L 251.767965 277.838805 
L 251.767965 277.817279 
L 252.80726 277.70965 
L 252.835445 277.666598 
L 255.147318 277.558968 
L 255.147318 277.537443 
L 257.137711 277.429813 
L 257.137711 277.408287 
L 258.252579 277.300657 
L 258.252579 277.279132 
L 261.716315 277.171502 
L 261.823445 276.009102 
L 262.137034 275.901473 
L 262.151852 275.793843 
L 262.508034 275.686214 
L 262.561755 275.621636 
L 263.222132 275.514006 
L 263.228037 275.470954 
L 265.60753 275.363325 
L 265.611799 275.298747 
L 267.165636 275.191118 
L 267.165636 275.169592 
L 268.963261 275.061962 
L 269.007708 274.330081 
L 269.238328 274.222451 
L 269.251831 274.157874 
L 269.603071 274.050244 
L 269.620668 274.007192 
L 270.426387 273.899563 
L 270.426387 273.878037 
L 271.64167 273.770407 
L 271.65043 273.727355 
L 274.103691 273.619726 
L 274.190158 272.952422 
L 274.584684 272.844793 
L 274.629579 272.758689 
L 276.232679 272.651059 
L 276.232679 272.629533 
L 278.086357 272.521904 
L 278.161778 272.06986 
L 278.566264 271.96223 
L 278.624696 271.897652 
L 279.528721 271.790023 
L 279.528721 271.768497 
L 281.351939 271.660867 
L 281.374297 271.251875 
L 281.729079 271.144245 
L 281.755702 271.101193 
L 283.108717 270.993564 
L 283.108717 270.972038 
L 284.111706 270.864408 
L 284.184937 270.735253 
L 284.752583 270.627623 
L 284.752583 270.606097 
L 286.489483 270.498468 
L 286.532861 270.067949 
L 286.776287 269.96032 
L 286.791969 269.917268 
L 287.838027 269.809638 
L 287.838027 269.788112 
L 288.608861 269.680483 
L 288.714181 269.529801 
L 289.96141 269.422172 
L 289.96141 269.400646 
L 290.542635 269.293016 
L 290.607945 269.206913 
L 292.178306 269.099283 
L 292.289012 268.927076 
L 293.747425 268.819446 
L 293.750123 268.733342 
L 294.636288 268.625713 
L 294.636288 268.604187 
L 295.220701 268.496557 
L 295.295958 268.43198 
L 296.606344 268.32435 
L 296.613544 268.281298 
L 297.840078 268.173669 
L 297.890244 268.087565 
L 299.96314 267.979935 
L 299.971438 267.915358 
L 301.180987 267.807728 
L 301.180987 267.786202 
L 302.864656 267.678572 
L 302.929399 267.570943 
L 303.748971 267.463313 
L 303.837756 267.37721 
L 305.064815 267.26958 
L 305.064815 267.248054 
L 306.276909 267.140425 
L 306.276909 267.118899 
L 310.123067 267.011269 
L 310.123067 266.989743 
L 311.823627 266.882113 
L 311.869753 266.817536 
L 316.58625 266.709906 
L 316.587956 266.666854 
L 320.62093 266.559225 
L 320.65012 266.494647 
L 361.113325 266.387017 
L 361.113325 266.387017 
" style="fill:none;stroke:#0000ff;stroke-linecap:square;stroke-width:1.5;"/>
   </g>
   <g id="line2d_53">
    <defs>
     <path d="M 0 -6 
L -1.347084 -1.854102 
L -5.706339 -1.854102 
L -2.179628 0.708204 
L -3.526712 4.854102 
L -0 2.291796 
L 3.526712 4.854102 
L 2.179628 0.708204 
L 5.706339 -1.854102 
L 1.347084 -1.854102 
z
" id="m23fdec8e69" style="stroke:#0000ff;stroke-linejoin:bevel;stroke-width:1.5;"/>
    </defs>
    <g>
     <use style="fill:none;stroke:#0000ff;stroke-linejoin:bevel;stroke-width:1.5;" x="99.586807" xlink:href="#m23fdec8e69" y="286.126284"/>
     <use style="fill:none;stroke:#0000ff;stroke-linejoin:bevel;stroke-width:1.5;" x="212.527027" xlink:href="#m23fdec8e69" y="282.014833"/>
     <use style="fill:none;stroke:#0000ff;stroke-linejoin:bevel;stroke-width:1.5;" x="278.09604" xlink:href="#m23fdec8e69" y="272.457326"/>
     <use style="fill:none;stroke:#0000ff;stroke-linejoin:bevel;stroke-width:1.5;" x="327.418993" xlink:href="#m23fdec8e69" y="266.387017"/>
     <use style="fill:none;stroke:#0000ff;stroke-linejoin:bevel;stroke-width:1.5;" x="327.418993" xlink:href="#m23fdec8e69" y="266.387017"/>
     <use style="fill:none;stroke:#0000ff;stroke-linejoin:bevel;stroke-width:1.5;" x="361.113325" xlink:href="#m23fdec8e69" y="266.387017"/>
    </g>
   </g>
   <g id="line2d_54"/>
   <g id="line2d_55">
    <path clip-path="url(#p44a9b61ae3)" d="M 249.34039 279.862242 
" style="fill:none;stroke:#0000ff;stroke-linecap:square;stroke-width:1.5;"/>
    <defs>
     <path d="M -12 12 
L 12 -12 
M -12 -12 
L 12 12 
" id="m4a46dd777f" style="stroke:#0000ff;stroke-width:3;"/>
    </defs>
    <g clip-path="url(#p44a9b61ae3)">
     <use style="fill:#0000ff;stroke:#0000ff;stroke-width:3;" x="249.34039" xlink:href="#m4a46dd777f" y="279.862242"/>
    </g>
   </g>
   <g id="line2d_56">
    <defs>
     <path d="M 0 1.5 
C 0.397805 1.5 0.77937 1.341951 1.06066 1.06066 
C 1.341951 0.77937 1.5 0.397805 1.5 0 
C 1.5 -0.397805 1.341951 -0.77937 1.06066 -1.06066 
C 0.77937 -1.341951 0.397805 -1.5 0 -1.5 
C -0.397805 -1.5 -0.77937 -1.341951 -1.06066 -1.06066 
C -1.341951 -0.77937 -1.5 -0.397805 -1.5 0 
C -1.5 0.397805 -1.341951 0.77937 -1.06066 1.06066 
C -0.77937 1.341951 -0.397805 1.5 0 1.5 
z
" id="m1cda16beb3" style="stroke:#000000;"/>
    </defs>
    <g>
     <use style="stroke:#000000;" x="304.711341" xlink:href="#m1cda16beb3" y="281.885678"/>
     <use style="stroke:#000000;" x="304.711341" xlink:href="#m1cda16beb3" y="281.885678"/>
    </g>
   </g>
   <g id="line2d_57">
    <path d="M 31.970468 298.245375 
L 31.970468 291.055719 
L 44.355702 291.055719 
L 44.355702 290.603674 
L 51.6006 290.603674 
L 51.6006 290.366889 
L 63.985834 290.25926 
L 63.985834 290.130104 
L 69.126171 290.087052 
L 69.126171 290.000949 
L 74.816339 289.914845 
L 74.816339 289.78569 
L 81.511405 289.67806 
L 81.511405 289.635008 
L 89.485714 289.548904 
L 89.485714 289.505853 
L 95.497839 289.398223 
L 95.497839 289.376697 
L 107.100403 289.312119 
L 107.100403 289.247542 
L 116.281153 289.182964 
L 116.281153 289.09686 
L 123.204093 288.989231 
L 123.204093 288.967705 
L 129.522975 288.860075 
L 129.522975 288.795497 
L 138.297239 288.687868 
L 138.297239 288.666342 
L 140.36039 288.558712 
L 140.443113 288.51566 
L 143.783197 288.408031 
L 143.783197 288.386505 
L 163.321815 288.300401 
L 163.401915 288.214298 
L 172.520271 288.128194 
L 172.520271 288.085142 
L 177.265601 287.999038 
L 177.265601 287.955987 
L 189.095747 287.848357 
L 189.095747 287.826831 
L 197.204859 287.719201 
L 197.204859 287.67615 
L 208.732202 287.56852 
L 208.732202 287.546994 
L 211.928421 287.46089 
L 211.928421 287.417839 
L 218.577924 287.310209 
L 218.577924 287.288683 
L 224.377362 287.181054 
L 224.377362 287.159528 
L 232.346538 287.051898 
L 232.346538 287.008846 
L 233.705191 286.944268 
L 233.705191 286.879691 
L 236.948826 286.772061 
L 237.056124 286.255439 
L 238.259345 286.147809 
L 238.293917 286.104758 
L 241.468922 285.997128 
L 241.473403 285.954076 
L 243.544222 285.846447 
L 243.544222 285.824921 
L 249.164943 285.717291 
L 249.164943 285.695765 
L 249.34467 285.588136 
L 249.358621 285.394402 
L 250.20935 285.286773 
L 250.20935 285.265247 
L 251.723226 285.157617 
L 251.751953 285.09304 
L 255.041976 284.98541 
L 255.046575 284.942358 
L 256.589568 284.834729 
L 256.681196 284.748625 
L 257.250086 284.640995 
L 257.250086 284.619469 
L 261.720365 284.51184 
L 261.803025 284.339632 
L 264.251717 284.232003 
L 264.251717 284.210477 
L 265.710582 284.102847 
L 265.75186 283.973692 
L 268.016013 283.866062 
L 268.072046 283.82301 
L 269.271912 283.715381 
L 269.271912 283.693855 
L 271.893377 283.586225 
L 271.966034 283.543173 
L 273.582954 283.435544 
L 273.582954 283.414018 
L 274.789235 283.306388 
L 274.789235 283.284862 
L 276.59839 283.177233 
L 276.59839 283.155707 
L 278.095686 283.048077 
L 278.095686 283.026551 
L 278.508422 282.918922 
L 278.508422 282.897396 
L 281.452281 282.789766 
L 281.452281 282.76824 
L 283.04832 282.660611 
L 283.04832 282.639085 
L 284.636328 282.531455 
L 284.636328 282.509929 
L 286.713994 282.4023 
L 286.713994 282.380774 
L 289.142035 282.273144 
L 289.142035 282.251618 
L 292.199597 282.143989 
L 292.199597 282.122463 
L 294.613031 282.014833 
L 294.613031 281.993307 
L 361.113325 281.885678 
L 361.113325 281.885678 
" style="fill:none;stroke:#000000;stroke-linecap:square;stroke-width:1.5;"/>
   </g>
   <g id="line2d_58">
    <defs>
     <path d="M 0 6 
C 1.591219 6 3.117479 5.367802 4.242641 4.242641 
C 5.367802 3.117479 6 1.591219 6 0 
C 6 -1.591219 5.367802 -3.117479 4.242641 -4.242641 
C 3.117479 -5.367802 1.591219 -6 0 -6 
C -1.591219 -6 -3.117479 -5.367802 -4.242641 -4.242641 
C -5.367802 -3.117479 -6 -1.591219 -6 0 
C -6 1.591219 -5.367802 3.117479 -4.242641 4.242641 
C -3.117479 5.367802 -1.591219 6 0 6 
z
" id="m37562d4edc" style="stroke:#000000;stroke-width:1.5;"/>
    </defs>
    <g>
     <use style="fill:none;stroke:#000000;stroke-width:1.5;" x="95.497839" xlink:href="#m37562d4edc" y="289.398223"/>
     <use style="fill:none;stroke:#000000;stroke-width:1.5;" x="153.155461" xlink:href="#m37562d4edc" y="288.364979"/>
     <use style="fill:none;stroke:#000000;stroke-width:1.5;" x="246.375471" xlink:href="#m37562d4edc" y="285.824921"/>
     <use style="fill:none;stroke:#000000;stroke-width:1.5;" x="304.711341" xlink:href="#m37562d4edc" y="281.907204"/>
     <use style="fill:none;stroke:#000000;stroke-width:1.5;" x="304.711341" xlink:href="#m37562d4edc" y="281.885678"/>
     <use style="fill:none;stroke:#000000;stroke-width:1.5;" x="361.113325" xlink:href="#m37562d4edc" y="281.885678"/>
    </g>
   </g>
   <g id="line2d_59"/>
   <g id="line2d_60">
    <path clip-path="url(#p44a9b61ae3)" d="M 236.957017 286.599854 
" style="fill:none;stroke:#000000;stroke-linecap:square;stroke-width:1.5;"/>
    <defs>
     <path d="M -12 12 
L 12 -12 
M -12 -12 
L 12 12 
" id="m7cf807e903" style="stroke:#000000;stroke-width:3;"/>
    </defs>
    <g clip-path="url(#p44a9b61ae3)">
     <use style="stroke:#000000;stroke-width:3;" x="236.957017" xlink:href="#m7cf807e903" y="286.599854"/>
    </g>
   </g>
   <g id="line2d_61">
    <defs>
     <path d="M 0 1.5 
C 0.397805 1.5 0.77937 1.341951 1.06066 1.06066 
C 1.341951 0.77937 1.5 0.397805 1.5 0 
C 1.5 -0.397805 1.341951 -0.77937 1.06066 -1.06066 
C 0.77937 -1.341951 0.397805 -1.5 0 -1.5 
C -0.397805 -1.5 -0.77937 -1.341951 -1.06066 -1.06066 
C -1.341951 -0.77937 -1.5 -0.397805 -1.5 0 
C -1.5 0.397805 -1.341951 0.77937 -1.06066 1.06066 
C -0.77937 1.341951 -0.397805 1.5 0 1.5 
z
" id="m763f01a957" style="stroke:#ff0000;"/>
    </defs>
    <g>
     <use style="fill:#ff0000;stroke:#ff0000;" x="302.415131" xlink:href="#m763f01a957" y="287.267157"/>
     <use style="fill:#ff0000;stroke:#ff0000;" x="302.415131" xlink:href="#m763f01a957" y="287.267157"/>
    </g>
   </g>
   <g id="line2d_62">
    <path d="M 19.585234 298.245375 
L 19.585234 291.744548 
L 31.970468 291.744548 
L 31.970468 291.550815 
L 39.215366 291.550815 
L 39.215366 291.378607 
L 48.342857 291.357081 
L 48.342857 291.249452 
L 56.740936 291.163348 
L 56.740936 291.077245 
L 60.728091 291.077245 
L 60.728091 290.948089 
L 72.196811 290.840459 
L 72.196811 290.818934 
L 102.399108 290.711304 
L 102.399108 290.668252 
L 110.269028 290.560623 
L 110.269028 290.496045 
L 124.956262 290.388415 
L 124.956262 290.345363 
L 136.33173 290.237734 
L 136.33173 290.216208 
L 150.151171 290.108578 
L 150.151171 290.065526 
L 169.373218 290.000949 
L 169.373218 289.936371 
L 190.170064 289.828741 
L 190.170064 289.807215 
L 204.506484 289.699586 
L 204.506484 289.656534 
L 209.715767 289.548904 
L 209.715767 289.505853 
L 221.919715 289.398223 
L 221.919715 289.376697 
L 224.549622 289.269067 
L 224.577923 289.075334 
L 227.910485 288.967705 
L 227.910485 288.946179 
L 236.969389 288.838549 
L 236.972457 288.795497 
L 244.203155 288.687868 
L 244.203155 288.666342 
L 249.347694 288.558712 
L 249.436452 288.451083 
L 253.958166 288.343453 
L 253.958166 288.321927 
L 258.246277 288.214298 
L 258.246277 288.192772 
L 261.417949 288.085142 
L 261.417949 288.063616 
L 263.826896 287.955987 
L 263.870653 287.848357 
L 267.415572 287.740727 
L 267.497114 287.67615 
L 270.424957 287.56852 
L 270.476556 287.525468 
L 274.366001 287.417839 
L 274.366001 287.396313 
L 302.415131 287.288683 
L 302.415131 287.267157 
L 361.113325 287.267157 
L 361.113325 287.267157 
" style="fill:none;stroke:#ff0000;stroke-linecap:square;stroke-width:1.5;"/>
   </g>
   <g id="line2d_63">
    <defs>
     <path d="M -6 6 
L 6 6 
L 6 -6 
L -6 -6 
z
" id="m0036dfa716" style="stroke:#ff0000;stroke-linejoin:miter;stroke-width:1.5;"/>
    </defs>
    <g>
     <use style="fill:none;stroke:#ff0000;stroke-linejoin:miter;stroke-width:1.5;" x="73.113325" xlink:href="#m0036dfa716" y="290.797408"/>
     <use style="fill:none;stroke:#ff0000;stroke-linejoin:miter;stroke-width:1.5;" x="139.160162" xlink:href="#m0036dfa716" y="290.173156"/>
     <use style="fill:none;stroke:#ff0000;stroke-linejoin:miter;stroke-width:1.5;" x="223.535257" xlink:href="#m0036dfa716" y="289.269067"/>
     <use style="fill:none;stroke:#ff0000;stroke-linejoin:miter;stroke-width:1.5;" x="302.415131" xlink:href="#m0036dfa716" y="287.288683"/>
     <use style="fill:none;stroke:#ff0000;stroke-linejoin:miter;stroke-width:1.5;" x="302.415131" xlink:href="#m0036dfa716" y="287.267157"/>
     <use style="fill:none;stroke:#ff0000;stroke-linejoin:miter;stroke-width:1.5;" x="361.113325" xlink:href="#m0036dfa716" y="287.267157"/>
    </g>
   </g>
   <g id="line2d_64"/>
   <g id="line2d_65">
    <path clip-path="url(#p44a9b61ae3)" d="M 224.568991 289.139912 
" style="fill:none;stroke:#ff0000;stroke-linecap:square;stroke-width:1.5;"/>
    <defs>
     <path d="M -12 12 
L 12 -12 
M -12 -12 
L 12 12 
" id="mad80d99ac4" style="stroke:#ff0000;stroke-width:3;"/>
    </defs>
    <g clip-path="url(#p44a9b61ae3)">
     <use style="fill:#ff0000;stroke:#ff0000;stroke-width:3;" x="224.568991" xlink:href="#mad80d99ac4" y="289.139912"/>
    </g>
   </g>
   <g id="line2d_66">
    <defs>
     <path d="M 0 1.5 
C 0.397805 1.5 0.77937 1.341951 1.06066 1.06066 
C 1.341951 0.77937 1.5 0.397805 1.5 0 
C 1.5 -0.397805 1.341951 -0.77937 1.06066 -1.06066 
C 0.77937 -1.341951 0.397805 -1.5 0 -1.5 
C -0.397805 -1.5 -0.77937 -1.341951 -1.06066 -1.06066 
C -1.341951 -0.77937 -1.5 -0.397805 -1.5 0 
C -1.5 0.397805 -1.341951 0.77937 -1.06066 1.06066 
C -0.77937 1.341951 -0.397805 1.5 0 1.5 
z
" id="maac871bf4d" style="stroke:#bf00bf;"/>
    </defs>
    <g>
     <use style="fill:#bf00bf;stroke:#bf00bf;" x="269.353306" xlink:href="#maac871bf4d" y="289.635008"/>
     <use style="fill:#bf00bf;stroke:#bf00bf;" x="269.353306" xlink:href="#maac871bf4d" y="289.635008"/>
    </g>
   </g>
   <g id="line2d_67">
    <path d="M 7.2 298.245375 
L 7.2 292.411851 
L 19.585234 292.411851 
L 19.585234 292.196592 
L 39.215366 292.088963 
L 39.215366 292.045911 
L 50.04587 291.938281 
L 50.04587 291.916755 
L 53.030812 291.895229 
L 53.030812 291.7876 
L 68.558881 291.67997 
L 68.558881 291.636918 
L 85.720526 291.572341 
L 85.720526 291.507763 
L 107.430692 291.400133 
L 107.430692 291.357081 
L 126.234792 291.249452 
L 126.234792 291.227926 
L 168.938851 291.120296 
L 168.938851 291.09877 
L 180.34509 291.012667 
L 180.34509 290.969615 
L 201.395394 290.861985 
L 201.395394 290.797408 
L 211.295963 290.689778 
L 211.295963 290.668252 
L 212.203848 290.560623 
L 212.213514 290.474519 
L 217.34028 290.366889 
L 217.34028 290.345363 
L 224.567874 290.237734 
L 224.575412 290.130104 
L 234.289615 290.022475 
L 234.289615 290.000949 
L 244.064098 289.893319 
L 244.064098 289.871793 
L 254.27791 289.764164 
L 254.27791 289.742638 
L 361.113325 289.635008 
L 361.113325 289.635008 
" style="fill:none;stroke:#bf00bf;stroke-linecap:square;stroke-width:1.5;"/>
   </g>
   <g id="line2d_68">
    <defs>
     <path d="M -0 8.485281 
L 8.485281 0 
L 0 -8.485281 
L -8.485281 -0 
z
" id="m1c9189cc82" style="stroke:#bf00bf;stroke-linejoin:miter;stroke-width:1.5;"/>
    </defs>
    <g>
     <use style="fill:none;stroke:#bf00bf;stroke-linejoin:miter;stroke-width:1.5;" x="85.720526" xlink:href="#m1c9189cc82" y="291.572341"/>
     <use style="fill:none;stroke:#bf00bf;stroke-linejoin:miter;stroke-width:1.5;" x="180.34509" xlink:href="#m1c9189cc82" y="291.012667"/>
     <use style="fill:none;stroke:#bf00bf;stroke-linejoin:miter;stroke-width:1.5;" x="239.150502" xlink:href="#m1c9189cc82" y="289.914845"/>
     <use style="fill:none;stroke:#bf00bf;stroke-linejoin:miter;stroke-width:1.5;" x="269.353306" xlink:href="#m1c9189cc82" y="289.635008"/>
     <use style="fill:none;stroke:#bf00bf;stroke-linejoin:miter;stroke-width:1.5;" x="269.353306" xlink:href="#m1c9189cc82" y="289.635008"/>
     <use style="fill:none;stroke:#bf00bf;stroke-linejoin:miter;stroke-width:1.5;" x="361.113325" xlink:href="#m1c9189cc82" y="289.635008"/>
    </g>
   </g>
   <g id="line2d_69"/>
   <g id="line2d_70">
    <path clip-path="url(#p44a9b61ae3)" d="M 212.185246 290.646726 
" style="fill:none;stroke:#bf00bf;stroke-linecap:square;stroke-width:1.5;"/>
    <defs>
     <path d="M -12 12 
L 12 -12 
M -12 -12 
L 12 12 
" id="me8e37bda05" style="stroke:#bf00bf;stroke-width:3;"/>
    </defs>
    <g clip-path="url(#p44a9b61ae3)">
     <use style="fill:#bf00bf;stroke:#bf00bf;stroke-width:3;" x="212.185246" xlink:href="#me8e37bda05" y="290.646726"/>
    </g>
   </g>
   <g id="line2d_71">
    <path d="M 361.113325 289.635008 
L 392.793325 292.97583 
" style="fill:none;stroke:#bf00bf;stroke-linecap:square;stroke-width:1.5;"/>
    <g>
     <use style="fill:none;stroke:#bf00bf;stroke-linejoin:miter;stroke-width:1.5;" x="361.113325" xlink:href="#m1c9189cc82" y="289.635008"/>
     <use style="fill:none;stroke:#bf00bf;stroke-linejoin:miter;stroke-width:1.5;" x="392.793325" xlink:href="#m1c9189cc82" y="292.97583"/>
    </g>
   </g>
   <g id="line2d_72">
    <path d="M 361.113325 287.267157 
L 392.793325 242.388203 
" style="fill:none;stroke:#ff0000;stroke-linecap:square;stroke-width:1.5;"/>
    <g>
     <use style="fill:none;stroke:#ff0000;stroke-linejoin:miter;stroke-width:1.5;" x="361.113325" xlink:href="#m0036dfa716" y="287.267157"/>
     <use style="fill:none;stroke:#ff0000;stroke-linejoin:miter;stroke-width:1.5;" x="392.793325" xlink:href="#m0036dfa716" y="242.388203"/>
    </g>
   </g>
   <g id="line2d_73">
    <path d="M 361.113325 281.885678 
L 392.793325 191.800575 
" style="fill:none;stroke:#000000;stroke-linecap:square;stroke-width:1.5;"/>
    <g>
     <use style="fill:none;stroke:#000000;stroke-width:1.5;" x="361.113325" xlink:href="#m37562d4edc" y="281.885678"/>
     <use style="fill:none;stroke:#000000;stroke-width:1.5;" x="392.793325" xlink:href="#m37562d4edc" y="191.800575"/>
    </g>
   </g>
   <g id="line2d_74">
    <path d="M 361.113325 266.387017 
L 392.793325 141.212947 
" style="fill:none;stroke:#0000ff;stroke-linecap:square;stroke-width:1.5;"/>
    <g>
     <use style="fill:none;stroke:#0000ff;stroke-linejoin:bevel;stroke-width:1.5;" x="361.113325" xlink:href="#m23fdec8e69" y="266.387017"/>
     <use style="fill:none;stroke:#0000ff;stroke-linejoin:bevel;stroke-width:1.5;" x="392.793325" xlink:href="#m23fdec8e69" y="141.212947"/>
    </g>
   </g>
   <g id="line2d_75">
    <path d="M 361.113325 248.951024 
L 392.793325 90.62532 
" style="fill:none;stroke:#008000;stroke-linecap:square;stroke-width:1.5;"/>
    <g>
     <use style="fill:none;stroke:#008000;stroke-linejoin:miter;stroke-width:1.5;" x="361.113325" xlink:href="#m3e0881576f" y="248.951024"/>
     <use style="fill:none;stroke:#008000;stroke-linejoin:miter;stroke-width:1.5;" x="392.793325" xlink:href="#m3e0881576f" y="90.62532"/>
    </g>
   </g>
   <g id="line2d_76">
    <path d="M 361.113325 197.288823 
L 392.793325 40.037692 
" style="fill:none;stroke:#00bfbf;stroke-linecap:square;stroke-width:1.5;"/>
    <g>
     <use style="fill:none;stroke:#00bfbf;stroke-width:1.5;" x="361.113325" xlink:href="#m5e0d53bb45" y="197.288823"/>
     <use style="fill:none;stroke:#00bfbf;stroke-width:1.5;" x="392.793325" xlink:href="#m5e0d53bb45" y="40.037692"/>
    </g>
   </g>
   <g id="line2d_77">
    <path d="M 361.113325 298.245375 
L 361.113325 34.768147 
" style="fill:none;stroke:#000000;stroke-linecap:square;stroke-width:1.5;"/>
   </g>
   <g id="patch_3">
    <path d="M 73.113325 298.245375 
L 73.113325 32.133375 
" style="fill:none;stroke:#000000;stroke-linecap:square;stroke-linejoin:miter;stroke-width:0.8;"/>
   </g>
   <g id="patch_4">
    <path d="M 430.233325 298.245375 
L 430.233325 32.133375 
" style="fill:none;stroke:#000000;stroke-linecap:square;stroke-linejoin:miter;stroke-width:0.8;"/>
   </g>
   <g id="patch_5">
    <path d="M 73.113325 298.245375 
L 430.233325 298.245375 
" style="fill:none;stroke:#000000;stroke-linecap:square;stroke-linejoin:miter;stroke-width:0.8;"/>
   </g>
   <g id="patch_6">
    <path d="M 73.113325 32.133375 
L 430.233325 32.133375 
" style="fill:none;stroke:#000000;stroke-linecap:square;stroke-linejoin:miter;stroke-width:0.8;"/>
   </g>
   <g id="text_14">
    <!-- 40-D -->
    <defs>
     <path d="M 19.671875 64.796875 
L 19.671875 8.109375 
L 31.59375 8.109375 
Q 46.6875 8.109375 53.6875 14.9375 
Q 60.6875 21.78125 60.6875 36.53125 
Q 60.6875 51.171875 53.6875 57.984375 
Q 46.6875 64.796875 31.59375 64.796875 
z
M 9.8125 72.90625 
L 30.078125 72.90625 
Q 51.265625 72.90625 61.171875 64.09375 
Q 71.09375 55.28125 71.09375 36.53125 
Q 71.09375 17.671875 61.125 8.828125 
Q 51.171875 0 30.078125 0 
L 9.8125 0 
z
" id="DejaVuSans-44"/>
    </defs>
    <g transform="translate(398.553325 297.114893)scale(0.15 -0.15)">
     <use xlink:href="#DejaVuSans-34"/>
     <use x="63.623047" xlink:href="#DejaVuSans-30"/>
     <use x="127.246094" xlink:href="#DejaVuSans-2d"/>
     <use x="163.330078" xlink:href="#DejaVuSans-44"/>
    </g>
   </g>
   <g id="text_15">
    <!-- 20-D -->
    <g transform="translate(398.553325 246.527265)scale(0.15 -0.15)">
     <use xlink:href="#DejaVuSans-32"/>
     <use x="63.623047" xlink:href="#DejaVuSans-30"/>
     <use x="127.246094" xlink:href="#DejaVuSans-2d"/>
     <use x="163.330078" xlink:href="#DejaVuSans-44"/>
    </g>
   </g>
   <g id="text_16">
    <!-- 10-D -->
    <g transform="translate(398.553325 195.939637)scale(0.15 -0.15)">
     <use xlink:href="#DejaVuSans-31"/>
     <use x="63.623047" xlink:href="#DejaVuSans-30"/>
     <use x="127.246094" xlink:href="#DejaVuSans-2d"/>
     <use x="163.330078" xlink:href="#DejaVuSans-44"/>
    </g>
   </g>
   <g id="text_17">
    <!-- 5-D -->
    <defs>
     <path d="M 10.796875 72.90625 
L 49.515625 72.90625 
L 49.515625 64.59375 
L 19.828125 64.59375 
L 19.828125 46.734375 
Q 21.96875 47.46875 24.109375 47.828125 
Q 26.265625 48.1875 28.421875 48.1875 
Q 40.625 48.1875 47.75 41.5 
Q 54.890625 34.8125 54.890625 23.390625 
Q 54.890625 11.625 47.5625 5.09375 
Q 40.234375 -1.421875 26.90625 -1.421875 
Q 22.3125 -1.421875 17.546875 -0.640625 
Q 12.796875 0.140625 7.71875 1.703125 
L 7.71875 11.625 
Q 12.109375 9.234375 16.796875 8.0625 
Q 21.484375 6.890625 26.703125 6.890625 
Q 35.15625 6.890625 40.078125 11.328125 
Q 45.015625 15.765625 45.015625 23.390625 
Q 45.015625 31 40.078125 35.4375 
Q 35.15625 39.890625 26.703125 39.890625 
Q 22.75 39.890625 18.8125 39.015625 
Q 14.890625 38.140625 10.796875 36.28125 
z
" id="DejaVuSans-35"/>
    </defs>
    <g transform="translate(398.553325 145.35201)scale(0.15 -0.15)">
     <use xlink:href="#DejaVuSans-35"/>
     <use x="63.623047" xlink:href="#DejaVuSans-2d"/>
     <use x="99.707031" xlink:href="#DejaVuSans-44"/>
    </g>
   </g>
   <g id="text_18">
    <!-- 3-D -->
    <defs>
     <path d="M 40.578125 39.3125 
Q 47.65625 37.796875 51.625 33 
Q 55.609375 28.21875 55.609375 21.1875 
Q 55.609375 10.40625 48.1875 4.484375 
Q 40.765625 -1.421875 27.09375 -1.421875 
Q 22.515625 -1.421875 17.65625 -0.515625 
Q 12.796875 0.390625 7.625 2.203125 
L 7.625 11.71875 
Q 11.71875 9.328125 16.59375 8.109375 
Q 21.484375 6.890625 26.8125 6.890625 
Q 36.078125 6.890625 40.9375 10.546875 
Q 45.796875 14.203125 45.796875 21.1875 
Q 45.796875 27.640625 41.28125 31.265625 
Q 36.765625 34.90625 28.71875 34.90625 
L 20.21875 34.90625 
L 20.21875 43.015625 
L 29.109375 43.015625 
Q 36.375 43.015625 40.234375 45.921875 
Q 44.09375 48.828125 44.09375 54.296875 
Q 44.09375 59.90625 40.109375 62.90625 
Q 36.140625 65.921875 28.71875 65.921875 
Q 24.65625 65.921875 20.015625 65.03125 
Q 15.375 64.15625 9.8125 62.3125 
L 9.8125 71.09375 
Q 15.4375 72.65625 20.34375 73.4375 
Q 25.25 74.21875 29.59375 74.21875 
Q 40.828125 74.21875 47.359375 69.109375 
Q 53.90625 64.015625 53.90625 55.328125 
Q 53.90625 49.265625 50.4375 45.09375 
Q 46.96875 40.921875 40.578125 39.3125 
" id="DejaVuSans-33"/>
    </defs>
    <g transform="translate(398.553325 94.764382)scale(0.15 -0.15)">
     <use xlink:href="#DejaVuSans-33"/>
     <use x="63.623047" xlink:href="#DejaVuSans-2d"/>
     <use x="99.707031" xlink:href="#DejaVuSans-44"/>
    </g>
   </g>
   <g id="text_19">
    <!-- 2-D -->
    <g transform="translate(398.553325 44.176754)scale(0.15 -0.15)">
     <use xlink:href="#DejaVuSans-32"/>
     <use x="63.623047" xlink:href="#DejaVuSans-2d"/>
     <use x="99.707031" xlink:href="#DejaVuSans-44"/>
    </g>
   </g>
   <g id="text_20">
    <!-- bbob - f1-f24 -->
    <defs>
     <path d="M 48.6875 27.296875 
Q 48.6875 37.203125 44.609375 42.84375 
Q 40.53125 48.484375 33.40625 48.484375 
Q 26.265625 48.484375 22.1875 42.84375 
Q 18.109375 37.203125 18.109375 27.296875 
Q 18.109375 17.390625 22.1875 11.75 
Q 26.265625 6.109375 33.40625 6.109375 
Q 40.53125 6.109375 44.609375 11.75 
Q 48.6875 17.390625 48.6875 27.296875 
M 18.109375 46.390625 
Q 20.953125 51.265625 25.265625 53.625 
Q 29.59375 56 35.59375 56 
Q 45.5625 56 51.78125 48.09375 
Q 58.015625 40.1875 58.015625 27.296875 
Q 58.015625 14.40625 51.78125 6.484375 
Q 45.5625 -1.421875 35.59375 -1.421875 
Q 29.59375 -1.421875 25.265625 0.953125 
Q 20.953125 3.328125 18.109375 8.203125 
L 18.109375 0 
L 9.078125 0 
L 9.078125 75.984375 
L 18.109375 75.984375 
z
" id="DejaVuSans-62"/>
    </defs>
    <g transform="translate(76.684525 50.114612)scale(0.1666 -0.1666)">
     <use xlink:href="#DejaVuSans-62"/>
     <use x="63.476562" xlink:href="#DejaVuSans-62"/>
     <use x="126.953125" xlink:href="#DejaVuSans-6f"/>
     <use x="188.134766" xlink:href="#DejaVuSans-62"/>
     <use x="251.611328" xlink:href="#DejaVuSans-20"/>
     <use x="283.398438" xlink:href="#DejaVuSans-2d"/>
     <use x="319.482422" xlink:href="#DejaVuSans-20"/>
     <use x="351.269531" xlink:href="#DejaVuSans-66"/>
     <use x="386.474609" xlink:href="#DejaVuSans-31"/>
     <use x="450.097656" xlink:href="#DejaVuSans-2d"/>
     <use x="486.181641" xlink:href="#DejaVuSans-66"/>
     <use x="521.386719" xlink:href="#DejaVuSans-32"/>
     <use x="585.009766" xlink:href="#DejaVuSans-34"/>
    </g>
    <!-- 51 targets in 100..1e-08 -->
    <g transform="translate(76.684525 68.770168)scale(0.1666 -0.1666)">
     <use xlink:href="#DejaVuSans-35"/>
     <use x="63.623047" xlink:href="#DejaVuSans-31"/>
     <use x="127.246094" xlink:href="#DejaVuSans-20"/>
     <use x="159.033203" xlink:href="#DejaVuSans-74"/>
     <use x="198.242188" xlink:href="#DejaVuSans-61"/>
     <use x="259.521484" xlink:href="#DejaVuSans-72"/>
     <use x="300.619141" xlink:href="#DejaVuSans-67"/>
     <use x="364.095703" xlink:href="#DejaVuSans-65"/>
     <use x="425.619141" xlink:href="#DejaVuSans-74"/>
     <use x="464.828125" xlink:href="#DejaVuSans-73"/>
     <use x="516.927734" xlink:href="#DejaVuSans-20"/>
     <use x="548.714844" xlink:href="#DejaVuSans-69"/>
     <use x="576.498047" xlink:href="#DejaVuSans-6e"/>
     <use x="639.876953" xlink:href="#DejaVuSans-20"/>
     <use x="671.664062" xlink:href="#DejaVuSans-31"/>
     <use x="735.287109" xlink:href="#DejaVuSans-30"/>
     <use x="798.910156" xlink:href="#DejaVuSans-30"/>
     <use x="862.533203" xlink:href="#DejaVuSans-2e"/>
     <use x="894.320312" xlink:href="#DejaVuSans-2e"/>
     <use x="926.107422" xlink:href="#DejaVuSans-31"/>
     <use x="989.730469" xlink:href="#DejaVuSans-65"/>
     <use x="1051.253906" xlink:href="#DejaVuSans-2d"/>
     <use x="1087.337891" xlink:href="#DejaVuSans-30"/>
     <use x="1150.960938" xlink:href="#DejaVuSans-38"/>
    </g>
    <!-- 15 instances -->
    <g transform="translate(76.684525 87.425723)scale(0.1666 -0.1666)">
     <use xlink:href="#DejaVuSans-31"/>
     <use x="63.623047" xlink:href="#DejaVuSans-35"/>
     <use x="127.246094" xlink:href="#DejaVuSans-20"/>
     <use x="159.033203" xlink:href="#DejaVuSans-69"/>
     <use x="186.816406" xlink:href="#DejaVuSans-6e"/>
     <use x="250.195312" xlink:href="#DejaVuSans-73"/>
     <use x="302.294922" xlink:href="#DejaVuSans-74"/>
     <use x="341.503906" xlink:href="#DejaVuSans-61"/>
     <use x="402.783203" xlink:href="#DejaVuSans-6e"/>
     <use x="466.162109" xlink:href="#DejaVuSans-63"/>
     <use x="521.142578" xlink:href="#DejaVuSans-65"/>
     <use x="582.666016" xlink:href="#DejaVuSans-73"/>
    </g>
   </g>
   <g id="text_21">
    <!-- v2.1 -->
    <g style="fill:#808080;" transform="translate(240.762388 293.504568)scale(0.1 -0.1)">
     <use xlink:href="#DejaVuSans-76"/>
     <use x="59.179688" xlink:href="#DejaVuSans-32"/>
     <use x="122.802734" xlink:href="#DejaVuSans-2e"/>
     <use x="154.589844" xlink:href="#DejaVuSans-31"/>
    </g>
   </g>
  </g>
 </g>
 <defs>
  <clipPath id="p44a9b61ae3">
   <rect height="266.112" width="357.12" x="73.113325" y="32.133375"/>
  </clipPath>
 </defs>
</svg>
