<?xml version="1.0" encoding="utf-8" standalone="no"?>
<!DOCTYPE svg PUBLIC "-//W3C//DTD SVG 1.1//EN"
  "http://www.w3.org/Graphics/SVG/1.1/DTD/svg11.dtd">
<!-- Created with matplotlib (http://matplotlib.org/) -->
<svg height="353pt" version="1.1" viewBox="0 0 438 353" width="438pt" xmlns="http://www.w3.org/2000/svg" xmlns:xlink="http://www.w3.org/1999/xlink">
 <defs>
  <style type="text/css">
*{stroke-linecap:butt;stroke-linejoin:round;}
  </style>
 </defs>
 <g id="figure_1">
  <g id="patch_1">
   <path d="M 0 353.22225 
L 438.62 353.22225 
L 438.62 0 
L 0 0 
z
" style="fill:#ffffff;"/>
  </g>
  <g id="axes_1">
   <g id="patch_2">
    <path d="M 70.8 298.245375 
L 427.92 298.245375 
L 427.92 32.133375 
L 70.8 32.133375 
z
" style="fill:#ffffff;"/>
   </g>
   <g id="matplotlib.axis_1">
    <g id="xtick_1">
     <g id="line2d_1">
      <path clip-path="url(#p6ad5a2adc0)" d="M 70.8 298.245375 
L 70.8 32.133375 
" style="fill:none;stroke:#b0b0b0;stroke-linecap:square;stroke-width:0.8;"/>
     </g>
     <g id="line2d_2">
      <defs>
       <path d="M 0 0 
L 0 3.5 
" id="mcb6c22ddb2" style="stroke:#000000;stroke-width:0.8;"/>
      </defs>
      <g>
       <use style="stroke:#000000;stroke-width:0.8;" x="70.8" xlink:href="#mcb6c22ddb2" y="298.245375"/>
      </g>
     </g>
     <g id="text_1">
      <!-- 0 -->
      <defs>
       <path d="M 31.78125 66.40625 
Q 24.171875 66.40625 20.328125 58.90625 
Q 16.5 51.421875 16.5 36.375 
Q 16.5 21.390625 20.328125 13.890625 
Q 24.171875 6.390625 31.78125 6.390625 
Q 39.453125 6.390625 43.28125 13.890625 
Q 47.125 21.390625 47.125 36.375 
Q 47.125 51.421875 43.28125 58.90625 
Q 39.453125 66.40625 31.78125 66.40625 
M 31.78125 74.21875 
Q 44.046875 74.21875 50.515625 64.515625 
Q 56.984375 54.828125 56.984375 36.375 
Q 56.984375 17.96875 50.515625 8.265625 
Q 44.046875 -1.421875 31.78125 -1.421875 
Q 19.53125 -1.421875 13.0625 8.265625 
Q 6.59375 17.96875 6.59375 36.375 
Q 6.59375 54.828125 13.0625 64.515625 
Q 19.53125 74.21875 31.78125 74.21875 
" id="DejaVuSans-30"/>
      </defs>
      <g transform="translate(64.4375 320.44225)scale(0.2 -0.2)">
       <use xlink:href="#DejaVuSans-30"/>
      </g>
     </g>
    </g>
    <g id="xtick_2">
     <g id="line2d_3">
      <path clip-path="url(#p6ad5a2adc0)" d="M 153.085714 298.245375 
L 153.085714 32.133375 
" style="fill:none;stroke:#b0b0b0;stroke-linecap:square;stroke-width:0.8;"/>
     </g>
     <g id="line2d_4">
      <g>
       <use style="stroke:#000000;stroke-width:0.8;" x="153.085714" xlink:href="#mcb6c22ddb2" y="298.245375"/>
      </g>
     </g>
     <g id="text_2">
      <!-- 2 -->
      <defs>
       <path d="M 19.1875 8.296875 
L 53.609375 8.296875 
L 53.609375 0 
L 7.328125 0 
L 7.328125 8.296875 
Q 12.9375 14.109375 22.625 23.890625 
Q 32.328125 33.6875 34.8125 36.53125 
Q 39.546875 41.84375 41.421875 45.53125 
Q 43.3125 49.21875 43.3125 52.78125 
Q 43.3125 58.59375 39.234375 62.25 
Q 35.15625 65.921875 28.609375 65.921875 
Q 23.96875 65.921875 18.8125 64.3125 
Q 13.671875 62.703125 7.8125 59.421875 
L 7.8125 69.390625 
Q 13.765625 71.78125 18.9375 73 
Q 24.125 74.21875 28.421875 74.21875 
Q 39.75 74.21875 46.484375 68.546875 
Q 53.21875 62.890625 53.21875 53.421875 
Q 53.21875 48.921875 51.53125 44.890625 
Q 49.859375 40.875 45.40625 35.40625 
Q 44.1875 33.984375 37.640625 27.21875 
Q 31.109375 20.453125 19.1875 8.296875 
" id="DejaVuSans-32"/>
      </defs>
      <g transform="translate(146.723214 320.44225)scale(0.2 -0.2)">
       <use xlink:href="#DejaVuSans-32"/>
      </g>
     </g>
    </g>
    <g id="xtick_3">
     <g id="line2d_5">
      <path clip-path="url(#p6ad5a2adc0)" d="M 235.371429 298.245375 
L 235.371429 32.133375 
" style="fill:none;stroke:#b0b0b0;stroke-linecap:square;stroke-width:0.8;"/>
     </g>
     <g id="line2d_6">
      <g>
       <use style="stroke:#000000;stroke-width:0.8;" x="235.371429" xlink:href="#mcb6c22ddb2" y="298.245375"/>
      </g>
     </g>
     <g id="text_3">
      <!-- 4 -->
      <defs>
       <path d="M 37.796875 64.3125 
L 12.890625 25.390625 
L 37.796875 25.390625 
z
M 35.203125 72.90625 
L 47.609375 72.90625 
L 47.609375 25.390625 
L 58.015625 25.390625 
L 58.015625 17.1875 
L 47.609375 17.1875 
L 47.609375 0 
L 37.796875 0 
L 37.796875 17.1875 
L 4.890625 17.1875 
L 4.890625 26.703125 
z
" id="DejaVuSans-34"/>
      </defs>
      <g transform="translate(229.008929 320.44225)scale(0.2 -0.2)">
       <use xlink:href="#DejaVuSans-34"/>
      </g>
     </g>
    </g>
    <g id="xtick_4">
     <g id="line2d_7">
      <path clip-path="url(#p6ad5a2adc0)" d="M 317.657143 298.245375 
L 317.657143 32.133375 
" style="fill:none;stroke:#b0b0b0;stroke-linecap:square;stroke-width:0.8;"/>
     </g>
     <g id="line2d_8">
      <g>
       <use style="stroke:#000000;stroke-width:0.8;" x="317.657143" xlink:href="#mcb6c22ddb2" y="298.245375"/>
      </g>
     </g>
     <g id="text_4">
      <!-- 6 -->
      <defs>
       <path d="M 33.015625 40.375 
Q 26.375 40.375 22.484375 35.828125 
Q 18.609375 31.296875 18.609375 23.390625 
Q 18.609375 15.53125 22.484375 10.953125 
Q 26.375 6.390625 33.015625 6.390625 
Q 39.65625 6.390625 43.53125 10.953125 
Q 47.40625 15.53125 47.40625 23.390625 
Q 47.40625 31.296875 43.53125 35.828125 
Q 39.65625 40.375 33.015625 40.375 
M 52.59375 71.296875 
L 52.59375 62.3125 
Q 48.875 64.0625 45.09375 64.984375 
Q 41.3125 65.921875 37.59375 65.921875 
Q 27.828125 65.921875 22.671875 59.328125 
Q 17.53125 52.734375 16.796875 39.40625 
Q 19.671875 43.65625 24.015625 45.921875 
Q 28.375 48.1875 33.59375 48.1875 
Q 44.578125 48.1875 50.953125 41.515625 
Q 57.328125 34.859375 57.328125 23.390625 
Q 57.328125 12.15625 50.6875 5.359375 
Q 44.046875 -1.421875 33.015625 -1.421875 
Q 20.359375 -1.421875 13.671875 8.265625 
Q 6.984375 17.96875 6.984375 36.375 
Q 6.984375 53.65625 15.1875 63.9375 
Q 23.390625 74.21875 37.203125 74.21875 
Q 40.921875 74.21875 44.703125 73.484375 
Q 48.484375 72.75 52.59375 71.296875 
" id="DejaVuSans-36"/>
      </defs>
      <g transform="translate(311.294643 320.44225)scale(0.2 -0.2)">
       <use xlink:href="#DejaVuSans-36"/>
      </g>
     </g>
    </g>
    <g id="xtick_5">
     <g id="line2d_9">
      <path clip-path="url(#p6ad5a2adc0)" d="M 399.942857 298.245375 
L 399.942857 32.133375 
" style="fill:none;stroke:#b0b0b0;stroke-linecap:square;stroke-width:0.8;"/>
     </g>
     <g id="line2d_10">
      <g>
       <use style="stroke:#000000;stroke-width:0.8;" x="399.942857" xlink:href="#mcb6c22ddb2" y="298.245375"/>
      </g>
     </g>
     <g id="text_5">
      <!-- 8 -->
      <defs>
       <path d="M 31.78125 34.625 
Q 24.75 34.625 20.71875 30.859375 
Q 16.703125 27.09375 16.703125 20.515625 
Q 16.703125 13.921875 20.71875 10.15625 
Q 24.75 6.390625 31.78125 6.390625 
Q 38.8125 6.390625 42.859375 10.171875 
Q 46.921875 13.96875 46.921875 20.515625 
Q 46.921875 27.09375 42.890625 30.859375 
Q 38.875 34.625 31.78125 34.625 
M 21.921875 38.8125 
Q 15.578125 40.375 12.03125 44.71875 
Q 8.5 49.078125 8.5 55.328125 
Q 8.5 64.0625 14.71875 69.140625 
Q 20.953125 74.21875 31.78125 74.21875 
Q 42.671875 74.21875 48.875 69.140625 
Q 55.078125 64.0625 55.078125 55.328125 
Q 55.078125 49.078125 51.53125 44.71875 
Q 48 40.375 41.703125 38.8125 
Q 48.828125 37.15625 52.796875 32.3125 
Q 56.78125 27.484375 56.78125 20.515625 
Q 56.78125 9.90625 50.3125 4.234375 
Q 43.84375 -1.421875 31.78125 -1.421875 
Q 19.734375 -1.421875 13.25 4.234375 
Q 6.78125 9.90625 6.78125 20.515625 
Q 6.78125 27.484375 10.78125 32.3125 
Q 14.796875 37.15625 21.921875 38.8125 
M 18.3125 54.390625 
Q 18.3125 48.734375 21.84375 45.5625 
Q 25.390625 42.390625 31.78125 42.390625 
Q 38.140625 42.390625 41.71875 45.5625 
Q 45.3125 48.734375 45.3125 54.390625 
Q 45.3125 60.0625 41.71875 63.234375 
Q 38.140625 66.40625 31.78125 66.40625 
Q 25.390625 66.40625 21.84375 63.234375 
Q 18.3125 60.0625 18.3125 54.390625 
" id="DejaVuSans-38"/>
      </defs>
      <g transform="translate(393.580357 320.44225)scale(0.2 -0.2)">
       <use xlink:href="#DejaVuSans-38"/>
      </g>
     </g>
    </g>
    <g id="xtick_6">
     <g id="line2d_11">
      <defs>
       <path d="M 0 0 
L 0 2 
" id="mfee3fa14c9" style="stroke:#000000;stroke-width:0.6;"/>
      </defs>
      <g>
       <use style="stroke:#000000;stroke-width:0.6;" x="83.185234" xlink:href="#mfee3fa14c9" y="298.245375"/>
      </g>
     </g>
    </g>
    <g id="xtick_7">
     <g id="line2d_12">
      <g>
       <use style="stroke:#000000;stroke-width:0.6;" x="95.570468" xlink:href="#mfee3fa14c9" y="298.245375"/>
      </g>
     </g>
    </g>
    <g id="xtick_8">
     <g id="line2d_13">
      <g>
       <use style="stroke:#000000;stroke-width:0.6;" x="102.815366" xlink:href="#mfee3fa14c9" y="298.245375"/>
      </g>
     </g>
    </g>
    <g id="xtick_9">
     <g id="line2d_14">
      <g>
       <use style="stroke:#000000;stroke-width:0.6;" x="107.955702" xlink:href="#mfee3fa14c9" y="298.245375"/>
      </g>
     </g>
    </g>
    <g id="xtick_10">
     <g id="line2d_15">
      <g>
       <use style="stroke:#000000;stroke-width:0.6;" x="165.470948" xlink:href="#mfee3fa14c9" y="298.245375"/>
      </g>
     </g>
    </g>
    <g id="xtick_11">
     <g id="line2d_16">
      <g>
       <use style="stroke:#000000;stroke-width:0.6;" x="177.856183" xlink:href="#mfee3fa14c9" y="298.245375"/>
      </g>
     </g>
    </g>
    <g id="xtick_12">
     <g id="line2d_17">
      <g>
       <use style="stroke:#000000;stroke-width:0.6;" x="185.10108" xlink:href="#mfee3fa14c9" y="298.245375"/>
      </g>
     </g>
    </g>
    <g id="xtick_13">
     <g id="line2d_18">
      <g>
       <use style="stroke:#000000;stroke-width:0.6;" x="190.241417" xlink:href="#mfee3fa14c9" y="298.245375"/>
      </g>
     </g>
    </g>
    <g id="xtick_14">
     <g id="line2d_19">
      <g>
       <use style="stroke:#000000;stroke-width:0.6;" x="247.756663" xlink:href="#mfee3fa14c9" y="298.245375"/>
      </g>
     </g>
    </g>
    <g id="xtick_15">
     <g id="line2d_20">
      <g>
       <use style="stroke:#000000;stroke-width:0.6;" x="260.141897" xlink:href="#mfee3fa14c9" y="298.245375"/>
      </g>
     </g>
    </g>
    <g id="xtick_16">
     <g id="line2d_21">
      <g>
       <use style="stroke:#000000;stroke-width:0.6;" x="267.386794" xlink:href="#mfee3fa14c9" y="298.245375"/>
      </g>
     </g>
    </g>
    <g id="xtick_17">
     <g id="line2d_22">
      <g>
       <use style="stroke:#000000;stroke-width:0.6;" x="272.527131" xlink:href="#mfee3fa14c9" y="298.245375"/>
      </g>
     </g>
    </g>
    <g id="xtick_18">
     <g id="line2d_23">
      <g>
       <use style="stroke:#000000;stroke-width:0.6;" x="330.042377" xlink:href="#mfee3fa14c9" y="298.245375"/>
      </g>
     </g>
    </g>
    <g id="xtick_19">
     <g id="line2d_24">
      <g>
       <use style="stroke:#000000;stroke-width:0.6;" x="342.427611" xlink:href="#mfee3fa14c9" y="298.245375"/>
      </g>
     </g>
    </g>
    <g id="xtick_20">
     <g id="line2d_25">
      <g>
       <use style="stroke:#000000;stroke-width:0.6;" x="349.672509" xlink:href="#mfee3fa14c9" y="298.245375"/>
      </g>
     </g>
    </g>
    <g id="xtick_21">
     <g id="line2d_26">
      <g>
       <use style="stroke:#000000;stroke-width:0.6;" x="354.812845" xlink:href="#mfee3fa14c9" y="298.245375"/>
      </g>
     </g>
    </g>
    <g id="xtick_22">
     <g id="line2d_27">
      <g>
       <use style="stroke:#000000;stroke-width:0.6;" x="412.328091" xlink:href="#mfee3fa14c9" y="298.245375"/>
      </g>
     </g>
    </g>
    <g id="xtick_23">
     <g id="line2d_28">
      <g>
       <use style="stroke:#000000;stroke-width:0.6;" x="424.713325" xlink:href="#mfee3fa14c9" y="298.245375"/>
      </g>
     </g>
    </g>
    <g id="text_6">
     <!-- log10 of (# f-evals / dimension) -->
     <defs>
      <path d="M 9.421875 75.984375 
L 18.40625 75.984375 
L 18.40625 0 
L 9.421875 0 
z
" id="DejaVuSans-6c"/>
      <path d="M 30.609375 48.390625 
Q 23.390625 48.390625 19.1875 42.75 
Q 14.984375 37.109375 14.984375 27.296875 
Q 14.984375 17.484375 19.15625 11.84375 
Q 23.34375 6.203125 30.609375 6.203125 
Q 37.796875 6.203125 41.984375 11.859375 
Q 46.1875 17.53125 46.1875 27.296875 
Q 46.1875 37.015625 41.984375 42.703125 
Q 37.796875 48.390625 30.609375 48.390625 
M 30.609375 56 
Q 42.328125 56 49.015625 48.375 
Q 55.71875 40.765625 55.71875 27.296875 
Q 55.71875 13.875 49.015625 6.21875 
Q 42.328125 -1.421875 30.609375 -1.421875 
Q 18.84375 -1.421875 12.171875 6.21875 
Q 5.515625 13.875 5.515625 27.296875 
Q 5.515625 40.765625 12.171875 48.375 
Q 18.84375 56 30.609375 56 
" id="DejaVuSans-6f"/>
      <path d="M 45.40625 27.984375 
Q 45.40625 37.75 41.375 43.109375 
Q 37.359375 48.484375 30.078125 48.484375 
Q 22.859375 48.484375 18.828125 43.109375 
Q 14.796875 37.75 14.796875 27.984375 
Q 14.796875 18.265625 18.828125 12.890625 
Q 22.859375 7.515625 30.078125 7.515625 
Q 37.359375 7.515625 41.375 12.890625 
Q 45.40625 18.265625 45.40625 27.984375 
M 54.390625 6.78125 
Q 54.390625 -7.171875 48.1875 -13.984375 
Q 42 -20.796875 29.203125 -20.796875 
Q 24.46875 -20.796875 20.265625 -20.09375 
Q 16.0625 -19.390625 12.109375 -17.921875 
L 12.109375 -9.1875 
Q 16.0625 -11.328125 19.921875 -12.34375 
Q 23.78125 -13.375 27.78125 -13.375 
Q 36.625 -13.375 41.015625 -8.765625 
Q 45.40625 -4.15625 45.40625 5.171875 
L 45.40625 9.625 
Q 42.625 4.78125 38.28125 2.390625 
Q 33.9375 0 27.875 0 
Q 17.828125 0 11.671875 7.65625 
Q 5.515625 15.328125 5.515625 27.984375 
Q 5.515625 40.671875 11.671875 48.328125 
Q 17.828125 56 27.875 56 
Q 33.9375 56 38.28125 53.609375 
Q 42.625 51.21875 45.40625 46.390625 
L 45.40625 54.6875 
L 54.390625 54.6875 
z
" id="DejaVuSans-67"/>
      <path d="M 12.40625 8.296875 
L 28.515625 8.296875 
L 28.515625 63.921875 
L 10.984375 60.40625 
L 10.984375 69.390625 
L 28.421875 72.90625 
L 38.28125 72.90625 
L 38.28125 8.296875 
L 54.390625 8.296875 
L 54.390625 0 
L 12.40625 0 
z
" id="DejaVuSans-31"/>
      <path id="DejaVuSans-20"/>
      <path d="M 37.109375 75.984375 
L 37.109375 68.5 
L 28.515625 68.5 
Q 23.6875 68.5 21.796875 66.546875 
Q 19.921875 64.59375 19.921875 59.515625 
L 19.921875 54.6875 
L 34.71875 54.6875 
L 34.71875 47.703125 
L 19.921875 47.703125 
L 19.921875 0 
L 10.890625 0 
L 10.890625 47.703125 
L 2.296875 47.703125 
L 2.296875 54.6875 
L 10.890625 54.6875 
L 10.890625 58.5 
Q 10.890625 67.625 15.140625 71.796875 
Q 19.390625 75.984375 28.609375 75.984375 
z
" id="DejaVuSans-66"/>
      <path d="M 31 75.875 
Q 24.46875 64.65625 21.28125 53.65625 
Q 18.109375 42.671875 18.109375 31.390625 
Q 18.109375 20.125 21.3125 9.0625 
Q 24.515625 -2 31 -13.1875 
L 23.1875 -13.1875 
Q 15.875 -1.703125 12.234375 9.375 
Q 8.59375 20.453125 8.59375 31.390625 
Q 8.59375 42.28125 12.203125 53.3125 
Q 15.828125 64.359375 23.1875 75.875 
z
" id="DejaVuSans-28"/>
      <path d="M 51.125 44 
L 36.921875 44 
L 32.8125 27.6875 
L 47.125 27.6875 
z
M 43.796875 71.78125 
L 38.71875 51.515625 
L 52.984375 51.515625 
L 58.109375 71.78125 
L 65.921875 71.78125 
L 60.890625 51.515625 
L 76.125 51.515625 
L 76.125 44 
L 58.984375 44 
L 54.984375 27.6875 
L 70.515625 27.6875 
L 70.515625 20.21875 
L 53.078125 20.21875 
L 48 0 
L 40.1875 0 
L 45.21875 20.21875 
L 30.90625 20.21875 
L 25.875 0 
L 18.015625 0 
L 23.09375 20.21875 
L 7.71875 20.21875 
L 7.71875 27.6875 
L 24.90625 27.6875 
L 29 44 
L 13.28125 44 
L 13.28125 51.515625 
L 30.90625 51.515625 
L 35.890625 71.78125 
z
" id="DejaVuSans-23"/>
      <path d="M 4.890625 31.390625 
L 31.203125 31.390625 
L 31.203125 23.390625 
L 4.890625 23.390625 
z
" id="DejaVuSans-2d"/>
      <path d="M 56.203125 29.59375 
L 56.203125 25.203125 
L 14.890625 25.203125 
Q 15.484375 15.921875 20.484375 11.0625 
Q 25.484375 6.203125 34.421875 6.203125 
Q 39.59375 6.203125 44.453125 7.46875 
Q 49.3125 8.734375 54.109375 11.28125 
L 54.109375 2.78125 
Q 49.265625 0.734375 44.1875 -0.34375 
Q 39.109375 -1.421875 33.890625 -1.421875 
Q 20.796875 -1.421875 13.15625 6.1875 
Q 5.515625 13.8125 5.515625 26.8125 
Q 5.515625 40.234375 12.765625 48.109375 
Q 20.015625 56 32.328125 56 
Q 43.359375 56 49.78125 48.890625 
Q 56.203125 41.796875 56.203125 29.59375 
M 47.21875 32.234375 
Q 47.125 39.59375 43.09375 43.984375 
Q 39.0625 48.390625 32.421875 48.390625 
Q 24.90625 48.390625 20.390625 44.140625 
Q 15.875 39.890625 15.1875 32.171875 
z
" id="DejaVuSans-65"/>
      <path d="M 2.984375 54.6875 
L 12.5 54.6875 
L 29.59375 8.796875 
L 46.6875 54.6875 
L 56.203125 54.6875 
L 35.6875 0 
L 23.484375 0 
z
" id="DejaVuSans-76"/>
      <path d="M 34.28125 27.484375 
Q 23.390625 27.484375 19.1875 25 
Q 14.984375 22.515625 14.984375 16.5 
Q 14.984375 11.71875 18.140625 8.90625 
Q 21.296875 6.109375 26.703125 6.109375 
Q 34.1875 6.109375 38.703125 11.40625 
Q 43.21875 16.703125 43.21875 25.484375 
L 43.21875 27.484375 
z
M 52.203125 31.203125 
L 52.203125 0 
L 43.21875 0 
L 43.21875 8.296875 
Q 40.140625 3.328125 35.546875 0.953125 
Q 30.953125 -1.421875 24.3125 -1.421875 
Q 15.921875 -1.421875 10.953125 3.296875 
Q 6 8.015625 6 15.921875 
Q 6 25.140625 12.171875 29.828125 
Q 18.359375 34.515625 30.609375 34.515625 
L 43.21875 34.515625 
L 43.21875 35.40625 
Q 43.21875 41.609375 39.140625 45 
Q 35.0625 48.390625 27.6875 48.390625 
Q 23 48.390625 18.546875 47.265625 
Q 14.109375 46.140625 10.015625 43.890625 
L 10.015625 52.203125 
Q 14.9375 54.109375 19.578125 55.046875 
Q 24.21875 56 28.609375 56 
Q 40.484375 56 46.34375 49.84375 
Q 52.203125 43.703125 52.203125 31.203125 
" id="DejaVuSans-61"/>
      <path d="M 44.28125 53.078125 
L 44.28125 44.578125 
Q 40.484375 46.53125 36.375 47.5 
Q 32.28125 48.484375 27.875 48.484375 
Q 21.1875 48.484375 17.84375 46.4375 
Q 14.5 44.390625 14.5 40.28125 
Q 14.5 37.15625 16.890625 35.375 
Q 19.28125 33.59375 26.515625 31.984375 
L 29.59375 31.296875 
Q 39.15625 29.25 43.1875 25.515625 
Q 47.21875 21.78125 47.21875 15.09375 
Q 47.21875 7.46875 41.1875 3.015625 
Q 35.15625 -1.421875 24.609375 -1.421875 
Q 20.21875 -1.421875 15.453125 -0.5625 
Q 10.6875 0.296875 5.421875 2 
L 5.421875 11.28125 
Q 10.40625 8.6875 15.234375 7.390625 
Q 20.0625 6.109375 24.8125 6.109375 
Q 31.15625 6.109375 34.5625 8.28125 
Q 37.984375 10.453125 37.984375 14.40625 
Q 37.984375 18.0625 35.515625 20.015625 
Q 33.0625 21.96875 24.703125 23.78125 
L 21.578125 24.515625 
Q 13.234375 26.265625 9.515625 29.90625 
Q 5.8125 33.546875 5.8125 39.890625 
Q 5.8125 47.609375 11.28125 51.796875 
Q 16.75 56 26.8125 56 
Q 31.78125 56 36.171875 55.265625 
Q 40.578125 54.546875 44.28125 53.078125 
" id="DejaVuSans-73"/>
      <path d="M 25.390625 72.90625 
L 33.6875 72.90625 
L 8.296875 -9.28125 
L 0 -9.28125 
z
" id="DejaVuSans-2f"/>
      <path d="M 45.40625 46.390625 
L 45.40625 75.984375 
L 54.390625 75.984375 
L 54.390625 0 
L 45.40625 0 
L 45.40625 8.203125 
Q 42.578125 3.328125 38.25 0.953125 
Q 33.9375 -1.421875 27.875 -1.421875 
Q 17.96875 -1.421875 11.734375 6.484375 
Q 5.515625 14.40625 5.515625 27.296875 
Q 5.515625 40.1875 11.734375 48.09375 
Q 17.96875 56 27.875 56 
Q 33.9375 56 38.25 53.625 
Q 42.578125 51.265625 45.40625 46.390625 
M 14.796875 27.296875 
Q 14.796875 17.390625 18.875 11.75 
Q 22.953125 6.109375 30.078125 6.109375 
Q 37.203125 6.109375 41.296875 11.75 
Q 45.40625 17.390625 45.40625 27.296875 
Q 45.40625 37.203125 41.296875 42.84375 
Q 37.203125 48.484375 30.078125 48.484375 
Q 22.953125 48.484375 18.875 42.84375 
Q 14.796875 37.203125 14.796875 27.296875 
" id="DejaVuSans-64"/>
      <path d="M 9.421875 54.6875 
L 18.40625 54.6875 
L 18.40625 0 
L 9.421875 0 
z
M 9.421875 75.984375 
L 18.40625 75.984375 
L 18.40625 64.59375 
L 9.421875 64.59375 
z
" id="DejaVuSans-69"/>
      <path d="M 52 44.1875 
Q 55.375 50.25 60.0625 53.125 
Q 64.75 56 71.09375 56 
Q 79.640625 56 84.28125 50.015625 
Q 88.921875 44.046875 88.921875 33.015625 
L 88.921875 0 
L 79.890625 0 
L 79.890625 32.71875 
Q 79.890625 40.578125 77.09375 44.375 
Q 74.3125 48.1875 68.609375 48.1875 
Q 61.625 48.1875 57.5625 43.546875 
Q 53.515625 38.921875 53.515625 30.90625 
L 53.515625 0 
L 44.484375 0 
L 44.484375 32.71875 
Q 44.484375 40.625 41.703125 44.40625 
Q 38.921875 48.1875 33.109375 48.1875 
Q 26.21875 48.1875 22.15625 43.53125 
Q 18.109375 38.875 18.109375 30.90625 
L 18.109375 0 
L 9.078125 0 
L 9.078125 54.6875 
L 18.109375 54.6875 
L 18.109375 46.1875 
Q 21.1875 51.21875 25.484375 53.609375 
Q 29.78125 56 35.6875 56 
Q 41.65625 56 45.828125 52.96875 
Q 50 49.953125 52 44.1875 
" id="DejaVuSans-6d"/>
      <path d="M 54.890625 33.015625 
L 54.890625 0 
L 45.90625 0 
L 45.90625 32.71875 
Q 45.90625 40.484375 42.875 44.328125 
Q 39.84375 48.1875 33.796875 48.1875 
Q 26.515625 48.1875 22.3125 43.546875 
Q 18.109375 38.921875 18.109375 30.90625 
L 18.109375 0 
L 9.078125 0 
L 9.078125 54.6875 
L 18.109375 54.6875 
L 18.109375 46.1875 
Q 21.34375 51.125 25.703125 53.5625 
Q 30.078125 56 35.796875 56 
Q 45.21875 56 50.046875 50.171875 
Q 54.890625 44.34375 54.890625 33.015625 
" id="DejaVuSans-6e"/>
      <path d="M 8.015625 75.875 
L 15.828125 75.875 
Q 23.140625 64.359375 26.78125 53.3125 
Q 30.421875 42.28125 30.421875 31.390625 
Q 30.421875 20.453125 26.78125 9.375 
Q 23.140625 -1.703125 15.828125 -13.1875 
L 8.015625 -13.1875 
Q 14.5 -2 17.703125 9.0625 
Q 20.90625 20.125 20.90625 31.390625 
Q 20.90625 42.671875 17.703125 53.65625 
Q 14.5 64.65625 8.015625 75.875 
" id="DejaVuSans-29"/>
     </defs>
     <g transform="translate(107.015156 342.278812)scale(0.18 -0.18)">
      <use xlink:href="#DejaVuSans-6c"/>
      <use x="27.783203" xlink:href="#DejaVuSans-6f"/>
      <use x="88.964844" xlink:href="#DejaVuSans-67"/>
      <use x="152.441406" xlink:href="#DejaVuSans-31"/>
      <use x="216.064453" xlink:href="#DejaVuSans-30"/>
      <use x="279.6875" xlink:href="#DejaVuSans-20"/>
      <use x="311.474609" xlink:href="#DejaVuSans-6f"/>
      <use x="372.65625" xlink:href="#DejaVuSans-66"/>
      <use x="407.861328" xlink:href="#DejaVuSans-20"/>
      <use x="439.648438" xlink:href="#DejaVuSans-28"/>
      <use x="478.662109" xlink:href="#DejaVuSans-23"/>
      <use x="562.451172" xlink:href="#DejaVuSans-20"/>
      <use x="594.238281" xlink:href="#DejaVuSans-66"/>
      <use x="629.365234" xlink:href="#DejaVuSans-2d"/>
      <use x="665.449219" xlink:href="#DejaVuSans-65"/>
      <use x="726.972656" xlink:href="#DejaVuSans-76"/>
      <use x="786.152344" xlink:href="#DejaVuSans-61"/>
      <use x="847.431641" xlink:href="#DejaVuSans-6c"/>
      <use x="875.214844" xlink:href="#DejaVuSans-73"/>
      <use x="927.314453" xlink:href="#DejaVuSans-20"/>
      <use x="959.101562" xlink:href="#DejaVuSans-2f"/>
      <use x="992.792969" xlink:href="#DejaVuSans-20"/>
      <use x="1024.580078" xlink:href="#DejaVuSans-64"/>
      <use x="1088.056641" xlink:href="#DejaVuSans-69"/>
      <use x="1115.839844" xlink:href="#DejaVuSans-6d"/>
      <use x="1213.251953" xlink:href="#DejaVuSans-65"/>
      <use x="1274.775391" xlink:href="#DejaVuSans-6e"/>
      <use x="1338.154297" xlink:href="#DejaVuSans-73"/>
      <use x="1390.253906" xlink:href="#DejaVuSans-69"/>
      <use x="1418.037109" xlink:href="#DejaVuSans-6f"/>
      <use x="1479.21875" xlink:href="#DejaVuSans-6e"/>
      <use x="1542.597656" xlink:href="#DejaVuSans-29"/>
     </g>
    </g>
   </g>
   <g id="matplotlib.axis_2">
    <g id="ytick_1">
     <g id="line2d_29">
      <path clip-path="url(#p6ad5a2adc0)" d="M 70.8 298.245375 
L 427.92 298.245375 
" style="fill:none;stroke:#b0b0b0;stroke-linecap:square;stroke-width:0.8;"/>
     </g>
     <g id="line2d_30">
      <defs>
       <path d="M 0 0 
L -3.5 0 
" id="m727f0fa1f9" style="stroke:#000000;stroke-width:0.8;"/>
      </defs>
      <g>
       <use style="stroke:#000000;stroke-width:0.8;" x="70.8" xlink:href="#m727f0fa1f9" y="298.245375"/>
      </g>
     </g>
     <g id="text_7">
      <!-- 0.0 -->
      <defs>
       <path d="M 10.6875 12.40625 
L 21 12.40625 
L 21 0 
L 10.6875 0 
z
" id="DejaVuSans-2e"/>
      </defs>
      <g transform="translate(31.99375 305.843812)scale(0.2 -0.2)">
       <use xlink:href="#DejaVuSans-30"/>
       <use x="63.623047" xlink:href="#DejaVuSans-2e"/>
       <use x="95.410156" xlink:href="#DejaVuSans-30"/>
      </g>
     </g>
    </g>
    <g id="ytick_2">
     <g id="line2d_31">
      <path clip-path="url(#p6ad5a2adc0)" d="M 70.8 245.549929 
L 427.92 245.549929 
" style="fill:none;stroke:#b0b0b0;stroke-linecap:square;stroke-width:0.8;"/>
     </g>
     <g id="line2d_32">
      <g>
       <use style="stroke:#000000;stroke-width:0.8;" x="70.8" xlink:href="#m727f0fa1f9" y="245.549929"/>
      </g>
     </g>
     <g id="text_8">
      <!-- 0.2 -->
      <g transform="translate(31.99375 253.148367)scale(0.2 -0.2)">
       <use xlink:href="#DejaVuSans-30"/>
       <use x="63.623047" xlink:href="#DejaVuSans-2e"/>
       <use x="95.410156" xlink:href="#DejaVuSans-32"/>
      </g>
     </g>
    </g>
    <g id="ytick_3">
     <g id="line2d_33">
      <path clip-path="url(#p6ad5a2adc0)" d="M 70.8 192.854484 
L 427.92 192.854484 
" style="fill:none;stroke:#b0b0b0;stroke-linecap:square;stroke-width:0.8;"/>
     </g>
     <g id="line2d_34">
      <g>
       <use style="stroke:#000000;stroke-width:0.8;" x="70.8" xlink:href="#m727f0fa1f9" y="192.854484"/>
      </g>
     </g>
     <g id="text_9">
      <!-- 0.4 -->
      <g transform="translate(31.99375 200.452921)scale(0.2 -0.2)">
       <use xlink:href="#DejaVuSans-30"/>
       <use x="63.623047" xlink:href="#DejaVuSans-2e"/>
       <use x="95.410156" xlink:href="#DejaVuSans-34"/>
      </g>
     </g>
    </g>
    <g id="ytick_4">
     <g id="line2d_35">
      <path clip-path="url(#p6ad5a2adc0)" d="M 70.8 140.159038 
L 427.92 140.159038 
" style="fill:none;stroke:#b0b0b0;stroke-linecap:square;stroke-width:0.8;"/>
     </g>
     <g id="line2d_36">
      <g>
       <use style="stroke:#000000;stroke-width:0.8;" x="70.8" xlink:href="#m727f0fa1f9" y="140.159038"/>
      </g>
     </g>
     <g id="text_10">
      <!-- 0.6 -->
      <g transform="translate(31.99375 147.757476)scale(0.2 -0.2)">
       <use xlink:href="#DejaVuSans-30"/>
       <use x="63.623047" xlink:href="#DejaVuSans-2e"/>
       <use x="95.410156" xlink:href="#DejaVuSans-36"/>
      </g>
     </g>
    </g>
    <g id="ytick_5">
     <g id="line2d_37">
      <path clip-path="url(#p6ad5a2adc0)" d="M 70.8 87.463593 
L 427.92 87.463593 
" style="fill:none;stroke:#b0b0b0;stroke-linecap:square;stroke-width:0.8;"/>
     </g>
     <g id="line2d_38">
      <g>
       <use style="stroke:#000000;stroke-width:0.8;" x="70.8" xlink:href="#m727f0fa1f9" y="87.463593"/>
      </g>
     </g>
     <g id="text_11">
      <!-- 0.8 -->
      <g transform="translate(31.99375 95.06203)scale(0.2 -0.2)">
       <use xlink:href="#DejaVuSans-30"/>
       <use x="63.623047" xlink:href="#DejaVuSans-2e"/>
       <use x="95.410156" xlink:href="#DejaVuSans-38"/>
      </g>
     </g>
    </g>
    <g id="ytick_6">
     <g id="line2d_39">
      <path clip-path="url(#p6ad5a2adc0)" d="M 70.8 34.768147 
L 427.92 34.768147 
" style="fill:none;stroke:#b0b0b0;stroke-linecap:square;stroke-width:0.8;"/>
     </g>
     <g id="line2d_40">
      <g>
       <use style="stroke:#000000;stroke-width:0.8;" x="70.8" xlink:href="#m727f0fa1f9" y="34.768147"/>
      </g>
     </g>
     <g id="text_12">
      <!-- 1.0 -->
      <g transform="translate(31.99375 42.366585)scale(0.2 -0.2)">
       <use xlink:href="#DejaVuSans-31"/>
       <use x="63.623047" xlink:href="#DejaVuSans-2e"/>
       <use x="95.410156" xlink:href="#DejaVuSans-30"/>
      </g>
     </g>
    </g>
    <g id="text_13">
     <!-- Proportion of function+target pairs -->
     <defs>
      <path d="M 19.671875 64.796875 
L 19.671875 37.40625 
L 32.078125 37.40625 
Q 38.96875 37.40625 42.71875 40.96875 
Q 46.484375 44.53125 46.484375 51.125 
Q 46.484375 57.671875 42.71875 61.234375 
Q 38.96875 64.796875 32.078125 64.796875 
z
M 9.8125 72.90625 
L 32.078125 72.90625 
Q 44.34375 72.90625 50.609375 67.359375 
Q 56.890625 61.8125 56.890625 51.125 
Q 56.890625 40.328125 50.609375 34.8125 
Q 44.34375 29.296875 32.078125 29.296875 
L 19.671875 29.296875 
L 19.671875 0 
L 9.8125 0 
z
" id="DejaVuSans-50"/>
      <path d="M 41.109375 46.296875 
Q 39.59375 47.171875 37.8125 47.578125 
Q 36.03125 48 33.890625 48 
Q 26.265625 48 22.1875 43.046875 
Q 18.109375 38.09375 18.109375 28.8125 
L 18.109375 0 
L 9.078125 0 
L 9.078125 54.6875 
L 18.109375 54.6875 
L 18.109375 46.1875 
Q 20.953125 51.171875 25.484375 53.578125 
Q 30.03125 56 36.53125 56 
Q 37.453125 56 38.578125 55.875 
Q 39.703125 55.765625 41.0625 55.515625 
z
" id="DejaVuSans-72"/>
      <path d="M 18.109375 8.203125 
L 18.109375 -20.796875 
L 9.078125 -20.796875 
L 9.078125 54.6875 
L 18.109375 54.6875 
L 18.109375 46.390625 
Q 20.953125 51.265625 25.265625 53.625 
Q 29.59375 56 35.59375 56 
Q 45.5625 56 51.78125 48.09375 
Q 58.015625 40.1875 58.015625 27.296875 
Q 58.015625 14.40625 51.78125 6.484375 
Q 45.5625 -1.421875 35.59375 -1.421875 
Q 29.59375 -1.421875 25.265625 0.953125 
Q 20.953125 3.328125 18.109375 8.203125 
M 48.6875 27.296875 
Q 48.6875 37.203125 44.609375 42.84375 
Q 40.53125 48.484375 33.40625 48.484375 
Q 26.265625 48.484375 22.1875 42.84375 
Q 18.109375 37.203125 18.109375 27.296875 
Q 18.109375 17.390625 22.1875 11.75 
Q 26.265625 6.109375 33.40625 6.109375 
Q 40.53125 6.109375 44.609375 11.75 
Q 48.6875 17.390625 48.6875 27.296875 
" id="DejaVuSans-70"/>
      <path d="M 18.3125 70.21875 
L 18.3125 54.6875 
L 36.8125 54.6875 
L 36.8125 47.703125 
L 18.3125 47.703125 
L 18.3125 18.015625 
Q 18.3125 11.328125 20.140625 9.421875 
Q 21.96875 7.515625 27.59375 7.515625 
L 36.8125 7.515625 
L 36.8125 0 
L 27.59375 0 
Q 17.1875 0 13.234375 3.875 
Q 9.28125 7.765625 9.28125 18.015625 
L 9.28125 47.703125 
L 2.6875 47.703125 
L 2.6875 54.6875 
L 9.28125 54.6875 
L 9.28125 70.21875 
z
" id="DejaVuSans-74"/>
      <path d="M 8.5 21.578125 
L 8.5 54.6875 
L 17.484375 54.6875 
L 17.484375 21.921875 
Q 17.484375 14.15625 20.5 10.265625 
Q 23.53125 6.390625 29.59375 6.390625 
Q 36.859375 6.390625 41.078125 11.03125 
Q 45.3125 15.671875 45.3125 23.6875 
L 45.3125 54.6875 
L 54.296875 54.6875 
L 54.296875 0 
L 45.3125 0 
L 45.3125 8.40625 
Q 42.046875 3.421875 37.71875 1 
Q 33.40625 -1.421875 27.6875 -1.421875 
Q 18.265625 -1.421875 13.375 4.4375 
Q 8.5 10.296875 8.5 21.578125 
M 31.109375 56 
z
" id="DejaVuSans-75"/>
      <path d="M 48.78125 52.59375 
L 48.78125 44.1875 
Q 44.96875 46.296875 41.140625 47.34375 
Q 37.3125 48.390625 33.40625 48.390625 
Q 24.65625 48.390625 19.8125 42.84375 
Q 14.984375 37.3125 14.984375 27.296875 
Q 14.984375 17.28125 19.8125 11.734375 
Q 24.65625 6.203125 33.40625 6.203125 
Q 37.3125 6.203125 41.140625 7.25 
Q 44.96875 8.296875 48.78125 10.40625 
L 48.78125 2.09375 
Q 45.015625 0.34375 40.984375 -0.53125 
Q 36.96875 -1.421875 32.421875 -1.421875 
Q 20.0625 -1.421875 12.78125 6.34375 
Q 5.515625 14.109375 5.515625 27.296875 
Q 5.515625 40.671875 12.859375 48.328125 
Q 20.21875 56 33.015625 56 
Q 37.15625 56 41.109375 55.140625 
Q 45.0625 54.296875 48.78125 52.59375 
" id="DejaVuSans-63"/>
      <path d="M 46 62.703125 
L 46 35.5 
L 73.1875 35.5 
L 73.1875 27.203125 
L 46 27.203125 
L 46 0 
L 37.796875 0 
L 37.796875 27.203125 
L 10.59375 27.203125 
L 10.59375 35.5 
L 37.796875 35.5 
L 37.796875 62.703125 
z
" id="DejaVuSans-2b"/>
     </defs>
     <g transform="translate(24.250312 323.17875)rotate(-90)scale(0.18 -0.18)">
      <use xlink:href="#DejaVuSans-50"/>
      <use x="60.287109" xlink:href="#DejaVuSans-72"/>
      <use x="101.369141" xlink:href="#DejaVuSans-6f"/>
      <use x="162.550781" xlink:href="#DejaVuSans-70"/>
      <use x="226.027344" xlink:href="#DejaVuSans-6f"/>
      <use x="287.208984" xlink:href="#DejaVuSans-72"/>
      <use x="328.322266" xlink:href="#DejaVuSans-74"/>
      <use x="367.53125" xlink:href="#DejaVuSans-69"/>
      <use x="395.314453" xlink:href="#DejaVuSans-6f"/>
      <use x="456.496094" xlink:href="#DejaVuSans-6e"/>
      <use x="519.875" xlink:href="#DejaVuSans-20"/>
      <use x="551.662109" xlink:href="#DejaVuSans-6f"/>
      <use x="612.84375" xlink:href="#DejaVuSans-66"/>
      <use x="648.048828" xlink:href="#DejaVuSans-20"/>
      <use x="679.835938" xlink:href="#DejaVuSans-66"/>
      <use x="715.041016" xlink:href="#DejaVuSans-75"/>
      <use x="778.419922" xlink:href="#DejaVuSans-6e"/>
      <use x="841.798828" xlink:href="#DejaVuSans-63"/>
      <use x="896.779297" xlink:href="#DejaVuSans-74"/>
      <use x="935.988281" xlink:href="#DejaVuSans-69"/>
      <use x="963.771484" xlink:href="#DejaVuSans-6f"/>
      <use x="1024.953125" xlink:href="#DejaVuSans-6e"/>
      <use x="1088.332031" xlink:href="#DejaVuSans-2b"/>
      <use x="1172.121094" xlink:href="#DejaVuSans-74"/>
      <use x="1211.330078" xlink:href="#DejaVuSans-61"/>
      <use x="1272.609375" xlink:href="#DejaVuSans-72"/>
      <use x="1313.707031" xlink:href="#DejaVuSans-67"/>
      <use x="1377.183594" xlink:href="#DejaVuSans-65"/>
      <use x="1438.707031" xlink:href="#DejaVuSans-74"/>
      <use x="1477.916016" xlink:href="#DejaVuSans-20"/>
      <use x="1509.703125" xlink:href="#DejaVuSans-70"/>
      <use x="1573.179688" xlink:href="#DejaVuSans-61"/>
      <use x="1634.458984" xlink:href="#DejaVuSans-69"/>
      <use x="1662.242188" xlink:href="#DejaVuSans-72"/>
      <use x="1703.355469" xlink:href="#DejaVuSans-73"/>
     </g>
    </g>
   </g>
   <g id="line2d_41">
    <defs>
     <path d="M 0 1.5 
C 0.397805 1.5 0.77937 1.341951 1.06066 1.06066 
C 1.341951 0.77937 1.5 0.397805 1.5 0 
C 1.5 -0.397805 1.341951 -0.77937 1.06066 -1.06066 
C 0.77937 -1.341951 0.397805 -1.5 0 -1.5 
C -0.397805 -1.5 -0.77937 -1.341951 -1.06066 -1.06066 
C -1.341951 -0.77937 -1.5 -0.397805 -1.5 0 
C -1.5 0.397805 -1.341951 0.77937 -1.06066 1.06066 
C -0.77937 1.341951 -0.397805 1.5 0 1.5 
z
" id="m933b5f0117" style="stroke:#000080;"/>
    </defs>
    <g>
     <use style="fill:#000080;stroke:#000080;" x="346.922812" xlink:href="#m933b5f0117" y="200.087192"/>
     <use style="fill:#000080;stroke:#000080;" x="346.922812" xlink:href="#m933b5f0117" y="200.087192"/>
    </g>
   </g>
   <g id="line2d_42">
    <path d="M 58.414766 298.245375 
L 58.414766 295.145643 
L 70.8 295.145643 
L 70.8 288.946179 
L 83.185234 288.946179 
L 83.185234 285.846447 
L 87.172389 285.846447 
L 87.172389 285.329825 
L 90.430132 285.329825 
L 90.430132 284.296581 
L 111.026343 284.296581 
L 111.026343 283.779959 
L 111.942857 283.779959 
L 111.942857 282.746715 
L 116.630812 282.746715 
L 116.630812 282.230093 
L 117.954982 282.230093 
L 117.954982 281.713471 
L 124.769302 281.713471 
L 124.769302 281.196849 
L 126.825374 281.196849 
L 126.825374 280.163604 
L 135.3203 280.163604 
L 135.3203 279.13036 
L 145.796091 279.13036 
L 145.796091 278.613738 
L 148.299213 278.613738 
L 148.299213 278.097116 
L 229.053116 278.097116 
L 229.053116 277.580494 
L 234.201085 277.580494 
L 234.201085 276.030628 
L 248.929656 276.030628 
L 248.929656 274.997384 
L 263.370207 274.997384 
L 263.475974 255.88237 
L 265.837749 255.88237 
L 265.837749 255.365748 
L 266.583399 255.365748 
L 266.583399 254.849126 
L 268.785779 254.849126 
L 268.800781 253.815882 
L 269.980794 253.815882 
L 269.980794 253.29926 
L 275.766065 253.29926 
L 275.799014 244.000063 
L 277.447401 244.000063 
L 277.450538 242.966819 
L 278.677991 242.966819 
L 278.697689 241.933575 
L 283.012018 241.933575 
L 283.035664 235.734111 
L 285.504326 235.734111 
L 285.504326 235.217489 
L 288.157028 235.217489 
L 288.177458 232.117757 
L 288.809282 232.117757 
L 288.81413 231.084513 
L 289.01968 231.084513 
L 289.01968 230.567891 
L 292.148177 230.567891 
L 292.163366 226.434915 
L 292.840085 226.434915 
L 292.840085 225.918293 
L 293.67355 225.918293 
L 293.680285 224.885049 
L 295.401133 224.885049 
L 295.422263 222.301939 
L 295.978368 222.301939 
L 295.981704 221.268695 
L 298.155343 221.268695 
L 298.172365 217.652341 
L 298.533361 217.652341 
L 298.533361 217.135719 
L 298.651641 217.135719 
L 298.651641 216.619097 
L 300.547593 216.619097 
L 300.559273 215.585853 
L 300.872508 215.585853 
L 300.872508 215.069231 
L 301.315996 215.069231 
L 301.315996 214.552609 
L 303.340926 214.552609 
L 303.340926 214.035987 
L 305.151034 214.035987 
L 305.151034 213.519365 
L 306.237352 213.519365 
L 306.25045 211.969498 
L 308.444621 211.969498 
L 308.444621 211.452876 
L 309.229879 211.452876 
L 309.229879 210.936254 
L 309.490628 210.936254 
L 309.490628 210.419632 
L 309.827051 210.419632 
L 309.827051 209.90301 
L 312.015218 209.90301 
L 312.015218 209.386388 
L 312.931512 209.386388 
L 312.931512 208.869766 
L 313.148957 208.869766 
L 313.148957 208.353144 
L 313.331439 208.353144 
L 313.331439 207.836522 
L 314.02009 207.836522 
L 314.02009 207.3199 
L 315.481646 207.3199 
L 315.481646 206.803278 
L 317.796984 206.803278 
L 317.796984 206.286656 
L 318.785915 206.286656 
L 318.785915 205.770034 
L 320.182666 205.770034 
L 320.183317 204.73679 
L 320.326234 204.73679 
L 320.326234 204.220168 
L 322.414983 204.220168 
L 322.414983 203.703546 
L 324.953563 203.703546 
L 324.953563 203.186924 
L 326.408034 203.186924 
L 326.408034 202.670302 
L 327.023752 202.670302 
L 327.023752 202.15368 
L 330.267128 202.15368 
L 330.267128 201.637058 
L 335.113304 201.637058 
L 335.113304 201.120436 
L 339.419558 201.120436 
L 339.419558 200.603814 
L 346.922812 200.603814 
L 346.922812 200.087192 
L 358.8 200.087192 
L 358.8 200.087192 
" style="fill:none;stroke:#000080;stroke-linecap:square;stroke-width:1.5;"/>
   </g>
   <g id="line2d_43">
    <defs>
     <path d="M 0 6 
C 1.591219 6 3.117479 5.367802 4.242641 4.242641 
C 5.367802 3.117479 6 1.591219 6 0 
C 6 -1.591219 5.367802 -3.117479 4.242641 -4.242641 
C 3.117479 -5.367802 1.591219 -6 0 -6 
C -1.591219 -6 -3.117479 -5.367802 -4.242641 -4.242641 
C -5.367802 -3.117479 -6 -1.591219 -6 0 
C -6 1.591219 -5.367802 3.117479 -4.242641 4.242641 
C -3.117479 5.367802 -1.591219 6 0 6 
z
" id="m0b846215b7" style="stroke:#000080;stroke-width:1.5;"/>
    </defs>
    <g>
     <use style="fill:none;stroke:#000080;stroke-width:1.5;" x="148.299213" xlink:href="#m0b846215b7" y="278.613738"/>
     <use style="fill:none;stroke:#000080;stroke-width:1.5;" x="263.383253" xlink:href="#m0b846215b7" y="272.930896"/>
     <use style="fill:none;stroke:#000080;stroke-width:1.5;" x="283.029895" xlink:href="#m0b846215b7" y="240.383709"/>
     <use style="fill:none;stroke:#000080;stroke-width:1.5;" x="320.182666" xlink:href="#m0b846215b7" y="205.770034"/>
     <use style="fill:none;stroke:#000080;stroke-width:1.5;" x="346.922812" xlink:href="#m0b846215b7" y="200.087192"/>
     <use style="fill:none;stroke:#000080;stroke-width:1.5;" x="358.8" xlink:href="#m0b846215b7" y="200.087192"/>
    </g>
   </g>
   <g id="line2d_44"/>
   <g id="line2d_45">
    <path clip-path="url(#p6ad5a2adc0)" d="M 263.397592 265.698188 
" style="fill:none;stroke:#000080;stroke-linecap:square;stroke-width:1.5;"/>
    <defs>
     <path d="M -12 12 
L 12 -12 
M -12 -12 
L 12 12 
" id="m6d9ae18be4" style="stroke:#000080;stroke-width:3;"/>
    </defs>
    <g clip-path="url(#p6ad5a2adc0)">
     <use style="fill:#000080;stroke:#000080;stroke-width:3;" x="263.397592" xlink:href="#m6d9ae18be4" y="265.698188"/>
    </g>
   </g>
   <g id="line2d_46">
    <defs>
     <path d="M 0 1.5 
C 0.397805 1.5 0.77937 1.341951 1.06066 1.06066 
C 1.341951 0.77937 1.5 0.397805 1.5 0 
C 1.5 -0.397805 1.341951 -0.77937 1.06066 -1.06066 
C 0.77937 -1.341951 0.397805 -1.5 0 -1.5 
C -0.397805 -1.5 -0.77937 -1.341951 -1.06066 -1.06066 
C -1.341951 -0.77937 -1.5 -0.397805 -1.5 0 
C -1.5 0.397805 -1.341951 0.77937 -1.06066 1.06066 
C -0.77937 1.341951 -0.397805 1.5 0 1.5 
z
" id="m190dd88422" style="stroke:#ff00ff;"/>
    </defs>
    <g>
     <use style="fill:#ff00ff;stroke:#ff00ff;" x="349.523165" xlink:href="#m190dd88422" y="60.599248"/>
     <use style="fill:#ff00ff;stroke:#ff00ff;" x="349.523165" xlink:href="#m190dd88422" y="60.599248"/>
    </g>
   </g>
   <g id="line2d_47">
    <path d="M 58.414766 298.245375 
L 58.414766 225.918293 
L 90.430132 225.918293 
L 90.430132 224.885049 
L 110.060263 224.885049 
L 110.060263 224.368427 
L 115.930012 224.368427 
L 115.930012 222.818561 
L 117.954982 222.818561 
L 117.954982 220.752073 
L 118.581998 220.752073 
L 118.581998 220.235451 
L 120.890768 220.235451 
L 120.890768 216.619097 
L 126.825374 216.619097 
L 126.825374 216.102475 
L 127.209649 216.102475 
L 127.209649 215.585853 
L 131.572989 215.585853 
L 131.572989 214.035987 
L 132.726171 214.035987 
L 132.726171 212.48612 
L 135.077192 212.48612 
L 135.077192 211.969498 
L 135.796811 211.969498 
L 135.796811 210.419632 
L 136.488566 210.419632 
L 136.488566 208.869766 
L 137.796573 208.869766 
L 137.796573 205.253412 
L 139.210608 205.253412 
L 139.210608 204.73679 
L 141.909413 204.73679 
L 141.909413 203.703546 
L 142.403494 203.703546 
L 142.403494 203.186924 
L 143.352466 203.186924 
L 143.352466 202.670302 
L 144.971262 202.670302 
L 144.971262 200.603814 
L 149.209888 200.603814 
L 149.209888 200.087192 
L 150.597364 200.087192 
L 150.597364 199.57057 
L 151.302113 199.57057 
L 151.302113 196.98746 
L 151.595842 196.98746 
L 151.595842 196.470838 
L 160.567279 196.470838 
L 160.567279 194.40435 
L 161.595122 194.40435 
L 161.595122 193.371106 
L 165.018567 193.371106 
L 165.018567 192.854484 
L 166.638084 192.854484 
L 166.638084 192.337862 
L 166.969752 192.337862 
L 166.969752 189.23813 
L 168.616665 189.23813 
L 168.616665 187.171642 
L 169.386487 187.171642 
L 169.386487 186.138398 
L 171.483073 186.138398 
L 171.483073 185.621776 
L 173.757002 185.621776 
L 173.757002 185.105154 
L 176.047884 185.105154 
L 176.047884 183.038666 
L 176.916142 183.038666 
L 176.916142 180.972178 
L 190.952952 180.972178 
L 190.952952 180.455556 
L 198.457095 180.455556 
L 198.457095 179.938934 
L 199.951198 179.938934 
L 200.009474 176.839201 
L 205.269007 176.839201 
L 205.269007 176.322579 
L 208.206836 176.322579 
L 208.206836 175.805957 
L 209.673157 175.805957 
L 209.673157 175.289335 
L 211.929724 175.289335 
L 211.929724 174.256091 
L 212.346158 174.256091 
L 212.346158 172.706225 
L 215.417651 172.706225 
L 215.417651 172.189603 
L 219.609412 172.189603 
L 219.609412 171.672981 
L 223.585339 171.672981 
L 223.585339 170.123115 
L 226.230531 170.123115 
L 226.230531 169.089871 
L 244.487481 169.089871 
L 244.487481 165.990139 
L 244.966434 165.990139 
L 244.966434 165.473517 
L 255.810843 165.473517 
L 255.810843 164.956895 
L 258.104021 164.956895 
L 258.104021 164.440273 
L 260.968959 164.440273 
L 260.968959 162.890407 
L 261.558359 162.890407 
L 261.558359 160.307297 
L 263.279932 160.307297 
L 263.390331 156.174321 
L 263.39722 156.174321 
L 263.490609 141.708904 
L 263.513742 141.708904 
L 263.543862 137.575928 
L 264.394907 137.575928 
L 264.401595 136.542684 
L 264.708833 136.542684 
L 264.708833 135.50944 
L 265.213645 135.50944 
L 265.226084 133.959574 
L 265.478869 133.959574 
L 265.506682 131.376464 
L 268.702283 131.376464 
L 268.720672 129.826598 
L 272.391152 129.826598 
L 272.391152 129.309976 
L 275.711669 129.309976 
L 275.821967 123.110512 
L 275.824196 123.110512 
L 275.876121 118.460914 
L 276.437287 118.460914 
L 276.438274 117.42767 
L 276.708878 117.42767 
L 276.708878 116.911048 
L 278.658906 116.911048 
L 278.658906 116.394426 
L 283.020835 116.394426 
L 283.074943 108.128473 
L 283.354326 108.128473 
L 283.368333 107.095229 
L 283.642302 107.095229 
L 283.660158 106.061985 
L 284.97574 106.061985 
L 284.987143 104.512119 
L 287.734565 104.512119 
L 287.734565 103.995497 
L 288.080824 103.995497 
L 288.189826 96.762789 
L 288.202279 96.762789 
L 288.202279 96.246167 
L 288.4316 96.246167 
L 288.49952 95.212923 
L 288.640348 95.212923 
L 288.711635 93.146435 
L 289.654615 93.146435 
L 289.654615 92.629813 
L 291.691742 92.629813 
L 291.691742 92.113191 
L 292.157225 92.113191 
L 292.189396 87.463593 
L 292.543185 87.463593 
L 292.59168 86.430349 
L 295.116839 86.430349 
L 295.116839 85.913727 
L 295.408241 85.913727 
L 295.440641 81.780751 
L 295.78957 81.780751 
L 295.78957 81.264129 
L 298.147038 81.264129 
L 298.190514 76.614531 
L 298.314533 76.614531 
L 298.314533 76.097908 
L 300.551665 76.097908 
L 300.554248 75.064664 
L 302.636518 75.064664 
L 302.65198 74.03142 
L 302.900059 74.03142 
L 302.900059 73.514798 
L 304.522458 73.514798 
L 304.53626 72.481554 
L 305.143009 72.481554 
L 305.143009 71.964932 
L 306.223449 71.964932 
L 306.250061 69.898444 
L 307.275728 69.898444 
L 307.275728 69.381822 
L 307.652153 69.381822 
L 307.652153 68.8652 
L 307.797804 68.8652 
L 307.801015 67.831956 
L 307.990437 67.831956 
L 307.990437 67.315334 
L 309.216458 67.315334 
L 309.216458 66.798712 
L 309.401114 66.798712 
L 309.401114 66.28209 
L 310.527706 66.28209 
L 310.554143 65.248846 
L 311.781934 65.248846 
L 311.795148 64.215602 
L 312.928578 64.215602 
L 312.928578 63.69898 
L 313.645906 63.69898 
L 313.645906 63.182358 
L 317.796168 63.182358 
L 317.796168 62.665736 
L 326.395564 62.665736 
L 326.395564 62.149114 
L 334.332711 62.149114 
L 334.332711 61.632492 
L 337.137527 61.632492 
L 337.137527 61.11587 
L 349.523165 61.11587 
L 349.523165 60.599248 
L 358.8 60.599248 
L 358.8 60.599248 
" style="fill:none;stroke:#ff00ff;stroke-linecap:square;stroke-width:1.5;"/>
   </g>
   <g id="line2d_48">
    <defs>
     <path d="M -0 8.485281 
L 5.091169 0 
L 0 -8.485281 
L -5.091169 -0 
z
" id="mee42f34351" style="stroke:#ff00ff;stroke-linejoin:miter;stroke-width:1.5;"/>
    </defs>
    <g>
     <use style="fill:none;stroke:#ff00ff;stroke-linejoin:miter;stroke-width:1.5;" x="90.430132" xlink:href="#mee42f34351" y="225.918293"/>
     <use style="fill:none;stroke:#ff00ff;stroke-linejoin:miter;stroke-width:1.5;" x="166.969752" xlink:href="#mee42f34351" y="192.337862"/>
     <use style="fill:none;stroke:#ff00ff;stroke-linejoin:miter;stroke-width:1.5;" x="265.213645" xlink:href="#mee42f34351" y="135.50944"/>
     <use style="fill:none;stroke:#ff00ff;stroke-linejoin:miter;stroke-width:1.5;" x="298.17069" xlink:href="#mee42f34351" y="78.681019"/>
     <use style="fill:none;stroke:#ff00ff;stroke-linejoin:miter;stroke-width:1.5;" x="349.523165" xlink:href="#mee42f34351" y="60.599248"/>
     <use style="fill:none;stroke:#ff00ff;stroke-linejoin:miter;stroke-width:1.5;" x="358.8" xlink:href="#mee42f34351" y="60.599248"/>
    </g>
   </g>
   <g id="line2d_49"/>
   <g id="line2d_50">
    <path clip-path="url(#p6ad5a2adc0)" d="M 263.397592 155.657699 
" style="fill:none;stroke:#ff00ff;stroke-linecap:square;stroke-width:1.5;"/>
    <defs>
     <path d="M -12 12 
L 12 -12 
M -12 -12 
L 12 12 
" id="m233855fdcd" style="stroke:#ff00ff;stroke-width:3;"/>
    </defs>
    <g clip-path="url(#p6ad5a2adc0)">
     <use style="fill:#ff00ff;stroke:#ff00ff;stroke-width:3;" x="263.397592" xlink:href="#m233855fdcd" y="155.657699"/>
    </g>
   </g>
   <g id="line2d_51">
    <defs>
     <path d="M 0 1.5 
C 0.397805 1.5 0.77937 1.341951 1.06066 1.06066 
C 1.341951 0.77937 1.5 0.397805 1.5 0 
C 1.5 -0.397805 1.341951 -0.77937 1.06066 -1.06066 
C 0.77937 -1.341951 0.397805 -1.5 0 -1.5 
C -0.397805 -1.5 -0.77937 -1.341951 -1.06066 -1.06066 
C -1.341951 -0.77937 -1.5 -0.397805 -1.5 0 
C -1.5 0.397805 -1.341951 0.77937 -1.06066 1.06066 
C -0.77937 1.341951 -0.397805 1.5 0 1.5 
z
" id="m8e636922c4" style="stroke:#ffa500;"/>
    </defs>
    <g>
     <use style="fill:#ffa500;stroke:#ffa500;" x="333.100351" xlink:href="#m8e636922c4" y="163.923651"/>
     <use style="fill:#ffa500;stroke:#ffa500;" x="333.100351" xlink:href="#m8e636922c4" y="163.923651"/>
    </g>
   </g>
   <g id="line2d_52">
    <path d="M 58.414766 298.245375 
L 58.414766 287.912935 
L 70.8 287.912935 
L 70.8 286.879691 
L 78.044898 286.879691 
L 78.044898 282.230093 
L 83.185234 282.230093 
L 83.185234 278.097116 
L 87.172389 278.097116 
L 87.172389 274.480762 
L 90.430132 274.480762 
L 90.430132 272.930896 
L 95.570468 272.930896 
L 95.570468 270.347786 
L 99.557623 270.347786 
L 99.557623 268.79792 
L 102.815366 268.79792 
L 102.815366 267.764676 
L 105.569748 267.764676 
L 105.569748 267.248054 
L 111.942857 267.248054 
L 111.942857 266.731432 
L 112.814645 266.731432 
L 112.814645 266.21481 
L 120.890768 266.21481 
L 120.890768 265.181566 
L 128.669082 265.181566 
L 128.669082 263.6317 
L 130.340216 263.6317 
L 130.340216 263.115078 
L 133.003201 263.115078 
L 133.003201 262.598456 
L 135.3203 262.598456 
L 135.3203 262.081834 
L 142.075629 262.081834 
L 142.075629 260.531968 
L 148.760352 260.531968 
L 148.760352 258.46548 
L 150.801573 258.46548 
L 150.801573 256.915614 
L 152.356302 256.915614 
L 152.356302 256.398992 
L 162.776028 256.398992 
L 162.776028 255.88237 
L 171.736526 255.88237 
L 171.736526 254.849126 
L 175.030932 254.849126 
L 175.030932 253.815882 
L 189.21879 253.815882 
L 189.21879 253.29926 
L 191.657879 253.29926 
L 191.740221 252.266016 
L 204.186963 252.266016 
L 204.186963 251.749394 
L 212.137515 251.749394 
L 212.137515 251.232772 
L 242.368633 251.232772 
L 242.368633 250.71615 
L 246.318669 250.71615 
L 246.318669 249.682906 
L 247.784783 249.682906 
L 247.784783 249.166284 
L 249.784026 249.166284 
L 249.784026 248.649662 
L 260.983028 248.649662 
L 260.983028 248.13304 
L 263.377849 248.13304 
L 263.461327 240.383709 
L 263.503752 240.383709 
L 263.558626 237.800599 
L 263.702125 237.800599 
L 263.724621 236.250733 
L 264.065507 236.250733 
L 264.065507 235.734111 
L 264.395259 235.734111 
L 264.399484 234.184245 
L 264.931958 234.184245 
L 264.931958 233.667623 
L 272.296264 233.667623 
L 272.296264 233.151001 
L 275.791015 233.151001 
L 275.81593 227.984781 
L 275.9422 227.984781 
L 275.955202 226.434915 
L 276.108667 226.434915 
L 276.188729 224.885049 
L 276.288622 224.885049 
L 276.316828 223.335183 
L 283.03585 223.335183 
L 283.082677 219.718829 
L 283.257558 219.718829 
L 283.257558 219.202207 
L 283.377523 219.202207 
L 283.377523 218.685585 
L 283.796429 218.685585 
L 283.796429 218.168963 
L 285.363378 218.168963 
L 285.373557 217.135719 
L 288.181086 217.135719 
L 288.265105 213.002743 
L 288.369127 213.002743 
L 288.369127 212.48612 
L 289.489158 212.48612 
L 289.489158 211.969498 
L 292.159608 211.969498 
L 292.222437 209.90301 
L 292.359328 209.90301 
L 292.369962 208.869766 
L 293.229401 208.869766 
L 293.229401 208.353144 
L 293.594243 208.353144 
L 293.594243 207.836522 
L 295.449189 207.836522 
L 295.537243 206.286656 
L 295.56455 206.286656 
L 295.600476 204.220168 
L 298.168031 204.220168 
L 298.192213 201.637058 
L 298.316195 201.637058 
L 298.333249 200.087192 
L 299.219696 200.087192 
L 299.219696 199.57057 
L 299.753222 199.57057 
L 299.757747 198.537326 
L 300.555249 198.537326 
L 300.660935 194.920972 
L 301.458235 194.920972 
L 301.458235 194.40435 
L 302.66317 194.40435 
L 302.673278 192.854484 
L 304.64276 192.854484 
L 304.650717 191.82124 
L 305.664032 191.82124 
L 305.664032 191.304618 
L 306.251634 191.304618 
L 306.346864 187.688264 
L 306.448148 187.688264 
L 306.448148 187.171642 
L 307.812101 187.171642 
L 307.887984 183.555288 
L 308.427497 183.555288 
L 308.427497 183.038666 
L 309.233172 183.038666 
L 309.240643 181.4888 
L 310.557187 181.4888 
L 310.614785 179.422312 
L 311.800927 179.422312 
L 311.809145 178.389067 
L 313.000744 178.389067 
L 313.012902 176.839201 
L 313.402668 176.839201 
L 313.402668 176.322579 
L 314.453569 176.322579 
L 314.453569 175.805957 
L 316.037871 175.805957 
L 316.037871 175.289335 
L 316.938616 175.289335 
L 316.938616 174.772713 
L 317.853715 174.772713 
L 317.853715 174.256091 
L 318.650378 174.256091 
L 318.676439 172.706225 
L 319.478771 172.706225 
L 319.478771 172.189603 
L 319.930343 172.189603 
L 319.930343 171.672981 
L 320.204696 171.672981 
L 320.204696 171.156359 
L 320.951663 171.156359 
L 320.951663 170.639737 
L 321.632608 170.639737 
L 321.63539 169.606493 
L 322.313732 169.606493 
L 322.337241 168.056627 
L 323.585333 168.056627 
L 323.585333 167.540005 
L 325.343809 167.540005 
L 325.343809 167.023383 
L 325.888091 167.023383 
L 325.888091 166.506761 
L 326.960285 166.506761 
L 326.960285 165.990139 
L 327.464694 165.990139 
L 327.464694 165.473517 
L 327.956247 165.473517 
L 327.956247 164.956895 
L 331.028596 164.956895 
L 331.028596 164.440273 
L 333.100351 164.440273 
L 333.100351 163.923651 
L 358.8 163.923651 
L 358.8 163.923651 
" style="fill:none;stroke:#ffa500;stroke-linecap:square;stroke-width:1.5;"/>
   </g>
   <g id="line2d_53">
    <defs>
     <path d="M 0 -6 
L -1.347084 -1.854102 
L -5.706339 -1.854102 
L -2.179628 0.708204 
L -3.526712 4.854102 
L -0 2.291796 
L 3.526712 4.854102 
L 2.179628 0.708204 
L 5.706339 -1.854102 
L 1.347084 -1.854102 
z
" id="m876374fca0" style="stroke:#ffa500;stroke-linejoin:bevel;stroke-width:1.5;"/>
    </defs>
    <g>
     <use style="fill:none;stroke:#ffa500;stroke-linejoin:bevel;stroke-width:1.5;" x="90.430132" xlink:href="#m876374fca0" y="274.480762"/>
     <use style="fill:none;stroke:#ffa500;stroke-linejoin:bevel;stroke-width:1.5;" x="191.740221" xlink:href="#m876374fca0" y="252.266016"/>
     <use style="fill:none;stroke:#ffa500;stroke-linejoin:bevel;stroke-width:1.5;" x="264.931958" xlink:href="#m876374fca0" y="234.184245"/>
     <use style="fill:none;stroke:#ffa500;stroke-linejoin:bevel;stroke-width:1.5;" x="311.809145" xlink:href="#m876374fca0" y="178.90569"/>
     <use style="fill:none;stroke:#ffa500;stroke-linejoin:bevel;stroke-width:1.5;" x="333.100351" xlink:href="#m876374fca0" y="163.923651"/>
     <use style="fill:none;stroke:#ffa500;stroke-linejoin:bevel;stroke-width:1.5;" x="358.8" xlink:href="#m876374fca0" y="163.923651"/>
    </g>
   </g>
   <g id="line2d_54"/>
   <g id="line2d_55">
    <path clip-path="url(#p6ad5a2adc0)" d="M 263.409315 244.000063 
" style="fill:none;stroke:#ffa500;stroke-linecap:square;stroke-width:1.5;"/>
    <defs>
     <path d="M -12 12 
L 12 -12 
M -12 -12 
L 12 12 
" id="mda00ab9650" style="stroke:#ffa500;stroke-width:3;"/>
    </defs>
    <g clip-path="url(#p6ad5a2adc0)">
     <use style="fill:#ffa500;stroke:#ffa500;stroke-width:3;" x="263.409315" xlink:href="#mda00ab9650" y="244.000063"/>
    </g>
   </g>
   <g id="line2d_56">
    <defs>
     <path d="M 0 1.5 
C 0.397805 1.5 0.77937 1.341951 1.06066 1.06066 
C 1.341951 0.77937 1.5 0.397805 1.5 0 
C 1.5 -0.397805 1.341951 -0.77937 1.06066 -1.06066 
C 0.77937 -1.341951 0.397805 -1.5 0 -1.5 
C -0.397805 -1.5 -0.77937 -1.341951 -1.06066 -1.06066 
C -1.341951 -0.77937 -1.5 -0.397805 -1.5 0 
C -1.5 0.397805 -1.341951 0.77937 -1.06066 1.06066 
C -0.77937 1.341951 -0.397805 1.5 0 1.5 
z
" id="md2e5197de2" style="stroke:#6495ed;"/>
    </defs>
    <g>
     <use style="fill:#6495ed;stroke:#6495ed;" x="337.740013" xlink:href="#md2e5197de2" y="179.422312"/>
     <use style="fill:#6495ed;stroke:#6495ed;" x="337.740013" xlink:href="#md2e5197de2" y="179.422312"/>
    </g>
   </g>
   <g id="line2d_57">
    <path d="M 58.414766 298.245375 
L 58.414766 271.897652 
L 70.8 271.897652 
L 70.8 271.38103 
L 78.044898 271.38103 
L 78.044898 269.831164 
L 83.185234 269.831164 
L 83.185234 266.731432 
L 95.570468 266.731432 
L 95.570468 264.148322 
L 97.675029 264.148322 
L 97.675029 261.04859 
L 99.557623 261.04859 
L 99.557623 260.015346 
L 105.569748 260.015346 
L 105.569748 259.498724 
L 107.955702 259.498724 
L 107.955702 257.948858 
L 116.630812 257.948858 
L 116.630812 257.432236 
L 135.3203 257.432236 
L 135.3203 256.915614 
L 136.713325 256.915614 
L 136.713325 256.398992 
L 143.958223 256.398992 
L 143.958223 255.88237 
L 151.980117 255.88237 
L 151.980117 254.332504 
L 155.030737 254.332504 
L 155.030737 253.815882 
L 155.891075 253.815882 
L 155.891075 252.782638 
L 169.671244 252.782638 
L 169.671244 251.232772 
L 169.986263 251.232772 
L 169.986263 250.199528 
L 174.364631 250.199528 
L 174.364631 249.682906 
L 245.981944 249.682906 
L 245.981944 249.166284 
L 263.378222 249.166284 
L 263.481718 236.767355 
L 263.510598 236.767355 
L 263.510598 236.250733 
L 265.191097 236.250733 
L 265.191097 235.734111 
L 265.417296 235.734111 
L 265.417296 235.217489 
L 269.110642 235.217489 
L 269.130506 234.184245 
L 275.774447 234.184245 
L 275.847303 227.468159 
L 276.69659 227.468159 
L 276.69659 226.951537 
L 277.513334 226.951537 
L 277.513334 226.434915 
L 278.85763 226.434915 
L 278.85763 225.918293 
L 283.022325 225.918293 
L 283.049118 222.818561 
L 284.205448 222.818561 
L 284.222519 221.268695 
L 285.164748 221.268695 
L 285.165189 220.235451 
L 288.168526 220.235451 
L 288.213376 216.102475 
L 288.62221 216.102475 
L 288.62221 215.585853 
L 289.777391 215.585853 
L 289.777391 215.069231 
L 292.160538 215.069231 
L 292.168761 214.035987 
L 292.86912 214.035987 
L 292.886031 213.002743 
L 295.414447 213.002743 
L 295.425363 211.452876 
L 295.769875 211.452876 
L 295.769875 210.936254 
L 296.017761 210.936254 
L 296.017761 210.419632 
L 296.512466 210.419632 
L 296.512466 209.90301 
L 298.17521 209.90301 
L 298.187034 208.353144 
L 300.548849 208.353144 
L 300.562064 205.770034 
L 301.00978 205.770034 
L 301.00978 205.253412 
L 302.658455 205.253412 
L 302.676688 203.703546 
L 302.882523 203.703546 
L 302.882523 203.186924 
L 303.062555 203.186924 
L 303.062555 202.670302 
L 303.386595 202.670302 
L 303.396143 201.637058 
L 304.730405 201.637058 
L 304.730405 201.120436 
L 304.899398 201.120436 
L 304.900602 200.087192 
L 306.577202 200.087192 
L 306.577202 199.57057 
L 307.961086 199.57057 
L 307.961086 199.053948 
L 309.371123 199.053948 
L 309.371123 198.537326 
L 309.744873 198.537326 
L 309.749797 197.504082 
L 312.029191 197.504082 
L 312.03312 196.470838 
L 312.951914 196.470838 
L 312.951914 195.954216 
L 314.02921 195.954216 
L 314.137317 194.920972 
L 314.238901 194.920972 
L 314.238901 194.40435 
L 314.416378 194.40435 
L 314.416378 193.887728 
L 315.04767 193.887728 
L 315.048993 192.854484 
L 316.012108 192.854484 
L 316.01722 191.304618 
L 316.36557 191.304618 
L 316.36557 190.787996 
L 316.931099 190.787996 
L 316.936281 189.754752 
L 318.126815 189.754752 
L 318.126815 189.23813 
L 318.635211 189.23813 
L 318.635769 188.204886 
L 319.420489 188.204886 
L 319.506367 187.171642 
L 319.590127 187.171642 
L 319.590127 186.65502 
L 321.061198 186.65502 
L 321.061198 186.138398 
L 321.619981 186.138398 
L 321.619981 185.621776 
L 323.180485 185.621776 
L 323.180485 185.105154 
L 323.571749 185.105154 
L 323.571749 184.588532 
L 324.756047 184.588532 
L 324.756047 184.07191 
L 325.536773 184.07191 
L 325.536773 183.555288 
L 326.936065 183.555288 
L 327.029844 182.522044 
L 327.621612 182.522044 
L 327.621612 182.005422 
L 329.917931 182.005422 
L 329.917931 181.4888 
L 330.27489 181.4888 
L 330.27489 180.972178 
L 331.889583 180.972178 
L 331.889583 180.455556 
L 334.132946 180.455556 
L 334.132946 179.938934 
L 337.740013 179.938934 
L 337.740013 179.422312 
L 358.8 179.422312 
L 358.8 179.422312 
" style="fill:none;stroke:#6495ed;stroke-linecap:square;stroke-width:1.5;"/>
   </g>
   <g id="line2d_58">
    <defs>
     <path d="M -0 6 
L 6 -6 
L -6 -6 
z
" id="mec8ca2aa44" style="stroke:#6495ed;stroke-linejoin:miter;stroke-width:1.5;"/>
    </defs>
    <g>
     <use style="fill:none;stroke:#6495ed;stroke-linejoin:miter;stroke-width:1.5;" x="83.185234" xlink:href="#mec8ca2aa44" y="269.831164"/>
     <use style="fill:none;stroke:#6495ed;stroke-linejoin:miter;stroke-width:1.5;" x="174.364631" xlink:href="#mec8ca2aa44" y="250.199528"/>
     <use style="fill:none;stroke:#6495ed;stroke-linejoin:miter;stroke-width:1.5;" x="245.981944" xlink:href="#mec8ca2aa44" y="249.166284"/>
     <use style="fill:none;stroke:#6495ed;stroke-linejoin:miter;stroke-width:1.5;" x="298.187034" xlink:href="#mec8ca2aa44" y="208.869766"/>
     <use style="fill:none;stroke:#6495ed;stroke-linejoin:miter;stroke-width:1.5;" x="337.740013" xlink:href="#mec8ca2aa44" y="179.422312"/>
     <use style="fill:none;stroke:#6495ed;stroke-linejoin:miter;stroke-width:1.5;" x="358.8" xlink:href="#mec8ca2aa44" y="179.422312"/>
    </g>
   </g>
   <g id="line2d_59"/>
   <g id="line2d_60">
    <path clip-path="url(#p6ad5a2adc0)" d="M 263.392007 247.616418 
" style="fill:none;stroke:#6495ed;stroke-linecap:square;stroke-width:1.5;"/>
    <defs>
     <path d="M -12 12 
L 12 -12 
M -12 -12 
L 12 12 
" id="mb50a324256" style="stroke:#6495ed;stroke-width:3;"/>
    </defs>
    <g clip-path="url(#p6ad5a2adc0)">
     <use style="fill:#6495ed;stroke:#6495ed;stroke-width:3;" x="263.392007" xlink:href="#mb50a324256" y="247.616418"/>
    </g>
   </g>
   <g id="line2d_61">
    <defs>
     <path d="M 0 1.5 
C 0.397805 1.5 0.77937 1.341951 1.06066 1.06066 
C 1.341951 0.77937 1.5 0.397805 1.5 0 
C 1.5 -0.397805 1.341951 -0.77937 1.06066 -1.06066 
C 0.77937 -1.341951 0.397805 -1.5 0 -1.5 
C -0.397805 -1.5 -0.77937 -1.341951 -1.06066 -1.06066 
C -1.341951 -0.77937 -1.5 -0.397805 -1.5 0 
C -1.5 0.397805 -1.341951 0.77937 -1.06066 1.06066 
C -0.77937 1.341951 -0.397805 1.5 0 1.5 
z
" id="m3124251f49" style="stroke:#ff0000;"/>
    </defs>
    <g>
     <use style="fill:#ff0000;stroke:#ff0000;" x="343.666829" xlink:href="#m3124251f49" y="174.256091"/>
     <use style="fill:#ff0000;stroke:#ff0000;" x="343.666829" xlink:href="#m3124251f49" y="174.256091"/>
    </g>
   </g>
   <g id="line2d_62">
    <path d="M 58.414766 298.245375 
L 58.414766 289.979423 
L 70.8 289.979423 
L 70.8 285.329825 
L 83.185234 285.329825 
L 83.185234 284.813203 
L 95.570468 284.813203 
L 95.570468 283.263337 
L 107.955702 283.263337 
L 107.955702 282.746715 
L 119.187755 282.746715 
L 119.187755 282.230093 
L 121.424184 282.230093 
L 121.424184 281.713471 
L 128.315246 281.713471 
L 128.315246 281.196849 
L 138.416339 281.196849 
L 138.416339 280.680226 
L 189.674127 280.680226 
L 189.674127 279.646982 
L 212.954723 279.646982 
L 212.954723 278.613738 
L 231.419974 278.613738 
L 231.419974 277.580494 
L 241.716731 277.580494 
L 241.716731 276.030628 
L 263.381949 276.030628 
L 263.447224 268.281298 
L 263.509118 268.281298 
L 263.532596 267.248054 
L 263.680152 267.248054 
L 263.695902 266.21481 
L 264.426567 266.21481 
L 264.434824 265.181566 
L 266.173793 265.181566 
L 266.173793 264.664944 
L 268.049326 264.664944 
L 268.051048 263.6317 
L 271.154376 263.6317 
L 271.159923 262.081834 
L 275.784315 262.081834 
L 275.856852 255.88237 
L 275.932604 255.88237 
L 275.936664 254.849126 
L 276.319899 254.849126 
L 276.319899 254.332504 
L 277.218178 254.332504 
L 277.218178 253.815882 
L 278.273252 253.815882 
L 278.273252 253.29926 
L 278.553847 253.29926 
L 278.559266 251.749394 
L 280.073087 251.749394 
L 280.088161 250.71615 
L 283.016365 250.71615 
L 283.125 244.516685 
L 283.128517 244.516685 
L 283.129813 242.966819 
L 283.393823 242.966819 
L 283.393823 242.450197 
L 284.72641 242.450197 
L 284.72641 241.933575 
L 288.162987 241.933575 
L 288.249222 237.283977 
L 288.894874 237.283977 
L 288.905371 236.250733 
L 289.446449 236.250733 
L 289.456411 235.217489 
L 289.596325 235.217489 
L 289.596325 234.700867 
L 290.453773 234.700867 
L 290.453773 234.184245 
L 292.153986 234.184245 
L 292.224291 228.501403 
L 292.744272 228.501403 
L 292.744884 227.468159 
L 293.186896 227.468159 
L 293.196451 226.434915 
L 295.413175 226.434915 
L 295.476507 222.301939 
L 295.908617 222.301939 
L 295.908617 221.785317 
L 296.28112 221.785317 
L 296.28112 221.268695 
L 298.167499 221.268695 
L 298.219571 218.168963 
L 299.507371 218.168963 
L 299.507371 217.652341 
L 300.568064 217.652341 
L 300.597937 216.102475 
L 301.729429 216.102475 
L 301.729429 215.585853 
L 302.662777 215.585853 
L 302.699339 213.002743 
L 303.316324 213.002743 
L 303.316324 212.48612 
L 304.546963 212.48612 
L 304.653288 209.90301 
L 304.840169 209.90301 
L 304.840169 209.386388 
L 305.069338 209.386388 
L 305.138221 207.836522 
L 305.484061 207.836522 
L 305.484061 207.3199 
L 306.517758 207.3199 
L 306.517758 206.803278 
L 307.825906 206.803278 
L 307.831187 205.770034 
L 309.252716 205.770034 
L 309.252716 205.253412 
L 310.574194 205.253412 
L 310.574194 204.73679 
L 310.77127 204.73679 
L 310.776392 203.703546 
L 311.809145 203.703546 
L 311.813123 202.670302 
L 312.139235 202.670302 
L 312.139235 202.15368 
L 312.960782 202.15368 
L 312.960782 201.637058 
L 313.270457 201.637058 
L 313.273403 200.603814 
L 314.039255 200.603814 
L 314.04317 199.57057 
L 314.198636 199.57057 
L 314.203612 198.537326 
L 314.332531 198.537326 
L 314.375019 196.98746 
L 314.589149 196.98746 
L 314.589149 196.470838 
L 315.062748 196.470838 
L 315.064835 195.437594 
L 315.34023 195.437594 
L 315.34023 194.920972 
L 316.022929 194.920972 
L 316.022929 194.40435 
L 316.29413 194.40435 
L 316.329193 193.371106 
L 316.929499 193.371106 
L 316.941936 192.337862 
L 317.195037 192.337862 
L 317.195037 191.82124 
L 317.802656 191.82124 
L 317.813376 190.787996 
L 318.053889 190.787996 
L 318.053889 190.271374 
L 318.647014 190.271374 
L 318.650082 189.23813 
L 320.196219 189.23813 
L 320.196219 188.721508 
L 320.310438 188.721508 
L 320.313249 187.688264 
L 321.630791 187.688264 
L 321.630791 187.171642 
L 321.850544 187.171642 
L 321.850544 186.65502 
L 322.303224 186.65502 
L 322.303224 186.138398 
L 322.953265 186.138398 
L 322.953265 185.621776 
L 323.576611 185.621776 
L 323.604353 184.07191 
L 325.339514 184.07191 
L 325.339514 183.555288 
L 325.492912 183.555288 
L 325.492912 183.038666 
L 325.890897 183.038666 
L 325.890897 182.522044 
L 326.941347 182.522044 
L 327.013699 181.4888 
L 327.935064 181.4888 
L 328.00317 180.455556 
L 328.066053 180.455556 
L 328.081763 179.422312 
L 328.872654 179.422312 
L 328.872654 178.90569 
L 329.324845 178.90569 
L 329.324845 178.389067 
L 329.760421 178.389067 
L 329.760421 177.872445 
L 332.634505 177.872445 
L 332.634505 177.355823 
L 333.761881 177.355823 
L 333.761881 176.839201 
L 335.10485 176.839201 
L 335.10485 176.322579 
L 336.046625 176.322579 
L 336.046625 175.805957 
L 338.344703 175.805957 
L 338.344703 175.289335 
L 342.785655 175.289335 
L 342.785655 174.772713 
L 343.666829 174.772713 
L 343.666829 174.256091 
L 358.8 174.256091 
L 358.8 174.256091 
" style="fill:none;stroke:#ff0000;stroke-linecap:square;stroke-width:1.5;"/>
   </g>
   <g id="line2d_63">
    <defs>
     <path d="M 0 -6 
L -5.196152 -3 
L -5.196152 3 
L -0 6 
L 5.196152 3 
L 5.196152 -3 
z
" id="m7f9d280747" style="stroke:#ff0000;stroke-linejoin:miter;stroke-width:1.5;"/>
    </defs>
    <g>
     <use style="fill:none;stroke:#ff0000;stroke-linejoin:miter;stroke-width:1.5;" x="95.570468" xlink:href="#m7f9d280747" y="284.813203"/>
     <use style="fill:none;stroke:#ff0000;stroke-linejoin:miter;stroke-width:1.5;" x="189.674127" xlink:href="#m7f9d280747" y="280.680226"/>
     <use style="fill:none;stroke:#ff0000;stroke-linejoin:miter;stroke-width:1.5;" x="263.695902" xlink:href="#m7f9d280747" y="266.731432"/>
     <use style="fill:none;stroke:#ff0000;stroke-linejoin:miter;stroke-width:1.5;" x="304.653288" xlink:href="#m7f9d280747" y="209.90301"/>
     <use style="fill:none;stroke:#ff0000;stroke-linejoin:miter;stroke-width:1.5;" x="343.666829" xlink:href="#m7f9d280747" y="174.256091"/>
     <use style="fill:none;stroke:#ff0000;stroke-linejoin:miter;stroke-width:1.5;" x="358.8" xlink:href="#m7f9d280747" y="174.256091"/>
    </g>
   </g>
   <g id="line2d_64"/>
   <g id="line2d_65">
    <path clip-path="url(#p6ad5a2adc0)" d="M 263.402989 273.96414 
" style="fill:none;stroke:#ff0000;stroke-linecap:square;stroke-width:1.5;"/>
    <defs>
     <path d="M -12 12 
L 12 -12 
M -12 -12 
L 12 12 
" id="mf85bc48762" style="stroke:#ff0000;stroke-width:3;"/>
    </defs>
    <g clip-path="url(#p6ad5a2adc0)">
     <use style="fill:#ff0000;stroke:#ff0000;stroke-width:3;" x="263.402989" xlink:href="#mf85bc48762" y="273.96414"/>
    </g>
   </g>
   <g id="line2d_66">
    <path d="M 358.8 200.087192 
L 390.48 292.97583 
" style="fill:none;stroke:#000080;stroke-linecap:square;stroke-width:1.5;"/>
    <g>
     <use style="fill:none;stroke:#000080;stroke-width:1.5;" x="358.8" xlink:href="#m0b846215b7" y="200.087192"/>
     <use style="fill:none;stroke:#000080;stroke-width:1.5;" x="390.48" xlink:href="#m0b846215b7" y="292.97583"/>
    </g>
   </g>
   <g id="line2d_67">
    <path d="M 358.8 179.422312 
L 390.48 229.741296 
" style="fill:none;stroke:#6495ed;stroke-linecap:square;stroke-width:1.5;"/>
    <g>
     <use style="fill:none;stroke:#6495ed;stroke-linejoin:miter;stroke-width:1.5;" x="358.8" xlink:href="#mec8ca2aa44" y="179.422312"/>
     <use style="fill:none;stroke:#6495ed;stroke-linejoin:miter;stroke-width:1.5;" x="390.48" xlink:href="#mec8ca2aa44" y="229.741296"/>
    </g>
   </g>
   <g id="line2d_68">
    <path d="M 358.8 174.256091 
L 390.48 166.506761 
" style="fill:none;stroke:#ff0000;stroke-linecap:square;stroke-width:1.5;"/>
    <g>
     <use style="fill:none;stroke:#ff0000;stroke-linejoin:miter;stroke-width:1.5;" x="358.8" xlink:href="#m7f9d280747" y="174.256091"/>
     <use style="fill:none;stroke:#ff0000;stroke-linejoin:miter;stroke-width:1.5;" x="390.48" xlink:href="#m7f9d280747" y="166.506761"/>
    </g>
   </g>
   <g id="line2d_69">
    <path d="M 358.8 163.923651 
L 390.48 103.272226 
" style="fill:none;stroke:#ffa500;stroke-linecap:square;stroke-width:1.5;"/>
    <g>
     <use style="fill:none;stroke:#ffa500;stroke-linejoin:bevel;stroke-width:1.5;" x="358.8" xlink:href="#m876374fca0" y="163.923651"/>
     <use style="fill:none;stroke:#ffa500;stroke-linejoin:bevel;stroke-width:1.5;" x="390.48" xlink:href="#m876374fca0" y="103.272226"/>
    </g>
   </g>
   <g id="line2d_70">
    <path d="M 358.8 60.599248 
L 390.48 40.037692 
" style="fill:none;stroke:#ff00ff;stroke-linecap:square;stroke-width:1.5;"/>
    <g>
     <use style="fill:none;stroke:#ff00ff;stroke-linejoin:miter;stroke-width:1.5;" x="358.8" xlink:href="#mee42f34351" y="60.599248"/>
     <use style="fill:none;stroke:#ff00ff;stroke-linejoin:miter;stroke-width:1.5;" x="390.48" xlink:href="#mee42f34351" y="40.037692"/>
    </g>
   </g>
   <g id="line2d_71">
    <path d="M 358.8 298.245375 
L 358.8 34.768147 
" style="fill:none;stroke:#000000;stroke-linecap:square;stroke-width:1.5;"/>
   </g>
   <g id="patch_3">
    <path d="M 70.8 298.245375 
L 70.8 32.133375 
" style="fill:none;stroke:#000000;stroke-linecap:square;stroke-linejoin:miter;stroke-width:0.8;"/>
   </g>
   <g id="patch_4">
    <path d="M 427.92 298.245375 
L 427.92 32.133375 
" style="fill:none;stroke:#000000;stroke-linecap:square;stroke-linejoin:miter;stroke-width:0.8;"/>
   </g>
   <g id="patch_5">
    <path d="M 70.8 298.245375 
L 427.92 298.245375 
" style="fill:none;stroke:#000000;stroke-linecap:square;stroke-linejoin:miter;stroke-width:0.8;"/>
   </g>
   <g id="patch_6">
    <path d="M 70.8 32.133375 
L 427.92 32.133375 
" style="fill:none;stroke:#000000;stroke-linecap:square;stroke-linejoin:miter;stroke-width:0.8;"/>
   </g>
   <g id="text_14">
    <!-- f18 -->
    <g transform="translate(396.24 297.114893)scale(0.15 -0.15)">
     <use xlink:href="#DejaVuSans-66"/>
     <use x="35.205078" xlink:href="#DejaVuSans-31"/>
     <use x="98.828125" xlink:href="#DejaVuSans-38"/>
    </g>
   </g>
   <g id="text_15">
    <!-- f17 -->
    <defs>
     <path d="M 8.203125 72.90625 
L 55.078125 72.90625 
L 55.078125 68.703125 
L 28.609375 0 
L 18.3125 0 
L 43.21875 64.59375 
L 8.203125 64.59375 
z
" id="DejaVuSans-37"/>
    </defs>
    <g transform="translate(396.24 233.880358)scale(0.15 -0.15)">
     <use xlink:href="#DejaVuSans-66"/>
     <use x="35.205078" xlink:href="#DejaVuSans-31"/>
     <use x="98.828125" xlink:href="#DejaVuSans-37"/>
    </g>
   </g>
   <g id="text_16">
    <!-- f15 -->
    <defs>
     <path d="M 10.796875 72.90625 
L 49.515625 72.90625 
L 49.515625 64.59375 
L 19.828125 64.59375 
L 19.828125 46.734375 
Q 21.96875 47.46875 24.109375 47.828125 
Q 26.265625 48.1875 28.421875 48.1875 
Q 40.625 48.1875 47.75 41.5 
Q 54.890625 34.8125 54.890625 23.390625 
Q 54.890625 11.625 47.5625 5.09375 
Q 40.234375 -1.421875 26.90625 -1.421875 
Q 22.3125 -1.421875 17.546875 -0.640625 
Q 12.796875 0.140625 7.71875 1.703125 
L 7.71875 11.625 
Q 12.109375 9.234375 16.796875 8.0625 
Q 21.484375 6.890625 26.703125 6.890625 
Q 35.15625 6.890625 40.078125 11.328125 
Q 45.015625 15.765625 45.015625 23.390625 
Q 45.015625 31 40.078125 35.4375 
Q 35.15625 39.890625 26.703125 39.890625 
Q 22.75 39.890625 18.8125 39.015625 
Q 14.890625 38.140625 10.796875 36.28125 
z
" id="DejaVuSans-35"/>
    </defs>
    <g transform="translate(396.24 170.645824)scale(0.15 -0.15)">
     <use xlink:href="#DejaVuSans-66"/>
     <use x="35.205078" xlink:href="#DejaVuSans-31"/>
     <use x="98.828125" xlink:href="#DejaVuSans-35"/>
    </g>
   </g>
   <g id="text_17">
    <!-- f16 -->
    <g transform="translate(396.24 107.411289)scale(0.15 -0.15)">
     <use xlink:href="#DejaVuSans-66"/>
     <use x="35.205078" xlink:href="#DejaVuSans-31"/>
     <use x="98.828125" xlink:href="#DejaVuSans-36"/>
    </g>
   </g>
   <g id="text_18">
    <!-- f19 -->
    <defs>
     <path d="M 10.984375 1.515625 
L 10.984375 10.5 
Q 14.703125 8.734375 18.5 7.8125 
Q 22.3125 6.890625 25.984375 6.890625 
Q 35.75 6.890625 40.890625 13.453125 
Q 46.046875 20.015625 46.78125 33.40625 
Q 43.953125 29.203125 39.59375 26.953125 
Q 35.25 24.703125 29.984375 24.703125 
Q 19.046875 24.703125 12.671875 31.3125 
Q 6.296875 37.9375 6.296875 49.421875 
Q 6.296875 60.640625 12.9375 67.421875 
Q 19.578125 74.21875 30.609375 74.21875 
Q 43.265625 74.21875 49.921875 64.515625 
Q 56.59375 54.828125 56.59375 36.375 
Q 56.59375 19.140625 48.40625 8.859375 
Q 40.234375 -1.421875 26.421875 -1.421875 
Q 22.703125 -1.421875 18.890625 -0.6875 
Q 15.09375 0.046875 10.984375 1.515625 
M 30.609375 32.421875 
Q 37.25 32.421875 41.125 36.953125 
Q 45.015625 41.5 45.015625 49.421875 
Q 45.015625 57.28125 41.125 61.84375 
Q 37.25 66.40625 30.609375 66.40625 
Q 23.96875 66.40625 20.09375 61.84375 
Q 16.21875 57.28125 16.21875 49.421875 
Q 16.21875 41.5 20.09375 36.953125 
Q 23.96875 32.421875 30.609375 32.421875 
" id="DejaVuSans-39"/>
    </defs>
    <g transform="translate(396.24 44.176754)scale(0.15 -0.15)">
     <use xlink:href="#DejaVuSans-66"/>
     <use x="35.205078" xlink:href="#DejaVuSans-31"/>
     <use x="98.828125" xlink:href="#DejaVuSans-39"/>
    </g>
   </g>
   <g id="text_19">
    <!-- bbob -->
    <defs>
     <path d="M 48.6875 27.296875 
Q 48.6875 37.203125 44.609375 42.84375 
Q 40.53125 48.484375 33.40625 48.484375 
Q 26.265625 48.484375 22.1875 42.84375 
Q 18.109375 37.203125 18.109375 27.296875 
Q 18.109375 17.390625 22.1875 11.75 
Q 26.265625 6.109375 33.40625 6.109375 
Q 40.53125 6.109375 44.609375 11.75 
Q 48.6875 17.390625 48.6875 27.296875 
M 18.109375 46.390625 
Q 20.953125 51.265625 25.265625 53.625 
Q 29.59375 56 35.59375 56 
Q 45.5625 56 51.78125 48.09375 
Q 58.015625 40.1875 58.015625 27.296875 
Q 58.015625 14.40625 51.78125 6.484375 
Q 45.5625 -1.421875 35.59375 -1.421875 
Q 29.59375 -1.421875 25.265625 0.953125 
Q 20.953125 3.328125 18.109375 8.203125 
L 18.109375 0 
L 9.078125 0 
L 9.078125 75.984375 
L 18.109375 75.984375 
z
" id="DejaVuSans-62"/>
    </defs>
    <g transform="translate(74.3712 50.114612)scale(0.1666 -0.1666)">
     <use xlink:href="#DejaVuSans-62"/>
     <use x="63.476562" xlink:href="#DejaVuSans-62"/>
     <use x="126.953125" xlink:href="#DejaVuSans-6f"/>
     <use x="188.134766" xlink:href="#DejaVuSans-62"/>
    </g>
    <!-- Multi-modal functions, 2-D -->
    <defs>
     <path d="M 9.8125 72.90625 
L 24.515625 72.90625 
L 43.109375 23.296875 
L 61.8125 72.90625 
L 76.515625 72.90625 
L 76.515625 0 
L 66.890625 0 
L 66.890625 64.015625 
L 48.09375 14.015625 
L 38.1875 14.015625 
L 19.390625 64.015625 
L 19.390625 0 
L 9.8125 0 
z
" id="DejaVuSans-4d"/>
     <path d="M 11.71875 12.40625 
L 22.015625 12.40625 
L 22.015625 4 
L 14.015625 -11.625 
L 7.71875 -11.625 
L 11.71875 4 
z
" id="DejaVuSans-2c"/>
     <path d="M 19.671875 64.796875 
L 19.671875 8.109375 
L 31.59375 8.109375 
Q 46.6875 8.109375 53.6875 14.9375 
Q 60.6875 21.78125 60.6875 36.53125 
Q 60.6875 51.171875 53.6875 57.984375 
Q 46.6875 64.796875 31.59375 64.796875 
z
M 9.8125 72.90625 
L 30.078125 72.90625 
Q 51.265625 72.90625 61.171875 64.09375 
Q 71.09375 55.28125 71.09375 36.53125 
Q 71.09375 17.671875 61.125 8.828125 
Q 51.171875 0 30.078125 0 
L 9.8125 0 
z
" id="DejaVuSans-44"/>
    </defs>
    <g transform="translate(74.3712 68.770168)scale(0.1666 -0.1666)">
     <use xlink:href="#DejaVuSans-4d"/>
     <use x="86.279297" xlink:href="#DejaVuSans-75"/>
     <use x="149.658203" xlink:href="#DejaVuSans-6c"/>
     <use x="177.441406" xlink:href="#DejaVuSans-74"/>
     <use x="216.650391" xlink:href="#DejaVuSans-69"/>
     <use x="244.433594" xlink:href="#DejaVuSans-2d"/>
     <use x="280.517578" xlink:href="#DejaVuSans-6d"/>
     <use x="377.929688" xlink:href="#DejaVuSans-6f"/>
     <use x="439.111328" xlink:href="#DejaVuSans-64"/>
     <use x="502.587891" xlink:href="#DejaVuSans-61"/>
     <use x="563.867188" xlink:href="#DejaVuSans-6c"/>
     <use x="591.650391" xlink:href="#DejaVuSans-20"/>
     <use x="623.4375" xlink:href="#DejaVuSans-66"/>
     <use x="658.642578" xlink:href="#DejaVuSans-75"/>
     <use x="722.021484" xlink:href="#DejaVuSans-6e"/>
     <use x="785.400391" xlink:href="#DejaVuSans-63"/>
     <use x="840.380859" xlink:href="#DejaVuSans-74"/>
     <use x="879.589844" xlink:href="#DejaVuSans-69"/>
     <use x="907.373047" xlink:href="#DejaVuSans-6f"/>
     <use x="968.554688" xlink:href="#DejaVuSans-6e"/>
     <use x="1031.933594" xlink:href="#DejaVuSans-73"/>
     <use x="1084.033203" xlink:href="#DejaVuSans-2c"/>
     <use x="1115.820312" xlink:href="#DejaVuSans-20"/>
     <use x="1147.607422" xlink:href="#DejaVuSans-32"/>
     <use x="1211.230469" xlink:href="#DejaVuSans-2d"/>
     <use x="1247.314453" xlink:href="#DejaVuSans-44"/>
    </g>
    <!-- 51 targets in 100..1e-08 -->
    <g transform="translate(74.3712 87.425723)scale(0.1666 -0.1666)">
     <use xlink:href="#DejaVuSans-35"/>
     <use x="63.623047" xlink:href="#DejaVuSans-31"/>
     <use x="127.246094" xlink:href="#DejaVuSans-20"/>
     <use x="159.033203" xlink:href="#DejaVuSans-74"/>
     <use x="198.242188" xlink:href="#DejaVuSans-61"/>
     <use x="259.521484" xlink:href="#DejaVuSans-72"/>
     <use x="300.619141" xlink:href="#DejaVuSans-67"/>
     <use x="364.095703" xlink:href="#DejaVuSans-65"/>
     <use x="425.619141" xlink:href="#DejaVuSans-74"/>
     <use x="464.828125" xlink:href="#DejaVuSans-73"/>
     <use x="516.927734" xlink:href="#DejaVuSans-20"/>
     <use x="548.714844" xlink:href="#DejaVuSans-69"/>
     <use x="576.498047" xlink:href="#DejaVuSans-6e"/>
     <use x="639.876953" xlink:href="#DejaVuSans-20"/>
     <use x="671.664062" xlink:href="#DejaVuSans-31"/>
     <use x="735.287109" xlink:href="#DejaVuSans-30"/>
     <use x="798.910156" xlink:href="#DejaVuSans-30"/>
     <use x="862.533203" xlink:href="#DejaVuSans-2e"/>
     <use x="894.320312" xlink:href="#DejaVuSans-2e"/>
     <use x="926.107422" xlink:href="#DejaVuSans-31"/>
     <use x="989.730469" xlink:href="#DejaVuSans-65"/>
     <use x="1051.253906" xlink:href="#DejaVuSans-2d"/>
     <use x="1087.337891" xlink:href="#DejaVuSans-30"/>
     <use x="1150.960938" xlink:href="#DejaVuSans-38"/>
    </g>
    <!-- 15 instances -->
    <g transform="translate(74.3712 106.081279)scale(0.1666 -0.1666)">
     <use xlink:href="#DejaVuSans-31"/>
     <use x="63.623047" xlink:href="#DejaVuSans-35"/>
     <use x="127.246094" xlink:href="#DejaVuSans-20"/>
     <use x="159.033203" xlink:href="#DejaVuSans-69"/>
     <use x="186.816406" xlink:href="#DejaVuSans-6e"/>
     <use x="250.195312" xlink:href="#DejaVuSans-73"/>
     <use x="302.294922" xlink:href="#DejaVuSans-74"/>
     <use x="341.503906" xlink:href="#DejaVuSans-61"/>
     <use x="402.783203" xlink:href="#DejaVuSans-6e"/>
     <use x="466.162109" xlink:href="#DejaVuSans-63"/>
     <use x="521.142578" xlink:href="#DejaVuSans-65"/>
     <use x="582.666016" xlink:href="#DejaVuSans-73"/>
    </g>
   </g>
   <g id="text_20">
    <!-- v2.1 -->
    <g style="fill:#808080;" transform="translate(238.449063 293.504568)scale(0.1 -0.1)">
     <use xlink:href="#DejaVuSans-76"/>
     <use x="59.179688" xlink:href="#DejaVuSans-32"/>
     <use x="122.802734" xlink:href="#DejaVuSans-2e"/>
     <use x="154.589844" xlink:href="#DejaVuSans-31"/>
    </g>
   </g>
  </g>
 </g>
 <defs>
  <clipPath id="p6ad5a2adc0">
   <rect height="266.112" width="357.12" x="70.8" y="32.133375"/>
  </clipPath>
 </defs>
</svg>
